<?xml version="1.0" encoding="utf-8"?>
<!-- Generator: Adobe Illustrator 27.3.1, SVG Export Plug-In . SVG Version: 6.00 Build 0)  -->
<svg version="1.1" id="Layer_1" xmlns="http://www.w3.org/2000/svg" xmlns:xlink="http://www.w3.org/1999/xlink" x="0px" y="0px"
	 viewBox="0 0 250 250" enable-background="new 0 0 250 250" xml:space="preserve">
<g>
	<path fill="#d0d6d9" d="M114.1,125.9c0.2-1,0.8-1.9,1.1-2.9c0.4-1.3,1.3-2.5,1.4-3.9c0.2-0.5,0.5-0.9,0.7-1.3
		c0.6-1.3,1.9-2.4,1.9-4c0.1-0.2,0.1-0.5,0.2-0.7c0.1-0.1,0.2-0.2,0.2-0.4c0.1-0.4,0.2-0.8-0.2-1.1c-0.2-1.4-0.2-1.4-1.5-1.3
		c-0.3,0-0.5,0.1-0.8,0.1c-0.2-0.1-0.3-0.1-0.5-0.2c-0.1-0.8-0.9-0.8-1.3-1c-0.8-0.3-1.6-1-2.6-0.6c-0.2,0-0.3-0.1-0.5-0.1
		c-0.1-0.6-0.3-0.8-0.8-0.3c-0.2,0-0.3-0.1-0.5-0.1c-0.1-0.1-0.2-0.2-0.3-0.2c-0.5-0.3-1.1-0.5-1.7-0.7c-0.1-0.2-0.3-0.3-0.6-0.2
		c-0.7-0.3-1.2-0.8-1.8-1.1c-1.6-0.8-3.3-1.4-5.1-1.6c-0.5-0.1-0.8-0.3-1.2-0.7c-0.1-0.3-0.3-0.5-0.7-0.4c-0.1,0-0.1-0.1-0.2-0.1
		c-0.2-0.2-0.4-0.2-0.6-0.2c-2.1-0.9-4.3-1.8-6.4-2.7c-1.2-0.5-2.5-0.8-3.6-1.3c-1.5-0.8-3-1.3-4.6-1.8c-1.2-0.4-2.5-0.8-3.5-1.7
		c-0.3-0.2-0.6-0.3-0.9-0.4c-1.1-0.4-2.3-0.1-3.3-0.9c0-0.2-0.1-0.3-0.2-0.3c0-0.2,0-0.3,0.1-0.5c0.3-0.5,1-0.5,1.1-1.1
		c0-0.1,0.1-0.2,0.1-0.3c0.4-0.1,0.5-0.4,0.7-0.7c0.6-1,1.3-2.1,2.3-2.8c0.7-0.9,1.4-1.9,2.3-2.8c-0.1-0.1-0.2-0.2-0.2-0.2
		c0.1,0.1,0.2,0.1,0.2,0.2c1.3-1.5,2.6-3,4.4-4c0.2-0.1,0.3-0.4,0.5-0.7c0.4-0.2,0.8-0.3,1-0.7c1.3-1.6,3.1-2.5,4.7-3.8
		c1.4-1.1,3.2-1.8,4.8-2.8c1.6-1,3.2-1.9,5-2.5c0.3,0.1,0.6,0,0.9-0.1c1-0.4,2.1-0.6,3.1-1c0.6-0.2,1.2-0.1,1.5-0.7l0,0
		c0.5,0.1,1.1,0.2,1.5,0c1.4-0.9,3-1.2,4.6-1.3c2-0.2,3.9-0.7,5.9-0.7c1.4,0,2.9-0.1,4.3-0.3c1.5-0.2,3.1-0.2,4.6,0
		c2.1,0.3,4.1,0.7,6.2,1c0.6,0.1,1.3,0.3,1.8-0.2c0.1-0.1,0.2-0.2,0.3-0.3c0.7-0.4,1-1.1,1.2-1.8c0.3-1,0.5-2.1,1.2-2.9
		c0.2-0.2,0.2-0.4,0.1-0.7c0.3-0.5,0.2-1.1,0.5-1.6c1.2-2.2,1.9-4.7,3.1-6.9c0.1-0.1,0.1-0.3,0.1-0.4c0.2-0.8,0-1.1-0.7-1.5
		c-1.4-0.9-3.1-0.9-4.6-1.1c-2.1-0.2-4.3-0.4-6.4-0.7c-1.7-0.3-3.2-0.4-4.9-0.2c0,0,0,0,0,0c-0.7-0.5-1.3-0.6-1.9-0.3
		c-0.2,0.1-0.4,0.2-0.6,0c-0.6-0.4-1.1-0.2-1.7,0c-0.6,0.2-1.3,0.4-2,0.2c-0.4-0.1-0.6,0.1-0.9,0.2c-1.2,0.1-2.5-0.1-3.7,0.4
		c-0.3,0-0.5,0-0.8,0c-0.7-0.5-1.2-0.2-1.6,0.3c-0.2,0.2-0.4,0.2-0.6,0.2c-0.2-0.3-0.4-0.2-0.6,0c-0.5,0-0.9,0.1-1.4,0.1
		c-0.2-0.1-0.4-0.1-0.6,0.1c-0.1,0-0.2,0-0.2,0.1c-0.1,0-0.3,0-0.4,0.1c-0.4,0.1-0.9,0.1-1.3,0.2c-0.1-0.1-0.3,0-0.3,0.1
		c-1.6,0.3-3.3,0.8-4.9,1.3c-1,0.3-2.1,0.2-2.9,0.8c-0.6,0.5-1.4,0.7-2.2,0.8c-0.4,0.1-0.8,0.2-1.2,0.4c-1.2,0.7-2.7,1.1-3.8,1.9
		c-0.2,0.1-0.4,0.3-0.6,0.3c-2.5,0.6-4.6,2.2-6.8,3.5c-0.3,0.2-0.5,0.4-0.8,0.5c-3.2,1.2-5.6,3.6-8.1,5.7c-1.5,1.3-3.1,2.6-4.5,4.1
		c-1.5,1.6-2.9,3.4-4.5,4.9c-1.7,1.6-2.7,3.8-4.4,5.4c-0.6,0.6-1.4,1.1-1.3,2.1c0,0.2-0.3,0.5-0.6,0.8c-0.2,0.2-0.5,0.4-0.6,0.7
		c-0.7,1.6-1.9,2.9-2.5,4.6c-0.4,1-1,1.8-1.6,2.7c-0.7,1.1-1.2,2.4-1.7,3.7c-0.5,1.2-1,2.3-1.2,3.6c-0.1,0.6-0.3,1.2-0.5,1.7
		c-0.7,1.8-1.4,3.5-1.7,5.4c-0.3,1.7-0.6,3.4-1.2,5.1c-0.4,1.2-0.3,2.5-0.7,3.7c0,0.1,0,0.3,0,0.4c0.4,0.8,0.2,1.7,0.1,2.5
		c-0.4,2.9-0.4,5.7-0.3,8.6c0.1,2.5,0.3,5,0.7,7.5c0.4,2,0.3,4.2,1,6.2c0.2,0.6,0.4,1.2,0.6,1.9c0.3,1.1,0.3,2.2,0.7,3.2
		c0.5,1.4,0.8,2.8,1.6,4.1c0.1,0.2,0.3,0.5,0.3,0.8c0.4,1.6,0.6,3.3,1.8,4.5c0.1,0.1,0.2,0.3,0.2,0.5c0.7,2.6,2.2,4.7,3.4,7
		c0.9,1.7,2.1,3.3,3.3,4.8c1.2,1.5,2,3.3,3.6,4.5c0.4,0.3,0.7,0.7,0.8,1.1c0.2,0.6,0.7,1,1.2,1.3c0.8,0.6,1.2,0.5,1.6-0.4
		c0.4-0.9,0.7-1.8,1.2-2.7c0.4-0.9,1.1-1.6,0.9-2.7c0-0.1,0.1-0.3,0.2-0.4c0.4-0.9,0.8-1.8,1.1-2.7c1-2.5,2.1-4.9,3-7.3
		c0.3-0.9,0.3-1.4-0.2-2.2c-1.3-2.2-2.9-4.2-4-6.6c-0.6-1.4-1.2-2.8-1.9-4.2c-0.3-0.6-0.6-1.3-0.8-2c-0.5-1.9-0.9-3.8-1.5-5.7
		c-0.3-1-0.1-2-0.5-2.9c-0.4-1.1-0.6-2.2-0.5-3.4c0.1-0.7,0-1.4-0.2-2.1c-0.2-0.8-0.3-1.6-0.3-2.5c0.1-1.3,0.3-2.6,0.2-3.9
		c-0.2-2.4,0.3-4.8,0.5-7.2c0.1-1.4,0.4-2.8,0.6-4.1c0.2-1.3,0.6-1.6,1.9-1.2c0.4,0.1,0.7,0.3,1,0.5c0.7,0.4,1.4,0.8,2.1,1.1
		c1.4,0.7,2.9,1.2,4.3,1.8c0.8,0.3,1.5,0.7,2.4,0.9c0.9,0.2,1.8,0.3,2.6,0.9c0.9,0.8,2,1.2,3.1,1.4c0.4,0.1,0.8,0.1,1.2,0.3
		c1.7,1.1,3.7,1.6,5.6,2.5c1.9,0.9,3.9,1.7,5.9,2.5c0.9,0.3,1.8,0.6,2.6,1c3.3,1.6,6.8,2.6,10,4.2
		C113,127.6,113.8,127.2,114.1,125.9z M65.2,106.1C65.2,106.1,65.2,106.1,65.2,106.1C65.2,106.1,65.2,106.1,65.2,106.1
		C65.2,106.1,65.2,106.1,65.2,106.1z M91,68.8c0.5,0.2,1-0.3,1.4-0.2c0.2,0,0.4-0.1,0.4-0.3c0.1-1,0.5-1.9,0.9-2.9
		c0.3-0.6-0.5-0.9-0.8-1.2c0.1-0.4,0.5-0.1,0.6-0.3c-0.1-0.4-0.6-0.3-0.8-0.6c-0.2-0.2-0.4-0.4-0.3-0.7c0.1-0.3,0.4-0.4,0.7-0.2
		c0.8,0.4,1.2,0,1.4-0.8c0.1-0.5,0.4-0.9,1-0.5c0.4,0.2,1.2,0,1.1,0.7c0,0.5-0.2,1.1-1,1.1c-0.1,0-0.3,0.1-0.4,0.1
		c0,0.6,0.6,0.7,0.8,1.1c0.1,0.2,0.3,0.2,0.5,0.2c0.5,0,0.7-0.7,1.2-0.5c0.4,0.2,0.6,0.6,1.2,0.4c0.3-0.1,1.5,1.4,1.5,1.8
		c0,0.4-0.3,0.6-0.6,0.6c-0.4,0.1-0.7-0.2-1-0.3c0.4,1.1-0.1,1.8-0.8,2.5c-0.3,0.3-0.5,0.6-0.7,1.1c-0.3,0.8-0.8,0.9-1.4,0.4
		c-0.1-0.1-0.3-0.3-0.4-0.4c-1-1.1-1.8-1-2.7,0.4c-0.4,0-0.8,0-1.2,0.2c-0.2,0.1-0.4,0.1-0.6-0.1c-0.7-0.6-1.6-0.7-2.3-0.2
		c-0.1,0-0.2,0.1-0.2,0.1c-0.4,0.1-0.7,0.8-1.1,0.4c-0.4-0.5,0-0.9,0.3-1.3c0.1-0.2,0.3-0.4,0.5-0.4c1,0,0.8-1.1,1.4-1.5
		c0.3-0.2-0.1-0.5-0.4-0.7c-0.4-0.3-0.6-0.6-0.2-1c0.5-0.5,0.7-0.2,1.2,0.1c1.1,0.8,1.4,1.8,0.9,3C90.9,68.5,91,68.6,91,68.8z
		 M98.9,60.8c0,0.2-0.1,0.3-0.2,0.3C98.8,61.1,98.9,61,98.9,60.8c0,0-0.1-0.1-0.1-0.2C98.8,60.7,98.9,60.8,98.9,60.8z M93,70.9
		c-0.1-0.3-0.2-0.6-0.2-0.9h0C92.8,70.3,92.9,70.6,93,70.9z M80,84.7C80,84.7,80,84.7,80,84.7c0,0.1-0.1,0.2-0.2,0.2
		C79.9,84.9,80,84.8,80,84.7z M70.1,96.2c0.4-0.5,0.9-0.5,1.5-0.6c0,0,0,0,0,0C71.1,95.6,70.5,95.7,70.1,96.2z M65.5,105.2
		c-0.2,0.2-0.2,0.6-0.3,0.9c0,0,0,0,0,0C65.3,105.7,65.4,105.4,65.5,105.2z M105.2,62.2c0.1,0,0.2-0.1,0.2-0.2
		c0-0.1-0.1-0.2-0.2-0.3c0.1,0.1,0.2,0.2,0.2,0.3C105.3,62.1,105.3,62.2,105.2,62.2z M105,61.6C105,61.6,105,61.6,105,61.6
		C105,61.6,105,61.6,105,61.6z M113.9,60.1c-0.8,0.1-1.7,0-2.5,0.3c-0.1,0-0.4,0-0.5-0.1c-0.3-0.5-0.7-0.6-1.3-0.8
		c-0.3-0.1-0.5-0.4-0.5-0.8c0-0.3,0.3-0.5,0.6-0.5c0.7,0,1.2-0.7,2-0.6c0.3,0,0.5-0.2,0.5-0.4c-0.1-0.9,0.5-1,1.1-1.1
		c0.4-0.1,0.7-0.1,1.1-0.2v0c0.1,0,0.1,0.1,0.1,0.1c0,0.2-0.1,0.5-0.3,0.6c-0.6,0.4-0.9,0.8-0.1,1.3c0.5,0.3,0.5,1,0.5,1.5
		C114.8,59.9,114.3,60.1,113.9,60.1z M128.6,53.4L128.6,53.4c0.1,0,0.3-0.1,0.4-0.1C128.9,53.3,128.8,53.4,128.6,53.4z M128.5,53.4
		C128.5,53.4,128.5,53.4,128.5,53.4C128.5,53.4,128.5,53.4,128.5,53.4z M125,65.4c-0.1,0-0.2,0-0.3,0c-0.2,0-0.3-0.1-0.4-0.1
		c0.1,0.1,0.3,0.1,0.4,0.1C124.8,65.4,124.9,65.4,125,65.4L125,65.4z M121.8,52.4c0-0.1,0-0.2,0-0.3
		C121.8,52.3,121.8,52.4,121.8,52.4L121.8,52.4z M136.6,60c0,0.4,0,0.7,0,1.1C136.6,60.7,136.6,60.3,136.6,60L136.6,60z M138,63.1
		c0.1,0,0.1,0,0.2,0C138.1,63,138,63.1,138,63.1L138,63.1z M138.7,62.9c0.1,0,0.1,0,0.2-0.1C138.8,62.9,138.8,62.9,138.7,62.9
		c-0.1,0-0.1,0-0.2,0C138.6,63,138.6,63,138.7,62.9z M128.4,50.1c0,0-0.1,0-0.1,0C128.3,50.1,128.4,50.1,128.4,50.1z M124.4,51.1
		L124.4,51.1c-0.1,0-0.2-0.1-0.3-0.1C124.2,51,124.3,51.1,124.4,51.1z M61.6,97.3c0-0.2-0.1-0.4-0.1-0.6c0,0,0,0,0,0
		C61.5,96.9,61.6,97.1,61.6,97.3z M61.5,96.7L61.5,96.7c0.1,0,0.1,0,0.2,0C61.6,96.7,61.5,96.7,61.5,96.7z M58.7,103.8
		c0.2-0.2,0.4-0.4,0.6-0.6c0.3-0.4,0.9-0.5,0.9-1.2c0-0.3,0.4-0.3,0.6-0.2c0.3,0.1,0.3,0.3,0.2,0.5c-0.1,0.2-0.1,0.4-0.1,0.5
		c-0.3,1.3-0.5,1.5-1.8,1.5c0,0-0.2,0-0.3-0.1C58.6,104.2,58.6,104,58.7,103.8z M64.2,135.1c-0.1,0.5-0.6,0.4-0.9,0.2
		c-1-0.5-2-1.1-3.2-0.3c-0.5,0.3-1.2-0.5-1-1c0.2-0.4-0.7-1,0.3-1.3c0.3-0.1,0.1-1.1,0.9-1.2c0,0,0.1-0.1,0.1-0.1
		c-0.1-0.1-0.1-0.1-0.2-0.2c-1.1-0.3-0.6-0.6,0-0.8c0.4-0.2,0.6-0.6,0.9-0.8c0.2-0.2,0.5-0.4,0.8-0.2c0.3,0.2,0.3,0.5,0.1,0.7
		c-0.6,0.8-0.3,0.9,0.5,1.2c0.7,0.3,0.9,1.1,1,1.8c0,0.4-0.1,0.8,0.5,0.9C64.8,134.2,64.3,134.8,64.2,135.1z M72.6,103.3L72.6,103.3
		c-0.2,0-0.5,0.1-0.7,0.1C72.1,103.4,72.4,103.4,72.6,103.3z M72.6,103.3C72.6,103.3,72.6,103.3,72.6,103.3c0,0.1,0,0.3,0,0.4
		C72.6,103.6,72.6,103.5,72.6,103.3z M77,107.1C77,107.1,77,107.1,77,107.1c0,0.6-0.1,0.9-0.2,1.1C76.9,108,77,107.6,77,107.1z
		 M77.1,107C77.1,107,77.1,107,77.1,107L77.1,107L77.1,107c0-0.1,0-0.2,0.1-0.3C77.1,106.8,77.1,106.9,77.1,107
		C77.1,107,77.1,107,77.1,107c0,0,0.1,0,0.1-0.1C77.1,107,77.1,107,77.1,107z"/>
	<polygon fill="#d0d6d9" points="182.9,133.8 182.9,133.8 182.9,133.8 	"/>
	<path fill="#d0d6d9" d="M195.8,149.3c-0.2-1.1,0.5-2.1,1.1-2.8c0.7-0.9,0.7-1.7,0.5-2.6c-0.1-0.4-0.1-0.8,0-1.2
		c0.3-1.2,1.1-2.3,0.6-3.6c-0.1-0.2,0.1-0.4,0.2-0.6c0.4-0.8,0.6-1.8,0.8-2.6c0.3-1.7,0.3-3.4,0.7-5.1c0-0.1,0.1-0.3,0-0.4
		c-0.8-0.8-0.2-1.6,0-2.5c0.5-1.9,1-3.9-0.2-5.7c-0.2-0.3,0-0.5,0-0.8c-0.1-0.9,0.5-1.8,0.1-2.6c-0.4-0.8-0.4-1.5-0.4-2.3
		c0-1.3-0.3-2.6-0.4-3.9c-0.2-1.9-1-3.7-1.2-5.6c0-0.5-0.3-0.8-0.8-0.8c-0.2,0.7,0.3,1.3,0.2,1.9c0,0.2-0.1,0.5-0.3,0.5
		c-0.3,0-0.4-0.1-0.4-0.4c0-0.4-0.2-0.7-0.4-1c-0.1-0.2-0.3-0.5-0.5-0.4c-0.9,0.3-1.4-0.3-1.9-0.8c-0.5-0.5-0.8-0.6-1.2,0
		c-0.5,0.7-1-0.2-1.5,0c0.4-0.5,1.1-0.6,1.6-1.1c0.3-0.3,0.8-0.3,1.2-0.1c0.6,0.2,1,0.3,1.5-0.3c0.5-0.5,1-0.3,1.2,0.4
		c0.1,0.4-0.1,0.9,0.5,1c0.8-0.3,0.7-0.7,0.2-1.3c-0.5-0.5-0.9-1-0.6-1.7c0.1-0.1-0.1-0.3-0.1-0.5c-0.3-0.8-0.6-1.6-0.8-2.3
		c-0.4-1.7-1.2-3.2-1.7-4.8c-0.9-2.8-2.6-5.2-4-7.8c-0.6-1.1-1.4-2.1-1.8-3.3c-0.1-0.4-0.3-0.7-0.6-0.9c-0.6-0.5-0.9-1.1-1.3-1.8
		c-0.2-0.3-0.3-0.7-0.6-0.9c-0.8-0.9-1.6-0.8-2,0.3c-0.4,1.2-1.1,2.3-1.3,3.5c-0.1,0.3-0.2,0.5-0.4,0.8c-0.3,0.4-1,2.3-1.1,3.1
		c0,0.1-0.1,0.2-0.1,0.3c-1.1,1.2-1.5,2.8-2.1,4.2c0.8-0.4,1.2,0.4,1.9,0.6c0.3,0.1,0.1,0.3,0.1,0.4c-0.1,0.3-0.3,0.6-0.2,0.9
		c0.1,0.5-0.2,0.7-0.6,0.8c-0.3,0.1-0.7,0-0.6,0.5c0.1,0.4,0.6,0.2,0.9,0.5c-0.5,0.4-1,0.7-0.8,1.6c0.2,0.6-0.2,0.8-0.8,0.4
		c-0.3-0.2-0.5-0.3-0.9-0.1c0.3,0.6,0.7,1.1,0.7,1.8c0,0.6,0.9,0.8,1.5,0.4c0.2-0.1,0.4-0.4,0.6-0.6c0.7-0.4,1.5,0,1.5,0.8
		c0,0.4-0.1,0.8-0.6,0.7c-0.9-0.1-1.1,0.4-1.4,1.1c-0.3,0.8-0.9,1.5,0.1,2.2c0,1.1,0.3,1.6,1.5,0.8c0.2-0.1,0.5,0.1,0.7,0.3
		c-0.1,0.3-0.4,0.4-0.6,0.5c-0.4,0.3-0.4,0.6-0.2,1c0.6,0.9,0.8,1.7,0.6,2.8c-0.1,0.6,0.4,1.1,0.8,1.5c0.3,0.3,0.6,0.5,0.1,1
		c-0.2,0.3-0.2,0.9,0.3,1.1c0.7,0.3,0.5,0.7,0.2,1.1c-0.2,0.3-0.3,0.7-0.2,1.1c0.2,0.5,0,0.7-0.5,0.7c-0.3,0-0.4,0.1-0.4,0.4
		c0,0.3,0.3,0.4,0.5,0.5c0.3,0.2,0.6-0.1,0.9-0.1c0.7-0.1,1.1,0.6,1.7,0.5c0.5-0.1,0.7-0.8,1.4-0.7c0.5,0.1,1,0,1.5-0.2
		c0.5-0.2,0.7-0.6,0.6-1.1c-0.1-0.8,0.2-1.2,0.8-1.1c0.5,0.1,0.9,0.3,1.4-0.2c0.2-0.2,0.7-0.2,0.8,0.2c0.1,0.3-0.1,0.5-0.4,0.6
		c-0.5,0.2-0.7,0.7-0.6,1.3c0.1,0.6,0.7,0.8,1.1,1.1c0.2,0.1,0.5,0,0.6-0.2c0.2-0.6,1,0.2,1-0.5c0.5,0,0.5,0.5,0.8,1
		c-1.1,0-1.6,0.8-2.2,1.3c-0.3,0.3-0.6,0.7-1.2,0.5c-0.6-0.3-0.8,0.5-1.4,0.5c0,0.3,0,0.7-0.1,1c-0.4,0.7,0,1.3,0.4,1.6
		c0.8,0.5,1.3,1.5,2.4,1.5c0.4,0,0.5,0.4,0.7,0.6c0.3-0.2,0.4-0.6,0.6-0.9c0.3-0.5,0.8-0.8,1.5-0.8c0.9,0,1-0.1,0.5-0.9
		c-0.1-0.2-0.2-0.5,0-0.6c0.2-0.2,0.4,0,0.6,0.2c0.2,0.2,0.3,0.4,0.2,0.6c0,0.2,0,0.3,0.3,0.3c0.7,0,0.8,0,0.4,0.6
		c-0.3,0.5-0.5,1.4-1.5,0.7c-0.3-0.2-0.8,0.2-0.7,0.6c0.4,1.1-0.4,2.2,0.3,3.3c0.3,0.4-0.1,0.7-0.5,0.8c-0.5,0.1-0.5-0.3-0.5-0.6
		c0-0.2,0-0.5,0.1-0.7c0.1-0.9-0.1-0.9-0.8-1.5c-1.6-1.1-3.2-0.9-4.9-0.2c-0.1,0.1-0.3,0-0.4,0c0,0-0.1,0-0.2-0.1
		c0.2-0.5,0.8-0.7,1.1-1.1c0.3-0.5,0.2-0.8-0.3-0.9c-0.9-0.2-1.8-0.4-2.7,0.3c-0.5,0.4-1.3,0-2,0.1c-0.8,0.1-1.2,0.4-1.2,1.2
		c0,0.4-0.1,0.8-0.2,1.2c-0.3,1-0.1,1.6,0.8,2c0.4,0.2,0.6,0.6,0.6,1.1c0,0.3-0.1,0.6,0.3,1c0.4-0.4,0.4-1,0.9-1.2
		c0.2-0.1,0.4-0.2,0.6,0c0.1,0.2,0.1,0.3,0,0.5c-0.5,1.1-0.4,1,0.4,1.9c0.5,0.7,1.5,1.3,1.1,2.4l0,0c-1.1,0.1-2.2-0.3-3.2,0.4
		c-0.4,0.3-0.8,0-0.9-0.5c-0.1-0.3,0-0.5,0-0.8c-0.3,0.1-0.5,0.1-0.8,0.3c-0.6,0.2-0.7,0.7-0.4,1.2c0.2,0.4,0.4,0.8,0.6,1.3
		c0.1,0.5,0,0.9-0.6,0.8c-0.3,0-0.8,0.2-0.9-0.2c-0.1-0.4-0.3-0.9,0-1.3c0.4-0.4,0.5-0.8,0.3-1.3c-0.2-0.7-0.1-1.4-0.2-2.1
		c-0.1-0.7-0.2-1.2,0.4-1.8c0.5-0.5,0.3-1.3,0-1.9c-0.4-0.7-0.2-1.2,0.1-1.9c0,0,0-0.1,0.1-0.1c0.6-1.3,0.6-2.5-0.4-3.6
		c-0.2,0.1-0.2,0.3-0.1,0.5c0.5,1.1,0.3,2.1-0.5,3.1c-0.2,0.3-0.2,0.6-0.1,0.9c0.1,1,0.3,2.1,0.2,3.2c0,1.2-0.6,2.3-0.2,3.6
		c0.1,0.5-0.1,1.1-0.6,1.5c-0.5,0.4-0.9,0.1-1.4-0.2c-0.3-0.2-0.7-0.2-1-0.5c-1.2-0.7-2.4-1.3-3.8-1.6c-1.4-0.3-2.8-0.8-4-1.6
		c-1.4-0.9-2.8-1.5-4.4-1.7c-0.2,0-0.4-0.1-0.5-0.2c-1.8-1-3.8-1.7-5.8-2.4c-1.8-0.6-3.6-1.4-5.4-2.1c-0.7-0.3-1.3-0.4-2-0.6
		c-1.8-0.4-2.1-1.2-1.3-2.8c0.9-1.8,1.9-3.6,2.5-5.6c0.2-0.4,0.6-0.6,0.7-1c0.5-1.8,1.2-3.5,1.9-5.2c0.4-0.9,1.1-1.7,1.2-2.6
		c0.1-0.8,0.3-1.4,0.7-2.1c0.3-0.5,0.4-1,0.4-1.6c0.1,0,0.2,0,0.3-0.1c0.5-1.5,1.6-2.8,1.9-4.4c0.3-1.4,1.1-2.5,1.3-3.9
		c0-0.2,0.2-0.5,0.3-0.6c0.4-0.3,0.4-0.7,0.6-1c0.5-1.3,1-2.6,1.6-3.8c0.6-1,0.9-2.1,1.2-3.2c0.1-0.4,0.3-0.9,0.4-1.3
		c0.3-0.1,0.4-0.3,0.5-0.6c0.4-1.6,1.1-3,1.7-4.5c1-2.6,2.4-5.1,3.2-7.8c0.3-1,1.2-1.7,1.1-2.8c0,0,0,0,0,0c0-0.2,0.1-0.5,0.1-0.7
		c0.5-0.2,0.5-0.5,0.4-0.9l0,0c0.9-0.7,0.8-1.5-0.2-2.1c-0.1,0-0.1-0.1-0.2-0.1c-0.1-0.3-0.3-0.5-0.6-0.4c-0.2-0.1-0.3-0.1-0.5-0.2
		c-0.3-0.6-0.6-1.3-1.4-1.4c-0.6-0.4-1.1-0.7-1.7-1.1c-0.1-0.6-0.6-0.8-1.1-1c-1.8-1-3.5-2.1-5.1-3.4c-0.5-0.4-1.1-0.7-1.7-0.9
		c-0.7-0.2-1.4,0-1.7,0.8c-0.1,0.1-0.1,0.3-0.2,0.4c-0.3,0.1-0.5,0.3-0.3,0.7c-0.8,1.6-1.2,3.3-2,4.9c-0.3,0.6-0.7,1.2-0.9,1.9
		c-0.6,2.3-1.7,4.3-2.6,6.5c-0.5,1.3-1.4,2.5-1.7,3.8c-0.5,2-1.5,3.8-2.3,5.7c-0.8,1.8-1.3,3.8-2.4,5.5c0,0.1,0,0.2-0.1,0.3
		c-0.1,1.3-0.8,2.4-1.2,3.5c-0.4,1.1-0.9,2.1-1.4,3.2c-0.4,0.9-1,1.8-1.5,2.7c-0.8,1.5-0.9,3.2-1.5,4.7c-0.7,1.8-1.5,3.5-2.2,5.3
		c-1.5,3.7-3.1,7.4-4.8,11.1c-0.7,1.5-0.6,3.2-2,4.4c-0.1,0.1-0.1,0.4-0.1,0.5c0,1.1-0.6,2-1,3c-0.4,1-1.2,1.8-1.5,2.8
		c-0.2,0.8-0.5,1.6-1,2.2c-0.5,0.7-0.3,1.8-1.1,2.4c0,0,0,0.2,0,0.3c0.4,0.6,0,1.2-0.2,1.7c-0.6,1.2-1.5,2.3-1.6,3.8
		c0,0.1-0.1,0.3-0.1,0.4c-1,1.7-1.7,3.5-2.2,5.5c-0.1,0.3-0.3,0.6-0.4,0.9c-0.4,0.9-1.1,1.7-1.2,2.6c-0.1,0.9-1,1.3-1.1,1.9
		c-0.2,0.7,0.1,1.5-0.4,2.1c-0.3,0.4-0.3,0.8-0.4,1.2c0.3,0.4,0.6,0.9,1.2,0.2c0.1-0.1,0.4-0.2,0.4-0.3c0.7-1.2,1.7-1.1,2.8-0.9
		c0.7,0.1,0.9-0.1,0.6-0.7c-0.3-0.6-0.4-1.4-1.4-1.4c-0.3,0-0.5-0.2-0.5-0.6c0-0.3,0.3-0.6,0.6-0.5c0.9,0.2,0.9-0.1,0.9-0.9
		c0-0.6,0.3-1.4,1.2-1.4c0.2,0,0.5-0.3,0.7-0.4c0.5-0.2,1.2-0.3,1.6,0.2c0.5,0.7,1.2,0.5,1.9,0.8c0.5,0.2,0.9-0.1,1.2-0.5
		c0.4-0.4,0.9-0.6,1.5-0.4c0.3,0.1,0.4,0.4,0.4,0.7c-0.1,0.3-0.3,0.3-0.5,0.2c-0.2-0.1-0.4-0.1-0.5,0.1c-0.1,1-1.2,0.7-1.6,1.4
		c-0.3,0.5-1.8,0.2-2.2-0.4c-0.4-0.6-0.8-0.9-1.5-1.3c-0.3,0.6-0.1,1.6-1.1,1.7c-0.2,0-0.1,0.3,0,0.4c0.1,0.1,0.4,0.2,0.5,0.2
		c1.2-0.5,2.2,0.4,3.1,0.4c0.2,0.2,0.2,0.3,0.2,0.4c-0.4,1.5-0.6,1.6-1.9,0.6c-0.4-0.3-0.6-0.1-0.9,0.1c-0.4,0.3-1,0.3-0.9,0.9
		c0,0.3,0.2,0.8,0.7,0.5c0.2-0.1,0.4-0.3,0.6-0.3c0.2,0,0.4,0.1,0.4,0.3c0.2,0.8-0.6,1.9-1.4,1.8c-0.3,0-0.6-0.3-0.7,0
		c-0.2,0.6-1,0.6-1,1.3c0,0.5,0,0.9,0.6,1c0.8,0.2,0.9,0.4,0.3,1c-0.6,0.7-0.9,1.4-0.8,2.3c0,0.3,0.1,0.7-0.1,0.8
		c-0.8,0.8-0.3,1.8-0.7,2.6c0.6,0.3,0.9-0.3,1.4-0.4c0.6,0,0.4,0.7,0.9,0.8c0.4-0.2,0.4-0.7,0.9-0.8c-0.3-0.4-0.7-0.2-1.1-0.4
		c0.8-1.1,0.7-2.3,0-3.5c0.1-0.3,0.4-0.2,0.6-0.3c0.6-0.3,0.8-0.7,0.3-1.4c-0.3-0.4-0.3-0.9-0.4-1.3c-0.1-0.4,0.1-0.7,0.6-0.8
		c0.4-0.1,0.8,0,0.8,0.5c0,0.7,0.8,0.9,1,1.5c0.1,0.2,0.4,0.2,0.6,0.1c0.5-0.2,0.9,0.1,1.4,0.2c0.6,0.1,0.3,0.7,0.5,1
		c0.8,1.2,0.4,2.5,0.6,3.7c0,0.1,0,0.4-0.1,0.4c-1.1,0.2-0.7,1.3-1.2,1.8c0.2,0.3,0.5,0.2,0.7,0.1c0.1,0,0.3,0,0.3,0.2
		c-0.1,0.6-0.7,0.6-1,0.9c-0.2,0.2-0.4,0.1-0.6-0.1c0,0,0-0.1-0.1-0.1c-0.3-0.3-0.5-0.9-1-0.6c-0.5,0.3-0.7,0.9-0.5,1.4
		c0.1,0.5,0.2,0.8-0.5,1.1c-0.5,0.2-0.5,0.7-0.3,1.2c0.4,1.2,0.4,1.7,0,3c-0.1,0.4-0.3,0.7-0.2,1.1c0,0.7-0.2,1.1-0.9,1.3
		c-0.2,0.1-0.6,0.2-0.4,0.6c0.2,0.3,0.5,0.4,0.8,0.2c0.3-0.1,0.4-0.5,0.9-0.6c-0.3,0.9-0.1,1.7-0.4,2.5c-0.4,0.8-0.5,0.8-1.2,0.3
		c-1-0.7-2-1.5-2.9-2.2c-0.2-0.1-0.4-0.3-0.7-0.2c0.3,0.8,0.9,1.4,1.6,1.9c0.5,0.4,1,0.8,1.2,1.5c0.2,0.4,0.4,0.9-0.2,1.2
		c-0.5,0.2-1.1,0.4-1.5-0.2c-0.2-0.3-0.6-0.6-0.5-1c0.1-0.8-0.5-1.2-0.8-1.7c-0.3-0.7-0.8-1.1-1.7-0.6c-0.2,0.1-0.5,0.1-0.5-0.2
		c-0.1-0.9-0.7-0.8-1.3-0.9c0,0.1-0.1,0.2-0.1,0.3c0.1,0.4,0.8,0.8,0.3,1.3c-0.4,0.4-1,0-1.4-0.3c-0.6-0.4-1.4-0.7-0.9-1.7
		c0.3-0.6-0.7-0.9-0.3-1.5c0.3-0.4,0.6-0.8,0.8-1.3c0.2-0.5,0-1-0.4-1.4c-0.7-0.7-0.8-1.4-0.2-2.1c0.4-0.4,0.8-0.7,0.6-1.4
		c-0.1-0.2,0.2-0.5,0.3-0.8c0.5-1,0.5-1-0.6-1.7c1-0.5,1.5-1.2,1.7-2.2c0.1-0.8,0.7-1.4,1-2.1c0.1-0.3,0.4-0.4,0.7-0.3
		c0.7,0.2,0.9-0.2,0.8-0.7c-0.1-0.9,0.2-1.6,0.9-2.3c0.2-0.1,0.2-0.4,0.3-0.6c0.2-0.8,0-1.6-0.4-1.8c-0.5-0.2-1.8,0.2-2.2,0.6
		c-0.3,0.4-0.4,0.8-0.9,1c-0.5,1.5-1.1,3-1.6,4.4c-0.7,1.9-1.5,3.8-2.3,5.7c-1.3,3.2-2.5,6.4-3.9,9.5c-1.1,2.3-1.8,4.8-2.8,7.1
		c-0.7,1.7-1.3,3.4-2,5.1c-0.8,1.9-1.7,3.7-2.5,5.6c-0.4,1-0.2,1.3,0.9,1.7c0.8,0.3,1.8,0.2,2.6,0.4c3.9,1,7.8,1.7,11.7,2.3
		c1.1,0.2,1.5,0,1.8-0.9c0.7-2,1.8-3.9,2.4-5.9c0.3-1.3,1.3-2.2,1.6-3.5c0.2-1.1,0.8-2.1,1.4-3c0.5-0.7,1.2-1.4,1-2.4
		c-0.1-0.6,0.1-0.9,0.4-1.3c0.2-0.3,0.4-0.6,0.5-0.9c0.3-1.4,1-2.7,1.5-4c0.9-2.6,2.3-5,3.1-7.7c0.5-1.6,1.5-2.9,2-4.4
		c0.8-2.4,1.5-4.8,2.9-6.9c0.1-0.1,0.2-0.2,0.2-0.4c0.3-2,1.5-3.7,2-5.6c0.7-0.8,1.1-1.7,1.1-2.8c0-0.1,0.1-0.2,0.1-0.3
		c0.7-0.3,0.9-0.7,0.5-1.4c0-0.1,0-0.2,0-0.3c0.8-0.4,0.7-1.2,0.9-1.9c0.2-0.1,0.2-0.3,0.2-0.6c0.3-0.1,0.3-0.4,0.2-0.6
		c0.1-0.2,0.1-0.5,0.2-0.7c0.8-0.6,0.7-1.5,1-2.3c0.3-0.8,1.6-1.3,2.2-0.7c0.5,0.4,1,0.6,1.5,0.9c0.6,0.3,1.3,0.4,2,0.7
		c1.3,0.7,2.6,1.2,3.9,1.7c1.6,0.6,3.1,1.5,4.8,2c0.4,0.1,0.7,0.4,1.1,0.7c1.1,0.7,2.4,1.1,3.6,1.4c1.3,0.3,2.4,0.9,3.3,1.8
		c0.3,0.3,0.5,0.3,0.9,0.3c0.8,0.2,1.7,0.2,2.4,0.6c1.4,0.8,2.9,1.2,4.5,1.4c0.2,0,0.4,0,0.5,0.1c0.8,0.3,0.9,0.8,0.3,1.3
		c-0.5,0.5-0.9,1-1.4,1.5c-1,1.2-1.9,2.4-3,3.5c-0.7,0.7-1.1,1.3-1.3,2.2c0.6,0.1,1,0,1.3-0.4c-0.3,0.4-0.7,0.5-1.3,0.4l0,0
		c-0.4,0.1-0.8,0.3-1.1,0.6l0,0c-0.7,0.6-1.5,1.1-1.5,2.2l0,0c-0.8,0.1-1,0.8-1,1.5c-0.4,0.1-0.6,0.4-0.7,0.8
		c-1.4,0.6-2.6,1.6-3.7,2.8c-0.9,0.2-1.7,0.6-2.1,1.4c-0.2,0.4-0.5,0.6-0.9,0.8c-0.4,0.1-0.6,0.4-0.8,0.7c-0.9,1.1-2.4,1.5-3.3,2.6
		c0,0.1-0.2,0-0.3,0.1c-1.7,0.5-3.2,1.4-4.7,2.1c-0.4,0.2-0.8,0.4-1.2,0.5c-1.7,0.4-2.9,1.4-3.5,3.2c-0.5,1.6-0.7,3.3-1.9,4.5
		c-0.1,0.1-0.2,0.3-0.2,0.5c-0.3,2-1.1,3.9-2,5.7c0,0.4,0,0.8-0.4,0.9c0,0.2,0,0.3,0,0.5c0.3,0.3,0.2,0.6,0,0.9
		c-0.6,0.8-0.7,1.8-1.3,2.6c-0.5,0.6-0.6,1.5-0.8,2.2c-0.1,0.4,0,0.7,0.5,0.6c0.3-0.1,0.6-0.1,1,0.1c0.2,0,0.4,0,0.6-0.1
		c0-0.2,0.1-0.3,0.3-0.1l0,0c0.8-0.6,1.8-0.5,2.7-0.8l0,0c0-0.2,0-0.4,0.3-0.5c2.7-0.4,5.3-1.3,7.8-2.2c1.2-0.4,2.4-0.9,3.7-1
		c0.1,0,0.1,0,0.2-0.1c0.1-0.7,0.3-1.2,1.2-0.9c0.6,0.2,1.3,0.1,1.6-0.6c0.1-0.3,0.4-0.5,0.7-0.6c1.3-0.4,2.5-1.3,3.7-1.8
		c0.6-0.3,1.1-0.2,1.2,0.6c0.6,0.2,0.7-0.3,0.8-0.7c0.7-0.1,0.9-0.8,1.5-1c1.4-0.7,2.8-1.3,3.8-2.6c0.1-0.1,0.1-0.1,0.2-0.2
		c1.5-0.7,2.7-1.6,3.8-2.7c0.6-0.6,1.2-0.7,2-0.5c0.9,0.2,0.9,0.1,1-0.8c0.1-0.8,0.3-1.4,1.1-1.7c0.5-0.2,1.3-0.5,1.4-1.1
		c0.1-1.1,0.9-1.4,1.7-1.6c0.5-0.2,0.7-0.4,0.7-0.9c0.1-0.5,0.4-0.9,0.8-1.2c0.6-0.5,1.3-0.9,1.5-1.8c0.1-0.9,0.8-1.4,1.6-1.6
		c0.5-0.1,0.9-0.4,1-0.8c0.2-0.7,0.9-1.2,1.2-1.8c0.4-0.8,1-1.4,1.2-2.3c0.3-0.9,0.9-1.7,1.6-2.3c0.8-0.7,1.6-1.3,1.5-2.5
		c0-0.2,0.1-0.4,0.2-0.5c1-1,0.6-2.9,2.3-3.4c0.2,0,0.3-0.5,0.3-0.7c0.1-0.5,0.1-1,0.1-1.5c1,0.3,0.8-0.6,1-1.1
		c1-1.4,0.7-3.3,1.8-4.7C195.8,149.4,195.8,149.3,195.8,149.3z M184.6,105.5C184.6,105.5,184.6,105.5,184.6,105.5
		C184.6,105.5,184.6,105.5,184.6,105.5z M184.7,105.5c0,0,0.1,0,0.1,0C184.7,105.5,184.7,105.5,184.7,105.5z M185.2,105.3
		C185.2,105.3,185.2,105.3,185.2,105.3c0.5-0.2,0.8,0.1,1.3,0.3C186,105.3,185.6,105.1,185.2,105.3z M194,99.8
		C194,99.8,194,99.8,194,99.8c0.1-0.2,0.1-0.4,0.2-0.6C194.1,99.4,194.1,99.6,194,99.8z M180.9,90.2c0.1,0,0.1,0.1,0.2,0.2
		c0,0,0,0,0,0C181,90.3,181,90.3,180.9,90.2z M184.9,125.7c-0.1-0.1-0.3-0.2-0.5-0.2C184.6,125.4,184.8,125.5,184.9,125.7z
		 M178.3,162.3c0-0.3,0-0.5-0.1-0.6C178.3,161.9,178.3,162.1,178.3,162.3L178.3,162.3z M181.6,147.9c0.1,0.5-0.8,1.6-1.3,1.6
		c-0.5,0-0.8-0.6-0.9-1.5c0-0.5,0.3-0.8,1.1-0.8C181,147.2,181.5,147.2,181.6,147.9z M175.6,150c0-0.1,0-0.1,0-0.1
		C175.6,149.9,175.6,150,175.6,150z M175.7,150.5C175.7,150.5,175.7,150.5,175.7,150.5c0.1-0.1,0-0.3,0-0.4
		C175.7,150.3,175.8,150.5,175.7,150.5z M172.1,178c0-0.1-0.1-0.1-0.1-0.2C172,177.9,172,178,172.1,178z M171.9,177.4
		c0,0.1,0,0.2,0,0.3C171.9,177.6,171.9,177.5,171.9,177.4L171.9,177.4z M175.7,150.5L175.7,150.5c-0.7-0.1-1-0.2-1.3-0.1
		C174.6,150.4,175,150.4,175.7,150.5z M174.2,150.6c0-0.1,0.1-0.1,0.1-0.1C174.3,150.5,174.2,150.5,174.2,150.6z M164.3,183.4
		c0.1,0.1,0.1,0.1,0.1,0.2c0,0,0,0,0,0C164.4,183.5,164.3,183.4,164.3,183.4z M191.1,152.2L191.1,152.2c-0.1,0.3-0.1,0.6-0.2,0.9
		C190.9,152.8,191,152.5,191.1,152.2z M186.8,145.8L186.8,145.8C186.8,145.8,186.8,145.8,186.8,145.8
		C186.8,145.8,186.8,145.8,186.8,145.8z M151.8,87.6c0.3-0.1,0.4-0.2,0.2-0.5c-0.2-0.3-0.4-0.6-0.7-0.9c-0.5-0.7-0.4-1,0.2-1.5
		c0.7-0.5,1-0.6,2.6-0.8c-0.4,0.8-0.7,1.5-0.6,2.4c-0.5-0.1-0.7-0.6-1.3-0.5c-0.2,0.6,0.6,0.9,0.6,1.4c0,0.8,0.5,0.9,1.1,0.8
		c0.2,0,0.4,0,0.4,0.3c0,0.2-0.1,0.4-0.3,0.4c-0.7,0.1-0.9,0.4-1.1,1c-0.1,0.5-0.8,0.5-1.1,0.1c-0.3-0.4-0.4-0.8-0.8-1.1
		C150.8,88.2,151,87.8,151.8,87.6z M167.7,137.5c0,0.1,0,0.2,0,0.3C167.7,137.7,167.7,137.6,167.7,137.5L167.7,137.5z M167.7,138
		c0,0.1,0,0.1-0.1,0.2C167.6,138.1,167.7,138,167.7,138z M150.7,131.8c-0.3-0.1-0.3-0.3-0.4-0.5c-0.1-0.2-0.4-0.3-0.2-0.6
		c0.1-0.2,0.3-0.2,0.5-0.1c0.3,0,0.5,0.3,0.5,0.6C151,131.4,150.9,131.7,150.7,131.8z M156.7,133.4c0,0.1,0,0.1,0.1,0.2
		C156.7,133.5,156.7,133.5,156.7,133.4C156.7,133.4,156.7,133.4,156.7,133.4z M160.4,136.5c0,0.1,0,0.2,0,0.3l0,0
		C160.5,136.7,160.4,136.6,160.4,136.5c0-0.1-0.1-0.2-0.1-0.3C160.3,136.3,160.4,136.4,160.4,136.5z M150.2,94.6c0,0,0.1,0,0.1,0.1
		C150.3,94.6,150.3,94.6,150.2,94.6z M150.6,95.1c0-0.1,0-0.2-0.1-0.3C150.6,94.9,150.6,95,150.6,95.1c0,0.1-0.1,0.3-0.3,0.2
		C150.5,95.4,150.6,95.3,150.6,95.1z M152.8,102.3C152.8,102.3,152.8,102.3,152.8,102.3c0,0.2-0.1,0.3-0.2,0.4
		C152.7,102.6,152.8,102.5,152.8,102.3z M150.2,103.4C150.2,103.4,150.2,103.4,150.2,103.4c-0.1,0-0.3,0-0.3,0.2
		C149.9,103.5,150,103.4,150.2,103.4z M147.1,95.9c-0.1-0.1-0.2-0.2-0.3-0.3C146.9,95.7,147,95.8,147.1,95.9z M130,146
		c0.6-0.2,1.1-0.6,1.3-1C131.1,145.4,130.7,145.7,130,146L130,146z M162.9,62.3c-0.1-0.1-0.2-0.1-0.3-0.1
		C162.7,62.2,162.8,62.2,162.9,62.3z M162,62.1c-0.3,0-0.7,0.1-1,0.2v0C161.3,62.2,161.7,62.1,162,62.1z M136.5,151.7
		c-1.1,0.5-1.9,1.5-3.2,1.8c-0.3,0.1-0.7,0.3-0.3,0.7c0.2,0.2,0.4,0.5,0,0.7c-0.3,0.1-0.7,0.1-0.9-0.1c-0.2-0.2-0.3-0.4-0.3-0.6
		c-0.2-0.7-0.7-0.8-1.2-0.6c-0.7,0.3,0.1,0.7,0.1,1.2c-1.7,0.3-1.8,1-0.6,2.6c-0.6,0.1-1,0.1-1.2-0.5c-0.2-0.6-0.4-1.3-0.7-1.8
		c0-0.1-0.1-0.2-0.1-0.3c0.7-1.3,0.6-2.8,1.5-4c0.4-0.5,0.9-0.4,1.4,0c0.6,0.5,1,0.4,1.4-0.2c0.2-0.3,0.2-0.8,0.7-0.8
		c0.5,0.1,1.3,0.1,1.5,0.5c0.3,0.6,0.8,0.5,1.3,0.7c0.3,0.1,0.6,0.2,0.9,0.4C136.7,151.3,136.8,151.6,136.5,151.7z M173.4,148
		c0-0.4,0.4-0.8,0.8-0.8c0.6-0.1,0.4,0.5,0.5,0.7c0,0.4,0,0.9-0.5,0.9C173.7,148.8,173.4,148.4,173.4,148z M153.7,185.1
		C153.7,185,153.8,185,153.7,185.1c0-0.1,0-0.2-0.1-0.2C153.7,184.9,153.7,184.9,153.7,185.1C153.8,185,153.7,185,153.7,185.1z
		 M158.5,188.4c-0.3,0-0.4-0.1-0.4-0.4c0-0.2,0.2-0.3,0.4-0.3c0.3,0,0.5,0.2,0.6,0.5C159,188.4,158.7,188.4,158.5,188.4z
		 M192.3,154.4c-0.1,0-0.3,0-0.4,0c0,0,0,0,0,0C192,154.4,192.2,154.4,192.3,154.4c0.1,0,0.2,0.1,0.3,0.2
		C192.5,154.5,192.4,154.4,192.3,154.4z"/>
	<path fill="#d0d6d9" d="M4.2,109.8c-0.1,0.3,0,0.7,0,1.1c0,0.2,0.1,0.3,0.3,0.4c1.6,0.5,3.2,1.1,4.9,1.3c0.7,0.1,1.4,0.1,2,0.5
		c0.9,0.5,1.8,0.8,2.8,0.8c0.8,0.1,1.4,0.7,2.2,0.6c1.3-0.1,2.5,0.3,3.7,0.9c0.3,0.1,0.6,0.3,0.9,0.2c0.7-0.1,1.3,0.1,1.9,0.2
		c1.1,0.2,2,0.7,3.1,0.7c0.4,0,0.8,0,1.2,0.1c1,0.2,2,0.7,2.9,0.8c1.8,0.1,3.5,1,5.3,1.1c1.3,0.1,1.6,0.1,2.1-1.1
		c0.5-1.1,0.4-2.3,1-3.3c0.8-1.5-0.1-2.9-1.7-3.2c-1.3-0.2-2.6-0.5-3.8-0.7c-0.9-0.1-1.9-0.2-2.9-0.5c-1-0.3-2.1-0.5-3.2-0.8
		c-1.2-0.3-2.5-0.2-3.5-0.7c-1.9-1-4-0.6-6-1c-0.1-0.2-0.4-0.4-0.1-0.6c0.4-0.3,0.8-0.7,1.4-0.8c1.2-0.2,2.4,0,3.5-0.7l0,0
		c1.1,0.1,2.1-0.4,3.1-0.8c0.1,0,0.2,0,0.3,0c0.1,0.2,0.2,0.2,0.2,0l0,0c0.3,0.1,0.7,0.1,0.9-0.3c0.3,0,0.6,0,0.8,0
		c0.6,0.5,0.8-0.5,1.4-0.3c0.6,0.2,0.9-0.3,1.2-0.7c0.3-0.1,0.7-0.1,1-0.2c0.2,0.1,0.2,0,0.3-0.1c0.1,0,0.2,0,0.3,0
		c1.1,0.2,2-0.2,2.8-0.8c0.5,0.1,1,0,1.4-0.3c0.9,0.3,1.8,0.1,2.5-0.5c0.3,0,0.6-0.2,0.8-0.3c0.3,0,0.6,0.1,0.8-0.2
		c0.1,0,0.2-0.1,0.3-0.1c0.1,0.1,0.2,0,0.3-0.1c0.6-0.2,0.9-0.7,1.1-1.3c0.5-2.2,1.1-4.3,1.6-6.5c0.2-1,0-1.4-0.9-1.9
		c-0.8-0.5-1.8-0.6-2.7-0.8c-2.8-0.6-5.5-1.6-8.4-2c-0.6-0.1-1.3,0-1.8-0.2c-1.1-0.6-2.2-0.8-3.3-1c-3.2-0.6-6.2-1.7-9.5-2
		c-1.6-0.2-3.1-0.8-4.7-1.2c-1.1-0.2-2.1,0.2-2.2,1.2c-0.2,1.5-0.8,2.9-1.1,4.3c-0.3,1.4-0.3,1.3,1,1.8c1.5,0.6,3.1,0.3,4.7,1
		c2.5,1,5.2,1.4,7.8,2.1c0.6,0.2,1.2,0.4,1.9,0.1c0.3-0.1,0.7,0,1.1,0.1c1.1,0.1,2.2,0.6,3.3,0.6c0.4,0,0.8,0.2,1.2,0.4
		c0.2,0.1,0.3,0.2,0.2,0.4c0,0.1-0.2,0.3-0.3,0.3c-0.9,0-1.7,0.6-2.6,0.7c-1.2,0.1-2.5,0.3-3.7,0.7c-0.7,0.2-1.3,0.4-2,0.3
		c-0.8-0.1-1.6,0-2.1,0.7c-0.2,0.3-0.7,0.2-1,0.3c-0.6,0.2-1.3-0.2-1.7,0.2c-0.8,0.6-1.6,0.7-2.5,0.6c-0.3,0-0.7,0-1,0.1
		c-1,0.4-1.9,1-3,0.8c-0.1,0-0.3,0.1-0.5,0.2c-0.8,0.4-1.6,0.7-2.5,0.7c-0.7,0-1.1,0.4-1.2,1.1c-0.1,0.9-0.4,1.8-0.7,2.7
		c-0.2,0.6-0.4,0.8-1,1c-1,0.2-1,0.4-0.6,1.4C4.2,108.3,4.6,108.9,4.2,109.8z"/>
	<path fill="#d0d6d9" d="M245.1,105.5c-0.4-0.6-0.4-1.3-0.4-2c-0.1-1.4-0.6-1.8-2-1.9c-1.1,0-1.9,0.6-2.9,0.8
		c-1.7,0.3-3.4,0.7-5.1,1.1c-0.7,0.2-1.4,0.5-2.1,0.7c-0.9,0.3-1.4,0-1.6-0.9c-0.2-1-0.4-1.9-0.5-2.9c-0.1-0.7-0.2-1.5-0.6-2.1
		c-0.4-0.7-1.1-0.9-1.8-0.5c-0.7,0.5-0.3,0.9,0.1,1.4c0.2,0.2,0.4,0.4,0.2,0.7c-0.2,0.3-0.5,0.4-0.9,0.3c-1-0.1-1.7-1.1-1.5-2.3
		c0.1-0.4,0.2-0.7,0.1-1.1c-0.3-0.9-0.2-1,0.6-1.2c1-0.2,1-0.3,1-1.2c0-0.3-0.1-0.5-0.2-0.8c-0.2-1.3,0.2-1.6,1.4-1.2
		c0.3,0.1,0.6,0.2,0.9,0.2c0.2,0,0.4,0.1,0.6,0.3c0.6,0.8,1.1,1,2,0.7c0.6-0.2,1.1-0.4,1.7-0.5c1.4-0.1,2.8-0.5,4.2-1
		c0.6-0.2,1.2-0.5,1.9-0.5c0.9-0.1,1.4-0.9,1.1-1.8c-0.5-1.4-0.5-2.9-1.1-4.3c-0.6-1.4-0.9-1.8-2.2-1.3c-2,0.7-4,0.7-6,1.3
		c-1.5,0.4-3.1,0.5-4.6,0.9c-3,0.7-5.9,1.8-8.9,2c-0.4,0-0.6,0.3-0.7,0.7c-0.2,0-0.4,0-0.6,0.1c-0.2-0.4-0.6-0.3-0.9-0.2
		c-1,0.4-2.1,0.3-3.1,0.6c-0.6,0.2-1.2-0.2-1.7,0.3c-0.2,0.1-0.3,0.1-0.5,0.2c-1.3,0-2.3,0.7-3.6,0.9c-0.4,0.1-0.8,0.4-0.5,0.9
		c-0.1,0.2-0.2,0.5-0.1,0.7c-0.1,0.8,0,1.5,0.6,2.1c0,0.3,0,0.5,0.2,0.8c-0.2,0.9,0.3,1.7,0.3,2.6c0,1.1,1,1.5,2,1.1
		c0.3-0.1,0.6-0.2,0.9-0.3c3.5-0.7,6.9-1.8,10.2-2.9c0.6-0.2,0.8-0.5,0.6-1.1c-0.2-0.5-0.1-1.1,0.4-1.6c0.3,0.1,0.6,0.6,1.1,0.4
		c0.4-0.2,0.6,0,0.8,0.3c0.3,0.5,0.8,0.3,1.3,0.4c0,0.4,0,0.7-0.2,1.1c-0.3,0.8-0.6,0.9-1.3,0.4c-0.4-0.3-0.9-0.5-1.5-0.3
		c0.3,2.1,0.7,4.2,1.4,6.2c0.4,1.1,0.6,2.2,0.8,3.4c0.1,0.6-0.1,0.8-0.7,0.8c-0.5,0-1-0.1-1.4,0.1c-1.9,1.2-4.2,0.8-6.3,1.3
		c-1.1,0.2-2.2,0.2-3.2,0.6v0c-0.1,0-0.3,0-0.4-0.1c-1.8,0.2-2.1,0.8-1.4,2.6c0,0.1,0,0.2,0,0.3c0,0.2,0.1,0.3,0.2,0.2
		c0.1,0.1,0.1,0.2,0.2,0.3c0,1.1,0.1,2.3,0.5,3.4c0,0.1,0.2,0.1,0.2,0.1c0,0.3,0,0.5,0.2,0.7c0.2,1.1,0.4,1.3,1.3,1.1
		c0.5-0.1,0.9-0.2,1.4-0.2c0.7,0,1.5,0.2,2-0.6c0.2-0.3,0.6-0.3,0.9-0.1c1.2,0.5,2.2,0,3.1-0.6c0.8-0.5,1.6-0.7,2.5-0.4
		c0.4,0.1,0.7-0.1,1.1-0.1c0.8-0.2,1.4-0.9,2.3-1c1.5-0.2,2.9-0.8,4.4-0.8c0.7,0,1.5-0.2,2.2-0.4c2-0.6,3.9-1.4,6-1.5
		c1.5-0.1,2.9-0.9,4.4-1.2c1.3-0.3,1.2-0.3,1.5-1.6C245.7,106.9,245.6,106.2,245.1,105.5z M219.2,95.2c0.2-0.2,0.2-0.5,0.2-0.8
		c0-0.2,0-0.6-0.1-0.7c0.2,0.1,0.1,0.4,0.1,0.7C219.4,94.7,219.4,95,219.2,95.2z"/>
	<path fill="#d0d6d9" d="M19.6,68c0.8,0.3,1.5,0.8,2,1.5c0.6,0.8,1.4,1.3,2.3,1.5c0.7,0.2,1.3,0.6,2,1c0.9,0.6,1.6,1.5,2.5,1.9
		c1.9,0.9,3.5,2.2,5.4,3.1c2.1,1,4,2.5,6,3.8c1.3,0.8,2.5,1.6,3.8,2.3c0.5,0.3,1,0.5,1.4,1c0.7,0.9,2.5,1.1,2.9,0.3
		c0.5-0.8,1.2-1.5,1.6-2.3c1-2.1,2.6-3.9,3.4-6c0-0.1,0.2-0.2,0.3-0.3c0.5-0.2,0.6-0.7,0.8-1.1c0.7-1.3,1.2-2.6,2.4-3.5
		c0.5-0.4,1.1-1.1,1-2c0.1-0.8-0.3-1.5-1-1.8c-1-0.4-1.9-1.1-2.9-1.4c-1.3-0.5-2.1-0.4-2.7,0.8c-0.5,0.9-1.1,1.7-1.6,2.6
		c-0.8,1.4-1.6,2.7-2.4,4.1C46,75,45.5,75,44.2,74.1c-0.2-0.1-0.3-0.2-0.5-0.3c-1.1-0.4-2-1.3-3.1-1.9c-0.6-0.4-0.8-0.9-0.6-1.5
		c0.1-0.4,0.2-0.8,0.5-1.1c1.6-1.6,2.5-3.8,3.9-5.6c0.3-0.3,0.4-0.7,0.6-1.1c0.2-0.5,0.2-1.1-0.3-1.3c-1.1-0.6-1.9-1.6-3.1-2.1
		c-2-0.8-1.9-0.9-3.1,1c-1.3,1.9-2.4,3.9-3.6,5.9c-0.9,1.5-0.9,1.6-2.6,0.8c-0.2-0.1-0.4-0.2-0.6-0.4c-0.5-0.6-1.2-0.9-1.9-1.1
		c-1.4-0.5-1.6-1.4-0.8-2.6c0.1-0.2,0.3-0.3,0.5-0.5c1.9-2.3,3.3-4.8,4.8-7.3c0.4-0.6,0.3-1.3-0.3-1.6c-1.3-0.6-2.2-1.7-3.5-2.2
		c-1-0.4-1.5-0.3-2.1,0.6c-1.4,2.1-2.7,4.4-4.3,6.3c-0.2,0.2-0.4,0.5-0.3,0.9c0.1,0.4-0.2,0.7-0.4,1c-0.3,0.4-0.6,0.8-0.8,1.3
		c-0.2,0.5-0.5,0.9-0.9,1.2c-1.3,1.1-1.9,2.7-2.6,4.2C18.7,67.4,18.8,67.8,19.6,68z"/>
	<path fill="#d0d6d9" d="M54,174.8c-0.6-1.1-1.2-1.2-2-0.7c-1.4,0.9-2.9,1.7-4.2,2.7c-1.6,1.3-3.4,2.2-4.9,3.7
		c-0.6,0.6-0.9,0.5-1.4-0.2c-0.9-1.2-1.4-2.6-2.2-3.8c-0.9-1.4-1.6-2.8-2.7-4.1c-0.5-0.5-0.8-0.6-1.3-0.4c-1.1,0.4-2.1,1-3,1.6
		c-0.5,0.4-1,0.8-1.3,1.4c-0.2,0.3-0.2,0.5,0,0.8c0.9,1.2,1.5,2.6,2.6,3.8c0.4,0.5,0.7,1,0.9,1.6c0.3,1.1,1.2,1.9,1.7,2.9
		c0.4,0.7,0.4,0.9-0.4,1.2c-1.2,0.5-2.3,1.2-3.3,2.1c-0.6,0.5-1.4,0.7-2.2,0.8c-0.4,0.1-0.7-0.1-0.9-0.4c-0.7-1.1-1.5-2.1-2-3.3
		c-0.6-1.6-1.6-2.9-2.5-4.3c-0.7-1.2-1.5-1.4-2.7-0.6c-0.9,0.7-1.9,1.3-2.9,1.9c-0.4,0.2-0.7,0.7-0.7,1.3c-0.1,0.4,0.2,0.7,0.5,1.1
		c0.7,0.9,1.5,1.7,1.6,2.9c0,0.3,0.3,0.5,0.5,0.6c1,0.6,1.5,1.6,2,2.6c0.4,0.9,0.6,1.9,1.4,2.6c0.9,0.8,1.5,1.7,1.6,2.9
		c0,0.2-0.1,0.5,0.3,0.7c1,0.3,1.6,1.1,2.1,2c0.4,0.7,1,0.9,1.6,0.3c0.6-0.5,1.3-0.9,1.8-1.5c0.7-0.9,1.8-1.1,2.6-1.6
		c0.6-0.3,1.1-1.2,2-0.9c0,0,0.2-0.2,0.2-0.3c0-0.5,0.4-0.7,0.8-0.9c0.7-0.5,1.4-1,2.2-1.5c0.9-0.6,1.8-1.4,2.8-1.8
		c0.6-0.2,1.1-0.5,1.5-0.9c0.4-0.4,0.8-0.8,1.3-1c1.3-0.7,2.4-1.5,3.6-2.3c0.8-0.5,1.8-0.9,2.5-1.5c1.3-1.2,2.5-2.2,4.2-2.9
		c1.1-0.4,1.3-1.9,0.6-2.9C55.5,177.2,54.7,176,54,174.8z M36.6,192.4c-0.7,0.2-1.4,0.5-2.1,0.5c-0.7-1.3,0.7-1.6,1-2.4
		c0.1-0.2,0.4-0.1,0.5,0c0.3,0.8,1.5-0.1,1.6,0.7C37.7,191.9,37.1,192.3,36.6,192.4z"/>
	<path fill="#d0d6d9" d="M13,147.4c-0.1-0.8-0.1-1.6-0.4-2.3c-0.2-0.6,0.6-0.9,0.2-1.4c-0.4-0.6-0.4-1.2,0.1-1.7
		c0.3-0.4,1-0.3,1.4-0.8c0.3-0.3,0.8,0.3,1.3,0.5c0.2-0.5,0.5-0.9,1.1-1c1.4-0.2,2.7-0.7,4.2-0.7c1.3,0,2.6,0.1,3.8-0.4
		c0.2-0.1,0.4-0.1,0.6,0c2.3,0.2,4.5-0.9,6.8-0.6c0.3,0,0.6-0.2,0.9-0.2c0.4-0.1,0.8-0.3,1.2-0.2c1.5,0.3,2.8-0.4,4.2-0.6
		c0.6-0.1,0.7-0.5,0.7-1c-0.2-1.7-0.4-3.3-0.6-5c0-0.4-0.2-0.8-0.4-1.2c-0.2-0.6-0.6-0.9-1.3-0.5c-0.6,0.3-1.1,0.5-1.7,0.3
		c-1.4-0.4-2.7,0.3-4.1,0.2c-0.2,0-0.5,0.1-0.7,0.2c-0.6,0.3-1.3,0.3-1.9,0.3c-0.3,0-0.6,0-1,0.1c-0.9,0.4-1.8,0.4-2.7,0.2
		c-0.4-0.1-0.8-0.3-1.2,0.1c-0.4,0.4-0.8,0.2-1.3,0c-0.3-0.1-0.6-0.5-1-0.1c-0.5,0.6-1.3,0.6-1.9,0.7c-2.1,0.3-4.2,0.5-6.3,1
		c-1.4,0.3-1.7,0.1-1.8-1.3c-0.1-0.4,0-0.8-0.1-1.3c-0.2-1.4-0.3-2.8-0.5-4.1c-0.1-0.8-1.1-1.6-1.8-1.4c-1.1,0.3-2.2,0.1-3.3,0.2
		c-1.1,0.1-1.7,0.7-1.7,1.8c0,0.5,0,0.8-0.4,1.1c-0.6,0.4-0.6,0.9-0.1,1.3c0.7,0.6,0.9,1.4,1,2.3c0.2,1.2,0.3,2.4-1.1,3
		c-0.2,0.1-0.2,0.3-0.1,0.5c0.1,0.1,0.2,0.1,0.4,0.1c0.1,0,0.3-0.1,0.4-0.2c0.5-0.3,0.7-0.1,0.8,0.3c0.1,1,0.4,1.9,0.5,2.9
		c0.1,1-0.1,2.1,0.1,3c0.1,0.6,0.4,1.2-0.1,1.8c-0.2,0.3,0,0.4,0.2,0.5c0.3,0.1,0.3,0.4,0.4,0.7c0.1,0.6,0.1,1.1,0.2,1.7
		c0.2,1,0.1,2.1,0.4,3.2c0.2,0.7,0.5,1,1.3,0.8c1.3-0.2,2.7-0.3,4-0.5C13,149.1,13.1,148.9,13,147.4z"/>
	<path fill="#d0d6d9" d="M18.9,169.3c-0.1-1.3,0.6-2.4,1.6-2.8c1.1-0.5,2.3-1.2,3.5-1.3c1.3-0.2,2.3-0.7,3.5-1.1
		c0.4-0.2,0.8-0.4,1.3-0.5c1.6-0.3,3.1-1,4.6-1.6c1.5-0.7,3.2-1,4.6-1.8c0.1-0.1,0.3-0.1,0.4,0c0.4,0.7,1.5,0.6,1.8,1.6
		c0.2,0.8,0.8,1,1.6,1.1c1.2,0.1,2.1-0.5,3.2-0.9c0.9-0.3,1-0.9,0.9-1.9c-0.1-1.2-0.9-2.1-1.2-3.3c-0.3-1.1-0.6-2.3-1.2-3.2
		c-0.6-1-0.4-2.3-1.3-3.2c-0.1-0.1-0.1-0.3,0-0.4c0.5-1.1-0.4-1.6-0.8-2.3c-0.6-1-1.4-1-2.4-0.6c-0.3,0.1-0.6,0.1-1,0.2
		c-1.1,0.2-1.6,1-1.8,2c-0.1,0.6,0,1.1,0.1,1.7c0.2,1.2-0.5,2.3-1.6,2.4c-1.7,0-2.9,1.6-4.6,1.2c-0.1,0-0.2,0.1-0.4,0.2
		c-0.8,0.6-1.7,0.9-2.6,1.1c-1.7,0.5-3.4,1-5,1.7c-1.6,0.7-3.1,1.5-4.9,1.7c-1.2,0.2-1.5,0.1-2.1-0.9c-0.8-1.4-1.9-1.8-3.5-1.3
		c-0.4,0.1-0.7,0.2-1,0.4c-0.4,0.2-1,0-1.1,0.7c-0.1,0.5-0.4,1-0.2,1.5c0.4,1.2,0.8,2.4,1.4,3.5c0.8,1.4,1.2,3,1.6,4.6
		c0.3,1.1,0.9,2.1,0.9,3.4c0,1.1,0.8,1.6,2,1.6c1.9,0,3.3-1,3.8-2.7C18.9,169.8,18.9,169.6,18.9,169.3z"/>
	<path fill="#d0d6d9" d="M46.1,50.4c2.9,1.9,6.2,1.4,9.3,0.7c2.4-0.5,4.7-1.5,7.3-0.9c0.4,0.3,0.7,0.7,1.2,0.9
		c0.7,0.7,0.6,1.5,0.3,2.5c-0.5,1.3-1.5,2.1-2.5,2.7c-1.8,1.1-3.5,2.2-5.8,2.5c-1.8,0.2-2,1.4-0.9,2.7c0,0,0.1,0.1,0.1,0.1
		c1.1,0.9,2,1.9,2.9,3c0.4,0.5,0.9,0.7,1.7,0.4c1.3-0.4,2.6-0.9,3.8-1.6c1.3-0.7,2.1-1.9,3.4-2.6c0.1-0.1,0.2-0.2,0.2-0.4
		c0.1-0.4,0.4-0.6,0.7-0.8c2.1-1.7,3.6-3.8,3.6-6.6c0-0.4,0-0.8,0.1-1.1c0.2-1.2-0.1-2.5-0.6-3.5c-1.5-3.1-3.3-5-6.9-5.8
		c-0.7-0.2-1.4-0.1-2.1-0.2c-1.1-0.2-2.3,0-3.3,0.3c-2,0.6-4.1,1.1-6.1,1.8c-1.2-0.1-2.4-0.4-3.4-1.1c-0.3-0.2-0.4-0.5-0.6-0.8
		c-0.7-1.6-0.4-2.8,0.9-3.8c0.3-0.2,0.5-0.4,0.8-0.5c1.1-0.3,2-1.1,2.9-1.7c0.7-0.2,1.4,0,2-0.5c0.6-0.6,0.8-1.5,0.3-2.3
		c-0.2-0.4-0.3-0.7-0.3-1.1c0-0.4-0.1-0.7-0.3-1c0-0.3,0.2-0.6-0.3-0.8c-0.2-0.2-0.3-0.5-0.5-0.7c-0.1-0.3-0.3-0.3-0.6-0.2
		c-0.3,0-0.5,0-0.8,0c-0.1-0.1-0.3,0-0.4,0.1c-1.9,0.8-3.8,1.5-5.4,2.7c-2,1.6-3.9,3.2-4.9,5.6c-0.7,1.7-1.1,3.4-0.8,5.2
		C41.6,46.4,43.5,48.8,46.1,50.4z M66.5,45.8c0.1,0,0.1,0.1,0.2,0.1C66.6,45.9,66.6,45.9,66.5,45.8C66.5,45.8,66.5,45.8,66.5,45.8z"
		/>
	<path fill="#d0d6d9" d="M153.5,38.3L153.5,38.3c-0.9,0.4-1.2,1-0.7,1.7c0.3,0.4,0.6,0.7,1.1,0.8c0.7,0.1,1.2,0.5,1.7,0.9
		c0.6,0.5,1.4,0.8,2.1,1c0.9,0.3,1.4,0.1,1.9-0.7c0.3-0.4,0.4-0.9,0.9-1c0.7-0.3,1-0.8,1.3-1.4c0.9-1.7,2.6-2.2,4.2-1.3
		c1.2,0.6,2.4,1.2,3.6,2c1.1,0.8,2.6,1.1,3.9,1.7c0,0.4-0.3,0.7-0.2,1.2c-0.4,0.2-0.4,0.5-0.4,0.8c-0.1,0.1-0.1,0.1-0.1,0.2
		c-0.2,0.1-0.4,0.2-0.4,0.4c0.1,1.4-0.5,2.6-0.7,4c-0.2,1.6-0.2,1.7,1.3,2.4c0.7,0.3,1.6,0.2,2.2,0.9c0.5,0.7,1.4,0.7,2.1,1.1
		c0.4,0.3,1.1-0.1,1.3-0.7c0.2-0.4,0.3-0.9,0.3-1.4c0-0.7,0-1.3,0.2-1.9c0.2-0.6,0.2-1.2,0-1.8c-0.2-0.7,0-1.2,0.3-1.8
		c0.6-1.1,1-2.2,0.8-3.4c-0.1-0.5,0.1-1.1,0.3-1.6c0.6-1.4,0.7-3,0.8-4.5c0.1-2.8,1.3-5.5,1-8.4c0-0.3,0.2-0.5,0.2-0.8
		c0-0.2,0-0.4-0.2-0.6c-0.7-0.7-0.7-0.9-0.2-1.7c0.6-0.9,0.6-0.9-0.3-1.5c-0.2-0.1-0.3-0.4-0.6-0.4c-0.9,0.8-1.8,1.5-1.2,2.9
		c0.1,0.2-0.1,0.6-0.6,0.7c-0.4-0.6-0.4-1.4-1.2-1.7c-0.4,0.4-1,0.4-1.2,1.1c-0.3,1.1-0.8,2.1-1,3.1c-0.2,1-0.7,1.9-0.7,2.9
		c-0.1,0.8-0.2,1.7-0.4,2.5c-0.2,0.6-0.2,1.2-0.1,1.8c-0.1,0-0.2,0.1-0.3,0.1c-0.3-0.2-0.5-0.4-0.8-0.5c-0.8-0.2-1.3-1.2-2.2-1.1
		c-1,0.1-1.6-0.7-2.4-1.1c-0.5-0.3-0.6-0.9-0.3-1.5c0.2-0.3,0.3-0.6,0.5-0.8c0.2-0.3,0.5-0.5,0.3-0.8c-0.2-0.4-0.6-0.4-1-0.3
		c-0.2,0-0.3,0.1-0.5,0.2c-0.3,0.1-0.6,0.1-0.7-0.2c-0.1-0.4-0.2-0.8,0.1-1.2c0.2-0.2,0.5-0.2,0.8-0.1c0.2,0.1,0.3,0.2,0.5,0.3
		c0.3,0.2,0.6,0.2,0.7-0.1c0.2-0.3,0-0.5-0.4-0.6c-1.1-0.5-1.2-0.8-0.4-1.7c0.4-0.4,0.7-0.9,1.3-1c0.8-0.1,1-0.5,0.9-1.2
		c-0.1-0.5,0.1-1,0.7-1c1,0,1.2-0.9,1.7-1.4c0.8-1.1,1.4-2.3,2.1-3.5c0.3-0.4,0.4-0.8,0.1-1.1c-0.3-0.3-0.7,0-1,0.3
		c-0.6,0.6-1.2,1.3-1.8,1.9c-1.8,1.7-3.5,3.3-5.2,5.1c-0.7,0.7-1.5,1.2-2,2c-0.8,0.6-1.3,1.4-1.9,2.1c-0.2-0.1-0.3,0-0.3,0.2
		c-0.9,0.9-1.8,1.6-2.6,2.5c-1.6,1.8-3.5,3.3-4.8,5.2C154.7,36.6,153.9,37.2,153.5,38.3z"/>
	<path fill="#d0d6d9" d="M132.6,37.1c0.6,0.1,1.1,0.3,1.8,0.4c1.4,0.1,2.8,0,4.2,0.6c1.7,0.7,3.4,0.7,5.2,0.6
		c0.2,0.1,0.5,0.1,0.7,0.2c0.4,0.8,1.3,0.3,1.9,0.6c1,0.4,2.1,0.5,3.3,0.3c0.7-0.1,1-0.4,1.1-1c0.2-1.2,0.3-2.4,0.6-3.6
		c0.1-0.5,0.1-1-0.4-1.4c-0.4-0.3-0.4-0.7-0.5-1.1c-0.7,0.6-1.7,0.1-2.4,0.4c-0.2,0-0.4,0-0.5,0c0-0.1-0.1-0.2-0.1-0.2
		c-1.4-0.3-2.9-0.6-4.3-0.8c-0.5-0.1-1-0.2-1.4,0.3c-0.2,0-0.4,0-0.5,0c-0.8-0.5-1.1-1.2-0.7-2.2c0.1-0.3,0.1-0.6,0.1-1
		c0.2-1.3,0.4-2.7,0.8-4c0.2-0.7,0.5-0.9,1.2-0.9c1.1,0,2.1,0.2,3.1,0.6c0.9,0.3,1.7,0.7,2.7,0.4c0.5-0.2,1,0,1.5,0.2
		c0.4,0.2,0.9,0.3,1.3,0.4c0.8,0.1,1-0.1,1.2-1.1c-0.1,0-0.1-0.1-0.2-0.1c-0.1-0.1-0.2-0.1-0.3-0.2c0.1,0.1,0.2,0.1,0.3,0.2
		c0.1,0,0.1,0.1,0.2,0.1c0.1-0.1,0.1-0.3,0.2-0.4v0c0.6-0.7,0.6-1,0.1-1.7c0.1-0.7,0.5-1.4,0.3-2.2c0.1-0.3,0.1-0.5-0.2-0.7
		c-0.1-0.1-0.2,0.1-0.2,0.2c-0.3-0.2-0.7-0.5-1.1-0.4c-0.6-0.6-1.3-0.4-2-0.2c-0.3-0.2-0.5-0.2-0.8-0.1c-0.1-0.1-0.2-0.3-0.3-0.3
		c-1.3-0.3-2.5-0.8-3.8-0.7c-0.6,0.1-1.3,0-1.6-0.6c-0.5-0.8-1.4-1-2.1-1.5c-0.2-0.2-0.7-0.2-0.7-0.7c0.2-0.2,0.5-0.3,0.8-0.4
		c0.9-0.4,1.1-0.7,1-1.6c0-0.5-0.2-0.8-0.7-0.5c-0.2,0.1-0.4,0.3-0.5-0.1c-0.2-0.8-0.5-1.5-1.2-1.9c-0.1-0.1-0.1-0.4,0-0.5
		c0.1-0.2,0.3-0.3,0.5-0.1c0.6,0.6,1.1,0.1,1.7,0c0.4,0,0.8-0.2,1.2-0.3c0.3,1.2,0.7,1.5,1.9,1.5c0.8,0,1.5-0.1,2.3-0.2
		c0.3-0.5-0.3-0.8-0.3-1.3c0.4-0.3,0.7-0.5,1.1-0.8c0.5,0.4,0.2,1.3,0.8,1.4c0.9,0.2,1.3,1.2,2.3,1c0.1,0,0.3,0.1,0.3,0.2
		c0.5,1.2,1.6,1.1,2.6,1.3c0.8,0.1,1.5-0.2,1.5-0.9c0.1-1.2,0.4-2.3,0.4-3.5c0-0.4-0.1-0.7-0.2-1.1c0-0.2-0.2-0.3-0.4-0.3
		c-0.3,0-0.5,0.1-0.5,0.4c0,0.1,0,0.3,0,0.4c0.2,0.5,0.3,1-0.5,1.1c-0.9,0.1-1-0.1-1.2-1.1c-0.1-0.9-0.4-1.2-1.3-1.4
		c-0.2,0-0.3-0.1-0.5-0.1c-0.6-0.3-5-0.7-5.6-0.5c-0.6,0.2-1,0.1-1.3-0.4c-0.2-0.5-0.6-0.7-1.2-0.5c-0.8,0.3-1.5,0-2.2-0.4
		c-0.6-0.3-1.2-0.5-1.8-0.6c-1.4-0.1-2.3,0.5-2.5,1.9c-0.3,1.9-0.5,3.8-0.7,5.7c0,0.3-0.2,0.6,0.1,0.9c0.2,0.1,0.3-0.1,0.5-0.2
		c0.7-0.3,1.6-0.2,1.8,0.2c0.2,0.5-0.4,1.3-1.1,1.5c0,0-0.1,0-0.1,0c-1.4-0.3-1.8,0.6-1.8,1.7c0,0.3-0.2,0.6-0.4,0.9
		c-0.1,0.3-0.2,0.5,0.1,0.8c0,0.2,0,0.4,0,0.5c-0.4,0.1-0.6,0.3-0.3,0.6c-0.1,0.1-0.1,0.2-0.2,0.3c0,0-0.1,0-0.1,0
		c-0.1,0.1-0.1,0.1,0,0.2c0,0.2,0,0.3,0,0.5c0,1.3-0.9,2.5-0.5,3.9c0.1,0.4-0.2,0.7-0.3,1c-0.2,1.2-0.9,2.4-0.4,3.6l-0.1,0.1
		c-0.6,0.5-0.5,1.2-0.3,1.8c-0.1,0.2-0.2,0.5-0.1,0.8c-1.2,0.5-0.6,1.5-0.5,2.3c0,0.2-0.1,0.4-0.1,0.5l0,0c-0.5,0.3-0.9,0.8-1,1.3
		C130.9,35.8,131.8,36.9,132.6,37.1z M147.1,20.9c0-0.1,0-0.1-0.1-0.2C147.1,20.7,147.1,20.8,147.1,20.9
		C147.1,20.9,147.1,20.9,147.1,20.9z M150.9,24.3c0.1,0,0.2,0,0.2,0C151,24.3,151,24.3,150.9,24.3z"/>
	<path fill="#d0d6d9" d="M181.8,54.1c-1.6,1.2-1.6,2.1,0,3.4c1.5,1.8,3.4,3.3,5,5c0.6,0.6,1.1,1.3,1.8,1.9c1.5,1.4,3.3,2.6,4.6,4.2
		c0.5,0.6,0.9,0.6,1.5,0.1c0.9-0.7,1.5-1.7,2.4-2.5c0.3-0.2,0.4-0.5,0.3-0.9l0,0c0.7-0.6,0.7-1.1,0.2-1.5c-0.3-0.2-0.6-0.4-1-0.5
		c-0.3-1-1.3-1.3-2-1.9c-0.2-0.7-0.8-0.9-1.3-1.2c0-0.2-0.2-0.4-0.4-0.5c-0.3-1-1.1-1.6-1.9-2.2c-0.6-0.4-0.8-0.9-0.5-1.6
		c0.1-0.2,0.2-0.4,0.2-0.7c0.1-0.9-0.1-1.3-1.1-1.6c-0.4-0.1-0.9-0.2-1.3-0.4c-0.7-0.3-0.7-0.6-0.1-0.9c0.5-0.3,0.8-0.8,1.4-0.9
		c0.2,0,0.4-0.2,0.3-0.4c-0.2-0.6,0.1-0.8,0.6-1.1c0.5-0.3,0.7-0.7,0.7-1.3c0.1-0.8,0.6-1.4,1.4-1.5c0.9-0.1,1.2-0.6,1.2-1.6
		c0.7,0.6,1.2,0.5,1.7,0c0.3-0.4,1-0.3,1.5,0c0.7,0.4,1.4,0.5,2.1,0.8c0.6,0.2,1,0.1,1.3-0.3c0.8-0.9,1.7-1.7,2.5-2.6
		c1.5-1.7,3-3.6,4.9-5c1-0.7,0.8-1.5-0.5-1.9c-0.4-0.3-0.4-1-1.1-0.8c-0.1-1-0.9-1.5-1.5-2.1c-1-1.1-0.9-1-2.2-0.1
		c-1.4,1-2.4,2.4-3.7,3.5c-1.1,0.9-2,2.1-3.2,3c-0.2,0.1-0.3,0.4-0.4,0.6c-0.4,0.9-1.1,1.5-1.9,2c-0.5,0.4-1.1,0.7-1.3,1.4
		c-0.1,0.1-0.2,0.2-0.3,0.3c-0.5,0-0.7,0.4-1,0.7c-1.7,1.8-3.5,3.5-5.2,5.3c-0.5,0.5-0.9,1.1-1.2,1.7c-0.7-0.1-0.9,0.6-1.4,0.9
		C182.3,53,182.1,53.6,181.8,54.1z"/>
	<path fill="#d0d6d9" d="M243.4,147.2c0.4-1.4-0.4-2.4-1.2-3.4c-0.3-0.3-0.5-0.6-0.7-1c-0.3-0.8-0.9-1.2-1.8-1.4c0,0,0,0,0,0
		c0,0,0,0,0,0c-0.3-0.9-0.7-1.7-1.7-2.1c-0.8-0.3-1.8-0.7-2.2-1.6c-0.4-0.8-1.1-0.9-1.8-1.1c-1-0.3-2.3,0-3.1-1
		c-0.1-0.2-0.5-0.1-0.8-0.1c-0.5,0-0.9,0-1.4-0.2c-1.3-0.5-2.5-0.8-3.9-0.4c-0.4,0.1-1,0.1-1.4,0c-1.6-0.6-3,0.3-4.5,0.5
		c-1.3,0.2-2.5,0.8-3.7,1.4c-0.9,0.5-1.7,1.2-2.5,1.6c-0.6,0.3-0.8,0.6-0.9,1.1c0,0.1-0.1,0.1-0.1,0.2c-1,0.7-1.7,1.5-1.9,2.7
		c-0.2,1.3-0.6,2.6-1.1,3.9c-0.5,1.1-0.6,2.1-0.6,3.2c-0.1,1.5-0.2,3,0,4.6c0,0.4,0.1,0.7,0.3,1.1c0.8,1.4,3.5,2.1,5,1.4
		c0.1-0.1,0.3-0.1,0.3-0.2c0.1-1,0.9-1.7,0.6-2.8c-0.2-0.7-0.6-1.4-0.2-2.1c0.3-0.5,0.4-1.1,0.3-1.8c0-1,0.2-1.8,0.7-2.7
		c0.3-0.5,0.6-1.1,0.3-1.7c-0.1-0.3,0-0.6,0.3-0.9c1.7-1.3,3.4-2.9,5.8-2.6c0.2,0,0.4-0.1,0.6-0.3c0.3-0.2,0.6-0.2,0.9-0.2
		c1.2,0,2.3,0.3,3.5,0.1c0.2,0,0.5,0,0.7,0.1c1.3,0.5,2.6,0.5,3.9,0.8l0,0c0.3,0.4,0.8,0.5,1.2,0.6c0.6,0.1,1.2,0.3,1.6,0.7
		c0.8,0.9,2,1.3,2.7,2.3c0.2,0.3,0.4,0.5,0.8,0.5c0.1,0.1,0.2,0.2,0.3,0.3c0.1,0.3,0,0.7,0.2,0.9c0.8,1.4,1.1,2.9,1,4.4
		c0,0.1,0.1,0.2,0.1,0.3c-0.2,0.4-0.2,0.9-0.2,1.3c-0.2,0.2-0.3,0.4-0.1,0.6c0,0.2-0.1,0.3-0.1,0.5c-0.8,1.6-1.6,3.2-2.9,4.5
		c-0.3,0.3-0.4,0.6-0.3,1c0.2,1.1,2.3,2.8,3.4,2.8c0.5,0,1-0.2,1.3-0.7c0.5-0.9,1-1.7,1.8-2.3c0.3-0.3,0.4-0.6,0.4-1
		c0-0.2,0-0.6,0.2-0.6c0.8-0.4,0.6-1.2,0.8-1.8c0.2-0.8,0.2-1.7,0.3-2.6c0.3-1.7,0.6-3.5,0.2-5.2
		C243.6,148.2,243.3,147.6,243.4,147.2z M236.7,141C236.7,141,236.7,141,236.7,141c0,0,0.1,0,0.1,0C236.8,141,236.7,141,236.7,141z
		 M234.2,142.4c0-0.3,0.3-0.3,0.5-0.3c0,0,0,0,0,0C234.5,142.1,234.2,142.2,234.2,142.4z"/>
	<path fill="#d0d6d9" d="M204.3,70.3c-0.6,0.7-1.4,1.1-2.3,1.5c-1.1,0.5-2.2,1.2-3.4,1.6c-1.2,0.4-1.5,1.5-0.7,2.7
		c0.1,0.2,0.2,0.4,0.3,0.6c0.5,1.3,1.1,2.6,2,3.7c1.2,1.5,1.5,1.4,2.4-0.4c-0.2-0.2-0.5-0.3-0.7-0.6c-0.2-0.3-0.6-0.2-0.9-0.4
		c-0.6-0.4-0.6-1,0-1.4c0.2-0.2,0.5-0.3,0.8-0.3c0.8,0.1,1.3-0.2,1.7-0.8c0.5,0.2,0.3,1,1,1c0.6-0.1,0.6-0.7,0.9-1.2
		c0.2-0.3,0.3-0.7,0-1c-0.1-0.2-0.3-0.4-0.1-0.6c0.5-0.4,0.5-1.1,0.8-1.5c0.7,0.1,0.4,1.2,1.4,0.9c0.9-0.3,1-0.2,1.1,0.9
		c0,0.1,0.1,0.3,0.1,0.3c1.9,0.3,3.5-0.4,4.7-1.6c0.7-0.7,1.5-1.2,2.4-1.6c0.5-0.2,0.9-0.4,1.4-0.7c1.6-0.8,2.9-1.9,4.5-2.8
		c0.8-0.5,1.8-1.2,1.7-2.5c-0.7-0.2-1.3-0.3-1.8,0.2c-0.2,0.2-0.7,0.2-0.7-0.1c-0.2-1.2-1.1-1.1-1.9-1.2c-0.7-0.1-1-0.6-0.5-1
		c0.8-0.6,0.5-1.3,0.4-2.1c-0.5,0-0.9,0-1.3,0.3c-1.3,0.7-2.5,1.5-3.8,2.2c-0.8,0.4-1.8,0.8-2.4,1.6c-0.2,0.1-0.3,0.2-0.5,0.3
		c-0.7,0.4-1.6,0.4-2,1.3c-0.1,0.1-0.2,0.2-0.3,0.3c-0.9,0.3-1.7,0.9-2.5,1.4C205.6,69.7,204.8,69.7,204.3,70.3z M210.9,74.1
		c0.2,0,0.3-0.2,0.3-0.4c0-0.3-0.1-0.5-0.4-0.6c0.3,0,0.4,0.3,0.4,0.6C211.2,73.9,211.1,74.1,210.9,74.1z"/>
	<path fill="#d0d6d9" d="M68.6,32.2c0.5,1.3,1.9,1.4,2.9,2c0.8,0.6,2.1,0.7,3.2,0.7c1.5,0.6,3.1,0.4,4.7,0.2c1.3-0.1,2.4,0,3.6,0.4
		c1.5,0.5,2,1.5,2.3,2.8c0.2,0.8,0.1,1.5-0.7,1.9c-0.3,0.1-0.4,0.4-0.4,0.7l0,0c-0.2,0-0.3,0.1-0.3,0.2c-0.8,0.1-1.5,0.5-2.2,0.8
		c-1.2,0.4-2.2,1-3.6,0.7c-1.1-0.2-2.4,0.1-3.6,0.3c-0.6,0.1-1,0.6-0.7,1.1c0.6,1.1,0.8,2.4,1.8,3.2c0.1,0.2,0.1,0.4,0.2,0.5
		c0.6,1.9,0.9,2.1,2.8,1.7c0.4-0.1,0.8-0.2,1.2-0.3c0.2,0.1,0.2,0,0.3-0.1l0,0c0.8,0,1.5-0.5,2.3-0.5c1.8-0.2,3.3-1.1,4.7-2.1
		c0.8-0.5,1.5-1.3,2.3-1.7c1-0.6,1.5-1.4,1.7-2.4c0.1-0.8,0.3-1.4,0.7-2.1c0.2-0.3,0.3-0.8,0.3-1.2c0-0.3,0.1-0.5,0.1-0.8
		c0.4-0.2,0.3-0.5,0.1-0.8c0-0.2,0-0.4,0-0.6c0,0,0.1,0,0.1-0.1c0-0.1,0-0.2-0.1-0.2c0-1.6-0.7-3-1.7-4.3c0-0.2-0.1-0.3-0.2-0.3
		c-0.3-0.4-0.2-1.2-1.1-1.2c-0.1-0.1-0.2-0.1-0.3-0.2c-0.7-0.9-1.6-1.5-2.6-1.7c-2.2-0.5-4.3-1.1-6.6-0.7c-0.2-0.2-0.4-0.2-0.6,0
		c-0.2,0-0.3,0-0.5-0.1c-0.3-0.2-0.6-0.1-0.9-0.1c-1.4,0.2-2.7-0.1-3.9-0.7c-0.7-0.3-1.5-1.8-1.3-2.3c0.4-0.8,0.5-1.7,0.8-2.5
		c0.2-0.6,0.5-1,1.3-1c1.9-0.1,3.8-0.6,5.7-0.9c0.9-0.1,1.6-0.9,1.4-1.7c-0.2-0.9,0-1.8-0.2-2.6c0.1-1.7,0-2-1.7-1.9
		c-0.3,0-0.6,0-1,0c-0.2-0.1-0.4,0-0.6,0.2c-0.4,0-0.7,0.1-1.1,0.1c-0.2-0.1-0.4-0.1-0.6,0.1c-1,0-2,0.5-3,0.7
		c-1.4,0.2-2.5,0.9-3.6,1.8c-0.4,0.3-0.8,0.7-1.2,1c-2.8,2.2-3.8,5.2-3.2,8.5C66.1,28.7,66.8,30.8,68.6,32.2z"/>
	<path fill="#d0d6d9" d="M212.8,128.9c0.9,1.1,2.1,1.4,3.1,0.8c1.3-0.8,2.8-1.4,3.7-2.8c0.8-1.3,0.7-2.9-0.6-3.7
		c-0.5-0.3-1.1-0.6-1.6-0.9c-0.6-0.4-1.2-0.5-1.8-0.5c-0.4,0-0.7,0.2-1.1,0.1c-1-0.2-1.6,0.4-2.2,1.1l0,0c-0.7,0.2-0.7,0.9-0.7,1.4
		c0,0.7-0.4,1.1-0.8,1.6c0.4,0.3,0.8,0.6,0.8,1C211.6,127.8,212.3,128.3,212.8,128.9z"/>
	<path fill="#d0d6d9" d="M95.5,10.6c0,0.1,0,0.2,0.1,0.3c0.1,0.6,0.2,1.3,0.3,1.9c0.1,1,0.1,2.1,0.4,3.1c0,0.6,0.1,1.1,0.2,1.7
		c0.3,1.7,0.5,3.5,0.7,5.2c0.2,1.7,0.5,3.4,0.8,5.1c0.3,2.1,0.8,4.2,0.9,6.3c0.1,1.7,0.5,3.3,0.8,4.9c0.1,0.7,0.5,1,1.2,0.9
		c1.8-0.2,3.6-0.3,5.3-0.9c1-0.4,1.2-0.8,1-1.8c-0.2-1-0.4-2.1-0.6-3.1c-0.2-0.8,0.1-1.7-0.3-2.5c-0.4-0.9-0.5-1.8-0.6-2.7
		c0.4-0.6,0-1-0.3-1.4c0-0.4,0-0.7,0-1.1c0-0.6,0-1.1,0.1-1.7c0.4,0,0.7-0.1,1.1-0.1c0.3,0.1,0.7,0.2,0.9,0c0.7-0.6,1.6-0.3,2.4-0.5
		c0.4-0.1,0.8,0.3,1.2-0.1c0.2,0,0.4,0,0.6,0c1-0.5,2.1-0.2,3.1-0.5c0.4-0.1,0.5,0.3,0.7,0.5c0.3,2.4,0.6,4.8,0.9,7.2
		c0.1,0.6,0,1.3,0.2,1.9c0.2,0.6,0.3,1.2,0.3,1.9c-0.1,1.4,0.7,2.3,2.1,2.1c1.6-0.2,3.1-0.4,4.6-0.8c0.9-0.3,1.1-0.7,1-1.6
		c-0.1-0.6-0.3-1.3-0.4-1.9c0.1-0.1,0.2-0.2,0.2-0.4c-0.1-1.4-0.2-2.8-0.5-4.2c-0.3-1.3,0-2.6-0.7-3.8c-0.2-0.4,0.1-0.8,0.2-1.2
		c0.1-0.4,1.1-0.7,0-1.2c-0.2-0.1,0-0.2,0.1-0.3c0.2-0.3,0.2-0.6-0.1-0.6c-0.8-0.1-0.8-0.7-0.8-1.2c0-0.6-0.1-1.2-0.2-1.8
		c-0.1-1.5-0.7-3.2,1.1-4.3c-1.9-1.6-3.2-3.3-2.9-5.9c0-0.3,0-0.7-0.2-1c-0.3-0.6-0.4-1.3-0.4-2c-0.2-0.4-0.1-0.9-0.5-1.3
		c-0.6,0.3-1.2,0.3-1.8,0.2c0.1,0,0.2-0.1,0.3-0.2c-0.8,0-1.5-0.2-2.2,0.2c0.2,0,0.3,0,0.5,0c-0.9,0.2-1.8,0.5-2.7,0.3
		c-0.5-0.1-1,0.7-0.9,1.2c0.5,1.7,0.7,3.4,1.1,5.1c0.1,1.7,0.2,3.4,0.5,5.1c0.2,1.3,0.1,1.4-1.2,1.7c-0.1,0-0.1,0.1-0.2,0.2
		c-0.1,0-0.2,0-0.3,0c-0.2,0-0.3,0-0.3,0.2c-0.4,0-0.7,0.1-1.1,0.1c-0.4-0.2-0.8-0.2-1.2,0.1c-1.4,0.3-2.9,0.4-4.3,0.8
		c-1.3,0.4-1.6,0.2-1.9-1.3c-0.1-0.7-0.2-1.4-0.1-2.1c0.1-1.5-0.4-3-0.6-4.5c-0.1,0-0.2,0-0.3,0c0.1,0,0.2,0,0.3,0
		c0.1-0.9-0.1-1.8-0.4-2.6c-0.1-0.4-0.1-0.7-0.2-1.1c-0.2-0.8-0.4-1-1.2-1c-0.3,0-0.5,0.1-0.8,0.1c-1.2,0.2-2.4,0.4-3.6,0.5
		c-1.2,0.1-1.7,0.6-1.5,1.7C95.5,9.3,95.6,9.9,95.5,10.6z M108.2,19.6c0.1,0,0.2,0,0.2,0.1C108.4,19.6,108.3,19.6,108.2,19.6
		c-0.1,0-0.2,0.1-0.2,0.1C108,19.6,108.1,19.6,108.2,19.6z M107.9,19.7c0,0.1-0.1,0.1-0.1,0.2C107.8,19.9,107.9,19.8,107.9,19.7z"/>
	<path fill="#d0d6d9" d="M230,172.9c-0.1-0.3-0.3-0.5-0.5-0.6c-0.5-0.2-0.8-0.6-1.1-1c-0.3-0.4-0.5-1-1.1-1.2c0-0.1,0-0.2,0-0.3
		c-0.7-0.9-1.9-1.3-2.4-2.4c-0.1-0.1-0.3-0.2-0.5-0.2c-1.2-0.4-2-1.5-3.3-1.7c-0.2,0-0.3-0.2-0.4-0.3c-0.5-0.5-1-0.8-1.7-0.8
		c-0.3,0-0.6-0.1-0.8-0.3c-0.9-0.9-2.3-0.8-3.2-1.7c-0.2-0.1-0.4-0.2-0.7-0.2c-2.5,0-4.9-0.5-7.4-0.1c-0.2,0-0.3,0-0.5,0
		c-0.2-0.1-0.2,0-0.3,0.2c-0.1,0.1-0.1,0.1-0.1,0.2c-0.9,0.5-1.9,0.9-2.8,1.5c-1.2,0.9-2,2.2-3.3,3.1c-0.5,0.3-0.6,1-1.3,1.2
		c-0.2,0.1-0.3,0.3-0.4,0.6c-0.4,1.2-1.2,2.1-1.8,3.1c-0.2,0.3-0.3,0.6,0,0.9c0,0.2,0,0.4,0,0.6c-0.5,1.1-0.5,2.2-0.8,3.3
		c0,0.2,0,0.4,0.1,0.5c0.3,0.5,0.2,1,0.1,1.5c-0.3,1.6,1,2.8,0.9,4.3c0,0.1,0.1,0.2,0.2,0.2c0.9,0.8,1.2,1.9,1.7,2.8
		c0.3,0.5,0.6,1,1.1,1.2c0.5,0.2,0.7,0.4,0.8,1c0.1,1.1,0.9,1.8,1.9,2.1c0.3,0.1,0.7,0,0.9,0.3c1.3,1.2,3.2,1.6,4.3,3.2
		c0.1,0.1,0.3,0.2,0.5,0.2c1,0.1,1.9,0.6,2.9,1c1,0.4,2.1,0.8,3.2,0.9c1.8,0.3,3.5-0.1,5.3-0.2c0.3,0,0.4-0.2,0.5-0.4
		c0.2,0,0.4,0,0.5,0c0.2-0.4,0.5-0.7,0.9-0.9c0.9-0.4,1.8-0.6,2.6-1.3c0.1-0.1,0.3-0.3,0.5-0.3c0.8,0,1.1-0.5,1.5-1.1
		c0.3-0.4,1.1-0.5,1-1.2c0.4-0.1,0.5-0.5,0.7-0.8c0.2-0.4,0.4-0.7,0.9-0.7c0.1-0.2,0.3-0.3,0.4-0.5c0-0.3,0.2-0.5,0.5-0.5
		c0-0.2,0-0.4,0-0.5c0.3-0.1,0.6-0.3,0.8-0.6c0.7-1.5,1.6-3,1.3-4.8c-0.1-0.8,0-1.5,0.4-2.3c0.4-0.8,0.4-1.9,0-2.7
		C231.3,175.7,230.6,174.3,230,172.9z M206.9,165.8L206.9,165.8c0-0.1,0-0.2,0-0.3C206.9,165.7,206.9,165.7,206.9,165.8z
		 M227.3,186.3c0,0.1,0,0.2,0,0.2c0,0.2,0,0.3,0.1,0.5c0-0.2-0.1-0.3-0.1-0.5C227.3,186.5,227.3,186.4,227.3,186.3L227.3,186.3z
		 M225.5,185.9c0.1-0.1,0.2-0.1,0.3-0.2C225.7,185.7,225.6,185.8,225.5,185.9z M228.1,178.7c-0.4-0.3-0.9-0.4-1.3-0.1
		c-0.4,0.3-0.5,0.8-0.4,1.4c0.3,1,0.3,2.1,0.1,3.1c-0.1,0.5-0.2,1-0.7,1.3c-0.1,0.2-0.1,0.3-0.2,0.5c0.1,0.2,0.2,0.4,0.1,0.6
		c0-0.2,0-0.3-0.1-0.6c-0.4,0.3-0.6,0.7-0.6,1.1c-0.3,0.3-0.7,0.5-0.7,1c0,0,0,0,0,0c-0.5,0.2-0.9,0.6-1.1,1.2
		c-0.1,0-0.1,0.1-0.2,0.1c-0.1,0.8-0.8,0.9-1.4,1.1c-0.7,0.8-1.8,0.3-2.6,0.6c-1.1,0.6-2.2,0.6-3.3,0.2c-0.5-0.2-1-0.3-1.5-0.4
		c-0.5-0.1-0.8-0.3-0.8-0.8c-0.1-0.1-0.2-0.2-0.3-0.3c-0.5-0.1-1.2,0.3-1.4-0.6l0,0c-0.8,0-1.6,0.1-2-0.9c-0.1-0.3-0.5-0.5-0.9-0.6
		c-0.5,0-0.9-0.4-1.2-0.6c-0.5-0.4-0.9-0.9-1.6-1.1c-0.3-0.1-0.6-0.4-0.7-0.6c-0.7-1.6-2-2.9-2.8-4.4c-0.2-0.4-0.3-0.9-0.8-1
		c-0.4-0.1-0.3-0.5-0.4-0.8c0-0.4,0.1-0.8-0.2-1.1c-0.2-0.3-0.4-0.6-0.8-0.5c-0.5,0-0.4,0.4-0.4,0.7c0,0.1-0.1,0.3-0.1,0.4
		c-0.5,0.1-0.9-0.1-1.3-0.3c-0.2-0.1-0.4-0.3-0.4-0.5c0.2-0.8-0.1-1.7,0.3-2.5c0.4-0.1,0.4,0.1,0.5,0.3c0.2,0.5,0.6,0.4,0.7,0
		c0.4-1.3,1.3-1.6,2.5-1.5c0.4,0,0.6-0.2,0.8-0.6c0.8-1.6,1.9-3,3.2-4.3c0.7-0.6,0.5-1.5,0.7-2.3c0.5,0.1,0.5,0.4,0.6,0.8
		c0,0.4-0.1,0.8,0.5,0.9c0.4,0.1,0.7,0,0.9-0.4c0.3-0.6,0.6-0.5,0.8,0.1c0.1,0.4,0.2,0.6,0.6,0.6c0.4,0,0.5-0.3,0.5-0.7
		c0.2-1.2,0.3-1.3,1.5-1.1c0.2,0,0.4,0,0.4-0.2c0.1-0.3,0.2-0.6,0.5-0.8c0.4-0.2,0.8-0.3,0.9,0.4c0,0.1,0,0.2,0,0.3
		c0,0.3,0.1,0.5,0.4,0.5c0.4,0,0.4-0.3,0.5-0.6c0-0.2,0-0.4,0.1-0.5c0.3,0.2,0.7,0.5,1,0.5c0.8,0,1.4,0.2,1.6,1.1
		c0.1,0.2,0.7,0.2,0.4,0.7c-0.2,0.3-0.5,0.6-0.9,0.5c-0.2,0-0.3-0.2-0.5-0.2c-0.4-0.1-0.7,0-1.1,0.2c-0.2,0.1-0.4,0.3-0.3,0.6
		c0.1,0.3,0.3,0.4,0.5,0.3c0.7-0.3,0.8-0.1,0.7,0.6c-0.1,0.5,1.1,1.5,1.9,1.3c1.3-0.2,1.7,1.2,2.8,1.2c0.6,1.8,2.7,2.4,3.4,4.2
		c0.4-0.3,0.3-0.7,0.4-0.9c0.1-0.3,0.3-0.4,0.6-0.5c0.4-0.1,0.5,0.2,0.5,0.5c0.1,0.4,0.4,0.5,0.7,0.5c1.3,0.2,1.3,0.3,1,1.5
		c-0.1,0.3-0.2,0.5,0,0.8c0.4,0,0.6-0.3,0.7-0.7c0.2-0.6,0.5-0.3,0.8-0.2c0.4,0.1,0.3,0.4,0.2,0.7c-0.1,0.2-0.2,0.4-0.3,0.6
		C229,179.1,228.7,179.2,228.1,178.7z"/>
	<path fill="#d0d6d9" d="M216.9,54.6c0.7,0.5,0.8,0.5,1.1-0.2c0.2-0.5,0.8-0.5,0.9-1.1c0.9-0.2,1.5-1.2,2.6-0.7
		c0.2,0.1,0.6-0.3,0.7-0.6c0-0.5-0.4-0.9-0.7-1.3c-0.2-0.3-0.6-0.2-0.9-0.1c-0.7,0.4-1.6,0.6-2,1.5c-1,0.1-1.8,0.5-2.3,1.5
		C216,54.3,216.2,54.6,216.9,54.6z"/>
	<path fill="#d0d6d9" d="M177.2,95.5c-0.1,1.2-0.8,2-1.2,3.1c-0.2,0.5-0.3,1,0.4,1.3c0.2-1.7,0.8-3.2,1.8-4.6c0.2-0.2,0-0.4-0.2-0.5
		C177.6,94.9,177.2,95.2,177.2,95.5z"/>
	<path fill="#d0d6d9" d="M195.2,46.8c-0.5,0-0.6,0.3-0.6,0.7c0,0.5,0.2,0.9,0.7,0.9c0.5,0,0.7-0.4,0.7-0.9
		C195.9,47,195.7,46.8,195.2,46.8z"/>
	<path fill="#d0d6d9" d="M181.1,122.8c0.6-1,0.6-2.1,0.2-3.2c0-0.1-0.2-0.1-0.3-0.2c-0.1,0.1-0.3,0.2-0.3,0.3
		c0.4,0.8,0.2,1.6,0.2,2.4C180.9,122.4,180.9,122.6,181.1,122.8z"/>
	<path fill="#d0d6d9" d="M9.8,153.5c0-0.1,0.1-0.2,0-0.3c-0.3-0.4-0.8-0.6-1.3-0.7c-0.2,0.1-0.3,0.3-0.2,0.5
		c0.3,0.4,0.7,0.6,1.1,0.8C9.6,153.7,9.7,153.6,9.8,153.5z"/>
	<path fill="#d0d6d9" d="M61,165.4c-0.3,0.4-0.1,0.8,0.1,1.3c0.3-0.4,0.5-0.8,0.2-1.3C61.3,165.3,61.1,165.3,61,165.4z"/>
	<path fill="#d0d6d9" d="M124.4,105.1c-0.3,0-0.5,0.3-0.3,0.6c0.1,0.2,0.2,0.3,0.3,0.5c0.3-0.2,0.3-0.4,0.3-0.6
		C124.7,105.4,124.7,105.1,124.4,105.1z"/>
	<path fill="#d0d6d9" d="M203.4,79.8c0,0.1,0,0.2,0.1,0.2c0.4,0.2,0.6-0.1,0.8-0.4c0,0,0-0.1,0-0.2
		C203.9,79.4,203.5,79.3,203.4,79.8z"/>
	<path fill="#d0d6d9" d="M0.9,128.2c-0.2,0-0.4,0.1-0.4,0.3c0,0.1,0,0.3,0.2,0.3c0.2,0,0.4-0.1,0.4-0.3
		C1.2,128.3,1.1,128.2,0.9,128.2z"/>
	<path fill="#d0d6d9" d="M206,77c-0.1,0.1-0.1,0.3,0.1,0.3c0.3,0.1,0.4-0.1,0.5-0.3c0-0.2,0-0.3-0.2-0.3
		C206.2,76.7,206.1,76.9,206,77z"/>
	<path fill="#d0d6d9" d="M10.3,97.5c0.1-0.1,0-0.3-0.2-0.3c-0.1,0-0.1,0.1-0.2,0.1c0,0.1,0.1,0.2,0.1,0.2
		C10.1,97.6,10.3,97.5,10.3,97.5z"/>
	<path fill="#d0d6d9" d="M221.4,60.4c0-0.2,0.1-0.4,0.1-0.5c0.1-0.3,0.1-0.5-0.2-0.5c-0.2,0-0.6-0.1-0.6,0.2c0,0.7-0.6,0.8-0.9,1.2
		c-0.2,0.2-0.4,0.4-0.6,0.6c-0.1,0.2-0.1,0.4,0,0.5c0.1,0.1,0.2,0.1,0.3,0.1C220.9,61.9,221.1,61.7,221.4,60.4z"/>
	<path fill="#d0d6d9" d="M221.8,56.1c0.1-0.2,0.1-0.5,0.1-0.7c-0.1-0.3,0.1-0.8-0.5-0.7c-0.4,0-0.8,0.4-0.8,0.8
		c-0.8,0-1.1,0.2-1.1,0.8c0,0.9,0.4,1.5,0.9,1.5c0.3,0,0.9-0.5,1.1-1c0,0,0.1,0.1,0.1,0.1c0.1,0.2,0.1,0.5,0.4,0.5
		c0.3-0.1,0.4-0.4,0.3-0.7c0-0.3-0.1-0.5-0.5-0.6C221.9,56.1,221.9,56.1,221.8,56.1z"/>
	<path fill="#d0d6d9" d="M220.8,63.5c0,0.3,0.1,0.7,0.5,0.8c0.4,0.1,0.8,0.2,1.1,0.5c0,0-0.1,0.1-0.1,0.1c0.1,0,0.1,0,0.2,0
		c0,0,0.1,0.1,0.1,0.1c0.1,0.1,0.4,0.2,0.5,0.1c0,0,0,0,0,0c0.2,0.1,0.4,0.1,0.6-0.1c0.4-0.1,0.9-0.1,1.3-0.1
		c0.5,0.5,0.9,1.1,1.8,0.8c0.2-0.1,0.4,0.2,0.5,0.4c0.1,0.2,0.2,0.4,0.3,0.5c-0.2,0.2-0.5,0.2-0.9,0c-0.2-0.1-0.4-0.1-0.7-0.2
		c-0.7-0.2-1,0-1.3,0.6c-0.1,0.3-0.1,0.6,0,0.9c0.7,1.8,2,3.3,2.8,5.1c0.4,0.9,1.2,1,2.1,0.4c1.1-0.7,2.2-1.4,3.3-2.1
		c0.5-0.3,0.6-0.8,0.5-1.3c-0.1-0.8-0.5-1.5-0.9-2.2c-0.7-1-1.6-1.9-2-3.1c-0.2-0.5-0.5-0.9-0.8-1.3c-0.2-0.2-0.2-0.6-0.6-0.3
		c-0.3,0.2-0.4,0.5-0.2,0.8c0.3,0.4,0.5,0.9,0.4,1.3c0,0.7,0.1,1.4-0.9,0.7c-0.1,0-0.1-0.1-0.2-0.1c-0.1-0.3-0.1-0.5-0.1-0.8
		c0-0.1,0-0.2-0.1-0.3c-0.6-0.1-0.4-0.6-0.5-1c-0.2-0.7-0.7-0.9-1.2-0.4c-0.1,0.1-0.1,0.1-0.2,0.2c0-0.3-0.2-0.7-0.5-0.8
		c-0.9-0.5-0.5-0.9,0.1-1.3c0.2-0.1,0.3-0.4,0.3-0.6c0-0.1-0.1-0.1-0.1-0.1c-0.4,0.1-0.7,0.1-1.1,0.2c-0.6,0.1-1.2,0.2-1.1,1.1
		c0,0.3-0.2,0.5-0.5,0.4c-0.8-0.1-1.2,0.6-2,0.6C221.1,62.9,220.8,63.1,220.8,63.5z"/>
	<path fill="#d0d6d9" d="M175.7,21.2c0.2,0.3,0.5,0.6,0.7,0.9c0.1,0.2,0.1,0.4-0.2,0.5c-0.8,0.2-1,0.6-0.5,1
		c0.3,0.3,0.5,0.7,0.8,1.1c0.3,0.5,1,0.5,1.1-0.1c0.2-0.6,0.4-1,1.1-1c0.2,0,0.3-0.2,0.3-0.4c0-0.3-0.2-0.3-0.4-0.3
		c-0.6,0-1.1,0-1.1-0.8c0-0.5-0.9-0.7-0.6-1.4c0.5-0.1,0.8,0.4,1.3,0.5c-0.1-0.8,0.2-1.6,0.6-2.4c-1.6,0.2-1.8,0.2-2.6,0.8
		C175.3,20.2,175.2,20.6,175.7,21.2z"/>
	<path fill="#d0d6d9" d="M121.7,168.4c0.2-0.3,0.5-0.6,0.6-0.9c0.2-0.4,0.2-0.8-0.2-1.1c-1.4-0.8-2.3-0.3-2.3,1.3c0,0,0,0.1,0,0.3
		c0.2,0.3-0.3,1.1,0.2,1.3C120.7,169.4,121.3,168.9,121.7,168.4z"/>
	<path fill="#d0d6d9" d="M120.9,172.1c-0.1-0.2-0.3-0.2-0.5-0.2c-0.4,0.1-0.7,0.2-1.1,0.3c-0.4,0.1-0.7,0.4-0.5,0.7
		c0.3,0.8-0.1,1.4-0.4,2.1c0.5,0.2,0.7,0,0.8-0.2c0.5-0.7,0.8-1.7,1.7-2.1C121,172.7,121,172.3,120.9,172.1z"/>
	<path fill="#d0d6d9" d="M116.2,169.4c0.1,0.6,0.5,0.3,0.8,0.3c0.5,0.2,1.1,0.2,1.1-0.5c0-0.4-0.2-0.9-0.8-1
		C116.9,168.2,116.2,168.9,116.2,169.4z"/>
	<path fill="#d0d6d9" d="M122.7,159.2c0-0.3-0.1-0.5-0.4-0.4c-0.7,0.1-1.3,0.7-1.9,1.1c-0.2,0.1-0.1,0.3,0,0.5
		c0.1,0.2,0.3,0.3,0.6,0.2c0.5-0.3,1-0.6,1.5-0.9C122.6,159.5,122.7,159.3,122.7,159.2z"/>
	<path fill="#d0d6d9" d="M124.8,168.5c0.5-0.2,0.9-0.4,1.3-0.7c0.1-0.1,0.1-0.2,0.1-0.4c0-0.1-0.2-0.2-0.3-0.2
		c-0.5,0.3-0.9-0.7-1.4,0c0,0,0-0.4-0.3-0.3c-0.1,0.4-0.1,0.8,0,1.2C124.3,168.4,124.5,168.6,124.8,168.5z"/>
	<path fill="#d0d6d9" d="M121.3,163.5c0-0.3-0.1-0.6-0.4-0.8c-0.2,0-0.3,0.1-0.3,0.2c0,0.3,0.2,0.5,0.4,0.7
		C121.1,163.7,121.3,163.6,121.3,163.5z"/>
	<path fill="#d0d6d9" d="M120.4,174.7c-0.1,0-0.2,0.1-0.2,0.3c0,0.2,0.2,0.3,0.4,0.2c0.1,0,0.2-0.1,0.2-0.3
		C120.8,174.7,120.6,174.7,120.4,174.7z"/>
	<path fill="#d0d6d9" d="M123.9,175.7c0.1-0.1,0-0.3-0.2-0.3c-0.1,0-0.1,0.1-0.2,0.1c0,0.1,0.1,0.2,0.1,0.2
		C123.7,175.8,123.9,175.7,123.9,175.7z"/>
	<path fill="#d0d6d9" d="M125.5,177c0-0.1-0.1-0.1-0.2-0.1c0,0.1-0.1,0.2-0.1,0.2c0.1,0,0.2,0.1,0.2,0.1
		C125.5,177.1,125.5,177,125.5,177z"/>
	<path fill="#d0d6d9" d="M189.6,119.3L189.6,119.3c0,0,0.1-0.1,0.1-0.1C189.7,119.2,189.6,119.3,189.6,119.3L189.6,119.3
		L189.6,119.3c-0.4,0-0.8-0.1-1,0.3c-0.2,0.5,0.3,0.6,0.5,0.9c0.1,0.2,0.3,0.2,0.5,0.2C189.6,120.3,189.2,119.8,189.6,119.3z"/>
	<path fill="#d0d6d9" d="M183.1,133.7c0,0-0.1,0.1-0.1,0.1C183,133.8,183,133.8,183.1,133.7C183,133.8,183,133.7,183.1,133.7z"/>
	<path fill="#d0d6d9" d="M182.9,133.8L182.9,133.8C182.9,133.8,182.9,133.8,182.9,133.8C182.9,133.8,182.9,133.8,182.9,133.8z"/>
	<path fill="#d0d6d9" d="M98,66.6c0.1,0,0.2,0,0.2-0.2c0-0.1-0.1-0.1-0.2-0.2c-0.1,0-0.2,0.1-0.2,0.1C97.9,66.4,98,66.6,98,66.6z"/>
	<path fill="#d0d6d9" d="M93.9,63C93.8,62.9,93.8,62.9,93.9,63c-0.1-0.1-0.1,0-0.1,0C93.7,63.1,93.7,63.1,93.9,63
		C93.8,63.1,93.9,63,93.9,63z"/>
</g>
</svg>
