<?xml version="1.0" encoding="UTF-8"?>
<svg id="Layer_1" data-name="Layer 1" xmlns="http://www.w3.org/2000/svg" width="866" height="651.011047" viewBox="0 0 866 651.011047">
  <path d="m104.773499,238.733582l2.401489-1.568726c-1.033203.517212-1.756592,1.042664-2.401489,1.568726Z" fill="#1eba2c"/>
  <path d="m781.619324,463.942261c-1.22052.760742-2.434692,1.523682-3.660706,2.282837,1.690552-.846375,2.869141-1.601746,3.660706-2.282837Z" fill="#1eba2c"/>
  <path d="m866,432.373962l-28.547119-75.314636c-.194824-.943054-.351318-1.880188-.470886-2.810181-.130554-.950623-.164978-1.782532-.32312-2.903687-.123474-1.057007-.210815-2.106689-.263245-3.148315l-.065491-1.583008-.055542-.812744-.015015-.008972c-.043457-.023438-.040527-.011169-.233093-.050232-.139343-.021912-.272339-.026367-.546387-.075806-.917969-.124512-2.473938-.381042-4.342468-.802246-1.867981-.412842-4.111877-1.012817-6.582275-1.759888-2.47699-.748901-5.20575-1.654114-8.202637-2.732361-.78595-.284058-1.591858-.581055-2.414368-.888794l-2.154846-6.106201c-2.067505.945557-4.189087,1.86499-6.334778,2.7724-3.316467-1.354004-6.890991-2.864136-10.802246-4.568848-8.651794-3.760925-18.815491-8.431946-31.573181-14.226074l5.98999,5.365051c-8.578674-2.213989-17.419128-4.529602-24.57196-7.019592-6.206665-2.166321-11.149231-4.465637-13.409546-7.045959,2.036133-.720215,3.845276-1.454285,5.265747-2.225037,3.091248-1.669067,4.393982-3.533691,2.527283-5.772644,4.654724-.15448,10.878479-1.928528,17.434448-4.474243,6.5177-2.541321,13.307007-5.746399,19.27533-8.51062,11.936401-5.523438,20.819519-9.200439,19.668396-1.753479,11.879089-5.295349,21.803223-10.689453,30.80249-16.042847,9.001587-5.356873,17.08783-10.688782,25.163696-15.957031l-16.096191-98.470398,1.054871-3.205261.970398-2.771973c-.005859.014893-.011108.030334-.041138.035217-.175781.013123-.284424.068787-.53009.064575-.288513-.02655-.519409-.016479-.866699-.063232-.375549-.062378-.71283-.099731-1.12915-.178101-1.656189-.306335-3.847778-.889587-6.317078-1.65625-4.972229-1.539246-10.974792-3.776672-18.040894-6.55011-3.794861-1.486389-7.691711-3.012695-11.712463-4.587524-2.180786-.841064-4.381287-1.677856-6.912109-2.610962-1.543884-.547058-3.100342-1.098633-4.6698-1.654785-1.609131-.534485-3.231689-1.073547-4.868103-1.617126-6.577026-2.099548-13.513489-3.963684-20.873047-5.347961-3.683655-.66394-7.467468-1.247131-11.359802-1.599915-.971802-.106201-1.950623-.15802-2.934631-.235779-.491821-.039307-.986084-.062012-1.480103-.11322l-1.489807-.058716c-1.555969-.052124-3.207825-.122681-4.760498-.149231l-3.943359-50.147217c-11.916931.496948-23.259155,2.090454-33.641907,4.271912-8.077881,1.696228-15.588135,3.736023-22.577576,5.915466V0H175v223.082642c-22.841797,7.253723-46.082336,14.70929-72.436829,17.86792,0,0,.714111-1.043213,2.210327-2.21698-31.139832,19.874634-62.068787,39.895813-92.784302,60.060669l25.38147,16.991516c-12.368408,4.27063-24.877747,9.14917-37.370667,14.872925l51.756531,113.085205c4.190247-1.180237,8.361694-2.386414,12.515015-3.616028l12.136963,81.295044c.925232-.126038,1.848877-.257141,2.771851-.390076l2.015381,13.499268c31.19281-4.787109,62.459045-9.652893,93.80426-14.747498v35.215393h16.425293l.311829,1.685852c-3.005981,1.399353-5.770813,2.792114-8.174438,4.172424-5.396118,3.098694-9.043762,6.134521-9.944458,9.058167-4.935608,1.746399-9.284851,3.227051-13.130676,4.486572l-98.5896,32.288086,109.40564,26.183105c2.317566.554688,4.500916,1.077209,6.562805,1.570618,2.077637.510376,4.023682.808289,5.882446,1.186279,3.729126.768799,6.972961,1.15332,9.941223,1.62323,2.952881.424377,5.529358.65802,7.925232.94812,1.914978.216858,3.63623.332275,5.28479.453308l2.285461,12.355286c8.038391-3.629944,16.002747-7.273438,24.013855-11.037537,1.999756-.946045,4.005432-1.894836,6.019043-2.847473,1.991394-.977844,4.115601-1.831848,6.176697-2.769348,4.155457-1.840515,8.339294-3.723206,12.567627-5.661255,4.228333-1.93811,8.501282-3.931641,12.835205-5.993958,2.642578-1.231506,5.358459-2.442139,8.100525-3.673889,1.401672-.442261,2.80304-.88446,4.20813-1.327759,3.9151-1.28302,7.728455-2.586731,11.571594-3.886902,15.190063-5.322449,29.212463-11.2052,39.214417-16.392517,5.024719-2.582825,9.030273-5.00354,11.785461-7.077698,2.505432-1.942017,3.900574-3.593933,3.932678-4.889343.059204-.023315.122437-.047302.181824-.070618l.939941,1.21759c.025757-.548584.001587-1.066223-.061401-1.558716,3.027161-1.177612,6.303894-2.39563,9.890808-3.657776,4.044434-1.399475,8.378845-2.922791,13.272949-4.365601,4.871704-1.462708,10.16095-2.970703,15.908691-4.520996,5.758057-1.543396,11.931152-3.158203,18.681763-4.759094,6.779114-1.582092,14.063538-3.199951,21.893738-4.849915,3.921448-.805786,7.973022-1.638367,12.159424-2.498596,4.219543-.830994,8.605469-1.661255,13.127502-2.502808,5.142517-.954163,10.464417-1.916199,15.98938-2.886841h207.404602v-82.202698c1.580811-.597473,2.656067-1.082703,3.305603-1.472717,1.56543-.238098,3.151184-.481567,4.778625-.736023l.42157-4.517395c-1.388184.270081-2.772522.534424-4.159485.802429,4.47345-1.891174,9.344543-3.988403,14.372559-6.345398,9.031555-1.601196,17.9104-3.549194,27.826172-5.443359,3.77301-.687134,7.728882-1.468994,11.881531-2.134888,2.079773-.345154,4.209534-.658997,6.410339-.991394,2.203979-.346619,4.471619-.67865,6.812195-.993103,2.340637-.314514,4.754272-.611572,7.25061-.888367,2.501343-.306091,5.090637-.619873,7.770874-.89801,2.681335-.284912,5.454224-.534424,8.3349-.78656,1.834717-.187805,3.728882-.363708,5.651672-.533936,2.545837.666504,5.16571,1.322388,7.882202,1.961914-1.864868.482117-3.74115.959045-5.642029,1.458801-6.360046,1.69696-12.854675,3.195984-19.442139,4.770264-26.320923,6.120483-53.531067,11.084717-75.370972,14.539001l-.271423,2.746765c6.518005-1.005005,13.187927-2.152161,19.915466-3.49115,3.356567-.662109,6.686768-1.315674,10.00415-2.015747,3.320862-.714966,6.603699-1.421875,9.817261-2.11377,3.204224-.677185,6.366333-1.399292,9.429382-2.090027,3.063354-.671326,6.025452-1.320374,8.854675-1.940369,5.690063-1.272827,10.87561-2.371826,15.312622-3.102173,4.459595-.361145,12.622742-.248779,17.876526.78302,4.095825.756836,6.381653,2.180481,3.596436,4.577148,3.863953-2.408447,7.708862-4.823303,11.513672-7.26001,4.204163-1.110168,8.216492-2.207825,12.055298-3.292786,4.064697.656433,8.213135,1.273132,12.940063,1.736816,4.897827.483704,10.095337.860474,16.149719.879211,6.006287.015625,12.660828-.26416,20.307007-1.342285l-5.502502-15.592285c6.150818-2.314514,11.71936-4.548462,16.917419-6.69696ZM14.001465,334.179993l-.825562-1.803772.263367-.142944,1.048889,2.291809c-.181702-.101135-.343018-.216797-.486694-.345093Zm45.867676,100.218567l-.571533-1.24884c.420898.248047.646973.618958.790588,1.075378l-.219055.173462Z" fill="#1eba2c"/>
</svg>