<?xml version="1.0" encoding="UTF-8"?><svg id="Layer_1" xmlns="http://www.w3.org/2000/svg" viewBox="0 0 130 130"><circle cx="66.57" cy="7.95" r="6.04" fill="#000" stroke-width="0"/><path d="M19.42,27.91c.08-.18.03-.08-.18.41l-.15.35.33-.76Z" fill="#000" stroke-width="0"/><path d="M17.94,31.17c-.25.57-.53,1.24-.34.88.25-.6.28-.66.55-1.33.22-.49.38-.85.35-.76.08-.19.31-.69.45-1.02-.3.67-.64,1.42-1.02,2.27-.08.18-.01,0,0-.04Z" fill="#000" stroke-width="0"/><path d="M8.51,81.43v-.34c-.01.09,0,.21,0,.34Z" fill="#000" stroke-width="0"/><path d="M25.33,108.31c-.17-.18-.26-.23-.29-.23.17.16.3.28.29.23Z" fill="#000" stroke-width="0"/><path d="M29.17,112.46c-.09-.07-.17-.14-.25-.2.09.09.18.18.25.2Z" fill="#000" stroke-width="0"/><path d="M8.51,81.43l.03.86c.07.05,0-.44-.03-.86Z" fill="#000" stroke-width="0"/><path d="M15.1,37.75c.07-.16.12-.3.18-.43-.06.14-.11.27-.17.4v.03Z" fill="#000" stroke-width="0"/><path d="M7.63,67.24l.02-.26c-.01-.08-.03-.15-.05-.22l.03.48Z" fill="#000" stroke-width="0"/><path d="M8.53,56.38c-.03.25.08.34.12.44-.03-.15-.04-.3-.03-.56-.02-.02-.05.05-.09.13Z" fill="#000" stroke-width="0"/><path d="M13.92,39.9l.12-.28c-.03.07-.08.2-.12.28Z" fill="#000" stroke-width="0"/><path d="M7.65,75.09s-.04.06-.05.11c.02,0,.03-.04.05-.11Z" fill="#000" stroke-width="0"/><path d="M29.75,20.64s0,0,0,0c-.05.04-.06.05,0,0Z" fill="#000" stroke-width="0"/><polygon points="19.42 27.91 19.56 27.81 19.59 27.79 19.42 27.91" fill="#000" stroke-width="0"/><path d="M37.18,118.57s-.02-.02-.03-.03c-.23-.13-.11-.05.03.03Z" fill="#000" stroke-width="0"/><path d="M118.03,92.28c-.77.76.57-1.64-.5-.44.18-.06-.32,1.48.5.44Z" fill="#000" stroke-width="0"/><path d="M14.98,38.01l-.18.41c.08-.19.14-.31.18-.41Z" fill="#000" stroke-width="0"/><path d="M117.53,91.84h0s-.11.12-.11.12c.05-.05.07-.08.11-.12Z" fill="#000" stroke-width="0"/><path d="M60.05,124.29c-.05-.04-.15-.07-.25-.1.01.03.07.06.25.1Z" fill="#000" stroke-width="0"/><path d="M42.87,121l.41.14c-.16-.06-.29-.11-.41-.14Z" fill="#000" stroke-width="0"/><path d="M68.92,122.89c.23,0,.32.03.63-.05-.03-.01-.06-.02-.1-.02-.11.05-.26.09-.53.07Z" fill="#000" stroke-width="0"/><path d="M78.15,120.97c-.05-.01-.12-.01-.18-.02-.09.03-.19.06-.28.09l.46-.07Z" fill="#000" stroke-width="0"/><path d="M54.44,8.78c-.21,0-.34-.03-.45-.06.16.08-1.2.3.45.06Z" fill="#000" stroke-width="0"/><path d="M15.07,37.75c-.01.05-.04.13-.09.26.04-.1.08-.19.12-.29,0-.03,0-.04-.03.02Z" fill="#000" stroke-width="0"/><path d="M69.03,120.57l1.48-.13c-.42.02-.95.07-1.48.13Z" fill="#000" stroke-width="0"/><path d="M111.96,32.12l-.17-.3c.05.12.11.23.17.3Z" fill="#000" stroke-width="0"/><path d="M74.61,119.46c.28.04.57.03.86,0,.05-.04.12-.07.15-.12l-1.01.12Z" fill="#000" stroke-width="0"/><path d="M53.99,8.71h0s0,0,0,0Z" fill="#000" stroke-width="0"/><path d="M44.36,10.36c1.4-.19.64-.23.92-.36,1.66-.28.79,0,1.37,0,1.04-.18,1.82-.44,2.59-.54.06.02.21,0,.04.06,1.08-.29,3.27-.47,4.53-.83.1,0,.15,0,.17.02-.22-.06-.27-.14-.23-.21.63-.1,1.15-.29,1.4-.2-.38.05-.41.11-.58.17l.65-.15c.62.08-.89.19-.87.32,1.27-.24,2.74-.61,3.73-.7.23.15-2.29.39-.95.36l-1.53.15c1.2.1-.93.11.18.25,1-.12,1.56-.21,2.12-.32.28-.05.56-.1.89-.15.17-.02.37-.07.43-.05.2.01.43.02.68.04.46-.09-.15-.16.31-.24,2.87-.1,2.24.56,4.35.37.55-.11.77-.36,2.26-.18l-.52.21c1.95.09,1.12-.3,3.17-.07-.37.08-1.54.03-1.24.07,1.32.23.94-.1,1.96-.07l.21.22c1.04.02,2.14,0,3.26,0,.34,0,.4-.02.74.04l.84.13c.56.09,1.13.19,1.7.28-.14.04-.54.04-.02.21,2.87.46,6.09,1.24,8.81,1.94h1.09c.24.04.43.18.16.17,1.06.3.08-.13.61-.11.61.11.78.29.38.27.12.01.25.03.38.04.11.01.33.04.32.03.05-.01.09,0,.13.03.13.08.25.17.39.25.53.35,1.1.74,1.67,1.15,1.13.81,2.24,1.66,2.97,2.38l-.36-.19c1.2,1.04,1.71.7,2.74,1.77l-.25-.14c1.33,1.09,2.78,2.16,4.14,3.2l.5.39c.09.07.17.13.18.15l.22.22c.29.29.57.58.85.85.54.56,1.03,1.11,1.44,1.63.62.07,2.35,2.47,2.87,2.24,1.24,1.54.77,1.22,2.65,3.26.52.53,1.03.51,1.73,1.1l-.18.22,1.1.64c.08.22-.02.3-.09.41l.42.74c-.13-.32-.19-.71-.09-.7.68,1.16,1.19,3.04,1.07,3.14l1.55,2.77c-.14-.01-.4-.48-.64-.82.98,1.4-.15.41.75,1.7-.03-.22.21.03.28.03.16.78.9,2.37,1.51,3.52l-.29-.14c.23.54.49,1.08.75,1.64.26.53.52,1.06.78,1.61.2.58.4,1.16.6,1.75.2.62.41,1.24.61,1.87-.19-.93.22-.84.49-.11l-.22.39c.34.41-.13-.81.42.09.26.95-.15.74-.43.24l.47,1.1c-.07.1-.21-.15-.35-.19.34.4.31,2.07.86,2.63l-.07.09c.79,2.51,1.26,3.61,1.93,5.65.14-.04.27.2.39.4.09.1.12.1.19.54-.27,1.56-.69,3.27-.88,5.16,0,1.34.21.41.31,1.03-.28.07-.47,1.95-.55.96-.21,2.27-.27,2.9-.37,5.79.15-.3.23-.64.31-.45-.01.52-.25,1.17-.37,1.08v-.14c0,.2-.01.41-.02.62-.01.25-.01.31-.06.56-.07.42-.17.85-.27,1.29-.21.87-.48,1.75-.73,2.61-.51,1.72-.99,3.36-.95,4.68v-.15s-.21,2.68-.21,2.68c-.28,1.2-.07-.76-.41.1-.02.73-.09,1.37-.18,1.96-.05.29-.1.58-.15.85-.04.17-.04.21-.05.24-.02.05-.04.05-.08.12-.58.9-1.15,1.74-1.62,2.84-1.65,1.16-3.29,5.63-5.01,7.49l.24-.02c-.16.65-.49.61-.77.99.16.02.51-.51.39-.11l-.49.9-.25.45c-.12.21-.07.14-.15.23-.46.51-.92,1.03-1.38,1.55-.94,1.03-1.9,2.05-2.88,3.06-1.96,2.03-3.97,4.04-5.87,6.07-.04.05-.08.09-.12.14-.01.01,0,0,0,0v.02s.04.05.04.1c-.12.13-.3.31-.42.45-.27.3-.62.58-1.91.77l.57-.58c-3.75,1.73-7.95,2.7-11.64,4.35.2-.15.17-.26.54-.38-.22,0-.52.07-.84.17-.28.1-.58.2-.87.3-.65.22-1.18.47-1.16.57-.61.13-.19-.15-.59-.16-.86.06-1.99.84-2.49.7-.08-.02.21-.14.36-.2-.51.26-2.52.6-1.93.76-1.5.23-2.77.83-3.98.96-.68.51-2.54.48-2.67.99,0-.24-.67-.17-1.44.01-.12.03-.05.02-.13.03l-.31.04c-.2.04-.41.07-.6.11-.38.08-.73.17-.96.25.3-.18-.84-.05-.49-.29-1.08.13-2.06.34-1.85.55-2.06-.32-3.95.91-5.16.34-1.59.31-3.13.6-4.62.86l-.56.1-.28.05-.12.03s-.07,0-.11-.01l-.26-.05-.55-.11c-.73-.15-1.45-.29-2.16-.43.1-.2.89-.02,1.64.14.38.08.75.17,1.03.2.14.02.25.02.33,0,.04-.03.04-.07.05-.13-.66-.1-1.25-.18-1.8-.27-.58-.08-1.12-.15-1.66-.22-1.08-.15-2.15-.34-3.46-.72-.67-.23.44-.09.69-.11-2.72-.48-5.17-1.29-7.61-1.64.02-.04.28-.02.53.01-.47-.1-1.08-.32-1.07-.12l.47.06c.34.23-.16.26-.76.24-.17-.01-.25.02-.36,0-.1-.03-.2-.07-.33-.13-.24-.1-.42-.17-.45-.15.99.02-1.91-1.5-.44-1.32-.28-.15-.66-.31-.67-.16-.37-.3-.45-.45.03-.29-1.48-.91-1.09-.39-2.37-1.29.06-.07.34.08.53.09-.75-.31-1.51-.62-2.55-1.45.1,0,.01-.14.33.08-1.88-1.28-3.45-1.85-5.4-3.42.82.12-.63-.59-.55-.93l-.45-.27-.46-.43.25.5c-.79-.87-1.67-1.48-2.28-2.29l.69.56-1.54-1.58.76,1c-.92-.77-.21.36-1.2-.85.24.21-.79-.87-1.07-1.45h0c-.47-.36-.95-.73-1.48-1.43-.08-.23.37-.09.32-.24-.58-.25-1.92-1.98-2.61-2.34.21.14.33.04.3-.04l-.47-.22c-.32-.44-.35-.52-.2-.54-1.08-1.23.08.63-1.12-.91.11.1.09.03.32.24-.29-.38-.69-.73-.89-1.06-.28-.38-.55-.76-.82-1.14-.54-.75-1.07-1.48-1.54-2.25-.07-.59.94,1.26.8.62-1.51-2.11-3.3-4.24-4.66-6.35l.24.4c-.5-.08-.9-1.64-1.76-2.59.2.24.39.22.31.18-.23-.36-.47-.72-.73-1.09-.14-.23-.23-.26-.23-.41-.03-.22-.07-.45-.11-.68-.16-.98-.33-2.06-.54-3.35l.12.31c-.04-1.01-.26-2.65-.35-3.74-.12-.31-.18-.94-.25-.55.04-1.7-.21-3.29-.46-4.83-.12-.76-.25-1.55-.33-2.27.05-.71.13-1.49.26-2.22-.02.36,0,.85.02.57l.12-2.54c-.13.19-.09.33-.22.85-.05-.33-.04-1.05,0-1.68-.01,1.15.18,0,.28-.48-.04.08-.07-.09-.1-.05.29-1.31-.2-.24.06-2.04l.05.1c.02-.68,0-1.31.07-2.04.14-.29,0,.73.1.78.07-1.03-.07-2.04.11-2.96-.01.44-.03,1.06-.05,1.5.21-1,.18-1.12.26-1.87v.07s.17-1.73.17-1.73l-.07.44c-.05-.33-.06-.65-.06-.99.02-.34-.02-.67.11-1,.2-.68.42-1.42.58-2.27-.32,1.66,0,.29.08.45.15-.42.37-1.06.34-.86.14-.81.43-1.3.64-2.45.04-.04.24-.84.27-.64.27-1.03-.12.23-.13.13.36-1.61,1.17-3.68,1.69-5.99.24-.98.39-1.57.53-2.15.12-.56.4-1.08.76-1.95.29-.57-.15.51-.15.51.45-.93.76-1.64,1.14-2.53-.07.19.03,0,.16-.26.31-.71.16-.5.6-1.43-.06.17-.13.38-.26.73.36-.84.71-1.68,1.08-2.56.12-.22-.21.54-.33.85.42-.98,1.1-2.54,1.22-2.85l-.29.62c.16-.36.1-.17-.01.09-.35.85-.54,1.2-.58,1.24l.27-.62c-.34.61-1.11,2.48-1.66,3.73l.18-.54-.53,1.3c-.14.26-.26.43,0-.18-.44.87-.33.8-.72,1.54-.04.08-.03.04,0-.04l-.37.88c.06-.18-.12.12.14-.41-.35.77-.72,1.39-.82,1.95-.14.54-.25.95-.38,1.25l.04-.14c-.65,2.29,0,.24-.41,1.98l-.53,1.09v.25c-.06.23-.2.7-.21.6-.2.89.08-.14-.02.39-.41,1.11-.88,3.13-1.11,3.34-.05.43.38-1.07.07.16-.27.3-.38,1.41-.77,2.42,0-.34.34-1.31-.05-.3-.03.68-.63,1.98-.88,2.9.13.1-.1,1.99-.18,3.52-.04-.1-.32,2.86-.5,4.27l-.02-.04c.15.29,0,1.74-.05,2.81-.1-.05-.13-.24-.13-.82l-.08,1c.04.24.04.55.01,1.2l-.12-.26c-.05.67-.07,1.34-.1,2.06-.02.36-.04.73-.06,1.12,0,.08-.03.24,0,.35l.03.3c.01.2.03.41.04.63.15.08.23-1.4.53.39-.07.08-.19.16-.27-.31.03.15.12.54.12.86l-.2-.71c.03.78.15.39.21,1.02-.11,0-.03.47-.12.39-.03-.16-.01-.55-.08-.78.06.7.08,1.56.02,1.85.06-.07.15-.02.22.5.15,1.33-.09.47-.07,1.25.11.31.12,1.17.29,1.17.04.39-.03.47-.07.62.15.68.36,3.2.47,2.41v-.18s0,.07.01.11h0s0,0,0,0c.21,1.12.31,2.29.4,3.46.04.59.09,1.17.13,1.75.03.24,0,.7.26.95.16.23.33.47.49.7l-.06.03c.81,1.07,1.7,2.45,2.36,3.16.22.33.42.85.25.75.61.82.75.87,1.47,2.17-.68-.79.11.36-.66-.83.69,1.14.76,1.46,1.72,2.53-.42-.3.36.97.76,1.46l-.41-.85c.42.58.75,1.1,1.09,1.64l-.4-.14c.31.61.67,1.15,1.03,1.65.2.25.32.47.65.8.22.2.43.4.65.6.85.78,1.62,1.51,2.12,2.46.62.41-.9-1.19-.3-.85.82.95,1.41,2.18,1.67,2.47,1.04,1.38,1.37.92,2.5,2.32-.08-.24-.03-.57.94.36.82.95.73,1.42.14.89-.21-.22-.28-.35-.25-.36-.3-.28-.69-.64-.43-.2l.18.05c.34.53,1.51,1.8,1.11,1.61.71.64.39.19-.04-.37.49.65.91,1.11,1.33,1.58.24.23.34.45.82.81.28.2.57.42.89.68-.18-.2-.31-.44-.1-.29,1.91,1.51.98.46,2.35,1.37.67.67-.49.12.94.97.76.67.01.35-.36.19,1.35.71,2.22,1.75,2.9,2.28l-.7-.39c.42.23.73.46,1.05.69l-.25-.44c.36.3.68.53.62.6.47.16-.09-.51.8-.11.44.45,1.61,1,1.62,1.36-1.54-1.21,0,.36-1.37-.56.28.16.6.38.96.69.04.07-.09.01-.2-.05,1.37,1.3.89.23,2.47,1.36-.3,0,.19.52.46.67-.32-.23-.35-.34-.23-.35.15,0,.33.03.89.31.2.06.37.12.53.17.12.03.22.06.32.09.19.04.34.07.47.08.27.03.46.02.78.11l-.71-.24c.28-.1.88.07,1.74.23.04.15-.79-.1-.5.03,1.01-.06,2.04.83,3.39.96.58.26-.02.33.49.54,1.51.15,1.52.63,3.1.83-.39-.34-.48-.3.66-.25l-2.56-.47,1.7.08c-.76-.19-1.64-.26-2.09-.41.82,0,.72.05.4-.23.96.6,2.12.32,3.26.84l-.18.55c.87.35,1.7.48,2.59.61.45.07.91.13,1.41.23.17.04.34.07.51.11.18.04.45-.04.58-.04.27-.03.56-.06.86-.07l-.79-.02c.3-.27,1.48-.2,2.25-.38-.05.21.45.22.79.31-.06-.14,1.76-.18,1.94-.6l1.11.14c1.96-.11,2.15-.82,4.03-.96-.54.28.33.33-.91.63.62-.07,1.19-.09,1.18-.24.38.09,1.7-.47,2.3-.34.25-.12.31-.34,1.02-.4.08.03,0,.1,0,.1,0-.1,1.08-.26.44-.42.25.04.5.11.86.06.29-.03.58-.07.89-.13.61-.12,1.26-.29,1.9-.46,1.28-.34,2.52-.69,3.4-.62,1.31-.4,2.9-.86,4.1-1.18-.06.08.02.1-.21.14,1.71-.22.88-.84,2.83-1.1,1.05.09-.96.43-.33.4.22.3.78.14,1.47-.09.17-.06.34-.1.6-.21.18-.07.36-.15.54-.21.36-.13.73-.22,1.07-.23l-.29.14c1.03-.1,2.24-1.04,3.81-1.52,0,0-.06.08.02.1.95-.7,2.92-1.49,4.39-2.1-.38.42-.63.37-.26.54.66-.27-.34-.36.97-.89.48,0,1.49-.21,1.72.03l-1.26.44c.77.15,1.63-.57,2.32-.73l-.03.19c.48-.18.83-.34,1.12-.49.2-.1.39-.19.57-.27.21-.05.27-.3.4-.44.13-.18.2-.3.27-.42.08-.12.16-.25.26-.4.2-.28.46-.6.83-1.01l-.25.08c.48-1.18.85-.59,1.4-1.7h.56c.45-.65,1.53-2.34,2.41-3.45-.29.81-1.27,2.17-1.81,3.06.52-.59,1.74-2.02,1.86-2.46-.18.26-.36.63-.62.82.38-.95,1.1-2,2.14-3.17.22.38.94-.35,1.75-1.22.41-.44.84-.91,1.25-1.3.08-.08.25-.22.37-.38.13-.19.17-.22.26-.33.16-.17.31-.3.45-.39,1.15-2.54,2.92-4.65,4.52-7.44-1.14.65.46-.82-.21-.99.35-.67.5-.91.57-.94l1.5-1.75c.44-.36-.24.69-.08.71.88-1.39.59-.44,1.3-1.3-.08.02-.13,0-.12-.09.02-.12.11-.3.2-.55.02-.13.04-.28.06-.45.02-.1.03-.21.05-.33.04-.2.09-.42.15-.64-.22.44-.28.72-.66,1.5.14-.2.09-.45.14-.65.01-.13.03-.25.04-.36.03-.21.07-.39.12-.55.09-.32.21-.55.32-.78.23-.46.46-.93.5-2.1l.07.76c.1-1.19.81-4.31.51-5.55.11-.19.34-.43.29.09.3-1.39.45-2.97.62-4.46.04-.37.09-.74.13-1.1.05-.31.11-.83.13-1.13.06-.68.15-1.3.29-1.84l.13.23c.01-.53-.2-.95.03-1.59.06.04.13.23.17-.01-.02-.28-.12-1.43.04-2.12l.11.62c.5-2.73.03-4.27.17-6.59.23.03.44-.5.61-1.16.09-.33.17-.7.24-1.05.03-.18.07-.35.1-.51.02-.12.04-.24.06-.36.02-.14.05-.27.05-.4.03.02.05.04.07.06-.23-.88-.32-1.04-.44-1.44-.13-.35-.25-.7-.38-1.03-.25-.67-.52-1.29-.78-1.91-.53-1.24-1.08-2.44-1.62-3.83-.06-.96-.49-2.46-1-4.1-.13-.41-.26-.82-.39-1.24l-.2-.63c-.08-.22-.08-.36-.26-.76-.35-.79-.68-1.56-.94-2.26.12.44-.34.08-.6-.38-.22-.67-1.09-1.62-.69-1.69l.1.23c.12-.64-.59-1.89-1.06-2.91l-.54.05c-.29-1.48-1.18-3.19-2-4.74-.2-.39-.4-.77-.59-1.13-.11-.21-.21-.42-.31-.62-.05-.15-.16-.26-.28-.36-.09-.08-.18-.17-.26-.25-.52-.5-.91-.95-1.1-1.34-.6-.39-1.24-.99-1.84-1.38l.2-.16c-1.39-1.39-2.09-2.07-3.9-3.68l.49.21c-.99-.94-1.76-.65-2.69-1.5l-.03-.53c-.44-.41-.86-.83-1.28-1.25l-.32-.32-.16-.16c-.06-.07-.22-.19-.25-.22l-.7-.57c-.94-.75-1.89-1.46-2.93-2.04.06-.02.18-.06.5.16-.89-.68-3.34-2.78-3.3-2.17.16-.26-1.95-1.5-3.06-2.17l.29-.06c-1.04-.43-1.11-.39-2.37-1.24-.27-.24-.15-.33.2,0-.22-.2-.39-.33-.53-.42-.17-.1-.3-.18-.45-.26-.14-.1-.42-.06-.61-.1-.2-.03-.45-.07-.8-.17l.56-.03c-1.21-.24-1.13-.15-1.82-.12-.78-.06-2.29-.48-2.44-.7-.18.08-.88.1-1.58-.08-.08-.09.18-.08.32-.08-2-.51-3.06-.34-4.42-.78-.02-.07-.1-.12-.21-.16,1.61.3,2.91.55,2.78.54.03-.18-1.26-.45-.18-.51-1.07-.05-2.92-.09-4.17-.41-.06-.03-.12-.06-.16-.09h.14c-.29-.07-.56-.1-.81-.11-.4-.1-.65-.17-1.04-.24-.03-.04-.14-.08-.29-.13-.08-.02-.17-.04-.26-.06-.05-.03-.4-.06-.45-.05-.44,0-.95,0-1.28-.01.05.18-.81.14,0,.3-.1-.01.13-.02.56-.02.1,0,.22,0,.28-.01l-.05.02c.11,0,.23,0,.35,0h.19c.08,0,.2,0,.29.03.27.05.57.1.89.16-.27,0-.54,0-.83-.04-.4-.05-.67-.02-1.05-.09-.34.11-.72.22-.93.28-.9-.27-2.64-.44-2.87-.59-2.02.06-4.75,0-6.03.27-.57.03-.66-.1-.87-.15.33-.02.73-.01.91-.05-1.15.06-3.4-.03-3.68.16-.72-.06-.52-.1-.38-.13.07-.01.12-.02.03-.03-.05,0-.13,0-.26,0-.05,0-.22,0-.3.03-.09.02-.2.03-.32.06l.26-.1c-3.9.34-6.2,1.45-10.53,1.78.3-.03.45-.04.51-.02-1.22.16-2.46.35-3.71.55l-.93.15c-.06.02-.2.02-.29.06l-.23.17-.38.29-1.51,1.15c-2.01,1.54-4.04,3.06-6.02,4.46-1.12.81-1.2.95-1.85,1.5l-.28.12-1.11.93c-1.61,1.26-2.93,2-4.96,3.63l.29-.17c-.75.55-2.36,1.77-2.25,1.65-.07.06-.23.2-.53.41h-.03s-1.82,1.39-1.82,1.39c-1.43,1.05.2-.2-1.87,1.35-.71.54-1.62,1.22-1.9,1.43.29-.22.69-.51.82-.61l-.71.52c-.13.1-.68.48,1.09-.76l1.22-.88.4-.27-1.03.73c.59-.41.96-.67,1.37-.98.13-.09.3-.2.52-.35l1.18-.88c.16-.09-.52.41.29-.16.55-.42-.56.35.36-.32.6-.4.44-.26,1.12-.77.11-.06-.03.05-.31.25.6-.45,1.62-1.16,1.92-1.41.64-.4,2.06-1.48,2.05-1.38.18-.15,1.04-.82,1.6-1.22-.96.82,2.11-1.5,1.91-1.21.69-.63,2.71-2.01,4.01-3.04-.07.06-.2.19-.33.27.76-.54,1.01-.66,1.51-.99.03-.17,1.18-1.04,1.77-1.57,1-.57-.47.53-.11.42-.11-.05,1.55-1.25,1.18-1.09.76-.45.63-.41,1.07-.58.02-.23.64-.5,1.16-1.02.52-.32.68-.38.68-.35.01,0,.03,0,.05,0,.12-.02.32-.05.66-.11.66-.03-.55.2-.55.2ZM76.95,8.91h0c-.28-.05-.52-.09-.67-.12.14.02.33.06.67.12ZM79.68,9.44c-.33-.07-.74-.15-1.18-.24-.08-.08.03-.13.31-.08-.16.02.48.18.87.32ZM74.03,7.05c.43,0,.46.06.59.08.1.03.14.06.17.08-.1-.02-.21-.03-.34-.05-.05-.02-.44-.06-.54-.04-.01,0-.04.02-.05.02.04-.03.09-.07.18-.09Z" fill="#000" stroke-width="0"/><path d="M73.23,7.28c-.06,0-.1,0-.18,0,.09.02.18.03.26.05.05-.02.11-.04.16-.05-.08,0-.16,0-.24,0Z" fill="#000" stroke-width="0"/><path d="M8.5,81.04v.06s0-.09.01-.12c0,.04,0,.04-.01.07Z" fill="#000" stroke-width="0"/><polygon points="110.31 30.09 110.36 30.04 110.14 29.91 110.31 30.09" fill="#000" stroke-width="0"/><path d="M8.37,65.82s.03-.08.05-.2c0,0-.03.09-.05.2Z" fill="#000" stroke-width="0"/><path d="M8.87,59.24l.11-.93c-.05.4-.08.7-.11.93Z" fill="#000" stroke-width="0"/><path d="M9.71,54.31c0-.07,0-.09-.01-.11h0s.02.11.02.11Z" fill="#000" stroke-width="0"/><path d="M42.95,119.19c.07.01.13.02.19.03.46.06.15,0-.19-.03Z" fill="#000" stroke-width="0"/><path d="M24.05,105.58c.2.16.4.32.6.49-.28-.33-.5-.57-.6-.49Z" fill="#000" stroke-width="0"/><path d="M68.87,120.58h0c.06,0,.11,0,.16-.01h-.16Z" fill="#000" stroke-width="0"/><path d="M25.4,106.9c-.25-.35-.5-.6-.75-.82.23.27.49.59.75.82Z" fill="#000" stroke-width="0"/><path d="M16.92,33.61l.1-.22s0-.01,0-.03l-.11.25Z" fill="#000" stroke-width="0"/><path d="M17.03,33.36l.11-.25c-.05.11-.09.2-.11.25Z" fill="#000" stroke-width="0"/><path d="M17.36,32.59l-.23.53c.08-.18.16-.38.23-.53Z" fill="#000" stroke-width="0"/><path d="M14.19,39.75v.08s0-.07,0-.08Z" fill="#000" stroke-width="0"/><path d="M13.37,41.62c.2-.44.53-1.1.79-1.73v-.06c-.09.3-.64,1.35-.79,1.79Z" fill="#000" stroke-width="0"/><path d="M10.63,49.67l.51-1.63c-.12.28-.27.64-.05-.11-.72,2.04.2-.41-.46,1.74Z" fill="#000" stroke-width="0"/><path d="M9.05,54.74c.25-.89-.06,0-.07-.06-.13.57-.17.71.07.06Z" fill="#000" stroke-width="0"/><path d="M12.5,92.13l-.2.02c.42.57.06-.03.2-.02Z" fill="#000" stroke-width="0"/><polygon points="17.41 97.65 17.12 97.02 16.79 96.84 17.41 97.65" fill="#000" stroke-width="0"/><polygon points="19.01 101.92 18.79 101.71 19.63 102.54 19.01 101.92" fill="#000" stroke-width="0"/><path d="M76.6,121.63l-.29-.27c-.45.17-.46.56.29.27Z" fill="#000" stroke-width="0"/><path d="M102.85,111.97c.33-.11.93-.62,1.12-1.1-.43.45-.95.83-1.12,1.1Z" fill="#000" stroke-width="0"/><polygon points="115.82 35.04 116.15 35.51 115.62 34.59 115.82 35.04" fill="#000" stroke-width="0"/></svg>