<?xml version="1.0" encoding="UTF-8"?><svg id="Layer_1" xmlns="http://www.w3.org/2000/svg" viewBox="0 0 150 150"><path d="M23.35,24.65c.07-.23-.09-.16-.38.42l-.07.5.45-.92Z" fill="#202020" stroke-width="0"/><path d="M20.93,28.36c-.29.72-.59,1.57-.2,1.22.21-.75.37-.88.58-1.7.3-.59.6-.98.61-.85.07-.23.52-.88.59-1.24-.53.68-1.06,1.63-1.5,2.68-.15.19-.08-.04-.08-.1Z" fill="#202020" stroke-width="0"/><path d="M4.04,86.92l.02-.29v-.06s0,.04,0,.06c0,.05-.02.17-.02.29Z" fill="#202020" stroke-width="0"/><path d="M18.47,122.09c-.19-.24-.28-.33-.3-.33.18.22.33.39.3.33Z" fill="#202020" stroke-width="0"/><path d="M22.75,127.56c-.12-.08-.22-.15-.34-.22.12.09.25.18.34.22Z" fill="#202020" stroke-width="0"/><path d="M4.04,86.92l-.08,1.06c.06.08.06-.54.08-1.06Z" fill="#202020" stroke-width="0"/><path d="M16.4,35.99c.12-.18.22-.34.3-.49-.1.15-.2.3-.31.45,0,.01,0,.03,0,.04Z" fill="#202020" stroke-width="0"/><path d="M2.1,69.56l.03-.32c-.01-.1-.03-.19-.05-.27v.6Z" fill="#202020" stroke-width="0"/><path d="M4.95,56.49c-.03.3.11.42.17.54-.05-.18-.06-.4-.05-.67-.03,0-.07.03-.12.13Z" fill="#202020" stroke-width="0"/><path d="M13.98,37.9l.26-.28c-.07.07-.18.19-.26.28Z" fill="#202020" stroke-width="0"/><path d="M2.22,79.23s-.03.07-.04.14c0,0,0,.02,0,.03,0,0,0,0,0-.03.02,0,.03-.08.04-.14Z" fill="#202020" stroke-width="0"/><path d="M35.24,15.57s-.01-.02-.01-.03c-.07.04-.09.06.01.03Z" fill="#202020" stroke-width="0"/><path d="M23.01,24.44l.19-.11s.01-.07,0-.1l-.19.21Z" fill="#202020" stroke-width="0"/><path d="M32.9,134.58s-.03-.02-.04-.04c-.27-.18-.12-.07.04.04Z" fill="#202020" stroke-width="0"/><path d="M132.45,114.63c-.54,1.18.5-2.05-.26-.25.11-.15-.33,1.75.26.25Z" fill="#202020" stroke-width="0"/><path d="M16.18,36.26c-.11.15-.22.3-.33.44.15-.2.25-.34.33-.44Z" fill="#202020" stroke-width="0"/><path d="M132.19,114.38h0s-.08.19-.08.19c.03-.08.05-.12.08-.19Z" fill="#202020" stroke-width="0"/><path d="M59.03,145.59c-.06-.03-.17-.04-.29-.06.01.02.08.03.29.06Z" fill="#202020" stroke-width="0"/><path d="M38.81,138.86l.4.35c-.15-.14-.28-.25-.4-.35Z" fill="#202020" stroke-width="0"/><path d="M70.07,145.08c.29.02.38.05.77.04-.04,0-.07-.01-.12-.02-.14.02-.33.02-.66-.02Z" fill="#202020" stroke-width="0"/><path d="M81.61,145.17c-.06,0-.14-.01-.21-.02-.11,0-.25.02-.36.02h.58Z" fill="#202020" stroke-width="0"/><path d="M67.99,5.02c-.26,0-.42,0-.55-.03.2.07-1.46.44.55.03Z" fill="#202020" stroke-width="0"/><path d="M16.33,35.94c0,.08-.05.17-.15.32.08-.11.15-.21.22-.31,0-.04-.01-.06-.07,0Z" fill="#202020" stroke-width="0"/><path d="M70.55,143.89l1.84.09c-.51-.03-1.18-.06-1.84-.09Z" fill="#202020" stroke-width="0"/><path d="M135.46,41.27l-.18-.38c.06.15.12.29.18.38Z" fill="#202020" stroke-width="0"/><path d="M77.77,144.12c.33.04.68.06,1.03.06.08-.02.16-.03.21-.05h-1.25Z" fill="#202020" stroke-width="0"/><path d="M67.44,4.98h0s0,0,0,0Z" fill="#202020" stroke-width="0"/><path d="M55.41,6.58c1.74-.06.81-.23,1.18-.36,2.08-.14.97.11,1.68.19,1.3-.1,2.29-.32,3.26-.35.07.03.26.04.04.09.29-.04.54-.07.99-.1,1.5-.35,3.41-.66,4.66-1.07.12,0,.18,0,.21,0-.27-.05-.33-.14-.3-.22.77-.16,1.4-.41,1.71-.34-.47.09-.5.15-.71.23l.79-.22c.76.04-1.08.28-1.06.42.6-.15,1.25-.32,1.88-.48.88.06,1.92.14,2.62.26.23.22-2.85-.29-1.25.07l-1.36-.22-.36.05c.13,0,.24,0,.31,0,.03.01.05.02.05.03,0,.01,0,.02,0,.02.05.01-.26.05-.43.1-.17.04-.19.08.3.1.14-.03.13-.02.13-.02.24.03.45.06.64.09.23.03.44.05.63.07.39.04.72.07,1.06.1.67.06,1.36.13,2.54.3.57-.03-.16-.17.4-.21.93.07,1.51.15,2.04.25,1.41.08,1.46.39,3.4.18.67-.13.93-.37,2.78-.27l-.63.22c.59,0,.97-.02,1.25-.05.27-.03.5-.06.52-.09.03-.02.28.05.54.14.28.1.66.26,1.25.53-.45-.09-1.79-.63-1.46-.48,1.46.76,1.12.32,2.29.78l.17.27c1.3.48,2.66.98,4.07,1.5,1.32.16,2.66.33,4.02.5-.16.03-.66.02,0,.17.55.07,1.11.14,1.68.22.54.08,1.09.16,1.65.24,1.17.52,2.36,1.05,3.52,1.57,1.18.54,2.33,1.07,3.42,1.58l1.29.34c.29.12.5.28.18.18,1.23.56.1-.07.73.12.72.28.91.46.44.33.55.19,1.21.42,1.94.67.68.25,1.41.51,2.14.78.23.31.47.62.7.93.25.35.51.7.75,1.03.48.67.91,1.31,1.25,1.86l-.33-.37c.98,1.45,1.42,1.54,2.22,2.71.19.17.28.27.44.43l-.28-.21c1.72,1.59,3.54,3.18,5.28,4.74,1.6,1.11,2.99,2.1,4.15,3.03.17.04.49.23.87.49.36.25.79.55,1.2.84.14.16.27.32.39.47.14.16.28.31.39.44.24.26.43.42.53.42,1.44,1.96.95,1.46,3.06,4.14.1.12.27.31.26.28,0-.03.11.19.18.29.08.13.15.25.24.38.16.27.34.56.52.98l-.14.09.76,1.34.13.83.45.96c-.15-.39-.28-.85-.21-.81.72,1.49,1.45,3.75,1.37,3.83l1.57,3.57c-.09-.06-.36-.65-.59-1.12.93,1.87-.02.42.83,2.13-.06-.25.14.09.19.12.09.32.21.68.42,1.25.5.99,1.12,2.11,1.67,3.06l-.25-.22c.34.63.69,1.28,1.04,1.94.33.6.67,1.21,1.02,1.84.02,1.53.04,3.1.06,4.68.05-1.17.25-.9.28.05l-.18.38c.11.61.06-1,.2.26-.01,1.22-.2.82-.26.12l.07,1.48c-.05.09-.08-.26-.15-.35.09.6-.1,2.55.12,3.42l-.05.08c.13,3.25.26,4.72.34,7.37.16.05.15,1.08.3,1.87,0,.89,0,1.84-.01,2.82-.2,1-.43,2.24-.62,3.44-.19,1.63.05.5.02,1.24-.16.09-.52,2.4-.42,1.19-.19,1.39-.41,2.26-.6,3.23-.19.97-.4,2.03-.74,3.77.14-.36.26-.78.26-.55-.12.63-.38,1.42-.42,1.31l.02-.17c-.05.29-.11.58-.16.89-.11,1.24-.27,2.47-.46,3.74-.18,1.21-.37,2.42-.54,3.56-.03.03,0,0-.07.08l-.16.22c-.11.15-.21.29-.32.44-.21.29-.41.58-.6.85-.38.55-.72,1.08-1,1.57l.09-.15-1.76,2.79c-.12.16-.2.27-.25.34-.12.2-.11.15-.04-.02.15-.29.42-.75,0-.25-.04.06-.08.13-.11.18-1.33,2.82-2.34,4.32-3.48,6.53-.1.35-.21.7-.32,1.07-.34.63-.72,1.6-1.11,2.73-.19.57-.39,1.17-.59,1.78-.18.55-.36,1.12-.53,1.67-.56.46-1.12.92-1.63,1.34-.57.46-1.11.87-1.59,1.2l.2-.04c-.55.58-.77.56-1.24.92.11,0,.72-.48.37-.12-.56.47-1.13.95-1.71,1.44-1.04.63-2.1,1.27-3.16,1.91-1.11.65-2.23,1.31-3.35,1.97-1.71,1.86-3.43,3.74-5.13,5.6-.89.61-1.77,1.22-2.65,1.82-.99.69-1.23,1-1.51,1.32-.14.16-.3.33-.56.54-.13.11-.29.23-.49.37-.1.07-.21.14-.33.22-.06.04-.12.08-.19.12l-.07.04s-.03,0-.05,0c0,0-.04,0-.12,0,.15-.03.1-.05.14-.08.02-.04,0-.04.04-.1l.2-.21-.22.17c-.05.04-.03.03-.05.05h-.03s-.24.04-.24.04l-.49.05-.98.09-1.97.16c-1.38.1-2.76.19-4.14.29-1.01.69-2.02,1.38-3.02,2.06-.94.65-1.87,1.31-2.77,1.97.22-.2.2-.25.6-.52-.17.09-.38.21-.62.36-.12.08-.24.16-.37.24l-.2.14h-.03s-.17.02-.17.02c-.14.01-.27.02-.41.03-.26.03-.51.05-.73.07-.43.05-.72.1-.72.13-.77.02-.18-.09-.66-.12-1.05-.03-2.63.29-3.19.18-.1-.02.29-.06.49-.07-.68.1-3.19.13-2.53.25-1.86,0-3.56.22-5.04.2-.4.09-1.07.11-1.64.13-.79-.04-1.64-.1-1.81.03.14-.24-3.27-.33-4.45-.26.4-.06-1.03-.12-.56-.2-1.35-.02-2.58.1-2.35.21-2.49-.23-4.99.37-6.39.03-2.35.14-4.6.27-6.65.39-1.48-.57-2.8-1.07-4.11-1.57.21-.18,3.7,1.47,3.65,1.17-1.6-.59-2.88-1.03-4.15-1.48-1.26-.46-2.51-.94-4.12-1.46-.82-.31.51.06.8.11-1.07-.32-2.11-.65-3.12-.99-.98-.32-1.94-.64-2.88-.95-.4-.32-.8-.63-1.19-.94-.43-.32-.85-.64-1.27-.96.02-.01.29.17.54.35-.47-.37-1.06-.9-1.08-.77l.47.34c.64.73-2.06-1.22-2.19-1.22.99.38-2.28-1.94-.78-1.25-.32-.24-.75-.48-.72-.37-.45-.37-.58-.51-.05-.23-1.75-1.23-1.22-.68-2.77-1.85.04-.04.36.18.56.25-.85-.5-1.7-1.01-2.99-2.03.1.03-.03-.12.36.18-.26-.19-.5-.36-.74-.54-2.09-1.21-3.76-1.99-6.07-3.51.29.09.3.06.19-.03-.06-.05-.14-.1-.24-.17-.11-.07-.23-.15-.26-.17-.07-.11-.13-.21-.18-.29-.06-.11-.09-.19-.08-.24l-1.06-1.28.33.59c-.88-1.15-1.78-2.08-2.49-3.11l.72.8-1.69-2.13.88,1.27c-.98-1.1-.11.28-1.24-1.29.05.06.05.06,0-.03-.19-.21-1.09-1.15-1.44-1.66h0c-.55-.47-1.11-.95-1.82-1.76-.15-.25.32,0,.22-.16-.21-.13-.55-.45-.93-.83-.37-.36-.78-.78-1.16-1.16-.06-.24-.11-.46-.15-.66-.06-.22-.11-.41-.17-.55.1.29.2.28.21.18l-.24-.56c-.08-.67-.07-.77.03-.68-.34-2-.14.68-.46-1.7.04.18.05.09.14.47-.11-.73-.25-1.44-.38-2.14-.14-.72-.28-1.43-.42-2.13-.31-.34-.62-.68-.93-1.01l-.85-.97c-.29-.62,1.34,1.4.96.73-.73-.77-1.47-1.55-2.22-2.34-.74-.76-1.48-1.53-2.2-2.29-.13-.51-.26-1.01-.39-1.51-.13-.52-.25-1.04-.37-1.55l.11.57c-.38-.35-.4-2.27-.9-3.76.11.37.27.45.22.36-.11-.45-.21-.91-.33-1.38.03-1.6,0-3.56-.01-6.02l.06.4c.04-.57.07-1.21.1-2.04-.2-.91-.4-1.88-.57-2.63-.16-.37-.32-1.13-.32-.65-.17-1.4-.46-2.79-.76-4.03-.17-2.52-.51-5.05-.4-7.43.02.39.12,1.03.1.67l-.05-.68.19-2.4c-.15.23-.12.4-.28,1.05-.03-.4,0-1.29.08-2.07-.06,1.41.2,0,.34-.59-.05.1-.07-.11-.11-.07.39-1.61-.23-.3.15-2.51l.05.12c.02-.34.03-.67.04-1,.11-.45.24-.94.41-1.44.25-.31-.21.87-.11.96.38-1.21.5-2.47.99-3.52-.14.52-.34,1.27-.49,1.79.54-1.14.55-1.29.86-2.17l-.03.09.73-2.03-.21.51c.04-.45.11-.86.23-1.33.04-1.24.27-2.5.23-4.08.05,2.09.11.35.26.53.09-.54.22-1.36.25-1.12-.02-.5.04-.91.1-1.37.03-.23.06-.47.08-.75,0-.14.01-.28.02-.43,0-.14,0-.35-.01-.42v-.04s.47-.95.49-.67c.53-1.2-.22.24-.23.11.33-.87.82-1.81,1.37-2.85.27-.52.55-1.06.84-1.61.14-.28.27-.57.41-.86l.2-.44c.06-.14.15-.33.16-.38.16-.18.32-.35.48-.53,1.74-1.82,1.95-2.27,3.58-3.95.63-.48-.33.59-.33.59.67-.56,1.17-1.04,1.72-1.59.2-.3.41-.6.63-.92-.11.22.07.05.34-.21.56-.78.23-.63,1.04-1.61-.08.21-.17.49-.4.9.62-.95,1.23-1.89,1.87-2.87.26-.2-.31.65-.5,1.02.45-.66,1.05-1.51,1.52-2.23.26-.54.42-.91.45-1.09l-.45.72c.22-.42.23-.16.08.17-.03.07-.06.14-.09.2-.55.88-.92,1.12-1,1.15l.47-.69c-.76.51-1.95,2.73-2.96,4.07l.23-.7-.87,1.5c-.27.26-.52.39-.05-.3-.28.32-.45.54-.55.69-.24.25-.34.43-.88.83-.1.06-.07.02,0-.06l-.8.86c.13-.19-.25.02.29-.46-1.62,1.37-2.34,2.48-3.03,2.91l.12-.13c-1.83,1.85-.48.67-1.18,1.55-.03.1-.09.28-.18.51l-1.01,1.16.03.33c-.14.27-.41.8-.42.68-.39,1.06.15-.14-.04.49-.66,1.07-1.41,2.95-1.87,3.63-.04.16-.07.26-.11.3.04.25.09-.04.13-.3.1-.17.16-.26.05.01,0,.09,0,.24-.01.46-.32.42-.11,1.8-.36,3.11-.11-.42.08-1.67-.17-.35.18.82-.29,2.58-.34,3.7.07.01.07.35.04.78-.22.78-.7,2.18-1.03,3.35-.03-.09-.74,2-1.35,3.78-.07.5-.13.96-.18,1.34l-.03-.05c.17.36-.06,2.15-.15,3.47-.11-.06-.14-.3-.12-1.02l-.12,1.23c.03.3.03.68-.03,1.48l-.12-.32c-.04.46-.07.93-.11,1.41.11,1.28.24,2.53.25,4.07.15.11.3-1.7.51.53-.07.09-.2.18-.26-.41.02.19.1.68.09,1.07l-.17-.89c0,.97.13.5.16,1.27-.11,0-.05.57-.14.47-.02-.2.01-.67-.05-.97.03.87.02,1.92-.05,2.27.03-.03.07-.07.11.12.06.13.1.25.17.54.37,1.6,0,.58.15,1.53.16.37.32,1.41.48,1.41.11.47.05.57.05.77.22.68.73,3.08.82,3.04,0,.01,0,.01.01,0,.01,0,.03-.03.02-.13l-.04-.22s.02.09.04.13h0s0,0,0,0l.06.21c.06,2.47-.2,5.11-.25,7.67.06.23.12.46.18.68h-.05c.45,1.6.9,3.58,1.29,4.7.11.48.18,1.15.06.96.14.5.23.83.32,1.14.25.26.38.4.6.65.21.24.47.55.83.98-.92-.88.23.38-.93-.92,1.07,1.25,1.25,1.58,2.55,2.79-.51-.35.7,1.03,1.26,1.59l-.7-.92c.3.32.58.63.85.92.24.27.47.54.71.81-.06-.02-.11-.03-.15-.03-.05,0-.13-.06-.2-.08l.12.15.04.06s0,.04.01.12l.04.28c.03.18.06.37.09.55.07.36.14.71.21,1.05.16.68.31,1.34.46,1.97.15.63.29,1.25.41,1.85.06.3.11.6.15.9l.12,1.05.27.33c.15.12.18.12.15.06-.02-.03-.05-.07-.1-.14-.07-.08-.16-.18-.26-.29-.07-.44-.09-.68-.11-.87-.01-.18,0-.25.09-.03.04.29.08.57.13.85.34.38.46.54.67.8.19.24.36.46.52.66.31.4.56.72.7.87,1.4,1.59,1.56,1.24,3.05,2.88-.13-.22-.19-.48.58.21.1.11.21.25.35.41.92,1.24.94,1.67.31.93-.23-.29-.32-.45-.3-.45-.32-.38-.75-.89-.43-.36l.17.12c.42.65,1.72,2.33,1.33,2,.76.89.39.33-.11-.38.55.78,1,1.38,1.46,1.98.23.3.46.6.71.92.26.35.54.71.84,1.13.07.05.17.11.27.17-.09-.07-.18-.13-.25-.19-.09-.15-.15-.26-.14-.28,0-.02,0-.04.13.12.03.04.06.08.07.1.33.21.6.38.82.52.2.12.36.21.48.29.25.14.37.19.47.23.2.07.31.07,1.18.58.93.69-.48-.01,1.31.98,1.03.71.14.28-.32.07.92.48,1.77,1.04,2.41,1.48.45.38.91.78,1.27,1.06l-.82-.54c.49.33.87.61,1.26.91l-.37-.44c.45.36.84.65.8.69.53.29-.23-.44.78.17.57.51,1.91,1.34,2.02,1.64-1.9-1.49.11.3-1.54-.9.33.22.71.51,1.16.87.06.07-.09-.02-.22-.11,1.75,1.51.99.46,2.85,1.96-.3-.11.32.49.63.72-.75-.61-.26-.42.48.08,1.15,1.02,1.33,1,1.95,1.51l-.69-.6c.3.12.89.61,1.74,1.26.02.12-.79-.57-.51-.3.2.12.39.26.59.41.1.08.19.16.29.24.11.1.23.2.35.3.42.17.87.35,1.33.53.44.17.91.34,1.41.46.71.3.01.2.64.45,1.8.46,1.86.75,3.74,1.27-.49-.28-.57-.35.74.06-.99-.4-2.04-.64-3.06-.97l2.02.47c-.92-.31-1.97-.56-2.51-.77.97.21.86.21.46-.04,1.19.61,2.54.68,3.9,1.42l-.16.28c.91.44,1.76.75,2.66,1.07.45.16.91.32,1.4.5.24.09.49.18.75.28.29.11.58.23.89.35.37,0,.76-.01,1.17-.02l-1-.03c.48-.14,1.87-.07,2.85-.15-.09.11.52.13.93.19-.05-.08,2.19-.06,2.45-.28l1.34.1c2.41,0,2.74-.38,5.06-.41-.7.14.36.18-1.2.31.77-.02,1.47-.02,1.48-.09.45.06,2.15-.23,2.86-.06.33-.03.43-.14,1.3-.1.09.03,0,.05,0,.05,0-.05,1.36-.02.6-.17,1.2.22,2.87.28,4.54.33,1.64-.08,3.19-.17,4.23-.07,1.69-.1,3.73-.22,5.26-.31-.1.04,0,.05-.29.06,2.12,0,1.29-.37,3.7-.36,1.24.12-1.27.15-.5.18.11.11.44.13.89.11.23-.01.48-.03.76-.05.31-.02.65-.05.99-.07.32-.22.65-.45.96-.67.29-.19.57-.36.84-.5l-.31.24c1.09-.6,2.43-1.81,4.12-2.93,0,0-.06.08.02.05.2-.17.43-.37.71-.6l.17-.03c.09-.01.19-.03.28-.04.19-.02.39-.05.59-.07.41-.05.83-.09,1.26-.14.86-.08,1.74-.17,2.51-.25-.6.18-.88.14-.5.25.87-.08-.27-.21,1.47-.37.29,0,.74.02,1.15.04.2,0,.4.02.55.04.16.02.36.04.42.07l-1.75.13c.23.04.5.04.78.03.14-.01.28-.02.43-.03l.57-.06c.23-.18.45-.35.67-.52.18-.14.35-.27.52-.38l-.04.13c2.04-1.48,1.94-1.68,4.16-3.24l-.27.11c.53-.51.78-.65,1.08-.82.27-.25.49-.42.93-1.05l.46-.19c.61-.77,2.11-2.71,3.23-4.05-.54.85-1.83,2.44-2.6,3.46.64-.73,2.16-2.48,2.42-2.93-.24.31-.53.71-.81.98.36-.55.86-1.22,1.39-1.88.52-.35,1.22-.79,1.93-1.22-.05.42,2.75-1.43,4.64-2.45.47-.35.79-.57,1.06-.7.78-.7,1.57-1.37,2.39-2.03.87-.69,1.75-1.39,2.66-2.12.25-.71.51-1.43.77-2.18.23-.69.47-1.4.72-2.13-.76,1.23.36-1.1-.03-.98.27-.89.39-1.22.44-1.29l.45-1.07.86-1.34c.4-.54-.36.81-.25.77.99-1.77.53-.68,1.25-1.82-.24.18.19-.7.78-1.69l-.92,1.36c.97-2.09,1.33-2.15,2.05-3.45.14-.19.4-.59.66-1.02l-.43.8c.79-1.24,3.09-4.44,3.7-5.77.07-.07.28-.32.34-.34,0-.01,0-.01,0,0,.02-.02.04,0-.01.09-.03.07-.17.28-.23.37.1-.14.2-.29.31-.44.07-.66.14-1.34.21-2.04.05-.63.11-1.28.16-1.92.11-1.27.21-2.53.31-3.68.19-.9.4-1.82.61-2.56l.02.28c.12-.64.1-1.15.36-1.93.02.05.02.27.09-.02.05-.34.24-1.73.48-2.57l-.07.74c.23-.83.35-1.58.44-2.27.1-.69.17-1.33.23-1.95.12-1.24.22-2.42.42-3.84.05-.01.1-.04.18-.33.12-.81.12-2.68.12-3.77l.04.05c-.07-3.99-.44-6.75-.68-10.43.05-.85.11-2.14.12-3.61,0-1.52,0-3.24.01-4.88-.28-.54-.56-1.07-.83-1.58-.23-.46-.46-.91-.67-1.33.23.52-.21,0-.54-.55-.37-.78-1.28-2.02-1.02-2l.14.27c-.06-.35-.39-1.04-.71-1.66-.23-.58-.49-1.22-.71-1.79l-.35-.1c-.48-1.76-1.37-3.96-2.25-5.94-.89-1.98-1.7-3.77-1.91-4.75-.1-.19-.2-.4-.3-.6-.11-.24-.23-.48-.34-.73-.19-.21-.38-.42-.56-.62-.17-.18-.33-.35-.48-.51l.15-.06c-.72-.88-1.27-1.55-1.85-2.26-.61-.72-1.26-1.49-2.16-2.55-.08-.05-.26-.18-.46-.31l.21.09.11.05.19.11c.06.06.17.17.19.19-.06-.08-.13-.15-.17-.21-.11-.07-.22-.15-.33-.22-.08-.05-.15-.09-.22-.13-.14-.08-.28-.15-.41-.22-.26-.13-.5-.22-.74-.32-.47-.19-.94-.38-1.56-.8l-.26-.46c-.98-.67-2.01-1.42-2.93-2.08-1.21-1.13-2.55-2.35-3.9-3.39.06,0,.17.01.53.33-.43-.4-1.21-1.11-1.92-1.77-.18-.24-.35-.48-.5-.69-.17-.23-.33-.43-.46-.59-.27-.32-.43-.46-.42-.3.15-.15-1.76-2.48-2.77-3.71l.27.11c-.2-.2-.36-.37-.5-.51-.07-.07-.13-.14-.2-.2-.09-.1-.17-.19-.25-.29-.26-.08-.53-.16-.87-.27-.3-.1-.66-.23-1.17-.42-.41-.18-.32-.26.22,0-1.34-.62-1.12-.3-2.76-1.04l.66.16c-1.41-.58-1.32-.48-2.14-.69-.92-.28-2.65-1.15-2.81-1.36-.22,0-1.03-.23-1.84-.62-.09-.1.22,0,.38.05-1.57-.75-2.59-1.07-3.68-1.51-.61-.07-1.05-.14-1.63-.28-.03-.06-.14-.1-.28-.13.72.11,1.38.21,1.94.29,1.06.46,1.59.69,1.52.67.05-.13-1.44-.79-.17-.46-.37-.12-.81-.27-1.29-.44-.65-.05-1.36-.11-2.06-.16-.67-.06-1.33-.15-1.9-.25-.07-.02-.15-.05-.2-.08h.17c-.36-.06-.69-.09-1-.12-.5-.1-.82-.16-1.3-.23-.04-.04-.19-.08-.4-.12-.19-.03-.43-.07-.68-.12-.46-.18-.98-.38-1.33-.52,0,.17-.98-.25-.09.24-.12-.06.15.04.66.23.12.04.25.09.33.11-.02,0-.04,0-.06,0l.43.17,1.44.2c-.45,0-.99-.04-1.47-.12-.12-.05-.39-.17-.6-.28-.43-.06-.89-.14-1.15-.19-.96-.61-2.91-1.51-3.14-1.74-.63-.23-1.31-.48-2.01-.74-.55.02-1.11.04-1.66.05-.51.02-1.01.05-1.49.07-.95.05-1.78.13-2.36.24-.71.05-.81-.07-1.08-.11.41-.03.89-.04,1.11-.08-.53.04-1.33.06-2.01.08-1.1-.11-2.26-.23-2.47-.13-1.76-.31,1.02-.06-1.42-.33l.34-.02c-.68-.13-1.33-.23-1.95-.32-.31-.04-.62-.07-.92-.11-.33-.03-.65-.07-.98-.1-.32.08-.63.15-.95.23l-.86.22c-.57.15-1.14.29-1.72.44-1.16.29-2.4.58-3.74.81-.59,0-1.27,0-1.96-.03.37.01.56.02.63.05-1.02,0-2.04.03-3.07.06-1.06.04-2.12.08-3.19.12l-3.36,1.87c-1.1.6-2.19,1.21-3.28,1.8-1.48.65-2.99,1.29-4.46,1.87-1.58.63-1.69.86-2.62,1.33l-.41-.02-1.59.81c-.79.36-1.54.61-2.3.84-.38.11-.76.23-1.15.35-.2.06-.39.12-.6.18-.23.08-.47.16-.71.24-.15.17-.31.35-.47.53-.13.16-.27.32-.41.49-.28.34-.56.71-.85,1.12l.35-.24c-.76.86-2.3,2.82-2.28,2.59-.06.1-.16.36-.49.67l-.09-.03-.59.79-1.48.91c-1.95.99.14-.46-2.68,1.05-1.03.6-2.85,1.84-2.43,1.68.42-.23,1.1-.54,1.17-.48l-.93.56c-.05.32-.66.95,1.77-.17l1.56-1.03.58-.18-1.37.76c.83-.32,1.28-.68,1.8-1.04.16-.01.41-.1.75-.25l1.49-1.09c.12-.01-.02.11-.07.19-.03.04-.04.07,0,.06.08-.02.07,0,.46-.2.05-.05.13-.15.23-.25.47-.73-.7.48.16-.65.66-.6.57-.35,1.17-1.21.14-.07.03.13-.21.46.54-.76,1.56-1.9,1.77-2.35.26-.22.59-.6.91-.98.16-.19.32-.38.47-.55.07-.09.15-.17.21-.24.06-.07.06-.06.09-.09.05,0,.28-.05.26.03.25-.16,1.46-.76,2.26-1.08-1.35.83,2.99-1.13,2.72-.7,1-.6,3.81-1.71,5.62-2.69-.1.07-.28.2-.46.26,1.06-.45,1.4-.52,2.09-.77.03-.14.5-.43,1.12-.77.49-.32.98-.64,1.35-.91,1.34-.49-.63.63-.15.59-.15-.12,2.07-1.33,1.58-1.22,1.01-.4.85-.39,1.42-.5.04-.33.86-.52,1.57-1.09.35-.15.56-.23.69-.27.11-.03.08.01.11.02.04.02-.03.03.12.03.16,0,.41-.02.84-.06.82.05-.7.2-.7.2ZM95.3,8.56h0c-.35-.04-.64-.08-.83-.11.17.02.41.05.83.11ZM98.65,9.05c-.4-.06-.9-.14-1.43-.22-.11-.07.03-.11.37-.05-.21,0,.64.16,1.07.27ZM91.68,6.94c.54.06.71.11.78.16-.24-.03-.52-.07-.88-.11h0s-.02.01-.02.01c0,0,.01,0,.02-.01.03-.02,0-.04.1-.04Z" fill="#202020" stroke-width="0"/><path d="M90.84,6.85c-.07-.03-.12-.04-.21-.07.1.05.19.1.29.15.07,0,.14.02.2.03-.09-.04-.19-.07-.27-.11Z" fill="#202020" stroke-width="0"/><path d="M4.05,86.49v.07s0-.11,0-.15c0,.05,0,.05,0,.08Z" fill="#202020" stroke-width="0"/><polygon points="133.91 37.79 133.94 37.77 133.8 37.51 133.91 37.79" fill="#202020" stroke-width="0"/><path d="M2.98,67.82s.04-.1.06-.24c-.01,0-.04.11-.06.24Z" fill="#202020" stroke-width="0"/><path d="M4.78,59.98l.4-1.08c-.17.47-.3.81-.4,1.08Z" fill="#202020" stroke-width="0"/><path d="M6.04,53.8c-.02-.08-.04-.11-.05-.13h0s.06.13.06.13Z" fill="#202020" stroke-width="0"/><path d="M39.11,137.79c.07.05.13.1.19.15.46.33.15.1-.19-.15Z" fill="#202020" stroke-width="0"/><path d="M16.56,119.05c.24.21.47.42.71.64-.36-.39-.64-.68-.71-.64Z" fill="#202020" stroke-width="0"/><path d="M70.35,143.88h0c.07,0,.13,0,.2.01h-.2Z" fill="#202020" stroke-width="0"/><path d="M18.24,120.72s-.07-.1-.09-.14c-.33-.38-.6-.64-.87-.89.27.29.55.6.86.9.04.05.07.09.11.13Z" fill="#202020" stroke-width="0"/><path d="M19.75,31.46l.16-.27s-.01-.02,0-.04l-.15.32Z" fill="#202020" stroke-width="0"/><path d="M19.91,31.14l.15-.3c-.07.14-.14.25-.15.3Z" fill="#202020" stroke-width="0"/><path d="M20.36,30.2l-.3.64c.12-.21.27-.48.3-.64Z" fill="#202020" stroke-width="0"/><path d="M14.6,38.09l-.03.11s.04-.08.03-.11Z" fill="#202020" stroke-width="0"/><path d="M12.79,39.85c.44-.41,1.17-.96,1.75-1.57l.03-.09c-.23.33-1.43,1.19-1.78,1.65Z" fill="#202020" stroke-width="0"/><path d="M6.43,47.99l.96-1.88c-.21.31-.5.71-.09-.16-1.31,2.32.36-.44-.86,2.05Z" fill="#202020" stroke-width="0"/><path d="M5.21,54.45c.07-1.13-.09,0-.12-.06-.01.72-.01.9.12.06Z" fill="#202020" stroke-width="0"/><path d="M5.39,101.1l-.16-.08c.23.85.05,0,.16.08Z" fill="#202020" stroke-width="0"/><polygon points="11.64 107.93 11.62 107.67 11.58 107.3 11.29 106.93 10.93 106.72 11.51 107.33 11.64 107.93" fill="#202020" stroke-width="0"/><polygon points="11.62 113.36 11.53 112.99 11.84 114.42 11.62 113.36" fill="#202020" stroke-width="0"/><path d="M79.57,145.39l-.27-.16c-.59.06-.7.26.27.16Z" fill="#202020" stroke-width="0"/><path d="M111.59,136.12c.28-.12.7-.37,1.21-.74.21-.24.28-.34.39-.5-.14.15-.29.31-.42.46-.55.37-.93.59-1.17.79Z" fill="#202020" stroke-width="0"/><polygon points="138.66 45.68 138.97 46.3 138.44 45.11 138.66 45.68" fill="#202020" stroke-width="0"/></svg>