<?xml version="1.0" encoding="UTF-8"?><svg id="Layer_1" xmlns="http://www.w3.org/2000/svg" viewBox="0 0 834.64 829.43"><path d="M781.75,418.1c.18,1.2.15.51-.28-2.8l-.4-2.34.68,5.13Z" fill="#414141" stroke-width="0"/><path d="M779.1,395.8c-.54-3.89-1.21-8.36-.99-5.83.57,3.85.71,4.77,1.32,8.91.43,3.31.7,5.78.59,5.23.18,1.17.63,5.15.92,6.92-.47-4.32-1.16-9.78-1.95-15.47-.13-1.23.05-.04.1.23Z" fill="#414141" stroke-width="0"/><path d="M628.74,119l1.62,1.34c-.43-.39-.98-.84-1.62-1.34Z" fill="#414141" stroke-width="0"/><path d="M441.05,52.3c1.54.05,2.19-.02,2.27-.11-1.43,0-2.61,0-2.27.11Z" fill="#414141" stroke-width="0"/><path d="M406.23,50.62c.74-.02,1.37-.04,2.04-.06-.78-.05-1.57-.05-2.04.06Z" fill="#414141" stroke-width="0"/><path d="M628.74,119l-4.16-3.45c-.46-.01,2.09,1.82,4.16,3.45Z" fill="#414141" stroke-width="0"/><path d="M772.27,351.35c.19,1.11.35,2.04.5,2.89-.15-.92-.3-1.8-.45-2.72-.01-.05-.03-.09-.05-.17Z" fill="#414141" stroke-width="0"/><path d="M695.23,178.33l1.01,1.29c.35.34.69.65,1.02.93l-2.04-2.22Z" fill="#414141" stroke-width="0"/><path d="M733.22,235.19c-.76-1.35-1.32-1.64-1.75-2.08.56.68,1.2,1.63,1.89,2.8.07,0,.03-.22-.15-.72Z" fill="#414141" stroke-width="0"/><path d="M770.27,336.15l.35,1.89c-.09-.49-.24-1.32-.35-1.89Z" fill="#414141" stroke-width="0"/><path d="M661.05,142.86c-.04-.14-.18-.36-.36-.55-.05.06.1.27.36.55Z" fill="#414141" stroke-width="0"/><path d="M772.08,496.54c0,.05.02-.02.02,0,.11-.38.14-.5-.02,0Z" fill="#414141" stroke-width="0"/><path d="M781.97,418.07l-.14,1.09c0,.12,0,.24.02.24l.12-1.33Z" fill="#414141" stroke-width="0"/><path d="M342.97,55.53c.12,0,.17-.01.28-.02,1.65-.3.71-.17-.28.02Z" fill="#414141" stroke-width="0"/><path d="M56.15,491.96c-.66-3.22.09-.66.76,1.5.7,2.15,1.28,3.9.15-.91.1.93-2.75-8.57-.92-.59Z" fill="#414141" stroke-width="0"/><path d="M772,349.6c-.15-.91-.29-1.84-.44-2.77.2,1.26.34,2.11.44,2.77Z" fill="#414141" stroke-width="0"/><path d="M57.07,492.54h0s-.22-1-.22-1c.09.41.14.65.22,1Z" fill="#414141" stroke-width="0"/><path d="M207.96,110.4c.33-.06.86-.31,1.41-.58-.09-.04-.42.07-1.41.58Z" fill="#414141" stroke-width="0"/><path d="M306.66,64.12l-2.66.39c1.06-.12,1.92-.26,2.66-.39Z" fill="#414141" stroke-width="0"/><path d="M165.42,147.74c-1.09.97-1.52,1.24-2.88,2.71.16-.1.31-.21.5-.35.44-.58,1.1-1.29,2.38-2.35Z" fill="#414141" stroke-width="0"/><path d="M125.12,190.55c.24-.2.54-.49.81-.73.36-.45.79-.98,1.16-1.45l-1.98,2.17Z" fill="#414141" stroke-width="0"/><path d="M691.58,653.01c.9-.93,1.5-1.47,2-1.88-.82.51,4.39-6.33-2,1.88Z" fill="#414141" stroke-width="0"/><path d="M772.33,351.31c-.08-.33-.18-.83-.32-1.71.11.66.21,1.3.31,1.92.04.17.07.2.01-.21Z" fill="#414141" stroke-width="0"/><path d="M168.01,154.06l-6.77,6.34c1.92-1.74,4.38-4.05,6.77-6.34Z" fill="#414141" stroke-width="0"/><path d="M312.64,764.67l2.07.52c-.79-.24-1.52-.43-2.07-.52Z" fill="#414141" stroke-width="0"/><path d="M142.22,179.76c-1.29,1.09-2.55,2.33-3.81,3.65-.2.33-.45.7-.55.95l4.35-4.6Z" fill="#414141" stroke-width="0"/><path d="M693.59,651.12s-.02.01-.02.01c0,0,0,0,.02-.01Z" fill="#414141" stroke-width="0"/><path d="M729.78,601.69c-5.28,7.12-2.13,3.6-3.05,5.26-6.15,8.61-3.16,3.76-5.48,6.52-3.83,5.38-6.46,9.73-9.39,13.7-.28.25-.88,1-.3.03-1.85,2.97-5.09,7.03-8.34,11.24-3.26,4.21-6.6,8.54-8.86,11.94-.41.45-.64.66-.77.75,1.05-.86,1.42-.83,1.43-.49-2.42,3.15-4.19,6.08-5.43,7.02,1.5-1.92,1.49-2.18,2.09-3.16l-2.41,3.4c-2.77,2.6,3.32-4.62,2.98-4.88-1.2,1.64-2.45,3.35-3.7,5.06-.61.85-1.23,1.7-1.84,2.55-.04.07-.08.11-.16.19l-.28.28-.56.56c-.37.37-.75.74-1.12,1.1-2.96,2.92-5.78,5.65-8.12,7.7-1.39.42,10.55-10.02,4.07-4.8l3.62-3.17,1.81-1.59.42-.37c.07-.06.1-.11.26-.3l.76-.93c-.65.64-1.14,1.16-1.2,1.09-.29.18-.41.24-.39.18,0-.03.05-.08.12-.15.05-.05.11-.11.19-.19.15-.19.33-.42.52-.66.95-1.21,1.95-2.47-.53-.12-.11.14-.22.27-.33.41-.04.04.02-.02-.17.15-.28.25-.55.49-.81.73-.53.48-1.03.93-1.5,1.35-.94.86-1.79,1.64-2.57,2.36-1.54,1.46-2.82,2.67-4.11,3.89-2.56,2.44-5.1,4.89-9.82,9.08-1.85,2.2,1.06-.23-.78,1.97-3.19,3.17-5.5,5.28-7.32,6.8-1.88,1.46-3.25,2.35-4.51,3.15-2.51,1.6-4.56,2.82-9.27,7.46-2.28,2.58-2.65,4.16-10.12,9.9l1.87-2.73c-2.35,1.97-3.8,3.3-4.82,4.31-.51.5-.91.93-1.26,1.31-.17.19-.34.38-.49.55l-.22.26-.07.13-.1.11c-.09.07-.19.14-.28.21-.19.14-.4.29-.61.45-.44.31-.95.65-1.59,1.04-1.28.79-3.1,1.81-5.96,3.28,1.8-1.45,8.21-5.07,6.54-4.24-7.57,3.53-4.85,3.38-10.39,6.58l-1.56-.04c-5.63,3.31-11.48,6.9-17.48,10.58-6.02,3.65-12.22,7.34-18.47,10.97.57-.62,2.59-2.08-.49-.65-3.92,2.34-8,4.69-12.16,7.05-1.04.58-2.08,1.17-3.12,1.76,0,.03-.76.29-1.29.5l-1.69.63c-2.26.83-4.52,1.67-6.78,2.5-9.05,3.29-18.05,6.5-26.35,9.32l-6.15,2.72c-1.49.45-2.88.51-1.32-.13-6.63,1.73-.18.58-3.22,1.84-3.7,1.2-5.06,1.08-2.78.13-2.83,1.05-6.27,2.29-10.04,3.61-1.89.65-3.85,1.33-5.85,2.03-1.92.65-3.88,1.31-5.84,1.97-.99.08-1.97.16-2.96.24-1.08.08-2.16.16-3.23.24-2.14.15-4.25.28-6.29.39-4.07.22-7.86.35-11.06.35l2.47-.39c-9.93.3-11.09,2.35-20.32,2.13l1.75-.23c-10.76.41-22.06,1.12-32.74,1.69-2.67.18-5.3.21-7.88.23-2.58.01-5.09.02-7.53.03-4.88,0-9.45-.08-13.56-.27-1.55.54-6.88.53-11.99.56h-.48c-.07,0-.12,0-.19-.01-.3-.04-.59-.08-.89-.12-.62-.08-1.23-.16-1.82-.23-1.18-.15-2.29-.27-3.26-.35-1.95-.17-3.35-.18-3.74.12-12.13-2.19-8.6-1.99-25.75-4.51-.57-.08-1.11-.14-1.63-.18l-.38-.03h-.19s-.09-.02-.09-.02h-.02s-.05.01-.07,0c0,0-.05,0-.12-.02l-.18-.04c-.94-.19-1.83-.34-2.76-.49-1.85-.3-3.84-.62-6.61-1.35l.04-.65-7.66-1.5-3.77-1.84-5.21-1.31c2.05.62,4.3,1.5,3.94,1.58-4.07-1.02-8.96-2.52-12.84-3.81-.49-.16-.96-.32-1.41-.47l-.33-.11c-.09-.03-.03-.02-.17-.08-.21-.09-.41-.18-.61-.26-.79-.35-1.49-.67-2.08-.93-1.17-.54-1.88-.9-1.91-.99l-18.75-6.46c.49-.04,3.63,1.04,6.14,1.82-10.12-3.17-1.6-1.18-10.87-4.08,1.18.56-.77.04-1.02.06-1.1-.49-2.58-1.1-4.29-1.78-.85-.34-1.77-.68-2.72-1.08-.94-.4-1.92-.82-2.93-1.25-4.02-1.71-8.45-3.52-12.23-5.04l1.56.31c-6.77-2.87-13.93-5.82-21.3-8.85l-.11-.05-.18-.12-.62-.43-1.23-.86c-.82-.57-1.65-1.15-2.48-1.72-1.66-1.15-3.32-2.31-4.99-3.48-3.34-2.34-6.71-4.7-10.08-7.06,4.76,3.51,3.37,3.1-.6.34l-1.34-1.44c-2.7-1.61,4.04,3.04-1.38-.42-5-3.6-3.11-2.75-.14-.81l-6.2-4.21c-.29-.34,1.18.62,1.65.77-2.79-1.4-9.98-8.21-13.69-10.67l-.26-.35c-6.41-5.18-11.08-8.94-15.44-12.46-1.09-.88-2.17-1.74-3.25-2.61l-.81-.65-.67-.64c-.51-.48-1.02-.97-1.53-1.46-2.06-1.97-4.22-4.04-6.65-6.36-.38.02-4.13-3.68-7.16-6.3-3.52-3.47-7.22-7.14-11.11-10.98l-.37-.36c-.12-.12-.28-.27-.27-.28l-.63-.81c-.42-.55-.85-1.09-1.28-1.65-.86-1.1-1.73-2.22-2.61-3.34-1.77-2.25-3.57-4.54-5.41-6.88-5.29-6.49-1.69-1.78-4.14-4.64-.2-.63-7.59-9.95-3.63-5.21-2.22-2.8-4.04-5.09-5.7-7.18l-.25-.31-.27-.41c-.18-.27-.35-.54-.53-.81-.35-.54-.69-1.06-1.03-1.58-.68-1.05-1.35-2.08-2.04-3.13-2.76-4.21-5.78-8.82-10.74-16.37.98,1.7,2.14,3.58,1.45,2.66-1.81-2.74-3.95-6.33-3.6-5.99l.49.72c-1.41-2.11-2.85-4.31-4.32-6.58-1.4-2.31-2.74-4.72-4.13-7.15-2.73-4.88-5.53-9.87-8.27-14.75-1.36-2.44-2.71-4.86-4.02-7.21-.66-1.18-1.31-2.34-1.95-3.49l-.48-.85-.21-.38s-.01-.03-.02-.04l-.06-.21c-.19-.62-.38-1.23-.57-1.84-1.5-4.85-2.93-9.31-4.27-13.12l.3.86-5.3-15.89c-2.27-7.36,1.58,4.35.03-1.14-.71-2.14-1.45-4.15-2.01-6.12-.55-1.97-1.07-3.85-1.57-5.65-.96-3.63-1.85-6.98-2.71-10.23-1.7-6.52-3.26-12.66-5.34-19.8-.93-5.71-3.35-15.64-5.95-26.03-.65-2.6-1.31-5.23-1.96-7.83-.31-1.27-.63-2.53-.94-3.77-.02-1.21-.03-2.4-.05-3.58-.05-5.12-.05-9.87.09-13.76l-.26.9c-.31-4.01.1-4.86.13-7.83-.21.42-.2,4.37-.38,1.87-.08-4.26-.15-8.55-.23-12.86l-.04-3.08.36-3.16c.25-2.16.5-4.32.75-6.49,1.02-8.67,2.09-17.43,3.2-26.2,1.03-8.78,2.07-17.59,3.1-26.38.52-4.39,1.03-8.78,1.54-13.15l.08-.67h0s0-.01,0-.01l.02-.09.1-.4.42-1.59.83-3.18c.55-2.12,1.1-4.24,1.65-6.35,3.18-12.37-.22-7.5,4.52-22.92l-.37,4.61c.34-1.58.68-3.15,1.01-4.74l.5-2.27s0-.07.02-.1c0-.02,0,0,.02-.04l.07-.14.13-.27.53-1.1c1.44-2.91,2.9-5.84,4.35-8.77,2.94-5.84,5.94-11.69,8.93-17.52l2.25-4.37.56-1.09.28-.55c.05-.07.34-.7.36-.77l.95-2.26c1.25-3.01,2.5-6.01,3.75-9,2.46-5.99,4.85-11.94,7.08-17.84-.4,1.46-.18,1.6-1.13,3.87.66-1.17,1.46-2.89,2.29-4.82.42-.96.84-1.98,1.25-3,.2-.51.41-1.03.61-1.54.03-.08.04-.1.04-.1v-.03s.02-.04.03-.05c-.04.05.2-.31.33-.49,2.4-3.53,4.3-6.62,4.12-6.81,2.35-3.15.91-.47,2.55-2.27,3.45-4.1,7.22-11.33,9.4-13.26.37-.33-.71,1.34-1.25,2.16.9-1.5,3.3-4.77,5.15-7.39.46-.66.89-1.27,1.26-1.8.18-.27.34-.52.49-.74.03-.05.09-.13.09-.14v-.03s.08-.11.13-.18c.45-.64.47-.85-.21-.33,6.4-6.98,11.47-14.02,16.7-19.49,1.27-2.15,3.97-5.17,6.36-7.9.3-.34.59-.68.88-1.01.11-.13.23-.26.34-.39.11-.1.21-.21.32-.31.59-.57,1.14-1.11,1.6-1.6.93-.98,1.54-1.78,1.61-2.27.39,1.38,12.64-10.72,16.53-15.31-1.18,1.67,4.02-3.3,2.7-1.28,1.22-1.18,2.41-2.35,3.49-3.43.53-.55,1.04-1.06,1.52-1.55.49-.47.95-.9,1.36-1.29,1.63-1.57,2.44-2.56,1.76-2.43,10.61-6.95,18.37-17.32,25.09-20.36l.7-.64c.12-.1.04-.05.12-.12l.37-.29,1.49-1.16c.99-.77,1.98-1.54,2.96-2.31,1.97-1.53,3.92-3.04,5.86-4.55,3.88-2.99,7.7-5.94,11.46-8.85,1.89-1.45,3.76-2.89,5.63-4.31l1.4-1.07.7-.53c.15-.11.13-.1.19-.15.04-.04.1-.07.15-.1,1.01-.49,2.01-.99,3.02-1.48,4.17-2.02,8.3-4.03,12.39-6.02-.01.77-4.57,2.91-8.96,4.97-2.19,1.03-4.35,2.05-5.87,2.87-.09.05-.18.1-.26.15l-.07.06s-.07.09-.1.13c0,0-.06.06-.12.12-.06.06-.11.11-.16.16-.1.1-.19.2-.27.29-.31.36-.41.6-.22.69l.64-.5c.19-.15.5-.38.45-.36.02-.02.03-.04.05-.05l.03-.02s0-.01.09-.05l.69-.35c.91-.47,1.81-.92,2.68-1.37,1.74-.9,3.4-1.77,5.02-2.6,3.22-1.69,6.24-3.27,9.25-4.85,3.02-1.57,6.04-3.11,9.29-4.7,3.27-1.55,6.68-3.31,10.75-4.68,4.21-1.42-2.11,1.48-3.41,2.24,7.93-3.38,15.72-6.36,23.28-9.28,3.78-1.46,7.5-2.9,11.15-4.37l.68-.28.19-.08s.08-.04.12-.04l1.23-.26c.96-.21,1.91-.41,2.86-.62,1.9-.42,3.78-.85,5.65-1.31-.02.14-1.62.59-3.13.99,2.96-.61,6.95-1.11,6.5-1.69l-2.87.73c-4.92-.03,11.46-4.21,11.91-4.81-4.73,2.82,14.99-2.38,7.36,1.51,1.93-.5,4.34-1.27,3.82-1.62,2.92-.43,3.88-.35,1.02.71,1.32-.29,2.42-.58,3.35-.77.93-.17,1.69-.31,2.34-.45,1.29-.27,2.1-.49,2.89-.69,1.57-.41,3.03-.75,7.9-1.33,0,.32-1.94.68-2.89,1.17,4.84-1.2,9.72-2.42,17.98-3.14-.47.25.51.39-1.95.68,3.53-.45,6.79-.96,9.93-1.49,1.57-.31,3.14-.41,4.68-.63,1.55-.19,3.09-.38,4.64-.57,6.21-.75,12.61-1.41,20.44-1.64-4.5,1.69,5.35.1,6.26,1.24l2.09-.23,1.05-.12c.39-.04.18-.05.68-.04l4.21.02-3.34-.74c7.36.37,13.92-.19,20.23.5l-5.5.23,13.82.43-7.78-.82c7.49-.26-.71-1.54,9.09-.74-1,.01.84.1,3.41.3,1.28.11,2.75.2,4.13.4,1.38.22,2.67.46,3.61.72h-.03c3.66-.04,7.43-.08,12.84.71,1.38.5-1.24,1.18-.34,1.52,1.83-.32,6.14,0,10.56.34,2.21.17,4.46.33,6.44.42.99.04,1.91.07,2.74.06.41,0,.8-.01,1.15-.03.31,0,.54-.1.78-.05-.3-.06-.54.07-.71.12-.22.07-.37.16-.45.25-.17.18-.08.37.17.46.3-.04.4-.09.58-.14.17-.04.33-.03.53-.04l1.56.14c3.14,1.38,3.57,1.66,2.89,1.93,9.65,3.57-2.59-2.46,8.71,2.21-.92-.26-.53,0-2.45-.56,5.73,2.2,11.35,4.07,16.85,5.9,2.76.93,5.5,1.86,8.21,2.78,2.87.74,5.52,1.46,8.24,2.28,2.93,1.93-9.59-2.25-6.15-.36,7.88,1.97,16.1,3.79,24.24,5.65,2.03.47,4.06.94,6.08,1.41,1.01.24,2.02.48,3.02.72l1.4.34c.18.02.3.13.48.2l.69.34c3.66,1.84,7.24,3.7,10.7,5.58l-2.54-1.46c2.62-.3,10.03,6.09,17.4,9.16-1.77-.81-2.64-.47-2.1-.37,2.36,1.3,4.77,2.56,7.29,3.84.58.29,1.16.59,1.75.89.55.39,1.11.79,1.67,1.19,1.2.85,2.44,1.71,3.7,2.61,5.09,3.55,10.74,7.49,17.44,12.15l-1.83-.93c2.46,2.01,5.79,4.53,9.18,7.07,3.38,2.56,6.8,5.17,9.5,7.29,1.82.97,4.91,3.37,3.29,1.57,3.94,3.55,7.96,6.78,12,9.84,2.02,1.53,4.03,3.02,6.05,4.48.31.2.81.73,1.25,1.13l1.35,1.26c.9.84,1.8,1.68,2.7,2.51,7.18,6.65,14.12,13.12,20.4,20.1-1.61-1.56-3.98-3.57-2.71-2.33l2.9,2.74,1.44,1.36c.09.09.35.41.55.65l.64.77,5.09,6.16c-.47-1.24-1.12-1.78-2.96-4.6,1.45,1.43,4.41,4.84,6.87,7.94-4.68-5.46-.46.45,1.32,3-.23-.48.53.27.46-.01,4.68,6.94,1.47.62,8.21,9.81l-.52-.35c1.38,1.62,2.71,3.19,4.06,4.78.33.4.69.8,1,1.2.28.45.56.9.85,1.36.57.92,1.14,1.87,1.72,2.86.64,1.83-2.48-3.81-2.91-3.89,3.35,5.52,7.15,10.57,9.83,15.78-1.49-2.3-3.52-5.69-5.01-7.99,2.89,5.68,3.38,6.25,5.75,10.34l-.23-.4,5.48,9.46-1.35-2.44c4.92,6.48,8.54,14.07,14.44,23.23-5.71-8.92-1.11-1.38-1.78-1.92,1.33,2.44,3.39,6.13,2.71,5.14,2.81,4.32,4.2,7.49,8.16,13.59.02.08.21.42.46.86.17.28.18.31.3.66.1.28.2.57.3.85.4,1.12.71,2.08.41,1.57,2.39,6.25-.42-1.53-.12-1.04,1.92,4.79,3.93,10.5,6.16,16.74,1.13,3.11,2.31,6.36,3.52,9.7.62,1.66,1.25,3.35,1.89,5.06.32.85.65,1.71.98,2.56.05.13.07.16.08.25l.07.34.13.68.27,1.36c2.38,12.57,2.97,14.87,5.11,26.54.62,3.96-.75-3.2-.75-3.2,1.04,6.38,2,11.15,2.94,17.16-.23-1.21-.06.05.18,1.89.78,4.82.66,3.2,1.6,9.58-.21-1.09-.51-2.48-.92-4.8.94,5.68,1.88,11.29,2.86,17.17.19,1.57-.65-3.54-1.02-5.61.54,3.31,1.23,7.59,1.84,11.3.65,3.71.99,6.87,1.19,7.89l-.51-4.27c.31,2.42.08,1.26-.16-.53-.96-5.66-1.25-8.19-1.27-8.51l.68,4.19c-.47-4.34-2.67-16.84-4-25.28l.72,3.49-1.5-8.64c-.24-1.85-.33-3.13.34,1.04-.84-6.07-.94-5.34-1.73-10.55-.08-.57-.03-.32.07.21l-1.1-5.89c.25,1.15-.03-1.01.58,2.62-1.72-10.61-3.16-17.04-3.68-21.06l.17.88c-.66-3.67-1.02-5.59-1.22-6.58-.2-.99-.24-1.05-.26-.99-.12.13.28.61-1.82-4.58l-2.09-7.25-.7-1.31c-.52-1.45-1.54-4.32-1.26-3.82-2.09-5.33.24.95-1.03-2.12-1.17-3.51-2.93-8.3-4.43-12.43-.75-2.07-1.43-3.97-1.97-5.46-.76-1.38-1.27-2.38-1.39-2.8-1.51-2.2,3.41,6.21-.68-.56-.71-2.19-4.65-7.87-7.83-13.84,1.28,1.66,4.34,7.29,1.18,1.3-2.44-3.3-6.47-11.47-9.38-16.38-.47-.03-6.45-10.6-11.44-18.77.22.22-2.01-3.69-4.83-8.64-.71-1.24-1.45-2.54-2.2-3.85-.38-.66-.75-1.32-1.13-1.98l-.28-.49-.15-.26c-.06-.11-.13-.22-.21-.31-.23-.3-.46-.6-.69-.9-1.81-2.38-3.52-4.64-4.86-6.41l.24.15c-1.52-1-7.12-8.28-11.37-13.45.46-.03,1.32.82,3.69,3.57l-3.88-4.95c-1.08-1.04-2.37-2.51-4.96-5.67l1.36.94c-.65-.82-1.31-1.64-1.97-2.46l-.5-.61-.26-.32c-.11-.15-.27-.32-.37-.4-.38-.37-.77-.73-1.16-1.1-1.55-1.47-3.14-2.97-4.78-4.53-3.27-3.11-6.73-6.46-10.41-10.39-.81-.05,5.09,7.04-3.27-.7-.1-.5-.06-1.14,2.14.87-.72-.66-2.64-2.28-3.95-3.75l3.57,2.86c-3.33-3.6-2.1-1.52-4.86-4.31.35-.24-1.85-2.25-1.22-2.09.74.68,2.31,2.53,3.48,3.48-1.54-1.58-3.22-3.36-4.63-4.93-.72-.81-1.38-1.56-1.94-2.2-.33-.31-.63-.59-.89-.84-.23-.23-.43-.43-.58-.6.16.43-.35.46-2.95-1.47-6.66-5.07-1.95-2.16-5.68-5.33-1.79-.99-5.82-4.51-6.35-4.05-1.94-1.5-2.11-2.03-2.74-2.75-3.61-2.41-16.1-12.26-12.69-8.67l.86.71c-.17-.12-.37-.26-.59-.4l.03.02-.03-.02c-5.89-3.98-11.74-8.47-17.52-13.02-2.9-2.27-5.79-4.54-8.65-6.79-.72-.55-1.44-1.11-2.16-1.66l-1.08-.82c-.19-.14-.44-.36-.69-.47l-.62-.33c-1.58-.84-3.17-1.66-4.74-2.45l.15-.23c-7.57-3.67-16.62-8.61-22.21-10.89-2.2-1.16-4.95-3.2-3.85-3-.73-.35-1.37-.66-1.96-.95-.19-.09-.38-.18-.57-.27-.19-.07-.39-.1-.58-.15-.3-.07-.59-.13-.87-.19-1.09-.24-2.05-.45-3.09-.7-2.08-.51-4.49-1.19-8.91-2.62,6.37,1.19-2.04-1.01,6.49,1.36-8-2.4-9.71-3.35-18.57-4.9,3.14.07-5.83-2.54-9.72-3.36l5.51,2.04c-2.17-.52-4.19-1.06-6.15-1.59l-.73-.2-.36-.1c-.07-.02-.14-.04-.21-.07-.47-.17-.94-.35-1.4-.52-.93-.35-1.85-.7-2.78-1.05l2.35-.22c-7.84-3.46-15.26-5.58-22.18-7.61-3.46-1.02-6.79-2.01-9.97-3.15l-1.19-.43-.82-.3c-.29-.14-.61-.1-.92-.16l-1.31-.17-1.23-.19c-1.64-.27-3.26-.6-4.85-1.01-4.57.29,9.21,1.38,5.1,1.84-7.82-.87-15.86-3.13-18.32-3.37-5.35-.8-7.89-.66-10.48-.5-1.3.08-2.61.17-4.3.14-.85,0-1.78-.07-2.86-.12-1.08-.03-2.3-.11-3.71-.22,1.42.45,2.71,1.51-5.73,1.46-7.85-.52-9.57-2.05-4.58-2.11,1.89.06,2.79.23,2.7.35,2.55-.01,5.9,0,2.81-.57l-1.05.33c-3.88-.58-14.71-1.07-12.13-1.57-5.97.07-2.58.5,1.82.91-5.03-.52-8.98-.72-12.96-.9-1-.04-1.99-.09-3.01-.13-.51-.02-1.02-.05-1.54-.07l-.5-.02c-.21-.02-.42.01-.62.02-.27.02-.54.03-.81.05-2.15.13-4.45.25-7.06.32,1.67.1,3.22.45,1.58.55-15.26.54-6.65,1.17-16.95,2.02-5.91-.19,1.98-1.53-8.36-.35-6.38.03-1.44-.92,1.06-1.4-2.35.34-4.64.55-6.82.69-2.19.16-4.28.39-6.24.49-3.93.24-7.38.31-10.09.57l4.95-.91c-2.96.54-5.41.83-7.89,1.12l2.94.42c-2.94.22-5.42.51-5.4.19-2.95.86,2.46.99-3.42,2.38-3.95.08-11.78,1.84-13.28,1,12.3-1.14-1.51-.84,8.85-2.26-1.99.36-4.43.65-7.38.87-.46-.06.38-.26,1.18-.41-1.48.07-2.68.13-3.66.24-.97.15-1.72.3-2.33.45-1.22.3-1.87.6-2.53.93-1.32.66-2.68,1.43-8.67,2.57,1.43-.86-2.96-.53-4.9-.03,4.84-.92,2.47.49-1.88,1.77-7.76,1.04-8.3,1.93-12.33,2.65l4.63-.68c-.73.43-2.05.81-3.86,1.23-.91.2-1.93.43-3.06.68-.57.12-1.16.25-1.78.39-.33.07-.81.15-1.19.35-.31.13-.63.27-.96.41-.15-.06.06-.22.42-.42.09-.05.19-.1.3-.15.15-.07.31-.14.47-.21.3-.14.78-.2.98-.26,1.03-.24,1.88-.42.9-.33-.36.13-.73.25-1.1.37-.25.08-.53.11-.78.23l-.67.3c-.73.33-1.5.64-2.3.93-1.6.58-3.31,1.1-5.09,1.64-3.57,1.08-7.44,2.23-11.25,4.07-3.79,1.07-.75-.84-4.05.18-4.27,2.06-6.73,2.82-9.26,3.59-1.26.38-2.54.77-4.07,1.32-1.49.63-3.22,1.47-5.42,2.65,2.9-.53,3.28-.9-2.79,2.71l7.31-3.69c1.2-.65,2.48-1.14,3.72-1.69l3.76-1.61c-3.11,1.62-6.27,3.14-9.26,5.03,1.12-.51,2.26-1.08,3.38-1.64,1.15-.5,2.28-1,3.36-1.47,2.15-.95,4.08-1.8,5.48-2.28-4.42,2.38-4.01,2.02-1.57,1.74-1.68.35-3.28.87-4.86,1.49-.79.31-1.57.63-2.35.98-.76.4-1.52.81-2.29,1.21-3.07,1.65-6.24,3.4-9.93,4.7l-.52-1.78c-5.49,2.1-10.12,4.52-15.13,7.16-1.25.66-2.53,1.33-3.85,2.02-.66.34-1.33.69-2.01,1.04-.34.17-.69.35-1.04.53l-.67.33c-.29.11-.52.33-.77.51-.65.49-1.31,1-1.98,1.51-.66.49-1.34,1-2.03,1.51-1.39,1.02-2.86,2.07-4.43,3.15l4.13-2.64c-1.23,1.78-7.52,5.63-11.32,8.77.02-.75-2.59.89-4.5,1.84.46.2-9,6.55-9.42,8.31l-.74.42c-.12.07-.34.2-.49.32l-.36.25-1.42.96-2.83,1.93c-9.54,7.79-9.56,10.39-18.65,17.93,2.29-2.78-2.06.42,3.65-5.08-3,2.57-5.76,4.81-5.54,5.14-.5.31-1.23.95-2.1,1.76-.87.82-1.91,1.77-2.87,2.87-1.97,2.15-4.07,4.39-5.56,5.45-1.03,1.34-1.02,2.15-4.23,5.2-.42.25-.18-.21-.18-.21.18.22-4.72,5.1-1.52,2.86-2.48,1.79-5.24,4.18-8.12,6.84-1.44,1.33-2.91,2.73-4.39,4.16l-1.11,1.08-.56.54c-.15.13-.49.49-.63.68l-1.99,2.39c-5.29,6.38-10.44,12.62-14.39,16.19-1.35,1.67-2.77,3.43-4.22,5.22-.73.89-1.46,1.8-2.19,2.7l-1.1,1.35-.55.68-.14.17c-.06.08-.13.16-.19.24l-.28.4c-2.67,3.8-5.28,7.52-7.52,10.71.16-.5-.2-.17.71-1.34-6.67,8.47-2.64,6.26-10.24,15.89-4.33,4.6,3.43-5.55.9-2.56-1.19.19-3.29,3.23-5.8,6.99-.18.27-.37.55-.56.82l-.18.27-.12.31-.21.55c-.21.55-.41,1.11-.62,1.67-.42,1.12-.86,2.26-1.31,3.38-.9,2.24-1.86,4.4-2.86,6.22l.67-1.89c-2.9,5.62-5.25,14.47-9.26,23.96,0,0,.06-.52-.2-.15-.12.43-.25.87-.39,1.34-.06.19-.11.39-.17.59-.09.24-.19.48-.29.72-.41.98-.85,2.03-1.31,3.14-.95,2.21-2.03,4.61-3.16,7.09-2.28,4.96-4.78,10.2-6.91,14.68.86-3.02,1.74-4.16.36-2.75-1.91,4.01,1.45-.72-2.39,7.27-.4.61-.89,1.41-1.42,2.29-.26.44-.54.89-.82,1.34l-.42.7c-.19.27-.29.59-.38.9-.66,1.97-1.29,3.68-1.69,4.02l.94-4.07.16-.69c.07-.23.23-.49.31-.67l.46-.94.93-1.87c-.33.43-.65.91-.97,1.42-.15.26-.31.52-.47.79l-.23.41-.32.61c-.09.23-.14.48-.2.73l-.12.48c-.07.32-.15.64-.23.97-.14.66-.28,1.32-.42,1.99-.53,2.67-.99,5.37-1.56,7.5l-.21-.63c-2.8,12.51-2.02,12.88-5.25,26.27l.57-1.33c-.06.47-.12.9-.18,1.31-.03.2-.06.4-.09.58-.04.19-.07.44-.07.64-.02.7-.06,1.3-.1,1.83-.09,1.06-.23,1.84-.37,2.61-.28,1.56-.59,3.11-.64,6.87l-.99,2.19c-.26,4.96-.82,17.4-1.55,26.27-.03-5.07.6-15.48.84-21.94-.45,4.9-1.43,16.67-1.31,19.26.11-1.98.15-4.49.44-6.43.08,6.08-.5,14-1.54,23.76-.58-.93-1.32,5.42-2.13,12.87-.2,1.86-.41,3.8-.62,5.7-.11.95-.21,1.9-.32,2.82l-.05.41c0,.18,0,.36,0,.45v.69c0,.46.01.91.01,1.35.01,3.53-.04,6.58-.22,8.36.44,8.67.59,17.28.72,26.24l.03,1.85c.15.6.3,1.21.44,1.82.27,1.1.54,2.21.82,3.32.55,2.23,1.11,4.48,1.67,6.77,1.14,4.58,2.32,9.29,3.6,14.18-1.03-7.14,1.49,5.71,1.93,4.32,1.21,4.55,1.63,6.3,1.69,6.72l3.34,13.89c.7,3.32-1.34-4.28-1.39-3.82,2.69,9.97.86,4.26,2.5,10.89-.13-1.42,1.3,3.36,2.78,9.06l-1.9-8.07c4.23,13.79,2.55,12.24,7.42,25.96l-1.61-4.32c1.17,3.54,3.32,10.08,5.47,16.6,1.09,3.25,2.18,6.5,3.14,9.37.5,1.43.97,2.76,1.38,3.95.05.15.11.29.16.44.05.12.07.25.15.36l.16.26c.16.25.31.49.46.72.3.46.58.88.83,1.27.6,1.18,1.34,2.76-.35-.05,4.45,7.72,9.54,16.23,14.35,24.34,1.2,2.03,2.38,4.03,3.54,5.98,1.18,1.94,2.44,3.76,3.59,5.57,2.33,3.59,4.46,6.93,6.28,9.87l-.85-1.06c1.84,2.77,3.35,4.73,5.49,8.3-.16-.15-.84-1.05-.01.24.49.73,1.73,2.56,3.15,4.66.7,1.06,1.45,2.19,2.17,3.28.36.55.7,1.09,1.04,1.61l.25.39c.16.24.23.3.32.43.18.23.35.46.52.68l-.61-.72-.16-.19s-.08-.1-.12-.16l-.07-.1-.27-.39-1.08-1.54c.29.46.58.91.86,1.36l.42.66c.24.37.36.48.53.71.63.81,1.25,1.59,1.85,2.36,1.21,1.52,2.36,2.97,3.46,4.36,2.23,2.75,4.28,5.27,6.27,7.72,4.02,4.91,7.82,9.54,12.46,15.2-.16.13,2.19,2.61,5.18,5.65,3.01,3.02,6.63,6.65,9.04,9.07l-.21-.12c3.63,3.53,6.98,6.79,10.18,9.9.8.77,1.6,1.54,2.39,2.29l.15.14c.07.08.21.19.24.21l.32.26.63.51c.42.34.84.68,1.26,1.02,1.67,1.35,3.32,2.68,4.96,4,6.56,5.27,12.97,10.42,20.28,16.29,2.09,2.05,5.29,4.32,8.92,7.04,3.66,2.68,7.81,5.73,12.14,8.9,2.17,1.58,4.39,3.2,6.61,4.81,1.11.81,2.22,1.62,3.33,2.43l1.66,1.21.41.3.21.16.37.26,1.08.48c4.96,2.19,9.74,4.33,13.99,6.3-2.58-1.25.62-.28,3.7.99,3.97,1.88,11.31,4.4,10.43,4.71l-1.43-.64c1.4.95,4.18,2.29,7.42,3.75,3.28,1.35,7.05,2.76,10.32,4.05l1.41-.41c4.18,1.96,9.09,4.02,14.25,6.06,2.58,1.02,5.22,2.04,7.86,3.04l1.98.75.53.2c.33.12.46.14.63.19l1.01.29c1.35.39,2.69.77,4.01,1.15,10.59,3.02,20.2,5.68,24.81,7.81,1.08.25,2.22.54,3.39.85.58.16,1.18.31,1.77.47l.9.24.49.13c.25.08.51.13.77.15,2.48.27,4.94.54,7.14.69l-.31.58c6.09.9,10.65,1.58,15.58,2.31,2.47.34,5.02.69,7.9,1.09,1.44.19,2.96.39,4.6.61.82.11,1.66.21,2.54.33l.38.05c.2.02.4.06.61.05.26,0,.53,0,.8-.01.46,0,.93-.02,1.4-.02l-1.55.25-.39.06c-.24.02-.49.05-.74.03l-.34-.02h-.2s-.39,0-.39,0c.32.04.63.08.93.13.25.04.49.03.73.02h.37c.49-.03.96-.05,1.41-.08.9-.06,1.72-.14,2.49-.23,1.54-.19,2.87-.45,4.18-.71,2.62-.52,5.15-1.06,9.11-1.13l2.41,1.01c3.75-.04,7.51-.02,11.27.01,3.76.03,7.53.13,11.29-.05,7.52-.24,15.02-.6,22.39-1.46-.23.17-.66.51-3.08.67,3.53-.16,10.36-.28,15.98-.59,5.61-.33,10-.8,8.68-1.5.23.99,15.43-.83,23.48-1.77l-1.21.83c1.69-.35,2.97-.62,4.09-.85.28-.06.55-.11.81-.17.1-.03.33-.05.52-.09.19-.04.39-.03.57-.13l.54-.22.36-.16c.24-.1.47-.21.72-.31,1.94-.83,4.24-1.67,8.76-3.2,2.19-.57,2.08,0-.85.69,7.33-1.84,5.4-2.41,14.25-4.72l-3.1,1.46c7.43-2.23,6.76-2.3,10.66-4.09,1.14-.43,2.59-.91,4.15-1.37.79-.21,1.57-.51,2.35-.79.79-.27,1.58-.53,2.34-.79,3.05-1,5.71-1.71,6.36-1.6.84-.77,4.61-2.81,8.94-4.28.66.02-.83.76-1.59,1.14,6.14-2.1,10.56-4.05,14.52-5.78.99-.43,1.95-.85,2.9-1.26l.82-.35.77-.46,1.32-.78c1.77-1.03,3.59-2.01,5.61-2.96.28.12.84-.07,1.52-.37-2.24,1.27-4.36,2.48-6.29,3.58-.48.27-.95.54-1.4.8-.23.13-.45.26-.67.38l-.4.23c-.16.1-.33.17-.51.24-.93.36-1.79.68-2.57.98-3.05,1.16-4.81,1.82-4.46,1.66.24.64,8.05-2.27,2.2,1.01,1.54-.74,3.35-1.62,5.32-2.57.22-.09.43-.21.64-.34.25-.16.27-.18.41-.27.23-.15.45-.31.68-.47.46-.31.93-.63,1.4-.95.95-.63,1.92-1.28,2.9-1.94,3.93-2.6,8.06-5.19,11.66-7.07.37-.14.74-.28,1.04-.33l-.69.48c1.65-.87,3.08-1.76,4.39-2.64,2.3-1.19,3.76-1.94,5.92-3.17.55,0,2.65-1.13,5.07-2.51,2.39-1.43,5.12-3.06,6.9-4.12-.64-.43,4.09-3.09-.58-1,.59-.29-.63.47-2.99,1.89-.53.33-1.15.72-1.49.96.06-.06.13-.12.21-.2-2.33,1.41-5.41,3.18-8.9,5.19,2.65-1.95,5.49-3.87,9.63-5.88,1.61-1.47,3.4-3.05,4.43-3.9,5.38-2.03,15.05-7.15,16.64-7.43,1.34-.84,2.74-1.72,4.18-2.62,1.5-.92,3.03-1.87,4.58-2.82.15-.11.28-.23.41-.35l.28-.26.49-.44.98-.89,1.96-1.78c1.3-1.19,2.6-2.38,3.86-3.54,5.06-4.65,9.61-8.99,12.23-12.03,2.62-2.47,3.33-2.48,4.45-3.24-1.49,1.45-3.36,3.07-4.1,3.93,1.3-1.24,2.95-2.74,4.71-4.33.88-.79,1.78-1.6,2.68-2.42.9-.81,1.74-1.68,2.57-2.48,3.32-3.26,6.1-6.08,6.49-6.93,6.82-5.98-3.26,3.99,5.72-4.66l-1.08,1.31c4.64-4.01,8.68-7.83,12.48-11.55.47-.47.94-.93,1.41-1.39l.35-.35.19-.19c.09-.09.19-.18.26-.28l.63-.88c.75-1.06,1.5-2.12,2.25-3.17,1.48-2.11,2.95-4.19,4.44-6.3,2.97-4.21,6-8.47,9.38-12.99,1.69-2.26,3.47-4.58,5.36-7,1.84-2.45,3.76-5.03,5.83-7.72-1.14,1.5-1.71,2.25-2,2.51,4.59-6.24,9.16-12.64,13.75-19.09,1.14-1.61,2.29-3.23,3.44-4.85l.86-1.22.43-.61.23-.32c.11-.12.17-.32.22-.43l1.19-2.73c1.58-3.65,3.17-7.3,4.76-10.95,3.18-7.29,6.35-14.57,9.49-21.78,2.8-7.35,5.61-14.61,8.4-21.73,1.57-4.05,2.4-6.31,3.07-8.18.33-.94.62-1.77.94-2.69.3-.92.71-1.89,1.06-3.18l.73-1.74,2.55-8.71c1.88-6.15,3.65-11.42,5.52-17.12.47-1.42.94-2.87,1.43-4.37.24-.75.49-1.51.74-2.28l.19-.58c.05-.21.15-.35.18-.66.04-.41.08-.83.12-1.25.31-3.36.63-6.98.96-11.04l-.27,2.08c.55-5.82,1.66-18.44,1.65-17.46.04-.6.11-1.92.35-4.19l.07-.17c.23-2.38.36-4.77.66-7.15l.87-7.12c1.45-11.03-.03,1.75,2.04-14.36.75-5.99,2.06-17.07,1.74-14.82-.31,2.42-.82,6.17-.89,6.35l.68-5.48c-.01-1.01.39-5.24-1.44,8.19l-1.12,9.38-.46,3.01,1.02-7.89c-.64,4.46-.96,7.31-1.33,10.49-.13.75-.33,2.06-.59,3.92l-1.06,9.21c-.18,1.11.37-4.14-.36,2.04-.34,4.33.53-4.13-.11,3.03-.5,4.49-.43,3.17-.87,8.46-.11.74-.03-.38.15-2.48-.4,4.71-1.18,12.44-1.32,14.88-.27,2.34-.65,6.31-.98,9.63-.08.83-.16,1.62-.23,2.34-.02.16-.04.42-.05.43-.05.16-.1.32-.15.47-.1.3-.19.58-.28.83-.34,1-.55,1.58-.56,1.46-.41,1.42-2.41,7.95-3.73,12.08,2.2-7.61-5.01,15.43-4.65,13.34-.82,2.82-2.26,7.92-4.51,13.33-2.11,5.46-4.46,11.43-6.26,16.3.19-.55.55-1.63.9-2.48-2.15,5.43-2.87,6.97-4.31,10.43,0,.41-.81,2.73-1.82,5.54-1.13,2.76-2.52,5.97-3.42,8.25-3.26,6.4,1.42-4.12.21-2.19.4-.22-4.9,11.43-3.66,9.31-2.46,4.9-2.04,4.26-3.51,6.7.05,1.07-2.04,4.67-3.63,8.93-.88,1.78-1.4,2.77-1.74,3.38-.23.43-.13.21-.31.42-.14.14-.24.25-.34.36-.42.45-.85,1-3.36,4.56-2.6,3.23,1.84-3.11,1.84-3.11ZM580,739.68s0-.01,0-.01c1.54-.89,2.86-1.65,3.7-2.14-.77.45-1.83,1.07-3.69,2.15ZM564.86,748.26c1.85-1.04,4.15-2.33,6.58-3.69.66-.08.21.47-1.32,1.32.74-.62-2.9,1.28-5.26,2.37ZM599.34,734.37c-2.34,1.46-3.21,1.8-3.61,1.86,1.12-.67,2.42-1.45,4.14-2.48.06-.06.18-.17.24-.24-.16.25-.35.51-.76.85Z" fill="#414141" stroke-width="0"/><path d="M603.15,731.06c.34-.22.51-.35.95-.62-.51.24-1,.47-1.5.7-.25.24-.51.48-.73.68.43-.26.87-.52,1.27-.76Z" fill="#414141" stroke-width="0"/><path d="M630.64,120.58l-.28-.23c.23.21.44.4.56.54-.18-.17-.16-.19-.27-.31Z" fill="#414141" stroke-width="0"/><polygon points="331.37 769.7 331.35 769.84 332.85 770.13 331.37 769.7" fill="#414141" stroke-width="0"/><path d="M699.26,186.93c.08.17.27.48.69,1.06-.01-.06-.32-.51-.69-1.06Z" fill="#414141" stroke-width="0"/><path d="M722.7,220.82l2.91,5.08c-1.26-2.2-2.18-3.8-2.91-5.08Z" fill="#414141" stroke-width="0"/><path d="M738.84,248.27c.25.32.34.4.42.47-.01-.02-.02-.04-.03-.05l-.39-.42Z" fill="#414141" stroke-width="0"/><path d="M309.92,69.61c-.42.08-.83.18-1.2.27-2.79.71-.88.28,1.2-.27Z" fill="#414141" stroke-width="0"/><path d="M458.88,56.74c-1.6,0-3.18,0-4.85,0,2.67.25,4.74.51,4.85,0Z" fill="#414141" stroke-width="0"/><path d="M168.75,153.36s0,0,0-.02c-.26.25-.49.47-.75.72l.74-.69Z" fill="#414141" stroke-width="0"/><path d="M447.04,56.4c2.66.3,4.9.37,6.99.35-2.19-.16-4.77-.38-6.99-.35Z" fill="#414141" stroke-width="0"/><path d="M776.71,379.39c.08.5.15,1.01.21,1.52,0-.03.02.06.04.18-.08-.57-.15-1.13-.25-1.7Z" fill="#414141" stroke-width="0"/><path d="M776.96,381.08l.23,1.69c-.11-.78-.2-1.45-.23-1.69Z" fill="#414141" stroke-width="0"/><path d="M777.67,386.33l-.48-3.55c.16,1.23.35,2.75.48,3.55Z" fill="#414141" stroke-width="0"/><path d="M770.06,337.77l-.13-.47c.06.26.1.42.13.47Z" fill="#414141" stroke-width="0"/><path d="M767.77,325.16c.53,3.01,1.25,7.56,2.04,11.75l.11.39c-.43-1.96-1.55-9.3-2.15-12.14Z" fill="#414141" stroke-width="0"/><path d="M753.78,273.77l3.58,10.12c-.56-1.79-1.29-4.15.38.43-4.33-12.82.77,2.69-3.96-10.55Z" fill="#414141" stroke-width="0"/><path d="M738.26,244.32c2.91,4.98.11-.14.32.09-1.9-3.12-2.37-3.88-.32-.09Z" fill="#414141" stroke-width="0"/><path d="M567.44,79.8l.53-.14.43-.19c-.33-.16-.62-.31-.87-.43-.29-.15-.58-.17-.81-.24-.38-.08-.51-.1-.64-.12-.22-.02-.12.06.09.17.11.06.25.13.39.2.21.09.42.19.6.28.33.24.49.45.28.46Z" fill="#414141" stroke-width="0"/><polygon points="521.75 70.97 525.67 72.87 527.85 72.89 521.75 70.97" fill="#414141" stroke-width="0"/><path d="M498.04,56.61l1.86.55-3.54-1.12-1.94-.62c-.25-.07-.49-.2-.75-.21l-.78-.06-.97-.05,1.71.12c.38.03.73.21,1.1.32l.7.23,2.61.84Z" fill="#414141" stroke-width="0"/><path d="M131.31,182.13l1.53-.47c1.82-2.4,1.47-3.51-1.53.47Z" fill="#414141" stroke-width="0"/><path d="M54.48,337.42c-.19.44-.41,1.07-.65,1.81-.04.14-.16.48-.19.78-.03.22-.06.44-.1.67-.06.43-.11.88-.17,1.33-.22,1.83-.37,3.81-.35,5.33.2-1.95.45-3.89.66-5.6.05-.43.1-.84.15-1.23.03-.23.05-.45.08-.67.01-.13.06-.27.09-.39l.07-.26c.17-.69.32-1.29.41-1.78Z" fill="#414141" stroke-width="0"/><polygon points="285.89 759.95 282.55 758.85 288.77 761.11 285.89 759.95" fill="#414141" stroke-width="0"/><path d="M800.33,411.34c.43,1.13.26.46-.9-2.66l-.93-2.19,1.83,4.85Z" fill="#414141" stroke-width="0"/><path d="M792.85,390.16c-1.41-3.66-3.14-7.86-2.43-5.41,1.52,3.58,1.78,4.49,3.4,8.36,1.16,3.14,1.95,5.5,1.71,4.98.44,1.1,1.76,4.88,2.46,6.54-1.4-4.12-3.25-9.3-5.33-14.67-.39-1.17.07-.06.2.19Z" fill="#414141" stroke-width="0"/><path d="M642.79,120.82l1.31,1.65c-.33-.47-.78-1.03-1.31-1.65Z" fill="#414141" stroke-width="0"/><path d="M465.38,51.34c1.53.14,2.18.1,2.27.02-1.43-.08-2.6-.14-2.27-.02Z" fill="#414141" stroke-width="0"/><path d="M430.25,48.64c.73-.13,1.34-.24,2.01-.36-.78.07-1.55.18-2.01.36Z" fill="#414141" stroke-width="0"/><path d="M642.79,120.82l-3.35-4.25c-.46-.1,1.66,2.23,3.35,4.25Z" fill="#414141" stroke-width="0"/><path d="M781.85,346.63c.2,1.11.39,2.04.57,2.88-.17-.91-.33-1.8-.49-2.71-.03-.05-.05-.09-.08-.17Z" fill="#414141" stroke-width="0"/><path d="M712.41,175.62l1.03,1.28c.37.32.73.62,1.08.88l-2.11-2.16Z" fill="#414141" stroke-width="0"/><path d="M747.96,233.48c-.51-.58-.95-.89-1.33-1.08-.2-.1-.37-.17-.49-.18-.14-.03-.27-.06-.36-.14.1.14.28.2.44.33.2.16.4.34.61.53.42.38.86.82,1.33,1.31.09-.05.04-.28-.19-.77Z" fill="#414141" stroke-width="0"/><path d="M782,331.31l-.1,1.92c.03-.5.07-1.34.1-1.92Z" fill="#414141" stroke-width="0"/><path d="M676.49,141.6c-.05-.15-.21-.35-.41-.53-.04.07.12.27.41.53Z" fill="#414141" stroke-width="0"/><path d="M789.52,487.18c0,.06.04,0,.05.02.15-.37.19-.49-.05-.02Z" fill="#414141" stroke-width="0"/><path d="M800.54,411.28l-.37,1.04c-.02.12-.05.24-.03.24l.4-1.28Z" fill="#414141" stroke-width="0"/><path d="M368.29,56.79c.12,0,.16,0,.28,0,1.64-.25.71-.15-.28,0Z" fill="#414141" stroke-width="0"/><path d="M85.53,478.19c-3.07-5.82,5.77,9.02,1.05.32.35.86-5.04-7.47-1.05-.32Z" fill="#414141" stroke-width="0"/><path d="M781.59,344.87c-.15-.91-.31-1.84-.47-2.76.21,1.26.36,2.11.47,2.76Z" fill="#414141" stroke-width="0"/><path d="M86.58,478.5h0s-.49-.9-.49-.9c.2.37.31.58.49.9Z" fill="#414141" stroke-width="0"/><path d="M234.16,107.7c.31-.12.78-.47,1.27-.84-.1-.02-.4.15-1.27.84Z" fill="#414141" stroke-width="0"/><path d="M331.38,60.04l-2.68-.04c1.06.05,1.93.05,2.68.04Z" fill="#414141" stroke-width="0"/><path d="M196.54,149.28c-1.13.92-1.58,1.17-3,2.57.17-.09.32-.19.52-.33.47-.56,1.15-1.23,2.48-2.24Z" fill="#414141" stroke-width="0"/><path d="M153.98,189.79c.26-.18.57-.45.86-.67.39-.43.85-.93,1.25-1.37l-2.11,2.05Z" fill="#414141" stroke-width="0"/><path d="M706.67,641.17c.85-.98,1.45-1.54,1.95-1.96-.87.52,3.72-6.78-1.95,1.96Z" fill="#414141" stroke-width="0"/><path d="M782,346.57c-.12-.33-.24-.82-.4-1.7.12.66.23,1.3.34,1.92.07.16.11.19.07-.22Z" fill="#414141" stroke-width="0"/><path d="M198.94,155.62l-7.09,6.05c2.01-1.66,4.58-3.86,7.09-6.05Z" fill="#414141" stroke-width="0"/><path d="M334.42,753.94l2,.75c-.76-.32-1.47-.6-2-.75Z" fill="#414141" stroke-width="0"/><path d="M171.72,180.11c-1.35,1.01-2.69,2.17-4.03,3.4-.22.32-.49.67-.61.92l4.64-4.32Z" fill="#414141" stroke-width="0"/><path d="M708.63,639.19s-.02.01-.02.01c0,0,0,0,.02-.01Z" fill="#414141" stroke-width="0"/><path d="M747.51,591.47c-6.35,6.21-2.48,3.42-3.53,5.03-7.39,7.59-3.87,3.07-6.7,5.33-4.58,4.77-7.7,8.83-11.23,12.28-.35.17-1.07.81-.38-.09-.57.67-1.22,1.4-1.95,2.18-.37.39-.75.79-1.15,1.21-.16.18-.35.33-.48.54l-.33.52c-.16.25-.31.5-.47.75-1.3,2.02-2.72,4.23-4.16,6.48-2.9,4.48-5.86,9.09-7.74,12.72-.39.47-.62.69-.75.78,1.07-.88,1.52-.83,1.62-.44-2.16,3.34-3.59,6.47-4.86,7.44,1.34-2.04,1.27-2.32,1.75-3.37l-2.08,3.62c-2.7,2.72,2.88-4.92,2.4-5.23-1.04,1.74-2.13,3.56-3.23,5.39-.53.9-1.07,1.81-1.6,2.71-.08.13-.12.29-.26.37l-.17.15-.3.24c-.41.33-.82.66-1.23.98-3.26,2.6-6.35,5.01-8.93,6.77-1.52.14,11.59-8.83,4.47-4.47l3.98-2.73,1.84-1.26c.08-.04.15-.1.2-.18l.22-.31.69-.99c-.32.34-.58.62-.79.86-.26.29-.27.23-.36.29-.13.06-.22.01-.23-.01.04-.11-.02-.05.53-.87.85-1.28,1.74-2.63-.66-.15-.1.14-.19.28-.29.42-.02.02-.03.04-.05.06l-.07.04-.36.25c-.58.42-1.12.81-1.64,1.18-1.03.76-1.96,1.44-2.81,2.07-1.7,1.27-3.1,2.36-4.5,3.44-2.8,2.17-5.6,4.34-10.77,7.98-2.03,2.04,1.15-.03-.88,2.02-1.75,1.41-3.26,2.58-4.59,3.55-.66.49-1.28.93-1.85,1.32-.29.2-.57.39-.83.57-.13.09-.27.18-.39.26-.15.11-.38.25-.54.38-.36.36-.53.51-.74.7-.2.19-.4.36-.59.53-.39.33-.75.64-1.08.94-.69.57-1.3,1.05-1.89,1.51-2.36,1.82-4.3,3.23-8.42,8.43-1.93,2.87-2.06,4.57-8.9,11.07l1.49-3c-2.12,2.23-3.41,3.72-4.3,4.84-.22.28-.42.54-.6.78-.09.12-.18.24-.26.35-.08.11-.18.25-.17.26-.04.1-.08.19-.11.28-.05.08-.12.13-.19.2-.05.04-.03.05-.15.11-.1.06-.2.11-.31.17-.21.11-.43.23-.67.36-.48.25-1.03.51-1.72.8-1.39.59-3.33,1.33-6.39,2.35,1.99-1.19,8.87-3.83,7.09-3.25-8.04,2.33-5.29,2.66-11.24,5.01l-1.55-.32c-6.06,2.45-12.38,5.14-18.87,7.9-.33.14-.67.27-.99.42l-.8.66-1.02.85c-.68.57-1.36,1.14-2.04,1.72-1.37,1.14-2.74,2.29-4.11,3.45-2.76,2.3-5.54,4.61-8.35,6.9.46-.71,2.23-2.47-.59-.58-3.5,2.93-7.17,5.91-10.91,8.89l-1.41,1.12c-.52.41-.23.23-.82.48-1.12.44-2.24.89-3.37,1.34-2.26.88-4.52,1.76-6.77,2.64-4.53,1.72-9.04,3.43-13.45,5.1-2.21.82-4.4,1.64-6.55,2.44-2.15.8-4.29,1.55-6.3,2.45l-5.81,3.55c-1.43.65-2.79.89-1.31.04-6.37,2.6-.12.61-3,2.28-3.53,1.69-4.88,1.75-2.72.49-2.69,1.42-5.96,3.12-9.53,4.95-1.79.9-3.66,1.84-5.56,2.8-.96.47-1.92.95-2.89,1.43l-.68.35-.77-.14c-8.54-1.7-17.12-3.61-23.27-5.39l2.48.31c-4.82-1.22-7.65-1.43-10.37-1.67-1.36-.12-2.7-.25-4.25-.52-.39-.07-.79-.15-1.21-.23-.23-.05-.46-.1-.69-.15-.32-.06-.64-.18-.98-.13-.29,0-.58.02-.88.03-.25,0-.5,0-.76.01-.52,0-1.07,0-1.64-.01l1.76-.24c-10.78.44-22.11,1.19-32.8,1.8-.69.04-1.37.08-2.06.11-.26,0-.51.05-.76.11l-.54.12-.96.22c-1.28.29-2.56.58-3.81.87-2.52.55-4.98,1.1-7.37,1.62-4.78,1.02-9.27,1.91-13.34,2.6-.7.43-2.36.92-4.47,1.44-1.06.25-2.22.52-3.43.81-1.18.26-2.41.54-3.63.81-.12.04-.24.02-.36,0-.32-.02-.63-.04-.94-.06-.62-.04-1.24-.08-1.83-.12-1.19-.07-2.3-.12-3.28-.14-1.95-.04-3.36.04-3.73.36-12.25-1.4-8.72-1.43-26.01-2.84-.29-.02-.57-.03-.84-.05-.14,0-.27-.01-.4-.02h-.2c-.07,0-.04,0-.06,0-.13.02-.04.05-.66-.16-.91-.29-1.78-.54-2.68-.79-1.81-.51-3.75-1.05-6.42-2.08l.12-.64-7.45-2.35-3.54-2.25-5.03-1.89c1.97.84,4.1,1.98,3.73,2.01-3.93-1.47-8.62-3.52-12.34-5.23-3.72-1.72-6.45-3.12-6.49-3.29l-18.51-7.2c.49-.02,3.59,1.19,6.07,2.07-10-3.57-1.56-1.25-10.72-4.52,1.16.61-.77.01-1.01.02-1.09-.54-2.54-1.2-4.22-1.95-.45-.2-.92-.4-1.41-.62-.49-.15-.66-.18-.91-.25-.24-.06-.49-.12-.74-.19-.99-.25-2.03-.51-3.09-.77-4.25-1.05-8.92-2.14-12.9-3.04l1.6.05c-6.89-1.65-14.15-3.4-21.62-5.19-5.52-5.68-11.19-11.52-16.9-17.4,4.03,4.36,2.75,3.71-.64.23l-1.06-1.68c-2.34-2.09,3.4,3.76-1.27-.67-4.24-4.49-2.56-3.31,0-.85l-5.3-5.32c-.22-.4,1.04.83,1.46,1.05-2.17-2.19-9.08-9.27-12.59-12.03l-.23-.37c-12.13-11.23-17.64-16.33-27.52-25.48-.38.02-4.19-3.61-7.27-6.19-1.79-1.71-3.62-3.46-5.51-5.27-.94-.9-1.89-1.82-2.86-2.74-.48-.46-.97-.93-1.46-1.4l-.67-.64-.5-.74c-3.06-4.53-6.28-9.26-9.67-14.15-4.86-6.81-1.57-1.89-3.84-4.9-.16-.63-6.93-10.41-3.29-5.43-4.18-5.81-6.42-9.79-9.11-14.04-2.67-4.27-5.6-8.94-10.4-16.6.95,1.72,2.06,3.63,1.4,2.69-1.75-2.78-3.82-6.41-3.48-6.07l.47.73c-.68-1.07-1.37-2.17-2.07-3.28-.26-.43-.49-.6-.69-.87l-.65-.76c-.43-.51-.87-1.02-1.3-1.54-1.73-2.07-3.51-4.19-5.3-6.34-3.55-4.33-7.19-8.76-10.74-13.09-1.77-2.17-3.52-4.31-5.23-6.41l-.47-.58s-.01-.07-.02-.1l-.05-.44c-.08-.66-.16-1.32-.24-1.97-.16-1.3-.32-2.59-.48-3.85-.64-5.04-1.27-9.69-1.93-13.68l.14.9-2.47-16.59c-.06-.48-.11-.88-.15-1.21-.05-.35-.04-.54-.13-.92-.13-.46-.15-.59-.15-.61,0-.01.07.13.15.37.03.08.13.34.16.58.03.16.06.33.09.5.25,1.39.54,3.02.26.18-.05-.31-.09-.61-.14-.92-.07-.28-.12-.39-.15-.52l-.13-.39c-.17-.52-.33-1.04-.49-1.55-.32-1.02-.64-2.02-.94-3-.6-1.96-1.17-3.82-1.72-5.62-1.06-3.61-2.04-6.94-2.99-10.18-.94-3.24-1.85-6.38-2.78-9.61-.24-.81-.48-1.62-.72-2.44-.12-.41-.25-.82-.37-1.23l-.19-.62-.11-.37c-.04-.18-.12-.35-.22-.51-.91-1.51-1.83-3.06-2.8-4.67-2.48-5.23-7.58-14.1-12.98-23.37-1.29-2.21-2.59-4.44-3.88-6.65-.05-.05,0-.11-.02-.17l.1-1c.07-.66.13-1.32.2-1.98.14-1.31.27-2.61.4-3.88.54-5.1,1.09-9.82,1.68-13.67l-.36.87c.16-4.02.66-4.82,1.04-7.77-.26.4-.7,4.32-.59,1.82.2-2.12.41-4.25.61-6.38.11-1.07.21-2.14.32-3.21l.16-1.61.08-.79s0-.08.02-.12l.1-.36c1.21-4.15,2.43-8.32,3.65-12.51,1.25-4.19,2.5-8.39,3.76-12.61.64-2.11,1.27-4.22,1.91-6.33l.96-3.17.24-.79.13-.42.2-.71c.1-.23.04-.48.03-.72l-.06-.63-.07-.83c-.72-8.82-1.45-17.66-2.17-26.48-.18-2.2-.36-4.41-.53-6.61l-.27-3.3-.03-.41c0-.06,0-.03,0-.05,0,0,0-.01.01-.02l.06-.36.28-1.63c.75-4.34,1.49-8.66,2.23-12.97,1.06-6.3.85-8.17.8-10.43-.02-1.13,0-2.36.23-4.29.12-.97.29-2.11.54-3.5.13-.7.28-1.46.44-2.29.08-.39.17-.8.26-1.23l.07-.22c.02-.08.05-.14.14-.18-.06.1.03.26.07.36l.04.08s.01.02.02.05v.14s0,.58,0,.58v2.31s.31-2.4.31-2.4l.07-.59v-.08c-.02-.06,0-.11.04-.15l.02-.04s-.03.02.07-.08l.42-.44.84-.88,1.68-1.76c2.26-2.34,4.54-4.68,6.81-7.03,4.58-4.68,9.22-9.33,13.85-13.98l3.51-3.52c.52-.52,1.03-1.04,1.53-1.57.16-.69.23-1.43.35-2.15l.37-2.48c.47-3.23.94-6.45,1.41-9.65.91-6.41,1.76-12.77,2.46-19.05-.03,1.52.22,1.59-.14,4.03.35-1.3.7-3.16,1.03-5.24.17-1.04.32-2.13.47-3.22l.11-.82.03-.21v-.03s0-.06,0-.06c0-.04,0-.08,0-.12l.06-.1c-.1.07.46-.51.75-.84.34-.38.67-.74.99-1.09.63-.7,1.19-1.35,1.66-1.9.93-1.11,1.48-1.85,1.41-1.96,2.81-2.75.97-.32,2.87-1.86,4.04-3.54,8.87-10.11,11.33-11.68.42-.27-.91,1.21-1.56,1.94,2.23-2.69,11.49-11.49,8.6-9.64,6.84-6.57,12.35-13.28,17.92-18.41,1.4-2.07,4.29-4.92,6.86-7.5l.48-.48.23-.24c.07-.06.06-.06.09-.09.31-.27.62-.54.92-.79.62-.54,1.19-1.06,1.68-1.53.98-.94,1.63-1.71,1.72-2.2.33,1.4,13.17-10.17,17.28-14.58-1.25,1.61,4.19-3.13,2.78-1.17,1.28-1.13,2.53-2.24,3.66-3.28.12-.11.27-.23.38-.36l.28-.3c.12-.14.25-.28.37-.41.24-.27.47-.54.7-.79.44-.52.85-1,1.22-1.43,1.46-1.75,2.16-2.83,1.51-2.62,9.82-8.07,16.5-19.24,22.85-23.03,6.63-7.71,13.04-15.1,19.31-22.28,1.53-1.75,3.05-3.48,4.55-5.21l.22-.27c.1-.06.21-.09.32-.15l.22-.09.41-.16.82-.32c1.09-.43,2.17-.85,3.26-1.27,4.33-1.68,8.62-3.34,12.88-4.99-.07.77-4.8,2.53-9.36,4.23-2.28.85-4.52,1.69-6.11,2.39-.4.17-.75.34-1.06.49-.15.08-.29.15-.42.22-.11.06-.29.16-.27.18-.07.14-.04.28.07.43,3.81-1.58,7.22-3,10.42-4.33,3.36-1.42,6.5-2.76,9.64-4.09,3.14-1.32,6.29-2.61,9.67-3.93.85-.32,1.71-.65,2.58-.99.44-.16.88-.33,1.33-.5l.68-.25c.28-.09.74-.31.89-.38,1.77-.83,3.62-1.68,5.58-2.56,4.11-1.72-2.02,1.63-3.28,2.49,7.71-3.94,15.3-7.47,22.66-10.92,1.84-.87,3.66-1.72,5.48-2.58.9-.43,1.81-.86,2.7-1.29l.75-.37c.08-.03.16-.02.25-.03l.47-.02c3.96-.16,7.86-.37,11.71-.67-.04.14-1.7.33-3.27.48,3.04-.13,7.08.02,6.71-.63l-2.96.26c-4.89-.81,11.99-2.33,12.51-2.85-5.07,2.03,15.25.04,7.18,2.66,2-.18,4.49-.56,4.01-.99,1.49.05,2.47.04,2.71.16.24.11-.26.39-1.76.7,10.85-1.21,6.94-1.63,16.78-2.44-.01.32-1.99.61-2.98,1.08,4.94-1.04,9.9-2.1,18.23-2.54-.48.24.5.4-1.98.61,1.78-.16,3.5-.35,5.17-.54.85-.1,1.68-.2,2.51-.3.3-.02.62-.1.89-.17l.59-.15c.39-.1.78-.21,1.17-.31,3.09-.84,6.08-1.66,9.1-2.48,6.06-1.65,12.3-3.24,20.03-4.61-2.11,1.17-.79,1,1.2.66.99-.17,2.16-.38,3.13-.49.24-.03.48-.05.69-.06.19,0,.48-.03.51.01.16.06.26.16.3.3h.18s.09,0,.09,0h.24s1.05.08,1.05.08l2.11.13,4.21.26-3.31-.93c7.35.79,13.93.61,20.21,1.66l-5.51-.09,13.79,1.22-7.75-1.26c7.5.17-.64-1.58,9.11-.22-.5-.02-.29.02.36.1.33.04.77.1,1.28.17.26.03.54.07.83.11.32.06.71.06,1.04.04,2.58-.04,5.89-.05,7.83.21h-.02c3.63-.54,7.37-1.1,12.84-1.06,1.44.31-1.08,1.34-.15,1.55,1.78-.57,6.1-.84,10.53-1.12,1.11-.07,2.23-.15,3.31-.22.54-.04,1.08-.08,1.6-.12.22-.02.43-.04.64-.06.18-.02.35-.04.52-.06l.26-.03c.09-.01.17-.03.24.03.14.09.28.17.41.25.31.18.6.36.88.52.71.42,1.34.77,1.87,1.01-1.37-.72-1.79-.28-1.46.12l2.9,1.18c2.6,2.24,2.93,2.64,2.19,2.69,8.18,6.26-1.75-3.12,7.68,4.68-.81-.52-.51-.16-2.18-1.25,4.83,3.79,9.66,7.23,14.38,10.6,1.18.84,2.35,1.68,3.52,2.52l2.04,1.48.28.2c.09.08.22.02.33.03l.68-.02,1.33-.05c2.85-.11,5.68-.18,8.5-.18,3.36,1.01-9.84.59-6,1.42,8.12-.37,16.52-.98,24.86-1.52,2.08-.13,4.17-.26,6.24-.39,1.04-.06,2.07-.12,3.1-.18l1.22-.07.26-.02c.08.03.15.08.22.12l.45.26c1.73,1.03,3.46,2.06,5.16,3.07,1.72,1.04,3.42,2.09,5.08,3.14l-2.44-1.63c2.65-.15,9.61,6.74,16.78,10.28-1.72-.92-2.61-.63-2.08-.49,2.27,1.45,4.59,2.87,7.02,4.32.52.31,1.05.62,1.59.93.42.45.84.91,1.27,1.38,1,1.08,2.03,2.19,3.08,3.32,4.24,4.53,8.96,9.57,14.54,15.53l-1.61-1.28c1.98,2.49,4.7,5.66,7.49,8.86l.56.64c.25.28.47.59.82.75.5.3,1,.6,1.5.9.9.54,1.8,1.08,2.67,1.61,1.74,1.06,3.39,2.07,4.85,2.97,1.93.74,5.27,2.79,3.48,1.14,4.29,3.13,8.64,5.92,12.99,8.52,2.16,1.29,4.39,2.58,6.47,3.76.24.13.79.64,1.25,1.02l1.42,1.19c.95.79,1.89,1.58,2.83,2.36,7.53,6.26,14.83,12.33,21.37,19.1-1.68-1.48-4.19-3.34-2.85-2.15l3.04,2.59.76.65c.25.21.24.2.51.53l1.29,1.53,5.15,6.12c-.39-1.31-1.08-1.82-2.87-4.69,1.51,1.38,4.53,4.74,7.02,7.83-4.78-5.38-.6.57,1.14,3.15-.21-.5.6.22.55-.09,4.56,7.05,1.66.46,8.36,9.7l-.58-.31c1.39,1.61,2.78,3.15,4.15,4.7.28.37.49.87.75,1.33.24.47.49.95.74,1.43.49.96.98,1.96,1.46,3,.34,1.96-2.21-3.98-2.75-4.04,2.86,5.8,6.48,11.03,8.54,16.53-1.33-2.41-3.05-5.96-4.38-8.36,2.21,6.01,2.68,6.6,4.66,10.9l-.19-.42,4.54,9.96-1.08-2.58c1.19,1.67,2.24,3.43,3.24,5.27l.37.69.2.38c.06.15.15.28.27.38.38.4.76.8,1.14,1.2.73.79,1.47,1.6,2.23,2.42,3,3.31,6.21,6.91,10.16,10.68-7.67-7.34-1.5-1-2.44-1.25,1.76,2.16,4.49,5.39,3.57,4.6,3.77,3.51,5.59,6.58,10.88,11.5,0,.06.15.21.19.49.16.49.35,1.09.53,1.66.36,1.14.63,2.11.26,1.62,2.32,6.28-.27-1.58.1-1.11,1.94,4.79,3.77,10.57,5.83,16.87,1.03,3.15,2.11,6.43,3.28,9.79.58,1.68,1.19,3.38,1.82,5.09l.48,1.28c.16.38.12.38.1.96-.03.92-.06,1.84-.08,2.77-.59,12.79-.36,15.18-1.01,27.04-.45,3.99-.17-3.3-.17-3.3-.3,3.22-.52,6.05-.7,8.83l-.13,2.08-.06,1.05c0,.16-.04.4.01.61l.09.53c.25,1.39.51,2.82.78,4.32-.28-1.2-.15.06.05,1.91.83,4.82.86,3.17,1.78,9.56-.28-1.08-.66-2.45-1.15-4.76,1.04,5.67,2.13,11.26,3.17,17.14.13,1.58-.79-3.52-1.23-5.58.59,3.3,1.35,7.58,2.01,11.28.08.46.17.92.25,1.36.04.23.08.46.12.69.08.22.17.43.25.65.31.79.59,1.52.84,2.17.51,1.3.91,2.28,1.13,2.75l-1.41-4.06c.84,2.29.29,1.23-.37-.45-.13-.34-.26-.67-.39-.99-.1-.42-.13-.67-.19-1-.11-.61-.2-1.17-.3-1.69-.17-1.04-.3-1.89-.39-2.59-.18-1.38-.22-2.1-.21-2.27l.74,4.19c-.27-4.38-2.81-16.83-4.2-25.27l.96,3.46-1.74-8.61c-.2-1.86-.16-3.16.57,1-.19-1.52-.35-2.62-.49-3.48-.03-.23-.09-.41-.07-.57.01-.19.02-.37.03-.55.02-.35.03-.67.05-.98.05-1.25.1-2.39.41-5.01.08-.58.08-.31.06.23l.29-5.99c.01,1.18.4-.97.07,2.7,1.08-10.7.89-17.32,1.57-21.33l-.03.9c.46-7.45.38-7.81.23-7.72-.07.05-.16.21-.21-.34-.03-.26-.03-.76-.05-1.43-.27-.62-.66-1.6-1.17-2.89l-1.44-7.47-.88-1.25c-.48-1.46-1.43-4.36-1.08-3.88-2.13-5.32.13.99-1.22-2.07-1-3.57-2.69-8.39-4.12-12.54-.71-2.08-1.36-3.99-1.81-5.49-.06-.2-.12-.39-.17-.58-.03-.1-.06-.19-.09-.29-.05-.08-.12-.15-.17-.23-.25-.31-.41-.52-.57-.74-.31-.43-.51-.77-.58-.99-1.03-.86.1.5.8,1.37.19.23.35.43.44.55.08.13.05.19,0,.07-.22-.2-.83-.81-2.21-2.23-.87-2.25-6.24-6.69-10.47-11.98,1.74,1.23,5.84,6.17,1.62.85-3.32-2.5-8.67-9.93-12.6-14.08-.17.06-.79-.47-1.72-1.42-.12-.12-.24-.24-.36-.37-.09-.1-.22-.19-.28-.32-.17-.33-.35-.68-.54-1.06-.39-.8-.83-1.7-1.3-2.65-1.86-3.84-4.17-8.76-6.35-13.03.24.22-1.62-3.89-3.99-9.07-1.2-2.63-2.53-5.52-3.79-8.28-1.84-2.43-3.59-4.72-4.96-6.53l.26.12c-1.69-.86-7.33-8.12-11.65-13.23.54-.1,1.45.72,3.88,3.41l-3.93-4.91c-1.13-.99-2.47-2.44-5.09-5.56l1.47.85c-.66-.81-1.33-1.62-2-2.43l-1.02-1.22-.32-.38c-.12-.16-.28-.27-.42-.4l-.61-.52c-1.64-1.38-3.31-2.78-5.04-4.24-3.45-2.92-7.09-6.07-10.96-9.82-.86.06,5.28,6.97-3.52-.29-.1-.53-.03-1.24,2.29.65-.76-.62-2.78-2.11-4.16-3.52l3.77,2.61c-3.5-3.45-2.23-1.36-5.12-4.01.38-.31-1.94-2.19-1.27-2.1.78.63,2.42,2.43,3.67,3.29-1.62-1.51-3.38-3.2-4.87-4.71-.76-.79-1.46-1.52-2.06-2.13-.18-.22-.48-.37-.63-.5-.15-.11-.28-.22-.41-.32-.26-.2-.47-.39-.64-.54.19.44-.34.56-3.15-1.05-7.2-4.28-2.15-1.98-6.21-4.72-1.91-.75-6.31-3.81-6.81-3.24-2.1-1.26-2.31-1.8-3.01-2.46-1.94-.97-6.29-3.56-9.69-5.5-.43-.24-.83-.47-1.22-.69-.14-.08-.28-.15-.41-.22-.12-.05-.2-.14-.28-.23-.24-.25-.46-.47-.66-.67-.22-.22-.41-.41-.57-.56-.65-.59-.8-.56-.16.5l.69.87c-.14-.15-.31-.33-.49-.51l.02.03-.02-.03c-4.96-5.09-9.74-10.72-14.46-16.38-2.36-2.83-4.72-5.65-7.06-8.44-.59-.69-1.18-1.38-1.76-2.07l-.94-1.09c-.18-.22-.37-.44-.64-.57l-.66-.41c-1.53-.94-3.06-1.86-4.58-2.74l.16-.22c-7.33-4.14-16.05-9.65-21.49-12.27-2.12-1.3-4.74-3.51-3.65-3.25-.81-.46-1.54-.87-2.2-1.25-.35-.31-.8-.13-1.18-.14-.38.03-.74.05-1.09.07-1.12.09-2.1.16-3.17.22-2.14.11-4.65.15-9.3.04,6.45-.69-2.24-.38,6.61-.56-8.36,0-10.27-.42-19.21.63,3.03-.84-6.32-.77-10.28-.43l5.87.37c-2.23.12-4.32.19-6.35.24-.79.01-1.57.03-2.35.04-.26-.08-.47-.33-.7-.49l-1.07-.83,1.16.24c.32.03.47-.07.66-.13l-.21-.22-.06-.06-.15-.13-.3-.26c-.41-.34-.81-.67-1.21-1.01-.81-.66-1.62-1.3-2.42-1.93-1.61-1.25-3.22-2.42-4.81-3.55-3.18-2.25-6.31-4.3-9.31-6.29s-5.9-3.92-8.61-5.95c-.68-.51-1.35-1.02-2-1.54-.75-.61-1.5-1.22-2.25-1.83l-.74-.6c-.25-.19-.47-.48-.81-.4l-1.89-.04h-.48s-.32-.04-.32-.04l-.62-.05-1.23-.13c-1.12.23-1.1.35-.5.42.3.03.74.06,1.26.07.26,0,.54.01.82.02.34,0,.69,0,1.04,0,.44,0,.89,0,1.32,0,.42.03.88-.11,1.15.26.62.5,1.14.95,1.49,1.28.08.08.16.16.23.22.04.05.08.09.1.13.05.08.06.13.03.16-.07.05-.25.02-.89-.33l-.8-.61-.4-.31c-.13-.1-.26-.24-.44-.2l-2.01.02c-.51,0-1.02-.02-1.53-.02-.49-.02-.97-.03-1.45-.05-1.92-.07-3.76-.19-5.44-.32-3.36-.24-6.03-.5-7.27-.45-5.4-.06-7.89.43-10.45.95-1.28.26-2.57.52-4.25.73-.84.1-1.78.19-2.85.26-.54.03-1.11.05-1.73.08-.31,0-.63.02-.96.03-.16,0-.33,0-.5,0-.13,0-.26,0-.39,0l.15.07c.08.03.17.05.24.08.16.06.3.12.41.19.21.14.26.31,0,.5-.12.09-.35.19-.63.28-.24.11-.51.15-1.08.17-1.04.04-2.55.01-4.65-.12-7.82-.97-9.46-2.6-4.48-2.37,1.88.17,2.77.38,2.68.5,2.54.13,5.88.33,2.82-.41l-1.06.27c-3.84-.8-14.62-1.91-12.02-2.26-5.95-.27-2.59.35,1.77,1.01-4.99-.81-8.91-1.23-12.87-1.63-1.98-.21-3.97-.41-6.11-.64-.53-.06-1.08-.12-1.63-.19-.43-.05-.86-.1-1.29-.15-.45.02-.89.16-1.35.24-1.16.22-2.37.44-3.65.68,1.66-.14,3.24-.02,1.63.32-15,2.75-6.41,2.12-16.47,4.47-5.86.67,1.76-1.8-8.3.87-6.29.95-1.53-.71.87-1.55-2.28.68-4.5,1.22-6.64,1.67-1.07.22-2.12.43-3.14.61-.26.04-.51.09-.76.13-.11.01-.09,0-.28,0-.5.02-1,.03-1.49.05-3.91.1-7.32.05-10.02.22l4.93-.73c-2.95.44-5.38.64-7.85.85l2.89.52c-2.92.12-5.39.32-5.35,0-2.96.76,2.39,1.07-3.52,2.27-3.91-.05-11.81,1.43-13.21.53,12.23-.71-1.41-.9,8.91-1.95-1.98.29-4.41.5-7.34.61-.44-.08.4-.25,1.19-.37-2.93.02-4.73.14-5.96.31-1.24.1-1.92.29-2.6.51-1.38.44-2.8.98-8.88,1.15,1.51-.62-2.87-1-4.84-.81,4.89-.14,2.39.88-2.09,1.45-7.81-.21-8.46.58-12.54.65l4.67.07c-1.56.61-5.46.65-10.89.99-.48-.43,4.93-.45,2.98-.58-.75.15-1.53.25-2.33.31l-.6.04-.71.03c-.56.03-1.15-.04-1.66.29-.26.12-.53.24-.8.35l-.6.25c-.4.16-.81.33-1.22.5-.83.32-1.68.65-2.55.98-3.48,1.32-7.25,2.73-10.92,4.84-3.69,1.33-.79-.79-4,.45-4.11,2.35-6.51,3.28-8.96,4.21-1.23.47-2.47.94-3.95,1.59-.37.17-.75.34-1.16.53-.34.17-.7.34-1.08.52-.41.17-.85.35-1.31.53-.51.22-1.05.45-1.62.69,2.94-.29,3.35-.63-2.96,2.46l3.79-1.53,1.89-.77c.31-.13.69-.27.74-.31l.87-.45,7.26-3.73-4.5,2.74-2.25,1.37-1.1.67s-.1.07-.16.1c-.05.03-.18.09-.27.14l-.59.29c.29-.11.58-.21.87-.32.09-.03.16-.06.26-.12l.42-.21,1.68-.85c1.11-.58,2.21-1.16,3.25-1.7,2.08-1.1,3.95-2.08,5.31-2.66-4.25,2.69-3.87,2.3-1.47,1.85-1.64.47-3.2,1.09-4.73,1.81-.76.36-1.52.74-2.28,1.14-.72.39-1.45.78-2.19,1.18-3.12,1.37-6.47,2.87-10.24,3.85l-.41-1.8c-5.64,1.65-10.44,3.67-15.64,5.88-2.6,1.11-5.3,2.26-8.25,3.44-.45.17-.9.35-1.35.53l-.89.34c-.16.03-.27.15-.37.28l-.32.36c-.64.71-1.3,1.44-1.97,2.18-1.16,1.28-2.4,2.59-3.72,3.96l3.53-3.4c-.85,1.99-6.27,6.99-9.38,10.82-.13-.74-2.36,1.38-4.05,2.68.49.11-7.54,8.19-7.61,10.01-1.72,1.5-3.43,2.99-5.17,4.46-8.63,8.74-8.39,11.34-16.63,19.81,1.98-3.02-1.99.62,3.1-5.45-2.7,2.87-5.2,5.38-4.96,5.7-.92.72-2.65,2.84-4.51,5.07l-.31.38s-.06.07-.09.11l-.18.18-.78.76c-.52.5-1.04.99-1.54,1.45-1,.92-1.93,1.7-2.7,2.2-1.08,1.29-1.1,2.09-4.45,4.98-.44.23-.17-.22-.17-.22.17.22-4.95,4.87-1.64,2.77-2.57,1.68-5.43,3.93-8.43,6.46-1.5,1.26-3.03,2.59-4.57,3.95-.77.68-1.54,1.37-2.32,2.06-.15.13-.5.45-.65.63l-.53.57-1.07,1.13c-5.69,6.03-11.22,11.94-15.39,15.26-2.92,3.16-6.14,6.65-9.29,10.06-3.22,3.35-6.36,6.63-9.07,9.44.24-.47-.17-.2.9-1.22-7.89,7.35-3.56,5.78-12.54,14.15-4.98,3.89,4.24-4.96,1.28-2.4-.6,0-1.54.68-2.71,1.77-.58.54-1.23,1.19-1.91,1.91-.73.78-1.53,1.63-2.36,2.53-.29.31-.59.63-.89.95-.1.42-.13.87-.19,1.31-.08.68-.15,1.36-.23,2.06-.13,1.19-.28,2.41-.44,3.6-.32,2.39-.72,4.73-1.24,6.74l.18-1.99c-1.42,6.17-1.51,15.33-3.07,25.52,0,0-.07-.52-.23-.09-.02.44-.03.91-.05,1.4-.02.3,0,.34,0,.51,0,.14.02.29,0,.44-.09.12-.17.24-.26.36l-.14.19-.25.3c-.37.43-.75.87-1.14,1.33-1.57,1.81-3.34,3.78-5.18,5.8-3.68,4.03-7.66,8.27-11.05,11.89,1.74-2.62,2.93-3.44,1.18-2.52-3.05,3.24,1.6-.25-4.49,6.2-1.12.92-2.85,2.47-4.43,3.82-.9.75-1.74,1.45-2.4,2.01-.11.08-.21.16-.22.29-.03.11-.07.22-.1.33-.07.21-.13.4-.19.58-.12.35-.23.62-.32.68l.22-1.44c-.04-.56.49-.84.8-1.23l1.6-1.65,2.91-3.01c-.89.62-1.81,1.42-2.74,2.32-.46.45-.93.92-1.39,1.4-.32.34-.65.68-.97,1.02l-.27.29c-.07.11-.23.17-.21.32l-.11.79-.17,1.36-.11,1.01c-.07.67-.14,1.33-.21,1.98-.14,1.29-.3,2.52-.49,3.61l-.26-.61c-1.74,12.71-.93,13.01-3.02,26.63l.45-1.37c-.08,1.89-.2,3.22-.36,4.28-.04.26-.08.51-.12.74-.02.24-.14.53-.09.77.03.54.03.85.04,1.27.03,1.58.04,3.16.72,6.87l-.55,2.34c.73,4.92,2.6,17.23,3.66,26.08-1.06-4.97-2.46-15.31-3.5-21.69.53,4.9,1.87,16.64,2.5,19.15-.28-1.97-.73-4.44-.83-6.4.62,2.97,1.2,6.43,1.76,10.37,0,.2.1.38.04.56l-.16.63c-.13.5-.25,1-.38,1.51-.27,1.02-.54,2.06-.82,3.14-.57,2.15-1.19,4.4-1.86,6.76-.41-1.02-2.22,5.11-4.28,12.33-1.03,3.61-2.13,7.48-3.15,10.87-.13.44-.26.88-.39,1.3-.06.15-.06.32-.08.48l-.04.34c-.03.21-.05.41-.07.61-.11.8-.21,1.57-.3,2.27-.2,1.41-.4,2.6-.59,3.48-.57,8.67-1.41,17.24-2.32,26.17-.11,1.12-.23,2.24-.34,3.36-.06.62-.13,1.25-.19,1.88l-.07.71c.1.21.22.42.34.63l.54.94c1.15,1.99,2.31,4,3.5,6.04,2.37,4.08,4.82,8.28,7.41,12.62-2.98-6.57,3.02,5.08,3.06,3.61,2.43,4.04,3.33,5.6,3.5,5.98l1.71,3.14.86,1.57c.13.25.33.57.35.68l.21.79,1.86,6.9c.78,3.3-1.45-4.24-1.49-3.78,2.95,9.89.97,4.23,2.79,10.81-.17-1.41,1.39,3.33,3.01,8.98l-2.11-8.02c2.27,6.85,3.03,9.87,3.81,12.91.39,1.52.78,3.04,1.35,5.04.15.5.3,1.03.47,1.6.06.2.05.15.06.21.02.15.04.31.06.46.05.31.09.64.14.98.21,1.35.45,2.89.72,4.69l-.83-4.53c1.14,7.37,3.78,27.25,5.24,34.43.02.33.05.69.07.98,0,.16.01.3.02.42.01.18.02.33.02.41,0,.17-.04.1-.13-.38-.07-.35-.15-.79-.27-1.62.08.59.16,1.17.24,1.77l.05.38.03.19c.03.05.08.1.11.15l.46.55.55.65c.74.87,1.49,1.75,2.24,2.64,1.52,1.77,3.06,3.57,4.61,5.38,3.12,3.61,6.28,7.27,9.36,10.84,1.54,1.79,3.05,3.55,4.54,5.27.74.86,1.47,1.71,2.19,2.55.36.42.71.84,1.07,1.25.12.14.05.05.16.22l.21.34.42.69c2.25,3.64,4.32,7.02,6.07,10.01l-.82-1.08c1.78,2.81,3.25,4.8,5.32,8.42-.16-.15-.82-1.07-.02.25.96,1.48,4.83,7.4,7.07,11.2l-2.1-3.13c1.13,1.86,2.16,3.63,3.23,5.26,1.11,1.6,2.16,3.12,3.18,4.58,2.05,2.89,3.94,5.54,5.77,8.12,3.69,5.14,7.21,9.97,11.38,15.95-.04.03.04.22.22.57.09.17.21.37.35.61.05.08.18.35.37.5.11.11.23.24.35.36.96,1,2.32,2.36,3.84,3.86,3.06,2.98,6.74,6.55,9.19,8.93l-.21-.12c14.68,13.96,25.18,23.39,38.92,36.14,2.07,2.04,4.63,5.02,7.7,8.34,3.08,3.32,6.58,7.09,10.22,11.03,1.83,1.96,3.7,3.96,5.57,5.97.93,1,1.87,2.01,2.8,3.01l1.39,1.5.69.75c.41.4.75.99,1.4,1.01,2.69.71,5.34,1.42,7.9,2.09,2.48.68,4.87,1.34,7.13,1.96-2.74-.83.57-.37,3.81.39,4.22,1.23,11.87,2.55,11.04,2.99l-1.51-.4c1.53.71,4.48,1.6,7.91,2.52.39.11.79.21,1.2.32.35.15.69.31,1.05.46.85.37,1.72.75,2.59,1.13,1.73.75,3.46,1.5,5.08,2.21l1.41-.36c8.21,4.24,19.3,9.01,29.5,13.19,10.2,4.19,19.45,7.92,23.8,10.55,1.05.37,2.15.79,3.28,1.23,1.19.47,2.42.95,3.64,1.43.25.09.48.21.75.2l.72.04.93.04c.62.02,1.23.05,1.83.07,1.21.04,2.38.07,3.48.08l-.28.59c6.14.51,10.74.89,15.71,1.3,2.48.18,5.06.37,7.96.58,1.45.1,2.99.2,4.63.31.82.05,1.67.11,2.56.16.31.02.61.04.93.06.2,0,.41.05.61,0l.61-.14c.48-.11.96-.23,1.46-.34l-.73.29c-.26.1-.4.17-.96.34-.46.2-.95.15-1.45.17-.15,0-.19,0-.26.01l-.2.02-.39.03c.29.02.58.04.86.06.49.02.98.1,1.44-.06.2-.05.41-.1.61-.15l.34-.09c.23-.06.45-.12.67-.18.87-.24,1.65-.49,2.39-.75,1.47-.51,2.71-1.04,3.94-1.57,2.45-1.06,4.82-2.12,8.68-3.02l2.56.48c3.65-.83,7.33-1.6,11.01-2.36l5.53-1.13,1.38-.28.64-.13c.08-.02.07,0,.23-.01l2.82-.1c7.51-.27,14.99-.65,22.36-1.53-.23.17-.66.51-3.08.68,1.76-.06,4.35-.16,7.19-.26,1.42-.05,2.91-.11,4.4-.16.67-.03,1.33-.06,1.99-.08.03,0,.06,0,.09,0l.24.05c.35.08.7.16,1.04.23,5.48,1.23,9.84,1.99,8.75.96-.05,1.02,15.07,3.46,23.06,4.77l-1.39.46c1.72.13,3.02.23,4.16.31.57.05,1.1.09,1.61.13.72.09,1.5.22,2.24.29,1.1-.59,2.29-1.24,3.83-2.07,1.3-.68,2.91-1.5,5.04-2.56,2.09-.86,2.05-.28-.76.8,6.99-2.79,5.03-3.1,13.48-6.56l-2.89,1.86c7.05-3.19,6.39-3.17,10.03-5.47,1.07-.58,2.45-1.24,3.93-1.91.74-.33,1.51-.66,2.27-.99.77-.31,1.56-.58,2.32-.84,3.04-1.05,5.69-1.81,6.35-1.72.8-.77,4.52-2.87,8.82-4.41.67,0-.81.77-1.55,1.16,6.09-2.2,10.46-4.21,14.38-6.01.98-.45,1.93-.88,2.87-1.3.5-.22.99-.43,1.48-.65l.49-.21c.15-.09.28-.22.42-.32l.68-.55c1.59-1.29,3.23-2.54,5.08-3.79.3.08.83-.19,1.45-.6-2.01,1.6-3.93,3.13-5.66,4.51-.51.4-1,.79-1.48,1.17-.31.23-.74.33-1.04.47-.23.09-.46.19-.69.28-.9.36-1.74.7-2.5,1-3.02,1.21-4.77,1.89-4.42,1.72.26.63,7.99-2.38,2.24.98,1.49-.75,3.25-1.64,5.15-2.6.25-.12.5-.25.76-.38.43-.22.92-.34,1.26-.72l.53-.47.31-.29.62-.58c.84-.77,1.7-1.56,2.56-2.36,3.48-3.17,7.17-6.38,10.43-8.79.35-.19.69-.38.98-.49l-.61.58c1.5-1.12,2.77-2.21,3.93-3.29,2.09-1.53,3.42-2.49,5.36-4.04.55-.08,2.45-1.52,4.63-3.25l.32-.26s.06-.05.09-.07l.58-.23c.67-.27,1.34-.54,1.99-.81,1.3-.52,2.52-1.02,3.48-1.4-.59-.55,4.5-2.45-.44-1.12.63-.2-.7.37-3.25,1.42-.57.25-1.25.53-1.61.72.07-.05.15-.1.24-.16-.32.13-.64.26-.98.4-.13.05-.26.11-.4.16-.08.04-.18.06-.24.13-.55.44-1.13.92-1.74,1.41-1.35,1.09-2.82,2.28-4.39,3.54,1.16-1.17,2.36-2.35,3.75-3.56.35-.3.71-.6,1.08-.91.19-.15.38-.3.57-.46.16-.12.31-.24.47-.36.11-.1.26-.13.4-.18.23-.08.47-.16.71-.24.51-.17,1.04-.34,1.59-.5,1.81-1.22,3.81-2.53,4.95-3.22,5.65-1.15,16.01-4.69,17.65-4.69,1.45-.62,2.97-1.28,4.53-1.95,1.61-.68,3.26-1.37,4.92-2.07l1-.41c.26-.25.5-.53.74-.79l1.01-1.12,1.76-1.98c1.17-1.32,2.33-2.64,3.47-3.92,4.53-5.16,8.58-9.97,10.82-13.33,2.33-2.75,3.08-2.79,4.14-3.64-1.32,1.61-3.01,3.41-3.64,4.36,1.16-1.38,2.64-3.05,4.22-4.81.79-.88,1.6-1.79,2.41-2.69.25-.26.29-.36.43-.45l.66-.51c.47-.37.94-.73,1.4-1.08,3.67-2.85,6.75-5.35,7.18-6.21,7.52-5.09-3.62,3.68,6.31-3.86l-1.19,1.21c5.12-3.38,9.6-6.68,13.79-9.94.55-.43,1.09-.85,1.63-1.27l.61-.47.41-.65.56-.93c.66-1.12,1.32-2.24,1.98-3.34,1.29-2.23,2.58-4.44,3.87-6.67,2.59-4.46,5.24-8.98,8.24-13.75.76-1.19,1.54-2.4,2.33-3.63.4-.61.81-1.23,1.22-1.86.21-.31.42-.63.63-.94.24-.37.31-.48.59-.72,2.21-2.13,4.57-4.31,7.1-6.59-1.39,1.27-2.09,1.9-2.45,2.09,5.59-5.37,11.17-10.91,16.74-16.54,1.39-1.41,2.79-2.82,4.18-4.23l1.16-1.17.36-.37.14-.49.23-.9.74-2.89c.98-3.85,1.96-7.71,2.94-11.57.99-3.85,1.97-7.71,2.95-11.55.5-1.92.99-3.83,1.49-5.75l.75-2.86.37-1.37.53-1.33c2.88-7.32,5.8-14.54,8.75-21.6,1.64-4.02,2.47-6.29,3.09-8.18.3-.95.57-1.79.87-2.72.07-.21.14-.43.21-.65.1-.23.2-.48.31-.73.22-.51.45-1.05.72-1.66l1.21-1.5,3.6-8.34c2.71-5.84,5.4-10.72,8.21-16.01.7-1.33,1.41-2.68,2.14-4.07.18-.35.36-.7.55-1.06l.33-.65c.2-.25.11-.55.08-.85-.09-.83-.18-1.68-.28-2.54-.38-3.35-.84-6.96-1.44-10.99l.04,2.11c-.65-5.81-2.25-18.39-1.94-17.44-.1-.59-.4-1.89-.58-4.17l.1-.19-.47-3.56-.12-.89-.05-.37c.03-.11.06-.17.11-.33l.58-1.7,2.34-6.79c3.81-10.46-.2,1.78,5.2-13.55,1.95-5.72,5.55-16.29,4.77-14.16-.82,2.3-2.13,5.85-2.25,6l1.85-5.21c.18-1,1.6-5-3.33,7.64l-3.21,8.89-1.19,2.81,2.8-7.44c-1.7,4.18-2.63,6.89-3.68,9.92-.33.69-.85,1.91-1.54,3.65l-2.98,8.79c-.26.5.04-.49.13-.89.04-.2.03-.25-.13.12-.08.18-.2.47-.37.89-.09.22-.19.47-.3.76-.05.13-.1.26-.14.4-.05.14,0,.29,0,.44.02.18.03.38.05.59.59,4.31-.12-4.18.72,2.97.3,4.52.02,3.22.71,8.48-.03.75-.21-.36-.46-2.44.6,4.69,1.31,12.43,1.8,14.83.11,2.36.54,6.32.88,9.65.08.83.16,1.62.23,2.34.03.36.06.7.09,1.01.01.14.02.28.03.41,0,.05,0,.1,0,.14,0,.04-.05.08-.06.11l-.03.05-.07.12c-.11.18-.2.32-.28.44-.16.23-.26.31-.29.24-.58,1.37-3.43,7.59-5.38,11.47,3.02-7.35-7.41,14.46-7.12,12.25-.53,1.38-1.38,3.25-2.42,5.44-.53,1.09-1.1,2.26-1.7,3.49-.06.11-.14.31-.17.37l-.09.24-.19.49c-.13.32-.26.65-.39.98-.26.66-.53,1.34-.8,2.02-2.16,5.45-4.57,11.41-6.31,16.31.16-.56.48-1.66.85-2.5-2.24,5.4-3.09,6.9-4.63,10.33.16.46-.58,2.82-1.54,5.66-.11.36-.25.65-.4,1.26-.08.38-.16.76-.25,1.15-.17.77-.33,1.55-.5,2.31-.33,1.52-.63,2.98-.85,4.2-2.5,6.75.37-4.41-.81-2.39.61-.21-2.75,12.16-1.65,9.92-1.83,5.19-1.43,4.51-2.74,7.08.61,1.16-1.2,4.96-1.84,9.5-.63,1.89-1.03,2.94-1.3,3.59-.07.16-.13.3-.19.42-.05.09-.06.07-.09.1-.05.03-.1.05-.13.07-.04.02-.09.02-.14.04-.03.02-.02,0-.09.06-.11.1-.23.22-.38.36-.57.55-1.46,1.46-2.96,3.04-3.16,2.7,2.13-2.97,2.13-2.97ZM595.32,725.77s0-.01,0-.01c1.39-1.13,2.57-2.09,3.32-2.7-.69.56-1.65,1.35-3.31,2.71ZM582.09,736.22c.13-.06.28-.08.39-.19.18-.14.36-.28.55-.43.46-.36.95-.75,1.45-1.14,1-.79,2.06-1.64,3.15-2.51.64-.18.29.44-1.09,1.52.32-.36-.35.07-1.37.77-.51.35-1.1.77-1.71,1.19-.29.2-.57.39-.85.58-.16.12-.35.18-.53.21ZM613.69,717.63c-2.09,1.81-2.9,2.27-3.29,2.39,1-.83,2.17-1.81,3.71-3.08.08-.1.06-.12.07-.17,0,.04,0,.08,0,.12,0,.04-.07.14-.11.21-.1.16-.22.33-.4.53Z" fill="#414141" stroke-width="0"/><path d="M616.92,715c.36-.16.56-.27,1.04-.47-.55.15-1.06.3-1.59.46-.28.2-.57.4-.82.57.46-.19.94-.38,1.38-.56Z" fill="#414141" stroke-width="0"/><path d="M644.32,122.76l-.23-.29c.18.25.34.48.43.65-.13-.21-.12-.22-.2-.36Z" fill="#414141" stroke-width="0"/><polygon points="352.48 761.03 352.45 761.18 353.91 761.64 352.48 761.03" fill="#414141" stroke-width="0"/><path d="M716.02,184.61c.07.18.26.49.67,1.08,0-.07-.3-.52-.67-1.08Z" fill="#414141" stroke-width="0"/><path d="M737.53,219.39l2.39,5.35c-1.01-2.33-1.77-4.01-2.39-5.35Z" fill="#414141" stroke-width="0"/><path d="M755.39,245.82c.34.24.46.28.58.32-.02-.02-.03-.03-.04-.05l-.54-.27Z" fill="#414141" stroke-width="0"/><path d="M333.78,65.98c-.43.02-.85.04-1.23.07-2.89.25-.92.13,1.23-.07Z" fill="#414141" stroke-width="0"/><path d="M483.27,55.36c-1.59.23-3.16.46-4.82.64,2.68-.06,4.77-.13,4.82-.64Z" fill="#414141" stroke-width="0"/><path d="M199.72,154.96s0,0,0-.02c-.27.24-.51.45-.78.68l.78-.66Z" fill="#414141" stroke-width="0"/><path d="M471.19,55.77c.66.11,1.3.21,1.91.3.64.07,1.11.19,2,.19.31-.02.62-.03.92-.05.28-.02.56-.04.83-.06.54-.05,1.07-.1,1.59-.15-1.14.03-2.39.06-3.63.08-.64-.07-1.27-.13-1.9-.2-.59-.05-1.16-.09-1.72-.12Z" fill="#414141" stroke-width="0"/><path d="M786.66,374.74l.53,1.44s.04.05.09.16l-.62-1.6Z" fill="#414141" stroke-width="0"/><path d="M787.27,376.34l.61,1.59c-.27-.73-.51-1.37-.61-1.59Z" fill="#414141" stroke-width="0"/><path d="M789.18,381.28l-1.29-3.35c.43,1.16.96,2.6,1.29,3.35Z" fill="#414141" stroke-width="0"/><path d="M780.78,332.79l-.08-.49c0,.26.03.44.08.49Z" fill="#414141" stroke-width="0"/><path d="M781.57,320c-.23,3.05-.73,7.64-.93,11.9l.06.4c-.04-2.01.87-9.39.86-12.31Z" fill="#414141" stroke-width="0"/><path d="M774.55,268.06l3.33,10.21c-.45-1.83-1.03-4.24.57.37-3.85-12.99.55,2.77-3.89-10.59Z" fill="#414141" stroke-width="0"/><path d="M754.73,241.42c3.92,4.24.16-.24.45-.09-2.57-2.61-3.2-3.24-.45.09Z" fill="#414141" stroke-width="0"/><path d="M587.06,73.89c.3-.11.62-.2.97-.28-.19-.11-.36-.21-.52-.3-.17-.07-.3-.24-.48-.18-.33.02-.61.03-.85.04-.48.03-.78.06-.94.08-.34.05-.15.09.2.14.36.05.89.1,1.26.17.39.01.55.33.36.33Z" fill="#414141" stroke-width="0"/><path d="M540.43,75.33l1.59,1.48.8.74.4.37.61.53,1.38.58c.06.02.11.05.16.06l.2-.05.39-.1.75-.2-1.1.06h-.14s-.08-.04-.11-.07l-.22-.16-.45-.32-1.62-1.13-2.63-1.81Z" fill="#414141" stroke-width="0"/><polygon points="521.97 54.61 523.59 55.69 517.48 51.47 521.97 54.61" fill="#414141" stroke-width="0"/><path d="M160.69,181.78l1.55-.37c1.97-2.28,1.7-3.42-1.55.37Z" fill="#414141" stroke-width="0"/><path d="M79.41,328.23c-.3.92-.68,2.58-1,4.4-.04.23-.08.46-.12.69-.03.27-.15.7-.08,1.04.06.51.12,1.02.17,1.51.12.91.26,1.77.42,2.52-.08-.98-.17-1.95-.25-2.9-.02-.24-.04-.47-.05-.7,0-.25-.1-.66-.02-.98.09-.49.17-.97.26-1.43.31-1.69.57-3.15.67-4.14Z" fill="#414141" stroke-width="0"/><polygon points="307.96 747.5 304.67 746.26 310.8 748.77 307.96 747.5" fill="#414141" stroke-width="0"/><circle cx="709.64" cy="171.19" r="11.66" fill="#262626" stroke-width="0"/><circle cx="50.04" cy="381.21" r="11.66" fill="#262626" stroke-width="0"/><circle cx="798.46" cy="416.66" r="11.66" fill="#262626" stroke-width="0"/><circle cx="457.33" cy="777.07" r="11.66" fill="#262626" stroke-width="0"/></svg>