<?xml version="1.0" encoding="UTF-8"?><svg id="Layer_1" xmlns="http://www.w3.org/2000/svg" viewBox="0 0 834.64 829.43"><path d="M780.39,418.07c-2.38,18.45-4.78,36.83-6.51,55.35-.56,5.94-1.11,11.88-1.67,17.82-.06.69-.09,1.39-.19,2.07s-.03.23-.05.29c-.36,1.44-.91,2.85-1.36,4.27-3.36,10.55-6.47,21.21-10.09,31.67-3.22,9.31-7.06,18.46-10.59,27.66-2.97,7.75-5.7,13.92-9.31,22.04-3.39,7.63-6.06,16.23-10.96,23.04-6.62,9.2-13.17,18.44-19.85,27.6-5.5,7.54-11.35,14.85-17.03,22.27l-4.88,6.37c-.42.55-.82,1.11-1.26,1.64-.25.31-.66.74-.27.33-3.03,3.14-6.42,6.01-9.61,8.99-14.85,13.88-30.01,27.24-45.37,40.56-.41.36-.82.75-1.25,1.09-.34.26.45-.31-.24.13-1.54.98-3.16,1.85-4.74,2.77-5.62,3.28-11.23,6.56-16.85,9.84-6.73,3.93-13.47,7.82-20.24,11.68-5.73,3.26-11.47,6.52-17.2,9.78-1.85,1.05-3.71,2.08-5.54,3.15-1.14.67-.18.21-1.53.74-10.61,4.08-21.22,8.18-31.83,12.27-8.04,3.1-16.47,5.28-24.7,7.82-4.64,1.43-9.27,3.1-13.98,4.31-.76.2.11.04-.18.09-.55.09-1.13.07-1.68.1l-7.19.45c-20.68,1.28-41.36,2.44-62.05,3.5-8.16.42-16.33.41-24.5.53s-16.17.63-24.23-.42c-10.86-1.41-22.09-2.11-32.83-4.27-.32-.06.56.1-.1-.07s-1.3-.38-1.96-.57l-7.41-2.16c-6.39-1.87-12.78-3.73-19.17-5.6-7.55-2.21-14.75-4.88-22.12-7.68l-17.79-6.75c-1.39-.53-2.79-1.04-4.17-1.58.16.06.33.14-.23-.1-.69-.29-1.38-.59-2.07-.89-10.56-4.52-21.17-8.91-31.68-13.55-2.31-1.02-4.25-2.67-6.3-4.14-5.32-3.8-10.65-7.61-15.97-11.41-7.18-5.13-11.98-8.74-18.67-14.23-7.2-5.91-14.83-11.54-21.67-17.88-8.31-7.7-16.28-15.79-24.41-23.67-5.87-5.69-10.55-12.6-15.6-19-3.36-4.25-6.71-8.51-10.07-12.76-.89-1.13-.23-.23-.9-1.26-1.1-1.71-2.21-3.43-3.31-5.14-5.65-8.77-11.53-17.43-16.95-26.33-5.45-8.94-10.5-18.16-15.74-27.22-1-1.74-2-3.48-3.01-5.21-.68-1.16-.24-.13-.67-1.53-1.55-5.08-3.22-10.12-4.83-15.18-5.97-18.76-11.26-37.62-16.31-56.66-2.42-9.11-4.6-18.28-6.89-27.42l-1.93-7.68c-.19-.76-.39-1.52-.57-2.28-.08-.32-.23-1.19-.15-.46-.45-4.07-.15-8.35-.23-12.44-.17-8.99-1.2-18.42-.35-27.38,1.09-11.42,2.44-22.82,3.66-34.22.91-8.5,1.65-17.02,2.46-25.53.47-4.96.81-9.96,1.41-14.91.04-.36.14-.91.02-.29.09-.48.23-.96.34-1.43l1.62-6.79c1.55-6.47,3.09-12.94,4.64-19.41l1.79-7.5c.14-.6.27-1.21.43-1.81.22-.78-.02-.13.04-.3,1.65-4.19,4.15-8.22,6.18-12.24,2.91-5.77,5.82-11.53,8.74-17.3,3.6-7.13,6.46-14.56,9.5-21.94,2.26-5.47,4.52-10.94,6.78-16.41.26-.63.48-1.29.78-1.9.33-.67.1-.19.14-.26.78-1.24,1.73-2.4,2.58-3.58,6.53-9.07,12.88-18.29,19.61-27.22.46-.6-.19.23.11-.15.37-.47.77-.92,1.16-1.37l4.76-5.64c4.27-5.05,8.53-10.1,12.8-15.15,5.06-5.99,10.34-11.27,15.99-16.73,6.25-6.04,12.29-12.44,18.9-18.1l26.02-22.27c1.74-1.49,3.23-2.54,5.76-4.38,5.23-3.82,10.46-7.63,15.69-11.45,3.54-2.58,7.01-5.59,10.77-7.86,2.79-1.68,6.05-2.84,9.01-4.2,6.03-2.79,12.07-5.59,18.1-8.38l6.47-2.99c.46-.21.92-.44,1.39-.64.23-.1-.47.2.19-.07,10.42-4.25,20.98-8.16,31.46-12.24,7.66-2.98,15.99-3.86,24.04-5.4l16.33-3.13c.47-.09.93-.19,1.4-.27-.32.05-.23.03.33-.04,1.91-.26,3.83-.46,5.74-.69,10.55-1.27,21.11-2.82,31.69-3.8s20.35-1.36,30.51-2.04c7.89-.53,15.45-.16,23.37.22,19.95.96,39.7,2.72,59.6,4.53,1.54.14.69-.01,1.66.32,1.88.65,3.75,1.33,5.62,2,6.17,2.2,12.34,4.4,18.52,6.6,7.37,2.62,14.51,4.89,22.06,6.89,6.47,1.72,12.94,3.44,19.41,5.16,1.99.53,3.97,1.1,5.97,1.59,1.41.34.37-.04,1.56.58,10.1,5.32,20.2,10.65,30.29,15.97,7.27,3.83,13.64,9.57,20.2,14.47s12.59,9.39,18.84,14.15c5.19,3.96,10.38,7.91,15.57,11.87,2.19,1.67,4.38,3.34,6.58,5.01.64.49,1.29.97,1.92,1.47.21.16,1.06.89.47.36,7.85,7.1,15.15,14.93,22.69,22.37,5.59,5.51,10.22,11.62,15.11,17.78,3.81,4.79,7.61,9.58,11.42,14.37,1.82,2.29,2.03,2.72,3.69,5.52,10.6,17.83,21.13,35.69,31.53,53.64l3.82,6.59c.36.62.73,1.23,1.08,1.86.28.51.32.55.2.29,1.76,3.92,2.98,8.18,4.45,12.22,2.25,6.18,4.5,12.36,6.75,18.55.82,2.25,1.77,4.42,2.18,6.78,3.52,19.92,6.97,39.83,10.09,59.82,1.29,8.22,2.22,14.18,3.19,21.87,1.27,9.99,2.54,19.98,3.81,29.98.25,1.96,3.36,1.98,3.11,0-2.34-18.42-4.63-36.82-7.5-55.17-1.31-8.35-2.53-16.72-4-25.04-1.95-11.05-3.25-22.46-5.89-33.36-.69-2.86-1.98-5.65-2.98-8.41-2.3-6.33-4.61-12.66-6.91-18.99-1.15-3.16-2.07-6.56-3.53-9.6-1.86-3.88-4.38-7.56-6.54-11.28-10.29-17.76-20.73-35.42-31.22-53.06-4.41-7.42-10.75-13.97-16.1-20.71-5-6.29-9.76-12.08-15.46-17.7-6.98-6.88-13.67-14.54-21.2-20.81-8.36-6.97-17.4-13.26-26.06-19.86-6.49-4.94-13.03-9.8-19.56-14.68-6.57-4.91-12.81-10.13-20.06-13.95-5.79-3.05-11.57-6.1-17.36-9.15-3.88-2.05-7.75-4.52-11.8-6.22-2.99-1.26-6.45-1.8-9.59-2.63l-19.52-5.19c-7.69-2.05-15-4.58-22.51-7.25-6.04-2.15-12.08-4.3-18.12-6.45-2.35-.84-4.24-1.49-6.69-1.71-20.56-1.91-40.96-3.59-61.59-4.59-17.24-.83-34.61.22-51.79,2.04-11.26,1.19-22.5,2.7-33.74,4.05-8.31,1-16.51,2.88-24.72,4.45-5.34,1.02-10.72,1.93-16.04,3.07-2.54.55-4.93,1.71-7.35,2.65-9.87,3.84-19.89,7.44-29.65,11.54s-19.18,8.86-28.73,13.28c-2.44,1.13-5.08,2.08-7.32,3.57-4.39,2.92-8.56,6.24-12.81,9.35-6.82,4.98-13.94,9.68-20.36,15.18-8.67,7.42-17.45,14.74-26.03,22.28-7.01,6.16-13.51,12.99-20.22,19.48-5.71,5.52-10.77,11.03-15.9,17.11-5.86,6.94-12.28,13.67-17.62,21.02-6.78,9.33-13.48,18.72-20.22,28.07-1.43,1.98-2.23,3.72-3.17,5.99-2.4,5.82-4.81,11.64-7.21,17.46-1.95,4.72-3.82,9.49-5.86,14.18-.16.36-.34.75-.12.28-.21.44-.44.88-.66,1.31l-3.15,6.23c-3.05,6.04-6.1,12.08-9.15,18.12-1.51,2.98-3.48,6.03-4.59,9.19-1.42,4.04-2.05,8.57-3.04,12.73-1.53,6.42-3.07,12.84-4.6,19.26-1.86,7.77-2.29,15.62-3.04,23.58s-1.53,16.62-2.42,24.91c-1.19,11.14-2.96,22.37-3.59,33.55-.55,9.74.32,19.76.5,29.51.06,3.26-.25,6.77.26,10.01.68,4.36,2.19,8.74,3.27,13.02,2.19,8.72,4.25,17.48,6.6,26.16,5.37,19.82,10.87,39.42,17.1,58.99,1.33,4.19,2.36,8.66,4.05,12.72,1.25,3.01,3.29,5.84,4.91,8.65,4.9,8.47,9.58,17.1,14.72,25.42,5.88,9.53,12.13,18.84,18.19,28.26,4.37,6.79,9.68,12.94,14.68,19.28s9.8,12.97,15.66,18.66c7.81,7.57,15.39,15.5,23.48,22.77,7.57,6.8,15.79,12.98,23.65,19.43,6.1,5.01,12.42,9.54,18.85,14.14,5.21,3.72,10.42,7.45,15.63,11.17,2.03,1.45,3.65,2.52,5.92,3.49,10.65,4.55,21.29,9.11,31.94,13.66,15.62,6.67,31.77,12.62,48.07,17.38,6.46,1.89,12.92,3.77,19.38,5.66,2.66.78,5.33,1.76,8.07,2.19,11.3,1.78,22.72,2.96,34.06,4.43,8.38,1.09,17.02.28,25.45.16s16.03-.2,24.05-.62c21.03-1.08,42.04-2.29,63.06-3.59,2.48-.15,4.93-.11,7.31-.81,5.41-1.61,10.8-3.33,16.19-4.99,7.96-2.45,15.97-4.69,23.74-7.69,10.15-3.91,20.67-7.33,30.59-11.79,3.03-1.36,5.88-3.27,8.76-4.91,5.85-3.33,11.7-6.66,17.55-9.98,6.95-3.95,13.86-7.98,20.76-12.01,7.27-4.24,15.44-7.91,21.82-13.45,15.85-13.74,31.42-27.58,46.74-41.9,2.55-2.38,5.42-4.66,7.71-7.3,2.78-3.22,5.22-6.82,7.81-10.2,5.47-7.14,11.13-14.17,16.38-21.47,6.74-9.38,13.49-18.75,20.23-28.13,1.47-2.05,2.31-4.41,3.33-6.71,2.69-6.07,5.39-12.14,8.08-18.2,6.94-15.62,13.58-31.6,18.97-47.82,3.62-10.88,6.97-21.87,10.45-32.79.75-2.34,1.03-4.31,1.26-6.77.59-6.31,1.18-12.62,1.77-18.93,1.66-17.79,4.03-35.46,6.31-53.18.25-1.98-2.86-1.96-3.11,0Z" fill="#262626" stroke-width="0"/><path d="M799.05,410.87c-3.58,9.84-7.15,19.68-10.73,29.52-.9,2.47-2.56,5.38-2.62,8.04-.12,4.72,1.11,9.84,1.63,14.52.71,6.36,1.43,12.72,2.14,19.07.16,1.45.39,2.91.49,4.36,0-.14.44-1.03-.02-.18-.35.66-.67,1.33-1,2-5.12,10.26-10.33,20.48-15.36,30.78-3.98,8.15-6.81,17.03-10.13,25.47-2.94,7.48-5.18,14.54-7.24,22.32-1.68,6.38-3.37,12.76-5.05,19.14-.47,1.78-1.07,3.58-1.43,5.4-.17.87,0,.14.17-.07-.32.4-.75.75-1.11,1.11l-24.48,24.45c-1.72,1.72-2.87,3.6-4.2,5.65-3.52,5.44-7.04,10.87-10.56,16.31-2.38,3.68-4.58,7.59-7.19,11.11.49-.67.61-.52,0-.11-.65.44-1.27.93-1.89,1.4l-6.48,4.78c-5.31,3.92-10.62,7.84-15.93,11.77-2.11,1.56-4.43,3-6.29,4.86-8.03,8.02-15.51,16.68-23.24,24.99-.45.48-.93.95-1.36,1.46-.66.78.63-.21.16.02-1.44.71-3.04,1.2-4.53,1.79l-18.11,7.16c-3.97,1.57-8.35,2.83-12.15,4.8-2.85,1.48-5.39,4.13-7.89,6.13-5.23,4.18-10.46,8.35-15.69,12.53l-5.45,4.35c-.37.3-.73.62-1.12.89.19-.14.91-.39-.02-.08-10.66,3.61-21.03,8.52-31.46,12.75-7.93,3.22-15.63,7.05-23.4,10.63-2.88,1.33-5.76,2.66-8.64,3.99-1.61.74-3.84,1.35-5.25,2.42-.94.71-.09-.31.54.1-.32-.21-1-.2-1.36-.3-2.14-.58-4.35-.96-6.51-1.44-6.53-1.44-13.06-2.89-19.59-4.33-3.8-.84-7.77-2.16-11.64-2.57-3.54-.38-7.45.33-11,.52-6.59.36-13.17.72-19.76,1.08-8.03.44-15.44,2.42-23.3,4.23-6.04,1.39-12.08,2.78-18.12,4.17-3.23.74-3.25.72-6.58.51-11.32-.73-22.78-.99-34.05-2.21-1.16-.13-.18.17-1.55-.47-1.97-.92-4.02-1.68-6.03-2.52-6.16-2.58-12.32-5.16-18.48-7.74-7.97-3.34-13.71-5.77-21.85-9.23-6.01-2.56-12.02-5.11-18.03-7.67-2.21-.94-4.34-1.98-6.67-2.56-11.23-2.81-22.47-5.61-33.7-8.42-.67-.17-1.35-.4-2.02-.51-.78-.12-.45-.19.03.19-1.11-.89-2.05-2.16-3.03-3.19-4.41-4.64-8.81-9.27-13.22-13.91-12.29-12.94-25.28-25.03-38.28-37.27-8-7.53-16.02-15.05-24.03-22.58-2.48-2.33-2.85-2.62-4.64-5.22-3.53-5.12-7.06-10.24-10.59-15.36-4.52-6.56-8.98-13.06-13.14-19.84-3.51-5.71-7.02-11.43-10.54-17.14-1.59-2.58-3.03-5.36-4.88-7.76-6.85-8.86-14.51-17.2-21.73-25.77-.86-1.01-1.7-2.41-2.74-3.25.56.45.25,1.51.32.4.04-.74-.21-1.6-.31-2.33-.82-6.08-1.63-12.15-2.45-18.23-1.08-8.02-1.86-15.74-4.17-23.47-1.89-6.31-3.77-12.62-5.66-18.93-1.04-3.49-1.76-7.39-3.25-10.72s-3.91-6.7-5.8-9.95c-3.39-5.81-6.78-11.61-10.17-17.42l-3.56-6.1c-.27-.47-.59-.93-.83-1.42-.3-.64,0,1.05.11.18.59-4.74.93-9.52,1.39-14.27.62-6.4,1.25-12.81,1.87-19.21.15-1.51.19-3.08.45-4.57.03-.18-.09.51.08-.17s.38-1.35.57-2.02c3.14-11.05,6.28-22.1,9.43-33.15.68-2.4.18-4.62-.08-7.1-.67-6.49-1.34-12.98-2.01-19.47-.47-4.55-1.26-9.18-1.42-13.75-.02-.51-.07.58-.02-.17.04-.65.2-1.32.3-1.96l1.13-7.47c1-6.6,2-13.21,3-19.81l1.04-6.9c.07-.49.11-1,.22-1.48.03-.12-.73.85-.02.16,8.11-7.94,15.92-16.21,23.87-24.3,1.65-1.68,4.38-3.55,5.07-5.87,1.34-4.5,1.41-9.83,2.07-14.48.91-6.38,1.83-12.76,2.74-19.14.23-1.6.4-3.23.69-4.82.14-.76-.66.81-.16.2.4-.48.89-.9,1.32-1.34,14.38-14.61,28.7-29.25,42.89-44.05,5.6-5.84,11.18-11.22,17.25-16.57,6.74-5.94,14.1-11.55,20.27-18.1,14.08-14.93,28.09-29.9,41.97-45.01,2.92-3.18,5.71-6.64,8.83-9.62-.09.09-1,.43-.09.12.71-.24,1.4-.51,2.11-.77l7.46-2.74c8.91-3.26,18.19-6.06,26.86-9.92,10.33-4.59,20.47-9.66,30.7-14.49,1.12-.53,2.28-1.25,3.47-1.64-1.08.35-.6.13.08.18.82.06,1.7-.05,2.52-.07,6.19-.18,12.37-.35,18.56-.53,8.01-.23,15.96-.41,23.94-1.09,10.13-.86,20.59-1.04,30.63-2.64,10.61-1.7,21.16-4.57,31.66-6.84,1.74-.38,3.52-.93,5.29-1.14.74-.09-.06-.02.19-.02.56,0,1.15.12,1.7.18,5.76.61,11.52,1.22,17.28,1.83,8.12.86,16.04,2.05,24.18,1.69,6.53-.3,13.06-.59,19.59-.89,4.23-.19,8.9-.99,13.12-.59-.15-.01-.91-.49-.25.09.52.46,1.14.85,1.7,1.26l6.09,4.54c5.4,4.03,10.81,8.06,16.21,12.08l6.09,4.54c.81.61,1.67,1.49,2.67,1.75s2.23-.03,3.2-.06l7.81-.24c6.7-.21,13.4-.41,20.1-.62l7.3-.22c.61-.02,1.22-.02,1.83-.06.94-.05-.64-.36-.17-.1,9.73,5.19,18.97,11.61,28.37,17.37,1.29.79,2.77,1.49,3.96,2.43.21.17-.39-.33.12.17s.93,1.07,1.39,1.59c3.87,4.41,7.74,8.83,11.6,13.24l11.22,12.81c1.62,1.85,3.64,2.83,5.77,4.1,5.55,3.31,11.1,6.63,16.64,9.94,3.68,2.2,7.65,4.2,11.16,6.67-.42-.29-.07-.03.23.22.66.54,1.28,1.14,1.92,1.71l5.88,5.23c4.95,4.4,9.9,8.8,14.84,13.2,6.1,5.43,10.81,11.64,15.95,18.02,3.75,4.65,7.49,9.3,11.24,13.94.41.5.86.99,1.23,1.53.49.7-.14-.25.17.3.77,1.4,1.4,2.9,2.09,4.34,2.82,5.86,5.65,11.71,8.47,17.57,1.84,3.82,3.37,8.21,5.68,11.78,1.75,2.71,4.52,5.08,6.68,7.47,4.52,5,9.04,10.01,13.57,15.01l4.96,5.49c.4.45.81.89,1.21,1.34.63.71-.35-.9-.06-.14,1.69,4.41,3.07,8.97,4.6,13.44,2.08,6.09,4.17,12.18,6.25,18.27.46,1.35,1.19,2.8,1.44,4.21-.03-.15-.06-.37-.05.22,0,.71-.1,1.45-.15,2.16-.82,11.67-1.64,23.33-2.46,35-.17,2.39.27,4.53.65,6.91l3.07,19c.68,4.23,1.04,8.69,2.08,12.85.72,2.9,2.05,5.75,3.06,8.55,3.45,9.53,6.89,19.06,10.34,28.58.66,1.83,3.61,1.04,2.94-.81-3.62-10-7.23-20-10.85-30-.92-2.54-2.08-5.08-2.64-7.72-1.11-5.18-1.7-10.53-2.55-15.77l-2.86-17.68c-.1-.64-.26-1.3-.31-1.95-.07-.79,0,.14,0-.25.01-1.55.22-3.13.33-4.67.45-6.41.9-12.83,1.35-19.24.34-4.89,1.25-10.08,1.05-14.98-.11-2.7-1.6-5.54-2.47-8.08-2.2-6.44-4.41-12.88-6.61-19.32-1.11-3.26-1.83-7.6-3.75-10.5-2.05-3.09-5.25-5.81-7.73-8.55-4.56-5.05-9.12-10.09-13.68-15.14-1.42-1.57-2.83-3.15-4.26-4.71-.95-1.04-.35-.18-.91-1.38-4.88-10.36-9.95-20.64-14.93-30.96-1.05-2.19-2.33-3.77-3.86-5.68l-11.97-14.85c-2.97-3.68-5.76-7.68-8.99-11.15-2.17-2.33-4.82-4.34-7.2-6.45-4.99-4.43-9.97-8.87-14.96-13.3-2.22-1.97-4.36-4.24-6.81-5.91-9.17-6.24-19.2-11.47-28.73-17.16-2.94-1.75-3.03-1.87-5.32-4.49-4.15-4.73-8.3-9.47-12.44-14.2-3.36-3.84-6.56-8-10.17-11.61-1.93-1.93-4.66-3.16-6.98-4.58-5.69-3.48-11.38-6.97-17.07-10.45-2.29-1.4-4.57-2.8-6.86-4.2-.87-.53-1.89-1.43-2.9-1.71s-2.37,0-3.4.04l-7.81.24c-6.7.21-13.4.41-20.1.62l-7.3.22c-.61.02-1.22.03-1.83.06-.99.04.72.47.14.06-3.69-2.64-7.29-5.43-10.93-8.15l-15.92-11.87c-1.92-1.43-4.28-4.07-6.74-4.32-4.78-.47-10.11.46-14.91.67-6.33.29-12.66.57-19,.86-8.41.38-16.84-1.14-25.19-2.02-5.22-.55-10.52-1.43-15.76-1.67-2.59-.12-5.26.83-7.79,1.37-6.6,1.43-13.2,2.85-19.8,4.28l-7.99,1.73c-.76.16-1.52.33-2.28.49-.3.07-1.19.23-.47.13-10.73,1.55-21.78,1.86-32.58,2.78-8.35.71-16.74.74-25.12.98-5.59.16-11.19.32-16.78.48-2.5.07-4.37,1.23-6.64,2.31-10.04,4.74-19.98,9.83-30.17,14.23-.19.08.49-.2-.2.07s-1.34.49-2.01.74l-7.34,2.69c-6.4,2.35-12.8,4.69-19.2,7.04-2.51.92-5.94,1.54-8.03,3.26-3.54,2.91-6.52,7.1-9.61,10.47-13.75,14.98-27.42,30.1-41.64,44.64-6.55,6.7-14.13,12.58-21.16,18.76-6.16,5.43-11.75,11.08-17.45,17.01-5.99,6.25-11.94,12.55-18.02,18.72-8,8.13-16.58,15.94-24.11,24.5-1.65,1.88-1.47,4.7-1.82,7.13-.93,6.47-1.85,12.94-2.78,19.42-.65,4.56-1.26,9.12-1.96,13.67-.12.77.65-.79.17-.21-.42.5-.92.94-1.38,1.4l-5.1,5.19c-4.72,4.8-9.44,9.61-14.16,14.41-2.46,2.5-6.13,5.16-8.01,8.15-.6.95-.6,2.07-.77,3.18l-1.15,7.6c-1,6.6-2,13.2-3,19.8-.44,2.89-1.28,5.99-1.27,8.92,0,4.74,1,9.68,1.49,14.39.66,6.42,1.33,12.85,1.99,19.27.15,1.49.51,3.09.47,4.59,0,.25.08-.56-.05.17s-.42,1.48-.63,2.2c-3.14,11.03-6.38,22.05-9.42,33.11-.67,2.43-.74,4.96-.99,7.46-.64,6.52-1.27,13.05-1.91,19.57l-.85,8.74c-.13,1.33-.59,3.03-.43,4.37.34,2.78,3.19,6.01,4.56,8.37,3.38,5.8,6.77,11.6,10.15,17.4,1.95,3.35,4.35,6.69,5.97,10.23-.35-.76.03.26.1.48.28.89.54,1.79.8,2.69.81,2.71,1.62,5.41,2.43,8.12,1.86,6.23,3.73,12.45,5.59,18.68.49,1.62,1.03,3.24,1.46,4.88.17.64-.06-.46.07.15s.17,1.27.26,1.9c.8,5.97,1.6,11.94,2.41,17.92.74,5.52,1.48,11.05,2.22,16.57.35,2.61,1.88,3.93,3.58,5.94,7.19,8.52,14.95,16.79,21.66,25.69.27.36-.3-.43.1.18s.73,1.19,1.1,1.79l4.12,6.71c3.54,5.76,7.08,11.52,10.62,17.28,4.3,7,9.03,13.68,13.69,20.45s8.9,13.96,14.98,19.68c7.74,7.28,15.49,14.55,23.23,21.83,13.58,12.78,27.06,25.47,39.9,38.98,4.23,4.45,8.46,8.9,12.69,13.35,1.92,2.02,2.84,2.43,5.55,3.11,11.2,2.8,22.37,5.72,33.6,8.39,1.5.36.65.08,1.73.51,1.92.76,3.8,1.62,5.7,2.43,6.15,2.62,12.3,5.23,18.45,7.85,7.2,3.06,14.4,6.1,21.61,9.12,6.1,2.56,12.2,5.11,18.31,7.67,2.36.99,4.76,2.4,7.32,2.66,11.37,1.14,22.87,1.48,34.27,2.22,2.57.17,4.26.04,6.77-.54l17.83-4.11c5.34-1.23,10.69-2.42,16.02-3.69,1.51-.36.59-.22,1.78-.3,2.08-.13,4.17-.23,6.26-.34,6.62-.36,13.25-.73,19.87-1.09l7.52-.41c.59-.03,1.2-.11,1.78-.1.66.01-.48-.09.22,0,4.68.62,9.4,2.08,14,3.09,6.37,1.41,12.74,2.82,19.12,4.22,2.4.53,5.13,1.73,7.48.85,4.84-1.82,9.53-4.4,14.22-6.56,5.66-2.61,11.32-5.22,16.98-7.83,2.85-1.31,3.34-1.52,6.39-2.76,6.01-2.44,12.03-4.88,18.04-7.31,4.22-1.71,8.79-3.11,12.84-5.2,2.71-1.4,5.11-3.87,7.49-5.77,5.31-4.24,10.63-8.48,15.94-12.73l5.58-4.45c.4-.32.79-.66,1.2-.96.11-.08-1.03.44-.04.09,4.83-1.72,9.57-3.79,14.34-5.67,5.75-2.27,11.49-4.55,17.24-6.82,2.55-1.01,3.73-1.65,5.59-3.65,7.72-8.31,15.27-16.82,23.19-24.94.4-.41.31-.37.16-.23.39-.34.85-.63,1.27-.94l5.71-4.21c5.44-4.02,10.87-8.03,16.31-12.05,2.39-1.76,5.53-3.43,7.45-5.72,2.89-3.45,5.08-7.85,7.52-11.62,3.48-5.38,6.96-10.75,10.45-16.13,1.88-2.91,2.14-3.3,4.44-5.6,4.4-4.39,8.8-8.79,13.2-13.18,3.64-3.64,7.73-7.11,11.06-11.04,1.66-1.96,1.9-5.14,2.54-7.57,1.7-6.42,3.39-12.84,5.09-19.25,2.08-7.89,4.45-15.01,7.43-22.61,2.38-6.05,4.76-12.11,7.14-18.16.62-1.58,1.19-3.19,1.87-4.75.26-.6-.19.42.08-.16.3-.63.62-1.25.94-1.88,5.14-10.29,10.32-20.56,15.41-30.87,1.19-2.41.54-4.56.24-7.23-.73-6.46-1.45-12.92-2.18-19.37-.5-4.41-1.54-9.1-1.52-13.54,0-.73-.11.31-.02-.15.1-.5.37-1.02.54-1.49l2.31-6.35c3.47-9.56,6.95-19.12,10.42-28.68.67-1.85-2.28-2.65-2.94-.81Z" fill="#262626" stroke-width="0"/><circle cx="709.64" cy="171.19" r="11.66" fill="#262626" stroke-width="0"/><circle cx="50.04" cy="381.21" r="11.66" fill="#262626" stroke-width="0"/><circle cx="798.46" cy="416.66" r="11.66" fill="#262626" stroke-width="0"/><circle cx="457.33" cy="777.07" r="11.66" fill="#262626" stroke-width="0"/></svg>