<?xml version="1.0" encoding="UTF-8"?><svg id="Layer_1" xmlns="http://www.w3.org/2000/svg" viewBox="0 0 1110.4 407.03"><line x1="267.75" y1="339.42" x2="296.21" y2="339.42" fill="none" stroke="#000" stroke-miterlimit="10" stroke-width=".86"/><line x1="267.94" y1="328.58" x2="282.17" y2="328.58" fill="none" stroke="#000" stroke-miterlimit="10" stroke-width=".86"/><line x1="267.94" y1="317.75" x2="282.17" y2="317.75" fill="none" stroke="#000" stroke-miterlimit="10" stroke-width=".86"/><line x1="267.94" y1="306.91" x2="282.17" y2="306.91" fill="none" stroke="#000" stroke-miterlimit="10" stroke-width=".86"/><line x1="267.94" y1="296.08" x2="282.17" y2="296.08" fill="none" stroke="#000" stroke-miterlimit="10" stroke-width=".86"/><line x1="267.94" y1="285.24" x2="287.86" y2="285.24" fill="none" stroke="#000" stroke-miterlimit="10" stroke-width=".86"/><line x1="267.94" y1="274.4" x2="282.17" y2="274.4" fill="none" stroke="#000" stroke-miterlimit="10" stroke-width=".86"/><line x1="267.94" y1="263.57" x2="282.17" y2="263.57" fill="none" stroke="#000" stroke-miterlimit="10" stroke-width=".86"/><line x1="267.94" y1="252.73" x2="282.17" y2="252.73" fill="none" stroke="#000" stroke-miterlimit="10" stroke-width=".86"/><line x1="267.94" y1="241.9" x2="282.17" y2="241.9" fill="none" stroke="#000" stroke-miterlimit="10" stroke-width=".86"/><line x1="267.94" y1="231.06" x2="296.21" y2="231.06" fill="none" stroke="#000" stroke-miterlimit="10" stroke-width=".86"/><line x1="268.04" y1="220.45" x2="282.27" y2="220.45" fill="none" stroke="#000" stroke-miterlimit="10" stroke-width=".86"/><line x1="268.04" y1="209.61" x2="282.27" y2="209.61" fill="none" stroke="#000" stroke-miterlimit="10" stroke-width=".86"/><line x1="268.04" y1="198.77" x2="282.27" y2="198.77" fill="none" stroke="#000" stroke-miterlimit="10" stroke-width=".86"/><line x1="268.04" y1="187.94" x2="282.27" y2="187.94" fill="none" stroke="#000" stroke-miterlimit="10" stroke-width=".86"/><line x1="268.04" y1="177.1" x2="287.95" y2="177.1" fill="none" stroke="#000" stroke-miterlimit="10" stroke-width=".86"/><line x1="268.04" y1="166.27" x2="282.27" y2="166.27" fill="none" stroke="#000" stroke-miterlimit="10" stroke-width=".86"/><line x1="268.04" y1="155.43" x2="282.27" y2="155.43" fill="none" stroke="#000" stroke-miterlimit="10" stroke-width=".86"/><line x1="268.04" y1="144.59" x2="282.27" y2="144.59" fill="none" stroke="#000" stroke-miterlimit="10" stroke-width=".86"/><line x1="268.04" y1="133.76" x2="282.27" y2="133.76" fill="none" stroke="#000" stroke-miterlimit="10" stroke-width=".86"/><line x1="268.04" y1="122.92" x2="296.31" y2="122.92" fill="none" stroke="#000" stroke-miterlimit="10" stroke-width=".86"/><line x1="268.13" y1="112.31" x2="282.37" y2="112.31" fill="none" stroke="#000" stroke-miterlimit="10" stroke-width=".86"/><line x1="268.13" y1="101.47" x2="282.37" y2="101.47" fill="none" stroke="#000" stroke-miterlimit="10" stroke-width=".86"/><line x1="268.13" y1="90.63" x2="282.37" y2="90.63" fill="none" stroke="#000" stroke-miterlimit="10" stroke-width=".86"/><line x1="268.13" y1="79.8" x2="282.37" y2="79.8" fill="none" stroke="#000" stroke-miterlimit="10" stroke-width=".86"/><path d="M356.6,333.68c.31.6.73,1.92.73,3.61,0,3.79-2.57,6.26-6.42,6.26s-6.68-2.65-6.68-6.75c0-1.35.34-2.55.65-3.17l1.77.52c-.31.55-.6,1.4-.6,2.65,0,2.88,2.13,4.44,4.75,4.44,2.91,0,4.7-1.87,4.7-4.36,0-1.3-.34-2.16-.62-2.81l1.71-.39Z" fill="#000" stroke-width="0"/><path d="M347.9,331c-1.3,0-2.36.03-3.4.1v-2l2.03-.1v-.08c-1.2-.7-2.31-1.87-2.31-3.95,0-1.71,1.04-3.01,2.52-3.56v-.05c-.7-.39-1.25-.88-1.64-1.4-.57-.75-.88-1.59-.88-2.78,0-1.66,1.09-4.13,5.46-4.13h7.4v2.23h-7.12c-2.42,0-3.87.88-3.87,2.73,0,1.3.96,2.31,2.08,2.7.31.1.73.18,1.14.18h7.77v2.23h-7.53c-2,0-3.46.88-3.46,2.62,0,1.43,1.14,2.47,2.29,2.83.34.13.73.18,1.12.18h7.59v2.23h-9.17Z" fill="#000" stroke-width="0"/><path d="M320.55,334c3.32,0,5.21,2.46,5.21,5.18s-1.88,5.18-5.23,5.18h-8.01c-3.35,0-5.23-2.46-5.23-5.18,0-2.72,1.88-5.18,5.21-5.18h8.06ZM309.33,339.18c0,1.65,1.23,2.96,3.17,2.96h8.06c1.94,0,3.17-1.31,3.17-2.96s-1.23-2.93-3.17-2.93h-8.06c-1.94,0-3.17,1.31-3.17,2.93Z" fill="#000" stroke-width="0"/><path d="M325.55,230.55v2.25h-15.46l1.86,2.59h-2.46l-1.99-2.59v-2.25h18.05Z" fill="#000" stroke-width="0"/><path d="M325.55,120.02v10.6h-1.88l-7.51-6.36c-1.44-1.23-2.67-2.04-4.03-2.04-1.88,0-2.83,1.44-2.83,2.93,0,1.62.97,2.9,2.83,2.96v2.22c-2.98,0-4.84-2.35-4.84-5.18s1.86-5.18,4.95-5.18c2.15,0,3.87,1.57,5.26,2.72l6.02,4.97v-7.64h2.04Z" fill="#000" stroke-width="0"/><circle cx="977.31" cy="236" r="104.05" fill="none" stroke="#000" stroke-miterlimit="10" stroke-width="2"/><path d="M886.2,224.22l7.37.57c3.68.29,5.07,2.15,4.86,4.91-.21,2.76-1.88,4.39-5.54,4.1l-7.39-.57.12-1.55,7.39.57c2.72.21,3.86-.75,4.01-2.66.15-1.91-.83-3.04-3.55-3.25l-7.39-.57.12-1.55Z" fill="#000" stroke-width="0"/><path d="M889.26,209.65l12.11,2.97-.36,1.47-10.44,2.98,9.16,2.25-.37,1.51-12.11-2.97.35-1.44,10.54-2.99-9.25-2.27.37-1.51Z" fill="#000" stroke-width="0"/><path d="M903.52,206.74l-.55,1.45-11.66-4.42.55-1.45,11.66,4.42Z" fill="#000" stroke-width="0"/><path d="M897.68,189.85l1.26.64-1.72,3.38,9.86,5.01-.7,1.39-9.86-5.01-1.72,3.38-1.26-.64,4.14-8.15Z" fill="#000" stroke-width="0"/><path d="M904.46,179.65l1.16.8-3.4,4.9,3.21,2.22,3.09-4.46,1.16.8-3.09,4.46,3.56,2.47,3.4-4.9,1.16.8-4.28,6.18-10.25-7.1,4.28-6.18Z" fill="#000" stroke-width="0"/><path d="M917,183.94l-9.12-8.51,2.71-2.91c1.89-2.02,4.22-2.24,7.17.5l.95.89c2.95,2.75,2.89,5.09,1,7.11l-2.71,2.91ZM917.65,175.06l-.95-.89c-2.26-2.11-3.77-2.08-5.07-.68l-1.65,1.77,7.06,6.58,1.65-1.77c1.31-1.4,1.23-2.91-1.03-5.02Z" fill="#000" stroke-width="0"/><path d="M930.3,159.69c-1.04-.34-1.99-.46-3.29.43-1.2.81-1.64,1.9-.91,2.98.83,1.23,2.04,1.01,3.74.26,2.22-1.01,3.92-1.11,5.22.8.91,1.35,1.06,3.49-1.51,5.24-1.67,1.14-3.29,1.4-4.82.81l.56-1.45c1.21.34,2.12.39,3.47-.52,1.69-1.15,1.65-2.26,1.05-3.14-.66-.97-1.6-1.29-3.75-.27-2.15,1.02-4.03.95-5.25-.85-1.01-1.48-.92-3.44,1.44-5.04,1.64-1.12,3.05-1.27,4.56-.63l-.51,1.4Z" fill="#000" stroke-width="0"/><path d="M941.38,150.61l.63,1.26-3.4,1.69,4.92,9.91-1.39.69-4.92-9.91-3.4,1.69-.63-1.26,8.19-4.07Z" fill="#000" stroke-width="0"/><path d="M947.96,161.31l.11-13.2,1.37-.46,8.1,10.42-1.56.53-1.82-2.4-4.66,1.58v3.01s-1.55.53-1.55.53ZM949.52,156.28l3.73-1.26-3.74-4.91v6.18Z" fill="#000" stroke-width="0"/><path d="M965.26,143.82l.27,1.38-3.73.72,2.11,10.86-1.53.3-2.11-10.86-3.73.72-.27-1.38,8.98-1.74Z" fill="#000" stroke-width="0"/><path d="M977.48,142.9l.08,1.41-5.95.33.22,3.9,5.41-.3.08,1.41-5.41.3.24,4.33,5.95-.33.08,1.41-7.51.42-.7-12.45,7.51-.42Z" fill="#000" stroke-width="0"/><path d="M989.1,146.32c-.59-.92-1.26-1.61-2.83-1.74-1.44-.12-2.47.45-2.58,1.74-.12,1.48.95,2.07,2.74,2.55,2.36.62,3.75,1.6,3.55,3.91-.14,1.62-1.37,3.38-4.47,3.12-2.02-.17-3.44-.98-4.26-2.41l1.35-.77c.73,1.02,1.4,1.64,3.02,1.78,2.03.17,2.71-.71,2.8-1.78.1-1.17-.43-2.01-2.74-2.57-2.31-.56-3.73-1.8-3.55-3.96.15-1.78,1.45-3.25,4.3-3.01,1.98.17,3.17.94,3.93,2.38l-1.28.76Z" fill="#000" stroke-width="0"/><path d="M1003.05,159.39c-2.63-.84-3.8-2.96-2.57-6.8l.42-1.31c1.23-3.84,3.4-4.89,6.04-4.05,2.63.84,3.8,2.96,2.57,6.8l-.42,1.31c-1.23,3.84-3.4,4.89-6.04,4.05ZM1001.96,153.07c-.94,2.94-.3,4.4,1.52,4.98,1.83.58,3.19-.23,4.13-3.18l.42-1.31c.94-2.94.3-4.4-1.52-4.98-1.83-.58-3.19.23-4.13,3.18l-.42,1.31Z" fill="#000" stroke-width="0"/><path d="M1023.12,154.22l-.62,1.27-5.36-2.61-1.84,3.77,4.87,2.38-.62,1.27-4.87-2.38-2.39,4.91-1.4-.68,5.47-11.21,6.76,3.3Z" fill="#000" stroke-width="0"/><path d="M1024.66,169.74l11.15-7.07,1.13.9-4.36,12.47-1.29-1.02,1.03-2.83-3.85-3.06-2.53,1.64-1.29-1.02ZM1029.74,168.32l3.09,2.45,2.1-5.81-5.19,3.36Z" fill="#000" stroke-width="0"/><path d="M1041.84,178.86l8.26-2.45,1.03,1.14-9.25,8.36-1.04-1.15,6.79-6.13-6.89,2.13-.93-1.03,2.82-6.56-6.75,6.09-1.04-1.15,9.25-8.36,1.02,1.13-3.26,7.99Z" fill="#000" stroke-width="0"/><path d="M1058.99,189.03l-1.18.77-3.24-5.01-3.28,2.12,2.95,4.55-1.18.77-2.94-4.55-3.64,2.36,3.24,5.01-1.18.77-4.08-6.31,10.47-6.77,4.08,6.31Z" fill="#000" stroke-width="0"/><path d="M1053.2,205.47l3.7-4.55-1.22-2.68-4.78,2.19-.65-1.41,11.34-5.18,1.65,3.62c1.19,2.61.8,4.62-1.4,5.63-1.59.73-2.96.4-4.05-.85l-3.87,4.83-.72-1.58ZM1057.97,199.85c.88,1.92,1.83,2.44,3.23,1.8,1.41-.65,1.64-1.71.77-3.63l-1.01-2.2-3.99,1.83,1.01,2.2Z" fill="#000" stroke-width="0"/><path d="M1055.51,212.08l-.48-1.48,11.87-3.81.48,1.48-11.87,3.81Z" fill="#000" stroke-width="0"/><path d="M1066.61,221.66c1.83-.81,2.29-1.91,1.99-3.42-.37-1.88-1.75-2.67-4.78-2.07l-1.35.27c-3.03.6-4,1.86-3.62,3.74.32,1.6,1.28,2.34,3.15,2.4l.29,1.47c-2.82.16-4.36-1.27-4.82-3.59-.54-2.71.75-4.75,4.7-5.54l1.35-.27c3.95-.79,5.92.61,6.46,3.32.48,2.41-.48,4.26-3.08,5.18l-.3-1.49Z" fill="#000" stroke-width="0"/><path d="M1058.77,226.9l12.67,3.72.07,1.44-12.24,4.95-.08-1.64,2.81-1.1-.24-4.91-2.9-.82-.08-1.64ZM1063.18,229.77l.19,3.94,5.75-2.26-5.95-1.68Z" fill="#000" stroke-width="0"/><path d="M912.1,305.35c-3.33-3.19-3.52-7.21,1.13-12.06l1.58-1.65c4.65-4.85,8.68-4.83,12-1.64,3.33,3.19,3.52,7.21-1.13,12.06l-1.58,1.65c-4.65,4.85-8.68,4.83-12,1.64ZM915.11,295.08c-3.56,3.72-3.68,6.36-1.38,8.57s4.94,1.98,8.51-1.73l1.58-1.65c3.56-3.72,3.68-6.36,1.38-8.57-2.3-2.21-4.94-1.98-8.51,1.73l-1.58,1.65Z" fill="#000" stroke-width="0"/><path d="M949.18,305.43l-9.88,18.28-2.23-1.2-.42-18.1-7.48,13.83-2.28-1.23,9.88-18.28,2.17,1.17.4,18.26,7.55-13.97,2.28,1.23Z" fill="#000" stroke-width="0"/><path d="M967.84,310.61l-.55,2.28-9.67-2.31-1.51,6.33,8.79,2.1-.55,2.28-8.79-2.1-1.68,7.03,9.67,2.31-.55,2.29-12.19-2.91,4.82-20.21,12.19,2.91Z" fill="#000" stroke-width="0"/><path d="M995.91,315.85c-1.19-3.11-3-3.97-5.53-3.59-3.16.47-4.59,2.69-3.84,7.79l.34,2.26c.76,5.09,2.78,6.8,5.94,6.33,2.68-.4,4.01-1.94,4.24-5.05l2.47-.37c.03,4.72-2.47,7.16-6.37,7.74-4.56.68-7.86-1.63-8.84-8.28l-.34-2.26c-.99-6.64,1.49-9.81,6.05-10.49,4.05-.6,7.05,1.14,8.38,5.54l-2.5.37Z" fill="#000" stroke-width="0"/><path d="M1014.04,302.52l.91,2.17-9.16,3.85,2.52,6,8.33-3.5.91,2.17-8.33,3.5,2.8,6.66,9.16-3.85.91,2.17-11.55,4.86-8.06-19.16,11.55-4.86Z" fill="#000" stroke-width="0"/><path d="M1029.98,291.13l12.7,16.45-2,1.55-16.71-6.96,9.61,12.44-2.05,1.58-12.7-16.45,1.95-1.51,16.85,7.04-9.7-12.56,2.05-1.58Z" fill="#000" stroke-width="0"/><path d="M1042.58,275.95l1.86,1.44-3.88,5,14.56,11.3-1.59,2.05-14.56-11.3-3.88,5-1.86-1.44,9.34-12.04Z" fill="#000" stroke-width="0"/><circle cx="719.78" cy="229.1" r="110.94" fill="none" stroke="#000" stroke-miterlimit="10" stroke-width="2"/><path d="M630.93,194.74l14.02,4.52-.55,1.71-12.56,2.64,10.61,3.42-.56,1.75-14.02-4.52.54-1.67,12.68-2.64-10.71-3.45.56-1.75Z" fill="#000" stroke-width="0"/><path d="M647.31,166.94l1.33,1.01-4.26,5.61,3.67,2.79,3.87-5.1,1.33,1.01-3.87,5.1,4.08,3.1,4.26-5.61,1.33,1.01-5.37,7.08-11.74-8.91,5.37-7.08Z" fill="#000" stroke-width="0"/><path d="M674.93,161.69l-1.56.98-10.88-10.57,1.63-1.02,8.42,8.38-3.41-11.53,1.54-.97,9,8.1-3.93-11.28,1.63-1.02,4.8,14.39-1.57.99-8.93-7.91,3.27,11.47Z" fill="#000" stroke-width="0"/><path d="M712.73,142.19l.37,5.61-1.83.12-.96-14.71,4.69-.31c3.39-.22,5.46,1.35,5.65,4.21.19,2.83-1.64,4.67-5.05,4.89l-2.86.19ZM715.48,140.34c2.49-.16,3.45-1.3,3.33-3.11-.12-1.83-1.21-2.83-3.71-2.67l-2.86.19.38,5.78,2.86-.19Z" fill="#000" stroke-width="0"/><path d="M751.04,137.31l-.43,1.61-6.8-1.84-1.2,4.45,6.19,1.67-.43,1.61-6.19-1.67-1.33,4.95,6.8,1.84-.43,1.61-8.58-2.31,3.84-14.23,8.58,2.31Z" fill="#000" stroke-width="0"/><path d="M779.72,152.39l-8.33,12.15-1.48-1.01,1.06-12.79-6.3,9.19-1.51-1.04,8.33-12.15,1.44.99-1.08,12.9,6.37-9.28,1.51,1.04Z" fill="#000" stroke-width="0"/><path d="M802.4,177l-11.97,8.59-1.05-1.46,5.35-11.67-9.06,6.5-1.07-1.49,11.97-8.59,1.02,1.42-5.41,11.77,9.15-6.56,1.07,1.49Z" fill="#000" stroke-width="0"/><path d="M812.77,198.91l-5.22,5.01,7.09,1.43.6,2.07-9.36-2.06-6.07,1.77-.51-1.76,6.07-1.77,6.8-6.76.6,2.07Z" fill="#000" stroke-width="0"/><path d="M721.79,320.27h-2.92v-20.05l-3.36,2.41v-3.19l3.36-2.58h2.92v23.41Z" fill="#000" stroke-width="0"/><path d="M439.01,270.98h-8.15l11.02-56.65-10.83,6.81,1.73-9.01,10.93-7.29h8.15l-12.85,66.14Z" fill="#000" stroke-width="0"/><path d="M469.94,208.25c0-2.43-.88-3.17-2.98-3.17-2.49,0-3.83,1.29-4.59,5.18l-.33,1.66c-.72,3.68.15,5.18,2.58,5.18,2.23,0,3.43-1.03,4.2-3.17h1.82c-.94,3.22-2.95,4.88-6.17,4.88s-5.27-2.01-4.31-6.89l.33-1.66c.96-4.88,3.32-6.89,6.8-6.89,2.98,0,4.48,1.51,4.48,4.88h-1.84Z" fill="#000" stroke-width="0"/><path d="M479.28,217c-1.05,1.33-2.34,1.82-4.11,1.82-2.63,0-4.44-1.9-3.85-4.94l.28-1.44c.61-3.11,2.41-4.9,5.27-4.9s3.94,2.01,3.39,4.9l-.22,1.14h-6.91l-.07.31c-.39,1.88.33,3.37,2.21,3.37,1.36,0,2.1-.46,2.73-1.27l1.27,1.03ZM473.41,212.03h5.14c.33-1.88-.04-2.93-1.88-2.93-2.01,0-2.8,1.09-3.26,2.93Z" fill="#000" stroke-width="0"/><path d="M482.84,207.7h1.75l-.2,1.07c.7-.81,1.55-1.23,3.17-1.25,2.12-.02,3.74,1.22,3.15,4.29l-1.33,6.83h-1.75l1.31-6.8c.46-2.34-.57-2.69-1.97-2.69-1.64,0-2.82.85-3.17,2.67l-1.33,6.83h-1.75l2.12-10.94Z" fill="#000" stroke-width="0"/><path d="M492.49,207.7h1.4l.48-2.41h1.75l-.48,2.41h2.52l-.31,1.58h-2.52l-1.07,5.56c-.31,1.64-.24,2.14,1.23,2.14h.88l-.33,1.66h-.94c-2.3,0-3.08-1.27-2.67-3.37l1.16-5.99h-1.4l.31-1.58Z" fill="#000" stroke-width="0"/><line x1="926.96" y1="214.62" x2="926.96" y2="240.09" fill="none" stroke="#000" stroke-linecap="round" stroke-miterlimit="10" stroke-width="2"/><line x1="936.57" y1="214.62" x2="936.57" y2="240.09" fill="none" stroke="#000" stroke-linecap="round" stroke-miterlimit="10" stroke-width="2"/><line x1="946.18" y1="214.62" x2="946.18" y2="240.09" fill="none" stroke="#000" stroke-linecap="round" stroke-miterlimit="10" stroke-width="2"/><line x1="955.78" y1="214.62" x2="955.78" y2="240.09" fill="none" stroke="#000" stroke-linecap="round" stroke-miterlimit="10" stroke-width="2"/><line x1="965.39" y1="214.62" x2="965.39" y2="240.09" fill="none" stroke="#000" stroke-linecap="round" stroke-miterlimit="10" stroke-width="2"/><line x1="975" y1="214.62" x2="975" y2="240.09" fill="none" stroke="#000" stroke-linecap="round" stroke-miterlimit="10" stroke-width="2"/><line x1="984.61" y1="214.62" x2="984.61" y2="240.09" fill="none" stroke="#000" stroke-linecap="round" stroke-miterlimit="10" stroke-width="2"/><line x1="994.22" y1="214.62" x2="994.22" y2="240.09" fill="none" stroke="#000" stroke-linecap="round" stroke-miterlimit="10" stroke-width="2"/><line x1="1003.83" y1="214.62" x2="1003.83" y2="240.09" fill="none" stroke="#000" stroke-linecap="round" stroke-miterlimit="10" stroke-width="2"/><line x1="1013.43" y1="214.62" x2="1013.43" y2="240.09" fill="none" stroke="#000" stroke-linecap="round" stroke-miterlimit="10" stroke-width="2"/><line x1="1023.04" y1="214.62" x2="1023.04" y2="240.09" fill="none" stroke="#000" stroke-linecap="round" stroke-miterlimit="10" stroke-width="2"/><line x1="1032.65" y1="214.62" x2="1032.65" y2="240.09" fill="none" stroke="#000" stroke-linecap="round" stroke-miterlimit="10" stroke-width="2"/><circle cx="476.9" cy="255.39" r="84.66" transform="translate(-40.9 412.02) rotate(-45)" fill="none" stroke="#000" stroke-miterlimit="10" stroke-width="2"/><path d="M467.14,273.15l-35.91,35.91,35.91-35.91c0-.28-.02-.57-.02-.85" fill="none" stroke="#000" stroke-miterlimit="10" stroke-width="2"/><path d="M468.88,283l-30.96,30.96,30.96-30.96" fill="none" stroke="#000" stroke-miterlimit="10" stroke-width="2"/><path d="M472.7,290.78l-27.35,27.35,27.35-27.35" fill="none" stroke="#000" stroke-miterlimit="10" stroke-width="2"/><path d="M478.05,297.02l-24.48,24.48,24.48-24.48" fill="none" stroke="#000" stroke-miterlimit="10" stroke-width="2"/><path d="M533.16,265.1l13.41-13.41-13.41,13.41" fill="none" stroke="#000" stroke-miterlimit="10" stroke-width="2"/><path d="M530.04,256.62l15.33-15.33-15.33,15.33" fill="none" stroke="#000" stroke-miterlimit="10" stroke-width="2"/><path d="M525.25,249.82l17.71-17.71-17.71,17.71" fill="none" stroke="#000" stroke-miterlimit="10" stroke-width="2"/><path d="M519.02,244.46l20.58-20.58-20.58,20.58" fill="none" stroke="#000" stroke-miterlimit="10" stroke-width="2"/><path d="M511.24,240.65l24.18-24.18-24.18,24.18" fill="none" stroke="#000" stroke-miterlimit="10" stroke-width="2"/><path d="M500.53,238.88c.29,0,.57.01.85.02l29.13-29.13-29.13,29.13" fill="none" stroke="#000" stroke-miterlimit="10" stroke-width="2"/><line x1="686.93" y1="192.54" x2="686.93" y2="269.79" fill="none" stroke="#000" stroke-linecap="round" stroke-miterlimit="10" stroke-width="2"/><line x1="704.45" y1="192.54" x2="704.45" y2="269.79" fill="none" stroke="#000" stroke-linecap="round" stroke-miterlimit="10" stroke-width="2"/><line x1="721.97" y1="192.54" x2="721.97" y2="269.79" fill="none" stroke="#000" stroke-linecap="round" stroke-miterlimit="10" stroke-width="2"/><line x1="739.49" y1="192.54" x2="739.49" y2="269.79" fill="none" stroke="#000" stroke-linecap="round" stroke-miterlimit="10" stroke-width="2"/><line x1="757.01" y1="192.54" x2="757.01" y2="269.79" fill="none" stroke="#000" stroke-linecap="round" stroke-miterlimit="10" stroke-width="2"/><line x1="683.37" y1="266.21" x2="760.63" y2="266.21" fill="none" stroke="#000" stroke-linecap="round" stroke-miterlimit="10" stroke-width="2"/><line x1="683.37" y1="248.69" x2="760.63" y2="248.69" fill="none" stroke="#000" stroke-linecap="round" stroke-miterlimit="10" stroke-width="2"/><line x1="683.37" y1="231.17" x2="760.63" y2="231.17" fill="none" stroke="#000" stroke-linecap="round" stroke-miterlimit="10" stroke-width="2"/><line x1="683.37" y1="213.65" x2="760.63" y2="213.65" fill="none" stroke="#000" stroke-linecap="round" stroke-miterlimit="10" stroke-width="2"/><line x1="683.37" y1="196.13" x2="760.63" y2="196.13" fill="none" stroke="#000" stroke-linecap="round" stroke-miterlimit="10" stroke-width="2"/></svg>