<?xml version="1.0" encoding="UTF-8"?><svg id="Layer_2" xmlns="http://www.w3.org/2000/svg" viewBox="0 0 74.34 219.12"><path d="M38.25,3.07c16.47,0,29.87,13.4,29.87,29.87v153.26c0,16.47-13.4,29.87-29.87,29.87h-2.16c-16.47,0-29.87-13.4-29.87-29.87V32.93C6.23,16.47,19.63,3.07,36.09,3.07h2.16M38.25,1h-2.16C18.53,1,4.16,15.37,4.16,32.93v153.26c0,17.56,14.37,31.93,31.93,31.93h2.16c17.56,0,31.93-14.37,31.93-31.93V32.93c0-17.56-14.37-31.93-31.93-31.93h0Z" fill="#000" stroke-width="0"/><path d="M40.28,17.07h3.06c8.67,0,15.76,9.84,15.76,21.87v38.31" fill="none" stroke="#000" stroke-linejoin="round" stroke-width=".41"/><line x1="4.16" y1="124.9" x2="70.18" y2="124.9" fill="none" stroke="#000" stroke-linejoin="round" stroke-width="1.9"/><line x1="4.16" y1="88.73" x2="70.18" y2="88.73" fill="none" stroke="#000" stroke-linejoin="round" stroke-width=".71"/><path d="M59.1,136.36v38.31" fill="none" stroke="#000" stroke-linejoin="round" stroke-width=".41"/></svg>