<?xml version="1.0" encoding="UTF-8"?><svg id="Layer_1" xmlns="http://www.w3.org/2000/svg" viewBox="0 0 144.57 144.57"><rect x="52.45" y="49.93" width="28.99" height="11.99" rx="5.99" ry="5.99" transform="translate(91.76 139.56) rotate(-146.4)" fill="none" stroke="#010101" stroke-miterlimit="10" stroke-width=".85"/><line x1="70.49" y1="50.59" x2="63.63" y2="60.92" fill="none" stroke="#010101" stroke-miterlimit="10" stroke-width=".43"/><rect x="97.85" y="80.09" width="28.99" height="11.99" rx="5.99" ry="5.99" transform="translate(158.27 219.97) rotate(-146.4)" fill="none" stroke="#010101" stroke-miterlimit="10" stroke-width=".85"/><line x1="115.89" y1="80.76" x2="109.03" y2="91.08" fill="none" stroke="#010101" stroke-miterlimit="10" stroke-width=".43"/><rect x="27.57" y="86.85" width="28.99" height="11.99" rx="5.99" ry="5.99" transform="translate(25.71 193.46) rotate(-146.4)" fill="none" stroke="#010101" stroke-miterlimit="10" stroke-width=".85"/><line x1="45.61" y1="87.51" x2="38.75" y2="97.84" fill="none" stroke="#010101" stroke-miterlimit="10" stroke-width=".43"/><rect x="87.39" y="45.22" width="28.99" height="11.99" rx="5.99" ry="5.99" transform="translate(158.4 150.26) rotate(-146.4)" fill="none" stroke="#010101" stroke-miterlimit="10" stroke-width=".85"/><line x1="105.43" y1="45.88" x2="98.57" y2="56.21" fill="none" stroke="#010101" stroke-miterlimit="10" stroke-width=".43"/><rect x="62.47" y="82.72" width="28.99" height="11.99" rx="5.99" ry="5.99" transform="translate(91.98 205.2) rotate(-146.4)" fill="none" stroke="#010101" stroke-miterlimit="10" stroke-width=".85"/><line x1="80.51" y1="83.38" x2="73.65" y2="93.71" fill="none" stroke="#010101" stroke-miterlimit="10" stroke-width=".43"/><rect x="17.08" y="52.56" width="28.99" height="11.99" rx="5.99" ry="5.99" transform="translate(25.47 124.79) rotate(-146.4)" fill="none" stroke="#010101" stroke-miterlimit="10" stroke-width=".85"/><line x1="35.12" y1="53.22" x2="28.26" y2="63.54" fill="none" stroke="#010101" stroke-miterlimit="10" stroke-width=".43"/><path d="M44.91,46.71c-.42.08-.85.13-1.26.13-.07,0-.14-.02-.21-.02.81.21,1.68.25,2.56.07,3.11-.63,5.13-3.67,4.5-6.78-.17-.84-.53-1.6-1.02-2.26.19.42.33.86.43,1.33.7,3.46-1.55,6.83-5,7.53Z" fill="none" stroke-width="0"/><path d="M58.99,76.77c-.94,1.42-2.39,2.39-4.06,2.73-.42.08-.85.13-1.27.13-.07,0-.14-.02-.21-.02.82.21,1.69.25,2.57.08,3.11-.63,5.13-3.67,4.5-6.78-.17-.86-.54-1.64-1.04-2.3.19.43.35.89.44,1.36.34,1.67,0,3.38-.94,4.8Z" fill="none" stroke-width="0"/><path d="M100.22,109.59c-.42.08-.85.13-1.28.13-.15,0-.3-.02-.45-.03.96.34,2,.43,3.03.23,3.11-.63,5.13-3.67,4.5-6.78-.2-1.01-.68-1.92-1.35-2.67.25.5.44,1.03.55,1.59.7,3.46-1.55,6.83-5,7.53Z" fill="none" stroke-width="0"/><path d="M65.31,113.72c-.42.08-.85.13-1.27.13-.18,0-.36-.03-.54-.05.96.35,2.03.46,3.1.24,3.11-.63,5.13-3.67,4.5-6.78-.21-1.05-.7-1.97-1.37-2.71.26.51.46,1.06.57,1.64.7,3.46-1.55,6.83-5,7.53Z" fill="none" stroke-width="0"/><path d="M79.84,41.99c-.42.08-.85.13-1.28.13-.07,0-.13-.01-.2-.01.83.21,1.7.24,2.56.07,3.11-.63,5.13-3.67,4.5-6.78-.17-.84-.53-1.6-1.02-2.26.19.42.33.86.43,1.33.7,3.46-1.55,6.83-5,7.53Z" fill="none" stroke-width="0"/><path d="M94.26,74.07c-.95,1.42-2.39,2.39-4.06,2.73-.42.08-.85.13-1.27.13-.17,0-.34-.03-.5-.04.98.35,2.03.45,3.07.24,3.11-.63,5.13-3.67,4.5-6.78-.2-1.01-.68-1.91-1.35-2.67.25.5.44,1.03.55,1.59.34,1.67,0,3.38-.94,4.8Z" fill="none" stroke-width="0"/><path d="M96.42,70.26c-.33-1.62-1.26-3.01-2.64-3.93-.02-.01-.04-.03-.07-.04.37.42.69.88.94,1.38.67.75,1.15,1.65,1.35,2.67.63,3.11-1.39,6.15-4.5,6.78-1.04.21-2.09.11-3.07-.24-.54-.04-1.06-.14-1.56-.31.03.02.05.04.07.05,1.03.68,2.2,1.04,3.41,1.04.41,0,.82-.04,1.23-.12,3.34-.67,5.51-3.94,4.84-7.28Z" fill="#010101" stroke-width="0"/><path d="M93.54,66.69s-.07-.04-.1-.06c.65.75,1.13,1.68,1.34,2.72.65,3.23-1.44,6.38-4.67,7.03-1.04.21-2.08.13-3.02-.18.03.02.05.05.08.07.39.26.82.45,1.25.61.17.01.33.04.5.04.42,0,.84-.04,1.27-.13,1.67-.34,3.12-1.31,4.06-2.73.94-1.42,1.28-3.13.94-4.8-.11-.56-.3-1.09-.55-1.59-.33-.37-.68-.71-1.11-.99Z" fill="#010101" stroke-width="0"/><path d="M85.72,75.56c-1.31-.84-2.3-2.19-2.63-3.84-.65-3.23,1.44-6.38,4.67-7.03,1.65-.33,3.28.05,4.56.94.49.16.95.39,1.4.67-.36-.41-.78-.78-1.24-1.09-1.42-.95-3.13-1.27-4.8-.94-3.46.7-5.7,4.08-5,7.53.46,2.3,2.12,4.06,4.2,4.78-.43-.29-.81-.64-1.15-1.02Z" fill="#010101" stroke-width="0"/><path d="M87.17,76.27s-.05-.05-.08-.07c-.49-.16-.95-.38-1.37-.65.34.38.72.72,1.15,1.02.5.17,1.03.27,1.56.31-.43-.16-.86-.35-1.25-.61Z" fill="#010101" stroke-width="0"/><path d="M93.44,66.63s.07.03.1.06c.42.28.78.62,1.11.99-.25-.5-.56-.96-.94-1.38-.44-.29-.91-.51-1.4-.67.42.29.79.62,1.13,1.01Z" fill="#010101" stroke-width="0"/><path d="M90.11,76.38c3.23-.65,5.32-3.8,4.67-7.03-.21-1.05-.69-1.97-1.34-2.72-.43-.27-.88-.48-1.34-.63,1.17.82,1.98,2.03,2.26,3.44.29,1.45,0,2.93-.82,4.16-.82,1.23-2.07,2.07-3.52,2.36-1.43.29-2.83,0-3.99-.72.31.36.65.68,1.05.96.94.31,1.98.39,3.02.18Z" fill="#010101" stroke-width="0"/><path d="M83.5,71.63c-.6-3,1.34-5.92,4.34-6.53.99-.2,1.98-.11,2.91.22.53.03,1.06.14,1.57.31-1.29-.89-2.91-1.27-4.56-.94-3.23.65-5.32,3.8-4.67,7.03.33,1.65,1.32,3,2.63,3.84-.35-.39-.64-.83-.87-1.3-.66-.72-1.14-1.61-1.34-2.63Z" fill="#010101" stroke-width="0"/><path d="M86.04,75.25c-.44-.27-.85-.6-1.2-.99.23.47.53.9.87,1.3.43.27.89.49,1.37.65-.4-.27-.74-.6-1.05-.96Z" fill="#010101" stroke-width="0"/><path d="M92,65.92s.06.06.1.08c.47.15.92.36,1.34.63-.33-.38-.71-.72-1.13-1.01-.51-.17-1.03-.27-1.57-.31.43.15.86.34,1.25.6Z" fill="#010101" stroke-width="0"/><path d="M50.92,40.03c-.32-1.56-1.2-2.91-2.5-3.82.43.48.79,1.03,1.06,1.64.49.67.85,1.43,1.02,2.26.63,3.11-1.39,6.15-4.5,6.78-.88.18-1.75.14-2.56-.07-.63-.02-1.25-.13-1.83-.33.99.62,2.1.94,3.24.94.41,0,.82-.04,1.23-.12,3.34-.67,5.51-3.94,4.84-7.28Z" fill="#010101" stroke-width="0"/><path d="M40.21,45.31c-1.2-.85-2.1-2.14-2.42-3.7-.65-3.23,1.44-6.38,4.67-7.03,1.56-.31,3.09.01,4.34.8.51.17,1.01.41,1.47.71.05.03.09.07.14.1-1.46-1.64-3.73-2.5-6.04-2.03-3.46.7-5.7,4.08-5,7.53.47,2.31,2.14,4.08,4.23,4.78-.05-.03-.11-.06-.16-.09-.46-.31-.87-.67-1.23-1.08Z" fill="#010101" stroke-width="0"/><path d="M48.18,36.56c.64.75,1.11,1.66,1.32,2.7.65,3.23-1.44,6.38-4.67,7.03-1.04.21-2.08.13-3.02-.18.5.32,1.05.55,1.64.7.07,0,.14.02.21.02.42,0,.84-.04,1.26-.13,3.46-.7,5.7-4.08,5-7.53-.09-.47-.24-.91-.43-1.33-.36-.49-.8-.92-1.3-1.28Z" fill="#010101" stroke-width="0"/><path d="M46.81,35.39c.51.32.98.71,1.37,1.18.51.36.94.79,1.3,1.28-.27-.61-.63-1.16-1.06-1.64-.05-.03-.09-.07-.14-.1-.46-.31-.96-.54-1.47-.71Z" fill="#010101" stroke-width="0"/><path d="M41.8,46.11c-.57-.19-1.1-.46-1.59-.8.36.41.77.77,1.23,1.08.05.03.11.06.16.09.58.2,1.2.31,1.83.33-.58-.15-1.13-.39-1.64-.7Z" fill="#010101" stroke-width="0"/><path d="M44.82,46.29c3.23-.65,5.32-3.8,4.67-7.03-.21-1.03-.67-1.95-1.32-2.7-.05-.03-.08-.08-.13-.11-.45-.3-.92-.52-1.42-.68,1.22.78,2.14,2.04,2.45,3.57.6,3-1.34,5.92-4.34,6.53-1.53.31-3.04-.05-4.24-.88.38.44.82.81,1.3,1.12.94.31,1.98.39,3.02.18Z" fill="#010101" stroke-width="0"/><path d="M38.21,41.54c-.6-3,1.34-5.92,4.34-6.53.84-.17,1.67-.13,2.45.07.62.01,1.22.12,1.81.31-1.25-.78-2.78-1.11-4.34-.8-3.23.65-5.32,3.8-4.67,7.03.31,1.56,1.21,2.85,2.42,3.7-.41-.46-.74-.98-.99-1.55-.48-.64-.84-1.39-1.01-2.23Z" fill="#010101" stroke-width="0"/><path d="M46.63,35.78c.5.16.97.38,1.42.68.05.03.09.07.13.11-.4-.46-.86-.86-1.37-1.18-.58-.19-1.19-.3-1.81-.31.58.15,1.13.38,1.63.7Z" fill="#010101" stroke-width="0"/><path d="M40.5,44.99c-.49-.34-.92-.75-1.28-1.23.25.57.58,1.09.99,1.55.49.34,1.02.61,1.59.8-.49-.31-.93-.68-1.3-1.12Z" fill="#010101" stroke-width="0"/><path d="M68.83,103.23c.36.4.66.85.91,1.33.67.74,1.16,1.66,1.37,2.71.63,3.11-1.39,6.15-4.5,6.78-1.08.22-2.14.11-3.1-.24-.5-.04-1-.13-1.47-.29,1,.67,2.18,1.07,3.43,1.07.4,0,.81-.04,1.22-.12,3.34-.67,5.51-3.94,4.84-7.28-.34-1.69-1.35-3.08-2.7-3.96Z" fill="#010101" stroke-width="0"/><path d="M68.56,103.55c.65.75,1.13,1.68,1.34,2.72.65,3.23-1.44,6.38-4.67,7.03-1.04.21-2.08.13-3.03-.18.4.28.84.51,1.31.68.18.02.36.05.54.05.42,0,.84-.04,1.27-.13,3.46-.7,5.7-4.08,5-7.53-.12-.58-.31-1.13-.57-1.64-.35-.39-.75-.72-1.18-1Z" fill="#010101" stroke-width="0"/><path d="M60.83,112.47c-1.31-.84-2.3-2.19-2.63-3.84-.65-3.23,1.44-6.38,4.67-7.03,1.66-.33,3.29.06,4.57.95.49.17.96.39,1.39.67-.36-.41-.78-.78-1.25-1.1-1.42-.94-3.13-1.28-4.8-.94-1.67.34-3.12,1.31-4.06,2.73-.94,1.42-1.28,3.13-.94,4.8.47,2.33,2.16,4.09,4.26,4.79-.44-.3-.86-.63-1.21-1.04Z" fill="#010101" stroke-width="0"/><path d="M68.56,103.55c.44.28.84.62,1.18,1-.24-.48-.55-.93-.91-1.33-.43-.28-.9-.51-1.39-.67.41.28.78.62,1.11,1Z" fill="#010101" stroke-width="0"/><path d="M62.2,113.13c-.49-.16-.95-.38-1.38-.65.35.4.77.74,1.21,1.04.47.16.96.25,1.47.29-.46-.17-.9-.4-1.31-.68Z" fill="#010101" stroke-width="0"/><path d="M58.62,108.55c-.29-1.45,0-2.93.82-4.16.82-1.23,2.07-2.07,3.52-2.37.37-.08.74-.11,1.11-.11.63,0,1.25.12,1.84.33.53.04,1.05.14,1.54.31-1.29-.89-2.92-1.28-4.57-.95-3.23.65-5.32,3.8-4.67,7.03.33,1.65,1.32,3,2.63,3.84-.33-.37-.59-.8-.82-1.24-.68-.72-1.18-1.64-1.39-2.68Z" fill="#010101" stroke-width="0"/><path d="M65.23,113.3c3.23-.65,5.32-3.8,4.67-7.03-.21-1.05-.69-1.97-1.34-2.72-.42-.27-.87-.48-1.34-.63,1.18.82,1.98,2.03,2.27,3.44.6,3-1.34,5.92-4.34,6.53-1.45.29-2.88-.02-4.04-.75.32.38.69.71,1.1.99.95.31,1.98.39,3.03.18Z" fill="#010101" stroke-width="0"/><path d="M61.1,112.14c-.4-.25-.77-.56-1.1-.91.23.45.5.87.82,1.24.43.27.89.49,1.38.65-.4-.28-.77-.61-1.1-.99Z" fill="#010101" stroke-width="0"/><path d="M67.11,102.84s.06.06.1.08c.48.15.93.37,1.34.63-.33-.38-.7-.71-1.11-1-.49-.17-1.01-.27-1.54-.31.42.15.83.34,1.22.6Z" fill="#010101" stroke-width="0"/><path d="M84.95,39.96c.91-1.38,1.24-3.02.91-4.64-.31-1.56-1.2-2.91-2.5-3.82.43.48.79,1.04,1.06,1.64.49.67.85,1.43,1.02,2.26.63,3.11-1.39,6.15-4.5,6.78-.86.18-1.73.14-2.56-.07-.62-.02-1.24-.13-1.83-.33.99.61,2.1.94,3.24.94.41,0,.82-.04,1.23-.12,1.62-.33,3.01-1.26,3.93-2.64Z" fill="#010101" stroke-width="0"/><path d="M83.12,31.85c.64.75,1.11,1.66,1.31,2.7.65,3.23-1.44,6.38-4.67,7.03-1.05.21-2.09.13-3.04-.18.52.33,1.07.57,1.65.71.07,0,.13.01.2.01.42,0,.85-.04,1.28-.13,3.46-.7,5.7-4.08,5-7.53-.09-.47-.24-.91-.43-1.33-.36-.49-.8-.92-1.31-1.28Z" fill="#010101" stroke-width="0"/><path d="M75.15,40.6c-1.2-.85-2.1-2.14-2.42-3.69-.65-3.23,1.44-6.38,4.67-7.03,1.56-.31,3.09.01,4.34.8.51.17,1.01.41,1.47.71.05.03.09.07.14.1-1.46-1.64-3.73-2.49-6.04-2.03-3.46.7-5.7,4.08-5,7.53.34,1.67,1.31,3.12,2.73,4.06.47.31.98.55,1.5.73-.05-.03-.11-.06-.17-.09-.46-.31-.87-.67-1.23-1.08Z" fill="#010101" stroke-width="0"/><path d="M76.72,41.39c-.56-.19-1.09-.45-1.57-.79.36.41.77.77,1.23,1.08.05.04.11.06.17.09.59.2,1.2.31,1.83.33-.58-.15-1.13-.39-1.65-.71Z" fill="#010101" stroke-width="0"/><path d="M81.75,30.68c.51.32.97.72,1.37,1.18.51.36.94.79,1.31,1.28-.27-.61-.63-1.16-1.06-1.64-.05-.03-.09-.07-.14-.1-.46-.31-.96-.54-1.47-.71Z" fill="#010101" stroke-width="0"/><path d="M79.76,41.58c3.23-.65,5.32-3.8,4.67-7.03-.21-1.03-.67-1.95-1.31-2.7-.05-.03-.08-.08-.13-.11-.46-.31-.96-.54-1.48-.7,1.25.78,2.19,2.04,2.51,3.59.6,3-1.34,5.92-4.34,6.53-1.45.3-2.93,0-4.16-.82,0,0,0,0-.01,0,.33.37.69.72,1.11,1,.04.02.07.04.11.06.95.31,1.99.39,3.04.18Z" fill="#010101" stroke-width="0"/><path d="M73.15,36.82c-.6-3,1.34-5.92,4.34-6.53.37-.07.73-.11,1.1-.11.44,0,.87.07,1.29.17.64,0,1.27.11,1.87.32-1.25-.78-2.79-1.11-4.34-.8-3.23.65-5.32,3.8-4.67,7.03.31,1.56,1.21,2.85,2.42,3.69-.42-.48-.76-1.01-1.01-1.59-.48-.64-.83-1.38-.99-2.19Z" fill="#010101" stroke-width="0"/><path d="M75.5,40.33c-.54-.36-.99-.81-1.37-1.32.25.58.59,1.12,1.01,1.59.48.34,1.01.61,1.57.79-.04-.02-.07-.04-.11-.06-.42-.28-.78-.63-1.11-1Z" fill="#010101" stroke-width="0"/><path d="M81.51,31.04c.52.16,1.01.39,1.48.7.05.03.09.07.13.11-.4-.46-.86-.86-1.37-1.18-.6-.2-1.23-.31-1.87-.32.58.14,1.13.37,1.63.68Z" fill="#010101" stroke-width="0"/><path d="M106.44,103.05c-.33-1.62-1.26-3.01-2.64-3.93-.02-.01-.05-.03-.07-.04.37.42.69.88.94,1.38.67.75,1.15,1.66,1.35,2.67.63,3.11-1.39,6.15-4.5,6.78-1.03.21-2.06.11-3.03-.23-.55-.04-1.09-.15-1.61-.33.03.02.05.04.08.06,1.03.68,2.2,1.04,3.41,1.04.41,0,.82-.04,1.23-.12,3.34-.67,5.51-3.94,4.84-7.28Z" fill="#010101" stroke-width="0"/><path d="M95.74,108.34c-1.31-.84-2.3-2.19-2.63-3.84-.65-3.23,1.44-6.38,4.67-7.03,1.65-.33,3.28.05,4.56.94.49.16.95.39,1.39.67-.36-.41-.77-.77-1.24-1.08-1.42-.95-3.13-1.28-4.8-.94-1.67.34-3.12,1.31-4.06,2.73-.94,1.42-1.28,3.13-.94,4.8s1.31,3.12,2.73,4.06c.46.31.96.54,1.47.71-.43-.29-.81-.64-1.14-1.02Z" fill="#010101" stroke-width="0"/><path d="M103.56,99.48s-.07-.04-.1-.06c.65.75,1.13,1.68,1.34,2.72.65,3.23-1.44,6.38-4.67,7.03-1.04.21-2.08.13-3.02-.18.03.02.05.05.08.07.41.27.85.46,1.3.62.15.01.3.03.45.03.42,0,.85-.04,1.28-.13,3.46-.7,5.7-4.08,5-7.53-.11-.56-.3-1.09-.55-1.59-.33-.37-.68-.71-1.1-.99Z" fill="#010101" stroke-width="0"/><path d="M103.46,99.42s.07.03.1.06c.42.28.78.62,1.1.99-.25-.5-.56-.96-.94-1.38-.44-.28-.91-.51-1.39-.67.42.29.79.62,1.13,1.01Z" fill="#010101" stroke-width="0"/><path d="M97.19,109.06s-.05-.05-.08-.07c-.49-.16-.95-.38-1.38-.65.33.38.72.72,1.14,1.02.52.18,1.06.29,1.61.33-.45-.16-.89-.35-1.3-.62Z" fill="#010101" stroke-width="0"/><path d="M100.13,109.17c3.23-.65,5.32-3.8,4.67-7.03-.21-1.05-.69-1.97-1.34-2.72-.43-.27-.88-.48-1.35-.63,1.17.82,1.98,2.03,2.27,3.44.29,1.45,0,2.93-.82,4.16-.82,1.23-2.07,2.07-3.52,2.37-1.43.29-2.83,0-3.99-.71.31.35.65.68,1.05.96.94.31,1.98.39,3.02.18Z" fill="#010101" stroke-width="0"/><path d="M93.52,104.42c-.29-1.45,0-2.93.82-4.16.82-1.23,2.07-2.07,3.52-2.36.37-.08.74-.11,1.11-.11.63,0,1.24.12,1.83.33.53.03,1.04.14,1.54.3-1.29-.89-2.91-1.27-4.56-.94-3.23.65-5.32,3.8-4.67,7.03.33,1.65,1.32,3,2.63,3.84-.35-.39-.64-.83-.87-1.29-.66-.72-1.14-1.61-1.34-2.63Z" fill="#010101" stroke-width="0"/><path d="M102.02,98.71s.06.06.1.08c.47.15.92.36,1.35.63-.33-.38-.71-.72-1.13-1.01-.5-.17-1.02-.27-1.54-.3.43.15.84.34,1.23.6Z" fill="#010101" stroke-width="0"/><path d="M96.06,108.04c-.44-.27-.85-.6-1.2-.99.23.47.53.9.87,1.29.43.27.89.49,1.38.65-.4-.27-.74-.6-1.05-.96Z" fill="#010101" stroke-width="0"/><path d="M60.94,72.82c-.32-1.6-1.24-2.92-2.47-3.8.42.47.76,1.01,1.02,1.58.5.66.86,1.44,1.04,2.3.63,3.11-1.39,6.15-4.5,6.78-.88.18-1.75.14-2.57-.08-.62-.02-1.23-.13-1.8-.32.96.59,2.06.93,3.23.93.4,0,.81-.04,1.22-.12,3.34-.67,5.51-3.94,4.84-7.28Z" fill="#010101" stroke-width="0"/><path d="M50.23,78.1c-1.2-.85-2.1-2.14-2.41-3.69-.65-3.23,1.44-6.38,4.67-7.03,1.57-.32,3.11.02,4.36.81.58.2,1.13.48,1.62.83-.37-.42-.79-.8-1.27-1.11-1.42-.94-3.13-1.28-4.8-.94-1.67.34-3.12,1.31-4.06,2.73-.95,1.42-1.28,3.13-.94,4.8.47,2.32,2.15,4.09,4.25,4.79-.53-.32-1.01-.72-1.42-1.18Z" fill="#010101" stroke-width="0"/><path d="M58.18,69.33c.65.75,1.12,1.67,1.34,2.72.65,3.23-1.44,6.38-4.67,7.03-1.04.21-2.08.13-3.02-.18.5.32,1.05.55,1.63.7.07,0,.14.02.21.02.42,0,.84-.04,1.27-.13,1.67-.34,3.12-1.31,4.06-2.73.94-1.42,1.28-3.13.94-4.8-.1-.48-.25-.93-.44-1.36-.37-.49-.81-.92-1.31-1.27Z" fill="#010101" stroke-width="0"/><path d="M58.18,69.33c.5.35.94.78,1.31,1.27-.26-.58-.6-1.11-1.02-1.58-.5-.35-1.04-.64-1.62-.83.5.31.95.7,1.33,1.15Z" fill="#010101" stroke-width="0"/><path d="M51.82,78.9c-.57-.19-1.11-.46-1.59-.8.41.47.9.86,1.42,1.18.57.19,1.18.3,1.8.32-.58-.15-1.13-.39-1.63-.7Z" fill="#010101" stroke-width="0"/><path d="M48.23,74.32c-.6-3,1.34-5.92,4.34-6.53.81-.16,1.63-.13,2.41.06.65,0,1.27.12,1.87.32-1.25-.79-2.79-1.12-4.36-.81-3.23.65-5.32,3.8-4.67,7.03.31,1.56,1.21,2.84,2.41,3.69-.4-.45-.72-.98-.97-1.54-.5-.65-.86-1.4-1.03-2.23Z" fill="#010101" stroke-width="0"/><path d="M54.84,79.08c3.23-.65,5.32-3.8,4.67-7.03-.21-1.04-.68-1.97-1.34-2.72-.48-.33-1-.6-1.56-.77.03.02.07.03.11.06,1.23.82,2.07,2.07,2.37,3.52.29,1.45,0,2.93-.82,4.16-.82,1.23-2.07,2.07-3.52,2.37-1.45.3-2.93,0-4.16-.82-.03-.02-.06-.05-.09-.07.38.44.82.82,1.31,1.13.94.31,1.98.39,3.02.18Z" fill="#010101" stroke-width="0"/><path d="M56.62,68.56c.56.18,1.08.44,1.56.77-.39-.45-.84-.83-1.33-1.15-.59-.2-1.22-.31-1.87-.32.58.14,1.13.37,1.65.7Z" fill="#010101" stroke-width="0"/><path d="M50.51,77.77c-.49-.34-.9-.75-1.25-1.22.25.57.57,1.09.97,1.54.49.34,1.02.61,1.59.8-.49-.31-.93-.69-1.31-1.13Z" fill="#010101" stroke-width="0"/></svg>