<?xml version="1.0" encoding="UTF-8"?><svg id="Layer_1" xmlns="http://www.w3.org/2000/svg" viewBox="0 0 144.57 144.57"><path d="M33.99,76.76c.17-.3.7-.44.4-.96-.04-.06.11-.23.17-.36.43.22.52.43.37.88-.89,2.66-1.28,5.37-.89,8.18.28,1.97-.19,3.88-.87,5.72-.27.74-.7,1.43-1.04,2.15-.06.13-.12.27-.13.4-.2,2.16-.24,4.33.12,6.47.21,1.25.71,2.45.84,3.7.13,1.16-.04,2.35-.12,3.52-.02.24-.2.5-.37.69-.45.47-.98.34-1.17-.28-.18-.58-.34-1.17-.51-1.75-.03-.09-.09-.18-.17-.31-.13.15-.24.27-.34.38-.52.55-1.14.47-1.45-.24-.19-.45-.3-.94-.48-1.56-.09.27-.09.42-.16.48-.29.23-.59.5-.93.6-.1.03-.43-.41-.53-.69-.77-2.13-1.5-4.28-2.26-6.42-.08-.23-.2-.5-.38-.63-.91-.67-1.28-1.7-1.82-2.62-1.04-1.77-1.61-3.64-1.49-5.72.04-.73-.18-1.48-.27-2.22-.04-.32-.05-.64-.05-.96,0-1.41,0-2.82,0-4.24,0-.18.01-.37-.04-.53-.64-2.03.02-3.84.96-5.6.36-.67.71-1.35,1.03-2.04-1.04.66-1.8,1.54-2.3,2.66-.58,1.29-1.18,2.56-1.78,3.84-.07.16-.17.35-.31.43-.2.1-.48.2-.67.13-.13-.05-.24-.4-.2-.58.09-.45.26-.89.42-1.32.57-1.5,1.11-3.02,1.74-4.5.82-1.94,1.99-3.57,4.03-4.44,2.36-1.01,3.97-2.84,5.32-4.97.93-1.46,1.96-2.86,3.03-4.22.81-1.03,1.94-1.44,3.25-1.19.23.04.5.07.65.21.41.4.71.2,1.13-.01.63-.32,1.32-.52,2-.74,1.85-.59,3.73-1.11,5.56-1.77,1.13-.4,2.04-1.21,2.7-2.21.78-1.18,1.88-1.81,3.21-2.15,1-.26,1.99-.58,2.99-.87,1.26-.37,2.28-1.1,3.07-2.15.85-1.13,1.68-2.27,2.48-3.43,1.8-2.64,4.32-3.86,7.46-3.72,1.4.06,2.5-.34,3.42-1.39.82-.92,1.65-1.85,2.59-2.63,1.48-1.24,3.18-1.98,5.19-1.72.38.05.79.04,1.17-.03,2.92-.56,5.83-.45,8.73.13,1.33.27,2.65.58,3.97.87.19.04.39.09.58.1,1.34.01,2.47.59,3.6,1.25.8.47,1.64.87,2.49,1.25,1.27.56,2.64.55,3.99.69,2.23.23,4.51.32,6.68.84,1.72.41,3.48,1,4.91,2.17.62.5,1.2,1.07,1.7,1.69,1.75,2.22,3.48,4.45,5.16,6.71,1.38,1.85,1.87,3.95,1.46,6.24-.03.17-.02.36-.03.53-.12,2.44.16,4.85.65,7.24.2.99.36,2,.13,3.03-.13.58-.3,1.03-1.03,1.11.49,1.41.36,2.75-.16,4.17-.78-.54-.78-1.43-1.24-2.2.14,1.17.27,2.22.4,3.26.06.46-.02.78-.51.99-.2.09-.35.43-.39.68-.18,1.19.16,2.28.67,3.36.45.93.78,1.91,1.14,2.88.08.21.06.47.08.7l-.15.07c-.14-.14-.34-.25-.41-.41-.42-.92-.8-1.86-1.2-2.79-.66-1.51-1.11-3.06-.81-4.74.03-.18-.07-.47-.2-.57-1.11-.83-1.38-2.1-1.72-3.31-.18-.65-.28-1.33-.38-2-.03-.21.08-.44.13-.66.06,0,.12,0,.19,0,.07.21.16.41.22.63.27,1,.54,2,.8,3,.22.85.72,1.45,1.7,1.81-.07-.8-.1-1.52-.19-2.22-.23-1.74-.79-3.39-1.68-4.89-.78-1.33-1.24-2.76-1.66-4.22-.77-2.69-1.12-5.41-1.01-8.21.11-2.9-.76-5.57-2.12-8.1-.5-.93-1.02-1.84-1.55-2.76-.15-.26-.34-.56,0-.73.14-.07.54.13.66.32.41.67.78,1.37,1.12,2.07.59,1.2,1.2,2.4,1.7,3.64.67,1.7.74,3.52.96,5.31.11.9.35,1.73.89,2.47-.32-2.94-1.11-5.81-1.27-8.76.08-.02.16-.04.23-.06.08.15.2.3.23.46.65,3.53,1.3,7.07,1.93,10.6.03.19-.15.42-.23.64-.2-.13-.49-.2-.59-.39-.29-.53-.51-1.1-.76-1.65-.11-.23-.24-.46-.36-.69-.06.02-.11.03-.17.05.1.82.12,1.66.31,2.45.42,1.7.93,3.38,1.4,5.06.02.09.05.17.08.25.76,1.59,1.53,3.17,2.28,4.73.02-.04.07-.16.12-.28l.14-.03c.28.76.57,1.52.85,2.27.07-.02.14-.03.21-.05-.17-1.5-.3-3.01-.51-4.5-.22-1.54-.47-3.07-.8-4.59-.33-1.5-.79-2.97-1.15-4.47-.35-1.48-.89-2.91-1.04-4.43.07-.03.13-.06.2-.08.1.16.25.31.29.48.9,3.44,2.06,6.81,2.61,10.34.15.93.19,1.88.29,2.83.03.28.04.58.12.84.04.14.22.24.34.36.08-.12.24-.25.24-.37,0-.82.01-1.64-.08-2.44-.23-1.95-.59-3.89-.75-5.84-.09-1.13.11-2.28.19-3.42.11-1.55-.3-2.97-1.21-4.19-1.77-2.38-3.59-4.73-5.44-7.05-.55-.69-1.21-1.33-1.94-1.81-1.67-1.11-3.56-1.78-5.53-2.08-1.79-.27-3.62-.31-5.43-.47-.73-.06-1.46-.16-2.18-.25-.24-.03-.49-.04-.84-.07.4,2.02.56,3.99.91,5.95-.09.02-.19.04-.28.06-.07-.14-.17-.27-.2-.42-.35-1.75-.71-3.5-1.03-5.26-.09-.47-.26-.75-.72-.95-.66-.28-1.26-.67-1.89-1.01-.25-.13-.51-.24-.9-.41.23,2.33-.13,4.45-.89,6.51-.09-.01-.18-.02-.27-.03.02-.26.02-.53.06-.79.18-1.32.44-2.64.52-3.97.04-.61-.21-1.26-.42-1.86-.08-.22-.36-.48-.59-.53-1.55-.34-3.1-.68-4.67-.92-1.87-.28-3.75-.58-5.64-.66-1.52-.06-3.06.2-4.59.31-.28.02-.58.07-.86.03-2.3-.32-3.98.74-5.46,2.35-.89.97-1.87,1.86-2.8,2.8-.53.53-1.21.53-1.89.57-1.17.08-2.36.09-3.51.32-1.57.31-2.74,1.34-3.78,2.51-.08.09-.07.28-.07.43,0,.44.1.91-.02,1.31-.54,1.78-1.17,3.53-1.71,5.3-.3.99-.55,2-.73,3.02-.28,1.57.18,3.06.67,4.51.09.27.52.43.81.61.18.11.38.18.65.3,0-.33.01-.58,0-.84-.1-1.64-.38-3.27-.09-4.92.37-2.09,1.04-4.08,1.87-6.02.62-1.43,1.14-2.9,1.2-4.48.01-.25.14-.49.23-.78.51.25.51.61.47.99-.16,1.56-.68,3.03-1.25,4.48-.97,2.43-1.84,4.91-1.85,7.56,0,1.38.21,2.77.37,4.15.1.81.29,1.62.51,2.43-.18-3.02-.01-6,.77-8.92.05,0,.1,0,.15,0,.02.16.07.32.05.47-.1,1.01-.27,2.02-.31,3.04-.05,1.37,0,2.75,0,4.12,0,.89.01,1.78-.03,2.67,0,.19-.22.37-.33.55-.15-.15-.36-.28-.44-.46-.18-.42-.34-.87-.44-1.32-.22-1-.87-1.67-1.65-2.24-.21-.15-.58-.18-.86-.14-.69.1-1.21-.11-1.67-.61-.42-.46-.89-.87-1.36-1.28-.24-.21-.49-.16-.56.18-.08.4-.22.82-.15,1.21.45,2.63.01,5.2-.37,7.78-.45,3-.94,6.01-.72,9.07.07.92.13,1.19.51,1.57.02-.05.06-.1.05-.14-.33-4.45.3-8.79,1.38-13.1.27-1.07.24-2.23.34-3.34.06-.74.11-1.47.16-2.21.09-.01.19-.03.28-.04.07.24.18.47.19.71.09,2.37-.16,4.71-.79,7-.82,3.03-.94,6.14-1.02,9.25-.01.46.12.92.13,1.38.01.48.06.98-.08,1.42-.19.62-.69.64-1.06.11-.6-.86-.71-1.86-.76-2.86-.17-2.89.24-5.74.67-8.59.23-1.52.42-3.05.61-4.57.05-.42,0-.85,0-1.38-.17.11-.23.13-.27.17-.43.34-.71.26-.73-.28-.04-.87,0-1.75.02-2.62,0-.21.03-.41.05-.67-.72.1-1.28-.17-1.76-.58-.11-.09-.14-.29-.2-.43.16-.06.32-.18.47-.17.23.02.44.13.67.2.64.2.86.05,1.02-.61.38-1.56.76-3.12,1.2-4.67.16-.56.46-1.08.75-1.76-.75.32-1.39.42-1.77,1.19-.56,1.14-1.13,2.29-1.96,3.3-1.44,1.76-2.36,3.78-2.49,6.1,0,.11,0,.24-.06.31-.15.17-.33.32-.49.47-.11-.18-.32-.37-.31-.55.06-1.07.16-2.13.25-3.2.02-.21.1-.43.06-.63-.03-.17-.13-.39-.27-.47-.55-.33-1.42.09-1.48.72-.25,2.78-.51,5.55-.72,8.33-.15,1.96-.22,3.92-.32,5.89-.01.26.03.52.05.78.05,0,.1,0,.16,0,.06-.71.12-1.42.19-2.12.15-1.58.3-3.17.46-4.75.03-.24.16-.47.24-.7.06.02.13.03.19.05-.11,2.05-.22,4.1-.33,6.17.35-1.41.63-2.82,1.04-4.19.44-1.49.99-2.95,1.51-4.41.1-.27.3-.51.46-.76.09.03.18.07.26.1-.06.32-.08.66-.19.97-.62,1.81-1.35,3.59-1.86,5.42-.75,2.71-.97,5.49-.53,8.28.34,2.15.74,4.3,1.09,6.45.1.65.1,1.32.14,1.97.01.21,0,.42.11.65.04-.08.1-.16.1-.25.28-3.24.13-6.47-.3-9.68-.15-1.09-.36-2.15-.14-3.24.05-.23.12-.46.18-.69.05,0,.09,0,.14,0,.04.12.09.24.11.36.21,1.45.51,2.89.6,4.35.15,2.46.18,4.92.24,7.39.01.43-.01.86-.08,1.28-.07.45-.19.9-.34,1.33-.13.36-.41.61-.84.5-.4-.1-.54-.42-.56-.82-.04-1.1-.02-2.22-.17-3.31-.22-1.64-.58-3.27-.85-4.91-.2-1.22-.34-2.44-.51-3.66-.02-.17-.1-.33-.26-.52-.07.18-.17.36-.2.55-.22,1.66-.41,3.33-.63,5-.08.62-.29,1.23-.32,1.84-.06,1.21-.03,2.42-.04,3.63-.02,1.27-.06,2.54-.09,3.8,0,.05,0,.11-.01.16-.07.34-.03.8-.49.81-.12,0-.3-.49-.37-.77-.22-.85-.43-1.7-.58-2.56-.25-1.51-.47-3.03-.67-4.56-.04-.29.02-.61.1-.9.51-1.67.58-3.38.38-5.1-.31-2.66-.04-5.32-.09-7.98-.03-2.2-.16-4.39-.17-6.59,0-.99.16-1.99.29-2.98.02-.15.21-.28.33-.42.09.17.26.34.26.52.02.34-.09.67-.09,1.01,0,.94,0,1.89.02,2.83.01,1.43.03,2.86.03,4.28,0,2.43-.03,4.86,0,7.29.01,1.18.18,2.36.16,3.53-.02,1.06-.11,2.14-.32,3.18-.33,1.67.06,3.27.3,4.89.06.41.14.83.21,1.24.05,0,.09,0,.14-.01,0-.15,0-.29,0-.44-.04-.57-.08-1.14-.13-1.71-.1-1.13-.07-2.22.24-3.34.73-2.64.8-5.36.75-8.09-.03-1.87.05-3.75.18-5.62.21-3.08.51-6.16.76-9.25.03-.32-.05-.64-.05-.96,0-.34.01-.68.09-1,.08-.34.33-.46.56-.12.19.28.41.27.69.23.31-.05.68-.13.94,0,.53.25.75-.02,1.03-.39,1.02-1.31,2.07-2.58,3.11-3.88.16-.21.29-.44.52-.8-.39.09-.65.16-.91.21-1.69.34-3.1,1.09-4.18,2.48-1.3,1.66-3.16,2.47-5.14,3.02-1.22.34-2.45.64-3.67,1-.49.15-.98.36-1.41.63-.81.51-1.59.56-2.41.06-.74-.45-1.13-.42-1.8.14-1.48,1.22-2.67,2.7-3.58,4.37-1.28,2.35-2.97,4.24-5.42,5.38-1.32.61-2.36,1.53-3.19,2.71-.26.38-.51.78-.68,1.21-.68,1.69-1.32,3.39-1.87,5.14.36-.76.72-1.51,1.08-2.27.04-.08.07-.16.1-.25.39-1.57,1.43-2.58,2.63-3.63,1.43-1.24,2.91-2.45,4.29-3.76.45-.43.85-.92,1.29-1.36.16-.16.39-.27.58-.4.05.04.09.08.14.13-.11.18-.19.38-.33.54-1.08,1.29-2.18,2.55-3.63,3.47-.43.28-.74.81-.99,1.29-.51.96-.92,1.97-1.43,2.93-.75,1.42-1.06,2.87-.85,4.49.17,1.36.1,2.74.12,4.12,0,.21-.03.42.05.65.53-2.22,1.18-4.42,1.54-6.66.27-1.72.81-3.24,1.87-4.6,1.98-2.54,3.94-5.08,5.92-7.62.13-.17.31-.3.47-.45.04.03.08.06.12.09-.05.14-.08.29-.17.4-.55.75-1.11,1.49-1.66,2.24-1.23,1.69-2.46,3.38-3.67,5.08-.6.84-1.28,1.66-1.69,2.58-.36.79-.36,1.74-.57,2.6-.56,2.27-1.13,4.54-1.75,6.79-.19.68-.32,1.34-.25,2.05.12,1.15.12,2.32.26,3.47.18,1.45,1.03,2.65,1.63,3.94.16.33.32.66.55.97-.46-2-.18-4.02-.27-6.03-.02-.41-.14-.81-.19-1.22-.12-1.02-.3-2.05-.34-3.08-.08-2.1.43-4.11,1.13-6.08.16-.44.27-.9.48-1.31.16-.31.44-.57.67-.85.09-.11.22-.2.26-.32.6-1.96,1.85-3.54,3.03-5.15,1.58-2.15,2.56-4.57,3.25-7.13.34-1.26.69-2.53,1.57-3.55.09-.1.25-.13.38-.2.03.16.15.36.08.46-1.25,2.08-1.71,4.47-2.56,6.7-.75,1.98-1.92,3.72-3.17,5.39-2.08,2.78-2.82,5.93-2.87,9.31-.02,1.51.13,2.97.69,4.41.63,1.62.54,3.37.61,5.09.06,1.41.09,2.82.16,4.23.02.43.12.86.18,1.29.05,0,.1.01.15.02.08-.22.19-.43.25-.66.66-2.5.62-5.01.26-7.55-.35-2.46-.68-4.93-.83-7.4-.06-1.01.25-2.1.6-3.07.77-2.17,1.67-4.29,2.54-6.43.09-.22.25-.42.38-.63.05.01.1.03.15.04-.04.18-.05.37-.12.54-.62,1.56-1.31,3.1-1.85,4.69-.42,1.26-.86,2.58-.93,3.89-.12,2.37-.02,4.77.54,7.09.5,2.06.47,4.12.29,6.18-.11,1.22-.46,2.41-.7,3.62-.02.09-.03.19-.09.25-.24.24-.48.63-.76.66-.43.06-.47-.44-.5-.75-.17-1.85-.34-3.7-.43-5.55-.08-1.55.08-3.11-.35-4.64-.02-.07-.03-.14-.05-.21-1.25-3.1-1.09-6.25-.34-9.42,0,0-.05,0-.06,0-1.09,2.75-1.66,5.58-1.21,8.55.23,1.56.4,3.1.36,4.69-.08,2.77.45,5.42,1.7,7.94.57,1.14.87,2.41,1.29,3.63.06.18.11.36.17.54.05,0,.09,0,.14,0,.04-.19.1-.38.11-.57.05-.98.08-1.97.13-2.95.01-.22.12-.44.18-.65.06,0,.11.01.17.02.18.91.3,1.84.54,2.74.25.91.61,1.79,1.01,2.67.51-.6.66-1.26.58-1.95-.06-.47-.19-.95-.38-1.39-.8-1.87-.69-3.82-.57-5.76.09-1.43.25-2.85.41-4.27.03-.24.22-.45.33-.68.11.24.33.48.32.71-.09,1.3-.3,2.6-.35,3.9-.05,1.4-.16,2.85.1,4.21.42,2.17,1.12,4.28,1.71,6.42.05.18.15.34.3.67.11-.3.18-.43.21-.57.41-1.93.03-3.75-.67-5.55-.15-.37-.24-.8-.24-1.2,0-1.57.05-3.14.07-4.72.02-2.07.03-4.14.04-6.21,0-.93,0-1.86,0-2.93-.24.55-.42.97-.62,1.39-.08.16-.17.33-.29.45-.13.12-.31.2-.46.29-.08-.15-.2-.3-.22-.46-.08-.78-.18-1.57-.19-2.35-.03-1.32,0-2.64-.01-3.96,0-.18-.08-.37-.05-.54v-.86c.07.02.19.05.31.09.05-.36.1-.72.16-1.15.3.38.57.74.81,1.06-.11.15-.25.25-.27.37-.41,1.99-.55,4-.4,6.03,0,.1.07.19.11.31.59-.76,1.4-6.44,1.02-7.09.62-.3.71-.85.73-1.47.07-.04.17-.12.29-.14.11-.02.26-.03.34.03.05.04-.02.21,0,.32.02.11.09.2.14.3-.25.56-.63,1.11-.71,1.69-.19,1.38-.33,2.77-.32,4.16.02,2.41.43,4.8.19,7.22,0,.07.05.14.1.29,1.07-2.26,1.57-4.53,1.31-6.94-.09-.83-.22-1.67-.25-2.5-.05-1.46.34-2.86.73-4.26.08-.28.06-.58.08-.87ZM57.24,60.4s.08-.06.13-.09c-.09-.28-.16-.57-.27-.83-.68-1.54-.88-3.15-.45-4.77.51-1.91,1.15-3.79,1.73-5.69.25-.81.49-1.63.73-2.44-.18.06-.25.16-.33.26-.67.92-1.24,1.95-2.05,2.73-.81.79-1.49,1.57-1.62,2.73-.01.14-.1.27-.15.4-.95,2.46-1.74,4.96-1.76,7.63,0,.26-.03.53-.05.79.46-1.74.81-3.49,1.12-5.25.37-2.08,1.56-3.74,2.69-5.43.04-.05.15-.06.22-.08.05.03.09.05.14.08-.13.33-.21.69-.39,1-.51.88-1.09,1.72-1.57,2.62-.27.51-.47,1.08-.59,1.64-.14.68-.21,1.38-.22,2.08,0,.27.15.62.35.81.57.54,1.2,1.02,1.81,1.51.15.12.34.21.51.31Z" fill="#000" stroke-width="0"/><path d="M97.44,76.88c.46-.1.4.25.38.5-.09,1.09-.18,2.17-.3,3.26-.23,2.1,0,4.12.83,6.09.81,1.92,1.53,3.89,2.22,5.86.27.77.39,1.6.57,2.4.1.45,0,.82-.33,1.17-.2.21-.36.55-.38.84-.07,1.39-.08,2.79-.13,4.18-.01.34-.04.68-.12,1.01-.03.13-.19.3-.3.31-.11,0-.28-.14-.34-.27-.18-.39-.3-.81-.47-1.2-.12-.26-.3-.49-.39-.62-.6.42-1.09.86-1.66,1.12-.63.29-1.33.25-1.96-.12-.37-.22-.67-.22-.9.19-.25.44-.55.44-.92.14-.46-.37-.72-.82-.68-1.43.14-2.52.28-5.03.39-7.55.04-.93-.03-1.86-.05-2.78,0-.18-.04-.37,0-.53.04-.15.17-.28.26-.42.13.11.34.2.37.33.11.48.24.99.22,1.48-.09,2.2-.22,4.39-.34,6.59-.04.8-.09,1.61-.12,2.41,0,.08.03.16.07.32.08-.12.14-.17.15-.23.16-1.71.36-3.41.47-5.12.09-1.35.04-2.72.11-4.07.03-.53.21-1.05.35-1.56.04-.14.15-.25.23-.37.06,0,.11.01.17.02.03.19.1.38.08.56-.24,2.06-.29,4.13-.22,6.21.04,1.12-.14,2.24-.29,3.36-.08.61.07,1.04.61,1.28.53.23,1.08.48,1.64.56.6.09.84-.17.84-.77,0-.68-.02-1.36-.12-2.03-.29-1.96-.62-3.92-.93-5.88-.08-.49-.18-.99-.21-1.48,0-.18.19-.37.29-.55.15.16.39.29.43.47.15.77.24,1.55.36,2.33.18,1.23.36,2.46.62,3.69.11-.83-.13-1.7.28-2.47.06,0,.12-.01.18-.02.07.26.17.51.19.77.06,1,.02,2.01.17,3,.17,1.12.51,2.21.79,3.32.02.07.09.14.15.23,0-1.12,0-2.18,0-3.24,0-.18-.02-.36.02-.54.5-2.33-.43-4.31-1.52-6.25-.63-1.12-1.29-2.23-1.83-3.39-.27-.58-.31-1.27-.56-1.91-.04.23-.06.47-.11.7-.09.42-.13.86-.3,1.24-.08.19-.42.42-.6.39-.18-.04-.42-.37-.43-.58-.03-.69,0-1.39.08-2.09.2-1.94-.04-3.81-.73-5.64-.53-1.41-.52-2.87-.29-4.34.31-2.05.61-4.1.94-6.15.03-.21.23-.39.35-.58.13.2.37.41.37.61,0,1.41-.14,2.82-.08,4.23.13,2.87.37,5.74.56,8.61.04.65.07,1.3.21,1.96.05-.65.09-1.29.16-1.94.17-1.76.29-3.52.54-5.27.1-.75.51-1.45.69-2.19.14-.56.24-1.17.16-1.73-.16-1.18-.46-2.35-.69-3.52-.87-4.49-1.38-8.97.06-13.47.41-1.29.47-2.65.41-4.02-.07-1.8-.01-3.6-.04-5.4-.02-1.02-.11-2.03-.14-3.05,0-.21.15-.42.22-.63.17.21.45.4.48.62.09.67.11,1.35.1,2.03,0,.98-.07,1.96-.09,2.95-.08,3.04.66,5.93,1.72,8.75.66,1.76.84,3.61,1.08,5.46.13.99.32,1.97.47,2.96.1.61.21,1.23-.16,1.97-.19-.27-.4-.44-.43-.64-.28-1.69-1.15-3.1-2.07-4.48-.16-.25-.26-.54-.39-.8-.06,0-.12,0-.19.01,0,.46-.08.94.02,1.38.23,1.01.54,1.99.82,2.99.1.38.26.75.3,1.13.29,2.77.17,5.5-.94,8.11-.17.41-.29.84-.43,1.26-.13.4-.35.8-.39,1.21-.18,1.94-.34,3.88-.47,5.82-.12,1.88.25,3.65,1.18,5.31.85,1.5,1.61,3.05,2.41,4.58-.27-.87-.55-1.76-.89-2.63-.59-1.49-1.24-2.96-1.82-4.46-.65-1.68-.85-3.41-.6-5.21.22-1.54.38-3.08.56-4.63ZM97.71,54.06c-.05,0-.11,0-.16.01-.03.17-.07.33-.08.5,0,.8,0,1.61,0,2.41-.03,2.13.59,4.07,1.67,5.89.37.62.63,1.32.94,1.98.1.23.19.46.29.69.05-.01.09-.03.14-.04-.93-3.81-1.86-7.63-2.8-11.44ZM96.82,58.67c-.73,4.55.12,8.95,1.25,13.33.08-.12.12-.24.12-.35-.01-.95.02-1.9-.06-2.84-.06-.79-.13-1.62-.41-2.35-.56-1.45-.72-2.92-.38-4.41.27-1.21-.16-2.28-.51-3.38ZM94.18,75.18c0,.92-.09,1.94.03,2.94.11.95.49,1.86.63,2.81.18,1.14.24,2.3.36,3.44-.02-.94,0-1.89-.12-2.82-.27-2.15-.6-4.3-.9-6.37Z" fill="#000" stroke-width="0"/><path d="M70.29,97.3c-.08-.7-.15-1.41-.26-2.11-.36-2.41-.45-4.84-.4-7.27.01-.52.05-1.04.13-1.55.03-.19.24-.36.36-.53.13.19.33.37.36.58.05.31-.01.64-.02.96-.06,2.56-.17,5.11.28,7.65.41,2.3.82,4.61,1.22,6.91.09.51.12,1.02.29,1.57.06-.16.13-.33.18-.49.41-1.36,0-2.69-.17-4.03-.2-1.49-.31-2.98-.46-4.48,0-.05-.02-.12,0-.16.08-.16.17-.31.26-.47.09.14.23.27.25.43.2,1.18.38,2.36.56,3.55.11.72.1,1.5.37,2.16.25.62.79,1.13,1.22,1.72.61-.79.69-1.44.27-2.23-.66-1.25-1.21-2.55-1.79-3.84-.54-1.2-.67-2.46-.58-3.77.16-2.28.25-4.57.4-6.85.11-1.68.32-3.35.37-5.02.04-1.48-.03-2.96-.12-4.44-.13-2.05-.32-4.1-.47-6.15-.03-.43.05-.87.07-1.31.5.03.55.32.57.61.22,2.58.39,5.17.65,7.75.25,2.5-.08,4.96-.25,7.43-.2,2.89-.34,5.78-.38,8.68-.01.9.25,1.84.57,2.7.47,1.25,1.09,2.45,1.65,3.67.05.11.12.2.29.27-.04-.19-.06-.39-.11-.58-.39-1.38-.79-2.75-1.17-4.13-.61-2.17-.39-4.36-.15-6.55.1-.91.19-1.81.29-2.72.03-.25.1-.5.15-.75.08,0,.15,0,.23-.01.04.21.11.42.1.63-.07,1.27-.14,2.53-.24,3.8-.21,2.76.29,5.41,1.17,8.01.4,1.19.76,2.38.55,3.67-.08.53-.18.95-.85.93-.12,0-.3.21-.37.36-.42.98-.76,1.04-1.47.25-.07-.08-.14-.16-.22-.23-.04-.03-.09-.04-.2-.09-.04.14-.09.26-.12.38-.26,1.07-.53,2.15-.79,3.22-.01.05-.03.1-.06.15-.18.31-.38.73-.78.58-.21-.08-.39-.54-.39-.83.03-2.05-.23-4.07-.59-6.08-.03-.18-.08-.35-.12-.52-.02-.07-.05-.13-.14-.34-.1.97.44,1.83.06,2.63-.07,0-.13.02-.2.03-.09-.2-.21-.39-.25-.6-.68-3.35-1.43-6.68-2-10.04-.45-2.68-.17-5.38.31-8.05.17-.93.22-1.88.36-2.81.03-.21.22-.39.34-.58.12.18.33.36.34.54,0,.6,0,1.22-.12,1.8-.87,4.01-.92,8.01.06,12.01.32,1.32.56,2.65.84,3.98.04,0,.07,0,.11,0Z" fill="#000" stroke-width="0"/><path d="M52.23,90.99l-.25-2.06s-.03,0-.05,0c-.06.72-.2,1.44-.17,2.15.12,3.54.38,7.05,1.37,10.49.49,1.7.76,3.49.93,5.26.17,1.74.1,3.49.13,5.24,0,.07,0,.14,0,.21,0,.4.03.87-.43,1-.5.14-.82-.26-.99-.64-.2-.45-.31-.95-.4-1.43-.15-.84-.18-1.71-.37-2.54-.16-.69-.51-1.33-.73-2-.07-.21.01-.48.02-.72.22.1.57.15.62.31.31.87.58,1.76.79,2.66.21.88.32,1.79.48,2.69.01.08.06.16.2.25.02-.15.05-.31.05-.46.02-1.23.04-2.47.03-3.7,0-.17-.17-.34-.29-.5-.17-.24-.43-.44-.52-.7-.22-.68-.33-1.39-.55-2.07-.46-1.46-1.01-2.9-1.44-4.37-.67-2.3-1.35-4.62-1.16-7.05.27-3.42.63-6.83.98-10.24.25-2.46.43-4.91.31-7.38-.08-1.77-.04-3.54-.05-5.31,0-.17,0-.34,0-.52-.07-.01-.13-.03-.2-.04-.14.55-.36,1.09-.4,1.64-.05.8.04,1.6.07,2.41,0,.18.04.38-.03.53-.1.2-.29.35-.45.52-.12-.17-.32-.32-.34-.5-.35-2.99-.45-5.96.31-8.94.37-1.46.27-3.05.39-4.58.03-.32.08-.64.13-.96.09-.02.17-.04.26-.05.11.22.31.45.31.67,0,2.02-.1,4.03-.57,6.02-.26,1.12-.33,2.29-.48,3.44.05.01.1.03.15.04.29-.65.58-1.3.87-1.95.07.01.13.03.2.04.04.16.12.31.12.47.11,3.55.37,7.11.28,10.66-.08,3.21-.56,6.41-.83,9.61-.19,2.26-.42,4.53-.06,6.79.32,1.99.6,3.98,1.45,5.86.5,1.09.73,2.31,1.14,3.46-.16-.76-.25-1.54-.49-2.28-1.08-3.3-1.4-6.71-1.37-10.16.02-1.67.35-3.33.47-5,.16-2.08.25-4.17.37-6.25.02-.26.03-.53.1-.79.03-.1.21-.23.31-.22.1.01.25.17.26.28.05.44.09.89.06,1.33-.11,1.84-.27,3.67-.34,5.51-.04,1.09.06,2.18.09,3.27,0,.2-.02.41-.03.61-.09.01-.18.02-.27.03Z" fill="#000" stroke-width="0"/><path d="M86.66,92.65c-.11.17-.32.36-.3.5.07.41-.1.46-.56.36.63.43.42.97.43,1.46,0,1.02-.02,2.04-.02,3.05,0,.18.1.37.2.71.18-.3.27-.48.4-.63.07-.09.24-.2.29-.17.1.06.23.22.21.31-.1.69-.22,1.38-.38,2.05-.04.17-.26.34-.44.4-.1.03-.36-.14-.4-.26-.34-1-1.36-1.27-2.04-2.03-.16.36-.24.67-.42.92-.17.24-.44.4-.66.6-.17-.25-.42-.47-.5-.75-.59-2.02-.29-4.01.17-6.03.31-1.37.44-2.8.4-4.2-.02-1.03-.37-2.07-.71-3.06-.17-.51-.71-.89-.94-1.39-1.27-2.8-1.9-5.76-2.17-8.8-.15-1.71-.27-3.42-.45-5.13-.05-.51-.26-1-.41-1.49-.23-.78-.21-1.57.05-2.1.43.11.49.51.55.82.19.96.37,1.93.48,2.91.34,2.86.54,5.73,1,8.57.29,1.76.95,3.47,1.45,5.2l.22-.04c-.02-.24-.05-.49-.07-.73-.03-.25-.05-.5-.1-.74-.55-3.06-.7-6.15-.56-9.24.06-1.26.15-2.49-.29-3.7-.04-.13.08-.31.13-.47.17.1.45.16.49.29.2.64.45,1.3.47,1.97.04,1.57-.12,3.15-.05,4.71.1,2.32.33,4.63.53,6.94.04.51.22,1.01.39,1.5-.04-.28-.11-.55-.11-.83-.02-1.05,0-2.1-.03-3.16-.04-1.48-.21-2.97-.12-4.44.08-1.31.44-2.59.7-3.89.03-.15.16-.27.25-.41.05.01.1.03.16.04,0,.3.07.62-.01.91-.46,1.7-.5,3.41-.39,5.16.1,1.48-.02,2.97.12,4.44.15,1.63.47,3.25.74,4.87.11.64.08,1.19-.4,1.69-.15.15-.21.41-.24.63-.24,1.61-.45,3.21-.67,4.82-.03.19-.03.39-.05.58-.14.09-.42.26-.41.27.21.43.46.84.7,1.26.05-.03.11-.05.16-.08-.14-.31-.27-.62-.41-.94.03-.02.06-.04.09-.06.27.16.53.33.8.49h0c.07.17.16.35.2.53.15.63.52,1.06,1.25,1.38.03-1.29.06-2.48.1-3.79.28.18.42.27.55.35.04-.05.09-.1.13-.15-.21-.27-.42-.55-.63-.82-.06.07-.12.15-.18.22.06-.16.16-.31.19-.47.09-.44.13-.88.23-1.31.15-.66.32-.7.83-.23-.06.08-.17.17-.15.22.04.14.13.27.21.4Z" fill="#000" stroke-width="0"/><path d="M35.9,105.06c0-.34,0-.68,0-1.02-.06-1.95-.13-3.89-.16-5.84,0-.45.13-.91.25-1.36.04-.14.22-.24.33-.36.05.17.16.34.15.5-.05.76-.24,1.53-.18,2.29.1,1.28.3,2.55.54,3.81.26,1.36.6,2.71.92,4.06.19.79.54,1.49,1.11,2.07.07-.01.13-.03.2-.04-.04-.72-.06-1.44-.14-2.16-.08-.69-.28-1.36-.31-2.05-.04-.88.02-1.77.06-2.66,0-.15.13-.29.2-.44.05,0,.09.02.14.03.03.32.05.64.09.97.14,1.32.28,2.64.43,3.96.1.94.22,1.88.3,2.82.02.21,0,.44-.07.63-.16.41-.57.51-.84.17-.87-1.11-1.77-2.21-1.81-3.73-.01-.4-.2-.81-.31-1.21-.08.01-.17.02-.25.04.05.65.04,1.31.16,1.94.08.4-.07.59-.36.72-.35.15-.39-.14-.46-.39-.4-1.32-.81-2.64-1.22-3.96-.09-.27-.15-.57-.31-.79-.78-1.12-.92-2.41-.94-3.69-.03-2.41.04-4.83.07-7.24,0-.07-.02-.16.02-.21.16-.21.34-.4.51-.61.08.21.22.43.22.64-.04,2.52-.11,5.04-.14,7.56,0,.63.13,1.25.32,1.87.11-.98.2-1.97.35-2.95.16-1.02.46-2.03.54-3.06.09-1.21.02-2.42-.02-3.64-.04-1.39-.05-2.79-.18-4.17-.1-1.1-.39-2.18-.56-3.28-.05-.31,0-.64.06-.95.02-.12.2-.21.31-.31.09.12.24.23.27.36.12.56.21,1.12.29,1.69.41,3.01.7,6.04.6,9.08-.04,1.13-.28,2.26-.47,3.39-.34,2-.62,4-.25,6.02.09.51.24,1.02.36,1.53.07,0,.13-.01.2-.02Z" fill="#000" stroke-width="0"/><path d="M114.77,80.27c-.98,2.43-1.92,4.88-1.88,7.58.02,1.16.08,2.33.01,3.49-.04.56-.26,1.14-.55,1.63-.31.53-.72.46-1.02-.07-.54-.94-.78-1.96-.65-3.04.18-1.38.48-2.75.57-4.14.17-2.64.24-5.28.35-7.92.02-.46.05-.93.13-1.39.03-.18.17-.34.26-.51l.2.03c.04.28.11.56.11.85,0,1.14-.05,2.29-.03,3.43.06,2.62-.36,5.2-.69,7.79-.14,1.1,0,2.24.02,3.36,0,.16.09.32.14.48.06.01.12.03.18.04.1-.22.26-.43.27-.65.05-.73.11-1.47.05-2.2-.18-2.21.2-4.31,1.02-6.35.49-1.21,1-2.41,1.39-3.65.16-.5.11-1.09.05-1.63-.1-.88-.31-1.76-.43-2.64-.04-.26.05-.54.09-.82.07-.02.13-.04.2-.06.11.17.27.33.31.52.48,2.39.79,4.79.67,7.24-.09,1.94-.14,3.89-.18,5.83,0,.42.09.85.26,1.28.01-.21.03-.41.04-.62.11-2.46.2-4.93.33-7.39.02-.31.17-.6.26-.91.07,0,.14.02.22.03.03.16.1.31.1.47-.03,2.97-.07,5.93-.12,8.9,0,.35-.03.74-.18,1.04-.13.27-.46.44-.7.65-.17-.23-.46-.44-.5-.68-.19-1.11-.3-2.23-.45-3.34-.24-1.76.17-3.49.25-5.23.02-.46.05-.91.08-1.37-.06,0-.12-.01-.18-.02Z" fill="#000" stroke-width="0"/><path d="M47.33,104.4c-.06-.64-.07-1.29-.18-1.93-.22-1.32-.45-2.64-.76-3.94-.48-1.98-.57-3.99-.68-6.01-.03-.46-.01-.93,0-1.39,0-.14.07-.29.1-.43.06,0,.13-.01.19-.02.06.22.14.43.17.66.26,1.97.47,3.94.77,5.9.21,1.34.58,2.65.83,3.98.35,1.84.28,3.67-.2,5.47-.33,1.26-.12,2.52-.06,3.79.04.74.1,1.5-.4,2.1-.26.32-.7.73-1.04.7-.51-.04-.39-.66-.36-1.03.14-2.04-.25-4.02-.69-5.99-.08-.36-.21-.77.27-1.19.13.39.29.69.35,1.02.33,1.86.64,3.73.98,5.74.08-.4.19-.7.18-.99-.05-1.05-.15-2.1-.23-3.15-.1-1.23-.16-2.46-.34-3.68-.13-.9-.44-1.77-.63-2.66-.45-2.09-.83-4.2-1.32-6.29-.31-1.32-.37-2.61-.08-3.93.28-1.26.54-2.52.87-3.76.18-.68.48-1.34.77-1.99.07-.16.28-.26.43-.39.04.22.15.46.1.66-.51,1.97-1.06,3.93-1.56,5.9-.24.94-.21,1.9.11,2.81.72,2.04.93,4.18,1.37,6.28.27,1.27.61,2.52.92,3.77.04,0,.09-.01.13-.02Z" fill="#000" stroke-width="0"/><path d="M84.82,71.47c.51-2.48,1.49-4.85,1.64-7.41,0-.11-.01-.24.04-.31.11-.15.25-.28.38-.41.1.13.28.26.28.4,0,.55.02,1.11-.08,1.65-.35,1.81-.86,3.59-.8,5.45.03.84.19,1.7.41,2.52.39,1.47.84,2.92,1.34,4.36.24.69.64,1.33,1.07,1.93-.36-1.06-.78-2.1-1.08-3.17-.81-2.85-1.4-5.74-.99-8.73.1-.73.31-1.47.58-2.16.29-.75.7-1.45,1.06-2.17.06-.13.16-.24.23-.36.06.02.13.04.19.06-.03.22-.02.46-.1.67-.22.58-.46,1.16-.73,1.73-.64,1.35-.8,2.76-.73,4.23.11,2.39.88,4.63,1.5,6.9.24.9.56,1.77.82,2.66.1.34.23.71.19,1.04-.04.29-.27.64-.51.78-.13.08-.6-.13-.72-.33-.44-.71-.88-1.44-1.17-2.22-.67-1.79-1.26-3.61-1.84-5.43-.18-.56-.22-1.17-.35-1.86-.11.49-.16.9-.29,1.27-.07.19-.27.33-.42.49-.17-.16-.42-.3-.49-.5-.12-.33-.14-.7-.19-1.05-.36-2.41-.08-4.81.12-7.22.15-1.75.17-3.5-.17-5.24-.02-.09-.07-.19-.04-.26.08-.17.2-.33.3-.5.13.12.36.22.38.36.11.79.25,1.6.23,2.4-.05,2.14-.2,4.29-.27,6.43-.04,1.16,0,2.32.02,3.49,0,.17.04.34.07.52.05,0,.1,0,.14,0Z" fill="#000" stroke-width="0"/><path d="M60.83,110.44c.23-.92.53-1.8.25-2.66-.42-1.29-.44-2.55-.19-3.86.63-3.25,1.11-6.53,1.9-9.73.55-2.23.61-4.45.66-6.7,0-.28.02-.57.09-.85.02-.11.17-.27.27-.27.09,0,.22.15.28.26.06.1.06.24.06.37.07,2.25.07,4.49-.47,6.71-.58,2.41-.97,4.87-1.43,7.31-.22,1.18-.53,2.35-.63,3.53-.08,1.02.03,2.06.15,3.08.14,1.26.37,2.5.64,3.78.08-.27.21-.54.23-.82.08-1.07.12-2.13.18-3.2.07-1.41.15-2.82.2-4.22.03-.69.05-1.39,0-2.09-.11-1.46-.11-2.9.44-4.28.07-.17.11-.35.21-.49.08-.12.23-.19.34-.28.06.15.2.34.16.45-.66,1.91-.26,3.87-.34,5.8-.09,2.18-.28,4.35-.42,6.53-.03.5,0,1.01-.08,1.5-.08.58-.21,1.16-.39,1.71-.11.34-.35.68-.79.55-.4-.12-.41-.49-.4-.85,0-.33,0-.67,0-1.08-.32.37-.54.68-.82.94-.29.27-.6.18-.7-.2-.53-1.85-1.04-3.71-1.54-5.57-.06-.23-.03-.5.02-.74.03-.13.18-.24.27-.35.11.1.26.19.32.32.06.14.05.31.06.47.08,1.67.65,3.21,1.28,4.74.02.04.07.07.19.18Z" fill="#000" stroke-width="0"/><path d="M60.13,100.47c.07-1.71.1-3.42.2-5.13.12-2.01-.29-3.95-.7-5.89-.22-1.06-.25-2.11-.11-3.19.14-1.05.13-2.13.14-3.2.01-1.77-.02-3.54,0-5.3,0-.17.17-.33.27-.5.09.17.26.34.27.52.11,2.62.28,5.25-.04,7.87-.26,2.17.08,4.27.68,6.35.3,1.04.42,2.1.26,3.18-.06.42-.05.86-.03,1.28.12,1.84-.16,3.64-.45,5.44-.03.16-.07.33-.17.44-.2.21-.44.39-.67.58-.14-.27-.39-.53-.4-.8-.07-1.53-.12-3.07-.12-4.61,0-1.47-.22-2.87-.71-4.26-.83-2.34-1.14-4.74-.96-7.23.17-2.41.24-4.82.4-7.23.02-.34.38-.96.46-.95.5.12.39.61.37.97-.1,1.37-.26,2.74-.37,4.11-.2,2.69-.36,5.39.24,8.06.11.47.22.95.41,1.39.9,2.09,1.06,4.28.92,6.52-.03.51,0,1.03,0,1.55.03,0,.07,0,.1,0Z" fill="#000" stroke-width="0"/><path d="M66.58,95.12c.09-.39.18-.79.27-1.18.06,0,.13,0,.19,0,.05.21.13.42.14.63.15,2.56.58,5.06,1.16,7.56.4,1.72.47,3.53.69,5.3.01.09,0,.19-.03.26-.08.16-.18.41-.3.43-.14.02-.38-.12-.47-.26-.26-.39-.46-.81-.68-1.21-.11-.2-.22-.4-.47-.59-.17.75-.34,1.5-.51,2.25-.07.31-.1.65-.23.93-.09.19-.33.44-.51.44-.18,0-.46-.25-.51-.43-.17-.69-.27-1.4-.38-2.1-.28-1.82-.55-3.63-.83-5.45-.01-.09-.07-.18-.05-.26.05-.2.12-.4.18-.6.14.14.33.25.4.42.55,1.43.75,2.93.84,4.46.03.59.11,1.18.17,1.76.07,0,.14,0,.21.01.11-.33.25-.64.34-.98.38-1.5.35-2.99.03-4.51-.61-2.96-.63-5.96-.42-8.97.07-.93.04-1.86.09-2.79.02-.33-.07-.87.38-.88.5-.01.46.52.44.88-.05,1.29-.13,2.57-.2,3.85-.02.33,0,.67,0,1.01.02,0,.03,0,.05,0ZM66.58,97.2c-.16,1.78.79,7.45,1.55,8.24-.52-2.78-1.05-5.56-1.55-8.24Z" fill="#000" stroke-width="0"/><path d="M79.2,98.35c.1-.95.29-1.91.27-2.86-.02-1.02.08-1.99.39-2.95.42-1.33.21-2.7.13-4.05-.08-1.41-.29-2.81-.41-4.21-.05-.52,0-1.05,0-1.58.07-.01.14-.02.22-.03.06.16.15.32.17.49.32,2.23.68,4.45.91,6.69.16,1.51-.19,2.99-.65,4.43-.13.42-.13.78.09,1.18.19.36.27.77.41,1.16.07.2.17.39.29.67.25-.32.41-.54.58-.76.45.25.28.54.13.8-.26.42-.34,1.05-.97,1.08-.16,0-.37-.29-.49-.49-.13-.22-.19-.49-.28-.73h-.14c-.05.28-.11.55-.15.83-.08.55-.13,1.1-.21,1.65-.05.34-.19.66-.58.66-.44,0-.59-.36-.6-.7,0-1.14,0-2.29.09-3.42.11-1.37.31-2.73.48-4.1.16-1.29-.14-2.52-.5-3.75-.63-2.14-1.06-4.3-.88-6.55.17-2.03.29-4.06.44-6.09.02-.21.04-.44.14-.62.08-.14.27-.22.41-.33.08.14.24.29.24.43-.01,1.16-.02,2.32-.1,3.48-.08,1.23-.27,2.45-.36,3.68-.12,1.6.07,3.18.58,4.71.75,2.25.95,4.52.56,6.87-.24,1.46-.29,2.94-.42,4.42.08,0,.15,0,.23,0Z" fill="#000" stroke-width="0"/><path d="M83.03,48.56c.09-.3.18-.51.22-.72.5-3.08.6-6.19.32-9.3-.03-.33-.18-.65-.25-.98-.04-.19-.08-.39-.05-.57.02-.11.16-.24.27-.28.07-.02.24.1.28.19.16.41.41.83.41,1.25,0,2.73-.04,5.46-.1,8.2-.01.58-.19,1.16-.29,1.74-.28,1.57.03,3.13.05,4.69.01,1.16.64,2.16,1.33,3.13,0-.47.06-.94-.01-1.39-.42-2.55-.1-5.1-.11-7.65,0-1.8.05-3.61.11-5.41.02-.51.15-1.02.25-1.53.03-.15.14-.28.22-.42.06.02.11.03.17.05,0,.2,0,.4,0,.6-.04,2.03-.09,4.07-.13,6.1-.03,1.77-.06,3.54-.08,5.31,0,.53.06,1.07.08,1.6.06,1.18.13,2.35.16,3.53.02.68,0,1.35-.01,2.03,0,.19.01.42-.08.57-.12.17-.35.27-.53.4-.11-.17-.27-.32-.33-.5-.07-.23-.06-.49-.09-.74-.1-1.17-.4-2.27-.94-3.32-.64-1.26-.83-2.65-.83-4.06,0-.81-.21-1.54-.63-2.23-1.26-2.08-1.92-4.34-1.95-6.77-.01-1.54.06-3.07.14-4.61.01-.24.25-.47.38-.71.07.25.22.51.21.76-.03,1.54-.16,3.07-.15,4.61.02,2.17.72,4.17,1.7,6.09.05.11.14.2.27.38Z" fill="#000" stroke-width="0"/><path d="M40.72,92.76c.01.12.05.24.03.35-.4,2.03-.13,4.02.33,6,.4,1.74.48,3.49.23,5.25-.07.47-.24.94-.46,1.36-.11.21-.42.43-.64.43-.17,0-.44-.32-.49-.54-.15-.66-.19-1.34-.31-2.01-.36-2.06-.76-4.11-1.11-6.17-.32-1.85-.18-3.69.41-5.46,1.02-3.06,1.44-6.23,1.85-9.4.17-1.29.38-2.59.43-3.89.05-1.23-.12-2.46-.13-3.69-.02-1.77,0-3.54.03-5.3,0-.19.1-.38.15-.57.07,0,.14,0,.21-.01.07.25.18.49.19.74.02,1.18-.02,2.36,0,3.54.02,1.5.21,3.01.08,4.5-.31,3.56-.7,7.11-1.2,10.65-.25,1.78-.85,3.51-1.27,5.26-.28,1.17-.2,2.33.02,3.51.41,2.21.77,4.43,1.16,6.65.02.12.04.25.08.36.01.05.06.08.16.2.07-.21.15-.37.17-.53.17-1.5.1-2.98-.24-4.47-.27-1.16-.46-2.36-.5-3.55-.03-.95.23-1.9.39-2.85.02-.15.18-.27.28-.41.05.02.1.04.15.06Z" fill="#000" stroke-width="0"/><path d="M106.24,87.85c-.04-.35-.07-.7-.13-1.05-.4-2.3-.14-4.6.08-6.89.06-.6.12-1.21.14-1.82,0-.17-.12-.35-.19-.53.4-.16.62-.6.51-1.19-.02-.12-.11-.25-.09-.36.03-.14.13-.26.21-.38.09.11.25.22.25.34.01.71.03,1.43-.04,2.14-.32,3.3-.44,6.6.09,9.89.13.79.1,1.56-.2,2.32-.09.24-.09.53-.09.79-.03,1.59-.06,3.18-.09,4.77,0,.34-.01.69-.11,1.01-.09.28-.3.53-.46.79-.22-.18-.47-.33-.64-.55-.21-.26-.37-.57-.51-.88-.19-.39-.18-.79.17-1.23.23.37.43.7.63,1.02.05,0,.1,0,.14-.01.05-.19.13-.38.13-.57.04-1.71.14-3.43.05-5.14-.05-.92-.42-1.84-.68-2.74-.75-2.63-.87-5.32-.61-8.03.13-1.42.48-2.82.57-4.24.09-1.57,0-3.16-.02-4.74-.01-1.16-.05-2.32-.06-3.48,0-.39.05-.94.52-.9.49.04.32.58.29.94-.16,1.86-.16,3.71-.02,5.57.08,1.1-.02,2.21-.1,3.31-.18,2.26-.44,4.51-.59,6.77-.11,1.64.28,3.23.68,4.81.02.1.07.19.11.28.03,0,.05-.01.08-.02Z" fill="#000" stroke-width="0"/><path d="M37.46,73.9c.06-.12.11-.26.19-.37.24-.3.5-.59.8-.94.53.08.57.06.4-.64-.13-.54-.08-1.04.07-1.57.49-1.72.98-3.44,1.41-5.17.17-.69.2-1.41.3-2.12.02-.18.02-.37.09-.52.08-.17.25-.29.38-.44.08.16.23.33.21.48-.11.85-.2,1.71-.4,2.53-.54,2.24-1.07,4.49-1.74,6.69-.58,1.92-1.01,3.82-.65,5.82.1.56.2,1.13.38,1.67.53,1.58.24,3.07-.45,4.51-.11.22-.42.34-.64.5-.12-.2-.31-.39-.35-.61-.1-.51-.09-1.03-.17-1.54-.25-1.58-.58-3.16-.77-4.75-.12-1.01-.02-2.05-.06-3.07-.01-.33-.15-.66-.22-.97.02,0,.11.05.29.12.28-2.37.92-4.59,1.7-6.8.39-1.12.43-2.38.58-3.58.12-.97.16-1.96.24-2.94,0-.09,0-.19.03-.26.13-.22.3-.63.42-.61.39.04.29.41.26.69-.18,1.78-.31,3.56-.58,5.33-.16,1.03-.56,2.03-.84,3.04-.36,1.33-.71,2.66-1.04,3.99-.05.21.05.47.1.8-.08.07-.25.21-.51.43.17.09.37.19.58.29-.14.2-.38.41-.39.62-.03.76-.1,1.55.05,2.29.38,1.91.85,3.8.81,5.76,0,.15.09.3.14.46.06,0,.11,0,.17,0,.08-.32.21-.63.25-.95.12-.94-.03-1.85-.38-2.73-.13-.33-.23-.68-.25-1.03-.06-1.05-.09-2.11-.1-3.16,0-.5.07-1.01.12-1.61-.19.16-.31.26-.43.36Z" fill="#000" stroke-width="0"/><path d="M62.44,81.69c-.02-.35-.03-.66-.04-.97-.09-2.46-.21-4.93-.25-7.39-.01-.64.22-1.29.36-1.94.02-.1.13-.18.3-.4.04.3.11.47.08.62-.29,1.51-.13,3.02,0,4.54.14,1.74.12,3.51.33,5.24.29,2.42-.07,4.77-.42,7.14-.05.37-.08.86-.57.83-.54-.03-.39-.55-.39-.9,0-.93.01-1.86.07-2.79.11-1.67-.15-3.27-.71-4.84-.69-1.92-.81-3.9-.55-5.92.33-2.55.61-5.11.93-7.66.04-.34.03-.86.5-.81.51.06.29.58.26.89-.31,2.78-.64,5.57-.97,8.35-.25,2.07.33,4,.93,5.93,0,.02.05.03.15.08Z" fill="#000" stroke-width="0"/><path d="M76.35,59.87c.05-1.07.05-2.14.16-3.2.15-1.36.27-2.76.64-4.07.3-1.06.99-2.01,1.45-3.03.37-.83.66-1.69.99-2.54.1-.25.23-.48.34-.72.05.02.1.03.16.05,0,.11.03.22.02.32-.16,1.29-.61,2.5-1.21,3.65-.16.32-.33.64-.51.95-1.21,2.06-1.06,4.37-1.23,6.62-.11,1.46-.14,2.93-.22,4.39-.01.23-.03.48-.13.68-.08.17-.27.4-.42.41-.14,0-.37-.21-.43-.37-.14-.4-.26-.82-.29-1.25-.16-2.01-.26-4.03-.42-6.04-.1-1.32.34-2.54.67-3.78.5-1.88,1-3.76,1.51-5.64.56-2.02.41-4.04-.05-6.05-.16-.68-.39-1.34-.51-2.03-.05-.27.11-.57.17-.86.19.23.49.42.57.68.71,2.44,1.16,4.93.73,7.46-.21,1.26-.73,2.46-1.05,3.71-.42,1.63-.94,3.25-1.14,4.9-.19,1.47-.02,2.99.01,4.49,0,.42.07.85.11,1.27h.09Z" fill="#000" stroke-width="0"/><path d="M108.09,61.82c-.03-.6-.03-1.21-.1-1.8-.35-2.96-.54-5.91.06-8.86.33-1.62.74-3.19,1.71-4.58.55-.8.42-1.78.27-2.71-.04-.23-.07-.46-.1-.69.07-.03.13-.05.2-.08.11.21.29.41.32.63.13,1.02.25,2.05.29,3.08.03.82-.05,1.64-.09,2.46,0,.15-.05.29-.16.44-.5-.7-.4-1.53-.69-2.34-.18.46-.39.92-.53,1.4-.98,3.24-1.05,6.54-.75,9.88.13,1.42.27,2.85.36,4.27.01.23-.21.48-.32.72-.2-.1-.45-.15-.6-.3-1.3-1.28-2.04-2.79-1.82-4.67.14-1.17.17-2.37.45-3.5.55-2.25.5-4.5.35-6.77-.09-1.32-.19-2.63-.28-3.95,0-.09-.02-.2.02-.26.09-.16.21-.29.32-.44.13.14.36.27.39.42.07.44.06.89.09,1.34.15,2.62.33,5.25.06,7.87-.17,1.6-.49,3.18-.69,4.77-.13,1.04,0,2.08.46,3.04.13.27.37.49.55.73.07-.03.14-.07.22-.1Z" fill="#000" stroke-width="0"/><path d="M80.35,49.28c.52.21.56.56.57.92.04,1.34.09,2.68.11,4.02.02,1.75.13,3.51-.01,5.24-.13,1.56-.54,3.09-.84,4.63-.23,1.17-.07,2.31.3,3.43.02.08.07.14.11.22.06,0,.12,0,.18,0,.17-2.42.29-4.86.54-7.27.33-3.3,1.06-6.82,1.46-7.21.03.28.1.5.07.7-.2,1.49-.37,2.98-.63,4.45-.43,2.42-.49,4.87-.54,7.31-.02.75,0,1.51-.1,2.25-.05.43-.23.86-.45,1.23-.28.48-.68.43-.92-.09-.15-.34-.23-.71-.33-1.07-.22-.78-1.11-1.3-1.9-1.24-.67.05-1.35-.01-2.02-.09-.18-.02-.33-.31-.49-.47.2-.11.39-.3.59-.31.48,0,.96.05,1.44.12.48.07.82-.01.8-.6,0-.08.07-.16.3-.4.21.36.42.72.63,1.08.06-.05.13-.09.19-.14.03-.11.11-.23.09-.33-.23-1.55.17-3.02.59-4.48.46-1.61.47-3.24.38-4.89-.11-2.02-.18-4.03-.25-6.05,0-.3.09-.6.14-.94Z" fill="#000" stroke-width="0"/><path d="M67.73,63.37c-.49.57-.49.56-1.1.09-.19-.15-.43-.24-.66-.34-.42-.17-.52-.52-.14-.74.36-.22.37-.51.43-.85.24-1.34.59-2.65.77-4,.34-2.53.63-5.07.86-7.61.08-.92-.05-1.86-.11-2.78-.01-.22-.08-.44-.1-.54-.34,1.8-.75,3.67-1.04,5.56-.29,1.89-.46,3.79-.68,5.69-.07.01-.15.02-.22.03-.07-.22-.19-.44-.19-.66.02-2.37.21-4.72.81-7.02.5-1.89.57-3.77.25-5.68-.04-.25,0-.53.03-.79.02-.09.16-.22.25-.23.08,0,.25.12.26.21.09.95.7,1.64,1.09,2.45.26.54.21,1.25.24,1.89.12,2.8-.15,5.57-.56,8.34-.19,1.32-.52,2.62-.76,3.94-.11.6-.13,1.21-.09,1.84.56-.77.76-1.65.86-2.54.14-1.24.22-2.49.34-3.74.03-.32.13-.63.2-.95.08,0,.16,0,.23,0,.02.29.08.58.07.87-.11,2.38-.26,4.75-.97,7.05-.05.17-.06.35-.09.53h0Z" fill="#000" stroke-width="0"/><path d="M65.64,86.43c.2-1.08.4-2.02.54-2.96.3-1.99.8-3.92,1.57-5.78.28-.68.49-1.38.8-2.04.16-.35.46-.63.7-.95.06.03.11.07.17.1-.27.86-.52,1.74-.82,2.59-.22.62-.48,1.23-.75,1.83-.72,1.6-.81,3.32-1.08,5.01-.13.83-.18,1.67-.37,2.49-.11.47-.39.91-.66,1.32-.09.13-.38.22-.55.19-.13-.03-.3-.27-.32-.43-.29-2.94-.58-5.89.36-8.77.41-1.25,1.06-2.42,1.48-3.67.3-.87.53-1.8.57-2.71.1-2.21.06-4.43.11-6.64,0-.3.23-.86.29-.85.48.07.37.5.41.84.29,2.74-.06,5.47-.27,8.19-.06.82-.46,1.65-.83,2.41-1.51,3.06-1.84,6.28-1.49,9.62,0,.03.04.05.16.23Z" fill="#000" stroke-width="0"/><path d="M57.99,111.9c-.08-1.03-.11-2.08-.25-3.1-.31-2.24-.69-4.48-1.03-6.72-.04-.29,0-.6,0-.9.06-.01.13-.03.19-.04.07.12.18.24.21.37.46,2.38.99,4.76,1.33,7.16.19,1.31.08,2.68.05,4.01-.01.45-.18.91-.35,1.33-.07.17-.35.36-.52.34-.17-.02-.4-.26-.44-.44-.08-.36-.11-.75-.05-1.11.17-.99.03-1.93-.33-2.84-1.06-2.67-1.55-5.44-1.74-8.3-.1-1.48-.55-2.94-.81-4.41-.18-1.05-.4-2.12-.41-3.18,0-.78.28-1.56.48-2.33.04-.14.32-.21.48-.31.04.19.16.4.11.56-.51,1.73-.27,3.45.19,5.13.46,1.7.78,3.41.83,5.17.06,2.49.69,4.87,1.39,7.24.23.77.36,1.58.53,2.37.05,0,.11,0,.16-.01Z" fill="#000" stroke-width="0"/><path d="M91.51,75.88c-.1-.74-.18-1.48-.3-2.22-.57-3.43-.92-6.87-.32-10.34.08-.44.16-.88.28-1.31.07-.25.24-.46.37-.69.05.02.11.04.16.06,0,.13.02.26,0,.38-.76,3.34-.53,6.66.03,10.01.28,1.63.35,3.3.48,4.95.03.36-.04.76-.15,1.11-.08.24-.31.43-.48.64-.16-.21-.39-.41-.46-.65-.28-1.03-.5-2.09-.77-3.12-.89-3.36-.87-6.74-.39-10.16.31-2.25.55-4.5.83-6.75.04-.34.09-.68.2-1,.04-.14.23-.23.35-.34.11.14.3.28.32.43.03.28-.01.57-.06.85-.37,2.24-.82,4.47-1.09,6.72-.28,2.36-.31,4.74,0,7.11.2,1.46.51,2.9.77,4.36l.22-.03Z" fill="#000" stroke-width="0"/><path d="M92.81,62.57c.13-2.97.7-5.95,1.54-8.88.21-.73.42-1.47.5-2.22.26-2.5.47-5,.7-7.5,0-.11,0-.23.05-.31.08-.14.2-.25.31-.37.1.11.28.22.29.34.06.6.16,1.21.1,1.81-.15,1.51-.39,3.01-.57,4.52-.15,1.21-.29,2.43-.39,3.64-.2,2.58-.37,5.16-.54,7.74-.12,1.87-.22,3.75-.33,5.62,0,.09,0,.19-.04.26-.12.19-.27.36-.4.54-.17-.14-.44-.24-.49-.41-.23-.88-.45-1.76-.59-2.66-.11-.67-.09-1.35-.14-2.11ZM93.7,64.58c.32-3.11.63-6.22.95-9.33-.63,3.08-1.33,6.15-.95,9.33Z" fill="#000" stroke-width="0"/><path d="M109.65,52.49c.56,0,.67.32.73.66.27,1.42.5,2.85.79,4.27.53,2.59.12,5.16-.12,7.73-.13,1.44-.3,2.88-.35,4.32-.03.7.1,1.42.64,2,.06-.06.12-.1.12-.13-.03-1.74.37-3.46.04-5.23-.4-2.13-.03-4.28.35-6.39.03-.17.15-.32.23-.48.05,0,.1.02.16.03.02.18.05.36.04.54-.05.93-.16,1.86-.14,2.78.02,1.6.12,3.21.19,4.81.01.36.1.73.02,1.07-.41,1.89.14,3.73.2,5.6,0,.23.07.47.03.69-.03.15-.17.35-.29.38-.13.03-.37-.1-.43-.22-.13-.27-.16-.58-.26-.87-.18-.52-.3-1.09-.6-1.52-.72-1.04-1-2.18-.95-3.4.06-1.39.22-2.78.37-4.16.26-2.31.54-4.63.19-6.94-.22-1.5-.6-2.98-.88-4.47-.06-.33-.05-.68-.07-1.05Z" fill="#000" stroke-width="0"/><path d="M101.96,81.41c.58-4.63.58-9.32.95-13.97.07,0,.14-.02.21-.02.05.16.16.32.15.48-.09,3.55-.17,7.1-.31,10.66-.04,1.18-.21,2.35-.35,3.52-.04.35-.18.68-.32,1.01-.05.13-.24.29-.34.27-.14-.03-.31-.18-.37-.32-.15-.4-.27-.81-.37-1.23-.23-.88-.48-1.76-.66-2.65-.22-1.07-.17-2.15.14-3.19.53-1.82.68-3.68.82-5.56.17-2.39.35-4.78-.02-7.17-.02-.1-.03-.23,0-.32.06-.14.16-.26.24-.39.13.1.33.17.39.3.1.22.14.48.14.73.02,1.44.07,2.89,0,4.33-.08,1.96-.26,3.92-.41,5.88-.03.33-.1.67-.21.99-.67,1.95-.57,3.9-.09,5.87.06.25.11.51.17.77.07,0,.15,0,.22,0Z" fill="#000" stroke-width="0"/><path d="M71.97,41.33c.06.39.17.78.15,1.17-.04.8-.06,1.62-.24,2.39-.36,1.52-.35,3.04-.15,4.58.32,2.5.62,5,.97,7.49.17,1.22.43,2.43.63,3.64.05.28.08.61-.32.68-.38.07-.46-.24-.57-.51-.42-.98-.81-1.98-1.27-2.94-.72-1.52-1-3.13-1.07-4.78-.09-2.06.14-4.09.55-6.12.19-.96.48-1.91.32-2.95-.14-.95.23-1.85.79-2.64.07,0,.14,0,.21,0ZM71.05,48.82c-.75,2.84-.18,7.72.99,9.06-.32-2.95-.66-6.06-.99-9.06Z" fill="#000" stroke-width="0"/><path d="M101.02,48.28c.43-1.11.49-2.39.94-3.55.1.02.19.04.29.06-.04.28,0,.59-.12.83-.49.97-.34,2.03-.45,3.05-.09.8.21,1.5.6,2.16.84,1.42,1.23,3.01,1.6,4.59.5,2.19.87,4.41,1.28,6.62.08.41.2.99-.35,1.08-.56.1-.54-.51-.63-.88-.34-1.42-.61-2.87-.99-4.28-.25-.91-.55-1.83-1-2.64-.77-1.38-1.26-2.84-1.63-4.35-.16-.65-.04-1.37-.05-2.06,0-.76,0-1.52-.03-2.28-.05-1.25-.12-2.49-.17-3.74,0-.16.13-.32.21-.49.11.12.32.23.33.36.08.97.14,1.94.17,2.92.03.87,0,1.74,0,2.58ZM101.02,48.81c-.06,0-.12,0-.18-.01,0,.21-.02.43,0,.64.19,1.58.76,3.02,1.43,4.45.56,1.2.97,2.47,1.44,3.71-.15-.74-.28-1.49-.51-2.22-.4-1.29-.81-2.58-1.32-3.83-.31-.75-.82-1.42-.75-2.29.01-.15-.07-.3-.12-.45Z" fill="#000" stroke-width="0"/><path d="M90.91,89.37c.15.11.28.2.41.3.03-.05.07-.09.1-.14-.24-.18-.48-.36-.67-.5.08-.25.23-.53.24-.81.05-2.23.07-4.46.1-6.69,0-.3-.16-.76.27-.81.46-.06.48.43.49.74.01,1.25-.02,2.49-.03,3.74,0,.92-.01,1.83.02,2.75,0,.16.23.3.32.42-.07.14-.15.31-.32.66-.12-.25-.24-.49-.35-.73-.06.05-.11.1-.17.15.03.07.04.17.1.21.57.47.69,1.09.56,1.77-.39,2.19-.73,4.4-1.2,6.58-.25,1.16-.18,2.26.25,3.42.25-.5.49-1,.74-1.49.1.05.16.06.16.08.19.69-.3,2.16-.86,2.58-.35.26-.6.21-.75-.19-.11-.3-.19-.62-.24-.93-.15-.92-.35-1.79-.78-2.65-.47-.94-.25-2.01-.06-3.01.22-1.12.49-2.21,1.12-3.22.29-.47.24-1.14.36-1.71.03-.17.12-.33.18-.49ZM91.21,91.72c-.06-.01-.12-.02-.18-.03-.49,1.85-1.86,3.53-1.05,5.61.06.01.12.02.18.03.35-1.87.7-3.74,1.05-5.62Z" fill="#000" stroke-width="0"/><path d="M73.28,63.38c.26.74.48,1.35.7,1.98.82-.39.98-.32,1.2.46.55,2.01,1.04,4.03.89,6.13-.1,1.42-.36,2.83-.56,4.25-.2,1.38.07,2.7.46,4.01.01.04.07.07.15.15.06-.62.13-1.17.16-1.74.12-2,.22-4,.35-5.99.02-.3.12-.59.19-.88h.22c.04.18.13.34.12.51-.11,3.21-.23,6.43-.34,9.64,0,.05,0,.11-.02.16-.06.36-.11.78-.54.82-.47.04-.47-.42-.56-.72-.25-.88-.48-1.76-.72-2.64-.37-1.36-.2-2.73-.03-4.1.21-1.63.65-3.24.38-4.9-.18-1.11-.41-2.21-.69-3.3-.07-.26-.37-.51-.62-.67-1-.64-1.4-1.99-.75-3.16Z" fill="#000" stroke-width="0"/><path d="M43.97,101.98c.18-.45.36-.91.54-1.36.06,0,.12.01.18.02.03.19.1.38.09.56-.21,2.9-.44,5.8-.66,8.7-.06.75-.11,1.5-.55,2.15-.24.35-.46.82-.97.67-.48-.13-.49-.62-.49-1.03.03-2.3.12-4.6.64-6.86.31-1.35.55-2.74.57-4.12.02-1.12-.33-2.24-.54-3.36-.14-.74-.33-1.46-.49-2.2-.15-.71.1-1.28.78-1.64.1.98.17,1.91.31,2.84.13.94.4,1.86.48,2.79.08.94.02,1.9.02,2.85.03,0,.06,0,.09,0ZM43.75,103.55c-.54,2.54-1.03,5.07-.68,7.69.73-2.52.47-5.13.68-7.69Z" fill="#000" stroke-width="0"/><path d="M54.69,88.9c-.45-3.02,1.06-5.55,1.87-8.25.07,0,.13.02.2.02.01.16.07.33.04.49-.12.59-.21,1.21-.43,1.77-.85,2.11-1.23,4.29-1.2,6.55,0,.05,0,.11,0,.16-.02.34,0,.78-.44.78-.2,0-.52-.39-.56-.65-.27-1.47-.62-2.96-.66-4.44-.03-1.04.39-2.09.64-3.13.45-1.86.86-3.72.95-5.65.06-1.21.34-2.41.47-3.61.18-1.6.29-3.2.46-4.8.04-.35.13-.7.23-1.04.03-.09.18-.21.27-.2.08,0,.21.15.22.25.05.28.09.57.06.85-.34,2.86-.72,5.71-1.03,8.57-.28,2.55-.74,5.05-1.41,7.53-.33,1.23-.05,2.45.02,3.68.02.37.09.74.14,1.11l.17.02Z" fill="#000" stroke-width="0"/><path d="M108.31,80.23c.47.15.53.46.54.78.02,2.16.09,4.32.02,6.48-.05,1.62-.27,3.24-.45,4.86-.05.49-.24.97-.32,1.46-.03.17.1.36.16.55.16-.12.41-.21.46-.36.13-.39.18-.8.23-1.21.33-2.77.66-5.54.98-8.3.06-.57.04-1.14.08-1.71.02-.27.11-.53.17-.79.07,0,.14,0,.2,0,.05.2.14.41.14.61.04,2.2,0,4.39-.35,6.58-.22,1.32-.34,2.66-.49,3.99-.08.76-.22,1.49-.79,2.05-.32.32-.69.54-1.15.3-.45-.24-.61-.63-.52-1.13.05-.3.06-.62.18-.89.74-1.79.66-3.69.73-5.55.09-2.32.05-4.64.07-6.97,0-.23.06-.47.1-.75Z" fill="#000" stroke-width="0"/><path d="M71.43,83.23c0-.88.03-1.69,0-2.5-.05-.93-.18-1.85-.23-2.77-.01-.2.18-.41.28-.61.13.17.37.33.37.5.01,2.35.57,4.7.07,7.05-.01.07,0,.16-.03.21-.15.2-.32.39-.49.58-.17-.16-.44-.3-.48-.49-.21-.92-.41-1.85-.51-2.79-.15-1.4-.29-2.81-.31-4.22-.01-.8.08-1.65.35-2.39.78-2.16.91-4.31.33-6.53-.1-.39-.15-.81-.15-1.22,0-.24.13-.49.21-.73.07,0,.13,0,.2.01.08.15.19.29.23.45.23,1.12.47,2.24.64,3.37.2,1.33-.06,2.63-.42,3.91-.74,2.66-.7,5.35-.22,8.05,0,.02.05.04.16.13Z" fill="#000" stroke-width="0"/><path d="M91.48,40.02c.55.54.57,1.05.57,1.57-.01,3-.53,5.94-.95,8.89-.31,2.23-.55,4.47-.83,6.7-.08.66-.21,1.3-.33,1.96-.02.14-.05.3-.13.4-.14.16-.33.27-.51.4-.13-.18-.35-.34-.37-.53-.08-.92-.18-1.86-.13-2.78.07-1.21.19-2.43.46-3.61.22-.98.69-1.9,1.04-2.85.14-.37.33-.72.39-1.1.41-2.72.86-5.44.56-8.21-.02-.23.13-.48.23-.84ZM90.04,53.52c-.06,0-.11-.01-.17-.02-.13,1.11-.26,2.23-.39,3.34.08,0,.16.02.24.03.11-1.12.22-2.23.33-3.35Z" fill="#000" stroke-width="0"/><path d="M87.81,38.18c.11.24.26.46.32.71.36,1.49.18,2.99.05,4.48-.26,2.95-.59,5.9-.88,8.85-.01.15,0,.3.07.46.35-1.21.62-2.45,1.06-3.63.73-1.96.62-4.04.96-6.06.09-.55.18-1.1.26-1.64.08,0,.16,0,.24,0,.02.22.06.45.06.67-.1,3.61-.68,7.14-1.85,10.57-.14.4-.19.83-.28,1.25-.01.05-.01.11-.03.16-.12.48-.58,1.01-.85.92-.54-.17-.49-.66-.45-1.08.14-1.31.36-2.62.48-3.94.26-2.79.5-5.58.68-8.38.05-.81-.16-1.63-.22-2.45-.02-.29.08-.58.12-.87.09,0,.18-.02.26-.03Z" fill="#000" stroke-width="0"/><path d="M49.28,114.92c.17-2.94.06-5.81.33-8.65.09,0,.17-.01.26-.02.05.23.12.47.15.7.26,2.45-.03,4.89-.15,7.33-.02.36.03.74-.08,1.06-.09.27-.38.47-.57.7-.17-.21-.45-.41-.5-.65-.25-1.15-.54-2.31-.61-3.48-.06-.98.12-1.99.27-2.97.54-3.52.79-7.03.02-10.54-.03-.14-.06-.3,0-.42.07-.14.21-.31.35-.35.09-.02.3.14.34.27.16.43.34.88.39,1.33.4,3.31.23,6.62-.49,9.86-.42,1.86-.27,3.65.05,5.46.01.07.03.14.05.21.01.03.05.04.19.15Z" fill="#000" stroke-width="0"/><path d="M112.17,50.38c.15.27.38.52.45.81.5,1.92.58,3.88.61,5.85.03,2.3.1,4.61.23,6.91.05.94.31,1.86.49,2.79.03.14.12.27.23.52-.07-2-.14-3.85-.21-5.71.07-.03.14-.05.22-.08.1.22.27.42.3.65.07.6.09,1.21.12,1.82.09,1.79.33,3.56.83,5.28.09.31.09.67-.27.76-.15.04-.44-.21-.57-.4-1.42-1.99-1.76-4.31-1.89-6.66-.13-2.44-.06-4.89-.18-7.33-.07-1.33-.37-2.65-.55-3.97-.05-.37-.07-.75-.1-1.13.1-.03.2-.07.29-.1Z" fill="#000" stroke-width="0"/><path d="M63.05,62.57c.28-2.1-.32-4.25.69-6.19.08,0,.16,0,.24.01,0,.21.03.43,0,.63-.39,2.22-.38,4.45-.07,6.68.01.09.06.19.02.26-.12.27-.27.53-.41.8-.2-.17-.47-.3-.6-.52-.65-1.07-.64-2.29-.7-3.48-.13-2.43.35-4.79.8-7.17.46-2.45.7-4.95,1-7.43.05-.42-.09-.85-.09-1.28,0-.17.16-.35.25-.52.13.13.31.23.38.38.08.19.12.42.1.62-.19,2.26-.33,4.53-.62,6.78-.2,1.52-.71,2.99-.94,4.51-.29,1.94-.45,3.9-.06,5.91Z" fill="#000" stroke-width="0"/><path d="M102.91,84.49c.04.48.08.95.11,1.43.11,1.81.4,3.57.95,5.31.25.79.33,1.65.38,2.48.1,1.64.15,3.28.15,4.92,0,.41-.21.86-.43,1.22-.19.32-.57.29-.72-.08-.36-.88-.84-1.73-.79-2.75.09-1.78.2-3.57.19-5.35,0-1.76-.15-3.53-.21-5.29-.02-.5.02-1,.05-1.49,0-.14.09-.28.14-.41.06,0,.11.02.17.03ZM103.4,97.69c.07,0,.13-.01.2-.02v-4.88s-.1,0-.15,0c.03,1.63-.28,3.26-.05,4.89Z" fill="#000" stroke-width="0"/><path d="M36.06,76.45c.03.27.08.54.09.82.05,1.45.06,2.89.12,4.34.07,1.58.4,3.12.95,4.6.47,1.26.87,2.53.73,3.92.52-1.93.34-4.02,1.38-5.8.08,0,.15.02.23.03,0,.19.03.39,0,.58-.26,1.6-.52,3.2-.8,4.8-.13.74-.29,1.47-.45,2.2-.04.19-.12.39-.25.52-.12.12-.34.22-.5.19-.11-.02-.25-.25-.27-.4-.04-.48-.07-.97-.03-1.45.15-1.63-.25-3.15-.79-4.66-.48-1.35-.79-2.73-.74-4.19.03-.85-.19-1.7-.22-2.56-.03-.77,0-1.54.05-2.3.02-.23.18-.46.28-.69.08.02.16.03.23.05Z" fill="#000" stroke-width="0"/><path d="M115.93,70.74c.12.19.36.38.35.56-.12,1.68.65,3.13,1.19,4.63,1.16,3.2,1.82,6.49,1.87,9.9,0,.14.05.32-.02.42-.12.17-.31.3-.47.45-.11-.14-.28-.26-.31-.41-.14-.75-.22-1.52-.36-2.27-.23-1.24-.48-2.48-.72-3.73-.3-1.52-.56-3.05-.92-4.56-.22-.95-.62-1.86-.86-2.81-.13-.51-.09-1.06-.09-1.59,0-.18.11-.35.17-.53l.16-.05Z" fill="#000" stroke-width="0"/><path d="M66.02,71.85c.01-.56.06-1.11.02-1.67-.08-1.23-.24-2.45-.31-3.68-.03-.44.1-.89.15-1.34.07,0,.14,0,.21-.01.05.18.13.36.14.54.14,1.33.34,2.66.39,4,.05,1.42,0,2.85-.09,4.27-.03.5-.29.99-.49,1.46-.05.13-.27.19-.41.28-.06-.1-.18-.22-.16-.3.39-1.73-.53-3.25-.77-4.87-.17-1.14-.23-2.31-.3-3.46-.08-1.48-.12-2.96-.17-4.44-.01-.34-.03-.69.04-1.01.04-.21.24-.38.37-.57.1.19.26.38.27.58.06.82.08,1.64.09,2.46.04,1.66.03,3.32.13,4.98.05.81.3,1.61.47,2.42.03.13.11.25.16.38.08,0,.15-.01.23-.02Z" fill="#000" stroke-width="0"/><path d="M108.6,76.44c.22-.57.4-1.06.58-1.55.07,0,.14-.01.21-.02.06.2.2.42.17.61-.21,1.09-.42,2.18-.74,3.23-.11.36-.51.67-.85.91-.34.24-.6.09-.58-.33.04-.62.11-1.24.23-1.85.21-1.08.52-2.15.69-3.24.2-1.26-.07-2.49-.36-3.71-.47-2.02-.97-4.03-1.44-6.05-.06-.27-.07-.57-.03-.84.05-.3.26-.33.45-.1.11.13.19.31.22.48.62,2.92,1.3,5.82,1.79,8.76.17,1.01-.17,2.11-.28,3.17-.02.15-.04.31-.07.54Z" fill="#000" stroke-width="0"/><path d="M74.55,51.94c.49-2,.21-3.98.9-5.78.05,0,.09,0,.14,0,.02.12.08.24.07.36-.13,1.71-.25,3.42-.4,5.13-.03.38-.16.78-.33,1.12-.09.18-.38.36-.58.36-.15,0-.38-.26-.44-.45-.14-.42-.25-.86-.27-1.3-.08-1.39-.07-2.78.28-4.15.17-.66.23-1.38.22-2.07-.03-1.75.04-3.5-.43-5.21-.01-.05-.03-.11-.01-.16.05-.18.12-.35.18-.52.15.11.35.18.44.33.15.25.32.55.34.83.11,2.12.5,4.25.1,6.35-.29,1.51-.44,3-.39,4.52,0,.12,0,.25.02.37,0,.05.05.09.16.3Z" fill="#000" stroke-width="0"/><path d="M57.92,61.82c1.48,3.34,1.59,6.87,1.26,10.47.08,0,.15,0,.23,0,.05-.77.11-1.55.16-2.32.04-.76.07-1.53.11-2.29l.27-.02c.06.18.17.36.17.53-.08,1.98-.16,3.96-.29,5.94-.02.28-.31.54-.48.8-.2-.26-.56-.51-.59-.79-.11-1.37-.25-2.75-.16-4.11.12-1.76-.12-3.46-.52-5.15-.17-.73-.37-1.45-.51-2.19-.05-.28.03-.58.05-.87.1,0,.21,0,.31,0Z" fill="#000" stroke-width="0"/><path d="M104.03,41.64c.08.15.18.29.23.44.33.87.53,1.74.52,2.7-.03,2.86.27,5.7,1.14,8.45.1.32.2.66.22.99,0,.2-.15.4-.23.6-.17-.09-.41-.14-.51-.29-1.3-1.97-2.14-4.03-1.81-6.49.26-1.93.42-3.89.23-5.85-.02-.17.05-.36.07-.54.05,0,.1-.02.14-.02ZM104.79,51.84c-.54-2.16-.53-4.36-.47-6.57-.74,2.26-.43,4.44.47,6.57Z" fill="#000" stroke-width="0"/><path d="M99.26,78.4c0-.96-.07-1.94.02-2.89.07-.74.32-1.46.54-2.17.05-.16.31-.26.47-.39.05.21.15.43.12.63-.07.44-.29.86-.31,1.3-.08,2.09-.13,4.17-.15,6.26,0,.29.14.6.28.86.51.92.63,1.92.76,2.93.21,1.56.49,3.1.74,4.65.02.11.07.22.04.31-.04.12-.11.26-.22.33-.04.03-.24-.09-.28-.17-.13-.29-.25-.6-.3-.91-.23-1.27-.41-2.54-.65-3.8-.2-1.03-.29-2.08-.91-3-.2-.3-.22-.75-.23-1.14-.03-.93-.01-1.86-.01-2.79.02,0,.05,0,.07,0Z" fill="#000" stroke-width="0"/><path d="M77.45,93.68c.1-.88.2-1.77.3-2.65l.24-.04c.09.2.26.4.24.59-.1,1.35-.22,2.7-.39,4.04-.03.21-.32.5-.53.55-.15.03-.48-.26-.54-.46-.14-.45-.2-.94-.24-1.41-.18-2.31-.36-4.62-.5-6.94-.02-.29.15-.83.28-.85.46-.06.54.4.57.74.09,1.35.14,2.71.2,4.06.03.61.07,1.21.12,1.81.02.2.08.4.12.59.04,0,.08,0,.13-.01Z" fill="#000" stroke-width="0"/><path d="M58.66,102.87c-.11-.23-.29-.44-.33-.68-.38-2.25-.79-4.5-1.08-6.77-.3-2.34-.49-4.69-.7-7.03-.02-.27.16-.55.25-.83.15.26.39.5.42.78.31,2.61.55,5.22.86,7.82.24,2.02.54,4.04.8,6.05.03.2,0,.4,0,.6-.07.02-.15.04-.22.06Z" fill="#000" stroke-width="0"/><path d="M87.05,92c-.26-.79-.53-1.58-.77-2.37-1.03-3.35-1.15-6.82-1.3-10.29-.05-1.11-.22-2.2-.32-3.31-.02-.28-.13-.71.29-.73.15,0,.44.45.46.71.09,1.44.16,2.89.16,4.33,0,3.04.38,6.02,1.34,8.92.22.66.32,1.36.43,2.04.03.19-.12.4-.18.6-.03.03-.07.06-.1.09Z" fill="#000" stroke-width="0"/><path d="M33.64,75.87c-.55-.17-.5-.45-.39-.8.54-1.68,1.1-3.36,1.58-5.05.63-2.23.69-4.54.8-6.84.03-.71.18-1.41.32-2.12.02-.13.21-.23.32-.34.07.15.24.32.21.44-.65,2.45-.09,5.01-.61,7.45-.43,2-1.17,3.93-1.77,5.89-.14.46-.3.92-.45,1.38Z" fill="#000" stroke-width="0"/><path d="M72.85,61.69c.05.21.15.42.14.62-.06,1.07-.14,2.14-.24,3.21-.03.35-.16.7-.59.72-.46.02-.66-.29-.74-.7-.35-1.9-.69-3.8-1.04-5.7-.11-.61-.24-1.23-.35-1.84-.03-.17-.02-.34-.03-.54.49-.02.67.28.74.61.19.91.33,1.82.51,2.73.23,1.19.46,2.37.82,3.55.07-.45.12-.89.2-1.34.08-.44.2-.88.3-1.32.09,0,.17,0,.26,0Z" fill="#000" stroke-width="0"/><path d="M33.73,65.76c.06.57.21,1.04.12,1.46-.28,1.4-.59,2.79-.97,4.16-.45,1.61-1.01,3.2-1.49,4.8-.24.81-.4,1.65-.61,2.53-.43-.34-.77-.61-.52-1.23.31-.74.54-1.51.78-2.28.81-2.66,1.74-5.29,2.04-8.08.05-.44-.02-.95.65-1.36Z" fill="#000" stroke-width="0"/><path d="M88.45,92.66c-.39-.19-.47-.5-.54-.93-.21-1.22-.59-2.41-.82-3.63-.21-1.15-.41-2.32-.44-3.49-.03-1.46-.17-2.88-.62-4.27-.08-.24-.04-.52-.06-.78.07-.02.15-.05.22-.07.12.21.31.42.35.65.26,1.33.58,2.65.7,3.99.14,1.59.37,3.14.84,4.67.27.88.25,1.85.33,2.79.03.33-.01.68.39.67-.1.12-.23.26-.35.4,0,0,0,0,0,0Z" fill="#000" stroke-width="0"/><path d="M70.16,101.98c.55-.32.77-.2.8.44.03.69.03,1.39.02,2.09,0,.37-.05.77-.51.82-.47.05-.55-.35-.62-.71-.36-1.67-.7-3.35-1.08-5.01-.14-.62-.41-1.22-.55-1.84-.05-.19.11-.43.17-.65.16.16.39.3.45.49.46,1.46.89,2.92,1.32,4.39Z" fill="#000" stroke-width="0"/><path d="M87.97,92.61c.16.02.32.04.48.05,0,0,0,0,0,0-.04,1.23-.08,2.46-.13,3.68,0,.19-.08.42-.21.54-.21.19-.49.39-.75.39-.13,0-.35-.42-.37-.66-.05-.84-.14-1.69,0-2.51.09-.54-.06-.94-.24-1.38,1.26.42.85,1.52.99,2.41.13-.66.39-1.3.05-1.96.44-.05.15-.37.2-.56Z" fill="#000" stroke-width="0"/><path d="M75.3,62.62c-.11-.19-.24-.38-.32-.58-.93-2.25-1.15-4.6-1.02-7,0-.02,0-.04,0-.05.12-.21.24-.43.36-.64.1.22.28.44.3.67.08,1.35.04,2.71.19,4.06.1.93.43,1.84.65,2.76.06.24.06.49.09.73-.08.02-.16.03-.24.05Z" fill="#000" stroke-width="0"/><path d="M83.05,95.44s.09-.07.1-.12c.61-2.04,1.22-4.08,1.83-6.13.06-.21.16-.41.31-.59.28.69-.03,1.34-.11,1.99-.08.71-.22,1.41-.4,2.1-.17.67-.44,1.31-.67,1.98-.11-.06-.23-.13-.36-.21-.04.06-.1.11-.09.15.08.36.19.72.26,1.09.03.2-.01.4-.02.61,0,0,0,0,0,0-.29-.29-.58-.59-.88-.88Z" fill="#000" stroke-width="0"/><path d="M89.99,88.2c-.08-.24-.2-.48-.25-.73-.29-1.6-.57-3.19-.84-4.79-.04-.23-.08-.47-.03-.69.04-.18.23-.32.35-.47.12.14.26.26.36.41.05.07.04.17.05.26.21,1.81.42,3.61.62,5.42.02.19-.03.39-.05.58-.07,0-.15,0-.22.01Z" fill="#000" stroke-width="0"/><path d="M67.72,63.38c.26-.29.5-.16.75.02.76.58,1.53,1.15,2.29,1.73.13.1.29.26.3.41,0,.12-.19.36-.29.36-.84.02-2.82-1.65-3.04-2.53,0,0,0,0,0,0Z" fill="#000" stroke-width="0"/><path d="M89.77,100.17c-.02.41-.53.65-.83.41-.23-.19-.38-.49-.52-.77-.21-.42-.4-.86-.56-1.3-.05-.14-.03-.31-.04-.47.18,0,.43-.07.51.01.23.24.38.55.57.83.23.35.47.69.71,1.03.07.1.13.2.16.26Z" fill="#000" stroke-width="0"/><path d="M36.77,70.77c-.32.75-.65,1.49-1.01,2.32-.28-.5.35-2.05.84-2.39.06.02.11.05.17.07Z" fill="#000" stroke-width="0"/><path d="M34.9,74.02q.59.51.19,1.51c-.27-.16-.42-.31-.29-.67.1-.28.07-.6.09-.83Z" fill="#000" stroke-width="0"/><path d="M33.18,77.03c0,.11-.05.24-.01.34.1.32,0,.51-.32.6.36-.56.11-.96-.7-1.11.64-.47.72-.45,1.04.18Z" fill="#000" stroke-width="0"/><path d="M35.86,73.37c-.16.36-.27.59-.43.95-.15-.26-.31-.44-.34-.64-.02-.12.16-.33.3-.39.13-.05.32.05.47.07Z" fill="#000" stroke-width="0"/><path d="M87.63,93.02c-.28-.26-.56-.52-.84-.79.09-.08.18-.15.26-.23.03-.03.07-.06.1-.09.26.22.53.45.79.67-.13-.04-.27-.08-.48-.15.07.26.12.42.16.58Z" fill="#000" stroke-width="0"/><path d="M33.55,76.25c-.09.16-.18.31-.27.47-.25-.19-.51-.38-.76-.57.54-.46.81-.25,1.03.1Z" fill="#000" stroke-width="0"/><path d="M84.17,95.97c-.09-.33-.16-.61-.25-.96.6.49.66.71.25.96Z" fill="#000" stroke-width="0"/></svg>