<?xml version="1.0" encoding="UTF-8"?><svg id="Layer_1" xmlns="http://www.w3.org/2000/svg" viewBox="0 0 144.57 144.57"><path d="M131.34,73.07c-.58.7-1.2,1.28-2.24,1.15-.69-.09-1.11-.48-1.4-1.01-.1-.17.13-.53.21-.8.23.12.53.18.66.37.48.66,1.14.8,1.51.25.36-.52.14-.94-.55-1.15-.24-.07-.43-.3-.65-.46.21-.13.43-.24.62-.39.21-.16.5-.32.56-.53.05-.16-.18-.54-.35-.58-.25-.07-.57.03-.83.14-.12.05-.15.31-.27.41-.17.14-.38.22-.57.33-.08-.21-.29-.5-.22-.62.26-.4.55-.83.94-1.08.66-.41,1.83,0,2.17.71.1.22.19.6.08.74-.56.71-.2,1.18.32,1.65v.87Z"/><path d="M131.34,99.46c-.56,1.03-1.36,1.68-2.57,1.27-.45-.16-.8-.69-1.12-1.1-.07-.1.18-.44.28-.66.18.09.39.15.53.28.15.14.21.43.38.52.25.13.61.27.83.17.26-.11.51-.45.56-.72.03-.18-.27-.44-.47-.63-.09-.09-.29-.05-.41-.12-.17-.11-.3-.27-.45-.41.16-.11.34-.21.49-.34.24-.21.52-.41.67-.67.05-.09-.21-.48-.4-.55-.39-.15-.77-.05-.95.39-.14.33-.34.71-.71.45-.16-.12-.14-.65-.03-.94.23-.66.86-.81,1.47-.81.76,0,1.46.52,1.61,1.1.04.16.07.39-.01.49-.59.71-.21,1.22.29,1.73v.58Z"/><path d="M87.73,61.19c0,1.96.01,3.92,0,5.87,0,.54.16.86.66,1.15,3.37,1.95,6.71,3.94,10.07,5.89.17.1.51.09.69-.01,1.75-.99,3.49-2.02,5.23-3.03.41-.24.82-.51,1.26-.68.2-.08.48.06.72.09-.12.23-.18.56-.37.68-.83.53-1.7,1-2.56,1.49-1.25.71-2.51,1.4-3.74,2.14-.21.13-.43.45-.44.68,0,1.93.04,3.86.06,5.79.01,1.76.11,3.54-.03,5.29-.1,1.25.48,1.78,1.45,2.3,1.76.93,3.48,1.96,5.21,2.96.29.17.76.36.45.8-.29.42-.68.15-1.02-.05-2-1.19-4-2.38-5.99-3.57-.42-.25-.8-.2-1.21.05-2.13,1.25-4.28,2.49-6.41,3.74-1.24.72-2.48,1.43-3.69,2.2-.59.37-1.08.33-1.66-.01-3.25-1.91-6.52-3.81-9.78-5.7-.19-.11-.4-.18-.58-.28-.57-.32-.97-.72-.96-1.46.02-3.75,0-7.49.02-11.24,0-.88-.15-1.42-1.09-1.83-1.31-.57-2.49-1.45-3.74-2.17-2-1.15-4.01-2.28-6-3.43-.52-.3-.84-.72-.83-1.4.03-3.91,0-7.83.02-11.74,0-.59-.17-.92-.73-1.23-2.8-1.58-5.56-3.24-8.33-4.87-.56-.33-1.09-.71-1.66-1.01-.2-.1-.55-.12-.73-.02-1.44.82-2.85,1.69-4.27,2.53-2.22,1.3-4.44,2.59-6.67,3.87-.69.39-1.13-.26-1.61-.52-2.93-1.64-5.89-3.25-8.72-5.07-1.33-.86-2.37-.9-3.73-.17-1.49.81-3.09,1.39-4.67,2.02-.23.09-.58-.11-.88-.17.2-.29.34-.7.62-.83.91-.43,1.87-.75,2.81-1.12,1.05-.42,2.1-.85,3.15-1.26.39-.15.53-.4.53-.83-.02-3.82-.05-7.63,0-11.45,0-.9-.64-.95-1.17-1.1-1.91-.52-3.84-.98-5.77-1.46-.21-.05-.48,0-.63-.13-.23-.19-.37-.48-.55-.73.27-.09.55-.28.8-.24.49.07.96.28,1.44.42,1.94.55,3.87,1.09,5.82,1.61.24.07.58.04.8-.09,2.17-1.23,4.32-2.49,6.47-3.75,1.45-.85,2.88-1.74,4.36-2.55.28-.15.78-.14,1.06,0,1.39.75,2.75,1.58,4.12,2.38,2.2,1.28,4.4,2.57,6.62,3.83.22.13.64.12.86,0,2.52-1.45,5.01-2.94,7.52-4.42,1.01-.6,2.04-1.17,3.05-1.77.39-.23.69-.28,1.12-.02,3.2,1.91,6.34,3.93,9.66,5.59,1.65.82,2.03,1.82,1.91,3.44-.11,1.64-.03,3.28-.02,4.93,0,.33.1.67.09,1,0,.24-.06.55-.22.68-.14.11-.5.1-.66,0-.14-.09-.17-.4-.17-.61,0-2.46.04-4.93,0-7.39,0-.27-.35-.61-.62-.77-2.6-1.54-5.23-3.04-7.84-4.56-.69-.4-1.34-.88-2.06-1.19-.36-.15-.92-.16-1.25.02-2,1.1-3.95,2.28-5.92,3.43-1.37.8-2.76,1.56-4.11,2.39-.22.13-.41.5-.41.77-.03,3.99-.03,7.97,0,11.96,0,.25.22.6.44.73,3.09,1.81,6.25,3.51,9.26,5.44,1.15.74,1.93.53,2.91-.1,1.44-.91,2.92-1.76,4.41-2.59.31-.17.99-.27,1.06-.14.34.57-.2.75-.6.98-1.74.98-3.46,1.97-5.21,2.94-.53.29-.75.67-.74,1.28.02,3.6.06,7.2-.02,10.8-.02,1.03.36,1.56,1.19,2.02,2.06,1.14,4.11,2.31,6.15,3.49,1.2.69,2.38,1.43,3.59,2.11.17.1.51.05.7-.06,2.24-1.3,4.47-2.63,6.71-3.93,1.2-.7,2.43-1.34,3.62-2.06.22-.13.4-.51.4-.77.03-3.96.03-7.93,0-11.89,0-.28-.22-.67-.45-.81-1.9-1.13-3.83-2.21-5.75-3.3-.4-.23-.49-.55-.28-.89.07-.11.51-.09.69.01,2.12,1.22,4.23,2.46,6.31,3.74.28.17.51.65.51.99.05,2,.02,4.01.02,6.02ZM29.4,41.18c0,1.93.01,3.87,0,5.8,0,.46.13.76.55.99,1.51.84,3,1.72,4.49,2.58,1.79,1.04,3.58,2.06,5.36,3.12.61.36,1.13.34,1.74-.03,2.12-1.27,4.26-2.49,6.4-3.73,1.19-.69,2.38-1.36,3.55-2.08.2-.12.39-.43.4-.66.02-3.94.02-7.88-.02-11.81,0-.33-.27-.78-.55-.95-1.26-.79-2.58-1.5-3.87-2.25-2.08-1.2-4.16-2.42-6.26-3.6-.27-.15-.75-.18-1.01-.03-1.48.81-2.91,1.69-4.37,2.53-1.96,1.13-3.93,2.23-5.86,3.39-.28.17-.5.65-.51.99-.05,1.91-.02,3.82-.02,5.73ZM98.27,81.55c0-1.98-.01-3.96,0-5.94,0-.45-.16-.71-.53-.92-1.33-.74-2.67-1.5-3.99-2.27-2.02-1.18-4.01-2.39-6.04-3.55-.24-.14-.67-.17-.9-.05-1.61.87-3.18,1.79-4.77,2.7-1.81,1.04-3.63,2.06-5.41,3.15-.31.19-.62.67-.62,1.02-.04,3.89-.04,7.78,0,11.67,0,.31.22.74.47.89,1.37.84,2.78,1.6,4.17,2.4,2.05,1.17,4.09,2.35,6.15,3.49.23.13.65.1.89-.03,1.18-.64,2.32-1.36,3.49-2.03,2.18-1.26,4.37-2.51,6.56-3.75.41-.23.55-.53.54-.99-.02-1.93,0-3.87,0-5.8Z"/><path d="M73.72,46.65c0,1.02,0,2.04,0,3.06,0,.48.04.96.06,1.44.03.47-.29.64-.64.53-.22-.07-.52-.39-.52-.59-.01-1.83.02-3.66.08-5.49.01-.3.26-.6.39-.89.37.2.88.31,1.09.62.89,1.34,1.7,2.73,2.53,4.11.09.14.16.29.23.44.09-.05.18-.1.27-.15-.04-.3-.11-.61-.12-.91-.03-1.13-.08-2.27-.03-3.4,0-.24.36-.47.55-.71.22.22.63.43.64.66.03,1.15-.05,2.3-.08,3.46-.02.63-.08,1.26,0,1.87.06.43.12.79-.34.95-.44.15-.85.07-1.12-.39-.85-1.43-1.71-2.85-2.56-4.28-.07-.12-.14-.23-.21-.35-.08,0-.15.02-.23.03Z"/><path d="M13.75,52.96c-.19-2.12,1.7-3.73,3.37-3.7,2.15.04,3.37,1.49,3.36,3.49,0,2.33-1.4,3.76-3.46,3.78-1.67.02-3.41-1.29-3.28-3.58ZM14.95,52.92c-.14,1.32.42,2.28,1.83,2.54.72.13,1.84-.26,2.08-.84.44-1.08.73-2.16.07-3.3-.45-.79-1.51-1.29-2.36-.94-1.28.53-1.63,1.07-1.63,2.55Z"/><path d="M107.14,68.32c-.19-1.95,1.35-3.6,3.18-3.64,2.49-.05,3.74,1.71,3.43,4.09-.13.96-.41,1.9-1.35,2.52-1.16.76-2.4.84-3.54.27-1.09-.54-1.72-1.57-1.71-2.88,0-.12,0-.24,0-.36ZM108.28,68.31c0,.14,0,.29,0,.43.02.82.61,1.71,1.32,1.99.87.33,1.95.17,2.45-.53.65-.9.72-1.98.43-3.03-.36-1.29-1.73-1.86-2.94-1.25-.96.49-1.34,1.32-1.27,2.38Z"/><path d="M19.24,31.39c.08,1.43-.51,2.5-1.7,3.28-.71.47-2.51.41-3.26.01-2.18-1.14-2.09-4.77-.5-6.13.76-.65,1.74-.89,2.78-.69,1.9.36,2.79,1.77,2.67,3.52ZM18.27,31.47c-.06-.02-.12-.05-.18-.07,0-.12,0-.24,0-.36-.01-.96-.52-1.74-1.31-2.05-.88-.34-1.84-.1-2.47.66-.7.84-.61,1.83-.44,2.81.14.83.65,1.29,1.47,1.47.87.19,1.67.13,2.17-.67.34-.54.51-1.19.76-1.79Z"/><path d="M107.14,95.34c-.19-1.98,1.52-3.66,3.43-3.59,2.08.08,3.25,1.37,3.21,3.38-.05,2.34-1.03,3.75-3.36,3.81-2.16.06-3.41-1.68-3.27-3.6ZM108.28,95.39c0,.17,0,.34,0,.51.02.71.62,1.64,1.18,1.85,1.04.38,2.12.22,2.62-.51.61-.87.64-1.89.44-2.91-.25-1.29-1.82-1.91-2.8-1.46-.83.38-1.44,1.34-1.44,2.52Z"/><path d="M121.42,68.32c0-.89,0-1.79,0-2.68,0-.41.02-.79.58-.8.55-.01.73.27.68.77-.04.43-.09.86-.13,1.28-.05.43.1.73.57.74.75.02,1.5,0,2.25,0,.45,0,.59-.25.57-.65-.03-.53-.08-1.06-.09-1.59,0-.41.19-.81.62-.67.28.09.61.53.62.82.05,1.87.04,3.75,0,5.62,0,.23-.35.64-.5.62-.26-.03-.65-.3-.69-.52-.09-.51-.04-1.06.02-1.58.12-1.03.06-1.11-.94-1.08-.6.02-1.21.01-1.81,0-.46,0-.67.16-.6.65.08.62.1,1.24.17,1.86.06.53-.35.67-.66.63-.23-.03-.58-.39-.6-.62-.07-.94-.03-1.88-.03-2.82Z"/><path d="M121.42,95.59c0-.96,0-1.93,0-2.89,0-.39-.03-.8.55-.82.54-.02.74.27.7.77-.03.43-.07.86-.11,1.28-.05.48.08.82.63.82.7,0,1.4,0,2.1,0,.47.01.66-.21.63-.66-.03-.53-.08-1.06-.1-1.58,0-.4.14-.75.62-.71.49.04.67.37.66.86-.03,1.82-.02,3.65-.08,5.47,0,.25-.33.48-.51.72-.23-.19-.63-.35-.65-.56-.06-.59.02-1.2.06-1.8.04-.76-.08-.87-.83-.84-.65.03-1.3.02-1.95.02-.51,0-.66.25-.6.75.08.59.08,1.19.14,1.79.04.45-.2.62-.59.63-.42,0-.68-.17-.68-.65.01-.87,0-1.74,0-2.6,0,0,0,0,0,0Z"/><path d="M94.89,48.99c1.37,1.17,1.07,2.23.4,3.04-.85,1.03-2.42,1.04-3.43.15-.99-.88-.93-1.74.16-3.1-.23-.58-.58-1.11-.61-1.65-.02-.34.37-.76.67-1.06.82-.82,2.38-.58,3.11.12.72.69.65,1.24-.29,2.5ZM94.76,50.75c.01-.63-.64-1.25-1.31-1.26-.53,0-1.1.62-1.1,1.19,0,.64.46,1.07,1.16,1.07.7,0,1.23-.42,1.24-1.01ZM93.83,46.89c-.93-.03-1.35.27-1.34.74,0,.5.58,1.15,1.01.98.41-.15.72-.6,1.07-.91-.3-.32-.59-.64-.75-.81Z"/><path d="M99.6,68.15c-1.05.69-1.92.52-2.75-.32-.71-.71-.6-1.98-.26-2.64.44-.83,1.34-1.23,2.33-1.07.96.15,1.78.85,1.81,1.79.04,1.16-.06,2.34-.21,3.49-.1.74-.98,1.42-1.64,1.52-1.04.16-1.86-.19-2.41-1.06-.11-.17,0-.56.13-.77.06-.09.44,0,.67.07.1.03.18.16.24.26.34.49.7.88,1.37.52.65-.35.92-.92.72-1.8ZM97.55,66.37c0,.87.27,1.25.92,1.27.72.02,1.27-.49,1.27-1.17,0-.77-.58-1.47-1.21-1.45-.61.02-.98.53-.98,1.35Z"/><path d="M115.57,68.35c0,1.63.67,2.49,1.96,2.51.78.01,1.34-.33,1.65-1.05.06-.13.06-.34.16-.39.28-.16.59-.25.89-.38.05.33.25.73.13.97-.88,1.71-2.36,2.23-3.93,1.67-.92-.32-1.47-.98-1.71-1.88-.41-1.57-.47-3.09.81-4.38,1.38-1.4,4.3-.8,4.87,1.05.05.16-.26.63-.35.62-.29-.05-.65-.18-.82-.4-.74-.95-1.27-1.21-2.17-.95-.83.23-1.42,1.08-1.48,2.1,0,.17,0,.34,0,.51Z"/><path d="M115.45,95.37c.11,1.38.5,2.07,1.44,2.42,1.05.39,1.91.02,2.33-1.02.07-.17.12-.41.25-.49.2-.12.62-.24.68-.16.17.21.33.59.25.81-.88,2.34-3.75,2.5-5.02,1.16-.32-.34-.59-.79-.7-1.24-.4-1.62-.44-3.19.94-4.47,1.34-1.24,4.24-.57,4.78,1.14.05.15-.06.48-.13.5-.29.05-.61.05-.89-.03-.14-.04-.26-.28-.33-.45-.53-1.29-2.4-1.13-3.1.12-.28.51-.35,1.13-.52,1.7Z"/><path d="M56.18,66.87c.81-.05,1.42.24,1.84.98.4.71.19,1.27-.22,1.87-.09.13-.07.46.04.57.95.96.77,2.61-.48,3.22-1.48.72-3.03.17-3.54-1.24-.14-.38-.19-.8.26-.88.25-.04.7.23.84.48.51.94,1.34,1.22,2.14.54.22-.19.25-.69.25-1.04,0-.18-.25-.42-.45-.51-.3-.14-.67-.11-.96-.25-.2-.1-.32-.36-.48-.55.18-.13.35-.36.54-.37.62-.04,1.1-.2,1.15-.92.03-.43-.14-.75-.6-.86-.66-.17-1.12.06-1.43.72-.05.11-.06.26-.15.32-.2.15-.51.4-.62.34-.2-.12-.38-.42-.39-.66-.03-.72.95-1.66,1.76-1.76.17-.02.34,0,.51,0Z"/><path d="M13.61,49.07c-1.51-1.88-3.02-3.72-4.48-5.59-.97-1.23-.92-1.25-.1-2.55,1.13-1.78,2.23-3.59,3.35-5.37.19-.31.42-.68.86-.39.43.29.18.6-.03.92-1.24,1.88-2.49,3.75-3.69,5.66-.14.22-.08.73.09.94,1.46,1.82,2.97,3.6,4.46,5.39.38.46.29.67-.45,1Z"/><path d="M66.84,61.39c0,1.55.01,3.09-.01,4.64,0,.26-.14.53-.28.76-.03.05-.39,0-.43-.07-.13-.28-.22-.58-.26-.89-.03-.26.05-.53.05-.79,0-2.49,0-4.98,0-7.47,0-.29-.14-.59-.07-.85.09-.31.33-.58.5-.87.17.25.47.5.48.75.04,1.59.02,3.19.02,4.78Z"/><path d="M50.67,72.81c0-1.08-.01-2.15,0-3.23,0-.55-.2-.76-.74-.62-.11.03-.26.07-.35.03-.22-.09-.42-.24-.63-.36.16-.18.29-.4.49-.53.22-.14.51-.14.74-.27.19-.11.41-.28.47-.47.13-.43.43-.59.75-.41.2.11.34.49.34.75,0,.91-.13,1.82-.13,2.72,0,.79.11,1.57.16,2.36.03.44-.03.84-.62.84-.57,0-.67-.36-.48-.83Z"/><path d="M79.44,40.19c-.05-.44-.16-.76-.09-1.05.04-.18.32-.4.52-.43.13-.02.33.25.44.43.07.11.03.28.02.43-.05.56.07.87.75.69.37-.1.87-.07.86.47-.02.52-.43.64-.9.53-.49-.12-.75.05-.7.59,0,.1,0,.19,0,.29.01.39-.11.74-.55.62-.2-.05-.48-.45-.44-.64.14-.81-.14-.99-.9-.84-.18.04-.57-.25-.63-.46-.13-.43.2-.57.6-.57.34,0,.68-.03,1.03-.05Z"/><path d="M79.11,52.26c.28.14.39.19.49.25,1.63.92,3.27,1.83,4.88,2.8.23.14.31.55.46.83-.31,0-.67.11-.91-.02-1.54-.83-3.06-1.7-4.57-2.57-.22-.13-.5-.31-.57-.52-.06-.19.13-.47.23-.75Z"/><path d="M50.06,46.68c-.14.16-.25.36-.41.45-2.23,1.28-4.47,2.55-6.7,3.82-.58.33-1.13.73-1.73,1.04-.21.11-.51.01-.77.01.09-.26.11-.65.3-.77,1.2-.74,2.44-1.42,3.67-2.13,1.54-.89,3.08-1.79,4.63-2.66.23-.13.53-.15.81-.18.05,0,.12.23.21.42Z"/><path d="M50.08,35.72c-.11.22-.16.43-.24.45-.17.03-.38,0-.53-.08-2.43-1.4-4.84-2.81-7.26-4.22-.39-.23-.84-.38-1.19-.66-.21-.17-.27-.52-.4-.79.29,0,.63-.12.85,0,1.03.56,2.02,1.19,3.04,1.77,1.71.97,3.44,1.91,5.14,2.89.24.14.4.43.59.64Z"/><path d="M31.79,41.16c0,1.59.02,3.18-.02,4.77,0,.24-.25.48-.38.72-.14-.24-.4-.48-.41-.72-.03-3.18-.03-6.36,0-9.54,0-.22.29-.44.45-.66.11.22.32.44.32.66.03,1.59.02,3.18.02,4.77,0,0,0,0,0,0Z"/><path d="M87.44,92.17c-.27.04-.6.2-.8.1-.75-.36-1.46-.81-2.19-1.23-2.02-1.15-4.04-2.29-6.07-3.43-.13-.07-.32-.11-.36-.22-.1-.24-.12-.52-.18-.78.23-.01.51-.11.68-.02,1.11.62,2.19,1.3,3.29,1.94,1.64.95,3.3,1.87,4.94,2.81.26.15.48.35.72.53,0,.1-.02.19-.03.29Z"/><path d="M95.96,81.55c0-1.55-.02-3.09.02-4.64,0-.28.24-.55.37-.82.16.28.46.55.46.83.03,2.97.02,5.94.01,8.91,0,.19.05.41-.02.57-.1.22-.3.4-.46.6-.12-.2-.35-.4-.36-.61-.03-1.62-.02-3.24-.02-4.85h0Z"/><path d="M78.28,76.48c-.17-.1-.45-.2-.45-.29.01-.21.1-.49.25-.59.97-.61,1.96-1.19,2.95-1.76,1.76-1.02,3.53-2.02,5.3-3.03.12-.07.24-.2.37-.2.22,0,.44.06.66.1-.08.22-.09.55-.24.65-.68.45-1.39.85-2.1,1.26-2.05,1.19-4.1,2.37-6.15,3.55-.18.11-.37.19-.6.31Z"/></svg>