<?xml version="1.0" encoding="UTF-8"?><svg id="Layer_1" xmlns="http://www.w3.org/2000/svg" viewBox="0 0 144.57 144.57"><path d="m75.99,57.63c-.29-.38-.59-.76-.88-1.14.02-.02.04-.05.06-.07.23.2.46.4.72.63.08-.16.15-.28.21-.41.11-.22.24-.39.54-.35.23.04.22-.14.23-.3.04-.52.07-1.04.18-1.56.11.89.21,1.78.32,2.67.03,0,.06,0,.09,0,.05-.36.06-.73.14-1.08.2-.85.43-1.68.67-2.52.34-1.21.47-2.44.39-3.69-.01-.19-.11-.38-.13-.58-.02-.21.01-.42,0-.63,0-.16,0-.33-.06-.47-.41-.95-.28-1.84.4-2.6.51-.58.75-1.19.74-1.96,0-.64.12-1.28.1-1.91-.02-.76-.13-1.52-.21-2.28,0-.08,0-.15-.01-.29.67.79.29,1.77.56,2.59.04,0,.09,0,.13,0,.06-.35.12-.69.18-1.04.37-2.09-.01-4.06-.91-5.96-.36-.75-.59-1.56-.84-2.36-.31-1-.27-2.02.21-2.92.75-1.41.81-2.91.82-4.44,0-.3,0-.61.03-.91.01-.15.06-.3.09-.46.04,0,.08-.02.12-.02.09.16.17.33.26.49.38.61.67,1.3,1.16,1.8.74.75,1.09,1.62,1.22,2.63.18,1.37.35,2.74.56,4.11.08.52.26,1.03.42,1.54.17.55.35,1.09.55,1.71.11-.2.23-.37.29-.55.46-1.51.91-3.02,1.37-4.53.24-.8.3-1.6-.02-2.39-.09-.22-.23-.43-.33-.65-.34-.72-.72-1.43-.99-2.18-.31-.89.02-1.74.36-2.57.23-.57.47-1.14.8-1.66.23-.37.56-.73.94-.95,1.14-.69,2.31-1.35,3.49-1.95,1.13-.57,1.88-1.45,2.4-2.57.13-.27.24-.56.37-.82.09-.17.2-.32.36-.56.3.88.28,1.69.29,2.56.13-.07.21-.11.27-.16.46-.41,1-.67,1.6-.82.54-.14.93-.5,1.29-.9.16-.18.31-.37.47-.55.34.24.4.45.23.83-.44.98-.6,2.05-.47,3.1.27,2.29-.23,4.43-1.04,6.54-.35.91-.58,1.86-.87,2.79-.47,1.52-1.55,2.48-2.98,3.06-.34.14-.75.14-1.13.14-.91,0-1.81-.06-2.72-.06-.71,0-1.21.34-1.56.98-.51.91-.73,1.9-1.02,2.88-.3,1-.66,1.98-1.01,2.96-.06.17-.17.32-.34.44.11-.31.24-.61.33-.93.39-1.29.73-2.59,1.15-3.87.28-.84.7-1.64,1.03-2.47.44-1.14,1.07-2.16,1.85-3.09.1-.11.16-.26.23-.39.28-.48.49-1.01.84-1.44.82-1.03,1.27-2.18,1.47-3.48.25-1.61.74-3.17,1.57-4.59.36-.62.54-1.28.45-2-.01-.09-.03-.17-.14-.31-.01.04-.03.09-.04.13-.31,1.46-1.16,2.59-2.22,3.59-1,.94-1.99,1.89-2.76,3.04-1.01,1.52-1.47,3.15-1.09,5,.21,1.02,0,2-.5,2.96-.41.79-.66,1.68-.91,2.55-.35,1.2-.74,2.36-1.26,3.5-.48,1.06-.82,2.19-1.21,3.3-.04.11-.03.24-.05.36l.1.05c.24-.34.48-.68.72-1.02.03.02.07.04.1.06-.58.98-1.16,1.96-1.75,2.97.67.2,1.29.11,1.89-.13.73-.3,1.45-.61,2.17-.94,1.03-.48,2.08-.8,3.25-.75.84.03,1.69-.15,2.53-.25.47-.06.94-.17,1.41-.25.72-.13,1.22.14,1.61.81.51.88,1.06,1.74,1.56,2.63.16.28.29.62.31.94.05.69.02,1.39.02,2.09,0,.12,0,.25,0,.42.28-.16.51-.31.76-.41.39-.17.58-.1.69.3.14.51.28,1.03.33,1.56.06.64.26,1.19.78,1.57.7.53.85,1.23.66,2.02-.21.86-.47,1.7-.74,2.54-.36,1.16-.7,2.34-1.14,3.47-.32.82-.78,1.58-1.2,2.4.05.03.12.08.2.1.78.19,1.56.37,2.33.56,1.13.28,2.09.89,2.95,1.65.36.31.51.74.48,1.23-.08,1.4-.17,2.81-.25,4.21-.05.85-.07,1.7-.1,2.54-.04,1.04-.77,1.76-1.8,1.8-.31.01-.63.02-.94.07-1.23.2-2.29.79-3.31,1.48-.6.4-1.2.8-1.84,1.12-1.08.54-2.2.4-3.34.13-1.1-.27-1.93-.87-2.58-1.77-.44-.61-.9-1.21-1.37-1.81-.31-.39-.72-.56-1.28-.46.2.45.35.88.56,1.27.53,1,.66,2.03.45,3.14-.22,1.21-.36,2.44-.61,3.64-.22,1.05-.79,1.91-1.71,2.49-.28.18-.65.26-.98.29-.6.04-1.21,0-1.81.01-.87,0-1.74.05-2.61.03-.52-.01-1.04-.09-1.55-.17-.23-.04-.35,0-.45.2-1.48,2.68-2.61,5.49-3.14,8.52-.33,1.89-.64,3.79-1.11,5.64-.83,3.21-1.91,6.33-3.5,9.26-1.29,2.4-2.34,4.9-3.07,7.53-.5,1.8-.95,3.62-1.41,5.43-.07.27-.07.56-.11.83.03.01.06.02.09.03.07-.08.14-.16.21-.25.98-1.23,1.95-2.46,2.93-3.68.73-.9,1.45-1.82,2.23-2.68,1.03-1.14,2.37-1.86,3.66-2.64,1.65-1.01,3.4-1.81,5.17-2.58.91-.4,1.74-.93,2.45-1.64.82-.82,1.65-1.63,2.47-2.45.29-.29.43-.66.34-1.05-.36-1.61.1-3.07.74-4.52.82-1.88,2.08-3.46,3.35-5.03.23-.28.47-.56.76-.91.09.22.17.34.2.48.15.81.33,1.62.4,2.44.04.53-.04,1.09-.17,1.61-.19.75-.44,1.49-.72,2.22-.38.98-1.06,1.73-1.86,2.4-.33.28-.62.61-.92.92l.06.11c.16-.04.32-.07.47-.11.98-.26,2-.46,2.95-.81,3.24-1.2,5.98-3.07,7.85-6.06.62-.99,1.28-1.94,2.11-2.77.38-.38.7-.81,1.03-1.22.32-.39.4-.82.28-1.31-.21-.86-.42-1.72-.57-2.58-.12-.69-.17-1.4.16-2.05.16-.3.36-.61.62-.83,1.2-1.05,1.99-2.37,2.66-3.79.94-2.01,2.64-3.03,4.73-3.46.78-.16,1.59-.17,2.39-.23.69-.05,1.36-.14,2-.44.07-.03.15-.09.23-.08.28.02.6-.02.82.1.28.16.15.5.08.77-.17.68-.49,1.27-1,1.76-.65.64-1.32,1.3-1.61,2.2-.2.64-.34,1.3-.52,1.95-.31,1.19-.54,2.41-.97,3.56-.9,2.41-2.74,3.78-5.21,4.31-.7.15-1.43.17-2.15.21-.42.03-.78.13-1.05.46-.91,1.08-1.82,2.18-2.73,3.26-1.15,1.36-2.29,2.73-3.65,3.88-1.64,1.4-3.51,2.38-5.5,3.16-.85.34-1.7.7-2.54,1.05-.11.05-.2.12-.31.18.04.06.06.09.07.09,1.21,0,2.41,0,3.51-.63,1.16-.67,2.44-1.03,3.79-1.04.84,0,1.55.3,2.2.84.55.46,1.15.86,1.73,1.29.18.13.35.26.61.45-.5.17-.93.31-1.36.46-1.71.62-3.42,1.24-5.13,1.87-1.09.4-2.2.73-3.37.52-.54-.1-1.08-.27-1.57-.53-1.71-.88-3.37-.93-5.02.12-.73.47-1.48.91-2.25,1.33-1.44.78-2.9,1.52-4.35,2.28-.16.09-.34.16-.49.26-.08.06-.13.17-.19.26.1.04.19.11.29.11.93-.02,1.86-.05,2.79-.09,1.45-.06,2.84.27,4.23.6,1.4.33,2.8.38,4.22.13,1.26-.23,2.53-.35,3.82-.29.68.03,1.29.28,1.82.72.52.43,1,.91,1.55,1.3.95.67,2.06.78,3.19.8.76.01,1.54.01,2.29.14,1.54.26,2.83,1.7,3.03,3.25.08.62.18,1.24.03,1.87-.04.19.07.43.16.62.35.77.75,1.52,1.06,2.31.24.6.17,1.23-.06,1.84-.3.79-.52,1.59-.43,2.45.03.29-.11.39-.35.23-1.26-.85-2.57-1.65-3.39-3-.08-.14-.15-.29-.21-.44-.18-.48-.54-.72-1.01-.87-.96-.31-1.94-.59-2.84-1.02-1.66-.78-2.3-2.36-1.83-4.13.19-.7.28-1.43.4-2.15.05-.27-.05-.47-.3-.65-.24-.17-.45-.41-.61-.66-.72-1.07-1.7-1.5-2.98-1.43-1.68.1-3.37.16-5.05.2-1.66.04-3.28-.28-4.9-.61-.84-.17-1.7-.28-2.55-.38-1.52-.17-2.86.31-4.1,1.15-.63.43-1.24.86-1.6,1.56-.04.07-.06.15-.12.29.23-.07.41-.1.57-.17,1.97-.79,3.8-.51,5.58.61.73.46,1.57.75,2.37,1.07.27.11.59.1.89.14.23.03.32.14.18.35-.09.13-.19.27-.32.36-.99.7-2.03,1.32-3.22,1.61-.48.11-.99.16-1.48.11-.92-.09-1.84-.24-2.75-.42-.94-.18-1.71-.69-2.37-1.38-.21-.22-.42-.43-.65-.63-.4-.35-.63-.38-1.06-.08-.31.21-.59.48-.83.77-.99,1.2-1.75,2.54-2.49,3.9-.64,1.17-1.36,2.3-2,3.47-.42.77-.76,1.59-1.13,2.38-.25.54-.67.88-1.26,1-.1.02-.22-.02-.33-.03.01-.1,0-.2.04-.29,1.06-2.79,1.65-5.7,2.29-8.61.38-1.73.49-3.47.47-5.23,0-.84.02-1.68.11-2.51.16-1.47-.05-2.89-.29-4.33-.35-2.11-1.1-4.1-1.71-6.13-.29-.97-.62-1.93-.86-2.9-.38-1.55-.41-3.15-.48-4.74-.06-1.12-.12-2.26-.34-3.35-.14-.71-.56-1.37-.87-2.04-.06-.12-.21-.25-.33-.28-.72-.14-1.25-.54-1.66-1.12-.02-.03-.05-.04-.12-.09-.09.71-.66.74-1.18.86-.47.11-.93.25-1.4.4-.22.07-.43.19-.65.24-.58.13-1.07.05-1.48-.49-.76-1-1.3-2.06-1.26-3.35.01-.42-.06-.83-.1-1.25,0-.1-.04-.19-.08-.34-.1.08-.17.12-.21.18-.97,1.32-1.44,2.77-1.21,4.42.09.65-.1,1.15-.69,1.5-.39.23-.74.52-1.11.79-.47.35-.95.44-1.5.17-.31-.15-.65-.26-.97-.39-.47-.2-.94-.23-1.44-.14-1.58.26-3-.07-4.25-1.08-.52-.42-.91-.93-1.14-1.56-.2-.54-.17-1.05.19-1.52.11-.14.2-.31.32-.51-.19-.04-.33-.1-.47-.1-.52,0-1.04.02-1.56.07-.44.04-.78-.07-1.02-.44-.59-.92-1.19-1.83-1.76-2.76-.18-.29-.26-.64-.36-.97-.08-.28.1-.45.3-.61.85-.7,1.73-1.37,2.54-2.12.45-.41.83-.9,1.37-1.22.91-.54,1.92-.67,2.94-.76.78-.07,1.55-.07,2.32.13.27.07.61.03.88-.07,1.14-.41,2.17-1,3.02-1.88.82-.84,1.85-1.26,2.98-1.48.18-.04.36-.08.61-.14-.36-.3-.71-.38-1.09-.42-1.23-.12-2.36.23-3.47.73-1.15.51-2.31,1.05-3.5,1.46-1.29.44-2.62.71-4,.66-.79-.03-1.58.05-2.37.06-1,.01-1.55-.49-1.69-1.47-.13-.91-.31-1.81-.47-2.71-.12-.7-.12-1.36.32-1.97.04-.06,0-.23-.05-.28-.23-.23-.47-.45-.73-.65-.75-.58-.83-1.52-.74-2.28.01-.11.12-.24.21-.3.5-.33.66-.83.65-1.39-.01-.55-.08-1.09-.11-1.63-.03-.42-.07-.84-.07-1.25,0-.73.18-1.44.71-1.95.91-.88,1.78-1.84,2.84-2.51,1.03-.66,2.26-1.01,3.41-1.45.19-.07.52.02.71.15.83.57,1.64,1.18,2.45,1.78.76.56,1.3,1.27,1.47,2.21.27,1.49.99,2.79,1.74,4.07.49.85,1.03,1.65,1.79,2.29.66.55,1.14,1.24,1.54,2.01.14.27.35.49.53.73.05-.02.09-.05.14-.07-.07-.27-.13-.54-.21-.81-.46-1.62-1.38-2.94-2.5-4.17-.41-.45-.73-.99-1-1.54-.38-.77-.25-1.5.23-2.24.31-.48.45-1.08.62-1.65.29-.98.52-1.98.8-2.96.05-.19.16-.4.29-.54,1.07-1.14,2.23-2.19,3.57-2.99.71-.43,1.55-.66,2.36-.91.27-.08.62.03.91.14,1.3.5,2.59,1.02,3.88,1.53,1.04.42,1.35,1.1.95,2.16-.09.26-.14.49.07.71.22.23.47.16.71.04.36-.18.71-.1,1.08-.01.65.16,1.21.43,1.68.92.29.3.32.68.43,1.04.04.14.16.31.28.38,1.64.87,3.29,1.72,4.93,2.59.67.35,1.38.43,2.1.27.99-.22,1.96-.21,2.94,0,.1.02.2.01.32.02.07-.29-.07-.44-.29-.54-1.18-.56-2.39-.9-3.72-.92-.66-.01-1.31-.34-1.98-.48-1.83-.37-3.1-1.59-4.31-2.86-1.53-1.62-3.01-3.29-4.5-4.95-.66-.73-.76-1.65-.71-2.58.01-.26.23-.5.34-.75.27-.64.49-1.31.79-1.93.78-1.63,1.76-3.11,3.26-4.18.59-.43,1.21-.83,1.81-1.24.11-.08.22-.17.32-.27.24-.25.35-.49.29-.89-.18-1.17-.64-2.15-1.5-2.99-.61-.6-1.17-1.26-1.47-2.09-.43-1.16-.28-2.31.06-3.46.09-.32.18-.65.31-.96.09-.23.23-.45.37-.66.47-.71.95-1.4,1.41-2.11.35-.55.66-1.12,1.03-1.66.14-.21.38-.37.61-.5.21-.12.36-.05.42.22.1.45.24.89.38,1.38.35-.29.46-.62.43-.99-.04-.44-.12-.87-.18-1.31-.01-.1-.05-.21-.03-.31.04-.18.08-.42.2-.52.08-.07.37.01.48.11.55.49,1.11.99,1.61,1.53.69.74,1.4,1.44,2.22,2.05.91.68,1.46,1.68,1.85,2.74.68,1.81.81,3.65.03,5.47-.17.39-.43.75-.6,1.14-.43.98-.24,1.09.67,1.31.43.1.87.13,1.3.25.72.19,1.42.77,1.67,1.36-.11-.09-.18-.13-.24-.19-.62-.66-1.39-.98-2.28-1.07-1.41-.15-2.63-.7-3.65-1.71-.56-.56-2.06-.41-2.5.25-.1.16-.15.45-.07.61.28.65.61,1.27.93,1.9.07.14.17.26.21.41-.72-.6-1.09-1.43-1.52-2.35-.22.27-.43.48-.59.72-.34.53-.63,1.09-.97,1.61-.5.78-1.15,1.39-1.95,1.86-1.7.99-2.9,2.45-3.88,4.11-.36.6-.36,1.23-.05,1.87.13.27.22.56.33.84-.04.02-.08.04-.12.05-.22-.4-.43-.8-.65-1.2-.05-.04-.1-.08-.14-.12-.04.11-.08.21-.13.32-.43.92-.66,1.87-.36,2.87.08.27.21.55.4.76,1.71,1.9,3.42,3.8,5.17,5.66,1.53,1.62,3.47,2.45,5.69,2.61.87.06,1.74.11,2.57.43.4.16.78.35,1.18.52.05.02.11.02.27.05-1.47-1.41-3.16-2.37-4.68-3.55.02-.03.05-.07.07-.1,1.44.96,2.88,1.91,4.31,2.87.02-.02.05-.05.07-.07Zm-21.92,15.25s-.08,0-.12-.01c0,.1-.01.21-.02.31-.07,1.43,0,2.86-.34,4.27-.24.99-.45,1.99-1.06,2.85-.2.28-.32.64-.42.99-.28.95-.11,1.92-.06,2.88.06,1.1.53,2,1.3,2.77.35.35.74.45,1.17.24.72-.35,1.47-.55,2.26-.69.56-.1.65-.25.52-.82-.13-.57-.27-1.13-.38-1.7-.03-.15.03-.33.05-.49.05-.01.11-.02.16-.03.15.25.33.49.43.76.17.46.27.94.43,1.39.3.86,1.26,1.45,2.16,1.31,1.4-.21,2.67-.72,3.71-1.7.61-.57,1.29-1.02,2.08-1.3,1.11-.4,2.12-.94,2.87-1.89.26-.33.44-.66.41-1.08-.05-.63.14-1.18.47-1.71.46-.75.62-1.55.18-2.35-.67-1.2-1.45-2.33-2.52-3.22-.43-.37-.92-.44-1.47-.33-.49.09-.98.14-1.48.19-.53.05-.95-.18-1.27-.59-.26-.32-.48-.66-.76-.95-.16-.16-.39-.25-.6-.36-.07-.04-.16-.03-.23-.07-1.03-.68-2.2-.96-3.4-1.16-.7-.11-1.4-.04-2.14.12.63.46,1.22.89,1.81,1.32-.02.03-.04.06-.06.09-.73-.43-1.41-.95-2.27-1.15.08.13.18.24.31.29.35.13.57.38.74.7.3.58.62,1.14.93,1.71.07.12.13.25.19.37-.03.02-.06.04-.09.05-.09-.11-.2-.22-.27-.34-.23-.35-.42-.72-.67-1.06-.11-.15-.3-.3-.46-.32-.64-.06-1.04-.41-1.34-.94-.15-.27-.33-.52-.51-.82-.71.63-1.29.33-1.86-.15-.12-.1-.25-.17-.36-.27-.44-.37-.44-.43-.01-.82.01-.01,0-.04.02-.1-.77-.71-1.85-.94-2.72-1.51l.03-.08c.72.26,1.45.52,2.17.79.02-.03.04-.07.06-.1-.44-.37-.86-.77-1.31-1.12-.47-.36-.97-.68-1.46-1.01-.47-.31-.95-.6-1.42-.91,1.1.39,1.97,1.2,3.16,1.43-.24-.43-.5-.86-.82-1.22-.46-.52-1.02-.97-1.44-1.51-1.32-1.69-2.37-3.53-2.79-5.67-.15-.75-.52-1.38-1.17-1.84-.83-.58-1.65-1.17-2.46-1.76-.32-.23-.64-.24-.99-.11-.61.22-1.22.44-1.84.65-.72.24-1.28.71-1.87,1.27.37.2.7.38,1.03.55-.2.01-.37-.05-.54-.11-.55-.17-1.07-.12-1.49.3-.35.34-.68.7-.99,1.08-.61.72-.82,1.55-.67,2.47.07.42.16.85.2,1.27.08.85.02,1.7-.6,2.35-.31.33-.39.62-.31,1.02.1.52.35.96.71,1.33.19.2.39.4.58.6.76.83,1.66,1.43,2.73,1.81,1.93.68,3.91,1.02,5.96.85,1.3-.11,2.59-.29,3.88-.4.57-.05,1.18-.1,1.73.02,1.16.24,2.15.91,3.15,1.53.24.15.55.2.82.32.15.06.35.12.41.24.78,1.47,1.09,3.01.75,4.68-.25,1.23-.43,2.47-.65,3.7-.04.24-.11.48-.17.72-.07-.1-.08-.19-.07-.28.25-1.59.5-3.19.77-4.78.16-.97-.05-1.88-.38-2.78Zm35.89-32.2c-.63,0-1.22-.06-1.79.01-1.06.15-1.99.68-2.96,1.09-.87.37-1.74.77-2.73.76-.49,0-.93.26-1.25.63-.8.94-1.59,1.88-2.34,2.85-.39.51-.42,1.13-.24,1.74.13.44.31.88.47,1.31.44,1.21.91,2.42.83,3.74-.05.76-.16,1.52-.27,2.28-.03.22,0,.33.22.38.07.01.14.03.2.06.27.12.41.05.5-.25.22-.72.47-1.43.72-2.15.04-.12.11-.22.17-.33.06.12.06.21.03.3-.35,1.11-.68,2.22-1.07,3.31-.17.47,0,.79.29,1.17.49-1.27.76-2.57,1.44-3.71.01.11-.01.2-.04.3-.37,1.16-.75,2.32-1.12,3.48-.05.17-.05.36-.08.55.03,0,.06.01.09.02.26-.37.51-.75.8-1.09.13-.15.35-.3.53-.3.28,0,.47.24.5.5.04.38.21.3.44.18.3-.15.6-.29.91-.43.01.03.03.05.04.08-.71.55-1.63.87-2.06,1.84.56-.16,1.03-.3,1.51-.44,0,.03.02.05.03.08-.73.35-1.54.56-2.16,1.14.12,0,.22-.03.33-.05.3-.04.62-.16.89-.09.51.13.99.07,1.48-.01.4-.06.81-.11,1.21-.16,0,.03.01.06.02.1-1.02.39-2.28.08-3.22,1.05.4.06.72.08,1.02.17,1.21.33,2.41.68,3.62,1.01,1.83.49,3.66.85,5.57.53,1.39-.23,2.63-.68,3.61-1.76,1.11-1.22,1.87-2.6,2.3-4.2.37-1.39.84-2.75,1.27-4.13.27-.87.15-1.69-.52-2.31-.54-.5-.79-1.05-.81-1.77-.01-.46-.15-.91-.27-1.36-.03-.12-.22-.2-.34-.3-.07.09-.13.19-.2.28-.02.03-.03.08-.05.09-.4.15-.8.3-1.22.46.12-.53.28-.96.32-1.41.11-1.12.04-2.19-.8-3.1-.31-.34-.49-.81-.72-1.22-.14-.25-.27-.52-.4-.77-.32-.6-.82-.81-1.49-.7-.6.1-1.19.22-1.79.29-.52.06-1,.19-1.36.61-.07.08-.18.11-.27.17-.01-.02-.03-.03-.04-.05.06-.14.13-.28.22-.48Zm-20.34,30.9s-.05-.07-.08-.1c-.2.1-.41.18-.6.29-.4.22-.79.47-1.2.69-.26.14-.53.25-.8.37-.01.04-.03.09-.04.13.13.09.26.18.39.28,1.12.89,1.96,2,2.69,3.22.63,1.05.52,2.06-.09,3.06-.25.41-.4.83-.35,1.32.04.42-.03.82-.29,1.16-.68.87-1.47,1.62-2.57,1.95-1.05.32-1.98.83-2.76,1.62-.32.32-.76.52-1.16.75-.26.15-.55.24-.84.34-.27.1-.32.27-.27.54.44,2.06.7,4.14.69,6.26,0,1.48.05,2.96.42,4.4.31,1.21.69,2.41,1.08,3.6.78,2.35,1.34,4.74,1.65,7.19.09.73.22,1.46.33,2.19.16-.13.25-.27.32-.42.64-1.57,1.27-3.14,1.92-4.71.99-2.38,2.09-4.71,2.91-7.16.8-2.4,1.39-4.83,1.76-7.33.24-1.57.59-3.11,1.22-4.57.66-1.52,1.39-3.01,2.07-4.53.29-.66.58-1.28.3-2.1-.28-.84-.64-1.49-1.45-1.87-.31-.15-.49-.41-.5-.78,0-.12-.06-.25-.11-.4-.19.16-.34.27-.48.39-.32.29-.66.31-1.02.07-.27-.18-.54-.36-.8-.55-.65-.48-1.27-.98-1.93-1.43-1.13-.76-1.4-1.65-.84-2.91.14-.32.29-.63.43-.95Zm1.1-10.62s0-.07,0-.1c.24,0,.48,0,.72,0,1.18-.03,2.37-.03,3.55-.11.5-.03,1-.2,1.49-.34.11-.03.23-.19.27-.31.02-.05-.15-.19-.26-.24-.19-.09-.39-.14-.59-.21-.89-.34-1.8-.47-2.73-.21-1.12.31-2.14.11-3.14-.48-1.4-.82-2.84-1.58-4.27-2.34-1.16-.61-2.38-.89-3.7-.63-1.5.3-2.78,1.08-4.07,1.85-.07.04-.12.11-.17.17-1.22,1.37-2.46,2.73-3.66,4.11-.15.17-.24.46-.22.69.08.93.54,1.67,1.38,2.08,1.55.75,2.65,1.93,3.46,3.42.39.71.86,1.37,1.58,1.78,1.08.62,1.96,1.43,2.75,2.39.64.77,1.49,1.07,2.44.72,1.31-.47,2.5-1.16,3.59-2.04.14-.11.32-.19.47-.29.18-.12.37-.22.52-.37.47-.45.92-.91,1.38-1.37.31-.31.65-.59.94-.92,1.13-1.29,2.27-2.58,3.38-3.9.67-.8,1.29-1.63,1.93-2.45-.35-.34-.6-.34-.96-.04-.66.55-1.31,1.11-1.97,1.66-.16.13-.35.23-.52.34l-.05-.08c.11-.1.21-.2.33-.3.71-.63,1.43-1.26,2.14-1.89.1-.09.2-.2.26-.32.15-.35-.05-.62-.42-.57-.41.05-.82.17-1.24.19-1.45.07-2.9.11-4.35.16-.07,0-.15-.02-.22-.04Zm9.16.87c.38,2.12.38,4.25.19,6.39-.12-2.02.09-4.06-.56-6.05-.13.52-.26,1.04-.4,1.56-.04,0-.08-.02-.12-.02.02-.19.01-.38.08-.55.15-.38-.04-.53-.38-.66-.46.86-.92,1.71-1.38,2.56-.04-.01-.07-.03-.11-.04.04-.11.06-.22.11-.32.25-.51.53-1.01.76-1.53.19-.45.34-.92.21-1.45-.37.38-.69.78-1.01,1.19-.32.41-.6.86-.94,1.25-.79.9-1.65,1.74-2.42,2.65-.9,1.06-1.75,2.16-2.87,3.02-.5.38-.84.92-1.09,1.51-.2.48-.44.95-.63,1.43-.37.96-.17,1.72.61,2.27.95.68,1.87,1.41,2.82,2.1.14.1.33.19.5.19.21,0,.37-.07.3-.37-.04-.17,0-.4.08-.56.32-.72.67-1.43,1.01-2.14.04-.08.1-.15.15-.23.02.01.05.03.07.04-.38.95-.77,1.89-1.15,2.83.36-.1.67-.2,1.01-.3.16-.49.32-1.03.49-1.56.03,0,.06.01.09.02-.09.51-.17,1.02-.29,1.53-.05.22-.22.42-.3.64-.04.1-.07.27-.02.34.1.14.25.27.41.36.76.43,1.25,1.06,1.45,1.91.04.16.13.31.23.55.32-.84.6-1.56.88-2.28l.15.06c-.26.74-.53,1.48-.77,2.22-.05.15-.05.4.04.49.53.57,1.21.86,1.99.83,1.61-.05,3.21-.26,4.82-.17.08,0,.17.02.24,0,.2-.07.42-.12.59-.23.99-.68,1.41-1.71,1.63-2.82.2-.99.29-2,.47-2.99.4-2.24-.49-3.95-2.12-5.39-.46-.41-.88-.86-1.29-1.32-.72-.83-1.07-1.87-1.46-2.87-.56-1.43-1.21-2.81-2.11-4.09Zm22.39,9.12c.03-.35.05-.6.06-.85.03-.79.04-1.58.09-2.37.07-1.19.17-2.39.26-3.58.06-.76-.18-1.43-.81-1.86-.61-.42-1.26-.81-1.94-1.06-.8-.29-1.67-.38-2.5-.61-.55-.16-.98-.01-1.38.34-.14.12-.27.26-.4.39-.5.5-1.08.84-1.78.97-.5.09-1.01.17-1.51.27-.3.06-.59.14-.89.21,0,.02,0,.05.01.07.34.07.68.14,1.02.21-.1.07-.2.09-.3.07-.9-.15-1.81-.27-2.7-.46-1.1-.23-2.19-.51-3.28-.79-.88-.23-1.74-.52-2.62-.71-.49-.11-1.02-.08-1.53-.11-.01.06-.03.12-.04.17.75.4,1.5.8,2.25,1.2-.01.03-.03.06-.04.09-.5-.21-1.01-.42-1.51-.63-.02.03-.04.07-.06.1.29.27.58.55.86.82-.01.02-.03.04-.04.05-.27-.17-.53-.33-.81-.5-.37.44.1.66.21.9-.72-.31-1.47-.62-2.21-.93-.02.03-.04.06-.06.09.04.09.07.19.11.28.64,1.43,1.29,2.86,1.92,4.29.64,1.45,1.59,2.61,2.97,3.41.23.13.49.3.73.3.56,0,.91.28,1.22.68.55.7,1.13,1.39,1.67,2.1.49.65,1.1,1.08,1.9,1.27.75.17,1.47.42,2.26.32.94-.13,1.74-.56,2.47-1.13,1-.78,2.09-1.38,3.32-1.71.27-.07.54-.15.82-.23,0-.04,0-.08,0-.12-1.15-.4-2.48-.41-3.44-1.46.15.05.23.06.29.1.99.7,2.16.87,3.3,1.15.3.07.56,0,.79-.22-.11-.13-.2-.24-.29-.35.01-.02.02-.05.03-.07.38.07.75.15,1.13.22.02-.02.04-.05.07-.07-.19-.3-.37-.6-.56-.9.02-.02.04-.03.06-.05.26.22.52.45.86.74Zm-62.25,12.59s.04.06.07.09c-.2.29-.4.59-.6.88-.34.49-.44,1.01-.12,1.53.89,1.44,2.12,2.31,3.88,2.31.17,0,.36.02.52-.02,1.1-.26,2.12-.01,3.1.5.49.25.93.2,1.36-.14.36-.28.72-.56,1.1-.79.48-.29.61-.7.59-1.23-.03-.72-.07-1.45.03-2.15.17-1.19.81-2.19,1.5-3.15,1.03-1.42,1.87-2.92,1.97-4.72.07-1.31.13-2.62.17-3.93,0-.26-.09-.52-.14-.79-.05,0-.1-.02-.14-.02-.16.35-.36.69-.48,1.05-.44,1.33-.84,2.68-1.27,4.02-.15.47-.36.92-.54,1.38-.04-.01-.08-.03-.11-.04.65-2.12,1.29-4.24,1.94-6.37-.03-.03-.06-.06-.09-.09-.28.14-.59.24-.85.41-1.14.8-2.11,1.78-2.92,2.91-.09.13-.19.24-.29.36-.02-.02-.04-.04-.07-.06.74-1.43,1.89-2.5,3.13-3.5-.09-.03-.15-.03-.19,0-.7.34-1.35.76-1.92,1.31-.41.39-.86.75-1.29,1.12-.08.07-.18.11-.27.16l-.06-.09c.88-.79,1.76-1.57,2.64-2.36-.81.06-1.56.27-2.16.8-1,.89-2.11,1.6-3.3,2.18-.44.22-.92.3-1.39.19-.97-.21-1.94-.24-2.91-.06-1.12.2-2.18.49-3.04,1.34-.86.85-1.79,1.62-2.71,2.4-.52.44-.61.66-.33,1.29.05.12.12.23.18.34.47.75.95,1.49,1.4,2.25.35.59.83.76,1.5.71.7-.06,1.41-.01,2.11-.01Zm16.38-17.69c-.39-.23-.72-.47-1.09-.64-1.11-.51-1.6-1.42-1.72-2.59-.03-.3.07-.53.29-.74.73-.75,1.51-1.46,2.15-2.28,1.38-1.75,3.08-2.98,5.23-3.63,1.14-.35,2.22-.4,3.35-.07.14.04.3,0,.45,0-.02-.17.02-.38-.06-.52-.45-.73-1.83-1.52-2.82-1.01-.38.2-.77.02-.96-.37-.15-.32-.05-.61.08-.9.3-.64.15-1.16-.45-1.53-.16-.1-.32-.18-.5-.25-1.31-.5-2.63-.98-3.94-1.48-.24-.09-.33-.03-.41.19-.71,1.77-1.76,3.4-2.27,5.27.09-.55.19-1.1.39-1.6.37-.9.82-1.77,1.21-2.66.16-.35.25-.73.41-1.19-.3.05-.51.04-.68.12-.63.29-1.32.52-1.85.94-1.01.79-1.95,1.69-2.88,2.58-.69.66-.83,1.59-1.03,2.47-.02.09,0,.18.02.28.05.4.1.8.17,1.2.1.64.14,1.31.34,1.91.35,1.03.82,2.02,1.24,3.03.14.34.28.67.42,1l.09-.02c0-.08.02-.15.03-.23.23.44.37.9.56,1.35.19.44.41.87.62,1.3.03-.01.05-.03.08-.04-.42-2.02-.46-4.03.07-6.02.06.02.08.04.08.06,0,.05,0,.09,0,.14-.33,2.16-.37,4.29.42,6.39.36.96.67,1.97.49,3.03-.06.37.04.6.33.79.1.06.21.09.32.14.04-.13.1-.26.1-.39,0-.1-.05-.2-.1-.29-.34-.57-.37-1.2-.27-1.83.11-.72.45-1.03,1.14-.81.07.02.19-.01.23-.06.23-.3.45-.62.71-1Zm46.45,60.36c.25-1,.51-1.96.72-2.93.06-.3.05-.67-.07-.95-.32-.77-.7-1.51-1.07-2.26-.04-.07-.11-.13-.17-.2-.04.01-.08.02-.12.03.03.22.07.45.08.67,0,.13,0,.35-.06.39-.3.17-1.09-.25-1.21-.61.2.09.39.17.58.26l.08-.07c-.82-1.07-.62-2.44-1.12-3.61.41.29.56.7.58,1.17.01.27.02.54.07.8.04.21.15.41.26.68.54-.88.21-1.65.03-2.44.2.26.38.53.47.83.1.29.11.61.15.83.48-1.58-.04-2.92-1.39-3.95-.85-.65-2.53-.96-3.22-.62.75.41,1.65.37,2.29.96-1.23-.46-2.48-.79-3.76-1.04-.01.03-.03.07-.04.1.2.12.4.23.59.35-.01.03-.02.05-.03.08-.11-.02-.22-.01-.32-.06-.39-.18-.76-.39-1.15-.56-.75-.34-1.42-.79-1.98-1.39-.98-1.06-2.18-1.55-3.63-1.39-.97.11-1.94.22-2.9.37-1.43.23-2.82.02-4.21-.28-.91-.19-1.82-.46-2.73-.5-1.45-.06-2.9.05-4.36.1-.12,0-.23.07-.34.11.16.1.3.12.45.12.77,0,1.54-.09,2.3-.01,1.08.11,2.16.34,3.24.5,1.17.18,2.34.45,3.52.47,2,.03,4-.09,6-.17,1.1-.04,2.02.31,2.75,1.15.22.25.47.53.76.65.94.4,1.49,1.15,1.99,1.97.07.11.14.21.22.31.64.83,1.4,1.49,2.37,1.95.56.27,1.05.72,1.53,1.12.23.19.38.47.57.7-.03.03-.07.06-.1.09-.29-.3-.59-.6-.88-.9-.41-.42-.79-.67-1.09-.68.77.65,1.21,1.48,1.55,2.37-.24-.32-.48-.64-.72-.95-.03.02-.06.03-.08.05.24.79.44,1.61.75,2.37.3.75.72,1.46,1.13,2.27-.51-.54-.87-1.1-1.14-1.7-.27-.59-.48-1.22-.72-1.85-.2.98.04,2.17.57,2.85.6.77,1.76,1.73,2.12,1.74-.03-.35-.66-.54-.27-1.03.41.57.8,1.13,1.2,1.69ZM69.53,22.71c-.06.08-.08.1-.08.12,0,.05-.01.1,0,.14.23.75.05,1.46-.22,2.17-.54,1.44-1.1,2.88-1.54,4.36-.35,1.17-.46,2.4-.18,3.62.12.5.27.99.62,1.46,0-2.25.34-4.3.77-4.64,0,.09,0,.15,0,.21-.11.63-.22,1.26-.33,1.89-.15.84-.32,1.67-.09,2.52.04.16,0,.38-.07.54-.2.39-.06.73.07,1.16.27-.37.49-.69.72-1.01.53-.72,1.24-1.16,2.14-1.19.41-.02.82.09,1.22.14,0-.29-.02-.65,0-1.01.07-1.35.18-2.69.22-4.04.07-2.46-.93-4.48-2.59-6.23-.02-.02-.06-.02-.13-.04.15,1.15.42,2.28-.15,3.37.2-1.21.23-2.39-.39-3.55Zm16.51,80.79c.18-.45.49-.66.86-.8,1.43-.57,2.89-1.08,4.29-1.73,2.19-1.01,4.17-2.33,5.74-4.21,1.41-1.69,2.85-3.37,4.29-5.04.2-.23.23-.43.03-.68-.05.03-.11.05-.14.09-.81.93-1.65,1.83-2.41,2.79-.8,1.01-1.42,2.17-2.3,3.1-2.25,2.39-5.02,3.94-8.24,4.66-1.03.23-2.02.53-2.76,1.36,0,0-.04,0-.16-.02.09-.22.13-.46.27-.61.57-.63,1.15-1.24,1.75-1.84,1.95-1.94,2.92-4.2,2.33-6.98-.04-.21-.09-.42-.14-.62-.04,0-.09,0-.13-.01-.11.39-.28.78-.33,1.18-.17,1.54-.66,2.96-1.46,4.28-.69,1.13-1.37,2.26-2.02,3.42-.73,1.31-1.57,2.52-2.8,3.43-.15.11-.26.26-.39.39.02.03.04.06.07.09.19-.09.4-.16.58-.27.8-.47,1.65-.79,2.55-.98,1.25-.26,2.52-.25,3.78-.21,1.98.06,3.95-.09,5.91-.3.76-.08,1.53-.12,2.29-.15.23,0,.46.07.69.1-.06-.16-.16-.25-.27-.33-.55-.43-1.11-.84-1.65-1.28-.52-.42-1.1-.63-1.76-.65-1.38-.06-2.63.35-3.82,1.01-.26.15-.54.31-.82.36-.74.13-1.49.2-2.24.28-.52.06-1.03.11-1.6.17Zm10.91-88.26s-.05-.03-.07-.04c-.11.1-.23.19-.32.3-.39.48-.91.73-1.5.89-.31.08-.62.22-.89.38-1.03.62-1.41,1.64-1.65,2.75-.41,1.87-.91,3.72-1.79,5.44-.12.23-.21.47-.35.8.3-.08.51-.11.69-.19.99-.47,1.98-.96,2.97-1.45.6-.3,1.1-.73,1.38-1.33.3-.62.5-1.29.73-1.94.08-.23.05-.51.17-.7.24-.37.24-.75.25-1.16,0-.78.03-1.55.1-2.33.04-.48.18-.95.28-1.42Zm5.01,74.41l.08.04c.43-.34.85-.7,1.3-1.02,1.12-.78,2.11-1.69,3.04-2.69.82-.89,1.39-1.78,1.17-3.07-.15-.86.34-1.49,1.04-1.94,1.35-.87,2.7-1.72,4.05-2.58.57-.37,1.11-.77,1.38-1.43.03-.06.03-.14.06-.27-.22.12-.38.18-.52.28-.79.56-1.64,1-2.61,1.18-.55.1-1.12.24-1.63.46-2.08.9-3.59,2.45-4.7,4.4-.98,1.72-1.64,3.58-2.28,5.45-.14.4-.26.8-.38,1.2Zm-66.78-21.2c-.05.2-.14.37-.13.53.04.56.09,1.13.17,1.69.07.48.23.95.25,1.43.05,1.02.47,1.51,1.49,1.53.74.01,1.49-.03,2.23-.02,1.72.02,3.37-.39,4.96-.97,1.38-.51,2.71-1.15,4.06-1.74.07-.03.12-.09.25-.18-.26,0-.44-.01-.62,0-2.45.2-4.91.44-7.36.6-1.78.11-3.3-.43-4.29-2.04-.22-.36-.53-.64-1.01-.82Zm66.3,21.14s.08.02.12.02c.01-.03.03-.06.04-.1.35-.95.69-1.9,1.05-2.84.66-1.75,1.35-3.49,2.5-5,1.41-1.86,3.14-3.23,5.5-3.71.69-.14,1.35-.41,2-.69.33-.14.61-.42.92-.65-.09-.07-.11-.1-.12-.1-.08,0-.16,0-.24.03-1.06.38-2.16.39-3.27.41-1.87.03-3.52.66-4.77,2.09-.76.87-1.32,1.88-1.71,2.97-.16.43-.39.78-.71,1.09-.5.48-1.01.97-1.45,1.5-.24.29-.42.67-.5,1.04-.28,1.39.39,2.62.64,3.93Zm-35.26,28.56s.06.04.09.06c1.27-1.15,2.5-2.34,3.85-3.4.03.03.05.05.08.08-.03.13-.07.26-.11.44.18.02.34.05.49.05.99.02,1.98-.07,2.94.22.57.17,1.11.45,1.68.56,1.34.25,2.7.45,4.06.62.47.06.95-.07,1.43-.37-.15-.07-.23-.11-.31-.14-1.06-.35-2.08-.8-3.03-1.4-1.28-.81-2.65-1.05-4.1-.61-.63.19-1.22.5-1.83.74-.21.08-.44.13-.66.2-.02-.04-.05-.07-.07-.11.07-.12.13-.26.22-.37.36-.46.73-.91,1.08-1.36.08-.11.13-.24.2-.36-.03-.02-.06-.04-.09-.06-.2.17-.41.33-.59.52-.19.19-.35.4-.53.6-.17.18-.34.37-.51.55-.02-.02-.05-.05-.07-.07.03-.05.05-.1.08-.15.83-1.23,1.9-2.19,3.23-2.85.13-.06.3-.2.3-.31,0-.42.23-.69.54-.93.22-.17.45-.35.68-.52-.02-.03-.04-.06-.06-.09-.27.15-.54.32-.82.46-2.14,1.11-3.92,2.64-5.4,4.53-.81,1.03-1.65,2.04-2.48,3.06-.1.13-.19.27-.29.4Zm45.37-37.84c-.69.27-1.12.73-1.32,1.38-.22.72-.42,1.45-.59,2.19-.26,1.14-.79,2.12-1.59,2.98-1.21,1.3-2.65,2.24-4.27,2.96-.4.18-.78.43-1.16.65.01.06.02.11.03.17.32.04.65.14.96.11.65-.08,1.31-.2,1.95-.37,2.26-.62,3.77-2.05,4.43-4.31.39-1.31.67-2.66,1.02-3.98.15-.58.34-1.14.53-1.77Zm-43.66-56.48s-.09-.03-.14-.05c-.07.09-.14.17-.2.27-.63,1-1.23,2.02-1.9,2.99-.64.94-1.18,1.92-1.31,3.07-.16,1.36,0,2.65.94,3.73.52.6,1.06,1.17,1.59,1.76.05.05.12.09.25.18-.02-.26,0-.45-.04-.61-.18-.6-.33-1.21-.58-1.78-.66-1.52-.81-3.08-.3-4.66.39-1.21.87-2.4,1.3-3.6.15-.43.26-.87.39-1.3Zm-2,87.96s.08.03.11.05c.11-.22.22-.44.32-.66,1.77-4.08,3.55-8.15,5.31-12.23.65-1.51,1.18-3.05,1.43-4.68.1-.64.09-1.31.24-1.94.25-1.07.59-2.12.88-3.18.09-.31.23-.65.18-.94-.07-.47.06-.87.17-1.29.15-.57.32-1.14.48-1.71-.03-.02-.06-.04-.09-.06-.02.04-.04.09-.06.13-.66,1.15-1.23,2.35-1.51,3.65-.38,1.77-.65,3.56-1.05,5.33-.46,2.02-.95,4.05-1.74,5.97-1.34,3.3-2.72,6.59-4.07,9.88-.23.55-.41,1.12-.61,1.68Zm-14.69-40.96c-.73-.7-1.85-1.12-2.73-1.07-2.05.13-4.1.28-6.15.39-1.63.09-3.18-.26-4.69-.88-.43-.18-.87-.34-1.33-.52.08.47.32.9.71,1.24.76.68,1.7.96,2.69,1.03,1.97.14,3.92-.15,5.86-.38,1.49-.18,2.98-.31,4.48-.06.36.06.72.15,1.17.25Zm13.65,44.29s.07.01.1.02c.05-.11.1-.21.14-.33.12-.36.23-.73.36-1.09.1-.27.18-.52-.03-.79-.07-.09-.02-.27-.02-.4.02-.76.05-1.53.05-2.29,0-.38-.07-.76-.13-1.14-.16-1.02-.24-2.06-.51-3.06-.52-1.95-1.13-3.88-1.72-5.81-.65-2.12-1.07-4.27-1.05-6.51.01-1.36-.13-2.71-.25-4.07-.07-.73-.25-1.44-.39-2.16-.05-.23-.17-.42-.47-.46.12.58.26,1.12.35,1.66.33,2.06.49,4.13.59,6.21.05,1.06.16,2.13.33,3.18.1.65.39,1.26.56,1.9.52,2.07,1.04,4.15,1.53,6.22.44,1.85.81,3.7.75,5.62-.03.96-.1,1.93-.16,2.89,0,.13,0,.26,0,.39Zm33.87,6.56c-.01-.13,0-.28-.04-.42-.3-1.44-.92-2.69-2.05-3.67-.45-.39-.84-.86-1.22-1.32-.26-.32-.47-.69-.7-1.04-.06-.08-.14-.14-.21-.21-.03.02-.05.03-.08.05l.56,2.43-.09.02c-.07-.11-.14-.23-.22-.37-.39,1.56.84,3.44,1.93,3.74-.21-.31-.41-.58-.58-.85-.17-.27-.34-.55-.49-.84-.14-.28-.25-.59-.37-.88.04-.02.07-.04.11-.06.74,1.54,1.51,3.05,3.44,3.43Zm-11.58-91.25s.08.05.12.08c.17-.2.35-.39.5-.6.45-.67,1-1.23,1.69-1.63.96-.54,1.91-1.1,2.92-1.55,1.56-.71,2.71-1.76,3.27-3.41.05-.13.1-.27.14-.4-.03-.02-.06-.04-.08-.05-.09.1-.17.2-.26.29-.36.36-.67.79-1.09,1.06-1.24.8-2.58,1.42-4.01,1.81-.46.12-.87.34-1.06.78-.49,1.12-1.21,2.08-1.9,3.08-.11.16-.16.37-.24.55Zm-12.92,5.2c.11-.24.22-.44.31-.65.36-.82.86-1.6,1.04-2.46.53-2.45-.01-4.68-1.69-6.58-.29-.33-.68-.57-1.02-.85-.03.03-.06.05-.09.08.04.09.07.18.11.26.26.45.55.89.79,1.35.77,1.42,1.01,2.96,1,4.54,0,.45-.12.92-.26,1.35-.25.77-.56,1.52-.86,2.28-.08.2-.04.3.14.39.17.09.34.19.53.3Zm-2.7-11.76l-.12.07c.06.12.11.24.17.36.25.5.54.98.76,1.49.68,1.6.77,3.28.65,4.99-.07.97-.13,1.95-.17,2.92-.02.45.15.69.57.83.29-.72.63-1.44.87-2.18.36-1.12.09-2.26-.06-3.39-.16-1.17-.75-2.19-1.37-3.17-.41-.65-.86-1.29-1.29-1.93Zm19.03-5.31s-.05-.06-.07-.09c-.05.01-.11.03-.16.04-1.16.42-2.15,1.14-3.21,1.73-.94.52-1.54,1.28-1.94,2.24-.04.09-.08.17-.11.26-.18.56-.43,1.12-.51,1.69-.15,1.07.34,1.99.85,2.88.03.04.08.07.21.18,0-.3,0-.5,0-.71-.03-.55-.15-1.12-.09-1.66.17-1.4.82-2.59,1.79-3.58.84-.86,1.77-1.64,2.66-2.46.19-.17.38-.35.57-.52Zm-39.01,47.23s.07-.02.11-.03c-.03-.21-.04-.42-.08-.63-.23-1.47-.79-2.83-1.36-4.19-.39-.93-.83-1.84-.93-2.87-.04-.38-.11-.76-.16-1.14-.04,0-.07,0-.11-.01-.05.12-.11.23-.14.36-.15.66-.38,1.29-.77,1.85-.11.16-.18.44-.13.63.11.49.22,1.01.47,1.44.34.57.82,1.07,1.24,1.59.74.93,1.39,1.91,1.86,3.01Zm50.96,23.77s.06.08.1.13c.31-.19.62-.38.94-.56,1.31-.74,2.6-1.5,3.6-2.65.14-.16.3-.31.38-.49.43-1.01.84-2.04,1.26-3.05.2-.49.38-1,.65-1.45.22-.36.45-.82,1.03-.72.06,0,.14-.07.2-.13.63-.56,1.25-1.11,1.87-1.67.05-.05.09-.12.13-.18-.14-.03-.26,0-.34.05-1.36.89-2.73,1.76-4.07,2.68-.47.32-.65.87-.54,1.43.2,1.08-.15,1.98-.83,2.8-.93,1.13-2.02,2.08-3.24,2.89-.41.27-.76.62-1.14.93Zm-23.05-60.83c-.11.14-.18.2-.22.28-.45.84-.7,1.75-.49,2.69.18.82.49,1.62.77,2.41.3.85.75,1.67.95,2.54.46,2.05.39,4.1-.39,6.09-.07.17-.1.36-.16.54.05.02.1.04.15.06.14-.3.33-.59.41-.91.22-.96.4-1.92.57-2.89.24-1.32-.02-2.62-.25-3.91-.35-1.94-.75-3.87-1.13-5.81-.07-.34-.13-.67-.21-1.09Zm1.46-2.74s-.05.04-.08.05c.17.56.3,1.13.5,1.68.51,1.42.83,2.87.88,4.39.04,1.05.15,2.11.33,3.15.37,2.14.11,4.19-.76,6.16-.03.07-.03.15-.05.23.1-.02.14-.06.18-.1.48-.57.62-1.29.82-1.98.22-.72.31-1.48.59-2.17.36-.88.41-1.72.13-2.61-.27-.87-.56-1.75-.72-2.64-.24-1.34-.39-2.69-.55-4.04-.1-.78-.48-1.4-1-1.95-.07-.08-.18-.12-.27-.18Zm.37,15.7s.05.02.08.03c.05-.07.1-.14.13-.22.21-.56.46-1.12.63-1.7.35-1.23.57-2.48.3-3.75-.27-1.26-.4-2.53-.44-3.8-.05-1.85-.47-3.61-1.17-5.31-.06-.14-.13-.26-.2-.4-.08.08-.09.14-.08.19.06.67.09,1.35.19,2.01.27,1.85.52,3.71.89,5.54.44,2.21.38,4.39-.08,6.57-.06.28-.16.55-.24.83Zm13.59-15.05s-.06-.04-.1-.06c-.29.26-.58.52-.86.79-.78.76-1.57,1.52-2.62,1.91-.62.23-1.24.46-1.85.7-.42.17-.82.38-1.23.57,0,.04.02.09.03.13,1.12.02,2.24.05,3.37.07.06,0,.11-.02.17-.04.94-.4,1.78-.94,2.35-1.83.43-.69.68-1.43.75-2.24Zm-6.84,3.36s.03.08.04.12c.27-.08.55-.14.81-.24.54-.2,1.06-.48,1.62-.63.81-.22,1.53-.58,2.19-1.1,1.1-.86,2.11-1.78,2.66-3.11.03-.07.04-.15.06-.22-.93,1.08-2.13,1.7-3.35,2.32-.98.5-1.93,1.07-2.88,1.62-.51.3-.89.73-1.16,1.26Zm-7.13,11.6s.05.02.08.03c.06-.1.14-.19.17-.3.1-.37.21-.73.28-1.11.3-1.81.39-3.62-.01-5.44-.21-.94-.43-1.88-.57-2.83-.24-1.75-.42-3.51-.62-5.26-.02-.16-.07-.33-.1-.49-.03,0-.06,0-.1,0-.02.1-.06.2-.07.31-.03.3-.05.6-.08.9-.11,1.26-.04,2.51.21,3.75.38,1.91.8,3.82,1.12,5.74.16.94.19,1.92-.02,2.87-.12.54-.21,1.09-.3,1.64-.01.06.01.12.02.18Zm-1.85,7.93c-.06.01-.11.02-.17.03,0,.18,0,.36,0,.54.05,1.34-.13,2.65-.56,3.91-.44,1.29-.57,2.63-.63,3.98,0,.05.03.09.05.14.1-.09.13-.19.15-.28.09-.36.14-.74.26-1.08.26-.73.32-.79.98-.58.02,0,.04-.02.08-.04.11-.64.23-1.29.33-1.94.15-1.02.33-2.05.03-3.08-.16-.54-.35-1.07-.52-1.6Zm-12.03-15.94c-.17-2.16.01-3.65.68-5.67.31-.94.57-1.88.83-2.83.11-.4.04-.8-.24-1.21-.07.14-.12.23-.15.32-.4,1.14-.75,2.29-1.21,3.4-.57,1.38-.89,2.78-.6,4.27.12.62.32,1.2.68,1.71Zm11.9,83.49c-.29-.05-.53-.08-.76-.12-.95-.16-1.91-.27-2.85-.48-.74-.17-1.45-.49-2.19-.7-.61-.17-1.24-.14-1.9-.03,1.63,1.66,6.68,2.56,7.7,1.34Zm12.14-98.45s-.07-.06-.1-.1c-.07.06-.15.13-.22.19-.74.67-1.51,1.31-2.22,2.01-.62.61-1.25,1.23-1.74,1.93-.75,1.08-1.19,2.29-.97,3.65.13.8.26,1.61.39,2.41.03.2.06.39.09.59.28-.55.33-1.11.24-1.7-.07-.47-.17-.95-.16-1.42.05-1.62.59-3.09,1.62-4.33.78-.93,1.67-1.77,2.51-2.65.19-.19.37-.4.55-.59Zm-6.11,83s.09.04.14.07c.07-.09.14-.17.2-.26.6-.93,1.16-1.88,1.79-2.78.87-1.23,1.37-2.57,1.5-4.06,0-.07-.01-.14-.03-.32-.12.18-.19.27-.24.37-.25.43-.5.86-.73,1.31-.73,1.4-1.46,2.79-2.16,4.21-.22.46-.32.98-.47,1.47Zm11.72,2.87c-.01-.06-.03-.12-.04-.17-.44.11-.91.16-1.31.35-1.1.53-2.21,1-3.44,1.16-.76.1-1.52.27-2.28.05-.97-.28-1.96-.45-2.98-.46-.14,0-.28.02-.47.04.08.09.1.14.13.16.66.29,1.31.58,1.98.86.6.25,1.22.36,1.87.27.7-.09,1.39-.23,2.03-.57.35-.18.73-.3,1.1-.44,1.14-.42,2.28-.83,3.42-1.24Zm13.32-23.1c-.05-.02-.1-.04-.15-.06-.06.09-.14.17-.18.27-.42,1-.88,1.97-1.22,3-.56,1.69-1.71,2.83-3.18,3.73-.73.45-1.47.89-2.2,1.34-.08.05-.14.12-.21.17.02.03.04.06.06.09.33-.16.66-.31.98-.47,1.18-.55,2.33-1.14,3.26-2.09.82-.84,1.68-1.64,2.01-2.83.11-.39.25-.78.35-1.17.17-.66.32-1.32.48-1.98Zm-26.15,23.84s.02.07.04.1c.03,0,.07.02.1.01,1.45-.09,2.89-.26,4.34-.26,1.87,0,3.7-.23,5.54-.5.09-.01.18-.08.27-.12-.25-.08-.46-.08-.68-.08-1.31.02-2.62.06-3.93.04-1.6-.03-3.18.01-4.73.42-.32.09-.63.25-.94.38Zm-21.47,21.62c.37-.14.45-.44.57-.73.45-1.04.83-2.13,1.38-3.11.95-1.7,2.01-3.34,3.02-5.01.07-.12.11-.25.17-.38-.03-.03-.06-.06-.1-.08-.12.08-.27.14-.36.25-.16.18-.3.39-.44.58-1.78,2.46-3.23,5.09-4.15,8-.05.15-.06.32-.08.48Zm.15-1.91s.05.02.08.03c.04-.09.09-.17.13-.26.47-.96.94-1.92,1.42-2.87.17-.33.4-.64.17-1.04-.03-.06,0-.16.01-.24.43-1.82.83-3.64,1.3-5.45.35-1.35.79-2.67,1.18-4,.03-.1.04-.2.06-.3-.03,0-.06-.02-.1-.03-.06.12-.14.23-.18.36-.61,1.74-1.22,3.48-1.62,5.29-.39,1.78-.82,3.55-1.24,5.32-.02.09-.12.22-.17.22-.27-.02-.29.18-.34.36-.05.14-.07.29-.11.44-.19.72-.39,1.45-.58,2.17Zm22.28-24.29s.07.02.11.02c.07-.13.15-.26.21-.4.21-.5.38-1.03.64-1.5.65-1.21,1.35-2.4,2.02-3.61.26-.48.47-.99.7-1.48-.1-.01-.15,0-.18.03-1.74,1.8-2.94,3.9-3.49,6.34-.04.19,0,.4,0,.6Zm12.37,21.1l.06-.08c-.08-.06-.15-.13-.23-.18-.41-.28-.83-.55-1.24-.83-.66-.47-1.13-1.09-1.28-1.88-.12-.65-.13-1.31-.19-1.97-.02-.19-.03-.39-.05-.64-.56.57-.75,2.16-.35,3.13.61,1.5,1.85,2.11,3.28,2.47Zm-17.56-4.37c-2.81.9-5.45.46-8.03-.78.28.5.68.83,1.17,1.02,1.25.48,2.56.64,3.88.77.9.09,1.68-.39,2.48-.71.17-.07.33-.19.49-.29Zm-23.63-47.49c1.54.2,2.96.39,4.25.55-.45-.42-.99-.94-1.54-1.46-.2.11-.43.29-.69.36-.46.14-.95.22-1.42.33-.18.04-.35.12-.59.21Zm33.18,35.44c.77.7,3.82.38,4.75-.5-1.61.17-3.16.33-4.75.5Zm-33.04-35.86c.74-.17,1.43-.1,2.02-.49.4-.26.42-.51.09-1-.15-.22-.39-.25-.71.04-.47.42-.88.91-1.4,1.45Zm-.99.13c.26-.56.46-1.15.79-1.66.34-.51.81-.93,1.25-1.42-.2-.16-.38-.32-.57-.48-.87.85-1.43,2.13-1.48,3.56Zm-2.54-.86s-.09.02-.14.03c.01.21-.05.48.05.62.26.35.58.66.9.97.06.06.2.04.3.06-.02-.09-.01-.21-.06-.27-.27-.29-.34-.64-.36-1.02-.03-.45-.1-.9-.18-1.34-.04-.21-.15-.39-.42-.38-.22.63.32,1.12.31,1.79-.17-.19-.28-.32-.4-.44Zm28.14-9.37c.92-.23,1.2-1,1.72-1.5.02-.02.04-.07.03-.1-.06-.22-.13-.44-.2-.67-.17.1-.41.15-.5.3-.36.61-.68,1.25-1.06,1.96Zm-.82,48.26c-.48-.14-3.26,1.09-3.74,1.62,1.36-.31,2.58-.84,3.74-1.62Zm-26.92-40.72c-.36-.77-.7-1.49-1.03-2.21-.04.01-.08.03-.12.04.11.82.22,1.63.34,2.5.3-.12.53-.21.81-.33Zm27.22-5.71c.15.77,1.31,1.44,1.92,1.14-.19-.58-1.25-1.21-1.92-1.14Zm-1.02-2.79s.07.02.1.04c.09-.12.18-.23.25-.36.29-.53.46-1.09.45-1.69,0-.16-.1-.44-.17-.45-.25-.02-.33.2-.36.42-.06.44-.12.87-.18,1.31-.03.25-.07.49-.1.74Zm-22.53,9.99c.3-.28.58-.54.87-.81.13-.12.27-.21.1-.42-.15-.19-.3-.3-.51-.13-.21.16-.43.31-.6.51-.38.44-.37.46.14.86Zm21.44-9.7c.73-.42,1-1.61.54-2.25-.52.67-.55,1.42-.54,2.25Zm-13.41,52.02c-.27,1.06-.39,2.12-.14,3.19.29-1.05.25-2.12.14-3.19Zm4.71-6.07s.07.04.1.06c.67-1.11,1.28-2.25,1.62-3.52-.04-.02-.09-.04-.13-.06l-1.59,3.51Zm10.26-43.83c-.06-.11-.09-.2-.14-.23-.35-.18-.35-.42-.22-.75.12-.29.2-.61-.01-.91-.49.12-.5.12-.43.58.04.26.09.52.12.79.06.48.1.51.68.52Zm-24.45,6.31l-.12-.04c-.65.3-.85,1.38-.31,1.95.15-.66.29-1.28.43-1.91Zm5.69,22.02c.05-.01.11-.03.16-.04-.14-.61-.28-1.23-.44-1.84-.02-.06-.18-.14-.25-.12-.07.02-.17.18-.15.24.21.59.45,1.18.68,1.76Zm14.5-4.1s.06.03.09.04c.38-.82.76-1.64,1.14-2.46l-.09-.04c-.64.7-1,1.53-1.15,2.46Zm3.24-25c-.03-.25-.03-.57-.34-.58-.15,0-.37.26-.44.45-.08.21.21.56.37.53.21-.04.45-.07.41-.4Zm-1.17.05c-.12.2-.24.34-.29.49-.1.29.11.46.33.58.07.04.24,0,.31-.07.18-.17.2-.39.03-.59-.1-.12-.21-.24-.37-.41Zm-15.98,36.27c.05,0,.11,0,.16,0-.05-.98-.11-1.96-.16-2.94-.06,0-.12,0-.18.01.06.98.12,1.96.18,2.94Zm18.23-37.05c.44-.42.68-1.15.55-1.59-.47.43-.68,1.04-.55,1.59Zm-2.69-1.3c.05-.63-.3-1.29-.75-1.45-.03.62.27,1.05.75,1.45Zm-9.29-23.1v1.87c.4-.43.4-1.35,0-1.87Zm-12.6,36.18c0,.51.36.76.87.63-.09-.47-.48-.52-.87-.63Zm25.62-12.57c-.39.08-.73.61-.7,1.07.46-.34.65-.63.7-1.07Zm11.14-38.11s-.09-.02-.14-.03c-.14.53-.27,1.06-.41,1.58.03,0,.07.02.1.03.29-.49.41-1.02.44-1.58Zm-10.6,86.33c.59-.13,1-.37,1.32-.76-.52.06-.89.36-1.32.76Zm-2.27-45.56c-.42.46-.37.82.12,1.07-.04-.36-.07-.67-.12-1.07Zm-5.16,50.77c-.03-.05-.05-.1-.08-.15-.39.22-.79.43-1.18.65.02.04.04.08.07.12.4-.21.8-.41,1.2-.62Zm-9.11,3.74c-.05-.01-.11-.02-.16-.03-.07.36-.15.72-.22,1.08.04,0,.09.02.13.03l.24-1.07Zm16.8-55.62c0,.05,0,.1,0,.16.14.01.3.06.43.02.1-.03.16-.17.24-.26-.02-.03-.05-.06-.07-.1-.2.06-.4.12-.6.18Zm20.04,11.53c-.03-.06-.06-.12-.09-.17-.22.12-.45.24-.67.37.02.05.05.09.07.14.23-.11.46-.22.69-.33Zm-5.9,44.5l-.1.09c.23.25.46.51.68.76.03-.02.05-.05.08-.07-.22-.26-.44-.52-.66-.78Zm-30.62,3.7s.07.05.11.07l.4-.61s-.09-.06-.13-.08c-.12.21-.25.42-.37.63Zm-2.62,5.64l-.14-.05c-.08.25-.16.49-.24.74.04.01.08.03.12.04.09-.24.18-.49.26-.73Zm-6.72-56.52s.1.06.15.09c.09-.15.18-.31.28-.46-.04-.03-.09-.05-.13-.08-.1.15-.19.3-.29.46Z"/><path d="m76.82,52.27c-.09-.66-.18-1.32-.29-2.05.29.41.44,1.47.29,2.05Z"/><path d="m76.42,48.37c.03.51.06.92.09,1.35-.29-.35-.35-.94-.09-1.35Z"/><path d="m76.45,53.87c.09.31.17.61.26.92-.04.01-.09.03-.13.04-.09-.31-.17-.61-.26-.92.04-.01.09-.03.13-.04Z"/><path d="m56.1,77.93c.02-2.38-.48-4.56-1.83-6.56,1.22.76,2.36,4.87,1.83,6.56Z"/><path d="m35.47,58.24c.36.42.67.87,1.06,1.23.81.75,1.73,1.36,2.75,1.81.18.08.35.2.52.3-.02.04-.04.07-.06.11-.25-.11-.51-.2-.76-.32-1.23-.6-2.31-1.43-3.29-2.37-.29-.28-.35-.52-.22-.76Z"/><path d="m43.75,63.69c-.61-.27-1.23-.53-1.84-.8.02-.04.03-.07.05-.11.67.14,1.27.44,1.84.8-.01.04-.03.07-.04.11Z"/><path d="m53.58,85.07v-1.6s.05,0,.08,0v1.59s-.05,0-.08,0Z"/><path d="m47.89,64.09c.44.4.88.79,1.32,1.19-.02.03-.04.05-.06.08l-1.36-1.15s.07-.07.1-.11Z"/><path d="m34.34,64.53c.41.13.83.26,1.24.39-.01.04-.02.08-.04.13-.42-.12-.84-.23-1.26-.35.02-.06.04-.11.05-.17Z"/><path d="m63.14,77c.24.35.49.7.73,1.05l-.1.07c-.26-.34-.52-.69-.78-1.03.05-.03.09-.06.14-.09Z"/><path d="m55.88,82.61c.03-.31.07-.62.1-.93.2.34.13.65-.02.95-.03,0-.06-.01-.09-.02Z"/><path d="m40.24,61.94c.34.18.67.35,1.01.53l-.06.11-1.01-.54s.04-.07.05-.1Z"/><path d="m58.66,72.42c.25.21.49.43.74.64-.03.03-.05.06-.08.09-.25-.21-.49-.43-.74-.64.03-.03.05-.06.08-.09Z"/><path d="m48.72,67.42c-.29-.09-.57-.17-.86-.26.01-.04.02-.08.03-.11.29.08.58.16.87.24l-.04.13Z"/><path d="m95.97,47.48c-.23.14-.46.27-.7.41-.02-.03-.04-.05-.05-.08.22-.15.45-.31.67-.46.03.04.05.09.08.13Z"/><path d="m58.24,63.26c-.9.45-1.72.85-2.58,1.28.15-.44,1.85-1.28,2.58-1.28Z"/><path d="m62.41,61.78c-1.18.38-2.36.76-3.51,1.13.26-.36,2.7-1.16,3.51-1.13Z"/><path d="m61.93,69.98c.42-.1.83-.2,1.25-.3-.37.29-.76.46-1.22.42,0-.04-.02-.08-.03-.13Z"/><path d="m75.03,61.54c.31-.13.61-.26.92-.39.02.04.03.07.05.11-.3.13-.6.26-.91.39-.02-.04-.04-.08-.06-.11Z"/><path d="m64.6,61.54c-.25.05-.51.09-.76.14,0-.04-.02-.08-.02-.13.25-.05.51-.1.76-.14,0,.04.02.09.02.13Z"/><path d="m79.01,73.77c-.16.68-.33,1.37-.49,2.05-.03,0-.06-.01-.1-.02.02-.72.17-1.4.44-2.06.05.01.09.02.14.03Z"/><path d="m77.72,66.99c.14-.35.28-.7.44-1.09.09.36-.07.79-.44,1.09Z"/><path d="m90.86,67.36c-1.89-1.16-3.79-2.32-5.68-3.48.02-.03.03-.05.05-.08,2,.99,3.84,2.25,5.73,3.4-.03.05-.07.1-.1.16Z"/><path d="m84.61,62.52c.74.26,1.48.52,2.21.79-.02.06-.04.11-.06.17l-2.22-.77c.02-.06.05-.13.07-.19Z"/><path d="m93.13,65.08c-.92-.18-1.84-.37-2.77-.55.01-.05.02-.1.03-.15l2.77.56s-.02.1-.03.14Z"/><path d="m95.88,66.06c-.8-.29-1.59-.58-2.39-.87.02-.05.04-.09.05-.14l2.38.88s-.03.09-.05.13Z"/><path d="m89.41,64.28c-.45-.15-.9-.3-1.35-.45.01-.04.03-.09.04-.13.45.14.9.29,1.35.43-.01.05-.03.1-.04.15Z"/><path d="m100.88,69.55c-.31-.28-.62-.57-.93-.85.01,0,.02-.02.03-.03.3.29.61.58.91.86,0,0-.01.01-.02.02Z"/><path d="m93.92,62.55c.3.04.6.08.9.12,0,.04,0,.08-.01.12-.3-.04-.61-.08-.91-.12,0-.04.01-.08.02-.12Z"/><path d="m45.49,76.59c-1.84,1.66-3.41,3.59-5.42,5.07-.03-.03-.06-.06-.09-.09,1.8-1.69,3.6-3.39,5.41-5.08.03.03.07.07.1.1Z"/><path d="m48.27,83.61c-.72,1.25-1.35,2.57-2.3,3.68-.04-.02-.07-.04-.11-.07.77-1.22,1.54-2.44,2.31-3.66.03.02.06.04.09.05Z"/><path d="m40.68,83.77c1.09-.85,2.18-1.71,3.27-2.56-1.01.96-1.98,1.96-3.27,2.56Z"/><path d="m37.03,83.18c.66-.3,1.27-.57,1.94-.88-.42.53-1.55,1.04-1.94.88Z"/><path d="m45.69,76.16c.48-.37.96-.74,1.44-1.11.03.04.06.08.09.12-.48.37-.97.73-1.45,1.1-.03-.04-.05-.07-.08-.11Z"/><path d="m50.34,55.77c.13,1,.26,2.01.39,3.03-.28-.59-.49-2.24-.39-3.03Z"/><path d="m101.12,116.79c-.18-.3-.36-.59-.55-.89.36.19.58.47.65.84-.03.02-.07.03-.1.05Z"/></svg>