<?xml version="1.0" encoding="UTF-8"?><svg id="Layer_1" xmlns="http://www.w3.org/2000/svg" viewBox="0 0 144.57 144.57"><path d="m62.27,81.8c-1.09-1.16-2.9-1.27-4.39-1.23-1.93.05-3.02,1.68-2.85,3.53.25,2.71,3.03,4.04,3.16,6.92.04.88.59,1.95,1.61,1.82,1.25-.16,1.5-1.48,1.62-2.53.18-1.51.4-2.74.96-4.15.54-1.37,1.04-3.14-.1-4.36Z" fill="#fff" stroke="#1d1d1b" stroke-miterlimit="10" stroke-width=".39"/><path d="m59.4,81.26c-.07-.1-.23-.03-.16.09.88,1.54.76,3.37.64,5.08-.12,1.68-.33,3.36,0,5.02.02.1.2.09.19-.02-.45-3.4,1.7-7.12-.66-10.17Z" fill="#fff" stroke="#1d1d1b" stroke-miterlimit="10" stroke-width=".39"/><path d="m88.89,40.87c.33.27.7.44,1.04.34.93-.27.44-1.68.62-2.39.5-2.09,2.53-3.46,2.97-5.59.42-2.06-1.01-4.32-3.31-3.84-.57.12-.98.22-1.59.19-.49-.02-.9-.04-1.37.16-.93.41-1.4,1.31-1.38,2.31.03,1.43.61,2.99,1.05,4.34.38,1.16.56,2.42,1.15,3.5.15.28.46.69.83.98Z" fill="#fff" stroke="#1d1d1b" stroke-miterlimit="10" stroke-width=".39"/><path d="m89.45,40.37c-.63-1.61-.91-3.38-.95-5.11-.02-.82-.03-1.65.06-2.47.08-.82.34-1.6.44-2.41,0,0-.01-.02-.02,0-.42.68-.6,1.58-.77,2.36-.18.88-.28,1.75-.24,2.65.08,1.78.61,3.44,1.41,5.03.02.05.1.02.08-.03Z" fill="#fff" stroke="#1d1d1b" stroke-miterlimit="10" stroke-width=".39"/><path d="m71.54,85.78c-.04-.42-.17-.81-.48-.99-.84-.48-1.52.84-2.15,1.22-1.86,1.09-4.25.58-6.08,1.74-1.78,1.12-2.41,3.73-.47,5.05.48.33.84.56,1.24,1.01.32.37.6.68,1.07.87.95.38,1.92.1,2.62-.61,1.01-1.01,1.73-2.52,2.4-3.77.57-1.08,1.35-2.08,1.72-3.25.1-.3.17-.81.13-1.28Z" fill="#fff" stroke="#1d1d1b" stroke-miterlimit="10" stroke-width=".39"/><path d="m70.79,85.72c-.72,1.57-1.8,3-3.02,4.23-.58.59-1.17,1.16-1.82,1.68-.65.51-1.39.87-2.04,1.36,0,0,0,.02,0,.02.78-.17,1.56-.66,2.23-1.09.76-.48,1.46-1.01,2.07-1.66,1.23-1.29,2.05-2.82,2.64-4.5.02-.05-.05-.09-.07-.03Z" fill="#fff" stroke="#1d1d1b" stroke-miterlimit="10" stroke-width=".39"/><path d="m62.6,65.22c-1.09-.36-1.98.55-3.03.21-.88-.28-1.59-.48-2.37.28-.83.82-.94,2.19-.78,3.28.42,2.81,2.96,4.84,3.18,7.67.04.5.41.81.78.88,1.28.25,1.24-.75,1.46-1.62.39-1.49,1.16-2.94,1.61-4.43.55-1.81,1.8-5.41-.85-6.27Z" fill="#fff" stroke="#1d1d1b" stroke-miterlimit="10" stroke-width=".39"/><path d="m60.64,66.39c-.07-.1-.23-.02-.18.1.59,1.41.72,3.08.8,4.59.09,1.63-.21,3.24-.53,4.82-.01.07.1.11.12.04.9-3,1.86-6.83-.22-9.56Z" fill="#fff" stroke="#1d1d1b" stroke-miterlimit="10" stroke-width=".39"/><path d="m75.33,78.72c-.16-1.14-1.37-1.53-1.54-2.62-.14-.91-.27-1.64-1.3-2-1.1-.38-2.38.13-3.29.76-2.33,1.62-3.02,4.8-5.46,6.25-.43.26-.54.72-.44,1.09.34,1.26,1.22.77,2.1.59,1.51-.32,3.15-.26,4.68-.52,1.87-.31,5.64-.79,5.24-3.55Z" fill="#fff" stroke="#1d1d1b" stroke-miterlimit="10" stroke-width=".39"/><path d="m73.41,77.48c.05-.11-.09-.21-.17-.11-1,1.16-2.44,2.01-3.76,2.75-1.42.8-2.99,1.25-4.56,1.67-.07.02-.05.14.02.13,3.08-.53,6.95-1.37,8.47-4.44Z" fill="#fff" stroke="#1d1d1b" stroke-miterlimit="10" stroke-width=".39"/><path d="m103.16,93.31c-1.09-.36-1.98.55-3.03.21-.88-.28-1.59-.48-2.37.28-.83.82-.94,2.19-.78,3.28.42,2.81,2.96,4.84,3.18,7.67.04.5.41.81.78.88,1.28.25,1.24-.75,1.46-1.62.39-1.49,1.16-2.94,1.61-4.43.55-1.81,1.8-5.41-.85-6.27Z" fill="#fff" stroke="#1d1d1b" stroke-miterlimit="10" stroke-width=".39"/><path d="m101.19,94.48c-.07-.1-.23-.02-.18.1.59,1.41.72,3.08.8,4.59.09,1.63-.21,3.24-.53,4.82-.01.07.1.11.12.04.9-3,1.86-6.83-.22-9.56Z" fill="#fff" stroke="#1d1d1b" stroke-miterlimit="10" stroke-width=".39"/><path d="m72.81,63.98c-.91-1.3-2.69-1.68-4.16-1.85-1.92-.23-3.23,1.22-3.34,3.07-.15,2.72,2.41,4.44,2.12,7.3-.09.87.3,2.01,1.32,2.03,1.26.02,1.7-1.25,1.97-2.26.4-1.46.8-2.65,1.55-3.96.73-1.28,1.49-2.95.53-4.32Z" fill="#fff" stroke="#1d1d1b" stroke-miterlimit="10" stroke-width=".39"/><path d="m70.05,63.02c-.06-.11-.22-.06-.17.07.64,1.65.26,3.45-.11,5.12-.36,1.64-.82,3.27-.73,4.97,0,.11.19.12.19,0,.04-3.43,2.71-6.8.82-10.16Z" fill="#fff" stroke="#1d1d1b" stroke-miterlimit="10" stroke-width=".39"/><path d="m81.14,37.25c-1.44-.66-3.17-.07-4.52.53-1.77.78-2.16,2.7-1.3,4.35,1.26,2.41,4.34,2.58,5.55,5.2.37.8,1.29,1.58,2.18,1.07,1.09-.62.82-1.94.54-2.95-.41-1.46-.67-2.69-.69-4.2-.02-1.47-.23-3.3-1.75-3.99Z" fill="#fff" stroke="#1d1d1b" stroke-miterlimit="10" stroke-width=".39"/><path d="m78.27,37.84c-.11-.06-.22.06-.11.15,1.4,1.09,1.98,2.83,2.52,4.46.53,1.59.97,3.23,1.91,4.65.06.09.22.01.17-.09-1.71-2.97-1.14-7.23-4.48-9.16Z" fill="#fff" stroke="#1d1d1b" stroke-miterlimit="10" stroke-width=".39"/><path d="m86.51,62.69c-1.27-.95-3.08-.74-4.53-.44-1.9.39-2.69,2.19-2.2,3.98.71,2.62,3.68,3.44,4.3,6.26.19.86.92,1.81,1.89,1.51,1.2-.38,1.22-1.72,1.16-2.78-.08-1.51-.07-2.77.23-4.25.29-1.44.48-3.28-.85-4.27Z" fill="#fff" stroke="#1d1d1b" stroke-miterlimit="10" stroke-width=".39"/><path d="m83.59,62.66c-.09-.08-.23.02-.14.12,1.13,1.36,1.33,3.19,1.51,4.89.17,1.67.25,3.36.86,4.95.04.1.22.06.18-.05-1.03-3.27.44-7.31-2.41-9.9Z" fill="#fff" stroke="#1d1d1b" stroke-miterlimit="10" stroke-width=".39"/><path d="m47.8,38.98c0,.43.1.82.39,1.02.8.55,1.58-.72,2.25-1.04,1.94-.93,4.28-.22,6.2-1.23,1.87-.97,2.71-3.51.89-5-.45-.37-.79-.63-1.15-1.11-.29-.39-.54-.73-.99-.96-.91-.46-1.9-.26-2.66.39-1.09.93-1.93,2.36-2.7,3.56-.66,1.03-1.52,1.96-1.99,3.1-.12.3-.24.8-.24,1.26Z" fill="#fff" stroke="#1d1d1b" stroke-miterlimit="10" stroke-width=".39"/><path d="m48.54,39.1c.85-1.5,2.05-2.84,3.36-3.96.63-.54,1.27-1.06,1.95-1.52.69-.45,1.46-.75,2.15-1.19,0,0,0-.02,0-.02-.79.11-1.61.53-2.32.9-.79.41-1.54.89-2.2,1.48-1.33,1.19-2.28,2.64-3,4.27-.02.05.04.09.07.04Z" fill="#fff" stroke="#1d1d1b" stroke-miterlimit="10" stroke-width=".39"/><path d="m49.13,69.09c-.04-.42-.17-.81-.48-.99-.84-.48-1.52.84-2.15,1.22-1.86,1.09-4.25.58-6.08,1.74-1.78,1.12-2.41,3.73-.47,5.05.48.33.84.56,1.24,1.01.32.37.6.68,1.07.87.95.38,1.92.1,2.62-.61,1.01-1.01,1.73-2.52,2.4-3.77.57-1.08,1.35-2.08,1.72-3.25.1-.3.17-.81.13-1.28Z" fill="#fff" stroke="#1d1d1b" stroke-miterlimit="10" stroke-width=".39"/><path d="m48.37,69.03c-.72,1.57-1.8,3-3.02,4.23-.58.59-1.17,1.16-1.82,1.68-.65.51-1.39.87-2.04,1.36,0,0,0,.02,0,.02.78-.17,1.56-.66,2.23-1.09.76-.48,1.46-1.01,2.07-1.66,1.23-1.29,2.05-2.82,2.64-4.5.02-.05-.05-.09-.07-.03Z" fill="#fff" stroke="#1d1d1b" stroke-miterlimit="10" stroke-width=".39"/><path d="m33.29,52.48c-.55,1.01.19,2.05-.33,3.02-.44.81-.76,1.48-.15,2.38.66.96,1.98,1.32,3.09,1.35,2.84.09,5.29-2.05,8.11-1.76.5.05.87-.26,1.01-.62.47-1.21-.52-1.35-1.33-1.72-1.4-.65-2.68-1.67-4.07-2.38-1.69-.86-5-2.74-6.33-.28Z" fill="#fff" stroke="#1d1d1b" stroke-miterlimit="10" stroke-width=".39"/><path d="m34.09,54.63c-.11.06-.06.22.07.19,1.49-.33,3.16-.16,4.66.03,1.62.2,3.15.78,4.65,1.38.06.03.13-.08.06-.11-2.79-1.41-6.39-3.05-9.44-1.49Z" fill="#fff" stroke="#1d1d1b" stroke-miterlimit="10" stroke-width=".39"/><path d="m53.31,43.01c-1.09-.36-1.98.55-3.03.21-.88-.28-1.59-.48-2.37.28-.83.82-.94,2.19-.78,3.28.42,2.81,2.96,4.84,3.18,7.67.04.5.41.81.78.88,1.28.25,1.24-.75,1.46-1.62.39-1.49,1.16-2.94,1.61-4.43.55-1.81,1.8-5.41-.85-6.27Z" fill="#fff" stroke="#1d1d1b" stroke-miterlimit="10" stroke-width=".39"/><path d="m51.34,44.18c-.07-.1-.23-.02-.18.1.59,1.41.72,3.08.8,4.59.09,1.63-.21,3.24-.53,4.82-.01.07.1.11.12.04.9-3,1.86-6.83-.22-9.56Z" fill="#fff" stroke="#1d1d1b" stroke-miterlimit="10" stroke-width=".39"/><path d="m53.2,57.63c-.91-1.3-2.69-1.68-4.16-1.85-1.92-.23-3.23,1.22-3.34,3.07-.15,2.72,2.41,4.44,2.12,7.3-.09.87.3,2.01,1.32,2.03,1.26.02,1.7-1.25,1.97-2.26.4-1.46.8-2.65,1.55-3.96.73-1.28,1.49-2.95.53-4.32Z" fill="#fff" stroke="#1d1d1b" stroke-miterlimit="10" stroke-width=".39"/><path d="m50.44,56.67c-.06-.11-.22-.06-.17.07.64,1.65.26,3.45-.11,5.12-.36,1.64-.82,3.27-.73,4.97,0,.11.19.12.19,0,.04-3.43,2.71-6.8.82-10.16Z" fill="#fff" stroke="#1d1d1b" stroke-miterlimit="10" stroke-width=".39"/><path d="m68.1,26.07c-1.52.45-2.44,2.03-3.06,3.37-.82,1.75.15,3.45,1.87,4.13,2.53.99,4.97-.9,7.6.28.8.36,2.01.34,2.34-.62.42-1.19-.66-2-1.53-2.58-1.27-.84-2.27-1.59-3.28-2.71-.98-1.09-2.34-2.34-3.94-1.86Z" fill="#fff" stroke="#1d1d1b" stroke-miterlimit="10" stroke-width=".39"/><path d="m66.33,28.4c-.12.02-.12.19,0,.19,1.77-.09,3.36.83,4.83,1.7,1.45.85,2.85,1.8,4.49,2.25.1.03.18-.14.07-.18-3.25-1.12-5.6-4.7-9.39-3.96Z" fill="#fff" stroke="#1d1d1b" stroke-miterlimit="10" stroke-width=".39"/><path d="m66.32,45.93c-1.27-.95-3.08-.74-4.53-.44-1.9.39-2.69,2.19-2.2,3.98.71,2.62,3.68,3.44,4.3,6.26.19.86.92,1.81,1.89,1.51,1.2-.38,1.22-1.72,1.16-2.78-.08-1.51-.07-2.77.23-4.25.29-1.44.48-3.28-.85-4.27Z" fill="#fff" stroke="#1d1d1b" stroke-miterlimit="10" stroke-width=".39"/><path d="m63.4,45.9c-.09-.08-.23.02-.14.12,1.13,1.36,1.33,3.19,1.51,4.89.17,1.67.25,3.36.86,4.95.04.1.22.06.18-.05-1.03-3.27.44-7.31-2.41-9.9Z" fill="#fff" stroke="#1d1d1b" stroke-miterlimit="10" stroke-width=".39"/><path d="m42.49,92.51c.42-.08.79-.26.93-.58.38-.89-1.01-1.41-1.45-2-1.29-1.72-1.05-4.16-2.41-5.85-1.32-1.64-3.97-1.98-5.07.1-.27.51-.46.9-.87,1.34-.33.36-.61.67-.75,1.16-.28.98.11,1.92.9,2.54,1.12.89,2.69,1.44,4.01,1.96,1.14.45,2.22,1.11,3.43,1.35.31.06.83.08,1.29,0Z" fill="#fff" stroke="#1d1d1b" stroke-miterlimit="10" stroke-width=".39"/><path d="m42.47,91.76c-1.64-.54-3.18-1.46-4.54-2.53-.65-.51-1.29-1.04-1.87-1.62-.58-.59-1.02-1.28-1.58-1.88,0,0-.02,0-.02,0,.26.76.83,1.48,1.33,2.1.56.7,1.17,1.33,1.88,1.88,1.42,1.08,3.03,1.72,4.77,2.12.05.01.08-.06.03-.08Z" fill="#fff" stroke="#1d1d1b" stroke-miterlimit="10" stroke-width=".39"/><path d="m66.89,102.28c-.35-.24-.73-.39-1.06-.26-.91.34-.32,1.7-.44,2.43-.35,2.12-2.27,3.64-2.55,5.79-.27,2.09,1.33,4.24,3.59,3.59.56-.16.97-.29,1.57-.3.49-.01.91-.02,1.35-.26.9-.48,1.3-1.41,1.21-2.41-.14-1.43-.83-2.94-1.37-4.25-.46-1.13-.74-2.37-1.4-3.4-.17-.27-.51-.65-.9-.92Z" fill="#fff" stroke="#1d1d1b" stroke-miterlimit="10" stroke-width=".39"/><path d="m66.36,102.82c.75,1.56,1.16,3.3,1.33,5.02.08.82.15,1.65.13,2.47-.02.82-.22,1.62-.26,2.44,0,0,.01.02.02,0,.37-.71.49-1.63.59-2.41.12-.89.15-1.77.05-2.66-.21-1.77-.86-3.38-1.78-4.91-.03-.05-.1-.02-.07.04Z" fill="#fff" stroke="#1d1d1b" stroke-miterlimit="10" stroke-width=".39"/><path d="m47.61,97.67c-.97.61-.84,1.88-1.77,2.47-.78.5-1.39.92-1.3,2,.1,1.16,1.08,2.12,2.03,2.7,2.43,1.48,5.62.81,7.93,2.45.41.29.88.2,1.18-.04,1.01-.82.21-1.43-.31-2.16-.9-1.25-1.52-2.77-2.38-4.07-1.05-1.58-3.01-4.84-5.37-3.35Z" fill="#fff" stroke="#1d1d1b" stroke-miterlimit="10" stroke-width=".39"/><path d="m47.26,99.93c-.12,0-.16.16-.04.2,1.46.44,2.83,1.41,4.05,2.32,1.31.97,2.36,2.23,3.38,3.48.04.05.15,0,.11-.07-1.74-2.6-4.07-5.79-7.5-5.93Z" fill="#fff" stroke="#1d1d1b" stroke-miterlimit="10" stroke-width=".39"/><path d="m72.45,94.97c-.97.61-.84,1.88-1.77,2.47-.78.5-1.39.92-1.3,2,.1,1.16,1.08,2.12,2.03,2.7,2.43,1.48,5.62.81,7.93,2.45.41.29.88.2,1.18-.04,1.01-.82.21-1.43-.31-2.16-.9-1.25-1.52-2.77-2.38-4.07-1.05-1.58-3.01-4.84-5.37-3.35Z" fill="#fff" stroke="#1d1d1b" stroke-miterlimit="10" stroke-width=".39"/><path d="m72.09,97.23c-.12,0-.16.16-.04.2,1.46.44,2.83,1.41,4.05,2.32,1.31.97,2.36,2.23,3.38,3.48.04.05.15,0,.11-.07-1.74-2.6-4.07-5.79-7.5-5.93Z" fill="#fff" stroke="#1d1d1b" stroke-miterlimit="10" stroke-width=".39"/><path d="m56.84,92.1c-1.58-.13-3.01,1-4.08,2.02-1.4,1.33-1.12,3.27.24,4.53,2,1.85,4.96.97,6.97,3.03.61.63,1.74,1.05,2.41.28.82-.96.12-2.1-.48-2.96-.87-1.24-1.53-2.31-2.06-3.72-.52-1.38-1.33-3.03-2.99-3.17Z" fill="#fff" stroke="#1d1d1b" stroke-miterlimit="10" stroke-width=".39"/><path d="m54.34,93.61c-.12-.02-.19.13-.06.18,1.68.56,2.82,2,3.87,3.35,1.03,1.32,2,2.72,3.36,3.73.08.06.21-.07.13-.14-2.61-2.23-3.5-6.43-7.3-7.12Z" fill="#fff" stroke="#1d1d1b" stroke-miterlimit="10" stroke-width=".39"/><path d="m28.52,70.71c-.62,1.46,0,3.17.64,4.51.82,1.75,2.75,2.09,4.38,1.19,2.38-1.32,2.48-4.4,5.06-5.67.79-.39,1.54-1.33,1.02-2.2-.65-1.08-1.96-.77-2.97-.47-1.45.44-2.67.73-4.18.79-1.47.06-3.29.31-3.95,1.84Z" fill="#fff" stroke="#1d1d1b" stroke-miterlimit="10" stroke-width=".39"/><path d="m29.18,73.56c-.06.11.07.22.15.11,1.06-1.42,2.78-2.05,4.39-2.63,1.58-.57,3.21-1.04,4.6-2.02.09-.06,0-.22-.09-.16-2.93,1.79-7.2,1.31-9.05,4.7Z" fill="#fff" stroke="#1d1d1b" stroke-miterlimit="10" stroke-width=".39"/><path d="m51.67,71.64c-1.54.37-2.53,1.9-3.23,3.21-.91,1.71-.03,3.46,1.66,4.23,2.47,1.13,5-.64,7.56.68.78.4,1.98.45,2.37-.5.48-1.17-.55-2.04-1.4-2.66-1.22-.9-2.18-1.71-3.13-2.89-.92-1.15-2.21-2.46-3.83-2.07Z" fill="#fff" stroke="#1d1d1b" stroke-miterlimit="10" stroke-width=".39"/><path d="m49.78,73.87c-.12.02-.13.19,0,.19,1.77,0,3.3,1.01,4.73,1.96,1.4.93,2.75,1.96,4.36,2.49.1.03.18-.13.08-.17-3.18-1.29-5.35-5.01-9.16-4.47Z" fill="#fff" stroke="#1d1d1b" stroke-miterlimit="10" stroke-width=".39"/><path d="m75.71,64.76c-.09.42-.08.83.16,1.08.66.71,1.7-.36,2.42-.52,2.1-.49,4.23.71,6.32.15,2.03-.55,3.41-2.84,1.95-4.69-.36-.46-.64-.78-.88-1.33-.2-.45-.37-.83-.76-1.15-.79-.65-1.8-.67-2.69-.2-1.27.67-2.4,1.89-3.41,2.89-.87.86-1.91,1.58-2.61,2.6-.18.26-.41.72-.51,1.18Z" fill="#fff" stroke="#1d1d1b" stroke-miterlimit="10" stroke-width=".39"/><path d="m76.42,65.04c1.16-1.28,2.61-2.33,4.14-3.14.73-.39,1.47-.76,2.24-1.06.77-.3,1.58-.42,2.35-.69,0,0,.01-.02,0-.02-.8-.07-1.69.17-2.46.37-.87.23-1.69.53-2.47.97-1.56.87-2.8,2.09-3.86,3.52-.03.04.02.1.06.06Z" fill="#fff" stroke="#1d1d1b" stroke-miterlimit="10" stroke-width=".39"/><path d="m72.37,41.74c-.38-.2-.78-.29-1.09-.13-.86.45-.1,1.73-.13,2.47-.08,2.15-1.79,3.89-1.8,6.06,0,2.11,1.85,4.04,4.01,3.11.53-.23.92-.41,1.52-.5.48-.07.9-.14,1.31-.43.83-.59,1.12-1.56.9-2.54-.31-1.4-1.19-2.81-1.89-4.04-.6-1.06-1.03-2.26-1.82-3.2-.2-.24-.59-.58-1.01-.8Z" fill="#fff" stroke="#1d1d1b" stroke-miterlimit="10" stroke-width=".39"/><path d="m71.92,42.35c.94,1.45,1.56,3.13,1.95,4.82.18.8.35,1.62.44,2.44.08.82-.01,1.64.05,2.45,0,0,.02.02.02,0,.28-.75.28-1.67.28-2.47,0-.9-.07-1.77-.29-2.64-.43-1.73-1.28-3.25-2.38-4.65-.03-.04-.1,0-.07.04Z" fill="#fff" stroke="#1d1d1b" stroke-miterlimit="10" stroke-width=".39"/><path d="m84.52,86.12c.94.67,2.05.06,2.96.7.76.53,1.38.94,2.34.44,1.04-.54,1.55-1.81,1.72-2.9.44-2.81-1.39-5.5-.76-8.27.11-.49-.15-.89-.49-1.07-1.14-.62-1.4.35-1.87,1.11-.81,1.31-1.98,2.46-2.86,3.75-1.06,1.57-3.32,4.63-1.05,6.25Z" fill="#fff" stroke="#1d1d1b" stroke-miterlimit="10" stroke-width=".39"/><path d="m86.75,85.59c.04.12.21.08.2-.04-.15-1.52.23-3.15.6-4.62.4-1.58,1.16-3.03,1.93-4.45.03-.06-.06-.14-.11-.07-1.74,2.6-3.8,5.97-2.63,9.19Z" fill="#fff" stroke="#1d1d1b" stroke-miterlimit="10" stroke-width=".39"/><path d="m77.08,93.89c1.15.05,1.76-1.06,2.87-1.02.92.04,1.67.04,2.21-.9.58-1.01.32-2.36-.13-3.37-1.15-2.6-4.15-3.87-5.12-6.54-.17-.47-.61-.67-.99-.64-1.3.1-.99,1.06-.97,1.95.03,1.54-.33,3.14-.37,4.7-.04,1.89-.29,5.69,2.5,5.82Z" fill="#fff" stroke="#1d1d1b" stroke-miterlimit="10" stroke-width=".39"/><path d="m78.66,92.23c.1.07.22-.04.14-.14-.95-1.2-1.52-2.77-2-4.21-.52-1.55-.67-3.18-.79-4.79,0-.07-.13-.08-.13,0-.06,3.13.04,7.08,2.77,9.15Z" fill="#fff" stroke="#1d1d1b" stroke-miterlimit="10" stroke-width=".39"/><path d="m93.07,85.03c-.09.42-.08.83.16,1.08.66.71,1.7-.36,2.42-.52,2.1-.49,4.23.71,6.32.15,2.03-.55,3.41-2.84,1.95-4.69-.36-.46-.64-.78-.88-1.33-.2-.45-.37-.83-.76-1.15-.79-.65-1.8-.67-2.69-.2-1.27.67-2.4,1.89-3.41,2.89-.87.86-1.91,1.58-2.61,2.6-.18.26-.41.72-.51,1.18Z" fill="#fff" stroke="#1d1d1b" stroke-miterlimit="10" stroke-width=".39"/><path d="m93.77,85.31c1.16-1.28,2.61-2.33,4.14-3.14.73-.39,1.47-.76,2.24-1.06.77-.3,1.58-.42,2.35-.69,0,0,.01-.02,0-.02-.8-.07-1.69.17-2.46.37-.87.23-1.69.53-2.47.97-1.56.87-2.8,2.09-3.86,3.52-.03.04.02.1.06.06Z" fill="#fff" stroke="#1d1d1b" stroke-miterlimit="10" stroke-width=".39"/><path d="m82.31,97.06c.48,1.51,2.07,2.4,3.42,3.01,1.77.79,3.45-.21,4.1-1.95.95-2.55-.99-4.95.15-7.6.35-.81.31-2.01-.66-2.33-1.2-.4-1.99.69-2.55,1.58-.81,1.28-1.55,2.29-2.66,3.33-1.08,1-2.3,2.38-1.79,3.97Z" fill="#fff" stroke="#1d1d1b" stroke-miterlimit="10" stroke-width=".39"/><path d="m84.67,98.8c.03.12.19.12.18-.01-.12-1.77.78-3.37,1.62-4.86.83-1.46,1.75-2.88,2.17-4.53.03-.1-.14-.17-.18-.06-1.06,3.26-4.61,5.69-3.8,9.46Z" fill="#fff" stroke="#1d1d1b" stroke-miterlimit="10" stroke-width=".39"/><path d="m72.74,56.06c-.04-.42-.17-.81-.48-.99-.84-.48-1.52.84-2.15,1.22-1.86,1.09-4.25.58-6.08,1.74-1.78,1.12-2.41,3.73-.47,5.05.48.33.84.56,1.24,1.01.32.37.6.68,1.07.87.95.38,1.92.1,2.62-.61,1.01-1.01,1.73-2.52,2.4-3.77.57-1.08,1.35-2.08,1.72-3.25.1-.3.17-.81.13-1.28Z" fill="#fff" stroke="#1d1d1b" stroke-miterlimit="10" stroke-width=".39"/><path d="m71.98,56c-.72,1.57-1.8,3-3.02,4.23-.58.59-1.17,1.16-1.82,1.68-.65.51-1.39.87-2.04,1.36,0,0,0,.02,0,.02.78-.17,1.56-.66,2.23-1.09.76-.48,1.46-1.01,2.07-1.66,1.23-1.29,2.05-2.82,2.64-4.5.02-.05-.05-.09-.07-.03Z" fill="#fff" stroke="#1d1d1b" stroke-miterlimit="10" stroke-width=".39"/><path d="m74.16,65.4c-.97.61-.84,1.88-1.77,2.47-.78.5-1.39.92-1.3,2,.1,1.16,1.08,2.12,2.03,2.7,2.43,1.48,5.62.81,7.93,2.45.41.29.88.2,1.18-.04,1.01-.82.21-1.43-.31-2.16-.9-1.25-1.52-2.77-2.38-4.07-1.05-1.58-3.01-4.84-5.37-3.35Z" fill="#fff" stroke="#1d1d1b" stroke-miterlimit="10" stroke-width=".39"/><path d="m73.8,67.66c-.12,0-.16.16-.04.2,1.46.44,2.83,1.41,4.05,2.32,1.31.97,2.36,2.23,3.38,3.48.04.05.15,0,.11-.07-1.74-2.6-4.07-5.79-7.5-5.93Z" fill="#fff" stroke="#1d1d1b" stroke-miterlimit="10" stroke-width=".39"/><path d="m74.11,52.68c-.97.61-.84,1.88-1.77,2.47-.78.5-1.39.92-1.3,2,.1,1.16,1.08,2.12,2.03,2.7,2.43,1.48,5.62.81,7.93,2.45.41.29.88.2,1.18-.04,1.01-.82.21-1.43-.31-2.16-.9-1.25-1.52-2.77-2.38-4.07-1.05-1.58-3.01-4.84-5.37-3.35Z" fill="#fff" stroke="#1d1d1b" stroke-miterlimit="10" stroke-width=".39"/><path d="m73.75,54.94c-.12,0-.16.16-.04.2,1.46.44,2.83,1.41,4.05,2.32,1.31.97,2.36,2.23,3.38,3.48.04.05.15,0,.11-.07-1.74-2.6-4.07-5.79-7.5-5.93Z" fill="#fff" stroke="#1d1d1b" stroke-miterlimit="10" stroke-width=".39"/><path d="m62.36,39.23c-.97.61-.84,1.88-1.77,2.47-.78.5-1.39.92-1.3,2,.1,1.16,1.08,2.12,2.03,2.7,2.43,1.48,5.62.81,7.93,2.45.41.29.88.2,1.18-.04,1.01-.82.21-1.43-.31-2.16-.9-1.25-1.52-2.77-2.38-4.07-1.05-1.58-3.01-4.84-5.37-3.35Z" fill="#fff" stroke="#1d1d1b" stroke-miterlimit="10" stroke-width=".39"/><path d="m62.01,41.49c-.12,0-.16.16-.04.2,1.46.44,2.83,1.41,4.05,2.32,1.31.97,2.36,2.23,3.38,3.48.04.05.15,0,.11-.07-1.74-2.6-4.07-5.79-7.5-5.93Z" fill="#fff" stroke="#1d1d1b" stroke-miterlimit="10" stroke-width=".39"/><path d="m57.58,61.3c-1.58-.13-3.01,1-4.08,2.02-1.4,1.33-1.12,3.27.24,4.53,2,1.85,4.96.97,6.97,3.03.61.63,1.74,1.05,2.41.28.82-.96.12-2.1-.48-2.96-.87-1.24-1.53-2.31-2.06-3.72-.52-1.38-1.33-3.03-2.99-3.17Z" fill="#fff" stroke="#1d1d1b" stroke-miterlimit="10" stroke-width=".39"/><path d="m55.08,62.81c-.12-.02-.19.13-.06.18,1.68.56,2.82,2,3.87,3.35,1.03,1.32,2,2.72,3.36,3.73.08.06.21-.07.13-.14-2.61-2.23-3.5-6.43-7.3-7.12Z" fill="#fff" stroke="#1d1d1b" stroke-miterlimit="10" stroke-width=".39"/><path d="m56.1,51.59c-1.54.37-2.53,1.9-3.23,3.21-.91,1.71-.03,3.46,1.66,4.23,2.47,1.13,5-.64,7.56.68.78.4,1.98.45,2.37-.5.48-1.17-.55-2.04-1.4-2.66-1.22-.9-2.18-1.71-3.13-2.89-.92-1.15-2.21-2.46-3.83-2.07Z" fill="#fff" stroke="#1d1d1b" stroke-miterlimit="10" stroke-width=".39"/><path d="m54.21,53.82c-.12.02-.13.19,0,.19,1.77,0,3.3,1.01,4.73,1.96,1.4.93,2.75,1.96,4.36,2.49.1.03.18-.13.08-.17-3.18-1.29-5.35-5.01-9.16-4.47Z" fill="#fff" stroke="#1d1d1b" stroke-miterlimit="10" stroke-width=".39"/><path d="m43.6,87.83c.94.67,2.05.06,2.96.7.76.53,1.38.94,2.34.44,1.04-.54,1.55-1.81,1.72-2.9.44-2.81-1.39-5.5-.76-8.27.11-.49-.15-.89-.49-1.07-1.14-.62-1.4.35-1.87,1.11-.81,1.31-1.98,2.46-2.86,3.75-1.06,1.57-3.32,4.63-1.05,6.25Z" fill="#fff" stroke="#1d1d1b" stroke-miterlimit="10" stroke-width=".39"/><path d="m45.83,87.29c.04.12.21.08.2-.04-.15-1.52.23-3.15.6-4.62.4-1.58,1.16-3.03,1.93-4.45.03-.06-.06-.14-.11-.07-1.74,2.6-3.8,5.97-2.63,9.19Z" fill="#fff" stroke="#1d1d1b" stroke-miterlimit="10" stroke-width=".39"/><path d="m97.1,71.49c.14-1.58-.98-3.01-2-4.09-1.32-1.41-3.26-1.14-4.53.21-1.86,1.99-1,4.95-3.07,6.95-.63.61-1.06,1.74-.29,2.41.95.83,2.1.13,2.97-.47,1.24-.87,2.32-1.52,3.73-2.04,1.38-.51,3.04-1.31,3.19-2.97Z" fill="#fff" stroke="#1d1d1b" stroke-miterlimit="10" stroke-width=".39"/><path d="m95.59,68.98c.02-.12-.13-.19-.18-.06-.57,1.68-2.02,2.81-3.37,3.85-1.33,1.03-2.73,1.98-3.75,3.34-.06.08.06.21.14.13,2.24-2.6,6.45-3.46,7.16-7.26Z" fill="#fff" stroke="#1d1d1b" stroke-miterlimit="10" stroke-width=".39"/><path d="m89.38,62.74c.48,1.51,2.07,2.4,3.42,3.01,1.77.79,3.45-.21,4.1-1.95.95-2.55-.99-4.95.15-7.6.35-.81.31-2.01-.66-2.33-1.2-.4-1.99.69-2.55,1.58-.81,1.28-1.55,2.29-2.66,3.33-1.08,1-2.3,2.38-1.79,3.97Z" fill="#fff" stroke="#1d1d1b" stroke-miterlimit="10" stroke-width=".39"/><path d="m91.73,64.47c.03.12.19.12.18-.01-.12-1.77.78-3.37,1.62-4.86.83-1.46,1.75-2.88,2.17-4.53.03-.1-.14-.17-.18-.06-1.06,3.26-4.61,5.69-3.8,9.46Z" fill="#fff" stroke="#1d1d1b" stroke-miterlimit="10" stroke-width=".39"/><path d="m92.4,52.37c1.58.1,2.98-1.06,4.03-2.11,1.37-1.36,1.06-3.3-.33-4.53-2.03-1.81-4.97-.88-7.02-2.9-.63-.62-1.76-1.02-2.41-.23-.8.97-.08,2.11.54,2.96.9,1.22,1.57,2.28,2.13,3.69.54,1.37,1.38,3.01,3.04,3.12Z" fill="#fff" stroke="#1d1d1b" stroke-miterlimit="10" stroke-width=".39"/><path d="m94.86,50.8c.12.02.18-.14.06-.18-1.69-.53-2.85-1.95-3.93-3.28-1.06-1.3-2.05-2.68-3.42-3.67-.09-.06-.21.07-.12.14,2.65,2.18,3.62,6.37,7.42,6.98Z" fill="#fff" stroke="#1d1d1b" stroke-miterlimit="10" stroke-width=".39"/><path d="m111.75,78.26c-.37-.2-.77-.3-1.09-.14-.86.44-.12,1.73-.16,2.47-.1,2.15-1.84,3.87-1.88,6.04-.03,2.11,1.8,4.06,3.97,3.16.54-.22.93-.4,1.52-.48.48-.07.9-.12,1.32-.41.84-.58,1.14-1.55.93-2.53-.3-1.4-1.16-2.83-1.84-4.07-.59-1.07-1-2.27-1.78-3.22-.2-.25-.58-.59-1-.81Z" fill="#fff" stroke="#1d1d1b" stroke-miterlimit="10" stroke-width=".39"/><path d="m111.29,78.86c.92,1.46,1.52,3.15,1.89,4.84.17.81.33,1.62.4,2.44.07.82-.03,1.64.02,2.45,0,0,.02.02.02,0,.29-.75.3-1.67.31-2.46.02-.89-.05-1.77-.25-2.64-.41-1.74-1.24-3.26-2.32-4.68-.03-.04-.1,0-.07.04Z" fill="#fff" stroke="#1d1d1b" stroke-miterlimit="10" stroke-width=".39"/><path d="m100.02,51.22c.11.41.32.77.65.88.92.31,1.33-1.11,1.89-1.6,1.62-1.42,4.07-1.36,5.65-2.84,1.54-1.44,1.68-4.11-.48-5.05-.53-.23-.93-.39-1.4-.77-.38-.3-.71-.56-1.21-.66-1-.2-1.9.26-2.47,1.08-.8,1.19-1.23,2.79-1.65,4.15-.36,1.17-.94,2.29-1.09,3.52-.04.32-.02.83.11,1.28Z" fill="#fff" stroke="#1d1d1b" stroke-miterlimit="10" stroke-width=".39"/><path d="m100.77,51.13c.42-1.68,1.22-3.28,2.18-4.72.46-.68.94-1.36,1.48-1.98.54-.62,1.2-1.11,1.75-1.72,0,0,0-.02-.01-.02-.74.31-1.41.94-1.99,1.48-.66.61-1.24,1.26-1.73,2.02-.97,1.5-1.49,3.16-1.76,4.91,0,.05.07.08.08.02Z" fill="#fff" stroke="#1d1d1b" stroke-miterlimit="10" stroke-width=".39"/><path d="m113.8,72.09c1.14.15,1.84-.91,2.94-.77.92.12,1.66.18,2.28-.71.66-.96.52-2.32.16-3.37-.93-2.69-3.81-4.21-4.55-6.95-.13-.49-.55-.72-.93-.72-1.3,0-1.07.97-1.13,1.86-.1,1.54-.6,3.1-.76,4.65-.2,1.88-.76,5.65,2,6.01Z" fill="#fff" stroke="#1d1d1b" stroke-miterlimit="10" stroke-width=".39"/><path d="m115.51,70.58c.09.08.23-.03.15-.13-.85-1.27-1.28-2.89-1.64-4.37-.39-1.59-.4-3.22-.38-4.84,0-.07-.12-.09-.13-.01-.32,3.11-.56,7.06,1.99,9.35Z" fill="#fff" stroke="#1d1d1b" stroke-miterlimit="10" stroke-width=".39"/><path d="m85.4,59.87c1.14.15,1.84-.91,2.94-.77.92.12,1.66.18,2.28-.71.66-.96.52-2.32.16-3.37-.93-2.69-3.81-4.21-4.55-6.95-.13-.49-.55-.72-.93-.72-1.3,0-1.07.97-1.13,1.86-.1,1.54-.6,3.1-.76,4.65-.2,1.88-.76,5.65,2,6.01Z" fill="#fff" stroke="#1d1d1b" stroke-miterlimit="10" stroke-width=".39"/><path d="m87.12,58.35c.09.08.23-.03.15-.13-.85-1.27-1.28-2.89-1.64-4.37-.39-1.59-.4-3.22-.38-4.84,0-.07-.12-.09-.13-.01-.32,3.11-.56,7.06,1.99,9.35Z" fill="#fff" stroke="#1d1d1b" stroke-miterlimit="10" stroke-width=".39"/><path d="m100.55,67.2c1.13,1.11,2.95,1.15,4.43,1.05,1.93-.13,2.95-1.8,2.71-3.64-.36-2.7-3.2-3.91-3.44-6.78-.07-.88-.67-1.92-1.68-1.75-1.24.21-1.43,1.54-1.52,2.59-.12,1.51-.29,2.75-.79,4.18-.48,1.39-.91,3.18.28,4.35Z" fill="#fff" stroke="#1d1d1b" stroke-miterlimit="10" stroke-width=".39"/><path d="m103.44,67.62c.08.09.23.02.16-.1-.94-1.5-.9-3.34-.85-5.05.05-1.68.2-3.37-.2-5.02-.02-.1-.21-.09-.19.03.59,3.38-1.4,7.18,1.08,10.14Z" fill="#fff" stroke="#1d1d1b" stroke-miterlimit="10" stroke-width=".39"/><path d="m90.66,112.95c1.41-.73,2.02-2.45,2.38-3.88.48-1.87-.79-3.37-2.61-3.71-2.67-.5-4.72,1.81-7.52,1.14-.85-.2-2.04.04-2.19,1.05-.19,1.25,1.02,1.85,1.99,2.25,1.4.59,2.52,1.14,3.73,2.06,1.17.89,2.73,1.86,4.22,1.1Z" fill="#fff" stroke="#1d1d1b" stroke-miterlimit="10" stroke-width=".39"/><path d="m91.97,110.34c.11-.05.09-.21-.04-.18-1.72.42-3.45-.19-5.06-.78-1.58-.57-3.14-1.24-4.83-1.38-.1,0-.15.17-.03.19,3.4.49,6.38,3.58,9.97,2.15Z" fill="#fff" stroke="#1d1d1b" stroke-miterlimit="10" stroke-width=".39"/><path d="m99.75,81.83c1.42.69,3.16.15,4.53-.41,1.79-.74,2.23-2.65,1.42-4.32-1.19-2.45-4.26-2.7-5.39-5.35-.34-.81-1.24-1.61-2.14-1.13-1.11.6-.88,1.92-.62,2.94.36,1.47.59,2.71.57,4.22-.02,1.47.13,3.31,1.63,4.04Z" fill="#fff" stroke="#1d1d1b" stroke-miterlimit="10" stroke-width=".39"/><path d="m102.63,81.31c.1.06.22-.06.12-.14-1.36-1.13-1.9-2.89-2.39-4.53-.48-1.61-.87-3.26-1.77-4.7-.06-.09-.22-.02-.17.09,1.62,3.02.93,7.26,4.21,9.28Z" fill="#fff" stroke="#1d1d1b" stroke-miterlimit="10" stroke-width=".39"/><path d="m90.23,97.6c1.42.69,3.16.15,4.53-.41,1.79-.74,2.23-2.65,1.42-4.32-1.19-2.45-4.26-2.7-5.39-5.35-.34-.81-1.24-1.61-2.14-1.13-1.11.6-.88,1.92-.62,2.94.36,1.47.59,2.71.57,4.22-.02,1.47.13,3.31,1.63,4.04Z" fill="#fff" stroke="#1d1d1b" stroke-miterlimit="10" stroke-width=".39"/><path d="m93.11,97.09c.1.06.22-.06.12-.14-1.36-1.13-1.9-2.89-2.39-4.53-.48-1.61-.87-3.26-1.77-4.7-.06-.09-.22-.02-.17.09,1.62,3.02.93,7.26,4.21,9.28Z" fill="#fff" stroke="#1d1d1b" stroke-miterlimit="10" stroke-width=".39"/><path d="m76.09,72.01c-1.19-1.05-3.01-.98-4.48-.8-1.92.24-2.85,1.96-2.51,3.79.5,2.67,3.39,3.73,3.78,6.58.12.87.77,1.88,1.77,1.65,1.23-.28,1.35-1.62,1.38-2.67.04-1.52.15-2.77.57-4.22.41-1.41.75-3.23-.5-4.33Z" fill="#fff" stroke="#1d1d1b" stroke-miterlimit="10" stroke-width=".39"/><path d="m73.17,71.74c-.08-.09-.23,0-.15.11,1.02,1.45,1.07,3.29,1.11,5,.04,1.68-.02,3.37.46,5,.03.1.21.07.19-.04-.77-3.34,1.03-7.25-1.6-10.06Z" fill="#fff" stroke="#1d1d1b" stroke-miterlimit="10" stroke-width=".39"/><path d="m82.05,74.66c-1.54.34-2.56,1.86-3.28,3.15-.94,1.69-.09,3.46,1.58,4.26,2.45,1.17,5.01-.55,7.55.82.77.42,1.97.48,2.38-.46.5-1.16-.52-2.05-1.35-2.69-1.2-.92-2.15-1.75-3.08-2.94-.9-1.16-2.17-2.5-3.79-2.14Z" fill="#fff" stroke="#1d1d1b" stroke-miterlimit="10" stroke-width=".39"/><path d="m80.12,76.86c-.12.01-.14.18,0,.19,1.77.03,3.29,1.07,4.69,2.04,1.38.96,2.71,2,4.31,2.57.1.04.18-.13.08-.17-3.16-1.35-5.26-5.1-9.08-4.63Z" fill="#fff" stroke="#1d1d1b" stroke-miterlimit="10" stroke-width=".39"/><path d="m101.9,66.26c.85-1.34.5-3.13.09-4.55-.54-1.86-2.39-2.51-4.13-1.89-2.56.91-3.15,3.94-5.91,4.77-.84.25-1.74,1.06-1.36,2,.47,1.17,1.81,1.08,2.86.94,1.5-.2,2.76-.29,4.26-.1,1.46.18,3.3.23,4.19-1.18Z" fill="#fff" stroke="#1d1d1b" stroke-miterlimit="10" stroke-width=".39"/><path d="m101.7,63.34c.08-.1-.03-.23-.13-.13-1.27,1.23-3.08,1.57-4.76,1.88-1.65.3-3.34.51-4.87,1.24-.09.05-.04.22.07.18,3.18-1.28,7.32-.12,9.69-3.16Z" fill="#fff" stroke="#1d1d1b" stroke-miterlimit="10" stroke-width=".39"/><path d="m78.44,95.02c.85-1.34.5-3.13.09-4.55-.54-1.86-2.39-2.51-4.13-1.89-2.56.91-3.15,3.94-5.91,4.77-.84.25-1.74,1.06-1.36,2,.47,1.17,1.81,1.08,2.86.94,1.5-.2,2.76-.29,4.26-.1,1.46.18,3.3.23,4.19-1.18Z" fill="#fff" stroke="#1d1d1b" stroke-miterlimit="10" stroke-width=".39"/><path d="m78.25,92.1c.08-.1-.03-.23-.13-.13-1.27,1.23-3.08,1.57-4.76,1.88-1.65.3-3.34.51-4.87,1.24-.09.05-.04.22.07.18,3.18-1.28,7.32-.12,9.69-3.16Z" fill="#fff" stroke="#1d1d1b" stroke-miterlimit="10" stroke-width=".39"/><path d="m58.59,87.67c-.28-1.56-1.75-2.64-3.01-3.41-1.65-1.01-3.46-.23-4.32,1.41-1.27,2.4.35,5.03-1.12,7.51-.45.76-.56,1.95.36,2.39,1.14.54,2.07-.43,2.74-1.24.97-1.16,1.83-2.08,3.07-2.96,1.2-.86,2.59-2.07,2.29-3.7Z" fill="#fff" stroke="#1d1d1b" stroke-miterlimit="10" stroke-width=".39"/><path d="m56.47,85.66c-.01-.12-.18-.14-.19-.01-.1,1.77-1.2,3.24-2.23,4.6-1.01,1.34-2.11,2.63-2.74,4.21-.04.1.12.19.17.09,1.47-3.1,5.31-5.05,4.99-8.88Z" fill="#fff" stroke="#1d1d1b" stroke-miterlimit="10" stroke-width=".39"/></svg>