<?xml version="1.0" encoding="UTF-8"?>
<svg id="Layer_1" data-name="Layer 1" xmlns="http://www.w3.org/2000/svg" version="1.1" viewBox="0 0 144.6 144.6">
  <defs>
    <style>
      .cls-1 {
        fill: #1d1d1b;
        stroke-width: 0px;
      }

      .cls-2 {
        fill: none;
        stroke: #000;
        stroke-miterlimit: 10;
        stroke-width: .6px;
      }
    </style>
  </defs>
  <path class="cls-1" d="M48.9,51.5h.3c.3,0,.6,0,.8-.3.2-.2.3-.4.3-.7,0-.3-.1-.5-.3-.7-.2-.2-.4-.3-.7-.3-.2,0-.4,0-.6.2-.2.1-.3.3-.4.6h-1c0-.5.3-.9.6-1.3s.8-.5,1.2-.5c.6,0,1.1.2,1.5.6.3.4.5.8.5,1.4,0,.3,0,.5-.1.8-.1.2-.3.5-.6.7.3.2.5.4.6.7.1.3.2.5.2.8,0,.6-.2,1.2-.6,1.5-.4.4-.9.6-1.4.6-.5,0-.9-.1-1.2-.5-.3-.3-.6-.7-.7-1.3h1c0,.2.2.4.4.6.2.2.4.2.6.2s.5-.1.7-.3c.2-.2.3-.4.3-.8,0-.3-.1-.6-.3-.8-.2-.2-.4-.3-.7-.3h-.4v-.9h0Z"/>
  <path class="cls-1" d="M52,53.5l2.2-4.9h1.1l-2.3,4.9h1.7v-2h1v2h.5v.9h-.5v1h-1v-1h-2.8v-.9h0Z"/>
  <path class="cls-2" d="M51.1,41.7h26.5c13.2,0,24,10.8,24,24v26.5c0,5.2-4.2,9.4-9.4,9.4h-41.1c-5.2,0-9.4-4.2-9.4-9.4v-41.1c0-5.2,4.2-9.4,9.4-9.4h0Z"/>
  <path class="cls-1" d="M57.4,76.7c1.7,1.5,3.8,2.2,6.1,2.2,2.8,0,4.2-1.1,4.3-3.1,0-1.7-.9-2.7-2.8-3-.9-.1-1.8-.3-2.9-.4-1.9-.3-3.3-1-4.2-2.1-1-1.1-1.5-2.5-1.5-4.1s.6-3.5,1.9-4.7c1.2-1.2,2.9-1.8,5.2-1.8,2.7,0,5,.8,7,2.3l-1.8,2.8c-1.6-1.1-3.4-1.7-5.3-1.7-1,0-1.8.3-2.5.8-.7.5-1.1,1.3-1.1,2.4,0,.6.2,1.2.7,1.7.5.5,1.3.9,2.3,1.1.6.1,1.4.2,2.4.4,2,.3,3.5,1,4.5,2.2,1,1.2,1.4,2.6,1.4,4.2-.1,4.3-2.6,6.4-7.6,6.5-3.2,0-5.9-1-8.2-3l2.1-2.5h0Z"/>
  <path class="cls-1" d="M77.1,75.4c0,1.3.4,2.2,1.1,2.9.7.7,1.5,1,2.6,1s2.4-.5,3.4-1.5l2.2,2c-1.6,1.7-3.4,2.6-5.5,2.6-.8,0-1.6-.1-2.4-.4-.4-.1-.8-.3-1.1-.5-.4-.2-.7-.4-1.1-.7-.7-.6-1.2-1.4-1.6-2.5-.4-1-.7-2.3-.7-4s.2-2.9.6-3.9c.4-1.1.9-1.9,1.5-2.5.6-.6,1.3-1.1,2.1-1.3.8-.3,1.5-.4,2.2-.4,1.8,0,3.2.6,4.5,1.8,1.2,1.2,1.9,2.8,1.9,4.9v2.6h-9.6ZM83.6,72.7c0-1.2-.4-2.2-1-2.8-.6-.6-1.4-.9-2.3-.9s-1.7.3-2.3.9c-.6.6-.9,1.6-1,2.8h6.5Z"/>
  <path class="cls-1" d="M65.9,92.7h1.8v.5l-1.1,2.8h-.5l1.1-2.8h-.8v.5h-.4v-.9h0Z"/>
  <path class="cls-1" d="M68,95c0-.3.1-.6.4-.7,0,0-.2-.2-.2-.3,0-.1,0-.2,0-.4,0-.3,0-.5.3-.7.2-.2.4-.3.6-.3s.5,0,.6.3.3.4.3.7,0,.3,0,.4c0,.1-.1.2-.2.3.3.2.4.4.4.7s0,.5-.3.7c-.2.2-.4.3-.7.3s-.5,0-.7-.3c-.2-.2-.3-.4-.3-.7h0ZM68.4,95c0,.1,0,.3.2.4,0,.1.2.1.4.1s.3,0,.4-.1c0,0,.1-.2.1-.4s0-.3-.1-.4c0,0-.2-.1-.4-.1s-.3,0-.4.1c-.1,0-.2.2-.2.4ZM68.5,93.6c0,.1,0,.3.1.3,0,0,.2.1.3.1s.2,0,.3-.1c0,0,.1-.2.1-.3,0-.2,0-.3-.1-.3,0,0-.2-.1-.3-.1s-.2,0-.3.1c0,0-.1.2-.1.3Z"/>
  <path class="cls-1" d="M70.3,95.5h.4v.5h-.4v-.5Z"/>
  <path class="cls-1" d="M71.6,96s0,0,0,0,0-.1.1-.2,0-.2.1-.3c0-.1.1-.2.2-.3,0-.1.1-.2.1-.3s0-.1.1-.2c0,0,0,0-.1,0,0,0-.1,0-.2,0,0,0-.2,0-.3,0,0,0-.1,0-.2-.1,0,0,0-.1-.1-.2s0-.1,0-.2c0,0,0-.1,0-.2,0,0,0,0,0-.1h0v-.2h0c0,0,0-.1,0-.2s0,0,0-.1,0-.1,0-.2c0,0,0-.1.2-.2s.1-.1.2-.2.2,0,.3,0,.3,0,.4,0,.2,0,.3.1.1.1.2.2,0,.1.1.2c0,0,0,.1,0,.2,0,0,0,.1,0,.2,0,0,0,.1,0,.2,0,0,0,.1,0,.2,0,0,0,.1,0,.1s0,.1,0,.2c0,0,0,0,0,.1s0,.1,0,.2c0,0,0,.2-.1.3,0,0,0,.2-.1.3-.1.2-.2.5-.4.8h-.5,0ZM71.7,93.6c0,0,0,.1,0,.2s0,.1,0,.2c0,0,0,.1.1.2,0,0,.1,0,.3,0,0,0,.1,0,.2,0s0,0,.1,0c0,0,0,0,0,0,0,0,0,0,0-.1s0,0,0,0c0,0,0,0,0,0h0c0-.2,0-.2,0-.3,0,0,0,0,0-.1,0,0,0,0,0-.1s0,0-.1,0c0,0-.1,0-.2,0,0,0-.2,0-.2,0s-.1,0-.1.1c0,0,0,0,0,.1,0,0,0,0,0,0h0Z"/>
  <path class="cls-1" d="M73.5,92.7h1.8v.5l-1.1,2.8h-.5l1.1-2.8h-.8v.5h-.4v-.9h0Z"/>
  <path class="cls-1" d="M76.3,93.2l-.4.3v-.5l.4-.3h.4v3.2h-.4v-2.7h0Z"/>
  <path class="cls-1" d="M59.3,89.6c.4.3.8.5,1.3.5.6,0,.9-.2.9-.6,0-.3-.2-.5-.6-.6-.2,0-.4,0-.6,0-.4,0-.7-.2-.9-.4-.2-.2-.3-.5-.3-.9s.1-.7.4-1c.3-.2.6-.4,1.1-.4.6,0,1,.2,1.4.5l-.4.6c-.3-.2-.7-.3-1.1-.4-.2,0-.4,0-.5.2-.1.1-.2.3-.2.5s0,.3.1.4.3.2.5.2c.1,0,.3,0,.5,0,.4,0,.7.2.9.5.2.2.3.5.3.9,0,.9-.5,1.3-1.6,1.3-.7,0-1.2-.2-1.7-.6l.4-.5h0Z"/>
  <path class="cls-1" d="M63.4,89.4c0,.3,0,.5.2.6.1.1.3.2.5.2s.5-.1.7-.3l.5.4c-.3.4-.7.5-1.1.5-.2,0-.3,0-.5,0,0,0-.2,0-.2-.1s-.2,0-.2-.1c-.1-.1-.2-.3-.3-.5,0-.2-.1-.5-.1-.8s0-.6.1-.8.2-.4.3-.5.3-.2.4-.3.3,0,.5,0c.4,0,.7.1.9.4s.4.6.4,1v.5h-2ZM64.7,88.8c0-.3,0-.5-.2-.6-.1-.1-.3-.2-.5-.2s-.3,0-.5.2c-.1.1-.2.3-.2.6h1.3Z"/>
  <path class="cls-1" d="M66.1,86.2h.6v3.8c0,.2,0,.2.2.2h.2v.6h-.3c-.2,0-.4,0-.6-.2-.2-.1-.2-.3-.2-.6v-3.8Z"/>
  <path class="cls-1" d="M68.2,89.4c0,.3,0,.5.2.6.1.1.3.2.5.2s.5-.1.7-.3l.5.4c-.3.4-.7.5-1.1.5-.2,0-.3,0-.5,0,0,0-.2,0-.2-.1s-.2,0-.2-.1c-.1-.1-.2-.3-.3-.5,0-.2-.1-.5-.1-.8s0-.6.1-.8.2-.4.3-.5.3-.2.4-.3.3,0,.5,0c.4,0,.7.1.9.4s.4.6.4,1v.5h-2ZM69.6,88.8c0-.3,0-.5-.2-.6-.1-.1-.3-.2-.5-.2s-.3,0-.5.2c-.1.1-.2.3-.2.6h1.3Z"/>
  <path class="cls-1" d="M71,87.5h.6v.3h0c.2-.3.5-.4.8-.4s.5,0,.7.3.3.5.3.9v2.2h-.6v-2c0-.2,0-.4-.2-.5-.1-.1-.3-.2-.4-.2s-.3,0-.4.2c-.1.1-.2.3-.2.5v2h-.6s0-3.3,0-3.3Z"/>
  <path class="cls-1" d="M74.5,86.2h.6v.7h-.6v-.7ZM74.5,87.5h.6v3.3h-.6v-3.3Z"/>
  <path class="cls-1" d="M76,87.5h.6v1.9c0,.2,0,.4.2.5.1.1.3.2.5.2s.3,0,.5-.2.2-.3.2-.5v-1.9h.6v3.3h-.6v-.3h0c-.2.3-.5.4-.8.4s-.5-.1-.7-.3c-.2-.2-.3-.5-.3-.8v-2.2Z"/>
  <path class="cls-1" d="M79.5,87.5h.6v.3h0c.2-.3.5-.4.9-.4s.4,0,.5.1c.1,0,.3.2.4.3.3-.3.6-.4,1-.4.3,0,.5,0,.7.3.2.2.3.5.3.9v2.2h-.6v-2c0-.2,0-.4-.2-.5s-.3-.2-.5-.2-.3,0-.5.2c-.1.1-.2.3-.2.5v2h-.6v-2c0-.2,0-.4-.2-.5-.1-.1-.3-.2-.5-.2s-.3,0-.5.2c-.1.1-.2.3-.2.5v2h-.6v-3.3h0Z"/>
</svg>