<?xml version="1.0" encoding="UTF-8"?><svg id="Layer_1" xmlns="http://www.w3.org/2000/svg" viewBox="0 0 144.57 144.57"><path d="M71.99,42.51c.22-.16.43-.37.67-.46.11-.04.36.11.44.24.12.2-.06.35-.25.39-.26.05-.52.04-.78.06l-.08-.22Z" fill="#000" stroke-width="0"/><path d="M66.92,48.45c.14-.23.24-.45.39-.62.08-.09.27-.19.36-.15.11.04.21.21.23.33.02.09-.07.24-.16.31-.21.19-.45.32-.83.13Z" fill="#000" stroke-width="0"/><path d="M67.72,36.66c.04.06.17.21.14.24-.14.17-.31.32-.48.47-.06-.09-.18-.19-.18-.28,0-.25.16-.42.51-.44Z" fill="#000" stroke-width="0"/><path d="M70.79,51.57c-.1.11-.18.29-.31.33-.23.07-.48.08-.72.07-.05,0-.15-.31-.1-.37.19-.24.42-.45.66-.64.03-.03.23.1.3.19.08.1.1.24.17.42Z" fill="#000" stroke-width="0"/><path d="M19.21,122.45c.63-.08,1.27-.15,1.9-.26.57-.09,1.13-.19,1.68-.35.21-.06.41-.26.55-.45,1.24-1.7,1.47-3.78,2.1-5.71.75-2.3,1.41-4.63,2.26-6.88,1.13-2.99,2.4-5.93,3.61-8.89.79-1.94,1.58-3.88,2.35-5.84.16-.4.27-.84.27-1.26.03-1.84.46-3.6.96-5.35.51-1.77,1.05-3.53,1.6-5.29.2-.64.55-1.19,1.08-1.62.26-.22.54-.33.88-.13.37.22.34.52.23.87-.66,2-1.34,4-1.96,6.02-.32,1.02-.54,2.08-.79,3.12-.05.2-.06.42-.03.63.03.16.15.3.22.46.11-.09.27-.16.34-.27.53-.87,1.03-1.76,1.56-2.64.49-.82.99-1.63,1.49-2.43,2.21-3.52,4.66-6.87,7.37-10.02.63-.73,1.28-1.45,1.92-2.18.1-.12.18-.26.34-.49-.75.05-1.39.03-2,.13-1.56.26-2.99-.13-4.39-.78-.55-.26-1.15-.39-1.73-.6-.11-.04-.25-.13-.27-.22-.02-.09.08-.23.17-.31.83-.8,1.8-1.29,2.97-1.4,1.6-.15,3.19-.17,4.75.31.16.05.35.12.41-.18.22-1.19.46-2.38.68-3.57.51-2.76,1.36-5.42,2.31-8.05.89-2.45,1.98-4.81,3.67-6.84.23-.28.48-.55.7-.84.46-.64.68-1.36.82-2.13.07-.39.27-.8.51-1.11.64-.84,1.52-1.29,2.57-1.41.08,0,.21.04.24.11.04.06.02.2-.03.26-.71.91-1.28,1.95-2.29,2.59-.19.12-.3.36-.45.54.03.03.06.06.08.09.13-.05.27-.12.4-.16.61-.19,1.21-.44,1.83-.54.43-.07.62-.26.76-.64.83-2.4,1.74-4.76,2.95-6.99.69-1.26,1.45-2.5,2.27-3.68.5-.71,1.12-1.34,2.01-1.66.55-.2.86-.74,1.12-1.26.14-.29.29-.58.47-.84.41-.61,1.08-.86,1.79-.64.38.12.77.26,1.12.46.33.19.32.42-.03.57-.83.36-1.68.67-2.52,1-.18.07-.36.17-.54.25.02.06.03.12.05.17.21,0,.43,0,.64,0,1.36.05,2.36.74,3.03,1.86.49.81.85,1.7,1.3,2.53.09.16.34.31.52.32.83.04,1.61.22,2.34.6,1.41.74,2.36,1.9,2.69,3.42.3,1.38.12,2.77-.7,3.99-.2.3-.37.62-.61.87-.16.17-.41.27-.63.38-.19.09-.4.15-.61.22.24.44.46.83.7,1.26.32-.35.57-.72.67-1.18.02-.1.07-.27.13-.27.43-.06.6-.43.86-.69.71-.7,1.42-1.4,2.41-1.69.28-.08.29-.21.1-.41-1.17-1.3-1.27-2.8-.81-4.4.12-.4.4-.36.7-.29.8.19,1.45.64,2.04,1.19.67.62,1.2,1.33,1.42,2.24.03.12.14.22.21.33.11-.08.24-.14.33-.24.19-.24.35-.51.55-.74.13-.15.3-.3.47-.34.07-.02.24.23.32.37.36.64.7,1.29,1.06,1.98.15-.34.25-.66.42-.92.27-.42.37-.42.79-.13.74-.43,3.67-3.72,4.24-4.8-.17-.03-.33-.08-.49-.07-1.3.1-2.4-.44-3.47-1.08-.43-.26-.86-.52-1.29-.79-1.32-.84-2.6-1.73-3.49-3.04-.27-.4-.36-.92-.48-1.4-.02-.1.23-.39.31-.37.66.15,1.24-.16,1.86-.23.39-.04.78-.06,1.17-.06.29,0,.55.09.76-.26.14-.23.25,0,.33.16.09.21.18.45.34.61.25.26.6.16.79-.15.07-.11.25-.2.38-.21,1.01-.05,1.99.23,2.89.62,1.42.61,2.78,1.36,4.15,2.09.59.31.85.29,1.3-.21.78-.86,1.65-1.6,2.77-1.99.16-.06.29-.22.43-.33-.14-.15-.26-.34-.44-.45-.26-.15-.56-.24-.84-.37-.04-.02-.06-.09-.05-.25.26.06.51.12.77.18l.08-.07c-.17-.19-.31-.42-.51-.57-.31-.24-.68-.4-.98-.64-.14-.11-.21-.32-.31-.49.18.04.38.06.55.14.2.1.38.25.61.41-.18-1.33-.99-2.4-1.79-2.44-.22.64.03,1.14.59,1.6-.25.05-.35.07-.49.1.02.13,0,.28.06.37.54.76.87,1.72,1.87,2.05.07.02.14.04.19.09.09.09.17.19.25.29-.13.04-.29.15-.39.12-.4-.15-.84-.27-1.17-.53-1.39-1.1-1.62-2.59-1.35-4.24.03-.15.01-.34-.07-.47-.51-.84-1.04-1.65-1.55-2.49-.06-.09-.09-.24-.05-.34.02-.06.21-.13.28-.1.61.33,1.24.1,1.85.04.65-.07,1.24.04,1.84.29,1.46.63,2.8,1.41,3.78,2.71.51.69.85,1.44.95,2.29.06.53.15.58.66.48.59-.12,1.08-.33,1.15-1,.03-.31.05-.67-.09-.92-.59-1.06-.46-2.12-.13-3.19.16-.52.37-1.04.67-1.48.4-.58.15-1.06-.15-1.49-.25-.36-.12-.5.18-.62.37-.15.77-.26,1.14-.41.35-.14.7-.29,1.02-.47.87-.47,1.18-.41,1.59.48.17.37.43.59.72.83.62.53,1.23,1.06,1.8,1.65.25.26.37.65.53.98.12.24.21.49.32.74.05-.01.09-.02.14-.04-.04-.35-.06-.7-.12-1.05-.27-1.4.13-2.63.96-3.75.32-.43.67-.83,1.02-1.23.33-.37.55-.36.77.07.82,1.65,1.14,3.33.25,5.07-.05.09-.08.2-.15.34.49-.29.91-.59,1.36-.81,1.92-.9,3.82-1.01,5.65.23.23.15.27.28.13.54-.95,1.85-2.53,2.44-4.49,2.32-.15,0-.3.03-.57.07.17.13.24.21.32.24,1.67.65,2.47,1.97,2.83,3.64.05.22.11.43.16.65.08.38-.07.55-.44.44-1.05-.3-2.09-.62-3.13-.94-1.52-.48-2.68-1.5-3.77-2.59-.26-.26-.42-.65-.56-1-.1-.25-.19-.31-.42-.17-.15.09-.32.19-.49.2-1.1.08-2.05.62-3.07.96-.07.02-.11.1-.24.22.34.04.6.09.85.09,1.63-.04,2.91.76,4.18,1.65.77.54,1.18,1.25,1.42,2.15.2.75-.29,1.47-1.18,1.35-1.32-.18-2.51-.64-3.54-1.5-.95-.8-1.72-1.72-2.18-2.88-.2-.51-.31-.52-.77-.2-.55.39-1.1.77-1.83.74-.13,0-.33.13-.39.26-.14.28-.35.33-.63.39-.65.14-1.3.26-1.86.69-.42.33-.91.58-1.35.96.34-.05.69-.08,1.03-.14.79-.13,1.54,0,2.25.32.67.31,1.33.66,1.98,1.01.97.51,1.52,1.4,1.92,2.36.28.65.39,1.37.57,2.06.08.3-.02.46-.36.43-1.04-.08-2.06-.23-2.95-.83-1.26-.86-2.55-1.68-3.76-2.61-.6-.46-1.06-1.1-1.55-1.69-.18-.21-.31-.27-.52-.11-1.17.86-2.35,1.72-3.5,2.61-1.45,1.12-2.91,2.23-4.31,3.42-.76.65-1.42,1.42-2.09,2.17-.56.62-1.06,1.3-1.63,1.93-.26.28-.59.49-.84.69.52.49,1.09.91,1.51,1.44.78,1,1.47,2.06,1.41,3.42,0,.08.02.18-.01.25-.05.12-.13.23-.2.34-.1-.1-.23-.19-.28-.31-.07-.16-.08-.35-.1-.53-.19-1.79-1.22-3.05-2.57-4.1-.05-.04-.12-.06-.23-.05.95,1.22,1.6,2.57,2.1,4.09-.22-.03-.33-.05-.46-.07-.03.04-.08.08-.08.13-.04.36-.09.72-.1,1.09-.01.55.35.85.88.65.77-.28,1.54-.59,2.28-.95.66-.32,1.29-.66,2.06-.59.09,0,.29-.13.28-.15-.07-.2-.13-.52-.26-.56-1.47-.45-2.14-1.64-2.75-2.88-.41-.83-.65-1.72-.72-2.66-.05-.71.18-1.33.6-1.87.08-.11.38-.18.49-.11,1.63.99,2.9,2.28,3.4,4.19.26,1.01.22,2.02-.07,3.02-.03.11-.04.22-.05.33-.03.31.09.43.42.38,1.44-.23,2.87-.45,4.31-.66.43-.06.86-.09,1.32-.22-.17-.08-.34-.18-.52-.24-.84-.26-1.61-.66-2.26-1.25-.44-.4-.86-.85-1.19-1.35-.42-.66-.33-1,.26-1.41.73-.51,1.49-.5,2.33-.34,1.9.35,3.43,1.31,4.69,2.75.14.16.3.3.45.45.02.02.05.03.15,0-.14-.25-.28-.5-.43-.74-.12-.19-.27-.36-.42-.52-1.28-1.44-1.88-3.15-2.04-5.04-.06-.73.14-1.41.43-2.07.13-.31.39-.32.64-.22,1.18.49,2.03,1.33,2.51,2.51.11.28.2.45.55.41,1.71-.21,3.91,1.02,4.66,2.57.17.35.33.7.58,1.05-.24-1.7.14-3.28.92-4.75.8-1.52,2.3-2.35,3.57-3.59.21.45.51.82.54,1.21.11,1.44-.02,2.86-.86,4.11-.42.62-.82,1.25-1.23,1.89.36-.16.73-.36,1.12-.48.92-.28,1.84-.59,2.78-.75.51-.09,1.07.08,1.61.15.23.03.4.18.32.44-.1.34-.14.74-.35.99-1.22,1.47-2.79,2.35-4.67,2.65-.07.01-.14.06-.3.13.19.11.3.2.43.26,2.18,1.03,3.56,2.7,4.1,5.06.01.05.03.11.04.16.12.72-.04.86-.75.74-.4-.07-.81-.1-1.21-.1-1.21,0-2.17-.62-3.06-1.33-1.33-1.06-2.1-2.45-2.3-4.15-.03-.29-.19-.56-.29-.83l-.16.03c0,.16-.01.32,0,.48.09.96.23,1.91.27,2.87.01.34-.2.68-.3,1.03-.04.13-.08.33-.02.41.83,1,1.68,2,2.54,2.97.23.26.53.45.79.69.09.09.23.21.22.31,0,.1-.16.21-.27.26-.93.39-1.85.17-2.74-.12-.98-.32-1.95-.69-2.74-1.41-.06-.05-.17-.13-.22-.11-.54.22-1.19.1-1.65.58-.14.15-.46.37-.53.32-.27-.18-.08-.44.04-.66.04-.07.08-.15.09-.23.06-.75.13-1.51.17-2.26,0-.14-.09-.33-.2-.41-.46-.34-.72-.8-.89-1.34-.13-.44-.31-.87-.51-1.28-.05-.09-.29-.2-.38-.16-1.39.62-2.9.59-4.35.85-1.28.23-2.58.35-3.87.52-.44.06-.57.39-.3.75.04.05.1.1.15.15,1.31,1.05,1.48,2.49,1.33,4.02-.05.51-.16,1.02-.28,1.52-.09.35-.18.73-.39,1-.36.46-.41.94-.36,1.49.04.46,0,.93-.06,1.4,0,.07-.27.2-.37.16-.73-.22-1.39-.53-2.01-1.06-1.48-1.28-2.43-2.89-3.12-4.66-.3-.77-.34-1.63-.5-2.45-.02-.11-.08-.22-.11-.33-.09.09-.22.16-.28.27-.25.5-.33.53-.75.17-.28-.24-.56-.4-.95-.32-.56.11-1.13.2-1.69.32-.13.03-.24.09-.46.18,1.61,1.1,2.57,2.57,2.77,4.38.19,1.76,0,3.51-1.3,4.87.02.21.11.54.05.57-.34.18-.71.36-1.08.38-.43.02-.85-.08-1.26.16-.09.05-.27-.08-.41-.09-.14,0-.33-.01-.41.07-.29.28-.6.29-.88,0-.2-.21-.4-.44-.65-.58-.95-.55-1.45-1.43-1.83-2.39-.68-1.71-.46-3.46.04-5.15.23-.78.78-1.45,1.5-1.92.48-.31.62-.9.33-1.42-.08.2-.15.37-.24.58-.43-.29-.79-.58-.98-1.02.03-.04.06-.07.09-.11.25.17.5.34.76.52.04-.07.08-.1.08-.13,0-.32-1.06-.98-1.33-.79-.07.05-.09.26-.04.35.17.31.37.59.57.88.15.23.31.46.46.7.17.27.04.4-.22.48-.26-.39-.53-.76-.77-1.14-.13-.21-.28-.29-.45-.08-.41.49-.8.99-1.19,1.49l.09.13c.12-.02.25-.02.36-.06.33-.12.65-.27.97-.4.22-.09.48-.16.54.14.02.09-.23.32-.39.37-.52.16-1.06.26-1.59.39-.1.03-.2.07-.29.18.63.21,1.23-.33,1.97-.12-.2.15-.31.27-.45.32-.55.2-1.1.39-1.67.54-.86.23-1.27.86-1.51,1.64-.04.12.04.29.11.41.63.99.89,2.06.66,3.21-.13.64-.35,1.26-.55,1.94.27-.04.56-.07.85-.12,1.5-.24,2.79.25,3.95,1.15,1.22.96,2.42,1.95,3.62,2.93.1.08.22.17.25.27.03.13.02.31-.06.41-.03.05-.27.03-.37-.03-.29-.19-.55-.42-.84-.65-.09.6.4,1.42.92,1.49,1.32.19,2,1.22,2.79,2.08.2.21.23.57.39.82.08.13.28.28.42.27.78-.02,1.57-.08,2.35-.14.11,0,.24-.02.32-.08.78-.55,1.64-.58,2.53-.43.07.01.14.01.21.02.03,0,.05-.02.11-.04-.03-.07-.04-.15-.09-.21-.58-.76-.7-1.6-.41-2.5.32-1,.61-2,1-2.97.39-.99,1.26-1.55,2.1-2.12.27-.18.49-.06.61.33.4,1.36.62,2.72.22,4.13-.23.81-.56,1.55-1.11,2.19-.33.39-.71.71-1.22.85-.16.05-.3.18-.42.35,2.65-.23,5.3.04,7.92-.35,0-.05,0-.1,0-.16-.29-.06-.57-.13-.86-.19-1.4-.27-2.41-1.1-3.13-2.28-.4-.67-.36-1.46-.28-2.21.01-.13.22-.28.37-.34.83-.33,1.59-.03,2.33.33.16.08.31.16.57.3-.04-.38-.1-.66-.09-.94,0-.34.03-.69.13-1.02.2-.65.45-1.28.69-1.92.03-.09.09-.17.16-.29.18.12.34.22.5.34,1.11.83,1.79,1.92,2.05,3.3.15.76.35,1.49.28,2.28-.08.93-.43,1.75-.84,2.57.24.22.24.2.43-.04.1-.14.29-.29.44-.29.6,0,1.2.04,1.8.08.55.03.62.54.76.89.42,1.04.71,2.12.63,3.26-.02.28.02.6.14.85.51,1.16.33,2.3-.01,3.44-.1.33-.41.48-.74.32-.39-.18-.77-.4-1.11-.66-.25-.2-.42-.28-.68-.06-.71.57-1.59.65-2.44.79-.27.05-.32-.12-.33-.35,0-.47-.04-.94-.06-1.41-.06-1.13.17-2.17.9-3.06.21-.25.29-.49.17-.8-.28-.72-.23-1.42.13-2.11.05-.09.04-.21.07-.36-.15,0-.27-.03-.36,0-2.8.88-5.71.77-8.67.91.13.24.22.42.32.58.4.66.63,1.38.59,2.15-.03.73-.07,1.45-.16,2.17-.15,1.27-.82,2.25-1.84,2.98-.31.22-.39.46-.33.81.14.86-.39,1.43-.97,1.93-.22.2-.54.07-.73-.18-.09-.11-.13-.26-.22-.35-1.3-1.18-1.75-2.75-2.06-4.4-.24-1.26-.12-2.48.43-3.64.15-.31.39-.57.6-.85.08-.11.2-.21.26-.33.13-.26-.06-.53-.35-.47-.53.11-1.04.27-1.57.38-.18.04-.39,0-.58,0-.15,0-.29-.03-.47-.04.03.33.03.61.09.88.23,1.04.07,2.06-.18,3.07-.18.72-.5,1.36-1.16,1.79-.13.09-.2.3-.25.47-.06.23-.14.34-.37.21-.34-.18-.63-.2-.84.2-.14.26-.34.22-.51.03-.27-.31-.54-.29-.84-.04-.06.05-.18.13-.21.11-.4-.3-.76-.07-1.13.13-.19-.33.1-.91-.61-.9.07.33.1.66.2.97.14.41.1.79-.05,1.18-.18.45-.33.92-.53,1.36-.05.11-.25.15-.38.23-.03-.15-.11-.31-.07-.44.12-.49.25-.97.44-1.44.27-.7,0-1.35-.12-2.01-.02-.11-.11-.23-.2-.31-.72-.64-1.04-1.5-1.34-2.38-.09-.28-.09-.6-.13-.92-.28-.02-.4.06-.44.34-.03.25-.1.55-.27.72-.37.36-.35.75-.26,1.27.2-.19.37-.35.54-.5.03.02.07.04.1.06-.03.12,0,.29-.08.36-.67.65-.67,1.54-.84,2.37-.2.95-.77,1.69-1.43,2.37-.09.09-.26.1-.37.18-.14.1-.32.21-.38.36-.11.26-.25.33-.52.29-.69-.11-1.38-.21-2.07-.29-.08-.01-.23.04-.25.09-.03.1-.03.27.03.34.66.73.67,1.7.94,2.57.09.28.15.57.29.82.19.33.04.47-.25.54-.83.2-1.62.06-2.37-.3-1.51-.74-2.47-1.98-3.06-3.53-.24-.63-.47-1.25-.39-1.95.05-.46-.46-.8-.91-.6-.6.27-1.16.62-1.72.94-.05.03-.04.16-.06.24.12.01.27.08.34.02.2-.15.33-.16.5.04.62.72,1.31,1.39,1.88,2.15,1.04,1.39,2.11,2.77,3,4.26.44.74.97,1.22,1.69,1.59.15.08.31.16.41.29.09.12.2.39.14.44-.11.11-.33.19-.49.17-.21-.02-.41-.16-.62-.25-.16.65.31,1.4.93,1.47,2.18.24,3.22,1.76,3.92,3.58.42,1.09.59,2.25.48,3.43-.1,1.07-.48,1.98-1.46,2.55-.14.08-.24.3-.26.47-.05.31-.18.38-.46.28-.14-.06-.28-.12-.43-.17-.25-.09-.44-.05-.6.22-.28.49-.3.48-.69.06-.03-.03-.07-.04-.11-.06-.14.19-.28.37-.42.55-.15-.17-.29-.35-.46-.51-.08-.07-.2-.1-.31-.11-.96-.13-1.57-.71-2.05-1.5-1.49-2.42-1.12-4.8.16-7.15.2-.36.59-.62.94-.88.33-.25.47-.51.35-.93-.11-.41-.15-.84-.23-1.3-.12.06-.18.09-.23.12-.14.07-.28.15-.41.23-.08-.17-.17-.34-.22-.52-.17-.63-.24-1.3-.52-1.88-.4-.85-.92-1.66-1.44-2.45-.45-.69-.97-1.34-1.46-2-.09-.12-.19-.24-.39-.34,0,.15-.01.3,0,.45.16,1.62-.21,3.15-.93,4.59-.19.38-.51.69-.81,1-.38.39-.79.75-1.2,1.1-.1.09-.26.09-.4.14-.03-.13-.05-.25-.08-.38-.03-.16,0-.35-.08-.48-1-1.51-.83-3.1-.4-4.73.25-.96.77-1.76,1.43-2.48.17-.18.31-.38.47-.57-.02-.03-.05-.07-.07-.1-.11.05-.23.1-.34.16-.64.35-1.28.69-1.9,1.06-.14.09-.29.24-.34.39-.32.94-.65,1.87-.9,2.83-.83,3.17-1.63,6.36-2.43,9.54-.32,1.26-.58,2.53-.9,3.79-.72,2.86-1.41,5.72-2.19,8.56-.49,1.79-.87,3.58-.97,5.44-.01.23-.09.47-.13.7-.06.31.07.51.4.48.61-.07,1.22-.21,1.83-.25,2.41-.15,4.81-.29,7.22-.41,1.54-.07,3.08-.03,4.61.27.35.07.73-.05,1.09-.03,1.9.09,3.81.22,5.71.3.58.02,1.17-.01,1.75-.11.83-.15,1.12-.04,1.45.73.15.35.29.7.45,1.04.13.27.04.42-.24.42-.43-.01-.86-.09-1.29-.1-.98-.01-1.97,0-2.95,0-1.23,0-2.46.03-3.69-.02-1.1-.04-2.2-.25-3.3-.26-2.19-.01-4.38.06-6.56.12-.45.01-.9.12-1.35.18,0,.04-.02.09-.03.13.17.06.33.14.5.17,2.18.36,4.35.81,6.55,1.03,1.75.17,3.53.05,5.3.07.28,0,.55.05.83.08.7.08.87.62,1.01,1.17.07.27-.12.33-.35.34-.6.03-1.2.07-1.81.08-1.81.05-3.62.19-5.42.12-1.79-.06-3.57-.29-5.31-.72-.91-.23-1.82-.43-2.74-.61-.12-.02-.29.07-.39.16-.27.28-.51.6-.77.89-.53.57-.36.93.35,1.28.51.25,1.1.32,1.63.52,1.07.4,2.13.82,3.18,1.27.48.2.95.46,1.4.74.14.09.19.32.28.49-.16.04-.31.1-.47.13-.19.03-.4-.03-.58.04-.76.27-1.42.03-1.99-.45-.64-.54-1.38-.71-2.17-.79-.22-.02-.46-.03-.65-.13-.84-.41-1.69-.81-2.49-1.29-.69-.41-.77-.88-.3-1.55.35-.5.76-.97,1.15-1.45.09-.11.16-.24.25-.38-.34-.2-.56-.07-.73.15-.21.25-.38.52-.57.78-.58.76-1.18,1.49-1.73,2.27-.32.45-.55.96-.83,1.44-.15.24-.29.51-.5.69-.68.59-1.45.99-2.37,1.07-.16.01-.34.08-.45.19-.48.43-.98.84-1.41,1.32-.4.45-.87.75-1.43.8-.72.06-1.26.44-1.81.82-.48.33-.93.71-1.39,1.07h-.25c-.14-.19-.17-.32.05-.52.57-.53,1.09-1.11,1.65-1.66.22-.22.45-.46.72-.59.72-.33,1.42-.68,1.92-1.31.72-.9,1.6-1.49,2.76-1.67.6-.09,1.02-.48,1.3-1.03.25-.5.53-.99.87-1.43.67-.88,1.39-1.72,2.08-2.58.07-.09.14-.18.18-.25-1.25.3-2.5.59-3.75.89-1.24.3-2.49.62-3.73.93,0,.04,0,.08,0,.12.49.08.98.16,1.47.23.61.08,1.22.13,1.83.24.13.02.22.2.34.31-.13.09-.24.22-.38.25-.46.09-.94.16-1.41.21-.44.05-.89.1-1.33.12-1.1.05-2.14-.25-3.16-.6-1.57-.55-3.18-.56-4.77-.35-1.68.23-3.34.69-5.02.93-1.44.2-2.85.79-4.35.53-.07-.01-.14,0-.21.02-.69.17-1.37.39-2.07.51-.82.14-1.66.19-2.49.27-1.31.14-2.61.26-3.92.43-.74.1-1.48.26-2.22.41-.91.19-1.82.4-2.73.59-.57.12-1.14.24-1.72.35-.12.02-.28.06-.35,0-.35-.29-.69-.59-1-.93-.27-.29-.49-.63-.74-.94,0-.08,0-.17,0-.25ZM69.46,76.87s-.07-.08-.11-.12c-.35.13-.69.27-1.05.37-1.32.36-2.65.46-4.03.3-1.14-.13-1.95-.67-2.66-1.48-.06-.07-.18-.15-.25-.14-.62.13-1.16-.09-1.69-.35-.16-.08-.34-.12-.54-.19.13.39.3.7.32,1.02.09,1.48-.65,2.62-1.54,3.7-.17.2-.28.06-.4-.08-.42-.5-.81-1.04-1.28-1.49-1.07-1.04-1.58-2.32-1.54-3.77.03-1.21.22-2.43.32-3.64.01-.13-.04-.34-.12-.37-.13-.05-.35-.04-.45.05-.95.87-1.95,1.7-2.82,2.64-1.56,1.7-3.06,3.47-4.56,5.23-1.77,2.07-3.35,4.28-4.8,6.58-.27.44-.5.91-.77,1.35-.83,1.36-1.64,2.73-2.5,4.07-.67,1.05-1.35,2.11-2.14,3.05-.53.62-.94,1.27-1.25,2.01-.83,1.97-1.7,3.92-2.49,5.9-.5,1.25-.9,2.55-1.36,3.82-.98,2.69-1.97,5.37-2.95,8.06-.39,1.08-.79,2.15-1.13,3.24-.18.55-.25,1.14-.37,1.71-.09.42-.16.84-.27,1.25-.07.25.04,1.11.22,1.26.06.04.15.06.23.05,1.47-.18,2.95-.35,4.42-.54,1.08-.14,2.16-.29,3.24-.45.13-.02.26-.1.39-.14.31-.1.62-.22.94-.29.56-.12,1.16-.17,1.47-.75.81-1.52,1.6-3.05,2.38-4.59.44-.87.77-1.81,1.3-2.63,1.21-1.89,2.5-3.72,3.76-5.57,2.51-3.71,5.32-7.19,8.09-10.7,2.16-2.74,4.37-5.42,6.93-7.8.09-.08.15-.21.22-.31-.42.07-.77.25-1.14.34-1.94.47-3.77.22-5.5-.79-.28-.16-.15-.3-.01-.46.3-.35.58-.73.91-1.05.36-.34.72-.72,1.16-.93,1.77-.87,3.61-.92,5.46-.24.31.11.46.03.6-.23.14-.26.26-.54.46-.75,1.33-1.43,2.87-2.45,4.92-2.44.14,0,.37-.11.42-.22.44-.93.84-1.88,1.26-2.82.1-.22.21-.44.32-.67ZM66.37,84.82c-.17.09-.25.12-.31.17-3.11,2.03-5.72,4.61-8.06,7.46-1.12,1.36-2.11,2.83-3.18,4.23-.64.83-1.37,1.6-2,2.44-1.25,1.69-2.48,3.39-3.67,5.13-1.59,2.33-3.26,4.62-4.47,7.2-.71,1.5-1.47,2.98-2.2,4.48-.43.89-.82,1.8-1.23,2.7-.04.08-.04.17-.06.29.45-.12.85-.3,1.26-.31,1.33-.05,2.56-.48,3.73-1.05,1.04-.51,2.07-.69,3.21-.42.68.16,1.39.16,2.08.26.12.02.22.16.33.24-.1.08-.19.2-.31.24-.24.07-.49.09-.74.15-.14.03-.27.11-.4.16.01.04.03.09.04.13.37-.04.75-.04,1.11-.12,1.26-.26,2.52-.53,3.77-.8,1.52-.33,2.72-1,3-2.72.16-.98.34-1.96.61-2.91.91-3.28,2.13-6.47,2.79-9.83.48-2.48,1.16-4.92,1.8-7.37.84-3.2,1.47-6.46,2.85-9.5.02-.05.03-.1.07-.25ZM70.27,59.22c.13-.06.22-.1.3-.14,1.66-.9,3.35-1.72,5.21-2.16.14-.03.3-.2.35-.34.31-.87.61-1.74.88-2.62.04-.12,0-.37-.09-.42-.78-.51-1.22-1.31-1.71-2.05-.14-.22-.19-.5-.28-.75l.17-.1c.14.14.29.27.4.43.31.43.59.89.91,1.31.22.29.48.54.75.79.05.05.21-.02.32-.03-.04-.09-.06-.21-.12-.27-.13-.1-.3-.15-.43-.25-.05-.04-.04-.16-.06-.25.08-.01.16-.05.23-.03.08.01.15.09.22.11.12.03.26.08.38.06.06,0,.15-.21.12-.24-.08-.1-.2-.17-.32-.23-.41-.18-.83-.32-1.23-.51-.12-.06-.19-.22-.28-.33.04-.05.08-.11.12-.16.54.24,1.08.49,1.68.76-.24-.61-.66-.9-1.25-1.01.09-.17.16-.29.22-.4-.21-.02-.37.02-.51.11-.28.18-.54.29-.81-.02-.06-.07-.2-.08-.31-.09-1.29-.14-2.39-.62-3.18-1.71-.72-.99-.96-2.08-.87-3.29.13-1.71.75-3.09,2.31-3.97.27-.15.62-.39.41-.8-.44-.86-.85-1.74-1.39-2.53-.65-.94-1.65-1.32-2.81-1.27.11.16.24.29.39.4.98.75,1.3,1.75,1.1,2.94-.01.08-.09.21-.15.22-.09.01-.23-.04-.28-.11-.14-.17-.21-.41-.37-.55-.75-.68-1.18-1.48-1.14-2.51,0-.27-.17-.45-.44-.32-.4.18-.83.37-1.16.64-.89.74-1.55,1.68-2.13,2.69-1.64,2.85-3.02,5.82-4.06,9,.12.04.26.1.4.14.93.24,1.79.62,2.53,1.26.17.15.43.2.61.34.55.4,1.09.81,1.6,1.26.09.08,0,.36-.02.54,0,.05-.17.12-.19.11-.11-.11-.21-.23-.3-.36-.06-.1-.1-.21-.15-.32-.05.01-.11.02-.16.04.02.2.02.41.06.61.06.3.18.59.23.89.05.33.18.57.47.75.58.35,1.22.66,1.72,1.11.87.78,1.58,1.7,1.86,2.89.06.25.17.5.26.77ZM20.56,123.49c.46-.15.81-.31,1.18-.38.77-.14,1.58-.14,2.32-.36,1.84-.55,3.73-.73,5.63-.89,1.14-.09,2.3-.13,3.43-.32,2.33-.39,4.65-.89,7.03-.87.38,0,.82.03,1.06-.44.05-.1.23-.17.36-.2,1.23-.3,2.47-.58,3.71-.88.37-.09.75-.18,1.1-.34.86-.38,1.64-.98,2.67-.88.34.03.69-.06,1.04-.09-.34-.15-.67-.21-1-.26-.89-.13-1.76-.14-2.53.44-.18.13-.38.26-.59.32-1.64.45-3.28.89-4.93,1.33-.34.09-.63.06-.85-.33-.13.21-.22.38-.35.52-.07.08-.19.12-.29.17-.06-.11-.19-.27-.15-.33.23-.38.41-.9.76-1.05.46-.2.55-.47.62-.86.04-.19.12-.37.2-.55.41-.95.82-1.9,1.24-2.84.96-2.15,2.09-4.21,3.37-6.19.83-1.28,1.56-2.63,2.47-3.85,2.43-3.28,4.94-6.5,7.4-9.76,1.69-2.25,3.51-4.38,5.55-6.31,1.07-1.01,2.14-2.06,3.36-2.86,1.67-1.09,3.48-1.97,5.23-2.92.29-.16.62-.26.92-.41.07-.04.12-.13.18-.2-.07-.05-.15-.16-.21-.16-.24.02-.51.02-.72.13-.97.47-1.92.98-2.87,1.47-1.57.82-3.06,1.76-4.43,2.88-1.84,1.49-3.42,3.25-4.96,5.03-1.49,1.73-2.88,3.55-4.3,5.34-1.67,2.11-3.39,4.18-4.98,6.35-1.58,2.16-3.03,4.41-4.52,6.63-.52.78-1.05,1.56-1.49,2.39-.96,1.8-1.86,3.64-2.81,5.44-.41.77-.88,1.5-1.37,2.21-.16.23-.45.44-.72.49-1.27.26-2.56.46-3.84.69-2.12.38-4.24.79-6.41.72-.5-.02-.94-.44-.88-.95.15-1.29.22-2.6.52-3.86.56-2.35,1.47-4.59,2.36-6.84,1.34-3.39,2.58-6.82,3.88-10.23.26-.69.59-1.35.9-2.03.57-1.24,1.14-2.49,1.73-3.72.12-.26.36-.46.54-.69.66-.83,1.39-1.62,1.96-2.51,1.17-1.86,2.19-3.81,3.38-5.66,1-1.57,2.11-3.08,3.25-4.55,1.97-2.55,3.95-5.1,6.2-7.42.09-.09.13-.22.2-.35-.42-.14-.65.04-.86.28-.76.9-1.51,1.81-2.28,2.7-2.27,2.64-4.47,5.33-6.36,8.26-1.38,2.12-2.63,4.33-3.96,6.49-.34.54-.74,1.05-1.17,1.53-.21.24-.54.39-.85.51-.34.14-.49.02-.47-.33.02-.52.01-1.05.13-1.55.34-1.5.66-3,1.11-4.47.52-1.71.86-3.48,1.76-5.05.03-.06,0-.15,0-.24-.61.15-.83.64-.98,1.13-.61,1.94-1.21,3.89-1.79,5.84-.39,1.33-.77,2.68-.75,4.07.02,1.57-.43,3.01-1.02,4.42-1.12,2.65-2.25,5.3-3.36,7.96-.54,1.3-1.04,2.62-1.53,3.93-.54,1.42-1.08,2.85-1.56,4.29-.4,1.19-.66,2.43-1.06,3.62-.55,1.68-.87,3.43-1.68,5.04-.42.82-1.01,1.27-1.87,1.44-.29.06-.58.06-.87.11-.49.08-.97.18-1.57.29.23.25.39.41.47.5ZM63.42,73.58c2.36-.4,4.47.03,6.4,1.57.01-.22.02-.35.03-.48.06-.72.09-1.45.2-2.17.19-1.26.44-2.5.62-3.76.04-.28-.02-.62-.15-.88-.44-.92-.72-1.85-.53-2.88.05-.26.03-.54.05-.9-.14.11-.21.13-.24.19-.22.48-.42.97-.64,1.45-.08.18-.17.39-.31.5-.46.32-.94.59-1.44.9,0,0,.04.06.06.12.05.11.09.21.13.32-.12.05-.24.12-.37.14-.11.02-.22-.04-.33-.04-.45-.02-.91-.02-1.36-.05-.09,0-.22-.06-.26-.13-.18-.33-.35-.23-.55-.02-.08.08-.2.12-.3.19-.05-.09-.14-.18-.15-.28-.04-.34-.23-.29-.45-.2-.11.05-.2.17-.31.2-.09.03-.22.01-.3-.04-.06-.04-.12-.2-.09-.24.27-.38.07-.56-.25-.75-.18-.1-.32-.28-.45-.44-.15-.19-.28-.4-.44-.62-.17.15-.28.28-.41.37-1.87,1.28-3.75,2.55-5.62,3.82-.19.13-.36.28-.54.43.21.07.38.08.53.02,1.28-.49,2.5-.2,3.65.36,1.57.77,2.96,1.8,3.81,3.3ZM54.81,57.88c-.05.04-.11.08-.16.12.09.32.2.63.25.96.03.19-.05.39-.08.59-.18-.1-.37-.18-.53-.3-.11-.08-.16-.22-.26-.33-.06-.07-.13-.11-.21-.18-.18.57.15,1.17.69,1.43.27-.27.48-.57.77-.74.74-.44,1.52-.79,2.4-.79.3,0,.39-.13.44-.42.31-1.54.47-3.12,1.08-4.6.06-.14.08-.31.12-.47-.96-.1-.96-.1-1.44-.97-.1-.18-.23-.35-.36-.52-.14-.2-.3-.18-.45-.02-.3.31-.6.63-.89.95-1.07,1.18-1.81,2.58-2.42,4.01-.85,1.97-1.55,4.01-2.21,6.05-.75,2.32-1.12,4.72-1.5,7.13-.12.77-.23,1.55.54,2.11.12-.09.24-.17.36-.27,1.23-.97,2.44-1.98,3.69-2.92.92-.69,1.9-1.29,2.84-1.95.44-.31.37-.67-.12-.86-.47-.19-.94-.36-1.39-.58-.27-.13-.53-.32-.74-.53-.32-.33-.64-.68-.88-1.07-.5-.82-.95-1.67-1.4-2.52-.05-.1-.02-.26,0-.38.04-.16.16-.31.17-.47.08-.98.12-1.96.51-2.88.13-.3.34-.57.66-.43.66.29,1.23.72,1.61,1.36.13.22.1.39-.23.61-.3-.37-.6-.75-.91-1.12ZM67.66,84.18c-.06-.04-.11-.08-.17-.12-.2.21-.48.38-.58.63-.38,1.01-.76,2.02-1.03,3.05-1.26,4.79-2.52,9.59-3.7,14.4-.57,2.32-1.11,4.64-1.88,6.91-.52,1.52-.88,3.08-1.29,4.63-.18.66-.29,1.33-.47,1.99-.18.69-.54,1.25-1.22,1.57-.16.08-.29.21-.44.32.3.07.55.06.79.02,1.13-.19,2.25-.4,3.38-.58.22-.04.46.02.69.04,0,.07.01.14.02.21-.75.19-1.51.38-2.26.57.01.05.02.11.03.16.32-.05.64-.11.96-.15.41-.05.84-.18,1.22-.1.99.23,1.95.59,2.93.84,2.18.56,4.39,1.03,6.64,1.17,1.48.09,2.97.13,4.45.15,1.01.01,2.01-.04,3.02-.09.13,0,.27-.12.4-.18-.07-.13-.11-.28-.21-.37-.09-.08-.26-.1-.39-.09-.46.01-.92.06-1.39.07-2.34.04-4.68.06-7-.41-1.16-.24-2.35-.36-3.5-.67-1.18-.32-2.32-.73-3.57-.69-.12,0-.24-.14-.36-.21.08-.13.14-.32.25-.36.59-.24,1.18-.52,1.8-.64,1.81-.36,3.64-.49,5.48-.42,1.28.05,2.55.1,3.83.15,1.32.05,2.63.1,3.95.17,1.82.1,3.64.23,5.46.33.6.03.72-.14.59-.68-.7,0-1.38.02-2.07,0-1.71-.07-3.42-.17-5.13-.24-.84-.03-1.68,0-2.52-.05-.89-.04-1.79-.19-2.68-.2-1.68-.01-3.37,0-5.05.09-1.34.07-2.68.26-4.01.4-.67.07-1.33.21-2,.25-.53.03-.76-.17-.75-.58.02-.7-.01-1.42.15-2.09.64-2.69,1.37-5.36,2.03-8.04.75-3.04,1.46-6.08,2.19-9.12.6-2.5,1.15-5.01,1.83-7.48.37-1.38.95-2.71,1.43-4.07.05-.15.08-.31.12-.46ZM88.19,67.6c-.06,0-.12,0-.17-.01-.05.12-.1.24-.17.34-.11.17-.26.48-.35.47-.31-.05-.31-.35-.28-.61,0-.06.02-.11.03-.17.13-.82.09-1.57-.75-2.04-.24-.13-.44-.35-.65-.53-1.18-.99-2.56-1.09-4.01-.94-.37.04-.44.22-.31.55.09.22.13.46.16.69.07.61.19.74.8.9.59.16,1.11.47,1.38,1.02.29.58.48,1.22.68,1.84.03.1-.04.3-.13.34-.08.05-.26-.01-.36-.08-.09-.07-.1-.22-.18-.32-.17-.23-.31-.52-.54-.65-.61-.35-1.15-.75-1.36-1.46-.02-.05-.03-.11-.04-.16-.04.03-.08.05-.12.08,0,.27,0,.54,0,.81,0,.32.07.65.04.96-.1,1.16-.23,2.31-.36,3.46-.04.33.08.54.34.74.48.36.95.74,1.37,1.16.24.25.36.61.54.93.43-.19.84-.4,1.27-.57.25-.1.32-.24.36-.49.29-1.87.98-3.49,2.71-4.52.19-.11.37-.43.36-.64,0-.37-.16-.74-.26-1.11ZM60.71,52.59c-.05.06-.1.16-.16.17-.45.12-.55.48-.68.87-.52,1.52-.64,3.12-.9,4.69-.04.22.04.34.28.37.33.04.67.08.99.17.11.03.17.21.26.32-.1.07-.2.19-.31.2-.16.02-.34-.01-.49-.07-1.5-.5-2.87-.03-4.21.57-.12.05-.27.28-.25.37.05.17.2.36.36.42.2.07.44.02.67.02,0-.04,0-.07,0-.11-.2-.06-.39-.12-.62-.19.18-.41.49-.28.74-.25.54.06,1.08.15,1.62.24.65.11,1.3.21,1.93.36.15.03.25.25.38.38-.13.08-.25.17-.38.25-.39.24-.79.48-1.21.74.41.34.7.34.99,0,.11-.13.24-.25.39-.32.62-.27.74-.8.8-1.39.19-1.94,1.05-3.52,2.57-4.73.36-.29.82-.46,1.25-.65.36-.15.74-.65.61-1.02-.28-.79-.61-1.55-.94-2.32-.05-.1-.21-.16-.32-.23-.04.12-.08.24-.12.36-.06.15-.12.3-.18.45-.11-.14-.25-.26-.33-.41-.24-.45-.45-.92-.68-1.38-.02-.04-.08-.08-.13-.1-.43-.11-.86-.23-1.3-.31-.26-.05-.45.07-.53.36-.09.34-.21.67-.31,1q-.21.66.22,1.16ZM81.24,67.28s-.09-.04-.14-.06c-.1.12-.21.24-.3.38-.23.34-.53.57-.94.65-.27.06-.54.15-.81.2-.14.02-.28-.03-.43-.05.03-.14.02-.31.09-.42.53-.76,1.06-1.5,1.99-1.85.5-.19.54-.57.19-1.02-.97.95-1.01.95-1.27.06-.69.07-3.31,3.74-3.37,4.75.29-.02.58-.05.87-.05.89-.02,1.77,0,2.46.71.12.12.26.21.41.28.63.3.66.42.21.95-.12.14-.26.26-.41.36-.73.44-1.47.89-2.35.96-.6.05-1.2.05-1.81.03-.12,0-.23-.19-.34-.29.12-.06.24-.14.36-.18.07-.03.16-.02.34-.03-.22-.26-.39-.47-.56-.68-.59.78-2.33,6.67-2.21,7.44.07,0,.14,0,.2-.03.84-.44,1.68-.88,2.51-1.34.09-.05.19-.19.19-.28,0-.96.37-1.81.81-2.61.37-.68.75-1.38,1.58-1.65.18-.06.31-.27.46-.41.28-.26.55-.53.99-.34.24.1.33-.07.45-.25.4-.61.5-1.29.55-2,.08-1.07.16-2.15.25-3.22ZM79.53,50.82c-.25.38-.5.73-.71,1.11-.05.1-.02.31.05.4.8.99,1.61,1.96,2.43,2.93.27.32.4.28.61-.08.22-.37.47-.72.72-1.08.48-.7.97-1.4,1.44-2.12.09-.13.1-.31.18-.55-.27.07-.43.12-.5.13-.23-.41-.44-.75-.61-1.11-.26-.55-.5-1.11-.74-1.67-.04-.1-.06-.21-.1-.36-.17.09-.32.14-.44.23-.64.53-1.27,1.06-1.88,1.61-.06.06-.05.33.03.4.77.68,1.1,1.57,1.26,2.54.06.4.07.81.06,1.21,0,.1-.19.19-.3.28-.05-.1-.12-.2-.14-.31-.07-.38-.11-.77-.18-1.16-.17-.89-.49-1.71-1.16-2.43ZM115.2,49.24c.09.68.7,1.87,1.39,2.73,1.21,1.51,2.78,2.24,4.73,2.17.28-.01.43-.11.3-.37-.37-.75-.7-1.53-1.17-2.22-.86-1.27-2.15-2.03-3.49-2.68-.48-.23-1.05-.28-1.59-.41-.03.05-.06.09-.08.14.27.31.53.63.81.92.06.06.23.02.35.02.28,0,.56-.02.83,0,.09.01.16.15.25.24-.1.05-.19.12-.3.14-.14.02-.29,0-.43,0-.01.03-.03.06-.04.1.15.11.31.2.44.33.25.24.49.48.72.74.05.05-.02.2-.03.3-.09-.02-.18-.02-.26-.05-.07-.03-.14-.09-.2-.15-.74-.65-1.48-1.31-2.2-1.95ZM55.83,70.34c.47,1.16.7,2.36,1.74,3.08.95.66,1.84,1.45,2.95,1.79-.02-.37-.03-.66-.05-.95-.02-.36-.14-.65-.52-.89.05.41.08.72.12,1.03-.05.02-.1.04-.15.05-.64-.44-.29-1.38-.84-1.92-.21.39.21.88-.31,1.23-.07-.17-.15-.3-.18-.45-.04-.22,0-.45-.05-.67-.06-.29-.08-.64-.48-.71-.15.4.26.87-.21,1.2-.39-.36-.32-.79-.22-1.21.08-.35-.09-.47-.38-.5-.16.27.12.65-.36.88-.12-.55-.22-1.04-.35-1.66.31.1.5.13.67.21.32.17.66.33.94.55.94.72,1.86,1.48,2.81,2.2.57.43,1.15.84,1.74,1.24.13.09.3.12.45.18,0-.15.06-.32.02-.46-.31-.91-.89-1.61-1.62-2.25-1.21-1.06-2.53-1.86-4.15-2.03-.51-.05-1.04.04-1.57.06ZM79.5,86.44s.07-.05.1-.08c-.25-.78-.5-1.55-.76-2.33-.05-.15-.16-.3-.28-.41-.21-.19-.27-.39-.17-.67.1-.28.04-.52-.26-.71-.99-.63-1.88-1.33-2-2.63,0-.07-.23-.2-.28-.17-.53.28-1.05.58-1.58.88,0,.05,0,.11.01.16.28.14.55.32.84.4,1.01.26,1.83.82,2.56,1.52.09.08.1.26.14.39-.04.02-.08.04-.12.06-.45-.29-.89-.61-1.36-.87-.47-.26-.96-.47-1.44-.7-.56,1.19.16,2.03.57,2.91.44.93,1.21,1.58,2.08,2.13-.26-.51.02-1.15-.46-1.7-.07.39-.13.67-.18.96-.04,0-.08,0-.12,0-.38-.58.03-1.37-.5-2.02-.1.33-.18.58-.26.83-.37-.57-.04-1.32-.64-1.84-.07.22-.12.38-.16.54-.05,0-.11,0-.16,0-.02-.41-.04-.81-.06-1.22.04-.03.09-.07.13-.1.23.18.49.33.67.55.69.86,1.32,1.77,2.05,2.61.48.56,1.08,1.02,1.63,1.53ZM94.15,40.91c.05-.16.09-.21.08-.26-.22-1.42-.99-2.52-2.11-3.36-.61-.45-1.36-.7-2.02-1.08-.23-.13-.45-.33-.6-.55-.24-.37-.56-.55-.97-.57-.38-.02-.76-.03-1.13.01-.39.04-.76.16-1.14.24,0,.07,0,.14,0,.21.46.13.92.25,1.38.39.09.03.16.13.23.19-.08.07-.16.2-.23.2-.6-.05-1.2-.12-1.82-.19.18-.48.04-.63-.39-.58.13.75.51,1.08,1.31,1.13.21.01.42,0,.63,0,.75-.02,1,.12,1.7.46,1.13.56,2.12,1.31,3.11,2.05.57.43,1.08.92,1.62,1.38.1.09.19.18.34.32ZM82.95,47.83c.18.09.26.15.34.16.6.06,1.12.32,1.6.67.18.14.45.25.67.23.61-.04,1.13.17,1.6.51.13.09.27.35.22.45-.1.23-.34.32-.6.16-.2-.13-.38-.28-.59-.4-.15-.08-.32-.12-.48-.18-.02.04-.04.08-.06.12.09.15.16.33.29.45.58.52,1.17,1.03,1.79,1.51.38.29.82.48,1.22.73.13.09.23.24.38.41-.46.09-.88-.29-1.26.16.57.11,1.07.19,1.59-.06.14-.07.41-.06.51.03.38.36.77.32,1.22.14-.06-.08-.09-.17-.15-.22-.95-.77-1.3-1.9-1.72-2.98-.06-.15.03-.35.04-.53.14.11.34.19.41.33.15.3.24.64.35.96.04,0,.08,0,.12,0,.11-.62.21-1.24.32-1.87-.15-.01-.27-.03-.38-.04-.01-.24-.02-.45-.03-.67-.09,0-.18,0-.19.02-.08.21-.14.44-.23.65-.06.14-.18.25-.27.37-.07-.12-.18-.24-.21-.37-.06-.26-.07-.54-.11-.86-.38.27-.49.58-.39.92.12.44.12.85-.15,1.21.24.33.49.62.67.95.19.34.33.71.44,1.08.04.14-.05.32-.09.49-.12-.11-.24-.21-.35-.32-.03-.03-.04-.07-.05-.11-.19-.91-.9-1.44-1.47-2.08-.95-1.08-2.19-1.56-3.49-1.96-.46-.14-.93-.24-1.53-.04ZM65.76,58.18c-1.04.23-.59-.57-.67-1.03-.13.14-.2.27-.27.4-.16.34-.29.7-.47,1.02-.1.17-.29.28-.45.42,0-.19,0-.39,0-.58,0-.16.03-.32.04-.48-.06-.01-.12-.03-.18-.04-.2.55-.41,1.11-.61,1.66-.13.36-.35.71-.05,1.09.05.06.02.19,0,.29-.05.42-.13.83-.16,1.25-.04.54-.12,1.09.13,1.63.09-.1.16-.21.17-.32.07-.6.12-1.2.19-1.8.04-.34.11-.68.16-1.02.08,0,.16,0,.24,0,.04.21.12.42.12.62-.02.8-.08,1.6-.1,2.39,0,.15.17.31.25.47.03-.15.08-.31.09-.46.05-.75.07-1.51.13-2.26,0-.1.16-.18.24-.27.06.11.16.22.19.34.03.12,0,.25-.02.38-.25,1.07.03,2.12.11,3.17,0,.07.1.14.15.21.06-.08.13-.16.16-.25.02-.06-.01-.14-.02-.21-.18-1.54-.03-3.04.36-4.53.05-.2.17-.37.25-.56.05.01.11.03.16.04,0,.11,0,.22,0,.33-.1,1.32-.2,2.65-.3,3.97,0,.08.06.17.09.26.04,0,.09,0,.13-.01l.64-5.5s-.06-.01-.09-.02c-.13.19-.27.38-.4.58l-.14-.04c-.03-.35-.06-.71-.09-1.13ZM98.98,75.14l-.12-.1c.09-.15.16-.31.26-.44.4-.48.81-.95,1.21-1.43.05-.06.02-.19.02-.29-.09.02-.2.02-.28.07-.08.05-.14.14-.2.22-.67,1.02-1.38,2.01-1.98,3.07-.41.72-.65,1.53-.96,2.31-.03.07,0,.17.01.39.36-.35.62-.62.93-.92-.21-.03-.32-.04-.44-.06.19-.53,1.5-1.61,1.94-1.56-.17.23-.48.48-.44.64.12.45-.19.62-.41.84-.43.44-.9.84-1.34,1.28-.12.12-.14.32-.21.49.15-.05.34-.07.45-.16.5-.45.97-.94,1.46-1.39.1-.09.28-.1.42-.15-.02.14.01.3-.06.41-.39.6-.8,1.19-1.21,1.77-.06.08-.17.12-.26.17-.03-.03-.06-.06-.09-.08.08-.17.16-.35.24-.52-.23.08-.41.18-.55.33-.1.11-.23.3-.19.41.08.24.29.32.55.22,1.27-.52,2.27-1.33,2.74-2.66.43-1.22.39-2.48.33-3.74-.01-.22-.14-.43-.22-.65-.13.12-.18.22-.19.32-.06.5-.08,1.01-.18,1.5-.15.71-.36,1.4-.57,2.09-.03.09-.18.14-.27.2-.05-.12-.17-.25-.14-.35.07-.28.21-.55.29-.83.1-.32.16-.65.24-.98-.03-.01-.06-.02-.1-.03-.6.48-1.19.97-1.79,1.45-.04-.04-.08-.09-.12-.13.1-.14.18-.3.31-.42.52-.47,1.05-.93,1.56-1.4.13-.12.21-.29.32-.44-.04-.03-.08-.06-.12-.09-.29.22-.58.44-.87.67ZM78.57,62.37c-1.87,2.66-3.38,5.4-4.91,8.2.45-.13.81-.32,1.17-.31.5.01.67-.24.83-.64.75-1.87,1.88-3.49,3.37-4.85.16-.15.19-.25.12-.46-.15-.47-.25-.97-.38-1.45-.04-.14-.1-.27-.19-.49ZM74.35,66.5c.12-.09.16-.11.18-.14.71-1.12,1.42-2.24,2.11-3.37.54-.88,1.06-1.77,1.57-2.67.09-.16.1-.39.07-.57-.08-.54-.54-.69-.97-.8-.72-.19-1.2.11-1.37.84-.25,1.07-.47,2.15-.73,3.22-.24.97-.53,1.94-.79,2.9-.04.16-.05.33-.08.58ZM79.68,80.64c.05,0,.1-.01.15-.02,0-.14.02-.29.02-.43,0-.56-.02-1.12.02-1.68.03-.36-.06-.85.54-.82.11-.6.19-1.16.57-1.75.09.2.2.32.18.41-.12.57-.03,1.21-.55,1.66-.14.12-.21.37-.23.57-.05.5-.07,1.01-.08,1.51,0,.17.05.34.08.5.04,0,.08,0,.11,0,.04-.12.11-.24.13-.36.09-.47.15-.94.24-1.4.03-.15.1-.29.15-.44.13.07.27.14.39.21v-3.91c-.46.25-.98-.19-1.21.4-.13-.09-.22-.16-.32-.24-.36.44-.05,1.23-.9,1.45.09-.44.16-.81.24-1.19-.05-.01-.1-.03-.14-.04-.07.12-.17.23-.21.36-.26,1.03-.52,2.05-.77,3.08-.13.55-.14,1.11.08,1.65.04.11.15.19.23.28.03-.02.07-.04.1-.06,0-.17,0-.33,0-.5.05-.78.09-1.56.16-2.34.01-.14.18-.27.27-.41.05.16.13.32.13.47,0,.36-.05.71-.08,1.13.18-.09.28-.14.39-.2.28.68-.05,1.43.29,2.08ZM98.88,70.03c.06.23.11.39.14.55.07.32.23.41.57.33.54-.12.88-.46,1.2-.86,1.4-1.74,1.52-3.67.79-5.75-.18.2-.33.42-.4.66-.02.07.2.21.39.38-.09.34-.18.79-.33,1.22-.05.14-.23.23-.35.35-.02-.16-.08-.33-.05-.47.11-.49.12-.98-.03-1.53-.52.5,0,1.11-.33,1.64-.09-.18-.16-.31-.21-.45-.05-.13-.06-.27-.09-.41-.05,0-.11,0-.16,0,0,.27-.04.56.01.82.07.35.23.69.33,1.04.02.09-.06.28-.11.29-.1.02-.25-.04-.32-.11-.07-.09-.08-.23-.11-.36-.06-.21-.11-.41-.17-.62q-.19.67.33,1.98c.08.19.22.43-.07.53-.29.1-.39-.12-.44-.37-.06-.3-.13-.6-.19-.89-.04,0-.08,0-.12,0-.1.5-.19,1.01-.29,1.52.11-.05.23-.13.25-.11.2.22.39.46.29.85-.18-.08-.33-.14-.55-.24ZM70.96,63.43s.08-.05.12-.07c-.14-.27-.31-.53-.41-.82-.08-.22-.06-.47-.09-.7.23-.01.5-.1.7-.03.33.12.63.35.99.55.07-.1.18-.24.27-.39.69-1.23,1.39-2.44,2.75-3.08.12-.06.17-.25.25-.39-.18-.05-.28-.03-.36,0-1.52.67-3.05,1.34-4.56,2.03-.13.06-.23.3-.25.47-.11.85-.2,1.7-.26,2.55-.01.16.1.35.2.48.22.29.48.54.7.83.06.08.04.23.07.43-.27-.2-.45-.33-.63-.46-.15.38.13.78.73,1.07.03-.04.1-.09.09-.13-.09-.54.2-.97.38-1.44.16-.4.31-.81.44-1.22.03-.09-.07-.21-.11-.32-.07.07-.17.12-.22.2-.06.11-.09.23-.13.35-.1.33-.2.67-.34,1.13-.24-.52-.69-.75-.83-1.34.24.14.37.21.5.28ZM62.39,85.42c.03-.06.05-.11.08-.17-.27-.21-.52-.5-.83-.62-1.58-.61-3.18-.69-4.81-.16-.99.33-1.67,1.01-2.26,1.83.91.86,3.77,1.12,4.97.55-.23-.66.42-.85.75-1.31-1.06.03-1.27,1.1-2.06,1.45-.08-.75.65-.92.89-1.41-.03,0-.06-.03-.09-.02-.04,0-.08.03-.12.04-.57.16-.94.58-1.32,1-.16.18-.31.45-.77.31.35-.42.66-.78,1.03-1.22-.83.08-1.14.84-1.74,1.09-.03-.03-.06-.06-.1-.09.11-.19.22-.37.35-.58-.51-.08-.94.37-1.44.11,1.09-.75,2.37-.89,3.62-1.08,1.29-.19,2.58-.2,3.84.27ZM80.58,56.1c0,.05,0,.11,0,.16-.12.05-.24.11-.36.15-.51.14-1.02.29-1.54.41-1.17.28-2.38.43-3.5.83-1.58.55-3.09,1.28-4.64,1.94-.08.03-.17.07-.2.13-.05.1-.04.22-.06.33.1,0,.22.04.3,0,.54-.27,1.06-.56,1.6-.82,1.25-.6,2.52-1.12,3.89-1.38,1.26-.24,2.52-.49,3.69-1.06.08-.04.2,0,.29-.04.71-.21,1.41-.42,2.12-.63.02,0,.02-.07.03-.12h-1.48c-.01-.27-.02-.47-.03-.61-.31-.03-.58-.03-.82-.09-.66-.17-1.26-.46-1.76-.93-.24-.23-.41-.19-.51.13-.15.45-.31.9-.46,1.35-.09.28-.17.57-.28.93.22-.04.34-.06.46-.09.91-.22,1.82-.45,2.73-.65.17-.04.36.04.53.07ZM41.41,120.68c.03.06.06.11.08.17.65-.16,1.32-.25,1.93-.49,1.76-.68,3.59-.4,5.4-.53.09,0,.19.02.29.05,1.2.31,2.4.66,3.61.91.74.15,1.51.15,2.27.21,0-.05,0-.1.01-.14-.42-.09-.84-.18-1.26-.26-1.34-.26-2.6-.91-4-.86-.06,0-.13-.1-.2-.16.05-.06.1-.15.16-.16.22-.04.44-.07.66-.09.68-.06,1.39,0,2.05-.18,1.3-.35,2.58-.81,3.86-1.24.14-.05.26-.15.39-.22-.02-.04-.03-.09-.05-.13-3.01,1.02-6.12,1.4-9.29,1.42,0,.05,0,.09,0,.14l.56.37s-.02.08-.02.12c-.13,0-.27,0-.4,0-.64-.02-1.3-.14-1.91-.04-1.21.2-2.4.51-3.59.8-.19.05-.35.2-.53.31ZM107.07,43.02c.31.03.6.05.89.08.02-.04.03-.09.05-.13-.55-1-1.22-1.9-2.3-2.43.17.42.44.8.6,1.21.16.41.21.87.32,1.37-.78-.12-.84-.91-1.4-1.14.06.57.73,1.35,1.23,1.52.12.04.23.15.31.26.03.03-.05.21-.07.21-.14,0-.3,0-.42-.08-.16-.09-.28-.23-.42-.35-.16-.13-.32-.27-.47-.4.11.87.98.91,1.46,1.44-.47.38-.72-.3-1.21-.18.15.16.24.34.38.41.34.16.72.24,1.05.42.14.08.19.32.28.49-.14,0-.3.05-.42,0-.28-.12-.53-.29-.82-.45-.08.35.07.52.33.62.27.1.57.15.83.29.2.11.35.32.53.48-.04.06-.08.12-.12.18-.27-.11-.54-.23-.85-.36.07.36.23.54.58.59.44.05.75.36.83.79-.12.05-.25.09-.35.13.17.47.34.92.52,1.43.09-.14.16-.2.17-.27.1-.62.19-1.24.27-1.86.12-.84-.14-1.47-.9-1.96-.78-.51-.94-1.37-.87-2.29ZM115.37,46.33c.13-.05.18-.06.2-.08,1.36-1.36,2.53-2.85,2.93-4.79.14-.67.09-1.38.1-2.08,0-.22-.16-.36-.36-.17-.9.85-1.91,1.56-2.62,2.63-.5.77-.64,1.49-.48,2.33.07.37.11.77.3,1.07.16.26.24.44.06.7-.06.08-.07.2-.13.38ZM109.04,79.07c1.37-.32,2.36-.95,3.06-2,.33-.49.68-1.05.74-1.61.1-.91-.03-1.84-.08-2.76-.01-.28-.09-.56-.15-.92-.23.47-.41.85-.54,1.12.05.18.15.34.11.44-.22.5-.2,1.11-.65,1.52-.08.07-.16.2-.15.29.04.48-.29.72-.55,1.05-.6.78-1.11,1.64-1.65,2.47-.06.09-.08.22-.14.4ZM117.82,31.3c-.05-.2-.12-.39-.15-.6-.05-.31-.19-.51-.52-.56-.22-.03-.41-.13-.29-.37.04-.08.34-.12.45-.06.44.24.86.51,1.28.79.32.22.6.55.95.69,1.28.53,2.33,1.35,3.21,2.41.06.07.19.08.28.13.03-.09.1-.2.08-.28-.3-.94-.66-1.86-1.5-2.47-.59-.42-1.18-.84-1.82-1.18-1.12-.6-2.34-.56-3.56-.44-.02,0-.04.04-.11.12.38.75.99,1.32,1.7,1.81ZM104.61,35.28s0,.08,0,.12c.16.07.31.14.47.21.78.35,1.58.65,2.32,1.05,1.39.75,2.37,1.95,3.36,3.14.12.15.25.32.42.4.18.09.42.04.34-.23-.2-.62-.35-1.29-.7-1.83-1.35-2.13-3.4-2.96-5.85-2.97-.12,0-.24.06-.35.1ZM98.34,27.58c.5.18.97.27,1.37.5,1.07.61,2.13,1.24,3.14,1.94.81.57,1.54,1.25,2.32,1.88.09.07.24.06.36.09,0-.12.02-.25-.02-.34-.2-.42-.37-.86-.64-1.23-1.11-1.53-2.66-2.48-4.45-2.98-.59-.17-1.28,0-1.92.02-.04,0-.08.06-.15.13ZM45.39,73.04s.04.08.06.09c.05.02.11.04.16.03.76-.03,1.44-.34,1.85-.93.26-.38.49-.44.86-.42.27.02.53.04.8.06.24.02.47.03.8.04-1.37-1.48-7.48-1.41-8.18-.17.35.13.74.21,1.04.41.66.43,1.19.11,1.74-.18.18-.09.38-.2.57-.21.57-.02,1.13-.01,1.7.03.14.01.27.19.41.3-.09.09-.18.2-.29.26-.49.23-.99.44-1.52.67ZM62.91,85.21c.24-.2.46-.44.73-.61.98-.62,1.96-1.25,2.99-1.79.53-.29.77-.7.91-1.23.06-.21,0-.33-.23-.32-.13,0-.26,0-.38.02-1.74.39-3.18,1.22-4.16,2.75-.3.47-.28.71.14,1.18ZM115.19,28.67l.11-.1c0-.05.03-.12.01-.16-.45-.86-.68-1.85-1.5-2.49-.29-.22-.55-.48-.82-.73-.61-.57-1.3-1.02-2.14-1.18-.64-.12-1.28-.09-1.97.1,2.39,1.2,4.45,2.74,6.31,4.55ZM102.5,47.65s.01-.09.02-.14c-.3-.04-.59-.09-.89-.12-.22-.02-.45,0-.67-.04-.33-.07-.29-.37-.29-.61,0-.02.3-.1.44-.07.48.13.97.25,1.43.45,1.3.55,2.58,1.13,3.87,1.69.21.09.43.14.64.2.02-.04.05-.08.07-.11-.08-.11-.16-.23-.25-.33-1.41-1.39-3.04-2.37-5.03-2.67-.6-.09-1.15,0-1.59.45-.09.09-.15.33-.09.41.31.44.67.85,1.04,1.32.33-.66.89-.26,1.31-.41ZM75.27,59.73c-.05-.02-.1-.05-.16-.07-.21.21-.45.4-.62.64-.56.78-1.09,1.59-1.64,2.37-.23.33-.13.56.12.8.12.11.28.24.3.38.08.61.13,1.22.16,1.83,0,.1-.11.22-.18.32-.3.49-.6.98-.88,1.49-.04.07.02.19.04.36.4-.46.41-1.11,1.01-1.31.05.29.1.53.14.76.05,0,.1,0,.14,0,.26-2.58.81-5.11,1.57-7.59ZM87.43,55.8c-.08.14-.15.21-.15.28.02.7.05,1.39.08,2.09,0,.18.06.36.04.53,0,.08-.13.21-.21.22-.07,0-.21-.1-.23-.18-.06-.2-.09-.41-.11-.62-.05-.56-.1-1.12-.15-1.68-.14.08-.18.16-.2.25-.1.35-.12.73-.59.88-.22.07-.2.3,0,.45.14-.06.27-.12.41-.18.03.08.07.14.08.2.09.73.16,1.47.26,2.2.05.38.15.77.25,1.14.03.12.15.22.22.33.04-.02.07-.03.11-.05,0-.1.01-.21,0-.31-.07-.54-.13-1.08-.21-1.62-.03-.24-.01-.44.31-.53.06.16.13.29.16.43.12.72.21,1.44.35,2.15.03.18.19.33.29.49.06-.02.12-.05.18-.07-.24-.98-.51-1.95-.38-2.96.57.49.18,1.32.75,1.81.04-.36,0-.7-.04-1.05-.13-1.16-.26-2.32-.4-3.47-.02-.17-.05-.35-.07-.52-.14.09-.29.17-.43.26-.02.01-.05,0-.1,0-.06-.12-.13-.25-.24-.46ZM78.91,62.04c.06.03.12.05.18.08.32-.6.63-1.2.95-1.8.06.02.11.04.17.05.27,1.18.05,2.41.22,3.74.24-.21.47-.31.51-.45.25-.93.59-1.86.64-2.81.06-1.11-.53-2.1-1.13-3.02-.1-.15-.37-.32-.5-.28-.19.06-.36.27-.48.46-.16.24-.26.52-.38.78-.03.06-.03.13-.05.2.02.01.04.02.06.03.26-.38.53-.76.79-1.14.06.02.12.04.18.06.17.7.24,1.41.16,2.19-.16-.07-.27-.11-.41-.17-.33.7-.71,1.36-.92,2.08ZM109.32,46.24s-.09.01-.14.02c.51,1.03.17,1.99-.24,2.97.2,0,.27.01.33,0,1.29-.31,2.58-.62,3.87-.93.08-.02.17-.04.23-.09.07-.05.17-.13.17-.2,0-.07-.1-.15-.18-.2-.07-.05-.16-.06-.23-.09-.76-.27-1.53-.54-2.28-.83-.52-.2-1.02-.44-1.53-.66ZM120.25,44.8c-.18.02-.3.01-.4.05-.34.12-.79.8-.72,1.21.05.33-.13.39-.33.48-.27.11-.54.22-.81.32-.92.35-1.84.7-2.76,1.05-.05.02-.09.06-.16.11,2.34.63,6.17-1,7.33-3.03-.34-.27-.78-.21-.85.18-.08.47-.38.59-.76.7-.27.07-.52.19-.79.27-.1.03-.21.03-.31.04,0-.12-.03-.25.02-.34.15-.32.33-.63.55-1.03ZM89.45,71.04s-.08.03-.12.05c-.01.04-.02.08-.04.12-.08.18-.15.35-.23.52-.1-.15-.19-.3-.29-.45-.04-.06-.11-.11-.16-.16-.06.07-.16.13-.17.2-.02.22.02.45-.02.66-.02.1-.16.18-.25.28-.07-.1-.19-.19-.2-.3-.02-.14.06-.3.06-.45,0-.12-.07-.24-.12-.35-.07.11-.19.22-.21.34-.07.47-.13.94-.15,1.42-.03.71-.02,1.42,0,2.13,0,.08.11.16.16.23.05-.08.13-.16.16-.25.03-.12.01-.25.03-.38.04-.27.1-.54.15-.81.07,0,.13,0,.2,0,.05.16.12.31.13.47.07.61.1,1.23.18,1.84.01.13.13.24.21.36.04-.02.09-.04.13-.05,0-.14,0-.27,0-.41-.01-.52-.04-1.04-.02-1.56,0-.13.14-.25.22-.37.07.12.21.24.21.37.02.43,0,.87,0,1.3,0,.13.05.26.08.38.12-.07.17-.13.17-.19.06-1.45.12-2.91.15-4.36,0-.19-.16-.38-.25-.57ZM70.11,90.03c.09-.03.19-.03.23-.08.39-.43.88-.81,1.15-1.31.86-1.61.99-3.39.93-5.18,0-.18-.26-.35-.4-.52-.09.17-.21.34-.25.52-.22.96-.39,1.94-.64,2.9-.31,1.21-.67,2.41-1.03,3.67ZM96.02,49.58c.38.14.69.25,1,.38.26.11.37.02.37-.25,0-.41.05-.81.04-1.22,0-.64-.02-1.27-.32-1.88-.51-1.02-1.18-1.9-2.05-2.63-.16-.13-.33-.25-.5-.37.61,1.49,1.26,2.92,1.9,4.35.17.38.36.76.51,1.15.04.11,0,.26,0,.39l-.14.1c-.19-.64-.65-.82-1.2-.86-.06,0-.11-.08-.18-.1-.08-.03-.17-.03-.25-.04l-.04.1c.41.18.81.37,1.28.58-.18.14-.26.2-.43.32ZM94.59,40.56c1.51-.47,2.56-1.5,3.69-2.44-.22-.03-.42,0-.59.08-.49.23-1,.27-1.52.14-.74-.19-1.48-.4-2.22-.59-.22-.06-.44-.09-.67-.14-.03.03-.05.06-.08.1.83.76,1.52,1.59,1.38,2.86ZM59.96,62.47c.2.07.33.08.37.14.08.14.11.31.17.47-.13.02-.28.08-.4.05-.39-.1-.77-.24-1.15-.36-.15-.05-.31-.06-.47-.09-.02.19-.08.38-.05.55.11.7.23,1.4.02,2.11-.04.14.02.3.03.45.16-.04.35-.05.47-.14.68-.49,1.34-1,1.99-1.53.08-.07.13-.25.11-.36-.1-.63-.23-1.25-.37-1.97-.26.23-.46.42-.73.67ZM94.68,53.29l-.05.1c1.08.24,2.01.69,2.63,1.75.14-.23.24-.37.31-.52.34-.67.68-1.34,1.01-2.02.07-.15.25-.42-.07-.46-.44-.06-.93-.11-1.33.03-.86.31-1.67.75-2.51,1.13ZM117.56,35.5c.02-.12.06-.23.03-.3-.19-.41-.33-.89-.63-1.22-1.34-1.49-3.09-2.17-5.03-2.43-.06,0-.12.03-.21.05,1.96,1.31,3.87,2.58,5.83,3.89ZM124.93,26.94c-.55.22-.99.47-1.47.56-1.4.27-2.81.46-4.21.71-.37.06-.72.21-1.08.32,0,.05.01.1.02.15.13.04.25.07.38.11,1.15.28,2.32.2,3.47.06.97-.12,1.81-.57,2.52-1.24.17-.16.25-.42.38-.66ZM85.7,47.5s-.09-.02-.13-.03c-.2-.95-.47-1.88-1.09-2.64-.61-.75-1.32-1.4-2.32-1.63.04.16.12.26.21.36.9.97,1.56,2.07,2,3.31.07.21.22.45.4.56.47.26.98.46,1.48.67.05.02.11.01.17.02-.14-.29-.27-.56-.4-.82.06-.03.11-.07.17-.1.31.34.62.68.94,1.01l.13-.05c-.03-.13-.03-.29-.1-.4-.18-.28-.4-.54-.59-.82-.17-.25-.31-.19-.46,0-.14.18-.27.37-.41.56ZM104.24,66.47s-.06-.02-.08,0c-.12.07-.31.13-.34.23-.05.16.02.34.04.52.13-.03.26-.09.39-.1.12,0,.28,0,.36.06,1.42,1.05,2.83,2.12,4.24,3.18.07.05.17.05.25.07,0-.09.04-.19,0-.26-.46-.8-.91-1.61-1.75-2.1-.13-.08-.27-.16-.36-.28-.7-.9-1.73-1.11-2.75-1.33ZM98.51,60.08c.62-.18,1.25-.8,1.47-1.36.58-1.51.71-3.05.26-4.61-.11-.38-.26-.76-.71-.94.01.21.07.41.16.59.1.19.24.37.36.55-.03.02-.06.05-.09.07-.13-.06-.25-.12-.46-.21.01.2,0,.33.04.45.1.34.46.69-.04,1-.03.02,0,.11-.01.16-.1.93-.2,1.86-.31,2.78-.02.13-.12.25-.17.37-.17.38-.33.75-.49,1.13ZM113.79,47.43c.15-.4-.96-2.45-1.75-2.96-1.11-.72-2.32-1.2-3.67-1.03.95.63,1.96,1.13,2.86,1.79.91.66,1.71,1.46,2.56,2.21ZM71.29,76.73c-.2-.5-.37-.94-.54-1.38.6-.29.12-.77.29-1.13-.14,0-.24-.01-.37-.02.36-1.37.86-2.63,1.61-3.75-.39-.36-.73-.67-1.09-1.01-.04.08-.08.12-.08.17-.23,2.08-.45,4.16-.68,6.24-.03.33.11.72-.36.8.49.51.97,1,1.49,1.53.25-.46-.15-.63-.31-.87-.18-.27-.39-.52-.59-.77.04-.03.08-.07.12-.1.15.08.29.17.51.29ZM55.41,61.25c.13.33.22.55.31.77.46,1.13.92,2.25,1.8,3.13.11.11.26.18.39.27.05-.15.15-.3.13-.44-.09-.76-.19-1.52-.34-2.27-.04-.19-.23-.4-.4-.51-.48-.3-1-.56-1.5-.83-.08-.04-.17-.05-.39-.12ZM111.58,27.97c-.03.21-.04.43-.11.64-.42,1.25-1.27,2.11-2.44,2.69-.17.08-.32.19-.48.28.03.07.07.14.1.21.24-.1.49-.16.7-.3,1.43-.95,2.9-1.79,4.63-2.06.17-.03.33-.1.52-.15-.99-.44-1.94-.86-2.93-1.3ZM51.54,127.14s.04.05.05.07c.33-.12.65-.29.99-.36.5-.1.91-.32,1.27-.68.39-.4.81-.77,1.21-1.17.39-.38.85-.52,1.38-.63,1-.19,1.8-.68,2.21-1.72.22-.56.6-1.07.97-1.55.68-.89,1.4-1.75,2.1-2.62.06-.08.07-.19.11-.29-.03-.02-.07-.04-.1-.06-.17.16-.37.29-.52.47-.62.73-1.24,1.45-1.82,2.21-.38.51-.76,1.05-.98,1.64-.26.69-.7,1.09-1.35,1.33-.39.14-.8.25-1.2.35-.48.12-.88.33-1.21.7-.29.32-.59.63-.89.94-.54.56-1.24.84-1.93,1.14-.11.05-.2.14-.29.22ZM56.93,73.56c-.05.02-.1.05-.15.07.86,1.66,1.06,3.48,1.28,5.38.52-.77.79-1.51.82-2.32.04-.97-.18-1.83-1.07-2.39-.21-.13-.37-.34-.56-.5-.1-.09-.21-.16-.31-.24ZM110.86,55.57c1.99-.95,3.78-3.26,3.21-5.76-.84,2.05-2.09,3.83-3.21,5.76ZM73.02,76.37s.08,0,.13,0c.08-.2.16-.4.23-.6.29-.87.57-1.75.87-2.62.1-.29.07-.45-.27-.5-.22-.03-.44-.08-.65-.17-.29-.13-.44-.02-.58.22-.18.32-.33.66-.55.94-.22.29-.17.49.06.72.4.41.6.9.62,1.47,0,.18.09.35.14.53ZM78.88,97.72s.09-.04.14-.06c-.02-.14-.04-.29-.07-.43-.16-.67.05-1.27.33-1.86.03-.07.14-.11.22-.16.04.09.1.19.11.28,0,.09-.05.19-.05.28-.02.47-.05.94-.05,1.41,0,.09.12.18.18.26.04-.11.1-.21.11-.32.02-.6-.03-1.21.04-1.8.11-1.02.08-1.08-.94-1-.11,0-.22.06-.33.06-.46.02-.63.31-.73.72-.22.86-.09,1.72-.06,2.57,0,.09.11.18.17.28.05-.02.1-.03.15-.05-.03-.19-.07-.37-.07-.56,0-.14.05-.27.08-.41.15.05.32.07.45.16.08.06.09.22.14.33.05.11.13.2.19.3ZM113.79,56.35l.13-.04c-.06-.28-.14-.55-.17-.83-.01-.13.06-.27.09-.41.12.04.27.06.37.13.45.34.74.79.87,1.34.04.18.18.33.28.49.05-.02.1-.04.15-.07-.1-.34-.2-.69-.3-1.03.68.15.45.96,1.06,1.22-.05-.24-.08-.41-.13-.67.32.23.57.41.9.65-1.1-1.26-2.12-2.43-3.2-3.67-.17.36-.3.66-.46.95-.06.11-.16.28-.24.28-.32,0-.38.18-.36.44.03.34-.08.75.46.89-.04-.39-.08-.74-.13-1.2.65.4.25,1.16.68,1.53ZM107.72,63.4c-.11.34-.22.66-.31.99-.02.05,0,.15.05.19.22.22.45.43.68.64-.11-.4-.22-.79-.32-1.18.07-.02.14-.04.2-.07.16.36.39.7.46,1.08.21,1.14.35,2.29.52,3.43.06.44.08.9.4,1.29.83-1.29-.05-5.52-1.68-6.37ZM63.24,118.74c-.48.65-.95,1.27-1.4,1.91-.2.28-.2.56.1.77.92.64,1.9,1.25,3.01,1.4.93.13,1.71.47,2.47.95.29.18.63.29.96.41.1.04.24-.02.36-.03,0-.04.01-.08.02-.11-.13-.09-.26-.21-.4-.27-1.18-.51-2.29-1.16-3.57-1.42-.6-.12-1.22-.36-1.74-.67-.82-.5-.85-.92-.29-1.68.19-.25.4-.47.59-.71.09-.11.17-.23.28-.38-.17-.07-.28-.12-.39-.17ZM99.07,54.39c-.05-.03-.11-.07-.16-.1-.77.83-1.83,1.45-1.92,2.78-.05.73-.03,1.44.22,2.22.61-.9,1.14-1.67,1.67-2.45-.05-.03-.09-.06-.14-.09-.22.34-.43.68-.68,1-.1.13-.29.19-.44.28.03-.16.01-.35.09-.47.33-.5.7-.98,1.03-1.48.14-.21.21-.47.31-.71-.05-.03-.1-.05-.15-.08-.65.38-.79,1.27-1.53,1.59.06-.3.15-.6.33-.82.33-.43.72-.82,1.07-1.24.11-.13.18-.29.27-.43ZM116,28.72c2.46-1.11,3.01-4.59,1.84-6.45-.05.32-.05.65-.04.97,0,.32.06.64.04.96-.03.54-.11,1.08-.16,1.63-.08.92-.65,1.59-1.12,2.31-.15-.22-.25-.36-.36-.51l-.14.05c-.02.32-.04.65-.06,1.04ZM96.61,72.54c.63.71,1.18,1.34,1.71,1.94.54-.7,1.07-1.37,1.56-2.01-1.03-.39-2.07-.08-3.27.06ZM71.76,79.21s-.08.06-.12.09c.11.18.22.36.38.64.25-.41.55-.71.61-1.06.31-1.66-.12-3.18-1.03-4.57-.01-.02-.05-.02-.1-.03-.02.08-.06.16-.05.23.06.62.1,1.25.21,1.87.15.83.37,1.65.55,2.48.03.16,0,.33,0,.53-.21-.08-.34-.13-.46-.19ZM75.16,42.81h-.18c-.17.23-.05.68-.47.75-.09-.14-.17-.27-.28-.43-.41,1.02-.06,3.34.58,3.68-.02-.23-.02-.41-.05-.59-.04-.29-.12-.58-.11-.87,0-.13.21-.24.33-.37.08.11.21.2.24.33.08.27.1.55.17.82.04.14.13.26.2.39.04-.01.09-.02.13-.04,0-.14.05-.29.03-.42-.09-.56-.18-1.13-.29-1.69-.1-.52-.21-1.03-.31-1.55ZM90.16,35.47s-.01.08-.02.12c.07.05.13.1.2.14.71.36,1.43.7,2.13,1.08,1,.54,1.91.12,2.88-.17-.34-.35-.57-.39-.84-.31-.56.16-1.13.27-1.7.38-.1.02-.22-.08-.33-.12,0-.05,0-.11,0-.16.56-.12,1.11-.23,1.68-.35-.46-.37-.74-.41-1.23-.28-.43.11-.88.16-1.32.22-.1.01-.21-.05-.32-.07,0-.05-.01-.11-.02-.16.36-.12.73-.24,1.18-.39-.86-.34-1.56.23-2.3.08ZM70.43,78.1c-.07.13-.15.23-.19.36-.19.62-.39,1.25-.56,1.88-.04.17-.04.46.05.52.18.11.48.19.66.12.46-.19.87-.48,1.27-.7-.42-.73-.81-1.43-1.23-2.17ZM51.39,72.5c2.07-1.99,4.51-3.52,6.73-5.37-.25,0-.48.04-.65.16-.51.35-1,.72-1.49,1.1-1.54,1.18-3.09,2.37-4.63,3.56-.23.17-.33.35.04.55ZM102.99,32.18c.23.72.31,1.43-.02,2.15.98-.35,1.87-.77,2.75-1.33-.94-.28-1.78-.53-2.73-.82ZM108.8,30.88l.11.07c.11-.06.23-.09.32-.17.85-.71,1.51-1.56,1.82-2.65.15-.54-.02-.81-.6-.92-.1.32-.16.65-.3.94-.32.66-.68,1.31-1.02,1.96-.13.24-.22.5-.33.76ZM21.11,123.73c.02.05.04.1.06.15,1.32-.08,2.63-.26,3.91-.63.53-.16,1.06-.39,1.6-.46,1.33-.16,2.68-.24,4.02-.37.24-.02.48-.09.71-.13,0-.05-.01-.1-.02-.15-.25.01-.49.02-.74.04-1.17.09-2.36.1-3.51.3-1.88.32-3.71.96-5.63,1.06-.14,0-.27.12-.4.18ZM67.45,75.74c-.43-.23-.64-.13-.95.19-.29.31-.67.53-1.03.78-.07.04-.2-.01-.3-.02.04-.11.05-.24.13-.31.17-.14.38-.23.56-.37.09-.07.13-.21.19-.32-.14-.01-.32-.08-.42-.02-.27.17-.51.39-.76.6-.19.16-.36.35-.59.57,1.23.33,2.34.11,3.44-.04.09-.01.18-.08.24-.16.15-.21.27-.44.42-.68-.2-.24-.4-.1-.59.05-.37.28-.74.57-1.19.91-.09-.79.63-.77.85-1.16ZM108.27,38.52s-.09.05-.13.07c-.41-.81-.72-1.71-1.78-1.87-.17.76.13,1.36.67,1.35-.06-.28-.12-.56-.18-.85.07-.02.15-.04.22-.06.11.33.21.66.34.98.08.2.16.44.32.54.57.38,1.16.72,1.76,1.05.25.14.54.23.77.32-.33-.32-.67-.65-1.01-.98.04-.04.07-.08.11-.12-.1.06-.2.11-.32.18-.24-.46-.46-.89-.69-1.31-.04.02-.08.04-.12.05.01.21.03.42.04.63ZM66.01,74.42s.09-.08.13-.12c.33.27.64.6,1.01.79.38.19.83.23,1.24.35.41.12.81.26,1.21.39-.65-.89-3.44-2.01-4.24-1.77.4.34.34,1.08,1.11,1.14-.18-.29-.32-.53-.47-.77ZM78.4,72.05c-.03.05-.07.1-.1.15-.15-.07-.33-.12-.46-.23-.18-.15-.32-.36-.49-.52-.18-.18-.37-.21-.58.02.29.29.55.55.81.81-.04.05-.07.11-.11.16-.17-.06-.35-.1-.49-.2-.26-.17-.48-.39-.74-.56-.11-.07-.26-.08-.4-.12-.02.04-.05.09-.07.13.18.22.4.43.53.67.14.26.33.3.58.3.84,0,1.59-.3,2.33-.63.14-.06.26-.19.38-.3,0,0-.08-.16-.09-.15-.16.05-.31.12-.47.18-.02,0-.05,0-.07,0-.3-.15-.56-.43-.96-.27.14.2.27.37.39.55ZM119.17,32.02c-.5-.34-.4-1.11-1.05-1.27-.04.65.05,1,.44,1.21.89.48,1.81.91,2.73,1.35.07.03.17,0,.33-.01-.25-.44-.53-.87-.95-.86-.39,0-.47-.15-.65-.39-.15-.2-.42-.31-.66-.48-.08.19-.12.29-.18.45ZM108.28,66.77c0-.1.01-.17.02-.23.06-.7-.46-1.07-.88-1.49-.06-.06-.16-.09-.24-.13-.04.09-.11.19-.12.29-.02.38-.02.75-.01,1.13.01.72.76,1.63,1.54,1.86-.1-.43-.08-.87-.55-1.12-.18-.09-.32-.28-.44-.45-.17-.25-.29-.52-.43-.79.05-.03.1-.06.15-.09.53.1.52.73.96,1.02ZM88.42,49.64c.41-.94-.41-3.02-1.39-3.62-.47.42-.44.58.14.89.03-.12.07-.25.1-.37.04,0,.09,0,.13,0,.42.72.39,1.48.09,2.26.31.28.62.56.94.84ZM105.03,68.17s.02-.09.03-.13c-.4-.15-.81-.3-1.29-.48.18.97.77,1.52,1.36,2.05.48.42,1.18.31,1.61-.25-.23-.21-.47-.19-.72-.04-.27.17-.55.26-.98.06.35-.17.62-.31.89-.44,0-.04.02-.08.03-.12-.17-.07-.34-.17-.51-.19-.28-.03-.56.02-.83,0-.08,0-.16-.12-.24-.18.08-.06.15-.13.23-.17.14-.05.28-.08.42-.12ZM110.92,50.91c.29-.88,1.18-1.09,1.77-1.68-.11-.05-.14-.07-.16-.07-.96.22-1.93.44-2.89.67-.06.01-.14.14-.12.18.03.07.12.14.2.16.47.1.94.18,1.2.74ZM87.78,38.21c.44.51.9.55,1.42.49.31-.04.64-.02.95,0,.08,0,.15.11.23.17-.09.05-.17.14-.26.16-.32.05-.64.07-1.02.11.35.35,1.5.31,2.18-.07-.62-.37-1.15-.83-1.76-1-.5-.14-1.1.07-1.74.14ZM79.39,71.14c-.31-.45-.72-.61-1.17-.65-.57-.06-1.14-.08-1.72-.09-.57-.01-.78.23-.72.91,1.16-.64,2.35-.25,3.6-.16ZM60.17,50.19c-.74-.13-2.1.37-2.21.83.58-.04,1.09.07,1.43.6.02.04.28,0,.31-.06.17-.45.32-.91.47-1.37ZM102.45,34.16c.62-1.18-.16-2.81-1.29-2.82.43.93.84,1.84,1.29,2.82ZM109.04,26.14c-.32.26-.53.49-.38.9.12.35.19.73.27,1.09.07.3.13.6.2.96.55-.5.09-1.04.23-1.54.11.02.22.05.33.08.28-.54.23-.91-.17-1.11-.05.22-.09.43-.15.7-.4-.31-.18-.72-.34-1.09ZM118.09,45.56c-.85.05-3.02,1.58-3.27,2.29.39-.08.65-.26.86-.57.09-.13.36-.31.38-.29.41.4.47-.07.63-.25.14-.16.27-.33.41-.49.03.02.06.05.09.07l-.03.46s.07.03.1.04c.26-.4.52-.8.82-1.26ZM64.28,116.81s0,.08.01.12c.17,0,.35,0,.52,0,1.05.03,2.01-.46,3.08-.42,1.17.04,2.35-.08,3.52-.12.14,0,.28,0,.43,0-2.55-.31-5.07-.17-7.56.42ZM54.13,119.26c1.7-.42,3.4-.83,5.1-1.25-1.5-.14-4.2.53-5.1,1.25ZM58.5,66.81s.09.07.13.1c.06-.02.13-.03.19-.07.83-.61,1.66-1.22,2.48-1.86.11-.09.13-.29.2-.44-.16.03-.35,0-.47.1-.75.55-1.5,1.12-2.23,1.7-.14.11-.2.31-.29.47ZM79.65,53.93c-.34-.53-.76-.72-1.26-.71-.13,0-.3.17-.37.31-.04.08.06.3.16.36.57.33,1.14.63,1.73.92.09.05.24-.02.36-.03-.06-.11-.09-.29-.19-.33-.24-.11-.5-.15-.75-.23-.23-.07-.46-.17-.69-.25.02-.07.03-.13.05-.2.29.05.58.1.95.16ZM109.61,73.64c.08.02.17.04.25.06.05-.17.12-.33.13-.5.03-.25,0-.5.04-.75.01-.08.14-.14.21-.21.07.09.2.18.2.26,0,.14-.09.28-.14.43-.05.16-.09.32-.14.49.04.03.08.05.13.08.33-.31.66-.63,1.05-1-.42-.24-.74-.46-1.09-.62-.09-.04-.34.05-.35.11-.11.55-.19,1.1-.28,1.65ZM97.29,74.01s-.08.02-.12.03c-.06.88-.13,1.77-.19,2.73.13-.09.2-.11.23-.16.24-.49.47-.98.68-1.48.04-.1,0-.28-.07-.39-.16-.26-.35-.49-.53-.74ZM113.38,33.08c-.31.55-.24.91.12,1.19.19.15.36.31.56.44.34.22.69.43,1.03.64l.08-.09c-.11-.36-.21-.72-.35-1.18-.15.23-.22.34-.31.48-.15-.34-.29-.64-.42-.94-.05.02-.1.03-.15.05v.65s-.07.01-.1.02c-.14-.4-.29-.79-.46-1.27ZM76.69,63.98l-.09-.05c-.07.08-.15.16-.21.25-.75,1.21-1.5,2.42-2.24,3.64-.09.15-.09.35-.13.53.14-.12.33-.22.42-.37.68-1.17,1.35-2.35,2.02-3.53.09-.15.16-.31.23-.47ZM79.24,57.58c-1.02.23-1.93.44-2.84.65.76.26,1.64-.25,2.25.64.21-.45.38-.82.59-1.29ZM84.43,49.59c0-.05-.02-.1-.03-.15-.24-.04-.48-.07-.71-.11-.23-.04-.51-.02-.53-.43.27.05.49.09.77.15-.29-.44-.78-.67-1.25-.58.28.69.55,1.35,1.08,1.94-.08-.56.38-.63.68-.81ZM66.6,63.11c.06.01.11.03.17.04.07-.21.15-.42.19-.64.09-.48.14-.96.22-1.45.07-.47.17-.93.23-1.4.02-.14-.05-.29-.07-.43-.07,0-.14,0-.2,0-.07,1.31-.63,2.55-.53,3.88ZM71.99,34.41c-1.08-.6-2.03-.1-2.31,1,.76-.33,1.51-.65,2.31-1ZM77.09,48.21c-.8-.2-1.46.47-1.76,1.47.58.44,1.21.47,1.63-.02-.25.04-.42.08-.58.08-.16,0-.37,0-.45-.1-.08-.09-.07-.35,0-.44.19-.23.45-.4.68-.59.16-.13.31-.26.47-.39ZM77.41,78.82c.34-1.25.67-2.43,1-3.65-.69.43-1.35,2.77-1,3.65ZM113.11,78.99c.38-.52.42-2.5.04-2.88-.17.37-.34.72-.51,1.08.04,0,.08-.01.13-.02.11.6.23,1.2.34,1.82ZM109.57,45.09l.02.07c-.11.04-.22.08-.33.11-.11.03-.22.05-.36.09.43.45.75.42,1.37-.09-.72-.47-1.38-1.09-2.38-.71.06.09.09.2.15.21.51.11,1.02.21,1.53.31ZM81.76,79.27c.6-.6.74-3.48.24-3.95-.08,1.29-.16,2.59-.24,3.95ZM88.85,37.56c-.27-.19-.45-.41-.65-.43-.57-.05-1.15-.02-1.73-.02.42.67,1.24.85,2.38.44ZM114.73,44.58h-.17c0,.6.05,1.21-.01,1.8-.06.56-.25,1.11-.38,1.67.05.02.09.03.14.05.22-.47.5-.91.64-1.4.2-.72.02-1.43-.21-2.11ZM89.45,60.27c.05-1.32-.29-2.49-.44-3.69-.33.42,0,3.1.44,3.69ZM72.93,70.32c-.68,1.01-1.14,2.03-1.54,3.12.13,0,.25-.04.3-.11.52-.71,1.36-2.64,1.24-3.01ZM59.61,47.26s-.08-.07-.12-.1c-.97.28-1.98,1.56-1.82,2.29.65-.73,1.29-1.46,1.94-2.19ZM94,43.65c-.54.94.11,2.44,1.25,2.55-.41-.49-.76-.91-1.12-1.34.17-.09.27-.14.33-.17-.17-.37-.33-.71-.47-1.03ZM62.02,85.74c-.92-.35-1.72.08-2.16,1.03.79-.2,1.51-.45,2.16-1.03ZM100.87,50.89c0,.07,0,.13.01.2,1.64-.25,3.28-.5,4.92-.75,0-.06-.02-.13-.03-.19-1.67.04-3.26.58-4.9.74ZM68.67,80.67c.23.04.36-.02.42-.3.07-.35.25-.69.3-1.04.02-.16-.16-.34-.25-.52-.1.11-.23.21-.29.34-.17.37-.28.76-.46,1.12-.15.31-.06.42.27.4ZM76.14,78.57s-.05-.07-.07-.11c-.22.1-.44.2-.66.31-.71.36-1.42.72-2.11,1.11-.17.09-.29.27-.43.42.2-.02.43,0,.59-.08.85-.47,1.69-.98,2.53-1.47.06-.04.1-.11.16-.17ZM55.12,61.96c.05-.6-.6-1.39-1.51-1.91.04.32-.02.65.12.79.4.4.87.71,1.39,1.11ZM56.88,74.93s-.09,0-.13,0c-.04.04-.09.08-.1.12-.23.67-.46,1.35-.66,2.03-.03.1.08.25.13.38.1-.08.26-.13.29-.23.2-.57.38-1.14.53-1.72.05-.18-.03-.38-.05-.58ZM55.18,75.15c.55-.3,1.17-2.12.79-2.57-.27.89-.93,1.59-.79,2.57ZM69.25,87.95c.68-.93,1.34-1.72,1.76-2.68-.67.34-1.85,2.08-1.76,2.68ZM72.87,64.72c-.1.15-.18.29-.27.43-.17.25-.31.54-.53.75-.39.37-.39.66.07.97.58-.76.96-1.8.73-2.15ZM90.85,73c-.06,1.17.06,2.23.13,3.29.36-.36.28-2.83-.13-3.29ZM73.38,44.45c-.07,0-.14,0-.22,0-.18.77-.25,1.54.06,2.3.05.13.25.2.38.29,0-.16.08-.35.01-.48-.27-.53-.3-1.07-.2-1.64.03-.16-.02-.32-.04-.48ZM91.06,51.76c.37-.89.34-2.1-.06-2.35,0,.78-.65,1.53.06,2.35ZM98.64,58.08c-.05-.03-.1-.05-.15-.08-.33.51-.7,1-.96,1.54-.08.17.13.48.23.72.01.03.17.03.18.02.08-.2.14-.41.2-.62,0-.01,0-.03,0-.04.04-.2.06-.41.13-.6.11-.32.26-.62.39-.93ZM55.51,76.56h.19c.29-.89.57-1.78.86-2.66-.13-.02-.18,0-.19.03-.33.67-.67,1.34-.96,2.03-.07.16.06.4.1.6ZM100.35,30.15c.54.56,1.4.71,2.19.31,0-.01,0-.04,0-.04-.19-.09-.37-.24-.56-.25-.56-.03-1.12-.01-1.63-.01ZM116.17,25c-.42.94.3,1.71.35,2.59.26-.92-.09-1.75-.35-2.59ZM116.55,23.85c-.32.2-.28.38-.17.62.2.45.37.92.54,1.39.08.22.13.45.19.68.18-.97-.06-1.84-.56-2.69ZM101.48,29.79c-.25-.36-1.78-.74-2.19-.55.25.4,1.52.71,2.19.55ZM111.45,51.32c.34-.22.61-.43.91-.58.31-.16.64-.26.96-.41.07-.03.12-.16.11-.24,0-.06-.14-.13-.21-.13-.72.03-1.51.62-1.77,1.36ZM95.4,55.8c.11.79-.12,1.53.28,2.31.41-.93.31-1.72-.28-2.31ZM96.37,54.79c-.24-.18-.42-.29-.56-.44-.16-.16-.32-.23-.45-.03-.1.15-.12.36-.18.54.15-.02.31-.03.46-.05.05,0,.1-.01.17-.02-.06.26-.37.49.02.79.19-.28.36-.54.54-.79ZM122.08,26.2c-.43-.03-1.37.77-1.51,1.28.67.05,1.22-.42,1.51-1.28ZM105.92,37.43c.1-.82-.51-1.46-1.18-1.34.07.73.74.89,1.18,1.34ZM110.25,71.38c.36.22.74.47,1.14.69.09.05.33.04.36-.02.12-.21.18-.45.28-.74-.66.03-1.27.06-1.79.08ZM96.49,76.06c-.56.47-1.05,1.76-.8,2.08.32-.66.99-1.16.8-2.08ZM79.92,58.83s-.08-.03-.12-.04c-.7.6-1.22,1.85-.93,2.38.36-.8.71-1.57,1.05-2.34ZM102.62,48.94c.46.34,1.62.12,1.99-.38-.25-.19-1.58.07-1.99.38ZM103.59,48.22s0-.09,0-.13h-2.11c-.01.06-.03.11-.04.17.18.1.38.29.55.27.54-.06,1.08-.2,1.62-.31ZM105.43,49.69c.74.28,1.38.07,2.02.01.07,0,.13-.14.2-.21-.07-.05-.14-.14-.22-.15-.66-.07-1.29.03-2,.34ZM71.15,84.14s-.1-.09-.14-.13c-.72.5-1.37,1.04-1.5,2.02.55-.63,1.09-1.26,1.64-1.89ZM53.81,61.55c.01.48.24.8.56.97.36.19.79.25,1.18.37.02-.06.04-.11.06-.17-.58-.38-1.16-.76-1.8-1.17ZM112.85,50.93c-.96.33-1.9,1.02-1.95,1.42.67-.14,1.92-1.03,1.95-1.42ZM76.36,44.61c-.14-.86-.2-1.63-.68-2.35-.2.35.29,2.05.68,2.35ZM98.01,82.35l.15.03c.08-.11.19-.22.23-.34.09-.25.16-.5.2-.76.01-.11-.09-.24-.14-.36-.15.07-.43.13-.44.22-.04.4,0,.81,0,1.21ZM64.84,75.66c-.04-.06-.07-.11-.11-.17-.17.07-.36.11-.5.21-.26.18-.51.38-.75.6-.09.08-.11.22-.17.33.14.02.32.1.4.04.39-.32.76-.67,1.13-1.01ZM117.05,35.91c.03-.06.06-.13.08-.19-.11-.08-.25-.24-.33-.22-.39.12-.55-.17-.77-.36-.16-.15-.32-.29-.51-.46-.16.35-.13.67.16.81.43.2.91.29,1.36.43ZM57.77,61.74s0,.08,0,.13c.17.07.41.23.49.18.42-.3.79-.65,1.18-.98-.03-.04-.06-.07-.09-.11-.69-.06-.99.65-1.58.79ZM96.22,48.44c-.36-.77-1.27-.69-1.73-1.25.07.54,1.12,1.29,1.73,1.25ZM57.33,76.5c-.07-.02-.14-.04-.2-.05-.09.25-.17.51-.27.76-.1.27-.22.53-.33.8.34.3.49.32.54.06.12-.52.18-1.04.26-1.57ZM94.05,45.9c.07.69.99,1.47,1.66,1.44-.44-.64-1.12-.87-1.66-1.44ZM81.79,44.26c-.14.62-.07.73.42.88.13.04.24.14.37.19.16.08.33.14.5.21.03-.05.06-.09.08-.14-.28-.57-1.01-.6-1.37-1.15ZM70.45,87.39c-.05-.04-.11-.08-.16-.13-.34.4-.69.78-1,1.2-.06.08.06.3.09.45.08-.03.2-.04.24-.09.29-.47.56-.95.83-1.43ZM105.79,49.07c-.23-.09-.45-.26-.6-.21-.46.14-.89.37-1.35.57.26.22,1.38,0,1.95-.36ZM73.27,67.29c-.59.52-.71,1.42-.29,1.86.29-.58.27-1.17.29-1.86ZM121.96,27.3c.66-.14.96-.58,1.29-1.04-.55-.23-1.05.17-1.29,1.04ZM111.49,73.93c-.63-.1-1.58.39-1.67.87.57-.36,1.3-.25,1.67-.87ZM84.42,51.17c.41.39.77.67,1.27.6.12-.02.21-.15.32-.23-.11-.12-.21-.34-.33-.35-.38-.05-.77-.02-1.26-.02ZM82,45.44s-.09.08-.13.13c.1.17.17.43.3.48.49.16,1,.25,1.5.37-.4-.66-1.21-.47-1.68-.97ZM96.59,56.47c.14-.35.28-.65.38-.97.03-.09-.02-.22-.07-.3-.02-.04-.16-.04-.22-.02-.55.26-.62.84-.09,1.29ZM83.99,47.28c-.18-.45-1.19-.85-1.6-.66.17.34,1.06.72,1.6.66ZM89.17,53.54c0-.06,0-.12,0-.18-.53-.07-1.07-.13-1.6-.2-.04.05-.07.1-.11.15.11.13.23.39.33.38.46-.01.92-.1,1.38-.16ZM107.94,28.52c-.19.62.08,1.86.46,2.19.08-.78-.19-1.44-.46-2.19ZM69.81,37.5s-.09.05-.13.07c-.07.57.54,1.58,1.08,1.63-.34-.6-.65-1.15-.95-1.69ZM54.39,62.9c.34.47.59.93,1.17.99.12.01.25-.09.37-.14-.09-.11-.15-.26-.26-.32-.38-.19-.79-.34-1.28-.54ZM96.41,56.97s-.04.01-.06.02c-.11.48-.24.97-.34,1.45-.06.32.1.54.4.67v-2.14ZM73.07,71.72c.17.22,1.19.68,1.32.58.12-.1.19-.29.24-.45.01-.04-.21-.2-.22-.19-.38.34-.73.11-1.1-.01-.05-.02-.12.04-.23.07ZM58.35,51.74s-.06.08-.09.12c.15.44.46.73.91.87.1.03.25-.07.37-.11-.05-.1-.07-.25-.15-.3-.34-.21-.69-.39-1.04-.58ZM36.28,121.3s0,.07,0,.11c1.17.09,2.4.05,2.98-.36-1.05.09-2.02.17-2.98.24ZM110.53,53.54c.64-.44,1.21-.84,1.78-1.24-.02-.03-.04-.06-.07-.1-.63.08-1.67.82-1.71,1.33ZM32.41,122.09s.02.07.03.11c1.01.03,1.96-.25,2.92-.48-.01-.05-.02-.11-.03-.16l-2.92.54ZM80.66,97.83c.33-.34.25-1.27-.14-1.64-.21.31-.11,1.42.14,1.64ZM119.13,27.68c.75.02,1.35-.47,1.58-1.3-.5.41-1,.82-1.58,1.3ZM72.61,63.66c-.07-.01-.14-.03-.22-.04-.17.6-.33,1.2-.5,1.81l.14.04c.23-.59.81-1.08.58-1.8ZM48.44,72.91c.56.14,1.47-.19,1.72-.65-.72-.03-1.18.41-1.72.65ZM73.59,71.12c0,.05,0,.11,0,.16.29.01.57.04.86.04.46,0,.59-.15.53-.68-.47.16-.94.32-1.41.48ZM90.13,75.81c.08,0,.16.01.24.02v-2.63s-.04,0-.06,0c-.06.87-.12,1.74-.18,2.62ZM96.68,74.89s-.1-.06-.14-.08c-.51.54-.99,1.11-1.1,1.89.04.02.07.04.11.06.38-.62.76-1.25,1.13-1.87ZM111.6,46.01c-.52-.51-1.15-.48-1.59,0,.53.45,1.01-.11,1.59,0ZM71.31,68.5c.14.54.56.78,1.1.65-.08-.5-.48-.75-1.1-.65ZM86.93,73.93c.11-.63.23-1.27.34-1.9-.49.42-.69,1.48-.34,1.9ZM110.01,26.05c.2.64,1,.71,1.54.15-.54-.05-1.01-.1-1.54-.15ZM44.03,72.62c.01.07.03.13.04.2.68.12,1.28-.12,1.87-.4-.01-.06-.03-.12-.04-.19l-1.87.39ZM80.89,66.61c-.62.26-1,.63-1.33,1.13.51.04,1.16-.5,1.33-1.13ZM92.87,40.37c-.35-.47-1.06-.42-1.59.14.51-.04,1.02-.09,1.59-.14ZM76.57,42.72s-.1.03-.14.04c.14.48.28.96.43,1.43.01.04.12.09.17.07.05-.02.11-.09.13-.15.07-.2-.37-1.24-.58-1.4ZM96.3,36.98c-.68-.14-1.17.15-1.73.32.45.3,1.15.18,1.73-.32ZM108.8,76.29c.69.15,1.52-.1,1.64-.47-.55.09-1.12-.01-1.64.47ZM88.08,52.37s0-.1,0-.15c-.41-.34-.73-.43-1.19-.29.07.16.12.44.2.45.32.04.66,0,.99,0ZM90.23,39.75c.32.36,1.24.26,1.71-.2-.64-.1-1.15.14-1.71.2ZM97.51,37.87c-.34-.59-1.05-.61-1.52-.07.52.03.98.05,1.52.07ZM82.27,66.8c.28.49.63.89,1.25,1.11-.22-.69-.69-.95-1.25-1.11ZM111.85,32.06l-.13.1c.33.48.66.95,1.04,1.5.15-.45.05-.88-.19-.89-.34-.02-.4-.24-.52-.46-.05-.09-.13-.16-.2-.24ZM77.43,48.71c.87.19,1.16.12,1.26-.25-.78-.25-1.11-.19-1.26.25ZM48.73,72.35c-.66-.03-1.15.31-1.63.69.68.1,1.12-.37,1.63-.69ZM108.29,27.24c-.3.4-.04,1.4.43,1.7-.14-.54-.27-1.07-.43-1.7ZM110.41,54.05s.05.07.07.1c.51,0,1.22-.57,1.2-1.05-.45.33-.86.64-1.27.94ZM62.4,75.7c-.03.05-.05.1-.08.15.16.14.37.42.46.38.27-.11.49-.34.74-.52-.02-.04-.05-.08-.07-.13-.35.04-.7.08-1.05.12ZM65.47,74.92c-.22-.34-.44-.67-.67-1-.03-.04-.15-.03-.22,0-.03.01-.05.14-.03.18.19.32.39.64.6.95.03.04.15.04.22.04.03,0,.05-.08.1-.16ZM96.47,77.73c-.28.44-.72.81-.61,1.41.31-.43.77-.78.61-1.41ZM58.2,60.99c-.52-.13-.86.2-1.26.47.19.1.43.2.56.13.26-.14.46-.39.69-.59ZM111.07,26.92c.35.34.88.38,1.3.14-.23-.38-.68-.43-1.3-.14ZM123.3,27.17c.35-.15.69-.3,1.09-.47-.57-.46-.92-.32-1.09.47ZM109.12,25.37c.22.54.44.57,1.47.22-.47-.07-.94-.14-1.47-.22ZM117.8,27.98s.05.08.08.13c.39.03,1.06-.51,1.24-1.11-.44.33-.88.65-1.32.98ZM64.51,74.95c-.2-.72-.51-1.05-.98-1.06.37.71.67,1.04.98,1.06ZM99.51,60.2c-.46.28-.48.87,0,1.34v-1.34ZM85.06,51.03c.21-.16.47-.3.46-.36-.05-.19-.21-.35-.33-.52-.13.16-.28.32-.36.5-.03.07.12.21.23.39ZM60.9,75.19l.03.14c.2-.02.41,0,.59-.08.05-.02,0-.3-.01-.46-.01-.11-.04-.23-.11-.31-.09-.11-.23-.18-.35-.26-.03.04-.06.08-.09.12.13.15.25.3.39.47-.17.14-.31.26-.46.38ZM79.3,63.03c.38-.38.66-1.01.59-1.34-.41.28-.72.97-.59,1.34ZM55.19,73.02c.57-.56.7-1.22.28-1.57-.09.53-.18,1.01-.28,1.57ZM86.04,60.26c.15-.56.09-1.17-.13-1.38-.26.39-.19,1.1.13,1.38ZM103.3,30.97c-.3-.21-.88-.11-1.2.18.36.25.79.2,1.2-.18ZM117.33,24.34l.21-.07c-.1-.35-.19-.7-.3-1.04-.01-.04-.16-.08-.21-.05-.07.04-.15.16-.13.21.13.33.28.64.43.96ZM110.97,75.19s-.02-.09-.03-.14c-.39-.14-1.21.07-1.55.47.59-.12,1.08-.23,1.58-.33ZM120.19,45.36c.48.1.99-.2,1.01-.52,0-.05-.19-.17-.21-.15-.25.19-.49.41-.79.66ZM119.06,45.17c-.05-.04-.1-.09-.16-.13-.28.37-.56.74-.85,1.11l.14.11c.49-.2.59-.71.86-1.09ZM112.23,27.47c.25.54.89.68,1.2.3-.43-.11-.81-.2-1.2-.3ZM71,66.91c.19-.63-.08-.94-.75-.93.26.32.47.58.75.93ZM75.97,116.44c.62.26,1.43.27,1.83,0h-1.83ZM108.51,70.59c-.35-.47-.78-.47-1.23,0h1.23ZM79.53,64.22l.14.04c.36-.2.46-.71.14-1.19-.09.38-.19.77-.28,1.15ZM109.88,51.36c-.5.41-.46.81.05,1.1-.02-.4-.04-.75-.05-1.1ZM98.87,52.92c-.2.48-.36.86-.56,1.33.71-.44.85-.74.56-1.33ZM77.26,96.38c-.05,0-.1,0-.15,0-.33.55-.36.93,0,1.29.06-.48.11-.89.15-1.29ZM54.25,58.53l.09-.04c0-.22.03-.44-.01-.65-.02-.12-.17-.2-.26-.31-.07.13-.22.28-.19.37.08.22.24.42.37.62ZM107.48,70.06s-.02-.1-.03-.15c-.38-.14-.86,0-1.12.45.39-.1.77-.2,1.16-.3ZM67.83,82.08c.47.04.59-.25.71-.5.03-.07-.04-.19-.07-.29-.11.03-.27.03-.31.1-.13.19-.2.41-.33.68ZM98.86,61.47c-.04-.36-.06-.58-.09-.9-.27.18-.47.3-.76.49.32.16.53.26.85.41ZM96.17,80.07c.05.01.1.02.16.03.09-.33.18-.65.27-.98-.5.29-.62.65-.42.94ZM111.2,46.37c0,.06-.01.12-.02.18.24.05.48.11.72.12.07,0,.15-.15.23-.24-.11-.07-.22-.19-.33-.19-.2,0-.4.08-.6.12ZM70.89,81.2c.44.15.97-.2,1.06-.68-.35.23-.71.45-1.06.68ZM99.69,28.76s.04-.07.06-.11c-.34-.21-.68-.42-1.02-.64.1.52.46.74.96.74ZM95.05,55.14c-.35.25-.33,1.1,0,1.51v-1.51ZM95.07,51.96c.02.07.04.14.06.21.48-.17.96-.34,1.44-.51-.02-.06-.04-.12-.06-.18-.48.16-.96.31-1.45.47ZM99.06,51.26s-.02-.08-.02-.12c-.41.08-.82.16-1.33.25.38.26,1.03.15,1.35-.13ZM100.51,36.44c.04.06.08.11.12.17.43-.31.86-.62,1.29-.93-.03-.05-.07-.09-.1-.14-.44.3-.88.6-1.32.9ZM112.4,77.71l-.13-.07c-.14.17-.32.33-.39.53-.03.1.15.27.24.4.05,0,.1-.02.15-.03.04-.28.08-.56.13-.84ZM55.74,64.4c.35.22.67.42.99.62-.3-.72-.49-.83-.99-.62ZM110.04,50.55s-.07.07-.1.1c.12.42.51.77.95.7-.33-.31-.59-.56-.85-.81ZM82.77,78.7c.37-.23.45-.75.15-1.13-.05.38-.1.76-.15,1.13ZM104.02,31.69s.05-.09.07-.14c-.14-.07-.28-.19-.42-.19-.18,0-.36.12-.54.19.02.05.03.1.05.14h.84ZM93.6,41.02c-.28-.44-.7-.46-1.15-.06.41.02.74.04,1.15.06ZM72.15,68.02c-.23-.21-.39-.35-.55-.5-.08.12-.24.27-.21.34.11.29.36.28.76.16ZM96.72,74.03c-.05-.05-.11-.09-.16-.14-.42.16-.51.57-.68.91.03.03.07.05.1.08.24-.29.49-.57.73-.86ZM89.47,63.62l-.03.14c.25.27.62.31.98-.02-.32-.04-.64-.08-.96-.12ZM78.01,85.57s-.1.03-.15.05c-.06.64.04.93.44,1-.1-.37-.2-.71-.29-1.05ZM83.2,54.35s-.07-.05-.1-.08c-.45.35-.74.83-.64,1.2.27-.42.51-.77.74-1.12ZM108.73,76.94c.03.09.06.18.09.26.34-.12.68-.25,1.01-.37-.02-.06-.04-.12-.06-.18l-1.04.3ZM69.42,76.35c-.39-.34-.69-.25-.97.24.37-.09.67-.17.97-.24ZM71.15,63.02c.06.01.12.03.18.04.07-.16.18-.32.18-.47,0-.11-.16-.22-.26-.33-.05.02-.09.05-.14.07.01.23.03.46.04.7ZM110.4,55.33c.29-.32.51-.55.79-.86-.59.05-.85.32-.79.86ZM90.41,53.61s-.01-.09-.02-.14c-.26.02-.53.03-.79.07-.06,0-.11.11-.17.18.07.03.14.1.2.09.26-.05.52-.13.78-.19ZM104.43,36.09s.08-.09.12-.13c-.09-.33-.29-.53-.61-.61-.04.04-.08.08-.12.13.2.2.41.41.61.61ZM113.83,49.49c-.37-.3-.66-.2-.84.27.32-.1.58-.19.84-.27ZM114.36,55.81c-.05.02-.1.04-.15.05.07.3-.05.69.35.83.05-.02.09-.04.14-.06-.11-.27-.23-.55-.34-.82ZM79.4,86.75c-.33-.23-.56-.4-.86-.61.17.65.25.71.86.61ZM90.37,72.67s.09-.02.14-.04c.12-.47.06-.65-.34-.82.07.32.14.59.2.85ZM102.93,35.15c.22-.13.42-.24.62-.36-.68-.19-.73-.16-.62.36ZM89.71,47.04v.85c.42-.36.43-.49,0-.85ZM97.1,81.68c.25-.22.25-.42.08-.61-.03-.04-.21-.03-.23.01-.14.23-.08.43.15.6ZM80.73,64.63l-.13-.21c-.16.11-.32.21-.47.33-.01,0,.08.15.12.22.16-.11.32-.23.49-.34ZM82.44,44.25c-.22-.28-.38-.47-.57-.7-.16.48-.11.54.57.7ZM105.78,42.02l.17-.1c-.16-.25-.31-.5-.47-.76-.06.04-.12.08-.18.12.16.25.32.5.48.75ZM84.4,75.76l-.13-.05c-.37.19-.39.29-.06.66.08-.23.14-.42.2-.61ZM83.56,78.78c.31-.53.31-.73,0-1v1ZM57.01,60.86s-.03-.07-.05-.11c-.23.08-.46.17-.69.25.36.31.55.08.75-.14ZM66.67,67.06c.02-.08.05-.16.07-.23-.17-.05-.33-.11-.5-.15-.02,0-.06.15-.1.23.18.05.35.1.53.15ZM94.78,53.72c-.09.15-.19.25-.17.3.05.11.16.19.24.29.07-.08.22-.17.21-.23-.02-.11-.14-.19-.28-.36ZM108.9,24.6c-.03.06-.06.12-.09.18.08.34.41.19.64.21l.05-.1c-.2-.1-.41-.19-.61-.29ZM71.09,78.2s-.07.09-.11.14l.64.5.11-.15c-.22-.16-.43-.32-.65-.49Z" fill="#000" stroke-width="0"/><path d="M115.61,71.55c.43.41.85.76,1.22,1.16.39.42.75.87,1.11,1.32.85,1.06,1.08,2.35,1.26,3.64.2,1.43-.47,2.57-1.29,3.65-.21.28-.41.57-.63.84-.09.11-.24.25-.34.23-.11-.02-.24-.18-.29-.31-.06-.13-.07-.3-.06-.45.11-1.11-.29-2.1-.77-3.04-.65-1.27-1.08-2.61-1.42-3.98-.22-.88-.16-1.79.06-2.67.08-.31-.02-.42-.3-.44-.27-.02-.53,0-.8-.03-.23-.02-.47-.08-.43-.39.03-.29.25-.34.5-.32.36.04.72.09,1.09.11.22.01.45,0,.66-.05.09-.02.16-.13.24-.21-.08-.08-.15-.22-.25-.24-.95-.19-1.59-.79-2.1-1.56-.69-1.03-1.43-2.05-1.72-3.29-.03-.14-.08-.27-.09-.41-.02-.57,0-1.15-.5-1.59.41-.3.81-.18,1.18-.12,1.37.22,2.54.89,3.56,1.78.69.6,1.02,1.46,1.12,2.38.03.31.06.61.18.96.08-.2.18-.4.23-.61.31-1.21.74-2.38,1.36-3.47.26-.46.53-.96.92-1.29.39-.32.93-.47,1.42-.66.35-.13.73-.2,1.09-.31.43-.13.67.05.64.52-.04.69-.1,1.37-.09,2.06,0,.95-.18,1.88-.59,2.68-.4.77-1.06,1.44-1.69,2.06-.47.46-1.09.76-1.66,1.15.88.2,1.75.38,2.61.58,1.71.42,3.06,1.39,4.01,2.84.32.48.39,1.15.49,1.74.07.39-.12.5-.51.4-1.38-.36-2.76-.71-4.12-1.11-1.45-.43-2.52-1.41-3.42-2.6-.19-.24-.34-.51-.51-.77-.22-.31-.81-.42-1.33-.19ZM116.02,70.69c2.55.29,6.42-3.7,5.69-5.78-.48.35-.95.74-1.48,1.05-.35.2-.43.45-.43.88.5-.31.95-.59,1.49-.92-.02.22,0,.32-.03.37-.44.57-1.06.89-1.72,1.15-.05.02-.24-.14-.26-.25-.03-.12.02-.28.06-.41.37-.97.76-1.94,1.14-2.91.09-.23.14-.47.48-.5.11,0,.2-.26.35-.46-.93.09-1.42.34-1.88.92-.69.87-1.09,1.87-1.49,2.89-.52,1.37-.81,2.86-1.93,3.93,0,0,0,.03,0,.04ZM117.17,78.47h-.17c-.27-.82.28-1.71-.2-2.61-.11.41-.19.72-.27,1.03-.06,0-.11.01-.17.02-.05-.18-.15-.36-.13-.52.04-.37.15-.74.2-1.11.02-.18-.03-.38-.05-.57-.05,0-.1,0-.14,0-.05.16-.09.34-.17.49-.06.13-.18.23-.27.35-.05-.17-.17-.34-.15-.5.03-.26.17-.5.23-.76.07-.27.09-.55-.23-.78-.03.16-.03.29-.08.39-.06.12-.17.21-.26.31-.05-.13-.15-.26-.14-.39.02-.19.09-.38.18-.56.12-.25.13-.48-.03-.71-.18-.26-.2-.5.15-.73-.2-.13-.35-.23-.54-.35-.04.48-.09.87-.11,1.26-.02.47-.09.96,0,1.42.12.64.32,1.27.55,1.89.39,1,.83,1.98,1.24,2.98.28.68.64,1.35.4,2.13-.03.09.02.2.04.32.57-.45.81-3.31.33-4.03-.08.39-.14.72-.21,1.05ZM124.8,74.89s.06-.03.08-.05c-.1-.18-.18-.38-.31-.54-.62-.82-1.39-1.48-2.28-1.95-1.51-.8-3.2-1.01-4.86-1.34-.08-.02-.25.05-.25.08,0,.12.02.25.08.35.64,1.06,1.52,1.89,2.53,2.59.08.05.18.07.36.13-.3-.57-.56-1.05-.86-1.63-.06.28-.09.43-.12.58-.04.01-.09.03-.13.04-.15-.3-.32-.59-.43-.9-.09-.26.03-.42.34-.3.36.14.73.29,1.09.44.37.15.75.43,1.12.43.79,0,1.34.41,1.91.83.57.42,1.15.83,1.73,1.25ZM114.9,68.66c.05-.05.1-.09.15-.14-.19-.2-.36-.42-.57-.59-.44-.34-.92-.64-1.36-.98-.11-.08-.15-.26-.22-.39.15,0,.33-.02.46.04.16.08.27.23.41.35.08.07.18.13.27.19.02-.03.05-.06.07-.09-.32-.41-.54-.92-1.16-1.04-.2-.04-.4-.19-.57-.33-.06-.05-.04-.19-.06-.3.1,0,.21-.02.3.02.16.07.3.18.45.27.03-.04.05-.08.08-.12-.51-.46-1.01-.91-1.52-1.37.08.62.18,1.26.43,1.83.31.7.76,1.33,1.12,2.01.44.82,1.07,1.42,1.88,1.85.11.06.25.08.37.11.03-.04.06-.07.09-.11-.13-.18-.23-.39-.39-.53-.3-.25-.64-.45-.94-.7-.1-.09-.13-.26-.19-.4.15.03.32.03.45.1.16.08.28.21.42.31ZM115.84,69.76c.56-.34.53-1.54-.02-3.02-.41-1.13-2.71-2.79-3.66-2.65.35.6.73.81,1.25.65.23.52.46,1.05.7,1.58.09-.15.08-.28.12-.4.03-.12.11-.22.17-.33.07.1.18.2.19.31.04.4.03.81.07,1.21.02.17.13.34.19.51.06-.02.11-.03.17-.05-.02-.23-.07-.45-.06-.68,0-.14.09-.28.14-.41.08.11.21.22.23.34.05.44.05.89.1,1.34.02.16.14.31.22.46.03-.01.06-.03.09-.04.04.37.08.75.12,1.17ZM118.48,76.88c-.29-1.5-.82-2.85-2.35-3.6.02.11,0,.23.04.28.22.26.44.54.69.76.27.24.61.41.56.95-.25-.21-.43-.36-.61-.5.31.92.79,1.67,1.66,2.11ZM124.91,75.6s.04-.07.07-.11c-.48-.32-.94-.8-1.46-.91-.46-.09-.64-.35-.89-.62-.26-.28-.56-.52-1.01-.54.83,1.2,1.74,2.19,3.3,2.17ZM117.74,76.96c.04.17.07.32.12.46.13.35.28.7.39,1.06.05.15.07.34.04.49-.09.41-.21.82-.31,1.23.45-.36.72-1.15.73-1.91,0-.89-.06-.98-.95-1.33ZM120.45,65.24c.11,0,.16.02.19,0,.37-.24.73-.48,1.09-.73.04-.03.07-.09.07-.14.03-.5.06-1.01.08-1.51-.03,0-.05-.02-.08-.03-.44.79-.88,1.57-1.35,2.41ZM120.1,72.83c-.12.79.41,1.66,1.09,1.77-.36-.59-.73-1.18-1.09-1.77ZM122.37,74.94c-.48-.6-.94-1.17-1.39-1.74-.03.02-.06.05-.09.07.22.46.42.93.67,1.36.16.28.46.38.81.31ZM115.76,72.3s-.06.06-.1.1l.83.79s.06-.07.1-.1c-.28-.26-.56-.52-.84-.79Z" fill="#000" stroke-width="0"/><path d="M95.67,69.97c.04-.08.11-.18.11-.27.03-1.14.04-2.3-.57-3.3-.63-1.04-1.33-2.06-2.65-2.36-.19-.04-.39-.04-.57-.11-.12-.05-.22-.18-.32-.27.13-.09.27-.27.38-.25.52.1,1.1.14,1.51.42,1.56,1.05,2.6,2.46,2.75,4.43.05.68.08,1.32-.21,1.97-.09.21.03.5.04.76,0,.19,0,.38,0,.57-.24-.06-.64-.04-.71-.18-.25-.5-.72-.65-1.15-.9-1.83-1.08-3.24-2.52-3.66-4.71-.04-.22-.06-.6.04-.65.27-.12.6-.14.91-.14.18,0,.36.11.59.1-.11-.14-.23-.26-.31-.41-.05-.09-.01-.22-.01-.33.11,0,.26-.02.34.04.13.1.22.25.33.38.25.28.5.56.74.84.05.06.11.12.15.2.73,1.39,1.46,2.79,2.19,4.18,0,0,.03,0,.08.02ZM94.39,68.66c.04-.05.08-.11.11-.16-.17-.13-.33-.31-.52-.37-.5-.17-1.02-.29-1.53-.43-.23-.06-.43-.16-.33-.56.57.14,1.13.29,1.7.43-.12-.5-.41-.78-.95-.89-.34-.07-.69-.11-1.03-.17-.39-.08-.51-.3-.35-.65.49.14.97.29,1.46.44.02-.05.03-.1.05-.15-.48-.63-1.27-.55-1.92-.87-.01.13-.04.2-.03.27.2,1.12.67,2.1,1.57,2.83.06.05.18.06.27.07.28.03.57.04.85.07.22.03.43.09.64.14ZM95.19,70.36s.05-.08.07-.11c-.31-.88-1.35-1.51-2.27-1.38.18.34.47.48.79.62.33.14.62.38.93.57.16.1.32.2.48.3Z" fill="#000" stroke-width="0"/><path d="M85.27,83.12c-.19.07-.37.13-.54.19.06-.23.06-.58.2-.67.55-.33.39-.87.48-1.34.01-.06-.04-.12-.09-.29-.26.48-.47.88-.71,1.27-.08.12-.23.2-.35.29-.02-.16-.12-.37-.06-.48.25-.43.55-.83.83-1.25.15-.23.3-.47.45-.7-.05-.04-.1-.07-.15-.11-.29.34-.58.67-.87,1.01-.05-.03-.11-.06-.16-.08.04-.17.05-.37.14-.51.27-.42.57-.83.88-1.23.08-.1.25-.13.38-.2.05.13.13.25.13.38-.04,1.3-.1,2.6-.15,3.9,0,.17-.02.33.05.55.15-.2.27-.42.45-.6.11-.11.29-.14.44-.21,0,.16.05.37-.03.48-.35.47-.73.92-1.14,1.35-.08.08-.34.08-.46.01-.68-.42-1.08-1.08-1.41-1.79-.13-.27-.2-.58-.25-.88-.02-.1.1-.23.16-.35.09.08.22.15.27.25.33.63.64,1.27.99,1.89.07.13.3.18.46.26.02-.16.05-.32.05-.49,0-.24,0-.49,0-.67Z" fill="#000" stroke-width="0"/><path d="M92.74,33.35c2.24-.05,4.04.86,5.55,2.45.32.33.49.75.44,1.23-.01.1-.1.2-.15.3-.07-.07-.19-.13-.21-.22-.19-.67-.62-1.16-1.16-1.56-1.11-.82-2.27-1.47-3.72-1.58-1.19-.09-2.27.17-3.37.52-.19.06-.43,0-.65-.02.15-.17.28-.45.47-.5.92-.28,1.85-.5,2.78-.74,0,.04.02.09.02.13Z" fill="#000" stroke-width="0"/><path d="M93.58,41.78c-.14.22-.2.35-.29.46-.97,1.16-1.93,2.32-2.92,3.47-.16.19-.42.29-.63.44-.04-.05-.09-.09-.13-.14.09-.14.17-.29.27-.41.93-1.08,1.87-2.16,2.81-3.23.21-.24.39-.53.88-.59Z" fill="#000" stroke-width="0"/><path d="M84.59,79.33c-.06-.23-.11-.33-.09-.37.22-.36.45-.72.7-1.07.03-.05.22-.04.28,0,.06.05.12.22.09.27-.29.37-.6.72-.98,1.17Z" fill="#000" stroke-width="0"/><path d="M91.78,51.91c.19-.17.32-.28.46-.4.08.1.26.24.23.3-.07.19-.21.35-.33.53-.1-.11-.19-.23-.36-.43Z" fill="#000" stroke-width="0"/><path d="M100.55,31.88c-.22-.2-.44-.39-.65-.6-.05-.05-.01-.17-.02-.27.09,0,.21-.02.26.03.21.21.4.44.6.67-.06.06-.13.11-.19.17Z" fill="#000" stroke-width="0"/><path d="M90.11,65.96c-.14-.21-.28-.33-.28-.43,0-.1.16-.24.27-.27.07-.02.27.15.27.21-.01.14-.13.26-.26.49Z" fill="#000" stroke-width="0"/><path d="M121.04,54.04c-.62-.42-1.24-.82-1.85-1.25-.32-.22-.62-.48-.91-.74-.14-.13-.23-.33-.32-.51-.01-.02.14-.18.18-.17.18.05.36.14.53.22.11-.06.27-.16.44-.24.02,0,.16.18.15.19-.1.11-.23.21-.35.32.62.78,1.77,1.03,2.28,1.97-.05.07-.1.13-.16.2Z" fill="#000" stroke-width="0"/><path d="M118.69,51.12c-.2-.15-.35-.28-.51-.4.12-.08.25-.22.36-.21.22,0,.55-.05.57.3,0,.08-.24.18-.43.31Z" fill="#000" stroke-width="0"/><path d="M116.38,48.85c.12.11.24.22.36.34-.08.05-.18.17-.23.15-.15-.06-.3-.15-.41-.28-.04-.04.05-.2.08-.3.07.03.13.06.2.09Z" fill="#000" stroke-width="0"/><path d="M65.43,58.94c-.16.61-.28,1.14-.44,1.66-.03.09-.24.2-.31.17-.11-.05-.23-.21-.23-.32.02-.39.07-.78.17-1.15.06-.21.23-.39.39-.56.05-.05.22-.04.3,0,.08.05.1.18.11.2Z" fill="#000" stroke-width="0"/><path d="M80.51,75.85c-.11.24-.2.46-.32.66-.04.06-.2.12-.23.09-.08-.06-.16-.18-.15-.26.03-.2.08-.41.17-.6.04-.09.21-.22.27-.19.1.05.16.19.26.31Z" fill="#000" stroke-width="0"/><path d="M116.11,41.98c.09.46.17.85.25,1.25.05.01.09.02.14.03.3-.99.6-1.99.88-2.93.15-.11.3-.24.47-.35.11-.07.23-.12.34-.17,0,.12.05.26.01.37-.39.97-.77,1.94-1.2,2.9-.29.65-.63,1.27-.95,1.9-.04.08-.12.15-.27.33-.18-.93-.35-1.75-.51-2.58.07-.03.13-.05.2-.08.09.2.2.39.27.6.08.22.12.45.22.81.17-.24.28-.39.39-.55-.56-.42-.67-1.01-.23-1.53Z" fill="#000" stroke-width="0"/><path d="M116.45,42.13c-.01-.36-.03-.72-.04-1.08,0-.04.1-.13.13-.12.07.02.18.09.18.14,0,.35-.03.71-.05,1.06-.07,0-.15,0-.22,0Z" fill="#000" stroke-width="0"/><path d="M43.84,72.22c-.18-.14-.32-.25-.46-.36.11-.06.24-.19.33-.17.15.05.28.19.41.29-.08.07-.16.14-.28.24Z" fill="#000" stroke-width="0"/><path d="M87.63,58c-.03-.34-.07-.69-.08-1.03,0-.06.09-.15.15-.16.06-.01.18.06.19.11.08.37.13.74-.07,1.09-.06,0-.13,0-.19,0Z" fill="#000" stroke-width="0"/><path d="M89.41,72.7c-.04.23-.07.47-.14.69-.03.09-.17.18-.26.19-.06,0-.2-.14-.19-.22.01-.36.05-.72.11-1.07.01-.07.16-.18.23-.18.08.01.19.12.22.21.04.11,0,.25,0,.37.01,0,.02,0,.03,0Z" fill="#000" stroke-width="0"/><path d="M88.38,73.14s0,.09-.01.12c-.07.16-.14.32-.21.49-.1-.17-.19-.33-.28-.51-.02-.03-.02-.09,0-.12.09-.18.19-.36.29-.54.1.17.2.34.3.51-.03.01-.06.03-.08.04Z" fill="#000" stroke-width="0"/><path d="M99.57,56.93c.48.22.46.54.39.95-.41-.21-.41-.53-.39-.95Z" fill="#000" stroke-width="0"/><path d="M78.78,95.82c-.16.21-.29.39-.42.56-.09-.14-.27-.31-.24-.41.05-.2.23-.37.36-.55.09.12.18.23.31.4Z" fill="#000" stroke-width="0"/><path d="M75.1,44.1c-.2.17-.33.3-.48.39-.02.01-.23-.2-.22-.22.1-.15.22-.29.36-.4.02-.02.17.11.34.23Z" fill="#000" stroke-width="0"/><path d="M118.9,68.18c.31-.18.5-.32.71-.4.12-.05.28,0,.42,0-.06.12-.09.3-.19.35-.39.2-.81.36-1.22.54-.16.07-.31.16-.47.23.02.05.04.1.06.15l.98-.22s.03.09.04.13c-.59.54-1.42.55-2.07.96-.05-.1-.07-.13-.07-.15.5-.75.64-1.69,1.35-2.32.08-.07.12-.21.16-.33.18-.66.34-1.33.52-1.99.02-.09.04-.2.09-.27.06-.08.16-.13.24-.19.04.1.13.22.11.31-.15.68-.34,1.35-.49,2.04-.08.35-.1.7-.17,1.16Z" fill="#000" stroke-width="0"/><path d="M118.21,72.35c-.14-.27-.29-.53-.42-.8-.02-.04.05-.16.07-.16.1,0,.27.02.29.08.11.26.18.53.26.8-.07.03-.14.06-.21.08Z" fill="#000" stroke-width="0"/></svg>