<?xml version="1.0" encoding="UTF-8"?><svg id="Layer_1" xmlns="http://www.w3.org/2000/svg" viewBox="0 0 144.57 144.57"><path d="M55.05,81.11c.03.07.07.13.09.2,0,.01-.06.05-.09.08,0-.09,0-.18,0-.27Z" fill="#000" stroke-width="0"/><path d="M66.76,100.28c-.59-.26-1.19-.41-1.82-.44-2.15-.11-3.68.84-4.7,2.7-.27.5-.57.99-.89,1.46-.34.49-.82.77-1.41.89-.62.13-1.13-.04-1.51-.55-.25-.33-.47-.7-.7-1.05-.07-.1-.13-.24,0-.31.07-.04.24,0,.3.06.17.17.3.37.44.56.1.15.18.32.29.45.3.35.68.47,1.13.35.47-.13.84-.4,1.13-.78.22-.3.42-.62.61-.94.18-.29.34-.6.51-.9.89-1.56,2.28-2.28,4.03-2.39.34-.02.68,0,1.03-.04-.84-.6-1.57-1.29-2.21-2.14-.24.08-.48.14-.72.23-.31.11-.62.22-.93.35-.9.37-1.8.39-2.73.1-.4-.13-.81-.23-1.21-.33-1.16-.28-2.18-.01-3.01.84-.47.48-.89,1.01-1.34,1.51-.43.48-.87.95-1.32,1.41-.12.12-.29.29-.46.1-.17-.18,0-.31.13-.45.61-.7,1.21-1.41,1.83-2.11.28-.32.55-.63.86-.92.95-.91,2.07-1.22,3.36-.91.51.12,1.02.24,1.53.37.66.17,1.31.15,1.95-.05.57-.18,1.13-.37,1.76-.58-.64-.89-1.22-1.75-1.86-2.55-.82-1.02-1.92-1.34-3.19-1.09-.63.12-1.19,0-1.72-.32-.22-.13-.43-.27-.65-.4-.13-.08-.26-.15-.4-.21-.52-.22-.68-.15-.91.35-.03.06-.06.13-.09.19-.38-.15-.49-.46-.28-.77.2-.29.5-.4.83-.34.31.06.61.16.89.29.31.14.6.34.9.5.39.22.82.31,1.26.2,1.62-.43,2.86.22,3.84,1.43.56.68,1.02,1.45,1.5,2.19.19.29.37.44.75.39,1.01-.12,1.92.21,2.76.76.12.08.24.16.32.22.31-.28.59-.53.89-.8-.05-.09-.12-.2-.18-.32-.51-.97-.32-2.01.5-2.73.23-.2.47-.37.72-.54.43-.3.68-.71.76-1.22.03-.16.05-.33.1-.48.02-.07.11-.12.16-.19.07.07.17.12.19.2.04.14.07.3.05.44-.06.63-.31,1.16-.84,1.53-.26.18-.53.34-.78.53-.76.57-1.05,1.57-.71,2.41.16.39.16.39.6.38.16,0,.33,0,.47,0,.05-.04.08-.05.09-.07.44-1.01,1.17-1.8,1.9-2.6.83-.91,1.68-1.8,2.38-2.82.58-.84,1.1-1.72,1.42-2.7.5-1.54.47-3.09.04-4.61-.42-1.49-.91-2.95-1.41-4.41-1.48-4.41-2.67-8.9-3.51-13.48-.03-.15-.07-.29-.1-.43-.04-.02-.07-.05-.09-.04-.97.32-1.89.1-2.81-.21-1.79-.59-3.43-1.49-5.03-2.47-1.85-1.14-3.69-2.31-5.56-3.41-1.41-.83-2.89-1.52-4.4-2.15-1.21-.5-2.47-.58-3.75-.49-.87.06-1.74.13-2.61.13-1.08,0-2.11-.21-3.03-.83-.55-.37-.94-.87-1.26-1.44-.29-.52-.57-1.05-.87-1.57-.3-.52-.71-.92-1.25-1.19-.34-.17-.67-.34-1-.5-1-.5-1.48-1.3-1.46-2.43.01-.55-.07-1.11-.07-1.66.03-2.98.89-5.7,2.67-8.11.28-.37.57-.74.84-1.11.48-.65.84-1.36.98-2.15.34-1.98,1.36-3.54,2.95-4.73,1.2-.9,2.42-1.77,3.66-2.61,1.17-.79,2.51-1.11,3.91-1.18,2.38-.11,4.6.53,6.75,1.46,1.28.55,2.55,1.13,3.81,1.73,1.8.85,3.69,1.42,5.62,1.87,1.24.29,2.48.59,3.67,1.05.96.37,1.86.85,2.65,1.5.16.13.29.16.49.1,2.01-.62,3.98-1.32,5.81-2.38.52-.3,1.04-.61,1.51-.98,1.05-.84,2.17-.95,3.38-.46.53.21,1.05.43,1.58.66.98.43,2,.62,3.07.5.39-.04.76-.15,1.15-.21.44-.08.88-.17,1.33-.21.86-.08,1.59.27,2.22.81.6.52,1.15,1.1,1.78,1.59.91.7,1.87,1.36,2.82,2.01,1.69,1.14,3.09,2.56,4.17,4.3.05.09.12.17.2.29.15-.09.29-.17.42-.25,1.6-.96,3.26-1.77,5.09-2.22,1.37-.33,2.75-.38,4.15-.27,1.88.15,3.71.52,5.49,1.11,1.21.4,2.4.85,3.46,1.59.57.4,1.09.84,1.44,1.46.17.3.44.53.62.82.51.78.76,1.66.84,2.58.48,5.28-.63,10.18-3.54,14.63-2.29,3.51-5.31,5.79-8.39,7.15-1.16.51-2.36.87-3.66.77-1.7-.13-2.92-.95-3.58-2.52-.29-.69-.51-1.41-.73-2.12-.4-1.3-.98-2.51-1.87-3.56-.35-.41-.73-.79-1.17-1.13-.12.07-.22.12-.32.18-2.02,1.38-4.05,2.75-6.06,4.13-1.61,1.11-3.27,2.13-5.12,2.79-.05.02-.1.06-.18.1.04.51.09,1.01.11,1.52.16,3.04-.2,6.02-1.02,8.95-.27.97-.55,1.94-.53,2.96.03,1.09.09,2.19.15,3.28.04.81.11,1.62.16,2.42.17,2.67.14,5.34-.22,8-.22,1.62-.6,3.21-1.12,4.77-.2.6-.34,1.21-.48,1.83-.73,3.17-3.55,5.69-6.71,6.32-.15.03-.29.06-.46.1-.02.12-.03.23-.06.35-.09.4-.29.72-.6.97-.23.18-.43.38-.45.7.26.27.59.3.91.18.27-.11.55-.26.76-.46.28-.27.51-.59.74-.9.33-.45.69-.87,1.15-1.2.58-.41,1.21-.65,1.93-.63.26,0,.51,0,.77.01.86,0,1.53-.37,2.03-1.06.07-.1.12-.23.22-.28.09-.05.23-.05.32-.01.06.03.09.18.08.27,0,.1-.07.2-.12.29-.47.84-1.21,1.28-2.14,1.39-.37.04-.75.02-1.12.03-1.07.03-1.89.51-2.53,1.34-.19.25-.39.5-.58.74-.08.11-.17.21-.27.3-.62.59-1.32.88-2.2.56-.04.11-.07.22-.11.33-.06.15-.11.31-.19.45-.3.5-.71.61-1.22.33-.19-.1-.37-.21-.59-.28.3.98.89,1.69,1.89,1.98.78.22,1.51.08,2.21-.3.09-.05.17-.13.27-.16.08-.02.23-.02.27.03.04.06.04.21-.01.28-.08.1-.2.18-.31.25-1.4.92-3.25.61-4.32-.73-.17-.21-.31-.43-.48-.66-.41.78-.92.82-1.44.12-.14-.19-.28-.38-.49-.68-.08.14-.12.25-.19.31-.29.26-.58.52-.88.76-.16.13-.36.21-.54.32-.7.46-1.08,1.11-1.13,1.94-.01.18,0,.36-.04.54-.01.07-.09.14-.13.21-.07-.06-.2-.1-.22-.17-.11-.38-.09-.77.02-1.15.23-.78.7-1.38,1.41-1.8.23-.13.46-.26.7-.43-.76.07-1.12-.38-1.39-.98-.17-.39-.26-.4-.59-.13-.41.33-.83.65-1.25.96-.43.32-.72.73-.81,1.25-.04.2-.02.42.01.62.03.17.02.31-.16.37-.21.06-.31-.08-.36-.25-.13-.4-.11-.8.01-1.19.16-.5.47-.9.9-1.21.33-.24.67-.46,1.04-.71-.35-.42-.04-.87-.04-1.38-.18.02-.31.02-.43.04-.1.02-.2.06-.3.08-.38.07-.62-.11-.63-.49,0-.1,0-.21.01-.31-.54.11-1.48.66-1.8,1.04-.33.39-.41.86-.46,1.34-.02.22-.05.45-.07.67,0,.06-.02.12-.04.17-.09.23-.28.38-.43.32-.23-.09-.16-.29-.14-.47.05-.33.11-.65.15-.98.1-.88.53-1.55,1.3-1.99.22-.13.46-.23.68-.34.17-.09.34-.17.51-.26,0-.03-.02-.06-.03-.09-.13.04-.25.07-.38.11-.77.26-1.29-.11-1.27-.92,0-.19.05-.38.07-.58.02-.22.04-.43.06-.67-.2,0-.34,0-.47,0-.55-.01-.86-.51-.63-1.01.09-.18.35-.35.22-.55-.11-.17-.36-.25-.54-.37-.04-.02-.08-.03-.14-.06-.31.24-.53.56-.68.93-.25.59-.38,1.2-.4,1.84-.04.99-.04,1.98-.11,2.97-.04.56-.14,1.14-.31,1.67-.28.9-.87,1.49-1.85,1.63-.92.13-1.86-.35-2.23-1.17-.39-.86-.17-1.97.52-2.56.05-.04.09-.1.14-.1.08-.01.19-.02.23.03.04.05.06.17.03.24-.04.09-.14.16-.2.24-.4.53-.52,1.11-.31,1.74.18.56.59.91,1.16,1,.59.1,1.14-.01,1.55-.5.29-.34.45-.74.56-1.17.21-.82.23-1.66.25-2.5.02-.89.02-1.77.19-2.64.15-.76.47-1.42,1-1.98.1-.11.18-.27.21-.42.08-.43.28-.75.65-.98.21-.13.44-.27.45-.61ZM75.45,48.31c.06.06.1.16.17.19.3.13.6.24,1,.39.09-.12.19-.27.31-.4.34-.39.5-.87.67-1.35.09-.26.22-.51.34-.76-.02.25-.03.51-.06.76-.06.5-.19.98-.58,1.33-.19.18-.42.3-.65.46.27.17.53.33.8.5.73-.56,1.07-1.35,1.39-2.15.11,1.04-.3,1.78-1.34,2.23.33.23.59.41.85.59.21.23.42.45.63.68,1.18-.63,1.56-1.7,1.82-2.88-.3-.12-.55-.22-.82-.33-.05.33-.06.6-.13.86-.19.8-.65,1.37-1.46,1.61.13-.14.25-.29.39-.43.56-.59.85-1.31,1.01-2.11-.37-.2-.73-.38-1.08-.59-.27-.16-.52-.36-.78-.54-.3-.19-.59-.37-.92-.57-.02.1-.02.17-.04.24-.12.4-.19.83-.37,1.19-.25.49-.59.94-1.17,1.09.12-.17.24-.34.37-.5.51-.64.82-1.38,1.11-2.16-.32-.3-.64-.58-.99-.91-.28,1.27-.58,2.45-1.69,3.31.38.12.67.22.97.3.07.02.17-.03.25-.05ZM73.12,47.31c.01-.07.02-.15.05-.22.49-1.26.99-2.53,1.51-3.84-.2-.24-.44-.53-.69-.83-.07.09-.12.14-.16.2-.77,1.21-1.12,2.56-1.32,3.96-.04.3.31.67.63.71.02.37.35.42.58.55.37.21.4.18.65-.16.63-.87.95-1.9,1.42-2.85.03-.07.04-.19,0-.25-.3-.38-.62-.75-.98-1.18-.04.16-.06.22-.08.29-.29,1.1-.63,2.19-1.24,3.16-.1.16-.23.3-.35.45ZM118.07,42c.7.97.69,2,.17,3.15.25-.17.42-.27.57-.38.09-.07.19-.16.22-.26.25-.8.36-1.61.1-2.43-.03-.1-.05-.2-.07-.3.7.8.69,1.67.25,2.61q.49-.25.62-.62c.15-.44.25-.89.22-1.37-.02-.32-.03-.64-.05-.99.24.23.28.51.35.79.13.55,0,1.06-.24,1.58.51-.22.68-.33.74-.52.18-.64.21-1.29.12-1.94-.06-.02-.1-.05-.15-.05-1-.19-1.89.11-2.74.6-.04.03-.06.1-.09.15-.57.14-.89.61-1.34.97.63.72,1.11,1.46.94,2.44.28-.03.35-.18.4-.36.19-.7.22-1.42.12-2.14-.04-.31-.09-.62-.14-.93ZM46.88,52.89c-.07.01-.15.01-.21.05-.51.28-1.02.57-1.53.86,0,0,0,.02.01.05.05.07.11.14.17.21.82.91,1.77,1.65,2.84,2.25.37.21.74.28,1.15.32.5.04,1.03.09,1.5.25.89.31,1.75.7,2.62,1.06.15.06.29.13.43.19-.01-.08-.04-.13-.09-.16-.95-.71-1.98-1.22-3.12-1.55-.95-.28-1.88-.61-2.72-1.15-.56-.35-1.04-.78-1.41-1.45.36.31.63.58.93.81.89.67,1.93,1.01,2.97,1.34,1.06.33,2.09.74,2.96,1.47.35.29.68.59,1.01.9.3.27.65.41,1.02.54-.53-.77-1.2-1.39-1.96-1.9-.78-.52-1.65-.85-2.51-1.19-.92-.36-1.84-.73-2.65-1.32-.59-.42-1.14-.88-1.42-1.58.04.04.1.07.13.12.48.63,1.11,1.08,1.79,1.46.06.03.14.04.21.06-.65-.61-1.12-1.33-1.54-2.12-.24.15-.48.24-.58.5ZM50.38,50.89c-.24-.14-.41.01-.62.13.09.17.16.32.24.46.57,1.01,1.37,1.82,2.29,2.5,1.08.8,2.2,1.55,3.32,2.3,1.9,1.29,3.21,3.07,4.18,5.11-.24-.34-.49-.68-.72-1.03-.7-1.02-1.41-2.02-2.38-2.8-.65-.53-1.34-1-2.03-1.49-.74-.53-1.51-1.04-2.24-1.59-1.18-.89-2.15-1.95-2.73-3.34-.01-.04-.05-.06-.1-.11-.29.15-.58.3-.9.47.1.17.17.32.26.45.37.57.84,1.06,1.35,1.5.95.81,2.03,1.43,3.09,2.08,1,.61,1.97,1.28,2.72,2.19.6.73,1.11,1.52,1.67,2.28.13.18.24.4.41.52.44.31.9.59,1.37.87.05.03.14,0,.21,0,.14.15.27.33.43.44.66.43,1.34.84,2.02,1.25,1.06.64,2.15,1.23,3.3,1.69.14.06.31.07.46.1.15.26.45.18.67.28.53.25,1.11.33,1.79.36-.2-.07-.31-.12-.42-.15-.78-.2-1.49-.55-2.15-.99-1.32-.88-2.42-2.01-3.48-3.17-.85-.93-1.6-1.94-2.39-2.92-.91-1.12-1.87-2.2-3.08-3-.85-.56-1.75-1.04-2.63-1.56-.95-.55-1.86-1.15-2.56-2.02-.1-.12-.17-.27-.25-.41.05.04.1.06.14.11.64.76,1.42,1.33,2.28,1.81.67.37,1.34.74,2.02,1.09,1.41.72,2.61,1.71,3.63,2.91.77.9,1.52,1.82,2.23,2.77.99,1.3,2.13,2.44,3.33,3.53.5.45,1.07.82,1.64,1.17.61.38,1.29.63,2.01.73.25.04.46,0,.67-.2-1.53-.24-3.35-1.22-3.76-2.01.05.02.09.03.13.05,1.05.75,2.23,1.22,3.41,1.69.42.16.71.11.98-.22.04-.06.09-.11.13-.17-.17-.24-.33-.45-.47-.68-.12-.19-.28-.28-.49-.34-1.65-.51-2.98-1.46-3.92-2.93-.12-.19-.21-.4-.32-.6,1.35,1.59,3.39,3.15,4.35,3.27-.03-.26-.26-.31-.43-.41-1.79-1.03-3.04-2.51-3.67-4.49-.22-.69-.42-1.38-.64-2.06-.08-.25-.18-.5-.28-.78-.38.06-.74.04-1.13.21.43,1.12.86,2.23,1.28,3.33-.83-.96-1.27-2.09-1.46-3.34-.48.09-.91.18-1.35.26.03.09.03.14.05.18.73,1.34,1.41,2.72,2.28,3.98.58.84,1.23,1.63,2,2.31.94.82,2,1.42,3.23,1.7-.1.02-.21.03-.31.02-.67-.13-1.31-.33-1.9-.65-1.22-.67-2.19-1.63-3-2.74-.98-1.34-1.65-2.85-2.34-4.35-.06-.13-.13-.26-.16-.34h-1.82c.09.11.12.16.17.2.72.74,1.39,1.53,1.97,2.39.65.95,1.35,1.87,2.02,2.81,0,.01-.01.05-.02.09-.05-.04-.1-.07-.13-.12-.71-.89-1.44-1.77-2.13-2.67-.65-.85-1.33-1.67-2.11-2.4-.29-.28-.62-.52-.95-.75-.57-.39-1.18-.72-1.72-1.14-1.06-.83-2.09-1.7-3.12-2.58-.42-.36-.78-.79-1.03-1.3.08.07.18.12.23.2.35.5.81.88,1.29,1.25.1.07.21.13.39.24-.18-.46-.07-.79.04-1.14.13-.43-.01-.63-.46-.67-.39-.04-.78-.06-1.17-.08-.11,0-.25-.06-.3.11-.56-.23-1.11-.05-1.65.08-.02,0-.02.1-.02.16-.28-.2-.54-.15-.76.14ZM80.48,66.16c.08-.13.15-.26.23-.38,1.33-1.94,1.89-4.05,1.53-6.4-.13-.87-.25-1.75-.35-2.63-.1-.85.03-1.68.33-2.48.04-.09.06-.19.1-.3-.37-.22-.71-.42-1.09-.65-.04.14-.08.25-.11.36-.19,1-.11,2.01.05,3,.15.9.36,1.79.53,2.69.35,1.83.14,3.59-.77,5.23-.27.49-.53,1.01-.99,1.37.02-.06.03-.12.06-.17.26-.47.55-.93.78-1.42.68-1.42.88-2.92.64-4.47-.16-1.02-.36-2.04-.51-3.06-.18-1.15-.21-2.3.14-3.43.02-.07.01-.14.02-.21-.37-.25-.72-.49-1.15-.79.03.58,0,1.06.09,1.53.19,1.09.43,2.17.63,3.26.1.51.2,1.02.17,1.55-.32-1.07-.6-2.13-.86-3.21-.25-1.05-.3-2.1-.06-3.17-.21-.17-.4-.33-.61-.48-.21-.15-.39-.36-.72-.48.03.49.02.93.1,1.35.18.96.41,1.9.61,2.85.02.07.04.15.05.22,0,.07,0,.15,0,.22-.71-1.54-1.26-3.1-.9-4.81-.62-.61-1.97-1.4-2.69-1.57-.17,1.41-.13,2.83-.13,4.24-.46-1.45-.41-2.91-.12-4.39-.29-.1-.54-.19-.84-.3-.27,3.01-.02,5.88,1.58,8.51-.43-.44-.77-.94-1.02-1.48-.8-1.69-1.06-3.49-.95-5.34.04-.58.11-1.16.16-1.76-.06-.04-.12-.09-.18-.12-.06-.03-.13-.05-.26-.1.11,1.25-.02,2.44-.21,3.62-.06-.29-.09-.59-.1-.89-.01-.87,0-1.74-.02-2.61,0-.14-.04-.31-.13-.4-.18-.18-.41-.32-.7-.54.05.21.07.31.1.41.3,1.12.42,2.26.31,3.43-.09.91-.19,1.82-.02,2.74.06.3.12.6.18.9l-.09.02c-.12-.41-.26-.82-.35-1.24-.18-.8-.12-1.61-.06-2.42.1-1.35-.04-2.66-.39-3.96-.04-.15-.12-.31-.21-.44-.54-.74-1.09-1.47-1.63-2.21-.17-.22-.34-.44-.51-.65-.04.1-.02.17.02.23.24.38.46.78.72,1.14,1.04,1.45,1.54,3.07,1.53,4.85,0,.81,0,1.62,0,2.43-.03,1.72.35,3.33,1.18,4.84.47.85.95,1.7,1.41,2.56.7,1.32,1.16,2.7,1.02,4.22,0,.09,0,.18,0,.3.38.09.75.18,1.16.28.43-2.15.73-4.27-.03-6.4,1.2,2.11.9,4.25.13,6.38.2.2.36.11.52,0h0c-.01.06-.03.12-.04.18.05,0,.12.04.16.02.05-.02.08-.08.11-.13.21-.49.44-.98.63-1.48.18-.5.32-1.01.47-1.52.13.59.04,1.17-.16,1.7-.21.54-.54,1.04-.83,1.57.26.08.54.14.79.25.17.07.31.06.46,0h-.01c-.04.27.19.15.27.21.13-.13.24-.23.36-.34-.06.12-.12.23-.21.41.18.02.33.03.48.05.19.15.4.26.65.14h0c.31.21.63.31.99.11.12.25.29.27.55.07h0c.32.27.67.3,1.05.14.13.04.27.1.4.11,2.39.07,4.68-.34,6.9-1.23,1.73-.69,3.26-1.71,4.78-2.76,1.09-.75,2.16-1.52,3.27-2.24,1.11-.72,2.14-1.57,3.38-2.09.61-.25,1.16-.64,1.75-.92,1.77-.84,3.59-1.08,5.51-.51,1.13.33,2.18.84,3.2,1.41.55.31,1.08.66,1.64.94.88.45,1.79.85,2.82.8.09,0,.19,0,.28,0-.14.1-.27.15-.41.19-.75.21-1.52.14-2.28.16-.79.02-1.52-.16-2.2-.53-.71-.39-1.39-.82-2.1-1.21-.6-.33-1.21-.68-1.84-.93-1.04-.41-2.09-.22-3.14.04,1.24.07,2.39.45,3.46,1.05.82.46,1.61.99,2.42,1.48.96.58,1.92,1.17,2.92,1.69,1.07.55,2.23.79,3.44.69.39-.03.77-.12,1.15-.19-.61.4-1.31.42-1.98.41-1.44-.02-2.77-.52-3.99-1.25-1.12-.66-2.2-1.4-3.3-2.1-1.34-.85-2.76-1.5-4.38-1.62-.52-.04-.97.04-1.32.27.07.02.12.05.18.05.89.1,1.73.36,2.53.74,1.01.47,1.93,1.09,2.85,1.72,1.04.7,2.08,1.42,3.17,2.05,1.33.77,2.78,1.19,4.34,1.09.07,0,.15,0,.22.01-.59.21-1.19.19-1.78.12-1.47-.19-2.8-.76-4.03-1.56-1.16-.75-2.27-1.56-3.42-2.33-1.27-.84-2.61-1.52-4.14-1.79-.62-.11-1.11.15-1.71.36.85.7,1.5,1.49,2.04,2.36.05.08.14.16.23.21,1.03.6,1.83,1.45,2.53,2.39.46.63.93,1.25,1.38,1.89.66.93,1.39,1.77,2.56,2.1-.16,0-.31-.01-.45-.05-.77-.2-1.38-.67-1.87-1.27-.77-.96-1.47-1.97-2.24-2.93-.49-.61-1.04-1.16-1.57-1.73-.07-.08-.17-.12-.29-.2.25.65.46,1.26.7,1.85.05.13.15.26.26.35.52.42.93.94,1.31,1.48.33.46.64.95,1.02,1.37.36.42.78.78,1.2,1.15.24.21.54.3.87.28.89-.06,1.75-.26,2.57-.61.1-.04.2-.1.37-.19-1.11-.06-2-.39-2.64-1.26.05-.03.07-.04.07-.04.08.04.16.08.24.13.68.45,1.43.75,2.2,1.01.12.04.28.1.39.06.47-.17.91-.4,1.41-.73-.18-.02-.25-.03-.32-.03-.89-.01-1.74-.2-2.48-.69-.75-.49-1.5-1-2.17-1.59-.88-.77-1.69-1.61-2.53-2.43-.76-.75-1.57-1.45-2.49-1.98-.53-.3-1.08-.55-1.64-.83.06,0,.12,0,.17.02.82.24,1.6.59,2.32,1.07,1.06.7,1.97,1.57,2.87,2.45.71.69,1.41,1.39,2.17,2.03.58.49,1.22.92,1.88,1.31.68.41,1.45.56,2.25.53.17,0,.36-.04.51-.13,1.51-.91,2.85-2.04,4.06-3.33.06-.06.07-.18.1-.27.49-.24.73-.71,1.04-1.14-1.53.55-3.04.66-4.55.04,1.6.21,3.08.11,4.57-.34.24-.07.42-.19.56-.4.73-1.05,1.36-2.16,1.89-3.32.11-.24.19-.5.28-.74h0c.07-.14.14-.3.24-.53-1.32.44-2.57.69-3.87.65-1.28-.04-2.52-.32-3.66-.92.05-.03.1-.04.14-.02,2.36.73,4.74.77,7.14.25.12-.03.28-.09.32-.19.18-.46.32-.93.47-1.4.05-.15-.06-.18-.17-.2.19-.08.29-.2.35-.42.46-1.75.7-3.52.76-5.32,0-.14-.04-.28-.07-.43.02-.11.08-.23.07-.34-.04-.7-.1-1.4-.15-2.11-.03-.39-.21-.7-.46-1.06-.44.71-1.09,1.06-1.8,1.34-1.29.5-2.65.62-4.02.58-.53-.02-1.01.02-1.44.35-.12.09-.26.15-.38.23-.07.05-.14.11-.27.22h1.82c-.08.1-.17.15-.27.16-.67.07-1.34.14-2.01.2-.19.02-.36.04-.47.3.44-.04.83-.1,1.21-.11,1.29-.04,2.58-.05,3.87-.1.55-.02,1.11-.06,1.65-.16.59-.11,1.17-.31,1.74-.46-.49.36-1.06.58-1.66.71-.9.19-1.81.25-2.72.28-1.47.04-2.93.1-4.4.17-.38.02-.73.28-.89.6.98-.05,1.98-.13,2.98-.14.99,0,1.98-.04,2.97.09-.04.05-.08.07-.12.07-1.09.06-2.19.12-3.28.18-.7.04-1.41.07-2.11.11-.78.05-1.46.28-1.85,1.09.12-.02.22-.03.31-.05.87-.25,1.75-.42,2.65-.48,1.5-.09,3-.12,4.5-.2,1.43-.08,2.85-.22,4.09-1.03-.11.11-.21.25-.34.34-.48.32-.99.57-1.56.67-.89.15-1.77.3-2.67.37-1.36.1-2.73.13-4.09.2-.89.04-1.75.23-2.62.39-.66.12-1,.58-1.39,1.02.04.02.05.04.06.03.09-.02.17-.05.26-.08,1.85-.65,3.75-.92,5.7-.87.87.02,1.74.12,2.6.16,1.11.05,2.22.02,3.29-.36.1-.04.21-.06.4-.12-.1.09-.13.13-.16.15-.06.04-.13.07-.2.1-1.1.45-2.26.56-3.44.53-.99-.03-1.98-.1-2.97-.1-.75,0-1.5.07-2.24.14-1.39.13-2.73.5-4.05.98-.18.06-.36.13-.44.35.31.09.59.07.89-.03,1.56-.57,3.17-.89,4.85-.83,1.33.05,2.67.15,4,.21,1.32.06,2.6-.09,3.8-.72.03-.01.07,0,.17.01-.16.1-.27.18-.39.24-.95.53-1.99.73-3.07.77-1.17.05-2.34-.07-3.5-.15-1.71-.12-3.42-.03-5.1.36-.27.06-.53.14-.8.21.35.2.67.33,1.06.26.98-.16,1.96-.3,2.94-.36,1.52-.1,3.02.11,4.53.29.97.11,1.94.16,2.91-.05.33-.07.65-.17.97-.26-.36.27-.76.42-1.19.51-1.1.25-2.21.2-3.31.07-1.78-.21-3.56-.31-5.34-.23-.45.02-.9.08-1.35.12.5.3,1.02.43,1.58.42,1.03-.02,2.07-.03,3.1.03.76.04,1.52.17,2.27.32,1.41.28,2.79.71,4.25.65,0,.03-.01.08-.02.08-.76.08-1.52.11-2.27-.04-1.65-.32-3.29-.64-4.97-.75-.68-.04-1.35-.07-2.03-.1l-.02.09c.38.12.77.23,1.14.36.6.21,1.22.29,1.86.26.64-.03,1.29-.05,1.93.11.52.13,1.05.25,1.57.4.38.11.76.15,1.15.07.42-.08.83-.14,1.25-.21-.12.15-.26.26-.42.32-.89.33-1.81.51-2.76.59-1.03.08-2.04,0-3.04-.19-1.33-.27-2.57-.81-3.81-1.34-1.06-.46-2.13-.87-3.3-1.1-.09.13-.18.25-.28.4,1.82.37,4.07,1.35,4.78,2.08-.34-.16-.65-.29-.96-.44-1.23-.57-2.49-1.03-3.82-1.29-.13-.03-.31-.02-.42.04-.19.1-.35.27-.58.45.51.07.96.13,1.41.2,0,.03,0,.06,0,.09-.1,0-.19,0-.29,0-.72,0-1.46-.01-2.13.26-1.04.43-2.19.53-3.19,1.06-.03.02-.08,0-.14,0,.13-.21.43-.22.54-.48-.28-.03-.51-.05-.75-.1-.66-.12-1.33-.25-1.99-.38-.36-.07-.66-.03-.92.28-.28.33-.58.68-.94.89-.49.28-.84.66-1.19,1.07-.11.13-.23.24-.35.35-1.53,1.51-3.29,2.7-5.19,3.69-1.04.54-2.08,1.07-2.97,1.85,0,0-.04-.02-.09-.05.19-.18.37-.36.56-.53.77-.7,1.7-1.18,2.6-1.69,1.83-1.05,3.59-2.18,5.14-3.62.2-.19.4-.39.59-.58-.2-.06-.35,0-.49-.02-.65-.07-1.03.28-1.4.76-.72.91-1.65,1.56-2.72,2.01-.12.05-.25.09-.38.14,1.16-.84,2.29-1.69,3.26-2.76-.46-.01-.9,0-1.34.05-.1.01-.17.16-.26.25h0c-.03-.08-.07-.16-.1-.24-.42,0-.83,0-1.24,0-.11,0-.22.06-.33.09h0s-.04-.05-.06-.05c-.42-.03-.83-.06-1.25-.08-.07,0-.14.05-.2.08-.72.4-1.44.81-2.16,1.2-1.07.57-2.01,1.3-2.84,2.18-.44.47-.75.98-.89,1.62-.19.85-.44,1.68-.72,2.51-.17.51-.4,1-.64,1.48-.15.3-.27.38-.57.56.4-.45.61-.94.76-1.46.17-.57.32-1.15.48-1.73.24-.91.45-1.83.73-2.74.47-1.58,1.25-2.98,2.6-4.01.02-.01,0-.05.02-.09-.22-.04-.45-.06-.66-.13-.23-.07-.38,0-.51.17-.29.38-.61.75-.84,1.16-.78,1.43-1.11,3-1.43,4.57-.27,1.36-.7,2.63-1.54,3.75-.13.17-.3.31-.46.47.05-.1.09-.22.16-.31,1.07-1.66,1.61-3.46,1.52-5.45-.02-.57,0-1.14.03-1.71.06-1,.4-1.9,1.02-2.69.09-.11.16-.23.25-.36-.33-.1-.6-.17-.87-.27-.21-.08-.33-.01-.45.16-.43.62-.7,1.3-.66,2.06.04.7.14,1.4.21,2.1.07.7.18,1.4.05,2.1-.06.33-.12.66-.34.94.27-.97.11-1.93-.03-2.9-.07-.52-.17-1.04-.22-1.56-.1-1.04.11-2,.81-2.81.05-.06.09-.14.15-.23-.33-.12-.62-.23-.93-.34-.44.67-.58,1.4-.62,2.15-.06.94.12,1.85.23,2.77.18,1.51-.02,2.96-.66,4.34-.41.89-.93,1.71-1.7,2.34.02-.05.03-.11.07-.16,1.59-1.97,2.25-4.2,1.93-6.71-.07-.58-.11-1.16-.13-1.75-.04-1.05.12-2.06.72-2.96.01-.02,0-.05,0-.1-.42-.19-.85-.38-1.3-.58-.18.34-.29.67-.27,1.02.02.48.07.96.11,1.43.02.26.06.51.09.77-.33-.52-.48-1.07-.54-1.66-.05-.6.14-1.14.44-1.66-.18-.09-.32-.16-.5-.24-.06.18-.13.33-.16.49-.18.72-.24,1.45-.13,2.19.12.86.26,1.72.42,2.57.31,1.68.05,3.28-.66,4.82-.35.76-.79,1.48-1.44,2.04ZM79.8,51.5c.1-.06.21-.12.31-.18,1.14-.66,1.75-1.68,2.03-2.97-.42-.13-.82-.26-1.25-.4,0,.68-.06,1.27-.36,1.81-.3.54-.78.89-1.46,1.06.29.26.52.47.74.68.06.06.12.12.19.18.63.61.8.63,1.49.06.81-.67,1.24-1.56,1.45-2.57.02-.11.05-.21.07-.32.2.68,0,1.3-.28,1.89-.39.82-1.03,1.36-1.99,1.59.27.19.48.32.68.48.17.13.35.13.5.02.3-.22.62-.44.85-.71.62-.73.88-1.62.98-2.56.02-.18-.01-.36.12-.62.17.92.09,1.71-.24,2.47-.34.79-.91,1.36-1.83,1.64.31.15.54.24.76.36.2.11.36.06.53-.07.88-.66,1.46-1.5,1.65-2.59.08-.45.08-.91.13-1.45.33.9.21,1.71-.09,2.5-.31.82-.96,1.33-1.74,1.81.39.12.69.2.98.32.35.15.61.05.85-.2.83-.85,1.38-1.84,1.55-3.03.02-.16.02-.33.04-.57.22.52.24,1.01.04,1.65-.3,1-.9,1.77-1.9,2.29.43.11.79.2,1.15.3.2.05.35-.02.5-.12.83-.59,1.37-1.38,1.55-2.39.06-.32.08-.64.12-.97.18.4.2.84.09,1.45-.19,1.03-.87,1.65-1.85,2.14.41.1.72.17,1.01.26.21.07.38.02.55-.1.91-.63,1.44-1.47,1.44-2.6,0-.17,0-.33-.01-.49-.01-.15-.04-.29-.07-.52.33.55.44,1.23.32,1.85-.18.94-.79,1.54-1.7,1.98.38.09.66.16.95.23.17.04.32.02.45-.13.59-.65,1.01-1.38,1.04-2.28.02-.46-.02-.92-.03-1.41.32.48.37,1.02.36,1.55-.02.99-.54,1.73-1.36,2.35.31.07.54.12.77.18.24.07.4-.03.54-.21.59-.79.9-1.66.73-2.65-.05-.32-.13-.64-.2-.99.37.42.59,1.03.59,1.64,0,.95-.44,1.68-1.22,2.28.27.05.48.07.68.13.26.08.42-.03.59-.21.53-.54.8-1.18.81-1.94,0-.81,0-.8-.52-1.44-.56-.69-1.25-1.04-2.14-1.03-.27,0-.54,0-.81-.03-.74-.06-1.33-.45-1.86-.92-.58-.52-1.26-.79-2.01-.95-.54-.11-1.08-.23-1.62-.36-.4-.09-.8-.19-1.21-.28-.26,2.02-.97,2.91-2.44,3.12ZM65.14,41.7c-.26-.37-.68-.4-1.07-.55.27.84.52,1.64.78,2.43.25.8.67,1.5,1.21,2.14.12.14.23.28.38.47-.1-.03-.13-.03-.15-.05-.07-.06-.14-.12-.2-.18-.86-.75-1.39-1.72-1.74-2.79-.22-.67-.46-1.33-.71-1.99-.07-.17-.18-.35-.33-.46-.62-.48-1.01-1.1-1.25-1.83-.08-.24-.16-.47-.25-.71-.06.16-.05.31-.02.45.11.62.39,1.17.72,1.68.58.91,1.01,1.87,1.23,2.93.16.76.48,1.45.99,2.04.36.43.77.78,1.31.99.46.17.9.41,1.33.65.85.5,1.42,1.22,1.76,2.15.39,1.05.43,2.15.4,3.24-.04,1.89.05,3.77.39,5.64.08.43.23.78.54,1.09,1.06,1.07,2.18,2.1,3.15,3.27.02.02.06.02.18.07-.12-.21-.18-.36-.28-.49-.33-.44-.65-.9-1.01-1.32-.94-1.11-1.49-2.38-1.65-3.82-.07-.64-.11-1.28-.12-1.93-.02-1.19,0-2.37,0-3.56.09.73.17,1.45.2,2.18.06,1.14.09,2.28.27,3.41.19,1.17.6,2.26,1.33,3.21.22.29.43.58.65.86.93,1.2,1.45,2.54,1.54,4.05,0,.04.04.08.07.15.2,0,.42.02.71.03-.1-.53-.18-1-.29-1.47-.29-1.25-.88-2.35-1.61-3.39-.41-.59-.83-1.18-1.21-1.79-.23-.36-.38-.76-.41-1.19.34.84.91,1.52,1.46,2.21.59.74,1.15,1.5,1.5,2.39.38.94.62,1.91.6,2.93,0,.33,0,.33.4.34-.04-.51-.05-1.02-.12-1.52-.11-.78-.4-1.51-.77-2.2-.49-.91-1-1.81-1.53-2.7-1.03-1.7-1.58-3.52-1.51-5.51.03-.7,0-1.41.03-2.12.08-1.74-.31-3.36-1.26-4.84-.32-.5-.65-1.02-.87-1.57-.23-.58-.64-.97-1.12-1.31-.18-.13-.37-.26-.56-.38-.08-.05-.17-.08-.31-.14.29.72.67,1.29,1.04,1.87.61.96,1.24,1.91,1.82,2.89.65,1.09.97,2.29.95,3.56-.02,1.18-.07,2.37-.12,3.55,0,.22-.05.45-.08.67-.07-1.25-.06-2.5-.08-3.74-.02-.93-.14-1.85-.47-2.73-.35-.95-.85-1.82-1.38-2.67-.66-1.07-1.36-2.12-1.77-3.33-.04-.12-.18-.24-.3-.31-.71-.36-1.42-.71-2.14-1.06-.08-.04-.17-.06-.25-.08,0,0-.04.1-.06.16h0ZM60.02,53.62c-.12.21-.25.41-.35.63-.29.63-.07,1.09.61,1.24.17.04.36.03.53,0,.31-.05.61-.13.92-.21,1.58-.39,3.18-.61,4.81-.57.96.03,1.54.47,1.81,1.39.07.26.13.52.16.79.24,1.85.59,3.67,1.17,5.45.16.5.37.98.62,1.44.35.64.9,1.07,1.63,1.25.83.2,1.67.12,2.49.11.14-.31.02-.53-.14-.74-.34-.46-.66-.93-1-1.39-.35-.47-.72-.92-1.09-1.38-.05-.07-.14-.11-.21-.17-.02.02-.04.04-.06.06.65,1.07,1.31,2.14,1.96,3.2-.1-.02-.16-.07-.22-.13-.9-.94-1.63-2-2.07-3.23-.18-.52-.53-.85-1.03-1.21.58,1.71,1.38,3.2,2.48,4.53-.06,0-.12-.03-.15-.06-.2-.18-.41-.36-.59-.56-1.01-1.11-1.65-2.42-1.99-3.88-.11-.45-.39-.87-.79-1.17.52,2.18,1.64,4.02,3.04,5.71-.06,0-.08-.01-.11-.03-.13-.12-.26-.24-.39-.37-1.47-1.44-2.45-3.14-2.74-5.19-.11-.76-.24-1.5-.59-2.2-.12-.24-.18-.51-.23-.77-.08-.47-.14-.94-.21-1.43-.56-.11-1.16-.13-1.72-.59.68-.02,1.22.12,1.75.43v-.83c-.55-.22-1.1-.26-1.65-.18-.53.08-1.07.17-1.59.28-1.03.22-2.06.38-3.12.32-.6-.04-1.19-.15-1.72-.44.47.06.95.15,1.42.17,1.15.06,2.27-.19,3.39-.39.8-.14,1.6-.3,2.41-.14.29.05.57.15.85.22.04-.61.02-.68-.53-.78-.35-.07-.72-.08-1.07-.03-.65.09-1.29.24-1.94.37-.93.19-1.87.27-2.82.13-.58-.09-1.07-.26-1.39-.54.76.27,1.51.35,2.26.29.83-.07,1.66-.21,2.49-.32.97-.13,1.95-.4,2.91.1-.02-.09-.04-.15-.09-.2-.47-.44-1.04-.6-1.66-.55-.46.04-.92.13-1.37.24-.93.21-1.86.32-2.81.17-.6-.09-1.3-.37-1.67-.72,1.15.51,2.3.56,3.47.38.55-.09,1.09-.22,1.63-.31.86-.15,1.68-.07,2.39.49.01,0,.05-.01.07-.02-.05-.73-.35-1.13-1.03-1.33-.24-.07-.5-.13-.75-.11-.49.04-.99.09-1.46.21-1.02.26-2.04.36-3.07.15-.57-.12-1.1-.31-1.58-.64,1.63.54,2.82.62,4.54.15.65-.18,1.33-.31,2-.12.39.11.76.3,1.15.46,0-.24-.08-.46-.27-.62-.19-.17-.39-.32-.6-.47-.23-.17-.48-.22-.77-.16-.45.1-.92.16-1.36.29-1.3.36-2.6.42-3.9.03-.51-.15-1.01-.33-1.43-.67.06-.01.12,0,.17.02,1.02.37,2.08.62,3.17.56,1.08-.06,2.15-.24,3.22-.37-.47-.2-.95-.26-1.45-.28-.79-.02-1.59-.03-2.38-.08-.74-.04-1.46-.19-2.12-.53-.11-.06-.21-.12-.31-.18-.09-.06-.16-.13-.24-.2,1,.51,2.07.61,3.15.61.7,0,1.41.02,2.11.05.87.04,1.69.25,2.39.79.05.04.12.06.23.12-.09-.41-.28-.71-.47-1.01-.13-.22-.32-.35-.57-.4-.46-.1-.91-.16-1.38-.1-1.21.15-2.42.19-3.6-.21-.8-.27-1.55-.63-2.25-1.24.53.24.98.47,1.44.65,1.1.42,2.24.63,3.43.55.68-.05,1.38.02,2.06.04.03,0,.07-.02.15-.05-.52-.39-1.01-.72-1.66-.68-.37.02-.75,0-1.13.02-1.19.03-2.32-.23-3.39-.76-.61-.31-1.06-.65-1.31-1,2.05,1.3,3.74,1.47,5.44,1.43-.09-.06-.15-.1-.21-.14-.51-.32-1.09-.4-1.65-.55-1.11-.3-2.15-.74-3.04-1.5-.28-.24-.52-.52-.69-.86,1.02,1,2.25,1.57,3.62,1.9-.43-.4-.89-.75-1.36-1.1-.5-.38-1.01-.75-1.51-1.13-.12-.09-.21-.23-.32-.35.52.37.97.8,1.63,1.12-.32-.44-.61-.78-.84-1.16-.24-.4-.42-.83-.61-1.25-.17-.39-.32-.79-.35-1.23.39.7.74,1.41,1.13,2.1.65,1.16,1.55,2.05,2.8,2.57.44.18.89.37,1.31.59.69.36,1.4.7,2.05,1.12,1.11.72,1.86,1.72,2.2,3.02.19.73.23,1.48.21,2.23-.03.81-.08,1.62-.08,2.43,0,1.13.32,2.16.97,3.08.04.06.08.14.11.21.03-.02.06-.05.09-.07-.01-.07-.02-.14-.03-.21-.28-1.09-.46-2.2-.51-3.33-.04-.87-.06-1.74-.08-2.61-.01-.75-.09-1.49-.25-2.23-.31-1.38-1.11-2.34-2.37-2.93-.8-.37-1.63-.69-2.44-1.04-1.06-.46-1.98-1.09-2.51-2.15-.48-.96-.89-1.96-1.34-2.95,0-.02,0-.06.02-.12.08.17.15.31.22.46.32.64.63,1.29.96,1.93.33.62.71,1.22,1.27,1.68.12.09.23.21.37.25-.22-.52-.45-1.01-.63-1.51-.25-.71-.57-1.38-.98-2.02-.21-.33-.42-.66-.58-1.01-.2-.42-.38-.85-.29-1.34.17.76.6,1.39,1.05,2.01.55.76.94,1.6,1.18,2.51.1.39.27.76.43,1.13.3.66.9.88,1.55,1.04-.75-.64-1.23-1.45-1.47-2.38-.27-1.07-.69-2.07-1.23-3.03-.44-.79-.68-1.62-.46-2.55-.26-.06-.47-.02-.65.14-1.07.91-2.04,1.91-2.68,3.18-.83,1.67-.94,3.36-.08,5.06.19.37.35.76.51,1.15.23.58.32,1.2.17,1.81-.12.52-.02.92.37,1.3.57.56.85,1.27.83,2.07,0,.37-.13.73-.19,1.1ZM74.44,38.37c.39,0,.81.01,1.22,0,1.26-.05,2.45-.43,3.61-.89,1.2-.47,2.38-.98,3.58-1.45,1.2-.48,2.44-.85,3.74-.93,2.22-.13,4.24.45,6.07,1.73,1.13.79,2,1.8,2.71,2.98.4.67.82,1.33,1.28,1.96.55.74,1.29,1.28,2.1,1.69,1.02-.8,2.01-1.58,3-2.36-.07-.09-.12-.14-.17-.2-1.1-1.23-2.39-2.22-3.83-3.03-.49-.28-.92-.67-1.35-1.04-.26-.22-.47-.51-.61-.82.05.01.09.04.12.07.63.72,1.39,1.27,2.24,1.7.82.41,1.61.87,2.26,1.53.52.53,1.03,1.08,1.56,1.64.15-.11.32-.24.5-.37-.64-.93-1.33-1.77-2.16-2.5-.93-.82-1.96-1.49-2.98-2.18-.93-.63-1.83-1.31-2.63-2.11-.32-.32-.67-.61-1.03-.87-.57-.41-1.21-.59-1.91-.46-.44.08-.89.15-1.32.26-1.42.34-2.8.22-4.13-.38-.53-.24-1.07-.47-1.62-.67-.35-.12-.72-.21-1.09-.26-.72-.09-1.3.25-1.86.66-1.19.87-2.48,1.58-3.85,2.13-1.06.42-2.14.77-3.2,1.18-1.31.51-2.65.7-4.05.63-1.44-.08-2.77-.46-4.03-1.14-.27-.15-.52-.32-.78-.49,1.16.32,2.3.6,3.48.74,1.18.13,2.34.1,3.49-.25-.33-.23-.66-.43-1.01-.6-1.1-.54-2.26-.9-3.45-1.15-2.98-.63-5.82-1.63-8.55-2.98-1.36-.67-2.74-1.28-4.2-1.72-1.7-.51-3.42-.77-5.19-.53-1,.14-1.98.4-2.82.97-1.19.81-2.36,1.65-3.53,2.49-.35.25-.67.55-.99.85-.97.9-1.65,1.98-1.94,3.28-.06.28-.14.55-.2.83-.25,1.07-.85,1.94-1.52,2.78-1.78,2.24-2.75,4.8-2.92,7.65-.04.72,0,1.44.07,2.16.06.64.36.91,1.01,1.01.21.03.42.05.63.07.56.04,1.06.22,1.46.62.35.35.69.71,1.01,1.09,1.36,1.59,3.59,1.92,5.31.73.49-.34.92-.77,1.37-1.16.49-.42.97-.85,1.46-1.27.11-.1.24-.18.34-.29,1.05-1.03,2.08-2.08,3.14-3.09.98-.93,2.07-1.73,3.29-2.34.44-.22.9-.39,1.33-.57.11-.72.23-1.42.34-2.14-.55.04-1.1.1-1.64.11-.55.01-1.11.01-1.66-.04-.53-.05-1.06-.1-1.55-.33.23-.01.45.02.68.02,1.25,0,2.49,0,3.74,0,.13,0,.27.01.4-.02.09-.02.2-.08.24-.16.09-.18.13-.38.19-.55-.92-.05-1.81-.04-2.68-.15-1.4-.18-2.13-.42-2.49-.69.84.12,1.71.24,2.58.37.97.15,2.36.18,2.7,0-.94-.21-1.85-.38-2.73-.63-.91-.25-1.81-.54-2.68-.9-.86-.35-1.69-.78-2.5-1.22-.83-.44-1.61-.96-2.32-1.6,3.1,2.02,6.49,3.27,10.13,3.96-.06-.21-.13-.42-.26-.56-.44-.46-.93-.86-1.56-1.03-2.48-.67-4.82-1.65-6.97-3.05-.09-.06-.16-.13-.25-.19.71.32,1.39.67,2.08,1,1.98.95,4.07,1.6,6.18,2.18.43.12.86.15,1.29.06.44-.09.88-.2,1.29-.38.62-.26,1.22-.57,1.82-.88.75-.39,1.5-.75,2.32-.97,1.61-.43,3.21-.28,4.8.14,1.7.45,4.2,1.51,5.92,2.47.52.29,1.06.57,1.59.83.14.07.32.1.47.07.62-.11,1.24-.21,1.85-.38.85-.23,1.68-.51,2.52-.77-1.24.82-2.61,1.28-4.1,1.44.41.28.82.5,1.23.75.21.13.38.13.58.02.65-.36,1.32-.71,1.97-1.09.69-.4,1.37-.8,2.15-1.01.48-.13.64-.15,1.07-.07-1,.18-1.83.64-2.64,1.12-.53.32-1.06.61-1.61.9-.29.15-.61.26-.96.41.11.08.18.13.25.17,1.69.93,3.38,1.89,5.09,2.79,2.35,1.24,4.78,2.3,7.34,3.04,1.03.3,1.99.22,2.92-.25.63-.31,1.23-.68,1.85-1.02.09-.05.16-.12.25-.19-.04-.06-.06-.1-.09-.12-.63-.54-1.18-1.15-1.62-1.86-.39-.62-.77-1.25-1.14-1.89-.49-.84-1.02-1.66-1.7-2.37-.03-.04-.06-.08-.09-.12.1,0,.17.02.21.07.35.37.75.7,1.05,1.11.49.66.9,1.38,1.36,2.06.5.75,1.01,1.49,1.54,2.22.21.28.49.51.75.77.21-.14.38-.24.54-.35.15-.11.3-.22.48-.34-1.27-.69-2.58-2.09-2.8-2.97.27.31.53.6.79.89.6.67,1.25,1.29,2.05,1.74.18.1.32.13.49-.02.19-.17.4-.31.62-.49-.11-.08-.19-.14-.28-.19-1.02-.54-1.8-1.34-2.43-2.29-.3-.46-.59-.94-.9-1.4-1.92-2.86-4.63-4.27-8.06-4.26-1.43,0-2.78.42-4.1.92-1.28.48-2.53,1.01-3.82,1.46-1.48.51-2.99.88-4.55.55ZM69.74,65.98c.13.65.23,1.23.35,1.8.92,4.5,2.16,8.91,3.69,13.24.44,1.23.86,2.46,1.08,3.76.28,1.64.16,3.23-.54,4.75-.41.89-.91,1.73-1.55,2.48-.84,1-1.71,1.97-2.58,2.94-.93,1.05-1.58,2.2-1.62,3.66-.06,2.07,1.12,4.34,3.3,5.15.25.09.5.21.75.29,1.07.35,2.1.79,3.08,1.36,1.58.91,3.26,1.1,5,.65,2.65-.68,4.6-2.26,5.74-4.77.26-.57.38-1.2.56-1.8.31-1.06.66-2.12.93-3.2.51-2.03.74-4.1.82-6.19.11-2.71-.11-5.4-.29-8.09-.05-.78-.07-1.56-.07-2.34,0-1.11.32-2.16.62-3.22.79-2.84,1.08-5.74.93-8.68-.01-.2-.05-.4-.08-.63-.88.1-1.72.09-2.51.27.06.82.15,1.58.17,2.34.02.76.01,1.53-.02,2.3-.04.78-.1,1.56-.19,2.33-.08.74-.17,1.48-.4,2.19.21-3.04.41-6.07.23-9.13-.12.01-.2.02-.27.03-.88.1-1.76.21-2.64.29-1.8.15-3.56-.13-5.28-.65-1.25-.38-2.5-.76-3.81-.83-.57-.03-1.14-.1-1.7-.15-.23-.02-.47-.04-.78-.07.12.6.23,1.14.35,1.68.11.52.24,1.05.36,1.57-.03,0-.06.01-.09.02-.47-1.04-.82-2.11-.94-3.3-.23-.02-.44-.04-.69-.07.21,2.61.83,5.09,1.4,7.58-1.01-2.42-1.6-4.94-1.61-7.56-.11-.03-.17-.06-.23-.06-.16-.01-.33-.02-.49-.02-.17,0-.38-.05-.38.24,0-.02-.01-.03-.02-.05-.15-.27-.35-.07-.61-.1ZM104.07,50.93s0,.05,0,.07c.51.07,1.03.15,1.55.21,1.16.14,2.33.25,3.49.41.65.09,1.22-.04,1.68-.53.33-.35.68-.69.93-1.09.43-.68.81-1.4,1.18-2.11.99-1.9,2.17-3.66,3.72-5.15.18-.18.37-.35.56-.52,1.03-.85,2.17-1.38,3.54-1.28.05,0,.09-.02.24-.05-.33-.16-.57-.29-.81-.4-2.66-1.14-5.44-1.78-8.33-1.87-.64-.02-1.29,0-1.93.1-1.8.26-3.47.91-5.06,1.79-1.58.87-3.05,1.9-4.49,2.99-1.9,1.44-3.8,2.89-5.85,4.11-.03.02-.05.07-.07.1.14.17.28.2.47.09.42-.24.84-.45,1.27-.68,2.08-1.14,4.07-2.43,6.04-3.74.09-.06.2-.12.29-.18-1.12,1.02-2.34,1.9-3.59,2.72-1.25.82-2.59,1.45-4.01,2.14.57.3,1.05.55,1.53.79.13.06.29.09.43.1,1.31.15,2.63.22,3.95.22,1.19,0,2.38-.02,3.57-.04-2.14.39-4.3.43-6.46.32.05.06.1.09.16.11,1.78.66,3.61,1.09,5.48,1.38.09.01.18.01.27,0,.49-.06.98-.14,1.47-.17,1.02-.07,2.04-.11,3.05-.19.89-.07,1.74-.32,2.49-.83.08-.05.15-.1.23-.15-.27.41-.65.68-1.08.87-.95.42-1.95.57-2.98.56-.82-.01-1.65-.05-2.47-.08-.15,0-.29,0-.44,0ZM109.55,52.1c-.21,0-.31,0-.41,0-2.55.05-5.1.04-7.63-.35-1.17-.18-2.33-.4-3.48-.7-1.85-.49-3.56-1.32-5.29-2.13-2.51-1.18-5.04-2.31-7.56-3.46-1.19-.54-2.4-1.02-3.56-1.6-1.55-.77-2.94-1.8-4.36-2.78-1.37-.95-2.72-1.92-4.2-2.7-2.49-1.31-5.13-1.99-7.95-1.95-.97.02-1.91.2-2.78.64-.16.08-.31.18-.55.33.71-.04,1.31-.09,1.9-.09.6,0,1.2.05,1.79.12,2.55.31,4.82,1.3,6.82,2.9,1.01.81,1.86,1.79,2.65,2.81,2.01,2.6,4.6,4.3,7.81,5.04.76.17,1.51.37,2.28.52.92.19,1.74.55,2.43,1.19.52.48,1.13.71,1.84.72.27,0,.54.04.81.05.72.03,1.3.32,1.77.85.26.29.51.59.77.88.45.5.97.67,1.62.4.44-.19.88-.16,1.31.03.29.13.58.25.85.41.7.44,1.45.53,2.25.35,1.01-.23,2-.16,2.97.18.28.1.58.17.86.27.85.31,1.72.41,2.61.33,1.74-.15,3.18-.89,4.43-2.26ZM70.84,108.99c.13.04.17.07.21.06.64-.14,1.01.08,1.27.72.25.62.67.67,1.21.27.51-.37.89-.32,1.26.19.12.16.22.32.34.47.13.15.28.29.5.23.2-.06.24-.24.28-.42.05-.19.08-.38.15-.56.16-.38.47-.49.85-.31.16.08.31.19.46.28.42.26.75.17.94-.29.11-.26.16-.55.19-.83.05-.5.23-.92.64-1.24.2-.16.37-.35.43-.65-.16.03-.29.04-.42.07-.85.18-1.69.17-2.54-.04-.83-.2-1.56-.62-2.24-1.11-.82-.59-1.69-1.08-2.62-1.46-.36-.15-.71-.32-1.05-.51-2.35-1.29-3.41-3.8-2.71-6.39.03-.11.05-.22.09-.4-.23.06-.41.08-.57.15-.38.15-.5.37-.45.78.01.09.04.17.07.26.09.3.05.55-.22.75-.26.2-.26.27-.13.57.04.1.09.19.14.28.23.51.15.79-.29,1.13-.18.14-.37.27-.5.44-.31.41-.19.85.25,1.08.67.36.7.46.32,1.15-.01.03-.04.05-.05.08-.12.27.06.56.36.58.06,0,.12-.02.18-.03.44-.04.62.12.6.55-.01.27-.09.53-.11.8-.01.18-.01.36.03.53.09.33.33.43.66.34.14-.04.29-.09.43-.12.67-.15.98.14.88.81-.1.61-.09.61.52.46.59-.14.86.11.74.72-.04.19-.06.37-.1.58ZM50.18,49s.04.03.06.05c.52-.25,1.04-.52,1.57-.76.95-.41,1.92-.78,2.97-.83.91-.04,1.72.19,2.36.87.58.62.69,1.56.28,2.29-.04.07-.08.14-.14.25.94-.34,1.22-.62,1.09-1.62-.17-1.3-.5-2.55-1-3.77-.05-.11-.11-.21-.17-.32-.21-.36-.53-.54-.94-.47-.81.15-1.63.31-2.28.86-.92.77-1.83,1.55-2.72,2.34-.38.34-.71.72-1.07,1.08ZM72.3,46.4c.06-1.59.49-2.97,1.63-4.06-1.15-1.37-2.47-2.44-4.04-3.25-.06.1-.1.16-.13.22-.46,1.05-.5,2.14-.37,3.26.06.55.35.88.85,1.16-.05-.17-.09-.28-.13-.39-.28-.98-.27-1.95.13-2.9.09-.22.2-.45.47-.59-.1.27-.21.5-.26.74-.25,1.08-.21,2.17-.02,3.26.05.26.11.3.42.45-.3-1.42-.31-2.76.8-3.86-.01.11-.07.21-.12.31-.21.42-.37.84-.44,1.31-.11.84-.06,1.67.02,2.51.03.29.21.46.43.65.13-1.92.5-2.92,1.29-3.46-.07.14-.12.24-.18.34-.54.98-.74,2.05-.82,3.15-.03.44.13.77.45,1.14ZM47.59,52.25c.39.49.71.94,1.08,1.35.8.87,1.64,1.66,2.84,2.04,1.42.45,2.7,1.25,3.55,2.49.57.83,1.3,1.37,2.16,1.81.15.08.3.16.51.27-.05-.12-.07-.16-.09-.2-1.12-1.6-2.42-3.01-4.13-4.01-.78-.45-1.52-.96-2.26-1.47-1.07-.74-2-1.63-2.56-2.84-.02-.04-.05-.07-.1-.13-.32.22-.62.43-.98.69ZM59.03,55.03l.08-.07c-.14-.56-.02-1.09.13-1.63.11-.38.2-.79.2-1.19,0-.88-.89-1.45-1.72-1.13-.41.15-.82.29-1.23.43-.5.16-.71.5-.53,1,.11.29.29.56.49.79.52.6,1.17,1.03,1.85,1.41.24.14.49.26.74.4ZM63.64,37.57c-.39.03-.75.04-1.1.09-.39.05-.47.16-.34.54.17.49.36.98.59,1.45.19.4.53.69.91.92.95.56,2.03.76,3.14,1.11-.9-1.22-1.28-2.45-.59-3.88-.44,0-.82-.2-1.25-.08-.31,1.3.12,2.41.84,3.46-1.21-.93-1.51-2.12-1.01-3.56h-1.06c-.33,1.2.33,2.12.76,3.1-.98-.84-1.42-1.83-.88-3.15ZM40.67,52.7c-.04.31-.16.6-.09.82.15.45.4.88.69,1.27-.06-.49-.22-.96,0-1.44.03.01.05.02.05.03.04.18.07.35.1.53.18.94.71,1.67,1.41,2.29.24.21.23.22.59.24-1.07-.91-1.58-2.01-1.25-2.68.23,1.08.77,1.93,1.64,2.61.42.33.88.38,1.39.34-1.04-.57-1.69-1.44-2.03-2.55.14.13.26.28.37.44.44.62.94,1.16,1.53,1.64.57.45,1.19.57,1.96.4-.24-.11-.43-.19-.61-.27-.94-.46-1.6-1.2-2.1-2.1-.16-.28-.33-.42-.65-.45-.77-.06-1.5-.27-2.19-.63-.26-.14-.5-.31-.82-.5ZM87.17,60.38c.05-.06.09-.11.14-.17.52-.73,1.16-1.33,1.89-1.85.65-.47,1.38-.78,2.11-1.11.34-.15.67-.31,1-.46-.1-.09-.18-.1-.26-.11-.61-.07-1.23-.09-1.83-.22-.45-.09-.74.04-1.04.34-1.02.99-1.63,2.21-1.99,3.59ZM69.15,62.67s.06-.05.1-.07c-.13-.21-.21-.46-.38-.63-1.23-1.21-2.08-2.66-2.67-4.27-.22-.6-.37-1.23-.55-1.85-.04-.15-.05-.31-.25-.32-.23-.01-.46,0-.71,0,.37.99.7,1.94,1.07,2.86.21.53.45,1.05.73,1.54.66,1.13,1.58,2.02,2.66,2.74ZM94.37,55.94c.21.02.32.02.44.04.35.06.56-.09.72-.39.23-.41.38-.85.38-1.32,0-.2,0-.4,0-.7.32.46.34.87.28,1.31-.06.45-.38.75-.7,1.1.34,0,.61-.01.88,0,.21.01.34-.08.45-.24.37-.54.53-1.13.49-1.75-.49-.25-.96-.49-1.43-.72-.19-.09-.38-.18-.58-.23-.16-.04-.33-.03-.54-.05.52,1.08.51,2.04-.38,2.96ZM53.48,48.19c.12.63.26,1.15.69,1.55.16-.09.31-.18.47-.27-.17-.5-.45-.95-.33-1.55.34.45.45.91.57,1.39.19-.09.37-.17.53-.25-.06-.43-.11-.84-.16-1.27-1.06-.11-2.02.25-2.97.63,0,.48.18.83.44,1.15.37.47.56.51,1.13.23-.51-.5-.7-.91-.36-1.6ZM68.7,61.46l.14-.07c-.13-.36-.21-.75-.4-1.07-.37-.62-.7-1.25-.93-1.94-.23-.67-.4-1.35-.49-2.05-.02-.13-.08-.31-.18-.38-.29-.2-.63-.3-1.04-.34.64,2.16,1.56,4.1,2.9,5.85ZM63.56,97.13c.48.89,1.98,2,2.78,2.13.13-.16.26-.31.37-.46.07-.09.18-.2.17-.29-.04-.23-.08-.47-.3-.62-.9-.62-1.89-.89-3.02-.76ZM69.26,42.94c-.47-1.4-.36-2.7.5-3.93-.39-.17-.73-.33-1.11-.5-.08.28-.17.5-.22.73-.18.94-.12,1.88.02,2.82.07.47.38.67.81.88ZM93.78,53.25c.16,1.03-.09,1.88-1.05,2.55.5.04.88.09,1.27.1.11,0,.27-.08.32-.17.51-.86.56-1.76.26-2.74-.28.09-.53.17-.8.26ZM98.59,53.92c.35.69.33,1.3-.27,1.83.86-.09,1-.2,1.2-.97.05-.19.07-.38.1-.57.02-.1.04-.19.06-.28.03,0,.07,0,.1.01.2.5.18.99-.13,1.48.72-.28,1.23-.71,1.42-1.5-.83-.31-1.62-.22-2.46,0ZM66.42,37.84c-.06.08-.09.11-.1.15-.13.47-.19.94-.1,1.42.13.71.38,1.38.68,2.03.15.32.36.47.72.53-.68-1.27-.95-2.52-.15-3.86-.38-.1-.72-.18-1.04-.27ZM87.1,55.86c-1,1.12-1.35,2.69-1.12,4.53.34-1.59.8-3.13,2.13-4.28-.39-.09-.69-.17-1.02-.24ZM116.64,46.18c.25-.16.47-.3.7-.43.14-.08.14-.21.13-.35-.04-.83-.44-1.52-.83-2.3-.26.29-.48.53-.68.78-.05.06-.04.2-.01.29.22.66.45,1.32.69,2.01ZM117.71,46.5c.19,0,.31,0,.43,0,.51-.05,1.02-.08,1.52-.17.87-.16,1.74-.32,2.58-.56.63-.18,1.21-.5,1.64-1.09-.12-.17-.23-.34-.35-.51-.24.22-.43.43-.66.6-1.19.92-2.57,1.26-4.04,1.28-.42,0-.75.12-1.13.45ZM68.33,42.36q-.52-1.96.1-3.92c-.26-.09-.53-.18-.85-.28-.09.33-.2.61-.24.89-.13.94.09,1.84.39,2.72.1.3.26.5.6.59ZM92.48,52.75c.18.52.26,1.04.13,1.58-.13.57-.54.92-1.03,1.31.33.05.57.1.82.13.07,0,.18-.05.23-.1.62-.67.93-1.47,1.01-2.33-.41-.2-.78-.39-1.16-.58ZM118.94,45.71s.02.06.04.1c.35-.06.7-.12,1.05-.19.99-.2,1.93-.53,2.79-1.08.21-.13.44-.26.57-.55-.25-.11-.49-.21-.72-.31-.58.72-1.25,1.17-2.12,1.25-.66.06-1.09.5-1.62.79ZM105.37,64.17s-.09.06-.14.08c.21.56.39,1.12.63,1.67.15.34.35.66.58.96.54.69,1.27,1.08,2.22,1.27-.32-.26-.57-.45-.81-.65-.64-.55-1.1-1.25-1.56-1.96-.3-.46-.61-.91-.92-1.36ZM97.04,55.83s.02.06.04.09c.22-.01.45,0,.66-.05.12-.02.26-.1.34-.19.42-.5.52-1.08.4-1.73-.33.02-.62.04-.96.07.21.72.06,1.32-.47,1.82ZM48.09,56.61c-.62-.4-1.22-.74-1.78-1.16-.58-.43-.98-1.03-1.36-1.65-.12,0-.22.01-.32.03-.11.02-.22.05-.38.09,1.03,1.29,2.15,2.37,3.84,2.69ZM116.52,46.28c-.5-.63-.73-1.31-.8-2.16-.31.36-.53.63-.76.9.27.61.62,1.12.99,1.65.21-.15.37-.25.57-.39ZM112.93,48.42s.06.05.09.07c.61-.37,1.22-.74,1.79-1.08-.25-.31-.49-.61-.76-.95-.37.65-.74,1.3-1.12,1.96ZM114.8,45.34c-.66.87-.64.81-.06,1.5.1.12.2.25.33.41.27-.19.52-.35.81-.55-.61-.31-.88-.81-1.08-1.36ZM121.23,41.35c.09.33.2.6.21.87.01.28-.07.57-.12.88.47-.27.91-.53,1.37-.8-.37-.47-.84-.79-1.47-.95ZM68.39,59.71c.07-1.17-.38-3.04-1.05-3.29.25,1.12.53,2.21,1.05,3.29ZM55.75,49.01c.16.08.35.17.54.26.21-.26.4-.5.6-.73-.39-.45-.89-.69-1.33-.63.06.36.13.72.2,1.1ZM57.06,48.74c-.15.21-.24.48-.42.59-.34.19-.35.47-.42.83.41-.08.76-.14,1.13-.21.05-.47.02-.87-.28-1.2ZM57.3,50.14c-.46.29-.86.44-1.31.18-.17.19-.32.37-.49.57.81.4,1.42.17,1.8-.75ZM51.32,48.83c.2.31.34.56.52.8.24.33.31.34.77.25-.48-.34-.61-.82-.5-1.41-.27.12-.48.22-.78.36ZM37.84,50.28c-.38-.14-.74-.26-1.1-.39.04.5.37.92.87,1.12.07-.22.14-.45.23-.72ZM38.15,50.43c-.1.29-.18.54-.27.81.25.12.47.22.69.32.08-.3.14-.55.21-.83-.21-.1-.4-.19-.63-.3ZM49.94,49.58s.02.07.02.1c.5-.04.99.11,1.49.09-.15-.3-.28-.54-.41-.81-.36.21-.73.41-1.1.62ZM39.48,52.1c.08-.19.15-.36.23-.57-.2-.18-.39-.36-.62-.57-.1.28-.18.49-.26.72.23.15.43.28.64.42ZM40.23,52.94c.09-.19.16-.34.24-.51-.16-.18-.32-.35-.47-.52-.35.46-.04.71.23,1.03ZM122.35,43.72c-.63,0-1,.33-1.34.7.5-.08.92-.31,1.34-.7ZM55.59,52c.1-.22.18-.39.25-.56-.14-.09-.25-.17-.41-.28-.02.31-.02.57.16.84ZM119.2,54.92s0-.06,0-.09l-.99-.12s0,.06,0,.08c.33.04.67.08,1,.13Z" fill="#000" stroke-width="0"/><path d="M43.38,32.28c-.07.16-.13.33-.21.49-.28.54-.45,1.11-.52,1.71-.09.73-.17,1.46-.27,2.19-.13,1.01-.5,1.94-.99,2.82-1,1.79-2,3.59-2.99,5.39-.29.52-.57,1.06-.65,1.66-.05.35-.03.69.08,1.02.2.6.6.95,1.23,1.04.3.04.59.08.88.16.57.15,1.01.5,1.42.9.35.35.7.71,1.06,1.04.44.41.95.71,1.58.59.33-.06.66-.2.97-.34.57-.27,1.11-.58,1.67-.88.14-.08.29-.14.47-.16-.07.05-.13.1-.2.15-.68.39-1.36.77-2.03,1.16-.9.53-1.75.43-2.53-.23-.37-.31-.71-.65-1.04-.99-.61-.62-1.32-1-2.21-1.07-1.15-.09-1.88-1.12-1.71-2.32.1-.74.42-1.4.78-2.04,1-1.76,2-3.52,3.01-5.27.57-.99.92-2.04,1.06-3.17.09-.74.2-1.49.37-2.22.09-.42.29-.82.47-1.21.07-.15.22-.27.33-.4h0Z" fill="#000" stroke-width="0"/><path d="M45.03,32.07c3.19-3.86,9.57-4.51,13.44-1.27-4.78-2.76-9.25-2.22-13.44,1.27Z" fill="#000" stroke-width="0"/><path d="M93.16,39.46c-.29-.34-.56-.69-.86-1.01-1.08-1.11-2.4-1.77-3.92-2.03-2.04-.35-3.99.02-5.87.83-.13.06-.27.11-.44.11.09-.06.17-.12.26-.17,1.07-.59,2.21-1.01,3.42-1.16,2.64-.32,4.96.32,6.78,2.37.27.31.51.65.63,1.05Z" fill="#000" stroke-width="0"/><path d="M40.96,47.29c-.92.02-1.52-.47-1.62-1.28-.07-.49-.03-.97.23-1.39.32-.52.67-1.03,1.03-1.53.98-1.37,1.67-2.87,2.08-4.49.03-.12.08-.24.19-.35-.1.5-.17,1-.3,1.49-.39,1.4-1,2.69-1.88,3.85-.27.36-.53.72-.77,1.1-.25.39-.36.82-.3,1.29.07.55.33.95.88,1.14.14.05.27.1.48.18Z" fill="#000" stroke-width="0"/><path d="M50.11,47.13c-.18.15-.36.31-.55.45-1.25.94-2.57,1.76-4.09,2.19-.37.1-.76.15-1.15.16-.61.02-1.1-.25-1.45-.76.04,0,.08-.02.09-.01.54.56,1.21.66,1.91.44.77-.24,1.53-.53,2.25-.87.81-.39,1.57-.86,2.36-1.3.19-.11.38-.23.57-.35.02.02.04.04.06.06Z" fill="#000" stroke-width="0"/><path d="M78.02,34.79c-.36.19-.72.4-1.09.58-.95.47-1.9.95-2.95,1.17-.98.21-1.97.34-2.97.09,2.5,0,4.72-1.02,6.98-1.93l.04.09Z" fill="#000" stroke-width="0"/><path d="M90.99,33.54c1.23-.61,3.08,0,3.78,1.21-1.09-.86-2.33-1.27-3.78-1.21Z" fill="#000" stroke-width="0"/><path d="M85.23,32.46c-1.08,0-2.08-.13-3.11.21.66-.68,2.17-.78,3.11-.21Z" fill="#000" stroke-width="0"/><path d="M43.39,32.29c.08-.14.16-.28.25-.42.03.02.06.05.09.07-.12.11-.23.23-.35.34,0,0,0,0,0,0Z" fill="#000" stroke-width="0"/><path d="M47.72,49.58c-.09.06-.19.11-.28.17-.01-.02-.02-.04-.03-.05.09-.06.19-.11.28-.17,0,.02.02.03.03.05Z" fill="#000" stroke-width="0"/><path d="M44.53,32.59c.05-.06.1-.12.15-.19.01.01.03.02.04.03-.05.06-.1.13-.15.19-.01-.01-.03-.02-.04-.03Z" fill="#000" stroke-width="0"/><path d="M81.48,78.14c.12.63.24,1.26.35,1.89.18,1.06.36,2.13.5,3.2.26,1.9.3,3.8.08,5.7-.15,1.33-.39,2.65-.94,3.87-.31.68-.69,1.33-1.08,1.97-.31.51-.68.99-1.03,1.48-.05.07-.11.13-.22.26.02-.15.01-.22.04-.29.31-.86.63-1.72,1.15-2.48.11-.16.2-.34.27-.52.61-1.59,1.03-3.23,1.08-4.94.02-.69.07-1.38.11-2.07.11-1.94-.01-3.87-.19-5.8-.06-.61-.13-1.22-.19-1.83-.01-.14,0-.29,0-.43.02,0,.04,0,.07,0Z" fill="#000" stroke-width="0"/><path d="M88,84.08c.27,1.83.4,3.7.32,5.57-.12,2.87-.59,5.69-1.42,8.45-.51,1.69-1.19,3.3-2.32,4.68-1.05,1.28-2.35,2.18-4,2.49-.55.1-1.13.12-1.69.13.59-.09,1.18-.15,1.76-.29,1.48-.36,2.66-1.2,3.62-2.37.73-.89,1.25-1.9,1.67-2.96,1.13-2.88,1.7-5.9,2-8.96.2-2.05.22-4.1.06-6.16-.02-.19,0-.39,0-.58Z" fill="#000" stroke-width="0"/><path d="M88.61,68.02c.3,1.13.36,2.27.22,3.4-.21,1.75-.5,3.5-.74,5.25-.18,1.34-.34,2.68-.22,4.03,0,.11,0,.23-.02.35-.21-.97-.25-1.95-.19-2.94.13-2.04.51-4.04.8-6.06.16-1.11.25-2.23.18-3.36-.01-.22-.02-.45-.03-.67Z" fill="#000" stroke-width="0"/><path d="M74.96,89.77c-.07.59-.3,1.13-.62,1.61-.46.68-.96,1.34-1.48,1.98-.55.68-1.16,1.3-1.69,1.99-.39.51-.75,1.06-1.02,1.64-.58,1.21-.71,2.47-.28,3.78-.08-.18-.19-.36-.25-.55-.38-1.18-.2-2.31.27-3.42.48-1.12,1.25-2.04,2.06-2.93.58-.65,1.17-1.29,1.72-1.96.5-.6.91-1.27,1.2-2,.02-.05.05-.09.07-.14Z" fill="#000" stroke-width="0"/><path d="M86.2,81.93c.35.66.57,1.34.62,2.08,0,.1.02.21,0,.31-.1.81.07,1.57.41,2.31.13.27.13.61.18.91.01.07,0,.15-.02.22-.08.36-.31.6-.57.62-.28.02-.51-.16-.64-.53-.08-.22-.14-.46-.16-.7-.09-1.09-.17-2.18-.25-3.26.03,0,.06,0,.09-.01.1.66.19,1.32.29,1.98.09.56.17,1.12.27,1.68.04.2.1.41.34.5.23-.12.32-.32.29-.56-.04-.29-.08-.6-.2-.87-.29-.63-.4-1.28-.33-1.97.09-.8-.04-1.58-.26-2.35-.04-.13-.06-.26-.08-.39Z" fill="#000" stroke-width="0"/><path d="M73.18,76.96c-1.35-3.36-2.37-6.8-2.75-10.41.92,3.47,1.83,6.94,2.75,10.41Z" fill="#000" stroke-width="0"/><path d="M79.72,75.2c1.06,3.43,1.52,6.92,1.14,10.5-.06-1.17-.09-2.35-.19-3.52-.1-1.16-.24-2.33-.4-3.48-.16-1.17-.36-2.33-.54-3.5Z" fill="#000" stroke-width="0"/><path d="M74.95,99.96c-.19-.31-.14-.65,0-.97.24-.55.37-1.14.53-1.71.08-.28.21-.57.4-.79.48-.55,1.21-.45,1.57.18.09.17.17.36.2.54.25,1.37-.04,2.59-1,3.62-.04.04-.08.07-.15.08.48-.64.76-1.35.89-2.12.1-.59.03-1.17-.14-1.73-.08-.27-.23-.5-.53-.56-.32-.06-.56.1-.72.35-.11.17-.21.36-.27.56-.15.57-.34,1.11-.6,1.64-.13.27-.13.6-.18.9Z" fill="#000" stroke-width="0"/><path d="M73.95,79.23c1.27,2.77,1.87,5.66,1.77,8.69-.14-.96-.25-1.93-.42-2.88-.17-.99-.38-1.97-.61-2.95-.22-.96-.49-1.91-.74-2.86Z" fill="#000" stroke-width="0"/><path d="M82.59,100.82c-.07.02-.11.04-.15.05-.41.14-.64.03-.71-.4-.04-.23,0-.48,0-.71,0-.17-.01-.34-.02-.54-.45.21-.66.6-.95,1.77-.09-.51.16-1.43.48-1.81.13-.15.28-.29.5-.22.24.07.3.27.3.5,0,.22,0,.45.01.67,0,.14.04.28.06.43.73-.19,1.01.04.99.77,0,.16-.03.33-.07.49-.14.58-.45.88-1.04.85-.53-.03-.9.13-1.16.63.07-.47.36-.77.78-.84.13-.02.27-.02.4-.04.46-.07.61-.21.71-.67.08-.36.05-.61-.13-.93Z" fill="#000" stroke-width="0"/><path d="M84.72,73.07c-.05-.32-.13-.64-.15-.96-.06-.76-.1-1.52-.15-2.29-.03-.43.12-.72.43-.79.3-.07.6.12.76.5.24.6.48,1.19.71,1.79.21.56.18,1.08-.28,1.53.38-.64.19-1.22-.12-1.81-.23-.44-.41-.9-.62-1.34-.04-.08-.07-.17-.13-.23-.06-.05-.17-.09-.24-.07-.06.02-.11.12-.14.2-.02.07-.02.15,0,.22.11.72.06,1.43,0,2.15-.03.36,0,.72,0,1.07l-.05.02Z" fill="#000" stroke-width="0"/><path d="M84.28,101.89c1.04-2.31,1.8-4.72,2.49-7.15-.29,2.57-1.01,4.99-2.49,7.15Z" fill="#000" stroke-width="0"/><path d="M77.37,87.44v2.21c.38,0,.6-.18.79-.42.37-.48.42-1.05.43-1.62.01-.49-.02-.99-.03-1.48,0-.15,0-.3.05-.46.03.07.07.14.08.21.07.64.15,1.28.2,1.92.04.5-.06.99-.3,1.43-.21.38-.51.66-.96.74-.3.05-.51-.08-.54-.38-.02-.21-.01-.42,0-.63.04-.5.1-1,.15-1.51.04,0,.09,0,.13,0Z" fill="#000" stroke-width="0"/><path d="M80.83,75.38c-.81-2.25-1.57-4.53-2.18-6.85.99,2.2,1.83,4.44,2.18,6.85Z" fill="#000" stroke-width="0"/><path d="M77.49,70.51c-.14.54.06,1.03.16,1.54.08.41.14.83.14,1.24,0,.38-.16.73-.48.97-.35.27-.65.25-.96-.06-.28-.28-.4-.64-.43-1.01-.04-.52.11-.99.41-1.42-.03.16-.08.31-.1.47-.03.27-.07.54-.06.8,0,.2.07.41.15.6.1.22.25.45.51.45.29,0,.45-.24.51-.49.07-.31.12-.65.11-.97-.02-.4-.13-.8-.18-1.2-.04-.33,0-.64.2-.93Z" fill="#000" stroke-width="0"/><path d="M82.09,74.55c-.58-.5-.87-1.15-.86-1.92,0-.49.27-.83.63-.85.35-.02.69.32.71.78.03.53.14,1.03.32,1.53.1.27.17.57.04.85-.12-.36-.25-.71-.36-1.07-.1-.33-.18-.66-.27-.99-.06-.2-.08-.42-.18-.59-.13-.23-.37-.21-.47.04-.06.13-.08.29-.08.44,0,.44.1.86.28,1.26.08.17.17.35.25.52Z" fill="#000" stroke-width="0"/><path d="M71.95,97.87c0,.4,0,.8,0,1.2.05,1.79.92,2.98,2.61,3.57.02,0,.04.03.13.1-.97-.08-1.68-.5-2.25-1.15-.98-1.12-.84-2.41-.5-3.73Z" fill="#000" stroke-width="0"/><path d="M71.56,102.11c.71.5,1.52.77,2.31,1.09.92.38,1.76.9,2.51,1.57-.2-.1-.41-.19-.61-.29-.83-.38-1.66-.76-2.49-1.15-.44-.21-.88-.46-1.3-.71-.18-.11-.33-.29-.5-.43.03-.03.05-.05.08-.08Z" fill="#000" stroke-width="0"/><path d="M83.44,84.81c-.29-.59-.49-1.1-.34-1.67.03-.11.08-.23.13-.33.09-.19.26-.23.41-.1.19.16.4.35.48.57.23.59.4,1.19.57,1.8.07.25,0,.47-.25.62.18-.31.05-.59-.06-.87-.17-.42-.32-.84-.5-1.25-.08-.19-.2-.36-.31-.55q-.26.34-.12,1.8Z" fill="#000" stroke-width="0"/><path d="M70.85,100.18c-.67-1.07-.48-3.27.51-4.14-.58,1.74-.58,1.36-.51,4.14Z" fill="#000" stroke-width="0"/><path d="M83.21,93.09c.02.26.08.52.07.78-.02.35-.21.61-.54.76-.24.1-.47.11-.68-.05-.22-.17-.31-.41-.25-.68.05-.21.14-.42.3-.62,0,.13,0,.26,0,.39,0,.13-.02.27,0,.4.04.23.22.32.43.25.26-.08.43-.26.48-.54.04-.23.07-.46.1-.7.03,0,.06,0,.08,0Z" fill="#000" stroke-width="0"/><path d="M83.78,87.1c.07.23.14.49.43.5.32,0,.4-.26.48-.51.17.27.13.53-.1.74-.19.17-.51.18-.7.02-.25-.2-.28-.42-.11-.75Z" fill="#000" stroke-width="0"/><path d="M96.84,48c1.93-.74,3.49-2.07,5.1-3.32.86-.67,1.75-1.31,2.74-1.8.43-.21.86-.41,1.34-.46-.3.15-.61.3-.91.45-1.15.6-2.15,1.41-3.15,2.22-.9.73-1.83,1.41-2.83,1.99-.72.42-1.47.74-2.3.9Z" fill="#000" stroke-width="0"/><path d="M109.9,39.89c2.69-.77,5.33-.67,7.9.46-2.6-.72-5.24-.75-7.9-.46Z" fill="#000" stroke-width="0"/><path d="M108.23,40.19c-1.51.64-3.01,1.28-4.52,1.92,1.02-.93,3.17-1.84,4.52-1.92Z" fill="#000" stroke-width="0"/><path d="M100.24,59.13c.04-.06.07-.13.12-.17,1.24-.98,2.5-1.91,3.95-2.57,1.19-.54,2.42-.89,3.73-.92,1.44-.04,2.84.22,4.15.85.64.3,1.26.63,1.89.94,2.41,1.21,4.89,1.28,7.41.38.11-.04.22-.08.36-.05-.3.12-.59.26-.89.36-2.47.85-4.87.64-7.2-.49-.57-.28-1.12-.57-1.69-.83-.91-.41-1.85-.66-2.85-.77-1.83-.2-3.54.19-5.19.97-1.21.57-2.32,1.32-3.41,2.08-.12.08-.25.14-.38.22h0Z" fill="#000" stroke-width="0"/><path d="M95.78,57.02c-.16.15-.33.29-.49.44-.75.7-1.64,1.2-2.54,1.69-1.08.59-2.17,1.15-3.13,1.93-.75.61-1.31,1.35-1.65,2.26-.17.46-.35.92-.55,1.38-.15.35-.34.69-.59,1.01.03-.09.06-.17.09-.26.24-.66.5-1.32.7-1.99.46-1.49,1.42-2.56,2.71-3.34.73-.44,1.49-.82,2.25-1.21,1.03-.53,2.06-1.05,2.92-1.83.06-.06.18-.05.27-.07,0,0,0,0,0,0Z" fill="#000" stroke-width="0"/><path d="M122.8,56.82c-.78.26-1.56.51-2.38.62-2.23.28-4.36,0-6.34-1.12-.82-.46-1.64-.93-2.55-1.45.24.07.38.1.52.16.52.23,1.04.46,1.54.73,1.28.69,2.62,1.18,4.06,1.38,1.58.21,3.14.11,4.69-.26.16-.04.32-.04.48-.05,0,0,0,0,0,0Z" fill="#000" stroke-width="0"/><path d="M94.1,56.87c-.28.24-.53.52-.83.71-.95.59-1.93,1.14-2.9,1.71-.72.43-1.44.87-2,1.51-.4.45-.74.96-1.09,1.43.16-.57.45-1.09.85-1.57.66-.78,1.48-1.36,2.36-1.85.86-.48,1.75-.92,2.62-1.39.34-.18.67-.37,1.01-.55,0,0,0,0,0,0Z" fill="#000" stroke-width="0"/><path d="M96.49,60.29c-.67.45-1.34.91-2,1.36-.87.59-1.74,1.17-2.61,1.75-.48.32-.87.73-1.19,1.21-.17.26-.37.5-.59.72.35-.77.7-1.56,1.42-2.05.98-.68,1.99-1.33,3-1.97.62-.39,1.26-.73,1.9-1.1.02.03.05.06.07.08Z" fill="#000" stroke-width="0"/><path d="M87.35,66.25c.32-.67.65-1.35.97-2.02.23-.47.46-.94.7-1.4.27-.51.65-.94,1.1-1.29.78-.61,1.67-.96,2.64-1.16-.15.07-.3.14-.46.22-.88.42-1.75.85-2.41,1.61-.51.58-.84,1.27-1.2,1.94-.27.5-.54,1-.83,1.49-.14.24-.34.44-.51.66,0-.01,0-.03-.01-.04Z" fill="#000" stroke-width="0"/><path d="M91.89,64.83c.29-.59.66-1.11,1.18-1.51.65-.5,1.31-1,2.01-1.43,1.09-.68,2.21-1.31,3.35-1.98-.28.34-.6.59-.94.81-.86.58-1.73,1.14-2.6,1.69-1.1.69-2.16,1.41-3,2.42Z" fill="#000" stroke-width="0"/><path d="M119.91,58.82c-1.98.79-3.93.76-5.82-.36,1.91.64,3.84.75,5.82.36Z" fill="#000" stroke-width="0"/><path d="M112.31,57.5c-1.8-.54-3.59-1.13-5.54-1.08,1.34-.61,4.33.18,5.54,1.08Z" fill="#000" stroke-width="0"/><path d="M97.59,59.46c1.29-1.26,2.59-2.52,3.88-3.78-.98,1.58-2.21,2.91-3.88,3.78Z" fill="#000" stroke-width="0"/><path d="M103.02,55.66c-.88,1.46-1.99,2.68-3.54,3.44l3.54-3.44Z" fill="#000" stroke-width="0"/><path d="M121.18,59.61c-1.03.82-2.16,1.3-3.56,1.21,1.23-.42,2.39-.81,3.56-1.21Z" fill="#000" stroke-width="0"/><path d="M84.98,66.71c.56-.45.93-1.04,1.19-1.71.13-.35.28-.69.42-1.04.06-.15.15-.28.27-.41-.11.63-.22,1.27-.5,1.85-.17.36-.43.68-.7.97-.16.18-.41.27-.62.41-.02-.02-.04-.05-.06-.07Z" fill="#000" stroke-width="0"/><path d="M118.82,59.7c1-.49,1.99-.99,3.04-1.36-.87.8-2.12,1.39-3.04,1.36Z" fill="#000" stroke-width="0"/><path d="M89.51,64.35c-.14.76-.45,1.41-1.25,1.75.39-.6.77-1.19,1.16-1.79.03.01.06.03.09.04Z" fill="#000" stroke-width="0"/><path d="M83.56,66.79c.12-.16.25-.31.37-.47-.12.16-.25.31-.37.47Z" fill="#000" stroke-width="0"/><path d="M100.23,59.12c-.08.09-.17.18-.25.27-.02-.03-.04-.05-.06-.08.11-.06.21-.12.32-.18,0,0,0,0,0,0Z" fill="#000" stroke-width="0"/><path d="M78.99,65.62s.04-.1.07-.15c.98-1.9,1.1-3.87.5-5.89-.33-1.12-.78-2.2-1.17-3.3-.4-1.13-.76-2.28-.79-3.49-.02-.54-.04-1.09.17-1.61-.15,1.11.02,2.18.32,3.24.19.65.43,1.28.66,1.91.38,1.07.82,2.12,1.15,3.21.42,1.37.45,2.77.05,4.17-.2.69-.48,1.35-.96,1.92Z" fill="#000" stroke-width="0"/><path d="M76.94,64.32c.03-1.65-.28-3.25-.94-4.77-.36-.84-.81-1.64-1.22-2.45-.38-.75-.71-1.52-.89-2.34-.04-.19-.05-.38,0-.58.09.29.15.6.28.88.35.76.69,1.53,1.09,2.26.66,1.21,1.33,2.42,1.59,3.79.2,1.06.33,2.13.09,3.21Z" fill="#000" stroke-width="0"/><path d="M79.15,61.2c-.15-.65-.28-1.31-.46-1.95-.28-1.02-.8-1.93-1.32-2.84-.81-1.42-1.29-3.63-.83-5.42,0,.11,0,.23,0,.34-.08,1.72.29,3.33,1.1,4.84.45.83.91,1.65,1.18,2.56.24.81.4,1.62.32,2.46Z" fill="#000" stroke-width="0"/><path d="M77.77,65.51c.01-.19,0-.39.04-.57.22-1.01.44-2.02.48-3.05.04-1.04-.13-2.03-.62-2.95-.4-.77-.84-1.52-1.23-2.29-.18-.35-.32-.73-.47-1.1.03-.02.06-.03.09-.05.11.22.22.45.34.66.41.68.8,1.37,1.24,2.03.96,1.46,1.2,3.05.84,4.73-.16.76-.41,1.5-.62,2.24-.03.11-.06.23-.08.34,0,0,0,0,0,0Z" fill="#000" stroke-width="0"/><path d="M79.35,66.09c.05-.14.08-.28.15-.41.51-.97.93-1.97,1.11-3.07.17-1.06.02-2.09-.23-3.11-.13-.52-.27-1.03-.34-1.58.1.24.21.47.3.71.36.93.65,1.87.69,2.87.07,1.55-.49,2.9-1.35,4.15-.1.15-.22.28-.34.42,0,0,.01.01.01.01Z" fill="#000" stroke-width="0"/><path d="M76.46,65.04c-.12-2.23-.86-4.27-1.78-6.28-.25-.54-.5-1.08-.68-1.66.14.21.28.42.41.64.64,1.1,1.23,2.23,1.62,3.45.29.9.44,1.84.48,2.78.02.36-.04.71-.06,1.07Z" fill="#000" stroke-width="0"/><path d="M103.48,59.94c.43.23.87.44,1.27.71,1.28.85,2.28,1.97,3.22,3.17.37.47.72.95,1.08,1.43-.02.02-.04.04-.06.06-.11-.11-.23-.23-.34-.34-.11-.12-.23-.24-.34-.36-.87-.93-1.74-1.86-2.62-2.78-.61-.64-1.31-1.18-2.06-1.66-.07-.04-.13-.1-.2-.15.01-.02.03-.05.04-.07Z" fill="#000" stroke-width="0"/><path d="M109.78,63c-.67-.54-1.35-1.09-2.02-1.63-.51-.41-1.02-.84-1.54-1.24-.58-.44-1.21-.77-1.91-.97.48-.04.92.12,1.35.3.67.29,1.25.72,1.79,1.19.76.66,1.48,1.35,2.22,2.04.07.07.13.16.19.24-.02.02-.05.04-.07.07Z" fill="#000" stroke-width="0"/><path d="M116.03,65.26c-2.02.47-3.71-.18-5.22-1.57.88.4,1.69.83,2.54,1.16.85.33,1.78.36,2.68.41Z" fill="#000" stroke-width="0"/><path d="M65.13,41.71c.41,1.42,1.11,2.68,2.08,3.79.35.41.71.82,1.08,1.2,1,1.03,1.51,2.29,1.77,3.67.23,1.26.24,2.53.27,3.81.04,1.83.34,3.6,1.12,5.28.02.05.02.1,0,.17-.42-.65-.7-1.36-.91-2.08-.3-.99-.42-2.02-.49-3.05-.09-1.31-.11-2.63-.32-3.94-.26-1.61-.98-2.97-2.1-4.14-1.11-1.15-1.94-2.48-2.4-4.01-.07-.22-.06-.46-.09-.7,0,0,0,0,0,0Z" fill="#000" stroke-width="0"/><path d="M70.52,49.66c-.25-.65-.51-1.28-.91-1.84-.3-.42-.63-.84-.96-1.24-.83-1-1.44-2.12-1.91-3.33,0-.03,0-.06,0-.14.06.06.1.08.12.12.72,1.32,1.56,2.55,2.5,3.72.39.48.7,1.01.89,1.6.12.36.18.75.26,1.12Z" fill="#000" stroke-width="0"/><path d="M77.49,108.08c-.57.23-1.11.08-1.66-.09-.71-.22-1.34-.6-1.93-1.05-.66-.5-1.34-.96-2.1-1.29.44.01.84.15,1.21.36.65.38,1.27.79,1.91,1.19.79.49,1.61.86,2.57.89Z" fill="#000" stroke-width="0"/><path d="M70.27,106.59c.17.34.44.47.81.47.39,0,.66.21.67.58.02.44.18.7.61.8.03,0,.05.07.1.13-.11-.01-.2-.03-.29-.04-.5-.07-.6-.13-.69-.6-.07-.4-.28-.55-.65-.6-.46-.07-.6-.27-.57-.73Z" fill="#000" stroke-width="0"/><path d="M73.18,109.32c.33-.33.65-.4,1.01-.31.39.09.72.27,1.01.55.18.17.39.3.6.46-.13.14-.31.06-.48-.03-.17-.09-.33-.21-.49-.32-.48-.31-.98-.52-1.65-.35Z" fill="#000" stroke-width="0"/><path d="M69.07,105.65c-.48.08-.63.03-.78-.27-.06-.12-.09-.25-.12-.38-.13-.66-.23-.86-.68-1.28.24-.05.41.07.55.21.26.26.43.58.46.95.03.34.09.66.56.77Z" fill="#000" stroke-width="0"/><path d="M67.28,101.09c.34.61.64,1.15.94,1.7-.63-.16-1.04-.87-.94-1.7Z" fill="#000" stroke-width="0"/><path d="M123.77,46.09c-.25.2-.49.42-.76.59-.9.58-1.91.84-2.98.89-.44.02-.89,0-1.34-.05.53-.09,1.05-.19,1.58-.28,1.35-.22,2.14-.5,3.42-1.24.02.03.05.06.07.08Z" fill="#000" stroke-width="0"/><path d="M121,48.88c1.14-.26,2.3-.45,3.37-1.16-.43.78-1.76,1.39-3.37,1.16Z" fill="#000" stroke-width="0"/><path d="M82.43,66.73c.33-.39.67-.76.97-1.16.29-.38.54-.79.83-1.17-.2.95-.63,1.76-1.49,2.28-.08.05-.21.03-.32.04,0,0,0,0,0,0Z" fill="#000" stroke-width="0"/><path d="M80.9,66.55c.14-.13.3-.24.41-.39.99-1.25,1.59-2.66,1.81-4.25.13-.94.11-1.88.08-2.83,0-.07,0-.14.07-.23.05.26.12.51.14.77.17,1.59.11,3.14-.59,4.62-.38.81-.87,1.54-1.55,2.13-.11.09-.2.24-.38.16,0,0,0,0,0,0Z" fill="#000" stroke-width="0"/><path d="M50.68,51.33c.36.4.7.82,1.08,1.2.77.8,1.69,1.39,2.65,1.92,1.28.71,2.47,1.53,3.5,2.57.86.87,1.7,1.77,2.53,2.68,1.2,1.32,2.35,2.69,3.76,3.8.54.43,1.12.81,1.67,1.21-.28-.13-.57-.25-.84-.41-1.39-.84-2.54-1.95-3.65-3.12-1.01-1.07-2-2.15-3.01-3.22-1.28-1.35-2.72-2.49-4.34-3.4-1.24-.71-2.29-1.63-3.13-2.8-.09-.13-.15-.29-.22-.43Z" fill="#000" stroke-width="0"/></svg>