<?xml version="1.0" encoding="UTF-8"?><svg id="Layer_1" xmlns="http://www.w3.org/2000/svg" viewBox="0 0 144.57 144.57"><path d="m28.74,32.49l1.03,3.3h-2.04l1.01-3.3m0-.36l-1.15,3.77h2.32l-1.17-3.77h0Z" fill="#1e1e1c"/><path d="m28.76,23.37c2.9,0,5.63,1.13,7.69,3.18,4.24,4.24,4.24,11.14,0,15.38-2.05,2.05-4.78,3.18-7.69,3.18s-5.63-1.13-7.69-3.18c-4.24-4.24-4.24-11.14,0-15.38,2.05-2.05,4.78-3.18,7.69-3.18m-4.91,16.29h2.69l.02-.07.47-1.53h3.42l.47,1.53.02.07h2.72l-.05-.14-3.61-10.62-.02-.07h-2.49l-.02.07-3.58,10.62-.05.14m4.91-16.39c-2.81,0-5.62,1.07-7.76,3.22-4.29,4.29-4.29,11.24,0,15.53,2.14,2.14,4.95,3.22,7.76,3.22s5.62-1.07,7.76-3.22c4.29-4.29,4.29-11.24,0-15.53-2.14-2.14-4.95-3.22-7.76-3.22h0Zm-4.76,16.29l3.58-10.62h2.34l3.61,10.62h-2.5l-.49-1.6h-3.58l-.49,1.6h-2.47Z" fill="#1e1e1c"/><path d="m27.58,28.93l-3.58,10.62h2.47s.49-1.6.49-1.6h3.58s.49,1.6.49,1.6h2.5s-3.61-10.62-3.61-10.62h-2.34Zm0,6.97l1.15-3.77,1.17,3.77h-2.32Z" fill="none" stroke="#1e1e1c" stroke-miterlimit="10" stroke-width=".1"/><path d="m57.44,76.07c2.9,0,5.63,1.13,7.69,3.18,2.05,2.05,3.18,4.78,3.18,7.69s-1.13,5.63-3.18,7.69c-2.05,2.05-4.78,3.18-7.69,3.18s-5.63-1.13-7.69-3.18c-4.24-4.24-4.24-11.14,0-15.38,2.05-2.05,4.78-3.18,7.69-3.18m1.9,16.58c.49,0,1.05-.05,1.57-.13h.09v-2.44l-.12.02c-.5.09-.97.14-1.38.14-1.99,0-3.23-1.21-3.23-3.16s1.24-3.16,3.23-3.16c.41,0,.88.05,1.38.14l.12.02v-2.42h-.09c-.52-.1-1.08-.15-1.57-.15-3.45,0-5.76,2.23-5.76,5.56s2.31,5.56,5.76,5.56m-1.9-16.68c-2.81,0-5.62,1.07-7.76,3.22-4.29,4.29-4.29,11.24,0,15.53,2.14,2.14,4.95,3.22,7.76,3.22s5.62-1.07,7.76-3.22c4.29-4.29,4.29-11.24,0-15.53-2.14-2.14-4.95-3.22-7.76-3.22h0Zm1.9,16.58c-3.36,0-5.66-2.21-5.66-5.45s2.29-5.45,5.66-5.45c.48,0,1.02.04,1.56.13v2.21c-.46-.09-.95-.14-1.4-.14-2.05,0-3.33,1.26-3.33,3.26s1.28,3.26,3.33,3.26c.45,0,.94-.06,1.4-.14v2.21c-.53.09-1.08.13-1.56.13h0Z" fill="#1e1e1c"/><path d="m53.69,87.08c0,3.25,2.29,5.45,5.66,5.45.48,0,1.02-.04,1.56-.13v-2.21c-.46.09-.95.14-1.4.14-2.05,0-3.33-1.26-3.33-3.26s1.28-3.26,3.33-3.26c.45,0,.94.06,1.4.14v-2.21c-.53-.09-1.08-.13-1.56-.13-3.36,0-5.66,2.21-5.66,5.45Z" fill="none" stroke="#1e1e1c" stroke-miterlimit="10" stroke-width=".1"/><path d="m86.11,76.07c2.9,0,5.63,1.13,7.69,3.18,2.05,2.05,3.18,4.78,3.18,7.69s-1.13,5.63-3.18,7.69c-2.05,2.05-4.78,3.18-7.69,3.18s-5.63-1.13-7.69-3.18c-2.05-2.05-3.18-4.78-3.18-7.69s1.13-5.63,3.18-7.69c2.05-2.05,4.78-3.18,7.69-3.18m-3.86,16.29h3.41c3.43,0,5.73-2.18,5.73-5.41s-2.3-5.41-5.73-5.41h-3.41v10.83m3.86-16.39c-2.81,0-5.62,1.07-7.76,3.22-4.29,4.29-4.29,11.24,0,15.53,2.14,2.14,4.95,3.22,7.76,3.22s5.62-1.07,7.76-3.22c4.29-4.29,4.29-11.24,0-15.53-2.14-2.14-4.95-3.22-7.76-3.22h0Zm-3.75,16.29v-10.62h3.3c3.35,0,5.63,2.06,5.63,5.31s-2.28,5.31-5.63,5.31h-3.3Z" fill="#1e1e1c"/><path d="m85.66,84.02c1.9,0,3.04,1.09,3.04,2.92s-1.14,2.92-3.04,2.92h-.8v-5.85h.8m0-.1h-.91v6.06h.91c1.92,0,3.14-1.08,3.14-3.03s-1.23-3.03-3.14-3.03h0Z" fill="#1e1e1c"/><path d="m85.66,81.63h-3.3v10.62h3.3c3.35,0,5.63-2.06,5.63-5.31,0-3.25-2.28-5.31-5.63-5.31Zm0,8.34h-.91s0-6.06,0-6.06h.91c1.92,0,3.14,1.08,3.14,3.03s-1.23,3.03-3.14,3.03Z" fill="none" stroke="#1e1e1c" stroke-miterlimit="10" stroke-width=".1"/><path d="m114.79,76.07c2.9,0,5.63,1.13,7.69,3.18,2.05,2.05,3.18,4.78,3.18,7.69s-1.13,5.63-3.18,7.69c-2.05,2.05-4.78,3.18-7.69,3.18s-5.63-1.13-7.69-3.18c-2.05-2.05-3.18-4.78-3.18-7.69s1.13-5.63,3.18-7.69c2.05-2.05,4.78-3.18,7.69-3.18m-3.86,16.46h6.28v-2.43h-3.68v-1.82h3.58v-2.43h-3.58v-1.71h3.62v-2.43h-6.23v10.72s0,.1,0,.1m3.86-16.57c-2.81,0-5.62,1.07-7.76,3.22-4.29,4.29-4.29,11.24,0,15.53,2.14,2.14,4.95,3.22,7.76,3.22s5.62-1.07,7.76-3.22c4.29-4.29,4.29-11.24,0-15.53-2.14-2.14-4.95-3.22-7.76-3.22h0Zm-3.75,16.46v-10.62s6.02,0,6.02,0v2.22h-3.62v1.92h3.58v2.22h-3.58v2.03h3.68v2.22h-6.07Z" fill="#1e1e1c"/><polygon points="113.43 88.17 117.01 88.17 117.01 85.95 113.43 85.95 113.43 84.03 117.05 84.03 117.05 81.81 111.03 81.81 111.03 92.42 117.11 92.42 117.11 90.2 113.43 90.2 113.43 88.17" fill="none" stroke="#1e1e1c" stroke-miterlimit="10" stroke-width=".1"/><path d="m114.79,102.42c2.9,0,5.63,1.13,7.69,3.18,4.24,4.24,4.24,11.14,0,15.38-2.05,2.05-4.78,3.18-7.69,3.18s-5.63-1.13-7.69-3.18c-4.24-4.24-4.24-11.14,0-15.38,2.05-2.05,4.78-3.18,7.69-3.18m-3.86,16.46h2.6v-4.18l2.81,4.13.03.05h3.17l-.11-.16-3.81-5.49,3.61-4.92.12-.17h-3.07l-.03.04-2.71,3.76v-3.89h-2.6v10.72s0,.1,0,.1m3.86-16.57c-2.81,0-5.62,1.07-7.76,3.22-4.29,4.29-4.29,11.24,0,15.53,2.14,2.14,4.95,3.22,7.76,3.22s5.62-1.07,7.76-3.22c4.29-4.29,4.29-11.24,0-15.53-2.14-2.14-4.95-3.22-7.76-3.22h0Zm-3.75,16.46v-10.62s2.39,0,2.39,0v4.11l2.9-4.03h2.81l-3.65,4.98,3.85,5.55h-2.91l-3-4.41v4.41h-2.39Z" fill="#1e1e1c"/><polygon points="119.14 108.24 116.33 108.24 113.43 112.27 113.43 108.16 111.03 108.16 111.03 118.77 113.43 118.77 113.43 114.36 116.43 118.77 119.34 118.77 115.49 113.22 119.14 108.24" fill="none" stroke="#1e1e1c" stroke-miterlimit="10" stroke-width=".1"/><path d="m56.04,35.27c.73,0,1.15.38,1.15,1.03s-.42,1.03-1.15,1.03h-1.32v-2.07h1.32m0-.1h-1.43v2.28h1.43c.79,0,1.26-.42,1.26-1.14s-.46-1.14-1.26-1.14h0Z" fill="#1e1e1c"/><path d="m55.91,31.14c.65,0,1.02.33,1.02.92s-.37.92-1.02.92h-1.19v-1.84h1.19m0-.1h-1.3v2.05h1.3c.71,0,1.13-.39,1.13-1.02s-.42-1.02-1.13-1.02h0Z" fill="#1e1e1c"/><path d="m57.44,23.37c2.9,0,5.63,1.13,7.69,3.18,4.24,4.24,4.24,11.14,0,15.38-2.05,2.05-4.78,3.18-7.69,3.18s-5.63-1.13-7.69-3.18c-4.24-4.24-4.24-11.14,0-15.38,2.05-2.05,4.78-3.18,7.69-3.18m-5.32,16.29h3.9c2.32,0,3.81-1.26,3.81-3.22,0-1.15-.52-2.01-1.48-2.45.73-.46,1.12-1.23,1.12-2.21,0-1.82-1.44-2.95-3.75-2.95h-3.6v10.83m9.47-3.35h.33v3.46h1.2v-4.61h-1.54v1.15m-4.15-13.04c-2.81,0-5.62,1.07-7.76,3.22-4.29,4.29-4.29,11.24,0,15.53,2.14,2.14,4.95,3.22,7.76,3.22s5.62-1.07,7.76-3.22c4.29-4.29,4.29-11.24,0-15.53-2.14-2.14-4.95-3.22-7.76-3.22h0Zm-5.22,16.29v-10.62h3.49c2.27,0,3.65,1.07,3.65,2.84,0,1.02-.45,1.8-1.26,2.22,1.04.39,1.62,1.26,1.62,2.44,0,1.89-1.47,3.12-3.71,3.12h-3.79Zm9.47-3.35v-.94h1.33v4.4h-.99v-3.46h-.33Z" fill="#1e1e1c"/><path d="m58.1,33.99c.81-.42,1.26-1.2,1.26-2.22,0-1.77-1.38-2.84-3.65-2.84h-3.49v10.62h3.79c2.24,0,3.71-1.23,3.71-3.12,0-1.18-.58-2.05-1.62-2.44Zm-3.49-2.96h1.3c.71,0,1.13.39,1.13,1.02s-.42,1.02-1.13,1.02h-1.3s0-2.05,0-2.05Zm1.43,6.41h-1.43s0-2.28,0-2.28h1.43c.79,0,1.26.42,1.26,1.14s-.46,1.14-1.26,1.14Z" fill="none" stroke="#1e1e1c" stroke-miterlimit="10" stroke-width=".1"/><polygon points="61.69 36.2 62.03 36.2 62.03 39.65 63.02 39.65 63.02 35.25 61.69 35.25 61.69 36.2" fill="none" stroke="#1e1e1c" stroke-miterlimit="10" stroke-width=".1"/><path d="m84.59,31.14c.65,0,1.02.33,1.02.92s-.37.92-1.02.92h-1.19v-1.84h1.19m0-.1h-1.3v2.05h1.3c.71,0,1.13-.39,1.13-1.02s-.42-1.02-1.13-1.02h0Z" fill="#1e1e1c"/><path d="m84.72,35.27c.73,0,1.15.38,1.15,1.03s-.42,1.03-1.15,1.03h-1.32v-2.07h1.32m0-.1h-1.43v2.28h1.43c.79,0,1.26-.42,1.26-1.14s-.46-1.14-1.26-1.14h0Z" fill="#1e1e1c"/><path d="m86.11,23.37c2.9,0,5.63,1.13,7.69,3.18,4.24,4.24,4.24,11.14,0,15.38-2.05,2.05-4.78,3.18-7.69,3.18s-5.63-1.13-7.69-3.18c-4.24-4.24-4.24-11.14,0-15.38,2.05-2.05,4.78-3.18,7.69-3.18m-5.32,16.29h3.9c2.32,0,3.81-1.26,3.81-3.22,0-1.15-.52-2.01-1.48-2.45.73-.46,1.12-1.23,1.12-2.21,0-1.82-1.44-2.95-3.75-2.95h-3.6v10.83m9.81-2.83l.02-.11c.06-.32.23-.49.47-.49.22,0,.34.17.34.33,0,.25-.24.52-.41.69l-.06.06-1.39,1.57-.03.03v.86h3.13v-1.12h-1.4l.5-.56s.08-.09.12-.13c.34-.36.75-.8.75-1.47,0-.82-.63-1.39-1.52-1.39s-1.46.5-1.61,1.35l-.02.1.09.02.9.24.11.03m-4.49-13.56c-2.81,0-5.62,1.07-7.76,3.22-4.29,4.29-4.29,11.24,0,15.53,2.14,2.14,4.95,3.22,7.76,3.22s5.62-1.07,7.76-3.22c4.29-4.29,4.29-11.24,0-15.53-2.14-2.14-4.95-3.22-7.76-3.22h0Zm-5.22,16.29v-10.62h3.49c2.27,0,3.65,1.07,3.65,2.84,0,1.02-.45,1.8-1.26,2.22,1.04.39,1.62,1.26,1.62,2.44,0,1.89-1.47,3.12-3.71,3.12h-3.79Zm9.63-2.86l-.9-.24c.14-.8.7-1.26,1.51-1.26.86,0,1.42.54,1.42,1.29s-.51,1.17-.85,1.54l-.66.74h1.53v.91h-2.92v-.71l1.39-1.57c.17-.19.49-.5.49-.83,0-.22-.16-.44-.45-.44s-.49.19-.57.57h0Z" fill="#1e1e1c"/><path d="m86.78,33.99c.81-.42,1.26-1.2,1.26-2.22,0-1.77-1.38-2.84-3.65-2.84h-3.49v10.62h3.79c2.24,0,3.71-1.23,3.71-3.12,0-1.18-.58-2.05-1.62-2.44Zm-3.49-2.96h1.3c.71,0,1.13.39,1.13,1.02s-.42,1.02-1.13,1.02h-1.3s0-2.05,0-2.05Zm1.43,6.41h-1.43s0-2.28,0-2.28h1.43c.79,0,1.26.42,1.26,1.14s-.46,1.14-1.26,1.14Z" fill="none" stroke="#1e1e1c" stroke-miterlimit="10" stroke-width=".1"/><path d="m91.7,38.01c.33-.37.85-.83.85-1.54,0-.75-.56-1.29-1.42-1.29-.81,0-1.36.46-1.51,1.26l.9.24c.08-.38.29-.57.57-.57s.45.22.45.44c0,.33-.32.64-.49.83l-1.39,1.57v.71h2.92v-.91h-1.53s.66-.74.66-.74Z" fill="none" stroke="#1e1e1c" stroke-miterlimit="10" stroke-width=".1"/><path d="m113.39,35.27c.73,0,1.15.38,1.15,1.03s-.42,1.03-1.15,1.03h-1.32v-2.07h1.32m0-.1h-1.43v2.28h1.43c.79,0,1.26-.42,1.26-1.14s-.46-1.14-1.26-1.14h0Z" fill="#1e1e1c"/><path d="m114.79,23.37c2.9,0,5.63,1.13,7.69,3.18,4.24,4.24,4.24,11.14,0,15.38-2.05,2.05-4.78,3.18-7.69,3.18s-5.63-1.13-7.69-3.18c-4.24-4.24-4.24-11.14,0-15.38,2.05-2.05,4.78-3.18,7.69-3.18m-5.32,16.29h3.9c2.32,0,3.81-1.26,3.81-3.22,0-1.15-.52-2.01-1.48-2.45.73-.46,1.12-1.23,1.12-2.21,0-1.82-1.44-2.95-3.75-2.95h-3.6v10.72s0,.1,0,.1m9.81-2.83l.02-.1c.05-.24.18-.53.52-.53.24,0,.4.14.4.34s-.17.34-.43.34h-.32v1.05h.39c.14,0,.48.04.48.37,0,.25-.19.4-.49.4-.34,0-.55-.2-.62-.57l-.02-.12-.11.03-.92.28-.09.03.02.09c.18.86.82,1.35,1.75,1.35,1,0,1.7-.6,1.7-1.45,0-.47-.21-.84-.57-1.04.26-.22.4-.54.4-.91,0-.78-.63-1.3-1.56-1.3-.84,0-1.44.51-1.62,1.37l-.02.1.1.02.89.21.1.02m-4.48-13.56c-2.81,0-5.62,1.07-7.76,3.22-4.29,4.29-4.29,11.24,0,15.53,2.14,2.14,4.95,3.22,7.76,3.22s5.62-1.07,7.76-3.22c4.29-4.29,4.29-11.24,0-15.53-2.14-2.14-4.95-3.22-7.76-3.22h0Zm-5.22,16.29v-10.62s3.49,0,3.49,0c2.27,0,3.65,1.07,3.65,2.84,0,1.02-.45,1.8-1.26,2.22,1.04.39,1.62,1.26,1.62,2.44,0,1.89-1.47,3.12-3.71,3.12h-3.79Zm9.62-2.85l-.89-.21c.17-.82.73-1.29,1.51-1.29.89,0,1.46.48,1.46,1.2,0,.41-.19.75-.5.93.42.16.68.53.68,1.02,0,.8-.65,1.35-1.59,1.35-.78,0-1.47-.37-1.65-1.26l.92-.28c.08.45.36.65.72.65s.59-.21.59-.51-.23-.48-.59-.48h-.29v-.84h.22c.33,0,.53-.19.53-.45s-.2-.45-.5-.45c-.32,0-.54.22-.62.61h0Z" fill="#1e1e1c"/><path d="m113.26,31.14c.65,0,1.02.33,1.02.92s-.37.92-1.02.92h-1.19v-1.84h1.19m0-.1h-1.3v2.05h1.3c.71,0,1.13-.39,1.13-1.02s-.42-1.02-1.13-1.02h0Z" fill="#1e1e1c"/><path d="m117.07,36.43c0-1.18-.58-2.05-1.62-2.44.81-.42,1.26-1.2,1.26-2.22,0-1.77-1.38-2.84-3.65-2.84h-3.49v10.62h3.79c2.24,0,3.71-1.23,3.71-3.12Zm-5.11-5.4h1.3c.71,0,1.13.39,1.13,1.02s-.42,1.02-1.13,1.02h-1.3s0-2.05,0-2.05Zm0,4.13h1.43c.79,0,1.26.42,1.26,1.14s-.46,1.14-1.26,1.14h-1.43s0-2.28,0-2.28Z" fill="none" stroke="#1e1e1c" stroke-miterlimit="10" stroke-width=".1"/><path d="m119.85,38.8c-.36,0-.64-.2-.72-.65l-.92.28c.19.89.87,1.26,1.65,1.26.94,0,1.59-.54,1.59-1.35,0-.5-.25-.86-.68-1.02.31-.19.5-.52.5-.93,0-.71-.57-1.2-1.46-1.2-.78,0-1.35.47-1.51,1.29l.89.21c.08-.39.3-.61.62-.61.31,0,.5.19.5.45s-.2.45-.53.45h-.22v.84h.29c.36,0,.59.17.59.48s-.23.51-.59.51Z" fill="none" stroke="#1e1e1c" stroke-miterlimit="10" stroke-width=".1"/><path d="m28.76,49.72c2.9,0,5.63,1.13,7.69,3.18,2.05,2.05,3.18,4.78,3.18,7.69s-1.13,5.63-3.18,7.69c-2.05,2.05-4.78,3.18-7.69,3.18s-5.63-1.13-7.69-3.18c-2.05-2.05-3.18-4.78-3.18-7.69s1.13-5.63,3.18-7.69c2.05-2.05,4.78-3.18,7.69-3.18m-5.32,16.29h3.9c2.32,0,3.81-1.26,3.81-3.22,0-1.15-.52-2.01-1.48-2.45.73-.46,1.12-1.23,1.12-2.21,0-1.82-1.44-2.95-3.75-2.95h-3.6v10.83m9.54-1.65l.04-.06c.11-.14.24-.21.41-.21.29,0,.46.18.46.46s-.18.46-.47.46-.47-.17-.52-.46l-.02-.11-.11.03-.89.21-.09.02.02.1c.13.78.78,1.29,1.64,1.29.98,0,1.64-.63,1.64-1.56,0-.85-.59-1.45-1.43-1.45-.13,0-.26.01-.39.04l.08-.48h1.59v-1.07h-2.58v.09s-.32,2.35-.32,2.35v.09s.08.02.08.02l.79.21.07.02m-4.22-14.74c-2.81,0-5.62,1.07-7.76,3.22-4.29,4.29-4.29,11.24,0,15.53,2.14,2.14,4.95,3.22,7.76,3.22s5.62-1.07,7.76-3.22c4.29-4.29,4.29-11.24,0-15.53-2.14-2.14-4.95-3.22-7.76-3.22h0Zm-5.22,16.29v-10.62h3.49c2.26,0,3.65,1.07,3.65,2.84,0,1.02-.45,1.8-1.26,2.22,1.04.39,1.62,1.26,1.62,2.44,0,1.89-1.47,3.12-3.71,3.12h-3.79Zm9.39-1.67l-.79-.21.31-2.35h2.39v.86h-1.58l-.12.74c.16-.06.34-.09.52-.09.78,0,1.32.54,1.32,1.34,0,.87-.61,1.45-1.54,1.45-.82,0-1.42-.46-1.54-1.2l.89-.21c.06.35.29.55.62.55s.57-.22.57-.57-.23-.56-.57-.56c-.21,0-.37.08-.49.25h0Z" fill="#1e1e1c"/><path d="m27.24,57.49c.65,0,1.02.33,1.02.92s-.37.92-1.02.92h-1.19v-1.84h1.19m0-.1h-1.3v2.05h1.3c.71,0,1.13-.39,1.13-1.02s-.42-1.02-1.13-1.02h0Z" fill="#1e1e1c"/><path d="m27.37,61.62c.73,0,1.15.38,1.15,1.03s-.42,1.03-1.15,1.03h-1.32v-2.07h1.32m0-.1h-1.43v2.28h1.43c.79,0,1.26-.42,1.26-1.14s-.46-1.14-1.26-1.14h0Z" fill="#1e1e1c"/><path d="m29.43,60.34c.81-.42,1.26-1.2,1.26-2.22,0-1.77-1.38-2.84-3.65-2.84h-3.49v10.62h3.79c2.24,0,3.71-1.23,3.71-3.12,0-1.18-.58-2.05-1.62-2.44Zm-3.49-2.96h1.3c.71,0,1.13.39,1.13,1.02s-.42,1.02-1.13,1.02h-1.3s0-2.05,0-2.05Zm1.43,6.41h-1.43s0-2.28,0-2.28h1.43c.79,0,1.26.42,1.26,1.14s-.46,1.14-1.26,1.14Z" fill="none" stroke="#1e1e1c" stroke-miterlimit="10" stroke-width=".1"/><path d="m33.67,63.18c-.18,0-.35.03-.52.09l.12-.74h1.58v-.86h-2.39s-.31,2.35-.31,2.35l.79.21c.13-.17.28-.25.49-.25.34,0,.57.21.57.56s-.23.57-.57.57-.56-.2-.62-.55l-.89.21c.12.74.72,1.2,1.54,1.2.92,0,1.54-.59,1.54-1.45,0-.81-.54-1.34-1.32-1.34Z" fill="none" stroke="#1e1e1c" stroke-miterlimit="10" stroke-width=".1"/><path d="m62.68,63.97c.29,0,.47.2.47.52s-.19.52-.47.52-.48-.2-.48-.52.19-.52.48-.52m0-.1c-.35,0-.59.25-.59.63s.24.63.59.63.58-.26.58-.63-.23-.63-.58-.63h0Z" fill="#1e1e1c"/><path d="m57.44,49.72c2.9,0,5.63,1.13,7.69,3.18,2.05,2.05,3.18,4.78,3.18,7.69s-1.13,5.63-3.18,7.69c-2.05,2.05-4.78,3.18-7.69,3.18s-5.63-1.13-7.69-3.18c-2.05-2.05-3.18-4.78-3.18-7.69s1.13-5.63,3.18-7.69c2.05-2.05,4.78-3.18,7.69-3.18m-5.32,16.29h3.9c2.32,0,3.81-1.26,3.81-3.22,0-1.15-.52-2.01-1.48-2.45.73-.46,1.12-1.23,1.12-2.21,0-1.82-1.44-2.95-3.75-2.95h-3.6v10.83m10.54.08c.99,0,1.68-.67,1.68-1.62,0-.89-.59-1.5-1.48-1.5-.03,0-.05,0-.08,0,.25-.41.52-.83.81-1.24l.12-.17h-1.35l-.03.05-.83,1.43c-.33.57-.47,1-.47,1.44,0,.95.66,1.59,1.63,1.59m-5.21-16.47c-2.81,0-5.62,1.07-7.76,3.22-4.29,4.29-4.29,11.24,0,15.53,2.14,2.14,4.95,3.22,7.76,3.22s5.62-1.07,7.76-3.22c4.29-4.29,4.29-11.24,0-15.53-2.14-2.14-4.95-3.22-7.76-3.22h0Zm-5.22,16.29v-10.62h3.49c2.26,0,3.65,1.07,3.65,2.84,0,1.02-.45,1.8-1.26,2.22,1.04.39,1.62,1.26,1.62,2.44,0,1.89-1.47,3.12-3.71,3.12h-3.79Zm11.28-4.23c-.34.48-.64.95-.92,1.43.09-.02.18-.02.27-.02.82,0,1.37.56,1.37,1.39,0,.9-.64,1.51-1.57,1.51s-1.53-.59-1.53-1.48c0-.45.15-.87.45-1.39l.83-1.43h1.09Z" fill="#1e1e1c"/><path d="m55.91,57.49c.65,0,1.02.33,1.02.92s-.37.92-1.02.92h-1.19v-1.84h1.19m0-.1h-1.3v2.05h1.3c.71,0,1.13-.39,1.13-1.02s-.42-1.02-1.13-1.02h0Z" fill="#1e1e1c"/><path d="m56.04,61.62c.73,0,1.15.38,1.15,1.03s-.42,1.03-1.15,1.03h-1.32v-2.07h1.32m0-.1h-1.43v2.28h1.43c.79,0,1.26-.42,1.26-1.14s-.46-1.14-1.26-1.14h0Z" fill="#1e1e1c"/><path d="m58.1,60.34c.81-.42,1.26-1.2,1.26-2.22,0-1.77-1.38-2.84-3.65-2.84h-3.49v10.62h3.79c2.24,0,3.71-1.23,3.71-3.12,0-1.18-.58-2.05-1.62-2.44Zm-3.49-2.96h1.3c.71,0,1.13.39,1.13,1.02s-.42,1.02-1.13,1.02h-1.3s0-2.05,0-2.05Zm1.43,6.41h-1.43s0-2.28,0-2.28h1.43c.79,0,1.26.42,1.26,1.14s-.46,1.14-1.26,1.14Z" fill="none" stroke="#1e1e1c" stroke-miterlimit="10" stroke-width=".1"/><path d="m62.85,63.07c-.09,0-.19,0-.27.02.28-.48.59-.95.92-1.43h-1.09s-.83,1.43-.83,1.43c-.3.52-.45.94-.45,1.39,0,.9.62,1.48,1.53,1.48s1.57-.61,1.57-1.51c0-.83-.55-1.39-1.37-1.39Zm-.17,2.05c-.35,0-.59-.25-.59-.63s.24-.63.59-.63.58.26.58.63-.23.63-.58.63Z" fill="none" stroke="#1e1e1c" stroke-miterlimit="10" stroke-width=".1"/><path d="m84.59,57.49c.65,0,1.02.33,1.02.92s-.37.92-1.02.92h-1.19v-1.84h1.19m0-.1h-1.3v2.05h1.3c.71,0,1.13-.39,1.13-1.02s-.42-1.02-1.13-1.02h0Z" fill="#1e1e1c"/><path d="m86.11,49.72c2.9,0,5.63,1.13,7.69,3.18,4.24,4.24,4.24,11.14,0,15.38-2.05,2.05-4.78,3.18-7.69,3.18s-5.63-1.13-7.69-3.18c-2.05-2.05-3.18-4.78-3.18-7.69s1.13-5.63,3.18-7.69c2.05-2.05,4.78-3.18,7.69-3.18m-5.32,16.29h3.9c2.32,0,3.81-1.26,3.81-3.22,0-1.15-.52-2.01-1.48-2.45.73-.46,1.12-1.23,1.12-2.21,0-1.82-1.44-2.95-3.75-2.95h-3.6v10.83m8.73-3.31h1.61l-1.36,3.2-.06.15h1.27l.03-.06,1.49-3.57v-.02s0-.02,0-.02v-.8h-2.98v1.13m-3.4-13.08c-2.81,0-5.62,1.07-7.76,3.22-4.29,4.29-4.29,11.24,0,15.53,2.14,2.14,4.95,3.22,7.76,3.22s5.62-1.07,7.76-3.22c4.29-4.29,4.29-11.24,0-15.53-2.14-2.14-4.95-3.22-7.76-3.22h0Zm-5.22,16.29v-10.62h3.49c2.26,0,3.65,1.07,3.65,2.84,0,1.02-.45,1.8-1.26,2.22,1.04.39,1.62,1.26,1.62,2.44,0,1.89-1.47,3.12-3.71,3.12h-3.79Zm8.73-3.31v-.92h2.77v.7l-1.49,3.57h-1.04l1.43-3.35h-1.66Z" fill="#1e1e1c"/><path d="m84.72,61.62c.73,0,1.15.38,1.15,1.03s-.42,1.03-1.15,1.03h-1.32v-2.07h1.32m0-.1h-1.43v2.28h1.43c.79,0,1.26-.42,1.26-1.14s-.46-1.14-1.26-1.14h0Z" fill="#1e1e1c"/><path d="m86.78,60.34c.81-.42,1.26-1.2,1.26-2.22,0-1.77-1.38-2.84-3.65-2.84h-3.49v10.62h3.79c2.24,0,3.71-1.23,3.71-3.12,0-1.18-.58-2.05-1.62-2.44Zm-3.49-2.96h1.3c.71,0,1.13.39,1.13,1.02s-.42,1.02-1.13,1.02h-1.3s0-2.05,0-2.05Zm1.43,6.41h-1.43s0-2.28,0-2.28h1.43c.79,0,1.26.42,1.26,1.14s-.46,1.14-1.26,1.14Z" fill="none" stroke="#1e1e1c" stroke-miterlimit="10" stroke-width=".1"/><polygon points="89.62 62.59 91.28 62.59 89.86 65.94 90.9 65.94 92.39 62.37 92.39 61.67 89.62 61.67 89.62 62.59" fill="none" stroke="#1e1e1c" stroke-miterlimit="10" stroke-width=".1"/><path d="m113.26,57.49c.65,0,1.02.33,1.02.92s-.37.92-1.02.92h-1.19v-1.84h1.19m0-.1h-1.3v2.05h1.3c.71,0,1.13-.39,1.13-1.02s-.42-1.02-1.13-1.02h0Z" fill="#1e1e1c"/><path d="m114.79,49.72c2.9,0,5.63,1.13,7.69,3.18,4.24,4.24,4.24,11.14,0,15.38-2.05,2.05-4.78,3.18-7.69,3.18s-5.63-1.13-7.69-3.18c-4.24-4.24-4.24-11.14,0-15.38,2.05-2.05,4.78-3.18,7.69-3.18m-5.32,16.29h3.9c2.32,0,3.81-1.26,3.81-3.22,0-1.15-.52-2.01-1.48-2.45.73-.46,1.12-1.23,1.12-2.21,0-1.82-1.44-2.95-3.75-2.95h-3.6v10.83m10.11-1.36s.05,0,.08,0c-.25.41-.52.83-.81,1.24l-.12.17h1.35l.03-.05.83-1.43c.33-.57.47-1,.47-1.44,0-.95-.66-1.59-1.63-1.59s-1.68.67-1.68,1.62c0,.89.59,1.5,1.48,1.5m-4.79-15.03c-2.81,0-5.62,1.07-7.76,3.22-4.29,4.29-4.29,11.24,0,15.53,2.14,2.14,4.95,3.22,7.76,3.22s5.62-1.07,7.76-3.22c4.29-4.29,4.29-11.24,0-15.53-2.14-2.14-4.95-3.22-7.76-3.22h0Zm-5.22,16.29v-10.62h3.49c2.26,0,3.65,1.07,3.65,2.84,0,1.02-.45,1.8-1.26,2.22,1.04.39,1.62,1.26,1.62,2.44,0,1.89-1.47,3.12-3.71,3.12h-3.79Zm10.01-1.36c-.82,0-1.37-.56-1.37-1.39,0-.9.64-1.51,1.57-1.51s1.53.59,1.53,1.48c0,.45-.15.87-.45,1.39l-.83,1.43h-1.09c.34-.48.64-.95.92-1.43-.09.02-.18.02-.27.02h0Z" fill="#1e1e1c"/><path d="m113.39,61.62c.73,0,1.15.38,1.15,1.03s-.42,1.03-1.15,1.03h-1.32v-2.07h1.32m0-.1h-1.43v2.28h1.43c.79,0,1.26-.42,1.26-1.14s-.46-1.14-1.26-1.14h0Z" fill="#1e1e1c"/><path d="m119.75,62.59c.29,0,.48.2.48.52s-.19.52-.48.52-.47-.2-.47-.52.19-.52.47-.52m0-.1c-.35,0-.58.26-.58.63s.23.63.58.63.59-.25.59-.63-.24-.63-.59-.63h0Z" fill="#1e1e1c"/><path d="m115.45,60.34c.81-.42,1.26-1.2,1.26-2.22,0-1.77-1.38-2.84-3.65-2.84h-3.49v10.62h3.79c2.24,0,3.71-1.23,3.71-3.12,0-1.18-.58-2.05-1.62-2.44Zm-3.49-2.96h1.3c.71,0,1.13.39,1.13,1.02s-.42,1.02-1.13,1.02h-1.3s0-2.05,0-2.05Zm1.43,6.41h-1.43s0-2.28,0-2.28h1.43c.79,0,1.26.42,1.26,1.14s-.46,1.14-1.26,1.14Z" fill="none" stroke="#1e1e1c" stroke-miterlimit="10" stroke-width=".1"/><path d="m119.77,61.63c-.93,0-1.57.61-1.57,1.51,0,.83.55,1.39,1.37,1.39.09,0,.19,0,.27-.02-.28.48-.59.95-.92,1.43h1.09s.83-1.43.83-1.43c.3-.52.45-.94.45-1.39,0-.9-.62-1.48-1.53-1.48Zm-.02,2.11c-.35,0-.58-.26-.58-.63s.23-.63.58-.63.59.25.59.63-.24.63-.59.63Z" fill="none" stroke="#1e1e1c" stroke-miterlimit="10" stroke-width=".1"/><path d="m28.76,76.07c2.9,0,5.63,1.13,7.69,3.18,4.24,4.24,4.24,11.14,0,15.38-2.05,2.05-4.78,3.18-7.69,3.18s-5.63-1.13-7.69-3.18c-4.24-4.24-4.24-11.14,0-15.38,2.05-2.05,4.78-3.18,7.69-3.18m-5.32,16.29h3.9c2.32,0,3.81-1.26,3.81-3.22,0-1.15-.52-2.01-1.48-2.45.73-.46,1.12-1.23,1.12-2.21,0-1.82-1.44-2.95-3.75-2.95h-3.6v10.83m11.46-2.79l.02-.11c.06-.3.22-.47.45-.47.21,0,.33.16.33.32,0,.24-.24.5-.39.67l-.06.06-1.35,1.52-.03.03v.83h3.04v-1.09h-1.35l.48-.54s.08-.09.12-.13c.33-.35.73-.78.73-1.43,0-.8-.61-1.35-1.48-1.35s-1.42.49-1.56,1.31l-.02.1.09.02.87.23.11.03m-3-.5h.32v3.35h1.17v-4.47h-1.5v1.13m-3.13-13.1c-2.81,0-5.62,1.07-7.76,3.22-4.29,4.29-4.29,11.24,0,15.53,2.14,2.14,4.95,3.22,7.76,3.22s5.62-1.07,7.76-3.22c4.29-4.29,4.29-11.24,0-15.53-2.14-2.14-4.95-3.22-7.76-3.22h0Zm-5.22,16.29v-10.62h3.49c2.26,0,3.65,1.07,3.65,2.84,0,1.02-.45,1.8-1.26,2.22,1.04.39,1.62,1.26,1.62,2.44,0,1.89-1.47,3.12-3.71,3.12h-3.79Zm11.27-2.82l-.87-.23c.14-.78.68-1.22,1.46-1.22.83,0,1.37.52,1.37,1.25,0,.69-.5,1.13-.82,1.49l-.64.71h1.48v.88h-2.83v-.69l1.35-1.52c.16-.18.48-.48.48-.8,0-.21-.16-.42-.43-.42s-.48.19-.55.56h0Zm-2.82-.48v-.92h1.29v4.27h-.96v-3.35h-.32Z" fill="#1e1e1c"/><path d="m27.24,83.84c.65,0,1.02.34,1.02.92s-.37.92-1.02.92h-1.19v-1.84h1.19m0-.1h-1.3v2.05h1.3c.71,0,1.13-.39,1.13-1.02s-.42-1.02-1.13-1.02h0Z" fill="#1e1e1c"/><path d="m27.37,87.97c.73,0,1.15.38,1.15,1.03s-.42,1.03-1.15,1.03h-1.32v-2.07h1.32m0-.1h-1.43v2.28h1.43c.79,0,1.26-.42,1.26-1.14s-.46-1.14-1.26-1.14h0Z" fill="#1e1e1c"/><path d="m29.43,86.7c.81-.42,1.26-1.2,1.26-2.22,0-1.77-1.38-2.84-3.65-2.84h-3.49v10.62h3.79c2.24,0,3.71-1.23,3.71-3.12,0-1.18-.58-2.05-1.62-2.44Zm-3.49-2.96h1.3c.71,0,1.13.39,1.13,1.02s-.42,1.02-1.13,1.02h-1.3s0-2.05,0-2.05Zm1.43,6.41h-1.43s0-2.28,0-2.28h1.43c.79,0,1.26.42,1.26,1.14s-.46,1.14-1.26,1.14Z" fill="none" stroke="#1e1e1c" stroke-miterlimit="10" stroke-width=".1"/><polygon points="32 88.96 32.33 88.96 32.33 92.31 33.29 92.31 33.29 88.04 32 88.04 32 88.96" fill="none" stroke="#1e1e1c" stroke-miterlimit="10" stroke-width=".1"/><path d="m36.78,89.22c0-.72-.54-1.25-1.37-1.25-.78,0-1.32.45-1.46,1.22l.87.23c.08-.37.28-.56.55-.56s.43.21.43.42c0,.32-.31.62-.48.8l-1.35,1.52v.69h2.83v-.88h-1.48s.64-.71.64-.71c.32-.36.82-.8.82-1.49Z" fill="none" stroke="#1e1e1c" stroke-miterlimit="10" stroke-width=".1"/></svg>