<?xml version="1.0" encoding="UTF-8"?><svg id="Layer_1" xmlns="http://www.w3.org/2000/svg" viewBox="0 0 144.57 144.57"><rect x="29.33" y="8.7" width="80.13" height="119.6" fill="none" stroke-width="0"/><path d="M58.13,50.26c-.07.03-.13.06-.15.15-.97-.06.07-1.11.15-.15Z" fill="#000" fill-rule="evenodd" stroke-width="0"/><path d="M65.63,51.22c-.03.46-.28.7-.81.66-.32-.5.32-.97.81-.66Z" fill="#000" fill-rule="evenodd" stroke-width="0"/><path d="M61.22,54.74c-.18-.09-.36-.18-.59-.22,0-.85,1.23-.19.59.22Z" fill="#000" fill-rule="evenodd" stroke-width="0"/><path d="M57.61,57.54c.39,0,.64.14.66.51-.23.28-.8.03-.66-.51Z" fill="#000" fill-rule="evenodd" stroke-width="0"/><path d="M62.69,59.59c-.25.12-.63.09-.81-.07-.17-.64,1.05-.6.81.07Z" fill="#000" fill-rule="evenodd" stroke-width="0"/><path d="M58.79,62.17c-.41.26-.69-.17-.74-.51.33-.18.79.07.74.51Z" fill="#000" fill-rule="evenodd" stroke-width="0"/><path d="M62.1,66.21c.06.57-.31.71-.66.88-.21-.03-.34-.15-.37-.37.46-.06.46-.57,1.03-.51Z" fill="#000" fill-rule="evenodd" stroke-width="0"/><path d="M57.03,69.51c-.52.08-.69-.19-.88-.44.26-.35.93,0,.88.44Z" fill="#000" fill-rule="evenodd" stroke-width="0"/><path d="M86.13,70.32c1.79-.62,3.16,4.16,1.03,3.9-.76-.09-.69-.88-.96-1.76-.28-.9-1.16-1.76-.07-2.13ZM87.23,73.63c.49.07.62-.86.51-1.4-.11-.57-1.01-1.6-1.54-1.25v.22c.58.23.43,2.35,1.03,2.43Z" fill="#000" fill-rule="evenodd" stroke-width="0"/><path d="M60.85,72.53c.11.61-1.07,1.1-1.18.37.41-.11.62-.41,1.18-.37Z" fill="#000" fill-rule="evenodd" stroke-width="0"/><path d="M56.88,75.17c-.45.06-.59-.2-.66-.51.31-.17.76.05.66.51Z" fill="#000" fill-rule="evenodd" stroke-width="0"/><path d="M88.85,76.72c.61.13.36,1.02-.07.96-.39-.06-.47-.85.07-.96Z" fill="#000" fill-rule="evenodd" stroke-width="0"/><path d="M61.51,78.85c-.22.1-.46.09-.59-.07-.06-.54.73-.57.59.07Z" fill="#000" fill-rule="evenodd" stroke-width="0"/><path d="M54.97,81.13c.34.02.66.22.51.51-.26.14-.4-.02-.59-.15-.02-.17.01-.28.07-.37Z" fill="#000" fill-rule="evenodd" stroke-width="0"/><path d="M61.44,83.11c-.08.29-.29.45-.59.51-.04-.18-.28-.16-.22-.44.26-.02.57-.26.81-.07Z" fill="#000" fill-rule="evenodd" stroke-width="0"/><path d="M57.25,86.64c.34.03.58.16.59.51-.21.31-.85-.15-.59-.51Z" fill="#000" fill-rule="evenodd" stroke-width="0"/><path d="M58.28,97.88c-.25.03-.41-.03-.59-.07,0-.13-.09-.15-.07-.29.26-.17.79-.08.66.37Z" fill="#000" fill-rule="evenodd" stroke-width="0"/><path d="M60.92,100.82c-.08.36-.7.17-.74-.15.21-.15.69-.09.74.15Z" fill="#000" fill-rule="evenodd" stroke-width="0"/><path d="M103.62,102.44c1.66,3.74-.17,7.56-4.19,7.2-2.48-.22-5.01-2.66-4.26-5.95.8-3.5,6.53-4.08,8.45-1.25ZM95.68,104.79c.63-.25.75-1.01,1.54-1.1-.63.79-1.97,1.91-1.1,3.09.74.13,1.4-.22,1.91-.07-.36.37-.78.69-1.54.66.17.56.83.64,1.18,1.03,1.06.17,1.88-.26,2.5-.29-.05.49-.72.36-.81.81,2.89.56,4.61-2.62,2.65-4.26-.15.64-.08,2-.73,2.35-.32-.73.44-1.84-.22-2.28-.51.25-.75,1.16-1.47.96.33-.69,1.1-1.28.59-2.2-.51-.27-1.05.06-1.62.15.11-.57.63-.75,1.4-.66.16-.28.31-.57.44-.88-.23-.31-.74-.33-.96-.66.92-.52,1.49,1.01,2.2.22-2.65-1.38-6.36.37-5.95,3.16ZM103.18,103.1c-.06-.6-.43-.89-.96-1.03-.35.74.48.88.96,1.03ZM100.61,103.03c-.07.61.54.95,1.03,1.18.89-1.03-.88-2.51-1.03-1.18ZM102.59,103.47c-.04.88.4,1.9.81,2.57.39-.62.16-1.79-.07-2.43-.25-.05-.38-.21-.73-.15Z" fill="#000" fill-rule="evenodd" stroke-width="0"/><path d="M101.56,103.1c.03.28-.03.46-.22.51-.29,0-.44-.15-.44-.44.14-.1.47-.24.66-.07Z" fill="#000" fill-rule="evenodd" stroke-width="0"/><path d="M58.28,103.47c.31.06.64.09.59.51-.41.04-.61-.12-.59-.51Z" fill="#000" fill-rule="evenodd" stroke-width="0"/><path d="M87.97,111.11c-.9.29-1.33,1.42-2.65,1.18-.89-.17-2.54-.78-2.94-1.25-.23-.26-.5-.93-.51-1.18-.04-.54.34-.86.37-1.25.02-.41-.37-.87-.37-1.47,0-2.25,3.45-3.38,5.29-2.35.73.41,1.38,1.9,1.54,3.01.23,1.52-.6,2.01-.74,3.31ZM84.37,105.38c-.84.09-1.76.88-1.47,1.62.4-.65,1.4-2.15,2.72-1.25.08-.19.21-.33.44-.37.36.13.78.19,1.1.44.19.15.32.72.51.44-.29-1.2-2.4-1.78-3.31-.88ZM83.34,107.73c.12.9-.37,1.2-.73,1.62,1.37.39,1.66,2.64,3.31,2.28-.48-.16-1.02-.15-.96-.66.08-.67,2.19-.79,1.54.29.49-.1.74-.44,1.1-.66.24-1.28,1.11-2.66.15-3.75-.12.6-.11,1.06-.59,1.18-.92.21-1.63-.86-.96-1.76-.13-.14-.27-.26-.51-.29.33,1.38-1.16,2.34-2.35,1.76ZM83.7,106.92c.76,0,1.24-.28,1.54-.73-.51-.28-1.36.21-1.54.73ZM86.57,106.92c.11.11.38.06.59.07.02-.46-.11-.77-.51-.81.04.31-.05.49-.07.73Z" fill="#000" fill-rule="evenodd" stroke-width="0"/><path d="M86.06,108.76c.17-.05-.01-.45.15-.51.38.19.74.27,1.18.07,1.01.49-.13,2.39-1.18,1.69-.19-.38.28-.76-.07-.96.01.49-.23.93-.59,1.25-1.02-.08-1.95-.25-2.28-1.03.47-.61,1.41-.75,1.91-1.32.45.12.56.57.88.81ZM84.44,109.13c.28.16.6.28.96.37.23-.32-.06-.64-.22-.81-.3.09-.64.15-.74.44Z" fill="#000" fill-rule="evenodd" stroke-width="0"/><path d="M72.02,113.98c0-.42.15-.68.22-1.03.93-.37,2.09-1.2,2.87-.22.07.09.25.47.22.73-.06.55-1.43,1.48-2.28,1.32-.46-.09-.7-.53-1.03-.81ZM72.97,113.46c.64.26,1.11-.19,1.62-.29-.28-.75-1.41-.14-1.62.29Z" fill="#000" fill-rule="evenodd" stroke-width="0"/><path d="M72.97,115.08c.04.78-.07,1.4-.37,1.84-1.19,0-1.59-.81-2.87-.73-.27-.9.38-1.47.81-1.91,1.08,0,1.81.35,2.43.81ZM70.11,115.74c.91.14,1.72.04,1.98-.66-.67-.55-2.01-.45-1.98.66Z" fill="#000" fill-rule="evenodd" stroke-width="0"/><path d="M73.56,115.37c.86-.04,1.15-1.26,2.13-1.03.76.18,1.02,2.4.22,2.65-.38.12-2.4-.5-2.5-.96-.05-.24.15-.42.15-.66ZM74,115.89c.81.07,1.33-.14,1.32-.88-.55.19-.99.48-1.32.88Z" fill="#000" fill-rule="evenodd" stroke-width="0"/><path d="M74.89,117.5c-.21.89-.53,1.73-.59,2.57-.73.05-1.42-.26-2.13-.15-.33-.38-.51-.91-.44-1.69,1.09.07,1.29-1.44,2.28-1.32.41.05.5.38.88.59Z" fill="#000" fill-rule="evenodd" stroke-width="0"/><path d="M74,42.03c-.15,2,1.15,3.67,3.09,3.75,1.26.05,2.76-.49,4.04,0,1.11.43,1.67,1.37,2.2,2.35,3.13,1.48,5.6,2.31,7.13,5.29.96,1.87,1.4,3.89,1.4,6.47,0,1.61-.72,3.25-.51,5.14.09.83.48,1.3.66,2.2.53,2.67-.15,5.46-.59,8.01-.15.85-.37,1.68-.59,2.5-.36,1.34-.45,2.49-.81,3.67-.11.38-.17.87-.29,1.18-.25.6-.83,1.08-1.18,1.69-.48.85-1.01,1.96-.96,3.16.02.47.28,1,.29,1.54.01.5-.21,1.01-.22,1.54-.02.82.3,1.8.59,2.2.32.45,1.08.64,1.32,1.03.31.49.2,1.41.44,1.84-1.25.37-2.18-.56-3.09-.88-1.44-.51-2.98-.45-4.34-1.03-.51-.22-1.61-.96-2.06-1.4-.83-.81-1.17-2.02-1.98-2.87-.77-.8-1.89-1.01-2.79-1.54-1.68-.98-2.84-2.12-4.12-3.6-1.32-1.54-2.15-3.07-2.87-5.36-.75-2.43-1.12-4.48-1.54-7.2-.12-.8-.36-1.58-.37-2.43,0-1.54.29-3.12.37-4.7.08-1.57,0-2.93.37-4.19.1-.33.35-.56.44-.88.36-1.2.4-2.29.81-3.31.38-.97.86-1.86,1.32-2.79,1.14-2.28,3-3.91,2.94-7.28-.02-1.29-.47-1.96-.73-3.23-2.69,1.77-7.25,1.67-9.04,4.34,2.08-.73,3.87.23,3.97,2.35.08,1.7-1.05,3.28-2.72,3.38-.22,1.16-.76,1.98-1.47,2.65,1.89.5,2,3.65.59,4.78,1.16,1.08,1.23,3.31-.15,4.19.24,1.44-.09,2.45-.81,3.23.8,1.58-.73,2.46-.22,3.97,1.96.38,2.49,3.64.81,4.7.02.47.17.81.15,1.32,1.06.43,1.97,1.09,1.91,2.35-.03.72-.68,1.24-.44,1.91-.53-.18-1.01.09-1.69.29.13,1.29-.69,2.17-1.84,2.43.05.37.08.75.15,1.1,1.37-.04,2.71.54,3.09,1.69.38,1.17-.46,2.07-.44,3.16-.57,0-.89.57-1.4.73-.34.11-.89-.12-1.03.37.35.63,1.52.44,1.91,1.03.54.93.34,1.74,0,2.5-.28.63-1.04.9-1.18,1.47-.31-.06-.42-.32-.88-.22-.12.35-.34.89-.22,1.32.11.4.87.69,1.03,1.18.33.96-.08,1.51-.51,2.35.53.81.63,2.41-.22,2.94.71.6.66,2.24,0,2.87-.24.22-.88.26-1.03.66-.15.42.29.62.37,1.1.23,1.46-.85,1.92-1.98,2.35-.99-.61-1.69-2.12-.74-3.01.3-.28.97-.25,1.1-.59.18-.46-.7-.76-.81-1.25-.18-.8.18-.85.29-1.62-.43-.28-.77-.11-1.18-.44-1.16-.97-.74-3.66.96-3.6-.02-.63.03-1.2.22-1.62-2.96.15-3.57-4.78,0-4.56.41-.32.83-.64.96-1.25-.36-.02-1.12.59-1.76.29-.37.05-.29.55-.73.51-.15-.12-.17-.37-.15-.66-1.81-.72-1.43-4.13.22-4.7-1.43-.42-2.77-1.89-2.06-3.75-.4-.53-.89-1.78-.29-2.43-.47-.51-1.16-.77-1.32-1.54-.26-1.25.7-2.8,1.69-3.16-.17-.46-.2-1.09.07-1.47-1.83-1.08-1.75-5.01.66-5.44-2.16-.35-3.01-3.77-1.03-5.07-.32-.73-.64-1.56-.29-2.57.17-.5.79-.83.74-.88-.27-.26-.85-.26-1.4-1.25-.38-.68-.14-1.03,0-1.91-1.43-1.23-1.08-4.56,1.03-4.78-.03-.54.06-.97.15-1.4-1.32-.44-1.78-2.65-.81-3.75-3.06.94-7.16,2.64-11.54,2.28-3.59-.3-6.58-.17-8.6,1.69-.41.38-.7.92-1.25,1.18-.23-1.35.42-2,1.03-2.94,1.2-1.86,2.95-3.29,3.67-5.59.65-2.06.6-4.16,1.4-5.88.61-1.33,1.87-2.81,3.09-3.97,1.23-1.17,2.48-2.36,3.75-3.31,3.74-2.79,7.44-5.08,12.46-6.35,4.01-1.02,8.65-.36,12.08,1.1,1.74.74,3.65,1.98,5.96,2.16,1.03.08,2.78.27,3.9-.07.87-.27,1.2-1.4,2.06-2.13.76-.65,1.66-.74,2.43-1.54.94-.98,1.16-3.06,1.91-4.26.61-.97,1.19-1.63,2.2-2.65.86-.86,1.78-1.64,2.35-2.5.7-1.04.9-2.36,1.25-3.6.03-.09.05-.18.15-.29.78.18,1.72,1.98,1.69,3.01-.02.74-.48,1.8-.81,2.57-.96,2.29-2.82,3.95-4.41,5.59-.86.89-1.81,2.29-2.2,3.6-.48,1.62-.53,2.71-2.2,2.79-1.28,1.28-2.67,2.8-4.26,3.75-1.4.83-4.23,1.97-4.85,3.6-.56,1.46-.05,3.96-1.84,4.26ZM93.7,15.28c.13-.18.18-1-.44-1.29-.04.26-.59,1.51.44,1.29ZM93.04,16.01c-.39,1.8-.99,2.75-1.91,3.75-1.1,1.2-3.39,2.46-3.97,4.19-.08.25-.05.56-.15.81-.42,1.03-1.92,2.05-2.94,2.72-.82.54-2.17.99-1.69,2.2.76-.17.86-1,1.84-.96.47.3.3,1.04.88,1.1,1.04.11,2.3-3.92,2.06-4.19-.35.51-.86.59-1.1,1.47-.29.59-.35,1.41-.88,1.76-.22-.69.28-1.42.59-1.98.61-1.11,1.31-1.63,2.13-2.35.56-.5,1.09-1.22,1.62-1.84,1.57-1.86,3.83-3.62,4.12-6.47-.18-.09-.27-.27-.59-.22ZM87.6,22.19c1.76-1.55,4.01-2.99,4.56-5.51-1.3,2-3.76,3.24-4.56,5.51ZM68.71,27.55c-1.03-.27-4.35-.85-4.92-.88-3.32-.21-5.95.66-8.38,1.54-1.75.64-3.43,1.36-4.63,2.28,1.55-.54,3.76-.33,5.44-.88-.37-.38-1.01-.07-1.18-.44.62-.36,1.51.21,2.2.29.92.12,1.82-.32,2.87-.22-.08-.61-.88-.49-1.32-.73,1.01-.48,1.65.51,2.43.66,1.03.2,2.09-.19,3.53,0-.15-.73-.83-.94-1.25-1.4,1.02.18,1.57.83,2.13,1.47,3.09.13,5.96,1.81,8.82.66-1.92-.56-3.59-1.8-5.73-2.35ZM62.91,29.53c-1.93,0-4.35.1-5.73.37-1.63.32-3.31.43-4.92.66-1.23.18-2.28.81-3.38.96-2.07,1.33-4.34,2.95-5.73,4.85-.68.93-1.58,1.98-1.62,3.23,1.53-1.46,3.25-2.73,5.29-3.67-.1-.66-1.21-.31-1.76-.51.77-.47,1.82-.24,2.5.15.45-.31,1.13-.39,1.47-.81-.28-.42-1-.41-1.32-.59.76-.5,1.43.12,2.06.37.77-.51,2.02-.53,2.72-1.1-.35-.46-1.01-.61-1.62-.81.97-.57,1.73.36,2.43.73,1.17-.33,2.33-.66,3.53-.96-.1-.68-.89-.68-1.32-1.03.93-.48,1.37.69,2.13.81.72.11,1.71-.3,2.43-.51-.19-.55-1.04-.43-1.62-.59,1.26-.59,2.1.47,2.72.62.73.17,1.03-.41,1.98-.33.11-.79-.84-.53-1.03-1.03,1.02-.33,1.24.79,1.84.96.49.13,1.55-.1,2.43-.15,1.27-.07,2.27.12,2.94-.37-1.74-.81-4.08-1.26-6.39-1.25ZM83.85,29.9c-.36.33-.76.61-1.4.66-1.02,1.22-2.34,1.96-3.75,2.72-.71.38-1.55.68-2.2,1.1-1.75,1.13-2.28,2.92-3.31,4.78-.69.29-1.27.69-1.54,1.4.51.01.58-.51,1.03-.51.6,0,.82.57.96,1.25,1.54-.06.94-1.64,1.1-2.72.14-.91,1.37-2.26,2.2-3.01.68-.62,1.89-1.09,2.87-1.62,1.1-.6,1.75-1.51,2.43-2.06.64-.51,1.89-1.19,1.69-1.98h-.07ZM76.5,30.78c.95.2,2.62.21,3.38-.22-1.36.15-2.47-.28-3.38.22ZM68.34,32.4c-2.06.34-3.63,1.17-4.63,2.57.38.37,1.09,1.23.44,1.76.05-.74-.32-1.05-.88-1.18-.47.68-.85,1.45-1.25,2.2.23.4.64,1.65.15,2.06-.11-.58-.08-1.29-.59-1.47-.41.44-.55,1.16-.96,1.62.55.36.04,1.44.29,1.84,2.79-2.24,5.58-4.53,8.3-6.69,1.58-1.24,2.85-2.79,4.56-3.82-1.67-.03-3.4.52-4.92.88-.25.98-.52,1.93-1.18,2.5.28-.7.65-1.31.66-2.28ZM74.37,31.81c-.67.25-1.81,1.12-2.43,1.76-3.12,3.25-6.09,6.57-8.89,10.07-.69.86-1.24,1.82-1.91,2.35-.43.33-.97.39-1.18.96.36.11.48.45,1.03.37.86-1.97,2.87-2.86,4.78-3.75,1.86-.87,4.3-1.01,5.44-2.35,0-.32-.23-.41-.15-.81.36-.9,1.52-1.26,1.98-2.06.49-.85.5-1.82,1.03-2.57.28-.4.83-.82,1.25-1.18,1.46-1.24,3.16-1.5,4.56-2.94-1.99.08-3.75-.52-5.51.15ZM55.41,33.14c-1.02.24-1.97.69-2.94.88-1.18.24-2.01.68-2.87,1.03-.98.4-3.3,1.58-3.53,1.69-.78.38-1.52.79-2.2,1.32-1.07.84-2.1,1.71-2.72,2.87,0,1.01-.43,1.58-.29,2.72,1.23-.8,2.45-1.61,3.67-2.43-.32-.45-1.06-.16-1.47-.22.66-.59,1.46-.05,2.2-.07.46-.01,1.22-.52,1.69-.73.59-.27,1.16-.48,1.54-.88-.3-.57-1.47-.61-2.13-.59.99-.96,2.16.32,2.94.37.8.05,1.26-.59,2.13-.66-.26-.52-.72-.84-1.4-.96.82-.74,1.44.59,2.28.66,1.04.09,1.63-.5,2.72-.66-.11-.68-.84-.73-1.32-1.03,1.01-.29,1.55.5,2.13.88,1.21-.77,2.46-1.51,3.6-2.35-.24-.35-.95-.23-1.4-.37.66-.78,1.34.11,2.06.07.35-.02.89-.5,1.32-.74,1.44-.76,3.04-1.17,4.19-1.98-3.62.08-7.12.45-10.22,1.18ZM60.48,35.34c-.83.39-1.95.95-2.2,1.4-.43.77.22,1.87-.37,2.72-.07-.83.21-1.72-.22-2.28-.56.39-1.28.63-1.76,1.1-.1.96.17,1.94,0,2.72-.18-.7-.29-1.47-.51-2.13-1.07.62-1.73,1.65-2.43,2.65.4,1.03.15,2.68-.44,3.38.06-.9.59-2.1,0-2.79-.45.97-1.57,1.76-1.98,2.87-.31.84.02,2.17-.73,2.65.08-.68.21-1.27.07-1.84-.4.46-1.03.79-1.4,1.32-.34.49-.28,1.23-.81,1.62-.06-.33.1-.44.07-.73-1.05.57-1.89,1.35-2.94,1.91,2.47-.36,4.33-1.1,6.32-1.84,1.18-.44,2.4-.76,3.31-1.32.97-.6,1.93-1.65,2.72-2.57,2.48-2.89,4.28-6.39,5.95-9.92-.85.11-1.65.63-2.65,1.1ZM49.02,39.68c-1.1.57-2.33.92-3.45,1.47-1.37.68-2.58,1.59-3.67,2.43-.43.33-1.01.61-1.32.96-.32.35-.41.86-.66,1.25-.25.39-.61.69-.96,1.03-1.36,1.35-2.52,2.92-3.53,4.48.75-.51,1.41-1.12,2.2-1.62.8-.5,1.73-.81,2.5-1.4-.14-.42-.87-.26-1.1-.59.64-.58,1.15.29,1.84.29,1.06,0,2.39-1.33,3.01-1.76-.32-.28-.72-.21-1.1-.29.39-.89,1.1.03,1.69,0,.5-.03,1.29-.72,1.76-1.03.62-.41,1.16-.82,1.54-1.25-.5-.38-1.25-.51-1.84-.81.72-.56,1.57.43,2.5.37.76-.59,1.49-1.21,2.2-1.84-.2-.44-.9-.37-1.4-.51.65-.86,1.28.23,1.98.15.45-.05,2.71-1.93,3.01-2.5-1.63.41-5.01,1.12-5.22,1.18ZM38.36,46.51c.5-.38,1.73-2.19,1.84-2.72.31-1.61.75-5.08.66-5.07-1.55,1.88-1.81,5.05-2.5,7.79ZM58.13,45.04c-1.92,1.44-4.02,2.47-6.39,3.53-1.05.19-2.04.81-3.16,1.1-1.66.44-3.47.51-4.85,1.32,5.45.13,9.1-1.53,12.79-3.16.43-.75,1.14-1.21,2.35-1.18,2.44-2.36,4.56-5.04,6.83-7.57.11-.02.01-.12-.07-.15-2.78,1.69-4.91,4.16-7.5,6.1ZM49.97,42.76c-2.82,2.13-5.66,4.32-9.04,5.81-.57.25-1.06.64-1.62.88-1.42.61-2.65,1.08-3.53,2.28,1.41-.28,2.67-.78,4.12-.81.38,0,.78.1,1.18.07.97-.05,1.51-.57,2.13-.88,2.07-1.04,3.87-2.11,5.44-3.67,1.52-1.52,2.51-3.52,3.75-5.36.28-.09.32-.41.59-.51,0-.09-.02-.17-.15-.15-.95.83-1.89,1.61-2.87,2.35ZM71.8,41.15c-.57.61-.85,1.26-1.69,1.62-.43.19-.89.17-1.32.29-1.87.53-3.82,1.32-5.44,2.35-1.25.8-1.9,2.37-2.13,4.04-.06.4-.12.81,0,1.03.13-.99.66-1.6.88-2.5,1.11-1.89,2.99-3.23,5.51-3.9,1.71-.45,3.58-.82,4.63-1.84.37-.35.78-.88.74-1.47-.34-.39-.94.12-1.18.37ZM58.06,43.94c-.23.31-.73.57-.59.81,1.18-.7,1.96-1.81,3.09-2.57-.02-.54.06-1.18-.29-1.4-.73.96-1.5,2.21-2.2,3.16ZM72.9,42.1c.22,2.57,1.37,4.21,2.43,5.95.29,1.19,1.03,1.86,1.54,2.87.39.77.91,1.69,1.18,2.5.46,1.4.39,3.05.81,4.7.48-3.3-.78-5.87-1.91-7.94-.26-.48-.45-1.02-.73-1.47-.21-.34-1.01-.82-.51-1.32,1.52,1.08,1.68,3.51,3.31,4.48.74-.68,1.65-1.58,3.16-1.25-1.22.23-2.25.64-2.65,1.69.59.61,1.22,1.18,2.13,1.47.56-.64,1.52-1.27,2.79-.96-.94.21-1.98.32-2.2,1.25.96.68,1.8,1.48,2.79,2.13.53-.55,2.21-.45,2.79,0-.77-.14-1.91-.13-2.28.37.54.98,1.46,1.58,1.98,2.57.62-.19,2.15-.42,2.2.22-.62-.18-1.32,0-1.76.22.24.78.57,1.49,1.03,2.06.43.16,1.11.06,1.18.59-.37,0-.71-.17-1.03,0,.55,1.78,1.36,3.69,1.32,5.81-1.02-3.14-1.75-6.39-3.45-8.82-.56-.8-1.18-1.74-1.84-2.28-1.81-1.47-3.96-2.24-6.1-3.53.08,1.08.53,2.4.59,3.6.02.34-.1.66-.07.96.16,2.19,2,2.16,4.26,2.2-1.12.36-2.5.39-3.53,0,.21.57.37,1.22.73,1.76.2.3.8,1,1.18,1.03.7.05,1.97-1.12,2.94-.29-.89-.11-2.24.09-2.57.96.68.48,1.31.99,2.13,1.32.59-.28,1.78-.7,2.57-.29-.77.16-1.7.16-1.98.81.77.23,1.11.9,1.76,1.25.56-.3,2-.4,2.28.22-.52-.06-1.26-.01-1.84.07.35.97,1.07,1.58,2.2,1.76-.04.3-.66.02-.81.22.77,1.21,1.07,2.9,1.54,4.41.19-1.83.65-3.64.44-5.37-.11-.86-.3-1.58-.22-2.43.27-2.78.99-5.53.59-8.3-.48-3.3-2.18-5.51-4.26-6.83-.98-.62-2.56-.93-3.53-1.54-1.22-.78-1.4-2.59-3.31-2.79-.31-.03-.71-.09-1.1.15.54.37,1.11.34,1.62.59.83.39,1.03,1.18,1.69,1.84,1.1,1.1,3.29,1.09,4.41,1.98,1.1.88,2.22,2.19,2.65,3.45-.55-.25-.76-.92-1.1-1.32-.69-.8-1.69-1.6-2.65-2.06-1.22-.59-2.42-.56-3.38-1.32-.49-.39-.65-.97-1.03-1.4-.47-.52-1.4-1.06-2.2-1.18-1.07-.15-2.19.24-3.16-.07-.5-.16-.91-.51-1.25-1.03-.15-.28.11-.12.07-.44-.92-.76-1.21-2.1-1.47-3.53-.24-.02-.16.29-.37.29ZM78.85,46.22c-1.2.02-2.18.05-3.16-.07.78.48,2.27.42,3.16.07ZM73.56,46.66c.03,3.09-2.01,4.93-3.09,6.98-.76,1.45-1.33,2.98-1.69,4.63-.37,1.71-.98,3.33-1.03,5.29-.05,1.88-.38,3.8-.37,5.81.01,2.52.88,4.6,1.32,6.69.33,1.55.46,2.95,1.1,4.56.35.88.96,1.81,1.47,2.5,1.51,2.03,3.24,3.68,5.66,4.7-.82-1.29-2.65-1.88-3.82-2.94-.73-.66-1.27-1.43-1.69-2.13-1.11-1.87-2.09-4.32-2.43-6.69-.36-2.55-.54-5.25-.96-8.01-.14-.95-.17-2.17-.07-3.01.23-1.99.74-4.13,1.32-6.03.19-.63.56-1.15.81-1.76.51-1.27.85-2.46,1.47-3.6,1.08-2,2.74-3.94,2.2-7.13-.09,0-.1-.09-.22-.07v.22ZM57.54,47.47c-.84.47-1,2.43-.29,3.16.48.5,1.4.54,1.84.37,1.26-.5,1.59-2.76.66-3.45-.33-.24-.87-.3-1.47-.22-.19.03-.58.06-.73.15ZM61.88,50.55c.15,1.88,2.77,2.45,4.12,1.32.97-.81,1.24-3.4-.07-4.12-.53-.29-1.11-.17-1.98-.22-.04,0-2.23.94-2.06,3.01ZM72.53,52.68c-.29.55-.54,1.18-.81,1.76-.28.61-.68,1.2-.88,1.76-.78,2.25-1.48,4.58-1.98,7.2-.18.95-.5,1.87-.59,2.72-.13,1.29.46,2.24.51,3.53.6-2.11,1.38-4.05,2.35-5.81-.84-.05-1.21.99-1.98,1.25.52-.88,1.08-1.71,2.35-1.84.39-.59.8-1.16,1.1-1.84-1.46-.16-2.48.75-3.45,1.32.66-1.35,2.31-1.71,4.04-1.98.43-.72.91-1.4,1.18-2.28-1.61-.07-2.44.65-3.53,1.1.79-1.05,2.19-1.48,3.9-1.62.49-.81.81-1.78,1.03-2.87-1.03.12-1.8.89-2.94.66,1.22-.37,2.29-.89,3.31-1.47.62-2.81-.61-4.95-1.76-6.47.12,2.3-1.02,3.29-1.84,4.85ZM55.56,52.76c.47-.63,1.15-1.05,2.43-.88-.78-.71-1.84-1.15-1.98-2.5-1.54.11-2.04,2.95-.44,3.38ZM61,51.14c-2.06,1.08-1.64,4.53,1.4,4.19.78-.49,1.56-.99,1.47-2.35-2.68-.83-2.44-2.06-2.87-1.84ZM55.92,54.67c1.05-.35,1.68-1.11,2.94-1.25-.49-2.05-3.81-.87-2.94,1.25ZM75.55,58.64c-2.32,3.66-5.88,6.87-6.47,12.42-.04.4-.03.79,0,1.25.26,4.07,1.48,8.56,3.31,10.95.17.23.62.76.73.59-.41-.99-.47-2.33-.44-3.75-.47-.16-.42.79-.81.96-.18-.87.4-1.55.88-1.98.04-1.03.17-1.98.29-2.94-.65-.03-.88.98-1.54,1.18.06-1.12,1.36-1.37,1.84-2.2.45-.78.22-1.85.74-2.79-1.35.14-1.81,1.18-2.87,1.62.57-1.17,1.73-1.75,2.94-2.28.28-1.07.84-2.24,1.03-3.16-1.01-.03-1.36.6-2.13.81.34-.98,1.47-1.18,2.5-1.47.52-1.04,1.17-1.97,1.4-3.31-1.14-.11-1.7.75-2.35.88.3-1.09,1.61-1.18,2.65-1.54.38-.96.71-1.98.88-3.16-1.52-.09-1.98,1.26-2.87,1.54.56-1.16,1.59-1.84,2.94-2.2.08-.74.17-1.87-.07-2.5-1.09-.2-1.57.59-2.2.59.45-.65,1.18-1.02,2.2-1.1-.2-1.37-.21-2.93-1.03-3.67-.15,2.13-1.22,3.34-1.54,5.29ZM59.23,54.23c-2.6-.84-4.15,3.31-1.62,4.26,2.49.5,1.98-1.99,3.31-2.65-.75-.35-1.29-.91-1.69-1.62ZM54.45,58.86c.55-.36.86-.96,1.54-1.18-.3-.64-.37-1.57-.15-2.35-1.82-.84-2.69,2.58-1.4,3.53ZM63.86,56.87c-1.62-2.73-5.51,2.16-2.28,3.38,2.07.44,3.13-1.94,2.28-3.38ZM56.14,58.2c-.67.03-1.46,1.15-1.54,1.91-.12,1.09.58,1.9,1.76,2.06-.29-1.63.59-2.42,1.4-3.16-.73-.09-.98-.84-1.62-.81ZM78.49,67.68c.23,1.54.81,2.93,1.25,4.12.43,1.16.97,2.07,1.4,3.09.22.52.37,1.11.73,1.54-.3-3.45-2.83-5.65-2.94-9.41-.07-2.54.38-5.37-.15-8.08.06,3.08-.7,6.06-.29,8.75ZM56.88,61.14c-.24,1.49,1.16,2.38,2.43,2.13.19-.04,1.1-.51,1.32-.73.26-.26.68-1.08.51-1.69-.08-.29-.64-.53-.96-.88-.5-.57-.31-.91-1.18-.81-1.24.14-1.99,1.1-2.13,1.98ZM63.05,60.7c-.38.08-.73.2-1.25.15-.1.66-.32,1.2-.51,1.76,1.15.03,1.34,1.01,2.13,1.4,1.01-.79.71-2.84-.37-3.31ZM79.59,65.55c1.57.03,3.05.53,3.53,1.4-.79-.54-2.2-1.13-3.45-.73,0,1.37.67,2.08,1.03,3.09.97-.19,2.48-.57,3.16.15-.99-.35-2.04.11-2.79.44.48.99,1.22,1.72,1.91,2.5.52-.1,1.71-.5,2.13,0-.49.14-1.19.08-1.47.44.67.52,1.15,1.82,2.06,1.98.52.09,1.15-.48,1.4.29-.22.04-.84-.06-1.03.22.74,1.34,1.59,2.58,2.06,4.19.29.1.5.28.81.37.26-1.85.76-3.46,1.25-5.07-.49-2.25-.77-4.72-2.2-6.03-.86-1.85-2.76-2.73-4.48-3.9-1.5-1.02-2.81-2.41-3.82-3.75-.26,1.51-.04,2.81-.07,4.41ZM57.25,63.27c-1.12-1.51-2.77,1.2-1.62,2.43.43-.01.71-.17,1.18-.15.35-.61.64-1.32.44-2.28ZM61.73,67.6c.93-.14,1.55-1.78,1.25-2.87-.24-.88-1.54-1.92-2.28-1.54-2.48.84-1.29,4.75,1.03,4.41ZM57.76,65.62c.93,0,.77-1.5.44-1.98-.75.11-.41,1.51-.44,1.98ZM73.34,78.41c-.17,2.32-.22,4.74.66,6.32.52.92,2.2,1.49,3.09,2.2.5.4.69.94,1.32,1.1-.53-1.33-.76-2.97-.66-4.92-.67.09-.41,1.11-1.1,1.18-.03-.91.83-1.5,1.1-2.28.38-1.08.21-2.29.44-3.67-.89.21-1.15,1.44-1.84,1.62.35-1.14,1.15-1.84,1.98-2.5.34-1.04.67-2.6.29-3.53-.87.23-.95,1.26-1.76,1.54.32-.5.66-1.28,1.18-1.76.27-.25.57-.28.66-.59.25-.85-.29-1.81-.29-2.79-1.35.51-1.54,2.18-2.5,3.09.19-.73.35-1.27.74-1.91.35-.57,1.52-1.56,1.62-2.06.1-.5-.29-1.24-.37-2.06-.09-.88.04-2.03-.22-2.28-1.9,3.7-3.96,8.15-4.34,13.3ZM57.25,70.69c1.17-.2,2.12-1.7,1.84-2.94-.11-.5-.69-1.34-1.18-1.54-.42-.18-1.04-.19-1.69-.07-2.53.73-1.83,5.05,1.03,4.56ZM89.51,80.69c.59-.68.53-1.7.73-2.65.75-3.42,2.11-8.1.96-11.61,1.05,5.58-1.31,9.27-1.69,14.26ZM59.53,69c1.28-.08,1.98.42,2.72.88.31-.4.44-1.5-.07-1.76-.71.49-1.88.25-2.57-.07-.11.24-.07.62-.07.96ZM60.26,73.85c1.82-.03,2.32-3.28,1.03-4.04-1.25-.74-2.29-.07-3.09,1.03-.34,1.69.64,3.04,2.06,3.01ZM82.53,76.42c1.07.05,1.61.65,1.91,1.47-.53-.29-.86-1.14-1.69-.88.38,1.48.78,3.01.74,4.7.6.16,1.12.4,1.25,1.03-.4-.16-.59-.54-1.25-.44.28,2.46,2.4,3.09,3.53,4.7-.09-1.45,1.32-2.66,1.4-3.6.03-.41-.26-1.18-.37-1.76-1-5.38-4.35-8.06-7.5-10.8.91,1.61,1.27,3.78,1.98,5.59ZM54.9,75.03c.63,1.58,4.29,1.8,3.9-.59-.87-.67-1.63-1.46-1.76-2.87h-.15c-1.71-.14-2.56,2.02-1.98,3.45ZM62.91,75.39c.72.21.73-.87.96-1.54-.39-.49-.33-1.01-.73-1.25-.92-.54-.91.94-1.54,1.4-.48.34-1.33.1-1.18.88.99-.51,1.83.32,2.5.51ZM78.19,84.43c.02,1.26.49,2.54.74,3.45.42,1.54.77,2.32,1.62,3.31,1.25,1.46,3.44,2.5,5.59,2.72-1.29-1.21-2.31-2.69-2.94-4.56-.64.3-.43,1.65-.66,2.13-.89-.92.32-2.2.37-3.09.05-.93-.85-2.24-.66-3.38-.91.37-.77,1.77-1.54,2.28.22-.83.25-1.69.74-2.35.27-.37.72-.51.81-.88.19-.79-.28-1.91-.29-2.87-.99.46-1.04,1.85-1.84,2.5.21-.89.5-1.88,1.1-2.65.26-.32.62-.46.73-.81.29-.91-.31-2.08-.66-2.94-.73.28-.73,1.67-1.4,1.76.3-.95.61-1.89,1.25-2.5-.41-1.26-.81-2.52-1.54-3.45-.54,3.55-1.45,7.49-1.4,11.32ZM59.67,75.1c.16-.14.41-.68-.07-.66.05.2-.09.58.07.66ZM60.33,79.8c3.03.69,3.52-4.24,1.1-4.48-.36-.04-1.49.18-1.91.44-.69.44-.75,1.34-.74,2.5.44.61.82,1.38,1.54,1.54ZM56.22,76.64c-.28.25-.32,1.09,0,1.32.53-.04.85.13,1.32.15.25-.42.44-.88.59-1.4-.59-.09-1.16-.03-1.91-.07ZM82.53,79.44c.14,1.46-.19,3.09.29,4.34.16-2.01.1-4.51-.37-6.1-.08-.28-.35-.84-.59-.88.08.81.57,1.64.66,2.65ZM54.31,81.05c.34,1.9,3.62,1.68,3.9-.15.18-1.23-.68-1.63-1.1-2.43-1.89-.4-3.06,1.06-2.79,2.57ZM64.16,81.13c.66-.1.84-.68.73-1.54-.45-.43-.73-1.03-1.54-1.1-.34.62-.79,1.12-1.18,1.69.76.2.86,1.05,1.25,1.62.28.11.72-.26.74-.66ZM58.72,80.91c.24-.2.53-.35.59-.73-.23-.17-.41-.37-.74-.44.07.37.21.68.15,1.18ZM88.7,82.23c.22-.49.58-2.12-.44-1.98.19.62.08,1.53.44,1.98ZM62.69,82.67c.42-2.23-1.78-2.91-3.01-1.84-1.2,1.05-.5,3.84,1.69,3.38.46-.3,1.19-.87,1.32-1.54ZM55.7,82.82c-.45.27-.47,1.25-.15,1.69.66-.66,1.73-.92,2.72-1.25.02-1.79-1.42.11-2.57-.44ZM57.1,88.11c3.59,1.13,4.25-4.88.37-4.04-1.83.39-2.35,3.42-.37,4.04ZM83.48,87.45c.85.62,1.65,1.29,2.2,2.2-.8-.31-1.3-1.29-2.06-1.4.51,2.55,1.77,4.27,3.53,5.51.58.41,1.22,1.11,1.98.96-.05-1.04-.99-1.1-1.47-1.76-.43-.59-.57-1.39-.59-2.13-.01-.5.23-1.06.15-1.69-.31-2.43-2.53-3.22-3.6-4.92h-.22c-.03.91-.28,2.31.07,3.23ZM60.85,86.34c.35-.39.3-1.6-.37-1.62.03.36.04,1.32.37,1.62ZM60.77,86.86c-.57.36-1.11,1.43-.96,2.35.2,1.15,1.96,2.18,3.31,1.4.16-.13-.01-.6.15-.73h.59c1.38-2.39-1.2-4.21-3.09-3.01ZM56.73,91.93c.42,1.76,3.81,1.32,3.6-.51-.08-.73-1.14-1.01-1.1-2.06-1.66-.5-2.69.75-2.5,2.57ZM60.92,92.3c.39.06.46-.47.29-.73-.09,0-.1-.09-.22-.07-.13.15-.23.6-.07.81ZM63.27,93.03c-2.27-1.81-4.24,2.88-1.4,3.09.16-.16-.05-.69.29-.66.4-.1.24.35.51.37.71-.44,1.14-1.97.59-2.79ZM56.95,96.63c-.21,2.48,3.84,2.57,3.31-.51-.72-1.53-3.17-1.14-3.31.51ZM60.41,98.18c.26.04.36-.09.51-.15-.04-.55.24-1.17-.15-1.47-.09.57-.18,1.14-.37,1.62ZM60.77,101.48c1.39-.18,2.09-3.31-.22-2.79-1.59.36-1.87,3.06.22,2.79ZM58.35,104.35c1.1.32,2.16-.83,1.91-1.91-.14-.6-1-1.15-1.54-1.1-1.4.13-1.51,2.68-.37,3.01ZM60.55,101.92c.34.78-.01,1.39.07,2.13,1.22.11,1.45-1.35.96-2.13-.32-.17-.66,0-1.03,0ZM61.8,105.38c-.43-2.08-4.21.49-2.06,1.69.29.04-.02-.51.29-.44.44-.12.2.43.37.59,1.05.08,1.58-.94,1.4-1.84ZM60.04,108.1c.31.08.31-.52,0-.44-.02.17-.14.3,0,.44ZM60.55,108.91c-1.08-1.42-3.11.77-1.62,1.69.18-.09.09-.45.44-.37.27,0,.02.52.37.44.6-.26.89-.83.81-1.76Z" fill="#000" fill-rule="evenodd" stroke-width="0"/><path d="M100.53,113.24h.15c.42.32,0,.6.07,1.1.18,1.37,1.44,1.92,1.76,3.31.41,1.75-.41,3.67-1.32,4.56-.82.8-2.39,1.59-3.45,1.54-2.25-.1-4.16-2.26-4.34-4.41-.23-2.83,1.53-4.32,3.38-5,1.19-.43,3.02-.06,3.75-1.1ZM93.99,118.17c-.07.57-.12,1.76.37,2.13.09-.75.32-1.74.74-1.91-.11,1.14-.48,2.34.07,3.23h.81c.08-.21.88-2.74,1.84-3.16-.36,1.11-1.06,1.88-1.25,3.16,1.16,1.42,2.7-1.68,3.45-2.2,0,.76-.56,1.1-.96,1.62-.17.22-1.28,1.23-1.25,1.47.08.59,1.35.15,1.69-.07.62-.41,1.03-1.37,1.54-1.62.01.42-.25.61-.29.96,1.16-.7,1.31-3.01.88-4.63-.28-.06-.12.32-.44.22-.18-.36.03-1.1-.44-1.18-.2.31-.17.85-.59.96-.43-.27,0-1.23-.15-1.91-.65.31-.61,1.3-1.4,1.47.02-.74.51-1.01.66-1.62-.73.18-1.21,1-2.13.73.41-.52,1.28-.58,1.62-1.18-2.37.04-4.51,1.38-4.78,3.53Z" fill="#000" fill-rule="evenodd" stroke-width="0"/><path d="M74.52,111.18c.4,0,1.02.07,1.4.22.42.17.72.64,1.18.96.93.65,1.05.46,1.62,1.54.37.72.38.76.51,1.84.14,1.13.64,2.17.07,3.23-.13.24-.58.52-.73.73-.52.72-.74,1.48-1.32,1.84-.57.36-2,.8-2.87.73-.48-.04-1.05-.35-1.62-.51-.89-.26-1.75-.39-2.28-.96-.77-.82-2.23-3.89-1.4-5.81.19-.44,1.1-1.82,1.47-2.2.88-.9,2.21-1.61,3.97-1.62ZM78.63,118.09c.06.73-1.17,1.4-1.03,2.2.31-.16.36-.57.44-.96.92-.32,1.23-1.57.96-2.65-.51.25-1.08.44-1.91.37-.92-.54-.1-2.03-.29-2.94.2-.44.87-.4,1.25-.66-.13-.09-.25-.19-.37-.29-.67.08-.83.76-1.4.73-.62-.02-.49-.46-.81-.96-.34-.53-.79-.66-.66-1.18-1.21-.09-1.93.32-2.72.66-.04,1.09-.78,1.47-1.84,1.54-.55.63-1.01,1.34-.96,2.57.57.59,2.13-.33,2.13.81,0,.45-.39.36-.51.81.2.3.42.93.22,1.4.54.15.88.49,1.18.88.58.18,1.26.26,1.54.73,0,.2-.03.42.07.51.54-.17,0-1.41.66-1.47.61-.09.9.92,1.47,1.03.52.1,1.23-.2,1.4-.81-.61.93-2.52-.34-2.5-.96.02-.56,1.15-.92,1.4-1.54.09-.22-.18-.38.15-.59.86.12,2.06-.1,2.13.73ZM75.4,112.14c.05.37.32.51.44.81.32.03.57-.02.73-.15-.13-.44-.72-.78-1.18-.66ZM70.99,113.32c.3-.02.47-.16.51-.44-.16-.09-.54.11-.51.44ZM77.46,114.27c-.17.6-.06,1.52.73,1.4.22-.29.29-.74.44-1.1-.31-.21-.68-.49-1.18-.29ZM69.74,117.36c.09.32.05.78.37.88.17-.41.61-.57.81-.96-.34-.19-.83.03-1.18.07Z" fill="#000" fill-rule="evenodd" stroke-width="0"/></svg>