<?xml version="1.0" encoding="UTF-8"?><svg id="Layer_1" xmlns="http://www.w3.org/2000/svg" viewBox="0 0 144.57 144.57"><path d="M69.21,65.51c-.32-.2-.65-.45-.97-.65v-.04c.53,0,.77-.37,1.14-.69.32-.32.73-.57,1.14-.89-.28-.2-.65-.45-.89-.65.32-.28.69-.61,1.14-1.02-.61-.12-1.14-.24-1.71-.37.08-.12.2-.24.37-.37l-.08-.08c-.16.12-.32.24-.53.32-.12.04-.24.08-.37.12,0-.12-.04-.28-.08-.41v-.28c-.12.16-.24.37-.41.53-.12.12-.28.24-.41.32-.12-.12-.2-.24-.32-.41-.45.12-.53.57-.69.97-.12,0-.28-.04-.32-.04-.12.57-.28,1.14-.41,1.71.77.2,1.34-.45,2.11-.81-.57.65-1.14.93-2.03,1.06.57.61,1.1,1.22,1.91,1.5.45.16.81.49,1.22.73l-.08.08c-.69-.32-1.38-.65-2.03-1.02-.28-.16-.49-.45-.77-.69-.12-.12-.28-.24-.45-.45v.65c-.12.57-.16,1.18-.41,1.71-.89,1.95-1.83,3.86-3.05,5.64-.81,1.22-1.58,2.44-2.68,3.45-.08.08-.16.16-.28.2,0,0,0-.08.04-.12,1.3-1.22,2.11-2.84,3.13-4.3,1.1-1.58,1.75-3.37,2.56-5.08.28-.65.41-1.34.28-2.15-.32.32-.61.65-.93.97-2.88,3-5.36,6.37-8.41,9.26-.73.69-1.34,1.58-1.91,2.44-.73,1.06-1.42,2.19-2.15,3.25-1.02,1.42-2.03,2.84-3.13,4.22-.81,1.06-1.62,2.15-2.68,3-.08.08-.16.16-.2.24-.73,1.14-1.46,2.27-2.23,3.41-1.02,1.54-2.03,3.09-3.09,4.63-.08.16-.2.28-.41.37.12-.2.24-.41.37-.61,1.22-1.87,2.44-3.7,3.61-5.56.45-.69.89-1.34,1.34-1.99.12-.2.28-.41.49-.57,1.75-1.66,3.17-3.61,4.59-5.56.57-.77,1.06-1.66,1.58-2.48.65-.97,1.3-1.95,1.99-2.96.16-.2.32-.41.49-.69-.12,0-.16,0-.16.04-.69.41-1.38.85-2.07,1.22-1.18.61-2.15,1.46-3.05,2.4-2.03,2.07-4.02,4.14-6.05,6.21-.04.04-.12.12-.24.08.37-.41.73-.85,1.1-1.26,1.95-2.03,3.86-4.06,5.89-6.01.69-.69,1.5-1.26,2.4-1.75,1.79-.93,3.33-2.19,4.71-3.65,1.62-1.79,3.21-3.65,4.79-5.48.73-.85,1.46-1.66,2.19-2.48.04-.04.08-.12.16-.2-1.5.24-2.72,1.1-3.94,1.87-2.36,1.46-4.59,3.05-6.7,4.87-.57.49-1.22.93-1.83,1.38-.12.12-.28.2-.41.28-1.38,1.26-2.72,2.48-4.1,3.74-.41.37-.85.73-1.34,1.06,1.54-1.42,3.05-2.84,4.59-4.3,0,0,0-.04-.04-.08-1.14.28-2.36.12-3.41.77.37-.32,1.02-.61,1.99-.69,1.38-.12,2.56-.73,3.61-1.62,2.88-2.52,5.93-4.75,9.3-6.62.57-.32,1.18-.49,1.79-.77.45-.2.89-.41,1.34-.65-2.76-.77-5.4-.41-8,.65,2.6-1.34,5.32-1.58,8.12-.89-.04-.57-1.34-1.66-2.88-2.44.32,0,.81.24,1.58.85.49.37.93.81,1.46,1.26,0-.69.04-1.34.08-2.07-.24.16-.37.28-.53.41-.12-.37-.24-.69-.37-1.06-.45.2-.65,0-.89-.32-.16-.24-.37-.45-.65-.73-.08.28-.12.49-.2.85-.41-.81-1.02-1.1-1.79-1.22.04.37.08.69.12.89-.81-.12-1.62-.28-2.56-.41.04.45.08.85.12,1.22-.28,0-.57-.12-.89-.08-.45.04-.93.16-1.38.28-.2.04-.28.2-.12.41.2.28.41.53.65.81-.81-.24-1.38.32-2.03.69-.32.2-.32.37-.12.61.12.2.24.41.45.65-1.02-.16-1.46.73-2.36.97.24.45.45.89.69,1.3-1.34,0-2.23,1.06-3.49,1.58.41.2.77.41,1.1.57-1.1.16-2.19.24-3.13.93.41.04.81.08,1.22.12v.12c-.32.12-.69.24-1.02.41-.69.32-1.38.69-2.03,1.02-.28.16-.2.37,0,.53.16.16.37.24.57.37-.65.41-1.3.81-2.03,1.26.65.16,1.18.32,1.71.49v.16c-1.26.12-2.19.77-2.96,1.75.57.24,1.18.37,1.54.97-.2.08-.41.16-.61.2-.81.16-1.5.53-2.11,1.06-.16.16-.28.32-.49.53.73.16,1.38.32,2.07.49v.12c-.2.08-.41.12-.65.2h0c-.49-.16-1.02-.32-1.5-.49-.08,0-.16,0-.32-.04.61-1.18,1.71-1.62,2.84-1.99v-.12c-.37-.2-.73-.45-1.18-.73.49-.93,1.3-1.58,2.4-1.95-.41-.16-.73-.16-1.1.08-1.58,1.22-2.84,2.72-3.98,4.3-1.87,2.6-3.74,5.2-5.56,7.8-.81,1.14-1.62,2.31-2.4,3.45-.24.37-.45.77-.65,1.14,0,0-.04,0-.08-.04.16-.28.28-.57.45-.85.97-1.83,2.27-3.37,3.45-5.04.93-1.3,1.91-2.6,2.84-3.94.12-.16.2-.28.32-.49-3.05,1.79-4.91,4.51-6.78,7.31v-.12c1.3-2.19,2.68-4.3,4.71-5.93.81-.65,1.66-1.3,2.48-1.95.12-.08.2-.2.28-.32,1.1-1.58,2.19-3.21,3.61-4.51.2-.16.41-.37.53-.57-2.48,1.62-4.91,3.25-7.39,4.87h0c.12-.08.2-.2.32-.28,1.66-1.1,3.33-2.23,4.95-3.33.53-.37,1.1-.73,1.62-1.1.2-.16.45-.28.69-.41s.41-.24.57-.49c.28-.41.69-.69,1.06-1.02.08-.08.16-.12.28-.2-2.07-.24-3.94.24-5.81.93,1.95-.93,3.98-1.34,6.17-1.02-.28-.28-.53-.53-.81-.85,1.1-.53,2.11-1.02,3.17-1.54h-1.02s0-.08-.04-.12c.16-.12.37-.24.53-.41.08-.08.16-.2.12-.32-.08-.37-.24-.69-.41-1.14-.24.32-.41.57-.61.85-.28-.41-.49-.77-.73-1.14h-.12c-.08.32-.12.61-.2.93-.37-.16-.73-.32-1.1-.53,0,0-.04.04-.08.08.04.16.12.32.16.49-.57-.08-1.14-.16-1.66-.24-.12,0-.2-.2-.28-.32,0,0,0-.04.04-.08.53,0,1.1.08,1.62.12v-.41c.37.08.73.2,1.14.28.12-.2.28-.45.41-.73.49-.04.73.37,1.02.65.2-.12.41-.24.65-.41.24.45.49.85.69,1.26l1.62-.37c-.16-.12-.28-.24-.49-.41,1.14-.57,1.99-1.5,3.25-1.75l-.28-1.22c.65-.37,1.26-.73,1.95-1.1-.12-.28-.28-.57-.41-.93.73-.41,1.46-.77,2.15-1.14-.08-.16-.24-.37-.32-.61-.12-.24-.04-.37.2-.49.69-.32,1.38-.41,2.07-.28,0-.37,0-.69.08-1.06,0-.08.2-.2.28-.2.73.08,1.42.2,2.19.32-.04-.28-.08-.57-.16-.97.73.28,1.34.53,2.03.77,0,0,.04-.12.12-.24.57.24.89.73,1.22,1.14.65-.2.69-.12.93.73.16-.08.32-.12.49-.2.28.77.2,1.54.04,2.31.16-.16.34-.61.53-1.34l.37-.37c.24-.24.53-.53.81-.73.08-.04.28.12.45.2.08-.08.24-.28.45-.45.16-.12.41-.2.69-.37-.08.28-.12.49-.16.65.45-.12.85-.28,1.26-.41v.08c-.2.16-.37.37-.53.53.57.16,1.1.32,1.62.49-.32.32-.65.69-.97,1.02.28.28.61.57.93.85-.2,0-.37.04-.53.08v.08c.45.08.93.12,1.46.2-.41-1.42-.81-2.8-1.22-4.14-.69-2.27-1.38-4.55-2.07-6.82-.16-.49-.24-1.02-.37-1.54-.08-.28-.2-.45-.57-.37h-.28c.65-.24.81-.24.97.32.28.81.49,1.62.73,2.4.45,1.38.85,2.8,1.3,4.18.65,2.03,1.42,3.98,1.79,6.09v.2h-.37c-.28-.04-.61-.04-.89-.16-.73-.28-1.14.12-1.5.73.41,0,.81.04,1.22.12.53.08,1.02.24,1.54.32.32.08.49.28.57.57.37,1.3.69,2.64,1.1,3.9.73,2.48,1.5,4.95,2.27,7.43.65,2.07,1.3,4.1,1.95,6.17,0,.08.04.16.08.28.24-.2.49-.37.73-.53-.24-.89-.53-1.75-.77-2.64-.65-2.15-1.3-4.34-1.95-6.5-.65-2.19-1.26-4.39-1.91-6.58-.12-.37-.2-.77-.24-1.14-.04-.32-.2-.53-.49-.65-.24-.12-.45-.32-.65-.49,0-.04.08-.12.12-.16.57.37,1.18.73,1.75,1.1,0,0,.08-.04.08-.08-.12-.2-.28-.45-.45-.65-.08-.08-.24-.12-.32-.2-.2-.16-.37-.37-.53-.53.2-.16.41-.37.61-.45.53-.16,1.06-.2,1.58-.28-.69-.37-1.34-.04-2.11.16,0-.45,0-.85.08-1.26.24-1.3.53-2.64.77-3.94.16-.89.24-1.79.49-2.68.2-.85.49-1.66.85-2.44.16-.32.61-.53.89-.77.12-.08.24-.16.37-.2-.32-.32-.49-.32-.77-.08-.32.28-.61.57-.93.85-.32-.24-.57-.41-.81-.61h.41c-.24-.24-.45-.49-.69-.73-.16-.16-.28-.37-.49-.45-.77-.37-1.38-.85-1.79-1.58-.12-.24-.28-.41-.45-.65-.12.16-.28.32-.41.49-.32.41-.65.85-1.02,1.26-.16.16-.2.32-.16.53.37,1.26.69,2.48,1.02,3.74.45,1.75.89,3.45,1.38,5.2.16.57.37,1.1.53,1.66h.16c.69-2.84,1.18-5.68,1.79-8.61-.45,0-.85-.04-1.34-.08,0-.08,0-.28-.04-.45h-.49c.04-.53-.49-.41-.73-.69.69-.2,1.34-.24,1.91.16-.45-.08-.89-.16-1.34-.2v.12c.28.12.53.28.77.45.12.08.16.2.24.41.2,0,.53.08.85.08.24,0,.32.12.28.37-.2,1.14-.37,2.27-.57,3.37-.2,1.18-.45,2.36-.69,3.57,0,.2-.04.41-.12.61-.37.89-.61,1.79-.08,2.76-.08,0-.12.04-.2.08-.08-.12-.2-.24-.24-.41-.41-1.26-.77-2.52-1.14-3.78-.61-2.27-1.18-4.51-1.79-6.78-.16-.57-.28-1.18-.37-1.79,0-.08,0-.24.08-.32.53-.61,1.1-1.22,1.58-1.87.16-.2,0-.61.04-.93h-.12c-.2.28-.41.57-.65.85-.28.37-.61.73-.93,1.06-.08.08-.24.12-.37.2v-.61c-.12-.61-.28-1.22-.41-1.83,0,0,.08,0,.12-.04-.12,0-.24-.04-.41-.08,0-.24,0-.45.04-.65.08-.73.04-.73-.69-.85.49-.81.2-1.66.2-2.52-.16,0-.32.04-.53.08.49-.37.97-.65,1.38-.97.45-.41.41-.97.45-1.54-.53.61-1.02,1.26-1.54,1.87-.41-.32.08-.97-.41-1.34v.81h-.08c-.12-.61-.2-1.22-.32-1.83h-.16c0,.69-.12,1.34.28,2.07-.77,0-1.38-.24-1.91-.69-.2.16-.16.32.04.45.41.24.81.53,1.22.81.45.28.69.65.77,1.14.37,1.99.73,3.94,1.1,5.93,0,.12,0,.24-.08.32-.08-.04-.2-.08-.28-.16-.37-.37-1.42-.24-1.79.24.28-.08.57-.16.85-.28h0c-.16.12-.32.24-.53.32-.2.08-.45.12-.65.16-.12-.08-.28-.16-.45-.28.37,0,.73-.28.89-.69.28,0,.61.04,1.02.08-.16-.16-.2-.24-.28-.32-.73-.73-1.5-1.46-2.23-2.19-.16-.16-.32-.24-.57-.24-1.66,0-3.29,0-4.95.04-.73,0-1.42.08-2.15.2.89,1.02,1.99,1.58,3.21,1.91,1.22.32,2.48.45,3.7.69-1.02-.12-2.03-.16-3.05-.32-.53-.08-1.06-.28-1.58-.49-.24-.08-.41-.08-.53.16-.12.2-.28.45-.41.65.85.57,1.06.77,1.14,1.26-.37-.32-.69-.65-1.02-.93-.28.12-.53.2-.65.37-.16.2-.28.45-.41.69h-.08c.12-.28.16-.61.32-.77.32-.32.53-.69.69-1.1.08-.16.2-.32.28-.49-.32-.16-.65-.37-.97-.53h-.28c-.32.24-.69.53-1.02.81-.2.16-.24.41-.16.69.16.57-.08,1.06-.37,1.54h-.08c.04-.37.12-.73.16-1.1-.08,0-.12,0-.2.08-.08-1.18.61-1.79,1.5-2.31-.2-.2-.45-.45-.65-.65-.04-.04-.16-.08-.24-.08-.41.16-.81.28-1.22.49-.45.24-.73.65-.85,1.14-.08.24-.16.53-.24.77h-.16c.08-.37.12-.73.2-1.22-.53.28-.97.53-1.5.81.32-.41.65-.73,1.1-.81.49-.04.73-.28.97-.69-.57-.28-1.1-.08-1.62.12,0,0,0-.08-.04-.12.2-.08.37-.2.57-.24.24-.04.49-.08.69,0,.69.16,1.26-.2,1.91-.37-.37-.32-.69-.61-1.02-.93,0,.16-.04.28-.08.45-.41-.2-.81-.37-1.3-.57.08.2.12.32.2.53-1.06,0-1.58.89-2.4,1.34.24.08.45.12.61.16l-.93.93c.41,0,.73,0,1.02.04-.2.49-.32.89-.53,1.34.49-.16.85-.28,1.26-.45,0,0,0,.08.04.12-.08.24-.16.45-.24.73.37-.2.65-.2.65.32-.12-.12-.24-.2-.32-.28-.16.04-.37.12-.65.2,0-.32.08-.57.08-.81-.37.12-.73.53-1.22.2.12-.41.2-.85.32-1.3-.28.04-.57.08-.89.12-.08.16-.16.32-.24.49l-.12-.08c.32-.65.89-1.06,1.38-1.58-.2-.08-.45-.12-.65-.2.57-.41,1.1-.77,1.62-1.14-.16-.73.08-1.42.41-1.42-.04.37-.12.73-.16,1.18l.57-.12-.12-.57c.49.16.89.28,1.3.41,0-.08.08-.16.12-.28.61.04.81.73,1.3.93,0,0,.04-.04.08-.08-.12-.12-.24-.28-.37-.41-.2-.24-.61-.37-.32-.85.08-.12-.16-.41-.24-.65.16-.04.32-.08.53-.16v-.41c-.12.12-.24.16-.28.24-.12.24-.28.2-.49.12-.57-.24-.89-.12-1.22.45-.08.16-.2.28-.32.45-.08-.81.85-1.34,1.62-.97.41-.28.73-.61,1.14-.85.45-.28.53-.24.85.16.08.12.2.24.32.37.41-.37.81-.73,1.14-1.06.41.37.81.69,1.3,1.1.53-.85.97-1.58,1.46-2.36l-.12-.12-.57.12c.08-.65.49-1.02.97-1.5-1.14.45-1.54,1.34-1.95,2.23-.12-.81.37-1.34.81-1.83-.37,0-1.1.24-1.75.65-.57.32-1.02.69-1.22,1.34,0-.49.24-.81.49-1.22-.41.2-.81.37-1.22.61-2.76,1.46-5.2,3.45-7.43,5.6-1.62,1.54-3.21,3.17-4.79,4.71-.04.04-.12.08-.16.16l-.08-.08c.85-.89,1.75-1.75,2.6-2.64.89-.89,1.75-1.79,2.64-2.64s1.87-1.62,2.76-2.48c-1.71.49-3,1.71-4.55,2.48,1.26-.89,2.48-1.83,3.9-2.48.08-.04.2-.08.28-.08.69,0,1.22-.45,1.75-.81.85-.57,1.75-1.14,2.64-1.66.08-.04.16-.12.24-.2-2.19.04-4.3.49-6.37,1.22,1.22-.57,2.48-.97,3.78-1.14,1.02-.12,2.03-.12,3-.28.49-.08.97-.37,1.46-.57.32-.12.69-.24,1.02-.41-2.52-.81-5.04-1.06-7.63-.32.97-.45,2.03-.57,3.09-.57,1.62,0,3.25.24,4.79.73h.28c.81-.28,1.62-.57,2.44-.89-.77-.89-1.71-1.5-2.72-1.95,1.18.37,2.23.97,3.17,1.87.12,0,.28-.08.45-.08.24,0,.41-.12.37-.41,0-.28-.2-.32-.45-.28h-.08l-.12-.45s-.04.04-.08.08c-.32-.32-.65-.69-1.02-1.02-.12.12-.24.32-.28.32-.12,0-.24-.16-.37-.28-.28-.28-.57-.57-.85-.85,0,0-.04.04-.08.08l.16.69c-.16-.08-.28-.12-.32-.2-.41-.41-.93-.69-1.42-.73.08.12.12.24.2.37,0,0,0,.04-.04.08-.57-.2-1.14-.41-1.79-.61.12.2.16.32.24.49-.97-.28-1.83-.28-2.72.12.16.16.28.32.41.45-.61,0-1.22,0-1.95.08.2.24.28.41.41.57-.93,0-1.87,0-2.68.65.12.12.2.24.28.32-1.1.08-2.15.32-3,1.22.24.12.41.2.65.28-.73.16-1.34.41-1.75,1.1.32,0,.57,0,.93.04-.73.49-1.42.85-1.75,1.66-.77-.24-1.46.12-2.19.41.08-.08.16-.2.24-.2.57-.24,1.18-.45,1.66-.65-.65-.28-2.11.24-2.4.97.08,0,.16,0,.24-.04-.85.53-1.62,1.34-2.72,1.3h-.41c.24-.65.45-1.26.69-1.91-1.06.16-1.95-.08-2.64-.89.24.12.45.24.69.37.57.37,1.14.49,1.79.28.2-.08.41-.08.69-.16-.2.77-.41,1.46-.61,2.15.77-.08,1.3-.41,1.71-.97.77-1.1,1.83-1.5,3.13-1.3.08,0,.2-.04.32-.08v-.12c-1.58,0-3.13.24-4.63-.12,1.46,0,2.96-.08,4.47-.12.37,0,.73-.08,1.02-.45h-.53s-.04-.08-.08-.12l.97-.97c-.57-.08-1.22-.16-1.87-.28v-.08c.73.04,1.5.12,2.23.16v-.08s-.12-.08-.24-.2c.45-.32.85-.65,1.3-1.02-1.5-.61-3.17-.24-4.67-.61v-.12c1.38.08,2.76.16,4.14.28-3.45-1.99-7.11-3-11.13-2.6,2.44-.37,4.79-.08,7.15.61.12-.93-.2-1.66-.69-2.36.69.61.97,1.34.93,2.44,1.66.45,3.17,1.3,4.63,2.15.08.04.24.04.32.04.28-.04.57-.12.85-.2-.04-.08-.08-.16-.16-.28.85-.45,1.66-.81,2.64-.65-.08-.2-.12-.32-.16-.53.49-.08.97-.12,1.38-.2-1.5-1.3-3.45-1.66-5.28-2.31h.24c.65.2,1.26.41,1.95.57,1.02.24,1.95.65,2.84,1.26.2.12.37.16.57.04.73-.32,1.5-.41,2.27-.24h.08c0-.08-.08-.16-.16-.37.65.2,1.18.32,1.75.49-.57-1.1-1.42-1.87-2.4-2.52.69.32,1.34.73,1.79,1.34.41.57.85.97,1.58,1.1.2,0,.37.16.53.24,0-.12,0-.2.04-.32.65.08,1.02.57,1.42.97.08-.08.2-.2.2-.16.41.24.81.53,1.18.77,0,0,0,.04-.04.08l.32-.08.12.61s.04,0,.08-.04c.16.12.28.24.45.32.69-.37,0-.81,0-1.3.08.08.12.16.2.24v-.65h.08l.24,1.1c.37-.2.12-.45.08-.65-.04-.24-.12-.49-.2-.73,0-.08,0-.16-.08-.28-.24.08-.41.16-.61.24-.04-.24-.16-.49-.16-.73,0-.57-.32-.73-.77-.93.32.57.65,1.14.93,1.66.04.16.12.32.16.53h0c-.49-.85-1.02-1.71-1.5-2.56.32.16.65.32.97.53.24.12.37.32.37.61,0,.24.12.49.16.73.12,0,.24-.04.32-.08.24-.04.37.04.41.32.04.37.16.73.24,1.14.28-.16.45-.24.61-.37-.37-.97-.97-1.79-1.58-2.6-.28-.41-.61-.81-.89-1.22-.81-1.26-1.91-2.27-3.13-3.09-.57-.37-1.06-.85-1.62-1.18-.97-.49-1.95-1.02-2.92-1.42-1.1-.45-2.15-.93-3.05-1.5,1.46.65,3,1.3,4.55,1.99,0-.04.08-.08.08-.16-.28-.28-.53-.57-.77-.81,1.14.89,2.36,1.79,3.53,2.72l.08-.08c-.69-.77-1.38-1.58-2.07-2.36v-.04c.08.08.2.16.28.24.73.81,1.5,1.66,2.23,2.48.2.2.41.37.69.53-.28-.57-.53-1.1-.81-1.66h.04c.37.61.73,1.26,1.1,1.87.16.24.37.41.53.65.53.65,1.06,1.34,1.62,1.99.08.12.16.2.32.41-.2-.73-.41-1.34-.57-1.99.04,0,.08,0,.12-.04.37,1.95,1.54,3.49,2.4,5.16h.24c-.08-.12-.16-.2-.2-.32-.08-.28-.41-.53-.2-.93.08-.2-.08-.49-.12-.77v-.57c0-.16-.12-.32-.24-.41-.08-.08-.24-.08-.37-.08v-.81c0-.16.04-.45-.28-.45-.04,0-.08-.2-.12-.32-.04-.16-.08-.32-.12-.53-.12,0-.2.08-.37.12-.08-.24-.16-.45-.28-.73-.08.08-.16.16-.28.28-.16-.2-.32-.41-.49-.65-.12.08-.2.16-.32.24-.2-.32-.45-.65-.65-.97-.12.08-.16.16-.28.28-.49-.89-.97-1.83-2.03-2.19v.53s-.04.04-.08.08c-.69-.69-1.02-1.83-2.23-1.87-.28.28-.28.24-.69-.08-.24-.2-.57-.32-.85-.45-.28-.12-.57-.16-.85-.24-.28.45-.32.49-.81.28-.28-.12-.61-.24-.89-.41-.73-.37-1.54-.32-2.31-.32-.2,0-.41-.08-.61-.12v-.2c.57,0,1.14-.04,1.71-.04.73,0,1.34.28,1.99.61.24.12.45.24.65-.04,0-.04.16-.08.24-.04.57.16,1.18.32,1.75.53.16.04.28.2.45.24.16,0,.32-.08.45,0,.73.28,1.46.61,1.83,1.46.08-.12.12-.2.2-.28.85.53,1.71,1.02,2.07,2.03.57-.08.69.45.89.65.2,0,.37,0,.49.08s.2.24.32.41c.12-.08.24-.12.32-.16.12.12.24.2.32.32,0,0,0-.04.04-.08-.24-.32-.45-.65-.73-1.02l.93-.2c0-.49-.04-.93-.08-1.42.41,0,.81-.04,1.26-.08-.37-.85.2-1.46.45-2.19.2.2.41.37.69.61-.04-.65-.08-1.18-.12-1.75.24.08.53.2.65.24.12-.57.24-1.06.41-1.66.37.24.61.45.93.69v-.53c0-.57.32-1.06.85-1.22h.32c.2.08.37.16.65.28-.12-.97.97-.97,1.18-1.79.41.16.77.32,1.18.53.2-.53.53-1.02,1.14-1.22.24-.08.49-.16.69.12.12.12.32.16.57.28.12-.53.53-.85.93-.93s.85.2,1.26.28c.24-.32.49-.69.77-1.02.08-.08.24-.16.37-.12.41.08.77.2,1.06.28.45-.24.77-.41,1.1-.61.49-.28.73.2.93.24.69-.32,1.26-.65,1.83-.89.16-.08.49,0,.65.16.24.12.41.12.57,0,.97-.81,2.19-.69,3.33-.93,0,0,.04,0,.12.08-1.06.73-2.31,1.1-3.17,2.11h1.02c-.57.41-1.1.77-1.62,1.14.12.04.28.12.41.16-.57.28-1.14.61-1.79.93.24.08.41.12.57.16-.41.32-.85.69-1.3,1.06.32.08.61.16.89.28-.57.41-1.1.73-1.66,1.14.28,0,.53.08.81.08-.45.41-.89.77-1.38,1.22.24.04.37.08.53.12-.73.08-.93.77-1.42,1.18.08,0,.16,0,.28.08-.37.57-.73,1.1-1.1,1.62.2,0,.45.08.77.12-.28.28-.53.53-.73.73.69.12,1.38.24,2.07.37v.16c-.12,0-.24.04-.41.08s-.28.08-.41.08h0c.08-.08.12-.12.24-.16-.85-.24-1.66-.12-2.48.12,0,0-.04-.04-.08-.08l.45-.57-.08-.08c-.41.24-.77.49-1.18.73l-.08-.08c.04-.12.08-.24.16-.45-.89.08-1.42.69-2.19,1.06.08-.24.12-.49.2-.73,0,0-.04-.04-.08-.08-.45.28-.89.61-1.42.97,0-.24.04-.41.08-.57-.77.12-1.22.69-1.71,1.26-.08-.16-.16-.28-.28-.49-.32.41-.61.77-1.02,1.22-.04-.32-.08-.57-.12-.85-.57.32-.73.89-1.02,1.42-.12-.08-.2-.16-.41-.32-.16.37-.32.73-.41,1.06-.16.49-.16.53-.53.2,0,0-.08,0-.16-.08-.28.65-.57,1.26-.81,1.87.28,0,.49,0,.77.04.16-.32.37-.73.57-1.1.16.08.28.16.32.2,1.34-1.38,2.96-2.19,4.75-2.76.81-.28,1.62-.57,2.48-.81.73-.24,1.46-.41,2.19-.57-.61.16-1.22.32-1.79.53-1.22.41-2.44.77-3.61,1.26-.89.37-1.75.89-2.6,1.38-.24.12-.41.32-.57.57.69-.28,1.38-.61,2.07-.89h0c-.24.24-.45.45-.69.61v.08l1.1-.24v.12l-1.1.24c.24.12.37.2.53.24-.49.2-.93.41-1.42.61.08.08.12.16.24.24-.2.12-.41.2-.61.28.08-.08.16-.16.28-.24-.16,0-.24-.04-.37-.08v-.12c.53-.2,1.02-.45,1.58-.69h-.85c.12-.2.24-.32.32-.49l-.08-.12c-.49.37-.97.73-1.5,1.06-.08.04-.28.08-.37,0-.32-.2-.45-.04-.53.2s-.12.49-.2.73c-.65-.24-.89-.08-.85.61,0,.57.41.93.73,1.3.2-.28.37-.57.57-.81,0,0,.08,0,.08.04-.97,1.42-1.02,3.05-1.18,4.67.2-.28.45-.53.53-.85.24-.85.45-1.75.65-2.64-.12.08-.24.16-.37.24,0-.16.04-.24.12-.32.12-.16.32-.37.28-.53-.08-.37.2-.45.37-.65.04-.04.12-.12.16-.16-.04-.04-.08-.08-.12-.12.2-.2.37-.41.61-.69-.28.12-.45.2-.61.24h0c.24-.24.53-.45.77-.69.12,0,.28.08.37.12-.2.2-.45.45-.65.69.08.04.12.12.16.12-.32.41-.65.81-1.02,1.22l.12.12c.16-.04.32-.12.49-.16-.45.28-.61.73-.69,1.22s-.16.93-.16,1.46c.28-.32.53-.69.85-1.1,0,.16-.04.28-.08.37,0,0,0,.04.04.08,1.22-1.18,2.64-1.79,4.3-1.87,0,.45-.16.69-.45.93.08-.16.12-.32.2-.49-.04,0-.08-.04-.08-.04-1.66.08-2.96.81-3.98,2.07-.12.12-.16.32-.2.49-.08.53-.37.97-.81,1.3-.45.32-.49.53-.32,1.14.41-.12.81-.32,1.22-.37.49-.08.97-.08,1.5-.08,0,0-.04-.12-.08-.2.57-.2,1.06,0,1.54.2v-.53c.53.28.97.53,1.42.81.45-.85-.24-1.38-.49-2.11h.77c-.2-.49-.28-.93-.16-1.5.28.12.49.24.73.32v-.73c-.61-.24-1.14.2-1.75.2.16-.16.32-.32.49-.53.08,0,.12.12.2.08.37-.04.73-.12,1.14-.2.3-.51.7-.61,1.22-.28.16-.32.28-.65.45-.93.04-.12.12-.2.24-.28.57-.57.77-.53,1.1.2.45-.81.77-1.66,1.87-1.83l.24,1.02c.28-.28.53-.57.81-.77.28-.24.61-.49.97-.69.41-.24.45-.2.57.16.65-.16,1.3-.37,1.95-.53.41-.08.53.08.49.45v.24c.85-.73,1.83-1.06,2.96-1.22-.12.37-.2.65-.32.97.93-.53,1.91-.73,2.96-1.1-.12.45-.16.77-.24,1.1.61-.12,1.14-.2,1.71-.32h.12c.24.08.57.08.69.24.08.12-.08.45-.16.65-.04.16-.16.28-.2.37,1.22-.16,2.48-.32,3.82-.49-.28.49-.53.85-.77,1.22,0,0,.04.04.08.08,1.26-.53,2.56-.57,4.02-.37-.28.32-.53.57-.73.81.04.04.08.08.16.16,1.18-.28,2.36-.81,3.57-.04-.2.24-.41.53-.61.77,1.14-.24,2.23-.2,3.37.08-.16.2-.28.37-.41.57,1.06-.37,1.99.24,3.13.16-.28.61-.53,1.1-.77,1.66h.32c.85-.08,1.62.12,2.31.61.41.28.41.45.16.85-.2.28-.32.57-.53.93.24,0,.45.04.61.08.53.12.93.41,1.14.93.16.37.32.73.49,1.1-1.1.57-2.31,1.06-3.7.69,1.18.12,2.23-.2,3.21-.85-.2-.37-.37-.89-.69-1.18-.32-.28-.89-.32-1.42-.49.16-.37.28-.81.53-1.18.2-.32.08-.49-.16-.61-.65-.37-1.34-.45-2.07-.28-.12,0-.24.04-.41.04s-.32-.08-.2-.28c.12-.37.24-.73.37-1.06.04-.16.12-.28.24-.49-.61-.08-1.18-.16-1.71-.2-.53,0-.93.57-1.58.49.24-.41.41-.77.65-1.14-.08,0-.12-.12-.2-.12-.93,0-1.87-.08-2.72.49-.12.08-.37.08-.53.12v-.12c.16-.45.41-.85.65-1.34-.81-.16-1.5-.04-2.23.28-.37.16-.73.32-1.1.45-.37.12-.49,0-.32-.41.16-.32.32-.65.53-1.02-.69,0-1.42,0-2.11.12-.41.04-.81.32-1.22.45-.16.04-.32.08-.53.12,0-.16-.12-.37-.08-.53.12-.32.28-.65.45-.97-1.22-.16-2.31.37-3.49.73,0,0,0-.08-.04-.12.2-.45.45-.93.69-1.5-.41,0-.69,0-.97.08-.41.12-.77.28-1.18.45-.12.04-.28.08-.45.12v-1.22c-.89.41-1.83.65-2.48,1.42-.08.12-.32.16-.57.24.16-.61.28-1.1.45-1.66-.73.12-1.38.49-1.91.97-.16.16-.28.37-.49.53-.08.08-.24.08-.37.12,0-.08-.08-.2-.08-.28v-1.02c-.65,0-1.18.2-1.62.69-.08.12-.16.2-.24.28-.2.16-.32.2-.41-.12,0-.16-.08-.37-.16-.69-.45.45-.81.77-1.14,1.14-.24.28-.45.73-.81.65-.24-.08-.37-.57-.53-.85,0,0,0-.04-.04-.08-.45.24-.65.65-.81,1.1-.08.28-.16.57-.28.81-.04.12-.24.24-.37.24-.08,0-.2-.16-.24-.28-.12-.24-.2-.49-.32-.77-.57.45-.65,1.02-.73,1.58-.04.41-.24.53-.57.24-.2-.16-.41-.32-.61-.53-.37.65-.12,1.26,0,1.87-.45.24-.69-.16-1.1-.24.12.32.28.69.45,1.1h-.89c.2.37.41.69.53,1.06.08.16.12.37.08.57,0,.53-.32.65-.77.37-.28-.16-.61-.32-.93-.49v.45c-.49-.2-.93-.41-1.5-.61.08.28.16.45.2.65-.57-.08-1.14-.12-1.79-.2.08.16.12.24.16.37h-1.18v.12c.12.12.2.24.28.28-.28.37-.53.69-.77,1.06.97.28.45,1.02.65,1.54.61-.2.97.2,1.3.65.32-.24.61-.49.93-.69.24-.16.37-.12.45.2.16.65.37,1.3.65,1.91.37.85,1.06,1.42,1.91,1.71.24.08.37.2.45.49.08.32.37.57.57.89.28-.32.49-.57.69-.77.24-.24.45-.24.65.04.37.45.89.65,1.42.73v-1.18c.08-.57.28-.73.89-.65.53.08,1.1.16,1.62.24h.2c-.04-.32-.12-.65-.16-1.02,1.02,0,1.79.65,2.84.49-.2-.16-.37-.28-.49-.41-.08-.08-.12-.16-.16-.28.12-.04.2-.12.32-.12.49,0,.97.08,1.46.08h.2c0-.49,0-1.06.49-1.3.37-.2.89-.24,1.34-.32-.37-1.02-1.3-1.22-2.27-1.38h1.1c.32-.49.61-.93.89-1.38-3.37.77-6.74,1.22-10.19.37.32.41.73.57,1.18.65,1.14.2,2.31.41,3.45.61.08,0,.16,0,.24.12-.73-.08-1.46-.2-2.23-.28,0,.61.24,1.1.73,1.54-.65-.32-.93-.85-.89-1.54-.37-.04-.73-.12-1.14-.16-.2.85-.16,1.62.12,2.4-.49-.73-.57-1.54-.37-2.4-.32-.12-.69-.16-1.02-.32s-.57-.41-.93-.65c.08.53.08,1.06.2,1.5.28,1.26.2,2.48-.37,3.65-.08.16-.12.32-.16.53h-.12c.04-.24.12-.53.16-.77.12-.45.2-.89.32-1.34.12-.57,0-1.14-.12-1.71-.12-.61-.28-1.22-.41-1.83-.77.32-1.1,1.14-1.62,1.79.28-.77.53-1.54,1.26-2.03-.69-.12-1.3.08-1.91.28.16-.08.37-.2.53-.28.2-.08.41-.16.61-.32-.45-.08-.85-.16-1.3-.28v-.08h.65c.41.08.81.16,1.22.28.28.08.45,0,.57-.24.45-.97,1.02-1.87,1.71-2.68.69-.77,1.54-1.38,2.48-1.87.61-.32,1.22-.69,1.79-1.02,0,0,0,.04.04.08-.12.08-.24.16-.37.28-1.02.69-2.03,1.34-3,2.07-.81.65-1.3,1.54-1.79,2.44,3.41-1.87,6.98-3.41,10.52-5.12-.12.08-.2.16-.32.24s-.2.16-.32.2c-1.79.93-3.61,1.91-5.4,2.84-1.1.57-2.27,1.06-3.37,1.62-.53.28-.93.65-1.18,1.3.32-.16.65-.24.89-.41,1.38-.81,2.88-1.18,4.47-1.22.53,0,1.06-.08,1.62-.08.53,0,.89-.32,1.3-.57,1.99-1.18,4.02-2.27,6.25-3,.69-.2,1.46-.28,2.19-.32-3.09.57-5.73,2.11-8.36,3.65v.08c.12,0,.28,0,.41-.04,1.83-.45,3.7-.45,5.56-.49,1.87-.04,3.74-.24,5.56-.69,1.02-.24,2.07-.37,3.13-.53.12,0,.28,0,.41.08-.41,0-.81,0-1.22.12-.73.12-1.46.2-2.15.41-2.44.69-4.95.85-7.51.89-1.26,0-2.52.28-3.78.41-1.3.12-2.6.24-3.94.37-1.66.12-3.13.65-4.63,1.5,1.95.41,3.82.61,5.77.45s3.94-.41,5.85-.93c.65-.16,1.38-.2,1.91.41.08.08.24.12.41.12,1.75.16,3.49.37,5.24.45.89.04,1.79-.12,2.68-.12,1.26,0,2.56,0,3.82-.04,2.03-.04,4.06-.12,6.09.12.12,0,.24,0,.45.04-1.87,0-3.7,0-5.56.08-1.83.08-3.61-.16-5.52.2,2.15.53,4.18,1.02,6.25,1.5v.12c-2.23-.45-4.43-1.02-6.7-1.34-2.23-.32-4.51-.37-6.86-.57.49.89.97,1.62,1.79,2.19.2-.37.49-.57.93-.49.32.08.53.24.69.53.16.28.37.57.61.73.73.45,1.54.81,2.31,1.22.08,0,.16.04.2.04.28-.28.53-.57.77-.81.45-.37.93-.37,1.22.04.85,1.22,2.19,1.3,3.53,1.62,0-.16,0-.32.04-.45.08-.49.37-.73.85-.65.16,0,.28,0,.41.12.61.32,1.18.16,1.71-.16.2-.12.41-.2.57-.32-.04-.12-.08-.24-.16-.45,1.3.69,2.36.04,3.45-.45-.61-.57-1.22-1.06-2.15-.97.32-.32.65-.41.97-.24.41.16.81.37,1.18.57.2.12.37.37.65.65-.93.32-1.71.73-2.56.89-.73.12-1.38.32-1.99.65-.53.28-1.1.28-1.66.16-.53-.12-.81.2-.69.73.08.24-.04.37-.37.28-.45-.12-.89-.24-1.34-.37h-.28c.08.12.12.2.24.37-.32,0-.61-.08-.85-.08s-.53-.04-.81-.08c.28.53.53,1.02.81,1.58-.61-.08-1.1-.12-1.62-.2,0,.45-.04.89-.08,1.34,0,.32-.12.41-.41.2-.2-.12-.41-.24-.61-.41-.12.45-.28.89-.37,1.34-.08.28-.2.32-.45.2-.2-.12-.41-.2-.57-.32-.28-.16-.49-.08-.53.24,0,.16,0,.28-.08.45-.16.45-.32.89-.49,1.34-.08.24-.28.53-.32.77-.24.97-.49,1.99-.73,3.05.45-.2.81-.37,1.18-.57.24-.12.41-.12.45.2s.16.65.2.97c.69-.41,1.3-.77,1.99-1.18l.41,1.75c.65-.04,1.34-.12,1.99-.16.16,0,.32.12.57.24.04-.04.16-.2.28-.32.41-.28.81-.61,1.26-.85.12-.08.32,0,.61.04.16-.12.41-.32.69-.53.53-.37.85-.2.89.45v.32c.73-.53,1.54-.49,2.4-.37-.08.24-.16.41-.24.69.32-.2.61-.37.89-.49.24-.08.49-.16.73-.2.85-.12,1.1.12.89.93,0,.08,0,.12,0,.08.57.2,1.14.41,1.66.65.53.24,1.02.45,1.58.41.08,0,.16.04.28.08-.28.32-.53.61-.77.89.97.2,1.91.32,2.84.57.57.12.61.2.32.73,0,.08-.04.12-.12.24.28,0,.53-.08.77,0,.61.12,1.18.28,1.79.45.41.12.45.41.32.77,0,.08-.04.16-.08.24.81.12,1.42.53,1.87,1.26-.32.12-.61.24-.89.37h0c.2-.12.37-.28.57-.41-.45-.61-1.02-1.02-1.87-.97.12-.28.24-.53.37-.77-1.06-.69-2.19-.69-3.37-.41v-.12c.2-.28.41-.57.65-.85-1.26-.53-2.44-.81-3.65-.65,0-.04,0-.08-.04-.12.2-.32.45-.65.69-1.02-1.1-.24-1.99-1.22-3.29-.89.08-.28.12-.45.16-.65.12-.49-.04-.69-.53-.53-.53.16-1.02.45-1.54.69-.12.04-.24.12-.37.16,0-.16-.08-.32-.08-.45,0-.16.08-.28.12-.49-.53,0-1.02,0-1.46.28-.16.08-.28.2-.45.32-.28.2-.41.12-.41-.2,0-.24-.04-.53-.08-.85-.32.24-.61.37-.85.61-.2.2-.37.45-.57.73-.08-.28-.16-.45-.28-.73-.37.32-.69.57-1.02.85-.12.12-.2.24-.32.32-.28.24-.57.32-.89-.12-.24.41-.49.77-.73,1.1-.04.08-.24.12-.32.08-.16-.08-.24-.24-.41-.41-.65.81-1.38,1.62-1.02,2.8.08.28.24.57.41.85.2.37.45.45.81.2s.73-.49,1.06-.73c.85-.65,1.66-1.34,2.52-1.99.41-.32.89-.53,1.42-.73-1.83.81-2.92,2.6-4.63,3.61.32-.08.65-.16.93-.28,1.5-.65,3.05-1.06,4.63-1.3.57-.08.97-.32,1.22-.81.32-.57.77-.93,1.26-1.18-.45.53-.93,1.1-1.5,1.71,1.3-.08,2.48-.12,3.65-.2v.08c-.93.08-1.87.08-2.8.24-.93.16-1.83.41-2.72.61.37.32,1.34.45,2.88.45-.32,0-.61.12-.93.08-.73-.08-1.42-.24-2.15-.37-.24,0-.53-.08-.77,0-1.18.37-2.36.73-3.53,1.1v.12c1.46.04,2.92.12,4.39.12s3,.12,4.47,0c1.46-.12,2.92-.45,4.34-.69v.12c-1.14.16-2.23.32-3.37.53v.12c1.5.16,2.96.65,4.51.53,1.06-.08,2.11-.12,3.13-.16.32,0,.65.08.97.16h-1.42c-1.02.04-1.99.12-2.96.12-.81,0-1.66,0-2.44-.2-1.42-.28-2.84-.32-4.3-.24-.97.04-1.95-.08-2.96-.12-1.5-.04-3-.08-4.51-.12,0,0-.08,0-.24.04.57.28,1.1.53,1.58.77,1.3.65,2.68,1.06,4.14,1.22.49.04,1.02,0,1.5.08.49.04,1.02.16,1.5.37-.81-.08-1.62-.16-2.52-.24.57.89,1.34,1.34,2.23,1.62-.49.04-1.26-.28-1.71-.69-.2-.2-.41-.41-.65-.61-.2-.16-.45-.32-.69-.37-1.06-.28-2.11-.53-3.21-.81.41.93,1.06,1.71,1.87,2.27.81.57,1.75,1.02,2.6,1.5h0c-1.06-.57-2.15-1.06-3.13-1.75-.77-.53-1.22-1.34-1.66-2.19,0-.08-.08-.16-.16-.2-.69-.32-1.38-.61-2.11-.93.2,1.14.69,2.11,1.54,2.88-1.02-.77-1.83-1.66-2.11-3.09-.32.45-.57.77-.81,1.1-.12-.28-.08-.32.77-1.38-.49-.08-.89,0-1.3.2-.45.24-.61.69-.45,1.22.08.32.24.65.41.93.04.08.24.16.37.12.49-.08.45-.08.53.45.08.41.24.81.37,1.22.12-.04.16-.08.16-.08q.41-.49.85,0c.16.2.37.45.57.65.08-.12.16-.16.24-.24.32-.32.45-.24.73.12.37.49.81.93,1.18,1.38.28-.24.49-.45.69-.61.08-.04.32,0,.32.08.16.57.65.85,1.14,1.1.24.12.49.24.77.37.16-.32.32-.61.53-.89.04-.08.24-.16.32-.16.32.08.65.2.97.28v.08c-.32-.08-.65-.2-.93-.28-.2.37-.37.73-.61,1.06-.08.12-.41.16-.49.12-.69-.45-1.58-.69-2.11-1.58-.08.32-.12.53-.16.77-.53.12-1.66-.85-2.11-1.79h-.08q-.45.45-.93,0c-.16-.2-.37-.41-.53-.61-.04.08-.12.12-.12.2-.16.37-.37.45-.57.12-.24-.32-.41-.73-.57-1.14-.04-.12-.04-.32-.08-.53-.65.32-.97,0-1.06-.65-.49.28-.93.53-1.38.73-1.1.57-2.19,1.1-3.29,1.66-.24.12-.37.28-.41.53-.08.37-.12.77-.28,1.1-.2.49-.08.89.16,1.3.12.16.2.37.24.45.65-.08,1.26-.24,1.83-.24.61,0,.65.08.53.73.89-.57,1.62,0,2.48.16-.24.32-.45.61-.69.97.93-.32,1.79-.73,2.52.2-.2.45-.41.89-.69,1.46.93-.49,1.62-.12,2.31.41.2.16.45.24.77.41-.24.32-.49.61-.77,1.02.28,0,.45,0,.57.04.69.04,1.34.24,1.83.69.32.28.32.37,0,.69l-.37.37c.93.2,1.75.61,2.27,1.5-.41.16-.77.28-1.26.49.2.08.32.08.45.12.53.16.85.49.97,1.02.08.24.2.49.24.73,0,.12,0,.32-.12.45-.24.24-.53.49-.81.77.32,0,.61.08.89.08.53.08.89.32,1.1.85.16.37.32.69.49,1.02-.41.24-.81.49-1.26.73,1.22.2,1.71,1.1,2.11,2.03.12.24,0,.37-.24.45-.28.12-.57.24-.85.45.81.32,1.1.93,1.14,1.75,0,.08,0,.12.04.2.2.57.12.69-.45.85-.2.04-.45.2-.65.28.24-.2.49-.41.73-.57.12-.97-.2-1.71-1.22-1.95.11-.43.45-.84,1.02-1.22-.08-.16-.16-.37-.28-.53-.28-.49-.65-.81-1.22-.73-.45.08-.61-.08-.53-.57,0-.16.12-.32.28-.45.24-.2.49-.37.77-.53,0-.04-.08-.12-.12-.16,0-.04-.08-.12-.08-.16-.28-.85-.81-1.34-1.79-1.22-.28,0-.32-.16-.16-.37.28-.37.57-.73.85-1.1-.04-.12-.12-.24-.2-.41q-.37-.85-1.34-.85c-.12,0-.28-.08-.32-.16s0-.28.04-.37l1.02-1.02c-.45-.53-.97-.93-1.79-.81-.12,0-.24-.04-.37-.08,0-.12.04-.24.08-.32.12-.2.28-.45.45-.69-.53-.41-1.14-.45-1.79-.41-.57,0-.73-.16-.45-.69.12-.24.32-.49.53-.77-1.02-.32-1.75-1.3-2.92-.61,0,0-.04-.08-.08-.12.16-.49.37-.97.57-1.5-.61-.37-1.22-.28-1.83.04-.24.12-.49.28-.81.08.24-.45.45-.85.65-1.3-.61-.32-1.22-.41-1.83,0-.16.12-.41.08-.69.16.04-.41.08-.69.16-.97-.69-.12-1.42.16-1.87.69-.08.08-.24.16-.37.2h-.08c.16-.57.12-1.02-.24-1.42-.65.37-1.34.77-1.79,1.42-.08.12-.2.16-.28.24-.2-.45-.32-.81-.49-1.18h-.16c-.41.57-.77,1.1-1.22,1.71-.08-.16-.16-.24-.2-.32-.16-.41-.28-.45-.57-.08-.08.08-.16.2-.2.28-.16.28-.28.53-.41.81-.12.2-.24.24-.45.08-.12-.12-.28-.2-.49-.37-.24,1.22-.45,2.36.2,3.49.08-.32.16-.61.24-.89.08-.28.16-.57.28-.85.08-.24.24-.49.37-.73h.04c-.16.81-.37,1.62-.53,2.48h.12c.32-.37.65-.73.97-1.06,1.14-1.14,2.44-2.11,4.1-2.4.53-.08,1.1-.08,1.62.16-2.88.24-4.83,1.83-6.29,4.18.65,0,1.3.04,1.83-.16.77-.28,1.46-.73,2.15-1.18,1.34-.77,2.76-1.38,4.3-1.34,1.75.04,3.49.24,5.28.37l.04.08c-.12,0-.2.08-.32.08h-2.15c-1.26,0-2.56-.12-3.82-.04-1.79.12-3.21,1.22-4.79,2.03.12,0,.16.04.2.08,1.46.12,2.92.41,4.3.85h.37c.53-.2,1.06-.41,1.54-.65,1.1-.49,2.23-.65,3.37-.65-1.71.08-3.21.73-4.71,1.5.16.04.28.12.41.16,2.36.89,4.63,1.83,6.74,3.25,1.34.89,2.48,1.99,3.41,3.29.08.12.12.24.16.37h-.08c-.08-.04-.2-.16-.28-.24-1.38-1.58-3-2.96-4.87-3.98-1.3-.65-2.6-1.22-3.94-1.79-2.36-.97-4.79-1.66-7.35-1.71-.49,0-.97.08-1.46.08v.12c.24.12.45.2.65.32.89.45,1.87.85,2.68,1.42,1.99,1.38,3.9,2.8,5.81,4.26.85.65,1.75,1.06,2.8,1.02,2.44-.08,4.34.89,6.01,2.6.85.85,1.62,1.75,2.44,2.64.08.08.12.16.16.24-.16-.04-.32-.16-.45-.28-.73-.69-1.42-1.38-2.15-2.11-.85-.85-1.71-1.66-2.8-2.23-1.46-.77-3.09-.65-4.67-.77.08.08.16.16.24.2,2.76,2.19,5.36,4.55,7.39,7.47.57.81,1.3,1.42,2.23,1.83.28.12.57.28.85.41-.16.08-.32.04-.49,0-1.06-.2-1.79-.85-2.48-1.58-.53-.61-1.02-1.3-1.54-1.91-.81-.93-1.66-1.87-2.52-2.84-.73,1.5-.32,2.8.28,4.14-.32-.41-.61-.77-.81-1.22-.49-1.1-.85-2.19.08-3.29-1.83-1.54-3.7-3.09-5.56-4.67-.32,1.34-.32,2.6.24,3.74.37.77.81,1.46,1.22,2.19.04.08.08.2.12.32h-.12c-1.62-1.87-2.64-3.94-1.75-6.5-2.68-2.03-5.4-3.94-8.57-5.12,0,.81,0,1.58.37,2.31,1.26,2.8,3.05,5.28,5.32,7.35,1.3,1.18,2.76,2.27,3.25,4.18.2-.12.41-.24.61-.37.41-.24.57-.2.85.16.32.49.65.93.93,1.42.32-.2.65-.45.97-.61.41-.24.53-.16.73.24.24.65.73,1.1,1.14,1.54.28-.32.53-.65.81-.93.08-.08.37-.08.49,0,.69.57,1.38,1.14,2.11,1.75.12-.24.2-.49.32-.69.12-.28.28-.32.53-.08.89.89,2.52,1.26,3.7.85-.32.37-.77.45-1.18.41-.57,0-1.18-.08-1.71-.2-.41-.12-.77-.41-1.22-.65-.04.12-.12.37-.2.57-.04.12-.16.24-.28.28,0,0-.16-.12-.24-.2-.28-.24-.53-.49-.85-.69-.49-.32-.97-.61-1.54-.93-.08.28-.16.57-.24.85-.12.49-.41.57-.73.2-.45-.49-.85-.97-1.26-1.46-.12-.16-.2-.41-.32-.65-.24.2-.45.41-.65.65-.32.41-.53.41-.81,0-.32-.49-.69-.97-1.02-1.46-.2.08-.37.16-.53.24-.57.28-.93.2-1.34-.32-.2-.28-.45-.37-.77-.37-.73,0-.85-.12-1.06-.85,0-.04,0-.12-.16-.16-.08.41-.2.77-.28,1.18-.08.45-.37.61-.69.28-.32-.28-.61-.65-.89-.97,0,0-.04-.08-.12-.12-.2.24-.37.49-.53.73-.12.2-.28.2-.49.12-.65-.24-1.1-.69-1.38-1.3,0-.08-.08-.12-.12-.2-.2.16-.37.28-.57.45-.45.32-.85.28-1.1-.16-.28-.49-.53-1.06-.77-1.62-.2.12-.45.28-.73.49-.24-.28-.45-.57-.65-.85h-.08c.24.73.49,1.46.69,2.19.61,1.91,1.26,3.86,1.87,5.77.12.37.2.73.37,1.1.12.24.32.41.53.69,0,0-.04.16-.08.24.32.12.65.2,1.06.32-.08.12-.12.2-.16.24-.24.2-.2.37,0,.53.2.16.41.32.61.53-.08.12-.16.2-.2.28,0,.12,0,.32.04.45.12.2.32.41.53.65-.2.08-.32.12-.53.16.2.24.37.45.57.69q-.57.45-.16,1.06c.49.77.69,1.66,1.02,2.48.65,1.71,1.26,3.41,1.79,5.12.49,1.58.89,3.21,1.3,4.83-.28.16-.45.08-.57-.12-.16-.2-.28-.45-.49-.61-.85-.81-1.34-1.79-1.62-2.88-.45-1.71-.97-3.37-1.5-5.04-.16-.61-.24-.61-.89-.57.08.32.24.65.28,1.02.04.32,0,.69,0,1.02-.32.12-.69.2-.97.28.04.61.12,1.22.16,1.87-.24,0-.49.04-.77.08-.24,0-.32.12-.28.41.04.69,0,1.34-.04,2.03,0,.08-.32.16-.57.28v2.31c-.2-.08-.45-.16-.69-.28,0,.49.08.93.12,1.46-.12,0-.24-.04-.37-.08-.41-.16-.49-.12-.65.28-.08.2-.24.41-.37.61-.12-.2-.24-.41-.32-.61-.08-.28-.12-.57-.2-.89-.12.08-.16.16-.24.16s-.24,0-.28-.08c-.28-.45-.53-.93-.77-1.42-.12-.24-.12-.49-.2-.77h-.2c-.45.2-.61,0-.77-.41-.24-.53-.41-1.02-.16-1.62-.41,0-.81.08-1.26.12.28-.45.16-.73-.04-1.02-.32-.41-.41-.89-.28-1.46-.41.16-.73.32-1.14.53,0-.77-.61-1.34-.12-2.07,0,0-.04,0-.08-.04-.16.08-.32.2-.53.28-.08,0-.2.08-.28.04,0,0-.04-.16-.08-.24-.04-.28-.12-.53-.16-.81,0-.32,0-.65.04-1.02-.04,0-.16,0-.28.08-.37.12-.57,0-.49-.41.08-.37.28-.69.41-1.02,0-.04.08-.08.16-.2-.32,0-.57,0-.89.04.04-.73.45-1.26,1.02-1.75-.32,0-.61-.04-.85-.08.08-.53.37-.89.97-1.26-.12-.12-.24-.2-.41-.32.32-.41.65-.77,1.02-1.18-.16,0-.32-.08-.53-.12.37-.49.77-.81,1.34-1.06-.16-.16-.28-.32-.53-.57.49-.12.89-.2,1.26-.28,0-.43.28-.68.85-.73l-.16-.65c.49.08.93.16,1.38.2v-.32c.45.04.85.12,1.26.16.08,0,.16.12.24.2-.16.28-.32.28-.57.04-.12-.12-.28-.2-.45-.32v.61c-.45-.16-.89-.32-1.38-.49l.16.69c-.28,0-.57.08-.93.12.08.24.12.45.2.69-.41,0-.77.04-1.22.08.16.24.28.37.37.49-.45.32-.89.61-1.38.93.32.12.53.2.69.24-.37.41-.69.77-1.06,1.18.2.16.37.32.57.49-.49.24-1.02.37-1.1.89.28.12.61.24.97.41-.49.49-1.14.73-1.18,1.42.32.08.69-.12.89.28-.53.53-.69.89-.61,1.26h1.02s.08.04.12.08c-.49.53-.57,1.1-.2,1.62h1.02c-.41.97-.41,1.02,0,1.91.12-.04.24-.12.37-.16.12-.04.24-.08.37-.12.37-.08.49,0,.45.37,0,.16-.08.32-.08.45,0,.2,0,.41.12.57.16.32.37.65.53.97.54-.03.91.03,1.1.16-.28.53-.32,1.1,0,1.66.04.12.2.16.37.2.28.04.57.08.89.12-.53.97.41,1.42.49,2.15.28-.2.49-.37.69-.49.08.53.12.97.2,1.42h.12c.16-.37.28-.85.85-.61v-.89q0-.65.61-.41h.12v-2.03h.57c0-.81,0-1.58.04-2.44.28-.08.65-.2,1.06-.32-.12-.53.16-1.14-.41-1.66.45-.16.81-.28,1.22-.41.12-.61,0-1.22-.32-1.79-.16-.24-.04-.37.24-.37s.53,0,.93.08c-.24-.57-.45-1.1-.69-1.66.16,0,.37-.08.57-.12.32-.08.41-.32.24-.61-.2-.37-.45-.69-.69-1.1.12-.16.45-.41.45-.65s-.32-.49-.53-.77l.61-.12c-.28-.24-.49-.45-.69-.65.41-.65.37-.69-.53-1.22.08-.16.16-.37.28-.61-.32,0-.61,0-.85-.04,0-.28.04-.61-.08-.69-.16-.12-.45-.04-.73-.04.04-.24.08-.53.12-.77,0-.08,0-.16-.04-.24-.69-2.03-1.34-4.06-2.03-6.09-.49-1.42-.93-2.8-1.42-4.22q-.65,0-.81-.61c-.08-.32-.16-.69-.24-1.06h-.08c0,.2,0,.41.08.61.32.93.65,1.87.97,2.84.57,1.71,1.18,3.45,1.71,5.16.32,1.02.65,2.07.93,3.13.08.24.16.41.49.37.16,0,.28.04.45.08-.24.04-.49.04-.69.12-.41.16-.65.12-.73-.32,0,0-.04,0-.16-.04-.24.65-.45,1.3-.69,1.95,1.3.16,2.44.65,2.8,1.22-1.5-.81-2.19-1.02-2.68-.89,1.5,1.5,2.8,6.01,2.03,6.7-.2-1.06-.41-2.19-.69-3.29-.28-1.14-.85-2.11-1.66-3.05-.04.16-.08.24-.08.32-.2,1.5-.37,3-.57,4.51-.16,1.1.24,1.91.93,2.76.53.65.93,1.42,1.34,2.15.08.16.08.37.12.57h-.08c-.53-1.26-1.3-2.27-2.31-3.17.12,1.58.24,3.17.45,4.71.24,1.54.61,3.09.89,4.59h-.2c-.89-2.72-1.42-5.52-1.66-8.36-.28-2.84-.08-5.68.37-8.57-.08.04-.16.08-.2.16-.97,1.18-1.91,2.4-2.31,3.94-.32,1.18-.37,2.4-.37,3.61v1.75h-.12c-.49-1.3-.16-2.68-.12-4.02,0-1.38.32-2.72,1.22-3.98-1.5.45-2.48,1.38-3.41,2.48,0-.12.04-.24.12-.37.73-1.3,1.83-2.07,3.25-2.44.2-.04.41-.2.57-.37.41-.41.77-.85,1.18-1.22.37-.28.49-.49.2-.89-.16-.24-.41-.49-.61-.69.37.24.77.53,1.14.77.08-.16.16-.49.37-.69.16-.2.45-.37.69-.57-.24-.69-.49-1.46-.73-2.19-.77-2.31-1.54-4.67-2.31-6.98-.16-.53-.37-1.06-.53-1.62,0-.08-.04-.16-.12-.2-.61-.45-.73-1.06-.69-1.75v-.93c-.37.04-.65.12-.93.16-.16-.57-.08-1.1.2-1.62.04-.12.12-.28.08-.41-.24-.77-.49-1.5-.73-2.31-.45,0-.81.16-1.14.49-.24.24-.45.53-.69.77-.08.08-.24.12-.37.2-.04-.12-.12-.24-.12-.37,0-.81.57-1.58,1.54-1.99-2.4-1.75-4.79-3.45-7.15-5.16-.12.24-.24.57-.37.89-.04.12-.2.2-.28.28-.08-.12-.16-.2-.24-.32v-.12c-.16-.08-.28-.16-.41-.2h-.2c-.45,0-.89.04-1.34.12-.37.08-.77.12-1.1.32-1.06.61-1.91,1.38-2.4,2.52-.16.41-.45.57-.85.69-.16.04-.41.28-.45.45-.12.69-.57.97-1.18,1.14-.28.08-.57.24-.85.37-.08,0-.24.08-.28.04-.08-.08-.08-.2-.08-.28,0-.24.08-.53.12-.77-.81.24-1.62.49-2.48.73-.16-.57.16-1.02.41-1.5h-.81c-.08,0-.16.08-.2.16-.2.61-.69.97-1.18,1.34-.49.37-.97.69-1.46,1.1-.73.57-1.18,1.34-1.34,2.23h-.12c-.12-.2-.24-.41-.41-.69-.08.16-.12.32-.2.45-.28.77-.77,1.46-1.42,2.03-.69.57-1.18,1.3-1.42,2.19-.08.28-.2.57-.32.93-.37-.32-.69-.61-.93-.85-.24.57-.49,1.18-.77,1.75-.16.28-.37.57-.61.77-1.02.81-1.62,1.87-1.99,3.17-.32-.37-.61-.69-.93-1.06-.32,1.79-1.83,2.8-2.48,4.51-.24-.41-.41-.73-.61-1.1,0,.04-.08.08-.08.12-.24,1.34-.93,2.36-2.03,3.13-.28.2-.57.45-.85.69-.69.49-1.18,1.14-1.5,1.91-.04.12-.12.24-.24.41-.24-.37-.12-.69,0-.97.32-.85.65-1.71,1.02-2.52.49-1.1.97-2.19,1.46-3.25.04-.12.08-.28.16-.45-.28.12-.53.24-.85.41.28-1.14.49-2.19.81-3.21.16-.49.57-.89.93-1.38-.24-.04-.57-.12-.89-.2.57-1.62.61-3.49,2.11-4.87-.37,0-.73-.08-1.1-.08-.41,0-.49,0-.41-.45.16-.93.57-1.75,1.18-2.48.2-.24.41-.49.65-.81-.37.08-.61.12-.93.16.32-1.22,1.02-2.03,2.07-2.6l-.2-.41c-.49.2-.69.57-.93.93-.04.08-.12.24-.2.24-1.02.37-1.62,1.18-2.07,2.07-.04.08-.08.2-.12.28-.93,0-1.42.61-1.87,1.26-.08.12-.16.32-.2.45-.16.53-.32.97-.97,1.14-.49.12-.65.65-.73,1.14-.08.28-.12.57-.16.85,0,.28-.12.41-.41.32h-.32c-.28.85-.57,1.66-.85,2.48-.08.2-.16.41-.45.32-.08,0-.28.08-.28.16-.24.89-.85,1.54-1.38,2.27-.32.41-.61.81-.89,1.22-.08.08-.16.16-.24.24,0-.41,0-.77-.04-1.14,0-.81.12-1.58.57-2.19-.08-.16-.2-.32-.2-.45,0-.61.12-1.18.16-1.79h-.41c.32-.93.65-1.79.97-2.68h.77c-.73.77-1.14,1.66-1.5,2.56h1.02c-.61.65-.85,1.3-.89,2.07h.65s.04.04.08.08c-.81.81-.93,1.83-1.1,2.92,1.06-1.06,1.79-2.23,2.23-3.57.53.16.69-.12.81-.57.2-.69.49-1.38.77-2.15.16,0,.41,0,.69-.04.08-.32.16-.73.24-1.1.2-.69.53-1.26,1.34-1.38.08,0,.2-.16.24-.24.24-.89.69-1.62,1.42-2.19.16-.16.45-.24.69-.24s.32-.08.41-.24c.32-.69.69-1.42,1.38-1.79.53-.28.89-.65,1.22-1.1.12-.16.32-.28.53-.49-.24-.28.04-.37.24-.49.16.28.28.57.45.85.2.32.16.57-.24.73-.77.28-1.26.81-1.58,1.58.57,0,1.1-.04,1.66-.08.08,0,.16,0,.24.04,0,.08-.04.2-.12.2-1.18.24-1.54,1.38-2.23,2.15-.2.24-.37.53-.53.81-.08.16-.12.32-.16.49.81.12,1.54.24,2.31.41-1.62,1.18-2.31,2.88-2.88,4.63.49.12.97.24,1.42.32-.53.65-1.18,1.22-1.54,1.95-.37.69-.49,1.54-.77,2.4l1.06-.24s.04.04.08.08c-.45.85-.89,1.66-1.38,2.52-.45.85-.85,1.71-1.1,2.68.97-.93,1.95-1.83,2.84-2.72.53-.53.85-1.18.85-1.99.53.2.53.69.77,1.02.12-.93.73-1.5,1.26-2.19.49-.61.89-1.18.89-2.03.57.08.85.45,1.18.81.16-1.14.93-1.95,1.58-2.76.73-.89,1.5-1.75,1.62-3.09.37.37.65.65,1.02.97.2-1.79,1.5-2.8,2.6-3.98.37-.41.85-.77.97-1.42.12.16.24.32.41.53.37-1.3,1.5-1.99,2.36-2.88.32-.37.65-.77.97-1.18-.53-.2-.61-.37-.37-.77.57-.93,1.26-1.75,2.31-2.11.37-.12.73-.16,1.14-.2,1.38-.16,2.07-.85,1.99-2.27,0-.37.12-.53.45-.61.28-.08.57-.16.81-.24.61-.24.89-.73.81-1.42-.12-.73-.08-.73.57-.97.24-.08.41-.28.61-.45.41-.32.73-.77,1.22-.97,1.18-.57,1.71-1.46,1.83-2.72q.08-.69.73-.41c.08-.24.12-.53.2-.77,0-.12.12-.2.2-.32.12.08.2.16.32.24.04,0,.08.08.12.12.2-.24.45-.49.65-.69.12-.12.28-.28.49,0,0,0,.24-.04.37-.08.08.08.16.16.28.32-.73,0-.65.45-.57.93.28-.12.37,0,.37.24,0,.49-.04.97-.08,1.5.12-.04.24-.12.37-.16.2-.08.32-.08.37.16.28,1.1.24,2.11-.53,3-.04.04-.12.08-.2.12.32.08.49.12.69.16-.08.2-.12.45-.24.61-.24.37-.57.69-.85,1.02-.53.69-.49,1.18.2,1.62,1.5.97,3,1.95,4.51,2.92.73.49,1.42,1.06,2.19,1.58-.32-1.1-.65-2.19-.97-3.25-.65-2.07-1.3-4.18-1.91-6.25-.49-1.79-.89-3.57-1.34-5.36,0-.12-.12-.24-.2-.28-.85-.2-1.71-.37-2.52-.57-.28-.08-.57,0-.77.24.08.12.2.24.28.37l.53.24ZM68.32,40.21c.08-.32.16-.69.24-1.02-.24-.28-.45-.57-.73-.93-.08.12-.24.24-.24.32s.16.16.28.24c.16.12.32.2.53.32-.28.12-.49.2-.69.28.2.28.41.53.61.77l-.65.16c0,.53-.24,1.06.24,1.38.12-.49.24-1.02.37-1.54h.04ZM88.7,59.21c.12,0,.24-.12.32-.08.45.16.85.37,1.3.53.65-.49.97-1.14.77-2.03.37.08.65.12,1.02.2.04-.28.12-.57.12-.85s.08-.41.37-.32c.37.12.77.24,1.18.37.53-.53.89-1.22,1.02-2.03.12-.73.16-.77.85-.53.12.04.28.08.41.16.32.2.49.08.53-.2.08-.41.12-.85.2-1.34.32.2.61.37.97.57,0-.53.08-1.02.12-1.5.45,0,.93.04,1.46.08-.28-.53-.49-.97-.77-1.54.61.08,1.1.16,1.66.24-.08-.12-.12-.16-.12-.16-.89-.2-1.62-.65-2.27-1.3-.12-.12-.49-.12-.69,0-.24.12-.41.41-.57.61.32.28.61.53.85.77,0,0,0,.04-.04.08-.28-.2-.53-.41-.81-.61-.24.24-.45.2-.69,0-.61-.57-1.5-.69-2.19-.37.04.45.08.85.12,1.3.93.37,1.79,1.38,1.75,2.15-.53-.77-.97-1.54-1.87-1.95-.32.89-.65,1.75-.97,2.6,1.14.57,1.3.81,1.14,1.79-.08-.2-.12-.32-.16-.49-.08-.53-.49-.73-.85-.97-.16-.08-.28-.08-.41.12-.77,1.26-1.91,2.31-2.23,3.82,0-.45.04-.89.24-1.26.37-.65.77-1.3,1.22-1.91.93-1.22,1.34-2.64,1.71-4.06.04-.24.04-.49.04-.69,0-.37-.24-.61-.61-.57-.2,0-.41.08-.57.2-1.26.89-2.11,2.11-3,3.33-.08.08-.04.28-.04.41.12,1.38-.12,2.64-1.14,3.61-.28.24-.53.53-.77.77-.37.37-.45.73-.24,1.22.08.16.12.32.16.49.12.37,0,.73-.12.93-.08-.45-.16-.97-.28-1.58-.28.41-.45.69-.69.93-.69.77-1.42,1.54-2.15,2.31-.08.08-.16.16-.28.24.49-.97,1.1-1.83,1.99-2.48.32-.24.57-.65.73-1.02.24-.65.61-1.22,1.14-1.66,1.14-.93,1.38-2.19,1.26-3.61-.12.16-.2.24-.28.37-1.91,2.52-4.06,4.75-6.25,6.98-.49.53-.73,1.1-.65,1.83,0,.28-.08.57-.08.89h-.08c0-.53,0-1.06-.04-1.71-.41.49-.77.89-1.14,1.34-.37.41-.73.81-1.06,1.22,2.64-3.74,6.05-6.82,8.77-10.52-2.92,1.38-5.52,3.17-7.11,6.09,0-.12.04-.24.12-.37,1.06-2.19,2.8-3.7,4.83-4.87.24-.12.45-.28.69-.41.32-.2.61-.37.93-.57.45-.24.89-.37,1.26-.77.81-1.02,1.66-2.03,2.48-3.05v-.2c-.77.41-1.5.73-2.23,1.14-1.34.73-2.64,1.54-4.02,2.27-1.1.57-2.19,1.06-3.13,1.87l-.24.12c.08-.16.16-.28.28-.37.65-.45,1.3-.89,1.99-1.3,1.62-.97,3.29-1.87,4.91-2.84.73-.45,1.42-.85,2.23-1.1.28-.08.57-.24.89-.37v-.16c-.53-.16-1.06-.37-1.62-.41-1.54-.16-3.13-.49-4.51.61.08-.16.2-.28.32-.37.57-.41,1.26-.53,1.95-.49,1.38,0,2.76,0,4.14.57v-.41c-.2-.08-.32-.12-.49-.2-.28-.2-.53-.53-.85-.65-.85-.24-1.71-.41-2.6-.61,0,.2,0,.32.08.61-.53-.2-1.02-.41-1.5-.57.12.28.2.53.32.85-.37,0-.69,0-.97.04-.57.08-.81.41-.73.97.08.49.08.53-.45.57-.37,0-.69.04-1.06.08.08.16.16.32.24.45-.08.04-.16.12-.28.12h-1.3c-.16.12-.24.2-.37.24-.49.24-.53.37-.08.69.04.04.08.08.16.16-.53.2-1.02.41-1.54.61v.12l.81.41c-.53.41-.97.73-1.5,1.14.32.16.57.28.85.45-.41.28-.73.53-1.06.81-.49.45-.45.69.16.93h0c-.28.37-.57.69-.85,1.06.37.16.65.28.97.41-.32.45-.65.81-.97,1.26.28.16.53.28.77.41-.32.45-.65.89-.97,1.38.45,0,.77,0,1.1.04-.12.57-.24,1.02-.73,1.3-.41.24-.53.61-.65,1.02.2.12.41.2.69.32-.89.77-1.02,1.71-1.02,2.8.32-.24.65-.37.93-.61.37-.32.37-.37.65.12.12.2.28.28.49.12.53-.41,1.34-.49,1.58-1.34.24.32.45.57.65.81.41-.37.89-.61.73-1.3h.12c.2.12.45.28.65.41.97-.65,1.42-1.54.89-2.8.65.16,1.18.32,1.75.45.16-.49.49-.85.93-1.1.32-.2.53-.49.61-.89,0-.2,0-.45.04-.65,0-.16,0-.32.28-.24v.53c0,.57-.16,1.06-.65,1.34-.45.28-.77.61-.93,1.14-.12.37-.2.37-.53.16s-.69-.32-1.14-.53c.32,1.46.28,1.58-.65,2.56l-.41.41c-.16.16-.32.16-.45-.04-.04-.08-.08-.16-.16-.28-.08.65-.61.81-.97,1.1-.04,0-.37-.28-.57-.45h-.04c-.49.32-.97.61-1.42.93q-.57.37-.97-.16s-.04-.04-.12-.08c-.49.28-.93.53-1.42.81l-.16-.08c0-.53,0-1.1.08-1.62.12-.53.41-1.02.65-1.5h-.45c.12-.81.24-1.06.77-1.5.24-.24.53-.45.49-.93-.32.04-.57.08-.89.16,0-.77.61-1.1.89-1.66-.2-.08-.41-.12-.53-.2-.24-.12-.37-.28-.08-.53.24-.2.45-.49.61-.77.12-.16.08-.28-.12-.32-.16,0-.37-.08-.65-.12.28-.45.53-.85.77-1.26l-.49-.24c.28-.65.69-1.14,1.34-1.5-.32-.12-.53-.2-.85-.32.49-.49.89-.89,1.42-1.38-.2-.08-.45-.2-.69-.28v-.12c.49-.2.93-.41,1.54-.69-.32-.16-.53-.32-.77-.37-.69-.08-1.38-.04-2.03-.12-.32,0-.45,0-.45.32.32.08.61.16.93.24v.08c-.32.12-.65.2-.93.32v.69c-.16,0-.32,0-.49-.08-.61-.24-1.1,0-1.58.37s-.89.77-1.02,1.42c-.32,1.75-.69,3.49-1.02,5.28-.24,1.18-.41,2.4-.61,3.61,1.62-.12,2.19,0,2.56.57-.89.16-1.91-.2-2.72.53.37.28.77.49,1.06.77.32.32.28.81.32,1.26,0,0-.08.04-.08.08-.28-.2-.57-.37-.85-.57,0,0-.04,0-.08.04,1.58,5.32,3.21,10.64,4.83,15.96.37-.16.69-.32,1.02-.45,0-.12-.04-.24-.08-.32-.12-.41-.08-.49.37-.53.24,0,.49,0,.73-.04q.12-.53.65-.45c.69.16,1.38.37,2.03.53-.08-.28-.28-.61-.28-.93,0-1.06.04-2.15.12-3.21,0-.37.2-.45.57-.28.16.04.32.12.45.2,0,0-.08-.04-.12-.08.2-.24.41-.49.57-.73.45-.57.69-.61,1.26-.32.37-.41.77-.77,1.14-1.18.2-.2.32-.2.45.08.08.2.2.37.28.57l.08-.08c.37-1.26.77-2.52,1.14-3.78,0-.08,0-.24-.08-.32-.49-.69-1.02-1.3-1.83-1.62-.2-.08-.37-.2-.57-.32.28-.16.49-.28.61-.37-.77-.61-1.54-1.22-2.31-1.83v-.12c.37-.12.73-.2,1.1-.32-.37-.49-.32-1.06-.32-1.62,0-.24.12-.37.37-.32.24.04.53.12.65.12.2-.69.37-1.3.53-1.95.08-.24.28-.24.49-.16.16.08.32.2.41.24.37-.49.73-.93,1.06-1.34.24-.32.51-.32.81,0,.24.28.49.53.73.77.24-.16.45-.32.69-.37.32-.08.41-.28.49-.57.28-1.22.61-2.48.89-3.74-.16-.04-.32-.08-.53-.16,0,.24,0,.45-.12.65-.08.28-.2.61-.61.37-.24-.12-.37,0-.41.24-.08.69-.53,1.18-.93,1.66-.08.08-.28.12-.41.08-.49-.24-.97-.49-1.5-.73l.2-.16ZM68.03,28.72h.12c.12,1.3.12,2.64.93,3.74.28-.85.53-1.71.89-2.48.2-.49.2-.81-.04-1.26-.73-1.26-.28-2.6-.04-3.94-.08,1.46-.37,2.96.57,4.47.57-.93,1.06-1.79,1.54-2.6-.53-.73-.61-1.99-.16-2.88,0,.49-.08.93-.08,1.38s0,.93.37,1.3c.41-.53.85-1.06,1.26-1.54-.04.24-.16.41-.28.57-.77.93-1.38,1.99-2.03,3-1.02,1.54-1.5,3.25-1.83,4.99-.08.32-.04.69-.08,1.1.32-.45.28-1.1.93-1.02.24-.28.41-.61.65-.85.16-.16.37-.24.57-.37.16-.08.32-.12.45-.24.89-1.06,1.79-2.15,2.72-3.21.41-.45.53-.89.45-1.46-.04-.37-.04-.77.04-1.14.32-1.1.85-2.11,1.83-2.84.45-.37.85-.77,1.3-1.14.08-.08.16-.16.24-.2-.12.24-.24.45-.45.65-.41.41-.89.77-1.3,1.22-1.1,1.1-1.62,2.4-1.3,4.02.16-.16.32-.28.45-.41,1.3-1.18,2.6-2.36,3.94-3.49.73-.61,1.5-1.14,2.23-1.75,1.54-1.34,3.21-2.44,5.12-3.17.24-.12.49-.24.81-.41-1.1,0-2.03.32-2.88.89-.2.16-.37.16-.53-.08-.08-.12-.41-.24-.53-.2-.53.24-1.02.53-1.46.89-.2.16-.32.24-.53.04-.41-.41-.85-.24-1.22,0-.2.12-.28.37-.45.53-.41-.12-.81-.2-1.22-.37-.28-.12-.45,0-.57.2-.2.32-.37.69-.57,1.06-.24-.12-.53-.2-.77-.32-.41-.24-.81-.2-1.06.16-.16.24-.24.57-.37.85-.24-.16-.61-.37-.97-.53-.08-.04-.24-.08-.32,0-.57.32-.97.77-.93,1.46v.32s-.08,0-.08.04c-.16-.2-.28-.45-.49-.65-.2-.16-.49-.28-.69-.41-.28.24-.49.49-.73.69-.28.28-.45.57-.28.97.04.16.08.28.16.49-.49-.28-.89-.57-1.34-.85-.69.49-.81.81-.65,1.54,0,.08.08.2,0,.28-.04.08-.2.16-.24.12-.32-.16-.61-.32-.93-.49-.37.65-.32,1.22.49,1.79-.53-.16-.93-.28-1.34-.41-.08.65,0,1.22.61,1.62l-.08.08c-.45-.16-.93-.32-1.38-.49-.45.69-.41,1.42,0,2.03-.53,0-1.02-.08-1.5-.08v.69c0,.32,0,.61.45.61.08,0,.16.04.2.08.08,0,.12,0,.16.04-.53,0-1.02.04-1.54.08,0,.04-.04.12-.08.16.28.28.53.57.81.81-.12.08-.28.12-.45.24-.04,0-.04.12-.08.2h.41l.2.89c.37-.12.41.12.45.37,0,.28.08.57.12.81,0,.08.08.2.12.28h.04c0-.16-.04-.32-.08-.45h.32c-.08-.45-.41-.81,0-1.26.04-.04,0-.24,0-.32,0-.12-.04-.24-.08-.41.16,0,.28.08.41.08.2-.57.24-1.06-.24-1.46-.24-.2-.41-.49-.61-.73,0,0,.04,0,.08-.04.32.37.69.73,1.02,1.1.32-.57.65-1.14.97-1.71,0,.32-.04.61-.12.85-.12.49-.37,1.02-.28,1.46s.53.81.85,1.22c.24.37.53.69.81,1.1.08-.45.12-.85.2-1.26,0-.08.04-.24,0-.28-.57-.73-.61-1.62-.81-2.44-.12-.53-.12-1.1-.16-1.62l-.04-.37ZM81.92,88.49c-.57-2.56.45-4.67,2.11-6.5-.41-.32-.77-.61-1.18-.85s-.81-.45-1.22-.65c-.04.16,0,.2,0,.24,0,.16.08.37.08.53h-.57c-.24,0-.49-.12-.81-.2.12,1.02-.81.77-1.22,1.22.24.2.49.41.77.65-.61.41-1.34.57-1.87,1.18.53.2.97.41,1.42.61-.12.12-.28.24-.41.41-.37.41-.61.89-.69,1.46-.04.32,0,.49.37.45h.57c.28,0,.37.08.24.41-.12.24-.16.49-.2.73-.08.49.04.89.37,1.18.37-.2.65-.41.97-.49.28-.08.49.16.45.41-.04.41-.04.85-.08,1.26h1.18c.24,0,.37.08.37.32,0,.2-.08.41,0,.57.04.28.08.61.24.85.16.28.41.53.61.81.12-.12.28-.24.41-.37q.61-.53.81.24c.16.61.37,1.22.85,1.71.12-.12.24-.24.32-.37.12-.12.2-.24.32-.32.37-.32.61-.24.81.16.2.53.41,1.1.97,1.46.24-.28.45-.49.65-.77.24-.28.37-.32.61,0,.24.28.53.57.81.93.16-.49.32-.89.49-1.34.12-.32.28-.41.53-.16.2.2.28.53.49.77.08.12.24.32.41.32.32,0,.65,0,1.02-.04-.12-.2-.24-.49-.45-.69-.65-.69-1.26-1.42-1.99-2.03-2.15-1.83-3.98-3.86-5.32-6.33l-.08-.08c-.41,1.18-.73,2.36-.45,3.57.12.61.28,1.22.41,1.83.04.24.04.53.08.77h-.08c-.32-.89-.61-1.79-.93-2.72-.37.45-.73.89-1.06,1.3-.04,0-.08-.08-.16-.08.16-.32.37-.61.53-.93.24-.45.57-.85.65-1.34.12-.93.37-1.79.73-2.64.04-.12.08-.32,0-.45-.37-.81-.69-1.58-.65-2.6-1.42,1.71-2.03,3.61-2.11,5.73l-.12-.12ZM69.78,70.14s-.08-.08-.08-.12c.08-.65.16-1.26.24-1.95-.49.24-.45,0-.45-.32v-.81c-.08,0-.12,0-.12.04-.12.16-.28.32-.41.49-.37.45-.41.45-.77,0-.08.37-.16.73-.24,1.1l-.65-.32c0,.16-.04.28-.04.41,0,1.3-.53,2.23-1.75,2.84-.41.2-.77.57-1.1.93-.24.28-.49.53-.89.57-.24,0-.45.16-.37.49.08.28.12.61.16.93.85.2,1.71.45,2.6.69,0,0,.04-.08.08-.12-.41-.45-.85-.89-1.26-1.3,0,0,.08-.08.12-.08.49.49.97.93,1.46,1.42.08.08.16.24.24.24.65.16,1.34.28,2.07.45-.69-1.5-1.66-2.68-2.88-3.7l.08-.08c.37.28.73.57,1.1.85,0-.45-.04-.89-.08-1.34h.16c-.04,1.34.57,2.36,1.54,3.29-.16-1.71-.28-3.33-.45-4.87.57,1.38.45,2.92.73,4.51.57-1.02.45-2.07.65-3.05.08,1.06.12,2.11-.41,3.09-.24.45-.24.85-.12,1.3.08.24,0,.41-.24.49-.77.28-1.54.61-2.31.85-1.26.41-2.56.73-3.9.73-.12,0-.28.08-.37.16-.45.28-.85.61-1.3.89-.77.45-1.54.69-2.11.69,1.18-.45,2.27-.97,3.29-1.71-.16-.04-.28-.08-.49-.16,2.27.12,5.48-.85,6.46-1.5-1.58-.49-3.17-.93-4.63-1.38-.28.24-.53.49-.81.65-.32.16-.69.2-1.06.28-.28.04-.37.2-.37.49,0,1.58-.81,2.4-2.4,2.52-1.42.12-2.36.97-3.09,2.11-.16.28-.08.41.24.37.28,0,.57-.08.81-.08.45,0,.89,0,1.34.08-.24.49-.45.85-.61,1.22l.12.12c.85-.28,1.71-.57,2.56-.85-.12.32-.2.65-.32,1.02.24-.08.45-.16.61-.2.61-.16,1.02-.49,1.18-1.14.04-.2.32-.41.57-.45.37-.08.57-.28.77-.61.24-.45.53-.93.89-1.3.93-.93,1.95-1.79,3.45-1.58.28,0,.61-.08.85-.2.28-.16.32,0,.37.2.24-.16.41-.08.49.24h.12c.12-.45.2-.93.32-1.34.12.16.2.37.37.49,1.87,1.34,3.78,2.68,5.64,4.02.57.41,1.1.77,1.71,1.18,0-.41-.12-.61-.45-.77-.28-.12-.53-.41-.77-.61-.45-.37-.85-.81-1.3-1.14-1.26-.85-2.52-1.62-3.78-2.48-.49-.32-.93-.65-1.34-1.02-.37-.32-.41-.81-.16-1.22.2-.32.45-.65.69-.97.16-.2.32-.41.49-.65-.2,0-.37-.04-.57-.08.81-1.02,1.18-2.03.73-3.33-.24.2-.49.37-.73.53l-.16-.12ZM80.25,25.55c-.12.12-.24.24-.37.37-.85.65-1.66,1.3-2.56,1.91-1.06.73-2.11,1.38-3.17,2.03-.16.08-.37.12-.49.28-.53.61-1.02,1.22-1.54,1.87.2-.12.41-.24.49.08.49-.45,1.02-.85,1.66-.93.08,0,.2.08.37.12.41-.2.85-.45,1.3-.73,0,0,.04.04.08.08-.04.2-.12.41-.2.69.69-.41,1.34-.85,2.15-1.02,0,.16-.04.28-.04.32.53-.2,1.02-.45,1.54-.65-.24,0-.49,0-.85-.04.69-.53,1.18-1.06,1.42-1.71-.65-.37-1.14.12-1.75.45.24-.49.69-.69,1.26-.65.16,0,.37-.08.45-.16.32-.28.61-.65.93-.97-.28,0-.61-.04-.89-.08.89.08,1.18-.69,1.75-1.1-.65-.2-1.18,0-1.66.37.73-.77,1.83-.97,2.56-1.75-.32-.08-.61-.12-.93-.2.53-.37,1.02-.73,1.54-1.1-.28-.08-.45-.12-.69-.2.65-.32,1.26-.61,1.91-.93-.2-.08-.37-.12-.49-.16.53-.32,1.06-.69,1.62-1.06-.41,0-.69,0-1.06-.04.41-.32.73-.57,1.06-.81-2.6,1.14-11.04,8.41-11.65,9.99,2.23-1.22,4.1-2.76,6.13-4.18l.12-.08ZM91.5,69.12s.04,0,.08.04c.24-.32.53-.61.77-.93.12-.16.32-.37.37-.57.16-.61.2-1.26.37-1.91.28-1.02.61-2.03.93-3.05h.04c-.37,1.54-.73,3.09-1.06,4.63,0,0,.08,0,.12.04,1.02-.89,2.11-1.75,3.37-2.27-1.5.93-2.92,1.91-3.98,3.37.85-.37,1.71-.77,2.56-1.14-.37.28-.77.53-1.18.73-.57.28-1.18.53-1.75.89-.32.2-.57.49-.81.73,0,0,.04.08.08.08,1.42-.65,2.88-1.3,4.34-1.95,0-.41.24-.81.65-.97s.81-.2,1.26-.28c0,.08,0,.04,0,.04-.08-.08-.12-.2-.2-.28-.41-.69-.69-1.42-.37-2.19.28-.65.77-1.18,1.22-1.75.2-.24.37-.2.45.12,0,.08.04.12.08.2.24-.32.45-.61.73-.97-.57.08-1.06.12-1.5.24-.37.08-.53.08-.57-.37,0-.37-.16-.77-.28-1.22-.45.32-.85.65-1.26.93-.37.24-.53.2-.69-.16-.12-.32-.24-.61-.32-.93-.41.2-.77.37-1.14.57-.16.08-.32.24-.37.41-.57,2.27-1.14,4.55-1.71,6.82-.08.32-.16.69-.2,1.02l-.04.08ZM90.04,63.68c.08,1.22.12,2.48.2,3.7h.16c.57-1.95,1.14-3.94,1.75-5.89,0,0-.08-.04-.12-.08-.2.12-.41.28-.61.41-.24.2-.41.2-.61-.04-.24-.28-.53-.57-.81-.89-.45.61-.97,1.1-.97,1.99-.41-.28-.73-.49-1.06-.73-.37.81-.57,1.58-.12,2.48-.53-.16-.97-.28-1.38-.41-.24.85.28,1.42.65,2.07-.49-.2-.93-.24-1.46.04.89.65,1.46,1.62,2.68,1.75-.28.16-.61.32-1.02.53.93.41,1.71.85,2.23,1.62.28-.61.32-1.14,0-1.62-.12-.16-.2-.37-.28-.57-.32-.81-.61-1.66-.93-2.48h.08c.49,1.1.97,2.19,1.42,3.25h.12c.04-.28.16-.57.12-.81-.32-1.46-.16-2.92-.08-4.39l.04.08ZM64.95,40.05v.12c.65.37,1.02.89,1.34,1.54-.53-.49-1.02-.93-1.54-1.46-.32.53-.53.97-.32,1.5h-.16c0-.41-.08-.77-.12-1.18-.28.28-.61.57-.93.85,0,0-.04-.04-.08-.08.24-.32.49-.65.77-1.02-1.14.2-2.27,1.14-2.31,1.75.28,0,.53-.04.81-.08-.08.24-.12.45-.16.61v.12c.49-.37.81-.28.89.32.16-.24.24-.41.41-.57.37-.37.61-.37.97,0,.08.08.16.12.28.24v-.37c0-.32.12-.61.45-.73.32-.16.49.16.69.32.24.24.57.41.85.61-.08-.73-.16-1.38-.24-2.03.45-.16.89-.28,1.42-.49-.24-.2-.49-.41-.73-.61.24-.12.45-.2.65-.32v-.12c-.37,0-.69-.04-1.1-.08.16-.2.28-.41.45-.57-.89-.16-2.27.65-2.56,1.42.49-.2.97-.45,1.46-.65v.08c-.41.24-.81.45-1.18.69l.04.04c.41,0,.81-.04,1.22-.08v.04c-.45.08-.89.16-1.34.2l.08-.04ZM93.41,57.26c-1.1,5.81-3.13,11.41-4.43,17.18.24-.16.57-.37.85-.53.08-.04.12-.16.12-.24.24-.81.57-1.58.69-2.44.32-2.19.89-4.3,1.54-6.37.53-1.87.97-3.74,1.46-5.6.16-.57.28-1.1.45-1.62-.24-.12-.49-.24-.65-.37h-.04ZM59.06,43.87c-.24.28-.57.61-.85.93-.2.2-.32.2-.45,0-.08-.12-.16-.2-.24-.32-.16-.24-.37-.28-.61-.12-.12.08-.24.16-.32.24,0,.24.04.45.08.69-.2.04-.37.08-.53.16.08.24.2.49.28.73l-.45.08c.41.32.73.61.97.85,1.83-.77,3.65-1.54,5.44-2.27-.32-.28-.65-.57-1.02-.85-.24.24-.49.49-.73.65-.12.08-.37.12-.49.04-.41-.24-.73-.49-1.14-.77l.04-.04ZM57.8,47.11c2.31,0,4.59.24,6.94.08-.61-.69-1.18-1.3-1.75-1.91-.12-.12-.37-.2-.49-.16-1.14.41-2.23.81-3.37,1.26-.45.2-.89.49-1.3.73h-.04ZM85.98,46.63c.49.77,1.38.77,2.11,1.14,0-.2-.04-.37-.08-.57.89.2,1.71.37,2.44.53-.24-.41-.53-.85-.81-1.3-.24-.37-.45-.77-.73-1.1-.16-.2-.49-.37-.73-.32-.89.08-1.91.65-2.19,1.62ZM63.97,44.68v.12c.73.69,1.42,1.38,2.15,2.07.04.04.12.12.2.12.41,0,.85,0,1.3-.08-.12-.81-.28-1.62-.41-2.44-.04-.28-.16-.37-.49-.41-.97-.04-1.87.28-2.76.61ZM68.15,50.04q0-.69-.32-1.06c-1.26-1.3-2.56-2.6-3.86-3.9-.65-.65-1.3-1.22-1.99-1.87-.12.2-.24.32-.28.45,2.15,2.15,4.3,4.22,6.5,6.37h-.04ZM90.61,118.66c-.85-3.37-1.95-6.62-3.25-9.87-.16.08-.28.12-.28.12.16.61.32,1.18.45,1.75,0,.12.04.24.08.32.61,1.87,1.22,3.74,1.83,5.6.24.77.53,1.46,1.14,2.03l.04.04ZM62.75,42.89l-.61.12c.49.45.93.85,1.34,1.26.16.16.32.2.57.12.73-.16,1.46-.32,2.19-.45.24-.04.53,0,.81,0,0-.04.04-.08.08-.12-.28-.2-.57-.41-.89-.61s-.65-.41-.93-.61c-.04.12-.12.28-.12.28-.41-.12-.81-.24-1.34-.37-.12.24-.24.53-.45.93-.2-.16-.37-.37-.61-.57h-.04ZM67.22,30.83c-.53.57-.57,1.3-.73,1.95h-.32l.2.85c-.32-.08-.32.08-.24.28.08.24.2.49.28.73h-.49c.16.32.28.57.41.85-.12.16-.2.32-.16.49.04.32.16.61.24.89v.2c-.12.37.41.97.77.93-.28-2.4-.93-4.83.04-7.23v.04ZM67.58,36.43c.24-.53.41-.97.65-1.34.37-.49.24-.81-.08-1.22-.37-.53-.69-1.06-1.1-1.66-.37,1.5.08,2.8.49,4.22h.04ZM95.68,68.19c-.08,0-.16.08-.24.08-1.22.57-2.44,1.18-3.7,1.71-.45.16-.65.41-.61.93,1.46-.73,2.92-1.42,4.39-2.11.32-.16.37-.32.16-.65v.04ZM69.78,49.75c.57-.65,1.1-1.22,1.62-1.83.04-.04,0-.16.08-.37-.2.16-.32.28-.45.37-.2.16-.37.32-.57.53-.16-.2-.37-.41-.53-.61-.16-.2-.32-.37-.65-.2.16.69.32,1.34.49,2.07v.04ZM66.45,47.11c.53.57,1.02,1.1,1.54,1.66-.12-.65-.2-1.18-.28-1.75-.45,0-.81,0-1.26.04v.04ZM92.88,49.35c.61.53,1.3.12,1.95.2-.24-.16-.49-.28-.73-.45-.65-.32-.69-.32-1.22.24ZM75.62,83.66c.49-.49.97-.85,1.71-.89-.04-.45-.45-.41-.69-.45-.41-.04-.85.61-1.02,1.3v.04ZM93.25,48.7c-.32-.37-.65-.69-.93-1.02,0,0-.04.04-.08.08.16.45.32.89.53,1.34.16-.12.32-.24.49-.41ZM67.67,38.22s.04,0,.08-.04c-.2-.93-.45-1.87-.65-2.8.04.81.2,1.62.37,2.44,0,.16.16.28.24.41h-.04ZM81.47,50.28c.08.28.16.49.24.73.2-.08.41-.16.61-.24-.16-.41-.53-.32-.85-.49Z" fill="#010101"/><path d="M60.88,33.06c-.16-.04-.32-.08-.49-.16-.89-.61-1.62-.41-2.03.61-.04.12-.08.24-.12.32-.24-.41-.53-.85-.85-1.38-.41.45-.73.81-1.06,1.14-.2-.45-.45-.97-1.1-1.02-.65,0-.93.41-1.06,1.06-.28-.81-1.02-1.1-1.79-1.46-.28.45-.57.89-.89,1.38-.2-.24-.45-.61-.81-.81-.37-.24-.81-.32-1.22-.45-.2.69-.81,1.18-.49,1.95h-.12c-.08-.08-.24-.12-.24-.24-.12-.45-.49-.61-.85-.73-.57-.16-1.18-.24-1.79-.32-.12,0-.28.12-.32.24-.12.37-.16.77-.28,1.22-.04-.04-.2-.12-.24-.2-.32-.61-.81-.85-1.46-.89h-.41c-.81,0-.97.16-1.06.97v.93c-.12-.12-.24-.2-.28-.32-.12-.41-.45-.49-.81-.49h-.77c-.24.04-.61.08-.69.24-.2.37-.24.85.08,1.22,0,0,.08.08.08.16-.37-.16-.77-.37-1.14-.45-.41-.08-.85,0-1.3,0s-.85.08-1.38.12c.41.28.77.57,1.14.81-1.5-.45-2.64.49-4.02.89.32.16.57.28.81.45-1.3.57-2.52,1.14-3.74,1.71h0c1.79-.37,3.57-.81,5.4-1.22-.2-.2-.41-.41-.65-.61v-.12c.93.04,1.87.12,2.8.16-.12-.2-.24-.41-.45-.73,1.22.08,2.23.37,3.05,1.26.12.16.37.24.57.28.61.24,1.26.45,1.87.69.49.2.93.45,1.54.69-.41-.12-.69-.16-.97-.28-.49-.2-.93-.41-1.42-.61-1.1-.45-2.15-.53-3.21,0-.16.08-.32.12-.45.2l-.04.04c.37,1.02,1.26,1.38,2.07,1.71-.37.53-.73,1.02-1.06,1.5-.2-.04-.41-.12-.61-.16.37-.45.69-.85,1.06-1.3-1.18-.24-1.5-1.22-1.99-2.15-.93,0-1.91.04-2.88.08,1.75-.32,3.57,0,5.28-.61-.45-.61-1.46-1.1-2.27-1.14.12.24.24.49.37.69-.93-.08-1.87-.16-2.76-.24v.08c.24.2.49.37.81.65-1.38-.04-2.6.28-3.82.61-1.1.32-2.19.61-3.29.93-.12,0-.28,0-.45.04,0-.04,0-.12-.04-.16,1.5-.77,3.05-1.54,4.55-2.31-.2-.12-.45-.24-.73-.41,1.22-.41,2.4-.81,3.57-1.22-.2-.16-.45-.41-.73-.69.16,0,.24-.08.28-.08h1.87c.53,0,1.06.08,1.62.12.04-.24.08-.57.16-.89,0-.12.16-.28.24-.28.73-.12,1.5-.32,2.23.12.12-.32.24-.65.41-.93.08-.16.28-.32.45-.32.85,0,1.71,0,2.44.57.12-.32.24-.61.37-.89.04-.08.2-.2.28-.2.77.16,1.54.32,2.31.49.2.04.37.2.61.28.2-.45.41-.89.65-1.42.73.2,1.58.2,2.19.93.28-.28.53-.57.81-.85.08-.08.28-.16.37-.12.53.28,1.02.57,1.54.89.85-.77,1.26-.73,2.31.08h.08c1.14-.89.73-.85,1.79.2.41-.24.45-.89,1.06-.73-.2-.12-.37-.28-.61-.45.08-.08.16-.16.28-.24-.2-.08-.37-.2-.53-.28,0,0,0-.04.04-.08.32.16.61.32.93.49-.08.12-.16.2-.2.24l.08-.12c.24.2.53.45.81.65s.69.24.81.61l-.12.08Z" fill="#010101"/><path d="M35.63,75.78c.2.08.41.12.69.2-.97.32-1.91.61-2.52,1.46.32,0,.61,0,.93-.04v.12c-1.06.32-1.91.93-2.64,1.79.45,0,.85.08,1.26.12-.37.28-.81.57-1.18.93-.37.37-.65.81-.97,1.22,0,.04.04.08.08.16.49-.04,1.02-.08,1.5-.12-.41.89-1.5,1.3-1.83,2.36.28,0,.57.08.85.12,0,0,.04.08.08.12-.49.53-.97,1.06-1.5,1.66.12,0,.2,0,.32.04-.2.12-.37.2-.53.28l-.08-.08c.28-.77.65-1.42,1.46-1.87h-.32c-.41,0-.57-.16-.37-.53.28-.53.65-1.06.97-1.54.08-.12.16-.2.28-.28-.41,0-.77-.04-1.18-.08.28-.97.73-1.75,1.62-2.23-.32-.04-.57-.12-.93-.16.77-.65,1.42-1.22,2.07-1.79,0,0-.12-.08-.24-.12.65-.65,1.3-1.26,2.23-1.54,0,0,0-.08-.04-.12l-.04-.08Z" fill="#010101"/><path d="M118.34,68.27c-.2.08-.45.2-.69.28.08.16.12.32.2.49.16.24.08.37-.2.37h-2.84c0,.2.08.45.12.69-.53.2-1.06.24-1.58.12-.49-.12-.97-.32-1.58-.53.12.32.2.57.28.81-.37.16-.73.08-1.1-.04-.53-.2-1.06-.41-1.58-.61-.12-.04-.28-.08-.53-.12.41.49.73.89,1.14,1.38-.97.24-1.71.85-2.76.85.24.37.49.65.77,1.02l-1.06.24h0c.12,0,.2,0,.32-.08.2-.08.28-.2.12-.41-.2-.28-.37-.57-.53-.93,1.02.2,1.83-.24,2.68-.69-.37-.45-.73-.89-1.14-1.42,1.26-.2,2.23.53,3.37.81-.08-.24-.12-.41-.16-.57-.08-.24.04-.37.28-.32.28,0,.57.12.85.2.45.12.89.24,1.34.32h.49c-.04-.41-.08-.73-.12-1.06,1.1.08,2.11.12,3.21.2-.12-.28-.2-.53-.32-.81.41-.04.73-.12,1.06-.16h0l-.04-.04Z" fill="#010101"/><path d="M43.99,54.71c-.45.16-.85.32-1.3.49,0,0-.16-.12-.16-.16,0-.32.04-.65.16-.93.24-.73,1.1-1.83,1.71-2.27-.2-.08-.41-.16-.57-.24.32-.57.61-1.1.97-1.58.32-.41.73-.73,1.14-1.06.08-.08.37.08.53.2-1.1.49-1.58,1.54-2.23,2.4.24.12.53.28.85.45-1.1.85-1.91,1.79-2.36,3.13.49-.12.89-.24,1.3-.37h0l-.04-.04Z" fill="#010101"/><path d="M107.22,99.13c-.2-.24-.41-.53-.57-.77-.12-.24-.28-.32-.57-.32-.69.04-.89-.24-.77-.89,0-.08,0-.12.04-.2.16-.53.24-1.02-.41-1.26.16-.16.28-.32.37-.45.73.24.85.49.69,1.3,0,.12-.04.2-.08.32q-.12.61.49.77c.2.04.37.28.49.49.16.2.32.45.49.69,0,0,.08-.04.08-.08-.12.16-.24.28-.37.45l.12-.04Z" fill="#010101"/><path d="M48.62,44.43c-1.1.41-1.87,1.18-2.56,2.03.12.08.2.12.28.2,0,0,0,.04-.04.08-.2-.12-.37-.2-.61-.32.45-.97,1.18-1.62,2.07-2.15.37-.24.61-.24.85.2v-.04Z" fill="#010101"/><path d="M41.39,69.49c-.04-.08-.16-.28-.32-.53.73-.08,1.42-.16,2.07-.16.12,0,.28.2.41.28-.73.04-1.46.08-2.15.12,0,0,0,.08-.04.12.2.24.41.45.61.69-.08,0-.16.04-.2,0-.81-.24-1.54,0-2.23.32-.45.2-.53.24-.77-.04.89-.28,1.75-.57,2.6-.85l.04.04Z" fill="#010101"/><path d="M31.45,85.44c.49.24.57.41.28.81-.28.41-.65.81-.97,1.22s-.73.73-.73,1.3c0,.04-.08.08-.2.2,0-.2,0-.28.04-.37.2-.85.73-1.54,1.26-2.23.2-.24.45-.49.28-.89l.04-.04Z" fill="#010101"/><path d="M45.5,48.78c-.12-.04-.2-.08-.32-.12.2-.77.45-1.46,1.3-1.71.12,0,.28,0,.32.08.04.08,0,.24-.08.32-.08.08-.24.16-.37.2-.53.2-.73.61-.85,1.18v.04Z" fill="#010101"/><path d="M39.24,70.83c.24.2.53.37.85.61-.37.04-.73,0-1.06.16-.37.12-.65.37-.97.57-.28.24-.53.53-.89.89v-.37c.61-.65,1.26-1.3,2.19-1.5-.08-.12-.12-.24-.16-.32l.04-.04Z" fill="#010101"/><path d="M57.76,38.3c1.5.53,3,1.02,4.22,2.07v.16c-.12,0-.28,0-.32-.08-1.02-.97-2.36-1.42-3.57-2.03-.08-.04-.16-.08-.28-.12h-.04Z" fill="#010101"/><path d="M74.89,33.67l1.79-.41v.08l-1.54.37c.16.2.28.37.41.53h-1.95c.2.24.32.41.49.61-.2,0-.32,0-.45.04.08-.14-.09-.37-.53-.69.61-.08,1.22-.12,1.83-.2,0-.12,0-.28-.04-.37v.04Z" fill="#010101"/><path d="M37.21,74.68c-.69.28-1.38.61-2.11.93.04-.08.08-.2.12-.28.81-.69,1.66-.93,1.99-.65Z" fill="#010101"/><path d="M36.48,74.28c-.08-.08-.12-.16-.24-.24.45-.32.85-.69,1.3-.93.16-.08.45.08.65.16-.65.2-1.3.41-1.71,1.02h0Z" fill="#010101"/><path d="M59.91,52.07c.2,0,.32.08.49.08.2-.24.41-.45.65-.69v1.02c-.28.08-.37.08-1.1-.41h-.04Z" fill="#010101"/><path d="M110.59,68.76l-3.37-1.06v-.12c1.14.37,2.23.69,3.37,1.06v.12Z" fill="#010101"/><path d="M62.22,34.44c-.12-.04-.2-.08-.32-.16.37-.28.2-.49-.08-.65-.32-.2-.65-.37-.97-.57.73.08,1.26.53,1.66,1.06-.12.12-.2.24-.28.32h0Z" fill="#010101"/><path d="M77.61,33.35h-.37c-.08-.28-.2-.61-.32-.93.41-.08.81-.2,1.18-.28h0l-1.02.24c.16.32.32.57.49.89l.04.08Z" fill="#010101"/><path d="M52.44,27.54c.37.2.77.41,1.18.61-.16.12-.32.24-.49.37-.12-.08-.28-.2-.49-.32.16-.08.28-.16.45-.24-.24-.12-.49-.2-.69-.28,0,0,0-.08.04-.12Z" fill="#010101"/><path d="M55.65,29.65c-.32-.16-.73-.28-.93-.53-.28-.32-.69-.12-1.06-.49.61.12,1.1.24,1.62.37-.08.12-.12.16-.2.24.2.12.41.24.65.32,0,0,0,.04-.04.08h-.04Z" fill="#010101"/><path d="M62.47,51.42c0,.12,0,.24.04.41-.2,0-.41-.08-.65-.08.3-.38.68-.47,1.14-.28h-.57l.04-.04Z" fill="#010101"/><path d="M58.61,51.54c-.12.32-.2.57-.28.77-.12.28-.32.24-.57.12.28-.28.57-.57.89-.89h-.04Z" fill="#010101"/><path d="M48.95,51.17c.12,0,.28,0,.37.04.16-.37.32-.73.53-1.06,0,0,.04,0,.08.04-.16.41-.32.81-.49,1.26-.2-.08-.37-.16-.53-.24v-.04h.04Z" fill="#010101"/><path d="M58.16,31.12c-.3-.14-.37-.34-.2-.61.16.08.37.2.57.32-.16.12-.24.2-.37.32v-.04Z" fill="#010101"/><path d="M55.44,52.11c-.12-.2-.24-.41-.32-.65,0-.08.12-.2.16-.32.08.08.16.16.16.28,0,.2,0,.41.04.61,0,0-.04,0-.08.04l.04.04Z" fill="#010101"/><path d="M45.98,52.92c.2,0,.41.04.53.08.16-.32.32-.65.45-.93h.08c-.08.28-.12.57-.24.81-.04.12-.24.2-.37.2-.16,0-.28-.04-.45-.08v-.08Z" fill="#010101"/><path d="M48.7,51.17c-.08.28-.16.57-.2.85-.04.24-.16.28-.32.2.16-.37.28-.77.45-1.14,0,0,.04,0,.08.04v.04Z" fill="#010101"/><path d="M43.99,54.75l.04-.08c.14-.32.32-.35.57-.08.08-.08.12-.16.2-.24h.04c0,.12-.08.24-.12.41-.16-.08-.28-.16-.45-.24-.08.08-.2.16-.32.24h.04Z" fill="#010101"/><path d="M58.2,30.18c-.49-.24-1.02-.49-1.5-.73v-.08c.49.24,1.02.49,1.5.73,0,0,0,.08-.04.08h.04Z" fill="#010101"/><path d="M54.1,51.21c.2-.12.41-.2.41.16.12,0,.24,0,.37-.04h0c-.08.04-.16.12-.24.12-.2,0-.37-.08-.57-.12v-.16l.04.04Z" fill="#010101"/><path d="M62.87,35.34c-.16-.12-.32-.2-.49-.32.08-.12.49-.12.16-.41l.57.28c-.2.08-.28.12-.41.16.04.08.12.16.16.24v.04Z" fill="#010101"/><path d="M43.26,79.39c-.37.28-.73.57-1.1.81.32-.37.57-.81,1.14-.81h-.04Z" fill="#010101"/><path d="M64.17,50.93c-.12.28-.16.65-.61.53.2-.16.41-.37.61-.53Z" fill="#010101"/><path d="M44.97,40.94c-1.38.08-2.76-.49-4.18-.85,1.42.28,2.88.57,4.18.85Z" fill="#010101"/><path d="M79.28,29.08c-.65.45-1.3.93-1.95,1.38,0,0-.04-.08-.08-.12.65-.45,1.34-.89,1.99-1.34,0,0,0,.04.04.08Z" fill="#010101"/><path d="M69.9,36.48c-.24.49-.45.93-.73,1.46-.16-.49,0-.85.12-1.26,0,.2-.04.41-.08.69.24-.37.45-.65.65-.93h0l.04.04Z" fill="#010101"/></svg>