<?xml version="1.0" encoding="UTF-8"?><svg id="Layer_1" xmlns="http://www.w3.org/2000/svg" viewBox="0 0 144.57 144.57"><path d="m44.66,78.22c.37.26.74.51,1.11.76.11.08.25.13.41.13-3.26-3.41-7.14-5.98-11.18-8.36.03-.04.05-.08.08-.12.65.39,1.32.76,1.95,1.18,1.97,1.33,3.98,2.6,5.87,4.03,2.26,1.71,4.31,3.66,6.04,5.92.25.32.54.61.48,1.07-.01.1.08.24.15.33.56.69,1.12,1.38,1.69,2.07.07.08.16.14.23.22.03-.02.05-.03.08-.05-.04-.11-.08-.22-.13-.32-1.07-2.1-2.49-3.96-3.98-5.77-2.68-3.26-5.8-6.07-9.11-8.66-1.31-1.02-2.71-1.94-3.97-3.03-2.28-1.98-4.44-4.09-6.26-6.52-.16-.22-.3-.46-.5-.64-.23-.21-.51-.35-.67-.45.21-.04.58-.11.93-.17-.09.31,0,.64.23.96,1.62,2.19,3.54,4.11,5.54,5.95.61.56,1.25,1.1,1.9,1.63.1.08.28.06.4.12.15.07.34.17.39.3.13.33.39.51.66.7,1.85,1.29,3.6,2.7,5.27,4.22,1.79,1.63,3.55,3.29,5.12,5.15,1.43,1.7,2.77,3.46,3.88,5.39.09.16.2.3.3.45.03-.02.06-.03.09-.05-.11-.24-.21-.48-.33-.71-1.18-2.39-2.65-4.6-4.26-6.72-1.71-2.25-3.62-4.31-5.69-6.22-1.87-1.72-3.75-3.44-5.61-5.17-1.71-1.58-3.34-3.23-4.59-5.2-.5-.78-.9-1.63-1.37-2.43-.13-.23-.33-.41-.5-.62-.04.01-.08.02-.13.03.11-.18.22-.37.35-.6.06.11.09.17.11.22.35,1.28,1.12,2.35,1.8,3.45.75,1.23,1.71,2.29,2.75,3.28,1.85,1.77,3.75,3.47,5.6,5.24,1.87,1.8,3.72,3.64,5.53,5.5.66.67,1.19,1.47,1.79,2.2.1.12.22.23.38.3-1.69-3.03-3.61-5.88-6.29-8.14,2.25,1.74,3.93,3.96,5.43,6.35.04-.02.08-.05.12-.07-.02-.1-.03-.2-.07-.29-.39-.84-.77-1.68-1.17-2.51-.11-.23-.28-.44-.46-.62-.9-.91-1.82-1.81-2.72-2.72-.09-.09-.15-.21-.22-.31h0c.67.64,1.35,1.26,2.02,1.89.19.18.38.36.58.53.02-.02.05-.04.07-.06-.03-.08-.05-.16-.09-.23-1.46-2.74-3.39-5.09-5.74-7.11-.4-.34-.78-.72-1.19-1.05-.14-.12-.34-.16-.51-.24-.06-.03-.14-.09-.16-.16-.13-.36-.42-.56-.69-.81-1.19-1.12-2.4-2.21-3.36-3.55-.38-.53-.75-1.07-1.14-1.59-.14-.19-.33-.35-.51-.55.03-.08.07-.21.11-.33.93,1.51,1.96,2.95,3.22,4.21.47.47.96.92,1.45,1.36.1.09.25.11.29.13.35.36.62.69.94.97,1.93,1.69,3.86,3.4,5.43,5.44.64.83,1.2,1.74,1.74,2.65.67,1.13,1.29,2.3,2.11,3.33.18.22.3.49.39.77-.16-.21-.33-.42-.49-.63-.04.02-.08.04-.11.06.45,1.06.91,2.12,1.36,3.18l.14-.03-.11-.79s.02,0,.03-.01c.14.52.27,1.04.42,1.55.04.13.07.27.15.37,1.58,2.15,2.85,4.48,4.13,6.81.05.09.1.17.16.26.02.02.06.03.14.07-.02-.12,0-.2-.04-.27-.73-1.73-1.46-3.47-2.19-5.2-.03-.08-.08-.17-.14-.23-.78-.81-1.18-1.86-1.76-2.79-.04-.06-.03-.15-.05-.23,0,0,0,0,0,0,.29.46.58.93.87,1.39.1.15.21.3.31.45.04-.02.07-.04.11-.06-.12-.39-.24-.78-.37-1.16-.18-.5-.38-.99-.56-1.49-.13-.35-.28-.68-.57-.94-.13-.12-.18-.33-.27-.5-.48-.95-.97-1.9-1.41-2.88l1.14,1.98s.07-.03.11-.04c-.02-.12-.03-.25-.08-.36-.6-1.62-1.24-3.24-1.81-4.87-.47-1.35-.88-2.72-1.29-4.09-.16-.52-.23-1.07-.29-1.62.15.55.28,1.11.44,1.66.15.53.31,1.06.49,1.58.04.11.16.19.24.29.09-.08.19-.16.3-.26-.02.2,0,.43-.06.63-.12.36-.06.68.08,1.01.78,1.99,1.55,3.99,2.32,5.98.04.1.1.19.19.35.21-.38.22-.72.2-1.07-.02-.35,0-.71,0-1.07.03,0,.07,0,.1,0,0,.47.03.95,0,1.42-.1,1.15.17,2.22.62,3.28.96,2.28,1.88,4.58,2.82,6.87.12.29.27.56.41.84.03,0,.06-.01.08-.02,0-.11.02-.22,0-.32-.35-1.43-.7-2.87-1.05-4.3-.03-.11-.04-.23-.11-.32-.61-.87-.69-1.92-1-2.88-.14-.42-.21-.86-.32-1.29.03,0,.05-.01.08-.02.15.57.31,1.15.46,1.72.08.29.16.58.27.86.03.09.15.15.23.22v-3.46s.06,0,.08,0c0,.24-.01.49,0,.73.01.13.08.27.12.4.1-.09.2-.19.33-.31-.07.32-.08.68-.22.99-.16.36-.19.72-.14,1.09.17,1.56.51,3.08.94,4.59.24.82.47,1.65.71,2.47.05.16.15.3.22.45.04-.01.08-.03.12-.04-.05-.37-.12-.73-.16-1.1-.08-.69-.15-1.39-.21-2.08-.05-.62-.08-1.23-.15-1.85-.01-.13-.09-.28-.19-.38-.22-.22-.28-.46-.27-.76,0-.62-.02-1.24-.09-1.85-.15-1.39.11-2.74.44-4.08.08-.34.21-.66.29-1,.02-.08-.05-.19-.07-.29-.07.06-.16.1-.21.18-.08.12-.12.26-.22.38.08-.58.5-1.16-.09-1.78-.54.93-.73,1.94-.98,2.95l-.97-2.72c.36.59.51,1.29.98,1.89v-1.24s.1.04.14.06c.12-.15.27-.28.34-.45.12-.28.22-.57.28-.87.04-.19,0-.4-.05-.59-.02-.08-.12-.13-.19-.2-.05.08-.11.15-.15.23-.02.05-.01.11-.06.17.16-.76-.04-1.45-.35-2.13.12.21.23.42.39.7.42-.63.1-1.27.21-1.87.43.35.42.35.27.85-.12.42-.26.85-.29,1.28-.02.29.13.58.21.88.06,0,.12,0,.18.01.87-1.92,1.61-3.89,2.22-5.91.03,0,.06.02.09.02-.09.33-.17.68-.28,1-.58,1.68-1.14,3.37-1.77,5.03-.18.47-.05.78.24,1.22.49-.93.8-1.86,1.18-2.76.38-.91.74-1.83,1.17-2.73-.07.22-.13.44-.22.65-.65,1.65-1.31,3.3-1.95,4.96-.05.14-.05.3-.07.46.04.01.08.03.12.04.05-.08.12-.16.16-.25.49-1.24.96-2.48,1.46-3.71.58-1.45,1.2-2.89,1.77-4.34.67-1.7,1.32-3.4,1.97-5.1.17-.44.16-.44-.21-.83.41.03.75.05,1.07.07-.16.86-.28,1.67-.46,2.46-.34,1.51-.61,3.05-1.09,4.53-.51,1.58-1.23,3.09-1.86,4.64-.05.11-.09.22-.08.4.1-.04.21-.07.3-.13,1.83-1.28,3.25-2.94,4.47-4.78.39-.58.74-1.16.8-1.87,0-.06.05-.16.09-.17.35-.07.38-.38.49-.63.2-.46.39-.94.58-1.4.03-.08.08-.15.14-.25.17.89-3.28,7.84-4.4,8.89.61-1.01,1.28-1.99,1.82-3.04-.03-.03-.07-.05-.1-.08-.11.1-.22.2-.31.32-1.01,1.2-2.11,2.31-3.35,3.28-.29.22-.55.47-.85.68-.36.24-.55.59-.69.97-.32.88-.64,1.76-.94,2.64-.07.23-.07.49-.05.73.07,1.25.15,2.49.23,3.74,0,.13.02.26.03.39.04.01.07.02.11.03.12-.29.25-.58.37-.87.02,0,.04.01.06.02-.16.6-.33,1.2-.49,1.8-.04,0-.09,0-.13-.01-.05-1.58-.1-3.15-.23-4.72-.06,0-.12,0-.18-.01-.09.38-.2.76-.27,1.14-.3,1.65-.39,3.31-.27,4.98,0,.07,0,.15.03.2.05.07.13.16.21.18.05.01.15-.09.18-.16.14-.33.26-.67.39-1.01.02-.06.07-.11.1-.16.03,0,.06.01.1.02-.03.2-.02.41-.09.59-.22.55-.49,1.08-.7,1.63-.05.14,0,.33.03.49.15.76.3,1.52.46,2.28.03.13.08.25.19.36.17-1.36.1-2.73.13-4.09.18.68,0,1.41.38,2.06.02-.35.04-.7.07-1.05.02,0,.05,0,.07,0v3.43s.07,0,.11.01c.02-.11.04-.22.06-.32.15-.98.27-1.96.45-2.93.46-2.43,1.11-4.81,2.21-7.03.87-1.77,1.77-3.52,2.73-5.24,1.26-2.26,2.6-4.48,3.89-6.73.54-.94.88-1.98,1.12-3.03.09-.4.01-.85.01-1.35.34.29.32.58.28.86-.11.95-.34,1.87-.77,2.72-.78,1.52-1.55,3.05-2.43,4.52-1.69,2.84-3.4,5.66-4.74,8.68-.8,1.81-1.45,3.66-1.84,5.6-.28,1.4-.53,2.81-.5,4.25.04,1.38.13,2.77.1,4.15-.02.84.16,1.63.38,2.42.61,2.23,1.22,4.45,1.82,6.68.08.29.14.59.22.88.03.1.09.19.14.28.08-.08.19-.15.24-.25.43-.81.83-1.65,1.29-2.45,1.02-1.8,2.23-3.47,3.64-4.99,1.62-1.75,3.27-3.48,5.01-5.12,2.45-2.32,5.14-4.35,7.85-6.35.74-.55.75-.53,1.04-1.88.02.13.03.26.05.39h.08c-.02-.33-.04-.64-.06-.96.02-.02.04-.03.05-.05.01.06.02.12.04.18.19-.74.43-1.43.2-2.16.02.09.03.18.05.27.03,0,.07,0,.1,0,0-.31,0-.62,0-.93,0-.58,0-1.17,0-1.75,0-.2-.01-.4-.02-.6,0-.03-.03-.07-.02-.1.2-.54-.1-1.06-.01-1.61.08-.55.06-1.13.02-1.68-.08-1.04-.2-2.08-.31-3.12,0-.06-.02-.11-.02-.17.05-.96-.44-1.75-.81-2.57-.83-1.85-2.13-3.39-3.38-4.95-1.71-2.14-3.44-4.26-5.14-6.4-1.33-1.68-2.73-3.29-4.28-4.77-1.39-1.33-2.92-2.5-4.59-3.44-1.31-.74-2.73-1.27-4.1-1.9-1.65-.76-3.42-1.12-5.13-1.68-.86-.28-1.67-.68-2.34-1.31-.17-.16-.27-.39-.35-.61,1.14,1.29,2.69,1.77,4.24,2.16,1.62.41,3.19.96,4.71,1.63,1.57.69,3.11,1.42,4.54,2.37,2.2,1.45,4.06,3.29,5.74,5.3,1.55,1.85,3,3.77,4.53,5.63,1.41,1.71,2.86,3.39,4.3,5.08.09.1.24.15.37.22-.02-.14-.02-.3-.08-.43-.9-1.88-2.11-3.56-3.34-5.23-2.89-3.93-6.32-7.33-10.23-10.24-.61-.46-1.23-.92-1.86-1.35-.17-.12-.4-.16-.61-.23-.27-.09-.55-.18-.81-.33.19.03.38.07.57.1.01-.03.02-.06.04-.08-.07-.07-.12-.15-.2-.2-2.34-1.74-4.27-3.9-6.15-6.09-.51-.6-.92-1.28-1.41-1.89-.14-.18-.39-.27-.65-.44.08-.12.21-.32.31-.47.42.62.83,1.23,1.25,1.83,1.87,2.64,4.16,4.88,6.72,6.84,1.92,1.47,3.89,2.9,5.74,4.45,2.24,1.88,4.33,3.91,6.1,6.26.59.78,1.19,1.56,1.79,2.33.07.08.16.15.24.22.03-.02.06-.05.09-.07-.15-.26-.31-.52-.46-.78.01-.01.03-.02.04-.03.04.04.1.07.13.11.28.45.58.89.84,1.35.12.21.15.46.24.69.1.25.2.5.34.73.5.85,1.02,1.7,1.54,2.54.06.1.16.17.24.26.04-.02.09-.05.13-.07-.11-.36-.2-.72-.32-1.07-.88-2.6-2.34-4.84-4.12-6.92-2.54-2.97-5.39-5.63-8.25-8.26-1.82-1.68-3.73-3.27-5.54-4.95-1.35-1.25-2.5-2.66-3.09-4.44-.07-.2-.12-.41-.17-.62-.14-.55-.4-.76-.96-.81-.1,0-.2-.03-.29-.07-.58-.21-.76-.08-.68.46-.28-.17-.57-.34-.9-.54.3-.04.62-.12.94-.12.28,0,.56.06.83.14.43.12.78.02,1.07-.43.24,3.02,2.07,4.97,4.13,6.77-.51-.95-1.21-1.8-1.61-2.84.62.93,1.29,1.8,1.8,2.75.43.81,1.13,1.33,1.76,1.92,2.15,1.99,4.32,3.96,6.47,5.94.43.4.84.82,1.26,1.22.09.09.2.16.3.24.03-.02.06-.05.08-.07-.11-.15-.21-.31-.33-.45-1.55-1.87-3.18-3.65-4.94-5.32-1.21-1.14-2.35-2.37-3.43-3.63-1.09-1.26-1.85-2.74-2.38-4.33-.03-.08-.04-.17-.02-.27.19.44.37.89.57,1.33.6,1.27,1.39,2.41,2.25,3.52,1.09,1.41,2.49,2.51,3.72,3.77.29.29.56.6.84.9l.15-.13c-.86-1.41-1.94-2.67-3.02-3.92.02-.02.04-.04.07-.06.28.3.6.58.85.91.79,1.04,1.65,2.04,2.31,3.16.58.99,1.43,1.72,2.12,2.6.48.62,1.01,1.21,1.52,1.81.06.07.11.15.19.19.07.04.17.06.24.04.03,0,.06-.14.04-.21-.12-.69-.22-1.38-.37-2.06-.05-.21-.18-.42-.33-.58-1.33-1.45-2.67-2.89-4-4.34-.2-.22-.37-.45-.56-.68.02-.02.04-.04.06-.05.04.03.08.06.11.1,1.27,1.36,2.53,2.72,3.8,4.07.12.12.41.26.49.2.15-.11.29-.35.29-.54.02-.7-.39-1.25-.75-1.81-.23-.35-.5-.67-.71-1.05.12.09.24.17.43.3.01-.17.05-.28.03-.37-.21-.87-.38-1.77-.67-2.61-.17-.49-.52-.94-.85-1.36-.79-1.02-1.58-2.05-2.44-3.01-.85-.96-1.61-1.97-2.11-3.16-.24-.57-.46-1.15-.73-1.71-.12-.26-.32-.48-.51-.7-.02-.03-.2.08-.32.13-.16-.02-.37-.06-.58-.09h0c.25-.31.59-.4.96-.35.45.06.9.17,1.33.34-.11-.02-.22-.03-.33-.06-.34-.11-.52.01-.44.36.08.36.22.71.35,1.05.6,1.62,1.62,2.97,2.77,4.25.67.74,1.28,1.55,1.92,2.31.17.2.39.34.58.52.05.05.09.12.11.19.18.43.37.86.53,1.3.34.91.67,1.83,1.01,2.75.03.07.06.14.08.21.03,0,.07.02.1.03.04-.11.12-.23.12-.34-.03-1.33-.06-2.66-.12-3.99-.03-.71-.07-1.42-.18-2.11-.14-.82-.36-1.62-.57-2.42-.39-1.55-1.09-2.98-1.81-4.39-.09-.18-.23-.33-.38-.52.18-.03.34-.06.4-.07.21.49.38.95.59,1.39.59,1.23,1.11,2.48,1.4,3.82.2.93.44,1.86.61,2.8.11.62.11,1.25.17,1.88.01.13.03.25.05.38.05,0,.1,0,.15.01.1-.67.19-1.34.29-2.02-.03,2.46-.25,4.93.24,7.38-.16-.57-.31-1.15-.47-1.72-.04,0-.09,0-.13.01-.02.37-.05.75-.05,1.12-.03,1.8.24,3.57.64,5.31.01.05.04.11.03.16-.17.84.34,1.37.85,1.9.37.39.71.82,1.07,1.22.08.09.21.13.31.19.04-.13.13-.26.12-.39-.15-1.51-.56-2.94-1.22-4.3-.51-1.05-.91-2.13-1.05-3.29.05.18.1.36.16.53.27.72.51,1.47.84,2.16.66,1.39,1.14,2.84,1.42,4.35.02.12.09.24.16.44.4-.79-.07-1.4-.18-2.07.35,0,.36-.22.36-.47,0-.78,0-1.55.01-2.33.03-1.07.07-2.14.11-3.21.03-.93.09-1.87.07-2.8-.04-1.87-.08-3.74-.19-5.6-.12-1.95-.59-3.82-1.48-5.57-.06-.11-.12-.22-.18-.32-.14-.22-.3-.39-.44-.26-.21-.24-.4-.47-.59-.69-.05.04-.11.08-.16.11h1.16c.06.24.09.51.2.73.56,1.07,1.05,2.18,1.29,3.37.21,1.04.38,2.11.47,3.17.24,2.82.11,5.65.05,8.48-.06,2.49-.07,4.98-.11,7.47,0,.32-.09.65-.09.97,0,.23,0,.49.11.67.69,1.1,1.41,2.17,2.11,3.26.04.06.06.12.09.18.04-.02.08-.04.12-.05.02-.13.05-.27.04-.39-.07-.99-.11-1.98-.25-2.96-.19-1.37-.47-2.73-.69-4.09-.28-1.69-.61-3.37-.78-5.07-.21-2.09-.23-4.2,0-6.31.16-1.45.23-2.92.29-4.38.04-1.08,0-2.16,0-3.24.06,0,.11,0,.17,0,0,.73.02,1.46,0,2.19-.04,1.28-.08,2.56-.16,3.84-.07,1.11-.23,2.22-.29,3.33-.06.99-.11,1.98-.04,2.97.1,1.27.33,2.52.51,3.78.03.19.11.37.16.56.03,0,.06,0,.09,0,.02-.15.03-.29.06-.53.19,1.79.53,3.45.96,5.1.23.89.44,1.79.68,2.68.04.13.17.24.26.36.08-.12.19-.23.25-.35.06-.12.05-.27.1-.39.09-.24.04-.42-.09-.65-.16-.3-.21-.66-.3-.99-.21-.83-.4-1.67-.62-2.5-.45-1.71-.64-3.45-.65-5.21,0-1.41-.01-2.82.1-4.21.06-.72-.09-1.4-.1-2.12.11.08.2.13.29.19.05-.09.13-.18.16-.28.21-.78.43-1.56.62-2.35.36-1.42.73-2.84,1.04-4.27.13-.61.18-1.25.18-1.87.01-1,.08-2.01-.21-2.99-.09-.3-.21-.59-.32-.88.39-.22.68,0,1.25.72-.09-.06-.17-.12-.26-.18-.24-.17-.42-.1-.43.2,0,.25.03.49.05.74.12,1.51.17,3.01-.14,4.5-.22,1.06-.42,2.12-.67,3.17-.3,1.27-.67,2.52-.97,3.79-.42,1.78-.57,3.58-.46,5.4.08,1.35.2,2.69.38,4.03.1.78.36,1.53.55,2.3.07.28.22.15.43-.02-.05.31-.11.55-.11.79,0,.25.05.51.1.75.02.08.13.13.19.2.05-.08.12-.15.14-.23.15-.81.29-1.62.43-2.43.29-1.71.58-3.41.86-5.12.16-.99.32-1.97.48-2.96,0-.05.03-.11.05-.16.03,0,.07.01.1.02-.54,3.46-1.08,6.92-1.62,10.39.03.01.06.02.09.03.1-.2.2-.4.3-.61.45-1.01.9-2.01,1.35-3.02.04-.08.06-.17.06-.26.07-1.07.12-2.13.21-3.2.14-1.65.6-3.22,1.13-4.79.51-1.49,1.01-2.99,1.44-4.5.27-.94.4-1.92.59-2.88.38-1.96.76-3.91,1.63-5.73.06-.12.1-.25.15-.38.21-.52.07-.55-.28-.83h0c.11.02.23,0,.31.05.45.24.88.5,1.33.73.23.12.49.2.78.32-.5.26-.28.71-.36,1.09,0-.18,0-.36,0-.54,0-.25-.07-.47-.33-.52-.25-.05-.34.17-.41.36-.56,1.55-1.06,3.1-1.22,4.76-.14,1.47-.42,2.92-.64,4.38-.03.2-.05.39-.08.59.03.01.06.03.09.04.05-.08.12-.16.16-.25.54-1.19,1.05-2.39,1.61-3.57.31-.65.6-1.28.51-1.95.06.03.15.12.22.11.08-.01.16-.12.2-.2.32-.64.62-1.3.96-1.94.5-.93,1.03-1.85,1.54-2.77.09-.16.17-.32.2-.49.03-.19-.08-.29-.26-.16-.21.16-.4.34-.67.56.57-.94,1.49-1.17,2.36-.69.32.18.7.25,1.06.37-.54.45-.7,1.15-.96,1.78-.96,2.34-1.43,4.8-1.74,7.3-.23,1.84-.53,3.67-.8,5.51-.01.09,0,.19.04.3.7-.62,1.12-1.44,1.69-2.16-.23.39-.44.8-.69,1.17-.34.49-.72.95-1.07,1.43-.1.14-.17.31-.25.47.04.03.08.06.11.09.12-.1.26-.18.37-.3,1.28-1.31,2.29-2.8,2.99-4.5.11-.26.27-.5.41-.75,0,0,0,0,0,0-.47,1.42-1.14,2.74-2.06,3.92-.45.58-.98,1.08-1.42,1.66-.33.44-.63.92-.86,1.43-.54,1.2-1.03,2.42-1.55,3.63-.03.06-.05.12-.01.23.11-.12.24-.24.33-.37.93-1.29,1.87-2.56,2.78-3.86,1.31-1.87,2.64-3.74,3.89-5.65.85-1.29,1.46-2.72,1.85-4.22.08-.3.11-.62.16-.93.02-.13.06-.25.08-.37.05,0,.09.01.14.02-.04.45,0,.91-.12,1.34-.44,1.7-1.14,3.3-2.12,4.76-1.08,1.61-2.18,3.2-3.31,4.78-1.28,1.81-2.65,3.56-3.89,5.4-1.33,1.97-2.87,3.79-3.96,5.92-.8,1.56-1.57,3.12-1.86,4.87-.27,1.62-.58,3.24-.82,4.86-.08.57-.02,1.17,0,1.75.04,1.39.1,2.79.15,4.18.1,2.64-.08,5.27-.32,7.89-.02.25-.06.49-.08.74,0,.09.02.19.04.29.1-.03.23-.02.3-.08.55-.45,1.12-.88,1.63-1.37,1.15-1.09,2.31-2.18,3.41-3.32,1.21-1.24,2.13-2.7,3.06-4.16.98-1.53,1.99-3.03,2.95-4.57,1.46-2.33,2.57-4.83,3.52-7.4.9-2.44,1.65-4.93,2.27-7.46.38-1.54.72-3.09,1.1-4.63.67-2.73,1.48-5.41,2.96-7.84.4-.66.77-.74,1.51-.25-.11-.03-.16-.03-.2-.05-.46-.16-.7-.1-.94.32-.4.73-.79,1.47-1.15,2.22-1.01,2.12-1.53,4.4-2.09,6.66-.63,2.52-1.27,5.05-1.97,7.55-.63,2.27-1.5,4.46-2.46,6.61-.42.94-.88,1.87-1.33,2.81-.06.12-.11.24-.16.35.03.01.05.03.08.04.28-.46.57-.9.82-1.37.96-1.77,1.9-3.56,2.84-5.34.15-.28.39-.53.15-.89-.04-.06.03-.19.06-.29.51-1.63,1.05-3.25,1.52-4.9.45-1.57.78-3.17,1.23-4.73.66-2.31,1.66-4.47,2.97-6.49.36-.55.66-1.14.97-1.73.07-.12.05-.29.13-.48.13.29.25.57.34.76-.21.17-.38.26-.48.4-1.39,2.02-2.54,4.17-3.34,6.5-.09.26-.15.54-.16.84.67-1.07,1.33-2.15,2.03-3.21.7-1.06,1.44-2.08,2.18-3.15.1.09.27.23.42.36-.37.07-.64.32-.87.62-1.41,1.78-2.56,3.72-3.66,5.7-.5.91-.83,1.83-1.06,2.82-.05.21-.07.44-.11.65.04.01.07.03.11.04l.89-1.72s.03,0,.05.01c0,.05,0,.11-.03.16-.32.81-.64,1.63-.97,2.44-.02.04-.02.1-.05.12-.6.52-.57,1.29-.81,1.96-.24.67-.44,1.35-.65,2.03-.02.08-.03.16-.04.24.03.01.06.02.09.03.24-.45.48-.9.71-1.36,1.06-2.12,2.07-4.28,3.2-6.36,1.2-2.22,2.76-4.19,4.54-5.99.24-.24.27-.34.15-.84.23.09.43.14.6.25.71.42,1.43.51,2.21.13-.26.36-.53.73-.79,1.09-1.04,1.45-2.17,2.83-3.08,4.35-.95,1.59-1.71,3.29-2.52,4.97-.66,1.36-1.22,2.76-1.89,4.11-.77,1.54-1.81,2.9-3.02,4.12-1.05,1.06-2.1,2.13-3.17,3.18-.27.27-.6.49-.89.74-.08.07-.16.15-.22.25-.59.96-1.17,1.92-1.75,2.89-.06.1-.11.21-.16.32.02.02.04.05.07.07.09-.06.19-.11.27-.19,2.46-2.4,4.83-4.88,6.93-7.62,1.58-2.06,2.89-4.29,4.17-6.54.16-.27.37-.51.56-.77-.44.78-.88,1.57-1.33,2.34-.78,1.32-1.49,2.68-2.38,3.92-2.11,2.93-4.54,5.59-7.13,8.1-.62.6-1.28,1.17-1.9,1.77-.12.11-.14.33-.2.5.15-.07.32-.11.44-.22,1.95-1.8,3.9-3.61,5.83-5.43,1.74-1.63,3.22-3.47,4.32-5.59,1.02-1.97,1.96-3.97,2.94-5.96.04-.08.06-.17.09-.26l-.07-.04c-.21.29-.41.58-.62.86.03-.11.04-.24.1-.34,1.71-2.65,3.58-5.16,5.8-7.41.05-.05.12-.1.22-.1-.4.45-.8.91-1.19,1.36l.06.07c.08-.05.17-.09.23-.15,1.1-1.02,2.33-1.88,3.59-2.7.19-.12.33-.3.5-.46,0-.04-.02-.08-.02-.11.2.08.4.16.58.23-.2.1-.38.17-.54.28-.97.68-1.96,1.33-2.88,2.07-2.25,1.81-4.09,3.97-5.44,6.52-.82,1.54-1.52,3.14-2.29,4.71-.41.83-.87,1.63-1.3,2.44-.04.07-.07.14-.05.26.13-.16.28-.32.4-.49,1.38-2,2.73-4.02,4.13-6.01.91-1.3,1.82-2.61,2.84-3.81,1.5-1.77,3.32-3.19,5.33-4.37.22-.13.4-.31.63-.5.11.24.22.49.34.75-.32-.19-.62-.29-1-.07-3.14,1.82-5.53,4.4-7.55,7.37-1.77,2.62-3.55,5.23-5.32,7.85-.13.19-.26.39-.38.59.11-.03.18-.08.24-.15.45-.55.9-1.1,1.34-1.65,1.43-1.8,2.87-3.58,4.28-5.39,1.57-2.02,3.18-4,5.19-5.62.89-.72,1.84-1.36,2.77-2.04.31-.22.5-.49.43-.88.23.41.46.82.65,1.18-.56-.34-1.05.04-1.55.36-2.1,1.35-3.86,3.06-5.42,4.99-1.97,2.44-3.89,4.93-5.83,7.4-.06.08-.1.16-.11.31.12-.04.24-.07.35-.13.93-.51,1.71-1.22,2.37-2.03,1.71-2.08,3.49-4.11,5.48-5.92,1.08-.98,2.3-1.8,3.47-2.68.57-.43,1.16-.81,1.75-1.22.21-.14.36-.3.23-.61.27.14.53.28.75.39-.25.11-.52.18-.73.33-1.55,1.1-3.12,2.18-4.63,3.33-1.41,1.06-2.55,2.41-3.71,3.73-.81.93-1.59,1.87-2.37,2.82-.92,1.12-2.02,1.98-3.37,2.53-.49.2-.67.7-1,1.04.02.04.05.08.07.12.17-.07.36-.12.5-.22.86-.64,1.71-1.28,2.55-1.94.82-.65,1.62-1.32,2.42-2,.17-.15.29-.36.43-.54.17-.21.31-.45.51-.62,1.14-.95,2.3-1.88,3.46-2.81.1-.08.23-.11.35-.16,0,0,0,0,0,0-.67.54-1.36,1.07-2.02,1.63-.5.42-.96.88-1.44,1.32.02.03.04.05.05.08.1-.05.2-.1.29-.16,1.72-1.18,3.56-2.17,5.47-3,1.34-.58,2.73-1.04,4.09-1.58.27-.11.49-.31.76-.49.06.09.15.25.21.35-.75.26-1.49.52-2.22.79-3,1.12-5.86,2.51-8.48,4.37-.59.42-1.14.88-1.77,1.37.14.04.18.06.2.05.64-.31,1.34-.48,1.91-.97,1.16-.98,2.54-1.63,3.93-2.22,1.03-.43,2.09-.77,3.14-1.14.04-.01.09,0,.15.03-.75.28-1.52.54-2.26.85-.75.31-1.49.65-2.2,1.02-.72.37-1.41.8-2.12,1.21.02.05.05.1.07.15.37-.13.74-.25,1.11-.39,1.51-.55,3.01-1.16,4.54-1.64,2.08-.66,4.19-1.21,6.29-1.83.13-.04.24-.18.35-.27,0-.04,0-.08,0-.12.35.19.69.37,1.04.55-.47.22-.91.39-1.33.62-1.59.85-3.28,1.44-5,1.92-.47.13-.9.27-1.16.72-.04.06-.11.1-.17.16q-.22-.48-.73-.36c-.23.05-.46.11-.69.17-.09.03-.22.07-.26.14-.24.46-.72.61-1.13.8-1.85.86-3.71,1.69-5.56,2.54-1.94.89-3.66,2.11-5.17,3.63-1.73,1.73-3.47,3.45-5.43,4.92-1.12.84-2.23,1.68-3.34,2.52-.14.11-.28.22-.41.33.02.03.03.06.05.09.22-.09.44-.16.65-.27,2.06-1.01,4.12-2.03,6.17-3.06.19-.1.32-.32.48-.48.3-.29.6-.58.9-.86.96-.87,1.92-1.74,2.88-2.6.11-.1.23-.18.37-.24-1.18,1.11-2.36,2.22-3.54,3.33.03.04.05.08.08.12.13-.05.28-.08.39-.16,2.13-1.43,4.3-2.82,6.38-4.31,3.3-2.37,6.71-4.55,10.42-6.23,1.64-.74,3.31-1.43,4.95-2.16.25-.11.46-.32.67-.5.05-.04.04-.15.07-.31.15.33.28.59.42.9-.82-.16-1.45.26-2.1.54-1.98.86-3.98,1.7-5.9,2.7-1.87.97-3.67,2.07-5.44,3.21-1.82,1.18-3.55,2.5-5.35,3.72-1.4.95-2.8,1.91-4.27,2.72-2.44,1.35-4.95,2.58-7.43,3.86-.11.06-.23.12-.34.19.01.03.03.07.04.1.24-.07.48-.13.72-.2,2.52-.78,4.91-1.87,7.27-3.05.68-.34,1.18-.84,1.72-1.33.31-.29.65-.55.98-.82.02.02.04.05.06.07-.24.22-.5.43-.73.66-.09.09-.13.22-.19.33.13,0,.28.06.4.01,1.14-.42,2.32-.69,3.53-.87.82-.13,1.65-.29,2.43-.56.43-.15.81-.52,1.15-.85,1.14-1.11,2.23-2.26,3.38-3.36.8-.76,1.66-1.45,2.49-2.17.09-.08.18-.15.24-.29-1.96.6-3.8,1.48-5.64,2.35.18-.1.37-.2.55-.31.2-.11.39-.23.59-.33,1.76-.87,3.55-1.63,5.4-2.29.61-.22,1.14-.62,1.72-.93,1.33-.72,2.74-1.2,4.2-1.54.31-.07.59-.26.92-.42.12.19.29.47.43.69-.36,0-.74-.04-1.1,0-1.31.19-2.51.69-3.71,1.22-.07.03-.13.1-.2.14,0,.04.02.07.03.11.36-.05.73-.1,1.09-.15,0,.01,0,.03,0,.04-.38.1-.76.21-1.14.28-1.24.22-2.23.92-3.23,1.62-1.35.95-2.48,2.15-3.61,3.34-.72.76-1.5,1.46-2.25,2.19-.07.07-.13.14-.16.26.69-.02,1.31-.34,1.98-.4-.56.18-1.12.39-1.7.54-.58.15-1.06.41-1.53.8-.84.73-1.76,1.37-2.64,2.06-.08.06-.15.12-.23.18,0,.04.02.07.03.11.39-.06.79-.08,1.17-.18,3.4-.89,6.59-2.29,9.57-4.15,2.46-1.54,4.91-3.11,7.36-4.66.12-.08.23-.18.35-.27l-.04-.08c-1.12.58-2.23,1.17-3.35,1.73-1.15.58-2.3,1.15-3.46,1.69-1.15.53-2.31,1.02-3.47,1.52l-.05-.11c.6-.26,1.22-.5,1.81-.78,1.45-.69,2.91-1.38,4.34-2.1,2.01-1,4.02-2.03,6.02-3.06.22-.11.38-.33.62-.54.09.27.18.55.27.81-1.51.62-2.89,1.43-4.24,2.27-2.14,1.34-4.27,2.69-6.41,4.02-1.86,1.16-3.81,2.14-5.87,2.88-1.16.42-2.36.76-3.54,1.13-.02,0-.03.03-.1.11.25-.01.45,0,.64-.04,3.87-.62,7.38-2.19,10.76-4.09.95-.53,1.85-1.16,2.8-1.69,1.48-.84,2.99-1.63,4.47-2.46.46-.26.89-.59,1.33-.88.14.19.3.4.51.68-.62-.28-1.06.03-1.52.28-2.3,1.3-4.63,2.57-6.91,3.91-2.09,1.23-4.25,2.31-6.53,3.17-2.17.82-4.41,1.34-6.72,1.59-.34.04-.69-.02-1.04-.03-.25-.01-.48.02-.66.32.19.02.34.07.49.06.75-.06,1.51-.09,2.25-.21,2.63-.43,5.18-1.14,7.7-2,1.24-.42,2.38-1.06,3.54-1.64,1.08-.53,2.16-1.06,3.28-1.53-.87.5-1.74,1-2.61,1.49,0,.02.01.03.02.05.2-.05.4-.08.6-.14,1.83-.55,3.71-.86,5.62-.89.5,0,.99,0,1.49-.04.3-.03.58-.17.92-.28-.07.26-.14.55-.23.88-.47-.48-1.04-.39-1.56-.39-2.36,0-4.66.44-6.9,1.2-2.11.72-4.19,1.52-6.31,2.2-2.51.81-5.07,1.37-7.72,1.38-.38,0-.76.06-1.14.1-.08,0-.15.1-.22.15.08.05.15.14.23.14,1.35.04,2.7.09,4.05.1.77,0,1.55-.07,2.33-.05-.58.05-1.16.13-1.74.13-1.46,0-2.93-.02-4.39-.04-1-.02-1.94.19-2.82.67-.05.03-.1.05-.15.08.01.03.03.07.04.1.09.02.17.04.26.05,2.46.13,4.93.25,7.39.37.52.03,1.06.11,1.53-.23.08-.06.22-.05.33-.05,1.65-.1,3.3-.16,4.95-.32,1.55-.14,3.07-.47,4.56-.93,1.91-.59,3.76-1.3,5.5-2.31.26-.15.54-.23.74-.48.39-.48.39-.54-.2-.77.36-.13.7-.25,1.04-.37.02.02.05.04.07.07-.51.71-1.02,1.42-1.53,2.13-.07-.29-.27-.25-.54-.11-2.23,1.14-4.53,2.08-7,2.54-1.37.26-2.76.4-4.15.57-.77.09-1.55.14-2.32.2-.12.01-.23.04-.35.14.31.05.61.13.92.15,1.39.11,2.79.3,4.18.27.95-.02,1.89-.35,2.83-.56.32-.07.62-.2.95-.23-.74.28-1.49.55-2.34.87.19.03.29.06.39.06,1.53.01,3.06.08,4.58-.22,1.03-.21,2-.52,2.8-1.25.04-.03.09-.05.22-.11-.04.37-.08.69-.11.99-.25-.03-.49-.1-.72-.07-.23.03-.44.17-.66.26-.93.38-1.9.57-2.89.63-1.82.11-3.65.1-5.47-.09-.88-.09-1.77-.11-2.66-.17-.81-.06-1.61-.16-2.42-.22-.95-.07-1.91-.1-2.86-.16-1.38-.09-2.76-.19-4.14-.28-.42-.03-.83.02-1.25,0-.77-.05-1.54-.13-2.32-.19-.18-.01-.39-.02-.56.04-2.08.72-4.22,1.12-6.42,1.12-.24,0-.47,0-.71,0,0,.04-.02.09-.03.13.12.05.23.13.35.13,1.66.05,3.31.08,4.97.14.94.03,1.89.11,2.83.2-2.38-.05-4.75-.09-7.13-.14,0,.04,0,.08-.01.12.38.06.77.13,1.15.19,1.11.16,2.23.32,3.34.47,1.13.16,2.25.3,3.38.46,1.22.18,2.45.37,3.67.57,2.39.41,4.79.52,7.21.39,1.9-.1,3.8-.2,5.7-.34,1.66-.12,3.32-.27,4.98-.42.9-.08,1.79-.15,2.69-.24.19-.02.38-.08.54-.17.1-.06.15-.23.16-.35,0-.05-.18-.17-.28-.16-.35.04-.69.11-1.03.17-1.34.25-2.66.56-4.01.73-.92.11-1.87.02-2.8.02,0-.03,0-.06,0-.09.09,0,.19,0,.28,0,1.75,0,3.49-.17,5.21-.49.63-.12,1.24-.28,1.86-.44.33-.09.53-.3.57-.56.37.56.47,1.06.35,1.87-.32-.38-.74-.31-1.13-.28-1.35.08-2.7.17-4.04.28-1.69.14-3.38.36-5.08.45-2.33.12-4.66.14-6.99.2-.47.01-.95-.02-1.42-.03-.12,0-.24.02-.35.03,0,.03-.01.07-.02.1l.92.37c-.66-.13-1.31-.23-1.93-.55-.4-.21-.91-.23-1.37-.3-1.8-.27-3.61-.52-5.41-.77-.73-.1-1.47-.18-2.21-.26-.13-.01-.26,0-.39.06.3.06.59.13.89.18,1.39.23,2.78.42,4.15.71,1.47.31,2.93.7,4.39,1.09,1.24.33,2.47.68,3.69,1.08,2.23.72,4.47,1.37,6.78,1.77,2.75.47,5.43.16,8.03-.87.37-.15.69-.4,1.03-.61.09.2.04.33-.24.5-.82.49-1.72.79-2.63,1.03-1.85.49-3.73.46-5.61.26-2.38-.25-4.64-.96-6.91-1.66-2.14-.66-4.28-1.3-6.45-1.84-1.75-.43-3.54-.76-5.33-1.03-1.93-.29-3.89-.47-5.83-.7-.26-.03-.51-.08-.77-.12-.83-.13-1.61.12-2.39.32-.5.13-1.02.25-1.46.49-.46.25-.89.61-1.27.98-1.88,1.84-3.79,3.63-5.87,5.24-.07.05-.14.13-.22.16-.45.15-.59.5-.71.93-.35,1.27-.72,2.53-1.15,3.78-.72,2.1-1.73,4.04-3.06,5.83-1.71,2.31-3.81,4.19-6.12,5.87-2.98,2.16-5.96,4.34-8.94,6.49-.37.26-.61.56-.72,1-.46,1.76-.95,3.52-1.41,5.28-.11.43-.15.89-.21,1.33-.09.67-.53,1.08-1.29,1.12.46-2.23.92-4.44,1.39-6.72-.13.09-.27.14-.37.24-1.62,1.53-3.09,3.19-4.35,5.02-1.14,1.66-2.19,3.38-3.26,5.09-.18.29-.39.44-.73.44-.2,0-.4.04-.61.03-.27,0-.35-.13-.23-.37.04-.08.09-.16.14-.23,1.21-1.83,2.4-3.68,3.64-5.49,1.7-2.49,3.65-4.77,6.1-6.55.57-.42.63-1,.92-1.5.06-.1.02-.27-.02-.39-.31-1.26-.63-2.51-.96-3.76-.6-2.28-1.29-4.53-2.17-6.71-.09-.21-.21-.43-.37-.6-.96-.98-1.87-2.03-2.91-2.91-2.97-2.51-6.25-4.54-9.8-6.11-1.78-.79-3.59-1.52-5.43-2.13-1.73-.57-3.51-.98-5.29-1.39-2.17-.51-4.36-.93-6.53-1.44-1.24-.3-2.36-.89-3.14-1.92-.4-.53-.71-1.15-.97-1.76-.29-.71-.59-1.38-1.17-1.91-.11-.1-.19-.24-.23-.42.05.02.11.04.15.07.61.53,1.02,1.18,1.28,1.95.39,1.19.98,2.25,2.11,2.92.92.54,1.91.89,2.95,1.12,2.68.59,5.36,1.17,8.04,1.78,4.17.95,8.11,2.52,11.79,4.67,1.98,1.16,3.87,2.47,5.8,3.71.14.09.29.18.44.26.03-.03.05-.06.08-.09-.06-.08-.1-.18-.18-.23-1.72-1.35-3.4-2.74-5.17-4.02-2.77-2.01-5.88-3.35-9.11-4.42-1.45-.48-2.94-.86-4.41-1.29-.28-.08-.56-.19-.84-.29,0-.04.02-.07.02-.11.5.06,1.01.11,1.53.17-.09.32.16.31.3.35.65.19,1.3.35,1.95.54,2.74.78,5.34,1.89,7.87,3.19,1.82.94,3.45,2.15,5.06,3.41,1.04.81,2.07,1.63,3.11,2.45.06.05.12.12.19.13.14.02.28,0,.41,0-.03-.13-.01-.29-.09-.39-.56-.75-1.13-1.49-1.72-2.22-.14-.18-.35-.32-.55-.42-.45-.22-.92-.41-1.35-.69.4.16.81.31,1.21.47l.08-.06c-.06-.11-.1-.24-.18-.34-1.54-1.89-3.44-3.26-5.78-3.99-2.46-.77-4.93-1.52-7.36-2.36-1.92-.65-3.85-1.31-5.68-2.16-2.09-.98-3.99-2.32-5.71-3.87-.69-.63-1.41-1.23-2.15-1.8-.2-.16-.5-.18-.76-.27.04-.15.09-.35.15-.56.28.26.54.54.82.78,1.49,1.24,2.98,2.48,4.49,3.69.37.3.82.51,1.24.76.16.09.31.11.35-.22.66,1.18,1.88,1.37,2.89,1.88.28.14.58.25.88.35.16.06.33.08.49.12.05-.06.09-.13.14-.19-.09-.03-.21-.05-.28-.11-.55-.43-1.09-.87-1.64-1.31-.09-.07-.19-.17-.28-.17-.48-.03-.69-.41-1.05-.68.3-.14.18-.27.05-.42-1.15-1.3-2.21-2.69-2.98-4.25-.7-1.42-1.21-2.93-1.81-4.4-.09-.22-.23-.42-.35-.63l-.11.04c.08-.37.16-.74.24-1.1.03,0,.06,0,.09,0,.17.29.37.56.3.96-.04.21-.03.45.02.65.5,1.77,1.21,3.47,2.14,5.06,1.37,2.34,3.08,4.38,5.32,5.94.33.23.66.41.8.83.03.09.19.16.3.2,1.45.48,2.91.96,4.36,1.43.12.04.25.02.38.03.01-.03.03-.05.04-.08-.1-.11-.2-.22-.3-.33,0-.01.01-.03.02-.04.23.14.5.23.67.41.41.45.98.53,1.5.71,1.29.44,2.6.82,3.88,1.29,1.39.51,2.57,1.38,3.65,2.39.12.11.26.22.39.33.04-.06.05-.08.05-.08-.46-.73-.96-1.43-1.73-1.88-.17-.1-.36-.19-.52-.31-.46-.34-.92-.69-1.37-1.04-.07-.06-.12-.15-.18-.22h0Zm59.29-34.98c-.28.38-.55.76-.85,1.13-1.22,1.53-2.24,3.19-2.96,5.01-.44,1.11-.77,2.26-1.21,3.36-1.02,2.59-2.32,5.03-4.08,7.2-.05.07-.09.15-.13.23.13-.01.2-.06.26-.12.53-.6,1.07-1.19,1.57-1.81,1.47-1.81,2.39-3.92,3.25-6.05,1.45-3.62,3.36-6.95,5.91-9.9.1-.12.31-.24.12-.42-.17-.17-.38-.23-.59-.02-.13.14-.29.25-.43.37.06-.08.13-.16.16-.25.03-.08.06-.22.02-.27-.05-.06-.2-.1-.27-.06-.3.14-.66.24-.88.47-.82.87-1.61,1.76-2.36,2.69-1.52,1.88-2.6,4.02-3.67,6.17-1.06,2.14-2.06,4.31-3.13,6.44-.92,1.82-1.9,3.6-2.85,5.41-.05.1-.09.21-.13.31l.07.06c.11-.07.22-.13.32-.22.29-.27.54-.57.84-.83.42-.35.52-.9.89-1.31,1.53-1.67,2.91-3.46,3.81-5.57.51-1.2,1.04-2.39,1.53-3.6.49-1.18.88-2.41,1.42-3.56.85-1.79,1.95-3.44,3.37-4.85Zm-22.43,5.07s0,0,0,0c-.3.9-.59,1.8-.89,2.7.14-.1.24-.22.31-.36.52-.94,1.03-1.88,1.54-2.81.73-1.32,1.5-2.62,2.18-3.96.73-1.43,1.15-2.98,1.42-4.56.28-1.67.45-3.37.73-5.04.44-2.61,1.18-5.13,2.41-7.49.11-.21.23-.43.26-.65.02-.17-.08-.43-.21-.5-.22-.12-.39.06-.5.27-.86,1.68-1.72,3.37-2.58,5.05-.45.89-.96,1.76-.96,2.8,0,.11-.03.22-.05.39-.03-.2-.05-.34-.09-.59-.12.18-.2.27-.24.37-.81,1.93-1.66,3.84-2.42,5.79-.4,1.03-.72,2.11-.95,3.2-.4,1.89-.67,3.81-1.05,5.7-.28,1.4-.63,2.78-.96,4.17-.09.39-.19.78-.29,1.17.04.01.07.02.11.03.61-1.61,1.22-3.21,1.83-4.82.11-.3.27-.58.4-.87Zm-5.35,33.51s-.06-.07-.1-.1c-.14.07-.29.13-.41.22-2.01,1.6-4.04,3.17-6.01,4.81-1.22,1.02-2.39,2.12-3.51,3.26-1,1.02-1.92,2.11-2.83,3.21-1.74,2.11-3.17,4.43-4.3,6.92-.11.24-.21.48-.3.72-.02.05-.01.17.01.18.06.03.15.03.21,0,.09-.04.17-.11.25-.17,1.01-.71,2.01-1.45,3.04-2.14,2.21-1.5,4.42-3,6.46-4.72,1.8-1.51,3.36-3.23,4.59-5.24,1.01-1.64,1.8-3.37,2.37-5.21.18-.58.35-1.16.53-1.73Zm13.36-10.75s.01.06.02.09c.04.02.08.04.12.05,1.59.09,3.18.09,4.74-.3,1.21-.3,2.4-.68,3.59-1.08,2.82-.95,5.28-2.55,7.6-4.38.07-.06.12-.14.24-.3-.22.02-.34.01-.46.04-.75.15-1.49.32-2.25.44-1.68.26-3.25.83-4.73,1.63-2.75,1.47-5.61,2.65-8.55,3.68-.11.04-.21.09-.32.13Zm-10.51-23.69s.08.03.12.04c.18-.33.41-.64.54-.99.83-2.32,1.92-4.54,2.43-6.97.28-1.33.64-2.64.91-3.97.18-.86.31-1.73.38-2.6.08-1.16.24-2.3.55-3.42.21-.78.51-1.54.77-2.31.06-.17.09-.35.09-.53,0-.1-.06-.26-.13-.27-.09-.02-.25.03-.31.11-.16.2-.32.41-.43.64-.87,1.86-1.23,3.87-1.69,5.85-.23.98-.35,2-.62,2.97-.46,1.65-1,3.27-1.52,4.9-.63,1.99-1.15,3.99-1.12,6.1,0,.15.02.3.03.46Zm7.61-4.59s-.09-.03-.13-.05c-.34.31-.66.63-1.01.93-.47.4-.95.78-1.2,1.38-.15.36-.37.7-.56,1.04-1.49,2.56-2.9,5.17-4.03,7.91-.68,1.66-1.14,3.37-1.22,5.17-.01.29.02.58.03.87h.12c.1-.48.2-.96.3-1.44.4-1.97,1.25-3.76,2.32-5.44.9-1.41,1.9-2.76,2.83-4.16.19-.29.27-.65.39-.98.07-.2.09-.43.19-.6.67-1.06,1.17-2.2,1.59-3.38.14-.4.25-.82.37-1.23Zm-5.78,1.79s-.06-.03-.1-.04c-.06.14-.12.28-.18.42-.3.7-.6,1.41-.91,2.11-.75,1.72-1.5,3.44-2.28,5.15-.29.62-.42,1.28-.58,1.93-.23.94-.32,1.89-.22,2.85.05.49.14.98.21,1.47.02.16.05.31.07.47.04,0,.07,0,.11,0,2.03-4.58,3.41-9.35,3.87-14.36Zm4.35-1.26s.04.14.1.18c.05.03.16,0,.21-.04.14-.11.28-.23.39-.37.41-.5.98-.9,1.15-1.56.24-.94.45-1.88.6-2.83.17-1.04.26-2.09.39-3.14.08-.6.21-1.2.25-1.8.12-1.54.45-3.03.93-4.48.31-.95.75-1.85,1.15-2.77.1-.24.04-.4-.15-.52-.2-.13-.37,0-.5.15-.06.07-.11.15-.14.23-.51,1.26-1.07,2.5-1.51,3.79-.86,2.53-1.37,5.14-1.67,7.8-.14,1.2-.4,2.39-.65,3.58-.13.59-.35,1.16-.55,1.79Zm-31.37,29.27c.05-.1.11-.2.16-.31.42-.99.82-1.99,1.26-2.98.53-1.2,1.11-2.38,1.64-3.59.64-1.45,1.26-2.91,1.53-4.49.11-.63.32-1.24.44-1.87.09-.46.02-.95.28-1.39.05-.09-.08-.29-.12-.44-.11.09-.21.18-.31.27-.03.03-.04.08-.05.12-.9,2.27-1.8,4.54-2.7,6.8-.73,1.84-1.45,3.68-2.19,5.51-.32.79-.53,1.57.07,2.36Zm64.96-20.28s-.05-.08-.07-.11c-.09,0-.17,0-.26.02-1.35.35-2.72.63-4.04,1.08-3.06,1.03-6.09,2.14-9.13,3.24-.6.22-1.15.57-1.75.79-.39.14-.74.3-1.04.59-1.02.96-2.05,1.91-3.27,2.61-.29.17-.64.23-.97.34-.08.03-.19.04-.24.1-.24.29-.47.59-.74.94.15,0,.23.02.3,0,1-.33,1.93-.78,2.64-1.57.94-1.04,1.99-1.92,3.19-2.64,1.47-.88,3.1-1.39,4.73-1.86,2.39-.68,4.81-1.28,7.19-1.98,1.06-.31,2.07-.8,3.1-1.23.14-.06.24-.19.36-.29Zm-22.42,9.6s-.04-.03-.06-.05c-.09.08-.18.15-.26.24-1.65,1.59-3.3,3.19-4.96,4.78-.86.82-1.76,1.62-2.62,2.44-.11.11-.14.3-.21.46.17-.02.37.02.52-.06.31-.16.6-.36.88-.57,2.36-1.74,4.29-3.9,6.16-6.13.05-.06.11-.14.1-.2-.06-.27.11-.42.25-.59.08-.1.14-.21.22-.31Zm2.58-.04s-.04-.05-.06-.08c-.04,0-.09,0-.12.02-.64.26-1.26.61-1.97.65-.08,0-.16.08-.22.14-.27.31-.54.63-.81.95-1.41,1.71-2.97,3.29-4.6,4.8-.12.11-.22.24-.33.35.03.03.06.06.09.09,2.92-2.02,5.58-4.34,8.02-6.91Zm11.07-6.06l-.05-.17c-.13.01-.27.01-.4.05-1.76.46-3.51.97-5.15,1.8-1.13.57-2.18,1.26-3.05,2.2-.06.06-.1.14-.14.2,2.94-1.36,5.87-2.72,8.8-4.07Zm-35.17-5.03s-.07.01-.11.02c.01.16.01.32.03.48.19,1.46.43,2.92.57,4.38.06.62.27,1.27-.04,1.89-.03.06.02.18.05.25.21.48.43.97.65,1.45.05.1.13.19.19.28.04,0,.08-.01.12-.02.02-.19.07-.38.07-.56-.04-.92-.1-1.84-.16-2.76,0-.11-.04-.23-.11-.31-.24-.27-.29-.59-.3-.94,0-.22-.05-.44-.11-.66-.14-.61-.3-1.22-.45-1.83-.14-.56-.27-1.12-.41-1.68Zm-21.54,21.13c-.09.17-.13.23-.16.31-.04.1-.09.21-.11.32-.42,1.62-.56,3.25-.36,4.91.01.1.11.19.16.29.06-.1.16-.2.18-.31.16-1.08.27-2.16.46-3.23.11-.66.3-1.3.01-1.95-.04-.09-.09-.18-.18-.35Zm25.21-15.61s-.07-.01-.1-.02c-.36.9-.71,1.8-1.09,2.69-.18.43-.43.84-.64,1.26-.14.27-.06.65.17.78.24.14.46.07.65-.27.11-.2.16-.44.21-.66.21-1.01.41-2.03.62-3.04.05-.25.12-.49.19-.74Zm-.34,2.61c-.23.5-.38,1.01-.3,1.57,0,.04.1.11.14.1.06-.02.15-.09.16-.14.07-.5.2-1.01,0-1.53Zm-9.96-16.46s-.07.05-.1.07c.02.11.02.24.08.33.1.17.23.33.37.48.07.07.19.07.29.1,0-.11.02-.24-.03-.33-.09-.16-.21-.31-.33-.45-.07-.08-.18-.13-.27-.2Z" stroke="#000" stroke-miterlimit="10" stroke-width=".25"/><path d="m64.19,57.47c.32.24.6.45.92.69-.48-.01-.67.09-.77.46-.64,2.35-1.79,4.46-3,6.55-.94,1.62-1.93,3.2-2.87,4.81-1.08,1.86-1.94,3.83-2.62,5.88-.27.82-.43,1.66-.69,2.49.07-.39.12-.79.22-1.17.3-1.06.59-2.12.96-3.16.25-.72.61-1.4.94-2.09,1.03-2.15,2.23-4.19,3.5-6.2,1.43-2.27,2.64-4.67,3.44-7.24.09-.28-.02-.62-.04-1.03Z" stroke="#000" stroke-miterlimit="10" stroke-width=".25"/><path d="m48.47,61.1c.01.12.02.24.05.35.03.14-.02.32.22.35.05,0,.09.21.1.32.04,1.33.06,2.66.11,3.98.02.57.13,1.14.19,1.71.02.22,0,.44,0,.75-.12-.63-.23-1.18-.34-1.73-.02,0-.05,0-.07.01v4.03s-.02,0-.03,0c-.06-1.63-.14-3.26-.19-4.9-.05-1.63-.06-3.26-.1-4.89.01,0,.03,0,.04,0Z" stroke="#000" stroke-miterlimit="10" stroke-width=".25"/><path d="m56.51,39.8c1.01.82,2,1.68,3.03,2.47,1.41,1.07,2.85,2.09,4.28,3.12,1.65,1.19,3.12,2.58,4.54,4.04.58.6,1.1,1.25,1.65,1.87.07.08.12.18.18.27-.02.02-.05.05-.07.07-.06-.08-.12-.17-.19-.24-2.03-2.39-4.29-4.52-6.82-6.36-1.87-1.36-3.7-2.79-5.54-4.2-.39-.3-.72-.67-1.08-1.01.01,0,.02-.01.03-.02Z" stroke="#000" stroke-miterlimit="10" stroke-width=".25"/><path d="m25.35,61c.14-.42.38-.66.84-.84-.25.57.1.86.35,1.2,1.01,1.36,2.01,2.74,3.04,4.08.61.79,1.28,1.53,1.93,2.3.08.09.15.18.22.28-.03.02-.05.05-.08.07-.42-.46-.87-.89-1.25-1.38-1.38-1.8-2.75-3.62-4.11-5.43-.25-.33-.54-.4-.95-.27Z" stroke="#000" stroke-miterlimit="10" stroke-width=".25"/><path d="m102.56,40.49c.37.15.66.27.9.36-.25.21-.51.39-.71.61-1.5,1.7-2.91,3.46-4.08,5.41-.27.44-.51.9-.83,1.32.03-.08.05-.16.09-.23,1.23-2.38,2.84-4.48,4.58-6.5.35-.4.36-.47.05-.98Z" stroke="#000" stroke-miterlimit="10" stroke-width=".25"/><path d="m79.25,38.24c.03-.12.07-.23.1-.35.07,1.11-.73,2.02-.64,3.13-.17-.26.51-5.94.84-6.79-.07.67-.14,1.34-.21,2-.07.66-.15,1.32-.23,1.98.04,0,.09.01.13.02Z" stroke="#000" stroke-miterlimit="10" stroke-width=".25"/><path d="m48.7,76.63c-.3-.52-.63-1.03-.9-1.57-1.13-2.23-2.41-4.37-3.82-6.43-.02-.03-.03-.06-.02-.12.05.06.11.11.15.17,1.53,2.2,2.92,4.48,4.08,6.9.17.35.34.71.51,1.06,0,0,0,0,0,0Z" stroke="#000" stroke-miterlimit="10" stroke-width=".25"/><path d="m125.02,59.6c.19.26.38.53.61.86-.82-.21-1.39.21-1.99.47-1.25.54-2.47,1.13-3.73,1.66.41-.22.81-.47,1.23-.67,1.05-.48,2.12-.93,3.18-1.39.16-.07.32-.16.47-.25.24-.16.42-.34.1-.63.04-.01.08-.02.12-.03Z" stroke="#000" stroke-miterlimit="10" stroke-width=".25"/><path d="m21.77,70.75c.09.06.2.1.27.17,1.46,1.47,3.06,2.73,4.87,3.74.09.05.17.14.25.21h0c-.62-.35-1.25-.67-1.84-1.04-1.28-.82-2.38-1.84-3.44-2.92-.05-.05-.08-.11-.12-.17,0,0,0,0,0,0Z" stroke="#000" stroke-miterlimit="10" stroke-width=".25"/><path d="m115.23,67.32c1.94-.89,3.97-1.39,6.1-1.5-2.08.29-4.13.75-6.1,1.5Z" stroke="#000" stroke-miterlimit="10" stroke-width=".25"/><path d="m80.52,32.82c.59-2.14,1.17-4.29,2.07-6.33-.69,2.11-1.38,4.22-2.07,6.33Z" stroke="#000" stroke-miterlimit="10" stroke-width=".25"/><path d="m27.17,74.88c.44.18.87.37,1.31.52.81.29,1.63.56,2.43.9-.58-.05-1.16-.11-1.77-.16.27-.22.13-.29-.08-.38-.58-.25-1.15-.51-1.72-.77-.06-.03-.11-.08-.16-.12,0,0,0,0,0,0Z" stroke="#000" stroke-miterlimit="10" stroke-width=".25"/><path d="m112.04,55.83c-.32.64-.78,1.14-1.44,1.44-1.02.46-2.05.91-3.1,1.31.26-.14.52-.28.79-.4.78-.37,1.58-.72,2.35-1.11.57-.29,1.04-.7,1.41-1.23Z" stroke="#000" stroke-miterlimit="10" stroke-width=".25"/><path d="m122.95,68.43c0,.09.01.22.02.38-1.51-.26-2.85.2-4.15.86,1.06-.72,2.21-1.13,3.5-1.12.19,0,.38-.07.63-.12Z" stroke="#000" stroke-miterlimit="10" stroke-width=".25"/><path d="m114.2,52.22c.75-.22,1.5-.46,2.25-.67.43-.12.5-.25.27-.64.47.2.92.39,1.33.57-.89-.16-1.72.35-2.61.49-.41.07-.81.21-1.22.32,0-.02-.01-.05-.02-.07Z" stroke="#000" stroke-miterlimit="10" stroke-width=".25"/><path d="m109.37,69.02c1.77-.5,3.53-1.01,5.3-1.51-1.72.69-3.49,1.18-5.3,1.51Z" stroke="#000" stroke-miterlimit="10" stroke-width=".25"/><path d="m57.11,32.77c-.05-.21-.11-.43-.16-.64-.08-.32-.08-.69-.53-.82.65-.25,1.29-.49,1.95-.75q-.14.38-.52.36c-.3-.02-.76.38-.77.71-.01.38.01.76.02,1.14,0,0,0,0,0,0Z" stroke="#000" stroke-miterlimit="10" stroke-width=".25"/><path d="m55.49,54.4c.3.24.61.47.88.74.07.07.01.28.01.43-.21-.09-.34-.14-.47-.19-.04.14-.11.28-.12.42-.02.17,0,.35-.04.53-.17-.61.09-1.28-.26-1.94Z" stroke="#000" stroke-miterlimit="10" stroke-width=".25"/><path d="m55.73,73.94c.47-1.52,1.15-2.96,1.97-4.33-.66,1.44-1.32,2.89-1.97,4.33Z" stroke="#000" stroke-miterlimit="10" stroke-width=".25"/><path d="m80.15,28.35c.06-.57.12-1.13.17-1.7,0-.09.05-.19.03-.27-.04-.13-.08-.31-.18-.36-.09-.04-.25.06-.37.12-.07.04-.12.12-.17.18-.02-.02-.04-.05-.06-.07.35-.31.7-.62,1.06-.94-.15,1.06-.28,2.05-.42,3.05-.02,0-.03,0-.05-.01Z" stroke="#000" stroke-miterlimit="10" stroke-width=".25"/><path d="m46.25,54.94c.28.58.58,1.14.82,1.73.3.71.54,1.45.81,2.17-.03.01-.06.03-.09.04-.13-.31-.25-.62-.38-.93-.34-.87-.69-1.74-1.03-2.61-.05-.14-.09-.28-.13-.42h0Z" stroke="#000" stroke-miterlimit="10" stroke-width=".25"/><path d="m63,59.31c-.13-.81.51-1.55.06-2.36.16.08.34.14.48.25.06.05.08.21.05.3-.12.4-.27.8-.4,1.19-.06.19-.12.37-.2.62Z" stroke="#000" stroke-miterlimit="10" stroke-width=".25"/><path d="m55.62,41.89c-1.42-.62-2.79-1.33-4.04-2.25,1.35.75,2.7,1.5,4.04,2.25Z" stroke="#000" stroke-miterlimit="10" stroke-width=".25"/><path d="m48.91,59.54c.36.29.27,1.73-.1,2.07.04-.74.07-1.41.1-2.07Z" stroke="#000" stroke-miterlimit="10" stroke-width=".25"/><path d="m61.56,57.31c-.11-.35-.48-.76-.99-.65-.23.05-.49,0-.73,0,.89.04,1.8-.42,2.67.12-.24-.01-.52-.11-.69,0-.16.09-.2.39-.26.54Z" stroke="#000" stroke-miterlimit="10" stroke-width=".25"/><path d="m44.67,78.21c-.09-.02-.2-.02-.28-.06-1.02-.53-2.04-1.07-3.06-1.62-.19-.1-.35-.27-.52-.41h0c.91.46,1.82.91,2.72,1.38.39.21.76.48,1.13.72,0,0,0,0,0,0Z" stroke="#000" stroke-miterlimit="10" stroke-width=".25"/><path d="m69.26,31.15c.33,1.54.49,3.2.39,4.63-.12-1.42-.26-3.08-.39-4.63Z" stroke="#000" stroke-miterlimit="10" stroke-width=".25"/><path d="m120.91,75.57c.28-.1.55-.22.83-.28.46-.11.92-.18,1.38-.28.13-.03.24-.14.37-.22-.05.25-.1.51-.17.83-.27-.53-.69-.41-1.09-.32-.44.09-.88.19-1.32.28h0Z" stroke="#000" stroke-miterlimit="10" stroke-width=".25"/><path d="m21.77,70.74c-.5-.55-1.01-1.1-1.54-1.68.26-.07.52-.15.81-.23-.33.75.15,1.16.54,1.61.08.09.12.2.18.3,0,0,0,0,0,0Z" stroke="#000" stroke-miterlimit="10" stroke-width=".25"/><path d="m22.51,64.55c.14.27.23.45.31.61-.18-.03-.4-.15-.55-.08-.13.05-.17.31-.25.48.03.02.05.03.08.05-.2.04-.41.08-.61.12-.02-.03-.05-.05-.07-.08.35-.35.7-.71,1.09-1.1Z" stroke="#000" stroke-miterlimit="10" stroke-width=".25"/><path d="m108.93,42.14c.08.09.19.17.23.28.03.09.03.25-.03.31-.53.49-1.08.97-1.67,1.42.17-.18.33-.36.51-.52.45-.4.87-.81.87-1.49.03,0,.06,0,.08,0Z" stroke="#000" stroke-miterlimit="10" stroke-width=".25"/><path d="m53.29,55.05c-.21-.7-.31-.74-1.06-.43.06-.22.11-.42.16-.62.44.21.87.42,1.28.61-.09.1-.22.25-.38.43Z" stroke="#000" stroke-miterlimit="10" stroke-width=".25"/><path d="m40.81,76.12c-.11-.04-.24-.05-.33-.11-.9-.6-1.79-1.21-2.68-1.82-.07-.05-.13-.1-.18-.18,1.17.54,2.16,1.34,3.18,2.11,0,0,0,0,0,0Z" stroke="#000" stroke-miterlimit="10" stroke-width=".25"/><path d="m43.23,54.04c0-.3-.09-.65.03-.9.12-.26.44-.43.73-.68.06.22.11.42.17.64q-.71-.03-.92.94Z" stroke="#000" stroke-miterlimit="10" stroke-width=".25"/><path d="m47.43,37.29c.47-.49,1.08-.35,1.66-.33-.17.03-.36.01-.49.1-.1.07-.13.25-.2.39-.27-.04-.61-.09-.97-.15Z" stroke="#000" stroke-miterlimit="10" stroke-width=".25"/><path d="m69.18,28.9c-.36.3-.24.69-.19,1-.18-.25-.39-.53-.59-.82-.04-.06-.09-.15-.07-.2.02-.05.12-.09.19-.09.21,0,.41.02.62.04.01.03.03.05.04.08Z" stroke="#000" stroke-miterlimit="10" stroke-width=".25"/><path d="m79.65,32.48c.15-1.22.29-2.44.44-3.66h.07c-.14,1.23-.27,2.45-.41,3.67-.03,0-.07,0-.1-.01Z" stroke="#000" stroke-miterlimit="10" stroke-width=".25"/><path d="m92.6,29.13c-.1.37-.2.73-.31,1.14-.03.02-.13.07-.25.12.06-.36.11-.72.18-1.08.04-.23.19-.27.38-.19Z" stroke="#000" stroke-miterlimit="10" stroke-width=".25"/><path d="m55.62,59.43c-.2,1.05-.39,2.09-.59,3.14-.03,0-.06-.01-.09-.02l.57-3.14s.07.01.11.02Z" stroke="#000" stroke-miterlimit="10" stroke-width=".25"/><path d="m108.77,52.22s.04-.11.08-.14c.89-.58,1.77-1.15,2.66-1.73.02.03.04.06.06.09-.94.59-1.87,1.18-2.81,1.76,0,0,0,0,0,0Z" stroke="#000" stroke-miterlimit="10" stroke-width=".25"/><path d="m64.85,38.55c.65.89,1.29,1.78,1.94,2.66-.03.02-.05.04-.08.06-.65-.89-1.29-1.77-1.94-2.66.03-.02.05-.04.08-.06Z" stroke="#000" stroke-miterlimit="10" stroke-width=".25"/><path d="m43.88,61.39c.18-.1.31-.16.46-.25.07.33.13.65.2.98-.04.02-.09.04-.13.06-.18-.26-.35-.53-.53-.79Z" stroke="#000" stroke-miterlimit="10" stroke-width=".25"/><path d="m92.4,33.48c-.14.32-.27.63-.41.95-.29.65-.58,1.31-.87,1.96,0,0,0,0,0,0,.1-.32.18-.64.31-.95.23-.56.48-1.11.74-1.66.05-.11.16-.2.24-.3h0Z" stroke="#000" stroke-miterlimit="10" stroke-width=".25"/><path d="m73.61,27.23c0,.4,0,.8,0,1.19,0,.19.05.37.02.57-.05-.21-.08-.42-.16-.62-.08-.19-.2-.37-.35-.63.11-.11.3-.31.49-.5,0,0,0,0,0,0Z" stroke="#000" stroke-miterlimit="10" stroke-width=".25"/><path d="m59.71,37.21c.18.24.36.48.54.71.4.53.8,1.07,1.18,1.61-.66-.72-1.3-1.44-1.71-2.34h0Z" stroke="#000" stroke-miterlimit="10" stroke-width=".25"/><path d="m32.46,71.81c.4.08.73.15.98.2-.15.09-.31.17-.46.26.06.07.13.15.19.22-.22-.21-.44-.42-.71-.69Z" stroke="#000" stroke-miterlimit="10" stroke-width=".25"/><path d="m114.6,48.99c.34-.19.81-.25.98-.73.02.26.05.52.07.73h-1.05Z" stroke="#000" stroke-miterlimit="10" stroke-width=".25"/><path d="m56,32.13c-.23-.11-.4-.19-.66-.32.27-.14.51-.27.83-.44-.07.33-.12.54-.17.76Z" stroke="#000" stroke-miterlimit="10" stroke-width=".25"/><path d="m44.16,66.32c-.13-.27-.25-.54-.38-.82.11-.08.21-.17.34-.27.05.33.11.69.16,1.06-.04.01-.09.02-.13.03Z" stroke="#000" stroke-miterlimit="10" stroke-width=".25"/><path d="m27.01,70c.1.23.16.37.21.51l-.04.03c-.17-.24-.35-.48-.51-.7.06-.14.12-.25.18-.39.16.23.33.46.56.77-.15-.08-.23-.13-.4-.22Z" stroke="#000" stroke-miterlimit="10" stroke-width=".25"/><path d="m92.94,27.06c.02-.29.04-.53.06-.77.05,0,.1-.02.15-.02.1.23.19.45.3.71-.2.03-.32.05-.51.09Z" stroke="#000" stroke-miterlimit="10" stroke-width=".25"/><path d="m77.29,33.02c.19-.81.38-1.62.57-2.43.03,0,.07.02.1.02-.2.81-.39,1.62-.59,2.43-.03,0-.06-.02-.09-.02Z" stroke="#000" stroke-miterlimit="10" stroke-width=".25"/><path d="m59.8,29.62c-.07.24-.13.48-.2.73-.16-.04-.35-.08-.65-.15.33-.22.6-.4.86-.58,0,0,0,0,0,0Z" stroke="#000" stroke-miterlimit="10" stroke-width=".25"/><path d="m83.66,25.78c-.44-.27-.63.14-.86.31v-.81c.29.17.57.34.85.51,0,0,0,0,0,0Z" stroke="#000" stroke-miterlimit="10" stroke-width=".25"/><path d="m75.43,26.23c-.14.15-.27.4-.42.41-.15.01-.32-.21-.52-.36.32-.04.61-.08.9-.12.02.02.03.05.05.07Z" stroke="#000" stroke-miterlimit="10" stroke-width=".25"/><path d="m92.41,33.49c.02-.1.01-.21.06-.29.39-.57.8-1.13,1.2-1.7,0,0,0,0,0,0,0,.02,0,.05,0,.07-.42.64-.84,1.28-1.25,1.92,0,0,0,0,0,0Z" stroke="#000" stroke-miterlimit="10" stroke-width=".25"/><path d="m91.23,34.08c.19-.79.38-1.58.57-2.37.03,0,.07.01.1.02-.19.79-.39,1.58-.58,2.36-.03,0-.06,0-.09-.01Z" stroke="#000" stroke-miterlimit="10" stroke-width=".25"/><path d="m43.5,56.6c-.08-.68-.16-1.35-.24-2.03.04,0,.09,0,.13-.01.06.68.12,1.36.19,2.04h-.08Z" stroke="#000" stroke-miterlimit="10" stroke-width=".25"/><path d="m44.52,51.79h.48c.02.24.05.48.08.81-.21-.29-.36-.52-.56-.81Z" stroke="#000" stroke-miterlimit="10" stroke-width=".25"/><path d="m35.65,53.5c-.18-.15-.33-.27-.55-.44.28-.08.49-.14.75-.21-.07.24-.13.42-.2.65Z" stroke="#000" stroke-miterlimit="10" stroke-width=".25"/><path d="m55.6,59.06v-2.14s.04,0,.07,0v2.13s-.04,0-.07,0Z" stroke="#000" stroke-miterlimit="10" stroke-width=".25"/><path d="m33.28,69.5c-.47-.41-.93-.81-1.4-1.22l.07-.08c.46.41.92.83,1.38,1.24-.02.02-.04.04-.05.06Z" stroke="#000" stroke-miterlimit="10" stroke-width=".25"/><path d="m42.09,68.89c-.05-.02-.12-.01-.15-.05-.47-.46-.94-.93-1.38-1.42.51.49,1.02.98,1.53,1.47,0,0,0,0,0,0Z" stroke="#000" stroke-miterlimit="10" stroke-width=".25"/><path d="m78.24,26.93h.55c-.09.25-.16.48-.25.73-.1-.24-.19-.48-.3-.73Z" stroke="#000" stroke-miterlimit="10" stroke-width=".25"/><path d="m19.16,69.91c-.2-.04-.38-.06-.55-.09-.01-.03-.03-.06-.04-.08.18-.11.36-.22.59-.37v.55Z" stroke="#000" stroke-miterlimit="10" stroke-width=".25"/><path d="m120.91,75.57l-2.14.35s-.01-.08-.02-.12c.72-.08,1.44-.16,2.16-.23,0,0,0,0,0,0Z" stroke="#000" stroke-miterlimit="10" stroke-width=".25"/><path d="m38.61,53.62c-.42.19-.55.07-.55-.51.21.19.36.33.55.51Z" stroke="#000" stroke-miterlimit="10" stroke-width=".25"/><path d="m113.33,73.34c-.64-.11-1.28-.22-1.92-.32,0-.02,0-.05.01-.07.64.11,1.29.21,1.93.32,0,.02-.02.05-.02.07Z" stroke="#000" stroke-miterlimit="10" stroke-width=".25"/><path d="m74.95,26.88l-.14,1.67h-.09c.06-.56.12-1.12.18-1.67.02,0,.03,0,.05,0Z" stroke="#000" stroke-miterlimit="10" stroke-width=".25"/><path d="m28.91,58.22c.28.44.21.59-.26.62.09-.21.17-.4.26-.62Z" stroke="#000" stroke-miterlimit="10" stroke-width=".25"/><path d="m122.05,55.76c.21.09.37.16.63.27-.27.08-.46.14-.71.22.04-.21.06-.33.08-.49Z" stroke="#000" stroke-miterlimit="10" stroke-width=".25"/><path d="m43.92,59.11c.11.58.22,1.16.34,1.74-.03,0-.06.01-.09.02-.1-.58-.2-1.17-.31-1.75.02,0,.04,0,.06,0Z" stroke="#000" stroke-miterlimit="10" stroke-width=".25"/><path d="m50.83,53.15c-.17.11-.29.19-.46.3-.05-.19-.1-.33-.17-.58.25.11.41.18.63.28Z" stroke="#000" stroke-miterlimit="10" stroke-width=".25"/><path d="m74.36,36.79c-.06.65-.13,1.3-.19,1.94h-.08c.07-.66.13-1.3.2-1.95.03,0,.05,0,.08,0Z" stroke="#000" stroke-miterlimit="10" stroke-width=".25"/><path d="m63.56,29.55v.52c-.2-.1-.37-.18-.56-.27.18-.08.35-.15.56-.24Z" stroke="#000" stroke-miterlimit="10" stroke-width=".25"/><path d="m113.18,76.17c-.68-.06-1.37-.12-2.05-.18,0-.03,0-.05,0-.08l2.06.21s0,.03-.01.05Z" stroke="#000" stroke-miterlimit="10" stroke-width=".25"/><path d="m41.22,56c.11.1.23.19.37.31-.1.09-.19.17-.32.29-.06-.21-.11-.38-.16-.54.04-.02.07-.04.11-.06Z" stroke="#000" stroke-miterlimit="10" stroke-width=".25"/><path d="m106.55,72.58h2.11s0,.02,0,.03h-2.11v-.03Z" stroke="#000" stroke-miterlimit="10" stroke-width=".25"/><path d="m111.05,72.92c-.62-.07-1.24-.13-1.86-.2,0-.02,0-.04,0-.06.62.06,1.24.12,1.86.18,0,.03,0,.05,0,.08Z" stroke="#000" stroke-miterlimit="10" stroke-width=".25"/><path d="m101.49,72.34h-2.02v-.03h2.01v.03Z" stroke="#000" stroke-miterlimit="10" stroke-width=".25"/><path d="m74.77,37.08c.05-.53.1-1.05.15-1.58.03,0,.06,0,.08,0-.05.52-.11,1.05-.16,1.57-.02,0-.05,0-.07,0Z" stroke="#000" stroke-miterlimit="10" stroke-width=".25"/><path d="m33.31,53.79c.18-.07.29-.12.46-.2.03.19.04.34.07.54-.2-.13-.34-.22-.53-.34Z" stroke="#000" stroke-miterlimit="10" stroke-width=".25"/><path d="m76.16,26.43c-.14-.12-.26-.23-.43-.38.23-.02.4-.04.6-.06-.06.16-.11.29-.17.44Z" stroke="#000" stroke-miterlimit="10" stroke-width=".25"/><path d="m46.25,54.93c-.23-.44-.46-.87-.69-1.31.04-.02.08-.04.12-.06.19.46.38.91.56,1.37,0,0,0,0,0,0Z" stroke="#000" stroke-miterlimit="10" stroke-width=".25"/><path d="m50.17,68.53c.14.42.29.84.43,1.26-.03,0-.06.02-.09.03-.14-.42-.28-.84-.42-1.27.02,0,.05-.02.07-.02Z" stroke="#000" stroke-miterlimit="10" stroke-width=".25"/><path d="m78.51,28.72c-.1.41-.19.83-.29,1.24-.03,0-.05-.01-.08-.02.1-.41.2-.83.3-1.24.02,0,.04,0,.06.01Z" stroke="#000" stroke-miterlimit="10" stroke-width=".25"/><path d="m74.05,43.38v1.57s-.04,0-.05,0v-1.57s.04,0,.05,0Z" stroke="#000" stroke-miterlimit="10" stroke-width=".25"/><path d="m57.1,32.77c.09.35.18.7.26,1.04-.05,0-.09.02-.14.02-.04-.36-.08-.72-.12-1.07,0,0,0,0,0,0Z" stroke="#000" stroke-miterlimit="10" stroke-width=".25"/><path d="m48.17,60.18c-.09-.32-.18-.64-.26-.95.03,0,.05-.01.08-.02.09.32.19.64.28.96-.03,0-.06,0-.09.01Z" stroke="#000" stroke-miterlimit="10" stroke-width=".25"/><path d="m74.51,35.49c.06-.37.12-.75.18-1.12.02,0,.04,0,.06,0-.05.37-.1.75-.15,1.12h-.08Z" stroke="#000" stroke-miterlimit="10" stroke-width=".25"/><path d="m79.69,32.84c-.02.31-.03.61-.05.92-.04,0-.07,0-.11,0,.03-.31.06-.62.09-.93.02,0,.05.01.07.02Z" stroke="#000" stroke-miterlimit="10" stroke-width=".25"/><path d="m89.7,37.83c.18-.39.35-.78.53-1.17.03.01.06.03.08.04-.18.39-.37.77-.55,1.16-.02,0-.04-.02-.06-.03Z" stroke="#000" stroke-miterlimit="10" stroke-width=".25"/><path d="m93.67,31.51c.05-.19.1-.39.16-.58.07.06.17.15.3.26-.17.11-.31.21-.46.32,0,0,0,0,0,0Z" stroke="#000" stroke-miterlimit="10" stroke-width=".25"/><path d="m39.92,66.76c-.2-.24-.39-.48-.59-.72l.06-.05c.2.24.4.48.6.72l-.08.06Z" stroke="#000" stroke-miterlimit="10" stroke-width=".25"/><path d="m59.72,37.2c-.18-.28-.36-.55-.54-.83.04-.02.07-.04.11-.06.14.3.28.6.42.9,0,0,0,0,0,0Z" stroke="#000" stroke-miterlimit="10" stroke-width=".25"/><path d="m51.88,74.55c.07-.31.15-.61.22-.92.02,0,.03,0,.05,0-.06.3-.12.61-.17.91-.03,0-.07,0-.1,0Z" stroke="#000" stroke-miterlimit="10" stroke-width=".25"/><path d="m73.62,27.23c.01-.42.33-.6.66-.84-.24.31-.45.57-.66.83,0,0,0,0,0,0Z" stroke="#000" stroke-miterlimit="10" stroke-width=".25"/><path d="m81.52,48.31c.09-.34.17-.69.27-1.03.4-1.27.81-2.53,1.2-3.79.14-.44.25-.88.45-1.31-.08.33-.15.67-.25,1-.35,1.19-.7,2.39-1.08,3.58-.17.52-.4,1.02-.6,1.54,0,0,0,0,0,0Z" stroke="#000" stroke-miterlimit="10" stroke-width=".25"/><path d="m83.59,41.47c.37-1.54.74-3.08,1.1-4.6.07.36-.51,2.92-1.1,4.6Z" stroke="#000" stroke-miterlimit="10" stroke-width=".25"/><path d="m84.86,35.76c.06-.4.12-.79.18-1.19.02,0,.05,0,.07,0-.06.4-.11.8-.17,1.19-.03,0-.05,0-.08-.01Z" stroke="#000" stroke-miterlimit="10" stroke-width=".25"/></svg>