<?xml version="1.0" encoding="UTF-8"?><svg id="Layer_1" xmlns="http://www.w3.org/2000/svg" viewBox="0 0 144.57 144.57"><path d="M46.96,49.83h.36c.35,0,.63-.1.83-.3.2-.2.29-.45.29-.76,0-.32-.11-.58-.3-.78-.2-.2-.45-.3-.76-.3-.22,0-.42.07-.61.22-.19.15-.32.38-.39.69h-1.04c.05-.55.27-1.02.65-1.4.37-.38.82-.57,1.34-.57.66,0,1.18.22,1.57.65.37.42.56.91.57,1.48,0,.29-.05.56-.15.83-.12.27-.33.5-.64.71.31.21.54.45.68.74.13.29.2.59.2.9,0,.7-.22,1.25-.63,1.66-.41.41-.93.62-1.57.63-.49,0-.93-.16-1.31-.49-.38-.33-.63-.8-.74-1.42h1.04c.09.25.22.45.39.61.17.16.4.24.69.24.3,0,.56-.11.77-.32.21-.2.32-.49.33-.86,0-.38-.12-.67-.33-.88-.21-.2-.47-.3-.79-.3h-.44v-.94Z" fill="#1d1d1b" stroke-width="0"/><path d="M50.34,52.04l2.42-5.36h1.15l-2.45,5.36h1.89v-2.15h1.03v2.15h.58v1h-.58v1.11h-1.03v-1.11h-3.02v-1Z" fill="#1d1d1b" stroke-width="0"/><path d="M49.38,39.17h28.7c14.35,0,26.01,11.65,26.01,26.01v28.7c0,5.6-4.55,10.15-10.15,10.15h-44.56c-5.6,0-10.15-4.55-10.15-10.15v-44.56c0-5.6,4.55-10.15,10.15-10.15Z" fill="none" stroke="#000" stroke-miterlimit="10" stroke-width=".65"/><path d="M56.21,77.13c1.86,1.58,4.08,2.38,6.65,2.41,3.04-.04,4.58-1.17,4.62-3.36.02-1.8-.99-2.88-3.05-3.25-.94-.13-1.97-.28-3.1-.45-2.01-.34-3.54-1.11-4.59-2.3-1.08-1.23-1.62-2.72-1.62-4.47,0-2.11.68-3.81,2.04-5.1,1.31-1.28,3.18-1.93,5.59-1.96,2.91.07,5.43.9,7.58,2.49l-1.97,3.01c-1.75-1.19-3.69-1.81-5.79-1.86-1.09,0-2,.28-2.73.84-.76.59-1.15,1.46-1.17,2.62,0,.7.26,1.33.79,1.89.52.58,1.36.97,2.52,1.19.64.11,1.52.24,2.63.38,2.19.31,3.81,1.12,4.86,2.44,1.04,1.29,1.56,2.8,1.56,4.51-.12,4.62-2.85,6.96-8.2,7.03-3.46,0-6.44-1.1-8.93-3.3l2.32-2.75Z" fill="#1d1d1b" stroke-width="0"/><path d="M77.6,75.69c0,1.38.38,2.43,1.16,3.15.72.73,1.66,1.09,2.82,1.09,1.36,0,2.57-.56,3.64-1.67l2.42,2.14c-1.7,1.88-3.7,2.8-6,2.78-.88,0-1.73-.13-2.57-.4-.42-.14-.82-.34-1.22-.58-.42-.21-.81-.47-1.17-.78-.71-.64-1.28-1.53-1.72-2.68-.48-1.1-.72-2.54-.72-4.31s.21-3.11.63-4.24c.42-1.15.95-2.05,1.6-2.72.66-.67,1.41-1.16,2.23-1.46.81-.3,1.61-.45,2.4-.45,1.9.02,3.51.67,4.83,1.94,1.34,1.29,2.01,3.07,2.04,5.33v2.85h-10.38ZM84.64,72.84c-.04-1.34-.39-2.36-1.04-3.04-.64-.65-1.47-.98-2.48-.98s-1.83.33-2.48.98c-.63.69-.98,1.7-1.04,3.04h7.04Z" fill="#1d1d1b" stroke-width="0"/><path d="M65.42,94.5h1.92v.5l-1.15,3h-.54l1.14-3h-.9v.51h-.48v-1Z" fill="#1d1d1b" stroke-width="0"/><path d="M67.64,96.98c0-.34.14-.6.41-.79-.1-.09-.19-.2-.24-.31-.07-.11-.1-.24-.1-.39,0-.29.1-.53.29-.72.18-.19.4-.28.68-.29.28,0,.51.1.7.29.18.19.27.43.28.72,0,.15-.03.28-.09.39-.07.12-.15.22-.25.31.27.19.41.45.41.79,0,.31-.1.57-.3.76-.2.19-.45.29-.74.29-.29,0-.53-.1-.72-.29-.2-.19-.31-.44-.31-.75ZM68.13,96.97c0,.16.06.29.17.39.1.11.23.16.38.16s.28-.05.39-.16c.11-.1.16-.23.16-.39,0-.16-.06-.3-.16-.4-.1-.1-.23-.15-.39-.16-.15,0-.28.06-.38.16-.11.1-.17.24-.17.4ZM68.19,95.47c0,.16.05.29.15.37.1.09.21.13.33.13s.24-.04.34-.13c.09-.09.14-.21.15-.37,0-.17-.05-.29-.15-.38-.1-.08-.21-.12-.34-.12s-.24.04-.33.12c-.1.09-.15.21-.15.38Z" fill="#1d1d1b" stroke-width="0"/><path d="M70.22,97.5h.48v.5h-.48v-.5Z" fill="#1d1d1b" stroke-width="0"/><path d="M71.59,98s.01-.03.04-.09.07-.13.11-.23.1-.2.16-.31c.06-.11.11-.23.17-.34.06-.11.11-.21.16-.3s.09-.17.12-.22c-.05.03-.1.04-.16.05-.06,0-.13,0-.2,0-.11,0-.2-.02-.28-.06-.08-.03-.15-.08-.21-.13-.06-.05-.11-.11-.14-.18-.04-.06-.07-.13-.09-.19-.02-.06-.04-.12-.05-.17-.01-.05-.02-.1-.02-.13,0,0,0-.03,0-.05,0-.03,0-.05,0-.09s0-.06,0-.09c0-.03,0-.06,0-.08,0-.01,0-.04.02-.09s.03-.1.05-.16c.02-.06.06-.13.1-.2.04-.07.1-.14.17-.21.07-.06.15-.12.26-.17s.22-.08.36-.09c.15-.01.27,0,.38.03s.21.07.29.13c.08.06.15.12.2.2s.09.15.12.23c.03.08.05.16.06.23,0,.07.01.14,0,.19,0,.08-.02.15-.03.21-.01.06-.02.12-.04.18-.02.06-.03.11-.05.17-.02.05-.04.11-.07.18,0,.02-.02.06-.05.11s-.06.13-.11.22c-.04.09-.09.18-.14.29-.05.1-.1.21-.15.32-.12.25-.26.53-.41.83h-.57ZM71.7,95.46c0,.06,0,.13,0,.21s.02.15.06.21c.03.07.08.12.15.17.07.05.16.07.28.08.06,0,.12,0,.17-.02s.09-.04.13-.07c.04-.03.07-.06.1-.1.03-.04.05-.08.07-.11s.03-.07.04-.1c0-.03.01-.06.01-.08,0-.04,0-.09,0-.13,0-.05,0-.1-.01-.15,0-.05-.02-.1-.04-.15-.02-.05-.05-.09-.09-.12-.04-.04-.09-.06-.15-.08-.06-.02-.13-.03-.22-.02-.1,0-.18.03-.24.07-.06.04-.11.09-.15.15-.04.05-.06.11-.08.16-.01.05-.02.09-.02.11Z" fill="#1d1d1b" stroke-width="0"/><path d="M73.67,94.5h1.92v.5l-1.15,3h-.54l1.14-3h-.9v.51h-.48v-1Z" fill="#1d1d1b" stroke-width="0"/><path d="M76.71,95.03l-.48.36v-.53l.48-.36h.48v3.5h-.48v-2.97Z" fill="#1d1d1b" stroke-width="0"/><path d="M58.25,91.14c.38.33.84.49,1.37.5.63,0,.94-.24.95-.69,0-.37-.21-.59-.63-.67-.19-.03-.41-.06-.64-.09-.42-.07-.73-.23-.95-.48-.22-.25-.33-.56-.33-.92,0-.44.14-.79.42-1.05.27-.26.66-.4,1.15-.4.6.01,1.12.19,1.56.51l-.41.62c-.36-.25-.76-.37-1.19-.38-.23,0-.41.06-.56.17-.16.12-.24.3-.24.54,0,.14.05.27.16.39.11.12.28.2.52.25.13.02.31.05.54.08.45.06.79.23,1,.5.21.27.32.58.32.93-.02.95-.59,1.44-1.69,1.45-.71,0-1.33-.23-1.84-.68l.48-.57Z" fill="#1d1d1b" stroke-width="0"/><path d="M62.66,90.84c0,.28.08.5.24.65.15.15.34.23.58.23.28,0,.53-.11.75-.35l.5.44c-.35.39-.76.58-1.24.57-.18,0-.36-.03-.53-.08-.09-.03-.17-.07-.25-.12-.09-.04-.17-.1-.24-.16-.15-.13-.26-.32-.35-.55-.1-.23-.15-.52-.15-.89s.04-.64.13-.87c.09-.24.2-.42.33-.56.14-.14.29-.24.46-.3.17-.06.33-.09.5-.09.39,0,.72.14,1,.4.28.27.42.63.42,1.1v.59h-2.14ZM64.11,90.26c0-.28-.08-.49-.22-.63-.13-.13-.3-.2-.51-.2s-.38.07-.51.2c-.13.14-.2.35-.22.63h1.45Z" fill="#1d1d1b" stroke-width="0"/><path d="M65.64,87.37h.69v4.07c0,.16.09.24.26.24h.24v.67h-.31c-.25,0-.46-.06-.62-.19-.17-.13-.26-.35-.26-.66v-4.12Z" fill="#1d1d1b" stroke-width="0"/><path d="M67.96,90.84c0,.28.08.5.24.65.15.15.34.23.58.23.28,0,.53-.11.75-.35l.5.44c-.35.39-.76.58-1.24.57-.18,0-.36-.03-.53-.08-.09-.03-.17-.07-.25-.12-.09-.04-.17-.1-.24-.16-.15-.13-.26-.32-.35-.55-.1-.23-.15-.52-.15-.89s.04-.64.13-.87c.09-.24.2-.42.33-.56.14-.14.29-.24.46-.3.17-.06.33-.09.5-.09.39,0,.72.14,1,.4.28.27.42.63.42,1.1v.59h-2.14ZM69.41,90.26c0-.28-.08-.49-.22-.63-.13-.13-.3-.2-.51-.2s-.38.07-.51.2c-.13.14-.2.35-.22.63h1.45Z" fill="#1d1d1b" stroke-width="0"/><path d="M70.94,88.8h.69v.38h.01c.23-.28.52-.42.89-.42.28,0,.54.1.78.31.23.21.36.52.37.92v2.36h-.69v-2.11c0-.25-.06-.44-.19-.57-.13-.13-.29-.2-.49-.2s-.36.07-.49.2c-.13.13-.19.32-.19.57v2.11h-.69v-3.54Z" fill="#1d1d1b" stroke-width="0"/><path d="M74.72,87.37h.69v.71h-.69v-.71ZM74.72,88.8h.69v3.54h-.69v-3.54Z" fill="#1d1d1b" stroke-width="0"/><path d="M76.37,88.8h.69v2.11c0,.24.06.43.19.56.13.13.29.2.49.2s.36-.07.49-.2c.13-.13.19-.32.19-.56v-2.11h.69v3.54h-.69v-.38h-.01c-.23.28-.52.42-.89.42-.28,0-.54-.11-.77-.32-.25-.21-.38-.51-.38-.91v-2.36Z" fill="#1d1d1b" stroke-width="0"/><path d="M80.1,88.8h.69v.38h.01c.23-.28.54-.42.93-.42.25,0,.44.05.59.13.15.09.28.2.41.34.28-.31.65-.47,1.12-.46.29,0,.56.1.81.31.24.21.37.52.38.92v2.36h-.69v-2.11c0-.25-.07-.44-.2-.57-.13-.13-.3-.2-.51-.2s-.38.07-.51.2c-.14.13-.21.32-.21.57v2.11h-.69v-2.11c0-.25-.07-.44-.2-.57-.13-.13-.31-.2-.51-.2s-.38.07-.51.2c-.14.13-.21.32-.21.57v2.11h-.69v-3.54Z" fill="#1d1d1b" stroke-width="0"/></svg>