<?xml version="1.0" encoding="UTF-8"?><svg id="Layer_1" xmlns="http://www.w3.org/2000/svg" viewBox="0 0 144.57 144.57"><path d="m74.22,62.78c-1.19,2.14-2.35,4.3-3.51,6.47-2.04,3.84-4.07,7.71-5.89,11.67-.66,1.44-1.39,2.93-1.75,4.48-.01.05.1-.04.11-.07.31-1.35.92-2.64,1.49-3.9.86-1.91,1.78-3.79,2.72-5.65,1.82-3.61,3.72-7.19,5.66-10.74.42-.77.84-1.54,1.26-2.3.04-.06-.08.02-.1.05h0Z" fill="#010101"/><path d="m50.44,87.01c2.82-3.41,5.63-6.84,8.57-10.15,2.97-3.34,6.1-6.5,9.38-9.54,1.88-1.74,3.8-3.44,5.76-5.09.06-.05-.08-.07-.11-.06-2.84,1.02-5.69,2.02-8.55,2.99-5.86,2.01-11.74,3.96-17.67,5.75-3.12.94-6.25,1.85-9.42,2.61-.08.02.05.08.1.07,5.93-1.44,11.76-3.29,17.56-5.18,5.06-1.65,10.11-3.37,15.13-5.13.99-.35,1.97-.69,2.95-1.05-.04-.02-.07-.04-.11-.06-3.45,2.9-6.79,5.94-9.98,9.13-3.14,3.14-6.07,6.48-8.93,9.87-1.62,1.92-3.22,3.86-4.82,5.8-.03.04.11.08.14.04h0Z" fill="#010101"/><path d="m32.26,59.2c.52.17,1.12.19,1.66.24,1.12.11,2.24.2,3.36.28,3.34.24,6.68.44,10.02.62,3.91.22,7.82.41,11.73.61,3.31.16,6.63.32,9.94.47,1.09.05,2.17.1,3.26.15.33.01.66.03.99.04.17,0,.37.04.54.02.02,0,.05,0,.07,0,.04,0,.12-.1.07-.13-1.13-.52-2.26-1.04-3.39-1.56-2.79-1.28-5.58-2.55-8.38-3.82-3.57-1.62-7.15-3.23-10.74-4.83-3.48-1.55-6.96-3.08-10.46-4.58-2.5-1.07-5.01-2.15-7.56-3.08-.2-.07-.39-.14-.59-.21-.05-.02-.12.11-.06.13,2.41.83,4.76,1.85,7.1,2.84,3.43,1.45,6.83,2.95,10.23,4.46,3.62,1.61,7.23,3.23,10.84,4.86,2.92,1.32,5.84,2.65,8.76,3.99.93.43,1.87.86,2.8,1.29.29.13.58.26.86.4.12.06.32.2.45.21.02,0,.04.02.06.03.02-.04.05-.09.07-.13-1.31-.06-2.63-.12-3.94-.17-3.16-.14-6.31-.29-9.46-.44-3.9-.19-7.8-.38-11.7-.59-3.48-.19-6.95-.38-10.43-.63-1.23-.09-2.47-.18-3.7-.29-.7-.06-1.41-.11-2.1-.25-.08-.02-.15-.03-.23-.06-.05-.02-.12.11-.06.13h0Z" fill="#010101"/><path d="m72.42,59.3c-1.12-1.02-2.23-2.05-3.35-3.07-2.69-2.46-5.39-4.91-8.09-7.36-3.28-2.97-6.57-5.94-9.88-8.88-2.89-2.57-5.78-5.13-8.73-7.64-1-.85-2-1.69-3.02-2.5-.49-.38-1.02-.89-1.61-1.13-.05-.02-.11-.05-.17-.05-.08,0-.13.1-.03.09.11,0,.32.15.43.22.29.19.58.4.85.62.94.72,1.85,1.48,2.76,2.25,2.84,2.4,5.63,4.86,8.41,7.33,3.3,2.93,6.58,5.88,9.84,8.84,2.79,2.52,5.57,5.05,8.34,7.59.92.84,1.83,1.68,2.75,2.52.29.26.58.53.86.79.14.13.28.3.44.4.02.01.04.04.06.05.04.04.18-.01.12-.06h0Z" fill="#010101"/><path d="m75.15,62.6c2.44-.05,4.88-.08,7.33-.09,4.35-.02,8.7,0,13.04.23,1.59.09,3.27.13,4.82.54.05.01.02-.13-.03-.14-1.34-.35-2.77-.42-4.14-.5-2.07-.13-4.14-.19-6.21-.23-4.07-.07-8.13-.06-12.2,0-.88.01-1.76.03-2.64.04-.06,0-.02.14.03.14h0Z" fill="#010101"/><path d="m107.73,52.61c-4.39.92-8.79,1.82-13.15,2.9-4.3,1.06-8.52,2.35-12.7,3.83-2.41.85-4.79,1.75-7.15,2.71,0,.04,0,.08,0,.13,2.23-2.04,4.44-4.1,6.64-6.17,4.51-4.25,8.98-8.54,13.33-12.95,2.29-2.32,4.55-4.68,6.71-7.12.04-.04.03-.17-.04-.09-4.05,4.6-8.43,8.91-12.82,13.18-3.79,3.69-7.64,7.33-11.52,10.92-.77.71-1.53,1.42-2.3,2.12-.02.02-.07.15,0,.13,4.18-1.7,8.44-3.25,12.75-4.58,4.26-1.32,8.61-2.36,12.97-3.31,2.42-.53,4.84-1.03,7.26-1.54.05-.01.08-.15.03-.14h0Z" fill="#010101"/><path d="m91.44,23.66c-.1.54-.36,1.07-.56,1.58-.42,1.04-.87,2.06-1.32,3.08-1.34,3.05-2.74,6.09-4.14,9.11-1.63,3.52-3.27,7.03-4.92,10.54-1.4,2.98-2.81,5.96-4.22,8.94-.46.97-.92,1.94-1.38,2.91-.15.31-.29.61-.44.92-.06.13-.21.33-.22.47,0,.02-.02.04-.03.06.04.03.08.05.12.08.06-1.23.13-2.46.2-3.69.17-3.04.34-6.09.53-9.13.23-3.88.47-7.76.73-11.64.25-3.77.52-7.54.82-11.3.22-2.7.44-5.41.8-8.1.03-.22.06-.43.09-.65,0-.05-.11-.14-.12-.06-.38,2.49-.58,5.02-.8,7.53-.31,3.7-.58,7.4-.83,11.11-.27,3.91-.51,7.83-.75,11.75-.19,3.19-.38,6.37-.55,9.56-.06,1.03-.11,2.05-.17,3.08-.02.45-.13.97-.08,1.42,0,.02,0,.04,0,.06,0,.04.09.14.12.08.56-1.18,1.12-2.36,1.68-3.54,1.35-2.84,2.7-5.69,4.04-8.54,1.65-3.5,3.29-7,4.91-10.51,1.46-3.14,2.9-6.28,4.31-9.45.5-1.12.99-2.24,1.46-3.37.27-.65.56-1.31.76-1.98.02-.08.04-.15.06-.23,0-.05-.11-.14-.12-.09h0Z" fill="#010101"/><path d="m73.04,59.27c-.38-1.45-.76-2.9-1.14-4.35-.91-3.5-1.82-6.99-2.72-10.5-1.09-4.27-2.18-8.53-3.24-12.81-.93-3.74-1.84-7.48-2.68-11.24-.29-1.29-.57-2.59-.82-3.89-.12-.66-.33-1.4-.29-2.08,0-.05,0-.11.03-.16.02-.04-.06-.16-.08-.12-.07.13-.04.33-.03.47.02.34.08.67.13,1,.19,1.14.43,2.27.67,3.4.78,3.62,1.66,7.22,2.55,10.82,1.06,4.3,2.14,8.6,3.24,12.9.95,3.7,1.9,7.39,2.86,11.08.32,1.22.64,2.44.96,3.66.15.57.27,1.15.45,1.71,0,.02.01.05.02.07.01.05.11.14.08.04h0Z" fill="#010101"/><path d="m48.41,19.07c.75,1.25,1.51,2.51,2.26,3.76,1.82,3.02,3.63,6.04,5.45,9.06,2.23,3.71,4.46,7.42,6.69,11.13,1.98,3.29,3.96,6.59,5.93,9.89,1.08,1.8,2.17,3.6,3.23,5.42.04.07.08.13.11.2.05.09.08,0,.05-.06-.89-1.58-1.85-3.12-2.78-4.67-1.9-3.18-3.81-6.35-5.71-9.52-2.24-3.72-4.47-7.44-6.71-11.16-1.9-3.16-3.8-6.31-5.7-9.47-.62-1.03-1.24-2.06-1.86-3.1-.29-.47-.54-1.03-.88-1.46-.01-.02-.03-.04-.04-.06-.05-.09-.09,0-.05.06h0Z" fill="#010101"/><path d="m101.91,63.3c-4.25-1.74-8.84-2.63-13.4-3.06-.68-.06-1.36-.12-2.04-.15-.22-.01-.77-.14-.97-.04-.31.15.14.1.16.1.23,0,.52-.13.75-.19,5.8-1.52,11.59-3.14,17.29-5.02,2.98-.98,6.11-1.95,8.84-3.52.07-.04.03-.11-.04-.12-4.37-.63-8.91,0-13.22.76-4.05.72-8.06,1.69-12.01,2.82-.78.22-1.56.45-2.34.7.06.04.13.07.19.11,3.21-2.24,5.99-5.06,8.57-7.99,2.66-3.02,5.12-6.24,7.35-9.59.99-1.48,1.93-3,2.76-4.57.06-.11-.21-.08-.25-.05-8.27,5.37-15.28,12.36-22.22,19.3.09.02.18.04.26.06.99-1.23,1.64-2.77,2.27-4.2.97-2.22,1.83-4.49,2.64-6.77,1.78-4.97,3.39-10.01,4.87-15.08.52-1.77,1.04-3.54,1.45-5.34.03-.12-.23-.09-.28-.04-3.02,3.19-5.29,7.07-7.37,10.91-2.22,4.08-4.2,8.29-6.19,12.5-.88,1.85-1.74,3.71-2.7,5.52.1,0,.19.01.29.02,1.19-6.59,1.91-13.26,2-19.95.06-4.24-.19-8.45-.49-12.68-.1-1.37-.22-2.76-.15-4.14,0-.1-.27-.08-.29,0-2.63,9.43-4.81,19.03-5.74,28.79-.15,1.62-.27,3.25-.37,4.88,0,.1.28.08.3-.02.2-1.58-.19-3.29-.48-4.83-.48-2.58-1.11-5.13-1.78-7.67-1.52-5.76-3.27-11.47-5.31-17.06-.82-2.24-1.65-4.51-2.76-6.62-.05-.09-.28-.05-.29.04-.15,1.18-.04,2.41.04,3.59.13,2.14.35,4.27.61,6.39.66,5.53,1.57,11.04,2.8,16.48.67,2.95,1.44,5.88,2.42,8.74.1-.01.19-.03.29-.04-2.14-5.59-5.52-10.72-8.98-15.57-2.94-4.12-6.08-8.1-9.36-11.95-.66-.78-1.32-1.55-2-2.31-.06-.06-.33-.06-.28.06,2.97,8.18,6.62,16.28,11.08,23.76,1.67,2.79,3.48,5.52,5.63,7.97.09-.02.19-.04.28-.06-3.8-4.04-8.11-7.61-12.5-11-3.94-3.04-8-5.96-12.23-8.59-1.18-.73-2.4-1.55-3.71-2.04-.04-.02-.31,0-.24.09,1.17,1.7,2.54,3.26,3.91,4.79,1.89,2.11,3.85,4.17,5.84,6.18,4.09,4.15,8.31,8.23,12.83,11.9,1.4,1.14,2.93,2.5,4.65,3.15.08.03.36-.05.2-.12-7.14-3.21-14.52-5.75-22.09-7.76-3.5-.93-7.02-1.76-10.56-2.52-.07-.02-.33.06-.17.13,2.68,1.23,5.12,3.04,7.64,4.56,4.5,2.69,9.16,5.09,13.98,7.14,3.77,1.6,7.62,3,11.52,4.24.04-.05.09-.09.13-.14-8.78-.01-17.54-1.02-26.32-.26-2.33.2-4.66.52-6.91,1.16-.09.03-.15.11-.02.14,3.96,1.05,8.03,1.75,12.06,2.47,5.14.92,10.32,1.79,15.53,2.22,1.8.15,3.74.35,5.53,0-.04-.04-.08-.09-.13-.13-9.38,2.9-18.83,5.86-27.44,10.66-.1.05,0,.12.08.12,3.41,0,6.83-.41,10.19-.94,4.15-.65,8.28-1.55,12.28-2.86,2.03-.66,4.02-1.44,5.92-2.42l-.24-.07c-4.87,4.78-9.47,10.06-13.19,15.78-1.33,2.05-2.56,4.2-3.38,6.5-.04.12.21.08.25.05,1.48-.94,2.82-2.11,4.13-3.28,1.76-1.57,3.45-3.21,5.12-4.88,3.14-3.13,6.2-6.34,9.21-9.6.64-.69,1.27-1.38,1.9-2.07-.09-.01-.18-.02-.28-.04-2.49,4.94-4.24,10.53-4.77,16.03-.01.11.24.06.28.02.91-.98,1.61-2.19,2.3-3.33,1.11-1.83,2.16-3.7,3.19-5.57,2.07-3.78,4.07-7.61,5.94-11.49.3-.62.59-1.24.86-1.86.09-.21.33-.58.29-.82-.09.02-.18.04-.27.06.19.12.49.1.7.12.55.05,1.1.07,1.66.1,1.9.08,3.8.12,5.69.15,4.63.07,9.28.08,13.91-.15,1.6-.08,3.32-.1,4.88-.52.19-.05.05-.18-.09-.14-1.29.35-2.69.39-4.02.47-2.1.12-4.21.17-6.32.2-4.32.06-8.64.03-12.96-.12-.73-.03-1.47-.05-2.2-.1-.25-.02-.81.02-1.01-.1-.05-.03-.29-.05-.27.06.03.21-.18.54-.26.72-.22.52-.46,1.04-.71,1.55-.79,1.67-1.63,3.33-2.47,4.97-2.03,3.96-4.11,7.91-6.39,11.74-.81,1.36-1.62,2.85-2.71,4.02.09,0,.19.01.28.02.53-5.48,2.29-11.07,4.76-15.99.05-.11-.23-.09-.28-.04-4.94,5.46-10.01,10.85-15.44,15.83-1.54,1.41-3.11,2.85-4.87,3.96.08.02.17.04.25.05,1.51-4.27,4.3-8.08,7.07-11.61,2.44-3.11,5.06-6.07,7.8-8.93.55-.58,1.11-1.15,1.68-1.72.11-.11-.19-.1-.24-.07-3.09,1.59-6.44,2.66-9.8,3.53-3.42.88-6.9,1.54-10.4,2-1.51.2-3.02.36-4.53.48-.66.05-1.31.09-1.97.11-.25,0-.5.02-.75.02-.08,0-.49.06-.52,0,.08.12.8-.35.89-.4,3.9-2.11,7.98-3.85,12.14-5.39,4.71-1.75,9.5-3.24,14.3-4.72.17-.05-.03-.15-.13-.13-1.31.26-2.69.16-4.01.09-1.99-.12-3.96-.34-5.94-.6-4.6-.59-9.17-1.37-13.73-2.23-1.89-.36-3.77-.73-5.65-1.13-.69-.15-1.39-.3-2.08-.46-.29-.07-.57-.13-.86-.2-.1-.02-.2-.06-.29-.07-.28-.05-.33,0-.02-.03.5-.05,1.04-.26,1.54-.36.66-.14,1.32-.25,1.99-.35,1.33-.2,2.67-.33,4.01-.42,2.87-.2,5.76-.24,8.64-.2,5.52.07,11.04.53,16.56.54.05,0,.29-.09.13-.14-6.41-2.03-12.67-4.52-18.66-7.58-3.78-1.94-7.4-4.14-11.01-6.38-1.13-.7-2.26-1.43-3.47-1.98-.06.04-.11.09-.17.13,9.58,2.07,19.09,4.61,28.16,8.35,1.49.61,2.96,1.26,4.43,1.92.07-.04.13-.08.2-.12-1.48-.56-2.8-1.69-4.03-2.66-2.06-1.63-4.02-3.38-5.95-5.15-4.39-4.04-8.64-8.26-12.64-12.68-1.58-1.75-3.19-3.52-4.52-5.47-.08.03-.16.06-.24.09,1.13.42,2.18,1.11,3.2,1.73,1.81,1.11,3.58,2.29,5.33,3.5,4.54,3.13,8.94,6.47,13.13,10.05,2.33,1.99,4.59,4.06,6.69,6.29.07.07.35.02.28-.06-3.91-4.46-6.84-9.79-9.49-15.07-2.26-4.52-4.3-9.15-6.15-13.85-.37-.93-.73-1.86-1.07-2.8-.09.02-.19.04-.28.06,5.86,6.52,11.32,13.58,15.88,21.06,1.71,2.8,3.29,5.7,4.46,8.77.03.09.32.04.29-.04-1.81-5.26-2.96-10.76-3.91-16.23-.84-4.87-1.53-9.78-1.88-14.71-.1-1.39-.26-2.86-.08-4.26-.1.01-.19.03-.29.04.95,1.8,1.68,3.72,2.39,5.62,1.02,2.72,1.94,5.48,2.82,8.24,1.73,5.48,3.35,11.03,4.48,16.66.36,1.78.86,3.79.63,5.62.1,0,.2-.02.3-.02.49-7.84,1.69-15.57,3.45-23.23.8-3.49,1.7-6.96,2.66-10.4-.1,0-.2,0-.29,0-.16,2.9.3,5.87.46,8.76.29,5.19.25,10.39-.17,15.56-.33,4.16-.9,8.3-1.63,12.4-.02.13.25.1.29.02,4.04-7.7,7.21-15.84,11.91-23.19,1.28-2.01,2.68-3.96,4.32-5.69-.09-.01-.18-.02-.28-.04-.89,3.88-2.13,7.7-3.33,11.49-1.58,4.99-3.23,9.98-5.26,14.8-.72,1.72-1.45,3.6-2.63,5.07-.09.11.2.12.26.06,6.92-6.93,13.93-13.91,22.18-19.27l-.25-.05c-1.59,3.01-3.55,5.84-5.58,8.57-2.44,3.27-5.08,6.41-8,9.26-1.57,1.54-3.22,2.99-5.02,4.25-.14.1.13.13.19.11,2.49-.8,5.03-1.47,7.57-2.08,4.87-1.18,9.86-2.18,14.87-2.37,1.17-.05,2.35-.04,3.52.05.24.02.48.04.72.07.06,0,.48.08.45.03,0-.01-.08.01-.14.07-.27.22-.68.35-.99.5-1.64.78-3.36,1.41-5.07,2.01-4.2,1.48-8.47,2.74-12.75,3.95-2.62.74-5.25,1.46-7.89,2.14-.12.03-.13.14.01.15,5.5.1,11.24,1.15,16.32,3.23.09.04.36-.06.2-.12Z" fill="#010101"/><path d="m92.67,107.46c-.42,4.4-1.36,8.75-2.67,12.97-.42,1.36-.88,2.71-1.39,4.05-.15.39-.3.78-.46,1.17-.05.12-.12.45-.23.54-.11.09-.86.11-1.1.14-.52.07-1.04.13-1.55.2.05.08.11.16.16.24.44-.74.76-1.56,1.08-2.36.9-2.3,1.56-4.7,2.07-7.11.84-3.98,1.3-8.06,1.44-12.13.15-4.34-.08-8.86-1.34-13.04-.6-1.99-1.47-3.88-2.3-5.77-.92-2.08-1.78-4.19-2.77-6.24-1.91-3.96-4.1-7.78-6.48-11.47-.55-.85-1.12-1.69-1.67-2.55-.14-.22-.34-.47-.44-.71-.22-.53-.12-.6.05-1.02.08-.2.15-.47.23-.5.14-.06.61.07.75.08.76.06.95.37,1.4.97.73.96,1.4,1.97,2.04,2.99,2.34,3.73,4.44,7.65,6.42,11.58,4.38,8.69,7.66,18.11,6.77,27.98,0,.09.19.3.2.17,1.21-13.47-5.21-25.81-11.69-37.15-.98-1.7-1.99-3.39-3.14-4.99-.22-.31-.45-.62-.69-.93-.16-.2-.44-.71-.68-.83-.44-.23-1.11.04-1.58-.17-.03-.01-.06,0-.06.04-.02.42-.49.83-.48,1.23,0,.28.4.76.54.98.73,1.17,1.52,2.31,2.26,3.48,1.54,2.42,2.99,4.89,4.34,7.41,1.31,2.46,2.51,4.96,3.6,7.53,1.09,2.59,2.37,5.13,3.19,7.83,1.68,5.56,1.57,11.64,1.03,17.37-.4,4.22-1.12,8.45-2.41,12.49-.5,1.56-1.04,3.2-1.88,4.62-.04.07.08.25.16.24.45-.06.89-.12,1.34-.17.33-.04,1.06.01,1.34-.17.27-.18.44-.99.55-1.28,1.21-3.08,2.17-6.26,2.92-9.49.62-2.65,1.07-5.34,1.33-8.05,0-.09-.19-.3-.2-.17Z" fill="#010101"/><path d="m89.97,99.97c-.75-1.97-1.99-3.68-3.37-5.25-1.53-1.75-3.16-3.46-4.84-5.07-1.52-1.46-3.16-2.69-4.98-3.75-1.14-.66-2.75-1.72-4.14-1.41-.63.14-1.18.69-1.63,1.12-.6.57-1.15,1.19-1.68,1.82-.17.21-.35.42-.51.63-.02.03-.43.49-.01.36,0,0,.14-.35.19-.44.3-.56.71-1.07,1.1-1.57.67-.86,1.35-1.92,2.45-2.24,2.24-.65,4.76,1.26,6.47,2.44,2.36,1.63,4.74,3.37,6.74,5.44,1,1.04,1.93,2.15,2.83,3.27.2.26.51.54.66.83.21.41.24.91.29,1.36.09.79.16,1.58.21,2.37,0,.11.26.26.25.11-.05-.75-.11-1.49-.19-2.23-.06-.51-.04-1.14-.3-1.58-.34-.59-.89-1.13-1.32-1.65-.43-.52-.86-1.04-1.31-1.54-1.92-2.16-4.13-3.9-6.45-5.61-1.9-1.4-4.18-3.24-6.61-3.54-2.26-.28-3.57,1.73-4.69,3.4-.15.22-.83,1.04-.39,1.29.03.02.08.03.11,0,.7-.91,1.45-1.79,2.27-2.59.52-.5,1.15-1.17,1.91-1.24.87-.08,1.75.33,2.51.71,3.84,1.9,6.75,4.89,9.65,7.98,1.82,1.94,3.62,4,4.58,6.53.04.1.3.22.24.06Z" fill="#010101"/><path d="m70.66,86.99c-.13.66-.26,1.52,0,2.16.34.83,1.27.46,1.79,0,.74-.66,1.08-1.78,1.1-2.74.01-.51-.06-1.35-.6-1.57-.51-.21-1.11.3-1.45.61-.46.42-.75.93-.85,1.54-.03.15.27.12.29-.01.11-.63.43-1.15.94-1.55.34-.27.86-.6,1.16-.13.11.17.15.4.18.6.08.52,0,1.05-.12,1.56-.15.59-.41,1.18-.88,1.58-.53.46-1.16.55-1.34-.21-.14-.58-.05-1.27.07-1.85.03-.15-.27-.12-.29.01Z" fill="#010101"/><path d="m72.42,89.66c-.76.66-1.04,1.8-1,2.76.03.73.25,2.16,1.3,1.87,1.41-.39,1.52-1.97,1.47-3.2-.05-1.06-.58-2.2-1.76-1.43-.08.05.07.31.14.26.19-.12.46-.31.7-.28.4.06.69.7.73,1.06.06.58.03,1.24-.09,1.82-.15.71-.6,1.31-1.33,1.5-1.31.34-1.02-2.26-.75-2.97.16-.41.4-.84.73-1.13.07-.06-.09-.31-.14-.26Z" fill="#010101"/><path d="m68.57,88.89c-1.35.94-1.45,6.24.68,5.16,1.21-.61,1.33-2.82,1.16-3.98-.16-1.05-.76-1.95-1.84-1.19-.1.07.15.23.23.17,1.22-.86,1.4.96,1.39,1.81-.02.87-.23,2.7-1.23,3.04-1.62.55-1.27-4.07-.15-4.85.1-.07-.15-.23-.23-.17Z" fill="#010101"/><path d="m71.34,94.64c-.73-1.14-2.16-.93-2.58.37-.29.9-.18,2.06.15,2.94.19.52.71,1.33,1.37,1.05.67-.29,1.07-1.38,1.22-2.03.18-.73.18-1.6-.14-2.29-.05-.1-.29-.2-.2-.03.54,1.15.16,2.67-.57,3.66-.56.76-1.19.43-1.47-.33-.2-.52-.27-1.13-.28-1.68,0-.48.05-1,.28-1.43.42-.78,1.46-1.11,2.05-.19.08.12.28.13.17-.04Z" fill="#010101"/><path d="m65.45,89.3c.11-.56.33-1.17.72-1.59.28-.3.65-.48,1.06-.42,1.06.16.97,1.12.62,1.89-.34.73-.64,1.52-1.05,2.22-.21.35-.52.87-.98.62-.89-.47-.59-1.98-.37-2.73.02-.06-.04-.34-.08-.21-.22.77-.36,1.62-.11,2.4.11.35.39.92.84.91.53-.01.9-.96,1.07-1.33.28-.59.56-1.19.82-1.79.4-.94.34-2.59-1.18-2.28-.87.18-1.3,1.31-1.45,2.09-.01.06.06.34.08.21Z" fill="#010101"/><path d="m62.83,94.5c.16-.45.35-.91.61-1.32.13-.2.39-.59.65-.63.41-.06.65.39.73.69.2.77-.21,1.67-.56,2.34-.2.38-.41.8-.7,1.12-.22.24-.44.4-.7.16-.52-.48-.2-1.83-.03-2.36.05-.15-.11-.3-.17-.11-.16.5-.65,3.09.49,2.89.66-.11,1.16-1.32,1.39-1.82.39-.82.87-2.12.19-2.92-.95-1.12-1.85,1.23-2.07,1.85-.05.15.1.29.17.11Z" fill="#010101"/><path d="m65.11,95.99c.11-.47.26-.94.47-1.37.15-.3.39-.83.76-.91.7-.15.89.81.87,1.29-.04.83-.37,1.79-.82,2.47-.3.46-.89.89-1.34.33-.39-.49-.12-1.29.05-1.82.05-.15-.25-.18-.29-.04-.25.78-.44,2.71,1.01,2.35,1.08-.27,1.58-2.18,1.67-3.12.08-.81-.46-2.23-1.5-1.57-.7.45-1,1.58-1.18,2.34-.04.16.26.18.29.04Z" fill="#010101"/><path d="m66.19,99.75c.12-.51.3-1.03.54-1.49.18-.35.46-.84.89-.9.75-.09,1.13.88,1.14,1.48.02.61-.17,1.24-.41,1.8-.22.49-.9,1.81-1.59,1.5-.65-.29-.72-1.82-.58-2.39.04-.16-.26-.17-.29-.03-.17.73-.03,2.55.94,2.73.57.1,1.04-.5,1.32-.9.51-.72.88-1.64.91-2.53.04-.98-.85-2.53-1.96-1.69-.69.52-1.01,1.58-1.2,2.39-.04.16.26.17.29.03Z" fill="#010101"/><path d="m62.03,100.69c.24-.57.49-1.19.9-1.67.79-.92,1.49.29,1.57,1.05.09.91-.25,1.92-.74,2.68-.2.31-.46.58-.77.78-.48.32-.91.35-1.17-.3-.33-.81-.09-1.77.21-2.54.05-.14-.18-.31-.24-.15-.3.77-.85,3.55.66,3.53.69,0,1.31-.72,1.62-1.28.64-1.15,1.06-2.74.26-3.92-1.08-1.59-2.16.8-2.54,1.68-.06.14.17.31.24.15Z" fill="#010101"/><path d="m68.71,101.74c.16-.76.9-2.49,1.88-1.44.46.5.36,1.33.3,1.95-.06.66-.22,1.88-1.16,1.79-1.03-.11-1.13-1.61-1.01-2.33.03-.19-.21-.09-.23.05-.14.87.08,2.67,1.35,2.56.95-.08,1.18-1.19,1.27-1.95.09-.85.23-2.25-.8-2.59-1.11-.37-1.64,1.14-1.81,1.95-.04.19.18.18.22.02Z" fill="#010101"/><path d="m64.5,103.86c.19-.51.58-1.32,1.26-1.11.33.1.62.4.8.69.27.44.31.96.27,1.46-.08.82-.39,1.66-.8,2.37-.2.34-.73,1.05-1.22.72-.43-.29-.48-1.11-.53-1.57-.1-.87-.03-1.73.24-2.56.03-.1-.21.05-.23.13-.34,1.08-.39,2.27-.11,3.37.11.45.32,1.03.88.92.53-.1.98-.69,1.23-1.14.57-1.03,1.14-2.52.63-3.67-.26-.59-.9-1.16-1.57-.89-.57.24-.85.87-1.05,1.41-.03.09.2-.05.23-.13Z" fill="#010101"/><path d="m65.06,106.11c.53-.1,1.17-.39,1.35-.94.01-.05-.04-.03-.05,0-.16.51-.77.78-1.27.88-.03,0-.06.07-.02.06h0Z" fill="#010101"/><path d="m65.09,106.41c.52-.1,1.15-.38,1.32-.92.01-.04-.05-.07-.07-.03-.17.53-.79.8-1.29.89-.04,0,0,.07.03.06h0Z" fill="#010101"/><path d="m65.21,106.79c.42-.08.93-.31,1.07-.75,0-.02-.04-.07-.04-.06-.14.43-.65.66-1.07.74,0,0,.02.07.04.06h0Z" fill="#010101"/><path d="m65.19,107.15c.43-.08.96-.32,1.11-.77.01-.04-.05-.03-.06,0-.14.42-.63.64-1.03.72-.03,0-.06.07,0,.06h0Z" fill="#010101"/><path d="m69.47,102.14c.52-.1,1.15-.38,1.32-.92,0-.03-.03-.08-.05-.04-.17.53-.79.8-1.29.89-.03,0-.01.08.02.07h0Z" fill="#010101"/><path d="m69.45,102.43c.53-.1,1.16-.39,1.34-.94.01-.05-.04-.04-.05,0-.16.52-.79.78-1.28.88-.03,0-.05.07,0,.07h0Z" fill="#010101"/><path d="m69.56,102.8c.44-.08.97-.32,1.12-.78,0-.03-.06,0-.06.02-.14.42-.62.63-1.02.71-.02,0-.07.05-.03.05h0Z" fill="#010101"/><path d="m69.59,103.18c.42-.08.93-.31,1.08-.75,0-.02-.04-.07-.05-.05-.14.43-.65.66-1.07.74-.02,0,.02.07.04.06h0Z" fill="#010101"/><path d="m62.64,101.91c.52-.1,1.15-.38,1.32-.92,0-.02-.04-.08-.05-.05-.17.53-.79.81-1.3.9-.03,0,0,.07.03.06h0Z" fill="#010101"/><path d="m62.62,102.21c.52-.1,1.16-.39,1.33-.93.01-.04-.02-.08-.04-.03-.17.52-.79.79-1.29.89-.03,0-.04.08,0,.07h0Z" fill="#010101"/><path d="m62.76,102.57c.43-.08.94-.31,1.09-.76,0-.03-.06-.05-.07-.02-.14.43-.64.65-1.06.73-.04,0,.01.05.04.05h0Z" fill="#010101"/><path d="m62.75,102.96c.43-.08.94-.31,1.08-.76,0-.03-.04-.08-.05-.05-.14.43-.64.65-1.06.73-.03,0,0,.07.02.07h0Z" fill="#010101"/><path d="m67.07,100.18c.53-.1,1.16-.39,1.33-.95.02-.05-.02-.02-.03,0-.16.51-.79.78-1.28.87-.02,0-.04.07-.02.07h0Z" fill="#010101"/><path d="m67.08,100.48c.52-.1,1.16-.39,1.33-.93.01-.04-.04-.08-.05-.03-.17.52-.79.79-1.29.89-.04,0-.02.08.01.07h0Z" fill="#010101"/><path d="m67.19,100.85c.44-.08.96-.32,1.1-.77.01-.04-.05-.03-.07,0-.14.42-.63.64-1.04.71-.04,0-.05.07,0,.06h0Z" fill="#010101"/><path d="m67.2,101.22c.43-.08.95-.32,1.1-.77.01-.05-.05-.06-.06-.02-.14.42-.63.64-1.04.72-.04,0-.04.07,0,.06h0Z" fill="#010101"/><path d="m69.97,96.71c.53-.1,1.18-.39,1.36-.94,0-.03-.06,0-.06.02-.16.52-.76.78-1.26.88-.02,0-.07.05-.03.04h0Z" fill="#010101"/><path d="m69.99,97.03c.53-.1,1.16-.39,1.34-.94.01-.04-.03-.06-.05-.02-.16.52-.78.79-1.28.88-.03,0-.04.08-.01.07h0Z" fill="#010101"/><path d="m70.1,97.39c.44-.08.96-.32,1.11-.78.01-.03-.06,0-.07.02-.14.42-.63.64-1.03.71-.03,0-.06.06-.01.05h0Z" fill="#010101"/><path d="m70.12,97.77c.43-.08.94-.31,1.08-.76,0-.03-.03-.09-.04-.05-.14.43-.64.65-1.06.73-.03,0-.02.08.01.07h0Z" fill="#010101"/><path d="m65.38,96.65c.54-.1,1.16-.4,1.34-.96.01-.04-.03,0-.03.03-.16.51-.79.77-1.28.86-.02,0-.04.07-.03.07h0Z" fill="#010101"/><path d="m65.39,96.96c.53-.1,1.16-.39,1.34-.94.01-.05-.04-.04-.06,0-.16.52-.79.78-1.28.88-.03,0-.04.08,0,.07h0Z" fill="#010101"/><path d="m65.53,97.32c.43-.08.94-.31,1.08-.76,0-.03-.06-.06-.07-.03-.14.43-.64.65-1.06.73-.04,0,.01.06.04.05h0Z" fill="#010101"/><path d="m65.52,97.7c.43-.08.94-.32,1.09-.76,0-.03-.03-.08-.04-.03-.14.42-.65.65-1.05.72-.03,0-.02.08,0,.07h0Z" fill="#010101"/><path d="m63.09,95.67c.42-.14.72-.53.81-.95,0-.04-.05,0-.05.02-.08.39-.35.74-.74.87-.02,0-.05.07-.01.06h0Z" fill="#010101"/><path d="m63.09,95.97c.42-.14.73-.52.81-.95,0-.04-.05-.01-.06.01-.07.39-.35.75-.73.87-.02,0-.06.07-.02.06h0Z" fill="#010101"/><path d="m63.19,96.34c.33-.11.58-.42.64-.75,0-.03-.07-.05-.07-.02-.06.33-.3.63-.62.74-.03.01.03.05.05.04h0Z" fill="#010101"/><path d="m63.17,96.73c.34-.11.57-.42.64-.76,0-.02-.01-.09-.02-.05-.06.33-.3.63-.62.73-.02,0,0,.08,0,.07h0Z" fill="#010101"/><path d="m72.52,92.35c.52-.1,1.15-.38,1.33-.92.01-.03-.06-.06-.07-.03-.17.53-.78.8-1.29.9-.04,0,0,.06.03.06h0Z" fill="#010101"/><path d="m72.5,92.66c.53-.1,1.15-.39,1.33-.94.01-.04-.01-.05-.03,0-.16.52-.79.78-1.29.88-.02,0-.03.07-.01.07h0Z" fill="#010101"/><path d="m72.62,93.03c.43-.08.94-.32,1.09-.77.01-.03-.02-.07-.03-.03-.14.42-.64.64-1.05.72-.02,0-.03.08,0,.07h0Z" fill="#010101"/><path d="m72.61,93.4c.44-.08.96-.32,1.11-.78.01-.05-.04-.03-.05,0-.13.42-.63.63-1.03.71-.03,0-.06.07-.02.06h0Z" fill="#010101"/><path d="m68.58,92.27c.52-.1,1.16-.38,1.33-.92,0-.03-.06-.03-.07-.01-.17.52-.78.8-1.28.9-.05,0-.02.04.02.04h0Z" fill="#010101"/><path d="m68.55,92.58c.53-.1,1.18-.39,1.36-.94,0-.01-.06,0-.07.03-.16.51-.76.78-1.26.87-.02,0-.07.05-.04.04h0Z" fill="#010101"/><path d="m68.68,92.96c.44-.08.95-.32,1.1-.77.01-.04-.03-.05-.04-.01-.14.42-.64.64-1.05.71-.03,0-.04.08,0,.07h0Z" fill="#010101"/><path d="m68.68,93.34c.44-.08.95-.32,1.1-.77.01-.04-.04-.06-.06-.02-.14.42-.64.64-1.04.72-.04,0-.04.08,0,.07h0Z" fill="#010101"/><path d="m65.79,90.5c.52-.1,1.15-.38,1.32-.92.01-.03-.06-.06-.07-.03-.17.53-.79.8-1.29.9-.04,0,0,.06.03.05h0Z" fill="#010101"/><path d="m65.79,90.8c.52-.1,1.15-.38,1.32-.92,0-.03-.05-.08-.05-.05-.17.53-.79.81-1.3.9-.03,0,0,.07.04.06h0Z" fill="#010101"/><path d="m65.9,91.17c.43-.08.94-.31,1.09-.75,0-.03-.05-.07-.06-.04-.14.43-.64.66-1.06.73-.04,0,0,.07.03.06h0Z" fill="#010101"/><path d="m65.87,91.54c.44-.08.97-.33,1.12-.78.01-.04-.05,0-.06.02-.13.42-.62.63-1.03.71-.02,0-.06.06-.03.06h0Z" fill="#010101"/><path d="m71.51,88.08c.52-.1,1.15-.38,1.32-.92,0-.02-.01-.09-.03-.05-.17.53-.79.8-1.3.9-.02,0-.01.08,0,.07h0Z" fill="#010101"/><path d="m71.52,88.38c.51-.1,1.14-.38,1.31-.91,0-.02-.03-.07-.03-.06-.17.53-.8.81-1.31.91-.01,0,.01.07.03.07h0Z" fill="#010101"/><path d="m71.64,88.74c.43-.08.94-.31,1.09-.76,0-.03-.06-.06-.07-.03-.14.43-.64.65-1.05.73-.04,0,0,.06.04.05h0Z" fill="#010101"/><path d="m71.62,89.12c.44-.08.96-.32,1.11-.77.01-.04-.05-.04-.07,0-.14.42-.63.64-1.04.72-.04,0-.05.07,0,.06h0Z" fill="#010101"/></svg>