<?xml version="1.0" encoding="UTF-8"?><svg id="Layer_1" xmlns="http://www.w3.org/2000/svg" viewBox="0 0 144.57 144.57"><path d="m98.62,37.36c2.93-1.34,5.85-.98,8.77-.61,1.01.13,2.05.04,3.08.09.57.03,1.33-.12,1.48.68.14.77-.48,1.14-1.08,1.39-1.38.57-2.74,1.15-3.9,2.12-.11.09-.24.16-.34.26-2.63,2.52-5.5,4.59-9.39,4.77,1.07.77,1.77,1.81,2.77,2.52,2.25,1.61,4.47,1.26,6.07-.97.2-.28.37-.68.82-.43.41.23.43.66.25,1.03-.71,1.46-1.96,2.39-3.33,3.15-.99.55-2.09.68-3.2.5-.52-.08-.78-.06-.74.59.19,3.58-1.38,6.43-3.81,8.9-.4.41-.64.52-.88-.13-.78-2.15-2.02-4.05-3.34-5.9-.9-1.26-1.4-2.67-1.38-4.45-1.72,1.52-3.48,2.65-4.62,4.45-.76,1.21-1.11,2.44-.54,3.83.07.16.08.34.11.52.08.5,0,.94-.55,1.12-.59.2-.86-.2-1.02-.66-.69-2.03-.67-4.03.27-5.99.24-.5.57-.97.91-1.55-.96-.02-1.83.16-2.69-.03-.37-.08-.5.06-.48.45.29,5.59.57,11.19.85,16.78,0,.09.07.18.15.36.86-1.5,1.66-2.95,2.99-4.02,1.96-1.58,3.97-2.12,6.23-.66.29.19.64.37,1,.23,1.38-.52,2.53.04,3.54.84,1.89,1.5,3.83,2.92,5.86,4.23.42.27.83.54.83,1.14-.43.32-.88-.24-1.38.09,1.47,1.69,1.94,3.63,1.41,5.81-.07.27-.15.55-.25.81-.08.2-.21.4-.46.35-.21-.04-.25-.26-.25-.42,0-1.56-1.27-1.81-2.42-2.34.15.72.29,1.36.41,2.01.09.53.12,1.07-.18,1.55-.36.58-.76.76-1.17.03-.29-.52-.58-1.04-.91-1.64-.22.45.05.73.15,1.01.16.44.32.88.23,1.34-.09.48-.17,1.12-.66,1.24-.59.14-.62-.57-.82-.94-.66-1.22-1.41-2.38-2.2-3.51-.47-.67-.91-1.35-1.16-2.14-.09-.28-.09-.7-.59-.31-.29.23-.33-.1-.35-.3-.06-1.03-.61-1.87-1-2.78-.56-1.3-.8-2.65-.21-4.01.18-.41,0-.55-.28-.77-1.38-1.06-2.94-.96-4.45.34-.9.77-1.59,1.72-2.12,2.77-.6,1.2-1.16,2.43-1.66,3.68-.34.86-.24,1.81-.28,2.72-.37,8.36-.73,16.71-1.85,25.01-1.06,7.85-2.84,15.52-5.36,23.03-.28.83-.53,1.69-1.19,2.35-.56.55-1.16.69-1.82.28-.63-.39-.76-1.01-.5-1.68,1.83-4.58,2.83-9.42,4.39-14.09,1.09-3.27,1.37-6.72,1.95-10.11,1.55-9,2.05-18.09,2.52-27.19.12-2.24.21-4.49-.14-6.69-.45-2.85-1.79-5.2-4.57-6.48-.37-.17-.63-.18-.95.1-2.53,2.19-5.32,3.63-8.81,3.01-.08-.01-.18.07-.26.1.02.47.37.38.63.42,2.64.43,4.25,2.02,4.88,4.55.43,1.71,1.16,3.16,2.48,4.35,1.48,1.33,1.66,3.22,1.96,5.04.03.17-.04.35-.22.44-.2.1-.33,0-.43-.17-.51-.85-1.36-.9-2.22-.99-2.09-.23-4.15-.58-5.91-1.85-.35-.25-.54-.21-.74.17-.25.47-.58.89-.84,1.35-1.17,2.08-3.12,3.23-5.11,4.33-.43.24-.93.37-1.43.35-.41-.02-.82-.14-.91-.58-.1-.47.23-.73.65-.82,3.19-.7,4.09-3.41,5.21-5.92.27-.61.17-1.1-.33-1.62-1.32-1.37-2.01-3.05-2.11-5.12-1.2,2.34-3.4,2.37-5.43,2.53-3.21.27-6.11,1.39-8.91,2.86-.22.11-.43.37-.66.16-.24-.22.01-.44.15-.64.32-.48.53-1,.6-1.58-.37-.23-.77-.1-1.14-.07-2.29.21-4.21-.74-6.08-1.87-.46-.28-.78-.75-.44-1.25.36-.53,1.03-.52,1.4-.1,1.96,2.22,4.4.77,6.61.93.51.04.53-.49.66-.84,1.24-3.15,3.3-5.49,6.53-6.7,1.01-.38,2.06-.44,3.28-.46-.39-.49-.75-.86-1.01-1.28-1.61-2.55-1.99-5.28-.94-8.13.21-.56-.08-.66-.39-.89-1.44-1.09-3.02-1.83-4.84-2.02-.28-.03-.55-.13-.83-.19-.53-.12-1.19-.31-1.12-.91.08-.7.79-.85,1.42-.8,2.07.17,4.09.6,5.79,1.87.8.59,1.24.69,1.6-.4.29-.87.85-1.63,1.41-2.36.38-.5.69-.45.92.11.4.98.79,1.97,1.15,2.97.36,1.03.89,1.96,1.77,2.6,1.95,1.41,2.73,3.36,2.78,5.69,0,.1.05.19.11.4,1.52-2.02,3.52-3.12,5.88-3.6.46-.09.46-.45.54-.8.49-2.02.93-4.04.67-6.14-.05-.45.14-.88.63-.97.58-.11.8.33.97.77.19.48.19.96.13,1.46-.19,1.58-.34,3.17-.57,4.74-.1.69.36.47.65.46,1.45-.05,2.82.25,4.14.81.23.1.6.12.61.5,0,.35-.29.44-.55.56-1.37.58-2.13,1.7-2.7,3-.21.47-.17.83.33,1.04,1.33.56,2.39,1.49,3.37,2.46.31-.07.25-.27.25-.43-.1-2.76-.24-5.53-.29-8.29-.02-.8-.29-1.16-1.08-1.16-.6,0-1.2-.01-1.8-.03-.17,0-.37-.03-.44-.22-.07-.2.07-.31.21-.44,3.54-3.25,2.72-1.96,2.16-6.52-.23-1.89-.49-3.79-1.23-5.59-.27-.65-.56-.94-1.33-.74-2.16.54-4.04-.18-5.77-1.45-.31-.23-.61-.47-1.18-.92,1.85,3.96,1.06,7.63.08,11.3-.07.26-.02.62-.41.65-.41.04-.38-.35-.46-.59-.38-1.22-.73-2.44-1.31-3.59-.17-.33-.24-.61-.76-.35-1.6.79-3.17.39-4.5-.56-1.04-.74-2.31-1.08-3.23-2.01-.25-.25-.57-.46-.62-.83-.26-2.14-.07-4.19,1.32-5.95.26-.32.61-.62.98-.79.74-.34.87-.63.19-1.23-1.57-1.39-2.43-3.19-2.84-5.23-.39-1.94-.96-3.87-.52-5.88.04-.21,0-.58.36-.53.32.04.3.34.29.59-.11,2.95,1.71,4.78,3.82,6.36,1.55,1.16,3.33,2.04,4.45,3.74.37-.38.32-.8.41-1.17.84-3.47,2.61-6.25,5.84-7.96.27-.14.62-.49.85-.2.33.42-.22.56-.44.79-1.03,1.07-1.82,2.25-2.01,3.77-.1.77-.24,1.53-.36,2.25.14.19.29.12.42.09,2.12-.44,3.63.17,4.79,2.05.75,1.2,1.5,2.41,2.09,3.7.45.98.98,1.09,1.89.74.37-.14.92-.7,1.2-.19.28.49-.35.91-.74,1.14-1.25.73-1.18,1.61-.74,2.83.67,1.83,1.01,3.76,1.1,5.72.02.35.05.7.24,1.04,1.28-1.89,3.22-2.81,5.33-3.73-1.53-1.28-2.5-2.84-3.08-4.67-.94-2.96-1.05-5.9-.11-8.88.2-.64.49-.87,1.13-.78.68.09.62.6.61,1.04-.01.67-.1,1.34-.15,2.01-.1,1.39.2,2.66,1.19,3.83.56-2.02,1.13-3.94,1.62-5.88.26-1.01.64-1.95,1.21-2.82.44-.68.94-.67,1.43-.02.36.48.44,1.04.44,1.61,0,2.68.59,5.18,1.98,7.5,1.03,1.72,1.79,3.54,1.4,5.92,2.11-2.51,2.74-5.04,2.07-7.87-.23-1-.62-1.96-.92-2.94-.1-.34-.23-.76.14-.97.42-.24.74.13.98.43.22.27.37.6.5.93.83,2.14,1.81,4.24,1.78,6.74Zm-16.59,35.62c.06-.65.18-1.21.14-1.76-.51-8.91-.54-17.86-1.93-26.71-.31-2-.65-3.98-1.26-5.91-.08-.26-.01-.77-.51-.62-.55.16-.22.57-.11.87,1.41,4.08,1.93,8.33,2.19,12.6.2,3.36.18,6.73.45,10.09.45,5.35.58,10.69.26,16.04-.48,8.03-1.02,16.06-2.38,24-.46,2.69-.63,5.44-1.47,8.04-1.42,4.42-2.38,8.97-3.98,13.33-.32.86-.57,1.75-.84,2.63-.15.47-.18.94.42,1.13.52.17.89-.03,1.11-.53.21-.48.5-.94.66-1.44,1.85-5.69,3.61-11.41,4.42-17.37.13-.98.21-1.98.43-2.94,1.46-6.43,1.6-13.01,1.96-19.54.19-3.36.46-6.72.56-10.08,0-.21.05-.43.13-.62.97-2.16,1.64-4.49,3.23-6.31,2.18-2.51,4.18-2.9,6.65-1.07.43.32,1.25.68-.04.98-.36.08-.4.49-.43.8-.2,1.71.48,3.17,1.36,4.8.45-1.7.93-3.14.51-4.7-.07-.28-.23-.7.12-.87.34-.16.53.25.78.43,2.2,1.53,4.55,2.7,7.51,3-1.97-1.27-3.61-2.59-5.25-3.91-.61-.49-1.25-.94-2.02-1.15-.31-.08-.73-.28-.91-.04-.67.85-1.2.22-1.8-.06-2.84-1.29-3.46-1.35-6.19.75-1.67,1.28-2.35,3.23-3.09,5.12-.14.36-.04.88-.7,1.04Zm-14.79-7.65c.24.66.49,1.22.64,1.8.61,2.35.25,4.64-.58,6.87-.28.75-.16,1.19.54,1.67,2.08,1.4,4.43,1.6,6.98,1.84-1.05-1.17-2.03-2.1-3.24-2.8-.98-.57-1.97-1.13-2.76-1.95-.24-.25-.67-.45-.41-1.06,2.04,1.99,4.79,2.92,6.69,5.04-.15-1.3-.8-2.28-1.68-3.11-1.11-1.05-1.81-2.26-2.16-3.79-.48-2.11-1.54-3.88-4.02-4.49Zm22.56-38.73c-1.83,3.91-1.69,7.9-.62,11.87.48,1.79,1.7,3.14,3.24,4.21.73.51.86.16.99-.45.49-2.37.05-4.6-1.19-6.64-1.48-2.44-2.11-5.07-2.12-7.89,0-.36.14-.78-.3-1.1Zm21.57,11.3c-.62.22-1.14.43-1.67.58-3.29.97-6.63,1.74-10.01,2.32-1.87.32-3.34,1.31-4.31,2.98-.26.45-.72.92-.39,1.45.35.54,1,.69,1.61.58,2.98-.54,5.86-1.26,8.14-3.51,1.67-1.64,3.58-3,5.86-3.73.31-.1.59-.24.76-.68Zm-15.7,22.31c.09-1.44.15-2.89.28-4.33.26-2.85.03-5.58-1.64-8.04-.47-.69-1.06-.85-1.63-.23-2,2.21-2.2,4.6-.55,7.09,1.19,1.79,2.46,3.53,3.54,5.5Zm-12.99-10.95c-.15.15-.28.34-.46.44-.69.42-.66,1.03-.45,1.67.2.63.82.65,1.31.65,3.49.02,6.43-1.22,8.7-3.92.23-.28.75-.6.35-1.08-.39-.47-.65-1.05-1.47-1.02-3.08.08-5.73,1.15-7.97,3.26Zm-20.73-8.78c.2,2.07,2.06,3.37,4.03,2.95.65-.14.93-.51.67-1.15-.17-.42-.4-.83-.62-1.23-.99-1.79-1.12-3.7-.81-5.66.16-1.03-.45-1.61-1.49-1.27-.43.14-.83.4-1.19.67-1.93,1.49-2.25,3.66-2.42,5.88-.03.33.17.6.46.79,1.08.73.91-.48,1.38-.98Zm34.06,20.1c3.5-3.51,4.05-7.4,2.81-11.69-.49-1.71-1.73-2.48-3.41-2.76-.84-.14-.95.31-.81.91.09.4.33.78.57,1.13,1.12,1.7,1.42,3.57,1.35,5.57-.08,2.18-.16,4.37-.5,6.84Zm15.06-23.09c-1.91-.29-3.57-.11-5.23-.36-3.3-.51-6.51-.05-9.29,2.01-1.23.91-2.32,1.98-2.62,3.59-.07.37-.21.8.3,1.01.46.19.75-.07.96-.42,1.21-2.02,3.09-2.92,5.32-3.27,3.49-.55,6.91-1.41,10.57-2.56Zm-54.08,28.72c.46-.25.94-.47,1.38-.75.29-.18.86-.2.64-.77-.17-.44-.58-.45-.99-.42-1.29.1-2.38.66-3.33,1.49-2.85,2.5-5.97,4.19-9.94,4.06-1.4-.05-2.67-.02-3.66-1.15-.16-.18-.43-.36-.64-.13-.24.27.04.49.25.58,1.26.52,2.35,1.42,3.78,1.62,1.8.25,3.54.05,5.21-.61,2.12-.83,4.28-1.46,6.55-1.68.56-.05,1.12-.2,1.65-.36,1.85-.57,1.94-.71,1.82-2.7-.9.32-1.71.84-2.7.82Zm9.35-.76c-.12.34-.14.62-.28.8-.64.81-.48,1.5-.01,2.38.51.96.49,2.06-.2,3.03.11-.89.2-1.76-.19-2.61-.29-.64-.56-1.48-1.49-1.1-.88.37-.3,1.07-.12,1.62.53,1.65,1.27,3.26.65,5.05-.47,1.34-.99,2.66-1.83,3.81-.91,1.24-1.88,2.41-3.56,2.64-.17.02-.46.03-.45.34,1.46.52,4.66-1.51,6.31-4,2.86-4.32,3.42-9.49,1.17-11.96Zm3.21-19.71c1.04-3.97,1.38-7.85-1.79-11.17-.27-.29-.35-.92-.89-.74-.47.15-.79.59-.93,1.09-.1.34-.16.69-.2,1.04-.33,2.62,1,6.48,3.16,9.04.04-3.19-2.02-5.98-1.62-9.24.18.09.3.11.3.14.26,2.37.95,4.63,1.66,6.88.3.95.12,1.97.31,2.95Zm-7.62,11.03c.07,0,.15,0,.22-.01.07,1.16.13,2.32.2,3.63.73-.7,1.69-.86,1.53-2.01-.13-.88-.19-1.75-.64-2.54-.1-.18-.2-.37-.33-.54-1.09-1.49-2.2-2.95-3.74-4.02-2.53-1.76-5.02-3.6-8.26-3.81-.34-.02-.85-.2-.94.2-.09.45.47.46.78.5,2.13.25,3.87,1.28,5.73,2.29,3.07,1.67,4.07,4.12,3.86,7.36-.04.6-.07,1.21.09,1.79.1.37.22.74.76.71.58-.04.53-.44.55-.82.05-.91.11-1.82.17-2.73Zm8.06,2.91c-.85.84-1.65,1.77-2.88,2.06-.56.14-.63.58-.53.99.14.59.58.22.85.13,2.95-1.04,4.91-3.16,5.71-6.1.77-2.82,1.09-5.76,1.32-8.68.02-.24-.02-.5-.07-.74-.05-.24-.13-.53-.44-.51-.35.02-.34.34-.31.57.24,2.07-.27,4.05-.7,6.05-.15.7-.3,1.38-.7,1.98-1.43,2.13-3.04,4.03-5.8,4.43-.58.08-.79.33-.4.91.46.66,1.22.72,2.2.07.58-.38,1-1,1.75-1.16Zm-21.04,9.04c2.03-.63,3.48-1.95,5.01-3.14,1.16-.9,2.37-1.79,3.89-1.78,1.25,0,1.01-.83,1.05-1.51.06-.89-.62-.78-1.18-.77-3.88.1-7.72,3.21-8.77,7.19Zm9.66-15.99c-1.28-1.35-1.57-1.38-1.96-.46-1,2.31-.13,6.37,1.71,8.09.37.35.79.61,1.31.6.4,0,.75-.12.49-.63-.48-.97-.37-1.98-.29-3.01.15-1.84-.28-3.5-1.27-4.59Zm8.68,10.83c2.51.6,6.81-1.37,8.07-3.8.78-1.5,1.21-3.2,2.63-4.35-.46-.03-.86-.04-1.21.09-1.56.6-3.06,1.07-3.84,2.95-.88,2.11-2.51,3.74-4.75,4.62-.31.12-.67.19-.9.5Zm16.43-18.38c-1.22,1.28-2.03,2.22-2.26,3.5-.04.25-.15.55.08.69.26.15.45-.13.61-.3,1.09-1.14,2.36-1.98,3.85-2.56,1.34-.52,2.72-.73,4.13-.9.33-.04.83.1.93-.29.1-.42-.35-.64-.67-.86-1.91-1.26-5.26-.74-6.68.71Zm5.14-17.94c-.38.08-.39.43-.45.67-.74,2.61-1.59,5.21-2.15,7.86-.69,3.29,1.45,6.17,4.6,6.5-3.52-4.62-3.62-9.71-2-15.03Zm-.84,14.68c-1.65-1.49-2.24-3.25-2.28-5.24-.01-.87-.23-1.66-.76-2.38-.67-.93-.82-2.02-.73-3.14.05-.67.14-1.34.2-2.01.02-.23.13-.54-.22-.62-.35-.08-.52.16-.58.47-.17.83-.43,1.66-.48,2.5-.18,3.6.38,7,3.01,9.74.44.46.9.89,1.84.7Zm-13.69-10.12c-1.92-1.91-3.93-1.51-4.68.6-.15.42-.09.58.31.68,1.16.3,2.1.99,3.05,1.67.85.6,1.77,1.04,2.84,1.06.39.01.65-.04.42-.53-.61-1.31-1.17-2.66-1.94-3.48Zm19.86,38.94c-.25,1.34-.82,2.52-.3,3.77.99,2.34,2.68,4.26,3.88,6.64.6-1.69-1.91-8.84-3.59-10.41Zm-46.59,1.92c3.15-1.2,6.17-2.63,9.59-2.65.73,0,1.46-.26,2.17-.46.56-.15,1.05-.45,1.35-.97.17-.28.53-.58.17-.93-.34-.34-.67-.19-1.03.09-.86.67-1.86,1.07-2.92,1.18-2.66.27-5.2.91-7.72,1.81-1.09.39-1.36,1.02-1.61,1.93Zm12.49-25.92c-.46,1.04-.37,2-.08,2.96.41,1.37,1.1,2.57,2.1,3.62,1.44,1.53,2.5,3.25,2.3,5.49-.02.26-.33.72.16.8.45.07.48-.44.58-.75.71-2.13-.11-4.98-1.95-6.43-1.25-.99-2.02-2.24-2.48-3.72-.2-.66-.42-1.32-.63-1.97Zm21.26.82c1.27-2.43,2.91-3.72,5.2-4.2,2.58-.54,4.28.27,5.41,2.63.27.57.7.78,1.27.75.64-.04,1.03-.43,1.2-1.03.32-1.14-.46-1.59-1.28-2-3.81-1.9-7.66-1.4-10.83,1.45-.64.58-1.29,1.25-.98,2.4Zm-22.76-22.46c.05,2,.45,3.91,1.64,5.56,1.27,1.75,2.92,2.85,5.11,3.03.34.03.76.08.87-.37.07-.31-.16-.49-.46-.61-2.95-1.18-5.12-3.18-6.38-6.13-.22-.51-.52-.99-.78-1.48Zm41.13,54.5c1.15-2.14-1.97-8.19-4.48-8.48,1.81,2.7,2.16,6.05,4.48,8.48Zm-30.43-45.19c.97-.31,1.65.22,2.33.75,1.74,1.36,3.65,2.04,5.87,1.43-1.13-.13-2.29-.06-3.35-.58-1.05-.52-1.99-1.2-2.97-1.84-.93-.61-1.96-.71-3.05-.46,3.68,4.31,7,5.48,10.28,3.49-.48.06-.81.11-1.15.15-1.73.18-3.4.03-4.89-.97-1.01-.67-1.9-1.53-3.08-1.98Zm-3.61,25.1c3.3-.27,5.43-2.79,6.24-4.72-2.99.57-5.71,2.63-6.24,4.72Zm28.58,9.15l-.17.24c.06.12.1.26.18.36.6.82,1.38,1.34,2.37,1.67,2.29.76,4.42,1.78,5.33,4.3.28.77.57,1.53.83,2.56.66-3.69-.36-5.43-3.62-6.54-.23-.08-.45-.2-.68-.29-1.51-.57-2.9-1.36-4.23-2.3Zm-26.77-37.56c.91-1.01,2.56-1.31,2.84-2.91.26-1.51.53-3.02,1.19-4.43-2.5,1.81-3.62,4.36-4.02,7.34Zm-3.21,34.39c.58-.47.87-.83.7-1.35-.07-.23-.18-.54-.5-.26-.34.29-.68.49-.95,0-.24-.44-.01-.73.46-.85.25-.06.31-.25.23-.5-.27-.85-1.13-1.01-1.72-1.49-.12-.1-.26-.02-.32.15-.01.03-.03.07-.03.1-.11.49-.5.72-.87,1.01-.87.65-.81,1.59.08,2.08.22.12.2.35.26.55.43,1.42.77,1.57,2.07.93.28-.14.55-.32.59-.35Zm-4.32-39.11c.95,2.8,4.36,5.73,6.41,5.62-1.41-2.64-4.23-3.56-6.41-5.62Zm24.87,33.87c-1.53-4.37,1.38-6.61,4.27-9.02-2.29.68-4.28,1.48-4.85,3.93-.39,1.71-.67,3.45.58,5.09Zm-17.38-27.86c.75-.57,1.48-1.18,2.27-1.69,2.09-1.33,4.41-.76,5.65,1.38.49.86.88,1.77,1.33,2.66.18.34.37.68.59,1,.1.14.33.19.47.05.07-.07.07-.29.01-.37-1.05-1.6-1.6-3.49-2.85-4.96-.64-.75-1.53-1.24-2.53-1.15-2.11.2-3.78,1.25-4.94,3.08Zm31.93,16.49c.34,2.55.45,2.43,2.36,2.46,2.12.03,3.48-1.37,4.76-2.83.1-.11.25-.34.03-.53-2.5,2.61-3.33,2.71-7.16.9Zm-40.04-8.43c.5-1.34.5-2.65,1.04-3.8.56-1.2,1.44-2.1,2.68-2.82-1.21-.46-1.7-.32-2.6.62-1.37,1.42-1.93,4.14-1.12,6Zm36.62-9.88c.94,2.54,1.31,5.1.42,7.8,1.73-.74,1.85-.86,1.54-2.59-.33-1.84-1.08-3.55-1.96-5.21Zm-30.49,30.23c-.58-.82-1.4-.54-2.14-.45-.38.05-.26.42-.04.54.97.53,1.48,1.35,1.74,2.39.06.23.19.47.51.44.3-.03.4-.27.49-.49.37-.94-.06-1.7-.55-2.41Zm36.28,15.51c-.75-1.92-1.65-3.52-3.8-4.13.98,1.67,1.58,3.52,3.8,4.13Zm-37.46-3.4c-.07-1.9-1.18-3.3-1.01-4.98.03-.31-.21-.31-.43-.2-.43.21-.58.57-.56,1.04.08,1.58.78,2.86,2,4.14Zm13.37-18.28c-.78-.32-1.42-.33-2.05-.37-1.62-.09-1.85.16-1.6,1.86.59-.28,1.14-.58,1.72-.82.57-.24,1.17-.41,1.92-.68Zm-16.16,6.31c-.17-.11-.33-.03-.5.02-1.28.36-2.08,2.02-1.53,3.23.05.12.16.26.27.3.22.06.34-.14.34-.3.02-1.18.64-2.02,1.45-2.78.13-.13.13-.32-.03-.46Zm3.64,6.12c.07-.09.18-.19.25-.31.27-.49.73-1.13.31-1.53-.46-.44-.73.39-1.12.59-.12.06-.21.18-.33.25-.45.27-.91.6-.46,1.14.44.54.93.29,1.36-.16Zm-5.49-16.25c-.23-1.22-.61-2.29-.48-3.64-1.48,2.3-1.44,2.61.48,3.64Zm1.05,16.12c.4.15.98.75,1.4.43.42-.32-.25-.81-.44-1.23-.1-.22-.23-.44-.38-.63-.14-.17-.08-.55-.45-.48-.32.06-.44.33-.49.62-.08.43-.05.84.36,1.29Zm19.89-2.27c-.01-1.6-2.96-4.76-4.22-4.72-.09,0-.22.06-.25.13-.11.21.04.3.21.39.53.27,1.07.54,1.58.84,1.26.74,1.94,1.97,2.68,3.37Z"/><path d="m66.67,62.8c-.09.43-.39.66-.8.69-.4.02-.68-.22-.7-.62-.03-.42.29-.65.65-.69.42-.05.73.19.86.63Z"/><path d="m66.83,61.42c-.19.34-.43.5-.73.41-.37-.11-.41-.45-.35-.78.04-.21.17-.43.42-.34.35.12.54.41.65.71Z"/><path d="m67.37,60.36c.41.06.47.32.49.62.01.27-.06.54-.36.55-.3,0-.54-.16-.53-.53.01-.31.13-.54.4-.64Z"/></svg>