<?xml version="1.0" encoding="UTF-8"?><svg id="Layer_1" xmlns="http://www.w3.org/2000/svg" viewBox="0 0 144.57 144.57"><path d="M85.11,70.39c0-2.33-.01-4.67.01-7,0-.35-.19-.49-.4-.62-1.85-1.1-3.71-2.18-5.56-3.26-.3-.17-.61-.32-.88-.53-.15-.12-.47-.26-.29-.51.14-.2.38-.34.7-.15.84.51,1.71.96,2.56,1.45,1.24.72,2.48,1.46,3.7,2.21.43.26.71.16,1.07-.15.66-.58,1.39-1.07,2.08-1.62,1.15-.92,2.28-1.88,3.46-2.77.58-.44.46-.59.87.14.37.65.76,1.29,1.15,1.94.14.23.2.34-.18.47-1,.34-1.96.8-2.94,1.2-1.33.54-2.65,1.09-3.99,1.59-.39.14-.48.32-.48.7.01,4.79,0,9.59.02,14.38,0,.37-.09.56-.45.75-1.67.91-3.3,1.87-4.95,2.81-1.33.76-2.66,1.51-3.99,2.26-1.22.69-2.45,1.38-3.67,2.08-.19.11-.3.25-.27.5.08.62.15,1.24.23,1.86.12.95.25,1.89.37,2.84.11.92.2,1.84.32,2.75.09.71.09,1.44.24,2.14.04.19-.14.25-.32.25-.89,0-1.79,0-2.68,0-.23,0-.27-.09-.25-.28.07-.65.13-1.31.2-1.96.08-.72.19-1.43.28-2.14.13-1.01.29-2.02.37-3.03.07-.8.19-1.59.31-2.38.04-.27-.05-.42-.26-.54-.75-.42-1.47-.93-2.22-1.32-2.81-1.46-5.49-3.14-8.27-4.66-.78-.43-1.54-.91-2.33-1.33-.15-.08-.19-.15-.16-.28.15-.62.06-1.24.06-1.86.02-4.28.02-8.57.03-12.85,0-.42-.24-.59-.55-.74-1.73-.83-3.47-1.66-5.2-2.49-2.53-1.22-5.07-2.43-7.6-3.66-.58-.28-1.04-.32-1.64.06-1.55.98-3.17,1.86-4.77,2.77-.23.13-.55.32-.72-.07-.13-.3.03-.48.32-.66,2.28-1.42,4.67-2.68,6.98-4.06.36-.22.51-.58.76-.87.1-.12.17-.33.41-.13.91.76,1.92,1.37,2.89,2.04,1.86,1.3,3.74,2.6,5.61,3.9,1.2.83,2.38,1.7,3.62,2.48.23.14.39.16.6.04,1.9-1.12,3.79-2.23,5.68-3.35.26-.15.54-.29.81-.42.26-.12.46-.13.62.19.15.31-.01.39-.24.52-.84.49-1.66,1.02-2.5,1.51-.49.29-.98.58-1.47.86-.72.41-1.4.9-2.15,1.25-.42.2-.61.45-.61.94.01,4.62,0,9.24,0,13.86,0,.48.23.75.63.94,1.47.72,2.86,1.58,4.28,2.38,1.59.9,3.2,1.78,4.79,2.68.87.49,1.71,1.05,2.6,1.51.35.18.66.18.98,0,1.09-.62,2.18-1.23,3.27-1.85,1.25-.71,2.49-1.42,3.74-2.14,1.23-.71,2.46-1.42,3.7-2.12.41-.23.82-.45,1.24-.66.37-.19.47-.49.47-.88,0-2.3,0-4.6,0-6.9,0,0,.01,0,.02,0Z" fill="#020303"/><path d="M50.87,80.87c.22-.02.33.11.42.27.39.69.82,1.36,1.17,2.07.15.31.16.49-.17.66-.32.17-.41,0-.55-.26-.39-.73-.82-1.43-1.23-2.15-.17-.31,0-.59.35-.59Z" fill="#020303"/><path d="M94.25,81.47c0,.07-.04.13-.08.2-.42.76-.83,1.53-1.3,2.26-.09.14-.19.32-.33.14-.13-.16-.56-.16-.34-.54.45-.76.91-1.52,1.33-2.3.12-.23.29-.18.43-.15.17.04.3.17.29.39Z" fill="#020303"/><path d="M92.68,80.74c-.09.18-.18.36-.29.53-.31.49-.57,1-.86,1.5-.13.23-.32.3-.55.14-.2-.13-.34-.28-.18-.54.36-.59.71-1.18,1.04-1.78.11-.2.26-.24.43-.17.16.07.37.11.41.33Z" fill="#020303"/><path d="M54.33,82.27c-.13.1-.26.22-.42.31-.13.07-.24.01-.32-.11-.38-.64-.77-1.28-1.14-1.93-.12-.21.12-.25.23-.33.16-.12.38-.18.49,0,.38.62.72,1.27,1.08,1.91.02.04.04.08.07.16Z" fill="#020303"/><path d="M91.01,80.08c-.03.05-.06.1-.09.16-.25.46-.49.94-.76,1.39-.21.36-.47.37-.77.09-.14-.13-.14-.23-.04-.41.25-.48.65-.87.79-1.42.05-.19.26-.23.39-.17.17.08.39.13.48.35Z" fill="#020303"/><path d="M55.96,80.76c.06.35-.16.38-.3.46-.13.07-.27.08-.37-.09-.27-.45-.56-.9-.83-1.36-.06-.1-.04-.21.08-.28.19-.13.48-.28.6-.12.35.45.63.96.81,1.39Z" fill="#020303"/><path d="M88.37,80.78c-.36,0-.54-.27-.39-.57.16-.32.37-.62.52-.95.12-.26.28-.24.49-.15.22.09.37.23.26.46-.19.39-.42.76-.64,1.14-.06.1-.17.06-.25.07Z" fill="#020303"/><path d="M56.88,78.48c.23-.02.32.1.4.22.12.18.22.38.33.56.19.29.08.47-.19.66-.31.21-.41-.03-.53-.2-.15-.23-.29-.49-.38-.75-.13-.36.26-.33.36-.48Z" fill="#020303"/><path d="M86.48,79.32c0-.51.58-1,.95-.85.16.07.24.18.19.33-.12.37-.28.73-.64.92-.14.07-.32-.05-.42-.21-.04-.07-.06-.14-.08-.19Z" fill="#020303"/><path d="M43.43,85.51c0-1.15.3-1.7,1.21-1.97.88-.25,1.87-.06,2.33.67.36.58.37,1.25.25,1.89-.27,1.34-1.41,1.97-2.75,1.57-.41-.12-1.02-.89-1.04-1.35-.01-.27,0-.54,0-.81Z" fill="#fff"/><path d="M30,62.89c0-1.16.33-1.77,1.24-2,.85-.21,1.81-.07,2.3.67.36.55.35,1.19.28,1.79-.16,1.38-1.5,2.15-2.81,1.67-.46-.17-1-.91-1.01-1.42,0-.24,0-.48,0-.72Z" fill="#fff"/><path d="M27.43,63.4h-2.45v2.78h-.93v-6.37h.93v2.73h2.45v-2.73h.93v6.37h-.93v-2.78Z" fill="#010101"/><path d="M29.64,62.99c0-.74.02-1.24.06-1.49.05-.25.11-.45.21-.61.15-.29.39-.55.72-.78.32-.23.73-.35,1.21-.36.49,0,.9.13,1.23.36.32.23.56.49.7.79.1.15.18.36.22.61.04.25.05.75.05,1.48s-.02,1.22-.05,1.48c-.04.26-.11.46-.22.62-.14.29-.38.55-.7.78-.33.23-.74.35-1.23.37-.48-.01-.89-.13-1.21-.37-.33-.22-.57-.48-.72-.78-.05-.1-.09-.19-.12-.28-.03-.09-.06-.2-.08-.34-.04-.26-.06-.75-.06-1.48ZM30.57,62.99c0,.63.02,1.05.07,1.27.04.22.12.4.24.54.1.13.23.24.39.32.16.1.35.14.57.14s.42-.05.58-.14c.16-.08.28-.19.37-.32.12-.14.2-.32.25-.54.04-.22.06-.65.06-1.27s-.02-1.05-.06-1.28c-.05-.22-.13-.39-.25-.53-.09-.13-.22-.24-.37-.33-.16-.08-.36-.13-.58-.14-.22,0-.41.05-.57.14-.16.09-.29.2-.39.33-.12.14-.2.31-.24.53-.05.23-.07.66-.07,1.28Z" fill="#010101"/><path d="M40.53,86h-2.45v2.78h-.93v-6.37h.93v2.73h2.45v-2.73h.93v6.37h-.93v-2.78Z" fill="#010101"/><path d="M42.74,85.6c0-.74.02-1.24.06-1.49.05-.25.11-.45.21-.61.15-.29.39-.55.72-.78.32-.23.73-.35,1.21-.36.49,0,.9.13,1.23.36.32.23.56.49.7.79.1.15.18.36.22.61.04.25.05.75.05,1.48s-.02,1.22-.05,1.48c-.04.26-.11.46-.22.62-.14.29-.38.55-.7.78-.33.23-.74.36-1.23.37-.48-.01-.89-.13-1.21-.37-.33-.22-.57-.48-.72-.78-.05-.1-.09-.19-.12-.27-.03-.09-.06-.2-.08-.34-.04-.26-.06-.75-.06-1.48ZM43.67,85.6c0,.63.02,1.05.07,1.27.04.22.12.4.24.54.1.13.23.24.39.32.16.1.35.14.57.14s.42-.05.58-.14c.16-.08.28-.19.37-.32.12-.14.2-.32.25-.54.04-.22.06-.65.06-1.27s-.02-1.05-.06-1.28c-.05-.22-.13-.39-.25-.53-.09-.13-.22-.24-.37-.33-.16-.08-.36-.13-.58-.14-.22,0-.41.05-.57.14-.16.09-.29.2-.39.33-.12.14-.2.31-.24.53-.05.23-.07.66-.07,1.28Z" fill="#010101"/><path d="M67.16,101.44c0-.74.02-1.24.06-1.49.04-.25.11-.45.21-.61.15-.29.39-.55.72-.78.32-.23.73-.35,1.21-.36.49,0,.9.13,1.23.36.32.23.56.49.7.79.1.15.18.36.22.61.04.25.06.75.06,1.48s-.02,1.22-.06,1.48c-.04.26-.11.46-.22.62-.14.29-.38.55-.7.78-.33.23-.74.35-1.23.37-.48-.01-.89-.13-1.21-.37-.33-.22-.57-.48-.72-.78-.05-.1-.09-.19-.12-.28-.03-.09-.06-.2-.08-.34-.04-.26-.06-.75-.06-1.48ZM68.1,101.44c0,.63.02,1.05.07,1.27.04.22.12.4.24.54.1.13.23.24.39.32.16.1.35.14.57.14s.42-.05.58-.14c.16-.08.28-.19.37-.32.12-.14.2-.32.25-.54.04-.22.06-.65.06-1.27s-.02-1.05-.06-1.28c-.05-.22-.13-.39-.25-.53-.09-.13-.22-.24-.37-.33-.16-.08-.36-.13-.58-.14-.22,0-.41.05-.57.14-.16.09-.29.2-.39.33-.12.14-.2.31-.24.53-.05.23-.07.65-.07,1.28Z" fill="#010101"/><path d="M76.21,101.84h-2.45v2.78h-.93v-6.37h.93v2.73h2.45v-2.73h.93v6.37h-.93v-2.78Z" fill="#010101"/><path d="M97.21,54.65c0-.74.02-1.24.06-1.49.05-.25.11-.45.21-.61.15-.29.39-.55.72-.78.32-.23.73-.35,1.21-.36.49,0,.9.13,1.23.36.32.23.56.49.7.79.1.15.18.36.22.61.04.25.05.75.05,1.48s-.02,1.22-.05,1.48c-.04.26-.11.46-.22.62-.14.29-.38.55-.7.78-.33.23-.74.35-1.23.37-.48-.01-.89-.13-1.21-.37-.33-.22-.57-.48-.72-.78-.04-.1-.09-.19-.12-.28-.03-.09-.06-.2-.08-.34-.04-.26-.06-.75-.06-1.48ZM98.15,54.65c0,.63.02,1.05.07,1.27.04.22.12.4.24.54.1.13.23.24.39.32.16.1.35.14.57.14s.42-.05.58-.14c.16-.08.28-.19.37-.32.12-.14.2-.32.25-.54.04-.22.06-.65.06-1.27s-.02-1.05-.06-1.28c-.05-.22-.13-.39-.25-.53-.09-.13-.22-.24-.37-.33-.16-.08-.36-.13-.58-.14-.22,0-.41.05-.57.14-.16.09-.29.2-.39.33-.12.14-.2.31-.24.53-.04.23-.07.66-.07,1.28Z" fill="#010101"/><path d="M106.26,55.05h-2.45v2.78h-.93v-6.37h.93v2.73h2.45v-2.73h.93v6.37h-.93v-2.78Z" fill="#010101"/><path d="M97.05,83.88h.88l2.79,4.53h.02v-4.53h.93v6.37h-.88l-2.79-4.53h-.02v4.53h-.93v-6.37Z" fill="#010101"/><path d="M106.55,87.46h-2.45v2.78h-.93v-6.37h.93v2.73h2.45v-2.73h.93v6.37h-.93v-2.78Z" fill="#010101"/><path d="M108.48,89.73l1.45-1.87c.06-.08.09-.15.11-.21.01-.06.02-.12.02-.17,0-.14-.04-.27-.13-.38-.09-.11-.22-.16-.38-.17-.15,0-.27.05-.36.14-.1.1-.16.23-.18.41h-.53c.01-.32.12-.58.31-.79.2-.2.43-.31.72-.31.32,0,.58.11.78.32.2.2.3.46.31.78,0,.25-.07.48-.22.67l-1.19,1.54h1.42v.55h-2.11v-.51Z" fill="#010101"/><path d="M70.11,55.11c0-.74.02-1.24.06-1.49.04-.25.11-.45.21-.61.15-.29.39-.55.72-.78.32-.23.73-.35,1.21-.36.49,0,.9.13,1.23.36.32.23.56.49.7.79.1.15.18.36.22.61.04.25.06.75.06,1.48s-.02,1.22-.06,1.48c-.04.26-.11.46-.22.62-.14.29-.38.55-.7.78-.33.23-.74.35-1.23.37-.48-.01-.89-.13-1.21-.37-.33-.22-.57-.48-.72-.78-.05-.1-.09-.19-.12-.28-.03-.09-.06-.2-.08-.34-.04-.26-.06-.75-.06-1.48ZM71.04,55.11c0,.63.02,1.05.07,1.27.04.22.12.4.24.54.1.13.23.24.39.32.16.1.35.14.57.14s.42-.05.58-.14c.16-.08.28-.19.37-.32.12-.14.2-.32.25-.54.04-.22.06-.65.06-1.27s-.02-1.05-.06-1.28c-.05-.22-.13-.39-.25-.53-.09-.13-.22-.24-.37-.33-.16-.08-.36-.13-.58-.14-.22,0-.41.05-.57.14-.16.09-.29.2-.39.33-.12.14-.2.31-.24.53-.05.23-.07.66-.07,1.28Z" fill="#010101"/></svg>