<?xml version="1.0" encoding="UTF-8"?><svg id="Layer_1" xmlns="http://www.w3.org/2000/svg" viewBox="0 0 144.57 144.57"><path d="M80.66,46.66h2.54c0-3.96,0-7.87,0-11.78,0-.52-.1-1.07.06-1.54.14-.43.57-.76.87-1.14.35.4.96.78.99,1.2.12,1.69.07,3.39.07,5.09,0,2.81-.08,5.61.05,8.41.03.69.57,1.62,1.15,1.97,3.14,1.92,6.35,3.73,9.58,5.51,1.15.63,1.5,1.28.38,2.48-4.21-2.39-8.45-4.72-12.6-7.22-1.34-.81-2.3-.73-3.6.04-5.2,3.08-10.44,6.09-15.72,9.03-1.28.71-1.67,1.54-1.65,2.97.08,5.61.06,11.22,0,16.83,0,.61-.6,1.21-.93,1.81-.32-.61-.91-1.22-.92-1.84-.07-5.61-.09-11.22-.01-16.83.02-1.44-.44-2.28-1.71-2.97-3.88-2.12-7.71-4.33-11.51-6.59-.55-.33-.79-1.17-1.17-1.77.71.03,1.55-.18,2.11.13,3.94,2.16,7.79,4.5,11.76,6.61.78.42,2.17.43,2.94,0,4.73-2.57,9.33-5.36,14.03-7.97,1.16-.64,1.43-1.39,1.41-2.62-.07-3.99-.08-7.97.02-11.96.02-.79.62-1.56.95-2.34.3.81.85,1.61.87,2.42.09,3.98.04,7.96.04,12.03Z"/><path d="M29.29,47.04h4.5v-4.47h1.31v10.5h-1.31v-4.84h-4.5v4.84h-1.31v-10.5h1.31v4.47Z" fill="#1d1d1b"/><path d="M40.95,53.18c-2.33,0-3.8-1.4-3.8-4.79v-1.16c0-3.39,1.48-4.79,3.8-4.79s3.8,1.4,3.8,4.79v1.16c0,3.39-1.48,4.79-3.8,4.79ZM38.46,48.39c0,2.6.88,3.61,2.5,3.61s2.49-1,2.49-3.61v-1.16c0-2.6-.88-3.61-2.49-3.61s-2.5,1-2.5,3.61v1.16Z" fill="#1d1d1b"/><path d="M60.12,84.97c-.37-1.64-1.2-2.21-2.5-2.21-1.61,0-2.5,1-2.5,3.61v1.16c0,2.6.88,3.61,2.5,3.61,1.37,0,2.15-.67,2.5-2.21h1.26c-.33,2.36-1.76,3.39-3.76,3.39-2.33,0-3.8-1.4-3.8-4.79v-1.16c0-3.39,1.48-4.79,3.8-4.79,2.07,0,3.44,1.1,3.77,3.39h-1.28Z" fill="#1d1d1b"/><path d="M64.46,86.17h4.5v-4.47h1.31v10.5h-1.31v-4.84h-4.5v4.84h-1.31v-10.5h1.31v4.47Z" fill="#1d1d1b"/><path d="M73.07,91.34h.41c.88,0,1.25-.45,1.25-1.17,0-.52-.42-1-1.08-1s-1.07.41-1.09.95h-.81c0-1.05.91-1.69,1.9-1.69,1.11,0,1.91.74,1.91,1.76,0,.68-.39,1.22-.99,1.51.65.26,1.09.79,1.09,1.64,0,1.02-.76,1.89-1.94,1.89-1.27,0-1.98-.74-2.05-1.74h.81c.09.54.45.99,1.24.99.63,0,1.11-.48,1.11-1.12,0-.79-.46-1.26-1.35-1.26h-.41v-.75Z" fill="#1d1d1b"/><path d="M103.19,63.82c-2.33,0-3.8-1.4-3.8-4.79v-1.16c0-3.39,1.48-4.79,3.8-4.79s3.8,1.4,3.8,4.79v1.16c0,3.39-1.48,4.79-3.8,4.79ZM100.7,59.03c0,2.6.88,3.61,2.5,3.61s2.5-1,2.5-3.61v-1.16c0-2.6-.88-3.61-2.5-3.61s-2.5,1-2.5,3.61v1.16Z" fill="#1d1d1b"/><path d="M110.35,57.67h4.5v-4.47h1.31v10.5h-1.31v-4.84h-4.5v4.84h-1.31v-10.5h1.31v4.47Z" fill="#1d1d1b"/><path d="M81.67,28.43c-2.33,0-3.8-1.4-3.8-4.79v-1.16c0-3.39,1.48-4.79,3.8-4.79s3.8,1.4,3.8,4.79v1.16c0,3.39-1.48,4.79-3.8,4.79ZM79.17,23.64c0,2.6.88,3.61,2.5,3.61s2.5-1,2.5-3.61v-1.16c0-2.6-.88-3.61-2.5-3.61s-2.5,1-2.5,3.61v1.16Z" fill="#1d1d1b"/></svg>