<?xml version="1.0" encoding="UTF-8"?><svg id="Layer_1" xmlns="http://www.w3.org/2000/svg" viewBox="0 0 144.57 144.57"><path d="M59.22,39.95c.2.05.4.1.6.14,1.31.3,2.18,1.11,2.63,2.36.38,1.06.44,2.14.18,3.23-.42,1.82-1.76,2.77-3.3,2.97-2.33.29-3.86-1.2-4.26-2.95-.15-.64-.07-1.34-.09-2.01-.02-.65.19-1.24.51-1.8.6-1.04,1.47-1.71,2.69-1.88.07,0,.13-.04.2-.07.28,0,.56,0,.84,0ZM56.09,44.4c-.02.7.12,1.35.47,1.94.53.88,1.3,1.3,2.34,1.3,1.06,0,1.81-.5,2.26-1.4.62-1.25.63-2.55,0-3.8-.54-1.06-1.48-1.52-2.65-1.39-1.07.12-1.79.75-2.16,1.75-.19.52-.28,1.05-.26,1.6Z" fill="#000" stroke="#000" stroke-miterlimit="10" stroke-width=".25"/><path d="M15.24,59.4h1.25v3.43h4.36v-3.37c.34-.1.7-.12,1.18-.04v8.41c-.08.01-.15.03-.21.03-.29,0-.59,0-.93,0-.03-.45-.01-.88-.02-1.31,0-.42,0-.84,0-1.26s0-.86,0-1.32h-4.35v3.87c-.45.05-.86.05-1.27,0v-8.42Z" fill="#000" stroke="#000" stroke-miterlimit="10" stroke-width=".25"/><path d="M110.02,69.44c-.14-.11-.26-.21-.38-.3-2.9-2.12-5.8-4.24-8.69-6.37-.46-.34-.91-.7-1.36-1.06-.15-.12-.26-.25-.13-.47.17-.27.27-.31.54-.13.94.66,1.89,1.32,2.82,1.99,1.97,1.4,3.93,2.81,5.89,4.2.56.4.57.39,1.22.18,4.29-1.38,8.58-2.77,12.87-4.16.12-.04.24-.07.37-.12.05.1.1.18.13.27.15.45.12.52-.33.67-3.14,1.03-6.28,2.05-9.42,3.07-1.04.34-2.08.67-3.12,1.01-.1.03-.2.08-.35.13.19.14.34.25.5.37.4.3.47.5.33.98-.04.13-.07.26-.13.47.34-.09.63-.14.9-.23,2.44-.78,4.88-1.56,7.32-2.34,1.63-.52,3.25-1.06,4.87-1.58.05-.02.11-.03.21-.07.08.25.15.5.24.78-.35.12-.65.23-.95.33-4.21,1.37-8.41,2.75-12.62,4.12-.22.07-.39.14-.47.4-1.65,5.17-3.31,10.33-4.98,15.49-.11.33-.06.58.14.85,2.53,3.51,5.04,7.02,7.56,10.53.08.11.16.22.28.38-.2.19-.38.36-.61.57-.12-.15-.22-.27-.31-.39-2.57-3.54-5.15-7.08-7.71-10.63-.19-.27-.39-.37-.72-.37-6,.01-11.99.02-17.99,0-.32,0-.5.11-.68.36-2.53,3.49-5.06,6.97-7.6,10.45-.12.17-.25.33-.38.5-.28-.06-.46-.2-.61-.43.14-.2.27-.42.42-.62,2.48-3.44,4.96-6.87,7.45-10.3.21-.29.26-.53.15-.87-1.86-5.66-3.71-11.32-5.56-16.98-.11-.34-.27-.53-.62-.64-5.13-1.67-10.25-3.35-15.37-5.03-.56-.18-1.12-.35-1.67-.56-.3-.11-.54-.09-.82.08-2.82,1.64-5.65,3.28-8.49,4.91-2.47,1.42-4.94,2.83-7.4,4.26-.29.17-.51.18-.81.01-2.95-1.65-5.9-3.29-8.85-4.94-.86-.48-1.7-.99-2.54-1.48-.13-.08-.26-.16-.38-.24.08-.38.11-.42.45-.7,3.86,2.22,7.73,4.45,11.63,6.68.77-.44,1.53-.88,2.3-1.32,4.66-2.69,9.33-5.38,13.99-8.08.27-.16.51-.2.82-.1,5.83,1.91,11.66,3.8,17.49,5.7.33.11.54.04.8-.15,3.26-2.36,6.53-4.72,9.79-7.08.22-.16.45-.32.73-.51.15.24.28.45.43.67-.28.21-.53.39-.78.57-3.12,2.29-6.25,4.58-9.37,6.87-.52.38-.52.39-.32,1.02,1.36,4.27,2.73,8.54,4.09,12.81.42,1.32.86,2.64,1.29,3.96.04.13.09.26.14.41,6.23-.03,12.45-.05,18.7-.08,1.91-5.91,3.87-11.79,5.7-17.73Z" fill="#000" stroke="#000" stroke-miterlimit="10" stroke-width=".25"/><path d="M77.84,103.33c-.02,1-.15,1.76-.51,2.46-.57,1.09-1.47,1.73-2.68,1.95-.59.11-1.17.1-1.75-.02-.61-.12-1.13-.42-1.58-.84-.83-.79-1.32-1.74-1.3-2.9,0-.59-.03-1.19.08-1.76.36-1.85,2-3.37,4.19-3.1.52.06,1.02.18,1.48.42,1.03.53,1.6,1.42,1.87,2.51.12.49.16.99.2,1.27ZM76.65,103.46c-.02-.63-.11-1.24-.39-1.8-.51-1.02-1.52-1.59-2.65-1.5-1.03.09-1.94.84-2.25,1.88-.12.41-.2.85-.23,1.28-.06.83.11,1.62.58,2.32.78,1.16,2.11,1.37,3.2.97.68-.25,1.13-.81,1.42-1.48.23-.54.28-1.11.31-1.67Z" fill="#000" stroke="#000" stroke-miterlimit="10" stroke-width=".25"/><path d="M31.38,63.48c-.01.98-.13,1.71-.46,2.39-.6,1.21-1.59,1.87-2.93,2.05-.52.07-1.04.05-1.55-.05-.78-.16-1.42-.59-1.92-1.2-.59-.72-.97-1.54-.94-2.5.01-.45,0-.9.01-1.35.06-1.58,1.3-3.11,2.84-3.47,1.72-.4,4.18.16,4.8,2.99.1.45.12.91.15,1.15ZM30.18,63.61c.01-.68-.09-1.32-.42-1.91-.57-1.02-1.46-1.49-2.62-1.38-1.08.1-1.81.72-2.18,1.72-.31.83-.39,1.69-.19,2.56.29,1.28,1.21,2.54,3.2,2.27.97-.13,1.55-.79,1.93-1.64.23-.52.29-1.08.29-1.63Z" fill="#000" stroke="#000" stroke-miterlimit="10" stroke-width=".25"/><path d="M124.94,63.47c-.01-.54,0-1.19.28-1.82.89-2.01,2.79-2.87,4.88-2.21,1.07.34,1.82,1.04,2.24,2.07.51,1.24.54,2.53.16,3.79-.47,1.56-1.58,2.42-3.21,2.62-2.17.27-3.52-.94-4.14-2.5-.24-.59-.21-1.21-.22-1.95ZM131.56,63.97c.01-.89-.06-1.59-.42-2.24-.57-1.04-1.47-1.52-2.65-1.4-1.1.11-1.82.75-2.18,1.77-.28.79-.36,1.61-.19,2.44.27,1.31,1.2,2.63,3.23,2.34,1.03-.15,1.64-.87,1.97-1.8.14-.4.18-.84.24-1.11Z" fill="#000" stroke="#000" stroke-miterlimit="10" stroke-width=".25"/><path d="M94.69,62.54c-2.14-.02-3.76-1.64-3.78-3.79,0-.6-.04-1.22.07-1.8.31-1.63,1.7-3.12,3.65-3.12.48,0,.95.05,1.41.2,1.17.37,1.94,1.15,2.34,2.29.39,1.1.45,2.22.16,3.35-.47,1.82-1.92,2.89-3.85,2.87ZM94.83,61.51c1.06.04,1.82-.5,2.27-1.42.6-1.24.62-2.53,0-3.77-.51-1.01-1.39-1.49-2.51-1.42-1.16.07-1.93.71-2.31,1.79-.28.77-.36,1.58-.2,2.4.32,1.64,1.5,2.47,2.75,2.41Z" fill="#000" stroke="#000" stroke-miterlimit="10" stroke-width=".25"/><path d="M111.95,103.46c-.03-.77.03-1.51.39-2.22.8-1.57,2.2-2.25,3.65-2.15,1.85.14,3.04,1.07,3.52,2.74.35,1.21.37,2.44-.11,3.63-.52,1.29-1.48,2.03-2.85,2.27-.99.17-1.94.1-2.79-.47-1.11-.74-1.76-1.78-1.81-3.15,0-.22,0-.45,0-.66ZM118.55,103.45c.02-.63-.09-1.25-.38-1.82-.51-1-1.5-1.56-2.62-1.47-1.01.08-1.9.81-2.25,1.83-.22.66-.3,1.34-.23,2.03.07.7.3,1.34.76,1.88.8.93,2.06,1.09,3.03.7.69-.28,1.15-.84,1.42-1.53.2-.52.28-1.05.27-1.61Z" fill="#000" stroke="#000" stroke-miterlimit="10" stroke-width=".25"/><path d="M53.57,48.57h-1.16v-3.89h-4.33c-.05,1.29,0,2.57-.03,3.9-.39.04-.76.04-1.16,0v-8.43h1.12c.1.36.04.74.05,1.11.01.39,0,.79,0,1.18s0,.75,0,1.15h4.34v-3.44c.23,0,.42-.02.61-.02.18,0,.36,0,.57,0v8.46Z" fill="#000" stroke="#000" stroke-miterlimit="10" stroke-width=".25"/><path d="M68.44,107.7h-1.11v-3.92c-1.47-.01-2.89,0-4.38,0v3.93h-1.17v-8.44h1.15v3.39c.34.1,3.72.13,4.36.04v-3.43c.41,0,.77,0,1.13,0,.09.31.1,8.01.01,8.45Z" fill="#000" stroke="#000" stroke-miterlimit="10" stroke-width=".25"/><path d="M126.77,103.8h-4.36v3.9h-1.17v-8.46h1.16v3.47h4.35v-3.44h1.18v8.39c-.31.09-.7.09-1.16.01v-3.88Z" fill="#000" stroke="#000" stroke-miterlimit="10" stroke-width=".25"/><path d="M75.94,49.32h1.17v3.4c.35.09,3.86.11,4.35.03v-3.42h1.17v8.43h-1.15v-3.89h-4.36v3.89h-1.18v-8.44Z" fill="#000" stroke="#000" stroke-miterlimit="10" stroke-width=".25"/><path d="M87.35,85.05v-.7h15.16v.7h-15.16Z" fill="#000" stroke="#000" stroke-miterlimit="10" stroke-width=".25"/><path d="M57.25,50.91c-.02-.28-.03-.48-.05-.73.39-.08.75-.17,1.12-.24.66-.11,1.33-.23,1.99-.31.38-.05.43.01.44.41,0,.12-.01.25-.02.4-1.15.15-2.27.38-3.48.47Z" fill="#000" stroke="#000" stroke-miterlimit="10" stroke-width=".25"/><path d="M81.16,59.06c-.04.17-.07.32-.11.49-.16.03-.33.08-.49.09-.94.02-1.88.02-2.82.03-.05,0-.11-.02-.19-.03v-.65c.48-.13,3.07-.08,3.61.07Z" fill="#000" stroke="#000" stroke-miterlimit="10" stroke-width=".25"/><path d="M60.35,51.81s.06,0,.08-.01c.18-.02.38-.08.45.17.06.22-.06.52-.26.6-.17.06-.35.1-.53.13-.62.08-1.24.16-1.87.23-.18.02-.36,0-.44-.22-.14-.36-.09-.48.29-.54.76-.13,1.51-.25,2.27-.38,0,.01,0,.02,0,.03Z" fill="#000" stroke="#000" stroke-miterlimit="10" stroke-width=".25"/><path d="M58.34,54.27c.72-.1,1.44-.21,2.17-.3.17-.02.34.02.38.24.06.26-.02.48-.26.55-.31.08-.63.13-.94.17-.23.03-.47.04-.71.07-.54.05-.68-.1-.65-.72Z" fill="#000" stroke="#000" stroke-miterlimit="10" stroke-width=".25"/><path d="M80.73,61.55c-.04.17-.08.33-.14.54-.47.03-.94.07-1.41.07-.32,0-.64-.02-.96-.05-.22-.02-.24-.19-.24-.37,0-.19.09-.31.27-.31.76,0,1.51,0,2.27,0,.06,0,.12.06.21.1Z" fill="#000" stroke="#000" stroke-miterlimit="10" stroke-width=".25"/><path d="M58.89,56.46c.22-.23.5-.19.76-.24.3-.07.61-.1.91-.15.27-.04.32,0,.34.27.03.4-.06.53-.46.61-.36.07-.72.14-1.08.18-.33.04-.34.03-.4-.31-.02-.12-.05-.24-.07-.36Z" fill="#000" stroke="#000" stroke-miterlimit="10" stroke-width=".25"/><path d="M78.38,63.96c.64-.11,1.25-.11,1.87.01,0,.58-.06.64-.57.65-.25,0-.5.01-.75,0-.48-.01-.56-.1-.55-.67Z" fill="#000" stroke="#000" stroke-miterlimit="10" stroke-width=".25"/><path d="M59.45,58.4c.55-.07,1.04-.14,1.56-.21.02.13.04.22.04.31,0,.51-.03.56-.56.62-.18.02-.36.05-.54.08-.25.04-.34-.01-.4-.24-.04-.16-.06-.33-.11-.56Z" fill="#000" stroke="#000" stroke-miterlimit="10" stroke-width=".25"/><path d="M79.37,66.39s.03,0,.04,0c.17.03.42-.09.46.22.04.33-.16.61-.44.65-.44.07-.73-.23-.62-.68.02-.07.12-.15.19-.17.12-.03.25,0,.37,0h0Z" fill="#000" stroke="#000" stroke-miterlimit="10" stroke-width=".25"/><path d="M60.61,60.4c.36,0,.44.08.45.4.01.34-.08.46-.38.47-.1,0-.2,0-.29-.03-.19-.04-.32-.24-.31-.45,0-.2.12-.31.29-.37.09-.03.19-.03.24-.03Z" fill="#000" stroke="#000" stroke-miterlimit="10" stroke-width=".25"/></svg>