<?xml version="1.0" encoding="UTF-8"?><svg id="Layer_1" xmlns="http://www.w3.org/2000/svg" viewBox="0 0 144.57 144.57"><rect x="22.42" y="71.93" width="27.39" height="4.76" rx="2.38" ry="2.38" transform="translate(47.13 -7.58) rotate(33.58)" fill="none" stroke="#000" stroke-miterlimit="10" stroke-width=".6"/><path d="m39.29,74.41c-2.21-1.47,1.98,1.57,2.55,1.72,1.37.83-1.87-1.27-2.55-1.72"/><path d="m42.84,78.25c.43.44-.07-.47-.31-.28,0,.17.29.07.31.28Z"/><path d="m46.15,79.2c.06-.03.08-.19-.02-.17-.08.03-.1.24.02.17Z"/><path d="m46.26,80.6s.01.04.05.04c.02-.04-.02-.04-.05-.04Z"/><path d="m42.48,77.77s-.04-.02-.04,0c.01.03.05.04.04,0Z"/><path d="m46.48,79.53s-.07,0-.05.04c.03.03.07,0,.05-.04Z"/><path d="m44.24,77.97c.29.1,1.12.1,1.07.41-.12.57-1.08-.14-1.07-.41Z"/><path d="m43.61,77.8c.23-.32.03-.23-.24-.23-.83-.95,1.7-.13.24.23Z"/><path d="m42.9,76.93c.45.45-.31.58-.51.21-.27-.29.37-.57.51-.21Z"/><path d="m44.21,79.03c.33.41-.26.12-.35-.08-.13-.27.33-.02.35.08Z"/><path d="m45.66,78.62c.07.09.14.31-.03.36-.21,0-.16-.63.03-.36Z"/><path d="m41.48,76.33c.15.28-.31.1-.15-.06.07-.04.11.02.15.06Z"/><path d="m43.84,78.51c.05.07-.06.14-.1.07-.05-.07.05-.14.1-.07Z"/><rect x="27.2" y="64.74" width="27.39" height="4.76" rx="2.38" ry="2.38" transform="translate(43.95 -11.42) rotate(33.58)" fill="none" stroke="#000" stroke-miterlimit="10" stroke-width=".6"/><path d="m44.06,67.22c-2.21-1.47,1.98,1.57,2.55,1.72,1.37.83-1.87-1.27-2.55-1.72"/><path d="m47.61,71.06c.43.44-.07-.47-.31-.28,0,.17.29.07.31.28Z"/><path d="m50.92,72.01c.06-.03.08-.19-.02-.17-.08.03-.1.24.02.17Z"/><path d="m51.03,73.41s.01.04.05.04c.02-.04-.02-.04-.05-.04Z"/><path d="m47.25,70.58s-.04-.02-.04,0c.01.03.05.04.04,0Z"/><path d="m51.25,72.34s-.07,0-.05.04c.03.03.07,0,.05-.04Z"/><path d="m49.01,70.79c.29.1,1.12.1,1.07.41-.12.57-1.08-.14-1.07-.41Z"/><path d="m48.38,70.62c.23-.32.03-.23-.24-.23-.83-.95,1.7-.13.24.23Z"/><path d="m47.67,69.74c.45.45-.31.58-.51.21-.27-.29.37-.57.51-.21Z"/><path d="m48.98,71.85c.33.41-.26.12-.35-.08-.13-.27.33-.02.35.08Z"/><path d="m50.43,71.44c.07.09.14.31-.03.36-.21,0-.16-.63.03-.36Z"/><path d="m46.25,69.14c.15.28-.31.1-.15-.06.07-.04.11.02.15.06Z"/><path d="m48.61,71.32c.05.07-.06.14-.1.07-.05-.07.05-.14.1-.07Z"/><rect x="31.97" y="57.55" width="27.39" height="4.76" rx="2.38" ry="2.38" transform="translate(40.77 -15.25) rotate(33.58)" fill="none" stroke="#000" stroke-miterlimit="10" stroke-width=".6"/><path d="m48.83,60.03c-2.21-1.47,1.98,1.57,2.55,1.72,1.37.83-1.87-1.27-2.55-1.72"/><path d="m52.39,63.88c.43.44-.07-.47-.31-.28,0,.17.29.07.31.28Z"/><path d="m55.69,64.82c.06-.03.08-.19-.02-.17-.08.03-.1.24.02.17Z"/><path d="m55.8,66.22s.01.04.05.04c.02-.04-.02-.04-.05-.04Z"/><path d="m52.02,63.39s-.04-.02-.04,0c.01.03.05.04.04,0Z"/><path d="m56.02,65.16s-.07,0-.05.04c.03.03.07,0,.05-.04Z"/><path d="m53.78,63.6c.29.1,1.12.1,1.07.41-.12.57-1.08-.14-1.07-.41Z"/><path d="m53.15,63.43c.23-.32.03-.23-.24-.23-.83-.95,1.7-.13.24.23Z"/><path d="m52.44,62.56c.45.45-.31.58-.51.21-.27-.29.37-.57.51-.21Z"/><path d="m53.75,64.66c.33.41-.26.12-.35-.08-.13-.27.33-.02.35.08Z"/><path d="m55.2,64.25c.07.09.14.31-.03.36-.21,0-.16-.63.03-.36Z"/><path d="m51.02,61.95c.15.28-.31.1-.15-.06.07-.04.11.02.15.06Z"/><path d="m53.38,64.14c.05.07-.06.14-.1.07-.05-.07.05-.14.1-.07Z"/><rect x="36.74" y="50.37" width="27.39" height="4.76" rx="2.38" ry="2.38" transform="translate(37.59 -19.09) rotate(33.58)" fill="none" stroke="#000" stroke-miterlimit="10" stroke-width=".6"/><path d="m53.6,52.85c-2.21-1.47,1.98,1.57,2.55,1.72,1.37.83-1.87-1.27-2.55-1.72"/><path d="m57.16,56.69c.43.44-.07-.47-.31-.28,0,.17.29.07.31.28Z"/><path d="m60.46,57.64c.06-.03.08-.19-.02-.17-.08.03-.1.24.02.17Z"/><path d="m60.57,59.04s.01.04.05.04c.02-.04-.02-.04-.05-.04Z"/><path d="m56.79,56.21s-.04-.02-.04,0c.01.03.05.04.04,0Z"/><path d="m60.79,57.97s-.07,0-.05.04c.03.03.07,0,.05-.04Z"/><path d="m58.55,56.41c.29.1,1.12.1,1.07.41-.12.57-1.08-.14-1.07-.41Z"/><path d="m57.92,56.25c.23-.32.03-.23-.24-.23-.83-.95,1.7-.13.24.23Z"/><path d="m57.21,55.37c.45.45-.31.58-.51.21-.27-.29.37-.57.51-.21Z"/><path d="m58.52,57.47c.33.41-.26.12-.35-.08-.13-.27.33-.02.35.08Z"/><path d="m59.97,57.06c.07.09.14.31-.03.36-.21,0-.16-.63.03-.36Z"/><path d="m55.79,54.77c.15.28-.31.1-.15-.06.07-.04.11.02.15.06Z"/><path d="m58.15,56.95c.05.07-.06.14-.1.07-.05-.07.05-.14.1-.07Z"/><rect x="41.51" y="43.18" width="27.39" height="4.76" rx="2.38" ry="2.38" transform="translate(34.41 -22.93) rotate(33.58)" fill="none" stroke="#000" stroke-miterlimit="10" stroke-width=".6"/><path d="m58.37,45.66c-2.21-1.47,1.98,1.57,2.55,1.72,1.37.83-1.87-1.27-2.55-1.72"/><path d="m61.93,49.5c.43.44-.07-.47-.31-.28,0,.17.29.07.31.28Z"/><path d="m65.23,50.45c.06-.03.08-.19-.02-.17-.08.03-.1.24.02.17Z"/><path d="m65.34,51.85s.01.04.05.04c.02-.04-.02-.04-.05-.04Z"/><path d="m61.56,49.02s-.04-.02-.04,0c.01.03.05.04.04,0Z"/><path d="m65.56,50.79s-.07,0-.05.04c.03.03.07,0,.05-.04Z"/><path d="m63.32,49.23c.29.1,1.12.1,1.07.41-.12.57-1.08-.14-1.07-.41Z"/><path d="m62.69,49.06c.23-.32.03-.23-.24-.23-.83-.95,1.7-.13.24.23Z"/><path d="m61.98,48.18c.45.45-.31.58-.51.21-.27-.29.37-.57.51-.21Z"/><path d="m63.3,50.29c.33.41-.26.12-.35-.08-.13-.27.33-.02.35.08Z"/><path d="m64.74,49.88c.07.09.14.31-.03.36-.21,0-.16-.63.03-.36Z"/><path d="m60.56,47.58c.15.28-.31.1-.15-.06.07-.04.11.02.15.06Z"/><path d="m62.92,49.76c.05.07-.06.14-.1.07-.05-.07.05-.14.1-.07Z"/><rect x="46.28" y="35.99" width="27.39" height="4.76" rx="2.38" ry="2.38" transform="translate(31.23 -26.77) rotate(33.58)" fill="none" stroke="#000" stroke-miterlimit="10" stroke-width=".6"/><path d="m63.14,38.47c-2.21-1.47,1.98,1.57,2.55,1.72,1.37.83-1.87-1.27-2.55-1.72"/><path d="m66.7,42.32c.43.44-.07-.47-.31-.28,0,.17.29.07.31.28Z"/><path d="m70,43.26c.06-.03.08-.19-.02-.17-.08.03-.1.24.02.17Z"/><path d="m70.11,44.66s.01.04.05.04c.02-.04-.02-.04-.05-.04Z"/><path d="m66.33,41.83s-.04-.02-.04,0c.01.03.05.04.04,0Z"/><path d="m70.33,43.6s-.07,0-.05.04c.03.03.07,0,.05-.04Z"/><path d="m68.1,42.04c.29.1,1.12.1,1.07.41-.12.57-1.08-.14-1.07-.41Z"/><path d="m67.46,41.87c.23-.32.03-.23-.24-.23-.83-.95,1.7-.13.24.23Z"/><path d="m66.75,41c.45.45-.31.58-.51.21-.27-.29.37-.57.51-.21Z"/><path d="m68.07,43.1c.33.41-.26.12-.35-.08-.13-.27.33-.02.35.08Z"/><path d="m69.51,42.69c.07.09.14.31-.03.36-.21,0-.16-.63.03-.36Z"/><path d="m65.34,40.39c.15.28-.31.1-.15-.06.07-.04.11.02.15.06Z"/><path d="m67.69,42.58c.05.07-.06.14-.1.07-.05-.07.05-.14.1-.07Z"/><rect x="43.06" y="95.98" width="27.39" height="4.76" rx="2.38" ry="2.38" transform="translate(63.87 -14.98) rotate(33.58)" fill="none" stroke="#000" stroke-miterlimit="10" stroke-width=".6"/><path d="m59.92,98.46c-2.21-1.47,1.98,1.57,2.55,1.72,1.37.83-1.87-1.27-2.55-1.72"/><path d="m63.48,102.3c.43.44-.07-.47-.31-.28,0,.17.29.07.31.28Z"/><path d="m66.78,103.25c.06-.03.08-.19-.02-.17-.08.03-.1.24.02.17Z"/><path d="m66.89,104.65s.01.04.05.04c.02-.04-.02-.04-.05-.04Z"/><path d="m63.11,101.82s-.04-.02-.04,0c.01.03.05.04.04,0Z"/><path d="m67.11,103.58s-.07,0-.05.04c.03.03.07,0,.05-.04Z"/><path d="m64.88,102.03c.29.1,1.12.1,1.07.41-.12.57-1.08-.14-1.07-.41Z"/><path d="m64.24,101.86c.23-.32.03-.23-.24-.23-.83-.95,1.7-.13.24.23Z"/><path d="m63.53,100.98c.45.45-.31.58-.51.21-.27-.29.37-.57.51-.21Z"/><path d="m64.85,103.09c.33.41-.26.12-.35-.08-.13-.27.33-.02.35.08Z"/><path d="m66.3,102.68c.07.09.14.31-.03.36-.21,0-.16-.63.03-.36Z"/><path d="m62.12,100.38c.15.28-.31.1-.15-.06.07-.04.11.02.15.06Z"/><path d="m64.47,102.56c.05.07-.06.14-.1.07-.05-.07.05-.14.1-.07Z"/><rect x="47.83" y="88.79" width="27.39" height="4.76" rx="2.38" ry="2.38" transform="translate(60.69 -18.82) rotate(33.58)" fill="none" stroke="#000" stroke-miterlimit="10" stroke-width=".6"/><path d="m64.69,91.27c-2.21-1.47,1.98,1.57,2.55,1.72,1.37.83-1.87-1.27-2.55-1.72"/><path d="m68.25,95.12c.43.44-.07-.47-.31-.28,0,.17.29.07.31.28Z"/><path d="m71.55,96.06c.06-.03.08-.19-.02-.17-.08.03-.1.24.02.17Z"/><path d="m71.66,97.46s.01.04.05.04c.02-.04-.02-.04-.05-.04Z"/><path d="m67.88,94.63s-.04-.02-.04,0c.01.03.05.04.04,0Z"/><path d="m71.89,96.4s-.07,0-.05.04c.03.03.07,0,.05-.04Z"/><path d="m69.65,94.84c.29.1,1.12.1,1.07.41-.12.57-1.08-.14-1.07-.41Z"/><path d="m69.01,94.67c.23-.32.03-.23-.24-.23-.83-.95,1.7-.13.24.23Z"/><path d="m68.3,93.8c.45.45-.31.58-.51.21-.27-.29.37-.57.51-.21Z"/><path d="m69.62,95.9c.33.41-.26.12-.35-.08-.13-.27.33-.02.35.08Z"/><path d="m71.07,95.49c.07.09.14.31-.03.36-.21,0-.16-.63.03-.36Z"/><path d="m66.89,93.19c.15.28-.31.1-.15-.06.07-.04.11.02.15.06Z"/><path d="m69.24,95.38c.05.07-.06.14-.1.07-.05-.07.05-.14.1-.07Z"/><rect x="57.37" y="74.42" width="27.39" height="4.76" rx="2.38" ry="2.38" transform="translate(54.34 -26.49) rotate(33.58)" fill="none" stroke="#000" stroke-miterlimit="10" stroke-width=".6"/><path d="m74.23,76.9c-2.21-1.47,1.98,1.57,2.55,1.72,1.37.83-1.87-1.27-2.55-1.72"/><path d="m77.79,80.74c.43.44-.07-.47-.31-.28,0,.17.29.07.31.28Z"/><path d="m81.1,81.69c.06-.03.08-.19-.02-.17-.08.03-.1.24.02.17Z"/><path d="m81.21,83.09s.01.04.05.04c.02-.04-.02-.04-.05-.04Z"/><path d="m77.42,80.26s-.04-.02-.04,0c.01.03.05.04.04,0Z"/><path d="m81.43,82.02s-.07,0-.05.04c.03.03.07,0,.05-.04Z"/><path d="m79.19,80.47c.29.1,1.12.1,1.07.41-.12.57-1.08-.14-1.07-.41Z"/><path d="m78.56,80.3c.23-.32.03-.23-.24-.23-.83-.95,1.7-.13.24.23Z"/><path d="m77.85,79.42c.45.45-.31.58-.51.21-.27-.29.37-.57.51-.21Z"/><path d="m79.16,81.53c.33.41-.26.12-.35-.08-.13-.27.33-.02.35.08Z"/><path d="m80.61,81.12c.07.09.14.31-.03.36-.21,0-.16-.63.03-.36Z"/><path d="m76.43,78.82c.15.28-.31.1-.15-.06.07-.04.11.02.15.06Z"/><path d="m78.79,81c.05.07-.06.14-.1.07-.05-.07.05-.14.1-.07Z"/><rect x="62.14" y="67.23" width="27.39" height="4.76" rx="2.38" ry="2.38" transform="translate(51.16 -30.33) rotate(33.58)" fill="none" stroke="#000" stroke-miterlimit="10" stroke-width=".6"/><path d="m79.01,69.71c-2.21-1.47,1.98,1.57,2.55,1.72,1.37.83-1.87-1.27-2.55-1.72"/><path d="m82.56,73.56c.43.44-.07-.47-.31-.28,0,.17.29.07.31.28Z"/><path d="m85.87,74.5c.06-.03.08-.19-.02-.17-.08.03-.1.24.02.17Z"/><path d="m85.98,75.9s.01.04.05.04c.02-.04-.02-.04-.05-.04Z"/><path d="m82.19,73.07s-.04-.02-.04,0c.01.03.05.04.04,0Z"/><path d="m86.2,74.84s-.07,0-.05.04c.03.03.07,0,.05-.04Z"/><path d="m83.96,73.28c.29.1,1.12.1,1.07.41-.12.57-1.08-.14-1.07-.41Z"/><path d="m83.33,73.11c.23-.32.03-.23-.24-.23-.83-.95,1.7-.13.24.23Z"/><path d="m82.62,72.24c.45.45-.31.58-.51.21-.27-.29.37-.57.51-.21Z"/><path d="m83.93,74.34c.33.41-.26.12-.35-.08-.13-.27.33-.02.35.08Z"/><path d="m85.38,73.93c.07.09.14.31-.03.36-.21,0-.16-.63.03-.36Z"/><path d="m81.2,71.63c.15.28-.31.1-.15-.06.07-.04.11.02.15.06Z"/><path d="m83.56,73.82c.05.07-.06.14-.1.07-.05-.07.05-.14.1-.07Z"/><rect x="66.91" y="60.05" width="27.39" height="4.76" rx="2.38" ry="2.38" transform="translate(47.98 -34.17) rotate(33.58)" fill="none" stroke="#000" stroke-miterlimit="10" stroke-width=".6"/><path d="m83.78,62.53c-2.21-1.47,1.98,1.57,2.55,1.72,1.37.83-1.87-1.27-2.55-1.72"/><path d="m87.33,66.37c.43.44-.07-.47-.31-.28,0,.17.29.07.31.28Z"/><path d="m90.64,67.32c.06-.03.08-.19-.02-.17-.08.03-.1.24.02.17Z"/><path d="m90.75,68.72s.01.04.05.04c.02-.04-.02-.04-.05-.04Z"/><path d="m86.97,65.89s-.04-.02-.04,0c.01.03.05.04.04,0Z"/><path d="m90.97,67.65s-.07,0-.05.04c.03.03.07,0,.05-.04Z"/><path d="m88.73,66.09c.29.1,1.12.1,1.07.41-.12.57-1.08-.14-1.07-.41Z"/><path d="m88.1,65.93c.23-.32.03-.23-.24-.23-.83-.95,1.7-.13.24.23Z"/><path d="m87.39,65.05c.45.45-.31.58-.51.21-.27-.29.37-.57.51-.21Z"/><path d="m88.7,67.15c.33.41-.26.12-.35-.08-.13-.27.33-.02.35.08Z"/><path d="m90.15,66.74c.07.09.14.31-.03.36-.21,0-.16-.63.03-.36Z"/><path d="m85.97,64.45c.15.28-.31.1-.15-.06.07-.04.11.02.15.06Z"/><path d="m88.33,66.63c.05.07-.06.14-.1.07-.05-.07.05-.14.1-.07Z"/><rect x="71.69" y="52.86" width="27.39" height="4.76" rx="2.38" ry="2.38" transform="translate(44.8 -38.01) rotate(33.58)" fill="none" stroke="#000" stroke-miterlimit="10" stroke-width=".6"/><path d="m88.55,55.34c-2.21-1.47,1.98,1.57,2.55,1.72,1.37.83-1.87-1.27-2.55-1.72"/><path d="m92.1,59.18c.43.44-.07-.47-.31-.28,0,.17.29.07.31.28Z"/><path d="m95.41,60.13c.06-.03.08-.19-.02-.17-.08.03-.1.24.02.17Z"/><path d="m95.52,61.53s.01.04.05.04c.02-.04-.02-.04-.05-.04Z"/><path d="m91.74,58.7s-.04-.02-.04,0c.01.03.05.04.04,0Z"/><path d="m95.74,60.47s-.07,0-.05.04c.03.03.07,0,.05-.04Z"/><path d="m93.5,58.91c.29.1,1.12.1,1.07.41-.12.57-1.08-.14-1.07-.41Z"/><path d="m92.87,58.74c.23-.32.03-.23-.24-.23-.83-.95,1.7-.13.24.23Z"/><path d="m92.16,57.86c.45.45-.31.58-.51.21-.27-.29.37-.57.51-.21Z"/><path d="m93.47,59.97c.33.41-.26.12-.35-.08-.13-.27.33-.02.35.08Z"/><path d="m94.92,59.56c.07.09.14.31-.03.36-.21,0-.16-.63.03-.36Z"/><path d="m90.74,57.26c.15.28-.31.1-.15-.06.07-.04.11.02.15.06Z"/><path d="m93.1,59.44c.05.07-.06.14-.1.07-.05-.07.05-.14.1-.07Z"/><rect x="76.46" y="45.67" width="27.39" height="4.76" rx="2.38" ry="2.38" transform="translate(41.62 -41.84) rotate(33.58)" fill="none" stroke="#000" stroke-miterlimit="10" stroke-width=".6"/><path d="m93.32,48.15c-2.21-1.47,1.98,1.57,2.55,1.72,1.37.83-1.87-1.27-2.55-1.72"/><path d="m96.88,52c.43.44-.07-.47-.31-.28,0,.17.29.07.31.28Z"/><path d="m100.18,52.94c.06-.03.08-.19-.02-.17-.08.03-.1.24.02.17Z"/><path d="m100.29,54.34s.01.04.05.04c.02-.04-.02-.04-.05-.04Z"/><path d="m96.51,51.51s-.04-.02-.04,0c.01.03.05.04.04,0Z"/><path d="m100.51,53.28s-.07,0-.05.04c.03.03.07,0,.05-.04Z"/><path d="m98.27,51.72c.29.1,1.12.1,1.07.41-.12.57-1.08-.14-1.07-.41Z"/><path d="m97.64,51.55c.23-.32.03-.23-.24-.23-.83-.95,1.7-.13.24.23Z"/><path d="m96.93,50.68c.45.45-.31.58-.51.21-.27-.29.37-.57.51-.21Z"/><path d="m98.24,52.78c.33.41-.26.12-.35-.08-.13-.27.33-.02.35.08Z"/><path d="m99.69,52.37c.07.09.14.31-.03.36-.21,0-.16-.63.03-.36Z"/><path d="m95.51,50.07c.15.28-.31.1-.15-.06.07-.04.11.02.15.06Z"/><path d="m97.87,52.26c.05.07-.06.14-.1.07-.05-.07.05-.14.1-.07Z"/><rect x="73.24" y="105.66" width="27.39" height="4.76" rx="2.38" ry="2.38" transform="translate(74.26 -30.05) rotate(33.58)" fill="none" stroke="#000" stroke-miterlimit="10" stroke-width=".6"/><path d="m90.1,108.14c-2.21-1.47,1.98,1.57,2.55,1.72,1.37.83-1.87-1.27-2.55-1.72"/><path d="m93.66,111.98c.43.44-.07-.47-.31-.28,0,.17.29.07.31.28Z"/><path d="m96.96,112.93c.06-.03.08-.19-.02-.17-.08.03-.1.24.02.17Z"/><path d="m97.07,114.33s.01.04.05.04c.02-.04-.02-.04-.05-.04Z"/><path d="m93.29,111.5s-.04-.02-.04,0c.01.03.05.04.04,0Z"/><path d="m97.29,113.26s-.07,0-.05.04c.03.03.07,0,.05-.04Z"/><path d="m95.05,111.71c.29.1,1.12.1,1.07.41-.12.57-1.08-.14-1.07-.41Z"/><path d="m94.42,111.54c.23-.32.03-.23-.24-.23-.83-.95,1.7-.13.24.23Z"/><path d="m93.71,110.66c.45.45-.31.58-.51.21-.27-.29.37-.57.51-.21Z"/><path d="m95.02,112.77c.33.41-.26.12-.35-.08-.13-.27.33-.02.35.08Z"/><path d="m96.47,112.36c.07.09.14.31-.03.36-.21,0-.16-.63.03-.36Z"/><path d="m92.29,110.06c.15.28-.31.1-.15-.06.07-.04.11.02.15.06Z"/><path d="m94.65,112.24c.05.07-.06.14-.1.07-.05-.07.05-.14.1-.07Z"/><rect x="78.01" y="98.47" width="27.39" height="4.76" rx="2.38" ry="2.38" transform="translate(71.08 -33.89) rotate(33.58)" fill="none" stroke="#000" stroke-miterlimit="10" stroke-width=".6"/><path d="m94.87,100.95c-2.21-1.47,1.98,1.57,2.55,1.72,1.37.83-1.87-1.27-2.55-1.72"/><path d="m98.43,104.8c.43.44-.07-.47-.31-.28,0,.17.29.07.31.28Z"/><path d="m101.73,105.74c.06-.03.08-.19-.02-.17-.08.03-.1.24.02.17Z"/><path d="m101.84,107.14s.01.04.05.04c.02-.04-.02-.04-.05-.04Z"/><path d="m98.06,104.31s-.04-.02-.04,0c.01.03.05.04.04,0Z"/><path d="m102.06,106.08s-.07,0-.05.04c.03.03.07,0,.05-.04Z"/><path d="m99.82,104.52c.29.1,1.12.1,1.07.41-.12.57-1.08-.14-1.07-.41Z"/><path d="m99.19,104.35c.23-.32.03-.23-.24-.23-.83-.95,1.7-.13.24.23Z"/><path d="m98.48,103.48c.45.45-.31.58-.51.21-.27-.29.37-.57.51-.21Z"/><path d="m99.79,105.58c.33.41-.26.12-.35-.08-.13-.27.33-.02.35.08Z"/><path d="m101.24,105.17c.07.09.14.31-.03.36-.21,0-.16-.63.03-.36Z"/><path d="m97.06,102.87c.15.28-.31.1-.15-.06.07-.04.11.02.15.06Z"/><path d="m99.42,105.06c.05.07-.06.14-.1.07-.05-.07.05-.14.1-.07Z"/><rect x="82.78" y="91.29" width="27.39" height="4.76" rx="2.38" ry="2.38" transform="translate(67.91 -37.73) rotate(33.58)" fill="none" stroke="#000" stroke-miterlimit="10" stroke-width=".6"/><path d="m99.64,93.77c-2.21-1.47,1.98,1.57,2.55,1.72,1.37.83-1.87-1.27-2.55-1.72"/><path d="m103.2,97.61c.43.44-.07-.47-.31-.28,0,.17.29.07.31.28Z"/><path d="m106.5,98.56c.06-.03.08-.19-.02-.17-.08.03-.1.24.02.17Z"/><path d="m106.61,99.96s.01.04.05.04c.02-.04-.02-.04-.05-.04Z"/><path d="m102.83,97.13s-.04-.02-.04,0c.01.03.05.04.04,0Z"/><path d="m106.83,98.89s-.07,0-.05.04c.03.03.07,0,.05-.04Z"/><path d="m104.59,97.33c.29.1,1.12.1,1.07.41-.12.57-1.08-.14-1.07-.41Z"/><path d="m103.96,97.16c.23-.32.03-.23-.24-.23-.83-.95,1.7-.13.24.23Z"/><path d="m103.25,96.29c.45.45-.31.58-.51.21-.27-.29.37-.57.51-.21Z"/><path d="m104.57,98.39c.33.41-.26.12-.35-.08-.13-.27.33-.02.35.08Z"/><path d="m106.01,97.98c.07.09.14.31-.03.36-.21,0-.16-.63.03-.36Z"/><path d="m101.83,95.69c.15.28-.31.1-.15-.06.07-.04.11.02.15.06Z"/><path d="m104.19,97.87c.05.07-.06.14-.1.07-.05-.07.05-.14.1-.07Z"/><rect x="92.32" y="76.91" width="27.39" height="4.76" rx="2.38" ry="2.38" transform="translate(61.55 -45.4) rotate(33.58)" fill="none" stroke="#000" stroke-miterlimit="10" stroke-width=".6"/><path d="m109.18,79.39c-2.21-1.47,1.98,1.57,2.55,1.72,1.37.83-1.87-1.27-2.55-1.72"/><path d="m112.74,83.24c.43.44-.07-.47-.31-.28,0,.17.29.07.31.28Z"/><path d="m116.04,84.18c.06-.03.08-.19-.02-.17-.08.03-.1.24.02.17Z"/><path d="m116.15,85.58s.01.04.05.04c.02-.04-.02-.04-.05-.04Z"/><path d="m112.37,82.75s-.04-.02-.04,0c.01.03.05.04.04,0Z"/><path d="m116.37,84.52s-.07,0-.05.04c.03.03.07,0,.05-.04Z"/><path d="m114.14,82.96c.29.1,1.12.1,1.07.41-.12.57-1.08-.14-1.07-.41Z"/><path d="m113.5,82.79c.23-.32.03-.23-.24-.23-.83-.95,1.7-.13.24.23Z"/><path d="m112.79,81.92c.45.45-.31.58-.51.21-.27-.29.37-.57.51-.21Z"/><path d="m114.11,84.02c.33.41-.26.12-.35-.08-.13-.27.33-.02.35.08Z"/><path d="m115.56,83.61c.07.09.14.31-.03.36-.21,0-.16-.63.03-.36Z"/><path d="m111.38,81.31c.15.28-.31.1-.15-.06.07-.04.11.02.15.06Z"/><path d="m113.73,83.5c.05.07-.06.14-.1.07-.05-.07.05-.14.1-.07Z"/><rect x="97.09" y="69.73" width="27.39" height="4.76" rx="2.38" ry="2.38" transform="translate(58.37 -49.24) rotate(33.58)" fill="none" stroke="#000" stroke-miterlimit="10" stroke-width=".6"/><path d="m113.95,72.21c-2.21-1.47,1.98,1.57,2.55,1.72,1.37.83-1.87-1.27-2.55-1.72"/><path d="m117.51,76.05c.43.44-.07-.47-.31-.28,0,.17.29.07.31.28Z"/><path d="m120.81,77c.06-.03.08-.19-.02-.17-.08.03-.1.24.02.17Z"/><path d="m120.93,78.4s.01.04.05.04c.02-.04-.02-.04-.05-.04Z"/><path d="m117.14,75.57s-.04-.02-.04,0c.01.03.05.04.04,0Z"/><path d="m121.15,77.33s-.07,0-.05.04c.03.03.07,0,.05-.04Z"/><path d="m118.91,75.77c.29.1,1.12.1,1.07.41-.12.57-1.08-.14-1.07-.41Z"/><path d="m118.27,75.61c.23-.32.03-.23-.24-.23-.83-.95,1.7-.13.24.23Z"/><path d="m117.56,74.73c.45.45-.31.58-.51.21-.27-.29.37-.57.51-.21Z"/><path d="m118.88,76.83c.33.41-.26.12-.35-.08-.13-.27.33-.02.35.08Z"/><path d="m120.33,76.42c.07.09.14.31-.03.36-.21,0-.16-.63.03-.36Z"/><path d="m116.15,74.13c.15.28-.31.1-.15-.06.07-.04.11.02.15.06Z"/><path d="m118.5,76.31c.05.07-.06.14-.1.07-.05-.07.05-.14.1-.07Z"/><rect x="101.86" y="62.54" width="27.39" height="4.76" rx="2.38" ry="2.38" transform="translate(55.19 -53.08) rotate(33.58)" fill="none" stroke="#000" stroke-miterlimit="10" stroke-width=".6"/><path d="m118.72,65.02c-2.21-1.47,1.98,1.57,2.55,1.72,1.37.83-1.87-1.27-2.55-1.72"/><path d="m122.28,68.86c.43.44-.07-.47-.31-.28,0,.17.29.07.31.28Z"/><path d="m125.59,69.81c.06-.03.08-.19-.02-.17-.08.03-.1.24.02.17Z"/><path d="m125.7,71.21s.01.04.05.04c.02-.04-.02-.04-.05-.04Z"/><path d="m121.91,68.38s-.04-.02-.04,0c.01.03.05.04.04,0Z"/><path d="m125.92,70.15s-.07,0-.05.04c.03.03.07,0,.05-.04Z"/><path d="m123.68,68.59c.29.1,1.12.1,1.07.41-.12.57-1.08-.14-1.07-.41Z"/><path d="m123.05,68.42c.23-.32.03-.23-.24-.23-.83-.95,1.7-.13.24.23Z"/><path d="m122.33,67.54c.45.45-.31.58-.51.21-.27-.29.37-.57.51-.21Z"/><path d="m123.65,69.65c.33.41-.26.12-.35-.08-.13-.27.33-.02.35.08Z"/><path d="m125.1,69.24c.07.09.14.31-.03.36-.21,0-.16-.63.03-.36Z"/><path d="m120.92,66.94c.15.28-.31.1-.15-.06.07-.04.11.02.15.06Z"/><path d="m123.28,69.12c.05.07-.06.14-.1.07-.05-.07.05-.14.1-.07Z"/></svg>