<?xml version="1.0" encoding="UTF-8"?><svg id="Layer_1" xmlns="http://www.w3.org/2000/svg" viewBox="0 0 144.57 144.57"><path d="m79.83,56.95c.46-.11.93-.18,1.38-.31.22-.06.31-.02.38.19.21.62.66,1.04,1.23,1.32.48.23.96.45,1.45.66.44.19.88.34,1.34.45.36.09.73.23,1.09.23.86,0,1.73.13,2.57-.13.18-.05.37-.05.55-.09.45-.1.9-.15,1.35-.24.55-.11,1.08-.3,1.62-.43.99-.24,1.94-.59,2.86-1.02.4-.19.78-.43,1.16-.65.97-.57,1.98-1.08,2.93-1.7.85-.55,1.7-1.13,2.44-1.82,1-.94,1.98-1.92,2.82-3,.71-.91,1.34-1.86,1.85-2.89.1-.2.16-.42.3-.62.25-.36.49-.73.7-1.12.37-.68.7-1.38,1.06-2.06.64-1.21,1.11-2.48,1.47-3.8.27-.98.36-2,.36-3.01,0-.56-.13-.69-.7-.76-.16-.02-.33.02-.47-.07-.24-.16-.52-.15-.75-.08-.64.19-1.31.08-1.95.29-.59.19-1.24.16-1.83.39-.22.08-.45.09-.67.15-.43.12-.87.15-1.3.27-.41.12-.82.25-1.24.35-.57.14-1.1.4-1.68.51-.45.08-.88.24-1.33.33-.62.13-1.2.38-1.8.56-1.38.41-2.73.9-3.97,1.63-.89.52-1.8,1.01-2.67,1.56-.61.39-1.27.71-1.87,1.12-.46.31-.9.65-1.36.97-.92.63-1.81,1.31-2.62,2.07-.57.54-1.1,1.12-1.63,1.69-.15.16-.31.29-.44.47-.48.71-.99,1.4-1.49,2.11-.75,1.08-1.08,2.23-.69,3.54.11.37.2.75.28,1.12.05.21,0,.3-.21.32-.07,0-.14.05-.2.06-.64.05-1.22.31-1.82.49-.72.22-1.47.22-2.2.32-.08.01-.17-.02-.26-.04-.68-.15-1.26-.51-1.81-.9-.96-.67-1.86-1.43-2.83-2.09-.75-.51-1.35-1.18-2.07-1.73-.67-.52-1.31-1.07-1.99-1.56-.56-.4-1.08-.85-1.65-1.23-.63-.42-1.16-.98-1.8-1.39-.1-.06-.19-.13-.27-.21-.88-.8-1.87-1.46-2.82-2.18-.33-.25-.68-.48-1-.74-.73-.62-1.47-1.23-2.16-1.91-.48-.47-.99-.91-1.48-1.37-.15-.14-.3-.27-.4-.51.18.07.33.12.47.19.11.06.22.06.34.06.27-.01.36-.18.25-.42-.12-.25-.27-.47-.47-.66-.08-.08-.16-.15-.16-.29.28-.06.56-.14.84-.17.82-.1,1.64-.22,2.46-.38.41-.08.42-.08.63.29.31.55.75.93,1.33,1.22.85.43,1.81.51,2.65.93.04.02.08.02.13.02.74.08,1.46.3,2.19.44.45.09.9.16,1.36.18.09,0,.18,0,.26.03.3.14.62.04.92.02.93-.06,1.84-.26,2.78-.31.62-.03,1.22-.15,1.82-.31.51-.13,1.02-.3,1.54-.4.88-.17,1.71-.48,2.53-.81.54-.22,1.06-.49,1.59-.75.87-.43,1.71-.92,2.52-1.44.81-.51,1.57-1.1,2.34-1.67.31-.23.63-.44.91-.72.85-.84,1.61-1.75,2.35-2.69.54-.69,1.04-1.4,1.53-2.12.27-.4.52-.82.76-1.24.45-.78.92-1.55,1.23-2.4.13-.35.21-.73.39-1.05.32-.56.43-1.18.64-1.77.09-.24.03-.46-.18-.56-.21-.1-.4-.22-.61-.31-.56-.24-1.16-.17-1.74-.22-.72-.06-1.45-.03-2.17-.04-.67,0-1.34-.1-2.01-.06-.43.03-.87.01-1.29-.05-.66-.09-1.31,0-1.96-.04-.05,0-.11.04-.16.05-.58.08-1.18,0-1.74.2-.5-.14-.97.1-1.46.14-.54.04-1.06.23-1.6.24-.16,0-.3.05-.46.1-.51.16-1.01.32-1.53.41-.59.11-1.19.19-1.73.46-.1.05-.21.12-.32.12-.26,0-.48.11-.69.22-.36.19-.74.31-1.11.46-.36.14-.7.31-1.05.48-.44.21-.87.43-1.32.6-.61.24-1.19.56-1.79.81-.2.08-.41.19-.58.35-.71.64-1.44,1.26-2.15,1.9-.17.15-.33.31-.54.42-.26.13-.46.33-.69.51-.25.2-.45.44-.68.65-.51.5-.99,1.02-1.39,1.62-.2.3-.29.66-.5.95-.21.3-.39.61-.5.95-.2.66-.56,1.28-.59,1.98-.01.35-.23.63-.21.98,0,.14-.12.13-.22.15-.35.07-.71.1-1.06.15-.27.04-.54.1-.81.08-.73-.06-1.42.13-2.12.24-.08.01-.15.08-.24.04-.86-.44-1.63-1-2.28-1.73-.57-.64-1.15-1.28-1.75-1.89-.59-.6-1.22-1.17-1.82-1.76-.35-.34-.58-.78-.9-1.15-.58-.67-1.19-1.31-1.76-1.99-.5-.61-.94-1.27-1.52-1.81-.12-.11-.18-.26-.25-.41-.22-.45-.74-.59-1.15-.31-.3.21-.53.49-.72.79-.09.15-.1.31-.01.48.13.26.3.48.47.71.51.71,1.03,1.42,1.62,2.06.55.59,1.06,1.21,1.6,1.8.71.78,1.48,1.51,2.15,2.33.51.61,1.13,1.13,1.7,1.7.36.35.76.66,1.05,1.08.05.08.19.14.13.25-.09.17.01.23.14.29.09.04.09.14.13.22.28.58.2,1.21.27,1.82.07.65.05,1.31.34,1.92.02.05.02.11.03.17.06.93.12,1.86.17,2.79.02.24-.02.51.07.72.35.82.32,1.71.49,2.56.09.44.09.91.17,1.36.17,1.05.29,2.1.38,3.16.05.58.08,1.17.15,1.76.04.32.18.6.21.92.04.47.12.93.29,1.38.06.16.18.29.2.47.05.56.16,1.11.16,1.67,0,.76-.03,1.53-.09,2.29-.02.3,0,.61-.08.9-.17.72-.26,1.46-.49,2.17-.23.68-.42,1.37-.65,2.05-.17.5-.37.98-.49,1.51-.12.53-.24,1.07-.51,1.55-.32.57-.57,1.15-.76,1.77-.26.82-.58,1.61-.83,2.44-.23.74-.52,1.45-.81,2.17-.28.69-.51,1.4-.8,2.08-.26.61-.39,1.26-.65,1.86-.09.21-.18.41-.33.59-.3.35-.62.68-.89,1.04-.38.5-.68,1.05-.8,1.68-.05.25.05.52-.08.77-.08.15-.02.3.11.38.14.08.28.04.39-.09.12-.14.25-.26.48-.4-.04.22-.07.38-.09.55-.07.56-.31,1.08-.37,1.63-.09.89-.3,1.75-.42,2.63-.06.45-.15.91-.09,1.34.06.45.09.91.23,1.36-.21.04-.4.03-.58-.01-.32-.08-.65-.02-.94.08-.9.32-1.62.86-2.08,1.75-.34.66-.68,1.33-.95,2.02-.26.65-.48,1.31-.72,1.97-.34.9-.41,1.84-.55,2.77-.12.82-.1,1.67-.17,2.5-.03.4-.02.81-.03,1.21-.01.64,0,1.29.11,1.92.07.41.13.82.16,1.23.05.83.15,1.66.32,2.46.21,1.01.41,2.02.69,3.01.26.92.49,1.86.82,2.76.23.64.61,1.2.89,1.81.28.6.7,1.08,1.09,1.59.59.76,1.34,1.36,2.15,1.88.22.14.4.34.64.43,1.02.39,2.05.73,3.15.77.35.01.67.13,1.02.16.52.05,1.03-.07,1.53-.19.35-.08.74-.11,1.06-.33.28-.2.61-.33.91-.49.93-.49,1.78-1.08,2.32-2.03.27-.48.51-.96.63-1.5.06-.26.06-.52.05-.77,0-.17-.22-.37-.33-.3-.3.2-.49,0-.68-.17-.62-.52-1.1-1.17-1.47-1.88-.38-.72-.5-1.53-.53-2.32-.04-.83-.21-1.65-.25-2.48-.03-.6-.13-1.19-.19-1.79-.03-.26.07-.52.04-.77-.09-.74-.02-1.49.03-2.22.06-.93.21-1.86.18-2.79-.01-.5.08-1,.11-1.5.08-1.39.18-2.78-.37-4.12-.07-.16-.17-.29-.27-.43-.49-.63-1.2-.95-1.86-1.33-.52-.3-1.12-.47-1.61-.8-.97-.64-1.99-1.18-3.01-1.72-.17-.09-.27-.2-.3-.38-.08-.44-.19-.89-.14-1.32.07-.58.05-1.15.07-1.72,0-.24.03-.49.05-.73.06-.66.24-1.3.39-1.93.08-.35.12-.72.33-1.1.04.07.08.11.08.14.04.17.07.37.28.38.22.01.36-.16.5-.3.03-.03.03-.08.05-.12.16-.28.21-.6.29-.89.07-.25.11-.53.07-.83-.12-.81-.13-1.62.26-2.39.15-.29.31-.58.38-.91.08-.34.25-.64.43-.93.18-.29.48-.52.59-.84.18-.51.36-1.03.45-1.57.1-.57.24-1.12.51-1.64.22-.42.35-.88.66-1.26.03-.03.04-.08.04-.12.02-.42.25-.78.33-1.19.13-.65.46-1.23.63-1.87.1-.39.17-.79.33-1.16.31-.69.53-1.39.56-2.15.01-.2.06-.46.25-.49.2-.03.33.19.41.38.19.45.41.88.53,1.36.04.17.12.34.24.45.28.26.37.6.47.94.1.36.19.74.43,1.02.29.34.5.73.73,1.11.17.28.32.54.28.88-.02.12.06.22.1.32.24.57.65,1.05.86,1.64.1.27.15.54.06.8-.25.74-.12,1.44.15,2.14.08.2.08.43.26.58.06.05.05.19.17.15.08-.03.14-.09.16-.19.05-.22.11-.44.17-.7.36.18.35.19.42.47.11.43.21.86.38,1.27.23.56.38,1.14.47,1.74.06.41.1.83.21,1.23.16.61.12,1.22.12,1.83,0,.19-.09.26-.22.31-.54.22-1.01.59-1.35,1.03-.84,1.07-1.64,2.18-2.07,3.5-.14.43-.38.81-.49,1.24-.14.57-.28,1.14-.4,1.71-.2.97-.14,1.95-.22,2.92-.04.44.05.88.09,1.33.06.7.11,1.4.17,2.1.07.76.09,1.52.22,2.27.15.87.32,1.75.59,2.6.09.27.08.57.22.83.35.67.52,1.4.76,2.1.38,1.1.82,2.17,1.36,3.2.42.8.91,1.57,1.28,2.39.63,1.36,1.54,2.51,2.5,3.64.42.49.9.92,1.3,1.42.18.23.39.42.62.59.4.28.78.58,1.18.86.25.17.51.33.83.26.24-.06.48-.03.73-.05.49-.04.96-.12,1.4-.37.21-.12.44-.22.66-.32.27-.13.55-.24.84-.33.56-.17.77-.66.94-1.15.16-.47.25-.97.48-1.42.26-.51.45-1.06.48-1.64.05-.75.05-1.5.1-2.24.03-.57.13-1.14.13-1.71,0-1,.21-1.97.25-2.96.01-.39.15-.78.09-1.15-.09-.56-.08-1.12-.11-1.67-.05-.87-.13-1.74-.19-2.61-.06-.89-.21-1.76-.38-2.64-.04-.2-.12-.38-.16-.58-.16-.78-.24-1.58-.47-2.35-.25-.85-.48-1.71-.66-2.58-.06-.3-.12-.62-.24-.91-.42-1.02-.96-1.99-1.64-2.85-.66-.84-1.32-1.7-2.14-2.41-.59-.51-1.19-.98-1.91-1.32-.43-.2-.88-.34-1.32-.5-.26-.09-.49-.24-.75-.33-.38-.13-.78-.19-1.18-.2-.13,0-.28-.02-.26-.2.04-.32-.09-.62-.1-.94-.04-.66-.18-1.3-.34-1.94-.11-.43-.27-.85-.37-1.28-.15-.68-.34-1.35-.49-2.02.09-.04.15,0,.21.04.06.04.12.08.19.11.26.11.36.07.48-.18.05-.09.06-.18.08-.29.05-.37-.03-.72-.15-1.06-.21-.56-.36-1.16-.85-1.56-.37-.31-.54-.74-.69-1.17-.22-.63-.4-1.28-.59-1.92-.31-1-.93-1.8-1.58-2.58-.5-.6-.98-1.21-1.26-1.94-.2-.54-.44-1.06-.81-1.5-.06-.07-.08-.15-.1-.24-.1-.73-.23-1.45-.21-2.18.02-.55.07-1.1.06-1.63-.01-.54.08-1.08-.04-1.63-.07-.31,0-.65-.08-.98-.07-.32.02-.64-.07-.97-.07-.29-.17-.58-.2-.88-.06-.47-.15-.93-.23-1.4-.13-.68-.2-1.36-.28-2.04-.11-.95-.2-1.91-.34-2.86-.13-.89-.26-1.79-.37-2.68-.12-.98-.24-1.97-.26-2.96,0-.11-.01-.23-.04-.34-.15-.5-.14-1.02-.26-1.52-.12-.48-.16-.99-.25-1.48-.08-.45-.18-.89-.27-1.33.14-.05.21.02.28.09.49.44.98.89,1.48,1.31.66.56,1.3,1.13,1.93,1.71.44.41.9.81,1.3,1.26.48.54,1.02,1,1.62,1.4.61.41,1.2.83,1.77,1.28.54.43,1.08.85,1.63,1.25.73.53,1.44,1.08,1.99,1.81.08.1.19.19.22.31.15.59.47,1.11.64,1.68.12.4.24.8.39,1.18.3.75.59,1.51.98,2.25-.18.12-.34.25-.5.35-.28.18-.57.32-.84.52-.6.44-1.17.92-1.59,1.55-.25.37-.3.83-.49,1.23-.09.19-.13.37-.14.58,0,.52-.07,1.05-.11,1.57-.05.7.1,1.37.09,2.05,0,.21,0,.45.08.64.25.59.29,1.23.44,1.83.17.68.41,1.34.67,1.99.24.58.52,1.15.78,1.72.18.38.3.78.55,1.12.16.22.28.46.4.71.29.64.62,1.26,1.05,1.82.78,1.03,1.49,2.11,2.37,3.06.51.55,1.06,1.05,1.56,1.6.37.4.84.65,1.24.99.7.61,1.43,1.19,2.23,1.67.53.32,1.07.62,1.6.92.39.22.84.29,1.23.5.63.34,1.29.55,2,.58.47.02.94.03,1.4.15.09.03.21.03.29-.04.47-.37.93-.75.84-1.45-.1-.75-.22-1.5-.28-2.26-.06-.85-.31-1.66-.49-2.48-.17-.78-.34-1.57-.62-2.32-.15-.39-.15-.82-.27-1.21-.28-.86-.35-1.77-.68-2.62-.25-.66-.37-1.38-.54-2.07-.14-.57-.24-1.15-.44-1.7-.51-1.45-1.18-2.83-1.88-4.2-.24-.47-.49-.94-.79-1.37-.64-.9-1.31-1.77-2.04-2.59-.76-.85-1.51-1.68-2.51-2.27-.74-.43-1.53-.63-2.36-.69-.47-.03-.95-.04-1.42-.06-.19,0-.27-.08-.33-.26-.2-.61-.32-1.26-.69-1.8-.23-.34-.32-.73-.5-1.09-.07-.13-.06-.29-.05-.54.21.27.42.37.64.43.1-.1.06-.25.22-.32.21.16.42.35.67.49.38.21.72.46,1.04.75.75.68,1.57,1.26,2.44,1.76.86.49,1.68,1.05,2.5,1.6,1.04.7,2.07,1.4,3.19,1.94.62.3,1.23.63,1.75,1.08.66.58,1.41,1.01,2.14,1.48.66.42,1.36.78,2.04,1.16.45.25.91.5,1.33.8.2.15.32.28.26.56-.07.36-.06.74-.04,1.11.02.31.16.58.22.88.1.6.22,1.2.45,1.78.25.6.53,1.18.86,1.73.18.32.37.64.57.95.37.58.96.95,1.35,1.49.15.21.42.25.6.4.5.4.95.87,1.5,1.21.6.37,1.16.79,1.76,1.15.85.51,1.74.94,2.64,1.35.56.25,1.14.49,1.77.53.4.03.79.08,1.18.12.83.07,1.66.17,2.49.19,1.65.04,3.3-.07,4.93-.32.53-.08,1.05-.18,1.56-.32.59-.17,1.18-.36,1.79-.44.55-.07.72-.5.96-.88.07-.11.03-.24-.04-.33-.16-.19-.24-.42-.39-.61-.48-.64-.97-1.27-1.5-1.87-.28-.31-.53-.64-.85-.91-.49-.4-.96-.82-1.44-1.23-.72-.63-1.37-1.34-2.05-2.01-.78-.76-1.56-1.52-2.34-2.27-.06-.06-.13-.12-.2-.16-.39-.22-.73-.5-1.05-.81-.18-.17-.36-.33-.57-.46-.86-.52-1.75-.97-2.64-1.42-.81-.41-1.68-.72-2.55-1-1.05-.34-2.15-.49-3.26-.52-.53-.01-1.05.03-1.58.12-.66.12-1.33.17-1.98.35-.62.18-1.18.44-1.66.85-.12.1-.17.1-.31,0-.73-.51-1.49-.97-2.27-1.4-.39-.22-.81-.41-1.14-.76.18-.11.33,0,.47.04.15.05.31.06.46.08.1.01.22.05.28-.06.07-.13-.06-.23-.13-.29-.29-.22-.6-.43-.91-.64-.12-.08-.22-.21-.37-.22-.53-.05-.98-.36-1.51-.46-.41-.08-.82-.26-1.16-.53-.17-.13-.36-.24-.46-.47.17-.04.32.02.47,0,.34-.02.43-.18.36-.51-.04-.21-.24-.28-.35-.43.17-.16.38-.12.57-.14.16-.02.31,0,.47-.04Zm30.04-20.19c.01-.14.13-.19.25-.18.14.01.25.08.26.24,0,.09,0,.17,0,.26-.05.95-.2,1.88-.34,2.81-.03.16-.14.28-.19.43-.22.56-.3,1.16-.56,1.72-.26.57-.54,1.14-.81,1.7-.35.72-.73,1.42-1.13,2.11-.64,1.11-1.21,2.26-1.93,3.33-.56.83-1.22,1.55-1.84,2.32-.54.67-1.2,1.22-1.8,1.82-.51.51-1.15.9-1.75,1.32-1.54,1.07-3.2,1.94-4.86,2.81-.48.26-1.01.39-1.53.56-.75.25-1.5.48-2.26.68-.58.15-1.17.26-1.77.36-.51.08-1.01.18-1.53.21-.65.05-1.28-.11-1.93-.13-.82-.03-1.48-.49-2.21-.78-.26-.11-.54-.19-.79-.33-.54-.28-1.03-.63-1.22-1.25-.09-.27-.08-.3.2-.4.47-.17.96-.27,1.42-.49.06-.03.14-.03.21,0,.63.3,1.31.47,1.98.66.7.19,1.42.33,2.13.48.6.13,1.2.13,1.79.16.44.02.9.02,1.34-.18-.22,0-.45-.04-.66,0-.76.16-1.52.03-2.25-.11-1.19-.22-2.4-.45-3.52-.96-.14-.06-.29-.08-.48-.14.11-.17.25-.23.39-.29,1.47-.58,2.87-1.29,4.27-2,.55-.28,1.12-.51,1.66-.81.3-.16.54-.22.91-.12.46.13.94.23,1.43.26.58.04,1.16.14,1.75.18.56.04,1.11.06,1.66,0-.04,0-.09-.01-.13-.01-.86.01-1.71-.16-2.57-.23-.65-.05-1.29-.22-1.94-.34-.1-.02-.21-.07-.23-.17-.03-.14.1-.2.19-.25,1.05-.57,1.99-1.3,2.99-1.95.99-.64,1.95-1.32,2.81-2.12.24-.22.45-.26.77-.17.5.14,1.02.22,1.53.24.79.03,1.58.06,2.3,0-1.27-.17-2.65-.01-3.95-.48,0-.18.11-.23.2-.31.78-.68,1.55-1.36,2.33-2.03.86-.75,1.72-1.51,2.57-2.26.15-.13.28-.17.49-.13.61.11,1.23.05,1.85-.05.16-.03.31-.06.47-.05.48.02.94-.09,1.42-.12.07,0,.14-.07.27-.13-.58-.04-1.09.07-1.6.06-.59,0-1.16.22-1.75.16-.2-.02-.4-.02-.61-.11.11-.27.36-.41.56-.58.92-.78,1.78-1.61,2.63-2.46.15-.15.34-.28.58-.15.02.01.05.02.08.02.31.05,1.4-.09,1.81-.25-.64-.1-1.25.14-1.84-.04-.05-.12.05-.17.11-.21.29-.21.53-.48.82-.69.47-.34.85-.77,1.3-1.13.11-.09.23-.17.24-.34Zm-17.24,14.17c.14-.26.37-.41.63-.53.17-.08.33-.18.46-.31.5-.5,1.14-.8,1.71-1.19.24-.16.45-.38.8-.42-.07.08-.1.15-.16.18-.41.17-.71.48-1.05.74-.7.54-1.49.96-2.19,1.51-.05.04-.12.05-.19.03Zm-12.16,2.07c-.09-.8.18-1.47.59-2.08.59-.89,1.17-1.79,1.86-2.61.62-.74,1.3-1.41,1.99-2.07.91-.88,1.97-1.57,2.98-2.31.62-.45,1.23-.94,1.92-1.29.77-.39,1.44-.93,2.22-1.3.7-.34,1.33-.79,2.03-1.13.76-.36,1.56-.63,2.37-.89,1.01-.32,2.05-.53,3.05-.9.42-.15.87-.18,1.29-.31.51-.15,1.01-.33,1.51-.48.7-.21,1.4-.39,2.13-.48.39-.05.74-.22,1.13-.28.42-.07.84-.15,1.26-.23.66-.14,1.34-.15,1.99-.31.21-.05.42-.07.63.07.09.06.21.07.34.11-1.14,1.15-2.41,2.14-3.69,3.25.14-.92.45-1.71.62-2.64-.31.37-.3.75-.45,1.07-.25.54-.31,1.13-.45,1.7-.06.23-.18.42-.37.56-.49.38-.87.87-1.37,1.24-.59.45-1.09,1.02-1.7,1.45-.21.15-.37.35-.56.54-.06.06-.11.09-.23.06.07-1.4.43-2.76.8-4.21-.26.26-.29.52-.36.74-.28.89-.49,1.79-.62,2.72-.06.39-.05.81-.38,1.11-.07.49-.46.7-.82.92-.16.1-.27.26-.4.39-.4.39-.9.65-1.33,1.01-.59.49-1.21.96-1.9,1.33-.25.14-.48.34-.82.52.39-1.96,1.19-3.72,1.83-5.53-.18.15-.24.35-.31.54-.38,1.08-.93,2.09-1.28,3.18-.15.46-.29.93-.41,1.4-.11.44-.38.8-.78,1.03-.46.26-.87.59-1.3.9-.7.51-1.42,1-2.19,1.4-.57.29-1.09.68-1.68.95-.16.07-.31.21-.55.18.07-.29.16-.56.24-.83.25-.92.52-1.85,1.01-2.68.13-.21.27-.44.23-.71-.09.03-.12.11-.16.18-.53,1-1,2.02-1.3,3.12-.1.37-.24.73-.38,1.09-.08.21-.29.27-.47.36-.63.33-1.3.61-1.93.93-.6.3-1.23.53-1.86.77-.29.11-.61.14-.9.28-.11.05-.25.06-.4,0,.09-.35.22-.7.34-1.04.35-1.06.73-2.11,1.26-3.1.21-.39.39-.79.67-1.14h0s-.03-.02-.05-.03c-.03,0-.06,0-.09-.01-.04.01-.07.04-.1.1-.28.49-.61.95-.83,1.46-.27.63-.59,1.24-.81,1.89-.11.32-.16.67-.32.97-.17.31-.32.64-.45.97-.06.15-.17.14-.27.17-.48.12-.97.25-1.51.22-.21-.72-.41-1.47-.5-2.26Zm-4.41,3.76s-.01.07-.02.11c-.08-.04-.19-.05-.24-.18.11-.02.21-.05.26.07Zm-16.6-19.46c.07-.67.24-1.32.4-1.98.21-.87.65-1.63,1.12-2.35.61-.93,1.34-1.79,2.26-2.46.98-.71,1.83-1.56,2.73-2.35.32-.28.68-.51,1.08-.69.55-.24,1.09-.49,1.64-.74.7-.32,1.4-.65,2.1-.97.48-.21.94-.49,1.45-.64.95-.28,1.86-.64,2.84-.81.86-.15,1.7-.41,2.57-.52.8-.1,1.58-.3,2.39-.25.17.01.3-.07.46-.09.49-.06.98-.08,1.47-.09.28,0,.57.02.86-.06.19-.05.42.05.63.06.37.02.75.04,1.12.03.79-.04,1.58.03,2.37.04,1.14,0,2.29-.02,3.43.15.3.05.56.2.82.36.18.11.13.29.1.43-.05.22-.14.43-.22.65-.46,1.23-.85,2.49-1.54,3.62-.63,1.03-1.23,2.09-1.97,3.06-.43.57-.84,1.15-1.29,1.71-.5.61-1.05,1.18-1.57,1.77-.44.5-.98.88-1.53,1.23-.61.4-1.17.88-1.8,1.26-.8.5-1.6,1.01-2.46,1.41-1.2.57-2.42,1.12-3.72,1.44-.6.14-1.17.42-1.8.39-.16,0-.27.14-.44.17-.65.15-1.31.28-1.98.32-.61.04-1.22.15-1.84.2-.62.05-1.23.02-1.85,0-.73-.03-1.41-.25-2.1-.41-1.04-.24-2.08-.53-3.11-.81-.51-.14-.98-.39-1.41-.68-.29-.2-.51-.53-.54-.94-.01-.14.04-.17.15-.2.67-.22,1.37-.3,2.03-.53.48-.16.86-.06,1.29.13.33.15.65.36,1.03.39.02-.11-.05-.13-.13-.17-.41-.19-.81-.39-1.28-.61.56-.26,1.08-.42,1.61-.56.69-.18,1.35-.48,2.03-.7.37-.12.73-.24,1.1-.37.14-.05.24,0,.36.07.54.29,1.09.56,1.63.85.13.07.25.11.39.09-.37-.31-.81-.51-1.23-.73-.21-.11-.4-.21-.58-.41.32-.22.68-.32,1.02-.47.82-.37,1.67-.65,2.5-1.02.55-.24,1.11-.45,1.65-.72.16-.08.35-.06.51,0,.19.08.39.1.58.16.82.27,1.68.32,2.51.56.75.22,1.51.4,2.28.59.32.08.65.06.98.02-2.1-.34-4.11-1.02-6.24-1.53.29-.27.55-.35.8-.46.46-.22.93-.43,1.39-.67,1.09-.58,2.19-1.13,3.28-1.69.04-.02.08-.04.11-.06.38-.31.77-.5,1.24-.2.79.05,1.54.32,2.31.49.47.11.95.19,1.42.31.1.03.2.01.25-.12-1.34-.26-2.63-.68-3.96-.94-.06-.01-.11-.08-.2-.14.21-.22.49-.25.72-.37,1.09-.58,2.18-1.14,3.27-1.71.26-.14.56-.23.78-.43.1-.09.18-.04.27,0,.62.25,1.29.24,1.94.35.07.01.14.02.24-.08-.66-.2-1.35-.19-1.98-.44.08-.16.22-.22.34-.28.75-.38,1.44-.86,2.19-1.25.51-.26.97-.61,1.47-.89.24-.13.42-.34.61-.54.08-.09.13-.18.12-.34-1.01.7-1.95,1.4-3.06,1.91-.08-.39.27-.64.29-1.01-.14.02-.2.14-.22.23-.08.35-.5.57-.4,1,0,.03-.09.1-.15.14-1.02.58-2.02,1.2-3.09,1.68-.28.12-.54.31-.85.5-.06-.54.05-.99.27-1.42.2-.39.39-.79.6-1.22-.15,0-.17.09-.21.16-.29.57-.67,1.11-.83,1.74-.04.16-.14.34-.09.5.11.35-.13.45-.36.55-.76.34-1.47.76-2.23,1.11-.59.28-1.11.7-1.7.98-.38.18-.72.47-1.18.51-.02-.24.02-.45.06-.65.1-.46.27-.9.31-1.37-.13-.06-.16.03-.19.13-.14.57-.32,1.13-.42,1.71-.05.3-.18.48-.42.58-.52.22-.99.56-1.52.77-.98.4-1.92.9-2.94,1.19-.07.02-.14.02-.26.04.11-1.68.67-3.22,1.16-4.78q-.2.17-.25.31c-.23.69-.48,1.38-.67,2.08-.17.61-.33,1.22-.41,1.84-.07.58-.09.55-.66.78-.56.23-1.14.37-1.71.57-.51.18-1.05.29-1.56.45-.27.08-.53.19-.79.32-.22.12-.25.07-.25-.17,0-.62.24-1.19.37-1.78.07-.29.14-.58.19-.88.02-.12.08-.21.14-.3h0c-.14-.09-.17.02-.19.12-.11.4-.23.79-.32,1.2-.12.53-.35,1.03-.43,1.57,0,.01,0,.03,0,.04-.1.13.07.31-.05.4-.13.1-.3.17-.47.21-.51.11-.97.35-1.47.46-.63.15-1.24.39-1.9.42-.12,0-.22.05-.33.1-.17.08-.36.1-.57.07-.03-.21.04-.41.09-.61.19-.66.37-1.32.55-1.98.02-.08.03-.16,0-.23-.21.32-.35.68-.42,1.04-.11.55-.36,1.06-.44,1.62-.03.2-.21.27-.35.36-.12.07-.27.1-.41.13-.49.1-.99.19-1.48.28-.26.05-.3,0-.28-.26Zm10.64-2.33s.04-.04.06-.05c.05-.03.09-.07.15-.05,0,0,.02.03.02.04-.02.09-.1.09-.16.09-.02,0-.04-.01-.07-.02Zm-15.52,3.79c.15.06.28,0,.28-.16,0-.21.14-.21.29-.23.73-.11,1.47-.14,2.2-.21.75-.07,1.5-.13,2.25-.25.78-.12,1.55-.27,2.32-.42.5-.1,1-.26,1.5-.39.33-.09.66-.22.99-.26.55-.07,1.04-.32,1.55-.48.84-.27,1.64-.66,2.48-.93.54-.17,1.09-.34,1.64-.45,0,.1-.07.14-.15.17-.42.14-.83.32-1.23.51-.26.13-.61.04-.81.2-.23.19-.5.19-.74.28-.5.18-.99.38-1.49.52-.78.22-1.53.56-2.33.72-.29.06-.58.14-.85.29-.42.23-.91.25-1.37.34-.41.08-.8.19-1.18.34-.06.03-.14.02-.21.02-.3.02-.6.07-.88.19-.42.18-.87.18-1.31.22-.8.08-1.59.18-2.39.28-.34.04-.69.08-1.03-.13.13-.13.24-.27.46-.17Zm-11.97-10.55c.15-.34.42-.55.67-.78.07-.07.16-.05.25-.05.11,0,.21.03.25.13.03.08,0,.18-.05.24-.31.29-.67.45-1.11.46Zm6.16,65.06c.71.36,1.3.9,2.01,1.24.57.27,1.13.56,1.68.85.63.33,1.21.72,1.56,1.37.18.34.34.7.32,1.1-.01.27.09.51.13.76.11.66,0,1.31-.07,1.97-.04.41-.06.83-.05,1.25.01.87-.1,1.72-.21,2.57-.04.31-.03.63-.04.95-.03.54-.17,1.09-.09,1.63.14,1,0,2.02.19,3.01.12.67.13,1.34.26,2,.06.29.02.6.06.9.06.49.18.95.33,1.42.09.28.23.52.39.76.4.61.78,1.24,1.38,1.69.14.1.27.2.44.26.32.11.36.21.28.51-.26,1.05-.84,1.92-1.65,2.61-.4.34-.88.59-1.37.8-.2.08-.38.2-.57.29-.91.44-1.85.73-2.89.47-.37-.09-.77-.05-1.16-.07-.1,0-.21.01-.3-.03-.69-.29-1.44-.39-2.12-.67-.1-.04-.19-.08-.25-.16-.08-.11-.19-.18-.3-.24-.96-.54-1.68-1.36-2.4-2.17-.39-.44-.66-.95-.9-1.48-.07-.15-.17-.3-.26-.45-.38-.65-.61-1.35-.84-2.06-.23-.72-.43-1.45-.62-2.18-.12-.46-.24-.94-.35-1.41-.17-.73-.28-1.46-.4-2.19-.12-.69-.16-1.39-.25-2.09-.04-.31-.15-.61-.09-.85-.05-.58-.08-1.08-.14-1.58-.02-.14.04-.25.06-.37.08-.57.03-1.15.08-1.72.06-.66.02-1.34.17-1.98.13-.56.09-1.14.31-1.68.14-.35.25-.72.39-1.08.33-.88.63-1.78,1.03-2.64.36-.75.78-1.45,1.47-1.97.62-.47,1.29-.58,2.03-.42.07.01.14.05.19.09.19.19.37.33.63.09.07-.07.16.02.23.05.61.22,1.15.57,1.72.86Zm-1.46-7.23c-.14.66-.31,1.3-.4,1.97-.08.66-.08,1.31-.11,1.97-.03.56-.07,1.11,0,1.67,0,.05.01.13-.06.14-.08.01-.15-.04-.16-.11-.04-.34-.2-.65-.2-1.01,0-.3-.12-.59-.07-.89.1-.69.2-1.38.34-2.07.07-.31.12-.63.15-.95.05-.47.13-.93.31-1.37.02-.04.03-.09.02-.12-.07-.33.17-.36.41-.45,0,.45-.17.84-.25,1.23Zm15.3-.88c.48.36.92.78,1.44,1.06.34.19.67.4,1.02.56.38.18.67.46.93.79.21.26.49.47.7.74.32.39.58.82.84,1.24.08.13.14.28.17.44.04.33.2.63.33.92.28.6.34,1.27.69,1.85.12.2.1.44.17.66.27.88.61,1.73.81,2.63.15.67.24,1.35.3,2.04.03.32,0,.65.26.93,0-.25.01-.5,0-.75-.06-.96-.18-1.92-.44-2.84-.21-.74-.5-1.46-.75-2.18-.22-.63-.48-1.24-.65-1.9-.17-.67-.5-1.3-.78-1.95-.19-.45-.47-.84-.71-1.26-.11-.2-.25-.38-.44-.52-.23-.17-.44-.37-.62-.6-.18-.23-.4-.4-.65-.55-.49-.3-.94-.65-1.43-.95-.38-.23-.71-.51-1.13-.8.23-.05.37-.05.52,0,.37.12.73.25,1.09.41.6.26,1.25.41,1.82.76.8.5,1.56,1.05,2.19,1.78.49.56.94,1.15,1.43,1.71.36.42.56.93.87,1.39.47.7.7,1.48.91,2.29.27,1.01.45,2.04.8,3.03.09.27.12.56.16.84.13.82.34,1.63.49,2.44.13.7.24,1.41.26,2.13.03.73.01,1.47.1,2.2.1.85.18,1.7.05,2.54-.13.84-.11,1.69-.28,2.52-.07.35-.04.72-.05,1.08,0,.37-.05.74-.12,1.11-.06.32-.03.66-.04.99-.02.8-.03,1.61-.35,2.37-.03.08-.06.16-.1.24-.03.05-.07.08-.13.14-.14-.16-.28-.28-.24-.52.02-.1-.06-.22-.12-.31-.08-.12-.18,0-.27.02-.19.02-.32-.1-.4-.22-.3-.42-.54-.87-.55-1.42,0-1.01-.02-2.02.1-3.01.11-.91.07-1.81.03-2.71-.02-.48-.11-.97-.06-1.46.04-.41-.04-.82.03-1.24.04-.27-.04-.59-.05-.88-.02-.54.07-1.09-.07-1.63-.06-.23-.11-.47-.11-.72,0-.11-.04-.25-.16-.36-.12.18-.1.35-.06.51.18.71.18,1.42.18,2.14,0,.63,0,1.26.05,1.89.02.27.02.55-.03.82-.07.34,0,.69.02,1.03.09,1.18-.03,2.36-.08,3.54-.02.37.01.74-.02,1.1-.03.41-.05.82-.08,1.23,0,.06-.04.13-.02.17.22.32.27.71.48,1.04.16.25.35.42.59.54.28.14.48.3.4.65,0,.03,0,.06,0,.08.33.63,0,1.16-.26,1.71-.16.34-.48.48-.81.6-.44.17-.88.35-1.29.57-.27.14-.56.21-.87.23-.3.02-.6.07-.9.09-.43.03-.77-.12-1.13-.4-.52-.4-1.03-.81-1.48-1.29-.48-.53-.95-1.07-1.43-1.6-1.01-1.12-1.83-2.39-2.5-3.74-.47-.93-.95-1.85-1.47-2.75-.1-.18-.17-.38-.21-.55-.14-.59-.46-1.11-.65-1.68-.33-1-.75-1.98-1.05-3-.41-1.36-.7-2.75-.75-4.18-.03-.83-.11-1.66-.18-2.49-.05-.51-.13-1.02-.11-1.53.02-.62.04-1.23.12-1.84.07-.53.13-1.05.21-1.58.11-.73.29-1.44.63-2.09.32-.62.55-1.29.95-1.85.4-.57.7-1.21,1.16-1.74.49-.56,1.08-.94,1.87-.99.36-.02.61.11.86.3Zm-1.47-5.44c.06.47.25.9.38,1.36.1.34.18.7.24,1.04.11.57.1,1.16.24,1.71-.07.19.06.42-.19.52-.14.05-.23,0-.22-.13.02-.87-.06-1.72-.26-2.57-.14-.59-.2-1.21-.37-1.8-.11-.42-.37-.78-.45-1.21-.01-.07-.06-.13-.08-.2-.02-.1-.07-.23.03-.28.12-.06.24.01.33.12.04.05.04.1.05.16.11.43.24.85.3,1.29Zm4.56-28.65c.26.2.2.48.31.67-.28-.12-.27-.37-.31-.67Zm.37,1.05c-.14-.14-.15-.25-.06-.37.02.11.1.21.06.37Zm2.04,5.22c.32.44.49.94.71,1.42.29.64.55,1.29.77,1.95.38,1.14.92,2.21,1.43,3.29.19.41.31.85.49,1.36-.28-.17-.31-.4-.37-.58-.13-.36-.32-.67-.49-1-.15-.3-.3-.6-.38-.94-.1-.38-.36-.68-.5-1.05-.33-.85-.73-1.66-1.03-2.53-.19-.54-.39-1.07-.58-1.61-.03-.1-.11-.2-.04-.33Zm-.09.8c.04.09.1.23-.04.31-.45.25-.65.72-.94,1.11-.11.15-.19.32-.29.47-.03.05-.08.09-.05.15.13.27-.06.48-.17.67-.14.25-.2.57-.5.72-.03.02-.05.07-.06.11-.03.25-.13.47-.22.69-.06.13-.07.27.1.45.06-.79.58-1.32.86-1.96.22-.48.42-.97.76-1.39.14-.18.27-.37.49-.47.13-.06.2-.15.22-.3.37.92.74,1.85,1.12,2.76.2.47.44.93.66,1.4.07.14.06.2-.08.34-.33.34-.54.77-.73,1.2-.23.54-.43,1.09-.65,1.63.2.05.23-.13.28-.25.19-.51.42-1,.63-1.51.16-.39.42-.71.68-1.06.4.99.94,1.91,1.35,2.89.25.59.55,1.16.85,1.73.09.18.12.3-.05.45-.08.07-.13.19-.16.3-.19.76-.57,1.47-.67,2.26-.03.25-.1.52-.19.75-.18.46-.14.93-.23,1.4-.08.41.1.8.2,1.26.14-.3-.04-.5-.04-.72-.01-.63.08-1.26.21-1.87.12-.6.32-1.19.5-1.77.11-.35.25-.69.35-1.05.05-.18.15-.3.29-.44.22.28.34.6.47.9.49,1.09,1.05,2.13,1.59,3.19.03.06.07.13.11.19q.22.36-.01.68c-.05.06-.08.12-.08.22-.07.84-.24,1.66-.36,2.5-.03.17-.06.36-.01.51.11.37.06.74.09,1.11.03.46.2.89.46,1.16.04-.03.06-.07.04-.11-.35-.5-.34-1.08-.34-1.65,0-.21-.11-.38-.09-.59.07-.54.09-1.09.21-1.62.06-.3.06-.6.13-.89.06-.25.18-.44.41-.59.51.75.93,1.53,1.36,2.31.42.76.87,1.51,1.31,2.25.17.28.24.52.19.88-.06.45.03.93.16,1.38.08.29.07.6.25.91.1-.31-.06-.52-.1-.75-.05-.27-.07-.54-.09-.81,0-.25-.03-.51.04-.87.94,1.4,1.92,2.63,3.09,3.72.1-.12.15-.19.02-.33-.52-.57-1.02-1.15-1.53-1.73-.09-.11-.18-.22-.27-.33-.06-.08-.15-.16-.09-.26.06-.11.19-.15.3-.12.18.05.37.02.55.09.16.06.33.08.51.12-.17-.24-.17-.24-.6-.39-.18-.06-.36-.07-.54-.14-.09-.03-.23-.06-.29.03-.21.3-.32.08-.43-.07-.76-1.11-1.53-2.22-2.12-3.43-.19-.4-.44-.77-.7-1.22,1.13.42,2.24.68,3.27,1.2-.13-.26-.37-.35-.59-.46-.87-.41-1.78-.7-2.68-1.02-.1-.04-.18-.06-.23-.14-.5-.88-1.09-1.71-1.51-2.64-.12-.26-.26-.5-.3-.81-.04-.27-.3-.54-.43-.83-.09-.2-.22-.37-.25-.59.08-.12.19-.07.27-.03.9.42,1.87.72,2.69,1.31.05.04.14.02.21.04l.02-.02s0-.04,0-.04c-.52-.3-.96-.71-1.53-.97-.56-.25-1.12-.5-1.69-.72-.13-.05-.19-.15-.26-.27-.21-.38-.35-.78-.5-1.18-.2-.54-.46-1.05-.65-1.59-.3-.82-.54-1.66-.93-2.45-.09-.18-.16-.36-.27-.61.45.15.85.25,1.22.42.85.41,1.66.9,2.45,1.42.36.24.73.44,1.1.66.06.04.12.06.19.04,0,0,0,0,0,0-.02-.04-.03-.08-.06-.1-.52-.31-.96-.73-1.49-1.01-.19-.1-.34-.26-.53-.36-.69-.33-1.31-.79-2.04-1.04-.24-.08-.46-.23-.7-.31-.28-.09-.42-.29-.53-.53-.25-.53-.44-1.08-.64-1.64-.24-.68-.48-1.37-.78-2.03-.02-.04-.01-.08-.02-.15.42,0,.83-.03,1.23.12,1.18.42,2.3.95,3.35,1.64.34.23.7.45,1.05.66.06.03.11.11.2.03-.16-.2-.39-.32-.59-.47-1.03-.8-2.17-1.41-3.37-1.9-.57-.23-1.18-.36-1.79-.42-.2-.02-.31-.1-.39-.26-.17-.36-.43-.68-.48-1.11,1.22-.1,2.42-.14,3.54.49.88.49,1.6,1.15,2.27,1.88.71.78,1.35,1.6,1.98,2.44.48.64.86,1.34,1.24,2.05.4.77.74,1.58,1.11,2.37.33.71.71,1.42.81,2.21.13,1.03.54,1.99.73,3,.01.06.02.12.04.17.3.55.33,1.18.49,1.77.22.81.37,1.64.61,2.45.2.67.37,1.35.49,2.04.04.24.13.47.19.71.19.74.28,1.49.34,2.25.03.46.19.9.23,1.36.04.46-.19,1.02-.63,1.23-.17.08-.34.12-.5.07-.34-.1-.68-.07-1.03-.1-.42-.04-.82-.14-1.22-.26-.53-.16-1.03-.42-1.54-.62-.75-.3-1.4-.75-2.1-1.14-.82-.46-1.45-1.16-2.21-1.67-1.07-.73-1.9-1.69-2.79-2.6-.68-.7-1.17-1.55-1.8-2.29-.6-.71-1.04-1.52-1.45-2.35-.14-.28-.31-.55-.48-.81-.4-.65-.63-1.37-.96-2.05-.28-.59-.5-1.21-.78-1.81-.09-.2-.09-.44-.16-.66-.21-.71-.3-1.46-.45-2.18-.2-.96-.16-1.92-.12-2.88.02-.5.05-1.01.18-1.48.13-.46.24-.95.54-1.33.29-.37.64-.7,1-1.01.44-.39.99-.63,1.49-.94.24-.15.25-.12.36.13.18.41.26.85.46,1.25Zm-.38-1.94c-.41-.89-.86-1.77-1.12-2.72.55.83.94,1.73,1.12,2.72Zm-.51-3.95c-.59-.33-.93-.8-1-1.43.56.37,1.09.69,1,1.43Zm18.64,10.66c.53-.33,1.07-.63,1.69-.8.71-.2,1.45-.18,2.16-.34.53-.12,1.09-.03,1.64-.03.83,0,1.64.16,2.4.43,1.02.37,2.06.7,3,1.26.15.09.32.13.47.21.89.45,1.74.97,2.52,1.6.82.67,1.6,1.39,2.37,2.11.91.86,1.76,1.77,2.65,2.64.41.4.86.75,1.3,1.12.88.75,1.58,1.66,2.27,2.58.24.32.47.65.69.98.09.14.06.24-.01.38-.2.42-.58.56-.97.62-.62.09-1.19.33-1.79.45-.55.11-1.09.27-1.64.31-.36.03-.71.1-1.06.13-.43.04-.86.03-1.28.05-1.25.07-2.51.06-3.75-.09-.74-.09-1.49-.06-2.22-.2-.34-.06-.65-.2-.97-.32-1-.39-1.98-.82-2.89-1.39-.31-.19-.64-.36-.9-.64-.25-.28-.65-.36-.94-.6-.34-.28-.71-.53-1.01-.86-.11-.11-.24-.2-.38-.28-.54-.33-.97-.79-1.42-1.24-.41-.41-.74-.88-1.03-1.37-.43-.73-.79-1.49-1.05-2.3-.11-.34-.1-.71-.23-1.05-.1-.24-.15-.49-.23-.73-.16-.47-.06-.91.02-1.35.03-.16.1-.23.27-.13.51.32,1.08.53,1.62.79.12.06.17.14.2.26.13.45.28.9.41,1.35.03.08.05.16.16.14-.1-.43-.19-.86-.29-1.28-.02-.07-.04-.13.01-.22.44.18.86.41,1.28.64.82.46,1.63.94,2.45,1.4.69.39,1.33.85,2.07,1.15.21.08.35.24.43.46.15.41.29.84.48,1.24.16.33.18.72.5.97l.02-.02c0-.28-.19-.5-.27-.76-.16-.48-.4-.95-.48-1.48.29,0,.5.18.69.32.32.23.66.41,1,.59,1.08.57,2.16,1.11,3.28,1.59.22.1.42.25.67.29.11.01.24.11.26.21.07.4.34.69.55,1.01.28.45.47.95.82,1.36.04.05.08.08.14.09l.02-.02c-.24-.55-.57-1.06-.86-1.58-.12-.22-.31-.42-.28-.71.27-.08.48.1.68.2.76.38,1.57.61,2.34.97.47.22.96.39,1.43.6.12.05.27.1.27.32,0,.13.09.3.22.41.34.28.54.71.91.96.09.06.09.21.27.23-.07-.4-.44-.54-.6-.82-.17-.29-.43-.53-.6-.87.27-.02.46.13.67.19.75.23,1.49.5,2.24.74.14.04.28.06.42.08.09.01.2.01.2-.1,0-.09-.05-.2-.17-.22-.68-.08-1.29-.38-1.94-.57-.87-.26-1.7-.61-2.54-.94-.05-.02-.11-.03-.14-.12.59-.29,1.24-.33,1.88-.42-.64-.12-1.26-.05-1.86.14-.28.09-.53.1-.82,0-.89-.32-1.74-.73-2.63-1.04-.64-.23-1.22-.55-1.83-.86-.13-.06-.24-.14-.33-.3,1.02-.33,2.06-.39,3.09-.46,0-.14-.08-.09-.11-.1-.04-.01-.09,0-.13,0-.88-.04-1.75.06-2.61.19-.14.02-.29,0-.41.11-.19.18-.38.07-.55-.03-1.06-.67-2.12-1.36-3.19-2.02-.37-.23-.78-.41-1.16-.63-.19-.11-.4-.2-.58-.43,1.95-.6,3.91-.91,5.91-1.13-.09-.1-.19-.14-.28-.12-.6.12-1.22.07-1.83.23-.47.12-.97.13-1.44.25-.72.19-1.47.21-2.18.49-.37.15-.71.14-1.08-.11-.66-.45-1.37-.83-2.06-1.23-.58-.34-1.16-.68-1.76-.99-.28-.14-.58-.24-.9-.42.79-.45,1.55-.86,2.4-1.05.84-.18,1.7-.18,2.58-.08-.02-.07-.02-.12-.03-.12-.84-.08-1.7-.19-2.53-.02-.7.14-1.39.35-2.01.74-.21.13-.47.17-.63.37-.05.07-.09.01-.14,0-.42-.19-.84-.36-1.21-.64,0-.14.11-.21.2-.26Zm6.7,4.44c.3.06.55.19.74.43-.3-.07-.53-.24-.74-.43Zm-7.98-4.59c.33.19.66.38.97.6.48.34,1.05.53,1.53.87.1.07.24.09.36.13.56.18,1.04.53,1.55.81.75.42,1.49.86,2.23,1.29.12.07.26.13.34.26-.16.08-.25-.04-.35-.11-.78-.5-1.63-.89-2.44-1.35-.67-.38-1.37-.71-2.07-1.04-.47-.22-.94-.42-1.39-.67-.14-.08-.27-.16-.4-.25-.57-.43-1.19-.79-1.81-1.12-.49-.27-1-.49-1.48-.77-.41-.23-.84-.45-1.13-.85-.03-.04-.06-.1-.1-.17.29-.08.47.13.67.22.14.06.26.18.39.27.99.72,2.07,1.27,3.11,1.89Zm-5.41-3.51c.05.02.12.05.16.04.42-.14.76.1,1.11.24.21.08.4.13.62.14.34,0,.63.13.82.43-.04.12-.12.1-.18.08-.35-.11-.72-.05-1.06-.2-.19-.08-.41-.04-.54.04-.23.16-.35.05-.5-.08-.74-.62-1.6-1.06-2.44-1.51-1.02-.55-2-1.16-2.96-1.82-.79-.54-1.6-1.05-2.42-1.54-.88-.52-1.67-1.15-2.47-1.78-.29-.23-.61-.42-.92-.64-.18-.13-.34-.26-.42-.47-.13-.31-.15-.31-.45-.09-.19-.23.15-.6-.19-.8.34.17.69.34,1.08.53-.03-.2-.16-.23-.25-.28-.48-.28-.95-.58-1.45-.82-.19-.09-.4-.12-.59-.18-.41-.12-.9-.09-1.13-.6-.09-.19-.31-.33-.49-.46-1.02-.75-2.08-1.46-3.04-2.3-.03-.03-.06-.06-.09-.09-.12-.13-.27-.2-.41-.3-.11-.05-.27-.03-.26-.22-.52-.25-.98-.59-1.4-.96-.83-.72-1.57-1.54-2.39-2.27-.68-.61-1.37-1.21-2.04-1.82-.52-.47-1.07-.91-1.6-1.37-.14-.12-.27-.25-.3-.47-.24.11-.25.3-.22.48.13.73.31,1.45.4,2.19.12.95.33,1.89.45,2.84.08.63.05,1.26.15,1.89.16.97.3,1.95.42,2.93.1.8.22,1.59.31,2.39.08.68.15,1.36.25,2.04.1.64.22,1.27.25,1.92.02.4.18.78.24,1.21-.12.04-.25.1-.33.25-.05.1-.11.19,0,.26.13.08.22,0,.26-.12.02-.05-.01-.12.05-.16.08.02.1.09.11.16.06.56.21,1.1.27,1.65.07.53.02,1.08.02,1.62,0,.76-.15,1.51-.12,2.28.02.69.09,1.37.22,2.05.03.18.11.36.25.5.36.38.56.86.74,1.34.29.74.75,1.38,1.27,1.97.16.18.29.38.44.57.67.82,1.12,1.74,1.36,2.78.17.69.42,1.37.69,2.03.08.2.2.34.39.44.11.06.24.12.29.24.24.49.46.98.59,1.5-.12.1-.27-.1-.37.11.09.12.34.07.38.26.03.13.02.25-.07.36-.15.02-.21-.1-.3-.17-.17-.13-.35-.19-.56-.16-.26.03-.53-.02-.79.06-.21.06-.32-.05-.36-.28-.07-.41-.13-.83.05-1.23.03-.06.03-.12-.02-.15-.05-.03-.11,0-.15.04-.06.07-.1.14-.1.23-.01.39-.06.78.09,1.15.11.28.08.4-.15.7-.31-.4-.23-.88-.3-1.33-.01-.1.1-.2.13-.33.12-.5.13-.97-.18-1.4-.08-.11-.1-.23-.12-.39.24.18.25.48.49.61l.02-.02c.04-.12-.06-.18-.11-.27-.24-.49-.44-.99-.57-1.52-.03-.14-.07-.27-.24-.4-.03.54.26.94.35,1.38-.42-.51-.75-1.06-.82-1.74-.01-.13-.01-.27-.09-.37-.31-.41-.52-.89-.82-1.3-.2-.27-.35-.55-.42-.88-.09-.4-.21-.81-.51-1.11-.29-.3-.37-.7-.5-1.07-.11-.32-.31-.61-.44-.92-.03-.06-.09-.11-.14-.17-.13-.14-.28-.25-.49-.19-.21.06-.26.25-.33.42-.03.08-.03.17-.03.26-.02.63-.26,1.2-.44,1.79-.2.7-.42,1.4-.65,2.09-.19.6-.4,1.19-.6,1.78,0,.03-.05.04-.08.06-.06.58-.34,1.06-.67,1.6-.02-.2-.04-.33-.05-.46-.21.28-.22.64-.3.96-.1.43-.2.86-.28,1.29-.09.47-.17.93-.33,1.38-.12.35-.29.65-.52.93-.18.23-.35.45-.46.72-.31.75-.65,1.49-.92,2.26-.17.5-.18,1.06-.03,1.57.13.46,0,.87-.15,1.28-.07.2-.06.46-.31.6-.22-.23-.25-.56-.48-.77-.08-.07,0-.19.05-.28.14-.26.18-.54.16-.86-.2.26-.21.57-.38.81-.15.22-.22.23-.36,0-.08-.13-.21-.25-.2-.43-.15.3-.43.46-.71.66-.08-.64.2-1.14.51-1.63.38-.61.9-1.12,1.28-1.73.07-.11.14-.22.16-.35.13-.67.47-1.29.62-1.95.03-.13.09-.28.28-.38-.14.44-.28.84-.39,1.26-.11.41-.37.8-.14,1.25.19-.68.37-1.36.55-2.05.03-.11.05-.22.1-.33.03-.06.07-.18.05-.2-.29-.26-.01-.47.07-.67.11-.27.16-.55.28-.81.04-.09.04-.1.15,0,.05.05.11.04.15,0,.03-.03.05-.07.05-.11.04-.6.36-1.08.65-1.57.31-.53.49-1.12.56-1.73-.29.54-.42,1.15-.79,1.7-.09-.12-.07-.21-.04-.3.14-.41.25-.83.42-1.22.27-.63.45-1.3.65-1.95.13-.42.33-.79.5-1.18.2-.44.42-.88.5-1.36.11-.66.43-1.24.64-1.86.22-.65.45-1.29.63-1.95.16-.59.33-1.18.38-1.8.06-.69.19-1.37.21-2.05.03-.96.14-1.93-.05-2.89-.07-.36-.11-.73-.16-1.1,0-.06,0-.15-.03-.16-.48-.21-.3-.69-.41-1.04-.1-.32-.11-.66-.21-1-.09-.3-.18-.65.07-.95.07-.08.06-.21.01-.29-.11-.18-.07-.4-.14-.57-.25-.58-.18-1.18-.17-1.78,0-.2.04-.4-.11-.57-.03-.04-.05-.11-.05-.16-.03-.75-.26-1.47-.31-2.21-.04-.65-.19-1.26-.28-1.88-.03-.22-.02-.43-.19-.6-.08-.08-.08-.18-.08-.28,0-.3,0-.6,0-.91,0-.95-.1-1.89-.21-2.84.13-.05.2.12.33.12.01-.02.04-.04.04-.06-.04-.18-.06-.37-.34-.34-.14.01-.14-.14-.16-.26-.12-.76-.15-1.54-.22-2.31-.02-.17.26-.38.48-.35.14.01.26.13.41.03-.21-.38-.36-.42-.69-.16-.27.21-.32.22-.4-.1-.18-.73-.8-1.08-1.25-1.56-.79-.84-1.68-1.59-2.44-2.47-.23-.27-.53-.49-.75-.76-.58-.73-1.25-1.37-1.84-2.09-.42-.52-.87-1.03-1.32-1.52-.06-.06-.1-.14-.15-.2.01-.14.17-.03.19-.14-.08-.23-.23-.41-.4-.58-.08-.08-.14-.19-.29-.1-.09.06-.12-.04-.16-.08-.09-.1-.18-.22-.28-.35.41-.19.87-.28,1.12-.68.52.51.95,1.03,1.36,1.59.37.5.77,1,1.26,1.4.1.08.17.19.25.29.47.59.91,1.22,1.43,1.78.63.69,1.32,1.33,2,1.98.58.56,1.1,1.16,1.62,1.77.29.34.58.68.96.92.23.15.44.32.62.52.11.12.22.21.41.25-.25.11-.19.36-.31.53-.08.12.06.2.13.22.37.14.75.31,1.16.2.14-.04.28-.03.42-.06.17-.03.31,0,.39.18.06.14.23.17.32.28.1.12.21.24.21.43-.38.09-.64-.19-.94-.32-.17-.08-.31-.21-.43-.35-.05-.05-.1-.11-.17-.04-.05.04-.05.12-.02.16.23.35.32.78.66,1.09.32.29.57.64.91.92.42.34.77.76,1.18,1.11.6.53,1.16,1.12,1.81,1.59.13.09.22.22.33.33.07.05.13.1.2.14.17.1.42.12.41.4.22.02.41.12.57.25.49.42,1.04.75,1.54,1.15.41.33.77.73,1.2,1.02.69.46,1.26,1.08,1.97,1.52.39.24.74.54,1.11.81.58.44,1.17.86,1.74,1.31.45.35.87.73,1.29,1.12-.39-.1-.68-.39-1.01-.6-.04.2-.04.21.12.31.38.25.77.51,1.16.75.27.17.46.43.77.54.71.25,1.24.78,1.83,1.22.71.53,1.44,1.04,2.17,1.55.07.05.16.05.24.09.33.16.65.29.89.63.29.41.76.64,1.22.85.03.01.05.04.07.04.52.05.65.13.95.6-.34-.11-.52-.42-.89-.49.08.21.21.32.34.41.5.36,1,.71,1.59.92Zm-2.61-2.06c.21-.06.37-.04.5.12.03.04.03.08.01.11-.03.04-.08.05-.11.02-.11-.1-.29-.1-.4-.26Zm2.37.43c-.53.14-.91-.08-1.31-.25.44-.1.86-.05,1.31.25Zm-1.21-.82c-.16,0-.32-.01-.47.06-.21.1-.38.01-.6-.14.36-.09.62-.28.96-.28.49,0,.95-.19,1.41-.33.56-.16,1.12-.32,1.7-.42.79-.15,1.57-.31,2.35-.46.95-.18,1.85-.49,2.74-.83.39-.15.77-.32,1.13-.53.49-.3,1.03-.49,1.54-.75.9-.46,1.81-.9,2.68-1.42.42-.25.87-.44,1.27-.72.08-.06.17-.08.27-.07-.26.35-.66.51-1.01.73-.67.41-1.34.83-2.04,1.19-.59.3-1.18.58-1.76.88-.72.35-1.42.74-2.16,1.05-.54.23-1.05.52-1.61.7-1.17.39-2.34.81-3.57,1.03-.95.16-1.89.27-2.85.32Z" fill="#442a19" stroke="#010100" stroke-miterlimit="10" stroke-width=".25"/><path d="m59.83,45.1c-.33-.14-.59-.38-.94-.62.33-.03.46.27.71.25.07.05.13.1.2.14.01.08.02.15.04.23Z" fill="#442a19" stroke="#010100" stroke-miterlimit="10" stroke-width=".25"/><path d="m60.74,46.6c.27.05.47.22.63.43.07.1-.07.06-.11.09-.12-.13-.27-.2-.41-.3.02-.1-.06-.16-.11-.22Z" fill="#442a19" stroke="#010100" stroke-miterlimit="10" stroke-width=".25"/><path d="m73.56,38.39c-.33.06-.62-.11-.91-.21-.73-.26-1.47-.53-2.17-.86-.07-.03-.12-.07-.1-.16,0,0,0,0,0,0,.31-.05.54.16.79.26.74.31,1.48.62,2.26.83.07.02.14.03.14.13h0Z" fill="#442a19" stroke="#010100" stroke-miterlimit="10" stroke-width=".25"/><path d="m68.43,66.68c-.16.42-.23.85-.26,1.37-.15-.51.03-.91.11-1.32.02-.1.1-.07.16-.04,0,0,0,0,0,0Z" fill="#442a19" stroke="#010100" stroke-miterlimit="10" stroke-width=".25"/><path d="m68.49,66.05c.19.23-.07.41-.06.63,0,0,0,0,0,0-.14-.22,0-.42.06-.63,0,0-.01,0-.01,0Z" fill="#442a19" stroke="#010100" stroke-miterlimit="10" stroke-width=".25"/><path d="m101.47,74.14c.22.17.35.42.47.66-.27-.13-.41-.36-.49-.64l.02-.02Z" fill="#442a19" stroke="#010100" stroke-miterlimit="10" stroke-width=".25"/><path d="m88.27,67.42s-.11.04-.11.04c-.13-.27-.35-.51-.29-.84,0,0,0,0,0,0,.23.22.23.55.41.8,0,0,0,0,0,0Z" fill="#442a19" stroke="#010100" stroke-miterlimit="10" stroke-width=".25"/><path d="m88.6,68.13c-.09.07-.15.02-.18-.07-.02-.08-.02-.16-.03-.24h-.01c.07.11.14.21.21.31h0Z" fill="#442a19" stroke="#010100" stroke-miterlimit="10" stroke-width=".25"/><path d="m88.4,67.82c-.23-.07-.2-.23-.13-.4,0,0,0,0,0,0-.06.16.14.26.11.41,0,0,.01-.01.01-.01Z" fill="#442a19" stroke="#010100" stroke-miterlimit="10" stroke-width=".25"/><path d="m52.37,72.84c-.11.02-.29.14-.23-.11.08-.36.2-.71.31-1.06.05-.16.11-.32.05-.5-.07-.21,0-.43.05-.63.06-.26.18-.51.17-.79,0-.05.04-.08.09-.08.09,0,.08.07.07.12-.23.8-.15,1.65-.36,2.45-.05.2-.19.39-.16.61,0,0,.02-.01.02-.01Z" fill="#442a19" stroke="#010100" stroke-miterlimit="10" stroke-width=".25"/><path d="m46.83,32.59s-.03-.05-.05-.07c-.43-.28-.53-.41-.85-.95-.09-.15-.27-.24-.39-.37-.18-.18-.17-.19-.18-.55.18.08.29.23.4.37.37.44.72.89,1.08,1.33.08.1.12.17-.03.22h.02Z" fill="#442a19" stroke="#010100" stroke-miterlimit="10" stroke-width=".25"/><path d="m54.78,63.05c.12.26,0,.5-.02.76,0,.04-.04.08-.05.12-.02.13.07.19.18.2.11.02.14-.07.16-.16.02-.12-.04-.26.12-.39.19.55-.07.96-.33,1.38q-.12-.18,0-.46c-.35-.09-.38-.11-.3-.45.08-.33.13-.66.25-.99Z" fill="#442a19" stroke="#010100" stroke-miterlimit="10" stroke-width=".25"/><path d="m60.76,46.62c-.06,0-.12,0-.18,0-.05-.18-.21-.25-.34-.35-.29-.24-.58-.47-.85-.72-.15-.13-.26-.3-.39-.45-.04-.05-.08-.13,0-.19.08-.05.19-.05.23.03.31.66.96,1,1.43,1.51.05.05.11.09.1.17Z" fill="#442a19" stroke="#010100" stroke-miterlimit="10" stroke-width=".25"/><path d="m57.62,69.6c.36.88.8,1.64,1.01,2.5-.36-.72-.73-1.43-1.08-2.15-.04-.08-.02-.19.07-.35Z" fill="#442a19" stroke="#010100" stroke-miterlimit="10" stroke-width=".25"/><path d="m54.41,56.45c-.11-.34-.22-.67-.32-1.01-.03-.11-.04-.23.03-.33.05-.07.12-.14.2-.14.11,0,.11.11.12.2.08.42.11.84.07,1.26-.03,0-.07.01-.1.02Z" fill="#442a19" stroke="#010100" stroke-miterlimit="10" stroke-width=".25"/><path d="m54.09,52c-.02.13-.06.18-.05.26.01.08-.07.11-.14.12-.08,0-.14-.04-.14-.12.03-.31-.08-.59-.23-.85-.05-.08-.03-.13.02-.19.07-.09.13-.05.21,0,.13.07.24.12.22.3-.02.18-.01.37.1.48Z" fill="#442a19" stroke="#010100" stroke-miterlimit="10" stroke-width=".25"/><path d="m57.7,71.32c-.44-.65-.65-1.38-.68-2.16.25.71.43,1.44.68,2.16Z" fill="#442a19" stroke="#010100" stroke-miterlimit="10" stroke-width=".25"/><path d="m59.45,73.56c.24.22.24.54.35.81.18.43.34.88.45,1.33l-.03.03c-.25-.11-.24-.38-.31-.58-.2-.52-.43-1.03-.46-1.6h0Z" fill="#442a19" stroke="#010100" stroke-miterlimit="10" stroke-width=".25"/><path d="m62.5,47.47c.21-.02.26.2.4.28.38.23.79.4,1.16.64.16.11.37.16.42.39h0c-.16.06-.22-.1-.32-.16-.34-.2-.69-.37-1.05-.54-.27-.13-.52-.29-.63-.59l.02-.02Z" fill="#442a19" stroke="#010100" stroke-miterlimit="10" stroke-width=".25"/><path d="m53.81,49.94c0,.12-.01.2-.13.2-.1,0-.25.03-.25-.1.01-.31-.12-.58-.2-.87-.02-.08-.03-.18.07-.22.11-.04.13.07.18.14.08.12.05.25.08.37.04.14-.07.37.21.38.01,0,.03.07.03.09Z" fill="#442a19" stroke="#010100" stroke-miterlimit="10" stroke-width=".25"/><path d="m54.42,40.07s.06,0,.07.02c.23.39.5.75.84,1.06.06.05.12.15.03.22-.07.05-.12-.03-.17-.08-.32-.31-.61-.64-.78-1.06-.02-.06-.05-.1,0-.15Z" fill="#442a19" stroke="#010100" stroke-miterlimit="10" stroke-width=".25"/><path d="m53.44,68.56c-.06-.62.27-1.12.49-1.66-.09.57-.24,1.13-.49,1.66Z" fill="#442a19" stroke="#010100" stroke-miterlimit="10" stroke-width=".25"/><path d="m51.98,71.11c.08.29-.07.53-.14.78-.09.32-.18.65-.28,1.04-.11-.42.12-1.27.44-1.82,0,0-.01-.01-.01-.01Z" fill="#442a19" stroke="#010100" stroke-miterlimit="10" stroke-width=".25"/><path d="m47.17,83.44c-.05-.26.06-.48.18-.69.15-.27.31-.54.47-.82.04-.07.08-.18.19-.1.08.05.01.13-.03.18-.28.4-.57.79-.67,1.27-.01.07-.07.12-.15.14,0,0,.01,0,.01,0Z" fill="#442a19" stroke="#010100" stroke-miterlimit="10" stroke-width=".25"/><path d="m46.49,31.14c.25.37.6.67.84,1.04,0,.01-.02.05-.04.13-.31-.39-.77-.62-.8-1.17Z" fill="#442a19" stroke="#010100" stroke-miterlimit="10" stroke-width=".25"/><path d="m52.75,44.27c.46.15.25.57.36.84-.29-.2-.54-.41-.36-.84Z" fill="#442a19" stroke="#010100" stroke-miterlimit="10" stroke-width=".25"/><path d="m51.65,37.18c-.44-.32-.77-.72-1.13-1.21.24.06.34.2.45.31.27.27.54.53.7.88l-.02.02Z" fill="#442a19" stroke="#010100" stroke-miterlimit="10" stroke-width=".25"/><path d="m48.66,34.29c.2.22.37.43.56.61.19.19.4.35.64.57-.63-.21-1.06-.64-1.21-1.18Z" fill="#442a19" stroke="#010100" stroke-miterlimit="10" stroke-width=".25"/><path d="m54.94,61.46c-.34-.76-.34-.94.01-1.26-.19.42.07.84-.01,1.26Z" fill="#442a19" stroke="#010100" stroke-miterlimit="10" stroke-width=".25"/><path d="m52.78,42.21c.13.3.07.63.22.91.02.04.02.08-.03.11-.06.03-.13.03-.15-.02-.14-.32-.28-.65-.05-1Z" fill="#442a19" stroke="#010100" stroke-miterlimit="10" stroke-width=".25"/><path d="m55.41,66.29c.35.25.59.56.61,1.01-.23-.29-.46-.59-.69-.89-.02-.03,0-.08.07-.13Z" fill="#442a19" stroke="#010100" stroke-miterlimit="10" stroke-width=".25"/><path d="m48.65,83.85c-.29-.37-.18-.84-.35-1.24-.02-.05.05-.13.15-.17.02.24.1.46.15.69.05.23.04.48.06.72Z" fill="#442a19" stroke="#010100" stroke-miterlimit="10" stroke-width=".25"/><path d="m55.14,65.07s.04.06.05.1c.09.22.19.45.34.64.04.05.05.14-.03.19-.05.03-.11,0-.15-.04-.05-.05-.14-.06-.15-.15,0-.21-.1-.38-.2-.56-.04-.08.02-.13.13-.19Z" fill="#442a19" stroke="#010100" stroke-miterlimit="10" stroke-width=".25"/><path d="m64.47,48.78c.41.05.58.41.92.66-.44-.04-.66-.22-.91-.67,0,0,0,0,0,0Z" fill="#442a19" stroke="#010100" stroke-miterlimit="10" stroke-width=".25"/><path d="m51.67,37.15s.11.03.11.05c.06.31.23.55.48.73.07.05.09.12.04.18-.07.08-.14.01-.18-.04-.23-.26-.54-.49-.48-.91l.02-.02Z" fill="#442a19" stroke="#010100" stroke-miterlimit="10" stroke-width=".25"/><path d="m59.46,73.55c-.24-.2-.21-.51-.32-.75-.07-.15-.06-.33-.09-.49.09-.07.17,0,.18.05.04.41.26.78.22,1.2,0,0,0,0,0,0Z" fill="#442a19" stroke="#010100" stroke-miterlimit="10" stroke-width=".25"/><path d="m44.63,29.15c-.39-.05-.6-.32-.6-.71.35.11.3.55.6.71Z" fill="#442a19" stroke="#010100" stroke-miterlimit="10" stroke-width=".25"/><path d="m50.34,76.99c.09-.42.19-.83.28-1.25.03,0,.06.02.1.03.05.45-.07.86-.39,1.21h.01Z" fill="#442a19" stroke="#010100" stroke-miterlimit="10" stroke-width=".25"/><path d="m49.14,34.45c-.43-.14-.54-.55-.74-.88.25.3.54.55.74.88Z" fill="#442a19" stroke="#010100" stroke-miterlimit="10" stroke-width=".25"/><path d="m53.38,48.56c-.24-.23-.27-.44-.24-.67,0-.06.07-.1.12-.11.06,0,.1.05.11.11.04.2.04.4,0,.67Z" fill="#442a19" stroke="#010100" stroke-miterlimit="10" stroke-width=".25"/><path d="m55.74,41.93c.32.28.58.61.93.86-.05.04-.08.07-.09.07-.33-.21-.56-.5-.83-.78-.04-.04-.02-.11,0-.16h-.01Z" fill="#442a19" stroke="#010100" stroke-miterlimit="10" stroke-width=".25"/><path d="m54.88,58.91c-.16-.19-.22-.37-.15-.57.02-.06.07-.09.13-.09.07,0,.1.05.1.11,0,.18.06.37-.07.56Z" fill="#442a19" stroke="#010100" stroke-miterlimit="10" stroke-width=".25"/><path d="m59.95,76.35c.01.28.14.53.08.82-.26-.29-.29-.56-.08-.82Z" fill="#442a19" stroke="#010100" stroke-miterlimit="10" stroke-width=".25"/><path d="m54.32,54.34c-.21-.17-.26-.35-.22-.55,0-.05.06-.1.11-.11.06-.02.09.05.11.1.06.16.05.33,0,.56Z" fill="#442a19" stroke="#010100" stroke-miterlimit="10" stroke-width=".25"/><path d="m54.32,65.83c-.05.13-.16.16-.26.18-.08.02-.14-.03-.13-.12.01-.14.09-.25.24-.25.1,0,.09.13.15.19Z" fill="#442a19" stroke="#010100" stroke-miterlimit="10" stroke-width=".25"/><path d="m52.43,40.76c-.11-.19-.19-.31-.25-.43-.03-.06,0-.14.06-.18.06-.03.1.02.13.07.09.14.17.28.05.54Z" fill="#442a19" stroke="#010100" stroke-miterlimit="10" stroke-width=".25"/><path d="m60.25,75.7c.18.1.22.29.34.53-.3-.11-.37-.28-.37-.5l.03-.03Z" fill="#442a19" stroke="#010100" stroke-miterlimit="10" stroke-width=".25"/><path d="m62.48,47.48c-.22-.06-.26-.25-.38-.5.26.14.36.29.39.49,0,0-.02.02-.02.02Z" fill="#442a19" stroke="#010100" stroke-miterlimit="10" stroke-width=".25"/><path d="m52.97,45.92c-.02.07-.05.14-.13.14-.06,0-.11-.04-.1-.1,0-.08.06-.12.14-.12.05,0,.11,0,.1.08Z" fill="#442a19" stroke="#010100" stroke-miterlimit="10" stroke-width=".25"/><path d="m55.35,61.58c-.18-.05-.16-.18-.12-.3,0-.02.1-.05.11-.04.09.11.09.22.01.34Z" fill="#442a19" stroke="#010100" stroke-miterlimit="10" stroke-width=".25"/><path d="m46.81,32.57c-.02.14.19.13.17.28-.18.05-.2-.15-.29-.22-.01,0,.08-.04.14-.04,0,0-.02-.01-.02-.01Z" fill="#442a19" stroke="#010100" stroke-miterlimit="10" stroke-width=".25"/><path d="m55.76,41.92c-.19-.03-.28-.15-.35-.43.15.2.24.32.33.44,0,0,.01-.01.01-.01Z" fill="#442a19" stroke="#010100" stroke-miterlimit="10" stroke-width=".25"/><path d="m52.21,70.72c-.08.12-.01.34-.22.38,0,0,.01.01.01.01.04-.15-.05-.37.22-.38h0Z" fill="#442a19" stroke="#010100" stroke-miterlimit="10" stroke-width=".25"/><path d="m65.62,49.68c-.06.08-.17.18-.23.07-.07-.13.09-.08.15-.09.02,0,.05.01.08.02Z" fill="#442a19" stroke="#010100" stroke-miterlimit="10" stroke-width=".25"/><path d="m53.05,39.47s0,.11-.09.1c-.07-.01-.08-.07-.08-.13,0-.06.02-.11.1-.1.07,0,.08.06.08.13Z" fill="#442a19" stroke="#010100" stroke-miterlimit="10" stroke-width=".25"/><path d="m51.65,73.98c0-.11,0-.22.06-.34q.07.2-.07.33s.01.01.01.01Z" fill="#442a19" stroke="#010100" stroke-miterlimit="10" stroke-width=".25"/><path d="m59.29,75.02s.06,0,.08.02c.06.05.11.13.05.18-.07.06-.11-.03-.14-.1,0-.02,0-.06,0-.08,0,0,.02-.02.02-.02Z" fill="#442a19" stroke="#010100" stroke-miterlimit="10" stroke-width=".25"/><path d="m52.22,70.73c-.06-.12-.07-.23.1-.35,0,.16-.05.25-.11.34,0,0,.01.01.01.01Z" fill="#442a19" stroke="#010100" stroke-miterlimit="10" stroke-width=".25"/><path d="m50.33,76.98c.04.11.06.21-.11.35.04-.17.04-.26.12-.34,0,0-.01-.01-.01-.01Z" fill="#442a19" stroke="#010100" stroke-miterlimit="10" stroke-width=".25"/><path d="m60.8,77.09s-.05.05-.08.07c-.01,0-.04-.02-.06-.02.03-.03.05-.06.08-.08.03-.02.05,0,.06.04Z" fill="#442a19" stroke="#010100" stroke-miterlimit="10" stroke-width=".25"/><path d="m53.37,47.1s-.06.04-.1.06c-.06.02-.12,0-.13-.06-.01-.04.03-.07.07-.09.07-.02.11.01.16.09Z" fill="#442a19" stroke="#010100" stroke-miterlimit="10" stroke-width=".25"/></svg>