<?xml version="1.0" encoding="UTF-8"?><svg id="Layer_1" xmlns="http://www.w3.org/2000/svg" viewBox="0 0 144.57 144.57"><path d="M94.32,69.56c.02.11-.04.12-.13.14-1.56.32-3.12.65-4.67.98-.64.14-1.29.27-1.93.41-.23.05-.37.13-.45.4-.6,1.9-1.23,3.8-1.85,5.69-.08.25-.17.49-.26.76.5.54.99,1.07,1.48,1.61,1.08,1.16,2.17,2.32,3.24,3.49.08.08.17.12.24.2" fill="none" stroke="#000" stroke-linecap="round" stroke-linejoin="round" stroke-width=".54"/><path d="M97.78,81.58c.2.37.55.6.82.91,1.24,1.37,2.53,2.71,3.78,4.08.23.25.46.3.75.23.9-.2,1.8-.41,2.71-.61.95-.2,1.9-.37,2.84-.58.29-.07.59-.14.88-.2.16-.03.25-.09.31-.27.4-1.21.81-2.41,1.18-3.62.26-.85.54-1.7.85-2.54.11-.29.1-.48-.14-.72-1.3-1.37-2.58-2.77-3.87-4.16-.26-.28-.51-.55-.79-.84-1.06.23-2.12.48-3.18.7-1.18.25-2.37.5-3.56.74-.32.06-.46.21-.56.54-.36,1.22-.77,2.42-1.17,3.63-.29.89-.59,1.78-.88,2.68" fill="none" stroke="#000" stroke-linecap="round" stroke-linejoin="round" stroke-width=".54"/><path d="M75.39,86.93c.36.42.71.85,1.09,1.25,1.16,1.25,2.33,2.48,3.48,3.73.23.25.45.3.75.23,1.47-.32,2.93-.63,4.4-.95.63-.14,1.26-.28,1.9-.4.24-.05.4-.15.48-.41.32-1.02.67-2.03.98-3.05.32-1.05.69-2.08,1.05-3.12.08-.22.06-.38-.1-.55-.81-.85-1.61-1.71-2.4-2.57-.63-.69-1.32-1.33-1.9-2.07-.28-.36-.59-.41-1.02-.28-.67.2-1.37.31-2.06.45-1,.21-2.01.43-3.01.64-.31.07-.63.13-.95.17-.52.06-.66.46-.77.85-.33,1.2-.76,2.36-1.13,3.55-.21.68-.45,1.35-.67,2.03-.05.14-.07.29-.1.44" fill="none" stroke="#000" stroke-linecap="round" stroke-linejoin="round" stroke-width=".54"/><path d="M81.52,112.43c.44.32.77.77,1.15,1.16.61.62,1.18,1.29,1.77,1.92.67.73,1.36,1.44,2.05,2.18.92-.1,1.83-.37,2.75-.55.91-.18,1.81-.39,2.71-.57.46-.09.92-.23,1.39-.28.22-.02.34-.19.41-.4.44-1.36.87-2.71,1.32-4.06.22-.67.39-1.35.67-2,.13-.29.06-.53-.17-.75-.35-.35-.69-.71-1.02-1.08-1.05-1.16-2.17-2.26-3.19-3.44-.35-.4-.64-.42-1.1-.3-1.03.25-2.08.44-3.11.66-.63.14-1.26.3-1.9.44-.36.08-.72.15-1.08.2-.3.04-.43.23-.51.48-.62,1.94-1.23,3.89-1.87,5.82-.06.19-.1.39-.16.58" fill="none" stroke="#000" stroke-linecap="round" stroke-linejoin="round" stroke-width=".54"/><path d="M91.62,56.25c.51.64,1.11,1.19,1.66,1.79.93,1.02,1.92,2,2.79,3.06.46.56.93.35,1.4.25.92-.21,1.85-.41,2.78-.6.78-.16,1.56-.34,2.34-.51.21-.05.43-.1.64-.13.33-.04.48-.24.58-.54.55-1.74,1.12-3.48,1.69-5.22.09-.27.16-.55.28-.81.09-.22.06-.38-.1-.55-1.35-1.43-2.69-2.86-4.03-4.3-.19-.2-.36-.4-.54-.61-.12-.15-.27-.14-.44-.1-1.15.26-2.3.54-3.46.77-1.04.21-2.08.43-3.12.64-.22.05-.31.16-.37.35-.43,1.33-.86,2.66-1.29,4-.27.83-.54,1.65-.81,2.47" fill="none" stroke="#000" stroke-linecap="round" stroke-linejoin="round" stroke-width=".54"/><path d="M74.18,66.85c.66-.11,1.31-.26,1.97-.4,1.57-.34,3.14-.67,4.71-.98.31-.06.46-.24.54-.51.4-1.37.87-2.71,1.31-4.07.21-.63.42-1.26.61-1.89.08-.25.09-.47-.15-.72-1.51-1.58-3-3.19-4.48-4.8-.13-.15-.24-.17-.41-.13-1.23.28-2.46.55-3.69.81-.92.2-1.85.4-2.78.57-.31.06-.45.21-.54.48-.65,2.03-1.3,4.07-1.97,6.09-.08.25-.06.41.11.58,1.12,1.18,2.24,2.36,3.35,3.56.4.43.78.87,1.19,1.28.06.06.09.15.2.14" fill="none" stroke="#000" stroke-linecap="round" stroke-linejoin="round" stroke-width=".54"/><path d="M64.59,29.6c-.06,0-.12,0-.13.07-.41,1.56-1,3.06-1.46,4.6-.18.59-.39,1.17-.57,1.76-.06.2-.15.33-.37.38-.83.17-1.65.36-2.47.54-.72.16-1.44.32-2.17.47-.68.14-1.36.25-2.03.42-.2.05-.28-.04-.37-.15-.61-.64-1.22-1.28-1.83-1.93-.89-.96-1.77-1.93-2.68-2.87-.21-.22-.22-.4-.13-.65.45-1.3.87-2.62,1.31-3.93.24-.7.48-1.4.66-2.13.07-.29.25-.39.57-.46.71-.15,1.43-.29,2.14-.45,1.09-.24,2.19-.47,3.28-.72.43-.1.87-.08,1.3-.24.98,1.04,1.96,2.08,2.94,3.12.6.64,1.19,1.29,1.8,1.93.07.07.1.15.13.24" fill="none" stroke="#000" stroke-linecap="round" stroke-linejoin="round" stroke-width=".54"/><path d="M93.44,48.77c.56-.02,1.09-.19,1.63-.31,1.67-.35,3.34-.7,5.01-1.05.31-.06.51-.21.62-.54.62-1.96,1.23-3.92,1.91-5.85.15-.43.06-.67-.22-.96-1.33-1.42-2.69-2.8-3.97-4.26-.55-.63-.55-.6-1.39-.41-1.4.32-2.79.64-4.2.91-.61.12-1.2.31-1.83.36-.2.02-.35.15-.41.36-.51,1.72-1.08,3.42-1.65,5.11-.13.38-.23.77-.34,1.15-.05.17-.08.32.07.48,1.56,1.59,3.05,3.25,4.57,4.87.05.05.11.09.17.14" fill="none" stroke="#000" stroke-linecap="round" stroke-linejoin="round" stroke-width=".54"/><path d="M62.63,37.05c-.6.11-1.2.21-1.79.34-1.29.27-2.57.56-3.86.84-.39.09-.79.16-1.19.24-.19.04-.25.17-.31.34-.3.93-.61,1.86-.91,2.79-.38,1.17-.74,2.34-1.13,3.5-.05.16-.07.25.04.38,1,1.06,1.99,2.12,2.98,3.18.55.59,1.11,1.17,1.65,1.77.13.14.22.18.41.14,1.34-.3,2.68-.59,4.03-.89.86-.19,1.71-.37,2.57-.54.21-.04.31-.14.37-.31.44-1.37.88-2.74,1.32-4.11.22-.69.44-1.39.68-2.08.1-.27.06-.44-.14-.65-1.38-1.46-2.73-2.93-4.11-4.39-.17-.19-.33-.4-.57-.51" fill="none" stroke="#000" stroke-linecap="round" stroke-linejoin="round" stroke-width=".54"/><path d="M70.69,101.46c0-.07,0-.12.1-.14,1.16-.18,2.3-.48,3.45-.71,1.03-.2,2.05-.43,3.08-.64.3-.06.51-.19.61-.51.53-1.7,1.08-3.39,1.62-5.08.1-.32.22-.64.34-.95.1-.26.07-.47-.14-.68-1.51-1.53-2.93-3.14-4.4-4.71-.2-.21-.39-.25-.68-.18-1.42.32-2.84.6-4.26.89-.72.15-1.44.33-2.17.46-.21.04-.31.1-.38.31-.49,1.54-.99,3.07-1.48,4.61-.19.59-.38,1.17-.58,1.76-.05.14-.06.26.07.38.96.93,1.83,1.94,2.74,2.91.53.57,1.06,1.15,1.59,1.72.15.16.31.3.47.44" fill="none" stroke="#000" stroke-linecap="round" stroke-linejoin="round" stroke-width=".54"/><path d="M96.15,108.64c.11-.16.29-.13.44-.17,1.18-.26,2.37-.5,3.55-.75.92-.2,1.83-.42,2.75-.6.29-.06.4-.19.48-.45.29-.92.61-1.83.91-2.75.37-1.15.71-2.31,1.1-3.45.07-.21.04-.32-.08-.44-1.24-1.24-2.38-2.56-3.59-3.83-.3-.31-.61-.62-.87-.95-.18-.23-.39-.24-.62-.19-.88.17-1.76.35-2.64.54-1.07.23-2.14.48-3.22.68-.2.04-.4.1-.61.13-.23.04-.37.15-.44.37-.28.86-.57,1.72-.84,2.57-.23.72-.45,1.45-.68,2.17-.16.5-.34,1.01-.51,1.51-.06.17-.04.32.1.46.85.9,1.7,1.8,2.54,2.71.65.7,1.29,1.4,1.93,2.1.09.1.2.18.3.27" fill="none" stroke="#000" stroke-linecap="round" stroke-linejoin="round" stroke-width=".54"/><path d="M48.34,106.74c.61-.04,1.2-.23,1.79-.35,1.19-.24,2.37-.51,3.56-.75.45-.09.9-.21,1.36-.29.25-.04.4-.18.47-.41.52-1.6,1.04-3.21,1.56-4.81.14-.44.3-.88.44-1.32.07-.22.05-.42-.13-.61-.38-.43-.78-.83-1.17-1.24-.86-.92-1.7-1.87-2.59-2.76-.33-.33-.62-.69-.95-1.02-.8.21-1.61.37-2.41.54-.9.19-1.8.4-2.71.56-.52.09-1.03.25-1.56.31-.28.03-.49.19-.58.5-.28.91-.58,1.82-.88,2.73-.34,1.04-.66,2.09-1.02,3.13-.13.37-.13.61.17.93,1.51,1.59,2.99,3.22,4.48,4.83.03.03.09.04.13.05" fill="none" stroke="#000" stroke-linecap="round" stroke-linejoin="round" stroke-width=".54"/><path d="M71.03,54.12c.35.05.69-.08,1.01-.15.94-.21,1.88-.38,2.81-.6.6-.14,1.2-.26,1.8-.41.4-.1.81-.18,1.22-.24.21-.03.28-.14.34-.31.68-2.05,1.35-4.11,2.03-6.16.08-.25.06-.45-.13-.65-.71-.74-1.41-1.48-2.1-2.23-.76-.82-1.53-1.63-2.26-2.48-.23-.27-.49-.3-.75-.22-.74.23-1.5.35-2.24.51-1.07.23-2.14.47-3.21.67-.31.05-.6.16-.91.18-.24.01-.4.19-.47.43-.58,1.98-1.26,3.93-1.89,5.89-.02.08-.05.17-.08.23-.12.21-.09.39.08.55.87.84,1.65,1.76,2.47,2.64.64.68,1.3,1.35,1.9,2.06.1.12.21.25.37.31" fill="none" stroke="#000" stroke-linecap="round" stroke-linejoin="round" stroke-width=".54"/><path d="M68.79,62.38c-1.2.23-2.39.52-3.59.76-1.04.21-2.06.48-3.11.63-.22.03-.37.12-.45.37-.3,1-.61,2-.95,2.98-.37,1.06-.66,2.14-1.07,3.19-.08.22-.06.43.15.65,1.37,1.42,2.73,2.85,4.04,4.32.21.23.44.44.66.67,1.19-.27,2.35-.57,3.53-.79,1.06-.2,2.12-.46,3.18-.65.25-.05.4-.15.49-.44.42-1.37.89-2.74,1.34-4.1.22-.68.45-1.35.68-2.03.06-.19.06-.37-.1-.54-1.48-1.58-2.96-3.16-4.44-4.74-.1-.11-.19-.22-.34-.27" fill="none" stroke="#000" stroke-linecap="round" stroke-linejoin="round" stroke-width=".54"/><path d="M92.67,96.65c-.16-.37-.49-.59-.75-.88-1.23-1.34-2.48-2.67-3.72-4-.03-.04-.08-.06-.1-.1-.16-.37-.45-.31-.75-.24-1.18.26-2.37.52-3.56.78-.97.21-1.94.41-2.91.61-.17.03-.26.14-.3.27-.3.91-.59,1.83-.88,2.74-.37,1.16-.74,2.33-1.13,3.49-.08.25-.07.43.11.61.97,1.02,1.95,2.05,2.91,3.08.54.57,1.07,1.14,1.59,1.73.16.19.33.18.55.13,1.4-.31,2.8-.62,4.2-.92.77-.16,1.54-.31,2.3-.48.19-.04.31-.15.38-.37.48-1.54.99-3.07,1.48-4.61.19-.58.45-1.15.54-1.76.01-.09.06-.1.14-.1" fill="none" stroke="#000" stroke-linecap="round" stroke-linejoin="round" stroke-width=".54"/><path d="M57.99,51.25c-.24.33-.26.74-.4,1.1-.38,1.05-.72,2.12-1.06,3.18-.19.59-.45,1.17-.55,1.76-.11.64-.47.84-1.01.95-1.05.21-2.1.42-3.15.64-.94.2-1.87.4-2.81.61-.26.06-.47.06-.68-.17-.85-.94-1.71-1.85-2.57-2.78-.65-.7-1.28-1.4-1.93-2.1-.11-.12-.16-.21-.1-.38.36-1.05.71-2.1,1.05-3.15.34-1.03.68-2.05,1.01-3.08.08-.24.18-.36.44-.41,1.22-.26,2.44-.54,3.66-.79.98-.2,1.95-.47,2.94-.6.17-.02.3.03.41.14,1.33,1.44,2.67,2.89,4,4.33.23.25.45.5.68.74" fill="none" stroke="#000" stroke-linecap="round" stroke-linejoin="round" stroke-width=".54"/><path d="M64.12,76.74c-.38-.53-.85-.98-1.29-1.45-1.08-1.17-2.17-2.32-3.25-3.49-.22-.24-.42-.29-.75-.21-1.52.35-3.04.65-4.57.96-.57.12-1.14.29-1.73.35-.27.03-.43.22-.52.5-.38,1.21-.77,2.42-1.16,3.62-.28.85-.53,1.71-.86,2.55-.04.11-.07.23.05.38.24.3.51.56.76.83,1.23,1.34,2.5,2.65,3.71,4.01.3.34.57.26.89.19.99-.21,1.99-.42,2.98-.64,1.05-.24,2.11-.45,3.16-.68.39-.09.51-.27.6-.57.52-1.6,1.06-3.2,1.55-4.81.15-.49.43-.95.42-1.49" fill="none" stroke="#000" stroke-linecap="round" stroke-linejoin="round" stroke-width=".54"/><path d="M56.08,58.72c-1.12.24-2.25.47-3.37.71-1.06.23-2.11.57-3.19.68-.71.07-.66.58-.79.95-.46,1.3-.84,2.62-1.27,3.92-.18.55-.36,1.09-.56,1.63-.08.22-.09.47.15.72,1.49,1.55,2.95,3.12,4.4,4.7.21.23.4.26.65.19,1.04-.26,2.1-.47,3.15-.69,1.1-.23,2.2-.5,3.32-.69.21-.04.31-.18.37-.37.27-.83.54-1.65.81-2.47.33-1,.65-2.01.98-3.01.05-.16.1-.32.17-.47.15-.36.1-.62-.19-.93-1.08-1.1-2.09-2.26-3.17-3.37-.48-.49-.88-1.07-1.45-1.48" fill="none" stroke="#000" stroke-linecap="round" stroke-linejoin="round" stroke-width=".54"/><path d="M61.41,63.39c0-.1.04-.12.13-.14.9-.15,1.79-.37,2.68-.56.95-.2,1.89-.41,2.84-.59.4-.08.79-.15,1.18-.24.23-.06.34-.24.41-.47.27-.87.56-1.74.84-2.61.32-.98.65-1.96.98-2.95.06-.18.12-.36.17-.54.05-.2.05-.36-.13-.55-1.4-1.45-2.72-2.97-4.14-4.4-.01-.01-.03-.02-.03-.03-.3-.71-.87-.57-1.42-.44-.94.23-1.9.39-2.84.62-1.03.24-2.07.4-3.09.69-.16.05-.3-.02-.38.24-.41,1.35-.87,2.69-1.31,4.03-.25.75-.5,1.49-.75,2.23-.09.25-.04.45.16.65.7.71,1.39,1.43,2.07,2.16.74.79,1.47,1.6,2.2,2.4.12.13.27.25.4.37" fill="none" stroke="#000" stroke-linecap="round" stroke-linejoin="round" stroke-width=".54"/><path d="M67.17,89.3c-.15-.18-.28-.37-.44-.54-.8-.85-1.6-1.69-2.4-2.54-.61-.65-1.24-1.29-1.82-1.97-.18-.21-.34-.19-.52-.15-1.09.24-2.16.52-3.25.73-1.1.21-2.19.48-3.28.68-.23.04-.31.15-.37.35-.33,1.04-.68,2.08-1.01,3.12-.32.98-.61,1.97-.96,2.94-.13.36-.08.6.18.85,1.06,1.03,2.03,2.15,3.05,3.22.42.44.82.89,1.22,1.36.19.22.39.3.68.24.82-.18,1.65-.34,2.47-.51,1.07-.23,2.14-.47,3.22-.71.28-.06.56-.12.85-.17.21-.04.32-.22.36-.38.31-1.12.71-2.21,1.06-3.32.3-.96.63-1.92.94-2.88.03-.08.02-.18.04-.27" fill="none" stroke="#000" stroke-linecap="round" stroke-linejoin="round" stroke-width=".54"/><path d="M97.51,82.36c-.16.19-.41.15-.61.19-1.25.28-2.5.53-3.76.79-.79.17-1.58.35-2.37.5-.31.06-.45.24-.54.51-.55,1.72-1.11,3.43-1.66,5.15-.1.33-.2.66-.31.98-.07.21-.02.39.14.54,1.33,1.32,2.57,2.74,3.86,4.1.31.32.61.65.91.98" fill="none" stroke="#000" stroke-linecap="round" stroke-linejoin="round" stroke-width=".54"/><path d="M88.09,44.4c-.84.2-1.69.38-2.54.56-1.22.25-2.43.52-3.65.76-.14.03-.29.07-.44.09-.22.03-.37.16-.45.42-.47,1.52-.98,3.03-1.48,4.54-.18.55-.36,1.11-.54,1.66-.05.15-.06.28.07.41,1.3,1.4,2.6,2.8,3.9,4.2.22.23.44.46.64.71.14.19.32.22.51.16.94-.25,1.9-.42,2.85-.62.92-.2,1.84-.44,2.77-.57.32-.04.62-.17.95-.2.26-.03.37-.26.44-.47.6-2.01,1.3-3.99,1.94-5.99.09-.28.07-.48-.16-.72-.9-.93-1.77-1.89-2.65-2.84-.58-.62-1.15-1.24-1.73-1.86-.1-.11-.2-.23-.37-.24" fill="none" stroke="#000" stroke-linecap="round" stroke-linejoin="round" stroke-width=".54"/><path d="M54.87,38.78c-.09-.28-.32-.47-.51-.67-.94-1.01-1.91-2-2.83-3.02-.45-.5-.93-.97-1.36-1.48-.11-.13-.21-.14-.38-.11-.93.2-1.87.38-2.81.58-1.21.26-2.41.53-3.63.77-.36.07-.54.23-.65.58-.48,1.53-.98,3.05-1.48,4.57-.16.5-.35.99-.5,1.49-.05.16-.07.31.09.48,1.47,1.48,2.88,3.02,4.26,4.58.38.43.75.49,1.23.36,1.13-.31,2.28-.5,3.42-.75.76-.16,1.51-.41,2.27-.48.66-.07.82-.45.99-.97.51-1.64,1.06-3.27,1.58-4.91.11-.33.25-.64.31-.98" fill="none" stroke="#000" stroke-linecap="round" stroke-linejoin="round" stroke-width=".54"/><path d="M51.32,72.91c-1.14-1.22-2.28-2.44-3.42-3.66-.39-.42-.78-.85-1.15-1.29-.21-.25-.45-.27-.72-.2-1.33.35-2.69.59-4.03.88-.78.16-1.54.38-2.34.48-.37.05-.45.37-.54.64-.37,1.11-.73,2.23-1.09,3.35-.28.87-.55,1.74-.86,2.6-.07.2-.07.33.07.48.92.97,1.83,1.94,2.74,2.91.57.61,1.13,1.24,1.7,1.86.1.11.2.23.38.31,1.03-.22,2.1-.45,3.17-.68.95-.2,1.9-.41,2.85-.61.25-.05.49-.12.74-.15.21-.02.34-.16.41-.4.31-1.01.64-2.02.98-3.03.27-.81.56-1.61.8-2.42.1-.34.27-.65.3-1.01,0-.07.08-.02.12-.03" fill="none" stroke="#000" stroke-linecap="round" stroke-linejoin="round" stroke-width=".54"/><path d="M38.99,68.81c.09-.18.27-.13.41-.16.78-.18,1.56-.35,2.34-.51.8-.17,1.6-.34,2.4-.51.59-.12,1.16-.27,1.76-.35.21-.03.32-.22.37-.4.25-.95.59-1.87.89-2.81.36-1.12.74-2.24,1.12-3.35.07-.19.06-.35-.1-.51-.86-.89-1.7-1.8-2.54-2.71-.65-.7-1.29-1.39-1.93-2.1-.18-.21-.38-.27-.65-.2-1.3.33-2.62.57-3.93.87-.85.2-1.71.37-2.57.54-.22.04-.31.16-.37.32-.38,1.17-.74,2.35-1.12,3.52-.27.85-.55,1.7-.85,2.54-.13.36-.07.63.21.89.46.44.9.91,1.33,1.38.95,1.04,1.91,2.06,2.88,3.08.12.13.25.25.37.37" fill="none" stroke="#000" stroke-linecap="round" stroke-linejoin="round" stroke-width=".54"/><path d="M32.46,44.02c-.34-.42-.73-.78-1.09-1.18-1.13-1.26-2.34-2.45-3.45-3.73-.22-.25-.43-.34-.78-.25-1,.27-2.03.44-3.05.68-.83.19-1.67.36-2.51.54-.25.06-.51.12-.78.14-.3.03-.43.22-.51.48-.62,1.93-1.22,3.87-1.87,5.79-.16.46-.11.74.24,1.1,1.37,1.43,2.73,2.87,4.02,4.37.46.53.9.36,1.37.25,1.03-.25,2.08-.44,3.12-.67.79-.17,1.58-.36,2.37-.54.11-.02.23.02.34,0,.29-.1.48-.3.58-.6.48-1.51.97-3.02,1.45-4.54.19-.6.45-1.17.54-1.79" fill="none" stroke="#000" stroke-linecap="round" stroke-linejoin="round" stroke-width=".54"/><path d="M72.01,75.11c.64.68,1.29,1.35,1.93,2.03.91.98,1.8,1.97,2.72,2.94.2.21.2.39.13.62-.41,1.27-.83,2.53-1.25,3.79-.22.65-.5,1.3-.62,1.97-.11.6-.47.75-.97.85-1.12.22-2.24.47-3.35.71-.87.18-1.74.36-2.61.54-.11.02-.23.07-.35.11-.28-.17-.49-.42-.7-.65-1.32-1.45-2.64-2.89-4.01-4.29-.25-.25-.29-.46-.17-.79.48-1.39.94-2.8,1.4-4.2.2-.62.41-1.24.61-1.86.07-.22.19-.33.44-.38,1.32-.26,2.64-.56,3.96-.84.92-.19,1.84-.43,2.78-.56" fill="none" stroke="#000" stroke-linecap="round" stroke-linejoin="round" stroke-width=".54"/><path d="M81.52,66.1c-1.22.26-2.44.53-3.66.78-.95.2-1.88.46-2.85.57-.48.06-.59.39-.71.75-.59,1.85-1.17,3.7-1.76,5.55-.03.1-.09.18-.13.27-.08.21-.1.38.09.58,1.22,1.27,2.43,2.56,3.62,3.86.37.41.76.79,1.13,1.19,1.51-.32,2.99-.64,4.46-.96.79-.17,1.58-.34,2.37-.51.22-.04.31-.16.38-.37.42-1.34.85-2.67,1.28-4,.24-.73.5-1.44.74-2.17.07-.2.05-.37-.13-.55-1.15-1.21-2.29-2.43-3.43-3.65-.33-.36-.65-.72-.98-1.08-.11-.12-.21-.26-.41-.27" fill="none" stroke="#000" stroke-linecap="round" stroke-linejoin="round" stroke-width=".54"/><path d="M70.28,102.07c-.09.54-.31,1.04-.48,1.56-.45,1.42-.93,2.82-1.38,4.24-.06.2-.15.39-.18.61-.07.36-.38.45-.7.51-1.04.2-2.08.44-3.12.66-.89.18-1.78.39-2.67.55-.07.01-.12.06-.17.06-.34.04-.66.18-.96-.22-.44-.59-.96-1.13-1.48-1.67-.82-.84-1.61-1.71-2.4-2.58-.13-.15-.29-.28-.44-.41-.21-.18-.24-.38-.14-.65.34-.99.66-1.98.99-2.98.33-1.01.68-2.02.97-3.05.16-.55.6-.52.99-.61.98-.22,1.96-.43,2.95-.64.99-.21,2-.39,2.98-.64.11-.03.23.01.36-.06.62.66,1.25,1.32,1.87,1.99.95,1.01,1.9,2.03,2.84,3.05.07.07.11.16.17.24" fill="none" stroke="#000" stroke-linecap="round" stroke-linejoin="round" stroke-width=".54"/><path d="M40.14,42.4c-1.03.22-2.06.43-3.08.67-1.17.27-2.34.49-3.52.71-.27.05-.43.18-.51.44-.31.98-.63,1.97-.95,2.95-.33,1.01-.63,2.02-.99,3.01-.14.39-.06.64.21.92,1.47,1.55,2.92,3.11,4.37,4.67.2.22.38.14.58.1,1.02-.22,2.03-.43,3.05-.64,1.09-.23,2.18-.51,3.28-.68.34-.05.49-.29.58-.61.31-1.04.64-2.08.98-3.12.32-.97.66-1.93.96-2.91.06-.21.04-.33-.08-.48-.38-.45-.8-.85-1.19-1.28-1.1-1.21-2.23-2.4-3.34-3.6-.09-.1-.17-.17-.31-.16" fill="none" stroke="#000" stroke-linecap="round" stroke-linejoin="round" stroke-width=".54"/><path d="M97.54,82.46c1.2,1.29,2.39,2.57,3.59,3.86.36.39.72.77,1.09,1.15.16.17.18.31.11.55-.35,1.11-.74,2.21-1.08,3.32-.28.91-.63,1.81-.87,2.74-.07.28-.25.46-.6.52-1.26.23-2.51.53-3.76.8-.95.2-1.9.41-2.84.61" fill="none" stroke="#000" stroke-linecap="round" stroke-linejoin="round" stroke-width=".54"/><path d="M115.08,91.3c-.17-.39-.52-.64-.79-.94-1.05-1.16-2.14-2.28-3.2-3.43-.23-.25-.46-.49-.68-.74-.15-.18-.31-.18-.51-.13-.95.21-1.9.41-2.84.61-1.18.25-2.37.5-3.56.75-.28.06-.46.19-.55.5-.3,1-.65,1.99-.97,2.98-.34,1.06-.67,2.12-1.02,3.18-.07.2-.03.34.11.48,1.5,1.54,2.97,3.11,4.39,4.71.29.33.6.29.92.22,1.4-.3,2.8-.65,4.2-.93.62-.13,1.23-.3,1.86-.37.39-.04.54-.26.65-.58.33-1.04.69-2.07,1.01-3.12.32-1.05.72-2.08.99-3.15" fill="none" stroke="#000" stroke-linecap="round" stroke-linejoin="round" stroke-width=".54"/><path d="M94.36,69.68c.38.24.65.61.94.94.79.88,1.61,1.74,2.41,2.6.45.48.89.98,1.36,1.45.21.21.21.43.12.65-.37.9-.62,1.83-.94,2.75-.35,1.01-.69,2.02-.97,3.05-.14.51-.43.69-.89.78-1.59.29-3.17.66-4.74,1-.49.11-.99.21-1.49.31-.08.02-.15,0-.17.1" fill="none" stroke="#000" stroke-linecap="round" stroke-linejoin="round" stroke-width=".54"/><path d="M27.54,85.17c.16.29.43.48.64.71,1.12,1.21,2.23,2.42,3.35,3.62.18.19.4.36.53.58.24.4.59.34.92.26,1.03-.26,2.07-.47,3.12-.68.76-.15,1.51-.34,2.27-.5.26-.06.52-.12.78-.17.3-.05.45-.22.55-.51.63-1.97,1.28-3.93,1.93-5.89.1-.31.08-.56-.16-.82-1.48-1.57-2.94-3.15-4.4-4.74-.15-.16-.31-.2-.48-.16-.95.22-1.9.41-2.84.61-.74.16-1.49.32-2.24.47-.49.1-.97.24-1.46.33-.25.04-.37.16-.44.38-.31.98-.63,1.97-.95,2.95-.34,1.05-.7,2.1-1.05,3.15-.04.12-.05.25-.07.37" fill="none" stroke="#000" stroke-linecap="round" stroke-linejoin="round" stroke-width=".54"/><path d="M103.64,107.69c1.31,1.39,2.63,2.77,3.92,4.17.25.28.5.56.76.83.22.22.21.43.13.69-.59,1.77-1.19,3.53-1.73,5.32-.05.15-.14.29-.16.44-.07.48-.35.7-.82.78-1,.17-1.99.42-2.98.63-.96.2-1.92.41-2.88.62-.4.09-.74.07-1.06-.29-1.19-1.33-2.43-2.63-3.65-3.94-.28-.3-.58-.6-.87-.9.37-1.16.74-2.29,1.11-3.43.33-1.02.65-2.03.98-3.05.06-.19.15-.32.4-.39,1.06-.26,2.13-.46,3.19-.69,1.21-.27,2.42-.52,3.62-.78" fill="none" stroke="#000" stroke-linecap="round" stroke-linejoin="round" stroke-width=".54"/><path d="M49.29,80.46c-1.56.33-3.12.65-4.67.99-.6.13-1.19.29-1.8.37-.43.05-.5.42-.6.72-.45,1.35-.86,2.71-1.3,4.06-.2.64-.43,1.27-.64,1.9-.05.15-.06.28.07.41,1.13,1.2,2.26,2.41,3.39,3.62.39.41.78.82,1.14,1.26.14.16.26.19.45.17.72-.11,1.42-.29,2.13-.44,1.24-.26,2.48-.52,3.72-.78.24-.05.48-.07.71-.14.24-.07.43-.18.52-.47.39-1.37.85-2.72,1.31-4.07.23-.68.43-1.38.65-2.06.07-.21.05-.38-.1-.54-1.23-1.31-2.46-2.62-3.69-3.93-.27-.29-.55-.58-.81-.88-.13-.16-.27-.18-.45-.16" fill="none" stroke="#000" stroke-linecap="round" stroke-linejoin="round" stroke-width=".54"/><path d="M37.03,29.67c-1.02.23-2.03.46-3.05.68-1.15.25-2.3.48-3.45.71-.03,0-.07.03-.1.03-.34,0-.46.23-.54.51-.51,1.71-1.08,3.4-1.65,5.08-.11.31-.2.63-.3.95-.07.2-.07.38.12.58.96,1,1.9,2.03,2.85,3.04.62.66,1.2,1.37,1.91,1.99,1.04-.23,2.08-.48,3.13-.7,1.21-.26,2.41-.5,3.62-.74.2-.04.31-.1.38-.31.43-1.32.88-2.64,1.31-3.97.24-.75.47-1.5.74-2.24.08-.21.1-.42-.1-.61-.56-.52-1.05-1.1-1.56-1.66-.92-1-1.84-1.99-2.78-2.98-.14-.15-.23-.39-.5-.38" fill="none" stroke="#000" stroke-linecap="round" stroke-linejoin="round" stroke-width=".54"/><path d="M91.24,56.96c.37.2.61.55.87.85.88.99,1.81,1.94,2.72,2.91.37.4.74.79,1.12,1.18.2.21.21.4.11.68-.47,1.35-.89,2.7-1.33,4.06-.22.67-.44,1.33-.64,2-.08.27-.24.39-.48.44-1.63.35-3.25.72-4.88,1.04-.61.12-1.21.28-1.89.4-1.63-1.75-3.28-3.52-4.92-5.28.37-1.12.72-2.23,1.09-3.34.36-1.07.68-2.16,1.07-3.22.09-.26.26-.29.43-.32.92-.21,1.85-.39,2.77-.58,1.19-.25,2.37-.52,3.56-.78.12-.03.25.02.37-.04" fill="none" stroke="#000" stroke-linecap="round" stroke-linejoin="round" stroke-width=".54"/></svg>