<?xml version="1.0" encoding="UTF-8"?><svg id="Layer_1" xmlns="http://www.w3.org/2000/svg" viewBox="0 0 144.57 144.57"><path d="M67.9,93.28c-.35-.78-.69-1.5-1.01-2.22-1.33-2.97-2.68-5.93-3.98-8.92-.34-.78-.87-1.19-1.65-1.5-2.45-.98-4.88-2.04-7.3-3.09-1.06-.46-2.13-.65-3.24-.27-.33.11-.61.38-.88.62-.19.16-.3.49-.49.54-.3.07-.64-.05-.96-.09.07-.34.04-.78.25-1,.21-.23.65-.24,1.03-.5-.63-.09-1.26-.19-1.89-.28-.11-.01-.24.07-.33.03-.4-.18-.82-.34-1.15-.6-.07-.05.17-.73.26-.73.46,0,.95.06,1.36.25.62.29,1.19.71,1.78,1.07.07-.11.13-.22.2-.33-.34-.21-.65-.47-1.01-.61-.68-.26-1.09-.69-.99-1.44.09-.64.5-.97,1.15-.99.79-.02,1.3.35,1.41,1.13.14.95.73,1.43,1.57,1.75.15-1.66-.71-3.12-2.17-3.81-.27-.13-.47-.43-.64-.69-.03-.04.3-.44.38-.42.31.09.62.26.87.47.22.19.36.47.53.71l.2-.13c-.35-.47-.7-.94-1.07-1.39-.14-.17-.39-.25-.51-.42-.24-.35-.6-.75-.57-1.1.02-.25.6-.59.95-.61.31-.03.66.32.83.41.51-.06,1.08-.3,1.36-.11.27.18.41.87.29,1.23-.58,1.85-.27,3.64.19,5.43.09.37.36.84.67.97,2.72,1.2,5.47,2.34,8.21,3.5.1.04.21.05.48.12-.4-.99-.71-1.89-1.13-2.74-1.16-2.4-2.33-4.81-3.58-7.17-.38-.72-1.02-1.31-1.59-1.91-1.28-1.36-2.58-2.69-3.89-4.02-.68-.69-1.39-1.37-2.11-2.02-.56-.5-1.2-.51-1.86-.16-.02.01-.05.04-.07.05-.41.01-.83.04-1.24.01-.04,0-.11-.48-.07-.49.39-.14.78-.26,1.19-.32.23-.03.48.06.91.12-.72-.78-1.31-1.3-2.32-1.1-.3.06-.88-.21-.97-.45-.13-.38,0-.89.13-1.3.09-.27.41-.46.63-.69.32-.35,1.15.01,1.4.6.29.69.58,1.37.92,2.04.13.25.39.44.59.66.07-.04.14-.09.22-.13-.28-.58-.55-1.17-.84-1.75-.13-.25-.38-.44-.45-.7-.08-.3-.14-.69,0-.93.09-.16.6-.24.8-.13.24.13.41.48.49.76.25,1.01.37,2.06.7,3.04.17.48.7.84,1.18,1.18-.08-1.79-.39-3.45-1.68-4.75-.18-.18-.38-.33-.53-.53-.54-.68-.42-1.02.37-1.28-.46-1.61-1.86-2.45-2.93-3.57-.68-.71-1.48-1.2-2.44-1.35-1.08-.17-2.18-.26-3.27-.39-.14-.02-.32.02-.4-.06-.24-.23-.44-.5-.66-.76.33-.11.69-.36.99-.29.43.09.81.4,1.21.62.05-.1.11-.2.16-.3-.93-.51-1.81-1.12-2.79-1.48-.77-.29-.71-.65-.43-1.18.44-.81.93-.92,2.24-.54.21-.66.93-1,1.7-.9.2.03.57-.15.63-.31.3-.84.42-.95,1.4-.88.04-.03.08-.07.11-.11.26-.26.52-.51.79-.77.14.4.42.8.4,1.19-.1,1.88-.3,3.75-.42,5.63-.02.23.16.53.34.71.99.98,1.98,1.96,3.05,2.85.28.23.85.12,1.28.17,0-.32.1-.67.01-.96-1.2-3.96-3.14-7.6-5.01-11.26-.16-.32-.47-.64-.8-.79-.5-.23-1.04-.3-1.24.48-.04.17-.33.38-.52.4-.2.02-.59-.15-.61-.28-.08-.49-.39-.39-.72-.46-.25-.06-.44-.38-.66-.59.27-.17.54-.48.81-.48.42,0,.85.19,1.3.21-.22-.07-.47-.09-.64-.23-.18-.14-.34-.37-.4-.59-.03-.11.18-.4.29-.41.22,0,.49.07.66.21.57.44,1.12.92,1.67,1.38.09-.09.17-.19.26-.28-.68-.66-1.35-1.32-2.04-1.99.96-.74,1.35-.61,1.67.37.17.51.44.98.76,1.43.3-.85.25-1.64-.24-2.37-.12-.18-.36-.36-.36-.55,0-.25.17-.5.26-.76.25.1.64.15.72.32.15.37.14.81.21,1.3.03-.22,0-.44.08-.51.21-.17.47-.27.71-.4.08.26.2.52.21.78,0,.12-.2.25-.3.39-.61.86-.99,1.84-.61,2.83.62,1.65,1.41,3.23,2.13,4.84.11-.03.22-.06.33-.08.07-1.34.18-2.69.19-4.03,0-1.26.25-2.59-.61-3.71-.22-.28-.5-.52-.68-.83-.15-.26-.2-.58-.29-.87.28-.01.56-.03.86-.05-.03-.14-.14-.41-.13-.67,0-.22.11-.49.27-.61.12-.09.48-.06.57.05.13.16.19.46.15.67-.06.33-.24.63-.28,1.01.46-.47.81-1.11,1.62-.37-.08-.38-.17-.62-.17-.86,0-.2.03-.48.16-.58.14-.11.47-.13.61-.04.16.12.32.43.28.61-.11.56-.31,1.11-.33,1.75.17-.28.31-.59.53-.81.15-.15.43-.23.66-.23.12,0,.35.29.32.38-.07.21-.23.47-.42.54-1.45.57-2.25,1.78-2.4,3.17-.24,2.2-.48,4.49-.12,6.64.39,2.3,1.47,4.47,2.26,6.7.03.09.13.16.32.37.24-1.51.32-2.91.71-4.22.6-2.05.09-3.78-1.11-5.41-.26-.35-.61-.64-.88-.99-.22-.29-.49-.64-.49-.96,0-.2.46-.4.75-.63-.05-.32-.12-.75-.19-1.17,1.8-.33,2.98.06,3.29,1.05.29.02.58.04.88.05-.02-.06-.05-.12-.07-.19.35-.16.7-.32,1.05-.49.12.43.34.86.34,1.29,0,.29-.3.57-.43.87-.1.26-.15.54-.14.83.7-.54,1.11-1.2,1.12-2.11.02-1.22.31-1.41,1.78-1.06-.41.73-.79,1.4-1.2,2.12.13-.09.25-.23.37-.24.34-.03.69-.01,1.04-.01-.09.38-.14.78-.3,1.12-.07.16-.36.26-.57.3-1.19.24-1.95,1.07-2.77,1.88-1.82,1.8-1.93,4.18-2.34,6.46-.1.55-.13,1.11-.21,1.66-.06.45-.28.92.28,1.26.11.07.06.41.08.63.08.64.02,1.33.27,1.91,1.2,2.84,2.48,5.66,3.74,8.48.05.12.14.22.4.28-.21-2.23-.47-4.46-.61-6.69-.14-2.12-1.33-3.35-3.14-4.21-.29-.14-.46-.56-.63-.88-.02-.04.36-.4.43-.36.31.16.62.37.86.63.24.26.38.6.57.91.08-.05.17-.1.25-.14-.32-.53-.64-1.06-.94-1.6-.16-.29-.38-.6-.38-.9,0-.23.26-.54.49-.66.11-.06.51.2.6.39.16.37.21.8.27,1.21.14,1.1.61,2.05,1.25,2.92.1-.04.2-.08.29-.11-.2-.55-.28-1.19-.63-1.63-.47-.59-.62-1.12-.19-1.72.35-.48.87-.63,1.41-.39.65.29.99.8.77,1.55-.02.06.02.14.06.4.1-.29.11-.45.19-.53.23-.19.47-.41.75-.5.12-.04.5.24.48.32-.05.3-.15.69-.37.83-1.47.93-1.97,2.27-1.83,3.93.19,2.39.32,4.78.6,7.16.14,1.17.44,2.37.91,3.44,1.32,2.97,2.77,5.88,4.26,9,.08-.36.16-.55.16-.74-.08-2.87-.08-5.74-.3-8.6-.15-1.98-1.48-3.43-2.79-4.82-.14-.14-.46-.12-.59-.27-.29-.32-.6-.67-.73-1.07-.04-.14.46-.44.72-.67,0,0-.16-.08-.24-.21-.2-.34-.6-.81-.49-1.02.18-.36.64-.64,1.05-.82.32-.15.74-.17,1.1-.12.19.03.48.34.48.53,0,.4-.08.83-.24,1.2-.35.78-.22,1.5.19,2.46.03-.43.06-.62.06-.82,0-.22-.06-.44-.06-.66,0-.27-.07-.66.08-.79.25-.22.64-.28.97-.41.09.31.24.62.26.93,0,.18-.21.37-.39.64.42-.12.76-.22,1.23-.36-.2-.36-.44-.67-.54-1.02-.11-.38-.18-.82-.07-1.18.04-.16.72-.34.83-.23.24.23.39.65.39.99,0,.5-.15,1.01-.13,1.53.3-1.15.39-2.31.09-3.49-.1-.41.02-.87.03-1.31.59.06,1.25-.02,1.75.21.63.3.22.81-.08,1.17-.98,1.16-.99,2.57-1.12,3.95.64-.45.66-1.08.62-1.75-.07-1.08.19-1.3,1.4-1.01-.19-1.07-.41-2.08-.54-3.1-.41-3.06-.71-6.14-1.22-9.19-.19-1.12-.72-2.23-1.32-3.21-.35-.57-1.16-.85-1.75-1.3-.22-.17-.5-.41-.53-.65-.03-.19.27-.43.49-.75.02.03-.1-.08-.14-.22-.07-.27-.2-.61-.1-.83.08-.16.5-.29.72-.22.25.07.53.32.62.57.22.56.34,1.16.49,1.74.09,0,.18-.02.27-.03-.05-.46-.14-.92-.13-1.37,0-.3.1-.66.29-.86.11-.11.64-.04.72.1.14.24.19.65.09.9-.66,1.58-.54,3.13.56,4.86,0-.97.08-1.77-.03-2.55-.09-.64-1.06-1.25.07-1.87.07-.04,0-.37-.04-.55-.55-2-1.45-3.79-2.97-5.24-.26-.24-.64-.36-.88-.62-.19-.2-.28-.51-.35-.79-.02-.07.28-.32.32-.29.25.14.51.31.68.53.24.32.39.7.58,1.06.08-.04.16-.07.25-.11-.19-.43-.38-.86-.57-1.29-.13-.3-.32-.6-.37-.91-.03-.2.11-.52.27-.62.17-.1.52-.07.68.05.27.2.43.42.83.19.15-.09.65.09.7.24.11.34.03.74.03,1.15.3-.04.77-.1,1.19-.15.26-.28.53-.79.77-.78.6.03,1.29.14,1.75.49,1.11.84,1.05,1.06-.01,1.99-.68.6-1.34,1.22-1.96,1.89-.92,1-.6,3.08.47,3.99.23.19.2.71.23,1.09.03.35-.03.7-.05,1.05l.31.03c.06-.28.05-.61.21-.83.24-.35.65-.91.88-.86.57.12.53.67.31,1.15-.03.07-.06.15-.09.23.29.08.57.16.84.24,1.03-2.13,1.57-4.34,1.17-6.71-.13-.77-.16-1.55-.32-2.31-.09-.42-.27-.93-.59-1.17-.92-.69-.7-1.61-.65-2.51.03-.51.74-.79,1.25-.52.19.1.36.28.55.29.95.02,1.13.33.77,1.24-.31.78-.53,1.6-.79,2.4.12.04.24.08.35.11.26-.87.5-1.76.79-2.62.11-.34.34-.64.52-.95.24.17.5.31.7.51.96.92.94,1-.26,1.59-1.1.54-1.49,1.59-1.66,2.66-.15.93-.03,1.9-.03,2.86.09.01.17.02.26.04.21-.47.45-.93.64-1.41.53-1.33,1.01-2.69,1.59-4,.31-.71.73-1.39,1.16-2.03.88-1.31.87-4.32-.49-5.44-.2-.16-.25-.51-.33-.79,0-.02.33-.23.4-.18.25.18.49.39.66.64.14.22.17.51.24.77.07-.02.14-.05.21-.07-.13-.39-.31-.77-.39-1.17-.06-.31.01-.65.02-.98.37.01.85-.1,1.09.09.18.14.14.68.06,1.01-.14.62-.37,1.22-.57,1.82.12.04.25.09.37.13.29-.7.55-1.41.89-2.08.12-.23.41-.53.62-.53.22,0,.61.33.61.53.03.77.38.8.96.56.11-.05.35-.03.39.04.31.5.68,1,.82,1.55.05.18-.48.59-.82.78-1.43.81-2.93,1.5-3.83,2.99-.71,1.17-.64,1.5.59,2.06.58.26,1.22.39,1.82.61.62.23.38.67.13.99-.25.32-.62.54-.87.93.19-.1.38-.28.57-.29.23,0,.46.14.69.22-.12.22-.24.45-.38.66-.03.05-.16.05-.24.04-1.92-.31-2.94,1.13-4.23,2.05l.05.23c.21-.03.42-.07.63-.1.33-.05.66-.09.99-.14,0,.36.11.78-.04,1.06-.95,1.79-.57,3.58-.24,5.45,1.67-.81,2.09-2.6,1.68-4.29-.08-.31-.23-.74-.09-.94.17-.25.6-.42.93-.44.15,0,.47.48.44.7-.07.45-.34.86-.5,1.31-.12.35-.2.73-.21,1.12.66-.84,1.41-1.62,1.2-2.85-.05-.29.33-.94.42-.92.49.09.95.33,1.42.52-.16.35-.25.76-.5,1.04-.61.69-1.29,1.31-1.95,1.96.09.09.18.18.26.27.35-.38.72-.76,1.06-1.15.14-.17.21-.42.38-.54.21-.14.5-.28.73-.24.18.03.48.35.45.49-.04.23-.27.46-.49.61-.82.56-1.69,1.05-2.49,1.65-.62.47-1.13,1.07-1.71,1.59-.65.57-.81,1.29-.8,2.18.21-.07.41-.22.54-.17.31.12.66.29.83.54.09.12-.11.58-.31.73-.35.28-.79.46-1.31.74.61.19,1.44-.38,1.5.51.02.26-.68.56-1.04.84l-.33-.15c.2,2.16.41,4.33.61,6.49.1,0,.19.02.29.02.53-1.41,1.09-2.81,1.6-4.23,1.21-3.38,2.45-6.75,3.58-10.15.34-1.04.45-2.18.49-3.28.05-1.56,0-3.12-.11-4.68-.09-1.39-.42-2.69-1.83-3.43-.21-.11-.36-.53-.36-.81,0-.14.43-.42.61-.38.23.05.48.32.59.56.18.42.26.88.39,1.33.07,0,.14-.02.22-.02,0-.52.01-1.04,0-1.56,0-.22-.15-.45-.11-.65.05-.25.17-.58.36-.67.19-.09.58-.02.74.13.15.15.17.49.15.74-.03.23-.2.44-.32.7.25.04.46.07.69.1.03-.28-.04-.64.09-.74.24-.19.6-.22.9-.31.07.33.28.72.18.99-.2.57-.57,1.08-.86,1.61.09.05.18.1.27.16.26-.42.52-.83.78-1.25.23-.36.45-.74.73-1.07.37-.41.55-2.28.2-2.77-.52-.76-1.19-1.3-2.14-1.48-.85-.16-.9-.34-.4-1.02.09-.11.05-.32.13-.44.13-.21.3-.39.46-.58.22.18.52.32.63.55.19.4.26.86.57,1.24-.01-.13-.03-.26-.04-.39-.02-.53-.66-1.39.65-1.21.34-.66.91-.59,1.68-.46-.22,1.15-.45,2.28-.67,3.41.07.02.14.04.21.06.71-.86,1.47-1.7,1.07-2.99,0-.03-.02-.06-.01-.08.11-.34.23-.69.34-1.03.28.19.56.37.73.49.16-.18.4-.49.68-.75.04-.04.39.16.38.19-.11.4-.19.84-.41,1.17-1.09,1.63-2.53,3.04-3.11,4.98-.18.59-.62,1.28.4,1.64.14.05.15.5.23.83.4-2.16.46-2.23,1.45-1.61.99-1.32.88-2.88.95-4.4,0-.17-.09-.35-.04-.49.1-.28.26-.54.4-.81.21.19.41.39.66.62.16-.05.47-.21.79-.22.1,0,.22.38.35.62.61.03,1.32,0,1.68.79.07.15.34.21.53.29.23.1.47.18.7.27-.1.27-.14.61-.32.8-.31.31-.72.51-1.07.78-.1.08-.17.2-.25.3.04.07.08.13.12.2.51-.29,1.02-.56,1.53-.86.26-.15.48-.45.75-.49.24-.04.63.13.74.33.1.18,0,.6-.17.76-.19.19-.54.25-.84.3-1.72.31-3.5.42-5.14.96-.84.28-1.7,1.19-2.07,2.03-.62,1.4-.85,2.97-1.1,4.54.83-.67,1.65-1.29,1.94-2.35.11-.4.13-.84.3-1.21.1-.2.42-.31.66-.41.2-.09.43-.12.65-.16.27-.04.64-.17.79-.04.15.12.11.51.1.78,0,.17-.13.34-.29.74.34-.23.46-.37.62-.41.26-.05.64-.14.77-.02.21.21.38.59.36.89-.03.64.32,1.45-.89,1.61-1.41.19-2.79.64-4.18,1.02-.33.09-.68.31-.92.56-1.54,1.6-3.12,3.17-3.87,5.36-.83,2.45-1.72,4.88-2.59,7.32-.11.31-.21.63-.28.86.68.32,1.31.62,2.11.99.52-.44,1.17-.89,1.7-1.45,1.83-1.92,1.49-4.02.4-6.15-.24-.47-.39-.97.18-1.3.14-.08.53-.02.59.09.15.29.25.65.26.98,0,.6-.07,1.21-.11,1.82.13,0,.25.02.38.03.07-1.02.14-2.03.19-3.05.03-.62.23-.95.93-.78.84.21.93.66.34,1.49-.43.61-.8,1.26-1.2,1.89l.34.2c.27-.55.5-1.14.84-1.64.17-.25.55-.35.84-.52.07.28.15.55.23.83-.13.14-.25.3-.41.4-1.53.89-1.87,2.41-2.22,4.09,1.81-1.09,2.81-2.46,2.61-4.51.13,0,.27,0,.38.03.26.08.65.13.74.31.1.21,0,.6-.14.82-.23.36-.57.65-.94,1.06,1.57-.36,1.18-1.86,1.84-2.76.42.22.82.44,1.37.73-.2-.58-.45-1.04-.51-1.52-.04-.33.06-.84.29-.99.2-.14.66.09,1.01.17.16.04.31.09.47.14.42.14.84.27,1.27.41-.15.4-.27.81-.45,1.2-.28.63-.6,1.24-.75,1.93,1.05-.9.85-2.64,2.51-3.3-.34-1.11-.68-2.27-1.03-3.42-.06-.18-.24-.36-.23-.53.02-.36.14-.71.21-1.07.31.1.63.2.94.3.08.02.15.05.23.07-.14.95-.27,1.9-.4,2.85.13.01.27.02.4.04v-2.87c-.09-.57-.1-1.11.64-1.2.8-.09.98.45,1.01,1.14.24-.06.44-.14.65-.14.58,0,.88.48.56.96-.18.26-.46.52-.75.63-1.35.49-1.53,1.65-1.67,2.83-.02.16.12.45.27.51.61.26.53.7.38,1.18-.15.46-.29.92-.46,1.45.9-.17,1.15-.61.96-1.48-.27-1.31-.02-1.66,1.27-1.43.37.06.73.59.96.99.17.31,0,.75.53.94.2.07.25.55.36.84,1.91-1.28,2.16-2.85.88-4.62-.1-.13-.3-.24-.31-.38-.04-.36-.05-.74.04-1.09.03-.1.55-.22.62-.13.22.25.39.58.45.9.11.64.13,1.3.19,1.95.14-.01.28-.03.42-.04-.11-1.02-.25-2.05-.32-3.07-.03-.41.05-.87.21-1.24.05-.12.76-.13.8-.03.16.35.25.78.19,1.15-.14.78-.38,1.54-.59,2.31.09.03.17.06.26.09.08-.2.17-.39.23-.6.07-.21.05-.48.18-.64.25-.33.57-.62.89-.9.02-.02.43.28.42.39-.07.43-.11,1.06-.4,1.23-1.36.81-1.51,2.33-2.44,3.56,1.8-.53,1.99-2.22,2.9-3.33.53.41.98.76,1.6,1.25-.43.33-.77.77-1.18.87-1.37.34-2.29,1.34-3.36,2.12-.28.2-.58.37-.87.57-1.6,1.08-3.17,2.19-3.8,4.26.99-.39,1.58-1.1,2.04-1.93.12-.22.21-.5.4-.62.28-.19.64-.35.96-.35.11,0,.22.52.25.58.45-.15.96-.4,1.48-.44.17-.02.61.64.54.75-.26.42-.68.75-1.05,1.13.22.31.62.75.86,1.27.09.19-.15.63-.36.84-1.26,1.25-1.49,2.77-1.34,4.46,1.31-.54,2.04-1.84,1.79-3.01-.08-.37.02-.79.04-1.18.46.09.96.09,1.36.29.26.13.37.56.66,1.03.06.07.28.3.49.54-.25.22-.49.47-.77.66-1.08.72-2.31,1.28-3.2,2.19-.57.58-.64,1.66-.87,2.32.41.46.67.75.92,1.03-.3.25-.61.5-.9.76-.15.14-.37.27-.42.45-.27,1.1-.49,2.22-.55,3.43.16-.19.34-.37.49-.56,2.8-3.45,4.88-7.31,6.54-11.4.67-1.65.97-3.39-.29-4.99-.13-.17-.15-.54-.05-.73.08-.16.47-.29.63-.22.21.09.44.38.47.6.07.54.02,1.09.02,1.64.09,0,.18.02.27.03.06-.81.17-1.63.17-2.44,0-.76.22-1.08.83-.99.92.15,1.04.51.48,1.28-.45.63-.85,1.29-1.14,2,.45-.45.82-1.04,1.36-1.31,1.16-.6,2.19.06,2.33,1.35.01.13.02.32.1.38.5.38.51.37.23,1.12.43-.08.79-.16,1.15-.21.25-.03.5-.02.75-.03-.06.3-.02.68-.19.89-.35.43-.81.76-1.22,1.14-.09.08-.15.2-.09.47.47-.35.96-.68,1.42-1.06.43-.35.91-.77,1.36-.24.44.52.2,1-.45,1.31-.22.1-.31.47-.5.78.2.03.33,0,.4.06.27.18.52.38.78.58-.22.21-.41.55-.67.61-1.51.38-2.41,1.41-3.09,2.73,1.3.11,2.34-.49,2.81-1.6.07-.15.1-.41.2-.44.36-.11.73-.13,1.1-.19-.05.3.01.71-.16.88-.41.39-.94.66-1.41.98.03.07.06.14.08.21.38-.14.76-.27,1.13-.43.22-.1.43-.36.64-.35.28.01.54.22.81.34-.15.26-.28.54-.48.76-.08.09-.32.08-.48.07-2.11-.09-4.17.26-6.14.95-1.19.41-2.47.79-3,2.25-.32.86-.97,1.61-1.55,2.54,1.09-.21,2.09-.14,2.75-.95.28-.35.43-.82.61-1.25.17-.42.5-.92.88-.58.48.44.97.34,1.48.42.72.12,1.17.82,1.06,1.56-.1.67-.64.99-1.45.87-.11-.02-.22-.03-.32-.05-.01.08-.03.17-.04.25.38.07.8.27,1.13.18l-12.6,7.21c-2.92,1.56-5.65,7.37-8.6,8.86-.86,1.22-4.88,8.9-6.5,14.78-.15.06.04,1.64-.22,1.76v2.05c-.82,1.04-.19,2.26-.84,3.18-.79,1.11-1.46,2.3-2.26,3.4-.57.79-.51,1.58-.17,2.37.75,1.76,1.48,3.55,2.36,5.25,2.04,3.96,4.14,7.89,6.25,11.82.88,1.64,1.85,3.24,2.78,4.86.31.54.03,1.04-.59,1.09-.31.02-.62.08-1.06.14-1.4-2.5-2.95-5.14-4.37-7.84-2.08-3.94-4.06-7.93-6.1-11.89-.24-.47-.51-.93-.8-1.37-.47-.73-.62-2.15-1.5-2.16-.61,0-7.11-14.92-7.73-14.88M97.28,59.5c.29-.61.55-1.27,1.42-.89.75-2.48.52-3.81-.87-5.66-.17-.22-.14-.6-.15-.91,0-.06.36-.21.39-.17.21.22.42.47.54.75.14.33.2.7.29,1.06.08-.02.17-.03.25-.05-.07-.45-.13-.89-.2-1.34-.14-.81-.64-1.02-1.43-.97-1.78.13-3.51,1.61-4.17,3.67.85.12,1,.38.61,1.13-.15.29-.45.5-.59.8-.26.55-.46,1.13-.68,1.7.12.04.25.08.37.12.17-.51.35-1.01.51-1.52.16-.53.45-.96,1.05-.85.49.09.72.43.77,1.02.03.34.54.86.88.91,1.13.14,1.14.06,1.02,1.22-.52.45-1.03.9-1.55,1.34.05.05.1.1.14.15.61-.36,1.46-.48,1.38-1.52ZM82.95,54.38c.09-.29.18-.58.27-.86.13-.42.23-.85.39-1.26.02-.05.54.02.55.07.05.43.04.87.03,1.31,0,.17-.09.35-.08.52.03.41.09.81.14,1.2.07-.13.19-.28.25-.46.15-.48.21-.99.43-1.43.16-.3.51-.53.82-.72.09-.06.48.14.47.2-.03.34-.1.68-.23.99-.08.19-.31.31-.45.48-1.77,2.12-3.03,4.47-2.58,7.32.37,2.34,1.01,4.64,1.58,7.18.29-.39.48-.59.6-.82.79-1.53,1.66-3.03,2.33-4.62.98-2.29,2.19-4.51,2.59-7.02.16-.99.27-2,.6-2.94.82-2.37.13-4.59-.36-6.73-.58.3-1.15.56-1.68.88-.54.33-1.03.73-1.55,1.09.06.09.13.18.19.26.59-.38,1.16-.79,1.78-1.13.3-.17.67-.27,1.01-.28.12,0,.38.52.34.56-.25.25-.57.59-.88.6-3.21.16-5.21,2.17-7.08,4.47.59.21.88.53.54,1.13-.14.3-.25.6-.41.88-.76,1.34-.81,2.7-.24,4.25.78-1.74,1.21-3.37.64-5.13ZM75.84,93.01c.06,0,.12.02.18.03.07-.26.15-.53.22-.79.9-3.39,1.73-6.79,2.73-10.15,1.13-3.82,2.56-7.53,4.35-11.1.32-.64.63-1.47.5-2.12-.68-3.38-1.46-6.74-2.33-10.08-.26-.98-.9-1.87-1.42-2.91-1.01,1.1-1.85,2.06-2.75,2.98-.94.96-1.57,2.07-1.98,3.34-2.25,6.95-2.89,14.11-2.56,21.36.04.91.77,1.79,1.18,2.68.27-.59.31-1.07.49-1.5.1-.24.41-.5.65-.53.18-.02.5.26.59.48.21.47.31.98.45,1.47.44-.34.87-.67,1.31-1.01.06.07.12.14.18.21-.29,1.33-1.85,2.03-1.79,3.56.05,1.36.01,2.72.01,4.08ZM76.57,94.65c1.29.22,2.51.46,3.74.63.19.03.53-.18.61-.37.5-1.09,1.05-2.16,1.39-3.3,1.33-4.51,3.48-8.6,6.12-12.46.3-.43.7-.86.8-1.34.6-2.86,1.18-5.72,1.65-8.6.15-.9,0-1.89-.18-2.8-.16-.76-.71-.83-1.27-.3-1.13,1.07-2.34,2.08-3.38,3.23-1.01,1.13-2,2.33-2.72,3.65-1.66,3.04-2.71,6.34-3.61,9.67-1.08,3.99-2.1,8-3.15,11.99ZM72.98,92.01c-.22-1.5-.42-3.07-.67-4.63-.24-1.47-.31-3.03-.87-4.38-1.61-3.93-2.71-8-3.64-12.12-.52-2.29-.88-4.62-1.32-6.97-.73-.02-1.19.52-1.61,1.07-1.27,1.65-1.78,3.5-1.65,5.62.17,2.74.07,5.5.15,8.25.03,1.04.01,2.17.4,3.1,1.27,3.08,2.7,6.1,4.08,9.14.29.65.64,1.28.89,1.79,1.49-.3,2.86-.58,4.24-.86ZM74.05,51.97c-1.25.26-2.27.88-2.85,2.16-1.08,2.4-1.93,4.93-3.56,7.06-.17.23-.28.56-.29.85-.02.9-.06,1.81.06,2.7.72,5.45,2.11,10.74,3.95,15.92.11.31.25.61.38.91.14-.2.16-.33.16-.47-.21-5.87.72-11.59,2.14-17.26.36-1.45.83-2.95.79-4.42-.06-2.46-.49-4.92-.77-7.45ZM98.16,61.54c-2.04.73-4.12.63-6.17,1.67,1.04.34.92.77.51,1.26-.2.23-.44.44-.59.7-.16.27-.24.59-.36.89.09.04.18.08.27.12.31-.51.59-1.05.95-1.52.18-.23.52-.37.81-.43.09-.02.27.39.39.61.07.14.11.29.27.7,0-.93.28-1.36.99-1.11.57.2,1.1.53,1.71.84-.31.34-.51.56-.61.67.15.41.42.77.33.98-.13.29-.49.6-.81.67-2.53.59-4.38,1.87-4.88,4.6-.13.71-.35,1.41-.48,2.12-.16.9-.28,1.81-.42,2.71.09.04.17.07.26.11.49-.58,1.07-1.12,1.47-1.76,1.45-2.31,2.87-4.64,4.26-6.99.48-.81.97-1.64,1.22-2.53.38-1.33.56-2.71.87-4.31ZM76.01,106.79l.07-.1c-.44-2.4-.89-4.8-1.3-7.2-.27-1.56-.43-3.13-.73-4.69-.15-.81-1.41-1.7-2.09-1.64-.84.07-1.75.93-1.84,1.9-.04.44.09.94.29,1.35,1.12,2.27,2.25,4.53,3.43,6.76.66,1.24,1.44,2.42,2.17,3.62ZM97.08,69.38c.39-.87.86-1.19,1.23-.86.97.87,1.87.26,2.72-.1,1.33-.56,2.58-1.29,3.88-1.9.94-.45,1.91-.83,2.97-1.29-.96-.82-1.97-.91-2.99-.74-2.14.35-4.29.81-6.12,2.02-.78.52-1.26,1.49-1.85,2.27-.05.07.06.27.15.61ZM85.69,68.83c.86-.81,1.64-1.5,2.35-2.25.59-.62,1.49-1.04,1.45-2.1,0-.1.18-.3.25-.3.65.08.72-.52,1.06-.81,1.29-1.1,1.2-2.57,1.12-4-.04-.63-.43-1.24-.66-1.86-.1.01-.2.02-.3.03-1.73,3.71-3.47,7.41-5.27,11.28ZM67.16,60.5c.08.04.16.09.24.13.04-.1.08-.2.12-.3.99-2.23,2-4.45,2.97-6.69.12-.28.11-.68.01-.98-.3-.92-.66-1.83-1.01-2.77-.79.5-1.32,1.19-1.45,2.12-.25,1.76-.48,3.52-.67,5.29-.11,1.06-.14,2.13-.2,3.2ZM77.48,104.73c.09,0,.18,0,.26,0,.1-.31.2-.62.3-.93.55-1.75,1.07-3.5,1.65-5.23.73-2.18.69-2.26-1.66-2.52-1.35-.15-1.85.26-1.67,1.63.31,2.36.73,4.71,1.11,7.06ZM69.07,47.59c.07.1.14.19.21.29.24-.1.48-.19.72-.29.2-.08.47-.31.57-.24.81.5,1.11-.22,1.57-.58.17-.14.41-.19.62-.29.05.09.1.17.15.26-.47.45-.95.89-1.34,1.26.63.27,1.28.56,2.12.92.13-.16.58-.47.58-.78-.02-1.4-.24-2.78-1.33-3.82-.59-.56-1.2-1.1-1.96-1.79-.66,1.76-1.28,3.41-1.9,5.06ZM104.49,59.91c-.63.24-1.41.31-1.79.74-1.44,1.62-2.75,3.35-4.11,5.04.06.06.12.13.19.19,1.24-.54,2.48-1.06,3.7-1.63,1.34-.62,2.31-2.62,2-4.35ZM66.39,47.92c-.72.64-1.05,1.35-1.03,2.2.02,1.08.04,2.17.17,3.25.23,1.98.53,3.95.8,5.93.19-.22.21-.43.23-.65.22-2.27.38-4.55.69-6.81.2-1.41-.12-2.63-.87-3.92ZM111.51,53.72c-2.32.3-4.57,1.5-5.1,2.66.69-.05,1.4.25,1.54.83.09.39-.11.86-.22,1.48.16.02.55.18.86.08,1.43-.48,2.12-1.91,1.71-3.47-.11-.4-.34-.89.24-1.02.23-.05.56.34.83.52.03-.2.08-.6.14-1.09ZM55.82,67.48c-1.36-3.15-2.66-6.18-4.03-9.36-.94,3.54.61,7.07,4.03,9.36ZM108.53,52.59l-.2-.26c-.85.44-1.99.66-2.49,1.35-1.04,1.46-1.74,3.17-2.58,4.77.09.06.19.12.28.17,1.41-2.22,4.12-3.36,4.98-6.04ZM82.08,40.9c.78-2.41,1.55-4.82,2.37-7.36-1.79.37-2.93,3.68-2.37,7.36ZM82.51,41.49c.09.04.18.08.26.12.76-1.05,1.73-2.02,2.21-3.19.47-1.15.44-2.5.63-3.76-2.01,1.86-2.08,4.55-3.1,6.83ZM71.29,41.52c.21-.06.27-.06.31-.09.6-.49,1.2-.98,1.79-1.49.85-.73.92-2.25.05-3.29-.72,1.63-1.41,3.2-2.15,4.86ZM76.52,58.66c.07.03.14.07.21.1.85-.98,1.72-1.96,2.55-2.97.12-.14.14-.5.04-.64-.28-.39-.64-.71-1.06-1.15-.62,1.67-1.18,3.16-1.74,4.66ZM92.87,65.79c-1.15.41-1.69,1.88-1.33,3.51,1.58-.77,2.09-2.07,1.33-3.51ZM52.89,47.45c.72-1.54.84-3.53.27-4.5-1.05.84-1.17,2.56-.27,4.5ZM93.52,50.16c-2.05,1.34-2.34,3.46-2.54,5.62.85-1.87,1.69-3.74,2.54-5.62ZM94.76,49.99c-.1-.04-.2-.08-.3-.12-.75,1.63-1.5,3.25-2.25,4.88.1.05.2.09.3.14,1.18-1.42,2.37-2.84,2.25-4.9ZM95.88,70.06c-.88,1.43-1.72,2.78-2.55,4.13.99-.66,1.82-1.44,2.63-2.23.56-.54.7-1.12-.08-1.9ZM92.53,61.85c1.16-.94,1.71-2.06,1.7-3.49-1.28.51-1.93,1.83-1.7,3.49ZM43.14,47.01c-.09,1.34.7,2.72,1.74,3.09.17-1.38-.49-2.6-1.74-3.09ZM78.87,103.66c1.42-1.76,1.87-3.83,2.1-5.97-.07-.02-.14-.04-.21-.07-.63,2.01-1.26,4.03-1.89,6.04ZM73.21,86.44c-.1.01-.2.03-.29.04.3,1.87.61,3.75.91,5.62.07-.01.15-.02.22-.04-.02-1.91.22-3.87-.84-5.63ZM109.41,50.6c-1.26-.25-2.43.59-2.97,2.01,1.3-.15,2.04-1.1,2.97-2.01ZM92,29.1c-1.32,0-2.24.62-3.08,1.63,1.36-.02,2.44-.33,3.08-1.63ZM90.29,27.41c-1.15.53-1.53,1.21-1.57,2.75.86-.73,1.45-1.57,1.57-2.75ZM95.42,59.94c-.8.68-1.6,1.36-2.4,2.03,1.47.02,2.13-.52,2.4-2.03ZM68.53,47.45h-1.57c.33.73.6,1.34.95,2.12.24-.82.43-1.45.62-2.12ZM44.33,50.79c.07-.07.14-.14.2-.21-.75-.67-1.51-1.33-2.31-2.04.22,1.34.93,2.08,2.1,2.25ZM84.78,26.13c-.74,1.25-.56,2.22.46,2.78-.16-.94-.29-1.75-.46-2.78ZM63.62,37.86l-.29.11c-.06.96.2,1.81.9,2.5.1-.04.2-.07.3-.11-.3-.83-.6-1.66-.9-2.49ZM92.4,47.71c-.09-.02-.19-.05-.28-.07-.76.72-.88,1.32-.46,2.69.28-1,.51-1.81.74-2.62ZM71.55,52.11c.11.08.21.15.32.23.63-.7,1.44-1.27,1.34-2.46-.55.74-1.1,1.49-1.65,2.23ZM92.37,50.17c.52-.62,1.43-.98,1.48-2.08-1.09.39-1.34,1.2-1.48,2.08ZM107.85,49.85c-1.17.17-1.64.84-1.8,2.31.6-.77,1.13-1.45,1.8-2.31ZM98.51,60.4c-.06-.08-.11-.16-.17-.24-.79.47-1.58.94-2.37,1.41.98-.15,1.95-.32,2.54-1.17ZM53.65,46.96c.62-.59,1.23-1.24.95-2.2-.1-.03-.19-.06-.29-.09-.22.76-.44,1.53-.67,2.29ZM86.86,37.51c.08.09.17.19.25.28.51-.51,1.02-1.01,1.53-1.52-.12-.12-.23-.23-.35-.35-.48.53-.96,1.06-1.44,1.59ZM97.05,46.02c-.94.04-1.47.85-1.04,1.72.34-.56.68-1.12,1.04-1.72ZM70.91,52.38c.13,0,.25,0,.38,0-.04-.69-.08-1.37-.12-2.06-.13,0-.27.02-.4.03.05.68.1,1.36.15,2.04ZM65.27,48.35c.96-.98.98-1.19.2-2.05-.07.68-.13,1.27-.2,2.05ZM75.18,36.54c-.13-.02-.25-.04-.38-.07-.11.63-.21,1.25-.32,1.88l.37.07c.11-.62.22-1.25.33-1.87ZM90.96,44.83c-.11,0-.21,0-.32,0,.03.69.06,1.38.1,2.07.07,0,.15,0,.22,0v-2.07ZM110.91,52.79c-.08-.1-.15-.21-.23-.31l-1.69,1.2c.06.09.12.18.18.27.58-.38,1.16-.77,1.74-1.15ZM64.76,40.27c.13.04.26.07.38.11.15-.53.31-1.05.46-1.58-.13-.04-.27-.08-.4-.11-.15.53-.3,1.06-.44,1.58ZM104.49,58.07c1.15-.01.74.76.86,1.23.11-.03.21-.06.32-.09-.1-.59-.21-1.17-.35-1.98-.34.34-.49.5-.83.84ZM99.39,53.57l.31.07c.14-.64.28-1.29.41-1.93-.1-.02-.19-.05-.29-.07-.15.64-.29,1.28-.44,1.93ZM102.75,54.56c-.09-.09-.18-.17-.27-.26-.38.45-.75.9-1.13,1.35.07.06.14.12.22.18.39-.43.79-.85,1.18-1.28ZM62.16,67.93c.11-.05.22-.1.33-.14-.25-.53-.5-1.05-.74-1.58-.11.05-.21.1-.32.15.24.52.49,1.05.73,1.57Z" fill="none" stroke="#000" stroke-miterlimit="10" stroke-width=".67"/></svg>