<?xml version="1.0" encoding="UTF-8"?><svg id="Layer_1" xmlns="http://www.w3.org/2000/svg" viewBox="0 0 144.57 144.57"><path d="m68.21,118.34c.09-.45.98-.08,1.4-.2-.33.25-1.08.52-1.39.2h0Z" fill="#010101" fill-rule="evenodd"/><path d="m77.38,80.06c-1.19-.73-2.92-.94-3.59-2.19.87-.38,1.38.72,1.99,1,1.3.59,3.77.96,4.98.2,1.66-1.04,2.58-3.6,2.79-6.18.34-.04.52.34.6,0,.04-.76-.16-.07-.6-.2.23-6.14-3.25-8.58-5.78-11.96,1.15.91,2.01,2.11,3.19,2.99-1.17-1.82-2.95-3.03-4.39-4.59.43-.73,1.45.7,1.99,1.2,2.22,2.05,5.34,4.85,5.98,8.57.85,4.9-.31,8.97-2.99,11.76-2.65.46-5.73-.16-7.97-1.59-.97,4.91-.97,12.07-1.79,17.74-.49-3.22.21-7.1.2-9.97-.44.03-.09.85-.2,1.2-.3-2.09,0-5.32.2-7.58.56,1.82-.29,3.96,0,6.18.56-2.63.39-5.99,1.2-8.37,1.41.58,2.39,1.59,4.19,1.79h0Zm5.98-3.79c-.54,1.85-1.79,2.99-3.39,3.79,1.79.31,3.27-2.42,3.39-3.79h0Zm-5.78,3.79c1.28.23.44-.61,0,0Zm6.18-5.98c.07.55-.57,1.4,0,1.79.08-.4.49-1.48,0-1.79h0Zm-2.19-9.37c1.5,1.89,2.36,4.42,2.59,7.58.44-2.92-1.01-6.68-2.59-7.58h0Z" fill="#010101" fill-rule="evenodd"/><path d="m71.6,90.24c-.31.61-.18-.86-.2-1.2.31-.61.17.86.2,1.2h0Z" fill="#010101" fill-rule="evenodd"/><path d="m70.8,89.44c-.56-.19-.54-1.23-.6-1.79-.1-1.05.08-2.13,0-3.19,1.2,1.6.04,2.88.6,4.98h0Z" fill="#010101" fill-rule="evenodd"/><path d="m73.79,77.28c-1.47-.99-1.39-4.5-.8-6.38.45-.15,0,1.55.4.8.31.44-.35,1.39.6,1.2-.31.89-.54,1.85-1,2.59.47.49.37-.3,1-.2.03.63-.53.67-.4,1.4.73-.47.44-1.96,1.4-2.19-.04,1.29-.74,1.93-1.2,2.79h0Zm-.6-3.59c-.5-.19-.06,1.14,0,.4-.02-.33.33-.87,0-.4h0Z" fill="#010101" fill-rule="evenodd"/><path d="m92.33,75.88h-.4v-.4h.4v.4h0Z" fill="#010101" fill-rule="evenodd"/><path d="m74.59,59.93c1.15.71,2.25,1.47,2.79,2.79,1.06-.06.79,1.58,1.79,1,.48,2.62,2.23,3.92,2.19,6.98-.02,1.86-1.52,4.46-3.99,3.59-.35-.12-2.15-2.09-2.39-2.59-1-2.07-1.59-9.42-.4-11.77h0Zm-.2,4.98c.03.48.12,1.3.2,1.99.2,1.82.63,2.74,1,3.59.64,1.51.86,2.38,1.79,2.99,1.67.24,3.6-.13,2.39-1.59.21-.46.13-1.2.4-1.6-1.43-.03-.08-1.73-.8-2.59-.47,1.24-.25-1.23-.6-1.39-.61.36.4,1.12-.2,1.39-.46-.34-.07-1.52-.2-2.19-1.24.36-.53-1.5-1.4-1.99-.18,1.08-.18-.68-.8-.4-.11.35.24,1.17-.2,1.2.04-.57-.05-1.01-.4-1.2-.11.35.24,1.17-.2,1.2.03-.89-.02-1.71-.4-2.19-.4.96-.69,1.51-.6,2.79h0Z" fill="#010101" fill-rule="evenodd"/><path d="m71.6,72.29c-.27-.28-.43-.98-.2-1.2.44.03.08.85.2,1.2h0Z" fill="#010101" fill-rule="evenodd"/><path d="m72.8,64.12c-.33-2.17-.43-6.56-.4-9.97.95,2.88.38,6.5.4,9.97h0Z" fill="#010101" fill-rule="evenodd"/><path d="m70,63.32c.29-1.67-.17-4.02,0-5.98.04-.46.48-.94.6-1.4.14-.54-.42-1.38.4-1.4-.2,3.06-.55,5.96-1,8.77h0Z" fill="#010101" fill-rule="evenodd"/><path d="m65.62,61.12c.74-.91,2-1.33,2.79-2.19.51-.55.51-1.62,1.4-1.79-.71,2.02-2.15,3.31-4.19,3.99h0Z" fill="#010101" fill-rule="evenodd"/><path d="m77.38,60.53c-.58-.09-.91-.42-1-1,.58.09.91.42,1,1h0Z" fill="#010101" fill-rule="evenodd"/><path d="m75.19,57.94c-.82-1.89-2.17-5.05-2.19-8.37,0-1.65.27-3.21.4-5.18.01-.2-.32-1.2.4-1.2.08,5.33-1.53,13.01,3.99,13.76-.9.96-2.32-.64-2.99-1.2-.13.87,1.32,1.87,1.6,2.99-.47-.06-.86-.43-1,.2-1.44-.95-1.77-3.02-2.39-4.78-.07-.34.16-.38.4-.4.28,1.71.81,3.18,1.79,4.19h0Z" fill="#010101" fill-rule="evenodd"/><path d="m67.41,37.2c-.58-.82-1.04-1.75-1.4-2.79.74.66,1.17,1.62,1.39,2.79h0Z" fill="#010101" fill-rule="evenodd"/><path d="m66.02,91.83c.5.96,1.47,1.46,2.39,1.99.69,2.17,2.22,3.5,1.99,6.58.79.26.48-.73,1-.2.05,4.06,1.68,7.05,1,10.77-1-.93.15-4-.8-4.98-.77,1.57-.05,3.33-.4,4.79-1.4.02-.63-1.27-.6-1.99.13-2.61.84-4.98.4-7.78-.63.83-.33,2.6-.4,3.99-.92-.41-.05-1.71-.2-2.59-.64.82-.54,2.39-.8,3.59.86.26.25-.95,1-.8-.12,1.05-.62,2.21-.8,3.39-.08.56.4,1.53-.4,1.79.09-1.37.45-2.47.4-3.99-.34.99-1.07,2.65-.6,3.79-.92.29-.6-2.76-.4-3.79.22-1.14.89-2.18,1-2.99-.86.24-1.05,1.61-1.4,2.59-.61,1.76-1.2,3.34-.2,5.18-.91,1.21-2.34,1.91-3.19,3.19.93-.28,1.93-.47,2.59-1,.78-.63.93-1.82,1.79-2.39-.47,2.14-.75,4.61,1.2,5.98.03-.7-.53-1.21-.6-2.19-.07-1.05.7-2.2.2-3.19,1.45.92-.44,2.86.4,4.39,1.56-.24,1.09-2.5,1.2-4.19.95-.22.84.62,1.79.4.32,1.81,1.59,2.66,3.19,3.19-.79-1.27-3.36-2.49-3.39-5.18.92-3.35-2.1-7.6-1.59-10.97-.35-.76-.22-.76-.4-1.59.18-.16.45-.21.8-.2.99-4.32,5.53-6.57,8.77-8.97-2.96,1.23-6.41,3.69-8.37,6.58-.09-1.63,2.22-2.57,2.79-4.19.46.06.77-.03,1-.2,4.32-3.46,10.19-5.31,13.56-9.77.12-.16.22-.52.4-.8.78-1.2,2.33-3.38,2.79-5.18.19-.73.02-1.47.2-2.19.59-2.4.07-6.03-1.2-8.37-1.71-2.06-4.06-4.4-7.18-5.38-2.22-.7-5.66-.35-6.98-1.99,1.48.11,2.49.7,3.99.8-2.05-1.4-4.46-.42-6.38-1.99-2.49-2.05-.83-6.68-1.2-10.97-.25-2.88-.21-7.03-.8-10.17-.41-2.18-1.27-5.2-1.99-7.38-.53-1.57-1.62-2.83-1.4-4.19,2.1,2.61,2.68,6.76,3.79,10.37,2.45-.22,4.48-.73,6.58-1.6.52-.21.97-.66,1.4-.8.31-.1.68.13,1,0,1.17-.46,2.31-1.26,3.59-1.6,1.98-.52,4.17-.55,6.38-1,.62-.12,1.13-.51,1.79-.6,2.79-.37,5.55.21,7.58.8,2.12.61,3.13,1.13,4.98,2.19,2.26,1.3,3.68,2.2,5.58,3.79,2.16,1.81,3.18,4.58,5.78,5.98.03.77.67.92.6,1.79,5.39,6.71,7.35,16.18,7.78,26.12.31,7.34-1.36,15.08-4.19,20.73-.48.97-1.17,1.73-1.79,2.79-.87,1.48-1.36,3.29-2.19,4.78-.34.61-.94,1.36-1.4,2.19-1.13,2.05-2.4,4.55-3.79,6.58-.96,1.39-2.32,2.56-2.79,4.19-2.08,1.84-3.9,3.95-5.38,6.38-.42.44-.64-.18-1,.2-4.13,3.25-8.7,5.28-14.95,5.18-2.31-.04-4.62-.61-6.98-.4-2.38.22-5.21,1.43-8.57,1.2-1.66-.12-3.16-.82-4.78-1-3.76-.42-7.43.78-11.16.2-3.17-.49-6.14-2.22-9.37-3.19-1.58-.47-2.79-.7-4.19-1.4-.61-.3-1.18-.65-1.79-1-.62-.35-1.45-.46-1.99-.8-1.46-.9-2.79-2.78-4.39-4.19-.25-.22-.79-.21-1-.4-.5-.45-1.19-1.35-1.79-1.99-4.22-4.47-6.81-11.17-9.77-17.15-.97-1.95-2.01-3.21-2.59-5.38-.22-.81-.91-1.47-1.2-2.19-.44-1.11-.61-2.49-1-3.59-1.79-5-2.14-12.4-1.4-18.74.07-.6.45-1,.6-1.59.18-.69.03-1.44.2-2.19.49-2.15,1.63-4.57,2.59-6.78.7-1.6,1.63-3.09,2.39-4.59,1.47-2.88,3.58-5.67,5.78-8.17,2.86-3.25,4.99-6.01,8.57-8.17,1.03-.63,2.21-.92,2.99-1.79,1.29.13,3.57-.22,4.79-.8,3.5.49,7.12.14,10.77,1,4.32,1.01,7.22,4.5,11.96,4.78-.23-3.56-2.22-6.41-2.59-9.17.84.26,1.08,1.38,1.4,2.19.69,1.76,1.57,4.04,1.99,6.38.95,5.29.28,11.4,1,16.75.32-1,.4-2.06.4-3.19,0-.73-.74-1.78.2-2.39.11,2.78.5,7.35-.8,9.77-.15.61.55.38.4,1-1.24,3.02-2.86,5.65-5.98,6.78,1.98-1.81,4.43-3.14,5.18-6.18-.88-.27-1.71,1.21-2.79,1.4-.24-.09-.41-.26-.4-.6-.69.37-1.65.48-2.19,1,.54.53,1.03-.69,1.99-.4-1.15,1.23-3.3,1.22-5.38,1.79-2.86.79-5.21,1.86-7.38,3.39-1.23,1.89-2.88,3.36-2.99,6.38-1.6,4.48,1.06,9.42,2.99,12.76,1.02,1.76,2.25,3.93,3.79,5.18.63.52,1.65.91,2.39,1.4.82.54,1.41,1.03,2.19,1.4,3.22,1.5,6.41,3.1,8.17,6.18-.19-5.74-.71-11.5-1-16.75-2.09,2.27-6.1,3.7-8.97,1.59-.34-.73-.59-1.54-1.2-1.99-.41-2.58-1.05-5.19-.8-7.77.34-3.4,2.2-5.74,3.79-7.58,1.17-.03,1.43-.96,2.39-1.2,0,1.06-1.2.92-1.59,1.59.88-.39,1.73-.8,2.39-1.4-.09,1.42-2.24,1.76-3.39,2.99-1.38,1.47-2.77,4.48-1.4,6.38-.36.44-.78.82-1,1.4.96.3.41-.92,1.2-.8.34,1.4-1.3,1.96-1,3.19.77-.29.85-1.28,1.4-1.79.06.27-.47,1.65-.8,2.19.38.62.82-1.42,1.2-.8.02,1.35-1.4,1.26-1.4,2.59.88-.25,1.05-1.21,1.59-1.79.31.78-1.12,1.53-1.2,2.59.13.6.43-.19.8,0-.12.42-.42.65-.6,1,.37,1.36,2.54-.58,1.4.6.2.5.88-.16.8-.6.58.17-.26.5,0,1,1.41-.78,1.8-2.59,2.99-3.59.22,1.22-1.31,2.41-1.99,3.39,1.18.05,1.77-2.21,2.79-2.99.21.74-.76,2.02-1.4,2.59.86-.14,1.74-1.98,2.39-2.99.16.63-.7,1.95-1.2,2.59.85-.27,1.1-2.02,1.99-1.6-.18-.58-.18-.61,0-1.2.46-.27.64-.82,1-1.2.54-.79-.4-3.06.8-3.19.13,5.11-2.25,7.72-6.18,8.77,2.29.23,4.34-1.51,5.38-3.19,1.07,6.14.9,12.29,1.4,18.94.53.14.86.47,1,1-1.45.96-1.69-1.61-2.39-2.59-.87-1.24-1.87-2-2.98-2.6h0Zm1.39,22.53c-2.21,1.02-4.45.89-5.98,2.39.61-.14.38-.14,1,0,.34-.12.33-.6.6-.8,2.21.35,3.22-1.56,4.98-1-1.44,1.22-3.83,1.49-5.78,2.19.7.52,2.86-.89,3.39-.4-1.63.77-3.86.92-5.58,1.6.54.44,2.08-.64,2.79,0-1.4.32-4.6.77-5.58.2,1.52-.34,3.08-.64,4.19-1.4-.46.06-.77-.03-1-.2-1.85,1.6-5.53,1.38-8.37,1.99,3.7,1.25,7.99,3.02,12.96,1.79.41-1.05,2.46-.47,3.19-1.2-.24-.02-.47-.06-.4-.4.51-.1,1.58-.66,1.99-.2-.36.3-1.12.21-1.4.6.35.11,1.17-.24,1.2.2-.72.28-1.32.67-1.99,1,3.89-.13,7.42,1.04,10.97.6,1.2-.15,2.23-.88,3.39-1,1.16-.12,2.36.61,3.39-.2-5.02-1.76-7.91-5.64-11.16-9.17.09,1.24,1.09,1.57,1.2,2.79,1.41.52,2.43,1.43,2.79,2.99-1.3-.7-2.53-1.45-3.99-1.99-.36-.97-.88-1.78-1.79-2.19.09,2.31-1.35,3.84-1.2,5.58-.35-.37-.51.16-1.2,0,.48-.84-.27-.36-.6-.8.24-.1.45-.21.6-.4-1.11-.95-1.98-2.66-1.79-3.79-.34.68-2.12,1.07-.8,1.19h0Zm4.79-13.96c.11,1.77,1.48,4.13,1.79,6.38.09.61-.04,1.28,0,1.79.07.9,1.5,2.92,2.19,3.79.73.92,1.79,1.82,2.59,2.59,2.23,2.15,4.68,3.86,7.78,4.78,2.57.77,5.99.99,8.97.4,3.62-.72,6.33-3.07,9.37-4.78,1.03-1.45,2.2-2.92,3.39-4.39,1.19-1.46,2.64-2.87,3.59-4.39.34-.54.86-1.25.6-1.99,1.11-.42,1.75-1.31,1.79-2.79,1.35-.96,1.89-2.68,2.79-4.19,3.02-5.05,6.61-10.42,7.97-16.75,2.57-11.87.63-25.95-3.99-34.49-.9-1.66-2.59-2.98-2.79-4.98-.2-.47-1.09-.24-1.4-.6-.3-1.09-1.35-1.83-2.19-2.79-.72-.82-1.39-2.05-2.19-2.79-.39-.36-1.28-.6-1.79-1-.28-.22-.38-.64-.6-.8-.3-.22-.72-.21-1-.4-.28-.19-.34-.63-.6-.8-.32-.2-.79.05-1.2-.2-1.22-.74-1.61-1.25-2.99-1.79-1.4-.55-2.12-.49-3.59-.8-.79-.16-1.44-.5-2.19-.6-2.05-.26-3.41.22-5.18.2-.69.58-1.88.64-2.99.8-.54.63-1.48.71-2.19,1-2.24.91-3.23,1.65-4.98,2.99-1.87,1.43-2.93,2.32-4.19,4.19-2.03,3-3.83,6.51-4.19,10.77-.25,2.92-.11,4.57,1.2,6.38.87.26,1.76.5,2.19,1.2,7.74,1.06,14.46,3.56,16.35,10.17.29,1,.51,2.25.6,3.39.15,2.02-.33,3.43-.8,4.98-.78,2.6-1.16,3.43-2.39,5.38-.6.96-1.17,2.06-1.79,2.79-2.8,3.27-6.31,4.34-9.77,6.58-2.65,1.72-5.12,3.58-6.98,5.78-.18,1.73-1.3,3.24-1.19,4.99h0Zm-4.19-57.02c-.53-1.66-1.28-2.96-1.99-4.19-.27-.46-.33-1.19-.6-1.6-.4-.61-1.11-.97-1.59-1.59-.47-.6-.78-1.47-1.2-1.99-1.48-1.86-4.93-4.23-7.18-4.78-.44-.11-1.05.09-1.59,0-.48-.08-.98-.53-1.4-.6-2.6-.43-7.33-.34-9.77.4-1.62.49-4.06,1.28-5.18,1.99-2.19,1.39-4.58,4.24-6.78,6.78-2.05,2.38-4.62,4.83-6.18,7.58-.89,1.56-1.59,3.47-2.39,5.18-.83,1.78-1.57,3.6-2.19,5.38-1.42,4.09-1.96,8.17-1.99,12.36-.06,6.71,1.94,13.49,4.19,18.14,1.19,2.45,2.26,5.01,3.79,6.98-.4,1.54,1.37,2.62,1.99,3.79.37.49-.5.45,0,1.2.25.48.64.82,1.2,1-.84-.07-.14.65-.2,1,1.68,2.58,3.22,5.67,5.18,7.78,1.14,1.22,2.58,2.11,3.79,3.19,1.33,1.19,2.41,2.45,3.79,3.39,1.55,1.06,3.08,1.65,4.78,2.19,1.72.55,3.48.65,5.58,1.2.52.14,1.47-.35,1.99-.4.83-.08,1.68.12,2.39,0,1.75-.31,4.6-1.62,5.58-2.39.72-.56,1.85-.94,2.39-1.4.63-.53.79-1.55,1.59-1.79,1.24-3.15,1.64-7.13,3.39-9.77-.46-1.13.25-2.1.2-3.19-.1-2.27-1.62-3.86-2.39-5.58-.92.14-1.05-.8-1.6-1.2-1.86-1.36-4.27-2.02-6.38-3.19-4.03-2.23-6.25-5.7-8.37-9.97-1.12-2.25-2.02-4.66-2.19-6.98-.28-3.72.61-7.8,2.39-10.37,1.3-.9,2.45-1.93,3.79-2.79,3.99-2.06,9.77-2.33,13.36-4.79,1.56-3.44,1.06-7.05-.2-10.96h0Zm-.8,67.19c.13.47-.84,1.26,0,1.2-.06-.35.56-.99,0-1.2h0Zm-4.79-20.54c.63.23,2.25,1.39,2.19,1-.68-.25-1.54-1.37-2.19-.99h0Zm-3.99-1.99c1.36.17,2.4,1.72,3.59,1.4-1.29-.25-2.37-1.75-3.59-1.39h0Zm25.52-1.39c-.91.35-1.82.71-2.39,1.4,1.1-.16,1.65-.88,2.39-1.39h0Zm-26.71.4c.34.08.9.94,1.2.4-.38-.04-1.04-.8-1.2-.4h0Zm-3.59-4.39c.44,1.95,1.9,2.89,3.19,3.99-1.05-1.33-2.11-2.67-3.19-3.99h0Zm39.67-6.97c-1.87,4.71-4.91,8.25-8.97,10.77,4.41-2.03,7.81-6.15,8.97-10.77h0Zm-41.07,4.58c.15.91.71,1.42,1.2,1.99-.26-.8-.78-1.35-1.2-1.99h0Zm-1.99-3.99c.07.46.2.86.6,1-.07-.46-.2-.86-.6-1h0Zm43.46-1.99c.07.38-.46,1.45,0,1-.12-.36.58-.83,0-1h0Zm-44.66-2.39c.45.55.02,1.97.6,2.39-.19-.68.03-2.81-.6-2.39h0Zm45.26,1c-.55-.32-.55.86-.2.8.06-.27.28-.38.2-.8h0Zm-.4-5.58c-.02.95.06,1.8.4,2.39-.01-.92.11-1.97-.4-2.39h0Zm-1.39-3.39c.43,1.1.96,2.1,1.4,3.19-.11-1.42-.68-2.37-1.39-3.19h0Zm-1.2-1.6c.1.14.85.97.6.6-.34-.49-.74-.8-.6-.6h0Zm-5.98-3.59c.62.24.99.74,1.99.6.02.28.78.78.8.4-.15-.5-3.65-1.46-2.79-1h0Zm-26.32-.6c-1.24.16-2.17.63-2.99,1.2,1.25-.5,2.01-.34,2.99-1.2h0Zm23.12-.4c.36.05,1.12.72,1.4.2-.34-.07-1.23-.6-1.39-.2h0Zm-18.34-.8c-1.04.56-3.94.31-3.99,1.2,1.18-.55,3.14-.31,3.99-1.2h0Zm5.78-3.79c0-.11-.17.41,0,0Zm.2-2.59c-.05.27.12.78.2.4.06-.27-.12-.78-.2-.4h0Zm5.78-10.77h-.6v.4c.01.12.03.24.2.2.05-.28.33-.34.4-.6h0Zm-.4,4.19c2.06-5.98,5.82-10.26,10.77-13.36-3.93,1.12-6.97,3.13-11.76,3.39-.38.52.39,1.24.2,2.19.49-.03.83.1,1,.4.15.69-1.05,1.05-.4,1.59.3-.23.23-.83.8-.8-.15.84-.78,1.22-1,1.99,1.02-.04.89-1.24,1.6-1.6.39,1.97-2.45,3.35-1.19,6.18h0Zm-6.18-.6c.29-1.68-.58-2.21-.6-3.59.28.05.34.33.6.4v-1.2c-1.1.82-1.64-1.13-1.4-1.59.2.73,1.23.63,1.4,1.4.05-1.44-.65-2.14-.8-3.39.08-.05.39.22.4.2.92-2.28-2.68-1.69-3.79-2.39.18,1.02,1.14,1.25,1.2,2.39-.87-.73-.9-2.29-2.19-2.59.1.69.68,1.03,1,1.59.87,1.53,1.08,3.54,2.39,4.59-.19-1.08-1.31-2.27-1-3.19,1.18,2.2,1.56,5.21,2.79,7.38h0Zm-3.79-7.58c-.85-1.14-1.55-2.43-2.59-3.39.85,1.01,1.46,3.32,2.59,3.39h0Zm-4.39-4.39c.61-.06.83,1.28,1.2.8-.34-.21-.74-1.37-1.2-.8Zm26.31-1.2c-.46-.06-.75.05-.8.4.46.06.75-.05.8-.4h0Zm-25.72,49.64c-.2.68,1.5.47,1.6.2-.58-.02-1.31.11-1.6-.2h0Zm-2.59-3.99c-.03.49-.04.97.4,1-.11-.36-.1-.83-.4-.99h0Zm2.99-12.36c-2.59,1.8-4,5.84-3.19,10.37-.27-4.33.69-7.99,3.19-10.37h0Z" fill="#010101" fill-rule="evenodd"/><path d="m60.83,78.87c.48-.91,1.22-1.57,1.6-2.59.3.91-.92,2.01-1.6,2.59h0Z" fill="#010101" fill-rule="evenodd"/><path d="m63.03,78.27c-.43.47.1-.41,0-.8-.28.32-.56.63-.8,1-.32-.4.7-1.15.8-1.79.51.9.48-.21,1.2-.2-.41.59-.9,1.09-1.2,1.79h0Z" fill="#010101" fill-rule="evenodd"/><path d="m61.03,77.47c-.31-.59.88-1.37,1-2.19.37.65-.75,1.51-1,2.19h0Z" fill="#010101" fill-rule="evenodd"/><path d="m69.01,61.73c.6,4.79-1.23,8.33-2.79,11.56-1.24.3-1.42,1.4-2.59,1.4-2.36-.01-2.76-2.88-2.19-5.18.88-3.59,3.98-7.33,7.58-7.77h0Zm-.8,1.79c-.21.19-.06.74-.6.6-.14-.61.34-.59.2-1.2-3.39,1.12-6.9,5.39-5.98,10.17.84.09,1.02.85,1.79,1,1.53-1.13,2.6-2.71,3.39-4.59-.16-.04-.39,0-.4-.2.39-1.01,1.06-1.63,1-2.79-.02.24-.06.47-.4.4.36-.52,1.24-1.59.4-1.6.74.06,1.13-1.25.6-1.79h0Z" fill="#010101" fill-rule="evenodd"/><path d="m68.21,37.2c-.41-.52-.68-1.18-.8-1.99.42.52.68,1.18.8,1.99h0Z" fill="#010101" fill-rule="evenodd"/><path d="m71.2,83.06h-.6c-.85-8.43-.45-17.11,1-24.92.62.18.41,1.19.4,1.59-.22,6.73.89,16.7-.8,23.33h0Zm.4-12.96c-.05.35.2,1-.4.8-.34-1.86.45-5.22-.2-6.78-.09,5.48-1.28,11.14.4,15.75-.35-3.88.51-6.95.2-9.77h0Zm0-1c-.05.27.12.78.2.4.06-.27-.12-.77-.2-.4h0Zm0-1.2c-.03.14.07,1.16.2.6.18-.76-.11-1-.2-.6h0Z" fill="#010101" fill-rule="evenodd"/></svg>