<?xml version="1.0" encoding="UTF-8"?><svg id="Layer_1" xmlns="http://www.w3.org/2000/svg" viewBox="0 0 144.57 144.57"><path d="M112.2,122.21c-1.94-1.09-2.6-2.53-2.06-4.55.43-1.63,1.63-2.45,3.37-2.3,1.39.12,2.49,1.33,2.62,2.86.15,1.81-.41,3.23-2.18,3.99h-1.75ZM115.26,118.76c-.01-1.27-.57-2.22-1.47-2.53-1.17-.4-2.33.18-2.72,1.37-.53,1.6.06,3.35,1.29,3.73.37.12.82.14,1.2.06,1.09-.23,1.71-1.23,1.69-2.64Z" fill="#000" stroke-width="0"/><path d="M21.18,59.64c.4-1.14.97-2.18,2.28-2.36.74-.11,1.53.02,2.28.12.6.09.84.49.63,1.1-1.84-.82-3.03-.76-3.77.2-.72.93-.72,2.85,0,3.78.74.96,1.94,1.02,3.77.2.22.61-.05.91-.62,1.12-2.05.75-3.61-.01-4.57-2.26v-1.9Z" fill="#000" stroke-width="0"/><path d="M21.18,33.83c.4-1.14.97-2.18,2.28-2.36.74-.11,1.53.02,2.28.12.6.09.84.49.63,1.1-1.84-.82-3.03-.76-3.77.2-.72.93-.72,2.85,0,3.78.74.96,1.94,1.02,3.77.2.22.61-.05.91-.62,1.12-2.05.75-3.61-.01-4.57-2.26v-1.9Z" fill="#000" stroke-width="0"/><path d="M75.68,57.72c-.14.24-.24.42-.37.65-1.88-1.09-3.77-2.08-5.55-3.25-1.08-.71-1.89-.68-2.98,0-2.97,1.83-6.04,3.51-9.06,5.27-.48.28-.82.31-1.31.02-3.3-1.94-6.64-3.84-9.94-5.77-.44-.26-.74-.25-1.18,0-2.68,1.57-5.37,3.11-8.06,4.66-.21.12-.42.23-.67.36-.12-.2-.24-.38-.38-.61.25-.16.47-.3.69-.43,2.69-1.55,5.37-3.12,8.07-4.65.44-.25.59-.52.59-1.02-.02-3.69-.02-7.39,0-11.08,0-.5-.15-.78-.58-1.03-2.36-1.34-4.7-2.71-7.11-4.1.12-.22.22-.4.33-.61.14.05.25.07.35.13,2.27,1.31,4.54,2.62,6.8,3.95.39.23.69.26,1.11.01,3.35-1.96,6.72-3.89,10.07-5.85.41-.24.7-.25,1.12,0,3.37,1.97,6.77,3.9,10.14,5.87.39.23.67.22,1.05,0,2.11-1.25,4.23-2.47,6.4-3.73.14.22.27.41.42.64-2.14,1.24-4.23,2.48-6.34,3.67-.46.26-.64.54-.63,1.08.02,3.69.02,7.39,0,11.08,0,.5.16.78.6,1.02,2.13,1.21,4.24,2.45,6.44,3.73ZM67.88,47.43c0-1.89-.01-3.79,0-5.68,0-.42-.13-.65-.49-.85-3.28-1.88-6.55-3.79-9.84-5.66-.25-.14-.72-.17-.96-.03-3.31,1.88-6.6,3.8-9.88,5.74-.22.13-.43.46-.44.7-.03,3.84-.03,7.68,0,11.51,0,.25.2.6.42.72,3.3,1.95,6.61,3.87,9.94,5.77.21.12.61.12.83,0,3.33-1.9,6.65-3.81,9.95-5.76.23-.13.43-.51.44-.78.04-1.89.02-3.79.02-5.68Z" fill="#000" stroke-width="0"/><path d="M109.58,116.08c-.16.25-.28.42-.41.64-2.49-1.44-4.96-2.84-7.39-4.29-.2-.12-.32-.52-.32-.78-.02-3.86-.02-7.73,0-11.59,0-.53-.16-.81-.62-1.08-3.21-1.82-6.4-3.66-9.58-5.53-.46-.27-.75-.22-1.15.08-1.9,1.43-3.83,2.83-5.75,4.24-.19.14-.39.27-.66.46-.45-.78-.88-1.52-1.35-2.33.72-.32,1.38-.62,2.04-.91,1.78-.78,3.55-1.57,5.33-2.33.36-.15.51-.33.51-.75-.02-3.82-.02-7.63,0-11.45,0-.46-.21-.64-.55-.83-3.32-1.91-6.64-3.84-9.97-5.74-.45-.26-.65-.53-.64-1.07.03-2.6.01-5.2.01-7.86.23-.02.43-.04.73-.08v1.49c0,1.99.01,3.99-.01,5.98,0,.49.13.77.58,1.02,3.31,1.88,6.6,3.81,9.91,5.7.53.3.74.62.74,1.24-.03,3.82,0,7.63-.03,11.45,0,.5.16.77.6,1.02,3.35,1.91,6.69,3.85,10.04,5.76.44.25.61.52.6,1.02-.02,3.82,0,7.63-.03,11.45,0,.63.21.95.74,1.24,2.2,1.24,4.37,2.52,6.63,3.83Z" fill="#000" stroke-width="0"/><path d="M102.59,26.25h.74c.02.18.07.34.07.5,0,2.45.03,4.91-.01,7.36-.01.66.21.99.77,1.3,1.7.93,3.36,1.92,5.09,2.91-.12.23-.21.41-.34.64-.26-.14-.5-.25-.72-.38-1.95-1.13-3.9-2.28-5.87-3.38-.25-.14-.72-.14-.96,0-3.29,1.87-6.56,3.78-9.84,5.66-.36.2-.51.43-.5.85.02,3.79.02,7.58,0,11.37,0,.43.15.65.51.85,1.94,1.1,3.87,2.23,5.8,3.35.23.13.45.27.72.43-.13.22-.23.4-.37.64-.91-.52-1.78-1.03-2.66-1.53-1.24-.72-2.5-1.41-3.71-2.17-.51-.32-.88-.28-1.38.02-1.78,1.08-3.6,2.11-5.4,3.16-.23.13-.46.25-.74.4-.13-.2-.24-.37-.37-.57.15-.11.25-.21.37-.28,1.97-1.15,3.93-2.31,5.92-3.44.39-.22.54-.46.54-.91-.02-3.77-.02-7.53,0-11.3,0-.45-.15-.69-.53-.91-2.06-1.18-4.11-2.38-6.21-3.6.12-.2.22-.38.36-.62,1.52.88,3.01,1.74,4.5,2.59.76.43,1.52,1.16,2.29,1.17.73.01,1.48-.73,2.22-1.15,2.27-1.31,4.53-2.63,6.82-3.91.48-.27.62-.56.61-1.09-.03-2.38-.01-4.76-.01-7.14v-.83h.77v7.99h1.55v-8Z" fill="#000" stroke-width="0"/><path d="M106.16,58.28c-.15-.24-.25-.43-.39-.65,2.1-1.23,4.17-2.45,6.25-3.63.46-.26.64-.53.63-1.07-.03-2.45-.01-4.9-.01-7.39h.73c0,1.96.04,3.89-.02,5.83-.02.71.21,1.07.82,1.4,2.37,1.31,4.72,2.69,7.14,4.08-.12.22-.22.42-.35.67-2.53-1.45-5.01-2.87-7.54-4.33-.06.57.07,1.19-.93,1.28,2.7,1.55,5.14,2.95,7.66,4.39-.11.22-.21.42-.34.67-2.22-1.27-4.43-2.43-6.53-3.77-1.04-.66-1.81-.7-2.83,0-1.33.92-2.79,1.65-4.28,2.5Z" fill="#000" stroke-width="0"/><path d="M78.08,58.89v4.94h-.84v-6.45c.83-.26,1.3,0,1.67.78.68,1.41,1.48,2.77,2.34,4.12v-4.92h.86v6.44c-.81.25-1.29.02-1.66-.76-.68-1.43-1.48-2.79-2.24-4.19-.04.01-.09.03-.13.04Z" fill="#000" stroke-width="0"/><path d="M78.08,33.07v4.94h-.85v-6.44c.82-.26,1.3,0,1.67.77.68,1.41,1.48,2.77,2.34,4.13v-4.92h.87v6.43c-.8.26-1.28.02-1.66-.75-.69-1.43-1.49-2.8-2.24-4.19-.04.01-.09.02-.13.03Z" fill="#000" stroke-width="0"/><path d="M111.61,39.51v4.91h-.82v-6.43c.81-.26,1.29-.02,1.66.75.68,1.41,1.48,2.77,2.34,4.35v-5.15c.33-.02.58-.03.87-.04v6.5c-.78.23-1.27.03-1.65-.75-.68-1.43-1.49-2.8-2.24-4.2-.05.02-.1.04-.16.06Z" fill="#000" stroke-width="0"/><path d="M104.42,63.81c-.84.23-1.31-.04-1.68-.81-.67-1.41-1.47-2.77-2.33-4.12v4.96c-.31.01-.57.03-.91.04v-6.48c.83-.25,1.32-.04,1.7.74.68,1.42,1.48,2.77,2.36,4.15v-4.94h.85v6.47Z" fill="#000" stroke-width="0"/><path d="M76.9,99.19c0-2.48,1.92-3.97,4.14-3.22,1.67.57,2.48,2.73,1.78,4.73-.58,1.65-2.35,2.44-4.04,1.79-1.21-.46-1.89-1.65-1.88-3.3ZM82.23,99.42c-.11-.56-.15-1-.29-1.41-.29-.91-1.06-1.46-1.96-1.46-.9,0-1.66.53-1.98,1.43-.32.9-.31,1.81.07,2.7.32.76.92,1.18,1.73,1.25.78.06,1.47-.21,1.85-.91.28-.52.4-1.12.57-1.6Z" fill="#000" stroke-width="0"/><path d="M127.37,60.65c0,2.49-1.91,3.97-4.13,3.22-1.4-.47-2.12-1.85-1.98-3.8.1-1.44,1.05-2.59,2.37-2.86,2.16-.44,3.76,1.03,3.75,3.45ZM122.04,60.6c.15.53.24,1.09.47,1.58.34.75,1.01,1.1,1.83,1.09.82,0,1.46-.38,1.81-1.13.49-1.04.49-2.12-.02-3.15-.44-.89-1.38-1.27-2.33-1.01-1.05.28-1.66,1.23-1.75,2.62Z" fill="#000" stroke-width="0"/><path d="M98.78,21.79c0-2.54,1.92-4.04,4.16-3.26,1.66.58,2.47,2.76,1.75,4.74-.59,1.64-2.37,2.42-4.05,1.76-1.19-.46-1.86-1.64-1.86-3.24ZM104.03,21.6c-.04-.21-.08-.62-.2-1.01-.28-.9-1.04-1.47-1.94-1.49-.91-.02-1.66.5-2,1.41-.32.87-.32,1.76.02,2.63.44,1.1,1.48,1.59,2.6,1.24.95-.3,1.52-1.26,1.52-2.76Z" fill="#000" stroke-width="0"/><path d="M98.78,73.57c0-2.54,1.92-4.04,4.16-3.27,1.66.57,2.47,2.76,1.76,4.74-.59,1.64-2.37,2.42-4.05,1.77-1.19-.46-1.86-1.64-1.86-3.24ZM104.03,73.54c-.01-1.27-.57-2.22-1.47-2.53-1.17-.4-2.33.18-2.72,1.37-.53,1.6.06,3.35,1.29,3.73.37.12.82.14,1.2.06,1.09-.23,1.71-1.23,1.69-2.64Z" fill="#000" stroke-width="0"/><path d="M116.14,92.83c0,2.54-1.92,4.04-4.16,3.26-1.66-.58-2.47-2.76-1.75-4.74.59-1.64,2.38-2.42,4.05-1.77,1.18.46,1.86,1.65,1.86,3.24ZM110.82,92.7c.11.56.16.97.29,1.36.29.9,1.06,1.45,1.96,1.46.91,0,1.66-.53,1.98-1.43.33-.93.3-1.86-.1-2.76-.32-.72-.92-1.12-1.71-1.18-.78-.06-1.48.22-1.85.91-.29.54-.41,1.17-.57,1.64Z" fill="#000" stroke-width="0"/><path d="M28.6,59.91h3.22v-2.56h.84v6.48h-.8v-3.11h-3.22v3.12h-.84v-6.48h.8v2.55Z" fill="#000" stroke-width="0"/><path d="M118.36,44.44h-.87v-6.5c.24-.01.49-.02.82-.04v2.59h3.19v-2.54h.87v6.48c-.24.01-.49.02-.82.04v-3.17h-3.19v3.14Z" fill="#000" stroke-width="0"/><path d="M107.08,73.7v3.12h-.81v-6.48h.8v2.53h3.22v-2.54h.83v6.48h-.8v-3.11h-3.24Z" fill="#000" stroke-width="0"/><path d="M121.55,118.89h-3.22v3.15h-.83v-6.49h.81v2.53h3.22v-2.54h.83v6.49h-.81v-3.14Z" fill="#000" stroke-width="0"/><path d="M122.38,89.54v6.53h-.81v-3.13h-3.22v3.13c-.3.01-.55.03-.85.04v-6.53h.8v2.54h3.22v-2.54c.3-.01.55-.03.86-.04Z" fill="#000" stroke-width="0"/><path d="M31.84,34.88h-3.19v3.13h-.87v-6.48c.25-.01.5-.02.83-.04v2.59h3.19v-2.55h.87v6.48c-.25.01-.5.02-.83.04v-3.18Z" fill="#000" stroke-width="0"/><path d="M70.39,96h.81v2.54h3.22v-2.54h.83v6.49h-.81v-3.11h-3.22v3.12h-.83v-6.5Z" fill="#000" stroke-width="0"/><path d="M34.2,35.38c.16-.26.26-.57.37-.57.66-.01,1.39-.1,1.98.12.9.33.9,1.4.11,2.19.74.69.91,1.24.56,1.89-.36.69-1.43,1-2.47.72-.36-.1-.75-.17-.54-.71.47.06.93.19,1.4.18.55-.01,1.14-.16,1.15-.85.01-.7-.56-.82-1.12-.87-.33-.03-.74.07-.55-.53.32-.05.68-.02.96-.16.24-.12.55-.44.54-.65-.01-.26-.3-.67-.53-.72-.53-.11-1.09-.03-1.87-.03Z" fill="#000" stroke-width="0"/><path d="M36.66,62.94c.74.69.91,1.24.56,1.89-.36.69-1.42,1-2.47.72q-.55-.15-.54-.71c.47.06.93.19,1.4.18.55,0,1.14-.16,1.15-.85.01-.7-.56-.82-1.12-.87-.33-.03-.74.08-.55-.53.32-.05.68-.02.96-.16.24-.12.55-.44.54-.65-.01-.26-.3-.68-.53-.72-.53-.11-1.09-.03-1.85-.03.18-.26.29-.58.43-.59.55-.06,1.12-.1,1.65.01.93.19,1.4,1.51.37,2.32Z" fill="#000" stroke-width="0"/><path d="M92.76,52.88c.12-.23.22-.41.36-.67,2.04,1.16,4.04,2.31,6.09,3.48-.13.22-.23.4-.38.65-2.03-1.16-4.03-2.31-6.07-3.47Z" fill="#000" stroke-width="0"/><path d="M88.51,41.95c-.14.25-.24.43-.37.66-1.95-1.11-3.86-2.2-5.83-3.33.11-.22.21-.42.34-.68,1.95,1.12,3.86,2.21,5.86,3.35Z" fill="#000" stroke-width="0"/><path d="M97.3,74.38c.43.74.86,1.49,1.32,2.28-.25.1-.46.19-.7.28-.34-.58-.63-1.13-.98-1.65-.33-.48-.18-.73.36-.92Z" fill="#000" stroke-width="0"/><path d="M108.47,93.77c.44.76.86,1.49,1.28,2.23-.42.41-.71.37-.95-.15-.19-.42-.42-.82-.68-1.2-.28-.41-.15-.66.34-.88Z" fill="#000" stroke-width="0"/><path d="M106.94,95.03c.33.57.64,1.11,1,1.73-.23.11-.43.2-.68.32-.23-.39-.41-.76-.65-1.09-.32-.44-.28-.74.33-.95Z" fill="#000" stroke-width="0"/><path d="M95.68,75.57c.39.65.72,1.2,1.05,1.75-.68.58-.66.39-1.57-1.25.14-.13.28-.27.52-.5Z" fill="#000" stroke-width="0"/><path d="M104.75,96.64c.2-.14.37-.26.6-.43.26.45.49.86.72,1.26-.75.59-.68.33-1.32-.83Z" fill="#000" stroke-width="0"/><path d="M93.57,77.27c.22-.17.39-.29.61-.45.24.44.45.84.71,1.32-.23.11-.43.2-.67.32-.21-.39-.41-.75-.64-1.18Z" fill="#000" stroke-width="0"/><path d="M104.24,98.2c-.58.49-.83.26-.99-.33.15-.11.31-.24.52-.39.17.26.31.48.47.72Z" fill="#000" stroke-width="0"/><path d="M92.59,78.05c.18.31.3.53.47.82-.25.1-.45.18-.69.28-.12-.22-.23-.4-.35-.62.18-.15.34-.29.57-.48Z" fill="#000" stroke-width="0"/><path d="M57.26,57.29c-.15.24-.26.42-.39.65-2.95-1.69-5.87-3.35-8.85-5.05.12-.22.22-.42.35-.67,2.96,1.69,5.88,3.36,8.89,5.07Z" fill="#000" stroke-width="0"/><path d="M56.87,36.88c.13.22.24.42.38.66-2.97,1.7-5.9,3.37-8.85,5.06-.13-.2-.25-.38-.41-.63,2.97-1.7,5.9-3.37,8.89-5.08Z" fill="#000" stroke-width="0"/><path d="M66.25,52.51c-.24-.01-.44-.02-.68-.03v-10.14c.21-.02.41-.04.68-.07v10.24Z" fill="#000" stroke-width="0"/></svg>