<?xml version="1.0" encoding="UTF-8"?><svg id="Layer_1" xmlns="http://www.w3.org/2000/svg" viewBox="0 0 144.57 144.57"><g id="g9625"><g id="g28"><path id="path30" d="M88.79,16.18c-.06-.03-.16,0-.23,0-.04,0-.08.04-.1.07-.22.3-.45.6-.52.98-.2,1.02-.38,2.04-.47,3.08,0,.06-.05.12-.12.26-.19-.46-.34-.85-.5-1.23-.16-.38-.33-.77-.63-1.07-.1-.1-.21-.21-.38-.13-.15.07-.2.21-.21.36,0,.1,0,.22.04.31.15.32.27.67.48.94.44.57.74,1.2,1.02,1.83q-.12.45-.28.57c-.25-.48-.49-.96-.76-1.43-.12-.21-.28-.41-.46-.59-.18-.18-.51-.16-.76,0-.19.12-.26.35-.18.61.04.12.1.23.16.33.12.17.24.34.38.5.5.54.8,1.22,1.23,1.8.11.15.06.31-.12.44-.16-.28-.33-.53-.46-.81-.22-.49-.62-.83-.95-1.23-.17-.2-.38-.2-.62-.06-.2.12-.29.27-.2.53.08.25.22.49.34.73.04.08.15.14.1.26-.19-.01-.36,0-.48.18-.12.19-.15.39-.08.6.03.1.08.19.13.28.19.32.37.65.57.97.31.49.65.96.98,1.45-.03.25-.09.51-.31.77-.06-.14-.08-.24-.13-.33-.16-.29-.31-.59-.49-.87-.2-.31-.43-.61-.66-.91-.11-.14-.25-.28-.4-.38-.22-.14-.48,0-.5.25-.04.43.05.81.35,1.15.3.34.55.73.82,1.1.19.27.36.56.57.81.14.17.18.32.11.51-.09.26-.19.51-.27.77-.24.75-.46,1.51-.7,2.27-.24.77-.5,1.55-.75,2.32-.2.61-.41,1.22-.62,1.83-.03.09-.04.21-.2.2-.4-.57-.8-1.15-1.21-1.72-.02-.03-.01-.08-.03-.15.5-.41.79-.98.93-1.62.05-.22.12-.44.18-.66.12-.48.24-.97.35-1.45.04-.18.06-.37-.07-.53-.16-.03-.24.06-.27.19-.11.59-.43,1.08-.71,1.59-.17.31-.35.62-.49.94-.12.28-.2.57-.33.94-.19-.35-.41-.59-.45-.91.14-.17.24-.34.38-.45.48-.41.71-.98.85-1.56.14-.59.32-1.16.49-1.74.01-.04.03-.08.02-.12-.01-.05-.04-.13-.08-.14-.04-.02-.14,0-.16.03-.08.12-.14.26-.19.39-.16.43-.35.84-.67,1.19-.27.3-.46.63-.52,1.05-.03.23-.11.47-.34.7-.07-.22-.12-.37-.16-.52-.04-.18-.07-.36-.1-.52.3-.34.3-.34.41-.72.12-.4.22-.81.47-1.15.4-.55.58-1.2.78-1.83.04-.14.06-.29.05-.43,0-.09-.07-.2-.14-.26-.11-.09-.26-.05-.34.05-.14.17-.29.36-.38.56-.38.85-.85,1.67-1.01,2.61-.01.07-.02.17-.14.15-.13-.3-.19-.58.06-.86.05-.05.06-.15.07-.23.06-.52.2-1.02.38-1.51.21-.61.42-1.22.63-1.83.04-.12.07-.24.08-.36,0-.18-.22-.31-.35-.19-.15.13-.32.28-.41.46-.19.37-.34.76-.51,1.14-.04.09-.05.21-.2.18-.16-.26-.14-.56-.13-.85.04-.98-.03-1.95-.04-2.93,0-.17-.02-.33-.14-.46-.11-.12-.3-.12-.35.04-.12.35-.28.71-.31,1.07-.06.73.03,1.45.18,2.17.14.65.31,1.29.45,1.93.02.07.06.16-.06.23-.04-.06-.09-.12-.13-.19-.23-.44-.48-.88-.67-1.34-.16-.39-.47-.56-.84-.68-.18-.06-.33-.01-.44.16,0,.05,0,.12,0,.18.06.53.35.92.72,1.28.27.26.5.56.78.8.31.26.38.68.68.95.11.1.12.3.03.46-.46-.21-1.1-.66-1.4-1.01-.28-.33-.65-.51-1.04-.66-.21-.08-.37.05-.39.27-.03.3.11.52.34.7.87.7,1.68,1.5,2.8,1.88.07.23.19.45.18.7-.23.03-.39-.06-.55-.17-.31-.21-.62-.42-.93-.62-.46-.3-.69-.27-1.16.16.17.39.44.68.86.84.29.11.57.26.86.37.27.1.55.2.83.27.42.1.43.09.52.64-.29-.02-.5-.2-.72-.34-.42-.27-.88-.2-1.33-.22-.13,0-.24.13-.23.25.01.34.13.62.47.74.73.28,1.44.66,2.21.66.32.53.63,1.03.91,1.53.16.29.35.58.42.9.1.42.1.87.13,1.3.03.38-.05.74-.22,1.09-.13.26-.25.53-.35.8-.64,1.65-1.27,3.3-1.91,4.95-.06.15-.13.28-.24.51-.06-.17-.09-.24-.1-.31-.14-.65-.22-1.31-.4-1.95-.22-.76-.18-.87.43-1.4.03-.03.06-.06.1-.08.38-.24.63-.6.87-.97.06-.09.1-.18.14-.28.06-.15.04-.29-.08-.4-.13-.12-.27-.11-.4-.03-.12.08-.24.16-.36.25-.36.29-.65.64-.88,1.05-.04.07-.05.21-.2.18-.09-.15-.15-.32-.04-.46.25-.31.39-.68.7-.95.28-.25.52-.53.78-.81.15-.17.31-.34.43-.53.17-.25.14-.54-.03-.68-.21-.18-.51-.18-.74.02-.11.09-.2.21-.28.33-.13.19-.23.39-.36.58-.26.39-.53.77-.84,1.14-.21-.22-.25-.41-.07-.63.06-.08.13-.18.13-.27.01-.3.19-.49.39-.68.12-.11.22-.25.32-.38.35-.49.69-.99,1.04-1.48.1-.14.19-.27.27-.42.14-.26.12-.37-.07-.56-.17-.17-.32-.18-.57-.04-.26.15-.46.36-.6.62-.19.32-.38.65-.55.98-.24.48-.51.96-.61,1.5-.02.09-.08.17-.14.3-.24-.25-.26-.56-.43-.83.18-.32.34-.66.54-.97.39-.59.79-1.17,1.2-1.75.18-.25.26-.52.3-.81.04-.33-.22-.5-.52-.39-.29.11-.48.34-.6.61-.29.64-.57,1.29-.84,1.95-.06.15-.07.33-.11.49-.02.09-.08.17-.13.29-.44-.43-.5-.88-.28-1.39.04-.09.09-.19.15-.27.19-.28.39-.54.56-.82.16-.27.29-.55.4-.84.08-.22.08-.45.01-.68-.05-.16-.2-.22-.35-.15-.23.12-.39.31-.49.54-.26.57-.5,1.14-.62,1.76-.02.09-.04.18-.08.31-.29-.36-.39-.69-.18-1.08.07-.12.09-.28.11-.42.05-.5.16-.98.32-1.46.05-.16.08-.32.12-.48.08-.33.11-.66.05-.99-.04-.21-.21-.35-.43-.39-.2-.03-.32.09-.41.23-.09.14-.16.3-.2.46-.09.36-.16.73-.24,1.1-.02.08-.05.16-.09.29-.16-.42-.31-.76-.42-1.11-.09-.3-.15-.6-.21-.91-.04-.22-.07-.45-.11-.68-.07-.35-.19-.68-.41-.97-.09-.11-.18-.24-.36-.2-.16.04-.24.16-.29.3-.02.08-.05.16-.06.24-.03.91.06,1.79.58,2.57.27.39.56.78.85,1.16.2.26.26.41.28.88-.1-.08-.18-.14-.26-.21-.34-.27-.67-.56-1.04-.79-.29-.19-.63-.32-.95-.46-.16-.07-.33-.03-.45.12-.12.15-.1.31-.01.47.05.09.11.18.18.25.57.52,1.18.99,1.95,1.18.16.04.33.05.49.11.15.06.31.13.43.23.2.18.29.45.37.9-.2,0-.35-.11-.49-.22-.5-.4-1.11-.56-1.71-.74-.29-.08-.42,0-.55.26-.17.34-.14.47.16.69.1.07.2.16.32.19.38.11.76.2,1.15.28.37.07.74.09,1.11.15.12.02.27.06.34.14.18.22.36.45.36.79-.15-.03-.27-.05-.39-.07-.61-.11-1.22-.22-1.84-.34-.17-.03-.33-.02-.48.07-.29.18-.31.49-.01.65.71.38,1.45.49,2.22.22.16-.05.31-.11.47-.14.07-.01.19.02.23.07.1.13.18.28.25.43.05.12.17.25.04.42-.27-.02-.5-.16-.74-.27-.36-.15-.72-.2-1.1-.15-.17.02-.34.07-.41.24-.07.2.05.37.18.5.07.07.17.12.26.16.35.15.72.19,1.1.09.22-.06.44-.13.66-.18.14-.03.31-.02.39.12.11.19.24.39.19.68-.16-.06-.29-.09-.42-.15-.34-.13-.69-.16-1.04-.13-.18.02-.31.11-.42.24-.13.16-.13.39.05.49.23.13.49.23.73.33.08.03.16.03.24.06.06.02.17,0,.16.12-.2.23-.55.29-.7.62.58.38,1.22.53,1.89.65.03.11.06.21.08.31.19.91.56,1.79.53,2.75,0,.12.03.25.07.37.08.3.01.57-.1.85-.51,1.28-.99,2.56-1.5,3.84-.15.39-.34.76-.53,1.13-.26.5-.55.98-.79,1.49-.5,1.05-.97,2.12-1.46,3.18-.17.38-.35.75-.53,1.13-.58,1.2-1.15,2.4-1.73,3.6-.04.07-.06.21-.24.16,0-.18,0-.37.01-.55.1-.89.14-1.78.1-2.68,0-.12,0-.25,0-.37.03-.93.15-1.87.06-2.8-.01-.15.02-.28.12-.41.37-.45.73-.9,1.1-1.37,1.13-.04,2.07-.39,2.64-1-.09-.16-.27-.17-.42-.22-.18-.05-.36-.08-.55-.11-.15-.02-.31.03-.54-.1.49-.16.88-.3,1.27-.42.4-.12.68-.38.9-.73.09-.15.12-.31.08-.48-.04-.18-.18-.29-.36-.26-.08.01-.17.03-.24.07-.4.24-.8.48-1.2.73-.07-.03-.14-.05-.2-.08.03-.33.2-.51.5-.58.2-.05.4-.12.59-.19.27-.1.55-.19.81-.32.37-.19.62-.48.74-.88.05-.16.03-.28-.11-.4-.25-.04-.48.03-.71.15-.42.23-.81.51-1.11.89-.06.07-.13.16-.26.07l.37-.81c.2.02.36-.02.5-.19.08-.11.21-.22.34-.25.29-.06.48-.24.65-.45.24-.28.5-.56.72-.86.12-.16.27-.32.25-.55-.02-.02-.03-.04-.05-.04-.06-.02-.12-.04-.18-.03-.61.05-1.12.3-1.53.74-.07.08-.12.23-.31.11.3-.6.49-1.23.85-1.8.22-.35.34-.76.38-1.18.01-.12,0-.25-.04-.37-.05-.17-.27-.22-.4-.09-.06.06-.11.13-.16.19-.26.36-.38.78-.45,1.22-.1.59-.16,1.2-.37,1.77-.02.06-.03.12-.07.17-.03.06-.02.17-.16.14,0-.1,0-.2,0-.3.03-.48.04-.96-.05-1.43-.04-.21-.17-.34-.31-.34-.19,0-.31.12-.4.26-.05.09-.08.19-.09.29-.03.33-.03.66-.05.99,0,.12.07.25-.07.35-.04-.05-.08-.09-.12-.14-.31-.31-.62-.24-.74.16-.07.25-.06.49,0,.74.17.58.28,1.18.54,1.73.23.5.19.91-.08,1.35-.01.02-.01.04-.02.06-.05.08-.08.19-.22.12.01-.08.03-.16.04-.25.1-.68-.05-1.32-.36-1.93-.06-.13-.16-.24-.27-.34-.13-.12-.42-.03-.47.14-.03.12-.02.25-.02.37.02.33.05.65.08,1.02-.17-.08-.3-.15-.43-.19-.14-.05-.33.05-.33.2,0,.18,0,.38.05.55.15.39.33.76.5,1.14.09.21.19.41.28.62.08.18.08.36-.04.53-.22.32-.42.65-.73.94-.03-.08-.08-.13-.08-.18-.05-.85-.1-1.7-.15-2.55,0-.14-.02-.29-.07-.43-.19-.64-.38-1.28-.59-1.9-.13-.37-.14-.73-.08-1.1.03-.22.15-.34.33-.4.14-.05.28-.08.42-.12.41-.12.75-.35,1.08-.61.11-.09.14-.2.03-.36-.14-.02-.3-.05-.46-.05-.16,0-.33.03-.49.05-.15.02-.27.17-.53.14.15-.13.23-.22.33-.28.31-.18.65-.26,1.01-.32.22-.04.46-.07.66-.16.16-.07.3-.21.43-.34.09-.09.05-.25-.06-.33-.22-.16-.45-.21-.71-.13-.17.05-.35.11-.54.17.02-.31.17-.45.43-.5.39-.07.78-.13,1.17-.19.28-.04.51-.17.7-.38.2-.21.14-.44-.12-.54-.14-.05-.32,0-.44-.13.27-.24.52-.46.76-.69.14-.14.14-.32.04-.45-.12-.16-.32-.22-.5-.11-.23.14-.45.29-.68.44-.08.05-.17.1-.26.15-.09-.23,0-.4.08-.57.27-.59.4-1.22.55-1.85.03-.14.04-.29.03-.43-.01-.13-.07-.26-.21-.27-.11,0-.26.02-.34.09-.26.21-.36.5-.37.83-.02.54-.04,1.08-.06,1.62,0,.24-.04.47-.24.7-.09-.29-.02-.51,0-.74.04-.42.02-.83-.1-1.24-.04-.12-.09-.27-.23-.25-.11.01-.23.09-.3.18-.15.18-.2.41-.2.64,0,.23,0,.45,0,.68-.55.1-.64.2-.63.72,0,.02,0,.04,0,.06.04.41.09.83.13,1.24,0,.05-.01.11-.02.19-.28-.13-.33-.44-.56-.58-.14.02-.17.11-.15.22.08.41.17.81.25,1.22.05.24.18.5.13.73-.05.25-.26.46-.4.69-.06.11-.12.22-.18.33-.04.06-.1.11-.18.2-.23-.62-.46-1.17-.64-1.74-.07-.22-.06-.51.03-.72.23-.55.53-1.08.79-1.62.13-.26.23-.53.33-.81.04-.1.02-.23.02-.37-.28-.03-.44.11-.6.23-.15.11-.27.26-.41.38-.14.13-.18.37-.49.47.08-.2.11-.34.18-.45.17-.26.36-.51.53-.77.12-.19.25-.39.34-.59.1-.23.16-.47.21-.71.03-.14.04-.31-.1-.4-.15-.09-.28,0-.39.09-.05.04-.09.09-.14.13-.47.4-.76.93-1.05,1.46-.06.1-.12.2-.18.3.17-.61.37-1.2.73-1.71.31-.44.45-.93.41-1.47-.01-.14-.16-.22-.28-.15-.28.16-.49.38-.64.67-.08.17-.16.34-.25.5-.04.07-.12.12-.22.21.04-.48.22-.83.41-1.18.25-.48.46-.98.68-1.47.08-.18.08-.37-.04-.54-.11-.16-.24-.28-.46-.24-.04.05-.1.09-.12.14-.22.56-.44,1.12-.66,1.68-.07.17-.13.34-.19.5-.03-.04-.07-.08-.09-.12-.09-.29-.03-.58.02-.87.12-.74.29-1.47.39-2.21.06-.39.03-.79.02-1.18,0-.22-.19-.39-.39-.42-.19-.03-.3.11-.41.24-.04.05-.07.1-.09.16-.09.34-.25.68-.25,1.03.01.83-.04,1.67.3,2.46.26.62.21,1.27.22,2.01-.51-.96-.91-1.85-1.2-2.78-.03-.1-.06-.2-.11-.29-.13-.25-.47-.25-.61-.01-.03.05-.05.11-.06.17-.1.61-.12,1.2.32,1.71.14.17.33.32.34.57-.42.1-.49.42-.52.77-.03.32.08.56.35.75.19.13.37.27.53.43.37.37.77.7,1.22.96.08.04.12.14.21.25-.27.03-.4-.12-.54-.22-.19-.12-.37-.27-.57-.38-.22-.13-.39-.09-.56.09-.15.17-.2.39-.07.57.11.15.25.28.41.37.16.1.35.14.52.2.19.07.37.16.52.38-.11.05-.18.07-.24.11-.1.06-.22.12-.3.21-.16.19-.08.43.16.48.12.03.25.03.37.05.28.06.58.1.82.31.11.32.22.66.33,1,.11.35.34.66.26,1.09-.7-.21-1.18-.58-1.36-1.32-.07-.27-.24-.53-.38-.78-.08-.14-.2-.29-.4-.22-.19.06-.21.24-.25.4-.02.1,0,.21-.01.31,0,.08.09.19-.06.25-.03-.06-.07-.11-.09-.17-.09-.41-.18-.81-.25-1.22-.06-.38-.23-.71-.4-1.04-.06-.11-.27-.15-.32-.06-.12.21-.26.43-.32.67-.06.23-.07.49.11.7-.14.01-.26-.02-.26-.18-.01-.27-.02-.54,0-.81.02-.54-.01-1.08-.14-1.61-.04-.16-.08-.33-.27-.43-.61.23-.55.85-.73,1.34-.2-.2-.28-.43-.31-.68-.03-.29-.06-.58-.1-.87-.04-.3-.17-.56-.42-.74-.15-.11-.33-.05-.4.13-.01.04-.02.08-.03.12-.13.45-.01.87.23,1.25.22.35.48.68.71,1.03.05.08.13.18-.05.27-.13-.11-.28-.22-.4-.35-.22-.23-.46-.24-.74-.11-.31.15-.37.41-.11.64.4.36.82.7,1.37.84.24.06.48.15.71.25.08.04.14.14.26.27-.2,0-.32.03-.44,0-.39-.08-.63.16-.87.39-.21.2-.16.48.1.62.09.05.19.08.29.11.33.09.66.09.99.02.2-.05.41-.09.61-.12.02,0,.06.04.1.07-.13.13-.26.25-.38.37.03.09.03.16.07.21.2.3.5.37.82.3.31-.06.6-.16.91-.24.25-.06.49-.09.73.05.4.22.8.44,1.21.65.39.2.65.52.78.93.18.58.35,1.16.51,1.74.08.3.11.61.07.93-.02.18,0,.37.02.56.12.93.15,1.87.16,2.8,0,.09.03.21-.11.25-.03-.03-.06-.06-.09-.09-.29-.46-.58-.91-.85-1.38-.17-.3-.2-.61,0-.94.36-.59.31-1.23.21-1.88,0-.04-.03-.08-.05-.12-.09-.18-.33-.23-.48-.09-.08.07-.14.15-.2.23-.17.22-.2.5-.27.76-.03.09.04.26-.19.29.02-.34.05-.67.07-1,.02-.4.02-.8-.16-1.16-.04-.08-.14-.17-.22-.18-.08,0-.19.07-.25.14-.05.05-.08.14-.1.22-.2.66-.38,1.33-.08,2.01,0,.02.01.04,0,.06-.01.04-.03.07-.06.13-.12-.07-.25-.14-.35-.2-.15-.4-.2-.78-.09-1.17.06-.22.1-.45.12-.68.04-.48.09-.95.09-1.43,0-.36-.39-.54-.67-.32-.12.1-.23.25-.28.39-.06.15-.05.33-.06.49-.01.57.08,1.12.22,1.67.04.18.08.35.15.64-.15-.11-.23-.14-.26-.19-.28-.6-.67-1.15-.8-1.82-.06-.32-.2-.64-.3-.95-.03-.08-.05-.16-.09-.23-.1-.17-.32-.27-.54-.23-.19.03-.28.16-.33.33-.08.27-.05.53.03.8.05.15.08.3.16.57-.2-.16-.33-.23-.42-.34-.34-.39-.69-.78-1.01-1.19-.21-.27-.46-.48-.72-.69-.13-.1-.27-.09-.41-.01-.14.07-.23.21-.21.36.02.16.06.34.15.47.33.45.66.9,1.19,1.17.31.16.6.37.91.55.02.01.04.03.04.04,0,.01,0,.03-.02.08-.11,0-.23-.01-.34-.02-.39-.04-.78-.09-1.18-.12-.25-.01-.36.21-.23.43.1.17.24.29.43.35.36.11.71.23,1.08.32.44.11.9.15,1.36.14.13,0,.25.03.26.24-.12.05-.25.09-.38.14-.17.07-.35.13-.52.21-.12.06-.18.19-.13.32.03.08.12.18.2.2.18.05.37.1.55.08.58-.06,1.15-.16,1.72-.24.29-.04.59.13.78.45-.21.07-.42.01-.61-.04-.43-.11-.78.05-1.11.28-.22.16-.31.34-.24.46.09.18.27.19.44.19.46-.01.91-.05,1.35-.19.27-.09.54-.23.83-.2.14.11.25.22.23.41q-1.23-.05-1.52.22c.02.22.18.32.36.38.17.06.36.08.55.11.18.03.37.08.55.06.18-.01.35-.09.56-.14.28.42.55.81.8,1.22.1.16.12.37.24.5.2.21.22.42.2.68-.03.31-.03.62-.04.94-.04.71-.08,1.41-.13,2.12-.06.87-.17,1.74-.21,2.61-.05,1.12-.16,2.24-.37,3.34-.04.2-.07.41-.28.56-.11-.02-.23-.02-.35-.07-.68-.27-1.42-.33-2.08-.66-.09-.04-.2-.06-.3-.07-.44-.01-.87-.04-1.31-.01-.53.03-1.04.21-1.44.55-.86.74-1.52,1.66-2.04,2.66-.32.61-.58,1.25-.82,1.89-.3.78-.57,1.57-.82,2.36-.16.52-.4,1-.64,1.49-.24.48-.48.97-.67,1.48-.25.66-.47,1.33-.65,2.02-.28,1.04-.54,2.09-.77,3.15-.17.77-.31,1.55-.2,2.35.02.13-.06.28-.12.4-.22.45-.46.89-.68,1.33-.18.35-.32.73-.52,1.06-.52.87-.86,1.8-.93,2.82,0,.08-.02.17-.03.25-.16.86-.39,1.7-.8,2.48-.08.15-.14.3-.18.46-.18.61-.46,1.21-.31,1.88.02.09-.05.2-.09.29-.49,1.26-.96,2.53-1.23,3.86-.18.9-.37,1.79-.57,2.68-.08.36-.1.73-.36,1.05-.12.14-.19.41-.16.59.07.39-.11.68-.26,1-.16.34-.31.68-.46,1.02-.39.83-.68,1.7-.99,2.56-.32.88-.58,1.79-.62,2.73-.02.47-.1.9-.29,1.33-.1.22-.19.5-.14.72.08.4-.06.69-.28.98-.24.32-.4.68-.49,1.07-.07.32-.15.65-.25.97-.18.62-.33,1.26-.58,1.84-.41.96-.83,1.9-1.21,2.88-.51,1.31-.8,2.67-.97,4.06-.13,1.1-.5,2.1-1.06,3.04-.18.3-.45.54-.68.81-.05.06-.12.11-.18.18-.08.1-.07.23.03.33.1.1.25.13.34.05.21-.2.41-.41.61-.63.13-.14.21-.31.36-.43.34-.28.61-.63.85-.99.36-.54.69-1.09,1.05-1.62.22-.33.43-.67.72-.94.49-.46.98-.9,1.34-1.47.04-.07.11-.12.17-.18.54-.48.94-1.06,1.22-1.72.17-.4.42-.71.76-.97.3-.23.55-.51.75-.83.42-.69.84-1.39,1.26-2.08.11-.17.21-.39.37-.49.54-.33.81-.89,1.2-1.34.07-.08.11-.18.15-.27.32-.88.71-1.73.97-2.63.09-.32.25-.61.48-.86.18-.2.36-.42.45-.67.21-.62.58-1.15.88-1.72.39-.74.83-1.43,1.43-2.03.49-.49.89-1.05,1.18-1.67.6-1.28,1.21-2.56,1.76-3.86.22-.52.52-.94.94-1.29.12-.1.25-.23.32-.37.33-.65.71-1.27.92-1.98.05-.18.14-.35.23-.51.5-.91.99-1.83,1.6-2.68.18-.25.34-.52.5-.79.31-.54.59-1.1.93-1.62.48-.75.85-1.57,1.29-2.34.11-.2.24-.4.4-.54.53-.46.91-1.01,1.18-1.66.3-.71.63-1.4,1.05-2.06.32-.5.65-1.02.86-1.59.16-.43.35-.85.55-1.26.33-.67.66-1.34.91-2.05.06-.17.18-.33.32-.45.54-.49,1.03-1.02,1.34-1.7.02-.04.05-.07.07-.1.34-.52.67-1.05.93-1.62.45-.99.83-2,1-3.07.14-.87.11-1.74-.35-2.54-.06-.11-.13-.21-.17-.33-.14-.42-.45-.69-.77-.96-.36-.31-.72-.62-1.14-.86-.43-.25-.85-.51-1.28-.77-.08-.05-.16-.1-.28-.18.23-.19.44-.33.61-.5.57-.58,1.16-1.13,1.74-1.7.82-.8,1.59-1.65,2.49-2.35,1.03-.81,1.92-1.78,2.98-2.56,1.07-.79,2.09-1.64,3.15-2.45.28-.21.59-.38.88-.57.35.08.67.15.92.39.05.42.04.8-.16,1.17-.14.25-.12.52-.13.79,0,.17.09.27.23.34.15.07.28.04.41-.06.24-.18.32-.43.29-.72-.04-.33-.11-.66-.17-.98-.02-.11-.1-.23,0-.34.49.09.51.1.54.51.01.23,0,.46-.02.68-.06.45.06.87.18,1.29.08.28.42.44.7.36.19-.05.27-.19.23-.51-.06-.51-.07-1.04-.36-1.5-.04-.06-.04-.15-.07-.25.19-.01.29.04.36.2.19.45.24.96.51,1.38.15.24.3.49.32.8,0,.14.15.29.26.41.16.18.37.17.57.09.23-.09.37-.31.34-.54-.04-.27-.11-.53-.29-.75-.3-.37-.55-.79-.94-1.08-.06-.04-.1-.11-.15-.18.07-.04.11-.08.13-.07.41.19.8.44,1.13.75.12.11.22.26.27.41.11.33.34.58.56.82.28.3.63.53,1.04.65.03-.07.07-.13.07-.19.02-.22-.07-.4-.19-.58-.13-.2-.25-.41-.25-.7.14.04.24.05.34.09.57.21,1.13.41,1.69.64.47.19.93.18,1.4.03.23-.07.31-.29.18-.49-.06-.09-.13-.17-.21-.23-.25-.2-.53-.31-.85-.36-.74-.12-1.49-.16-2.24-.13-.51.02-.94-.11-1.36-.36-.06-.04-.1-.11-.18-.19.11-.05.18-.11.26-.11.25-.02.5-.01.75-.03.37-.02.75-.03,1.12-.09.24-.04.47-.16.69-.27.15-.08.27-.22.21-.41-.05-.16-.19-.21-.35-.22-.1,0-.21-.02-.31-.02-.37.03-.75.06-1.12.1-.3.03-.55.14-.79.33-.28.21-.55.45-.89.54-.63-.27-.66-.29-.86-.54.27-.18.57-.23.88-.29.2-.04.41-.07.61-.12.49-.12.95-.29,1.31-.69.07.06.13.11.19.17.26.22.42.21.65.01.15-.13.22-.3.22-.5,0-.23-.04-.46-.04-.68,0-.27-.03-.54-.16-.78-.05-.1-.04-.23-.06-.37.37.09.57.33.8.52-.05.25-.1.47-.12.7-.03.33-.05.66-.04.99,0,.35.21.63.43.87.15.16.5.11.52-.08.07-.57.26-1.15-.25-1.64-.13-.13-.19-.31-.06-.52.31.07.48.32.71.47q-.15.5-.02.93c.05.18.14.36.16.54.06.49.39.81.68,1.17.11.14.29.15.45.07.15-.08.2-.21.19-.36-.01-.23-.07-.44-.2-.64-.18-.28-.33-.58-.49-.87-.03-.06-.03-.13-.07-.34.26.25.41.4.58.56.4-.14.76-.05,1.11.19.35.23.73.4,1.09.6.22.12.44.09.67.02.17-.06.25-.23.18-.4-.09-.24-.24-.44-.47-.56-.46-.25-.95-.43-1.49-.37-.27.03-.54,0-.81,0-.39,0-.63-.23-.82-.56.3-.07.56-.05.83.03.4.13.79.03,1.13-.18.29-.18.28-.55-.03-.7-.16-.08-.35-.11-.54-.13-.43-.05-.82.11-1.21.25-.25.09-.49.24-.8.25-.17-.21-.44-.34-.58-.66.2.02.36.02.52.04.34.04.67,0,.99-.09.14-.04.28-.1.4-.17.26-.16.24-.53-.05-.65-.15-.06-.32-.08-.48-.08-.18,0-.37.03-.54.05-.03-.03-.05-.05-.05-.06-.01-.04-.02-.08-.03-.12-.06-.35-.15-.43-.48-.39-.47.06-.95.13-1.36.4-.09.06-.23.1-.34.08-.1-.01-.24-.06-.26-.25.76-.19,1.52-.38,2.28-.56.4-.09.82-.15,1.23-.22.19-.03.33.04.41.21.2.41.4.82.59,1.23.13.3.32.53.64.64.1.03.19.08.28.13.21.12.45.2.63,0,.18-.19.07-.43-.03-.64,0-.02-.02-.04-.03-.06-.28-.42-.58-.82-1.01-1.09-.11-.07-.21-.13-.31-.21-.08-.07-.23-.09-.23-.27.26-.09.53-.07.8-.06.07.08.16.15.2.25.2.47.55.83.84,1.24.44.6.99.77,1.7.54.09-.3-.01-.56-.23-.78-.29-.31-.63-.54-1.02-.71-.26-.12-.51-.25-.65-.53.34-.16.59-.06.83.13.16.13.3.32.49.38.33.12.59.31.81.56.47.55,1.1.51,1.73.47.1,0,.19-.1.17-.22-.02-.12-.03-.26-.1-.35-.23-.3-.5-.54-.89-.64-.48-.12-.95-.28-1.42-.43.34-.06.67-.04.99-.03.35.01.7.02,1.06.01.56,0,1.12.04,1.68-.09.13-.03.27-.08.27-.22,0-.11-.06-.25-.14-.33-.08-.09-.21-.14-.32-.18-.38-.13-.77-.2-1.17-.13-.43.07-.86.16-1.29.26-.52.12-1.03.25-1.54.37.24-.18.5-.3.75-.42.47-.23.94-.45,1.39-.7.21-.12.4-.29.58-.46.06-.06.07-.19.05-.28-.01-.05-.14-.1-.21-.09-.22.03-.45.07-.66.16-.59.25-1.16.56-1.68.96-.31.24-.65.45-.97.68-.19.14-.4.22-.64.21-.08,0-.17.02-.19-.13.12-.08.26-.18.4-.27.53-.33,1.07-.65,1.59-.99.22-.15.42-.34.61-.53.13-.13.04-.34-.15-.38-.1-.02-.21-.04-.31,0-.22.06-.43.15-.64.24-.18.08-.33.23-.5.29-.06-.05-.09-.08-.12-.1.2-.11.19-.3.18-.49,0-.21-.18-.34-.38-.3-.21.04-.38.16-.53.3-.2.18-.39.36-.59.54-.38-.5-.41-.53-1.03-.6-.33-.04-.66-.03-.99-.05-.07,0-.17.03-.17-.14.47-.13.91-.36,1.41-.41.67-.07,1.29-.31,1.9-.58.11-.05.22-.11.32-.19.12-.09.11-.28.01-.39-.16-.18-.35-.21-.57-.15-.48.13-.96.26-1.38.56-.22.16-.44.32-.66.47-.24.16-.34.18-.69.14.2-.18.39-.34.56-.51.13-.13.26-.27.36-.42.08-.12.12-.27-.02-.42-.06,0-.14-.01-.22,0-.26.07-.5.19-.71.37-.36.32-.71.64-.89,1.1-.11.27-.28.51-.57.63-.11.05-.2.02-.27-.07-.01.05-.02.09-.03.14,0-.05.02-.09.02-.14.05-.03.12-.04.16-.08.26-.27.54-.52.76-.82.22-.29.31-.63.11-.99-.34-.04-.51.18-.67.39-.4.53-.81,1.07-.95,1.74-.1.46-.4.76-.75,1.03-.04.03-.14,0-.24,0,.05-.14.08-.24.12-.34.17-.38.35-.76.53-1.13.09-.19.16-.39.11-.6-.04-.2-.26-.3-.43-.19-.08.06-.17.13-.23.21-.16.22-.25.47-.29.75-.07.58-.16,1.15-.25,1.78.03.05.08.16.13.27-.09.14-.17.26-.24.38-.21.38-.48.67-.95.7-.14.01-.28.07-.42.13-.9.38-1.81.73-2.69,1.17-.91.45-1.75,1.05-2.57,1.65-.08.06-.16.14-.29.04.16-.44.33-.89.5-1.33.06-.16.18-.27.35-.34.46-.19.93-.35,1.45-.31.43.04.82-.11,1.16-.38.08-.06.15-.15.2-.23.07-.13-.03-.32-.17-.34-.08-.01-.17-.01-.25,0-.59.13-1.18.27-1.76.4-.09.02-.19.04-.33.07.1-.27.14-.52.39-.59.49-.15.97-.35,1.51-.35.6,0,1.12-.28,1.62-.6.11-.07.18-.18.15-.32-.03-.15-.12-.28-.29-.29-.25,0-.51-.03-.74.04-.42.11-.82.29-1.23.44-.12.04-.24.08-.41.13.63-.93,1.34-1.38,2.31-1.7.56-.18,1.11-.43,1.76-.28-.1.33-.32.41-.57.45-.66.12-1.31.24-1.96.36-.07.01-.14.06-.22.1.12.17.26.17.41.14.65-.13,1.3-.26,1.95-.4.23-.05.43-.16.58-.35.06-.08.11-.18.13-.27.04-.21-.1-.38-.31-.36-.37.04-.74.1-1.11.16-.15.02-.3.07-.46.1.12-.2.3-.3.42-.46.29-.36.67-.55,1.09-.68.33-.11.58-.32.8-.58.17-.21.32-.44.46-.67.04-.07.04-.22,0-.28-.05-.07-.18-.1-.27-.1-.27.02-.54.09-.74.29-.27.26-.54.52-.78.8-.35.41-.62.88-1.13,1.13-.02,0-.03.03-.05.04-.33.28-.66.57-1,.84-.04.03-.11.03-.24.06.08-.12.11-.19.16-.25.4-.51.79-1.02,1.2-1.52.15-.19.25-.38.22-.63-.03-.2-.23-.33-.41-.26-.09.04-.19.09-.27.16-.33.29-.61.62-.76,1.05-.1.3-.19.59-.3.89-.07.19-.15.39-.26.56-.16.25-.33.47-.38.78,0,.06-.07.2-.21.13.11-.23.21-.46.31-.69.13-.3.13-.61.04-.92-.05-.17-.24-.25-.4-.16-.25.13-.4.35-.54.59-.41.75-.46,1.59-.53,2.42-.04.46-.23.82-.53,1.15,0,0-.04,0-.09,0,0-.08.01-.16.02-.24.07-.52.14-1.03.2-1.55.03-.27.02-.54-.14-.78-.17-.27-.5-.25-.65.03-.03.05-.06.11-.07.17-.09.49-.18.99-.03,1.48.14.48.32.94.49,1.45-.25.61-.52,1.27-.78,1.92-.1.23-.21.43-.44.59-.91.62-1.81,1.26-2.7,1.91-.79.57-1.57,1.17-2.35,1.75-.1.07-.2.15-.28.24-.51.55-1.08,1.04-1.65,1.52-.76.64-1.47,1.35-2.2,2.03-.12.11-.25.22-.38.33-.12.1-.21.24-.41.27,0-.26.11-.46.21-.67.24-.46.45-.93.73-1.37.42-.67.73-1.4,1.11-2.09.26-.47.5-.96.81-1.4.55-.78,1.15-1.53,1.74-2.28.41-.52.9-.99,1.28-1.53.58-.83,1.37-1.45,2.07-2.15.59-.58,1.2-1.15,1.78-1.74.12-.12.24-.24.37-.33,1.03-.74,2.06-1.48,3.03-2.29.7-.58,1.42-1.15,2.13-1.73.42-.35.82-.71,1.21-1.08.19-.18.37-.29.66-.22.26.05.54,0,.81,0,.21,0,.41.01.63.02.09.27.18.5.25.73.14.43.46.62.87.71.16.03.28-.02.38-.15.09-.11.09-.24.02-.35-.13-.21-.28-.41-.42-.62-.08-.11-.23-.18-.19-.36.3-.02.31-.02.41.15.15.23.27.47.42.69.25.39.64.59,1.07.7.2.05.41.04.57-.1.06-.4-.08-.67-.38-.88-.2-.14-.4-.3-.6-.45-.06-.05-.09-.12-.14-.2.32-.13.55-.09.74.16.12.14.25.29.41.38.25.14.44.31.58.55.38.63.99.69,1.64.67.18,0,.29-.21.2-.37-.05-.09-.11-.17-.18-.24-.45-.44-1-.75-1.59-.97-.13-.05-.29-.05-.33-.28.31-.15.63-.12.86-.1.22.16.36.27.51.38.21.14.43.26.63.41.47.36,1.03.41,1.57.55.06.02.13,0,.19,0,.38-.05.49-.28.31-.61-.14-.26-.34-.42-.63-.45-.1-.01-.21-.02-.31-.04-.32-.07-.65-.11-.98-.31.4-.3.84-.4,1.29-.47.56-.08,1.12-.12,1.67-.22.34-.06.68-.19,1-.33.3-.13.29-.47,0-.63-.11-.06-.23-.09-.35-.1-.16,0-.34.01-.49.05-.54.14-1.09.27-1.57.58-.23.15-.47.26-.71.39-.3.16-.85.23-1.39.15.33-.14.59-.26.85-.36.45-.18.83-.47,1.15-.83.2-.24.27-.48.14-.62-.17-.18-.41-.14-.58-.05-.73.36-1.4.8-1.86,1.49.16.05.25-.08.36-.16.39-.3.79-.61,1.18-.9.18-.14.37-.26.65-.16-.05.12-.08.25-.16.33-.17.17-.36.36-.57.48-.5.29-1.03.51-1.59.67h.01c-.31.12-.62.24-.93.36-.18.06-.36.07-.53-.06.05-.06.07-.13.12-.16.36-.24.73-.47,1.09-.72.26-.17.52-.34.75-.55.2-.18.35-.42.35-.71,0-.17-.15-.3-.32-.31-.2,0-.37.06-.52.19-.6.51-1.2,1.03-1.6,1.73-.12.21-.28.41-.4.6-.19,0-.34.01-.48.02-.16,0-.33.05-.48-.08.05-.06.08-.12.12-.16.46-.42.93-.83,1.38-1.26.22-.21.42-.46.62-.7.12-.15.17-.33.05-.52-.19-.11-.36-.03-.51.09-.15.11-.29.24-.43.36-.03.02-.07.01-.12.02-.03-.05-.06-.1-.1-.15-.04-.04-.09-.07-.14-.12-1.2.56-2.05,1.48-2.68,2.57-.78.12-.8.12-1.2-.04.41-.43.81-.85,1.21-1.26.44-.44.91-.86,1.32-1.32.67-.74,1.32-1.5,1.95-2.28.23-.29.51-.49.84-.6.47-.16.96-.26,1.46.02.02.09.05.19.07.29.03.27.05.54.08.81.04.39.26.65.59.83.18.09.37.11.53,0,.16-.12.21-.31.18-.5-.04-.27-.17-.51-.36-.71-.13-.14-.27-.27-.38-.41-.06-.07-.07-.18-.11-.27.45-.16.67.1.85.39.2.32.35.66.53.99.06.11.13.23.23.29.26.17.55.3.87.33.22.02.41-.04.57-.19.11-.1.13-.29.03-.4-.13-.14-.26-.27-.41-.38-.42-.33-.85-.64-1.3-.98.1-.02.19-.06.26-.04.41.14.83.29,1.14.62.11.12.24.24.38.31.32.16.64.3.97.43.28.11.56.1.86-.04-.1-.49-.27-.89-.78-1.04-.2-.06-.4-.1-.6-.15-.08-.02-.2,0-.22-.15.27-.09.54-.08.81-.07.73.02,1.45.04,2.18-.05.22-.03.4-.09.55-.26.19-.22.13-.51-.13-.61-.15-.06-.32-.1-.48-.09-.27.01-.54.04-.8.12-.36.11-.71.25-1.05.4-.7.31-1.4.28-2.15.02.08-.07.11-.13.16-.14.93-.21,1.75-.66,2.53-1.18.09-.06.16-.13.23-.21.09-.1.13-.23.06-.35-.05-.08-.15-.14-.24-.17-.26-.07-.49.03-.72.14-.47.23-.9.53-1.3.86-.24.2-.48.4-.73.58-.06.05-.17.04-.26.05.08-.08.16-.17.25-.22.55-.34.9-.85,1.22-1.39.03-.06.04-.17,0-.23-.04-.05-.14-.09-.21-.08-.29.03-.57.11-.8.31-.51.46-1.04.89-1.42,1.48-.09.14-.21.25-.31.36-.21-.05-.43.04-.59-.17.07-.06.11-.11.17-.13.57-.25.98-.69,1.39-1.14.11-.12.18-.28.25-.43.03-.08,0-.18,0-.32-.19.04-.33.04-.46.09-.49.18-.84.52-1.13.94-.15.22-.3.45-.45.67-.12.19-.29.3-.51.33-.3.04-.61.05-1,.08.47-.6.91-1.12,1.31-1.66.42-.57.8-1.16,1.2-1.74.23-.02.43-.05.64-.05.33,0,.66.01,1,.01.42,0,.82-.1,1.16-.38.16-.14.16-.24,0-.42-.04-.04-.1-.06-.15-.09.04-.19.22-.17.34-.21.45-.17.88-.38,1.24-.71.21-.19.15-.45-.13-.51-.2-.04-.41-.04-.62-.02-.31.03-.62.1-.92.15-.07.01-.17.07-.21-.06.26-.27.61-.34.95-.41.51-.1.91-.4,1.31-.69.08-.06.15-.14.21-.23.1-.14,0-.37-.18-.38-.16-.01-.33,0-.5.02-.65.09-1.24.36-1.79.7-.17.11-.34.22-.62.39.1-.22.13-.34.2-.42.14-.18.31-.33.46-.51.38-.47.72-.97,1.13-1.41.41-.44.65-.96.94-1.47.04-.07.05-.16.06-.24.02-.2-.19-.37-.37-.29-.07.03-.14.09-.21.13-.67.44-1.08,1.08-1.4,1.79-.14.32-.27.66-.44.96-.42.73-.86,1.44-1.3,2.16-.02-.22,0-.43.06-.62.27-.92.56-1.83.83-2.75.07-.26.11-.53.14-.8,0-.06-.05-.17-.1-.2-.06-.03-.17-.03-.23,0-.1.06-.2.15-.27.25-.53.79-.89,1.65-.85,2.63.01.31.02.62,0,.94,0,.2-.04.41-.1.61-.07.22-.15.43-.08.67.02.09-.02.21-.07.29-.15.24-.32.47-.68.71,0-.13.01-.19.02-.25.06-.77.12-1.53.18-2.3.02-.29.06-.58.08-.87,0-.1.02-.21,0-.31-.01-.13-.06-.24-.19-.3-.14-.06-.36-.02-.45.12-.08.12-.15.26-.17.39-.04.22-.06.46-.04.68.07,1.08.16,2.15.24,3.31-1.07,1.18-2.11,2.48-3.29,3.65-.05.05-.11.13-.24.06,0-.16-.03-.34-.02-.52,0-.23.03-.45.05-.68.15-.09.28-.15.39-.24.32-.24.64-.47.93-.73.15-.13.25-.33.33-.52.1-.21-.03-.37-.27-.35-.2.02-.24.05-.49.16-.02.04-.23.14-.25.18,0-.01-.02-.03-.02-.03.02-.02.05-.05.08-.07.07-.08.14-.17.43-.42.29-.25.69-.64,1.07-1.05.12-.13.25-.29.15-.57-.86.02-1.37.66-1.97,1.19-.06-.33.03-.6.04-.89.46-.28.9-.55,1.33-.84.26-.17.49-.39.72-.59.05-.04.11-.09.12-.14.02-.1.03-.21-.01-.29-.03-.06-.14-.11-.2-.11-.14.01-.28.07-.42.11-.17.05-.3.21-.56.17.06-.15.09-.29.16-.4.19-.32.37-.65.59-.95.23-.33.34-.71.46-1.08.03-.08.03-.16.03-.25-.01-.27-.24-.41-.48-.29-.09.05-.18.11-.26.17-.22.18-.35.41-.45.66-.21.52-.35,1.06-.41,1.63-.05.49-.12.58-.58.86-.02-.29.09-.54.12-.8.04-.29.09-.57.12-.86.01-.12,0-.26-.05-.36-.04-.08-.14-.15-.22-.18-.06-.02-.18.03-.21.09-.12.19-.24.39-.31.61-.17.54-.23,1.1-.14,1.66.07.41.15.82.23,1.22.03.14.03.24-.11.34-.04-.15-.07-.29-.12-.42-.1-.25-.21-.5-.34-.73-.14-.24-.35-.34-.51-.27-.23.09-.28.3-.29.51-.03.39.11.73.36,1.03.13.16.25.33.35.51.12.22.22.44.33.67.07.15.05.28-.13.36-.18-.24-.39-.42-.71-.45-.27-.03-.49.15-.4.39.17.44.32.92.74,1.19.3.2.41.46.41.78,0,.25-.03.5-.06.74-.03.32-.16.58-.4.82-.74.76-1.46,1.54-2.19,2.31-.69.72-1.39,1.44-2.09,2.15-.18.18-.34.41-.65.54,0-.39,0-.71,0-1.02.49-.42.96-.81,1.49-1.09.23-.12.42-.27.53-.51.04-.08.04-.21,0-.29-.05-.13-.19-.16-.32-.14-.1.02-.21.05-.3.09-.26.13-.51.27-.76.42-.17.1-.32.25-.66.34.16-.32.04-.6.23-.81.2-.06.43-.06.54-.18.31-.3.71-.43,1.06-.64.28-.17.55-.38.78-.61.22-.21.11-.48-.19-.56-.22-.06-.4.03-.6.1-.16.06-1.09.77-1.29.73.24-.32,1.4-1.03,1.75-1.19.15-.07.31-.12.45-.21.21-.14.38-.34.34-.62-.02-.16-.36-.26-.67-.17-.22.06-.42.17-.62.28-.2.11-.37.27-.56.4-.06.04-.12.13-.27.02.16-.22.17-.52.45-.73.17.07.34.02.5-.09.17-.12.35-.23.55-.3.44-.17.77-.48,1.08-.83.22-.25.31-.58.2-.74-.12-.17-.46-.1-.78.15-.28.22-.54.45-.82.68-.06.05-.11.13-.23.03.05-.23.15-.45.31-.65.35-.44.69-.88,1.05-1.3.31-.35.49-.77.69-1.18.08-.16.06-.32-.02-.48-.05-.1-.14-.15-.26-.13-.25.04-.41.19-.51.41-.21.45-.39.92-.64,1.35-.31.54-.59,1.1-.83,1.68-.08.2-.17.39-.39.64.01-.21,0-.31.02-.4.09-.34.19-.68.29-1.02.1-.32.22-.63.3-.95.06-.26.09-.53.11-.8,0-.07-.07-.18-.12-.2-.09-.02-.19.01-.29.04-.04,0-.07.05-.09.08-.35.43-.62.88-.64,1.46-.03.87-.08,1.75-.09,2.62,0,.24-.07.43-.23.61-.04-.06-.07-.1-.07-.13,0-.5,0-1-.01-1.49,0-.23-.03-.46-.08-.68-.02-.08-.12-.17-.21-.21-.13-.06-.26.02-.31.14-.09.18-.19.38-.22.58-.08.51-.12,1.04.03,1.55.08.3.18.6.28.89.1.32.15.65-.08,1-.06-.14-.12-.24-.14-.35-.07-.33-.12-.66-.19-.98-.04-.16-.09-.32-.16-.47-.09-.18-.33-.22-.48-.07-.08.08-.15.2-.19.31-.07.22-.03.45.04.67.16.52.32,1.03.65,1.47.26.35.25.76.1,1.26-.05-.16-.09-.24-.1-.32-.07-.51-.42-.85-.74-1.2-.06-.06-.2-.1-.27-.07-.08.03-.14.14-.18.23-.03.07-.01.16,0,.24.03.14.08.28.11.42.12.52.32.99.8,1.29.07.04.12.11.18.17.11.11.16.24.15.4-.01.33,0,.67-.03,1-.05.65-.06.66-.61,1.07-.13.1-.27.2-.4.29-.56.4-1.12.79-1.66,1.22-.56.43-1.1.89-1.64,1.35-.29.24-.58.48-.85.73-.54.49-1.05,1.01-1.59,1.5-1.38,1.24-2.69,2.55-3.87,3.98-.5.61-1.01,1.22-1.45,1.87-.66.96-1.27,1.95-1.9,2.93-.05.08-.08.2-.22.14,0-.04-.03-.09-.02-.12.21-.61.41-1.22.63-1.83.08-.21.19-.41.28-.62.16-.38.31-.77.47-1.15.15-.36.32-.72.46-1.09.51-1.32,1-2.65,1.53-3.96.24-.59.44-1.21.79-1.75.03-.05.05-.11.07-.17.22-.83.68-1.57,1-2.35.05-.12.17-.23.28-.32.32-.24.64-.45.97-.68.24-.17.47-.33.73-.52.34.15.66.3.98.45.46.22.92.22,1.4.06.27-.09.42-.25.46-.54-.05-.05-.1-.13-.17-.15-.7-.21-1.41-.31-2.16-.3.07-.36.3-.51.57-.61.21.09.4.17.6.24.55.19,1.11.32,1.7.36.49.04.84-.16,1.11-.56.17-.26.08-.51-.22-.55-.12-.02-.25,0-.37,0-.22-.02-.44-.05-.66-.07.14-.17.33-.09.5-.07.39.05.74-.07,1.07-.25.2-.11.4-.26.35-.53-.04-.29-.26-.42-.5-.49-.13-.04-.29-.03-.43,0-.27.05-.53.12-.79.2-.3.09-.59.2-.89.29-.08.02-.18,0-.29,0q.19-.45.47-.72c.31-.03.61-.1.89-.06.4.06.74-.11,1.08-.23.16-.06.3-.22.43-.35.11-.12.1-.32,0-.46-.09-.12-.21-.11-.34-.09-.22.04-.45.06-.68.1-.24.05-.47.11-.77.19.31-.57.67-1.01,1.1-1.4.31-.28.63-.54.95-.8.05-.04.14-.04.22-.06-.03.32-.22.49-.41.65-.45.37-.83.83-1.38,1.06-.08.04-.16.14,0,.28.24-.15.54-.22.78-.44.24-.23.51-.42.76-.65.34-.31.64-.65.65-1.14-.32-.13-.33-.14-.48-.06-.22.12-.42.26-.63.4-.12.08-.23.15-.45.29.12-.22.16-.33.23-.43.41-.6.83-1.19,1.24-1.8.27-.4.52-.8.76-1.21.1-.16.16-.34.12-.54-.05-.28-.3-.39-.51-.2-.26.24-.46.53-.61.86-.4.87-.82,1.73-1.24,2.59-.1.2-.23.39-.35.59-.11.17-.22.35-.37.6.05-.5.19-.86.4-1.2.25-.39.42-.81.53-1.26.04-.18.04-.37.04-.55,0-.12-.18-.22-.28-.16-.14.09-.29.18-.37.32-.29.53-.54,1.09-.57,1.7-.03.5-.15.98-.28,1.47-.06.2-.11.41-.09.61.02.33-.16.5-.42.72.12-.75.25-1.42.34-2.1.04-.31.05-.62.03-.93,0-.1-.11-.23-.21-.28-.12-.07-.25.01-.33.11-.18.21-.29.45-.33.73-.12,1.06-.1,2.12,0,3.22-.11.11-.23.24-.41.42-.05-.33-.1-.57-.13-.82-.04-.37-.07-.75-.1-1.12-.02-.24-.09-.45-.28-.6-.14-.11-.33-.11-.46,0-.19.16-.29.36-.24.61.04.2.11.4.16.6.2.68.42,1.35.39,2.07,0,.18-.04.33-.27.34-.01-.04-.03-.08-.04-.12-.03-.16-.04-.33-.09-.49-.05-.18-.1-.36-.19-.52-.12-.22-.37-.21-.49,0-.24.44-.19.88,0,1.32.08.19.25.34.21.63-.52.45-1.04.95-1.64,1.37-.02.01-.07-.02-.15-.04.03-.09.06-.18.1-.27.17-.42.35-.85.52-1.27.27-.65.59-1.28.78-1.97.19-.68.37-1.36.55-2.04.12-.42.24-.84.35-1.26.18-.64.34-1.29.64-1.89.15-.3.29-.6.39-.92.22-.7.68-1.17,1.28-1.53.2-.12.37-.27.56-.39.49-.3.94-.68,1.54-.87.14.18.27.37.42.54.19.22.39.44.6.63.45.39.94.33,1.49.09-.06-.15-.08-.31-.17-.41-.37-.39-.72-.81-1.24-1.02-.14-.06-.33-.09-.37-.29.26-.24.33-.25.52-.13.05.03.1.07.15.11.35.26.69.53,1.04.79.08.06.18.11.28.14.24.08.47.17.72.2.49.07.96.04,1.26-.43.01-.27-.11-.45-.35-.54-.19-.07-.4-.12-.6-.17-.47-.11-.94-.2-1.4-.31-.26-.06-.5-.17-.65-.4.16-.26.37-.33.61-.28.24.05.47.12.68.28.26.2.55.38.85.52.47.22.97.23,1.46.05.25-.09.33-.34.16-.55-.1-.13-.23-.22-.36-.34.26-.14.53-.12.8-.11.47.02.91-.11,1.34-.25.14-.05.17-.28.05-.36-.05-.04-.1-.07-.16-.09-.36-.17-.74-.28-1.14-.32-.44-.04-.87-.06-1.31.02-.16.03-.34.07-.45-.11.36-.36.77-.54,1.29-.4.13.04.3.02.43-.03.36-.14.73-.13,1.11-.15.29-.01.58-.04.86-.12.19-.05.37-.18.53-.3.15-.12.08-.31-.12-.37-.27-.08-.54-.04-.8.04-.51.16-1.05.12-1.71.25.6-.54,1-1.07,1.59-1.42.36-.21.71-.44,1.04-.69.24-.19.46-.41.66-.65.09-.11.09-.27-.02-.41-.09-.11-.22-.11-.34-.09-.28.05-.51.19-.69.4-.25.28-.49.56-.72.86-.26.35-.53.69-.92.92-.14.08-.3.19-.37.33-.24.49-.72.68-1.12.96-.06.04-.14.04-.26.06.13-.28.21-.53.34-.73.45-.7.84-1.44,1.39-2.07.11-.12.19-.27.27-.42.05-.09.08-.2.08-.3,0-.09-.02-.22-.08-.27-.11-.1-.24-.03-.33.07-.19.22-.41.42-.55.67-.31.54-.59,1.1-.87,1.66-.29.58-.57,1.16-.84,1.74-.07.14-.15.25-.3.3-.09.03-.2.09-.28-.06.05-.12.13-.24.17-.38.22-.74.54-1.44.91-2.12.12-.22.24-.44.36-.66.11-.2.22-.4.31-.61.09-.19.05-.37-.07-.45-.11-.08-.28-.04-.44.13-.13.14-.24.28-.35.43-.24.32-.34.71-.45,1.09-.13.44-.25.88-.37,1.32-.15.5-.3.99-.44,1.49-.11.39-.28.52-.78.54.01-.47.16-.89.33-1.31.22-.56.44-1.12.65-1.69.05-.13.04-.27.07-.46-.13.05-.24.05-.27.1-.17.23-.38.46-.48.72-.36.93-.53,1.91-.6,2.93-.19.1-.39.21-.59.31-.07.04-.15.08-.23-.05.05-.13.1-.29.18-.43.37-.7.46-1.46.47-2.24,0-.15,0-.3-.2-.37-.05.05-.13.09-.16.16-.18.33-.39.65-.53.99-.28.7-.46,1.42-.2,2.18.01.03,0,.08-.02.12-.35.23-.35.24-.73.26.1-.3.23-.58.3-.88.13-.57.24-1.15-.05-1.7-.03-.06-.1-.1-.16-.16-.51.79-.78,1.99-.71,3.2-.62.4-1.25.81-1.88,1.21-.03.02-.08.01-.15.03.05-.29.12-.56.22-.83.32-.92.64-1.85.95-2.78.1-.29.21-.59.31-.88.06-.2.19-.31.36-.4.54-.29,1.1-.5,1.69-.62.32-.07.65-.16.96-.25.22-.07.41-.19.56-.38.1-.13.07-.29-.07-.37-.27-.16-.56-.17-.85-.08-.3.09-.6.18-.87.33-.4.21-.78.48-1.17.72-.12.07-.2.22-.42.14.08-.31.16-.62.24-.92.38-.21.74-.36,1.13-.41.63-.08,1.18-.41,1.76-.63.06-.02.11-.07.16-.1.19-.15.17-.41-.05-.51-.25-.12-.51-.15-.79-.06-.54.17-1.06.37-1.54.68-.12.08-.24.14-.41.24.03-.4.13-.71.26-.97.3-.17.58-.22.88-.18.16.02.33,0,.5.02.6.04,1.09-.2,1.54-.57.07-.06.1-.17.14-.25-.15-.26-.38-.32-.61-.31-.29,0-.58.04-.86.12-.46.14-.9.34-1.34.5-.03.01-.07-.02-.15-.04.04-.17.08-.35.12-.55.28-.07.54-.15.8-.2.26-.05.53-.1.8-.12.61-.04,1.02-.42,1.43-.81.06-.05.09-.14.12-.22.05-.12,0-.27-.12-.31-.09-.03-.21-.07-.3-.05-.2.04-.41.1-.59.18-.46.2-.9.43-1.36.64-.13.06-.27.1-.41.14-.08.02-.16.01-.17-.12.1-.08.24-.14.33-.25.38-.46.87-.77,1.39-1.04.48-.26.92-.57,1.3-.96.1-.1.16-.24.22-.37.05-.12-.06-.25-.2-.25-.47.02-.9.17-1.28.44-.36.25-.7.52-1.05.78-.07.06-.15.11-.24.17-.03-.08-.07-.13-.06-.15.35-.46.7-.92,1.17-1.28.41-.31.81-.66,1.21-.98.3-.24.44-.54.45-.95-.1-.02-.21-.08-.29-.05-.17.07-.34.16-.48.28-.47.41-.92.84-1.38,1.27-.06.06-.12.12-.18.17-.05.04-.08.16-.21.06-.04-.21,0-.43.06-.65.23-.8.43-1.61.76-2.38.12-.28.14-.6.19-.91,0-.06-.05-.17-.1-.2h0ZM97.26,43.73s0,0-.01,0h0s0,0,0,0h0ZM89.93,19.04c-.26.44-.37.54-.79.72.18-.33.49-.52.79-.72ZM89.12,19.78c-.03.17-.16.22-.34.3.06-.22.15-.32.34-.3ZM86.1,18.8c.11.08.19.1.22.15.09.18.17.36.25.55.04.12.3.53.22.62-.09.07-.41-.48-.46-.63-.11-.19-.2-.39-.22-.7ZM90,20.91c-.07.25-.26.35-.41.48-.14.12-.3.22-.47.31-.63.33-1.23.68-1.72,1.21-.12-.08-.03-.14,0-.2.02-.06.05-.12.09-.16.67-.69,1.38-1.32,2.32-1.62.05-.02.11,0,.2,0h0ZM103.59,28.04c-.31.62-.61,1.21-1.23,1.66.12-.58.45-.98.75-1.39.13-.18.13-.17.48-.27ZM85.48,20.4s.03.02.04.03c.1.08.2.16.26.26.33.59.7,1.17.91,1.82.05.15.12.31-.06.48-.07-.08-.15-.15-.18-.23-.24-.51-.6-.93-.95-1.37-.15-.19-.29-.4-.41-.61-.07-.11-.08-.24.03-.34.09-.08.25-.1.36-.04h0ZM89.86,22.83c-.03.1-.02.19-.07.24-.33.35-.7.64-1.22.67-.37.02-.74.09-1.11.12-.06,0-.13-.03-.2-.06.16.05.3-.03.45-.1.44-.22.89-.44,1.33-.66.24-.12.48-.23.81-.21ZM95.78,26.17c-.18.44-.53.65-.97.86.06-.27.24-.41.37-.56.14-.17.29-.36.6-.3ZM100.73,28.98c.05.1.09.16.09.2-.11.65-.28,1.28-.57,2.03-.1-.88.1-1.54.48-2.22ZM84.85,22.12s.05.03.07.05c.19.21.42.41.56.65.28.48.52.98.77,1.48.02.03,0,.08,0,.26-.2-.23-.33-.36-.43-.51-.28-.41-.58-.79-.95-1.14-.14-.13-.24-.33-.32-.51-.03-.06.03-.2.09-.26.06-.06.14-.06.21-.03ZM93.25,26.09q-.03.25-.31.43c.09-.13.19-.26.31-.43ZM103.97,31.02c-.4.38-.81.68-1.35.77-.26.04-.51.17-.76.26-.19.07-.38.16-.6.26.18-.3.17-.31.55-.56.22-.15.46-.28.7-.4.22-.11.46-.19.69-.29.25-.11.5-.14.77-.04h0ZM89.24,24.53c.05.02.11.07.18.11-.59.52-1.23.57-1.92.38.38-.18.72-.42,1.13-.47.18-.02.37-.03.55-.03.02,0,.03,0,.05.01ZM87.19,23.76s.02.07.03.11c0,.02-.01.04-.02.05-.01-.02-.04-.04-.04-.06,0-.04.02-.07.02-.11h0ZM84.74,23.3c.2.09.32.28.46.45.25.32.49.66.77.96.18.19.1.47.12.68-.02.05-.05.1-.07.15-.19,0-.2-.14-.24-.25-.26-.75-.73-1.38-1.16-2.03.04.01.08.02.11.04h0ZM91.59,26.48c.04.24-.1.4-.25.54l.25-.54ZM86.56,24.35c-.02.13-.03.26-.06.47-.17-.24-.05-.35.06-.47ZM97.42,29.59c-.09.62-.29,1.17-.83,1.63.19-.65.22-1.29.83-1.63ZM84.54,23.71c.5.68.93,1.29,1.07,2.11-.1-.07-.15-.09-.18-.13-.29-.43-.57-.86-.85-1.3-.09-.14-.14-.3-.18-.45-.01-.05.07-.12.14-.23h0ZM103.59,32.61c-.13.12-.19.2-.27.25-.53.34-1.08.59-1.74.56-.39-.02-.78.02-1.17.03-.06-.15.05-.19.14-.23.52-.26,1.07-.44,1.64-.54.32-.06.65-.1.98-.14.11-.01.23.04.42.07ZM88.86,25.85s.07.04.11.08c-.37.38-1.19.66-1.89.63.41-.49.94-.54,1.43-.68.11-.03.24-.07.35-.02ZM98.9,30.67c.1.45-.04.82-.13,1.18-.06-.38-.17-.77.13-1.18ZM94.51,29.08c.13-.02.27-.03.49-.05-.63.4-.55.22-1.03.29-.21.08-.43.07-.68,0,.24-.26.56-.16.81-.18.14-.04.28-.04.41-.06ZM86.36,25.09c.01.48-.07.87-.32,1.38.03-.43.13-.7.16-1.02.06-.08.07-.26.17-.36ZM100.89,32.65s.01.03.02.05c-.03.02-.05.04-.08.07,0-.02-.02-.04-.02-.05.02-.03.05-.04.07-.07ZM89.07,27.37c-.09.23-.26.31-.44.38-.1.04-.19.08-.29.1-.49.12-.99.24-1.5.37.32-.43.74-.67,1.45-.87q.44-.12.78.02h0ZM83.76,25.44c.4.63,1.03,1.08,1.24,1.83.05.19.14.38.12.6-.2-.03-.25-.18-.32-.29-.29-.53-.67-.99-1.06-1.44-.05-.06-.11-.12-.15-.2-.09-.19-.05-.35.16-.5ZM95.49,30.85c.11.59-.05,1.04-.23,1.49-.04-.48-.07-.96.23-1.49ZM101.99,34.11c0,.17-.15.17-.25.2-.5.16-1.22.17-1.96.02.77-.33,1.66-.41,2.21-.22ZM101.12,33.72s.02.03.03.04h-.1s.04-.02.07-.04ZM85.99,26.8c-.03.08-.06.16-.08.23-.02,0-.04-.02-.06-.02.03-.08.06-.15.09-.23.02,0,.04.01.06.02h0ZM78.88,23.56c.05.01.06.09.07.14.02.06.03.12.03.18,0,.55-.02,1.1-.02,1.65-.05-.03-.12-.05-.12-.08-.03-.61-.15-1.22-.06-1.84,0-.02.02-.03.03-.05.03-.01.05-.01.07,0h0ZM100.91,33.73s.05.02.07.04c-.08,0-.16,0-.23,0,.06-.05.11-.05.16-.03ZM97.36,32.22c-.23.43-.73.78-1.32.96.28-.58.81-.77,1.32-.96ZM100.7,33.78c-.15.1-.31.13-.5.07.19-.16.2-.17.5-.07ZM93.76,30.76c-.22.21-.46.2-.68.22-.39.04-.78.06-1.17.09-.33.02-.6-.07-.73-.41,1.04-.19,1.95-.16,2.59.11h0ZM85.75,27.51l.05.04c-.04.06-.07.12-.11.18,0,0-.02,0-.03-.01.03-.07.05-.14.08-.21h0ZM80.35,25.85s.02.08.01.12c-.23.7-.47,1.41-.75,2.23.05-.93.32-1.76.74-2.35ZM90.71,30.73c.19.18.36.36.57.56-.54.13-1-.02-1.52-.15.24-.37.54-.47.96-.41ZM103.5,36.61c-.05.26-.24.32-.39.42-.59.4-.99.58-1.49.7.52-.62,1.2-1.04,1.88-1.12ZM78.96,25.57s0,.06,0,.08c0,0-.03,0-.05,0,.02-.03.04-.06.05-.08ZM88.39,29.92c-.03.36-.12.69-.37.99-.04-.38.02-.54.37-.99ZM96.99,34.01c.05.2-.09.32-.2.43-.28.28-.58.54-.87.8-.14.12-.29.24-.43.36-.11.1-.18.23-.11.39.02.04-.03.1-.09.27-.07-.39,0-.64.13-.85.34-.58.78-1.08,1.38-1.4.05-.02.12,0,.18,0h0ZM91.79,31.63c.13.06.24.16.34.31-.23.21-.5.2-.76.17-.4-.04-.75-.19-1.03-.5.03-.03.05-.07.07-.07.37.01.74.04,1.11.04.1,0,.2.02.28.05ZM85.49,28.75c-.05.4-.12.76-.36,1.07.13-.34.09-.73.36-1.07ZM101.72,36.36c-.41.69-.84,1.16-1.59,1.4.32-.52.72-.85,1.11-1.17.1-.08.24-.12.48-.23ZM98.78,35.13s.02,0,.03.01l-.07.16h-.03s.07-.17.07-.17ZM81.23,27.1c.08.08.13.12.13.14-.17.93-.67,1.71-1.13,2.51.1-.97.64-1.76,1-2.65ZM105.14,38.15s.1.09.1.14c0,.05-.04.12-.09.15-.04.04-.11.06-.17.08-.51.1-1.02.11-1.54.03.43-.28.89-.48,1.4-.45.1,0,.21.02.3.06ZM94.31,33.21c.44.51.38,1.16.57,1.74-.18-.24-.37-.47-.53-.73-.12-.21-.21-.45-.28-.68-.04-.15,0-.29.24-.33h0ZM86.95,30.29c.18.57.07,1.01-.36,1.5.06-.56.12-1,.36-1.5ZM100.12,36.44c-.39.59-.53.72-1.01.92.24-.41.47-.76,1.01-.92ZM98.25,35.74v.05s-.02.03-.04.04c0-.03-.01-.05-.01-.08,0,0,.03,0,.05,0ZM77.5,26.31c.11.05.24.11.3.2.22.39.51.74.61,1.35-.33-.31-.58-.5-.77-.74-.15-.19-.24-.42-.34-.65-.04-.08.11-.21.19-.17h0ZM92.99,33.65c-.09.46-.24.72-.7,1.2.33-.93.41-1.06.7-1.2ZM91.15,32.82s.09.04.13.06c.04.24-.08.34-.25.38-.49.12-.96.02-1.38-.22-.36-.2-.67-.49-.99-.74-.06-.05-.1-.13-.14-.19.68.31,1.4.34,2.08.54.14.04.28.07.42.11.05.02.09.04.14.06h0ZM97.91,36.18s0,.05,0,.05c-.02,0-.04,0-.06,0,0-.02.01-.03.03-.05,0,0,.03,0,.04-.01h0ZM85.04,30.37c-.04.13-.08.25-.12.38-.03,0-.06-.01-.1-.02l.17-.37s.03,0,.04.01h0ZM96.49,35.7c-.24.54-.66.92-1.36,1.19.27-.51.64-.77,1-1.06.09-.07.22-.08.36-.13ZM97.59,36.59l-.03.03v-.05s.03.01.03.01ZM100.58,37.98c-.05.13-.17.15-.32.23.08-.2.17-.27.32-.23ZM79.55,28.44s.03.02.03.03c0,.02-.02.03-.03.04-.01-.01-.03-.02-.03-.03,0-.02.02-.03.03-.04ZM102.66,39.44c.24.12.37.3.53.62-.23.1-.44,0-.64-.08-.39-.17-.86-.24-1.08-.76.59.05.94.1,1.19.22ZM97.3,37c-.17.15-.33.31-.5.46.1-.24.23-.43.5-.46ZM87.87,32.93c.49.22.89.57,1.23,1.05-.41.19-.73.15-.99-.15-.24-.28-.49-.56-.72-.84-.04-.05-.11-.13-.04-.23.19.04.36.1.52.17h0ZM94.25,35.86s.09.07.12.14c.13.26.22.53.24.87-.48-.19-.53-.62-.71-.97.15-.06.26-.08.34-.04ZM90.96,34.44c.02.16.06.24.04.32-.1.36-.21.71-.29,1.05-.08.33-.12.4-.15.47,0,0-.02-.01-.02-.02,0-.11-.05-.12,0-.28-.01-.52.05-1.03.43-1.54h0ZM77.14,28.58c.06.03.12.08.16.12.38.42.82.76,1.3,1.05.23.14.44.32.64.49.05.04.05.14.09.27-.43-.1-.77-.27-1.04-.51-.51-.47-1.19-.76-1.6-1.44.2-.05.34-.03.44.02h0ZM81.27,30.76c.02.43-.18.72-.41,1.08.05-.57.07-.61.41-1.08ZM100.08,39.41c.53.23.88.72,1.39,1.07-.14.11-.18.18-.23.18-.48.07-.92-.14-1.13-.57-.11-.22-.21-.45-.31-.67,0-.01.01-.04.04-.09.08.02.16.05.24.08h0ZM80.11,30.29s0,.04,0,.05c0,.01-.03.01-.04.02.02-.02.03-.05.05-.07h0ZM92.74,36.33s.01.12-.02.15c-.29.4-.6.79-1.11.93-.17.05-.31.22-.52.11-.01.03-.03.05-.04.08,0-.03.02-.05.03-.08.44-.37.88-.73,1.32-1.1.09-.08.18-.18.34-.1h0ZM96.24,38.02v.05s-.03-.02-.03-.02l.03-.03ZM98.42,39.34c.27.25.51.47.66.75.1.19.15.38-.05.56-.39-.02-.6-.24-.62-.62-.01-.21-.11-.43.01-.7ZM82.17,31.9c-.14.47-.26.95-.41,1.42-.07.23-.18.46-.43.56-.11-.18-.05-.36,0-.54.13-.55.42-1.02.84-1.44ZM95.98,38.38c-.07.09-.12.14-.16.19,0-.08,0-.16.16-.19ZM95.8,38.6c-.86.97-1.74,1.93-2.59,2.9-.98,1.13-2.04,2.17-3.13,3.18-.31.28-.67.51-1.01.76.13-.32.35-.56.59-.8,1.03-1.02,2.06-2.04,3.07-3.07.52-.53,1-1.11,1.52-1.64.42-.43.86-.83,1.3-1.24.07-.07.14-.13.25-.1h0ZM88.17,35.13c0,.07,0,.14-.02.18-.19.32-.38.63-.63,1.05.28-.97.32-1.05.65-1.23ZM77.87,31.02c.09.04.18.11.27.16.41.25.78.55,1.23.72.13.05.24.16.44.29-.19,0-.29.03-.38,0-.2-.06-.39-.14-.58-.22-.3-.13-.6-.27-.91-.4-.21-.09-.41-.19-.46-.43.11-.16.25-.17.39-.12h0ZM89.39,36.74c.06.05.11.08.11.1,0,.59.08,1.18-.05,1.76-.25-.61-.24-1.22-.06-1.86ZM73.81,29.8c.07.07.16.13.18.21.1.31.2.63.27.95.06.3.07.61.14.91.06.28.17.55.28.89-.11-.05-.19-.06-.23-.11-.62-.81-.82-1.73-.74-2.73,0-.03.05-.06.1-.12h0ZM91.94,38.29c.05.02.1.06.14.13-.12.24-.35.33-.57.42-.41.17-.76.42-1.09.71-.65.42-.43.29-.53.38.06-.21.16-.39.3-.53.32-.3.65-.58.99-.85.14-.11.32-.19.5-.25.08-.03.17-.05.26-.01ZM102.03,43.33c-.68.49-1.4.47-2.1.51.5-.4,1.1-.51,1.7-.61.1-.02.22.05.4.1ZM76.18,31.55c.08.04.12.11.11.19-.02.29-.03.58-.1.85-.16.58-.32,1.15-.37,1.75,0,.06-.05.11-.1.23-.2-.71-.15-1.36-.05-2,.06-.38.17-.76.42-1.05.04,0,.07.01.1.02h0ZM79.22,33.03c.42.19.82.46,1.25.8-.24.02-.38.07-.5.03-.55-.16-1.11-.31-1.62-.6-.04-.02-.09-.04-.1-.07-.03-.07-.07-.15-.06-.22,0-.04.08-.11.12-.12.16-.02.34-.06.49,0,.15.05.29.11.43.17h0ZM86.07,36.68c.02.55-.08.79-.53,1.25.12-.48.19-.91.53-1.25ZM97.59,42.18s.04.02.06.03c-.05.12-.06.28-.15.37-.2.21-.42.39-.66.56-.23.16-.45.34-.83.39.36-.56.82-.92,1.27-1.27.08-.06.17-.14.31-.09ZM91.74,39.71c-.04.08-.05.17-.1.21-.14.13-.27.28-.43.35-.51.22-.99.5-1.45.85.02-.26.19-.41.37-.55.44-.34.86-.72,1.4-.92.05-.02.11.03.22.06h0ZM96.07,42.02c-.36.65-.97.97-1.47,1.39.94-1.14,1.04-1.24,1.47-1.39ZM88.47,38.73c.22.62.31,1.14.39,1.71-.27-.29-.37-.53-.48-1.07q-.05-.23.1-.64ZM77.4,33.76c0,.53-.16.93-.58,1.28-.07-.33.07-.56.18-.8.08-.17.13-.39.4-.48h0ZM78.71,34.5c-.06.43-.21.75-.43,1.01-.25.28-.31.72-.77.94.23-.55.42-1.02.63-1.49.09-.2.22-.39.57-.45ZM94.88,42.34c-.31.55-.68.91-1.08,1.23-.19.15-.39.3-.67.3.34-.71.9-1.21,1.75-1.53ZM79.63,35.77s.02.01.03.02c.04.06.04.14.04.22,0,.04-.03.07-.06.11-.41.59-.82,1.19-1.24,1.77-.1.13-.17.32-.37.35-.03-.05-.06-.06-.05-.07.26-.74.65-1.43,1.08-2.08.1-.14.28-.23.44-.32.03-.02.09-.01.13,0h0ZM84.47,38c.14.85-.14,1.5-.25,2.18-.15-.59-.04-1.18.04-1.76.01-.11.1-.2.21-.42ZM99.56,45.32s.06.03.09.05c.09.07.13.2.21.32-.28.21-.49.09-.7.02-.85-.27-1.05-.38-1.48-.88.16.04.27.08.38.1.4.09.8.18,1.2.27.1.03.21.06.31.1ZM91.1,41.63c-.04.11-.04.17-.08.21-.19.19-1.31.9-1.6,1.02.05-.37.32-.57.6-.75.32-.21.63-.44,1.08-.49ZM73.27,33.55c.53.24,1.08.67,1.59,1.25-.5,0-.85-.18-1.18-.38-.33-.2-.62-.48-.92-.73-.1-.09-.14-.21-.02-.32.17.04.34.1.52.17ZM87.97,41.17c.49.41.57.62.49,1.25-.4-.32-.4-.75-.49-1.25ZM86.68,40.72c-.53.64-1.15.57-1.81.49.51-.47,1.12-.46,1.81-.49ZM93.77,44.02c0,.22-.09.34-.28.36-.2.02-.4.01-.68.02.34-.22.63-.35.96-.37ZM96.94,45.69c.35.16.56.35.84.7-.49.1-.91.04-1.22-.37-.15-.19-.29-.39-.44-.59.35.09.61.17.82.26ZM79.84,38.08c.11.04.13.16.09.26-.05.13-.1.29-.2.38-.48.43-.9.91-1.32,1.39-.02.02-.07.02-.24.06.19-.32.32-.55.46-.77.2-.31.4-.63.61-.93.09-.13.2-.27.32-.37.06-.05.2-.05.28-.02ZM74.68,36.02c.26.12.5.27.71.51-.69,0-1.34-.05-1.93-.4-.04-.02-.08-.04-.1-.08-.03-.07-.08-.16-.06-.22.02-.07.1-.12.17-.16.05-.03.12-.03.18,0,.34.12.69.2,1.02.35ZM94.11,45.04c.36.27.73.54,1.08.83.13.11.21.26.1.48-.66-.02-1.39-.71-1.3-1.31.04,0,.09-.01.12,0ZM82.88,39.89c.11.32.2,1.17.18,1.62-.02,0-.04,0-.05-.01-.12-.41-.26-.83-.36-1.25-.04-.15-.01-.34.23-.36h0ZM98.31,47.41s.06.03.09.06c-.05.21-.23.25-.37.3-.4.15-.77.39-1.28.36.34-.41.78-.51,1.19-.66.12-.04.24-.11.37-.06ZM86.39,42.13s.06.03.09.04c.17.1.19.28.04.41-.23.19-.51.29-.8.3-.31,0-.62-.03-.92-.08-.13-.02-.25-.12-.45-.22.19-.07.3-.12.41-.15.33-.11.67-.21,1.01-.31.22-.07.43-.07.63.02h0ZM92.58,45.04c.8.72.84.77.9,1.18-.36-.04-.63-.16-.73-.53-.06-.21-.11-.43-.16-.64ZM68.41,34.29c.18.33.17.65.14.95-.07.6-.18,1.19-.28,1.78,0,.06-.05.11-.09.2-.19-.2-.16-.43-.18-.64-.03-.41-.02-.83-.03-1.24,0-.34.13-.65.29-.94.02-.05.1-.07.16-.11h0ZM75.87,38.07c-.59.31-1.33.24-1.98-.18.06-.05.11-.14.17-.14.47-.04,1.25.1,1.8.32h0ZM95.96,47.35c-.22.36-.25.39-.75.66.22-.43.34-.54.75-.66ZM79.89,40.08c.01.06.05.14.03.18-.27.51-.62.96-1.15,1.24-.01,0-.04,0-.1-.02.29-.69.64-1.1,1.22-1.4ZM101.17,49.99c-.25.34-.27.35-1.03.55.32-.22.62-.47,1.03-.55ZM99.76,49.56c-.06.11-.08.19-.13.22-.36.27-.73.51-1.14.69.29-.44.69-.73,1.27-.92h0ZM102.94,51.17c.09.04.18.09.27.17-.11.04-.21.09-.3.09-.58,0-1.15,0-1.73,0-.04,0-.09-.04-.13-.07.52-.22,1.07-.22,1.62-.25.09,0,.19.01.28.05h0ZM86.03,43.53c-.07.15-.09.29-.17.35-.14.11-.32.19-.49.25-.11.03-.25.01-.37-.01-.5-.11-1.01-.24-1.51-.36-.03,0-.06-.06-.12-.12.88-.17,1.74-.13,2.65-.11ZM98.41,49.23c.05.17-.07.27-.17.37-.34.33-.64.51-1.1.63.4-.4.78-.71,1.16-1.01.02-.02.08,0,.12.01h0ZM76.2,39.17c.09.05.2.1.32.16-.62.24-.88.27-1.22.1-.08-.04-.16-.14-.17-.22-.02-.12.09-.18.2-.18.2,0,.41,0,.61.04.09.02.17.06.27.1ZM84.87,43.15s.07.03.1.05c-.24.13-.51.06-.77.09-.3.04-.61.04-.91.06,0-.32.12-.46.55-.63.02.1.03.19.05.28.04.02.08.05.1.04.32-.12.6-.01.88.12h0ZM81.06,41.44s-.02.03-.02.05l-.03-.02s.04-.02.05-.03h0ZM94.43,47.62q-.13.4-.76.98c.35-.7.45-.82.76-.98ZM98.58,49.62c.02.15-.04.26-.15.36-.23.21-.39.47-.57.72-.2.28-.46.52-.7.77-.27-.01-.51-.02-.75-.03-.1-.2.02-.31.13-.38.33-.21.66-.42,1-.6.4-.22.75-.48,1.03-.84h0ZM91.63,46.63c-.22.66-.63.98-1.22,1.09.3-.45.62-.87,1.22-1.09ZM82.03,42.27c.23.37.19.73.16,1.08-.25-.31-.44-.63-.16-1.08ZM89.01,45.48c-.57.43-1.13.86-1.7,1.29-.31.24-.6.5-.92.73-.35.24-.65.56-1.73,1.42-.92.73-1.55,1.32-2.16,1.87-.05.05-.79.83-1.49,1.49-.62.58-1.21,1.07-1.25,1.11-.2.17-.42.31-.13-.04.02-.02.57-.65,1.18-1.24.65-.63,1.38-1.22,1.4-1.25.32-.36.87-.89,1.42-1.41.17-.16.3-.41,1.2-1.06.9-.65,1.26-.99,1.65-1.29.59-.46,1.19-.89,1.79-1.33.17-.12.35-.21.54-.29.05-.02.13,0,.2.02ZM69.58,36.71c.08.03.09.13.09.21,0,.1-.04.2-.07.3-.2.61-.46,1.19-.88,1.69.14-.77.31-1.53.7-2.2.07-.01.11-.01.15,0ZM101.02,51.38c0,.1-.09.08-.16.07-.02,0-.03-.05-.05-.07.02,0,.03-.03.05-.02.05,0,.11.01.16.02ZM96.8,49.46c-.3.24-.59.15-.86.17-.28.02-.51-.08-.77-.32.59-.1,1.09,0,1.64.15ZM77.06,40.5c.3.14.39.21.6.5-.13.03-.24.08-.35.07-.44-.02-1.01-.21-1.48-.49.17-.1.26-.18.36-.2.24-.06.48-.04.72.06.05.02.1.04.14.06h0ZM97.03,49.83c-.41.58-.76,1.07-1.13,1.6-.07,0-.17.02-.27.02-1.06-.01-2.12.07-3.15.32-.2.05-.39.11-.61.07q.15-.44.48-.72c.44.06.87.13,1.3.17.16.02.33-.02.49-.06.25-.07.29-.14.39-.48.25-.14.64.02.79-.35-.25-.41-.61-.56-1.06-.53-.21.01-.41,0-.63.01-.03-.2.09-.3.22-.32.41-.05.84-.11,1.21.1.45.25.91.23,1.39.23.16,0,.33-.02.58-.04h0ZM80.74,42.48c-.36.9-.71,1.81-1.07,2.71-.02,0-.05-.02-.07-.03.05-.11.09-.22.13-.34.14-.37.28-.73.38-1.12.11-.43.36-.83.55-1.25l.08.02ZM73.96,39.71c.13.45-.04.79-.21,1.14-.07-.39-.12-.77.21-1.14ZM92.53,48.43c-.01.22-.12.35-.24.57q-.02-.35.24-.57ZM77.61,41.69c.22.1.25.23.23.6-.46-.02-.84-.15-1.21-.34.21-.36.43-.45.8-.33.07.02.13.04.18.07ZM101.14,52.51c.26.13.51.31.72.61-.35.06-.6.02-.84-.01-.2-.03-.33-.16-.47-.28-.25-.24-.51-.47-.8-.74.46.16.96.22,1.4.43ZM84.32,44.94c-.47.39-.9.38-1.34.2-.22-.09-.43-.23-.64-.35,0-.04.01-.08.02-.13.64-.06,1.26.09,1.95.27ZM89.08,47.16c-.22.57-.57.89-.89,1.3.02-.36.06-.5.23-.76.14-.2.27-.41.66-.54ZM66.52,36.96c.07.04.12.05.13.07.32.77.64,1.53.96,2.3.01.03-.02.07-.03.1-.02,0-.05.02-.06,0-.46-.37-.78-.86-1.01-1.4-.14-.34-.15-.72,0-1.09ZM69.89,38.71c.13.31.04.51-.02.7-.06.2-.16.38-.26.56-.21.38-.43.76-.64,1.14-.02,0-.08,0-.08-.02-.02-.12-.07-.25-.04-.36.19-.57.38-1.15.7-1.66.07-.12.19-.21.34-.36h0ZM94.69,50.14c.06.03.12.09.17.19-.26.12-.51.15-.77.08-.36-.09-.72-.14-1.14-.17.08-.05.16-.16.24-.16.43,0,.86,0,1.29.01.07,0,.14.01.21.05ZM97.97,52.21c.43.25.83.47,1.2.72.2.14.38.32.54.5.05.06.02.18.03.29-.5.12-.84-.1-1.11-.43-.24-.28-.44-.6-.65-.9-.02-.03,0-.08,0-.19ZM72.62,40.87c.28.32.29.83.06,1.4-.19-.47-.2-.92-.06-1.4ZM94.16,50.87c-.57.22-.73.21-1.67-.04.57-.11,1.07-.19,1.67.04ZM70.67,40.11c0,.1.01.21-.02.3-.12.31-.23.62-.4.9-.27.46-.59.89-.89,1.33-.16-.12-.17-.29-.12-.45.25-.75.62-1.44,1.17-2.02.03-.03.07-.05.11-.06.04-.01.08,0,.15-.01h0ZM74.84,42.13c-.02.29-.18.43-.34.54-.35.23-.65.58-1.13.64.28-.55.82-.99,1.48-1.18ZM96.63,52.43c.41.18.67.53.94.87.16.2.35.41.31.75-.35-.03-.61-.19-.84-.39-.18-.16-.51-.92-.59-1.29.07.02.13.04.19.07h0ZM93.97,51.79s.06.03.08.06c-.38.16-1.57.42-1.89.41-.05,0-.1-.04-.16-.06.02-.03.05-.07.07-.07.54-.11,1.09-.23,1.63-.32.08-.01.17-.05.26-.01h0ZM67.36,39.67c.21.11.31.31.47.45.17.15.34.29.52.43.05.34.11.68.16,1.02-.05,0-.11.03-.12.02-.4-.57-.83-1.12-1.11-1.77-.02-.05-.01-.11-.02-.19.03.01.07.02.1.04h0ZM76.64,44.12c.05.41-.1.75-.36,1.17-.03-.5.08-.85.36-1.17ZM66.8,39.7s.08.03.1.06c.26.42.51.85.76,1.28,0,.01,0,.04,0,.06-.04,0-.09,0-.12-.02-.24-.2-.48-.39-.71-.6-.27-.24-.27-.43-.02-.78ZM79.45,45.63c-.37,1.23-.78,2.4-1.28,3.54-.45,1.01-.83,2.04-1.25,3.06-.3.73-.61,1.46-.9,2.2-.58,1.45-1.22,2.87-1.74,4.35-.44,1.24-.78,2.5-1.15,3.76-.25.84-.52,1.67-.78,2.5-.09.3-.25.57-.47.82-.33.05-.58-.18-.91-.23,0-.16-.03-.3,0-.43.1-.4.2-.8.36-1.19.35-.89.78-1.75,1.23-2.59.32-.6.65-1.21.87-1.85.3-.89.67-1.74,1.07-2.59.21-.43.4-.87.59-1.3.39-.89.77-1.79,1.17-2.69.12-.26.3-.5.42-.76.32-.65.65-1.3.93-1.97.29-.71.52-1.44.79-2.16.2-.52.42-1.04.64-1.56.13-.3.27-.6.41-.89h0ZM86.77,49.03c.18.08.14.23.11.35-.13.47-.33.91-.76,1.31-.03-.7.24-1.2.61-1.67.01,0,.03,0,.04.01h0ZM74.59,43.52c.1.16.02.25-.07.29-.38.16-.78.25-1.3.23.4-.61.93-.44,1.37-.52ZM71.98,42.37c.22.41.26.84.09,1.37-.18-.5-.18-.93-.09-1.37ZM95.33,53.3s.02,0,.03.01c.05.04.13.08.13.12,0,.07-.04.17-.09.2-.51.25-1.03.25-1.62.06.5-.34.99-.43,1.52-.39.01,0,.02,0,.03,0h0ZM70.87,42.08l-1.02,2.22c-.09-.11-.16-.16-.17-.22-.02-.09-.05-.25,0-.29.18-.13.17-.31.21-.49.13-.52.41-.94.86-1.23.01,0,.04,0,.12.01ZM94.11,52.78c.08.12.02.19-.08.25-.36.19-.69.25-1.28.21.51-.4.67-.45,1.37-.46h0ZM72.47,42.93c.27.38.3.57.15.92-.04.09-.08.18-.12.28-.03-.07-.08-.13-.1-.2-.02-.06,0-.12,0-.19.02-.27.05-.53.08-.81h0ZM89.13,50.76c-.4.56-1.04.76-2.37.74.69-.42,1.36-.68,2.09-.81.08-.01.18.04.29.07ZM91.93,52.17s.03.02.05.03c-.13.11-.27.13-.42.06.11-.1.24-.15.38-.09h0ZM73.18,43.6s0,.08,0,.11c-.02.03-.06.04-.09.06,0-.04,0-.08,0-.11.02-.03.06-.04.09-.06h0ZM96.63,54.48c.06.02.12.11.14.18.01.04-.04.11-.09.15-.19.14-.42.2-.65.17-.3-.05-.59-.13-.94-.21.5-.35,1-.46,1.54-.27h0ZM91.53,52.26c-.24.21-.56.22-.84.31-.72.22-1.39.53-2.06.87-.85.44-1.67.91-2.51,1.36-.2.11-.43.18-.65.27.05-.07.1-.14.17-.19.66-.42,1.33-.83,1.99-1.25.25-.15.5-.28.79-.33.22-.04.42-.17.63-.26.47-.21.94-.43,1.42-.61.33-.12.68-.27,1.06-.17h0ZM74.96,45.43c.05.02.07.07.08.12.14.68.13,1.35-.11,2.09-.29-.78-.32-1.49-.1-2.2.06-.02.11-.02.14-.01ZM77.4,46.55c-.17.38-.67,1.07-.88,1.22-.05.04-.1.07-.16.09-.21.07-.43.13-.62.19-.04-.04-.06-.06-.06-.07.2-.46.52-.84.87-1.18.19-.18.38-.21.85-.25h0ZM67.42,42c.48.21.88.53,1.28.86.12.1.13.23.1.44-.12-.09-.2-.15-.27-.21-.23-.18-.47-.34-.76-.41-.22-.05-.43-.16-.56-.36-.08-.12-.07-.23.05-.34.05,0,.12-.01.17.01h0ZM91.3,52.97c.21.16.39.3.58.45-.04.4-.18.77-.29,1.15-.1.35-.15.72-.22,1.12-.5-.26-.96-.11-1.39.09-.51.24-.99.53-1.49.79-.18.1-.36.21-.58.33-.18-.11-.31-.2-.46-.3.02-.08.03-.14.06-.19.1-.13.25-.14.4-.14.7,0,1.29-.28,1.83-.7.07-.05.13-.1.19-.16.09-.1.14-.23.05-.34-.05-.07-.17-.13-.26-.12-.25.02-.49.08-.73.13-.1.02-.2.06-.3.09-.12-.08-.23-.2-.35-.23-.13-.03-.29-.01-.43.02-.55.14-1.05.4-1.49.76-.4.32-.42.32-1.04.13.21-.28.51-.42.78-.59.64-.39,1.3-.74,1.99-1.04.49-.22.97-.48,1.45-.71.55-.26,1.13-.4,1.7-.55h0ZM86.49,50.78s.03.03.04.05c0,.01-.03.03-.04.04,0-.01-.02-.03-.02-.04,0-.02.02-.04.02-.06h0ZM73.45,44.94s.08.07.13.12c-.29.39-.71.33-1.19.39.22-.33.45-.42.68-.5.11-.04.24-.03.36-.02,0,0,.01,0,.02,0ZM63.64,40.49c.12.12.2.16.23.22.1.24.11.5.05.87-.29-.3-.3-.33-.28-1.09ZM97.58,56.1c.2.09.38.22.55.38.03.03.04.07.06.11.05.08-.03.22-.13.23-.06,0-.13.02-.18,0-.43-.23-.93-.35-1.24-.77.03-.03.06-.08.1-.08.31-.02.59.02.84.14ZM65.32,41.5c.14.35.24.72.22,1.11-.01.37-.06.74-.1,1.16-.09-.03-.19-.03-.21-.07-.31-.66-.4-1.35-.13-2.05.02-.05.07-.1.12-.14.01-.01.04,0,.1,0ZM84.87,50.5c.15.07.13.22.12.33-.03.41-.09.82-.14,1.23-.29-.52-.29-1.05-.05-1.58.03,0,.05.02.07.03h0ZM71.98,44.69c.03.08.06.16.08.24-.04.01-.08.03-.12.04l-.05-.26s.05-.01.08-.02ZM87.77,52.47s.04.06.06.09q-.41.29-1.7.35c.06-.06.09-.12.12-.13.5-.11,1.01-.21,1.52-.31,0,0,0,0,0,0h0ZM91.97,54.43c.06.05.08.06.09.08.14.39.12.81.13,1.21,0,.17-.08.32-.29.34-.15-.1-.21-.26-.19-.43.05-.4-.05-.83.26-1.2h0ZM94.4,55.58s.08.07.1.12c.01.03-.02.07-.03.11-.03-.02-.08-.04-.08-.07,0-.05.01-.1.02-.16ZM68.44,43.77c.06.03.13.1.24.22-.23,0-.41,0-.6-.14.19-.08.28-.11.36-.08h0ZM94.46,55.8c.28.45.57.9.83,1.36.07.13.13.3-.02.47-.3-.29-.58-.57-.64-1.01-.03-.2-.13-.39-.19-.59-.02-.07,0-.15.02-.23h0ZM93.27,55.42c.14.05.22.17.28.3.09.22.05.64-.08.98-.26-.19-.33-.46-.36-.74-.02-.19-.13-.41.09-.56.02,0,.04.01.06.02ZM66.42,43.13s.01,0,.02.02c.07.13.15.26.17.4.09.45.16.9.23,1.35,0,.03-.04.06-.06.1-.34-.33-.61-.69-.63-1.2-.02-.31-.02-.32.19-.69.03.01.07.02.09.03h0ZM73.93,46.91c.49.6.3,1.25.31,1.93-.07-.06-.13-.09-.14-.13-.11-.35-.21-.71-.32-1.06-.06-.2-.07-.4,0-.6.01-.04.09-.07.16-.13ZM72.61,46.37c-.38.42-.81.53-1.35.56.05-.39.36-.38.54-.52.22-.16.49-.13.81-.04ZM75.29,47.69s0,.03,0,.05l-.04.03s0-.04,0-.05c0-.01.03-.02.04-.03ZM76.84,48.55s.06.04.09.06c0,.22-.11.38-.27.52-.39.32-.84.49-1.44.58.27-.28.45-.5.67-.68.21-.17.45-.29.69-.43.07-.04.16-.05.24-.05,0,0,.02,0,.03,0h0ZM63.5,42.7s.03.02.05.03c.31.26.66.49.93.86-.24.12-.43.03-.59-.08-.27-.18-.51-.41-.78-.63.15-.18.29-.24.4-.19h0ZM67.67,44.68c.39.33.46.48.5,1.08-.32.02-.3-.29-.42-.45-.13-.17-.22-.39-.09-.62ZM74.61,47.97c.24.37.19.76.2,1.14,0,.06-.09.12-.23.29-.06-.56-.16-.98.02-1.43h0ZM66.03,44.16h0c-.02.15-.03.29-.05.46q-.11-.17.05-.46h0ZM91,55.88c-.05.27-.25.3-.41.37-.55.25-.87.31-1.41.25.5-.34,1.01-.54,1.54-.66.08-.02.18.02.28.04ZM89.62,55.25c-.45.48-.91.68-1.45.69.36-.42.79-.66,1.45-.69ZM92.45,56.95c.05.02.11.06.19.09-.66.5-1.36.4-2.03.42-.04-.17.05-.24.14-.27.17-.07.35-.13.53-.16.34-.05.69-.09,1.04-.11.04,0,.09.01.14.04h0ZM66,45.11s0,.05.01.08c-.03-.01-.05-.02-.08-.03.02-.02.05-.03.07-.05h0ZM65.46,44.89c.16.07.31.16.45.27-.48.39-1.01.35-1.56.17-.18-.06-.18-.26-.02-.39.25-.19.52-.23.82-.16.11.03.21.06.31.11h0ZM88.04,55.27c-.35.36-.54.46-1.22.59.32-.39.7-.58,1.22-.59ZM67.15,45.76c.07.03.15.07.24.12-.16.2-.37.3-.71.36q-.23.04-.6-.18c.43-.45.57-.52,1.07-.29h0ZM73,48.69c.33.43.46.86.51,1.31.02.19.09.41-.07.59-.43-.42-.6-1.1-.45-1.9ZM76.21,50.18c.07.03.12.11.1.19-.02.1-.04.22-.11.28-.17.17-.35.38-.57.47-.47.2-.97.34-1.55.53.07-.17.09-.26.14-.33.17-.2.35-.39.52-.58.28.04.49-.14.72-.26.2-.11.4-.22.61-.32.05-.02.09-.02.14,0h0ZM93.93,58.86c.12.05.25.12.37.17.08.04.14.14.28.29-.43.18-.76.21-1.11.09-.19-.07-.39-.15-.58-.23-.21-.09-.41-.19-.62-.27-.19-.07-.38-.13-.58-.19.04-.05.07-.11.09-.11.59.04,1.19.05,1.78.13.13.02.25.06.38.11h0ZM87.03,56.13c.03.07.06.11.05.12-.04.04-.08.07-.13.09-.02,0-.06-.04-.08-.07.05-.04.1-.09.16-.14h0ZM84.97,55.43s-.03.03-.04.04c0-.01-.02-.02-.03-.03.02,0,.05,0,.07,0ZM67.53,47.53c.19.16.15.33.15.49,0,.53-.05,1.06-.26,1.64-.27-.62-.28-1.21-.24-1.81.01-.17.13-.3.35-.32ZM72.37,50.13s.03.01.04.02c.37.36.49.8.39,1.43-.34-.46-.48-.95-.66-1.52.11.03.18.04.23.06ZM90.2,58.67c.52.23.8.59.95,1.12-.2.02-.33-.11-.41-.21-.21-.26-.5-.48-.54-.91ZM73.12,50.89c.24.16.28.32.29.49.01.16.01.32,0,.48,0,.06-.08.12-.16.24-.15-.42-.1-.78-.12-1.21ZM65.51,47.41c.12.06.15.2.18.33.15.51.3,1.03.45,1.54.02.07.02.15.04.3-.14-.1-.24-.14-.3-.21-.3-.35-.49-.76-.65-1.18-.04-.11-.05-.24-.06-.37-.02-.26.08-.45.23-.44.04,0,.07.01.1.03ZM68.58,48.98c.18.17.21.36.21.54,0,.57-.01,1.13-.17,1.68-.4-.72-.41-1.45-.04-2.22ZM83.94,56.06s.02.03.03.05c-.03.01-.06.03-.09.04.02-.03.04-.06.06-.08ZM79.19,53.95c-.06.11-.12.23-.19.34-.64.62-1.18,1.33-1.7,2.05-.3.42-.59.85-.88,1.28-.07.1-.18.31-.46.68s-.73.92-.77,1.02h-.02s.75-1.2.89-1.4c.31-.47.54-.78.74-1.11.36-.6.8-1.14,1.25-1.67.22-.27.46-.52.69-.79.1-.12.23-.21.45-.39h0ZM87.1,57.63c.09.13.15.21.19.3.2.42.22.88.23,1.33,0,.05-.06.13-.09.14-.07,0-.18-.01-.21-.06-.07-.1-.12-.22-.15-.33-.11-.44-.15-.88.03-1.38h0ZM88.51,58.28s.01,0,.02.01c.39.35.7.76.9,1.25.07.17.05.33-.06.46-.19.29-.33-.03-.4-.15-.22-.47-.64-1.08-.7-1.81,0-.05.22.22.25.23ZM83.84,56.17c-.07.23-.28.34-.45.48-.95.78-1.92,1.53-2.87,2.31-1.4,1.15-2.8,2.29-4.17,3.48-.61.53-1.14,1.15-1.71,1.73-.44.44-.88.88-1.34,1.31-.16.15-.37.25-.59.39.07-.43.27-.84.56-1.07,1.13-.95,2.17-1.99,3.25-2.99.32-.3.68-.55,1.01-.84.28-.25.54-.52.81-.78.09-.09.16-.19.26-.27.71-.54,1.43-1.07,2.15-1.6.25-.19.51-.36.76-.54.71-.51,1.42-1.02,2.13-1.53.06-.04.14-.04.21-.06ZM75.25,52.26s.06.03.09.05c-.59.49-1.25.7-1.93.65-.02-.43.42-.45.62-.69.39-.09.79-.21,1.22,0h0ZM71.43,50.51c.03.2.08.41.1.61.17,2.24.23,4.48.11,6.73-.04.73-.02,1.45-.05,2.18-.04.71-.11,1.41-.18,2.11-.02.16-.07.33-.1.49-.05.21-.17.38-.36.46-.14-.03-.17-.13-.16-.23.03-.23.08-.45.11-.68.14-.99.31-1.97.4-2.96.08-.85.07-1.7.08-2.55,0-.89,0-1.78.07-2.67.04-.62-.04-1.24-.06-1.86-.02-.53-.04-1.07-.06-1.6.04,0,.08-.01.12-.02ZM69.78,49.86c.25.2.22.48.21.73-.01.38,0,.78-.36,1.12-.35-.65-.29-1.28.15-1.85ZM62.91,46.9c.17.08.3.2.41.35.36.45.7.91,1.06,1.38-.67-.22-1.15-.62-1.6-1.32q-.1-.16-.06-.47c.07.01.13.03.18.06ZM85.95,57.72c.15.27.2.52.08.77-.05.1-.12.22-.31.14-.03-.3-.05-.61.23-.91ZM65.17,49.65c.2.08.38.21.62.44-.87.14-1.59-.14-2.31-.38-.11-.04-.11-.05-.29-.31.24-.14.48-.05.72-.02.29.04.57.1.85.16.16.03.29.06.41.11h0ZM68.63,51.25c.05.07.09.14.15.23-.23-.02-.18-.13-.15-.23ZM69.08,51.69q.25.14.39.4c-.21-.08-.31-.19-.39-.4ZM66.85,51c.08.04.16.08.25.13-.1.04-.17.1-.23.09-.36-.03-.7,0-1.05.1-.19.05-.37.03-.51-.13.49-.37.97-.44,1.54-.19h0ZM68.4,52.1c-.57.22-1.09.36-1.63.32-.05,0-.09-.07-.14-.12.23-.29.51-.44.87-.39.28.04.57.03.9.18ZM69.2,52.99c.08.12.04.19-.05.2-.39.06-.76-.02-1.23-.2.53-.29.9,0,1.28,0h0ZM72.98,67.24c.46.21.88.5,1.3.78.93.61,1.61,1.4,1.84,2.55.15.73.15,1.43.09,2.17-.11,1.42-.67,2.65-1.47,3.79-.64.9-1.06,1.23-1.84,1.64-.26-.13-.52-.26-.77-.4-.63-.34-1.31-.5-2.03-.58-.31-.03-.61-.14-.91-.22-.09-.02-.18-.05-.31-.09.28.4.45.47,1.33.6.03.02.07.04.09.07.4.59,1.04.72,1.66.89.16.04.32.08.48.13.09.03.18.09.29.15,0,.27-.12.5-.21.72-.57,1.3-1.12,2.6-1.74,3.87-.45.91-.97,1.79-1.6,2.61-.15.2-.28.41-.41.62-.21.32-.29.36-.61.23-.62-.26-1.27-.39-1.92-.56-.13-.03-.28-.02-.49-.04.08.13.1.23.15.24.77.21,1.39.72,2.12,1.02.03.01.05.06.11.12-.03.26-.15.53-.28.78-.32.61-.65,1.21-.99,1.8-.42.74-.86,1.48-1.3,2.21-.51.84-.99,1.69-1.55,2.49-.61.87-1.14,1.78-1.57,2.76-.26.59-.76.8-1.38.65-.33-.08-.61-.26-.87-.48-.08-.07-.19-.11-.33-.18.17.51.65.94,1.57,1.41-.02.11-.03.23-.06.34-.27.81-.56,1.61-1.03,2.34-.06.09-.11.18-.15.27-.45,1.19-1.23,2.16-2.07,3.09-.43.48-.86.97-1.27,1.46-.32.39-.51.86-.7,1.32-.23.58-.46,1.16-.7,1.74-.05.13-.13.26-.21.38-.09.14-.2.26-.29.37-.33.05-.55-.11-.77-.27-.11-.08-.25-.18-.39-.01.19.51.8.26,1.09.58,0,.07,0,.13-.01.19-.2.81-.55,1.57-.88,2.33-.15.35-.45.6-.71.86-.13.13-.28.17-.46.13-.2-.05-.4-.1-.6-.17-.21-.07-.42-.17-.74-.29.14.64.67.68,1.05.92-.08.26-.26.43-.41.63-.31.41-.63.82-.86,1.29-.15.31-.4.58-.6.87-.39.03-.71-.08-.98-.33-.12-.11-.23-.24-.36-.35-.05-.05-.14-.05-.24-.09,0,.1,0,.17.02.21.15.29.41.51.56.81.06.13.25.2.42.32-.04.08-.07.17-.14.25-.18.2-.37.39-.57.59-.19-.06-.33-.31-.58-.19,0,.03-.02.06-.01.06.17.12.33.23.52.36-.12.39-.3.73-.55,1.05-.21-.06-.4-.12-.59-.17-.1.11-.06.16.02.22.07.04.15.08.21.13.11.09.13.22.05.34-.21.28-.4.59-.71.78-.39.23-.66.56-.89.95-.06.11-.13.22-.21.31-.45.47-.77,1.03-1.08,1.6-.14.25-.25.52-.52.68.2-.57.37-1.12.59-1.66.14-.36.2-.72.18-1.1-.04-.74.12-1.44.33-2.14.21-.72.51-1.41.86-2.13.11.12.21.21.29.32.14.19.29.35.59.36-.02-.09-.01-.19-.06-.23-.36-.3-.27-.77-.46-1.13-.04-.07.03-.2.06-.3.18-.53.37-1.06.56-1.59.08-.23.16-.47.24-.71.05-.15.12-.3.18-.47.42.23.69.68,1.24.56-.02-.07-.03-.16-.05-.17-.47-.09-.81-.39-1.14-.77.3-.63.34-1.41.85-2.01.65.1,1.23.48,1.89.47.06-.16-.04-.18-.1-.22-.46-.28-.92-.56-1.39-.84-.12-.07-.16-.19-.14-.32,0-.06.03-.12.04-.18.1-.51.29-1,.23-1.53,0-.08.03-.16.05-.24.16-.73.3-1.47.49-2.19.2-.79.43-1.56.76-2.31.35-.78.66-1.57,1.06-2.32.03-.05.08-.12.08-.17-.06-.44.16-.79.34-1.16.09-.18.11-.4.13-.61.07-.96.33-1.88.54-2.81.04-.18.07-.37.1-.55.06-.45.1-.55.43-1.04.26.15.52.3.78.44-.16-.36-.55-.46-.77-.77-.05-.2.01-.4.1-.59.2-.38.2-.85.5-1.22.08.06.15.09.21.15.72.68,1.54,1.12,2.57,1.06.18-.01.37,0,.67-.02-.09-.1-.12-.18-.17-.19-.59-.08-1.06-.47-1.63-.62-.18-.05-.35-.13-.53-.19-.2-.06-.37-.18-.52-.33-.38-.39-.5-.8-.34-1.36.18-.63.45-1.21.69-1.8.28-.7.52-1.39.53-2.15,0-.42.13-.82.3-1.2.19-.42.39-.82.57-1.24.21-.48.38-.97.59-1.44.18-.4.38-.78.59-1.16.12-.22.41-.27.58-.09.48.48,1.08.77,1.69,1.03.13.06.27.1.42.13.33.07.65.11.95.27.09.05.21.02.21-.14-.03-.12-.14-.13-.23-.18-.15-.08-.33-.12-.44-.23-.37-.35-.86-.51-1.27-.8-.26-.18-.56-.27-.87-.32-.23-.03-.45-.06-.69-.09-.13-.32-.15-.64-.11-.98.08-.69.23-1.35.42-2.01.25-.88.54-1.75.76-2.64.17-.73.42-1.44.65-2.15.11-.35.17-.37.55-.34.12,0,.25.03.37,0,.52-.13.99.07,1.47.2.09.02.19.1.25.17.18.25.43.29.74.32-.02-.1-.02-.17-.05-.2-.38-.29-.78-.55-1.26-.66-.55-.12-1.07-.34-1.71-.24.04-.17.05-.31.1-.43.41-1.11.85-2.22,1.25-3.33.3-.85.71-1.64,1.16-2.42.37-.65.81-1.26,1.39-1.75.24-.2.45-.44.69-.63.5-.39,1.01-.67,1.71-.5.63.15,1.25.28,1.83.57.11.06.24.11.36.1.32,0,.61.12.9.22.75.26,1.51.48,2.18.91.05.03.11.06.17.08.31.06.59.17.87.29h0Z" fill="#1b1b1b"/></g><g id="g172"><path id="path174" d="M97.15,43.97c.02-.09-.05-.21.11-.24,0,0,0-.01,0-.01-.04.08-.07.16-.11.24h.01Z" fill="#1b1b1b"/></g><g id="g176"><path id="path178" d="M65.33,79.47c-.39-.18-.68-.31-.98-.45-.08-.03-.15-.1-.22-.1-.43-.02-.73-.29-1.02-.55-.37-.32-.79-.53-1.25-.66-.52-.15-1.03-.3-1.55-.46-.08-.02-.17-.04-.23-.09-.06-.04-.1-.12-.11-.19,0-.03.07-.11.12-.11.49-.08.99-.18,1.47.02.44.18.87.38,1.3.59.14.07.28.19.38.32.19.24.42.4.7.48.52.15.89.51,1.28.85.06.05.06.17.11.34" fill="#1b1b1b"/></g><g id="g180"><path id="path182" d="M68.33,83.38c-.38-.04-.66-.22-.93-.39-.32-.19-.64-.38-1.03-.41-.22-.02-.37-.17-.53-.3-.12-.1-.25-.24-.4-.27-.35-.09-.65-.26-.98-.38-.41-.15-.84-.23-1.25-.35-.1-.03-.2-.06-.28-.12-.09-.06-.12-.16-.04-.26.57.04,1.14.08,1.72.11.3.02.57.12.82.26.29.16.58.33.86.49.09.05.18.11.25.19.37.46.88.74,1.38,1.05.15.09.34.15.42.39" fill="#1b1b1b"/></g><g id="g184"><path id="path186" d="M68.39,73.5c-.1.02-.17.05-.21.03-.25-.15-.5-.3-.72-.49-.2-.17-.41-.27-.67-.3-.19-.02-.37-.05-.55-.09-.34-.08-.67-.18-.97-.4-.37-.27-.75-.53-1.24-.51-.11,0-.25-.06-.33-.14-.35-.32-.76-.41-1.21-.33-.06.01-.12,0-.17-.01-.05-.1-.03-.17.07-.19.37-.06.74-.11,1.1.06.15.07.32.09.48.1.38,0,.73.14,1.09.23.91.24,1.66.74,2.43,1.25.32.21.62.46.91.79" fill="#1b1b1b"/></g><g id="g188"><path id="path190" d="M56.57,88.08c.6.17,1.11.31,1.62.46.33.09.58.31.83.52.28.24.55.5.82.75.02.02.02.07.05.16-.15,0-.29,0-.41-.03-.19-.07-.37-.18-.56-.27-.24-.11-.49-.21-.74-.32-.13-.06-.28-.1-.39-.18-.38-.28-.72-.61-1.15-.83-.04-.02-.04-.11-.08-.25" fill="#1b1b1b"/></g><g id="g192"><path id="path194" d="M62.72,95.39c-.18-.02-.36-.08-.54-.06-.18.02-.35.11-.53.17-.15.05-.28.03-.41-.06-.39-.27-.79-.53-1.18-.8-.15-.11-.3-.22-.44-.34-.05-.04-.05-.14-.1-.28.16.06.26.07.34.12.31.22.65.37,1.02.44.56.1,1.08.31,1.56.6.09.05.19.09.28.13,0,.02,0,.05,0,.07" fill="#1b1b1b"/></g><g id="g196"><path id="path198" d="M54.61,102.74c-.07.05-.1.09-.13.09-.59-.08-1.19-.13-1.71-.47-.12-.08-.23-.18-.31-.29-.1-.13-.06-.28.02-.41.06-.1.16-.13.27-.09.04.01.08.04.11.06.46.47,1.05.73,1.64.99.03.02.06.05.12.11" fill="#1b1b1b"/></g><g id="g200"><path id="path202" d="M59.3,100.87c-.35.04-.61.05-.88.09-.24.04-.47.02-.66-.12-.31-.24-.6-.51-.89-.77-.02-.02,0-.11.03-.16.01-.02.08-.04.11-.02.12.07.23.19.36.24.23.09.47.17.71.2.38.06.72.18,1.06.35.05.02.07.08.15.18" fill="#1b1b1b"/></g><g id="g204"><path id="path206" d="M68.65,70.9c-.17.18-.3.13-.41.08-.37-.15-.74-.28-1.09-.47-.31-.17-.67-.31-.8-.71-.02-.07-.15-.12-.24-.16-.15-.06-.34.03-.47-.17.08-.03.16-.07.23-.06.42.03.79.17,1.11.49.28.27.63.47.96.67.21.13.45.21.72.33" fill="#1b1b1b"/></g><g id="g208"><path id="path210" d="M64.75,88.83c.45.33.94.54,1.45.72.05.02.12.09.11.12-.02.07-.06.16-.12.18-.42.16-.83.06-1.12-.29-.16-.19-.31-.39-.55-.49-.05-.02-.09-.13-.09-.21,0-.07.18-.11.27-.07.02,0,.04.02.05.02" fill="#1b1b1b"/></g><g id="g212"><path id="path214" d="M55.78,97.55c.1,0,.17-.01.21.02.33.28.72.39,1.13.48.21.04.38.1.49.32.06.12.21.19.37.31-.11.03-.19.07-.24.05-.46-.19-.91-.38-1.36-.6-.18-.09-.35-.22-.5-.35-.05-.04-.06-.14-.09-.24" fill="#1b1b1b"/></g><g id="g216"><path id="path218" d="M70.82,81.05c-.33-.04-.62-.1-.87-.32-.12-.1-.3-.14-.44-.23-.1-.06-.18-.16-.3-.27.38-.18.7-.03.98.1.29.14.56.34.63.71" fill="#1b1b1b"/></g><g id="g220"><path id="path222" d="M52.31,108.89s-.06.13-.1.13c-.19.01-.36-.02-.52-.15-.15-.11-.31-.2-.48-.29-.4-.21-.44-.26-.65-.78.05-.09.13-.12.19-.05.29.37.7.58,1.1.8.16.09.35.14.45.33" fill="#1b1b1b"/></g><g id="g224"><path id="path226" d="M62.13,92.43c.47-.15.82.04,1.17.22.29.15.63.24.78.6-.06.02-.13.08-.15.07-.49-.33-1.04-.51-1.58-.72-.08-.03-.14-.11-.21-.17" fill="#1b1b1b"/></g><g id="g228"><path id="path230" d="M60.26,87.24c.3-.16.7-.15,1,0,.32.17.58.49.62.77-.04,0-.1.03-.11.02-.25-.27-.56-.41-.91-.51-.21-.06-.45-.08-.6-.28" fill="#1b1b1b"/></g><g id="g232"><path id="path234" d="M56.19,106.93c-.19.11-.37.05-.55.02-.35-.06-.68-.19-.99-.36-.12-.07-.21-.19-.31-.29-.02-.02-.02-.09,0-.11.04-.04.1-.08.15-.07.08.01.16.05.22.1.28.27.62.4,1,.47.18.03.35.08.49.24" fill="#1b1b1b"/></g><g id="g236"><path id="path238" d="M65.09,70.26c-.33.06-.54-.09-.76-.17-.12-.04-.21-.13-.33-.18-.3-.15-.58-.32-.93-.34-.04,0-.11-.08-.11-.13,0-.1.09-.14.17-.12.18.04.37.07.53.15.46.24.9.5,1.42.79" fill="#1b1b1b"/></g><g id="g240"><path id="path242" d="M72.99,73.03c.28-.22.57-.15.83-.04.32.13.63.3.94.47.05.03.06.13.12.25-.14-.02-.22-.02-.29-.05-.19-.08-.37-.19-.56-.27-.34-.13-.62-.43-1.05-.36" fill="#1b1b1b"/></g><g id="g244"><path id="path246" d="M73.33,71.18c-.54-.3-1.04-.69-1.69-.82.05-.07.07-.14.1-.14.63.06,1.13.38,1.6.77.02.02.03.07.03.11,0,.02-.01.04-.03.09" fill="#1b1b1b"/></g><g id="g248"><path id="path250" d="M65.49,77.06c-.56-.54-1.23-.66-1.95-.93.64.02,1.18.18,1.7.5.12.07.27.13.25.44" fill="#1b1b1b"/></g><g id="g252"><path id="path254" d="M53,111.22q-.56.04-.99-.29c.01-.1.07-.15.17-.12.2.06.4.11.59.19.08.03.14.13.23.22" fill="#1b1b1b"/></g><g id="g256"><path id="path258" d="M55.13,100.94c-.46.03-.65-.17-.85-.37-.08-.09-.09-.26-.03-.26.07,0,.15.03.21.07.14.08.28.17.4.27.07.06.13.14.26.3" fill="#1b1b1b"/></g><g id="g260"><path id="path262" d="M57.8,104.44c-.35-.05-.7-.12-1.07-.38.13-.03.21-.08.26-.06.29.09.57.2.86.31-.02.04-.03.09-.05.13" fill="#1b1b1b"/></g><g id="g264"><path id="path266" d="M50.43,115.72c.26-.14.49-.06.91.34-.32.04-.41,0-.91-.34" fill="#1b1b1b"/></g><g id="g268"><path id="path270" d="M54.43,107.64c-.46-.06-.85-.27-1.22-.52-.05-.04-.07-.12-.12-.2.07,0,.12-.02.15,0,.4.24.79.48,1.19.73" fill="#1b1b1b"/></g><g id="g272"><path id="path274" d="M46.23,120.2c.33.08.43.35.62.48-.02.15-.11.17-.18.12-.2-.13-.36-.31-.44-.6" fill="#1b1b1b"/></g><g id="g276"><path id="path278" d="M58.08,102.64q.35-.14.8.2c-.31.03-.52-.1-.8-.2" fill="#1b1b1b"/></g></g></svg>