<?xml version="1.0" encoding="UTF-8"?><svg id="Layer_1" xmlns="http://www.w3.org/2000/svg" viewBox="0 0 144.57 144.57"><path d="M126.44,28.32h-1.02s-.05,0-.05,0c-1.07.47-1.56,1.3-1.45,2.48.11,1.12.79,1.83,1.82,1.88.05,0,.1,0,.15,0,1.03,0,1.75-.59,1.98-1.63.29-1.29-.14-2.11-1.43-2.73ZM125.93,31.93h-.01c-.76,0-1.21-.53-1.21-1.4,0-.49.14-.88.41-1.14.21-.21.49-.32.81-.32h.02c.72,0,1.17.54,1.17,1.38,0,.52-.14.92-.39,1.18-.2.2-.46.3-.79.3Z" fill="#1d1d1b" stroke-width="0"/><path d="M18.37,49.48c0-.16-.02-.4-.18-.5-.17-.11-.41-.03-.59.06l-.07.03v1.39h-1.7v-1.53h-.83v4.14l.87-.06v-1.72h1.69v1.65l.08.03c.18.07.41.13.58.02.16-.11.17-.32.17-.48-.01-.95-.01-1.94,0-3.02Z" fill="#1d1d1b" stroke-width="0"/><path d="M122.6,31.55c-.19.03-.39.07-.56.17-2.82,1.65-4.99,2.94-7.04,4.18-.34.21-.56.21-.91,0-1.67-.97-3.35-1.94-5.02-2.91-1.9-1.09-3.79-2.19-5.68-3.29-.43-.25-.76-.25-1.21.01-3.64,2.12-7.3,4.23-10.87,6.27-.45.26-.62.54-.62,1.05.01,2.04.01,4.08.01,6.12,0,2.06,0,4.13.01,6.19,0,.43-.13.65-.52.88-3.75,2.14-7.14,4.09-10.35,5.97-.44.25-.71.26-1.13.01-2.02-1.18-4.07-2.37-6.06-3.52-1.53-.88-3.06-1.77-4.59-2.66-.4-.23-.71-.23-1.11,0-1.62.94-3.24,1.88-4.86,2.81-1.95,1.13-3.9,2.25-5.85,3.39-.38.22-.63.22-1.02,0-1.86-1.08-3.72-2.16-5.58-3.23-1.69-.98-3.38-1.95-5.07-2.94-.43-.25-.75-.25-1.16,0-1.86,1.08-3.72,2.16-5.59,3.24-1.72,1-3.45,1.99-5.17,2.99-.32.19-.54.19-.87,0-1.86-1.08-3.76-2.16-5.6-3.21l-1.77-1.01s-.07-.04-.1-.06c-.09-.06-.19-.12-.31-.15-.1-.02-.2.03-.28.07-.03.01-.06.03-.08.04l-.12.04.04.12s.01.05.02.07c.02.08.04.17.12.23.1.08.22.15.33.21l1.91,1.09c1.79,1.02,3.64,2.08,5.47,3.1.36.2.48.41.48.84,0,2.01,0,4.02-.01,6.02,0,2.09,0,4.19-.01,6.28,0,.52.16.8.61,1.06,1.6.91,3.19,1.83,4.78,2.75,1.91,1.1,3.89,2.24,5.84,3.35.42.24.55.48.55.98-.02,1.95-.02,3.93-.01,5.85v1.97s0,.08,0,.13c0,.12,0,.25.02.38.02.1.1.17.17.23.02.02.05.04.06.06l.09.1.09-.1s.04-.04.06-.06c.07-.06.15-.13.17-.23.03-.13.03-.26.02-.38,0-.04,0-.08,0-.13v-1.97c0-1.92,0-3.9-.01-5.85,0-.5.13-.74.55-.98,2.03-1.15,4.09-2.34,6.08-3.49,1.53-.88,3.06-1.77,4.6-2.64.4-.23.56-.5.56-.97-.02-1.55-.01-3.12-.01-4.65v-3.12c0-1.53,0-3.11,0-4.66,0-.38.1-.57.42-.75,3.59-2.05,7.15-4.1,10.56-6.09.34-.2.56-.19.91.01,1.74,1.01,3.48,2.01,5.22,3.02,1.81,1.05,3.63,2.09,5.44,3.15.47.27.82.28,1.27.01,2.03-1.19,4.07-2.36,6.1-3.54,1.53-.89,3.07-1.77,4.6-2.66.32-.19.54-.19.85,0,1.75,1.02,3.5,2.03,5.25,3.04,1.84,1.06,3.68,2.12,5.51,3.19.42.24.73.24,1.16,0,3.61-2.1,7.29-4.22,10.92-6.3.43-.24.59-.52.59-1.01,0-1.92,0-3.83,0-5.75,0-2.19,0-4.37-.01-6.56,0-.46.13-.69.54-.93,2.41-1.4,4.78-2.82,6.99-4.15.16-.1.28-.24.4-.38.05-.06.1-.12.16-.18l.3-.31-.42.11c-.08.02-.16.03-.24.05ZM91.35,37.26c0-.39.1-.58.42-.76,3.42-1.95,6.99-4.01,10.61-6.12.15-.09.28-.13.41-.13.14,0,.28.05.45.15,3.87,2.25,7.32,4.24,10.56,6.08.34.19.45.39.44.8-.02,1.5-.01,3.01-.01,4.48v1.58c0,.54,0,1.07,0,1.61,0,1.44,0,2.93.02,4.4,0,.43-.13.65-.52.88-3.39,1.94-6.91,3.96-10.45,6.02-.36.21-.58.21-.91.02-3.2-1.86-6.65-3.86-10.55-6.09-.33-.19-.45-.38-.44-.74.02-3.69.02-7.67,0-12.18ZM32.57,65.31v-1.59s0-1.59,0-1.59c0-1.48,0-3.02,0-4.53,0-.39.1-.57.42-.75,3.3-1.88,6.77-3.88,10.61-6.12.15-.09.28-.13.4-.13s.25.04.4.13c3.38,1.97,6.87,3.98,10.66,6.15.28.16.37.32.37.66-.01,4.6-.01,8.62,0,12.3,0,.34-.1.51-.42.69-3.75,2.15-7.22,4.15-10.61,6.12-.31.18-.51.18-.81,0-3.62-2.1-7.19-4.16-10.61-6.11-.32-.18-.42-.37-.42-.75.01-1.49.01-3.01.01-4.47Z" fill="#1d1d1b" stroke-width="0"/><path d="M44.02,87.84h-.04c-1.21.02-1.98.88-1.97,2.21,0,.68.22,1.25.61,1.63.35.34.82.52,1.36.52.02,0,.03,0,.05,0,1.21-.02,2.01-.93,2.01-2.27,0-.65-.2-1.19-.58-1.56-.35-.35-.86-.53-1.45-.53ZM45.21,89.98c0,.51-.14.92-.4,1.17-.2.19-.46.29-.78.29h-.04c-.77-.02-1.2-.54-1.19-1.42,0-.49.15-.88.41-1.13.21-.2.48-.3.81-.3.01,0,.02,0,.04,0,.72.02,1.15.54,1.14,1.4Z" fill="#1d1d1b" stroke-width="0"/><path d="M20.68,48.8c-.57,0-1.06.2-1.43.57-.4.4-.61.99-.6,1.66,0,.67.22,1.23.62,1.61.35.34.83.52,1.38.52.02,0,.04,0,.06,0,1.21-.03,2.01-.94,2-2.27-.02-1.28-.79-2.08-2.02-2.08ZM21.88,50.94c0,.51-.15.92-.41,1.17-.21.2-.47.31-.8.3-.76-.01-1.2-.53-1.19-1.41,0-.49.14-.88.41-1.14.21-.21.51-.32.83-.31.71.01,1.17.56,1.17,1.39Z" fill="#1d1d1b" stroke-width="0"/><path d="M131.71,28.99c0-.16-.01-.39-.18-.5-.17-.11-.41-.03-.6.05l-.07.03v1.39h-1.7c0-.07,0-.15,0-.22,0-.28.01-.53-.02-.79-.02-.14-.11-.25-.2-.36-.03-.04-.07-.08-.1-.12l-.1-.15-.1.15s-.06.08-.1.12c-.09.11-.19.22-.2.37-.01.58-.01,1.18-.01,1.75,0,.43,0,.85,0,1.28,0,.16.01.39.18.5.06.04.12.05.19.05.13,0,.27-.05.39-.11l.07-.03v-1.61h1.71v1.65l.08.03c.19.07.42.13.58.01.15-.11.17-.32.17-.48-.01-.93-.01-1.92,0-3.03Z" fill="#1d1d1b" stroke-width="0"/><path d="M49.49,88.1s-.07-.07-.1-.1l-.1-.13-.1.13s-.06.07-.09.11c-.08.09-.18.2-.19.33-.03.29-.02.57-.02.85v.2s-1.73,0-1.73,0c0-.07,0-.15,0-.22,0-.29,0-.56-.02-.84-.01-.13-.11-.24-.19-.33-.03-.04-.06-.07-.09-.11l-.1-.13-.1.13s-.06.07-.1.1c-.1.1-.2.2-.2.33-.02,1.05-.02,2.11,0,3.15,0,.13.11.24.2.33.03.04.07.07.1.11l.1.13.1-.13s.06-.07.09-.1c.09-.09.18-.2.19-.33.02-.33.02-.66.02-1.01,0-.09,0-.18,0-.27h1.67c.1.19.07.43.05.67-.04.39-.09.83.41,1.09l.05.03.36-.15v-.84c0-.88,0-1.79-.01-2.69,0-.13-.11-.24-.21-.33Z" fill="#1d1d1b" stroke-width="0"/><path d="M76.01,58.63c-.08-.12-.15-.24-.28-.31-2.18-1.27-4.36-2.53-6.54-3.78l-1.01-.58c-.08-.05-.17-.09-.26-.14l-.21-.11-.06.06s-.03.03-.05.04c-.06.04-.12.09-.15.16-.04.1-.03.26.05.35.08.08.18.13.27.19l1.3.75c2.12,1.23,4.25,2.45,6.37,3.67.12.07.26.07.4.06.05,0,.1,0,.16,0l.28.02-.17-.22s-.06-.09-.09-.13Z" fill="#1d1d1b" stroke-width="0"/><path d="M110.9,47.65c0,.15.07.29.13.42.03.05.05.11.07.17l.11.29.12-.28c.02-.05.05-.1.08-.16.07-.13.14-.27.15-.42.01-2.89.01-5.81,0-8.66,0-.15-.08-.29-.15-.42-.03-.05-.06-.1-.08-.15l-.13-.28-.11.29c-.02.06-.05.11-.07.17-.06.14-.13.28-.13.43-.01,1.08-.01,2.18-.01,3.25v.99s0,1.02,0,1.02c0,1.09,0,2.23.01,3.34Z" fill="#1d1d1b" stroke-width="0"/><path d="M94.21,48.33c.06.11.13.23.25.29,2.68,1.56,5.29,3.06,7.76,4.47.06.04.14.05.21.05.06,0,.11,0,.17-.01.05,0,.09-.01.14-.01h.22s-.12-.19-.12-.19c-.02-.03-.04-.07-.06-.11-.05-.1-.1-.22-.21-.28-2.31-1.34-4.62-2.67-6.93-4.01l-1.2-.69-.37.27.07.1s.05.08.08.12Z" fill="#1d1d1b" stroke-width="0"/><path d="M94.31,38.65c.06,0,.11-.01.17-.02.15-.01.3-.02.43-.1,2.41-1.38,4.86-2.79,7.22-4.16l.39-.23c.08-.05.16-.11.25-.17l.2-.14-.04-.09c-.08-.19-.18-.29-.3-.33-.17-.05-.32.06-.44.15-.03.02-.07.05-.1.07-2.49,1.42-4.98,2.86-7.46,4.29-.11.06-.21.13-.31.2l-.21.14.07.41.12-.02Z" fill="#1d1d1b" stroke-width="0"/><path d="M43.44,73.46c.06.03.12.04.19.04.05,0,.11,0,.16-.01.04,0,.08-.01.12-.01h.21s-.1-.18-.1-.18c-.02-.03-.03-.07-.05-.11-.04-.1-.09-.22-.19-.29-.4-.25-.81-.48-1.21-.71l-1.94-1.12c-1.52-.88-3.04-1.75-4.56-2.62-.13-.07-.28-.09-.42-.1-.06,0-.12-.01-.17-.02l-.14-.02-.04.47,1.49.86c2.22,1.28,4.43,2.56,6.65,3.83Z" fill="#1d1d1b" stroke-width="0"/><path d="M35.54,59.05s.03.03.05.04l.07.06.21-.12c.09-.05.18-.1.26-.15l7.55-4.36s.04-.02.06-.03c.06-.03.13-.06.19-.13.05-.07.08-.15.11-.23.01-.03.02-.06.03-.08l.06-.15-.16-.03s-.07-.01-.1-.02c-.09-.02-.19-.04-.28-.04-.09,0-.16.05-.22.09-.02.01-.04.03-.05.04-2.5,1.44-5,2.88-7.5,4.33l-.04.02c-.11.07-.23.13-.33.23-.09.08-.09.26-.05.35.03.08.09.12.14.17Z" fill="#1d1d1b" stroke-width="0"/><path d="M52.28,68.47s.06.09.08.13l.13.25.1-.26s.04-.09.06-.13c.06-.12.12-.23.12-.37.01-3.18.01-6.05,0-8.79,0-.14-.08-.26-.16-.38-.03-.04-.06-.09-.08-.13l-.13-.25-.1.26s-.04.09-.06.13c-.06.11-.11.23-.11.36,0,1.14,0,2.28,0,3.42v.95s0,.98,0,.98c0,1.13,0,2.29.01,3.44,0,.14.08.27.15.38Z" fill="#1d1d1b" stroke-width="0"/></svg>