<?xml version="1.0" encoding="UTF-8"?><svg id="Layer_1" xmlns="http://www.w3.org/2000/svg" viewBox="0 0 144.57 144.57"><path d="m19.03,114c.22-.02.45-.03.73-.05v1.91h2.4v-1.86h.64v4.62h-.62v-2.13h-2.39v2.15h-.75c0-1.54,0-3.09,0-4.63Z" stroke="#000" stroke-miterlimit="10" stroke-width=".25"/><path d="m80.14,56.73c-.87,1.2-1.72,2.36-2.56,3.53-1.24,1.7-2.47,3.4-3.71,5.1q-.28.38-.74.23c-3.13-1.02-6.26-2.03-9.38-3.05-.35-.11-.61-.08-.93.1-2.74,1.6-5.49,3.19-8.25,4.75-.36.2-.46.43-.46.82.02,3.24,0,6.48.02,9.72,0,.38-.11.59-.44.78-2.84,1.62-5.66,3.26-8.49,4.88-.3.17-.42.35-.41.71.02,3.21.01,6.42,0,9.62,0,.3.08.49.36.65,2.53,1.45,5.06,2.9,7.58,4.38.28.16.48.14.74-.02,2.1-1.22,4.21-2.44,6.32-3.65.13-.07.26-.14.41-.22.09.14.16.25.25.39-2.28,1.32-4.54,2.62-6.86,3.97.43.19.66.45.52.99.86-.45,1.59-.9,2.35-1.33.76-.43,1.52-.88,2.28-1.32.76-.44,1.51-.87,2.29-1.32.09.14.15.25.24.4-.16.09-.3.18-.44.26-2.09,1.21-4.19,2.42-6.29,3.62-.3.17-.41.36-.41.71.01,2.97,0,5.93.02,8.9,0,.36-.1.56-.42.75-2.94,1.68-5.87,3.37-8.8,5.07-.12.07-.24.13-.37.2-.46-.27-.92-.53-1.38-.8-2.61-1.5-5.21-3.01-7.82-4.5-.28-.16-.4-.33-.4-.67.01-3.4.01-6.81,0-10.21,0-.31.1-.48.37-.64,2.81-1.61,5.6-3.23,8.4-4.85.18-.11.37-.21.58-.34,0-.16,0-.32,0-.49,0-3.27,0-6.54,0-9.81,0-.37.12-.56.43-.74,2.83-1.62,5.66-3.26,8.48-4.89.14-.08.28-.17.43-.26v-10.51c-.51-.3-1.02-.59-1.52-.89-2.47-1.43-4.94-2.86-7.42-4.28-.28-.16-.39-.34-.39-.67.01-3.39,0-6.78,0-10.17v-.42c.13-.08.25-.17.38-.24,2.94-1.7,5.89-3.4,8.83-5.11.29-.17.5-.16.78,0,2.7,1.57,5.42,3.13,8.13,4.7.14.08.29.16.51.28-.22-2.38-.5-4.68-.74-7.03h2.1c-.25,2.37-.5,4.72-.76,7.15,3.27-1.04,6.48-2.1,9.74-3.15v-.55c0-3.24,0-6.48,0-9.72,0-.37.11-.56.43-.74,2.92-1.68,5.84-3.37,8.76-5.06.13-.08.26-.14.42-.23,3.1,1.79,6.2,3.58,9.33,5.39,3.11-1.79,6.22-3.59,9.34-5.4,3.11,1.8,6.21,3.59,9.34,5.4,2.22-1.28,4.44-2.56,6.68-3.86.09.13.16.23.25.36-.09.07-.15.14-.22.18-1.37.8-2.75,1.59-4.12,2.38-.67.39-1.33.79-2.01,1.15-.27.14-.35.31-.34.6.01,2.3,0,4.6,0,6.9,0,.16,0,.33,0,.51h-.5c0-.18,0-.36,0-.53,0-2.27,0-4.54,0-6.81,0-.34-.09-.54-.4-.71-2.77-1.58-5.53-3.17-8.3-4.77-.13-.07-.26-.15-.41-.23-.64.37-1.29.74-1.93,1.11-2.33,1.34-4.67,2.68-6.99,4.04-.32.19-.55.17-.86,0-2.82-1.64-5.65-3.27-8.48-4.9-.13-.08-.26-.15-.42-.24-.11.06-.23.12-.34.18-2.78,1.6-5.55,3.21-8.33,4.8-.29.17-.43.34-.43.7.02,3.24.01,6.48,0,9.72,0,.31.09.55.27.79,1.92,2.63,3.83,5.26,5.74,7.89.12.17.24.34.39.54Zm-26.26,10.5c.15-.08.27-.15.38-.21,2.78-1.6,5.55-3.2,8.33-4.79.3-.17.41-.36.41-.71-.01-3.19,0-6.39,0-9.58v-.45c-.12-.07-.21-.14-.32-.2-2.8-1.62-5.61-3.23-8.4-4.85-.28-.17-.49-.16-.78,0-2.75,1.61-5.52,3.2-8.28,4.79-.14.08-.28.17-.4.25-.01.08-.02.13-.02.17,0,3.34,0,6.69,0,10.03,0,.25.1.37.31.49.76.43,1.52.87,2.28,1.31,2.16,1.25,4.32,2.49,6.5,3.75Zm-.24,32.82c-.12-.08-.23-.15-.35-.22-2.79-1.61-5.57-3.21-8.35-4.83-.29-.17-.49-.16-.78,0-2.77,1.61-5.54,3.21-8.32,4.8-.29.16-.39.34-.39.67.01,3.21.01,6.41,0,9.62,0,.36.12.53.42.7,2.77,1.58,5.52,3.18,8.28,4.77.13.07.26.14.4.22.16-.09.3-.16.44-.25,2.75-1.59,5.49-3.18,8.25-4.75.3-.17.41-.35.41-.71-.02-3.19,0-6.38,0-9.57,0-.15,0-.3,0-.46Zm25.9-43.33c-2.07-2.84-4.1-5.64-6.12-8.42-.14.03-.23.05-.32.08-3.07,1-6.14,1.99-9.21,3-.4.13-.41.02-.41.61,0,3.16,0,6.32,0,9.49,0,.15,0,.3,0,.48,3.31,1.07,6.61,2.14,9.92,3.22,2.05-2.82,4.08-5.62,6.14-8.44Z" stroke="#000" stroke-miterlimit="10" stroke-width=".25"/><path d="m28.19,116.33c-.1.39-.16.8-.31,1.17-.36.84-1.07,1.22-1.94,1.25-.85.03-1.57-.34-1.98-1.12-.46-.86-.45-1.75-.02-2.61.39-.79,1.09-1.14,1.96-1.13.87,0,1.54.37,1.95,1.16.2.38.28.76.34,1.28Zm-3.93.06c.07.28.1.61.23.91.25.56.71.86,1.32.88.63.02,1.13-.23,1.41-.8.36-.72.34-1.47-.03-2.18-.32-.6-.87-.81-1.53-.75-.57.05-1.09.46-1.25,1.03-.08.27-.1.56-.16.91Z" stroke="#000" stroke-miterlimit="10" stroke-width=".25"/><path d="m85.55,47.24h-.57c-.04-.71,0-1.41-.03-2.15h-2.36v2.13h-.58c-.1-.31-.14-4.05-.03-4.65h.6v1.88c.43,0,.81,0,1.2.01.38,0,.75,0,1.18,0v-1.89h.58c.09.3.11,4.09.02,4.67Z" stroke="#000" stroke-miterlimit="10" stroke-width=".25"/><path d="m66.16,92.41h.59v1.87h2.4v-1.86h.61v4.65h-.6v-2.13h-2.4v2.15h-.58c-.1-.34-.11-4.21-.02-4.67Z" stroke="#000" stroke-miterlimit="10" stroke-width=".25"/><path d="m62.06,73.31v2.15h-.63v-4.64c.12-.01.2-.02.29-.02.09,0,.18.01.32.03v1.86h2.38v-1.85h.62v4.64c-.1.01-.2.03-.3.03-.09,0-.18-.01-.3-.02v-2.11c-.41-.11-.8-.04-1.19-.05-.38-.01-.75,0-1.2,0Z" stroke="#000" stroke-miterlimit="10" stroke-width=".25"/><path d="m66.77,40.92v2.19c-.22.01-.41.02-.59.03-.11-.34-.13-4.02-.04-4.65.09-.01.19-.03.3-.03.09,0,.18.01.32.03v1.87h2.39v-1.88h.61v4.64h-.6v-2.16c-.41-.06-.8-.02-1.19-.03-.38,0-.75,0-1.2,0Z" stroke="#000" stroke-miterlimit="10" stroke-width=".25"/><path d="m55.25,32.28v2.09h-.59v-4.63h.6c.04.6,0,1.22.02,1.82.34.09,1.71.11,2.36.03v-1.85h.59c.1.3.13,3.9.04,4.62h-.61v-2.11c-.55-.1-2.06-.08-2.4.03Z" stroke="#000" stroke-miterlimit="10" stroke-width=".25"/><path d="m126.71,34.37c-.13,0-.23.02-.33.02-.07,0-.15-.02-.27-.03v-2.14h-2.39v2.15h-.61v-4.63h.6v1.86h2.38v-1.86h.58c.1.3.13,3.86.03,4.63Z" stroke="#000" stroke-miterlimit="10" stroke-width=".25"/><path d="m117.38,50.53h-.6c-.04-.71,0-1.41-.03-2.15h-2.35v2.14h-.63v-4.61h.61v1.86h2.38v-1.87c.22-.01.41-.02.63-.03v4.66Z" stroke="#000" stroke-miterlimit="10" stroke-width=".25"/><path d="m64.74,41.47c.22.06.39.1.56.15-.11.77-.63,1.4-1.36,1.52-1.32.23-2.35-.2-2.68-1.74-.12-.56-.09-1.11.09-1.65.49-1.43,2.09-1.63,2.98-1.2.45.22.72.57.91,1.17-.19.05-.37.09-.57.14-.05-.09-.1-.17-.14-.24-.23-.49-.61-.72-1.15-.72-.58,0-1.05.22-1.29.76-.33.74-.33,1.51,0,2.24.24.53.72.75,1.3.74.56,0,.94-.27,1.17-.77.06-.12.1-.25.17-.4Z" stroke="#000" stroke-miterlimit="10" stroke-width=".25"/><path d="m65.51,30.99c-.18.05-.37.09-.56.14-.05-.07-.1-.11-.12-.17-.22-.57-.66-.84-1.38-.78-.58.05-1.02.41-1.2,1.01-.17.58-.17,1.16.01,1.74.19.6.66.96,1.27.98.65.03,1.09-.26,1.34-.87.04-.09.08-.19.13-.31.2.05.38.1.56.15-.15.93-.83,1.54-1.73,1.57-.24,0-.49.02-.72-.03-.6-.11-1.05-.44-1.33-.99-.37-.75-.44-1.53-.2-2.33.26-.89,1.07-1.5,2.19-1.48.8.02,1.57.56,1.73,1.36Z" stroke="#000" stroke-miterlimit="10" stroke-width=".25"/><path d="m65.26,93.69c-.21.06-.38.1-.57.15-.05-.09-.11-.18-.16-.27-.22-.48-.61-.7-1.12-.7-.54,0-1.03.18-1.28.7-.38.78-.37,1.59,0,2.36.25.52.73.69,1.28.68.53-.01.92-.27,1.14-.75.06-.12.11-.25.17-.4.19.04.38.08.56.12-.12,1.02-1.05,1.71-2.11,1.6-1.01-.11-1.58-.58-1.86-1.57-.18-.63-.17-1.25.03-1.87.43-1.3,1.95-1.71,2.98-1.22.47.23.77.61.93,1.17Z" stroke="#000" stroke-miterlimit="10" stroke-width=".25"/><path d="m122.29,32.91c-.26.97-.88,1.51-1.72,1.55-1.16.05-1.83-.34-2.2-1.28-.23-.6-.27-1.22-.14-1.83.26-1.28,1.28-1.71,2.14-1.72,1.02,0,1.59.59,1.8,1.18.02.04.01.09.03.18-.18.05-.36.09-.56.14-.05-.09-.09-.14-.12-.21-.25-.58-.71-.79-1.32-.74-.58.04-1.02.36-1.22.92-.22.62-.21,1.25,0,1.87.21.6.67.93,1.3.94.63.01,1.04-.27,1.29-.87.04-.1.08-.19.13-.31.21.06.4.12.59.18Z" stroke="#000" stroke-miterlimit="10" stroke-width=".25"/><path d="m112.87,47.17c-.21.05-.39.09-.58.13-.05-.08-.09-.14-.12-.2-.25-.57-.71-.8-1.31-.75-.6.05-1.02.34-1.22.92-.22.62-.22,1.25,0,1.87.2.59.65.92,1.25.94.66.02,1.08-.25,1.34-.86.04-.1.08-.19.13-.31.2.05.38.1.56.14-.1.79-.7,1.45-1.46,1.55-.33.04-.67.04-.99-.01-.57-.09-1.01-.41-1.28-.92-.44-.84-.5-1.71-.16-2.59.52-1.38,2.17-1.52,3-1.06.43.24.71.6.85,1.14Z" stroke="#000" stroke-miterlimit="10" stroke-width=".25"/><path d="m52.49,77.37c-.15,0-.28.01-.4.02-.09-.34-.12-8.16-.04-8.93.13,0,.27-.01.44-.02v8.93Z" stroke="#000" stroke-miterlimit="10" stroke-width=".25"/><path d="m46.34,93.57c-.1,0-.17,0-.25,0-.04,0-.09-.02-.16-.03v-8.84s.04-.05.06-.05c.1-.01.21-.01.29-.02.13.11.16,8.17.05,8.93Z" stroke="#000" stroke-miterlimit="10" stroke-width=".25"/><path d="m70.15,98.27c.02-.36.2-.6.41-.82.24-.23.5-.44.74-.67.19-.18.37-.36.53-.56.18-.23.24-.49.09-.76-.13-.24-.37-.3-.62-.29-.31.01-.5.18-.59.48-.02.06-.03.11-.04.19-.15-.01-.28-.02-.4-.03.02-.52.22-.84.65-.95.24-.06.51-.09.75-.04.76.15,1.06.89.63,1.53-.16.25-.4.45-.61.66-.25.24-.51.47-.77.71-.02.01,0,.05-.02.13h1.54c.03.16.05.27.07.37-.34.1-1.74.12-2.35.04Z" stroke="#000" stroke-miterlimit="10" stroke-width=".25"/><path d="m117.85,50.84c.15-.02.26-.03.4-.04.03.07.07.14.1.2.11.28.29.45.61.45.38,0,.67-.25.7-.62.04-.41-.2-.7-.61-.75-.1-.01-.21,0-.35,0,.02-.12.03-.22.05-.31.58-.13.74-.26.75-.58,0-.26-.14-.47-.39-.54-.33-.09-.55.06-.84.61-.11-.03-.22-.05-.32-.08-.02-.05-.04-.08-.03-.1.1-.62.7-.96,1.39-.77.57.16,1.03.95.3,1.55.51.39.66.79.48,1.28-.17.46-.71.77-1.25.71-.56-.06-.88-.36-.99-1Z" stroke="#000" stroke-miterlimit="10" stroke-width=".25"/><path d="m71.1,42.64c-.05-.22-.02-.36.21-.37.06,0,.12-.01.18-.03.26-.09.39-.26.39-.5,0-.24-.13-.43-.36-.52-.23-.09-.49-.02-.65.19-.09.12-.14.26-.23.42-.13-.04-.25-.07-.37-.11.06-.75.89-1.12,1.56-.78.55.27.67.89.26,1.35-.04.04-.11.05-.17.07.6.49.73.9.5,1.39-.22.48-.77.75-1.32.64-.54-.11-.82-.42-.85-.98.12-.01.25-.03.36-.04.28.59.54.76.96.62.29-.09.5-.44.46-.75-.05-.41-.34-.6-.94-.59Z" stroke="#000" stroke-miterlimit="10" stroke-width=".25"/><path d="m123.17,32.18c.49.38.65.85.45,1.32-.19.46-.71.72-1.28.65-.54-.07-.85-.38-.92-.97.12-.02.25-.04.31-.05.2.23.34.45.53.59.11.08.33.06.48.02.32-.07.52-.44.47-.78-.05-.38-.3-.54-.97-.59.02-.1.03-.19.05-.28.6-.14.74-.26.75-.58,0-.27-.14-.48-.38-.55-.34-.1-.55.05-.85.61-.12-.03-.24-.07-.36-.1.06-.67.67-1.04,1.39-.85.66.18.98,1.02.31,1.55Z" stroke="#000" stroke-miterlimit="10" stroke-width=".25"/><path d="m59.71,33.91c0-.11.01-.2.01-.24.25-.14.48-.23.68-.38.08-.06.1-.22.1-.33,0-.25-.2-.45-.45-.49-.33-.05-.53.1-.76.61-.12-.02-.24-.05-.37-.07,0-.07-.02-.12,0-.15.2-.65.73-.87,1.36-.72.75.18.91.96.34,1.57.52.39.67.78.47,1.27-.19.48-.69.76-1.25.7-.56-.05-.86-.35-.98-.98.13-.02.25-.04.4-.06.2.57.54.87,1.13.53.25-.14.34-.47.25-.77-.13-.47-.52-.48-.92-.48Z" stroke="#000" stroke-miterlimit="10" stroke-width=".25"/><path d="m62.25,69.72h1.96c.02.14.04.28.07.46h-2.09c.02-.16.05-.3.07-.46Z" stroke="#000" stroke-miterlimit="10" stroke-width=".25"/><path d="m66.74,34.45c-.15-.07-.27-.12-.44-.2.35-.6.68-1.18,1.03-1.8.15.11.26.19.4.29-.34.58-.66,1.13-1,1.7Z" stroke="#000" stroke-miterlimit="10" stroke-width=".25"/><path d="m29.24,115.28c-.15.1-.25.17-.4.28-.36-.58-.68-1.17-1.04-1.79.15-.08.27-.14.43-.22.34.58.66,1.14,1,1.73Z" stroke="#000" stroke-miterlimit="10" stroke-width=".25"/><path d="m80.08,44.82c.17-.08.27-.13.44-.2.21.65.42,1.28.64,1.96-.16.05-.29.09-.46.14-.21-.64-.41-1.25-.62-1.89Z" stroke="#000" stroke-miterlimit="10" stroke-width=".25"/><path d="m62.35,68.89c.01-.15.03-.28.04-.43h1.67c.02.13.04.26.06.38-.32.11-1.08.14-1.77.05Z" stroke="#000" stroke-miterlimit="10" stroke-width=".25"/><path d="m78.97,45.35c.16-.07.28-.13.45-.21.19.58.37,1.12.56,1.72-.19.02-.33.03-.5.05-.17-.53-.34-1.02-.51-1.56Z" stroke="#000" stroke-miterlimit="10" stroke-width=".25"/><path d="m67.43,34.73c.31-.53.58-1.02.88-1.54.14.09.26.17.41.28-.28.49-.55.95-.85,1.46-.15-.07-.29-.13-.44-.19Z" stroke="#000" stroke-miterlimit="10" stroke-width=".25"/><path d="m28.97,113.26c.16-.08.28-.13.43-.21.28.48.55.95.85,1.44-.13.1-.24.18-.39.3-.3-.53-.59-1.02-.89-1.54Z" stroke="#000" stroke-miterlimit="10" stroke-width=".25"/><path d="m77.85,45.87c.15-.07.27-.13.44-.21.16.47.31.92.47,1.39-.17.04-.3.08-.47.12-.15-.44-.28-.85-.44-1.31Z" stroke="#000" stroke-miterlimit="10" stroke-width=".25"/><path d="m69.69,34.22c-.24.41-.46.78-.7,1.18-.15-.06-.27-.11-.44-.18.24-.43.47-.83.73-1.28.15.1.27.19.41.28Z" stroke="#000" stroke-miterlimit="10" stroke-width=".25"/><path d="m30.14,112.75c.17-.07.29-.12.44-.19.22.39.44.76.67,1.17-.12.1-.23.19-.37.31-.25-.44-.48-.84-.74-1.29Z" stroke="#000" stroke-miterlimit="10" stroke-width=".25"/><path d="m63.98,67.59h-1.44v-.41h1.37c.02.13.04.26.06.41Z" stroke="#000" stroke-miterlimit="10" stroke-width=".25"/><path d="m77.56,47.32c-.2.03-.33.05-.49.07-.11-.33-.21-.63-.32-.98.14-.07.26-.14.43-.23.13.39.24.73.38,1.14Z" stroke="#000" stroke-miterlimit="10" stroke-width=".25"/><path d="m70.67,34.95c-.19.33-.36.61-.55.92-.15-.06-.28-.11-.45-.17.21-.35.39-.67.59-1.02.14.1.25.17.4.27Z" stroke="#000" stroke-miterlimit="10" stroke-width=".25"/><path d="m31.29,112.26c.17-.08.29-.13.45-.2.18.31.36.6.55.92-.13.1-.24.18-.39.29-.21-.34-.39-.65-.61-1Z" stroke="#000" stroke-miterlimit="10" stroke-width=".25"/><path d="m63.77,65.88c.01.15.02.26.04.42h-1.18c.03-.15.05-.27.08-.42h1.06Z" stroke="#000" stroke-miterlimit="10" stroke-width=".25"/><path d="m62.81,65.03c.01-.16.02-.29.04-.44h.77c.02.14.04.28.06.44h-.87Z" stroke="#000" stroke-miterlimit="10" stroke-width=".25"/><path d="m75.62,46.9c.17-.07.29-.13.45-.19.09.28.18.52.27.81-.14.05-.26.09-.44.15-.09-.25-.18-.48-.28-.76Z" stroke="#000" stroke-miterlimit="10" stroke-width=".25"/><path d="m71.65,35.69c-.15.24-.27.44-.4.66-.15-.06-.27-.11-.44-.18.15-.26.28-.5.43-.76.14.1.25.17.4.28Z" stroke="#000" stroke-miterlimit="10" stroke-width=".25"/><path d="m32.91,111.54c.14.25.26.45.39.69-.13.09-.25.17-.4.28-.15-.25-.28-.47-.43-.72.13-.08.26-.14.44-.24Z" stroke="#000" stroke-miterlimit="10" stroke-width=".25"/><path d="m63.54,63.75h-.54v-.46c.15-.01.28-.02.45-.03.03.16.06.3.09.49Z" stroke="#000" stroke-miterlimit="10" stroke-width=".25"/><path d="m75.15,47.76c-.18.04-.31.07-.47.1-.06-.15-.11-.28-.17-.44.15-.07.27-.13.43-.21.07.19.13.33.21.54Z" stroke="#000" stroke-miterlimit="10" stroke-width=".25"/><path d="m34.08,111.05c.1.17.16.28.23.41-.12.1-.22.18-.37.3-.1-.16-.19-.31-.3-.49.15-.07.27-.14.44-.22Z" stroke="#000" stroke-miterlimit="10" stroke-width=".25"/><path d="m71.94,36.65c.11-.19.19-.32.29-.5.14.1.26.18.39.27-.09.15-.16.27-.24.42-.14-.06-.26-.11-.44-.19Z" stroke="#000" stroke-miterlimit="10" stroke-width=".25"/></svg>