<?xml version="1.0" encoding="UTF-8"?><svg id="Layer_1" xmlns="http://www.w3.org/2000/svg" viewBox="0 0 144.57 144.57"><path d="M84.7,78.21c.1-.05.29-.11.28-.16-.03-.45.08-.96-.39-1.28-.1-.07-.18-.16-.27-.24-.55-.54-.56-.57-.27-1.26.9.34,1.17.93,1.3,1.74.39-1.09.77-2.18,1.19-3.36.33.7-.23,1.2-.26,1.79.41-.25.79-.47,1.16-.71.11-.08.22-.21.26-.35.66-2.25,1.66-4.33,2.94-6.3.61-.93,1.03-1.98,1.55-2.96.3-.56.65-1.08.97-1.63.5-.85,1-1.71,1.5-2.56.07-.12.19-.22.3-.35-.2-.07-.42-.17-.64-.2-.11-.01-.32.09-.33.17-.31,1.58-1.27,2.81-2.11,4.12-.4.62-.76,1.26-1.16,1.88-.18.28-.47.48-.65.76-.19.31-.28.67-.45.99-.56,1.02-1.14,2.03-1.7,3.04-.24.44-.45.89-.69,1.33-.05.1-.18.16-.27.24-.06-.04-.11-.08-.17-.13.94-1.73,1.88-3.47,2.86-5.26-.18-.02-.26-.05-.33-.03-1.66.54-2.97-.06-4.11-1.25-.25-.26-.49-.53-.73-.79-.06-.06-.13-.12-.21-.16-.35-.17-.7-.34-1.07-.51.06-.11.08-.17.11-.18,1.72-.6,3.45-.92,5.19-.1.55.26,1.1.53,1.48,1.06.41.58.65.52,1.03-.09.56-.91,1.2-1.77,1.75-2.68.31-.51.53-1.08.78-1.64.11-.25.07-.39-.28-.42-.97-.08-1.7-.66-2.37-1.31-.94-.91-1.58-2.02-2.07-3.36.22.05.36.08.51.11.54.11,1.08.29,1.62.32.9.06,1.43.64,1.96,1.24.24.28.43.61.71,1,.14-1.23.51-2.27,1.13-3.21.05,0,.11,0,.16-.01.32,1.06.64,2.11.95,3.15.78-1.15,2.14-1.01,3.47-1.32-.06.25-.08.45-.16.61-.63,1.17-1.64,1.9-2.85,2.37-.08.03-.16.08-.34.17.31.07.53.12.76.16,1.23.22,2.37,1.42,2.54,2.67.03.22.08.45.11.67.08.76-.36,1.41-.45,2.13-.03.25-.21.17-.41.08-1.98-.9-3-2.56-3.63-4.54-.02-.05-.04-.1-.11-.29-.99,1.75-2.15,3.27-2.91,5.07,1.28-.39,2.39,0,3.46.51,1.31.62,2.29,1.62,3.02,2.87.16.28.09.45-.19.51-.55.12-1.12.18-1.66.31-1.5.36-2.59-.3-3.46-1.42-.34-.44-.51-1-.79-1.49-.1-.17-.28-.34-.47-.4-.11-.04-.35.09-.42.21-.78,1.32-1.58,2.63-2.3,3.99-.39.74-.64,1.56-.94,2.35-.03.08-.07.22-.03.26.34.32.11.6-.04.89-.09.17-.21.35-.24.54-.14.87-.65,1.47-1.37,1.93-.04.03-.06.1-.15.28.33-.16.57-.23.75-.38.79-.64,1.74-.79,2.71-.9.49-.06.99-.11,1.49-.12.47,0,.94.04,1.41.09.05,0,.15.25.11.31-.78,1.16-1.62,2.3-3.09,2.6-.84.18-1.68-.02-2.45-.43-.24-.13-.49-.24-.74-.35-.26-.11-.43-.04-.51.25-.37,1.31-.7,2.64-1.12,3.93-.35,1.08-.78,2.13-1.23,3.17-.45,1.05-.96,2.08-1.46,3.11-.13.26-.3.5-.46.75.05.05.09.11.14.16.15-.14.29-.31.46-.42.43-.26.88-.5,1.33-.73.1-.05.24,0,.36,0,0,.13.03.28-.03.39-.12.22-.28.42-.43.63-.08.12-.17.24-.26.37,1.19.1,2.35.21,3.5.3.22.02.45-.02.68-.02.36-.01.47.14.31.46-.59,1.17-1.38,2.15-2.62,2.68-1.52.65-3.04.66-4.55-.04-.69-.32-.77-.24-1.19.41-.62.98-1.31,1.91-2.01,2.84-.67.89-1.34,1.78-2.09,2.6-.73.81-1.55,1.55-2.35,2.3-.78.72-.79,1.14.09,1.73.75.5,1.45,1.02,1.86,1.85.74,1.5.99,3.05.65,4.69-.07.33-.25.32-.49.25-1.27-.35-2.22-1.1-2.93-2.2-.69-1.06-.97-2.19-.78-3.45.04-.25,0-.51,0-.78-2.51,1.89-4.98,3.75-7.54,5.67.44.03.75.07,1.06.08,2.4.09,4.7,2.39,5.16,4.31.13.53.12,1.11.12,1.66,0,.36-.3.48-.64.38-.31-.1-.65-.18-.97-.19-1.51-.03-2.68-.71-3.6-1.86-.7-.88-1.38-1.78-2.14-2.76-.08.28-.25.55-.23.81.09,1.14-.52,2.11-.71,3.17-.26,1.47-.47,2.95-.69,4.44-.04.29-.54,1.08-.78,1.13-.44.08-1.25-.38-1.36-.8-.04-.14-.01-.3.02-.44.16-.61.35-1.22.5-1.83.33-1.37.65-2.74.97-4.11.03-.12.03-.25.06-.48-1.14.86-2.37,1.25-3.61,1.66-1.1.37-2.12.05-3.14-.28-.4-.13-.53-.47-.31-.89.27-.53.56-1.08.98-1.48,1.01-.98,2.18-1.76,3.47-2.34.83-.37,1.74-.5,2.65-.24.14.04.29.04.36.05-.81-4.03-2.23-7.9-2.68-12.01-.05,0-.11,0-.16,0-.4.47-.77.99-1.21,1.41-.5.48-1.03.98-1.64,1.31-.81.43-1.68.24-2.51-.1-.27-.11-.59-.14-.85-.27-.3-.15-.58-.35-.83-.57-.06-.05-.02-.29.05-.39.38-.54.72-1.12,1.18-1.59.63-.63,1.45-.94,2.33-1.05.48-.06.95-.11,1.53-.17-.65-.56-1.02-1.21-1.21-1.97-.07-.28-.12-.56-.16-.84-.04-.24.08-.34.32-.29.13.03.28.05.39.12.76.51,1.57.97,1.9,1.92.06.17.17.32.26.48.03-.01.07-.03.1-.04-.07-.39-.18-.78-.21-1.17-.15-2-.3-4-.4-6-.08-1.48-.08-2.96-.13-4.44-.03-.71-.09-1.41-.15-2.12,0-.1-.06-.19-.08-.24-.67.32-1.31.65-1.96.94-.48.21-.97.27-1.5.16-.8-.17-1.61-.29-2.41-.4-.23-.03-.47.05-.71.07-.18.02-.36.02-.53.04-.02-.05-.04-.09-.06-.14.17-.17.34-.35.51-.52.3-.29.69-.53.87-.88.42-.83,1.16-1.13,1.95-1.31.63-.14,1.3-.12,1.97-.17-.1-.09-.27-.21-.41-.36-.22-.25-.46-.51-.59-.81-.11-.24.02-.46.36-.34.09.03.17.06.26.07.76.06,1.47.21,1.93.95-.69-3.49-1.68-6.86-2.92-10.15-.06,0-.12,0-.18-.01-.35.57-.72,1.13-1.05,1.71-.75,1.32-1.92,1.97-3.37,2.2-.57.09-1.14.17-1.7.27-.42.07-.49-.17-.38-.48.15-.46.32-.92.54-1.34.62-1.19,1.39-2.26,2.62-2.89.28-.15.58-.26.97-.43-1.04-.44-1.39-1.32-1.79-2.15-.13-.28-.06-.4.29-.39,1.03.04,1.96.34,2.74,1.04.09.08.19.13.39.27-.11-.5-.14-.92-.29-1.29-.49-1.24-1.03-2.45-1.54-3.68-.63-1.52-1.03-3.14-1.88-4.57-.03-.05-.09-.07-.18-.15-.12.38-.22.74-.35,1.08-.37.91-.69,1.88-1.56,2.43-.54.34-1.21.51-1.84.69-.5.14-1.04.2-1.56.28-.1.02-.2-.02-.35-.03.36-1.59.76-3.12,2.08-4.34-.19.01-.25,0-.29.02-.86.46-2.13-.21-2.15-1.18,0-.29.13-.65.33-.85.22-.23.28-.38.15-.66-.06-.12-.03-.29.04-.45.08.2.16.4.24.59h.15c.04-.15.11-.31.12-.48.03-.37.14-.67.51-.84.43-.19.54-.15.7.29.03.08.08.14.13.23.46-.91,1.82-1.22,2.61-.63.04-.02.07-.05.11-.07-.29-.44-.57-.89-.86-1.34-.67.25-1.04.94-1.81,1l.15-.71c.33.24.92.02,1.15-.36-.2-.23-.38-.45-.56-.67.02-.04.04-.08.06-.12.56.01,1.13.03,1.7.04.13-.84-.52-1.3-1.03-1.79-.21-.2-.65-.18-1-.24-.07-.01-.2.09-.23.17-.14.37-.3.73-.35,1.11-.04.27.1.57.15.86-.19.08-.41.17-.78.32.55-.67.07-1.51.69-2.08.1-.1.09-.38.05-.55-.03-.14-.16-.32-.28-.35-.12-.03-.32.06-.42.17-.18.18-.31.41-.58.6-.03-.18-.07-.36-.09-.55-.03-.25-.17-.29-.38-.2-.37.17-.49.64-.25.97.15.2.28.4.42.6-.25-.01-.54-.11-.74-.01-.32.15-.59.41-.84.67-.04.05.12.34.24.48.32.38.65.79,1.27.61-.24.4-.42.47-.72.25-.33-.24-.64-.51-.97-.76-.31-.24-.22-.49-.06-.75.02-.03.04-.04.06-.07q.54-.57.14-1.33c.41.28.59.1.65-.26.09-.47.48-.64.85-.79.4-.16.47.23.59.53.18-.17.31-.37.48-.44.34-.14.62.06.91.25.27.18.59.28.89.42.02-.04.05-.07.07-.11-.1-.32-.19-.65-.29-.97-.02-.06-.09-.12-.15-.14-.57-.18-.91-.82-.76-1.39.05-.18-.01-.4-.05-.59-.04-.25-.15-.49-.16-.74,0-.58.11-.66.68-.72.16-.02.36-.1.47-.21.73-.74,1.29-.64,1.71.31.03.07.07.14.12.25.15-.08.3-.16.55-.3-.18.29-.3.47-.43.68.12.1.21.17.3.24.33.28.47.6.37,1.04-.1.44-.17.9-.24,1.35.05.02.09.03.14.05.26-.26.53-.5.77-.77.08-.09.1-.26.08-.38-.16-.94.03-1.18,1-1.24.03,0,.06,0,.11-.02.04-.2.06-.41.13-.61.06-.16.17-.4.3-.43.17-.03.49.06.54.18.31.67,1.13.47,1.54.96.03.04.25-.07.39-.12-.07.18-.21.38-.19.56.02.14.24.26.33.34-.12.33-.26.71-.37,1.09-.18.62-.26.69-.88.72-.41.02-.78.14-1.06.49-.17.21-.44.35-.69.53.27.13.54.23.77.38.11.08.16.25.24.38-.12.06-.23.14-.35.18-.31.11-.62.23-.94.29-.39.08-.8.1-1.19.15.15.27.31.56.48.88.06-.02.15-.04.25-.07,0,.03.01.06.01.09,0,.14-.06.38,0,.42.17.11.45.23.58.16.32-.16.6-.42.86-.68.28-.29.54-.58.92-.46.2-.25.32-.51.52-.62.38-.22.83.02.97.44.22.65.53.75,1.11.37.03-.02.07-.03.16,0-.11.12-.22.23-.35.37.15.31.3.63.43.9-.23.45-.45.89-.67,1.32-.34.66-1.14.72-1.59.13-.11-.14-.22-.27-.45-.53.15.8-.4.65-.71.76-.38.13-.73.25-.91.71.59,0,1.15.02,1.7,0,1.53-.03,2.83.37,3.82,1.64.42.54.78,1.06.89,1.73.02.11-.08.29-.17.36-.76.52-1.59.74-2.52.65-1.62-.15-2.72-1.1-3.68-2.3-.19-.24-.4-.46-.63-.72-.19.85,2.41,8.12,3.47,9.83.26-.79.52-1.59.79-2.38.06,0,.11.01.17.02.37.4.56.9.64,1.43.08.51.05,1.04.08,1.6.22-.1.46-.19.68-.32.81-.47,1.69-.6,2.61-.57,1.37.05,2.66.4,3.85,1.06.08.04.12.32.06.42-.53.87-1.28,1.51-2.26,1.75-.77.19-1.57.27-2.36.31-.36.02-.74-.14-1.08-.28-.53-.23-1.02-.53-1.54-.76-.18-.08-.44-.06-.63,0-.05.02-.07.35-.01.51.15.44.36.86.51,1.3.35,1.09.7,2.18,1.02,3.28.36,1.24.7,2.48,1.04,3.73.08.29.13.58.21.99.41-.5.8-.92,1.13-1.39.23-.33.31-.2.41.06.32.84.39,1.7.28,2.58-.01.1-.01.2-.03.48.53-.38.95-.7,1.39-.99,1.06-.69,2.14-.71,3.24-.09.26.15.38.34.22.67-.19.38-.32.79-.43,1.19-.16.56-.63.75-1.08.86-1.21.27-2.44.49-3.67.68-.61.1-.71.16-.74.78-.09,1.63.07,3.25.22,4.88.1.99,0,1.99.03,2.99.02.84.07,1.68.15,2.52.07.7.2,1.4.3,2.09.39-.82.78-1.63,1.18-2.46.6.52.66.8.51,1.97.95-.4,1.98-.56,2.56-1.64.49.93.42,1.77.05,2.59-.41.93-1.14,1.44-2.17,1.54-.43.04-.87.14-1.28.28-.13.04-.27.33-.24.47.16.93.34,1.87.55,2.79.32,1.37.66,2.74,1.01,4.11.14.52.39,1.01.51,1.53.12.52.15,1.07.22,1.61.03.21.09.42.18.62,1.27-5.85,2.62-11.66,3.3-17.61-1.09.01-2,.47-2.91.93-.33.17-.68.31-1.03.44-.43.16-.61.01-.55-.45.14-1.12.77-1.95,1.69-2.55.59-.38,1.21-.7,1.86-1.07-.72-.54-1.12-1.31-1.43-2.15-.05-.14-.03-.31-.04-.46.14,0,.3-.05.43,0,.48.18.99.33,1.41.61.46.3.85.72,1.27,1.09.03-.33.07-.72.09-1.11.1-2.03.36-4.03.7-6.04.29-1.68.39-3.4.55-5.1.06-.66.08-1.33.11-1.99,0-.13-.03-.26-.06-.44-.87.22-1.69.39-2.3,1.08-.89,1.01-2.1,1.37-3.39,1.46-.58.04-1.17-.04-1.76-.07-.42-.02-.52-.3-.48-.66.08-.69.4-1.26.82-1.79.85-1.06,1.87-1.89,3.22-2.19.47-.1.99,0,1.48,0,.12,0,.23,0,.36.01-.16-.6-.32-1.16-.47-1.72-.07-.27-.1-.56-.16-.84-.07-.32.07-.42.37-.38.86.11,1.96.62,2.11,1.84.05.4.22.79.34,1.18.04,0,.08,0,.12-.01.02-.05.06-.09.07-.14.4-1.73.78-3.47,1.21-5.2.46-1.87.97-3.72,1.47-5.58.03-.11.16-.19.24-.28.03.13.12.27.09.38-.21.8-.46,1.6-.68,2.4-.3,1.13-.6,2.26-.86,3.39-.38,1.69-.73,3.38-1.08,5.07-.04.2-.02.41-.02.66.41-.17.58-.01.5.32-.07.26-.21.55-.41.71-.35.27-.46.6-.47,1-.04,1.69,0,3.39-.35,5.06-.26,1.27-.45,2.57-.61,3.86-.21,1.79-.37,3.59-.53,5.38-.02.18.05.37.19.58.09-.28.18-.57.28-.85.07-.2.11-.43.24-.58.41-.49.43-1.08.5-1.67.2-1.76.32-3.53.62-5.28.33-1.91.39-3.82.41-5.74,0-.66.04-1.36.26-1.96.15-.4.3-.83.24-1.18-.06-.38-.06-.73,0-1.09.07-.41.17-.81.25-1.22.13-.65.25-1.31.39-1.96.28-1.27.57-2.54.89-3.8.17-.68.39-1.34.61-2,.04-.12.16-.22.24-.32.07.03.14.06.21.09-1.13,2.96-1.58,6.08-2.36,9.12.05.02.1.04.15.06.21-.26.42-.52.62-.78.24-.33.51-.54.95-.61.31-.05.58-.31.87-.48.31.83-.43,2.6-1.47,3.44.09.02.15.06.21.05,1.58-.26,2.74.37,3.44,1.75.63,1.23,1.01,2.54.83,3.95-.01.12-.06.23-.1.35-.01.04-.05.07-.04.06-.5-.03-.97-.05-1.43-.07-.9-.04-2.1-1.1-2.31-2.1-.22-1-.61-1.88-1.48-2.49-.13-.09-.22-.22-.33-.34-.06,0-.11.01-.17.02-.05.74-.1,1.48-.14,2.22-.05,1.07-.04,2.15-.16,3.21-.14,1.26-.43,2.51-.6,3.77-.17,1.26-.27,2.53-.41,3.89.57-.5,1.07-.93,1.61-1.4.09.9-.05,1.5-.7,3.03.65-.13,1.24-.25,1.83-.37,1.01-.2,1.99-.09,2.87.47.57.37.69.85.52,1.5-.14.55-.62.53-1.01.6-1.64.3-3.28.25-4.9-.17-.35-.09-.54.04-.6.33-.17.75-.33,1.51-.44,2.27-.25,1.82-.41,3.65-.73,5.45-.35,1.97-.83,3.91-1.27,5.86-.28,1.21-.57,2.42-.9,3.62-.14.51-.38.99-.57,1.48-.08.22-.14.44-.24.78,2.44-2.08,4.76-4.07,7.1-6.06-.45-.34-.89-.58-1.23-.92-1.36-1.33-1.9-2.98-1.82-4.85.02-.54.1-1.08.18-1.62.05-.33.16-.49.53-.2.58.45,1.19.89,1.84,1.22.87.44,1.2,1.15,1.34,2.05.17,1.06.42,2.1-.01,3.21,1.02-.43,6.76-6.95,7.24-8.16-.64-.32-1.28-.66-1.93-.97-.91-.44-1.7-.98-2.01-2.02-.04-.13-.11-.24-.18-.36-.32-.6-.31-.64.33-.9.99-.4,1.96-.35,2.95.06.65.27,1.29.54,1.62,1.27-.22-1.1-.25-2.11.64-2.92.36.64.71,1.27,1.09,1.94.09-.09.14-.14.19-.2.04-.06.08-.13.11-.2,1.38-3.45,2.84-6.87,3.68-10.57-1.1.65-2.29.73-3.45.17-1.18-.57-1.64-1.7-2.06-2.94.82.09,1.55-.28,2.27.04,0,.04,0,.09,0,.13-.22-.01-.44-.03-.66-.04-.13,0-.28-.04-.4-.01-.62.16-.71.37-.44.95.8,1.69,1.98,2.17,3.86,1.82.31-.06.6-.25.91-.38,0,0-.02,0-.02,0ZM61.12,109.94c-.5-.29-.94-.35-1.4-.33-1.91.11-3.33,1.21-4.69,2.37-.46.4-.75,1-1.09,1.53-.06.09.01.28.06.41.02.05.16.09.22.07.11-.04.2-.13.28-.22,1.1-1.23,2.43-2.03,4.07-2.31.2-.03.39-.12.59-.19.02.05.04.1.05.15-.72.58-1.75.45-2.49.97-.74.52-1.43,1.1-2.15,1.65.02.06.04.13.05.19.49.06,1,.24,1.46.16.92-.18,1.83-.46,2.72-.77.56-.2,1.15-.45,1.58-.83.69-.61,1.12-1.44,1.34-2.35.01-.06-.07-.15-.11-.23q-1.23.54-1.44.41c.29-.21.57-.41.96-.69ZM66.86,88.79c-.47-.09-.74.03-.83.44-.16.76-.35,1.52-.49,2.29-.49,2.76-.92,5.53-1.45,8.28-.57,2.95-1.24,5.87-1.84,8.81-.06.28.04.6.07.9.04,0,.08-.01.12-.02.45-1.3.97-2.57,1.32-3.9.53-2.02.99-4.06,1.4-6.1.32-1.6.71-3.18.84-4.83.14-1.82.54-3.62.82-5.43.02-.14.02-.29.03-.45ZM63.02,109.74c.45-.35.89-.69,1.33-1.02,1.45-1.09,2.88-2.21,4.36-3.27.91-.65,1.79-1.31,2.49-2.19.38-.47.73-.97,1.16-1.38,1.4-1.32,2.81-2.63,3.92-4.22.91-1.3,1.88-2.57,2.8-3.87.09-.12.04-.33.05-.5-.16.07-.36.11-.46.23-.52.64-1.01,1.3-1.52,1.94-.65.82-1.27,1.67-1.97,2.44-.87.95-1.83,1.82-2.73,2.74-.81.83-1.54,1.76-2.41,2.53-2.27,2-4.6,3.95-6.91,5.9-.25.22-.31.42-.12.67ZM61.61,109.6c.05,0,.1,0,.15,0,0-.28.07-.58,0-.85-.31-1.42-.66-2.84-1-4.25-.43-1.78-.88-3.56-1.3-5.34-.14-.61-.25-1.24-.34-1.86-.03-.21.12-.56.02-.64-.35-.28-.31-.68-.38-1.03-.25-1.3-.49-2.6-.63-3.91-.1-.91.01-1.84-.03-2.76-.06-1.37-.17-2.74-.28-4.11-.1-1.27-.07-2.53.28-3.78-.23-.13-.45-.25-.75-.42-.01.25-.04.4-.03.55.03.63.08,1.26.09,1.89.02,1.48.01,2.96.05,4.44.04,1.31.11,2.62.19,3.93.08,1.43.19,2.85.52,4.25.26,1.1.47,2.21.69,3.31.2,1.02.36,2.04.6,3.05.45,1.95.94,3.89,1.43,5.83.15.6.25,1.24.69,1.72ZM98.52,65.36c-.58-1.93-1.69-3.41-3.59-4.39.09.28.14.48.2.67.44,1.36,1.09,2.6,2.24,3.5.39.3.73.74,1.34.64.08-.39.22-.77.23-1.16.01-.59.04-1.22-.13-1.77-.41-1.32-1.5-2.04-2.88-2.04-.07,0-.15.07-.24.11,1.43,1.2,2.61,2.52,2.82,4.44ZM63.19,110.19c.94.61,1.87,1.19,2.78,1.8.6.4,1.17.84,1.77,1.24.61.41,1.33.66,1.69,1.37.09.17.18.35.3.58.38-1.78-1.76-4.35-3.81-5.01-.97-.31-2.43-.36-2.74.02ZM69.41,115.38c-.15-.52-.45-.92-.88-1.21-.6-.4-1.25-.73-1.85-1.14-.73-.5-1.42-1.06-2.16-1.55-.46-.31-.97-.56-1.45-.83.65,1.47,1.63,2.67,2.7,3.76.96.98,2.23,1.18,3.63.96ZM58.65,81.23s.09.04.13.03c1.11-.18,2.22-.35,3.33-.56.79-.15,1.37-.52,1.44-1.42.01-.17.15-.33.18-.51.02-.12-.03-.31-.11-.36-.62-.4-1.29-.62-2.01-.34-1,.39-1.89.97-2.66,1.72-.29.29-.52.64-.78.97.6-.26,1.14-.55,1.64-.88.9-.61,1.87-1.09,2.92-1.36.47-.12.68-.06.84.28-1.78-.03-4.35,1.7-4.93,2.44ZM46.34,55.34c.4-.24.74-.44,1.08-.65.31-.19.66-.37.26-.81-.09-.1,0-.36-.08-.47-.18-.25-.44-.64-.65-.63-.39.01-.78.27-1.23.45.87.55.92,1,.18,1.56.02-.39.57-.84-.07-1.02-.24-.06-.55.14-.87.24-.02-.07-.07-.25-.12-.44-.05,0-.11-.01-.16-.02-.05.23-.1.45-.14.68-.05.25-.08.5-.13.8-.19-.06-.33-.1-.47-.16-.41-.17-.6-.09-.76.32-.22.58,0,.98.71,1.35.6.31,1.02-.17,1.51-.33.41-.13.68-.36.65-.84,0-.13.08-.27.13-.41.03,0,.06,0,.09.01.02.1.04.21.08.37ZM67.42,71.51c0-.06,0-.12-.01-.19-.53-.02-1.07-.12-1.57-.03-1.65.29-3.05,1.13-4.36,2.13-.33.25-.56.62-.9,1.01,1.67.1,3.08-.18,4.27-1.25.44-.4.92-.85,1.46-.99.5-.13.81-.36,1.13-.68ZM60.79,119.14c.04-.31.07-.66.14-1.01.16-.89.23-1.81.51-2.66.4-1.25.7-2.51.89-3.8.06-.39.17-.76.23-1.15.03-.23,0-.47,0-.71-.05-.01-.1-.03-.15-.04-.1.15-.3.31-.3.46,0,.63-.35,1.1-.59,1.63-.18.4-.46.78-.56,1.2-.39,1.5-.72,3-1.07,4.51-.09.38-.16.76-.23,1.07.4.17.74.33,1.13.5ZM58.01,96.84c-.16.04-.3.07-.43.11-1.04.34-2.07.7-3.11,1.02-.72.22-1.42.47-1.99.98-.36.32-.34.44.09.63.27.12.57.2.85.29.81.28,1.63.22,2.25-.35.83-.77,1.56-1.65,2.33-2.48.02-.02,0-.08,0-.19ZM80.6,90.87s.07.04.11.06c.1-.12.22-.22.29-.35.5-.91,1.02-1.81,1.47-2.74.5-1.03,1.03-2.06,1.39-3.15.67-2.01,1.24-4.05,1.83-6.08.03-.09-.06-.27-.15-.31-.07-.04-.29.02-.32.09-.21.45-.42.91-.57,1.38-.4,1.33-.68,2.71-1.18,4-.79,2.06-1.73,4.06-2.59,6.09-.14.32-.2.68-.3,1.01ZM66.13,70.89c-.48-.39-.99-.51-1.5-.6-2.18-.36-4.48,1.98-4.72,3.47-.03.17.05.35.08.53.18-.08.39-.12.53-.24.42-.38.75-.9,1.22-1.18,1.36-.8,2.73-1.61,4.39-1.98ZM71.83,102.99c-.04.16-.11.31-.12.47-.04.75-.13,1.51-.07,2.26.14,1.85,1.07,3.2,2.76,4,.24.11.53.1.8.15-.06-.26-.06-.57-.2-.77-.35-.52-.78-.98-1.16-1.48-1.04-1.37-1.56-2.96-2-4.61ZM43.99,60.54c2.23-.13,3.19-.62,3.76-1.95.39-.91.86-1.82.73-2.9-.43.28-.81.57-1.11.92-.88,1.01-1.73,2.05-2.6,3.07-.25.29-.52.56-.77.85ZM69.93,71.56c.36.21.69.38,1,.59,1.14.81,1.93,1.92,2.62,3.11.1.18.18.39.18.59,0,.57.13.77.8.91.02-.24.1-.49.05-.7-.26-1-.46-2.03-.85-2.98-.7-1.7-2.64-2.14-3.8-1.52ZM92.17,67.28c.19.23.37.37.42.54.21.76.72,1.31,1.23,1.85.87.92,2.57,1.04,3.54.26-1.84-1.62-3.77-2.64-5.19-2.65ZM47.19,45.19s-.04-.06-.05-.09c.03-.05.06-.12.1-.16q.56-.56.09-1.22c-.27-.38-.5-.41-.8-.04-.25.31-.51.53-.94.51-.1,0-.25.11-.29.21-.16.45.16.9.69.9-.26.54-.8,1.09-.13,1.57.28-.05.52-.18.65-.11.67.38,1.15-.06,1.66-.34.41-.22.43-.64.41-1.03-.02-.33-.61-.57-.89-.41-.16.09-.33.14-.5.21ZM56.84,57.57c-1.05-.75-2.29-.81-3.39-1.24-1.1-.43-2.17-.94-3.25-1.42-.06.03-.12.05-.18.08.13.09.27.18.39.29.18.16.36.33.49.52.6.88,1.41,1.51,2.31,2.05.84.5,2.76.39,3.62-.28ZM80.16,92.89l.02.18c1.25.81,2.65.84,4.05.59,1.22-.22,2.56-1.41,2.73-2.29-.15.07-.28.15-.42.2-.61.23-1.23.62-1.85.64-.89.02-1.77.11-2.64.25-.64.1-1.26.28-1.9.42ZM70.59,102.04c-.21-.77-.31-1.52-.84-2.1-.73-.8-1.25-1.71-1.6-2.72-.18-.51-.35-1.03-.57-1.67-.21.79-.14,1.44-.12,2.1.05,1.41.55,2.61,1.46,3.64.4.46.84.93,1.67.74ZM61.85,66.95c-2.17.11-4.28-.52-6.32.36,1.81,1.68,5.21,1.32,6.32-.36ZM61.52,90.86s-.03-.12,0-.14c.75-.57,1.43-1.25,2.37-1.52.54-.16,1.04-.39,1.47-.81-1.51-.71-4.54,1.87-4.14,3.17.66-.3,1.31-.61,1.97-.88.46-.19.94-.3,1.4-.47.3-.11.68-.2.85-.43.31-.42.48-.94.75-1.49-.3.18-.51.33-.73.42-.64.29-1.31.51-1.92.85-.7.38-1.35.85-2.03,1.29ZM56.43,56.91c-.03-.28.03-.63-.11-.78-.4-.43-.86-.84-1.36-1.15-.83-.51-1.78-.53-2.73-.54-.51,0-1.02.06-1.54.09l-.03.18c.42.25.81.57,1.27.73,1.51.53,3.04,1,4.49,1.47ZM47.27,72.16c.05.03.1.07.15.1.08-.04.19-.05.22-.11.37-.67.99-1.08,1.57-1.51.97-.72,1.96-1.42,2.95-2.11.21-.15.47-.21.68-.35.06-.04.02-.33.01-.33-.47-.05-1-.23-1.42-.1-1.36.44-2.53,1.19-3.22,2.51-.33.63-.64,1.27-.96,1.91ZM69.77,72.05c-.05.04-.11.08-.16.11.1.07.21.12.28.2.5.62.92,1.27,1.15,2.06.16.54.46,1.09.82,1.52.41.5.97.89,1.67.75-.09-.44-.16-.83-.24-1.22-.02-.1-.06-.2-.12-.28-.55-.73-1.06-1.49-1.67-2.17-.45-.5-.97-1-1.73-.98ZM70.7,101.48c.04-.09.08-.18.11-.28.3-.9.02-1.78-.08-2.68-.1-.89-.46-1.52-1.25-1.94-.48-.25-.93-.56-1.49-.91.34,1.4.82,2.58,1.65,3.6.53.65.98,1.33,1.06,2.21ZM56.41,81.15c-.76-.91-4.76-.47-5.63.61.82.17,1.62.36,2.44.51,1.27.23,2.25-.38,3.19-1.12ZM84.68,65.13c.28.33.51.61.75.87,1.1,1.16,2.34,1.85,4,1.25.25-.09.5-.18.43-.46-.04-.16-.27-.33-.45-.4-.96-.35-1.93-.69-2.91-1.01-.57-.19-1.15-.37-1.82-.25ZM48.52,52.27c-.02-.06-.04-.11-.06-.17.25-.21.56-.38.72-.64.14-.22.13-.55.13-.84,0-.08-.26-.24-.27-.22-.17.17-.32.35-.48.54-.03.03-.03.09-.05.12-.17.29-.39.36-.7.2-.12-.06-.29-.03-.43-.04.05.16.07.34.16.48.1.17.35.29.38.46.07.39.11.8.06,1.19-.07.49.09.7.59.62.06,0,.14.02.19.06.31.26.49.04.57-.2.09-.28.25-.34.49-.36.57-.05.89-.42.85-.98-.03-.38-.37-.63-.74-.54-.16.04-.32.08-.48.12-.31.07-.61.14-.92.21ZM47.96,72.01c.95.26,2.46-.12,3.29-.84.81-.71,1.3-1.66,1.72-2.64-2.03.63-3.34,2.22-5.01,3.49ZM80.28,92.39c.19,0,.28,0,.38-.01,1.01-.15,2.01-.33,3.03-.45.43-.05.9.1,1.3-.03.76-.23,1.48-.59,2.22-.9-.71-.15-1.4-.17-2.07-.27-.92-.13-1.82-.25-2.66.27-.04.02-.09.02-.13.04-.71.33-1.43.64-2.06,1.34ZM72.41,103.54c0,.09-.04.16-.02.2.39.96.71,1.95,1.2,2.85.48.88,1.13,1.67,1.7,2.5.01.02.05.01.11.02-.02-2.38-.64-4.41-2.99-5.58ZM49.82,46.03c.18-.06.33-.12.53-.19l-.12.55c.67-.3.84.07.95.58.08.39.36.47.74.37.24-.07.5-.06.74-.11.12-.03.29-.11.33-.22.32-.74.22-.9-.58-.91-.34,0-.62-.11-.85-.42.51-.12,1-.14,1.32-.57-.53-.35-1.03-.68-1.54-.99-.06-.04-.28.07-.32.15-.07.12-.05.29-.05.44,0,.37-.14.54-.56.48-.58-.08-.81.26-.59.82ZM57.69,96.65c-.01-.06-.02-.12-.04-.18-.05-.02-.1-.05-.16-.06-1.08-.26-2.16-.11-3.22.13-.52.12-1.08.36-1.48.7-.46.41-.78.98-1.14,1.5-.06.09,0,.28,0,.42.15-.04.34-.05.46-.14.15-.11.22-.35.38-.43.72-.35,1.45-.71,2.21-.99.98-.36,1.99-.64,2.98-.96ZM54.97,67c.19-.02.33-.02.47-.06,1.11-.32,2.23-.52,3.39-.45.94.06,1.87.12,2.81.18.18,0,.36-.03.61-.05-1.83-1.44-5.94-1.65-7.28.38ZM74.41,89.63l-.16.11c.31.53.53,1.14.94,1.57.83.86,2,1.2,3.05,1.69.11.05.37-.11.48-.23.08-.08.08-.32.02-.43-.46-.82-1.13-1.41-2.08-1.59-.86-.17-1.66-.42-2.26-1.12ZM57,78.84s.08,0,.12,0c.03-.39.13-.79.07-1.16-.09-.57-.31-1.12-.46-1.69-.61-2.26-1.1-4.56-1.99-6.74-.21-.51-.39-1.02-.58-1.53-.44.12-.41.42-.29.66.71,1.42,1.08,2.95,1.49,4.48.25.94.61,1.85.87,2.79.29,1.05.52,2.12.78,3.19ZM52.79,50.75c-.09-.02-.14-.02-.17-.04-.28-.19-.57-.22-.82.04-.24.25-.25.52-.1.83.1.21.12.46.21.68.05.11.21.28.28.26.46-.13.69.15.94.44.33.38.67.43,1.01.09.17-.18.24-.47.3-.73,0-.04-.28-.14-.42-.23-.22-.14-.46-.27-.64-.46-.26-.26-.19-.44.19-.5.19-.03.37-.1.65-.18-.36-.15-.59-.24-.73-.29.03-.25.11-.43.05-.51-.11-.13-.3-.25-.45-.26-.08,0-.19.25-.24.41-.05.13-.03.29-.04.44ZM49.91,54.52c.67-.55,1.33-1.09,2-1.63-.13-.31-.27-.71-.45-1.09-.16-.35-.5-.42-.65-.13-.06.12-.01.31.03.46.22.79-.17,1.48-.95,1.67-.13.03-.26.08-.36.17-.22.2-.42.43-.67.7.08.21.19.5.31.8-.05,0-.1,0-.15.01,0,.19-.03.4.03.58.1.28.24.56.4.81.53.86,1.14,1.68,1.43,2.67.05.17.14.32.21.48.03-.02.07-.03.1-.05-.05-.15-.09-.31-.14-.46-.21-.58-.4-1.16-.64-1.73-.31-.75-.32-1.58-.77-2.3-.21-.34-.11-.89-.15-1.34.12-.06.24-.11.36-.17.02.15.03.29.06.54ZM47.8,55.69c-1.53-.23-4.36,3.2-4.12,4.93,1.37-1.64,2.73-3.27,4.12-4.93ZM89.95,66.35c-.1-.55-.26-.91-.63-1.13-1.4-.85-2.89-1.16-4.5-.75-.23.06-.45.17-.68.26,0,.04.01.08.02.11,2.03-.03,3.81.91,5.79,1.51ZM79.14,92.3c-.15-.87-.25-1.75-.86-2.25-.91-.74-2-1.17-3.25-.76-.31.1-.36.23-.11.4.35.22.72.45,1.12.55.73.19,1.5.31,2.07.84.36.33.64.76,1.03,1.22ZM73.15,88.62c-1.78-.93-4.92-.9-5.46-.02,1.83.43,3.65.55,5.46.02ZM92.08,76.97c-1.8.38-3.25,1.79-5.25,1.44,2.08,1.53,4.08.64,5.25-1.44ZM73.43,88.21c-.03-.2-.03-.26-.05-.32-.23-.82-1.25-1.17-2.03-1.1-.9.07-1.79.21-2.67.39-.52.11-.98.41-1.26.93.39-.07.76-.18,1.14-.3,1.1-.34,2.2-.42,3.32-.03.48.17.98.27,1.56.43ZM65.11,67.47c.09,2.11.93,3.6,2.65,3.46-.63-.84-1.45-1.53-1.96-2.45l.15-.12c.28.35.57.7.86,1.06.41-.21.13-.51.06-.73-.2-.71-.96-1.22-1.76-1.23ZM48.4,49.15c.88-.4,1.7-.76,2.51-1.15.12-.06.26-.26.24-.36-.06-.3-.19-.59-.32-.88-.03-.07-.15-.14-.23-.14-.57,0-1.09.08-1.46.62-.39.56-.81,1.08-.74,1.91ZM89.49,56.69c-.03.16-.06.21-.05.24.62,1.46,1.56,2.65,3.01,3.37.33.16.74.35,1.12-.03-1.37-1.2-2.7-2.37-4.08-3.58ZM94.74,56.28c-1.02,1.6-.94,3.64.03,3.91,1.22-1.33.5-2.62-.03-3.91ZM95.41,60.08c1.08.24,3.25-1.23,3.46-2.29-1.16-.36-2.67.5-3.12,1.8.53-.3,1.03-.59,1.54-.88.01.02.02.05.04.07-.62.43-1.25.85-1.91,1.3ZM92.39,66.94c.56.19,1.12.38,1.68.56.92.29,1.73.75,2.45,1.4.33.3.72.52,1.15.83,0-.18.01-.21,0-.23-1.11-1.76-2.7-2.74-4.77-2.94-.24-.02-.49.05-.5.38ZM93.69,60.09c.06-.05.13-.1.19-.15-.3-.9-.86-1.65-1.48-2.37-.56-.66-1.31-.76-2.17-.62,1.15,1.04,2.31,2.09,3.46,3.13ZM91.72,76.75s-.03-.07-.04-.11c-1.77.13-3.58.13-5.01,1.41.67.25,1.39.26,2.09-.02.69-.29,1.36-.62,2.04-.92.3-.13.61-.24.92-.35ZM56.13,80.42c-.92-.8-1.97-1.04-3.13-.72-.64.18-1.25.41-1.53,1.19,1.56-.43,3.09-.59,4.66-.47ZM71.39,68.37c-1.05,0-2.03.96-2.16,2.16.34-.36.63-.67.93-.98.03.03.06.06.08.09-.27.39-.53.77-.81,1.18,1.03.2,1.94-1.23,1.96-2.44ZM59.62,96.32c.05.07.1.14.15.22.22-.21.42-.45.66-.62.78-.58,1.58-1.13,2.37-1.7.28-.2.53-.42.29-.76-.48.26-.91.57-1.4.74-1.08.36-1.72,1.1-2.08,2.14ZM46.46,47.36c.16.34.27.78.52,1.11.24.32.62.53.95.8.13-.6.28-1.23.38-1.87.06-.41-.12-.52-.54-.4-.39.11-.79.22-1.32.36ZM51.86,61.93l-.21.08,1.95,5.55c.06,0,.12,0,.18,0,.04-.13.13-.27.12-.4,0-.19-.06-.39-.13-.57-.49-1.21-.99-2.41-1.49-3.62-.14-.35-.28-.7-.43-1.05ZM60.18,96.45c1.53.05,2.73-.54,2.92-2.07-1.03.73-1.98,1.4-2.92,2.07ZM54.51,64.13c-.47.77-.49,2.51-.08,2.99.77-.9.98-2.5.38-2.95-.08.74-.17,1.49-.25,2.23-.04,0-.08,0-.12-.01.02-.73.05-1.45.07-2.26ZM60.17,92.94c-.7.88-1,1.89-.84,2.87.89-.64,1.36-2.24.84-2.87ZM57.44,80.39s.08-.02.13-.03c.29-1.12.59-2.24.88-3.35-.05-.02-.11-.05-.16-.07-.11.14-.23.27-.32.42-.47.82-.84,1.67-.71,2.64.02.13.12.26.18.39ZM87.49,75.51s-.07-.06-.11-.08c-.42.61-.85,1.22-1.27,1.84-.03-.02-.06-.04-.08-.06.31-.58.63-1.16,1-1.84-.94.63-1.53,1.75-1.32,2.44.83-.6,1.73-1.12,1.8-2.3ZM79.59,92.28c.52-.61.48-2.71-.34-3.54-.05.16-.15.29-.13.41.12.99.26,1.98.4,2.97,0,.04.03.08.07.16ZM58.81,76.67c-.31,1.12-.61,2.19-.91,3.26,1.18-.45,1.4-1.87.91-3.26ZM54.44,78.19s-.05.08-.07.12c.84.66,1.68,1.31,2.59,2.02-.03-.17-.02-.28-.07-.35-.25-.35-.55-.67-.76-1.05-.39-.71-1.04-.7-1.68-.74ZM52.99,67.43c-.12-.86-2.11-2.07-2.83-1.78.98.61,1.91,1.19,2.83,1.78ZM66.99,87.55c1.17-.39,2.2-1.98,1.83-2.64-.59.85-1.2,1.73-1.83,2.64ZM83.5,89.31c-.9.17-2.31,1.34-2.31,2,.65-.57,1.23-1.09,1.82-1.6.02.03.05.06.07.09-.24.24-.47.48-.71.72.03.03.06.06.09.08.58-.23.71-.85,1.04-1.29ZM63.85,86.75c.35.68,1.34,1.37,2.18.96-.24-.21-.41-.48-.65-.57-.51-.19-1.05-.28-1.53-.4ZM55.69,93.67c.61.85,1.17,1.62,1.78,2.48.13-.82-.95-2.3-1.78-2.48ZM59.99,120.2c.28.09.63.09.59-.28-.03-.29-.25-.67-.49-.79-.29-.15-.59.16-.66.45-.09.39.21.55.56.61ZM63.43,86.04q.27-.28.46-.02c.07.1.13.2.2.3.3.38.94.61,1.34.47-.46-.82-1.35-.87-2.13-1.19.04.14.08.28.13.44ZM48.48,55.18c-.05-.72-.14-.77-.74-.37-.28.18-.56.35-.82.55-.2.15-.38.33-.51.45.67-.2,1.35-.41,2.07-.63ZM50.1,66.1c.47,1.08,1.11,1.37,2.19,1.18-.75-.4-1.44-.78-2.19-1.18ZM49.08,49.56c.75.17,1.37-.01,2-.4-.87-.33-1.68-.18-2,.4ZM56.81,95.82c-.48-.66-.93-1.26-1.4-1.92,0,.87.63,1.72,1.4,1.92ZM53.74,51.56c.34.23.65.56,1.02.25.08-.07,0-.52-.14-.61-.41-.28-.55.29-.88.36ZM48.51,49.39c-.55.29-.76.88-.53,1.22.05.08.19.09.29.14l.07-.28c-.41-.08-.09-.26-.05-.4.05-.19.12-.38.23-.68ZM79.65,88.45c.24.7.45,1.32.65,1.93.44-.4,0-1.14-.65-1.93ZM67.45,86.58c.3-.47.59-.94.89-1.41-.04-.03-.08-.05-.13-.08-.33.45-.86.77-.76,1.48ZM44.63,53.29c-.52,0-.75.56-.49,1.17.16-.37.32-.77.49-1.17Z"/><path d="M83.42,24.59c-.25-.41-.42-.7-.6-.98-.18-.3-.37-.48-.75-.23-.59.38-1.5.24-1.99-.28-.05-.06-.03-.21-.01-.31.07-.32.14-.64.24-.94.09-.26.22-.52.36-.75.21-.34.46-.65.69-.97.05-.07.12-.12.25-.16-.04.18-.13.37-.1.53.02.13.19.24.36.32.03-.51-.18-1.01.31-1.39,0,.13-.02.24-.03.4.24-.14.44-.27.65-.37.47-.23.56-.19.67.33.02.07.03.15.04.22.67.09.62.09.57.75-.04.56.04,1.13.1,1.7.04.39.14.78.21,1.17.05,0,.11.01.16.02.15-.37.28-.75.45-1.11.18-.39.41-.76.6-1.15.08-.16.14-.35.16-.53.02-.14-.06-.3-.06-.45-.03-.53.33-.76.99-.65.27-.26.28-.9.83-.72.61.2.53.75.39,1.28.04.03.07.06.11.09.23-.16.46-.31.69-.46.03.11.06.23.1.33.03.08.13.14.14.22.06.31.02.67.17.93.24.43.05.81-.06,1.17-.09.3-.32.57-.73.39-.06-.03-.16-.03-.21,0-.6.35-1.2.71-1.79,1.08-.03.02-.04.08-.12.23.43,0,.8.02,1.18.02.16,0,.33-.09.49-.07.27.03.42,0,.44-.33.01-.27.21-.4.48-.32.33.09.57.07.75-.28.07-.14.34-.19.52-.28.07.18.16.36.22.55.04.14.03.3.05.53.28-.23.51-.41.74-.6.03.03.06.05.09.08l-1.05,1.18s.04.1.06.15c.38-.06.77-.12,1.15-.18.01.01.02.03.04.04-.24.14-.48.27-.72.41.08.28.22.56.23.84,0,.82-.64,1.43-1.48,1.47-.16,0-.31.1-.47.14-.2.05-.41.14-.61.13-.32-.01-.55-.15-.49-.55.02-.15,0-.32-.02-.47-.25,0-.45-.02-.73-.03.05.19.14.38.15.58.01.2,0,.43-.1.59-.04.07-.34.03-.49-.04-.81-.35-1.7-.51-2.31-1.26-.31-.38-.47.1-.56.29-.29.6-.53,1.22-.77,1.83-.25.65-.47,1.3-.69,1.95.46-.16.78-.62.73-1.08-.07-.64.23-.97.91-1.07.12-.02.24-.17.31-.28.32-.48.57-.47.84.03.08.16.14.34.26.47.35.37.69.2,1.06-.04-.08.21-.25.45-.2.61.06.19.32.32.45.43.09,1.54-1.1,1.79-2.26,2.1.13.18.2.28.3.41.34-.38.69-.61,1.15-.28.04.03.17-.04.22-.1.11-.1.18-.25.29-.35.18-.14.46-.4.55-.35.22.13.47.39.5.62.05.39-.06.81-.11,1.31.14.2.37.52.59.85.04.07.09.18.06.24-.34.71-.76,1.36-1.5,1.72-.17.08-.42.11-.6.05-.35-.12-.66-.33-1-.49-.46-.22-.53-.63-.18-1.04.63-.73.6-.71.12-1.52-.41-.69-.94-.97-2.02-.58-.34.12-.69.22-1.01.36-.14.06-.25.22-.37.34.15.08.3.24.44.22.88-.09,1.67.24,2.46.53.1.04.17.13.26.2-.03.04-.05.09-.08.13-.27-.1-.55-.2-.88-.33.52.81.93,1.6.83,2.5-.08.73.12,1.41.11,2.19.27-.13.47-.23.67-.33.02.03.05.05.07.08-.26.26-.53.52-.85.85.53.18.95.31,1.34.44-.02.19-.06.38-.07.58-.01.69-.5,1.21-1.19,1.12-.49-.07-1.02-.22-1.43-.49-.53-.35-1.05-.5-1.66-.46-.12,0-.25-.02-.37-.13.35-.05.7-.09,1-.14.02-.37.11-.73.03-1.06-.06-.23-.34-.41-.5-.6-.69.02-1.22.23-1.59.86-.11.19-.51.23-.79.3-.18.05-.38.02-.57.13.73.19,1.45.39,2.28.61-.19.03-.29.05-.43.08,1.07,1.29,2.11,2.55,3.2,3.86-.55,1.21-3.78.83-4.79-.71-.55-.83-.79-1.74-.75-2.75-1.7,3.66-3.07,7.4-4.15,11.28.37-.44.73-.88,1.11-1.31.4-.44.83-.86,1.25-1.29.07-.07.15-.16.25-.2,1.04-.37,1.84-1.17,2.82-1.64.22-.11.51-.09.77-.11.16-.01.33.04.48.01.2-.03.48-.22.58-.15.24.19.41.48.59.74.03.04.02.12.04.17.05.15.09.29.14.43.16-.07.33-.13.47-.22.12-.08.21-.2.32-.31.04.04.07.07.11.11-.15.16-.32.32-.45.5-.08.11-.1.26-.15.4.13,0,.27.03.38-.01.23-.08.45-.2.69-.3,0,.06.02.1,0,.11-.5.4-.97.8-1.03,1.53-.02.26-.31.48-.71.38-.13-.03-.4.13-.47.27-.2.38-.45.42-.77.22-.45-.28-.83-.27-1.34-.02-.42.21-.99.17-1.49.14-.77-.04-1.49.07-2.28.55,1.23.2,2.29.51,3.12,1.33.78.77,1.55,1.55,2.38,2.38-.18.1-.32.2-.48.26-1.46.51-2.87.46-4.22-.34-.92-.54-1.77-1.15-2.26-2.14-.05-.09-.17-.14-.26-.21-.06.1-.15.19-.18.29-.4,1.45-.78,2.9-1.2,4.34-.16.56-.39,1.11-.61,1.66-.04.09-.13.16-.29.34,0-.21-.02-.28,0-.34.66-2.17,1.33-4.33,1.99-6.5.02-.06.08-.13.06-.16-.35-.54.14-.92.26-1.37.12-.47.37-.91.56-1.36.04-.08.07-.17.1-.25.31-.92.6-1.84.92-2.75.28-.82.57-1.63.88-2.43.32-.82.67-1.62,1-2.43.28-.68.55-1.36.83-2.04-.05-.04-.1-.09-.15-.13-.18.14-.45.24-.53.42-.37.76-.7,1.54-1.01,2.33-.53,1.36-1.06,2.73-1.55,4.11-.44,1.24-.82,2.5-1.24,3.75-.07.21-.15.43-.25.63-.17.31-.2.61-.18.98.02.32-.32.67-.5,1-.13.24-.31.46-.38.71-.33,1.17-.62,2.34-.94,3.51-.05.19-.17.36-.26.55-.06-.02-.13-.05-.19-.07.36-1.27.72-2.55,1.08-3.82-.04-.03-.08-.05-.12-.08-.4.18-.78.39-1.19.54-1.01.36-1.99.23-2.93-.27-.82-.43-1.63-.88-2.5-1.34,2.04-1.48,4.27-2.13,6.8-1.55.06-.35-.2-.79-.65-.93-.27-.09-.58-.05-.88-.04-.35,0-.72.09-1.06.03-.45-.07-.62-.36-.52-.79.08-.35.08-.65-.11-.99-.29-.5-.14-.82.43-1.24,0-.13-.01-.26-.02-.39,0-.02.04-.04.07-.08.07.15.14.29.22.43.55-.14.31-.68.57-1,.02.15.03.28.03.32.33-.1.65-.22.98-.26.06,0,.16.33.25.53.13,0,.37-.09.47,0,.13.1.13.35.2.53.04.1.08.2.14.28.55.64.95,1.36,1.19,2.17.01.05.06.09.08.12.98-2.72,1.97-5.43,2.95-8.14-.03-.03-.06-.05-.1-.08-.31.19-.6.41-.93.58-1.48.78-3,.89-4.57.26-.63-.25-1.28-.43-1.98-.67.57-.62,1.1-1.25,1.86-1.64.74-.38,1.49-.75,2.33-1.17-.45-.08-1.04.23-1.01-.48-.7,0-.84-.18-.75-.86.02-.12.04-.24.06-.36.09-.47.47-.94,0-1.43.1.1.19.25.31.28.2.04.41,0,.62,0-.02-.17,0-.36-.08-.52-.07-.15-.21-.26-.25-.47.18.15.37.31.55.46,0-.35-.06-.69.01-1.01.06-.26.23-.54.44-.71.25-.21.56-.36.86.02.15.2.34.21.59.05.72-.48,1.19-.29,1.07.58-.11.85.27,1.29.78,1.78.27.26.47.57.75.92.34-.47.93-.64.95-1.36.01-.34.3-.71.55-1.01.3-.36.56-.28.7.17.04.13.08.25.14.41.63-.45.59-1.18.96-1.86-.53.18-.93.31-1.32.46-.98.37-1.95.39-2.87-.15-.15-.09-.31-.34-.3-.51.02-.39.14-.77.23-1.2.66-.06,1.3-.12,1.98-.19-.23-.29-.46-.6-.7-.91-.15.05-.3.1-.44.15-.02-.02-.03-.05-.05-.07.13-.12.26-.25.41-.36.64-.44.96-1.11,1.31-1.75.16-.29-.02-.58-.35-.65-.15-.03-.3-.02-.45-.03-.01-.06-.03-.11-.02-.15.06-.26.11-.61-.2-.63-.19-.02-.45.27-.61.48-.11.14-.09.36-.37.37-.08,0-.15.29-.32.51-.02-.13-.05-.26-.08-.42-.51.33-.71.79-.73,1.22-.02.57-.32.68-.75.77-.09.02-.17.05-.25.08-.01.06-.02.12-.03.19.63.22,1.26.44,1.96.69-.19.04-.4.16-.56.11-.53-.16-1.06-.37-1.57-.59-.12-.05-.22-.26-.22-.4,0-.09.18-.21.31-.27.1-.05.24-.03.35-.07.12-.04.32-.09.34-.16.11-.45.19-.91.24-1.37.03-.26-.01-.54.07-.81.05.24.09.48.15.77.37-.24.62-.45.65-.89.03-.43.16-.85.25-1.28.05,0,.11.02.16.03l-.31,1.48s.09.06.13.08c.18-.16.37-.3.54-.47.23-.23.49-.51.82-.31.22.13.33.44.56.77.29.06.61.3.69.77.05.31.07.63.17.93.08.24.26.45.4.68.05-.02.1-.04.15-.07-.08-.18-.12-.39-.24-.54-.27-.33-.34-.66-.22-1.08.09-.34.11-.7.12-1.05.01-.41.59-1,1.04-.87.66.18,1.11-.23,1.64-.4.47-.15.48-.21.98.04.12-.32.23-.63.36-.98-.4.05-.71.11-1.02.12-.94.04-1.44-.32-1.8-1.26-.03-.08-.05-.17-.08-.26-.19-.5-.18-.5.38-.52.27,0,.54-.04.81-.08.52-.07.99-.02,1.39.38.13.13.33.2.6.35ZM79.7,33.67c.12-.02.27,0,.35-.08.12-.11.18-.27.27-.41-.13-.03-.26-.05-.39-.07-.28-.04-.56-.08-.85-.12-.79-.1-1.58-.25-2.37-.3-.53-.03-.8.44-.64.97l.55.12c-.06.12-.1.2-.14.29,1.19.5,2.23.17,3.23-.42,0,0-.02.01-.02.01ZM71.49,38.59c.34-.18.62-.28.67.22,0,.07.19.16.3.17.16.02.33-.03.5-.02.89.03,1.63-.84,1.44-1.7-.1-.44.05-.87.31-1.01,0,.62,0,1.27,0,1.96.61.07,1.22.14,1.96.22-.1-.33-.12-.65-.28-.86-.4-.5-.84-.98-1.33-1.39-.24-.2-.27-.34-.17-.6.08-.22.18-.47.17-.69,0-.18-.13-.4-.28-.52-.06-.05-.33.09-.45.2-.43.41-.42.42-.86,0-.31-.3-.48-.28-.73.07-.28.4-.21,1.09.12,1.62.13.2.19.44.29.66-.28.06-.56.13-.85.16-.11.01-.24-.08-.35-.06-.12.01-.3.06-.34.15-.21.44-.38.89-.12,1.43ZM78.53,40.32c-.22,1.74.24,3.13,1.66,4,.83.5,2.42.29,2.91-.28-.46-.54-.91-1.1-1.39-1.64-.54-.62-1.08-1.24-1.65-1.84-.33-.36-.77-.48-1.04-.42.46.55.94,1.13,1.43,1.71.42.49.83.99,1.29,1.44.29.28.67.47,1.01.7-.02.04-.03.08-.05.12-.31-.12-.64-.2-.92-.37-.74-.47-1.27-1.14-1.73-1.87-.38-.6-.86-1.1-1.53-1.54ZM69.87,42.15c1.07.4,2.09.76,3.23.73,1.75-.05,2.99-1.07,3.67-2.38.11-.22.05-.36-.21-.35-.28,0-.58,0-.85.07-.84.25-1.67.55-2.51.82-1.03.34-2,.91-3.13.93-.06,0-.12.1-.2.17ZM73.9,52.82c.02.12.02.18.04.23.46,1.07,1.3,1.75,2.27,2.34,1.15.7,2.33.85,3.58.32.27-.11.29-.24.06-.4-.11-.08-.22-.15-.35-.21-.95-.46-1.91-.88-2.83-1.38-.86-.46-1.74-.8-2.77-.91ZM66.4,53.28c1.12.81,2.21,1.46,3.59,1.21,1.17-.22,2.06-.84,2.63-1.87-.26-.43-.57-.26-.9-.2-.67.14-1.35.3-2.03.33-1.09.04-2.16.11-3.29.54ZM78.97,36.32c-.08-.31-.11-.5-.17-.67-.04-.1-.11-.22-.2-.26-.06-.02-.23.06-.26.13-.12.28-.2.58-.3.88-.05.16-.08.35-.18.48-.16.2-.37.35-.56.53-.44.41-.32,1.12.24,1.38.1.05.17.16.27.22.17.09.35.2.52.2.29,0,.58-.09.92-.15-.12-.28-.24-.56-.38-.84-.13-.26-.27-.51-.59-.15-.08.08-.25.08-.45.14.34-.33.62-.59.9-.86.06.04.11.05.13.09.1.25.17.51.28.76.07.15.18.37.3.39.66.11,1.01-.36.75-.97-.06-.14-.16-.26-.21-.39-.1-.27-.17-.55-.25-.83.08-.04.16-.07.24-.11l.09.48c.05-.01.1-.03.16-.04.06-.17.17-.35.16-.52-.01-.22-.06-.53-.21-.62-.13-.08-.43.07-.62.18-.19.12-.33.32-.58.58ZM82.62,38.45c-.07.22-.15.38-.17.55-.03.24-.1.52-.01.72.28.71,1.51,1.35,2.28,1.24.48-.07.71-.33.7-.78,0-.38-.25-.57-.75-.59-.51-.03-1.03,0-1.39-.63.19-.06.35-.14.52-.15.42-.03.52-.28.41-.62-.05-.15-.2-.27-.31-.41.03-.04.07-.1.11-.13.33-.25.17-.47-.06-.66-.25-.22-.45-.18-.62.12-.08.15-.2.27-.31.42-.19-.21-.33-.37-.58-.66-.2.47-.36.83-.49,1.19-.07.21.02.34.27.33.1,0,.21.03.4.06ZM79.13,51c-.04-.05-.07-.11-.11-.16.05-.33.05-.67.17-.97.25-.64.27-1.28.07-1.99-.15.14-.26.25-.36.35.11.16.2.28.29.41-.92.36-1.88.6-2.69,1.09-.83.51-1.49,1.27-2.06,2.22.24-.1.38-.15.52-.21,1-.42,1.98-.88,3.13-.61.32.07.69-.08,1.04-.13ZM88.08,26.33c.01.2,0,.4.05.59.04.19.12.5.21.51.22.04.48-.05.69-.14.21-.1.36-.31.64-.1.07.05.31-.05.44-.14.37-.25.49-.64.53-1.06.05-.5-.19-.73-.69-.68-.26.03-.53,0-.79,0-.03-.06-.06-.11-.1-.17.8-.33,1.23-.84.86-1.83-.23.34-.42.62-.56.82-.26-.07-.47-.12-.67-.18,0,.19.01.38.02.58.04.02.07.03.11.05-.2.17-.37.4-.59.51-.54.26-.7.69-.7,1.29.2-.02.37-.04.56-.06ZM69.48,41.85c.37-.06.78-.06,1.16-.19.99-.33,1.97-.72,2.96-1.05,1-.34,1.97-.83,3.09-.66.12.02.28-.17.42-.26-.14-.08-.27-.19-.42-.22-.28-.04-.57-.03-.85-.04-.57-.03-1.16-.17-1.7-.06-.77.16-1.52.45-2.24.77-.92.42-1.88.8-2.41,1.71ZM69.77,48.94s-.1.03-.14.05c-.17-.36-.34-.73-.51-1.09-.05.01-.1.02-.16.03-.02.22-.15.51-.05.66.23.36.22.7.14,1.08-.08.42.11.65.55.61.5-.04,1-.16,1.49-.26.36-.07.58-.34.57-.66-.01-.64-.1-1.27-.17-1.94-.29.09-.51.15-.78.23.04-.19.08-.3.08-.41,0-.12-.03-.25-.05-.37-.13.04-.31.04-.4.13-.29.29-.46.64-.36,1.07.02.11.03.22.04.33-.04.01-.08.02-.12.04-.09-.2-.19-.39-.28-.59-.05.02-.11.04-.16.05.1.35.21.7.31,1.06ZM80.77,49.28c-.02-.07-.03-.15-.05-.22.13-.04.26-.07.39-.11.15-.05.44-.1.44-.14-.01-.36-.01-.75-.15-1.07-.1-.22-.43-.3-.61.03-.12.22-.23.19-.44.11-.2-.08-.44-.06-.66-.08,0,.24-.02.48-.03.72-.02.33-.01.67-.07.99-.03.19-.17.35-.23.54-.09.27-.08.5.25.62.41.15.81.32,1.23.49.18-.25.37-.5.55-.75.62.27.83.13.82-.61l-.73-.15s-.02-.07-.03-.11c.2-.08.4-.16.6-.23,0-.03,0-.06,0-.1-.43.03-.85.06-1.28.09ZM80.77,27.65c-.22-.05-.41-.1-.6-.12-.32-.05-.55.11-.62.4-.12.5-.21,1-.26,1.51-.05.44.64,1.06,1,.91.54-.22,1.17-.32,1.49-.91.06-.11.22-.17.29-.28.13-.22.27-.46.3-.71,0-.09-.3-.21-.49-.34.02-.02.06-.08.11-.15.14-.21.29-.42.39-.65.04-.08,0-.24-.07-.32-.02-.04-.2,0-.28.04-.24.12-.49.23-.7.4-.16.13-.25.33-.38.5.03.02.07.04.1.07.22-.1.44-.21.66-.31.02.03.04.05.05.08-.4.43-.79.87-1.19,1.3-.07-.03-.13-.06-.2-.1.13-.44.26-.87.39-1.31ZM82.08,21.61s-.07.05-.11.07c-.14-.11-.27-.21-.41-.31-.15-.11-.38-.32-.44-.28-.19.12-.37.32-.44.53-.12.33-.17.69-.23,1.04-.02.08-.01.2.04.25.7.6,1.42.64,1.91-.22.22-.39.45-.71.84-.97.29-.18.47-.56.64-.89.13-.26.03-.45-.32-.48-.12-.01-.24-.17-.34-.29-.08-.1-.09-.3-.16-.32-.1-.03-.26.05-.36.13-.3.24-.52.51-.31.93.11.22.03.34-.22.35-.1,0-.19.02-.25.03.06.16.12.3.17.44ZM87.37,21.58c.12-.55.26-1.04.3-1.54.02-.22-.15-.65-.25-.66-.34-.03-.3.29-.31.55,0,.15-.11.29-.17.43-.11-.06-.22-.14-.33-.19-.13-.06-.35-.19-.4-.14-.12.11-.27.33-.24.47.06.33.23.65.34.97.06.16.11.33.13.5.04.27.03.54.08.81.07.39.32.53.69.39.15-.06.29-.16.43-.25.26-.18.52-.37.87-.21.06.03.23,0,.24-.03.08-.28.25-.61.17-.85-.07-.22-.33-.49-.71-.38-.24.07-.49.08-.83.14ZM86.67,33.27c.11-.25.18-.43.27-.61.05-.11.15-.19.2-.3.15-.31.16-.64-.15-.84-.33-.21-.47.14-.64.32-.17.18-.3.4-.45.62-.09-.07-.14-.11-.18-.15-.22-.22-.46-.25-.67-.02-.21.23-.07.43.11.62.12.13.22.28.28.45.17.46-.08.76-.39,1.07-.14.14-.24.39-.22.58.01.11.28.2.45.28.17.08.39.11.52.23.23.21.48.35.71.11.15-.16.23-.46.21-.68-.06-.53-.21-1.05-.32-1.58,0-.02.02-.05.05-.1.09,0,.19,0,.22,0ZM84.25,30.66c.18.64.38.85.74.71.42-.15.83-.37,1.17-.64.15-.12.13-.46.19-.69-.2-.04-.39-.1-.59-.11-.11,0-.23.1-.34.11-.24.02-.49,0-.73,0-.04-.11-.08-.22-.12-.33.18-.05.38-.06.52-.15.17-.11.29-.29.44-.45-.2-.03-.41-.05-.61-.09-.04,0-.07-.05-.14-.09.09-.09.16-.18.29-.31-.15-.13-.3-.25-.44-.36-.12.15-.24.29-.35.45-.1.15-.17.31-.26.47-.05,0-.11.01-.16.02-.03-.16-.07-.33-.1-.49-.73.45-.66.97.04,1.38l-.16.79c.26-.09.41-.14.59-.21ZM81.46,33.41c-.02.32-.06.53-.03.73.12.66.4,1.25.82,1.78.43.54,1,.58,1.6.47.12-.02.32-.24.31-.35-.07-.71-.33-1.35-.81-1.92-.49-.58-1.22-.35-1.89-.71ZM81.05,34.51c-.38.45-.24,1.09-.43,1.61-.24.65-.32,1.21-.06,1.83.02.05-.01.13.01.18.03.06.12.16.14.15.33-.12.75-.18.95-.42.32-.38.5-.89.69-1.24-.44-.71-.87-1.4-1.3-2.1ZM78.4,29.81c-.35.54-.63.98-.89,1.42-.04.06.02.2.07.28.64.99,1.67,1.15,2.72,1.25.14.01.3-.14.45-.22-.14-.1-.27-.27-.43-.3-.38-.08-.65-.27-.84-.61-.32-.58-.68-1.14-1.09-1.82ZM65.97,53.03c.34-.09.68-.23,1.02-.28,1.01-.12,2.03-.19,3.04-.31.7-.08,1.4-.22,2.11-.33-.24-.48-1.74-.69-3.4-.36-1.02.21-2.02.51-2.79,1.27ZM87.21,26.3c.02-.82.56-1.24,1.14-1.63-.03-.06-.06-.12-.08-.17-1.18.14-2.37.27-3.55.41-.02.06-.03.12-.05.18.83.39,1.65.79,2.55,1.21ZM84.87,24.51s.08-.02.13-.04c.35-.17.71-.34,1.05-.53.51-.28.33-.7.23-1.11-.01-.06.02-.12,0-.18-.11-.37-.23-.74-.35-1.12l-.18-.02c-.13.27-.28.53-.39.81-.23.6-.45,1.2-.69,1.86.03.04.11.17.2.32ZM72.67,51.98c.51-1.19.06-3.07-.78-3.58-.05.66.23,1.39-.38,1.82.38.59.75,1.14,1.16,1.76ZM78.83,54.55c-.82-1.8-4.07-2.85-5.23-1.98.38,0,.72-.04,1.06.01.96.14,1.78.64,2.61,1.1.52.29,1.04.58,1.56.87ZM83.3,30.37c-.53.37-1.06.69-1.51,1.1-.18.16-.28.56-.21.79.1.32.37.05.56,0,.56-.16,1.12-.31,1.67-.49.14-.05.34-.21.33-.31-.01-.19-.05-.47-.41-.37-.08.02-.25-.11-.31-.21-.08-.15-.09-.34-.12-.5ZM83.47,24.97c-.75-.5-1.42-1.1-2.43-.82-.4.11-.48.15-.32.52.27.64.95,1.04,1.67.95.42-.05.88-.1,1.08-.65ZM79.87,30.74c-.31.82-.16.99,1.11,1.3.2-.6.39-1.19.61-1.84-.63.2-1.15.36-1.72.54ZM82.66,22.73c.25.42.43.74.64,1.04.13.18.28.36.46.48.21.13.4.05.36-.24-.06-.42-.14-.83-.22-1.24-.06-.32-.14-.63-.23-1.07-.41.42-.74.75-1.01,1.03ZM73.93,39.05c1,.07,1.97.13,3.04.2-.69-.79-2.72-.87-3.04-.2ZM86.82,27.4s.07-.08.11-.12c-.12-.09-.23-.24-.37-.27-1.06-.27-1.97-.69-2.15-1.94,0-.03-.05-.05-.09-.08-.49,1.09,1.04,2.28,2.49,2.41ZM82.72,28.21c.31-.54.62-.99.84-1.48.17-.37.54-.73.23-1.2-.6.65-.55,1.7-1.4,2.23.11.16.21.29.33.45ZM80.11,34.87s.06.15.11.27c.1-.08.26-.14.31-.25.21-.46.39-.94.57-1.41.03-.08.04-.18.02-.26-.02-.07-.09-.18-.16-.18-.06,0-.17.07-.19.14-.21.53-.41,1.06-.66,1.7ZM84.81,25.57c.47.7,1.09,1.09,1.86,1.31-.07-.56-.98-1.19-1.86-1.31ZM86.96,35.08c.06.02.12.04.18.05.13-.24.35-.48.36-.73,0-.12-.36-.27-.66-.47.05.49.09.82.12,1.15ZM81.64,30.79c.07.03.13.05.2.08.21-.53.42-1.05.62-1.58-.76.3-.34,1.08-.82,1.5ZM77.45,39.42c.07.24.13.42.19.61.19-.11.39-.21.68-.37-.35-.09-.56-.15-.87-.24ZM88.71,20.65s-.1-.07-.15-.11c-.18.12-.36.25-.54.37.02.05.03.1.05.15.16,0,.34.04.46-.03.1-.06.12-.25.17-.39ZM80.13,38.75s-.05-.09-.08-.13c-.19.09-.38.17-.55.28-.04.03-.02.19.02.26.02.03.18.04.22,0,.14-.12.26-.27.39-.41Z"/><path d="M84.72,78.2c-1.34-.19-2.63-.53-3.72-1.38.02-.05.04-.09.06-.14.31.17.61.37.94.49.69.24,1.39.44,2.09.64.07.02.18-.05.27-.09-.04-.07-.06-.16-.11-.22-.35-.4-.73-.76-1.03-1.19-.11-.15-.02-.45-.02-.74.51.64,1,1.22,1.46,1.82.19.24.26.53.06.82,0,0,.02,0,.02,0Z"/><path d="M82.89,76.2c-.33-.12-.66-.24-.99-.36.02-.06.04-.11.06-.17.34.1.67.2,1.01.3-.03.08-.05.16-.08.23Z"/><path d="M83.18,75.17c0-.14.01-.3.02-.45.04-.02.09-.04.13-.06.15.19.3.38.52.65l-.68-.14Z"/><path d="M94.62,58.94c0-.55-.02-1.11-.03-1.66.06,0,.12,0,.18,0,0,.56,0,1.12,0,1.68l-.14-.02Z"/><path d="M78.8,49.6c-.52.18-.97.34-1.36.47.26-.48.69-.68,1.36-.47Z"/><path d="M81.77,33.84c.43.09,1.98,1.73,2.01,2.18-.73-.71-1.42-1.39-2.12-2.07.04-.04.07-.07.11-.11Z"/><path d="M79.72,33.66c-.74-.03-1.48-.07-2.34-.1.18-.1.29-.2.4-.2.56,0,1.11.02,1.67.06.09,0,.17.17.25.26,0,0,.02-.01.02-.01Z"/><path d="M82.71,25.11c-.73.14-1.33-.1-1.84-.62.24-.12.23-.1.88.29.28.17.64.22.96.33Z"/></svg>