<?xml version="1.0" encoding="UTF-8"?><svg id="Layer_1" xmlns="http://www.w3.org/2000/svg" viewBox="0 0 144.57 144.57"><path d="M47.15,48.98l-1.03.78v-1.14l1.03-.77h1.03v7.48h-1.03v-6.35Z" fill="#1d1d1b"/><path d="M50.54,54.33l2.83-3.66c.11-.15.18-.28.22-.41.03-.12.04-.23.04-.34,0-.28-.08-.53-.25-.73-.18-.21-.43-.32-.75-.32-.29,0-.52.09-.71.28-.2.19-.31.45-.35.8h-1.04c.03-.62.23-1.13.61-1.54.38-.4.85-.6,1.41-.6.62,0,1.13.21,1.52.62.39.4.59.91.6,1.52,0,.49-.15.93-.44,1.31l-2.33,3.02h2.77v1.07h-4.13v-1Z" fill="#1d1d1b"/><path d="M49.38,40.35h28.7c14.35,0,26.01,11.65,26.01,26.01v28.7c0,5.6-4.55,10.15-10.15,10.15h-44.56c-5.6,0-10.15-4.55-10.15-10.15v-44.56c0-5.6,4.55-10.15,10.15-10.15Z" fill="none" stroke="#000" stroke-miterlimit="10" stroke-width=".65"/><path d="M54.38,59.8h3.01l6.04,14.18,5.92-14.18h3.02v21.75h-3.19v-13.56h-.07l-4.41,10.45h-2.66l-4.41-10.45h-.06v13.56h-3.19v-21.75Z" fill="#1d1d1b"/><path d="M85.47,79.97c-.97,1.13-2.23,1.72-3.79,1.76-.95-.02-1.74-.23-2.37-.63-.66-.38-1.16-.79-1.51-1.23-.39-.5-.66-1.11-.83-1.83-.18-.71-.27-2.06-.27-4.06s.09-3.41.27-4.13c.17-.71.45-1.31.83-1.8.35-.47.85-.9,1.51-1.28.63-.36,1.42-.55,2.37-.57,1.46,0,2.72.6,3.79,1.8v-1.61h2.95v14.79c-.04,2.28-.67,3.95-1.91,5.02-1.24,1.1-2.73,1.65-4.46,1.65-1.99-.04-3.68-.88-5.08-2.54l2.29-1.88c.38.36.81.67,1.3.92.5.28,1.02.44,1.55.46,1.01,0,1.82-.29,2.43-.87.6-.59.91-1.4.93-2.43v-1.55ZM79.64,73.99c0,1.16.04,1.96.11,2.4.07.46.22.84.47,1.14.2.27.5.52.91.75.39.27.87.41,1.44.41s1.06-.14,1.44-.41c.39-.22.68-.47.88-.75.25-.3.41-.68.5-1.14.06-.44.09-1.24.09-2.4s-.03-2-.09-2.46c-.08-.46-.25-.83-.5-1.11-.2-.27-.49-.54-.88-.81-.39-.22-.87-.35-1.44-.37-.58.02-1.06.14-1.44.37-.4.26-.71.53-.91.81-.25.28-.4.65-.47,1.11-.08.46-.11,1.28-.11,2.46Z" fill="#1d1d1b"/><path d="M65.33,98.7l1.32-1.71c.05-.07.09-.13.1-.19.01-.06.02-.11.02-.16,0-.13-.04-.25-.12-.34-.08-.1-.2-.15-.35-.15-.13,0-.25.04-.33.13-.09.09-.15.21-.16.37h-.48c.01-.29.11-.53.28-.72.18-.19.4-.28.66-.28.29,0,.53.1.71.29.18.19.28.42.28.71,0,.23-.07.43-.2.61l-1.09,1.41h1.29v.5h-1.93v-.47Z" fill="#1d1d1b"/><path d="M67.6,98.18l1.13-2.51h.54l-1.14,2.51h.88v-1.01h.48v1.01h.27v.47h-.27v.52h-.48v-.52h-1.41v-.47Z" fill="#1d1d1b"/><path d="M70.22,98.67h.48v.5h-.48v-.5Z" fill="#1d1d1b"/><path d="M71.91,97.15h.17c.17,0,.29-.05.39-.14.09-.09.14-.21.14-.36,0-.15-.05-.27-.14-.36-.09-.09-.21-.14-.35-.14-.1,0-.2.03-.28.1-.09.07-.15.18-.18.32h-.49c.02-.26.13-.48.3-.65s.38-.26.63-.27c.31,0,.55.1.73.3.17.19.26.43.26.69,0,.13-.02.26-.07.39-.06.12-.16.24-.3.33.15.1.25.21.32.35.06.13.09.27.09.42,0,.33-.1.59-.29.77-.19.19-.43.29-.73.29-.23,0-.43-.08-.61-.23s-.29-.37-.35-.67h.49c.04.12.1.21.18.28.08.08.19.11.32.11.14,0,.26-.05.36-.15.1-.09.15-.23.15-.4,0-.18-.05-.32-.15-.41-.1-.09-.22-.14-.37-.14h-.21v-.44Z" fill="#1d1d1b"/><path d="M73.61,96.65c0-.32.1-.57.3-.74.18-.17.4-.26.66-.26s.49.09.67.26c.19.17.28.42.29.75v1.54c0,.32-.1.57-.29.74-.18.17-.41.26-.67.26-.26,0-.48-.09-.66-.26-.2-.17-.3-.42-.3-.74v-1.55ZM75.05,96.68c0-.35-.17-.53-.48-.54-.31,0-.47.18-.48.54v1.48c0,.35.16.53.48.54.31,0,.47-.18.48-.54v-1.48Z" fill="#1d1d1b"/><path d="M76.02,95.68h1.8v.5h-1.35v.8c.16-.13.34-.19.54-.19.13,0,.25.03.36.07.1.05.19.11.25.18.09.1.16.21.2.33.02.07.04.15.05.25,0,.1.01.22.01.37,0,.23-.02.4-.05.52-.03.12-.09.23-.16.32-.07.09-.16.17-.29.25-.12.08-.27.12-.44.12-.23,0-.44-.07-.63-.21-.19-.14-.31-.38-.36-.7h.49c.05.27.21.4.49.41.12,0,.21-.02.28-.07.07-.05.11-.11.14-.18.03-.08.05-.16.05-.25,0-.09,0-.17,0-.25,0-.2-.03-.36-.09-.49-.03-.06-.09-.11-.15-.14-.07-.03-.15-.04-.25-.04-.09,0-.17.02-.24.06-.07.04-.14.12-.2.23h-.46v-1.89Z" fill="#1d1d1b"/><path d="M54.96,88.54h.69l1.38,3.24,1.36-3.24h.69v4.98h-.73v-3.11h-.02l-1.01,2.39h-.61l-1.01-2.39h-.01v3.11h-.73v-4.98Z" fill="#1d1d1b"/><path d="M62,93.21h-.01c-.06.12-.16.21-.3.27-.13.06-.32.09-.55.09-.38,0-.68-.11-.89-.31-.22-.2-.33-.46-.33-.77s.1-.54.28-.74c.19-.2.47-.3.83-.31h.96v-.37c0-.31-.23-.47-.7-.46-.17,0-.31.02-.41.05-.1.04-.19.12-.25.22l-.54-.43c.26-.35.65-.52,1.16-.52.43,0,.78.08,1.03.25.26.18.39.48.39.92v2.42h-.69v-.31ZM62,92.02h-.83c-.4,0-.6.15-.6.43,0,.12.05.22.16.31.1.09.26.14.49.14.29,0,.49-.03.61-.11.11-.08.16-.25.16-.51v-.26Z" fill="#1d1d1b"/><path d="M65.62,93.15c-.23.26-.52.4-.89.41-.22,0-.41-.05-.55-.15-.15-.09-.27-.18-.35-.29-.09-.12-.16-.26-.2-.43-.04-.17-.06-.48-.06-.95s.02-.8.06-.97c.04-.17.1-.31.2-.42.08-.11.2-.21.35-.3.15-.08.33-.13.55-.13.34,0,.64.14.89.42v-.38h.69v3.46c0,.53-.16.92-.45,1.17-.29.26-.64.39-1.04.39-.46,0-.86-.21-1.19-.59l.54-.44c.09.08.19.16.3.22.12.07.24.1.36.11.24,0,.43-.07.57-.2.14-.14.21-.33.22-.57v-.36ZM64.26,91.75c0,.27,0,.46.03.56.02.11.05.2.11.27.05.06.12.12.21.18.09.06.2.1.34.1s.25-.03.34-.1c.09-.05.16-.11.21-.18.06-.07.1-.16.12-.27.01-.1.02-.29.02-.56s0-.47-.02-.58c-.02-.11-.06-.19-.12-.26-.05-.06-.11-.13-.21-.19-.09-.05-.2-.08-.34-.09-.13,0-.25.03-.34.09-.09.06-.17.13-.21.19-.06.07-.09.15-.11.26-.02.11-.03.3-.03.58Z" fill="#1d1d1b"/><path d="M67.32,89.98h.69v.38h.01c.23-.28.52-.42.89-.42.28,0,.54.1.78.31.23.21.36.52.37.92v2.36h-.69v-2.11c0-.25-.06-.44-.19-.57-.13-.13-.29-.2-.49-.2s-.36.07-.49.2c-.13.13-.19.32-.19.57v2.11h-.69v-3.54Z" fill="#1d1d1b"/><path d="M71.6,92.02c0,.29.08.5.24.65.15.15.34.23.58.23.28,0,.53-.11.75-.34l.5.44c-.35.39-.76.58-1.24.57-.18,0-.36-.03-.53-.08-.09-.03-.17-.07-.25-.12-.09-.04-.17-.1-.24-.16-.15-.13-.26-.32-.35-.55-.1-.23-.15-.52-.15-.89s.04-.64.13-.87c.09-.24.2-.42.33-.56.14-.14.29-.24.46-.3.17-.06.33-.09.5-.09.39,0,.72.14,1,.4.28.27.42.63.42,1.1v.59h-2.14ZM73.05,91.43c0-.28-.08-.49-.22-.63-.13-.14-.3-.2-.51-.2s-.38.07-.51.2c-.13.14-.2.35-.22.63h1.45Z" fill="#1d1d1b"/><path d="M74.67,92.44c.28.3.64.45,1.09.45.2,0,.36-.04.49-.12.13-.08.19-.19.19-.33,0-.13-.04-.22-.11-.27-.08-.05-.18-.08-.31-.09l-.61-.05c-.29-.03-.52-.13-.71-.3-.19-.17-.28-.4-.29-.71,0-.36.13-.64.37-.82.24-.18.54-.27.91-.27.16,0,.3.01.43.03.13.02.24.05.35.1.21.09.4.21.57.36l-.43.52c-.13-.1-.27-.18-.42-.24-.15-.06-.31-.09-.5-.09-.22,0-.37.04-.45.12-.09.08-.14.18-.14.31,0,.08.03.15.1.21.07.07.18.11.35.13l.57.04c.36.03.62.14.78.34.15.19.22.43.22.73,0,.34-.14.61-.41.8-.26.19-.6.29-1.02.29-.56,0-1.06-.21-1.51-.63l.48-.49Z" fill="#1d1d1b"/><path d="M77.95,88.54h.69v.71h-.69v-.71ZM77.95,89.98h.69v3.54h-.69v-3.54Z" fill="#1d1d1b"/><path d="M79.61,89.98h.69v2.11c0,.24.06.43.19.56.13.13.29.2.49.2s.36-.07.49-.2c.13-.13.19-.32.19-.56v-2.11h.69v3.54h-.69v-.38h-.01c-.23.28-.52.42-.89.42-.28,0-.54-.11-.77-.32-.25-.21-.38-.51-.38-.91v-2.36Z" fill="#1d1d1b"/><path d="M83.34,89.98h.69v.38h.01c.23-.28.54-.42.93-.42.25,0,.44.05.59.13.15.09.28.2.41.34.28-.31.65-.47,1.12-.46.29,0,.56.1.81.31.24.21.37.52.38.92v2.36h-.69v-2.11c0-.25-.07-.44-.2-.57-.13-.13-.3-.2-.51-.2s-.38.07-.51.2c-.14.13-.21.32-.21.57v2.11h-.69v-2.11c0-.25-.07-.44-.2-.57-.13-.13-.31-.2-.51-.2s-.38.07-.51.2c-.14.13-.21.32-.21.57v2.11h-.69v-3.54Z" fill="#1d1d1b"/></svg>