<?xml version="1.0" encoding="UTF-8"?>
<svg id="Layer_1" data-name="Layer 1" xmlns="http://www.w3.org/2000/svg" version="1.1" viewBox="0 0 144.6 144.6">
  <defs>
    <style>
      .cls-1 {
        fill: #1e1e1c;
      }

      .cls-1, .cls-2 {
        stroke-width: 0px;
      }

      .cls-2 {
        fill: #010101;
      }
    </style>
  </defs>
  <path class="cls-2" d="M55,24.5c2.2,0,3.9,1.8,3.9,3.9v12.5c0,2.2-1.8,3.9-3.9,3.9h-12.5c-2.2,0-3.9-1.8-3.9-3.9v-12.5c0-2.2,1.8-3.9,3.9-3.9h12.5M55.1,24.3h-12.5c-2.3,0-4.1,1.9-4.1,4.1v12.5c0,2.3,1.8,4.1,4.1,4.1h12.5c2.3,0,4.1-1.8,4.1-4.1v-12.5c0-2.3-1.8-4.1-4.1-4.1h0Z"/>
  <path class="cls-2" d="M80.2,24.5c2.2,0,3.9,1.8,3.9,3.9v12.5c0,2.2-1.8,3.9-3.9,3.9h-12.5c-2.2,0-3.9-1.8-3.9-3.9v-12.5c0-2.2,1.8-3.9,3.9-3.9h12.5M80.2,24.3h-12.5c-2.3,0-4.1,1.9-4.1,4.1v12.5c0,2.3,1.9,4.1,4.1,4.1h12.5c2.3,0,4.1-1.8,4.1-4.1v-12.5c0-2.3-1.8-4.1-4.1-4.1h0Z"/>
  <path class="cls-2" d="M105.3,24.5c2.2,0,3.9,1.8,3.9,3.9v12.5c0,2.2-1.8,3.9-3.9,3.9h-12.5c-2.2,0-3.9-1.8-3.9-3.9v-12.5c0-2.2,1.8-3.9,3.9-3.9h12.5M105.3,24.3h-12.5c-2.3,0-4.1,1.9-4.1,4.1v12.5c0,2.3,1.8,4.1,4.1,4.1h12.5c2.3,0,4.1-1.8,4.1-4.1v-12.5c0-2.3-1.8-4.1-4.1-4.1h0Z"/>
  <path class="cls-2" d="M80.2,49.7c2.2,0,3.9,1.8,3.9,3.9v12.5c0,2.2-1.8,3.9-3.9,3.9h-12.5c-2.2,0-3.9-1.8-3.9-3.9v-12.5c0-2.2,1.8-3.9,3.9-3.9h12.5M80.2,49.5h-12.5c-2.3,0-4.1,1.8-4.1,4.1v12.5c0,2.3,1.9,4.1,4.1,4.1h12.5c2.3,0,4.1-1.8,4.1-4.1v-12.5c0-2.3-1.8-4.1-4.1-4.1h0Z"/>
  <path class="cls-2" d="M105.3,49.7c2.2,0,3.9,1.8,3.9,3.9v12.5c0,2.2-1.8,3.9-3.9,3.9h-12.5c-2.2,0-3.9-1.8-3.9-3.9v-12.5c0-2.2,1.8-3.9,3.9-3.9h12.5M105.3,49.5h-12.5c-2.3,0-4.1,1.8-4.1,4.1v12.5c0,2.3,1.8,4.1,4.1,4.1h12.5c2.3,0,4.1-1.8,4.1-4.1v-12.5c0-2.3-1.8-4.1-4.1-4.1h0Z"/>
  <path class="cls-2" d="M55,74.8c2.2,0,3.9,1.8,3.9,3.9v12.5c0,2.2-1.8,3.9-3.9,3.9h-12.5c-2.2,0-3.9-1.8-3.9-3.9v-12.5c0-2.2,1.8-3.9,3.9-3.9h12.5M55.1,74.6h-12.5c-2.3,0-4.1,1.8-4.1,4.1v12.5c0,2.3,1.8,4.1,4.1,4.1h12.5c2.3,0,4.1-1.8,4.1-4.1v-12.5c0-2.3-1.8-4.1-4.1-4.1h0Z"/>
  <path class="cls-2" d="M80.2,74.8c2.2,0,3.9,1.8,3.9,3.9v12.5c0,2.2-1.8,3.9-3.9,3.9h-12.5c-2.2,0-3.9-1.8-3.9-3.9v-12.5c0-2.2,1.8-3.9,3.9-3.9h12.5M80.2,74.6h-12.5c-2.3,0-4.1,1.8-4.1,4.1v12.5c0,2.3,1.9,4.1,4.1,4.1h12.5c2.3,0,4.1-1.8,4.1-4.1v-12.5c0-2.3-1.8-4.1-4.1-4.1h0Z"/>
  <path class="cls-2" d="M105.3,74.8c2.2,0,3.9,1.8,3.9,3.9v12.5c0,2.2-1.8,3.9-3.9,3.9h-12.5c-2.2,0-3.9-1.8-3.9-3.9v-12.5c0-2.2,1.8-3.9,3.9-3.9h12.5M105.3,74.6h-12.5c-2.3,0-4.1,1.8-4.1,4.1v12.5c0,2.3,1.8,4.1,4.1,4.1h12.5c2.3,0,4.1-1.8,4.1-4.1v-12.5c0-2.3-1.8-4.1-4.1-4.1h0Z"/>
  <path class="cls-2" d="M80.2,100c2.2,0,3.9,1.8,3.9,3.9v12.5c0,2.2-1.8,3.9-3.9,3.9h-12.5c-2.2,0-3.9-1.8-3.9-3.9v-12.5c0-2.2,1.8-3.9,3.9-3.9h12.5M80.2,99.8h-12.5c-2.3,0-4.1,1.8-4.1,4.1v12.5c0,2.3,1.9,4.1,4.1,4.1h12.5c2.3,0,4.1-1.8,4.1-4.1v-12.5c0-2.3-1.8-4.1-4.1-4.1h0Z"/>
  <path class="cls-2" d="M105.3,100c2.2,0,3.9,1.8,3.9,3.9v12.5c0,2.2-1.8,3.9-3.9,3.9h-12.5c-2.2,0-3.9-1.8-3.9-3.9v-12.5c0-2.2,1.8-3.9,3.9-3.9h12.5M105.3,99.8h-12.5c-2.3,0-4.1,1.8-4.1,4.1v12.5c0,2.3,1.8,4.1,4.1,4.1h12.5c2.3,0,4.1-1.8,4.1-4.1v-12.5c0-2.3-1.8-4.1-4.1-4.1h0Z"/>
  <path class="cls-1" d="M43.8,31.5h.8l2.6,4.3h0v-4.3h.9v6h-.8l-2.6-4.3h0v4.3h-.9v-6h0Z"/>
  <path class="cls-1" d="M51.7,37.1h0c0,.2-.2.2-.4.3s-.4.1-.7.1c-.5,0-.8-.1-1.1-.4-.3-.2-.4-.5-.4-.9s.1-.7.3-.9c.2-.2.6-.4,1-.4h1.2v-.5c0-.4-.3-.6-.8-.5-.2,0-.4,0-.5,0-.1,0-.2.1-.3.3l-.7-.5c.3-.4.8-.6,1.4-.6.5,0,.9,0,1.2.3.3.2.5.6.5,1.1v2.9h-.8v-.4h0ZM51.7,35.7h-1c-.5,0-.7.2-.7.5,0,.2,0,.3.2.4.1.1.3.2.6.2s.6,0,.7-.1c.1,0,.2-.3.2-.6v-.3h0Z"/>
  <path class="cls-2" d="M53.6,32h.4v1h1v.4h-1v1h-.4v-1h-1v-.4h1v-1Z"/>
  <path class="cls-1" d="M42.8,86.6c.5.4,1,.6,1.7.6.8,0,1.1-.3,1.2-.8,0-.4-.2-.7-.8-.8-.2,0-.5,0-.8-.1-.5,0-.9-.3-1.1-.6-.3-.3-.4-.7-.4-1.1s.2-.9.5-1.3c.3-.3.8-.5,1.4-.5.7,0,1.3.2,1.9.6l-.5.8c-.4-.3-.9-.4-1.4-.5-.3,0-.5,0-.7.2-.2.2-.3.4-.3.7s0,.3.2.5.3.2.6.3c.2,0,.4,0,.7,0,.5,0,1,.3,1.2.6.3.3.4.7.4,1.1,0,1.2-.7,1.7-2,1.8-.9,0-1.6-.3-2.2-.8l.6-.7h0Z"/>
  <path class="cls-1" d="M47.4,85c0-.7,0-1.2,0-1.4,0-.2.1-.4.2-.6.1-.3.4-.5.7-.7s.7-.3,1.2-.3c.5,0,.8.1,1.2.3.3.2.5.5.7.7,0,.2.2.3.2.6,0,.2,0,.7,0,1.4s0,1.2,0,1.4c0,.2-.1.4-.2.6-.1.3-.4.5-.7.7-.3.2-.7.3-1.2.3-.5,0-.8-.1-1.2-.3-.3-.2-.5-.5-.7-.7,0,0,0-.2-.1-.3,0,0,0-.2,0-.3,0-.2,0-.7,0-1.4h0ZM48.3,85c0,.6,0,1,0,1.2s.1.4.2.5c0,.1.2.2.4.3.2,0,.3.1.5.1s.4,0,.5-.1c.2,0,.3-.2.3-.3.1-.1.2-.3.2-.5,0-.2,0-.6,0-1.2s0-1,0-1.2c0-.2-.1-.4-.2-.5,0-.1-.2-.2-.3-.3-.2,0-.3-.1-.5-.1-.2,0-.4,0-.5.1-.2,0-.3.2-.4.3-.1.1-.2.3-.2.5,0,.2,0,.6,0,1.2Z"/>
  <path class="cls-2" d="M54,83.4h1.4v.5h-1.4v-.5Z"/>
  <path class="cls-2" d="M51.4,88.1l1.1-2.4h.5l-1.1,2.4h.8v-1h.5v1h.3v.4h-.3v.5h-.5v-.5h-1.4v-.4Z"/>
  <path class="cls-1" d="M67.2,56.9h.8l1.7,3.9,1.6-3.9h.8v6h-.9v-3.8h0l-1.2,2.9h-.7l-1.2-2.9h0v3.8h-.9v-6h0Z"/>
  <path class="cls-1" d="M75.9,62.4c-.3.3-.6.5-1.1.5-.3,0-.5,0-.7-.2-.2-.1-.3-.2-.4-.3-.1-.1-.2-.3-.2-.5,0-.2,0-.6,0-1.2s0-1,0-1.2c0-.2.1-.4.2-.5,0-.1.2-.2.4-.4.2,0,.4-.2.7-.2.4,0,.8.2,1.1.5v-.5h.8v4.2c0,.6-.2,1.1-.5,1.4-.3.3-.8.5-1.3.5-.6,0-1-.2-1.4-.7l.7-.5c.1,0,.2.2.4.3.1,0,.3.1.4.1.3,0,.5,0,.7-.2.2-.2.3-.4.3-.7,0,0,0-.4,0-.4ZM74.3,60.7c0,.3,0,.5,0,.7s0,.2.1.3c0,0,.1.2.3.2.1,0,.2.1.4.1s.3,0,.4-.1c.1,0,.2-.1.2-.2,0,0,.1-.2.1-.3,0-.1,0-.3,0-.7s0-.6,0-.7,0-.2-.1-.3c0,0-.1-.2-.2-.2-.1,0-.2,0-.4,0s-.3,0-.4,0c-.1,0-.2.2-.3.2,0,0-.1.2-.1.3s0,.4,0,.7Z"/>
  <path class="cls-2" d="M77.7,59.4l1.3-1.7c0,0,0-.1,0-.2,0,0,0,0,0-.2,0-.1,0-.2-.1-.3,0,0-.2-.1-.3-.2-.1,0-.2,0-.3.1,0,0-.1.2-.2.4h-.5c0-.3,0-.5.3-.7s.4-.3.6-.3.5,0,.7.3c.2.2.3.4.3.7s0,.4-.2.6l-1.1,1.4h1.2v.5h-1.9v-.5h0Z"/>
  <path class="cls-2" d="M81,57.5h.4v1h1v.4h-1v1h-.4v-1h-1v-.4h1v-1Z"/>
  <path class="cls-1" d="M68.2,112.4l2.6-4.5h-2.6v-.8h3.7v.7l-2.7,4.5h2.7v.9h-3.7s0-.8,0-.8Z"/>
  <path class="cls-1" d="M72.8,108.9h.8v.4h0c.3-.3.6-.5,1.1-.5s.7.1.9.4.4.6.4,1.1v2.8h-.8v-2.6c0-.3,0-.5-.2-.7s-.3-.2-.6-.2-.4,0-.6.2c-.2.2-.2.4-.2.7v2.6h-.8s0-4.3,0-4.3Z"/>
  <path class="cls-2" d="M76.8,109.7l1.3-1.7c0,0,0-.1,0-.2,0,0,0,0,0-.2,0-.1,0-.2-.1-.3,0,0-.2-.1-.3-.2-.1,0-.2,0-.3.1,0,0-.1.2-.2.4h-.5c0-.3,0-.5.3-.7s.4-.3.6-.3.5,0,.7.3c.2.2.3.4.3.7s0,.4-.2.6l-1.1,1.4h1.2v.5h-1.9v-.4h0Z"/>
  <path class="cls-2" d="M80.2,107.7h.4v1h1v.4h-1v1h-.4v-1h-1v-.4h1v-1Z"/>
  <path class="cls-2" d="M78.8,84.5l1.3-1.7c0,0,0-.1,0-.2,0,0,0,0,0-.2,0-.1,0-.2-.1-.3,0,0-.2-.1-.3-.2-.1,0-.2,0-.3.1,0,0-.1.2-.2.4h-.5c0-.3,0-.5.3-.7s.4-.3.6-.3.5,0,.7.3c.2.2.3.4.3.7s0,.4-.2.6l-1.1,1.4h1.2v.5h-1.9v-.4h0Z"/>
  <path class="cls-2" d="M81.2,83.4h1.4v.5h-1.4v-.5Z"/>
  <path class="cls-2" d="M76.3,88.1l1.1-2.4h.5l-1.1,2.4h.8v-1h.5v1h.3v.4h-.3v.5h-.5v-.5h-1.4s0-.4,0-.4Z"/>
  <path class="cls-1" d="M69.1,84.2h-1.6v1.8h-.6v-4.2h.6v1.8h1.6v-1.8h.6v4.2h-.6v-1.8Z"/>
  <path class="cls-1" d="M70.7,81.9h1.5c.2,0,.3,0,.5,0,.2,0,.3.1.4.2.1,0,.2.2.3.4,0,.2.1.4.1.6s-.1.6-.3.8c-.2.3-.5.4-.9.4h-.9v1.6h-.6v-4.2h0ZM71.3,83.8h.9c.2,0,.4,0,.5-.2s.2-.3.2-.5,0-.3,0-.3-.1-.2-.2-.2c-.1,0-.3-.1-.4-.1h-.9v1.4h0Z"/>
  <path class="cls-1" d="M74,84c0-.5,0-.8,0-1,0-.2,0-.3.1-.4,0-.2.3-.4.5-.5s.5-.2.8-.2.6,0,.8.2c.2.2.4.3.5.5,0,0,.1.2.1.4s0,.5,0,1,0,.8,0,1,0,.3-.1.4c0,.2-.2.4-.5.5s-.5.2-.8.2c-.3,0-.6,0-.8-.2s-.4-.3-.5-.5c0,0,0-.1,0-.2,0,0,0-.1,0-.2,0-.2,0-.5,0-1h0ZM74.6,84c0,.4,0,.7,0,.8,0,.2,0,.3.2.3,0,0,.2.2.3.2,0,0,.2,0,.4,0s.3,0,.4,0c0,0,.2-.1.2-.2,0,0,.1-.2.2-.3,0-.2,0-.4,0-.8s0-.7,0-.8c0-.1,0-.3-.2-.3,0,0-.1-.2-.2-.2-.1,0-.2,0-.4,0s-.3,0-.4,0c-.1,0-.2.1-.3.2,0,0-.1.2-.2.3,0,.2,0,.4,0,.8Z"/>
  <path class="cls-2" d="M104.9,83.4h1.4v.5h-1.4v-.5Z"/>
  <path class="cls-2" d="M103.1,87.1h.2c.2,0,.3,0,.4-.1,0,0,.1-.2.1-.3s0-.3-.1-.3-.2-.1-.3-.1c0,0-.2,0-.3,0,0,0-.1.2-.2.3h-.5c0-.2.1-.5.3-.6s.4-.2.6-.3c.3,0,.5,0,.7.3.2.2.2.4.2.7s0,.2,0,.4-.2.2-.3.3c.1,0,.2.2.3.3,0,.1,0,.3,0,.4,0,.3,0,.6-.3.8s-.4.3-.7.3-.4,0-.6-.2-.3-.4-.3-.6h.5c0,.1,0,.2.2.3s.2.1.3.1.2,0,.3-.2c0,0,.1-.2.2-.4,0-.2,0-.3-.2-.4s-.2-.1-.4-.1h-.2v-.4h0Z"/>
  <path class="cls-1" d="M95.1,84.2h-1.6v1.8h-.6v-4.2h.6v1.8h1.6v-1.8h.6v4.2h-.6v-1.8Z"/>
  <path class="cls-1" d="M99.4,84.9c0,.4-.3.7-.5.9-.3.2-.6.3-.9.3s-.6,0-.8-.2-.4-.3-.5-.5c0,0,0-.1,0-.2,0,0,0-.1,0-.2,0-.2,0-.5,0-1s0-.8,0-1c0-.2,0-.3.1-.4,0-.2.3-.4.5-.5.2-.2.5-.2.8-.2.4,0,.7.1,1,.4s.4.5.5.9h-.7c0-.2-.1-.3-.3-.4-.1-.1-.3-.2-.5-.2-.1,0-.3,0-.4,0-.1,0-.2.1-.3.2,0,0-.1.2-.2.3,0,.2,0,.4,0,.8s0,.7,0,.8c0,.2,0,.3.2.3,0,0,.2.2.3.2,0,0,.2,0,.4,0,.3,0,.6-.2.8-.6h.7Z"/>
  <path class="cls-1" d="M99.8,84c0-.5,0-.8,0-1,0-.2,0-.3.1-.4,0-.2.3-.4.5-.5s.5-.2.8-.2.6,0,.8.2c.2.2.4.3.5.5,0,0,.1.2.1.4s0,.5,0,1,0,.8,0,1,0,.3-.1.4c0,.2-.2.4-.5.5s-.5.2-.8.2c-.3,0-.6,0-.8-.2s-.4-.3-.5-.5c0,0,0-.1,0-.2,0,0,0-.1,0-.2,0-.2,0-.5,0-1h0ZM100.4,84c0,.4,0,.7,0,.8,0,.2,0,.3.2.3,0,0,.2.2.3.2,0,0,.2,0,.4,0s.3,0,.4,0c0,0,.2-.1.2-.2,0,0,.1-.2.2-.3,0-.2,0-.4,0-.8s0-.7,0-.8c0-.1,0-.3-.2-.3,0,0-.1-.2-.2-.2-.1,0-.2,0-.4,0s-.3,0-.4,0c-.1,0-.2.1-.3.2,0,0-.1.2-.2.3,0,.2,0,.4,0,.8Z"/>
  <path class="cls-1" d="M93.4,107.2h3.7v.9h-2.8v1.8h2.4v.8h-2.4v2.6h-.9v-6h0Z"/>
  <path class="cls-1" d="M98.4,111.3c0,.3,0,.6.3.8.2.2.4.3.7.3s.6-.1.9-.4l.6.5c-.4.5-.9.7-1.5.7-.2,0-.4,0-.6,0,0,0-.2,0-.3-.1,0,0-.2-.1-.3-.2-.2-.2-.3-.4-.4-.7-.1-.3-.2-.6-.2-1.1s0-.8.2-1.1c0-.3.2-.5.4-.7.2-.2.3-.3.6-.4.2,0,.4-.1.6-.1.5,0,.9.2,1.2.5.3.3.5.8.5,1.3v.7s-2.6,0-2.6,0ZM100.1,110.6c0-.3,0-.6-.3-.8-.2-.2-.4-.2-.6-.2s-.5,0-.6.2c-.2.2-.2.4-.3.8h1.8Z"/>
  <path class="cls-2" d="M101.8,109.7l1.3-1.7c0,0,0-.1,0-.2,0,0,0,0,0-.2,0-.1,0-.2-.1-.3,0,0-.2-.1-.3-.2-.1,0-.2,0-.3.1,0,0-.1.2-.2.4h-.5c0-.3,0-.5.3-.7s.4-.3.6-.3.5,0,.7.3c.2.2.3.4.3.7s0,.4-.2.6l-1.1,1.4h1.2v.5h-1.9v-.4h0Z"/>
  <path class="cls-2" d="M105.1,107.7h.4v1h1v.4h-1v1h-.4v-1h-1v-.4h1v-1Z"/>
  <path class="cls-1" d="M74.3,36c-.1.6-.4,1-.7,1.3-.4.3-.8.5-1.3.5-.5,0-.8-.1-1.2-.3-.3-.2-.5-.5-.7-.7,0,0,0-.2-.1-.3,0,0,0-.2,0-.3,0-.2,0-.7,0-1.4s0-1.2,0-1.4c0-.2.1-.4.2-.6.1-.3.4-.5.7-.7.3-.2.7-.3,1.2-.3.6,0,1,.2,1.4.5.3.3.6.8.7,1.3h-.9c0-.2-.2-.5-.4-.6-.2-.2-.4-.2-.7-.2s-.4,0-.5.1-.3.2-.4.3c-.1.1-.2.3-.2.5,0,.2,0,.6,0,1.2s0,1,0,1.2.1.4.2.5c0,.1.2.2.4.3.2,0,.3.1.5.1.5,0,.9-.3,1.1-.8h.9Z"/>
  <path class="cls-1" d="M75.1,31.7h.9v6h-.9v-6Z"/>
  <path class="cls-2" d="M77.1,33.2h1.4v.5h-1.4v-.5Z"/>
  <path class="cls-1" d="M95.5,31.7h.9v3.1h0l2.4-3.1h1.1l-1.9,2.4,2.1,3.7h-1.1l-1.6-2.9-1,1.1v1.8h-.9v-6h0Z"/>
  <path class="cls-2" d="M102.2,32.3h.4v1h1v.4h-1v1h-.4v-1h-1v-.4h1v-1Z"/>
  <path class="cls-1" d="M97.2,61.7c-.1.6-.4,1-.7,1.3-.4.3-.8.5-1.3.5-.5,0-.8-.1-1.2-.3-.3-.2-.5-.5-.7-.7,0,0,0-.2-.1-.3,0,0,0-.2,0-.3,0-.2,0-.7,0-1.4s0-1.2,0-1.4c0-.2.1-.4.2-.6.1-.3.4-.5.7-.7.3-.2.7-.3,1.2-.3.6,0,1,.2,1.4.5.3.3.6.8.7,1.3h-.9c0-.2-.2-.5-.4-.6-.2-.2-.4-.2-.7-.2s-.4,0-.5.1-.3.2-.4.3c-.1.1-.2.3-.2.5,0,.2,0,.6,0,1.2s0,1,0,1.2.1.4.2.5c0,.1.2.2.4.3.2,0,.3.1.5.1.5,0,.9-.3,1.1-.8h.9Z"/>
  <path class="cls-1" d="M100.1,63h0c0,.2-.2.2-.4.3s-.4.1-.7.1c-.5,0-.8-.1-1.1-.4-.3-.2-.4-.5-.4-.9s.1-.7.3-.9c.2-.2.6-.4,1-.4h1.2v-.5c0-.4-.3-.6-.8-.5-.2,0-.4,0-.5,0-.1,0-.2.1-.3.3l-.7-.5c.3-.4.8-.6,1.4-.6.5,0,.9,0,1.2.3.3.2.5.6.5,1.1v2.9h-.8v-.4h0ZM100.1,61.6h-1c-.5,0-.7.2-.7.5,0,.2,0,.3.2.4.1.1.3.2.6.2s.6,0,.7-.1c.1,0,.2-.3.2-.6v-.3h0Z"/>
  <path class="cls-2" d="M101.8,59.9l1.3-1.7c0,0,0-.1,0-.2,0,0,0,0,0-.2,0-.1,0-.2-.1-.3,0,0-.2-.1-.3-.2-.1,0-.2,0-.3.1,0,0-.1.2-.2.4h-.5c0-.3,0-.5.3-.7s.4-.3.6-.3.5,0,.7.3c.2.2.3.4.3.7s0,.4-.2.6l-1.1,1.4h1.2v.5h-1.9v-.5h0Z"/>
  <path class="cls-2" d="M105.1,58h.4v1h1v.4h-1v1h-.4v-1h-1v-.4h1v-1Z"/>
</svg>