<?xml version="1.0" encoding="UTF-8"?><svg id="Layer_1" xmlns="http://www.w3.org/2000/svg" viewBox="0 0 144.57 144.57"><path d="M77.86,83.44c.14-.03.29-.05.44-.03-.03-.07-.07-.14-.1-.21-.01,0-.03,0-.04.01-.12.04-.25.08-.37.13-.07.03-.13.07-.2.1l.16.02s.08-.01.12-.02Z"/><path d="M61.89,79.68h-.06s0,0,0,0l-.06.04c-.08.05-.17.11-.25.16-.03.02-.06.04-.09.07.18-.06.35-.12.49-.22,0,0,.01,0,.02-.01-.01,0-.03-.02-.05-.02Z"/><path d="M101.94,75.28l.15.02c.41.04.84.08,1.28-.1-.02-.05-.03-.09-.05-.13-.05-.14-.1-.27-.16-.37-.75-1.14-1.56-2.35-2.39-3.54l-.28-.4c-.5-.73-1.03-1.49-1.6-2.18-1.43-1.71-3.48-2.43-5.46-3.01-.17-.05-.33-.11-.52-.17l-.37-.12.04-.12c.32-1.12.34-2.26.08-3.59-.36-1.81-1.07-3.31-2.16-4.6-.87-1.02-2.04-1.69-3.17-2.34l-.23-.13c-.34-.19-.67-.38-1.01-.57-1.05-.58-2.14-1.18-3.09-1.97-.39-.33-.85-.6-1.32-.88-1.14-.67-2.14-1.08-3.32-.92-.2.03-.41,0-.57-.02-1.12-.18-2.04.2-2.83,1.13-.71.84-1.44,1.62-2.07,2.28-.06.06-.11.12-.17.19-.23.27-.48.58-.98.63l-.14.02-.03-.62c-.01-.32-.02-.61-.04-.91-.02-.25-.03-.5-.05-.74-.04-.72-.09-1.46-.18-2.18v-.11c-.12-.81-.22-1.66.38-2.42.06-.08.09-.21.11-.35.02-.08.03-.16.05-.24l.11-.36c.14-.47.29-.96.45-1.43.04-.12.12-.22.2-.31.03-.04.07-.08.1-.12l.09-.12.11.1c.48.42.53.91.58,1.35.04.36.21.67.53.93.28.23.77.23,1.09,0,.22-.16.21-.36.12-.7-.03-.1-.02-.2-.02-.31,0-.05,0-.1,0-.15v-.09l.09-.03c.05-.02.1-.04.15-.06.11-.05.23-.09.35-.13.14-.04.28-.06.45-.09.04,0,.08-.01.13-.02l-.27-1.42.25-.16c.11-.07.21-.13.3-.2.08-.06.16-.14.25-.21l.04-.03c-.05-.07-.09-.14-.14-.2-.13-.19-.24-.36-.37-.52-.19-.25-.46-.38-.83-.43-.07,0-.15,0-.23,0-.22.01-.49.02-.72-.22l-.08-.08.06-.09s.06-.09.08-.13c.05-.08.1-.16.16-.23.59-.67,1.27-1.25,1.94-1.8.31-.26.64-.53.95-.81,1.83-1.64,3.55-3.27,5.12-4.86.75-.75,1.6-1.61,1.59-2.86v-.07s.06-.04.06-.04c1.56-1.03,2.54-2.5,3.22-3.67.52-.9,1.1-1.59,1.82-2.16.57-.46,1.11-.97,1.57-1.42.05-.05.07-.24.03-.33-.03-.07-.19-.17-.24-.17-.49.18-.93.04-1.36-.1l-.12-.04c-.78-.24-1.54-.3-2.31-.18-1.88.3-3.48.81-4.89,1.57-.52.28-1.07.5-1.6.72l-.23.1c-.34.14-.69.27-1.04.4-.64.24-1.3.48-1.91.8-2.21,1.18-3.96,2.51-5.35,4.08-.38.43-.76.89-.94,1.38-.31.85-.53,1.76-.66,2.69-.15,1.06-.33,2.19-.61,3.29-.44,1.73-.33,3.02.38,4.16.13.21.23.43.34.65.05.1.09.2.14.3l.05.11-1.48.97-.08-.07c-.08-.07-.16-.14-.23-.21-.18-.16-.37-.33-.54-.52-.17-.19-.32-.4-.45-.58-.05-.07-.1-.14-.15-.21l-.03-.04v-1.71l.04-.04c.42-.41.74-.95,1.04-1.74.63-1.7.43-3.44.14-5.21-.03-.18-.13-.37-.24-.57-.24-.42-.63-.72-1.17-.9-.4-.13-.75.06-1.06.3h.23c.12,0,.22,0,.31-.01.18-.01.3-.02.42.04.45.22.74.59.85,1.1l.03.12c.26,1.17.53,2.38.45,3.6-.04.64-.21,1.27-.37,1.88l-.02.09c-.2.78-.91,1.05-1.43,1.25l-.09.03-.06-.07c-.26-.3-.07-.58.05-.76.8-1.18,1.02-2.47.65-3.95-.08-.31-.09-.64-.1-.94q-.03-1.1-.79-2.18l-.14-.2s-.02.01-.02.02c-.08.06-.18.08-.27.11-.04,0-.08.02-.12.03l-.12.04-.05-.12c-.04-.1-.07-.19-.11-.27-.08-.19-.14-.36-.2-.53-.12-.38-.38-.69-.77-.94-1.5-.94-2.92-.44-3.67.27-.18.17-.35.33-.52.5l-.2.19-.09-.08c-.31-.26-.61-.51-.9-.76-.66-.55-1.28-1.07-1.92-1.59-1.97-1.58-3.93-2.58-5.97-3.05-1.51-.35-3.06-.62-4.56-.88l-.69-.12c-.27-.05-.6-.03-1,.05l-.16.03c-.85.17-1.73.35-2.65.28-.72-.06-1.33.14-1.8.58.05.12.09.24.13.36.11.32.22.62.38.89.34.55.5,1.13.67,1.77.1.4.23.8.35,1.19.18.57.37,1.17.48,1.77.25,1.27,1.12,1.95,1.94,2.44.94.56,1.88.89,2.81.97.38.03.71.08,1.03.38.13.12.3.22.48.32.06.03.11.06.17.1,1.07.64,1.7,1.44,1.99,2.51.3,1.12,1.11,1.99,2.4,2.56l1.1.5-.06.12c-.21.45-.49.81-.91,1.14-.08.06-.16.12-.24.17-.11.07-.21.13-.29.21-.46.44-.47.99-.03,1.47.34.37.78.53,1.35.52.29-.01.58-.03.87-.06.2-.02.4-.03.59-.04.05,0,.1-.01.15-.02.21-.04.5-.09.75.24l.03.04v.05c-.01.2-.02.4-.04.6-.02.48-.05.98-.09,1.47-.06.74.09,1.25.48,1.62.55.52,1.09.8,1.68.87.24.03.44.02.59-.03,1.28-.43,2.71-1.07,3.57-2.47.1-.16.25-.29.4-.42.07-.06.14-.12.2-.18l.08-.08.09.07c.1.07.2.14.29.21.21.15.42.29.59.47.33.34.74.56,1.21.65,1.35.26,2.35,1.03,3.16,2.43.22.38.4.68.55.92.68,1.12.68,1.15.58,2.45-.03.32-.06.72-.09,1.24v.06s-.05.04-.05.04c-.02.02-.05.04-.07.07-.06.06-.14.13-.22.18-.47.29-.59.66-.4,1.22.13.37.21.78.26,1.2.2,1.92.14,3.96-.19,6.43-.01.1-.05.19-.09.28-.02.04-.03.08-.05.12l-.05.13-.13-.04c-.33-.12-.49-.37-.63-.59-.05-.08-.1-.15-.15-.22-.35-.45-.69-.91-1.03-1.36-.22-.29-.44-.59-.66-.88-1.3-1.71-3.03-3.04-5.29-4.07-1.37-.62-2.9-1.11-4.79-1.52-1.43-.31-2.8-.32-4.06-.02l-.38.09c-1.53.36-3.11.74-4.55,1.45-.9.45-1.79,1.03-2.88,1.87-.18.14-.36.29-.54.44-.36.3-.74.62-1.16.87-.12.07-.22.2-.32.34-.03.04-.07.09-.1.13.02.04.04.08.06.12.06.12.12.21.18.28.18.18.37.37.58.49l.42.24c.73.42,1.49.86,2.26,1.23,1.88.92,3.45,1.65,4.96,2.3.9.39,1.89.76,3.12,1.14.27.09.57.15.85.21.54.12,1.09.24,1.6.53.11.07.33.05.43.04.58-.05,1.16.04,1.88.29.69.24,1.35.3,2.04.18.35-.06.71-.04,1.05-.03.15,0,.3.01.45.01l.02.27c-.69.12-1.23.5-1.72,1.23-.74,1.09-1.06,2.34-1.38,3.54-.37,1.4-.28,2.43.28,3.33l.03.05v.05q-.29,1.18-.02,2.21v.05s-.86,1.69-.86,1.69c.04.14.12.26.2.39.16.26.35.56.19,1v.04s-1.28.93-1.28.93c.09.85.68,1.19,1.33,1.49.75.35,1.58.52,2.45.52h.09c.62,0,1.16-.15,1.71-.45,1.25-.67,2.09-1.69,2.75-2.59.47-.64.93-1.34.99-2.22.01-.19.14-.36.26-.52.05-.07.11-.14.15-.22l.06-.1.11.05c.09.04.17.07.25.11.16.07.3.12.43.21.42.28.91.68,1.09,1.36.73.55.98,1.34,1.22,2.11.06.19.12.38.19.56l.02.05-.02.05c-.05.13-.11.26-.16.39-.11.26-.21.51-.29.76-.35,1.22-.27,2.15.26,2.84.53.69.54,1.41.55,2.11v.23c.02.8-.03,1.62-.08,2.41-.02.36-.05.71-.06,1.06-.02.4-.03.8-.05,1.21l-.03.66-1,.18c-.29.4-.45.88-.51,1.52-.06.68-.11,1.42-.13,2.26-.02.57-.03,1.15-.04,1.72-.02,1.06-.04,2.15-.12,3.23-.18,2.31-.59,4-1.34,5.47-.91,1.8-1.7,3.25-2.49,4.58-.38.63-.45,1.11-.26,1.76.17.59.23,1.22.29,1.82.03.28.05.56.09.83,0,.05,0,.11,0,.17,0,.12,0,.2.07.25l.23-.37c.27-.42.54-.85.82-1.28.08-.12.16-.24.25-.35.15-.21.3-.42.41-.64.86-1.73,1.75-3.53,2.7-5.51.17-.36.33-.72.49-1.09.18-.4.36-.82.56-1.22.16-.33.37-.69.66-.9.95-.66,2.07-1.37,3.43-1.56.09-.01.18-.02.27-.03.22-.02.43-.04.62-.11.99-.36,1.99-.2,2.84-.02.18.04.37.09.55.14.29.08.58.15.87.19l.55.07c1.13.13,2.29.27,3.41.62.36.12.6.1.76-.05.45-.4.98-.45,1.46-.45h.02c.62,0,1.18-.2,1.77-.42.49-.18,1-.36,1.55-.41.05,0,.12-.06.19-.11.03-.02.06-.05.1-.07.22-.14.43-.27.65-.41.42-.27.84-.54,1.27-.8.31-.19.62-.36.93-.54.42-.24.84-.48,1.25-.74,1.94-1.24,3.66-2.79,5.12-4.59.33-.4.56-.91.75-1.36.09-.22.1-.4.02-.52-.08-.11-.24-.17-.46-.17h-.22c-.9.02-1.83.03-2.74.08-1.65.09-3.29.21-4.67.32-2.36.18-4.42.64-6.31,1.42-1.87.77-3.72,1.9-5.65,3.45-1.12.9-2.12,1.48-3.15,1.82h-.04c-.13.07-.42.17-.58-.21l-.03-.07.04-.06c.13-.2.26-.4.39-.6.29-.45.59-.92.93-1.36.97-1.25,2.04-2.55,3.58-3.43,1.13-.65,1.96-1.43,2.55-2.4.37-.61.77-1.22,1.16-1.8.44-.66.88-1.33,1.29-2.02.7-1.18,1.33-2.35,1.52-3.63.26-1.81.27-3.68.04-5.56,0-.05,0-.1-.01-.15,0-.08,0-.16-.03-.22-.06-.15-.1-.31-.15-.46-.11-.38-.21-.74-.51-1.02-.58.14-1.07.44-1.54.78l.05.42h-.13s.14.03.14.03c.1.93.18,1.61-.45,2.16l-.18.15-.05-.23c-.17-.82-.15-.85.41-2.15l.15-.33c-.15.11-.3.23-.45.35l-.21.17c-.34.26-.67.53-.99.79-.36.29-.72.59-1.1.87-.12.09-.29.11-.46.13-.08,0-.15.02-.23.03l-.16.03v-.16c0-.19,0-.36,0-.53,0-.36,0-.69-.01-1.02-.02-.35-.16-.5-.55-.57-.16-.03-.33-.05-.51-.07l-.4-.05.04-.15c.04-.15.07-.28.11-.41.07-.26.13-.48.16-.71l.02-.15c.05-.43.11-.87.06-1.28-.09-.7-.45-1.28-.99-1.59-.54-.31-1.22-.33-1.86-.04-1.57.69-2.74,1.67-3.6,3.02l-.03.05-1.33.29-.03-.13c-.02-.07-.03-.12-.05-.17-.03-.11-.06-.2-.06-.3-.01-.29-.02-.58-.02-.87,0-.54-.01-1.1-.07-1.64-.21-1.96.79-3.41,1.69-4.46.38-.45.82-.63,1.28-.56h.05s.03.04.03.04c.91.98,2.06,1.85,3.16,2.37.46.22,1,.42,1.59.3.35-.07.7-.04,1.12.11.35.13.72.2,1.01.24.42.07.85.13,1.28.19.84.12,1.71.24,2.55.43.84.19,1.66.19,2.35.17.5-.02.99-.04,1.49-.06.52-.02,1.05-.04,1.57-.06,2.16-.07,4.7-.23,7.23-.93,1-.28,1.85-.37,2.68-.29ZM98.39,70.14c1.06.31,1.82,1.05,2.09,2.04l.05.17h-.18c-.05,0-.1,0-.16,0-.05,0-.1,0-.16,0-.07,0-.14,0-.21-.04-1.28-.51-2.68-.96-4.41-1.4l-.24-.06.19-.17c.73-.67,1.92-.89,3.03-.57ZM97.73,68.86c.14.03.28.07.42.09l.17.03-.07.16c-.18.42-.52.51-.79.59-.06.02-.13.03-.19.06l-.42.14c-.65.23-1.31.45-1.97.67-.19.06-.39.13-.58.13-.04,0-.08,0-.12,0-.49-.08-.99-.21-1.46-.33l-.09-.02c-.1-.02-.14-.11-.19-.2-.02-.04-.04-.08-.07-.12l-.1-.14.17-.06c1.6-.55,3.02-.9,4.36-1.08.31-.04.62.04.93.11ZM96.41,67.23l.1.09-.08.1c-.29.34-.66.47-1.02.59-.2.07-.39.13-.56.23-.25.15-.52.29-.77.42-.29.15-.58.3-.86.47-.11.07-.23.15-.34.22-.37.25-.74.51-1.25.63l-.12.03-.04-.12c-.24-.67-.03-1.26.18-1.77.16-.38.47-.66.95-.85.49-.2.98-.39,1.47-.58.81-.32,1.55-.15,2.33.53ZM82.68,68.65l.17-.2c-.18.11-.34.27-.49.45-.35.41-.77.6-1.33.6-.17,0-.35-.02-.54-.05l-.14-.02.03-.14c.02-.08.03-.15.04-.22.03-.16.05-.3.13-.43.37-.68.85-1.32,1.53-2.03.7-.73,1.41-.86,2.17-.39.07.04.13.08.22.13l.33.19-1.1,1.33s.06-.04.09-.06c.36-.24.71-.49,1.08-.75l.54-.38,1.43.92-.08.12c-1.07,1.48-1.69,1.72-3.93,1.57h-.19s.31-.74.31-.74l-.28.14ZM76.57,69.5c.02-.38.03-.73.06-1.07.02-.24.07-.47.16-.67.12-.29.26-.58.4-.86l.11-.23c.13-.26.33-.43.57-.47.25-.04.51.06.73.29.47.49.67,1.04.74,2.12v.11s-.1.03-.1.03c-.34.09-.6.34-.89.6-.4.37-.85.78-1.57.78-.03,0-.07,0-.1,0h-.13s.03-.63.03-.63ZM76.52,67.15c-.99-.47-1.13-.47-2.12-.04-.19.08-.37.18-.54.27-.08.04-.16.08-.23.12l-.07.04-.07-.05c-.14-.1-.21-.22-.23-.34-.01-.12.04-.24.15-.35l.15-.16c.25-.27.52-.56.82-.78.45-.33.98-.38,1.41-.14.43.23,1.02.56.92,1.34l-.02.18-.17-.08ZM77.41,66.04l-.05-.02c-.06-.03-.12-.04-.16-.06-.1-.03-.17-.05-.23-.12-.81-.91-1.53-.75-2.73-.09-1.03.57-2.1,2.36-1.42,3.88.05.11.2.48.08.74-.27.6-.27,1.21-.26,1.87v.17c0,.09-.04.16-.08.24-.02.04-.05.09-.08.14l-.08.17-.14-.13s-.08-.07-.12-.1c-.1-.08-.21-.17-.24-.29-.05-.32-.08-.66-.08-1.08,0-1.08-.01-2.15-.02-3.23,0-1.5-.02-3-.03-4.5,0-.21-.03-.42-.06-.64-.02-.18-.05-.36-.06-.55v-.09c-.03-.45-.06-.97.33-1.46l.07-.09.1.05c.81.39,1.71.57,2.76.55.01,0,.02,0,.04,0,.26,0,.5.08.66.14.35.14.7.29,1.05.44.54.23,1.1.47,1.65.67.61.23,1.03.51,1.36.92.18.22.39.42.62.65.12.11.24.23.36.36l.14.15-3.38,1.32ZM86.27,64.59c.09.22.14.46.2.73.03.13.05.26.09.41l.06.24-.23-.08c-.74-.25-1.1-.74-1.37-1.23-.26-.46-.55-1-.77-1.57-.35-.89-.65-1.81-.95-2.7l-.02-.06c-.06-.18-.08-.35-.11-.54-.01-.09-.02-.17-.04-.27l-.04-.22.21.06c1.5.46,2.37,1.42,2.45,2.69.07,1.05.23,1.84.52,2.54ZM85.96,61.45l.25.12c.1.05.18.08.25.11.14.06.25.1.34.19.12.13.23.26.34.4.12.14.23.28.35.41.61.6.92,1.31.98,2.21.04.59.15,1.19.27,1.82.06.29.11.59.17.9l.04.26-.24-.12c-1.26-.62-1.72-1.74-1.98-2.63-.21-.73-.35-1.48-.51-2.27-.07-.36-.14-.73-.22-1.12l-.06-.26ZM83.9,63.62c.05.14.08.28.11.46.02.1.04.2.07.33l.05.23-.22-.07c-.72-.23-1.13-.57-1.43-1.17-.55-1.1-1.15-2.2-1.68-3.16-.37-.67-.23-1.33-.02-1.94l.04-.12.12.03c.65.18.99.69,1.29,1.2.2.34.38.73.57,1.22.39,1,.76,2.03,1.11,2.98ZM81.01,61.82l.4,1.29-.23-.05c-.54-.12-.98-.4-1.35-.85-.78-.96-1.34-1.72-1.82-2.47-.28-.44-.4-.96-.52-1.47l-.02-.07c-.11-.44.08-.8.55-1.07l.07-.04.07.04c.12.08.25.15.37.23.31.19.64.39.94.63.19.15.33.37.46.57.04.06.08.13.12.19.05.07.06.14.07.21,0,.03,0,.06.02.08.28.91.57,1.83.87,2.77ZM78,61.08l-.23-.06c-1.5-.4-2.16-1.37-2.81-4.13l-.05-.22,2.04.52,1.05,3.89ZM75.24,59.27c.09.28.18.58.28.88l.12.38-.33-.24c-.12-.08-.23-.16-.33-.22-.2-.13-.37-.24-.51-.4-.52-.57-1.02-1.19-1.47-1.74-.39-.48-.5-.96-.35-1.47l.03-.08h.09c1.26-.16,1.64.06,1.93,1.11.16.58.35,1.16.54,1.77ZM79.52,65.99s.1-.05.16-.08c.15-.08.33-.17.52-.19.43-.05.85-.07,1.39-.1.24-.01.5-.02.78-.04l.3-.02-.19.24c-.19.24-.36.46-.53.68-.57.73-1.06,1.36-1.67,1.89l-.16.14-.71-2.47.11-.05ZM85.94,69.16c.29-.71.71-.92,1.12-1.05.44-.14.78.09,1.08.29.12.08.24.14.36.21.34.18.72.39.99.83l.14.23-3.77-.33.07-.17ZM89.27,67.31c-.1-.46-.15-.93-.2-1.38-.02-.2-.04-.39-.07-.58l-.04-.32.26.2c1.07.82,1.52,1.93,1.4,3.49l-.02.22-.19-.12c-.08-.05-.17-.09-.24-.13-.16-.08-.3-.15-.38-.28-.2-.31-.44-.69-.53-1.1ZM89.44,62.48l-.09-.33.29.18c.91.57,1.38,1.2,1.8,1.98.37.68.39.82.35,1.57v.19s-.18-.07-.18-.07c-.04-.01-.08-.02-.12-.03-.11-.03-.24-.06-.31-.16-.08-.12-.16-.24-.24-.36-.58-.83-1.17-1.7-1.51-2.97ZM94,66.08l.21.08-.17.14c-.07.06-.12.11-.17.15-.09.09-.16.15-.25.2-.29.14-.59.28-.89.41l-.52.23v-.21c0-.61.05-1.03.33-1.22.3-.2.76-.08,1.47.21ZM91.03,59.57l.09-.16.12.13s.06.06.09.09c.18.17.44.43.16.82l-.07.1-.11-.07c-.4-.25-.49-.57-.28-.92ZM90.9,60.98c.09.11.19.21.29.32.69.75,1.41,1.53,1.25,2.75,0,.05-.03.09-.05.14-.01.02-.03.05-.04.08l-.06.13-.13-.06c-.35-.18-.53-.47-.71-.76-.08-.12-.15-.24-.24-.35-.55-.67-1.04-1.01-1.63-1.14-.17-.04-.35-.03-.59-.02-.12,0-.25.01-.4.01h-.05l-.48-.46c-.56-.53-1.11-1.06-1.67-1.59-.06-.06-.05-.14-.05-.2,0-.02,0-.04,0-.06v-.1l.1-.03c.68-.19,1.29.02,1.87.22.2.07.41.14.61.19l.1.02c.66.17,1.4.35,1.88.9ZM89.88,58.69c.23.19.57.46.33,1l-.05.1-1.4-.37c-1.21-.32-2.47-.64-3.69-.98-.27-.07-.51-.2-.76-.32-.11-.05-.22-.11-.33-.16l-.09-.04.08-.51h.12c.33.03.66.04.99.06.76.04,1.54.08,2.31.15.89.09,1.73.44,2.49,1.06ZM86.17,55.2s.14,0,.2,0c.09,0,.17-.01.27-.02.13-.01.25-.02.29.1.14.42.47.64.85.89.35.23.75.5,1.03.97l.18.3-.33-.1c-1.81-.55-3.46-.56-4.97-.49-.81.04-1.47.15-2.09.57l-.07.05-.07-.04c-.26-.14-.55-.22-.85-.3-.49-.14-.99-.28-1.44-.69l-.12-.11.12-.1c.06-.05.11-.09.16-.14.11-.1.22-.2.35-.26,1.13-.55,2.64-1.17,4.36-1.17.05,0,.11,0,.16,0h.09c.65.02,1.31.03,1.87.54ZM81.02,52.93c1.18.32,2.09.57,2.95.82.12.04.22.12.34.23.06.06.14.12.23.19l.31.24h-.39c-2.42.04-4.38.95-6.14,1.91l-.05.03-.51-.14c-.45-.12-.9-.24-1.34-.37-.1-.03-.19-.09-.26-.14-.03-.02-.06-.04-.09-.06l-.1-.06.04-.11s.02-.06.02-.09c.02-.08.04-.17.11-.23,1.2-1.05,2.65-1.78,4.42-2.21.12-.03.3-.06.46-.02ZM80.1,52.17c.09.02.15.09.21.17.02.03.05.07.09.1l.13.14-.17.08c-.28.13-.57.25-.85.37-.66.28-1.28.55-1.88.88-.57.32-1.11.71-1.69,1.13-.27.19-.54.39-.84.59l-.04.03-.24-.02c-.26-.03-.61-.06-.95-.1-.08-.01-.15-.06-.23-.12-.04-.03-.1-.07-.17-.12l-.11-.07.07-.11c.05-.08.09-.15.12-.21.07-.13.13-.24.23-.33,1.14-1.04,2.46-1.82,3.9-2.32.78-.27,1.57-.3,2.42-.09ZM71.7,55.31c.17-.21.33-.41.49-.62.35-.45.68-.87,1.04-1.27,1.04-1.13,2.32-1.92,3.45-2.55.67-.37,1.17-.24,2.12.23l.16.08-.11.13s-.03.04-.04.06c-.05.07-.1.15-.2.17-1.8.43-3.24,1.56-4.63,2.64-.18.14-.35.27-.53.41-.14.11-.25.28-.36.46-.05.08-.1.16-.15.24-.18.26-.4.34-.62.34-.18,0-.37-.06-.54-.12l-.17-.07.12-.14ZM71.24,54.53c0,.21-.01.57-.51.6h-.14s0-5.14,0-5.14l.27-.02.07.52c.17,1.32.35,2.68.31,4.04ZM75.09,42.63l.76.68-.06.1c-.07.11-.13.21-.19.31-.13.22-.26.43-.41.62-.14.17-.32.32-.47.44-.05.04-.09.07-.13.11-.05.17.01.33.08.51.1.24.21.54-.05.86l-.09.11-.1-.09c-.39-.33-.55-.78-.7-1.21-.12-.33-.23-.65-.44-.92l-.09-.11,1.89-1.4ZM74.73,40.18c-.52,1.02-1.68,2.09-2.88,2.65l-.15.07-.04-.17c-.23-1.11-.19-1.41.73-1.84.46-.21.94-.4,1.44-.61.23-.09.48-.19.73-.29l.34-.14-.17.33ZM71.53,39.69l-.09-.22c-.03-.06-.06-.11-.05-.18,0-.07.05-.11.07-.14l.14-.2.18.39-.25.35ZM78.11,36.67c-1.58,1.85-3.8,3.35-5.92,4.01l-.17.05v-.17c-.06-1.24.37-2,1.37-2.45.32-.14.67-.27,1.14-.41.24-.07.48-.13.72-.19.35-.09.71-.18,1.05-.3.39-.14.78-.33,1.15-.51.17-.08.33-.16.5-.24l.56-.26-.4.47ZM83.27,30.88c-.07.07-.14.14-.2.21-.12.13-.22.23-.34.32-.78.54-1.57,1.07-2.35,1.6l-.51.34s-.05.04-.08.06c-.09.07-.2.15-.32.16-.36.03-.72.1-1.07.17-.11.02-.22.04-.33.06l.18-.02c.65-.09,1.32-.17,1.96-.24l.41-.05c.1-.01.2-.02.37-.02l.71-.03-.29.25c-1.11.96-1.91,1.53-2.76,1.98-.37.2-.74.38-1.12.57-.52.26-1.07.54-1.59.83-.86.47-1.77.68-2.62.83l-.19.03.04-.19c.02-.1.03-.18.04-.26.02-.15.03-.28.1-.38l.18-.3c.39-.65.78-1.32,1.23-1.95.22-.31.59-.57.93-.65.54-.12,1.1-.21,1.65-.29-.37.03-.75.04-1.13-.03-.06,0-.09-.04-.14-.07-.02-.02-.05-.04-.09-.07l-.1-.07.06-.11c.03-.05.05-.11.07-.16.06-.14.12-.28.22-.39.74-.82,1.75-1.2,2.45-1.42.97-.3,1.98-.53,2.96-.74.35-.08.71-.16,1.06-.24.1-.02.2,0,.32.01.06.01.14.02.23.03l.28.03-.2.2ZM86.31,27.45c-.28.61-.74,1.05-1.11,1.37-.4.34-.83.66-1.24.97-.15.11-.3.22-.44.33-.12.09-.24.18-.38.22-1.74.54-3.31.87-4.95,1.05l-.26.03.12-.23c.05-.1.1-.19.13-.27.08-.16.14-.3.25-.4l.27-.27c.49-.5,1-1.03,1.56-1.48.34-.28.81-.49,1.26-.56,1.28-.2,2.62-.53,4.37-1.04.09-.03.17.01.26.05.03.01.06.03.1.05l.13.05-.06.13ZM87.52,25.49c-.1.55-.45.78-.77.99l-.08.05c-.93.63-2,.9-3.04,1.17l-.1.03c-.08.02-.15.04-.23.07-.23.07-.49.14-.77.14-.18,0-.38-.03-.59-.11l-.19-.07.14-.15c.66-.7,1.4-1.18,2.33-1.51.7-.25,1.42-.46,2.12-.66.23-.06.46-.13.69-.2.09-.02.17,0,.26.05.04.02.09.04.14.05l.11.04-.02.12ZM87.79,23.15l.06.02-.02.06h0s.03-.06.03-.06l.32.12-.45.33-.22-.31.28-.17ZM89.77,23.4l.51-.06-.42.31c-1.19.88-2.31,1.21-3.49,1.56l-.55.16.42-.39c.95-.89,2.07-1.39,3.52-1.57ZM85.53,24.24c.21-.51.46-.96,1.17-.82l.15.03-.05.14c-.17.54-.57.67-1.08.82l-.27.08.08-.25ZM85.08,23.7l.29-.11-.12.29c-.05.11-.08.23-.12.36-.13.45-.29.97-1.01,1.02h-.12s-.02-.11-.02-.11c-.17-.9.01-1.05,1.1-1.45ZM83.27,24.37l.23-.07-.06.23c-.29,1.17-.33,1.23-1.41,2.12l-.3.25.12-.53c.17-.78.36-1.66,1.42-2ZM81.64,25l.21-.05-.04.21c-.29,1.41-1,2.52-2.11,3.31l-.33.23.12-.38c.06-.18.1-.35.15-.5.09-.32.17-.59.27-.86.29-.79.63-1.68,1.73-1.96ZM79.95,25.6l.29-.15-.1.31c-.8,2.53-1.44,3.71-2.42,4.5l-.23.18v-.29c.08-2.19.93-3.76,2.46-4.55ZM74.29,28.85l.5.11-.1.37c-.04.16-.09.33-.12.49l-.09.46-.14.69c.06-.26.14-.54.24-.88.39-1.38.65-1.78,1.46-2.3l.11-.07.07.11s.01.02.02.03c.03.04.09.11.06.2-.13.44-.25.88-.38,1.32.27-.78.66-1.47,1.08-2.12.22-.35.52-.72,1.07-.66l.15.02-.03.15c-.37,1.67-1.39,4.07-2.33,5.48l-.21.31-.04-.37c-.08-.8-.02-1.51.13-2.17-.3,1.05-.61,2.1-.92,3.17l-.23.78-.14-.38c-.27-.72-.35-1.18-.27-1.83-.07.35-.14.7-.2,1.05-.03.17-.06.34-.08.51-.1.67-.21,1.37-.63,2.21l-.21.41-.05-.46c-.25-2.3.13-4.31,1.23-6.53l.05-.09ZM71.14,35.03c.16-.94.39-1.93.72-3.13.16-.57.41-1.15,1.15-1.52l.23-.12-.09.55c-.09.56-.17,1.04-.24,1.52l-.18,1.09c-.13.78-.25,1.55-.37,2.33-.09.63-.25,1.31-.71,2.03l-.14.22-.1-.24c-.04-.11-.09-.21-.13-.3-.09-.19-.17-.36-.18-.54v-.13c-.03-.58-.06-1.18.04-1.76ZM70.38,40.3l-.06-.15c-.03-.06-.07-.13-.04-.2.02-.06.05-.12.08-.17l.17-.31.23.59-.38.23ZM70.66,39.4l-.06-.17c-.24-.73-.15-1.31-.04-1.85l.02-.1h.1c.48-.07.54.26.58.46,0,.04.02.09.03.13.14.44.19.95-.48,1.43l-.15.11ZM69.81,44.14c.09-.2.34-.25.56-.28l.3-.04-.65.94-.11-.16c-.12-.18-.15-.33-.1-.46ZM70.44,45.35c-.02.06-.04.11-.07.16l-.16.34-.13-.35c-.02-.06-.05-.12-.06-.19,0-.1.08-.15.14-.18.01,0,.02-.01.03-.02l.15-.1.06.17c.03.06.06.11.04.18ZM66.91,41.37l.17-.57.1.59s.02.1.03.15c.03.13.07.27.03.41-.08.3-.19.6-.3.88-.03.09-.07.18-.1.27h0s.1.2.1.2h-.15c-.14.68-.67.98-1.52,1.26l-.52.17.77-.79c.34-.35.6-.62.87-.87.04-.04.09-.05.13-.06-.12-.43.04-.81.21-1.17.07-.15.14-.31.18-.47ZM64.36,43.39c-.1-.13-.14-.29-.11-.44.04-.19.09-.37.15-.55.02-.08.05-.15.07-.22l.03-.12.12.02c.13.02.17-.03.23-.24.04-.13.11-.36.33-.32.14.02.18,0,.19,0,.03-.02.03-.1.04-.18,0-.13.02-.31.19-.39l.06-.02s.03,0,.05,0c.07,0,.15-.01.23.02.12.04.23.09.36.15l.24.11v.09c-.01.13-.02.25-.02.38,0,.28-.02.56-.07.84-.13.67-.77,1.16-1.47,1.16-.05,0-.11,0-.16,0-.18-.02-.35-.12-.46-.27ZM66.75,33.42h.06s.05.03.05.03c.54.45.42,1.04.32,1.51-.1.46-.06.85.14,1.33.55,1.33.04,3.08-1.21,4.14l-.08.07-.94-.69.93-.97-.33-.43.51-.76-.62-.41.52-.47-.73-.54.78-.71c-.18.04-.36.1-.54.15l-.33.1-.03-.14s-.02-.08-.03-.12c-.03-.09-.06-.18-.02-.26.05-.11.09-.22.14-.33.26-.65.54-1.32,1.41-1.5ZM62.94,30.97c.87-.08,1.6.17,2.03.69.48.58.59,1.47.31,2.5l-.12.46-.14-.45c-.03-.11-.06-.2-.09-.28-.06-.16-.1-.28-.1-.41.01-.87-.34-1.42-1.12-1.74-.19-.07-.35-.19-.54-.32-.09-.06-.19-.13-.3-.2l-.33-.21.39-.04ZM61.42,31.86c.53-.47.82-.49,1.46-.12.28.16.56.32.86.48l.51.28.02.05c.28.8.28,1.65,0,2.51-.04.11-.15.17-.25.22-.03.02-.06.03-.09.05l-.1.07-.08-.1s-.05-.05-.07-.08c-.07-.07-.14-.14-.13-.24.04-.29.08-.58.14-.9l.02-.09c-.06.06-.08.14-.1.24-.01.05-.02.09-.04.14-.05.14-.1.28-.16.43l-.11.29-.12-.03c-.37-.11-.41-.38-.42-.57-.02.21-.07.48-.4.6l-.07.02-.06-.04s-.04-.03-.06-.04c-.09-.05-.18-.11-.17-.22v-.13c.02-.14.03-.28.03-.41-.02.06-.04.11-.06.17-.03.09-.08.18-.13.26-.02.03-.04.07-.06.1l-.12.22-.19-.34c-.06-.1-.11-.21-.17-.31,0,0,0,0,0,0-.03.07-.06.15-.09.22-.13.33-.27.71-.76.85l-.08.02-.06-.07s-.05-.05-.08-.08c-.08-.08-.18-.17-.18-.29,0-1.31.45-2.38,1.35-3.17ZM61.63,41.42s.04-.02.06-.02l.14-.07.05.14s.02.05.03.08c.03.08.07.16.07.26,0,.11-.09.16-.2.21-.03.01-.06.03-.1.05l-.16.09-.04-.18s-.01-.06-.02-.09c-.02-.09-.04-.18-.03-.27,0-.11.11-.15.2-.18ZM61.42,40c-.01-.1.06-.15.11-.18l.11-.09.11.1.19.26-.38.36-.09-.26c-.02-.06-.04-.12-.06-.18ZM61.89,37.67c-.1.11-.21.22-.32.33-.03.02-.06.04-.09.04-.07,0-.15-.06-.23-.13-.08-.06-.1-.13-.06-.2.09-.15.19-.3.29-.45l.13-.19.46.41-.18.19ZM60.47,41.65l-.02-.14s0-.04-.02-.07c-.02-.1-.05-.21.04-.28.11-.08.24-.14.39-.18.12-.03.17.07.24.2.02.04.05.09.08.14l.1.16-.8.17ZM61.08,42.54l-.4.56.12-1.21.27.65ZM60.4,40.83l-.1-.13c-.32-.43-.05-.7.08-.82.08-.08.27-.13.39-.07.09.05.14.17.16.23.02.07.01.13-.02.17-.08.13-.18.24-.29.36l-.22.26ZM61.06,36.4l.45-.24.05.23c.01.05.03.11.03.17,0,.07-.05.13-.16.18l-.09.03-.08-.07s-.07-.1-.1-.15l-.1-.16ZM62.02,40.69c.07-.1.15-.19.23-.29l.16-.2.19.22c.07.08.09.1.08.16v.05s-.04.03-.04.03c-.11.1-.23.2-.34.3l-.09.07-.09-.07c-.05-.05-.18-.15-.1-.27ZM62.58,37.03s-.04.01-.06.01c-.06,0-.11-.04-.17-.11l-.07-.08.05-.1c.07-.11.15-.22.23-.32l.14-.19.38.5-.22.13c-.09.06-.18.11-.28.15ZM55.59,29.1c1.56.85,2.83,1.62,3.92,2.65.66.62.82,1.21.53,1.92-.05.13-.11.27-.15.4l-.11.29-3.15-1.19-.02-.07c-.14-.53-.33-1.05-.53-1.6-.26-.72-.54-1.47-.69-2.26l-.05-.28.25.13ZM59.17,39.94c.04-.05.11-.15.21-.1.05.02.09.05.13.08l.21.16-.39.19-.27-.18.11-.14ZM58.82,38.98l-.02-.25c0-.06-.01-.12,0-.18,0-.09.08-.13.13-.15l.13-.08.08.13.15.32-.46.21ZM59.25,41.06c.07-.12.15-.2.26-.22.12-.03.26.02.4.14l.13.1-.21.17c-.08.07-.16.13-.24.19-.04.03-.1.04-.15.04-.04,0-.07,0-.09-.01l-.07-.02-.02-.07c-.04-.12-.07-.22-.02-.32ZM47.08,26.39c.79.2.83.24,1.57,1.2l.32.42-.48-.22c-.87-.39-.89-.4-1.54-1.19l-.27-.32.4.1ZM41.96,26.69l.03-.11c.04-.19.13-.32.25-.4.12-.07.27-.08.45-.03.77.21,1.35.13,1.91-.25.24-.17.63-.27,1.11.2.37.36.8.69,1.23.95.57.34,1.03.78,1.49,1.22.24.23.49.47.75.69.11.09.17.22.22.34.02.05.04.1.07.14l.07.12-.12.07s-.06.04-.09.06c-.07.05-.14.09-.22.09-.04,0-.07,0-.11,0-.11,0-.24-.01-.34-.06-1.82-.82-3.65-1.65-5.46-2.47l-1.23-.56ZM42.19,28.09v-.08s.09-.03.09-.03c.26-.08.49,0,.7.09.16.06.28.1.4.1l-.02-.02.23-.04s.03-.02.05-.03l.08-.06.07.06.28-.05-.06.28c.09.07.17.14.26.18.4.19.81.36,1.22.54.32.14.64.28.96.42.17.08.32.17.48.26.06.04.12.07.19.11l.08.04v.09c-.07.4-.37.37-.49.36-.03,0-.04,0-.07,0-.22,0-.45.02-.67.03-.36.02-.72.04-1.08.04-.26,0-.52-.01-.78-.04-.88-.09-1.46-.15-1.76-.55-.24-.32-.28-.81-.14-1.71ZM43.12,31.85h-.04s-.1-.16-.1-.16c-.19-.26-.41-.55-.23-1l.03-.09h.09c.05,0,.1,0,.16,0,.13,0,.26-.02.39.02.98.27,2,.24,2.99.2h.13c.25-.01.51,0,.76,0,.27,0,.56.02.83,0,1.08-.06,1.97.39,2.96,1.07l.17.11-.17.11c-.05.03-.1.07-.14.1-.09.07-.17.13-.26.13,0,0-.02,0-.03,0-1.65-.2-3.31-.16-5.02-.1-.9.04-1.72-.09-2.52-.39ZM52.5,39.86c-.73-.47-1.15-1-1.29-1.62-.24-1.05-.89-1.76-2.06-2.23l-1.18-.47-.34-.73s-.06-.02-.09-.03c-.1-.04-.2-.06-.28-.06-1,.12-1.88-.26-2.71-1.13-.05-.05-.12-.1-.2-.15-.18-.12-.41-.28-.42-.61v-.05s.03-.04.03-.04c.05-.07.09-.14.19-.13,1.64.17,3.31.08,4.93-.01.61-.03,1.22-.07,1.83-.09.04,0,.08,0,.12,0,.92,0,1.62.35,2.18.71.06.04.11.07.16.11l.08-.22c-.52-.56-1.16-.93-1.71-1.23-.41-.22-.79-.46-1.19-.71-.18-.11-.35-.22-.53-.34l-.08-.05.02-.09c.02-.09.05-.18.08-.27.05-.17.1-.32.08-.44-.03-.17-.17-.34-.3-.51l-.08-.1c-.11-.15-.23-.28-.36-.42-.08-.09-.16-.18-.23-.27-.06-.07-.03-.15,0-.21,0-.03.02-.06.03-.1l.03-.1h.11c.11.02.2.05.28.09-.34-.38-.69-.77-1.05-1.17-.08-.09-.14-.2-.2-.31-.03-.05-.06-.1-.09-.16l-.11-.18.21-.02c1.53-.19,3.21.22,5.45,1.32l.04.02.02.04c1.89,3.67,1.99,3.97,1.79,5.32l-.02.17-.16-.06c-.09-.03-.18-.06-.28-.09-.21-.06-.42-.13-.6-.25-.71-.49-1.4-1.04-2.02-1.53-.31-.24-.63-.51-.91-.81-.25-.27-.5-.55-.75-.82.75.99,1.56,1.77,2.47,2.4.29.2.38.42.39.63.07-.02.14-.03.2-.02.23.04.38.27.49.49l.16.31-.98-.37-.19.18c.18.18.29.39.4.6.07.14.14.26.22.38.19.26.14.52.09.78-.03.14-.06.28-.05.44v.09s-.08.04-.08.04c-1.16.51-1.28,1.52-1.42,2.6v.08c-.04.27,0,.56.03.87.02.15.04.31.05.47l.02.27-.23-.15ZM53.42,39.63c-.72-1.05-.56-2.56.35-3.32.35-.29.52-.54.59-.88.32-1.5,1.4-1.75,2.52-1.8.9-.04,2.16.07,2.74,1.52l.02.05-.48,1.37-.14-.08c-.13-.07-.24-.16-.35-.25-.26-.21-.43-.34-.69-.27l.57.63-.11.09c-.19.16-.41.13-.59.1-.19-.03-.31-.05-.41.1l.08.07c.16.14.32.29.47.45.1.1.07.3.02.4-.06.1-.19.2-.3.21-.08.01-.15-.02-.2-.04-.03-.01-.06-.02-.07-.02-.06,0-.12,0-.21,0-.06,0-.13,0-.15.01-.01.03-.02.06-.01.07,0,.03.09.08.15.11.05.03.09.05.13.08.06.04.1.09.16.16.03.03.06.07.09.11l.16.17-.23.05c-.07.01-.14.03-.2.04-.13.02-.24.04-.34.08-.04.02-.09.07-.13.13.05.05.09.09.14.12.05.03.12.04.2.05.04,0,.09.01.14.02l.13.03-.03.13c-.07.34-.35.38-.53.41-.15.02-.22.04-.26.11l.96,1.34-.22.03c-.1.01-.19.03-.26.04-.11.02-.2.04-.29.04-.03,0-.06,0-.09,0-.22-.03-.43-.08-.64-.13-.18-.04-.36-.08-.53-.11-.89-.16-1.6-.62-2.14-1.42ZM56.76,45.18c-.32.21-.67.27-1.02.27-.25,0-.5-.03-.75-.06-.09-.01-.18-.02-.27-.03-.59-.06-.91-.49-1.24-.94l-.18-.24.08-.08c.21-.21.41-.44.59-.67.62-.74,1.25-1.51,2.52-1.52h.17s-.18.7-.18.7c.09,0,.17-.06.28-.15.06-.05.13-.11.2-.15.03-.01.05-.03.08-.05.17-.1.4-.23.73-.01l.13.09-.77.81c.09,0,.16-.06.26-.16.08-.07.15-.15.26-.19.16-.07.31-.14.47-.23.08-.04.15-.08.24-.12l.15-.07.15.58.06.07v.04s.03.1.05.16c.05.18.1.34,0,.43l-.15.12c-.6.49-1.21.99-1.87,1.41ZM61.07,49.57c-.2.13-.42.23-.63.33l-.09.04c-.26.12-.51.18-.76.18-.3,0-.6-.09-.89-.26-.21-.13-.44-.27-.68-.44-.65-.46-.92-1.14-.81-2,.05-.42.11-.83.17-1.28l.12-.87.03-.03c.06-.06.11-.12.17-.18.34-.36.73-.77,1.31-1.03l.16-.07.09.53.82-1.55.18.67.63-.36v.93s.02-.06.03-.09c.08-.3.17-.61.5-.85l.2-.14.04.58c.02.31.05.61.05.91v-.11c.03-.19.05-.39.08-.58.05-.29.15-.57.31-.84l.15-.26.09.29c.23.72.3,1.41.23,2.1.08-.05.1-.13.1-.28,0-.42,0-.83-.01-1.25,0-.29-.01-.58-.01-.88,0-.12.02-.23.04-.35,0-.05.02-.11.03-.17l.02-.15.15.04c.39.1.39.36.39.51,0,.05,0,.09,0,.12.03.09.06.19.08.28.03.12.06.24.11.35.03.09.08.17.12.25.06.11.12.23.16.36.07.24.09.49.1.69.1,1.97-.81,3.55-2.77,4.85ZM63.77,37.81s-.02,0-.03,0c-.09,0-.13-.08-.16-.13l-.11-.18.21-.07c.06-.02.13-.05.2-.06.11-.02.16.07.19.13l.11.17-.22.08c-.06.02-.13.05-.19.06ZM68.79,49.52c-.16-.02-.28-.08-.35-.18-.06-.08-.09-.18-.08-.31v-.02s-.13-.07-.13-.07c-.68-.37-1.38-.75-2.14-.96-.58-.16-1.04-.53-1.48-.88-.15-.12-.31-.25-.47-.37l-.07-.05.07-.32c.04-.19.07-.36.11-.54.03-.18.07-.37.1-.57l.06-.35h.1c.95-.12,1.66.17,2.18.88l.3.41c.47.64.95,1.29,1.4,1.96.11.16.15.36.18.54,0,.04.02.09.03.13h0c.27.04.31.28.33.42,0,.04.01.07.02.1l.04.19-.19-.03ZM69.56,46.82c-.06-.05-.1-.08-.14-.11l-.07-.06v-.02c-.21-.16-.22-.41-.2-.55-.02-.02-.04-.03-.06-.05-.1-.07-.2-.14-.28-.24-.42-.48-.91-1.04-1.38-1.62-.1-.12-.11-.38-.03-.51.07-.11.23-.16.31-.17.09-.02.16,0,.21.03.66.5,1.42,1.22,1.51,2.4.3.15.28.43.23.61l.69.91-.8-.61ZM70.27,47.71c.38-.39.45-.95.52-1.49.07-.56.14-1.11.21-1.65l.08-.67,1.04-.48.06.12s.02.04.03.05c.04.07.09.15.06.25-.06.19-.12.38-.19.57-.06.18-.13.37-.19.55-.3.99-.6,1.98-.91,3.01l-.37,1.23-.16-.17c-.39-.43-.68-.83-.18-1.34ZM69.79,57.39c-.06-.11-.06-.25,0-.4.07-.17.2-.3.34-.34.79-.22,1.73.13,2.14.8.38.63.75,1.26,1.17,1.98.19.33.39.68.61,1.05l.2.35-.37-.16c-.2-.08-.37-.15-.53-.21-.28-.11-.5-.19-.7-.32-.74-.51-1.46-1.03-2.13-1.62-.26-.23-.43-.56-.6-.88-.05-.09-.09-.18-.14-.26ZM71.01,60.71c-.02.08-.07.14-.12.19-.01.01-.03.03-.04.04l-.1.13-.11-.12c-.06-.06-.13-.12-.11-.21.02-.07.04-.13.07-.18l.11-.25.14.15s.02.02.04.04c.06.05.14.12.11.22ZM69.5,69.58c.15,2.02.28,4.07.4,6.06l.11,1.78c.01.17,0,.35,0,.54,0,.1,0,.2,0,.32v.18l-.17-.05c-.56-.17-.88-.5-1.22-.88l-.04-.04v-.06c.02-.15.04-.3.05-.46.04-.36.07-.72.12-1.09q.2-1.48-.77-2.57l-.03-.04v-.05c0-1.49-.23-3.09-.74-5.06l-.03-.13.13-.03c.08-.02.15-.04.22-.07.15-.05.28-.09.41-.07,1.02.2,1.49.71,1.57,1.71ZM63.05,71.11l.08-.05h.09c.08.02.2.09.25.17.08.12.1.24.08.35-.03.11-.1.2-.23.26-.02.01-.05.04-.07.06l.11.15-.25-.03h-.01s-.06,0-.06,0c-.06,0-.11-.01-.16-.01-.06.02-.1.08-.17.19-.06.1-.13.2-.24.27l-.27.16.07-.3c.1-.46.16-.59.49-.59h.03c-.16-.34.12-.52.27-.62ZM63.57,72.76s-.05.04-.08.07c-.08.07-.17.15-.28.2-.02.01-.04.02-.06.02-.08,0-.15-.08-.23-.19-.02-.03-.05-.06-.07-.09l-.09-.11.6-.47.31.5-.09.08ZM63.78,74.42s.03-.02.05-.02l.16-.09.11.51-.44.26-.03-.19s0-.04-.01-.06c-.02-.07-.04-.15-.01-.24.03-.09.12-.13.18-.16ZM63.04,74.31c.08.53-.25.68-.56.75l-.17.04v-.18c.02-.34.1-.66.58-.72l.13-.02.02.13ZM62.33,76.22s.07-.1.07-.14c.03-.15.08-.29.13-.45.03-.07.05-.15.08-.24l.04-.13.89.28c.19-.04.36-.18.54-.32.32-.26.67-.56,1.28-.36l.15.05-.78,1.46-2.37.4-.05-.05c-.19-.2-.06-.39.02-.51ZM63.65,69.72l-.04-.29.25.15c.41.25.66.62.9.97.17.26.34.5.56.7l-.9-2,.37.23c1.07.66,1.52,1.6,1.95,2.52.05-.06.03-.14,0-.25-.02-.08-.04-.18-.02-.27.03-.13.05-.27.07-.44.01-.09.03-.2.05-.32l.07-.42.19.38c.42.85.55,1.68.42,2.69v.07s-.07.03-.07.03c-.47.25-.92.5-1.37.74l-.1.05-.07-.09c-1.45-1.86-2.06-3.07-2.27-4.47ZM64.81,65.53l-.05.05-.07-.02s-.09-.02-.14-.03c-.1-.02-.2-.04-.3-.09-.12-.06-.19-.23-.17-.35.02-.11.11-.27.24-.31.16-.05.33-.04.45.01.12.05.31.21.31.38,0,.12-.1.21-.2.28-.03.02-.06.04-.08.07ZM64.83,68.28l-.13.38-.18-.22s-.06-.08-.09-.12c-.05-.11.03-.18.08-.22l.16-.14.16.31ZM65.05,69.07l.33.03c.74.06,1.08.45,1.09,1.26v.37s-1.41-1.66-1.41-1.66ZM68.25,67.27l.23.21-.31.02c-.19.01-.35.03-.49.04-.26.02-.45.04-.64.04-.02,0-.05,0-.07,0-.15,0-.41-.17-.42-.34,0-.18.07-.38.19-.52.21-.25.51-.3.76-.14.14.09.26.21.43.38.09.09.19.19.32.3ZM65.7,62.47c.62.41,1.12.96,1.47,1.64l.04.08c.2.39.43.83.33,1.34l-.02.08-.08.02c-.09.03-.18.04-.26.04-.3,0-.54-.17-.68-.49-.26-.6-.49-1.2-.73-1.83-.09-.24-.18-.48-.28-.72l-.15-.4.35.23ZM65.38,65.61c.09-.11.35-.22.51-.13.19.1.36.22.58.38.09.06.18.13.29.21l.14.1-.81.72-.09-.09c-.06-.07-.13-.13-.19-.19-.16-.16-.3-.31-.43-.47-.1-.13-.09-.39,0-.51ZM66.48,68.43c.1.11.19.21.29.29h0s0,.01,0,.01c.01.01.03.02.04.03l.1.07-.03.06c.03.05.05.12.02.19-.05.12-.2.12-.26.12h-.23s.1-.18.1-.18c-.48-.01-.77-.33-1.07-.66-.09-.1-.18-.2-.28-.3l-.22-.21.3-.02c.66-.03.95.3,1.21.6ZM64.09,61.74c.94,1.15,1.04,1.39.99,2.35l-.02.31-.22-.23c-.8-.86-.97-1.25-.99-2.35v-.39s.24.3.24.3ZM60.08,58.53h0c.54,0,.86.33,1.11.6,1.09,1.15,1.94,2.5,2.59,4.14l.06.14-.14.04c-.2.06-.39.09-.55.09-.43,0-.72-.19-.88-.58-.48-1.2-1.17-2.4-2.16-3.77-.06-.08-.08-.18-.11-.29-.01-.05-.03-.12-.05-.19l-.05-.17h.18ZM58.49,58.91s.07-.04.1-.06c.1-.06.19-.12.28-.06,1.31.88,2.25,2.16,2.81,3.81l.05.16-.17.02c-.08,0-.15.01-.22.01-.5,0-.86-.2-1.11-.62-.41-.69-.81-1.37-1.21-2.06l-.66-1.13.12-.07ZM55.51,57.88c.04-.08.1-.13.18-.15.12-.03.23.03.33.09l.06.04c1.45.78,2.36,2.03,3.06,3.14.08.13.12.29.16.47.02.09.04.19.07.29l.04.15-.15.02c-.18.03-.35.05-.5.05-.66,0-1.06-.28-1.38-.91-.37-.73-.81-1.41-1.28-2.13-.2-.3-.4-.61-.59-.92l-.04-.07.04-.07ZM52.35,57.05c1.83.52,3.54,2.15,4.23,4.06l.03.08-.06.06c-.09.08-.19.13-.3.13-.02,0-.04,0-.05,0-.12-.02-.23-.1-.3-.22-.81-1.42-2.03-2.48-3.24-3.4-.07-.06-.13-.12-.22-.24-.05-.07-.12-.15-.22-.26l-.3-.34.44.12ZM50.18,57.81c.86-.24,1.47.09,2,.37.12.06.23.12.35.18,1.1.52,2,1.35,2.83,2.62l.16.25-.29-.04c-1.16-.15-1.9-.3-2.41-1.11-.44-.68-1.1-1.21-1.99-1.58-.13-.05-.25-.14-.4-.25-.08-.06-.17-.12-.28-.2l-.25-.17.29-.08ZM49.05,59.03c1.66-.29,2.79.2,3.78,1.65l.14.21h-.26c-.19,0-.35,0-.49,0-.26,0-.45-.02-.63.02-.12.02-.23.03-.34.03-.49,0-.91-.23-1.29-.7-.17-.21-.38-.4-.63-.62-.12-.11-.24-.22-.38-.35l-.19-.18.26-.05ZM46.87,59.94c1.03-.49,1.77-.33,2.84.62l.18.16-.23.07c-.27.08-.56.15-.84.15-.35,0-.69-.1-1.03-.38-.15-.13-.37-.19-.59-.26-.11-.03-.21-.07-.31-.1l-.29-.11.28-.13ZM45.26,61.06c.2-.5.31-.47,1.17-.25l.62.16-1.87.31.09-.22ZM44.88,62.83c-.41,0-.76-.19-1.1-.59l-.14-.16.2-.06c1.4-.4,1.43-.41,2.52-.26l.22.03-.13.18c-.36.5-.82.78-1.42.84-.05,0-.1,0-.16,0ZM45.92,63.18l-.42-.04.36-.21c.3-.17.59-.36.89-.57.8-.54,1.62-1.1,2.77-1.22l.3-.03-.18.25c-.92,1.26-1.96,1.86-3.25,1.86-.16,0-.32,0-.49-.03ZM48.07,63.51l-.31-.05.24-.19c.25-.2.48-.39.71-.58.51-.41.94-.77,1.42-1.1.45-.31.93-.47,1.45-.44h.17s-.04.17-.04.17c-.2.81-.79,1.21-1.31,1.57l-.16.11c-.53.37-1.06.55-1.66.55-.16,0-.33-.01-.51-.04ZM48.98,64.06l.32-.19c.06-.04.12-.07.18-.1.12-.07.24-.13.35-.21.18-.13.38-.26.56-.39.46-.31.94-.64,1.32-1.03.66-.66,1.29-.85,2.11-.62l.12.03-.02.12c-.09.6-.54.9-.93,1.17l-.09.07c-.85.6-1.81,1.26-3.03,1.26-.17,0-.34-.01-.52-.04l-.37-.06ZM50.96,65.16c-.27,0-.55-.05-.96-.16l-.4-.1.38-.15c.2-.08.4-.16.59-.23.44-.17.86-.33,1.26-.53.38-.18.74-.43,1.1-.7.27-.2.53-.41.79-.62.15-.12.31-.25.46-.37.36-.28.78-.56,1.36-.32l.16.06-.1.14c-.71,1.03-2.4,2.31-3.6,2.75-.44.16-.73.24-1.05.24ZM52.25,66.05h-.13s0-.14,0-.14c0-.05,0-.09,0-.13,0-.08,0-.17.1-.21,1.32-.53,2.41-1.45,3.47-2.35l.21-.18c.06-.05.12-.1.18-.15.28-.25.57-.51.99-.59.12-.02.24,0,.36,0,.05,0,.1.01.15.02h.17s-.05.17-.05.17c-.02.06-.03.11-.04.15-.02.1-.04.18-.11.24-.23.21-.47.42-.7.62-.75.67-1.52,1.36-2.31,2-.56.46-1.23.56-1.83.56-.16,0-.31,0-.46-.02ZM54.93,66.88l-.24.03s-.06,0-.1,0c-.15,0-.31-.05-.51-.11-.13-.04-.29-.08-.48-.13l-.39-.09.37-.16c1.65-.74,2.93-1.61,4.18-2.83.63-.62.7-.61,1.77-.54h.16s.16.73.16.73l-.39.32c-.25.2-.49.4-.73.58l-.45.35c-.57.45-1.17.91-1.77,1.34-.48.35-1.04.42-1.59.5ZM56.55,67.71c-.24,0-.48-.03-.73-.08l-.1-.02v-.1c-.05-.4.2-.49.35-.54.04-.02.08-.03.11-.05.22-.15.41-.26.6-.34,1.06-.46,2.39-1.15,3.25-2.51.09-.14.28-.38.59-.42.24-.04.48.05.72.25l.11.09-.1.1c-.29.3-.57.59-.85.88-.64.67-1.25,1.31-1.9,1.91-.58.54-1.28.81-2.05.81ZM58.66,68.04l-.33.03.22-.25c1.07-1.23,2.18-2.29,3.58-3.44.42-.34.91-.38,1.45-.12l.09.04v.1c-.13.79-.66,1.25-1.17,1.7-.12.11-.25.22-.36.33-1.01.98-2.12,1.49-3.49,1.61ZM61.36,68.2l-.17.05v-.18s0-.04,0-.06c-.01-.08-.02-.19.05-.26.51-.47,1.03-.94,1.58-1.43l.6-.54-.03.34c-.11,1.31-.44,1.64-2.03,2.08ZM59.63,76.32l-.04-.33c-.02-.16-.04-.3-.06-.41-.03-.21-.06-.36-.03-.51.21-1.33.5-2.86,1.34-4.2.36-.57.75-.92,1.24-1.09.15-.05.3-.06.47-.07.07,0,.15,0,.24-.02l.14-.02v.14c.03.57-.11,1.02-.44,1.4-1.13,1.28-1.72,2.82-2.23,4.29-.03.09-.09.16-.19.28-.06.07-.13.16-.23.28l-.21.26ZM61.86,74.08l-.17.06s-.04.01-.05.02c-.05.02-.11.05-.18.05-.02,0-.04,0-.07,0-.1-.03-.13-.13-.16-.21,0-.02-.01-.04-.02-.06l-.06-.13.14-.05s.03-.01.05-.02c.07-.03.16-.08.25-.02.07.04.11.11.15.17,0,.02.02.03.03.05l.1.15ZM60.53,78.36l-.04.16s-.01.06-.02.09c-.02.09-.04.18-.09.27-.05.08-.14.11-.22.13-.02,0-.04.01-.06.02l-.1.04-.08-.11s-.08-.09-.07-.17v-.07c0-.12.02-.26.11-.35.09-.08.21-.06.32-.04.03,0,.07.01.1.01h.16ZM64.84,83.59c-.27.62-.36.78-.88,1.06l-.22.12c-.59.32-1.21.66-1.92.69-.03,0-.06,0-.08,0-.66,0-1.5-.35-2.38-.98l-.28-.2,1.36-.18.02-.27c-.33.18-.67.12-1.01.06-.1-.02-.21-.04-.31-.05l-.17-.02.06-.16c.1-.29.24-.48.42-.56.16-.08.34-.07.55,0,.17.06.33.15.48.23.03.02.07.04.1.05l.21-.21-.03.33c.98.86,1.99,1.03,3,.48.2-.11.39-.24.59-.37.1-.06.19-.13.29-.19l.37-.24-.18.41ZM65.49,80.89c-.04.12-.08.24-.11.35-.07.24-.15.46-.23.68-.38.95-1.14,1.58-2.26,1.87-.09.02-.18.04-.27.04-.47,0-.85-.33-1.27-.71l-.26-.24h1.39l-1.83-.67.04-.12c.13-.37.4-.34.56-.33.04,0,.08,0,.11,0,.16-.02.32,0,.48,0,.07,0,.14,0,.2,0h.18c.16.01.32.02.48.01.08,0,.16-.01.25-.03-.38-.1-.75-.13-1.11-.16-.42-.04-.85-.08-1.29-.21l-.27-.08.23-.16c.37-.25.74-.31,1.1-.37.09-.02.18-.03.27-.05l-1.37.02s-.03,0-.05,0h-.03s0,0,0,0c-.06.02-.14.02-.18-.08-.01-.04-.01-.07,0-.09.01-.07.07-.09.12-.1h0s.03,0,.03,0c0,0,0,0,0,0l.1-.03s.07-.06.1-.09c.11-.09.22-.19.35-.26.01,0,.02,0,.03-.01-.07,0-.15,0-.23-.03-.1-.02-.13-.11-.16-.17,0-.02-.01-.03-.02-.04l-.1-.18.2-.02c.07-.02.14-.03.2,0,.06.03.12.07.18.1.11-.38.21-.43.66-.37,0,0,0,0,0,0,.03-.09.07-.19.16-.25.04-.03.07-.05.11-.08.03-.02.06-.04.09-.06l-1.34.31.08-.23c.54-1.51,1.72-2.13,3.32-1.74l.13.03-.04.13c-.33,1.19-.45,2.5,1.12,3.22l.11.05-.04.12ZM66.63,81.37l-.06.12-.13-.03c-.06-.02-.14-.06-.15-.15,0-.06.02-.1.03-.14l.06-.12.13.03-.06.12h0l.08-.11s.14.05.14.16c0,.05-.02.1-.04.13ZM68.01,77.23c-.18.85-.37,1.74-.82,2.54-.05.09-.11.16-.17.24-.03.04-.06.07-.09.12l-.03.04h-.05c-.14.04-.28.06-.42.06-.42,0-.83-.15-1.18-.43-.32-.26-.63-.61-.5-1.24l.04-.17,1.14.6c-.08-.2-.25-.33-.44-.48-.24-.18-.52-.39-.56-.78l-.02-.13.13-.02c.66-.1.98.32,1.27.68.09.12.18.23.27.32,0-.13-.06-.25-.14-.38-.07-.13-.14-.27-.16-.43v-.08s.44-.35.44-.35c-.13-.15-.33-.21-.55-.27-.25-.08-.54-.16-.75-.42l-.15-.18.23-.04c.08-.01.15-.03.22-.04.16-.03.31-.06.47-.07.11,0,.21,0,.31.02-.1-.15-.25-.28-.44-.39l-.1-.06.05-.11c.16-.36.48-.4.74-.43.14-.02.27-.03.38-.09-.07-.13-.16-.11-.35-.06-.14.04-.3.08-.45,0l-.08-.04v-.09c.07-.45.23-.76.47-.94.2-.15.45-.19.75-.14.25.05.48.25.6.42.32.48.41,1.03.27,1.52-.13.43-.23.88-.32,1.31ZM69.7,79.69c-1.15-.69-1.2-.72-1.29-1.29l-.05-.3.26.17c.55.36.97.71,1.27,1.24l.25.45-.44-.26ZM71.04,61.02l.12.28c.11.28.13.48.05.64-.1.21-.33.27-.52.32l-.29.08.64-1.32ZM70.6,63.95c-.35-.53.17-.93.45-1.15l.2-.16.05.69c.08,1.17.16,2.28.05,3.38,0,.08-.08.19-.17.22-.09.02-.18.04-.26.05l-.23.04v-.17c.02-.1.03-.21.05-.31.02-.13.06-.34.02-.38-.5-.59-.31-1.14-.11-1.5.14-.27.13-.46-.04-.71ZM71.47,67.94c-.03.12-.1.22-.17.32-.03.04-.06.08-.08.13l-.11.19-.12-.18s-.06-.08-.08-.12c-.07-.09-.13-.17-.09-.27.05-.11.11-.21.17-.31l.17-.27.12.16s.04.04.06.06c.08.08.16.17.13.28ZM70.52,70.66l.04-.27c.08-.51.18-.91.68-1.29l.17-.13.04.21c.13.64-.07,1.01-.7,1.35l-.24.13ZM71.54,71.28l-.1.23c-.05.11-.09.23-.16.33-.04.07-.11.11-.17.14-.02,0-.03.02-.05.03l-.14.09-.06-.15s-.02-.04-.03-.06c-.04-.07-.09-.17-.05-.26.05-.13.12-.25.19-.37.03-.04.05-.09.08-.13l.07-.13.41.29ZM71.07,86.94c-.41-.53-.44-1.01-.09-1.61l.23-.39.12,2.34-.27-.34ZM71.37,80.09l.73-1.43.12.22c.1.17.2.4.12.61-.07.2-.27.34-.65.48l-.32.12ZM71.49,78.35l-.04-.14.14-.03c.08-.18.18-.39.3-.64l.15-.32.1.33c.1.35.15.52.06.66-.07.11-.19.15-.42.2.01.05.02.1.02.16,0,.1-.1.15-.16.19-.02,0-.03.02-.04.03l-.17.12-.04-.21c-.02-.07-.04-.14,0-.21.03-.05.06-.1.1-.14,0,0,0,0,0,0ZM74.44,86.88c.29-.32.58-.66.87-1.01v-1.09l.37-.1.32.79c.2.07.38,0,.63-.14.28-.15.6-.31,1-.15l.23.1-1.09.75c.05.13.14.24.25.36.19.22.43.5.32.96l-.05.18-1.36-.83c-1.21.75-1.76,1.86-2.35,3.22l-.18.41-.08-.44c-.05-.28-.16-.26-.39-.24-.03,0-.06,0-.09,0,.02.03.03.06.05.1.04.09-.02.18-.06.25-.01.02-.02.03-.03.05l-.09.2-.13-.17s-.02-.02-.03-.03c-.04-.04-.09-.1-.1-.18,0-.09,0-.19,0-.28v-.04s-.3-.46-.3-.46l.43.25s.02-.01.04-.02c.02,0,.06-.02.07-.03.44-.89,1.09-1.63,1.77-2.4ZM73.41,86.22c.07-.09.19-.13.32-.12.13.01.23.08.35.16.05.04.11.07.18.11l.15.09-.62.64-.1-.1s-.06-.06-.1-.09c-.09-.08-.19-.17-.23-.29-.05-.15-.03-.31.05-.41ZM78.07,88.65l-.1-.2.08-.07c.15-.12.28-.13.36-.11.12.02.22.1.3.23.05.09.1.17.15.26.19.31.38.62.42.97.11.93.1,1.95-.04,3.2l-.02.14-.14-.03c-.22-.04-.43-.07-.63-.1-.44-.07-.85-.13-1.26-.25-1.05-.31-1.8-1.05-2.4-1.73l-.03-.03v-.04c-.03-.22-.08-.44-.14-.67-.14-.54-.28-1.1.04-1.68.05-.09.14-.12.23-.14.03,0,.07-.02.1-.04l.14-.06.04.14c.07.23.09.48.11.71.04.38.07.74.28,1.05.02-.23-.04-.47-.1-.72-.1-.37-.2-.79-.05-1.25l.14-.42.21.75c.05.2.1.36.15.51.08.24.17.48.28.74.04.09.12.17.26.25-.43-.88-.43-1.05-.36-2.29l.02-.27.21.18c.05.05.11.09.16.12.11.08.22.16.27.28.07.17.11.35.14.53.03.13.06.26.1.38.15.48.22.59.74.86-.02-.02-.05-.04-.08-.07-.07-.05-.15-.12-.2-.21l-.05-.1c-.09-.17-.19-.34-.24-.53-.04-.17-.04-.35-.05-.54,0-.09,0-.18,0-.27v-.19s.17.05.17.05c.38.1.48.37.56.56.03.09.06.16.11.22.11.13.23.25.35.37l.04.04c-.09-.18-.18-.37-.27-.54ZM77.32,99.32l.05.14-.48.13-.06-.07s-.08-.09-.13-.13c-.12-.12-.25-.24-.26-.4-.02-.27-.05-.54-.08-.8-.14-1.43-.29-2.91.04-4.38.02-.09.08-.14.15-.2.03-.03.06-.05.1-.09l.22-.23v.32c.03.54.03,1.07.02,1.59-.01,1.43-.03,2.77.43,4.12ZM77.21,93.47v-.1s.11-.01.11-.01c.12-.02.29-.03.41.08.08.07.11.18.11.33l-.02.44c-.03.55-.06,1.12-.08,1.67-.02.57,0,1.09.34,1.56.11.15.15.3.11.46-.05.2-.23.37-.54.51l-.13.06-.05-.13c-.6-1.57-.47-3.12-.25-4.85ZM78.09,93.83l.02-.1h.1c.37-.05.61.12.67.48.1.58.18,1.2.26,1.83.05.41-.17.69-.46,1.08-.07.08-.14.18-.21.28l-.16.22-.08-.26c-.43-1.45-.3-2.54-.14-3.52ZM79.24,94.13c.39-.37.39-.78.39-1.25,0-.12,0-.25.01-.38,0-.08.04-.15.08-.22.02-.03.03-.06.05-.09l.21-.47.1,1.17c.04.48.09.95.12,1.43.04.55-.28.89-.7,1.29l-.13.12-.08-.15c-.35-.63-.37-1.14-.05-1.44ZM74.96,97.84c.02.29.05.57.07.86.08.91.16,1.85.07,2.76-.19,1.96-1.03,3.21-2.64,3.93l-.17.08-.02-.19c-.02-.18-.04-.34-.06-.48-.04-.28-.07-.52-.04-.76.16-1.33.32-2.66.49-3.98.13-1.06.26-2.12.39-3.17.11-.93.21-1.89.31-2.81l.11-1.04c.05-.45.1-.95.33-1.51l.07-.17,1.94,1.66v.07s-.01.05-.01.08c0,.08,0,.16-.05.24-.82,1.29-.91,2.71-.79,4.43ZM75.6,102.76c.06-.03.12-.05.19-.07.1-.01.16.06.19.1l.13.14-.16.1-.3.12-.28-.3.23-.1ZM72.6,94.98v.58c0,.17,0,.31,0,.44,0,.27,0,.44-.02.62-.03.19-.28.33-.33.35-.03.02-.07.03-.1.03-.06,0-.12-.02-.17-.07-.11-.1-.18-.31-.1-.5.06-.16.14-.31.25-.53.06-.11.12-.24.2-.39l.26-.51ZM72.35,92.72l.15-.24c.03-.06.09-.15.19-.14.02,0,.04,0,.06.01v-.06s.27,0,.27,0v.35s-.01,0-.01,0v.06s-.16-.04-.16-.04l-.5.06ZM72.22,85.75c-.02-.06-.05-.12-.06-.19-.02-.1.06-.16.1-.19l.15-.14.1.17.12.32-.31.28-.09-.24ZM72.61,84.06c-.02.08-.05.17-.09.26-.03.07-.1.1-.14.11-.03,0-.05.01-.07.01-.04,0-.07-.01-.09-.02-.1-.06-.23-.14-.22-.26.01-.13.05-.27.12-.41.04-.08.11-.12.17-.15.02,0,.03-.02.05-.03l.15-.11.15.49-.04.11ZM72.35,82.44s-.06.05-.08.07l-.14.15-.12-.28c-.03-.08-.07-.16-.09-.24-.02-.07-.04-.14-.06-.22-.02-.09-.04-.17-.07-.25-.18-.5-.14-.55.31-1.17l.15-.21.08.25c.2.59.26,1.1.21,1.63-.01.12-.11.2-.2.28ZM70.92,99.83s.02-.02.03-.04l.21-.29.04.36c.01.06.02.1,0,.15-.01.06-.03.12-.05.18h0s0,.01,0,.02l.04.12.3-.76s-.02-.02-.03-.02c-.04-.04-.08-.07-.11-.08-.22-.09-.29-.23-.3-.34-.02-.14.05-.3.19-.41.17-.13.37-.22.58-.32.1-.04.2-.09.31-.14l.18-.09v.21c.01.07.02.14.03.21.01.16.03.33.01.51-.1,1.03-.21,1.94-.33,2.78-.02.13-.11.23-.21.32-.04.04-.07.07-.11.11l-.1.12-.11-.11c-.3-.31-.2-.59-.13-.81.04-.11.07-.21.06-.32l-.47-.33.19-.49-.11.02c-.05.14-.11.27-.17.39t0,0l.07.23-.23-.06s-.02,0-.03.01l-.39.2v-.56s.21.03.21.03c.01,0,.03,0,.04,0-.04-.14-.04-.24,0-.32.05-.08.13-.12.25-.16-.02-.04-.03-.09-.03-.14,0-.09.06-.15.1-.2ZM70.46,97.4l.14-.05.06.13c.02.06.04.11.03.16-.01.1-.1.13-.14.14l-.13.04-.09-.14s-.03-.08-.03-.13c0-.11.1-.14.15-.16ZM69.87,107.43v-.74s.01-.01.01-.01v-.02s0-.26,0-.26l.1.07c.15-.31.3-.6.46-.89.13-.24.27-.47.42-.73l.11-.18-.45-.1.03-.13c.14-.59.47-1.05.92-1.69l.25-.34.05.33c.1.64,0,1.19-.09,1.68-.07.38-.13.73-.1,1.08v.07s-.05.05-.05.05c-.08.06-.15.12-.22.17-.14.11-.28.21-.39.33-.1.1-.17.23-.25.36-.03.06-.07.11-.1.17-.09.14-.18.21-.3.23-.02,0-.04,0-.05,0,.04.13.09.29.05.45.07.01.12.08.15.13l.05.08-.05.09c-.07.08-.14.17-.23.17-.02,0-.04,0-.05-.01-.06-.02-.11-.06-.16-.1l-.1.03v-.12s-.09-.07-.09-.07l.09-.08ZM71.13,108.17l-.05.04c-.34.3-.64.57-.58,1.06.02.19-.06.37-.14.54-.02.05-.05.1-.07.15-.16.4-.33.8-.49,1.21-.46,1.15-.94,2.33-1.45,3.49-.31.71-.66,1.37-1.47,1.61-.07.02-.13.02-.19.02h-.01s-.12.39-.12.39l-.37-.31.26-.23.04-.13v-.25s-.39.09-.39.09l.02-.19c.07-.71.12-.75.95-1.21.06-.09.12-.18.18-.28.15-.22.3-.45.42-.68.09-.16.16-.33.23-.5.1-.22.2-.46.33-.67s.3-.41.46-.59c.1-.12.2-.23.29-.36.06-.08.1-.19.1-.22-.26-.43.02-.71.21-.92.04-.04.08-.09.12-.13.11-.13.08-.2-.01-.34-.04-.07-.08-.14-.1-.22v-.06s.37-.53.37-.53c.31-.42.61-.84.92-1.26.2-.26.27-.41.06-.66-.17-.21.24-.73.24-.73.22-.27.46-.16.63-.08.08.04.17.08.26.09l2.52-1.73.55,1.09-.13.06c-1.26.59-2.44,1.39-3.6,2.42ZM84.71,106.78c-.51.11-.79.17-1,.17s-.36-.06-.61-.18c-.74-.36-1.38-.73-2.07-1.2l-.17-.12.18-.11c.59-.35,1-.42,1.42-.22.29.14.56.29.82.44.36.2.73.41,1.11.63l.84.47-.53.12ZM87.81,106.3s-.05.04-.07.07c-.07.08-.16.17-.27.17,0,0-.01,0-.02,0-1.69-.15-3.03-.59-4.36-1.42l-.26-.16.29-.08c.19-.05.36-.1.5-.15.29-.09.52-.15.75-.2.33-.07.65-.01.98.18.55.33,1.11.65,1.7.97.24.13.48.27.73.41l.17.1-.15.12ZM90.79,105.12c-.41.47-.78.77-1.31.77-.12,0-.25-.02-.39-.05l-.23-.05c-1-.24-2.04-.49-3.06-1.17l-.17-.11.17-.11c.83-.56,1.55-.67,2.33-.37.6.23,1.22.43,1.82.63.27.09.53.17.79.26l.19.06-.13.15ZM93.51,103.65c-.55.6-1.13.88-1.8.88-.03,0-.07,0-.1,0-1.11-.04-1.98-.26-2.75-.69-.08-.04-.12-.13-.15-.21-.02-.04-.04-.08-.06-.13l-.07-.13.29-.13c.42-.2.82-.39,1.41-.2.98.31,1.86.41,2.71.28.1-.01.19.02.3.05.05.02.11.04.17.05l.22.06-.15.17ZM95.63,102.06c-.4.59-.88,1.13-1.63,1.13-.07,0-.13,0-.2-.01-.58-.07-1.16-.2-1.71-.31-.21-.04-.42-.09-.62-.13-.09-.02-.12-.1-.14-.17,0-.02-.02-.05-.03-.08l-.03-.07.04-.06c.21-.3.52-.41.82-.52.16-.06.31-.11.44-.19l.06-.04.06.03c.63.29,1.3.26,2.02.23.26-.01.53-.03.81-.02h.25s-.14.21-.14.21ZM96.68,101.13c-.04.05-.07.11-.09.16-.08.14-.13.24-.25.24h-.01c-.52-.04-1.04-.1-1.55-.16l-.49-.06.02-.14c.07-.44.35-.66.73-.6.36.06.71.14,1.08.24.16.04.31.08.48.12l.19.04-.11.16ZM98.59,98.96c-.28.68-.64,1.13-1.11,1.42-.14.08-.29.12-.44.12-.24,0-.48-.1-.68-.3l-.09-.09.09-.1c.66-.73.69-.74,2.07-1.23l.29-.1-.12.28ZM96.77,97.81c.22-.2.47-.42.76-.49.28-.06.57-.05.84-.04.12,0,.23.01.35.01h.13l.03.42-.06.04c-.05.04-.11.08-.16.11-.12.09-.25.18-.39.25-.5.24-1.01.47-1.58.73l-.99.45.1-.29c.18-.54.49-.8.76-1.03.06-.05.11-.09.16-.14l.05-.05ZM93.16,97.95c.27-.19.57-.4,1.13-.41h.26s-.15.21-.15.21c-.28.41-.61.69-.92.97-.27.23-.52.45-.71.73-.29.43-.57.87-.85,1.31l-.19.3.33-.04h0c.37-.09.75-.26,1.16-.51l-.67-.12.08-.16c.42-.87,1.13-1.43,1.81-1.96.18-.14.35-.28.52-.42.35-.29.76-.54,1.43-.38l.2.05-.29.37c-.11.15-.21.28-.32.41-.05.06-.11.12-.18.18-.1.1-.19.19-.23.29-.33.81-.99,1.2-1.58,1.47-.05.02-.09.06-.13.1h.04l.04.03h-.01s.01.03.01.03c.08.1.1.2.08.29-.04.15-.19.22-.29.27-.49.24-.96.45-1.42.67-.41.19-.83.38-1.24.58-2.7,1.29-5.56,1.97-8,2.46-.34.07-.67.09-1.08.09-.24,0-.5,0-.8-.02l-.94-.03,1.83-.47c3.03-.78,5.89-1.51,8.58-2.67.09-.04.18-.09.27-.15h-.03s-1.16.13-1.16.13l.11-.22c.04-.07.07-.14.09-.21.06-.14.12-.28.21-.39,1.03-1.19,1.97-2.06,2.96-2.74l.06-.04ZM92.37,97.69l.44-.12-.3.34c-.37.42-.78.81-1.17,1.2-.85.84-1.73,1.7-2.34,2.82l-.02.04-.05.02c-.16.06-.31.12-.47.19-.49.21-1.04.44-1.74.44h-.28s.13-.21.13-.21c.85-1.32,1.96-2.29,3.04-3.22.18-.16.37-.32.55-.48.63-.56,1.4-.8,2.21-1.02ZM90.7,97.84l-1.07,1.02c-.72.68-1.42,1.35-2.12,2.03l-.13.13c-.3.29-.61.59-.88.91-.19.23-.34.48-.51.74-.08.12-.15.25-.24.37l-.03.05-1.7.34.09-.23c.39-.97,1.63-2.38,3.23-3.67,1.06-.85,2.26-1.52,2.92-1.62l.43-.07ZM86.34,98.98c.51-.34,1.05-.39,1.57-.42l.4-.02-.83.68c-.37.31-.74.61-1.11.93-1.21,1.03-2.15,2.04-2.87,3.08-.24.35-.54.51-.97.51-.13,0-.28-.02-.43-.05l-.19-.04.1-.17c1.13-1.84,2.54-3.32,4.32-4.52ZM83.95,100.38l.58-.25-.42.47c-.06.06-.12.13-.18.19-.13.14-.27.29-.39.44-.16.21-.33.41-.5.62-.44.53-.9,1.08-1.26,1.67-.33.54-.72.69-1.18.69-.09,0-.17,0-.26-.01l-.18-.02.07-.17c.6-1.51,2-2.87,3.73-3.63ZM77.51,104.35l.15.03h0c0-.17,0-.34.12-.41.69-.42,1.39-.82,2.19-1.28l1.18-.68-1.52,2.35-1.74.31v.03s-.09-.01-.09-.01h-.04s-.32-.06-.32-.06l.05-.26ZM78.31,105.2c.52-.04,1.14-.04,1.74.27.17.09.35.17.52.25.3.15.61.3.91.46.11.06.12.18.14.31l.4-.07-.11.24c-.04.1-.1.15-.15.15-.02,0-.03,0-.05,0-.03,0-.06-.02-.1-.03l-.2.03-.02-.09-.31-.05c-.71-.13-1.45-.26-2.17-.42-.86-.19-1.65-.19-2.44,0-.42.11-.85.17-1.27.23-.19.03-.38.06-.58.09l-.16.03v-.16c.01-.39.3-.47.5-.53.03,0,.06-.02.09-.03,1.15-.37,2.22-.59,3.27-.67ZM76.07,101.16l-.12-.09s-.08-.06-.12-.08c-.09-.06-.18-.11-.18-.22,0-1.67,0-3.34,0-5.01v-.82s.42,0,.42,0v.97c0,.65,0,1.3,0,1.94-.01.86-.03,1.64.51,2.29l.06.07-.56.93ZM78.43,99.93c-.48.69-1,1.17-1.75,1.59l-.21.12v-.25c.04-.46.24-.78.43-1.1.04-.07.08-.13.12-.2l.03-.05,1.58-.41-.21.3ZM82.69,96.63c-1.25,1.13-2.75,1.96-4.74,2.62l-.32.11.78-1.45h.07c1.03-.16,1.93-.65,2.88-1.17.37-.2.75-.41,1.14-.6l.16-.08.03.17s.02.08.03.12c.03.1.06.21-.02.28ZM85.41,92.49c-.4.47-.88.84-1.35,1.19-.18.13-.35.27-.52.4.26-.12.53-.24.79-.35l.07-.03.06.05c.11.08.17.17.18.27.01.16-.1.27-.18.36-.24.25-.51.52-.8.75-1.08.86-2.84,1.8-4.38,2.34l-.13.04-.05-.12c-.16-.42,0-.77.46-1.01.26-.14.52-.27.78-.4.36-.18.74-.37,1.1-.57.11-.06.23-.12.34-.18.18-.09.35-.18.51-.29h-.02s.07-.07.07-.07c-.21.08-.42.17-.63.26-.12.05-.23.11-.35.18-.32.17-.65.34-1.08.39l-.13.02-.02-.13c-.08-.55.14-1.03.56-1.18,1.63-.58,3.09-1.48,4.18-2.2.08-.05.18-.02.28.01.04.02.1.03.16.05l.21.05-.14.17ZM80.94,92.31c.12.44.25.93-.27,1.41l-.14.12-.08-.17c-.36-.78-.35-.96.13-2.02l.33-.72-.07.79c-.02.18.04.38.09.59ZM85.98,91.34c-.87.58-1.75,1.12-2.58,1.63-.1.06-.23.05-.34.03,0,0-.01,0-.02,0v.02s-.02,0-.02,0c-.22.39-.58.56-1.05.49,0,.11-.04.21-.13.27-.04.02-.08.03-.12.03-.13,0-.28-.09-.47-.22l-.27-.19.33-.05c.16-.03.29-.05.39-.07v-.11s.17.05.17.05c.27-.25.58-.47.99-.47h0v-.02s.06,0,.06,0c.01-.02.02-.03.03-.05.07-.11.14-.22.26-.29,1.1-.71,1.93-1.4,2.63-2.17.1-.11.23-.19.37-.28.07-.04.14-.09.22-.14l.2-.14.02.24c.04.66-.17,1.13-.65,1.45ZM81.22,91.88c0-.09.06-.16.11-.21.01-.02.03-.03.04-.05l.13-.18.25.48-.31.43-.1-.19s-.02-.03-.03-.05c-.04-.06-.09-.13-.08-.23ZM81.89,92.24c0-.14.07-.28.21-.41.17-.16.46-.37.8-.5.32-.12.65-.2.97-.28.14-.04.28-.07.42-.11l.4-.11-.26.32c-.56.69-1.29,1.19-2.18,1.48l-.07.02-.06-.05c-.14-.11-.22-.24-.22-.38ZM86.04,89.72l-.19.18-.03-.26c-.12-.95.2-1.57,1.03-1.95l.15-.07.04.16c.18.86.12.92-.99,1.93ZM87.18,86.54c-.13.56-.5,1.01-1.12,1.38-.03.02-.07.03-.12.03-.11,0-.23-.06-.28-.11-.09-.08-.17-.27-.11-.39.29-.56.71-1,1.29-1.36l.13-.08.06.14s.04.09.06.13c.05.09.09.17.07.26ZM86.74,82.94l.14.2c.13.19.18.36.15.52-.05.25-.28.38-.47.51l-.41.26.59-1.48ZM85.18,86.86c.3-.96.81-1.43,1.4-1.98l.49-.46-.03.35c-.01.12-.01.23-.01.32,0,.18,0,.32-.08.44-.35.56-.82,1-1.57,1.49l-.31.2.11-.36ZM84.34,83.55l.29-.72v2.88l-.25-.46c-.41-.75-.21-1.25-.03-1.69ZM83.48,83.97s.03-.03.04-.05l.13-.18.25.5-.32.47-.1-.21s-.02-.04-.03-.06c-.04-.06-.09-.14-.08-.24,0-.1.07-.17.12-.22ZM81.98,84.71c.45-.1.84.04,1.09.39.35.48.59.89.76,1.28.28.64.62,1.17,1.05,1.63.35.38.52.79.48,1.19-.04.42-.3.8-.75,1.12-.33.24-.73.42-1.13.5-.36.08-.73.12-1.1.12-.7,0-1.41-.14-2.12-.42-.17-.07-.28-.17-.33-.3-.06-.15-.04-.33.07-.53l.05-.09.63.12-.75-.65.14-.1s.04-.04.06-.05c.06-.06.13-.12.22-.1.42.09.84.2,1.26.3l.12.03c-.01-.1-.08-.12-.21-.15-.03,0-.06-.01-.08-.02l-.08-.02c-.66-.2-1.35-.4-1.87-.94-.1-.11-.18-.23-.26-.37-.04-.07-.09-.15-.15-.24l-.11-.17.2-.04c.54-.11.88.12,1.17.33.11.08.21.15.32.19l.14.07c.27.12.52.25.89.27-.15-.06-.29-.11-.43-.16-.46-.16-.86-.3-1.1-.74-.05-.09-.02-.17.01-.28.01-.04.03-.09.04-.15l.03-.14,1.22.37c-.08-.05-.15-.09-.23-.14-.09-.06-.18-.12-.27-.17l-.23-.15.02-.09c.04-.24.12-.39.25-.47.16-.11.36-.06.53-.02.03,0,.06.01.08.02-.06-.07-.11-.14-.16-.21l-.11-.14v-.06c.07-.26.16-.69.64-.8ZM81.06,82.36l.12-.03.04.12c.21.69.09,1.29-.01,1.68-.31,1.16-.88,2.54-2.56,2.94-.04,0-.07.01-.1.01-.1,0-.21-.06-.6-.26l-.12-.06.06-.12c.17-.34.46-.49.75-.64.19-.1.37-.2.5-.34.09-.1.19-.19.29-.29.24-.22.46-.44.57-.76l-.23-.21.04.36-.03.04c-.42.6-.97,1.04-1.69,1.35l-.09.04-.06-.08c-.09-.1-.13-.21-.12-.31.01-.17.15-.29.25-.37l.03-.03c.21-.18.43-.35.65-.51.14-.1.27-.2.4-.3l.05-.04c.16-.12.26-.21.27-.34-.17.04-.3.15-.45.28-.21.18-.45.39-.85.46h-.07s-.05-.04-.05-.04c-.02-.03-.13-.14-.23-.25l-.09-.1.22-.21c.22-.21.4-.38.57-.55l-.7-.07c-.03.36-.16.46-.59.64-.01.01-.02.03-.03.04l-.03.04h-.07s-.25.33-.25.33l-.31-.49.42-.09.02-.03h.04s.04-.03.06-.03c.14-.17.28-.34.42-.5l.07-.09v-.1c-.1.05-.19.1-.29.16-.18.1-.36.19-.54.28-.13.07-.32-.04-.39-.11-.08-.08-.16-.25-.11-.37.07-.19.15-.38.3-.5.8-.65,1.6-.88,2.44-.72l.27.06c.61.13,1.18.25,1.81.1ZM75.2,79.78v-.13s.11.04.11.04l.34-.27c.4-.32.82-.66,1.25-.97.28-.2.6-.37.96-.51,1.08-.42,1.52-.24,2.07.84.44.87.49,1.83.15,2.92v.04s-.05.03-.05.03c-.35.26-.64.07-.87-.08l-.09-.06-.06-.66c-.05.03-.1.05-.12.07-.05.07-.09.16-.13.25-.05.11-.1.23-.18.33-.07.1-.2.11-.33.12-.05,0-.11,0-.16.02l-.13.02-.03-.13c-.07-.32.07-.58.2-.81.1-.19.2-.36.18-.55-.04.02-.07.03-.08.04-.21.4-.4.83-.56,1.19-.15.35-.41.75-1.05.77h-.1s-.03-.1-.03-.1c-.06-.19-.04-.35.02-.5l-.05-.03c-.05.05-.11.09-.18.11-.08.02-.18,0-.3-.07-.07-.04-.08-.12-.08-.19,0-.08.03-.13.08-.16.06-.04.13-.08.21-.09l-.09-.18.43-.15.05.47.04.07s.04-.07.05-.1c.05-.08.09-.17.12-.25.09-.24.21-.47.33-.69.04-.08.08-.16.13-.23l-.03-.06c-.03-.08-.06-.15-.1-.23-.04-.07-.08-.14-.16-.25-.01-.02-.03-.04-.04-.06l-.46.79-.95-.38s-.02.03-.03.04l-.24.31-.02-.47-.09-.09.09-.07ZM75.8,81.09l-.02.07-.08.05-.28.1.06-.62.18.1c.06.03.14.06.16.14.02.06,0,.12-.02.16ZM73.17,81.6c.16-.37.44-.59.76-.62.31-.02.6.14.82.46.28.41.52.85.75,1.28.1.18.2.37.3.54l.03.05-.02.06c-.17.52-.45.9-.87,1.38l-.13.15-.76-1.4c-.07.07-.06.16-.03.32.01.08.03.18.02.28l1.17,1.52-.3-.02c-.72-.06-.75-.14-.83-1.04l-.04-.44c-.01.12-.07.24-.21.34-.17.12-.14.22-.02.49.07.15.14.33.11.51v.05s-.05.03-.05.03c-.11.09-.2.11-.27.11-.04,0-.07,0-.09-.01-.11-.04-.2-.14-.23-.28-.05-.21-.07-.43-.09-.65l-.06-.64c-.05-.49-.09-1-.11-1.51,0-.26,0-.64.15-.96ZM72.97,87.3l.07.12c.31.54.04.89-.23,1.23-.04.05-.08.11-.13.16l-.15.2-.09-.23c-.25-.64-.13-1.08.4-1.41l.12-.07ZM73.34,73.7s-.06.09-.08.14c-.05.11-.11.22-.17.33-.07.12-.13.24-.19.37-.12.25-.25.55-.35.85-.08.23-.12.46-.17.75-.03.17-.05.35-.07.54,0,.09-.02.19-.03.29v.09s-.81.21-.81.21l-.04-.13c-.09-.33.06-.6.2-.84.18-.31.26-.48.03-.72-.1-.11-.11-.25-.13-.38,0-.1-.02-.19-.06-.23-.03-.02-.11-.05-.35,0l-.26.05.11-.24c.06-.13.11-.25.15-.35.09-.21.17-.38.26-.54.02-.03.08-.12.15-.21l-.22-.08c-.06.04-.12.07-.18.09-.07.02-.13,0-.17-.02l-.21-.05.12-.17s.02-.03.03-.04c.04-.06.09-.14.18-.15-.05-.16.03-.26.25-.47l.32-.29-.2.89s0,0,0,.01l.13.22c.09-.08.2-.15.3-.13.27.04.48-.09.72-.26.2-.14.41-.28.67-.31h.09s.04.07.04.07c.17.33.02.55-.09.72ZM74.93,71.78c-.09.06-.17.13-.24.19-.16.13-.29.24-.46.31-.15.06-.28.09-.4.09-.1,0-.19-.02-.27-.06-.19-.09-.34-.27-.43-.55v-.04c-.13-.36-.27-.81.15-1.26l.08-.09,1.71,1.3-.15.11ZM75.59,71.18l-.19-.06c-.62-.18-1.26-.37-1.63-1.04-.09-.16-.2-.28-.28-.3-.43-.13-.64-.39-.64-.78,0-.52.21-.91.61-1.12.08-.04.16-.09.24-.13.52-.28,1.05-.58,1.83-.58h.11s.02.11.02.11c.03.15.07.3.1.45.25,1.08.52,2.2-.12,3.37l-.05.09ZM75.9,71.83l-.07-.05.02-.08c.17-.82.57-1.26,1.19-1.31.57-.05.97-.27,1.34-.75.07-.09.26-.31.49-.36.16-.04.5.06.58.24.25.56.17,1.26-.19,1.87-.36.59-.92.97-1.51,1-.07,0-.14,0-.21,0-.61,0-1.15-.18-1.64-.56ZM80.19,74.6c-1.3-.28-2.14-.58-2.86-1.32l-.1-.1.11-.09c.28-.23.59-.31.9-.38.18-.04.34-.08.5-.15l.08-.03.06.06c.39.34.69.75,1.06,1.28.12.17.25.35.39.54l.21.29-.35-.08ZM84.85,75.62c-.26-.04-.49-.08-.7-.11-.41-.06-.74-.1-1.05-.22-.53-.2-1.12-.45-1.53-.87-.53-.55-.99-1.17-1.44-1.78-.13-.17-.25-.34-.38-.51-.11-.15-.14-.34-.16-.52v-.04c-.03-.14.05-.29.19-.39.15-.11.33-.13.46-.07l.04.02c.07.03.15.07.22.12,1.59,1.27,3.01,2.58,4.47,4.13l.28.3-.4-.07ZM87.3,75.48c-.14,0-.26,0-.37.02-.09,0-.18.01-.26.01-.12,0-.22-.01-.31-.06l-.18-.08c-.55-.25-1.11-.51-1.58-.9-.57-.46-1.09-1-1.6-1.52-.17-.17-.34-.35-.51-.52-.28-.28-.55-.57-.84-.88l-.55-.58.19-.07c.06-.02.11-.05.16-.07.12-.05.22-.1.32-.06l.08.04c.29.14.6.29.86.49,1.37,1.09,2.75,2.21,4.04,3.25.14.11.25.24.4.4.07.08.16.17.26.27l.22.23h-.32ZM88.64,74.63c-.1.02-.19.04-.25.06-.08.02-.14.04-.2.04-.04,0-.08,0-.12-.04-1.43-.97-2.97-2.03-4.71-3.24-.12-.08-.22-.18-.36-.31-.08-.07-.17-.16-.29-.26l-.25-.22h.34c1.46-.09,2.55.38,3.63,1.52.47.5.98.98,1.52,1.48.25.24.51.48.78.74l.19.18-.26.05ZM92.95,75.54c-.09,0-.19,0-.28.02-.1,0-.2.02-.3.02-.12,0-.25-.01-.36-.06-.22-.09-.45-.17-.67-.25-1.02-.38-2.07-.76-2.86-1.65-.15-.17-.31-.34-.47-.51-.64-.67-1.29-1.36-1.62-2.4l-.06-.19.2.02c.24.02.46.04.68.06.48.04.94.07,1.39.15.83.16,1.4.73,1.92,1.31.68.76,1.34,1.56,1.98,2.33l.52.62c.06.07.06.16.07.25,0,.04,0,.08.01.13l.02.16h-.16ZM95.83,75.27c-.21.04-.42.06-.62.06-.77,0-1.47-.28-2.07-.83-1.1-1.01-1.99-2.05-2.8-3.28l-.19-.29.34.08c.12.03.23.05.32.07.18.04.32.07.45.13,1.27.61,3.23,2.23,4.66,3.84l.16.18-.24.04ZM98.66,74.95c-.27.14-.55.21-.83.21-.31,0-.62-.09-.95-.26-.64-.33-1.21-.65-1.71-1.05-.61-.5-1.19-1.05-1.75-1.59l-.41-.39c-.1-.09-.15-.21-.21-.35-.03-.06-.06-.14-.1-.21l-.09-.18.2-.02c.08,0,.16-.02.22-.03.15-.03.28-.05.41,0l.26.1c.41.16.84.32,1.21.57.96.67,1.91,1.38,2.82,2.08l.71.54c.08.06.13.15.19.24.03.05.06.1.1.16l.09.13-.14.07ZM99.65,74.36c-1.47-.39-2.35-1.27-3.2-2.12-.1-.1-.2-.2-.3-.3l-.24-.24h.34c1.45.04,2.48.75,3.55,2.46l.18.29-.33-.09ZM100.77,74.57c-.21-.13-.39-.27-.54-.43-.24-.24-.47-.5-.71-.76l-.51-.56h.3s.05,0,.07,0c.93,0,1.67.42,2.46,1.38l.06.07-.05.08c-.12.21-.27.33-.44.38-.05.01-.1.02-.15.02-.15,0-.31-.05-.48-.16Z"/><path d="M60.15,43.82c.14.34-.05.52-.31.66h-.03c.12-.21.25-.42.37-.64,0,0-.03-.02-.03-.02Z"/><path d="M59.5,44.75l.51-.9-.2-.48.41.34h.18l-.1.17c.11.43-.26.64-.41.72l-.04.02-.35.14ZM60.17,43.79l-.03.03.03-.03Z" fill="#fff"/><path d="M60.65,45.66s-.02.08-.03.12c-.03-.05-.07-.09-.08-.14,0-.02.04-.06.07-.09.01.04.03.08.04.12Z"/><path d="M60.69,46.13l-.2-.31s-.06-.09-.08-.15c-.02-.09.04-.16.08-.19l.15-.18.15.36-.11.47Z" fill="#fff"/><path d="M61.4,45.6c.03.19.07.38.13.7-.35-.3-.12-.48-.1-.67,0,0-.03-.03-.03-.03Z"/><path d="M61.72,46.65l-.29-.25c-.34-.29-.24-.53-.18-.68,0-.01.01-.03.02-.04l-.09-.48.3.3s.03.03.04.04l.04.04v.06s-.01.04-.02.06l.17.95Z" fill="#fff"/><path d="M60.38,46.6s-.08.03-.08.02c-.02-.03-.03-.07-.04-.1.05-.01.09-.02.14-.03,0,.04-.01.08-.02.11Z"/><path d="M60.3,46.76s-.08-.01-.11-.06c-.03-.04-.04-.08-.05-.11l-.04-.14.27-.1.2-.05-.08.4-.08.02-.03-.1h0s.01.11.01.11c-.02,0-.06.02-.1.02Z" fill="#fff"/><polygon points="58.44 46.12 58.41 46.03 58.49 46.03 58.44 46.12"/><polygon points="58.4 46.48 58.23 45.87 58.7 45.92 58.4 46.48" fill="#fff"/><path d="M59.16,44.95c-.07.06-.14.12-.21.18,0-.04,0-.11.01-.11.07-.02.15-.03.23-.04,0,0-.04-.03-.04-.03Z"/><path d="M58.78,45.46l.03-.34c0-.09,0-.19.1-.22.04-.01.09-.02.13-.03l.11-.1.09.08s.12.11.06.21l-.03.05h-.1s0,.01,0,.01l-.38.33Z" fill="#fff"/><path d="M59.83,44.48c0,.07,0,.14,0,.21.02-.03.05-.06.05-.09,0-.04-.04-.07-.06-.11,0,0,.02,0,.02,0Z"/><path d="M59.69,45.08v-.4s0-.12,0-.12l-.02-.05-.02-.11.32-.12v.2s.03.06.03.1c0,.07-.03.13-.06.16l-.26.34Z" fill="#fff"/><path d="M58.61,43.09c-.15.16-.29.32-.45.46-.04.03-.17,0-.22-.06-.03-.03-.01-.18.03-.2.19-.1.39-.18.58-.26l.06.07Z"/><path d="M58.12,43.7c-.1,0-.22-.06-.27-.11-.06-.06-.06-.15-.05-.22.01-.1.05-.17.11-.2.15-.08.3-.14.44-.2l.24-.1.21.23-.21.22c-.1.11-.21.23-.33.34-.04.03-.08.04-.13.04ZM58.08,43.45s0,0,0,0c0,0,0,0,0,0ZM58.06,43.41s.03.01.04.01c.04-.04.08-.07.12-.11-.05.02-.11.05-.16.08,0,0,0,.01,0,.02Z" fill="#fff"/><path d="M67.13,115.12c0-.19,0-.39,0-.58.15.03.31.06.61.12-.29.22-.45.34-.62.46Z"/><path d="M67,115.39v-1.01s1.08.2,1.08.2l-1.08.81ZM67.27,114.71v.14s.15-.12.15-.12l-.15-.03Z" fill="#fff"/><path d="M66.59,115.65c.08-.31.23-.55.59-.58-.09.3-.2.58-.59.58Z"/><path d="M66.42,115.79l.04-.17c.11-.43.34-.65.71-.68l.19-.02-.05.19c-.07.23-.19.67-.72.68h-.17ZM66.96,115.28c-.07.04-.12.11-.16.19.07-.04.12-.1.16-.19Z" fill="#fff"/></svg>