<?xml version="1.0" encoding="UTF-8"?><svg id="Layer_1" xmlns="http://www.w3.org/2000/svg" viewBox="0 0 144.57 144.57"><path d="M112.52,64.89c.02-.33-.27-.58-.59-.83-.6-.47-1.2-.94-1.79-1.41-.75-.6-1.56-1.1-2.37-1.6-1.1-.69-2.23-1.33-3.47-1.74-.14-.05-.28-.1-.41-.17-.82-.49-1.66-.94-2.45-1.48-1.28-.88-2.66-1.57-4.08-2.17-1.96-.82-3.97-1.55-6.08-1.95,0,0-2.07-.36-2.18-1.02,0-.04-.07-.42.07-.5.05-.03.11,0,.13,0,.39.02.79.11,1.17.06.79-.1,1.56-.02,2.34.05.15.01.29.02.44.01.36-.01.72-.03,1.08-.04.37,0,.58,0,1.18.03,1.49.08,1.07.03,3.3.15,1.07.06,1.61.09,1.9.13,2.76.37,4.87,1.7,6.65,2.21.49.14.78.22.78.22.42.11.85.22,1.27.34.17.04.33.13.49.14.21.01.44,0,.65-.06.34-.1.4-.46.13-.69-.2-.17-.39-.25-.44-.27-1.71-.47-3.25-1.44-4.94-1.96-3.05-.94-2.51-1.12-4.71-1.67-.82-.2-2.33-.53-4.13-.63-1.32-.08-2.64.04-3.97.07-.91.02-1.8.1-2.7.22-.97.13-1.95.16-2.93-.05-.64-.14-1.3-.24-1.96-.32-.43-.05-.8-.2-1.17-.4-.49-.27-.99-.53-1.49-.79-.09-.04-.19-.08-.14-.24.08-.02.17-.05.26-.06,1.14-.16,2.27-.39,3.39-.66.38-.09.76-.2,1.15-.23,1.07-.1,2.14-.21,3.23-.18.39.01.78-.07,1.17-.08.51-.02.72-.04,1.16-.08.45-.03.76-.07.93-.08,1.36-.13,1.79-.11,2.47-.19,1.49-.17,2.64-.64,3.1-.85.71-.33,1.4-.71,2.09-1.07.22-.11.45-.22.63-.37.14-.12.26-.29.34-.46.09-.19-.06-.42-.26-.44-.17-.02-.34-.01-.51.02-.96.2-1.92.4-2.87.61-1.1.24-2.2.48-3.34.51-.56.01-1.12.09-1.68.13-1.22.09-2.44.18-3.66.26-.24.02-.49,0-.73-.02-.29,0-.59-.04-.88-.02-.9.06-1.81.13-2.71.21-.29.02-.59.05-.87.13-1.06.31-2.13.57-3.14,1.01-.34.15-.69.21-1.06.27-.57.09-1.13.03-1.68-.04-.82-.1-1.66-.21-2.43-.53-1.04-.42-2.07-.88-3.1-1.34-.56-.25-1.11-.53-1.66-.79-.1-.05-.16-.1-.1-.27.19-.02.41-.06.62-.05.67.04,1.32-.08,1.97-.17.58-.08,1.16-.16,1.75-.24.19-.03.39-.04.58-.09,1.55-.35,3.13-.36,4.91-.76.1-.02.6-.16,1.62-.42,2.79-.73,3.02-.83,3.98-1.02,1.24-.25,2.11-.32,2.76-.4.39-.05.78-.09,1.17-.05,1.17.11,2.33.28,3.5.39.61.05,1.22.03,1.83.02.24,0,.42-.13.51-.36.06-.17-.08-.38-.33-.51-.04-.02-.09-.03-.14-.05-.38-.17-2.4-.87-3.48-1.15-1.98-.5-5.39-.48-8.49.09-1.27.23-2.1.49-3.9.69-.97.11-1.95.12-2.93.24-1.52.2-2.98.63-4.37,1.22-1.41.59-2.85.65-4.32.53-.24-.02-.49-.09-.7-.2-.81-.42-1.69-.65-2.54-.97-.46-.17-.91-.37-1.35-.57-.15-.07-.32-.14-.3-.36.04-.03.08-.07.12-.07.49-.02.98-.05,1.47-.03,1.08.06,2.15-.06,3.23-.17,1.52-.15,3-.48,4.46-.9,1.04-.29,2.08-.58,3.03-1.11.62-.35,1.28-.6,1.95-.84,1.38-.5,2.76-1.01,4.21-1.3.43-.08.87-.16,1.3-.24,1.46-.29,2.93-.59,4.39-.88.46-.09.92-.17,1.37-.27.18-.04.31-.15.31-.35,0-.18-.04-.34-.22-.43-.15-.07-.31-.18-.47-.2-.7-.05-1.39-.22-2.12-.15-1.24.13-2.49.22-3.73.3-1.2.07-2.4.1-3.6.16-.22,0-.44.04-.66.08-2.31.46-4.57,1.13-6.75,2.01-.89.35-1.79.67-2.68,1.01-.32.12-.65.22-.96.36-.83.38-1.69.64-2.56.92-.66.21-1.32.34-2.01.39-1.22.1-2.39-.2-3.57-.37-.16-.02-.31-.13-.47-.2-.45-.2-.88-.44-1.34-.59-.41-.13-.75-.36-1.1-.57-.4-.23-.77-.52-1.15-.79-.76-.54-1.44-1.18-2.02-1.91-.4-.5-.74-1.03-1.11-1.55-.94-1.35-1-1.33-1.55-2.13-1.11-1.6-2.37-3.09-3.38-4.75-.03-.04-.15-.18-.33-.28-.07-.04-.21-.03-.26.02-.06.05-.11.19-.07.26.13.26.3.5.45.75.14.22,0,.05.8,1.23.3.44.83,1.21,1.55,2.12.48.61.79.96,1.11,1.35,2.06,2.46,3.36,4.58,4.61,5.42.43.29.99.64.99.64.33.21.65.44,1,.61.55.27,1.37.75,2.5,1.06.52.14,1.8.48,3.42.29.19-.02,1.32-.12,2.2-.53.55-.26,1.12-.45,1.69-.67.23-.09.45-.21.69-.24.49-.07,2.74-1.02,3.41-1.32.69-.31,1.46-.42,2.11-.84.06-.04,1.57-.46,2.23-.72.43-.16.89-.29,1.35-.34,1.22-.14,2.43-.24,3.65-.34.46-.04.93-.02,1.39-.03,1.2-.03,2.4.03,3.58-.27.26-.06,1.73-.25,2.21-.22.14,0,.23.06.24.11.02.14-.71.33-.95.39-.38.1-.46.02-.86.18-.38.14-1.46.39-2.13.54-1.45.31-1.79.25-3.1.53-1.71.37-3.04.92-3.72,1.15-.55.19-1.11.39-1.62.68-.93.52-1.91.91-2.93,1.16-1.47.37-2.93.78-4.45.95-1.22.13-2.43.29-3.66.23-.61-.03-1.22.02-1.84.05-.24.01-.49.02-.72.24.03.14.02.33.11.45.14.19.33.36.53.5.6.39,1.25.67,1.93.88.87.26,1.72.56,2.53.98.15.08.32.13.48.17.94.23,1.9.22,2.85.09.95-.13,1.86-.43,2.72-.85.29-.14.57-.31.87-.38.83-.2,1.67-.39,2.51-.53.79-.14,1.6-.25,2.4-.3,1.15-.07,1.16-.14,1.44-.17,1.52-.19,2.62-.38,3.11-.47,4.51-.74,8.11-.26,8.87-.1.62.13,1.11.36,1.59.52.2.07.47.12.61.43-.2.02-.35.04-.49.04-.37-.01-.74-.03-1.1-.07-.44-.05-.87-.16-1.31-.21-1.07-.12-2.14-.2-3.22-.07-1.22.15-5.66,1.12-6.65,1.5-.71.27-1.45.45-2.21.54-.73.09-1.46.15-2.19.25-1.38.19-2.76.4-4.14.58-.61.08-1.22.12-1.83.14-.44.02-.88-.02-1.32-.04-.21,0-.41,0-.51.21-.09.2.04.38.15.54.38.52.91.86,1.51.98.57.11,1.07.32,1.56.6.25.14.53.24.81.36.36.15.73.28,1.09.45,1.44.69,2.96.97,4.55,1.01.8.02,1.55-.15,2.29-.43.39-.15.79-.25,1.19-.37.21-.06.43-.11.63-.19.48-.2.99-.28,1.5-.33.46-.05,2.71-.23,3.37-.19,1.06.06,2.1,0,3.15-.09.85-.07,1.71-.13,2.56-.21.9-.08,1.8-.15,2.7-.28.56-.08,1.1-.25,1.65-.38.38-.09.76-.19,1.15-.15,0,.18-.12.22-.23.27-.33.16-.67.3-.99.48-.75.43-1.56.7-2.42.83-.51.07-1.02.16-1.53.22-.75.08-1.51.18-2.27.22-1,.05-2.01.05-3.01.09-.71.03-1.43.02-2.13.12-1.21.17-2.42.37-3.62.62-.92.19-1.83.31-2.76.35-.47.02-.56.18-.41.6.07.18.18.28.34.36.38.18.76.35,1.13.53.44.21.9.37,1.35.56,1.25.51,1.08.47,1.27.53.19.06.55.07,2.68.41.31.05.61.08.92.1.85.04,1.44-.07,2.07-.16,1.62-.24,1.87-.07,4.51-.3.14-.01.42-.06.8-.04.54.03,1.07.12,1.61.13.25,0,1.53.22,2.3.4,2.74.62,10.06,3.54,9.97,3.76-.05.11-2.08-.59-2.97-.92-2.31-.85-2.79-1.33-4.6-1.75-1.06-.25-1.59-.37-2.3-.37,0,0-2.26-.03-2.79-.13-.04,0-.03,0-.05,0-1.15-.13-1.87-.04-2.59,0-.84.03-.56.09-2.2-.11-.65-.08-1.32-.02-1.98.02-1.05.06-1.39-.09-1.67.19-.18.18-.33.48-.26.75.06.23.24.36.49.51.81.49,1.6.76,2.27.97.33.1.58.18.77.23.52.14,1.06.21,1.55.41.7.28,1.26.38,2.23.73,1.28.47,2.25.82,3.41,1.43,1.22.65,1.18.81,2.73,1.65.26.14.32.17,2.28,1.13.73.36,1.96.96,3.42,1.75.48.26,1.17.64,1.77,1.15.18.15.29.26.41.37,1.24,1.17,2.37,1.92,2.34,1.96-.05.07-2.93-1.69-3.92-2.09-.32-.13-.48-.19-.48-.19-.43-.17-.88-.31-1.3-.51-.58-.27-1.14-.56-1.71-.86-.63-.33-1.26-.66-1.88-1.01-.72-.41-1.43-.84-2.15-1.26-.11-.06-.22-.1-.33-.16-.31-.15-.63-.28-.92-.44-.83-.47-1.72-.83-2.62-1.16-.8-.29-1.64-.51-2.45-.78-.97-.33-1.95-.66-2.9-1.05-.72-.3-1.44-.62-2.06-1.11-.34-.27-.73-.49-1.11-.72-.55-.33-1.13-.58-1.64-.98-.31-.24-.57-.18-.81.13-.18.25-.16.52-.03.76.14.28.32.55.48.82.21.36.45.7.61,1.08.41.97.8,1.95,1.26,2.9.2.42.45.82.74,1.18.35.44.73.86,1.09,1.29.17.21.31.45.51.62.2.18.67.74,1.39,1.31.74.58.69.38,1.52,1.01.38.29.69.46.72.48,1.2.81,1.88,1.68,3.88,3.48.55.49,1.09.99,1.62,1.49.23.22.46.43.69.66.06.06.16.13.02.24-.79-.4-1.54-.85-2.18-1.47-.39-.37-.8-.73-1.19-1.1-1.23-1.17-2.53-2.24-4.01-3.08-.3-.17-.59-.35-.85-.57-.71-.6-1.4-1.22-2.09-1.85-1.14-1.04-2.11-2.25-3.17-3.37-.15-.16-.26-.36-.38-.54-.64-.99-1.04-2.1-1.53-3.16-.17-.38-.38-.74-.52-1.13-.21-.59-.57-1.08-.95-1.56-.62-.79-1.49-1.26-2.33-1.76-.25-.15-.52-.28-.79-.4-.47-.2-.95-.38-1.44-.56-.16-.06-.33-.09-.5-.1-.19-.01-.31.14-.32.33,0,.23.08.42.24.59.31.35.64.69.89,1.07.71,1.1,1.18,2.31,1.66,3.51.16.41.33.82.46,1.24.02.05.53,1.35,1.27,2.95.16.35.4.86.8,1.48.04.07.08.08.2.3.58,1.02,1.12,2.07,2.05,2.84.07.06.14.14.2.22.59.78,1.15,1.58,1.64,2.43.18.32.32.64.4,1-.34.09-.48-.16-.65-.3-.26-.22-.48-.5-.76-.69-.99-.66-1.82-1.48-2.51-2.44-.27-.38-.54-.76-.79-1.15-.6-.9-1.16-1.82-1.59-2.81-.1-.24-.15-.35-.36-.87-.74-1.84-.66-1.6-1.58-3.88-.76-1.89-.94-2.44-1.46-3.36-.2-.36-.42-.72-.62-1.09-.5-.94-1.21-1.73-1.96-2.46-.95-.92-2.04-1.68-3.15-2.39-.42-.27-.89-.4-1.34-.59-.2-.09-.38,0-.53.14-.21.21-.18.43-.05.67.1.2,1.56,2.5,1.74,2.72.08.09.16.19.23.28.33.42.68.84,1,1.27.28.37.58.73.79,1.14.16.31.76,1.24,1.14,2.46.38,1.22.13,1.29.51,3.22.27,1.33.6,2.37.51,2.4-.04.01-.21-.27-.55-.85-.08-.14-.15-.26-.17-.29-.74-1.65-1.32-3.37-2.06-5.02-.52-1.16-1.05-2.3-1.83-3.33-.59-.78-1.13-1.6-1.63-2.44-.56-.95-1.17-1.87-1.82-2.75-.73-1-1.62-1.83-2.78-2.34-1.02-.45-1.28-.37-1.99-.94-.43-.34-.83-.79-1.63-1.1-.29-.11-.32-.08-.62-.18-1.01-.33-1.45-.93-2.44-1.69-.19-.15-.65-.43-1.56-1.01-1.79-1.13-2.54-1.52-2.77-1.75-.13-.13-.28-.26-.55-.22.08.42.2.82.39,1.17.58,1.05,1.2,2.08,1.8,3.11.02.04.06.08.09.12.47.81,1.18,1.43,1.77,2.16.21.26.31.51.21.8-.11.3-.05.57,0,.86.15.79.54,1.46.99,2.11.33.48.65.98.93,1.5.44.82.85,1.65,1.28,2.48.03.06.1.1.15.16,0,0,0,0-.01,0-.11-.02-.27,0-.34-.07-.3-.29-.61-.57-.85-.91-.38-.54-.72-1.11-1.05-1.68-.3-.53-.56-1.09-.85-1.63-.22-.42-.66-.86-1.1-1.11.05.12.09.21.12.29.19.48.4.95.56,1.43.15.44.25.9.36,1.35.07.28.15.57.22.85.01.06-.04.18-.08.18-.08,0-.19,0-.26-.06-.07-.06-.11-.16-.15-.25-.2-.47-.4-.95-.6-1.42-.41-.92-.81-1.83-1.24-2.74-.35-.75-.74-1.49-1.08-2.25-.51-1.14-.94-2.31-1.64-3.35-.1-.14-.19-.42-.31-.4-.36.04-.4,2.46-.4,2.58,0,.09.05.4.02.88-.07,1.16.02,2.3.49,3.38.2.47.44.93.66,1.39.15.31.32.52.37.59.79,1.16,1.4,1.45,1.8,2.44.06.15.1.27.11.33-.24.25-.45.48-.69.73-.08-.07-.15-.13-.21-.2-.28-.37-.55-.75-.84-1.11-.56-.69-1.01-1.44-1.3-2.28-.06-.18-.15-.36-.26-.53-.04-.07-.17-.14-.23-.12-.1.03-.19.12-.26.21-.04.05-.02.14-.03.21-.02.22-.04.44-.06.66-.07.83-.15,1.65-.22,2.48-.06.71-.15,1.01-.19,1.3-.18,1.4.45,2.67.79,3.34.66,1.32,1.37,2.23,3.13,3.55.82.62,1.62,1.25,2.29,2.04.54.63,1.12,1.23,1.68,1.85.13.14.24.31.33.48.5.9,1,1.8,1.48,2.71.09.16.12.36.19.55-.18.11-.32.21-.47.29-.14.08-.3.13-.41.18-.37-.52-.69-1.01-1.04-1.48-.3-.41-.65-.8-.93-1.22-.26-.39-.58-.73-.95-1.01-.41-.32-.74-.7-1.06-1.11-.26-.33-.54-.63-.82-.94-.16-.18-.36-.34-.51-.53-.75-1.01-1.71-1.81-2.61-2.68-.39-.37-.77-.75-1.17-1.11-.38-.34-.96-.18-1.01.32-.06.59-.26,1.14-.35,1.72-.11.78-.17,1.56-.29,2.33-.1.67,0,1.32.1,1.97.08.47.44.8.53.91.12.16.28.34.93.92.33.29.56.37.77.67.59.85,1.36,1.53,2.09,2.26.9.9,1.73,1.86,2.58,2.81.52.59,1.04,1.18,1.48,1.82.93,1.33,1.62,2.79,2.25,4.29.55,1.33,1.06,2.69,2.03,3.81.05.06.06.17.12.36-.21-.17-.32-.31-.46-.38-.68-.34-1.16-.88-1.6-1.48-.73-.98-1.49-1.93-2.37-2.8-.55-.54-2.09-3.5-2.63-4.2-.06-.08-.11-.16-.16-.25-.43-.77-.86-1.54-1.29-2.3-.46-.81-1-1.57-1.62-2.26-.36-.4-.71-.81-1.08-1.2-.18-.19-.38-.39-.6-.53-.39-.24-.82-.43-1.21-.64-.39.11-.53.36-.53.72,0,.78-.02,1.57-.21,2.34-.14.55-.17,1.11-.16,1.68,0,.29.02.59-.03.88-.13.79.04,1.51.4,2.2.22.43.49.84.73,1.27.18.32.39.61.67.87.67.61,1.25,1.3,1.82,2.01.59.75,1.27,1.42,1.92,2.11.29.3.6.58.91.86.2.18.42.34.62.51.3.25.62.48.9.75,1,.93,1.97,1.91,3,2.81.76.66,1.5,1.32,2.09,2.15.38.54.67,1.06,1.09,1.81.57,1.03.83,1.65.93,1.9.33.8.26.61.43,1.17.13.44.24.9.34,1.35,0,.04-.03.09-.07.17-.08-.04-.19-.06-.24-.12-.33-.42-.71-.82-.98-1.28-.72-1.25-1.45-2.5-2.26-3.7-.39-.57-.83-1.09-1.32-1.57-.28-.27-.59-.53-.82-.84-.92-1.2-2.07-2.15-3.25-3.07-.62-.48-1.18-1.03-1.74-1.57-.37-.36-.78-.66-1.15-1.02-.58-.57-1.07-1.2-1.55-1.86-.55-.76-1.03-1.55-1.44-2.39-.21-.43-.5-.78-.85-1.09-.13-.11-.27-.21-.42-.3-.22-.12-.42-.07-.57.15-.16.22-.24.47-.27.75-.03.29-.11.58-.16.86-.14.69-.3,1.38-.42,2.08-.04.24-.02.49-.01.73.02.39.08.78.06,1.17-.02.75.14,1.47.37,2.16.26.79.62,1.3,1.19,2.07.98,1.33,1.98,2.24,3.39,3.52.5.45.86.66,1.45,1.33.45.51,1,.92,1.47,1.42.21.23.83.65,2.02,1.54,1.04.78,1.57,1.16,1.97,1.49.51.42,1.56,1.29,2.65,2.57.77.9.5.62,1.73,2.37.79,1.12,1.42,2.35,2.26,3.44.2.26.31.65.32,1.03-.48-.56-.92-1.08-1.36-1.61-.79-.97-1.68-1.85-2.4-2.87-.32-.46-.72-.86-1.1-1.28-.36-.4-.72-.8-1.09-1.19-.2-.22-.39-.44-.62-.63-.37-.31-.77-.6-1.16-.9-.33-.25-.65-.52-1-.74-1.04-.65-2.02-1.38-2.88-2.26-.17-.18-.35-.34-.55-.49-1.19-.87-1.77-1.4-2.49-1.95-1.51-1.16-3.29-2.83-3.46-2.68,0,0-.05.05-.08.11-.05.08-.07.16-.08.24,0,.12.04.21.05.25.21.44.28,1.28,1.32,3.17.34.61.72,1.26,1.33,2.06.33.44.69.86,1.07,1.26.32.34.65.67.93,1.04.77.99,1.37,2.08,1.86,3.24.36.86.69,1.73,1.09,2.57.34.71.63,1.45.95,2.17.34.77.46.85.82,1.62.3.65.36.84.64,1.38.23.43.5.86.63,1.08.15.25.31.5.47.74.2.31.4.62.59.93.07.11.09.22-.06.34-.07-.04-.16-.07-.23-.12-.44-.35-.85-.74-1.18-1.2-.48-.68-.95-1.37-1.47-2.02-.81-1.01-1.57-2.06-2.27-3.15-1.2-1.88-2.12-3.87-2.72-6-.48-1.68-1.3-3.16-2.29-4.56-.1-.14-.23-.26-.36-.36-.13-.11-.42-.07-.54.06-.09.1-.04.26-.02.34.16.62.6,1.75.68,1.94.31,1.43.44,2.13.5,2.5.02.11.04.23.08.43.08.43.19.86.23,1.3.05.53.08,1.05.01,1.6-.21,1.67.37,4.73.52,5.48.08.41.19.85.39,1.34.11.27.22.46.24.54.25,1,.74,1.91,1.07,2.89.36,1.06.79,2.11,1.19,3.16.1.28,1.43,2.09,1.54,2.95.06.48.15.97.22,1.45.01.09-.03.18-.04.25-.21.05-.32-.05-.39-.18-.12-.21-.22-.44-.32-.66-.39-.79-.79-1.58-1.18-2.37-.12-.24-.22-.49-.32-.74-.3-.77-.61-1.54-1.14-2.21-.33-.42-.62-.88-.86-1.36-.56-1.12-.92-2.32-1.13-3.56-.02-.12-.02-.25-.06-.36-.43-1.54-.68-3.11-.84-4.69-.05-.46-.09-.93-.11-1.39-.04-1.54-.12-3.08-.34-4.61-.09-.63-.17-1.26-.25-1.89-.04-.32-.03-.64-.09-.95-.1-.55-.23-1.1-.36-1.65-.05-.19-.12-.37-.21-.54-.08-.16-.23-.25-.43-.24-.22.02-.37.13-.43.34-.08.33-.19.67-.21,1-.05.77-.31,1.48-.53,2.2-.24.8-.52,1.58-.77,2.37-.11.35-.18.71-.27,1.07-.09.33-.19.66-.27.99-.24,1-.35,2.03-.72,3-.14.36-.32.71-.47,1.08-.36.87-.46,1.8-.61,2.71-.03.17-.07.33-.11.49-.06.24-.15.47-.18.71-.15,1.19-.29,2.38-.44,3.57-.01.1-.42,1.64-.42,2.35,0,.05-.04.11-.08.19-.05-.08-.09-.12-.1-.16-.08-.56-.12-1.12-.02-1.68.2-1.11.42-2.21.44-3.34,0-.34.06-.68.09-1.02.04-.44.11-.88.12-1.32.02-.91.02-1.81.24-2.7.03-.14.11-1.56.28-2.1.14-.44.27-.89.4-1.34.21-.75.44-1.5.63-2.26.17-.72.38-1.42.67-2.1.25-.58.49-1.18.74-1.76.13-.32.28-.63.41-.94.19-.45.38-.9.56-1.36.1-.25.16-.52.29-.75.56-1.02.65-2.16.75-3.27.07-.76.12-1.51.25-2.26.1-.57,0-1.12-.18-1.66-.06-.19-.11-.35-.22-.37-.23-.05-.54.53-.8,1-.5.91-1.12,1.86-1.52,2.51-.45.73-.93,1.44-1.48,2.1-.14.17-.22.38-.34.56-.2.31-.37.65-.61.91-.49.53-.69.91-.93,1.22,0,0-.5.65-1.17,1.85-.88,1.59-.61,2.28-1.47,4.37-.76,1.85-2.07,3.95-2.5,5.14-.02.05-.08.23-.19.48-.19.44-.35.9-.64,1.32-.17-.3-.19-.31-.12-.55.26-.95.48-1.9.9-2.79.53-1.11.91-2.27,1.14-3.48.27-1.37.78-2.67,1.35-3.95.81-1.82,1.81-3.53,2.88-5.2.28-.43.63-.81.94-1.22.64-.84,1.26-1.69,1.91-2.51.94-1.21,1.76-2.48,2.19-3.96.11-.38.24-.75.34-1.13.26-1.07.53-2.14.6-3.24.07-1.04.06-.86.18-1.68.22-1.56.49-2.2.26-2.34-.3-.18-1.16.72-1.34.91-.73.77-.66,1.32-1.51,2.25-.49.54-.91,1.16-1.41,1.69-.63.66-1.06,1.46-1.59,2.19-.26.35-.47.74-.71,1.11-.33.51-.69,1.01-.9,1.59-.12.34-.34.64-.52.96-.57.99-.96,1.71-1.11,1.98-1.1,1.92-1.39,3.1-2.8,5.45,0,0-.9,1.73-3.47,3.41-.1.06-.22.12-.35-.04.3-.94.72-1.85,1.27-2.69.27-.41.55-.82.77-1.25.52-.98,1.15-1.88,1.93-2.67.24-.24.47-.5.67-.78,1.15-1.52,1.97-3.22,2.6-5,.46-1.3,1.06-2.53,1.76-3.71.09-.15.19-.29.3-.42,1.17-1.39,2.47-2.65,3.79-3.89.36-.33.7-.69,1-1.08.6-.8,1.16-1.64,1.75-2.45.33-.45.5-.95.6-1.48.06-.31.1-.63.14-.94.21-1.7.49-3.39.97-5.04.03-.12.05-.24.06-.36.01-.14-.16-.26-.31-.24-.17.02-.26.12-.32.26-.13.32-.29.63-.38.95-.29,1.01-.88,1.85-1.45,2.71-.46.69-1.03,1.31-1.55,1.95-.14.17-.29.33-.45.49-.62.6-1.33,1.07-2.04,1.55-1.04.7-2.1,1.35-3.07,2.14-.28.23-.56.48-.86.68-.17.11-.61.53-.98.93-.68.73-1.06,1.43-1.48,2.22-.57,1.07-.38.91-.95,2.06-.38.76-.81,1.51-1.22,2.26-.14.26-.29.52-.38.79-.16.47-.41.88-.69,1.29-.11.16-.23.32-.34.48-.35.53-.7,1.06-1.05,1.59-.05.08-.11.18-.25.05.09-.32.23-.62.4-.92.33-.57.65-1.15.96-1.73,0,0,.37-.68.7-1.46.48-1.15.38-1.35.89-2.79.35-1.01.66-1.8.88-2.17.32-.52.56-1.09.81-1.64.44-.94.71-1.38.95-1.74.43-.65.84-1.06,1.66-1.86.38-.37,1.22-1.22,2.43-2.11.77-.57,1.61-1.02,2.35-1.63.09-.08.2-.14.31-.19.73-.36,1.36-.87,1.98-1.38.77-.63,1.39-1.37,1.81-2.28.21-.47.44-.93.7-1.37.4-.67.49-1.28.61-1.64,1.2-3.93,1.77-8.44,1.9-8.89,0,0,.02-.13.03-.29.01-.18-.05-.34-.21-.44-.19-.11-.32.02-.48.14-.06.29-1.57,1.95-2.14,2.57-.6.65-1.19,1.3-1.84,1.9-1.07,1-2.22,1.93-3.18,3.05-.22.26-.45.51-.67.77-.46.54-.97,1.05-1.38,1.63-.75,1.06-1.44,2.16-2.16,3.24-.08.12-.15.25-.24.37-.38.51-.77,1.01-1.13,1.54-.33.48-.25.39-1.24,1.9-.83,1.26-1.52,2.25-2.17,2.93-.3.32-.29.31-.57.57-.29.26-.59.51-.88.77-.01,0-.05,0-.12-.02.02-.11.02-.23.07-.33.37-.75.74-1.49,1.12-2.23.29-.57.6-1.13.9-1.69.46-.86.91-1.73,1.4-2.58.36-.64.79-1.24,1.15-1.88.76-1.37,1.6-2.69,2.46-4,1.11-1.7,2.43-3.19,4.13-4.32.92-.61,1.8-1.27,2.7-1.91.14-.1.26-.23.39-.34.22-.19.44-.38.68-.56.98-.75,1.87-1.58,2.47-2.68.09-.17.18-.35.29-.51.67-.92.93-1.99,1.1-3.08.12-.8.16-1.61.23-2.41.01-.12.03-.24.02-.37-.01-.18-.12-.32-.29-.39-.14-.06-.32.02-.43.19-.08.12-.13.26-.21.39-.43.69-.84,1.38-1.29,2.05-.15.22-.34.42-.55.59-.32.27-.67.49-1,.75-.48.37-.96.75-1.51,1.04-.34.18-.65.43-.97.66-.77.53-1.48,1.13-2.31,1.57-.13.07-.24.17-.34.27-.68.67-1.38,1.32-2.03,2.02-.67.72-1.29,1.47-1.74,2.36-.2.39-.47.74-.73,1.1-.61.83-1.15,1.7-1.59,2.63-.1.22-.21.44-.35.65-.9,1.33-1.08,1.48-1.82,2.67-.55.88-.92,1.7-1.57,2.54-.1.13-.22.28-.22.28-.46.58-.85,1.02-1.12,1.32.19-.8.42-1.41.62-1.83.21-.47.54-1.05.98-1.89.06-.11.11-.22.17-.32.74-1.18,1.49-2.36,2.23-3.55.28-.46.57-.91.82-1.39.74-1.44,1.45-2.89,2.2-4.32.5-.96,1.12-1.84,1.93-2.57.49-.44.99-.88,1.49-1.3.75-.63,1.49-1.28,2.26-1.87.85-.65,1.74-1.27,2.62-1.88,1.13-.79,2.13-1.73,3.13-2.66.2-.18.45-.49.71-.93.2-.34.68-1.13.66-2.04,0-.35-.29-.88-.81-1.97-.44-.93-.9-1.85-1.51-2.68-.63-.85-1.26-1.69-2.05-2.39-.14-.13-.31-.24-.48-.32-.08-.04-.21.01-.34.02.26.64.29.62.7,1.06.49.51.97,1.04,1.38,1.61.68.95,1.15,1.78,1.98,3.51.6,1.25.7,1.63.6,2.07-.12.53-.47.84-1.09,1.4-2.59,2.34-1.99,1.91-2.55,2.32-1,.75-2.01,1.48-3.01,2.22-.14.1-2.35,1.75-2.83,2.27-.35.37-.74.71-1.12,1.06-.39.37-.8.72-1.17,1.11-.25.26-1.33,2.16-1.48,2.44-.19.34-.39.68-.56,1.03-.39.79-.87,1.53-1.21,2.35-.27.65-1.65,3.15-2.06,3.74-.61,1-1.08,1.74-1.33,2.15,0,0-.88,1.4-1.53,3.19-.02.04-.09.31-.09.65,0,.31.2.49.47.59.24.09.42-.03.57-.21.11-.13.19-.23.19-.23.86-1.36,1.83-2.65,2.7-4.01.31-.49.47-.73.59-.92.6-.92,1.22-1.83,1.8-2.76.32-.52.58-1.08.89-1.6.26-.44.52-.89.84-1.29.36-.44.65-.92.95-1.4.12-.19.22-.39.35-.56.71-.91,1.52-1.72,2.35-2.53.92-.9,2.03-1.53,3.06-2.28,1.03-.75,2.1-1.43,3.13-2.18.66-.48,1.24-1.03,1.7-1.71.06-.09.15-.17.26-.3.04.13.08.19.08.25.05.88-.19,1.7-.5,2.5-.63,1.64-1.69,2.97-2.99,4.12-.2.18-.44.31-.63.5-.63.66-1.4,1.14-2.14,1.66-1.12.79-2.31,1.49-3.26,2.49-.42.44-.8.93-1.16,1.42-.41.55-1.49,2.32-1.68,2.53-.18.2-.34.42-.49.64-.34.54-.71,1.06-1,1.63-.27.51-2.55,4.57-2.6,4.65-.14.23-.7,1.59-.96,1.97-.34.48-.59,1-.84,1.53-.25.53-.48,1.07-.71,1.6-.02.04-.03.09-.03.14-.04.27.24.67.51.72.07.01.15,0,.21-.04.1-.06.19-.15.29-.22.59-.48,1.09-1.05,1.6-1.61.66-.73,1.25-1.51,1.78-2.33.68-1.05,1.34-2.11,2.02-3.15.42-.63.87-1.24,1.3-1.87.89-1.26,1.7-2.57,2.71-3.75.65-.76,1.27-1.55,2.01-2.23.69-.62,1.38-1.25,2.06-1.88.45-.41.92-.81,1.35-1.23.59-.58,1.16-1.19,1.74-1.78.15-.15.32-.28.53-.47.03.12.04.23.04.33,0,.16-.03.28-.04.31-.14.54-.3,3.91-1.6,7.41-.49,1.33-.97,2.09-1.14,2.46-.39.82-1,1.44-1.6,2.08-.39.42-.88.7-1.34,1.01-1.43.95-2.52,1.66-2.7,1.78-.88.56-4.03,2.57-5.14,4.93-.13.28-.44.95-.94,1.98-.22.46-.48.91-.7,1.37-.13.28-.41.85-.65,1.47-.55,1.43-.37,1.79-.92,3.09-.08.19-.25.53-.6,1.2-.86,1.63-1.28,2.44-1.3,2.46,0,0-.36.53-.48,1.3-.05.29.13.46.34.6.21.15.5.15.68-.02.22-.21.38-.42.42-.51.37-.88.66-.67,2.05-3.39.27-.54.31-.8.85-1.7.18-.29.32-.61.47-.91.38-.79.75-1.6,1.14-2.39.46-.93,1.05-1.77,1.67-2.59.31-.41.69-.76,1.13-1.04.22-.15.42-.34.63-.51.19-.16.36-.33.56-.47.6-.42,1.21-.83,1.82-1.24.63-.43,1.27-.84,1.88-1.29.43-.32.86-.66,1.21-1.07.71-.84,1.37-1.72,2.05-2.59.07-.08.11-.22.28-.15-.02.36-.04.73-.05,1.09-.01.29,0,.59-.04.87-.04.31-.16.62-.18.93-.03.49-.24.89-.48,1.29-.63,1.06-1.14,1.89-1.38,2.16-.34.4-.64.69-1.18,1.2-.43.41-.76.67-.93.84-.89.89-1.71,1.7-2.11,2.15-1.39,1.59-2.09,2.38-2.51,3.49-.21.57-.42,1.11-.75,1.91-.14.34-.32.66-.45,1-.17.44-1.53,2.97-1.63,3.19-.72,1.59-2.01,2.45-3.23,4.26-.28.42-1.77,3.61-2.13,4.46-.1.24.11.41.28.55.15.13.33.09.47-.03.5-.39,1.03-.76,1.48-1.2.64-.64,1.28-1.27,1.97-1.87.4-.34.73-.75.94-1.21.44-.93.92-1.53,1.33-2.37.34-.69.68-1.47,1.1-2.42.08-.18.17-.38.3-.66.24-.51.52-1,.79-1.49.21-.38.47-.75.66-1.14.72-1.48,1.57-2.88,2.59-4.17.68-.86,1.44-1.66,2.13-2.53.53-.67,1.14-1.28,1.54-2.05.01-.03.08-.02.14-.04,0,.08,0,.15-.01.22-.09.58-.25,1.15-.27,1.74-.02.74-.06,1.46-.22,2.18-.31,1.39-.59,2.47-.9,3.25-.2.5-.81,1.96-2.05,3.61-.17.23-.25.31-.48.58-1.23,1.46-3.28,3.95-4.74,7.32-.2.45-.31.77-.49,1.22-1.27,3.29-1.72,5.31-2.41,6.96-.02.06-.24.49-.42,1.1-.13.42-.23.85-.37,1.27-.05.15-.08.38-.12.62-.07.54-.15,1.73.13,1.82.3.1.93-1.03,1.87-2.74.85-1.54,1.23-2.8,2.13-4.36.4-.69.62-1.43.78-2.2.23-1.14.63-2.21,1.18-3.23.48-.89,1.01-1.73,1.62-2.53.59-.78,1.19-1.55,1.77-2.34.45-.61.91-1.21,1.32-1.84.39-.59.72-1.22,1.08-1.83.06-.1.11-.23.29-.18.12.26-.03.52-.07.78-.18,1.06-.16,2.15-.37,3.21-.12.64-.29,1.1-.61,2.03-.12.36-.06.15-.63,1.71-.37,1.02-.56,1.54-.89,2.3-.13.29-.13.27-.21.46-.38.91-.54,1.62-.6,1.88-.53,2.26-1.48,3.22-1.62,5.96-.01.2.01.4-.04.58-.29,1.08-.52,4.82-.49,5.44.01.26-.06.53-.1.8-.04.24-.08.48-.13.72-.18.94-.2,1.9-.27,2.85-.04.59.11,1.11.3,1.64.13.34.47.45.78.27.19-.11.26-.29.28-.49.05-.49.09-.97.14-1.46.04-.39.51-2.84.61-3.69.13-1.04.22-2.09.48-3.12.05-.19.08-.39.1-.58.09-.89.34-1.72.69-2.54.18-.43.37-.86.49-1.3.43-1.68.81-3.38,1.24-5.06.21-.8.47-1.59.73-2.38.15-.46.38-.9.43-1.4.01-.1.05-.24.24-.23.07.35.15.7.22,1.06.03.14.49,4,.49,4.59,0,.25.13,3.46.22,4.04.09.56.16,1.11.23,1.67.05.43.15.87.23,1.3.01.07.49,2.34.57,2.75.32,1.63.91,3.14,1.93,4.47.19.25.35.53.49.82.53,1.1,1.03,2.22,1.57,3.32.31.64.64,1.27,1,1.88.38.65.8.8,1.54.64.18-.27.12-.58.04-.85-.28-.96-.51-1.94-.98-2.84-.15-.28-.35-.53-.47-.82-.41-.94-.83-1.88-1.18-2.85-.34-.95-.72-1.87-1.13-2.79-.28-.62-.61-1.25-.76-1.91-.21-.9-.48-1.8-.56-2.73-.1-1.15-.23-2.29-.19-3.44.03-.78.03-1.57-.12-2.34-.13-.67-.22-1.35-.35-2.03-.11-.58-.26-1.14-.4-1.71-.05-.19-.13-.37-.17-.56-.02-.09-.14-.22.05-.3.14.18.29.34.4.53.25.45.49.91.72,1.36.03.06.04.14.06.21.3,1.45.92,2.78,1.45,4.15.06.16.15.31.23.46.29.51.55,1.03.8,1.56.17.35.39.68.59,1.01.14.23.28.46.43.68.29.43.56.86.87,1.27.73.98,1.51,1.93,2.2,2.94.49.72,1.12,1.29,1.73,1.89.32.31.71.42,1.15.4.31-.01.46-.18.4-.47-.03-.14-.07-.29-.15-.41-.32-.52-.64-1.04-.97-1.56-.1-.16-.22-.32-.33-.48-1-1.43-1.74-2.99-2.23-4.05-.11-.23-.2-.43-.2-.43-.19-.41-.36-.83-.54-1.24-.11-.25-.25-.48-.33-.74-.49-1.47-1.25-2.82-1.98-4.18-.35-.65-.71-1.28-1.22-1.82-.33-.36-.66-.72-.99-1.08-.99-1.07-1.73-2.31-2.36-3.61-.21-.43-.27-.87-.24-1.28.12.05.24.08.32.15,1.03.79,1.8,1.23,2.76,2.07.37.33.81.68,1.69,1.39,1.28,1.04,1.93,1.55,2.36,1.83,1.72,1.15,1.83,1.19,2.6,1.91.19.18.63.67,1.51,1.65.54.61,1.06,1.19,1.6,1.81.89,1.02,1.34,1.53,1.65,1.91.9,1.09,2.71,3.41,3.37,3.41.37,0,.49-.17.49-.17.12-.2.04-.37-.04-.55-.36-.89-.93-1.66-1.43-2.47-.34-.56-.71-1.12-1.08-1.66-.54-.79-.99-1.46-1.53-2.16,0,0-1.83-2.35-4.35-4.31-.07-.05-.37-.28-.78-.61-.33-.26-.58-.48-1.8-1.46-.36-.29-.73-.58-1.06-.9-.43-.4-.81-.85-1.24-1.25-.95-.88-1.93-1.74-2.89-2.61-.32-.3-.5-.57-.9-1.06-.93-1.13-1.4-1.72-1.79-2.57-.27-.6-.39-1.09-.43-1.24-.16-.62-.18-1.26-.2-1.89-.01-.49-.02-.98.06-1.46.12-.8.32-1.58.48-2.37.01-.07.08-.12.13-.2.09.04.19.06.27.12.4.29.69.67.91,1.13.34.71.99,1.6,2.38,3.33,1.18,1.47,2.46,2.52,3.06,3,.74.6,1.1.91,1.94,1.6.28.23,1.41,1.44,1.69,1.81.33.44,1.84,2.2,2.3,2.68.08.09.17.18.22.29.52.94,1.04,1.89,1.54,2.84.21.4.45.76.77,1.07.14.13.25.3.4.43.29.25.59.51.91.73.15.1.37.16.55.02.19-.15.27-.35.19-.59-.06-.19-.15-.36-.22-.54-.1-.27-.25-.54-.29-.83-.11-.76-.45-1.45-.74-2.14-.39-.92-.85-1.82-1.28-2.72-.05-.11-.13-.21-.2-.3-.33-.45-.68-.9-1-1.37-.26-.39-.57-.73-.93-1.03-.39-.33-.78-.67-1.16-1.01-.78-.7-1.55-1.42-2.35-2.11-1.02-.88-2.03-1.77-2.96-2.74-1-1.04-2.03-2.05-2.95-3.17-.64-.78-1.27-1.55-1.73-2.45-.26-.52-.41-1.04-.37-1.62.02-.32.02-.64.03-.96.01-.39,0-.79.04-1.17.09-.83.21-1.65.33-2.48.02-.13.07-.26.11-.39.58.12.7.16,1.06.53.77.79,1.56,1.56,2.2,2.46.28.39.62.75.76,1.23.04.12.11.22.17.33.26.52,1.47,2.85,2.49,4.46,1.23,1.94,2.49,3.27,3.21,4.03,1.35,1.42,3.58,3.48,3.94,3.18.27-.22-.56-1.71-.76-2.07-.36-.65-.67-.9-.93-1.41-.47-.91-.93-1.83-1.3-2.8-.54-1.4-1.31-2.68-2.14-3.92-.38-.56-.86-1.06-1.3-1.58-.92-1.08-1.91-2.09-2.87-3.14-.1-.11-.18-.23-.3-.32-.45-.35-.79-.79-1.17-1.21-.39-.44-.77-.88-1.23-1.26-.5-.41-.84-.96-1-1.59-.07-.28-.12-.57-.16-.86-.03-.24-.06-.49-.03-.73.11-.92.23-1.84.38-2.76.05-.32.07-.68.38-.94.1.06.19.1.25.17,1.04.94,2.08,1.86,2.97,2.94.51.63,1.09,1.2,1.61,1.81.36.43.77.82,1.18,1.21.5.46,1.01.94,1.42,1.48.4.52.72,1.1,1.16,1.61.13.15.21.32.24.49.03.22-.05.4-.07.46-.21.52-.37,1.65-.22,2.46.11.62.41,1.06.58,1.31.21.3.63.89,1.39,1.18.11.04.19.08.35.11.48.09.96.16,1.49.25.75,1.96,1.49,3.92,2.24,5.88-.14.15-.24.29-.37.4-.65.52-.8,1.2-.66,1.97.04.19.09.38.11.58.06.48.3.88.62,1.22.46.47.95.92,1.51,1.28.42.27.87.43,1.35.54.11.03.25,0,.31.17-.11.25-.28.5-.35.78-.3,1.15-.35,2.27.48,3.26.06.07.12.16.17.24.51.85,1.29,1.31,2.21,1.59.3.09.61.18.92.25.21.05.36.14.42.33-.27.39-.6.74-.78,1.15-.35.78-.59,1.61-.57,2.49,0,.24.05.49.12.72.28.97.82,1.76,1.66,2.35.59.41,1.22.73,1.9.94.39.12.79.2,1.22.3-.06.11-.08.18-.13.23-.3.29-.59.58-.91.85-.12.1-.23.2-.32.32,0,0-.06.08-.12.16-.12.18-.72,1.53-.13,3.35.23.72.56,1.21.63,1.32.28.42.8,1.36,1.81,1.62.94.24,1.9.49,2.9.35.25-.03.43.07.56.26.1.14.18.29.26.44.19.37.38.74.57,1.11.08.15.17.3.27.43.03.05.13.08.19.06.04-.01.08-.11.08-.17,0-.07-.03-.14-.06-.21-.18-.45-.36-.91-.54-1.36-.09-.23-.17-.45-.26-.68-.06-.15-.15-.29-.23-.44.18-.2.34-.35.48-.52.11-.13.21-.27.27-.43.58-1.47.65-2.96.17-4.46-.42-1.35-1.36-2.17-2.76-2.46-.24-.05-.47-.13-.71-.18-.25-.05-.52-.03-.85-.18.37-.45.59-.88.73-1.19.3-.68.37-1.25.41-1.55.02-.13.15-.54.03-1.09-.17-.8-.32-1.59-.49-2.42,1.1.47,2.2.85,3.41.51.25.11.34.34.44.56.13.29.26.58.4.87.06.13.15.26.24.37.1.12.24.17.4.11.15-.07.22-.2.22-.35,0-.12,0-.25-.04-.36-.13-.31-.27-.63-.43-.92-.13-.23-.31-.44-.45-.64.01-.05,0-.08.02-.1.04-.06.07-.13.12-.18.43-.5.7-1.03.84-1.58.29-1.16-.16-2.34-.19-2.41-.55-1.16-1.61-1.63-2.03-1.82-.41-.18-.86-.29-.9-.3-.35-.08-.72-.09-1.08-.13-.17-.17-.25-.37-.32-.58-.24-.71-.52-1.41-.75-2.13-.17-.53-.38-1.05-.57-1.57-.12-.33-.19-.65-.04-1,.31-.7.42-1.43.4-2.22-.03-1.1-.46-1.93-1.4-2.5-.31-.19-.44-.34-.67-.44-.5-.22-.99-.18-1.29-.12-.26-.61-.55-1.23-.79-1.87-.3-.79-.21-.77-.5-1.61-.12-.36-.56-1.63-1.2-2.84-.07-.13-.18-.37-.34-.69-.14-.28-.32-.69-.45-1.23.05-.23.13-.46.15-.7.03-.27-.01-.54,0-.81,0,0-.06-.5-.28-.97-.31-.66-1.48-1.54-3.2-1.89-.53-.84-1.04-1.64-1.55-2.45-.02-.04,0-.09-.02-.17.07-.04.14-.12.23-.14.44-.14.76-.45,1.06-.76.13-.13.38-.37.61-.74,0,0,.15-.25.25-.48.33-.77.07-1.95-.41-2.82-.16-.29-.44-.73-.91-1.16,0-.29-.04-.71-.29-1.13-.04-.06-.06-.1-.08-.12-.33-.54-.68-1.07-1-1.63-.59-1.02-1.3-1.96-2.08-2.84-.2-.23-.28-.45-.26-.72.02-.3.22-.47.54-.53.35.32.52.76.7,1.19.46,1.07,1.11,2.03,1.94,2.83,1.47,1.41,2.84,2.91,4.18,4.43.33.38.72.66,1.12.94.12.09.33.13.48.1.2-.03.34-.18.35-.39-.36-.78-.87-1.44-1.4-2.08-.09-.1-.14-.19-.18-.23-1.26-1.66-2.03-2.3-2.92-3.57-.38-.54-.73-1.07-1.32-2.21-.46-.89-.99-1.74-1.5-2.6-.3-.5-.54-1.31-.52-2.02.33.02.6.19.86.37,1.03.69,1.85,1.6,2.54,2.62.52.77.98,1.58,1.49,2.36.53.8,1.1,1.56,1.62,2.36.4.61.77,1.25,1.11,1.89.23.43.37.9.55,1.36.3.78.57,1.57.9,2.33.23.53.53,1.04.67,1.61.24.94.9,1.61,1.49,2.33.15.19.34.17.5,0,.14-.15.22-.33.17-.54-.06-.26-.14-.52-.23-.77-.13-.36-.31-1.11-.52-2.28-.49-2.65-.24-2.47-.54-3.37-.31-.92-.69-1.6-1.46-2.71-.41-.61-.81-1.22-1.27-1.8-.64-.8-1.18-1.68-1.76-2.53-.06-.09-.13-.22,0-.35.27.02.49.17.71.31.23.14.45.29.68.44.65.43,1.32.85,1.96,1.3.51.36.8.73,1.1,1.06.96,1.04,1.51,2,1.91,2.72.44.78.73,1.4.78,1.56.23.67.24.65.7,1.84.32.82.65,1.63.98,2.45.46,1.14.76,1.88.95,2.38.44,1.12.45,1.12.45,1.13.5,1.07,1.12,1.92,1.8,2.87.16.22.24.33.35.47.56.72,1.1,1.28,1.62,1.74,1.64,1.45,2.42,2.21,2.76,2.01.44-.26.05-1.8-.36-2.72-.55-1.21-1.56-2.23-1.66-2.34-.13-.13-.23-.26-.45-.46-.46-.42-.76-.96-1.12-1.44-.33-.45-.56-.97-.85-1.46-.48-.82-.95-1.65-1.31-2.54-.15-.39-.35-.76-.45-1.16-.14-.57-.35-1.12-.56-1.67-.49-1.31-1.01-2.6-1.79-3.77-.03-.05-.01-.13-.02-.21.27-.04.5.03.71.16.69.41,1.03.62,1.06.65,1.56,1.25,1.53,1.11,1.87,1.49.45.52.7,1,.92,1.42.29.56.31.74.78,1.82.15.33.38.74.55,1.19.29.77.72,1.46,1.25,2.07,1,1.15,1.78,2.04,2.56,2.74.18.16.64.55,1.56,1.33.79.67,1.17,1.09,1.57,1.32,1.66.96,3.18,2.11,4.53,3.48.38.38.79.74,1.2,1.08.89.74,1.89,1.3,2.99,1.66.22.07.43-.01.57-.22.11-.15.09-.36-.05-.54-.05-.06-.1-.11-.15-.16-.97-.9-1.93-1.8-2.9-2.71-.21-.2-.41-.43-.65-.59-.42-.27-.73-.65-1.08-.99-.3-.29-.49-.46-.6-.57-.76-.71-1.49-1.29-2.47-2.05-.65-.51-.76-.57-1.6-1.23-.55-.43-.82-.65-.94-.75-.45-.38-1.15-1.19-2.01-2.24-.28-.35-.47-.74-.64-1.15-.29-.68-.57-1.35-.89-2.02-.33-.71-.7-1.4-1.05-2.1-.06-.12-.09-.17-.06-.21.12-.17,1.17.36,1.86.76,1.03.61.81.81,1.66,1.19,1.14.51,2.25,1.07,3.48,1.36.12.03.23.09.34.13.34.12.69.25,1.03.37.81.27,1.63.52,2.44.81,1.06.39,2.02.99,3.04,1.46.13.06.26.14.39.21.58.32,1.15.65,1.73.96.64.34,1.32.63,1.91,1.06.08.06.18.09.26.13.7.35,1.39.71,2.09,1.06.13.07.27.11.41.17,1.21.53,2.46.98,3.58,1.69.29.18.57.38.85.57.25.17.31.33.48.34.27,0,.56-.32.58-.63ZM57.99,41.25c-.49-.64-.95-1.3-1.41-1.96-.31-.44-.59-.9-.88-1.35-.09-.14-.2-.28-.08-.5.26,0,.49.15.72.27.42.22,1.57.79,2.34,1.24.49.29,1.15.75,1.87,1.5-.32.22-.64.44-.96.66-.33.23-.66.46-.98.7-.27-.11-.45-.35-.62-.57ZM60.84,47.82c-.08-.12-.13-.26-.18-.4-.01-.04.02-.09.04-.17.54.03.99.15,1.42.56.69.65,1.21,1.39,1.65,2.23.43.82.92,1.62,1.38,2.42.11.19.25.36.23.64-.4.08-.81.16-1.22.24-.06-.04-.13-.06-.17-.12-.59-.81-1.17-1.62-1.75-2.44-.08-.12-.16-.25-.19-.39-.24-.94-.69-1.77-1.22-2.57ZM63.58,53.58c-.03.11-.08.23-.16.3-.11.1-.25.04-.32-.05-.26-.38-.52-.77-.63-1.23-.03-.14-.02-.29-.02-.43,0-.04.05-.07.1-.14.07.07.14.13.19.2.26.38.52.76.78,1.15.04.06.08.15.06.2ZM59.88,48.95c-.34.02-.56-.05-.63-.33-.08-.27-.1-.56-.18-1.01.39.49.66.85.81,1.34ZM54.4,45.88c-.25-.44-.53-.95-.72-1.68-.07-.25-.1-.45-.23-1.73-.2-1.99-.2-2.35-.05-2.41.2-.07.55.44.57.47.21.31.26.61.27.67.05.31.57,1.41,1.61,3.62.76,1.62.96,2.12,1.43,3.22.13.29.2.59.31.92-.28.18-.52.33-.76.49-.08-.14-.21-.35-.37-.6-1-1.57-1.42-1.81-2.06-2.95ZM56.09,50.77c.05-.08.24-.38.59-.68.31-.26,1.11-.84,2.13-.72.37.04.65.15.85.26.83.44,1.45,1.04,1.89,1.87.44.83.34,1.66.02,2.48-.37.92-1.05,1.51-2.02,1.73-.25.06-.54.08-.79.04-.86-.16-1.6-.6-2.27-1.15-.42-.35-.55-.84-.64-1.13-.07-.21-.48-1.52.25-2.7ZM61.69,57.2c.05.24.08.48.14.72.35,1.45.5,2.94.64,4.42.03.3.07.44.1.65.23,1.38.46,2.14.42,2.16-.04.01-.35-.78-.63-1.75-.31-1.1-.44-2.03-.6-2.87-.13-.67-.23-1.35-.32-2.03-.09-.64-.27-1.24-.51-1.83-.06-.16-.12-.32-.17-.48-.12-.35-.11-.36.39-.54.23.5.44,1.01.54,1.56ZM52.69,51.51c0-.83-.03-1.66-.02-2.49,0-.28.05-.58.19-.82.2-.06.24.09.29.18.23.37.43.76.67,1.13.12.18.28.34.42.5.19.22.41.43.57.67.27.41.48.83.44,1.36-.05.53,0,1.06,0,1.6-.3-.31-.61-.42-.99-.5-.7-.14-1.57-.88-1.57-1.62ZM61.64,63.85c-.12-.27-.22-.54-.33-.82-.31-.76-.76-1.4-1.37-1.97-.86-.8-1.66-1.66-2.48-2.5-.26-.26-.5-.44-.55-.48-.85-.73-1.1-.85-1.55-1.24-.29-.25-.7-.67-1.39-1.6-.36-.49-.65-1.04-.96-1.56-.04-.08-.05-.17-.1-.34.4.06.98.19,1.6.51.43.22.52.35,1.13.8.99.73,1.53,1.12,2.33,1.37.81.25,1.52.24,1.64.22.09-.01.19-.01.33-.02.13.23.3.45.38.7.21.65.42,1.31.55,1.98.18.93.28,1.88.44,2.82.1.58.19,1.16.45,1.7.09.2.14.41.2.62-.04.03-.08.06-.12.09-.07-.09-.16-.17-.21-.27ZM63.32,71.64c-.11,0-.38,0-.69-.13-.91-.39-1.63-1.21-1.88-2.17-.18-.67-.13-1.4.13-2.05.12-.3.23-.58.51-.83.63-.56,1.6-.52,2.23-.28.26.1.44.21.58.31.57.44,1.04,1.01,1.29,1.68.26.67.3,1.43.05,2.1-.19.52-.56.81-.64.87-.59.49-1.27.52-1.58.5ZM66.1,70.61c.21-.36.5-.54.94-.59.89-.1,1.95.4,2.3,1.33.17.44.27.88.3,1.35.07,1.04-.84,2.24-2.09,2.11-.04,0-.06,0-.08,0-.54.05-.86-.18-1.05-.69-.26-.71-.56-1.4-.86-2.09-.12-.28-.11-.5.1-.74.17-.2.3-.44.44-.67ZM65.52,74.69c-.18-.61-.42-1.19-.64-1.79-.12-.33-.18-.65-.15-1.03.09.07.19.1.22.17.26.6.5,1.21.75,1.82.32.79.64,1.58.95,2.38.14.36.26.74.4,1.1.24.62.45,1.21.71,1.77.41.92,1.34,2.71,1.83,3.25.09.1.18.31.39.7.06.12.06.24-.05.33-.09.08-.26.01-.36-.14-.09-.14-.17-.29-.26-.44-.15-.27-.3-.54-.45-.8-.08-.14-.15-.24-.17-.27-.72-1.15-1.96-4.06-1.96-4.06-.81-1.9-.83-1.69-1.2-2.98ZM67.85,77.99c.04-.09.13-.16.27-.21.28-.09.52-.03.77.11.71.4,1.2.99,1.45,1.77.19.58.28,1.18.23,1.8-.04.47-.04.52-.39,1.07-.09-.16-2.18-3.82-2.32-4.24-.02-.05-.06-.18,0-.3ZM67.95,83.26c-.59-.35-1.12-.78-1.58-1.3-.6-.68-.66-1.49-.54-2.34.02-.16.12-.32.2-.47.28-.49.57-.5.84-.01.31.55.58,1.13.88,1.68.33.62.63,1.27,1.07,1.83.19.24.41.49.37.87-.47.12-.88-.04-1.25-.26ZM72.21,89.76c-1.63-.44-3-1.94-3.03-3.63,0,0,0,0,0,0,0-.41.06-.82.24-1.19.7-1.38,1.84-1.58,3.26-1.44.38.04.77.08,1.11.27.35.19.59.52.79.87.56,1.02.71,2.26.4,3.39-.21.78-.71,1.55-1.48,1.77-.42.12-.87.07-1.29-.04ZM74.4,91.52c.14.48.98,2.49,2.19,5.35-.74-1.37-3.06-5.69-3.12-6.14,0-.06-.05-.26.06-.31.12-.05.26-.05.33.07.33.58.5.87.55,1.03ZM75.88,97.88c-.72-.13-1.41-.32-2.06-.69-.54-.31-.9-.76-1.2-1.24-.33-.53-.55-1.16-.48-1.81.09-.89.35-1.72.95-2.42.05-.05.11-.09.23-.18.28.2.44.44.58.7.44.76.85,1.53,1.19,2.35.39.95.87,1.85,1.31,2.78.04.09.05.18.08.26-.15.24-.36.29-.59.25ZM80.88,100.16c.52.7.74,1.56.75,2.44,0,.55-.08,1.11-.24,1.64-.2.68-.55,1.38-1.18,1.71-.79.41-1.61.21-2.05.09-1.24-.33-1.92-1.22-2.14-1.51-.24-.32-1.13-1.61-.85-2.88.54-2.52,4.1-3.67,5.71-1.5ZM78.24,95.37c-.12.61-.32,1.18-.71,1.67-.09.11-.2.19-.34.32-.33-.48-.62-.93-.79-1.44-.35-1.05-.52-1.6-.85-2.57-.2-.58-.52-1.39-1.07-2.33.18-.09.72-.32,1.41-.19.64.12,1.03.5,1.15.61.13.11.21.27.33.39.93,1.03,1.12,2.23.87,3.55ZM80.13,86.07c.3.04.51.13.74.25.3.14,1.75.83,2.03,2.36.2,1.06-.27,1.97-.44,2.25-.04.07-.07.12-.12.19-.51.74-1.65.99-2.54.83-1.56-.29-2.18-1.81-2.23-1.92-.41-.98-.29-1.96.18-2.69.5-.77,1.45-1.37,2.38-1.26ZM77.62,86.47c-.35.35-.61.75-.79,1.22-.29.76-.21,1.49.1,2.21.1.24.27.46.29.85-.2-.12-.5-.28-.9-.39-.98-.27-1.81-.03-1.89-.25-.04-.11.16-.24.23-.34,1.16-1.58,1.34-3.27.55-5.06-.19-.43-.44-.81-.76-1.16-.17-.19-.35-.32-.56-.41-.16-.07-.3-.1-.67-.14-.76-.08-1.15-.11-1.58-.06-.27.03-.49.08-.62.12.01-.2,0-.34.03-.47.3-1.13.18-2.24-.23-3.32-.34-.88-.96-1.53-1.85-1.88-.18-.07-.38-.09-.57-.12-.22-.03-.44-.03-.69-.04-.36-.48-.43-1.06-.62-1.59.16-.22.37-.2.55-.21.93-.02,1.56-.51,2.04-1.25.07-.1.11-.22.15-.33.34-1.11.25-2.2-.34-3.19-.41-.68-1.06-1.08-1.87-1.15-.36-.03-.73,0-1.13,0-.08-.31-.16-.61-.22-.92-.12-.64-.43-1.2-.78-1.73-.13-.2-.32-.37-.51-.51-.4-.28-.82-.54-1.29-.85-.07-.4-.14-.85-.22-1.3,0,0-.01-.07-.02-.15-.2-1.24-.39-2.74-.68-4.35-.14-.8-.12-.56-.27-1.37-.18-.97-.43-1.41-.68-2.5-.09-.37-.15-.67-.18-.87.27-.46.54-.91.81-1.37q.23.19.44.78c-.03.07-.06.16-.11.24-.51.71-.59,1.54-.43,2.32.21,1,.66,1.93,1.73,2.3.57.2.96.6,1.28,1.05.5.72.96,1.48,1.23,2.36-.06.07-1.32,1.53-.73,3.34.34,1.04,1.25,2.05,2.51,2.23.86.13,1.56-.19,1.85-.34.24.14.38.37.5.61.41.86.82,1.73,1.21,2.6.34.76.66,1.53.99,2.29.26.61.43,1.24.59,1.91-.18.15-.35.28-.51.43-.12.11-.44.45-.63.9-.27.65-.15,1.27-.03,1.82.15.7.4,1.23.59,1.47.37.46.7.94,1.22,1.26.39.24.79.38,1.25.35.34-.02.68-.03,1.01-.05.65,1.44,1.28,2.84,1.93,4.26-.16.29-.45.49-.69.73ZM78.22,84.14c-.24-.1-.33-.34-.42-.55-.3-.71-.59-1.44-.87-2.16-.05-.13-.11-.28.06-.38.04.01.11.01.12.04.43,1,.84,2,1.1,3.06ZM75.11,75.55c.13,0,1.17,0,1.82.81.27.34.43.75.53,1.16.16.7.14,1.45-.16,2.1-.3.65-.89,1.18-1.6,1.3-.86.15-1.73-.32-2.3-.99-.44-.51-.74-1.16-.81-1.83,0-.08,0-.17,0-.27.03-1.07.95-1.73,1.06-1.81.16-.11.69-.48,1.46-.48ZM71.54,68.21c.4.97.81,1.93,1.2,2.91.14.34.21.7.33,1.04.26.76.44,1.55.81,2.27.07.13.2.29.07.48-.27-.18-.33-.47-.43-.74-.34-.97-.72-1.91-1.17-2.84-.5-1.03-.93-2.09-1.4-3.14-.1-.22-.21-.43-.33-.68.08-.09.18-.19.29-.32.3.32.48.66.63,1.02ZM69.7,63.31c.73.45,1.04,1.11,1.12,1.31.38.9.37,1.51-.51,2.37-.16.15-.33.3-.52.4-.63.33-1.28.51-1.94.07-.18-.12-.37-.24-.56-.35-.28-.16-.45-.39-.53-.48-.57-.65-.62-1.96-.13-2.96.1-.2.16-.31.28-.44.64-.63,1.95-.45,2.79.07ZM67.55,62.28c-.38.31-.52.31-.7,0-.41-.72-.82-1.44-1.21-2.16-.06-.12-.08-.26-.12-.43.11,0,.2-.04.24-.01.12.08.25.16.33.27.53.75,1.01,1.53,1.46,2.33ZM67.64,54.75c.42.64.52,1.36.53,2.1,0,.31-.08.59-.26.83-.22.29-.46.57-.71.84-.31.35-.73.48-1.18.51-.72.05-1.41-.1-2.08-.35-.33-.12-.56-.38-.77-.66-.27-.36-.44-.74-.51-1.12-.03-.18-.16-.94.25-1.71.63-1.19,1.97-1.38,2.14-1.4.07,0,1.77-.25,2.57.98ZM64,48.73c.8,1.11,1.54,2.25,2.22,3.44.21.38.52.7.66,1.14-.58,0-.82-.1-1.01-.51-.2-.42-.42-.81-.71-1.18-.26-.34-.43-.76-.71-1.1-.21-.26-.38-.57-.53-.87-.37-.73-.85-1.37-1.42-1.94-.08-.08-.13-.19-.24-.33.37-.07.65-.05.85.21.3.38.6.77.89,1.16ZM63.03,46.54c-.26.08-.52.13-.78.19-.84.19-1.54-.05-2.12-.69-.25-.27-.45-.49-.57-.67-.55-.82-1.06-1.57-.88-2.42.23-1.12,1.47-1.62,1.64-1.69.27-.1.87-.33,1.6-.17.85.19,1.33.8,1.78,1.37.54.69.89,1.2.92,1.93.04,1.16-.83,1.91-1.58,2.14ZM65.14,45.59c.08.06.11.14.13.16.26.4.52.81.77,1.22.48.82.88,1.68,1.4,2.48.81,1.24,1.88,2.28,2.8,3.45.29.37.52.73,1.08,1.49.57.76.74.96.71.99-.05.05-1.06-.89-2.03-2.12-.21-.27-.29-.42-.46-.61-1.22-1.37-2.7-2.53-3.67-4.08-.4-.64-.7-1.33-1.01-2.02-.03-.07-.21-.9,0-1,.06-.03.19-.01.27.04Z"/><path d="M96.26,100.39c-.2-.61-.48-1.18-.85-1.7-.23-.32-.51-.6-.89-.74-.55-.21-1.09-.42-1.71-.65-.01-.16-.06-.37-.04-.59.05-.77-.21-1.44-.61-2.08-.22-.35-.56-.54-.84-.81-.18-.18-.44-.33-.74-.46-.62-.26-1.25-.18-1.66-.07-.31-.79-.62-1.57-.93-2.36.21,0,.52-.02.87-.13,1.4-.42,2.47-1.83,2.59-3.13.06-.69-.12-1.62-.14-1.75-.03-.17-.08-.4-.14-.6-.26-.81-1.04-1.81-2.17-2.13-.87-.24-1.65-.08-2.66.36-.4.17-.79.34-1.21.52-.28-.34-.4-.74-.55-1.12-.13-.33-.09-.6.13-.89.33-.43.56-.91.6-1.48.02-.26.12-.52.17-.77.38-.22.71-.48.99-.79,0,0,.25-.26.41-.52.49-.76.44-2.76-.86-4.05-.96-.95-2.47-1.36-3.6-.94-.51.19-1.12.65-1.38,1.04-.12.18-.21.38-.28.61-.04.13-.1.25-.17.4-.39-.43-.74-1.07-1.02-1.89-.06-.17-.06-.34-.07-.5.06-.01.16-.03.27-.08,1.14-.45,1.34-2.18,1.35-2.32.02-.22.05-1.02-.26-1.69-.13-.29-.32-.56-.56-.81-.1-.1-.18-.24-.28-.34-.55-.55-1.15-.99-1.98-.97-.09,0-.17-.03-.33-.06.13-.16.23-.26.31-.38,0,0,.47-.69.57-1.56.16-1.48-1-3.18-2.14-3.59-.38-.14-.96-.51-1.71-.39-1.14.19-1.74,1.24-1.82,1.38-.17.31-.23.56-.29.8,0,0-.35,1.47.36,3.02.1.22.23.43.38.62.49.61,1.14.9,1.92.93.19,0,.37.02.6.03-.09.36-.35.53-.53.74-.5.59-.59,1.31-.49,2.01.19,1.46,1.3,2.96,2.7,3.11.37.04.68-.02.91-.08.26.45.52.94.77,1.48.19.41.35.81.49,1.18-.12.14-.22.29-.34.4-.47.45-.8.99-1.03,1.59-.28.73-.35,1.46.02,2.2.22.44.45.87.81,1.21.3.29.58.6.89.88.8.74,1.75,1.05,2.83.93q.65-.07.96.51s.05.08.07.13c.21.55.43,1.08.19,1.7-.11.29-.09.63-.15.94-.07.38.03.72.2,1.06.28.58.71,1.05,1.12,1.54.43.52.94.94,1.55,1.21.4.18.63.45.76.84.17.48.35.97.5,1.46.05.18.04.38.06.58-.29.08-.78.27-1.21.71-.56.58-.66,1.26-.75,1.82-.16.97-.12,1.9.42,2.77.29.47.65.88,1.16,1.08.52.21,1.06.4,1.64.31.11-.02.23.02.38.03-.01.16-.01.27-.03.39-.24,1.22.12,2.26.89,3.21.28.35.68.48,1.05.65.73.32,1.49.63,2.35.34.13.23.25.44.35.66.09.18.14.37.23.54.11.21.25.25.49.13.08-.04.15-.12.22-.18-.02-.53-.39-.91-.55-1.4.23-.34.46-.69.69-1.03.46-.68.76-1.43.83-2.25.02-.26.02-.55-.07-.79ZM81.31,75.73c.04-.72.6-1.34,1.17-1.59.14-.06.35-.14.64-.16,1.13-.11,2.7.58,3.28,1.95.04.08.62,1.31.04,2.06-.46.6-.47.65-1.14.98-.43-1.6-1.47-2.79-2.75-3.03-.29-.05-.71-.08-1.24.06,0-.06-.01-.15,0-.27ZM77.94,67.54c.1,0,.41-.03.72.04.82.17,1.72.93,2.03,1.94.16.53.13.98.06,1.48-.06.44-.15.89-.38,1.27s-.65.67-1.1.65c-.49-1.13-.99-2.25-1.48-3.38-.13-.29-.25-.57-.38-.86-.07-.15-.42-.71-.37-.86.06-.19.49-.27.9-.28ZM75.47,67.22c-.21,0-1.33-.08-2-.95-.27-.36-.35-.69-.45-1.08-.14-.59-.39-1.62.19-2.54.06-.1.61-.95,1.59-1.12.04,0,.22-.04.43-.03,1.13.05,2.6,1.17,2.88,2.74.06.31.2,1.1-.25,1.84-.72,1.18-2.27,1.14-2.39,1.14ZM77.67,73.12c-.36-.09-.68-.23-.97-.42-.25-.16-.71-.47-1.03-1.07-.47-.87-.29-1.73-.23-1.97.16-.73.56-1.21.77-1.44.08.23.22.61.42,1.08.5,1.19.82,1.75,1.08,2.32.17.38.34.75.5,1.14.04.1.04.22.08.39-.25-.01-.44,0-.62-.04ZM78.74,73.44c-.9-1.79-1.87-4.49-2.18-4.9-.02-.02-.1-.12-.13-.26-.03-.1-.02-.21,0-.47.13.18.24.31.32.44.81,1.42,1.28,2.57,1.45,3.1.84,2.61,2.12,4.43,2.02,4.48-.07.04-.83-1.08-1.48-2.39ZM83.84,82.26c-.41.62-1,.85-1.71.73-.31-.05-.63-.15-.9-.31-.93-.56-1.74-1.26-2.23-2.27-.21-.44-.25-.88-.17-1.36.12-.73.47-1.32.94-1.87.34-.39.8-.44,1.08-.52.33-.09,1.66-.44,2.78.31,1.6,1.08,1.29,3.47,1.02,4.07-.16.36-.41.71-.41.71-.14.17-.29.33-.41.51ZM84.49,84.38c-.16-.44-.43-.84-.54-1.29.21-.11.28.02.32.11.16.4.31.8.52,1.38-.2-.13-.29-.16-.3-.2ZM86.51,89.66c-.3-.18-1.34-.9-1.7-2.24-.51-1.9.87-3.26,2.63-3.64.73-.16,1.54-.08,2.14.36.52.37.84.97,1.02,1.58.22.73.27,1.51.15,2.26-.1.6-.33,1.53-1.11,2.03-1.26.8-2.94-.22-3.14-.34ZM89.32,99.69c-.52,0-1.04-.15-1.45-.46-.73-.54-1.09-1.48-1.08-2.39.04-2.03,1.15-3.06,3.16-2.99,1.14.04,2.01,1.15,2.17,2.28.16,1.11-.25,2.31-1.13,3-.47.37-1.07.56-1.67.56ZM95.45,101.74c-.17.65-.5,1.23-.94,1.72-.5.57-1.15.8-1.91.62-.19-.04-.38-.08-.57-.14,0,0-.39-.14-.74-.42-.86-.69-1.58-2.57-.96-3.4,0,0,0-.01.02-.02.21-.24.48-.05.99-.38.29-.19.5-.45.58-.55.12-.15.24-.31.34-.48.36-.62.64-.74,1.33-.55,1.29.35,2.03,1.21,2.05,2.59.04.36-.1.68-.19,1.01Z"/><path d="M72.89,62.22c1.51-1.04,1.49-2.71,1.49-2.71-.01-.99-.52-1.68-.69-1.92-.22-.3-.5-.57-.84-.8-.22-.15-.84-.54-1.66-.55-.92,0-1.96.49-2.48,1.45-.76,1.4.12,2.84.24,3.04.09.15.18.27.25.36.37.47.86.78,1.37,1.09.32.2.64.34.99.39.09.01.22.03.38.02.46-.03.78-.26.95-.37ZM70.83,61.81c-.85-.39-1.37-1.03-1.6-1.96-.11-.47-.32-1.18,0-1.94.09-.21.31-.74.85-1.02.6-.31,1.23-.13,1.63-.02.44.12.85.35,1.23.69.48.43.7,1.05.79,1.69.02.17.02.34.03.58.07.55-.19,1.02-.63,1.42-.15.13-.28.27-.44.39-.58.44-1.21.47-1.86.17Z"/><path d="M78.72,100.76c.48.21.8.63,1.16.99.2.2.33.41.42.71.22.72-.1,1.55-.59,2.04-.6.6-1.39.63-1.38.69.02.06.82.1,1.44-.38.65-.5.75-1.3.81-1.85.08-.7-.07-1.36-.33-2-.23-.59-.63-1.05-1.2-1.32-.39-.19-.79-.2-1.14.14.14.46.36.8.81.99ZM78.54,99.9c.06-.05.18-.11.25-.09.54.16.94.5,1.18,1,.07.14.08.31.15.57-.59-.37-1.06-.68-1.46-1.1-.05-.05-.1-.11-.12-.18-.02-.07-.03-.17,0-.2Z"/><path d="M86.5,88.53c.32.27.66.5,1,.74.05.04.31.16.33.13.03-.05-.59-.41-1.23-1.15-.23-.27-.35-.4-.44-.6-.24-.53-.24-1.26.14-1.76.03-.04.12-.16.3-.3,1-.75,2.31-.27,2.45-.64.06-.17-.13-.43-.35-.56-.74-.43-2.42.39-2.86,1.68-.04.12-.75,1.26.66,2.45ZM87.65,84.58c.21-.08.59-.23.86-.04.09.06.21.18.18.28-.03.12-.27.14-.68.19-.9.12-1.11.2-1.14.13-.05-.11.38-.4.77-.55Z"/><path d="M64.59,67.36c-.26-.39-.48-.54-.58-.59-.25-.13-.71-.25-.85-.08-.26.32.61,1.5.67,1.59.19.25.28.28.33.47.12.47.04.95-.21,1.34-.23.37-.68.45-1.11.47-.16,0-.33-.06-.5-.09-.23-.04-.28-.05-.28-.03-.02.04.29.23.64.33.28.08.49.05.79.06.33.01.59-.06.78-.3.2-.24.41-.49.52-.78.15-.4.43-1.47-.21-2.4ZM64.6,69.71c-.02.07-.06.19-.19.12,0-.03-.02-.05-.02-.08,0-.05,0-.1.02-.14.12-.34.15-.66.07-.95-.07-.26-.18-.26-.52-.76-.27-.39-.59-1-.48-1.09.08-.07.42.19.61.39.1.09.44.44.59,1.04.12.46.08.95-.09,1.47Z"/><path d="M75.57,66.48c-.09-.04-.23-.11-.38-.2-.25-.15-.59-.35-.82-.68-.33-.47-.36-1.14-.15-1.64.22-.51.58-.78.58-.78.2-.16.41-.23.48-.47,0-.02.08-.26-.05-.37-.04-.04-.1-.06-.16-.07-.58-.07-1.03.18-1.18.74-.2.76-.27,1.54-.07,2.32.07.29.14.46.29.64.46.54,1.24.52,1.45.51ZM74.41,62.73c.06-.06.17-.2.35-.22.1-.01.24,0,.26.07.03.1-.25.23-.47.43-.21.18-.44.49-.56,1.03-.03-.55.13-1.07.41-1.32Z"/><path d="M62.34,44.99c-.18.03-.73.16-1.08.2-.2.02-.37,0-.56-.09-.21-.09-.52-.52-.66-1.25-.06-.28-.11-.72-.21-1.2,0-.04-.01-.06-.01-.06-.02,0-.2,1.51.5,2.44.39.52.92.65,1.13.72.4.14.83.13,1.26-.07.3-.13.51-.35.53-.7-.37-.07-.68-.04-.9,0ZM62.84,45.28c0,.06-.04.15-.09.18-.36.22-.73.3-1.1.2-.1-.03-.19-.09-.35-.17.48-.16.88-.28,1.29-.31.05,0,.1,0,.15.02.04.02.1.06.1.09Z"/></svg>