<?xml version="1.0" encoding="UTF-8"?><svg id="Layer_1" xmlns="http://www.w3.org/2000/svg" viewBox="0 0 144.57 144.57"><path d="M120.18,64.13c.07.23.03.36-.14.53-.31.33.13.77.44.44.32-.33.49-.73.35-1.19-.12-.42-.77-.17-.66.22Z" fill="#010101"/><path d="M114.86,55.55c-.22.41.35.67.56.29.25-.45.27-.99-.09-1.38-.27-.3-.78.2-.51.51.15.16.14.4.03.59Z" fill="#010101"/><path d="M108.04,56.52c.1-.14.06-.37-.09-.45-.18-.09-.36.02-.47.16-.15.21-.58.11-.76.03-.36-.17-.76.43-.37.61.58.27,1.3.19,1.7-.34Z" fill="#010101"/><path d="M103.92,56.7c-.01.17-.12.23-.28.27-.41.1-.33.75.12.64.45-.11.8-.49.83-.96.03-.46-.65-.36-.67.05Z" fill="#010101"/><path d="M110.59,52.61c-.39.12-.67.42-.7.83-.03.46.64.36.67-.05,0-.1.06-.12.16-.15.4-.12.32-.77-.12-.64Z" fill="#010101"/><path d="M112.94,57.81c.38.11.64-.54.22-.66-.2-.06-.38-.15-.53-.29-.3-.28-.8.23-.51.51.24.22.51.36.82.45Z" fill="#010101"/><path d="M122.79,65.33s-.01-.07-.03-.1c-.16-.27.15-.99.21-1.28.08-.38.12-.73,0-1.11-.26-.82-1.05-1.46-1.89-1.56.05-.53-.06-1.13-.37-1.68.89-.41,1.08-1.35.69-2.38-.28-.74-.91-1.1-1.63-1.28-.34-.09-.6-.03-.79-.36-.16-.29-.33-.43-.6-.57-.02-.79-.49-1.5-1.36-1.59.41-.77.2-1.58-.57-2.29-1.02-.94-2.78-.56-3.99.04-.07-1.16-1.77-.7-2.78-.9-1.02-.2-2.56-.43-2.55.81-.81.08-1.74.33-2.03,1.17-.24.71-.24,1.41.21,1.94-.06.06-.13.13-.19.19-.89-1.08-2.54-.3-3.12.9-1.14.76-2.96.59-2.73-1.27.04-.32-.37-.39-.56-.2-.91.54-1.4.37-1.47-.51.06-.41-.57-.38-.65-.04-.38,1.61-2.72.57-3.71.44-.21-.03-.44.13-.44.35.28,1.13-.37,1.56-1.14,1.32-.38-.1-.64.55-.22.66.52.14.93.06,1.24-.16.19.2.48.31.75.39.25.08.43-.36.14-.44-.2-.06-.42-.13-.55-.29.22-.3.35-.69.41-1.11,1.26.24,2.88.74,3.71-.16.38.5,1.16.62,1.81.36.11,1.43,1.38,2.03,2.69,1.67-.24.21-.4.49-.4.85,0,.29.12.56.28.8-.5.21-.86.64-.97,1.23-.13.72.39,1.19,1,1.34,0,.3.01.6.16.88.03.05.07.09.11.11.02.04.06.07.1.1.07.04.14.06.2.09-.14.46.45.96.92,1.13-.03.44.03.82.44,1.1.28.19.81.21,1.17.11-.15,1.45-.73,2.89-1.33,4.33-.99,2.4-1.87,4.86-3.35,7.01-1.38,2.03.46,3.15.94,5.08.43,1.72,2.12,1.06,3.27.51.6-.29,1.1-.62,1.38-1.01.02-.01.03-.02.05-.04.79-.95,1.02-2.13,1.28-3.32.37-1.73,1.12-3.28,2.02-4.81.69-1.17,1.78-2.06,2.92-2.84.16.31.46.49.86.51.36.01.68-.04,1.02-.16.3-.1.35.12.65.29.18.09.51.12.7.05.58-.2.96-.03,1.5-.09.48-.05.78-.57.85-1.04.24.05.45.13.59.49.12.3.39.36.66.44,1.15.32,2.58-.1,2.83-1.3,1.5-.09,2.63-1.45,1.62-2.82ZM101.97,61.03c-.13-.25-.09-.53-.08-.8,0-.2-.13-.3-.31-.31-1.05-.05-.79-1.3.09-1.41.06.05.11.1.17.14.24.19.37.23.66.14.14-.04.24-.1.39-.06.16.04.2.25.35.31.26.11.46.33.71.46.32.17.69.08,1.01-.03,0,.02.02.03.03.05,0,.02.02.02.03.04.61,2.11,1,4.87-.33,6.77-.06.06-.26.29-.35.42.77-2.15,1.12-4.27-.05-6.45-.13-.24-.42-.16-.56.02-.03.02-.06.04-.09.07-.41.49-1.01,1.02-1.66.66ZM103.53,63.58c-.45-.1-.4-.58-.36-.93.01-.09-.06-.19-.15-.2-.19-.03-.83-.37-.79-.63.6.03,1.19-.33,1.63-.78.18.41.31.81.39,1.21-.22-.02-.42-.09-.62-.2-.23-.13-.49.26-.25.4.28.16.57.24.9.25.01,0,.02,0,.03,0,.03.29.05.59.04.88-.26.1-.56.06-.83,0ZM104.07,80.15c-.45.25-.91.44-1.39.62-.92.34-1.31-.07-1.54-.94-.31-1.18-1.36-1.95-1.35-3.02.9.6,1.34.06,2.5.18.51.05.93.65,1.32.94.8.58,1.86,1.43.45,2.21ZM113.79,68.77c-.06-.07-.19-.07-.27-.02-.39.26-1.33.5-1.61-.06.34-.23.68-.45,1.02-.66.17-.11.35-.2.52-.28-.02.28.11.57.32.76.21.18.54-.16.34-.34-.14-.12-.33-.4-.16-.57.03-.02.04-.05.06-.08.46-.16.93-.27,1.41-.37.05.32.17.54.36.72-.19.19-.48.28-.74.19-.25-.08-.42.35-.14.44.42.14.91-.05,1.21-.37.12.08.26.15.42.23.04.02.09.04.13.05-.08.96-2.62.63-2.86.35ZM122.15,65.6s0,0,0,0c0,.05.03.1.06.14.2,1.3-.21,1.88-1.23,1.74-.21-.02-.44.12-.44.35-.01,1.02-.98,1.06-1.71,1-.53-.05-.53-.49-.81-.81-.51-.57-1.7-.13-1.93-1.02.6-.13,1.2-.28,1.76-.53.02.21.09.4.34.44.35.07.59-.46.32-.62-.01-.17-.12-.26-.25-.27-.04-.18-.23-.33-.47-.21-1.67.83-3.54.68-5.15,1.65-1.36.81-2.92,1.86-3.95,3.09-.94,1.13-1.55,2.55-2.16,3.88-.6,1.3-.58,2.94-1.19,4.25-.1-.21-.27-.43-.5-.66-.42-.41-1-.98-1.57-1.35.21-.99.56-1.94.8-2.92.22-.92.36-2.02,1.1-2.68.23-.2-.07-.5-.29-.29-.61.55-.84,1.35-1.05,2.12-.31,1.18-.69,2.36-.95,3.55-.03-.01-.05-.03-.08-.04-.07-.03-.13-.05-.2-.06.37-1.58.89-3.06,1.52-4.56.37-.88.79-1.69,1.41-2.42.43-.5.82-.96,1.1-1.56.13-.28-.31-.33-.42-.08-.34.75-.96,1.3-1.45,1.95-.39.51-.65,1.11-.91,1.69-.73,1.59-1.29,3.22-1.68,4.93-.75,0-1.44.39-2.12-.17-.03-.02-.05-.03-.08-.04.06-.13.13-.27.23-.42,1.14-1.66,1.94-3.5,2.69-5.36.74-1.37.77-1.87,2.15-3.51.02-.03.14-.14.18-.2,1.45-2.07,1.09-5.07.42-7.36-.02-.05-.04-.09-.07-.12-.16-.3-.38-.43-.68-.33,0,0,0,0,0,0-.59.22-.76-.09-1.22-.35-.34-.19-.45-.51-.92-.41-.19.04-.33.16-.5.03-.15-.12-.29-.26-.41-.41-.46-.53-.26-.92.35-1.16.16-.06.23-.21.24-.35.01-.04.03-.07.03-.12.03-1.06,1.64-2.27,2.3-.89.12.26.46.14.58-.04.7-1.02,2.41-1.72,3.18-.27.21.39.4.79.6,1.18.2.37,1.12,1.9-.11,1.98-.36.02-.72-.06-1.08.03-1.89.46-1.34,2.3-.87,3.66.12.34.57.23.66-.03,1.23-.65,1.79-2.24,2.32-3.44.02-.05.03-.1.03-.14.27-.46.27-1.08.07-1.59-.11-.28-.23-.59-.37-.91.31.06.63.06.93,0,.05.26.17.49.36.69.28.3.79-.21.51-.51-.11-.11-.2-.25-.22-.41.2-.1.39-.24.55-.41.32-.33-.12-.77-.44-.44-.5.51-1.18.52-1.82.32-.08-.02-.15-.01-.22.02-.37-.69-.85-1.31-1.49-1.56-.71-.28-1.47,0-2.1.47-1.13-1,.78-1.99,1.65-2.02.21,0,.4-.23.35-.44-.21-.94,1.45-.39,1.83-.32.41.08,2.38-.36,2.08.73-.08.29.21.51.46.34.7-.45,1.39-.65,2.23-.75,1.01-.12,3.11.9,1.71,2.28-.25.25-.06.61.28.54,1.38.97,1.61,1.74.7,2.29-.2.17-.11.44.11.55,2.35,1.12-.47,3.48-1.79,1.02-.09-.17-.36-.09-.47.03-.23.14-.51.13-.77-.15-.14-.2-.4-.15-.55,0-.01,0-.02,0-.03.02-1.55,1.1-4.03,2.01-4.34,4.14-.04.09-.07.17-.1.25-.25.6-.48,1.21-.7,1.82-.29.81-.83,1.48-1.32,2.17-.18.25.21.43.37.19.45-.64.96-1.27,1.26-2,.19-.47.36-.94.54-1.41.25.19.69.21,1.19.08,1.63-.43,2.48-1.94,3.4-3.23.13-.19.03-.41-.17-.48-.3-.1-.5-.24-.68-.46.27-.15.51-.3.74-.46.42.47.84.55,1.33.19.93.89,2.49,1.63,3.31.19.45-.8.13-1.86-.57-2.36.14-.17.24-.36.32-.55.06.07.11.14.17.21,0,.12.12.2.22.22.48.12.97.19,1.44.36.8.29,1.56,2.13.17,2.36-.28.05-.47.34-.28.59.3.35.48.76.52,1.22.44,2.2-1.38,1.37-1.93,1.05-.16-.09-.39,0-.47.16-.37.69-1.49.74-1.41-.31.03-.35-.36-.37-.56-.18-.08,0-.16.03-.24.11-.32.31-.53.24-.7-.15-.15-.34-.18-.81-.05-1.16.05-.14.01-.24-.06-.31-.05-.11-.16-.18-.33-.1-1.04.48-1.82,1.63-2.49,2.52-.63.84-1.76,2.25-1.61,3.4.15,1.21,1.9.6,2.64.44,1.51-.32,3.32.14,4.13-1.49.1-.2.02-.36-.11-.43-.04-.13-.16-.22-.36-.15-.53.2-1.13.1-1.35-.48,0-.01-.01-.01-.02-.02-.01-.28.22-.54.25-.82.02-.16-.04-.3-.11-.43.12-.04.23-.1.34-.17.28,1.05,1.68,1.16,2.4.31,1.23.59,2.14.1,2.5-.77.6.05,1.05.51,1.34,1,.23.39.09.82,0,1.23-.09.41-.34,1.03-.1,1.42ZM108.6,59.03s0,0,0,0c0-.13,0-.26-.03-.39.2,0,.4.03.59,0-.06.15-.13.31-.2.47-.11-.06-.24-.08-.36-.09ZM108.76,59.55c-.12.23-.24.46-.39.67,0-.25-.02-.49-.15-.7.19-.06.38-.07.54.03ZM107.78,59.8s.02-.02.03-.02c.15.22.12.52.11.77,0,.07.02.11.06.14-.12.12-.26.23-.4.32-.3-.9-.63-2.15.53-2.34.04.13.05.26.05.4,0,.01,0,.02,0,.03-.26.08-.51.23-.67.41-.2.22.09.52.29.29ZM112.73,59.68c-.16-.07-.31-.15-.36-.32.03-.02.07-.04.1-.06.21.26.42.46.69.6-.29.43-.59.91-.93,1.33-.3-.31-.08-.89.12-1.21.04.02.08.05.13.07.24.1.51-.29.25-.4ZM110.69,61.25c-.02.06-.03.13,0,.19,0,.16-.04.32-.1.46-.2-.06-.38-.16-.55-.27.16-.5.5-.93.92-1.3.19.17.4.31.64.41.02,0,.04,0,.06.01-.02.2,0,.39.09.56-.2-.01-.41-.09-.61-.15,0-.12-.01-.25-.02-.37-.03-.29-.46-.12-.44.14,0,.11.02.22.02.32ZM110.41,62.46s0,0,0,0c-.36.11-.79.23-.52-.26,0-.01,0-.02.01-.03,0-.02.01-.04.02-.06.14.08.27.15.42.2,0,.06.03.11.07.15ZM111.11,61.63c.21.06.42.12.64.12-.15.14-.3.27-.47.37-.15.09-.31.16-.48.22.18-.21.27-.45.3-.71ZM111.34,60.02c.2-.15.41-.29.63-.42.02.05.05.1.08.14-.01.01-.03.03-.04.04-.09.15-.18.32-.24.5-.15-.07-.29-.16-.42-.26ZM113.8,64.73s-.02-.05-.04-.07c.11.02.22.04.34.04.06,0,.11,0,.16-.02-.09.29-.06.61.09.88-.16,0-.32.02-.47.04.06-.28,0-.59-.08-.87ZM113.84,64.22s.03-.04.04-.07c.13-.3.11-.66-.08-.93.2-.28.22-.63.14-.97.02,0,.05.02.07.03-.06.36.06.73.3,1-.08.16-.15.33-.22.49-.13.28.25.46.37.19.07-.14.13-.28.19-.42.08.05.17.08.26.11-.02.09-.04.19-.04.3,0,0,0,0,0,0-.02,0-.03.02-.05.03-.07-.03-.16-.02-.23.06-.22.22-.48.2-.75.16ZM113.75,61.62s-.02-.01-.03-.02c.2-.23.41-.46.63-.64,0,.22.02.45.07.66-.04.01-.07.03-.11.06-.05.05-.09.12-.13.17-.16-.04-.31-.12-.44-.24ZM114.58,62.05s.04.08.06.12c.04.07.09.13.14.19.04.12.09.23.15.33.06.11.21.27.17.41-.01.05-.03.09-.04.14-.38-.11-.67-.53-.61-.91.1-.05.15-.17.13-.27ZM115.14,64.54c.31.4.81.56,1.32.53-.33.3-.76.4-1.22.45-.02-.04-.06-.07-.1-.1-.36-.24-.36-.66,0-.87ZM113.3,63.37c.02.07.06.12.12.13.12.16.13.36.04.56-.01.03-.01.06-.01.1-.08,0-.15,0-.23,0-.27.03-.33.48-.03.45.1-.01.2,0,.3,0-.09.05-.17.14-.13.26.02.06.04.12.05.2-.22.03-.46-.17-.56-.35.14-.12.17-.36-.04-.38-.39-.04-.74.04-1.04.27-.04-.04-.07-.08-.11-.12.11-.22.23-.43.37-.64.27.23.64.19.98.19.27,0,.34-.45.03-.45-.05,0-.11,0-.17,0,.23-.28.32-.63.33-1.01,0-.11-.06-.17-.13-.19.09-.12.19-.25.3-.39.14.29.3.75.07,1.01-.14.06-.25.23-.14.34ZM112,64.97c.13-.1.28-.16.44-.18-.03.06-.03.12,0,.18.19.33.62.62,1.02.53,0,.07-.02.12-.05.18-.45.09-.89.18-1.34.25.11-.32.07-.66-.07-.97ZM111.63,65.91s-.01.04-.02.06c-.41-.04-.39-.35-.22-.83.02-.06.04-.11.06-.17.21.26.33.63.18.94ZM112.3,63.47c.15-.21.29-.4.44-.6-.03.23-.09.45-.28.59-.03.02-.05.04-.07.07-.03-.02-.06-.03-.08-.05,0,0,0,0-.01,0Z" fill="#010101"/><path d="M83.64,77.58c-.38-.11-.64.54-.22.66.18.05.21.13.21.31,0,.46.68.36.67-.05,0-.48-.19-.79-.67-.92Z" fill="#010101"/><path d="M86.74,82.55c-.25-.1-.51.3-.25.4.23.09.33.28.34.52.01.3.46.24.45-.03-.01-.38-.16-.74-.54-.89Z" fill="#010101"/><path d="M89.86,83.98c-.27.38-.78.89-1.28.6-.23-.13-.49.26-.25.4.72.42,1.5-.24,1.9-.81.18-.25-.21-.43-.37-.19Z" fill="#010101"/><path d="M89.47,82.64c-.23-.14-.49.26-.25.4.12.07.16.17.17.31.02.29.46.12.44-.14-.02-.25-.15-.44-.36-.57Z" fill="#010101"/><path d="M94.84,81.67c-.22-.14-.48.25-.25.4.36.23.29.63.18.99-.09.3.34.35.42.08.18-.56.19-1.13-.35-1.48Z" fill="#010101"/><path d="M93.67,79.98c-.33.01-.62.12-.87.34-.23.2.07.5.29.29.15-.14.34-.18.54-.19.27,0,.34-.46.03-.45Z" fill="#010101"/><path d="M101.96,50.25c-.31-.04-.6-.09-.91,0-.71.19-.56.1-.63-.61-.07-.79-.17-1.86-.92-2.35-.75-.48-1.45-.47-2.3-.28-.34.08-2.12,1.33-2.05,1.37-1.37-.96-3.02.36-3.64,1.67-.45-.33-1.04-.35-1.63-.03-1.19.65-1.33,1.5-1.39,2.66-2.85-.32-3.45,3.29-1.27,4.8-.88.94-1.04,2.09-.87,3.42.08.59.28,1.61.78,2.01.52.41,2,.58,2.24,1.12.4.89,1.04,1.54,2.07,1,.76-.4,1.37.76,1.94,1.03.5.25,1.13-.09,1.61-.32,0,.4,0,.8,0,1.21-.05.55-.12,1.1-.11,1.66-.71.96-1.5,1.85-2.53,2.57-1.72,1.19-3.83.82-5.66,1.35.12-.99-.62-1.25-1.51-1.35-.39-.04-.74.26-1.04-.02-.27-.25-1-.35-1.34-.21-.43.18-.72.38-.81.88-.1.59-.93.38-1.21.92-.24.45-.24.93-.08,1.35-1.19.44-2.15,1.72-1.24,2.8-.31.37-.49.75-.5,1.28,0,.44.39.7.56,1.07.51,1.05.66,1.87,1.99,1.82,0,0,0,0,0,0-.22.56-.54,1.4-.16,1.98.57.86,1.31,1.01,1.66,2.11.16.5.84,1.04,1.27,1.3.91.55,1.59-.04,2.55.38,1.68.73,2.85,1.61,4.58.7.9-.47,1.84-.3,2.74-.76.65-.33.96-1.06,1.1-1.74.76-.06,1.44-.47,1.69-1.29.23-.76,1.09-1.03,1.32-1.74.2-.62-.06-1.06-.42-1.51.34-.72.08-1.87-.96-1.57-.25.07-1.19-.8-1.47-.87-.19-.05-.37-.07-.53-.06.17-1.55.65-3.06,1.31-4.51.39.53,1.1.33,1.69-.21,1.13-1.06,1.21-4.64,1.23-4.68.01-.03.02-.06.01-.09.24-.34.47-.68.71-1,.1-.01.2-.06.26-.18.41-.75.3-1.59-.26-2.19.77-.06,1.4-.44,1.64-1.26.77.07,1.33-.36,1.65-1.13.18-.43-.47-.5-.64-.12-.24.55-.6.68-1.16.53-.22-.06-.42.15-.44.35-.12,1.09-1.07,1.08-1.94.88-.08-.02-.15,0-.22.03,0-.83.27-1.59.82-2.18,0,.1,0,.19.03.29.1.3.36.39.65.41.27.01.33-.43.03-.45-.38-.01-.28-.41-.19-.66,0-.02,0-.04,0-.05.55-.41,1-.82,1.27-1.48.18-.43-.48-.51-.64-.12-.37.9-1.41,1.27-1.99,2.03-.5.66-.68,1.57-.68,2.4-.31.09-.61.26-.85.52-.05.05-.07.11-.09.16-.45.66-.88,1.32-1.31,1.98.06-1.07.08-2.63-.26-3.66-.16-1.6-.58-3.11-1.63-4.48-.07-.12-.14-.23-.22-.34-.27-.37-.77-.59-.86-1.03.04-.21.17-.38.43-.35,0,0,0,0,.01,0,.5.87,1.91,4.25,3.24,3.52.7-.38.68-1.49.68-2.17,0-.85,0-1.99-.44-2.75-.03-.05-.07-.09-.11-.11.1-.3.39-.07.65.22.44.5.32,1.28.27,1.89-.05.76-.22,1.67-.05,2.43.15.69.87.59,1.38.4.93-.36,1.04-1.57,1.94-1.94.38-.16.31-.81-.12-.64-.05.02-.1.05-.15.07-.18-.12-.39-.15-.61-.14-.21-.14-.12-.4.02-.6.2-.28.54-.39.84-.22.23.13.49-.26.25-.4-.36-.2-.73-.15-1.04.04-.03-.01-.06-.02-.09-.02-.65.02-.6-.7-.52-1.16.05-.3-.4-.23-.45.03-.03.22-.04.44-.02.66-.05.02-.1.05-.14.11-.13.2-.31.3-.53.31,0-.02,0-.04,0-.05-.02-.73-.46-1.62-1.22-1.82-.78-.2-1.11.47-1.1,1.15,0,.05,0,.09.02.13-.34.2-.72-.04-1.01-.32-.4-.38-.41-.84-.3-1.35.07-.3-.36-.36-.42-.08-.16.71-.1,1.29.43,1.81,0,0,0,0,0,0-.02.41-.33.66-.68.8-.04-.08-.08-.15-.13-.23-.05-.08-.28-.22-.37-.23-.67-.06-1.12.29-1.28.89-.07.07-.15.11-.23.14-.27,0-.51-.09-.69-.31.48-.44.57-1.15.1-1.82-.24-.34-.8.01-.61.41.33.42.29,1.12-.2,1.15-.21,0-.53.34-.27.55.35.28,1.12,1.61.01,1.79-.09.01-.17.07-.24.13-.54-.04-1.05.16-1.07.81-.01.3.44.24.45-.03,0-.17.04-.28.21-.33.11-.03.25-.02.37,0,.02.02.04.04.07.06.75.42,1.04.89,1.09,1.74.01.19.24.25.39.21,1.3-.38,1.66,1.61,2.57,1.14.43-.22.66.4.79,1.27,0,.17,0,.35.01.52-.58.25-1.34.6-1.87-.17-.09-.12-.18-.31-.3-.46.14-.31.17-.65.17-1.02,0-.3-.45-.24-.45.03,0,.26,0,.52-.08.75-.72-.17-1.95.61-2.36-.22-.25-.49-.37-1.13-1.05-1.16-2.57-.14-2.62-3.85-1.07-5.19.16-.14.16-.42-.03-.52-1.91-1-2-4.32.76-3.68.21.05.43-.15.44-.35.02-.3.03-.59.02-.89.08-1.34.8-1.77,2.16-1.28.15.24.56.16.62-.12.31-1.48,1.8-2.5,3.2-1.52.14.1.4-.01.47-.16.65-1.33,2.87-2.37,3.87-.69.42.7.27,1.81.45,2.59.04.16.23.29.39.21,1.71-.79,2.63.36,2.87,1.75-.01.01-.02.02-.03.04-.13.25-.47.68-.77.42-.2-.18-.54.16-.34.34.4.36.87.16,1.2-.18.01.32-.01.65-.07.95-.08.45.6.34.67-.05.26-1.37-.09-3.97-1.9-4.21ZM81.71,72.9c.24-.02.34-.06.55-.17.49-.26.54-1.84,1.53-.92.2.19.57.42.84.21.53-.39,1.5-.14,1.38.63,0,.05,0,.09,0,.12-.18.08-.35.17-.52.28,0,0,0,0,0,0-.48-.47-1.31-.53-2-.21-.08-.03-.18-.03-.29.03-.38.23-.82.57-.97,1.01-.14.42,0,.42-.19.65,0,0,0,0,0,0-.25-.1-.45-.27-.59-.5-.26-.36-.17-.73.26-1.12ZM80.14,77.07c.12-.12.17-.35.03-.47-1.03-.93.1-1.77.88-1.95.16.17.34.33.56.44-.23.43-.21.89-.06,1.32-.28-.1-.52-.32-.53-.64-.01-.3-.46-.24-.45.03.02.56.41.96.94,1.09.09.02.16-.02.22-.08.01.02.02.04.03.06-.94.23-1.91.85-1.69,1.92-.3-.54-.6-1.08.06-1.73ZM80.33,79.32c-.03-.08-.07-.16-.11-.24.33.37,1.11.67,1.1.86,0,.15,0,.3.02.45-.64-.06-.79-.47-1.01-1.07ZM81.79,79.25c-.72-.07-1-.5-.85-1.3.34-.4.94-.47,1.42-.5.28-.02.47-.37.28-.59-.69-.78-.68-1.51.16-1.93.1-.05.19-.19.19-.3,0-.33-.04-.62.16-.88.08,0,.17-.03.26-.1.69-.65,1.92-.39,1.82.68-.01.11.02.19.08.24-.05.3.41.46.62.15.81-.31,1.29-.06,1.42.76.06.19.21.25.39.21.17.02.31.05.43.1.05.12.16.2.31.18.26.22.31.54.21.84-.02.03-.04.06-.06.09-.03.05-.05.1-.05.15-.08.12-.18.24-.31.34-.23.11-.47.19-.71.26-.13-.67-.71-1.23-1.46-1.1-.26.05-.33.5-.03.45.69-.12,1.23.58,1.04,1.23-.04.14.03.22.13.25.14.84.03,1.54-1.13,1.75-.2.04-.41.21-.35.44.26,1-.98,1.27-1.72,1.29-1.41.04-2.09-1.11-2.02-2.39,0-.16-.08-.26-.23-.31ZM90.46,80.78c1.94-.46,2.56,3.24.31,3.13-.18,0-.35.19-.36.36-.05,1.03-.55,2.31-2.08,1.69-.35-.14-.75-.58-1.1-.78-.22-.13-.55-.16-.81-.16-1.44,0-1.66-1.4-1.68-2.53,1-.14,1.83-.68,1.72-1.72.79-.25,1.23-.74,1.38-1.41.82-.18,2.51-.3,2.23,1.04-.05.26.12.44.38.38ZM88.78,78.61c-.29,0-.58.03-.86.08,0-.16-.02-.32-.04-.48.73-.26,1.25-.62,1.49-1.3.04-.05.07-.1.11-.15.03.66-.39,1.28-.7,1.85ZM89.08,74.68c-.06.15-.18.28-.33.39-.26-.09-.55-.11-.84-.08-.05-.12-.1-.23-.16-.34.02-.02.04-.02.06-.05.28-.31.81-.56,1.17-.29.14.11.16.2.1.36ZM91.14,86.97c-1.54.97-3.31-.73-4.77-1.02-.57-.11-.64.35-1.36.1-.33-.12-.67-.38-.95-.7.03,0,.05,0,.08.01.27,0,.33-.44.03-.45-.16,0-.31-.04-.47-.07-.06-.11-.11-.22-.15-.32-.1-.33-.12-.7-.38-.96-.1-.08-.22-.15-.34-.21-.59-.34-.84-.91-.81-1.52.29.25.68.44,1.11.55v.47c0,.3.45.24.45-.03v-.34c.17.02.33.04.5.05.01,1.06.1,1.96.85,2.77.27.29.7.36,1.07.38.73.05,1.12.31,1.72.71.77.53,1.52.47,2.12.09.11.06.21.13.3.22.2.19.54-.15.34-.34-.08-.07-.16-.14-.25-.2.42-.41.71-.99.82-1.59.07,0,.13-.02.2-.03.09.51.39.88.77,1.11-.01.08-.03.15-.09.21-.2.23.09.52.29.29.09-.1.15-.21.19-.33.77.23,1.68-.04,2-.87.06.02.13.02.19.04-.38,1.58-2.38,1.29-3.47,1.98ZM96.09,79.51c.06.11.16.15.28.15.12,0,1.62-.15.86.68-.13.14-.16.32-.03.47,1.12,1.33-.26,1.42-.64,2.24-.44.94-.92,1.71-2.18,1.16-.24-.1-.5.08-.52.33-.12,1.21-1.8.8-1.96-.19.25-.14.44-.33.6-.55.21.22.54.3.89.24.26-.04.33-.5.03-.45-.25.04-.63.02-.67-.29.43-1.29-.28-3.09-1.77-3.19.07-.08.11-.17.11-.28,0-.16.01-.31.07-.46.17-.07.32-.26.27-.45.59-.69,1.78-.93,2.09.16.07.24.38.31.55.11.86-1.03,1.66-.36,2.03.32ZM92,76.08c.13.56.11,1.13.1,1.7-.29.1-.58.26-.83.47-.07-.77.27-1.57.73-2.18ZM97.95,72.16c-.24.46-1.23,1.66-1.35.47.19-.38.39-.75.6-1.12.01,0,.02,0,.03-.01.37-.23.8.03.82.43-.03.07-.08.17-.11.24ZM98.27,71.04c-.18-.16-.4-.25-.63-.27.25-.4.5-.81.76-1.2-.03.47-.05.98-.12,1.47ZM99.65,66.75s-.07.06-.1.1c-2.41,3.28-4.94,7.18-5.34,11.36,0,0,0,0,0,0-.08.05-.16.11-.24.18-.04-.07-.09-.13-.14-.19-.56-1.51.31-3.41.91-4.77.5-1.14,1.08-2.15,1.84-3.14.81-1.05,1.64-2.09,2.39-3.19.17-.25.46-.64.64-1.04.08.21.1.44.05.67ZM97.76,65.45c.5-.44,1.15-.27,1.55.15.02.73-1.42,2.31-1.73,2.71-.74.99-1.57,1.93-2.24,2.97-.68,1.06-1.19,2.34-1.61,3.52-.33.91-.62,1.99-.48,2.98-.15-.06-.32-.1-.48-.1.01-.7.04-1.4-.18-2.08-.05-.14-.16-.2-.28-.2-.09-.05-.19-.06-.3-.02-.1-.04-.22-.02-.33.11-.79.93-1.33,2.24-.98,3.44-.06.11-.12.23-.17.35-.23-.33-.63-.52-1.08-.61.47-.86.93-1.71.54-2.71-.07-.17-.32-.19-.45-.09-.02.02-.04.03-.06.05-.03-.21-.11-.38-.22-.51.46-.45.79-1.05.25-1.57-.62-.59-1.65-.23-2.15.33-.42-.42-.97-.58-1.48-.26-.01-.11-.03-.21-.07-.31,1.17-.73,2.81-.59,4.14-.81,1.15-.19,2.19-.71,3.14-1.37,2.11-1.46,3.23-3.91,4.66-5.96ZM98.22,58.84c.03-.5.07-1,.08-1.5.31-.03.58-.17.78-.41.1.21.27.37.53.44-.19.26-.27.62-.15.9-.16.06-.31.12-.44.18-.29.13-.6.33-.82.59,0-.07.02-.14.02-.2ZM98.35,59.6c.07-.46.88-.94,1.49-1,.04,0,.07,0,.11,0,.04,0,.08,0,.12,0-.14.11-.26.24-.37.4-.15.22-1.08,1.79-1.48,1.21-.07-.1-.09-.23-.09-.39.1-.02.21-.1.23-.22ZM96.21,60.28c-.25-.09-.48-.3-.68-.56.37-.27.67-.65.75-1.09.07,0,.13.01.2,0,.03.91-.03,1.73-.27,1.65ZM95.07,56.65c.39.22.83.26,1.2-.01.08.36.15.94.19,1.55-.09,0-.17,0-.25-.02-.03-.01-.05-.02-.08-.02-.17-.05-.33-.14-.45-.28.11-.12.21-.25.31-.39.17-.26-.21-.43-.37-.19-.07.11-.15.21-.24.31-.02-.03-.04-.05-.08-.07-.24-.1-.32-.29-.29-.55,0-.04,0-.08-.01-.1.04-.07.08-.13.1-.21ZM94.56,57.32c.05.24.19.45.43.56-.04.03-.08.05-.13.07-.27.12-.08.5.19.37.09-.04.18-.1.26-.15.15.16.33.29.53.36-.05.35-.27.63-.56.84-.17-.26-.31-.52-.43-.72-.23-.37-.43-.75-.64-1.12.12-.06.24-.13.35-.21ZM91.94,61.23c-.11-.08-.09-.24-.22-.5-.19-.38-.43-.63-.72-.85.14-.11.24-.25.33-.39.44-.17.91.49.92.88.01.3.46.24.45-.03-.02-.62-.57-1.34-1.19-1.33.05-.27.03-.56-.05-.84,0,0,.01,0,.02.01.21.07.41.06.6,0,.04,0,.08,0,.12-.01.09.58.6.94,1.03,1.33.05.56-.57,1.9-1.29,1.74ZM94.25,62.53c-.37.06-.97-.73-1.59-1.07.49-.34.85-1,.97-1.58.57.85.91,1.75,1.11,2.69-.14-.04-.3-.06-.49-.03Z" fill="#010101"/><path d="M100.98,52.44c-.05-.02-.07-.05-.05-.11.02-.12-.1-.22-.21-.21-.13,0-.22.12-.24.24-.04.21.06.37.25.48.23.14.49-.26.25-.4Z" fill="#010101"/><path d="M97.94,48.3c-.05.1-.1.2-.15.29-.14.27.24.45.37.19.05-.1.1-.2.15-.29.14-.27-.24-.46-.37-.19Z" fill="#010101"/><path d="M96.93,50.8c-.36,0-1.2.09-1.31-.39-.06-.29-.5-.11-.44.14.17.74,1.13.69,1.72.69.27,0,.34-.45.03-.45Z" fill="#010101"/><path d="M93.42,50.57c-.05-.29-.49-.12-.44.14.02.13,0,.21-.06.32-.16.26.22.44.37.19.13-.21.18-.41.13-.66Z" fill="#010101"/><path d="M92.54,52.81c-.21-.03-.44-.05-.49-.29-.06-.29-.49-.12-.44.14.08.41.41.52.78.59.26.04.43-.39.14-.44Z" fill="#010101"/><path d="M90.21,52.01c-.05.2-.17.27-.37.32-.27.06-.22.49.08.42.34-.08.63-.31.71-.66.07-.3-.36-.36-.42-.08Z" fill="#010101"/><path d="M89.07,58.66c-.09,0-.16,0-.2-.1-.12-.26-.51,0-.4.25.11.24.34.29.58.29.27,0,.33-.44.03-.45Z" fill="#010101"/><path d="M90.47,62.45c-.26.14-.53.18-.76-.03-.2-.18-.54.15-.34.34.38.35.86.3,1.29.07.26-.14.08-.52-.19-.37Z" fill="#010101"/><path d="M71.9,84.52c-.51.35-1.08.62-1.67.81-.29.09-.12.47.16.38.63-.2,1.24-.49,1.78-.87.25-.18-.04-.48-.27-.32Z" fill="#010101"/><path d="M69.18,85.99c-.54.4-1.07.8-1.61,1.18-.26.18.03.48.27.32.55-.38,1.08-.78,1.61-1.18.25-.18-.04-.49-.27-.32Z" fill="#010101"/><path d="M66.58,87.79c-.38.62-1.2.82-1.75,1.25-.24.19.04.5.27.32.64-.5,1.46-.71,1.9-1.43.16-.26-.29-.36-.43-.14Z" fill="#010101"/><path d="M74.03,87.46c-.59.34-1.29.38-1.91.66-.27.13-.11.51.16.38.66-.3,1.39-.36,2.02-.72.27-.15-.03-.46-.27-.32Z" fill="#010101"/><path d="M70.86,88.55c-.48.34-1.04.55-1.54.86-.26.17.03.47.27.32.5-.31,1.05-.53,1.54-.86.26-.18-.04-.48-.27-.32Z" fill="#010101"/><path d="M68.31,89.84c-.67.3-1.22.76-1.77,1.22-.24.2.05.51.27.32.52-.43,1.04-.88,1.66-1.16.28-.12.11-.51-.16-.38Z" fill="#010101"/><path d="M63.41,93.96c-.33.46-.89.71-1.33,1.04-.25.18.04.49.27.32.48-.35,1.07-.63,1.42-1.12.18-.25-.2-.46-.36-.24Z" fill="#010101"/><path d="M61.35,95.76c-.11-.07-.24-.03-.33.06-.31.3-.66.59-1.04.8-.26.14-.11.53.16.38.46-.25.87-.58,1.24-.95.09-.08.06-.23-.03-.3Z" fill="#010101"/><path d="M58.9,97.29c-.37.36-.88.56-1.33.78-.27.13-.11.52.16.38.53-.27,1.1-.5,1.53-.93.22-.22-.17-.43-.36-.24Z" fill="#010101"/><path d="M64.42,95.26c-.36.49-.83.86-1.19,1.35-.18.25.2.46.36.24.36-.49.83-.86,1.19-1.35.18-.25-.2-.46-.36-.24Z" fill="#010101"/><path d="M62.56,97.49c-.2.54-.77.86-1.22,1.17-.26.17.03.48.27.32.52-.35,1.15-.73,1.38-1.35.1-.29-.33-.39-.43-.14Z" fill="#010101"/><path d="M60.41,99.43c-.28.39-.74.58-1.14.81-.27.16.03.46.27.32.44-.26.93-.47,1.23-.9.18-.25-.2-.46-.36-.24Z" fill="#010101"/><path d="M52.76,44.12c-.11-.56-.6-.8-1.14-.81-.28,0-.39.42-.08.42.32,0,.68.11.75.47.06.28.52.18.47-.08Z" fill="#010101"/><path d="M38.21,48.67c-.63.13-.92.67-.77,1.28.07.26.51.07.44-.19-.08-.31.03-.61.37-.67.28-.06.27-.48-.04-.42Z" fill="#010101"/><path d="M35.9,51.05c-.32.17-.73.2-.87-.2-.09-.26-.53-.07-.44.19.22.62.95.67,1.47.4.27-.14.11-.52-.16-.38Z" fill="#010101"/><path d="M34.32,55.25c-.09-.1-.4-.34-.34-.5.03-.09.18-.16.25-.22.18-.13.33-.29.43-.49.31-.64-.21-1.29-.61-1.74-.18-.2-.57.07-.38.28.27.3.54.61.61,1.03.06.38-.27.55-.51.75-.47.38-.17.83.17,1.17.19.19.58-.08.38-.28Z" fill="#010101"/><path d="M32.75,50.89c.02-.25.05-.51.13-.75.11-.28-.33-.39-.43-.14-.1.28-.15.56-.17.85-.02.29.44.3.46.03Z" fill="#010101"/><path d="M49.57,43.25c-.36,0-.58.2-.8.46-.2.24.18.45.36.24.09-.11.2-.27.36-.27.27,0,.39-.43.08-.42Z" fill="#010101"/><path d="M59.48,41.39c-.87-.42-1.57.28-2.12.88-.21.23.17.44.36.24.35-.38.88-1.04,1.47-.76.23.11.56-.23.3-.35Z" fill="#010101"/><path d="M61.66,43.59c-.19-.28-.66-.3-.96-.36-.22-.04-.45-.07-.64-.18-.23-.12-.12-.34-.01-.52.15-.26-.29-.37-.43-.14-.27.46-.2.86.29,1.09.24.11.52.14.77.18.17.03.49.04.59.2.15.22.54-.05.38-.28Z" fill="#010101"/><path d="M63.15,44.79c0-.28-.47-.19-.47.08,0,.13-.04.24-.08.37-.11.28.33.39.43.14.08-.19.13-.37.13-.58Z" fill="#010101"/><path d="M63.99,42.28c-.54-.08-1.03.19-1.25.69-.12.28.32.38.43.14.14-.32.4-.46.74-.4.28.04.39-.38.08-.42Z" fill="#010101"/><path d="M66.07,45.6c-.08.19-.15.35-.28.51-.2.24.19.45.36.24.15-.19.25-.39.34-.61.11-.28-.32-.39-.43-.14Z" fill="#010101"/><path d="M40.48,56.19c-.11-.14-.1-.32-.05-.48.09-.28-.38-.28-.46-.03-.09.27-.05.57.13.79.16.21.55-.06.38-.28Z" fill="#010101"/><path d="M30.37,66.45c-.38-.09-.65-.4-.9-.68-.18-.2-.57.07-.38.28.3.34.63.7,1.08.8.26.06.49-.33.2-.4Z" fill="#010101"/><path d="M30.47,68.13l-.18.44c-.11.28.32.39.43.14l.18-.44c.11-.28-.32-.39-.43-.14Z" fill="#010101"/><path d="M57.93,40.39c-.18-.38-.49-.6-.9-.67-.28-.05-.39.37-.08.42.25.05.44.2.54.43.12.25.56.06.44-.19Z" fill="#010101"/><path d="M79.43,63.06c0-.43,0-.87-.22-1.25-.13-.24-.57-.05-.44.19.2.35.19.75.19,1.15,0,.28.47.19.47-.08Z" fill="#010101"/><path d="M89.41,102.05c.78.13,1.98-.03,2.31-.88.31-.78-.89-1.56-1.38-1.91-1.57-1.13-3.25-1.99-4.75-3.24-2.33-1.93-4.64-3.9-6.91-5.91-.54-.48-1.08-.94-1.61-1.4.31-.13.49-.41.62-.74.06-.14-.06-.41-.07-.44-.4-1.56-1.56-4-3.26-4.66-.2-3.19-2.11-5.85-3.28-8.74-.65-1.6-1.3-3.41-1.63-5.24.7.77,2.12.89,2.92.16.49.74,1.24.99,1.64.09.97.04,1.66-.67,2.69-.68.36,0,.55-.18.66-.42.47.54,1.08,1,1.77.8,1-.28.75-2.14.53-2.78-.44-1.32,1.32-1.57.94-2.72-.17-.5.16-.77.28-1.26.1-.41-.2-.76-.5-1.02.2-.22.39-.45.65-.58.14-.07.3-.26.21-.43.11-.45.23-.9.34-1.35.17-.08.33-.33.16-.5-1.05-1.03-.25-3.59-2.3-2.62-.02-.05-.04-.09-.06-.14-.02-.09-.06-.17-.1-.25-.24-.63-.42-1.27-.88-1.8-.11-.12-.65-.31-.63-.57.04-.51-.07-.98-.2-1.47-.47-1.82-2.24-2.49-3.88-2.12,0-1.34.44-3.17-.89-3.98-.74-.45-1.18-.05-1.44.55-.9-.59-2.13-.37-2.88-1.29-.16-.19-.38-.16-.57-.07-.62-.77-1.62-1.32-1.05-2.49.27-.54.18-1.16,0-1.71-.43-1.24-2.1-1.4-3.33-1.26-.02-.16-.18-.29-.37-.26-1.29.21-2.55-.13-3.16-1.41-.08-.17-.29-.22-.45-.15-.45.16-.78.02-.98-.43-.16-.28-.5-.2-.65.04-.2.32-.42.55-.6.82-.43-.41-.98-.61-1.61-.34-.18.08-.57.48-.54.49-.54-.19-1.08-.23-1.65-.22-.96.02-2.88.5-2.63,1.56-.57-.04-1.19,0-1.56.4-.11.12-.36.3-.34.51.05.46-.13.71-.38,1-.57-1.01-1.65-2.04-2.79-1.99-.75.03-.39.21-1.18-.15-.61-.28-1.22-.2-1.83-.57-.1-.06-.24-.07-.35-.02-.66.31-1.15.96-1.83.58-.28-.16-.76-.06-.96.19-.56.72-1.72-.76-2.61.2-1.44-.67-3.15,1.15-3.95,2.24-.14.19-1.64-.41-2.03-.44-.66-.06-1.08.39-1.35.91-.59-.23-1.06-.02-1.49.61-.6.86-1.01,1.01-2.04.68-.52-.17-.95.16-1.31.48-.14.13-.19.28-.08.45.24.35-.42,1.08-.59,1.49-.15.38-.14,1.45-.49,1.75-.11.09-.19.23-.12.38.67,1.57,1.4,3.57-.07,4.95-.13.12-.1.35.05.44.89.55.95,1.45,1.8,1.78-.2.32-.4.63-.63.93-.17.18-.05.49.21.5.67,0,1.15-.14,1.66-.46.18.29.38.55.58.85.1.15.37.13.49.03.56-.47,1.54-.27.88.58-.15.19-.33.37-.49.56-.41.46-.8.93-1.11,1.46-.18.31-.2.56-.11.75-1.31.33-2.27.98-2.71,2.39-.41-.1-.76-.05-1.17.23-.33.23-.77,1.71-.95,1.71-1.23,0-1.61,1.45-1.39,2.48-.8-.06-1.8-.13-2.15.69-.68,1.58.62,2.57,1.44,3.82.12.19.44.11.56-.03.03-.04.06-.07.09-.11.4,1.34,1.44,2.72,2.39,1.54.24.34.55.59,1.02.66.41.06.8.05,1.21.06.44.01-.81,1.28-.85,1.37-.62,1.43.45,2.17,1.65,1.85.17,1.16.68,2.36,1.59,3.09.11.09.33.06.43-.03.05-.04.09-.08.14-.12.47,1.06,1.51,1.4,2.69,1.13.07.38.16.78.39,1.07.29.37.97.62,1.06,1.03.04.18.19.29.38.26.3-.06.57-.09.84-.15.32.67.9,1.54,1.7,1.47,1.03-.09,1.32-1.47,2.06-2.04.99-.76,1.17.76,2.14.45.27-.08.32-.46.35-.69.03-.2.54-.48.92-.71.15.41.23.83.31,1.26.04.21.27.32.47.23.66-.32,2.35-.67,3.63-1.23.02.02.04.04.08.05,1.18.42,2.4.67,3.66.54.63-.06,1.2-.15,1.81-.34,1.75-.53,2.67.37,3.93,1.34,2.67,2.04,5.12,4.85,8.31,6.09-.06.12-.05.25.09.35.4.31.96,1.14.96,1.15-.98,3.28-5.17,5.2-8.02,6.55-.33.16-.23.56.04.6,0,0,0,0,0,0,1.29.97,2.02,2.36,2.83,3.72.09.15.28.24.45.15.48-.25.93-.54,1.38-.83.16.61.3,1.23.55,1.81.02.05.05.08.08.11.03.21.3.38.54.19,2.45-1.96,3.56-4.84,4.67-7.68,1.35,5.52,4,10.42,7.3,15,.09.13.52.31.71.26,2.5-.62,1.92-2.48.81-4.26-1.67-2.66-3.95-6.17-4.1-9.46,2.08,1.15,3.42,4.24,4.64,6.08,1.97,2.97,4.64,5.57,7.14,8.09.22.22.62.02.65-.22.93.14,1.11-.84,1.79-1.6.32-.36.99-.15,1.29-.55.29-.39.25-.77.12-1.18,1.22-.22,1.69-1.39,1.04-2.5,2.3-.83.58-2.94-1.66-4.89,1,.76,2.04,1.41,3.26,1.61ZM69.95,73.23c1.13,3.16,3.35,6.09,3.67,9.49-.2-.01-.41,0-.62.03,0,0,0,0,0,0-1.21-2.32-2.42-4.49-3.05-7.07-.28-1.14-.79-2.21-1.2-3.31-.35-.93-.64-1.88-1.27-2.66.17-.21.33-.41.45-.65.29-.56.71-1.43.36-2.03-.08-.14-.14-.28-.21-.41.06-.04.11-.11.11-.18.01-.76-.02-1.52.17-2.27,0-.02,0-.03,0-.05.02-.02.03-.04.05-.06.47-1.04-.24-1.9-.64-2.82-.02-.04-.04-.06-.07-.08-.08-.44-.02-.76.08-1.26.05-.24-.03-.43-.19-.59-.18-.19-.44-.22-.69-.17.03-.36.93-.25,1.15-.41.22-.17.3-.32.38-.58.05-.17.09-.35.13-.52.05-.43.23-.41.53.08-.06.09-.11.18-.14.29-.07.35.12.63.43.77.07.03.18,0,.23-.04.14-.12.3-.2.46-.29.14-.07.27-.16.39-.26.22.24.23.43.01.58-.17.19-.19.63-.04.82.18.23.4.24.68.22.92-.07.03,1.07-.02,1.42-.03.19.11.39.29.45.47.17.49.76-.08.82-.31.03-.6.03-.91.08-.79.14-1.34,1.19-1.6,2.03-.03.04-.05.08-.06.13-.03.13-.05.26-.07.39,0,0,0,0,0,0,0,0,0,0,0,0-.45,2.69.39,5.62,1.29,8.12ZM61.74,83.78c-.75-.56-1.48-1.1-2.15-1.75-.39-.38-.76-.69-1.26-.9-.06-.3-.1-.6-.16-.86-.07-.34-.12-.67-.18-1,.84,1.18,1.95,2.11,3.07,3.04.88.73,1.77,1.47,2.58,2.28.73.73,1.31,1.6,2.04,2.33-.11.09-.22.18-.32.27,0,0,0,0,0,0-1.25-1.09-2.28-2.41-3.62-3.41ZM65.01,87.49c-.09.08-.18.15-.26.23-1.63-.78-3.09-1.79-4.42-3.02-.63-.58-1.22-1.24-1.57-2.03-.13-.29-.23-.63-.31-.99.6.35,1.11.93,1.61,1.4.53.48,1.15.87,1.73,1.3,1.19.89,2.11,2.13,3.22,3.11ZM62.53,82.94c-1.6-1.37-3.41-2.61-4.48-4.46.03-.03.05-.06.05-.1.1-.52.14-1.37.33-2.1.47,1.43,2.34,2.82,3.19,3.69.95.97,1.69,2.08,2.54,3.14.82,1.03,1.84,1.87,2.58,2.97-.23.18-.46.36-.69.55-1.21-1.22-2.21-2.56-3.52-3.68ZM57.7,77.94c-.06-.2-.12-.41-.19-.61.03-.04.05-.08.05-.12.05-1.24.38-2.52-.09-3.71.4-.64.89-1.25,1.23-1.86.49-.27,1.03-.4,1.56-.57.19.69.78,1.47,1.34,1.18.2.29.76.06,1.1.23.09.04.18.07.26.09-.33.17-.8.32-.77.69.05.51.56.82-.44,1.04-.48.11-.99.11-1.48.14-.49.03-1.62-.01-1.91.52-.46.83-.51,1.99-.65,2.98ZM57.15,76.53s-.03-.06-.05-.09c-.47-.84-.33-1.63.05-2.38.2.8.09,1.64,0,2.47ZM65.06,83.42c-.8-.85-1.44-1.83-2.15-2.75-.76-.97-1.73-1.85-2.61-2.72-.62-.6-1.64-1.58-1.51-2.52,0,0,0,0,0-.02.13-.19.3-.34.51-.42.85.65,1.37,1.59,1.96,2.47.32.48.68.93,1.03,1.39.43.58.67,1.28,1.07,1.88.59.88,1.31,1.66,1.95,2.49.33.42.63.82,1.01,1.2.38.38.61.85.97,1.23-.06.04-.11.08-.17.12-.59-.87-1.34-1.6-2.06-2.37ZM66.97,84.44c-.36-.53-.91-.95-1.29-1.49-.78-1.09-1.71-1.99-2.34-3.19-.54-1.03-1.25-1.9-1.9-2.86-.48-.72-.92-1.43-1.55-2,.07,0,.15-.01.22-.02,0,0,0,0,0,0,.61.58.99,1.49,1.55,2.15.8.93,1.48,1.97,2.23,2.94.3.38.65.73.95,1.1.36.44.53,1.01.86,1.46.67.91,1.55,1.64,2.06,2.67.01.03.03.05.06.07-.05.04-.11.07-.16.11-.28-.29-.47-.62-.7-.95ZM66.52,82.8c-.69-.79-1.06-1.78-1.76-2.57-.8-.9-1.49-1.89-2.22-2.85-.44-.58-.99-1.12-1.34-1.77-.16-.29-.29-.54-.48-.78.45-.03.89-.07,1.33-.17.03,0,.07-.02.1-.03.03,1.12,1.62,2.71,2.09,3.49,1.38,2.31,3.11,4.35,4.82,6.41-.24.14-.47.28-.7.41-.05.03-.1.06-.15.09,0,0,0,0,0,0-.42-.86-1.07-1.52-1.7-2.23ZM62.87,73.94c.05-.25-.37-.61-.04-.82.3.44.69.89.76,1.42.01.1.01.2-.04.19-.1,0-.21-.05-.31-.09-.2-.08-.4-.19-.6-.28,0,0,0,0,0,0,.11-.11.19-.24.22-.41ZM65.09,78.64c-.42-.7-.81-1.4-1.3-2.06-.17-.23-.46-.56-.71-.92.99.42,1.89.88,2.72,1.61.74.66,1.39,1.42,2.01,2.2,1.05,1.33,1.46,3.04,2.42,4.39-.26.14-.52.29-.77.43-1.52-1.82-3.15-3.63-4.39-5.66ZM69.21,80.87c-.45-.82-.92-1.57-1.51-2.29-1.39-1.71-2.94-2.73-4.97-3.54,0,0,0,0,0,0-.02-.06-.04-.11-.06-.16.47.23,1.12.53,1.34-.04.25-.64-.36-1.36-.75-1.91.07-.04.12-.09.18-.14.39.46.52,1.08.91,1.56.23.29.56.17.74-.1.55-.84.82-2.36.52-3.31.41-.13.55-.6.6-.98.09-.65-.47-1.14-.99-1.44.45-.47.73-1.21-.03-1.62-.08-.04-.15-.07-.23-.1.27-.23.43-.61.44-.98,0,0,.02,0,.02-.01.69-.62.78.5,1.23.65.12.04.26,0,.37-.05.36-.12.49.53.67.73.88.96-.68,2.38-1.16,3.14-.49.77-.78,1.58-.82,2.5-.03.7-.24,1.53-.06,2.22.26,1.01,1.07,1.83,1.72,2.63.85,1.05,1.63,2.05,2.2,3.28.42.91.81,1.8,1.42,2.6-.11.05-.21.1-.32.16-.61-.83-.95-1.87-1.45-2.77ZM63.73,72.39c.21-.13.4-.32.53-.52.21.09.43.11.62-.09.19-.22.25-.4.32-.54.18.77-.08,1.7-.33,2.42-.03.09-.07.18-.11.26-.03.03-.04.06-.06.08-.15-.16-.24-.39-.33-.58-.17-.38-.35-.74-.64-1.03ZM61.75,67.39c-.59-.07-1.18.11-1.78.12.1-.21.21-.4.33-.58,0,0,0,0,0,0,.43-.08.86-.18,1.3-.23.46-.05.91.06,1.36.19-.36.19-.71.42-1.11.47-.04,0-.08.02-.11.04ZM61.63,67.81c-.29.34-.58.67-.89.99-.18.19-1.23,1.19-1.52.91-.28-.27.32-1.36.52-1.78.63.02,1.27-.2,1.89-.12ZM62.06,66.27c-.45-.05-.91.05-1.36.15,1.02-1.17,2.49-1.93,3.46-3.13.03.04.06.08.11.12.41.35.04.96,0,1.43-.01.13.07.18.16.28.07.06.14.11.23.15.45.27.33,1.26-.27,1.32-.03,0-.05.01-.08.02-.19-.02-.38-.02-.6,0,0,0-.01,0-.02,0-.54-.14-1.07-.3-1.63-.36ZM62.52,61.26c-.04-.22-.12-.37-.23-.56-.05-.08-.1-.16-.15-.24-.28-.43.03-.54.17-.33.2.32.48.4.82.15.22-.16.4-1.44.62-1,.08.17.25.36.44.46,0,.02,0,.03.02.05.54.83.72,1.84,1.15,2.73.12.24.56.06.44-.19-.41-.84-.61-1.77-1.06-2.58.32-.12.46-.32.8.09.22.27.63.23.88.07.12-.08.28-.12.44-.12-.93,1.07-.93,2.76-.83,4.1,0,.04.02.07.03.1-.06.1-.02.18.06.22-.03.36.09.7.24,1.02-.03,0-.05-.01-.08-.02,0-.02-.01-.03-.03-.05-.37-.42-.69-.88-1.1-1.26.04-.23-.1-.44-.25-.6-.39-.41-.15-.73-.19-1.19-.05-.56-.81-1.15-1.37-.92-.24.1-.35.3-.47.51-.25.5-.42.08-.54-.22.12-.02.24-.11.21-.24ZM60.56,62.29c-.09-.26-.12-.62-.4-.77-.14-.08-.29-.13-.43-.17,0,0,0,0,0,0,.09-.89-.59-1.82-.36-2.62.06-.21.09-.37-.12-.52.1-.3.21-.61.31-.91.16,0,.32.02.47.07.08.02.17.03.25.02.41-.07.49-.68.25-.96-.14-.17-1.23-.82-.31-.57.35.1.68.29,1.03.38.13.03.38-.06.33-.24-.05-.18-.09-.33-.14-.51-.3-.6-.03-.79.83-.56.07.16.13.33.19.5.11.32.33.81.72.89.99.21,1.68-.97,2.32.29,0,.02-.02.04-.03.06-.05.12-.28,1.48-.66.98-.79-1.05-1.31.34-1.27,1.13-.45.17-.76.72-.67,1.16-.03-.12-.49-.52-.63-.56-.22-.07-.45.1-.61.22-.5.38.09,1.06.35,1.52-.32-.1-.75.1-.89.38-.06.13-.25,1.52-.5.8ZM58.07,67.8c.11-.01.23-.03.33-.06-.07.61-.13,1.32-.47,1.83-.43-.53-.46-1.08.08-1.64.04-.04.06-.09.06-.13ZM57.81,67.4c-.34.03-.69.03-1.03.05-.21.01-.39.05-.56.11.55-.54,1.13-1.04,1.69-1.57.09.19.3.35.43.46.98.84-.27.92-.53.94ZM56.76,64.44s.12-.49.06-.6c-.13-.25-.37-.57-.71-.49-.6.14-.82.44-1.23-.28-.04-.06-.07-.11-.11-.15.05-.08.05-.18-.05-.26-.45-.37-.93-.68-1.24-1.21-.56-.33.05-1.03.91-.4.04.04.08.07.12.09.11.08.24.02.33-.06.13-.12.22-.31.2-.49-.03-.32-.03-.29-.14-.59-.17-.39.37-.66.48-.05.02.1.06.18.13.26.08.15.29.16.4.02.42-.51.43-.11.56.19.08.18.36.31.53.32.1,0,.2,0,.3-.03.44-.17.25.34.08.53-.12.13-.29.39-.21.58.3.71,1.46.04,1.2.99-.05.19.12.41.26.5.12.08.12-.06.42.12.3.18-.08.46-.26.47-.64.06-1.71.7-2.04.53ZM52.17,70.07c-.18-.31-.31-.71-.69-.83-.29-.09-.63-.03-.85.18-.22.21-.54.06-.86-.14.75-.53.86-1.99.87-2.8,0-.34-.03-.62-.09-.88.22.16.71.28.58.52,0,0,0,0,0,.01-.02.03-.03.06-.03.09-.04.45.19.56.55.74.2.1-.11.62-.12.78-.02.18.06.37.18.5.48.5,1.29-.38,1.72-.64.02,0,.04,0,.05,0,.04.1.07.21.09.32-.02.13.16.41-.69,1.92-.06.1-.13.2-.18.3-.13.1-.3.1-.45.11-.01-.07-.03-.14-.06-.19ZM51.95,70.91s-.03.03-.05.05c-.14.15-.29.29-.45.42-.44.35-.81-.31-1-.62-.12-.19-.23-.38-.35-.57.21.06.44.05.69-.07.34-.17.38-.42.65.11.11.22.09.18.1.41,0,.12.1.21.2.24.07.02.13.03.2.04ZM50.34,65.08c-.12-.22-.27-.44-.48-.68-.1-.12-.21-.2-.33-.28-.05-.26-.11-.53-.17-.79,0-.03.01-.07,0-.11-.02-.08-.05-.15-.08-.23-.27-1.25-.56-2.5-.67-3.78,0-.09,0-.15-.01-.27-.01-.06-.03-.12-.04-.18-.12-.27.02-.33.41-.17.07.35.13,1.03.67.97.21-.02.26-.06.41-.21.61-.61.29.72.29.72-.03.07-.07.17-.05.24.01.05.03.09.05.13-.12.25-.13.52-.14.79-.01.5-.19.98-.36,1.44-.11.28.33.39.43.14.15-.39.27-.79.38-1.19.09-.32-.01-.66.09-.97.17,0,.35-.03.51-.09.11-.04.22-.08.32-.13.31-.13.65.16.29.38-.22.14-.19.36-.16.57.02.14.16.17.27.22.96.38.3,1.09-.05,1.54-.28.09-.51.3-.48.63.05.53-.14.53-.58.67-.21.07-.44.19-.51.43-.02.08-.03.14-.04.21ZM45.17,63.8c.02.29.58,1.32-.42,1.02-.25-.08-.48-.07-.67,0,.03-.67.04-1.46-.61-1.79-.47-.24-1.08.09-1.07.61.02.83.07.52-.45.25-.17-.09-.52-.17-.72-.09-.19.08-.24.2-.27.39-.03.14.04.35.07.48.01.05-.42-.04-.58-.06-.42-.06-1.13-.13-1.46.24-.01,0-.03-.02-.04-.03.31-.29.72-.75.31-1.04-.3-.22-.67-.29-.94-.56-.36-.35.6-.83.75-1.04.31-.44-.73-1.81-.61-1.86.44-.2,2.18.31,2.07-.77-.03-.31-.29-.52-.49-.71.13-.19.25-.39.38-.58.14.04.28.1.41.16.25.1.49.22.76.29.85.22,1.1-1.32,1.97-.52.39.35.2,1.58,1.16,1.18.36-.15.5-.6.7-.9.22-.34.31.95.32.9-.02.32-.11.65-.26.93-.08.17.05.27.19.27-.1.18-.16.39-.23.56-.32.85,0,1.45.6,1.99-.24.04-.46.13-.62.25-.13.1-.27.27-.25.45ZM43.48,67.81c.28-.52.6-.6.98-.24.31.19.47.55.6.87.16.38.23.81.34,1.21.16.59.35,1.12.81,1.51.06.21.16.38.37.49.13.07.19.1.27.18-.07.04-.15.07-.22.11-.23.12-.24.36-.14.5.01.12.09.24.27.27.02,0,.04,0,.07.01-.15,0-.3,0-.45-.01-.47-1.18-1.66-1.55-2.54-2.36-.19-.18-.59.09-.38.28.78.72,1.87,1.11,2.38,2.07-1.57-.03-3.12-.1-4.26-1.19-.19-.18-.58.09-.38.28,1.28,1.22,2.95,1.25,4.62,1.29-.41.92-1.04,1.88-2.15,1.89-.27,0-.39.43-.08.42,1.39-.01,2.21-1.13,2.71-2.3.24,0,.48.02.72.03,0,0-.01,0-.02,0-.23.02-.35.25-.3.45.09.36.08.31.32.6,0,0,0,0,.01,0,.01.06.06.12.12.16.1.59-.13,1.19-.51,1.72-.35.5-1.17,1.25-1.89.99.06-.17-.08-.36-.28-.25-.02.01-.03.02-.05.04-.3-.3-.44-.81-.81-1.07-.2-.14-.68-.12-.87.04-.15.13-.27.28-.4.44-.43.53-.49-.92-.49-.97,0-.17-.2-.19-.31-.15-.23.07-.55.19-.83.23-.05-.21-.32-.19-.43-.06-.16-.11-.22-.35-.08-.85.05-.18-.18-.27-.31-.21-.81.39-.46-1.16-.48-1.48-.01-.3-.48-.24-.37-.67.07-.24.16-.57.13-.81-.04-.47-.68-.18.17-.9.19-.16.31-.31.37-.56.02-.07.04-.12.08-.16.11-.02.23-.05.36-.1.08-.03.13-.09.14-.15.39-.08.85-.1,1.03-.48.16-.33-.38-.86.73-.6.23.06.5.17.75.14.4-.04.67-.27.66-.69ZM47.06,70.95c.21,0,.37-.04.54-.16.22-.16.25-.38.19-.59.02.02.04.05.06.07.11.13.23.24.36.35.32.26.68.52.9.88.43.74-.76.73-1.59.65.09-.09.15-.19.12-.31-.08-.33-.46-.96-.91-.73,0,0,0,0,0,0,.06-.02.11-.04.17-.07.05-.02.24-.1.16-.1ZM47.84,77.13c1.1-.79.77-2.47-.27-3.43.25-.03.5-.04.75-.05.45.55.97,1.02,1.55,1.44.05.24.08.49.11.72.06.45.13.88.22,1.32-.77-.03-1.6-.16-2.35.02ZM50.27,77.55s.02,0,.03,0c.07.28.15.57.26.85.29.77,1.3,1.79-.2,1.97-1.23.15-1.9-1-2.43-1.99-.05-.1-.14-.15-.24-.16.01-.19,0-.39-.05-.59.79-.34,1.82-.1,2.64-.08ZM42.31,78.29c-.48.39-.68.4-.59.04,0-.1,0-.22-.04-.31-.13-.25-.28-.45-.53-.58-.35-.17-.78.23-.77.58.02.58.72,1.16-.54,1.52-1.02.29-.03-1.32,0-1.39.09-.3.06-.48-.06-.77-.16-.36-.57-.53-.1-.82.51.02.87-.2,1-.6.24-.02.47-.17.71-.29,0,.61.12,1.2.87,1.15.41-.03.75-1.07,1.28-.49.26.29.39.6.62.85-.11.33.07.74.14,1.14.06.35-.57,1.14-.82.58-.08-.17-.11-.37-.19-.54-.13-.29-.42-.36-.7-.37-.17,0-.31.14-.26.31ZM36.77,79.2c-.04.34-.04.37-.02.71-.39.86-.6.97-.65.32-.04-.19-.03-.37.04-.54.07-.25-.18-.49-.41-.52-.23-.03-.48-.05-.6.2-.52,1.06-.56-.25-.61-.58-.03-.18-.29-.28-.45-.27-.22.02-1.14.61-.94.13.11-.25.2-.57,0-.8-.11-.13-.26-.18-.41-.25-.4-.07-.39-.34.03-.81.09,0,.17,0,.26,0,0,.02,0,.04,0,.06-.06.43.42.77.82.7.99-.17,2.14.42,3.02.8.56.24.98.18,1.26-.06.12.24,0,.54-.4.89-.33-.12-.32-.12-.66-.18-.11-.02-.26.08-.27.2ZM33.29,80.42c-.08-.04-.16-.09-.22-.15,0-.1-.08-.18-.18-.2-.14-.2-.2-.45-.17-.69.2.15.55.17.83.05.24-.1.46-.57.49-.1,0,.07,0,.16-.02.26-.05.02-.09.05-.12.1-.28.46-.18,1.01.22,1.34,0,.01,0,.03.01.04-.04,0-.09,0-.14.01-.42.17-1.12.08-1.09-.36.06.04.12.07.18.1.25.11.47-.28.2-.4ZM31.46,78.34s.01-.04.01-.06c0-.37,0-.77-.32-1.02-.22-.17-.57-.1-.82-.05-.39.08-.93.18-1.03-.35-.06-.32.2-.66.46-.91.06-.02.12-.05.17-.07.35-.17.57-.54.69-.94,0,0,0,.01,0,.02.31.39.71.23,1.08.02.34.56,1.03.84,1.24,1.4-.57,0-1.07.04-1.27.7-.1.32.16.59.39.75.12.09.31.13.45.18.41.15.16.54.07.79-.41-.03-.82-.08-1.22-.15.05-.09.08-.19.09-.3ZM33.09,71.35c-.04.1-.01.18.06.25-.01,0-.07.02-.14.07,0-.12-.03-.22-.14-.31-.23-.18-.48-.15-.72-.06-.38.14-.15-.28.09-.32.15-.02.34-.06.46-.15.25-.18.28-.44.25-.72-.07-.7.62-.51,1.08-.55.92-.08-.06-2.3,1.2-1.25.06.05.13.05.19.03.05.19.14.38.27.52-.05,0-.11.01-.16.03-.97.27-.55,1.07-.25,1.71-.27.1-.48.21-.67.42-.13-.32-.35-.51-.79-.53-.5-.02-.59.55-.74.88ZM32.73,72.84c-.05.05-.08.11-.1.17-.23-.09-.13-.32.03-.58.09.13.2.26.07.41ZM33.9,68.47c-.35-.04-.71-.13-.97-.38-.42-.4.55-.54.71-.59.42-.13.46-.52.36-.88-.27-.95-3.02-.87-2.27-1.98.52-.55,1.76.17,2.5-.25.3-.17.48-.5.63-.79.41-.76.95-.46,1.44-.86.61-.51-.07-1.2-.33-1.64-.41-.7.74-.7,1.01-.84.13-.06.27-.16.34-.28.06-.09.12-.17.17-.26.19-.33.54-.28,1.05.13-.43.1-.8.3-.7.7.1.4,1.23,1.16.7,1.58-.3.24-.64.26-.81.65-.53,1.2,1.96.82.72,1.94-.11.1-.14.24-.01.34.12.09.17.14.24.17-.56.16-.46.83-.43,1.48-.17.08-.25.04-.23-.13-.02-.12-.05-.22-.1-.34-.05-.15-.22-.29-.37-.31-.56-.08-.77.2-.78.74,0,.26.07.46.2.69.12.2.03,1.01-.11.57-.05-.15-.08-.28-.15-.42-.13-.29-.54-.44-.83-.32-.29.12-.44.37-.48.64-.28-.24-.66-.52-1.02-.32-.45.26-.56.55-.49.97ZM34.56,63.21c-.38.5-.5,1-1.23.96-.28-.01-.58-.11-.86-.16-.11-.02-.21-.02-.3-.02,0-.02,0-.05,0-.08-.18-.69,1.48-.68,2.4-.71ZM35.44,61.73l.41.17s.01,0,.02,0c.11.32.14.59-.08.64-.27.07-.49.12-.69.21-.02,0-.04,0-.07,0-.19.04-.5.05-.86.06-.18-.66.66-1.22,1.26-1.08ZM38.9,65.62s.01.04.02.06c.13.29,1.38,1,.63,1.34-.86.39-.95.7-.85,1.35-.58.02-1.23.1-1.28.77-.03.36-.1.61-.23.83-.14-.46-.45-.86-.85-1.04.02-.09,0-.18-.12-.23-.35-.16-.38-.52-.33-.84.08-.51.47.02.53.25.08.27.21.42.49.38.25-.03.55-.43.61-.65.13-.48-.25-.78-.28-1.25.24-.05.35.02.34.21.01.06.03.13.05.19.05.11.09.21.19.28.22.14.51.06.7-.08.49-.36-.18-1.46.38-1.57ZM38.48,71.19c.23.43.16.66.02,1.17-.08.28.45.45.44.68-.02.39-.08.76-.05,1.15.04.54.4.67.8.59,0,.41.18.83.54,1.07,0,0,0,0,0,0-.06.18-.22.24-.42.25-.04-.02-.08-.02-.12,0-.53-.05-1.27-.41-1.53-.37-.38.05-1.19,1.35-.96.53.26-.94-.1-2.01-1.21-1.67-.08.04-.16.09-.23.15-.24.31-.46.18-.66-.37.19-.29.48-.59.77-.77.38-.22,1.18-.66,1.13-1.23-.05-.51-.79-.39-.2-1.28.26-.4.72-.67,1.02-1.05.12-.15.21-.4.19-.59-.05-.56.33-.62.78-.64,0,.02,0,.03.01.05.08.4.22.65.42.77-.22.32-.41.69-.65.94-.22.22-.22.4-.09.63ZM34.18,73.47c-.06-.15-.06-.16-.18-.27-.27-.26.49-.75.65-.86.23-.16.25-.34.25-.58,0-.56.21-.68.78-.87.11-.04.19-.18.14-.28-.06-.15-.13-.3-.21-.44-.33-.62.96-.85,1.15.03.02.08.08.13.14.15-.08.09-.17.17-.27.27-.37.35-.5.7-.52,1.18-.03.55.73.58-.07,1.18-.37.28-.7.46-1.03.8-.42.44-.86,1.09-.25,1.54.27.19.61.14.88.03.14-.06.27-.2.38-.3.45-.4.67.14.74.55-.38.13-.55.51-.74.86-.46.87-.91.41-1.22-.36-.23-.57-1.14-1.27-.81-1.97.08-.16.25-.46.18-.65ZM36.76,76.03c-.11.38-.41,1.35.29,1.17.42-.11.63-.25.84-.64.05-.1.13-.16.21-.2.37.81-.04,1.31-1.24,1.49-.31-.17-.57-.26-.92-.34-.08-.02-.16-.04-.23-.06.6-.17.59-1.14,1.06-1.4ZM34.28,71.54c.01.06.04.1.08.12.06.35-.3.57-.53.78-.22.2-.48.53-.34.85.24.58-.17,1.01-.16,1.6,0,.17.22.36.33.46.42.4.63.73.84,1.27.06.16.17.34.31.49-.12-.03-.25-.06-.38-.06-.23-.01-1.02.23-.94-.4.03-.22.06-.36-.03-.57-.17-.41-.8-.72-1.1-1-.5-.45.36-.99.54-1.35.14-.26.4-.74.46-1.05.04-.22-.38-.42-.17-.58.23-.17.28-.37.35-.65.02-.08-.02-.15-.08-.19.14.12.77.07.81.27ZM38.4,77.92c.23-.45.26-1.07.14-1.62.18.02.38.08.56.14-.16.14-.26.32-.24.57.01.11.13.21.22.25.73.27.07,1.26-.18,1.6-.01.01-.02.03-.03.04-.01-.32-.21-.67-.48-.97ZM43.61,66.9c-.21.11-.51.23-.56.51-.15.74-.74.53-1.29.45-.97-.13-.77,1.22-1.43,1.12-.31-.05-.54.05-.74.22-.18-.09-.28-.29-.34-.51.1-.12.1-.3-.08-.32-.02-.09-.04-.17-.05-.23-.17-.65.6-.63.88-.85.21-.17.43-.45.31-.75-.11-.26-1.34-1.34-.74-1.51.57-.16,1.21.15,1.79.1.11,0,.24-.13.21-.25-.3-1.3.6.14,1.05-.2.19-.15.3-.39.34-.63.02-.11.02-.25-.02-.35.5.04.73.25.68.65.01.23,0,.45,0,.68,0,.04,0,.08.02.11-.4.47-.43,1.29.09,1.75-.04.01-.08.01-.11.03ZM45.77,61.89c-.05-.3.15-1.31.56-1.33.26,0,.47.25.72.29.01,0,.02.02.04.03.81.37,1.44,1.38,1.75,2.24.05.25.11.5.16.75-.04-.01-.07-.02-.11-.04-.64-.17-1.08-.2-1.68-.59-.16-.11-.38-.17-.61-.19,0-.06-.01-.12-.08-.17-.34-.27-.68-.56-.75-1.01ZM47.67,60.29c.1-.15.19-.31.16-.48-.05-.25-.5-1.22-.25-.93.17.2.32.59.6.64.07.67.18,1.32.31,1.98-.28-.35-.6-.66-.96-.88.05-.08.09-.17.12-.27,0-.02,0-.04,0-.06ZM51.23,64.79c.21-.04.38-.09.56-.21.48-.31-.15-1.38.7-.9.51.29.75-.47,1.28-.35.01,0,.03,0,.04,0-.23.32-.42.68-.51.76-.15.13-.48-.18-.66.07-.29.4-.38.84-.29,1.33.09.52.49,1.01.77,1.44.06.09.11.18.16.27-.21.11-.39.25-.58.39-.16.12-.94.67-.69-.01.1-.28.3-.48.13-.78-.13-.22-.61-.26-.59-.54,0,0,0,0,0,0,.19-.35.09-.6-.26-.77-.15-.07-.31-.13-.43-.25-.37-.34.27-.43.38-.45ZM53.89,64.06c-.17.93-.18,1.87-.24,2.81-.22-.36-.49-.7-.68-1.05-.06-.11-.42-1.46-.05-1.32.13.05.23.08.37.06.27-.05.45-.29.6-.51ZM54.52,63.39s.01.01.02.02c.12.2.18.39.32.58.02.02.03.04.05.05-.3.65-.4,1.31-.49,2.05-.06.52-.19,1.01-.36,1.48.13-1.4.04-2.83.46-4.18ZM58.16,61.75c-.27-.12-.45-.24-.25-.47,1.09-1.2-1-1.09-.99-1.2.03-.22,0-.38-.1-.5.06-.04.11-.11.12-.19.04-.72.3-1.39.56-2.05.11-.28-.32-.39-.43-.14-.28.7-.53,1.4-.59,2.16,0,0,0,0-.02,0-.25-.09-.49.13-.67.34-.2-.44-.39-.83-1.05-.66-.64.17-.38,1.46-.12,1.59-.4-.2-1.26-.41-1.56.08-.53.87.54,1.66,1.19,2.17-.06.04-.12.09-.18.14-.02-.03-.05-.06-.12-.08-.28-.06-.45-.05-.71.09-.43.25-.36.22-.73.1-.01,0-.02,0-.03,0,.37-.5.84-1.23.36-1.66-.25-.22-.77-.27-.35-.56.18-.12.3-.49.21-.69-.12-.27-.26-.34-.55-.36-.12,0-1.38.36-1.32.19.07-.2.14-.58.1-.88.37-.2,1.04.11,1.27-.36.31-.66-.2-1.03-.74-1.33-.54-.3.56-.21.81-.21.22,0,.41-.03.6-.13.27-.14.36-.54.15-.77-.19-.21-.41-.37-.62-.56-.16-.11-.19-.26-.09-.46.21.13.41.3.61.44.32.21.92.3,1.14-.12.13-.26.14-.45.11-.73-.07-.72.76-1.5,1.34-.93.16.16.3.35.43.53.41.53.79,1.01,1.48,1.11.09.01.22-.05.25-.14.13-.34.26-.66.47-.96.54-.77.95.82,1.06,1.23-.04.14-.04.31.06.41.17.19,1.19.74.57.68-.75-.07-1.41.55-1.3,1.3.02.13.14.2.24.27.18.13.02.41-.02.56-.05.19.13.49.19.66.2.55.37,1.02.32,1.62-.4,0-.8.14-1.1.47ZM65.77,57.49c.06-.26.08-1.15.52-1.04.1.03.33.1.36.18.09.21.2.41.47.43.1,0,.2-.06.28-.1.46-.23.88-.5,1.44-.36.14.04,1.77,0,1.32.61-.22.3-.26.5-.2.8-.29.19-.29.09-.52.3-.04.04.2-.73.19-.84-.04-.39-.35-.66-.72-.76-.63-.16-.81.83-.91,1.22-.22.89-1.81.15-1.57,1.34,0,0,0,.02.01.02-.11.07-.2.14-.27.22-.19.23-.51-.51-.67-.55-.34-.08-.54-.08-.81.16-.42.36-.47-.1-.7-.31,0,0,0-.01,0-.02-.01-.1.03-1.29.32-1.02.1.09.13.25.25.33.31.2.53.12.85-.03.23-.1.29-.37.35-.59ZM67.8,62.32c.26.51.44,1.04.19,1.6-.02.04-.02.08-.02.11-.03.03-.06.06-.07.1-.17.64-.17,1.3-.17,1.96-.08-.07-.16-.13-.27-.17-.05-.02-.17,0-.29,0-.21-.57-.72-1.18-.6-1.81,0-.05,0-.09-.01-.12.42-.65,1.06-1.04,1.25-1.67ZM67.01,62.86c-.19.22-.38.4-.56.6-.06-1.15-.03-2.6.77-3.45.03.07.04.15,0,.25-.09.34-.12.57-.06.92.12.67.62.78-.16,1.68ZM63.18,62.08c.15-.32.3-.8.86-.18.3.33.06.58-.01.85-.6.86-1.51,1.39-2.3,2.06.08-.44.21-.87.47-1.25.31-.45.76-.76,1.01-1.26.05-.09.02-.17-.03-.21ZM65.15,65.05c-.33-.23-.3-.43-.21-.66.25.26.47.54.7.82-.1.03-.2.06-.3.12-.04-.11-.09-.21-.19-.28ZM69.5,79.69c-.59-1.11-1.52-2.06-2.3-3.04-.51-.65-1.03-1.25-1.14-2.1-.06-.51.07-1.03.09-1.54.01-.3.05-.58.1-.86,1.21,1.53,2.05,3.47,2.85,5.24.43.95.73,1.97,1.14,2.94.41.99.95,1.9,1.45,2.84-.09.04-.18.08-.28.12,0,0,0-.02-.01-.02-.85-1.07-1.27-2.38-1.91-3.58ZM70.68,80.15c-.48-1.08-.81-2.22-1.3-3.3-.8-1.77-1.66-3.66-2.9-5.17-.03-.04-.07-.05-.11-.06.09-.31.21-.62.37-.92.12-.21.27-.41.42-.6.61.82.9,1.82,1.25,2.77.46,1.23.95,2.4,1.24,3.69.5,2.28,1.79,4.28,2.85,6.32-.13.04-.25.08-.38.12-.5-.95-1.02-1.87-1.46-2.85ZM72.71,56.6c.03-.22,0-.27-.07-.48-.14-.36.16-.33.26-.65,0-.02,0-.03,0-.05.3.1.6.2.91.23-.06.73,1.19,1.31.69,1.89-.21.25-.21.43-.04.7.05.08.22.12.3.13.18.15.21.33.11.54-.01.02-.03.03-.03.05-.03.05-.06.1-.1.16-.15.1-.3.13-.48.11-.07,0-.14,0-.21-.02-.05-.13-.23-.17-.35-.09-.89-.28-1.84-1.01-2.51-.59.05-.09.09-.17.09-.24.02-.64-.45-.7-.88-.55.03-.22.19-.42.31-.62.45.24.92.4,1.46.31.46-.08.48-.48.53-.85ZM76.95,55.14c.13.05.27.09.43.1.14.54-.93.8-.86,1.4.03.22.07.45.27.59.19.13.69.24.85.46-.33.27-.66.77-.82,1.14-.44.02-.89-.29-1.27-.46-.07-.03-.13-.02-.19,0,0-.01,0-.03-.01-.04-.08-.22-.53-.49-.28-.66.69-.49-.87-1.57-.77-2.06,0,0,0,0,0-.01,0,0,0,0,.01,0,.61-.22,2.5.56,2.65-.46ZM78.11,60.61s.46.37.41.45c-.03,0-.06,0-.1.01-.02,0-.04,0-.06-.01-.3-.08-.58-.36-.91-.35-.37.01-.68.22-.64.63.06.67,1,.74,1.24,1.29.11.24-1.6-.41-1.76-.5-.01,0-.03,0-.04-.01-.11-.16-.36-.24-.66-.27.06-.36,0-.77.25-1.01.16-.15.66-.33.68-.6.06-.83-.79-.71-1.17-1.18.03-.08.05-.16.06-.24.49.23,1,.54,1.56.41.14-.03.3-.21.17-.35.11.12-.02.24.11.03.08-.13.17-.26.26-.39.1-.14.26-.45.41-.55.02,0,.03-.02.04-.02-.07.13-.07.29,0,.5.1.27.38.51.55.75.34.47.4.31,0,.35-.32.03-.71-.37-.96.04-.4.63.16.65.53,1.03ZM77.78,61.28c-.1.05-.19.11-.27.18-.03.02-.04.05-.06.07-.07-.1-.06-.22.04-.37.1.02.2.07.3.12ZM78.19,64.05c.22.47-.17.9-.61.74-.03-.2-.15-.41-.38-.65-.03-.03-.07-.05-.12-.06,0-.19-.05-.39.07-.62.02-.03.02-.07.02-.1.2-.03.4-.07.6-.12.11.28.29.52.42.8ZM74.4,65.35c-.09.02-.15.08-.18.15-.28.09-.53.13-.25-.24.23-.3.43-.58.49-.95.15-.15.21-.23.18-.49,0-.04-.02-.08-.03-.12.69-.12,1.38-.18,2.07-.28-.05.3-.06.94-.35.86-.29-.08-.54-.02-.84,0-.3.03-.51.15-.74.34-.21.17-.13.65-.36.7ZM72.67,64.48c-.01.07,0,.13.01.19.19.5-.57.49-.86.26-.26-.19-.45-.28-.76-.32-.78-.11-.89,1.14-1.77.98.03-.28.07-.56.13-.84.03-.14-.03-.23-.12-.28.25-.69.7-1.43,1.35-1.54.46-.08.91-.03,1.35-.19.52-.19.63-1.12.08-1.33-.64-.25-.22-.52,0-.89.25-.05.54-.04.82.03.05.08.17.13.29.09.57.24.94.72.38,1.33-.12.13-.02.32.14.33.18.02.37-.03.56-.05.14-.02.28-.04.42-.05.13,0,.26-.02.4-.02.01,0,.02,0,.03,0,.06.06.16.08.26.06.08.07.12.2.12.38-.6.1-1.28-.09-1.8.31-.08.06-.15.21-.05.3.07.06.24.28.34.46,0,0,0,0,0,0,.09.18.1.31-.18.2-.19-.08-.42.13-.56.09-.24-.08-.57.28-.58.5ZM71.9,59.46c-.18-.16-.44-.13-.66-.12-.03,0-.06,0-.09,0,.38-.95,1.41-.25,2.39.14-.09.25-.2.5-.39.69-.31-.09-.64-.13-.95-.1-.02-.24-.14-.47-.31-.62ZM75.17,61.82c-.35,0-.71.03-.98.05.34-.64-.02-1.2-.61-1.52.17-.21.29-.46.39-.73.43.12.84.12,1.15-.18.09.08.19.14.31.2.16.08.91.33.57.57-.22.16-.51.3-.65.55-.19.33-.09.71-.18,1.05ZM74.34,63.11c.45-.09,1.59.15,1.88-.37.02-.04.03-.08.05-.11.19.11.45.24.72.35-.88.13-1.76.19-2.63.36-.09-.11-.14-.2,0-.22ZM78.07,57.42s-.01,0-.02,0c-.04-.07-.09-.13-.17-.17-.36-.19-1.33-.51-.57-1.1,0,0,0,0,.01,0,.02.01.05.02.08.02.46.04.79.4.95.81.05.13.1.32.05.46-.05.14-.23.03-.33-.02ZM72.39,68.11c-.12.02-.24.1-.29.2-.6,1.34-2.42.39-2.36-.68.01-.27-.27-.3-.48-.19-.03-.47-.03-.93,0-1.4.5.07.83-.11,1.22-.52.86-.9,1.42.49,2.39.13.24-.09.33-.26.41-.47.04-.12-.07-.73-.18-.76.28.09.54-.08.83.04-.23.46-.87,1.02-.5,1.44.09.1.28.13.41.12.14-.01.26-.04.4-.08.07-.02.14-.04.2-.06.29-.15.33-.03.11.34-.17.07-.47.14-.6.31-.12.06-.17.22-.1.32-.04.36.05.7-.44.81-.44.1-.79.18-1.03.46ZM74.61,68.35s-.06.09-.06.13c-.17.06-.37.08-.64.01-.22-.05-.43.06-.49.28-.38.29-.6.14-.66-.43.4-.45,1.43-.16,1.58-.92.03-.14-.02-.3-.04-.43,0,0,0,0,0-.01.17.05.34.11.51.16-.1.4.15.88-.19,1.21ZM75.11,66.78c-.17-.05-.35-.1-.52-.16.12-.05.24-.08.31-.11.27-.11.35-.35.39-.61.05-.29-.1-.44-.3-.5.01-.04.02-.08.02-.12.01-.52.67-.7,1.13-.57.28.08.52.04.74-.16,0,0,.01-.01.02-.02.27.3.26.48-.14.69-.22.11-.41.26-.61.41-.14.1-.22.24-.31.38-.11.19-.25.68-.42.85-.04,0-.07-.02-.11-.03-.05-.04-.12-.05-.19-.04ZM80.46,60.11c-.29.22-.45.49-.8.76-.17.13-.2.37-.02.51l-.03,1.56c-.09.1-.11.29-.01.39.38.38-.98,1.53-.93,2.12.04.46.31.89.39,1.37.21.59-.02,1-.7,1.23-.41-.26-.71-.72-.99-1.11-.19-.27-.65-.02-.64.27.05.88-.56.56-1.12.71-.15.04-.27.1-.39.17.02-.08.03-.17.03-.26,0-.17-.07-.39-.03-.57.02,0,.04,0,.05.01.05.05.13.06.22.02.02,0,.05,0,.07,0,.15,0,.25-.13.26-.25.1-.11.16-.25.19-.44.04-.24.17-.44.35-.61,0,0,0,0,0,0,.16.07.32.13.49.17.01.02.03.03.05.04.54.31,1.18.23,1.6-.23.21-.23-.18-.44-.36-.24-.19.21-.44.27-.69.21-.01-.07-.07-.14-.18-.15-.18-.02-.34-.07-.51-.13.08-.05.16-.1.24-.14.2-.1.33-.21.43-.32.48.14.91-.04,1.18-.52.31-.55-.14-1.03-.37-1.52.13-.05.24-.15.29-.31.17-.49-.35-.86-.69-1.07-.02,0-.03-.02-.05-.03.17-.14.37-.21.57-.26.09.01.17.01.25-.02.03-.01.06-.03.1-.04.02,0,.04-.02.06-.03.32-.16.53-.4.22-.74-.17-.19-.44-.3-.63-.47-.04-.04-.36-.32-.36-.33.05.03.16.09.23.1.49,0,.7.25,1-.23.36-.56-1.29-1.49-.54-1.85.16-.08.17-.25.09-.34.02-.05.05-.1.06-.16.53.11,1.02.45,1.46.74.21.14.33.26.39.39-.45.4-.55.91-.25,1.57ZM78.55,55.27c.11.32.22.63.37.91.08.15.29.24.45.15,1.08-.61,1.13.64,1.42,1.58-.54-.44-1.27-.85-1.95-.95-.13-.56-.57-1.04-1.12-1.18.13-.16.19-.33.15-.54.26-.01.5-.02.68.04ZM76.83,52.98c.06-.12.13-.24.2-.35.01.21.01.42,0,.63-.01.15.05.28.2.33.64.19.93.67,1.15,1.21-.49.02-1.09.16-1.38-.18.14-.28.22-.74.07-.88-.3-.31-.46-.33-.23-.74ZM72.99,49.72c.02.24.28.29.47.23,1.23-.43,2.2-.07,2.82.67-.28-.04-.56.1-.73.52-.02.06-.04.13-.05.2-.09.37-.55.37-.79.12-.13-.14-.33-.33-.53-.33-.56,0-.93.27-1.28.64-.03-.04-.05-.08-.09-.12-.13-.13-.75-.46-.4-.5.29-.03,1.11-.11.86-.63-.1-.21-.28-.5-.53-.52-.34-.03-.56.2-.63-.11.03-.03.05-.06.05-.11.11-1.07-1.01-.4-1.6-.82.41-.23.85-.4,1.32-.31.41.08.77.36,1.09.64,0,.14,0,.29.02.43ZM68.68,45.64c.85.3,1.88.2,2.53.99.19.24.56.07.63-.19.45-1.66,1.17.73,1.18,1.09,0,.39-.02.78-.03,1.17-.31-.22-.64-.41-1.02-.48-.09-.02-.18-.03-.27-.03,0-.02.02-.04.02-.06.06-.69-.33-1.25-1.03-1.34-.28-.04-.39.38-.08.42.45.06.69.45.65.89,0,.05.01.09.03.13-.34.07-.67.22-.98.4-.12-.25-.21-.43-.55-.47-.13-.02-.26-.01-.4,0,0-.12-.03-.23-.06-.35-.07-.24-.39-.69-.03-.85.26-.11.4-.29.21-.54-.26-.35-.64-.32-1.02-.25-.51.09-.26-.52-.18-.77.19.14.42.26.39.25ZM39.88,39.94c.28-.05.55-.1.83-.15.13.13.34.15.49.03,1.16-.97,2.64-.82,3.87.1.16.12.37.04.49-.09.76-.78,2.1.96,2.51,1.73-.34.31-.75.6-.77-.04,0-.26-.3-.58-.46-.75-.39-.39-1.28.05-1.22.6.02.18.24,1.35-.46.97-.18-.1-.34-.25-.51-.36-.15-.1-.34-.16-.54-.17-.63-1.2-2.13-1.22-3.01-.28-.21.1-.48.08-.69.02-.34-.09-.38-.39-.35-.68.04-.37.01-.66-.19-.92,0,0,0,0,0-.01ZM37.44,39.79c.44-.79,1.39.06,1.94.33.53.42-.11,1.23.51,1.67.35.24.88.3,1.3.14.07,0,.13-.02.19-.08,0,0,.01-.01.02-.02.09-.06.18-.13.25-.22,0-.01,0-.02.02-.03.65-.49,1.52-.4,1.97.33-.18.11-.3.24-.39.45-.15.38.12,1.18-.5,1.25-.29.03-.27.45.04.42.86-.09.8-.74.88-1.44.09-.82,1.24.15,1.48.22.32.1.59-.17.77-.39.14-.18.19-.32.23-.53,0-.08,0-.16,0-.24-.11-.28.05-.43.46-.45.28.28.09.68.33.91.52.51,1,.2,1.4-.2.14.04.33,0,.42-.12.78-.96,1.33-2.18,2.68-1.97.03,0,.05,0,.08,0,.02.02.04.04.07.06.72.37-.77,2.01.49,2.12.27.02.51,0,.77-.08.11-.04.22-.13.31-.21.01-.01.95-.78.84-.32-.12.53.33.73.78.76-.41.33-1.61.07-1.6.96.01.83.99,1.04,1.65.84.29-.09.12-.47-.16-.38-.21.06-.41.06-.62-.02-.5-.14-.41-.72.03-.82.24-.06.49-.05.72-.11.34-.08.53-.33.56-.67.02-.15-.11-.24-.25-.23-.95.1-.35-.88-1.16-.9-.73-.02-.96.75-1.66.77-.56.01-.1-.91-.04-1.2.08-.37-.03-.69-.37-.86-.01,0-.03,0-.04-.01.01-.08,0-.16-.06-.22-.98-1.1,2.69-1.14,3.19-.86.16.09.38.06.49-.09.5-.81,1.01-1.18,1.59.07.14.2.53.11.6-.11.11-.32.32-.59.53-.86.18.18.37.34.62.54.09.07.24.06.35.02l.3-.13c.61,1.04,1.67,1.51,2.83,1.54.22.19.3.48.2.77-.11.28.33.39.43.14.08-.21.1-.41.07-.61,1.08-.24,2.17-.24,3.03.59.73.7.02,1.49-.11,2.18-.23,1.19,1.05,1.79,1.59,2.64.08.12.21.13.34.09.02.15-.11.25-.14.44-.04.23.02.38.13.59.19.36.54.36.89.29.05,0,.1,0,.14-.01.04.06.08.1.11.13-.13.08-.21.18-.28.31-.2.42.17.86.21,1.29-.32.1-.62.28-.87.51-.23.2.05.51.27.32.12-.11.42-.31.73-.44.1.03.23,0,.29-.09.26-.05.49,0,.57.25.08.23.21.35.41.5.19.15.39.19.62.23.16.03.61.02.76.13-.02.03-.03.07-.03.11.01.42.11.76.59.74.09,0,.18-.04.26-.07.16-.05.36.23.36.23-.18.08-.43.05-.62.08-.36.06-.47.45-.29.74.1.18.3.29.46.4.22.16.31.46.05.69-.2.18-.64.1-.88.05-.06-.01-.13,0-.18.03-.1-.22-.25-.42-.42-.6-.19-.19-.58.08-.38.28.29.3.52.65.44,1.08-.08.43-.58.63-.96.7-.28.06-.27.48.04.42.57-.11,1.11-.39,1.34-.95.07-.18.09-.36.06-.54.55.09,1.44.07,1.53-.63,0-.07.01-.13.01-.19,0,0,.01,0,.02-.01.16-.18.31-.36.49-.52.48-.41.77.02,1.02.26.21.19.44.21.71.2.27-.01.46-.25.58-.45.06-.1.07-.24.1-.35.09-.38.31-.41.66-.09.13.18.19.38.18.59,0,.06.03.09.06.12-.27.44-.73.99-.69,1.43.03.29.39.35.48.58,0,.01-.02.05-.03.13,0,.03-.03.22-.04.31-.1.05-.18.15-.12.27.03.05.06.09.09.13-.05.04-.08.1-.08.17.03.44-.82.24-1.08.21-.41-.05-.87-.13-1.27.01-.01,0-.02.01-.03.02-.44,0-.85-.17-1.26-.3-.07-.13-.17-.25-.26-.37.45-.44,1.06-.61,1.67-.67.29-.03.27-.45-.04-.42-.69.06-1.35.28-1.86.73-.04-.08-.07-.15-.08-.24-.03-.28-.5-.19-.47.08.04.34.19.56.43.8.05.05.09.1.13.16-.06.1-.05.22.09.26,0,.09-.04.19-.14.28-.08.07-.23.21-.21.34.05.3.19.52.15.81-.09.7-.95.26-1.42-.02,0-.03,0-.05-.02-.08-.14-.33-.47-.37-.78-.4-.59-.05-1.2-.12-1.79-.13-.14,0-1.13.41-1.14.33-.01-.08-.06-.14-.14-.16-.3-.09-.63-.34-.94-.16-.06.04-.12.08-.18.13-.22-.4-.54-.78-1.04-.71-.28.04-.52.14-.77.26-.73.34-.99-.14-1.21-.78-.24-.7-.75-1.02-1.48-.71-.61.26-.47.88-.31,1.41-.46-.19-.96-.43-1.4-.28-.18-.73-.38-1.87-1.37-1.44-.42.18-.64.62-.82,1.01-.25.56-1.13-.8-1.36-1.09-.54-.67-1.16-.79-1.85-.37-.09-.42-.59-.63-1.01-.72-.26-.06-.49.33-.2.4.28.07.82.18.75.57-.01.07,0,.12.04.16-.12.25-.13.55-.11.84.09,1.27-1.02.2-1.49.02-.12-.05-.25.03-.31.13-.35.63-.05,1.03.46,1.45.64.53-.4.44-.69.48-.39.05-.64.15-.9.43-.09.09-.06.22.03.3.17.13,1.48,1.14.56,1.06-.23-.02-.41.04-.59.15-.09-.07-.22-.09-.4-.05-.39.1-.76.62-.86-.02-.04-.29-.05-.6-.32-.78-.41-.27-1.14,0-1.09.54.02.18.08.36.14.47-.03-.05-.07-.1-.12-.18-.13-.18-.34-.49-.6-.51-.91-.06-.09,1.67-.27,1.96-.04.06-.05.11-.04.16-.1.08-.37-.13-.45-.16-.2-.07-.4-.07-.6-.03-.05,0-.09.03-.13.05.27-.65.42-1.64-.13-2.13-.73-.65-1.29,1.43-1.71.24-.1-.29-.34-.58-.61-.75.14-.16.22-.36.22-.59,0-.35-.12-.71.2-.95.25-.19-.04-.49-.27-.32-.26.2-.41.45-.42.78,0,.34.12.7-.19.94-.19,0-.39.05-.56.22-.56.53-.75.69-1.51.36-.33-.14-.77-.33-1.13-.17-.25.11-.49.4-.49.69,0,.17,0,.31.12.45.02.02.99,1.03.08.84-.13-.03-.34-.04-.58-.03.14-.91-.7-1.45-1.52-.84-.42.31-.34,1.02-1.11,1.02-.14,0-.35-.02-.47.05-.28.15-.51.4-.5.75,0,.12.09.33.19.57l-.08-.03c-.06-.02-.12-.02-.17,0-.85-.03-1.85.66-1.7,1.53-1.06.05-2.23.23-1.96,1.27,0,0,0,.01.01.02-.1.05-.2.12-.29.21-.03.02-.06.04-.08.07-.03.03-.05.06-.05.09-1,1.62,1.82,1.31,2.24,2.31.17.41-1.2.42-1.18,1.06.02.69.75.95,1.36,1.03-.38.13-1.13.26-1.25.48-.09.18-.15.3-.09.51.19.64-.27.6-.64.78-.65.3-.64,1.47.22,1.16.38-.14.73-.29.35.17-.17.2-.26.48-.34.73-.15.44.19.65.54.73-.04.2-.11.39-.37.53-.23.13-.49.34-.54.61-.04,0-.08.01-.12.03-1.02.61-.17-1.99-1.17-1.72-.33.09-.53.52-.71.78-.47.68-1.26.15-.55-.47.1-.09.2-.22.2-.35,0-.4-.15-.66-.56-.65-.49.01-.65.46-1.25.12-.17-.09.74-.44.81-.47.23-.08,2.22-.57,1.19-1.23-.22-.14-.45-.22-.68-.34-.26-.13.24-.86.27-1.02.05-.24-.16-.58-.43-.55-.38.05-.62.43-.83.71-.21.29-.41.59-.63.87-.35.05-.44-.03-.29-.23.07-.17.15-.33.21-.5.09-.24.16-.62-.08-.81-.14-.1-.22-.15-.4-.12-.07.02-.14.04-.21.07-.26.1-.53-.25-.28-.35.28-.1.8-.43.58-.83-.11-.2-.14-.22-.35-.32-.09-.02-.17-.03-.26-.04-.08,0-.15,0-.23,0-.4.07-.46-.17-.19-.73.13-.02.2-.12.2-.21.41-.22.9-.29,1.24-.66.35-.37.12-.9.53-1.27.22-.2.58-.17.77-.41.27-.34.24-.75.2-1.16.36-.05.68.03.94.32.18.19.57-.08.38-.28-.41-.43-.95-.58-1.53-.43-.12.03-.18.12-.19.21-.05.04-.09.1-.08.18.08.7-.04.87-.6,1.15-.26.13-.42.35-.56.59-.28.48-.04.91-.74,1.19-.09.03-.16.06-.24.09.17-.45.16-.84-.12-1.3-.12-.2-.25-.4-.37-.59-.19-.33.16-1.09.36-.65.04.09.18.18.28.18.34,0,.96,0,.99-.5.02-.35-.05-.69,0-1.04.09-.61.63.3.75.43.1.11.27.08.37-.02.57-.62.6-1.24.19-1.88.32-.3.6-.6,1.08-.63.27-.02.63-.08.79-.33.34-.51-.51-1.03.36-1.28.36-.1,1-.32.91-.83-.12-.77-.71-.79-1.27-1.13.3-.25.5-.53.51-.96.01-.55-1.03-.6-.93-.83.35-.82,1.38-1.71.06-2.21-.25-.1-.48.29-.2.4.13.05.21.11.27.18-.11.05-.22.11-.29.21,0,0,0,.01,0,.02-.27.08-.58.18-.85.14-.03,0-.05-.01-.08-.01-.44-.14.61-.91.7-1.09.12-.25.03-.56-.18-.72-.06-.05-.18-.05-.25-.04-.23.03-.74-.09-.48-.46.31-.44,1.02-.37.93-1.09-.03-.25-.2-.38-.43-.44-.35-.1-.92.05-.56-.48,0-.01,0-.02.01-.03.37.08.79.33,1.14.13.16-.09.31-.23.36-.41.03-.09.05-.18.05-.27,0-.48.53-.39.78-.21.41.29.69.4,1.1.02.35-.32.14-.8-.09-1.15.05,0,.11,0,.16,0,.18.02.29-.15.26-.28.03-.02.06-.05.08-.09,0,0,0,0,0,0,.05-.02.1-.06.13-.11.9-.57,1.26-.6,1.07-.09-.03.08-.04.17-.05.26-.01.27,0,.52.06.79.06.29.29.52.6.54.38.03.75-.16.92-.5.19-.39-.06-1.83.36-.71.09.24.45.4.69.36.36-.06,1.31-1.05,1.1-.09-.23,1.06,1.25.35,1.3.44.13.24.57.05.44-.19-.17-.3-.37-.5-.71-.31-.8.44-.2-.39-.53-.69-.29-.27-.79-.42-1.14-.12-.17.15-.56.81-.77.25-.08-.21-.1-.42-.24-.59.21-.56.02-1.12-.34-1.61-.09-.13.12-.72.17-.87.01-.04,0-.07.01-.11.22-.6.3-1.25,1.11-1.02.28.08.63-.09.8-.31.21-.27.26-.54.21-.87-.03-.22-.3-.7-.27-1.01.06-.04.12-.09.15-.15ZM23.96,69.04c-.02-.35.49-.32.8-.5.39-.23.11-.63-.11-.84-.03-.03-.07-.04-.11-.05-.02-.01-.03-.03-.06-.04-1.4-.62.33-1.93,1.1-2.58.05.2.04.43-.1.74-.04.09-.02.15.02.2-.07.04-.13.08-.2.13-.35.12-.68.37-.56.8.08.28.2.55.51.65.11.04,1.46.11.48.48-.53.2-.63.53-.39,1.04.24.5,1.37-.11,1.33.24-.04.38-.44.79-.41,1.2-.23.05-.41.16-.58.35-.17.18-.73.92-1,.59-.24-.29-.42-.61-.66-.9-.2-.24-1.23-.04-.91-.6.64.23.9-.17.85-.9ZM27.39,51.38c0-.16.02-.31-.11-.43-.19-.17-.26-.25-.52-.27-.12,0-1.3.21-.68-.55.1-.12.26-.23.32-.38.1-.22.17-.36.09-.61-.09-.27-.64-1.23.5-.97.12.03.25.06.37.03.33-.07.35-.07.57-.33.06-.07.08-.22.11-.3.17-.58.8-.54,1.27-.48-.02.29.09.57.37.77-.03.09-.05.18-.05.3-.01.61-.85.15-1.18.14-.15,0-.24.11-.26.22,0,0-.01.01-.02.02-.18.27-.38.57-.18.87.16.25.66.2.91.25.61.12-.5.72-.6.83-.26.26-.24.55-.08.86.1.19.22.29.36.34-.41.37-.85.37-1.31-.02.04-.09.14-.19.15-.3ZM30.99,46.23c.01-.09-.03-.18-.06-.26-.05-.13.12-.34.17-.45.1-.24.27-.11.48-.03.39.15.56.49.37.87-.01.02-.01.05-.02.07-.21,0-.38.02-.56.18-.09.08-.14.2-.05.3.11.12.21.26.28.41-.02.45-.13.58-.33.39-.16-.11-.31-.22-.48-.31-.27-.13-.61-.13-.85.07,0,0,0,0,0,0-.11-.11-.2-.28-.21-.44.03-.05.05-.11.04-.17.04-.07.12-.13.25-.16.18-.04.38,0,.56,0,.22-.02.39-.29.41-.48ZM34.72,44.11c.19.54.71.92.43,1.56-.18.12-.35.34-.43.46-.12.17-.11.37-.1.57.14.35-.06.47-.6.37-.05-.24-.03-.51.02-.74.12-.56-.05-.77-.57-.98-.4-.16-.77.08-1.04.39-.04-.1-.09-.19-.16-.28.03-.05.05-.11.02-.18-.22-.56-.28-1.21.13-1.7.03-.03.04-.06.05-.09.32-.14.68.15,1.05-.04.17-.09.32-.18.47-.29.09-.07.18-.14.28-.2,1.04-.73.67.31.62.49-.07.21-.26.44-.18.69ZM28.8,58.1c.49-.55.63-.87.67-1.65.02-.48-.23-.78-.66-.88-.91-.23-1.09,1.14-1.72-.25-.09-.21-.37-.22-.53-.1-.24.09-.48.18-.72.26.12-.2.23-.4.36-.61.12-.2-.06-.4-.26-.42-.24-.3-.48-.59-.71-.89.01-.15-.05-.28-.2-.33-1.06-.35-.25-.85,0-1.62.22-.67.08-2.08-.18-2.69-.29-.68-.66-.91-.4-1.49.45-1.03.41-1.9,1.22-2.83.1-.12.1-.27.01-.39-.47-.69.86-.13,1.11-.04.29.1.68.06.96-.06.65-.28,1.08-1.96,1.89-1.45.18.11.46.04.54-.16.57-1.39,2.02-.45,2.89-.28.19.04.37-.02.47-.2.4-.73,2.23-2.78,3.29-2.12-.02.38.22.83.28,1.24.12.77-.89.38-1.33.52-.36.11-.52.52-.63.91-.59-.39-1.06-.02-1.56.35-.36.26-.78.04-1.17.08-.32.03-.51.36-.66.61-.05.09-.03.16.02.2-.15.39-.15.83-.05,1.25-.54-.24-.88-.14-1.1.4-.11.27-.26.39-.14.69.08.2-.31.13-.38.14-.14.01-.36.03-.47.13-.09.08-.15.17-.21.27-.48-.06-.87-.04-1.29.15-.1-.5.01-1.07.41-1.41.23-.2-.05-.51-.27-.32-.58.5-.75,1.28-.56,2.01-.05.07-.09.16-.11.23-.13.55-.65.28-1.02.33-.45.06-.76.3-.86.75-.03.15.08.36.14.49.27.6-.15.74-.31,1.18-.16.44.02.74.4,1,.41.28.95-.16.8.61-.08.43.46.63.78.69.51.11,1.06-.17,1.43-.53-.04.1-.12.18-.23.21-.08.04-.15.08-.22.14-.18.18-.23.41-.26.66-.03.18,0,.32.05.41-.46.27-.85.74-.66,1.29.09.26.53.07.44-.19-.15-.42.35-.74.7-.87.38.02.85-.11,1.11-.17.09-.02.14-.08.17-.14-.18.47-.77,1.04-.72,1.39.03.16.07.28.23.38.07.05.22.05.29.07.51.09.29.71-.06.97-.12.09-.13.24-.01.34.22.19.45.29.71.4.73.3.44.81-.15,1.02-.33.12-.64.3-.72.68-.09.46.68.78-.17.85-.63.06-.84.29-1.25.67-.04-.03-.1-.05-.17-.05-1.1.05.47-1.52.76-1.85ZM22.26,65.13c.15,0,.32-.06.38-.21.23-.61.49-2.07,1.6-1.63.2.08.45-.08.49-.28.39-1.8,1.64-2.2,3.27-2.42,0,0,.01,0,.02,0,.26.35.27.74.02,1.17-.24-.35-.57-.83-.95-.67-.18.08-.3.26-.35.44-.06.19-.14.37-.13.58,0,.23-.22,1.24-.46.63-.22-.57-.85-.21-1.12.08-.21.23-.14.71-.1.97.05.38.28.62.45.87-.25.22-.57.5-.89.8-.02-.63-.66-.89-1.11-.51-.12-.02-.28.04-.31.18-.06.32-.05.78-.33.99-.32.24-.55.04-.88.07-.34.03-.5.26-.56.54-.16-.68-.05-1.59.95-1.6ZM20.82,70.36c-.09,0-.17.01-.24.07-.11.1-.21.2-.31.3-.39-.55-.83-1.07-1.17-1.66-1.08-1.9,1.37-1.43,1.98-1.43.03,0,.07,0,.11-.02,0,.51-1.36.96-.53,1.64.22.18.42.31.7.34.12.01.24,0,.36,0,.11.2.07.33-.14.4-.09.03-.18.06-.28.08-.22.06-.38.15-.48.28ZM26,72.48c-.12.14-.29.26-.43.39-.03.03-.05.06-.07.08-.69-.17-1.67.18-2.18-.87-.13-.27-.53-.21-.65.04-.7,1.44-1.37-.76-1.51-1.39.04-.3.53-.29.74-.42.19-.12.33-.31.39-.54.14-.6-.41-.58-.85-.6-.38,0-.72-.39-.4-.67.15-.14.32-.26.46-.4.09-.09.14-.18.18-.27.12-.04.22-.15.16-.29-.04-.11-.35-1.04.12-.94.1.02.2.09.31.09.24,0,.45-.09.66-.21.45-.27.51-.7.59-1.17.06,0,.11-.03.16-.08.23-.24.37.12.37.32,0,.12.08.17.18.17-.75.79-1.23,1.7.07,2.28,0,0,0,0,.01,0,.29.28.02.29-.3.38-.16.05-.33.11-.44.24-.24.29.24,1.17-.38.86-.11-.06-.25-.04-.33.06-.28.35-.33.75-.01,1.12.11.13.33.15.49.16.42.04.52.42.8.69.24.24.34.5.73.44.22-.03.54-.21.72-.35.04.12.13.24.3.35.24.15.39.21.13.52ZM26.54,70.88c.26.09.64-.04.81-.19.27-.23.46-.56.66-.85.27-.39.9-1.05.31-.15-.3.46-.1.85.38,1.05,1.11.46-.51.68-.97.85-.34.13-.83.33-.81.77.02.46.84.56,1.15.49.16-.04.32-.12.48-.19.53-.23-.21.65-.13.55-.12.16-.29.36-.21.58.57,1.58,1.57.33,2.15-.41-.06.08-.05.35,0,.64-.05.04-.09.1-.08.17,0,.4-.11.77-.33,1.11-.02.04-.05.06-.08.09-.05,0-.11.01-.17.05-.03.02-.05.05-.08.07-.29,0-.59-.34-.78-.46-.12-.07-.29-.06-.42-.05-.17.01-.34.04-.51.07-.14-.17-.29-.34-.43-.51.07-.08.13-.17.18-.26.66-1-.85-1.21-1.13-1.88.04-.09.07-.18.06-.28,0-.22-.05-.34-.24-.45-.51-.29-.14-.58.17-.81ZM28.52,78.7c-.17-.07-.32.08-.32.22-.03.01-.06.02-.09.04-.8.71-1.42-2.07-1.47-2.63-.02-.22-.29-.32-.47-.23-.97-.66-1.13-1.16-.49-1.52.12-.1.27-.21.34-.36.12-.27.21-.47.09-.77-.05-.12-.12-.21-.19-.28.07-.12.18-.22.29-.32.09.16.21.27.39.39.16.1.34.17.51.26.58.31.06.75-.09,1-.31.53.13.95.67,1.02.16.02.37-.04.53-.07.48-.08.64.26.93.49.02.01.04.02.06.03-.34.45-.53.99-.11,1.46.27.3.67.31,1.04.25.2-.03.39-.09.59-.1.24,0,.29.25.3.49-.01.03-.02.07-.02.11.06.52-.57.75-.95,1.05-.54,0-1.03-.33-1.52-.53ZM31.98,81.67c-.33-.31-.5-.72-.52-1.23-.04-.23-.27-.3-.47-.23-.92.32-1.98-.04-2.28-.94.4.18.79.36,1.23.38.07.04.18.05.26,0,0,0,0,0,0,0,.13-.01.19-.1.2-.19.19-.17.42-.3.61-.45.43.1.86.15,1.29.19-.11.43-.02.86.24,1.19-.15.31-.18.65.08.9,0,.06.04.12.12.15.09.04.17.1.24.17-.32-.05-.67-.02-.99.05,0,0,0,0,0,0ZM33.46,82.48c-.43.17-.52.2-.59-.15-.02-.11-.09-.22-.2-.24-.06-.02-.11-.05-.16-.08.41-.03.82.05.96.45,0,0,0,0,0,.01ZM33.97,82.49c-.05-.25-.15-.43-.29-.56.01-.04.02-.09,0-.14-.03-.07-.07-.13-.11-.19.21-.01.42-.06.6-.13.01,0,.02-.01.03-.02.01.18,0,.36-.06.53-.02.06-.02.11,0,.15-.04.13-.08.26-.12.39,0-.01-.02-.02-.03-.03ZM35.76,82.98c-.66.78-1.01.84-1.32.39,0-.04.01-.08-.01-.12-.16-.32,0-.65.12-.98.05.03.09.05.14.07.03.01.06.02.08.02.35.37.83.49,1.25.35-.1.1-.19.19-.26.28ZM36.21,82.08c-.31.37-.75.31-1.07-.03-.05-.05-.11-.07-.17-.07-.02-.02-.05-.05-.09-.06-.09-.04-.19-.06-.21-.17,0-.02-.02-.04-.03-.06.04-.41-.06-.81-.17-1.22-.03-.12-.14-.14-.24-.11-.02-.08-.03-.16-.02-.24.01,0,.02.01.03.01.37.11.63.12.97-.16.33-.26.28-.41.37.11.06.34.18.93.51,1.06-.13.24-.18.49.02.7.06.06.14.11.23.14-.05,0-.11.03-.15.08ZM41.61,82.36c-.09-.48-.2-.93-.43-1.39-.1-.19-.37-.24-.53-.1-.34.36-.77.58-1.29.67-.18.03-.33.18-.32.37.02.79-.41-.05-.83-.27-.1-.05-.2-.06-.31-.05-.3-.2-.62-.25-.99,0-.12.08-.48.09-.44-.13.03-.17.16-.33.28-.48.28-.19.48-.42.48-.81-.02-.95.53-.27,1.02-.47.22-.09.37-.2.47-.33.08.57,1.28.69,1.78.35.38-.26.7-.61.59-1.1-.01-.07-.05-.14-.09-.21-.18-.35.33-.9.25.08-.02.23-.05.37.03.59.05.13.15.21.26.26-.36.73-.17.95.57,1.42.76.49,1.34,1.12,2.08.23.08-.1.1-.24.12-.37.06-.49.43.2.52.32.1.13.21.2.34.23-.95.56-2.65.89-3.56,1.18ZM46.32,79.1c-.14-.02-.3-.07-.48-.16-.27-.13-.82.2-.51.48.07.06.13.12.18.17.13.26.16.57.15.85-.29.26-.46.27-.52.02-.05-.11-.1-.19-.17-.29-.19-.27-.75-.29-.96-.04-.12.14-.13.29-.14.46-.05.96-.95.18-1.17,0-.22-.17-.47-.32-.7-.47-.32-.21-.14-.47.01-.73.17-.01.34-.05.45-.11.31-.14.39-.43.38-.73.18.23.13.64.39.82.29.19.55.12.86.01.36-.12.56-.41.67-.75.06-.2-.14-.79-.18-1.15.82.38,1.73-.44,2.24-.97.45-.46.73-1.04.79-1.64.39.72.56,1.66-.52,1.95-.18.05-.41.24-.3.45.14.28.34,1.18.07,1.6-.2-.14-.46.01-.53.21ZM46.66,79.63c.35.29.73.67.78,1.1.04.37-.51.1-.82-.05.13-.29.11-.62-.12-1,.06,0,.11-.03.17-.05ZM63.3,89.02s-.06-.05-.11-.07c-3.3-1.27-5.91-4.29-8.67-6.4-1.06-.81-1.65-1.49-3.04-1.35-.71.07-1.42.45-2.12.56-1.2.19-2.35.04-3.48-.32.11-.07.21-.15.31-.23.64.27,1.55.68,1.89-.22.25-.65-.28-1.28-.8-1.74.07-.07.12-.16.17-.25.47.88,1.24,2.16,2.24,2.07.99-.09,2.73.08,2.37-1.43-.16-.68-.74-1.27-.99-1.93-.4-1.08-.22-2.31-.61-3.37-.27-.74-.72-1.08-1.27-1.23-.02-.02-.04-.03-.07-.04-.27-.1-.56-.17-.85-.22.65-.01,1.26-.17,1.55-.71.54-1-.89-1.7-1.39-2.3-.3-.35-.71-.73-1.2-.49-.17.09-.37.3-.34.51.02.12.05.22.12.32.03.04.05.08.07.12-.19,0-.52.13-.73.31-.63-.74-.61-1.97-1.06-2.81-.14-.27-.51-.64-.9-.84.05-.1.04-.22-.1-.28-.88-.34-.45-1.74.27-1.47.17.06.28.07.45.09.3.03.58-.15.78-.35.11-.12.12-.36.07-.5-.05-.17-.11-.32-.18-.49-.28-.68,1.22-.39,1.45-.08.2.27.65.28.95.31.86.09,1.9.52,2.04,1.54.1.7.17,2.96-.77,3.26-.09-.06-.65-.29-.67-.3-.14-.57.17-1.24.52-1.67.2-.24-.19-.45-.36-.24-.39.49-.71,1.18-.65,1.83-.95-.77-1.2-2.13-.91-3.32.07-.29-.4-.29-.46-.03-.31,1.29-.03,2.69.91,3.57-.5-.1-1-.23-1.53-.15-.29.04-.27.46.04.42.67-.1,1.3.17,1.96.25,1.98.6,1.67,2.36,2.92,2.55,1.11.17,2.35-2.28,2.52-2.6.43-.64.76-1.31,1.01-2.07.34-1.04.26-2.1.7-3.1.45-.05.95-.33.83.29-.02.12,0,.2.05.27-.11.57-.16,1.2-.54,1.62-.21.23.18.44.36.24.41-.46.47-1.09.59-1.68.25.02.54-.04.68-.1.03-.01,1.32-.77.83.26-.04.09-.09.17-.13.25-1.16,1.14-2.44,2.14-3.4,3.42-.53.65-.89,1.41-1.35,2.1-1.3,1.72-2.3,1.25-2.52,2.41-.09.48.11.95.27,1.38.33.87.36,1.83.58,2.74.25,1.01.82,2.16,1.64,2.83.9.73,2.16,1.93,3.33,2.19,1.76.4.34-3.61.24-4.09-.56-2.71-2.78-3.32-5.11-4.22-.04-.02-.08-.02-.13-.02-.04-.12-.07-.25-.11-.38.68.3,1.32.66,2.01.93.52.2,1.16.4,1.6-.04.41-.41.04-1.24-.14-1.66-.3-.7-.73-1.34-1.08-2.01-.01-.02-.03-.04-.05-.06.04-.06.1-.16.17-.27.19.38.41.74.62,1.11.28.49.39,1.01.58,1.53.21.58.63,1.01,1.22.62.64-.42,1.09-1.64,1.29-2.34.05-.18.05-.34.02-.5.02-.05.01-.11-.02-.16-.17-.64-.78-1.18-.99-1.8,0,0,0,0,0-.02,0-.05-.03-.1-.09-.14-.28-.17-.54-.38-.82-.55.03-.02.06-.03.09-.05.01,0,.02.02.04.03.26.11.55.22.84.17.3-.06.44-.32.5-.59,0,0,.01,0,.02,0,.08,0,.17,0,.26-.01-.6.73-.49,1.53.21,2.21.11.11.27.08.37-.02.64-.64.68-1.68.79-2.52,0,0,0,0,0,0,.19-.16.31-.39.27-.75-.06-.59-.89-.68-.7-1.33.01-.02.02-.04.02-.06.02-.06.05-.12.09-.19.18-.31.21-.57.06-.83.33-.02.71-.09.87-.35.16-.26.29-.75-.09-.9-.67-.28-.15-.56-.43-.93-.08-.1-.23-.18-.39-.25,1.11-1.14,1.41.74,1.94,1.2-.33.55-.58,1.11-.39,1.79.07.26.51.07.44-.19-.17-.62.17-1.16.49-1.66,0,0,.01,0,.02-.02.14-.14.29-.26.31-.47.01-.14.18-1.41.46-.93.22.37.02.74.5.92.04.02.08.02.12.02-.27.31-.61.58-.8.96-.29.55-.41,1.12-.5,1.74,0,.01,0,.02,0,.03-.68.67-1.37,1.4-1.73,2.29-.04.02-.07.05-.09.1-.18.44-1.09,1.98-.44,2.37.44.26,1-.1,1.37-.33.76-.49,1.34-1.27,1.92-1.94.02-.03.04-.06.05-.09.08-.02.16-.06.25-.11.21-.13.43-.24.65-.35.72-.33,3.11-.01,1.55,1.15-.1.07-.15.27-.01.34.1.05.2.1.3.15.71.33.76.88.15,1.65-.12-.02-.25.08-.27.2-.03.16-.15.94-.54.65-.11-.08-.31-.02-.36.11-.53,1.34-.94.48-1.47.45-.15-.01-.57.29-.5-.15.04-.28-.33-.27-.44-.09-.37.62-.86-.77-.89-.95-.02-.16-.18-.2-.31-.15-.67.25-1.35.38-1.97.74-.07.04-.1.1-.1.15-.71,1.29-2.02,2.51-2.03,4.06,0,.72.68,1.47.93,2.12.42,1.07.45,2.33.7,3.45.37,1.64.84,2.68,2.07,3.87,1.31,1.26,2.81,2.26,4.44,3.05-.62.54-1.05.94-1.08.98ZM54.65,69.48c.04-.06.09-.12.13-.18.73.74,1.51,1.33,2.47,1.76,0,.08.01.15,0,.23-.95-.35-2.08-.92-2.61-1.81ZM57.16,71.73c-.15.44-.43.87-.63,1.2-.3.51-.64.69-.9.07-.12-.29-.19-.6-.28-.9-.23-.73-.76-1.34-1.06-2.04.03-.05.06-.1.09-.14.65.89,1.78,1.45,2.78,1.82ZM55.07,68.94c.1-.12.2-.23.32-.33.32.14.58.39.87.57,0,0,0,.01,0,.02.16.47.46.84.72,1.24-.71-.39-1.33-.89-1.91-1.49ZM54.55,74.04c.03.26-.18.14-.38.08-.34-.09-.66-.24-.98-.38-.5-.22-.99-.49-1.49-.71.44-.49,1.32-1.06,1.73-1.47.46.78,1.02,1.59,1.12,2.47ZM52.66,78.05s-.06-.02-.09-.02c-.13-.32-.23-.66-.32-1,1.14,1.16,2.63,1.95,4.12,2.6.01.04.02.09.03.13.01.05.03.09.04.15-1.28-.58-2.49-1.31-3.79-1.86ZM56.56,80.45s.02,0,.03,0c.15.72.18,1.44-.74.77-.85-.62-1.75-1.14-2.47-1.92-.19-.2-.35-.43-.49-.66,1.24.57,2.41,1.27,3.67,1.8ZM52.07,76.1c-.02-.12-.04-.24-.06-.35-.05-.33-.13-.63-.21-.93,1.56.57,3.31,1.06,4.05,2.67.23.49.31,1.05.42,1.6-1.58-.71-3.14-1.63-4.2-2.99ZM64.17,90.24c.12-.09.23-.18.33-.3.19-.24-.19-.45-.36-.24-.06.08-.14.14-.21.2-.07-.09-.12-.16-.16-.2.8-1.12,4.69-4.3,7.53-5.54.49-.21.95-.46,1.44-.67.62-.26,1.1-.18,1.51.07-.51.07-1.02.26-1.39.55-.25.19.04.5.27.32.43-.33,1.08-.51,1.64-.46.16.16.32.33.48.51.51.57.94,1.29,1.26,2.04-.42.23-.93.26-1.33.55-.25.18.04.49.27.32.36-.26.81-.31,1.21-.49.07.19.14.38.2.57-.26.07-2.67.84-5.22,1.89-.02,0-.04.01-.06.02-.91.38-1.83.79-2.68,1.22,0,0-.02,0-.03.01-1.09.56-2.06,1.15-2.68,1.73-.04-.01-.1-.04-.14-.06.05-.11.11-.22.2-.31.22-.22-.17-.43-.36-.24-.09.09-.15.18-.21.28-.5-.45-1.1-1.24-1.51-1.79ZM81.56,95.82c-.91-.82-1.62-1.86-2.5-2.72-.8-.78-1.64-1.52-2.45-2.3-.67-.65-1.17-1.41-1.89-2,.13-.05.25-.09.37-.13,1.11,1,1.93,2.26,2.93,3.37,1.1,1.22,2.48,2.19,3.62,3.38.92.97,1.9,1.89,2.91,2.79-.34-.25-.68-.49-1.04-.7-.61-.61-1.31-1.11-1.95-1.7ZM81.95,96.79c-.22-.07-.45-.14-.68-.18-.18-.04-.47.1-.51.29-1.13-.86-2.11-1.98-3.02-3-.81-.91-1.57-1.87-2.45-2.72-.66-.63-1.12-1.4-1.85-1.92.27-.1.53-.19.78-.27,0,0,0,.01.01.02.89.64,1.48,1.58,2.26,2.33.82.8,1.68,1.56,2.5,2.35.78.76,1.43,1.64,2.19,2.42.24.25.5.47.77.69ZM59.26,101.35c-.74-1.25-1.46-2.49-2.58-3.43,2.86-1.37,6.43-3.19,7.71-6.2.05.07.09.13.14.19,0,.02-.02.03-.02.05-.07.39-.25.75-.4,1.11-.12.28.32.39.43.14.12-.29.26-.58.35-.88.21.22.46.4.75.53-.13.58-.26,1.18-.62,1.66-.19.25.19.46.36.24.29-.38.45-.82.57-1.26.05.25.11.51.16.75-.09.03-.17.08-.23.17-1.66,2.83-3.74,5.33-6.63,6.94ZM61.73,102.56c-.2-.55-.34-1.11-.49-1.68,0-.03-.02-.04-.03-.06,1.7-1.26,3.1-2.83,4.3-4.59-.91,2.33-1.9,4.66-3.78,6.34ZM72.69,103.65c.4.86.79,1.66,1.32,2.45.41.61,1.68,3.26,1.68,3.26,0,0-.49.89-1.35.98-6.22-7.37-7.81-17.45-7.81-17.45.43-.42.94-.8,1.49-1.16.16.46.27.92.48,1.36.25.52.66.92.9,1.45.27.62.55,1.25.77,1.89.15.45.19.89.33,1.33.24,2.07,1.33,4.07,2.19,5.9ZM83.33,110.39c-.13-.06-.25-.02-.34.05-2.54-2.57-5.1-5.22-7.07-8.24-1.28-1.97-2.63-4.94-4.97-5.82-.11-.04-.21-.02-.3.04-.18-.6-.44-1.17-.69-1.74-.21-.5-.42-.91-.74-1.34-.42-.58-.56-1.2-.79-1.86.21-.13.43-.25.65-.36,1.56.68,2.5,2.49,3.55,3.73.74.88,1.56,1.69,2.24,2.62.63.86,1.17,1.77,1.91,2.55,1.51,1.58,3.26,2.9,4.58,4.67.61.83,1.22,1.63,1.93,2.37.62.65,1.3,1.24,1.59,2.12-.42.5-.89,1.54-1.56,1.23ZM85.29,108.86c-.24-.65-.68-1.14-1.17-1.64-.77-.8-1.49-1.6-2.15-2.5-1.38-1.88-3.14-3.38-4.82-4.99-.76-.74-1.31-1.68-1.91-2.55-.73-1.06-1.69-1.96-2.52-2.95-.97-1.15-1.79-2.65-3.15-3.38.26-.13.52-.26.79-.38,0,.01.01.03.03.04,1.27,1.16,2.33,2.51,3.31,3.92,1.16,1.67,2.57,3.15,4,4.59,2.78,2.8,5.4,5.74,8.29,8.43-.04.07-.05.16-.02.25.43,1.2-.13.94-.68,1.16ZM86.45,107.24c-2.92-2.71-5.62-5.63-8.36-8.51-1.3-1.37-2.6-2.7-3.73-4.22-1.11-1.49-2.15-2.98-3.52-4.25.08-.03.16-.06.23-.1,1.26,1.39,2.45,2.84,3.57,4.35,1.11,1.49,2.54,2.74,3.9,4,2.97,2.75,5.77,5.69,8.71,8.48,0,0,.02,0,.02.01-.15.15-.41.24-.81.23ZM87.45,106.55c-2.78-2.64-5.44-5.39-8.23-8.02-1.36-1.29-2.74-2.53-3.95-3.96-1.27-1.51-2.43-3.11-3.76-4.58.06-.02.12-.05.18-.07,1.07,1.06,1.85,2.35,2.8,3.52,1.23,1.51,2.67,2.91,4.04,4.3,2.72,2.76,5.64,5.3,8.47,7.93.05.05.12.06.18.06.14.25.26.56.26.84ZM87.24,104.86c-.09.02-.18.08-.24.15-2.71-2.51-5.47-4.95-8.08-7.57-1.3-1.3-2.51-2.68-3.78-4-1.1-1.15-1.86-2.57-2.96-3.72.24-.09.48-.18.72-.27,1.02.6,1.78,1.75,2.6,2.59.8.82,1.5,1.73,2.27,2.58,1.22,1.36,2.6,2.82,4.31,3.57.9.69,1.88,1.31,2.75,1.99.9.7,5.29,4.02,2.42,4.67ZM81.39,94.5c-1.15-1.15-2.47-2.11-3.53-3.35-.76-.9-1.43-1.84-2.27-2.65.05-.02.11-.04.16-.06,3.26,2.88,6.53,5.75,9.88,8.53,1.15.96,2.44,1.68,3.7,2.47.52.32,1.02.67,1.45,1.1.62.62-.44.95-.97.93-.3,0-.63-.14-.93-.28-2.67-2.04-5.11-4.32-7.49-6.69Z" fill="#010101"/><path d="M57.25,51.24c-.23-.1-.42-.24-.45-.51-.04-.28-.5-.19-.47.08.05.43.35.67.73.83.25.11.48-.28.2-.4Z" fill="#010101"/><path d="M64.43,51.59c-.18.21-.34.44-.52.65-.2.24.18.45.36.24.18-.21.34-.44.52-.65.2-.24-.18-.45-.36-.24Z" fill="#010101"/><path d="M47.55,54.94c-.14.02-.28.02-.35-.12-.12-.24-.56-.05-.44.19.17.33.49.41.83.35.29-.05.27-.47-.04-.42Z" fill="#010101"/><path d="M43.15,54.84c-.15-.06-.33-.12-.41-.28-.12-.24-.56-.05-.44.19.14.27.38.38.65.49.25.1.48-.29.2-.4Z" fill="#010101"/><path d="M35.24,58.04c-.4.44-1.18.69-1.5.03-.12-.25-.56-.06-.44.19.47.98,1.68.69,2.3.02.21-.23-.18-.44-.36-.24Z" fill="#010101"/><path d="M32.47,59.83c-.55-.08-1,.31-1.2.79-.12.28.32.39.43.14.13-.3.35-.56.7-.51.28.04.39-.38.08-.42Z" fill="#010101"/><path d="M65.73,53.89c-.19-.08-.35-.16-.51-.29-.21-.16-.53.17-.3.35.19.15.39.25.61.34.25.1.48-.29.2-.4Z" fill="#010101"/></svg>