<?xml version="1.0" encoding="UTF-8"?><svg id="Layer_1" xmlns="http://www.w3.org/2000/svg" viewBox="0 0 144.57 144.57"><path d="M71.66,71.21h0c-.16-.24-.24-.4-.32-.65-.08.24-.16.57-.24.81.16,0,.4-.08.65-.16h-.08Z" fill="none" stroke="#010101" stroke-miterlimit="10" stroke-width=".24"/><path d="M75.7,64.82c.08-.49.32-.89.49-1.13.65-.89,1.46-1.54,2.26-2.26-1.78-.4-3.8-.4-5.42-1.46-.4-.24-.81-.57-1.21-.97-.32.57-.65,1.13-.97,1.7-.32.57-.65,1.13-.97,1.78,1.13.24,2.18.73,2.83,1.62h0c.81,1.13.4,2.51-.16,3.72.73-.65.65-1.7,1.54-2.26h0c.49-.32,1.05-.4,1.46-.32v-.32h0l.16-.08Z" fill="none" stroke="#010101" stroke-miterlimit="10" stroke-width=".24"/><path d="M58.72,87.54h0c.16.81-.16,1.54-.65,2.18.08.32.16.73.24,1.13,0,.89.57,1.94,1.62,1.78.89-.08,1.21-.81,1.46-1.54-.16-.73,0-1.54.32-2.18.16-.97.4-1.86.81-2.91.57-1.37,1.05-3.15-.08-4.37h0c-1.05-1.13-2.91-1.29-4.37-1.21-1.86,0-2.91,1.62-2.83,3.4.16,0,.4.16.57.24,1.21.73,2.75,1.86,2.99,3.4l-.08.08ZM59.53,81.15h0c2.35,2.99.24,6.71.65,10.11,0,.08-.16.08-.16,0-.32-1.62-.08-3.32,0-5.01s.24-3.48-.65-5.01c0-.08.08-.16.16-.08Z" fill="none" stroke="#010101" stroke-miterlimit="10" stroke-width=".24"/><path d="M60.01,86.33c-.08,1.7-.32,3.32,0,5.01,0,.08.16.08.16,0-.49-3.4,1.7-7.04-.65-10.11h0c0-.08-.24,0-.16.08.89,1.54.73,3.32.65,5.01Z" fill="none" stroke="#010101" stroke-miterlimit="10" stroke-width=".24"/><path d="M87.99,40.15c.16.24.49.65.81.97h0c.32.24.73.4,1.05.32.89-.24.4-1.7.65-2.35.49-2.1,2.51-3.4,2.91-5.58.4-2.02-.97-4.29-3.32-3.8-.57.08-.97.24-1.62.16-.49,0-.89,0-1.37.16-.89.4-1.37,1.29-1.37,2.26,0,1.46.57,2.99,1.05,4.29.4,1.13.57,2.43,1.13,3.48l.08.08ZM88.15,33.03c.16-.81.32-1.7.73-2.35h0c-.08.81-.32,1.62-.4,2.43s0,1.62,0,2.43c0,1.7.32,3.48.97,5.09h0s0,.08,0,0c-.81-1.62-1.29-3.23-1.37-5.01,0-.89,0-1.78.24-2.67l-.16.08Z" fill="none" stroke="#010101" stroke-miterlimit="10" stroke-width=".24"/><path d="M89.37,40.64h0c-.65-1.62-.89-3.4-.97-5.09v-2.43c0-.81.32-1.62.4-2.43h0c-.4.65-.57,1.54-.73,2.35-.16.89-.24,1.7-.24,2.67,0,1.78.57,3.4,1.37,5.01,0,0,.08,0,0,0l.16-.08Z" fill="none" stroke="#010101" stroke-miterlimit="10" stroke-width=".24"/><path d="M61.39,91.1c.16.57.49,1.13,1.13,1.54.49.32.81.57,1.21.97.32.4.57.65,1.05.89.97.4,1.94.08,2.59-.57.97-.97,1.7-2.51,2.35-3.72.57-1.05,1.37-2.1,1.7-3.23.08-.32.16-.81.16-1.29h0c0-.4-.16-.81-.49-.97-.81-.49-1.54.81-2.1,1.21-1.86,1.05-4.21.57-6.07,1.7-.49.32-.97.81-1.21,1.29-.4.65-.57,1.46-.32,2.18ZM63.97,92.8c.65-.49,1.37-.81,2.02-1.37.65-.49,1.21-1.05,1.78-1.7,1.21-1.21,2.26-2.67,2.99-4.21h0s.08,0,0,0c-.57,1.7-1.37,3.15-2.59,4.45-.57.65-1.29,1.13-2.02,1.62-.65.4-1.46.89-2.18,1.05h0v.16Z" fill="none" stroke="#010101" stroke-miterlimit="10" stroke-width=".24"/><path d="M68.26,90.13c1.21-1.29,2.02-2.83,2.59-4.45h0c-.73,1.54-1.78,2.99-2.99,4.21-.57.57-1.13,1.13-1.78,1.7-.65.49-1.37.89-2.02,1.37h0c.81-.16,1.54-.65,2.18-1.05.73-.49,1.46-.97,2.02-1.62v-.16Z" fill="none" stroke="#010101" stroke-miterlimit="10" stroke-width=".24"/><path d="M63.25,71.12c-.32.4-.81.49-1.29.32-.16,1.54-.57,2.99-.97,4.37,0,0-.16,0-.08,0,.32-1.54.57-2.99.57-4.53-.24-.08-.4-.24-.57-.4-1.21-1.21-2.75-1.37-4.21-1.78.49,2.75,2.91,4.69,3.15,7.52,0,.49.4.81.81.89,1.29.24,1.21-.73,1.46-1.62.4-1.46,1.13-2.91,1.62-4.37.57-1.78,1.78-5.34-.81-6.23-.57-.16-1.13,0-1.62.16.49.97.97,1.86,1.7,2.83.57.89,1.29,2.02.49,2.91l-.24-.08Z" fill="none" stroke="#010101" stroke-miterlimit="10" stroke-width=".24"/><path d="M60.82,75.81s.08.08.08,0c.4-1.37.81-2.91.97-4.37-.16,0-.4-.08-.57-.24,0,1.54-.24,3.07-.57,4.53l.08.08Z" fill="none" stroke="#010101" stroke-miterlimit="10" stroke-width=".24"/><path d="M71.98,79.29c-1.86,1.62-4.61,2.18-6.96,2.59,0,0-.08-.08,0-.16,1.54-.4,3.15-.89,4.53-1.62.65-.4,1.37-.81,2.02-1.29-.97-1.21-2.1-2.18-2.43-3.8h0c-2.18,1.62-2.91,4.69-5.34,6.15-.4.24-.57.73-.4,1.05.32,1.21,1.21.73,2.1.57,1.54-.32,3.15-.24,4.61-.49.73-.16,1.86-.24,2.83-.57v-.08c-.08-.89-.49-1.62-.97-2.26v-.08Z" fill="none" stroke="#010101" stroke-miterlimit="10" stroke-width=".24"/><path d="M65.03,81.72v.16c2.35-.4,5.09-.97,6.96-2.59-.08-.16-.24-.32-.4-.49-.65.49-1.37.89-2.02,1.29-1.37.81-2.99,1.21-4.53,1.62Z" fill="none" stroke="#010101" stroke-miterlimit="10" stroke-width=".24"/><path d="M102.95,93.12c-1.05-.32-1.94.57-2.99.24-.89-.24-1.62-.49-2.35.24-.81.81-.97,2.18-.81,3.23.4,2.75,2.91,4.77,3.15,7.6,0,.49.4.81.81.89,1.29.24,1.21-.73,1.46-1.62.4-1.46,1.13-2.91,1.62-4.37.57-1.78,1.78-5.34-.81-6.23h-.08ZM101.26,103.8s-.16,0-.08,0c.32-1.54.65-3.15.57-4.77,0-1.54-.24-3.15-.81-4.53,0-.08.08-.16.16-.08h0c2.02,2.67,1.13,6.47.24,9.46l-.08-.08Z" fill="none" stroke="#010101" stroke-miterlimit="10" stroke-width=".24"/><path d="M100.85,94.42c.57,1.37.73,3.07.81,4.53.08,1.62-.24,3.23-.57,4.77,0,0,.08.08.08,0,.89-2.99,1.86-6.79-.24-9.46,0-.08-.24,0-.16.08l.08.08Z" fill="none" stroke="#010101" stroke-miterlimit="10" stroke-width=".24"/><path d="M69.23,73.23h-.16c-.08-1.7.4-3.32.73-4.93.4-1.62.73-3.48.08-5.09,0-.16.08-.16.16,0,1.86,3.32-.73,6.63-.81,9.95.32-.81.89-1.37,1.7-1.7.08-.24.16-.57.24-.81-.08-.24-.16-.4-.16-.65-.08-1.05.49-1.46,1.29-2.02,0,0,.16-.08.24-.16.57-1.13.97-2.51.16-3.72h0c-.65-.97-1.78-1.37-2.83-1.62-.4.73-.89,1.46-1.46,2.02-.73.73-1.62.97-2.59.57-.16,0-.32-.16-.49-.32v.49c-.16,2.67,2.43,4.37,2.1,7.28-.08.89.32,2.02,1.29,2.02h.32c0-.4,0-.89.16-1.21v-.08Z" fill="none" stroke="#010101" stroke-miterlimit="10" stroke-width=".24"/><path d="M70.12,63.04c0-.08-.24,0-.16,0,.65,1.62.24,3.4-.08,5.09-.32,1.62-.81,3.23-.73,4.93,0,0,.08.08.16,0v-.16c.08-3.4,2.67-6.71.81-9.95v.08Z" fill="none" stroke="#010101" stroke-miterlimit="10" stroke-width=".24"/><path d="M75.3,42.33c1.21,2.43,4.29,2.59,5.5,5.18.4.81,1.29,1.54,2.18,1.05,1.05-.65.81-1.94.57-2.91-.4-1.46-.65-2.67-.65-4.21,0-1.46-.24-3.23-1.7-3.96h0c-1.46-.65-3.15,0-4.45.49-1.78.81-2.18,2.67-1.29,4.29l-.16.08ZM78.29,38.05h0c3.32,1.94,2.75,6.15,4.45,9.14,0,.08-.08.16-.16.08-.97-1.37-1.37-3.07-1.86-4.61-.57-1.62-1.13-3.32-2.51-4.45-.08-.08,0-.24.08-.16Z" fill="none" stroke="#010101" stroke-miterlimit="10" stroke-width=".24"/><path d="M80.63,42.66c.57,1.62.97,3.23,1.86,4.61,0,.08.24,0,.16-.08-1.7-2.91-1.13-7.2-4.45-9.06h0c-.08,0-.24,0-.08.16,1.37,1.05,1.94,2.83,2.51,4.45v-.08Z" fill="none" stroke="#010101" stroke-miterlimit="10" stroke-width=".24"/><path d="M85.08,65.3c.65,2.26.16,4.93.81,7.28,0,.08-.16.16-.16,0-.57-1.62-.65-3.23-.89-4.93,0-.73-.16-1.46-.32-2.18h0c-1.62.4-3.32-.16-4.93-.24,0,.32,0,.65.16.97.73,2.59,3.64,3.4,4.29,6.23.16.89.89,1.78,1.86,1.54,1.21-.4,1.21-1.7,1.13-2.75,0-1.54,0-2.75.24-4.21.24-1.21.4-2.67-.32-3.72-.24.89-.97,1.62-1.86,2.02Z" fill="none" stroke="#010101" stroke-miterlimit="10" stroke-width=".24"/><path d="M85.73,72.58c0,.08.24,0,.16,0-.73-2.26-.24-4.93-.81-7.28-.16,0-.32.16-.49.16.16.73.24,1.46.32,2.18.16,1.62.24,3.32.89,4.93h-.08Z" fill="none" stroke="#010101" stroke-miterlimit="10" stroke-width=".24"/><path d="M50.63,39.18c1.94-.89,4.29-.24,6.15-1.21s2.67-3.48.89-4.93c-.49-.4-.81-.65-1.13-1.13-.32-.4-.57-.73-.97-.97-.89-.49-1.86-.24-2.67.4-1.05.89-1.94,2.35-2.67,3.56-.65,1.05-1.54,1.94-1.94,3.07-.08.32-.24.81-.24,1.21h0c0,.4.08.81.4,1.05.81.57,1.54-.73,2.26-1.05h-.08ZM51.68,35.06c.65-.57,1.37-1.05,2.18-1.46.73-.4,1.54-.81,2.26-.89h0c-.65.49-1.46.73-2.1,1.21s-1.29.97-1.94,1.54c-1.29,1.13-2.51,2.43-3.32,3.96h0s-.08,0,0,0c.73-1.62,1.62-3.07,2.99-4.21l-.08-.16Z" fill="none" stroke="#010101" stroke-miterlimit="10" stroke-width=".24"/><path d="M48.77,39.34h0c.81-1.46,2.02-2.83,3.32-3.96.65-.57,1.29-1.05,1.94-1.54.65-.49,1.46-.73,2.1-1.21h0c-.81.08-1.62.49-2.26.89-.81.4-1.54.89-2.18,1.46-1.29,1.21-2.26,2.59-2.99,4.21,0,0,0,.08,0,0l.08.16Z" fill="none" stroke="#010101" stroke-miterlimit="10" stroke-width=".24"/><path d="M40.2,76.06c.49.32.81.57,1.21.97.32.4.57.65,1.05.89.97.4,1.94.08,2.59-.57.97-.97,1.7-2.51,2.35-3.72.57-1.05,1.37-2.1,1.7-3.23.08-.32.16-.81.16-1.29h0c0-.4-.16-.81-.49-.97-.81-.49-1.54.81-2.1,1.21-1.86,1.05-4.21.57-6.07,1.7-1.78,1.13-2.43,3.72-.49,5.01h.08ZM41.73,76.22c.65-.49,1.37-.81,2.02-1.37.65-.49,1.21-1.05,1.78-1.7,1.21-1.21,2.26-2.67,2.99-4.21h0s.08,0,0,0c-.57,1.7-1.37,3.15-2.59,4.45-.57.65-1.29,1.13-2.02,1.62-.65.4-1.46.89-2.18,1.05h0v.16Z" fill="none" stroke="#010101" stroke-miterlimit="10" stroke-width=".24"/><path d="M46.02,73.55c1.21-1.29,2.02-2.83,2.59-4.45h0c-.73,1.54-1.78,2.99-2.99,4.21-.57.57-1.13,1.13-1.78,1.7-.65.49-1.37.89-2.02,1.37h0c.81-.16,1.54-.65,2.18-1.05.73-.49,1.46-.97,2.02-1.62v-.16Z" fill="none" stroke="#010101" stroke-miterlimit="10" stroke-width=".24"/><path d="M36.23,59.32c2.83.08,5.26-2.02,8.09-1.78.49,0,.89-.24.97-.65.49-1.21-.49-1.37-1.29-1.7-1.37-.65-2.67-1.62-4.04-2.35-1.7-.89-4.93-2.75-6.31-.24h0c-.57,1.05.16,2.02-.32,2.99-.4.81-.73,1.46-.16,2.35.65.97,1.94,1.29,3.07,1.37ZM34.46,54.71c2.99-1.54,6.63,0,9.38,1.46,0,0,0,.16,0,.08-1.46-.57-2.99-1.13-4.61-1.37-1.46-.16-3.15-.32-4.61,0-.16,0-.16-.16,0-.16h-.16Z" fill="none" stroke="#010101" stroke-miterlimit="10" stroke-width=".24"/><path d="M34.46,54.95c1.46-.32,3.15-.16,4.61,0,1.62.16,3.15.81,4.61,1.37,0,0,.16,0,0-.08-2.75-1.37-6.31-2.99-9.38-1.46-.08,0,0,.24,0,.16h.16Z" fill="none" stroke="#010101" stroke-miterlimit="10" stroke-width=".24"/><path d="M50.55,54.55c0,.49.4.81.81.89,1.29.24,1.21-.73,1.46-1.62.4-1.46,1.13-2.91,1.62-4.37.57-1.78,1.78-5.34-.81-6.23-1.05-.32-1.94.57-2.99.24-.89-.24-1.62-.49-2.35.24-.81.81-.97,2.18-.81,3.23.4,2.75,2.91,4.77,3.15,7.6h-.08ZM51.52,44.36h0c2.02,2.67,1.13,6.47.24,9.46,0,0-.16,0-.08,0,.32-1.54.65-3.15.57-4.77,0-1.54-.24-3.15-.81-4.53,0-.08.08-.16.16-.08l-.08-.08Z" fill="none" stroke="#010101" stroke-miterlimit="10" stroke-width=".24"/><path d="M52.17,49.05c.08,1.62-.24,3.23-.57,4.77,0,0,.08.08.08,0,.89-2.99,1.86-6.79-.24-9.46,0-.08-.24,0-.16.08.57,1.37.73,3.07.81,4.53l.08.08Z" fill="none" stroke="#010101" stroke-miterlimit="10" stroke-width=".24"/><path d="M52.81,57.13c-.97-.81-2.35-1.13-3.56-1.29-1.94-.24-3.23,1.21-3.32,3.07-.16,2.67,2.43,4.37,2.1,7.28-.08.89.32,2.02,1.29,2.02,1.21,0,1.7-1.21,1.94-2.26.4-1.46.81-2.67,1.54-3.96.57-1.05,1.21-2.35.89-3.56-.4-.4-.73-.81-.89-1.29ZM49.82,66.84c0,.08-.16.08-.16,0-.08-1.7.4-3.32.73-4.93.4-1.62.73-3.48.08-5.09,0-.16.08-.16.16,0,1.86,3.32-.81,6.71-.81,10.11v-.08Z" fill="none" stroke="#010101" stroke-miterlimit="10" stroke-width=".24"/><path d="M50.47,56.81c.65,1.62.24,3.4-.08,5.09-.32,1.62-.81,3.23-.73,4.93,0,.08.16.08.16,0,0-3.4,2.67-6.71.81-10.11,0-.08-.24,0-.16,0v.08Z" fill="none" stroke="#010101" stroke-miterlimit="10" stroke-width=".24"/><path d="M66.97,33.84c2.51.97,4.93-.89,7.52.24.81.32,2.02.32,2.35-.65.4-1.21-.65-2.02-1.54-2.59-1.29-.81-2.26-1.62-3.23-2.67s-2.35-2.35-3.88-1.86h0c-1.54.4-2.43,2.02-3.07,3.32-.81,1.7.16,3.4,1.86,4.12v.08ZM66.4,28.75c3.8-.73,6.07,2.83,9.3,3.96.08,0,0,.24,0,.16-1.62-.49-2.99-1.37-4.45-2.26-1.46-.89-3.07-1.78-4.77-1.7-.08,0-.08-.16,0-.16h-.08Z" fill="none" stroke="#010101" stroke-miterlimit="10" stroke-width=".24"/><path d="M66.4,28.91c1.78-.08,3.32.81,4.77,1.7,1.46.81,2.83,1.78,4.45,2.26.08,0,.16-.16,0-.16-3.23-1.13-5.58-4.69-9.3-3.96-.08,0-.08.16,0,.16h.08Z" fill="none" stroke="#010101" stroke-miterlimit="10" stroke-width=".24"/><path d="M65.91,55.92c0,.08-.16.16-.16,0-.57-1.62-.65-3.23-.89-4.93-.16-1.21-.24-2.43-.73-3.56-.97-.16-1.86-.4-2.67-.97-.24-.16-.4-.24-.65-.4-1.05.73-1.46,2.1-1.13,3.48.73,2.59,3.64,3.4,4.29,6.23.16.89.89,1.78,1.86,1.54,1.21-.4,1.21-1.7,1.13-2.75,0-1.54,0-2.75.24-4.21.16-.73.24-1.46.16-2.18-.89-.24-1.86-.4-2.75-.57,1.21,2.51.4,5.66,1.21,8.33h.08Z" fill="none" stroke="#010101" stroke-miterlimit="10" stroke-width=".24"/><path d="M65.75,56c0,.08.24,0,.16,0-.81-2.67,0-5.82-1.21-8.33-.16,0-.32,0-.49-.08.49,1.13.57,2.35.73,3.56.16,1.62.24,3.32.89,4.93l-.08-.08Z" fill="none" stroke="#010101" stroke-miterlimit="10" stroke-width=".24"/><path d="M42.22,89.81c-1.29-1.7-1.05-4.12-2.43-5.82-1.29-1.62-3.96-1.94-5.01.08-.24.49-.49.89-.89,1.29-.32.32-.57.65-.73,1.13-.24.97.08,1.94.89,2.51,1.13.89,2.67,1.46,3.96,1.94,1.13.49,2.18,1.13,3.4,1.37h1.29c.4-.08.81-.24.89-.57.4-.89-.97-1.37-1.46-2.02l.08.08ZM42.7,91.67c-1.7-.4-3.32-1.05-4.77-2.1-.73-.57-1.29-1.13-1.86-1.86-.49-.65-1.05-1.29-1.29-2.1h0c.57.57.97,1.29,1.54,1.86.57.57,1.21,1.13,1.86,1.62,1.37,1.05,2.91,1.94,4.53,2.51h0v.08Z" fill="none" stroke="#010101" stroke-miterlimit="10" stroke-width=".24"/><path d="M42.7,91.58c-1.62-.57-3.15-1.46-4.53-2.51-.65-.49-1.29-1.05-1.86-1.62-.57-.57-1.05-1.29-1.54-1.86h0c.24.73.81,1.46,1.29,2.1.57.73,1.13,1.29,1.86,1.86,1.37,1.05,2.99,1.7,4.77,2.1h0v-.08Z" fill="none" stroke="#010101" stroke-miterlimit="10" stroke-width=".24"/><path d="M67.86,102.99c-.16-.24-.49-.65-.89-.89h0c-.32-.24-.73-.4-1.05-.24-.89.32-.32,1.7-.4,2.43-.32,2.1-2.26,3.64-2.51,5.74s1.29,4.21,3.56,3.56c.57-.16.97-.32,1.54-.32.49,0,.89,0,1.37-.24.89-.49,1.29-1.37,1.21-2.43-.16-1.46-.81-2.91-1.37-4.21-.49-1.13-.73-2.35-1.37-3.4h-.08ZM68.26,110.02c-.08.81-.24,1.7-.57,2.43h0c0-.81.24-1.62.24-2.43s0-1.62-.16-2.43c-.16-1.7-.57-3.4-1.29-5.01h0s0-.08,0,0c.89,1.54,1.54,3.15,1.78,4.85.08.89,0,1.78,0,2.67v-.08Z" fill="none" stroke="#010101" stroke-miterlimit="10" stroke-width=".24"/><path d="M66.56,102.5s-.08,0,0,0h0c.73,1.54,1.13,3.32,1.29,5.01,0,.81.16,1.62.16,2.43s-.24,1.62-.24,2.43h0c.4-.73.49-1.62.57-2.43.08-.89.16-1.78,0-2.67-.24-1.78-.89-3.32-1.78-4.85v.08Z" fill="none" stroke="#010101" stroke-miterlimit="10" stroke-width=".24"/><path d="M53.14,100.8c-1.05-1.54-2.99-4.77-5.34-3.32h0c-.97.57-.81,1.86-1.78,2.43-.81.49-1.37.89-1.29,2.02.08,1.13,1.05,2.1,2.02,2.67,2.43,1.46,5.58.81,7.84,2.43.4.32.89.16,1.13,0,.97-.81.24-1.46-.32-2.18-.89-1.21-1.54-2.75-2.35-4.04h.08ZM54.84,105.66c-1.05-1.21-2.02-2.51-3.32-3.48-1.21-.89-2.59-1.86-4.04-2.26-.08,0,0-.16,0-.16,3.4.16,5.74,3.32,7.44,5.9,0,0,0,.08-.08,0Z" fill="none" stroke="#010101" stroke-miterlimit="10" stroke-width=".24"/><path d="M47.48,99.67c-.08,0-.16.16,0,.16,1.46.4,2.83,1.37,4.04,2.26,1.29.97,2.35,2.18,3.32,3.48,0,0,.16,0,.08,0-1.7-2.59-4.04-5.74-7.44-5.9Z" fill="none" stroke="#010101" stroke-miterlimit="10" stroke-width=".24"/><path d="M74.24,95.95c-.97-.08-1.78-.08-2.67,0-.24.49-.4.97-.89,1.29-.81.49-1.37.89-1.29,2.02s1.05,2.1,2.02,2.67c2.43,1.46,5.58.81,7.84,2.43.4.32.89.16,1.13,0,.97-.81.24-1.46-.32-2.18-.89-1.21-1.54-2.75-2.35-4.04-.4-.57-.89-1.37-1.46-2.1-.65.08-1.37,0-2.1,0l.08-.08ZM79.58,102.91s0,.08-.08,0c-1.05-1.21-2.02-2.51-3.32-3.48-1.21-.89-2.59-1.86-4.04-2.26-.08,0,0-.16,0-.16,3.4.16,5.74,3.32,7.44,5.9Z" fill="none" stroke="#010101" stroke-miterlimit="10" stroke-width=".24"/><path d="M72.06,97.25c1.46.4,2.83,1.37,4.04,2.26,1.29.97,2.35,2.18,3.32,3.48,0,0,.16,0,.08,0-1.7-2.59-4.04-5.74-7.44-5.9-.08,0-.16.16,0,.16Z" fill="none" stroke="#010101" stroke-miterlimit="10" stroke-width=".24"/><path d="M60.01,95.06c-.49-1.37-1.29-2.99-2.99-3.15h0c-.65,0-1.29.08-1.94.4-.57.57-1.13,1.13-1.7,1.78-.32.4-.81.89-1.29,1.13-.24,1.05.16,2.26,1.05,3.15,2.02,1.86,4.93.97,6.96,2.99.57.65,1.7,1.05,2.43.24.81-.97.08-2.1-.49-2.91-.89-1.21-1.54-2.26-2.02-3.72v.08ZM61.63,100.64c-1.37-.97-2.35-2.43-3.32-3.72-1.05-1.37-2.18-2.75-3.8-3.32-.16,0,0-.16,0-.16,3.8.65,4.69,4.85,7.28,7.04,0,0,0,.16-.16.16Z" fill="none" stroke="#010101" stroke-miterlimit="10" stroke-width=".24"/><path d="M54.51,93.44c-.08,0-.16.16,0,.16,1.7.57,2.83,2.02,3.8,3.32,1.05,1.29,2.02,2.67,3.32,3.72,0,0,.24,0,.16-.16-2.59-2.18-3.48-6.39-7.28-7.04Z" fill="none" stroke="#010101" stroke-miterlimit="10" stroke-width=".24"/><path d="M38.9,70.72c.81-.4,1.54-1.29,1.05-2.18-.65-1.05-1.94-.73-2.91-.49-1.46.4-2.67.73-4.12.81-1.46,0-3.23.32-3.88,1.86h0c-.65,1.46,0,3.15.65,4.45.81,1.7,2.75,2.1,4.37,1.21,2.35-1.29,2.43-4.37,5.01-5.66h-.16ZM29.68,73.63c0,.08-.24,0-.16-.08,1.86-3.4,6.07-2.91,8.98-4.69.08,0,.16.08.08.16-1.37.97-2.99,1.46-4.53,2.02-1.62.57-3.32,1.21-4.37,2.59Z" fill="none" stroke="#010101" stroke-miterlimit="10" stroke-width=".24"/><path d="M38.58,69.02c.08,0,0-.24-.08-.16-2.91,1.78-7.12,1.29-8.98,4.69,0,.08,0,.24.16.08,1.05-1.37,2.75-2.02,4.37-2.59,1.54-.57,3.15-1.05,4.53-2.02Z" fill="none" stroke="#010101" stroke-miterlimit="10" stroke-width=".24"/><path d="M49.58,76.7c.32.16.57.57.49,1.05-.08.32-.08.73-.16,1.05.08,0,.24.16.4.24,2.43,1.13,4.93-.65,7.52.65.81.4,1.94.49,2.35-.49.49-1.13-.57-2.02-1.37-2.67-1.21-.89-2.18-1.7-3.07-2.83s-2.18-2.43-3.8-2.02c-1.54.4-2.51,1.86-3.23,3.15-.32.65-.4,1.37-.32,1.94.24-.32.65-.4,1.21-.08h0ZM49.98,73.87h0c3.8-.57,5.9,3.15,9.06,4.45.08,0,0,.16,0,.16-1.62-.57-2.91-1.54-4.37-2.51-1.46-.97-2.91-1.94-4.69-1.94s-.08-.16,0-.16Z" fill="none" stroke="#010101" stroke-miterlimit="10" stroke-width=".24"/><path d="M49.98,74.04c1.78,0,3.23.97,4.69,1.94,1.37.89,2.75,1.94,4.37,2.51.08,0,.16-.16,0-.16-3.15-1.29-5.34-4.93-9.06-4.45h0c-.08,0-.16.16,0,.16Z" fill="none" stroke="#010101" stroke-miterlimit="10" stroke-width=".24"/><path d="M82.25,60.69c.16,0,.24-.08.4-.16.73-.16,1.62-.4,2.43-.4h0c-.73.24-1.54.4-2.35.65-.08,0-.16.08-.32.16.24.4.24.81-.32,1.29-.32.24-.73.32-1.13,0-.16-.16-.4-.24-.57-.32-1.46.81-2.83,1.78-3.96,3.07h0s-.08,0,0,0c.97-1.29,2.1-2.43,3.48-3.23-.4-.16-.89-.32-1.37-.4-.81.73-1.7,1.37-2.26,2.26-.16.24-.4.73-.49,1.13h0v.24c.57,0,1.05.32,1.54.73.4-.16.73-.4,1.05-.49.49-.08.89-.16,1.37-.08,1.62,0,3.32.73,4.93.24h0c.16,0,.32-.08.49-.16.89-.4,1.62-1.13,1.86-2.02.24-.81.16-1.7-.49-2.43-.24-.32-.49-.57-.65-.89h-.49c-1.21-.16-1.78-1.05-2.02-2.1-.4,0-.73.16-1.13.32-.4.24-.73.49-1.13.73.24.4.49.81.73,1.21.16.16.24.32.4.57v.08Z" fill="none" stroke="#010101" stroke-miterlimit="10" stroke-width=".24"/><path d="M85.08,60.21h0c-.81,0-1.7.16-2.43.4-.16,0-.24.08-.4.16.08.08.16.24.24.32.08,0,.16-.08.32-.16.73-.32,1.54-.4,2.35-.65l-.08-.08Z" fill="none" stroke="#010101" stroke-miterlimit="10" stroke-width=".24"/><path d="M76.35,65.06s0,.08,0,0h0c1.13-1.21,2.51-2.26,3.96-3.07-.16-.08-.4-.16-.57-.24-1.37.81-2.51,1.94-3.48,3.23l.08.08Z" fill="none" stroke="#010101" stroke-miterlimit="10" stroke-width=".24"/><path d="M74.16,52.85h0c.65-.4,1.29-.49,1.86-.24,0,0,.08,0,.16-.08.81-.57,1.13-1.54.89-2.51-.32-1.37-1.21-2.75-1.86-4.04-.57-1.05-1.05-2.26-1.78-3.15-.16-.24-.57-.57-.97-.81-.4-.16-.81-.32-1.05-.16-.89.49-.08,1.7-.16,2.43,0,.97-.4,1.86-.81,2.83.49.65.97,1.21.08,1.86-.24.16-.57.24-.89.16-.08.4-.16.73-.16,1.13,0,2.1,1.86,4.04,3.96,3.07.08,0,.16-.08.24-.16.16-.16.24-.32.49-.4v.08ZM71.98,42.58h0s0-.08,0,0c1.05,1.37,1.94,2.91,2.35,4.61.24.89.32,1.7.32,2.59s0,1.7-.24,2.43h0v-2.43c-.08-.81-.24-1.62-.4-2.43-.4-1.7-.97-3.32-1.94-4.77h-.08Z" fill="none" stroke="#010101" stroke-miterlimit="10" stroke-width=".24"/><path d="M74.33,49.77v2.43h0c.24-.73.24-1.62.24-2.43s0-1.78-.32-2.59c-.4-1.7-1.29-3.23-2.35-4.61,0,0-.08,0,0,0h0c.97,1.46,1.54,3.15,1.94,4.77.16.81.32,1.62.4,2.43h.08Z" fill="none" stroke="#010101" stroke-miterlimit="10" stroke-width=".24"/><path d="M87.75,78.81c.32-.57.65-1.13.97-1.62-.4.16-.81.16-1.21,0-.24.24-.4.57-.65.81.24.24.57.57.89.81Z" fill="none" stroke="#010101" stroke-miterlimit="10" stroke-width=".24"/><path d="M89.04,77.03c-.32.65-.65,1.29-.97,2.02.24.16.49.4.73.57.81.65,1.86,1.54,1.37,2.67-.4.97-1.62.89-2.35.49-.24-.16-.49-.24-.73-.32-.16.97-.32,1.94-.24,2.91,0,.08-.16.16-.16,0h0c-.4-1.05-.4-2.1-.24-3.15-.81-.16-1.62,0-2.43,0-.65,1.29-.81,2.75.49,3.72h0c.97.65,2.02,0,2.91.65.16.08.32.24.49.32.16-.32.32-.57.65-.73.65-.32,1.29,0,1.7.49.65-.65,1.05-1.62,1.13-2.51.4-2.75-1.37-5.42-.73-8.17-.16.16-.4.24-.57.4-.32.24-.65.4-1.05.65Z" fill="none" stroke="#010101" stroke-miterlimit="10" stroke-width=".24"/><path d="M86.7,85.52h0c0,.08.24,0,.16,0-.08-.97,0-1.94.24-2.91-.24,0-.4-.16-.65-.16-.16,1.05-.16,2.1.24,3.15v-.08Z" fill="none" stroke="#010101" stroke-miterlimit="10" stroke-width=".24"/><path d="M88.07,79.05c.32-.65.65-1.37.97-2.02-.08,0-.24.08-.32.08-.32.49-.65,1.05-.97,1.62.08.08.24.16.32.24v.08Z" fill="none" stroke="#010101" stroke-miterlimit="10" stroke-width=".24"/><path d="M74.97,83.01v.24c0,1.54-.32,3.15-.4,4.69v.49c.57-.16,1.21-.24,1.7-.16-.4-1.7-.49-3.64-.4-5.26h.16c.08,1.62.24,3.23.81,4.77.08.24.16.57.24.81.65.32,1.21.89,1.46,1.78.24.81.4,1.78.4,2.67.32-.16.65-.24.97-.24.89,0,1.62,0,2.18-.89.57-.97.32-2.35-.16-3.32-1.13-2.59-4.12-3.8-5.09-6.47-.16-.49-.57-.65-.97-.65-.08.73-.32,1.37-1.05,1.7l.16-.16Z" fill="none" stroke="#010101" stroke-miterlimit="10" stroke-width=".24"/><path d="M76.83,87.78c-.49-1.54-.65-3.15-.81-4.77h-.16c0,1.7,0,3.56.4,5.26.24,0,.57.16.81.24-.08-.24-.16-.57-.24-.81v.08Z" fill="none" stroke="#010101" stroke-miterlimit="10" stroke-width=".24"/><path d="M99.56,81.72h0c-.16-.08-.32-.24-.49-.32-.49.24-.89.4-1.37.65-1.54.81-2.99,1.86-4.12,3.15h0s-.08,0,0,0c1.05-1.46,2.26-2.67,3.8-3.48.4-.24.89-.4,1.29-.57-.4-.49-.57-1.13-.73-1.78-.73.57-1.37,1.29-2.02,1.94-.89.89-1.86,1.54-2.59,2.59-.16.24-.4.73-.49,1.13h0c-.08.4,0,.81.16,1.05.65.73,1.7-.32,2.43-.49,2.1-.49,4.21.73,6.31.16,1.86-.49,3.15-2.51,2.18-4.29-1.37.57-2.99,1.05-4.37.4v-.16Z" fill="none" stroke="#010101" stroke-miterlimit="10" stroke-width=".24"/><path d="M93.57,85.12s0,.08,0,0h0c1.13-1.29,2.59-2.35,4.12-3.15.4-.24.89-.49,1.37-.65-.16-.08-.24-.24-.32-.4-.49.16-.89.32-1.29.57-1.54.89-2.75,2.1-3.8,3.48l-.08.16Z" fill="none" stroke="#010101" stroke-miterlimit="10" stroke-width=".24"/><path d="M88.48,93.36c0-1.13-.08-2.02-.32-3.07-.49,1.21-1.13,2.35-1.78,3.48-.81,1.46-1.7,3.07-1.62,4.85,0,.16-.16.16-.16,0h0c-.73-3.48,2.26-5.82,3.48-8.73,0-.24-.08-.49-.16-.73,0-.24-.16-.57-.16-.89-.4.32-.81.81-1.05,1.29-.81,1.29-1.54,2.26-2.67,3.32-1.05.97-2.26,2.35-1.78,3.96h0c.49,1.46,2.02,2.35,3.4,2.99,1.78.81,3.4-.24,4.04-1.94.08-.24.16-.4.16-.65-1.29-.81-1.46-2.51-1.37-3.88h0Z" fill="none" stroke="#010101" stroke-miterlimit="10" stroke-width=".24"/><path d="M84.6,98.62h0c0,.08.16.08.16,0-.08-1.78.81-3.32,1.62-4.85.65-1.13,1.29-2.26,1.78-3.48,0-.16,0-.32-.08-.4-1.29,2.91-4.29,5.26-3.48,8.73Z" fill="none" stroke="#010101" stroke-miterlimit="10" stroke-width=".24"/><path d="M68.58,64.41c.57-.57,1.05-1.29,1.46-2.02.32-.57.65-1.21.97-1.78.32-.57.65-1.13.97-1.7-.24-.32-.49-.65-.65-.97-.49.97-1.05,1.86-1.86,2.59-.57.65-1.29,1.13-2.02,1.62-.65.4-1.46.89-2.18,1.05h0c.65-.49,1.37-.89,2.02-1.37.65-.49,1.21-1.05,1.78-1.7.81-.81,1.54-1.7,2.1-2.67v-.4c-.08-1.05.49-1.46,1.29-2.02h-.08c-.81-.49-1.54.81-2.1,1.21-1.7,1.05-3.96.65-5.74,1.54.24.4.32.81.08,1.37-.32.81-1.13.89-1.86.65-.4,1.13-.16,2.35.97,3.15.49.32.81.57,1.21.97.16.24.4.4.57.57.16.08.32.24.49.32.97.4,1.94.08,2.59-.57v.16Z" fill="none" stroke="#010101" stroke-miterlimit="10" stroke-width=".24"/><path d="M68.99,60.29c-.57.57-1.13,1.13-1.78,1.7-.65.49-1.37.89-2.02,1.37h0c.81-.16,1.54-.65,2.18-1.05.73-.49,1.46-.97,2.02-1.62.73-.81,1.37-1.7,1.86-2.59,0-.08-.08-.24-.08-.32-.65.97-1.37,1.86-2.1,2.67l-.08-.16Z" fill="none" stroke="#010101" stroke-miterlimit="10" stroke-width=".24"/><path d="M82.01,74.6h.49c.4-.65-.24-1.13-.65-1.78-.89-1.21-1.54-2.75-2.35-4.04-.57-.81-1.37-2.1-2.26-2.91-.49-.4-.97-.73-1.54-.73-.49,0-.97,0-1.46.32h0c-.89.57-.89,1.62-1.54,2.26,0,0-.16.08-.24.16-.81.49-1.37.89-1.29,2.02,0,.24.08.49.16.65.08.24.24.49.32.65,1.46-.16,3.23-.24,4.45.81h0c.49.49.73,1.05.81,1.7,1.46.24,2.91.49,4.04,1.29h0c.32-.16.57-.32.97-.4h.08ZM81.2,73.63c-1.05-1.21-2.02-2.51-3.32-3.48-1.21-.89-2.59-1.86-4.04-2.26-.08,0,0-.16,0-.16,3.4.16,5.74,3.32,7.44,5.9,0,0,0,.08-.08,0Z" fill="none" stroke="#010101" stroke-miterlimit="10" stroke-width=".24"/><path d="M73.84,67.65c-.08,0-.16.16,0,.16,1.46.4,2.83,1.37,4.04,2.26,1.29.97,2.35,2.18,3.32,3.48,0,0,.16,0,.08,0-1.7-2.59-4.04-5.74-7.44-5.9Z" fill="none" stroke="#010101" stroke-miterlimit="10" stroke-width=".24"/><path d="M71.09,57.21v.4c0,.08,0,.24.08.32.16.32.4.65.65.97.32.4.73.73,1.21.97,1.62.97,3.56,1.05,5.42,1.46.49.08.89.24,1.37.4.16,0,.4.16.57.24s.4.16.57.32c.4.32.89.16,1.13,0,.57-.49.57-.89.32-1.29,0-.08-.16-.24-.24-.32-.16-.16-.24-.32-.4-.57-.24-.4-.57-.81-.73-1.21-.57-.97-.97-1.94-1.62-2.83-.73-1.13-1.94-3.07-3.48-3.56-.57-.16-1.21-.16-1.86.24h0c-.16.16-.32.24-.49.4-.49.65-.57,1.54-1.29,2.02h0c-.81.49-1.37.89-1.29,2.02h.08ZM73.76,55.03c3.4.16,5.74,3.32,7.44,5.9,0,0,0,.08-.08,0-1.05-1.21-2.02-2.51-3.32-3.48-1.21-.89-2.59-1.86-4.04-2.26-.08,0,0-.16,0-.16Z" fill="none" stroke="#010101" stroke-miterlimit="10" stroke-width=".24"/><path d="M73.76,55.27c1.46.4,2.83,1.37,4.04,2.26,1.29.97,2.35,2.18,3.32,3.48,0,0,.16,0,.08,0-1.7-2.59-4.04-5.74-7.44-5.9-.08,0-.16.16,0,.16Z" fill="none" stroke="#010101" stroke-miterlimit="10" stroke-width=".24"/><path d="M70.44,48.97c.89-.73.4-1.29-.08-1.86,0-.08-.16-.16-.16-.24-.89-1.21-1.54-2.75-2.35-4.04-1.05-1.54-2.99-4.77-5.34-3.32h0c-.97.57-.81,1.86-1.78,2.43-.81.49-1.37.89-1.29,2.02,0,.89.65,1.7,1.37,2.26.24.16.4.32.65.4.81.49,1.78.73,2.67.97.16,0,.32,0,.49.08.97.16,1.86.24,2.75.57.65.16,1.29.49,1.86.89.08,0,.16.08.24.16.32.08.65,0,.89-.16l.08-.16ZM69.47,47.67c-1.05-1.21-2.02-2.51-3.32-3.48-1.21-.89-2.59-1.86-4.04-2.26-.08,0,0-.16,0-.16,3.4.16,5.74,3.32,7.44,5.9,0,0,0,.08-.08,0Z" fill="none" stroke="#010101" stroke-miterlimit="10" stroke-width=".24"/><path d="M62.11,41.69c-.08,0-.16.16,0,.16,1.46.4,2.83,1.37,4.04,2.26,1.29.97,2.35,2.18,3.32,3.48,0,0,.16,0,.08,0-1.7-2.59-4.04-5.74-7.44-5.9Z" fill="none" stroke="#010101" stroke-miterlimit="10" stroke-width=".24"/><path d="M60.82,70.88c.16.16.32.32.57.4.16.08.4.16.57.24.49.08.97,0,1.29-.32.81-.97.08-2.1-.49-2.91-.65-.97-1.21-1.86-1.7-2.83-.16-.24-.24-.57-.4-.89-.49-1.37-1.29-2.99-2.99-3.15h0c-1.54-.16-2.99.97-4.04,2.02-1.37,1.29-1.13,3.23.24,4.53.81.73,1.7,1.05,2.67,1.29,1.46.32,2.99.49,4.21,1.78l.08-.16ZM55.24,62.88c3.8.65,4.69,4.85,7.28,7.04,0,0,0,.16-.16.16-1.37-.97-2.35-2.43-3.32-3.72-1.05-1.37-2.18-2.75-3.8-3.32-.16,0,0-.16,0-.16Z" fill="none" stroke="#010101" stroke-miterlimit="10" stroke-width=".24"/><path d="M59.04,66.35c1.05,1.29,2.02,2.67,3.32,3.72,0,0,.24,0,.16-.16-2.59-2.18-3.48-6.39-7.28-7.04-.08,0-.16.16,0,.16,1.7.57,2.83,2.02,3.8,3.32Z" fill="none" stroke="#010101" stroke-miterlimit="10" stroke-width=".24"/><path d="M64.54,59.32c.24-.49.16-.97-.08-1.37-.32-.49-.81-.97-1.29-1.29-1.21-.89-2.18-1.7-3.07-2.83s-2.18-2.43-3.8-2.02c-1.54.4-2.51,1.86-3.23,3.15-.4.81-.4,1.54-.24,2.26.16.49.49.89.89,1.29.32.24.65.49.97.65,2.43,1.13,4.93-.65,7.52.65.16,0,.32.16.49.16.73.24,1.62.08,1.86-.65ZM59.04,56.08c-1.46-.97-2.91-1.94-4.69-1.94s-.08-.16,0-.16h0c3.8-.57,5.9,3.15,9.06,4.45.08,0,0,.16,0,.16-1.62-.57-2.91-1.54-4.37-2.51Z" fill="none" stroke="#010101" stroke-miterlimit="10" stroke-width=".24"/><path d="M63.49,58.35c-3.15-1.29-5.34-4.93-9.06-4.45h0c-.08,0-.16.16,0,.16,1.78,0,3.23.97,4.69,1.94,1.37.89,2.75,1.94,4.37,2.51.08,0,.16-.16,0-.16Z" fill="none" stroke="#010101" stroke-miterlimit="10" stroke-width=".24"/><path d="M49.09,88.84c1.05-.57,1.54-1.78,1.7-2.91.4-2.43-.97-4.77-.89-7.12,0-.32,0-.73.16-1.05.08-.49-.16-.89-.49-1.05-.57-.32-.97-.24-1.21.08-.24.24-.4.65-.65,1.05-.81,1.29-1.94,2.43-2.83,3.72-1.05,1.54-3.32,4.61-1.05,6.23h0c.97.65,2.02,0,2.91.65.73.57,1.37.97,2.35.4ZM46.1,87.14h0c-1.13-3.15.89-6.55,2.59-9.14,0,0,.16,0,.08,0-.73,1.37-1.54,2.83-1.94,4.45-.4,1.46-.73,3.07-.57,4.61,0,.08-.16.16-.16,0v.08Z" fill="none" stroke="#010101" stroke-miterlimit="10" stroke-width=".24"/><path d="M46.83,82.53c.4-1.54,1.13-2.99,1.94-4.45,0,0,0-.16-.08,0-1.7,2.59-3.8,5.9-2.59,9.14h0c0,.08.24,0,.16,0-.16-1.54.24-3.15.57-4.61v-.08Z" fill="none" stroke="#010101" stroke-miterlimit="10" stroke-width=".24"/><path d="M90.9,67.24c-.16.16-.32.24-.49.4-1.86,1.94-.97,4.93-3.07,6.87-.65.57-1.05,1.7-.32,2.43.16.08.24.16.4.24.4.16.81.16,1.21,0,.08,0,.24,0,.32-.08.4-.16.73-.4,1.05-.65.24-.16.4-.24.57-.4.97-.65,1.94-1.21,3.07-1.62,1.37-.49,2.99-1.29,3.15-2.91.16-1.54-.97-2.99-2.02-4.04h0c-.49,0-1.05.08-1.62.16-.81.08-1.78.16-2.43-.32l.16-.08ZM95.27,68.94c0-.16.16,0,.16,0-.73,3.8-4.85,4.61-7.12,7.2,0,0-.16,0-.16-.16,1.05-1.37,2.43-2.26,3.72-3.32,1.37-1.05,2.75-2.18,3.32-3.8l.08.08Z" fill="none" stroke="#010101" stroke-miterlimit="10" stroke-width=".24"/><path d="M88.24,76.06s0,.24.16.16c2.18-2.59,6.39-3.4,7.12-7.2,0-.08-.16-.16-.16,0-.57,1.7-2.02,2.75-3.32,3.8-1.29,1.05-2.75,1.94-3.72,3.32l-.08-.08Z" fill="none" stroke="#010101" stroke-miterlimit="10" stroke-width=".24"/><path d="M96.81,60.37c-.24-1.29-.49-2.67.08-4.04.32-.81.32-2.02-.65-2.35-1.21-.4-1.94.65-2.51,1.54-.81,1.29-1.54,2.26-2.67,3.32-1.05.97-2.26,2.35-1.78,3.96h0c.32.89,1.05,1.62,1.86,2.18.24-.16.49-.24.73-.32,2.35-.73,3.15-3.07,4.93-4.29ZM91.63,64.49h0c-.81-3.72,2.75-6.15,3.8-9.38,0-.08.24,0,.16,0-.4,1.62-1.29,3.07-2.18,4.53-.81,1.46-1.7,3.07-1.62,4.85,0,.16-.16.16-.16,0Z" fill="none" stroke="#010101" stroke-miterlimit="10" stroke-width=".24"/><path d="M95.59,55.19c0-.08-.16-.16-.16,0-1.05,3.23-4.61,5.66-3.8,9.38h0c0,.08.16.08.16,0-.08-1.78.81-3.32,1.62-4.85.81-1.46,1.7-2.83,2.18-4.53Z" fill="none" stroke="#010101" stroke-miterlimit="10" stroke-width=".24"/><path d="M86.62,42.82c-.81.97,0,2.1.57,2.91.89,1.21,1.54,2.26,2.1,3.64s1.37,2.99,2.99,3.07h0c1.54.08,2.99-1.05,3.96-2.1,1.37-1.37,1.05-3.23-.32-4.53-2.02-1.78-4.93-.89-6.96-2.91-.65-.65-1.78-1.05-2.43-.24l.08.16ZM94.79,50.74c.08,0,0,.16,0,.16h0c-3.8-.65-4.77-4.77-7.36-6.96-.08,0,0-.16.08-.16,1.37.97,2.35,2.35,3.4,3.64,1.05,1.29,2.18,2.75,3.88,3.23v.08Z" fill="none" stroke="#010101" stroke-miterlimit="10" stroke-width=".24"/><path d="M87.51,43.87c-.08,0-.24,0-.08.16,2.67,2.18,3.56,6.31,7.36,6.96h0c.08,0,.16-.16,0-.16-1.7-.57-2.83-1.94-3.88-3.23s-2.02-2.67-3.4-3.64v-.08Z" fill="none" stroke="#010101" stroke-miterlimit="10" stroke-width=".24"/><path d="M114.28,82.2c-.57-1.05-.97-2.26-1.78-3.23-.16-.24-.57-.57-.97-.81h0c-.4-.24-.73-.32-1.05-.16-.89.4-.08,1.7-.16,2.43-.08,2.1-1.86,3.8-1.86,5.98s1.78,4.04,3.96,3.15c.57-.24.89-.4,1.54-.49.49,0,.89-.08,1.29-.4.81-.57,1.13-1.54.89-2.51-.32-1.37-1.13-2.83-1.86-4.04v.08ZM113.31,88.43h0v-2.43c0-.81-.24-1.62-.4-2.43-.4-1.7-.97-3.32-1.86-4.77h0s0-.08,0,0c1.05,1.37,1.86,2.91,2.26,4.61.16.89.24,1.7.24,2.59,0,.81,0,1.7-.32,2.43h.08Z" fill="none" stroke="#010101" stroke-miterlimit="10" stroke-width=".24"/><path d="M111.12,78.73s-.08,0,0,0h0c.89,1.46,1.54,3.15,1.86,4.85.16.81.32,1.62.4,2.43s0,1.62,0,2.43h0c.32-.73.32-1.62.32-2.43,0-.89,0-1.78-.24-2.59-.4-1.7-1.21-3.23-2.26-4.61l-.08-.08Z" fill="none" stroke="#010101" stroke-miterlimit="10" stroke-width=".24"/><path d="M107.48,42.82c-.57-.24-.89-.4-1.37-.73-.4-.32-.73-.57-1.21-.65-.97-.16-1.86.24-2.43,1.05-.81,1.21-1.21,2.75-1.62,4.12-.32,1.13-.97,2.26-1.05,3.48,0,.32,0,.81.08,1.29h0c.08.4.32.81.65.89.89.32,1.29-1.13,1.86-1.62,1.62-1.37,4.04-1.37,5.58-2.83s1.7-4.04-.49-5.01ZM104.25,44.6c-.57.65-1.05,1.29-1.46,1.94-.97,1.46-1.78,2.99-2.18,4.69h0c.24-1.7.81-3.4,1.78-4.85.49-.73,1.05-1.37,1.7-2.02.57-.57,1.21-1.13,1.94-1.46h0c-.57.57-1.21,1.05-1.7,1.7h-.08Z" fill="none" stroke="#010101" stroke-miterlimit="10" stroke-width=".24"/><path d="M104.01,44.36c-.65.57-1.21,1.21-1.7,2.02-.97,1.46-1.46,3.15-1.78,4.85h0c.4-1.62,1.21-3.23,2.18-4.69.49-.65.97-1.37,1.46-1.94.57-.65,1.21-1.13,1.7-1.7h0c-.73.32-1.37.97-1.94,1.46h.08Z" fill="none" stroke="#010101" stroke-miterlimit="10" stroke-width=".24"/><path d="M118.89,67.24c-.89-2.67-3.8-4.21-4.53-6.87-.16-.49-.57-.73-.89-.73-1.29,0-1.05.97-1.13,1.86-.08,1.54-.57,3.07-.73,4.61-.16,1.86-.73,5.58,2.02,5.98h0c1.13.16,1.86-.89,2.91-.73.89.08,1.62.16,2.26-.73.65-.97.49-2.26.16-3.32l-.08-.08ZM115.25,70.56h0c-2.51-2.26-2.26-6.23-1.94-9.3h.16c0,1.62,0,3.23.4,4.77.32,1.46.81,3.07,1.62,4.37,0,.08,0,.24-.16.16h-.08Z" fill="none" stroke="#010101" stroke-miterlimit="10" stroke-width=".24"/><path d="M113.71,66.11c-.4-1.62-.4-3.23-.4-4.77,0,0-.08-.08-.16,0-.32,3.07-.57,7.04,1.94,9.3h0c.08,0,.24,0,.16-.16-.81-1.29-1.29-2.83-1.62-4.37h.08Z" fill="none" stroke="#010101" stroke-miterlimit="10" stroke-width=".24"/><path d="M85.32,59.96h.49c.89-.16,1.54-.89,2.43-.73.89.08,1.62.16,2.26-.73.65-.97.49-2.26.16-3.32-.89-2.67-3.8-4.21-4.53-6.87-.16-.49-.57-.73-.89-.73-1.29,0-1.05.97-1.13,1.86-.08,1.54-.57,3.07-.73,4.61-.08,1.05-.32,2.59,0,3.88.24,1.05.81,1.94,2.02,2.1l-.08-.08ZM85.08,49.13h.16c0,1.62,0,3.23.4,4.77.32,1.46.81,3.07,1.62,4.37,0,.08,0,.24-.16.16h0c-2.51-2.26-2.26-6.23-1.94-9.3h-.08Z" fill="none" stroke="#010101" stroke-miterlimit="10" stroke-width=".24"/><path d="M87.02,58.43c.08,0,.24,0,.16-.16-.81-1.29-1.29-2.83-1.62-4.37-.4-1.62-.4-3.23-.4-4.77,0,0-.08-.08-.16,0-.32,3.07-.57,7.04,1.94,9.3h.08Z" fill="none" stroke="#010101" stroke-miterlimit="10" stroke-width=".24"/><path d="M104.01,57.94c0-.89-.65-1.94-1.7-1.7-1.21.24-1.46,1.54-1.54,2.59,0,.49-.08.97-.16,1.46.49.32.89.89,1.05,1.54,0,.24.16.57.24.81.16-1.7.4-3.4.16-5.01,0-.08.16-.16.16,0,.4,1.62.24,3.32.16,5.01,0,1.7-.08,3.56.81,5.01,0,.08,0,.16-.16.08-.65-.73-.97-1.54-1.13-2.35-.08.32-.24.65-.4.97h0c-.32.49-.73.81-1.29.97,1.13,1.05,2.91,1.05,4.29.97,1.94-.16,2.91-1.78,2.67-3.64-.32-2.67-3.15-3.88-3.4-6.71h.24Z" fill="none" stroke="#010101" stroke-miterlimit="10" stroke-width=".24"/><path d="M102.15,65.3c.16.81.49,1.62,1.13,2.35,0,.08.24,0,.16-.08-.97-1.46-.89-3.32-.81-5.01,0-1.7.16-3.32-.16-5.01,0-.08-.24-.08-.16,0,.32,1.62,0,3.32-.16,5.01.16.89.32,1.86.08,2.67l-.08.08Z" fill="none" stroke="#010101" stroke-miterlimit="10" stroke-width=".24"/><path d="M90.34,105.09c-2.67-.49-4.69,1.78-7.44,1.13-.81-.16-2.02,0-2.18,1.05-.16,1.21,1.05,1.86,1.94,2.26,1.37.57,2.51,1.13,3.72,2.02,1.13.89,2.75,1.86,4.21,1.05h0c1.37-.73,2.02-2.43,2.35-3.88.49-1.86-.81-3.32-2.59-3.72v.08ZM91.87,110.02h0c-3.56,1.46-6.55-1.62-9.87-2.1-.08,0,0-.16,0-.16,1.7.16,3.23.81,4.77,1.37,1.62.57,3.32,1.21,5.01.81.16,0,.16.16,0,.16l.08-.08Z" fill="none" stroke="#010101" stroke-miterlimit="10" stroke-width=".24"/><path d="M91.79,109.86c-1.7.4-3.4-.16-5.01-.81-1.54-.57-3.15-1.21-4.77-1.37-.08,0-.16.16,0,.16,3.4.49,6.31,3.56,9.87,2.1h0c.08,0,.08-.24,0-.16l-.08.08Z" fill="none" stroke="#010101" stroke-miterlimit="10" stroke-width=".24"/><path d="M100.12,71.77c-.32-.81-1.21-1.62-2.1-1.13-1.13.57-.89,1.94-.65,2.91.32,1.46.57,2.67.57,4.21,0,.49,0,1.05.08,1.54.08.65.32,1.29.73,1.78.08.16.24.24.32.4.16.08.32.24.49.32h0c1.37.65,3.07.16,4.37-.32h.08c1.78-.73,2.18-2.67,1.37-4.29-1.21-2.43-4.21-2.67-5.34-5.34l.08-.08ZM102.47,81.23c-3.23-2.02-2.59-6.23-4.21-9.22,0-.08.08-.16.16-.08.89,1.46,1.29,3.07,1.78,4.69s1.05,3.4,2.35,4.53c.08,0,0,.16-.08.16v-.08Z" fill="none" stroke="#010101" stroke-miterlimit="10" stroke-width=".24"/><path d="M100.2,76.62c-.49-1.62-.89-3.23-1.78-4.69,0-.08-.24,0-.16.08,1.62,2.99.89,7.2,4.21,9.22.08,0,.24,0,.08-.16-1.37-1.13-1.86-2.83-2.35-4.53v.08Z" fill="none" stroke="#010101" stroke-miterlimit="10" stroke-width=".24"/><path d="M88.56,86.25c-.32.16-.57.49-.65.73-.16.4-.16.89-.08,1.29,0,.32.08.57.16.89,0,.24.08.49.16.73,0,.16,0,.32.08.4.24.97.32,1.94.32,3.07,0,1.37.16,3.07,1.37,3.88,0,0,.16.08.24.16h0c1.37.73,3.15.16,4.53-.4,1.78-.73,2.18-2.67,1.37-4.29-1.21-2.43-4.21-2.67-5.34-5.34-.08-.24-.24-.49-.4-.65-.4-.49-1.05-.81-1.7-.49h-.08ZM90.74,92.23c.49,1.62,1.05,3.4,2.35,4.53.08,0,0,.16-.08.16-3.23-2.02-2.59-6.23-4.21-9.22,0-.08.08-.16.16-.08.89,1.46,1.29,3.07,1.78,4.69v-.08Z" fill="none" stroke="#010101" stroke-miterlimit="10" stroke-width=".24"/><path d="M88.96,87.62c0-.08-.24,0-.16.08,1.62,2.99.89,7.2,4.21,9.22.08,0,.24,0,.08-.16-1.37-1.13-1.86-2.83-2.35-4.53-.49-1.62-.89-3.23-1.78-4.69v.08Z" fill="none" stroke="#010101" stroke-miterlimit="10" stroke-width=".24"/><path d="M76.1,72.01c-1.21-1.05-2.99-.97-4.45-.81h0c-.24,0-.4,0-.65.16-.89.32-1.46.89-1.7,1.7v.16c-.08.4-.16.81-.16,1.21v.49h0c.32,1.62,1.46,2.67,2.43,3.8.16.16.24.32.4.49.49.65.81,1.37.97,2.26v.08c.16.81.81,1.78,1.78,1.54.08,0,.16,0,.32-.08.65-.32.89-.97,1.05-1.7v-.89c0-1.54.16-2.75.57-4.21.24-.81.4-1.78.32-2.59,0-.65-.32-1.21-.81-1.7h0l-.08.08ZM74.81,81.72c0,.08-.16.16-.16,0-.49-1.62-.4-3.32-.49-4.93,0-1.7-.08-3.56-1.13-4.93,0-.08,0-.16.16-.08h0c2.59,2.83.81,6.71,1.62,10.03v-.08Z" fill="none" stroke="#010101" stroke-miterlimit="10" stroke-width=".24"/><path d="M73.19,71.69c0-.08-.24,0-.16.08,1.05,1.46,1.05,3.23,1.13,4.93,0,1.7,0,3.32.49,4.93,0,.08.24,0,.16,0-.73-3.32,1.05-7.2-1.62-9.95h0Z" fill="none" stroke="#010101" stroke-miterlimit="10" stroke-width=".24"/><path d="M86.46,82.28c.24,0,.4.08.65.16.24,0,.49.16.73.32.73.4,1.94.49,2.35-.49.49-1.13-.49-2.02-1.37-2.67-.24-.16-.49-.4-.73-.57-.08-.08-.24-.16-.32-.24-.32-.24-.57-.49-.89-.81-.4-.4-.73-.81-1.13-1.21-.81-1.05-1.86-2.18-3.23-2.18h-.49c-.32,0-.65.24-.97.4-1.05.65-1.78,1.78-2.35,2.75-.97,1.7-.08,3.4,1.54,4.21,1.21.57,2.43.49,3.64.32.81,0,1.62-.16,2.43,0h.16ZM80.07,77.03c-.16,0-.08-.16,0-.16,3.8-.49,5.9,3.23,8.98,4.61.08,0,0,.24,0,.16-1.62-.57-2.91-1.62-4.29-2.59-1.37-.97-2.91-2.02-4.69-2.02Z" fill="none" stroke="#010101" stroke-miterlimit="10" stroke-width=".24"/><path d="M89.04,81.56c.08,0,.16-.16,0-.16-3.15-1.37-5.26-5.09-8.98-4.61-.08,0-.16.16,0,.16,1.78,0,3.23,1.05,4.69,2.02,1.37.97,2.67,2.02,4.29,2.59Z" fill="none" stroke="#010101" stroke-miterlimit="10" stroke-width=".24"/><path d="M101.74,66.27h0c.16-.32.32-.65.4-.97.24-.89.08-1.78-.08-2.67,0-.32-.16-.57-.24-.81-.24-.73-.57-1.21-1.05-1.54-.81-.57-1.94-.65-2.99-.32-.32.08-.65.24-.89.49-1.86,1.21-2.59,3.56-4.93,4.29-.24,0-.49.16-.73.32-.57.4-.97.97-.65,1.62.08.24.24.49.4.57.65.49,1.62.4,2.43.32.57,0,1.05-.16,1.62-.16h2.59c.89.08,2.02.16,2.91-.16.49-.16.97-.49,1.29-.97h-.08ZM91.87,66.51c-.08,0-.16-.16,0-.16,1.54-.73,3.23-.97,4.85-1.21,1.7-.32,3.48-.65,4.69-1.86.08-.08.24,0,.16.16h0c-2.35,2.99-6.47,1.86-9.62,3.15l-.08-.08Z" fill="none" stroke="#010101" stroke-miterlimit="10" stroke-width=".24"/><path d="M101.5,63.36c0-.08,0-.24-.16-.16-1.29,1.21-3.07,1.54-4.69,1.86s-3.32.49-4.85,1.21c-.08,0,0,.24,0,.16,3.15-1.29,7.28-.08,9.62-3.15h0l.08.08Z" fill="none" stroke="#010101" stroke-miterlimit="10" stroke-width=".24"/><path d="M78.53,90.29c-.24-.89-.81-1.46-1.46-1.78-.24-.16-.49-.24-.81-.24-.57-.08-1.13,0-1.7.16h-.16c-2.51.89-3.15,3.88-5.9,4.77-.81.24-1.7,1.05-1.37,2.02.49,1.13,1.78,1.05,2.83.97.57,0,1.05-.16,1.62-.16h2.67c.65,0,1.37.16,2.1,0,.81-.08,1.62-.4,2.1-1.21h0c.32-.57.49-1.21.49-1.86,0-.89-.16-1.86-.4-2.67ZM68.66,95.06c-.08,0-.16-.16,0-.16,1.54-.73,3.23-.97,4.85-1.21,1.7-.32,3.48-.65,4.69-1.86.08-.08.24,0,.16.16h0c-2.35,2.99-6.47,1.86-9.62,3.15l-.08-.08Z" fill="none" stroke="#010101" stroke-miterlimit="10" stroke-width=".24"/><path d="M78.21,91.91h0c0-.08,0-.24-.16-.16-1.29,1.21-3.07,1.54-4.69,1.86s-3.32.49-4.85,1.21c-.08,0,0,.24,0,.16,3.15-1.29,7.28-.08,9.62-3.15l.08.08Z" fill="none" stroke="#010101" stroke-miterlimit="10" stroke-width=".24"/><path d="M53.46,94.17c.57-.65,1.05-1.21,1.7-1.78.4-.4.89-.81,1.37-1.13.57-.4,1.21-.89,1.62-1.54.49-.65.81-1.37.65-2.18h0c-.24-1.54-1.7-2.59-2.99-3.4-.16-.08-.32-.16-.57-.24-1.46-.57-2.99.24-3.72,1.7-1.29,2.35.32,5.01-1.13,7.44-.49.73-.57,1.94.32,2.35.49.24.97.16,1.46,0,.49-.24.97-.73,1.29-1.13v-.08ZM51.52,94.25c.65-1.54,1.7-2.83,2.75-4.21,1.05-1.37,2.1-2.83,2.18-4.53,0-.16.16-.08.16,0h0c.32,3.8-3.48,5.74-4.93,8.82,0,.08-.24,0-.16-.08Z" fill="none" stroke="#010101" stroke-miterlimit="10" stroke-width=".24"/><path d="M56.61,85.52h0c0-.16-.16-.16-.16,0-.08,1.78-1.21,3.23-2.18,4.53s-2.1,2.59-2.75,4.21c0,.08.08.16.16.08,1.46-3.07,5.26-5.01,4.93-8.82Z" fill="none" stroke="#010101" stroke-miterlimit="10" stroke-width=".24"/></svg>