<?xml version="1.0" encoding="UTF-8"?><svg id="Layer_1" xmlns="http://www.w3.org/2000/svg" viewBox="0 0 144.57 144.57"><path d="M42.92,107.13v-6.26c.23,0,.44-.01.64,0,.07,0,.15.07.19.13,1,1.51,2,3.03,3.01,4.54.05.07.12.14.18.2.02,0,.05-.02.07-.03v-4.81c.06-.03.08-.04.1-.04.61-.03.6-.03.6.56,0,1.87,0,3.73,0,5.6,0,.03.01.06.02.1h-.73c-.1-.15-.2-.3-.29-.44-.93-1.41-1.87-2.83-2.8-4.24-.05-.08-.13-.15-.19-.23-.03,0-.06.01-.09.02v4.89h-.69Z" fill="#000" stroke="#000" stroke-miterlimit="10" stroke-width=".28"/><path d="M49.14,107.13c0-2,0-3.99,0-5.99,0-.08,0-.16,0-.27.21,0,.4,0,.6,0,.17,0,.13.14.13.23,0,.71,0,1.42,0,2.13,0,.05,0,.1,0,.16.07,0,.13.02.2.02.96,0,1.93,0,2.89,0,.19,0,.23-.06.23-.24-.01-.76,0-1.51,0-2.29h.72v6.24h-.73s.02-.08.02-.12c0-.92,0-1.84,0-2.76,0-.15-.06-.17-.19-.17-.97,0-1.94,0-2.91,0-.07,0-.14,0-.21.02,0,.26,0,.5,0,.73,0,.76,0,1.53.01,2.29h-.73Z" fill="#000" stroke="#000" stroke-miterlimit="10" stroke-width=".28"/><path d="M100.76,71.4c-.27-.23-.28-.52-.28-.82,0-5.26,0-10.51,0-15.77,0-.38,0-.77.02-1.15.02-.32.23-.52.5-.53.29,0,.51.21.52.53.01.39,0,.78,0,1.17,0,5.24,0,10.48,0,15.72,0,.11.01.22.02.4.23-.16.41-.27.57-.41.29-.24.61-.26.91-.04.2.15.42.28.66.44.01-.1.03-.17.02-.24,0-5.27,0-10.55-.01-15.82,0-.34,0-.68,0-1.03,0-.12,0-.25.04-.36.06-.23.28-.38.51-.37.22,0,.42.17.47.39.02.12.03.24.03.36,0,5.57,0,11.15,0,16.72,0,.29,0,.57-.23.8.93.53,1.85,1.06,2.76,1.59,3.35,1.93,6.71,3.87,10.06,5.8.1.06.2.12.29.18.38.26.39.52.06.84-.2.19-.39.15-.6.03-.92-.53-1.84-1.06-2.75-1.59-2.12-1.22-4.24-2.44-6.35-3.66-1.66-.96-3.32-1.91-4.97-2.88-.29-.17-.52-.17-.81,0-2.34,1.36-4.68,2.71-7.03,4.06-3.49,2.01-6.98,4.02-10.46,6.03-.29.17-.56.36-.83.55-.19.13-.5.13-.72,0-1.03-.62-2.06-1.24-3.11-1.85-3.63-2.1-7.27-4.2-10.91-6.29-.31-.18-.63-.33-.94-.52-.2-.12-.25-.34-.21-.56.04-.21.12-.41.39-.38.17.02.36.04.51.13,4.64,2.67,9.28,5.35,13.92,8.02.81.47.59.45,1.37,0,5.42-3.13,10.85-6.25,16.27-9.37.08-.05.16-.1.28-.16Z" fill="#000" stroke="#000" stroke-miterlimit="10" stroke-width=".28"/><path d="M46.34,81.91c-.16.11-.33.21-.49.34-.38.3-.62.31-1,.02-.17-.13-.37-.24-.59-.38,0,.11-.01.18-.01.26,0,5.64,0,11.28.01,16.92,0,.33-.11.53-.34.62-.21.08-.49.01-.62-.17-.07-.1-.11-.24-.12-.36-.02-.2,0-.41,0-.61,0-5.35,0-10.69,0-16.04,0-.39-.03-.79.23-1.09-1.83-1.05-3.66-2.1-5.49-3.15-2.11-1.22-4.22-2.43-6.33-3.65-.5-.29-1-.57-1.5-.87-.35-.2-.41-.53-.17-.81.16-.19.47-.21.76-.04.55.32,1.1.64,1.65.96,4.12,2.37,8.23,4.75,12.35,7.12.75.43.56.42,1.29,0,4.6-2.65,9.21-5.31,13.81-7.96.25-.14.48-.31.8-.2.18.06.27.18.27.36,0,.2.04.42-.18.55-.78.44-1.56.88-2.34,1.32-3.02,1.74-6.03,3.47-9.04,5.21-.69.4-1.38.79-2.09,1.21.27.21.27.5.27.8,0,3.32-.01,6.65-.01,9.97,0,2.27.01,4.53.02,6.8,0,.09,0,.18-.03.27-.06.26-.27.43-.52.42-.25,0-.46-.18-.47-.45-.02-.5-.02-.99-.02-1.49,0-5.03,0-10.06,0-15.08,0-.24,0-.48,0-.72-.03-.01-.06-.03-.09-.04Z" fill="#000" stroke="#000" stroke-miterlimit="10" stroke-width=".28"/><path d="M63.88,59.91c0-2.23,0-4.47,0-6.7,0-.47.36-.73.76-.58.23.09.31.28.31.5,0,.28,0,.55,0,.83,0,3.94,0,7.89,0,11.83,0,.27.01.54,0,.81,0,.37-.22.59-.57.6-.28,0-.51-.26-.51-.6,0-2.23,0-4.47,0-6.7Z" fill="#000" stroke="#000" stroke-miterlimit="10" stroke-width=".28"/><path d="M23.84,67.83s.05-.02.06-.02c.44-.08.74.06.99.47.81,1.31,1.68,2.58,2.53,3.86.13.19.27.38.45.56.09-.54.05-1.07.05-1.61,0-.55,0-1.09,0-1.64,0-.54,0-1.09,0-1.65h.68v6.24c-.22,0-.43.01-.64,0-.06,0-.14-.08-.18-.14-.96-1.45-1.93-2.9-2.89-4.36-.09-.13-.17-.27-.26-.4-.03.01-.07.02-.1.03v4.86q-.71.07-.71-.57c0-1.8,0-3.6,0-5.4,0-.08,0-.16.01-.24Z" fill="#000" stroke="#000" stroke-miterlimit="10" stroke-width=".28"/><path d="M62.05,67.83s.05-.02.06-.02c.44-.08.74.06.99.47.81,1.31,1.68,2.58,2.53,3.86.13.19.27.38.45.56.09-.54.05-1.07.05-1.61,0-.55,0-1.09,0-1.64,0-.54,0-1.09,0-1.65h.68v6.24c-.22,0-.43.01-.64,0-.06,0-.14-.08-.18-.14-.96-1.45-1.93-2.9-2.89-4.36-.09-.13-.17-.27-.26-.4l-.1.03v4.86q-.71.07-.71-.57c0-1.8,0-3.6,0-5.4,0-.08,0-.16.01-.24Z" fill="#000" stroke="#000" stroke-miterlimit="10" stroke-width=".28"/><path d="M126.52,81.29h3.3v-2.53c.21,0,.4-.01.59,0,.05,0,.13.11.13.18.02.32.03.64.03.95,0,1.62-.01,3.24-.01,4.86,0,.2-.06.27-.27.26-.53-.02-.47.08-.47-.46,0-.81,0-1.63,0-2.44,0-.04,0-.08-.01-.14-.12,0-.23,0-.34,0-.91,0-1.83,0-2.74,0-.2,0-.22.06-.22.24.01.9,0,1.79.01,2.69,0,.03-.01.06-.02.11h-.69v-6.24c.19,0,.39-.01.59,0,.05,0,.12.13.12.2,0,.68,0,1.37,0,2.05,0,.08,0,.16,0,.26Z" fill="#000" stroke="#000" stroke-miterlimit="10" stroke-width=".28"/><path d="M68.98,48.91v3.03h-.73c0-.11,0-.23,0-.35,0-1.87,0-3.75,0-5.62,0-.22.06-.29.28-.27.14.02.28,0,.44,0v2.53h3.28c0-.39,0-.77,0-1.15,0-.39.01-.78,0-1.17,0-.17.06-.21.21-.2.59.02.52-.1.52.52,0,1.83,0,3.65.01,5.48,0,.22-.06.28-.28.27-.45-.01-.45,0-.46-.45,0-.8,0-1.6,0-2.4,0-.11.01-.21-.15-.21-1.03,0-2.06,0-3.11,0Z" fill="#000" stroke="#000" stroke-miterlimit="10" stroke-width=".28"/><path d="M105.6,48.87c-.07.37-.09.76-.21,1.12-.43,1.32-1.67,2.08-3.07,1.92-1.34-.15-2.37-1.21-2.5-2.57-.05-.56-.05-1.11.12-1.64.37-1.14,1.18-1.79,2.36-1.94,1.63-.2,3.17.9,3.24,2.81,0,.1,0,.2,0,.29.02,0,.03,0,.05,0ZM104.84,48.74c-.02-.14-.03-.38-.07-.62-.19-1.07-1-1.75-2.09-1.75-1.07,0-1.93.68-2.09,1.71-.06.38-.08.78-.05,1.17.11,1.9,2.01,2.47,3.22,1.78.84-.48,1.09-1.27,1.09-2.28Z" fill="#000" stroke="#000" stroke-miterlimit="10" stroke-width=".28"/><path d="M124.73,81.92c-.02.52-.15.99-.36,1.45-.53,1.19-1.65,1.64-2.66,1.62-1.27-.03-2.26-.78-2.64-1.94-.36-1.1-.27-2.17.4-3.12.66-.92,1.62-1.26,2.73-1.11,1.16.16,1.95.83,2.3,1.95.12.37.15.76.22,1.14ZM123.94,81.95c0-.64-.07-.97-.28-1.4-.36-.75-1.13-1.18-2.01-1.12-.96.07-1.63.57-1.9,1.39-.16.5-.17,1.01-.13,1.52.08.87.48,1.55,1.32,1.86.81.29,1.61.22,2.27-.38.56-.51.75-1.18.72-1.88Z" fill="#000" stroke="#000" stroke-miterlimit="10" stroke-width=".28"/><path d="M15.19,70.34h3.3v-2.51h.72v6.22h-.71c0-.14,0-.28,0-.42,0-.8,0-1.6,0-2.4,0-.11.02-.21-.15-.21-1.04,0-2.09,0-3.16,0,0,.11,0,.21,0,.3,0,.84,0,1.68,0,2.52,0,.17-.04.24-.22.23-.54-.02-.49.1-.48-.51.02-1.58.02-3.16.02-4.74,0-.28-.03-.55-.02-.83,0-.06.1-.17.16-.17.66,0,.53-.09.54.48,0,.67,0,1.35,0,2.04Z" fill="#000" stroke="#000" stroke-miterlimit="10" stroke-width=".28"/><path d="M66.45,49.87c.22.06.44.11.69.17-.03.1-.04.2-.08.29-.49,1.3-1.76,1.74-2.93,1.57-1.55-.22-2.2-1.5-2.29-2.74-.03-.46,0-.95.12-1.4.33-1.24,1.2-1.87,2.45-2.02,1.15-.14,2.21.5,2.62,1.58.01.03,0,.06.02.12-.22.05-.44.1-.67.16-.03-.04-.05-.07-.07-.1-.31-.81-.87-1.17-1.74-1.13-1.1.05-1.82.7-1.96,1.8-.08.63-.08,1.25.14,1.86.26.73.79,1.15,1.54,1.25.81.1,1.51-.1,1.95-.86.09-.16.14-.34.22-.54Z" fill="#000" stroke="#000" stroke-miterlimit="10" stroke-width=".28"/><path d="M20.81,75.57c.16,0,.32.02.47.02.42,0,.85,0,1.27,0,.17,0,.26.03.26.22,0,.18-.09.21-.25.21-.78,0-1.56,0-2.39,0,.03-.12.03-.24.08-.31.21-.3.4-.61.65-.87.33-.35.71-.64,1.06-.98.22-.21.36-.46.39-.77.03-.29-.11-.55-.38-.68-.52-.26-1.03-.06-1.28.5-.03.07-.21.08-.33.11-.02-.08-.07-.16-.06-.23.19-.63.66-.84,1.25-.87.57-.02,1.09.41,1.2.93.07.32-.03.63-.22.87-.27.33-.58.64-.89.94-.2.19-.42.36-.63.55-.09.08-.17.19-.25.28,0,.02.02.05.03.07Z" fill="#000" stroke="#000" stroke-miterlimit="10" stroke-width=".28"/><path d="M75.03,52.16c-.06-.21-.02-.33.19-.36.05,0,.1-.02.14-.03.45-.1.63-.31.62-.71,0-.33-.25-.61-.58-.65-.38-.06-.74.16-.86.53-.05.15-.11.24-.27.18-.06-.03-.14-.14-.13-.2.07-.49.69-.94,1.2-.88.62.07,1.08.57,1.05,1.12-.02.32-.13.48-.54.79.05.02.08.05.12.06.88.34.7,1.48.11,1.84-.77.47-1.68.24-1.98-.55-.03-.09-.15-.22.04-.28.14-.04.29-.05.36.15.15.45.57.66,1.02.53.43-.12.68-.46.64-.89-.03-.34-.38-.62-.8-.65-.11,0-.22,0-.33,0Z" fill="#000" stroke="#000" stroke-miterlimit="10" stroke-width=".28"/></svg>