<?xml version="1.0" encoding="UTF-8"?><svg id="Layer_1" xmlns="http://www.w3.org/2000/svg" viewBox="0 0 144.57 144.57"><path d="M81.54,51.01c.09.02.17.04.21.06-.28,1.58-.3,3.13.13,4.7.23.85.34,1.73.49,2.6.03.2-.02.42-.02.53.69-.1,1.31-.18,1.94-.29.11-.02.2-.15.28-.24.76-.89,1.5-1.79,2.27-2.66.62-.71,1.28-1.39,1.9-2.1.07-.08.11-.25.09-.36-.15-.67-.32-1.34-.49-2-.33-1.26-.16-2.54-.08-3.81.06-.93.13-1.86.29-2.77.18-1.05.45-2.09.68-3.14.07,0,.14.01.22.02.01.15.08.33.03.46-.57,1.46-.49,3.01-.71,4.52-.12.8-.1,1.61-.17,2.42-.07.86.12,1.67.34,2.48.08.29.11.59.18.88.04.2.11.39.2.69.44-.56.83-1.02,1.18-1.5.94-1.28,2.05-2.39,3.29-3.38.13-.1.25-.22.38-.31.59-.39.69-.89.63-1.6-.13-1.59-.15-3.2-.11-4.8.01-.54.27-1.12.57-1.59.71-1.15,1.74-2,2.89-2.75.15.37-.05.54-.27.74-.75.64-1.53,1.26-2.21,1.97-.7.73-1,1.64-.91,2.68.09,1.06.08,2.13.14,3.19.02.38.12.75.19,1.13.05.02.1.04.15.06.17-.2.33-.42.52-.6,1.25-1.17,2.54-2.29,3.74-3.5,1.28-1.29,2.76-2.23,4.4-2.99.84-.39,1.67-.74,2.61-.77.07,0,.14,0,.24.01.03.27.12.54-.28.56-1.62.1-2.95.94-4.31,1.69-1.48.82-2.6,2.06-3.78,3.24-.15.15-.3.29-.45.44-.02.02-.02.05-.02.05,2.93,1.17,5.73.42,8.49-.71.02.06.04.12.07.18-.14.1-.26.25-.42.29-1.42.41-2.84.88-4.29,1.17-.77.15-1.61.02-2.41-.06-.62-.06-1.24-.24-1.86-.34-.13-.02-.33,0-.41.08-.93.91-1.84,1.84-2.8,2.81,1.92.2,3.78.43,5.64,0,.73-.17,1.46-.31,2.17-.53.36-.11.66-.41,1.01-.59.19-.1.42-.17.63-.2.09-.02.28.09.28.13,0,.13-.04.33-.14.38-.58.31-1.16.59-1.76.85-.32.14-.67.25-1.02.32-2.04.46-4.09.58-6.17.27-.45-.07-.92-.04-1.38-.03-.1,0-.21.1-.29.19-.86.9-1.73,1.79-2.55,2.72-.91,1.03-1.77,2.11-2.72,3.26.35-.05.66-.06.94-.15,1.02-.31,2.05-.39,3.11-.38,1.2.02,2.38-.18,3.5-.68.52-.23,1.08-.37,1.61-.58.57-.22,1.12-.5,1.7-.71.43-.16.88-.32,1.34-.38.94-.13,1.64-.65,2.37-1.2,1.23-.93,2.53-1.77,3.8-2.64.07-.05.2-.01.31-.01,0,.11.02.24-.03.32-.05.1-.17.16-.27.23-1.29.92-2.6,1.83-3.87,2.77-.67.5-1.36.86-2.21,1.04-.88.19-1.72.6-2.57.91-.22.08-.45.17-.67.24-.34.12-.7.18-1.02.34-1.49.74-3.08.92-4.72.89-.59,0-1.19.12-1.78.2-.64.09-1.27.21-1.9.33-.11.02-.25.05-.32.12-.77.84-1.53,1.68-2.3,2.53-.2.22-.27.43-.11.72.1.17.08.4.13.72.56-.62,1.28-.6,1.96-.71,1.05-.16,1.58.12,1.98,1.05.41,0,.9-.14,1.17.04.26.17.29.69.46,1.19.51-.04,1.14-.04,1.77-.13,1.47-.2,2.93-.42,4.34-.93,1.4-.5,2.82-.94,4.2-1.48.83-.33,1.6-.81,2.4-1.22.24-.12.48-.26.74-.33.17-.05.37-.01.56-.02-.12.13-.23.29-.37.37-.46.24-.94.46-1.42.68-.88.41-1.76.81-2.65,1.2-.11.05-.26-.02-.4-.03-.08,0-.21-.04-.24,0-.57.73-1.48.78-2.25,1.08-1.59.61-3.27.86-4.95,1.11-.19.03-.37.09-.55.13.18.83.79,1.08,1.46,1.26.85.23,1,.44.86,1.31-.15.91,0,1.8.21,2.68.08.34.02.62-.23.86-.58.54-.27,1.24-.3,1.88,0,.05.27.16.41.15.75-.04,1.49-.12,2.24-.18.12,0,.24,0,.36.03.94.27,1.88.56,2.82.83.18.05.37.04.64.07-.13-.64-.37-1.14-.75-1.57-.18-.2-.41-.36-.57-.57-.11-.14-.25-.37-.2-.49.06-.15.29-.32.46-.34.59-.07,1.2-.09,1.8-.1.7,0,1.4,0,2-.4.3-.2.58-.47.79-.77.29-.43.18-.68-.29-.93-.42-.23-.85-.46-1.22-.75-.16-.12-.31-.4-.29-.59.02-.13.32-.29.52-.33.77-.14,1.54-.25,2.31-.33.71-.08,1.06-.34,1.18-.96.16-.83,0-1.18-.68-1.52-.27-.13-.56-.22-.82-.36-.43-.23-.5-.62-.14-.95.24-.22.54-.4.84-.5.68-.22,1.38-.37,2.07-.57.1-.03.23-.15.24-.25.1-.71-.46-1.71-1.1-2.05-.16-.08-.33-.18-.43-.31-.19-.24-.2-.48.11-.68.34-.22.67-.45.97-.72.33-.3.71-.31,1.1-.24.4.07.54-.09.55-.48.03-.86-.3-1.51-1-1.99-.06-.04-.13-.07-.2-.09-.32-.09-.4-.3-.2-.57.41-.58.87-1.07,1.66-1.06.4,0,.34-.31.27-.51-.23-.67-.63-1.21-1.24-1.6-.17-.11-.3-.29-.45-.44.16-.14.3-.33.48-.4.39-.16.8-.24,1.2-.38.38-.13.42-.31.2-.64-.17-.26-.31-.55-.52-.79-.26-.3-.57-.55-.86-.82-.13-.13-.34-.27-.34-.42,0-.13.2-.31.35-.39.4-.21.82-.37,1.23-.56.52-.26.67-.6.38-1.1-.22-.37-.55-.68-.85-1.01-.13-.14-.31-.24-.44-.38-.35-.4-.26-.77.19-1.03.13-.07.22-.21.33-.32-.12-.07-.24-.14-.36-.2-.36-.18-.72-.37-1.08-.55-1.28-.61-2.61-1.01-4.04-1.05-.26,0-.52-.14-.77-.22-.68-.23-1.35-.49-2.04-.7-.12-.04-.36.06-.43.16-.13.22-.26.2-.44.1-1.29-.66-2.68-.67-4.08-.58-.15,0-.32-.01-.46-.07-.04-.02-.04-.29,0-.31.37-.15.73-.37,1.15-.11.13.08.33.15.46.1,1.1-.42,2.08-.05,3.05.41.03.01.06,0,.12.02.22-.44.57-.41.97-.23.32.13.69.16.98.32.84.48,1.77.6,2.68.65,1,.05,1.82.55,2.72.85.47.16.9.4,1.37.57.35.13.6.32.65.72.05.4-.06.71-.44.9-.06.03-.12.09-.21.16.12.1.21.2.32.26.62.29.92.84,1.13,1.45.27.78.04,1.34-.69,1.73-.27.15-.56.27-.83.4.4.58.77,1.14,1.16,1.68.49.68.33,1.26-.44,1.58-.25.1-.51.17-.83.28.25.3.46.56.67.82.37.46.57.97.51,1.58-.04.43-.24.65-.68.68-.44.02-.87.08-1.24.69.09.04.23.07.34.15.67.48.92,1.16.91,1.95,0,.15-.01.3-.02.45-.04.87-.19,1.04-1.03.93-.72-.1-.97.48-1.43.78.98.71,1.38,1.65,1.31,2.81-.03.52-.2.68-.72.7-.89.03-1.65.49-2.57.81.38.19.66.33.93.47.81.43,1.06,1.09.82,2.2-.16.78-.63,1.36-1.53,1.37-.68,0-1.35.15-2.03.23-.01.05-.03.11-.04.16.25.13.5.28.75.4.86.42,1.06,1.18.55,2.01-.66,1.07-1.7,1.28-2.84,1.29-.55,0-1.1,0-1.7,0,.33.54.59.96.85,1.39.05.09.09.19.13.29.2.47.14,1.01.63,1.41.22.18.23.77.17,1.14-.08.43.07.54.42.59.49.08.98.14,1.46.25.75.18,1.34.54,1.37,1.43,0,.29.19.37.47.43.84.17,1.68.34,2.31,1.01.51.55.73,1.15.41,1.89,1.38.51,2.05,1.64,2.6,2.88.13.29.05.49-.16.68-.17.15-.35.3-.58.49.36.17.66.28.94.44,1.1.63,1.56,1.6,1.34,2.93-.06.4.08.57.37.81.64.52,1.25,1.07,1.81,1.67.52.56.68,1.28.61,2.06-.02.2.05.44.16.61.49.72,1.01,1.42,1.1,2.33.05.51.03,1-.29,1.42-.15.2-.1.33.04.51.62.76.88,1.68,1,2.61.05.41-.18.86-.27,1.29-.05.26-.18.55-.11.77.29.8.14,1.61.14,2.41,0,.36-.08.72-.14,1.07-.14.77-.58,1.04-1.3.74-.85-.35-1.81-.47-2.49-1.28-.14.35-.24.63-.37.89-.22.44-.43.5-.87.28-.48-.24-.96-.49-1.44-.73-.62-.31-1.26-.59-1.5-1.4-.26.33-.45.59-.66.84-.33.41-.58.46-.99.14-.6-.47-1.18-.97-1.76-1.46-.07-.05-.13-.11-.18-.15-.16.34-.27.68-.46.98-.53.83-1.28.84-1.81,0-.24-.36-.42-.76-.64-1.14-.09-.16-.22-.3-.36-.5-.12.2-.2.34-.29.47-.85,1.17-1.67,1.01-2.47.03-.4-.49-.69-1.07-1.09-1.7-.15.21-.24.38-.37.52-.18.2-.37.5-.58.52-.24.02-.62-.15-.74-.35-.3-.5-.47-1.07-.71-1.6-.07-.15-.2-.27-.3-.41-.14.1-.28.2-.41.31-.3.26-.56.61-.9.77-.8.37-1.48.1-1.88-.69-.24-.46-.43-.95-.65-1.46-.32.16-.59.31-.87.43-.66.27-.98.15-1.22-.5-.14-.39-.19-.81-.29-1.22-.05-.21-.11-.42-.16-.65-.39.23-.74.44-1.14.68.19.26.36.53.58.77.68.74.69,1.16.04,1.91-.13.15-.26.28-.42.45.59.63.56,1.4.54,2.19-.03.81-.35,1.35-1.2,1.54.17.48.35.93.49,1.4.09.3.13.62.14.93.02.65-.34,1-.99,1.02-.27,0-.53,0-.82,0,0,.99.02,1.99,0,2.99-.03,1.03-.64,1.67-1.67,1.83-.06,0-.12.02-.2.04-.05.68-.11,1.37-.13,2.05-.02.7-.26,1.33-.63,1.9-.49.76-.94.84-1.79.38-.19.48-.4.95-.56,1.44-.27.8-1.12,1.21-1.91.88-.45-.19-.93-.37-1.33-.65-.52-.37-1-.8-1.43-1.27-.24-.26-.42-.37-.7-.13-.7.57-1.27.52-1.96-.23-.95-1.03-1.73-2.16-1.84-3.62-.02-.27-.17-.34-.42-.35-.52-.03-1.05-.08-1.57-.15-.36-.05-.63-.26-.68-.62-.1-.71-.19-1.42-.22-2.13-.02-.32-.06-.46-.42-.44-.34.02-.71.03-1.03-.07-.49-.16-.87-.51-.98-1.03-.12-.56-.19-1.12-.25-1.69-.02-.25-.09-.36-.34-.35-.12,0-.24,0-.36-.02-.51-.06-.7-.25-.68-.76.03-.54.07-1.08.15-1.61.05-.33-.04-.45-.37-.41-.16.02-.33.01-.49.02-.6.02-.77-.15-.68-.76.13-.8.3-1.59.48-2.47-.33-.02-.63-.07-.94-.06-.61.01-.75-.14-.62-.75.06-.29.13-.57.19-.84-.37-.03-.72-.05-1.03-.07-.24.73-.49,1.47-.73,2.22-.27.83-.63.99-1.42.64-.28-.12-.57-.23-.86-.35-.08.29-.17.59-.24.89-.34,1.35-1.24,1.98-2.38,1.59-.39-.13-.72-.41-1.02-.59-.37.5-.71,1.02-1.11,1.5-.46.56-1.05.63-1.71.37-.56-.23-.63-.18-.77.37-.02.09-.05.17-.07.26-.34,1.24-1.3,1.56-2.36.79-.08-.06-.17-.12-.2-.14-.29.54-.57,1.07-.86,1.59,0,.01-.12-.03-.14-.04.23-.67.44-1.31.67-1.95.15-.42.28-.41.63-.14.27.21.61.39.94.47.63.14.88-.06,1.03-.68.01-.04.02-.09.03-.13.19-.86.31-1.38,1.49-.89.81.33,1.35-.26,1.87-1.14.12-.2.19-.44.29-.66.15-.3.34-.4.62-.13.16.16.35.29.53.42.82.57,1.82.26,2.15-.69.1-.29.14-.61.21-.92.14-.69.46-.85,1.08-.54,1.09.54,1.13.55,1.51-.56.25-.74.37-1.52.55-2.26-.96-.49-1.03-.7-.62-1.64.17-.4.34-.8.53-1.24-.41.04-.78.12-1.16.12-.54,0-.65-.13-.51-.66.23-.91.49-1.82.78-2.85-.42-.06-.85-.13-1.28-.16-.52-.03-.54-.05-.44-.55.18-.86.58-1.6,1.11-2.29.07-.09.13-.19.23-.33-.17,0-.29,0-.4,0-.41-.03-.61-.27-.47-.67.15-.44.35-.86,0-1.32-.07-.1,0-.4.12-.53.33-.38.68-.75,1.06-1.08.42-.35.88-.65,1.32-.97-.01-.04-.02-.09-.03-.13-.23,0-.46-.03-.69,0-.34.05-.6.02-.66-.39-.32.13-.6.27-.89.35-.62.17-.88-.05-.84-.69,0-.1,0-.2,0-.29-.38.07-.73.14-1.1.19-.36.05-.58-.12-.63-.48-.03-.26-.13-.36-.4-.35-.31.01-.35.19-.38.44-.21,2.02-.31,4.03-.29,6.06.01,1.1-.26,2.2-.39,3.3-.09.74-.17,1.48-.24,2.23-.05.57-.06,1.14-.12,1.7-.01.12-.16.22-.25.33-.07-.11-.2-.23-.19-.34.06-.97.13-1.94.24-2.9.16-1.38.41-2.76.52-4.15.1-1.34.05-2.7.11-4.05.04-.87.17-1.73.26-2.61-.27-.17-.5-.21-.76.05-.9.94-1.83,1.86-2.73,2.8-.94.99-1.89,1.97-2.8,2.99-.43.49-.79,1.05-1.17,1.57,0,0,.01-.01.01-.01-.72.84-1.48,1.64-2.16,2.52-.64.83-1.18,1.74-1.76,2.61-.55.82-1.11,1.62-1.63,2.46-.17.27-.27.63-.25.95.06.99.22,1.97.28,2.96.08,1.3.09,2.61.14,3.91,0,.19.05.38.06.57,0,.16-.02.33-.13.49-.21-2.65-.16-5.31-.68-7.96-.46.58-.92,1.11-1.32,1.68-1.61,2.31-3.2,4.64-4.78,6.96-.62.9-1.18,1.84-1.8,2.74-.61.89-.81,1.93-1.13,2.92-.02.07-.04.15-.06.22,0,.02-.04.04-.18.16.02-.36,0-.63.06-.88.35-1.43.95-2.72,1.83-3.92,1.19-1.64,2.23-3.37,3.36-5.05.73-1.08,1.48-2.14,2.24-3.2.48-.68.99-1.34,1.48-2-.04-.05-.06-.1-.07-.1-1.09,0-2.21-.12-3.28.05-.73.11-1.44.56-2.1.96-1.09.66-2.16,1.39-2.81,2.54-.46.82-.83,1.69-1.23,2.54-.03.06,0,.15-.02.22-.03.14-.02.32-.11.39-.09.08-.36.1-.4.05-.08-.13-.14-.35-.09-.48.31-.79.61-1.6,1-2.35.61-1.15,1.48-2.06,2.6-2.74.56-.34,1.11-.71,1.66-1.07.61-.39,1.3-.55,2.01-.56.93-.01,1.86,0,2.79-.02.19,0,.44-.11.54-.25,1.17-1.69,2.31-3.42,3.49-5.1.51-.72,1.11-1.37,1.67-2.06.39-.49.77-.98,1.23-1.55-.91-.04-1.67.15-2.43.36-.69.19-1.36.5-2.05.64-1.49.3-2.86.89-4.14,1.66-.83.5-1.61,1.11-2.33,1.75-1.32,1.18-2.57,2.43-3.87,3.64-.26.24-.57.43-.85.66-.18.15-.38.3-.49.5-.28.5-.49,1.04-.76,1.55-.05.09-.19.13-.3.2-.02-.11-.1-.25-.06-.32.53-.89.83-1.94,1.83-2.5.32-.18.57-.47.85-.72,1.77-1.6,3.46-3.29,5.33-4.76.99-.77,2.25-1.25,3.45-1.69,1.45-.54,2.97-.9,4.47-1.32.2-.06.42-.11.62-.1.87.05,1.49-.33,2.03-.98.76-.91,1.56-1.78,2.37-2.65.55-.59,1.13-1.16,1.72-1.72.1-.1.27-.13.41-.19-.05-.07-.1-.13-.15-.2-.11-.01-.22-.03-.33-.03-.71,0-1.41.02-2.12,0-1.29-.06-2.55.09-3.77.49-.32.1-.56.05-.7-.32,2.14-.88,4.39-.77,6.68-.8-.16-.16-.29-.35-.47-.48-.74-.57-1.21-1.36-1.75-2.09-.16-.22-.49-.39-.77-.45-1.39-.32-2.77-.66-4.18-.86-1-.14-2.04-.12-3.05-.07-1.2.06-2.39.21-3.58.36-.32.04-.62.24-.94.37-.13.05-.26.09-.38.14-.02-.06-.05-.12-.07-.17.32-.15.63-.37.97-.43.99-.18,1.98-.33,2.98-.42,1-.09,2.01-.07,3.01-.13.87-.05,1.7.09,2.53.3,1.25.31,2.51.59,3.77.84.18.04.44-.14.61-.28.05-.04-.05-.31-.12-.45-.15-.28-.33-.54-.5-.8-.23-.37-.17-.65.23-.84.25-.12.53-.18.9-.3-.23-.14-.38-.28-.56-.35-.88-.37-1.67-.88-2.29-1.63-.08-.1-.25-.15-.38-.19-.29-.08-.61-.1-.88-.23-.96-.46-1.9-.96-2.84-1.45-.55-.28-.79-.17-.9.44-.04.2,0,.42-.04.63-.07.37-.35.54-.66.34-1.05-.66-2.23-.63-3.39-.65-.52,0-.63.13-.48.63.12.4.29.78.46,1.17.17.38.06.63-.33.58-1.42-.2-2.64.45-3.91.86-.34.11-.43.27-.17.58.35.43.66.89.98,1.34.29.41.17.68-.34.71-.36.02-.72,0-1.08-.02-.27-.01-.45.04-.52.36-.1.5-.58.6-.95.61-.99.02-1.63.62-2.27,1.23-.48.47-.44.71.16,1.01.48.24.98.45,1.46.7.14.07.23.23.35.36-.13.1-.25.26-.39.28-1.04.2-2.04.48-2.9,1.13-.63.48-.66.83.01,1.26.44.28.93.49,1.39.73.6.31.62.86.06,1.22-.87.56-1.35,1.92-.99,2.88.15.4.1.66-.27.96-.51.41-.92.93-1.37,1.41-.08.08-.14.18-.21.27l-.13-.03c.01-.13-.02-.3.05-.38.48-.59.98-1.16,1.46-1.75.1-.13.2-.31.2-.47-.05-1.29.08-2.51,1.18-3.5-.39-.2-.75-.38-1.11-.57-.76-.38-1.14-1.08-.89-1.8.11-.3.35-.6.62-.79.56-.39,1.18-.69,1.81-1.05-.26-.15-.54-.33-.84-.47-.4-.2-.55-.51-.38-.92.12-.3.25-.63.48-.85.71-.69,1.45-1.35,2.54-1.4.18,0,.45-.15.5-.3.22-.61.67-.72,1.22-.69.13,0,.26,0,.45,0-.26-.4-.47-.77-.72-1.11-.34-.48-.33-.94.19-1.22.52-.29,1.11-.44,1.66-.68.19-.08.4-.22.49-.39.12-.21.04-.39-.28-.38-.75.02-1.5.04-2.25,0-.5-.03-1.01-.13-1.5-.26-.13-.03-.31-.28-.29-.41.07-.42.19-.84.34-1.24.14-.39.34-.75.54-1.17-.16,0-.27-.04-.36-.02-1.13.29-2.24-.08-3.36-.12-.49-.02-.67-.27-.72-.76-.06-.69.02-1.35.43-1.93.07-.09.1-.21.2-.42-.51-.09-.97-.18-1.43-.26-.33-.05-.66-.08-.98-.15-.71-.17-.99-.65-.71-1.32.24-.57.57-1.11.87-1.69-.48-.12-1.03-.2-1.54-.38-.78-.28-1.62-.45-2.19-1.16-.52-.64-.59-1.31-.12-2,.15-.22.35-.41.57-.67-.24-.07-.46-.17-.68-.2-.64-.07-1.28-.13-1.92-.16-.66-.03-.87-.22-.87-.86,0-1.47,1.18-2.79,2.65-2.89.7-.05,1.12-.3,1.47-.94.38-.68.95-1.26,1.5-1.84.96-1.01,2-.85,3.01-.33.25-.33.52-.66.78-1,.79-1.04,1.88-1.57,3.12-1.77.29-.05.65.21.96.37.19.1.33.29.62.56.04-1.32.91-1.82,1.8-2.33.94-.54,1.89-.51,2.82.21.36-.24.73-.49,1.1-.74,1.03-.7,2.16-.69,3.29-.38.35.1.63.49,1,.79.21-.17.49-.39.77-.61.88-.69,1.89-1.04,3-1.09.92-.04,1.76.57,2.05,1.46.35-.09.7-.18,1.16-.31-.29-.35-.56-.64-.79-.95-.2-.28-.36-.59-.54-.89.33-.1.66-.2,1-.29.1-.03.2-.02.46-.03-.24-.35-.41-.62-.61-.88-.14-.18-.31-.33-.47-.48-.38-.34-.37-.48.1-.71.48-.24.97-.47,1.46-.69.47-.21.55-.38.35-.88-.21-.55-.54-1.06-.47-1.71.05-.43.2-.75.58-.94.36-.18.73-.36,1.11-.48.34-.11.48-.32.42-.64-.06-.37-.17-.73-.28-1.08-.18-.6-.09-.82.42-1.17.19-.14.4-.35.46-.56.11-.4.33-.64.73-.7.25-.04.3-.16.3-.39.01-.48.02-.97.14-1.43.06-.25.31-.52.55-.64.57-.26,1.18-.44,1.79-.65,0,0,.02-.03.02-.05-.32-1.04-.13-1.5.94-1.78.82-.21,1.67-.27,2.52-.38.33-.04.66-.02.99-.06.74-.08.96.1.98.84,0,.09,0,.18.02.39.63.05,1.26.1,1.9.14.21.01.42,0,.63,0,.86.01,1.27.44,1.13,1.28-.07.45.1.55.46.49.38-.06.77-.13,1.12-.27.57-.22.8-.15.95.45.12.48.2.96.28,1.34.56-.05,1.09-.18,1.61-.13.77.07,1.06.44,1.11,1.22.02.28.02.57.02.85,0,.28,0,.56,0,.9.23-.08.41-.13.59-.2.62-.25,1.26-.26,1.9-.13.39.07.58.31.57.69-.01.42-.05.84-.1,1.25-.04.3.04.4.34.31.14-.04.3-.05.44-.05,1.14.04,1.53.7,1.01,1.71-.16.3-.3.61-.5,1.02.54-.1,1.05-.06,1.38-.28.38-.25.61-.72.91-1.1.2-.26.37-.55.6-.77.11-.1.38-.14.52-.08.74.28,1.47.6,2.23.93.38-.75.99-.77,1.72-.66.72.11,1.47.05,2.2.09.3.02.68-.11.86.43-1.41-.07-2.77-.13-4.15-.19,0,.05-.02.12-.03.2-.02.7-.33.86-.94.57-.76-.36-1.54-.65-2.35-.99-.36.45-.72.9-1.07,1.37-.15.19-.15.35.1.51.39.26.43.58.16.96-.14.19-.32.35-.48.53-.16.18-.35.34-.47.54-.27.43-.15.63.34.63.21,0,.42,0,.63,0,.82.01,1.18.31,1.17,1.14,0,.6-.14,1.2-.23,1.85.04,0,.18.04.32.07.72.17,1.11.89.88,1.6-.2.59-.57,1.05-1.04,1.44-.24.19-.46.4-.7.61.03.05.06.09.08.14.2-.09.38-.21.59-.28.2-.06.51-.15.6-.06.14.14.23.47.16.64-.19.44-.47.85-.75,1.25-.14.2-.36.36-.54.53-.31.27-.65.53-.94.82-.59.6-1.13,1.24-1.73,1.83-.86.85-.86.83-.02,1.71.16.16.23.48.21.72-.02.3-.28.4-.58.46-.56.1-1.13.19-1.66.4-.54.21-1.2.3-1.47.97-.05.12-.26.22-.41.25-.32.06-.65.07-.98.11-1.24.16-2.48.33-3.72.49-.02,0-.04.04-.08.08.19.87.38,1.74.56,2.59.28-.2.54-.39.85-.61.02-.53.26-1.03.73-1.41.51-.42.92-.32,1.23.26.13.24.29.45.47.73.09-.14.14-.19.15-.24.16-.77.68-1.24,1.32-1.6.6-.34.84-.34,1.31.02.52-.19,1-.42,1.5-.55.71-.18.93-.02,1.14.69.02.08.07.15.08.17.71-.37,1.39-.72,2.16-1.12-.06-.48-.09-1.1-.23-1.69-.4-1.71-.58-3.41.08-5.1ZM73.11,80.21c.05.46.07.81.11,1.14.23,1.75.47,3.5.7,5.25.08.65.32,1.14,1.07,1.2.1,0,.2.07.29.12,2.35,1.11,4.19,2.83,5.75,4.86.39.51.81,1.01,1.1,1.58.68,1.33,1.29,2.7,1.92,4.06.06.14.03.32.05.48-.05,0-.1.01-.15.02-.15-.32-.31-.63-.45-.95-.73-1.71-1.56-3.37-2.72-4.84-1.48-1.87-3.19-3.47-5.34-4.53-.32-.16-.67-.26-1.08-.41.08.74.11,1.37.23,1.99.29,1.46.62,2.9.96,4.35.05.2.23.39.4.52.47.35.97.65,1.44.99,1.23.9,1.97,2.19,2.73,3.46.22.36.39.75.66,1.07.71.82,1.2,1.74,1.52,2.77.42,1.34.69,2.7.71,4.11,0,.26,0,.52-.33.58-.11-.83-.19-1.65-.31-2.47-.22-1.46-.68-2.82-1.52-4.05-.55-.81-1.15-1.6-1.63-2.45-.76-1.32-1.75-2.39-3.04-3.2-.08-.05-.17-.07-.31-.12.04.35.07.65.11.94.18,1.41.29,2.83.54,4.23.47,2.61,1.03,5.21,1.52,7.82.26,1.4.45,2.81.7,4.21.04.24.03.42-.2.43-.12,0-.33-.19-.36-.32-.11-.45-.15-.91-.23-1.37-.35-2.01-.71-4.02-1.07-6.02-.01-.06-.06-.12-.11-.24-.97,1.36-1.72,2.73-1.74,4.41,0,.75-.08,1.5-.15,2.24-.02.26-.09.54-.5.49.05-.81.14-1.6.14-2.39,0-1.65.64-3.07,1.54-4.38.46-.66.79-1.28.46-2.09-.07-.18-.07-.38-.11-.57-.11-.5-.22-1-.34-1.58-.31.41-.55.75-.82,1.06-1.03,1.19-1.99,2.4-2.37,3.98-.04.17-.24.29-.37.44l-.11-.09c.3-1.08.7-2.11,1.42-3,.67-.84,1.32-1.71,1.96-2.58.1-.14.16-.35.14-.52-.15-1.34-.28-2.69-.5-4.01-.19-1.18-.5-2.34-.78-3.63-.15.2-.21.28-.26.36-.47.85-1,1.68-1.4,2.57-.37.84-.69,1.73-.89,2.62-.63,2.75-.41,5.55-.36,8.34,0,.25.07.51-.29.53-.35.02-.27-.27-.27-.46-.04-2.29-.2-4.59.12-6.88.24-1.69.58-3.34,1.52-4.81.41-.63.66-1.36,1.1-1.96.51-.69.54-1.38.33-2.16-.17-.64-.26-1.31-.39-2-.07.05-.12.08-.16.11-.63.6-1.27,1.19-1.88,1.81-.71.72-1.53,1.35-2.04,2.26-.59,1.07-1.23,2.12-1.78,3.22-.85,1.68-1.25,3.49-1.33,5.37,0,.16-.04.31-.06.47-.12-.06-.15-.12-.15-.17.09-1.94.47-3.81,1.24-5.59.29-.65.72-1.24,1.06-1.87.43-.77.74-1.63,1.28-2.31.73-.92,1.63-1.7,2.47-2.54.35-.35.73-.67,1.05-1.05.12-.14.19-.4.16-.59-.17-.96-.4-1.91-.59-2.86-.13-.66-.23-1.33-.36-2.06-.68.74-1.36,1.38-1.91,2.11-1.21,1.6-2.31,3.29-3.56,4.86-1.23,1.54-1.69,3.39-2.3,5.18-.05.14-.23.24-.35.36-.05-.16-.19-.34-.15-.47.17-.6.38-1.2.59-1.79.4-1.13.81-2.25,1.56-3.22,1.28-1.68,2.5-3.4,3.75-5.11.09-.12.19-.23.29-.35.63-.71,1.26-1.41,1.87-2.13.11-.13.21-.32.19-.48-.08-.76-.19-1.52-.29-2.27-.03-.25-.04-.5-.07-.75-.09-.73-.19-1.46-.28-2.19-.06,0-.13-.02-.19-.02-.05.14-.14.28-.14.42.01.31.06.63.12.94.08.5.01.97-.36,1.33-.75.73-1.52,1.44-2.31,2.13-1.27,1.12-2.57,2.2-3.85,3.31-.79.69-1.28,1.57-1.64,2.54-.38,1.01-.76,2.02-1.16,3.02-.04.1-.22.13-.34.2-.03-.13-.08-.26-.1-.39,0-.05.05-.11.07-.16.35-.89.74-1.77,1.05-2.67.4-1.14.98-2.16,1.88-2.97,2.04-1.81,4.09-3.61,6.13-5.41.05-.04.08-.11.14-.2-.34-.16-.65-.31-.97-.44-.07-.03-.21,0-.27.05-.73.6-1.7.54-2.52.9-.05.02-.12.02-.18,0-.55-.11-.87.16-1.13.6-.52.87-.76.93-1.64.41-.21-.12-.34-.14-.48.08-.19.29-.37.58-.58.85-.41.53-.83.62-1.42.3-.16-.08-.31-.16-.43-.23-.24.18-.44.33-.63.49-.59.48-1.2.95-1.77,1.45-.1.09-.15.39-.08.49.24.33.14.62.03.94-.06.16-.11.33-.18.54.2,0,.33-.03.46,0,.18.05.42.09.49.21.07.13,0,.37-.09.53-.13.24-.33.43-.47.65-.36.55-.71,1.1-.77,1.76.44.08.83.15,1.23.23.57.11.62.2.44.77-.21.67-.42,1.35-.61,2.02-.06.22-.08.45-.15.82.55-.16.99-.28,1.43-.41.34-.1.5.04.43.38-.03.14-.11.28-.17.41-.23.52-.47,1.04-.7,1.56-.15.35-.05.56.35.56.31,0,.47.15.5.46.06.48.21.56.64.36.12-.06.24-.13.36-.18.25-.09.39.01.38.27,0,.19-.07.38-.11.57-.08.31-.17.62-.28,1.02.63,0,1.18,0,1.73,0,.13,0,.25.1.37.15-.07.1-.11.27-.2.3-.31.11-.38.35-.43.63-.06.31-.15.61-.21.92-.07.4-.13.81-.2,1.25.44,0,.79.01,1.13,0,.36-.01.5.17.48.5-.04.51-.07,1.02-.15,1.52-.1.64-.05.72.61.79.09,0,.18.02.27.01.36-.03.47.16.48.49.01.4.05.81.09,1.21.15,1.34.95,1.54,2.08,1.41.39-.04.45.08.45.38,0,.51-.05,1.03.02,1.53.2,1.32.27,1.31,1.38,1.39.19.01.39.05.58.05.76,0,.81.05.93.82.23,1.43.98,2.56,2.03,3.51.34.3.69.32,1.06.04.14-.11.3-.19.47-.26.3-.14.56-.06.75.21.69.99,1.66,1.57,2.77,1.96.62.22,1,.03,1.21-.59.11-.33.22-.65.35-.97.29-.74.71-.88,1.38-.48.4.24.56.2.78-.23.52-1.02.5-2.12.5-3.21,0-.92.08-1.04.99-1.09.64-.03.9-.28.94-.9.07-1.11.21-2.21-.07-3.31-.11-.45.11-.68.59-.68.25,0,.51.03.76.06.5.05.62,0,.51-.49-.16-.72-.42-1.43-.7-2.12-.19-.47-.12-.68.4-.75q.89-.12.89-1.05c0-.15,0-.3,0-.45,0-.49-.1-.94-.45-1.33-.27-.29-.2-.47.2-.69.71-.39.82-.97.31-1.59-.29-.35-.58-.69-.87-1.03-.24-.29-.19-.52.17-.65.11-.04.23-.04.35-.06.93-.1,1.18-.51.8-1.37-.04-.1-.07-.21-.15-.28-.68-.62-.38-1.17.07-1.76.48-.62.46-.98.01-1.62-.21-.3-.21-.52.09-.77.23-.19.42-.43.59-.67.41-.6.36-1.09-.13-1.63-.18-.2-.39-.38-.58-.56-.26-.24-.31-.43.02-.68.53-.4.62-1.31.19-1.82-.33-.39-.68-.76-1.06-1.11-.56-.51-.53-.48-.16-1.1.68-1.14.67-1.54-.64-2-.47-.17-.94-.32-1.41-.47-.36-.11-.39-.31-.21-.61.11-.19.21-.41.24-.62.07-.48-.04-.61-.51-.59-.59.02-1.19.08-1.78.14-.32.03-.58.04-.56-.4,0-.09-.05-.22-.12-.26-.45-.26-.91-.48-1.35-.74-.14-.08-.22-.26-.33-.4.03-.04.07-.08.1-.12.39.45.98.31,1.46.59.91.51,1.57.18,1.72-.72.09-.54.15-.59.67-.43.36.11.7.26,1.06.38.66.23.93.06,1-.63.01-.1.01-.21.03-.31.08-.56.34-.72.87-.54.19.06.37.16.56.17,1.03.08,1.36.21,1.03-1.04-.07-.27-.03-.58-.05-.97.28.15.41.23.54.3.99.5,1.74.3,1.92-.76.16-.94.59-1.16,1.42-1.27.76-.09.75-.18.74-.94,0-.21,0-.42,0-.63,0-.49.06-.96.46-1.32.07-.06.1-.21.09-.31-.16-.91-.32-1.81-.2-2.74.08-.59.06-.6-.53-.76-.69-.19-1.34-.44-1.61-1.21-.13-.38-.42-.54-.84-.5-.56.04-.68-.12-.65-.69,0-.17,0-.35,0-.57-.37.05-.68.09-.98.15-.25.05-.39-.02-.46-.28-.19-.72-.58-.99-1.32-.9-.84.11-1.74.07-2.35,1.03-.13-.33-.24-.52-.28-.72-.16-.79-.16-.81-.98-.72-.26.03-.53.12-.76.23-.64.31-.76.26-.91-.43-.09-.42-.29-.57-.67-.4-.5.23-.98.51-1.43.83-.49.34-.52.35-.67-.25-.02-.07-.04-.15-.05-.22-.08-.37-.31-.53-.66-.4-.56.21-1.1.46-1.64.72-.08.04-.13.18-.16.29-.38,1.43-.72,2.87-1.16,4.29-.22.7-.36,1.39-.27,2.12.03.27.07.54.05.81-.01.18-.11.35-.17.52-.06-.01-.11-.03-.17-.04-.02-.9-.22-1.8.05-2.7.37-1.22.75-2.43,1.11-3.65.15-.5.27-1,.36-1.51.03-.14-.05-.4-.14-.44-.16-.06-.39-.03-.55.05-.63.34-1.18.76-1.36,1.52-.04.16-.21.35-.36.41-.09.03-.29-.15-.39-.27-.16-.19-.3-.41-.42-.64-.18-.33-.4-.37-.69-.15-.41.3-.67.67-.65,1.21.01.26-.04.53-.08.89-.24-.19-.37-.29-.51-.4-.5.48-.39,1.09-.41,1.65-.04,1.33.01,2.67-.06,4-.03.46-.16.83.34,1.11.15.08.26.3.32.48.31.89.83,1.62,1.59,2.18.72.53,1.05,1.26,1.24,2.12.11.49.44.94.67,1.4.02.04.06.08.1.08.56,0,.76.47,1.05.82.65.79,1.24.9,2.15.45.15-.07.37-.02.55,0,.29.03.61.16.87.09.34-.1.46.03.57.28-.46.42-.73.46-1.38.24-.45-.15-.69-.04-.88.38-.05.11-.14.24-.25.28-.77.28-1.55.54-2.33.8-.54.18-1.09.34-1.61.57-.5.21-.8.61-.86,1.16.52.3,1.02.6,1.53.88,1.72.95,3.38,1.99,4.79,3.4.91.91,1.89,1.75,2.88,2.59,1.12.95,1.81,2.18,2.44,3.46.05.11,0,.39-.08.44-.23.13-.34-.04-.45-.26-.43-.79-.82-1.61-1.37-2.31-.57-.72-1.31-1.31-1.98-1.95-.98-.93-1.91-1.93-2.98-2.74-1.22-.93-2.58-1.69-3.88-2.52-.23-.15-.48-.29-.81-.49ZM53.8,49.17c-.31-.26-.54-.48-.8-.67-.51-.38-1.03-.72-1.53-1.11-.27-.2-.37-.46-.13-.78.07-.09.1-.24.09-.37-.02-.63-.95-1.38-1.72-1.34-.93.04-1.75.39-2.47.97-.33.26-.67.51-1.02.73-.25.15-.57.19-.71-.11-.32-.65-.86-.77-1.51-.84-1.08-.13-1.91.33-2.63,1.02-.5.48-.64.51-1.2.12-.29-.2-.66-.39-1.01-.42-1.01-.09-2.17.89-2.34,1.9-.13.72-.73.96-1.33.52-.12-.09-.24-.19-.33-.31-.33-.42-.73-.45-1.21-.29-1.47.49-2.29,1.62-2.94,2.92-.05.1-.14.23-.22.23-.1,0-.22-.08-.32-.14-.17-.11-.31-.29-.5-.33-.75-.19-1.47-.17-2.05.43-.35.35-.71.69-1.01,1.08-.38.5-.69,1.05-1.07,1.55-.11.15-.36.26-.54.27-.96.04-1.74.45-2.35,1.16-.2.23-.32.58-.38.89-.1.55,0,.55.56.61,1.07.12,2.12.33,3.18.52.1.02.23.21.23.32,0,.08-.17.18-.28.25-.1.06-.23.06-.32.13-1.08.81-.95,1.95.27,2.55.86.42,1.83.64,2.77.89.61.16.68.3.29.83-.27.37-.54.76-.73,1.18-.28.62-.07.98.59,1.09.66.12,1.34.19,1.99.34.62.15.65.25.31.79-.35.56-.5,1.14-.44,1.8.04.41.22.59.63.59,1.12,0,2.21.37,3.35.09.45-.11.59.17.38.6-.24.5-.49.99-.71,1.5-.26.61-.14.81.5.93.06.01.12.02.18.03,1,.02,2.01.04,3.01.05.54,0,.62.07.57.63,0,.05.02.11.03.18.43-.03.84-.07,1.28-.1-.09-.27-.19-.48-.25-.71-.27-1.14.06-1.6,1.22-1.62,1.09-.02,2.19,0,3.2.6.12-.38.22-.7.34-1.09-.97-.05-1.89-.1-2.82-.16-.88-.05-1.77-.04-2.64-.19-.94-.15-1.85-.45-2.77-.68-.14-.04-.28-.07-.42-.1l-.05-.14c.16-.09.33-.27.47-.25.87.15,1.73.34,2.59.51.6.12,1.19.3,1.79.34.85.07,1.71-.02,2.56.07,1.28.13,2.54.28,3.78-.21.19-.08.41-.09.61-.13,1.38-.29,2.82-.13,4.2-.66,1.17-.45,2.45-.64,3.68-.93.68-.16,1.27-.43,1.72-.98.06-.07.19-.08.35-.14-.03.21-.04.33-.06.49.49-.29.95-.58,1.42-.83.46-.24.52-.46.07-.74-.62-.38-1.27-.73-1.95-.99-2.18-.84-4.38-1.63-6.57-2.43-.41-.15-.84-.26-1.22-.46-.34-.18-.6-.16-.91.02-.58.35-1.14.75-1.77.97-.97.35-1.98.58-2.98.86-.94.26-1.86.61-2.81.78-1.41.25-2.85.39-4.28.54-1.87.2-3.68.04-5.36-.92-.31-.18-.43-.33-.21-.73.39.18.77.39,1.17.52.75.23,1.52.58,2.28.57,1.7-.02,3.4-.21,5.1-.35.54-.05,1.07-.13,1.6-.27,1.52-.39,3.03-.85,4.55-1.23.9-.22,1.68-.63,2.5-1.24-1.03-.44-1.98-.84-2.94-1.23-.24-.1-.51-.12-.7-.16-.21-.15-.36-.33-.55-.37-1.03-.25-2.07-.46-3.11-.7-.13-.03-.29-.13-.36-.24-.12-.18-.18-.4-.27-.6.02-.01.04-.03.06-.04.23.26.46.52.61.69.29-.03.48-.1.64-.06.92.18,1.84.38,2.82.58,0-.15,0-.29,0-.44-.03-1.15-.65-2.06-1.23-2.99-.54-.88-1.03-1.79-1.53-2.69-.15-.27-.05-.48.25-.62.05.09.1.16.14.24.46.82.86,1.69,1.39,2.46.82,1.17,1.5,2.36,1.38,3.84-.03.32.1.49.39.61,1.09.45,2.18.93,3.27,1.39.18.07.4.05.57.13.4.19.77.46,1.18.61,1.63.59,3.28,1.15,4.91,1.72.14.05.29.09.53.16-.09-.26-.13-.42-.2-.56-.44-.98-.89-1.97-1.35-2.94-.13-.28-.28-.57-.48-.81-1.29-1.48-2.57-2.98-3.91-4.41-.4-.43-.98-.72-1.51-1-.84-.45-1.72-.84-2.57-1.27-1.16-.59-2.28-1.26-3.48-1.77-.89-.38-1.86-.57-2.79-.85-.11-.03-.2-.14-.3-.21.11-.08.21-.2.33-.24.1-.04.24,0,.35.03,1.22.41,2.46.77,3.65,1.25.79.32,1.5.81,2.26,1.2,1.12.56,2.26,1.09,3.39,1.66.33.17.67.37.92.64,1.1,1.19,2.17,2.41,3.25,3.61.11.12.2.25.26.33.1-.37.12-.76.3-1.06.18-.3.51-.51.85-.84-.8-.35-1.51-.69-2.24-.97-.48-.18-.64-.42-.32-.82.33-.41.76-.75,1.16-1.11.11-.1.25-.17.41-.27-.84-.47-1.34-1.14-1.73-1.92-.18-.37-.02-.54.3-.63.43-.12.87-.2,1.43-.32ZM68.1,59.67c-.47.15-.92.38-1.4.43-1.14.12-2.19.47-3.21.96-.87.41-1.76.76-2.66,1.1-.53.2-.77,0-.78-.56,0-.23,0-.47,0-.73-.23,0-.43-.01-.64,0-.76.05-1.52.12-2.29.16-.72.03-1.1-.4-.99-1.11.05-.33.18-.66.27-.97-.6-.24-1.19-.48-1.83-.75.33.73.63,1.42.94,2.1.29.65.6,1.3.88,1.97.09.22.03.45.36.57.8.29,1.58.65,2.37.96.12.05.32.03.43-.04.64-.41,1.28-.79,2.1-.6.09.02.25-.08.31-.17.3-.49.74-.71,1.29-.81.32-.06.64-.17.95-.28.68-.24,1.36-.47,2.06-.04.07.04.2-.02.3-.03.95-.07,1.8.08,2.33.99.1.18.25.34.41.48.31.29.49.63.48,1.07,0,.15.11.29.17.44.04-.01.08-.03.12-.04-.17-1.73-.35-3.47-.53-5.22-.7-.07-.48-.87-.91-1.19.21-.07.36-.12.51-.17,0-.05-.01-.09-.02-.14-.2-.06-.4-.1-.59-.17-1.19-.46-2.42-.82-3.54-1.4-2.59-1.35-5.12-2.81-7.67-4.23-.23-.13-.48-.29-.63-.5-.42-.62-.82-1.25-1.18-1.91-.08-.15-.01-.39-.01-.59.05,0,.1-.01.15-.02.1.16.2.32.29.49.57,1.02,1.15,2.02,2.41,2.33.06.01.11.05.16.08,1.57.88,3.15,1.73,4.7,2.64,1.58.93,3.14,1.88,4.92,2.37.28.08.56.15.93.25-.19-1.34-.16-2.61-.63-3.8-.12-.3-.25-.49-.58-.61-.5-.18-1-.41-1.46-.69-1.11-.68-2.2-1.39-3.27-2.13-.81-.56-1.64-1.13-2.36-1.8-1.15-1.07-2.25-2.21-3.31-3.37-.41-.46-.68-1.05-.97-1.61-.1-.2-.12-.47-.11-.7,0-.12.16-.24.24-.36.07.13.16.25.2.39.04.14-.03.32.03.43.34.55.65,1.11,1.07,1.6.6.69,1.26,1.32,1.91,1.97.6.59,1.17,1.21,1.84,1.72,1.71,1.31,3.45,2.6,5.39,3.57.29.15.59.26.93.41,0-.14.02-.23,0-.31-.48-2.01-.95-4.03-1.44-6.04-.04-.18-.19-.38-.34-.47-.64-.36-1.32-.64-1.94-1.03-.75-.47-1.49-.96-2.15-1.54-.76-.66-1.45-1.39-2.11-2.14-.36-.41-.71-.89-.87-1.39-.32-1.01-.53-2.05-.76-3.09-.03-.13.1-.3.16-.46.04,0,.08.01.12.02.07.44.13.88.22,1.31.21,1.02.44,2.06,1.16,2.84.95,1.01,1.88,2.03,2.99,2.9.94.73,2,1.2,2.97,1.85.03.02.1,0,.1,0-.24-1.01-.46-2.01-.71-2.99-.26-1.01-.56-2.02-.82-3.03-.2-.8-.38-1.6-.56-2.41-.09-.4-.23-.71-.69-.84-.29-.08-.57-.29-.78-.52-.79-.88-1.57-1.78-2.3-2.7-.24-.31-.36-.72-.5-1.1-.1-.28,0-.52.38-.67.16,1,.76,1.72,1.38,2.43.62.71,1.14,1.53,2.06,2.05-.11-.67-.14-1.27-.31-1.84-.51-1.69-1.06-3.37-1.61-5.05-.03-.09-.19-.22-.24-.2-.35.12-.76.21-.99.45-.13.13.01.59.12.86.2.48.09.68-.42.77-.6.11-1.19.29-1.77.47-.11.04-.24.22-.25.35-.03.67,0,1.34-.03,2.01,0,.15-.14.29-.21.44-.11-.07-.22-.14-.33-.2-.1-.06-.2-.18-.29-.17-.08,0-.2.14-.22.24-.06.4-.31.63-.64.82-.36.2-.43.48-.3.87.14.39.23.81.3,1.22.06.39-.12.66-.51.79-.35.12-.7.26-1.04.41-.38.17-.52.48-.57.89-.07.56.22.98.42,1.44.33.78.22,1.01-.56,1.34-.53.23-1.04.5-1.58.75.41.47.79.87,1.13,1.31.11.15.19.42.13.57-.06.13-.33.22-.51.25-.25.04-.51.01-.88.01.15.26.22.44.34.58.31.4.65.77.96,1.17.07.09.12.32.07.37-.13.12-.37.27-.47.22-.5-.23-.9,0-1.31.2-.33.16-.32.39-.06.59.38.31.8.58,1.18.89.39.32.8.63,1.14,1,.33.36.21.6-.28.67-.18.02-.36,0-.54,0-.28.02-.55.06-.93.11.52,1,1.12,1.78,2.29,2.17-.34.16-.53.27-.74.34-.55.2-1.03.5-1.34,1.01-.22.36-.13.53.26.66.28.09.56.21.83.34.52.26,1.04.53,1.56.8.14.07.26.16.39.24-.13.14-.23.32-.39.43-.37.24-.78.43-1.14.68-.32.21-.3.49-.04.76.54.57,1.21.93,1.96,1.12.58.14.73.34.56.91-.04.16-.13.3-.2.45-.26.55-.05.88.56.86.72-.03,1.44-.06,2.15-.14,1.11-.12,1.11-.14,1.1.98,0,.36.13.42.44.31.57-.22,1.19-.37,1.72-.66,1.69-.92,3.53-1.34,5.38-1.75.06.12.14.27.24.48ZM78.57,55.83c-.1-.08-.23-.17-.35-.28-.53-.47-.61-1.34-.13-1.82.99-1,2-1.98,3.01-2.96.3-.29.64-.55.92-.86.19-.21.32-.49.48-.74-.04-.03-.07-.06-.11-.08-.19.11-.37.29-.57.31-.34.03-.81.07-.99-.12-.25-.25.05-.61.28-.85.2-.22.44-.4.67-.6.21-.19.45-.36.63-.58.25-.33.57-.69.35-1.13-.22-.44-.68-.43-1.11-.41-.07,0-.15.03-.22.02-.14-.03-.35-.04-.38-.12-.05-.13-.02-.32.04-.46.07-.16.22-.28.34-.42.35-.42.46-.9.4-1.43-.04-.37-.22-.58-.6-.6-.36-.01-.72-.02-1.08-.03-.47,0-.62-.16-.62-.62,0-.6.23-1.11.69-1.51.18-.15.37-.28.56-.42-.04-.05-.08-.1-.12-.15-.77-.13-1.53-.16-2.35.31.07-.81.25-1.41.59-1.96.45-.73.31-1-.56-1.05-.1,0-.21,0-.31.02-.3.05-.59.11-.8-.22-.19-.3-.05-.52.1-.78.44-.77.19-1.28-.68-1.28-.57,0-1.15.15-1.7.29-.34.09-.48.07-.48-.31,0-.51.01-1.02,0-1.53,0-.41-.11-.78-.54-.95-.57-.22-1.14-.25-1.7.02-.13.06-.26.11-.43.18-.1-.57-.16-1.07-.27-1.56-.13-.57-.34-.64-.87-.41-.31.13-.65.26-.98.28-.86.06-.94-.05-.82-.9.07-.53,0-.67-.52-.82-.2-.06-.41-.06-.62-.07-.96-.05-1.92-.1-2.89-.15,0-.36.05-.64-.02-.9-.04-.18-.24-.46-.36-.46-.74.02-1.48.11-2.31.19,1.04,2.47,1.73,4.97,2.15,7.65.79-.71,1.34-1.43,1.79-2.23.56-1,.82-2.09.77-3.24,0-.23-.04-.39.22-.43.28-.04.4.14.37.38-.1.77-.13,1.56-.36,2.29-.38,1.2-1.13,2.21-1.99,3.12-.22.24-.51.59-.47.86.1.8.33,1.58.53,2.36.34,1.35.71,2.69,1.05,4.04.15.57.28,1.15.44,1.79.14-.12.23-.16.27-.23.78-1.3,1.57-2.59,1.82-4.13.08-.49.25-.98.45-1.45.56-1.32,1.09-2.63.93-4.11-.05-.47-.03-.96,0-1.44,0-.12.18-.23.28-.35.08.12.21.24.22.36.03.37,0,.75.01,1.12.1,1.71-.38,3.28-1.15,4.79-.15.29-.22.62-.27.95-.25,1.81-1.14,3.32-2.16,4.78-.09.13-.15.33-.12.47.38,1.56.77,3.11,1.16,4.67.14.55.28,1.11.41,1.66.06.02.13.03.19.05.54-.82,1.16-1.6,1.6-2.47.51-1.03.85-2.14,1.3-3.21.4-.96.89-1.9,1.25-2.87.37-1,.65-2.03.93-3.05.29-1.07.71-2.11.63-3.25,0-.08.07-.17.1-.26.04,0,.08,0,.12,0,.03.16.12.32.09.47-.13.87-.25,1.75-.46,2.6-.43,1.74-.91,3.47-1.66,5.12-.54,1.17-.99,2.37-1.48,3.57-.54,1.31-1.18,2.56-2.16,3.6-.24.26-.26.47-.18.8.27,1.07.5,2.15.73,3.24.07.31.07.64.12,1.1.36-.34.63-.56.87-.82.41-.46.75-.99,1.2-1.39.86-.76,1.45-1.71,2.07-2.65.21-.32.46-.63.75-.88.74-.64,1.34-1.37,1.72-2.28.3-.72.65-1.42.94-2.14.43-1.06.84-2.14,1.26-3.21.04-.09.12-.17.17-.25.05.02.1.04.16.06-.11.39-.17.81-.32,1.18-.44,1.05-.91,2.09-1.39,3.11-.48,1.03-.79,2.17-1.62,2.99-.96.94-1.72,2.01-2.49,3.1-.59.84-1.35,1.56-2.03,2.34-.27.3-.49.7-.82.87-.52.26-.5.57-.29,1.02.12,0,.25.02.38.02,1.5,0,2.94-.58,4.46-.47.26.02.52-.08.58-.44.03-.15.24-.31.4-.37.98-.36,1.96-.68,2.97-1.03ZM100.82,88.26c.28,1.49.52,2.89,1.2,4.17.75,1.4,1.42,2.87,2.63,3.95.68.61,1.23,1.3,1.79,2.01.42.53.98.95,1.47,1.43.07.06.16.2.14.24-.06.1-.19.26-.27.24-.19-.03-.42-.1-.55-.24-.57-.61-1.11-1.25-1.67-1.88-.32-.36-.65-.7-.99-1.04-.27-.28-.61-.51-.82-.83-.66-.96-1.33-1.92-1.88-2.95-.43-.8-.73-1.67-1.01-2.53-.22-.67-.3-1.38-.5-2.05-.11-.36-.24-.78-.51-1.02-.87-.77-1.8-1.48-2.73-2.19-.78-.6-1.58-1.16-2.43-1.79-.02.19-.04.27-.04.36-.06.96.3,1.79.76,2.59.18.32.09.49-.31.64-.23-.52-.54-1-.66-1.52-.17-.72-.2-1.48-.3-2.22-.02-.13-.08-.31-.18-.37-.76-.51-1.52-1.03-2.32-1.47-1.55-.85-3.11-1.66-4.69-2.47-.56-.29-1.16-.49-1.74-.73l-.09.13c.11.09.2.21.32.26.56.21,1.14.37,1.69.59.38.15.74.33.82.81.08.45.14.91.29,1.34.66,1.82,1.37,3.61,2.01,5.44.37,1.06.68,2.14,1.36,3.07.2.28.34.61.5.92-.87-.48-1.33-1.26-1.65-2.12-.38-1.04-.7-2.11-1.06-3.16-.1-.29-.24-.56-.38-.85-.18.22-.28.45-.46.55-.39.23-.34.43-.03.68.13.1.26.21.37.32.69.69.72,1.4.1,2.15-.1.13-.2.26-.33.37-.34.27-.38.54-.08.87.33.35.32.77.13,1.17-.16.34-.35.67-.56.97-.17.25-.15.41,0,.68.28.47.51.97.67,1.49.23.72.36,1.48.58,2.21.14.48.32.52.77.28.21-.11.42-.24.64-.33.36-.16.63-.07.78.33.17.43.36.86.58,1.27.44.81,1.07.84,1.67.13.22-.26.51-.52.82-.65.51-.22.8-.02.98.51.16.45.33.9.52,1.34.06.15.19.27.31.42.45-.8.87-1.03,1.37-.92.52.7.89,1.34,1.4,1.84.63.61,1.42.34,1.77-.49.07-.17.22-.3.33-.45.17.13.38.23.49.4.23.33.4.71.59,1.06.32.59.7.85,1.1.76.4-.1.71-.6.73-1.18,0-.12,0-.24.02-.36.03-.15.1-.29.17-.49.13.12.21.18.27.26.59.71,1.23,1.34,2.03,1.82.34.2.59.22.8-.12.15-.24.26-.5.39-.75.06-.12.11-.25.16-.4.1.06.14.08.17.11.06.07.12.14.15.22.24.66.77,1.01,1.37,1.29.52.24,1.04.47,1.52.76.39.24.54.09.66-.25.12-.35.25-.69.39-1.07.12.09.2.11.24.17.7.88,1.79.98,2.74,1.35.25.09.56.05.59-.3.09-.98.31-1.96,0-2.95-.16-.48-.11-.93.12-1.39.15-.28.31-.66.24-.92-.22-.75-.54-1.48-.88-2.2-.1-.21-.43-.29-.58-.48-.43-.53-.77-1.15-1.25-1.62-.86-.85-1.75-1.69-2.74-2.39-.76-.54-1.68-.85-2.52-1.27-1.52-.76-3.01-1.59-4.75-1.7-.62-.04-1.25,0-1.79,0,1.25,1.17,2.52,2.33,3.77,3.51.49.46.94.96,1.42,1.43.32.32.69.58.97.93.73.91,1.59,1.67,2.55,2.32.99.66,1.86,1.46,2.45,2.52.08.14.17.28.27.42.67.99,1.34,1.97,1.99,2.97.06.09-.07.3-.11.45-.12-.07-.29-.11-.35-.21-.23-.35-.4-.74-.63-1.08-.59-.85-1.24-1.66-1.79-2.53-.52-.82-1.28-1.38-2.01-1.96-.6-.47-1.22-.92-1.79-1.43-.45-.41-.81-.92-1.24-1.36-.74-.74-1.48-1.49-2.26-2.19-1.29-1.16-2.62-2.29-3.93-3.43-.05-.05-.12-.07-.28-.16ZM95.59,83.54c0,.05-.01.1-.02.15.12.08.24.16.35.25.75.6,1.54,1.15,2.23,1.8.66.63,1.27,1.31,2.18,1.51.65.14,1.33.2,1.99.19,1.54-.03,3.02.24,4.41.9.84.4,1.66.84,2.52,1.2,2.24.94,4.08,2.37,5.39,4.43.1.16.25.29.37.43.57-.45.72-.81.43-1.48-.27-.64-.69-1.22-1.01-1.84-.12-.24-.22-.53-.18-.79.09-.68-.06-1.27-.5-1.76-.52-.58-1.05-1.18-1.69-1.6-.6-.39-.66-.8-.59-1.43.11-.9-.13-1.71-.98-2.2-.53-.31-1.06-.59-1.71-.95.24-.17.44-.29.62-.44.17-.15.55-.2.4-.55-.52-1.2-1.16-2.3-2.46-2.84-.09-.04-.21-.26-.18-.31.36-.62.03-1.08-.33-1.54-.61-.78-1.53-.88-2.39-1.11-.23-.06-.45-.08-.45-.39,0-.85-.54-1.27-1.28-1.46-.52-.13-1.06-.19-1.59-.28-.33-.06-.51-.12-.41-.58.08-.38-.07-.84-.19-1.24-.12-.43-.53-.29-.84-.32-.06,0-.12-.02-.18-.03-.74-.16-1.43.07-2.1.31-.42.15-.53.1-.57-.33-.02-.18-.07-.4-.18-.52-.14-.14-.37-.29-.55-.28-1.03.08-2.1-.16-3.06.41-.08.04-.17.07-.26.08-.36.06-.73.12-.92.16-.33.68-.53,1.3-.9,1.8-.49.67-1.21.14-1.83.13.03.34.09.65.08.96-.02.58-.24.8-.82.76-.37-.02-.74-.1-1.1-.2-.52-.15-.63-.09-.72.44-.04.26-.07.57-.22.77-.45.61-.4,1.32-.58,2.01.94-.34,1.84-.7,2.76-.99,1.04-.33,2.1-.59,3.15-.88.26-.07.5-.19.76-.26.65-.19,1.31-.51,1.97-.53.81-.02,1.58-.14,2.34-.37.95-.29,1.87-.29,2.81.12.97.42,1.97.82,3.06.88.16,0,.32.1.48.16,0,.04,0,.08,0,.11-.13.04-.28.13-.4.1-.92-.21-1.87-.34-2.74-.68-1.26-.5-2.47-.84-3.82-.35-.6.22-1.29.18-1.94.27-.19.03-.38.05-.57.11-.64.2-1.26.51-1.91.61-1.24.2-2.37.72-3.57,1.06-.53.15-1.05.32-1.56.53-.27.11-.49.33-.78.53.68.33,1.24.64,1.83.88.25.11.57.15.84.11,1.08-.15,2.16-.48,3.24-.48,1.87,0,3.76.06,5.6.37,2.21.37,4.38,1.02,6.56,1.57.18.04.31.27.46.4-.03.04-.07.07-.1.11-.11-.03-.23-.05-.34-.08-1.71-.45-3.42-.91-5.13-1.36-1.62-.43-3.29-.46-4.94-.67-1.8-.24-3.54.11-5.31.5.43.3.86.58,1.34.77,1.71.68,3.21,1.73,4.77,2.69.29.18.47.39.84.14.25-.16.59-.19.9-.25,1.54-.29,3.05-.11,4.54.29.34.09.54.32.61.71-.44-.08-.85-.16-1.26-.24-.07-.52-.07-.51-.53-.32-.13.05-.29.09-.43.09-.88,0-1.76-.04-2.64-.03-.37,0-.73.12-1.09.18ZM60.43,81.23c.83-.09,1.59.08,2.29.53.26.17.48.1.65-.17.15-.24.29-.49.46-.72.53-.71.74-.75,1.49-.29.32.2.57.14.78-.14.15-.19.26-.4.42-.59.14-.17.31-.44.47-.45.81-.03,1.56-.32,2.33-.51.41-.1.76-.2,1.05-.51.33-.35.46-.75.44-1.23,0-.23.15-.46.23-.69.18.08.37.15.54.26.37.24.63.13.77-.31.07-.24.18-.46.3-.77.22.25.33.44.49.52.19.11.43.18.64.16.08,0,.15-.34.16-.53.02-.43-.1-.9.02-1.29.28-.89.04-1.63-.47-2.31-.27-.37-.67-.64-.97-.99-.35-.4-.66-.83-.96-1.28-.2-.3-.3-.66-.5-.95-.34-.49-1.2-.73-1.58-.43-.69.54-1.35,1.11-2.01,1.69-.43.38-.77.88-1.24,1.16-.75.45-.99,1.11-1.17,1.89-.2.87-.49,1.72-.74,2.58-.23-1.24.69-2.24.62-3.4-.8.54-1.62,1.08-2.43,1.63-.05.04-.1.11-.12.18-.2.69-.39,1.37-.58,2.06-.23.84-.43,1.68-.67,2.52-.03.11-.19.18-.29.27-.03-.13-.1-.28-.07-.4.05-.25.16-.48.22-.73.28-1.16.56-2.32.84-3.53-1.34.72-2.59,1.48-3.91,2.07-1.36.61-2.84.51-4.3.4,1.22-.19,2.47-.18,3.67-.43,1.23-.26,2.34-.9,3.39-1.73-.47-.1-.85-.17-1.22-.25-1.23-.27-2.46-.59-3.71-.1-.08.03-.28-.06-.33-.15-.04-.07.04-.25.13-.32.09-.08.24-.1.37-.13,1.11-.21,2.21-.16,3.3.11.49.12.99.24,1.5.29.42.04.86.18,1.27-.1,1.14-.78,2.28-1.55,3.42-2.33-.02-.07-.04-.14-.06-.2-.57-.06-1.15-.1-1.72-.18-.64-.09-1.29-.14-1.89-.35-.74-.26-1.42-.24-2.16-.03-.7.2-1.43.33-2.14.51-.25.06-.39,0-.42-.24-.04-.29.15-.33.38-.37.64-.12,1.29-.24,1.92-.42.85-.25,1.67-.36,2.5.03.2.09.43.16.65.18.83.1,1.67.15,2.5.27.27.04.52.24.77.36.01.06.02.12.03.18.79-.79,1.59-1.58,2.42-2.41-.56-.33-1.05-.77-1.61-.93-.9-.25-1.85-.33-2.78-.44-.73-.09-1.46-.1-2.2-.17-.09,0-.25-.16-.24-.19.05-.12.13-.26.24-.32.09-.05.23,0,.35,0,.85.05,1.71.06,2.56.16.81.1,1.62.24,2.4.47.43.12.79.46,1.19.71.75.47,1.3.19,1.36-.68.01-.19.09-.38.1-.57.06-.76.39-1.56-.28-2.24-.08-.08-.05-.26-.1-.38-.14-.32-.26-.65-.44-.94-.14-.24-.37-.43-.54-.66-.46-.62-1.14-.84-1.88-.62-.16.05-.41,0-.53-.1-.3-.25-.62-.3-.97-.21-.68.18-1.35.37-2.02.6-.16.05-.32.23-.41.39-.38.68-.37.69-1.13.54-.1-.02-.22-.08-.31-.06-.36.12-.75.22-1.05.43-.09.07.02.49.1.73.13.34.03.51-.29.66-.55.26-1.1.55-1.61.87-.14.08-.25.34-.23.51.03.35-.12.54-.4.67-.15.07-.31.12-.46.19-.54.26-.59.45-.21.9.03.03.06.07.09.1.27.36.19.66-.24.78-.22.07-.47.07-.71.08-.25.01-.5,0-.78,0-.03.7.6,1.07.76,1.71-.64.4-1.38.05-2.07.23-.07.64-.32,1.3.35,1.81-.06.08-.1.19-.17.22-.64.23-1.29.44-1.98.67.16.26.29.52.46.77.46.66.42.96-.22,1.45-.08.06-.16.13-.22.17.39.91,1.14,1.47,1.79,2.14.67.7,1.43,1.07,2.4.99.35-.03.54.09.53.48,0,.29.19.41.45.35.28-.05.55-.16.82-.23.15-.04.3-.07.48-.11,0,.19,0,.31.02.42.04.25.09.5.14.75.26-.08.53-.16.79-.25.04-.01.07-.05.11-.08.49-.32.61-.28.79.34ZM53.27,72.92c.03-.47.06-.88.07-1.29.01-.53.13-.66.66-.68.37,0,.74,0,1.2,0-.15-.27-.32-.45-.37-.67-.08-.3-.2-.7-.07-.91.13-.21.55-.28.85-.33.27-.05.55.02.9.04-.08-.16-.11-.24-.16-.3-.48-.7-.47-.75.21-1.25.08-.06.17-.15.26-.17.54-.11.61-.45.46-.94-.9.69-1.98.87-3.04,1.11-.58.13-1.17.25-1.74.43-1.25.41-2.5.7-3.82.68-.75,0-1.5.18-2.23.52.09.08.13.13.18.16.88.44,1.77.89,2.65,1.33.07.04.19.06.26.03.37-.15.6.03.81.3.74.96,1.87,1.35,2.92,1.95ZM83.92,75.51c-.09.86-.54,1.36-1.26,1.66h2.94c.04-.24.09-.51.12-.8,0-.09-.05-.26-.12-.28-.53-.2-1.07-.37-1.68-.58ZM72.65,77.51c1.54-.36,3.08,0,4.46-.74-.17-.09-.33-.14-.5-.14-.66-.01-1.32-.03-1.98,0-.31.01-.62.15-.93.21-.17.04-.35.05-.52.05-.17,0-.33-.03-.5-.05-.01.19-.02.37-.04.67ZM74.22,76.36h2.18c-.26-.33-.5-.63-.75-.93-.06-.08-.16-.17-.25-.17-.47,0-.62-.35-.78-.7-.05-.11-.18-.19-.27-.29-.04.13-.12.26-.12.39-.01.54,0,1.07,0,1.69ZM88.45,83.36c-.28-.73-.51-1.34-.78-2.03-.19.24-.34.42-.47.62-.04.06-.04.2,0,.24.38.37.76.72,1.25,1.17ZM71.27,77.24s-.07-.01-.1-.02c-.09.27-.16.55-.27.8-.2.45-.15.52.38.56v-1.34ZM73.56,78.07s-.02-.07-.04-.11c-.23.06-.47.08-.67.19-.06.03,0,.3.02.55.29-.27.49-.45.69-.64Z"/><path d="M40.78,107.76c.32.43.61.78,1.14.7.06,0,.18.1.2.18.03.09.01.25-.04.28-.09.05-.27.06-.32,0-.17-.17-.31-.16-.51-.08-.08.04-.25-.06-.34-.14-.12-.11-.21-.25-.28-.35-.49.47-.91.92-1.37,1.3-1.12.93-1.92.91-3.03-.03-.47-.4-.45-.36-.91.01-.73.59-1.49,1.16-2.29,1.65-.66.4-.99.2-1.57-.24-1.01-.77-1.12-1.74-.89-2.85.03-.15.02-.31.07-.44.16-.47.06-.78-.42-1-.43-.2-.63-.61-.66-1.06-.05-.9-.04-1.81.33-2.66.13-.29.07-.45-.18-.64-.35-.28-.68-.59-.96-.94-.43-.54-.33-1.2-.23-1.82.11-.68.26-1.36.84-1.89-.14-.13-.25-.25-.38-.34-.72-.49-.84-1.18-.59-1.95.2-.61.46-1.21.71-1.8.13-.3.37-.44.74-.4-.9.71-1,1.78-1.36,2.7-.05.13.07.38.18.52.17.21.39.37.61.53.5.38.58.7.16,1.2-.41.47-.63,1-.77,1.6-.13.56-.07,1.02.45,1.39.32.23.68.51.84.85.15.33.16.79.08,1.15-.15.67-.39,1.31-.35,2.02.03.4.16.71.49.9.35.21.73.37,1.08.58.08.05.15.25.12.34-.29.83-.41,1.69-.28,2.55.04.26.25.5.42.72.1.14.28.23.39.37.56.72.54.58,1.33.19.9-.45,1.52-1.21,2.2-1.9.29-.29.5-.26.77-.07.18.13.35.29.52.43.65.52,1.37.66,2.08.2.51-.33.94-.78,1.4-1.18.2-.17.37-.37.59-.59Z"/><path d="M47.77,87.45c.15-.05.3-.11.5-.18,0,.4-.01.74,0,1.09.07,1.51.23,3.02.21,4.53-.01.91-.28,1.83-.47,2.73-.22,1.04-.46,2.08-.72,3.11-.08.33-.25.64-.38.96-.35.86-.7,1.72-1.06,2.57-.12.28-.27.56-.71.61.51-1.21,1.07-2.34,1.45-3.53.44-1.38.71-2.81,1.05-4.22.1-.44.24-.87.28-1.31.06-.73.09-1.47.06-2.2-.05-1.06-.17-2.12-.24-3.18-.02-.32.03-.65.05-.98,0,0-.02.01-.02.01Z"/><path d="M40.3,82.59c-.18.07-.36.12-.53.2-1.53.63-2.9,1.46-3.89,2.86-.31.44-.8.76-1.22,1.11-.07.06-.23.01-.35.02.03-.14,0-.36.09-.41.73-.47,1.23-1.17,1.8-1.81.96-1.08,2.18-1.82,3.53-2.34.34-.13.41-.07.58.37Z"/><path d="M89.27,37.44c.23-.37.43-.77.71-1.11.3-.37,1.16-.33,1.73-.02.47.25.99.41,1.46.65.28.14.53.36.78.56.05.04.02.19.03.28-.09,0-.19,0-.28-.02-.27-.09-.53-.19-.8-.29-.11-.04-.27-.06-.32-.14-.36-.6-1.01-.52-1.56-.65-.64-.15-.92,0-1.27.55-.08.13-.26.19-.39.29-.03-.03-.06-.07-.09-.1Z"/><path d="M46.28,106.59c-.58-.32-1.16-.63-1.75-.95-.44.76-.9,1.56-1.36,2.36-.07-.02-.14-.05-.22-.07.03-.14.02-.29.08-.41.38-.72.79-1.43,1.17-2.16.22-.42.42-.47.78-.16.32.27.67.5.99.77.15.13.27.31.4.47-.03.05-.07.1-.1.15Z"/><path d="M44.47,81.26c-.8.27-1.46.49-2.15.72.16-.54.97-1.12,1.54-1.09.19.01.37.21.61.37Z"/><path d="M46.71,80.44c-.52.23-.98.42-1.43.64-.33.16-.54.09-.65-.32.55-.21,1.09-.42,1.63-.61.3-.1.38.12.44.29Z"/><path d="M41.95,81.79c-.06.15-.08.38-.19.43-.14.06-.34-.03-.58-.06-.13.02-.33.06-.54.09-.02-.07-.03-.13-.05-.2.41-.12.82-.25,1.23-.37.04.04.08.08.12.12Z"/><path d="M29.91,92.87c-.28-.14-.55-.27-.86-.43.42-.41.65-.32.93.28-.02.05-.05.1-.07.15Z"/><path d="M94.57,36.43c.07.09.14.17.21.26-.15.2-.29.38-.43.55-.04,0-.07-.02-.11-.03.06-.26.12-.52.17-.78.05,0,.1,0,.15,0Z"/><path d="M28.84,91.86c.06-.34.12-.69.18-1.03.07.01.14.02.22.03-.07.33-.14.67-.22,1-.06,0-.12,0-.18,0Z"/><path d="M90.23,40.42c-.18.26-.36.52-.54.79-.04-.03-.09-.05-.13-.08.15-.27.3-.55.45-.82.07.04.14.08.21.12Z"/><path d="M75.61,67.78c-1.46.07-2.96.14-4.46.22,0-.05-.02-.1-.03-.15.15-.03.31-.09.46-.09.52-.02,1.05-.01,1.57-.02.33,0,.43-.15.37-.49-.18-1.02-.58-1.92-1.39-2.6-.16-.14-.34-.28-.43-.45-.09-.18-.09-.4-.16-.72,1.5,1.09,2.24,2.4,2.25,4.15.43,0,.86.05,1.28,0,2.59-.4,5.21-.32,7.81-.31.3,0,.47-.11.68-.33.68-.71,1.4-1.39,2.14-2.03.69-.59,1.44-1.12,2.17-1.66.26-.19.55-.35.84-.49.38-.18.77-.32,1.17-.48.16.25.17.47-.14.62-.12.06-.22.17-.35.2-1.28.28-2.09,1.3-3.09,2.02-.75.54-1.46,1.15-2.19,1.72-.12.09-.25.16-.32.32,2.94.12,5.82.12,8.53-1.16-.86.54-1.79.88-2.79,1.04-1.88.29-3.77.51-5.69.45-1.52-.04-3.04,0-4.56,0-.1,0-.2,0-.36.02.09.12.13.21.2.27.65.65,1.26,1.34,1.96,1.92.56.46,1.23.8,1.87,1.14.41.22.86.36,1.29.53.48.19.97.37,1.47.57,0,.02.01-.07.05-.26.77.17,1.54.33,2.31.52.09.02.13.22.19.33-.13.05-.27.17-.38.14-.82-.16-1.64-.36-2.45-.54-2.4-.52-4.55-1.49-6.18-3.42-.31-.37-.66-.7-1-1.04-.08-.08-.19-.18-.29-.18-.55.03-1.09.08-1.72.13.08.2.11.34.18.46.37.63.77,1.25,1.12,1.9.42.79,1.15,1.25,1.78,1.82.41.37.82.74,1.23,1.11.13.12.28.22.4.35.09.09.14.21.21.32-.14.06-.3.18-.43.15-.18-.04-.35-.16-.5-.29-.62-.54-1.19-1.14-1.83-1.64-.87-.68-1.41-1.58-1.91-2.52-.16-.29-.35-.57-.61-.83.15,1.19-.31,2.39.26,3.54.12.24.2.51.22.77.01.13-.14.28-.22.42-.11-.09-.26-.16-.32-.27-.76-1.44-.48-3.01-.52-4.54,0-.22.17-.44.26-.65Z"/><path d="M87.02,60.99c-.19.62-.72.89-1.18,1.22-.74.53-1.5,1.03-2.21,1.6-.86.7-1.68,1.45-2.51,2.19-.25.23-.45.51-.68.77-.07.08-.14.16-.21.24-.04-.04-.09-.07-.13-.11.32-.39.61-.83.98-1.16,1.17-1.03,2.36-2.04,3.57-3.02.76-.61,1.58-1.16,2.37-1.73Z"/><path d="M76.37,67.23c1.29-2.88,3.61-4.8,6.05-6.6.03.03.07.06.1.09-.13.13-.26.28-.4.4-1.27,1.07-2.68,1.99-3.72,3.31-.61.78-1.15,1.61-1.72,2.42-.09.13-.21.26-.31.38Z"/><path d="M84.49,67.77c.68.44,1.34.84,1.97,1.3.17.12.2.42.3.64l-.17.13c-.73-.48-1.47-.95-2.18-1.45-.33-.24-.14-.45.08-.62Z"/><path d="M89.96,69.71c-.13.48-.32.55-.65.5-.56-.09-1.12-.14-1.68-.18-.49-.04-.67-.19-.65-.61.98.09,1.96.19,2.97.29Z"/><path d="M32.49,61.12c-.13-.28,0-.54.33-.68.47-.19.95-.41,1.44-.46,1.96-.21,3.49-1.17,4.86-2.63-.22-.1-.39-.21-.58-.25-1.17-.24-2.36-.42-3.52-.72-.6-.16-.96.01-1.27.48-.12.19-.29.34-.44.51-.86,1.01-1.98,1.37-3.28,1.41-.92.03-1.84.21-2.76.33-.12.02-.23.12-.34.18-.2-.42-.1-.69.33-.75,1.05-.14,2.11-.33,3.16-.37,1.5-.06,2.49-.88,3.43-2.08-.89-.23-1.69-.46-2.5-.63-.85-.17-1.71-.29-2.57-.42-1.34-.2-2.65-.13-3.92.41-.14.06-.29.08-.44.11-.04-.06-.08-.12-.13-.17.09-.04.18-.08.28-.11.69-.28,1.38-.52,2.15-.57,2.53-.16,4.93.48,7.34,1.06,1.22.29,2.47.5,3.7.76.38.08.75.22,1.13.28.49.07.23.59.51.77-.16.18-.29.44-.49.51-.28.1-.52.18-.55.5-.03.31-.18.34-.44.21-.06.16.09.53-.3.34-.02-.01-.09.07-.13.11-.87.85-1.96,1.15-3.13,1.32-.62.09-1.21.34-1.89.54Z"/><path d="M40.58,56.33c-.72.05-.79-.51-.98-.91-1.05-2.15-2.87-3.22-5.1-3.75-.39-.09-.79-.17-1.18-.27-.14-.04-.3-.09-.39-.19-.07-.08-.07-.25-.04-.36.01-.06.17-.15.23-.13,1.4.34,2.8.67,4.09,1.33,1.26.64,2.06,1.71,2.73,2.9.25.44.44.91.66,1.37Z"/><path d="M95.73,88.69c.44.39.75.73.95,1.26.49,1.31,1.01,2.62,1.93,3.72.31.37.52.84.77,1.26.67,1.1,1.33,2.2,2.03,3.28.14.22.18.4-.05.52-.09.05-.34-.05-.41-.16-.61-.94-1.21-1.89-1.8-2.84-.39-.63-.78-1.27-1.17-1.91-.29-.47-.62-.93-.84-1.43-.5-1.14-.94-2.31-1.4-3.47-.02-.05,0-.11-.02-.23Z"/><path d="M92.47,92.38c.19.29.41.56.58.86.46.85.92,1.68,1.73,2.25.1.07.09.3.13.46-.15-.01-.34.04-.43-.04-.31-.28-.65-.56-.86-.91-.5-.81-.93-1.65-1.39-2.49l.24-.14Z"/><path d="M95.94,88.28c-.17-.21-.55-.32-.19-.76.1.24.19.48.29.72-.03.01-.07.03-.1.04Z"/><path d="M109.38,86.08c-2.05-.61-3.93-1.61-6.07-1.73-.2-.01-.49.05-.44-.34,0-.05-.23-.13-.37-.18-.21-.08-.42-.15-.63-.22.01-.05.03-.1.04-.15.05,0,.11-.03.15-.02,2.37.48,4.71,1.03,6.97,1.91.52.21.58.33.34.73Z"/><path d="M106,81.9c.22-.09.42-.24.5-.2.76.45,1.51.93,2.29,1.43-.28.29-.47.32-.71.15-.65-.45-1.32-.88-2.08-1.39Z"/><path d="M104.89,80.87c.4.2.73.36,1.09.54-.47.39-.87.2-1.09-.54Z"/><path d="M66.71,70.5c-.37-.18-.74-.28-1.03-.5-1.04-.81-2.23-.74-3.43-.62-.26.03-.48.04-.44-.29.01-.1.18-.24.3-.25,1.21-.19,2.41-.25,3.5.5.27.18.58.3.88.44.3.15.43.35.23.73Z"/><path d="M67.47,75.63c.19-.83.39-1.57.54-2.33.09-.45.13-.92.15-1.38.04-.64.05-1.29.07-1.93,0-.3.14-.47.58-.51-.12,1.29-.22,2.55-.36,3.8-.06.52-.22,1.02-.32,1.53-.06.35-.12.68-.66.82Z"/><path d="M64.29,76.81v1.84c-.06,0-.13,0-.19,0,.07-.69.14-1.38.19-1.83Z"/></svg>