<?xml version="1.0" encoding="UTF-8"?><svg id="Layer_1" xmlns="http://www.w3.org/2000/svg" viewBox="0 0 144.57 144.57"><path d="M50.01,42.33h28.7c14.35,0,26.01,11.65,26.01,26.01v28.7c0,5.6-4.55,10.15-10.15,10.15h-44.56c-5.6,0-10.15-4.55-10.15-10.15v-44.56c0-5.6,4.55-10.15,10.15-10.15Z" fill="none" stroke="#000" stroke-miterlimit="10" stroke-width=".65"/><path d="M72.69,79.26c-.51,2.24-1.49,3.96-2.94,5.16-1.49,1.19-3.25,1.79-5.28,1.79-1.84-.04-3.37-.51-4.6-1.39-1.25-.85-2.16-1.83-2.73-2.95-.17-.36-.33-.71-.47-1.04-.13-.34-.24-.77-.32-1.29-.16-.97-.24-2.84-.24-5.6s.08-4.68.24-5.63c.17-.95.43-1.72.79-2.3.57-1.12,1.48-2.11,2.73-2.98,1.23-.88,2.77-1.34,4.61-1.36,2.26.02,4.1.71,5.52,2.07,1.42,1.37,2.32,3.06,2.7,5.08h-3.76c-.29-.97-.81-1.8-1.58-2.49-.79-.65-1.76-.99-2.89-1.01-.84.02-1.55.19-2.15.51-.61.33-1.1.75-1.48,1.25-.46.52-.77,1.19-.92,2.01-.17.86-.26,2.49-.26,4.86s.09,3.99.26,4.83c.15.84.46,1.52.92,2.04.38.5.87.9,1.48,1.21.6.37,1.32.55,2.15.55,1.99,0,3.48-1.1,4.47-3.3h3.76Z" fill="#1d1d1b"/><path d="M84.23,84.48h-.06c-.31.59-.79,1.02-1.44,1.29-.64.29-1.53.43-2.66.43-1.86-.02-3.29-.53-4.3-1.52-1.06-.97-1.59-2.21-1.59-3.73s.46-2.65,1.38-3.6c.92-.97,2.27-1.47,4.04-1.49h4.64v-1.82c.02-1.52-1.12-2.26-3.42-2.21-.83,0-1.49.09-1.97.27-.5.21-.9.57-1.19,1.07l-2.63-2.07c1.27-1.71,3.15-2.55,5.63-2.5,2.1-.02,3.77.39,5.02,1.23,1.25.86,1.89,2.34,1.91,4.44v11.75h-3.34v-1.52ZM84.23,78.71h-4.02c-1.95.04-2.92.74-2.89,2.07,0,.59.25,1.08.76,1.49.48.45,1.28.68,2.4.68,1.4.02,2.4-.15,2.97-.51.53-.36.79-1.19.79-2.49v-1.24Z" fill="#1d1d1b"/><path d="M46.43,56.25l2.83-3.66c.11-.15.18-.28.22-.41.03-.12.04-.23.04-.34,0-.28-.08-.53-.25-.73-.18-.21-.43-.32-.75-.32-.29,0-.52.09-.71.28-.2.19-.31.45-.35.8h-1.03c.03-.62.23-1.13.61-1.54.38-.4.85-.6,1.41-.6.62,0,1.13.21,1.52.62.39.4.6.91.6,1.52,0,.49-.15.93-.44,1.31l-2.33,3.02h2.77v1.07h-4.13v-1Z" fill="#1d1d1b"/><path d="M51.53,51.86c0-.69.22-1.22.64-1.59.39-.37.86-.55,1.41-.55s1.04.18,1.44.55c.4.37.61.9.62,1.59v3.3c-.01.69-.22,1.22-.62,1.59-.39.37-.87.56-1.44.56-.55,0-1.02-.19-1.41-.56-.42-.37-.63-.9-.64-1.59v-3.3ZM54.61,51.93c-.02-.75-.36-1.13-1.02-1.15-.67.01-1.01.4-1.02,1.15v3.18c.01.76.35,1.14,1.02,1.15.66,0,1-.39,1.02-1.15v-3.18Z" fill="#1d1d1b"/><path d="M66.12,99.98l1.08-2.38h.51l-1.09,2.38h.84v-.96h.46v.96h.26v.45h-.26v.5h-.46v-.5h-1.34v-.45Z" fill="#1d1d1b"/><path d="M68.48,98.52c0-.31.1-.54.29-.71.18-.16.38-.25.63-.25s.46.08.64.25c.18.17.27.4.28.71v1.47c0,.31-.1.54-.28.71-.18.16-.39.25-.64.25-.24,0-.45-.09-.63-.25-.19-.17-.28-.4-.29-.71v-1.47ZM69.85,98.55c0-.33-.16-.5-.46-.51-.3,0-.45.18-.45.51v1.41c0,.34.16.51.45.51.29,0,.45-.17.46-.51v-1.41Z" fill="#1d1d1b"/><path d="M70.86,100.45h.46v.47h-.46v-.47Z" fill="#1d1d1b"/><path d="M71.84,98.52c0-.31.1-.54.29-.71.18-.16.38-.25.63-.25s.46.08.64.25c.18.17.27.4.28.71v1.47c0,.31-.1.54-.28.71-.18.16-.39.25-.64.25-.24,0-.45-.09-.63-.25-.19-.17-.28-.4-.29-.71v-1.47ZM73.21,98.55c0-.33-.16-.5-.46-.51-.3,0-.45.18-.45.51v1.41c0,.34.16.51.45.51.29,0,.45-.17.46-.51v-1.41Z" fill="#1d1d1b"/><path d="M74.14,97.59h1.83v.47l-1.09,2.85h-.51l1.09-2.85h-.85v.48h-.46v-.96Z" fill="#1d1d1b"/><path d="M76.25,99.95c0-.32.13-.57.39-.75-.1-.09-.18-.19-.23-.3-.07-.1-.1-.23-.1-.37,0-.28.09-.51.27-.69.17-.18.39-.27.65-.27.27,0,.49.09.66.27.17.18.26.41.26.69,0,.14-.03.27-.09.37-.06.11-.14.21-.24.3.26.18.39.43.39.75,0,.3-.1.54-.29.72-.19.18-.42.28-.7.28-.28,0-.5-.1-.69-.28-.19-.18-.29-.42-.3-.72ZM76.72,99.95c0,.15.06.28.16.37.1.1.22.15.36.15s.27-.05.37-.15c.1-.1.15-.22.16-.37,0-.16-.06-.28-.16-.38-.1-.1-.22-.15-.37-.15-.14,0-.26.05-.36.15-.1.1-.16.22-.16.38ZM76.78,98.52c0,.15.05.27.14.35.09.08.2.13.32.13s.23-.04.32-.13c.09-.08.14-.2.14-.35,0-.16-.05-.28-.14-.36-.09-.08-.2-.12-.32-.12s-.23.04-.32.12c-.09.08-.14.2-.14.36Z" fill="#1d1d1b"/><path d="M64.5,94.08c-.1.44-.29.78-.58,1.02-.29.23-.64.35-1.04.35-.36,0-.66-.1-.91-.27-.25-.17-.42-.36-.54-.58-.03-.07-.06-.14-.09-.21-.03-.07-.05-.15-.06-.25-.03-.19-.05-.56-.05-1.1s.02-.92.05-1.11c.03-.19.09-.34.15-.45.11-.22.29-.41.54-.59.24-.17.54-.26.91-.27.44,0,.81.14,1.09.41.28.27.46.6.53,1h-.74c-.06-.19-.16-.35-.31-.49-.16-.13-.35-.19-.57-.2-.16,0-.31.04-.42.1-.12.07-.22.15-.29.24-.09.1-.15.23-.18.4-.03.17-.05.49-.05.96s.02.78.05.95c.03.17.09.3.18.4.07.1.17.18.29.24.12.07.26.11.42.11.39,0,.69-.22.88-.65h.74Z" fill="#1d1d1b"/><path d="M66.77,95.1h-.01c-.06.12-.16.2-.28.25-.13.06-.3.08-.52.08-.37,0-.65-.1-.85-.3-.21-.19-.31-.44-.31-.73s.09-.52.27-.71c.18-.19.45-.29.79-.29h.91v-.36c0-.3-.22-.44-.67-.44-.16,0-.29.02-.39.05-.1.04-.18.11-.23.21l-.52-.41c.25-.34.62-.5,1.11-.49.41,0,.74.08.99.24.25.17.37.46.38.87v2.31h-.66v-.3ZM66.77,93.97h-.79c-.38,0-.57.14-.57.41,0,.12.05.21.15.29.09.09.25.13.47.13.28,0,.47-.03.58-.1.1-.07.15-.23.15-.49v-.24Z" fill="#1d1d1b"/><path d="M68.39,90.65h.66v3.88c0,.15.08.23.25.23h.23v.64h-.29c-.24,0-.44-.06-.59-.18-.16-.13-.25-.34-.25-.63v-3.93Z" fill="#1d1d1b"/><path d="M72.52,94.86c-.14.17-.31.31-.51.41-.19.11-.42.17-.67.17-.39,0-.73-.14-1.02-.41-.3-.27-.46-.71-.47-1.32,0-.61.16-1.06.47-1.34.29-.27.63-.41,1.02-.4.25,0,.48.06.67.16.19.11.36.25.5.43l-.49.45c-.17-.23-.39-.35-.67-.36-.56,0-.84.34-.85,1.06,0,.71.29,1.06.85,1.05.28,0,.5-.12.67-.35l.49.45Z" fill="#1d1d1b"/><path d="M73.09,90.65h.66v.68h-.66v-.68ZM73.09,92.02h.66v3.38h-.66v-3.38Z" fill="#1d1d1b"/><path d="M74.67,92.02h.66v2.02c0,.23.06.41.19.54.12.13.28.19.47.19s.34-.06.46-.19c.12-.13.18-.31.18-.54v-2.02h.66v3.38h-.66v-.36h-.01c-.22.27-.5.4-.85.4-.27,0-.52-.11-.73-.31-.24-.2-.36-.48-.36-.87v-2.25Z" fill="#1d1d1b"/><path d="M78.23,92.02h.66v.36h.01c.22-.27.52-.4.88-.4.23,0,.42.04.57.12.14.08.27.19.39.32.27-.3.62-.45,1.07-.44.28,0,.54.1.77.3.23.2.35.49.36.88v2.25h-.66v-2.02c0-.24-.06-.42-.19-.54-.13-.13-.29-.19-.49-.19s-.36.06-.49.19c-.13.12-.2.3-.2.54v2.02h-.66v-2.02c0-.24-.06-.42-.19-.54-.13-.13-.29-.19-.49-.19s-.36.06-.49.19c-.13.12-.2.3-.2.54v2.02h-.66v-3.38Z" fill="#1d1d1b"/></svg>