<?xml version="1.0" encoding="UTF-8"?><svg id="Layer_1" xmlns="http://www.w3.org/2000/svg" viewBox="0 0 144.57 144.57"><path d="M41.99,77.71c.09.07.2.14-.02.18-.04-.03-.08-.05-.12,0,0,0,0,.03,0,.03.05.03.08,0,.12-.03.04.08.08.16.12.24h0c-.13-.02-.26-.02-.4-.03h0c.07-.14,0-.39.28-.37,0,0,0,0,0,0Z" fill="#000" stroke-width="0"/><path d="M41.72,78.09c.07.13.31.02.32.24,0,0,0,0,0,0-.07,0-.15.02-.22.02.05.04.1.08.14.13.01.01,0,.04,0,.06h0c-.48.08-.18-.29-.25-.44,0,0,0,0,0,0Z" fill="#000" stroke-width="0"/><path d="M41.77,78.95c.13-.04-.21-.45.21-.27h0s0,.04,0,.07c0,0,0,0,0,0-.12.03-.01.27-.22.21h0Z" fill="#000" stroke-width="0"/><path d="M41.91,81.66s-.09-.02-.11-.07c-.01-.06.02-.08.07-.08.05,0,.09.03.09.08,0,.05-.03.06-.06.06Z" fill="#000" stroke-width="0"/><path d="M41.97,78.68s0-.1,0-.15c0,0,0,0,0,0,.05,0,.1,0,.15,0h0c.06.15-.06.12-.14.13,0,0,0,0,0,0Z" fill="#000" stroke-width="0"/><path d="M42.1,78.12s.09-.02.11.03c0,.01-.04.06-.05.06-.05-.01-.05-.06-.05-.1,0,0,0,0,0,0Z" fill="#000" stroke-width="0"/><path d="M41.89,80.34c.06,0,.14-.02.14.09,0,.03-.02.08-.03.08-.07,0-.08-.07-.11-.1,0,0,0,.01,0,.01,0-.03,0-.05,0-.08,0,0,0,0,0,0Z" fill="#000" stroke-width="0"/><path d="M42.03,78.32c.1.01.13.05.07.14h0c-.02-.05-.05-.1-.07-.15h0Z" fill="#000" stroke-width="0"/><path d="M42.11,78.47s.04.02.05.03c-.02.01-.03.02-.05.03,0,0,0,0,0,0v-.08s0,0,0,0Z" fill="#000" stroke-width="0"/><path d="M41.76,79.02s0-.05,0-.07c0,0,0,0,0,0,0,.03,0,.05,0,.08h0Z" fill="#000" stroke-width="0"/><path d="M26.52,76.41c.32,0,.48.17.57.48.17.55.27.6.85.63.67.04,1.34.06,2.01.14.33.04.65.16.96.29.67.29,1.01.82,1.03,1.55.02.54.04,1.09.07,1.63.05,1.08.52,1.98,1.25,2.75,1.47,1.56,3.28,2.6,5.28,3.29,2.25.78,4.55,1.41,6.92,1.75,1.79.26,3.59.53,5.39.7,2,.19,4,.1,6-.05,2.77-.21,5.52-.63,8.24-1.19.3-.06.62-.1.93-.09.15,0,.29.15.44.24-.08.14-.13.32-.26.4-.77.48-1.63.69-2.51.88-2.37.51-4.77.8-7.18.99-1.99.16-3.98.21-5.97.04-3.47-.31-6.91-.81-10.27-1.82-1.81-.55-3.6-1.13-5.22-2.13-1.19-.74-2.26-1.61-3.11-2.74-.56-.74-.71-1.12-.81-2.04-.65,2.37-.84,4.75-.78,7.14.13,4.73,1.63,9,4.41,12.83,2.53,3.47,5.91,5.58,10.11,6.45,4.34.89,8.72,1.12,13.13.74,2.73-.23,5.37-.87,7.82-2.14,2.4-1.25,4.19-3.1,5.37-5.53.2-.42.42-.83.6-1.25.11-.25.27-.36.57-.31-.04.14-.08.28-.12.41-.94,3.03-2.7,5.43-5.38,7.18-.48.31-.97.51-1.46.75-2.4,1.21-4.97,1.81-7.61,2.13-2.77.33-5.54.46-8.32.16-1.99-.21-3.98-.43-5.94-.81-4.61-.91-8.11-3.5-10.77-7.32-2.21-3.17-3.42-6.69-3.77-10.52-.17-1.91.02-3.79.25-5.68.17-1.34.57-2.62,1.02-3.88.13-.36.31-.62.72-.57,0-.73.02-1.45,0-2.16-.03-.58-.41-.91-.94-1.01-.75-.15-1.5-.28-2.26-.34-.61-.05-1.08-.22-1.27-.85v-1.11Z" fill="#000" stroke-width="0"/><path d="M73.17,32.2c-.05.24-.04.51-.15.72-.55.97-.51,1.95-.15,2.95.34.93.8,1.83,1.09,2.77.68,2.26.74,4.54-.4,6.68-.56,1.04-1.34,1.97-2.03,2.93-1.54,2.14-3.43,3.95-5.31,5.77-2.9,2.81-5.6,5.79-7.83,9.18-1.52,2.31-2.83,4.72-3.53,7.42-.4,1.52-.67,3.05-.6,4.63.01.23.05.46.08.69-.45.11-.56.08-.68-.36-.1-.36-.17-.75-.19-1.12-.1-1.65-.03-3.3.32-4.91.35-1.62,1.15-3.07,1.94-4.51,1.25-2.26,2.89-4.25,4.48-6.26.35-.44.84-.78,1.26-1.17l-.1-.11c-.08.06-.16.11-.23.17-1.25,1.07-2.49,2.14-3.74,3.2-2.34,1.98-4.67,3.98-6.76,6.25-2.24,2.42-4.17,5.06-5.44,8.12-.99,2.4-1.44,4.9-1.17,7.5.21,2.04.89,3.91,2.04,5.62.12.18.24.36.38.57-.43.01-.75-.07-1.04-.39-2.19-2.4-2.96-5.24-2.75-8.43.26-4.08,2.09-7.48,4.47-10.65,2.82-3.77,6.31-6.85,9.94-9.8,3.76-3.06,7.45-6.22,11.14-9.37,1.47-1.25,2.56-2.86,3.78-4.35.92-1.12,1.44-2.4,1.61-3.85.16-1.43-.02-2.77-.76-4.01-.62-1.04-1.04-2.14-1.11-3.36-.03-.57.02-1.15.29-1.66.17-.32.43-.58.65-.87.16,0,.32,0,.49,0Z" fill="#000" stroke-width="0"/><path d="M110.97,92.64c.52-1.08.83-2.2.98-3.36.1-.76.12-1.52.19-2.28.01-.12.1-.24.16-.35.16.09.42.15.45.28.12.41.21.83.23,1.26.07,1.22-.25,2.39-.65,3.53-.37,1.05-.9,2-1.58,2.88-.19.25-.36.55-.45.85-.41,1.42-1.02,2.73-1.92,3.93.18-.16.38-.3.55-.47,1.5-1.52,2.76-3.21,3.64-5.16,1.23-2.72,1.65-5.6,1.62-8.56-.06-5-1.64-9.53-4.16-13.79-.17-.28-.25-.61-.4-.89-.08-.15-.25-.25-.39-.37-.21-.18-.13-.29.07-.38.23-.1.47-.18.78-.3-.21.18-.37.31-.59.5.24.23.42.4.6.57.11.11.24.22.33.36,2.27,3.23,3.85,6.75,4.6,10.65.78,4.07.6,8.05-1.02,11.89-1.53,3.63-3.98,6.49-7.56,8.23-1.28.62-2.7.93-4.06,1.38-1.24.41-2.5.66-3.81.68-.13,0-.25,0-.4,0-.06-.25.09-.32.29-.4,1.48-.53,2.98-1.01,4.42-1.62,1.77-.75,3.31-1.85,4.47-3.42.9-1.22,1.3-2.64,1.64-4.09.47-2.01.71-4.06.84-6.11.13-2.11.29-4.23.32-6.35.05-3.7-.58-7.28-2.13-10.67-1.1-2.41-2.75-4.44-4.73-6.15-2.09-1.8-4.28-3.46-6.45-5.17-2-1.58-4.01-3.14-5.72-5.06-2.22-2.5-3.84-5.32-4.47-8.64-.27-1.4-.33-2.8-.12-4.22.05-.32.06-.65.08-.97.01-.23.13-.35.35-.35.21,0,.34.12.35.35.06.87.12,1.73.2,2.6.33,3.73,1.74,6.99,4.15,9.85,1.54,1.83,3.36,3.34,5.22,4.82,2.24,1.78,4.53,3.49,6.71,5.35,3.13,2.67,5.47,5.92,6.77,9.87.59,1.78.88,3.61,1.07,5.47.3,2.99.26,5.99.05,8.99-.11,1.51-.33,3.01-.51,4.52-.01.11-.03.23-.04.34Z" fill="#000" stroke-width="0"/><path d="M80.34,64c-.19-.5-.38-1.01-.57-1.51-.56-1.45-1.14-2.9-1.69-4.37-.14-.36-.17-.76-.25-1.14-.05-.24-.08-.49-.18-.7-.89-1.92-1.21-3.97-1.48-6.04-.28-2.14-.23-4.27.07-6.4.21-1.5.48-3,1.31-4.32.04-.07.06-.17.12-.21.14-.08.29-.13.44-.19.04.16.16.37.1.49-1.15,2.52-1.32,5.21-1.29,7.91.04,4.32,1.12,8.39,2.88,12.31.72,1.6,1.42,3.22,1.73,4.96.13.75.2,1.52.18,2.28-.02.81.23,1.55.36,2.32.38,2.15.22,4.29-.17,6.42-.76,4.16-2.43,7.94-4.81,11.42-.19.27-.45.5-.7.77-.27-.39-.23-.7-.09-1,1.75-3.79,2.86-7.78,3.74-11.84.8-3.69.33-7.2-1.43-10.54-.79-1.5-1.66-2.97-2.48-4.45-1.12-2.02-2.07-4.11-2.5-6.4-.29-1.53-.4-3.08-.22-4.63.12-1.02.18-2.06.41-3.06.18-.79.58-1.53.9-2.28.09-.21.26-.39.48-.27.12.07.21.33.18.48-.12.74-.3,1.47-.42,2.21-.75,4.42-.06,8.59,2.18,12.49,1,1.73,2.03,3.45,3.05,5.17.03.05.06.09.1.13.02,0,.03-.01.05-.02Z" fill="#000" stroke-width="0"/><path d="M98.53,71.92c.43-.05.6.05.68.46.54,2.61,1.18,5.21,1.46,7.87.74,7.02-.13,13.77-3.24,20.18-1.88,3.87-4.89,6.48-8.78,8.14-2.18.93-4.48,1.47-6.82,1.8-2.37.34-4.75.5-7.13.42-2.21-.07-4.42-.25-6.48-1.16-.46-.21-.92-.43-1.37-.67-.37-.19-.42-.35-.34-.79.05.02.1.03.15.05,1.67.82,3.46,1.16,5.28,1.33,2.19.21,4.37.22,6.56,0,3.46-.37,6.87-1,10.04-2.53,3.64-1.76,6.18-4.56,7.67-8.32,1.44-3.64,2.55-7.36,3.02-11.25.32-2.62.35-5.25.16-7.87-.14-1.91-.4-3.82-.61-5.73-.07-.64-.16-1.28-.25-1.94Z" fill="#000" stroke-width="0"/><path d="M65.76,103.46c-.52.25-1.03.56-1.58.74-2.06.68-4.16,1.27-6.3,1.64-.4.07-.81.07-1.21.12-.19.02-.38.06-.56.09,0,.05.01.1.02.14,1.17-.11,2.35-.23,3.62-.35-.33.49-.72.7-1.16.78-.93.17-1.87.35-2.81.43-2.3.19-4.61.13-6.91-.07-.9-.08-1.79-.2-2.68-.34-.32-.05-.63-.19-.98-.3.38-.32.58-.36,1.3-.31.44.03.87.06,1.32.05-3.35-.4-6.38-1.59-9-3.76-.02.03-.04.06-.05.09.25.2.49.41.75.6.27.2.54.4.83.58,1.19.74,2.38,1.47,3.56,2.21.15.09.26.24.39.36-.02.04-.04.09-.05.13-.44-.1-.9-.15-1.31-.31-1.57-.63-2.99-1.51-4.32-2.55-1.55-1.21-2.96-2.56-4.02-4.24-.26-.41-.36-.79-.03-1.26.91,1.25,1.86,2.45,3.07,3.41-.7-.8-1.42-1.58-2.09-2.41-.68-.83-1.24-1.75-1.57-2.84.63.27,1.04.7,1.4,1.2,1.08,1.54,2.35,2.89,3.83,4.05,2.42,1.89,5.2,2.99,8.19,3.57,2.96.57,5.94.53,8.92.17,2.91-.36,5.77-.94,8.58-1.77.25-.07.54,0,.82,0,.01.06.03.11.04.17ZM48.66,106.18s0,.06,0,.09l4.34.13s0-.06,0-.09c-1.45-.04-2.9-.09-4.35-.13ZM53.77,106.24v.09c.43-.03.87-.06,1.3-.1,0-.03,0-.07,0-.1-.43.03-.86.07-1.3.1Z" fill="#000" stroke-width="0"/><path d="M90.89,83.83c-.53,0-.53,0-.53-.46-.02-1.92-.03-3.84-.06-5.77-.04-2.17-.51-4.26-1.01-6.36-.78-3.26-1.96-6.38-3.13-9.51-.86-2.29-1.57-4.62-1.96-7.04-.32-2-.51-4.02-.44-6.05.03-.81.11-1.62.21-2.42.03-.25.22-.49.35-.74.3.13.4.31.39.57-.2,4.58.73,8.97,2.21,13.27.86,2.51,1.84,4.99,2.69,7.51.83,2.46,1.41,4.98,1.69,7.57.21,1.93.17,3.86,0,5.79-.1,1.07-.22,2.14-.33,3.21-.01.14-.04.27-.06.43Z" fill="#000" stroke-width="0"/><path d="M43.95,99.1c.17-.06.33-.17.48-.16.23,0,.46.06.67.14,2.74,1.01,5.54,1.74,8.44,2.04,5.96.62,11.46-.64,16.39-4.11.62-.44,1.17-.98,1.75-1.48.32-.27.63-.54.94-.82.12-.12.2-.28.3-.41,1.16-1.52,2.31-3.04,3.47-4.56.06-.07.12-.16.2-.18.11-.03.27-.06.35,0,.08.05.13.22.11.33-.05.23-.12.48-.24.68-.95,1.62-2.04,3.13-3.55,4.27-.32.24-.49.48-.6.85-.19.65-.6,1.17-1.09,1.63-2.17,2.07-4.74,3.44-7.59,4.33-2.8.87-5.67,1.05-8.59.87-3.61-.22-6.96-1.32-10.22-2.78-.4-.18-.77-.39-1.23-.62Z" fill="#000" stroke-width="0"/><path d="M60.9,67.75c-.22-2.45.37-4.63,1.46-6.72,1.44-2.77,3.25-5.28,5.19-7.71,1.03-1.28,2.17-2.47,3.26-3.69.14-.16.29-.39.55-.19.27.2.13.44-.01.65-.88,1.32-1.76,2.63-2.66,3.94-1.58,2.29-3.19,4.55-4.75,6.85-1.36,2.01-2.36,4.19-2.93,6.55-.02.09-.05.17-.1.33Z" fill="#000" stroke-width="0"/><path d="M100.78,93.17c.17-.68.29-1.38.52-2.04.59-1.71.74-3.5.92-5.28.25-2.45.22-4.91-.08-7.35-.21-1.7-.55-3.37-.85-5.06-.12-.65-.29-1.29-.4-1.93-.02-.12.04-.32.13-.38.09-.05.3,0,.39.08.13.12.22.3.28.47.74,2.11,1.26,4.28,1.59,6.49.32,2.17.42,4.36.2,6.54-.26,2.58-.71,5.13-1.74,7.54-.1.24-.21.49-.37.71-.1.14-.29.23-.44.33-.05-.04-.09-.08-.14-.12Z" fill="#000" stroke-width="0"/><path d="M95.73,79.43c.33.1.42.27.44.52.19,1.78.07,3.54-.22,5.29-.48,2.96-1.23,5.86-2.42,8.62-1.1,2.54-2.25,5.05-3.83,7.34-.43.63-.9,1.23-1.35,1.84-.03,0-.07,0-.1-.01,0-.15-.06-.31-.02-.45.07-.23.16-.46.29-.66,2.04-3.17,3.51-6.61,4.75-10.15.98-2.8,1.69-5.67,2.11-8.61.15-1.03.16-2.07.24-3.11.02-.2.07-.4.11-.62Z" fill="#000" stroke-width="0"/><path d="M80.64,44.85c.37.14.46.36.47.63.06,1.51.09,3.03.19,4.54.12,1.91.3,3.81.45,5.71.12,1.45.23,2.91.38,4.36.18,1.71.39,3.42.59,5.14.05.44.12.87.15,1.31,0,.19-.09.38-.14.57-.04,0-.09,0-.13,0-.11-.25-.26-.48-.32-.74-.29-1.33-.64-2.66-.82-4-.36-2.8-.66-5.61-.9-8.42-.21-2.54-.35-5.08-.16-7.63.04-.48.15-.96.23-1.47Z" fill="#000" stroke-width="0"/><path d="M92.74,57.19c.17.11.35.18.45.31.96,1.27,2.12,2.33,3.34,3.33,1.94,1.58,3.92,3.1,5.88,4.66,1.09.86,2.17,1.74,2.99,2.89.86,1.22,1.39,2.55,1.41,4.06,0,.08,0,.16-.01.24,0,.02-.02.04-.04.08-.3.02-.47-.04-.54-.42-.3-1.72-1.2-3.14-2.44-4.31-1.12-1.06-2.34-2.04-3.56-2.99-2.07-1.62-4.16-3.21-5.97-5.13-.49-.52-.94-1.09-1.38-1.65-.23-.29-.34-.63-.13-1.06Z" fill="#000" stroke-width="0"/><path d="M74.77,75.66c-.53-.03-.53-.03-.52-.49.04-2.61-.4-5.16-1.03-7.68-.73-2.92-1.37-5.86-1.69-8.85-.18-1.67-.22-3.35.06-5.02.06-.35.24-.59.56-.77.24.3.25.65.18.98-.28,1.42-.11,2.84.05,4.25.38,3.4,1.19,6.71,1.86,10.06.44,2.19.57,4.4.54,6.63,0,.29,0,.57,0,.89Z" fill="#000" stroke-width="0"/><path d="M79.95,99.33c.06-.19.08-.41.19-.58,1.07-1.65,2.18-3.27,3.23-4.93,1.29-2.06,2.38-4.23,3.3-6.48.06-.15.11-.33.22-.43.13-.11.35-.22.5-.19.13.03.31.26.3.39-.02.53-.05,1.07-.18,1.57-.48,1.78-1.41,3.36-2.4,4.9-1.28,1.98-2.79,3.78-4.51,5.39-.16.15-.34.28-.51.41l-.13-.06Z" fill="#000" stroke-width="0"/><path d="M49.73,80.34c.05-2.02.36-4.01.73-5.99.07-.36.23-.7.36-1.05.07-.2.22-.35.42-.24.13.07.27.27.26.41-.03.62-.1,1.25-.19,1.86-.35,2.57-.55,5.16-.31,7.75.1,1.12.36,2.21.77,3.26.06.16.2.37-.02.44-.15.05-.44-.05-.52-.17-.25-.4-.46-.83-.65-1.26-.7-1.6-.8-3.31-.86-5.03Z" fill="#000" stroke-width="0"/><path d="M100.96,101.71c.2-.28.38-.53.56-.77,1.03-1.41,1.99-2.85,2.54-4.52.09-.27.16-.56.25-.83.03-.09.14-.25.17-.24.12.03.24.11.33.2.07.08.09.21.15.38.39-1.17.82-2.25.86-3.43,0-.22,0-.47.29-.51.28-.03.37.19.44.41.2.57.26,1.15.13,1.74-.54,2.44-1.6,4.6-3.38,6.39-.13.13-.22.31-.46.15-.04-.03-.18.06-.25.12-.24.22-.46.45-.7.67-.25.23-.55.31-.94.24Z" fill="#000" stroke-width="0"/><path d="M79.69,56.73c-.31-.01-.5-.09-.62-.37-.44-.98-.64-2.02-.78-3.08-.18-1.43-.4-2.86-.54-4.3-.17-1.9-.02-3.8.26-5.68.13-.9.34-1.79.54-2.68.03-.15.16-.31.29-.41.22-.17.41-.09.44.19.02.16,0,.32-.03.48-.53,2.79-.75,5.59-.61,8.43.11,2.16.36,4.31.79,6.43.06.32.17.64.27.99Z" fill="#000" stroke-width="0"/><path d="M93.69,60.27c-.14.28-.29.27-.51.13-.7-.45-1.23-1.08-1.75-1.72-2.53-3.1-4.48-6.54-5.84-10.3-.08-.22-.1-.47-.11-.71-.01-.29.18-.3.36-.18.11.07.2.2.25.31,1.2,2.4,2.36,4.82,3.79,7.1.85,1.35,1.73,2.68,2.63,4,.34.49.78.91,1.18,1.37Z" fill="#000" stroke-width="0"/><path d="M66.11,91.21c-.08.03-.16.07-.24.1-1.07.41-2.13.83-3.2,1.21-.28.1-.59.09-.89.11-.09,0-.18-.08-.27-.13.06-.09.1-.23.19-.27.75-.36,1.51-.69,2.27-1.05,2.08-.98,3.97-2.24,5.49-3.99.04-.04.08-.08.13-.11.32.33.38.6.16.97-.22.37-.49.7-.72,1.06-.08.12-.09.29-.12.43-.06.24-.04.55-.19.71-.75.83-1.53,1.64-2.61,2.07-.12.05-.24.09-.37.1-.26.02-.38-.18-.25-.4.1-.16.25-.3.38-.44.09-.1.2-.2.29-.3-.02-.02-.03-.04-.05-.06Z" fill="#000" stroke-width="0"/><path d="M95.05,66.59c-.09.09-.2.18-.31.28-.79-.63-1.46-1.36-2.06-2.15-1.67-2.19-2.87-4.63-3.85-7.18-.15-.4-.28-.81-.37-1.22-.03-.13.06-.35.16-.42.07-.05.31.03.4.12.13.12.19.31.27.48,1.41,2.87,2.88,5.72,4.61,8.42.36.56.75,1.11,1.15,1.68Z" fill="#000" stroke-width="0"/><path d="M108.83,92.37c-.01,1.7-.6,3.23-1.34,4.73-.54,1.11-1.23,2.12-2.13,2.97-.15.14-.33.24-.51.35-.06.03-.15,0-.22,0,0-.09-.02-.18,0-.26.02-.09.08-.17.12-.25,1.25-2.2,2.24-4.51,2.79-6.99.15-.67.2-1.37.33-2.05.03-.15.14-.37.24-.39.12-.02.36.11.4.23.17.53.28,1.08.41,1.63-.03,0-.06.02-.09.02Z" fill="#000" stroke-width="0"/><path d="M91.85,99.8c-.15-.38-.04-.69.14-.96,1.5-2.25,2.49-4.74,3.43-7.26.26-.69.52-1.39.49-2.15,0-.12.15-.33.24-.34.12-.01.35.12.37.22.11.51.32,1.07.22,1.55-.69,3.19-2.07,6.05-4.33,8.44-.16.17-.36.31-.55.49Z" fill="#000" stroke-width="0"/><path d="M70.85,89.71c.09-.15.17-.29.26-.42,1.98-3.01,3.63-6.21,5.28-9.41.17-.34.3-.7.46-1.05.1-.21.23-.39.5-.3.29.1.27.32.2.57-.73,2.31-1.85,4.44-3.16,6.47-.84,1.31-1.78,2.57-2.67,3.85-.21.31-.48.4-.87.28Z" fill="#000" stroke-width="0"/><path d="M59.15,107.44c-.25.35-.54.52-.9.6-1.77.35-3.56.51-5.35.41-1.66-.09-3.32-.29-4.98-.45-.37-.03-.75-.03-1.1-.11-.39-.09-.77-.24-1.12-.42-.11-.06-.23-.29-.2-.41.02-.1.26-.23.39-.21.55.06,1.09.2,1.64.25,2.46.21,4.91.45,7.37.57,1.15.06,2.31-.14,3.46-.22.25-.02.5,0,.79,0Z" fill="#000" stroke-width="0"/><path d="M48.92,78.03c.08,4.03.86,7.77,2.88,11.2-.4.06-.8-.11-1.07-.49-1.51-2.15-2.48-4.49-2.52-7.15,0-.66,0-1.32,0-1.98,0-.59.28-1.05.71-1.57Z" fill="#000" stroke-width="0"/><path d="M64.43,63.12c.31-.74.56-1.52.94-2.22,1.15-2.11,2.35-4.19,3.53-6.28.1-.17.22-.35.37-.45.12-.08.35-.11.46-.04.1.07.18.3.15.43-.07.31-.19.62-.33.91-1.3,2.67-2.9,5.16-4.64,7.56-.08.1-.24.14-.37.21-.04-.04-.09-.08-.13-.12Z" fill="#000" stroke-width="0"/><path d="M82.98,99.24c.15-.28.27-.58.45-.83,1.62-2.3,2.89-4.79,4.11-7.31.14-.29.21-.61.28-.93.07-.35.26-.55.59-.68.27.64.21,1.25,0,1.87-.64,1.96-1.66,3.72-2.83,5.39-.61.87-1.35,1.64-2.05,2.44-.09.11-.29.12-.45.18-.03-.04-.07-.08-.1-.12Z" fill="#000" stroke-width="0"/><path d="M60.69,106.46c.02-.37.18-.54.49-.68,1.52-.69,3.03-1.42,4.54-2.15.12-.06.19-.2.29-.3.05-.05.12-.08.19-.1.25-.1.54-.14.75-.29.99-.73,1.95-1.48,2.92-2.23.24-.18.46-.18.73,0-.1.47-.37.83-.73,1.13-1.69,1.47-3.53,2.69-5.63,3.48-1.06.4-2.14.72-3.22,1.07-.1.03-.22.05-.34.07Z" fill="#000" stroke-width="0"/><path d="M41.76,96.83c-.14.04-.3.15-.42.11-.43-.11-.88-.21-1.28-.41-2.86-1.49-4.88-3.81-6.36-6.63-.15-.28-.24-.6-.28-.92-.02-.14.12-.31.19-.46.13.1.32.18.39.31.98,1.77,2.1,3.43,3.55,4.86,1.16,1.15,2.47,2.1,3.87,2.92.1.06.21.08.32.12,0,.03.02.06.03.09Z" fill="#000" stroke-width="0"/><path d="M83.04,45.64c-.36-.46-.47-.87-.47-1.3,0-1.7-.04-3.41.08-5.1.07-1.02.4-2.03.64-3.04.05-.23.22-.44.51-.35.31.09.27.35.25.6-.26,2.86-.81,5.69-.76,8.57,0,.18-.14.36-.24.62Z" fill="#000" stroke-width="0"/><path d="M34.93,100.85c.41-.09.69.02.88.27,1.65,2.24,3.98,3.55,6.42,4.73.22.11.46.18.67.3.11.06.19.2.28.3-.03.05-.05.1-.08.15-.41-.06-.85-.05-1.24-.18-2.53-.89-4.81-2.17-6.39-4.44-.23-.33-.35-.74-.53-1.13Z" fill="#000" stroke-width="0"/><path d="M79.43,101.6c-.27.69-.7,1.24-1.24,1.71-1.79,1.58-3.7,3-5.8,4.15-.27.15-.57.24-.87.37-.12-.35.03-.54.26-.71,1.45-1.08,2.91-2.16,4.36-3.26.47-.36.88-.79,1.35-1.15.39-.3.81-.54,1.06-1,.18-.32.46-.32.88-.11Z" fill="#000" stroke-width="0"/><path d="M85.44,45.83c-.4,0-.6-.16-.64-.63-.09-1.09-.2-2.19-.22-3.29-.02-.83.06-1.67.15-2.49.08-.73.54-1.22,1.2-1.37-.16,2.6-.32,5.19-.48,7.78Z" fill="#000" stroke-width="0"/><path d="M60.71,107.88c.09-.11.16-.27.28-.32,2.68-1.07,5.16-2.55,7.71-3.88.11-.06.22-.11.33-.16.25.36.23.52-.08.77-2.24,1.72-4.72,2.95-7.46,3.62-.23.06-.47.05-.71.07-.02-.03-.04-.07-.07-.1Z" fill="#000" stroke-width="0"/><path d="M70.58,106.81c.14-.17.26-.33.4-.47,1.81-1.84,3.34-3.9,4.85-5.97.18-.25.32-.53.47-.8.09-.17.17-.35.41-.24.21.1.34.25.21.5-.26.49-.48,1-.79,1.46-1.35,2.03-2.87,3.92-4.77,5.47-.25.2-.48.33-.79.05Z" fill="#000" stroke-width="0"/><path d="M72.37,103.14c.06-.11.11-.22.18-.32,1.21-1.94,2.42-3.89,3.63-5.83.22-.36.41-.75.62-1.12.09-.17.2-.33.43-.24.21.09.31.26.24.48-.11.34-.22.69-.38,1-1.08,2.14-2.44,4.09-4.04,5.87-.14.15-.4.18-.61.27-.02-.03-.04-.07-.06-.1Z" fill="#000" stroke-width="0"/><path d="M97.84,102.63c.7-.92,1.38-1.81,2.06-2.7.81-1.06,1.61-2.11,2.43-3.16.12-.15.26-.31.43-.39.12-.06.34-.06.43.02.09.07.15.31.1.42-.2.45-.42.9-.69,1.31-1.09,1.66-2.49,3.04-3.93,4.38-.23.21-.48.25-.83.13Z" fill="#000" stroke-width="0"/><path d="M96.77,102.02c.31-.38.6-.75.9-1.11,1.06-1.26,1.97-2.63,2.78-4.06.19-.34.35-.7.53-1.05.1-.19.23-.33.46-.27.25.07.28.29.23.48-.12.47-.25.94-.44,1.38-.49,1.14-1.26,2.1-2.09,3.01-.44.48-.92.92-1.39,1.36-.34.33-.45.35-.98.26Z" fill="#000" stroke-width="0"/><path d="M72.59,98.9c1.53-2.63,3.06-5.26,4.63-7.95-.04.41-.04.78-.13,1.13-.11.47-.24.95-.46,1.38-.82,1.61-1.69,3.19-2.82,4.61-.19.24-.43.46-.63.69-.17.2-.35.28-.59.15Z" fill="#000" stroke-width="0"/><path d="M79.29,104.09c-.2,1.41-4.98,4.51-6.6,4.18.1-.07.18-.13.26-.18,1.9-1.27,3.81-2.54,5.72-3.79.16-.11.38-.12.63-.2Z" fill="#000" stroke-width="0"/><path d="M67.22,98.4c.06-.41.24-.66.51-.88,1.22-1,2.39-2.05,3.2-3.43.05-.08.1-.16.16-.23.14-.16.3-.26.52-.14.22.12.28.3.2.53-.11.29-.22.59-.36.86-.92,1.69-2.47,2.58-4.22,3.29Z" fill="#000" stroke-width="0"/><path d="M65.68,102.35c.1-.5.38-.68.68-.84,1.72-.91,3.39-1.89,4.92-3.1.17-.14.33-.3.52-.4.1-.06.29-.07.36,0,.07.06.11.28.06.36-.18.28-.36.58-.62.78-1.46,1.1-2.98,2.11-4.67,2.84-.37.16-.78.24-1.25.38Z" fill="#000" stroke-width="0"/><path d="M83.37,35.55c-.71,1.35-1.21,2.79-1.62,4.26-.23.82-.43,1.65-.62,2.48-.05.24-.17.24-.44.17.07-.79.1-1.59.22-2.39.23-1.47.75-2.85,1.43-4.17.26-.5.54-.6,1.02-.35Z" fill="#000" stroke-width="0"/><path d="M73.62,108.84c.19-.12.37-.26.56-.36,1.69-.89,3.38-1.76,5.07-2.64.24-.12.54-.3.7.02.16.3-.15.49-.37.6-1.64.83-3.29,1.64-4.93,2.45-.16.08-.36.09-.53.14-.23.06-.4,0-.49-.2Z" fill="#000" stroke-width="0"/><path d="M72.19,93.17c.2-.36.39-.73.59-1.09.59-1.1,1.19-2.19,1.78-3.29.12-.23.17-.5.3-.73.06-.12.24-.27.33-.25.13.03.28.18.34.31.05.1,0,.27-.05.4-.51,1.76-1.55,3.21-2.74,4.56-.1.12-.32.13-.49.19-.02-.03-.04-.06-.06-.1Z" fill="#000" stroke-width="0"/><path d="M47.1,81.5c.47,2.54.94,5.08,1.4,7.57-1.18-1.25-2.04-5.58-1.4-7.57Z" fill="#000" stroke-width="0"/><path d="M75.96,109.31c-.13-.29-.05-.46.2-.56,1.4-.6,2.8-1.21,4.2-1.79.15-.06.4-.06.54.03.23.14.16.48-.12.6-.66.29-1.33.57-2.01.83-.72.27-1.45.52-2.18.76-.2.07-.42.09-.63.14Z" fill="#000" stroke-width="0"/><path d="M67.34,93.96c-.1-.2-.14-.29-.2-.41.56-.41,1.12-.82,1.67-1.22.14-.1.27-.23.42-.3.2-.1.45-.1.53.13.05.12-.03.4-.13.46-.74.46-1.5.89-2.29,1.34Z" fill="#000" stroke-width="0"/><path d="M66.34,92.98c.46-.52.84-.97,1.25-1.39.39-.41.88-.61,1.52-.54-.56,1.16-1.65,1.49-2.77,1.93Z" fill="#000" stroke-width="0"/><path d="M68.29,94.19c.41-.83,1.09-1.24,1.87-1.57.06.35,0,.65-.28.84-.41.27-.85.51-1.29.75-.07.04-.18,0-.31-.02Z" fill="#000" stroke-width="0"/><path d="M69.43,94.7c.11-.22.2-.45.32-.66.14-.24.31-.46.47-.69.15-.22.35-.28.57-.15.25.14.18.34.05.53-.31.5-.75.84-1.41.96Z" fill="#000" stroke-width="0"/><path d="M79.18,108.4c.77-.13,1.5-.47,2.37-.31-.6.51-1.26.63-1.96.64-.24,0-.37-.08-.4-.34Z" fill="#000" stroke-width="0"/></svg>