<?xml version="1.0" encoding="UTF-8"?><svg id="Layer_1" xmlns="http://www.w3.org/2000/svg" viewBox="0 0 144.57 144.57"><path d="M108.4,100.46c-.27-.39-.64-.83-.61-.87.37-.37.78-.7,1.22-.97.38-.24.86-.34,1.21-.61.15-.12.1-.5.16-.88,1.28-.3,1.45-1.68,2.1-2.68-.58-.67-1.24-1.16-2.14-1.35-.21-.04-.31-.58-.48-.88-.09-.16-.21-.42-.33-.43-.57-.05-1.16-.06-1.73-.02-.72.05-.72.07-1.33-.66.57-.6,1.16-1.21,1.74-1.81h-1.34s-.03-.1-.04-.15c1.02-.25,2.04-.49,3.05-.74.01-.08.02-.15.03-.23.11.19.21.38.3.52-.58.6-1.14,1.13-1.65,1.7-.31.35-.22.68.26.77.65.12,1.3.18,1.95.29.21.04.4.16.6.25-.14.16-.27.32-.43.46-.12.1-.26.17-.6.37,1.31.34,2.36.97,3.63.44.02.06.04.13.06.19-.81,1.25-1.62,2.49-2.44,3.75.13.15.25.29.38.46-1.04.74-2.06,1.46-3.05,2.16.18.07.41.15.8.29-.89.87-1.69,1.65-2.56,2.5.31.14.67.29,1.08.47-.6.45-1.21.88-1.78,1.35-.63.52-1.18,1.13-2.04,1.32-.23.05-.39.42-.61.68-.48.05-1.01.09-1.55.17-1.09.17-2.18.35-3.26.55-.17.03-.4.18-.44.32-.16.52-.53.54-.96.48-1.63-.22-3.26-.49-4.9-.63-.88-.08-1.77.13-2.65.09-1.45-.07-2.9-.21-4.35-.37-1.5-.17-3-.41-4.5-.64-1.45-.22-2.89-.45-4.33-.69-.11-.02-.22-.08-.31-.15-.65-.44-.86-.24-1.23.42-.32.58-.55,1.13-.59,1.77-.09,1.32-.24,2.64-.25,3.97-.02,1.9.04,3.81.12,5.71.09,2.41.19,4.81.73,7.18.18.81.39,1.62.58,2.42.12.51-.51,1.89-.97,2.12-.59.3-1.32-.09-1.58-.99-.27-.92-.47-1.87-.57-2.83-.14-1.25-.13-2.52-.22-3.77-.1-1.43-.29-2.85-.34-4.27-.05-1.72.03-3.45.03-5.17,0-.81,0-1.64-.09-2.44-.14-1.16-.38-2.31-.58-3.47-.18-1.09-.96-1.64-1.87-2.07-1.87-.89-3.72-1.85-5.63-2.64-2.11-.87-4.27-1.68-6.45-2.35-1.96-.61-4.01-.96-5.99-1.51-1.23-.34-2.41-.9-3.64-1.25-.75-.21-1.49-.37-2.2-.74-.63-.33-.69-.63-.2-1.17-.23-.15-.41-.31-.61-.39-1.61-.68-2.76-1.91-3.81-3.24-.12-.15-.02-.52.04-.77.06-.26.22-.5.31-.76.07-.21.11-.43.19-.71-.57-.84-1.22-1.8-1.88-2.76.39-.26.76-.51,1.17-.79.37.27.36.6-.22,1.3.38.53.75,1.09,1.16,1.62.44.57.49,1.18.21,1.82-.41.95-.36,1.24.45,1.82.91.65,1.83,1.28,2.75,1.91.15.1.34.22.51.22.53,0,.7.24.67.76-.02.51.64.98,1.41,1.17,1.18.29,2.35.61,3.51.96,1.7.52,3.38,1.1,5.08,1.61,1.48.44,2.98.78,4.46,1.2,1.57.45,2.99,1.27,4.46,1.96,1.35.64,2.71,1.28,4.13,1.8-.14-.09-.26-.22-.41-.28-1.52-.57-2.19-2.09-3.39-3.02-1.23-.95-2.42-1.96-3.58-3-.66-.59-1.23-1.28-1.81-1.94-.11-.13-.12-.35-.18-.53.06-.04.13-.09.19-.13.85.95,1.7,1.91,2.55,2.86l.22-.16c.04-.14.07-.28.14-.56.35.3.62.57.92.8,1.57,1.23,3.14,2.46,4.74,3.66.6.45,1.27.8,1.9,1.2.14.09.32.15.41.27.11.15.15.35.21.52-.17,0-.37.07-.5,0-.76-.43-1.5-.87-2.24-1.34-.4-.25-.76-.55-1.17-.86.19,1.09,1.13,1.33,1.84,1.79.97.63,1.12.74,1.56,1.62-.02-.77.48-.61.86-.5.39.11.78.31.49.86-.04.08-.05.21-.02.3.21.52.44,1.02.66,1.54.16-.3.69-.48.41-1.02-.02-.03.17-.18.27-.27.12.13.23.25.42.45-.21-1.1.86-1.22,1.41-1.6.54-.37,1.48-.17,2.24-.3-.83-.2-1.74.18-2.51-.42,4.47-.47,8.91-.94,13.35-1.4.01.02.02.04.03.05-1.25.31-2.5.64-3.76.93-1.28.3-2.57.58-3.86.81-1.31.23-2.63.39-4.03.76.24.18.45.48.71.53,1.41.28,2.85.75,4.25.67,2.3-.12,4.31,1.08,6.55,1.11,1.57.02,3.14.06,4.71.15,1.51.09,3,.27,4.52.41.01-.09.05-.35.1-.73,1.74-.15,3.48-.3,5.22-.45.16-1.19.16-1.18,1.38-1.14.13,0,.29-.03.4-.1.73-.43,1.54-.77,1.95-1.37-.36-.36-.85-.63-.86-.92-.03-.59.47-.76,1.05-.9.55-.13,1.03-.58,1.45-.83ZM74.42,127.85c.22-.41.43-.79.72-1.33-.4.13-.55.18-.67.22-.09-.52-.14-1.01-.27-1.48-.06-.23-.36-.41-.38-.62-.16-1.71-.26-3.42-.42-5.12-.04-.42-.24-.83-.37-1.24-.44,1.57.67,8.55,1.38,9.57ZM73.44,113.62c.06,0,.12,0,.17-.01,0-.84,0-1.69,0-2.53,0-.87.05-1.74.04-2.61,0-.81-.05-1.61-.08-2.42-.07,0-.14,0-.21,0,0,.34-.01.68,0,1.02.03.68.11,1.37.09,2.05-.02.65-.2,1.3-.2,1.94,0,.85.12,1.7.18,2.55ZM72.97,117.03v-4.7c-.46.81-.33,4.49,0,4.7ZM73.82,117.82c-.07,0-.15.01-.22.02.18,1.87.36,3.73.55,5.6.08,0,.16-.02.24-.02-.19-1.87-.38-3.73-.57-5.6Z" fill="#000" stroke-width="0"/><path d="M92.71,49.13c.65-.9.99-2.02,1.96-2.71.09-.06.09-.32.04-.46-.03-.09-.21-.16-.33-.17-.81-.1-1.17-.63-.92-1.4.26-.78.52-1.55.8-2.38-.48.14-.87.24-1.22.34.34-1.55.66-3.02.95-4.33-.66.08-1.2.12-1.74.21-.26.04-.55.3-.76.23-.48-.15-.87-.46-.64-1.09.07-.18.12-.38.2-.65-.15.08-.22.13-.3.16-.23.09-.46.17-.7.26-.06-.24-.19-.49-.15-.71.1-.52.23-1.04.45-1.52.48-1.04,1.05-2.04,1.54-3.08.07-.14-.07-.54-.19-.57-.74-.2-.75-.82-.61-1.29.36-1.22.84-2.4,1.3-3.58.13-.34.19-.53,0-.92-.25-.51-.32-1.23-.17-1.78.26-.95.74-1.85,1.05-2.9-.56.46-1.09.96-1.68,1.37-.35.25-.79.38-1.2.56-.18.08-.42.08-.53.21-.43.5-.81,1.03-1.21,1.55-.07.09-.17.19-.17.28-.01,1.4-.02,2.81,0,4.21,0,.34.09.68,0,1.03-.74-1.42-.44-2.93-.36-4.44-1.25.44-1.57.87-1.65,2.09-.02.38-.16.75-.34,1.1-.3-.68-.02-3.19.3-3.53.61.51,1.01.17,1.35-.38.54-.88,1.08-1.75,1.65-2.61.23-.35.5-.6,1.04-.4.28.1.76-.1,1.06-.3.83-.56,1.62-1.19,2.42-1.8.41-.31.78-.1,1.04.18.08.08-.12.56-.3.71-1.19.98-1.62,2.29-1.8,3.74-.01.09,0,.21.06.27.73.86.04,1.54-.26,2.29-.38.93-.72,1.89-.97,2.86-.06.22.26.61.5.82.66.57.69.75.05,1.28.29.82.04,1.36-.68,1.94-.28.23-.38.69-.54,1.05-.17.41-.32.82-.53,1.4.31-.12.42-.15.52-.2.1-.05.2-.11.42-.23.1.28.3.55.25.74-.11.43-.21.82.27,1.03.52.22,1.2-.07,1.5-.48.25-.34.59-.6,1.02-.83.14,1.74.23,3.41-.39,5.06.22-.15.45-.3.71-.48.09.65.11,1.16-.26,1.75-.3.48-.17,1.22-.24,1.98.32-.18.55-.33.81-.44.15-.07.32-.09.48-.13,0,.15.03.3.02.44-.15,1.34-.31,2.67-.47,4.04.48.11.78.15,1.06.25.1.04.21.25.2.38-.03.42-.06.85-.17,1.26-.17.67-.05,1.21.57,1.59.63.39.99-.09,1.37-.46.03-.03.09-.03.36-.11-.09.38-.15.65-.22.91-.14.58-.29,1.16-.43,1.71,1.5.38,2.18-.97,3.33-1.28.13.43.36.81.34,1.18-.06,1.2-.2,2.4-.31,3.6-.03.32-.36.75.16.88.19.05.49-.3.82-.52.48.38.04.9-.06,1.36-.01.05-.59-.03-.91-.05-1.17-.08-.76-.8-.72-1.52.06-1.22.46-2.48-.17-3.53-.83.15-1.64.32-2.46.41-.13.01-.4-.31-.45-.51-.09-.4-.07-.83-.09-1.14-.46-.11-.8-.15-1.11-.27-.69-.27-.89-.83-.69-1.59.15-.55.18-1.13.3-1.91-.94.73-1.13-.08-1.46-.36.09-.67.17-1.29.27-2.1-.72.92-1.32,1.7-1.92,2.47-.03-.02-.05-.05-.08-.07Z" fill="#000" stroke-width="0"/><path d="M110.05,87.05c-.82.5-1.52.94-2.24,1.36-.12.07-.35.1-.43.03-.09-.08-.16-.34-.1-.43.29-.45.44-.95,1.12-1.14.61-.18,1.1-.78,1.65-1.2-.04-.09-.08-.17-.13-.26-.3.02-.62.1-.91.05-.26-.05-.53-.21-.7-.41-.05-.06.17-.42.32-.6.81-.94,1.65-1.86,2.46-2.8.14-.16.19-.41.29-.66-.12,0-.19-.01-.25-.01-.35,0-.79.16-1.01,0-.43-.31.13-.58.18-.87.14-.76.69-1.19,1.14-1.71.43-.5.79-1.04,1.23-1.62-1.06.17-2,.32-2.95.48-.16.03-.36.06-.46.16-.35.36-.66.34-.93-.06-.27-.39-.15-.74.17-1.07.44-.44.84-.91,1.26-1.36-.04-.07-.09-.13-.13-.2-.38.04-.76.07-1.14.11-.77.09-1.24-.41-1.04-1.15.17-.61.38-1.21.59-1.87-.92.21-1.59-.6-1.49-1.6.09-.89.54-1.59,1-2.3.21-.33.33-.7.54-1.17q-.8.42-1.85-.73c1.23-1.31,1.7-2.95,2.05-4.72-1.03.33-1.97.64-2.92.95-.02-.05-.03-.1-.05-.14.23-.08.46-.17.88-.32-.51-.05-.82-.07-1.14-.1-.13-.02-.35-.03-.38-.11-.46-.94-1.07-.41-1.64-.17-.04.02-.09.02-.25.05-.23-.42-.47-.86-.73-1.34.19-.06.24-.09.28-.08.97.28,1.37.15,2.01-.61.14-.16.36-.24.46-.31.24.74.41,1.37.65,1.98.04.11.37.18.55.15.77-.11,1.53-.24,2.29-.41.23-.05.44-.23.65-.38.2-.14.37-.31.56-.47.07.04.14.09.22.13-.21.56-.41,1.13-.64,1.69-.31.76-.63,1.52-.99,2.26-.2.42-.45.82-.73,1.2-.26.36-.22.71.06.94.13.1.53-.03.74-.16.26-.16.45-.43.81-.56-.11.41-.23.82-.31,1.24-.06.32,0,.66-.07.97-.12.49-.34.96-.44,1.45-.11.53-.16,1.08-.21,1.63-.04.5.22.63.74.4-.12.57-.33,1.08-.29,1.57.04.49.32.97.49,1.45.43.03.82.04,1.22.08.63.07.73.32.36.83-.35.47-.69.95-1.03,1.42.06.08.11.16.17.24,1.28-.46,2.56-.93,4.05-1.47-.07.41-.07.63-.14.83-.5,1.36-1.34,2.48-2.36,3.48-.17.16-.26.4-.51.79.61-.13,1-.21,1.47-.32-.21,1.29-.93,2.21-1.57,3.17-.2.29-.43.55-.63.84-.11.16-.17.35-.25.53.19.06.38.14.57.18.13.03.27,0,.59,0-.25.46-.37.87-.63,1.15-.35.38-.76.66-.15,1.12Z" fill="#000" stroke-width="0"/><path d="M76.98,83.08c.03.34.11.7.07,1.03-.06.48-.2.96-.33,1.42-.17.59-.4,1.17-.57,1.76-.07.24-.05.5-.07.76,1.07.06,1.65-.68,2.28-1.24,1.96-1.73,3.83-3.56,5.82-5.24,1.84-1.55,3.78-2.98,5.71-4.41.88-.65,1.85-1.17,2.87-1.65-.68.5-1.29,1.14-2.04,1.48-1.4.64-2.34,1.81-3.44,2.77-2.41,2.09-4.73,4.29-7.05,6.48-.87.82-1.55,1.87-2.47,2.62-2.12,1.71-2.3,4.15-2.65,6.54-.1.65,0,1.32-.06,1.97-.03.29-.23.56-.4.95-.41-.55-.57-.93-.45-1.52.31-1.45.64-2.93.67-4.4.02-1.36.97-2.01,1.68-2.81,1.14-1.28,2.46-2.41,3.7-3.61-.07-.08-.14-.15-.22-.23-.56.51-1.11,1.03-1.69,1.51-.75.64-1.52,1.25-2.3,1.86-.08.06-.29.07-.37,0-.08-.07-.12-.25-.1-.36.36-1.88.73-3.76,1.1-5.64.1-.01.2-.03.31-.04Z" fill="#000" stroke-width="0"/><path d="M72.06,45.99c.22-.42.32-.61.43-.82.3.13.55.24.81.34.36.15.48-.04.48-.37,0-1.08,0-2.17,0-3.24.96-.04,1.35-.43,1.43-1.27.06-.63.11-1.26.19-1.88.02-.16.17-.3.26-.45.12.09.26.17.37.27.29.25.54.56.86.76.51.31.91.2,1.03-.44.14-.71.26-1.42.39-2.13.03-.16.07-.31.12-.56.22.19.39.33.72.61.34-1.25.65-2.39.99-3.64.34.25.58.5.87.61.28.11.64.16.92.08.14-.04.22-.42.25-.65.03-.28.04-.59-.05-.84-.22-.62.04-.82.64-.81.18-1.03.36-2.05.56-3.06.04-.2.22-.52.32-.52.21,0,.5.14.62.32.24.38.43.75.98.48,0,.74-.55.99-1.38.6-.55.88-.68,1.87-.68,2.88,0,.35.01.59-.37.81-.22.12-.22.58-.41.83-.61.82-1.06.95-2.19.59-.22.8-.45,1.6-.66,2.4-.02.08.06.25.04.26-.98.49-.54,1.62-1.08,2.35-.61.83-1.12,1.07-2.04.54-.21-.12-.47-.16-.7-.23-.07.26-.14.52-.22.77-.16.5-.19,1.13-.52,1.46-.77.77-.72,1.72-.72,2.62,0,.63.09,1.32-.51,1.54-.46.17-1.08-.11-1.77-.21Z" fill="#000" stroke-width="0"/><path d="M78.06,76.73c.36-1.98.73-3.97,1.07-5.95.26-1.52.55-3.04.72-4.57.1-.9.73-1.32,1.26-1.89.67-.73,1.26-1.54,1.88-2.31-.05-.04-.11-.09-.16-.13-.15.16-.36.3-.45.49-.22.43-.62.64-.95.4-.27-.2-.51-.73-.45-1.06.23-1.36.58-2.7.89-4.05.53-2.27,1.06-4.54,1.59-6.81.06-.23.17-.45.32-.66.28,1.05-.34,1.94-.48,2.91-.22,1.58-.65,3.14-.97,4.71-.25,1.22-.47,2.44-.69,3.66-.03.19.02.41.06.79.48-.43.82-.8,1.23-1.08,1.57-1.07,2.34-2.8,3.53-4.18.82-.95,1.64-1.88,2.48-2.81.12-.13.28-.23.54-.23-.32.37-.64.74-.96,1.12-.93,1.12-1.9,2.22-2.76,3.39-.9,1.21-1.66,2.51-2.54,3.72-.7.96-1.53,1.82-2.21,2.79-.31.44-.5,1.02-.61,1.56-.47,2.23-.89,4.48-1.31,6.72-.2,1.03-.36,2.07-.57,3.1-.03.17-.21.32-.32.48-.04-.04-.08-.08-.13-.12Z" fill="#000" stroke-width="0"/><path d="M99.69,84.63c-.63.36-1.23.77-1.89,1.08-1.59.77-3.22,1.45-4.8,2.24-2.53,1.26-5.07,2.52-7.53,3.9-1.35.75-2.56,1.75-3.81,2.66-.67.49-1.28,1.08-1.96,1.56-.77.55-1.63.97-2.36,1.56-.76.61-1.4,1.37-2.11,2.04-.1.1-.3.1-.45.15,0-.25-.11-.61.02-.74.46-.47,1-.87,1.54-1.32-.36-.43-.12-.74.24-1,.78-.57,1.56-1.14,2.36-1.69,1.35-.94,2.64-1.99,4.08-2.76,2.39-1.28,4.88-2.38,7.32-3.55,2.87-1.37,5.75-2.73,8.62-4.09.2-.1.42-.16.64-.24.03.06.05.12.08.18ZM83.27,92.97c-.07-.11-.15-.21-.22-.32-1.92,1.34-3.84,2.69-5.77,4.03.05.07.1.14.14.21,1.95-1.31,3.89-2.61,5.84-3.92Z" fill="#000" stroke-width="0"/><path d="M68.77,47.96c-.28.78-.69,1.53-.81,2.33-.14.93-.06,1.9-.01,2.85.04.7-.48.93-.87,1.3-.46-.28.1-1.16-.8-1.1-.03.35-.04.72-.11,1.08-.14.7-.28.74-.89.33-.08-.05-.16-.1-.26-.18-.58.6-.94.08-1.35-.27-.57-.5-1.15-.98-1.77-1.51-.2.43-.35.75-.5,1.06-.06-.02-.11-.05-.17-.07.08-.87.17-1.73.79-2.44.75.9,1.46,1.76,2.23,2.69.31-.48.51-.8.8-1.24.19.46.31.76.46,1.12.48-1.68.49-1.69,1.73-1.26.18-1.19.35-2.39.53-3.58.18-1.23.8-2.24,1.57-3.31.14.25.24.39.3.55.11.3.03.72.63.6.21-.04.48.37.75.53.62.37.92.23,1.09-.48.05-.22.1-.43.18-.74.28.56.11,1.62-.21,1.81-1.01.59-1.38.52-1.98-.23-.22-.28-.64-.39-1.07-.63-.1.29-.18.54-.26.78,0,0,.01,0,.01,0Z" fill="#000" stroke-width="0"/><path d="M63.37,64.02c-.77-1.16-4.02-9.27-4.16-11.13-.59.96-.81,1.99-.65,3.12.02.17-.2.36-.24.56-.12.48-.28.96-.28,1.44,0,.71,0,.77-.53.64-.26.26-.47.43-.64.65-.1.14-.13.33-.18.5-.22.89-.41,1.78-.66,2.66-.07.23-.32.41-.48.62-.08-.04-.16-.07-.25-.11.12-.43.16-.9.38-1.27.53-.85.45-1.76.44-2.68,0-.39.05-.77.07-1.19,1.13.26,1.04.24,1.23-.78.23-1.27.63-2.52.97-3.77.14-.52.32-1.04.54-1.54.08-.18.31-.3.48-.44.11.15.22.3.32.47.38.64.75,1.28,1.12,1.92.1.17.2.34.29.51-.17.04-.33.08-.5.12-.16.04-.32.08-.66.17,1.13,3.19,2.26,6.35,3.39,9.52Z" fill="#000" stroke-width="0"/><path d="M76.12,40.61c.07.12.2.24.19.36-.09,2.36.55,4.61.97,6.89.22,1.18.34,2.39.66,3.54.71,2.49,1.49,4.96,2.33,7.41.21.63.5,1.12-.14,1.63-.07.06-.03.31.02.45.24.74.18,1.36-.3,2.05-.31.46-.26,1.18-.36,1.78-.19,1.16-.38,2.32-.57,3.48-.02.11-.1.2-.33.28.08-.64.14-1.29.23-1.93.22-1.64.49-3.27.64-4.91.06-.69-.1-1.35.28-2.04.16-.29-.28-.89-.41-1.36-.61-2.2-1.28-4.39-1.8-6.61-.47-1.99-.8-4.02-1.12-6.04-.22-1.41-.33-2.84-.48-4.27-.02-.22.02-.45.04-.67.05-.01.1-.02.15-.04Z" fill="#000" stroke-width="0"/><path d="M71.17,58.48h.7c1.19,3.5,2.39,7.03,3.59,10.56-.07.03-.14.05-.21.08-.27-.67-.53-1.35-.8-2.02-.03,0-.06,0-.09.01.06.39.09.79.18,1.17.14.61.26,1.23.47,1.82.14.39.08.93.7,1.05.16.03.26.41.37.64.21.43.5.86.58,1.32.1.58.02,1.18.02,1.78-.06,0-.12.02-.18.03-.17-.5-.33-1-.5-1.49h-.1c.17,1.07.34,2.12.5,3.17-.12.02-.23.04-.35.06-.29-1.53-.56-3.07-.89-4.59-.34-1.54-.72-3.07-1.14-4.59-.43-1.52-.93-3.01-1.41-4.52-.48-1.5-.98-2.99-1.46-4.49Z" fill="#000" stroke-width="0"/><path d="M45.1,68.31c.23.27.4.52.63.72.14.12.36.15.55.22.06-.17.19-.35.16-.5-.21-.91-.46-1.81-.69-2.71-.07-.27-.11-.54-.19-.97.35.15.49.23.63.26.1.02.25.02.3-.05.05-.06.02-.2,0-.3-.22-.91-.53-1.81-.65-2.74-.07-.52.17-1.07.28-1.7.45.48.78.85,1.13,1.21.54.55,1.14.92,1.92,1.12.37.1.64.62,1.03,1.03-.75.28-1.35-.13-1.92-.37-.62-.25-1.16-.69-1.73-1.05-.07.02-.15.05-.22.07.17.68.31,1.37.53,2.03.17.49.53.94-.16,1.33-.09.05-.03.37-.01.57.08.86.27,1.72.22,2.57-.06.91-.26.98-1.23.95.06.19.13.35.17.52.05.16.08.32.14.61-.88-.79-1.28-2.06-.89-2.83Z" fill="#000" stroke-width="0"/><path d="M83.66,48.7c-.12.29-.23.58-.35.86-.07,0-.14,0-.22,0-.02-.24-.09-.49-.04-.7.58-2.31,1.18-4.62,1.78-6.93.1-.39.15-.79.25-1.18.05-.21.14-.4.33-.57.14,1.72-.71,3.3-.74,4.98.06.02.12.03.19.05.37-1.62.74-3.25,1.11-4.87.08.01.15.03.23.04-.1.62-.22,1.24-.31,1.86-.14.98-.26,1.97-.42,2.95-.04.24-.16.46-.28.79,1-.13,1.76-.41,2.36-1.14.68-.83,1.43-1.61,2.15-2.41.06.06.12.11.19.17-1.59,1.75-3.18,3.5-4.8,5.28-.64-1.03.43-.91.63-1.28-.36-.03-.8.06-1.06-.12-.21-.14-.18-.61-.26-.9-.24.14-.84,2.37-.75,3.15,0,0,.02-.03.02-.03Z" fill="#000" stroke-width="0"/><path d="M87.44,69.49c-.19-.09-.32-.16-.45-.22,0-.09-.01-.15.01-.17.4-.4.65-1.05,1.41-.83.04.01.17-.07.16-.11-.06-.83.7-1.09,1.11-1.59.8-.98,1.67-1.91,2.52-2.86.14-.15.32-.27.6-.32-.16.26-.27.55-.48.77-.76.83-1.61,1.59-2.32,2.46-.85,1.03-1.54,2.2-2.43,3.19-1.51,1.68-3.15,3.26-4.71,4.9-1.09,1.14-2.23,2.24-3.18,3.48-1,1.3-1.8,2.76-2.66,4.12-.55-.86.25-1.58.59-2.33.27-.59.8-1.07,1.26-1.56,1.39-1.45,2.8-2.89,4.22-4.32,1.3-1.31,2.62-2.59,3.91-3.9.19-.19.28-.47.42-.72Z" fill="#000" stroke-width="0"/><path d="M42.71,75.96c.05.28.11.56.16.83-.28.02-.56.08-.84.05-.2-.02-.4-.14-.59-.23-.19-.09-.36-.19-.67-.36,0,.38.02.65,0,.91-.07.68-.6.94-1.21.65-.46-.22-.96-.37-1.66-.62.45.98.83,1.83,1.23,2.65.24.48.54.94.79,1.42.08.16.15.44.07.53-.63.69-.13,1.21.24,1.75.16.23.34.45.51.68-.07.06-.14.12-.14.11-.59-.66-1.23-1.29-1.74-2.01-.13-.18.18-.65.21-.99.02-.24-.07-.5-.18-.73-.29-.64-.65-1.25-.91-1.9-.34-.85-.62-1.72-.9-2.59-.05-.17.02-.38.05-.69.25.19.43.27.48.39.35.87,1.19.96,1.92,1.2.13.04.41-.21.53-.39.2-.29.31-.9.47-.91.46-.02.93.22,1.4.33.18.04.38.03.57.05.07-.05.14-.1.21-.14Z" fill="#000" stroke-width="0"/><path d="M86.67,39.28h-1.17c-.19-1.33-.83-2.69-.4-4.21.23,1.12.45,2.25.72,3.59,2.12-5.4,3.65-10.84,6.33-15.81-2.56,5.25-3.93,10.89-5.48,16.43ZM88.11,33.51c-.05-.03-.1-.07-.16-.1-.36,1.08-.72,2.17-1.08,3.25.08.02.16.05.24.07.33-1.08.66-2.15.99-3.23Z" fill="#000" stroke-width="0"/><path d="M73.02,97.61c-.26.15-.44.25-.6.34.03.29.06.58.09.86l-.22.11c-.2-.28-.43-.55-.6-.86-.71-1.27-1.36-2.59-2.12-3.83-.98-1.6-1.99-3.19-3.08-4.72-.97-1.36-2.07-2.64-3.1-3.96-.17-.22-.32-.45-.41-.72,3.67,3.98,6.54,8.6,10.05,12.77Z" fill="#000" stroke-width="0"/><path d="M74.05,88.31c-.3.88.38,1.68-.29,2.64-.9-4.52-2.64-8.56-4.43-12.58.08-.03.15-.07.23-.1.32.63.6,1.28.98,1.87.92,1.43,1.32,3.09,2,4.62.42.94,1.04,1.81,1.63,2.66.31.45.38.73-.12.89Z" fill="#000" stroke-width="0"/><path d="M40.36,79.31c.99,1.02,1.98,2.05,2.98,3.06,2.21,2.21,4.64,4.16,7.23,5.88,1.7,1.12,3.58,1.97,5.36,2.96.25.14.4.45.48.74-.74-.46-1.46-.96-2.23-1.37-1.16-.62-2.39-1.13-3.52-1.79-.93-.54-1.81-1.2-2.65-1.88-1.47-1.2-2.94-2.41-4.31-3.72-1.23-1.18-2.34-2.49-3.5-3.75.05-.04.1-.09.15-.13Z" fill="#000" stroke-width="0"/><path d="M80.76,36.61c.66,4.19,1.31,8.37,1.97,12.56-.05.04-.1.07-.14.11-.17-.21-.51-.45-.48-.62.21-1.26-.72-2.25-.75-3.46-.02-1.13-.17-2.26-.3-3.38-.16-1.38-.35-2.76-.51-4.14-.04-.36,0-.72,0-1.08.07,0,.15.02.22.02Z" fill="#000" stroke-width="0"/><path d="M57.23,78.23c-3.6-4.26-7.39-8.41-9.21-13.88,2.31,5.13,5.88,9.42,9.21,13.88Z" fill="#000" stroke-width="0"/><path d="M90.66,100.83c4.47-1.16,8.92-2.32,13.48-3.51-.5.86-11.29,3.58-13.48,3.51Z" fill="#000" stroke-width="0"/><path d="M50.48,62.97c.34.38.64.72,1.09,1.23v-1.21c.06-.04.13-.07.19-.11.46.51.92,1.03,1.5,1.67.07-.9.12-1.6.19-2.3,0-.09.11-.25.18-.25.14-.02.31.02.44.09.28.14.56.28.8.47.12.09.26.32.22.42-.05.14-.29.34-.4.32-.64-.14-.6.21-.72.68-.11.45-.59.81-.9,1.19-.36-.4-.63-.68-.95-1.03-.41.75-.83.6-1.28.27-.61-.45-.71-.81-.36-1.44Z" fill="#000" stroke-width="0"/><path d="M45.05,71.33c.3.15.54.27.84.42.1-.22.21-.44.32-.67.6.43.36.85.05,1.32-.28-.1-.56-.2-.88-.31.01.21-.02.4.03.57.33,1.15-.4,1.96-.97,2.78-.13.19-.63.12-1.07.18-.08.06-.27.2-.46.33-.11-.24-.29-.48-.32-.73-.05-.39-.01-.8.15-1.32.18.2.39.37.52.6.27.43.4.6.95.18.49-.38.4-.69.42-1.16.03-.71.26-1.42.41-2.2Z" fill="#000" stroke-width="0"/><path d="M74.84,87.65c-.15-.3-.3-.47-.31-.65-.08-1.37.19-2.68.53-4,.41-1.55.7-3.12,1.05-4.69.04-.17.11-.33.33-.44-.52,3.19-1.05,6.37-1.61,9.78Z" fill="#000" stroke-width="0"/><path d="M80.82,58.25c.19-1.03.35-2.06.57-3.08.23-1.08.56-2.14.75-3.22.1-.58.01-1.2.02-1.8,0-.17.06-.35.26-.56.09.19.26.38.25.57,0,.81.05,1.64-.13,2.41-.44,1.92-.99,3.81-1.49,5.71-.08-.01-.16-.02-.24-.03Z" fill="#000" stroke-width="0"/><path d="M93.65,74.67c2.36-1.95,4.73-3.91,7.14-5.91-.27.89-.28.88-1.68,1.95-1.62,1.23-3.22,2.48-4.83,3.72-.18.14-.38.23-.58.35-.02-.04-.04-.07-.06-.11Z" fill="#000" stroke-width="0"/><path d="M100.3,84.18c2.33-1.3,4.27-3.24,7-3.88-2.28,1.37-4.55,2.74-6.83,4.1-.06-.08-.11-.15-.17-.23Z" fill="#000" stroke-width="0"/><path d="M107.29,62.79c.46.73-.23,1-.5,1.24-1.3,1.18-2.67,2.27-4.03,3.38-.08.06-.18.1-.27.15.06.06.13.11.19.17,1.52-1.63,3.03-3.26,4.6-4.95Z" fill="#000" stroke-width="0"/><path d="M104.61,97.86c.39-.86,1.05-1.01,1.62-1.21,1.44-.51,2.91-.95,4.36-1.44.31-.1.57-.32.94-.54.05.03.2.12.46.28-.21.15-.34.31-.51.36-1.65.54-3.32,1.03-4.96,1.59-.44.15-.82.46-1.23.68-.16.09-.33.14-.67.27Z" fill="#000" stroke-width="0"/><path d="M68.76,47.96c.49,1.83,1,3.66,1.47,5.5.2.79.32,1.6.48,2.4-.06.02-.12.03-.17.05-.17-.6-.34-1.2-.5-1.81-.46-1.78-.91-3.56-1.34-5.34-.06-.25.04-.53.07-.8,0,0-.01,0-.01,0Z" fill="#000" stroke-width="0"/><path d="M73.95,91.92c.04.17.12.34.11.51-.12,1.41-.25,2.81-.4,4.22-.02.19-.11.39-.22.55-.03.04-.32,0-.36-.08-.11-.19-.28-.54-.2-.61.88-.88.32-2.04.62-3.02.15-.51.2-1.04.3-1.56.05,0,.1,0,.16,0Z" fill="#000" stroke-width="0"/><path d="M98.92,56.43c-1.47,1.71-2.94,3.42-4.42,5.13-.07-.06-.14-.12-.21-.18,1.47-1.72,2.93-3.44,4.4-5.16.07.07.15.14.22.21Z" fill="#000" stroke-width="0"/><path d="M83.64,48.73c.27-.34.54-.68.85-1.06.39.54.28.87-.26,1.07.55.71.45,1.01-.57,1.34,0-.5,0-.94,0-1.38,0,0-.02.03-.02.03Z" fill="#000" stroke-width="0"/><path d="M78.58,69.09c-.13.78-.28,1.55-.38,2.34-.05.36.03.75-.05,1.1-.06.28-.27.54-.42.8-.11-.08-.32-.16-.31-.23.02-.33,0-.75.18-.95.66-.73.34-1.65.61-2.45.07-.21.12-.43.18-.64.06.01.13.02.19.04Z" fill="#000" stroke-width="0"/><path d="M82.41,73.78c1.2-1.25,2.41-2.5,3.61-3.75.07.07.14.13.2.2-1.2,1.25-2.39,2.51-3.59,3.76l-.22-.21Z" fill="#000" stroke-width="0"/><path d="M56.94,91.73c1.03.42,1.83,1.19,2.71,1.83-.05.07-.1.15-.15.22-.91-.61-1.81-1.21-2.72-1.82.05-.08.1-.15.15-.23Z" fill="#000" stroke-width="0"/><path d="M92.78,49.2c-.87,1.28-1.74,2.57-2.62,3.85-.08-.05-.15-.11-.23-.16.92-1.25,1.84-2.51,2.76-3.76.03.02.05.05.08.07Z" fill="#000" stroke-width="0"/><path d="M63.82,65.2c.57,1.53,1.14,3.07,1.71,4.6-.05.02-.1.04-.15.06-.59-1.52-1.18-3.03-1.76-4.55.07-.04.14-.07.2-.11Z" fill="#000" stroke-width="0"/><path d="M66.58,71.96c.47.96.94,1.93,1.41,2.89-.06.03-.13.07-.19.1-.51-.94-1.03-1.89-1.54-2.83.11-.05.21-.1.32-.16Z" fill="#000" stroke-width="0"/><path d="M107.57,79.63c1.17-.78,2.34-1.57,3.51-2.35.05.07.1.14.14.21-1.18.77-2.35,1.54-3.53,2.31-.04-.06-.08-.12-.12-.18Z" fill="#000" stroke-width="0"/><path d="M89.62,36.76l-1.71,1.95-.17-.15c.27-.92,1.13-1.31,1.7-1.96.06.05.12.11.18.16Z" fill="#000" stroke-width="0"/><path d="M84.92,33.61c-.38-1-.61-2.01-.18-3.07.06,1.02.12,2.05.18,3.07Z" fill="#000" stroke-width="0"/><path d="M90.2,42.44c.63-.7,1.26-1.4,1.88-2.1.06.05.12.11.19.16-.62.72-1.24,1.43-1.87,2.15-.07-.07-.14-.14-.2-.21Z" fill="#000" stroke-width="0"/><path d="M74.77,100.73c.14.16.3.29.36.45.09.24.12.5.18.75-.22-.06-.53-.04-.65-.19-.13-.16-.1-.46-.1-.7,0-.09.12-.18.21-.31Z" fill="#000" stroke-width="0"/><path d="M78.15,77.86c.49-.61.98-1.21,1.47-1.82.07.06.14.12.22.18-.49.61-.98,1.22-1.47,1.83-.07-.07-.14-.13-.22-.2Z" fill="#000" stroke-width="0"/><path d="M61.14,82.81c-.74-.9-1.47-1.8-2.21-2.71.05-.04.09-.08.14-.12.74.9,1.47,1.79,2.21,2.69-.05.04-.09.09-.14.13Z" fill="#000" stroke-width="0"/><path d="M68.94,77.51l-.65-1.5c.06-.03.12-.06.18-.09.25.48.51.96.76,1.44-.1.05-.2.1-.3.15Z" fill="#000" stroke-width="0"/></svg>