<?xml version="1.0" encoding="UTF-8"?><svg id="Layer_1" xmlns="http://www.w3.org/2000/svg" viewBox="0 0 144.57 144.57"><path d="M69.23,91.19c-.16-.19-.31-.38-.47-.57-.28-.32-.61-.51-1.05-.52-.39-.02-.64.16-.85.46-.54.78-1.43,1.38-2.14,1.45v-.48c-.43.16-.81.33-1.21.46-.42.13-.56.04-.62-.32-.42.13-.84.27-1.27.38-.18.04-.4.03-.58,0-.1-.02-.16-.17-.28-.29-.53-.11-1.15-.24-1.76-.38,0,0,.02-.16.03-.26-.43-.14-.88-.27-1.33-.42-.25-.09-.46-.22-.16-.51-.37-.15-.73-.26-1.07-.43-.15-.07-.24-.25-.35-.39.13-.09.26-.21.4-.26.34-.12.69-.21,1.13-.34-.2-.12-.33-.19-.57-.33.37-.21.68-.37.99-.55-.05-.08-.1-.18-.18-.32.72-.29,1.43.08,2.13-.03-.03-.15-.06-.28-.1-.5.54.06,1.02.12,1.5.16.16.01.33-.07.5-.06.4,0,.8.02,1.2.06.62.07,1.24.17,1.86.25,0-.05.01-.11.02-.16-.14,0-.28,0-.43,0-1.04-.02-2-.3-2.87-.86-.1-.07-.14-.24-.2-.36.04-.03.07-.05.11-.08-.55-.31-1.11-.62-1.79-1,.17-.08.3-.15.54-.26-.77-.39-1.42-.73-2.14-1.09.21-.14.35-.23.55-.37-.76-.58-1.49-1.14-2.27-1.74.15-.08.3-.16.49-.27-.23-.26-.46-.52-.68-.78-.16-.19-.33-.38-.48-.57-.18-.22-.35-.44.21-.52-.27-.35-.5-.63-.71-.93-.1-.14-.37-.28-.09-.52.03-.03-.06-.23-.11-.34-.16-.36-.34-.71-.5-1.07-.05-.13-.07-.27-.12-.52.62.28,1.15.52,1.67.76.03-.03.06-.07.09-.1-.04-.22-.08-.44-.12-.67.03-.02.05-.04.08-.06.16.12.31.23.55.41-.08-.3-.13-.53-.2-.76-.08-.26-.2-.51-.26-.78-.04-.18-.23-.43.14-.54.04-.01.03-.31,0-.47-.11-.54-.23-1.08-.36-1.65.11-.02.19-.03.29-.04-.1-.76-.19-1.53-.29-2.29.03-.01.07-.02.1-.04.08.06.16.11.29.2.03-.56.05-1.09.08-1.67.45.06.58.41.74.7.17.31.28.64.44,1,.09-.17.16-.3.29-.56.27.41.51.75.72,1.1.1.17.15.32.38.43.17.08.23.44.32.68.11.32.18.65.3,1.09.09-.17.13-.25.19-.33.06-.09.12-.17.19-.26.07.09.18.17.2.27.13.61.24,1.22.34,1.83.05.26.17.45.46.59,0-.47-.02-.88,0-1.28.01-.15.12-.3.19-.45.12.1.25.19.41.31.14-.49.29-1.01.43-1.53.05,0,.1.01.15.02.04.15.09.29.13.44.14.45.12.92.43,1.35.22.31.19.81.26,1.22.07.4.09.81.17,1.22.04.24.16.43.33.64.23.29.29.75.36,1.14.1.53.15,1.07.23,1.69.16-.17.24-.26.36-.38.67.71.23,1.6.43,2.39.12-.07.23-.13.45-.27,0,.35.01.62,0,.89-.08,1.39.08,2.74.49,4.07.1.31.3.59.46.88.04-.01.08-.02.12-.03-.06-.75-.12-1.5-.19-2.25.03,0,.05-.02.08-.03.05.06.1.11.17.19.15-.61-.19-1.29.36-1.86.11.24.21.45.34.73.36-.8.69-1.54,1.06-2.35.1.16.16.27.26.44.21-.37.4-.7.58-1.04.16-.31.24-.64.68-.75.22-.06.38-.37.55-.58.05-.06.06-.16.09-.25.05.04.09.08.14.11v1.22c.12-.1.22-.17.31-.24.04.01.07.02.11.03-.12.67-.23,1.35-.35,2.03.05-.04.12-.09.23-.17.14.97-.24,1.73-.7,2.38.08.14.19.25.17.32-.09.32-.23.63-.33.95-.07.22-.05.46-.14.67-.19.47-.4.93-.63,1.37-.09.18-.26.33-.41.47-.67.61-.72.97-.03,1.77.73.83,1.56,1.56,2.34,2.35.8.81,1.59,1.64,2.1,2.68.03.05.09.09.16.14,0-.82-.29-1.52-.73-2.18-.09-.14-.16-.3-.24-.45-.12-.24-.2-.45.24-.36-.07-.34-.18-.65-.18-.96.02-.9.09-1.79.14-2.71.09,0,.18.01.29.02.01-.04.02-.07.03-.11.08-.57.17-1.15.24-1.72.03-.27.15-.24.33-.12.13-.4.25-.78.39-1.16.03-.08.08-.17.13-.24.18-.22.34-.27.47.14.31-.55.61-1.11.92-1.66.04.01.08.03.11.04.04.1.07.2.13.35.7-.49.71-1.39,1.31-1.94.04.16.06.28.11.48.61-.62.78-1.4,1.1-2.09.05,0,.09,0,.14.01.04.35.09.7.11,1.05.02.35,0,.71,0,1.16.18-.17.31-.29.45-.43.05.43.09.84.14,1.25.04,0,.08,0,.12,0,.15-1.08.33-2.16.42-3.24.1-1.19.07-2.4-.65-3.43-.33-.46-.8-.82-1.2-1.24-.52-.55-1.04-1.1-1.54-1.67-.16-.18-.26-.41-.36-.58-.23.65-.46,1.32-.72,1.98-.05.12-.21.19-.32.28-.06.05-.12.1-.15.16-.23.39-.46.78-.73,1.24-.14-.2-.21-.3-.28-.4-.63.74-1.3,1.47-2.25,2.04.02-.28.03-.45.05-.69-.38.14-.72.27-1.1.42v-.62c-.62.2-1.23.4-1.83.6-.02-.04-.04-.07-.06-.11.1-.23.19-.47.31-.76h-.83c.11-.22.19-.37.29-.59h-1.9c.13-.25.21-.43.3-.59-.77-.19-1.53-.37-2.28-.55,0-.06-.02-.11-.03-.17.4-.29.81-.59,1.1-.8.03-.22,0-.38.07-.43.41-.33.84-.62,1.19-.98.07-.13.1-.31.21-.37.54-.29,1.11-.54,1.66-.81-.2-.48.02-.75.74-.89.14-.03.29-.05.43-.08.17-.04.41.03.44-.27,0-.05.18-.12.27-.12.45.04.92.07,1.35.18.87.22,1.72.49,2.63.68-.27-.36-.53-.75-.83-1.08-.46-.51-1.05-.29-1.6-.21-1.05.17-2.09.23-3.05-.31-.23-.13-.66-.18-.53-.66.02-.06-.19-.19-.29-.29-.63-.61-1.26-1.23-1.95-1.9.22-.09.31-.12.41-.16-.02-.04-.02-.08-.04-.11-.26-.45-.53-.9-.77-1.36-.23-.45-.22-.45.24-.51-.29-.67-.59-1.34-.88-2.01.04-.03.08-.06.12-.09.24.11.49.22.79.36-.09-.24-.16-.41-.26-.68.24.08.4.14.56.19-.11-.78-.22-1.57-.34-2.39.18,0,.28-.01.38-.02-.08-.6-.16-1.18-.24-1.8.21,0,.35.02.53.03-.09-.85-.18-1.69-.27-2.54.04-.02.08-.04.12-.06.48.53.96,1.06,1.48,1.63.05-.16.09-.28.15-.49.54.35,1.05.68,1.58,1.04.02-.18.03-.35.05-.62.83.6,1.43,1.33,2.08,2.12.02-.29.03-.51.04-.74.42.13,1.03.92,1.63,2.09.07-.13.11-.23.16-.32.05-.09.11-.16.17-.25.08.07.2.13.24.23.23.6.44,1.2.67,1.8.05.12-.04.4.28.3.02,0,.13.2.15.32.09.57.17,1.15.26,1.75.15-.04.27-.07.51-.14-.24.86-.47,1.63-.69,2.43.07.03.18.07.38.16-.22.4-.44.78-.65,1.16-.13.23-.27.45-.39.68-.23.44-.23.88-.01,1.33.03.05.02.12.04.22-.4-.41-.47-1.09-.16-1.64.23-.41.5-.8.74-1.21.07-.12.11-.26.18-.42-.15-.03-.25-.06-.38-.09.25-.76.49-1.51.76-2.36-.2.07-.29.1-.43.15-.12-.58-.23-1.14-.35-1.72-.35.25-.37.04-.38-.22-.04-.8-.31-1.53-.69-2.28-.15.21-.27.37-.4.55-.43-.7-.85-1.37-1.26-2.04-.04.01-.07.03-.11.04v.75s-.06.04-.1.06c-.09-.08-.2-.15-.28-.24-.55-.64-1.1-1.29-1.65-1.94-.03.02-.06.04-.09.06.01.17.02.34.04.65-.62-.45-1.15-.83-1.72-1.24-.07.21-.12.36-.2.61-.5-.53-.96-1.01-1.49-1.57.1.86.18,1.63.28,2.51-.19-.09-.35-.15-.58-.26.11.64.21,1.24.32,1.88h-.47c.15.84.3,1.65.46,2.54-.15-.05-.26-.09-.41-.15.01.17.03.32.05.57-.28-.13-.5-.23-.73-.34-.03.02-.06.04-.1.06.29.6.59,1.21.9,1.86-.16.01-.3.03-.54.05.26.46.5.89.75,1.31.09.16.22.29.33.44.15.21.11.33-.31.36.68.61,1.28,1.13,1.86,1.68.11.11.54.17.17.51.8.54,1.67.71,2.6.59.44-.06.89-.12,1.33-.19.54-.09.96.12,1.29.52.33.4.68.79.77,1.44-.75-.22-1.42-.52-2.12-.59-.7-.08-1.28-.72-2.06-.35.01.05.04.14.06.21-.63.13-1.26.26-1.98.4.17.25.27.39.38.54-.63.29-1.23.56-1.83.83.09.1.14.17.21.25-.52.32-1.01.63-1.56.97.29.1.42.2.13.39-.39.25-.77.53-1.21.83.75.41,1.54.38,2.34.53-.11.18-.2.35-.35.6h1.96c-.14.25-.23.39-.31.53q.67.11.48.86c.62-.25,1.18-.47,1.76-.7v.66c.37-.14.7-.26,1.08-.4v.52s.07.05.11.07c.64-.66,1.27-1.33,1.93-2.01.07.1.14.2.28.39.24-.52.45-.98.67-1.46.28.2.38-.03.45-.25.21-.7.4-1.41.6-2.14.04.05.11.11.15.19.58,1.17,1.46,2.07,2.48,2.86.83.64,1.3,1.48,1.44,2.52.15,1.06.12,2.11-.08,3.16-.18.93-.4,1.85-.59,2.78-.04.19-.02.39-.03.57.64-.12.57-.66.71-1.07.03-.1.1-.18.15-.27,0,0,0,0,0,0-.12.85-.23,1.7-.35,2.54.05,0,.09-.01.14-.02.06.14.16.28.16.41,0,.43-.04.86-.07,1.31.22-.11.29-.45.62-.26.05.03.28-.23.41-.38.11-.13.2-.29.3-.43.04.01.07.03.11.04-.21.68-.43,1.37-.65,2.08.19-.01.32-.02.51-.03-.09.76-.55,1.26-.94,1.81-.03-.02-.07-.03-.1-.05.27-.48.53-.96.83-1.51-.2.01-.33.02-.57.04.18-.55.34-1.05.49-1.52-.22.07-.5.1-.72.23-.21.13-.37.35-.55.54-.03-.03-.06-.06-.09-.09.08-.53.17-1.06.26-1.61-.48.13-.52.11-.5-.31.02-.4.06-.79.1-1.21-.37.03-.44-.16-.43-.48.02-.62,0-1.25,0-1.87-.04,0-.09-.01-.13-.02-.09.08-.18.17-.38.35-.05-.73-.09-1.35-.13-1.99-.35.61-.69,1.19-1.07,1.84-.14-.2-.21-.29-.29-.39-.03.03-.05.05-.07.08-.25.47-.46.96-.75,1.41-.22.34-.42.32-.64.04-.14.29-.26.58-.42.86-.14.26-.32.49-.53.8-.11-.17-.17-.27-.23-.37-.03.02-.07.03-.08.06-.15.43-.28.87-.45,1.3-.04.1-.17.17-.25.27-.06.07-.14.15-.15.23-.07.51-.11,1.02-.19,1.53-.02.11-.14.2-.22.3-.04-.02-.09-.03-.13-.05.03.43.08.87.08,1.3,0,.22.13.46-.15.67-.1.08.05.49.09.75.06.31.25.61-.02.93-.04.04.06.21.12.31.32.54.63,1.09.65,1.75,0,.35-.03.71-.05,1.06-.05,0-.1,0-.15,0-.07-.22-.11-.45-.21-.65-.54-1.05-1.32-1.92-2.16-2.73-.54-.52-1.11-1.01-1.66-1.51-.04.01-.08.03-.12.04ZM56.36,70.2c0,.08,0,.14,0,.19.07.55.15,1.1.21,1.65.02.18.02.52,0,.52-.44.06-.15.31-.12.46.09.51.2,1.02.31,1.59-.19-.06-.28-.09-.39-.12.1.76.67,1.36.58,2.13-.06.05-.12.09-.18.14-.1-.2-.19-.4-.29-.6l-.13.09v.7c-.59-.26-1.11-.48-1.64-.71.01.06.01.14.05.21.2.43.42.85.62,1.28.05.11.12.33.1.34-.32.17-.03.28.04.38.25.37.53.72.84,1.15-.23.03-.34.04-.51.06.52.61,1,1.18,1.53,1.81-.26.04-.42.07-.55.09.77.61,1.53,1.21,2.35,1.85-.24.07-.42.12-.62.19.64.46,1.46.56,1.98,1.17-.09.1-.16.18-.24.27.59.32,1.15.63,1.71.93-.08.1-.15.18-.27.32,1.05.49,2.06.91,3.21.8.24-.02.48,0,.72,0,.01.05.02.09.03.14-.07.05-.14.12-.22.16-.73.33-1.47.23-2.22.06-.37-.08-.75-.14-1.13-.21,0,.03,0,.06,0,.09.07.07.13.15.27.3-.79-.15-1.48-.27-2.24-.42.13.22.2.34.34.59-.83-.06-1.54-.11-2.28-.17.09.13.15.23.22.34-.32.14-.61.27-.95.41.18.12.31.21.44.3,0,.04.01.09.02.13-.52.19-1.03.38-1.55.57v.1c.5.21,1.01.42,1.52.63-.1.15-.16.24-.26.39.67.16,1.28.31,1.93.47-.1.12-.18.2-.35.39.55.03,1.02.07,1.48.07.32,0,.61-.02.41.45.82.05,1.47-.53,2.34-.55-.14.24-.22.39-.31.53.02.03.04.07.06.1.63-.3,1.26-.6,1.95-.93-.11.28-.19.48-.27.67.04.03.07.07.11.1.38-.27.78-.51,1.12-.82.35-.32.65-.71,1.01-1.12-.26-.1-.51-.19-.75-.3-.93-.41-1.71-.26-2.32.59-.13.18-.3.33-.47.48-.16.13-.35.24-.53.35.04.03.09.07.13.1.43-.55.86-1.1,1.34-1.71-2.12.38-4.19.8-6.27.2,1.6.14,3.2.14,4.83-.33-.5-.38-.99-.76-1.53-1.16.11.04.2.05.26.09.38.25.78.49,1.13.78.3.25.58.37.99.26,1.07-.27,2.11-.24,3.08.4.24.16.57.17.95.28-.63-.8-1.2-1.5-1.75-2.22-.34-.44-.65-.92-1.01-1.35-.77-.93-1.58-1.83-2.36-2.75-.28-.34-.48-.73-.92-.93-2.02-.9-3.82-2.14-5.29-3.81-.13-.15-.25-.31-.37-.46.91.76,1.74,1.59,2.67,2.29.93.71,1.97,1.29,3.11,1.79-.03-.13-.03-.17-.05-.2-.88-1.43-1.57-2.96-2.15-4.53-.27-.73-.6-1.4-1.27-1.85-.14-.09-.26-.22-.39-.33.03-.03.06-.06.09-.09.29.23.57.47.95.78-.79-2.29-1.54-4.46-2.29-6.64.03-.01.07-.02.1-.04,1.55,4.04,2.75,8.23,4.9,12.01.43-2.71.17-5.42.11-8.12.06.07.08.15.09.22.09,1.24.23,2.48.24,3.72.02,1.15-.11,2.3-.15,3.45-.02.53-.1,1.1.24,1.56.84,1.14,1.7,2.25,2.55,3.38.13.17.26.34.39.5.12.15.26.29.39.43-.62-1.62-.53-3.29-.55-5-.13.15-.2.24-.31.36-.39-.84.02-1.74-.41-2.53-.11.13-.19.24-.31.38-.57-.92-.3-1.98-.68-2.89-.13.1-.22.18-.32.26-.17-1.12-.33-2.18-.47-3.09-.54-.54-.31-1.19-.66-1.67-.08.47-.17.94-.27,1.51-.21-.27-.34-.43-.5-.63-.04.11-.09.18-.1.25,0,.33.02.66,0,.99,0,.13-.08.26-.12.39-.15-.07-.35-.11-.42-.23-.14-.24-.24-.52-.31-.8-.11-.49-.18-.99-.29-1.56-.09.27-.15.46-.22.64-.04,0-.07,0-.11.01-.12-.21-.25-.41-.34-.64-.11-.28-.13-.79-.27-.83-.45-.11-.34-.48-.49-.72-.2-.34-.38-.7-.6-1.11-.09.3-.15.48-.21.67-.04,0-.08,0-.12,0-.3-.62-.61-1.24-.91-1.86-.05.01-.11.03-.16.04,0,.43,0,.86,0,1.3,0,.23-.05.39-.35.28ZM70.44,79.9c-.48.53-1.04.83-1.27,1.48-.11.31-.37.74-.63.79-.38.09-.44.31-.55.56-.14.32-.26.66-.43.97-.07.14-.22.24-.34.35-.07-.11-.14-.22-.21-.34-.04-.06-.06-.13-.1-.24-.04.08-.06.11-.07.14-.09.74-.17,1.48-.26,2.22-.07.62.29,1.22,0,1.86-.05.12.31.43.52.69.09-.51.13-.92.23-1.31.13-.51.26-1.01,0-1.51,0-.01.02-.04.04-.07.08.16.16.31.26.5.19-.47.35-.9.53-1.32.18-.43.39-.86.58-1.29.19-.42.38-.84.58-1.25.2-.41.42-.8.63-1.21.04.02.07.04.11.06-.69,1.72-1.63,3.35-2.18,5.23.91-.61,1.43-1.44,2.06-2.29-.01.15,0,.19-.02.22-.5.86-1.16,1.59-1.92,2.23-.13.11-.26.26-.3.42-.15.53-.26,1.07-.37,1.61-.02.1-.03.24.02.3.28.35.58.69.9,1.07q.09-.9.71-1.58c.07-.08.15-.15.21-.24.28-.4.66-.75.55-1.33-.03-.17.08-.38.15-.56.11-.26.24-.51.36-.77h-.14c-.04-.06-.13-.14-.12-.18.1-.28.21-.56.36-.82.25-.45.5-.9.48-1.51-.13.15-.22.25-.3.35-.04-.01-.07-.03-.11-.04.14-.72.28-1.44.42-2.18-.16.05-.25.08-.36.11v-1.12Z"/><path d="M83.79,43.73c.45.46.91.92,1.36,1.38.04.04.07.1.19.25.01-.26.03-.4.03-.55-.04-1.65-.09-3.31-.14-4.96-.02-.71-.45-1.22-.85-1.74-.13-.17-.26-.34-.39-.5.03-.03.07-.05.1-.08.36.46.71.92,1.12,1.46-.19-3.24-1.02-6.31-1.46-9.43.04,0,.07-.01.11-.02.38,1.88.76,3.75,1.15,5.7.13-.3.24-.55.36-.81.03,0,.05.02.08.03-.08.23-.16.46-.24.69-.22.6,0,1.2.03,1.8.07,1.36.16,2.72.24,4.07.05.81.12,1.63.17,2.44.01.2-.07.41-.06.62.03,1.73.08,3.47.12,5.2,0,.14.03.28.05.51.16-.18.25-.29.35-.4.02.04.04.07.03.08-.38.46-.39,1-.37,1.57.03.6,0,1.21,0,1.83.47-.26,2.31-2.56,3.47-4.33h-.52c.47-.87.92-1.72,1.38-2.56-.03-.03-.07-.05-.1-.08-.19.09-.38.17-.67.3.38-1.12.73-2.15.63-3.3-.17.11-.3.2-.51.34.11-1.02.21-1.97.32-2.91-.03-.01-.07-.02-.1-.04-.16.13-.32.26-.52.43-.06-.97-.12-1.86-.18-2.74-.04,0-.08,0-.12,0-.17.17-.34.35-.55.57-.11-.97-.21-1.88-.32-2.84-.28.2-.46.32-.69.48-.12-.87-.22-1.65-.34-2.53-.15.27-.25.44-.34.61h-.1c-.12-.89-.23-1.79-.35-2.68-.03,0-.06-.01-.09-.02-.11.21-.23.42-.34.62-.03,0-.07,0-.1,0-.18-.82-.35-1.64-.53-2.45-.03,0-.06,0-.09.01-.13.27-.27.53-.4.8-.05,0-.09,0-.14,0-.2-.83-.41-1.67-.61-2.5.03,0,.06-.02.09-.03.19.65.38,1.3.6,2.06.19-.31.33-.55.47-.79h.12c.19.76.39,1.53.59,2.36.12-.21.23-.4.34-.58.05,0,.1,0,.15,0,.14.8.29,1.61.44,2.43.07-.1.14-.21.28-.4.34.89.35,1.78.51,2.75.17-.24.28-.38.44-.6.41.91.5,1.83.54,2.89.21-.3.36-.51.5-.72.05,0,.09,0,.14,0,.09.91.19,1.81.29,2.77.19-.15.34-.27.49-.39.05.02.09.04.14.05-.09.95-.18,1.9-.27,2.88.16-.09.28-.16.45-.26.12,1.16-.17,2.21-.48,3.25.03.01.06.03.09.04.17-.12.35-.25.61-.43-.25,1.11-.76,2-1.34,2.93.22-.04.37-.07.52-.1.03.02.06.05.09.07-.54.78-1.08,1.56-1.62,2.34l.06.08c.15-.09.29-.18.44-.27,0,0,0,0,0,0,0,.26-.09.39-.37.49-.23.08-.41.37-.58.59-.5.61-.99,1.23-1.46,1.81.34.15.68.29,1.01.43h.01c-.22-.06-.44-.11-.66-.15-.46-.09-.63.04-.7.49-.26,1.59-.52,3.17-.8,4.76-.3,1.63-.61,3.26-.95,4.89-.38,1.84-.77,3.69-1.19,5.52-.45,1.93-.95,3.86-1.42,5.78-.02.06-.03.13-.02.2.04.2.03.49.15.56.13.08.42,0,.57-.1.9-.65,1.77-1.34,2.65-2.01.03-.02.04-.06.08-.11-.51-.45-1.05-.87-1.36-1.55.14-.03.23-.04.33-.06-.21-.59-.42-1.18-.63-1.78.06,0,.11,0,.17,0,.06-.16.16-.31.17-.48.08-.76.11-1.52.21-2.28.06-.45.12-.44.47-.18.15-.66.29-1.33.45-2.03.15.07.24.11.34.15.37-.6.68-1.23,1.38-1.67.11.72.22,1.36.32,2.02.32-.15.39.08.39.36.01.48,0,.97,0,1.39.08.14.21.25.21.38.02.49,0,.98,0,1.5.05.01.15.03.24.05.2,1.01-.82,1.68-.73,2.63-.08-.1-.17-.22-.24-.3.31-.68.62-1.37.97-2.14-.24.02-.34.02-.45.03v-1.83c-.18.12-.3.19-.45.29.09-.64.18-1.26.28-1.95-.2.06-.3.08-.39.11-.09-.74-.17-1.46-.27-2.29-.63.52-.97,1.1-1.22,1.75-.12-.05-.21-.09-.34-.14-.13.7-.26,1.36-.4,2.09-.15-.12-.26-.2-.42-.33-.27.96-.34,1.9-.15,2.88-.13.02-.22.04-.41.08.25.63.5,1.25.76,1.89h-.3c-.14.18.75,1.06,1.44,1.38-.35.31-.66.63-1.02.88-.77.54-1.55,1.05-2.35,1.56-.39.25-.79.03-.73-.42.07-.64.24-1.26.38-1.89.34-1.46.7-2.91,1.05-4.37.3-1.27.62-2.53.89-3.81.28-1.29.52-2.58.78-3.87.22-1.12.46-2.24.67-3.37.24-1.28.45-2.57.67-3.86.06-.34.13-.69.19-1.03-.05-.02-.09-.03-.14-.05-.11.26-.28.51-.32.78-.22,1.41-.37,2.82-.61,4.22-.28,1.59-.61,3.18-.95,4.76-.42,1.98-.82,3.97-1.33,5.93-.53,2.02-1.18,4-1.8,5.99-.12.38-.35.73-.54,1.1-.14.28-.36.35-.66.25-.94-.31-1.57-.98-2.1-1.77-.18-.27-.34-.55-.51-.83.03-.02.05-.04.08-.06.06.09.13.18.18.27.54.89,1.2,1.66,2.17,2.11.43.2.5.17.72-.25.9-1.73,1.38-3.6,1.89-5.46.31-1.13.62-2.26.89-3.4.36-1.55.68-3.11,1.01-4.67.21-.99.45-1.98.64-2.97.2-1.07.37-2.15.55-3.23.06-.38.15-.76.17-1.14.02-.37,0-.75-.08-1.11-.05-.25-.27-.24-.41-.05-.3.4-.6.8-.86,1.22-.28.44-.52.9-.79,1.39-.05-.11-.09-.19-.15-.31-.64.66-1.31,1.27-2.28,1.55.02-.13.03-.21.05-.28.02-.06.04-.12.09-.23-.7.18-1.35.36-2.05.54v-.54c-.56.22-1.1.42-1.68.64v-.47c-1.24.73-2.6.38-3.9.69v-.5c-.53-.01-1.07,0-1.61-.34.81-.43,1.55-.83,2.27-1.21-.35-.13-.75-.28-1.2-.44.1-.16.16-.27.22-.36-.42-.14-.85-.26-1.26-.42-.09-.03-.13-.19-.21-.28-.07-.08-.14-.16-.24-.19-.35-.14-.7-.25-1.12-.4.16-.17.25-.27.29-.31-.55-.23-1.11-.47-1.67-.72,0,0,.04-.13.04-.14-.52-.37-1.04-.73-1.55-1.09.64.34,1.28.68,2,1.06-.09.03-.18.06-.32.12.67.4,1.3.52,2.06.55-.21.18-.35.31-.57.49.53.17.99.32,1.46.48-.06.1-.11.18-.21.35.55.12,1.07.24,1.61.36-.09.13-.17.25-.3.43.54.17,1.05.34,1.58.51-.68.33-1.31.63-1.94.93-.18.09-.36.18-.53.27,0,.04.01.07.02.11.48.05.95.09,1.42.14v.41c.1-.01.17-.03.24-.04.5-.06.99-.13,1.49-.18.27-.03.54.03.8-.03.42-.1.82-.27,1.23-.41.03-.01.07,0,.12,0,.01.11.02.21.04.34.55-.21,1.07-.41,1.65-.64-.03.22-.05.37-.09.62.73-.21,1.41-.4,2.13-.61-.04.18-.08.31-.12.49.1-.03.16-.03.22-.06.7-.37,1.31-.85,1.79-1.5.04-.05.1-.15.12-.14.45.14.41-.31.55-.49.3-.38.53-.81.79-1.22.08-.13.14-.26.21-.39,0,0,0,.01,0,.01.26-.02.52-.03.78-.05.02.04.04.08.07.12v-.6c-.67.37-1.55.15-2-.55-.37-.57-.63-1.21-.97-1.8-.32-.56-.68-1.1-1.06-1.73-.13.31-.2.36-.39.18-.41-.36-.86-.67-1.35-1.04-.03.23-.05.34-.08.52-.71-.52-1.43-.93-2.29-1.03,0,.13.02.23.03.4-.58-.35-1.12-.58-1.76-.46.04.17.07.3.1.4-.7-.05-1.36-.1-2.02-.14-.09,0-.25.02-.25.04-.02.41-.3.16-.46.17-.52.02-1.03,0-1.58,0,.08.22.13.34.18.47-.47.13-.9.21-1.3.36-.38.15-.73.38-1.1.55-.24.11-.51.14-.75.24-.1.04-.16.18-.27.3-.47.08-1.01.17-1.55.26-.02.05-.03.1-.05.14.46.27.91.55,1.38.82-.24.14-.48.29-.73.43-.02-.05-.08-.15-.06-.16.11-.09.24-.16.36-.24-.41-.32-.82-.64-1.22-.96l.04-.14c.22-.05.45-.08.66-.15.62-.2,1.23-.41,1.84-.64.19-.07.47-.02.53-.36.01-.09.32-.13.49-.18.48-.13.96-.25,1.48-.39-.08-.14-.15-.25-.27-.46,1.48-.07,2.87-.64,4.35-.11-.01-.18-.02-.3-.03-.44.56-.08,1.1.18,1.58.14.57-.05,1.04.06,1.53.25.34.13.64.33.99.51,0-.11-.02-.2-.03-.3.03-.03.06-.07.08-.1.54.34,1.08.67,1.62,1.01.02-.05.05-.14.13-.36.36.49.72.89.98,1.34.43.72.79,1.48,1.19,2.22.34.61,1.13,1.14,1.82.91-.08-.15-.12-.32-.23-.43-.64-.71-1.29-1.41-1.93-2.12-.06-.07-.12-.15-.22-.28.24.01.38.02.65.03-.75-.9-1.44-1.72-2.17-2.6.27-.02.47-.03.68-.04-.5-.81-.99-1.59-1.49-2.38.03-.03.07-.07.1-.1.12.01.24.03.4.05-.1-.25-.21-.5-.29-.75-.14-.48-.28-.96-.4-1.44-.07-.26,0-.42.33-.26-.19-.91-.38-1.79-.56-2.67.03-.02.07-.04.1-.06.17.1.35.19.56.31-.2-1.31-.24-2.58-.06-3.91.14.08.24.13.34.19.1-.62.21-1.23.31-1.85.05,0,.09,0,.14,0,.09.13.18.25.27.38.04,0,.07,0,.11,0,.19-1.07.38-2.13.57-3.23.1.06.17.1.25.15.02-.02.04-.03.05-.05.06-.39.11-.79.19-1.17.05-.22,0-.49.32-.61.09-.03.11-.33.13-.51.09-.73.17-1.47.26-2.2,0-.07.07-.14.15-.28.08.22.15.36.17.51.01.07-.07.16-.11.24-.04.09-.09.18-.11.27-.09.71-.16,1.42-.24,2.12-.02.19-.03.38-.34.3-.08.65-.16,1.3-.25,1.95-.01.08-.08.14-.13.21-.05-.04-.11-.09-.17-.14-.21.95-.42,1.92-.66,3-.2-.18-.31-.28-.48-.44-.08.68-.16,1.32-.24,2.01-.12-.09-.21-.15-.33-.25-.25,1.25.01,2.46.13,3.76-.22-.12-.38-.21-.66-.36.23.99.43,1.88.65,2.81-.16-.05-.28-.08-.54-.16.34.88.64,1.67.95,2.49-.12-.01-.26-.02-.52-.05.55.82,1.06,1.56,1.59,2.35-.25.01-.43.02-.68.03.72.87,1.47,1.66,2.04,2.7-.22-.03-.32-.05-.48-.07.75.84,1.46,1.63,2.23,2.5.16-1.62.14-3.04-1.07-4.22-.84-.82-1.65-1.7-2.21-2.76-.15-.28-.27-.58-.34-.9.77,1.87,2.51,2.98,3.54,4.62,0-1.21.11-2.43-.05-3.62-.07-.56-.65-1.07-1.02-1.58-.18-.25-.4-.47-.6-.7.01-.01.02-.02.03-.03Z"/><path d="M97.04,101.66s.05.09.08.14c.29.41.24.53-.27.6.21.63.73,1.14.77,1.96-.3-.24-.52-.44-.76-.6-.16-.1-.28-.45-.57-.13-.03.03-.26-.08-.37-.16-.24-.16-.46-.34-.71-.53-.12.29-.28.21-.43.04-.28-.32-.56-.65-.9-1.06-.04.08-.07.14-.09.21-.15.37-.36.22-.48.02-.22-.38-.38-.8-.59-1.25-.1.14-.21.28-.39.52-.25-.71-.47-1.34-.7-1.97-.22.2-.35,0-.36-.23-.04-.51-.1-1.02-.03-1.52.06-.5.27-.98.45-1.61-.56.15-1.05.24-1.5.42-1.18.47-2.34.99-3.52,1.49-.38.16-.77.31-1.15.47,0,.05,0,.09,0,.14.17.07.34.13.52.2.63.23,1.26.44,1.87.7.16.07.23.31.38.44.21.19.45.35.68.52.2.15.4.3.6.45.03.02.1.04.1.06.06.64.72.75,1.03,1.17.03.04.06.08.09.13.01.02,0,.05,0,.12-.13.02-.26.04-.47.07.13.16.22.3.34.41.21.2.43.39.64.59.2.19.18.34-.22.41.23.33.44.61.62.91.14.23.38.42.27.77-.04.11.2.31.31.47.29.4.29.62-.03.84.25.31.5.62.78.96-.23.06-.38.1-.61.16.52.73,1.01,1.4,1.53,2.12-.59.12-1.03-.33-1.57-.33.01.11.03.2.04.33-.09-.03-.14-.04-.17-.07-.52-.37-1.03-.74-1.55-1.09-.11-.07-.3-.02-.43-.08-.26-.13-.53-.27-.75-.46-.27-.24-.5-.53-.74-.79-.03.02-.06.03-.1.05.04.3.07.61.13.91.06.3.07.3-.3.33.05.32.1.64.16,1.01-.12-.03-.22-.05-.33-.08-.07.41-.14.83-.21,1.27-.46-.28-.75-.82-1.06-1.9-.14.19-.26.35-.45.6-.09-.25-.16-.42-.21-.58-.08-.27-.05-.63-.51-.57-.07,0-.18-.13-.23-.23-.17-.37-.31-.75-.46-1.13-.03-.06-.08-.11-.15-.2-.08.16-.14.29-.22.44-.47-.36-.62-.86-.81-1.32-.12-.29-.09-.62-.44-.82-.14-.08-.18-.43-.19-.66-.02-.35.03-.71.04-1.07.02-.41.08-.79-.14-1.23-.15-.31-.01-.83.12-1.21.21-.6.52-1.17.79-1.76.04-.08.04-.17.07-.28-.11,0-.19-.04-.26-.02-1.59.5-3.17,1.02-4.38,2.22-.91.9-1.01,2.02-.76,3.22.22,1.04.42,2.09.63,3.14.14.71.25,1.43.4,2.14.26,1.29.49,2.59.82,3.86.44,1.75,1.09,3.42,2.01,4.99,1.16,1.99,2.81,3.49,4.64,4.84,1.5,1.11,3.14,1.93,4.88,2.57.36.13.73.22,1.1.3.51.11.66.35.48.84-.07.2-.14.41-.28.56-.08.09-.3.13-.44.1-1.22-.29-2.26-.96-3.33-1.58-1.24-.72-2.5-1.38-3.76-2.06-.84-.45-1.67-.89-2.33-1.63-.37-.41-.97-.61-1.46-.91-1.57-.95-2.94-2.15-4.34-3.31-3.18-2.64-5.98-5.67-8.77-8.71-1.13-1.23-2.12-2.59-3.17-3.9-.77-.97-1.53-1.96-2.3-2.94-.12-.15-.23-.22-.43-.1-.24.14-.49.25-.75.34-.22.07-.41.22-.7.04-.14-.09-.46.1-.7.18-.15.05-.29.12-.5.21.04-.19.07-.31.1-.49-.71.24-1.33.72-2.13.68.01-.12.02-.22.03-.33-.45-.17-.95.33-1.41-.06.05-.1.1-.19.13-.24-.68-.08-1.35-.16-2.02-.24,0-.06-.02-.13-.02-.19.43-.18.86-.35,1.32-.54-.06-.11-.1-.18-.16-.29.23-.08.46-.14.68-.23.22-.09.59-.02.52-.47,0-.06.27-.17.42-.24.28-.13.56-.25.9-.39-.16-.08-.25-.13-.38-.2.45-.28.96-.38,1.25-.86-.16-.06-.28-.1-.51-.19.41-.19.73-.33,1.04-.48.44-.21.44-.22.18-.62-1.92-2.98-3.84-5.97-5.74-8.96-.29-.45-.52-.93-.78-1.39.01,0,.02-.02.03-.03.3.44.61.87.9,1.32,1.65,2.56,3.29,5.14,4.96,7.7.78,1.19,1.65,2.33,2.44,3.51.42.62.73,1.3,1.15,1.92.5.74,1.04,1.45,1.59,2.15.93,1.2,1.87,2.4,2.83,3.56,2.44,2.94,5.1,5.68,7.87,8.3,1.92,1.82,3.89,3.59,6.12,5.04.7.45,1.44.85,2.13,1.32.5.34.93.81,1.45,1.11,1.34.77,2.71,1.47,4.07,2.22.75.41,1.46.88,2.22,1.26.47.24,1,.36,1.5.54.07-.1.12-.16.16-.22.37-.61.29-.68-.39-.88-.9-.27-1.78-.63-2.65-1-2.21-.94-4.05-2.44-5.74-4.09-1.8-1.76-2.95-3.96-3.73-6.35-.54-1.67-.89-3.38-1.19-5.11-.2-1.14-.43-2.28-.65-3.42-.17-.85-.36-1.69-.54-2.54-.31-1.46.3-2.55,1.42-3.39.95-.71,2.05-1.15,3.18-1.49.25-.08.47-.24.72-.3.19-.04.43-.02.58.09.07.05.01.36-.05.52-.29.7-.61,1.39-.89,2.09-.07.18-.06.4-.1.66.16-.11.24-.17.4-.28-.07.98-.13,1.88-.19,2.88.33-.24.39-.14.45.11.14.59.33,1.16.51,1.74.03.09.12.16.21.27.09-.18.16-.33.28-.58.16.26.29.44.38.64.12.27.19.57.31.85.08.2.1.5.46.39.05-.02.18.1.22.18.11.22.2.46.3.7.05-.15.11-.31.16-.46.3.11.3.11.59.85.13.34.27.67.41,1.02.08-.06.12-.07.12-.09.02-.57.42-1.06.35-1.66-.01-.1.14-.21.16-.32.04-.17.05-.35.03-.52-.03-.28-.09-.55-.14-.83.05-.03.09-.05.14-.08.24.2.49.39.72.6.19.18.34.4.53.58.07.07.18.3.32.04,0-.02.1,0,.14.01.56.33,1.12.67,1.68.99.1.06.21.08.32.1.37.09.73.18,1.18.29-.47-.68-.9-1.29-1.36-1.95.22-.06.37-.11.55-.16-.29-.38-.58-.75-.93-1.2h.58c-.15-.3-.3-.57-.43-.84-.12-.24-.21-.5-.34-.74-.18-.33-.41-.63-.59-.96-.09-.16-.11-.36-.18-.53-.04-.1-.12-.2-.19-.28-.15-.18-.34-.34-.44-.55-.06-.13,0-.32,0-.48.05-.01.09-.03.14-.04-.39-.28-.77-.56-1.19-.86.12-.08.2-.13.34-.21-.05-.02-.08-.03-.11-.05-.41-.28-.82-.57-1.23-.85-.06-.04-.17-.1-.17-.15.05-.53-.43-.5-.7-.62-.48-.21-1-.32-1.49-.5-.13-.04-.22-.16-.34-.24.09-.1.16-.24.27-.29.61-.28,1.23-.53,1.84-.8.88-.38,1.74-.8,2.63-1.14.47-.18.98-.29,1.48-.37.34-.05.45.14.29.46-.41.82-.52,1.68-.42,2.61.07-.05.12-.09.17-.14.2-.19.25-.09.29.12.13.59.27,1.17.41,1.75.04,0,.08,0,.12,0,.08-.12.15-.25.25-.41.57.44.44,1.24.94,1.71.07-.17.13-.34.22-.57.34.41.65.78.97,1.17.07-.06.13-.12.18-.16.37.28.73.56,1.13.88.03-.15.04-.24.07-.4.35.24.66.47.98.69.02-.02.03-.03.05-.05-.28-.51-.55-1.02-.87-1.61.29.06.48.1.72.16v-.5h-.01ZM63.35,102.53c-.25-.39-.53-.74-.72-1.13-.16-.32-.32-.32-.61-.22-.93.32-1.86.64-2.8.91-.37.11-.77.11-1.15.16.4-.17.82-.24,1.22-.36.91-.28,1.82-.59,2.73-.89.24-.08.24-.22.1-.42-.43-.61-.84-1.23-1.27-1.86-.35.17-.68.33-1.04.5.27.23.19.41-.06.58-.19.14-.36.29-.52.46-.12.13-.18.34-.32.44-.38.29-.9.35-1.19.84-.14.23-.59.29-.83.39-.21.61-.87.52-1.19.94h2.04c-.12.18-.21.29-.29.41.45.25,1.03-.32,1.54.32.58-.23,1.26-.51,1.99-.8-.03.19-.05.3-.07.44.13-.05.21-.1.3-.12.24-.05.48-.11.72-.14.18-.02.37.04.53-.02.29-.1.56-.27.88-.43Z"/><path d="M105.77,93.11c.23-.15.45-.32.69-.46.2-.12.43-.2.68-.31-.08-.1-.15-.18-.28-.32.61-.27,1.19-.52,1.76-.78,0-.04,0-.07,0-.11-.18-.05-.36-.11-.6-.18.09-.07.14-.13.18-.14.98-.15,1.56-.94,2.3-1.47.01,0,0-.05.02-.12-.14.06-.25.11-.37.15-.24.07-.46.3-.74.05-.07-.06-.3.04-.45.07-.44.1-.9-.18-1.34.11-.16.1-.38.11-.57.17-.02-.04-.05-.08-.07-.11.17-.19.35-.37.5-.58.13-.19.5-.3.24-.66-.03-.04.13-.26.24-.37.21-.2.45-.38.68-.57l-.09-.11c-.14.02-.28.05-.42.07-.03-.04-.06-.08-.08-.12.67-.55,1.33-1.09,2-1.64-.02-.04-.04-.08-.06-.11-.12-.02-.24-.04-.39-.06.14-.76.93-1.04,1.21-1.71-.11-.02-.21-.04-.32-.06-.07-.61.42-.92.72-1.42-.29.12-.53.23-.77.31-.38.14-.77.28-1.16.38-.16.04-.36-.04-.54-.07,0-.05,0-.1-.01-.15-.46.29-.93.57-1.43.87-.03-.14-.05-.25-.08-.36-.61.17-.81,1.05-1.67,1.02-1.02.64-2.07,1.43-2.87,2.52-.03-.02-.06-.04-.09-.07.32-.5.63-1,.97-1.54-.15-.05-.24-.08-.37-.12.18-.39.35-.74.54-1.16-.17.02-.28.04-.45.06.06-.42.12-.8.18-1.19-.02-.01-.05-.02-.07-.03-.34.42-.67.85-1.03,1.25-.11.12-.33.13-.49.2-.08.03-.16.07-.21.14-.25.33-.48.68-.74,1.03-.07-.08-.13-.14-.22-.24-.39.58-.78,1.14-1.2,1.75-.09-.16-.13-.24-.23-.41-.27.63-.5,1.18-.73,1.73-.05.11-.11.21-.16.32-.09.24-.21.25-.38,0-.13.56-.25,1.08-.38,1.65-.31-.2-.41-.17-.52.15-.28.83-.6,1.65-.98,2.44-.61,1.26-1.66,2-3.04,2.26-.39.07-.77.16-1.16.19-.08,0-.27-.22-.25-.31.1-.64.23-1.27.37-1.9.09-.4.21-.79.31-1.18.14-.54-.11-.97-.35-1.42-.38-.71-.52-1.47-.41-2.28.04,1.02.3,1.95.89,2.75.55-1.69,1.09-3.36,1.63-5.03l.17.05c-.93,2.31-1.43,4.74-2.07,7.21,1.09-.71,1.96-1.51,2.57-2.58.03.02.07.05.1.07-.23.34-.43.71-.71,1.01-.45.48-.93.93-1.43,1.36-.63.54-.94,1.18-.83,2.03.95-.22,1.6-.82,2.12-1.59.04-.06-.04-.2-.03-.3.03-.23.04-.49.14-.69.29-.54.63-1.05.92-1.59.1-.19.14-.42.21-.66-.37-.06-.32-.25-.23-.48.2-.54.4-1.09.58-1.63.05-.15.06-.32.09-.55-.22.16-.37.28-.52.39l-.13-.05c.17-.8.34-1.61.51-2.42-.73-.08-.8-.16-.7-.87.02-.18.06-.36.03-.6-.56.61-1.12,1.22-1.71,1.86-.13-.16-.2-.25-.3-.37-.4.61-.78,1.2-1.21,1.86-.11-.19-.18-.3-.27-.46-.55.73-.43,1.62-.62,2.44-.12-.04-.21-.07-.32-.1-.4.97.04,1.96-.02,2.95h-.39c.07,1.17.53,2.11,1.54,2.83-2.31,1.33-4.73,2.17-7.12,3.17-.07-.49.19-.84.5-1.05,1.15-.74,1.92-1.81,2.6-2.96.11-.18.23-.34.37-.55-.15,0-.25-.01-.4-.02.17-.96.95-1.58,1.24-2.57-.32.18-.55.31-.86.48.03-.88.53-1.54.74-2.32-.18.07-.32.12-.52.19.24-.95.47-1.84.72-2.82-.27.11-.39.16-.62.26.07-.5.12-.91.18-1.33h.15c-.02.3-.04.59-.07.94.18-.07.31-.13.58-.24-.19.96-.36,1.85-.53,2.76.13-.07.26-.14.39-.21.04.01.07.03.11.04-.26.72-.52,1.45-.8,2.21.28-.06.49-.11.69-.16.04.04.07.07.11.11-.38.75-.76,1.49-1.16,2.27.14.02.25.04.43.07-.42.91-.96,1.73-1.59,2.47-.62.73-1.36,1.35-2.05,2.02.02.04.05.08.07.11,2.13-.95,4.27-1.89,6.42-2.85-1.08-1.3-1.45-2.18-1.34-3.19.11-.01.22-.02.39-.04-.13-1.02-.31-2.05.12-3.07.1.04.18.07.28.11.09-.88.12-1.77.92-2.47.05.2.08.32.12.51.45-.66.87-1.27,1.34-1.97.11.25.17.36.25.53.59-.66,1.16-1.31,1.73-1.96.04,0,.07,0,.11.01.02.14.06.28.05.42-.03.28-.09.55-.12.82-.05.43.04.5.47.43.09-.02.18,0,.32,0-.16.8-.32,1.57-.49,2.42.17-.19.3-.33.5-.55.14.99-.33,1.77-.53,2.61.08.03.16.05.23.08-.14.98-.55,1.83-1.13,2.61-.13.18-.28.36-.06.63.07.09-.08.42-.21.58-.33.43-.69.83-1.05,1.25.97-.14,1.76-.59,2.36-1.38.7-.93,1.06-2.01,1.42-3.09.09-.26.19-.5.31-.8.11.09.18.15.28.23.04-.08.1-.15.12-.23.07-.31.11-.62.2-.92.07-.23.11-.52.48-.48.04,0,.11-.16.16-.25.3-.56.59-1.13.92-1.75.19.2.28.37.44.07.19-.38.41-.81.74-1.05.42-.31.7-.7,1.04-1.06.13-.14.4-.13.56-.24.18-.12.32-.29.46-.45.36-.41.72-.82,1.08-1.23.04.02.09.04.13.06-.1.48-.21.96-.32,1.5.16-.04.27-.08.53-.15-.1.34-.18.6-.27.85-.07.19-.37.37,0,.57.04.02-.02.24-.04.42.13-.12.23-.22.33-.31.23-.18.32-.46.73-.49.3-.03.6-.44.85-.72.24-.27.31-.18.35.06.49-.33.97-.66,1.47-.97,0,0,.09.11.13.17.34-.18.69-.38,1.06-.55.14-.06.35-.21.44.1,0,.03.19.04.27.01.69-.26,1.37-.52,2.06-.79.13-.05.26-.08.39-.12.02.03.05.06.07.09-.39.49-.77.98-1.2,1.53.23.03.37.06.66.1-.46.56-.87,1.06-1.27,1.56.31.31.29.61-.14,1.02-.34.32-.73.59-1.04.83-.01.2.02.37-.04.48-.11.19-.27.35-.43.5-.17.17-.28.33-.32.6-.04.26-.25.5-.39.77.15-.04.31-.07.48-.12.21-.05.42-.21.61.04.02.02.08.02.11.01.59-.15,1.23.02,1.79-.34.14-.09.33-.12.52-.13-.42,1.02-1.51,1.35-2.16,2.15.05.07.1.13.2.26-.63.29-1.24.56-1.84.84,0,.02.01.03.02.05.19-.03.39-.06.58-.09.01.04.03.09.04.13-.73.37-1.43.79-2.25.98h0Z"/><path d="M69.23,91.19s.08-.03.12-.04c.47.57.98,1.12,1.42,1.72.72,1.01,1.4,2.05,2.09,3.09.06.09.07.2.12.35-.51,0-.83-.25-1.13-.5-.48-.4-1.03-.61-1.64-.7-.23-.03-.43-.04-.4.25-.58-.15-1.14-.3-1.76-.47.02.22.03.31.04.46-.49-.07-.95-.14-1.45-.22.03.43-.25.44-.52.44-.54,0-1.07,0-1.67,0,.07.21.09.3.14.45-.41.06-.81.12-1.24.19.05.09.11.18.18.3-.48.24-.94.49-1.44.74.2.17.34.29.55.47-.42.14-.78.25-1.25.4.58.72,1.11,1.38,1.66,2.03.05.06.22.08.31.05,1.43-.55,2.85-1.12,4.28-1.68.06-.02.1-.07.17-.13-.56-.43-1.18-.67-1.84-.81-.64-.13-1.29-.21-1.84-.29.6-.1,1.32-.1,1.99.14.64.23,1.24.56,1.85.84.07.03.16.07.22.04.61-.22,1.22-.46,1.86-.71-.58-.92-1.55-1.06-2.43-1.35.01-.03.02-.07.03-.1.38.1.76.17,1.12.31.54.21,1.06.46,1.43.95.06.08.28.08.42.06.92-.15,1.84-.31,2.76-.47.01.06.03.11.04.17-.23.07-.47.15-.7.2-.15.03-.32.02-.47.04-.81.12-1.01.4-1.13,1.22-.1.71-.25,1.43-.48,2.11-.19.57-.6,1.02-1.15,1.47.37-.56.73-1,.98-1.49.21-.42.31-.89.41-1.35.11-.56.17-1.14.26-1.78-.38.1-.8.23-1.22.31-.69.13-1.09.51-1.28,1.2-.11.41-.4.76-.6,1.14h0c.21-.54.42-1.09.63-1.64.03-.07.06-.14.14-.34-1.92.73-3.73,1.42-5.62,2.14.31.46.59.87.86,1.27.13.18.29.34.39.54.17.34.43.34.74.24.29-.09.58-.17.9-.26.03.1.06.19.11.34.39-.18.78-.36,1.21-.55.03.14.06.26.11.49.45-.26.87-.5,1.33-.77.09.46.19.92.29,1.43.24-.21.44-.39.67-.59.07.13.12.22.2.36.31-.43.6-.83.92-1.26.06.12.1.2.17.35.17-.33.31-.62.47-.92.28.18.44.06.52-.22.08-.27.15-.55.26-.81.06-.13.2-.23.36-.28.18-.61.36-1.22.56-1.83.05-.14.16-.27.25-.39.12-.17.26-.17.38,0,.59.77,1.2,1.52,1.75,2.31.94,1.38,1.26,2.99,1.56,4.6.23,1.23.51,2.45.75,3.68.2,1.02.37,2.05.57,3.07.16.8.33,1.6.54,2.39.35,1.32.74,2.63,1.12,3.95.08.27.22.53.34.79.07.16.15.32.23.48-.03.04-.06.08-.09.12-.38-.19-.82-.31-1.15-.58-1.79-1.45-3.63-2.85-5.3-4.43-1.71-1.62-3.26-3.42-4.85-5.16-.89-.98-1.77-1.97-2.57-3.02-1.32-1.74-2.48-3.62-3.87-5.3-1.65-1.99-2.85-4.26-4.35-6.34-.05-.07-.06-.16-.1-.25,0,0,.02-.02.02-.02.31.44.64.88.94,1.33.58.87,1.15,1.74,1.74,2.6.06.09.24.15.35.13.21-.03.41-.12.68-.21-.16-.15-.27-.25-.44-.41.48-.26.93-.5,1.38-.74-.07-.09-.13-.17-.26-.34.46-.1.86-.18,1.28-.28-.11-.35.15-.4.45-.42.56-.03,1.12-.07,1.71-.11-.11-.32.07-.39.34-.36.35.04.7.06,1.07.1-.02-.1-.04-.19-.06-.27.04-.03.07-.05.09-.05.96.16,1.96.05,2.9.26.5.11.94.48,1.41.74.16.09.3.2.45.3.03-.03.06-.05.1-.08-.21-.33-.4-.67-.62-1-.82-1.26-1.72-2.46-2.73-3.58-.05-.05-.05-.14-.08-.21ZM64.87,102.68c.06.1.11.2.18.3.62.84,1.21,1.71,1.88,2.52.98,1.18,1.98,2.34,3.02,3.47,1.56,1.69,3.08,3.42,4.75,5,1.54,1.46,3.23,2.75,4.87,4.1.2.16.45.27.74.43-.14-.34-.26-.57-.33-.82-.2-.7-.38-1.4-.56-2.1-.34-1.3-.71-2.59-1-3.9-.25-1.12-.4-2.26-.62-3.38-.26-1.32-.54-2.63-.83-3.95-.22-.96-.36-1.96-.74-2.86-.42-1.02-1.05-1.95-1.63-2.91-.22-.37-.53-.69-.79-1.03l-.18.04c-.15.5-.28,1-.46,1.49-.12.34-.29.66-.46.97-.07.13-.19.24-.27.37-.19.31-.31.73-.58.89-.21.13-.32.27-.44.44-.08.11-.11.25-.21.33-.08.06-.22.04-.34.05-.01-.04-.03-.08-.04-.12-.22.29-.42.59-.66.87-.16.19-.36.26-.49-.03-.29.25-.56.49-.83.73-.03-.03-.06-.06-.09-.08.07-.21.14-.41.21-.62-.11-.03-.2-.06-.29-.09.03-.27.05-.52.09-.83-.53.27-.91.67-1.49.63v-.34c-.34.14-.66.25-.96.38-.25.1-.4.05-.39-.24-.34.09-.67.18-1.05.28Z"/><path d="M32.46,39.92c-.01-.23.15-.62-.36-.37.02-.08.04-.14.05-.21-.06,0-.12-.01-.17,0-.26.09-.51.21-.77.28-.15.04-.32.06-.46.03-.1-.03-.2-.15-.26-.26-.02-.05.04-.2.1-.22.1-.03.26-.04.31.02.38.45.75.15,1.12,0,.22-.09.24-.28.05-.37-.32-.15-.63-.46-1.04-.17-.11.07-.32.02-.48-.02-.04,0-.07-.25-.04-.27.13-.07.29-.12.44-.14.11-.01.23.04.38.08-.05-.39.23-.32.46-.32-.02-.09-.03-.16-.04-.23h0c.05,0,.11,0,.16,0,.19.28.38.57.6.9.04-.55-.12-.76-.61-.9,0-.01,0-.03,0-.04-.01-.16-.03-.32-.04-.48h.5c-.1-.09-.16-.17-.23-.22-.07-.05-.18-.05-.25-.1-.16-.12-.31-.27-.47-.4.17-.09.33-.18.55-.3,0,.01-.02-.07,0-.13.04-.09.12-.22.19-.23.09,0,.24.08.27.16.08.25.12.51.17.76.39-.1.49-.03.53.4.02.28,0,.57,0,.85.03,0,.07,0,.1,0,.03-.09.05-.17.08-.26.07.12.14.22.2.32h0c-.11.19-.22.4-.34.6.01.02.03.04.04.07.18-.09.36-.18.54-.27h-.01c.18.28.43.15.6.02.15-.11.34-.35.32-.5-.19-1.19-.43-2.38-.65-3.56-.07-.39-.13-.78-.22-1.16-.18-.8-.68-1.25-1.51-1.36-.24-.03-.46-.23-.69-.36.54.16,1.09.32,1.57.46-.28-.41-.56-.84-.85-1.26-.14-.2-.33-.35-.6-.19-.26.16-.33.39-.23.68.04.11.09.21.13.32-.31-.1-.35-.39-.3-.61.05-.21.22-.5.4-.56.18-.06.47.08.65.22.16.11.21.36.34.52.27.34.57.66.86,1,.09-.09.15-.11.15-.14-.01-.89-.21-1.7-.98-2.24-.19-.14-.47-.17-.7-.24-.77-.25-1.07-.99-.68-1.65.19-.32.46-.44.82-.4.38.04.52.32.63.62.06.17.07.36.09.55.06.68.16.87.76,1.38v-1.8s.05,0,.08,0v2.14c-.07.01-.15.03-.23.04-.14-.25-.24-.53-.42-.74-.23-.25-.33-.51-.34-.84,0-.27-.04-.56-.14-.8-.18-.46-.66-.52-1.01-.17-.48.49-.22,1.36.54,1.52.66.14,1.05.51,1.39,1.02.25.7.49,1.39.2,2.14-.02.06.04.14.05.22.24,1.11.48,2.23.71,3.35.12.61.23,1.22.34,1.82.04.23.13.31.35.1.05.3.1.58.16.89-.51-.1-.37.22-.35.57.18-.09.31-.16.46-.23.19.82.39,1.74.6,2.66.07.31.13.61.2.92-.12.13-.21.3-.36.38-.5.25-.31.72-.48,1.13.14-.05.2-.08.26-.1-.07.16-.14.32-.23.51.54-.23.56-.27.43-.79-.07.1-.14.19-.21.28.03-.29.06-.59.08-.88.06,0,.13,0,.19-.01.05.19.1.38.17.61.13-.08.26-.17.39-.25,0,0-.01,0-.01,0,.02.18.03.37.07.55.04.17.13.32.22.56.2.02.45.1.13.48-.06.07,0,.25,0,.38,0,0,0,0,0,0-.14.08-.28.17-.46.27.63.44.29,1.19.54,1.46-.19-.29-.52-.8-.84-1.3.09,0,.17-.02.25-.02-.08-.24-.15-.45-.22-.66h.56c-.25-.17-.53-.33-.83-.36-.21-.02-.43.15-.72.26.23.2.39.36.56.49.13.11.27.2.41.3-.26-.09-.52-.19-.78-.28-.01.02-.02.04-.03.06.03.03.06.06.09.09h0c-.08-.04-.18-.06-.22-.13-.08-.13-.12-.27-.25-.4v.71s-.03,0-.05,0c-.05-.32-.1-.63-.16-1-.15.1-.23.16-.32.22.01-.07.02-.14.04-.26-.25.11-.45.2-.66.29-.01-.02-.03-.05-.04-.07.12-.09.24-.17.45-.33-.27-.07-.47-.15-.66-.15-.06,0-.1.25-.16.38-.05.09-.13.17-.19.25-.05-.09-.15-.21-.13-.28.06-.17.18-.33.32-.55-.17-.03-.33-.04-.48-.09-.12-.05-.24-.13-.32-.23-.04-.04,0-.2.05-.24.05-.04.18-.02.25.02.11.07.19.18.28.27.25.24.5.3.83.11.17-.09.43-.02.67-.02-.08-.37-.13-.72-.53-.88-.08-.03-.11-.19-.16-.3.03-.04.07-.08.1-.11.16.09.33.18.49.27.02,0,.04,0,.06-.01-.13-.15-.26-.3-.38-.45-.07-.09-.14-.2-.18-.31-.01-.03.14-.15.15-.15.1.07.19.16.26.25.07.1.12.23.2.37.03-.14.05-.26.07-.38.04-.02.08-.03.12-.05.07.14.18.28.19.42.01.38-.03.76-.05,1.14,0,.12.01.23.08.35.23-.94.73-1.84.34-2.83.16.28.31.57.47.85.05-.02.09-.04.14-.05-.18-.82-.35-1.65-.53-2.47q-.13.04-.27,1c-.04-.18-.05-.27-.07-.32-.15.09-.36.28-.46.23-.14-.06-.25-.29-.28-.46-.13-.7-.12-.7-.59-1.2.28.23.55.46.83.69-.03.2-.08.4-.07.6,0,.07.14.13.21.2.05-.08.15-.18.13-.24-.07-.2-.17-.38-.27-.57.08.02.15.03.26.06-.08-.18-.15-.33-.21-.49-.04-.09-.16-.21.07-.23-.02-.09,0-.24-.05-.26-.23-.09-.48-.2-.72-.21-.22,0-.45.1-.74.18.12.25.24.5.35.76-.02.01-.03.02-.05.03-.08-.11-.16-.22-.24-.34-.03,0-.06.01-.09.02.04.66.08,1.32.12,1.97-.03-.33-.28-.6-.2-.98.07-.34.02-.71.02-1.03-.16,0-.25,0-.24,0-.1.58-.2,1.17-.32,1.81-.17-.12-.25-.18-.33-.24.31-.08.55-.72.45-1.31-.07.23-.11.41-.19.56-.14.25-.31.48-.46.72-.1.16-.2.33-.24.51-.02.08.13.19.23.32.01,0-.07.04-.14.08-.1-.2-.19-.4-.32-.67-.31-.13-.39-.51-.02-.71.34-.18.6-.4.77-.74,0-.02.08,0,.11,0-.1.38-.52.62-.51,1.14.35-.37.6-.68.51-1.14ZM32.61,39.49c.19-.21.33-.34.43-.5.02-.03-.19-.25-.21-.24-.18.1-.35.24-.52.36.08.1.16.19.31.37ZM32.67,37.19c.06.41.11.78.16,1.14.33-.28.27-.91-.16-1.14ZM34.51,38.59c.02.06.05.12.07.18.16-.05.32-.1.48-.15-.05-.08-.12-.23-.15-.23-.14.04-.27.12-.41.19Z"/><path d="M86.87,73.45c.11-.39.45-.56.77-.59.59-.05,1.22-.08,1.8.06.73.17,1.42.53,2.14.78.62.21,1.26.34,1.9.13.15-.05.27-.21.36-.38,1.19-.09,2.3-.43,3.26-1.29-.07-.03-.12-.05-.16-.08-.03-.03-.05-.09-.08-.16.38-.18.77-.34,1.12-.55.12-.07.45-.1.26-.42-.02-.03.14-.17.22-.25.37-.37.73-.73,1.16-1.16-.22-.05-.32-.07-.46-.1.51-.59,1-1.16,1.5-1.73-.03-.04-.05-.09-.08-.13-.22.02-.44.04-.69.06.49-.74.98-1.48,1.47-2.21-.03-.04-.06-.08-.1-.12-.23.05-.45.09-.75.15.24-.54.45-1,.67-1.49-.41.19-.78.36-1.15.54-.03-.07-.06-.14-.08-.21-.28.16-.57.32-.86.49l-.09-.08c.28-.65.55-1.29.86-2.02-.24.04-.38.07-.57.1.42-.68.81-1.33,1.26-2.06-.34.03-.56.05-.79.07.19-.46.35-.87.52-1.28-.04-.03-.07-.06-.11-.09-.99.53-1.99,1.05-3.07,1.63.05-.27.07-.43.11-.66-.57.33-1.08.63-1.63.96v-.55c-.82.28-1.39.86-2.02,1.54-.02-.27-.04-.46-.06-.77-.67.82-1.28,1.56-1.93,2.36-.04-.19-.06-.3-.08-.4-.04-.02-.07-.04-.11-.05-.39.74-.77,1.48-1.17,2.24-.03-.01-.12-.05-.27-.11-.26.81-.52,1.6-.79,2.43-.07-.09-.14-.19-.29-.39-.12.49-.22.89-.31,1.3-.03.14,0,.29-.02.44-.03.24.03.57-.44.39,0,.51-.01.96,0,1.4.02.47-.21.81-.58,1.05-.34.22-.71.38-1.13.6.13-.25.22-.42.28-.52.14,0,.26.04.34,0,.59-.3.93-.75.9-1.44-.01-.28-.01-.56.04-.83.04-.21-.05-.53.34-.55.02,0,.04-.14.06-.22.15-.65.29-1.3.44-1.95.04,0,.08-.01.12-.02.06.08.12.16.21.28.05-.14.11-.27.15-.4.2-.55.38-1.11.59-1.66.05-.13.06-.38.35-.3.04.01.16-.27.25-.41.35-.59.7-1.19,1.05-1.78.04,0,.09,0,.13,0,.04.1.08.19.13.31.08-.11.11-.14.13-.16.49-.59.98-1.19,1.48-1.78.07-.08.19-.11.29-.16.04.15.08.31.13.48.62-.51,1.23-1.07,2.12-1.25-.03.19-.05.3-.08.44.56-.28,1.08-.55,1.69-.86-.05.28-.07.41-.11.6,1.03-.54,2.02-1.07,3.01-1.59.04.03.08.06.11.09-.16.47-.31.95-.47,1.44.2-.02.39-.05.71-.08-.36.69-.67,1.28-.99,1.9.05.01.14.04.31.08-.26.65-.52,1.29-.82,2.04.34-.25.62-.45.92-.67.02.14.04.24.06.43.4-.29.76-.54,1.12-.8.04.02.07.04.11.06-.2.52-.41,1.05-.63,1.62.23-.06.44-.11.65-.17.03.03.07.05.1.08-.18.38-.34.76-.54,1.12-.21.37-.47.72-.73,1.12h.69c-.25.38-.44.71-.66,1-.22.29-.47.56-.63.75.02.2.08.35.03.42-.36.46-.75.91-1.04,1.27-.07.2-.08.35-.15.4-.4.27-.82.52-1.13.71-.13.21-.18.37-.29.48-.78.7-1.68,1.1-2.73,1.18-.08,0-.18,0-.22.05-.57.68-1.33.63-2.06.46-.67-.15-1.32-.42-1.97-.67-.76-.29-1.52-.53-2.35-.33-.29.07-.61.12-.75.46-.07-.02-.14-.04-.21-.06Z"/><path d="M78.12,101.82c-.06-.33-.2-.66-.18-.98.06-.87.15-1.73.28-2.59.16-1.11.37-2.21.56-3.31.06-.33.15-.66.25-1.08-.64.55-1.18,1.01-1.23,1.88-.05.77-.26,1.53-.38,2.3-.08.5-.11,1-.19,1.49-.04.23-.14.46-.25.78-.2-.24-.33-.37-.44-.53-.46-.68-.91-1.38-1.39-2.04-.16-.21-.43-.34-.61-.54-.16-.17-.38-.41-.36-.59.02-.18.27-.41.47-.5.58-.24,1.18-.42,1.78-.61.95-.3,1.65-.94,2.33-1.69-.21-.03-.39-.05-.66-.09.54-.46,1-.85,1.53-1.31-.21-.03-.3-.05-.52-.08.29-.25.5-.44.79-.68.02.31-.49.47-.02.64-.02.05-.02.09-.03.1-.81.56-.61,1.5-.82,2.27-.22.84-.31,1.71-.44,2.57-.16,1.08-.33,2.17-.46,3.25-.04.29.04.59.07,1.01.18-.26.3-.41.4-.57.6-.92,1.57-1.27,2.52-1.65.57-.23,1.17-.4,1.71-.68.6-.3.6-.77.06-1.14-1.12-.77-1.62-1.95-2.07-3.15-.09-.24-.08-.49.3-.43.15-.59-.37-1.16-.04-1.74.1.64.21,1.28.31,1.95-.14.03-.25.05-.45.09.17.4.31.78.49,1.13.42.82.89,1.59,1.71,2.1.55.35.42,1.08-.23,1.38-.54.26-1.11.47-1.68.67-1.21.41-2.28.99-2.86,2.21-.03.06-.08.1-.12.15-.05,0-.09,0-.14,0ZM77.72,95.12c-.38.19-.75.41-1.15.56-.57.21-1.18.36-1.75.57-.18.06-.42.24-.43.39-.01.15.21.32.35.47.23.26.5.48.7.76.5.67.96,1.36,1.5,2.13.27-1.67.52-3.26.78-4.87Z"/><path d="M99.07,92.26c.24-.05.48-.11.72-.15,1.18-.2,2.36-.42,3.55-.58,1.43-.2,2.81-.56,4.1-1.22.16-.08.34-.13.56-.21-.7.6-2.1,1.18-2.87,1.31-1.56.26-3.13.47-4.69.74-1.47.26-2.8.87-3.99,1.78-.27.2-.55.39-.82.58-.02-.03-.04-.05-.07-.08.39-.35.76-.72,1.18-1.03,1.29-.95,2.03-2.31,2.77-3.67.82-1.51,1.7-2.98,2.55-4.47.06-.11.16-.19.29-.26-1.6,2.42-2.54,5.19-4.32,7.61,1.81-1.19,3.32-2.57,4.79-4.01,1.31-1.27,2.67-2.49,4.01-3.72.27-.25.59-.44.93-.61-3.09,2.44-5.5,5.63-8.71,7.99Z"/><path d="M86.87,73.45c.07.02.14.04.21.06.66-.07,1.34-.29,1.96-.18.58.1,1.09.56,1.63.86-.02.73.78.77,1.05,1.26.08.15.21.26.34.41-.29.21-.24.38-.01.59.2.19.33.44.49.66.04.05.09.13.07.18-.21.6.39.82.56,1.24.05.11.12.21.2.36-.21.05-.36.08-.55.12.15.18.28.33.41.48-.01.04-.02.09-.03.13-.71-.05-1.42-.09-2.15-.14v.56c-.86-.18-1.49-.65-2.1-1.27-.07.21-.13.4-.21.64-.72-.39-1.14-1.08-1.64-1.72-.09.13-.16.24-.28.41-.63-1.23-1.03-2.48-1.3-3.84-.51.32-.97.61-1.42.91-.73.47-1.46.93-2.18,1.41-.41.27-.67.67-.76,1.16-.28,1.46-.55,2.93-.83,4.39-.11.55-.22,1.11-.34,1.66,0,0,0,0,.01.01.03-.34.03-.68.08-1.01.23-1.47.52-2.94.69-4.41.13-1.13.71-1.87,1.65-2.43.85-.51,1.68-1.05,2.53-1.58.1-.06.21-.1.32-.14.26-.1.35-.03.44.27.3,1.03.67,2.04,1.01,3.06.02.05.06.08.11.14.08-.12.16-.24.22-.32.49.59.98,1.17,1.54,1.83.1-.34.16-.55.24-.81.59.57,1.15,1.12,1.96,1.35v-.55c.67.07,1.31.13,2.03.21-.17-.25-.27-.41-.4-.62.25-.02.44-.03.68-.05-.33-.46-.65-.88-.98-1.35.25-.06.34-.15.14-.38-.26-.29-.49-.61-.77-.97.08-.07.17-.14.34-.28-.48-.39-.96-.78-1.48-1.2.03-.06.07-.16.13-.26-.02-.03-.03-.07-.06-.09-.26-.15-.52-.29-.77-.45-.83-.53-1.69-.16-2.54-.09-.21.02-.42.05-.63.07-.01-.03-.03-.07-.04-.1.15-.07.31-.15.46-.22Z"/><path d="M38.45,56.16c.28-.1.31-.31.29-.57,0-.14.04-.28.12-.4.28.53-.1.85-.36,1.22.67-.12,1.15-1.05.9-1.7-.29-.74-.57-1.49-.84-2.24-.04-.12-.04-.26-.06-.38,0,0,0,0,0,0,.24.57.48,1.13.72,1.7.1.25.17.53.3.76.08.13.26.2.4.29,0,0,0-.01,0-.01-.05.19-.1.39-.15.58-.02.08-.05.16-.07.25-.31.29-.62.57-.92.86-.03.03,0,.16.03.2.14.13.77-.1.8-.3.04-.26.06-.52.08-.77.27.24.37.53.26.88-.34.17-.67.33-1.04.51.03.15.06.32.09.49l-.27-.02c0,.08-.04.17,0,.22.11.18.21.38.36.52.22.21.37.6.21.71-.29.2-.4-.11-.57-.25h0c-.03-.27-.03-.56-.1-.83-.03-.11-.22-.18-.34-.27-.02.03-.05.06-.07.09.02.1.03.19.06.38-.09-.13-.13-.19-.2-.29-.03.13-.05.23-.09.41-.04-.26-.08-.45-.11-.63-.03,0-.06-.02-.09-.03-.08.19-.16.38-.23.56h.01v-.64c-.26.27-.54.41-.49.79,0,.06.02.14,0,.2-.05.1-.12.19-.18.29-.05-.12-.16-.27-.12-.36.12-.27.28-.52.44-.78.05-.08.12-.16.19-.24-.34-.1-.81.31-.82.65,0,.16-.05.33-.12.47-.03.06-.16.11-.22.1-.06-.02-.12-.14-.11-.21.01-.12.06-.26.13-.36.27-.39.56-.76.84-1.14.05.03.1.06.15.08-.35.12-.69.24-1.04.36h0c.04-.09.08-.18.12-.27.31-.07.62-.14,1-.22q-.6-.27-1,.22h-.4c.38-.37.71-.78,1.32-.37-.4-.76-1.01-.58-1.56-.53-.04-.45.06-.55.42-.42.32.11.62.26.99.32-.16-.13-.32-.27-.48-.4-.03-.02-.08-.02-.1-.05-.08-.11-.17-.23-.2-.35-.01-.04.13-.19.16-.18.13.05.27.12.34.23.19.28.34.58.53.87.09.15.22.27.33.4.04-.01.08-.02.11-.04,0-.14-.02-.27-.03-.41h0c.29-.35.26-.85-.06-1.24-.14-.17-.23-.38-.34-.58l.14-.12c.1.09.24.17.31.29.3.49.24,1.04.24,1.58,0,.14,0,.28,0,.42.15-.1.29-.2.43-.3,0,0-.01,0-.01,0ZM38.23,57.12c.09.12.18.25.27.37.05-.02.11-.04.16-.06.02-.17.09-.36.04-.52-.04-.14-.21-.24-.31-.34-.07.23-.11.4-.16.56-.07-.16-.1-.41-.21-.44-.14-.04-.36.06-.49.17-.07.06-.04.25-.06.38.15,0,.31.03.46.02.1-.01.2-.08.3-.13Z"/><path d="M97.05,101.65c-.21-.22-.42-.44-.62-.68-.04-.05,0-.23.02-.24.37-.07.16-.26.07-.38-.21-.3-.45-.57-.67-.86-.09-.12-.17-.25-.28-.42.2-.02.34-.04.55-.06-.28-.42-.51-.81-.79-1.16-.18-.22-.14-.32.14-.42-.8-.7-1.54-1.45-2.69-1.76.14-.11.27-.27.43-.31,1.46-.4,2.93-.54,4.42-.19.31.07.61.16.92.18.17,0,.35-.05.49,0,.7.3,1.42.41,2.2.32-.12-.22-.23-.42-.35-.63.57-.07,1.09-.12,1.6-.19.16-.02.4,0,.35-.3,0-.02.05-.07.08-.08.74-.18,1.49-.35,2.23-.52,0,0,.02.02.11.09-.6.29-1.2.39-1.82.5.03.07.06.13.12.28-.76.15-1.49.3-2.23.45.05.13.11.28.17.44-.34.37-.78.2-1.17.18-.33-.01-.65-.13-.98-.19-.56-.1-1.13-.17-1.69-.29-1.18-.24-2.34-.35-3.52,0-.26.08-.53.09-.88.15,1.02.52,1.89,1.08,2.52,1.93.07.09.03.26.04.4,0,.08,0,.17.04.24.12.22.26.42.37.65.05.11.1.33.05.36-.31.24-.06.38.06.56.17.25.36.49.48.77.08.18.03.42.06.63.03.19.09.37.14.56,0,0,.01-.01.01-.01Z"/><path d="M38.99,41.91c0,.1,0,.2.01.3-.06-.09-.13-.17-.19-.26-.11.53.26.76.48,1.08-.14-.1-.3-.19-.42-.32-.11-.12-.19-.27-.25-.37-.21.03-.38.05-.63.08-.13.17-.23.41,0,.72.06.09.03.26,0,.39-.01.07-.08.18-.14.19-.07,0-.16-.06-.19-.08.1-.15.17-.25.24-.35-.07-.02-.14-.04-.23-.06.03-.13.07-.31.13-.55-.51.39-.95.73-1.4,1.07,0,0,.01,0,.01,0,0-.08,0-.16,0-.24.29-.25.57-.51.91-.8-.14-.17-.27-.34-.41-.5-.03-.03-.08-.08-.09-.07-.19.13-.34.05-.34-.13,0-.14.11-.35.23-.4.33-.14.69-.22,1.01-.32-.26-.29-.66-.39-1.08-.25-.13.04-.29,0-.43-.02-.04,0-.08-.18-.06-.19.13-.07.29-.2.4-.17.41.1.82.26,1.26.4-.16-.21-.33-.41-.46-.63-.09-.15-.27-.29-.09-.53.04-.06-.09-.25-.15-.42,0,0,.13-.03.14-.01.06.14.15.29.13.43-.06.35.07.59.4.76-.05-.1-.12-.19-.13-.3-.02-.14,0-.29.04-.43,0-.02.19-.04.2-.02.05.12.1.25.11.38.02.21,0,.43.01.65,0,.05.11.1.27.13-.04-.47-.06-.94-.11-1.41-.03-.24.01-.41.36-.5-.07.68-.14,1.31-.21,1.95.05,0,.1.01.15.02.02-.09.04-.19.06-.29.04.06.09.12.18.24.02-.27.04-.47.06-.67.17-.14.28-.12.28.13,0,.12-.03.25-.05.37v.25c.2-.1.37-.18.53-.26.04.05.08.1.12.15-.07.1-.14.19-.21.29.1.02.19.04.29.06.04.15.07.31.11.46,0,0,.01-.01.01-.01-.3-.05-.6-.1-.92-.16.01.05.04.15.06.24ZM38.85,41.5c-.14-.13-.26-.27-.28-.26-.12.08-.24.17-.29.29-.02.05.13.18.21.27.11-.09.21-.18.37-.31Z"/><path d="M79.78,89.68c-.38.49-.73,1-1.14,1.46-.78.88-1.69,1.6-2.71,2.18-.76.43-1.11,1.16-1.44,1.9-.1.23-.21.47-.31.7-.04-.01-.08-.02-.12-.03.08-.28.14-.56.26-.83.3-.67.61-1.34.95-1.99.21-.39.21-.79.1-1.19-.26-1.03-.56-2.05-.81-3.08-.08-.34-.07-.7-.1-1.03.38,1.5.76,3.02,1.14,4.53.03,0,.06.02.1.03.49-1.23.97-2.46,1.47-3.68.17-.42.05-.79-.15-1.13-.5-.84-.45-1.73-.32-2.64-.09,1.03.05,2.01.63,2.89.05,0,.09,0,.14,0,.18-1.48.37-2.96.54-4.37.16.6-.15,3.9-.58,5.08-.6,1.63-1.27,3.23-1.91,4.84,1.64-.92,3.01-2.2,4.15-3.75.04.03.07.06.11.1Z"/><path d="M40.88,51.13c.03-.07.05-.14.11-.28h-1.33c.05-.16.05-.39.14-.43.11-.05.31.02.44.09.42.22.83.29,1.32.12-.08-.07-.14-.12-.22-.18.09-.03.17-.05.24-.07-.14-.3-.27-.58-.34-.72.03-.45.05-.78.07-1.11.02,0,.04,0,.06,0,.02.22.04.44.04.66,0,.33.02.63.38.8.03-.44.06-.86.1-1.28h-.01c.01.22.02.45.04.68.01.15.04.3.1.44.14-.35-.11-.8.32-1.07.3.14.06.27.01.42-.08.27-.12.56-.16.84,0,.02.1.06.15.09-.04.08-.13.16-.12.23.02.14.09.27.17.39.02.03.23-.03.23-.05,0-.13,0-.27-.05-.38-.04-.08-.15-.13-.23-.19.02-.06.04-.11.06-.17.07.03.15.05.21.1.14.1.27.22.41.34,0,0-.04.07-.07.11.19.05.37.09.53.15.22.09.42.11.62-.07.07-.06.21-.06.32-.07.02,0,.08.14.06.16-.07.07-.17.14-.26.18-.05.03-.13.01-.2.01.04.14.07.28.1.41.02.09.05.18.08.27-.12.03-.26.12-.36.09-.19-.06-.37-.19-.55-.29.05,0,.1.01.15.02.1.01.2.02.31.03-.01-.11,0-.23-.04-.33-.1-.24-.56-.36-.97-.23.21.19.39.36.57.53-.18-.09-.36-.18-.55-.27-.08.09-.18.2-.34.39v.35s-.03,0-.05,0c-.01-.08,0-.19-.04-.24-.08-.08-.2-.13-.3-.19-.04.1-.13.21-.1.28.08.23.19.45.31.65.14.22.24.43-.09.75-.16-.59-.3-1.09-.44-1.6-.02,0-.05,0-.07,0-.03.49-.07.98-.1,1.46.03,0,.07.02.1.02l.19-.24s.05.04.08.05c-.07.11-.15.22-.22.33-.1-.13-.29-.26-.28-.38.02-.48.09-.96.15-1.44-.54.04-.75.29-.67.8.04.26-.03.48-.29.52-.26.03-.29-.19-.28-.41,0-.16-.23-.47.22-.31.02,0,.1-.04.1-.05-.1-.43.37-.45.51-.73-.08-.01-.15-.02-.22-.03h0Z"/><path d="M36.98,32.11c.02.3.03.59.05.98.49-.25.96-.47,1.42-.71.16-.09.31-.21.46-.32.08.16.16.32.27.54-.58.17-1.09.32-1.62.47.09.04.18.08.27.12-.02.02-.03.05-.04.04-.13-.01-.26-.04-.38-.05-.12,0-.32-.04-.36.02-.08.12-.08.3-.11.47q-.42,0-.5.6c-.23-.08-.48-.16-.78-.26-.05-.13-.23-.35-.21-.55.04-.47.05-.89-.07-1.37-.1-.38.04-.86-.08-1.3-.03-.11.11-.27.2-.39.02-.03.2,0,.21.02.04.15.09.32.05.45-.09.29-.26.53.08.8.09.07.03.35.04.53,0,.16,0,.33.06.5.06-.52.11-1.04.18-1.55.05-.42.1-.83.2-1.24.03-.14.19-.26.31-.36.03-.03.24.08.24.12,0,.16,0,.36-.1.47-.7.75-.64,1.68-.58,2.6.05-.31.07-.63.17-.93.16-.52.36-1.03.54-1.55.05-.15.11-.29.18-.43.07-.14.13-.32.24-.4.18-.12.4-.18.62-.24.02,0,.15.2.13.23-.14.17-.29.43-.47.46-.32.06-.48.23-.61.48-.38.74-.67,1.5-.64,2.43.34-.53.64-1,.93-1.46-.1.26-.2.52-.3.77ZM35.73,33.03c-.15.66-.04.88.35.9-.11-.29-.23-.59-.35-.9ZM36.54,33.48c-.12-.15-.2-.25-.29-.35-.07.09-.21.19-.2.27,0,.1.13.2.21.3.08-.06.16-.13.28-.23ZM37.78,29.26c-.16.15-.32.29-.48.44.03.03.06.07.09.1.21-.09.52-.08.39-.53ZM36.73,33.36c.05-.03.1-.06.15-.09-.06-.13-.1-.29-.2-.39-.05-.05-.21.02-.37.04.18.19.3.31.42.43Z"/><path d="M70.67,60.94c.33,1.07.28,2.14.09,3.21-.15.79-.09,1.48.36,2.18.59.93,1.08,1.93,1.67,3,.2-1.97.93-3.75.8-5.65,0,.72.07,1.45-.02,2.15-.16,1.28-.42,2.54-.63,3.8-.09-.11-.26-.27-.35-.47-.21-.49-.62-.7-1.07-.89-.75-.31-1.49-.63-2.24-.96-.1-.04-.19-.12-.25-.23.95.38,1.9.76,2.86,1.15-.73-1.4-1.47-2.8-2.18-4.2-.72-1.42-1.29-2.9-1.74-4.43.81,1.8,1.63,3.61,2.44,5.41.03,0,.07-.02.1-.03.18-1.35.43-2.69.16-4.06Z"/><path d="M35.39,26.8c.33.36.3.76-.11,1.23-.2.23-.4.45-.63.64-.61.51-.74,1.18-.67,1.92.08.8.16,1.6.24,2.39h0c-.04-.06-.1-.1-.11-.15-.09-.96-.22-1.91-.25-2.87-.04-1.36-.01-2.72-.01-4.14-.45.68-.19,1.38-.28,2.01-.11-.44-.17-.92-.36-1.35-.2-.46-.6-.74-1.11-.86-.62-.14-1-.5-1.04-.99-.05-.54.2-.92.65-1.02.4-.09.9.22,1.04.67.08.26.13.54.12.81-.03.53.28.83.64,1.19.23-.8.24-1.54.03-2.3-.11-.41-.25-.87.17-1.23-.28.78.06,1.51.13,2.28.14-.22.24-.42.38-.59.15-.18.34-.33.49-.51.27-.32.33-.71.14-1.06-.19-.35-.55-.42-.93-.3.24-.28.69-.23.96.1.36.44.36,1.06-.12,1.46-.7.58-.87,1.29-.83,2.14.04.89,0,1.79,0,2.69.04,0,.07.02.11.03.04-.13.12-.26.12-.39.02-.45,0-.9,0-1.35,0-.38.19-.62.54-.69-.76.61-.35,1.41-.45,2.24.64-.61,1.33-1.05,1.09-1.99ZM32.78,25.7c-.05-.48-.06-.88-.15-1.25-.09-.37-.35-.62-.76-.62-.3,0-.48.17-.57.45-.11.34,0,.71.35.92.33.2.7.32,1.13.51Z"/><path d="M90.22,103.78c-.8-.41-1.57-.84-2.47-.85-.03.04-.07.08-.1.12,1.51,1.83,3.03,3.65,4.54,5.48-.02.02-.05.04-.07.06-1.94-1.97-3.59-4.19-5.41-6.28-.22,2.33.71,4.46.92,6.71-.17-.63-.35-1.26-.5-1.9-.15-.6-.31-1.2-.38-1.81-.12-.99-.16-1.99-.25-2.99-.02-.22-.09-.45-.2-.64-.47-.86-.96-1.7-1.45-2.55,0-.01.02-.05.06-.16.36.62.64,1.21,1.01,1.75.43.64.92,1.24,1.41,1.84.07.09.25.12.39.13.86.07,1.62.41,2.32.89.07.05.12.14.18.21Z"/><path d="M36.12,51.13c0-.08-.02-.15-.04-.32-.33.29-.61.53-.89.78-.03-.03-.05-.06-.08-.09.33-.28.66-.55.99-.83-.31-.09-.77.02-1.24.35-.17.12-.27.32-.41.47-.1.11-.2.22-.3.32,0,0-.16-.1-.16-.14.03-.15.06-.38.16-.44.46-.26.95-.47,1.43-.7.08-.04.16-.06.24-.14-.61,0-1.07-.23-1.38-.71.02-.05.04-.09.07-.14.14.06.31.08.4.18.43.46.51.5,1.21.41-.17-.15-.31-.28-.44-.4,0-.01.01-.03.02-.04.17.09.35.18.59.3v-.7h0c.03.21.06.4.1.63.18-.08.36-.17.54-.26.05.01.1.02.16.03-.06.15-.13.3-.19.46.18-.04.37-.06.55-.12.09-.03.14-.15.21-.24-.13-.09.06-.42-.27-.36-.03-.31-.06-.63-.1-.94.07.06.15.13.22.19.09-.06.19-.12.29-.19h0c.08.21.17.42.25.63,0,0,0,0,0,0-.08-.06-.16-.12-.23-.17-.28.31-.18.6.14.9.08.07.03.28.04.51.13-.02.3-.04.47-.07,0-.03-.01-.06-.02-.09.1.03.21.04.3.1.1.06.23.13.25.23.02.08-.06.25-.13.28-.09.03-.23-.03-.33-.08-.15-.08-.28-.18-.42-.28-.04.04-.08.08-.12.12.08.12.17.24.24.37.06.11.08.23.12.35-.12.02-.23.05-.35.07h.01c-.14-.19-.25-.43-.43-.59-.12-.1-.38-.17-.51-.1-.25.13-.44.34-.36.7.1.42.14.85.19,1.28,0,.07-.07.15-.11.23-.07-.06-.18-.12-.19-.19-.03-.12,0-.26,0-.39,0-.38,0-.75,0-1.13-.03,0-.06,0-.1-.01-.03.15-.06.31-.09.46-.02,0-.04,0-.06,0v-.81c-.13.17-.19.25-.25.33h.01ZM36.81,50.45c-.19-.18-.29-.31-.42-.38-.03-.02-.24.16-.23.23.02.13.12.28.23.34.06.03.22-.09.42-.19Z"/><path d="M43.52,58.74c-.1.1-.35.1-.2.36.04.07-.09.23-.15.35-.09-.09-.18-.18-.26-.28-.02-.02.01-.08,0-.11-.04-.13-.09-.25-.13-.37-.11.08-.22.15-.32.23-.04.03-.06.08-.15.09.08-.16.16-.32.24-.47-.03-.02-.05-.04-.08-.06-.13.2-.27.39-.4.59-.09.13-.17.26-.26.4,0,0,0,0,0,0,.2-.43.4-.85.6-1.29.06.04.04.02.02.01-.14-.07-.29-.12-.42-.21-.02-.01.04-.22.08-.23.18-.02.37-.02.55.02.11.02.21.11.4.21-.37-.59-.81-.69-1.26-.4-.08.05-.21.07-.32.06-.04,0-.12-.16-.1-.17.07-.08.16-.18.26-.2.21-.04.44-.04.69-.14-.15-.09-.3-.16-.44-.26-.12-.09-.27-.18-.33-.3-.11-.2.05-.39.27-.31.15.05.34.16.4.29.2.42.33.88.93.96v-.9s.07,0,.1,0v.82s.08,0,.13,0v-.86s.07,0,.1,0v.9c.42-.4.41-.89.59-1.3h-.01c.02.1.04.21.04.21.35-.3.72-.63,1.1-.95.07-.06.18-.1.27-.1.05,0,.1.1.15.16-.07.07-.14.15-.22.2-.16.09-.33.16-.49.25-.29.18-.43.4-.41.79.01.26-.28.54-.46.85.16.05.38.13.6.21-.03.02-.1.05-.23.13.3.02.53.04.76.06,0,.02,0,.04,0,.06-.34.02-.67.04-1.12.07.16.19.25.3.38.46-.17-.09-.27-.14-.27-.14-.27.14-.47.25-.67.35.05-.14.11-.28.19-.49-.23.03-.36.04-.5.06.01-.02.03-.04.04-.06-.18-.09-.37-.17-.61-.29.04.5.04.5.42.52.03,0,.05.07.08.08.13.06.26.11.39.16ZM43.44,57.41c-.14.22-.29.35-.27.45.02.11.19.26.3.27.09,0,.26-.17.26-.28,0-.1-.14-.22-.29-.44ZM44.23,56.6c-.16.25-.31.51-.51.84.45-.17.67-.38.51-.84Z"/><path d="M79,72.57c-.18-.19-.06-.29.09-.41.3-.23.58-.47.92-.75-.22-.07-.35-.11-.51-.17.48-.52.9-1.03.95-1.75-.12-.04-.24-.08-.36-.12.17-.63.33-1.24.51-1.92-.22.06-.35.1-.52.14.07-.52.13-1.01.21-1.62-.48.56-.82,1.13-1.49,1.4.01-.22.02-.38.04-.65-.43.42-.79.78-1.21,1.19-.06-.17-.09-.27-.16-.49-.27.41-.49.75-.74,1.14-.07-.14-.13-.24-.21-.4-.41.55-.39,1.21-.7,1.84-.04-.11-.09-.22-.13-.34-.03.02-.07.04-.1.06-.04.13-.08.25-.12.38-.03,0-.05-.01-.08-.02.04-.21.08-.41.13-.65.13.04.24.07.28.09.2-.6.4-1.18.63-1.85.17.22.26.33.34.44.24-.34.48-.66.76-1.05.08.21.13.34.19.48.38-.35.75-.7,1.2-1.12.04.21.07.39.11.61.61-.37.95-.96,1.29-1.56l.12.03c-.04.59-.08,1.17-.12,1.8.1-.04.2-.08.32-.14.13.73-.16,1.36-.35,2.03.12.02.23.03.37.05-.05.71-.38,1.29-.81,1.86.13.03.23.05.43.1-.24.28-.45.5-.64.74-.15.18-.28.38-.43.56-.04.05-.14.05-.21.07h0Z"/><path d="M72.6,73.79c-.18-.19-.3-.32-.41-.45.01-.02.02-.03.03-.05.05.02.12.03.15.07.32.37.66.25,1.05.11.5-.18,1.02-.3,1.53-.44.02.05.03.1.05.16-.09.04-.17.1-.27.11-.58.09-.85.42-.98.99-.16.69-.44,1.36-.67,2.04-.05-.01-.09-.03-.14-.04.29-.86.59-1.72.88-2.59-.04-.03-.09-.05-.13-.08-.6.22-1.23.38-1.78.69-.26.15-.36.59-.55.89-.31.5-.64.99-.95,1.48-.05.07-.09.15-.21.16.44-.76.88-1.52,1.31-2.28-.02-.03-.04-.06-.07-.09-1.69.53-3.38,1.06-5.18,1.03,1.12-.24,2.24-.47,3.35-.71,0-.05,0-.09.01-.14l-.94-.61s.03-.05.05-.08c.34.2.68.41,1.02.61.07.04.17.12.23.1.85-.28,1.7-.58,2.6-.89Z"/><path d="M84.24,97.92c.19-1.24-.59-2.22-.84-3.34-.26-1.14-.53-2.27-.79-3.41-.03-.12,0-.26.03-.4.33,1.83.76,3.63,1.57,5.32.39-3.01,1.3-5.87,2.06-8.78.05.01.09.02.14.03-.3,1.16-.61,2.33-.89,3.5-.28,1.16-.58,2.33-.77,3.51-.19,1.18-.26,2.38-.38,3.57h-.13Z"/><path d="M43.75,65.73c-.37-.47-.29-1.02-.2-1.53.1-.55.37-1.01.93-1.28.25-.12.42-.42.66-.68-.2-.1-.3-.15-.38-.19-.76.78-1.46,1.59-1.42,2.88-.38-1.01-.69-1.91-1.07-2.78-.35-.8-.21-1.6-.14-2.42-.2,1.57.45,2.92,1.03,4.29.27-.44.56-.84.78-1.28.1-.2.04-.48.13-.69.18-.41.41-.8.62-1.2-.14.42-.27.85-.41,1.27l.13.05c.14-.27.28-.54.47-.9.02.29.03.46.04.66.42-.35.48-1.14.16-1.5-.13.14-.27.29-.4.43.16-.19.34-.54.47-.53.29.04.26.39.23.63-.07.5-.14,1.01-.28,1.5-.06.21-.23.45-.42.54-.98.49-1.06,1.35-1,2.28,0,.14.03.29.04.43h0Z"/><path d="M100.28,48.77c.11-.16.23-.33.35-.5-.06-.04-.15-.11-.28-.21.4-.46.8-.92,1.2-1.4-.15-.09-.26-.16-.36-.22.26-.43.51-.85.77-1.26-.03-.03-.07-.06-.1-.09-.36.23-.72.44-1.06.68-.24.17-.42.24-.48-.17-.45.23-.87.45-1.36.71.02-.18.03-.27.05-.41-.7.16-1.38.32-2.1.48v-.5c-.9.08-1.69.42-2.55.77.03-.16.05-.26.08-.42-.49.22-.93.42-1.37.62,0-.01-.02-.02-.03-.03.52-.3,1.05-.6,1.67-.95-.02.26-.02.36-.03.42.79-.22,1.58-.44,2.4-.68.02.21.03.35.04.56.56-.13,1.11-.26,1.65-.37.16-.03.41-.2.46.21.4-.22.78-.44,1.18-.65.05.11.1.21.17.36.54-.34,1.05-.67,1.56-1,.04.02.08.05.12.07-.26.52-.52,1.04-.8,1.59.05.03.15.09.32.2-.39.48-.78.96-1.18,1.44.11.08.2.16.35.28-.24.17-.46.33-.68.48h0Z"/><path d="M47.05,73.07c-.46-.54-.74-1.17-.84-1.87-.03-.2.07-.44.15-.64.32-.84.37-1.79,1.18-2.53-.29.06-.45.09-.67.14.02-.13.04-.22.05-.31-.04.02-.08.04-.12.06-.07-.08-.2-.17-.19-.25.04-.36.11-.72.13-1.13-.03.07-.06.13-.08.2-.03-.02-.06-.05-.1-.07.26-.45.54-.9.97-1.23-.12.28-.23.58-.38.85-.32.56-.4.84-.29,1.35.15-.38.28-.68.4-.99.03,0,.06.02.09.03-.1.44-.19.88-.29,1.34,1.01-.42,1.13-1.24.67-2.76-.07.07-.14.13-.21.2l.23-.63s.09.01.13.02c.13.58.28,1.16.37,1.75.09.57-.16,1.09-.55,1.46-.65.61-.88,1.4-1.11,2.21-.08.26-.25.53-.22.78.05.42.21.83.35,1.23.09.26.24.51.36.77-.01.01-.02.02-.03.03Z"/><path d="M43.5,66.14c.06.14.13.27.2.41-.1.03-.13.05-.14.05-.59-.51-1.29-.84-2.04-1.04-.51-.14-.77-.44-.88-.93-.03-.13-.11-.27-.2-.36-.05-.05-.17-.02-.26-.02-.55-.48-1.2-.68-1.91-.65.37,1.08,1.03,1.91,1.84,1.55-.25-.14-.5-.25-.72-.41-.21-.14-.39-.33-.58-.5.02-.02.04-.05.07-.07l1.48.82s.06-.05.09-.07c-.09-.23-.19-.46-.28-.68.29.14.48.55.38.79-.1.23-.65.47-.93.37-.17-.06-.33-.16-.5-.22-.03-.01-.09.07-.14.1h0c-.44-.59-.73-1.25-1.03-1.98.76.17,1.43.26,2.07.48.46.16.8.53.87,1.08.04.37.37.44.64.56.57.25,1.14.5,1.72.75.07.03.17,0,.25-.01h0Z"/><path d="M88.77,52.27c.44.24.84.46,1.23.68-.01.03-.03.05-.04.08-.49-.19-.97-.51-1.47-.53-.5-.02-1.02.24-1.55.32.85-.32,1.7-.64,2.55-.98.24-.1.46-.25.7-.39.05,0,.16.07.24.04,1.42-.52,2.84-1.01,4.23-1.59.97-.4,1.9-.92,2.85-1.38.03-.01.07,0,.22,0-1.92,1.17-3.93,1.91-5.98,2.76.51.26,1.01.51,1.52.77-.01.03-.03.06-.04.09-.46-.22-.92-.46-1.4-.66-.19-.08-.44-.15-.62-.1-.81.26-1.61.57-2.45.89Z"/><path d="M42.55,72.17c-.11-.28-.23-.56-.31-.85-.08-.27-.1-.56-.15-.84.03-.02.07-.04.1-.06.12.26.26.51.36.78.16.45.28.93.86,1.18-.16-.37-.29-.67-.42-.97.03-.02.07-.05.1-.07l.74.85s.06-.05.09-.08c-.22-.75-.81-1.27-1.22-1.91.59.56,1.34.98,1.53,1.87.09.43.33.73.77.87.4.13.8.29,1.27.47-.24-.64-.45-1.19-.66-1.75.03-.01.06-.02.09-.04.27.61.55,1.23.88,1.97-.33-.08-.57-.12-.8-.2-.37-.12-.74-.25-1.11-.38h.02c-.19-.22-.38-.45-.56-.68-.2-.05-.41-.11-.62-.17.02.09.05.21.11.42-.61-.18-.94-.56-1.18-1.06.03.21.07.42.1.63h0Z"/><path d="M90.91,70.18c.24-.35.48-.7.69-.99,0,.03,0,.16.02.38.54-.46,1.04-.85,1.51-1.28.8-.73,1.58-1.48,2.36-2.24.17-.17.28-.39.38-.53.13-.08.24-.11.31-.19.79-.96,1.57-1.92,2.36-2.89.07-.08.13-.16.2-.25.03.02.06.05.09.07-.44.59-.86,1.19-1.32,1.77-1.69,2.13-3.68,3.97-5.8,5.67-.24.19-.51.34-.76.51-.01-.01-.02-.02-.03-.03Z"/><path d="M84.22,87.85c.14-.36.24-.74.43-1.07.09-.16.02-.61.47-.41,0,0,.08-.11.11-.18.3-.59.6-1.19.92-1.78.07-.12.2-.21.35-.38.05.21.08.32.12.5.62-.77,1.22-1.5,1.82-2.24l.12.08c-.2.74-.4,1.48-.6,2.21-.04,0-.09-.02-.13-.02.09-.46.18-.91.27-1.37-.02-.01-.05-.03-.07-.04-.48.58-.96,1.17-1.48,1.81-.12-.18-.16-.25-.25-.39-.37.71-.72,1.37-1.07,2.05-.13-.06-.22-.1-.31-.15-.2.48-.39.95-.58,1.41-.04-.01-.07-.03-.11-.04Z"/><path d="M38.97,65.27c.48.29.99.35,1.55.27.27-.04.57.05.84.15.43.15.84.37,1.26.54.66.27,1.09.76,1.44,1.38.64,1.15,1.04,2.38,1.48,3.6-.04.02-.08.03-.12.05-.16-.4-.36-.8-.48-1.21-.3-1.05-.81-1.99-1.38-2.9-.35-.55-.98-.72-1.54-.99-.14-.07-.3-.1-.43-.18-.48-.25-.95-.36-1.52-.26-.4.07-.86,0-1.1-.46,0,0,0,0,0,0Z"/><path d="M48.98,78.78c.2.21.43.4.59.64.31.48.56.99.64,1.67-1.03-.3-1.99-.59-2.98-.88.06.1.11.17.16.24,0,0,0,0,0,0-.22-.08-.43-.18-.65-.23-.58-.13-1.16-.25-1.55-.33h1.39c-.39-.44-.65-1.1-1.31-1.36h0c.42.04.79.24.95.61.3.67.88.89,1.49,1.08.76.24,1.52.46,2.32.7-.13-.72-.48-1.31-.9-1.87-.06-.08-.1-.17-.14-.26,0,0,0,0,0,0Z"/><path d="M87.14,53.72c.4.35.79.72,1.2,1.06.22.18.48.3.81.5-.02-.27-.03-.39-.04-.59.7.14,1.38.28,2.08.42v-.27h2.19c.19-.15.3-.24.49-.39-.02.28-.03.42-.03.54-.63,0-1.26.01-1.89,0-.26,0-.48-.01-.47.37-.72-.14-1.4-.27-2.11-.41.02.17.03.3.06.54-.31-.12-.6-.15-.8-.31-.52-.42-1-.89-1.49-1.34-.01-.01.01-.07.02-.11,0,0,0,0,0,0Z"/><path d="M51.6,79.25c0,.57.02,1.14-.02,1.7-.07,1.26.46,2.32,1.09,3.34.64,1.04,1.32,2.04,1.98,3.06.04.06.04.15.07.22l-.02.02c-.37-.53-.74-1.06-1.11-1.59-.37-.54-.78-1.06-1.09-1.63-.58-1.07-1.16-2.15-1.04-3.44.04-.43,0-.87.03-1.31,0-.13.08-.25.13-.37h0Z"/><path d="M76.02,72.43c.29-.49.58-.99.88-1.49-.02-.02-.04-.04-.06-.06.01.13.02.26.04.4.03.02.05.04.08.06.68-.92,1.36-1.83,2.04-2.75l.06.03c-.34.58-.69,1.15-1.09,1.82.56-.13,1.02-.24,1.47-.34,0,.03.02.07.03.1-.42.11-.83.27-1.26.33-.32.04-.53.18-.71.43-.17.23-.35.45-.57.73.42.08.77.15,1.13.21v.03c-.07,0-.15.02-.22.02-.85.03-.95.06-1.75.49-.03.02-.07,0-.06,0Z"/><path d="M89.96,70.89c.32-.24.63-.48.95-.72.01.01.02.02.03.03-.02.06-.04.12-.06.2,2.18-.28,4.32-.64,6.19-1.92.02.05.04.1.06.15-.52.28-1.03.59-1.56.84-1.23.56-2.54.81-3.87.99-.58.07-1.15.3-1.72.46l-.02-.02Z"/><path d="M82.95,87.46c.16-.12.27-.21.47-.36.18.47.33.89.49,1.32l-.09.04c-.16-.33-.32-.67-.49-1.04-.18.16-.31.28-.47.43-.09-.26-.17-.48-.29-.82-.09.59-.15,1.08-.23,1.56-.03.21.01.45-.32.49-.07,0-.11.22-.16.34-.05.12-.08.25-.15.47-.13-.49.05-1.01.31-1.25.09-.08.15-.22.17-.34.06-.42.09-.84.14-1.26.02-.17.09-.33.13-.5.05,0,.09,0,.14,0,.1.29.21.59.33.93Z"/><path d="M36.98,32.11c.1-.26.2-.52.3-.77.11-.28.22-.57.33-.85.09-.22.22-.38.5-.33.28.05.39-.15.49-.36.07-.17.13-.35.25-.48.08-.08.25-.07.38-.1,0,.13.05.29,0,.38-.07.13-.21.23-.35.3-.32.16-.56.33-.65.72-.04.18-.32.29-.44.46-.19.26-.33.56-.52.82-.07.09-.2.14-.3.21Z"/><path d="M41.81,59.44v1.34s-.05.01-.07.02c-.34-1-.7-1.99-1.01-3-.23-.75-.38-1.52-.58-2.28-.06-.24-.17-.46-.25-.69,0,0,0,.01,0,0,0-.11.02-.22.04-.44.55,1.91,1.07,3.73,1.59,5.54.03,0,.07-.01.1-.02.06-.16.11-.32.17-.48,0,0,0,0,0,0Z"/><path d="M92.25,96.11c1.15,1.51,1.47,3.45,2.66,4.97-.06-.03-.15-.05-.18-.1-.38-.59-.8-1.17-1.13-1.79-.39-.75-.7-1.55-1.05-2.33-.11-.25-.2-.5-.3-.75Z"/><path d="M39,40.89c.02-.12.04-.25.05-.37,0-.24-.1-.26-.28-.13.03-.29-.01-.62.11-.86.11-.22.41-.35.66-.55.04.13.08.27.13.44.21,0,.36.1.2.34-.27.39-.58.75-.88,1.13Z"/><path d="M54.72,87.57c.31.46.64.91.93,1.38.95,1.53,1.88,3.07,2.82,4.6.04.06.04.15.06.22,0,0-.02.02-.02.02-.31-.45-.64-.88-.92-1.34-.95-1.54-1.89-3.09-2.83-4.64-.04-.06-.04-.15-.06-.22l.02-.02Z"/><path d="M85.64,66.1c-.08,1.82-.17,3.65-.25,5.39-.19-.44-.42-.96-.65-1.48.01,0,.02-.02.03-.02.15.21.3.43.42.6.11-1.48.22-2.98.33-4.49.03,0,.07,0,.1,0Z"/><path d="M53.97,87.84c-.32-.47-.66-.93-.94-1.43-.73-1.27-1.43-2.55-2.14-3.82-.09-.16-.16-.32-.24-.48l.02-.02c.3.45.62.89.9,1.35.79,1.36,1.57,2.74,2.35,4.12.04.08.06.17.09.25-.01,0-.02.02-.03.03Z"/><path d="M45.27,78.52c-.17.01-.34.02-.63.04.56.22,1.07.35,1.3.92-.24-.04-.45-.07-.72-.11.15.13.24.22.4.36-.94-.12-1.89.06-2.38-.93.48.34.89.86,1.59.68-.07-.09-.14-.17-.23-.28.36.03.68.05,1,.08.01-.05.03-.09.04-.14-.51-.21-1.02-.42-1.52-.64,0-.04,0-.07,0-.11.38.05.76.1,1.14.15,0,0,0,0,0,0Z"/><path d="M93.08,46.85c-.28.23-.55.47-.83.7-.04.03-.12.07-.14.05-.38-.3-.52.09-.71.26-.28.25-.5.57-.78.82-.15.14-.19.53-.56.28-.03-.02-.19.08-.25.16-.35.37-.69.75-1.04,1.12-.06.07-.15.12-.23.17,0,0,0,0,0,0,.18-.27.32-.57.54-.79.38-.37.67-.9,1.31-.91.04,0,.07-.1.11-.15.31-.33.62-.67.93-1,.18-.18.37-.32.66-.24.08.02.2-.06.3-.11.22-.13.44-.26.66-.4,0,.01.02.02.03.03Z"/><path d="M43.5,66.14c-.3-.62-.61-1.23-.88-1.86-.41-.93-.8-1.87-1.19-2.82-.13-.32-.23-.65-.35-.98.04-.01.07-.03.11-.04.1.28.19.55.31.82.64,1.49,1.28,2.97,1.92,4.45.05.13.06.28.08.42,0,0,0,0,0,0Z"/><path d="M39.73,41.38c-.1-.02-.19-.04-.29-.06.11-.03.24-.03.34-.09.18-.11.52-.08.46-.41-.21.07-.4.14-.59.21l-.12-.15c.17-.23.44-.41.39-.76,0-.06.12-.15.23-.28.11.38-.25.95.55.74,0,.04.01.08.02.12-.13.17-.25.34-.39.51.04,0,.11-.01.16.02.09.06.16.13.23.2-.11.05-.22.15-.31.13-.23-.04-.45-.13-.67-.19Z"/><path d="M51.37,78.77c-.19-.06-.37-.11-.6-.18.11.2.24.43.36.66h0c-.16-.23-.42-.44-.46-.69-.08-.47-.06-.95.19-1.42.26-.47.43-.99.68-1.48-.23.91-.77,1.75-.59,2.72.04,0,.09.02.13.02.02-.13.05-.26.07-.39h.07c.05.24.09.5.14.76,0,0,0,0,0,0Z"/><path d="M37.43,32.41s-.03-.04-.02-.05c.36-.34.72-.69,1.09-1.02.16-.14.35-.25.51-.4.12-.11.2-.27.33-.38.05-.04.18.03.27.05-.02.09-.01.2-.06.25-.09.09-.22.14-.31.23-.14.14-.26.31-.39.47-.06.07-.09.18-.16.21-.41.22-.83.42-1.25.63Z"/><path d="M43.74,65.74c.4.89.8,1.78,1.19,2.67.25.56.47,1.14.71,1.7.03.08.13.12.25.22-.04.09-.1.22-.18.4-.38-.94-.75-1.82-1.11-2.71-.27-.65-.55-1.29-.81-1.95-.04-.1-.02-.23-.03-.35,0,0,0,0,0,0Z"/><path d="M39.45,57.8c.23.13.46.26.74.42-.1-.14-.18-.24-.28-.38h.22c0-.46-.15-.64-.71-.81.26-.1.59-.13.5-.51.11.14.22.28.32.42.04.06.09.17.06.22-.17.28-.02.51.07.76.14.36.06.79.36,1.09.02.02-.04.13-.1.29-.18-.75-.75-1.07-1.18-1.51Z"/><path d="M100.28,48.77c-.26.2-.52.4-.81.62.17.08.31.15.53.26-.79.42-1.52.8-2.28,1.2.21.04.39.07.58.1,0,.05-.02.1-.03.15-.31-.05-.61-.1-.92-.15,0-.03,0-.07,0-.1.74-.37,1.48-.74,2.27-1.14-.17-.12-.27-.19-.48-.34.42-.22.78-.41,1.13-.6,0,0,0,0,0,0Z"/><path d="M87.65,75.19c1.34.99,2.69,1.99,4.03,2.98-.03.04-.06.08-.09.12-1.34-1-2.69-1.99-4.03-2.99.03-.04.06-.08.09-.12Z"/><path d="M89.98,70.91c-.32.26-.63.52-.97.79.72.14,1.43.27,2.14.4,0,.04,0,.07,0,.11-1.01-.16-2.03-.56-3.06-.07.47-.33.94-.67,1.41-.99.15-.1.31-.18.46-.27,0,0,.02.02.02.02Z"/><path d="M44.68,73.04c.51.24,1.01.5,1.54.71.4.16.75.35.93.76.17.39.35.77.52,1.16-.03.02-.07.03-.1.05-.13-.26-.29-.52-.38-.79-.24-.71-.8-.96-1.45-1.19-.46-.16-.87-.45-1.3-.68,0,0,.02-.02.02-.02.08,0,.16,0,.24.01,0,0-.02-.01-.02-.01Z"/><path d="M48.56,71.19c-.24.57-.6,1.12-.42,1.79.05.17.08.34.04.54-.07-.23-.13-.46-.22-.77-.1.67.18,1.09.61,1.44,0,0,0,0,0,0-.3-.01-.77-.49-.77-.87,0-.37.08-.75.18-1.1.09-.32.26-.62.4-.92.02-.05.12-.07.18-.1h0Z"/><path d="M51.61,79.26c.02-.16.03-.32.05-.49-.08,0-.19,0-.29,0,0,0,0,0,0,0,.38-.35.37-.84.48-1.29.07-.27.1-.55.19-.82.13.91.08,1.78-.42,2.58,0,0,0,0,0,0Z"/><path d="M47.55,76.39s.09.04.09.06c.07.71.55,1.15,1.06,1.6.03-.08.05-.15.08-.21h.1c.04.3.07.62.11.93,0,0,0,0,0,0-.16-.15-.33-.29-.49-.44-.17-.23-.34-.47-.51-.7-.2-.39-.53-.75-.43-1.25,0,0,0,0,0,0Z"/><path d="M83.76,43.76c-.39-.53-.81-1.04-1.16-1.59-.24-.38-.37-.82-.55-1.23.04-.02.07-.03.11-.05.19.4.35.82.58,1.2.3.5.66.97.98,1.45.04.05.05.12.07.18-.01.01-.02.02-.03.03Z"/><path d="M38.44,34c.05-.07.1-.15.16-.23-.15-.05-.3-.1-.47-.16.2-.17.6-.13.73.05.05.07.16.11.18.19.05.13.14.33.08.42-.12.18-.33.26-.54.08-.15-.12-.3-.24-.47-.38.12,0,.23.02.34.03.09.08.18.18.29.23.07.03.2.02.27-.03.04-.03.06-.19.03-.22-.06-.06-.17-.1-.26-.09-.11,0-.22.07-.33.1Z"/><path d="M47.98,77.63c.17.23.34.47.51.7-.24-.2-.48-.39-.71-.6-.29-.28-.62-.45-1.03-.52-.27-.04-.51-.23-.74-.42.6.4,1.44.27,1.97.83Z"/><path d="M51.12,79.25c.07.1.2.2.21.3.02.8,0,1.6-.07,2.42-.08-.19-.16-.39-.27-.66.11.06.15.08.27.14-.04-.76-.08-1.48-.12-2.2,0,0,0,0,0,0Z"/><path d="M44.69,58.61c.27.12.57.2.79.38.11.09.08.35.11.53-.16-.06-.38-.08-.48-.19-.17-.19-.26-.44-.41-.71Z"/><path d="M42.57,55.18c.54,0,.75.5.51,1.24-.1-.47-.63-.71-.51-1.24Z"/><path d="M99.05,51c.29.09.3.09,0,.45.37.04.73.07,1.09.11,0,.04.02.07.03.11-.34.23-.68.46-1.02.7-.02-.03-.05-.07-.07-.1.24-.17.48-.35.72-.52-.01-.03-.02-.07-.03-.1-.32-.02-.64-.04-1-.06.09-.19.18-.36.29-.58Z"/><path d="M33.5,38.1c.06-.27.12-.55.18-.82.05-.22.22-.33.4-.21.09.06.12.29.08.43-.03.13-.18.24-.28.36h.01c-.14.07-.27.15-.41.23h0Z"/><path d="M48.55,75.7c.1-.22.2-.44.29-.66.06-.15.1-.32.2-.47-.2,1.02-.66,2.04.2,2.99-.58-.51-.69-1.17-.68-1.86,0,0,0,0,0,0Z"/><path d="M79.01,72.58c-.51.64-2.11,1.08-2.54.46.23.06.41.12.59.14.6.08,1.1-.17,1.59-.46.11-.06.23-.1.35-.15,0,0,0,.01,0,.01Z"/><path d="M44.82,57.64c.04-.09.07-.18.11-.27-.09-.03-.16-.05-.29-.09.07-.04.11-.05.13-.08.15-.17.28-.34.43-.5.08-.09.19-.15.3-.21.02-.01.13.08.13.1-.03.1-.08.2-.14.29-.11.14-.34.19-.26.47.02.09-.21.24-.32.37-.03-.03-.06-.05-.09-.08Z"/><path d="M44.78,58.38c.28,0,.67,0,1.05,0,.1,0,.22.07.28.15.03.04,0,.2-.06.24-.09.05-.24.1-.32.06-.36-.15-.71-.34-.95-.45Z"/><path d="M31.75,37.78c-.2-.06-.42-.09-.58-.2-.11-.08-.17-.27-.2-.42-.01-.06.16-.21.18-.2.13.06.26.15.34.26.11.17.16.37.24.56,0,0,0,0,0,0Z"/><path d="M48.57,71.2c-.16-.22-.01-.36.16-.43.06-.02.25.14.29.25.16.47.3.95.43,1.43.02.09-.06.2-.12.37-.16-.71-.3-1.32-.45-1.93-.05,0-.1,0-.15,0-.06.1-.11.21-.17.31,0,0,0,0,0,0Z"/><path d="M34.23,32.99c.12.73.24,1.47.37,2.2.07-.01.12-.02.22-.04-.07.17-.13.3-.18.42-.03,0-.07,0-.1,0-.11-.87-.4-1.7-.3-2.6,0,0,0,0,0,0Z"/><path d="M37.53,58.1c-.04.41-.07.82-.13,1.23-.01.08-.17.2-.24.19-.08-.01-.2-.15-.19-.23,0-.15.05-.31.12-.45.13-.25.3-.48.45-.72,0,0-.01,0-.01,0Z"/><path d="M37.78,48.5c-.24-.56-.5-1.11-.71-1.68-.13-.36-.15-.75-.22-1.13,0,0,0,0,0,0,.31.88.62,1.77.93,2.65.02.05,0,.1,0,.16,0,0,0,0,0,0Z"/><path d="M39.28,43.02c.19.03.38.05.57.08.03.15.09.3.07.45-.01.11-.11.22-.18.32-.1-.1-.23-.19-.29-.31-.09-.17-.12-.36-.18-.54Z"/><path d="M45.4,57.86c.15-.08.29-.18.44-.21.15-.03.31-.01.46.02.03,0,.04.29.01.3-.15.05-.31.08-.47.06-.15-.02-.28-.11-.44-.17Z"/><path d="M46.83,76.38c.11.03.21.06.36.1-.06-.38-.02-.79-.4-1.05.34.08.71.54.76.96,0,0,0,0,0,0-.04-.02-.09-.03-.12-.07-.03-.03-.04-.08-.12-.23v.77c-.21-.21-.35-.35-.49-.48Z"/><path d="M35.38,45.99c0,.12-.01.24.03.35.03.08.1.3.22.04,0-.02.18-.01.21.03.07.1.1.23.15.34-.19.1-.34.18-.55.28-.19-.34-.2-.68-.05-1.05,0,0,0,0,0,0Z"/><path d="M33.88,37.86c.14.02.3,0,.41.06.06.03.1.25.05.3-.1.11-.25.17-.39.23-.07.03-.15.02-.23.03,0,0,.01.01.01.01.05-.22.11-.43.16-.65h-.01Z"/><path d="M39.62,53.93c-.26-.81-.52-1.62-.78-2.42.04-.01.08-.02.11-.04.27.81.54,1.62.8,2.43-.04,0-.09.02-.13.03Z"/><path d="M33.52,37.53c-.16-.32-.34-.63-.46-.96-.04-.11.05-.28.08-.42.09.07.25.12.26.2.06.41.09.82.12,1.18Z"/><path d="M40.32,31.96c-.28.18-.46.3-.65.39-.03.02-.13-.11-.2-.16.14-.17.28-.34.44-.48.02-.02.19.11.41.25Z"/><path d="M31.62,40.17c-.17.19-.26.34-.4.42-.12.06-.29.04-.43.04-.02,0-.07-.17-.05-.19.1-.1.21-.22.34-.26.14-.04.3,0,.54,0Z"/><path d="M38,51.34c.06.1.12.19.19.3.05-.06.09-.1.17-.19.05.24.09.44.13.64,0,0,0,0,0,0-.06-.09-.12-.18-.19-.27-.09.08-.17.16-.34.32-.1-.3-.18-.54-.26-.79.12,0,.22.01.31.02,0,0-.01-.01-.01-.01Z"/><path d="M98.55,52.77c.15.02.26.04.37.06.01.04.03.08.04.11-.28.12-.55.24-.83.36-.02-.04-.04-.07-.05-.11.15-.07.3-.14.48-.23-.13-.04-.24-.07-.42-.12.16-.14.28-.24.4-.35.03.02.05.04.08.07-.02.06-.05.13-.08.2Z"/><path d="M96.44,54.04c.09.04.18.08.28.12-.43.26-.53.24-.7-.16.26-.09.53-.19.79-.28.01.03.03.06.04.1-.13.07-.26.15-.41.23Z"/><path d="M44.44,73.07c-.45-.09-.91-.14-1.34-.27-.28-.08-.54-.26-.55-.63,0,0,0,0,0,0,.36.51.89.6,1.46.64.16.01.3.15.46.22l-.02.02Z"/><path d="M42.48,52.02c.14.17.29.33.41.51.06.09.09.22.1.34,0,.03-.16.11-.18.09-.1-.09-.22-.19-.25-.3-.06-.2-.06-.42-.08-.64Z"/><path d="M46.12,76.23c.17.05.33.11.5.16-.07-.16-.14-.33-.22-.48-.05-.1-.11-.19-.16-.28.04-.02.08-.05.12-.07.16.28.33.56.49.84-.04.08-.08.17-.14.28-.26-.03-.48-.15-.59-.45Z"/><path d="M38.03,49.13c.12.06.24.13.36.19.08.04.2.07.24.14.03.04-.04.16-.09.23-.08.11-.17.2-.31.37-.07-.34-.13-.64-.19-.94,0,0,0,0,0,0Z"/><path d="M37.73,56.11c-.12-.17-.25-.33-.37-.51-.07-.1-.12-.22-.16-.34,0-.01.11-.1.14-.08.1.05.23.11.26.19.07.24.09.49.13.75,0,0,0,0,0,0Z"/><path d="M36.11,51.11c-.09.29-.16.58-.28.85-.03.06-.22.05-.33.07,0-.1-.04-.24.01-.3.19-.22.4-.41.61-.61,0,0-.01-.01-.01-.01Z"/><path d="M42.68,48.97c-.16-.2-.22-.41,0-.61.06-.06.2-.03.31-.05-.04.23-.09.45-.13.68-.06,0-.12-.02-.17-.03Z"/><path d="M39.84,43.11c-.13-.19-.26-.38-.4-.58.13,0,.28-.02.38.03.13.07.23.2.34.3-.11.08-.22.16-.32.24Z"/><path d="M49.22,81.16c.59.15,1.22.23,1.45.94,0,0-.02.02-.02.02-.34-.46-.84-.66-1.35-.85-.03-.01-.05-.08-.07-.11h0Z"/><path d="M36.19,57.32c-.06.19-.1.4-.19.58-.05.09-.19.15-.31.19-.03,0-.16-.2-.15-.2.21-.19.44-.37.66-.56,0,0,0,0,0,0Z"/><path d="M44.08,56.15c-.05-.3-.39-.55-.17-.91.34.25.39.6.16.9,0,0,.01.01.01.01Z"/><path d="M33.75,40.33c.13.22.24.34.28.48.03.09-.03.22-.08.31-.02.04-.17.06-.2.03-.07-.06-.14-.17-.13-.25,0-.16.07-.32.13-.57Z"/><path d="M49.22,81.15c-.27-.08-.54-.14-.8-.24-.35-.14-.69-.31-1.03-.47,0,0,0,0,0,0,.61.24,1.22.47,1.83.71,0,0,0,0,0,0Z"/><path d="M43.37,52c.13-.05.23-.1.33-.1.03,0,.11.17.09.22-.05.09-.16.18-.25.2-.4.05-.56-.27-.81-.6.32.21.55.36.79.52.02-.03.04-.06.06-.09-.05-.03-.1-.07-.2-.13Z"/><path d="M45.4,74.93c.16.37.32.74.48,1.11-.01.14-.03.28-.04.46-.06-.08-.18-.17-.17-.22.09-.49-.3-.88-.27-1.35Z"/><path d="M36.23,52.02c-.04.2-.05.41-.12.6-.03.08-.17.12-.26.18-.02-.1-.08-.23-.04-.3.09-.18.23-.34.34-.5.03.01.05.02.08.03Z"/><path d="M40.82,50.33c-.13-.09-.29-.16-.39-.28-.06-.07-.01-.23-.01-.34.11.03.27.04.33.11.09.12.11.29.17.45-.03.02-.06.04-.09.06Z"/><path d="M40.86,48.41c.06.37.09.61.13.85-.04.02-.08.03-.12.05-.11-.22-.22-.43-.31-.66-.01-.03.15-.12.3-.25Z"/><path d="M36.45,48.1c.06.32.12.61.17.89-.02,0-.05.01-.07.02-.11-.18-.22-.37-.34-.54-.15-.22-.15-.23.24-.37Z"/><path d="M41.89,48.72c.05-.17.07-.35.15-.51.04-.07.17-.1.26-.15.03.12.13.3.09.33-.14.13-.33.22-.51.32,0,0,0,0,0,0Z"/><path d="M39.84,41.84c.12-.06.23-.12.35-.18.03.07.11.16.09.19-.08.12-.2.31-.3.31-.26,0-.51-.08-.77-.13.24,0,.54.25.64-.2h-.01Z"/><path d="M48.43,77.34c-.26-.47-.51-.95-.77-1.42.04-.02.07-.04.11-.06.26.47.52.94.79,1.41-.04.02-.08.05-.12.07Z"/><path d="M34.02,45.98c.06.21.14.41.17.63.02.11-.04.24-.08.35,0,.02-.16.02-.17,0-.04-.12-.09-.25-.07-.36.03-.21.1-.42.15-.63Z"/><path d="M48.54,72.27c.07.33.14.66.22,1.01-.31-.07-.4-.42-.22-1.01Z"/><path d="M34.5,50.41c-.11.14-.16.24-.24.3-.1.07-.23.12-.35.16-.01,0-.11-.15-.09-.18.08-.11.18-.21.29-.27.08-.04.2,0,.38,0Z"/><path d="M34.71,36.69c-.12-.64.08-1.21.43-1.85-.16.67-.29,1.26-.43,1.85Z"/><path d="M40.88,51.12c-.12.13-.23.26-.36.38-.27.26-.56.5-.79.71.04-.26.78-.99,1.15-1.08,0,0,0,0,0,0Z"/><path d="M38.53,42.91c.22.12.57.15.42.55-.39.03-.46-.05-.42-.55Z"/><path d="M37.25,48.5c-.06.2-.12.4-.19.61-.14-.24-.42-.45-.19-.79.13.06.25.12.37.18Z"/><path d="M35.31,49.66c-.16-.13-.33-.26-.48-.4,0,0,.08-.11.12-.17.17.12.34.24.51.37-.05.07-.1.13-.15.2Z"/><path d="M95.27,101.28c.3.32.61.64.91.95-.03.03-.06.06-.08.09-.32-.31-.64-.61-.96-.92l.13-.12Z"/><path d="M82.87,35.46c.23.45.45.89.68,1.34-.04.02-.07.04-.11.05-.22-.44-.44-.89-.67-1.33.03-.02.07-.04.1-.05Z"/><path d="M43.79,48.34l-.41.76s-.07-.04-.11-.06c.09-.16.18-.33.25-.47-.04-.08-.08-.16-.13-.24l.29-.09.1.1Z"/><path d="M42.54,56.63c-.07-.19-.16-.39-.2-.59,0-.04.16-.11.3-.21.02.31.03.53.05.76-.05.01-.1.02-.14.04Z"/><path d="M91.43,68.65v-2.11h.04v2.11s-.03,0-.04,0Z"/><path d="M37.23,51.37c.05.27.11.55.14.83,0,.03-.14.11-.21.1-.05,0-.09-.11-.2-.24.16.06.22.09.41.16-.15-.33-.25-.57-.35-.8.07-.02.14-.04.21-.05Z"/><path d="M38.71,58.72c-.04.18-.08.52-.12.52-.36,0-.1-.32-.2-.47-.03-.04.01-.12.02-.17.11.05.21.09.31.14,0,0,0-.01,0-.01Z"/><path d="M43.73,50.05c.16-.12.32-.23.48-.35.04.07.13.19.13.19-.16.12-.32.23-.48.35-.04-.06-.08-.13-.12-.19Z"/><path d="M35.08,46.4c0,.21.01.43,0,.64,0,0-.14,0-.22.01-.01-.22-.02-.43-.03-.65.08,0,.16,0,.24,0Z"/><path d="M46.6,75.16c-.36-.26-.71-.52-1.06-.78-.05-.04-.09-.11-.14-.16.4.31.8.63,1.2.94Z"/><path d="M48.56,75.69s-.05-.07-.05-.11c.01-.47.03-.93.05-1.4,0,0,0,0,0,0,.26.5.09,1.01,0,1.51,0,0,0,0,0,0Z"/><path d="M38.45,56.16s.01,0,.01,0c-.08-.36-.16-.72-.24-1.1.35.09.37.25.23,1.1Z"/><path d="M105.76,93.11c-.21.08-.42.16-.68.26.09.07.15.11.21.15,0,.01,0,.02-.01.03-.14-.06-.27-.12-.41-.19,0-.04,0-.09,0-.13.3-.04.6-.08.9-.13,0,0,0,0,0,0Z"/><path d="M43.94,78.38h-1.05s0-.09,0-.14l1.06.06s0,.05,0,.08Z"/><path d="M47.09,73.04c.2.31.41.62.61.93-.05.03-.1.06-.15.09-.16-.33-.33-.66-.49-.99.01-.01.02-.02.03-.03Z"/><path d="M37,35.76c.07.07.14.13.27.25.08-.17.14-.3.2-.44.02,0,.05,0,.07,0-.02.14,0,.3-.07.42-.04.07-.22.14-.29.11-.1-.04-.17-.17-.26-.27l.08-.07Z"/><path d="M43.89,49.29c.05.52-.25.37-.46.42-.02-.03-.04-.07-.06-.1.17-.1.34-.21.52-.31Z"/><path d="M68.05,100.22c-.2.33-.4.66-.6.98-.05-.03-.09-.07-.14-.1.25-.29.5-.59.75-.88,0,0,0,0,0,0Z"/><path d="M98.09,67.75c.33-.32.67-.64,1-.95l.08.08c-.34.31-.68.62-1.02.93-.02-.02-.04-.04-.06-.06Z"/><path d="M36.28,49.29c-.16-.13-.31-.26-.47-.39.05-.05.1-.1.16-.15.1.18.2.37.31.55,0,0,0,0,0,0Z"/><path d="M84.47,53.53c-.55-.12-1.12-.2-1.65-.38-.48-.17-.86-.06-1.24.2-.69.49-1.39.98-2.08,1.47-.07.05-.16.09-.23.14h.01s0-.1.02-.12c.83-.63,1.66-1.26,2.52-1.9-1.92-.49-3.91-.72-5.9-.93.33,0,.67-.01,1,0,.32.02.65.19.95-.06.15.06.34.19.55.23,1.31.22,2.62.4,3.92.65.69.13,1.36.38,2.03.59.04.01.06.09.09.13,0,0,0-.01,0-.01Z"/><path d="M74.95,52.54c-.15.13-.28.29-.44.38-.54.3-1.1.57-1.77.6.6-.25,1.17-.48,1.74-.72.16-.07.32-.16.48-.25h0Z"/><path d="M76.48,49.69c.39.53.78,1.06,1.17,1.59l-.1.07c-.38-.53-.77-1.06-1.15-1.59.03-.03.06-.05.09-.08Z"/><path d="M74.42,51.89c-.58-.06-1.16-.12-1.74-.19,0-.03,0-.07.01-.1.58.04,1.17.03,1.72.29,0,0,0,0,0,0Z"/><path d="M74.96,52.55c.16-.17.32-.34.53-.56-.4-.04-.73-.08-1.06-.11,0,0,0,0,0,0,.42,0,.84,0,1.39,0-.3.32-.48.6-.86.66,0,0,0,0,0,0Z"/><path d="M79.27,54.96c-.38.25-.76.49-1.14.74-.03-.05-.05-.09-.08-.14.41-.2.82-.39,1.23-.59,0,0,0,0,0,0Z"/></svg>