<?xml version="1.0" encoding="UTF-8"?><svg id="Layer_1" xmlns="http://www.w3.org/2000/svg" viewBox="0 0 144.57 144.57"><path d="M14.51,70.52h.6c.03.3.01.58.01.85,0,.27,0,.54,0,.83h2.03v-1.66h.55v4.01h-.54v-1.87h-2.03c-.02.31,0,.62,0,.94,0,.31,0,.61,0,.95h-.61v-4.05Z" stroke="#000" stroke-miterlimit="10" stroke-width=".25"/><path d="M49.11,91.58c-.05-.02-.1-.05-.15-.06-.71-.12-1.15-.55-1.38-1.21-.26-.71-.18-1.41.16-2.06.33-.62.89-.93,1.58-.9.73.03,1.29.39,1.58,1.08.32.75.29,1.5-.08,2.23-.23.46-.62.74-1.13.86-.08.02-.16.05-.24.07h-.34ZM47.97,89.45c0,.1,0,.21,0,.31-.02.31.09.59.25.85.39.64,1.19.63,1.65.42.05-.02.1-.06.14-.09.34-.29.53-.65.56-1.09.01-.25.01-.51,0-.76-.04-.83-.59-1.35-1.42-1.33-.52.01-.84.31-1.06.76-.14.3-.12.62-.12.94Z" stroke="#000" stroke-miterlimit="10" stroke-width=".25"/><path d="M22.8,73.97c.07-.06.13-.11.18-.15.03,0,.05,0,.07,0,.24.12.47.23.7.36.41.22.84.42,1.23.68.32.22.67.37,1.01.55.42.23.84.45,1.26.68.16.09.29.1.46,0,.49-.3,1-.57,1.5-.86.32-.19.63-.39.95-.58.03-.02.06-.04.1-.05.45-.21.87-.46,1.27-.75.03-.02.07-.03.1-.05.43-.21.85-.46,1.25-.73.03-.02.07-.03.1-.05.36-.19.72-.39,1.08-.58.09-.05.15-.13.15-.25,0-.19,0-.38,0-.56,0-.03,0-.06,0-.08-.17-.21-.09-.46-.11-.7,0-.03,0-.06,0-.08-.17-.22-.09-.48-.11-.73,0-.03,0-.07,0-.08-.16-.18-.09-.41-.1-.61,0-.1,0-.19-.08-.29-.05-.06-.03-.18-.04-.27-.02-.19.04-.38-.09-.56-.06-.08-.01-.24-.02-.36-.01-.14-.03-.29-.05-.45h1.63c0,.29.07.59-.02.84-.11.32-.07.64-.09.96,0,.04,0,.09-.01.11-.15.18-.09.39-.1.59,0,.15.03.32-.09.45-.03.04-.01.13-.02.19-.03.29.05.58-.1.88-.07.14,0,.35-.02.53,0,.12-.04.23-.07.35.35.19.73.4,1.1.61.35.2.68.42,1.03.63.29.17.59.33.88.5.34.2.67.4,1.01.61.04.02.08.05.12.07.45.21.87.47,1.28.75,0,0,.02,0,.02.01.39.21.77.42,1.16.63.14.08.25.08.39,0,.38-.22.77-.41,1.15-.63.34-.19.66-.41,1-.61.04-.02.09-.04.13-.06.43-.23.87-.43,1.27-.7.24-.16.5-.28.75-.42.34-.2.67-.41,1-.61.02,0,.03-.02.05-.03.48-.26.95-.52,1.43-.77.07-.04.19-.04.26,0,.21.1.4.23.6.35.04.02.08.05.12.07.35.19.71.38,1.06.58.45.26.9.53,1.36.79.52.3,1.04.59,1.56.89.27.16.52.33.78.5.02.01.03.02.05.03.39.21.79.43,1.18.64.16.08.32.08.48,0,.3-.16.59-.34.9-.45.45-.15.85-.43,1.29-.59.39-.13.74-.36,1.12-.5.47-.17.92-.4,1.36-.64.06-.03.14-.02.23-.02.2.51.38,1.01.52,1.57-.35-.06-.6.18-.9.12-.22.19-.55.02-.78.21-.04.03-.13.01-.19.01-.12,0-.24-.03-.34.08-.03.03-.11.02-.16.03-.14.01-.3-.03-.42.09-.03.04-.13.01-.19.02-.13,0-.26-.03-.37.09-.04.04-.14.02-.22.02-.12,0-.24-.03-.34.09-.03.03-.11.02-.16.03-.14,0-.3-.03-.42.09-.03.03-.13.01-.19.02-.13,0-.24,0-.37.08-.12.07-.31.03-.46.04-.06.21-.08,7.56-.03,7.93.24.09.46.18.69.26.16.05.33.08.5.14.16.05.32.12.48.18.14.05.29.11.43.15.28.08.56.15.83.24.27.09.53.22.81.31.28.09.57.16.86.25.14.04.27.1.44.16,0,.05.01.14.02.25-.17.03-.32.08-.48-.04-.1-.08-.25-.07-.38-.13-.27-.12-.57-.16-.85-.25-.28-.09-.55-.22-.83-.31-.28-.09-.59-.13-.85-.25-.27-.12-.58-.14-.83-.31-.04-.03-.14.01-.2.05-.48.33-.95.65-1.42.99-.35.25-.69.51-1.03.77-.07.05-.15.08-.22.13-.29.2-.58.41-.86.62-.31.22-.62.45-.92.67-.02.01-.05.01-.1.02-.05-.09-.1-.19-.14-.27.22-.15.43-.3.65-.45.25-.18.5-.35.74-.53.19-.14.37-.28.55-.42.22-.16.45-.32.68-.48.05-.03.09-.07.13-.1.22-.15.44-.3.66-.46.28-.22.54-.45.81-.67.02-.01.02-.05.03-.07-.21-.06-.42-.12-.66-.18v-.66c-.08.05-.13.08-.16.11-.35.31-.73.57-1.12.83-.21.14-.41.3-.61.45-.21.17-.42.34-.64.5-.08.06-.18.1-.26.16-.44.32-.87.64-1.3.96-.13.1-.24.07-.42-.11.27-.16.53-.34.78-.54.31-.25.65-.44.98-.67.16-.11.28-.26.46-.36.23-.12.42-.33.63-.5.15-.12.31-.23.47-.34.11-.08.22-.16.34-.24.23-.16.45-.32.68-.47.1-.07.18-.14.16-.27,0,0,0-.02,0-.03,0-2.26,0-4.52,0-6.78,0-.18-.08-.26-.23-.35-.42-.24-.84-.49-1.26-.73-.25-.15-.5-.29-.75-.43-.39-.23-.77-.46-1.16-.68-.05-.03-.1-.05-.15-.08-.4-.24-.8-.47-1.21-.71-.05-.03-.1-.05-.15-.08-.4-.24-.8-.48-1.21-.71-.16-.09-.32-.19-.5-.26-.08-.03-.21-.02-.29.03-.47.24-.95.49-1.4.76-.52.31-1.05.61-1.58.9-.53.3-1.05.6-1.58.9-.54.3-1.06.63-1.61.91-.21.11-.41.25-.63.36-.07.04-.19.05-.26.02-.17-.06-.32-.15-.48-.24-.19-.1-.37-.21-.56-.32-.31-.19-.62-.38-.93-.57-.02-.01-.04-.03-.07-.05-.39-.21-.79-.42-1.18-.64-.31-.18-.6-.37-.91-.56-.04-.02-.08-.05-.12-.07-.42-.25-.84-.49-1.26-.74-.02,0-.03-.02-.05-.03-.39-.21-.77-.41-1.15-.63-.14-.08-.25-.08-.39,0-.38.22-.78.41-1.15.64-.44.27-.89.55-1.35.79-.46.24-.91.52-1.35.78-.53.32-1.05.64-1.57.96-.06.03-.12.05-.18.08-.33.18-.67.36-1,.56-.14.08-.26.08-.39,0-.37-.22-.74-.44-1.11-.66-.03-.02-.06-.04-.1-.06-.43-.25-.85-.5-1.28-.75-.09-.05-.19-.09-.28-.14-.35-.2-.69-.41-1.04-.61-.21-.12-.43-.23-.68-.35Z" stroke="#000" stroke-miterlimit="10" stroke-width=".25"/><path d="M101.15,76.32c.04.07.1.13.09.18-.06.43.17.83.13,1.26-.01.12-.03.25.08.37.05.05.02.16.03.24.02.23-.06.48.1.7.05.08,0,.22.02.33,0,.14-.04.3.09.42.04.03.01.13.02.19.02.25-.03.5.09.76.08.18.02.42.02.65h-1.57c.03-.27-.08-.54.08-.82.07-.12.02-.31.03-.47,0-.14-.04-.3.09-.42.04-.03.02-.12.02-.19.02-.25-.05-.51.1-.76.06-.1,0-.26.02-.39,0-.12-.02-.23.08-.34.05-.05.02-.16.03-.24.03-.23-.02-.46.09-.7.09-.21.03-.48.01-.72,0-.06-.08-.13-.14-.16-.52-.3-1.04-.59-1.55-.89-.46-.26-.92-.53-1.38-.8-.05-.03-.1-.05-.15-.07-.42-.23-.84-.45-1.25-.69-.39-.22-.77-.46-1.16-.68-.33-.19-.67-.37-1-.56-.13-.07-.24-.08-.37,0-.45.27-.91.54-1.37.81-.38.22-.75.45-1.13.67-.24.14-.49.27-.73.42-.32.19-.63.39-.95.58-.05.03-.1.05-.15.08-.41.24-.81.49-1.22.73-.39.22-.78.43-1.21.67v.24c0,2.13,0,4.26,0,6.39,0,.24.1.38.28.5.22.15.44.31.66.47.28.2.56.4.83.61.22.16.42.34.64.5.22.17.45.32.68.49.17.12.33.24.49.36.21.16.42.34.63.5.07.05.14.1.21.14.17.09.24.18.31.37-.07.08-.14.05-.21,0-.36-.26-.73-.51-1.09-.77-.35-.25-.68-.52-1.03-.77-.32-.23-.66-.45-.99-.68-.19-.13-.37-.28-.56-.42-.26-.19-.53-.37-.84-.59v.76c-.21.07-.38.13-.61.21.36.25.68.46,1,.69.17.12.34.26.51.38.52.35.99.76,1.52,1.09.36.22.68.51,1.03.77.15.11.35.18.45.38-.06.05-.12.1-.19.16-1.58-1.13-3.14-2.26-4.69-3.37-.07.03-.15.05-.22.09-.22.12-.48.08-.7.2-.14.08-.33.09-.49.14-.16.05-.32.12-.48.18-.19.06-.38.11-.57.16-.17.05-.35.09-.52.14-.2.06-.39.12-.58.2-.17.08-.33.15-.55.08v-.26c.36-.1.71-.17,1.05-.29.25-.09.48-.19.75-.22.16-.02.32-.11.47-.19.12-.06.24-.03.36-.11.16-.1.38-.1.57-.15.16-.04.32-.07.47-.13.2-.08.39-.17.61-.21.14-.03.27-.1.44-.16v-8.07c.29-.17.55-.32.8-.47.04-.02.08-.04.12-.06.44-.21.85-.46,1.25-.73.04-.03.08-.04.13-.06.42-.21.83-.45,1.22-.72.02-.01.03-.02.05-.03.44-.24.89-.46,1.33-.71.26-.14.5-.32.75-.48.03-.02.06-.04.09-.06.37-.2.74-.39,1.1-.59.11-.06.17-.14.16-.27,0-.19,0-.38,0-.56,0-.05,0-.11-.03-.13-.11-.1-.08-.22-.08-.34-.01-.19.04-.38-.09-.56-.06-.08-.01-.24-.02-.36,0-.13.03-.27-.08-.4-.05-.05-.02-.16-.03-.24-.02-.24.04-.47-.1-.7-.06-.1-.01-.26-.02-.39,0-.12.02-.23-.08-.34-.05-.06-.03-.18-.03-.27-.01-.19-.03-.38-.04-.58h1.61c-.03.35.1.7-.08,1.04-.03.06-.02.15-.02.22,0,.2.05.42-.01.59-.13.34-.02.69-.12,1.01-.1.34-.03.69-.11,1.01-.09.31-.08.62-.1.93,0,.08-.05.15-.07.2.45.27.89.55,1.34.82.07.04.15.07.23.12.37.22.74.44,1.11.66.03.02.06.04.1.06.45.21.87.47,1.28.75.03.02.07.04.1.05.44.21.85.46,1.25.74,0,0,.02.01.02.01.4.22.8.44,1.21.65.08.04.22.06.29.02.43-.22.87-.43,1.27-.7.39-.26.81-.45,1.2-.7.37-.24.79-.39,1.15-.63.24-.17.5-.28.75-.42.34-.19.66-.41.99-.61.02,0,.03-.02.05-.03.48-.26.95-.52,1.43-.77.07-.03.17-.05.23-.02.21.1.41.23.61.34.05.03.09.06.14.09.35.19.71.38,1.06.58.45.26.91.51,1.35.79.51.31,1.02.62,1.56.89.27.14.51.34.78.49.42.24.84.48,1.28.7.08.04.21.03.29,0,.56-.29,1.13-.57,1.67-.91.25-.15.52-.26.75-.43.33-.23.72-.36,1.05-.58.28-.19.59-.31.88-.49.03-.02.12-.02.14,0,.02.03.02.11,0,.14-.05.06-.13.11-.2.15-.43.24-.87.47-1.3.71-.24.13-.49.27-.73.42-.34.21-.68.42-1.03.63,0,0-.01.01-.02.02-.4.22-.8.44-1.21.65-.07.04-.19.06-.26.03-.17-.07-.34-.16-.5-.26-.17-.1-.34-.2-.51-.3-.32-.19-.64-.39-.96-.58-.03-.02-.06-.04-.09-.06-.41-.22-.83-.44-1.23-.67-.28-.16-.56-.34-.83-.52-.04-.02-.08-.05-.12-.07-.42-.25-.84-.49-1.26-.74-.02,0-.03-.02-.05-.03-.39-.21-.77-.42-1.16-.63-.13-.07-.24-.08-.37,0-.46.27-.92.54-1.37.8,0,0-.02.01-.02.02-.38.2-.76.4-1.13.61-.4.23-.8.47-1.2.71-.02,0-.03.02-.05.03-.4.22-.81.43-1.2.66-.38.22-.75.45-1.13.67-.2.12-.42.21-.64.32Z" stroke="#000" stroke-miterlimit="10" stroke-width=".25"/><path d="M44.91,84.37h2.04v-1.65h.52c.06.19.08,3.58.02,4.01h-.53v-1.88h-2.03v1.88h-.55v-4.02c.1,0,.18-.01.26-.01.08,0,.17,0,.27.01v1.66Z" stroke="#000" stroke-miterlimit="10" stroke-width=".25"/><path d="M103.87,82.48h.54v1.65h2.04v-1.65h.52c.06.19.08,3.62.02,4.01h-.53v-1.88h-2.03v1.88h-.55v-4.02Z" stroke="#000" stroke-miterlimit="10" stroke-width=".25"/><path d="M62.65,66.19v1.62h2.03v-1.65h.52c.06.2.07,3.69.01,4.02h-.52v-1.84c-.22-.07-1.61-.09-2.04-.03v1.86h-.56v-4c.18-.04.36-.06.55.02Z" stroke="#000" stroke-miterlimit="10" stroke-width=".25"/><path d="M97.41,66.25h-.51c-.06-.19-.08-3.62-.02-4.02h.53c.02.54,0,1.09.02,1.65h2.02v-1.66h.55v4.01h-.54v-1.87c-.69-.03-1.35-.02-2.04,0v1.9Z" stroke="#000" stroke-miterlimit="10" stroke-width=".25"/><path d="M124.98,70.32c.1,0,.18-.01.26-.01.08,0,.17,0,.27.01v1.67c.69,0,1.35,0,2.04,0v-1.66h.52c.06.19.08,3.58.02,4.01h-.53v-1.88h-2.03v1.88h-.55v-4.02Z" stroke="#000" stroke-miterlimit="10" stroke-width=".25"/><path d="M110.87,62.22h.54c.03.55,0,1.09.02,1.66h2.02v-1.65h.52c.06.2.07,3.7.01,4.02h-.52v-1.89c-.69-.02-1.35,0-2.04,0v1.89h-.56v-4.02Z" stroke="#000" stroke-miterlimit="10" stroke-width=".25"/><path d="M81.14,69.95h-.54v-1.88h-2.03c-.02.31,0,.62,0,.94,0,.31,0,.61,0,.94h-.54v-4.02h.53v1.61c.22.07,1.61.09,2.05.03v-1.65h.55v4.02Z" stroke="#000" stroke-miterlimit="10" stroke-width=".25"/><path d="M53.95,66.46v-1.88c-.68-.02-1.34-.01-2.03,0v1.89h-.52c-.05-.18-.07-3.59-.02-4.01h.53v1.65h2.04v-1.66h.55v4.01h-.55Z" stroke="#000" stroke-miterlimit="10" stroke-width=".25"/><path d="M37.37,62.44h.54v1.65h2.04v-1.65h.52c.06.2.07,3.66.01,4.02h-.53v-1.88h-2.03v1.87h-.56v-4.01Z" stroke="#000" stroke-miterlimit="10" stroke-width=".25"/><path d="M77.87,74.03c.05-.45.1-.84.26-1.19.34-.73.94-1.06,1.64-1.04.74.02,1.31.39,1.6,1.09.31.74.28,1.48-.07,2.2-.17.34-.43.58-.78.75-1.07.51-2.18-.13-2.46-1.06-.08-.27-.14-.54-.19-.75ZM78.45,73.92c0,.1,0,.21,0,.31-.02.29.08.55.22.8.37.66,1.11.69,1.65.48.06-.02.12-.06.17-.1.34-.29.53-.65.56-1.09.01-.25.01-.51,0-.76-.04-.82-.58-1.34-1.39-1.33-.48,0-.89.3-1.09.76-.13.3-.12.62-.12.94Z" stroke="#000" stroke-miterlimit="10" stroke-width=".25"/><path d="M120.43,72.45c.06-.5.11-.94.34-1.33.35-.61.9-.92,1.58-.89.73.03,1.29.39,1.58,1.09.31.74.28,1.48-.07,2.21-.2.41-.53.67-.96.82-1.01.37-2.03-.27-2.28-1.13-.08-.27-.14-.54-.19-.76ZM123.62,72.36s0,0-.01,0c0-.12,0-.24,0-.37-.03-.83-.58-1.36-1.4-1.34-.48,0-.9.3-1.08.77-.2.53-.13,1.09-.08,1.64,0,.02.01.04.02.05.35.89.85,1.01,1.56.91.16-.02.32-.11.45-.21.28-.22.45-.53.51-.88.03-.18.03-.37.04-.56Z" stroke="#000" stroke-miterlimit="10" stroke-width=".25"/><path d="M99.32,84.61c.06-.5.11-.93.33-1.32.35-.62.91-.94,1.6-.91.73.03,1.29.4,1.57,1.1.3.73.27,1.47-.07,2.18-.19.39-.5.65-.9.81-1.02.42-2.08-.21-2.34-1.09-.08-.28-.14-.56-.19-.78ZM99.9,84.51c0,.1,0,.21,0,.31-.02.33.1.61.27.87.37.54,1.25.7,1.75.31.35-.28.54-.64.57-1.09.02-.26.01-.52,0-.79-.04-.82-.59-1.33-1.4-1.31-.52,0-.85.3-1.07.74-.15.31-.13.64-.13.96Z" stroke="#000" stroke-miterlimit="10" stroke-width=".25"/><path d="M46.83,64.58c.06-.5.11-.93.33-1.33.35-.62.91-.94,1.61-.9.73.03,1.28.41,1.57,1.1.3.73.27,1.47-.07,2.18-.2.41-.53.67-.95.83-1.01.38-2.03-.25-2.29-1.11-.08-.27-.14-.54-.19-.76ZM50,64.53c0-.18,0-.31,0-.44-.04-.87-.68-1.41-1.53-1.32-.53.06-1,.57-1.05,1.16-.03.35-.02.71,0,1.07.03.48.44,1.02.87,1.11.7.14,1.18.04,1.56-.67.16-.3.17-.63.16-.91Z" stroke="#000" stroke-miterlimit="10" stroke-width=".25"/><path d="M61.62,87.32c.05-.46.1-.86.27-1.22.33-.68.89-1.03,1.62-1.02.74.02,1.31.39,1.61,1.09.31.74.28,1.48-.07,2.2-.19.39-.5.64-.91.8-1.01.4-2.05-.21-2.32-1.09-.09-.28-.14-.56-.2-.78ZM62.19,87.2c0,.1,0,.21,0,.31-.02.31.09.59.25.85.39.64,1.18.63,1.65.42.05-.02.1-.06.14-.09.34-.29.53-.65.56-1.09.01-.25.01-.51,0-.76-.04-.82-.58-1.34-1.39-1.33-.48,0-.89.3-1.09.76-.13.3-.12.62-.12.94Z" stroke="#000" stroke-miterlimit="10" stroke-width=".25"/><path d="M18.49,72.69c.05-.46.1-.84.26-1.19.34-.73.94-1.06,1.64-1.04.74.02,1.31.39,1.6,1.09.31.74.28,1.48-.08,2.2-.19.39-.51.64-.91.8-1.01.4-2.05-.22-2.32-1.09-.08-.28-.14-.56-.2-.77ZM21.67,72.64c0-.18,0-.31,0-.44-.04-.87-.68-1.41-1.53-1.32-.53.06-1,.56-1.05,1.16-.03.35-.02.71,0,1.07.03.48.44,1.02.87,1.11.7.15,1.18.04,1.56-.67.16-.3.17-.63.16-.91Z" stroke="#000" stroke-miterlimit="10" stroke-width=".25"/><path d="M77.54,87.12c.05-.42.1-.85.32-1.25.35-.61.9-.92,1.58-.9.73.03,1.29.39,1.58,1.08.31.74.29,1.48-.07,2.21-.2.41-.53.67-.96.83-1.01.37-2.03-.26-2.29-1.12-.06-.21-.11-.42-.16-.63-.01-.06-.01-.13-.02-.22ZM78.11,87.08c0,.11,0,.23,0,.34-.02.32.09.59.26.84.37.56,1.27.72,1.77.32.36-.28.55-.66.57-1.12.01-.24,0-.49,0-.73-.03-.83-.59-1.35-1.41-1.34-.52.01-.85.3-1.06.75-.15.3-.13.62-.12.94Z" stroke="#000" stroke-miterlimit="10" stroke-width=".25"/><path d="M36.55,64.48c-.06.52-.14,1.05-.51,1.48-.84.95-2.35.76-2.91-.36-.39-.76-.36-1.54,0-2.3.32-.64.88-.97,1.58-.95.7.01,1.26.35,1.58,1,.17.35.22.73.26,1.13ZM36,64.53c0-.18,0-.31,0-.44-.04-.87-.67-1.41-1.53-1.32-.54.06-1.01.58-1.05,1.19-.02.34-.02.67,0,1.01.02.49.43,1.05.87,1.14.7.15,1.19.04,1.56-.67.16-.3.17-.63.16-.91Z" stroke="#000" stroke-miterlimit="10" stroke-width=".25"/><path d="M106.33,64.27c.05-.42.1-.85.32-1.24.34-.62.89-.93,1.57-.92.74.02,1.31.39,1.6,1.1.31.74.28,1.48-.08,2.2-.19.38-.49.63-.88.79-1.02.42-2.08-.2-2.35-1.08-.06-.21-.11-.42-.16-.63-.02-.07-.01-.15-.02-.23ZM106.9,64.25c0,.1,0,.21,0,.31-.02.33.1.61.27.87.37.54,1.25.7,1.75.31.35-.28.54-.64.57-1.09.02-.26.01-.52,0-.79-.04-.82-.59-1.33-1.4-1.31-.52,0-.85.3-1.07.74-.15.31-.13.64-.13.96Z" stroke="#000" stroke-miterlimit="10" stroke-width=".25"/><path d="M92.32,64.36c.05-.46.1-.87.28-1.23.32-.67.89-1.02,1.6-1.01.75.01,1.33.39,1.62,1.11.3.73.27,1.47-.07,2.18-.2.41-.53.67-.95.83-1.01.38-2.03-.26-2.29-1.12-.08-.27-.14-.54-.19-.76ZM92.9,64.24c0,.1,0,.21,0,.31-.02.32.09.59.25.85.39.64,1.19.63,1.65.42.05-.02.1-.06.14-.09.34-.29.53-.65.56-1.09.01-.25.01-.51,0-.76-.04-.82-.59-1.34-1.39-1.32-.48,0-.89.3-1.09.76-.13.3-.12.62-.12.94Z" stroke="#000" stroke-miterlimit="10" stroke-width=".25"/><path d="M43.55,84.76c-.07.56-.16,1.11-.57,1.53-.92.94-2.43.6-2.92-.56-.27-.66-.27-1.31-.02-1.97.29-.73.85-1.14,1.62-1.15.7-.01,1.27.31,1.6.96.2.37.25.78.28,1.19ZM40.41,84.73c0,.1,0,.21,0,.31-.02.33.1.61.27.87.37.54,1.25.7,1.75.31.35-.27.54-.64.57-1.08.02-.26.01-.52,0-.79-.04-.82-.59-1.33-1.4-1.32-.48,0-.89.3-1.08.76-.13.3-.12.62-.11.94Z" stroke="#000" stroke-miterlimit="10" stroke-width=".25"/><path d="M61.95,74.14c.06-.5.11-.93.33-1.32.35-.62.91-.94,1.6-.91.73.03,1.29.4,1.57,1.1.3.73.27,1.47-.07,2.18-.19.39-.5.64-.9.81-1.02.42-2.08-.21-2.34-1.09-.08-.28-.14-.56-.19-.78ZM62.53,74.11c-.03.33.01.71.24,1.06.37.57,1.27.75,1.78.34.36-.28.55-.66.57-1.12.01-.24,0-.49,0-.73-.03-.83-.59-1.35-1.41-1.34-.52.01-.85.3-1.06.75-.15.31-.12.64-.12,1.03Z" stroke="#000" stroke-miterlimit="10" stroke-width=".25"/><path d="M91.87,89.45c.06-.5.11-.94.34-1.33.35-.61.9-.92,1.58-.89.73.03,1.29.39,1.58,1.09.31.74.28,1.48-.07,2.21-.17.35-.45.6-.8.76-1.07.49-2.16-.15-2.44-1.07-.08-.27-.14-.54-.19-.76ZM92.45,89.35c0,.1,0,.21,0,.31-.02.33.1.61.27.87.37.54,1.25.7,1.75.31.35-.28.54-.64.57-1.09.02-.26.01-.52,0-.79-.04-.82-.59-1.33-1.4-1.31-.52,0-.85.3-1.07.74-.15.31-.13.64-.13.96Z" stroke="#000" stroke-miterlimit="10" stroke-width=".25"/><path d="M71.5,79.48c-.17.04-.3.07-.46.11-.04-.09-.07-.17-.11-.25-.15-.29-.32-.56-.7-.58-.45-.03-.87.02-1.13.46-.15.25-.24.51-.25.8-.01.3-.01.6,0,.9.01.3.11.57.28.81.28.41.7.47,1.15.41.41-.06.61-.38.76-.71.04-.09.06-.19.09-.31.15.05.29.1.43.14-.04.58-.49,1.06-1.03,1.25-.67.23-1.69-.07-2.01-.91-.3-.79-.35-1.56.02-2.34.34-.71,1.23-1.11,2.03-.82.47.18.76.52.9,1.05Z" stroke="#000" stroke-miterlimit="10" stroke-width=".25"/><path d="M72.37,79.56h.42c0,.11.01.2.01.29,0,.53,0,1.07,0,1.6,0,.37.17.55.54.57.13,0,.26,0,.39-.01.38-.04.64-.3.64-.69,0-.48,0-.96,0-1.43,0-.1,0-.2,0-.33h.44v2.88c-.07,0-.13.02-.19.02-.06,0-.13,0-.23,0,0-.16-.01-.32-.02-.51-.07.06-.12.09-.15.13-.13.14-.29.23-.47.3-.35.14-.66.04-.97-.11-.16-.08-.28-.22-.33-.4-.03-.12-.08-.24-.08-.35,0-.64,0-1.29,0-1.96Z" stroke="#000" stroke-miterlimit="10" stroke-width=".25"/><path d="M40.3,81.75v-.3c.74,0,1.48,0,2.23,0v.45c-.74-.05-1.48.12-2.23-.15Z" stroke="#000" stroke-miterlimit="10" stroke-width=".25"/><path d="M106.91,67.36v-.3h2.23v.3h-2.23Z" stroke="#000" stroke-miterlimit="10" stroke-width=".25"/><path d="M47.42,67.59v-.3h2.23v.3h-2.23Z" stroke="#000" stroke-miterlimit="10" stroke-width=".25"/><path d="M75.49,79.12c0-.32.05-.4.27-.5.24-.11.46-.11.66.06.27.25.28.46.03.73-.23.25-.48.47-.72.71-.01.01,0,.03-.02.08h.9c0,.09.01.15.02.22h-1.21c.07-.21.19-.36.36-.49.17-.14.32-.29.47-.44.03-.03.05-.06.07-.09.15-.22.12-.49-.05-.61-.2-.13-.51-.05-.65.18-.03.05-.08.08-.14.14Z" stroke="#000" stroke-miterlimit="10" stroke-width=".25"/><path d="M75.76,76.48c.47-.39.9-.75,1.37-1.15.07.08.13.16.21.24-.34.49-.89.72-1.24,1.17-.07-.05-.1-.07-.14-.1-.07-.06-.14-.12-.2-.17Z" stroke="#000" stroke-miterlimit="10" stroke-width=".25"/><path d="M74.52,77.62c.12.1.12.22.04.31-.35.36-.71.71-1.08,1.08-.12-.12-.22-.21-.33-.32.32-.11.45-.43.7-.55.26-.13.41-.4.67-.52Z" stroke="#000" stroke-miterlimit="10" stroke-width=".25"/><path d="M42.31,80.12v.3h-1.66v-.3h1.66Z" stroke="#000" stroke-miterlimit="10" stroke-width=".25"/><path d="M47.64,68.84v-.28c.2-.06,1.32-.07,1.67-.02,0,.08.01.17.02.31-.57,0-1.11,0-1.69,0Z" stroke="#000" stroke-miterlimit="10" stroke-width=".25"/><path d="M108.8,68.3v.3h-1.66v-.3h1.66Z" stroke="#000" stroke-miterlimit="10" stroke-width=".25"/><path d="M77.45,78.88c.14-.03.21-.01.21.12,0,.13,0,.26,0,.41h.54c0,.08.01.14.02.23h-.55v.53c-.09.01-.14.02-.22.03,0-.18-.02-.35-.03-.55h-.53v-.22c.17-.01.35-.02.53-.04,0-.18.02-.35.03-.53Z" stroke="#000" stroke-miterlimit="10" stroke-width=".25"/><path d="M82.68,73.81c.1-.02.18-.01.17.13,0,.08,0,.17-.03.25-.1.32-.21.64-.32.96-.06.16-.13.32-.18.48-.03.09-.03.18-.05.29-.05,0-.11.01-.21.02.01-.12.01-.22.04-.31.06-.19.12-.37.19-.55.06-.17.14-.33.19-.5.07-.24.13-.49.2-.76Z" stroke="#000" stroke-miterlimit="10" stroke-width=".25"/><path d="M41.99,79.07h-1.11v-.31h1.09c0,.1.01.19.02.31Z" stroke="#000" stroke-miterlimit="10" stroke-width=".25"/><path d="M75.19,86.83v-.3h1.09c0,.09.02.18.02.3h-1.12Z" stroke="#000" stroke-miterlimit="10" stroke-width=".25"/><path d="M107.49,69.65h1.09c0,.09.02.18.03.31-.2,0-.38.01-.56.01-.18,0-.35,0-.55,0v-.32Z" stroke="#000" stroke-miterlimit="10" stroke-width=".25"/><path d="M47.98,70.07v-.3h1.09v.3h-1.09Z" stroke="#000" stroke-miterlimit="10" stroke-width=".25"/><path d="M66.5,86.72v-.3h1.1v.3h-1.1Z" stroke="#000" stroke-miterlimit="10" stroke-width=".25"/><path d="M83.79,74.37c.18.03.23.08.18.23-.14.39-.28.77-.42,1.16-.03.08-.02.17-.03.27-.05,0-.11.02-.21.04.01-.12,0-.22.03-.31.06-.19.13-.37.19-.56.06-.17.13-.33.19-.5.03-.09.04-.2.07-.31Z" stroke="#000" stroke-miterlimit="10" stroke-width=".25"/><path d="M77.26,85.08c-.09.1-.16.18-.23.26-.26-.26-.47-.47-.68-.68.2-.22.27-.22.47-.03.14.14.27.28.45.45Z" stroke="#000" stroke-miterlimit="10" stroke-width=".25"/><path d="M67.32,83.55c.34-.26.66-.5.99-.75.13.1.12.22.04.32-.06.08-.14.15-.22.21-.12.09-.24.17-.36.26-.2.17-.29.16-.46-.04Z" stroke="#000" stroke-miterlimit="10" stroke-width=".25"/><path d="M66.59,84.56c-.22.21-.41.39-.59.57-.21.21-.29.21-.52-.02.39-.14.56-.51.89-.73.07.06.13.11.22.19Z" stroke="#000" stroke-miterlimit="10" stroke-width=".25"/><path d="M66.8,76.57c-.08.07-.14.12-.2.17-.29-.18-.44-.51-.76-.62.19-.25.27-.25.48-.04.16.16.31.32.49.49Z" stroke="#000" stroke-miterlimit="10" stroke-width=".25"/><path d="M67.69,77.16c.28.22.54.42.82.63-.09.08-.15.13-.21.19-.26-.18-.51-.35-.76-.52.04-.08.08-.17.15-.3Z" stroke="#000" stroke-miterlimit="10" stroke-width=".25"/><path d="M75.63,84.06c-.23-.2-.43-.37-.63-.54.18-.21.25-.22.44-.03.13.12.25.25.39.39-.08.07-.13.12-.2.18Z" stroke="#000" stroke-miterlimit="10" stroke-width=".25"/><path d="M84.72,76.15h-.16c0-.09-.03-.19,0-.26.12-.26.22-.53.22-.82.13-.05.23-.04.21.11-.03.2-.08.39-.14.58-.03.12-.08.24-.13.39Z" stroke="#000" stroke-miterlimit="10" stroke-width=".25"/><path d="M41.21,77.58v-.28h.52c.08.22-.03.34-.19.44-.12-.06-.22-.11-.34-.16Z" stroke="#000" stroke-miterlimit="10" stroke-width=".25"/><path d="M107.71,70.88h.52v.31h-.52v-.31Z" stroke="#000" stroke-miterlimit="10" stroke-width=".25"/><path d="M48.21,71.41v-.3h.53c0,.09.01.18.02.3h-.55Z" stroke="#000" stroke-miterlimit="10" stroke-width=".25"/><path d="M85.8,75.73h.19v.41c-.06,0-.11.01-.19.02v-.43Z" stroke="#000" stroke-miterlimit="10" stroke-width=".25"/></svg>