<?xml version="1.0" encoding="UTF-8"?><svg id="Layer_1" xmlns="http://www.w3.org/2000/svg" viewBox="0 0 144.57 144.57"><path d="m30.84,44.76l4.36-5.63c.17-.23.28-.44.34-.63.04-.18.06-.36.06-.52,0-.43-.13-.81-.39-1.13-.27-.32-.65-.49-1.15-.5-.44,0-.8.15-1.1.43-.3.29-.48.7-.54,1.23h-1.59c.04-.96.35-1.75.93-2.37.59-.61,1.31-.92,2.17-.93.96.01,1.74.33,2.33.95.61.62.92,1.4.93,2.34,0,.76-.22,1.43-.67,2.02l-3.59,4.64h4.26v1.64h-6.36v-1.55Z" fill="#1d1d1b"/><path d="m44.09,34.69s-.02.06-.07.17c-.06.11-.13.27-.23.46s-.21.42-.33.67c-.13.25-.26.52-.4.8s-.28.56-.43.84c-.15.28-.28.55-.42.81-.13.26-.26.49-.37.7-.11.21-.2.38-.28.5.15-.09.32-.14.52-.16s.41-.02.67-.01c.36.01.68.07.95.19.27.12.5.26.7.43.19.17.36.37.49.58s.23.42.3.62.12.39.15.57c.03.18.04.31.04.42v.45c0,.1,0,.21,0,.31,0,.11,0,.19-.01.27,0,.04-.02.13-.05.29-.03.16-.08.34-.16.55s-.19.44-.33.69c-.14.24-.33.48-.56.69-.23.22-.51.41-.84.56-.33.16-.73.25-1.18.29-.48.04-.9.01-1.27-.09-.37-.1-.69-.25-.95-.45s-.49-.42-.67-.67-.32-.52-.42-.79c-.1-.27-.17-.53-.21-.77-.03-.25-.04-.46-.02-.63.03-.26.07-.49.1-.69.04-.2.08-.4.13-.58.05-.18.11-.37.17-.54s.14-.37.22-.58c.02-.05.08-.18.17-.38s.21-.44.35-.73c.14-.29.3-.61.47-.95.17-.35.35-.7.52-1.06.41-.83.87-1.76,1.38-2.78h1.86Zm-.33,8.42c0-.2,0-.42-.02-.66-.02-.24-.07-.47-.18-.69-.1-.22-.27-.41-.5-.56-.23-.16-.56-.25-.99-.28-.2-.02-.38,0-.54.06-.16.06-.31.14-.43.24-.13.1-.24.21-.33.34-.09.13-.17.26-.23.38s-.1.24-.13.35c-.03.11-.04.19-.04.25,0,.13,0,.28,0,.44,0,.16.02.32.05.48s.08.32.15.47c.07.15.17.28.29.4.13.12.29.21.48.28.2.07.44.11.74.11.24,0,.44-.02.62-.09.18-.07.33-.15.45-.25s.22-.22.3-.34c.08-.13.14-.25.19-.37.04-.12.08-.23.09-.33.02-.1.02-.17.02-.22Z" fill="#1d1d1b"/><path d="m37.78,23.26h44.15c22.08,0,40.01,17.93,40.01,40.01v44.15c0,8.62-7,15.61-15.61,15.61H37.78c-8.62,0-15.61-7-15.61-15.61V38.87c0-8.62,7-15.61,15.61-15.61Z" fill="none" stroke="#000" stroke-miterlimit="10"/><path d="m48.3,53.51h22.98v5.3h-17.54v10.98h14.97v4.99h-14.97v15.87h-5.45v-37.14Z" fill="#1d1d1b"/><path d="m78.79,79.44c0,2.12.59,3.74,1.78,4.84,1.1,1.12,2.55,1.68,4.35,1.68,2.09,0,3.96-.86,5.6-2.58l3.73,3.29c-2.61,2.88-5.69,4.31-9.23,4.28-1.35,0-2.66-.2-3.95-.61-.64-.22-1.27-.52-1.87-.89-.64-.32-1.24-.72-1.8-1.2-1.09-.99-1.97-2.36-2.64-4.13-.74-1.7-1.11-3.91-1.11-6.62s.32-4.79.96-6.52c.64-1.77,1.46-3.16,2.47-4.18,1.02-1.04,2.16-1.78,3.43-2.24,1.25-.46,2.48-.69,3.7-.69,2.93.03,5.4,1.03,7.42,2.98,2.06,1.99,3.1,4.72,3.13,8.2v4.38h-15.97Zm10.83-4.38c-.07-2.07-.6-3.63-1.61-4.68-.99-1.01-2.26-1.51-3.81-1.51s-2.82.5-3.81,1.51c-.97,1.06-1.51,2.62-1.61,4.68h10.83Z" fill="#1d1d1b"/><path d="m64.92,108.38h2.78v.77h-2.08v1.23c.24-.2.52-.3.83-.3.2,0,.38.04.55.11.16.08.29.17.38.28.15.15.25.32.31.51.03.11.06.23.07.39.01.16.02.35.02.57,0,.35-.02.62-.07.8-.05.19-.13.35-.25.49-.1.14-.25.27-.45.38-.19.12-.42.18-.68.19-.35,0-.67-.11-.97-.32-.3-.22-.48-.58-.55-1.07h.75c.08.41.33.62.75.63.18,0,.32-.04.43-.11.1-.07.17-.17.21-.28.04-.12.07-.24.08-.38,0-.13,0-.26,0-.39,0-.31-.04-.56-.14-.75-.05-.09-.13-.16-.23-.22-.1-.04-.23-.07-.38-.07-.14,0-.26.03-.37.1-.11.07-.21.18-.3.35h-.7v-2.91Z" fill="#1d1d1b"/><path d="m68.54,108.38h2.78v.77h-2.08v1.23c.24-.2.52-.3.83-.3.2,0,.38.04.55.11.16.08.29.17.38.28.15.15.25.32.31.51.03.11.06.23.07.39.01.16.02.35.02.57,0,.35-.02.62-.07.8-.05.19-.13.35-.25.49-.1.14-.25.27-.45.38-.19.12-.42.18-.68.19-.35,0-.67-.11-.97-.32-.3-.22-.48-.58-.55-1.07h.75c.08.41.33.62.75.63.18,0,.32-.04.43-.11.1-.07.17-.17.21-.28.04-.12.07-.24.08-.38,0-.13,0-.26,0-.39,0-.31-.04-.56-.14-.75-.05-.09-.13-.16-.23-.22-.1-.04-.23-.07-.38-.07-.14,0-.26.03-.37.1-.11.07-.21.18-.3.35h-.7v-2.91Z" fill="#1d1d1b"/><path d="m72.31,112.99h.74v.77h-.74v-.77Z" fill="#1d1d1b"/><path d="m73.78,112.19c0-.52.22-.92.63-1.21-.16-.14-.29-.3-.38-.48-.11-.17-.16-.37-.16-.6,0-.45.15-.82.44-1.11.27-.29.62-.44,1.05-.44.44,0,.79.15,1.07.44.28.29.42.66.42,1.11,0,.23-.05.44-.14.61-.1.18-.23.34-.39.48.42.29.63.69.63,1.21,0,.48-.16.87-.46,1.16-.31.3-.69.45-1.13.45-.45,0-.82-.16-1.12-.45-.31-.29-.47-.68-.48-1.16Zm.75,0c0,.25.09.45.26.61.16.17.36.25.59.25s.44-.08.6-.25c.16-.16.25-.36.25-.61,0-.25-.09-.46-.25-.61-.16-.15-.36-.23-.6-.24-.23,0-.43.09-.59.24-.17.16-.25.36-.26.61Zm.1-2.31c0,.25.08.44.23.57.15.14.32.2.51.2s.38-.07.52-.2c.15-.13.22-.32.23-.57,0-.26-.08-.45-.23-.58-.15-.13-.32-.19-.52-.19s-.37.06-.51.19c-.15.13-.23.33-.23.58Z" fill="#1d1d1b"/><path d="m77.33,112.23l1.74-3.85h.83l-1.76,3.85h1.36v-1.55h.74v1.55h.42v.72h-.42v.8h-.74v-.8h-2.17v-.72Z" fill="#1d1d1b"/><path d="m63.87,97.41h1.12v7.66h-1.12v-7.66Z" fill="#1d1d1b"/><path d="m66.55,99.61h1.06v.58h.02c.35-.43.81-.65,1.37-.65.42,0,.79.15,1.11.42l-.77.95c-.22-.18-.46-.27-.7-.27-.27,0-.5.09-.7.27-.22.18-.33.47-.34.87v3.29h-1.06v-5.45Z" fill="#1d1d1b"/><path d="m70.28,102.33c0-.58.05-1.02.14-1.33.09-.3.24-.56.44-.76.15-.18.35-.34.61-.49.26-.14.59-.21.99-.21.42,0,.75.08,1.01.21.25.14.45.31.59.49.21.21.36.46.45.76.08.31.13.75.13,1.32s-.04,1.01-.13,1.31c-.09.3-.24.56-.45.78-.07.08-.15.16-.25.24-.09.09-.2.16-.34.23-.26.15-.59.23-1.01.24-.4,0-.73-.09-.99-.24-.26-.14-.46-.29-.61-.46-.2-.22-.34-.48-.44-.78-.09-.3-.14-.74-.14-1.31Zm3.29.01c0-.39-.02-.67-.05-.85-.03-.17-.1-.32-.21-.45-.08-.12-.19-.22-.35-.29-.15-.07-.32-.11-.51-.11-.18,0-.35.04-.5.11-.15.07-.27.17-.36.29-.09.13-.16.28-.2.45-.04.18-.06.46-.06.84s.02.66.06.83c.04.18.11.34.2.47.09.11.21.2.36.28.15.08.32.12.5.12.19,0,.36-.04.51-.12.15-.08.27-.17.35-.28.11-.14.17-.3.21-.47.03-.18.05-.45.05-.82Z" fill="#1d1d1b"/><path d="m75.92,99.61h1.06v.58h.02c.35-.43.81-.65,1.37-.65.44,0,.84.16,1.2.48.36.32.55.79.56,1.42v3.62h-1.06v-3.25c0-.38-.1-.67-.29-.87-.19-.2-.44-.3-.75-.3s-.56.1-.75.3c-.2.2-.3.49-.3.87v3.25h-1.06v-5.45Z" fill="#1d1d1b"/></svg>