<?xml version="1.0" encoding="UTF-8"?><svg id="Layer_1" xmlns="http://www.w3.org/2000/svg" viewBox="0 0 144.57 144.57"><path d="M60.61,44.99c.34-.24.55-.65.59-1.06.35.21.72.4,1.1.55.09.04.26.1.46.12.49,1.32,1.35,2.52,2.45,3.4.06.05.15.04.21-.01,0,0,0,0,0,0,.05-.07.04-.16-.02-.21-1.04-.83-1.85-1.95-2.33-3.19.07-.02.14-.03.2-.07.04-.02.07-.05.1-.08,1.85,1.11,3.36,2.8,4.25,4.77.03.08.12.11.2.08.02,0,.04-.02.05-.03.04-.04.05-.11.03-.17-.91-2.02-2.45-3.74-4.35-4.89.06-.13.08-.27.07-.42,1.26.21,2.44.91,3.2,1.94.05.07.15.08.21.03,0,0,.01-.01.02-.02.05-.05.06-.14.01-.2-.83-1.11-2.12-1.87-3.5-2.07-.01-.04-.02-.09-.04-.13-.14-.34-.38-.64-.68-.86.13-.06.25-.13.36-.22.11-.08.2-.18.28-.28.22.01.45.02.72,0,1.27-.08,2.53-.44,3.64-1.06.01,0,.03-.02.04-.03.04-.05.05-.12.02-.18-.04-.07-.13-.1-.21-.06-1.07.59-2.29.95-3.51,1.02-.19.01-.36.01-.52,0,.1-.21.13-.44.1-.67,0,0,0-.01,0-.02,1.77-.6,3.38-1.64,4.66-3.01.03-.03.05-.06.08-.08.06-.06.05-.16,0-.22-.06-.06-.16-.05-.21,0,0,0,0,0,0,0-1.24,1.38-2.85,2.41-4.62,3.01-.1-.2-.27-.37-.48-.49.49-.92,1.36-1.63,2.37-1.92.03,0,.05-.02.07-.04.04-.04.05-.09.04-.15-.02-.08-.11-.13-.19-.1-1.09.32-2.03,1.09-2.56,2.09-.06-.02-.12-.05-.19-.06-.43-.06-.89.07-1.31.36-.12.08-.23.18-.33.27-.01-.14-.03-.29-.06-.43-.07-.29-.19-.53-.36-.74.09-.96.03-1.92-.19-2.86-.02-.08-.1-.13-.18-.11-.08.02-.13.1-.11.18.2.83.26,1.67.2,2.52-.05-.04-.1-.08-.15-.11-.23-.12-.48-.16-.72-.13l-1.2-4.13c-.02-.08-.11-.13-.19-.1-.08.02-.13.11-.1.19l1.2,4.13c-.16.07-.31.17-.41.31-.01.02-.02.04-.04.06-.53-.59-.94-1.28-1.17-2.05-.02-.08-.11-.13-.19-.1-.08.02-.13.11-.1.19.25.84.7,1.61,1.3,2.25-.14.36-.12.77.05,1.12.02.04.04.08.06.12-.15,0-.29,0-.43.02-.34.05-.63.21-.86.42-.89-.71-2.03-1.13-3.17-1.14-.09,0-.15.07-.16.15,0,.08.07.15.15.16,1.07.02,2.13.4,2.97,1.07-.04.06-.09.12-.12.19-.01.02-.02.05-.02.07-2.05-.44-4.15-.75-6.24-.93-.08,0-.16.05-.17.14,0,.08.05.16.14.17,2.07.18,4.15.49,6.19.93-.02.16,0,.32.03.47-1.45.88-3.29,1.08-4.88.48-.08-.03-.17.01-.2.09-.03.08.01.17.09.2,1.66.63,3.58.43,5.1-.47.09.18.22.34.39.46.24.17.55.24.84.22-.05.4.05.81.31,1.13-.98.75-1.7,1.84-1.99,3.04-.02.08.03.16.11.18.06.01.11,0,.15-.04.02-.02.03-.04.04-.07.27-1.15.97-2.19,1.91-2.89.06.04.12.08.18.12-.41,1.83-1.18,3.61-2.22,5.17-.05.07-.03.17.04.21.06.04.15.03.2-.02,0,0,.01-.01.02-.02,1.05-1.57,1.83-3.37,2.25-5.22.12.03.24.05.36.06.14,1.17,0,2.36-.4,3.46-.03.08.01.17.09.2.06.02.12,0,.16-.04.01-.01.02-.03.03-.05.42-1.14.56-2.38.42-3.59.2-.03.4-.1.58-.23ZM59.18,43.23c.11-.12.1-.31-.02-.43-.12-.11-.31-.11-.43,0-.21.21-.61.25-.85.07-.25-.17-.35-.55-.23-.83.11-.24.39-.44.72-.49.28-.04.59,0,.97.12.14.04.29-.01.36-.14.07-.12.05-.28-.06-.38-.17-.16-.33-.38-.45-.61-.16-.32-.05-.65.08-.83.12-.16.43-.21.66-.09.23.12.41.38.49.72.08.34.06.71.04,1.06,0,.13.07.25.19.3.12.05.27.02.34-.09.24-.28.48-.56.76-.76.17-.12.5-.31.87-.26.27.04.51.24.55.47.04.25-.14.5-.33.65-.25.19-.58.29-.9.39-.14.04-.22.17-.22.31,0,.14.11.26.25.28.44.08.83.39.99.8.07.19.05.41-.02.45-.07.04-.21.02-.43-.06-.57-.23-1.1-.53-1.59-.9-.12-.09-.28-.08-.39.02,0,0-.01.01-.02.02-.09.1-.11.25-.04.36.2.34.09.85-.24,1.08-.33.23-.84.16-1.1-.14-.26-.3-.25-.82.02-1.12Z" stroke="#000" stroke-miterlimit="10" stroke-width=".28"/><path d="M97.89,42.96c-1.06.56-2.29.7-3.66.81l-.5.04c-.69.05-1.29.09-1.91.28.64-.91,1.14-1.92,1.47-2.98.03-.11,0-.24-.09-.31-.09-.08-.21-.1-.32-.06-1.15.47-2.14,1.3-2.84,2.32-.17-.77-.56-1.38-.96-2.01l-.44-.7c-.63-1.01-1.28-2.05-1.55-3.18-.03-.11-.11-.2-.22-.23-.11-.03-.22.03-.3.09-2.33,2.52-3.43,4.59-3.42,6.74-.75-1.1-1.75-2.06-2.85-2.69-.1-.06-.24-.05-.33.02-.1.07-.14.19-.12.31.33,1.51.86,2.83,2.09,4.15-.54-.08-1.13-.11-1.84-.13h-.14c-2.25-.09-4.5.85-6.01,2.53-.08.09-.1.22-.05.33.92,2.11,2.98,3.72,5.25,4.1.1.02.2.02.29.03-.99.56-1.92,1.41-2.38,2.15-.06.1-.06.22,0,.32.06.1.17.15.29.14.94-.08,2.32-.59,3.3-1.1-.39.81-.67,1.73-.73,2.73-.07,1.2.24,1.98.55,2.74.28.7.54,1.37.53,2.38,0,.14.1.27.24.3.14.03.28-.03.34-.16.55-1.11,1.61-1.89,2.56-2.54l.32-.22c.87-.59,1.77-1.2,2.46-2.02.29,2.02-.05,3.99-1.06,6-1.07,2.13-2.85,3.85-5.01,4.85-.5.23-1.04.43-1.55.62-.87.32-1.78.66-2.59,1.18-1.76,1.12-2.67,3.16-2.86,5.14-.61-1.88-1.19-3.76-1.75-5.63,1.25-.68,2.73-1.5,3.75-2.59.17-.18.32-.37.46-.56,1.11-1.56,1.36-3.5.65-4.95-.04-.09-.12-.15-.21-.17-.09-.02-.19,0-.26.07l-3.08,2.71c-.67.59-1.42,1.25-1.89,2.11-.1.19-.18.41-.23.65-1.36-4.54-2.78-9.2-4.5-13.69.02,0,.04.02.06.02,2.12.56,4.4-.33,6.06-.98.04-.02.08-.04.11-.08.04-.04.07-.1.08-.16.02-.11-.02-.21-.11-.28-1.08-.9-1.78-2.16-2.52-3.6l-.27-.53c-.39-.77-.72-1.43-1.25-2.06,1.31.32,2.67.43,4,.3.08,0,.14-.04.19-.1.03-.03.05-.07.06-.11.04-.11.01-.23-.07-.32-1.04-1.04-2.4-1.75-3.85-2.03.78-.52,1.28-1.21,1.82-1.98.1-.14.2-.29.31-.43l.25-.35c.81-1.13,1.64-2.3,2.75-3.1.09-.06.14-.18.12-.29-.02-.11-.09-.21-.2-.25-3.81-1.41-6.56-1.66-8.9-.63.89-1.31,1.51-2.87,1.71-4.39.02-.12-.04-.24-.14-.3-.1-.06-.23-.06-.33.01-1.5,1.05-2.71,2.22-3.58,4.21-.14-.66-.4-1.35-.7-2.18l-.06-.15c-.91-2.45-2.92-4.43-5.37-5.32-.11-.04-.24-.01-.32.07-1.19,1.23-1.94,2.89-2.17,4.6-.34-.34-.68-.68-1.03-1.01.01-.01.03-.03.03-.05,1.48-2.58,1.93-5.72,1.24-8.61-.69-2.89-2.51-5.49-5-7.12-.12-.08-.27-.06-.37.03-.1.09-.13.24-.07.37.8,1.56.86,3.42.83,4.87-.01.45-.03.91-.06,1.36-.06,1.25-.12,2.55.04,3.82.13,1.05.66,2.43,1.38,3.59-1.72-1.41-3.52-2.63-5.39-3.63.07-.38.09-.77.05-1.16-.08-.76-.31-1.52-.67-2.21,0-.09,0-.18.01-.27.03-1.31-.27-2.48-.86-3.37-.98-1.5-2.94-2.42-5.12-2.4-1.93.01-3.76.66-5.53,1.28-.12.04-.2.16-.2.29,0,.13.08.24.2.29.34.12.66.34.97.62-.34.03-.71.13-1.09.33-.23.12-.45.26-.66.4-.28.18-.55.35-.83.47-.11.05-.19.16-.19.28,0,.12.07.23.19.28.37.15.61.57.85.96l.03.06c.18.3.41.64.72.88-.12.05-.24.1-.36.15-.74.32-1.5.66-2.27.94-.1.03-.17.12-.19.22-.02.1,0,.2.07.28.89.95,1.75,1.84,2.65,2.6l-.92,1.07c-.43.5-.83.93-1.34,1.04-.11.02-.2.11-.23.22-.03.11,0,.23.1.31.85.73,1.86,1.28,2.93,1.64-.41.31-.89.54-1.42.58-.13.01-.24.11-.27.24-.03.13.03.26.15.33,1.51.87,3.39,1.95,5.4,1.97,1.07.02,2.15-.26,3.14-.81.62-.35,1.19-.8,1.69-1.32.61-.66,1.1-1.43,1.42-2.26.18-.47.3-.95.36-1.44.51-.6.86-1.23,1.07-1.87,1.68.91,3.31,2.01,4.87,3.27-.36-.06-.71-.06-1.01,0-.96.21-1.81.75-2.56,1.22l-3.47,2.19c-.08.05-.13.14-.14.23,0,.09.03.19.1.25,1.19,1.09,3.13,1.39,4.93.77,1.53-.53,2.92-1.87,4.07-3.01.57.52,1.12,1.07,1.67,1.64-.03.69.03,1.37.18,2.04.04.16.09.32.14.49-1.06-.85-2.44-1.53-3.47-1.7-.11-.02-.23.02-.3.12-.07.09-.08.22-.02.32.52,1,1.75,2.33,2.75,3.15-1.08-.08-2.24.02-3.39.42-1.31.46-2.01,1.14-2.69,1.8-.64.62-1.24,1.2-2.34,1.64-.13.05-.21.19-.19.33.02.14.14.25.28.26,1.45.1,2.77.9,3.9,1.64l.38.25c1.12.74,2.28,1.51,3.62,1.85.11.03.22.05.33.07-1.41.87-2.79,2.01-3.79,3.2-.08.09-.1.23-.04.34.06.11.18.17.3.16,1.44-.13,3.09-.74,4.48-1.64-.16.58-.26,1.18-.29,1.81-.11,2.16.48,4.25,1.05,6.28.04.13.16.22.29.22.14,0,.26-.09.3-.22.36-1.18,1.39-1.96,2.47-2.78.47-.36.96-.73,1.4-1.14.66-.62,1.19-1.39,1.59-2.22.13,1.29.45,2.56.96,3.75.05.12.17.19.3.18.08,0,.15-.04.2-.1.03-.03.06-.08.07-.12.29-.99.54-2.12.5-3.39.74,1.04,1.65,1.83,2.66,2.29,1.37,3.54,2.55,7.2,3.66,10.83-1.17-1.25-2.87-2.32-4.18-2.72-1.33-.41-2.72-.58-4.07-.74-.49-.06-.98-.12-1.46-.19-1.55-.23-3.53-.63-5.05-1.78-.11-.08-.26-.08-.37,0-.11.09-.15.23-.09.36,1.29,2.94,3.72,5.36,6.67,6.62,2.87,1.23,6.18,1.34,9.13.34.21.69.41,1.37.62,2.05.96,3.21,1.96,6.49,3.05,9.74,0,0,0,.02,0,.03,0,.03.02.05.03.07.48,1.43.98,2.86,1.51,4.26.82,2.17,1.72,4.31,2.68,6.42-4.4-4.85-9.58-8.55-15.77-11.27-.94-.41-1.87-.77-2.78-1.09-.4-.89-1.22-1.62-2.51-2.23-.32-.15-.65-.29-.98-.43-.38-.16-.74-.31-1.1-.49.68-1.44,1.45-3.15,1.44-4.73-.01-1.91-.94-3.64-2.36-4.4-.08-.04-.18-.05-.27,0-.09.04-.15.12-.17.21l-.91,4c-.19.81-.38,1.73-.31,2.64-.48-.68-.9-1.43-1.31-2.16l-.35-.62c-.45-.79-.99-1.65-1.67-2.4.03-.01.05-.02.08-.04,0,0,0,0,0-.01.08-.1.1-.24.03-.35-.34-.6-.76-1.25-1.35-1.84,1.09.12,2.13-.06,2.94-.55,1.4-.84,2.1-2.51,2.61-3.72.04-.1.03-.21-.04-.3-.06-.09-.17-.13-.28-.12-1.01.11-2.02-.17-3.14-.51l-.41-.13c-.53-.17-.99-.31-1.5-.38.57-.38,1.11-.82,1.58-1.33.15-.17.3-.34.44-.51.07-.09.09-.22.04-.32-.05-.11-.16-.17-.28-.17-1.03.01-2.05.33-2.92.89.08-.63-.03-1.21-.15-1.81l-.13-.69c-.18-.99-.37-2.02-.22-3,.02-.11-.03-.22-.12-.29-.09-.07-.21-.08-.31-.03-2.58,1.23-4.11,2.51-4.81,4.16-.26-1.06-.74-2.09-1.39-2.92-.07-.1-.2-.14-.32-.11-.12.03-.21.13-.22.25-.21,1.27-.22,2.46.3,3.85-.38-.21-.81-.4-1.31-.62l-.11-.05c-1.77-.78-3.86-.74-5.6.11-.11.05-.18.16-.17.28.06,1.98,1.2,3.92,2.89,4.94.03.02.07.04.1.06-.92.15-1.86.51-2.45.94-.1.07-.14.18-.12.3.02.11.1.21.21.24.74.22,1.92.26,2.85.19-.53.51-1.01,1.12-1.35,1.86-.44.94-.44,1.66-.44,2.37,0,.64,0,1.25-.32,2.04-.05.13,0,.28.11.36.12.08.27.07.38-.02.78-.7,1.86-.98,2.81-1.2l.33-.07c.97-.21,1.97-.43,2.84-.97.01,0,.03-.02.04-.03-.23,1.14-.31,2.37-.21,3.45.01.12.1.23.22.26.11.03.23,0,.31-.08,0,0,0-.01.01-.02.64-.79,1.14-1.9,1.4-3.04.2.32.43.64.7.93,1.09,1.17,2.5,1.93,3.85,2.67.12.06.27.04.36-.05,0,0,0,0,0,0,.09-.1.11-.24.04-.36-.42-.77-.31-1.69-.19-2.66.05-.43.11-.88.12-1.32,0-.53-.08-1.05-.22-1.56,1.66.65,2.8,2.31,3.6,3.74l.35.62c.76,1.37,1.55,2.78,2.74,3.79.33.37.72.68,1.12.86.07.03.15.03.21,0,.4.2.81.38,1.22.54.32.13.64.27.96.41.86.4,1.48.86,1.88,1.38-4.34-1.36-8.24-1.54-11.63-.53-.9.27-1.76.65-2.56,1.1-1.22-1.12-2.74-2.51-4.37-3-1.83-.55-3.75-.17-4.9.97-.08.08-.1.16-.09.26.01.09.07.18.15.23l3.56,2.04c.77.44,1.64.94,2.6,1.12.25.04.52.04.81,0-2.03,1.83-3.4,4.24-3.69,6.74-.23.02-.45.05-.67.12-.51.16-.99.43-1.41.76-.05,0-.11.02-.16.03-.91.17-1.67.54-2.21,1.08-.9.9-1.26,2.38-.93,3.88.28,1.32.98,2.47,1.65,3.58.07.11.2.17.32.14.06-.01.12-.05.16-.09.04-.04.07-.1.08-.16.03-.17.09-.35.18-.53.08.18.17.35.31.52.11.14.24.27.37.4.16.16.31.31.43.49.07.1.19.15.31.12.06-.01.12-.05.16-.09.04-.04.07-.09.08-.15.05-.24.28-.45.54-.69.15-.14.32-.31.44-.5.02.03.05.07.07.1.32.45.65.92.95,1.39.05.09.15.14.25.14.09,0,.17-.03.23-.1,0-.01.02-.02.03-.03.5-.71.96-1.39,1.34-2.08l.77.43c.38.21.71.41.85.71.05.11.15.18.27.18.09,0,.18-.03.24-.1.02-.02.03-.04.04-.06.35-.63.58-1.33.69-2.05.19.2.35.43.43.7.04.13.15.22.29.22.09,0,.17-.04.23-.1.03-.03.05-.07.07-.11.38-1.15.85-2.58.58-3.97-.14-.74-.49-1.45-1.01-2.05-.74-.86-1.8-1.45-2.91-1.63-.34-.05-.68-.07-1.02-.05-.47-.25-.95-.41-1.41-.46.48-3.91,3.8-7.62,8.04-8.89,4.18-1.25,9.18-.62,14.88,1.88.06.03.11.05.17.08-1.57-.07-3.3.24-4.42.75-1.27.57-2.42,1.36-3.54,2.13-.41.28-.81.56-1.22.82-1.31.86-3.07,1.86-4.97,2-.14.01-.25.11-.28.25-.02.14.05.27.17.33,2.91,1.36,6.33,1.57,9.38.57,2.04-.67,3.89-1.87,5.36-3.44.67-.72,1.26-1.52,1.74-2.37,5.71,2.87,10.5,6.69,14.58,11.61,1.16,2.39,2.4,4.73,3.73,7.02-.9-.65-1.87-1.17-2.68-1.42-1.33-.41-2.72-.58-4.07-.74-.49-.06-.98-.12-1.46-.19-1.55-.23-3.53-.63-5.05-1.78-.11-.08-.26-.08-.37,0-.11.08-.15.23-.09.36,1.29,2.94,3.72,5.36,6.67,6.62,2.83,1.21,6.09,1.33,9.02.37,3.53,5.61,7.59,10.87,12.11,15.72-.17-.05-.33-.09-.5-.1-1.08-.1-2.15.2-3.09.46l-4.35,1.2c-.09.03-.17.09-.2.18-.04.09-.03.19.02.27.97,1.59,2.96,2.57,5.07,2.51,1.88-.05,3.86-1.14,5.46-2.02,6.15,6.18,13.07,11.61,20.62,16.11.13.08.28.05.38-.05.01-.02.03-.03.04-.05.09-.14.04-.33-.11-.42-10.07-6-19.02-13.67-26.49-22.57.56-.44,1.09-.92,1.58-1.45,1.94-2.07,3.26-4.72,3.73-7.52.59-3.59-.22-7.37-2.25-10.39-.08-.12-.22-.16-.35-.12-.13.05-.21.17-.2.31.16,2.17-.66,4.31-1.39,5.94-.23.51-.47,1.01-.71,1.51-.67,1.39-1.35,2.82-1.78,4.34-.43,1.54-.43,3.93.1,5.83-2.56-3.18-4.94-6.5-7.12-9.96,0,0,0,0,0-.01.03-.08.03-.17-.01-.25-.24-.48-.6-.96-1.03-1.41-1.68-2.77-3.23-5.63-4.65-8.55,0,0,0,0,0-.01-1.33-2.74-2.54-5.54-3.62-8.4-.54-1.41-1.04-2.85-1.52-4.29-.32-1.77.07-3.99,1.3-5.54,1.45,1.32,4.16,2.2,5.93,2.2,1.39,0,2.77-.25,4.11-.49.48-.09.97-.17,1.45-.25,1.55-.24,3.56-.43,5.35.22.12.04.24,0,.33-.08.01-.01.02-.02.03-.04.08-.11.07-.27-.02-.37-2.09-2.44-5.12-4.03-8.32-4.37-1.04-.11-2.08-.08-3.11.07,2.08-1.08,3.79-2.8,4.84-4.89.82-1.63,1.22-3.29,1.22-4.95.24.8.54,1.56.88,2.24.06.11.17.18.3.16.08,0,.15-.04.2-.1.03-.03.05-.07.07-.12.36-1.16.42-2.64.19-4.02.39.29.8.56,1.26.78,1.69.8,3.54,1.02,5.34,1.23.1.01.19-.03.26-.09.02-.03.04-.06.06-.09.05-.13.02-.27-.09-.36-.81-.67-1.09-1.73-1.38-2.85-.13-.49-.26-1-.45-1.48-.26-.69-.66-1.33-1.15-1.89,1.03.3,2.1.45,3.16.43.08,0,.16-.04.22-.1.03-.03.05-.07.07-.11.04-.12,0-.26-.1-.34-.66-.53-1.44-1.08-2.41-1.46,1.3-.32,2.4-.98,3.09-1.89,1.15-1.51,1.19-3.62,1.22-5.15,0-.11-.05-.21-.15-.27-.09-.06-.21-.06-.3,0ZM45.51,25c.16,1.54-.63,3.01-2.37,4.38-.66.52-1.4.94-2.17,1.22.77-1.52,1.96-2.85,3.39-3.78.12-.08.17-.24.12-.37-.06-.14-.2-.21-.35-.18-1.35.28-2.78.1-4.01-.5,1.32-.48,2.76-.56,4.13-.23.12.03.25-.02.33-.13.07-.11.07-.24,0-.35-.83-1.17-1.31-2.57-1.37-4,.05.03.1.07.15.1.18.12.34.23.38.27.33.31.62.66.88,1.04.5.76.81,1.63.9,2.51ZM36.99,28.28c-.82-.34-1.58-.81-2.3-1.38-.06-.19-.12-.38-.22-.55-.16-.29-.38-.53-.66-.71-.04-.03-.08-.05-.12-.07-.1-.06-.19-.11-.25-.18-.07-.07-.12-.19-.09-.27.03-.06.11-.11.19-.17.12-.08.26-.17.32-.33.05-.15.01-.3-.03-.42-.02-.08-.04-.15-.04-.21.01-.13.16-.25.29-.34l.67-.5c.22-.1.45-.2.67-.29.69-.28,1.26-.47,1.78-.61.78-.22,1.5-.34,2.2-.37,1.31-.05,2.52.28,3.43.92.17.64.42,1.26.73,1.84-1.28-.78-2.75-1.29-4.48-1.53-.08-.01-.16.05-.17.13-.01.08.05.16.13.17,1.58.22,2.94.67,4.13,1.35-1.33-.11-2.68.13-3.9.7-.1.05-.17.15-.18.26,0,.11.05.22.14.28,1.12.69,2.43,1.04,3.74,1.01-2.19.71-4.73.37-6.62-.95-.07-.05-.16-.03-.21.04-.05.07-.03.16.04.21,1.83,1.28,4.24,1.66,6.4,1.13-.33.31-.64.65-.93,1-1.15.39-2.35.46-3.49.22-.4-.09-.79-.21-1.18-.37ZM44.09,19.42c.41.63.66,1.43.73,2.33-.13-.16-.26-.32-.4-.47-.4-1.16-1.34-2.16-2.48-2.61-.08-.03-.17,0-.2.09-.03.08,0,.17.09.2.87.34,1.6,1.01,2.05,1.83-.06-.04-.12-.08-.18-.12-.18-.12-.47-.32-.56-.4-.05-.07-.14-.12-.23-.12-.17,0-.31.13-.32.29-.01.3,0,.6.02.9-.92-1.51-2.58-2.58-4.34-2.71-.09,0-.16.06-.16.14,0,.08.06.16.14.16,1.82.13,3.53,1.33,4.32,2.97-.92-.46-2.01-.69-3.17-.65-.68.02-1.37.13-2.11.33-.14-.24-.28-.47-.41-.71-.08-.15-.17-.31-.26-.46.09-.53-.05-1.11-.41-1.52l-.04-.04c-.1-.12-.21-.24-.19-.34.02-.09.14-.16.27-.22l1.88-.89c.45-.07.9-.12,1.35-.12,1.55-.01,3.57.54,4.61,2.13ZM36.85,17.68l-.73.35c-.13.06-.38.18-.43.42-.06.25.12.45.25.61l.04.04c.2.23.32.53.35.84-.04-.07-.08-.14-.12-.2-.43-.64-.88-1.12-1.38-1.44.67-.23,1.34-.44,2.02-.62ZM33.74,21.63l-.03-.06c-.18-.31-.38-.64-.66-.9.15-.09.3-.18.44-.28.2-.13.4-.26.61-.37.08-.04.18-.09.29-.13-.04.04-.07.09-.1.13-.05.08-.11.15-.17.19-.05.03-.12.05-.23.08-.11.03-.23.07-.33.16-.12.14-.17.31-.09.45.04.07.09.11.14.15.02.01.04.03.05.04.04.04.06.13.07.2l.11.53c-.04-.07-.09-.13-.13-.2ZM34.67,22.51c-.16-.03-.29-.12-.42-.23,0-.13-.02-.26-.05-.37l-.14-.68c-.02-.1-.05-.24-.15-.35-.03-.03-.06-.05-.09-.07-.02-.02-.05-.04-.06-.05,0-.01,0-.07.03-.08.05-.04.13-.07.23-.1.09-.02.19-.05.29-.11.11-.07.18-.18.25-.27.05-.08.1-.15.16-.19.05-.04.12-.06.2-.08.04-.01.09-.03.13-.04.08-.03.14-.07.19-.11.1.01.19.04.28.08.06.08.12.15.17.23.23.35.44.73.64,1.09.07.12.14.23.2.35l-1.48-.46c-.08-.02-.17.02-.19.1-.03.08.02.17.1.19l1.5.47c-.38.12-.8.27-1.27.46-.18.07-.35.15-.52.22,0,0,0,0-.01,0ZM31.96,24.33c.57-.22,1.14-.47,1.69-.71-.08.09-.14.2-.15.33-.01.12.02.23.05.32.03.09.05.17.03.23-.02.07-.1.12-.19.17-.11.07-.24.15-.31.3-.1.22,0,.46.15.61.1.1.21.17.31.23.04.02.07.04.11.07.23.15.42.36.55.6,0,0,0,.01,0,.02-.76-.65-1.5-1.39-2.25-2.19ZM33.35,28.53l-.02.06c-.04.16-.09.35-.22.45-.03.02-.06.04-.09.06-.09.06-.2.12-.25.25-.09.2,0,.42.27.65l.1.09c-.31-.17-.61-.36-.89-.57.46-.25.81-.65,1.09-.98ZM34.21,30.59l-.97-.83c-.15-.12-.21-.23-.19-.29.02-.04.07-.08.13-.11.04-.03.08-.05.12-.08.2-.16.27-.42.32-.61l.19-.68.51-.59c.6.47,1.23.87,1.89,1.2-.66.17-1.33.3-2,.38-.08,0-.14.09-.13.17,0,.08.09.14.17.13.69-.08,1.38-.22,2.06-.39-.05.07-.09.14-.14.22-.23.36-.46.73-.71,1.08-.15.21-.34.43-.55.64-.23-.07-.47-.14-.7-.23ZM35.95,30.54c.05-.06.09-.13.13-.19-.02.07-.03.14-.07.21-.05.1-.13.19-.22.28-.14.16-.31.34-.34.59-.01.1,0,.19,0,.28.01.09.02.18,0,.25-.03.1-.13.18-.23.27l-.03.03c-.13.11-.3.28-.29.52,0,.05.01.09.02.13-.38-.19-.76-.39-1.12-.59.93-.35,1.66-1.11,2.13-1.75ZM43.9,29.81c-.52,1.36-1.55,2.55-2.83,3.26-.89.49-1.87.75-2.83.73-.88-.01-1.72-.24-2.53-.57-.09-.06-.18-.11-.27-.18-.1-.07-.23-.18-.23-.3,0-.08.06-.17.19-.28l.03-.03c.12-.11.26-.23.32-.41.04-.13.03-.26.01-.37,0-.07-.02-.14,0-.2.02-.15.14-.28.26-.42.09-.1.19-.21.26-.34.12-.22.14-.47.16-.71,0-.07.01-.15.02-.22.07-.12.15-.23.22-.34.1-.17.21-.33.32-.49.35.13.69.24,1.04.31.91.2,1.86.2,2.8.03-1,1.02-2.2,1.83-3.54,2.35-.08.03-.12.12-.09.2.03.08.12.12.2.09,1.21-.47,2.32-1.18,3.27-2.06-.21.37-.4.75-.57,1.14-.05.11-.03.23.05.32.08.09.2.12.31.1.71-.19,1.4-.49,2.05-.87-.42.64-1.02,1.16-1.72,1.46-.37.16-.77.27-1.15.37-.08.02-.13.1-.11.19.02.08.11.13.19.11.38-.1.8-.21,1.2-.38.53-.23,1.01-.57,1.4-.99.3-.32.55-.69.74-1.09.15-.1.3-.2.45-.32.18-.14.34-.28.5-.43-.04.12-.07.25-.12.37ZM50.51,17.92c-.04-.22-.11-.43-.16-.65,1.15,1.9,1.84,4.04,2.02,6.26.06.79.06,1.6.06,2.39,0,.49,0,.98,0,1.47.02.93.12,2.09.49,3.22-.21-.21-.42-.45-.61-.71-.95-1.75-1.02-3.94-1.09-6.25-.06-1.92-.13-3.9-.71-5.72ZM53.21,30.57c-.37-1.12-.45-2.28-.48-3.2-.01-.48-.01-.97,0-1.46,0-.79,0-1.61-.06-2.41-.13-1.66-.54-3.27-1.21-4.77,2.56,4.42,2.49,7.12,1.94,11.45-.06.13-.12.26-.18.38ZM47.03,33.22c.44-.21.87-.46,1.28-.7.42-.24.85-.49,1.3-.7.78-.37,1.47-.56,2.12-.58l-1.55.95c-.6.37-1.21.75-1.87,1.01-.85.34-1.77.47-2.65.52.44-.1.89-.26,1.38-.5ZM45.11,33.5l3.24-1.67c.65-.34,1.33-.68,2.06-.78.18-.02.35-.03.53-.02-.46.1-.94.26-1.46.51-.45.22-.89.47-1.32.71-.41.24-.83.48-1.26.69-.65.31-1.24.49-1.79.56ZM54.11,22.95c.48,2.01.37,4.15-.27,6.12.44-4.01.24-6.74-2.62-11.33,1.4,1.44,2.42,3.25,2.89,5.21ZM50.68,26.06c-.16-1.22-.1-2.49-.04-3.72.02-.46.04-.92.06-1.38,0-.21,0-.43,0-.65.14,1.1.17,2.23.21,3.34.05,1.62.1,3.18.45,4.59-.35-.77-.6-1.55-.68-2.19ZM49.91,30.57c.42-.1,1,0,1.53.2-.35-.06-.71-.07-1.06-.02-.78.1-1.48.46-2.16.81l-2.25,1.16,1.58-1c.74-.47,1.51-.95,2.36-1.15ZM45.12,34.04c1.07-.02,2.23-.13,3.3-.56.68-.27,1.31-.66,1.92-1.03l1.77-1.09c-1.07,1.06-2.34,2.24-3.67,2.7-1.15.4-2.36.37-3.32-.03ZM72.19,51.51c-1.87.71-3.56,1.21-5.21.78-.61-.16-1.2-.47-1.74-.89.36.09.74.13,1.11.11.12,0,.25-.02.37-.03.27-.03.52-.06.77-.02.25.03.48.13.73.23l.17.07c.31.12.67.23,1.04.18.25-.03.48-.15.64-.32.1-.11.18-.24.21-.38.04-.16.01-.32,0-.48-.02-.18-.04-.33.02-.45.03-.05.07-.1.11-.15.03-.03.05-.07.08-.1.12-.16.18-.34.21-.52.44.74.91,1.41,1.5,1.98ZM72.16,44.94c-1.38.05-2.78-.16-4.09-.61-.03-.01-.06-.01-.09-.01-.26-.19-.53-.37-.79-.52,1.13.15,2.25.41,3.34.78.06.02.12,0,.16-.04.01-.02.03-.03.03-.06.03-.08-.02-.17-.1-.19-.92-.31-1.86-.54-2.81-.7.06-.02.12-.03.18-.05.11-.03.2-.07.3-.11,1.4.08,2.77.62,3.86,1.51ZM73.59,36.93c-.97.82-1.72,1.87-2.45,2.89l-.02.03s.04-.07.06-.11c.07-.17.08-.35.09-.53,0-.17.02-.34.09-.47.07-.14.21-.25.36-.36.19-.14.38-.29.47-.54.11-.31,0-.69-.28-.93-.22-.19-.51-.29-.88-.32-.19-.01-.39,0-.58,0-.1,0-.19.01-.29.01-.22,0-.53-.01-.74-.18-.05-.04-.1-.1-.14-.15-.06-.06-.11-.13-.18-.18-.12-.1-.27-.16-.4-.22,1.35.03,2.94.35,4.89,1.03ZM66.4,32.19c-.37,1.64-1.22,3.27-2.35,4.49-.03.03-.05.06-.08.09,0,0,0,0,0,0-.02.02-.05.04-.07.05.44-.72.82-1.48,1.12-2.26.03-.08,0-.17-.09-.2-.08-.03-.17,0-.2.09-.41,1.07-.97,2.09-1.65,3.02.05-.2.08-.39.1-.58,0,0,.01-.02.01-.03.73-2.31,1.82-3.61,3.21-4.69ZM60.99,31.82c-.28-.34-.62-.67-1.05-.83-.22-.08-.44-.11-.66-.14-.2-.03-.38-.06-.56-.12-.22-.07-.41-.19-.62-.32-.17-.1-.34-.2-.52-.29-.45-.2-1.06-.23-1.39.19-.17.22-.21.48-.25.73-.01.1-.03.19-.05.28-.1.41-.37.76-.66,1.12-.06.08-.13.17-.19.25.18-1.57.83-3.09,1.89-4.25,1.67.65,3.11,1.86,4.06,3.37ZM55.4,37.97l-.08-.03c-.3-.12-.64-.25-.88-.42-.79-.57-1.91-1.67-2.6-2.64,1.33.45,2.97,1.52,3.57,2.59l-1.74-1.42c-.06-.05-.16-.06-.21.02-.05.07-.04.16.02.21l2.14,1.75c-.07-.02-.14-.04-.21-.06,0,0-.01-.01-.02-.01ZM46.34,41.68c.7-.41,1.18-.88,1.66-1.34.66-.64,1.29-1.25,2.47-1.66.52-.18,1.03-.28,1.55-.35l-.1.07c-.29.2-.57.4-.89.5-.1.03-.2.06-.3.08-.2.05-.4.1-.59.2-.28.16-.47.42-.65.67-.16.23-.31.44-.53.57-.09.06-.2.1-.31.15-.24.1-.48.2-.63.44-.23.38-.05.86.25,1.14.18.18.4.3.61.41.1.06.2.11.3.17.3.19.55.45.75.74l-.36-.24c-.94-.62-2.02-1.28-3.22-1.58ZM50.8,48.91c1.08-1.12,2.47-2.16,3.83-2.88.17,0,.33-.02.5-.04-.96.66-1.95,1.27-2.97,1.83-.08.04-.1.13-.06.21.04.07.13.1.21.06.99-.54,1.95-1.14,2.89-1.77-.13.23-.24.46-.35.71-1.19.91-2.67,1.6-4.05,1.89ZM54.84,51.2c.04.06.08.12.11.19.15.31.2.66.14,1,0,.04-.02.09-.03.13-.01.05-.02.11-.02.16-.09-.49-.16-.98-.2-1.48ZM55.62,55.1c-.16-.6-.31-1.2-.44-1.81,0,0,0,.02.02.03.2.2.5.19.72.09.18-.08.32-.21.45-.33l.06-.05c.12-.11.27-.23.42-.25.1-.02.22,0,.34.03.12.02.25.05.38.03.33-.03.57-.24.81-.44.06-.06.13-.11.19-.16.13-.1.28-.18.43-.25-.33.29-.69.57-1.04.84-.88.66-1.78,1.35-2.33,2.28ZM59.46,51.55c-.4.05-.77.2-1.09.45-.07.05-.14.11-.21.17-.21.18-.4.35-.63.36-.09,0-.2-.01-.3-.03-.14-.02-.28-.05-.44-.03-.24.04-.43.19-.58.33l-.06.06c-.12.11-.23.22-.36.27-.12.05-.29.06-.38-.03-.06-.06-.08-.16-.08-.27,0-.08.02-.17.04-.25.01-.05.02-.1.03-.14.07-.4.01-.82-.17-1.18-.08-.16-.17-.3-.26-.43-.05-.07-.1-.15-.14-.22,0-.25-.02-.51-.01-.76.09-1.68.7-3.24,1.67-4.28,0,0,0-.01.01-.02.1-.11.11-.27.02-.39-.09-.12-.25-.16-.38-.09-.78.38-1.81.46-2.77.22-1.04-.27-2-.84-2.93-1.44-.22-.55-.61-1.03-1.11-1.35-.1-.07-.21-.12-.32-.18-.2-.11-.4-.22-.55-.37-.2-.19-.34-.53-.2-.76.1-.16.28-.23.49-.32.12-.05.24-.1.36-.17.27-.16.44-.41.62-.65.17-.23.33-.46.55-.59.15-.09.32-.13.51-.17.11-.03.22-.05.32-.09.36-.12.67-.33.97-.54l.16-.11c.14-.1.29-.19.44-.26,1.58-.06,3.03.33,3.98.81.13.07.29.04.38-.09.09-.12.08-.28-.02-.39-.93-.99-1.58-2.18-1.87-3.44-.14-.6-.19-1.22-.17-1.84.13-.24.3-.46.49-.7.3-.38.61-.76.72-1.24.02-.1.04-.2.05-.31.03-.22.06-.43.18-.58.24-.28.69-.25,1.03-.1.16.07.32.17.48.27.21.13.44.27.69.35.2.07.41.1.61.13.21.03.41.06.6.13.47.17.82.58,1.13,1l.13.18c.18.25.37.51.59.74.02.05.04.09.06.13l.06.15c.83,2.24,1.21,3.26.08,5.28-.08.14-.04.31.09.4.13.09.31.08.41-.05.62-.73,1.24-1.35,1.93-1.86.04-.02.08-.04.11-.07,0,0,0,0,.01-.01.99-.71,2.11-1.15,3.49-1.24l.62.24c.13.05.27.11.38.19.05.04.1.1.14.15.06.06.11.13.18.18.28.23.67.25.94.25.1,0,.2,0,.3-.01.19-.01.36-.02.54,0,.3.02.53.1.7.24.16.13.27.38.19.59-.06.16-.21.28-.37.4-.17.13-.34.26-.44.46-.1.19-.11.4-.12.59,0,.16-.02.3-.07.43-.04.09-.1.18-.17.28-.03.04-.06.08-.09.13-.19.28-.29.62-.32.96-.64.89-1.24,1.59-2.5,1.96-.6.18-1.1.21-1.43.23-.2.01-.32.02-.43.05-.11.04-.19.13-.2.24-.02.11.03.22.12.29.04.03.17.1.34.19.38.2,1.03.53,1.51.92.97.78,1.36,1.56,1.9,2.65.09.17.17.35.27.53.16.32.32.63.49.93,0,.07.02.13.03.2,0,.19-.02.46-.18.68-.02.03-.04.06-.07.08-.05.06-.11.13-.15.21-.1.21-.08.43-.05.62.02.14.03.26,0,.38-.06.26-.34.43-.59.47-.3.04-.62-.06-.89-.16l-.17-.07c-.25-.1-.52-.21-.8-.25-.29-.04-.57,0-.85.02-.12.01-.24.03-.36.03-.58.03-1.16-.08-1.69-.32-.49-.48-.93-1.06-1.29-1.72-.67-1.23-1.06-2.61-1.38-3.92-.04-.16-.2-.26-.36-.23-.06.01-.12.05-.16.09-.06.07-.09.16-.08.26.38,2.21-.38,4.6-1.9,6.17ZM62.48,52.6c-.45-1.32-.67-2.72-.64-4.11,0-.02,0-.03,0-.05.02-.08.04-.17.06-.25l.31,2.66c0,.08.09.14.17.13.04,0,.07-.02.09-.05.03-.03.05-.08.04-.12l-.32-2.7c.11.28.23.55.36.83,0,0,0,0,0,0,.31,1.35.18,2.58-.07,3.66ZM48.15,63.98c-.19-.1-.37-.2-.55-.31-.03-.02-.06-.04-.09-.06-.4-.25-.78-.54-1.13-.85l.93.71c.06.05.15.04.2-.02,0,0,0,0,0-.01.05-.07.04-.16-.03-.21l-1.22-.93c.07.02.13.04.2.07.74.46,1.27,1.02,1.68,1.62ZM50.48,61.6c-.32.19-.68.33-1.08.41.15-.12.29-.24.42-.38.06-.07.12-.14.17-.21.12-.15.24-.3.38-.41.14-.11.31-.19.49-.26l.12-.05c.19-.09.4-.2.56-.37.03-.03.05-.06.08-.09.2-.26.22-.61.06-.85-.07-.11-.17-.18-.26-.25-.1-.07-.18-.14-.21-.22-.01-.04-.02-.08-.02-.13,0-.03,0-.06-.01-.09-.02-.1-.05-.18-.09-.26.53.12,1.05.2,1.57.2-.56,1.28-1.15,2.37-2.17,2.98ZM49.08,55.31c-.64.67-1.4,1.23-2.22,1.65-.02.01-.04.03-.05.04-.13.02-.25.05-.38.08.59-.44,1.21-.84,1.86-1.17.02,0,.03-.02.04-.03.04-.05.05-.11.02-.17-.04-.08-.13-.1-.21-.07-.55.28-1.09.61-1.59.97.02-.03.03-.06.04-.1.69-.62,1.56-1.04,2.48-1.2ZM45.96,52.82s-.06-.07-.09-.1c-.08-.09-.16-.17-.19-.27-.03-.1-.02-.22,0-.35.02-.17.04-.36-.04-.54-.11-.23-.39-.38-.67-.35-.22.02-.43.12-.64.31-.1.1-.2.2-.29.31-.05.05-.09.11-.14.16-.17.18-.31.27-.45.28-.05,0-.1,0-.14,0-.06,0-.13,0-.19,0-.02,0-.04,0-.06.01.66-.6,1.53-1.19,2.69-1.78-.04.78.09,1.56.22,2.33ZM39.72,51.96c.52.86.86,1.87.97,2.87-.13-.41-.27-.81-.45-1.19-.04-.08-.13-.11-.2-.07-.07.03-.11.13-.07.2.31.66.53,1.37.68,2.1-.03-.03-.05-.06-.08-.1,0,0,0-.01,0-.02-.78-1.45-.94-2.61-.84-3.8ZM32.95,54.83c.98-.44,2.06-.6,3.12-.48-.12.02-.24.06-.36.11-.16.08-.29.18-.42.28-.11.09-.22.17-.34.23-.14.07-.31.12-.48.16-.14.04-.28.07-.42.13-.35.14-.69.47-.63.87.03.21.15.37.26.52.04.05.09.11.12.17.16.25.2.57.25.9,0,0,0,0,0,0-.63-.84-1.03-1.85-1.11-2.89ZM33.93,60.7c.73-.33,1.68-.54,2.43-.5l-1.17.13c-.08,0-.14.08-.13.17,0,.08.09.14.17.13l1.66-.19c-.18.08-.37.17-.54.2-.62.11-1.61.14-2.42.06ZM34.54,66.93c.1-.51.1-.95.1-1.39,0-.67,0-1.3.38-2.11.13-.27.28-.52.44-.76-.03.19-.07.37-.15.53-.03.07-.07.13-.11.2-.08.13-.16.26-.2.42-.06.24-.02.48.02.7.04.2.07.38.03.55-.02.08-.05.16-.08.23-.07.17-.15.37-.09.58.09.33.45.49.77.48.19,0,.37-.06.54-.11.08-.02.16-.05.24-.07.12-.03.24-.04.36-.05-.74.17-1.54.38-2.26.78ZM37.59,65.97c-.39-.14-.82-.17-1.22-.07-.09.02-.17.05-.26.07-.16.05-.31.09-.46.1-.19,0-.42-.08-.46-.25-.03-.12.02-.24.08-.39.04-.09.07-.19.09-.28.05-.23.01-.46-.03-.67-.04-.2-.07-.4-.03-.57.03-.12.1-.23.16-.34.04-.07.09-.14.12-.22.12-.25.17-.53.21-.79l.03-.15c.02-.09.04-.17.06-.26.77-.88,1.73-1.45,2.47-1.71.14-.05.23-.19.2-.34-.02-.15-.15-.26-.3-.26-.98-.01-1.92-.28-2.72-.76-.4-.24-.77-.55-1.09-.89-.04-.16-.06-.33-.08-.5-.05-.35-.09-.72-.29-1.03-.04-.07-.09-.13-.14-.19-.1-.12-.19-.24-.2-.37-.03-.23.2-.45.44-.55.12-.05.25-.08.38-.12.18-.05.37-.09.54-.18.14-.07.27-.17.39-.26.12-.09.24-.18.37-.24.32-.16.71-.13,1.08-.08l.16.02c.19.03.37.05.57.06.07.03.13.05.2.08l.11.05c1.58.69,2.3,1.01,2.77,2.6.04.15.2.24.35.21.15-.03.26-.17.25-.33-.07-.68-.08-1.32,0-1.92.01-.04.02-.08.02-.12,0,0,0,0,0,0,.14-.89.48-1.7,1.16-2.48l.35-.16c.09-.04.19-.09.28-.1.05,0,.1,0,.14,0,.06,0,.13,0,.19,0,.28-.03.5-.23.64-.38.05-.05.1-.11.15-.16.09-.1.17-.2.27-.28.16-.14.31-.22.46-.23.16-.01.31.06.37.18.05.1.03.24.02.38-.02.15-.04.32.02.49.05.16.16.28.26.38.08.08.15.16.18.24.03.06.04.14.06.22,0,.04.01.08.02.11.05.22.15.42.29.6.15.8.22,1.48-.22,2.33-.21.4-.44.67-.6.86-.1.11-.16.19-.2.27-.05.1-.04.22.03.31.07.09.18.14.29.12.04,0,.15-.04.29-.09.3-.1.8-.27,1.24-.32.89-.11,1.49.08,2.33.35l.42.13c.28.09.56.17.83.24,0,0,.01,0,.02.01.1.09.22.23.25.41,0,.02,0,.05,0,.07,0,.06.01.13.04.2.06.17.2.27.32.37.08.06.15.11.19.18.1.15.05.36-.05.5-.13.17-.33.28-.52.37l-.12.05c-.19.08-.38.17-.55.3-.17.13-.3.3-.43.46-.05.07-.11.14-.16.2-.25.29-.57.51-.91.67-.52.02-1.07-.04-1.62-.19-.98-.27-1.9-.77-2.75-1.26-.14-.08-.32-.04-.41.1-.09.14-.05.32.09.42,1.35.92,2.21,2.53,2.24,4.13-.15.23-.25.48-.28.75,0,.06-.01.13-.01.2-.01.19-.02.37-.12.49-.05.05-.1.09-.16.14-.08.06-.18.13-.25.23-.11.15-.13.34-.13.5v.06c0,.12,0,.23-.04.32-.03.08-.1.16-.17.16-.05,0-.1-.03-.15-.08-.04-.04-.07-.09-.11-.14-.02-.03-.04-.06-.06-.09-.18-.25-.44-.43-.73-.53-.12-.04-.24-.06-.37-.09-.03,0-.07-.01-.1-.02-.15-.14-.3-.27-.44-.42-.83-.89-1.33-1.99-1.38-3.03,0-.15-.12-.27-.26-.29-.1-.01-.2.02-.26.09-.03.03-.05.07-.07.11-.19.59-.66,1.16-1.27,1.53-.67.41-1.47.62-2.26.8ZM44.26,67.76s-.04-.03-.07-.05c.02.02.04.03.07.05ZM41.06,64.94c-.12.64-.25,1.28-.42,1.91.07-.63.19-1.26.35-1.83.02-.02.04-.05.06-.07ZM40.57,68.16c0-.29.01-.58.03-.87.02.03.04.05.08.06.06.02.11,0,.15-.04.02-.02.03-.04.04-.06.2-.73.36-1.47.49-2.22.04.11.07.23.12.34-.11.97-.44,1.98-.91,2.79ZM46.08,68.91c-.3-.17-.6-.34-.89-.52.07-.03.14-.07.19-.12.06-.06.1-.13.13-.21.05-.14.05-.29.06-.42v-.05c0-.12.02-.25.08-.33.04-.06.11-.1.17-.15.07-.05.16-.11.22-.19.03-.03.04-.07.06-.1-.09.7-.16,1.41-.02,2.09ZM54.26,66.57c-.05.48-.14.96-.23,1.42-.09.48-.18.98-.23,1.48-.06.57-.06,1.08,0,1.55-.07-.17-.12-.33-.16-.51-.15-.72-.05-1.47.05-2.2l.49-3.62c.12.54.15,1.16.07,1.88ZM54.57,65.17c.25.84.43,1.73.39,2.64-.03.7-.18,1.41-.33,2.1l-.38,1.78c-.2-.61-.25-1.33-.15-2.19.05-.49.14-.98.23-1.45.09-.47.18-.96.23-1.44.06-.52.06-.99.01-1.43ZM55.82,67.65c0,1.41-.69,3-1.33,4.36l.44-2.03c.15-.7.31-1.42.33-2.15.04-1.16-.24-2.29-.58-3.31.7.78,1.13,1.91,1.13,3.13ZM53.31,67.58l.42-1.83-.34,2.51c-.1.72-.21,1.53-.05,2.31.07.35.2.68.37.99,0,0,0,0,0,0-.37-.42-.64-.93-.69-1.36-.1-.87.1-1.75.29-2.61ZM41.3,85.83c.37.31.7.67.97,1.06-1.03-.32-1.98-.9-2.74-1.66-.1-.1-.27-.12-.39-.04-.02.01-.04.03-.05.04-.08.09-.11.22-.06.33.34.78.43,1.66.27,2.49-.42-.76-.63-1.63-.6-2.5,0-.13-.07-.24-.19-.29-.12-.05-.25-.02-.34.07,0,0,0,0-.01.01-.62.66-1.4,1.14-2.27,1.4.04-.1.08-.19.1-.22.16-.26.35-.5.57-.72.43-.43.96-.76,1.53-.94.98-.32,2.06.01,3.2.97ZM41.39,90.05c-.11.61-.33,1.19-.62,1.77-.09.05-.18.11-.27.18-.18.15-.32.35-.4.56l-.03.09c-.02.07-.05.13-.08.19-.03.05-.09.08-.12.08-.03,0-.08-.05-.12-.09-.07-.07-.16-.16-.3-.18-.13-.02-.23.04-.31.08-.04.02-.09.05-.12.05-.07,0-.16-.06-.23-.13l-.27-.24c-.13-.19-.27-.38-.4-.57-.28-.42-.47-.75-.64-1.08,0,0,0,0,0-.01,0,0,0-.02-.01-.02-.26-.49-.43-.95-.55-1.41-.21-.85-.16-1.68.13-2.37.33-.17.65-.37.94-.6-.29.92-.41,1.92-.34,3.03,0,.08.08.15.16.14.04,0,.08-.02.1-.05.03-.03.04-.07.04-.11-.06-.98.02-1.85.25-2.67.15.82.48,1.61.98,2.29.07.09.18.14.29.12.11-.02.2-.09.24-.2.26-.72.34-1.51.24-2.27.59,1.3.64,2.84.08,4.15-.03.08,0,.17.08.2.06.03.13,0,.17-.04.01-.01.02-.03.03-.04.58-1.36.54-2.95-.04-4.3.19.12.39.24.59.35.41.7.62,1.48.62,2.27,0,.28-.03.55-.08.83ZM37.71,92.74c-.06.02-.12.04-.16.06l-.44.19c-.07.03-.17.07-.23.17-.02.02-.03.05-.04.07,0,.01-.01.03-.02.02-.03-.02-.05-.06-.08-.12-.03-.06-.07-.13-.13-.19-.07-.07-.16-.11-.24-.14-.05-.02-.11-.04-.14-.07-.03-.03-.05-.07-.07-.11-.02-.03-.03-.06-.05-.08-.01-.02-.03-.03-.04-.04,0-.07,0-.14,0-.21.04-.04.07-.08.11-.12.2-.21.42-.4.65-.59.03-.02.05-.05.08-.07l-.08.87c0,.08.05.16.14.17.05,0,.09-.01.13-.05.02-.02.04-.05.04-.09l.08-.85c.11.19.24.39.39.61.07.1.14.2.2.29,0,.09-.04.19-.1.28ZM35.41,92.13s.02-.02.02-.03l.02-.03s.03-.02.04-.04c-.03.03-.06.07-.08.1ZM34.56,86.58c.34-.34.74-.55,1.13-.7-.04.06-.08.12-.12.18-.68.45-1.19,1.2-1.33,2.01-.01.08.04.16.12.18.05,0,.1-.01.14-.05.02-.02.03-.05.04-.08.09-.51.34-.99.69-1.38-.04.1-.08.2-.11.24-.05.07-.08.15-.07.25.03.17.19.28.35.25.13-.02.25-.06.38-.09-.79.84-1.21,2.03-1.06,3.17.01.08.09.14.17.13.04,0,.07-.02.09-.05.03-.03.05-.08.04-.12-.16-1.16.34-2.4,1.23-3.17-.14.65-.13,1.38.04,2.1.11.44.28.88.5,1.33-.12.11-.25.22-.37.33-.1.09-.21.18-.31.27-.35.04-.69.22-.91.5l-.03.03c-.05.07-.12.16-.16.15-.05,0-.12-.09-.15-.13l-.75-.99c-.14-.34-.26-.68-.33-1.04-.22-1.02-.14-2.42.77-3.32ZM34.77,92.28c.06.05.15.1.25.1.13,0,.23-.07.31-.15-.12.16-.22.33-.3.5-.09-.15-.17-.3-.25-.45ZM36.8,93.56c.06,0,.13,0,.18-.04-.03.04-.07.08-.1.12-.03-.03-.05-.05-.08-.08ZM37.08,93.41s.03-.04.05-.07c0-.01.04-.03.07-.05-.04.04-.08.08-.12.12ZM38.98,93.08s.04,0,.07,0c.09-.01.16-.05.23-.08.05-.03.1-.05.13-.05.03,0,.08.05.12.09.07.07.15.15.27.18.05.01.11,0,.16-.01-.14.21-.28.43-.43.64-.17-.27-.36-.52-.54-.78ZM41.85,90.76c.17.36.32.73.45,1.11.03.08.11.12.19.1.03,0,.05-.02.06-.04.04-.04.05-.1.03-.15-.13-.4-.3-.79-.47-1.17,0,0,0,0,0,0,.28.1.56.21.82.33.14.07.3.15.45.24-.02.19-.04.39-.08.58l-.34.63c-.07.12-.11.14-.12.14-.01,0-.05-.04-.07-.06-.02-.03-.05-.05-.08-.07-.15-.12-.34-.13-.48-.14l-.37-.02-.47-.26c.19-.39.35-.79.47-1.2ZM42.82,92.81c.06,0,.13-.01.2-.06-.02.06-.04.12-.07.17-.04-.04-.09-.08-.13-.11ZM43.8,90.71s.01,0,.02,0c.07,0,.14-.03.2-.05.06-.02.11-.04.15-.03.06,0,.12.05.21.12.09.07.22.15.38.14-.05.18-.1.36-.15.54-.22-.3-.51-.53-.8-.73ZM44.07,86.7c.45.52.75,1.13.87,1.77.13.66.06,1.33-.08,2-.04.08-.08.12-.11.13-.04,0-.1-.02-.2-.1-.09-.07-.2-.15-.34-.17-.1,0-.19.02-.27.04-.05.01-.09.03-.13.03-.09,0-.18-.05-.29-.11-.09-.05-.18-.1-.28-.13-.18-.05-.35-.03-.52-.01-.02,0-.03,0-.05,0-.11-.04-.22-.09-.33-.13-.1-.04-.2-.08-.3-.12.03-.23.05-.46.06-.69,0-.59-.11-1.17-.31-1.73.75.51,1.39,1.16,1.88,1.93.05.07.14.09.21.05.01,0,.02-.02.03-.02.05-.05.06-.13.02-.19-.43-.66-.97-1.23-1.57-1.71.17.05.34.1.51.13.1.02.21-.01.28-.09,0,0,.01-.02.02-.02.07-.09.08-.22.03-.32-.18-.35-.4-.69-.65-1.01.34.19.65.46.88.78.16.22.28.47.4.71h0c.04.08.13.11.2.07.02,0,.03-.02.04-.03.04-.05.06-.12.03-.18-.13-.25-.26-.51-.43-.75-.39-.55-.97-.94-1.61-1.13-.12-.11-.23-.23-.36-.33-.03-.02-.06-.04-.09-.07.94.17,1.84.67,2.47,1.4ZM38.47,74.57c.44.19.87.41,1.29.63.44.23.89.46,1.35.66.53.22,1.02.37,1.48.45-.18.01-.36.02-.53,0-.73-.07-1.42-.38-2.09-.69l-3.31-1.53c.56.04,1.15.19,1.82.48ZM37.19,73.85c.88,0,1.81.1,2.67.4.67.23,1.3.59,1.91.93l1.59.89c-.64,0-1.35-.16-2.14-.49-.45-.19-.9-.42-1.33-.65-.42-.22-.86-.45-1.31-.64-.5-.21-.96-.35-1.4-.44ZM39.96,73.39c1.35.4,2.67,1.53,3.78,2.55l-1.82-1.01c-.62-.35-1.27-.71-1.96-.95-1.09-.38-2.25-.44-3.32-.42.95-.44,2.15-.52,3.32-.17ZM39.16,75.77l-1.63-.93,2.3,1.06c.69.32,1.41.65,2.19.72.35.03.71,0,1.06-.07-.52.23-1.09.34-1.52.27-.86-.15-1.65-.61-2.41-1.04ZM63.52,78.71c-3.77,3.04-6.24,4.65-11.99,4.74,1.86-.22,3.68-.76,5.36-1.62.78-.4,1.53-.86,2.26-1.31.45-.28.89-.55,1.35-.82,1.25-.72,2.28-1.16,3.27-1.38-.08.13-.17.26-.25.39ZM60.34,79.44c-.46.26-.91.54-1.36.82-.72.45-1.47.91-2.23,1.3-2.17,1.11-4.57,1.69-7.01,1.69.23-.07.46-.14.68-.22,2.05-.49,3.93-1.56,5.77-2.61,2.2-1.26,4.3-2.46,6.49-2.54.34.03.66.08.96.16-1.28.3-2.42.89-3.3,1.4ZM54.66,80.62c1.1-.75,2.23-1.53,3.45-2.08.69-.31,1.64-.54,2.64-.64-1.57.46-3.11,1.34-4.7,2.25-1.13.65-2.28,1.3-3.47,1.82.3-.18.58-.35.84-.53.42-.27.83-.55,1.24-.83ZM57.21,83.51c-2.13.7-4.46.77-6.64.25,6.05.07,8.69-1.33,12.23-4.1-1.46,1.77-3.41,3.13-5.6,3.85ZM83.9,99.76c-4.84-.21-7.76-.63-12.13-4.35,1.54,1.07,3.26,1.86,5.1,2.33.85.22,1.72.36,2.56.5.52.09,1.04.17,1.55.28.99.2,2.23.5,3.37,1.12-.15.05-.3.09-.45.13ZM84.19,99.22c-1.08-.53-2.23-.81-3.15-1-.52-.1-1.04-.19-1.56-.28-.84-.14-1.7-.29-2.54-.5-2.37-.6-4.55-1.76-6.38-3.35.22.1.44.2.66.28,1.86.98,3.99,1.43,6.06,1.85,2.48.5,4.84.99,6.53,2.36.13.21.25.42.38.63ZM75.99,95.36c1.32.16,2.69.33,3.96.72.72.22,1.59.68,2.41,1.26-1.48-.69-3.22-1.05-5.02-1.41-1.27-.26-2.57-.53-3.81-.92.34.06.67.12.98.16.49.07.98.13,1.47.19ZM76,99.21c-2.07-.88-3.86-2.36-5.15-4.2,4.49,4.04,7.4,4.74,11.9,5-2.27.37-4.63.1-6.75-.8ZM92.5,118.29c.53-.08,1.06-.2,1.58-.32.52-.12,1.06-.24,1.6-.32.98-.14,1.81-.1,2.53.12l-2,.52c-.75.2-1.52.4-2.3.45-1.08.08-2.18-.12-3.19-.4.54.06,1.14.04,1.79-.06ZM90.2,117.96l4.1-.72c.8-.14,1.62-.29,2.44-.14.24.04.47.12.69.21-.55-.06-1.15-.05-1.82.05-.55.08-1.09.2-1.62.32-.51.12-1.03.24-1.55.31-.85.13-1.59.11-2.25-.03ZM96.33,116.37c.57.05,1.29.45,1.85.97-.43-.26-.89-.46-1.37-.54-.87-.16-1.76,0-2.55.14l-3.52.62,2.72-.75c.93-.26,1.9-.52,2.87-.44ZM90.1,118.49c1.19.37,2.51.66,3.82.57.81-.06,1.6-.27,2.36-.46l2.28-.6s.03.03.05.04c-1.46.8-3.2,1.69-4.8,1.73-1.41.04-2.76-.44-3.71-1.28ZM94.73,101.69c.89-2.3,1.79-4.68,1.95-7.13.05-.27.09-.54.12-.81.46,2.8.24,5.68-.65,8.38-.31.93-.7,1.84-1.07,2.73-.23.54-.47,1.11-.69,1.67-.43,1.11-.91,2.54-1.01,4.07-.14-.31-.25-.65-.35-1.02-.35-2.52.65-5.14,1.71-7.88ZM93.67,110.62c.09-1.49.57-2.9.99-3.99.22-.56.45-1.12.69-1.66.38-.89.77-1.81,1.08-2.75.73-2.2,1.01-4.51.86-6.8,1.03,6.85-.36,9.92-3.22,14.84-.13.12-.26.24-.4.36ZM98.43,102.3c-.44,2.66-1.7,5.16-3.53,7.14,2.62-4.63,3.78-7.84,2.57-14.9,1.05,2.43,1.4,5.15.97,7.76ZM92.94,104.15c.41-1.46,1.08-2.87,1.74-4.24.24-.51.49-1.01.72-1.53.21-.45.41-.95.61-1.47-.38,1.58-.97,3.14-1.56,4.66-.79,2.06-1.56,4.05-1.76,5.99-.09-1.25,0-2.51.25-3.42ZM75.14,63.98c-.32.35-.67.69-1.01,1.02-.35.34-.72.69-1.05,1.06-.38.43-.68.84-.9,1.26.04-.17.1-.34.17-.5.3-.67.82-1.23,1.33-1.76l2.51-2.65c-.22.51-.56,1.03-1.04,1.56ZM76.23,63c-.29.83-.68,1.68-1.24,2.4-.44.56-.97,1.04-1.49,1.51l-1.35,1.22c.2-.61.58-1.23,1.15-1.87.33-.37.69-.71,1.04-1.05.35-.33.7-.67,1.03-1.04.36-.4.64-.79.86-1.18ZM75.78,65.77c-.82,1.15-2.31,2.03-3.63,2.76l1.54-1.39c.37-.33.75-.68,1.1-1.05.15-.16.3-.33.43-.5.71-.91,1.15-1.99,1.46-3.01.11,1.04-.2,2.2-.91,3.2ZM72.02,66.2c.42-.76,1.1-1.36,1.76-1.95l1.41-1.24-1.75,1.84c-.5.52-1.06,1.12-1.39,1.84-.14.33-.24.67-.27,1.03-.05-.56.02-1.14.23-1.52ZM69.25,64.95c-4.84-.21-7.76-.63-12.13-4.35,1.54,1.07,3.26,1.86,5.1,2.33.84.22,1.71.36,2.56.5.52.09,1.04.17,1.56.28.99.2,2.23.5,3.37,1.12-.15.05-.3.09-.45.13ZM56.57,59.56c1.86.98,3.98,1.43,6.06,1.85,2.48.51,4.85.99,6.55,2.38.23.24.44.49.61.75-1.16-.62-2.4-.93-3.4-1.13-.52-.1-1.04-.19-1.57-.28-.84-.14-1.7-.29-2.53-.5-2.37-.6-4.55-1.76-6.38-3.36.22.1.44.2.66.28ZM61.34,60.55c1.32.16,2.69.33,3.96.72.72.22,1.59.68,2.41,1.26-1.48-.69-3.22-1.05-5.02-1.41-1.27-.26-2.57-.53-3.81-.92.34.06.67.12.98.16.49.07.98.13,1.47.19ZM61.34,64.4c-2.06-.88-3.85-2.36-5.15-4.19,4.49,4.04,7.4,4.74,11.89,5-2.27.37-4.63.1-6.75-.8ZM84.24,72.06c-2.52.25-4.93.48-6.96-.35-.3-.17-.58-.35-.82-.55,1.29.26,2.58.2,3.6.09.53-.05,1.05-.12,1.58-.19.84-.11,1.71-.23,2.57-.27,2.44-.12,4.86.34,7.08,1.34-.24-.03-.47-.06-.71-.08-2.07-.4-4.23-.2-6.34,0ZM84.19,70.49c-.87.04-1.75.16-2.59.27-.52.07-1.04.14-1.57.19-1.01.1-2.28.18-3.55-.08.13-.09.26-.17.39-.25,4.69-1.22,7.6-1.67,12.88.6-1.79-.57-3.67-.82-5.56-.73ZM85.73,72.51c-1.31.23-2.67.47-4,.47-.75,0-1.72-.18-2.67-.5,1.62.22,3.39.06,5.21-.12,1.29-.13,2.61-.25,3.91-.24-.34.04-.67.08-.99.13-.49.08-.98.16-1.46.25ZM84.59,68.83c2.23.24,4.38,1.13,6.15,2.5-5.48-2.55-8.47-2.36-12.84-1.29,2.06-1.02,4.4-1.46,6.69-1.21ZM92.45,41.62c-.41,1.06-1.02,2.06-1.77,2.92-.02.02-.03.04-.04.07-.19.11-.37.24-.54.36.47-.8,1.02-1.55,1.63-2.25.06-.06.05-.16-.01-.22-.06-.06-.16-.05-.22.01-.51.59-.97,1.22-1.39,1.88,0,0,0-.01,0-.02,0-.09,0-.18.01-.26.5-1.04,1.33-1.92,2.34-2.49ZM88,40.5c-.09-.07-.19-.12-.29-.17-.13-.06-.26-.12-.34-.22-.08-.1-.12-.24-.16-.39-.05-.19-.11-.41-.28-.56-.21-.2-.57-.23-.85-.09-.22.11-.41.32-.55.6-.07.15-.13.31-.18.46-.03.08-.06.16-.09.24-.07.17-.18.41-.37.52-.05.03-.11.05-.16.06-.07.02-.14.05-.2.08-.07.04-.13.08-.18.13.46-1,1.2-2.09,2.29-3.32.32.95.84,1.82,1.37,2.66ZM80.61,42.02c1.12.81,2.07,1.95,2.64,3.19-.38-.51-.8-.99-1.27-1.43-.06-.06-.16-.06-.22,0h0c-.06.06-.05.16,0,.22.67.63,1.26,1.36,1.76,2.15-.09-.06-.19-.12-.29-.17,0,0,0,0-.01-.01-1.54-1.29-2.22-2.54-2.62-3.95ZM74.51,48.21c.95-.99,2.19-1.67,3.52-1.99-.21.1-.41.22-.58.4,0,0,0,0-.01.01-.14.15-.24.32-.33.48-.09.15-.17.29-.27.4-.13.15-.29.26-.45.39-.13.1-.27.2-.4.32-.31.3-.53.78-.31,1.19.12.21.31.33.5.44.07.04.14.08.21.13.29.21.47.54.67.89.03.05.05.09.08.14-1.13-.65-2.07-1.63-2.62-2.8ZM81.49,52.5l-.04.04c-.19.2-.41.43-.62.56-.67.42-1.84.92-2.8,1.16.01-.01.02-.02.03-.04.75-.8,1.92-1.6,2.88-1.8l-1.52.82c-.07.04-.1.13-.06.21.04.07.13.1.21.06l1.95-1.05s0,.01-.01.02c0,0-.01,0-.02.01ZM81.52,60.83c-.1-.64-.31-1.16-.51-1.66-.29-.73-.56-1.42-.5-2.48.02-.42.1-.81.2-1.2.06.29.12.56.1.83,0,.09-.02.17-.03.26-.03.17-.06.35-.03.54.04.28.18.52.32.74.13.2.24.39.28.6.02.09.02.19.02.29,0,.21,0,.46.15.66.23.31.68.33,1.01.18.2-.09.37-.23.54-.36.08-.06.15-.12.23-.18.2-.14.42-.23.65-.3l-.16.11c-.78.53-1.63,1.15-2.26,1.97ZM84.51,58.37c-.5,0-.99.16-1.4.44-.08.06-.17.12-.25.19-.16.12-.3.24-.47.32-.21.09-.51.1-.64-.08-.09-.12-.09-.29-.09-.48,0-.11,0-.23-.02-.34-.04-.27-.18-.49-.32-.71-.13-.21-.25-.41-.28-.62-.02-.14,0-.29.03-.45.02-.1.03-.19.04-.29.02-.33-.04-.65-.11-.95l-.04-.16c-.03-.13-.05-.25-.06-.38.47-1.28,1.25-2.31,1.95-2.91.12-.1.14-.26.06-.39-.08-.13-.23-.18-.37-.13-1.08.41-2.23.54-3.32.35-.54-.09-1.06-.26-1.55-.49-.13-.17-.24-.36-.35-.56-.2-.36-.41-.74-.75-.99-.07-.05-.15-.1-.23-.15-.16-.1-.32-.19-.39-.33-.14-.26.03-.61.25-.82.11-.11.24-.2.37-.29.18-.13.35-.26.51-.43.12-.14.22-.3.31-.45.09-.16.18-.3.29-.43,0,0,0,0,0,0,.29-.31.72-.45,1.15-.55l.19-.04c.24-.06.48-.12.72-.21.06,0,.12,0,.18,0h.14c2.03.08,2.96.11,4.18,1.66.1.12.27.15.4.07.14-.09.18-.26.11-.4-.37-.72-.66-1.42-.84-2.12,0-.04,0-.08-.02-.12,0,0,0,0,0-.01-.23-1.02-.21-2.06.17-3.19l.36-.37c.08-.08.17-.18.27-.23.05-.03.11-.05.16-.06.07-.02.14-.05.2-.08.29-.15.43-.46.52-.67.03-.08.06-.16.09-.25.05-.15.1-.29.17-.42.08-.15.21-.36.41-.46.18-.09.39-.07.51.04.1.1.15.25.19.42.05.18.1.36.22.51.12.14.28.22.44.3.12.06.23.11.31.19.06.06.11.14.16.22.02.04.05.08.07.11.15.23.37.42.62.55.5.8.86,1.51.75,2.63-.05.53-.19.94-.28,1.2-.06.16-.09.27-.1.37,0,.11.05.22.15.28.1.06.22.06.32,0,.04-.03.14-.1.27-.21.28-.24.76-.64,1.22-.89.93-.51,1.67-.56,2.71-.64l.51-.04c.32-.03.64-.05.95-.09.03,0,.07.01.1.03.21.08.38.2.47.35.02.03.03.05.04.08.03.06.07.13.12.19.13.15.32.21.49.25.11.03.22.06.3.11.18.12.22.39.17.6-.07.25-.25.46-.42.64l-.11.12c-.16.17-.33.34-.46.56-.13.22-.2.46-.26.69-.03.1-.06.2-.09.29-.16.45-.42.85-.76,1.18-.55.24-1.16.4-1.82.48-1.19.13-2.41-.01-3.55-.18-.16-.02-.32.09-.35.25-.03.16.07.32.23.35,1.87.42,3.51,1.79,4.25,3.52-.08.32-.08.67.01.99.02.07.04.15.07.22.07.22.14.42.08.61-.02.07-.07.15-.12.22-.06.1-.14.21-.17.35-.05.21,0,.41.07.58l.03.07c.05.13.09.25.1.37,0,.11-.04.23-.13.27-.06.02-.14.01-.22-.03-.07-.03-.12-.07-.18-.11-.03-.02-.07-.05-.1-.07-.3-.19-.65-.28-1-.26-.15,0-.29.04-.43.06-.07.01-.14.03-.21.04-.2-.08-.41-.16-.61-.26-1.3-.62-2.33-1.61-2.84-2.72-.06-.13-.21-.21-.35-.17-.06.01-.11.05-.15.09-.06.06-.09.14-.08.23.05.73-.22,1.57-.73,2.24-.56.74-1.33,1.32-2.11,1.85ZM93.87,54.58c.05.16.09.33.14.49-.02-.06-.04-.11-.05-.17-.02-.07-.05-.14-.06-.2-.01-.04-.01-.08-.02-.12ZM92.91,57.56c-.31-.07-.62-.15-.93-.25.01,0,.03,0,.04,0,.29-.02.58.06.82.21.02.01.04.03.06.04ZM88.67,59.62c-.5-1.19-.85-2.56-.97-3.83.03-.08.06-.17.09-.25.19.92.36,1.85.46,2.79,0,.08.08.14.17.13.04,0,.07-.02.09-.05.03-.03.05-.07.04-.12-.1-.94-.27-1.87-.46-2.79.12.15.24.3.38.44.32,1.19.39,2.52.2,3.66ZM95.09,57.92c-.47-.06-.93-.13-1.4-.21.04-.02.08-.04.11-.08.11-.12.16-.3.16-.45,0-.17-.06-.32-.12-.47l-.02-.07c-.05-.13-.09-.28-.06-.41.02-.08.07-.16.13-.25.06-.09.12-.18.15-.3.06-.2.03-.4-.02-.58.02.09.05.19.08.28.23.89.47,1.79.99,2.53ZM91.99,50.83s-.02,0-.03,0c-.01,0-.02-.02-.03-.02l2.02.57c.06.02.12,0,.15-.04.02-.02.03-.04.04-.06.02-.08-.02-.17-.11-.19l-2.01-.56c.17,0,.35,0,.52-.02,1.1.19,1.98.64,2.74,1.16-1.14-.09-2.26-.37-3.3-.82ZM96.64,48.02c-.3.39-.68.73-1.14,1.01.15-.23.27-.47.36-.73.03-.1.07-.2.1-.31.07-.22.13-.43.24-.62.11-.18.26-.33.41-.5l.11-.12c.21-.21.41-.46.49-.77.1-.36-.02-.74-.29-.93-.12-.08-.26-.12-.39-.16-.14-.04-.27-.07-.34-.16-.03-.04-.06-.08-.08-.13-.02-.03-.03-.06-.05-.1-.08-.13-.18-.22-.28-.3.68-.1,1.33-.24,1.94-.5-.05,1.68-.21,3.16-1.08,4.3Z" stroke="#000" stroke-miterlimit="10" stroke-width=".28"/><path d="M86.05,52.81c.17-.02.34-.07.48-.16.21-.13.36-.34.45-.57.29.15.64.2.96.11.28,1.01.91,1.93,1.76,2.54.06.05.15.04.2-.02,0,0,0,0,.01-.01.05-.07.03-.16-.03-.21-.81-.58-1.4-1.46-1.65-2.42.05-.03.09-.06.13-.09,1.31.92,2.46,2.1,3.35,3.43.05.07.14.09.21.04,0,0,.02-.01.03-.02.05-.05.06-.13.02-.19-.9-1.35-2.07-2.53-3.39-3.47.06-.08.11-.16.16-.25.95.27,1.84.76,2.57,1.44.06.06.16.05.22,0,.07-.07.05-.16,0-.22-.76-.7-1.69-1.21-2.68-1.5.04-.17.05-.36,0-.53-.08-.34-.31-.64-.61-.81.27-.2.52-.42.75-.66.06-.06.17-.18.25-.33,1.2.03,2.43-.26,3.48-.84.01,0,.03-.02.04-.03.04-.05.05-.12.02-.18-.04-.07-.13-.1-.21-.06-.98.54-2.12.81-3.24.79,0-.05.02-.1,0-.16,0-.04-.02-.07-.03-.11,1.48-1.09,3.29-1.72,5.13-1.78.04,0,.08-.02.11-.05.03-.03.04-.07.04-.11,0-.08-.07-.15-.16-.15-1.89.06-3.75.71-5.28,1.83-.08-.08-.18-.14-.29-.19.58-.9,1.51-1.59,2.55-1.85.03,0,.05-.02.07-.04.03-.04.05-.09.04-.14-.02-.08-.1-.13-.19-.11-1.14.29-2.16,1.06-2.78,2.07-.04,0-.08,0-.12,0-.3,0-.6.08-.87.23,0-.1-.03-.2-.05-.3-.03-.12-.08-.23-.13-.33.08-.16.15-.34.22-.54.36-1.03.48-2.16.36-3.25,0-.08-.08-.14-.17-.13-.08,0-.14.09-.13.17.12,1.04,0,2.12-.34,3.11-.04.13-.09.25-.14.37-.14-.14-.3-.24-.49-.28,0,0,0,0,0,0,.1-1.63-.21-3.26-.9-4.74-.04-.08-.13-.11-.2-.07-.08.04-.11.13-.07.2.67,1.43.97,3.02.88,4.59-.19.02-.38.1-.54.22-.55-.69-.81-1.58-.71-2.46,0-.08-.05-.16-.13-.17-.08,0-.16.05-.17.13-.11.96.19,1.95.8,2.7-.03.04-.08.08-.1.13-.19.33-.24.75-.14,1.19.02.09.05.19.08.28-.09-.03-.19-.05-.28-.06-.26-.04-.51-.02-.74.05-.72-.38-1.5-.64-2.3-.77-.08-.01-.16.04-.17.13-.01.08.04.16.13.17.7.11,1.37.33,2,.63-.03.02-.07.04-.09.06-.17.14-.28.34-.34.54l-3.64-.4c-.08,0-.16.05-.17.14,0,.08.05.16.14.17l3.64.4c0,.15.03.3.11.43,0,0,.01.02.02.02-.62.22-1.29.3-1.95.23-.08,0-.16.05-.17.14,0,.08.05.16.14.17.74.08,1.49-.03,2.18-.29.25.23.58.36.93.34.01,0,.03,0,.04,0-.04.1-.07.19-.1.29-.07.29-.04.58.05.83-.85.48-1.54,1.24-1.92,2.13-.03.08,0,.17.08.2.08.03.17,0,.2-.08.36-.83,1-1.52,1.78-1.97.03.05.06.1.1.14.01.01.03.02.04.03-1.01,1.47-1.94,3.02-2.76,4.61-.04.07-.01.17.07.21.06.03.14.02.18-.03,0-.01.02-.02.02-.03.82-1.57,1.74-3.11,2.74-4.57.12.06.24.1.37.12.21,1.42-.24,2.92-1.22,3.97-.06.06-.05.16,0,.22.06.06.16.05.22,0,1.03-1.11,1.51-2.68,1.31-4.17ZM85.39,51.36c.05-.23.19-.46.41-.71.09-.11.1-.27.01-.38-.09-.11-.24-.15-.37-.09-.18.08-.4.14-.62.15-.29.02-.5-.16-.59-.32-.08-.14-.02-.37.13-.5.16-.13.42-.19.7-.14.29.05.57.18.84.31.12.06.26.03.35-.06.1-.08.11-.24.05-.35-.14-.27-.29-.56-.35-.84-.04-.17-.08-.48.07-.74.11-.19.33-.3.51-.26.19.04.33.25.38.44.07.26.04.55.01.83-.01.14.07.27.2.32.13.05.28,0,.36-.13.2-.31.56-.51.92-.5.16,0,.3.07.31.13,0,.03-.01.11-.18.28-.36.37-.78.69-1.22.96-.12.08-.18.23-.13.36.05.14.19.22.33.2.31-.04.66.2.73.51.07.31-.14.68-.44.78-.3.1-.69-.07-.83-.36-.07-.15-.25-.22-.4-.15-.04.02-.07.04-.1.07-.08.08-.11.21-.06.32.09.22,0,.52-.21.65-.2.13-.51.09-.67-.08-.15-.16-.2-.43-.14-.69Z" stroke="#000" stroke-miterlimit="10" stroke-width=".28"/><path d="M40.6,62.14c.14.04.29.06.43.03.2-.04.38-.14.52-.29.19.2.44.34.72.37-.09.88.11,1.79.58,2.54.05.07.14.09.21.05.01,0,.02-.02.03-.02.05-.05.06-.13.02-.19-.44-.7-.63-1.56-.54-2.38.04,0,.07-.02.11-.03.73,1.13,1.27,2.42,1.55,3.73.02.08.1.13.18.12.03,0,.06-.02.08-.04.03-.04.05-.09.04-.14-.28-1.34-.83-2.64-1.57-3.79.06-.04.12-.08.18-.13.65.51,1.19,1.17,1.55,1.92.04.08.13.11.2.07.02,0,.03-.02.05-.03.04-.04.05-.11.03-.17-.38-.79-.94-1.48-1.63-2.02.08-.13.15-.27.18-.42.05-.29-.03-.58-.2-.82.26-.07.5-.16.75-.27.07-.03.2-.09.32-.2.93.4,1.98.56,2.99.43.04,0,.07-.02.09-.05.03-.03.05-.08.04-.12-.01-.08-.09-.14-.17-.13-.93.12-1.9-.03-2.77-.38.02-.04.04-.07.05-.11,0-.03,0-.06,0-.09,1.51-.39,3.12-.32,4.59.21.06.02.12,0,.16-.04.01-.01.02-.03.03-.05.03-.08-.01-.17-.09-.2-1.51-.54-3.19-.62-4.74-.22-.04-.08-.08-.15-.15-.22.73-.51,1.67-.75,2.56-.64.05,0,.1-.01.13-.05.02-.02.04-.05.04-.08.01-.08-.05-.16-.13-.17-1-.13-2.04.15-2.85.75-.03-.02-.06-.04-.09-.05-.22-.09-.47-.13-.71-.1.02-.06.03-.13.04-.19.01-.11,0-.22,0-.32.06-.05.11-.1.17-.16.05-.05.1-.11.15-.17.61-.71,1.06-1.56,1.31-2.47.02-.08-.03-.17-.11-.19-.08-.02-.16.03-.19.11-.23.86-.67,1.68-1.25,2.35-.06.08-.13.14-.19.21-.07-.14-.16-.27-.29-.36.58-1.25.85-2.63.77-4.01,0-.08-.08-.15-.16-.14-.08,0-.15.08-.14.16.08,1.33-.18,2.66-.74,3.87-.15-.04-.31-.03-.46,0-.2-.7-.14-1.47.2-2.11.04-.07.01-.17-.06-.21-.07-.04-.17-.01-.21.06-.39.72-.47,1.59-.23,2.38-.04.02-.08.04-.12.06-.27.2-.45.53-.51.92,0,.06-.01.11-.02.16-.04-.03-.09-.06-.14-.09-.2-.12-.42-.18-.63-.2-.45-.52-.97-.96-1.56-1.31-.07-.04-.17-.02-.21.05-.04.07-.02.17.05.21.5.29.94.66,1.34,1.08-.02,0-.03,0-.05,0-.19.06-.34.18-.45.33l-2.73-1.45c-.07-.04-.16-.01-.21.06-.04.07-.01.17.06.21l2.72,1.44c-.04.12-.07.25-.05.38-.54-.03-1.07-.17-1.55-.42-.07-.04-.17-.01-.21.06-.04.07-.01.17.06.21.55.29,1.17.44,1.79.46.12.26.35.47.62.57-.05.05-.09.1-.12.15-.15.21-.22.46-.23.7-.81.12-1.59.49-2.16,1.07-.06.07-.06.16,0,.22.06.06.16.06.22,0,.53-.53,1.24-.87,1.98-.98.01.04.01.09.03.13,0,0,.01.02.02.03-1.26.85-2.47,1.77-3.62,2.76-.06.05-.07.15-.02.22.06.06.15.07.22.02,1.13-.98,2.33-1.9,3.58-2.73.07.08.16.15.25.2-.29,1.17-1.11,2.2-2.2,2.71-.07.04-.11.13-.07.2.04.08.13.11.2.07.49-.23.94-.56,1.31-.96.5-.54.86-1.2,1.04-1.92ZM40.56,60.76c.11-.15.28-.29.53-.42.13-.07.19-.21.15-.35-.04-.14-.17-.23-.31-.22-.16,0-.35-.02-.52-.07-.22-.07-.32-.26-.34-.4-.02-.11.09-.26.23-.3.16-.05.37-.01.56.1.21.12.39.32.56.51.09.1.23.12.35.07.12-.05.19-.18.18-.31-.03-.26-.05-.53-.01-.77.04-.23.13-.42.28-.53h0c.13-.1.32-.12.43-.05.12.09.16.28.14.43-.03.22-.14.43-.25.65-.06.13-.03.28.07.37.11.09.26.1.38.02.24-.17.57-.21.85-.1.11.05.18.13.18.15,0,0-.01.05-.2.13-.4.18-.83.3-1.26.37-.14.02-.25.14-.26.29,0,.15.09.28.23.31.24.06.42.33.38.58-.04.24-.3.45-.55.44-.25-.01-.49-.25-.5-.5-.01-.17-.15-.29-.32-.29-.08,0-.16.04-.21.1-.05.06-.08.13-.08.21,0,.19-.15.37-.33.41-.18.03-.39-.08-.46-.25-.06-.16-.02-.37.1-.55Z" stroke="#000" stroke-miterlimit="10" stroke-width=".28"/></svg>