<?xml version="1.0" encoding="UTF-8"?><svg id="Layer_1" xmlns="http://www.w3.org/2000/svg" viewBox="0 0 144.57 144.57"><path d="M48.9,103.78c-1.1-.63-1.46-1.52-1.04-2.57.28-.69.85-1.02,1.66-.96.73.05,1.22.46,1.39,1.18.25,1.02-.11,1.74-1.18,2.35h-.83ZM50.47,101.96c0-.79-.42-1.28-1.09-1.3-.71-.01-1.17.51-1.18,1.34,0,.81.42,1.3,1.13,1.32.71.01,1.14-.5,1.14-1.36Z"/><path d="M124.44,52.69h-.51v-1.5h-1.68v1.42c-.35.16-.51.11-.51-.28.01-.86.01-1.73,0-2.59,0-.34.13-.44.49-.3v1.25h1.69v-1.29c.22-.01.37-.02.52-.03v3.32Z"/><path d="M89.48,61.89c0-1.78,0-3.57,0-5.35,0-.31.09-.5.37-.66,3.19-1.82,6.37-3.66,9.55-5.5.29-.17.49-.12.75.03,3.01,1.75,6.04,3.47,9.04,5.23.45.27.78.3,1.25,0,1.96-1.21,3.96-2.37,5.94-3.54.07-.04.14-.11.22-.13.11-.02.23,0,.35,0-.06.1-.09.25-.17.3-.81.5-1.63.98-2.45,1.47-1.31.78-2.62,1.57-3.94,2.33-.3.17-.4.36-.39.7.01,3.55,0,7.1.02,10.64,0,.37-.1.59-.44.78-3.13,1.78-6.25,3.58-9.37,5.4-.35.21-.59.19-.93-.01-3.03-1.76-6.07-3.49-9.09-5.26-.37-.22-.64-.24-1.02-.01-3.04,1.77-6.09,3.52-9.13,5.28-.33.19-.56.2-.89,0-3.07-1.79-6.15-3.55-9.22-5.33-.31-.18-.54-.17-.84,0-3.01,1.75-6.03,3.49-9.05,5.22-.31.18-.43.37-.43.73.01,3.5,0,6.99.02,10.49,0,.51-.17.76-.6,1-3.03,1.72-6.04,3.47-9.06,5.2-.33.19-.45.39-.45.77.02,2.25,0,4.5,0,6.75,0,.09.02.18,0,.26-.04.14-.11.28-.17.42-.07-.15-.15-.29-.2-.45-.03-.1,0-.21,0-.31,0-2.23,0-4.47,0-6.7,0-.36-.11-.55-.42-.73-3.02-1.73-6.03-3.48-9.06-5.2-.44-.25-.63-.51-.62-1.04.03-3.48,0-6.96.02-10.44,0-.38-.12-.58-.45-.77-2.09-1.17-4.16-2.36-6.24-3.54-.12-.07-.25-.12-.35-.21-.06-.05-.08-.17-.06-.25,0-.03.15-.08.21-.06.11.03.22.11.32.17,2.09,1.19,4.19,2.37,6.27,3.58.37.22.63.19.99-.02,3.04-1.77,6.09-3.51,9.13-5.28.33-.19.56-.2.89,0,3.07,1.79,6.15,3.55,9.22,5.34.31.18.54.17.85,0,3.06-1.78,6.12-3.53,9.18-5.31.34-.2.58-.22.93-.01,3.05,1.78,6.12,3.53,9.18,5.31.33.19.56.19.89,0,3.01-1.75,6.03-3.49,9.05-5.21.32-.18.42-.38.42-.73-.02-1.78,0-3.57,0-5.35ZM109.65,62.05c0-1.76,0-3.53,0-5.29,0-.32-.1-.49-.38-.65-3.07-1.75-6.13-3.52-9.19-5.29-.26-.15-.45-.15-.71,0-3.06,1.77-6.12,3.54-9.19,5.29-.28.16-.38.34-.38.66.01,3.51.01,7.02,0,10.54,0,.32.1.5.38.66,3.07,1.75,6.13,3.52,9.18,5.29.26.15.45.14.71,0,3.06-1.77,6.12-3.54,9.19-5.29.28-.16.38-.34.37-.66-.01-1.75,0-3.49,0-5.24ZM59.22,79.48c0-1.75,0-3.49,0-5.24,0-.35-.09-.55-.41-.74-3.04-1.73-6.07-3.48-9.09-5.24-.29-.17-.5-.17-.8,0-3.02,1.76-6.05,3.51-9.09,5.24-.32.18-.42.38-.41.74.01,3.48.01,6.95,0,10.43,0,.39.13.58.46.76,3.01,1.72,6.01,3.45,9,5.19.33.19.57.19.89,0,3.01-1.75,6.03-3.49,9.05-5.21.32-.18.41-.39.41-.74-.02-1.73,0-3.46,0-5.19Z"/><path d="M30.95,68.49c.01,1.08-.64,1.82-1.61,1.84-.99.02-1.64-.65-1.65-1.72-.01-1.07.65-1.8,1.64-1.8,1,0,1.61.64,1.63,1.68ZM28.19,68.61c0,.81.44,1.29,1.16,1.29.69,0,1.13-.55,1.12-1.4,0-.77-.46-1.27-1.13-1.27-.71,0-1.15.54-1.14,1.37Z"/><path d="M117.95,51.04c0-1.06.65-1.76,1.62-1.76,1.01,0,1.65.67,1.64,1.72-.01,1.08-.67,1.79-1.65,1.79-.99,0-1.61-.67-1.6-1.76ZM120.7,50.97c0-.78-.45-1.27-1.13-1.27-.7,0-1.15.55-1.15,1.37,0,.81.44,1.29,1.16,1.29.7,0,1.12-.53,1.11-1.39Z"/><path d="M26.75,70.17v-1.44h-1.69c0,.39,0,.78,0,1.17,0,.34-.02.34-.47.28v-3.2c.43-.17.49.06.47.39-.01.27,0,.55,0,.87h1.68v-1.25c.38-.14.51-.04.5.3-.01.86-.01,1.73,0,2.59,0,.35-.14.43-.5.29Z"/><path d="M51.94,101.67h1.7c0-.34-.02-.64.01-.95.01-.13.14-.25.22-.38.08.12.23.23.24.35.02.97.01,1.93.01,2.89q-.48.08-.48-.48c0-.31,0-.62,0-.96h-1.7c0,.41.02.8-.01,1.19,0,.11-.14.21-.22.32-.08-.1-.23-.21-.23-.31-.02-.9-.02-1.8,0-2.7,0-.1.15-.21.23-.31.08.11.21.21.22.32.03.32.01.65.01,1.01Z"/><path d="M76.86,75.25c-.13.07-.21.13-.29.15-.06,0-.12-.05-.18-.09-2.22-1.28-4.44-2.55-6.65-3.84-.1-.06-.13-.22-.2-.34.12,0,.27-.02.36.03,2.22,1.27,4.44,2.55,6.66,3.83.1.06.17.14.3.26Z"/><path d="M107.17,62.09c0,1.23,0,2.46,0,3.68,0,.14-.11.28-.17.42-.07-.13-.19-.27-.19-.4-.01-2.51-.01-5.01,0-7.52,0-.13.13-.26.2-.39.06.14.16.28.16.43.01,1.26,0,2.52,0,3.79Z"/><path d="M99.82,70.23c-.18.08-.27.16-.36.15-.09,0-.18-.09-.27-.14-2.14-1.23-4.28-2.47-6.43-3.7-.09-.05-.2-.09-.26-.16-.05-.06-.06-.17-.05-.26,0-.02.14-.06.21-.04.1.03.18.09.27.14,2.14,1.23,4.28,2.47,6.42,3.7.13.07.25.16.46.3Z"/><path d="M99.75,53.9c-.49.29-.99.57-1.48.86-1.77,1.02-3.54,2.04-5.32,3.05-.14.08-.33.09-.5.13l-.05-.18c.11-.08.21-.16.32-.23,2.16-1.25,4.32-2.49,6.49-3.73.14-.08.33-.09.5-.13l.05.23Z"/><path d="M49.28,87.75c-.14-.01-.31.02-.43-.05-1.04-.58-2.07-1.18-3.11-1.78-1.17-.67-2.34-1.34-3.5-2.02-.1-.06-.15-.21-.23-.32.13,0,.29-.05.38,0,2.27,1.29,4.53,2.6,6.79,3.91.04.03.08.06.12.09,0,.06-.02.11-.03.17Z"/><path d="M49.34,71.25c-.08.07-.16.16-.25.22-2.22,1.28-4.43,2.56-6.66,3.83-.1.06-.26,0-.39,0,.07-.1.11-.24.2-.3,2.21-1.29,4.43-2.56,6.66-3.84.11-.06.26-.04.4-.05.01.05.03.09.04.14Z"/><path d="M56.39,79.43c0-1.23,0-2.46,0-3.69,0-.15.1-.29.15-.43.06.13.18.27.18.4.01,2.51.01,5.02,0,7.53,0,.13-.1.25-.15.38-.06-.13-.18-.27-.18-.4-.01-1.26,0-2.53,0-3.79Z"/></svg>