<?xml version="1.0" encoding="UTF-8"?>
<svg id="Layer_1" data-name="Layer 1" xmlns="http://www.w3.org/2000/svg" version="1.1" viewBox="0 0 144.6 144.6">
  <defs>
    <style>
      .cls-1 {
        fill: #1d1d1b;
        stroke-width: 0px;
      }

      .cls-2 {
        fill: none;
        stroke: #000;
        stroke-miterlimit: 10;
        stroke-width: .6px;
      }
    </style>
  </defs>
  <path class="cls-1" d="M49,50.8l-.9.7v-1.1l.9-.7h1v6.9h-1v-5.9h0Z"/>
  <path class="cls-1" d="M52.2,55.7l2.6-3.4c.1-.1.2-.3.2-.4,0-.1,0-.2,0-.3,0-.3,0-.5-.2-.7-.2-.2-.4-.3-.7-.3-.3,0-.5,0-.7.3s-.3.4-.3.7h-1c0-.6.2-1.1.6-1.4.4-.4.8-.6,1.3-.6.6,0,1,.2,1.4.6.4.4.6.8.6,1.4,0,.5-.1.9-.4,1.2l-2.2,2.8h2.6v1h-3.8v-.9h0Z"/>
  <path class="cls-2" d="M51.1,42.8h26.5c13.2,0,24,10.8,24,24v26.5c0,5.2-4.2,9.4-9.4,9.4h-41.1c-5.2,0-9.4-4.2-9.4-9.4v-41.1c0-5.2,4.2-9.4,9.4-9.4Z"/>
  <path class="cls-1" d="M55.7,60.8h2.8l5.6,13.1,5.5-13.1h2.8v20.1h-2.9v-12.5h0l-4.1,9.6h-2.5l-4.1-9.6h0v12.5h-2.9s0-20.1,0-20.1Z"/>
  <path class="cls-1" d="M84.4,79.4c-.9,1-2.1,1.6-3.5,1.6-.9,0-1.6-.2-2.2-.6-.6-.3-1.1-.7-1.4-1.1-.4-.5-.6-1-.8-1.7-.2-.7-.2-1.9-.2-3.8s0-3.2.2-3.8c.2-.7.4-1.2.8-1.7.3-.4.8-.8,1.4-1.2.6-.3,1.3-.5,2.2-.5,1.3,0,2.5.6,3.5,1.7v-1.5h2.7v13.7c0,2.1-.6,3.6-1.8,4.6-1.1,1-2.5,1.5-4.1,1.5-1.8,0-3.4-.8-4.7-2.3l2.1-1.7c.3.3.8.6,1.2.9.5.3.9.4,1.4.4.9,0,1.7-.3,2.2-.8.6-.5.8-1.3.9-2.2v-1.4h0ZM79,73.9c0,1.1,0,1.8.1,2.2,0,.4.2.8.4,1.1.2.3.5.5.8.7.4.3.8.4,1.3.4s1-.1,1.3-.4c.4-.2.6-.4.8-.7.2-.3.4-.6.5-1.1,0-.4,0-1.1,0-2.2s0-1.8,0-2.3c0-.4-.2-.8-.5-1-.2-.3-.5-.5-.8-.7-.4-.2-.8-.3-1.3-.3-.5,0-1,.1-1.3.3-.4.2-.7.5-.8.7-.2.3-.4.6-.4,1,0,.4-.1,1.2-.1,2.3Z"/>
  <path class="cls-1" d="M65.8,96.7l1.2-1.6c0,0,0-.1,0-.2,0,0,0-.1,0-.1,0-.1,0-.2-.1-.3,0,0-.2-.1-.3-.1s-.2,0-.3.1-.1.2-.1.3h-.4c0-.3.1-.5.3-.7s.4-.3.6-.3.5,0,.7.3.3.4.3.7,0,.4-.2.6l-1,1.3h1.2v.5h-1.8v-.4h0Z"/>
  <path class="cls-1" d="M67.9,96.2l1-2.3h.5l-1.1,2.3h.8v-.9h.4v.9h.3v.4h-.3v.5h-.4v-.5h-1.3v-.4Z"/>
  <path class="cls-1" d="M70.3,96.7h.4v.5h-.4v-.5Z"/>
  <path class="cls-1" d="M71.9,95.3h.2c.1,0,.3,0,.4-.1,0,0,.1-.2.1-.3s0-.2-.1-.3c0,0-.2-.1-.3-.1,0,0-.2,0-.3,0s-.1.2-.2.3h-.4c0-.2.1-.4.3-.6s.4-.2.6-.2.5,0,.7.3c.2.2.2.4.2.6,0,.1,0,.2,0,.4,0,.1-.1.2-.3.3.1,0,.2.2.3.3,0,.1,0,.3,0,.4,0,.3,0,.5-.3.7-.2.2-.4.3-.7.3s-.4,0-.6-.2-.3-.3-.3-.6h.4c0,.1,0,.2.2.3,0,0,.2.1.3.1s.2,0,.3-.1c0,0,.1-.2.1-.4,0-.2,0-.3-.1-.4,0,0-.2-.1-.3-.1h-.2v-.4h0Z"/>
  <path class="cls-1" d="M73.5,94.8c0-.3,0-.5.3-.7.2-.2.4-.2.6-.2s.4,0,.6.2c.2.2.3.4.3.7v1.4c0,.3,0,.5-.3.7-.2.2-.4.2-.6.2-.2,0-.4,0-.6-.2-.2-.2-.3-.4-.3-.7v-1.4ZM74.8,94.8c0-.3-.2-.5-.4-.5-.3,0-.4.2-.4.5v1.4c0,.3.1.5.4.5s.4-.2.4-.5v-1.4Z"/>
  <path class="cls-1" d="M75.7,93.9h1.7v.5h-1.2v.7c.1-.1.3-.2.5-.2s.2,0,.3,0c0,0,.2.1.2.2,0,0,.2.2.2.3,0,0,0,.1,0,.2s0,.2,0,.3c0,.2,0,.4,0,.5s0,.2-.2.3c0,0-.1.2-.3.2-.1,0-.3.1-.4.1-.2,0-.4,0-.6-.2-.2-.1-.3-.3-.3-.6h.5c0,.2.2.4.4.4.1,0,.2,0,.3,0,0,0,.1-.1.1-.2,0,0,0-.1,0-.2v-.2c0-.2,0-.3,0-.5,0,0,0,0-.1-.1,0,0-.1,0-.2,0s-.2,0-.2,0-.1.1-.2.2h-.4v-1.7h0Z"/>
  <path class="cls-1" d="M56.2,87.3h.6l1.3,3,1.3-3h.6v4.6h-.7v-2.9h0l-.9,2.2h-.6l-.9-2.2h0v2.9h-.7v-4.6h0Z"/>
  <path class="cls-1" d="M62.7,91.6h0c0,.1-.2.2-.3.2-.1,0-.3,0-.5,0-.4,0-.6-.1-.8-.3-.2-.2-.3-.4-.3-.7s0-.5.3-.7c.2-.2.4-.3.8-.3h.9v-.3c0-.3-.2-.4-.6-.4-.2,0-.3,0-.4,0,0,0-.2.1-.2.2l-.5-.4c.2-.3.6-.5,1.1-.5.4,0,.7,0,1,.2.2.2.4.4.4.8v2.2h-.6v-.3h0ZM62.7,90.5h-.8c-.4,0-.6.1-.6.4s0,.2.1.3c0,0,.2.1.5.1s.5,0,.6,0c.1,0,.2-.2.2-.5v-.2Z"/>
  <path class="cls-1" d="M66.1,91.6c-.2.2-.5.4-.8.4-.2,0-.4,0-.5-.1-.1,0-.3-.2-.3-.3,0-.1-.1-.2-.2-.4,0-.2,0-.4,0-.9s0-.7,0-.9c0-.2,0-.3.2-.4,0-.1.2-.2.3-.3.1,0,.3-.1.5-.1.3,0,.6.1.8.4v-.3h.6v3.2c0,.5-.1.9-.4,1.1-.3.2-.6.4-1,.4-.4,0-.8-.2-1.1-.5l.5-.4c0,0,.2.1.3.2.1,0,.2,0,.3,0,.2,0,.4,0,.5-.2.1-.1.2-.3.2-.5v-.3h0ZM64.8,90.3c0,.3,0,.4,0,.5,0,.1,0,.2.1.2,0,0,.1.1.2.2,0,0,.2,0,.3,0s.2,0,.3,0c0,0,.1-.1.2-.2,0,0,0-.2.1-.2,0,0,0-.3,0-.5s0-.4,0-.5c0-.1,0-.2-.1-.2,0,0-.1-.1-.2-.2,0,0-.2,0-.3,0-.1,0-.2,0-.3,0,0,0-.1.1-.2.2,0,0,0,.1-.1.2,0,.1,0,.3,0,.5Z"/>
  <path class="cls-1" d="M67.7,88.7h.6v.3h0c.2-.3.5-.4.8-.4s.5,0,.7.3.3.5.3.9v2.2h-.6v-2c0-.2,0-.4-.2-.5-.1-.1-.3-.2-.4-.2s-.3,0-.4.2c-.1.1-.2.3-.2.5v2h-.6s0-3.3,0-3.3Z"/>
  <path class="cls-1" d="M71.6,90.5c0,.3,0,.5.2.6.1.1.3.2.5.2s.5-.1.7-.3l.5.4c-.3.4-.7.5-1.1.5-.2,0-.3,0-.5,0,0,0-.2,0-.2-.1s-.2,0-.2-.1c-.1-.1-.2-.3-.3-.5,0-.2-.1-.5-.1-.8s0-.6.1-.8c0-.2.2-.4.3-.5s.3-.2.4-.3.3,0,.5,0c.4,0,.7.1.9.4s.4.6.4,1v.5h-2ZM72.9,90c0-.3,0-.4-.2-.6-.1-.1-.3-.2-.5-.2s-.3,0-.5.2c-.1.1-.2.3-.2.6h1.3Z"/>
  <path class="cls-1" d="M74.4,90.9c.3.3.6.4,1,.4s.3,0,.5-.1.2-.2.2-.3,0-.2-.1-.2c0,0-.2,0-.3,0h-.6c-.3,0-.5-.2-.7-.3-.2-.2-.3-.4-.3-.7,0-.3.1-.6.3-.8.2-.2.5-.3.8-.3s.3,0,.4,0c.1,0,.2,0,.3,0,.2,0,.4.2.5.3l-.4.5c-.1,0-.3-.2-.4-.2-.1,0-.3,0-.5,0s-.3,0-.4.1c0,0-.1.2-.1.3s0,.1,0,.2c0,0,.2.1.3.1h.5c.3,0,.6.2.7.4.1.2.2.4.2.7s-.1.6-.4.7c-.2.2-.6.3-.9.3s-1-.2-1.4-.6l.4-.5h0Z"/>
  <path class="cls-1" d="M77.5,87.3h.6v.7h-.6v-.7ZM77.5,88.7h.6v3.3h-.6v-3.3Z"/>
  <path class="cls-1" d="M79,88.7h.6v2c0,.2,0,.4.2.5.1.1.3.2.4.2s.3,0,.4-.2.2-.3.2-.5v-2h.6v3.3h-.6v-.3h0c-.2.3-.5.4-.8.4s-.5-.1-.7-.3c-.2-.2-.3-.5-.3-.8v-2.2Z"/>
  <path class="cls-1" d="M82.4,88.7h.6v.3h0c.2-.3.5-.4.9-.4s.4,0,.5.1c.1,0,.3.2.4.3.3-.3.6-.4,1-.4.3,0,.5,0,.7.3.2.2.3.5.3.9v2.2h-.6v-2c0-.2,0-.4-.2-.5s-.3-.2-.5-.2-.3,0-.5.2c-.1.1-.2.3-.2.5v2h-.6v-2c0-.2,0-.4-.2-.5-.1-.1-.3-.2-.5-.2s-.3,0-.5.2c-.1.1-.2.3-.2.5v2h-.6v-3.3h0Z"/>
</svg>