<?xml version="1.0" encoding="UTF-8"?>
<svg id="Layer_1" data-name="Layer 1" xmlns="http://www.w3.org/2000/svg" version="1.1" viewBox="0 0 144.6 144.6">
  <defs>
    <style>
      .cls-1 {
        fill: #1d1d1b;
        stroke-width: 0px;
      }

      .cls-2 {
        fill: none;
        stroke: #000;
        stroke-miterlimit: 10;
        stroke-width: .6px;
      }
    </style>
  </defs>
  <path class="cls-1" d="M47.3,56.1l2.6-3.4c.1-.1.2-.3.2-.4,0-.1,0-.2,0-.3,0-.3,0-.5-.2-.7-.2-.2-.4-.3-.7-.3-.3,0-.5,0-.7.3-.2.2-.3.4-.3.7h-1c0-.6.2-1.1.6-1.4.4-.4.8-.6,1.3-.6.6,0,1,.2,1.4.6.4.4.6.8.6,1.4,0,.5-.1.9-.4,1.2l-2.2,2.8h2.6v1h-3.8v-.9h0Z"/>
  <path class="cls-1" d="M55.3,50.1s0,0,0,.1c0,0,0,.2-.1.3s-.1.3-.2.4c0,.1-.2.3-.2.5s-.2.3-.3.5-.2.3-.3.5c0,.2-.2.3-.2.4s-.1.2-.2.3c0,0,.2,0,.3,0s.2,0,.4,0c.2,0,.4,0,.6.1s.3.2.4.3c.1.1.2.2.3.3s.1.3.2.4,0,.2,0,.3c0,.1,0,.2,0,.3v.5c0,0,0,.1,0,.2,0,0,0,0,0,.2s0,.2,0,.3-.1.3-.2.4c0,.1-.2.3-.3.4-.1.1-.3.2-.5.3-.2,0-.4.1-.7.2-.3,0-.5,0-.8,0s-.4-.1-.6-.3-.3-.3-.4-.4-.2-.3-.3-.5-.1-.3-.1-.5c0-.2,0-.3,0-.4,0-.2,0-.3,0-.4,0-.1,0-.2,0-.3s0-.2.1-.3,0-.2.1-.3c0,0,0-.1.1-.2s.1-.3.2-.4.2-.4.3-.6c.1-.2.2-.4.3-.6.2-.5.5-1.1.8-1.7h1.1ZM55.1,55.1c0-.1,0-.3,0-.4s0-.3-.1-.4c0-.1-.2-.2-.3-.3-.1,0-.3-.1-.6-.2-.1,0-.2,0-.3,0s-.2,0-.3.1c0,0-.1.1-.2.2s-.1.2-.1.2,0,.1,0,.2c0,0,0,.1,0,.1v.3c0,0,0,.2,0,.3s0,.2,0,.3.1.2.2.2c0,0,.2.1.3.2.1,0,.3,0,.4,0s.3,0,.4,0,.2,0,.3-.1.1-.1.2-.2c0,0,0-.1.1-.2,0,0,0-.1,0-.2,0,0,0-.1,0-.1h0Z"/>
  <path class="cls-2" d="M51.5,43.2h26.5c13.2,0,24,10.8,24,24v26.5c0,5.2-4.2,9.4-9.4,9.4h-41.1c-5.2,0-9.4-4.2-9.4-9.4v-41.1c0-5.2,4.2-9.4,9.4-9.4Z"/>
  <path class="cls-1" d="M57.8,61.4h13.8v3.2h-10.5v6.6h9v3h-9v9.5h-3.3v-22.3h0Z"/>
  <path class="cls-1" d="M76.1,76.9c0,1.3.4,2.2,1.1,2.9.7.7,1.5,1,2.6,1s2.4-.5,3.4-1.5l2.2,2c-1.6,1.7-3.4,2.6-5.5,2.6-.8,0-1.6-.1-2.4-.4-.4-.1-.8-.3-1.1-.5-.4-.2-.7-.4-1.1-.7-.7-.6-1.2-1.4-1.6-2.5-.4-1-.7-2.3-.7-4s.2-2.9.6-3.9c.4-1.1.9-1.9,1.5-2.5.6-.6,1.3-1.1,2.1-1.3.8-.3,1.5-.4,2.2-.4,1.8,0,3.2.6,4.5,1.8,1.2,1.2,1.9,2.8,1.9,4.9v2.6h-9.6,0ZM82.6,74.3c0-1.2-.4-2.2-1-2.8-.6-.6-1.4-.9-2.3-.9s-1.7.3-2.3.9c-.6.6-.9,1.6-1,2.8h6.5Z"/>
  <path class="cls-1" d="M67.8,94.3h1.7v.5h-1.2v.7c.1-.1.3-.2.5-.2s.2,0,.3,0c0,0,.2.1.2.2,0,0,.1.2.2.3,0,0,0,.1,0,.2,0,0,0,.2,0,.3,0,.2,0,.4,0,.5,0,.1,0,.2-.1.3,0,0-.1.2-.3.2-.1,0-.3.1-.4.1-.2,0-.4,0-.6-.2-.2-.1-.3-.3-.3-.6h.4c0,.2.2.4.5.4.1,0,.2,0,.3,0,0,0,.1-.1.1-.2,0,0,0-.1,0-.2v-.2c0-.2,0-.3,0-.4,0,0,0,0-.1-.1,0,0-.1,0-.2,0s-.2,0-.2,0-.1.1-.2.2h-.4v-1.7h0Z"/>
  <path class="cls-1" d="M69.9,94.3h1.7v.5h-1.2v.7c.1-.1.3-.2.5-.2s.2,0,.3,0c0,0,.2.1.2.2,0,0,.1.2.2.3,0,0,0,.1,0,.2,0,0,0,.2,0,.3,0,.2,0,.4,0,.5,0,.1,0,.2-.1.3,0,0-.2.2-.3.2-.1,0-.3.1-.4.1-.2,0-.4,0-.6-.2-.2-.1-.3-.3-.3-.6h.4c0,.2.2.4.4.4.1,0,.2,0,.3,0,0,0,.1-.1.1-.2,0,0,0-.1,0-.2v-.2c0-.2,0-.3,0-.4,0,0,0,0-.1-.1,0,0-.1,0-.2,0s-.2,0-.2,0-.1.1-.2.2h-.4v-1.7h0Z"/>
  <path class="cls-1" d="M72.2,97.1h.4v.5h-.4v-.5Z"/>
  <path class="cls-1" d="M73.1,96.6c0-.3.1-.6.4-.7,0,0-.2-.2-.2-.3,0-.1,0-.2,0-.4,0-.3,0-.5.3-.7.2-.2.4-.3.6-.3s.5,0,.6.3.3.4.3.7,0,.3,0,.4c0,.1-.1.2-.2.3.3.2.4.4.4.7s0,.5-.3.7c-.2.2-.4.3-.7.3s-.5,0-.7-.3c-.2-.2-.3-.4-.3-.7h0ZM73.5,96.6c0,.2,0,.3.2.4,0,.1.2.1.4.1s.3,0,.4-.1c0,0,.2-.2.2-.4s0-.3-.2-.4-.2-.1-.4-.1c-.1,0-.3,0-.4.1-.1,0-.1.2-.2.4ZM73.6,95.2c0,.1,0,.3.1.3,0,0,.2.1.3.1s.2,0,.3-.1c0,0,.1-.2.1-.3,0-.2,0-.3-.1-.3,0,0-.2-.1-.3-.1s-.2,0-.3.1c0,0-.1.2-.1.3Z"/>
  <path class="cls-1" d="M75.2,96.6l1-2.3h.5l-1.1,2.3h.8v-.9h.4v.9h.3v.4h-.3v.5h-.4v-.5h-1.3v-.4Z"/>
  <path class="cls-1" d="M67.1,87.7h.7v4.6h-.7v-4.6Z"/>
  <path class="cls-1" d="M68.8,89h.6v.3h0c.2-.3.5-.4.8-.4s.5,0,.7.3l-.5.6c-.1-.1-.3-.2-.4-.2s-.3,0-.4.2c-.1.1-.2.3-.2.5v2h-.6v-3.3h0Z"/>
  <path class="cls-1" d="M71,90.7c0-.3,0-.6,0-.8,0-.2.1-.3.3-.5,0-.1.2-.2.4-.3.2,0,.4-.1.6-.1s.4,0,.6.1c.2,0,.3.2.4.3.1.1.2.3.3.5,0,.2,0,.5,0,.8s0,.6,0,.8c0,.2-.1.3-.3.5,0,0,0,0-.2.1,0,0-.1,0-.2.1-.2,0-.4.1-.6.1-.2,0-.4,0-.6-.1-.2,0-.3-.2-.4-.3-.1-.1-.2-.3-.3-.5,0-.2,0-.4,0-.8ZM73,90.7c0-.2,0-.4,0-.5,0-.1,0-.2-.1-.3,0,0-.1-.1-.2-.2,0,0-.2,0-.3,0s-.2,0-.3,0-.2.1-.2.2c0,0,0,.2-.1.3,0,.1,0,.3,0,.5s0,.4,0,.5c0,.1,0,.2.1.3,0,0,.1.1.2.2s.2,0,.3,0,.2,0,.3,0,.2-.1.2-.2c0,0,.1-.2.1-.3,0-.1,0-.3,0-.5Z"/>
  <path class="cls-1" d="M74.4,89h.6v.3h0c.2-.3.5-.4.8-.4s.5,0,.7.3.3.5.3.9v2.2h-.6v-1.9c0-.2,0-.4-.2-.5-.1-.1-.3-.2-.4-.2s-.3,0-.5.2c-.1.1-.2.3-.2.5v1.9h-.6s0-3.3,0-3.3Z"/>
</svg>