<?xml version="1.0" encoding="UTF-8"?><svg id="Layer_1" xmlns="http://www.w3.org/2000/svg" viewBox="0 0 144.57 144.57"><path d="M76.44,111c.21.09.36.15.51.22.34.15.41.31.19.61-.21.29-.45.55-.68.82-.83.96-1.68,1.9-2.5,2.87-.94,1.11-1.33,2.46-1.57,3.86-.19,1.15-.33,2.31-.49,3.47-.02.18-.06.35-.1.52-.06.25-.2.38-.56.26.05-.78.05-1.6.16-2.39.17-1.15.41-2.3.64-3.44.06-.31-.06-.49-.34-.51-.35-.03-.71-.01-1.06.03-.08,0-.21.17-.21.28-.02.22.05.46.03.68-.08,1.2-.17,2.4-.27,3.6-.02.28-.04.56-.12.83-.04.13-.2.22-.31.33-.08-.12-.22-.23-.22-.35,0-.9.01-1.8.02-2.7,0-.71.02-1.42-.03-2.13-.02-.28-.22-.55-.36-.82-.18-.36-.44-.69-.55-1.07-1-3.5-1.96-7.01-2.98-10.51-.49-1.69-1.05-3.37-1.62-5.04-.18-.53-.5-1.02-.76-1.53-.1-.19-.2-.37-.3-.56.03-.02.06-.04.09-.06.19.25.38.49.56.74.03,0,.05-.02.08-.03-.15-.63-.3-1.26-.47-1.89-.52-2-1.04-3.99-1.59-5.99-.09-.31-.27-.6-.42-.89-.73-1.35-1.47-2.69-2.21-4.04-.1-.18-.15-.39-.23-.59.04-.02.08-.04.13-.07l2.05,3.56.18-.08c-.5-1.77-1.01-3.53-1.51-5.3.05-.02.09-.03.14-.05.05.11.12.22.16.34.54,1.77,1.09,3.54,1.6,5.32.23.8.51,1.56,1.04,2.22.15.19.25.43.38.64-.03.03-.05.06-.08.09-.17-.1-.34-.2-.57-.33.06.26.1.49.16.71.74,2.63,1.48,5.25,2.23,7.88.07.23.17.45.27.67.13.29.33.52.2.9-.08.22.09.54.17.8.95,3.13,1.92,6.26,2.86,9.39.27.88.48,1.79.71,2.68.04,0,.08,0,.12,0,0-.26.06-.53-.01-.76-.52-1.6-.91-3.22-1.16-4.88-.13-.91-.4-1.8-.6-2.7.04-.01.08-.03.11-.04.05.11.11.22.14.33.26,1.08.5,2.17.77,3.26.14.59.3,1.18.47,1.76.06.21.17.41.33.59,0-.54.07-1.08-.01-1.6-.22-1.34-.5-2.67-.79-3.99-.11-.5-.34-.94-.87-1.23-.05.17-.09.29-.15.48-.27-.35-.44-.68-.37-1.07.02-.12.19-.26.32-.3,1.14-.36.91-.3.54-1.17-.22-.52-.38-1.07-.58-1.61-.1-.29-.23-.49-.63-.47-.19.01-.4-.26-.6-.4-.26-.19-.21-.38-.04-.61.07-.1.05-.3.02-.44-.34-1.27-.71-2.54-1.04-3.82-.23-.91-.56-1.76-1.07-2.54-.05-.07-.1-.16-.11-.24-.08-1.38-.72-2.61-1.08-3.91-.04-.15-.08-.31-.12-.46.03-.01.06-.03.08-.04.06.12.14.24.19.37.49,1.33.97,2.67,1.45,4,.03.1.05.2.1.29.57.9.73,1.91.95,2.93.25,1.11.66,2.18,1.02,3.26.04.12.21.2.31.31.11-.14.24-.26.31-.41.05-.11,0-.27,0-.49.21.33.37.59.54.85.05-.02.1-.03.15-.05,0-.16.03-.33,0-.49-.15-.64-.3-1.29-.49-1.92-.04-.13-.26-.2-.4-.3-.04.14-.13.29-.11.42.05.31.15.61.23.91-.04.02-.09.03-.13.05-.08-.2-.2-.39-.25-.6-.12-.45-.15-.92-.49-1.3-.1-.11-.05-.34-.1-.51-.23-.77-.43-1.56-.72-2.31-.8-2.08-1.66-4.14-2.46-6.23-.66-1.73-1.26-3.48-1.88-5.23-.18-.51-.31-1.03-.46-1.55.04-.02.09-.03.13-.05.08.18.18.36.25.55.97,2.59,1.91,5.19,2.91,7.77.81,2.11,1.69,4.19,2.53,6.29.03.08.05.17.1.25.12.21.26.6.37.59.37-.03.72-.2,1.07-.33.04-.01.06-.13.06-.2-.06-.69-.05-1.38-.34-2.05-.36-.84-.59-1.73-.84-2.61-.14-.48-.4-.73-.92-.73-.17,0-.34-.1-.51-.15,0-.04-.01-.09-.02-.13.16-.1.33-.2.5-.29.27-.14.37-.28.16-.59-.23-.33-.36-.72-.47-1.13.42.2.64.56.84.93.1.2.19.37.49.29.43-.11.5-.15.42-.59-.16-.85-.34-1.69-.51-2.54-.06-.29-.23-.39-.52-.45-.45-.1-.89-.28-1.31-.47-.26-.12-.26-.38.01-.48.37-.13.33-.31.24-.63-.21-.77-.33-1.55-.49-2.33.05-.02.1-.03.15-.05.06.14.14.27.18.41.18.61.36,1.22.53,1.83.06.19.08.46.36.34.1-.04.18-.31.15-.46-.17-.94-.33-1.88-.57-2.8-.4-1.53-.94-3.03-1.08-4.62-.01-.12-.04-.26-.11-.36-.53-.8-1.07-1.59-1.69-2.36.07.4.13.8.2,1.2-.03,0-.05.02-.08.02-.11-.31-.25-.61-.32-.93-.27-1.4-.9-2.66-1.75-3.76-.95-1.22-1.33-2.71-2.11-4.01-.57-.94-1.03-1.95-1.53-2.94-.1-.19-.17-.38-.25-.58.04-.02.07-.04.11-.06.78,1.44,1.57,2.88,2.35,4.32.03,0,.05-.02.08-.03v-.64s.06-.02.09-.03c.05.14.14.27.16.41.19,1.49,1.07,2.67,1.82,3.9.56.24.54.83.78,1.26.49.88,1.02,1.74,1.54,2.62.07-.02.13-.05.2-.07-.15-.86-.3-1.73-.46-2.59.03-.01.06-.02.1-.04.04.07.09.14.12.22.27.93.53,1.85.81,2.78.06.2.04.49.4.42.47-.09.73-.31.72-.63,0-.21,0-.42,0-.65.41.2.31.83.89.85-.02-.13-.02-.24-.04-.34-.19-.67-.39-1.34-.57-2.02-.24-.89-.51-1.77-1.5-2.33.29-.18.47-.35.69-.41.23-.06.28-.18.21-.35-.13-.34-.29-.67-.45-1-.14-.31-.3-.62-.49-1.02.22.04.3.06.48.1-.08-.26-.14-.46-.22-.67-.04-.11-.1-.2-.15-.31-.18-.42-.12-.51.34-.51.07,0,.15,0,.24,0,0-.06,0-.1-.02-.13-.75-.97-1.09-2.14-1.53-3.26-.03-.08-.09-.18-.07-.25.04-.15.09-.32.2-.41.07-.06.26-.03.37.01.2.08.38.2.57.3.03.01.07,0,.17-.02-.03-.16-.05-.32-.1-.46-.22-.66-.44-1.32-.69-1.97-.05-.13-.18-.23-.3-.31-.23-.17-.39-.32-.25-.66.07-.17,0-.42-.05-.62-.17-.57-.37-1.13-.56-1.69.03-.02.07-.04.1-.07.1.15.21.3.3.45.2.32.39.65.61.96.18.25.38.47-.15.66.03.02.07.05.1.07.18.03.36.11.52.07.1-.02.26-.25.23-.32-.21-.54-.43-1.08-.72-1.58-.19-.33-.55-.46-.97-.5-.25-.02-.57-.25-.71-.48-.22-.36-.32-.79-.47-1.2-.02-.05-.01-.11-.02-.17l.1-.05c.14.24.31.46.43.71.12.24.26.3.52.23.4-.1.81-.18,1.21-.27.01-.04.03-.07.04-.11-.17-.14-.33-.28-.5-.41-.27-.2-.54-.41-.83-.59-.26-.17-.54-.34-.83-.46-.22-.09-.35,0-.27.26.05.16.09.33.14.54-.38-.29-.71-.55-1.05-.8-.19-.14-.27-.3-.17-.52.12-.26.1-.63.51-.67.14-.01.28-.03.41-.09.82-.38,1.65-.34,2.49-.08.11.03.22.04.39-.02-.17-.17-.32-.37-.52-.51-.7-.51-1.41-1-2.11-1.5-.27-.19-.52-.4-.79-.6-.31-.24-.29-.42.08-.57.21-.08.44-.12.66-.16.22-.04.45-.06.78-.1-.12-.94-.24-1.88-.36-2.83.04-.02.08-.03.12-.05.07.13.18.25.2.39.16.83.32,1.67.45,2.51.04.24.12.37.35.43.22.06.32.01.35-.24.11-1.21.23-2.42.37-3.63.02-.17.18-.31.28-.47.13.09.31.14.39.26.29.44.57.89.8,1.37.26.52.45,1.07.68,1.61.56-.42.72-.4,1.06.21.2.36.31.77.46,1.16.04.1.09.2.16.35.16-.17.27-.31.39-.43.18-.18.35-.18.41.1.06.33.18.5.56.25.08,1.49.15,2.92.22,4.44.53-.36.28-.97.63-1.36.12.14.26.24.32.38.23.58.43,1.16.65,1.74.03.08.06.21.11.22.53.11.44.54.41.88-.07.76-.19,1.51-.31,2.26-.05.31-.04.48.35.48.39,0,.63.27.68.73.13,1.29.42,2.56.25,3.87-.01.11,0,.23,0,.46.5-.35.95-.65,1.38-.97.07-.05.09-.18.09-.28.09-1.8.23-3.6.26-5.4.05-3.16.05-6.33.05-9.5,0-.3-.16-.6-.19-.91-.03-.4-.05-.81,0-1.21.18-1.24-.09-2.42-.45-3.59-.02-.07-.05-.14-.07-.22-.17-.8-.34-1.61-.51-2.41-.01-.07,0-.15-.01-.22.03,0,.06-.02.09-.03.25.78.49,1.56.76,2.42.13-.16.21-.25.29-.35.04.05.09.09.1.13.1.74.18,1.48.29,2.22.13.91.28,1.83.44,2.74.5,2.94,1.09,5.87,1.2,8.86.02.63.1,1.27.14,1.9,0,.16-.03.31-.05.47-.04,0-.09.01-.13.02-.05-.17-.12-.33-.13-.5-.02-.35.01-.71-.03-1.07-.22-1.9-.45-3.8-.7-5.7-.14-1.04-.33-2.08-.5-3.12-.02-.14-.07-.28-.16-.42-.07,5.32.2,10.65-.45,16,.07,0,.2.02.33.03.23.02.46,0,.68.06.4.09.41.23.22.59-.22.44-.37.91-.53,1.37-.17.52-.3,1.05-.71,1.45-.1.1-.12.28-.18.42.03.02.07.05.1.07.12-.1.24-.2.35-.31.11-.11.19-.24.31-.34.11-.09.25-.15.37-.22.06.13.16.27.16.4.04,1.47.31,2.94.08,4.41-.02.12,0,.25,0,.37.03.02.06.04.1.05.14-.23.27-.46.41-.69.54.13.57.26.45.76-.15.68-.26,1.37-.32,2.06-.13,1.44-.76,2.73-1.25,4.06-.13.36-.32.69-.47,1.04-.04.1-.07.2-.13.38.53-.29.94-.56,1.04-1.12.09-.5.21-.99.31-1.49.03-.14.08-.27.12-.41.05,0,.1.02.15.02-.08.64-.16,1.28-.24,1.92.07.05.14.1.21.15.06-.13.1-.27.18-.38.06-.09.17-.22.26-.21.6.04.58-.42.68-.79.03-.11.07-.21.19-.33.06.32.12.64.19.96.05,0,.1,0,.14,0,.05-.19.12-.39.14-.58.14-1.49.27-2.98.4-4.48.02-.2.08-.4.13-.6.04,0,.08.01.13.02,0,.17.04.34.02.51-.23,3.21-.47,6.41-.71,9.62-.02.32,0,.55.39.66.37.11.44.32.26.6-.96,1.52-1.51,3.2-1.91,4.94-.13.55-.35,1.08-.56,1.71.42-.3.76-.57,1.12-.8.31-.2.63-.39.97-.51.58-.21.95.05,1,.66.06.77-.05,1.52-.36,2.24-.46,1.07-.94,2.13-1.41,3.2-.05.11-.09.23-.17.43.37-.19.65-.35.95-.48.13-.05.31-.08.42-.03.07.04.09.26.06.38-.35,1.45-.68,2.89-1.56,4.14-.16.22-.26.48-.4.73.73.26,1.56-.16,2.2.5-.91.95-1.21,2.2-1.77,3.32-.09.18-.15.38-.17.58-.04.33.1.45.42.37.3-.07.59-.15.88-.24.24-.07.35.04.34.26-.02.44-.04.89-.12,1.33-.09.52-.23,1.04-.34,1.55-.13.6-.35,1.17-.75,1.65-.07.09-.13.23-.11.33.02.07.2.16.27.14.1-.04.19-.16.23-.27,1.1-2.65,1.43-5.45,1.75-8.27.25-2.18.57-4.35.86-6.53.08-.62.18-1.23.25-1.85.02-.18-.07-.37-.13-.63.2-.21.36-.5.12-.93-.12-.22-.02-.56-.02-.85h.12c.03.08.05.17.08.25.02,0,.04,0,.06.01.08-.42.16-.84.25-1.26.47-2.35.6-4.73.78-7.11.2-2.58.49-5.16.73-7.74.16-1.72.35-3.44.47-5.16.14-2.01.23-4.03.33-6.05.19-4.03.86-8,1.69-11.94.04-.17.05-.34.08-.6-.41.37-.56.74-.62,1.18-.1.63-.24,1.24-.37,1.86-.02.12-.1.22-.15.33l-.12-.02c.03-.27.08-.54.09-.82.04-1.05.25-2.06.76-2.99.08-.15.29-.23.43-.36.12-.12.28-.25.32-.4.21-1.01.36-2.03.59-3.02.48-2.02,1.01-4.03,1.52-6.05.02-.08.04-.17-.03-.29-.15.32-.33.63-.44.97-.75,2.36-1.48,4.72-2.21,7.08-.29.96-.55,1.93-.84,2.89-.06.19-.17.37-.28.61-.19-.46,1.45-6.47,2.39-9.09,1.06-2.95,2.21-5.86,3.68-8.64-.03-.02-.05-.04-.08-.05-.12.15-.26.28-.36.44-1.02,1.68-2.15,3.31-2.83,5.17-.8,2.19-1.54,4.41-2.3,6.61-.09.25-.18.51-.35.73.61-2.72,1.4-5.38,2.38-7.99-.76,1.21-1.42,2.47-1.87,3.82-.36,1.08-.67,2.18-.97,3.28-.49,1.77-.98,3.54-1.42,5.33-.37,1.5-.72,3.01-1,4.53-.4,2.21-.76,4.43-1.07,6.65-.27,1.97-.44,3.96-.66,5.94-.02.16-.05.31-.14.46-.01-.05-.03-.11-.03-.16.05-1.4.04-2.8.18-4.18.18-1.92.4-3.84.73-5.74.38-2.24.84-4.46,1.36-6.67.57-2.44,1.29-4.85,1.86-7.29.52-2.21,1.4-4.27,2.49-6.24,1.31-2.38,2.79-4.64,4.84-6.46.39-.35.86-.62,1.32-.89.16-.09.4-.1.59-.06.36.06.44.31.23.6-.47.66-.93,1.33-1.43,1.98-1.2,1.56-1.84,3.38-2.51,5.19-.47,1.27-.91,2.56-1.26,3.87-.47,1.77-.86,3.57-1.26,5.36-.51,2.22-1.04,4.43-1.48,6.67-.23,1.15-.23,2.35-.44,3.51-.5,2.92-.45,5.87-.62,8.81-.1,1.69-.31,3.36-.47,5.05-.1,1.02-.17,2.05-.27,3.07-.12,1.21-.28,2.42-.41,3.63-.11,1.04-.17,2.08-.28,3.11-.29,2.61-.59,5.22-.9,7.83-.2,1.65-.41,3.3-.63,4.95-.08.6-.22,1.2-.29,1.8-.14,1.13-.21,2.28-.38,3.4-.28,1.83-.63,3.65-.95,5.47-.1.57-.17,1.16-.29,1.73-.07.36-.2.7-.31,1.05-.17.52-.33,1.04-.53,1.54-.15.39-.36.75-.55,1.12-.08.16-.19.29-.32.49ZM68.06,105.19c.24.4.49.74.66,1.11.17.38.25.79.36,1.2.44,1.75.73,3.53.69,5.35-.02.99-.1,1.98-.15,2.97-.03.63.07.78.68.98.6.2,1.21-.1,1.32-.7.28-1.53.63-3.06.57-4.63-.04-1.16.07-2.33-.33-3.47-.34-.97-.81-1.8-1.85-2.17-.44-.15-.88-.33-1.32-.49-.2-.07-.41-.1-.64-.15ZM73.56,96.38c-.04.47-.08.86-.11,1.24.04,0,.08.01.12.02.06-.12.11-.25.18-.36.29-.46.32-1.12,1.03-1.23.04,0,.08-.06.11-.1.28-.36.62-.69.83-1.08.39-.74.74-1.5,1.06-2.28.42-1.05.82-2.11.87-3.25,0-.18-.02-.36-.04-.6-.21.09-.35.11-.45.19-.64.51-1.33.99-1.89,1.57-1.22,1.26-2.2,2.67-2.24,4.53-.01.57,0,1.14,0,1.71.04,0,.08.02.12.02.12-.1.23-.21.42-.38ZM74.25,83.77s.08.05.12.08c.3-.33.75-.61.88-.99.27-.82.39-1.7.54-2.56.14-.8.01-1.67.63-2.34,0-.01,0-.04-.02-.15-.23.09-.46.13-.65.25-1.56,1-2.85,2.27-3.54,4.02-.3.77-.56,1.58-.45,2.44.03.21-.02.48.34.49.03,0,.09.14.09.22,0,.15-.06.3-.07.45-.05.52-.09,1.03-.13,1.55.04,0,.08.01.12.02.55-1.42,1.29-2.75,2.18-4-.01.17-.02.35-.03.52ZM72.84,92.2s.04.02.06.04c.1-.11.21-.2.29-.32.9-1.43,1.74-2.9,2.14-4.56.3-1.26.55-2.53,1.24-3.66.07-.12.06-.32.03-.48-.04-.26-.21-.36-.44-.23-.23.13-.45.28-.65.46-1.83,1.6-2.89,3.64-3.32,6.01-.12.67.14,1.29.2,1.93.04,0,.08,0,.12,0,.15-.39.31-.79.46-1.18.05.02.09.03.14.05-.1.64-.19,1.29-.29,1.93ZM71.73,92.68c.14-.86-.4-1.5-.61-2.25.12.13.24.26.37.39.03-.02.06-.04.09-.05-.02-.12-.02-.24-.06-.36-.13-.37-.27-.74-.42-1.1-.76-1.83-1.89-3.35-3.68-4.31-.45-.24-.89-.25-1.36-.19-.13.02-.25.14-.37.22.01.04.02.09.03.13.19.04.41.17.57.11.42-.16.54.08.67.38.37.91.61,1.85.68,2.84.04.55.28.97.78,1.27.56.33,1.08.72,1.61,1.08.56.38,1.06.82,1.4,1.43.08.15.2.28.3.42ZM71.99,95.15c-.02-.23,0-.37-.04-.47-.39-.81-.7-1.68-1.23-2.4-.68-.93-1.74-1.45-2.73-2.02-.23-.13-.49-.21-.74-.29-.46-.15-.89,0-1.32.19.33.08.66.15.99.14.56-.01.79.12.94.67.27.98.47,1.97.49,3,.01.58.07,1.17.15,1.75.02.14.21.34.34.36.74.1,1.38.42,1.98.84.11.07.21.14.32.21.03-.03.06-.05.09-.08-.24-.57-.49-1.13-.71-1.71-.06-.16-.08-.44.02-.54.1-.1.37-.1.54-.06.29.08.55.23.91.4ZM75.09,71.88c-.23.16-.4.24-.53.37-.54.54-1.07,1.08-1.58,1.64-.5.54-.81,1.19-.99,1.91-.43,1.7-.6,3.42-.57,5.17,0,.18.05.36.08.54.04,0,.09,0,.13.01.06-.22.12-.44.19-.66.11-.32.16-.69.36-.94,1.71-2.16,2.59-4.65,2.95-7.36.03-.19-.02-.39-.04-.68ZM70.61,82.36c.06-.05.12-.09.18-.14-.02-.12-.04-.24-.05-.35-.03-.59-.44-1.08-.2-1.77.19-.53,0-1.19-.26-1.77-.76-1.63-2.06-2.49-3.79-2.77-.43-.07-.86-.01-1.21.32.25.05.52.08.74,0,.23-.08.35-.03.42.16.18.44.37.89.5,1.35.21.7.35,1.43.57,2.12.07.21.28.42.48.53.94.49,1.76,1.11,2.41,1.94.08.11.13.25.19.37ZM66.26,80.34c-.01.07-.03.15-.04.22.2.07.4.19.61.19.48.02.58.09.6.56.02.66.04,1.32.06,1.98.02.75.34,1.28.99,1.68,1.03.63,1.87,1.47,2.45,2.55.07.14.19.25.28.37.03-.01.05-.03.08-.04-.2-.73-.41-1.46-.61-2.18.03-.02.07-.04.1-.06.15.07.29.14.5.25-.01-.21,0-.38-.03-.53-.14-.51-.29-1.02-.47-1.53-.61-1.71-1.84-2.79-3.53-3.37-.3-.1-.66-.06-.98-.09ZM70.73,73.02s.1,0,.14.01c.09-.32.18-.64.25-.96.34-1.52.72-3.03,1.4-4.45.62-1.29,1.17-2.61,1.75-3.92.06-.13.07-.27.13-.49-.24.08-.41.1-.54.18-.43.29-.85.59-1.27.9-1.16.85-1.76,2.08-2.08,3.4-.42,1.69-.2,3.41.12,5.1.01.08.07.15.1.23ZM66.85,100.76c.13.15.19.24.27.29.6.34.74.87.86,1.52.21,1.15.58,2.22,1.93,2.59.82.23,1.54.72,2.01,1.49.03.04.09.06.17.1.02-.17.06-.29.06-.41-.08-2.72-1.09-4.4-3.53-5.48-.54-.24-1.11-.17-1.77-.1ZM74.34,66.65c-1.55.72-3.89,7.58-3.19,9.32.12-.29.21-.57.35-.81.53-.91,1.07-1.81,1.61-2.71.04-.07.15-.1.23-.14.14-.05.3-.06.41-.14.4-.31.55-.74.56-1.23.02-1.29.05-2.59.07-3.88,0-.13-.04-.26-.06-.41ZM69.75,72.32c-.02-.76-.35-1.38-.59-2.04-.54-1.43-1.59-2.36-2.94-2.99-.31-.14-.67-.17-1.08-.27.04.34.05.58.1.81.13.52.29,1.03.44,1.54.17.61.48,1.1,1.07,1.42.22.12.41.3.58.49.67.76,1.32,1.54,1.98,2.31.12.13.25.25.38.37.04-.02.08-.05.13-.07-.12-.52-.24-1.04-.37-1.59.11,0,.19.01.3.02ZM69.29,69.1c-.06-1.06.04-2.13-.53-3.06-.16-.26-.33-.6-.58-.72-.67-.33-1.18-.81-1.67-1.36-.21-.24-.49-.46-.79-.56-.46-.17-.96-.25-1.44-.34-.35-.07-.42.02-.32.36.33,1.08.88,2.01,1.78,2.73,1.19.96,2.62,1.64,3.55,2.95ZM67.17,96.94c.23.16.42.28.59.43.09.08.21.23.19.33-.11.76.2,1.43.42,2.11.05.16.19.37.34.42.82.32,1.49.87,2.15,1.42.17.14.37.26.61.43-.02-.66-.25-1.12-.62-1.53-.17-.19-.26-.46-.38-.69.28-.02.56-.06.84-.05.21.01.42.1.66.16-.58-2.88-3.14-3.81-4.81-3.04ZM77.17,104.43c-.19.03-.31.03-.41.07-1.01.48-2.02.98-2.61,2-.29.5-.53,1.04-.85,1.52-.3.44-.36.9-.32,1.41.04.56.43.74.92.45.29-.17.58-.41.9-.47.4-.07.69-.24.89-.56.24-.39.49-.78.64-1.2.28-.79.49-1.6.71-2.4.07-.24.08-.49.13-.82ZM69.05,61.59s.06.02.1.02c.07-.11.15-.22.2-.34.25-.58.49-1.17.74-1.76.37-.87.49-1.77.39-2.72-.06-.54-.35-1.08-.12-1.64.02-.04-.04-.11-.07-.17-.11-.23-.21-.46-.32-.68-.05-.1-.13-.18-.19-.26-.1.07-.23.12-.28.22-.2.4-.38.8-.54,1.21-.13.3-.17.65-.35.92-.84,1.29-.55,2.53.05,3.8.13-.04.24-.07.4-.11v1.51ZM73.03,107.02c.13-.15.19-.22.25-.29.45-.49.84-1.07,1.37-1.45.52-.38.8-.77.95-1.4.29-1.23.6-2.47,1.33-3.54.04-.06.05-.19.01-.24-.04-.05-.17-.08-.24-.05-.41.17-.87.27-1.19.54-.6.52-1.15,1.12-1.66,1.73-.69.83-1.05,1.79-.95,2.89.01.16.07.32.13.59.59-1.18,1.32-2.09,2.12-2.97-.66,1.39-1.89,2.48-2.14,4.18ZM70.19,66.75c.1-.19.22-.38.31-.59.11-.25.16-.54.31-.77.65-.98.77-2.08.78-3.21,0-.11-.02-.29-.1-.33-.32-.19-.3-.44-.23-.75.07-.33.08-.68.09-1.02,0-.13-.06-.27-.1-.43-.09.05-.12.06-.15.09-.04.03-.08.07-.11.11-1.31,1.6-1.77,3.45-1.56,5.48.02.2.05.51.17.56.39.17.38.52.59.86ZM65.9,71c0,.19-.02.28,0,.36.28,1.01.57,2.02.86,3.03.15.52.5.81,1.02.96.78.21,1.49.58,2.06,1.18.07.07.17.12.26.18.03-.02.06-.03.08-.05-.05-.24-.08-.49-.16-.73-.46-1.36-1.32-2.48-2.21-3.57-.38-.46-.91-.79-1.39-1.16-.13-.1-.31-.12-.53-.2ZM73.31,101.58c1.22-.62,3.69-4.98,3.62-6.34-1.93.52-4.25,4.2-3.62,6.34ZM67.48,57.27s.09,0,.13,0c.23-.58.61-1.15.67-1.75.12-1.09.08-2.2.05-3.3-.01-.49-.14-.98-.27-1.45-.1-.37-.34-.42-.51-.09-.35.68-.79,1.38-.9,2.11-.18,1.16-.04,2.36.4,3.48.13.34.28.66.43,1ZM76.21,109.91c-1.27-.15-2.05.3-2.44,1.05-.27.5-.57.99-.85,1.49-.06.11-.13.23-.15.35-.19,1.25-.36,2.5-.54,3.75,0,.03-.01.06,0,.07.05.08.1.15.15.23.06-.05.15-.09.18-.16.11-.28.19-.58.32-.85.87-1.92,1.86-3.78,3.07-5.5.08-.12.16-.25.27-.42ZM68.7,64.95c.2-1.52-.16-2.79-1.07-3.89-.53-.64-1.24-1.08-2.1-1.28.29,1.09.57,2.16,1.02,3.15.24.55.73,1,1.17,1.43.25.25.62.37.98.58ZM63.41,55.84c.06.12.07.16.09.18.8.67,1.35,1.48,1.46,2.54.01.11.13.25.24.31.72.41,1.46.81,2.19,1.21.14.07.28.13.46.22-.11-.5-.15-.94-.3-1.35-.38-1.09-1.02-1.99-1.93-2.73-.67-.54-1.41-.44-2.22-.38ZM66.14,55.81c-.05-.45-.1-.79-.12-1.14-.03-.54-.3-.9-.76-1.15-1.07-.57-2.21-.86-3.42-.92-.19,0-.39.09-.58.14,0,.05,0,.09,0,.14.15.08.3.16.45.23.28.14.59.25.83.44.43.35.86.72,1.22,1.14.61.73,1.51.74,2.38,1.11ZM65.17,50.31c.18-.53.17-1.08.04-1.6-.19-.8-.47-1.57-.74-2.35-.07-.19-.25-.34-.38-.51-.08.21-.24.41-.23.62.02.86.06,1.72.13,2.58.06.73.41,1.07,1.18,1.26ZM65.32,52.71l.12-.04c-.15-.38-.21-.83-.46-1.12-.83-.96-1.83-1.72-3.01-2.21-.21-.09-.46-.14-.69.11,1.36,1.1,2.7,2.18,4.04,3.26ZM66.38,48.39c-.91,1.26-.6,2.56-.29,3.91.91-.8,1.04-2.71.29-3.91ZM65.71,81c0,.07-.03.15-.02.21.21.91.42,1.82.64,2.73.03.12.1.24.19.32.07.06.21.09.3.08.04,0,.08-.17.08-.26-.03-.73-.1-1.47-.08-2.2.01-.61-.46-.93-1.12-.87ZM71.31,95.57c.44,1.44.87,2.83,1.29,4.21.15-.07.2-.13.2-.18-.01-1.13-.05-2.27-.59-3.31-.18-.35-.46-.63-.91-.73ZM64.84,77.35s-.09.04-.13.06c.16.78.32,1.56.51,2.33.02.09.21.2.31.2.35-.02.7-.08,1.05-.14.08-.02.21-.11.21-.16,0-.1-.07-.27-.13-.28-.56-.11-.74-.61-1.04-.99-.26-.33-.51-.68-.77-1.01ZM65.85,62.78c-.15-.51-.32-.97-.4-1.45-.13-.76-.67-1.04-1.38-1.28.28.74.5,1.44.8,2.09.16.33.42.67.98.64ZM66.44,78.88s.1-.04.15-.06c0-.14,0-.29-.03-.43-.1-.46-.21-.91-.34-1.36-.15-.54-.76-.83-1.37-.61.54.83,1.07,1.65,1.59,2.47ZM75.8,82.64c.63-.1.78-.23.82-.68.09-.88.16-1.77.23-2.65.02-.27,0-.54,0-.8-.05-.03-.1-.06-.15-.09-.02.07-.07.14-.07.21-.09,1.35-.28,2.68-.83,4.01ZM76.39,111.55c-1.17.84-1.81,1.96-2.37,3.13.58-.45,2.3-2.69,2.37-3.13ZM71.85,100.59c.16,1.04.32,2.06.48,3.14.57-.62.23-2.59-.48-3.14ZM67.48,93.14s.09-.03.13-.04c.1-.72-.12-1.39-.38-2.05-.03-.08-.18-.12-.27-.18-.04.03-.09.05-.13.08.22.73.44,1.46.66,2.19ZM65.03,60.06c-.01-.22.02-.37-.03-.45-.09-.12-.23-.2-.37-.29-.03-.02-.15.06-.15.06.05.13.08.28.16.39.07.1.2.15.39.28Z" fill="#000" stroke-width="0"/><path d="M77.23,59.07c.01.14.04.29.03.43-.13,1.89-.28,3.77-.39,5.66-.1,1.65-.12,3.3-.23,4.95-.14,2.01-.34,4.02-.52,6.03-.02.24-.12.47-.25.7.57-5.92.39-11.88,1.27-17.77.03,0,.07,0,.1,0Z" fill="#000" stroke-width="0"/><path d="M58.6,47.2c-1.52-3.63-2.22-7.51-3.39-11.24.05-.02.1-.04.15-.07.13.26.29.5.37.77.39,1.34.75,2.69,1.15,4.02.48,1.59,1.02,3.16,1.49,4.75.17.56.25,1.15.36,1.73-.05.01-.1.02-.15.04Z" fill="#000" stroke-width="0"/><path d="M62.79,69.03c-.03.16-.05.27-.09.48-.19-.47-.3-.87-.5-1.22-.4-.72-.84-1.41-1.27-2.12-.03-.04-.07-.08-.11-.11-1.1-.8-1.3-2.17-2.1-3.15.04-.03.08-.06.11-.09.07.07.16.13.22.2.31.36.62.71.91,1.08.11.14.21.3.25.46.24.82.75,1.46,1.32,2.06.11.12.31.15.5.23.27.49.53,1.04.86,1.56.41.65.91,1.26,1.3,1.92.2.34.25.77.31,1.18-.6-.81-.88-1.82-1.72-2.5Z" fill="#000" stroke-width="0"/><path d="M54.66,24.68c-.14-.14-.3-.26-.42-.41-.48-.65-.95-1.31-1.43-1.97-.56-.76-1.14-1.52-1.7-2.28-.19-.26-.33-.54-.49-.82.04-.04.08-.07.13-.11.16.12.33.23.47.37,1.09,1.05,1.87,2.33,2.67,3.59.26.4.49.83.72,1.25.06.1.09.22.13.33-.03.02-.05.04-.08.06Z" fill="#000" stroke-width="0"/><path d="M80.24,65.22c0-.71-.1-1.44.02-2.14.32-1.95.73-3.88,1.11-5.82,0-.04.05-.08.11-.18.03.13.07.19.06.25-.11.8-.21,1.6-.33,2.4-.09.62-.18,1.25-.29,1.87-.05.26-.11.52-.21.77-.14.34-.18.63-.09,1.03.12.52-.02,1.1-.07,1.66,0,.07-.11.13-.17.2-.05-.01-.09-.02-.14-.04Z" fill="#000" stroke-width="0"/><path d="M58.72,85.15c-.6-.27-3.74-7.44-3.65-8.26,1.22,2.75,2.43,5.51,3.65,8.26Z" fill="#000" stroke-width="0"/><path d="M77.9,45.8c.26.58-.14,8.86-.44,9.15.08-3.05.16-6.11.44-9.15Z" fill="#000" stroke-width="0"/><path d="M61.44,48.63c-.47-.57-1.92-6.34-1.68-6.86.08.17.17.29.2.42.49,1.86.98,3.73,1.46,5.59.07.27.09.56.13.83-.04,0-.07.01-.11.02Z" fill="#000" stroke-width="0"/><path d="M81.59,68.46c.2,1,.14,1.95-.12,2.92-.15.59-.11,1.23-.16,1.85-.02.28,0,.56-.06.83-.02.11-.16.19-.24.29-.04-.11-.11-.21-.12-.32-.04-1.27.05-2.53.33-3.78.12-.53.18-1.07.27-1.6.01-.06.06-.12.09-.18Z" fill="#000" stroke-width="0"/><path d="M56.34,26.16c.17.34.33.65.48.97.03.06.03.15,0,.21-.36.69.05,1.29.24,1.91.13.4.34.78.49,1.18.18.47.32.95.48,1.43-.03.03-.05.06-.08.09-.11-.09-.27-.15-.32-.27-.4-1-.79-2-1.17-3-.06-.15-.05-.33-.09-.48-.11-.41-.19-.83-.35-1.23-.2-.5-.23-.49.32-.81Z" fill="#000" stroke-width="0"/><path d="M61.27,43.02c-.04-.16-.09-.32-.12-.48-.31-1.5-.61-3-.93-4.5-.05-.26-.17-.5-.26-.75-.1-.27-.06-.46.28-.53.81,2,.77,4.15,1.2,6.22-.05.01-.11.03-.16.04Z" fill="#000" stroke-width="0"/><path d="M58.6,27.15c-.14-.65-.28-1.29-.41-1.94-.16-.83-.32-1.66-.46-2.5-.04-.24-.04-.48-.06-.73l.19-.04c.08.2.2.39.23.59.24,1.39.46,2.77.67,4.16.02.14-.02.29-.03.43-.04,0-.09.01-.13.02Z" fill="#000" stroke-width="0"/><path d="M60.27,58.84c-.28-1.59-.87-3.14-.56-4.83.04.19.1.39.13.58.15.88.15,1.8.59,2.61.03.06.02.15.02.22,0,.37,0,.75,0,1.12,0,.09,0,.18,0,.27l-.17.03Z" fill="#000" stroke-width="0"/><path d="M65.82,91.06c.08.15.17.3.23.46.5,1.29.99,2.57,1.48,3.86.03.08,0,.19,0,.28-.1-.03-.22-.03-.29-.08-.07-.06-.12-.16-.16-.25-.44-1.24-.88-2.48-1.31-3.72-.05-.16-.05-.34-.07-.5.04-.01.08-.02.13-.04Z" fill="#000" stroke-width="0"/><path d="M83.03,51.51l-1.21,4.55c-.23-.46.74-4.22,1.09-4.57.04,0,.08.02.12.03Z" fill="#000" stroke-width="0"/><path d="M65.94,39.15c.23,1.19.49,2.38.56,3.65-.38-.25-.82-3.22-.56-3.65Z" fill="#000" stroke-width="0"/><path d="M63.25,36.21c.39,1.35.79,2.69,1.18,4.04-.39-.14-1.33-3.28-1.31-4,.04-.01.09-.02.13-.03Z" fill="#000" stroke-width="0"/><path d="M51.86,22.48c.24.93.47,1.86.71,2.8-.05.01-.11.03-.16.04-.36-.9-.66-1.82-.73-2.79.06-.02.12-.03.18-.05Z" fill="#000" stroke-width="0"/><path d="M78.06,67.35c.04,1.02.05,2.04-.15,3.1-.23-.28-.11-2.61.15-3.1Z" fill="#000" stroke-width="0"/><path d="M64.17,81.06c-.34-1.12-.69-2.24-1.06-3.44.32.21,1.1,2.59,1.19,3.4-.05.02-.09.03-.14.05Z" fill="#000" stroke-width="0"/><path d="M82.18,50.94c-.14.67-.11,1.38-.52,1.98-.06.09-.22.11-.33.16-.02-.11-.09-.28-.05-.33.43-.45.42-1.07.63-1.59.04-.09.1-.17.15-.25l.11.04Z" fill="#000" stroke-width="0"/><path d="M58.23,62.28c-.46-.42-.83-1.69-.59-2.29.26.81.49,1.53.73,2.25l-.14.04Z" fill="#000" stroke-width="0"/><path d="M75.82,57.73c.31.87.21,1.75.08,2.62-.11-.87-.25-1.74-.08-2.62Z" fill="#000" stroke-width="0"/><path d="M75.98,63.76v2.68s-.08,0-.12,0v-2.68s.08,0,.12,0Z" fill="#000" stroke-width="0"/><path d="M53.69,58.43c-.12-.54-.24-1.08-.36-1.62.04-.02.08-.03.11-.05.22.37.49.72.65,1.12.06.14-.13.38-.2.57-.07,0-.13-.02-.2-.03Z" fill="#000" stroke-width="0"/><path d="M78.07,43.17v-2.67c.3.42.23,2.33,0,2.67Z" fill="#000" stroke-width="0"/><path d="M76.04,62.89c-.32-.39-.31-1.76,0-2.11v2.11Z" fill="#000" stroke-width="0"/><path d="M80.92,75.95c.04.37.1.75.12,1.12,0,.08-.12.17-.18.25-.08-.09-.23-.17-.22-.26,0-.37.05-.74.08-1.11.07,0,.14,0,.2,0Z" fill="#000" stroke-width="0"/><path d="M66.53,43.64c.16.71.36,1.41.21,2.15-.26-.7-.25-1.42-.21-2.15Z" fill="#000" stroke-width="0"/><path d="M59.44,53.41c-.1-.6-.21-1.2-.31-1.79.38.23.59,1.25.46,1.76-.05,0-.09.02-.14.03Z" fill="#000" stroke-width="0"/><path d="M80.16,86.44c-.02.82.08,1.65-.08,2.46-.06,0-.12,0-.18,0l.12-2.45s.09,0,.13,0Z" fill="#000" stroke-width="0"/><path d="M63.45,83.5c.32.89.65,1.77.97,2.66-.05.02-.1.04-.15.06-.32-.89-.64-1.78-.96-2.66.05-.02.09-.03.14-.05Z" fill="#000" stroke-width="0"/><path d="M62.73,75.36c.17.66.35,1.32.52,1.97-.07.02-.13.03-.2.05-.17-.66-.34-1.32-.51-1.98.06-.02.12-.03.19-.05Z" fill="#000" stroke-width="0"/><path d="M59.17,81.49c.2.63.4,1.26.6,1.89l-.14.04c-.35-.58-.54-1.22-.58-1.89.04-.01.08-.03.12-.04Z" fill="#000" stroke-width="0"/><path d="M57.18,56.07c-.91-.09-.74-.76-.8-1.3.26.42.52.84.8,1.3Z" fill="#000" stroke-width="0"/><path d="M63.08,71.29c-.16-.52-.31-1.05-.49-1.66.42.23.69,1.15.49,1.66Z" fill="#000" stroke-width="0"/><path d="M68,44.92c-.04-.66-.09-1.33-.13-1.99h.16c.06.65.12,1.31.18,1.97-.07,0-.14.01-.21.02Z" fill="#000" stroke-width="0"/><path d="M74.79,37.75c.06-.57.12-1.15.17-1.72.06,0,.13.01.19.02-.05.58-.1,1.16-.15,1.73-.07,0-.14-.02-.21-.03Z" fill="#000" stroke-width="0"/><path d="M60,79.41c.15.45.29.91.47,1.45-.44-.22-.68-.9-.6-1.41.04-.01.09-.02.13-.04Z" fill="#000" stroke-width="0"/><path d="M61.15,75.09c.28.51.41,1.06.42,1.64-.05.01-.09.02-.14.04-.14-.55-.28-1.1-.42-1.64.05-.01.09-.02.14-.03Z" fill="#000" stroke-width="0"/><path d="M72.59,39.04c-.29-.48-.47-1-.47-1.56.05-.01.09-.03.14-.04.15.52.3,1.05.44,1.57-.04.01-.08.02-.12.04Z" fill="#000" stroke-width="0"/><path d="M78.02,43.93c.09.5.14.99-.09,1.47-.11-.5-.15-.99.09-1.47Z" fill="#000" stroke-width="0"/><path d="M60.78,61.66c.28.54.51.99.74,1.45-.37,0-.74-.69-.74-1.45Z" fill="#000" stroke-width="0"/><path d="M77.58,55.28c-.02.44-.05.87-.07,1.31-.32-.27-.27-.92.07-1.31Z" fill="#000" stroke-width="0"/><path d="M58.17,52.75c.15.33.31.66.5,1.07-.51-.17-.72-.6-.5-1.07Z" fill="#000" stroke-width="0"/><path d="M79.65,45.71c-.04.66-.07,1.32-.11,1.98-.02,0-.04,0-.06,0v-1.98c.06,0,.11,0,.17,0Z" fill="#000" stroke-width="0"/><path d="M64.56,41.81c-.1-.42-.2-.83-.31-1.25.07-.02.13-.03.2-.05.1.42.2.84.3,1.25-.06.02-.13.03-.19.05Z" fill="#000" stroke-width="0"/><path d="M67.9,41.29c.03.39.05.78.09,1.24-.34-.31-.41-.9-.09-1.24Z" fill="#000" stroke-width="0"/><path d="M60.54,59.22l.2,1.16c-.06.01-.11.02-.17.03-.08-.39-.16-.77-.25-1.16.07-.01.14-.03.22-.04Z" fill="#000" stroke-width="0"/><path d="M64.18,28.23c.33.24.4.5.12.88-.08-.28-.15-.57-.23-.85.04-.01.08-.02.11-.03Z" fill="#000" stroke-width="0"/><path d="M62.26,97.11l-.72-1.34.13-.07c.24.44.48.88.72,1.32-.04.03-.09.06-.13.09Z" fill="#000" stroke-width="0"/><path d="M75.63,69.22l.08-1.31s.06,0,.09,0v1.31c-.06,0-.11,0-.17,0Z" fill="#000" stroke-width="0"/><path d="M58.23,72.17c.14.37.28.73.41,1.1l-.16.06c-.14-.36-.29-.73-.43-1.09.06-.02.12-.05.18-.07Z" fill="#000" stroke-width="0"/><path d="M80.32,83.71c-.03.43-.06.86-.09,1.29-.05,0-.09,0-.14,0,.03-.43.06-.86.08-1.3.05,0,.1,0,.15.01Z" fill="#000" stroke-width="0"/><path d="M71.14,53.78c-.03.38-.05.75-.08,1.13-.06,0-.12,0-.18-.01l.09-1.13c.06,0,.11,0,.17.01Z" fill="#000" stroke-width="0"/><path d="M52.73,26c.08.33.15.67.23,1-.06.01-.12.03-.18.04l-.23-1c.06-.01.12-.03.18-.04Z" fill="#000" stroke-width="0"/><path d="M58.34,79.51c-.11-.34-.21-.67-.32-1.01.05-.02.11-.03.16-.05.11.34.22.68.33,1.01-.05.02-.11.03-.16.05Z" fill="#000" stroke-width="0"/><path d="M59.09,59.48c-.1-.22-.2-.45-.32-.72.44.05.52.21.45.66-.04.02-.09.04-.13.06Z" fill="#000" stroke-width="0"/><path d="M61.81,32.65c-.1-.27-.2-.53-.3-.8.05-.02.1-.03.15-.05.23.22.33.49.27.81-.04.01-.08.03-.11.04Z" fill="#000" stroke-width="0"/><path d="M64.09,27.17c.07.26.14.51.2.77-.06.02-.11.04-.17.06-.09-.25-.18-.5-.27-.74.08-.03.16-.05.23-.08Z" fill="#000" stroke-width="0"/><path d="M58.9,74.18c.11.3.22.59.33.89-.04.02-.09.03-.13.05-.12-.29-.25-.58-.37-.87.06-.02.11-.05.17-.07Z" fill="#000" stroke-width="0"/><path d="M67.64,38.05v.73s-.09,0-.14,0c-.01-.24-.03-.48-.04-.72.06,0,.12,0,.18,0Z" fill="#000" stroke-width="0"/><path d="M68.28,46.8c-.04-.3-.09-.61-.13-.91.06,0,.11-.02.17-.02.04.3.08.61.12.91-.05,0-.11.02-.16.02Z" fill="#000" stroke-width="0"/><path d="M73.61,47.85c-.01.25-.03.5-.04.75-.05,0-.1,0-.15,0v-.75h.19Z" fill="#000" stroke-width="0"/><path d="M73.8,39.65v1.08s-.05,0-.08,0c-.02-.36-.04-.72-.06-1.08.05,0,.09,0,.14,0Z" fill="#000" stroke-width="0"/><path d="M58.86,81.15c-.09-.29-.18-.58-.28-.86.05-.02.1-.03.15-.05.09.29.18.58.28.86-.05.02-.1.03-.15.05Z" fill="#000" stroke-width="0"/><path d="M65.7,38.74v-.78c.16.26.29.5,0,.78Z" fill="#000" stroke-width="0"/><path d="M75.3,94.32c.17-.38.34-.76.51-1.14.04.02.08.03.11.05-.16.39-.32.78-.48,1.17-.05-.03-.1-.05-.14-.08Z" fill="#000" stroke-width="0"/></svg>