<?xml version="1.0" encoding="UTF-8"?><svg id="Layer_1" xmlns="http://www.w3.org/2000/svg" viewBox="0 0 144.57 144.57"><path d="m70.55,58.94c-.08-.09-.18-.12-.28-.16-2.13-1.01-3.58-2.63-4.38-4.83-.19-.53-.31-1.08-.37-1.64-.07-.71-.12-1.43-.04-2.14.19-1.64.78-3.1,1.82-4.39,1.2-1.49,2.73-2.46,4.58-2.94.58-.15,1.17-.18,1.76-.26.13-.02.23.04.33.12.3.24.62.27.95.09.14-.07.26-.08.41-.04.37.1.74.19,1.12.28.05-.11-.04-.15-.09-.19-.22-.21-.46-.41-.74-.54-.14-.07-.18-.17-.19-.31-.03-.53-.41-.94-.94-1.01-.13-.02-.21-.07-.29-.18-1.15-1.61-1.75-3.4-1.79-5.37-.03-1.58.33-3.08,1.04-4.49.05-.11.12-.21.17-.32.09-.24.23-.39.5-.46.35-.09.54-.43.5-.79,0-.09-.02-.17-.03-.26,0-.04,0-.09.05-.11.28-.09.42-.35.61-.54,1.56-1.53,3.41-2.46,5.59-2.73,2.36-.29,4.53.24,6.51,1.54.61.4,1.8,1.41,2.53,2.44.03-.14-.01-.25-.04-.36-.2-.83-.28-1.67-.13-2.52.19-1.12.65-2.11,1.39-2.98,1.17-1.37,2.68-2.06,4.45-2.13,1.66-.06,3.14.5,4.37,1.63,1.1,1,1.75,2.25,1.95,3.72.14,1.04.01,2.04-.35,3.02-.06.16-.21.33.01.5.07.05-.03.14-.08.19-.18.18-.3.4-.42.63-.06.13-.04.28-.12.41q-.27-.2-.48.06c-.27.32-.58.6-.88.89-.13.12-.32.13-.46.25-.09.08-.21.12-.26.27.28.07.54.01.79-.06.18-.05,0-.15,0-.26.28.15.56.16.85.11.16-.03.3.12.48.09.08-.01.15,0,.23,0,.1,0,.13-.06.09-.16-.05-.12-.13-.23-.21-.33-.07-.08-.1-.17,0-.3.15.21.32.38.49.55.34.33.75.43,1.22.34.09-.02.17-.04.26-.05.05,0,.13-.02.13.05,0,.18.14.17.26.2,1.68.4,3.19,1.15,4.52,2.24.8.65,1.52,1.4,2.12,2.26.81,1.16,1.41,2.41,1.76,3.78.25.96.35,1.94.34,2.94-.02.93-.17,1.84-.41,2.73-.05.2-.1.41-.13.61-.02.11.06.14.15.08.06-.04.11-.1.16-.16.59-.72,1.26-1.34,2.09-1.79,1.3-.7,2.68-1,4.16-.9,1.08.07,2.08.35,3.04.82,1.2.59,2.15,1.47,2.92,2.56.8,1.13,1.26,2.39,1.39,3.76.07.8.03,1.6-.13,2.4-.23,1.12-.68,2.13-1.35,3.05-1.12,1.56-2.6,2.57-4.5,2.94-.36.07-.72.1-1.08.1-.09,0-.19,0-.23.09-.04.1.04.16.1.23.1.12.19.25.3.35.27.23.35.56.47.86.11.28.07.61.04.91-.02.15-.03.32-.1.45-.14.27-.12.55-.11.84,0,.01,0,.02,0,.03-.02.12.13.15.14.24,0,.08-.22.01-.15.18.05.1-.07.15-.09.24-.02.1-.05.19-.09.28-.18.36-.49.42-.82.18-.06-.04-.1-.12-.19-.12-.12.26-.12.27.09.38.42.21.49.42.23.81-.09.13-.1.21,0,.35.2.26.17.48-.1.68-.15.11-.14.18-.07.32.11.24.04.47-.16.61-.17.12-.36.1-.57-.06q-.21-.16-.42-.01c-.07.05-.14.1-.21.16-.19.15-.2.29-.03.46.05.05.12.09.19.13.98.53,1.67,1.33,2.1,2.34.32.74.43,1.55.33,2.36-.16,1.39-.74,2.57-1.79,3.51-.4.36-.88.62-1.39.82-.34.13-.69.23-1.04.3-.64.13-1.25.03-1.85-.15-.77-.23-1.47-.59-2.11-1.07-.6-.45-1-1.06-1.29-1.73-.76-1.73-.6-3.39.5-4.94.09-.13.2-.23.3-.35.09-.11.19-.21.23-.37-.17-.02-.31.04-.45.09-1.06.38-2.14.49-3.25.31-.12-.02-.24-.05-.4.04.67.52,1.22,1.11,1.58,1.87.36.78.5,1.59.41,2.44-.09.84-.4,1.61-.89,2.28-1.15,1.56-3.07,2.18-4.87,1.69-.61-.17-1.16-.45-1.66-.85-.5-.4-.89-.88-1.19-1.44-.3-.55-.46-1.14-.53-1.76-.07-.63.11-1.24.16-1.89-.19.02-.24.15-.32.24-.31.4-.64.79-.99,1.15-2,2-4.4,3.14-7.21,3.44-.12.01-.24.04-.36.03-.31,0-.53.09-.74.34-.28.34-.72.3-.93-.09-.13-.23-.29-.31-.52-.33-.26-.03-.52-.07-.82-.12.08.14.2.17.29.23,1.25.71,2.17,1.73,2.71,3.06.66,1.63.66,3.29-.03,4.92-.93,2.15-2.57,3.47-4.89,3.83-1.8.28-3.42-.18-4.84-1.34-.35-.29-.69-.58-.97-.94-.07-.09-.15-.19-.29-.19-.08.07-.03.14-.01.21.3,1.45.24,2.86-.31,4.25-.32.83-.77,1.6-1.39,2.22-1.72,1.73-3.78,2.5-6.22,2.06-1.12-.2-2.13-.67-3.02-1.4-.77-.63-1.32-1.41-1.79-2.26-.08-.15-.16-.28-.28-.4-.25-.26-.45-.52-.43-.92.01-.25-.12-.49-.23-.72-.27-.53-.65-.96-1.23-1.19-.46-.18-.92-.22-1.38-.04-.39.16-.78.2-1.19.08-.05-.02-.11-.03-.16-.02-.71.05-1.39-.19-2.09-.27-.15-.02-.3-.04-.53-.06.41.64.78,1.23.77,1.95-.07.02-.1,0-.1-.03-.2-.88-.69-1.6-1.39-2.14-.82-.63-1.75-.84-2.77-.55-.36.1-.68.26-.92.54-.1.12-.23.2-.37.27-.1.05-.2.1-.27.18-.25.29-.57.31-.9.23-.13-.03-.23,0-.34.05-.41.2-.82.42-1.25.59-.5.19-1,.41-1.53.49-.21.03-.43.09-.6.23,0,.12.1.12.17.14,1.14.36,2.15.95,3.04,1.74.16.14.32.11.5.09.32-.04.41-.01.55.27.25.53.68.88,1.14,1.2.09.06.19.11.26.2.04.04.08.08.05.14-.03.06-.08.07-.14.07-.13,0-.26,0-.4.02-.12.01-.15.08-.1.19.02.04.04.08.06.12.51.79.8,1.66,1.04,2.56.01.04.02.09.03.13.1.3.34.36.56.13.13-.14.21-.31.27-.48.23-.67.56-1.29,1.03-1.83.13-.15.26-.29.12-.52-.08-.13-.06-.27.1-.36.21-.12.39-.29.55-.47.14-.15.32-.23.5-.31.12-.05.23-.05.34.01.2.12.42.11.64.03.66-.22,1.35-.33,2.05-.3.13,0,.24-.02.34-.09.14-.09.29-.09.44-.02.33.17.68.25,1.04.29.19.02.37.08.47.26.06.1.16.15.26.19,1.04.48,1.8,1.25,2.37,2.22.12.21.21.44.29.67.3.84.42,1.7.33,2.59-.07.7-.28,1.35-.53,2-.03.09-.13.19-.04.27.1.09.23.07.35.03.1-.04.19-.1.28-.17,1.36-.97,2.87-1.42,4.54-1.25,1.31.13,2.48.63,3.51,1.47.6.5,1.09,1.09,1.48,1.75.27.44.47.92.63,1.41.19.59.27,1.2.29,1.82.02.78-.07,1.56-.3,2.31-.02.05-.02.11-.08.14-.1-.02-.07-.1-.06-.16.04-.21.07-.43.13-.64.15-.47.09-.96.08-1.44-.03-.91-.26-1.78-.67-2.6-.77-1.54-1.96-2.64-3.55-3.29-.79-.33-1.64-.39-2.49-.36-.29.01-.6-.02-.86.16-.7.03-1.27.42-1.86.71-.35.17-.66.43-.95.7-.4.38-.73.81-1.07,1.25-.08.1-.12.2-.11.33.03.3-.06.53-.33.69-.26.16-.31.47-.41.73-.09.25-.19.49-.31.73-.05.09-.1.19-.22.16-.11-.03-.11-.15-.12-.25,0-.05,0-.11.02-.16.06-.27.15-.53.17-.8,0-.09.05-.17.1-.24.12-.2.21-.41.28-.63.03-.09.09-.19,0-.28-.1-.09-.22-.15-.36-.1-.11.04-.2.1-.29.16-.24.17-.51.23-.78.31-.05-.13.04-.16.11-.19.48-.23.91-.54,1.31-.88.46-.39.83-.84,1.11-1.38.05-.11.12-.21.18-.31.16-.26.26-.53.26-.84,0-.1.02-.2.08-.28.18-.23.21-.51.23-.78.09-1.21-.22-2.33-.88-3.35-.6-.92-1.42-1.59-2.41-2.03-.51-.23-1.06-.35-1.63-.4-.39-.03-.77-.04-1.15,0-.75.06-1.41.32-1.94.86-.16.17-.35.25-.57.31-.08.02-.18.03-.24.09-.36.32-.7.66-.92,1.11-.02.05-.04.11-.07.15-.53.57-.64,1.3-.77,2.02-.12.7,0,1.37.12,2.05.09.52.25,1.01.55,1.43.33.49.67.97,1.14,1.36.46.39.98.67,1.5.95.32.17.7.24,1.07.29.49.07.98.13,1.48.05.05,0,.12-.01.14.05.02.08-.04.12-.11.14-.07.02-.15.02-.23.03-.39.04-.78.1-1.15.18,0,.15.1.16.17.2.75.43,1.43.95,1.99,1.61.24.28.44.57.65.88.18.27.36.38.52.31.23-.1.25-.31.26-.53,0-.23.03-.3.21-.65.06.27.1.53.05.76-.07.33.03.64.08.94.08.47.17.95.38,1.39.07.16.13.33.23.47.06.09.1.19.14.3.03.06.02.13-.04.18-.06.06-.13.04-.17-.02-.16-.2-.43-.15-.63-.26-.1-.06-.12.06-.13.13-.02.35-.03.7-.05,1.05,0,.04,0,.09,0,.13-.02.11-.03.26-.16.25-.17-.01-.09-.17-.08-.27.04-.97-.1-1.91-.47-2.81-.31-.75-.72-1.43-1.29-2.02-.3-.31-.59-.62-.96-.85-.48-.29-.98-.53-1.51-.72-.53-.19-1.08-.29-1.63-.41-.42-.09-.87-.08-1.31,0-.63.1-1.23.33-1.84.5-.18.05-.34.14-.49.25-.18.14-.36.29-.58.37-.05.02-.1.05-.14.09-.43.43-.9.84-1.24,1.36-.35.53-.62,1.09-.82,1.68-.06.18-.18.35-.27.53-.02.04-.06.06-.11.04-.03-.01-.05-.05-.03-.08.15-.31.07-.67.23-.99.1-.18.15-.39.26-.57.08-.11.1-.24.13-.37.03-.11,0-.18-.1-.25-.44-.29-.44-.3-.87.04-.15.12-.33.17-.5.23-.44.15-.82.42-1.26.56-.38.12-.75.25-1.13.34-.31.07-.56.23-.76.47.04.1.12.11.19.13,1.06.37,1.93.98,2.6,1.89.07.1.16.18.24.27.26.29.54.23.7-.12.05-.12.07-.25.1-.38.04-.22.04-.22.22-.42.1.07.07.17.07.27,0,.15-.01.31-.01.46,0,.35-.02.7.14,1.03.01.03.02.06.02.1,0,1.04.57,1.85,1.13,2.65.64.9,1.53,1.52,2.53,1.99.64.3,1.3.47,1.99.54.75.08,1.49,0,2.22-.19.53-.14,1.02-.36,1.48-.63.35-.2.66-.46.96-.74.29-.27.58-.54.79-.87.01-.02.03-.03.05-.05.06-.03.12-.06.18,0,.04.05.01.1-.02.15-.12.16-.24.32-.36.47-.05.06-.11.11-.16.17-.76.75-1.62,1.3-2.65,1.6-.27.08-.56.13-.82.23-.6.23-1.26.14-1.85.41,0,.09.09.1.15.13.2.1.39.2.6.28.23.09.45.19.51.47.02.1.12.16.19.22.84.73,1.28,1.68,1.57,2.73.26.96.18,1.92,0,2.87,0,.03-.02.06-.03.09,0,0-.01.02-.02.02-.1,0-.09-.08-.09-.14,0-.11-.02-.22,0-.33.09-.61.04-1.21-.1-1.8-.17-.69-.4-1.34-.8-1.94-.34-.5-.74-.93-1.17-1.33-.34-.32-.75-.54-1.13-.8-.1-.06-.23-.08-.35-.1-.31-.06-.59-.22-.9-.3-.71-.18-1.41-.16-2.12-.07-.19.02-.38.11-.58.09-.04,0-.09.01-.13.03-.52.35-1.12.52-1.62.92-.42.33-.72.73-1,1.17-.19.29-.38.59-.57.89-.08.12-.16.21-.32.18-.16-.03-.29-.13-.34-.28-.06-.16.05-.28.17-.35.19-.11.28-.27.37-.45.06-.12.06-.22-.12-.21-.11,0-.16-.04-.15-.16.02-.31.02-.31-.32-.23,0-.16.13-.23.22-.29.82-.57,1.29-1.39,1.63-2.3.14-.38.28-.76.34-1.16.11-.73.11-1.44-.08-2.15-.11-.44-.29-.85-.46-1.27-.17-.41-.44-.77-.72-1.1-.54-.63-1.15-1.17-1.94-1.5-.46-.19-.92-.37-1.41-.45-.65-.1-1.32-.06-1.97.09-.45.1-.89.23-1.31.44-.56.28-1.04.67-1.43,1.15-.21.26-.47.49-.64.79-.26.46-.55.9-.65,1.42-.03.16-.11.32-.26.41-.17.1-.38.08-.57.13-.06.02-.1-.03-.13-.08-.12-.23-.21-.47-.06-.72.06-.1.12-.21.18-.31.32-.51.5-1.07.65-1.65.04-.14.05-.27.24-.15.42-.09.86-.01,1.23-.39.68-.69,1.49-1.19,2.45-1.42.09-.02.2-.03.29-.15-.28-.17-.51-.39-.83-.49-.56-.17-1.12-.33-1.61-.65-.02-.01-.04-.02-.06-.03-.61-.19-1.2-.43-1.7-.84-.05-.04-.12-.08-.18-.02-.06.06,0,.12.03.18.38.86.53,1.76.44,2.7,0,.05-.02.11-.03.16,0,.02-.03.03-.06.05-.11-.1-.08-.24-.09-.36-.04-.47-.13-.93-.27-1.39-.24-.77-.67-1.43-1.21-2.02-.37-.41-.76-.79-1.22-1.11-.76-.53-1.61-.84-2.55-.89-.72-.04-1.41.1-2.07.36-.57.22-1.06.57-1.55.93-.13.09-.27.16-.39.33-.04-.19.03-.26.1-.35.55-.67,1.27-1.08,2.06-1.37,1.58-.57,3.09-.37,4.54.46.05.03.09.06.14.09.23.13.36.08.42-.19.04-.17.01-.35-.03-.52-.01-.05-.02-.12.03-.15.06-.05.12,0,.18.03.09.06.16.13.22.24.34.63.8,1.15,1.39,1.56.05.03.09.09.13.09.33.04.5.35.77.48.12.05.15.18.21.29.18.36.46.62.83.75.43.14.82.36,1.2.59.25.15.52.25.79.34.32.11.66.21.99.24.74.06,1.49.15,2.23.07.59-.07,1.18-.13,1.74-.33.79-.29,1.57-.61,2.25-1.14.4-.31.83-.58,1.18-.95.82-.86,1.54-1.81,2-2.92.42-1.01.63-2.05.67-3.14.04-1.18-.16-2.32-.55-3.43-.29-.82-.72-1.58-1.26-2.27-.06-.08-.13-.15-.21-.2-.14-.09-.26-.21-.34-.35-.33-.52-.78-.92-1.25-1.3-.48-.39-1.01-.7-1.57-.97-.26-.13-.55-.15-.81-.28-1.16-.56-2.4-.62-3.67-.56-.61.03-1.19.19-1.78.31-.32.07-.62.22-.92.36-.41.19-.84.35-1.21.6-.4.27-.8.55-1.15.89-.34.33-.69.64-1,1-.21.24-.39.5-.56.77-.28.46-.56.92-.8,1.4-.03.06-.08.12-.16.08-.06-.03-.06-.09-.06-.14,0-.11.03-.22.08-.32.43-.78.79-1.6,1.37-2.28.49-.58,1.02-1.12,1.69-1.51.11-.07.23-.14.33-.22.78-.57,1.65-.91,2.58-1.15.64-.17,1.3-.23,1.96-.27.07,0,.16.02.24-.07-.15-.14-.31-.26-.49-.35-.91-.49-1.72-1.1-2.42-1.86-.44-.47-.77-1.01-1.02-1.61-.17-.4-.33-.79-.44-1.2-.09-.32-.17-.64-.11-.97.01-.07,0-.16-.01-.23-.18-.66-.12-1.32,0-1.99.09-.55.22-1.07.42-1.58.12-.32.28-.64.47-.93.13-.19.22-.4.34-.6.65-1.07,1.61-1.79,2.7-2.35,1.03-.53,2.13-.76,3.28-.74,1.32.02,2.54.39,3.65,1.1.18.11.35.22.53.34.09-.14.04-.26-.02-.36-.3-.5-.38-1.07-.62-1.59-.06-.12-.05-.26-.06-.39-.05-.59-.12-1.19-.06-1.78.07-.68.25-1.34.56-1.95.48-.93,1.12-1.72,1.97-2.31.89-.61,1.87-.96,2.96-1.01,1.69-.07,3.13.5,4.34,1.67.08.08.16.24.29.16.12-.08,0-.22-.04-.33-.33-.81-.57-1.64-.63-2.52,0-.06-.01-.14-.04-.19-.23-.43-.12-.86.03-1.28.07-.19.12-.38.17-.57.24-.96.57-1.87,1.15-2.68,1.56-2.15,3.67-3.18,6.32-3.1.18,0,.35.02.53.02,0,0,.02-.01.03-.02Zm36.07-2.12c0,.1-.02.2-.02.3,0,.12.07.16.17.13.1-.03.26-.02.2-.19-.06-.17-.09-.33-.09-.51,0-.07-.03-.15-.15-.15-.08.13-.02.3-.11.43,0-.12-.01-.24-.02-.36-.03-.7-.49-1.27-1.18-1.39-.64-.11-1.16.14-1.58.61-.6.67-.33,1.85.5,2.2.73.31,1.52.09,1.99-.55.12-.16.2-.34.29-.51Zm-5.08,1.17c-.13.05-.26.11-.4.16-.23.08-.4.23-.53.42-.5.71-.23,1.73.56,2.15.07.04.18.03.21.13-.1.11-.24-.04-.34.06.03.21.43,1.64.5,1.76.09-.12.09-.25.12-.37.06-.33.14-.65.27-.95.07-.16.09-.3-.08-.44.37-.08.67-.2.89-.48.27-.33.48-.68.46-1.13,0-.07-.03-.16.07-.2.43-.16.67-.58,1.07-.8.1-.05.08-.15,0-.22-.05-.05-.1-.09-.15-.13-.29-.19-.52-.43-.69-.74-.02-.05-.05-.1-.11-.1-.02,0-.04.01-.06.03-.03.03-.05.07-.08.11-.37.59-.86.92-1.59.78-.04,0-.09-.01-.13-.02.06-.16-.07-.22-.16-.29-.38-.31-.53-.71-.47-1.2,0-.05.01-.11.02-.16.03-.16-.05-.22-.2-.23-.1,0-.2,0-.3,0-.47,0-.94-.04-1.41-.12-.49-.08-.97-.21-1.44-.36-.11-.03-.23-.12-.36-.02.09.14.21.22.32.31.96.77,1.75,1.69,2.39,2.75.24.4.23.39.5.03.28-.37.58-.73,1.12-.7Zm-3.71,16.12c.72-.62,1.29-1.39,1.79-2.21.57-.94,1.04-1.93,1.33-3,.25-.93.41-1.87.42-2.83,0-1.03-.05-2.06-.22-3.09-.16-.96-.42-1.88-.86-2.76-.19-.37-.36-.75-.56-1.12-.41-.75-.95-1.41-1.55-2-.56-.56-1.16-1.07-1.83-1.51-.62-.4-1.25-.78-1.91-1.09-.2-.09-.4-.18-.6-.28-.73-.34-1.48-.6-2.27-.75-.57-.11-1.15-.15-1.73-.2-.63-.05-1.23.02-1.83.12-.62.1-1.23.24-1.82.45-.43.16-.89.26-1.3.46-.55.27-1.11.51-1.61.88-.53.4-1.11.76-1.57,1.24-.37.39-.79.73-1.12,1.17-.2.27-.38.56-.59.84-.4.54-.75,1.11-.98,1.74-.22.58-.51,1.15-.61,1.77,0,.05-.03.11-.05.16-.22.44-.28.93-.34,1.4-.08.58-.11,1.16-.11,1.74,0,.29-.07.58-.02.86.09.56.15,1.13.35,1.67.1.27.18.56.22.86.05.36.12.73.29,1.08.13.24.27.48.36.74.08.22.17.42.28.62.19.35.49.62.67.97.07.13.15.25.23.36.27.36.57.69.89,1.01.38.39.85.66,1.21,1.07.06.06.15.12.23.05.08-.07,0-.14-.02-.21-.07-.2,0-.29.21-.26.12.02.21.06.24.19.02.13.1.24.18.35.05.06.09.14.05.21-.11.25.05.37.22.48.35.22.67.47,1.04.68.61.34,1.27.54,1.92.76.39.14.83.15,1.21.3.37.14.76.11,1.13.22.08.02.15-.02.22-.06.39-.23.77-.23,1.14.04.15.11.32.14.5.1.08-.02.18-.02.26-.02.54,0,1.07-.13,1.59-.23.4-.08.77-.27,1.15-.38.6-.16,1.15-.4,1.7-.7.91-.5,1.76-1.09,2.47-1.88Zm-2.36-38.98s-.02.07-.02.1c-.03.52-.24.68-.75.57-.16-.03-.27.01-.4.09-.52.31-.92.74-1.33,1.18-.2.22-.32.5-.54.7-.3.27-.47.63-.68.97-.07.11-.09.21-.05.34.07.23.02.3-.19.36-.32.1-.38.26-.18.52.06.08.13.15.16.25.08.24-.08.48-.33.49-.05,0-.11,0-.16-.02-.16-.06-.25,0-.3.16-.03.08-.08.16-.08.25,0,.25-.09.48-.2.69-.28.53-.36,1.11-.43,1.68-.13,1.03-.12,2.06.13,3.08.03.12.03.24.02.36,0,.25-.01.52.12.74.2.34.15.79.47,1.07.02.02.02.06.03.09.05.31.16.59.4.82.05.04.08.11.1.17.07.25.24.44.37.66.26.44.62.8.92,1.2.18.23.39.44.58.67.18.21.45.35.64.57.16.18.35.33.56.46.39.26.81.48,1.18.79.03.03.07.06.11.06.33.07.6.25.9.39.43.21.88.4,1.34.54.14.04.27.08.41,0,.11-.06.22-.04.29.07.14.23.36.25.59.3.23.05.46,0,.69.03.67.12,1.34.16,2.01-.08.2-.07.36-.14.43-.35.07-.2.23-.32.45-.32.23,0,.39.11.49.32.13.27.22.29.48.15.27-.15.55-.27.85-.36.36-.11.72-.2,1.05-.37.51-.26.95-.63,1.45-.92.2-.12.4-.24.57-.39.84-.78,1.65-1.58,2.21-2.6.08-.14.18-.28.26-.42.38-.67.75-1.34.96-2.09.09-.31.18-.61.29-.91.19-.57.3-1.15.36-1.74.06-.57.07-1.14.02-1.71-.05-.57-.1-1.14-.24-1.69-.22-.9-.55-1.76-.99-2.58-.34-.63-.75-1.21-1.2-1.77-.15-.19-.33-.29-.6-.28-.31.01-.48-.19-.47-.51,0-.05.01-.11.02-.16.02-.13-.04-.24-.14-.31-.47-.36-.9-.77-1.41-1.08-.56-.33-1.12-.66-1.72-.9-.76-.3-1.54-.51-2.34-.66-1.34-.25-2.68-.15-3.99.15-.68.15-1.36.33-2,.63-.14.06-.31.07-.41.2-.1.13.02.25.02.38,0,.19-.08.34-.24.39-.17.06-.34-.01-.45-.19-.04-.06-.02-.15-.11-.2Zm-7.12,6.7c.71-.6,1.19-1.29,1.58-2.07.16-.31.28-.64.44-.95.48-.93.77-1.91.87-2.95.12-1.27-.06-2.5-.51-3.69-.22-.57-.5-1.09-.82-1.61-.09-.14-.18-.15-.33-.09-.21.09-.35.05-.44-.09-.09-.14-.07-.29.1-.43.15-.13.1-.22,0-.32-.26-.24-.47-.52-.68-.81-.13-.18-.27-.35-.45-.48-.62-.49-1.23-.98-1.96-1.33-.67-.32-1.36-.57-2.07-.73-.95-.21-1.92-.33-2.9-.12-.02,0-.04,0-.07,0-.27.04-.55.05-.81.12-.88.21-1.73.47-2.51.95-.6.37-1.19.74-1.71,1.22-.58.53-1.06,1.14-1.49,1.79-.27.4-.49.83-.72,1.26-.26.49-.46,1-.58,1.54-.09.42-.2.85-.21,1.29-.01.37-.11.75-.07,1.12.08.72.09,1.46.33,2.16.1.29.18.59.28.88.09.28.27.5.38.76.29.65.71,1.21,1.18,1.73.4.42.83.82,1.26,1.21.51.46,1.11.76,1.68,1.09.69.4,1.47.61,2.23.88.06.02.13.03.19.02.29-.05.57.03.84.11.21.07.43.1.65.09.57,0,1.14-.02,1.71-.11.86-.14,1.66-.42,2.42-.81.83-.44,1.64-.91,2.19-1.62Zm-8.43,3.8c-.44-.55-1.04-.95-1.66-1.3-.47-.27-.93-.54-1.44-.73-.31-.11-.63-.19-.94-.3-.77-.28-1.58-.27-2.38-.26-.79.02-1.56.21-2.31.5-.23.09-.42.24-.64.33-.54.21-1,.56-1.46.89-.55.4-1,.92-1.41,1.46-.11.14-.2.29-.31.43-.25.32-.43.69-.61,1.05-.25.5-.43,1.04-.56,1.58-.08.36-.16.73-.17,1.1,0,.24.02.49-.04.72-.1.38,0,.75.05,1.11.12.75.3,1.48.6,2.18.13.31.35.56.5.85.23.42.52.79.83,1.14.92,1.06,2.08,1.76,3.36,2.31.49.21,1.01.3,1.53.4.36.06.73.11,1.09-.08.24-.12.52-.09.77.02.37.16.73.11,1.1,0,.11-.03.21-.05.32-.08.48-.13.96-.23,1.41-.45,1.09-.52,1.99-1.28,2.74-2.22.17-.22.3-.46.48-.66.36-.4.61-.86.82-1.34.36-.81.55-1.66.64-2.54.04-.38,0-.75,0-1.12-.01-.83-.21-1.61-.53-2.37-.41-.98-.96-1.88-1.78-2.61Zm33.02,2.07c-.28.16-.41.49-.64.71-.35.34-.49.8-.78,1.17-.19.25-.28.57-.4.86-.26.65-.55,1.29-.57,2.02,0,.16-.1.32-.09.49.04.65.04,1.3.21,1.96.17.67.42,1.3.78,1.88.43.72,1.01,1.32,1.65,1.86.21.17.43.35.64.52.12.09.24.21.38.26.45.18.86.42,1.32.59.69.25,1.41.33,2.12.43.33.05.66.02.99.02,1.04,0,2-.29,2.89-.79.8-.45,1.56-.99,2.11-1.76.25-.35.52-.68.72-1.06.09-.17.12-.3-.04-.44-.11-.09-.17-.21-.1-.35.06-.14.2-.17.34-.14.2.04.29-.06.34-.23.14-.48.32-.96.38-1.47.04-.32.03-.64.06-.95.06-.72-.04-1.43-.24-2.12-.49-1.7-1.48-3.07-2.9-4.1-1.01-.74-2.16-1.22-3.43-1.36-1.09-.12-2.15-.03-3.18.35-.26.1-.51.21-.76.32-.25.1-.48.27-.7.43-.17.12-.17.19-.04.34.02.03.05.04.07.07.1.14.06.33-.07.41-.12.07-.27.02-.36-.12-.02-.03-.03-.06-.04-.09-.1-.17-.15-.19-.3-.06-.13.11-.24.23-.37.37Zm-48.64,25.84c.13.22.25.41.36.61.04.08.07.18.01.25-.25.27-.25.63-.31.96-.07.41-.24.78-.42,1.14-.57,1.14-1.47,1.93-2.58,2.51-.09.05-.18.09-.26.14-.04.02-.07.06-.06.11.01.05.06.07.1.07.12,0,.24.01.36.01,1.01,0,1.94.25,2.76.86.06.05.13.09.2.12.1.03.18-.01.18-.13,0-.07-.03-.15-.05-.22-.06-.19-.15-.37-.19-.56-.12-.57-.18-1.15-.16-1.74.01-.62.19-1.18.49-1.72.22-.4.56-.71.79-1.09.05-.08.14-.11.23-.12.11,0,.22-.01.33-.02.06,0,.12,0,.15.05.04.07-.01.12-.06.17-.02.02-.05.04-.08.06-.37.24-.68.52-.85.93-.02.04-.04.08-.07.11-.39.49-.56,1.06-.65,1.66-.03.22-.08.43-.05.65.07.55.16,1.09.5,1.55.01.02.02.04.03.06.15.53.52.93.9,1.28.75.69,1.6,1.19,2.66,1.24.86.04,1.66-.13,2.39-.59.54-.34.92-.84,1.33-1.31.02-.02.03-.06.05-.09.27-.63.59-1.24.6-1.97,0-.48.03-.94-.12-1.4-.24-.75-.63-1.39-1.2-1.94-.81-.78-1.77-1.17-2.88-1.18-.42,0-.85,0-1.25.21-.2.1-.45.11-.65.22-.07.04-.12,0-.14-.09-.04-.21.06-.36.28-.41.27-.06.54-.11.81-.17.09-.02.2-.02.26-.16-.33-.11-.65-.22-.97-.33-.17-.06-.33-.12-.43-.29-.21-.35-.54-.51-.93-.56-.19-.02-.33-.1-.46-.23-.25-.26-.51-.52-.76-.78-.06-.06-.13-.12-.19-.18-.04-.04-.1-.07-.15-.04-.06.03-.04.09-.03.15.04.13.09.25.17.35.06.08.12.16.11.27-.03.3.05.56.22.81.09.14.07.27-.07.37-.09.06-.15.16-.27.17-.06-.04-.05-.1-.05-.15,0-.46-.13-.89-.3-1.31-.42-1.05-1.08-1.93-1.99-2.62-.86-.65-1.82-1.04-2.92-1.09-.98-.04-1.89.17-2.76.61-.32.16-.57.41-.86.6-.09.06-.18.13-.26.2-.13.12,0,.34-.12.42-.13.08-.31.05-.43.19-.23.27-.52.5-.63.87-.08.26-.27.48-.35.74-.23.75-.39,1.51-.31,2.3.04.42.08.84.21,1.23.21.62.48,1.21.89,1.74.54.69,1.2,1.23,1.97,1.62.53.26,1.08.49,1.69.55.26.02.53-.03.79.03.19.04.37.02.56.01.37-.01.69-.2,1.04-.3.17-.05.34-.09.5-.17.95-.47,1.76-1.08,2.36-1.99.59-.91.91-1.86.92-2.94,0-.1-.04-.22.09-.35Zm-1.46-6.49c-.02.17.09.3.1.45,0,.18.11.26.28.31.53.14.5.51.29.79-.16.21-.12.38-.02.57.2.4.42.8.69,1.16.45.6.94,1.15,1.54,1.62.24.18.52.28.76.46.36.27.78.45,1.2.61.71.27,1.46.38,2.22.44,1.01.08,1.97-.07,2.91-.43.56-.21,1.06-.51,1.52-.9.45-.39.88-.79,1.25-1.26.33-.43.58-.91.76-1.41.16-.43.37-.85.44-1.31.12-.84.24-1.68.12-2.53-.07-.44-.08-.9-.36-1.29-.05-.06-.04-.15-.05-.22,0-.09-.01-.18-.05-.26-.2-.39-.38-.79-.62-1.16-.36-.55-.82-1-1.28-1.46-.13-.13-.27-.23-.43-.3-.23-.11-.46-.23-.64-.41-.22-.22-.49-.36-.76-.51-.96-.5-1.99-.66-3.05-.71-.24-.01-.49-.01-.72.03-.78.15-1.52.37-2.25.72-.74.35-1.37.81-1.87,1.46-.09.11-.19.21-.31.3-.07.05-.14.11-.19.18-.32.46-.58.96-.83,1.46-.23.48-.31,1.01-.47,1.51-.07.21-.07.44.12.64.19.19.24.42.06.66-.08.1-.05.21.03.3.05.06.1.11.15.17.09.11.1.22,0,.33-.1.12-.21.15-.35.07-.05-.03-.1-.09-.21-.07Zm-8.8,11.13c-.53-.57-1.14-1.05-1.86-1.38-.5-.23-1.02-.4-1.55-.53-.67-.17-1.38-.15-2.06-.11-.81.05-1.55.38-2.26.75-.24.12-.5.23-.72.4-.5.4-.99.79-1.4,1.29-.31.38-.62.76-.83,1.21-.29.6-.6,1.2-.73,1.87-.04.22-.03.44-.09.65-.22.85-.01,1.68.14,2.51.03.17.19.28.21.45.07.6.42,1.08.71,1.58.34.59.84,1.06,1.36,1.51.62.54,1.32.91,2.08,1.19,1.61.59,3.22.58,4.83-.05.14-.06.28-.13.42-.18.53-.18.94-.56,1.39-.88.07-.05.12-.13.15-.21.13-.25.32-.45.55-.6.18-.12.33-.29.46-.47.19-.25.31-.53.47-.79.16-.27.23-.57.35-.85.05-.13.02-.25-.06-.37-.16-.24-.14-.31.05-.52.03-.03.06-.07.09-.09.26-.23.35-.52.34-.86,0-.29,0-.57,0-.86.02-.65-.12-1.27-.29-1.88-.32-1.08-.91-2-1.75-2.76Zm23.44,6.07c-.26-.27-.52-.54-.86-.71-.59-.31-1.18-.62-1.83-.82-.86-.27-1.72-.34-2.6-.18-.24.04-.42.11-.46.38,0,.06-.05.12-.09.17-.19.29-.37.3-.6.03-.24-.28-.26-.28-.61-.14-.63.25-1.15.67-1.66,1.11-.47.41-.85.89-1.17,1.42-.41.66-.75,1.35-.87,2.15-.07.47-.12.94-.15,1.41-.03.6.09,1.17.25,1.75.17.61.43,1.17.76,1.7.3.48.65.91,1.06,1.29.51.48,1.07.89,1.7,1.18.67.32,1.38.56,2.14.62.53.04,1.06.06,1.58-.03.84-.14,1.63-.43,2.35-.9.69-.45,1.27-1.01,1.76-1.66.33-.44.61-.91.81-1.43.25-.67.47-1.35.51-2.07.04-.74-.03-1.47-.23-2.19-.16-.54-.37-1.06-.65-1.55-.08-.14-.18-.26-.37-.18-.04.02-.09.02-.13.02-.11,0-.22-.02-.28-.14-.05-.12.03-.18.11-.24.15-.1.14-.23.05-.37-.14-.24-.36-.42-.54-.62Zm35-24.66c-.83-.89-1.72-1.51-2.79-1.85-.08-.03-.17-.06-.26-.06-.46,0-.91-.1-1.38-.07-.38.02-.76.07-1.14.13-.4.06-.74.26-1.11.41-.35.15-.73.29-1.03.52-.73.55-1.38,1.18-1.81,2.01-.12.23-.32.42-.33.7,0,.05-.05.1-.08.14-.33.5-.38,1.09-.49,1.65-.02.09-.03.22.01.29.14.25.19.48,0,.73-.02.03-.02.09-.01.13.04.26.03.53.08.78.09.45.24.89.41,1.31.23.56.53,1.08.98,1.5.06.05.11.11.15.17.49.72,1.21,1.13,1.97,1.49.21.1.43.17.64.25.48.19.99.28,1.5.33.8.08,1.58-.06,2.33-.33,1.22-.43,2.18-1.23,2.92-2.27.54-.76.83-1.64,1.07-2.54.13-.5.1-1.01.11-1.51,0-.28-.02-.56-.28-.77-.19-.16-.22-.41-.14-.64.1-.29.04-.54-.09-.79-.34-.67-.7-1.33-1.24-1.73Zm-23.35,19.6c-.11-.11-.21-.23-.33-.32-.49-.4-.97-.81-1.59-.98-.55-.15-1.07-.39-1.62-.56-.26-.08-.48-.08-.69.04-.18.1-.34.12-.53.1-.23-.02-.43.02-.55.27-.11.23-.3.25-.52.11-.33-.22-.49-.22-.83.01-.13.09-.25.19-.39.24-.34.11-.63.34-.9.54-.58.44-1.04,1.01-1.34,1.68-.15.35-.24.73-.52,1.02-.03.04-.04.1-.06.15-.11.32-.18.66-.24.99-.12.62-.07,1.26.06,1.87.19.84.52,1.62,1.01,2.34.53.77,1.25,1.31,1.98,1.85.03.02.06.03.09.04.51.2,1.01.43,1.54.57.69.17,1.39.21,2.09.11,1.39-.2,2.53-.87,3.46-1.88.64-.7,1.11-1.52,1.37-2.45.31-1.11.31-2.2-.03-3.31-.29-.94-.77-1.75-1.48-2.42Zm10.2-47.18c.11,0,.11.14.22.13.14-.01.51-.4.46-.54-.05-.17.03-.19.14-.22.26-.07.43-.26.55-.49.09-.15.17-.31.25-.46.29-.58.5-1.19.61-1.84.1-.58.08-1.16-.01-1.74-.1-.61-.29-1.19-.6-1.73-.35-.61-.79-1.14-1.3-1.61-.93-.86-2.05-1.33-3.29-1.45-1.07-.11-2.1.1-3.06.63-.21.12-.45.19-.63.35-.35.3-.69.6-1.01.94-.56.58-.94,1.27-1.21,2.02-.3.84-.34,1.72-.24,2.6,0,.05.02.11.04.16.13.26.18.54.27.81.15.43.34.83.57,1.22.36.62.86,1.1,1.39,1.57.19.17.38.33.63.41.14.05.28.13.41.21.22.13.45.22.7.27.09.02.18.03.26.06.49.19,1,.26,1.52.24.92-.05,1.81-.24,2.62-.69.32-.17.61-.36.66-.76,0-.03.03-.05.05-.08Zm-42.88,52.34c-.09.11-.08.24-.1.37-.11.6-.34,1.15-.66,1.67-.21.33-.47.64-.64,1-.11.23,0,.42.25.43.05,0,.11,0,.16-.03.51-.21,1.04-.25,1.58-.26.26,0,.5.07.74.12.18.03.25-.04.2-.21-.02-.08-.08-.16-.12-.23-.04-.09-.03-.18.05-.24.08-.06.18-.05.24.03.17.26.46.41.67.63.41.45.94.71,1.5.86,1.43.38,2.8.23,3.99-.7.71-.55,1.26-1.25,1.56-2.12.37-1.07.36-2.12-.13-3.14-.43-.91-1.04-1.67-1.93-2.19-.75-.44-1.54-.75-2.43-.64-.72.09-1.44.18-2.02.7-.1.09-.21.17-.32.22-.6.29-.95.83-1.27,1.35-.49.8-.64,1.72-.61,2.66,0,.25.02.5.12.74.05.11.06.23.09.35.02.09.05.22-.09.24-.13.02-.13-.12-.16-.21,0-.02,0-.04-.01-.07-.06-.31-.13-.62-.19-.93-.03-.14-.08-.25-.23-.29-.09-.02-.13-.12-.24-.12Zm54.82-13.95c-.39.28-.65.63-.83.99-.32.63-.6,1.29-.63,2.02,0,.09-.03.17-.04.26-.03.16-.06.32-.04.49.05.47.24.91.33,1.37.02.08.07.13.12.19.16.18.33.36.46.56.23.33.54.57.81.86.39.42.95.62,1.44.9.05.03.1.05.15.06.51.09.99.25,1.51.29.52.04.96-.18,1.44-.26.01,0,.02-.01.03-.02.85-.47,1.51-1.14,2.07-1.91.53-.73.78-1.57.79-2.47,0-.33,0-.66-.06-.98-.04-.19-.11-.33-.33-.35-.15-.02-.27-.1-.35-.23-.07-.13-.16-.19-.3-.21-.13-.02-.18-.12-.17-.24,0-.13.1-.19.22-.22.07-.02.13,0,.19.02.15.02.2-.04.15-.18-.01-.03-.03-.06-.05-.09-.37-.6-.86-1.08-1.46-1.45-.14-.09-.28-.11-.43-.01-.15.1-.32.14-.5.08-.22-.07-.35-.22-.42-.43-.03-.11-.07-.19-.21-.23-.79-.2-1.56-.06-2.29.22-.6.23-1.19.51-1.6.98Zm-4.27,7.12c.27-.24.45-.52.63-.79.44-.65.69-1.38.72-2.16.06-1.69-.7-2.95-2.13-3.83-.32-.2-.68-.3-1.03-.44-.44-.18-.9-.21-1.36-.17-.42.03-.82.14-1.21.28-.91.32-1.57.9-1.89,1.83-.02.05-.05.09-.09.14-.31.39-.54.84-.62,1.32-.12.71-.16,1.44.09,2.15.19.52.43,1.02.83,1.41.43.42.89.82,1.48,1.02.45.15.89.36,1.36.4,1.25.1,2.35-.27,3.22-1.14Zm-32.69,1.06c.72.65,1.42,1.18,2.33,1.31.52.08,1.05.13,1.53-.2.17-.11.36-.16.56-.18.18-.02.34-.09.48-.19.62-.47,1.12-1.03,1.44-1.76.35-.79.42-1.6.19-2.42-.36-1.32-1.22-2.23-2.46-2.79-.7-.32-1.43-.31-2.16-.16-1.03.22-1.74.91-2.35,1.7-.61.81-.68,1.79-.54,2.75.11.75.52,1.42.97,1.94Zm9.3-26.19s.12.12.19.19c.33.3.71.54,1.14.63.86.2,1.66,0,2.35-.56.84-.68,1.23-1.77.87-2.87-.16-.5-.48-.86-.86-1.18-1.1-.95-2.66-1-3.76.16-1.03,1.1-.94,2.77.06,3.62Zm-10.39,25.62c0,.12-.02.18-.02.25,0,.47-.07.92-.21,1.36-.12.4-.31.77-.38,1.19-.02.1-.1.16-.17.24-.22.24-.48.41-.73.61-.1.07-.23.15-.17.29.06.15.21.08.32.06.75-.14,1.49-.1,2.23.02.2.03.39.07.59.08.48.04.93.12,1.29.47.03.03.07.05.11.07.83.48,1.53,1.1,2.16,1.82.09.1.17.31.3.26.17-.07.06-.27.04-.42-.1-.85-.15-1.7.07-2.55.08-.32.07-.35-.22-.5-.31-.16-.48-.4-.53-.74-.05-.31-.12-.36-.44-.35-.08,0-.15,0-.23.02-.61.11-1.19-.06-1.72-.3-.63-.28-1.2-.68-1.62-1.26-.17-.23-.34-.48-.66-.63Zm12.69-33.86c-.28.29-.5.54-.62.85-.38.97.03,2.08.88,2.54.13.07.25.15.38.2.75.31,1.46.33,2.14-.19.81-.62,1.11-2.1.45-3.08-.44-.65-1.06-.98-1.85-.95-.56.02-1.02.31-1.38.62Zm7.43,9.31c.01-.14-.05-.18-.09-.22-.14-.16-.37-.2-.52-.34-.44-.41-.9-.82-1.25-1.31-.91-1.29-1.61-2.67-1.91-4.24-.02-.1,0-.24-.14-.27-.11-.02-.16.1-.23.16-.02.01-.03.03-.05.05-.47.56-1.07.82-1.79.85-.06,0-.14-.02-.16.07.02.06.06.09.11.12.45.29.74.71.97,1.18.07.15.18.28.19.45.08,1.02-.1,1.95-.86,2.7-.07.07-.18.13-.16.29,2.02-.4,3.97-.2,5.9.51Zm-17.96,6.33c-.08-.08.01-.18-.04-.2-.21-.09-.36-.34-.64-.28-.27.06-.54.09-.82.05-.09-.01-.18,0-.25.07-.15.16-.33.14-.52.13-.08,0-.17-.05-.26.03.12.1.25.16.38.21.13.05.21.14.25.28.1.36.43.63.81.65.2,0,.34.09.51.18.28.16.5.34.63.64.03.07.1.12.15.17.23.26.51.44.84.6-.34.1-.36.11-.2.37.39.62.64,1.3.86,1.99.02.06.01.15.1.18.06-.14.07-.27.07-.4.03-.61.09-1.21.21-1.8.02-.11.05-.22,0-.33-.05-.14.03-.22.13-.3.5-.41.7-.95.63-1.58-.13-1.12-1.22-1.45-1.92-1.22-.35.11-.64.34-.95.56Zm-11.17,28.49c-.09.09-.2.16-.16.29.04.12.16.1.25.11.51.05.94.29,1.32.63.24.22.39.17.48-.15.05-.19.06-.39.05-.59-.02-.47.07-.92.18-1.37.43-1.73,1.41-3.08,2.86-4.1.11-.08.35-.12.28-.3-.05-.13-.26-.05-.39-.05-.9.04-1.75-.14-2.53-.6-.14-.08-.29-.15-.45-.21-.07-.03-.16-.06-.22,0-.07.07,0,.15.03.21.39.84.53,1.72.44,2.64-.1.98-.47,1.85-1.14,2.58-.31.34-.63.68-1.01.92Zm31.94-54.24c-.63-.11-1.26-.1-1.87-.25-.61-.15-1.19-.4-1.73-.73-.53-.32-.96-.78-1.43-1.24-.06.21.02.33.07.46.39,1.16.57,2.35.47,3.57-.05.59-.16,1.18-.3,1.75-.03.1-.09.22.02.38,1.21-1.8,2.84-3.04,4.78-3.94Zm-37.02,70.12c-.02-.1-.09-.15-.13-.21-.19-.23-.46-.38-.67-.58-.44-.43-.88-.86-1.21-1.39-.08-.13-.18-.25-.2-.41-.03-.2-.15-.37-.28-.52-.13-.14-.3-.35-.47-.32-.2.03-.16.31-.19.48-.16.95-.51,1.83-.93,2.69-.16.32-.34.64-.51.96-.1.18-.07.23.14.23.2,0,.39,0,.58-.1.29-.17.6-.27.9-.39.88-.36,1.79-.5,2.74-.41.07,0,.15.03.24-.03Zm18.26-36.83c-.14.12-.14.21-.16.29-.06.29-.13.58-.17.87-.02.16-.09.25-.22.34-.21.13-.23.2-.14.44.05.13.06.24,0,.38-.43.85-.94,1.64-1.63,2.3-.09.08-.28.17-.19.3.08.12.24-.01.35-.06.53-.23,1.08-.39,1.65-.41.74-.03,1.43.17,2.09.5.11.06.21.16.39.11-.47-.8-.94-1.56-1.28-2.39-.35-.84-.46-1.73-.68-2.65Zm-22.04,50.04c0-.11-.05-.19-.12-.26-.27-.27-.55-.53-.82-.8-.44-.44-.96-.8-1.31-1.33-.1-.16-.25-.27-.45-.32-.07-.02-.14-.05-.21-.08-.25-.11-.34-.06-.36.21-.02.19,0,.37-.01.56-.01.39-.07.77-.22,1.12-.2.45-.34.92-.52,1.38-.07.18.02.28.22.3.26.02.5-.02.74-.13.87-.39,1.77-.65,2.74-.62.11,0,.22.03.32-.04Zm-.11-38.71c-.02.16.07.24.12.33.72,1.14,1.09,2.39,1.19,3.73.02.29.09.33.35.2.07-.04.13-.08.15-.16.05-.24.19-.45.28-.67.31-.72.76-1.33,1.4-1.8.21-.15.44-.29.66-.43.06-.04.15-.07.12-.17-.03-.09-.12-.09-.2-.09-.15,0-.31,0-.46,0-.7-.02-1.41-.05-2.08-.32-.38-.15-.75-.31-1.12-.47-.13-.06-.25-.13-.42-.14Zm45.29-7.47c.1-.03.12-.03.13-.03.13-.1.26-.2.38-.31.96-.82,2.07-1.17,3.33-1.08.07,0,.15.04.21-.05-.01-.03-.02-.06-.04-.08-.06-.06-.13-.12-.2-.17-1.14-.77-1.93-1.81-2.4-3.1-.03-.07-.03-.17-.18-.21.02.88-.11,1.72-.3,2.56-.19.84-.54,1.64-.93,2.48Zm-19.93,7.06c.24-.03.36-.13.48-.21,1.13-.77,2.35-1.22,3.74-1.14.05,0,.11,0,.18-.1-.74-.31-1.47-.62-2.15-1.04-.68-.43-1.28-.96-1.94-1.45.41,1.34.36,2.64-.31,3.94Zm35.3-14.34c.51.55,1.32.5,1.84-.05.29-.3.45-.67.35-1.11-.12-.52-.57-.91-1.19-.98-.44-.05-.86-.03-1.16.38-.22.29-.25.62-.23.97,0,.12.16.17.15.28-.04.23.11.36.24.51Zm-33.25-12.37c-.08.23-.08.39-.1.56-.1.9-.33,1.77-.66,2.61-.05.13-.13.25-.2.38-.05.09-.09.18-.08.28.01.1.07.15.16.09.14-.09.27-.19.4-.29.84-.63,1.74-1.15,2.74-1.5.04-.01.08-.03.09-.12-1.14-.2-1.82-.97-2.35-2.01Zm-12.35,22.34s.03.07.04.08c.04.02.08.05.12.06.94.39,1.64,1.05,2.15,1.92.02.04.04.08.07.11.04.05.09.1.17.08.07-.02.11-.08.12-.14.01-.05.01-.11.02-.16.06-.99.39-1.89,1.01-2.67.07-.09.18-.19.16-.4-.63.3-1.22.62-1.86.81-.64.19-1.31.26-1.98.33Zm19.52-32.91c-.17.09-.26.24-.37.38-.16.22-.32.39-.64.45-.58.11-.81.73-.54,1.25.1.19.17.38.37.48.04.02.06.06.07.11.03.23.24.33.39.47.09.09.16.04.18-.08.01-.06.03-.14.01-.2-.04-.17.04-.25.18-.33.48-.28.62-.95.28-1.39-.14-.17-.15-.31-.07-.51.08-.2.16-.4.15-.63Zm17.87,13.74c-.46.47-.37,1.15.19,1.4.29.13.6.15.9.05.28-.08.45-.27.52-.54.1-.39,0-.75-.27-1.04-.26-.3-.57-.35-.92-.17-.16.08-.3.18-.43.3Zm8.68,11.84c-.26-.23-.53-.44-.9-.38-.45.06-.57.43-.71.77-.13.32-.1.61.17.84.28.23.61.35.98.28.36-.07.58-.31.69-.64.11-.32.05-.63-.22-.87Zm-33.81-19.42c.25.25.58.34.87.2.39-.18.67-.46.7-.91.02-.35-.26-.72-.59-.82-.42-.12-1.03.04-1.2.31-.02.03-.03.06-.04.09-.19.39-.09.73.26,1.13Zm-.6-2.23q-.3-.1-.38-.19c-.4-.47-.75-.52-1.29-.19-.11.07-.21.1-.34.05-.15-.05-.29-.09-.44-.13-.06-.02-.14-.07-.21.03.1.09.2.17.3.25.23.17.47.33.46.67,0,.08.08.16.13.22.15.18.34.28.56.31.1.02.17.04.19.17.02.16.12.29.33.41-.02-.66.32-1.13.68-1.62Zm31.34,14.74c-.02.13.06.2.11.27.31.48.57.99.76,1.53.02.05.04.1.06.15.11.2.4.26.56.1.3-.29.57-.61.92-.84.1-.07.08-.17-.03-.24-.05-.03-.1-.04-.15-.06-.68-.17-1.31-.44-1.91-.8-.1-.06-.2-.13-.33-.12Zm-3.22-8.39c-.08,0-.12.03-.15.07-.5.61-.99,1.23-1.56,1.78-.12.12-.08.22.09.24.45.06.84.25,1.22.47.16.09.22.06.21-.13-.06-.72.04-1.42.19-2.12.02-.1.06-.21,0-.31Zm1.39,6.73c.02-.05,0-.1-.04-.15-.38-.55-.74-1.11-1-1.73-.07-.16-.14-.16-.25,0-.2.32-.44.6-.72.85-.18.16-.16.23.09.29.6.14,1.16.38,1.7.68.06.04.12.1.22.05Zm-31.99-.17c-.08-.04-.12.03-.17.06-.54.39-1.12.73-1.73,1-.05.02-.1.05-.15.08-.08.06-.09.13-.01.19.28.19.51.45.74.7.06.07.14.06.2,0,.05-.06.09-.12.12-.19.28-.56.59-1.1.94-1.62.04-.06.1-.12.06-.21Zm32.88,11.22c.11,0,.14.02.17.01.56-.17,1.13-.29,1.72-.27.02,0,.04,0,.07,0,.1-.02.14-.07.08-.16-.07-.11-.15-.22-.22-.33-.16-.25-.3-.51-.37-.8-.01-.05-.03-.11-.09-.13-.08-.02-.12.05-.16.1-.02.03-.04.06-.05.08-.18.32-.4.6-.64.88-.16.19-.31.39-.5.62Zm-30.37-21.1c.04.29.15.5.21.71.06.22.12.44.18.66.06.21.07.43.19.63.2-.63.55-1.14,1.06-1.64-.61-.01-1.12-.09-1.64-.37Zm33.89,17.33c-.28-.25-.55-.36-.76-.55-.2-.19-.34-.44-.59-.66-.02.51-.08.97-.16,1.42-.03.16.05.22.18.15.39-.21.8-.34,1.33-.36Zm-14.2-8.16c.12.12.29.23.5.16.24-.08.43-.22.5-.48.06-.23-.05-.39-.29-.43-.19-.03-.37,0-.55.05-.4.11-.47.38-.16.7Zm-16.31-12.8c-.42.06-1.17.3-1.34.42.33.24.59.53.88.9.11-.49.2-.9.46-1.32Zm.47,3.37c-.27-.33-.53-.64-.77-1.05-.17.44-.33.81-.54,1.17.44-.1.86-.09,1.31-.12Zm20.63,7.89c.04-.33.08-.61.11-.9.01-.11-.05-.17-.16-.12-.17.08-.33.17-.49.26-.1.06-.12.16-.03.25.17.17.33.36.58.51Zm-19.11-12.26c.35.07.64.14.98.21-.13-.22-.25-.38-.33-.57-.03-.08-.1-.09-.16-.04-.16.11-.34.2-.49.41Zm-8.95,37.37c.11.1.24.08.36-.07.07-.09.18-.18.08-.31-.09-.11-.36-.07-.47.06-.08.1-.07.23.03.32Zm39.75-15.47c-.09.09-.14.18-.04.29.08.09.23.08.33-.02.09-.09.1-.25,0-.32-.11-.09-.2,0-.29.05Zm-.45,1.42s.11.03.18-.05c.09-.09.08-.23-.03-.34-.07-.07-.16-.13-.25-.04-.07.06-.03.29.1.43Zm-.31,1.87c.1.07.19.07.26-.02.08-.09.06-.19-.02-.26-.08-.07-.16-.07-.23.01-.07.08-.09.18-.01.27Zm.52-.95c.07-.08.08-.17,0-.26-.06-.06-.13-.09-.2-.02-.07.07-.08.23,0,.3.07.06.14.04.21-.02Zm-14.56-11.41c.08-.07.11-.28.05-.34-.07-.06-.15-.05-.21,0-.12.1,0,.2.04.29.02.05.07.09.13.05Zm13.68,9.49c.09.1.2.11.28.03.04-.04.05-.1.01-.15-.05-.07-.23-.08-.3-.03-.05.05-.03.09,0,.14Zm-37.8,14.05c.03.07.09.06.14.05.08-.03.17-.06.14-.18-.01-.05-.07-.05-.11-.03-.08.03-.17.05-.17.17Zm36.83-13.66c.03-.06,0-.11-.04-.14-.05-.03-.11-.04-.15,0-.04.05-.03.1.01.14.06.04.12.06.18,0Zm.01-.71s.1.07.17.01c.04-.04.03-.08,0-.11-.05-.04-.12-.07-.18-.03-.04.03-.01.08.03.13Zm-32.61,11.98s-.03.04-.02.05c.01.03.04.04.07.02.01,0,.03-.03.02-.05-.01-.03-.04-.04-.07-.03Z"/><path d="m34.31,115.94c-.22-.1-.25-.29-.25-.49,0-.18.05-.23.24-.2.11.02.21.05.32.08.47.12.96.14,1.44.13.31,0,.48.09.49.4,0,.26.14.33.34.4.56.2,1.05.53,1.46.93.6.59,1.02,1.29,1.14,2.14.05.36.1.72.13,1.08.02.23.12.39.28.57.29.33.62.41,1.03.35.14-.02.29-.02.42-.09.43-.22.9-.34,1.37-.48.21-.06.43-.09.65-.1.1,0,.17-.05.11-.17-.03-.05-.06-.1-.05-.15.02-.25-.08-.42-.29-.55-.04-.02-.07-.06-.04-.13.14-.03.27.02.38.11.38.3.82.46,1.29.54.17.03.34.11.51.14.53.09,1.06.16,1.6.07.08-.01.17-.06.25.02.03.04.03.09,0,.12-.06.08-.15.08-.24.07-.07,0-.13-.03-.19-.03-.11,0-.19.04-.23.15-.01.04-.02.09-.03.13-.02.1-.18.14-.12.25.07.13.22.19.35.22.21.04.36.15.5.3.11.12.19.24.18.41-.01.21.08.36.28.43.09.03.18.08.27.13.17.1.32.23.37.44.03.14.07.29.25.3.14,0,.3-.17.33-.34.03-.16.25-.39.42-.41.26-.04.39.09.35.36-.1.58-.09,1.16.07,1.72.07.26.21.5.21.78,0,.06.04.13.07.18.32.47.52,1.02.86,1.48.34.45.73.87,1.19,1.18.64.43,1.33.83,2.11.95.74.11,1.51.23,2.25-.07.16-.06.32-.05.48-.1.26-.08.53-.14.75-.31.08-.06.19-.1.33,0-.51.28-.97.59-1.54.65-.24.02-.47.1-.71.13-.66.08-1.32.07-1.97-.03-.66-.1-1.3-.32-1.83-.76-.15-.13-.35-.18-.5-.32-.52-.5-1.03-1.01-1.38-1.66-.11-.21-.29-.39-.53-.48-.18-.06-.34-.14-.44-.32-.03-.06-.08-.12-.16-.1-.08.02-.08.1-.09.16-.06.27-.13.53-.18.8-.03.13-.06.26-.13.37-.04.06-.08.11-.16.08-.06-.02-.07-.08-.06-.14.02-.14.02-.29.07-.42.16-.41.09-.82.08-1.24,0-.52-.2-1-.37-1.49-.31-.9-.98-1.5-1.66-2.08-.43-.37-.99-.57-1.52-.77-.12-.05-.26-.06-.39-.05-.08,0-.16.01-.23,0-.64-.15-1.28-.05-1.88.12-.39.11-.78.35-1.11.62-.08.07-.13.17-.19.27-.2.32-.45.6-.83.72-.19.06-.31.2-.38.39-.11.27-.27.5-.43.74-.1.14-.2.21-.37.22-.5.05-.49.06-.57-.43-.02-.14.02-.26.08-.38.12-.24.27-.45.43-.66.17-.22.19-.47.11-.72-.09-.28-.05-.51.09-.78.17-.31.26-.66.17-1.04-.11-.47-.18-.95-.41-1.38-.25-.47-.59-.86-.97-1.24-.4-.4-.87-.69-1.37-.95-.48-.24-1-.31-1.54-.3-.36,0-.72,0-1.08.12-.21.07-.38.22-.6.28-.15.04-.29.09-.44.14-.06.02-.14.03-.18-.03-.05-.08,0-.14.06-.2.08-.08.17-.14.27-.19.34-.18.69-.33,1.06-.46.05-.02.11-.03.16-.13Z"/><path d="m77.69,109.29c.07.22,0,.33-.05.43-.14.29-.26.59-.42.86-.43.72-.93,1.39-1.61,1.9-.27.2-.54.41-.84.59-.88.53-1.83.83-2.86.93-.49.05-.97,0-1.45-.03-.28-.01-.56-.1-.83-.19-.77-.26-1.51-.59-2.16-1.11-.33-.27-.65-.56-.94-.87-.1-.1-.18-.22-.23-.36-.02-.04,0-.09.04-.11.03-.01.07-.01.09,0,.09.06.19.12.25.21.09.13.22.22.32.33.24.28.57.45.84.69.31.27.69.42,1.06.6.79.39,1.63.56,2.51.6.6.03,1.18-.07,1.75-.19.44-.09.86-.29,1.25-.51.68-.39,1.32-.84,1.84-1.43.37-.42.7-.87.93-1.39.14-.3.31-.59.5-.95Z"/><path d="m64.47,112.99s.1-.06.16-.08c.08-.02.16.03.11.09-.22.32-.19.74-.4,1.06-.04.05-.06.13-.13.14-.1.01-.1-.1-.15-.15-.04-.05-.07-.12-.04-.18.14-.29.23-.61.46-.88Z"/><path d="m78.32,67.43c-.09-.1-.07-.25.03-.35.13-.12.37-.12.48,0,.08.1.06.28-.06.39-.11.1-.35.09-.45-.03Z"/><path d="m90.65,65.91c-.06-.05-.09-.25-.03-.3.03-.03.08-.04.12-.01.08.04.1.21.03.29-.03.04-.07.04-.12.02Z"/><path d="m79.3,61.62s-.05-.08-.02-.12c.04-.06.1-.08.17-.04.04.03.05.07.02.11-.04.06-.1.07-.17.04Z"/><path d="m83.76,74.67s-.06,0-.07-.02c-.02-.03,0-.06.03-.07.02,0,.05,0,.06.01.03.02.03.06-.01.08Z"/><path d="m78.25,63.13s.05,0,.05,0c.02.03.02.06,0,.08-.01,0-.04,0-.05,0-.03-.03-.02-.06,0-.08Z"/><path d="m95.08,53.47c-.1-.1-.1-.31.01-.42.11-.12.31-.13.42-.02.1.1.1.31,0,.42-.1.11-.31.12-.42.02Z"/><path d="m90.91,42.56c-.05-.08-.04-.15.03-.2.06-.05.13-.03.17.03.04.06.03.13-.03.18-.06.05-.12.05-.17,0Z"/><path d="m92.92,51.11c-.04-.05-.03-.1.02-.13.05-.03.1-.03.14.02.03.04.01.08-.02.11-.04.04-.09.04-.14,0Z"/><path d="m89.31,39.62c-.07-.08-.09-.17-.02-.26.07-.09.17-.09.27-.03.09.07.1.21.02.29-.07.07-.19.07-.27,0Z"/><path d="m64.35,65.73c.05-.04.12-.1.19-.15.05-.03.1-.04.15,0,.05.04.04.1.03.15-.04.15-.16.2-.29.23-.08.02-.16.02-.2-.07-.03-.08.06-.11.11-.17Z"/><path d="m105.99,58.45c.08-.06.16-.08.24,0,.09.08.07.18,0,.26-.08.07-.16.06-.23-.01-.07-.07-.07-.16,0-.24Z"/><path d="m117.09,76.41c-.1.09-.11.2-.21.19-.04,0-.07-.06-.06-.11.03-.12.11-.11.26-.09Z"/><path d="m101.08,77.25c-.11-.1-.11-.27-.01-.38.12-.13.36-.15.47-.03.09.1.08.28-.02.39-.11.12-.33.14-.44.03Z"/><path d="m102.75,58.34c.06,0,.09.05.11.1-.06,0-.09-.05-.11-.1Z"/></svg>