<?xml version="1.0" encoding="UTF-8"?><svg id="Layer_1" xmlns="http://www.w3.org/2000/svg" viewBox="0 0 144.57 144.57"><line x1="32.24" y1="90.96" x2="27.77" y2="88.39" fill="none" stroke="#010101" stroke-linecap="round" stroke-width=".41"/><line x1="32.5" y1="89.21" x2="29.16" y2="87.28" fill="none" stroke="#010101" stroke-linecap="round" stroke-width=".41"/><line x1="48.48" y1="78.49" x2="53" y2="81.1" fill="none" stroke="#010101" stroke-linecap="round" stroke-width=".41"/><line x1="48.22" y1="80.25" x2="51.61" y2="82.2" fill="none" stroke="#010101" stroke-linecap="round" stroke-width=".41"/><line x1="122.37" y1="70.23" x2="126.67" y2="67.75" fill="none" stroke="#010101" stroke-linecap="round" stroke-width=".41"/><line x1="78.23" y1="81.12" x2="71.92" y2="77.47" fill="none" stroke="#010101" stroke-linecap="round" stroke-width=".41"/><line x1="78.27" y1="79.23" x2="73.54" y2="76.49" fill="none" stroke="#010101" stroke-linecap="round" stroke-width=".41"/><line x1="90.29" y1="66.57" x2="90.3" y2="60.97" fill="none" stroke="#010101" stroke-linecap="round" stroke-width=".41"/><line x1="91.39" y1="66.57" x2="91.4" y2="60.97" fill="none" stroke="#010101" stroke-linecap="round" stroke-width=".41"/><line x1="122.92" y1="70.23" x2="122.92" y2="75.01" fill="none" stroke="#010101" stroke-linecap="round" stroke-width=".41"/><line x1="121.82" y1="70.23" x2="121.82" y2="75.01" fill="none" stroke="#010101" stroke-linecap="round" stroke-width=".41"/><line x1="71.92" y1="70.2" x2="78.23" y2="66.55" fill="none" stroke="#010101" stroke-linecap="round" stroke-width=".41"/><line x1="73.54" y1="71.18" x2="78.27" y2="68.44" fill="none" stroke="#010101" stroke-linecap="round" stroke-width=".41"/><line x1="116.07" y1="66.58" x2="122.37" y2="70.23" fill="none" stroke="#010101" stroke-linecap="round" stroke-width=".41"/><line x1="59.32" y1="77.47" x2="63.62" y2="79.96" fill="none" stroke="#010101" stroke-linecap="round" stroke-width=".41"/><line x1="84.53" y1="70.2" x2="90.84" y2="66.57" fill="none" stroke="#010101" stroke-linecap="round" stroke-width=".41"/><line x1="84.53" y1="77.47" x2="84.53" y2="70.2" fill="none" stroke="#010101" stroke-linecap="round" stroke-width=".41"/><line x1="82.88" y1="76.56" x2="82.88" y2="71.11" fill="none" stroke="#010101" stroke-linecap="round" stroke-width=".41"/><line x1="27.77" y1="88.39" x2="23.43" y2="90.89" fill="none" stroke="#010101" stroke-linecap="round" stroke-width=".41"/><line x1="101.24" y1="67.85" x2="103.46" y2="66.57" fill="none" stroke="#010101" stroke-linecap="round" stroke-width=".41"/><line x1="53" y1="81.1" x2="53" y2="88.39" fill="none" stroke="#010101" stroke-linecap="round" stroke-width=".41"/><line x1="84.53" y1="77.47" x2="78.23" y2="81.12" fill="none" stroke="#010101" stroke-linecap="round" stroke-width=".41"/><line x1="102.77" y1="65.54" x2="104.15" y2="65.54" fill="none" stroke="#010101" stroke-linecap="round" stroke-width=".41"/><line x1="102.77" y1="64.49" x2="104.15" y2="64.49" fill="none" stroke="#010101" stroke-linecap="round" stroke-width=".41"/><line x1="102.77" y1="63.46" x2="104.15" y2="63.46" fill="none" stroke="#010101" stroke-linecap="round" stroke-width=".41"/><line x1="102.77" y1="62.41" x2="104.15" y2="62.41" fill="none" stroke="#010101" stroke-linecap="round" stroke-width=".41"/><line x1="102.77" y1="61.36" x2="104.15" y2="61.38" fill="none" stroke="#010101" stroke-linecap="round" stroke-width=".41"/><line x1="102.77" y1="60.33" x2="104.15" y2="60.33" fill="none" stroke="#010101" stroke-linecap="round" stroke-width=".41"/><line x1="109.76" y1="70.22" x2="116.07" y2="66.58" fill="none" stroke="#010101" stroke-linecap="round" stroke-width=".41"/><line x1="40.38" y1="88.39" x2="44.63" y2="90.85" fill="none" stroke="#010101" stroke-linecap="round" stroke-width=".41"/><line x1="103.19" y1="59.77" x2="98.86" y2="57.26" fill="none" stroke="#010101" stroke-linecap="round" stroke-width=".41"/><line x1="103.74" y1="58.82" x2="99.41" y2="56.31" fill="none" stroke="#010101" stroke-linecap="round" stroke-width=".41"/><line x1="34.07" y1="77.47" x2="34.06" y2="71.7" fill="none" stroke="#010101" stroke-linecap="round" stroke-width=".41"/><line x1="53" y1="88.39" x2="48.48" y2="91" fill="none" stroke="#010101" stroke-linecap="round" stroke-width=".41"/><line x1="51.61" y1="87.28" x2="48.22" y2="89.24" fill="none" stroke="#010101" stroke-linecap="round" stroke-width=".41"/><line x1="71.92" y1="77.47" x2="71.92" y2="70.2" fill="none" stroke="#010101" stroke-linecap="round" stroke-width=".41"/><line x1="103.46" y1="59.29" x2="107.67" y2="56.86" fill="none" stroke="#010101" stroke-linecap="round" stroke-width=".41"/><line x1="103.46" y1="66.57" x2="109.76" y2="70.22" fill="none" stroke="#010101" stroke-linecap="round" stroke-width=".41"/><line x1="40.38" y1="81.1" x2="40.38" y2="88.39" fill="none" stroke="#010101" stroke-linecap="round" stroke-width=".41"/><line x1="38.72" y1="82.01" x2="38.72" y2="87.48" fill="none" stroke="#010101" stroke-linecap="round" stroke-width=".41"/><line x1="90.84" y1="66.57" x2="95.28" y2="69.13" fill="none" stroke="#010101" stroke-linecap="round" stroke-width=".41"/><line x1="34.07" y1="77.47" x2="40.38" y2="81.1" fill="none" stroke="#010101" stroke-linecap="round" stroke-width=".41"/><line x1="69.98" y1="78.58" x2="71.92" y2="77.47" fill="none" stroke="#010101" stroke-linecap="round" stroke-width=".41"/><line x1="40.38" y1="88.39" x2="36.09" y2="90.86" fill="none" stroke="#010101" stroke-linecap="round" stroke-width=".41"/><line x1="40.38" y1="81.1" x2="44.63" y2="78.65" fill="none" stroke="#010101" stroke-linecap="round" stroke-width=".41"/><line x1="27.77" y1="82.71" x2="27.77" y2="88.39" fill="none" stroke="#010101" stroke-linecap="round" stroke-width=".41"/><line x1="34.07" y1="77.47" x2="29.76" y2="79.96" fill="none" stroke="#010101" stroke-linecap="round" stroke-width=".41"/><line x1="34.36" y1="79.2" x2="31.13" y2="81.08" fill="none" stroke="#010101" stroke-linecap="round" stroke-width=".41"/><line x1="84.53" y1="70.2" x2="78.23" y2="66.55" fill="none" stroke="#010101" stroke-linecap="round" stroke-width=".41"/><line x1="53" y1="81.1" x2="59.32" y2="77.47" fill="none" stroke="#010101" stroke-linecap="round" stroke-width=".41"/><g isolation="isolate"><path d="m95.53,55.58c0-.27,0-.46.02-.55.02-.09.04-.17.08-.22.06-.11.14-.21.27-.29.12-.09.27-.13.45-.13.18,0,.33.05.45.13.12.08.21.18.26.29.04.06.07.13.08.22.01.09.02.28.02.55s0,.45-.02.54c-.01.09-.04.17-.08.23-.05.11-.14.2-.26.29-.12.09-.27.13-.45.14-.18,0-.33-.05-.45-.14-.12-.08-.21-.18-.27-.29-.02-.04-.03-.07-.04-.1-.01-.03-.02-.08-.03-.13-.02-.09-.02-.28-.02-.54Zm.34,0c0,.23,0,.39.03.47.01.08.04.15.09.2.04.05.08.09.14.12.06.04.13.05.21.05s.15-.02.21-.05c.06-.03.1-.07.14-.12.04-.05.08-.12.09-.2.02-.08.02-.24.02-.47s0-.39-.02-.47c-.02-.08-.05-.15-.09-.2-.03-.05-.08-.09-.14-.12-.06-.03-.13-.05-.21-.05-.08,0-.15.02-.21.05-.06.03-.11.07-.14.12-.04.05-.07.12-.09.2-.02.08-.03.24-.03.47Z" fill="#010101"/></g><g isolation="isolate"><path d="m108.19,55.58c0-.27,0-.46.02-.55.02-.09.04-.17.08-.22.06-.11.14-.21.27-.29.12-.09.27-.13.45-.13.18,0,.33.05.45.13.12.08.21.18.26.29.04.06.07.13.08.22.01.09.02.28.02.55s0,.45-.02.54c-.01.09-.04.17-.08.23-.05.11-.14.2-.26.29-.12.09-.27.13-.45.14-.18,0-.33-.05-.45-.14-.12-.08-.21-.18-.27-.29-.02-.04-.03-.07-.04-.1-.01-.03-.02-.08-.03-.13-.02-.09-.02-.28-.02-.54Zm.34,0c0,.23,0,.39.03.47.01.08.04.15.09.2.04.05.08.09.14.12.06.04.13.05.21.05s.15-.02.21-.05c.06-.03.1-.07.14-.12.04-.05.08-.12.09-.2.02-.08.02-.24.02-.47s0-.39-.02-.47c-.02-.08-.05-.15-.09-.2-.03-.05-.08-.09-.14-.12-.06-.03-.13-.05-.21-.05-.08,0-.15.02-.21.05-.06.03-.11.07-.14.12-.04.05-.07.12-.09.2-.02.08-.03.24-.03.47Z" fill="#010101"/><path d="m111.53,55.73h-.9v1.03h-.34v-2.35h.34v1.01h.9v-1.01h.34v2.35h-.34v-1.03Z" fill="#010101"/></g><g isolation="isolate"><path d="m89.2,59.21c0-.27,0-.46.02-.55.02-.09.04-.17.08-.22.06-.11.14-.21.27-.29.12-.09.27-.13.45-.13.18,0,.33.05.45.13.12.08.21.18.26.29.04.06.07.13.08.22.01.09.02.28.02.55s0,.45-.02.54c-.01.09-.04.17-.08.23-.05.11-.14.2-.26.29-.12.09-.27.13-.45.14-.18,0-.33-.05-.45-.14-.12-.08-.21-.18-.27-.29-.02-.04-.03-.07-.04-.1-.01-.03-.02-.08-.03-.13-.02-.09-.02-.28-.02-.54Zm.34,0c0,.23,0,.39.03.47.01.08.04.15.09.2.04.05.08.09.14.12.06.04.13.05.21.05s.15-.02.21-.05c.06-.03.1-.07.14-.12.04-.05.08-.12.09-.2.02-.08.02-.24.02-.47s0-.39-.02-.47c-.02-.08-.05-.15-.09-.2-.03-.05-.08-.09-.14-.12-.06-.03-.13-.05-.21-.05-.08,0-.15.02-.21.05-.06.03-.11.07-.14.12-.04.05-.07.12-.09.2-.02.08-.03.24-.03.47Z" fill="#010101"/></g><g isolation="isolate"><path d="m95.88,68.96h.33l1.03,1.67h0v-1.67h.34v2.35h-.33l-1.03-1.67h0v1.67h-.34v-2.35Z" fill="#010101"/><path d="m99.39,70.29h-.9v1.03h-.34v-2.35h.34v1.01h.9v-1.01h.34v2.35h-.34v-1.03Z" fill="#010101"/></g><g isolation="isolate"><path d="m127.19,66.51c0-.27,0-.46.02-.55.02-.09.04-.17.08-.22.06-.11.14-.21.27-.29.12-.09.27-.13.45-.13.18,0,.33.05.45.13.12.08.21.18.26.29.04.06.07.13.08.22.01.09.02.28.02.55s0,.45-.02.54c-.01.09-.04.17-.08.23-.05.11-.14.2-.26.29-.12.09-.27.13-.45.14-.18,0-.33-.05-.45-.14-.12-.08-.21-.18-.27-.29-.02-.04-.03-.07-.04-.1-.01-.03-.02-.08-.03-.13-.02-.09-.02-.28-.02-.54Zm.34,0c0,.23,0,.39.03.47.01.08.04.15.09.2.04.05.08.09.14.12.06.04.13.05.21.05s.15-.02.21-.05c.06-.03.1-.07.14-.12.04-.05.08-.12.09-.2.02-.08.02-.24.02-.47s0-.39-.02-.47c-.02-.08-.05-.15-.09-.2-.03-.05-.08-.09-.14-.12-.06-.03-.13-.05-.21-.05-.08,0-.15.02-.21.05-.06.03-.11.07-.14.12-.04.05-.07.12-.09.2-.02.08-.03.24-.03.47Z" fill="#010101"/><path d="m130.53,66.66h-.9v1.03h-.34v-2.35h.34v1.01h.9v-1.01h.34v2.35h-.34v-1.03Z" fill="#010101"/></g><g isolation="isolate"><path d="m120.86,77.44c0-.27,0-.46.02-.55.02-.09.04-.17.08-.22.06-.11.14-.21.27-.29.12-.09.27-.13.45-.13.18,0,.33.05.45.13.12.08.21.18.26.29.04.06.07.13.08.22.01.09.02.28.02.55s0,.45-.02.54c-.01.09-.04.17-.08.23-.05.11-.14.2-.26.29-.12.09-.27.13-.45.14-.18,0-.33-.05-.45-.14-.12-.08-.21-.18-.27-.29-.02-.04-.03-.07-.04-.1-.01-.03-.02-.08-.03-.13-.02-.09-.02-.28-.02-.54Zm.34,0c0,.23,0,.39.03.47.01.08.04.15.09.2.04.05.08.09.14.12.06.04.13.05.21.05s.15-.02.21-.05c.06-.03.1-.07.14-.12.04-.05.08-.12.09-.2.02-.08.02-.24.02-.47s0-.39-.02-.47c-.02-.08-.05-.15-.09-.2-.03-.05-.08-.09-.14-.12-.06-.03-.13-.05-.21-.05-.08,0-.15.02-.21.05-.06.03-.11.07-.14.12-.04.05-.07.12-.09.2-.02.08-.03.24-.03.47Z" fill="#010101"/></g><g isolation="isolate"><path d="m64.22,79.85h.33l1.03,1.67h0v-1.67h.34v2.35h-.33l-1.03-1.67h0v1.67h-.34v-2.35Z" fill="#010101"/><path d="m67.73,81.18h-.9v1.03h-.34v-2.35h.34v1.01h.9v-1.01h.34v2.35h-.34v-1.03Z" fill="#010101"/></g><g isolation="isolate"><path d="m45.23,76.21h.33l1.03,1.67h0v-1.67h.34v2.35h-.33l-1.03-1.67h0v1.67h-.34v-2.35Z" fill="#010101"/></g><g isolation="isolate"><path d="m30.51,70.26h-.9v1.03h-.34v-2.35h.34v1.01h.9v-1.01h.34v2.35h-.34v-1.03Z" fill="#010101"/><path d="m31.32,70.11c0-.27,0-.46.02-.55.02-.09.04-.17.08-.22.06-.11.14-.21.27-.29.12-.09.27-.13.45-.13.18,0,.33.05.45.13.12.08.21.18.26.29.04.06.07.13.08.22.01.09.02.28.02.55s0,.45-.02.54c-.01.09-.04.17-.08.23-.05.11-.14.2-.26.29-.12.09-.27.13-.45.14-.18,0-.33-.05-.45-.14-.12-.08-.21-.18-.27-.29-.02-.04-.03-.07-.04-.1-.01-.03-.02-.08-.03-.13-.02-.09-.02-.28-.02-.54Zm.34,0c0,.23,0,.39.03.47.01.08.04.15.09.2.04.05.08.09.14.12.06.04.13.05.21.05s.15-.02.21-.05c.06-.03.1-.07.14-.12.04-.05.08-.12.09-.2.02-.08.02-.24.02-.47s0-.39-.02-.47c-.02-.08-.05-.15-.09-.2-.03-.05-.08-.09-.14-.12-.06-.03-.13-.05-.21-.05-.08,0-.15.02-.21.05-.06.03-.11.07-.14.12-.04.05-.07.12-.09.2-.02.08-.03.24-.03.47Z" fill="#010101"/></g><g isolation="isolate"><path d="m26.51,79.85h.33l1.03,1.67h0v-1.67h.34v2.35h-.33l-1.03-1.67h0v1.67h-.34v-2.35Z" fill="#010101"/></g><g isolation="isolate"><path d="m16.47,92.11h-.9v1.03h-.34v-2.35h.34v1.01h.9v-1.01h.34v2.35h-.34v-1.03Z" fill="#010101"/></g><g isolation="isolate"><path d="m17.44,93.56l.67-.86s.04-.07.05-.1c0-.03,0-.05,0-.08,0-.07-.02-.12-.06-.17-.04-.05-.1-.08-.18-.08-.07,0-.12.02-.17.07-.05.04-.07.11-.08.19h-.24c0-.15.05-.27.14-.36.09-.09.2-.14.33-.14.15,0,.27.05.36.15.09.09.14.21.14.36,0,.12-.03.22-.1.31l-.55.71h.65v.25h-.97v-.24Z" fill="#010101"/></g><path d="m18.98,90.78h.33l1.03,1.67h0v-1.67h.34v2.35h-.33l-1.03-1.67h0v1.67h-.34v-2.35Z" fill="#010101"/><g isolation="isolate"><path d="m32.84,90.77h.33l1.03,1.67h0v-1.67h.34v2.35h-.33l-1.03-1.67h0v1.67h-.34v-2.35Z" fill="#010101"/></g><g isolation="isolate"><path d="m45.23,90.78h.33l1.03,1.67h0v-1.67h.34v2.35h-.33l-1.03-1.67h0v1.67h-.34v-2.35Z" fill="#010101"/></g></svg>