<?xml version="1.0" encoding="UTF-8"?>
<svg id="Layer_1" data-name="Layer 1" xmlns="http://www.w3.org/2000/svg" version="1.1" viewBox="0 0 144.6 144.6">
  <defs>
    <style>
      .cls-1 {
        fill: #1d1d1b;
        stroke-width: 0px;
      }

      .cls-2 {
        fill: none;
        stroke: #000;
        stroke-miterlimit: 10;
        stroke-width: .6px;
      }
    </style>
  </defs>
  <path class="cls-1" d="M47.7,52h.3c.3,0,.6,0,.8-.3.2-.2.3-.4.3-.7s-.1-.5-.3-.7c-.2-.2-.4-.3-.7-.3-.2,0-.4,0-.6.2-.2.1-.3.3-.4.6h-1c0-.5.3-.9.6-1.3s.8-.5,1.2-.5c.6,0,1.1.2,1.5.6.3.4.5.8.5,1.4,0,.3,0,.5-.1.8-.1.2-.3.5-.6.7.3.2.5.4.6.7.1.3.2.5.2.8,0,.6-.2,1.2-.6,1.5-.4.4-.9.6-1.4.6-.5,0-.9-.1-1.2-.5-.4-.3-.6-.7-.7-1.3h1c0,.2.2.4.4.6.2.2.4.2.6.2s.5-.1.7-.3c.2-.2.3-.5.3-.8,0-.3-.1-.6-.3-.8-.2-.2-.4-.3-.7-.3h-.4v-.9h0Z"/>
  <path class="cls-1" d="M51,51c0-.6.2-1.1.6-1.5.4-.3.8-.5,1.3-.5s1,.2,1.3.5c.4.3.6.8.6,1.5v3c0,.6-.2,1.1-.6,1.5-.4.3-.8.5-1.3.5-.5,0-.9-.2-1.3-.5-.4-.3-.6-.8-.6-1.5v-3ZM53.9,51.1c0-.7-.3-1-.9-1.1-.6,0-.9.4-.9,1.1v2.9c0,.7.3,1.1.9,1.1.6,0,.9-.4.9-1.1v-2.9Z"/>
  <path class="cls-2" d="M50.5,42.2h26.5c13.2,0,24,10.8,24,24v26.5c0,5.2-4.2,9.4-9.4,9.4h-41.1c-5.2,0-9.4-4.2-9.4-9.4v-41.1c0-5.2,4.2-9.4,9.4-9.4Z"/>
  <path class="cls-1" d="M55.5,79.8l9.8-16.5h-9.7v-3h13.7v2.5l-10.1,16.6h10.1v3.2h-13.8s0-2.8,0-2.8Z"/>
  <path class="cls-1" d="M72.8,66.7h3.1v1.7h0c1-1.3,2.3-1.9,4-1.9s2.4.5,3.5,1.4c1,.9,1.6,2.3,1.6,4.1v10.5h-3.1v-9.5c0-1.1-.3-2-.9-2.5-.6-.6-1.3-.9-2.2-.9s-1.6.3-2.2.9c-.6.6-.9,1.4-.9,2.5v9.5h-3.1v-15.9h0Z"/>
  <path class="cls-1" d="M68.9,93.2s0,0,0,0c0,0,0,0,0,.1,0,0,0,.1,0,.2,0,0,0,.1-.1.2,0,0,0,.2-.1.2s0,.2-.1.2,0,.1-.1.2c0,0,0,.1,0,.1,0,0,0,0,.1,0s.1,0,.2,0c.1,0,.2,0,.3,0,0,0,.1,0,.2.1s.1.1.1.2,0,.1,0,.2c0,0,0,.1,0,.2,0,0,0,0,0,.1h0v.2h0c0,0,0,.1,0,.2,0,0,0,0,0,.2,0,0,0,.1,0,.2s0,.1-.2.2c0,0-.1.1-.2.2,0,0-.2,0-.3,0-.1,0-.3,0-.4,0s-.2,0-.3-.1c0,0-.1-.1-.2-.2,0,0,0-.1-.1-.2,0,0,0-.2,0-.2s0-.1,0-.2c0,0,0-.1,0-.2,0,0,0-.1,0-.2s0-.1,0-.2,0-.1,0-.2c0,0,0,0,0-.1s0-.1,0-.2c0,0,0-.2.1-.3,0,0,0-.2.1-.3.1-.2.2-.5.4-.8h.5,0ZM68.8,95.6c0,0,0-.1,0-.2,0,0,0-.1,0-.2s0-.1-.1-.2-.2,0-.3,0c0,0-.1,0-.2,0,0,0,0,0-.1,0s0,0,0,0,0,0,0,.1,0,0,0,0c0,0,0,0,0,0h0c0,.2,0,.2,0,.3s0,0,0,.1,0,0,0,.1c0,0,0,0,.1,0,0,0,.1,0,.2,0s.1,0,.2,0,0,0,.1,0,0,0,0,0c0,0,0,0,0-.1,0,0,0,0,0,0,0,0,0,0,0,0h0Z"/>
  <path class="cls-1" d="M69.7,93.2h1.7v.5h-1.2v.7c.1-.1.3-.2.5-.2s.2,0,.3,0c0,0,.2.1.2.2,0,0,.2.2.2.3,0,0,0,.1,0,.2s0,.2,0,.3c0,.2,0,.4,0,.5s0,.2-.2.3c0,0-.1.2-.3.2-.1,0-.3.1-.4.1-.2,0-.4,0-.6-.2-.2-.1-.3-.3-.3-.6h.4c0,.2.2.4.4.4.1,0,.2,0,.3,0,0,0,.1-.1.1-.2,0,0,0-.1,0-.2v-.2c0-.2,0-.3,0-.4,0,0,0,0-.1-.1,0,0-.1,0-.2,0s-.2,0-.2,0-.1.1-.2.2h-.4v-1.7h0Z"/>
  <path class="cls-1" d="M71.9,96h.4v.5h-.4v-.5Z"/>
  <path class="cls-1" d="M72.7,95.5l1-2.3h.5l-1.1,2.3h.8v-.9h.4v.9h.3v.4h-.3v.5h-.4v-.5h-1.3v-.4Z"/>
  <path class="cls-1" d="M65.7,90.7l2-3.4h-2v-.6h2.8v.5l-2.1,3.4h2.1v.7h-2.8v-.6h0Z"/>
  <path class="cls-1" d="M69.2,86.7h.6v.7h-.6v-.7ZM69.2,88h.6v3.3h-.6v-3.3Z"/>
  <path class="cls-1" d="M70.8,88h.6v.3h0c.2-.3.5-.4.8-.4s.5,0,.7.3.3.5.3.9v2.2h-.6v-2c0-.2,0-.4-.2-.5-.1-.1-.3-.2-.4-.2s-.3,0-.4.2c-.1.1-.2.3-.2.5v2h-.6s0-3.3,0-3.3Z"/>
  <path class="cls-1" d="M76.6,90.7c-.1.2-.3.3-.5.4-.2.1-.4.2-.6.2-.4,0-.7-.1-1-.4-.3-.3-.4-.7-.5-1.3,0-.6.2-1,.5-1.3.3-.3.6-.4,1-.4s.5,0,.6.2c.2.1.3.2.5.4l-.5.4c-.2-.2-.4-.3-.6-.3-.5,0-.8.3-.8,1,0,.7.3,1,.8,1,.3,0,.5-.1.6-.3l.5.4h0Z"/>
</svg>