<?xml version="1.0" encoding="UTF-8"?><svg id="Layer_1" xmlns="http://www.w3.org/2000/svg" viewBox="0 0 144.57 144.57"><path d="M107.3,58c2.1,0,3.1.8,3.1,2.3s-.6,1.8-1.5,2c1.1.2,1.8,1,1.8,2.1s-.8,2.6-3.1,2.6h-3v-9h2.7ZM105.7,61.8h1.8c1.3,0,1.8-.6,1.8-1.5s-.4-1.3-2-1.3h-1.6s0,2.8,0,2.8ZM105.7,66h1.9c1.4,0,2-.6,2-1.6s-.7-1.6-2.2-1.6h-1.7v3.2Z" fill="#010101" stroke-width="0"/><path d="M34.7,30.4c2.5,0,4.8,1,6.6,2.7,3.7,3.7,3.7,9.6,0,13.2-1.8,1.8-4.1,2.7-6.6,2.7s-4.8-1-6.6-2.7c-3.7-3.7-3.7-9.6,0-13.2,1.8-1.8,4.1-2.7,6.6-2.7M34.7,30.3c-2.4,0-4.8.9-6.7,2.8-3.7,3.7-3.7,9.7,0,13.4,1.8,1.8,4.3,2.8,6.7,2.8s4.8-.9,6.7-2.8c3.7-3.7,3.7-9.7,0-13.4-1.8-1.8-4.3-2.8-6.7-2.8h0Z" fill="#1f1f1d" stroke-width="0"/><path d="M59.4,75.7c2.5,0,4.8,1,6.6,2.7,1.8,1.8,2.7,4.1,2.7,6.6s-1,4.8-2.7,6.6c-1.8,1.8-4.1,2.7-6.6,2.7s-4.8-1-6.6-2.7c-3.7-3.7-3.7-9.6,0-13.2,1.8-1.8,4.1-2.7,6.6-2.7M59.4,75.6c-2.4,0-4.8.9-6.7,2.8-3.7,3.7-3.7,9.7,0,13.4s4.3,2.8,6.7,2.8,4.8-.9,6.7-2.8c3.7-3.7,3.7-9.7,0-13.4s-4.3-2.8-6.7-2.8h0Z" fill="#1f1f1d" stroke-width="0"/><path d="M84.1,75.7c2.5,0,4.8,1,6.6,2.7,1.8,1.8,2.7,4.1,2.7,6.6s-1,4.8-2.7,6.6c-1.8,1.8-4.1,2.7-6.6,2.7s-4.8-1-6.6-2.7c-1.8-1.8-2.7-4.1-2.7-6.6s1-4.8,2.7-6.6c1.8-1.8,4.1-2.7,6.6-2.7M84.1,75.7c-2.4,0-4.8.9-6.7,2.8-3.7,3.7-3.7,9.7,0,13.4s4.3,2.8,6.7,2.8,4.8-.9,6.7-2.8c3.7-3.7,3.7-9.7,0-13.4s-4.3-2.8-6.7-2.8h0Z" fill="#1f1f1d" stroke-width="0"/><path d="M108.8,75.7c2.5,0,4.8,1,6.6,2.7,1.8,1.8,2.7,4.1,2.7,6.6s-1,4.8-2.7,6.6c-1.8,1.8-4.1,2.7-6.6,2.7s-4.8-1-6.6-2.7c-1.8-1.8-2.7-4.1-2.7-6.6s1-4.8,2.7-6.6c1.8-1.8,4.1-2.7,6.6-2.7M108.8,75.7c-2.4,0-4.8.9-6.7,2.8-3.7,3.7-3.7,9.7,0,13.4s4.3,2.8,6.7,2.8,4.8-.9,6.7-2.8c3.7-3.7,3.7-9.7,0-13.4s-4.3-2.8-6.7-2.8h0Z" fill="#1f1f1d" stroke-width="0"/><path d="M108.8,98.4c2.5,0,4.8,1,6.6,2.7,3.7,3.7,3.7,9.6,0,13.2s-4.1,2.7-6.6,2.7-4.8-1-6.6-2.7c-3.7-3.7-3.7-9.6,0-13.2s4.1-2.7,6.6-2.7M108.8,98.3c-2.4,0-4.8.9-6.7,2.8-3.7,3.7-3.7,9.7,0,13.4s4.3,2.8,6.7,2.8,4.8-.9,6.7-2.8c3.7-3.7,3.7-9.7,0-13.4-1.8-1.8-4.3-2.8-6.7-2.8h0Z" fill="#1f1f1d" stroke-width="0"/><path d="M59.4,30.4c2.5,0,4.8,1,6.6,2.7,3.7,3.7,3.7,9.6,0,13.2s-4.1,2.7-6.6,2.7-4.8-1-6.6-2.7c-3.7-3.7-3.7-9.6,0-13.2,1.8-1.8,4.1-2.7,6.6-2.7M59.4,30.3c-2.4,0-4.8.9-6.7,2.8-3.7,3.7-3.7,9.7,0,13.4s4.3,2.8,6.7,2.8,4.8-.9,6.7-2.8c3.7-3.7,3.7-9.7,0-13.4-1.8-1.8-4.3-2.8-6.7-2.8h0Z" fill="#1f1f1d" stroke-width="0"/><path d="M84.1,30.4c2.5,0,4.8,1,6.6,2.7,3.7,3.7,3.7,9.6,0,13.2-1.8,1.8-4.1,2.7-6.6,2.7s-4.8-1-6.6-2.7c-3.7-3.7-3.7-9.6,0-13.2,1.8-1.8,4.1-2.7,6.6-2.7M84.1,30.3c-2.4,0-4.8.9-6.7,2.8-3.7,3.7-3.7,9.7,0,13.4s4.3,2.8,6.7,2.8,4.8-.9,6.7-2.8c3.7-3.7,3.7-9.7,0-13.4-1.8-1.8-4.3-2.8-6.7-2.8h0Z" fill="#1f1f1d" stroke-width="0"/><path d="M108.8,30.4c2.5,0,4.8,1,6.6,2.7,3.7,3.7,3.7,9.6,0,13.2-1.8,1.8-4.1,2.7-6.6,2.7s-4.8-1-6.6-2.7c-3.7-3.7-3.7-9.6,0-13.2,1.8-1.8,4.1-2.7,6.6-2.7M108.8,30.3c-2.4,0-4.8.9-6.7,2.8-3.7,3.7-3.7,9.7,0,13.4s4.3,2.8,6.7,2.8,4.8-.9,6.7-2.8c3.7-3.7,3.7-9.7,0-13.4-1.8-1.8-4.3-2.8-6.7-2.8h0Z" fill="#1f1f1d" stroke-width="0"/><path d="M34.7,53.1c2.5,0,4.8,1,6.6,2.7,1.8,1.8,2.7,4.1,2.7,6.6s-1,4.8-2.7,6.6c-1.8,1.8-4.1,2.7-6.6,2.7s-4.8-1-6.6-2.7c-1.8-1.8-2.7-4.1-2.7-6.6s1-4.8,2.7-6.6c1.8-1.8,4.1-2.7,6.6-2.7M34.7,53c-2.4,0-4.8.9-6.7,2.8-3.7,3.7-3.7,9.7,0,13.4s4.3,2.8,6.7,2.8,4.8-.9,6.7-2.8c3.7-3.7,3.7-9.7,0-13.4s-4.3-2.8-6.7-2.8h0Z" fill="#1f1f1d" stroke-width="0"/><path d="M59.4,53.1c2.5,0,4.8,1,6.6,2.7,1.8,1.8,2.7,4.1,2.7,6.6s-1,4.8-2.7,6.6c-1.8,1.8-4.1,2.7-6.6,2.7s-4.8-1-6.6-2.7c-1.8-1.8-2.7-4.1-2.7-6.6s1-4.8,2.7-6.6c1.8-1.8,4.1-2.7,6.6-2.7M59.4,53c-2.4,0-4.8.9-6.7,2.8-3.7,3.7-3.7,9.7,0,13.4s4.3,2.8,6.7,2.8,4.8-.9,6.7-2.8c3.7-3.7,3.7-9.7,0-13.4s-4.3-2.8-6.7-2.8h0Z" fill="#1f1f1d" stroke-width="0"/><path d="M84.1,53.1c2.5,0,4.8,1,6.6,2.7,3.7,3.7,3.7,9.6,0,13.2s-4.1,2.7-6.6,2.7-4.8-1-6.6-2.7c-1.8-1.8-2.7-4.1-2.7-6.6s1-4.8,2.7-6.6c1.8-1.8,4.1-2.7,6.6-2.7M84.1,53c-2.4,0-4.8.9-6.7,2.8-3.7,3.7-3.7,9.7,0,13.4s4.3,2.8,6.7,2.8,4.8-.9,6.7-2.8c3.7-3.7,3.7-9.7,0-13.4s-4.3-2.8-6.7-2.8h0Z" fill="#1f1f1d" stroke-width="0"/><path d="M108.8,53.1c2.5,0,4.8,1,6.6,2.7,3.7,3.7,3.7,9.6,0,13.2s-4.1,2.7-6.6,2.7-4.8-1-6.6-2.7c-3.7-3.7-3.7-9.6,0-13.2,1.8-1.8,4.1-2.7,6.6-2.7M108.8,53c-2.4,0-4.8.9-6.7,2.8-3.7,3.7-3.7,9.7,0,13.4s4.3,2.8,6.7,2.8,4.8-.9,6.7-2.8c3.7-3.7,3.7-9.7,0-13.4s-4.3-2.8-6.7-2.8h0Z" fill="#1f1f1d" stroke-width="0"/><path d="M34.7,75.7c2.5,0,4.8,1,6.6,2.7,3.7,3.7,3.7,9.6,0,13.2-1.8,1.8-4.1,2.7-6.6,2.7s-4.8-1-6.6-2.7c-3.7-3.7-3.7-9.6,0-13.2,1.8-1.8,4.1-2.7,6.6-2.7M34.7,75.7c-2.4,0-4.8.9-6.7,2.8-3.7,3.7-3.7,9.7,0,13.4,1.8,1.8,4.3,2.8,6.7,2.8s4.8-.9,6.7-2.8c3.7-3.7,3.7-9.7,0-13.4s-4.3-2.8-6.7-2.8h0Z" fill="#1f1f1d" stroke-width="0"/><path d="M31.1,44.1l3.1-9h1l3.1,9h-1.2l-.7-2.1h-3.5l-.7,2.1h-1.2.1ZM33.3,41h2.8l-1.4-4.2s-1.4,4.2-1.4,4.2Z" fill="#010101" stroke-width="0"/><path d="M57.9,35.1c2.1,0,3.1.8,3.1,2.3s-.6,1.8-1.5,2c1.1.2,1.8,1,1.8,2.1s-.8,2.6-3.1,2.6h-3v-9s2.7,0,2.7,0ZM56.3,38.9h1.8c1.3,0,1.8-.6,1.8-1.5s-.4-1.3-2-1.3h-1.6v2.8ZM56.3,43h1.9c1.4,0,2-.6,2-1.6s-.7-1.6-2.2-1.6h-1.7v3.2Z" fill="#010101" stroke-width="0"/><path d="M82.8,35.1c2.1,0,3.1.8,3.1,2.3s-.6,1.8-1.5,2c1.1.2,1.8,1,1.8,2.1s-.8,2.6-3.1,2.6h-3v-9s2.7,0,2.7,0ZM81.2,38.9h1.8c1.3,0,1.8-.6,1.8-1.5s-.4-1.3-2-1.3h-1.6s0,2.8,0,2.8ZM81.2,43h1.9c1.4,0,2-.6,2-1.6s-.7-1.6-2.2-1.6h-1.7v3.2Z" fill="#010101" stroke-width="0"/><path d="M107.3,35.1c2.1,0,3.1.8,3.1,2.3s-.6,1.8-1.5,2c1.1.2,1.8,1,1.8,2.1s-.8,2.6-3.1,2.6h-3v-9s2.7,0,2.7,0ZM105.7,38.9h1.8c1.3,0,1.8-.6,1.8-1.5s-.4-1.3-2-1.3h-1.6s0,2.8,0,2.8ZM105.7,43h1.9c1.4,0,2-.6,2-1.6s-.7-1.6-2.2-1.6h-1.7v3.2Z" fill="#010101" stroke-width="0"/><path d="M33.1,58c2.1,0,3.1.8,3.1,2.3s-.6,1.8-1.5,2c1.1.2,1.8,1,1.8,2.1s-.8,2.6-3.1,2.6h-3v-9h2.7ZM31.4,61.8h1.8c1.3,0,1.8-.6,1.8-1.5s-.4-1.3-2-1.3h-1.6v2.8ZM31.4,66h1.9c1.4,0,2-.6,2-1.6s-.7-1.6-2.2-1.6h-1.7v3.2Z" fill="#010101" stroke-width="0"/><path d="M57.9,58c2.1,0,3.1.8,3.1,2.3s-.6,1.8-1.5,2c1.1.2,1.8,1,1.8,2.1s-.8,2.6-3.1,2.6h-3v-9h2.7ZM56.3,61.8h1.8c1.3,0,1.8-.6,1.8-1.5s-.4-1.3-2-1.3h-1.6v2.8ZM56.3,66h1.9c1.4,0,2-.6,2-1.6s-.7-1.6-2.2-1.6h-1.7v3.2Z" fill="#010101" stroke-width="0"/><path d="M82.8,58c2.1,0,3.1.8,3.1,2.3s-.6,1.8-1.5,2c1.1.2,1.8,1,1.8,2.1s-.8,2.6-3.1,2.6h-3v-9h2.7ZM81.2,61.8h1.8c1.3,0,1.8-.6,1.8-1.5s-.4-1.3-2-1.3h-1.6s0,2.8,0,2.8ZM81.2,66h1.9c1.4,0,2-.6,2-1.6s-.7-1.6-2.2-1.6h-1.7v3.2Z" fill="#010101" stroke-width="0"/><path d="M32.2,80.7c2.1,0,3.1.8,3.1,2.3s-.6,1.8-1.5,2c1.1.2,1.8,1,1.8,2.1s-.8,2.6-3.1,2.6h-3v-9h2.7ZM30.6,84.5h1.8c1.3,0,1.8-.6,1.8-1.5s-.4-1.3-2-1.3h-1.6v2.8ZM30.6,88.7h1.9c1.4,0,2-.6,2-1.6s-.7-1.6-2.2-1.6h-1.7v3.2Z" fill="#010101" stroke-width="0"/><path d="M61.4,83.5c-.3-1.4-1-1.9-2.1-1.9s-2.1.9-2.1,3.1v1c0,2.2.8,3.1,2.1,3.1s1.8-.6,2.1-1.9h1.1c-.3,2-1.5,2.9-3.2,2.9s-3.2-1.2-3.2-4.1v-1c0-2.9,1.3-4.1,3.2-4.1s2.9.9,3.2,2.9h-1.1Z" fill="#010101" stroke-width="0"/><path d="M81.4,89.7v-9h2.9c2,0,3.2,1.1,3.2,4v.9c0,2.9-1.3,4-3.2,4h-2.9v.1ZM86.4,85.7v-.9c0-2.2-.8-3-2.1-3h-1.7v6.9h1.7c1.4,0,2.1-.8,2.1-3Z" fill="#010101" stroke-width="0"/><path d="M111.4,80.7v1h-4.3v2.8h3.9v1h-3.9v3.1h4.3v1h-5.4v-9h5.4v.1Z" fill="#010101" stroke-width="0"/><path d="M111.8,112.5l-3-4.5-1.6,2v2.4h-1.1v-9h1.1v4.8l3.9-4.8h1.4l-3,3.6,3.6,5.4h-1.3v.1Z" fill="#010101" stroke-width="0"/><path d="M64,44.1h-.4v-3.1l-.5.4v-.5l.5-.4h.4v3.6Z" fill="#010101" stroke-width="0"/><path d="M89.3,44.1h-2.1v-.4l1.3-1.5c.2-.3.4-.5.4-.8s-.3-.6-.6-.6-.6.2-.6.6h-.4c0-.6.5-1,1-1s1,.4,1,1-.3.8-.5,1l-1,1.2h1.5v.5Z" fill="#010101" stroke-width="0"/><path d="M112.6,42h.2c.5,0,.7-.2.7-.6s-.2-.5-.6-.5-.6.2-.6.5h-.4c0-.6.5-.9,1-.9s1,.4,1,.9-.2.7-.5.8c.3.1.6.4.6.9s-.4,1-1,1-1.1-.4-1.1-.9h.4c0,.3.2.5.7.5s.6-.3.6-.6-.2-.7-.7-.7h-.2v-.4h-.1Z" fill="#010101" stroke-width="0"/><path d="M63.5,64.6h.3c.6,0,.9.4.9,1s-.4,1.1-1,1.1-1-.4-1-1,.1-.6.2-.8l.7-1.7h.5l-.7,1.6.1-.2ZM63.7,66.3c.3,0,.6-.3.6-.7s-.2-.7-.6-.7-.6.3-.6.7.2.7.6.7Z" fill="#010101" stroke-width="0"/><path d="M38.1,64.9h-.4v-1.9h1.8v.4h-1.4v.9c.1-.1.3-.2.6-.2.7,0,1,.5,1,1.3s-.4,1.2-1,1.2-1-.4-1-.9h.4c0,.3.3.5.6.5s.6-.2.6-.7-.2-.9-.6-.9-.4.1-.5.3h-.1Z" fill="#010101" stroke-width="0"/><path d="M37.2,89.5h-.4v-3.1l-.5.4v-.5l.5-.4h.4v3.6Z" fill="#010101" stroke-width="0"/><path d="M40.5,89.5h-2.1v-.4l1.3-1.5c.2-.3.4-.5.4-.8s-.3-.6-.6-.6-.6.2-.6.6h-.4c0-.6.5-1,1-1s1,.4,1,1-.3.8-.5,1l-1,1.2h1.5v.5Z" fill="#010101" stroke-width="0"/><path d="M87.3,64.1v-1h2v.4l-1.1,3.2h-.5l1.1-3.2h-1.1v.6h-.4Z" fill="#010101" stroke-width="0"/><path d="M113.2,65.1h-.3c-.6,0-.9-.4-.9-1s.4-1.1,1-1.1,1,.4,1,1-.1.6-.2.8l-.7,1.7h-.5l.7-1.6-.1.2ZM113,63.4c-.3,0-.6.3-.6.7s.2.7.6.7.6-.3.6-.7-.2-.7-.6-.7Z" fill="#010101" stroke-width="0"/></svg>