<?xml version="1.0" encoding="UTF-8"?><svg id="Layer_1" xmlns="http://www.w3.org/2000/svg" viewBox="0 0 144.57 144.57"><path d="m38.01,24.87h44.15c22.08,0,40.01,17.93,40.01,40.01v44.15c0,8.62-7,15.61-15.61,15.61H38.01c-8.62,0-15.61-7-15.61-15.61V40.49c0-8.62,7-15.61,15.61-15.61Z" fill="none" stroke="#000" stroke-miterlimit="10"/><path d="m72.91,81.68c-.79,3.44-2.3,6.09-4.52,7.94-2.29,1.83-5,2.75-8.13,2.75-2.83-.07-5.19-.78-7.08-2.14-1.93-1.31-3.32-2.82-4.2-4.54-.26-.56-.5-1.1-.72-1.61-.2-.53-.36-1.19-.49-1.99-.25-1.5-.37-4.37-.37-8.62s.12-7.21.37-8.67c.26-1.46.67-2.64,1.21-3.54.87-1.72,2.27-3.25,4.2-4.59,1.89-1.36,4.25-2.06,7.09-2.09,3.47.03,6.3,1.09,8.49,3.18,2.19,2.1,3.57,4.71,4.15,7.81h-5.79c-.45-1.5-1.25-2.78-2.42-3.83-1.22-1-2.7-1.52-4.45-1.56-1.29.03-2.39.3-3.31.79-.94.51-1.7,1.15-2.27,1.92-.71.8-1.18,1.83-1.41,3.09-.26,1.33-.4,3.82-.4,7.48s.13,6.14.4,7.43c.23,1.29.7,2.34,1.41,3.14.58.77,1.34,1.39,2.28,1.87.92.56,2.03.84,3.32.84,3.07,0,5.36-1.69,6.88-5.08h5.78Z" fill="#1d1d1b"/><path d="m90.67,89.72h-.1c-.48.9-1.22,1.56-2.22,1.99-.99.44-2.35.66-4.1.66-2.86-.03-5.07-.82-6.61-2.35-1.63-1.5-2.44-3.41-2.44-5.73s.71-4.07,2.12-5.53c1.41-1.5,3.49-2.26,6.22-2.29h7.13v-2.79c.03-2.34-1.72-3.47-5.26-3.41-1.28,0-2.3.14-3.04.41-.77.32-1.38.87-1.83,1.64l-4.05-3.19c1.96-2.64,4.84-3.92,8.66-3.85,3.22-.03,5.8.6,7.72,1.89,1.92,1.33,2.9,3.6,2.94,6.83v18.07h-5.14v-2.34Zm0-8.87h-6.18c-3,.07-4.49,1.13-4.45,3.19,0,.9.39,1.67,1.16,2.3.74.7,1.97,1.05,3.69,1.05,2.16.03,3.68-.23,4.58-.79.81-.56,1.21-1.84,1.21-3.83v-1.91Z" fill="#1d1d1b"/><path d="m32.51,46.28l4.36-5.63c.17-.23.28-.44.34-.63.04-.18.06-.36.06-.52,0-.43-.13-.81-.39-1.13-.27-.32-.65-.49-1.15-.5-.44,0-.8.15-1.1.43-.3.29-.48.7-.54,1.23h-1.59c.04-.96.35-1.75.93-2.37.59-.61,1.31-.92,2.17-.93.96.01,1.74.33,2.33.95.61.62.92,1.4.93,2.34,0,.76-.22,1.43-.67,2.02l-3.59,4.64h4.26v1.64h-6.36v-1.55Z" fill="#1d1d1b"/><path d="m40.36,39.53c.01-1.06.34-1.88.99-2.45.61-.57,1.33-.85,2.17-.85s1.6.28,2.21.85c.62.57.94,1.39.96,2.45v5.07c-.02,1.06-.34,1.87-.96,2.45-.61.57-1.34.86-2.21.87-.84-.01-1.57-.3-2.17-.87-.65-.57-.98-1.39-.99-2.44v-5.08Zm4.73.1c-.03-1.15-.56-1.74-1.57-1.76-1.02.02-1.55.61-1.57,1.76v4.89c.02,1.16.54,1.75,1.57,1.76,1.02-.01,1.54-.6,1.57-1.76v-4.89Z" fill="#1d1d1b"/><path d="m62.8,113.56l1.66-3.67h.79l-1.67,3.67h1.29v-1.47h.71v1.47h.4v.69h-.4v.76h-.71v-.76h-2.07v-.69Z" fill="#1d1d1b"/><path d="m66.43,111.32c0-.47.15-.84.44-1.09.27-.25.59-.38.97-.38s.71.13.98.38c.27.26.42.62.43,1.09v2.26c0,.47-.15.83-.43,1.09-.27.25-.6.38-.98.39-.37,0-.7-.13-.97-.39-.29-.25-.43-.62-.44-1.09v-2.26Zm2.11.05c-.01-.51-.25-.78-.7-.78-.46,0-.69.27-.7.78v2.17c0,.52.24.78.7.78.45,0,.69-.27.7-.78v-2.17Z" fill="#1d1d1b"/><path d="m70.1,114.28h.71v.73h-.71v-.73Z" fill="#1d1d1b"/><path d="m71.6,111.32c0-.47.15-.84.44-1.09.27-.25.59-.38.97-.38s.71.13.98.38c.27.26.42.62.43,1.09v2.26c0,.47-.15.83-.43,1.09-.27.25-.6.38-.98.39-.37,0-.7-.13-.97-.39-.29-.25-.43-.62-.44-1.09v-2.26Zm2.11.05c-.01-.51-.25-.78-.7-.78-.46,0-.69.27-.7.78v2.17c0,.52.24.78.7.78.45,0,.69-.27.7-.78v-2.17Z" fill="#1d1d1b"/><path d="m75.14,109.89h2.82v.73l-1.68,4.39h-.79l1.67-4.39h-1.31v.74h-.71v-1.47Z" fill="#1d1d1b"/><path d="m78.39,113.51c0-.49.21-.88.6-1.15-.15-.13-.27-.29-.36-.46-.1-.16-.15-.35-.15-.58,0-.43.14-.78.42-1.06.26-.28.59-.42,1-.42.42,0,.75.14,1.02.42.27.28.4.63.41,1.06,0,.22-.05.41-.14.58-.1.17-.22.33-.37.46.4.27.6.66.6,1.15,0,.46-.15.83-.44,1.11-.29.28-.65.43-1.08.43-.42,0-.78-.15-1.06-.43-.3-.28-.45-.64-.45-1.1Zm.71,0c0,.23.09.43.25.58.15.16.34.24.56.24s.42-.08.57-.24c.16-.15.24-.34.24-.58,0-.24-.08-.43-.24-.58-.15-.15-.34-.22-.57-.23-.22,0-.41.08-.56.23-.16.15-.24.34-.25.58Zm.09-2.2c0,.24.08.42.22.54.14.13.3.19.49.19s.36-.06.5-.19c.14-.12.21-.31.22-.54,0-.24-.08-.43-.22-.55-.14-.12-.31-.18-.5-.18s-.35.06-.49.18c-.14.12-.22.31-.22.55Z" fill="#1d1d1b"/><path d="m60.31,104.48c-.16.68-.45,1.2-.89,1.56-.45.36-.98.54-1.6.54-.56-.01-1.02-.15-1.39-.42-.38-.26-.65-.55-.83-.89-.05-.11-.1-.22-.14-.32-.04-.1-.07-.23-.1-.39-.05-.29-.07-.86-.07-1.69s.02-1.42.07-1.7c.05-.29.13-.52.24-.7.17-.34.45-.64.83-.9.37-.27.84-.4,1.39-.41.68,0,1.24.22,1.67.63.43.41.7.93.82,1.54h-1.14c-.09-.29-.25-.55-.48-.75-.24-.2-.53-.3-.88-.31-.25,0-.47.06-.65.16-.18.1-.33.23-.45.38-.14.16-.23.36-.28.61-.05.26-.08.75-.08,1.47s.03,1.21.08,1.46c.05.25.14.46.28.62.11.15.26.27.45.37.18.11.4.17.65.17.6,0,1.05-.33,1.35-1h1.14Z" fill="#1d1d1b"/><path d="m63.8,106.06h-.02c-.09.18-.24.31-.44.39-.19.09-.46.13-.81.13-.56,0-1-.16-1.3-.46-.32-.29-.48-.67-.48-1.13s.14-.8.42-1.09c.28-.29.69-.44,1.22-.45h1.4v-.55c0-.46-.34-.68-1.03-.67-.25,0-.45.03-.6.08-.15.06-.27.17-.36.32l-.8-.63c.38-.52.95-.77,1.7-.76.63,0,1.14.12,1.52.37.38.26.57.71.58,1.34v3.55h-1.01v-.46Zm0-1.75h-1.22c-.59.01-.88.22-.88.63,0,.18.08.33.23.45.15.14.39.21.72.21.42,0,.72-.05.9-.16.16-.11.24-.36.24-.75v-.38Z" fill="#1d1d1b"/><path d="m66.29,99.21h1.01v5.97c0,.24.13.36.38.36h.35v.98h-.45c-.37,0-.67-.09-.91-.28-.25-.19-.38-.52-.38-.97v-6.05Z" fill="#1d1d1b"/><path d="m72.64,105.68c-.22.26-.48.47-.78.63-.3.17-.64.26-1.03.26-.59,0-1.12-.21-1.57-.63-.47-.42-.7-1.09-.72-2.03.01-.95.25-1.63.72-2.06.45-.42.97-.62,1.57-.62.39,0,.74.09,1.03.25.3.16.56.38.78.66l-.75.69c-.26-.35-.6-.53-1.02-.55-.86-.01-1.3.53-1.31,1.63.01,1.09.45,1.63,1.31,1.61.43,0,.77-.19,1.02-.54l.75.69Z" fill="#1d1d1b"/><path d="m73.52,99.21h1.01v1.04h-1.01v-1.04Zm0,2.11h1.01v5.2h-1.01v-5.2Z" fill="#1d1d1b"/><path d="m75.95,101.32h1.01v3.1c0,.35.1.63.29.82.19.2.43.3.72.3s.53-.1.71-.3c.19-.2.28-.47.28-.82v-3.1h1.01v5.2h-1.01v-.56h-.02c-.33.41-.77.62-1.31.62-.42,0-.79-.16-1.13-.47-.37-.3-.55-.74-.56-1.33v-3.46Z" fill="#1d1d1b"/><path d="m81.43,101.32h1.01v.55h.02c.34-.41.8-.62,1.36-.62.36,0,.65.07.87.19.22.13.42.3.6.5.41-.46.95-.69,1.64-.68.43,0,.83.15,1.18.46.35.31.54.76.55,1.35v3.46h-1.01v-3.1c0-.36-.1-.64-.29-.83-.19-.19-.44-.29-.75-.29s-.56.1-.76.29c-.2.19-.3.47-.3.83v3.1h-1.01v-3.1c0-.36-.1-.64-.29-.83-.2-.19-.45-.29-.75-.29s-.56.1-.75.29c-.2.19-.31.47-.31.83v3.1h-1.01v-5.2Z" fill="#1d1d1b"/></svg>