<?xml version="1.0" encoding="UTF-8"?><svg id="Layer_1" xmlns="http://www.w3.org/2000/svg" viewBox="0 0 144.57 144.57"><path d="M89.08,103.4c.03-1.6.07-3.2.07-4.81,0-.56.16-.81.83-.58v2.24h2.93v-2.18c.65-.3.86-.11.86.52,0,1.6.04,3.21.06,4.81h-.91v-2.38h-2.93v2.38h-.91Z" fill="#000" stroke-width="0"/><path d="M53.24,103.4c.03-1.6.07-3.2.07-4.81,0-.56.16-.81.83-.58v2.24h2.93v-2.18c.65-.3.86-.11.86.52,0,1.6.04,3.21.06,4.81h-.91v-2.38h-2.93v2.38h-.91Z" fill="#000" stroke-width="0"/><path d="M17.22,85.87h.9v2.33h2.91v-2.18c.6-.26.89-.2.88.44-.01,1.58,0,3.15,0,4.72q-.82.21-.83-.67c0-.48,0-.96,0-1.52h-2.94v2.36h-.92v-5.48Z" fill="#000" stroke-width="0"/><path d="M84.51,103.4c-.94-.46-1.65-1.09-1.81-2.2-.23-1.6.49-2.84,1.86-3.2,1.5-.4,2.93.23,3.41,1.49.58,1.53,0,3.01-1.44,3.74-.07.04-.13.11-.2.17h-1.83ZM85.4,98.59c-1.23,0-1.92.73-1.92,2.04,0,1.32.73,2.12,1.96,2.12,1.25,0,1.93-.77,1.91-2.14-.02-1.31-.7-2.02-1.94-2.01Z" fill="#000" stroke-width="0"/><path d="M60.74,103.4c-.94-.46-1.65-1.09-1.81-2.2-.23-1.6.49-2.84,1.86-3.2,1.5-.4,2.93.23,3.41,1.49.58,1.53,0,3.01-1.44,3.74-.07.04-.13.11-.2.17h-1.83ZM61.62,98.59c-1.23.01-1.91.74-1.92,2.04,0,1.33.73,2.12,1.97,2.11,1.25-.01,1.93-.78,1.9-2.15-.03-1.31-.71-2.01-1.95-2Z" fill="#000" stroke-width="0"/><path d="M89.52,76.33c.26.79.49,1.51.76,2.33-1.68.34-3.26.82-4.86.93-2.15.15-3.28,1-3.79,3.21-.65,2.82-1.75,5.54-2.67,8.37h-7.76c-1.19,0-2.38-.03-3.56.01-.53.02-.72-.18-.88-.67-1-3.15-2.06-6.28-3.05-9.43-.2-.64-.47-.98-1.19-1.14-3.29-.74-6.56-1.53-9.82-2.36-.61-.16-1.02-.07-1.47.35-1.11,1.04-2.25,2.05-3.39,3.05-.19.17-.45.25-.67.38-.05-.07-.1-.15-.16-.22.17-.19.32-.39.5-.56,1.76-1.59,3.54-3.16,5.29-4.77.42-.39.76-.44,1.28-.21,2.87,1.25,5.76,2.44,8.62,3.68.61.26,1.06.28,1.63-.17,1.46-1.14,2.99-2.2,4.5-3.28.22-.16.47-.27.71-.41.07.08.13.17.2.25-.21.2-.4.44-.63.61-1.52,1.12-3.04,2.23-4.58,3.32-.44.31-.56.58-.38,1.12,1.03,3.08,2.02,6.17,3.01,9.25.15.45.33.69.88.68,3.29-.03,6.58-.03,9.87,0,.57,0,.78-.23.94-.72.97-3.06,1.95-6.12,2.98-9.17.2-.58.07-.87-.4-1.2-1.52-1.07-3.01-2.17-4.51-3.26-.24-.18-.45-.41-.67-.61.06-.08.11-.17.17-.25.23.12.49.21.7.36,1.53,1.1,3.08,2.17,4.57,3.33.55.42.96.41,1.54.13,2.07-1,4.17-1.95,6.32-2.95Z" fill="#000" stroke-width="0"/><path d="M94.1,72.15c0-.21-.04-.42,0-.61.41-1.99.85-3.97,1.25-5.97.11-.54.36-.77.91-.94,3.19-.99,6.36-2.05,9.54-3.07.5-.16.78-.38.89-.97.54-2.77,1.19-5.51,1.74-8.28.08-.4-.07-.96-.32-1.29-1.26-1.64-2.59-3.23-3.89-4.84-.18-.22-.34-.46-.37-.82,1.05.63,1.69,1.66,2.45,2.56.79.92,1.54,1.88,2.23,2.74.39-.34.75-.66,1.17-1.02-1.33-1.78-2.97-3.55-4.37-5.49.13-.11.26-.23.39-.34.23.3.45.6.68.89,1.26,1.56,2.51,3.14,3.82,4.66.25.29.74.52,1.13.53,1.86.05,3.72.02,5.58.03.28,0,.56.11.84.18-.01.09-.03.18-.04.27h-8.31c-.46,2.12-.9,4.15-1.34,6.18-.28,1.3-.52,2.62-.84,3.91-.16.66-.06,1.11.49,1.58,2.47,2.17,4.89,4.39,7.36,6.57.42.37.56.71.44,1.25-.74,3.38-1.45,6.76-2.16,10.15-.11.52-.33.81-.89.98-3.36,1.05-6.7,2.16-10.06,3.22-.26.08-.67.05-.86-.12-1.74-1.52-3.46-3.08-5.17-4.63-.15-.14-.24-.33-.36-.5.07-.07.14-.15.21-.22.24.18.5.33.72.53,1.5,1.34,3,2.67,4.47,4.04.41.38.77.46,1.31.28,3.11-1.03,6.24-2.01,9.35-3.06.32-.11.67-.51.75-.84.74-3.25,1.43-6.52,2.1-9.79.05-.27-.03-.69-.22-.86-2.54-2.33-5.09-4.63-7.67-6.91-.19-.17-.63-.23-.89-.14-3.21,1.01-6.42,2.04-9.61,3.12-.29.1-.61.49-.68.81-.42,1.77-.76,3.56-1.15,5.34-.07.32-.2.63-.3.95-.1-.02-.21-.04-.31-.06Z" fill="#000" stroke-width="0"/><path d="M132.02,55.52h-3.14c.44-.63.74-1.13,1.12-1.56.36-.41.89-.69,1.16-1.14.17-.28,0-.76-.03-1.15-.41.05-.98-.04-1.2.2-.34.37-1.16.49-.93,1.3,0,.02-.42.17-.76.3v-2.46h-2.94v2.31h-.84c0-1.66-.02-3.29.02-4.93,0-.2.35-.39.54-.58.07.05.15.11.22.16v2.24h2.94v-2.24h.86v3.6c.53-.2.99-.53,1.44-.51.48.02,1.06.27,1.37.62.44.5.15,1.11-.28,1.55-.54.56-1.14,1.07-1.85,1.73.9.07,1.63.13,2.35.19-.02.13-.05.25-.07.38Z" fill="#000" stroke-width="0"/><path d="M122.89,53.53c-.36-.27-.81-.46-1.05-.81-.82-1.17-1.57-2.4-2.52-3.54,0,1.14.02,2.28-.02,3.42,0,.25-.24.5-.36.75-.11-.23-.32-.46-.33-.7-.03-1.55-.02-3.09-.02-4.64.61-.25.98-.11,1.3.43.77,1.27,1.6,2.5,2.56,3.99,0-1.46-.02-2.64.01-3.82,0-.24.2-.48.31-.71.14.24.38.48.39.73.04,1.55.02,3.09.02,4.64-.1.09-.2.18-.31.26Z" fill="#000" stroke-width="0"/><path d="M91.45,73.85c.34.24.78.41,1.01.74.85,1.21,1.63,2.48,2.58,3.95,0-1.46-.02-2.64.02-3.83,0-.24.21-.47.33-.7.13.22.37.43.37.66.03,1.58.02,3.15.02,4.69-.71.29-1.07.02-1.4-.52-.73-1.22-1.53-2.39-2.48-3.56,0,1,0,2,0,3,0,.24.05.5-.02.72-.05.18-.25.31-.38.46-.11-.15-.3-.29-.31-.44-.02-1.64-.01-3.28-.01-4.91.09-.09.18-.17.27-.26Z" fill="#000" stroke-width="0"/><path d="M104.61,41.44c.01,1.74-1.03,2.8-2.74,2.8-1.7,0-2.72-1-2.74-2.69-.01-1.77.98-2.78,2.73-2.78,1.72,0,2.74.98,2.75,2.68ZM101.88,39.43c-1.24,0-1.92.72-1.94,2.02-.02,1.32.72,2.13,1.94,2.13,1.25,0,1.94-.75,1.92-2.13-.01-1.32-.69-2.03-1.93-2.03Z" fill="#000" stroke-width="0"/><path d="M38.79,69.75c0,1.73-1.03,2.78-2.75,2.78-1.7,0-2.71-1.01-2.72-2.71-.01-1.76.99-2.77,2.75-2.77,1.71,0,2.72.99,2.73,2.69ZM36.01,67.73c-1.22.02-1.91.76-1.9,2.06,0,1.33.74,2.11,1.98,2.09,1.24-.02,1.92-.79,1.88-2.17-.03-1.31-.72-2-1.97-1.99Z" fill="#000" stroke-width="0"/><path d="M75.73,73.39c.01,1.74-1.03,2.8-2.74,2.8-1.7,0-2.72-1-2.74-2.69-.01-1.77.98-2.78,2.73-2.78,1.72,0,2.74.98,2.75,2.68ZM73.01,71.38c-1.25-.01-1.94.69-1.97,1.99-.03,1.32.7,2.15,1.92,2.16,1.26.01,1.95-.73,1.95-2.1,0-1.32-.67-2.04-1.9-2.05Z" fill="#000" stroke-width="0"/><path d="M25.63,75.06c0,1.73-1.04,2.78-2.76,2.77-1.69,0-2.7-1.02-2.71-2.72,0-1.76.99-2.76,2.76-2.76,1.71,0,2.72,1,2.72,2.7ZM22.9,73.02c-1.24,0-1.93.7-1.96,2-.03,1.32.71,2.14,1.93,2.15,1.26,0,1.95-.74,1.94-2.11,0-1.32-.68-2.04-1.91-2.04Z" fill="#000" stroke-width="0"/><path d="M25.67,85.87c1.7,0,2.7,1.02,2.69,2.73,0,1.72-1.06,2.76-2.79,2.75-1.68,0-2.69-1.03-2.69-2.74,0-1.75,1.01-2.74,2.78-2.73ZM25.64,86.54c-1.24,0-1.93.71-1.95,2.01-.02,1.32.72,2.14,1.93,2.14,1.26,0,1.94-.75,1.93-2.12-.01-1.32-.68-2.03-1.92-2.04Z" fill="#000" stroke-width="0"/><path d="M43.95,81.67c1.7,0,2.71,1.01,2.71,2.72,0,1.72-1.05,2.76-2.78,2.76-1.69,0-2.69-1.03-2.7-2.73,0-1.75,1-2.75,2.77-2.74ZM45.84,84.37c-.01-1.32-.69-2.03-1.92-2.03-1.26,0-1.98.77-1.95,2.1.03,1.3.74,2.04,1.94,2.05,1.26,0,1.94-.75,1.93-2.12Z" fill="#000" stroke-width="0"/><path d="M31.66,81.59v2c-.08.06-.16.11-.24.17-.2-.18-.57-.36-.58-.54-.05-1.63-.03-3.26-.03-4.99,1.03,0,1.99-.06,2.94.02.82.07,1.35.77,1.36,1.57.01.84-.55,1.54-1.39,1.65-.65.09-1.32.08-2.07.12ZM31.69,81.2c.94-.29,1.74-.48,2.45-.82.14-.07.14-.91-.07-1.14-.66-.7-1.55-.37-2.38-.4v2.36Z" fill="#000" stroke-width="0"/><path d="M111.22,79.18c-2.89.93-5.77,1.87-8.66,2.8l-.14-.43c2.85-1.05,5.75-1.93,8.66-2.83l.15.46Z" fill="#000" stroke-width="0"/><path d="M113.21,69.77c-.83.13-6.73-5.14-6.75-6.06,2.25,2.02,4.5,4.04,6.75,6.06Z" fill="#000" stroke-width="0"/><path d="M96.07,72.52c.41-1.94.82-3.89,1.24-5.83l.42.08c-.25,1.98-.73,3.91-1.2,5.84l-.46-.1Z" fill="#000" stroke-width="0"/><path d="M40.36,83.19c-1.5-.48-3-.97-4.5-1.45.71-.45,4.11.63,4.5,1.45Z" fill="#000" stroke-width="0"/><path d="M97.44,73.6c.04-.43.08-.8.11-1.17.08-.01.16-.02.24-.03.07.37.15.75.23,1.18.34.04.71.08,1.09.13.02.08.03.16.05.24-.38.09-.75.19-1.14.29-.07.35-.14.7-.21,1.06-.08,0-.15,0-.23,0-.05-.36-.1-.71-.15-1.07-.41-.09-.81-.17-1.2-.25,0-.08.02-.17.03-.25.37-.03.74-.07,1.19-.11Z" fill="#000" stroke-width="0"/><path d="M29.87,79.06c-1.18-.68-2.36-1.36-3.63-2.09.7-.34,3.36,1.1,3.63,2.09Z" fill="#000" stroke-width="0"/><path d="M30.38,83.22c-.68.6-1.35,1.2-2.03,1.81-.08-.09-.17-.18-.25-.27.47-.81,1.24-1.32,1.97-1.88.1.11.21.23.31.34Z" fill="#000" stroke-width="0"/><path d="M34.85,76.65c.23-.88.46-1.76.73-2.77.45.64.14,2.13-.44,2.83-.1-.02-.19-.04-.29-.06Z" fill="#000" stroke-width="0"/><path d="M33.99,73.58c-.24.89-.47,1.77-.71,2.66-.16-.04-.31-.08-.47-.12.23-.89.46-1.77.69-2.66.16.04.32.08.48.12Z" fill="#000" stroke-width="0"/><path d="M83.92,95.66c-.81.59-1.43,1.04-2.05,1.49-.08-.06-.16-.13-.24-.19.14-.19.23-.48.42-.57.53-.25.85-1.04,1.88-.74Z" fill="#000" stroke-width="0"/><path d="M62.41,95.24c.87-.2,2.05.64,2.18,1.58-.77-.56-1.41-1.02-2.18-1.58Z" fill="#000" stroke-width="0"/><path d="M81.92,94.03c-.43.29-.87.58-1.3.87-.08-.1-.17-.2-.25-.29.33-.28.65-.59,1.01-.83.12-.08.35-.01.53-.01,0,.09.01.18.02.27Z" fill="#000" stroke-width="0"/><path d="M64.5,93.2c.35.19.72.34,1.03.57.14.1.16.35.24.53-.07.04-.14.09-.21.13-.41-.31-.82-.62-1.24-.92.06-.1.11-.21.17-.31Z" fill="#000" stroke-width="0"/></svg>