<?xml version="1.0" encoding="UTF-8"?><svg id="Layer_1" xmlns="http://www.w3.org/2000/svg" viewBox="0 0 144.57 144.57"><path d="m33.65,38.11h.55c.55,0,.97-.16,1.27-.47.3-.3.45-.69.45-1.17-.01-.49-.17-.89-.47-1.2-.3-.3-.69-.46-1.16-.47-.34,0-.65.11-.93.34-.3.23-.49.58-.6,1.05h-1.6c.08-.85.42-1.57,1-2.15.58-.58,1.26-.87,2.06-.88,1.01.01,1.82.34,2.42,1,.57.64.86,1.4.87,2.27,0,.44-.08.87-.24,1.28-.18.41-.51.78-.99,1.1.48.32.83.69,1.05,1.14.21.44.31.9.31,1.39,0,1.08-.33,1.93-.97,2.55-.63.64-1.43.96-2.41.97-.76,0-1.43-.25-2.02-.76-.58-.5-.96-1.23-1.14-2.19h1.6c.14.38.34.7.6.93.26.25.62.37,1.05.37.47,0,.86-.17,1.18-.5.33-.31.49-.75.5-1.33-.01-.58-.18-1.04-.5-1.36-.32-.31-.73-.47-1.22-.47h-.68v-1.45Z" fill="#1d1d1b"/><path d="m38.86,41.5l3.72-8.24h1.78l-3.76,8.24h2.91v-3.31h1.59v3.31h.89v1.54h-.89v1.71h-1.59v-1.71h-4.64v-1.55Z" fill="#1d1d1b"/><path d="m37.39,21.71h44.15c22.08,0,40.01,17.93,40.01,40.01v44.15c0,8.62-7,15.61-15.61,15.61H37.39c-8.62,0-15.61-7-15.61-15.61V37.33c0-8.62,7-15.61,15.61-15.61Z" fill="none" stroke="#000" stroke-miterlimit="10"/><path d="m47.9,80.1c2.86,2.43,6.27,3.67,10.22,3.7,4.68-.07,7.05-1.79,7.11-5.18.03-2.77-1.53-4.44-4.69-5-1.45-.2-3.04-.43-4.76-.69-3.09-.53-5.45-1.71-7.06-3.54-1.66-1.89-2.49-4.18-2.49-6.88,0-3.25,1.04-5.86,3.13-7.85,2.02-1.97,4.89-2.97,8.6-3.01,4.47.1,8.36,1.38,11.66,3.84l-3.04,4.62c-2.7-1.84-5.67-2.79-8.91-2.86-1.68,0-3.08.43-4.2,1.3-1.17.9-1.77,2.24-1.8,4.03,0,1.07.4,2.04,1.21,2.91.81.88,2.1,1.5,3.87,1.84.99.17,2.34.37,4.05.59,3.37.48,5.87,1.73,7.48,3.75,1.6,1.99,2.39,4.3,2.39,6.94-.18,7.11-4.39,10.71-12.62,10.81-5.33,0-9.9-1.69-13.73-5.07l3.57-4.23Z" fill="#1d1d1b"/><path d="m80.79,77.89c0,2.12.59,3.74,1.78,4.84,1.1,1.12,2.55,1.68,4.35,1.68,2.09,0,3.96-.86,5.6-2.58l3.73,3.29c-2.61,2.88-5.69,4.31-9.22,4.28-1.35,0-2.67-.2-3.95-.61-.64-.22-1.27-.52-1.87-.89-.64-.32-1.24-.72-1.8-1.2-1.09-.99-1.97-2.36-2.64-4.13-.74-1.7-1.11-3.91-1.11-6.62s.32-4.79.96-6.52c.64-1.77,1.46-3.16,2.47-4.18,1.02-1.04,2.16-1.78,3.43-2.24,1.25-.46,2.48-.69,3.7-.69,2.93.03,5.4,1.03,7.42,2.98,2.05,1.99,3.1,4.72,3.13,8.2v4.38h-15.97Zm10.83-4.38c-.07-2.07-.6-3.63-1.61-4.68-.99-1.01-2.26-1.51-3.81-1.51s-2.82.5-3.81,1.51c-.97,1.06-1.51,2.62-1.61,4.68h10.83Z" fill="#1d1d1b"/><path d="m62.07,106.83h2.96v.77l-1.76,4.61h-.83l1.76-4.61h-1.38v.78h-.74v-1.55Z" fill="#1d1d1b"/><path d="m65.48,110.64c0-.52.22-.92.63-1.21-.16-.14-.29-.3-.38-.48-.11-.17-.16-.37-.16-.61,0-.45.15-.82.44-1.11.27-.29.62-.44,1.05-.44.44,0,.79.15,1.07.44.28.29.42.66.42,1.11,0,.23-.05.43-.14.6-.1.18-.23.34-.39.48.42.29.63.69.63,1.21,0,.48-.16.87-.46,1.16-.31.3-.69.45-1.13.45-.45,0-.82-.16-1.12-.45-.31-.29-.47-.68-.48-1.16Zm.75,0c0,.25.09.45.26.61.16.17.36.25.59.25s.44-.08.6-.25c.16-.16.25-.36.25-.61,0-.25-.09-.46-.25-.61-.16-.16-.36-.24-.6-.24-.23,0-.43.08-.59.24-.17.16-.25.36-.26.61Zm.1-2.31c0,.25.08.44.23.57.15.14.32.2.51.2s.38-.07.52-.2c.15-.13.22-.32.23-.57,0-.26-.08-.45-.23-.58-.15-.13-.32-.19-.52-.19s-.37.06-.51.19c-.15.13-.23.33-.23.58Z" fill="#1d1d1b"/><path d="m69.45,111.44h.74v.77h-.74v-.77Z" fill="#1d1d1b"/><path d="m71.55,112.21s.02-.04.06-.13.1-.21.17-.35.15-.3.24-.48c.09-.17.18-.35.26-.52.09-.17.17-.33.24-.47s.14-.25.18-.34c-.07.04-.15.07-.24.08-.09,0-.19.01-.31,0-.16,0-.3-.03-.43-.09-.12-.05-.23-.12-.32-.2-.09-.08-.16-.17-.22-.27-.06-.1-.11-.2-.14-.29-.04-.09-.06-.18-.08-.27-.02-.08-.02-.15-.02-.19,0-.01,0-.04,0-.08,0-.04,0-.08,0-.13s0-.1,0-.15c0-.05,0-.09,0-.13,0-.02.01-.06.02-.13s.04-.15.08-.25c.04-.1.09-.2.16-.31.07-.11.15-.22.26-.32.11-.1.24-.18.39-.25s.34-.12.56-.14c.22-.02.42,0,.59.04s.32.11.44.2c.12.09.22.19.31.31s.14.24.19.36c.04.12.08.24.09.35.01.11.02.21,0,.29-.01.12-.03.23-.05.32-.02.09-.04.19-.06.27-.02.09-.05.17-.08.25-.03.08-.06.17-.1.27,0,.03-.04.09-.08.18s-.1.2-.16.33c-.06.13-.14.28-.21.44-.08.16-.16.32-.24.49-.19.38-.4.81-.63,1.28h-.88Zm.17-3.89c0,.1,0,.2.01.32s.04.22.09.33c.05.1.12.19.23.26.1.07.25.11.43.12.09,0,.18,0,.25-.04s.14-.07.2-.11c.06-.05.11-.1.15-.16.04-.06.08-.12.11-.17s.05-.11.06-.16c.01-.05.02-.09.02-.12,0-.06,0-.13,0-.21,0-.08,0-.15-.02-.23-.01-.08-.04-.15-.07-.23-.03-.07-.08-.14-.14-.19-.06-.05-.13-.1-.23-.13-.09-.03-.21-.04-.34-.03-.15,0-.28.04-.38.11-.1.07-.17.14-.23.23-.06.08-.1.16-.12.24-.02.08-.03.13-.03.16Z" fill="#1d1d1b"/><path d="m74.75,106.83h2.96v.77l-1.76,4.61h-.83l1.76-4.61h-1.38v.78h-.74v-1.55Z" fill="#1d1d1b"/><path d="m79.42,107.64l-.74.56v-.82l.74-.55h.74v5.38h-.74v-4.56Z" fill="#1d1d1b"/><path d="m51.03,101.66c.59.5,1.29.76,2.11.76.96-.01,1.45-.37,1.47-1.07,0-.57-.32-.91-.97-1.03-.3-.04-.63-.09-.98-.14-.64-.11-1.12-.35-1.46-.73-.34-.39-.51-.86-.51-1.42,0-.67.21-1.21.65-1.62.42-.41,1.01-.61,1.77-.62.92.02,1.72.29,2.4.79l-.63.95c-.56-.38-1.17-.58-1.84-.59-.35,0-.63.09-.87.27-.24.19-.37.46-.37.83,0,.22.08.42.25.6.17.18.43.31.8.38.2.04.48.07.83.12.7.1,1.21.36,1.54.77.33.41.49.89.49,1.43-.04,1.47-.91,2.21-2.6,2.23-1.1,0-2.04-.35-2.83-1.04l.74-.87Z" fill="#1d1d1b"/><path d="m57.82,101.2c0,.44.12.77.37,1,.23.23.53.35.9.35.43,0,.82-.18,1.16-.53l.77.68c-.54.6-1.17.89-1.9.88-.28,0-.55-.04-.81-.13-.13-.05-.26-.11-.39-.18-.13-.07-.26-.15-.37-.25-.22-.2-.41-.49-.54-.85-.15-.35-.23-.8-.23-1.37s.07-.99.2-1.35c.13-.36.3-.65.51-.86.21-.21.45-.37.71-.46.26-.09.51-.14.76-.14.6,0,1.11.21,1.53.62.42.41.64.97.65,1.69v.9h-3.29Zm2.23-.9c-.01-.43-.12-.75-.33-.97-.2-.21-.47-.31-.79-.31s-.58.1-.79.31c-.2.22-.31.54-.33.97h2.23Z" fill="#1d1d1b"/><path d="m62.4,95.86h1.06v6.26c0,.25.13.37.4.37h.37v1.03h-.47c-.39,0-.71-.1-.96-.3-.26-.2-.4-.54-.4-1.02v-6.34Z" fill="#1d1d1b"/><path d="m65.97,101.2c0,.44.12.77.37,1,.23.23.53.35.9.35.43,0,.82-.18,1.16-.53l.77.68c-.54.6-1.17.89-1.9.88-.28,0-.55-.04-.81-.13-.13-.05-.26-.11-.39-.18-.13-.07-.26-.15-.37-.25-.22-.2-.41-.49-.54-.85-.15-.35-.23-.8-.23-1.37s.07-.99.2-1.35c.13-.36.3-.65.51-.86.21-.21.45-.37.71-.46.26-.09.51-.14.76-.14.6,0,1.11.21,1.53.62.42.41.64.97.65,1.69v.9h-3.29Zm2.23-.9c-.01-.43-.12-.75-.33-.97-.2-.21-.47-.31-.79-.31s-.58.1-.79.31c-.2.22-.31.54-.33.97h2.23Z" fill="#1d1d1b"/><path d="m70.55,98.06h1.06v.58h.02c.35-.43.81-.65,1.37-.65.44,0,.84.16,1.2.48.36.32.55.79.56,1.42v3.62h-1.06v-3.25c0-.38-.1-.67-.29-.87-.19-.2-.44-.3-.75-.3s-.56.1-.75.3c-.2.2-.3.49-.3.87v3.25h-1.06v-5.45Z" fill="#1d1d1b"/><path d="m76.36,95.86h1.06v1.09h-1.06v-1.09Zm0,2.21h1.06v5.45h-1.06v-5.45Z" fill="#1d1d1b"/><path d="m78.91,98.06h1.06v3.25c0,.37.1.66.3.86.2.21.45.31.75.31s.55-.1.75-.31c.2-.21.29-.49.29-.86v-3.25h1.06v5.45h-1.06v-.58h-.02c-.35.43-.8.65-1.37.65-.44,0-.83-.17-1.18-.49-.38-.32-.58-.78-.58-1.4v-3.63Z" fill="#1d1d1b"/><path d="m84.64,98.06h1.06v.58h.02c.36-.43.83-.65,1.42-.65.38,0,.68.07.91.19.23.14.44.31.62.52.43-.48,1-.72,1.72-.71.45,0,.87.16,1.24.48.37.32.56.79.58,1.42v3.62h-1.06v-3.25c0-.38-.1-.67-.3-.87-.2-.2-.46-.3-.79-.3s-.58.1-.79.3c-.21.2-.32.49-.32.87v3.25h-1.06v-3.25c0-.38-.1-.67-.3-.87-.21-.2-.47-.3-.79-.3s-.58.1-.79.3c-.21.2-.32.49-.32.87v3.25h-1.06v-5.45Z" fill="#1d1d1b"/></svg>