<?xml version="1.0" encoding="UTF-8"?><svg id="Layer_1" xmlns="http://www.w3.org/2000/svg" viewBox="0 0 144.57 144.57"><path d="M84.53,73.55c-.29.08-.54.15-.78.22l-.03-.06c.09-.05.18-.12.27-.15,2.33-.93,4.67-1.84,7.16-2.17,2.67-.36,5.33-.9,8.06-.73,5.15.32,9.69,2.08,13.48,5.62,2.39,2.23,4.11,4.93,5.28,7.98,1.51,3.92,2.72,7.92,3.36,12.08.3,1.94.53,3.89.47,5.87-.05,1.66-.44,3.25-1.16,4.73-.96,1.97-2.01,3.91-3.06,5.83-1.13,2.06-2.81,3.66-4.59,5.13-4.7,3.89-10.12,6.36-16,7.84-3.96.99-7.98,1.44-12.06.91-2.94-.38-5.8-1.11-8.21-2.94-1.23-.93-2.39-1.99-3.45-3.11-1.32-1.38-2.53-2.86-3.74-4.34-1.59-1.94-2.63-4.18-3.31-6.58-.88-3.08-1.43-6.21-1.37-9.43.07-3.63,1.06-7.02,2.7-10.23,2.47-4.84,6.03-8.77,10.28-12.09,1.05-.82,2.15-1.58,3.26-2.31,1.1-.72,2.26-1.36,3.45-2.07ZM104.48,106.09s.03.02.04.04c-.24.27-.48.54-.73.8-2.63,2.78-5.63,5.06-9.3,6.29-3.76,1.27-7.49,1.37-11.1-.59-2.48-1.35-4.59-3.13-6.04-5.59-.37-.63-.87-1.03-1.54-1.21-.3-.08-.42-.22-.48-.51-.52-2.43-.49-4.84.21-7.22,1.33-4.54,4.19-7.91,8.11-10.45,2.42-1.57,5.13-2.35,7.92-2.92,1.59-.32,3.14-.04,4.68.39,2.5.7,4.8,1.88,7.16,2.93.93.41,1.88.77,2.84,1.1.32.11.75.14,1.04,0,.65-.31,1.19-.77,1.39-1.54.14-.56.33-1.1.53-1.65.92-2.55.77-5.02-.6-7.38-1.08-1.84-2.64-3.17-4.47-4.23-2.6-1.49-5.45-1.91-8.38-1.96-3.14-.06-6.18.51-9.13,1.59-4.84,1.78-8.97,4.62-12.49,8.36-2.55,2.7-4.61,5.74-6.08,9.16-2.6,6.06-3.01,12.22-.64,18.42,2.38,6.2,6.63,10.8,12.54,13.81,4.06,2.07,8.39,2.91,12.91,2.13,1.84-.32,3.65-.9,5.44-1.47,3.82-1.22,7.53-2.69,10.99-4.74,3.27-1.93,6.06-4.3,7.76-7.84,2.11-4.39,2.57-8.83,1.02-13.47-.4-1.21-1.16-2.03-2.23-2.62-.2-.11-.4-.25-.62-.31-1.18-.35-2.37-.69-3.56-1.01-.75-.2-1.56-.25-2.28-.54-.79-.32-1.51-.39-2.25.01-.59.32-1.16.69-1.74,1.03-.13.08-.28.13-.43.19-.02-.03-.04-.06-.06-.1.11-.09.2-.2.32-.27.86-.48,1.73-.95,2.59-1.44.11-.06.24-.24.22-.34-.34-1.68-.96-2.51-2.68-2.77-1.13-.17-2.27-.27-3.38-.51-1.46-.31-2.93-.5-4.41-.5-4.19.02-8.08,1.16-11.69,3.27-.14.08-.28.16-.43.24.08-.16.19-.26.31-.34,1.72-1.15,3.54-2.15,5.53-2.71,1.22-.34,2.51-.47,3.77-.65,1.77-.25,3.55-.37,5.34-.05,2.12.39,4.25.76,6.37,1.13.12.02.25-.02.38-.03v-.12c-.13-.04-.27-.09-.41-.13-.78-.23-1.57-.42-2.32-.71-2.03-.77-4.03-1.61-6.06-2.39-2.12-.82-4.31-1.31-6.61-1.12-2.14.18-4.13.88-6.04,1.81-3.59,1.75-6.41,4.33-8.3,7.86-1.54,2.87-2.09,5.91-1.26,9.13.09.35.26.6.56.82,1.93,1.38,4,2.51,6.14,3.52,3.08,1.45,6.21,1.59,9.43.56.18-.06.35-.13.53-.19-2.54.38-5.03.24-7.47-.54,6.41.48,12.01-1.34,16.72-5.76-1.62-.53-3.29-.24-4.92-.54.31-.08.62-.13.93-.12,1.23.03,2.47.08,3.7.11.2,0,.42.02.61-.03.19-.05.36-.18.54-.28-.82-.16-1.62-.03-2.43-.37.2-.16.45-.27.46-.39.03-.47.37-.35.64-.45.26-.1.46-.38.69-.56.05-.04.16-.02.24-.03.59-.03,1.18-.06,1.77-.11.14-.01.32-.06.39-.16.88-1.16,1.88-2.22,2.53-3.55.36-.75.97-1.33,1.76-1.67.35-.15.71-.18,1.07.19-.34.26-.64.52-.95.75-.47.34-.9.7-1.18,1.24-.84,1.59-1.64,3.21-2.58,4.74-.66,1.08-1.41,2.17-2.34,3.02-1.77,1.64-3.82,2.91-6.01,3.95-2.61,1.25-5.35,1.99-8.26,2.02-3.67.04-7-1.07-10.08-3.03-.13-.08-.26-.15-.48-.29.08.16.09.22.12.26,1,1.5,2.2,2.81,3.72,3.81,3.03,2.01,6.37,2.44,9.88,1.78,4.12-.78,7.67-2.71,10.83-5.4.6-.51,1.17-1.06,1.75-1.6ZM119.66,107s.08.02.12.03c.06-.12.12-.24.17-.37.6-1.58.94-3.21,1-4.9.09-2.21-.16-4.4-.73-6.53-.76-2.85-1.62-5.68-2.45-8.51-.94-3.19-2.52-6.06-4.69-8.58-2.61-3.03-5.77-5.23-9.66-6.29-1.83-.5-3.68-.69-5.58-.54.44.11.9.18,1.35.26,2.91.53,5.63,1.5,7.97,3.35,2.05,1.62,3.38,3.67,3.7,6.3.19,1.56-.05,3.1-.34,4.63-.25,1.32-.74,2.54-1.93,3.33-.07.04-.13.16-.12.23.08.9.23,1.77.75,2.54.61.91,1.55,1.23,2.54,1.46.92.21,1.87.35,2.78.6,2.36.64,4.08,2.03,4.87,4.43.76,2.31.83,4.66.52,7.05-.07.51-.17,1.01-.26,1.52ZM102.72,101.23c.49.18.83.05,1.13-.21.09-.08.11-.25.16-.38-.13-.04-.26-.07-.4-.11q-.02.44-.89.7Z" fill="#000" stroke="#000" stroke-miterlimit="10" stroke-width=".32"/><path d="M55.14,33.09c-1.77,1.15-3.54,2.31-5.3,3.46.04.02.08.05.11.07.01.24,0,.48.04.72.02.12.13.25.23.34,1.35,1.21,2.73,2.38,4.06,3.62,1.7,1.6,2.96,3.51,3.9,5.66,1.76,4.02,2.94,8.19,3.38,12.56.08.77.01,1.56-.04,2.36-.03-.21-.06-.43-.07-.64-.33-3.89-.98-7.72-2.32-11.4-1.38-3.78-3.4-7.14-6.61-9.67-1.26-.99-2.59-1.85-4.18-2.24-1.05-.26-1.96-.75-2.66-1.62-.34-.42-.84-.71-1.25-1.07-.2-.17-.38-.36-.54-.57-.07-.1-.13-.28-.09-.38.21-.46.37-.99.71-1.32.41-.4.95-.73,1.5-.9.84-.27,1.73-.38,2.61-.54.16-.03.33.04.5.07,0,.05.01.1.02.15-.17.06-.33.12-.5.17-.69.23-1.4.39-2.05.7-.36.18-.65.58-.89.93-.24.37-.24.83-.03,1.23.44.85,1.11,1.46,2.05,1.73.69.2,1.16-.04,1.5-.67.09-.18.23-.34.38-.47,2.16-1.9,4.65-3.26,7.23-4.48.59-.28,1.2-.54,1.81-.79.19-.08.42-.06.66-.02-.58.81-1.46,1.25-2.19,1.88,1.13-.56,2.26-1.12,3.49-1.72-.65-.3-1.22-.59-1.81-.83-3.64-1.47-7.43-2.05-11.34-1.83-3.83.21-7.46,1.13-10.83,3.01-1.63.91-3.11,2.02-4.39,3.39-.05.05-.09.1-.1.22.26-.09.52-.18.78-.28,1.21-.49,2.44-.94,3.75-1.09.79-.09,1.57-.04,2.28.37.12.07.24.16.32.32-.09,0-.18,0-.27,0-4.19-.37-7.42,1.35-9.93,4.6-2.02,2.61-3.2,5.63-3.99,8.79-1.41,5.62-1.62,11.3-.73,17.02.46,2.92,1.23,5.75,2.75,8.33,1.78,3.03,3.73,5.93,6.25,8.41,2.11,2.08,4.43,3.87,7.11,5.16,1.74.84,3.63,1.06,5.55,1.02,6.26-.16,12.51-4.73,14.54-10.65.55-1.61.71-3.27.82-4.95.09-1.32.13-2.64.2-3.95.01-.2.04-.41.06-.61.04,0,.09,0,.13,0-.07,2.31-.1,4.62-.21,6.92-.08,1.54-.39,3.05-.95,4.5-1.29,3.37-3.6,5.88-6.74,7.56-4.64,2.49-9.43,2.75-14.28.57-1.51-.68-2.75-1.75-3.97-2.84-3.42-3.05-6.4-6.46-8.68-10.45-1.82-3.18-3.12-6.55-3.54-10.21-.17-1.51-.14-3.04-.15-4.56,0-1.14.03-2.28.11-3.42.4-5.98,1.82-11.67,5.1-16.77,3.87-6.01,9.37-9.58,16.42-10.73,3.06-.5,6.14-.58,9.19-.05,1.56.27,3.05.89,4.57,1.36.51.16,1.02.33,1.52.52.29.11.43.04.6-.22,2.34-3.59,5.53-6.1,9.59-7.51,1.73-.6,3.53-.82,5.34-.94,2.66-.18,5.33-.26,7.99-.01,3.96.36,7.72,1.34,10.99,3.71,1.35.98,2.61,2.09,3.96,3.18-.14.05-.16.07-.18.06-1.6-1-3.21-1.96-4.77-3.01-.49-.33-.88-.37-1.42-.21-1.55.47-3.11.92-4.68,1.3-.7.17-1.45.15-2.18.22-.02-.07-.03-.13-.05-.2.21-.09.42-.2.63-.25,1.63-.39,3.26-.78,4.89-1.16.56-.13,1.13-.22,1.81-.35-.33-.16-.56-.28-.8-.38-2.66-1.12-5.44-1.74-8.29-2.06-2.66-.29-5.33-.29-7.98.07-3.39.46-6.62,1.37-9.47,3.34-1.43.99-2.62,2.21-3.55,3.8.35-.12.61-.21.88-.3,1.88-.57,3.79-1.05,5.63-1.72,1.77-.64,3.45-1.49,5.19-2.22,1.8-.76,3.6-1.49,5.41-2.22.39-.16.82-.21,1.23-.31.02.06.03.11.05.17-3.13,1.35-6.26,2.69-9.4,4.04l.03.1c.83-.07,1.66-.14,2.49-.19,4.04-.27,8.05-.01,12.03.65,2.81.47,5.57,1.14,8.28,2,.99.32,1.91.87,2.85,1.36.15.08.2.34.29.52-.23.03-.5.16-.67.08-4.37-2.21-9.08-3.19-13.86-3.91-3.86-.58-7.72-.65-11.58,0-2.44.41-4.78,1.16-7.07,2.07-.33.13-.65.3-.95.49-.65.42-.67.81-.06,1.27.22.17.45.33.69.44,1.75.82,3.47,1.71,5.19,2.59,2.5,1.28,5.22,1.76,7.99,1.96,3.11.22,6.21.02,9.31-.2.83-.06,1.67-.11,2.5-.17,0,.03.02.07.02.1-.19.04-.38.1-.58.12-2.15.23-4.29.5-6.44.65-2.15.15-4.31.25-6.46.23-2.07-.02-4.1-.42-6.03-1.22-.08-.03-.17-.05-.32-.01.12.14.22.29.36.4,3.65,2.94,5.39,6.95,6.24,11.39.45,2.34.77,4.73.88,7.11.14,2.86-.48,5.66-1.27,8.4-1.23,4.24-2.67,8.41-4.54,12.41-1.25,2.67-2.8,5.14-4.94,7.2-2.63,2.53-5.81,3.95-9.35,4.65-.46.09-.92.2-1.38.23-.39.02-.79-.05-1.16-.14-.12-.03-.26-.26-.27-.41-.01-.08.2-.23.33-.28.19-.07.4-.09.6-.13,1.97-.31,3.91-.75,5.75-1.55,3.51-1.54,6.15-4.09,8.22-7.27,2.15-3.3,3.57-6.93,4.59-10.72.86-3.18,1.72-6.37,2.15-9.65.47-3.61.22-7.19-.65-10.72-.79-3.21-2.08-6.2-4.23-8.76-2.47-2.94-5.62-4.62-9.46-5.07-1.15-.13-2.13.12-3.06.67-1.13.68-2.21,1.43-3.34,2.12-1.02.62-2.06,1.2-3.11,1.77-.22.12-.49.18-.75.22-.11.02-.24-.07-.37-.1.06-.11.1-.27.19-.33.29-.18.61-.31.91-.48.77-.42,1.55-.84,2.3-1.29.56-.33,1.02-.77,1.34-1.35-.03-.03-.06-.07-.09-.1Z" fill="#000" stroke="#000" stroke-miterlimit="10" stroke-width=".32"/><path d="M78.69,33.76c-.98-.28-1.99-.5-2.94-.86-2.08-.79-4.13-1.66-6.2-2.46-1.63-.63-3.31-1.11-5.07-1.19-.04,0-.07-.02-.13-.04.08-.36.36-.47.64-.45.63.04,1.27.08,1.87.23,2.68.66,5.2,1.78,7.72,2.85,1.33.56,2.65,1.15,3.97,1.72.06.03.12.06.18.09l-.04.12Z" fill="#000" stroke="#000" stroke-miterlimit="10" stroke-width=".32"/><path d="M71.41,27.15c.28-.04.55-.09.83-.11.99-.08,1.94.11,2.88.38,2.73.77,5.46,1.55,8.19,2.34.64.18,1.26.42,1.89.63-.01.05-.02.09-.03.14-.54-.08-1.1-.12-1.63-.25-1.97-.49-3.93-1.01-5.9-1.51-2.03-.51-4.07-1-6.11-1.5-.04,0-.07-.03-.1-.04,0-.03,0-.06-.01-.08Z" fill="#000" stroke="#000" stroke-miterlimit="10" stroke-width=".32"/><path d="M99.37,28.16c1.05.47,1.1.46,1.45-.13,0,.29.04.6,0,.88-.1.71-.49,1.29-.97,1.78-1.44,1.48-3.14,2.57-5.05,3.34-.44.18-.95.2-1.42.29-.02-.05-.04-.1-.06-.15.18-.1.36-.21.54-.31,1.95-1.07,3.78-2.29,5.48-3.72.04-.04.08-.07.13-.11.76-.58.79-.9.15-1.62-.05-.06-.11-.12-.24-.26Z" fill="#000" stroke="#000" stroke-miterlimit="10" stroke-width=".32"/><path d="M60.4,56.58c.46.38.5.99.1,1.2-.31-.39-.35-.8-.1-1.2Z" fill="#000" stroke="#000" stroke-miterlimit="10" stroke-width=".32"/><path d="M102.72,101.23q.87-.26.89-.7c.14.04.27.08.4.11-.05.13-.07.29-.16.38-.29.26-.64.4-1.13.21Z" fill="#000" stroke="#000" stroke-miterlimit="10" stroke-width=".32"/><path d="M104.97,90.56c-2.69-.3-5.26-.59-7.53-.84,2.32-.12,4.9-.03,7.53.84Z" fill="#000" stroke="#000" stroke-miterlimit="10" stroke-width=".32"/><path d="M107,92.14c-1.42.81-2.99,1.18-4.57,1.5,1.5-.59,2.92-1.38,4.57-1.5Z" fill="#000" stroke="#000" stroke-miterlimit="10" stroke-width=".32"/><path d="M105.09,97.16c.36-.52.72-1.04,1.08-1.55.04.03.09.06.13.09-.37.51-.73,1.03-1.1,1.54-.04-.03-.07-.05-.11-.08Z" fill="#000" stroke="#000" stroke-miterlimit="10" stroke-width=".32"/></svg>