<?xml version="1.0" encoding="UTF-8"?><svg id="Layer_1" xmlns="http://www.w3.org/2000/svg" viewBox="0 0 144.57 144.57"><path d="m83.17,73.55c-.54,1.12-.46,2.4-.42,3.68.02.72.1,1.43.36,2.11.07.17.14.34.21.51.24-.01.27-.17.31-.3.17-.63.36-1.26.46-1.9.05-.29-.08-.6-.14-.96.68-.53.84-1.37.92-2.23.03-.38.07-.76.08-1.14.05-1.14-.04-2.26-.35-3.36-.03-.1.01-.27.08-.32.51-.39.67-.97.8-1.54.24-.99.12-2,.02-3-.01-.15-.09-.3-.14-.45.95-.78,1.12-1.86,1.2-2.97.07-.95.08-1.91.1-2.87,0-.22-.03-.45-.1-.65-.08-.23-.09-.39.17-.5.24-.1.36-.3.44-.53.25-.68.41-1.37.45-2.09.07-1.09.18-1.63.1-1.86-.12-.34-.31-.57-.2-.84.08-.19.27-.27.59-.65.26-.31.33-.3.43-.48.24-.41.53-.81.59-1.29.06-.52.07-1.04.11-1.64-.02.02.02-.04.07-.07.54-.31.84-.82,1.13-1.33.52-.91.85-1.88,1.06-2.91.02-.11.07-.23.04-.33-.1-.32.08-.5.26-.71.32-.37.63-.76.92-1.16.43-.6.84-1.2,1.23-1.82.16-.25.29-.54.37-.82.07-.22.21-.34.36-.48.43-.39.87-.79,1.27-1.22.34-.37.64-.79.95-1.2.12-.16.25-.34.3-.54.06-.27.21-.4.45-.5.34-.14,1.01-.73,2.02-1.63,1.03-.93,1.28-1.27,1.39-1.2.15.1-.18.86-.56,1.75,0,0-.84,1.95-.97,2.79-.03.16-.02.28-.02.28.14.39-.04.58-.36.8-.42.29-.75.69-.95,1.17-.19.47-.38.95-.56,1.42-.13.36-.21.74-.1,1.12.06.18.02.33-.14.41-.67.32-.79.98-.95,1.58-.21.81-.38,1.65-.23,2.5.04.23-.11.36-.26.48-.78.59-1.06,1.41-1.06,2.34,0,.48.04.95.09,1.43.02.21-.05.37-.15.53-.47.75-.74,2.11-.59,2.98.08.47.16.94.22,1.41.01.09-.04.22-.1.29-.42.47-.52,1-.35,1.6.1.35.15.72.24,1.07.09.35.07.67-.02,1.03-.23.94-.4,1.9-.2,2.88.05.26.07.53.09.8.03.26-.08.48-.27.64-.36.29-.44.67-.49,1.1-.04.43-.11.85,0,1.28.03.11,0,.26-.05.37-.4,1.07-.31,2.16-.21,3.26,0,.02.04.04.1.11.09-.13.19-.24.27-.37.33-.49.66-.98.99-1.47.15-.23.33-.34.66-.13-.04.15-.05.33-.12.5-.42,1.02-.76,2.07-.9,3.17-.09.68-.16,1.38-.06,2.04.09.61.24,1.14-.3,1.6-.46,1.16-.77,2.34-.44,3.59.06.22.03.4-.05.6-.43,1.05-.54,2.16-.66,3.27-.07.61.06,1.21.25,1.79.08.25.1.49-.09.67-.42.44-.52.99-.52,1.55-.01,1.19-.03,2.39.31,3.56.04.12.04.32-.03.4-.29.32-.34.73-.36,1.12-.03.62,0,1.24.04,1.86.02.26.22.31.45.11.42-.37.77-.81.96-1.35.07-.21.17-.44.15-.65-.03-.42.14-.72.39-1.02.45-.54.64-1.21.89-1.84.39-.98.47-2.01.52-3.05.01-.27-.03-.54-.04-.76.32-.27.62-.53.92-.78.39-.33.46-.83.63-1.27.34-.89.56-1.82.71-2.77.06-.37.12-.73-.14-1.06.21-.26.4-.49.58-.73.32-.41.55-.86.68-1.36.17-.68.33-1.36.49-2.04.12-.48.1-.95-.12-1.4-.03-.07-.04-.15-.06-.2.02-.04.03-.06.04-.07.73-.34,1-1.01,1.12-1.73.16-.94.27-1.89.36-2.84.03-.34-.04-.69-.06-.99.27-.28.58-.51.76-.81.2-.33.32-.72.42-1.1.22-.82.4-1.64.59-2.46.07-.33.14-.66.18-.99.06-.54.3-.93.77-1.23.7-.43,1.32-.97,1.68-1.72.27-.56.47-1.15.67-1.73.08-.25.21-.38.45-.5.93-.44,1.75-1.03,2.42-1.83.17-.21.39-.38.56-.59.18-.22.3-.51.51-.67.2-.15.53-.13.76-.26.43-.24.83-.54,1.23-.82.63-.43,1.27-.86,1.88-1.31.03-.02.08-.08.18-.14.46-.32,1.09-.4,1.19-.23.06.1-.07.28-.27.5-.68.74-1.37,1.47-2.07,2.19-.32.33-.51.61-.75.92-.71.95-.72,1.19-1.34,2.07-.6.85-.71.8-1.34,1.72-.16.23-.61.93-.82,1.61-.03.09-.09.18-.08.27.04.44-.23.69-.51.97-.38.38-.57.87-.76,1.37-.44,1.19-.69,2.42-.68,3.69,0,.32.09.63.12.94.01.15.03.33-.05.44-.56.82-.72,1.76-.83,2.71-.09.8-.15,1.61-.23,2.42-.01.14-.05.29-.13.4-.58.81-.72,1.77-.87,2.71-.22,1.35-.11,2.7.13,4.04.04.2.07.41.07.62,0,.12-.04.26-.11.34-.53.59-.69,1.33-.75,2.07-.05.65,0,1.3.01,1.95,0,.09-.02.19-.06.27-.51.94-.6,1.97-.67,3.01-.02.35-.07.7-.06,1.05.02.36.07.73.15,1.08.06.27.02.5-.09.74-.38.85-.53,1.76-.65,2.68-.12.87-.22,1.74-.1,2.62.02.11-.06.24-.12.35-.26.5-.4,1.03-.47,1.59-.12,1.03-.19,2.06-.11,3.1,0,.12-.03.25-.08.36-.71,1.51-.92,3.1-.87,4.75,0,.16.03.32.02.48,0,.1-.03.23-.1.3-.45.46-.6,1.04-.72,1.64-.11.56-.19,1.13-.32,1.69-.06.24-.19.47-.32.69-.4.72-.64,1.48-.72,2.41.17-.17.29-.25.36-.36.42-.66.83-1.32,1.08-2.07.04-.12.15-.26.26-.31.74-.31,1.16-.93,1.54-1.58.26-.45.46-.95.61-1.45.15-.5.21-1.02.32-1.61.77-.39,1.32-1.1,1.64-1.98.34-.92.63-1.87.88-2.82.1-.37.05-.79.07-1.2.67-.2,1.05-.74,1.39-1.3.67-1.11,1.13-2.32,1.47-3.57.07-.25.05-.54.04-.8,0-.19.02-.33.19-.45.72-.54,1.13-1.27,1.32-2.15.08-.37.23-.73.34-1.09.04-.12.11-.26.08-.37-.12-.39.11-.58.37-.79.92-.75,1.43-1.73,1.62-2.89.05-.3.19-.54.46-.74.96-.72,1.79-1.58,2.48-2.56.13-.18.16-.44.18-.67.02-.22.08-.35.29-.44.2-.1.38-.23.55-.38.69-.61,1.41-1.2,1.88-2.02.15-.26.35-.5.55-.72.15-.16.33-.3.52-.4.67-.38,1.26-.71,1.89-1.02.99-.48,1.32-.63,1.37-.57.03.05-.1.2-.15.25-1,.91-1.7,2.05-2.48,3.13-.37.52-.75,1.03-1.1,1.56-.23.34-.42.71-.61,1.08-.62,1.22-1.25,2.44-1.83,3.68-.51,1.09-.98,2.21-1.44,3.33-.49,1.18-.98,2.36-1.41,3.56-.51,1.44-.99,2.9-1.42,4.36-.57,1.92-1.05,3.87-1.64,5.79-.28.93-.71,1.81-1.05,2.72-.56,1.48-1.25,2.89-1.97,4.3-.46.91-.88,1.84-1.37,2.73-.42.77-.9,1.5-1.36,2.24-.26.42-.55.82-.81,1.24-.65,1.03-1.43,1.95-2.26,2.83-.09.09-.18.18-.25.29-.31.41-.63.78-1.03,1.12-.64.54-1.21,1.18-1.82,1.76-.22.21-.48.36-.71.55-.93.74-1.98,1.28-3.05,1.77-.48.22-.97.39-1.46.58-.65.25-1.35.2-2.02.31-.25.04-.5.06-.76.09-.6.07-1.21.11-1.8.21-.5.09-1,.22-1.48.39-.54.19-1.06.16-1.59,0-.12-.04-.24-.08-.36-.12-.36-.1-.4-.08-.64.22-.52.65-1.18,1.05-2.02,1.14-.44.05-.88.11-1.32.2-.85.17-1.65-.06-2.43-.32-.48-.16-.93-.41-1.39-.64-.61-.31-1.24-.41-1.9-.29-.82.15-1.64.2-2.46.06-.62-.11-1.24-.01-1.86-.04-.98-.05-1.97-.16-2.95-.27-1.23-.14-2.35-.67-3.51-1.06-1.45-.49-2.7-1.35-4.04-2.05-.64-.34-1.2-.83-1.79-1.27-.82-.61-1.63-1.23-2.44-1.84-.34-.26-.68-.53-1.02-.8-1.32-1.04-2.5-2.22-3.64-3.45-1.03-1.11-1.92-2.34-2.77-3.59-.82-1.21-1.65-2.42-2.44-3.66-.38-.59-.68-1.22-1.01-1.84-.74-1.41-1.46-2.83-2.21-4.23-.64-1.19-1.31-2.37-1.95-3.56-.22-.41-.36-.85-.55-1.27-.15-.32-.32-.62-.48-.93-.67-1.3-1.34-2.61-2.23-3.78-.33-.43-.56-.93-.88-1.36-.72-.96-1.46-1.89-2.2-2.83-.84-1.06-1.67-2.13-2.55-3.17-1.02-1.2-1.55-1.79-2.21-2.39-.87-.8-1.7-1.4-1.61-1.55.06-.09.46.02.7.13.07.03.2.13.48.31.41.27.51.36.89.57.85.46,1.27.69,1.68.77.45.09.79.29,1.04.72.91,1.58,2.28,2.72,3.79,3.69.48.31.93.65,1.36,1.02.62.54,1.32.93,2.05,1.3.13.06.24.17.37.21.59.21.89.64,1.06,1.22.19.66.73,1.07,1.17,1.55.54.59,1.12,1.13,1.71,1.67.41.37.86.69,1.36,1.09,0,.67.37,1.29.83,1.84.54.65,1.13,1.25,1.7,1.87.08.08.16.18.26.21.36.12.44.42.51.74.24,1.06.81,1.93,1.53,2.71.47.52.95,1.03,1.45,1.53.18.18.38.33.6.47.13.08.22.16.24.32.09.78.46,1.41,1.04,1.93.33.3.62.64.92.96.39.42.86.7,1.42.87,0,.74.51,1.12.99,1.55.84.75,1.79,1.33,2.73,1.93.25.16.53.28.84.28.01-.75-1-2.21-2.33-3.39.13-.78,0-1.51-.41-2.19-.4-.65-.73-1.35-1.36-1.83-.24-.18-.49-.36-.74-.52-.17-.11-.27-.24-.23-.43.11-.54-.1-1.02-.3-1.47-.41-.94-.96-1.81-1.73-2.5-.25-.22-.55-.38-.84-.53-.21-.11-.3-.24-.29-.49.05-1.21-.42-2.24-1.16-3.16-.32-.4-.64-.79-.99-1.17-.21-.23-.48-.42-.68-.59-.05-.67-.06-1.32-.14-1.96-.04-.31-.16-.62-.31-.9-.36-.67-.76-1.33-1.15-1.98-.22-.36-.48-.67-.89-.84-.16-.07-.24-.18-.21-.38.04-.22.04-.44.04-.67.02-.64-.1-1.22-.51-1.75-.34-.44-.58-.96-.91-1.4-.27-.36-.6-.69-.94-1-.17-.15-.2-.28-.19-.49.02-1.02.03-2.03-.14-3.04-.03-.2-.11-.4-.2-.58-.34-.65-.7-1.29-1.29-1.76-.31-.25-.31-.65-.42-1-.3-.92-.58-1.86-.89-2.77-.1-.28-.26-.55-.43-.79-.38-.55-.64-1.17-1.18-1.61-.18-.15-.29-.42-.35-.66-.25-.97-.44-1.96-.69-2.93-.15-.58-.36-1.16-.59-1.71-.09-.22-.33-.39-.52-.55-.38-.33-.5-.75-.52-1.24-.06-1.55-.66-2.84-1.88-3.81-.19-.15-.31-.31-.38-.53-.15-.53-.29-1.07-.46-1.6-.08-.25-.21-.5-.37-.71-.43-.57-.86-1.14-1.42-1.6-.26-.21-.5-.44-.85-.51-.11-.02-.22-.13-.29-.22-.12-.17-.24-.34-.31-.54-.19-.52-.55-.76-1.3-2.05-.37-.64-.56-.97-.47-1.05.13-.12.6.43,1.75,1.01.91.46,1.18.4,1.7.85.16.14.35.32.69.5.35.18.49.17.73.33.29.18.4.41.63.82.39.68.8,1.41,1.38,2.06.17.19.35.37.53.55.53.53,1.06,1.05,1.58,1.59.12.12.21.28.28.44.51,1.18,1.36,2.06,2.39,2.79.45.32.93.61,1.4.92-.01.99.57,1.67,1.15,2.36.21.24.43.47.68.67.23.19.49.35.75.5.21.12.33.26.34.52.02.54.27,1,.59,1.44.44.6.83,1.27,1.43,1.72.44.33.6.73.76,1.22.35,1.07,1.1,1.85,2.03,2.45.19.12.33.25.46.46.17.28.4.54.65.75.39.31.82.56,1.23.82.06.04.15.04.25.07.02-.13.05-.24.06-.34.04-1,.09-2.01.12-3.01,0-.33-.02-.67-.05-1-.04-.36-.19-.68-.44-.94-.17-.18-.21-.37-.16-.61.23-1.16.18-2.32-.06-3.47-.08-.4-.24-.79-.38-1.18-.11-.3-.12-.58-.02-.89.28-.81.3-1.62.02-2.44-.13-.37-.19-.77-.26-1.16-.13-.71-.35-1.39-.8-1.97-.21-.26-.23-.55-.23-.89,0-.94-.01-1.88-.11-2.82-.05-.44-.29-.87-.49-1.28-.19-.38-.45-.73-.66-1.11-.07-.13-.07-.3-.07-.46,0-.22.02-.45.05-.67.13-.96-.3-1.74-.8-2.49-.2-.3-.48-.55-.74-.8-.14-.13-.19-.24-.15-.41.04-.16.07-.31.1-.47.08-.46.06-.91-.08-1.37-.27-.85-.5-1.72-.99-2.48-.14-.21-.28-.42-.45-.62-.14-.16-.2-.31-.14-.52.19-.7.07-1.36-.25-1.99-.17-.33-.3-.68-.53-.96-.33-.41-.47-.87-.46-1.37.02-1.18-.6-2.06-1.33-2.88-.32-.36-.54-.74-.67-1.19-.07-.24-.16-.49-.2-.74-.14-.79-.6-1.43-.98-2.11-.27-.48-.46-1.01-.69-1.52-.1-.22-.17-.44-.28-.65-.11-.19-.08-.33.12-.5.1.07.23.13.32.23.52.58,1.06,1.15,1.55,1.76.38.48.84.78,1.42.9.38.08.56.27.68.67.12.45.39.87.67,1.25.35.45.77.85,1.17,1.26.24.25.51.47.76.71.07.08.12.19.16.29.22.54.54,1.01.94,1.43.4.41.78.84,1.17,1.26.29.32.6.61,1,.8.23.11.37.3.43.59.21,1.03.78,1.87,1.48,2.63.28.3.6.57.91.84.15.14.24.28.24.5-.02.51.18.97.37,1.42.32.76.81,1.4,1.36,2.01.35.39.62.85.91,1.28.05.07.05.19.04.28-.07.61.16,1.16.39,1.7.28.66.62,1.28,1.1,1.84.34.39.6.85.89,1.29.05.08.07.21.06.31-.1.56.02,1.08.21,1.59.42,1.07.94,2.09,1.65,3,.12.15.18.3.13.48-.13.43-.05.86.02,1.28.13.8.42,1.53.82,2.23.02.04.05.09.08.12.41.34.47.73.3,1.23-.19.57.04,1.13.19,1.69.07.24.15.5.28.71.35.58.45,1.22.5,1.87.04.53.15,1.03.44,1.5.1.16.07.44.02.64-.08.29-.09.56,0,.85.16.57.31,1.13.46,1.7.02.09.02.19,0,.27-.32,1.26-.06,2.43.6,3.52.09.15.23.26.35.39.15.16.21.36.06.52-.38.39-.33.88-.23,1.31.27,1.15.63,2.27.95,3.4.01.05.04.09.08.19.08-.15.14-.21.15-.28.13-.63.24-1.26.19-1.9-.02-.21-.13-.42-.18-.63-.03-.15-.09-.34-.03-.45.5-.89.38-1.82.24-2.75-.08-.56-.36-1.05-.72-1.48-.12-.14-.18-.26-.07-.42.44-.64.43-1.35.32-2.07-.1-.68-.21-1.36-.34-2.03-.04-.2-.17-.41-.31-.57-.12-.14-.17-.27-.09-.43.41-.9.37-1.83.18-2.77-.08-.42-.13-.85-.23-1.27-.06-.24-.19-.47-.26-.71-.03-.1-.04-.3.02-.33.56-.31.6-.87.69-1.4.19-1.14.2-2.29-.07-3.42-.08-.32-.2-.64-.37-.92-.11-.19-.14-.33-.08-.53.13-.47.27-.95.36-1.43.07-.36.09-.72.12-1.09.03-.41-.03-.78-.28-1.14-.15-.22-.21-.5-.31-.75-.11-.3-.19-.6-.44-.84-.07-.07-.1-.24-.08-.35.12-.82-.04-1.62-.19-2.42-.04-.21-.14-.43-.26-.61-.28-.43-.6-.82-.88-1.25-.09-.14-.16-.32-.16-.48.01-1.51-.45-2.92-.88-4.34-.02-.08-.04-.16-.09-.22-.4-.43-.51-.95-.6-1.51-.15-.91-.17-.75-.48-1.6-.22-.62-.34-.93-.26-.99.11-.08.46.35,1.41,1.03.19.14.4.23.63.43.36.31.75.55,1.19.69.17.06.27.14.32.32.07.26.17.51.25.77.26.87.72,1.6,1.47,2.12.28.19.39.37.32.75-.06.32.02.7.13,1.02.31.9.68,1.79,1.01,2.68.3.81.8,1.49,1.34,2.14.12.15.18.28.19.47.09,1.13.44,2.15,1.22,3,.01.01.02.03.03.04.46.44.68.91.57,1.6-.12.75.12,1.49.37,2.2.27.75.58,1.49,1.03,2.15.08.12.13.3.11.44-.15,1.16.11,2.21.74,3.19.22.34.29.7.25,1.13-.06.74.17,1.43.59,2.14.2-.45.39-.8.44-1.22.11-1.02.22-2.04.04-3.05-.09-.5.03-.93.12-1.39.21-1.05.38-2.1.22-3.18-.04-.25-.08-.51-.09-.76-.02-.52-.08-1.02-.48-1.43.56-.47.62-1.08.6-1.71-.03-.91-.09-1.81-.14-2.72-.02-.36-.1-.7-.32-.99-.15-.21-.12-.4-.02-.63.1-.21.15-.45.22-.68.02-.06.04-.14.01-.19-.32-.76-.12-1.56-.22-2.34-.11-.89-.29-1.75-.73-2.55.61-.73.91-1.59,1.02-2.53.06-.49.16-.98.16-1.47,0-.42-.11-.85-.18-1.27-.04-.25-.09-.5-.18-.74-.07-.2-.03-.37.04-.55.4-1.05.64-2.14.81-3.24.08-.5-.03-1.04-.1-1.56-.02-.18-.02-.31.12-.42.43-.31.56-.8.73-1.26.44-1.18.46-2.4.35-3.63,0-.09-.01-.2-.05-.28-.12-.27-.08-.53.05-.78.4-.81.62-1.67.69-2.57.02-.3-.09-.62-.19-.92-.08-.23-.07-.39.06-.61.5-.81.88-1.67,1.01-2.61.05-.4-.05-.82-.08-1.24-.01-.19,0-.29.02-.41.07-.5.3-.78.53-1.18.47-.83.42-1.3.6-1.3.22,0,.46.79.52,1.52.1,1.19-.36,1.23-.34,2.41.01.83.26,2.23.46,2.75.02.06.1.27.08.54-.01.15-.05.3-.13.46-.22.45-.24.95-.18,1.45.05.38.09.76.14,1.14.09.6.23,1.19.51,1.74.13.25.14.5.08.79-.1.46-.22.94-.21,1.41.03,1.02.14,2.03.24,3.05.02.23.12.46.22.68.28.62.47,1.23.37,1.93-.05.34,0,.7.05,1.04.2,1.43.68,2.78,1.17,4.13.11.3.09.52-.09.79-.16.24-.26.56-.29.85-.04.49-.05.99.02,1.47.13.98.31,1.95.49,2.92.05.27.11.53.21.78.11.27.09.51,0,.78-.21.66-.29,1.33-.17,2.03.07.44.09.88.14,1.32.08.75.28,1.47.54,2.17.08.2.04.38-.04.55-.3.64-.39,1.31-.37,2,0,.13.01.25.03.38.05.38.07.76.15,1.13.1.45.22.9.38,1.33.1.27.12.52,0,.78-.42.95-.44,1.95-.34,2.96.03.3.04.6.06.91,0,.13-.02.27.03.38.28.67.13,1.32-.03,1.99-.26,1.06-.27,2.15-.09,3.23.07.43.29.83.49,1.36Zm-4.08-54.91c-.12.45-.25.81-.35,1.04-.28.65-.5.89-.54,1.43-.01.12,0,.09.03.68.03.74.04,1.11.03,1.22-.07.71-.45,1.47-.84,2.33-.09.21-.1.38-.03.59.07.19.11.41.08.61-.15.88-.3,1.76-.53,2.62-.11.42-.22.83-.2,1.26.01.35,0,.71.04,1.05.1.7.02,1.37-.24,2.02-.24.62-.33,1.31-.76,1.85-.18.22-.2.45-.16.71.04.28.1.58.05.85-.2,1.05-.44,2.09-.67,3.13-.11.51-.26,1.01-.11,1.55.12.44.19.91.22,1.36.05.72-.08,1.43-.19,2.14-.11.66-.31,1.29-.7,1.86-.07.1-.04.3,0,.44.13.59.32,1.17.42,1.77.14.87.21,1.74.3,2.61.04.38.03.76-.15,1.12-.06.13,0,.33.02.49.05.28.17.55.19.83.07.79.08,1.59.18,2.38.08.63.09,1.24-.16,1.83-.16.37-.17.74-.09,1.12.04.17.07.34.1.52.22,1.04.19,2.1.07,3.14-.07.63-.23,1.25-.34,1.88-.02.12-.02.25-.02.38.02.7.08,1.4.07,2.1-.01.78-.03,1.57-.38,2.29-.27.57-.34,1.13-.25,1.75.08.56-.05,1.15,0,1.72.05.77-.14,1.45-.59,2.07-.15.21-.18.44-.13.68.05.22.06.43.06.64-.02.51-.19.97-.4,1.34-.34.62-.55.56-.64.96-.08.32.05.4.2,1.22.13.72.16,1.07.11,1.45-.04.32-.12.63-.25.94-.06.15-.1.34-.07.5.09.5.22,1,.32,1.5.3,1.51.31,3-.15,4.49-.06.19-.08.41-.06.61.03.3.11.59.15.89.08.49.19.98.2,1.47.02.99,0,1.98-.45,2.9-.17.35-.14.68.08.99.14.21.18.43.17.68-.02.54,0,1.08-.03,1.62-.03.51-.09,1.01-.17,1.51-.03.16-.11.35-.23.46-.29.26-.29.56-.19.87.13.42.24.87.46,1.25.48.84.95,1.7,1.8,2.26.26.17.37.41.37.73,0,.22.06.44.15.64.28.67.73,1.23,1.3,1.68.3.24.44.48.42.89-.02.35.05.73.16,1.07.33,1.07,1.05,1.91,1.75,2.75.03.03.08.04.15.06.17-.26.11-.56.11-.83,0-.26-.02-.54-.1-.79-.08-.27-.25-.51-.34-.68.3-.36.59-.64.79-.98.64-1.09,1.01-2.27.91-3.55-.02-.29.07-.45.27-.61.49-.4.84-.9,1.16-1.44.28-.48.41-1,.6-1.5.22-.55.42-1.11.15-1.71-.03-.07,0-.16,0-.24-.02-.41-.03-.83-.07-1.23-.06-.55-.15-1.1-.24-1.65-.18-1.07-.35-2.14-.55-3.2-.25-1.33-.59-2.64-.7-4-.03-.37-.06-.35-.15-.8-.82-4.5-.88-5.55-.89-6.36,0-.58.05-.36.05-1.62,0-1.24-.03-2.49-.02-3.73.01-1.21.04-2.42.1-3.63.05-.97.19-1.93.24-2.9.07-1.58.11-3.16.14-4.73.01-.73-.04-1.47-.07-2.2-.05-.97-.09-1.94-.17-2.91-.14-1.64-.29-3.27-.46-4.9-.12-1.14-.24-2.28-.45-3.41-.27-1.5-.42-3-.37-4.52.04-1.15.05-2.29.06-3.44,0-.35-.04-.7-.04-1.05,0-1.07.01-1.7.02-2.15.01-1.21-.18-1.6-.33-2.92-.07-.68-.06-1.08-.03-3.69.02-1.66.11-3.32.11-4.97,0-2.7.12-4.05.19-5.3.08-1.48.24-3.58.54-6.13Zm-2.22,105.25c.21-.6.15-1.16.15-1.71,0-.14-.03-.3-.1-.41-.16-.25-.07-.45.05-.67.23-.42.48-.83.66-1.27.26-.65.53-1.31.43-2.03-.09-.58-.21-1.16-.34-1.73-.04-.19-.07-.34.1-.47.34-.26.47-.63.57-1.03.07-.29.11-.6.19-.89.11-.38-.01-.66-.27-.95-.55-.61-1.11-1.22-1.39-2.02-.03-.09-.08-.18-.13-.26-.38-.58-.55-1.21-.6-1.89-.01-.16-.09-.34-.19-.47-.36-.47-.77-.89-1.1-1.38-.29-.43-.57-.88-.57-1.45,0-.13-.12-.3-.24-.38-.4-.25-.64-.62-.88-1-.44-.68-.92-1.32-1.16-2.13-.15-.5-.34-.99-.4-1.52-.01-.09-.04-.19-.09-.26-.25-.35-.48-.71-.76-1.04-.67-.8-1-1.73-1.06-2.76,0-.11-.03-.24-.1-.31-.35-.37-.51-.84-.72-1.28-.55-1.16-1.04-2.33-1.07-3.64,0-.11-.07-.25-.15-.33-.43-.42-.71-.94-.97-1.47-.44-.89-.69-1.85-.92-2.81-.08-.35-.08-.69.06-1.03.11-.26.06-.53-.03-.79-.27-.82-.56-1.63-.76-2.47-.19-.79-.49-1.6.06-2.38-.86-1.31-1.18-2.29-1.13-3.59.02-.52-.04-1.02-.16-1.51-.09-.37-.19-.74-.31-1.11-.09-.29-.11-.57,0-.84.1-.24.04-.45-.02-.69-.19-.71-.33-1.42-.5-2.14-.06-.25-.1-.5-.18-.73-.07-.21-.2-.4-.27-.61-.32-.84-.6-1.68-.37-2.61.04-.14-.05-.34-.14-.48-.59-.88-.94-1.85-1.16-2.87-.06-.29-.09-.61-.04-.9.06-.33-.04-.59-.2-.85-.31-.52-.64-1.03-.92-1.57-.47-.93-.86-1.88-.84-2.95,0-.1-.05-.22-.1-.31-.18-.29-.34-.59-.56-.84-.72-.82-1.13-1.81-1.55-2.79-.12-.29-.24-.62-.22-.92.02-.43-.18-.73-.42-1.03-.29-.36-.6-.7-.9-1.06-.58-.68-.93-1.5-1.17-2.34-.19-.64-.5-1.16-.97-1.6-.06-.05-.11-.11-.17-.17-.73-.82-1.34-1.7-1.66-2.77-.05-.16-.14-.34-.27-.42-.65-.43-1.11-1.05-1.66-1.58-.54-.53-1.04-1.09-1.37-1.77-.22-.44-.53-.79-.89-1.11-.9-.81-1.68-1.7-2.08-2.87-.08-.23-.23-.33-.46-.36-.16-.02-.3-.09-.46-.12-.22-.04-.81-.62-2.16-2.43.56.86.99,1.56,1.27,2.04.7,1.19,1.02,1.8,1.48,2.6.24.42.48.83.76,1.3.21.35.49.67.74,1,.32.42.64.84.95,1.26.65.88,1.3,1.77,1.94,2.66.21.3.39.62.62.91.82,1.07,1.47,2.24,2.07,3.44.74,1.5,1.43,3.02,1.96,4.61.45,1.33.93,2.65,1.38,3.97.29.84.55,1.7.82,2.55.43,1.32.87,2.63,1.27,3.96.33,1.08.59,2.18.89,3.27.47,1.66.89,3.32,1.1,5.04.13,1.15.3,2.31.41,3.46.08.9.1,1.81.14,2.72.02.4.04.79.05,1.19,0,.91-.02,1.82,0,2.72.03.92.09,1.85.14,2.77.07,1.08.13,2.16.23,3.24.07.74.21,1.48.34,2.22.28,1.57.51,3.15.87,4.7.48,2.03,1.02,4.04,1.73,6,.65,1.8,1.31,3.59,2.09,5.33.71,1.58,1.39,3.18,2.16,4.74.73,1.49,1.53,2.94,2.35,4.38.7,1.23,1.46,2.43,2.2,3.64.18.3.38.59.58.88.38.55.76,1.1,1.14,1.65,0,0,.23.32.45.61.94,1.23,2.54,2.9,2.9,3.28ZM41.47,31.63c.19.84.49,1.44.73,1.83.25.42,1.16,1.8,1.31,2.46,0,.02.02.08.04.17.05.19.14.49.3.83.14.3.31.58.52.85.33.43.64.88.91,1.35.16.28.26.62.29.95.07.81.25,1.56.69,2.25.16.25.3.53.43.8.26.56.38,1.16.31,1.77-.03.29,0,.52.16.76.43.71.81,1.44,1.04,2.25.24.84.54,1.67.39,2.57-.02.11.08.26.15.37.36.58.75,1.14,1.09,1.73.25.43.33.93.33,1.43,0,.19,0,.38,0,.57,0,.54.12,1.03.43,1.48.31.46.55.97.66,1.53.21,1.05.25,2.12.25,3.19,0,.25.07.46.18.68.23.51.45,1.02.62,1.55.22.7.41,1.41.58,2.12.07.29.12.6.1.89-.02.33-.11.66-.21.98-.16.5-.08.97.11,1.44.08.19.17.39.19.59.14,1.19.32,2.37.16,3.57-.03.27.04.49.16.73.13.25.22.53.26.8.05.31.05.64.04.95-.01.76-.06,1.53-.06,2.29,0,.38.11.76.11,1.14,0,.26.03.51.16.73.5.87.57,1.84.65,2.81.05.65-.14,1.34.28,1.94.04.06.03.15.04.23.18,1.44.38,2.87.54,4.32.13,1.2.51,2.36.63,3.57.1.99.17,1.96-.06,2.93-.03.12-.05.26-.02.37.22.66.49,1.31.7,1.98.24.77.52,1.56.52,2.37,0,.62-.02,1.21.59,1.59.51.84,1.1,1.64,1.46,2.58.15.4.34.8.15,1.25-.03.08.01.22.06.31.31.59.64,1.17.95,1.76.41.79.61,1.64.64,2.52.02.53.2.95.53,1.34.92,1.08,1.68,2.28,2.44,3.47.22.35.43.72.35,1.16-.06.33.1.53.34.73.35.28.68.58.99.9.44.46.81.99,1.27,1.42.5.47.72,1.03.82,1.68.02.1.08.2.16.27.13.12.28.21.42.31.88.63,1.74,1.29,2.35,2.21.16.24.25.55.46.71.21.16.54.15.81.23.14.04.27.09.41.14,1.04.41,1.87,1.07,2.48,2.01.1.15.23.31.39.4.42.23.85.43,1.28.64.09.04.19.05.33.09,0-.11.01-.18,0-.23-.14-.47-.26-.95-.44-1.4-.14-.34-.15-.63.06-.94.16-.24.17-.5-.04-.74-.5-.57-.99-1.16-1.48-1.74-.52-.61-1.05-1.2-1.54-1.83-.43-.55-.83-1.13-1.21-1.72-.64-.99-1.28-1.98-1.88-3-.59-1-1.14-2.02-1.7-3.04-.58-1.06-1.17-2.12-1.71-3.21-.62-1.26-1.18-2.54-1.76-3.82-.41-.9-.85-1.78-1.2-2.71-.62-1.64-1.2-3.29-1.74-4.96-.44-1.35-.84-2.71-1.17-4.09-.36-1.52-.65-3.05-.9-4.59-.3-1.78-.55-3.56-.64-5.36-.08-1.61-.14-3.22-.21-4.83-.01-.37.05-.74.02-1.1-.17-1.99-.09-3.99-.38-5.96-.11-.77-.14-1.56-.29-2.32-.3-1.45-.65-2.89-.99-4.33-.14-.6-.33-1.2-.5-1.79-.23-.8-.46-1.59-.7-2.39-.15-.49-.33-.97-.48-1.45-.42-1.34-.82-2.68-1.25-4.01-.21-.65-.52-1.27-.7-1.93-.45-1.65-1.11-3.22-1.77-4.79-.44-1.05-.91-2.1-1.52-3.08-.44-.7-.8-1.44-1.3-2.11-.69-.92-1.31-1.88-1.98-2.82-.43-.6-.89-1.16-1.33-1.75-.27-.36-.52-.72-.78-1.09-.17-.25-.35-.5-.49-.76-.49-.9-.87-1.62-.96-1.81-.31-.67-.96-1.87-2.45-4.16Zm52.9,36.92c-.33.73-.69,1.24-.98,1.59-.56.67-.8,1.41-1.59,1.94-.25.17-.31.46-.33.76-.02.31-.11.62-.2.92-.17.63-.58,1.13-.99,1.62-.25.29-.36.62-.47.97-.32.98-.69,1.95-1.05,2.92-.12.33-.35.56-.66.72-.14.07-.3.22-.34.36-.11.36-.19.75-.21,1.12-.04.82-.25,1.57-.74,2.24-.19.26-.49.47-.57.75-.08.3.06.66.06.99,0,.43-.05.86-.11,1.28-.1.74-.2,1.51-.56,2.16-.26.48-.23.87-.09,1.35.14.47.37.92.33,1.43-.03.4-.02.8-.07,1.19-.1.79-.38,1.52-.86,2.15-.26.34-.34.69-.37,1.1-.04.54-.09,1.1-.28,1.59-.34.84-.88,1.59-1.5,2.26-.13.14-.19.27-.19.47,0,.64-.11,1.27-.36,1.86-.14.32-.28.65-.38.98-.23.74-.61,1.37-1.19,1.87-.3.26-.38.55-.39.92-.05,1.45-.41,2.8-1.32,3.97-.17.22-.17.42-.06.66.08.18.13.39.13.6.02.56.02,1.11.03,1.67,0,.05,0,.09-.02.14-.12.51-.26,1.02-.36,1.53-.08.43-.19.84-.5,1.17-.12.13-.16.26-.13.43.1.51.19,1.03.27,1.55.03.23.06.48.03.71-.14.94-.48,1.81-.92,2.65-.13.24-.19.47-.13.73.16.76.08,1.52-.07,2.28-.06.32-.13.6-.29.88-.09.17-.15.41-.1.59.15.6.34,1.19.56,1.77.14.38.41.7.77.89.88.47,1.82.65,2.81.56.3-.03.45-.16.59-.4.37-.63.75-1.25,1.12-1.88.16-.27.3-.56.45-.84.09-.17.15-.37.27-.5.5-.52.72-1.21.99-1.84.5-1.19,1.17-2.3,1.54-3.55.22-.75.49-1.48.74-2.22.04-.12.09-.24.14-.36.65-1.53,1.13-3.11,1.53-4.72.19-.76.47-1.49.61-2.26.31-1.71.59-3.42.83-5.14.12-.85.17-1.71.23-2.57.07-.99.13-1.97.15-2.96.03-1.15.05-2.29.02-3.44-.03-1.26-.13-2.52-.16-3.77-.02-1.23.06-2.45.03-3.68-.03-1.42.08-2.83.18-4.25.1-1.33.27-2.66.52-3.97.3-1.56.52-3.14,1.08-4.64.73-1.94,1.09-3.49,1.45-4.5.41-1.13.78-2.08,1.06-2.78Zm19.76-16.6s-.04-.04-.07-.06c-.18.1-.36.2-.53.31-.59.4-1.2.78-1.76,1.23-.53.43-1.03.91-1.7,1.12-.07.02-.14.07-.2.13-.35.35-.73.68-1.02,1.07-.65.85-1.58,1.32-2.44,1.89-.23.15-.4.3-.5.54-.13.33-.25.66-.39.98-.11.25-.22.5-.35.73-.44.75-1.13,1.24-1.76,1.81-.16.15-.28.29-.32.51-.06.36-.13.72-.21,1.08-.2.87-.38,1.74-.61,2.61-.19.73-.43,1.44-1.03,1.96-.17.14-.19.31-.19.51,0,1.25-.16,2.48-.45,3.69-.12.51-.34.96-.69,1.34-.16.18-.21.35-.18.56.07.44-.02.86-.12,1.28-.11.45-.23.9-.31,1.35-.16.86-.48,1.65-.97,2.37-.14.2-.24.41-.19.67.02.11-.01.22-.03.33-.16,1.24-.54,2.42-.93,3.6-.2.59-.51,1.1-1,1.48-.22.17-.31.36-.33.64-.06.87-.06,1.75-.34,2.6-.31.93-.53,1.9-1.11,2.73-.17.25-.26.53-.31.84-.19.98-.65,1.79-1.51,2.33-.18.11-.24.24-.19.44.13.44.24.89.4,1.32.08.22.11.37-.05.56-.14.17-.29.38-.31.58-.06.65-.1,1.3-.06,1.95.04.61.2,1.22.31,1.84-.26.17-.44.38-.43.7.01.79.12,1.57.46,2.28.2.41.18.74.02,1.12-.11.26-.12.51-.04.79.07.23.09.51.05.74-.12.64-.3,1.27-.43,1.91-.12.58-.21,1.16-.3,1.74-.03.22-.03.46.17.62.25.2.23.45.13.69-.17.41-.37.81-.58,1.21-.15.3-.35.57-.48.88-.25.57-.52,1.13-.7,1.72-.12.4-.3.81-.16,1.26.03.09,0,.23-.05.31-.26.42-.55.82-.8,1.24-.54.9-1.03,1.84-1.35,2.84-.1.3-.14.69-.04.98.12.36-.03.52-.25.72-.51.45-1.02.91-1.51,1.39-.51.51-.58,1.21-.8,1.94.39,0,.71.03,1.02-.01.21-.03.45-.1.6-.24.73-.69,1.48-1.36,2.13-2.13.6-.71,1.08-1.53,1.62-2.31.44-.64.89-1.28,1.33-1.93.51-.77,1.07-1.51,1.49-2.33.74-1.41,1.29-2.91,1.79-4.42.3-.91.67-1.79.99-2.69.26-.75.51-1.51.73-2.27.21-.75.37-1.52.54-2.28.13-.59.27-1.18.37-1.77.12-.67.16-1.37.33-2.03.36-1.42.67-2.85.83-4.31.06-.59.13-1.17.21-1.75.1-.71.21-1.42.31-2.12.05-.36.11-.72.15-1.09.08-.7.13-1.39.22-2.09.14-1.04.3-2.08.44-3.12.12-.88.22-1.77.37-2.65.31-1.79.64-3.57.98-5.35.24-1.28.5-2.56.75-3.84.12-.64.25-1.28.36-1.92.19-1.15.35-2.3.56-3.44.14-.75.32-1.49.5-2.23.19-.78.37-1.58.63-2.34.37-1.07.79-2.12,1.24-3.16.26-.61.58-1.21.93-1.77.39-.61.87-1.17,1.31-1.76.74-1.01,1.56-1.93,2.49-2.76.12-.11.22-.23.32-.35.59-.71,1.17-1.43,1.77-2.13.4-.47.82-.92,1.24-1.38Zm-42.27,43.36c.13-.26.26-.48.35-.72.54-1.32.52-2.67.26-4.04-.06-.33-.11-.66-.22-.97-.08-.22-.08-.39.03-.59.23-.41.29-.87.36-1.33.15-.98.05-1.94-.11-2.9-.1-.64-.16-1.3-.53-1.87-.1-.15,0-.26.05-.4.12-.27.28-.55.3-.84.04-.55.02-1.11-.02-1.67-.02-.29-.14-.57-.24-.93.11-.15.06-.39-.02-.64-.25-.77-.49-1.55-.73-2.32-.07-.24-.13-.49-.17-.75-.16-1.06-.29-2.12-.46-3.17-.24-1.53-.51-3.05-.74-4.58-.16-1.1-.27-2.21-.4-3.32-.04-.28-.08-.57-.15-.85-.2-.93-.18-1.9-.48-2.82-.31-.97-.56-1.96-.84-2.94-.13-.46-.27-.92-.45-1.36-.28-.71-.58-1.41-.88-2.11-.64-1.51-1.29-3.01-1.94-4.52-.29-.67-.59-1.34-.82-2.04-.26-.77-.57-1.52-1.07-2.17-.04-.05-.06-.09-.09-.13-.09-.14-.14-.26-.15-.29-.07-.15-1.4-3.1-1.5-3.06-.09.03.71,2.61,1.12,3.3.04.07.21.37.38.8.04.1.07.21.11.34.19.76.39,1.51.55,2.27.1.43.17.88.19,1.32.02.3.08.54.24.8.29.45.6.92.77,1.42.29.86.41,1.76.45,2.68,0,.11.01.23.06.33.2.48.4.98.64,1.44.25.47.33.96.27,1.48-.08.68-.13,1.37-.28,2.03-.11.48-.05.9.1,1.35.33.96.44,1.95.33,2.97-.05.51-.07,1.02-.16,1.52-.05.27-.15.56-.33.77-.21.26-.24.48-.18.79.17.86.31,1.72.46,2.59.07.4.06.79-.05,1.18-.08.29-.13.61-.09.89.15.89.35,1.78.55,2.66.15.64.1,1.27-.1,1.88-.07.23-.06.41.06.63.38.64.59,1.37.66,2.08.07.68.02,1.4-.19,2.08-.06.19-.1.42-.05.61.22.94,0,1.84-.18,2.74-.03.13-.1.32-.2.36-.33.14-.34.4-.32.67.05.88.32,1.72.61,2.54.27.76.69,1.44,1.32,1.96.19.16.21.33.19.55-.02.25-.05.52,0,.76.16.68.31,1.37.57,2.02.27.68.56,1.36,1.1,1.89.2.19.24.38.23.63-.03.54.07,1.05.35,1.52.29.48.58.95.91,1.4.19.26.4.52.78.65.18-.62.37-1.21.29-1.84-.03-.27-.15-.54-.1-.79.14-.72-.02-1.36-.46-1.96ZM30.43,54.2s.59.95,1.24,1.82c.32.42.52.93,1.06,1.34,1.16.9,2.18,1.91,2.64,3.36.05.17.12.33.17.5.19.56.46,1.09.89,1.51.97.92,1.46,2.09,1.6,3.38.07.6.34,1.04.64,1.51.06.09.16.17.2.26.43.91.8,1.84,1.02,2.83.26,1.14.63,2.23,1.28,3.21.39.59.75,1.23,1.04,1.88.29.67.47,1.39.72,2.08.22.61.44,1.23.87,1.74.26.3.45.66.68.99.42.63.59,1.33.63,2.08.04.72.13,1.43.22,2.14.01.12.06.25.13.35.45.66.91,1.31,1.37,1.96.48.67.93,1.34.93,2.21,0,.16,0,.33.03.48.06.22.11.49.26.65.79.84,1.33,1.82,1.84,2.84.36.72.4,1.53.5,2.32.05.35.17.62.42.87.78.79,1.46,1.65,1.96,2.63.14.28.26.58.35.89.1.37.14.75.24,1.12.03.12.12.27.23.33.66.42,1.16.98,1.59,1.62.57.85,1.11,1.72,1.28,2.75.06.39.26.63.52.87.33.3.66.6.95.94.24.29.4.65.62.97.34.49.58,1.02.65,1.62.06.52.12,1.05.66,1.33.05.03.08.1.12.15.43.64.86,1.26,1.27,1.91.15.24.26.52.3.8.05.36.24.57.52.75.57.35,1.23.39,1.91.63-.02-.22,0-.38-.06-.52-.19-.45-.38-.91-.63-1.33-.31-.52-.66-1.02-1.02-1.5-.43-.59-.82-1.22-1.41-1.67-.15-.12-.14-.26-.14-.43-.03-.76-.03-1.53-.3-2.26-.19-.49-.42-.96-.63-1.44-.22-.5-.48-.96-1.1-1.1.06-.09.08-.15.13-.19.32-.3.36-.66.24-1.06-.05-.18-.12-.37-.2-.54-.54-1.1-1.11-2.19-2.14-2.98.21-.53.16-1.08.07-1.61-.12-.67-.31-1.33-.47-2-.27-1.07-.82-1.99-1.54-2.82-.26-.3-.51-.61-.72-.95-.47-.75-.94-1.51-1.33-2.31-.43-.91-.93-1.78-1.39-2.67-.75-1.44-1.45-2.91-2.06-4.42-.37-.92-.74-1.83-1.11-2.75-.19-.47-.33-.97-.57-1.42-.62-1.17-1.11-2.4-1.54-3.65-.71-2.07-1.81-3.93-2.88-5.82-.74-1.31-1.62-2.55-2.45-3.81-.43-.65-.89-1.28-1.35-1.91-.81-1.11-1.62-2.21-2.44-3.3-.81-1.08-1.64-2.15-2.48-3.22-.26-.33-.59-.63-.9-.92-.35-.33-.71-.63-1.07-.95-.15-.13-.3-.27-.36-.33-.99-.9-1.67-1.78-1.72-1.74Zm54.75,34.76c.15-.29.27-.49.36-.7.32-.78.35-1.61.51-2.43.09-.45.03-.89-.13-1.31-.13-.35-.13-.38.18-.59.51-.35.85-.84.97-1.43.16-.78.27-1.57.38-2.35.03-.2.03-.36.26-.44.54-.18.86-.58,1.06-1.09.11-.3.21-.6.33-.9.26-.65.5-1.31.59-2.01.03-.26.11-.45.32-.6.15-.11.25-.24.23-.48-.05-.7-.05-1.4-.06-2.1-.02-1.11-.02-2.23-.05-3.34-.01-.48-.1-.95-.07-1.43.05-1,.14-2,.23-3,.1-1.17.2-2.35.33-3.52.13-1.15.26-2.31.43-3.45.22-1.46.47-2.92.76-4.37.24-1.22.54-2.42.86-3.62.47-1.74.97-3.47,1.47-5.2.54-1.85,1.16-3.68,2.08-5.39.64-1.19,1.46-2.31,2.12-3.23,1.01-1.43,2.02-2.69,1.98-2.73-.05-.04-1.67,1.98-2.29,2.26-.06.03-.33.14-.5.41-.04.06-.08.13-.11.22-.07.22-.26.4-.41.58-.26.32-.53.64-.8.95-.44.48-.89.95-1.33,1.43-.13.14-.27.28-.34.45-.39.92-1.06,1.66-1.58,2.5-.23.38-.47.76-.75,1.11-.19.25-.3.51-.37.81-.21.9-.4,1.81-.86,2.63-.12.21-.26.41-.34.63-.15.38-.35.72-.66.99-.35.3-.5.66-.49,1.13.04,1.05-.42,1.92-1.14,2.64-.26.25-.36.5-.36.82-.02.78-.04,1.56-.08,2.34-.04.85-.1,1.73-.56,2.45-.34.54-.41,1.07-.44,1.64-.04.73-.1,1.47-.08,2.2.02.66-.02,1.31-.26,1.93-.2.49-.25,1.07-.71,1.44-.07.05-.08.2-.08.3.02.78.08,1.56.07,2.34-.01.89-.13,1.75-.78,2.45-.09.09-.09.3-.08.44.05.48.12.95.19,1.42.16,1.12,0,2.23-.06,3.34-.03.58-.35,1.08-.59,1.6-.06.13-.15.27-.14.39.09.65-.12,1.27-.25,1.89-.08.38-.19.8-.42,1.1-.4.51-.48,1.08-.43,1.67.07.73.2,1.45.32,2.17.04.25.07.53.21.73.19.26.2.52.19.81-.02.3,0,.61.01.91,0,1,.49,1.78,1.16,2.63Zm-5.93-69.95c-.61,6.2-.68,8.6-.6,9.57.02.21.09.92.09,1.9,0,.68-.04.97-.06,1.91-.01.6.03,1.21-.01,1.81-.14,1.99-.08,3.98.18,5.96.17,1.26.26,2.54.14,3.82-.03.35.02.7.02,1.05,0,.64.01,1.27-.01,1.91-.03.73-.14,1.46-.14,2.19,0,1.18.19,2.35.41,3.5.23,1.2.42,2.41.51,3.63.02.35.04.7.07,1.05.08.74.17,1.49.25,2.23.05.54.1,1.08.13,1.62.08,1.38.19,2.77.22,4.15.02,1.16-.05,2.33-.08,3.49-.02.78-.03,1.56-.08,2.34-.06,1.02-.14,2.04-.2,3.05-.02.32,0,.64-.01.96-.03.86-.09,1.72-.11,2.58-.03,1.48-.03,2.97-.04,4.45,0,.8-.04,1.59.11,2.38.25,1.38.46,2.76.69,4.14.23,1.37.45,2.74.68,4.1.18,1.05.38,2.1.58,3.14.04.22.07.44.11.66.09.55.18,1.1.28,1.65.07.4.15.79.25,1.3.25-.31.42-.53.61-.74.74-.84,1.09-1.84,1.09-2.94,0-.5.03-.94.47-1.26.06-.04.09-.13.14-.19.99-1.53.8-3.13.22-4.72-.15-.41-.46-.75-.71-1.12-.24-.35-.53-.69-.59-1.13-.08-.68-.28-1.34-.22-2.04,0-.11,0-.22-.03-.33-.16-.75-.32-1.49-.5-2.24-.18-.74-.19-1.48-.09-2.23.03-.24.02-.52-.06-.75-.22-.57-.36-1.15-.41-1.76-.13-1.35-.19-2.71.09-4.05.08-.36.02-.69-.08-1.03-.11-.36-.22-.74-.24-1.11-.08-1.18.04-2.35.22-3.52.05-.34.06-.7.02-1.04-.18-1.62-.37-3.24.16-4.84.05-.14.05-.33,0-.47-.27-.73-.29-1.5-.43-2.25-.18-.98-.08-1.93.23-2.88.05-.14.07-.32.02-.46-.34-1.01-.41-2.06-.58-3.1-.11-.63-.08-1.26.02-1.9.08-.48.17-.96.04-1.46-.2-.77-.37-1.55-.47-2.34-.11-.8-.17-1.62-.18-2.43,0-.4.06-.84.23-1.21.13-.28.13-.49.05-.76-.38-1.25-.82-2.49-.99-3.79-.07-.54-.15-1.07-.16-1.61,0-.36-.07-.69-.17-1.03-.13-.42-.25-.85-.33-1.29-.08-.49-.11-.98-.16-1.47-.1-.94-.22-1.87.05-2.8.09-.3.04-.59-.1-.88-.25-.54-.43-1.1-.47-1.69-.02-.35-.11-.69-.15-1.04-.07-.53-.14-1.08.09-1.56.12-.24.09-.24.13-.45.14-.72-.06-1.25-.06-1.25-.03-.19-.08-.47-.11-.81-.07-.67-.15-1.51.03-2.48.09-.48.18-.62.18-1.05,0-.45-.08-.83-.16-1.08Zm-21.42,99.08c.06.21.08.44.19.6.39.56.75,1.15,1.35,1.53.24.15.49.3.74.44.66.39,1.35.73,2.11.85.33.05.5.22.67.46.37.51.8.95,1.37,1.24.55.29,1.1.57,1.67.82.39.17.8.32,1.21.41.55.11,1.14,0,1.68.26.07.03.16.01.24.02.5.01.93-.21,1.36-.41.23-.11.21-.34.18-.54-.03-.13-.12-.26-.2-.38-.59-.83-1.33-1.5-2.16-2.08-.31-.21-.64-.4-.98-.61.28-.66.01-1.17-.45-1.62-.08-.08-.15-.17-.22-.26-.61-.82-1.29-1.57-2.1-2.21-.47-.37-.95-.6-1.53-.72-.37-.08-.76-.19-1.06-.4-.52-.37-1.08-.67-1.63-.97-.01,0-.03-.02-.04-.03-1.08-.65-2.14-1.32-3.08-2.17-.29-.26-.63-.53-.79-.87-.16-.32-.35-.55-.63-.74-.22-.15-.42-.34-.62-.52-.44-.42-.89-.82-1.3-1.27-.43-.47-.81-.98-.93-1.64-.03-.16-.12-.33-.23-.44-.51-.55-1.04-1.08-1.56-1.61-.2-.2-.46-.37-.6-.61-.43-.69-.86-1.38-1.19-2.12-.23-.52-.47-1-.89-1.39-.27-.25-.51-.52-.76-.79-.49-.54-1.05-1.04-1.4-1.69-.16-.29-.34-.59-.4-.91-.06-.31-.2-.47-.44-.63-.24-.15-.47-.33-.67-.53-.83-.82-1.64-1.66-2.46-2.48-.44-.44-.75-.94-.93-1.53-.04-.12-.13-.25-.24-.32-.6-.37-1.21-.7-1.81-1.08-.39-.24-.75-.53-1.13-.8-.18-.13-.35-.25-.56-.4-.11.37.01.64.18.86.54.73,1.07,1.47,1.67,2.14.56.62,1.2,1.19,1.85,1.72.34.27.66.48.56.97-.02.09.04.19.05.28.11.62.47,1.13.85,1.59.67.81,1.4,1.57,2.13,2.32.21.21.3.42.33.7.03.28.09.57.15.84.14.63.52,1.16.85,1.7.39.64.84,1.24,1.37,1.77.27.26.39.55.47.9.15.68.29,1.38.53,2.03.38,1.03.88,2,1.66,2.82.62.65,1.14,1.4,1.85,1.98.07.06.12.19.12.29,0,.53.22,1,.51,1.41.46.65.99,1.25,1.65,1.72.67.48,1.34.98,2.03,1.43.44.28.85.62,1.41.67Zm-28.75-34.67c2.8,2.72,4.1,4.16,4.73,4.97.05.07.28.37.61.78.59.76,1.2,1.5,1.8,2.26.36.46.73.92,1.08,1.4.25.35.47.72.7,1.08.05.08.07.18.12.26.42.64.86,1.27,1.26,1.92.26.42.46.87.69,1.31.23.44.47.87.69,1.31.22.44.39.91.61,1.34.43.84.87,1.66,1.32,2.49.57,1.05,1.15,2.1,1.71,3.15.16.29.27.62.43.91.32.59.66,1.16,1,1.74.37.64.64,1.34,1.09,1.95.51.69.92,1.45,1.42,2.16.71,1.02,1.45,2.02,2.2,3.01.44.58.9,1.16,1.42,1.68,1.03,1.04,2.1,2.05,3.15,3.07.17.16.37.3.56.44.65.48,1.32.95,1.96,1.44.61.46,1.17.99,1.8,1.42.78.53,1.58,1.01,2.41,1.46.97.52,1.93,1.03,2.99,1.38.94.31,1.83.74,2.82.88.43.06.86.08,1.28.14.73.11,1.45.18,2.18.12.55-.04,1.12,0,1.67.07.97.12,1.92.14,2.9-.18-.06-.05-.09-.11-.14-.13q-.66-.33-1.09-.96s-.04-.05-.06-.08c-.24-.25-.49-.5-.74-.74-.62-.63-1.41-.91-2.25-1.08-.12-.02-.29.01-.39.09-.4.31-.87.47-1.35.6-.5.14-1,.15-1.5-.07-.14-.06-.31-.11-.46-.11-.65,0-1.24-.22-1.83-.49-.91-.4-1.81-.8-2.58-1.43-.26-.21-.47-.47-.71-.7-.11-.11-.22-.25-.36-.3-.89-.28-1.68-.75-2.49-1.2-.87-.49-1.5-1.24-2.06-2.03-.19-.27-.38-.49-.65-.67-.68-.45-1.35-.9-2.02-1.35-.83-.55-1.58-1.18-2.22-1.95-.41-.5-.74-1.05-.92-1.66-.08-.27-.18-.49-.36-.69-.6-.68-1.23-1.34-1.79-2.06-.37-.47-.71-.99-.97-1.53-.47-.96-.73-2-1.02-3.03-.04-.16-.12-.33-.22-.46-.52-.72-1.07-1.43-1.59-2.16-.56-.78-.87-1.67-1.04-2.6-.06-.34-.19-.59-.42-.83-.64-.67-1.29-1.33-1.91-2.01-.52-.56-.93-1.21-1.02-1.96-.05-.46-.18-.78-.57-1-.07-.04-.12-.1-.18-.16-.77-.78-1.58-1.53-2.31-2.35-.61-.67-1.15-1.41-1.3-2.35-.02-.11-.11-.23-.21-.3-.24-.19-.5-.35-.74-.52-.28-.21-.56-.41-.83-.64-.23-.2-.44-.42-.66-.63-.7-.67-1.45-1.3-1.86-2.22-.1-.23-.32-.28-.47-.38-.54-.37-1.04-.5-1.2-.55-.46-.13-1.15-.45-2.12-1.27Zm65.04,39.43c.65-.06,1.19-.35,1.63-.77.74-.72,1.45-1.48,2.13-2.26.2-.22.32-.56.36-.86.03-.29.14-.4.38-.46.44-.11.84-.29,1.17-.61.37-.35.75-.68,1.13-1.03.79-.72,1.33-1.59,1.52-2.65.04-.25.17-.4.39-.5.64-.28,1.08-.77,1.42-1.37.36-.62.74-1.23,1.06-1.87.37-.76.7-1.54,1.01-2.32.17-.42.18-.86-.08-1.29-.15-.25-.1-.35.15-.56.14-.12.31-.24.41-.4.4-.67.83-1.33.97-2.12.05-.27.14-.52.21-.79.24-1,.41-2,.21-3.06.58-.22.92-.71,1.13-1.3.03-.09.09-.17.14-.25.44-.73.65-1.52.62-2.37,0-.16.03-.28.18-.35.53-.25.85-.7,1.14-1.19.62-1.03.96-2.15,1.13-3.32.04-.27.12-.47.37-.62.48-.31.86-.72,1.08-1.24.22-.51.36-1.05.52-1.58.07-.23.2-.38.36-.54.37-.37.71-.77,1.06-1.16.19-.21.36-.44.53-.66.26-.34.58-.65.76-1.03.75-1.66,1.88-3.06,2.92-4.53.16-.22.33-.43.49-.65-.02-.02-.05-.05-.07-.07-.15.07-.31.14-.46.23-.28.16-.54.35-.83.47-.49.21-.85.55-1.14.98-.22.32-.42.65-.68.92-.57.58-1.18,1.12-1.76,1.68-.08.07-.18.16-.2.25-.15.64-.57,1.1-1,1.55-.59.63-1.21,1.23-1.79,1.86-.17.18-.31.41-.38.64-.34,1.1-.82,2.1-1.68,2.9-.12.11-.23.27-.28.43-.14.44-.28.88-.38,1.33-.22.99-.62,1.87-1.34,2.6-.07.08-.15.18-.16.28-.12.96-.51,1.84-.83,2.74-.34.96-.8,1.85-1.48,2.61-.42.47-.64.98-.77,1.58-.19.82-.49,1.62-.74,2.42-.24.78-.62,1.48-1.2,2.04-.41.39-.73.79-.71,1.39,0,.06-.02.13-.04.19-.23.58-.45,1.15-.7,1.72-.31.72-.79,1.32-1.42,1.77-.36.25-.58.58-.76.95-.1.2-.17.42-.29.6-.26.4-.52.8-.82,1.17-.27.33-.63.57-.86.95-.31.53-.69,1.02-1.04,1.54-.2.3-.26.63-.33.98-.12.64-.22,1.33-.93,1.66-.08.04-.14.13-.21.19-.66.68-1.23,1.43-1.59,2.31-.06.15-.13.3-.33.3-.55,0-.9.36-1.27.69-.44.39-.74.91-1.24,1.24-.13.09-.25.2-.36.31-.24.23-.43.48-.59.85.27-.01.47-.01.67-.03.17-.02.34-.09.51-.1.49-.02.95-.15,1.37-.38.8-.44,1.48-1.01,1.62-2.05Zm-8.27,3.39c.28.12.9.34,1.67.23.15-.02.76-.15,1.4-.58.38-.26.64-.7.96-1.05.33-.36.66-.73,1-1.08.29-.3.61-.56.9-.86.4-.42.83-.8,1.4-.97.17-.05.25-.15.34-.3.3-.5.6-1.02.96-1.48.3-.39.65-.74,1.03-1.05.21-.17.39-.33.46-.58.07-.24.1-.5.16-.74.05-.21.08-.44.17-.63.22-.44.45-.88.71-1.3.26-.42.4-.93.81-1.25.03-.03.04-.09.05-.13.08-.32.15-.65.25-.97.22-.73.39-1.47.79-2.14.13-.21.18-.48.24-.72.07-.29.11-.6.18-.89.19-.79.32-1.6.78-2.3.06-.1.07-.25.07-.37-.03-.67.08-1.33.16-2,.11-.88.27-1.73.6-2.55.16-.41.23-.83.2-1.26-.07-.79.06-1.56.17-2.33.05-.39.09-.8.22-1.17.2-.58.31-1.14.31-1.76.01-1.42.18-2.83.64-4.19.16-.49.31-.96.11-1.48-.04-.11-.04-.25-.03-.38.05-.97.11-1.94.17-2.91,0-.08.03-.16.06-.23.27-.76.61-1.51.42-2.36-.01-.06.03-.12.03-.19,0-.79.22-1.54.38-2.3.06-.29.15-.56.35-.77.15-.16.18-.33.15-.52-.05-.36-.11-.72-.15-1.09-.12-1.21-.2-2.42.07-3.62.15-.65.31-1.31.57-1.92.34-.78.5-1.57.54-2.4.06-1.2.24-2.38.81-3.47.06-.12.11-.27.08-.4-.23-1.35-.03-2.67.33-3.97.21-.77.46-1.55.94-2.19.45-.61.61-1.22.75-1.47.93-1.71,2.19-3.27,2.88-4.09-1.57,1.54-2.62,3.02-3.29,4.13-.75,1.22-1.24,2.24-1.47,2.84-.48,1.25-1.01,2.47-1.35,3.77-.56,2.13-.92,4.3-1.27,6.47-.08.5-.14,1.01-.24,1.51-.21,1.06-.46,2.12-.67,3.18-.18.92-.32,1.85-.49,2.77-.2,1.13-.41,2.25-.61,3.38-.25,1.38-.54,2.75-.61,4.15,0,.05-.03.09-.03.14-.11.74-.22,1.48-.31,2.22-.11.9-.2,1.8-.32,2.7-.16,1.18-.36,2.36-.54,3.55-.16,1.07-.31,2.14-.49,3.21-.08.52-.23,1.03-.31,1.54-.16.93-.26,1.86-.45,2.78-.14.72-.37,1.42-.54,2.13-.14.56-.2,1.13-.38,1.67-.5,1.49-1.05,2.97-1.58,4.46-.48,1.35-.95,2.7-1.61,3.98-.44.85-.89,1.68-1.45,2.46-.89,1.23-1.76,2.46-2.61,3.72-1.48,2.19-1.98,2.83-2.99,3.19-.57.21-1.1.23-1.46.22ZM31.03,54.46c-.06.08,1.28,1.27,2.05,1.88.08.07.32.25.62.52.26.23.54.45.75.72.57.71,1.1,1.44,1.66,2.16.56.72,1.16,1.4,1.69,2.13,1.14,1.57,2.25,3.17,3.37,4.76.32.46.59.94.91,1.4.91,1.33,1.7,2.73,2.47,4.15.42.78.78,1.61,1.13,2.43.35.82.64,1.66.98,2.49.63,1.53,1.27,3.06,1.91,4.59.15.37.31.73.47,1.1.56,1.25,1.12,2.5,1.69,3.75.31.68.64,1.35.99,2.02.39.77.81,1.52,1.21,2.28.69,1.33,1.49,2.6,2.48,3.73.07.08.17.12.33.23.04-.3.09-.53.1-.76.09-1.64-.19-3.24-.54-4.82-.09-.42-.27-.83-.28-1.25-.03-1.3-.17-2.58-.42-3.84-.03-.17-.14-.37-.27-.48-.2-.16-.2-.32-.15-.55.06-.28.11-.56.11-.85,0-.37-.05-.73-.08-1.1-.05-.71-.24-1.38-.58-2.01-.08-.14-.22-.35-.34-.36-.64-.05-1.06-.5-1.55-.8-.31-.2-.56-.52-.8-.81-.16-.19-.3-.39-.52-.54-.48-.34-.94-.7-1.27-1.21-.38-.59-.86-1.12-1-1.83-.02-.1-.09-.21-.16-.29-.31-.36-.63-.72-.94-1.08-.73-.85-1.41-1.72-1.6-2.81-.25-.18-.47-.31-.65-.48-.74-.68-1.46-1.38-1.88-2.32-.1-.22-.25-.43-.27-.65-.03-.31-.2-.44-.42-.58-.44-.28-.88-.57-1.3-.89-.7-.52-1.19-1.24-1.67-1.95-.46-.69-.9-1.38-1.51-1.95-.3-.28-.62-.56-.86-.89-.71-.93-1.4-1.89-2.09-2.84-.07-.1-.16-.19-.27-.26-.66-.4-1.16-.72-1.4-.82-1.27-.51-2.06-1.36-2.11-1.3Zm51.03,73.99c.04.05.05.07.06.08.31.1.86-.13,1-.21.35-.2.33-.28,1.31-1.26.15-.15.34-.34.5-.64.09-.18.17-.37.22-.57.09-.4.36-.75.32-1.18,0-.06.04-.12.08-.17.26-.34.5-.7.79-1.01.37-.39.78-.75,1.19-1.11.16-.15.21-.3.18-.51-.07-.45.01-.88.19-1.31.47-1.12,1.04-2.18,1.67-3.22.21-.35.48-.68.37-1.14-.02-.07.01-.16.04-.23.4-1.23.8-2.45,1.53-3.54.15-.22.26-.48.37-.72.1-.24.16-.48-.06-.71-.24-.25-.24-.59-.2-.9.04-.38.1-.76.18-1.13.21-.91.43-1.82.47-2.76.01-.24,0-.48.01-.72.02-.24.03-.48.09-.7.08-.26.09-.49,0-.75-.12-.32-.28-.65-.35-.98-.09-.42-.11-.85-.17-1.28-.04-.31-.01-.6.16-.87.19-.31.22-.65.15-1.01-.09-.44-.16-.88-.16-1.33-.01-.54.02-1.08.09-1.62.04-.29.31-.55.32-.83,0-.3-.21-.59-.27-.9-.12-.57-.21-1.15-.29-1.74-.13-1.02-.15-2.03.27-3.01.05-.11.03-.25.02-.37-.05-.46-.15-.91-.17-1.37-.04-.78-.04-1.56-.05-2.34,0-.46.09-.91.36-1.27.21-.27.23-.52.15-.8-.24-.77-.22-1.53-.09-2.32.15-.91.26-1.83.55-2.71.07-.23.04-.5.04-.75,0-.3-.02-.6-.04-.9-.05-.65.17-1.26.33-1.87.12-.5.24-1,.65-1.31-.09-.59-.14-1.29-.11-2.07.06-1.55.45-2.82.8-3.7-.38.93-.61,1.69-.76,2.22-.14.51-.32,1.28-.59,2.23-.07.26-.14.51-.22.76-.34,1.13-.74,2.24-1.1,3.36-.09.27-.19.54-.25.82-.17.83-.33,1.66-.49,2.49-.09.48-.21.97-.27,1.45-.1.79-.18,1.58-.22,2.38-.08,1.29-.13,2.58-.17,3.86-.03.9-.03,1.81-.03,2.72,0,.75-.01,1.5,0,2.25.04,1.45.15,2.9.15,4.35,0,1.23-.09,2.45-.16,3.68-.09,1.48-.2,2.96-.33,4.43-.07.71-.22,1.42-.34,2.12-.13.79-.22,1.58-.4,2.35-.21.9-.51,1.78-.73,2.68-.36,1.49-.84,2.94-1.42,4.36-.09.21-.17.41-.24.62-.35,1.02-.69,2.05-1.05,3.07-.08.24-.22.46-.33.69-.17.34-.33.69-.49,1.04-.35.77-.65,1.56-1.04,2.31-.43.82-.93,1.59-1.39,2.39-.22.38-.41.77-.61,1.14Zm34.68-43c-.87.85-1.38,1.62-1.69,2.17-.22.39-.37.71-.37.71-.24.99-.71,1.84-1.47,2.52-.2.18-.31.38-.39.64-.21.77-.4,1.55-.69,2.28-.32.81-.73,1.6-1.45,2.16-.1.08-.18.23-.21.35-.09.36-.12.72-.21,1.08-.24.88-.56,1.73-1.16,2.43-.27.31-.39.64-.46,1.02-.15.91-.33,1.82-.49,2.73-.19,1.09-.69,2.04-1.3,2.95-.09.13-.11.32-.12.49-.04.36.04.76-.09,1.08-.37.97-.79,1.91-1.23,2.85-.22.48-.53.91-.77,1.38-.37.72-.87,1.33-1.54,1.79-.23.16-.36.34-.44.59-.23.78-.67,1.44-1.18,2.05-.33.39-.7.75-1.06,1.11-.45.46-.94.87-1.57,1.05-.19.06-.26.2-.35.36-.15.29-.31.6-.52.85-.48.59-1.02,1.14-1.5,1.74-.51.62-1.12,1.07-1.85,1.38-.12.05-.27.15-.32.26-.25.58-.71.97-1.14,1.4-.47.47-1.07.7-1.7.8-.73.11-1.47.09-2.15.46-.35.19-.73.32-1.08.5-.4.21-.81.25-1.25.14-.54-.13-1.08-.23-1.64-.34-.14.24-.26.45-.4.7.58.35,1.18.49,1.77.26.65-.26,1.3-.39,1.99-.45.79-.07,1.58-.22,2.37-.33.36-.05.74-.03,1.09-.11,1.07-.25,2.11-.61,3.06-1.2.58-.36,1.21-.64,1.77-1.04,1.29-.92,2.36-2.09,3.46-3.21.77-.78,1.48-1.64,2.13-2.52,1.14-1.55,2.25-3.12,3.05-4.9.38-.86.88-1.66,1.29-2.5.54-1.09,1.06-2.18,1.55-3.28.43-.98.83-1.97,1.19-2.97.34-.96.65-1.94.92-2.92.4-1.41.71-2.84,1.13-4.25.69-2.33,1.56-4.59,2.49-6.83.28-.68.52-1.22.63-1.45.73-1.64,1.4-2.98,1.91-3.97Zm-26.12-11.18s.07.01.1.02c.31-.47.58-.97.48-1.54-.09-.51.15-.81.47-1.12.31-.29.6-.61.91-.91.19-.19.21-.39.18-.65-.13-.98-.16-1.96,0-2.95.13-.85.2-1.71.26-2.56.02-.36.1-.65.38-.89.28-.24.36-.52.3-.89-.11-.81-.11-1.62.02-2.43.07-.44-.02-.89.18-1.32.02-.04.01-.1,0-.14-.09-.5-.13-1.02-.29-1.5-.21-.6-.13-1.12.21-1.63.2-.3.24-.6.17-.96-.25-1.32-.06-2.59.45-3.83.08-.2.1-.43.1-.65.01-.51-.06-1.03,0-1.53.12-.88.35-1.73,1.06-2.34.2-.17.19-.38.21-.6.05-.52.1-1.04.18-1.56.05-.35.12-.69.24-1.02.18-.51.24-1.1.78-1.43.08-.05.1-.22.13-.33.15-.58.26-1.18.46-1.75.26-.74.58-1.46,1.18-1.99.21-.18.33-.38.35-.65.03-.36.34-1.39.67-2.23.21-.53.53-1.21,1.01-1.97-.48.72-1.26,1.88-2.21,3.33-1.57,2.36-1.98,3.01-2.48,4.02-.49.98-.87,2.02-1.19,3.07-.67,2.21-1.28,4.44-1.88,6.67-.37,1.35-.69,2.72-1,4.08-.15.68-.23,1.38-.33,2.07-.16,1.09-.3,2.18-.45,3.27-.14,1.03-.28,2.05-.4,3.08-.07.57-.08,1.15-.15,1.71-.19,1.57-.31,3.14-.18,4.72.12,1.48.19,2.96.08,4.44-.02.3,0,.59,0,.89Zm-28.87-31.89c-.08.06.91,1.36,1.86,3.21.48.94.76,1.72,1.32,3.07.42,1.02.83,2.03,1.25,3.05.09.22.22.43.29.65.33,1.03.94,1.94,1.21,3.01.16.66.54,1.26.74,1.91.36,1.14.68,2.29.99,3.44.11.41.11.85.2,1.27.18.81.16,1.65.49,2.43.04.1.03.22.04.33.02.4.03.8.07,1.19.07.75.15,1.49.24,2.23.1.85.2,1.71.33,2.56.2,1.27.48,2.54.64,3.82.15,1.2.5,2.33.83,3.48.04.14.07.32.29.33.57-.78.92-1.61.6-2.59-.08-.23-.02-.43.13-.62.29-.37.48-.79.56-1.25.04-.25.04-.51.06-.76.03-.48.08-.95.08-1.43,0-.57-.28-1.09-.31-1.66-.01-.24-.18-.47-.29-.7-.29-.59-.37-1.21-.33-1.86.01-.21-.04-.44-.11-.64-.13-.33-.28-.65-.46-.94-.3-.5-.38-1.04-.4-1.6,0-.14-.02-.29-.02-.43.03-.48-.13-.9-.35-1.32-.66-1.26-1.17-2.57-1.13-4.01.02-.67-.29-1.11-.67-1.56-.65-.78-1-1.72-1.15-2.69-.07-.49-.25-.87-.54-1.23-.41-.5-.66-1.09-.91-1.67-.28-.64-.53-1.3-.8-1.94-.27-.62-.5-1.23-.5-1.92,0-.13-.12-.28-.21-.4-.2-.25-.43-.47-.62-.72-.37-.47-.62-1-.84-1.55-.23-.58-.33-.61-.4-.7-.35-.41-1.03-.72-1.03-.72-.76-.4-1.07-1.09-1.13-1.05Z" fill="#1d1d1b" stroke="#000" stroke-miterlimit="10" stroke-width=".54"/></svg>