<?xml version="1.0" encoding="UTF-8"?><svg id="Layer_1" xmlns="http://www.w3.org/2000/svg" viewBox="0 0 144.57 144.57"><path d="M49.49,56.31l2.83-3.66c.11-.15.18-.28.22-.41.03-.12.04-.23.04-.34,0-.28-.08-.53-.25-.73-.18-.21-.43-.32-.75-.32-.29,0-.52.09-.71.28-.2.19-.31.45-.35.8h-1.04c.03-.62.23-1.13.61-1.54.38-.4.85-.6,1.41-.6.62,0,1.13.21,1.52.62.39.4.59.91.6,1.52,0,.49-.15.93-.44,1.31l-2.33,3.02h2.77v1.07h-4.13v-1Z" fill="#1d1d1b" stroke-width="0"/><path d="M54.34,55.2l2.42-5.36h1.15l-2.45,5.36h1.89v-2.15h1.03v2.15h.58v1h-.58v1.11h-1.03v-1.11h-3.02v-1Z" fill="#1d1d1b" stroke-width="0"/><path d="M52.74,42.33h28.7c14.35,0,26.01,11.65,26.01,26.01v28.7c0,5.6-4.55,10.15-10.15,10.15h-44.56c-5.6,0-10.15-4.55-10.15-10.15v-44.56c0-5.6,4.55-10.15,10.15-10.15Z" fill="none" stroke="#000" stroke-miterlimit="10" stroke-width=".65"/><path d="M75.59,79.39c-.51,2.24-1.49,3.96-2.94,5.16-1.49,1.19-3.25,1.79-5.28,1.79-1.84-.04-3.37-.51-4.6-1.39-1.25-.85-2.16-1.83-2.73-2.95-.17-.36-.33-.71-.47-1.04-.13-.34-.23-.77-.32-1.29-.16-.97-.24-2.84-.24-5.6s.08-4.68.24-5.63c.17-.95.43-1.72.79-2.3.57-1.11,1.48-2.11,2.73-2.98,1.23-.88,2.76-1.34,4.6-1.36,2.26.02,4.1.71,5.52,2.07,1.42,1.37,2.32,3.06,2.69,5.08h-3.76c-.29-.97-.81-1.8-1.57-2.49-.79-.65-1.76-.99-2.89-1.01-.84.02-1.55.19-2.15.51-.61.33-1.1.75-1.48,1.24-.46.52-.77,1.19-.92,2.01-.17.86-.26,2.48-.26,4.86s.09,3.99.26,4.83c.15.84.46,1.52.92,2.04.37.5.87.9,1.48,1.21.6.37,1.32.55,2.15.55,1.99,0,3.48-1.1,4.47-3.3h3.75Z" fill="#1d1d1b" stroke-width="0"/><path d="M78.38,68.95h3.34v1.82h.07c1.1-1.36,2.55-2.04,4.33-2.04,1.34.02,2.5.46,3.5,1.32l-2.44,2.99c-.71-.58-1.44-.86-2.2-.86-.86,0-1.59.29-2.2.86-.68.56-1.04,1.48-1.06,2.74v10.36h-3.34v-17.19Z" fill="#1d1d1b" stroke-width="0"/><path d="M68.15,97.66h1.8v.5h-1.35v.8c.16-.13.34-.19.54-.19.13,0,.25.03.36.07.1.05.19.11.25.18.09.1.16.21.2.33.02.07.04.15.05.25,0,.1.01.22.01.37,0,.23-.02.4-.05.52-.03.12-.09.23-.16.32-.07.09-.16.17-.29.25-.12.08-.27.12-.44.12-.23,0-.44-.07-.63-.21-.19-.14-.31-.38-.36-.7h.49c.05.27.21.4.49.41.12,0,.21-.02.28-.07.07-.05.11-.11.14-.18.03-.08.05-.16.05-.25,0-.09,0-.17,0-.25,0-.2-.03-.36-.09-.49-.03-.06-.09-.11-.15-.14-.07-.03-.15-.04-.25-.04-.09,0-.17.02-.24.06-.07.04-.14.12-.2.23h-.46v-1.89Z" fill="#1d1d1b" stroke-width="0"/><path d="M71.19,98.19l-.48.36v-.53l.48-.36h.48v3.49h-.48v-2.97Z" fill="#1d1d1b" stroke-width="0"/><path d="M72.95,100.66h.48v.5h-.48v-.5Z" fill="#1d1d1b" stroke-width="0"/><path d="M74.32,101.16s.01-.03.04-.09c.03-.06.07-.13.11-.23s.1-.2.16-.31c.06-.11.11-.23.17-.34s.11-.21.16-.3.09-.17.12-.22c-.05.03-.1.04-.16.05-.06,0-.13,0-.2,0-.11,0-.2-.02-.28-.06-.08-.03-.15-.08-.21-.13-.06-.05-.11-.11-.14-.18-.04-.06-.07-.13-.09-.19-.02-.06-.04-.12-.05-.17-.01-.05-.02-.1-.02-.13,0,0,0-.03,0-.05s0-.05,0-.09,0-.06,0-.09c0-.03,0-.06,0-.08,0-.01,0-.04.02-.09,0-.05.03-.1.05-.16.02-.06.06-.13.1-.2.04-.07.1-.14.17-.21.07-.06.15-.12.26-.17s.22-.08.36-.09c.15-.01.27,0,.38.03.11.03.21.07.29.13.08.06.15.12.2.2s.09.15.12.23c.03.08.05.16.06.23,0,.07.01.14,0,.19,0,.08-.02.15-.03.21-.01.06-.02.12-.04.18-.02.06-.03.11-.05.17-.02.05-.04.11-.07.18,0,.02-.02.06-.05.11-.03.06-.06.13-.11.22-.04.09-.09.18-.14.29-.05.1-.1.21-.15.32-.12.25-.26.53-.41.83h-.57ZM74.43,98.63c0,.06,0,.13,0,.21,0,.08.02.15.06.21.03.07.08.12.15.17.07.05.16.07.28.08.06,0,.12,0,.17-.02s.09-.04.13-.07c.04-.03.07-.06.1-.1s.05-.08.07-.11c.02-.04.03-.07.04-.1,0-.03.01-.06.01-.08,0-.04,0-.08,0-.13,0-.05,0-.1-.01-.15,0-.05-.02-.1-.04-.15-.02-.05-.05-.09-.09-.12s-.09-.06-.15-.08c-.06-.02-.13-.03-.22-.02-.1,0-.18.03-.24.07-.06.04-.11.09-.15.15s-.06.11-.08.16c-.01.05-.02.09-.02.11Z" fill="#1d1d1b" stroke-width="0"/><path d="M76.68,101.16s.01-.03.04-.09c.03-.06.07-.13.11-.23s.1-.2.16-.31c.06-.11.11-.23.17-.34s.11-.21.16-.3.09-.17.12-.22c-.05.03-.1.04-.16.05-.06,0-.13,0-.2,0-.11,0-.2-.02-.28-.06-.08-.03-.15-.08-.21-.13-.06-.05-.11-.11-.14-.18-.04-.06-.07-.13-.09-.19-.02-.06-.04-.12-.05-.17-.01-.05-.02-.1-.02-.13,0,0,0-.03,0-.05s0-.05,0-.09,0-.06,0-.09c0-.03,0-.06,0-.08,0-.01,0-.04.02-.09,0-.05.03-.1.05-.16.02-.06.06-.13.1-.2.04-.07.1-.14.17-.21.07-.06.15-.12.26-.17s.22-.08.36-.09c.15-.01.27,0,.38.03.11.03.21.07.29.13.08.06.15.12.2.2s.09.15.12.23c.03.08.05.16.06.23,0,.07.01.14,0,.19,0,.08-.02.15-.03.21-.01.06-.02.12-.04.18-.02.06-.03.11-.05.17-.02.05-.04.11-.07.18,0,.02-.02.06-.05.11-.03.06-.06.13-.11.22-.04.09-.09.18-.14.29-.05.1-.1.21-.15.32-.12.25-.26.53-.41.83h-.57ZM76.78,98.63c0,.06,0,.13,0,.21,0,.08.02.15.06.21.03.07.08.12.15.17.07.05.16.07.28.08.06,0,.12,0,.17-.02s.09-.04.13-.07c.04-.03.07-.06.1-.1s.05-.08.07-.11c.02-.04.03-.07.04-.1,0-.03.01-.06.01-.08,0-.04,0-.08,0-.13,0-.05,0-.1-.01-.15,0-.05-.02-.1-.04-.15-.02-.05-.05-.09-.09-.12s-.09-.06-.15-.08c-.06-.02-.13-.03-.22-.02-.1,0-.18.03-.24.07-.06.04-.11.09-.15.15s-.06.11-.08.16c-.01.05-.02.09-.02.11Z" fill="#1d1d1b" stroke-width="0"/><path d="M80.34,97.63s0,.02-.02.05c-.02.03-.04.08-.07.14-.03.06-.06.13-.1.2-.04.08-.08.16-.12.24s-.09.17-.13.26-.09.17-.13.25c-.04.08-.08.15-.11.21-.03.06-.06.12-.08.15.05-.03.1-.04.16-.05s.13,0,.2,0c.11,0,.21.02.29.06.08.04.15.08.21.13s.11.11.15.18.07.13.09.19c.02.06.04.12.05.17s.01.1.01.13v.14s0,.06,0,.09,0,.06,0,.08c0,.01,0,.04-.02.09,0,.05-.02.1-.05.17-.02.06-.06.13-.1.21s-.1.14-.17.21c-.07.07-.16.12-.26.17-.1.05-.22.08-.36.09-.15.01-.27,0-.39-.03-.11-.03-.21-.08-.29-.14-.08-.06-.15-.13-.2-.21-.05-.08-.1-.16-.13-.24s-.05-.16-.06-.23c-.01-.08-.01-.14,0-.19,0-.08.02-.15.03-.21.01-.06.02-.12.04-.18.02-.06.03-.11.05-.17.02-.05.04-.11.07-.18,0-.02.02-.05.05-.11s.06-.13.11-.22.09-.18.14-.29c.05-.11.11-.21.16-.32.12-.25.26-.53.42-.85h.57ZM80.23,100.18c0-.06,0-.13,0-.2,0-.07-.02-.14-.05-.21-.03-.07-.08-.12-.15-.17-.07-.05-.17-.08-.3-.09-.06,0-.12,0-.17.02s-.09.04-.13.07c-.04.03-.07.07-.1.1-.03.04-.05.08-.07.12-.02.04-.03.07-.04.11,0,.03-.01.06-.01.08,0,.04,0,.08,0,.13,0,.05,0,.1.02.15,0,.05.02.1.04.14.02.05.05.09.09.12.04.04.09.06.15.09.06.02.13.03.22.03.07,0,.13,0,.19-.03.05-.02.1-.05.14-.08.04-.03.07-.07.09-.1s.04-.08.06-.11c.01-.04.02-.07.03-.1,0-.03,0-.05,0-.07Z" fill="#1d1d1b" stroke-width="0"/><path d="M63.24,94.12c-.11.46-.31.82-.61,1.06-.31.25-.67.37-1.09.37-.38,0-.7-.1-.95-.29-.26-.18-.45-.38-.56-.61-.03-.07-.07-.15-.1-.21-.03-.07-.05-.16-.07-.27-.03-.2-.05-.58-.05-1.15s.02-.97.05-1.16c.04-.2.09-.35.16-.47.12-.23.3-.43.56-.61.25-.18.57-.28.95-.28.47,0,.84.15,1.14.43.29.28.48.63.56,1.05h-.78c-.06-.2-.17-.37-.32-.51-.16-.13-.36-.2-.6-.21-.17,0-.32.04-.44.11-.13.07-.23.15-.3.26-.1.11-.16.25-.19.41-.03.18-.05.51-.05,1s.02.82.05,1c.03.17.09.31.19.42.08.1.18.19.3.25.12.08.27.11.44.11.41,0,.72-.23.92-.68h.77Z" fill="#1d1d1b" stroke-width="0"/><path d="M63.81,90.53h.69v1.81h.01c.23-.28.52-.42.89-.42.28,0,.54.1.78.31.23.21.36.52.37.92v2.36h-.69v-2.11c0-.25-.06-.44-.19-.57-.13-.13-.29-.2-.49-.2s-.36.07-.49.2c-.13.13-.19.32-.19.57v2.11h-.69v-4.98Z" fill="#1d1d1b" stroke-width="0"/><path d="M67.57,91.96h.69v.38h.01c.23-.28.52-.42.89-.42.28,0,.52.1.72.27l-.5.62c-.15-.12-.3-.18-.45-.18-.18,0-.33.06-.45.18-.14.12-.21.3-.22.56v2.14h-.69v-3.54Z" fill="#1d1d1b" stroke-width="0"/><path d="M69.99,93.73c0-.37.03-.66.09-.86.06-.2.16-.36.28-.5.09-.12.23-.22.4-.32.17-.09.38-.13.64-.14.27,0,.49.05.66.14.17.09.29.2.38.32.14.13.23.3.29.5.05.2.08.49.08.86s-.03.66-.08.85c-.06.2-.15.37-.29.51-.04.05-.1.1-.16.15-.06.06-.13.11-.22.15-.17.1-.39.15-.66.15-.26,0-.48-.06-.64-.15-.17-.09-.3-.19-.4-.3-.13-.14-.22-.31-.28-.51-.06-.2-.09-.48-.09-.85ZM72.14,93.74c0-.25-.01-.44-.03-.56-.02-.11-.07-.21-.14-.29-.05-.08-.13-.14-.23-.19-.1-.05-.21-.07-.33-.07-.12,0-.23.02-.32.07-.1.05-.17.11-.23.19-.06.08-.1.18-.13.29-.03.12-.04.3-.04.55s.01.43.04.54c.03.12.07.22.13.31.06.07.14.13.23.18.1.05.21.08.32.08.13,0,.24-.03.33-.08.1-.05.17-.11.23-.18.07-.09.11-.19.14-.31.02-.11.03-.29.03-.53Z" fill="#1d1d1b" stroke-width="0"/><path d="M73.63,91.96h.69v.38h.01c.23-.28.54-.42.93-.42.25,0,.44.05.59.13.15.09.28.2.41.34.28-.31.65-.47,1.12-.46.29,0,.56.1.81.31.24.21.37.52.38.92v2.36h-.69v-2.11c0-.25-.07-.44-.2-.57-.13-.13-.3-.2-.51-.2s-.38.07-.51.2c-.14.13-.21.32-.21.57v2.11h-.69v-2.11c0-.25-.07-.44-.2-.57-.13-.13-.31-.2-.51-.2s-.38.07-.51.2c-.14.13-.21.32-.21.57v2.11h-.69v-3.54Z" fill="#1d1d1b" stroke-width="0"/><path d="M79.64,90.53h.69v.71h-.69v-.71ZM79.64,91.96h.69v3.54h-.69v-3.54Z" fill="#1d1d1b" stroke-width="0"/><path d="M81.3,91.96h.69v2.11c0,.24.06.43.19.56.13.13.29.2.49.2s.36-.07.49-.2c.13-.13.19-.32.19-.56v-2.11h.69v3.54h-.69v-.38h-.01c-.23.28-.52.42-.89.42-.28,0-.54-.11-.77-.32-.25-.2-.38-.51-.38-.91v-2.36Z" fill="#1d1d1b" stroke-width="0"/><path d="M85.03,91.96h.69v.38h.01c.23-.28.54-.42.93-.42.25,0,.44.05.59.13.15.09.28.2.41.34.28-.31.65-.47,1.12-.46.29,0,.56.1.81.31.24.21.37.52.38.92v2.36h-.69v-2.11c0-.25-.07-.44-.2-.57-.13-.13-.3-.2-.51-.2s-.38.07-.51.2c-.14.13-.21.32-.21.57v2.11h-.69v-2.11c0-.25-.07-.44-.2-.57-.13-.13-.31-.2-.51-.2s-.38.07-.51.2c-.14.13-.21.32-.21.57v2.11h-.69v-3.54Z" fill="#1d1d1b" stroke-width="0"/></svg>