<?xml version="1.0" encoding="UTF-8"?><svg id="Layer_1" xmlns="http://www.w3.org/2000/svg" viewBox="0 0 144.57 144.57"><path d="M48.86,27.94c.14-.07.29-.13.42-.21.98-.56,1.99-1.09,2.93-1.71.99-.64,2.1-.77,3.21-.95.43-.07.85-.2,1.28-.36-1.41-.03-2.54-.56-3.41-1.77h.97c.03-.05.05-.1.08-.16-1.06-.12-1.87-.58-2.29-1.63,0,0,.08-.11.17-.23-.14-.18-.28-.34-.5-.61,1.03-.34,1.81.14,2.71.61-.31-.49-.57-.86-.79-1.25-.08-.14-.03-.34-.04-.52.16.02.36,0,.47.08.42.3.81.64,1.23.98.41-.43.75-.13,1.01.18.37.43.68.9,1.07,1.43-.07-.35-.12-.61-.19-1.03.32.16.55.21.69.35.4.4.77.83,1.14,1.26.51.58.99,1.2,1.55,1.73.25.24.66.36,1.01.44,1.24.27,2.49.5,3.85.77-.26-.12-.43-.19-.6-.26-.81-.33-1.63-.65-2.44-.98-.37-.16-.66-.37-.18-.94-1.53,0-2.7-.46-3.32-1.8.02-.06.05-.13.07-.19.59.18,1.18.35,1.77.53-.96-.65-2.17-.99-2.72-2.26.19,0,.31.01.53.02-.15-.18-.28-.27-.34-.4-.07-.14-.1-.31-.14-.46.19-.03.4-.13.55-.06.38.16.72.4,1.15.65-.17-.47-.31-.88-.51-1.42,1.07.29,1.47,1.14,2.13,1.71v-1.31c.21.17.38.26.48.39.58.83,1.15,1.67,1.72,2.51.19.28.37.58.56.87.05-.02.1-.04.15-.07v-2.22c.77.7,1.02,1.65,1.38,2.59.12-.19.21-.32.33-.51.46.53.65,1.12.75,1.76.07.49.19.98.33,1.45.23.76.71,1.28,1.45,1.63,1,.47,1.96,1.02,2.92,1.55.94.52,1.85,1.08,2.8,1.63-.04-.12-.06-.31-.15-.44-.3-.43-.65-.82-.95-1.25-.88-1.3-2.31-1.74-3.64-2.31-.84-.36-1.37-.99-1.74-1.83.16-.07.28-.11.42-.17-.22-.47-.44-.9-.61-1.34-.06-.17,0-.39,0-.58.18.02.38-.02.54.06.45.21.87.47,1.36.68-.13-.13-.26-.26-.4-.38-.83-.68-1.74-1.28-2.46-2.05-.67-.72-1.15-1.63-.77-2.83.39.46.74.88,1.09,1.29.03-.03.06-.06.09-.1-.29-.6-.59-1.2-.85-1.81-.07-.15-.02-.35-.03-.53.17.04.4.03.5.14.39.38.75.8,1.11,1.21.14.16.26.35.48.65v-1.74c.05-.03.1-.05.15-.08.16.2.33.38.47.6.83,1.29,1.04,2.79,1.47,4.22.16.54.41,1.06.73,1.56-.31-1.36-.57-2.69-.26-4.09,1.28,1.55,1.29,3.51,1.77,5.44.15-.83.29-1.56.43-2.33q.62.48,1.04,4.06c.11-.45.19-.91.35-1.34.16-.44.4-.84.6-1.27.07,0,.14.02.2.03.07.21.22.43.2.64-.08,1.03-.11,2.07-.34,3.07-.34,1.43-.36,2.8.25,4.14.38.85.82,1.67,1.19,2.52.51,1.17.97,2.36,1.43,3.48,0-.02.08-.15.13-.29.44-1.05.79-2.14,1.33-3.13.56-1.04.35-1.91-.24-2.8-.2-.3-.55-.56-.62-.88-.23-.99-1.03-1.54-1.56-2.3-.38-.53-.56-1.21-.86-1.9h.68v-1.79c1.35.47,1.72,1.71,2.29,2.78.04-.01.09-.03.13-.04-.03-.18-.02-.38-.1-.53-.4-.76-.8-1.52-1.25-2.25-.13-.21-.42-.32-.61-.49-.15-.13-.3-.28-.4-.46-.41-.73-.51-1.53-.48-2.35.02-.45.21-.53.61-.3.54.31.81.82,1.04,1.37.25.59.57,1.16.85,1.74.06-.02.12-.04.17-.06-.03-.18-.04-.36-.09-.54-.42-1.4-.87-2.79-1.27-4.2-.08-.27.02-.58.03-.87.24.18.5.36.73.55.1.08.15.22.27.39.1-.47.19-.88.28-1.29.07-.02.13-.03.2-.05.15.26.39.51.45.79.24,1.19.44,2.4.65,3.6.02.13.02.27.06.42.32-.95.27-2.02.97-2.84.5,2.02-.01,3.96-.49,5.91.76-.92.34-2.29,1.11-3.19.06,0,.13.01.19.02.04.29.09.58.14.92.23-.27.45-.53.67-.78.04.01.09.02.13.04-.02.2,0,.42-.07.61-.4,1.08-.83,2.15-1.25,3.22-.13.33-.27.65-.4.97.04.02.09.05.13.07.47-.66.93-1.32,1.4-1.97.06.02.13.04.19.06-.01.29.04.6-.05.86-.33.9-.71,1.78-1.08,2.67-.38.95-.77,1.89-1.15,2.84.1.07.19.13.29.2.09-.16.16-.35.28-.48.23-.25.46-.55.75-.7,2.05-1.1,2.68-2.96,2.83-5.11.04-.6.12-1.2.2-1.8.02-.16.1-.31.15-.46.07,0,.13-.02.2-.03.23.65.45,1.29.68,1.95.3-.32.39-.74.37-1.22-.02-.56.01-1.13.05-1.69.01-.17.14-.32.27-.61.15.29.24.46.38.73.31-.89.59-1.71.88-2.53.06,0,.12.02.18.02.44.93.1,1.9,0,2.98.83-1.13,1.14-2.54,2.38-3.18.07.04.14.08.21.12-.12.34-.24.67-.36,1.01.54-.03.65.09.37.56-.64,1.06-1.34,2.08-1.96,3.04.69-.41,1.46-1.04,2.51-.91-.88,1.37-1.94,2.49-3.64,2.82.02.05.05.09.07.14.5-.08,1-.16,1.5-.23.03.05.05.11.08.16-.14.16-.25.37-.42.46-.71.37-1.42.77-2.17,1.04-.66.24-1.17.6-1.56,1.21,1.34-.42,2.69-.83,4.03-1.25,1.53-.48,2.81-1.3,3.6-2.75.05-.09.12-.17.19-.25.03-.04.08-.06.15-.12.07.16.13.31.2.49.87-1.36.65-3.07,1.4-4.46.03.05.07.1.1.15.24-.06.5-.08.72-.19.35-.17.49,0,.45.29-.05.4-.17.8-.28,1.2-.07.24-.2.46-.34.8.53-.44.96-.79,1.38-1.14.04.03.08.07.13.1-.28.77-.55,1.54-.88,2.44.53-.27.93-.47,1.46-.73-.37,1.17-.93,2.07-1.76,2.75-.82.67-1.73,1.23-2.67,1.87.16.39.34.86.57,1.41.12-.37.21-.66.3-.95.05,0,.1,0,.14-.01.64,1.12.89,2.38,1.03,3.67l.21-.02c0-.48.05-.96,0-1.43-.15-1.24.04-2.4.61-3.51.06-.12.14-.23.23-.34.04-.05.1-.08.27-.21.05.4.1.72.14,1.05.3-.54.6-1.08.97-1.75.1.26.14.36.2.51.23-.27.44-.52.66-.77.06.02.11.04.17.06.02,1.44-.49,2.78-.91,4.21.59-.4,1.12-.77,1.66-1.14.05.05.09.1.14.15l-.9,2.03s.06.05.09.08c.39-.24.79-.48,1.18-.72.05.03.09.07.14.1-.14.33-.25.69-.43,1-.2.35-.16.56.19.76.33.19.65.39.96.61.25.18.44.16.68-.04.35-.29.75-.51,1.11-.79.13-.1.2-.27.28-.42.31-.6.7-1.13,1.32-1.56.23.79-.09,1.44-.23,2.13.13-.22.27-.45.4-.67.34-.6.66-1.21,1.03-1.79.18-.28.35-.6.85-.48.19.05.47-.26.71-.41.05.03.11.06.16.09-.22.71-.43,1.41-.66,2.15.06,0,.16.02.35.04-.18.33-.34.62-.53.96.4-.23.77-.45,1.14-.66.05.05.1.09.15.14-.48.61-.96,1.22-1.49,1.88.46-.1.82-.18,1.19-.27.03.05.06.09.09.14-.14.21-.28.41-.45.67.13.01.19,0,.25.02.11.03.23.07.34.1-.07.11-.1.26-.2.32-.69.44-1.39.86-2.09,1.29-.17.11-.34.22-.52.33.23.08.42.16.64.24.26-.22.55-.46.91-.77v.97c.99-.98,2.02-1.77,3.19-2.36.04.03.08.06.12.08-.22.46-.44.93-.66,1.39.02.02.04.04.06.07.44-.33.88-.67,1.33-.99.13-.09.33-.09.5-.14.01.18.09.39.02.53-.13.29-.32.58-.52.82-1,1.18-2,1.83-3.73,2.46.96.14,2.52,0,3.64-.53.47-.22.92-.48,1.41-.64.8-.28,1.62-.49,2.44-.73.03.09.07.17.1.26-.6.32-1.21.63-1.81.95v.13c.28-.01.55-.03.82-.04.53-.03,1.07-.09,1.6-.07.19,0,.36.22.55.34-.18.11-.35.29-.54.32-.28.04-.58-.03-.87-.04-.1,0-.2.05-.29.07q.08.49-.84.73c.4.07.8.14,1.2.21.41.07.81.14,1.22.21,0,.07.01.13.02.2-.29.2-.57.4-.92.64.47.27.9.51,1.33.75l-.05.14c-1.01.09-1.97-.14-2.91-.56-.05.58-.12.64-.67.49-.29-.08-.57-.21-1.01-.37.4.41.7.71,1.1,1.1-1.1-.01-2.07.06-2.94-.54-.27-.19-.52-.31-.86-.13-.14.07-.33.04-.57.05.16-.12.26-.2.39-.3-1.05-.93-2.18-1.51-3.65-1.21.13.09.25.17.36.26-.02.06-.04.11-.06.17-.79-.25-1.57-.5-2.36-.75-.01.02-.03.04-.04.06.44.35.86.74,1.33,1.05.65.43.81.98.56,1.69-.06.17-.06.36-.03.56.64-1.05,1.09-2.23,2.22-2.85.05.03.1.06.14.09-.22.61-.43,1.22-.65,1.83.03.01.06.03.09.04.3-.3.61-.59.99-.96.08.7.1,1.41,1.01,1.43-.26-.28-.51-.54-.76-.8.04-.04.08-.08.12-.13.49.38.98.77,1.47,1.15-.04.08-.08.16-.11.24-.43-.09-.85-.17-1.32-.27.32.48.61.93.91,1.38-.05.05-.1.1-.16.16-.46-.24-.95-.43-1.39-.72-.48-.32-.83-.28-1.16.18-.11.15-.25.27-.41.45.26-.02.45-.03.64-.04l.08.11c-.32.41-.64.82-.85,1.09.08,1.05-.59,1.68-.82,2.49,1.02-.77,2.04-1.54,3.05-2.31.04.03.08.07.12.1-.28.52-.57,1.04-.85,1.56.99-.37,1.96-.72,2.92-1.07.04.06.08.13.12.19-.49.55-.99,1.1-1.57,1.75,1.44-.26,2.7-.11,3.83.81-1.08.98-2.34.27-3.46.47.78.59,1.58,1.2,2.38,1.81-.02.07-.04.13-.06.2-.23.06-.46.12-.73.19.01.43-.24.43-.58.27-.63-.31-1.25-.62-1.96-.97.14.25.27.42.34.62.06.16.03.35.05.52-.16-.05-.35-.05-.48-.14-1.17-.8-2.34-1.61-3.46-2.39,0,.64,1.15.74.99,1.66-1.08-.34-1.97-.91-2.81-1.57-.69-.55-1.33-1.16-2.3-1.18-.14,0-.27-.17-.47-.2.22.27.42.55.65.8.67.74,1.35,1.48,2.04,2.21.9.95,2.02,1.51,3.29,1.73.41.07.85-.04,1.28-.07.99-.06,1.99-.13,2.98-.18.16,0,.33.07.52.11-.12.62-.59.73-1.2.87.22.09.31.14.41.16.8.13,1.6.25,2.4.39.18.03.34.16.51.24-.17.1-.34.19-.52.29-.04.02-.09.04-.24.12.24.1.4.15.55.22.6.29,1.2.58,1.8.89.1.05.24.25.21.31-.05.12-.21.26-.33.27-.38.04-.76.01-1.23.01.39.46.73.86,1.07,1.26-.03.04-.05.08-.08.12-.26-.05-.52-.11-.81-.17v.5c-1.13-.36-1.85-1.19-2.78-1.97.18.44.32.77.5,1.21-.27-.03-.47,0-.61-.08-.43-.21-.85-.45-1.25-.71-.41-.26-.69-.66-1.31-.63-.38.02-.81-.41-1.18-.68-.52-.39-1.01-.81-1.62-1.31.84,1.54,1.61,2.96,2.38,4.38-.06.03-.11.06-.17.09-.48-.82-.95-1.64-1.43-2.45-.42-.71-.87-1.4-1.29-2.11-.08-.14-.08-.32-.12-.48.05-.03.1-.07.15-.1-.42-.28-.83-.56-1.25-.83l-.1.1c.02.09.01.19.06.26.33.48.6,1.06,1.04,1.4.42.33.62.73.85,1.16,1.58,2.97,1.83,5.98.28,9.04-.16.32-.35.61-.6.91-.35-.77.04-1.55-.09-2.33-.18.13-.36.26-.54.38v-2.95c-.44-.08-.49-.44-.32-.8.41-.92.28-1.81.05-2.75-.26-1.1-.55-2.16-1.1-3.15-.26-.48-.41-1.02-.62-1.52-.11-.25-.21-.52-.38-.72-.53-.63-1.08-1.24-1.68-1.83-.09.92.26,1.69.72,2.44.45.73.88,1.48,1.28,2.24.16.3.19.67.29,1.01-.05.03-.1.06-.15.09-.34-.27-.67-.55-1.05-.85.44,1.57,1.7,2.72,2.1,4.26-.05.05-.1.1-.14.14-.43-.22-.85-.43-1.37-.69.56,1.51,1.35,2.85,1.34,4.6-.39-.31-.68-.54-.97-.77.42,1.26.98,2.52.75,3.91-.06.03-.13.06-.19.09-.38-.56-.76-1.12-1.2-1.76-.02,1.11-.02,2.17-.54,3.16-.08-.34-.16-.68-.26-1.07-.15.2-.29.4-.54.74-.1-.39-.24-.66-.22-.91.09-1.25.23-2.5.34-3.75.03-.31.05-.63.02-.95-.46.51-.5,1.29-1.26,1.7-.13-.82-.1-1.57.01-2.3.18-1.17.42-2.34.61-3.51.05-.31,0-.63,0-.98-.48,1-.94,1.95-1.39,2.91-.07-.01-.14-.02-.22-.03,0-.32,0-.64,0-.96,0-.54.08-1.03-.48-1.45-.37-.27-.52-.84-.76-1.27-.16-.28-.32-.56-.48-.84-.04.01-.08.02-.12.04.05.25.06.51.15.74.51,1.33,1.03,2.66,1.54,3.99.15.4.28.81.42,1.21-.05.03-.1.06-.15.08-.19-.06-.38-.12-.7-.22.15.34.3.58.35.84.04.22-.04.46-.06.7-.19-.1-.42-.16-.56-.31-.26-.27-.47-.59-.77-.97.28,1.94,1.57,3.46,1.66,5.34-.05.03-.11.07-.16.1-.24-.28-.47-.56-.73-.86-.04.51-.08.96-.11,1.42h-.19c-.68-1.16-.69-2.56-1.15-3.95-.27.75-.17,1.35-.06,1.96.24,1.46.44,2.92.63,4.39.03.26-.1.55-.16.82-.07.01-.13.02-.2.04-.26-.58-.52-1.16-.74-1.66-.25.91-.52,1.88-.78,2.85-.07,0-.13,0-.2,0-.36-.66-1.28-1.08-.77-2.17-.25.11-.39.18-.53.24l-.15-.06c.49-2.28,1.6-4.4,1.9-6.83-.45.64-.84,1.19-1.23,1.75-.5-1.32.06-2.35.66-3.47-.47.27-.83.48-1.32.76-.03-1.02.11-1.81.82-2.41.73-.63,1.26-1.38,1.3-2.37.04-.94,0-1.88-.09-2.83-.39,1.4-.48,2.9-1.57,3.99-.06,0-.12-.01-.18-.02v-2.62c-.38.17-.62.31-.87.38-.3.08-.5-.02-.34-.37.19-.4.4-.8.61-1.19.33-.61.67-1.2.99-1.82.1-.19.14-.41.13-.66-.2.23-.41.46-.7.79-.07-.48-.13-.83-.2-1.28-.64.73-1.2,1.38-1.76,2.02-.07-.04-.15-.07-.22-.11-.05-.93.55-1.72.75-2.75-.41.36-.98.22-1.2.76-.02.04-.33.03-.44-.04-.32-.22-.61-.49-.85-.69,0,.81-.1,1.76.75,2.51.36.31.62.74.88,1.14.13.2.15.47.22.7h-.74c.47,1.13,1.13,2.19,1.23,3.47-.64-1.05-1.51-1.81-2.67-2.29.21.76.42,1.54.65,2.31.1.34.21.69.37,1,.41.79.85,1.57,1.28,2.35.34.63.68,1.27.99,1.92.07.16-.02.39-.03.59-.18-.06-.4-.08-.54-.19-.31-.23-.58-.51-.89-.78.32.79.66,1.54.94,2.31.13.37.19.77.23,1.16.05.53-.12.67-.67.63.24,1.04.96,2.06.22,3.12-.08.02-.16.05-.24.07-.22-.49-.44-.98-.72-1.6.02,1.44-.3,2.63-1.29,3.64-.04-.43-.08-.87-.13-1.3-.31.56-.62,1.12-.93,1.68-.05-.02-.11-.04-.16-.06.06-1.4-.01-2.81.9-4.1-.28.07-.48.12-.67.16-.02-.23-.11-.47-.06-.68.19-.94.42-1.88.65-2.88-.44.43-.68,1.01-1.41,1.15.03-.2.03-.35.07-.47.29-.79.55-1.6.91-2.35.34-.7.53-1.41.55-2.18.02-.75-.07-1.52.43-2.18.06-.08.05-.22.09-.45-.56.37-.78.79-.84,1.35-.06.55-.17,1.09-.25,1.63-.07,0-.14.01-.2.02-.1-.14-.2-.29-.33-.47-.3.99-.19,2.07-.81,3.01-.79-.7-.3-1.6-.5-2.38-.2.09-.41.18-.71.3.03-.84.18-1.57.56-2.2,1.13-1.9,1.19-3.96,1.06-6.06-.06-.98-.15-1.96-.65-2.85-.03-.06,0-.16,0-.35.23.13.43.19.55.33.34.39.72.77.96,1.21.52.98,1.51,1.35,2.34,1.93-.35-.72-.89-1.27-1.49-1.79-.57-.49-1.17-.96-1.71-1.49-.31-.31-.56-.69-.39-1.2.07-.22.01-.47.01-.8-.23.2-.41.35-.58.5-.06-.02-.11-.03-.17-.05.03-.39.05-.78.09-1.17.11-.92.27-1.84.35-2.76.04-.55-.15-.64-.65-.38-.78.41-1.54.84-2.31,1.25.46.52,1,1,1.36,1.58.38.63.62,1.36.85,2.07.21.65.35,1.33.5,2,.07.31.23.6-.06.92-.09.1.03.38.05.58.14,1.04.3,2.07.43,3.11.02.14-.05.29-.09.52-.26-.13-.46-.23-.67-.33-.14.31-.27.63-.45,1.05-.61-.99-.36-1.98-.51-3.02-.2.61-.37,1.11-.54,1.62-.06,0-.11-.02-.17-.03-.14-1.05.06-2.1.18-3.26-.39.78-.47,1.64-1.4,2.07,0-.65-.1-1.25.02-1.79.17-.75.41-1.51.77-2.18.77-1.41.6-2.63-.5-3.76-.1-.1-.19-.2-.27-.32-.08-.11-.15-.23-.3-.48-.69.66-1.42,1.24-2.01,1.94-.65.78-1.26,1.62-1.7,2.52-.45.9-.68,1.9-.99,2.86-1.05,3.24-1.54,6.58-1.58,9.97-.02,1.74.25,3.47.32,5.21.06,1.55.01,3.1.02,4.66,0,1.36,0,2.72.05,4.08,0,.24.23.55.45.68,1.12.68,1.7,1.62,1.77,2.96.1,2.09.07,4.17-.17,6.25-.1.84-.07,1.69-.04,2.53.01.37.18.73.28,1.09-.06.23-.2.5-.21.78-.15,2.96-.19,5.93-.43,8.89-.22,2.81-.6,5.62-.97,8.41-.24,1.77-.61,3.52-.91,5.29-.03.15.08.38.19.5.4.43.87.79,1.23,1.25.47.61.26,1-.51,1.11-.48.07-.96.19-1.41.28.09-.38.49-.63,1.06-.66.28-.02.56-.13.84-.2-.16-.28-.28-.6-.48-.84-.18-.22-.45-.37-.69-.55-.09-.07-.21-.1-.36-.17-.08.2-.18.36-.22.54-.16.81-.3,1.63-.46,2.44-.11.56.02,1.05.33,1.52.57.88.86,1.84.82,2.88,0,.23-.06.47-.19.7,0-.24-.01-.47,0-.71.05-.87-.11-1.69-.61-2.41-.11-.16-.34-.23-.51-.34-.02.2-.05.4-.04.6.01.4.07.79.07,1.19,0,1-.03,2-.03,3,0,.46.09.89.54,1.19.13-.07.26-.14.4-.21.04.04.08.08.12.11-.13.14-.35.42-.37.41-.38-.26-.74-.56-1.13-.87.05.6.12,1.29.18,1.98-.05.03-.1.05-.14.08-.12-.16-.3-.29-.35-.47-.26-.82-.37-1.63-.21-2.52.23-1.31.24-2.67.32-4.01.01-.17-.09-.35-.14-.52-1.09.08-1.81.83-1.71,1.75.02.15.05.37.15.42.25.12.53.19.8.2.05,0,.2-.34.17-.5-.06-.42-.2-.82-.31-1.23.44.35.74,1.28.49,1.73-.1.17-.37.3-.58.33-.35.05-.74-.04-.84-.44-.1-.37-.1-.77-.11-1.15,0-.18.09-.36.16-.62h-1.96s-.01-.09-.02-.14c.2-.04.4-.1.6-.13.22-.03.45-.02.67-.04,1.08-.09,2.04-.91,2.31-2.03-.34.27-.64.51-.93.75-.05-.03-.09-.06-.14-.08.87-1.01,1.61-2.06,1.05-3.41-.52.12-.99.25-1.48.32-.12.02-.27-.16-.51-.32,1.85.22,1.98-.51,1.59-1.8-.13-.44-.3-.87-.46-1.36-.37.28-.67.51-.97.74-.05-.05-.1-.09-.14-.14.24-.29.49-.56.71-.86.14-.19.35-.41.35-.62-.02-1.2-.04-2.41-.52-3.56-.55-1.34-.53-2.76-.48-4.18.02-.49-.09-.99-.17-1.48-.08-.51-.25-1.01-.29-1.51-.21-2.75-.35-5.5-.58-8.25-.1-1.13-.39-2.24-.53-3.36-.11-.87-.14-1.75-.18-2.63-.03-.86,0-1.71-.03-2.57-.01-.39-.06-.79-.15-1.17-.32-1.42-.23-2.73.89-3.83.56-.55.61-1.32.74-2.05.74-4.2.11-8.39-.03-12.58-.03-.99-.31-1.94-.75-2.87-.57-1.2-.9-2.52-1.43-3.74-.53-1.21-1.18-2.37-1.78-3.55-.04-.08-.14-.13-.29-.26-.4,1.41-.55,2.86-1.46,4-.06,0-.12,0-.18-.01-.04-.72-.07-1.44-.11-2.2-.25.13-.48.25-.71.37-.06-.04-.11-.08-.17-.12.36-.84.71-1.68,1.09-2.56-.5.21-.98.42-1.46.62-.04-.05-.08-.11-.12-.16.19-.31.35-.66.59-.93.91-1.09,1.38-2.35,1.65-3.74.18-.93.54-1.82,1.22-2.53.04-.05.06-.12.17-.32-.28.11-.45.13-.58.23-.26.2-.48.46-.75.64-.25.17-.53.34-.82.39-.65.12-1.31.17-2.04.26.16-.29.32-.59.51-.92-.5,0-.9.55-1.55.12,1.01-.98,2.07-1.76,3.32-2.25,1.28-.5,2.6-.24,3.98-.03-.46-.73-.89-1.39-1.31-2.05-.57-.9-2.66-1.25-3.37-.92-.84.38-1.18,1.21-1.47,2.04-.24.69-.5,1.37-.75,2.06-.05,0-.11,0-.16-.01-.09-.26-.17-.52-.26-.8-.55.78-1.08,1.54-1.65,2.33,1.81.85,3.41,1.99,4.85,3.44-.2-.02-.41-.03-.61-.05.16.18.32.37.57.66-.26-.03-.37-.03-.47-.06-1.76-.52-2.74.07-3.89,1.4-.24.28-.42.65-.56,1-.15.35-.03.69.28.92.78.6,1.56,1.19,2.35,1.77.5.36,1.04.67,1.33,1.3-.61.38-1.1,0-1.61-.16,1.11.98,2.56,1.54,3.45,2.77-.03.07-.07.14-.1.21-.33-.08-.65-.15-.98-.23-.02.03-.03.05-.05.08.54.45,1.08.89,1.61,1.34.17.14.35.29.49.46.07.09.12.31.08.35-.09.08-.3.15-.39.1-.28-.14-.49-.06-.77.01-.24.06-.54-.1-.87-.18v.87c-.57-.14-.95-.46-1.21-.89-.48-.8-.91-1.62-1.36-2.43-.1-.19-.22-.37-.32-.56-.06.02-.12.04-.18.06.09.36.15.73.29,1.07.6,1.37,1.55,2.48,2.59,3.53.28.28.56.56.81.87.14.17.23.39.41.71-.92-.02-1.53-.44-2.25-.82.54,1.21,1.02,2.37,1.04,3.79-1.04-.55-1.46-1.42-1.93-2.37-.07.25-.08.42-.16.57-.07.14-.2.26-.3.39-.13-.12-.26-.24-.38-.37-.04-.05-.06-.12-.08-.19-.26-.96-.51-1.92-.77-2.88-.03-.09-.08-.18-.16-.37-.27.69-.51,1.3-.75,1.9-.07,0-.13-.01-.2-.02-.58-.95-.44-2.04-.55-3.09-.12-1.14.51-2.08.7-3.13-.47.79-.94,1.59-1.45,2.45-.45-.71-.5-1.34-.3-1.99.18-.61.37-1.21.57-1.86-.48.04-.54-.19-.38-.55.12-.27.24-.53.38-.79.34-.66.39-1.34.14-2.07-.38.51-.69,1.06-1.13,1.47-.67.63-1.22,1.32-1.54,2.19-.12.32-.35.6-.56.87-.46.6-.58,1.23-.28,1.93.77-.7,1.44-2.27,1.63-3.89.16.11.29.2.43.3.03-.15.07-.32.1-.48.04,0,.09,0,.13-.01.06.27.13.53.17.8.03.2.05.41.05.62-.03,1.38-.02,2.75.36,4.1.1.37.08.79.03,1.18-.02.21-.21.39-.33.59-.18-.14-.37-.27-.53-.44-.09-.1-.13-.27-.13-.27,0,.78.01,1.67,0,2.55-.01.67-.06.7-.72.51-.31.66-.41,1.46-1.26,1.97-.08-.63-.14-1.18-.21-1.76-.22.23-.44.46-.66.69-.05-.02-.09-.04-.14-.06.03-.24.04-.49.11-.72.15-.51.32-1.02.51-1.52.14-.38.09-.67-.39-.9-.17.42-.34.84-.53,1.31-.21-.13-.39-.24-.48-.3-.34.29-.67.53-.96.82-.2.2-.35.47-.51.71-.24.35-.48.69-.8,1.16-.42-1.11.05-1.99.19-2.88-.67-.16-.68-.07-.94.51-.77,1.72-.37,3.4.06,5.1.22.87.4,1.75.55,2.63.06.32,0,.66,0,.99-.06.03-.11.05-.17.08-.27-.29-.54-.57-.83-.88-.06.79.17,1.64-.24,2.52-.65-.75-.68-1.63-.96-2.48-.09.26-.15.48-.24.68-.04.09-.16.21-.25.21-.09,0-.24-.12-.25-.21-.08-.44-.18-.88-.16-1.32.08-1.32.21-2.65.32-3.97.01-.13,0-.27,0-.41-.05-.02-.11-.04-.16-.05-.08.21-.18.41-.23.62-.46,2.05-.91,4.1-1.38,6.14-.07.29-.22.56-.38.94-.59-.77-.57-1.59-.57-2.37,0-.8.12-1.61.19-2.41-.91,1.77-1.02,3.89-2.16,5.58-.07-.02-.14-.03-.22-.05v-2.06s-.08-.02-.12-.03c-.61.72-1.22,1.44-1.85,2.17-.38-.49.02-2.02,1.06-4.36-.39.05-.75.11-1.12.13-.13,0-.3-.09-.37-.19-.04-.06.05-.26.13-.35.59-.6,1.17-1.2,1.79-1.77.45-.41.92-.84,1.61-.83.14,0,.29-.14.37-.19-.71,0-1.45,0-2.18,0-.15,0-.3-.1-.45-.16.06-.15.08-.37.2-.45.29-.2.61-.38.94-.5.58-.21,1.19-.36,1.78-.54.21-.07.41-.16.77-.29-.37-.12-.62-.16-.83-.27-.17-.09-.39-.26-.4-.41,0-.14.23-.29.37-.43.04-.04.13-.06.19-.06.94-.04,1.26-.71,1.52-1.53-.14.05-.22.1-.31.11-.11.01-.22-.02-.33-.03.02-.12-.01-.29.06-.36.41-.44.84-.86,1.27-1.28.06-.06.13-.1.23-.17-.74.06-1.42.13-2.09.18-.44.03-.75-.19-1.04-.64.56-.16,1.07-.31,1.64-.47-.27-.11-.49-.2-.71-.29,0-.04-.01-.09-.02-.13.6-.21,1.33-.22,1.61-1.03-.24-.2-.56-.47-.87-.74.01-.06.02-.13.04-.19.49.03.99.01,1.47.09,1.12.19,2.23.43,3.35.64.2.04.45.11.61.03,1.3-.62,2.69-1.14,3.4-2.55,0,0,0-.03,0-.03-.42.24-.82.54-1.28.7-.87.31-1.77.54-2.67.78-.09.02-.2-.03-.41-.07.3-.45.56-.85.84-1.27h-3.04c.35-.83,1.14-.76,1.65-1.04-.72-.4-1.43-.8-2.26-1.25.59-.41,1.08-.52,1.59-.35.8.27,1.59.57,2.38.85.19.07.38.12.6.09-.27-.13-.56-.24-.82-.38-.32-.17-.65-.33-.92-.55-.12-.1-.2-.42-.13-.52.33-.46.4-.92.24-1.47-.06-.21.03-.47.08-.7.09-.44.21-.88.31-1.32l-.19-.07c-.51,1.19-1.03,2.39-1.6,3.71-.21-.28-.31-.41-.39-.55-.08-.13-.14-.28-.22-.46-.35.31-.65.65-1.01.9-.8.54-1.62,1.05-2.44,1.55-.08.05-.25.06-.31,0-.06-.05-.08-.24-.03-.31.23-.36.46-.74.76-1.03.54-.53,1.12-1.01,1.77-1.58-.69.18-1.27.4-1.98.06.91-1.08,2.14-1.59,3.38-2.34-.75.16-1.27.73-2.05.35.37-.27.74-.55,1.12-.84-.09-.12-.19-.23-.35-.43.31-.14.59-.27.88-.39.3-.12.61-.23.97-.37-.22-.19-.39-.34-.69-.59.42-.17.72-.35,1.05-.42.93-.2,1.86-.37,2.79-.52.71-.11,1.29-.34,1.71-.99.31-.49.77-.87,1.19-1.33-.28-.1-.53-.18-.77-.29-.54-.27-.56-.44-.15-.86.05-.05.08-.1.16-.18-.48-.21-.93-.4-1.37-.61-.22-.1-.42-.24-.61-.38-.6-.46-.58-.66.16-1.1-.33-.3-.64-.58-.94-.86-.09-.08-.16-.19-.24-.28.13-.05.29-.18.38-.14.41.18.8.38,1.18.62.36.22.69.49,1.03.74.04-.03.08-.07.11-.1-.35-.47-.7-.94-1.06-1.4-.36-.46-.77-.89-1.11-1.36-.12-.17-.13-.43-.19-.65.24.03.48.06.72.09.06,0,.12.06.28.13-.28-.87-.54-1.67-.8-2.46.07-.03.13-.06.2-.09,1.02.59,1.4,1.68,1.99,2.72.05-.51.09-.92.14-1.46.77.78.71,1.73,1.03,2.53.33.82.78,1.6,1.17,2.37.1-.33.21-.69.36-1.19.96,1.22.94,2.65,1.53,3.95.2-.44.45-.79.5-1.16.1-.74.58-1.15,1.11-1.54.45-.33.93-.63,1.36-1.05-.3.07-.61.16-.91.21-.52.09-1.05.17-1.58.22-.13.01-.28-.08-.42-.13.05-.14.08-.29.15-.42.07-.13.16-.25.3-.45-.94-.2-1.81-.37-2.67-.58-.24-.06-.44-.24-.66-.36.22-.17.41-.37.65-.48.17-.08.41-.04.61-.03.28.01.48-.02.61-.33.06-.14.39-.24.58-.22.35.05.68.21,1.01.32.06-.07.12-.13.18-.2-.37-.25-.74-.49-1.12-.74.06-.07.12-.13.17-.2,1.43.19,2.44,1.2,3.67,1.96.21-.69.4-1.33.61-2.03-.37.26-.68.49-.99.71-.05-.03-.1-.06-.15-.09.07-.26.08-.56.21-.78.21-.36.1-.58-.22-.75-.39-.21-.79-.41-1.2-.58-.54-.23-1.08-.43-1.63-.64-.64-.24-1.25-.06-1.86.18-.37.14-.73.33-1.11.43-.31.08-.7.33-.9-.21-.02-.06-.22-.06-.33-.09-.11-.03-.28-.01-.34-.09-.5-.59-1.12-.45-1.66-.19-.74.35-1.44.79-2.11,1.26-.19.13-.32.49-.32.75-.03.9.29,1.71.63,2.53.38.9.65,1.84.95,2.77.05.16.04.33.06.54-.21.01-.37.02-.55.03.08.68.16,1.37.24,2.05-.07.02-.14.04-.21.06l-.64-1s-.08,0-.12.01c-.02.17,0,.36-.08.51-.08.17-.23.3-.35.45-.12-.12-.32-.23-.36-.37-.15-.61-.25-1.24-.41-1.87,0,.99,0,1.98,0,2.97,0,.27-.03.55-.09.82-.05.21-.06.49-.45.41-.09-.02-.24.21-.34.33-.16.18-.31.37-.55.52-.12-1.26.31-2.44.42-3.78-.45.71-.5,1.53-1.27,2.04-.02-.27-.07-.46-.04-.64.08-.46.19-.91.29-1.36.06-.26.26-.55-.17-.73-.07-.03-.07-.36-.01-.52.3-.79.6-1.57.95-2.34.32-.7.68-1.39,1.06-2.07.19-.34.62-.57.38-1.19-.29.25-.63.44-.81.72-.86,1.37-1.73,2.74-2.49,4.16-.75,1.39-.71,2.83.03,4.26.35.68.67,1.4.91,2.13.17.51-.01.65-.57.5-.04.67-.08,1.33-.11,1.99-.05.02-.1.05-.14.07-.31-.42-.63-.85-.96-1.3-.14.39-.28.75-.41,1.11h-.26c-.07-.34-.17-.67-.2-1.01-.09-.96-.14-1.93-.22-2.89-.02-.23-.13-.44-.19-.67-.06,0-.11,0-.17.01-.05.44-.17.88-.13,1.31.12,1.51.29,3.02.44,4.53.04.36.08.72.08,1.08,0,.43-.2.55-.55.29-.72-.51-1.27-1.16-1.43-2.07-.07-.39-.15-.78-.35-1.18-.06.26-.19.53-.18.79.03,1.06.09,2.13.15,3.19.04.69.12,1.37.15,2.06.02.48-.14.57-.6.4-.66-.25-1.12-1.05-1.13-2,0-.1.01-.2.02-.29-.04,0-.08-.01-.13-.02-.04.26-.12.53-.12.79-.01.93.02,1.86,0,2.8-.04,1.06-.66,1.8-1.47,2.6-.37-.99-.19-1.93-.29-2.87-.33.35-.63.68-1,1.07-.4-.97-.26-1.86.08-2.66.34-.8.88-1.51,1.3-2.19-.54.32-1.17.69-1.81,1.06-.36-.85.09-2.16.81-2.65.55-.37,1.03-.86,1.53-1.3.08-.07.1-.19.16-.31-.48.23-.92.44-1.35.65-.05-.06-.09-.11-.14-.17.2-.37.41-.75.65-1.19-.56.21-1.06.4-1.6.6-.01-.17-.04-.23-.02-.26.69-1,1.33-2.03,2.45-2.67,1.22-.7,2.36-1.55,3.53-2.34.04-.02.05-.08.14-.23-1.15.65-2.05,1.54-3.26,1.82-.03-.04-.07-.09-.1-.13.09-.19.18-.39.29-.63-.15.04-.26.09-.37.09-.23,0-.61.05-.67-.06-.11-.21-.12-.54-.05-.78.17-.58.42-1.14.63-1.71.08-.22.14-.44.24-.76-.73.8-1.41,1.49-2.37,1.86.21-1.12,1.04-1.86,1.61-2.76-.41.06-.8.11-1.19.16-.02-.06-.05-.13-.07-.19.27-.2.53-.4.8-.61.2-.15.36-.28.21-.6-.06-.13.06-.44.19-.54.36-.27.77-.46,1.15-.7.21-.13.4-.29.6-.45-.82-.28-1.56-.53-2.31-.79,0-.06,0-.13,0-.19.37-.11.75-.21,1.15-.33-.55-.31-1.28-.22-1.67-.87.93-.16,1.85-.15,2.84,0-.25-.27-.45-.49-.74-.79.91-.19,1.58.29,2.36.46-.09-.17-.16-.32-.29-.59.33.07.57.07.77.17.64.33,1.27.69,1.89,1.06.4.23.77.53,1.18.74.45.23.89.26,1.22-.25.07-.1.22-.15.33-.23.62-.42,1.3-.79,1.85-1.29.99-.9,1.95-1.8,3.27-2.2.43-.13.83-.31,1.28-.49-.86-.15-1.71-.29-2.56-.44-.15-.03-.3-.07-.45-.12-.35-.11-.57-.28-.13-.69-.27-.19-.51-.35-.75-.52.02-.06.05-.12.07-.19.22-.02.45-.1.66-.05,1.2.28,2.39.59,3.48.87-.34-.36-.79-.83-1.24-1.3.05-.07.09-.13.14-.2.26.08.51.16.81.26-.12-.22-.23-.44-.32-.63,1.06-.49,2.09-.96,3.26-1.5-.44-.13-.73-.22-1.01-.3,0-.07-.02-.13-.02-.2.38-.15.76-.3,1.12-.44-.28-.14-.57-.29-1-.5.34-.11.53-.17.8-.25-.4-.27-.75-.51-1.15-.78,1.14-.26,2.19-.5,3.3-.75-.12-.08-.23-.12-.28-.2-.07-.11-.11-.24-.12-.37,0-.06.12-.17.17-.16.42.06.41-.67.97-.45.58.23,1.23.3,1.86.41.22.04.45-.04.68-.06l.02-.14c-.13-.06-.26-.14-.4-.17-2.06-.38-4.12-.68-6.2-.18-.51.12-.91.35-1.09.84-.24.64-.47,1.29-.63,1.95-.17.72-.27,1.45-.72,2.12-.52-.49-.43-1.11-.53-1.74-.36,1.21-.67,2.37-1.47,3.42-.18-.26-.32-.46-.47-.69-.2.33-.41.66-.62,1-.05,0-.09-.02-.14-.03-.03-.15-.06-.3-.1-.5-.43.53-.69,1.23-1.6,1.52.15-.63.27-1.12.4-1.68-.72.49-1.05,1.37-1.91,1.58-.28-.46.53-.92-.13-1.4-.39.9-.77,1.76-1.21,2.77-.16-.6-.3-1.09-.44-1.62-.76,1.04-1.13,2.34-2.43,3.05v-.72c-.12-.02-.24-.04-.46-.07.31-.57.59-1.11.9-1.69-.45.19-.9.3-1.25.56-.19.14-.21.52-.31.79-.14.39-.28.77-.42,1.16-.07,0-.14-.02-.2-.03-.05-.16-.1-.33-.17-.53-.26.38-.51.74-.75,1.11-.07-.01-.13-.03-.2-.04-.03-.37-.06-.74-.1-1.11-.68.49-1.41.96-1.76,1.84-.2.5-.53.95-.87,1.56-.35-1.01-.2-1.87-.11-2.76-.42,1.09-.84,2.18-1.26,3.27-.08-.01-.16-.02-.25-.04-.06-.3-.11-.61-.17-.9-.53.64-1.08,1.3-1.71,2.06-.47-1.85.46-3.03,1.53-4.16-.04-.02-.08-.05-.12-.07-.36.12-.73.25-1.09.37-.03-.06-.06-.11-.09-.17.96-1.25,2.2-2.24,3.35-3.32-.42-.64-.35-.82.43-1.08.55-.18,1.11-.36,1.64-.54.15-.27.31-.55.51-.93-.62.11-1.16.21-1.71.29-.41.06-.82.11-1.23.1-.77-.03-.93-.3-.65-1.07-.41-.12-.83-.21-1.23-.36-.16-.06-.29-.24-.43-.36.17-.14.32-.37.51-.41.34-.07.71-.02,1.13-.02-.08-.12-.13-.18-.16-.25-.05-.14-.07-.28-.11-.42.16-.03.33-.12.47-.08,1.12.27,2.24.56,3.35.85.18.05.36.1.62.17-.15-.27-.25-.45-.36-.63.02-.05.04-.1.07-.15.78.21,1.56.45,2.35.62.65.13,1.32.21,1.98.23.3,0,.61-.18.95-.29.07.11.17.24.27.39.22-.15.43-.29.73-.48-1.39-.1-2.7-.19-4.08-.29.12-.31.18-.48.27-.71-.84-.5-1.95-.34-2.74-1.06.79-.88,1.57-.1,2.32-.07-.47-.42-.95-.85-1.45-1.3.65-.38.69-.37,3.64,1.14-.24-.29-.42-.5-.58-.72-.17-.23-.31-.48-.47-.72.03-.04.05-.08.08-.11.23.08.49.11.68.24.7.47,1.39.96,2.06,1.46.44.33.74.88,1.41.87.06,0,.12.17.19.26-.38-.12-.83-.16-1.14-.38-.68-.49-1.29-1.08-1.94-1.62-.16-.13-.36-.19-.55-.28-.02.03-.03.06-.05.08.39.5.78.99,1.18,1.49-.06.07-.12.14-.18.21-.56-.33-1.12-.66-1.68-1-1-.61-1.4-.75-1.83-.59.16.13.3.26.46.36.49.29.98.57,1.48.84.4.22.48.57.44.97-.37.08-.71.15-1.05.22,0,.05.02.1.02.15.2.04.4.09.6.1.91.06,1.82.09,2.73.15.27.02.62-.05.71.36-.24.13-.48.26-.71.4-.12.08-.23.18-.3.31-.27.45-.45.97-.79,1.35-.63.68-1.35,1.27-2.03,1.91-.3.28-.59.58-.88.87.03.03.05.06.08.09.6-.48,1.2-.95,1.8-1.43.05.04.1.09.15.13-.04.15-.03.35-.13.44-.58.61-.57,1.37-.59,2.19.86-.97,1.31-2.13,1.82-3.25.05.01.1.02.15.03.07.62.15,1.24.23,1.98.09-.28.16-.43.18-.59.1-.63.16-1.27.3-1.88.2-.86.46-1.71.7-2.56.27-.35.54-.7.81-1.05ZM98.97,47.8c.37-.06.73-.12,1.1-.18.15-.02.34.03.45-.05.91-.61,1.74-1.29,2.08-2.4.18-.61.4-1.21.57-1.82.19-.7.35-1.41.51-2.06-.69-.29-1.28-.54-1.89-.78-.43-.17-.87-.33-1.32-.46-.06-.02-.27.17-.27.26,0,.79.15.9.94.81.21-.02.41-.06.62-.07.73-.03.79.06.59.7.11.15.3.35.27.38-.11.15-.28.33-.45.35-.34.05-.69.01-1.03.01-.26,0-.52,0-.79,0-.02.05-.05.1-.07.15.36.5.72.99,1.19,1.63-.68-.12-.78.26-.88.61-.22.81-.59,1.53-1.19,2.14-.2.2-.29.51-.43.77-.06-.08-.19-.2-.17-.24.13-.28.27-.55.44-.8.36-.53.74-1.04,1.11-1.57-.04-.03-.09-.07-.13-.1-.31.24-.62.49-.93.73l-.12-.06c.25-1.11.98-2.33-.68-3,.17.26.36.48.48.73.08.16.06.37.08.56-.17-.05-.35-.08-.51-.15-.17-.08-.32-.21-.48-.31-.03.03-.07.05-.1.08.1.38.21.76.31,1.14-.04.01-.08.03-.12.04-.27-.59-.47-1.21-.81-1.75-.32-.51-.52-1.19-1.27-1.38.25.45.47.83.68,1.22.27.48.57.95.79,1.45.42.94.96,1.84.88,2.93-.02.24-.09.47-.15.75-1.54-.97-2.98-1.88-4.43-2.78-.03.05-.06.1-.09.15.14.08.28.16.41.25,1.2.83,2.4,1.67,3.61,2.5.63.43.87,1.05.84,1.79-.06,1.2-.14,2.4-.22,3.67.1-.34.18-.62.28-.9.04-.12.11-.32.17-.32.39-.02.28-.28.26-.49-.04-.34-.11-.68-.17-1.03.24.44.34.93.54,1.37.21.45.49.87.77,1.28.27.4.58.77.87,1.15l.17-.12c-.43-.73-.85-1.46-1.3-2.18-.61-.98-1.02-2.01-1.12-3.34.5.34.94.55,1.27.87.64.62,1.22,1.31,1.84,1.96.17.18.39.32.59.47.04-.05.08-.1.12-.15-.28-.34-.55-.69-.85-1-.9-.95-1.82-1.89-2.72-2.84-.14-.15-.43-.32-.14-.59ZM77.05,106.88c.08-1.49.19-2.89.23-4.3.02-.78-.16-.91-.96-.94-.25,0-.59.04-.74-.1-.41-.36-.79-.21-1.2-.08-.17.05-.32.13-.48.19.42-.69,1.07-.87,1.78-.97.54-.08.81.19,1.08.6.11.16.44.21.68.23.05,0,.16-.33.19-.51.03-.2,0-.41,0-.62.05-.85.09-1.71.17-2.56.05-.55.06-1.18-.45-1.4-.53-.23-1.09-.6-1.78-.36-.43.15-.91.11-1.53.18.11-.32.12-.69.29-.78.77-.46,1.54-.27,2.26.18.24.15.49.29.86.51,0-.6-.02-1.08,0-1.56.02-.36.09-.71.15-1.06.11-.6.26-1.19.36-1.8.01-.08-.11-.2-.2-.27-.8-.67-1.74-.81-2.74-.7-.17.02-.34.05-.52.08-.02-.06-.04-.12-.05-.18.27-.1.54-.25.82-.29.73-.09,1.44.04,2.1.4.1.06.25.04.38.02.03,0,.05-.18.03-.27-.1-.45-.23-.9-.31-1.35-.02-.13.07-.3.16-.41.53-.71.31-1.55-.52-1.88-.26-.1-.54-.18-.81-.27.01-.04.03-.09.04-.13.39.1.8.18,1.18.31.37.13.55,0,.56-.34.02-.84.04-1.69,0-2.53-.02-.42-.23-.83-.68-.96-.94-.27-1.88-.52-2.83-.74-.41-.1-.85-.11-1.27-.16.67-.12,1.34-.23,1.99-.16.77.08,1.49.12,2.08-.27.14-.29.25-.55.38-.79.08-.15.29-.37.26-.42-.14-.19-.37-.45-.54-.44-.75.07-1.31-.33-1.71-.8-.35-.41-.74-.48-1.16-.6-.29-.08-.59-.12-.88-.18-.11.25-.23.52-.32.72-.25-.11-.45-.27-.57-.23-.55.19-1.09.41-1.6.69-.17.09-.34.37-.35.58-.02.7-.01,1.41.07,2.11.04.31.28.6.46.96-.06.04-.21.11-.33.22-.1.09-.23.23-.22.34.06.79.13,1.58.25,2.36.1.65.18.67.84.58.16-.02.32-.05.48-.07-.15.24-.32.44-.54.55-.5.27-.65.69-.6,1.21.07.68.15,1.37.25,2.05.05.37.12.76.63.68-.1.26-.26.49-.25.71.04,1.59.11,3.17.18,4.75.03.71.38,1.4.07,2.13-.05.12.05.31.09.48,1.44-.94,2.24-1.21,3.08-.98-.23.08-.36.13-.49.18-.7.28-1.42.52-2.1.85-.21.1-.4.44-.42.68-.08.99-.26,1.98.1,2.96.07.18.01.41.01.62,0,.29,0,.57,0,.9.43-.25.8-.54,1.23-.69.4-.14.86-.12,1.29-.17,0,.07.02.13.03.2-.18.05-.35.11-.53.15-1.16.28-1.79,1.23-1.55,2.41.32,1.59.66,3.17,1.01,4.74.4,1.78.78,3.57.69,5.42-.02.33.15.67.23,1,.04,0,.09,0,.13,0,.18-.77.36-1.55.52-2.32.03-.14-.07-.4,0-.44.57-.35.37-.85.37-1.36.01-1.67.1-3.34.21-5.01.03-.47.18-.96.83-1.08-.71-.52-1.48-.49-2.34-.5.86-.53,1.58-.02,2.49.09ZM73.33,37.77c.22.01.46.02.7.04-.09.27-.12.57-.28.79-.37.5-.78.96-1.2,1.43-.79.89-1.69,1.71-1.69,3.03,0,.05-.03.1-.06.14-.23.49-.12,1.06.32,1.36.38.26.78.49,1.2.66.52.21,1.08.34,1.62.53.25.09.66.07.56.51-.09.39-.42.32-.72.3-.01,0-.03.05-.08.12.24.16.5.3.72.48.15.12.26.28.39.43-.19.12-.38.33-.58.35-.28.03-.58-.05-.85-.13-.25-.07-.48-.21-.78-.34.72.82,1.39,1.58,2.07,2.36.04-.26.09-.49.12-.73.44-2.75.86-5.51,1.32-8.26.26-1.52.46-3.03.27-4.57-.2-1.57-.9-2.95-1.62-4.33-.37-.71-.9-1.26-1.77-1.42-.68-.13-.91-.07-1.11.61-.22.76-.4,1.53-.63,2.29-.09.31-.27.59-.41.89h-.2c-.16-.48-.31-.94-.48-1.44-.4.74-.16,1.66-.85,2.45-.12-.47-.2-.8-.33-1.27-.3.85-.56,1.59-.83,2.33-.03.1-.06.2-.09.29-.19.54-.41.62-.92.3-.24.47-.49.94-.73,1.42-.06-.01-.11-.02-.17-.03-.09-.36-.19-.71-.3-1.16-.08.26-.11.44-.18.59-.19.42-.06.7.27,1.03,1.35,1.36,2.76,2.66,3.78,4.3.12.2.3.36.49.6-.1-1.37-.57-2.5-1.24-3.59-.4-.63-.65-1.36-.94-2.05-.06-.15,0-.34,0-.6.74.26.92.94,1.4,1.43.01-1.1-.32-2.19.47-3.22.19.36.34.64.51.96.15-.24.27-.44.4-.63.06.04.13.08.19.13v1.33c.27-.31.48-.65.58-1.01.21-.78.35-1.58.54-2.36.07-.3.23-.57.34-.86.55.62.3,1.3.35,2.02.63-.84,1.2-1.62,1.77-2.39.08.03.15.06.23.09-.13.71-.26,1.43-.39,2.14-.03.18-.08.36-.11.54-.03.23.02.49-.09.67-.3.51-.67.99-.99,1.47ZM79.2,17.97c-.1.91.25,1.67.03,2.41-.05,0-.1,0-.15,0-.32-.67-.64-1.34-.96-2.02-.06.02-.12.04-.17.07.35,1.13.71,2.26,1.04,3.39.16.56.28,1.13.39,1.7.03.17-.07.36-.13.62-1.13-.87-1.32-2.22-2.11-3.33-.18,1.06.22,1.76.67,2.48.59.95,1.11,1.94,1.6,2.94.11.23-.04.6-.08.9-.22-.18-.49-.32-.64-.55-.32-.49-.56-1.03-.87-1.52-.09-.14-.32-.19-.49-.29-.05.18-.18.41-.12.53.28.54.61,1.06.93,1.58.11.18.28.32.43.48-.03.04-.06.08-.09.12-.65-.14-1-.8-1.63-.99.17.28.38.53.59.76.47.51.98.98,1.4,1.52.38.48.73,1.01.95,1.58.22.58.29,1.23.35,1.85.03.34-.02.75-.18,1.04-.88,1.54-1.5,3.17-2.02,4.85-.13.42-.26.83-.39,1.25-.04,0-.09,0-.13,0-.09-1.72-.04-3.44-.85-5.07-1.35-2.7-2.15-4-2.98-4.23.14.19.23.3.31.41.41.54.93,1.04,1.22,1.64.52,1.04.89,2.16,1.34,3.24.59,1.43.66,2.94.49,4.43-.21,1.78-.57,3.54-.94,5.29-.46,2.19-1.12,4.34-1.46,6.54-.39,2.45-.6,4.93-.73,7.4-.1,1.91.06,3.82.06,5.74,0,3.23-.02,6.46-.03,9.68,0,.18.02.36.03.65.51-.8.64-1.58.62-2.38-.07-2.52-.17-5.04-.25-7.55-.06-1.93-.18-3.86-.14-5.79.03-1.51.23-3.02.4-4.53.27-2.44.81-4.8,1.93-7.03.79-1.56,1.85-2.8,3.35-3.67.18-.1.34-.23.51-.34-.04-.05-.08-.1-.12-.14-1.83.71-2.99,2.15-3.96,3.92.47-4.68,1.58-9.05,3.63-13.29.14.25.19.36.25.47.13-.1.22-.17.41-.32-.15,1.28-.3,2.45-.44,3.62.06,0,.12.01.18.02.05-.35.07-.7.16-1.04.09-.36.24-.7.72-.85v3.42s.06,0,.1,0c.07-.54.14-1.08.21-1.65.34.31.61.55,1.02.92,0-.79.07-1.43-.03-2.05-.05-.35-.36-.66-.59-.97-.21-.28-.41-.54-.17-.97.34.17.66.33,1.08.54-.79-1.28-1.77-1.69-2.81-1.2.09-.22.13-.38.22-.51.29-.44.46-.82.37-1.44-.28-1.78-.36-3.6-.52-5.4-.06-.68-.1-1.36-.14-2.04h.16c.22,1.84.45,3.7.67,5.56.17-.11.21-.21.27-.32.31-.63.63-1.25.93-1.88.34-.71.65-1.43.97-2.15-.07-.03-.14-.07-.22-.1-.38.7-.76,1.41-1.15,2.13-.41-.18-.5-.53-.43-.89.08-.42.24-.82.4-1.22.34-.81.71-1.62,1.06-2.43-.06-.03-.11-.06-.17-.08-.29.49-.59.97-.87,1.47-.16.27-.1.8-.58.7-.44-.09-.29-.56-.29-.89,0-.1.03-.2.05-.31.14-.64.3-1.28.4-1.92.12-.73.18-1.47.26-2.2-.07,0-.15-.02-.22-.03l-.48,3.06c-.08,0-.16,0-.24,0-.65-1.67-.24-3.61-1.19-5.37ZM72.89,30.05c.03-.08.06-.15.08-.23-.49-.26-.97-.54-1.47-.79-1.01-.51-2-1.07-3.05-1.49-.82-.33-1.71-.66-2.57-.67-1.77-.02-3.21.79-4.3,2.2-.9,1.17-2.08,1.96-3.46,2.44-.53.18-1.08.3-1.63.45.52.46,1.04.92,1.55,1.37.03-.02.05-.04.08-.06-.09-.35-.19-.7-.32-1.2.88.48,1.52,1.01,2.05,1.67.29.36.53.8.89,1.06,1.04.75,2.12,1.42,3.15,2.1.76-.82,1.44-1.55,2.12-2.29-.58.17-1.07.44-1.6.62-.19.07-.46-.07-.69-.12.12-.21.22-.43.36-.62.08-.1.23-.15.34-.23.67-.49,1.35-.98,2.1-1.53h-1.14c.72-1.24,2.07-1.4,3.05-2.08-.44.09-.88.18-1.32.27-.01-.03-.03-.07-.04-.1.4-.44.8-.87,1.21-1.32-.47-.35-.9-.66-1.31-1-.1-.08-.21-.31-.16-.39.06-.12.27-.26.4-.24.51.06,1.03.11,1.5.3.96.39,1.87.87,2.81,1.3.45.21.92.38,1.39.57ZM94.96,21.52c-.51,1.65-.73,3.32-1.78,4.64-.05-.02-.1-.03-.16-.05.02-.23.03-.46.06-.79-.13.19-.2.31-.28.41-.85,1.02-1.77,1.91-3.11,2.28-1.44.4-2.86.88-4.28,1.34-.17.05-.33.14-.5.22,1.88-.37,3.54.16,4.23,1.5-.25-.11-.42-.17-.56-.26-.39-.25-.78-.51-1.17-.77-.51-.35-1.05-.45-1.67-.3-1.17.29-2.19.85-3.07,1.63-.68.61-1.28,1.31-1.98,2.03.3.16.46.22.59.32.57.44,1.12.89,1.69,1.34.16.13.32.25.48.37.08-.2.21-.4.24-.62.07-.45.13-.88.58-1.17.13.17.24.31.36.46.24-.38.47-.73.69-1.08.05,0,.1.02.16.03.12.57.24,1.13.36,1.7.38-1.48.92-2.88,1.78-4.13.05.01.09.02.14.04-.06.89-.12,1.78-.19,2.78.87-1.25,1.53-2.51,2.48-3.36.33.22.53.35.74.48.22.14.44.26.66.4.22.14.43.28.65.43-.57-1.08-1.55-1.61-2.62-2.05.78-.33,1.48.22,2.32.12-.76-.63-1.69-.48-2.51-.8.84-.33,2.53.2,3.06.99-.33.11-.63.21-.96.32,1.21,1.06,1.89,2.39,2.27,3.9.08.32.22.62.33.93.25-.89.23-1.73-.29-2.48-.26-.38-.59-.73-.82-1.12-.09-.16-.03-.42-.02-.64.01-.21.11-.42.08-.62-.12-.71-.5-1.17-1.23-1.36-.37-.1-.72-.3-1.07-.45.91-.21,1.8-.21,2.6-.48.78-.26,1.51-.75,2.2-1.22.7-.49,1.23-1.15,1.42-2.02-.41.24-.76.54-1.11.84-.66.59-.79.66-1.13.51,1.45-1.67,1.79-2.29,1.65-3.13-.55.74-1.05,1.42-1.56,2.09l-.15-.07c.06-.21.1-.43.19-.64.33-.77.69-1.54,1.01-2.32.08-.18.07-.4.1-.61-.05-.01-.1-.03-.14-.04-.2.39-.4.78-.61,1.18-.03-.01-.06-.03-.09-.04-.02-.18-.03-.37-.06-.66ZM90.42,30.77c-.06.01-.12.02-.17.03-.15.73-.3,1.46-.47,2.32.33-.25.55-.44.79-.59.13-.08.3-.09.46-.14.01.17.08.37.02.51-.36.84-.77,1.66-1.51,2.25-.29.23-.55.49-.85.76.8-.26,1.55-.49,2.31-.74.16.82-.05,1.36-.57,1.84-.63.59-1.21,1.25-1.89,1.97.47.14.77.23,1.07.32.02.05.03.1.05.15-.29.18-.57.43-.88.53-.57.18-1.17.37-1.76.37-1.03,0-1.62.57-2.09,1.35-.25.41-.44.85-.64,1.29-.06.14-.06.32-.09.51.23.04.4.1.56.09,1.24-.09,2.47-.18,3.71-.31.44-.04.91-.09,1.3-.28,1.9-.92,3.13-3.39,2.66-5.41-.18-.77-.42-1.53-.58-2.3-.05-.26.03-.54.06-.82.06,0,.12,0,.18,0,.19.18.39.36.64.6-.1-.73-.27-1.37-.26-2.01.02-.89-.46-1.37-1.09-1.73-.08.23-.11.62-.26.67-.3.1-.69.08-1.01-.32h1.02c-.28-.36-.49-.64-.7-.91ZM97.06,65.66c.06-.02.11-.04.17-.06-.25-.62-.51-1.23-.73-1.85-.36-1-.72-2-1.03-3.02-.09-.31-.01-.67-.01-1.01.05,0,.1-.02.16-.03l1.19,2.17c.06-.03.12-.06.19-.09-.38-.84-.76-1.69-1.15-2.53l.15-.13c.4.48.8.96,1.2,1.44l.12-.09c-.86-2.18-2.04-4.26-1.94-6.71.76,1.05,1.01,2.4,2.04,3.43.28-1.12-.64-1.78-.79-2.75.31.11.52.18.73.25-.87-1.09-1.88-2.08-2.05-3.53.04-.03.08-.07.12-.1.61.49,1.23.97,1.84,1.46.03-.04.06-.08.09-.12-.57-1.37-1.9-1.93-3-2.89.24,1.35.77,2.55.66,3.85-.19-.59-.3-1.19-.44-1.79-.13-.6-.29-1.19-.44-1.79-.05,0-.11,0-.16-.01.15,2.25-1.39,3.78-2.22,5.63.39-.46.78-.91,1.25-1.47.07,1.22-.54,2.26-.26,3.44,1.12-1.42.75-3.23,1.54-4.82.17.3.33.47.38.67.6,2.22.45,4.3-1.12,6.12-.32.36-.62.74-.89,1.14-.1.14-.11.35-.2.65.64-.27.96-.64,1.24-1.09.22-.35.43-.75,1.04-.69-.58,1.49-1.67,2.71-1.95,4.27.06.03.13.07.19.1.46-.78.93-1.57,1.39-2.35.06.03.12.05.18.08-.31,2.39-.12,4.89-1.57,7.04.18-.21.37-.41.55-.62.04.02.08.04.13.06-.06.97-.12,1.93-.18,2.9l.16.02c.04-.07.08-.14.12-.22.38-.78.53-1.59.42-2.46-.05-.35-.05-.72.42-.9.22.75.43,1.46.64,2.18.06-.01.13-.03.19-.04,0-.2.03-.4,0-.6-.22-1.32-.49-2.62-.67-3.95-.07-.55.01-1.13.08-1.69.02-.18.2-.34.31-.51.08,0,.15.02.23.03l.88,3.72s.07-.01.1-.02c-.11-.7-.22-1.4-.33-2.1.05-.01.1-.02.16-.03.3.48.59.95.89,1.43ZM74.4,62.79s.08,0,.11,0c.21-1.24.31-2.5.65-3.7.26-.91.56-1.8.7-2.74.23-1.51.78-2.92,1.41-4.3.56-1.22,1.15-2.42,1.82-3.58.58-1,1.43-1.76,2.46-2.32.95-.51,1.9-1.03,2.97-1.61-.83-.21-1.56-.42-2.31-.58-.25-.06-.53,0-.32-.46-.36.06-.64.1-.92.14,0,.03,0,.06,0,.09h.58c-.31.25-.64.41-.99.53-1.29.43-2.39,1.18-3.04,2.36-.77,1.4-1.6,2.83-1.98,4.35-.58,2.33-.88,4.74-1.13,7.13-.16,1.55-.03,3.13-.03,4.7ZM49.38,73.81c.08.02.16.03.24.05.1-.34.2-.68.31-1.02.09-.25.2-.49.3-.74.07.26.2.53.21.79.04.76.15,1.5.47,2.19.06,0,.11-.02.17-.03l-.46-3.41s.07-.02.1-.03c.34.57.68,1.14,1.01,1.7.05-.02.11-.05.16-.07-.02-.23,0-.47-.05-.7-.18-.89-.36-1.79-.59-2.67-.44-1.73-.64-3.43.43-5.02.03-.05.02-.14.04-.29-.39.35-.71.64-1.04.91-.1.08-.35.17-.39.13-.27-.28-.46-.06-.68.05-.32.15-.65.29-.99.42-.63.23-1.27.44-1.9.66,0,.03,0,.06,0,.09.59.06,1.18.12,1.77.18,0,.06.01.13.02.19-1.27.92-2.9,1.01-4.39,1.8.78-.08,1.41-.16,2.03-.2.16-.01.47.1.47.15,0,.2-.08.42-.18.6-.06.11-.22.16-.33.25-1.03.77-2.07,1.55-3.1,2.32-.03.02-.04.09-.1.26.74-.3,1.4-.56,2.15-.87-.24.52-.41.91-.59,1.29-.2.4-.45.78-.62,1.19-.16.37-.24.78-.35,1.17.05.02.1.05.15.07.54-.72,1.07-1.43,1.61-2.15.04.03.09.05.13.08-.27,1-.71,1.97-.6,3.04.15-.17.25-.35.31-.54.33-1,.71-1.98.97-3,.66-2.61,1.93-4.81,4.08-6.47.16-.13.34-.22.52-.33.04.05.08.1.12.15-.21.22-.42.46-.64.67-.57.53-1.15,1.04-1.71,1.58-.5.48-.95,1-.82,1.78.02.11-.04.24-.06.36-.18,1.24-.38,2.48-.53,3.73-.04.38.08.78.13,1.18.07,0,.13.01.2.02.12-.31.28-.61.35-.93.33-1.51.63-3.03.95-4.55.12-.55.22-1.12.42-1.64.07-.18.43-.24.66-.35.09.18.25.36.25.54.05,1.37-.08,2.72-.43,4.05-.12.45-.15.92-.22,1.38ZM73.6,66.84c-.03-.49-.02-.99-.1-1.48-.23-1.58-.55-3.16-.73-4.74-.21-1.78-.31-3.57-.46-5.36-.09-1.04-.18-2.08-.27-3.16-.3.22-.53.38-.89.63v-2.19c-.19.06-.33.11-.6.19.05-1.33.58-2.58.25-3.91-.11.11-.21.18-.25.28-.1.2-.12.44-.25.61-.12.15-.33.23-.5.34-.04-.18-.13-.37-.11-.55.03-.23.18-.45.24-.68.09-.39.16-.8.23-1.19-.07-.04-.15-.07-.22-.11-.1.14-.18.31-.31.42-.87.69-1.04,1.57-.77,2.6.23.87.43,1.74.61,2.61.1.51.13,1.03.21,1.66-.86-.34-1.01-1.06-1.41-1.76,0,.79,0,1.42,0,2.05,0,.1.07.21.13.3.43.62.98,1.18,1.28,1.86,1,2.3,1.94,4.63,2.84,6.98.56,1.47.87,3.01,1.07,4.59ZM83.58,43.3c.19-.61.36-1.17.54-1.77.12.11.19.17.26.23.17-.2.32-.38.48-.57.57-.7,1.24-1.17,2.2-1.13.42.02.86-.09,1.28-.18.18-.03.34-.14.51-.22-.78-.35-1.47.12-2.34.15.64-.89,1.86-.8,2.31-1.82-.59.17-1.11.32-1.63.48-.02-.06-.05-.13-.07-.19,1-.91,2.5-1.19,3.25-2.52-1.39.19-2.28,1.3-3.54,1.71,0-.24.04-.47.16-.61.21-.25.48-.44.72-.66.75-.68,1.52-1.35,2.24-2.06.27-.27.42-.67.63-1.01-.95.43-1.61,1.23-2.57,1.55.43-.57.92-1.08,1.31-1.65.41-.6.51-1.3.49-2-.06-.03-.12-.05-.18-.08-.93,1.4-1.86,2.81-2.79,4.21-.05-.03-.1-.05-.15-.08.28-1.03.83-2.03.54-3.17-.35.8-.65,1.62-.92,2.45-.25.78-.46,1.58-.71,2.37-.06.18-.21.34-.31.5-.08-1.21.35-2.35.07-3.59-.58.65-.53,1.44-.8,2.14l-.28-1.55c-.08,0-.16.02-.23.03.05.63.04,1.26.15,1.88.23,1.27.22,2.54.03,3.81-.03.18-.26.47-.35.45-.2-.04-.42-.2-.52-.38-.11-.2-.12-.46-.14-.7-.07-.68-.13-1.37-.19-2.05-.06,0-.12,0-.18,0v3.01c-.21-.28-.36-.48-.51-.68-.02.01-.04.02-.05.04.43,1.2.87,2.39,1.33,3.66ZM92.85,39.49c1.37-1.24,1.87-2.99,1.95-4.97.13.11.25.17.24.21-.15,1.14-.31,2.29-.46,3.43.21-.13.35-.34.49-.55.15-.25.25-.55.45-.74.38-.36.83-.65,1.23-1,.42-.37.81-.78,1.21-1.16l-.16-.2c-.77.44-1.53.89-2.3,1.33-.05-.04-.09-.09-.14-.13.07-.19.09-.42.22-.57.25-.31.53-.59.82-.85.87-.76,1.75-1.51,2.62-2.27.14-.12.24-.29.36-.43-.05-.05-.1-.09-.14-.14-.27.23-.55.45-.85.7-.76.11-1.06,1.09-1.95,1.35.51-1.45,2.1-2.05,2.27-3.61-.72.72-1.44,1.45-2.16,2.17-.04-.03-.09-.07-.13-.1.42-.78.91-1.53,1.23-2.34.31-.81.44-1.69.65-2.54-.04-.02-.07-.03-.11-.05-.21.3-.42.6-.7,1.01-.02-.33-.03-.55-.05-.88-.35,1-.65,1.89-.96,2.78-.05-.01-.11-.03-.16-.04v-2.12c-.37.75-.67,1.51-.62,2.38.05.82.06,1.65.03,2.47,0,.22-.21.44-.32.66-.05-.02-.1-.04-.14-.05-.3-1.23-.6-2.47-.91-3.7-.06,0-.11.02-.17.03-.08.37-.17.75-.25,1.12h-.11c-.21-.58-.42-1.16-.63-1.75-.05.02-.1.03-.14.05.23.72.45,1.45.72,2.3-.28-.15-.43-.23-.57-.31.23.44.49.82.76,1.19.5.7.67,1.48.52,2.31-.05.3-.26.58-.44.97-.81-1.03-.6-2.28-1.22-3.18-.04.01-.09.03-.13.04.2,1.51.4,3.02.61,4.53-.07.02-.14.03-.21.05-.23-.62-.27-1.35-.99-1.84.23.83.49,1.54.62,2.27.12.74.11,1.51.15,2.16ZM79.54,35.79s-.08-.03-.12-.04c-1.26,3.2-2.21,6.48-2.57,9.96,1.59-2.1,3.73-2.76,6.24-2.48-.06-.94-.25-1.71-.82-2.41-.05.42-.09.77-.13,1.05.23.04.42.07.62.1-.17.14-.33.29-.51.4-.09.05-.22.03-.38.04,0-.49.03-.95,0-1.41-.03-.45-.13-.9-.19-1.36-.17.16-.19.32-.27.45-.07.12-.2.2-.31.3-.09-.11-.21-.22-.26-.35-.05-.14-.03-.31-.04-.46-.03-.5-.06-1.01-.09-1.62-.19.27-.29.44-.42.6-.27.31-.49.27-.65-.12-.05-.13-.09-.27-.1-.4,0-.76,0-1.51,0-2.27ZM64.5,50.48c-1.51-.82-2.9-1.57-4.22-2.29-.09.82-.17,1.69-.3,2.56-.03.2-.22.46-.39.52-.13.05-.36-.18-.55-.29-.21.5-.03,1.23-.89,1.62-.08-.61-.15-1.14-.22-1.67-.13.08-.26.23-.4.23-.39,0-.44.24-.46.54-.03.48-.05.96-.11,1.44-.05.38-.07.8-.61.96-.1-.32-.19-.62-.3-1.01-.27.4-.5.75-.77,1.16.69.67,1.37,1.33,2.05,1.99.26.25.48.23.76,0,.99-.8,1.55-1.92,2.18-2.97.64-1.09,1.33-2.11,2.59-2.53.46-.15.96-.17,1.63-.28ZM40.19,61.02c.5-.39.86-.86.94-1.45.12-.97.12-1.96.22-2.93.09-.82.24-1.63.39-2.44.04-.21.19-.39.3-.58.16.72.2,1.39.32,2.04.11.64.22,1.3.88,1.86-.03-.6-.04-1.04-.08-1.48-.09-.96-.22-1.92-.28-2.88-.06-.99.16-1.93.74-2.74.12-.17.38-.24.57-.35.05.19.13.38.14.57.02.62-.04,1.24.02,1.86.08.72.37,1.36,1.03,1.96-.19-2.4-.37-4.65-.55-6.9-.07.1-.15.22-.24.34-.73,1.03-1.15,2.24-2.17,3.1-.93.79-1.72,1.73-2.59,2.6-.52.52-.86,1.12-1.12,1.78.06.05.11.11.17.16.77-.63,1.54-1.26,2.42-1.98-.24,1.13-.93,1.88-1.37,2.75-.43.86-.72,1.79-1.08,2.69.06.02.12.05.17.07.48-.39.76-.9.94-1.49.05-.15.27-.24.41-.35.03.18.1.36.07.53-.06.38-.24.76-.26,1.14-.04.69-.01,1.38-.01,2.13ZM98.07,47.54s.09-.05.13-.08c-.08-.41-.09-.85-.25-1.22-.42-.96-.89-1.89-1.37-2.82-.08-.16-.36-.21-.55-.31-.17-.09-.43-.14-.5-.29-.43-.79-1.17-1.14-1.94-1.45-.74-.29-.81-.23-1.23.44-.28.45-.63.85-.95,1.28l-.15-.11c.29-.38.58-.76.87-1.14-.03-.02-.05-.04-.08-.06-.79.62-1.58,1.24-2.25,1.77.88.52,1.86,1.09,2.9,1.71.45-.26.94-.29,1.68.11,1.01.54,1.99,1.15,2.98,1.73.24.14.48.3.72.45ZM64.27,60.8c.39-.15.62.01.73.27.41.91,1.36.77,2.05,1.15-.47-.44-.98-.83-1.47-1.24-.31-.25-.6-.52-.88-.8-.08-.08-.07-.24-.11-.37.12-.01.26-.06.37-.03.3.09.59.2.89.31-.13-.23-.29-.37-.47-.5-.86-.61-1.74-1.19-2.58-1.82-.22-.16-.34-.46-.5-.7.3.04.61.04.89.14.43.16.83.39,1.24.6.03-.06.07-.12.1-.18-1.08-.72-2.15-1.43-3.34-2.22.06.3.09.47.13.63.29,1.25.46,2.49.14,3.78-.22.89-.25,1.83-.33,2.75-.04.5,0,1-.03,1.5-.02.24-.13.47-.2.71.05.02.1.03.14.05.07-.17.16-.33.19-.5.2-1.03.38-2.06.6-3.09.05-.25.21-.49.32-.73.82,1.92.27,3.97,1,5.87.05-.42.09-.78.13-1.14.05-.01.1-.02.14-.03.55.99,1.09,1.97,1.64,2.96.06-.03.12-.06.19-.09.03-1.82-1.34-3.12-1.84-4.78.48.37.84.85,1.29,1.22.45.37.98.64,1.48.95.05-.06.09-.12.14-.18-.27-.24-.53-.49-.81-.71-1.2-.98-2.05-2.23-2.69-3.62-.16-.36-.29-.74-.37-1.12-.04-.19.04-.4.07-.61.19.09.44.13.55.28.31.43.58.89.84,1.35.3.52.57,1.06.87,1.58.11.19.3.34.56.62-.04-1-.7-1.53-1.08-2.24ZM98.89,36.42c-1.76,1.65-4.25,2.04-5.86,4.05.52.05.95.18,1.35.12.96-.15,1.91-.4,2.87-.59.76-.15,1.53-.25,2.29-.38,0-.05-.01-.11-.02-.16h-.58c.06-.19.16-.31.29-.35.95-.31,1.41-1.05,1.73-1.92.38-1.04.2-2.11.15-3.18,0-.08-.14-.22-.22-.22-.43-.02-.86-.01-1.34-.01.57.75,1.39,1.24,1.54,2.32-.39-.2-.67-.35-1.04-.54.59,1.16.67,1.78.25,2.21-.26-.41-.48-.81-.75-1.17-.19-.25-.41-.51-.67-.65-.35-.18-.77-.25-1.17-.37-.34.27-.7.57-1.17.94.86.06,1.55-.47,2.35-.11ZM99.52,53.43c.11.8.2,1.56.32,2.32.12.75.3,1.48.39,2.23.09.75.1,1.5.14,2.26-.05,0-.1,0-.15.01-.06-.96-.12-1.92-.18-2.88-.23.38-.32.75-.45,1.1-.3.83-.64,1.63-.9,2.47-.16.51-.26,1.06.05,1.62.72-.48.33-1.64,1.33-1.98.26,2.01-.69,3.89-.3,5.84.07-.5.13-.99.2-1.49.04,0,.08,0,.12,0,.09.49.19.98.28,1.48.04,0,.08,0,.13,0l.29-3.4c.06,0,.11,0,.17,0,.2.89.36,1.79,1.03,2.58.32-1.93-1.02-3.33-1.3-5,.04-.02.08-.05.12-.07l1.31,1.77c.06-.03.13-.06.19-.09-.32-.82-.64-1.64-.95-2.46-.28-.74-.55-1.48-.79-2.23-.06-.17,0-.39.02-.58.06,0,.12-.02.17-.02.18.3.34.62.55.9.21.28.48.51.73.76.05-.04.09-.07.14-.11-.88-1.65-1.76-3.31-2.67-5.01ZM44.66,45.97c.06.33.19.69-.26.97-1.18.74-2.34,1.51-3.52,2.25-.77.48-1.37,1.1-1.77,1.89.03.04.07.08.1.11.67-.51,1.35-1.01,2.02-1.52.02.04.05.07.07.11-.39.64-.77,1.29-1.16,1.93.33-.17.58-.39.8-.63.54-.58,1.06-1.18,1.61-1.76.14-.14.39-.34.51-.3.43.15.55-.16.71-.4.57-.86,1.12-1.74,1.68-2.61.13-.2.3-.38.52-.63.01.17.04.23.02.27-.06.14-.14.28-.18.42-.05.14-.12.3-.1.44.27,1.7.99,3.23,1.74,4.75.01.02.05.03.08.05.25-.9-.02-1.72-.39-2.53-.05-.11.02-.27.03-.4.13.07.28.1.37.2.2.23.37.49.55.73.05-.03.11-.07.16-.1-.33-.62-.62-1.25-.98-1.85-.6-1-.7-2.02-.32-3.12.54-1.52,1.27-2.94,2.27-4.21.2-.26.36-.55.53-.83-1.05.95-1.83,2.13-2.38,3.47-.34.83-.73,1.63-1.41,2.26-.69.64-1.55.78-2.42.93-.87.16-1.71.36-2.41,1.01.59.07,1.13-.64,1.76,0,.54-.29,1.13-.6,1.77-.95ZM71.09,23.29c.18.38.32.68.47.98-.04.02-.08.04-.12.07-.62-1.06-1.25-2.12-1.87-3.18.04-.02.07-.04.11-.06.13.14.27.29.4.43.05-.02.1-.04.15-.07-.45-1.38-.9-2.76-1.35-4.14-.08.02-.16.04-.24.06.12.74.23,1.47.35,2.21-.05.03-.09.05-.14.08-.69-1.03-1.39-2.06-2.08-3.1-.06.04-.12.07-.18.11.07.2.12.42.23.6.31.52.66,1.01.95,1.54.12.22.14.49.21.74-.06.03-.12.05-.18.08-.52-.43-1.05-.87-1.57-1.3-.1.56.13.85.51,1.09.37.24.74.51,1.06.81.59.58,1.16,1.18,1.71,1.8.38.42.72.88,1.05,1.34.1.14.13.35.18.53l-.11.07-2.51-1.8c-.06.05-.11.1-.17.15.1.2.15.45.3.58.45.4.92.77,1.4,1.13.47.35.95.69,1.42,1.03l-.09.16c-.77-.27-1.54-.53-2.31-.8-.02.05-.04.1-.05.15.25.32.41.79,1.02.47.12-.07.37.04.53.12,1.08.52,2.26.87,3.03,1.89.02.03.08.04.12.06.04-.03.08-.05.12-.08-.49-.81-.98-1.62-1.5-2.46.14.06.26.11.44.19-.23-1.84-.6-3.57-1.25-5.24-.06.99.03,1.95.36,2.88.13.36.29.76-.37.89ZM61.82,18.8c-.23,1.2.66,1.92,1,2.85-1.28-.86-1.75-2.42-3.06-3.23.41.59.82,1.18,1.23,1.77-.04.05-.09.09-.13.14-.78-.53-1.56-1.05-2.34-1.58-.04.05-.07.11-.11.16.53.4,1.07.81,1.6,1.21-.02.04-.03.07-.05.11-.34-.07-.67-.14-1.01-.21-.02.04-.05.09-.07.13,1.08.66,2.15,1.31,3.23,1.97-.03.06-.05.11-.08.17-.9.15-1.63-.48-2.53-.63.4.6.89.92,1.56,1.05.74.14,1.47.34,2.2.55.22.06.4.24.61.37-.02.06-.05.11-.07.17-.39-.06-.77-.13-1.16-.19-.01.04-.02.07-.04.11,1.45.68,2.9,1.37,4.41,2.07-.24-1.11-.48-2.2-.72-3.29-.08.02-.16.03-.24.05l.39,2.21s-.09.04-.14.06c-.1-.19-.24-.38-.31-.58-.28-.85-.53-1.71-.81-2.56-.09-.28-.21-.55-.32-.83-.05.01-.1.03-.15.04.1.71.2,1.43.31,2.19-.14-.1-.25-.18-.38-.27v.68c-1.11-1.47-1.47-3.34-2.82-4.71ZM98.88,53.88c-.06-.01-.11-.03-.17-.04-.07.11-.12.25-.22.33-.17.14-.37.25-.56.37-.02-.21-.09-.43-.05-.62.31-1.3.39-2.62.34-3.95,0-.16-.01-.39-.11-.48-.56-.52-1.14-1.02-1.72-1.52-.58-.5-1.15-1.03-1.76-1.5-.47-.35-1-.61-1.5-.91-.03.04-.06.08-.09.12.49,1.14.98,2.29,1.48,3.43.07.16.22.32.37.42,1.1.76,2.09,1.62,2.82,2.75.07.1.11.22.17.33-.15.06-.33.19-.44.15-.33-.13-.64-.32-.95-.49-.22-.12-.42-.26-.63-.39-.04.05-.08.11-.12.16.82,1.13,1.69,2.23,2.72,3.31.17-.58.3-1.03.43-1.48ZM49.76,29.23c.04.07.07.14.11.22.38-.15.77-.3,1.15-.45.38-.15.72-.5,1.32-.2-1.05.88-2.02,1.68-2.98,2.48-.12.1-.3.18-.34.31-.12.41-.19.83-.27,1.17.56-.6,1.17-1.25,1.79-1.91.06.04.12.08.18.12-.19.62-.37,1.24-.56,1.86.04.02.09.04.13.06.66-.58.59-1.66,1.4-2.23.01.26.02.43.04.68.41-.59.53-1.29,1.1-1.66.05.02.1.05.15.07-.12.57-.24,1.15-.36,1.72.05.01.1.03.15.04.13-.31.27-.62.39-.94.31-.87.61-1.76.93-2.63.08-.21.24-.39.37-.59.05.02.09.05.14.07-.07.4-.17.8-.21,1.21-.04.4,0,.81,0,1.22l.24.03c.13-.52.3-1.03.37-1.56.21-1.69,1.1-2.76,2.72-3.21.02,0,.02-.05.03-.07-.34-.28-.65-.16-.97.05-.22.14-.48.25-.74.3-.44.08-.89.08-1.34.13-.33.04-.66.11-1,.16,0,.04.02.08.02.12.36.03.71.06,1.07.08,0,.06.01.11.02.17-.27.13-.55.25-.81.38-.17.08-.44.17-.46.29-.11.54-.57.65-.95.85-.67.36-1.35.68-2.01,1.05-.29.16-.55.4-.82.6ZM56.3,47.1c.06.04.12.08.18.12-.05.12-.11.23-.16.35-.25.54-.56,1.07-.73,1.63-.1.33-.13.85.06,1.08.32.39.23.7.14,1.08-.15.65-.28,1.31-.42,1.96.07.02.14.03.21.05.16-.59.31-1.17.47-1.76.06-.23.1-.59.25-.64.54-.2.45-.68.58-1.06.24-.71.49-1.42.77-2.12.05-.13.3-.18.45-.26.08.16.22.32.22.48-.01.34-.1.67-.14.89.61.98-.1,1.99.22,2.89.05,0,.1.01.16.02.18-1.14.37-2.29.55-3.43h.19c.14.59.29,1.18.43,1.77.05,0,.11,0,.16-.01.02-.76.04-1.53.07-2.29,0-.16.01-.43.1-.47.6-.29.4-.95.73-1.3-.23.11-.47.32-.69.31-.52-.04-1.05-.13-1.54-.32-1.13-.44-1.86-.01-2.42.94-.18.31-.42.59-.61.9-.09.15-.15.31-.23.47l.05.02c.31-.43.63-.86.94-1.3ZM87.1,65.52s.09.04.13.06c.21-.37.4-.75.63-1.11.21-.33.32-.82.91-.74.15,1.28-.42,2.42-.51,3.63.13-.34.27-.69.41-1.06.38.22.37.54.27.82-.23.7-.52,1.38-.76,2.08-.31.91-.6,1.83-.9,2.75.06.02.11.04.17.05.47-.69.23-1.69.91-2.29.06,0,.11.01.17.02v1.78c.06,0,.12,0,.18,0,.93-1.4.62-2.97.5-4.51.04,0,.08,0,.12-.01.36.97.71,1.93,1.07,2.9.07-.02.14-.03.21-.05-.04-.35-.03-.71-.12-1.04-.22-.81-.48-1.61-.71-2.43-.09-.33-.13-.67-.19-1.01.07-.02.13-.05.2-.07.26.44.52.87.79,1.31.07-.23.08-.44.01-.62-.33-.9-.69-1.8-1.01-2.7-.11-.3-.15-.63-.22-.94l.17-.08c.49.52.98,1.04,1.47,1.56.04-.03.07-.06.11-.08-.31-1.55-1.83-2.41-2.26-3.89-.13.76-.15,1.52-.28,2.25-.1.54-.21,1.15-.54,1.56-.45.58-.72,1.18-.92,1.85ZM64.74,37.03l.19.09c.12.95-.8,1.69-.67,2.73.58-.62.9-1.29,1.11-2.02.13-.45.22-.9.38-1.34.07-.18.27-.32.47-.56.09.56.15.95.22,1.34.55-.84.23-1.9.85-2.67.06,0,.12,0,.18.01.03.69.07,1.38.1,2.06.07,0,.14,0,.21,0,.1-.71.22-1.41.29-2.12.06-.7.15-1.37.75-1.91-.02.36-.04.65-.07,1.04.19-.26.31-.43.43-.6.04.01.08.02.12.04v1.22c.56-1.02.51-2.26,1.36-3.15.06.23.11.49.01.66-.37.66-.19,1.26.12,1.92.48-1.08.78-2.14.77-3.34-2.52,1.46-5.16,2.7-7.49,4.45.04.07.08.13.12.2l2.43-1.48s.06.09.09.14c-.48,1.68-2.13,2.59-2.77,4.17.26-.3.53-.6.79-.89ZM48.3,40.32s-.04-.09-.07-.14c-.33.03-.67.06-1,.1-.36.04-.72.09-1.08.13-1.24.12-1.46.33-1.59,1.57-.01.1,0,.21-.02.31-.12.78-.15,1.59-.71,2.22-.12.14-.33.2-.5.29-.07-.17-.2-.35-.21-.53-.03-.44-.01-.89-.01-1.34-.64,1.06-1.27,2.11-1.86,3.09.83-.18,1.72-.42,2.63-.55,1.5-.22,2.58-.84,2.75-2.49,0-.08.05-.16.08-.24.35-.92.73-1.82,1.6-2.41ZM51.24,50.67c.03.07.05.15.08.22-1.09,1.06-2.75,1.35-3.72,2.57.03.05.06.1.08.15.92-.49,1.85-.97,2.81-1.48.19.6-.18.78-.49,1.02-.9.71-1.81,1.43-2.7,2.17-.19.15-.32.37-.48.56,1.52-.55,2.71-1.52,3.63-2.84l.13.08.08.96c.19-.18.24-.39.33-.59.31-.7.61-1.41.98-2.08.1-.18.42-.23.63-.35.07.24.18.47.19.71,0,.23-.09.47-.14.7-.04.19-.08.39-.15.68,1.17-.76.83-1.99,1.12-2.97.04,0,.09,0,.13.01.06.19.11.38.19.62.39-.92.75-1.77,1.1-2.59-1.4.27-2.74.53-4.08.79,0,.06.02.12.02.19h2.13s0,.08,0,.12c-1,.27-1.99.54-3.1.84.29.12.43.18.64.27-.19.18-.32.3-.46.43.36-.06.71-.13,1.07-.19ZM102.66,48.95c.55-.24,1.04-.16,1.48.16.43.32.81.7,1.23,1.02.66.5,1.34.98,2.01,1.46.04-.05.07-.1.11-.15-.37-.83-1.23-1.21-1.8-1.87,1.33.31,2.3,1.35,3.63,1.85-.3-.32-.53-.56-.75-.8.03-.04.05-.08.08-.12.51.23,1.02.47,1.53.7.04-.06.07-.12.11-.19-.88-.58-1.76-1.16-2.64-1.75.02-.06.03-.12.05-.18l3.42-.28c0-.05,0-.1,0-.16-.9-.51-1.84-.52-2.8-.2-.5.17-1,.31-1.56-.05.72-.51,1.38-.99,2.04-1.46-.04-.06-.07-.13-.11-.19-.48.21-.97.39-1.42.64-.44.24-.83.56-1.26.81-.2.11-.45.14-.81.25.55-.7.99-1.27,1.44-1.84-.05-.04-.1-.09-.15-.13-.67.6-1.34,1.2-2.01,1.79.03.05.06.1.09.16.47.06.93.12,1.4.18,0,.06-.02.13-.03.19-1.7.05-3.34-.5-5.04-.59,1.08.68,1.85,1.82,3.14,2.14.03-.04.06-.08.09-.11-.47-.42-.94-.84-1.47-1.3ZM106.08,53.24c0,.06-.02.13-.02.19.99.46,1.97.91,2.96,1.37-.03.06-.05.11-.08.17-1.52-.59-3.03-1.18-4.55-1.77-.05.08-.09.16-.14.24l2.72,2.32s.07-.07.11-.11c-.38-.46-.76-.91-1.14-1.37.04-.04.09-.09.13-.13.31.23.63.45.92.71.65.59,1.27,1.21,1.93,1.8.2.18.46.29.69.43l.09-.13c-.3-.69-.73-1.28-1.44-1.71.2-.07.41-.1.54-.02.44.26.88.54,1.28.87.59.48,1.15,1.01,1.77,1.57-.05-.89.43-.39.73-.33.02-.05.03-.1.05-.15-.64-.42-1.28-.83-1.92-1.25.04-.07.07-.15.11-.22.44.15.87.33,1.31.43.44.1.91.12,1.36.17-.87-.99-2.17-.91-3.17-1.48l.03-.17c.43-.05.86-.1,1.29-.15-.44-.17-.89-.25-1.34-.31-.82-.11-1.64-.18-2.46-.31-.16-.02-.29-.22-.43-.34.15-.05.29-.12.44-.14.24-.04.48-.03.72-.07.35-.07.69-.16,1.04-.25-.01-.07-.03-.14-.04-.21-1.19-.13-2.34.11-3.49.36ZM57.22,42.71c-.07,0-.13,0-.2,0-.53-1.05-.22-2.28-.71-3.36-.05.38-.09.77-.14,1.15-.05,0-.1.01-.15.02-.74-.89-.77-2.2-1.63-3.01l-.2.1,1.46,3.03s-.1.04-.15.06l-1.48-1.39s-.09.09-.13.14c1,1.09,1.97,2.2,2.61,3.54-.06.07-.11.13-.17.2-.64-.39-1.28-.78-1.93-1.17-.01.02-.03.04-.04.05.23.27.46.54.76.91h-1.01c.97.85,2.26.99,3.12,1.81-.02.05-.04.09-.06.14-.28.03-.57.07-.85.1,1.11.61,2.27.73,3.37.63-.34-1.06-.66-2.06-.98-3.06-.08.02-.16.04-.24.06.15.79.3,1.58.45,2.37-1-.86-.95-2.21-1.56-3.35-.05.42-.09.72-.13,1.02ZM67.84,53.65s.1,0,.15,0c.02-.23.07-.47.07-.7-.02-.95-.06-1.9-.08-2.84,0-.19.07-.38.11-.58.07,0,.14,0,.21-.01.19.94.24,1.94,1,2.61.05-.02.1-.04.15-.05-.34-1.5-.68-3.01-1.05-4.67-.44.77-.8,1.42-1.17,2.07-.04-.02-.08-.04-.12-.06.34-.76.67-1.51,1.05-2.37-.77.77-1.16,1.61-1.34,2.55-.25,1.29-.68,2.49-1.55,3.5-.07.08-.11.19-.17.29.04.04.08.08.13.12.48-.45.96-.9,1.44-1.35.04.02.08.04.12.07-.08,1.19-1.07,2.04-1.26,3.19.32-.51.63-1.01.95-1.52l.07.05c-.21,1.13-.42,2.27-.63,3.4.09.03.18.05.28.08.28-.8.62-1.58.81-2.39.19-.85.23-1.73.33-2.6l.08-.02c.14.41.27.82.41,1.23ZM102.01,33.16c-.06,0-.11-.02-.17-.02-.47.42-.51,1-.39,1.55.33,1.6-.2,2.97-1.02,4.29-.09.15-.12.34-.17.51.06.02.12.04.18.06.12-.16.25-.32.36-.49.64-1.02,1.25-2.06,1.92-3.07.38-.58.64-1.22,1.44-1.51.7-.26,1.26-.88,1.87-1.36.15-.12.27-.28.4-.41-.02-.03-.05-.05-.07-.08-.31.18-.62.37-1.05.62.08-.3.12-.47.16-.65-.18.05-.33.1-.49.14-.03-.03-.06-.06-.09-.09.61-.93,1.65-1.63,1.72-2.87-.34.32-.64.83-1,.88-.5.06-.56.39-.73.67-.22.37-.37.78-.59,1.15-.21.35-.46.68-.7,1.02-.07-.02-.13-.05-.2-.07.2-.81.4-1.62.6-2.42-.05-.02-.11-.03-.16-.05-.61.57-.8,1.34-.98,2.13-.16.7-.35,1.4-.53,2.09-.03.11-.12.2-.18.3-.05-.01-.1-.02-.14-.04v-2.3ZM68.33,53.94c-.05.05-.1.1-.15.16.12.21.24.41.37.61.28.43.62.82.84,1.28.42.88.8,1.79,1.16,2.7,1.44,3.59,2.06,7.36,2.24,11.19.11,2.42.18,4.86-.36,7.26-.07.3,0,.63,0,1.07.27-.23.5-.34.62-.53.31-.46.36-.94.34-1.53-.1-2.96-.07-5.93-.12-8.89-.01-.69-.04-1.42-.23-2.07-.54-1.84-1.17-3.66-1.76-5.49-.58-1.81-1.38-3.52-2.37-5.14-.14-.23-.38-.41-.57-.61ZM90.79,23.91s-.05-.09-.08-.14c-.65.4-1.29.82-1.95,1.21-.25.15-.54.48-.8.16-.09-.11.11-.55.28-.76.55-.68,1.16-1.32,1.72-1.99.2-.23.33-.52.56-.89-.3.11-.45.17-.74.28.1-.43.17-.75.24-1.06-.03,0-.05-.02-.08-.02-.57,1-1.15,2-1.72,3-.08-.02-.15-.05-.23-.07.08-.91.17-1.82.25-2.74-.04,0-.08-.02-.12-.03-.24.77-.49,1.54-.79,2.49-.22-.28-.34-.45-.53-.69.04,1.31.16,2.56-1.03,3.56-.04-.64-.07-1.15-.1-1.66-.05,0-.1,0-.16,0-.11.72-.21,1.44-.35,2.16-.34,1.72-1.04,3.21-2.75,4-.07.03-.12.1-.17.16.03.05.06.09.09.14.56-.37,1.15-.69,1.65-1.13.37-.33.62-.81.92-1.22.77-1.07,1.55-2.14,2.32-3.22.11-.16.22-.31.33-.47.05.02.09.04.14.07-.07.3-.13.6-.2.9,1.43-.17,2.36-.75,3.31-2.04ZM53.18,61.42c-.84.47-1.7.94-2.56,1.42l-.08-.14c.73-.56,1.47-1.11,2.26-1.71-1.52-.55-2.96-.84-4.44-.99-.02.09-.04.18-.06.27.84.21,1.69.41,2.53.63.12.03.23.12.34.18-.1.1-.18.23-.3.3-.1.06-.23.06-.35.08-.77.1-1.53.19-2.38.29.2.12.33.2.46.28-.02.07-.05.14-.07.21l-1.95.48c.01.05.02.1.04.15,1.25.19,2.41-.41,3.63-.54.03.06.06.12.1.18l-2.23,1.67s.06.09.08.14c.4-.16.79-.32,1.19-.48.03.04.06.07.09.11-.33.39-.66.78-1.06,1.27,1.46-.57,2.34-1.7,3.42-2.55.05.04.11.09.16.13-.38.64-.76,1.27-1.15,1.91.35-.23.61-.56.96-.72.36-.17.52-.4.64-.73.23-.61.48-1.2.73-1.81ZM63.39,25.22s0-.02.01-.03c-.35-.07-.69-.16-1.04-.2-1.34-.15-2.51-.57-3.24-1.82-.28-.47-.64-.9-.97-1.34-.07-.09-.19-.14-.28-.21-.04.04-.08.07-.12.11.22.38.44.76.65,1.14.06.11.11.32.07.35-.11.07-.29.13-.41.09-.15-.05-.29-.18-.38-.32-.25-.37-.46-.76-.71-1.14-.29-.46-.6-.9-.96-1.46-.04.76.77,1.11.44,1.82-.41-.38-.73-.81-1.07-1.22-.35-.42-.71-.82-1.07-1.23.23.64.79,1.08.83,1.87-.8-.32-1.52-.61-2.34-.95.25.29.41.48.62.73-.25.04-.4.06-.55.08-.02.04-.03.08-.05.12,1.22.39,2.44.8,3.47,1.55,0,.06-.02.12-.02.19-.66.03-1.31.07-1.97.1,0,.05-.01.1-.02.15.17.05.33.13.5.15.82.08,1.65.12,2.47.21.3.03.74.03.87.22.29.42.63.28.98.26.47-.02.92-.03.91.61,1.15.06,2.26.11,3.37.16ZM102.71,38.9c.59-.41,1.24-.74,1.64-1.55-1.07.57-2.02,1.09-2.97,1.6.01.06.03.13.04.19.57.02,1.15.01,1.72.07.61.07,1.22.22,1.83.3.88.12,1.8.11,2.47.86.03.04.12.02.2.04-.19-.59-.9-1.15-1.45-1.15-.37,0-.71-.03-1.02-.5,2.07-.74,4.08-1.52,5.21-3.55-.99.67-1.97,1.34-2.96,2.02-.04-.05-.08-.09-.11-.14.41-.69,1.31-1.05,1.49-1.9-.05-.05-.09-.09-.14-.14-1.08.92-2.17,1.85-3.25,2.77l-.11-.1c.2-.38.4-.76.61-1.14-.04-.03-.08-.06-.12-.09-.89.98-1.56,2.22-3.06,2.41ZM88.01,51.98c.4-1.11-.24-2.01-.27-3,.66.61.9,1.57,1.77,1.99-.09-.4-.22-.79-.41-1.14-.52-.95-1.07-1.89-1.6-2.84-.07-.13-.05-.31-.08-.47.17.03.38.01.5.11.33.26.63.57,1.05.97-.42-.78-.74-1.45-1.49-1.79-.28-.13-.62-.22-.81-.44-.66-.78-1.57-1.08-2.46-1.45-.09-.04-.19-.03-.29-.05-.03.04-.06.09-.09.13,2.28.52,3.15,2.25,3.79,4.17-.4-.8-.77-1.63-1.47-2.35-.17,1.14-.32,2.16-.46,3.18.03.01.06.03.1.04.26-.51.52-1.02.78-1.53.08.03.16.05.24.08-.07.39-.12.78-.22,1.16-.18.66-.49,1.34.02,1.95.38.45.88.8,1.39,1.26ZM86.7,45.03c.4.23.7.35.94.55.39.32.78.65,1.09,1.05.31.41,1.75,1.08,2.25.95.08-.02.16-.06.23-.11.58-.37,1.11-.79.88-1.6-.07-.24-.22-.45-.35-.67-.08-.13-.18-.24-.29-.34-.12-.11-.25-.24-.4-.28-.43-.1-.88-.19-1.32-.22-1.08-.09-2.16-.15-3.24-.22-.16,0-.32.04-.55.07.36.53.81.41,1.24.42,1.22.02,2.43.08,3.65.14.16,0,.32.12.48.19-.01.02-.02.05-.03.07h-4.6ZM42.1,29.03c.09.21.15.36.22.51-.19.03-.37.08-.56.1-.1,0-.2-.05-.3-.08-.81-.24-1.61-.49-2.43-.71-.45-.12-.91-.19-1.36-.28-.01.04-.02.07-.04.11.55.38,1.1.77,1.65,1.15-.02.05-.05.11-.07.16-.92-.38-1.83-.77-2.84-.72-.02.07-.04.14-.05.21.77.2,1.55.39,2.45.62-.51.23-.9.4-1.28.57,0,.05.02.1.03.15.19.02.39.09.58.06,1.15-.17,2.3-.37,3.46-.54.29-.04.6-.03.9-.05,0,.05,0,.11.01.16-.52.37-1.04.75-1.56,1.12.03.05.06.1.08.15.44-.18.89-.34,1.32-.54.57-.26,1.12-.58,1.71-.8.75-.29,1.53-.5,2.3-.75.07-.02.13-.09.19-.14-1.56.63-2.94-.25-4.41-.48ZM66.56,41.38c-.17-.04-.35-.1-.52-.13-1.44-.23-2.82-.59-3.93-1.64-.32-.31-.8-.46-1.2-.69-.05.07-.1.13-.16.2l1.33,1.12-.1.14c-.82-.32-1.63-.64-2.45-.96-.02.06-.05.11-.07.17.37.24.74.48,1.11.71l-.05.1c-.77-.11-1.53-.22-2.3-.33,0,.06-.01.11-.02.17.66.17,1.31.37,1.98.49.66.11,1.33.14,2,.2.01.06.02.13.03.19-.49.18-.99.37-1.48.55.02.08.05.16.07.23,1.33-.36,2.67-.71,4.08-.24-1.79,1.41-3.54,2.96-3.98,5.43.95-.99,1.73-2.13,2.18-3.48.04.02.09.04.13.06-.03.54-.06,1.08-.1,1.78.17-.33.3-.51.37-.71.16-.45.26-.93.46-1.36.51-1.12,1.08-2.2,2.63-1.99ZM72.66,49.11s.09-.09.13-.13c.48.35.96.69,1.44,1.04-.35-.58-.78-1.07-1.19-1.58-.38-.47-.74-.95-1.08-1.45-.1-.14-.08-.36-.11-.54.05-.02.1-.04.15-.06.52.65,1.15,1.07,2.13,1.08-.67-.52-1.23-.96-1.8-1.4.04-.07.08-.13.12-.2.35.09.69.17,1.04.26.02-.05.03-.09.05-.14-1.28-.33-2.45-.88-3.48-1.77.57.62.74,1.31.43,2.12.56-.06.76.2.78.61.07,1.33.15,2.66.2,3.99.01.34-.05.68-.08,1.03.05,0,.09.01.14.02.07-.71.14-1.42.2-2.13.06,0,.11,0,.17,0,.41.43.44,1.01.56,1.55.12.55.21,1.12.31,1.68.06,0,.12-.02.18-.03-.12-.91-.25-1.82-.37-2.72.03-.02.06-.03.09-.05l1.05,1.2s.07-.04.11-.07c-.38-.77-.77-1.54-1.15-2.31ZM52.66,66.57c.07.03.14.05.21.08.3-.73.6-1.47.9-2.2.04,0,.07,0,.11,0,.07.29.14.58.24,1,.28-.84.52-1.54.76-2.25.05.01.09.03.14.04v1.57c.71-1.41,1.13-2.87,1.15-4.43-.05-.02-.09-.04-.14-.05-.57,1.11-1.15,2.23-1.72,3.34-.07-.03-.13-.07-.2-.1.48-1.1.9-2.23,1.47-3.28.56-1.03,1.28-1.98,1.93-2.96-.06-.05-.13-.09-.19-.14-.38.48-.77.94-1.13,1.43-.57.78-1.37,1.27-2.21,1.63-.41.18-.41.33-.34.69.17-.05.31-.08.57-.16-.49.71-.92,1.32-1.34,1.93.05.04.1.08.16.11.96-.78,1.58-1.86,2.36-2.81-.59,1.69-1.98,2.83-2.93,4.27.03.03.07.05.1.08.33-.37.67-.74,1-1.11.04.02.07.05.11.07-.34,1.08-.68,2.16-1.02,3.24ZM55.04,54.31s-.1.07-.15.11c.03.07.04.16.09.21.32.42.66.84.97,1.27.1.13.11.32.16.49-.16-.01-.35.03-.48-.04-.49-.28-.96-.61-1.44-.9-.41-.25-.84-.49-1.26-.74-.02.03-.04.07-.06.1.17.16.34.32.51.49-.02.04-.05.09-.07.13l-.96-.19c.19.18.41.29.64.4.39.18.79.34,1.17.54.12.07.15.27.23.41-.14.07-.29.21-.42.2-.37-.05-.74-.14-1.1-.26-.68-.23-1.36-.5-2.04-.72-.2-.07-.43-.03-.65-.04.72.81,1.75.77,2.6,1.17,0,.05,0,.11,0,.16-.64.19-1.28.38-1.93.57,0,.05.01.09.02.14.66-.07,1.32-.13,1.97-.22.24-.03.46-.16.7-.17.18,0,.36.1.55.16-.11.14-.21.29-.34.4-.31.26-.63.5-.95.74.03.05.07.09.1.14.91-.17,1.83-.3,2.27-1.55.17.3.28.48.37.63.38-.31.69-.55,1.03-.83-.67-.04-1.28-.07-1.89-.1,0-.06,0-.12,0-.18.75-.05,1.5-.1,2.26-.15.03-.05.06-.11.08-.16-.66-.74-1.31-1.48-1.97-2.22ZM43.52,43.99l.24.05c.25-1.24.51-2.48.76-3.74-1.32.14-2.66.45-3.74,1.45.29-.13.59-.27.88-.4.05.06.11.13.16.19-.41.3-.82.6-1.24.89.04.05.09.1.13.16.23-.05.47-.11.7-.16.03.04.07.09.1.13-.72.89-1.45,1.79-2.17,2.68.04.03.08.06.12.09,1.16-.69,1.82-1.86,2.64-2.88.05.03.11.07.16.1-.42.98-.84,1.96-1.26,2.94.05.02.09.05.14.07.24-.33.52-.64.72-.99.35-.65.64-1.33.98-1.99.12-.24.2-.58.67-.48v1.87ZM84.47,53.91c.45.54.34,1.08.28,1.62-.13,1.06-.13,1.06.12,1.62.12-.75.23-1.43.34-2.12.06,0,.12.01.18.02.07.45.14.9.21,1.35.1-1.07-.08-2.09-.47-3.07-.13-.33-.18-.63.24-.8-.07-.23-.14-.45-.2-.66-.22-.74-.53-1.44-.44-2.25.06-.52-.46-1.31-.82-1.54.22.82.46,1.7.7,2.58-.05.01-.11.03-.16.04-.09-.33-.18-.66-.29-1.06-.35.91-.67,1.71-.97,2.52-.2.53-.42,1.06-.56,1.6-.08.32-.01.67-.01,1.01.09.01.18.03.27.04.27-.9.53-1.8.83-2.79.75.72.24,1.58.38,2.37.11-.15.21-.27.37-.47ZM57.54,65.17c.06,0,.12,0,.18,0,.11.25.22.49.33.74.04,0,.09-.02.13-.02,0-.21.02-.42,0-.63-.1-.8-.23-1.6-.33-2.41-.06-.46-.09-.93.38-1.37.26.73.5,1.41.74,2.08.28-.72.1-1.37-.07-2.04-.17-.66-.29-1.34-.42-1.92-.14.38-.33.88-.52,1.38-.04-.01-.08-.02-.12-.03.16-.71.32-1.42.51-2.25-.78,1.39-1.49,2.65-2.2,3.91.05.03.1.06.15.09.14-.16.26-.36.43-.48.12-.09.33-.15.46-.11.1.03.2.24.2.37,0,.22-.06.44-.14.64-.13.34-.32.65-.44.99-.06.16-.08.46,0,.53.41.34.2.72.13,1.09-.12.66-.24,1.32-.36,1.98.06.01.12.03.18.04.42-.29.43-.77.52-1.21.09-.46.17-.92.25-1.37ZM92.38,51.92c.89-.96.91-5.04.11-5.69-.2,1.24-1.02,1.67-2.18,1.78.31.1.63.21,1.1.36-.39.65-.75,1.25-1.14,1.9.36-.15.68-.28,1.01-.41.04.04.07.08.11.12-.31.84-.63,1.67-.94,2.51l.15.07c1.03-.72,1.27-1.92,1.63-3.05.05.02.1.03.15.05v2.36ZM56.4,31.48c.04.08.07.15.11.23.92-.35,1.93-.57,2.75-1.09.86-.54,1.59-1.31,2.29-2.06.81-.87,1.71-1.54,2.87-1.84.31-.08.6-.19.91-.29-.01-.05-.02-.1-.03-.16-.48.07-.99.06-1.42.24-.5.21-.95.19-1.45.05-.37-.11-.75-.17-1.13-.25-.01.04-.02.08-.04.12.46.26,1.16.18,1.37.98-1.53,0-3.06-.28-4.43.66.26.04.51.1.77.11.36.02.73-.01,1.08.03.23.03.45.15.68.23-.16.19-.29.43-.49.55-.33.21-.71.35-1.07.5-.26.1-.53.17-.89.28.45.07.78.11,1.12.16,0,.05,0,.1,0,.15-1,.46-1.99.93-2.99,1.39ZM37.34,35.54s.08.09.12.13c-1.05,1.21-1.96,2.49-2.34,4.05.07.04.13.08.2.12.6-.96,1.2-1.91,1.8-2.87.03,0,.05,0,.08.01-.07.54-.15,1.08-.22,1.61.27-.45.47-.92.6-1.41.42-1.54,1.18-2.84,2.5-3.8.42-.3.78-.68,1.16-1.03.11-.1.19-.21.29-.32-.03-.06-.05-.11-.08-.17l-3,.86s.01.09.02.13h1.28s.03.08.04.11c-1.25,1-2.49,2.01-3.74,3.01.02.03.03.05.05.08.41-.18.82-.35,1.24-.53ZM43.56,38.84s-.05.08-.08.12c-1.14-.29-2.23-.87-3.48-.61.78.19,1.56.39,2.35.58,0,.03-.01.07-.02.1l-1.15.37c.62.15,1.25.12,1.81.3,1.77.56,3.56.16,5.33.18.26,0,.53-.36.8-.55-.03-.05-.05-.1-.08-.15-.72.76-1.47.62-2.23.12-.47-.31-.94-.64-1.42-.95-.28-.18-.57-.34-.86-.51l-.07.11,1.28,1.03-.1.14c-.6-.08-1.05-.5-1.57-.77-.54-.27-1.09-.52-1.63-.77-.03.06-.07.11-.1.17.41.36.81.73,1.22,1.09ZM73.46,38.54c-.05-.05-.11-.11-.16-.16l-1.59,1.49s-.1-.09-.15-.13c.43-1.17,1.48-1.94,2.15-3.08-.35.15-.6.26-.85.37.36-1.08,1.59-1.65,1.4-2.98-.49.61-.97,1.23-1.46,1.84l-.17-.07v-1.6c-.05,0-.11,0-.16-.01-.12.66-.24,1.33-.38,1.99-.08.37-.08.82-.31,1.07-.49.56-.54,1.23-.78,1.95.23-.11.36-.18.64-.31-.31.76-.61,1.37-.81,2.02-.2.64-.31,1.32-.45,1.98.07.02.15.04.22.05.04-.19.13-.38.13-.57-.02-.71.32-1.26.78-1.75.34-.37.72-.7,1.06-1.06.31-.33.6-.69.9-1.04ZM109.88,39.44c0,.06,0,.11,0,.17-.91.25-1.78-.06-2.72-.31.55.64,1.9,1.53,2.54,1.78.37.14.7.37,1.06.55.12.06.25.09.5.18-.48-.79-1.44-.92-1.57-1.84.77.37,1.54.73,2.31,1.1.01-.02.02-.05.03-.07-.4-.4-.8-.8-1.2-1.19.04-.06.09-.12.13-.18.22.09.45.18.67.28.81.38,1.61.78,2.42,1.15.18.08.39.08.59.12v-.09c-.34-.29-.7-.59-1.12-.94.4-.07.67-.12.94-.16,0-.06,0-.11-.01-.17-.23-.04-.46-.09-.69-.13-.82-.16-1.66-.29-2.47-.5-.97-.25-1.89-.06-2.83.17.47.03.94.06,1.4.08ZM44.29,30.92c-.47.89-1.29,1.53-1.3,2.55.04.04.09.07.13.11,1.16-1.13,2.31-2.26,3.47-3.39-.04-.05-.08-.11-.13-.16-1.82.53-3.72.92-4.92,2.7.49.08.51.34.34.69-.11.23-.37.6-.3.68.42.48-.03.84-.1,1.25-.04.21-.09.42-.14.63.05.01.09.02.14.03.18-.57.36-1.14.54-1.71.04,0,.07.01.11.02l.21,1.13c.07,0,.13-.01.2-.02.03-.42.04-.85.1-1.27.17-1.24.09-2.61,1.66-3.25ZM54.91,49.61c-.06,0-.13-.02-.19-.03-.1.29-.16.59-.29.85-.49,1-.96,2.01-1.52,2.97-.31.54-.37.62.17.98.67.44,1.35.87,2.08,1.33-.28-.57-.54-1.13-.76-1.58.24-.25.46-.38.53-.57.46-1.32.17-2.64-.01-3.95ZM75.67,67.23s-.08,0-.12,0c0,.16-.02.32-.03.48-.1,2.01-.17,4.03-.33,6.04-.08.98-.01,2.01-.59,2.89-.2.3-.37.62-.49.96-.06.18-.01.58.06.6.34.08.71.13,1.05.06.14-.03.31-.36.32-.56.11-2.98.2-5.96.28-8.94.01-.52-.09-1.03-.14-1.55ZM104.49,64.08c.58-1.18,1.16-2.39,1.06-3.75-.1-1.3-.4-2.58-.79-3.82-.04,0-.08.02-.13.03.12,1.33.24,2.66.36,3.99-.04,0-.09,0-.13.01-.17-1.39-.35-2.79-.52-4.18-.02,0-.05.01-.07.02-.24,1.16-.47,2.33-.71,3.53.25-.47.49-.93.72-1.38.05.02.1.05.15.07-.21,1.13-.56,2.25-.41,3.42.1-.47.19-.94.29-1.41.08.01.17.02.25.03.22,1.14-.03,2.29-.07,3.45ZM103.98,41.91l-.06-.06c-.04.1-.09.2-.13.31-.24.79-.5,1.57-.71,2.37-.09.32-.08.67-.13,1.09-.28.32-.64.74-1.04,1.19.84-.15,2.62-1.31,3-1.95-.34.14-.65.27-.96.4.81-1.2,2.02-2.01,2.77-3.22-.07-.07-.14-.13-.2-.2-.36.5-.72,1-1.07,1.49-.08-.06-.15-.12-.23-.19.24-.72.48-1.45.72-2.17-.03-.02-.07-.03-.1-.05-.65,1.07-1.3,2.14-1.95,3.2-.07-.02-.14-.05-.2-.07l.29-2.15ZM69.21,30.14c.03.06.05.12.08.18-.17.16-.32.35-.52.46-.68.36-1.38.69-2.07,1.04-.29.15-.55.33-.83.49.02.05.04.1.06.15.16,0,.35.05.48,0,.45-.21.88-.46,1.31-.68.25-.13.49-.29.76-.37.29-.09.63-.04.89-.18.75-.41,1.47-.88,2.24-1.36-1.43-.62-2.64-1.73-4.45-1.65.78,1.01,2,.87,2.86,1.49-.42.12-.83.09-1.21.18-.36.09-.68.31-1.02.47.02.04.04.09.06.13.46-.11.91-.22,1.37-.33ZM75.95,57.5c.06,0,.13.02.19.03.04-.11.07-.22.1-.33.4-1.46.71-2.95,1.21-4.37.55-1.54,1.38-2.96,2.41-4.25.92-1.15,2.22-1.81,3.34-2.69.58-.45,1.31-.7,1.98-1.04-.16-.06-.37-.1-.52-.02-1.12.59-2.23,1.2-3.34,1.82-1.11.62-2.01,1.51-2.52,2.66-.81,1.82-1.55,3.67-2.24,5.54-.31.84-.42,1.76-.62,2.64ZM101.22,41.79s.02-.07.04-.11c.27-.07.54-.13.81-.2-2.12.23-4.18-.12-6.3-.48,1.01.91,1.95,1.75,2.89,2.6-.3-.58-.81-1.02-.89-1.68.04-.04.08-.07.12-.11.91.7,1.82,1.4,2.73,2.09.04-.05.09-.1.13-.15-.53-.56-1.05-1.12-1.68-1.8,1.09.1,2,.19,2.92.27v-.11c-.25-.11-.5-.22-.76-.33ZM52.95,33.84c2.43.78,5.03.41,7.39,1.43.03-.05.05-.1.08-.15l-1.69-2.03s-.09.07-.14.11c.16.24.33.47.47.72.07.13.07.3.1.46-.16-.03-.35,0-.46-.09-.44-.34-.83-.72-1.27-1.06-.49-.37-1-.7-1.5-1.05.21.58.5,1.06.77,1.54.08.14.14.3.21.45-.2.06-.41.2-.58.16-.45-.12-.87-.32-1.3-.48-.53-.2-1.07-.39-1.61-.58-.01.04-.03.08-.04.12.2.1.41.2.61.31-.01.05-.02.09-.03.14h-1.01ZM69.41,45.15c-1.71-.65-4.12.07-5.55,1.61.66-.14,1.18-.76,1.96-.53-.42.36-.98.57-1.09,1.23,1.07-.07,1.53-1.11,2.38-1.46.06.08.13.16.19.23l-.85.57s.05.02.08.03c.95-.56,1.9-1.12,2.88-1.69ZM100.72,33.35c-.29-.22-.52-.4-.75-.57-.36-.27-.75-.31-1.1-.04-.96.72-1.9,1.46-2.85,2.19.85-.2,1.57-.77,2.61-.66-.2.3-.35.47-.43.67-.04.11,0,.29.07.41.04.07.26.13.3.09.48-.43.67.02.86.3.25.36.45.76.68,1.14.04-.02.09-.05.13-.07-.33-.67-.66-1.35-1-2.02.04-.03.07-.06.11-.09.4.25.8.51,1.19.76.03-.04.06-.08.09-.12-.74-.7-1.49-1.4-2.32-2.18.9-.24,1.57.69,2.4.2ZM52.14,27.48c-.7-.54-1.28-.37-1.84.08-.51.41-1.02.81-1.51,1.24-.13.12-.31.34-.27.46.19.72-.13,1.35-.29,2.01-.03.13-.04.28-.07.51.85-.68,1.61-1.29,2.37-1.9-.02-.04-.04-.08-.07-.11h-1.6c.95-1.13,2.01-1.85,3.29-2.3ZM86.19,63.9c.04-.14.09-.28.11-.43.17-.88.32-1.76.5-2.63.04-.2.12-.47.26-.54.35-.17.4-.46.39-.76-.02-.73-.1-1.46-.13-2.19-.02-.36,0-.73,0-1.02-.6,1.62-1.22,3.28-1.84,4.95.01,0,.03.01.04.02l.77-1.13c.08.03.15.05.23.08-.17,1.22-.84,2.39-.32,3.66ZM52.35,44.91c0-1.07-.54-2.02-.48-3.07.07-.02.13-.03.2-.05.21.54.43,1.07.64,1.61.05-.02.1-.04.15-.06-.27-1.26-.79-2.42-1.47-3.59-.39.79-.27,5.13.11,5.84.5-.69-.08-1.45.15-2.18.23.5.47,1,.7,1.5ZM73.39,22.81s-.1,0-.14,0c-.03.12-.07.25-.1.37-.46,2.01.45,3.73,1.21,5.65.22-1.69,1-3.14.73-4.92-.11.18-.17.25-.19.32-.18.68-.34,1.37-.53,2.04-.06.21-.2.4-.3.59-.11-.19-.29-.37-.31-.56-.09-.89-.13-1.79-.21-2.68-.02-.28-.11-.55-.16-.82ZM68.71,38.27c-.08.04-.15.09-.23.13.27.52.53,1.04.82,1.54.3.52.62,1.03.95,1.57.19-.53.37-1.05.51-1.46-.47-.81-.02-1.57-.11-2.32-.13.06-.25.12-.43.21-.05-.53-.1-1.01-.15-1.48-.07,0-.14,0-.21.01v3.3l-.17.04c-.33-.52-.66-1.03-.98-1.55ZM72.69,53.78c-.07.02-.14.05-.2.07.31,2.32.21,4.68.79,6.97.06-.17.07-.34.08-.5.18-1.89.13-3.78-.27-5.64-.07-.31-.26-.59-.4-.89ZM101.82,38.17s.06.07.09.11c.8-.46,1.6-.92,2.4-1.39-.02-.05-.04-.1-.07-.15-.51.19-1.02.38-1.53.57-.03-.05-.07-.09-.1-.14.13-.15.24-.36.4-.45.87-.49,1.75-.94,2.63-1.41.17-.09.33-.21.5-.32-.01-.02-.03-.04-.04-.06-.3.11-.59.22-.89.33-.03-.05-.05-.1-.08-.15l1.55-1.21s-.06-.1-.09-.14c-.31.18-.63.35-.91.56-.44.33-.84.72-1.29,1.03-.44.31-.55.24-.67-.35-.66,1.09-1.29,2.12-1.92,3.16ZM87.81,46.87s-.05.06-.08.08c.63,1.11,1.27,2.21,1.93,3.37.34-.43.65-.81.94-1.22.07-.09.12-.32.08-.36-.36-.29-.8-.82-1.1-.75-.56.11-.72-.25-1.01-.46-.27-.2-.51-.45-.77-.67ZM60.9,55.55c-.08,0-.16.01-.24.02-.02.26-.15.59-.04.78.21.39.04.68-.08,1.01-.28.79-.57,1.58-.82,2.38-.1.33-.11.68-.18,1.1.16-.08.22-.09.24-.13.55-.95,1.11-1.91,1.65-2.86.02-.04.02-.1,0-.15-.18-.72-.36-1.45-.53-2.17ZM50.93,39.84s-.08-.04-.12-.06c-.66,1.34-1.33,2.67-1.99,4.01l.12.09c.22-.24.45-.48.67-.72.05.02.1.04.15.07-.34,1.01-.68,2.02-1.03,3.04.05.02.1.03.15.05.95-2.07,1.48-4.28,2.05-6.47ZM38.48,38.17c1-1.41,1.41-2.99,1.92-4.58-1.12.83-2.22,3.44-1.92,4.58ZM89.77,56.77c.06-.06.13-.12.19-.18-.72-1.82-2.41-2.98-3.3-4.7.08.47.24.9.45,1.3.18.34.45.62.63.96.14.27.19.59.3.88.04.1.17.27.19.26.38-.18.42.16.57.34.32.38.64.76.96,1.14ZM67.39,41.21c-.4-.37-.75-.72-1.13-1.05-1.07-.93-1.13-.92-1.99.22-.02.02-.02.06-.04.15,1.03.22,2.05.45,3.15.69ZM99.37,54.19c-.5.97-.98,1.82-1.36,2.71-.2.48-.23,1.03-.33,1.54.05.02.1.04.15.07.2-.38.39-.76.59-1.14.22-.42.36-.9.67-1.24.5-.56.59-1.13.29-1.93ZM113.1,38.69c-.44-.75-1.24-.17-1.76-.77.1-.04.2-.07.29-.12.07-.04.13-.11.2-.17-.01-.01-.02-.03-.03-.04-.92.39-1.84.78-2.59,1.09h3.9ZM73.64,55.61c.63-1.34.34-3.42-.61-4.27.21,1.45.4,2.79.61,4.27ZM64.01,41.75c-.2.03-.28.02-.32.05-.39.25-.79.5-1.16.78-.27.2-.54.41-.76.67-.18.21-.27.5-.41.74-.36.59-.73,1.16-1.1,1.75.02,0,.03,0,.05,0,1.21-1.3,2.41-2.6,3.7-3.99ZM104.61,46.32c-.89.55-1.77,1.1-2.66,1.66.6.12,1.25.25,1.84.37-.06-.85.75-1.28.83-2.03ZM50.54,43.25s-.06,0-.1-.01c-.27,1.51-.53,3.01-.8,4.52.33-.5.78-.99.85-1.54.13-.97.04-1.98.04-2.97ZM95.89,40.45c0,.07-.02.14-.03.21.45.11.93.17,1.36.34.7.28,1.15-.08,1.71-.56h-3.05ZM58.82,35.46c0-.06,0-.11,0-.17-1.45-.09-2.91-.31-4.36,0,0,.06,0,.11,0,.17h4.35ZM70.99,28.33s.03-.07.04-.1c-.17-.11-.33-.24-.51-.33-1.11-.58-2.22-1.16-3.35-1.75-.14.33-.02.56.4.68.44.13.88.29,1.3.48.71.32,1.41.68,2.11,1.02ZM83.6,40c.09,0,.19,0,.28,0,.05-.21.2-.51.12-.63-.49-.66-.35-1.45-.51-2.18-.07-.34-.24-.65-.4-1.08.18,1.38.35,2.63.51,3.88ZM64.04,49.67s.04-.07.07-.11c-.97-.56-1.94-1.11-2.9-1.69-.28-.17-.43-.1-.55.13,1.13.56,2.25,1.12,3.38,1.67ZM60.78,53.2c.87-.95,1.75-1.88,3.03-2.28-1.45.16-2.43.97-3.03,2.28ZM87.84,56.69l-.31.03c0,.49-.02.99.01,1.48,0,.15.16.29.25.44.12-.14.35-.3.34-.43-.06-.51-.19-1.02-.29-1.52ZM40.21,35.27c.5-.65,1.14-1.22,1.29-2.08-.87.42-1.08,1.25-1.29,2.08ZM59.87,35.53s0,.03.01.04c1.25.58,2.5,1.15,3.82,1.76.2-.19.02-.35-.24-.45-1-.4-2.01-.8-3.01-1.18-.19-.07-.38-.11-.57-.17ZM93.82,49.41c.07-.05.14-.09.21-.14-.25-.83-.49-1.67-.74-2.5.01.75.06,1.48.17,2.19.02.16.24.3.36.44ZM88.35,26.91c-1.21-.34-1.58-.22-1.82.56.59-.18,1.14-.35,1.82-.56ZM73.52,50.07c.22.46.4.85.59,1.26.56-.54.63-.73-.59-1.26ZM106.49,42.88c-.03.05-.06.1-.08.16.43.27.87.55,1.3.82-.15-.68-.75-1.08-1.21-.97ZM60.18,28.61c-.01-.05-.02-.1-.04-.16-.54.12-1.08.24-1.61.35.01.05.03.11.04.16.62.23,1.13-.01,1.61-.36ZM97.1,55.01c.24.46.43.84.64,1.24.52-.45.31-.83-.64-1.24ZM51.63,26.71c.55-.11,1.18,0,1.74-.52-.77-.17-1.25.19-1.74.52ZM97.71,36.94c-.02-.06-.04-.12-.07-.19-.3.09-.61.16-.91.27-.09.03-.13.2-.19.3.13.03.29.12.39.08.27-.12.51-.3.77-.46ZM66.87,26.56c.02-.06.05-.12.07-.18-.35-.16-.69-.33-1.04-.45-.03-.01-.17.26-.26.4.47.09.85.16,1.23.23ZM53.84,35.97c-.65-.1-1.13.2-1.54.64.02.05.05.09.07.14.49-.26.98-.52,1.47-.77ZM67.24,40.48l.1-.12c-.54-.52-1.07-1.04-1.61-1.56-.04.05-.09.09-.13.14.55.51,1.09,1.02,1.64,1.54ZM57.26,36.48c.42-.18.77-.33,1.12-.48-1.06-.16-1.15-.12-1.12.48ZM99.61,40.14c-.16.32-.3.5-.33.69-.01.09.2.21.31.31.09-.19.21-.37.27-.56.02-.08-.1-.2-.24-.44ZM56.67,51.59s-.09.01-.13.02v1.58s.09,0,.13,0v-1.6ZM68.69,42.09c-.25-.32-.5-.65-.79-1.02-.15.69.25.9.79,1.02ZM101.9,47.34l.08.16,1.52-.8c-.03-.06-.06-.11-.09-.17-.5.27-1.01.54-1.51.81ZM113.74,38.04s0,.09,0,.14h1.12s0-.09,0-.14h-1.12ZM50.05,64.88s-.06-.09-.09-.13l-1.22.72c.04.06.08.12.11.18.4-.26.79-.52,1.19-.77ZM75.39,66.25c.05,0,.1.01.15.02-.05-.65-.09-1.3-.14-1.94-.03,0-.07,0-.1,0,.03.64.06,1.28.09,1.92ZM100.53,44.21c-.02-.05-.03-.1-.05-.16-.17,0-.41-.07-.49.02-.11.11-.09.35-.13.53.04.02.09.04.13.07.18-.15.36-.3.54-.46ZM105.07,34.32s-.04-.05-.07-.08c-.31.29-.61.57-.92.86.04.04.07.08.11.12l.87-.9ZM87.55,55.31c.06-.02.12-.05.18-.07-.12-.37-.25-.73-.37-1.1l-.16.06.36,1.11ZM43.7,27.46s.02-.1.03-.14c-.46-.13-.92-.26-1.38-.39-.01.06-.03.11-.04.17.47.12.93.24,1.4.37ZM57.6,50.38c.05.03.11.05.16.08.16-.36.31-.73.47-1.09-.06-.03-.12-.05-.18-.08-.15.36-.3.73-.45,1.09Z"/><path d="M39.83,42.39c-.08.03-.17.06-.24.1-1.42.81-1.75,2.17-1.88,3.64-.1,1.1-.2,2.2-.3,3.29,0,.07,0,.15-.03.2-.16.27-.34.52-.51.79-.21-.15-.43-.3-.63-.44-.27.71-.56,1.48-.85,2.25h-.16c-.09-.15-.18-.29-.3-.47-.21.26-.42.51-.68.82-.15-.27-.25-.46-.39-.72-.35,1.22-.49,2.46-1.49,3.27h-.2c-.06-.55-.13-1.09-.18-1.5-.58.57-1.25,1.21-1.99,1.92-.37-.94.06-1.55.53-2.21-.33.07-.59.12-.9.19.29-1.8,1.51-2.99,2.5-4.37-.73-.19-1.42-.36-2.1-.56-.21-.06-.39-.24-.59-.37.15-.18.26-.41.45-.53.44-.26.9-.54,1.38-.68.36-.1.79,0,1.18.05.73.1,1.45.29,2.18.34.29.02.6-.24.9-.37,0-.06-.02-.11-.03-.17l-2.99-.67c0-.07.01-.13.02-.2.71-.6,1.6-.57,2.54-.67-.13-.09-.21-.16-.29-.21-.24-.16-.53-.28-.72-.49-.15-.16-.18-.44-.26-.66.21-.01.43-.08.61-.02.46.14.91.32,1.36.5.51.21.83.01,1.14-.39.41-.53.88-1.01,1.35-1.49.16-.16.32-.27.63-.13.21.1.55-.12.84-.2.03.04.07.08.1.13ZM35.93,47.2c-.63.52-1.23.76-2.13.51-1.22-.34-2.48-.2-3.68.5,1.26.58,2.54.53,3.86.57-.23.36-.48.65-.78.89-.98.77-1.96,1.52-2.64,2.6-.11.18-.18.4-.27.59.03.01.06.02.08.04.51-.4,1.02-.79,1.53-1.19.06.06.12.12.18.17-.13.2-.24.41-.39.59-.45.59-.91,1.16-1.36,1.75-.09.12-.14.28-.21.42.04.03.07.06.11.09.13-.09.29-.15.4-.26,1.01-1.06,1.64-2.34,2.08-3.7.1-.3.19-.48.44-.61,1.26-.68,2.04-1.8,2.78-2.97ZM37.67,44.86s-.09-.04-.13-.06c-.1.15-.22.3-.31.46-.66,1.21-1.36,2.4-1.96,3.63-.35.73-.56,1.53-.83,2.31.07.02.14.04.21.07.24-.72.47-1.44.71-2.16.06.02.12.03.18.05-.08.71-.15,1.42-.23,2.13.02,0,.05,0,.07,0,.76-2.14,1.52-4.28,2.29-6.43ZM37.48,44.32c-.64.72-1.35.77-2.18.32-.34-.18-.73-.26-1.1-.38-.02.04-.04.09-.06.13.62.39,1.24.79,1.86,1.18-.02.05-.04.11-.07.16-.89.06-1.78.11-2.67.17.03.16.07.21.11.21.89.11,1.78.22,2.67.29.13.01.32-.18.4-.32.36-.58.69-1.18,1.04-1.77ZM32.32,54.4c.08.02.16.04.24.06,1.02-1.3.82-3.08,1.57-4.51-.34.22-.72.44-.86.77-.32.79-.55,1.63-.77,2.46-.11.4-.12.82-.17,1.23ZM37.37,47.42c-.05-.01-.11-.03-.16-.04-.54.42-.78,2.06-.26,2.68.15-.96.29-1.8.42-2.64Z"/><path d="M108.17,72.64c-.4.4-.55.38-.79-.07-.16-.29-.38-.58-.46-.89-.08-.3-.02-.63-.02-1.1-.21.28-.33.45-.46.63-.06-.02-.12-.04-.18-.07-.42-1.09-.12-2.15.19-3.26-.15.16-.31.32-.46.48h-.14c-.02-.49-.02-.99-.05-1.48-.02-.27-.1-.53-.1-.79,0-.43-.02-.86.04-1.28.16-1.03.38-2.06.54-3.09.08-.53.13-1.07.09-1.6-.04-.57-.21-1.13-.33-1.72.61.4,1.12.89,1.38,1.56.26.67.79,1.09,1.23,1.61.95,1.12,1.85,2.27,2.76,3.42.16.2.24.47.41.81-.85-.06-1.2-.73-1.83-1.07.2,1.13.87,2.08.72,3.37-.35-.3-.61-.52-.89-.77.28,1.13.69,2.22.42,3.39-.08.06-.16.11-.24.17-.28-.31-.56-.61-.81-.9-.13,1.09-.21,2.28-.83,3.51-.08-.36-.13-.57-.19-.86ZM110.99,65.03s.09-.07.13-.11c-1.08-1.26-2.17-2.53-3.25-3.79-.02.77.05,1.45.14,2.13.19,1.46.07,2.88-.76,4.13-.46.7-.67,1.46-.82,2.25-.05.28-.04.58-.05.87.74-.87.77-2.06,1.59-2.99.28.86.03,1.53-.08,2.22-.11.7-.16,1.41-.24,2.12.03,0,.07,0,.1,0,.14-.31.29-.63.43-.94.05.02.11.03.16.05.05.3.1.6.14.9.38-.56.45-2.11.27-2.84-.12-.47-.02-1.01-.02-1.51.07-.01.14-.03.2-.04.59.76.31,1.89.97,2.64.09-1.49-.42-2.89-.73-4.32.05-.02.09-.04.14-.06.34.51.67,1.02,1.01,1.54.06-.03.12-.06.18-.09-.49-1.2-.98-2.4-1.47-3.6.03-.03.06-.06.09-.09.62.51,1.25,1.03,1.87,1.54ZM106.98,63.59c.03,1.4-.89,2.55-.76,3.96.57-1.08,1.18-2.15,1.45-3.31.28-1.19-.04-2.41-.5-3.56.14,1.39-.68,2.55-.83,3.87.21-.32.42-.63.64-.95Z"/><path d="M72.87,87.96s.03-.05.08-.07c.94-.22,1.88-.45,2.84-.61.22-.04.71.24.7.29-.08.39-.43.26-.71.27-.99.04-1.98.08-2.91.12Z"/><path d="M76.27,92.47c-.23.16-.37.33-.48.32-.2-.02-.38-.16-.57-.25.15-.14.29-.36.46-.4.14-.03.32.17.59.33Z"/><path d="M74.92,83.53c-.59.12-1.06.22-1.67.35.63-.61,1.08-.71,1.67-.35Z"/><path d="M73.55,93.42l1.01-.21c.02.07.03.14.05.21l-1,.26c-.02-.09-.04-.18-.06-.26Z"/><path d="M73.79,109.33c.22-.28.43-.6.98-.26-.35.16-.63.28-.91.41-.02-.05-.05-.1-.07-.14Z"/><path d="M94.91,59.78c.1-.98.2-1.95.3-2.93.05,0,.1.01.14.02-.1.98-.21,1.95-.31,2.93-.04,0-.09,0-.13-.01Z"/><path d="M84.91,39.86c.71-1.71,1.44-3.42,2.48-4.96.05.03.1.05.15.08l-2.63,4.89Z"/></svg>