<?xml version="1.0" encoding="UTF-8"?><svg id="Layer_1" xmlns="http://www.w3.org/2000/svg" viewBox="0 0 144.57 144.57"><path d="m76.37,46.38c.38-.23.7-.35.82-.39,1.84-.7,3.54-.23,4.54.04,1.25.34,2.18.84,2.51,1.07.52.36,1.01.76,1.55,1.07.79.44,1.6.83,2.43,1.19.32.14.69.16,1.03.21.81.11,1.61-.03,2.41-.15,1.09-.16,2.17-.35,3.15-.88.86-.46,1.59-1.09,2.35-1.69.83-.66,1.65-1.35,2.6-1.84.54-.28,1.1-.55,1.6-.91.94-.66,1.73-1.49,2.4-2.43.31-.43.62-.86.91-1.31.63-.99,1.25-1.99,1.88-2.98.26-.4.34-.83.33-1.29-.02-.62-.47-1.14-1.08-1.27-.25-.06-.44-.08-.53-.08-.78-.03-1.32-.49-2.26-1-.47-.25-1.06-.49-2.26-.95-.7-.28-1.42-.52-2.14-.76-1.38-.46-2.78-.63-4.24-.35-1.07.21-2.16.33-3.25.47-.66.08-1.24.32-1.73.77-.31.28-.63.55-.96.82-.08.07-.18.1-.33.18-.02-.21-.04-.37-.06-.52-.08-.98-.31-1.91-.88-2.73-.44-.64-1.03-1.16-1.64-1.63-.45-.34-.96-.59-1.55-.62-.05,0-.08-.01-.21-.04-.14-.03-.25-.05-.26-.05-2.05-.43-3.25-.02-3.25-.02-.14.05-.15.06-.23.07-.5.12-.79-.38-1.74-.84-.5-.24-.95-.36-1.24-.42.08-.07.22-.17.4-.29.95-.63,1.68-.73,4.29-1.35.86-.2,1.3-.31,1.45-.35.65-.18.85-.3,1.3-.32.39-.02.78-.01,1.16-.06.61-.07,1.17-.28,1.6-.73.49-.51.96-1.04,1.39-1.61.47-.61.86-1.29,1.33-1.9.18-.24.28-.45.22-.75-.12-.04-.24-.1-.37-.11-.69-.07-1.37-.11-2.07,0-.39.06-.82.11-1.2.03-.98-.2-1.78.22-2.56.65-.78.44-1.32,1.17-1.89,1.85-.79.95-1.58,1.92-2.37,2.87-.1.12-.2.22-.32.31-.24.19-.45.28-.53.31-.45.19-.92.46-1.86,1.01-.2.12-.5.3-.86.53.08-.18.22-.47.36-.84.28-.72.41-1.26.46-1.45.36-1.34,1.38-2.53,2.33-3.64.38-.45.69-.73,1.1-1.35.34-.51.61-1.07.85-1.63.13-.3.22-.66.19-.98-.08-.89-.24-1.78-.37-2.67-.06-.4-.24-.74-.46-1.09-.27-.43-.55-.87-.59-1.41-.02-.21-.16-.42-.29-.6-.25-.33-.43-.33-.7-.02-.36.42-.71.84-1.03,1.28-.49.66-.95,1.34-1.42,2.02-.61.89-.96,1.86-.93,2.95.04,1.52.17,3.02.54,4.5.14.56.26,1.01.21,1.67-.06.79-.37,1.54-.59,2.08-.2.5-.38.85-.42.92-.32.58-1.24,2.58-3.37,7.43-.04-.13-.07-.2-.09-.28-.31-1.19-.78-2.32-1.31-3.42-.24-.5-.36-1-.34-1.53.02-.53.09-.92.11-1.01.13-.62.1-2.05-.28-3.39-.35-1.23-.92-2.12-1.28-2.7-.2-.33-.42-.65-.65-.96-.52-.7-1.01-1.42-1.42-2.18-.59-1.09-1.32-2.06-2.27-2.85-.62-.51-1.28-.96-1.99-1.36-1.15-.64-2.38-.84-3.65-.63-1.16.18-2.3.48-3.45.73-.19.04-.38.06-.58.07-.64.03-1.29.08-1.93.08-.41,0-.75.15-1.07.38-.22.16-.35.2-.42.32-.16.25-.11.55-.07.81.15.81.23,1.22.28,1.42.25,1.02.57,2.02.76,3.04.15.81.42,1.55.8,2.26.08.16.16.31.24.47.41.83,1,1.46,1.93,1.69.19.05.37.13.55.18,1.01.32,1.94.76,2.73,1.49.9.84,1.98,1.38,3.18,1.66.49.11.98.2,1.47.29.24.05.47.1.71.13.61.06,1.22.12,1.83.15,1.05.06,1.92.52,2.72,1.14,1.11.87,1.75,2.05,2.06,3.41.19.81.35,1.63.53,2.45.03.16.06.32.12.59-.39-.29-.67-.52-.98-.73-.42-.28-.66-.68-.83-1.15-.07-.21-.21-.4-.34-.57-.22-.29-.29-.32-.6-.15-.15.08-.27.22-.37.35-.09.12-.15.27-.23.41-.09-.05-.15-.06-.17-.1-.04-.07-.07-.14-.1-.22-.14-.37-.3-.42-.58-.14-.13.12-.22.28-.32.42-.08.11-.17.22-.26.35-.24-.13-.48-.22-.62.03-.11.18-.17.41-.2.62-.02.11.08.24.12.36.07.26.17.52.19.78.06.76-.23,1.45-.45,2.16-.06.2-.15.4-.15.61,0,.89.3,1.64,1.08,2.14.13.08.24.17.41.29-.41.09-1.46.37-2.22,1.33-.67.85-1.12,2.24-.65,2.75.14.16.46.29.43.47-.02.12-.16.14-.24.35,0,.02-.09.26.02.38.11.11.3,0,.38.1.1.12-.1.31-.09.57.03.5.96.81,1.21.77.19-.03.34-.13.34-.13.16-.11.19-.21.32-.34.1-.1.22-.17.48-.25.63-.22.93-.17,1.34-.32.49-.19.8-.53,1.13-.9.3-.33.49-.65.61-.89.16,1.85.4,3.33.59,4.37.18.94.69,3.51.42,4.44-.12.41-.1.84-.18,1.26-.01.06-.03.18.02.33.03.1.1.2.19.28.15.14.26.3.18.52-.2.55-.08,1.09.06,1.62.14.52.19,1.09.71,1.44.08.06.11.26.1.39-.06.64-.15,1.28-.22,1.92-.03.28-.06.55-.09.83-.1-.08-.14-.17-.17-.25-.48-1.21-1.12-2.33-2.02-3.28-1.59-1.68-2.7-3.65-3.5-5.8-.42-1.15-.77-2.33-1.19-3.47-.68-1.84-1.69-3.47-3.17-4.79-.66-.59-1.36-1.09-2.28-1-1.08.1-2.04-.22-2.97-.69-.16-.08-.32-.16-.48-.23-.52-.22-1.03-.46-1.56-.66-.48-.18-.99-.3-1.48-.46-.99-.32-2-.53-3.04-.49-.95.04-1.9.15-2.84.24-.88.08-1.77.25-2.65.03-.59-.14-1.16-.37-1.75-.56-.54-.17-1.06-.39-1.61-.51-.46-.1-.93-.05-1.33.27-.25.2-.48.43-.74.62-.26.19-.37.42-.35.74.04.69.06,1.38.1,2.08.03.51.11,1.03.09,1.54-.05,1.34.19,2.63.59,3.9.32,1.02.92,1.85,1.74,2.5.67.53,1.4.98,2.11,1.46.51.34,1.01.68,1.42,1.15.46.52.92,1.04,1.43,1.51.47.43,1.03.73,1.69.75.89.02,1.77.08,2.66.04,1.5-.06,2.99-.21,4.49-.27.69-.03,1.39,0,2.07.11,1.25.19,2.49.32,3.76.3.71-.01,1.42-.02,2.13,0,1,.05,2.02.13,2.92.58,1.11.55,2.06,1.32,2.79,2.33.1.14.21.29.32.42.6.72,1.02,1.55,1.4,2.41-.71.17-1.45.17-2.07.6-.04.03-.09.03-.14.04-.76.1-1.43-.12-1.97-.66-.63-.64-1.37-.83-2.2-.54-.34.12-.66.33-.97.52-1.14.72-1.79,1.8-2.13,3.06-.21.76-.29,1.55-.43,2.32-.05.24-.13.48-.21.77-.12-.1-.17-.13-.21-.18-.52-.71-1.19-1.22-2.04-1.47-.22-.06-.42-.16-.62-.26-1.28-.63-2.62-1.09-4.04-1.29-1.23-.17-2.37.14-3.47.65-.41.19-.78.46-1.18.66-.69.35-1.4.66-2.2.66-.35,0-.71.04-1.05.1-.98.17-1.96.37-2.94.55-.17.03-.36.03-.52.09-1.02.38-2.11.62-3,1.29-.54.41-1.11.76-1.62,1.2-.18.16-.47.51-1.05,1.18-.74.85-.7.82-.87,1-.72.74-.77.64-1.55,1.3-.18.15-.91.8-1.04,1.8-.07.52.05.95.08,1.04.05.19.15.48.39.87.77,1.24,2.01,1.89,2.49,2.12.34.16.61.27.84.33.62.16,1.28.23,1.88.44,1.05.36,2.09.78,3.1,1.23.78.35,1.57.59,2.42.62.72.03,1.45.11,2.17.09,1.01-.03,1.98-.28,2.91-.65.55-.22,1.12-.42,1.69-.6,1.51-.47,3.01-.94,4.38-1.76.75-.45,1.55-.87,2.45-1,.3-.04.61-.08.91-.11,1.22-.11,2.18.16,2.56.26.88.23,2.15.58,3.12,1.66.54.6.95,1.41,1.1,1.69.12.23.3.48.49,1.06.18.55.34,1.13.64,1.61.38.61.07,1.07-.1,1.68-1.01-.76-2.53-1.63-4.47-1.82-1.75-.17-3.27.27-4,.48-1.07.31-2.5.88-2.86,1.03-1.06.43-1.29.48-1.82.65-1.2.38-1.35.33-2.07.62-.98.4-1.62.89-1.86,1.03-.57.35-1.05.76-1.39,1.32-.62,1.04-1.28,2.05-1.62,3.23-.18.62-.4,1.23-.62,1.83-.36.99-.61,1.99-.63,3.06-.02.8-.19,1.6-.48,2.36-.23.62-.45,1.24-.66,1.87-.38,1.13-.75,2.28-.74,3.48,0,1.18.06,2.35.37,3.5.24.9.43,1.83.36,2.77-.04.57-.09,1.14-.12,1.71-.05.85-.22,1.69-.35,2.54-.12.75-.18,1.49-.02,2.25.05.24.14.38.18.43,0,0,.07.09.17.15.31.2,1.09-.2,2.04-.56.63-.24.68-.23,1.27-.45.3-.11.59-.25.89-.37.22-.09.45-.17.68-.25.74-.27,1.3-.82,1.93-1.27.56-.41,1.11-.83,1.68-1.22.64-.43,1.32-.8,1.94-1.27.69-.52,1.36-1.09,1.99-1.68.77-.72,1.16-1.7,1.58-2.64.59-1.33.95-2.74,1.1-4.2.15-1.35.16-2.7-.07-4.05-.15-.86-.28-1.72-.19-2.6.1-1.1.45-2.14.83-3.17.52-1.45.91-2.92,1.05-4.46.06-.61.09-1.22.14-1.83.07-.84.28-1.62.91-2.22.16-.15.4-.4.8-.55.91-.35,2,.02,2.63.68.56.58.67,1.29.77,1.95.12.77.04,1.38.01,1.56-.23,1.7-.21,3.42-.4,5.12-.18,1.61-.19,2.94-.21,5.61-.03,4.14-.05,6.2.48,8.62l1.03,4.12c.28,1.06.58,2.11.88,3.17.45,1.61.92,3.22,1.36,4.84.11.42.09.48.17.85,0,0,.42,1.97,1.21,3,.09.12.18.21.18.21.17.17.26.21.51.59.58.87,1.14,1.76,1.69,2.65.2.32.38.66.57,1,.33-.13.4-.38.38-.64-.05-.46-.09-.93-.22-1.38-.2-.75-.47-1.47-.7-2.21-.61-1.97-1.32-3.91-1.87-5.9-.36-1.27-.84-2.5-1.23-3.76-.53-1.69-1.08-3.38-1.51-5.1-.38-1.55-.64-3.12-.89-4.7-.15-.94-.19-1.9.01-2.84.27-1.31.8-2.22,1.31-3.05.69-1.13,1.3-2.12,2.52-2.95,1.2-.82,2.32-1.06,3.68-1.33.96-.19,1.85-.38,3.02-.22.61.08.82.2,1.86.37.94.16,1.74.21,2.16.25,1.75.16,3.44-.1,5.09-.67,1.19-.41,2.34-.91,3.46-1.49.59-.3,1.19-.57,1.8-.83.76-.32,1.53-.6,2.29-.92,1.63-.69,3.28-1.36,4.81-2.27.36-.21.64-.54.99-.77.71-.46,1.24-1.11,1.66-1.8.6-.99,1.09-2.04,1.62-3.08.31-.6.54-1.25.89-1.83.54-.89,1-1.8,1.35-2.78.09-.26.25-.49.3-.76.11-.58.31-1.18-.14-1.71-.14-.17-.29-.34-.44-.51-.34-.38-.69-.76-1.08-1.19.03-.06.1-.19.16-.34.09-.22.2-.44.25-.68.24-1.11.36-2.22.25-3.36-.1-1.05-.34-2.06-.8-3.02-.21-.44-.38-.89-.59-1.33-.27-.58-.52-1.19-.86-1.73-.4-.64-.71-1.3-.95-2-.37-1.09-.82-2.14-1.4-3.12-.11-.19-.22-.4-.36-.57-.7-.9-1.6-1.6-2.54-2.22-.94-.62-1.95-1.13-2.99-1.58-1.57-.68-3.18-1.02-4.89-.94-.93.04-1.88.11-2.8-.01-2.28-.29-3.47.34-3.86.43-.57.13-1.03.28-1.35.39-.03-1.36.2-2.15.42-2.62.24-.51.28-1.09.38-1.65.06-.33-.05-.4-.37-.38-.21.01-.42.01-.63.03-.72.07-1.45.08-2.07.53-.11.08-.3.12-.44.1-.25-.04-.48-.15-.75-.24.04-.09.06-.17.11-.23.32-.51.5-.74.77-1.22.21-.38.32-.57.25-.67-.14-.2-.72.15-1.7.32-1.04.19-1.04.06-2.17.12-.68.04-1.3.21-1.84.65-.24.19-.49.37-.74.55-.08.06-.17.1-.37.22.05-.24.13-.63.26-1.08.22-.77,1.2-4.18,3.76-5.73Zm9.77-22.1c-.31.13-.69.08-1.04.12-.51.05-1.02.09-1.53.14-.03,0-.11.03-.28.08-.97.29-1.25.41-1.26.37-.02-.05.55-.31,1.34-.81.58-.37,1.14-.78,1.66-1.24.41-.36.86-.52,1.37-.46.56.07,1.12.09,1.76-.09-.53.87-1.15,1.53-2.01,1.89Zm2.58-2.63c-.45.66-1.1.83-1.85.75-.32-.03-.64-.06-1.01-.1.51-.69,2.68-1.76,3.57-1.77-.11.46-.46.76-.71,1.12Zm-2.6-1.46c.14-.06.27-.13.41-.13.5.02.99.02,1.49-.06.46-.07.93-.02,1.4,0,.09,0,.17.06.34.13-.35.27-.72.23-1.02.36-.32.14-.67.23-.99.37-.39.16-.66.31-.96.46-.72.38-1.25.71-1.86,1.1-.39.25-.7.46-.89.58-.29.19-.57.39-.86.58-.02-.02-.04-.05-.07-.07,1-1.11,2.01-2.22,3.01-3.33Zm-5.44,4.25c.71-.86,1.42-1.71,2.14-2.55.2-.23.42-.45.63-.66.62-.63,1.42-.92,2.24-1.17.12-.04.29-.1.34.08-.2.15-.35.28-.47.38-.83.72-1.07,1.22-2.57,2.86-.05.06-.08.08-.1.11-.67.9-1.64,1.31-2.63,1.7,0,0-.02-.02-.07-.05.16-.23.31-.47.48-.69Zm-1.25,1.17c.74-.3,1.22-.37,2.12-.82.13-.07.24-.13.32-.17.35-.19.72-.42,1.45-.89.48-.31.95-.63,1.43-.93-1.12,1.11-2.1,1.68-2.74,1.98-.38.18-1.55.69-2.43.95-.09.03-.34.1-.67.23-.59.23-.97.46-.97.46,0,0,.59-.44,1.49-.8Zm11.36,23.49c-.05.02-.11.04-.16.05-.96.07-1.88-.08-2.78-.47-1.15-.49-1.79-.98-2.78-1.56,0,0-1.7-.99-3.84-1.63-.48-.14-1.05-.29-1.76-.26-.83.03-1.36.27-1.38.23-.03-.09,2.55-.98,3.28-1.18.04-.01.07-.02.09-.02,1.07-.29,1.56-.32,1.99-.4,2.24-.43,3.98.58,5.15,2.36.04.06.02.04.77,1.44.28.53.54.99,1.06,1.23.15.07.28.1.38.12,0,.03,0,.07-.01.1Zm11.61-6.33c-.69.62-1.35,1.29-2.22,1.69-1.21.55-2.24,1.39-3.29,2.2-.69.53-1.38,1.06-2.12,1.51-.67.41-1.22.52-1.43.58-1.21.35-2.3.32-2.91-.02-.13-.07-.23-.16-.23-.16-.23-.33-.51-.64-.66-1-.66-1.59-1.69-2.84-3.27-3.6-.12-.06-.23-.12-.4-.2.12-.04.2-.09.28-.09,1.07-.01,1.78-.1,2.51-.02,1.14.11,2.14-.12,3.61-.45.16-.04.66-.15,1.34-.2.13,0,.31-.02.57-.02.49,0,1.14.05,2.62.24.62.08,1.06.1,1.2.11.99.05,1.66-.03,2.02-.08.21-.03.43-.06.71-.13.34-.09.68-.2,1.01-.32.24-.09.45-.25.76-.21-.04.08-.06.14-.1.18Zm3.79-5.62c-.4.61-.54,1.45-1.76,3.22-.49.71-.74,1.07-1.19,1.43-.44.36-.83.54-1.25.73-.41.19-1.62.58-2.99.7-.32.03-.64-.03-.96-.06-.37-.03-.74-.06-1.11-.11-.35-.04-.7-.11-1.05-.16-.35-.04-.7-.07-1.05-.09-.2-.02-.41-.02-.63-.12.07-.05.14-.11.21-.16.03-.02.06-.03.08-.04.28-.16,1.34-.65,2.18-1.2.11-.07.17-.12.28-.19,1.4-.85,2.8-1.72,4.21-2.56.78-.46,1.58-.88,2.37-1.3.18-.1.39-.16.58-.24.37-.15.75-.29,1.12-.44.36-.14.71-.28,1.14.06-.03.27-.16.46-.2.53Zm-2.08-2.2c.13.01.1.07,1.36.34.39.08.66.3.89.69-.13.06-.24.13-.35.16-.36.12-.74.22-1.1.35-.36.13-.73.25-1.08.41-1.29.6-2.47,1.38-3.68,2.11-1.53.93-3.04,1.89-4.69,2.6-.78.33-1.58.62-2.46.68.06-.04.12-.1.18-.13.86-.42,1.54-1.04,2.12-1.8.15-.19.34-.34.49-.53.17-.21.31-.44.47-.66,0,0,0,0,0,0,0,0,1.52-1.77,3.52-2.87h0c.63-.2,1.12-.41,1.45-.56.85-.39,1.17-.65,1.87-.77.14-.02.52-.08,1.02-.03Zm-8.74-2.94c1.68-.1,3.21.43,4.73,1.03.51.2,1.02.4,1.53.59.63.23,1.19.55,1.69,1.06-1.37.56-2.74,1.12-4.1,1.67h0s-2.07,1.3-3.69,3.52c-.05.07-.31.39-.67.74,0,0-.35.38-.64.66-.59.57-1.78,1.33-3.28,1.53-.16.02-.54.03-1.31.05-.97.02-1.93.02-2.9.06-.98.04-1.96.1-2.95.16-1.16.07-2.29.32-3.45.52.2-.11.4-.21.6-.33.73-.42,1.5-.75,2.32-.94,1.33-.31,2.53-.87,3.55-1.78.96-.86,1.88-1.79,2.54-2.9.78-1.31,1.77-2.45,2.7-3.64.07-.09.15-.17.24-.23.65-.48,1.29-.96,1.94-1.43.34-.24.72-.33,1.13-.35Zm-7.14,2.78c.03-.43.21-.67.51-.91.6-.5,1.24-.95,1.99-1.15.52-.14,1.08-.15,1.62-.23.45-.06.89-.13,1.34-.19.07-.01.15-.01.23-.02,0,.03.01.06.02.09-.28.19-.55.39-.83.57-.86.53-1.46,1.3-2.08,2.07-.44.55-.86,1.13-1.29,1.69-.1.13-.2.26-.27.4-.56,1.15-1.45,2.04-2.33,2.94-.63.64-1.32,1.2-2.15,1.54-.58.24-1.18.42-1.79.59-1.25.36-2.41.9-3.49,1.63-.5.34-1.03.65-1.58.89-.03-.03-.06-.05-.08-.08.25-.4.5-.79.75-1.19.18-.29.39-.56.53-.86.63-1.34,1.54-2.49,2.45-3.64.63-.8,1.37-1.45,2.24-1.96.57-.34.69-.33,1.21.08.41.32.8.65,1.21.97.13.1.26.2.41.25.33.11.62-.05.72-.37.3-1.02.58-2.05.67-3.11Zm-4.66-2.92c-.16-.17-.32-.33-.56-.56-.43-.4-.81-.7-1.07-.89.25.09.58.24.97.46,0,0,.24.1.42.26,1.32,1.13,1.99,2.59,1.99,2.59.36.79.42,1.2.93,2.48.06.15.21.51.43.96.1.2.21.39.32.59-.03.03-.07.07-.1.1-.25-.19-.51-.37-.75-.56-.29-.23-.58-.47-.87-.7-.23-.19-.37-.43-.49-.7-.33-.72-.41-1.48-.45-2.26-.04-.69-.32-1.28-.77-1.78Zm.77,3.26c-.13-.07-.22-.1-.28-.16-.5-.43-1.02-.82-1.6-1.16-1.27-.75-2.05-1.86-2.31-3.33-.05-.26-.15-.52-.26-.9.77.14,1.3.43,1.67.68.18.12.18.15.94.86,1.03.96,1.11.99,1.25,1.25.23.41.38.88.43,1.41.04.43.1.86.16,1.35Zm2.84,2.49c-.23-.38-.49-.85-.72-1.4-.52-1.21-.52-1.76-1.16-3.34-.33-.82-.52-1.14-.72-1.42-.44-.59-.99-1-1.15-1.15-.08-.08-.18-.13-.31-.22.17-.02.42-.03.71,0,.17.02.51.08,1.07.37.3.15.78.48,1.38.96.81.64,1.33,1.43,1.43,2.51.12,1.25-.16,2.42-.53,3.69Zm-5.74-9.22c.56.03,1.12.11,1.67.18.37.05.73.14,1.09.21.43.07.8.26,1.11.54.44.4.88.81,1.29,1.24.47.5.76,1.1.9,1.87-.16-.19-.4-.46-.72-.77-.78-.75-1.43-1.38-2.38-1.63-.17-.04-.05,0-1.23-.18-.69-.11-1.04-.15-1.22-.2-.66-.19-1.29-.51-1.9-.97.48-.22.93-.32,1.39-.29Zm-3.32-.66c.58.23,1.07.61,1.31.79.3.23.32.3.54.46.36.27.95.6,2.17.96.61.18,1.15.46,1.59.85.39.34.6.66.88,1.1.68,1.07.99,2.06.97,2.06-.01,0-.18-.52-.62-1.25-.31-.51-.61-.82-1.15-1.49-.11-.14-.21-.22-.34-.32-.41-.34-.79-.5-1.01-.59-1.09-.45-1.16-.4-1.7-.65-.62-.28-1.09-.5-1.53-.9-.15-.14-.51-.46-1.07-.79-.06-.04-.12-.07-.2-.11-.86-.4-1.61-.32-1.6-.34,0-.03.86-.15,1.78.21Zm-1.82.06c.72-.17,1.45.25,1.81.49.91.59,1.31,1.5,1.6,2.18.35.81.16.81.46,1.42.5.99,1.18,1.79,2.18,2.31.71.37,1.29.91,1.83,1.49.06.07.12.16.16.24.09.18.08.34-.13.45-1.2.6-2.13,1.52-2.94,2.55-.83,1.04-1.7,2.06-2.25,3.31-.34.77-.89,1.46-1.38,2.16-.15.21-.41.35-.64.51-.69.5-1.18.85-1.33.96-1.1.76-1.88,2.07-2.81,3.65-.45.77-.68,1.15-.84,1.68-.12.39-.17.73-.27.73-.14,0-.24-.72-.31-1.22-.35-2.91-.9-3.55-.95-6.29,0-.22,0-.39,0-.49.31-.15.53-.04.74.08.26.16.51.34.76.52.37.28.75.49,1.24.46.21-.02.42,0,.63,0,1.52.07,2.68-.63,3.58-1.76.35-.43.53-.99.82-1.48.46-.76.93-1.51,1.42-2.24.21-.3.27-.56.1-.89-.13-.25-.27-.49,0-.79.19-.19,0-.63-.28-.77-.16-.08-.32-.15-.44-.21-.02-.06-.03-.07-.03-.09-.04-.79-.12-.78-.89-.78-.52,0-1.05.14-1.57.21-.24.03-.48.08-.72.06-.81-.1-1.54.1-2.22.51-.5.3-.61.72-.98.7-.03,0-.19-.01-.3-.1-.39-.34.29-1.62,1.05-3.47.46-1.11.25-.73,1.23-3.21.89-2.24,1.14-2.74,1.67-2.87Zm2.09,8.86c-.34.32-.74.37-1.06.44-.36.08-.64.19-1.19.41-.67.27-1.13.62-1.44.86-.57.44-1.08.96-1.52,1.56-.61.84-1.4,1.49-2.31,2.08-.05-.48.05-.91.15-1.34.1-.43.3-.85.48-1.26.19-.43.57-.73.83-1.12.26-.38.7-.66,1.1-.93.39-.27.8-.54,1.3-.62.21-.03.43-.11.62-.07.66.13,1.27-.09,1.9-.21.28-.05.57-.07.86-.08.12,0,.24.06.43.11-.03.04-.08.11-.15.17Zm1.03.86c0,.13-.15.21-.54.44-.91.56-.71.53-1.29.85-.75.42-.68.27-1.54.69-.5.25-.98.55-1.48.81-.21.11-.43.23-.65.31-.78.26-1.42.73-2.01,1.3-.31.3-.67.52-1.05.74.12-.45.47-.71.81-.95.77-.55,1.39-1.25,1.96-1.99.87-1.13,1.98-1.87,3.34-2.24.31-.09.61-.21.91-.32.16-.06.26-.06.39-.07.52-.03,1.13.2,1.14.44Zm-6.59,3.91c.27-.2.58-.34.88-.49.64-.32,1.06-.54,1.64-.82,1.59-.76,2.38-1.14,2.63-1.3.59-.4,1.31-.99,1.4-.91.03.03-.04.12-.06.36,0,.12,0,.22.02.29-.86.65-1.48,1.25-1.9,1.68-.29.3-.51.47-.87.9-.42.51-.9.9-1.45,1.19-.61.32-1.13.43-1.64.52-.85.15-2.05.18-2.33.32-.02.01-.11.06-.22.05-.08,0-.16-.05-.22-.1.71-.57,1.4-1.14,2.12-1.68Zm6.67-2.6c.06.05-.07.27-.21.52-1.31,2.26-1.33,2.09-1.76,2.89-.2.36-.44.86-.99,1.33-.12.1-.22.17-.29.22-.11.08-1.58,1.12-2.99.67-.58-.19-1.32-.66-1.46-.79-.12-.11-.27-.2-.46-.34.13-.03.18-.06.24-.06.46-.04.93-.06,1.39-.14.55-.1,1.1-.23,1.64-.38.72-.2,1.3-.64,1.8-1.17.65-.69.65-.8,1.49-1.59.59-.56,1.46-1.27,1.58-1.16Zm-1.6-16.91s-.01.18-.07.34c-.04.11-.11.21-.24.26.08-.57.15-1.14.23-1.72.14-1.04.18-1.35.24-1.71.14-.97.31-2.18.35-2.18.05,0-.24,2.27-.34,3.62-.03.46-.19.92-.17,1.39Zm2.77-6.72c.24.81.52,1.62.36,2.45-.1.49-.34.97-.59,1.42-.22.4-.54.75-.82,1.12-.38.5-.87.91-1.12,1.5-.06.14-.19.25-.32.42-.14-.24-.06-.45-.05-.64.02-.42.09-.89.38-1.53.49-1.12.86-1.08,1.3-2.15.05-.11.16-.45.38-1.13.2-.61.36-1.12.47-1.46Zm-.96-2.39c.24.39.49.79.71,1.19.21.38.28.76.1,1.2-.2.47-.35.97-.46,1.47-.24,1.01-.61,1.6-1.13,2.34-.18.26-.35.46-.47.59,0-.6-.05-1.16.01-1.71.13-1.18,1.01-4.64,1.24-5.08Zm-2.04,1.34c.48-.6.91-1.25,1.36-1.87.09-.12.2-.23.36-.41.16.34.12.59.06.81-.2.75-.41,1.49-.64,2.23-.34,1.09-.68,2.17-.77,3.33-.06.77-.21,1.53-.32,2.3-.02.13-.07.25-.12.45-.19-.39-.21-.74-.22-1.07-.06-1.47-.1-2.93-.13-4.4-.01-.49.1-.95.42-1.36Zm-1.3,6.5c-.18-1.06-.33-2.14-.26-3.21.06-.81.39-1.55.84-2.22l.13.02c0,.5,0,.99,0,1.49-.02,1.56.1,3.12.33,4.66.09.62-.12,1.61-.47,2.16-.03-.14-.05-.24-.07-.34-.17-.85-.35-1.7-.5-2.55Zm-11.9-4.08c.59.54,1.15,1.12,1.53,1.84.59,1.11,1.24,2.19,2.02,3.18,1.72,2.2,1.66,2.89,1.81,3.51.18.74.28,1.74.2,2.39,0,.06-.02.2-.05.44-.04.41-.08.83-.12,1.24-.01.12-.03.25-.05.37-.06,0-.1.01-.11,0-.73-.84-1.45-1.67-1.8-2.77-.24-.77-.43-1.54-.54-2.34-.16-1.16-.49-2.3-.95-3.39-.17-.4-.32-.81-.5-1.2-.17-.38-.38-.74-.57-1.12-.32-.63-.63-1.27-.95-1.9-.03-.05-.02-.12-.03-.18.03-.02.06-.03.09-.05Zm-6.77-1.72c.28-.06.57-.11.85-.18,1.38-.37,2.69-.19,3.93.48.49.27.94.61,1.38.96.16.13.25.36.34.56.15.3.26.62.4.93.48,1,1.1,1.93,1.46,2.99.24.72.55,1.41.78,2.13.16.5.26,1.03.33,1.56.11.86.23,1.72.58,2.53.02.06.02.12.03.19-.03.02-.05.04-.08.06-.3-.41-.58-.83-.89-1.24-.34-.45-.67-.92-1.06-1.31-.41-.4-.9-.72-1.35-1.09-.15-.12-.28-.26-.42-.38-.1-.1-.2-.21-.31-.29-.41-.29-.87-.52-1.21-.87-.42-.43-.75-.96-1.1-1.46-.16-.23-.22-.43-.26-.52-.56-1.18-1.59-2.29-2.68-3.45-.35-.37-.83-.87-1.42-1.44.24-.05.48-.1.72-.15Zm-4.6.59c.37-.04.74-.06,1.11-.07.63-.02,1.26-.02,1.87-.2.52-.15.82.16.89.19.43.2.68.51.81.67,1.32,1.63,2,1.92,2.88,3.47.03.06.06.13.34.61.35.58.72,1.15,1.1,1.7.12.18.33.3.51.44.12.09.26.17.38.25-.01.02-.03.05-.04.07-.31-.14-.62-.29-.94-.42-1.44-.58-2.82-1.27-4.01-2.29-.5-.43-1-.86-1.49-1.3-.96-.85-2.04-1.52-3.22-2.02-.21-.09-.43-.13-.64-.21-.25-.09-.49-.21-.78-.33.38-.39.79-.5,1.22-.55Zm-1.33,1.11c-.02-.11,0-.22,0-.46.8.35,1.51.65,2.21.98,1.02.48,1.81,1.28,2.64,2.01.75.66,1.46,1.37,2.19,2.05.22.21.47.38.68.65-.15-.01-.29-.03-.44-.04-1.08-.12-2.16-.29-3.12-.78-1.04-.53-2.02-1.2-3.05-1.77-.52-.29-.76-.7-.85-1.26-.07-.46-.18-.92-.26-1.37Zm6.61,9.63c-.71-.53-1.51-.86-2.33-1.15-.3-.11-.61-.21-.91-.31-.42-.15-.77-.41-1.01-.79-.46-.72-.92-1.45-1.14-2.28-.14-.51-.23-1.04-.35-1.55-.07-.31-.16-.61-.27-1,.15.07.22.09.28.13.47.29.93.58,1.4.86.68.39,1.35.83,2.07,1.14.64.28,1.34.5,2.03.58,1.22.14,2.36.51,3.44,1.06.89.45,1.77.93,2.66,1.39.64.33,1.16.83,1.61,1.37.42.5.76,1.06,1.13,1.59-.02.02-.05.05-.07.07-.27-.13-.55-.25-.82-.38-.69-.33-1.42-.57-2.19-.47-.57.07-1.13.24-1.69.41-1.24.37-2.81.12-3.85-.66Zm10.31,3.64c-.34-.18-.67-.37-1.02-.53-.6-.29-1.22-.45-1.9-.5-.98-.08-1.94-.29-2.91-.4-.98-.11-1.87-.46-2.74-.9-.21-.11-.39-.26-.58-.39.02-.04.03-.08.05-.12.14.03.29.06.43.1.71.2,1.42.26,2.13-.02.45-.17.93-.28,1.4-.39.49-.12.99-.12,1.48.04.77.24,1.54.5,2.16,1.04.19.17.38.35.54.55.36.47.69.96,1.04,1.44-.03.03-.06.05-.08.08Zm2.43,4.21c-.34-1.57-1.06-2.61-1.19-2.84-.18-.34-.89-1.38-2.29-3.45-.17-.25-.55-.8-1.07-1.53-.13-.18-.25-.35-.38-.52-.6-.8-1.37-1.4-2.26-1.86-1.36-.7-2.7-1.43-4.04-2.17-.36-.2-.68-.47-.99-.79.07.03.16.04.22.08.9.61,1.92.99,2.89,1.44,1.1.51,2.18,1.06,3.1,1.86.36.32.71.66,1,1.04.74.94.9,1.29,1.94,2.59.37.46.49.61.69.85.24.3,1.09,1.39,1.82,2.83.16.31.26.53.29.6.19.58.39,1.05.54,1.59.41,1.49.38,1.82.52,1.84.3.04.61-1.39,1.38-3.39.7-1.8.87-1.73,2.19-4.75.78-1.77,1.19-2.88,1.22-2.87.04.02-.53,1.69-1.2,3.41-.41,1.05-.36.83-1.43,3.39-1.25,3-.89,2.25-1.18,2.9-.2.43-.44.93-.65,1.67-.18.63-.26,1.17-.3,1.54h-.07c-.25-1.16-.51-2.32-.76-3.48Zm-2.16.99c.15.84.76,1.32,1.4,1.76.5.35.9.78,1.15,1.34.08.18.1.32-.02.49-.28.43-.53.87-.83,1.36,0-.16-.04-.27-.02-.38.11-.58-.08-1.08-.35-1.57-.32-.58-.65-1.15-.97-1.73-.18-.33-.34-.66-.49-1-.05-.11-.04-.24-.07-.46.11.1.18.14.19.18Zm-1.21.29c.06-.07.19.02.36-.06.22-.09.24-.31.34-.31.14,0,.23.42.27.57.14.58.3.59,1.43,2.75.04.07.12.24.18.47.04.18.06.36.05.55-.03.64-.03,1.27-.04,1.91-.04,0-.09,0-.13.01-.09-.22-.16-.45-.26-.66-.2-.42-.45-.9-.45-.9-.42-.55-.62-1.03-.73-1.38-.21-.65-.21-1.22-.53-1.81-.09-.16-.15-.34-.25-.5-.08-.12-.34-.53-.23-.65Zm-1.6.42c.07-.07.27.11.5.02.1-.04.16-.13.29-.3.12-.16.2-.31.26-.41.49.77,1.03,1.41,1.17,2.3.14.87.46,1.71.97,2.45.48.69.69,1.48.93,2.27.03.09,0,.19,0,.28-.41-.8-1.08-1.31-1.73-1.84-.4-.32-.79-.66-1.18-.99-.18-.16-.26-.36-.25-.6,0-.11-.01-.23,0-.34.03-.32-.1-1.14-.5-1.93-.25-.48-.54-.83-.45-.91Zm-.16,3.53c.27-.78.38-.92.44-1.47.1-.95-.47-1.61-.4-1.65.1-.05.92,1.13.87,1.9,0,.04.02.22-.01.47-.08.56.1.98.52,1.32.34.28.69.53,1.01.82.43.38.85.79,1.25,1.2.09.09.13.25.23.44-.27-.08-.46-.15-.66-.19-.41-.09-.81-.19-1.24-.07-.07.02-.17.02-.24,0-1.15-.38-2.3-1.23-1.78-2.74Zm-1.71,7.12c-.08-.13-.17-.33-.19-.63-.03-.5.18-.89.41-1.31.12-.21.23-.43.43-.66.51-.59,1.13-.79,1.94-1.05.79-.26,1.29-.3,1.58-.28.29.02.58.09.87.2.11.04.2.14.38.27-.61.23-1.12.37-1.46.45-.44.1-.87.22-1.31.31-.44.09-.63.11-.85.28-.19.14-.29.35-.48.75-.19.4-.24.62-.5,1.25-.24.6-.33.75-.46.76-.15,0-.29-.2-.36-.32Zm.38,1.05s-.23-.04-.25-.13c-.02-.1.2-.17.51-.48,0,0,.06-.04.13-.13.19-.26.2-.64.66-1.94.14-.41.36-.7.81-.8.47-.1.93-.27,1.4-.34,1.21-.19,1.87-.58,1.92-.47.05.1-.5.37-1.25,1.08-.26.25-.46.47-.59.63h0c-.44.48-1.9,2.07-2.57,2.38-.04.02-.17.06-.44.15-.14.05-.22.07-.32.06Zm1.47.73c-.01.1-.06.41-.27.52-.38.19-1.08-.42-1.01-.78.03-.18.24-.21.63-.46.25-.16.49-.38.96-.82.93-.86,1.52-1.57,1.57-1.53.01,0,0,.05-.02.07-.55,1.1-.81,1.44-.81,1.44-.42.54-.44.46-.63.78-.29.47-.42.79-.42.79Zm3.57-2.97c-.17,1.02-.62,1.85-1.49,2.44-.32.22-.66.3-1.05.24-.16-.02-.34.05-.49.12-.13.06-.22.18-.33.27-.02-.02-.05-.03-.07-.05.04-.13.1-.33.23-.54.21-.36.4-.45.67-.76.17-.2.17-.26.59-1.03.18-.33.45-.81.55-.99.26-.44.73-1,1.66-1.53.02.1.04.26.05.44.01.49-.22.81-.32,1.4Zm-10.01.35c.55,0,1,.22,1.41.55,1.64,1.36,2.78,3.06,3.44,5.09.41,1.25.83,2.51,1.29,3.74.24.65.59,1.25.9,1.87.21.43.44.85.69,1.35-.13-.06-.19-.07-.23-.1-.67-.53-1.38-1.02-1.98-1.62-.43-.42-.9-.76-1.39-1.08-.62-.4-1.21-.85-1.73-1.38-.63-.65-1.19-1.35-1.47-2.24-.17-.54-.36-1.07-.57-1.59-.17-.44-.28-.89-.34-1.35-.01-.11-.03-.23-.08-.33-.3-.62-.59-1.25-.92-1.86-.18-.34-.41-.65-.67-1.06.58,0,1.11,0,1.64,0Zm-14.36-2.18c.75-.06,1.51-.13,2.26-.19.82-.07,1.64-.18,2.46-.18.98,0,1.96.16,2.9.48.41.14.84.23,1.25.38.56.2,1.11.42,1.66.66.49.21.96.46,1.43.7.57.29.93.8,1.22,1.33.34.6.62,1.24.91,1.87.1.22.13.46.2.69.21.71.41,1.42.64,2.13.2.61.35,1.24.78,1.75.34.4.68.81,1.03,1.21.06.07.13.14.19.21-.02.03-.04.05-.06.08-.35-.18-.71-.36-1.06-.54-1.15-.62-2.37-1.08-3.61-1.49-.78-.25-1.55-.55-2.32-.82-.54-.19-1.09-.38-1.63-.58-.9-.33-1.52-1.01-2.15-1.68-.49-.52-.96-1.04-1.41-1.59-.75-.91-1.56-1.76-2.46-2.52-.61-.52-1.28-.97-1.93-1.45-.16-.12-.35-.22-.61-.39.18-.03.25-.05.32-.05Zm-5.15-1.1c.49-.16.99-.13,1.47.05.91.34,1.82.66,2.71,1.02.47.19.94.43,1.36.72.65.44,1.29.92,1.88,1.44.76.67,1.48,1.38,2.12,2.18.68.85,1.45,1.65,2.19,2.45.79.84,1.83,1.24,2.9,1.57.32.1.64.19.97.28-.02.04-.04.08-.05.12-1.23-.33-2.45-.67-3.68-.99-1.66-.44-3.25-1.06-4.81-1.74-.8-.35-1.54-.87-2.28-1.35-.82-.53-1.49-1.24-2.14-1.95-.58-.64-1.08-1.36-1.62-2.03-.42-.52-.83-1.07-1.51-1.32.09-.28.29-.38.5-.45Zm-.9,6.24c-.04-.48-.03-.97-.06-1.45-.02-.45-.08-.9-.1-1.35-.02-.69-.03-1.38-.03-2.08,0-.31.14-.55.4-.74.32.07.58.22.78.45.35.4.68.81,1.03,1.22.53.63,1.07,1.25,1.6,1.88.12.14.21.32.33.46.11.13.24.25.38.36.49.4.97.8,1.47,1.18.34.27.7.52,1.07.75.75.47,1.5.95,2.27,1.39,1.49.84,3.1,1.35,4.77,1.67.3.06.6.13.88.23-1.36.06-2.72.14-4.08.16-1.58.02-3.12-.22-4.57-.87-.94-.42-1.88-.85-2.82-1.27-.21-.09-.42-.17-.63-.23-.93-.27-1.75-.74-2.47-1.37-.11-.09-.19-.27-.2-.41Zm10.29,9.2c-.63-.02-1.26-.01-1.89,0-.37,0-.7-.1-1-.3-.52-.36-1.02-.74-1.38-1.27-.57-.83-1.4-1.36-2.22-1.9-.61-.4-1.22-.79-1.78-1.25-.75-.61-1.31-1.37-1.55-2.34-.09-.38-.2-.75-.3-1.12-.02-.07,0-.15,0-.29.16.09.27.14.37.2.73.45,1.49.81,2.31,1.09.94.33,1.86.74,2.75,1.18,1.44.72,2.96,1.06,4.56,1.11.89.02,1.77-.05,2.66-.09,1.06-.05,2.14-.09,3.19.06.96.13,1.89.51,2.83.8,1.08.34,2.08.87,3.08,1.4.25.13.52.25.77.38-1.68-.21-3.29.02-4.89.43-.94.24-1.82.64-2.7,1.04-.38.17-.81.22-1.19.39-1.16.51-2.38.52-3.61.49Zm15.52.51c-.61-.12-1.23-.26-1.85-.29-1.33-.06-2.67-.03-4.01-.09-.8-.04-1.6-.16-2.4-.28-.77-.12-1.53-.12-2.31-.08-.43.02-.86,0-1.29,0,0-.02,0-.04,0-.06.56-.21,1.12-.41,1.67-.62.26-.1.51-.21.75-.33.77-.38,1.61-.58,2.44-.73.93-.16,1.89-.23,2.83-.26.92-.03,1.77.27,2.51.85.85.67,1.7,1.33,2.55,1.99.05.04.09.09.1.2-.33-.1-.66-.24-1-.3Zm5.08,4.55c-.42-.63-.85-1.25-1.28-1.88-.83-1.19-1.86-2.17-3.05-3-.33-.23-.62-.51-.94-.76-1.07-.88-2.2-1.67-3.45-2.29-.81-.4-1.61-.82-2.43-1.18-.56-.25-1.15-.41-1.73-.62-.44-.16-.87-.33-1.3-.49-.06-.02-.12-.03-.18-.04-.3-.04-.61-.05-.9-.11-1.24-.28-2.49-.55-3.71-.89-1.21-.34-2.34-.89-3.4-1.57.01-.03.03-.06.04-.09.65.24,1.3.46,1.94.72,1.15.48,2.36.76,3.56,1.09,1.09.3,2.18.58,3.29.81,2.32.49,4.4,1.54,6.42,2.73,1.3.76,2.45,1.72,3.61,2.67.2.16.41.32.61.48,1.29,1.05,2.31,2.34,3.19,3.73.55.87.9,1.85,1,2.9.03.29.15.58.22.86.25,0,.35-.11.38-.29.07-.4.19-.8.18-1.19-.02-.89.05-1.77.26-2.64,0,.34.02.68,0,1.02-.09,1.48-.19,2.96-.31,4.44-.04.45-.16.88-.24,1.33-.06.35-.11.7-.18,1.04-.1.48-.26.94-.35,1.65-.04.29-.05.47.02.51.12.06.41-.32.5-.43.18-.23.27-.43.28-.45.44-.92.86-1.84,1.23-2.78.21-.53.27-1.13.47-1.67.34-.9.74-1.78,1.11-2.67.09-.21.2-.4.28-.61.08-.21.21-.22.42-.13-.04.09-.06.18-.1.26-.61,1.13-1.03,2.32-1.3,3.58-.2.9-.58,1.74-1.03,2.55-.41.74-.87,1.47-1.32,2.19-.3.49-.73.85-1.27,1.14,0-.07-.02-.13,0-.18.5-1.47.68-2.97.6-4.52-.04-.69-.01-1.38-.04-2.07-.04-1.16-.45-2.2-1.09-3.16Zm8.27-4.44c.03.17.08.17.18.43.14.35.15.65.17.94.02.26.04.69-.1,1.21-.1.41-.39,1.13-1,1.56-.09.06-.21.09-.31.09-.65-.03-1.31-.07-1.96-.11-.07,0-.15-.02-.32-.05.09-.07.23-.17.38-.3,1.17-.95,2.01-1.63,2.14-2.55.07-.45-.06-.84.23-1.26.11-.16.19-.2.34-.44.27-.42.34-.81.36-.8.02,0-.03.2-.06.4,0,0,0,0,0,0-.15.44-.1.69-.07.89Zm15.27,10.57c.39,1.16.54,2.07.93,3.72.03.14.05.21.06.25.5,1.88,1.31,2.99,1.3,3-.01,0-.56-.64-1.05-1.76-.57-1.31-.47-1.93-.97-3.81-.25-.92-.39-1.47-.71-2.2-.69-1.59-1.62-2.7-2.37-3.58-.48-.56-.84-.93-1.35-1.45-1.03-1.04-2.32-1.66-3.62-2.26-.86-.4-1.76-.72-2.64-1.07-.51-.2-1.05-.31-1.6-.33-.23,0-.47-.07-.72-.1.03-.28.15-.4.38-.37.22.03.45.06.67.12,1.44.35,2.83.83,4.2,1.43,1.64.72,2.97,1.81,4.15,3.1,2.01,2.23,2.84,3.91,2.9,4.08.1.28.23.63.23.63.1.27.18.48.21.6Zm-17.87,25.81c.62-.6,1.22-1.24,1.79-1.89.61-.7.8-1.6,1.04-2.47.4-1.47.99-2.86,1.86-4.12.27-.4.61-.75.93-1.11,1.03-1.14,1.94-2.37,2.56-3.79.15-.34.25-.69.39-1.04.21-.54.57-.93,1.15-1.07,1.08-.25,2.16-.51,3.24-.76.07-.02.16-.02.24,0,.65.19,1.29.39,1.94.57.78.22,1.4.7,2.06,1.13-.11.6-.44.99-.82,1.35-.88.83-1.74,1.68-2.63,2.49-.81.74-1.41,1.63-1.96,2.56-.39.66-.71,1.37-1.08,2.05-.79,1.43-1.83,2.69-3.2,3.56-1.51.97-3.12,1.78-4.89,2.16-1.29.28-2.45.88-3.66,1.37-.06.02-.11.04-.21,0,.42-.33.88-.63,1.26-1Zm-2.08,1.41c-.6.46-1.25.83-1.96,1.13.24-.33.49-.66.72-1,.12-.17.23-.35.31-.55.47-1.16,1.01-2.3,1.33-3.52.27-1.02.67-2.02,1.07-3.01.34-.85.71-1.7,1.15-2.5.54-.99,1.15-1.96,2.01-2.7.6-.51,1.27-.93,1.95-1.34,1.07-.64,2.1-1.32,3.05-2.13.28-.24.6-.42.97-.69-.26.66-.47,1.19-.68,1.73-.51,1.32-1.4,2.4-2.33,3.41-1.24,1.35-2.1,2.89-2.65,4.62-.17.54-.33,1.08-.47,1.62-.23.88-.71,1.61-1.33,2.27-.62.66-1.3,1.25-2.03,1.78-.38.27-.73.58-1.1.87Zm13.35-30.69c-.07-1.28-.5-2.43-1.38-3.38-.56-.6-1.12-1.2-1.68-1.78.4.16.86.31,1.29.52.96.46,1.93.91,2.84,1.45.56.33,1.06.79,1.53,1.25.51.49.97,1.04,1.41,1.59.84,1.07,1.54,2.23,2.16,3.43.03.06.04.12.08.18.23.34.48,1.24.48,2.47,0,1.21-.32,1.32-.45,2.56-.03.33-.22,1.51.21,2.83.41,1.25.84,2.51,1.26,3.76.09.28.19.55.08.9-.49-.24-.85-.55-1.19-.9-.3-.31-.63-.59-.98-.84-.93-.69-2.04-.99-2.73-1.17-.41-.11-.95-.22-1.35-.64-.24-.25-.38-.56-.38-.56-.08-.21-.14-.43-.18-.65-.09-.5-.3-.95-.59-1.37-.28-.4-.47-.85-.55-1.33-.12-.75-.29-1.5-.31-2.25-.01-.82.1-1.64.22-2.45.17-1.2.29-2.4.22-3.61Zm-1.08,24.35c.36-.61.75-1.21,1.05-1.85.46-.96,1.06-1.84,1.65-2.73.35-.53.82-.94,1.3-1.35,1.01-.86,1.97-1.76,2.83-2.77.08-.1.18-.19.27-.27.08-.07.17-.14.23-.19.56.43,1.08.87,1.63,1.25.45.31.95.54,1.42.83.32.2.63.43,1.02.71-.65.31-1.19.63-1.78.84-2.09.75-2.17.99-2.72,1.26-3.14,1.55-6.72,4.5-6.89,4.66-.03.02-.14.13-.33.21-.05.02-.1.03-.15.05.16-.21.34-.4.47-.63Zm9.41-8.17c-.12-.1-.18-.14-.2-.17-.04-.07-.05-.15-.03-.25.02-.15,0-.33-.04-.47-.25-.75-.51-1.5-.78-2.24h0s0,0,0,0c-.49-1.28-.66-2.01-.66-2.01-.08-.33-.11-.5-.15-.76-.02-.17-.12-.98.07-2.14.08-.5.13-.51.23-1.14.08-.5.13-.92.15-1.2.13,1.57.57,2.64.92,3.29.26.49.64,1.08.83,1.37.37.56.67.96,1.21,1.74.46.67.82,1.38,1.07,2.16.31.98.63,1.96.93,2.95.05.16.15.34-.02.49-.11.1-.3.11-.63.03-.41-.1-.69-.25-.71-.26,0,0-.99-.53-1.97-1.21-.06-.04-.12-.09-.12-.09-.03-.02-.07-.05-.11-.08Zm3.19-.62c-.39-1.61-.84-2.33-1.32-3.25-.14-.26-.32-.59-.55-1.01-.17-.29-.31-.54-.43-.75-.31-.52-.53-.88-.59-.97-.51-.84-.81-1.83-.96-2.29-.37-1.2-.19-1.25-.65-2.85-.05-.18-.32-1.12-.29-1.13.02,0,.09.21.3.51.02.04.04.06.05.07.45.67.85,1.37,1.35,2,.41.51.92.95,1.4,1.4.95.89,1.87,1.82,2.62,2.9.57.82.94,1.71.97,2.74,0,.29.14.59.24.88.06.17.13.34.23.48.34.44.24.85-.02,1.29-.33.55-.61,1.13-1.19,1.49-.17.11-.29.29-.48.5-.33-.69-.52-1.35-.69-2.02Zm-16.8-21.34c.63,0,1.16.27,1.65.6,1.19.8,2.18,1.81,2.91,3.06.34.59.49,1.23.53,1.89.06,1.06.06,2.12-.12,3.18-.2,1.24-.36,2.5-.24,3.75.08.86.17,1.74.55,2.53.11.23.27.44.38.67.19.44.35.89.52,1.34.02.05,0,.12-.01.28-.26-.26-.5-.43-.66-.65-.76-1.06-1.57-2.09-2.14-3.27-.56-1.16-.92-2.36-1.07-3.64-.15-1.27-.2-2.54-.22-3.81-.02-.95-.29-1.84-.69-2.69-.53-1.12-1.22-2.12-2.12-2.97-.08-.08-.15-.16-.23-.25,0,0,0-.03-.01-.08.34.02.66.04.98.04Zm.9,3.17c.32.71.68,1.39.75,2.18.04.5.03,1,.05,1.5.06,1.58.11,3.16.54,4.7.44,1.61,1.2,3.06,2.23,4.36.21.26.36.58.58.83.39.45.82.86,1.24,1.29.11.11.22.22.41.41-.27.03-.42.02-.57.06-.44.1-.87.26-1.31.31-1.35.16-2.39.92-3.39,1.74-1.04.85-2.16,1.58-3.34,2.21-1.08.57-1.95,1.36-2.67,2.33-1.02,1.37-1.81,2.85-2.42,4.44-.54,1.43-.97,2.9-1.47,4.35-.56,1.61-1.37,3.08-2.63,4.28-.69.66-.77.79-1.57,1.71-1.23,1.39-2.08,2.63-2.62,3.46-.01-.23-.02-.36-.02-.48,0-.15,0-.29,0-.44.05-1.09.08-2.19.17-3.28.07-.95.22-1.89.32-2.83.1-.9.17-1.8.27-2.69.16-1.49.33-2.98.5-4.47.01-.11.06-.21.1-.33.1.03.18.04.26.06.79.22,1.58.45,2.37.66.4.1.69.31.92.65.3.46.63.9.96,1.33.12.16.28.29.41.43.29-.08.4-.25.4-.48,0-.29,0-.58-.03-.87-.06-.63-.14-1.25.02-1.87.19-.75.56-1.28,1.34-1.56.79-.29,1.2-.75,1.19-1.63,0-.19.02-.38.03-.68.27.27.48.47.69.67.43-.16.42-.19.38-.58-.06-.61-.06-1.22-.12-1.83-.05-.48-.12-.96-.21-1.43-.11-.55-.26-1.09-.37-1.64-.05-.29-.23-.45-.46-.59-.29-.17-.58-.33-.95-.53.24-.2.42-.39.64-.5.75-.41,1.37-.98,1.93-1.6.43-.48.66-1.1.85-1.72.12-.4.17-.8.16-1.23,0-.53.16-1.04.27-1.56.02-.11.06-.28-.03-.37-.13-.13-.49-.03-.71.14-.11.08-.17.18-.21.24.18-.42.17-.58.1-.63-.13-.11-.49.1-.52.05-.02-.03.09-.09.19-.24.09-.14.14-.29.13-.44,0-.07,0-.17-.07-.25-.15-.21-.58-.13-.78-.09-.57.1-1,.4-1.13.49-.17.12-.27.21-.5.33-.15.08-.33.15-.54.21.15-.24.26-.41.37-.57.22-.32.44-.64.65-.96.04-.07.08-.14.09-.22.04-.25-.11-.37-.34-.27-.17.08-.35.17-.49.31-.3.29-.59.59-.84.93-.32.43-.77.65-1.2.91-.03-.02-.06-.05-.09-.07.14-.26.3-.51.42-.78.51-1.06,1.05-2.1,1.5-3.18.29-.71.41-1.49.66-2.22.24-.7.55-1.37.84-2.05.1-.22.27-.36.54-.31.03,0,.07,0,.1,0,.88.28,1.44-.27,1.98-.8.4-.39.49-.93.53-1.46.39-.24.77-.48,1.18-.73.08.05.19.09.27.16.83.8,1.6,1.64,2.08,2.71Zm-14.68,22.01c.02.08.04.15.07.25.15.46.35.81.51,1.04-.26-.25-.82-.84-1.07-1.78-.36-1.38.21-2.5.35-2.77,0,.51.04.94-.01,1.36-.01.09,0,.07-.02.13-.02.16-.08.82.17,1.76Zm.46.67c-.34-.69-.51-1.44-.41-2.25.09-.7.05-1.41.06-2.12,0-.06-.01-.13-.01-.19,0-.12-.02-.46.05-.63.15-.38.93-.41.97-.41-.03.05-.06.13-.06.23,0,.16.08.27.11.32.22.32.49.71.59,1.05.05.17.05.29.06.55.01.66.02,1.3.1,1.78.1.64.32,1.11.66,1.81.14.3.28.58.52.93.36.52.48.52.74.94.32.53.44,1.04.49,1.25.09.39.04.48.14,1,.06.31.14.61.25,1.04-.45-.42-.72-.86-1.02-1.27-.21-.29-.44-.58-.8-.67-.46-.13-.74-.46-.96-.83-.52-.83-1.04-1.67-1.46-2.55Zm9.28-11.7c.05,1.07-.38,1.95-1.11,2.73-.62.66-1.43,1.03-2.12,1.58-.13.1-.26.11-.4,0-.2-.15-.4-.31-.64-.49.24-.17.41-.32.6-.42.98-.49,1.6-1.31,2.14-2.22.43-.72.89-1.41,1.35-2.11.09-.13.21-.24.32-.37.03.05.06.08.05.1-.19.38-.21.77-.2,1.19Zm-.2-1.19c-.2.31-.42.6-.62.92-.39.61-.74,1.24-1.15,1.83-.45.65-.96,1.25-1.7,1.6-.16.07-.31.18-.45.28-.45.33-.86.26-1.35-.14.45-.39.82-.8,1.27-1.09.78-.5,1.4-1.44,2.07-2.12.42-.42,1.06-.98,1.98-1.52-.03.14-.02.2-.05.24Zm-.85.05c-.07.06-.14.11-.19.14-1.05.99-1.42,1.4-1.54,1.58-.02.03-.11.16-.26.33-.38.44-.38.34-1.16,1.01-.44.37-.9.73-1.32,1.12-.2.18-.38.28-.67.17.03-.07.05-.14.1-.2.62-.8,1.27-1.58,1.86-2.4.46-.64,1.1-1.08,1.7-1.56.51-.41.71-.54.85-.62.18-.11,1.05-.63,1.19-.47.1.12-.19.61-.54.91Zm.25-1.81c-.39.2-.53.62-.81.92-.23.25-.48.48-.76.67-.93.63-1.74,1.36-2.37,2.31-.46.68-1.05,1.27-1.5,1.95-.35.53-.89.61-1.43.81.15-.71.33-1.3.49-1.74.37-1.01.71-1.52.8-1.66.17-.25.33-.49.61-.74.2-.18.2-.15.78-.57.22-.16.45-.31.66-.49.24-.21.46-.36.83-.39.47-.03.95-.19,1.31-.56.12-.12.27-.23.41-.33.29-.22.58-.47.98-.23,0,0,0,.05,0,.06Zm-3.03.65c-.41.34-.65.58-1.07.87-.22.15-.99.68-1.55,1.42-.58.77-.8,1.61-.88,1.87-.19.6-.37,1.2-.57,1.79-.1.29-.25.56-.65.66-.1-.56-.13-1.11-.04-1.66.13-.86.42-1.68.9-2.42.14-.21.31-.41.5-.58.54-.46,1.1-.88,1.74-1.2.8-.41,1.62-.81,2.1-1.64-.07.35-.19.67-.46.9Zm-4.66,7.15c.35-.33.7-.49,1.29-.77.26-.12.4-.17.53-.22.39-.15.79-.19,1.17,0,.51.26,1.12.34,1.53.78.42.45.95.75,1.51.99.24.11.37.27.41.54.1.57.23,1.13.35,1.75-.14-.09-.27-.14-.36-.23-.6-.58-1.17-1.18-1.78-1.74-.34-.31-.72-.59-1.12-.81-.41-.22-.86-.23-1.3-.02-.63.3-1,.3-1.32.27-.32-.03-.36-.12-.66-.11-.34.01-.61.14-.79.25.19-.33.39-.55.53-.69Zm.72,3.54c.2.41.3.75.35.99.05.23.05.32.12.66.06.31.13.67.23.97.23.68.52.75.88,1.5.17.35.26.66.31.86-.11-.14-.25-.26-.34-.41-.25-.41-.46-.84-.72-1.25-.52-.84-.85-1.73-.84-2.73,0-.19,0-.38,0-.59Zm1.73,3.9c-.58-.75-.82-1.15-.93-1.52-.05-.18-.03-.2-.11-.64-.1-.56-.21-1.02-.28-1.31.38.45.73.62.99.69.21.05.33.04.57.13.33.12.54.34.71.52.16.17.79.84.83,1.85.03.66-.2,1.22-.28,1.35-.17.29-.28.61-.42.92-.04.1-.09.2-.13.3-.04,0-.08,0-.12,0-.06-.21-.12-.43-.17-.64-.13-.58-.29-1.13-.68-1.63Zm-.06-3.05c-.18-.06-.38-.09-.55-.17-.18-.08-.34-.21-.49-.37-.49-.52-.3-.8-.75-1.4-.27-.36-.53-.58-.57-.98,0-.04.01-.09.02-.16.07.02.14.02.18.05.7.58,1.51.9,2.41,1.04.26.04.54.15.76.29.62.4,1.25.8,1.68,1.43.19.28.44.52.67.76.27.28.37.58.3.97-.07.36-.07.74-.16,1.09-.14.52-.58.78-1.17.73-.05-.38-.05-.75-.16-1.08-.35-1.09-1.06-1.86-2.17-2.22Zm-2.04-3.44c.05-.06.14-.14.27-.19.11-.05.21-.06.29-.06.53-.04.63.03.89-.04.03,0,.14-.05.36-.13.38-.15.37-.15.45-.17.35-.1.68,0,.76.03.16.05.32.18.65.43.23.18.24.2.57.46.33.26.34.25.47.37.3.27.55.59.52.62-.03.03-.46-.42-1.24-.94-.67-.45-.99-.53-1.18-.57-.4-.08-.79-.03-.92-.02-.27.03-.4.07-.62.12-.29.06-.72.12-1.27.1Zm5.59,3.42c-.34-.41-.66-.84-1.04-1.2-.65-.61-1.36-1.12-2.27-1.29-.04,0-.46-.14-1.01-.31-.8-.24-1.02-.3-1.02-.37,0-.11.54-.16,1.35-.23.58-.05.87-.08,1.13-.03.1.02.46.01,1.17.51.71.49,1.38,1.04,2.06,1.58.52.41.74.95.67,1.62-.03.25-.03.5-.05.76-.04.01-.08.03-.12.04-.29-.36-.58-.72-.88-1.07Zm-.31-20.85c-.07,0-.14,0-.14,0-.07-.02-.15-.05-.25-.07.64-.24,1.11-.55,1.42-.78.45-.34.74-.67.82-.76.39-.45.62-.89.76-1.2-.07.21-.18.49-.36.8-.08.12-.19.3-.71.86,0,0-1.07,1.15-1.54,1.16Zm2.99-4.37c-.09.09-.26.23-.37.48-.08.19-.08.36-.09.41-.11,1.21-.86,2.01-1.83,2.63-.23.15-.48.24-.73.36-.52.24-.95.06-1.31-.31-.37-.39-.58-.82-.45-1.4.21-.94.34-1.08,1.3-1.25,1.91-.35,2.14-.39,2.32-.46.64-.28,1.03-.68,1.1-.76.41-.44.57-.86.6-.85.04.02-.08.72-.55,1.17Zm-2.89,5.17c-.07.13-.14.28-.22.41-.48.75-.84,1.56-1.12,2.4-.5,1.52-.51,1.69-1.2,3.52-.03.08-.68,1.79-.77,1.76-.09-.03.6-1.62.87-3.98.15-1.27.21-3.1.22-3.22.04-.61.08-1.22.12-1.83,0-.12.02-.25.04-.43.71.48,1.36.92,2.05,1.37Zm-5.83,4.07s-.21.41-.58,1.16c-.6,1.24-.49,1.43-.83,1.95-.74,1.14-2.05,1.45-2.05,1.45,0,0,.94-.33,1.63-1.24.31-.41.51-.87.55-.97.25-.59.18-.74.4-1.23.31-.68.81-1.16.86-1.12Zm.21.17c.29.51.47.95.56,1.41.25,1.17-.09,2.24-.66,3.24-.28.51-.65.96-1.14,1.3-.29.19-.57.28-.91.19-.66-.18-1.26-.05-1.82.37-.53.39-1.14.59-1.79.66-.89.09-1.3.2-1.49.18-.31-.03-.55-.1-.72-.16.29-.3.75-.74,1.39-1.16.63-.42,1.25-.69,2.46-1.2,1.35-.57,1.78-.68,2.26-1.22.31-.35.52-.71.63-.97.27-.62.51-1.25.78-1.87.1-.23.25-.43.43-.74Zm-.34-2.24s.06.03.09.05c-.19.45-.19.93-.24,1.4-.04.4-.35.78-.57,1.15-.15.25-.27.49-.37.76-.24.66-.33,1.37-.76,1.97-.28.39-.6.72-1.02.94-.5.26-1.01.5-1.52.74-1.05.5-2.05,1.06-2.93,1.83-.02.02-.06.02-.14.04.12-.44.4-.75.63-1.08.41-.6.83-1.19,1.26-1.77.27-.36.57-.69.85-1.04.71-.86,1.5-1.63,2.38-2.32.27-.21.48-.52.67-.82.39-.62.9-1.14,1.4-1.66.07-.08.17-.14.25-.2Zm-.78.33c-.2.26-.37.47-.53.69-.21.29-.39.59-.61.87-.18.23-.35.46-.57.65-.98.82-1.46,1.4-2.06,2.02-.19.2-.7.85-1.71,2.13-.37.47-.66.88-1.04,1.44-.21.32-.38.66-.6,1.06-.04-.13-.09-.22-.1-.32-.03-.67.08-1.31.38-1.92.3-.61.36-.84.51-1.2.72-1.7.59-2.11,1.21-3,.06-.09.36-.53.87-.99.31-.28.51-.47.85-.66.34-.19.61-.26,1.03-.38.5-.14.9-.2,1.46-.28.38-.05.69-.09.92-.11Zm-1.5-.1s-.47.21-.67.27c-.83.29-.82.22-1.15.36-.42.18-.71.44-1.29.96-.23.21-.37.35-.47.55-.09.16-.14.31-.15.31-.02,0,0-.21.1-.41,0,0,.15-.31.47-.57,0,0,.03-.03.07-.06.07-.07.14-.14.14-.14.14-.16.42-.5.69-.76.2-.19.31-.27.46-.31.24-.06.31.05.64.03.22-.01.23-.07.68-.16.1-.02.47-.1.47-.06Zm-6.19,7.33c.06-.26.03-.54.02-.81,0-.66-.07-1.3.1-1.96.19-.74.41-1.48.49-2.26.11-1.11.76-1.96,1.56-2.7.21-.19.47-.35.71-.5.44-.27.92-.41,1.43-.28.25.06.53.18.71.36.26.26.47.56.86.66-.38.14-.74.26-1.12.17-.3-.07-.56.02-.76.22-.48.49-.95,1.01-1.41,1.52-.06.07-.09.2-.19.44-.36.84-.39,1.1-.67,1.85-.1.28-.36.85-.84,2-.07.18-.13.37-.22.53-.3.53-.46,1.1-.43,1.71,0,.07,0,.15-.02.33-.23-.48-.33-.86-.23-1.29Zm-9.98-4.68c1.64-.51,3.23-.32,4.83.26,1.25.45,2.06.75,2.81,1.15,1.15.61,1.39.93,1.52,1.17.31.57.46,1.49.35,2.06-.02.09-.08.36-.04.72.02.15.06.27.1.48.17.81.49,1.08.58,1.15.2.15.39.23.54.25.58.08,1.16.06,1.72-.09.05-.01.09-.02.14-.03.65-.1.71-.02.95.58.35.9.4,1.81.33,2.75-.06.82-.03,1.64-.03,2.47,0,.07,0,.15-.08.26-.28-.38-.56-.77-.85-1.14-.5-.63-1.01-1.25-1.51-1.87-.23-.28-.48-.56-.72-.84-.08-.1-.17-.2-.26-.29-.65-.65-1.96-1.89-2.75-2.72-.98-1.02-.8-1.15-2.15-2.65-.2-.22-.72-.81-1.53-1.4-.29-.21-.6-.38-.89-.58-.55-.39-1.21-.43-1.83-.58-.69-.17-1.39-.27-2.09-.41-.09-.02-.18-.06-.33-.11.38-.31.77-.46,1.18-.58Zm-13.9,5.52c1.01-1.06,2.14-1.96,3.45-2.63.74-.37,1.54-.56,2.36-.7,1.06-.17,2.13-.35,3.19-.53.27-.04.54-.09.82-.1.62-.02,1.22-.16,1.76-.47.5-.28,1.01-.37,1.58-.24.96.22,1.93.38,2.89.6.78.17,1.38.68,2.02,1.11.43.29.86.84,1.73,1.87,1.29,1.52,1.37,1.76,1.94,2.28.13.12.51.5,1.02,1.03.13.13.24.28.38.45-.1.01-.14.03-.16.02-1.31-.82-2.78-1.17-4.26-1.52-.85-.2-1.7-.33-2.58-.34-.19,0-.43.04-2.41.45-1.22.25-1.14.24-1.48.31-1.74.34-3.24.61-4.93.25-.47-.1-.94-.24-1.38-.44-1.06-.49-2.16-.86-3.33-.96-.72-.06-1.45-.08-2.17-.12-.19-.01-.37-.02-.63-.03.09-.15.13-.24.19-.3Zm-3.11,3.34c.41-.41.84-.8,1.25-1.21.43-.43.85-.88,1.26-1.33.16-.18.3-.33.56-.33,1.27.02,2.55.02,3.8.32.61.15,1.22.34,1.78.61,1.33.64,2.73.84,4.19.76.61-.04,1.21-.15,1.82-.23.15-.02.3-.04.45-.07,0,.02,0,.05.01.07-.55.25-1.1.5-1.66.74-.67.28-1.33.57-2.01.82-1.07.38-2.18.59-3.31.67-1.54.11-3.09.19-4.63.27-.77.04-1.55.04-2.31.12-.51.05-1,.22-1.53.35-.12-.58-.11-1.12.35-1.56Zm1.98,4.24c-.54-.27-.96-.67-1.42-1.06-.4-.35-.71-.78-.94-1.37.65-.22,1.24-.43,1.87-.47.71-.04,1.42-.06,2.13-.09.44-.02.87-.04,1.31-.06,0,0,.25-.01.48-.02,1.16-.04,1.98-.02,2.88-.05.71-.03,1.66-.17,2.88-.37.49-.08.96-.26,1.43-.43.48-.17.91-.36,1.61-.66.73-.32,1.03-.46,1.04-.43.02.04-.56.36-1.51,1.03-.74.52-1,.76-1.14.89-.29.27-.62.55-.79.9-.74,1.55-2.08,2.12-3.64,2.38-.7.12-1.41.19-2.11.27-.19.02-.39.01-.58.01-.53,0-.94,0-1.06,0-.83-.02-1.62-.05-2.43-.46Zm11.75,2.66c-1.54.36-3.08.19-4.61-.08-.47-.08-.91-.33-1.35-.51-.6-.24-1.2-.48-1.79-.73-.5-.21-1-.43-1.55-.67.2-.12.41-.11.6-.09.76.09,1.51-.03,2.26-.12.65-.08,1.3-.23,1.94-.37.61-.13,1.17-.42,1.63-.81.36-.3.67-.71.89-1.13.33-.62.8-1.09,1.35-1.49.96-.68,1.93-1.34,2.92-1.98.28-.18.62-.28.94-.38.49-.15.99-.28,1.49-.41.64-.16,1.26-.14,1.9.06.75.23,1.52.43,2.31.51.46.05.92.2,1.34.4.64.3,1.24.68,1.86,1.03.09.05.15.15.25.25-.33,0-.61.01-.89,0-.82-.05-1.6.05-2.37.36-.6.24-1.22.41-1.82.64-.91.35-1.6,1.02-2.34,1.61-.4.32-.79.66-1.18,1-.19.16-.18.17-.39.36-.98.9-1.34,1.11-2.02,1.79-.11.11-.29.3-.51.54-.29.07-.57.16-.86.22Zm15.13-3.05c-1.82-1.09-3.76-1.15-5.74-.6-.57.16-1.11.45-1.63.74-1.15.63-2.31,1.2-3.58,1.56,0,0-.44.2-2.32.83-.39.13-.59.17-.62.13-.11-.18,1.22-1.11,3.66-3.26.4-.36.39-.35.52-.46,1.06-.88,2.28-1.49,3.62-1.86.8-.22,1.58-.38,2.42-.38.9,0,1.61.34,2.19.96.73.79,1.39,1.64,2.08,2.47.06.07.09.16.18.33-.33-.19-.56-.32-.79-.45Zm3.04,2.97c-.45-.95-.95-1.56-1.76-2.52-2.21-2.61-3.08-3.41-3.39-3.69-.74-.67-1.1-.95-1.44-1.12-.82-.41-1.64-.86-2.55-.99-.96-.14-1.89-.4-2.83-.6-.4-.09-.84-.08-1.24,0-.47.1-.89.2-1.29.32-2.1.62-3.13,1.19-3.13,1.19-.7.29-1.22.51-1.61.66-.41.17-.73.28-.81.31-1.64.6-3.97.62-3.97.6,0-.01.79-.06,2.26-.29,0,0,1.19-.19,2.09-.64.13-.07.09-.07.28-.15.64-.26,1.27-.55,1.92-.8,1.12-.44,2.21-.96,3.4-1.24,1.17-.27,2.33-.25,3.49.07.76.21,1.53.38,2.29.6.77.22,2.01.69,3.21,1.64.3.24.15.16,1.99,2.23,1.28,1.45,1.78,1.97,2.5,2.96.4.55.7,1.01.9,1.32.04.39.08.79.11,1.18-.08-.25-.22-.61-.42-1.03Zm-.64-3.42c.09-.99.07-1.99.06-2.99,0-.57-.2-1.1-.49-1.6-.1-.18-.19-.37-.28-.53.04-.06.05-.1.07-.12.55-.29,1.1-.59,1.67-.86.38-.18.79-.28,1.22-.17.58.14,1.09-.02,1.5-.46.36-.39.77-.76,1.02-1.22.64-1.18,1.11-2.42.72-3.79-.17-.6-.45-1.17-.74-1.72-.23-.45-.33-.87-.08-1.33.12-.22.28-.38.57-.37.25,0,.44.09.52.34.07.21.16.43.18.65.15,1.63.15,3.25-.17,4.86-.14.69-.27,1.39-.42,2.08-.04.18-.12.37-.22.53-.48.75-.82,1.57-1.11,2.41-.2.59-.25,1.2-.14,1.82.08.44-.02.82-.24,1.2-.1.17-.13.39-.22.57-.06.14-.13.31-.25.38-.48.29-.69.73-.72,1.25-.04.89-.54,1.48-1.23,1.99-.83-.8-1.34-1.7-1.23-2.91Zm1.46,4.18c.02-.8.16-1.03.9-1.54.03.35.07.67.09,1,.06.87.35,1.61.99,2.23.47.44.82.98,1.11,1.56.17.34.41.64.68,1.07-.49-.12-.88-.19-1.27-.31-.8-.24-1.31-.85-1.76-1.51-.51-.75-.77-1.59-.75-2.5Zm-20.61,13.02c.39-1.16.76-2.33,1.22-3.46.41-1,.92-1.98,1.71-2.73.52-.49,1.16-.87,1.8-1.21,1.29-.68,1.85-.7,3.69-1.31,2.73-.91,3.56-1.53,5.8-1.78.25-.03.46-.04.6-.05-.33.23-.56.39-.79.56-.96.69-1.91,1.38-2.87,2.06-.55.39-1.12.76-1.7,1.12-.83.51-1.44,1.24-2.05,1.96-.7.83-1.38,1.67-2.32,2.25-.07.04-.02.02-1.03.63-1.89,1.16-2.82,1.75-3.33,2.41-.03.03-.3.31-.56.76-.12.22-.27.43-.44.63-.08-.64.07-1.24.27-1.82Zm-2.2,11.62c-.24-1.58-.01-3.11.51-4.62.39-1.13.76-2.26,1.11-3.4.11-.35.13-.73.22-1.09.04-.17.13-.32.22-.47.15-.23.34-.43.47-.67.26-.49.43-.65.61-.88.38-.53.83-.8,1.47-1.2,1.46-.91,2.17-1.39,2.56-1.64.79-.49,1.45-1.11,2.05-1.82.44-.52.89-1.02,1.35-1.52.75-.81,1.71-1.35,2.7-1.98-.08.16-.21.4-.38.7-.38.64-.71,1.07-.83,1.24-.38.51-.63,1.13-1.15,2.37-.66,1.58-.78,2.34-.84,2.76-.02.14-.02.11-.03.27-.08,1.14-.54,2.18-.91,3.24-.28.77-.52,1.56-.91,2.29-.27.5-.6.93-1.03,1.26-.75.56-1.32,1.29-1.84,2.04-.64.9-1.17,1.89-1.77,2.82-.37.58-.77,1.15-1.2,1.69-.55.7-1.11,1.38-1.49,2.2-.03.07-.09.12-.18.25-.06-.34-.11-.6-.16-.86-.19-1-.41-1.99-.56-2.99Zm.33,10.78c0,.06-.04.12-.09.25-.08-.15-.17-.24-.16-.32.02-.48,0-.97.11-1.44.25-1.16.34-2.32.42-3.5.03-.43.06-.87.1-1.3.01-.11.05-.22.1-.32.48-1.03,1.11-1.96,1.85-2.82.39-.45.72-.95,1.02-1.46.56-.94,1.03-1.94,1.72-2.8.6-.75,1.16-1.54,1.95-2.13.77-.57,1.13-1.44,1.46-2.29.27-.67.5-1.36.75-2.04.04-.1.09-.2.19-.3,0,.21.02.42,0,.62-.14,1.15-.22,2.31-.45,3.44-.27,1.33-.72,3.33-1.87,5.67-.29.6-.55,1.06-.7,1.32-.24.42-.57,1.25-2.41,3.56-.72.91-1.36,1.88-2.07,2.79-.44.57-.93,1.11-1.33,1.71-.28.42-.55.83-.58,1.36Zm4.14-.97c-.3.11-.6.23-.9.34-.29.11-.58.21-.86.31-.42.15-.85.31-1.27.47-.28.1-.55.27-.91.15-.04-.43.06-.84.29-1.18.4-.58.84-1.14,1.26-1.71.43-.58.87-1.16,1.3-1.74.6-.81.6-.82.83-1.13.94-1.25,1.33-1.53,2.43-2.96.23-.3.34-.46.52-.7.47-.62.83-1.3,1.15-2,.43-.92.77-1.87,1.06-2.85.32-1.09.47-2.2.6-3.32.04-.4.12-.79.19-1.18.03,0,.07,0,.1,0,0,.19,0,.48.02.83.05.98.2,1.66.29,2.21.09.52.19,1.5.26,2.49.13,1.91-.57,3.42-1.23,4.93-.06.13-.72,1.34-2.03,3.76-.08.15-.27.46-.53.88-.1.16-.66,1.02-1.55,1.75-.25.21-.55.5-1.03.67Zm10.33-12.06c-.12.65-.17,1.31-.32,1.95-.35,1.47-.93,2.85-1.74,4.12-.2.32-.5.59-.79.84-.64.56-1.29,1.13-1.97,1.63-.52.38-1.13.62-1.66.98-.78.54-1.53,1.13-2.29,1.7-.07.05-.15.1-.27.1.3-.33.6-.65.9-.98.08-.09.21-.27.35-.45.12-.16.19-.26.27-.36.12-.17.17-.28.39-.64.16-.27.37-.63.7-1.24.09-.16.11-.2.13-.23,0-.01.01-.02.01-.02.1-.2,1.11-2.05,1.57-3.05.29-.62.65-1.33.81-2.32.23-1.42.14-2.56-.07-4.09-.16-1.16-.24-1.06-.34-2.01-.16-1.47-.1-2.6.03-3.57.17-1.33.39-2.64.71-3.94.44-1.76,1.26-3.3,2.52-4.61.09-.09.17-.19.26-.29.07-.08.15-.17.28-.23-.03.09-.05.19-.08.28-.64,1.82-1.12,3.67-1.17,5.61-.01.47.09.97.24,1.42.23.68.59,1.32.83,2.01.17.5.26,1.03.34,1.55.16,1.03.31,2.07.44,3.11.11.91.11,1.83-.07,2.74Zm3.02-18.83c-.96.78-1.27,1.84-1.3,3.01-.04,1.47-.14,2.93-.56,4.35-.28.94-.65,1.85-.95,2.79-.16.5-.25,1.03-.36,1.55-.03.14-.03.28-.05.41-.03,0-.06,0-.09,0-.35-.88-.7-1.76-1.07-2.63-.23-.54-.29-1.09-.27-1.66.04-1.18.27-2.34.56-3.48.21-.83.43-1.65.86-2.4.72-1.26,1.87-1.92,3.22-2.27.09-.02.19-.02.4-.04-.19.18-.29.28-.4.38Zm8.01,12.45s-1.89,2.03-2.57,4.25c-.22.7-.28,1.24-.3,1.85-.06,1.48.23,2.92.52,4.36.44,2.18.99,4.34,1.69,6.45.29.87.6,1.74.88,2.61.3.93.58,1.88.88,2.81.19.6.4,1.19.6,1.79.61,1.8,1.22,3.6,1.82,5.41.05.16.09.33.06.54-.06-.08-.13-.15-.18-.23-.45-.72-.89-1.46-1.36-2.17-.24-.36-.52-.7-.82-1.01-.62-.63-.94-1.39-1.11-2.26-.24-1.22-.55-2.42-.88-3.62-.6-2.17-1.26-4.33-1.86-6.51-.49-1.79-.71-2.68-.93-3.86-.76-4.07-.57-7.56-.22-14.17,0-.15.01-.22.02-.29.18-3.07.53-3.76.42-5.49-.06-1.01-.11-1.56-.52-2.09-.49-.62-1.26-.89-1.99-1.14-.49-.17-.93-.32-1.52-.32-.71,0-1.41.22-2.08.62-1.01.6-1.87,1.38-2.61,2.28-.49.59-1,1.18-1.44,1.82-.41.59-.75,1.24-.94,1.95-.19.74-.43,1.48-.61,2.22-.13.56-.2,1.14-.28,1.71-.14.94-.27,1.88-.41,2.82-.12.78-.24,1.56-.35,2.34-.13.86-.26,1.71-.47,2.56-.29,1.18-.82,2.27-1.27,3.38-.34.84-.93,1.49-1.48,2.18,1.43-2.46,2.15-4.52,2.53-5.89.2-.72.36-1.37.41-1.69.32-2.33.52-4.08.55-4.7.08-1.51.49-3.74,1.99-6.78.17-.28.38-.6.64-.97.12-.18,1.23-1.72,2.16-2.5.36-.3.74-.57,1.15-.83.07-.04.14-.08.2-.13.32-.2.53-.34.57-.37.23-.15.82-.45,1.43-.52.42-.05.78.06,1.5.27,1.07.31,1.63.48,2.18.96.5.44.69.86.95.79.23-.06.36-.48.44-.75.07-.22.09-.41.1-.54.06.03.1.05.14.07.47.31.47.73.39,1.25-.2,1.37-.32,2.75-.46,4.13-.06.56-.07.72-.1,1.1-.06.7-.21,2.03-.21,2.03s-.3,2.65-.37,6.62c0,.49-.01,1.09.19,1.15.24.07.58-.67,1.13-1.55.14-.23,1.33-2.12,3.16-3.73.79-.7,1.49-1.17,2.03-1.49.3-.18.78-.42,1.02-.54.32-.17.62-.31.87-.44.03-.02.07-.04.1-.06.13-.06.25-.12.38-.17,0,0,0,0,0,0h0c.55-.26,1.09-.51,1.66-.72.69-.26,1.41-.45,2.12-.65,1.82-.52,3.48-1.35,5.05-2.39.18-.12.7-.52,1.73-1.32,1.41-1.09,2.06-1.62,2.08-1.6.02.03-1.11,1.01-1.6,1.43-1.27,1.1-1.91,1.65-2.36,1.96-.91.63-1.93,1.1-2.98,1.47-1.46.51-2.92,1.02-4.38,1.54-.18.06-.7.23-1.35.53-.2.09-.91.42-1.42.78-.28.2-.49.34-.6.42-2.01,1.53-3.01,2.29-3.69,3.02Zm20.25-4.17c-.43.19-.86.37-1.28.57-1.24.58-2.54.93-3.89,1.12-1.7.24-3.38.08-5.05-.23-.39-.07-.77-.21-1.17-.28-1.25-.21-2.22-.04-3.13.12-.79.13-1.85.38-3.07.88.84-.52,1.5-.96,1.95-1.26.56-.38.76-.53,1.12-.69.7-.31,1.31-.33,1.94-.41,1.41-.17,2.82-.2,4.24,0,.71.1,1.45.1,2.17.05,1.27-.09,2.53-.29,3.8-.36.83-.04,1.67.07,2.51.12.08,0,.15.05.33.11-.21.11-.34.19-.47.25Zm12.7-8.19c-.5.97-1.02,1.93-1.81,2.71-.87.85-1.83,1.57-2.96,2.05-1.13.48-2.23,1-3.36,1.48-.37.16-.76.26-1.14.41-.73.29-1.46.6-2.18.91-.32.14-.63.22-.98.14-1.08-.24-2.17-.23-3.27-.12-1.36.14-2.73.26-4.09.34-.56.03-1.12-.06-1.68-.13-1.05-.13-2.09-.11-3.14,0-.48.04-.95.12-1.45.11.35-.13.7-.27,1.06-.39,1.69-.57,3.4-1.1,5.03-1.85.97-.44,1.87-1,2.68-1.71.39-.34.78-.68,1.18-1,.31-.24.69-.34,1.08-.37,1.38-.11,2.76-.21,4.14-.34,1.51-.14,2.91-.61,4.12-1.52,1.29-.97,2.71-1.59,4.32-1.82,1.06-.15,2.02-.64,2.97-1.11.18-.09.36-.17.61-.29-.39.89-.71,1.72-1.12,2.5Zm3.05-6.51c-.15.42-.4.81-.52,1.23-.26.88-.86,1.58-1.22,2.41-.04.09-.13.2-.22.24-.96.42-1.92.84-2.89,1.23-.3.12-.62.18-.94.22-1.29.16-2.45.66-3.52,1.37-.38.25-.75.5-1.13.75-1.11.72-2.35,1.04-3.65,1.16-.35.03-.71.07-1.06.09-1,.07-1.99.14-2.99.21-.14.01-.28.03-.55.06.51-.52.95-.92,1.29-1.22.72-.63,1.39-1.12,2.02-1.59.24-.18.35-.26.49-.36.42-.3.74-.66,2.68-1.63.3-.15.59-.34.9-.47.34-.15.69-.25,1.03-.38.27-.1.55-.19.81-.3.54-.22,1.07-.44,1.6-.68.24-.11.48-.07.71,0,.58.17,1.09,0,1.46-.4.52-.58,1.15-.96,1.8-1.34,1.13-.67,2.37-1.08,3.56-1.61.13-.06.27-.07.47-.12.06.42-.01.8-.14,1.15Zm-.03-1.46s0,.09,0,.17c-.75.28-1.51.55-2.24.86-.71.31-1.4.68-2.2,1.07.28-.53.54-.97.75-1.43.39-.85,1.2-1.33,1.8-1.99.07-.07.25-.12.34-.08.66.31,1.14.82,1.55,1.41Zm-3.43-13.01c.08.23.21.44.33.64.71,1.19,1.3,2.45,1.8,3.74.68,1.76.71,3.56.15,5.36-.1.34-.26.66-.44.97-.09.16-.29.25-.42.38-.64.63-1.27,1.27-1.94,1.94-.06-.07-.19-.16-.24-.28-.21-.49-.41-.96-.44-1.52-.06-1.02-.47-1.94-1.07-2.76-.92-1.26-2.04-2.33-3.17-3.38-.39-.36-.74-.76-1.05-1.19-.58-.83-1.12-1.69-1.67-2.54-.03-.05-.06-.12-.08-.18-.57-1.39-1.45-2.57-2.37-3.74-.86-1.08-1.8-2.07-2.91-2.88-.58-.43-1.21-.79-1.86-1.11-.78-.38-1.6-.67-2.4-1.01-.04-.02-.07-.05-.1-.08.04-.03.06-.06.09-.06,1.37-.05,2.75-.06,4.07.38.67.22,1.3.56,1.93.88.98.5,1.94,1.03,2.82,1.68.54.4,1.07.84,1.61,1.23.83.6,1.76,1,2.75,1.28,1.27.36,2.54.71,3.72,1.34.4.21.72.46.88.91Zm-20.25-8.71c1.26-.32,2.45-.94,3.79-.91.19,0,.39.02.58.03.8.03,1.61.08,2.41.07,1.29-.02,2.58-.12,3.85.19.62.15,1.23.37,1.82.63.84.36,1.69.73,2.48,1.19,1.14.67,2.22,1.44,3.04,2.51.16.22.3.46.43.7.55,1.09,1.16,2.15,1.41,3.42-.48-.23-.9-.47-1.35-.63-.93-.33-1.86-.63-2.8-.91-1.13-.33-2.15-.85-3.1-1.55-.5-.37-1-.76-1.5-1.14-1.26-.94-2.68-1.62-4.11-2.24-.59-.26-1.27-.39-1.92-.45-1.02-.09-2.06-.07-3.09-.11-.75-.03-1.48-.19-2.22-.36.01-.24.09-.39.29-.44Zm.32-4.65c-.08.65-.22,1.15-.34,1.49-.12.34-.25.61-.31,1.07-.02.2,0,.25-.04.68-.03.39-.06.64-.09.85-.08.56-.38.92-.53,1.14-.43.64-.97,1.05-1.37,1.3-.09-.36-.18-.65-.23-.94-.02-.09.04-.23.11-.29,1.04-.86.92-1.81.91-2.15,0-.29-.11-.48.02-.74.05-.1.15-.21.36-.44.16-.18.27-.29.33-.36.32-.34.37-.5.81-1.11.08-.12.21-.29.38-.5Zm-.37-.09c-.19.4-.31.74-.51,1.02-.29.4-.65.75-1.02,1.16-.1-.31-.16-.62-.29-.9-.13-.27-.32-.51-.5-.8.69-.47,1.45-.48,2.32-.49Zm-2.53.95c.27.25.39.53.46.71.3.73.17,1.39.04,2.08-.08.43-.22.72-.41,1.03-.05.08-.12.14-.23.26-.22-.42-.31-.8-.2-1.22.06-.23.12-.47.16-.71.04-.21.08-.45-.14-.57-.21-.11-.37.07-.5.21-.21.24-.42.49-.58.77-.28.46-.65.72-1.2.79-.41.05-.81.19-1.22.28-.28.06-.58.06-.86.14-.34.09-.67.21-.99.37-.55.27-.65.91-.7,1.1-.1.34-.1.63-.08.82-.14-.15-.32-.38-.5-.67-.2-.33-.39-.63-.48-1.05-.05-.22-.1-.64.04-1.17.05-.01.11-.05.17-.04.64.06,1.28.13,1.92.19.19.02.4.03.57-.04,1.11-.39,2-1.03,2.45-2.17.16-.4.35-.8.57-1.17.12-.21.25-.3.41-.36.57-.22,1.23.38,1.28.43Zm-6.75,1.42c.47-.44.71-.65,1.03-.91.42-.32.75-.54.97-.69.3-.2.56-.36.76-.48-.41.3-.73.57-.96.78-.61.55-1.02.92-1.35,1.45-.13.22-.34.39-.47.6-.08.13-.14.25-.23.25-.11,0-.24-.16-.26-.31-.03-.21.14-.38.5-.71Zm5.93-3.86s.06.05.08.07c-.09.16-.16.35-.28.49-.76.9-1.31,1.91-1.75,2.99-.36.86-1,1.4-1.85,1.73-.09.03-.19.08-.27.07-.59-.06-1.18-.13-1.77-.19-.04,0-.09-.04-.17-.07.07-.1.12-.18.18-.27.3-.4.6-.8.89-1.2.52-.72,1.26-1.18,1.95-1.71.34-.26.71-.5,1.03-.79.57-.51,1.23-.86,1.95-1.12Zm-4.88,1.02c.41-.33.84-.61,1.36-.69.77-.13,1.56-.18,2.46-.16-.99.65-1.79,1.38-2.77,1.84-1.18.56-2.11,1.41-2.85,2.51-.32-.11-.43-.3-.32-.58.11-.3.17-.64.35-.89.54-.72,1.06-1.46,1.78-2.03Zm-1.33-.42c-.02.12-.04.23-.05.35-.04.28-.05.57-.13.84-.07.24-.23.45-.42.66-.42-2.96-.83-5.93-1.25-8.89,0,0,0,0,0,0,.19.48.21.82.32,1.45.02.09.03.18.07.37.11.55.16.68.27,1.25.11.55.07.44.27,1.53.19,1.02.18,1.19.33,1.6.12.34.2.58.33.58.19,0,.29-.53.65-1.42.17-.43.31-.72.55-1.2.39-.79,1.1-1.99,1.93-2.86.11-.11.2-.18.25-.23,1.21-1.08,2.66-1.69,3.44-1.93.79-.42,1.59-.8,2.46-1.01.7-.17,1.42-.31,2.14-.36,1.82-.13,3.64-.22,5.46-.3,1.23-.06.99.04,1.5.02,3.02-.13,5.08-1.23,5.09-1.19.01.03-1.28.7-3.13,1.15-.42.1-1.96.48-3.5.47-.18,0-1.23,0-2.27,0-.64,0-1.29.03-1.93.04-.21,0-.42,0-.62.01-.14,0-.29,0-.43.03-1.01.24-2.15.54-2.15.54-2.07.82-2.2.53-3.58,1.23-.61.31-1.68.86-2.75,1.95-1.08,1.09-1.67,2.23-1.99,2.98,0,0-.71,1.38-.86,2.34Z" fill="#1d1d1b" stroke="#000" stroke-miterlimit="10" stroke-width=".25"/></svg>