<?xml version="1.0" encoding="UTF-8"?><svg id="Layer_1" xmlns="http://www.w3.org/2000/svg" viewBox="0 0 144.57 144.57"><path d="M48.56,48.52c.06-.44.09-.76.15-1.07.39-2.02.77-4.05,1.19-6.07.19-.9.43-1.8.69-2.68.94-3.14,2.33-6.06,4.21-8.75.48-.68.81-1.47,1.22-2.19,1.08-1.88,1.74-3.98,3.03-5.75.51-.7,1.03-1.41,1.92-1.68,2.15-.66,3.72-.11,4.71,2.02,1.06,2.28,1.94,4.67,2.26,7.21.07.56.27,1.11.39,1.66.16.71.31,1.41.32,2.16,0,.77.27,1.54.46,2.3.29,1.16.58,2.32.91,3.46.17.57.43,1.1.69,1.72.15-.15.25-.2.29-.29,1.18-2.42,2.16-4.93,2.83-7.53.36-1.39.49-2.83.8-4.23.51-2.3,1.97-2.62,3.68-1.67,1.09.6,2.03,1.43,2.78,2.45.05.07.1.13.16.19,1.35,1.29,2.34,2.84,3.27,4.43.59,1,1.12,2.04,1.69,3.06.11.2.25.39.38.6.74-.49,1.42-.94,2.08-1.39,1.93-1.3,4.05-2.21,6.26-2.92.49-.16.99-.31,1.5-.4,1.38-.25,2.5.53,2.59,1.91.19,2.97.18,5.92-1.35,8.63-.24.42-.41.89-.6,1.33-.53,1.25-.43,2.55-.33,3.85,0,.08.04.16.07.23.02.04.07.07.15.14.84-.78,1.42-1.73,1.88-2.78.51-1.16,1.09-2.3,1.68-3.43.26-.51.48-.55.99-.3.53.26.89.67,1.12,1.24.62,1.56.92,3.18,1.1,4.83.18,1.72.38,3.45.46,5.18.17,3.75.14,7.49-1.02,11.12-.18.56-.37,1.11-.6,1.79.29-.07.44-.08.57-.14,1.28-.55,2.62-.9,3.99-1.12,1.07-.17,1.99.23,2.69,1.02.33.37.42.87.37,1.38-.11,1.07-.43,2.07-.96,3-1.19,2.07-2.28,4.2-3.08,6.45-1.07,3.02-2.15,6.03-3.07,9.09-.89,2.95-2.58,5.29-4.93,7.19-.6.49-.94,1.03-.98,1.85-.17,3.8-.76,7.55-1.37,11.3-.29,1.74-.42,3.51-.77,5.23-.46,2.28-.92,4.57-2.08,6.65-.6,1.08-1.32,2.09-2.25,2.87-.9.76-1.95,1.39-3.27.95-.51-.17-1.07-.18-1.6-.28-2.83-.56-5.17-2.04-7.34-3.85-2.89-2.41-5.38-5.2-7.6-8.23-.62-.85-1.14-1.78-1.73-2.65-.29-.42-.71-.77-.94-1.21-.61-1.21-1.61-1.74-2.87-2.14-1.91-.61-3.71-1.5-5.33-2.75-2.08-1.6-4.26-3.09-6.33-4.7-1.05-.81-1.98-1.77-2.93-2.7-1.18-1.16-2.36-2.32-3.46-3.56-.79-.89-1.45-1.9-2.13-2.87-.82-1.17-1.05-2.55-1.33-3.91-.09-.45-.2-.89-.27-1.24-1.12-.58-2.16-.13-3.2-.14-.35,0-.7-.05-1.05-.09-.53-.06-.94-.36-1.17-.8-.72-1.34-1.07-2.78-.5-4.24.65-1.64,1.51-3.19,2.8-4.45.78-.76,1.54-1.53,2.32-2.27.18-.17.42-.28.63-.42.04.04.08.08.11.12-.06.13-.08.3-.17.39-.39.37-.82.71-1.2,1.09-.57.56-.93,1.26-1.12,2.04-.09.37-.17.74-.29,1.1-.05.15-.18.27-.34.5-.3-.68.15-1.16.08-1.74-.33.12-.53.37-.69.62-.49.77-.96,1.56-1.43,2.34-.03.04-.05.1-.05.15,0,.94-.05,1.89.04,2.83.05.54.32,1.06.56,1.56.22.45.67.5,1.13.47.4-.03.81-.07,1.21-.08.23,0,.47.07.7.1.21.03.45.14.63.07.9-.34,1.79-.12,2.64.1,1.6.42,3.19.89,4.75,1.42.68.23,1.32.62,1.96.97,1.02.57,2.04,1.14,3.03,1.75,1.98,1.23,3.84,2.63,5.6,4.18,1.47,1.3,3.2,2.13,5.13,2.52.3.06.62.02,1.12.02-.27-.45-.43-.74-.62-1.02-.71-1.09-1.44-2.17-2.14-3.27-.35-.55-.83-.84-1.44-.95-.91-.17-1.82-.31-2.72-.48-.52-.1-1.04-.19-1.4-.72,1.44.24,2.88.47,4.41.73-.1-.27-.12-.43-.21-.56-1.28-1.76-2.67-3.42-4.34-4.82-.52-.43-1.08-.71-1.79-.65-1.54.13-3.08.28-4.62.35-.88.04-1.76-.06-2.7-.1.11-.41.38-.38.61-.39.73,0,1.46.05,2.19,0,1.3-.08,2.6-.2,3.89-.32.21-.02.41-.09.71-.15-.16-.19-.24-.32-.36-.41-1.5-1.17-3-2.32-4.65-3.27-.96-.56-1.86-.65-2.83-.13-1.75.93-3.69,1.29-5.55,1.88-.1.03-.21.04-.32.04-.04,0-.08-.06-.18-.13.53-.43,1.16-.52,1.76-.7,1.57-.47,3.16-.9,4.65-1.8-.74-.59-1.71-.41-2.39-.86.1-.38.19-.73.28-1.08.03,0,.11-.02.13,0,.63.76,1.44,1.21,2.39,1.47,1.32.36,2.5,1.02,3.67,1.72.74.44,1.5.85,2.34,1.33,0-.21.03-.32,0-.39-.49-1.05-.6-2.19-.87-3.3-.21-.86-.59-1.69-.91-2.52-.16-.43-.5-.63-.96-.59-.45.04-.9.07-1.35.11-.01.06-.03.12-.04.19.44.27.87.54,1.31.81-.02.05-.03.1-.05.15-.14,0-.28.03-.42.02-.07,0-.15-.07-.21-.12-1.53-1.15-3.04-.46-4.54.07-.3.11-.53.43-.89.73-.1-.06-.29-.16-.49-.28.79-.92,4.32-2.06,6.37-2.07,3.04,0,1.83-.54,6.66,1.13-.21-.26-.32-.42-.45-.55-2.01-1.94-4.51-2.75-7.22-3-.94-.09-1.88-.07-2.81.15-.61.15-1.27.13-1.97-.17.48-.07.85-.13,1.28-.2-.06-.3-.1-.5-.14-.72.14,0,.23-.04.28,0,.13.09.24.21.37.31.52.41.8.39,1.29-.12.98.49,2.05.34,3.1.47q-.14-.66-1.6-1.37c.11-.42.53-.13.79-.37,0-.59-.33-1.07-.74-1.5-1.29-1.35-2.62-2.66-3.89-4.04-.81-.89-1.64-1.73-2.73-2.27-1.02-.51-2.01-1.07-3.02-1.6-1.56-.81-2.96-1.8-4.08-3.17-.14-.17-.23-.38-.28-.63.76.26,1.04,1.03,1.64,1.46.59.42,1.12.95,1.73,1.34.64.4,1.33.73,2.03,1.03.65.28,1.17.83,2.05.96-.44-.63-.79-1.13-1.14-1.64-1.19-1.7-2.12-3.53-2.97-5.42-.36-.8-.92-1.53-1.44-2.25-.61-.83-1.28-1.62-1.92-2.43-.13-.17-.24-.37-.28-.61,1.05.66,1.6,1.79,2.64,2.74-.11-.71-.34-1.21-.5-1.73-.17-.54-.37-1.08-.58-1.61-.2-.51-.43-1.02-.55-1.57.48.3.74.75.91,1.25.42,1.21.82,2.42,1.25,3.62.32.89.67,1.76,1.12,2.63.41-.97.52-1.97.5-2.97-.02-.97-.17-1.94-.19-2.92.39.77.68,1.56.62,2.43-.06.94-.1,1.89-.26,2.82-.21,1.27.01,2.43.61,3.54,1.08,1.99,2.38,3.81,3.99,5.42.44.44.85.91,1.28,1.36.12.12.26.22.54.45-.06-.3-.06-.43-.11-.54-.91-2-1.1-4.13-1.2-6.28-.04-.81-.14-1.62-.2-2.43-.01-.15,0-.3.13-.5.07.14.2.28.22.43.11.94.29,1.89.29,2.83,0,2.65.75,5.09,1.97,7.4.31.58.81,1.06,1.19,1.54.49-.11.54-.36.42-.65-.09-.22-.25-.42-.35-.64-.15-.32-.39-.65-.37-.97.03-.69-.31-1.12-.81-1.49-.15-.11-.28-.25-.47-.43.2-.11.35-.19.53-.29.04-.55-.27-.95-.53-1.22,0-.56.1-1.02,0-1.44-.1-.4-.39-.75-.62-1.17.39-.1.46-.4.43-.83-.14-1.73-.24-3.46-.33-5.2-.02-.31-.13-.5-.37-.66-1.9-1.23-3.33-2.91-4.59-4.77-.94-1.39-1.97-2.73-3.3-3.8-.63-.5-1.31-.82-2.15-.85-.69-.02-1.13.3-1.47.84-.42.69-.61,1.45-.58,2.25.04,1.27.14,2.55.16,3.82.01.81-.07,1.62-.13,2.43-.31,4.4.53,8.6,2.26,12.62.36.84.89,1.62,1.42,2.37,1.23,1.75,2.54,3.45,4.19,4.85.1.09.2.19.29.29.2.23.27.47.02.72-.25.24-.5.22-.77-.02-.32-.27-.7-.49-1.01-.77-.48-.44-.94-.89-1.38-1.37-.4-.44-.76-.92-1.11-1.4-1.89-2.61-3.29-5.45-3.76-8.66-.3-2.04-.48-4.09-.64-6.14-.07-.86.08-1.73.08-2.6,0-1.9-.05-3.8-.03-5.69,0-.73.15-1.46.23-2.18.13-1.11,1.66-2.05,2.8-1.74,1.11.3,2,.93,2.78,1.74,1.26,1.32,2.3,2.81,3.32,4.31.79,1.16,1.87,2.03,2.91,2.94.18.16.43.23.77.4ZM63.62,60.51c.06-.03.12-.05.17-.08-.1-.27-.2-.54-.29-.81-.83-2.36-1.72-4.7-2.21-7.16-.24-1.21-.74-2.39-.51-3.66.02-.12-.04-.27-.08-.4-.17-.51-.35-1.03-.52-1.54-.05-.15-.15-.36-.09-.46.29-.45.07-.9.04-1.35-.13-1.67-.28-3.35-.38-5.02-.18-3.24.13-6.51-.56-9.73-.24-1.11-.29-2.26-.4-3.39-.02-.21.05-.44.07-.65.06,0,.12,0,.18,0,.05.26.1.52.14.78.12.97.22,1.94.34,2.91.03.21.01.48.35.63.07-.55.1-1.04.2-1.5.38-1.69.79-3.38,1.21-5.06.03-.13.2-.22.3-.34-.3,1.87-.76,3.65-1.08,5.46-.32,1.8-.54,3.63-.28,5.49.82-2.36,2.03-4.51,3.16-6.72.06.19.07.37.01.52-.22.55-.44,1.11-.71,1.64-.81,1.6-1.5,3.24-2.08,4.94-.38,1.13-.56,2.26-.42,3.44.09.73.14,1.46.21,2.19.1,1.24.19,2.49.31,3.73.08.91.35,1.81.14,2.75-.07.33.21.52.47.63.17-.13.3-.23.56-.44-.05.46-.01.79-.13,1.03-.24.5-.27.96-.07,1.48.11.3.06.65.12.97.17.85.27,1.73.56,2.54,1.04,2.97,2.15,5.93,3.24,8.89.07.18.19.35.3.54.11-.1.17-.13.18-.17.03-.13.04-.26.05-.4.06-1.56.36-3.07.92-4.52.25-.65.6-1.27.96-1.87.37-.6.84-1.13,1.23-1.72,1.11-1.68,2.23-3.35,2.56-5.4.02-.11.12-.2.19-.3.12.21.16.4.11.56-.23.78-.4,1.59-.76,2.31-.59,1.16-1.3,2.25-1.99,3.36-.5.81-1.11,1.55-1.53,2.39-.89,1.77-1.29,3.66-1.16,5.67.08,1.26.18,2.49.74,3.64.69,1.44,1.37,2.9,2.05,4.35.43.91.84,1.83,1.29,2.72.21.41.39.85.81,1.21.07-.26.13-.44.17-.63.48-2.5,1.43-4.83,2.48-7.13.11-.25.17-.56.6-.68-.08.3-.12.51-.2.7-.54,1.36-1.07,2.73-1.63,4.08-.42,1.01-.7,2.06-.81,3.14-.08.78-.22,1.56.11,2.33.32.75.61,1.51.92,2.27.07.18.21.33.36.56.09-.17.15-.23.16-.3.04-.86.3-1.65.65-2.42.53-1.18,1.28-2.21,2.1-3.18.39-.46.5-.91.31-1.5-.22-.64-.36-1.31-.49-1.98-.22-1.12-.47-2.23-.58-3.36-.18-1.92-.12-3.85.02-5.77.18-2.48.56-4.9,1.68-7.16.23-.46.16-.9-.08-1.32-.36-.64-.77-1.25-1.11-1.89-.94-1.75-2.12-3.33-3.29-4.93-1.09-1.48-2.14-3.02-2.74-4.79-.37-1.1-.74-2.21-1.03-3.34-.33-1.29-.6-2.59-.85-3.89-.34-1.73-.53-3.49-.98-5.19-.55-2.09-1.15-4.19-2.18-6.13-.91-1.72-3.37-2.18-4.81-.84-1.01.94-1.71,2.1-2.3,3.33-.49,1.03-.9,2.1-1.4,3.12-.35.73-.77,1.43-1.2,2.12-.87,1.44-1.88,2.81-2.62,4.31-1.21,2.44-1.9,5.06-2.41,7.74-.56,2.93-1.29,5.83-1.03,8.86.11,1.27.06,2.55.2,3.82.28,2.57.95,5.07,1.77,7.52.1.31.23.63.24.94.02.57.2,1.05.54,1.5.16.21.26.47.4.71.52.89,1.02,1.79,1.56,2.67.45.74,1.07,1.25,1.89,1.58,1.43.57,2.68,1.45,3.66,2.64.96,1.17,1.89,2.38,2.79,3.6.47.64,1,1.12,1.81,1.27.69.12,1.37.34,2.06.47,1.98.39,3.94.84,5.52,2.23.06.05.18.02.33.04-.13-.35-.21-.63-.33-.9-.6-1.31-1.24-2.6-1.81-3.92-.31-.72-.77-1.26-1.46-1.56-1.81-.79-3.6-1.62-5.52-2.17-1.32-.38-2.58-.97-3.86-1.49-.24-.1-.58-.18-.58-.62.2.06.36.09.5.15.9.38,1.78.83,2.7,1.13,2.37.78,4.74,1.54,6.99,2.63.05.03.14-.03.25-.05-.39-.95-.76-1.88-1.15-2.8-1.09-2.58-2.19-5.15-3.28-7.73-.26-.63-.68-1.13-1.27-1.44-1-.53-2.04-1-3.07-1.49-.87-.42-1.75-.85-2.61-1.29-.14-.07-.22-.24-.33-.37.02-.03.05-.05.07-.08,2.08.94,4.16,1.88,6.24,2.81ZM79.63,67.48c.07-.04.14-.08.21-.12,1.42,3.43,3.86,6.04,6.64,8.55.02-.33.04-.52.04-.7-.06-2.41-.17-4.83-.16-7.24,0-1.52-.38-2.89-1.01-4.23-.21-.44-.44-.87-.69-1.29-.51-.83-.93-1.75-1.58-2.46-1.49-1.62-1.98-3.65-2.54-5.66-.05-.2,0-.42,0-.63.33.54.59,1.05.71,1.6.37,1.68,1.1,3.14,2.2,4.48.79.95,1.33,2.1,1.97,3.17.24.41.44.84.66,1.26.06-.01.13-.02.19-.03.07-.52.19-1.04.19-1.56,0-2.73.44-5.4.96-8.07.15-.78.23-1.55.1-2.34-.23-1.44-.77-2.76-1.33-4.1-.42-1.02-.74-2.09-1.1-3.15-.04-.11-.01-.24-.01-.35.49.46.57,1.08.79,1.63.23.55.43,1.12.66,1.67.24.57.5,1.14.77,1.71.25.54.16,1.22.69,1.77.1-.27.19-.47.25-.67.5-1.58.95-3.17,1.5-4.73.61-1.74,1.23-3.47,1.23-5.35,0-.39.07-.78.11-1.16.5.72.05,1.53.39,2.33.16-.23.3-.4.4-.58.4-.71.77-1.43,1.2-2.13.4-.64.83-1.26,1.28-1.87.16-.22.39-.45.86-.31-1.07,1.03-1.67,2.26-2.34,3.46-.68,1.22-1.36,2.43-1.89,3.74,1.05-.54,1.9-1.37,3.1-1.72-.01.47-.31.54-.52.68-.72.49-1.46.94-2.15,1.46-.61.46-1.12,1.04-1.38,1.77-.36,1.02-.73,2.04-1,3.09-.45,1.7-.84,3.42-1.22,5.14-.08.34-.28.72,0,1.1.62-.71,1.21-1.41,1.83-2.09.64-.7,1.28-1.4,1.94-2.07.62-.63.9-1.56,1.69-2.15.04.18.07.24.06.28-.07.15-.15.29-.23.42-.98,1.68-2.41,2.99-3.7,4.41-1.24,1.36-2.12,2.86-2.13,4.79,0,1.65-.14,3.3-.17,4.95-.03,1.33,0,2.65.02,3.98,0,.19.07.38.13.69.16-.22.23-.29.27-.39,1-1.94,2.33-3.64,3.79-5.26,1.43-1.58,3.02-3.04,4.12-4.91.08-.14.23-.24.35-.37.05.03.1.06.15.1-.13.25-.24.5-.38.75-.75,1.34-1.83,2.43-2.86,3.53-1.31,1.41-2.6,2.83-3.7,4.41-1.39,1.99-2.16,4.08-1.7,6.57.36,1.94.52,3.92.77,5.89,0,.05.06.09.09.13.05-.02.12-.02.14-.06.07-.11.14-.23.19-.36.5-1.31,1.26-2.47,2.27-3.44,1.37-1.31,2.72-2.65,3.87-4.17.09-.11.23-.18.35-.27l.13.1c-.12.22-.22.46-.37.66-1.03,1.33-2.19,2.54-3.4,3.71-1.98,1.93-3.41,4.17-2.88,7.15.02.13-.01.27.01.41.09.48.19.97.3,1.52,1.62-1.24,3.1-2.42,4.28-3.92.81-1.02,1.69-2,2.33-3.12.77-1.36,1.4-2.82,1.95-4.29.6-1.59,1.16-3.22,1.21-4.96.02-.81.08-1.62.11-2.44.05-1.35.27-2.7.03-4.05-.4-2.24-.8-4.48-1.22-6.71-.3-1.57-.68-3.13-.97-4.71-.38-2.11-.48-4.21.57-6.2.16-.31.3-.64.44-.96.51-1.25,1.13-2.47,1.13-3.87,0-1.33.03-2.66,0-3.99-.04-1.35-1.13-2.07-2.43-1.63-1.49.51-3.01.96-4.43,1.62-1.39.65-2.79,1.39-3.99,2.33-3.33,2.6-5.47,6.05-6.66,10.09-.34,1.17-.84,2.23-1.6,3.17-1.43,1.76-2.39,3.75-2.83,5.96-.28,1.43-.42,2.89-.55,4.35-.22,2.37-.08,4.72.48,7.04.3,1.21.72,2.39,1.02,3.6.66,2.69,2.01,5.03,3.65,7.22,1.53,2.04,3.55,3.58,5.61,5.04.08.06.2.07.38.13,0-.29,0-.53-.02-.76-.06-.59-.14-1.18-.19-1.78-.1-1.16-.19-2.32-.28-3.48-.06-.75-.3-1.4-.83-1.98-1.34-1.45-2.66-2.92-3.96-4.4-1.05-1.2-1.74-2.62-2.37-4.06-.03-.08,0-.19,0-.28ZM96.49,93.13c.11-.37.2-.65.26-.93.18-.85.29-1.72.55-2.54.44-1.43.04-2.67-.7-3.87-.71-1.16-1.38-2.34-1.72-3.68-.1-.4-.16-.8.12-1.21.18,2.41,1.81,4.11,2.83,6.25.17-.27.27-.39.32-.53.41-1.24.84-2.47,1.19-3.72.14-.51.14-1.07.11-1.6-.09-1.3-.36-2.59-.32-3.88.04-1.45.34-2.9.54-4.35.01-.11.13-.2.2-.3.05.01.11.03.16.04-.17,1.29-.39,2.58-.48,3.88-.1,1.32.23,2.61.37,4.06.15-.2.21-.25.24-.31.71-1.67,1.43-3.34,2.12-5.02.35-.85.66-1.7.79-2.63.15-1.12.49-2.23,1.07-3.23.08-.14.22-.24.34-.37-.18,1.2-.94,2.22-.77,3.48.27-.22.45-.47.66-.71.69-.8,1.37-1.6,2.07-2.39.28-.31.62-.55,1.11-.44-1.13,1.04-2.32,2-3.04,3.56.39-.19.68-.33.96-.47.29-.14.58-.38.94-.16-.05.1-.06.17-.1.19-.16.1-.32.2-.49.28-1.53.72-2.7,1.78-3.32,3.4-.24.63-.62,1.21-.87,1.84-.4,1.01-.75,2.03-1.11,3.06-.06.16,0,.37,0,.72.52-.49.86-.89,1.27-1.18.4-.29.69-.84,1.44-.74-.25.24-.42.41-.59.57-.5.46-1.05.87-1.49,1.37-.63.7-1.36,1.36-1.63,2.3-.45,1.54-.84,3.09-1.24,4.64-.05.18,0,.39,0,.72.25-.18.38-.26.49-.36.69-.61,1.37-1.22,2.07-1.82.17-.14.35-.35.69-.12-.71.63-1.34,1.25-2.04,1.8-1.55,1.23-1.96,2.9-1.97,4.75,0,.03.07.07.2.18.48-.43,1-.85,1.46-1.32,1.46-1.48,2.68-3.12,3.31-5.15.86-2.74,1.79-5.46,2.7-8.19.84-2.53,1.97-4.93,3.28-7.24.45-.8.81-1.66,1.11-2.53.17-.5.14-1.07.16-1.6.02-.48-.26-.82-.65-1.06-.61-.37-1.26-.65-2-.46-1.21.3-2.42.62-3.62.94-.15.04-.3.14-.43.23-.99.66-2.01,1.29-2.96,2.01-.89.68-1.59,1.52-1.89,2.67-.55,2.11-1.59,4.03-2.56,5.98-.15.31-.38.59-.61.86-.96,1.17-1.94,2.34-2.91,3.51-.32.39-.6.8-.44,1.33.32,1.09.51,2.26,1.03,3.25,1.03,2,2.25,3.9,3.39,5.84.08.13.22.22.41.4ZM84.96,39.64c.3-.3.48-.48.67-.67.63-.65.68-.69.27-1.48-.66-1.28-1.34-2.55-2.1-3.77-1.16-1.87-2.46-3.63-4.15-5.08-.65-.56-1.26-1.2-2.14-1.44-1.09-.3-1.97,0-2.24,1.31-.21,1.01-.46,2.02-.55,3.04-.18,2.16-.73,4.21-1.63,6.18-.55,1.21-.95,2.48-1.47,3.7-.28.67-.1,1.23.25,1.77.46.7.96,1.38,1.46,2.06.1.14.24.26.43.45.12-.28.21-.46.27-.66.06-.22.14-.4.51-.44-.09.4-.17.73-.25,1.06-.19.84-.04,1.14.8,1.62.12-.37.22-.73.35-1.08.13-.33.06-.83.72-.88-.11.35-.2.62-.29.89-.12.36-.27.71-.36,1.08-.2.85-.03,1.27.71,1.78.11-.46.18-.91.33-1.34.14-.39.14-.88.64-1.1.02.25-.05.47-.09.69-.16.85-.34,1.7-.47,2.55-.05.37.07.73.5.95.35-.5.16-1.22.8-1.65-.01,1.08-.61,2.05-.12,3.16.23-.23.4-.36.52-.52.41-.57.79-1.16,1.21-1.73.44-.6.45-1.21.11-1.83-.89-1.66-1.91-3.21-3.32-4.49-.57-.52-1.01-1.2-1.49-1.82-.08-.1-.07-.26-.1-.4,1.78,1.99,3.93,3.61,5.13,6.06.12-.18.18-.33.18-.47,0-.76-.02-1.52-.03-2.27-.03-1.77-.26-3.51-.55-5.25-.2-1.18-.56-2.27-1.33-3.19-.56-.67-1.17-1.28-1.72-1.95-.38-.46-.86-.88-.83-1.59.48.49.9,1.03,1.35,1.54.46.52.96,1.01,1.44,1.52.07-.48.04-.91-.08-1.32-.39-1.33-.82-2.65-1.22-3.97-.06-.19-.26-.44.1-.69.35.95.73,1.85,1,2.78.34,1.14.59,2.31.87,3.47.18.75.37,1.5.74,2.32.11-.23.18-.34.22-.46.4-1.1.75-2.21.85-3.38.02-.29-.02-.64.42-.94-.02.49,0,.86-.05,1.22-.17,1.32-.49,2.61-1.02,3.84-.23.54-.27,1.09-.22,1.67.17,1.7.32,3.39.46,5.09.05.59.04,1.19.05,1.78.06.01.11.02.17.03.22-.57.39-1.17.68-1.7.49-.89.5-1.75.06-2.65-.08-.17-.15-.35-.19-.54-.03-.13,0-.27.01-.41.05-.02.11-.03.16-.05.26.47.52.94.79,1.41.43-.26.37-.58.26-.9-.22-.64-.46-1.28-.69-1.92-.08-.24-.15-.48-.23-.71.87.56.8,1.62,1.42,2.32.53-.44.72-.9.44-1.53-.28-.62-.53-1.25-.78-1.88-.08-.2-.12-.42-.18-.64.79.65,1.03,1.58,1.46,2.39.47-.01.62-.26.55-.64-.06-.34-.19-.68-.28-1.02-.05-.19-.06-.39-.08-.58.04-.01.09-.02.13-.03.22.39.45.78.74,1.3ZM54.18,89.55c.03-.07.05-.14.08-.2-.21-.17-.4-.36-.62-.51-1.65-1.09-3.3-2.18-4.95-3.26-.37-.24-.8-.42-.98-.91.29.04.56.12.8.27,1.15.71,2.29,1.45,3.43,2.17.19.12.4.19.71.33-.29-.79-.48-1.44-.77-2.05-.13-.28-.38-.55-.65-.7-.62-.34-1.25-.66-1.92-.88-1.23-.41-2.49-.77-3.74-1.1-.42-.11-.86-.34-1.34-.13-.02,1.34.35,2.56,1.01,3.67.7,1.16,1.47,2.28,2.29,3.36,2.02,2.62,4.53,4.75,7.07,6.82,1.97,1.61,4.07,3.08,6.17,4.51,1.69,1.15,3.6,1.9,5.52,2.6.09.03.2,0,.43,0-.32-.55-.6-1-.86-1.46-.32-.58-.81-.88-1.44-1.09-1.21-.4-2.39-.89-3.57-1.36-.19-.07-.34-.22-.56-.35.42-.37.73-.09,1.03.02.96.37,1.9.77,2.86,1.13.15.06.33.02.52.03-.02-.13-.02-.19-.04-.23-1.04-1.57-2.3-2.95-3.6-4.3-.21-.22-.54-.39-.85-.45-.98-.19-1.97-.37-2.97-.47-1.12-.11-2.2-.32-3.22-.8-.17-.08-.32-.22-.48-.33.03-.06.05-.12.08-.18.65.2,1.29.45,1.96.59.66.14,1.34.2,2.01.27.68.07,1.36.12,2.05.19.03-.06.05-.11.08-.17-.16-.2-.31-.42-.5-.59-1.13-1.09-2.28-2.17-3.41-3.27-.37-.36-.79-.57-1.29-.62-.84-.08-1.68-.24-2.51-.2-1.25.06-2.35-.35-3.44-.85-.15-.07-.25-.25-.38-.39.04-.07.08-.14.11-.2,1.84,1.19,3.87,1.02,5.87,1.1ZM101.24,67.66c.08.02.15.04.23.06.31-.53.7-1.03.91-1.59.78-2.01,1.28-4.11,1.34-6.26.1-3.22.18-6.44-.25-9.66-.24-1.78-.49-3.55-.92-5.29-.16-.66-.5-1.26-1.07-1.68-.33-.24-.64-.18-.83.17-.36.69-.74,1.39-1,2.12-.44,1.2-.8,2.42-1.72,3.38-.22.23-.39.52-.59.78-.26.35-.35.73-.27,1.15.12.67.25,1.33.4,2,.02.11.15.19.26.33.18-.26.3-.46.45-.65.14-.18.3-.33.45-.5.05.03.1.07.15.1-.08.18-.14.37-.24.55-.2.38-.43.76-.62,1.14-.19.38-.18.75.08,1.11.49-.35.4-1.12,1.2-1.32-.17.38-.29.65-.41.91-.23.49-.47.98-.68,1.48-.11.25-.17.54.22.64.3-.13.17-.73.77-.64-.51,1.13-.95,2.26-.21,3.54.11-.22.2-.35.24-.5.4-1.41.81-2.82,1.19-4.23.07-.28.06-.6.03-.89-.13-1.22-.34-2.42-.77-3.57-.08-.23-.32-.48.02-.81.12.19.28.34.33.52.18.6.33,1.2.5,1.8.05.18.14.35.21.52.06-.01.12-.02.18-.03.09-.58.18-1.16.26-1.74.07-.56.14-1.13.18-1.7.04-.59.03-1.19.06-1.79.02-.57.06-1.13.09-1.7.19.08.27.17.27.26-.04,1.49-.06,2.97-.15,4.45-.13,2.15-.63,4.23-1.2,6.3-.03.12,0,.26-.01.39.85-1.11,1.65-2.2,2.13-3.47.08-.22.17-.44.54-.51-.08.28-.1.5-.19.68-.45.86-.91,1.72-1.39,2.57-.68,1.2-1.39,2.39-2.08,3.59-.26.45-.42.96-.32,1.48.22,1.18.17,2.37.1,3.56-.02.36.03.73.05,1.19.62-.37.92-.86,1.27-1.29.37-.47.7-.97,1.12-1.4.37-.38.47-1.01,1.26-1.27-.23.41-.34.68-.51.9-.9,1.15-1.83,2.29-2.73,3.44-.2.25-.45.52-.52.81-.18.81-.18,1.63-.18,2.55.92-.46.55-1.39.93-2.12l.37,1.01c.81-.39.36-1.3.87-1.91.08.41.14.71.2,1.01ZM54.14,71.72c.11.29.22.56.3.84.28.88.57,1.75.83,2.64.12.42.13.86.25,1.28.42,1.37.97,2.67,2.24,3.49,1.92,1.24,3.44,2.89,4.86,4.64.16.2.35.36.63.63.02-.33.06-.49.03-.65-.25-1.22-.49-2.45-.8-3.66-.27-1.08-.64-2.13-.95-3.2-.08-.26-.25-.53-.01-.97.16.31.28.51.35.72.77,2.29,1.39,4.62,1.81,7.01.18,1.04.47,2.08,1.07,2.97.65.97,1.33,1.91,2.02,2.86.36.49.76.95,1.22,1.52.06-.25.1-.34.1-.44-.06-.73-.17-1.45-.2-2.18-.04-1.08-.31-2.09-.73-3.07-.16-.37-.31-.75-.45-1.14-1.18-3.26-2.77-6.29-4.7-9.18-1.44-2.15-3.37-3.49-5.85-4.08-.65-.15-1.31-.35-2.02-.04ZM83.93,91.73c-.32-1.58-.59-3.1-.95-4.59-.11-.45-.4-.9-.73-1.25-.73-.76-1.48-1.53-2.31-2.16-1.18-.9-2.15-1.99-3.03-3.15-.34-.45-.79-.87-.87-1.7.87.79,1.29,1.72,1.99,2.41.73.72,1.47,1.44,2.24,2.11.73.64,1.32,1.44,2.38,2-.38-1.56-.69-2.93-1.05-4.29-.08-.3-.28-.59-.46-.85-.58-.82-1.17-1.62-1.77-2.43-.07-.09-.2-.15-.33-.24-.5.73-.28,1.61-.7,2.32-.11-.18-.19-.38-.16-.55.11-.61.25-1.22.4-1.82.11-.43.14-.84-.06-1.27-.35-.73-.67-1.48-.99-2.22-.11-.24-.2-.48-.34-.79-.18.15-.31.24-.42.35-1.01,1.09-1.72,2.35-2.27,3.73-.7,1.75-.41,3.41.3,5.05.32.75.72,1.46,1.01,2.22.55,1.43,1.41,2.66,2.62,3.56,1.67,1.24,3.44,2.36,5.17,3.53.04.03.11.01.32.02ZM67.75,86.1c.06.28.1.51.16.74.38,1.56.72,3.14.64,4.74-.04.93.16,1.7.61,2.46.29.49.58.98.87,1.47.51.86,1.04,1.71,1.53,2.59,1.11,2.02,2.16,4.07,3.31,6.07.93,1.62,1.95,3.18,2.98,4.75,1.29,1.97,2.6,3.92,3.93,5.87.35.52.81.96,1.22,1.44.08-.16.07-.24.04-.31-1.47-3.24-3-6.45-4.38-9.73-1.23-2.93-2.46-5.86-3.89-8.7-1.43-2.83-2.8-5.7-4.48-8.4-.49-.78-.96-1.58-1.47-2.34-.23-.35-.5-.7-1.08-.65ZM65.54,63.19s-.04.03-.06.04c.38,1.05.72,2.11,1.15,3.13.87,2.05,1.78,4.08,2.69,6.11.58,1.32,1.2,2.62,1.77,3.94,1.04,2.39,2.12,4.76,3.07,7.19,1.09,2.78,2.03,5.62,3.06,8.43,1.5,4.11,3.01,8.21,4.52,12.32.86,2.32,1.64,4.67,2.63,6.93.74,1.7,1.37,3.43,1.92,5.19.5,1.61.95,3.23,1.43,4.85.1.32.13.71.57.84.63-.35.88-.91.8-1.62-.03-.24-.08-.49-.16-.71-1.02-2.92-2.03-5.85-3.08-8.76-.69-1.92-1.49-3.79-2.18-5.71-1.57-4.37-2.77-8.87-4.84-13.05-.92-1.85-1.7-3.76-2.54-5.65-1.6-3.63-3.2-7.26-4.8-10.88-.1-.22-.21-.44-.31-.66-.78-1.55-1.56-3.1-2.33-4.66-.41-.83-.82-1.66-1.2-2.5-.71-1.58-1.41-3.17-2.11-4.76ZM66.55,93.74c.02.18.02.29.06.39.94,2.59,1.59,5.26,1.84,7.99.12,1.3.45,2.37,1.27,3.38,1.22,1.52,2.28,3.16,3.5,4.68,1.81,2.24,3.94,4.17,6.11,6.07.38.33.76.69,1.3.81,0-.1.03-.17,0-.2-1.1-1.78-2.19-3.55-3.29-5.32-.7-1.13-1.45-2.23-2.1-3.39-1.21-2.12-2.36-4.28-3.53-6.42-.93-1.69-1.84-3.39-2.77-5.08-.43-.79-.87-1.57-1.32-2.34-.21-.37-.48-.65-1.06-.56ZM92.22,114.46c.08,0,.17.01.25.02.37-1.47.83-2.92,1.09-4.4.55-3.26,1.01-6.53,1.49-9.8.28-1.9.51-3.81.77-5.72.06-.45-.06-.84-.31-1.22-.89-1.39-1.74-2.81-2.61-4.22-.12-.19-.27-.35-.5-.66-.07.39-.14.59-.15.8-.08,1.92-.22,3.84-.2,5.76.02,1.95.23,3.89.32,5.83.06,1.38.02,2.77.12,4.15.22,2.9,0,5.79-.23,8.68-.02.26-.02.52-.03.78ZM86.39,119.21c-.35-1.02-.61-1.88-.93-2.71-1.18-3.15-2.38-6.3-3.58-9.45-.11-.28-.2-.56-.34-.83-1.34-2.64-2.69-5.27-4.04-7.9-.35-.68-.69-1.35-1.04-2.03-.68-1.3-1.33-2.61-2.07-3.87-1.04-1.78-2.19-3.5-3.23-5.27-1.19-2.02-2.5-3.93-4.06-5.68-.72-.81-1.42-1.63-2.14-2.44-.14-.16-.32-.29-.48-.44-.05.05-.1.09-.16.14.21.27.41.54.62.8.49.61,1,1.21,1.47,1.84,1.79,2.36,3.26,4.93,4.77,7.47,1.24,2.1,2.35,4.29,3.42,6.48,1.09,2.22,2.07,4.49,3.08,6.74,1.71,3.79,3.38,7.59,5.11,11.37.75,1.63,1.61,3.2,2.42,4.8.21.41.47.78,1.16.99ZM77.98,89.26c.45,1.07.83,1.99,1.22,2.91.62,1.48,1.29,2.94,1.85,4.43.61,1.62,1.13,3.28,1.7,4.92.43,1.23.88,2.45,1.33,3.68.71,1.91,1.43,3.81,2.15,5.72.05.12.17.21.25.32.12-.47.13-.9.07-1.32-.43-2.82-.87-5.63-1.32-8.44-.38-2.38-.81-4.76-1.16-7.15-.12-.82-.49-1.41-1.15-1.87-1.5-1.03-2.99-2.06-4.49-3.09-.06-.04-.15-.04-.46-.1ZM87.41,77.84c-.06,0-.13,0-.19,0,.03.5.04,1,.09,1.5.17,1.8.35,3.61.53,5.41.17,1.78.3,3.57.53,5.34.22,1.64.34,3.29.37,4.95,0,.49.05.98.09,1.46.13,1.65.31,3.3.4,4.95.11,1.81.1,3.63.22,5.44.23,3.42-.08,6.83-.34,10.23-.06.83-.01,1.6.21,2.4.16.56.13,1.17.18,1.76.01.14,0,.28,0,.57.57-.65,1.03-1.18,1.12-1.92.11-.91.25-1.83.29-2.74.11-2.51.24-5.02.23-7.55-.02-4.36-.81-8.64-1.35-12.94-.3-2.42-.72-4.83-1.01-7.25-.34-2.74-.58-5.5-.89-8.24-.13-1.13-.32-2.24-.48-3.37ZM69.37,79.37c0,.33-.02.59,0,.84.09.89.14,1.79.31,2.67.13.68.34,1.38.65,1.99.48.97,1.08,1.88,1.64,2.81,1.6,2.64,3.35,5.2,4.68,8,.76,1.59,1.59,3.15,2.4,4.72.25.48.54.95.81,1.42-.03-.5-.19-.93-.35-1.36-1.9-5.18-3.79-10.36-5.69-15.54-.29-.79-.58-1.58-.89-2.36-.65-1.6-1.81-2.65-3.57-3.19ZM65.63,100c.06-.04.11-.07.17-.11,0-.13,0-.26-.03-.39-.23-1.09-.47-2.17-.7-3.26-.04-.2-.17-.43.15-.55.06.05.15.1.16.16.29,1.35.63,2.69.84,4.06.12.78.32,1.47.84,2.06.2.22.37.47.58.68.09.1.23.16.47.32-.11-.97-.14-1.81-.31-2.62-.4-1.8-.83-3.59-1.32-5.37-.24-.87-.64-1.62-1.73-1.8-.68-.11-1.35-.45-1.95-.8-.89-.52-1.71-1.15-2.56-1.73-.16-.11-.35-.18-.7-.36.13.71.21,1.23.33,1.75.33,1.39.81,2.68,1.91,3.7.87.81,1.62,1.75,2.42,2.64.48.54.95,1.09,1.43,1.64ZM88.05,115.83c.06,0,.12,0,.19,0,.06-.25.15-.49.18-.74.3-2.45.52-4.88-.08-7.35-.6-2.47-.97-5-1.46-7.5-.14-.72-.36-1.42-.5-2.14-.36-1.78-.67-3.57-1.06-5.35-.5-2.31-1.06-4.6-1.6-6.9-.24-1.03-.5-2.06-.78-3.08-.07-.27-.07-.65-.6-.73.06.32.11.58.17.84.29,1.27.59,2.54.87,3.81.09.4.15.8.23,1.2.28,1.38.61,2.76.85,4.14.37,2.16.66,4.34,1.03,6.51.56,3.32,1.21,6.62,1.71,9.95.25,1.66.28,3.35.4,5.02.06.8.09,1.59.45,2.32ZM63.35,86.22s-.06.04-.1.06c.05.12.07.26.14.37.8,1.19,1.62,2.37,2.41,3.56.68,1.01,1.4,2.01,1.98,3.07,2.1,3.8,4.13,7.64,6.22,11.45,1.1,2,2.26,3.96,3.42,5.92.52.89,1.12,1.73,1.67,2.6,1.6,2.57,3.45,4.93,5.74,6.93.51.45,1.02.89,1.56,1.31.19.15.42.39.74.13-.15-.74-.49-1.36-1.09-1.84-2.62-2.08-4.73-4.61-6.52-7.42-1.18-1.85-2.34-3.71-3.5-5.57-.9-1.45-1.81-2.89-2.66-4.37-1.22-2.11-2.39-4.25-3.58-6.38-1.27-2.27-2.59-4.51-4.16-6.6-.78-1.05-1.52-2.13-2.28-3.2ZM88.49,106.07c.06-.01.13-.02.19-.03,0-.45.03-.91,0-1.36-.06-.92-.17-1.83-.23-2.75-.09-1.51-.13-3.03-.23-4.54-.16-2.3-.33-4.6-.53-6.89-.06-.65-.04-1.34-.39-1.99-.09.1-.16.15-.19.22-.42.94-.86,1.87-1.26,2.82-.1.24-.17.52-.14.78.09.78.21,1.56.37,2.33.3,1.46.67,2.9.96,4.36.31,1.54.53,3.1.83,4.64.16.82.4,1.62.61,2.43ZM67.18,102.87c-.06.03-.12.06-.18.1.13.23.26.46.4.68.28.43.58.86.87,1.28,1.58,2.26,2.95,4.68,4.73,6.81,2.4,2.85,4.81,5.68,7.97,7.73,1.07.69,2.19,1.3,3.29,1.93.13.07.32.05.48.06.03-.06.06-.11.09-.17-1.15-1.03-2.22-2.16-3.46-3.07-1.29-.94-2.56-1.9-3.78-2.94-3.29-2.81-5.91-6.18-8.4-9.68-.66-.92-1.35-1.82-2.02-2.73ZM96.72,96.19h-.12c-.04.09-.09.18-.1.28-.3,1.82-.6,3.63-.89,5.45-.48,3.05-.98,6.09-1.7,9.1-.5,2.09-1.16,4.11-2.12,6.03-.53,1.05-.59,2.21-.76,3.54.25-.24.39-.33.47-.45.51-.79,1.05-1.58,1.52-2.4.77-1.36,1.04-2.9,1.37-4.4.29-1.37.42-2.78.66-4.17.64-3.82,1.4-7.62,1.58-11.5.02-.5.07-1,.11-1.49ZM91.51,114.34l.15.05c.07-.29.17-.57.19-.86.09-1.27.22-2.54.23-3.81.02-2.71-.02-5.42-.06-8.13-.02-1.14-.06-2.28-.15-3.41-.2-2.35-.33-4.7-.2-7.05.07-1.33.07-2.66.09-3.98,0-.25.02-.52-.32-.75-.05.35-.09.61-.12.87-.34,2.91-.43,5.83-.29,8.76.09,1.92.16,3.85.22,5.77.02.62-.14,1.26-.07,1.87.35,2.8.35,5.62.34,8.43,0,.75,0,1.5,0,2.26ZM59.66,93.63s.09-.07.14-.1c-.28-1.21-.54-2.41-.85-3.61-.06-.22-.22-.45-.4-.59-1.73-1.39-3.52-2.71-5.51-3.72-.13-.07-.29-.08-.45-.13.09,1.14.76,2.44,1.69,3.29,1.46,1.33,2.93,2.66,4.39,3.99.33.3.66.58,1,.87ZM89.98,94.92c.07,0,.14,0,.22,0-.27-3.79.2-7.53.6-11.31-.42.24-.78.5-1.12.8-.69.6-.91,1.32-.77,2.25.32,2.17.52,4.36.79,6.54.07.58.19,1.15.28,1.72ZM85.83,84.83c-1.2,1.6-1.32,4.5-.24,6.03.13-.19.28-.34.36-.53.39-.95.79-1.9,1.12-2.87.42-1.23.02-2.04-1.24-2.63ZM69.06,83.1c.07-.03.15-.07.22-.1-.14-1.09-.27-2.18-.42-3.27-.06-.44-.3-.74-.74-.87-.41-.12-.81-.3-1.23-.41-.56-.14-1.13-.31-1.85-.14,1.32,1.7,2.69,3.22,4.02,4.78ZM83.56,83.04c.05.97.59,2.89.98,3.43.26-.7.52-1.34.73-2,.04-.14-.12-.34-.24-.63-.15.24-.19.33-.26.41-.06.07-.14.12-.22.19q-.55-1.13-.99-1.4ZM66.1,81.75c-.07.03-.14.06-.21.09.33.79.62,1.59,1,2.36.24.49.68.78,1.43.72-.79-1.12-1.5-2.14-2.22-3.17Z"/><path d="M47.61,66.67c-1.63.35-4.62-1.08-5.03-2.27.85.5,1.61,1.05,2.45,1.44.82.37,1.71.56,2.58.83Z"/><path d="M47.13,65.01c-.88-.9-1.41-2-1.8-3.17.06-.04.13-.08.19-.11.3.53.6,1.07.91,1.6.3.52.61,1.04.92,1.56-.07.04-.15.08-.22.12Z"/><path d="M43.83,63.49c-.88-.35-1.59-1.53-1.72-2.59.33.17.32.17.87,1.2.23.43.51.83.85,1.39Z"/><path d="M43.97,74.97c.32-.69.9-1.07,1.68-1.4-.07.32-.11.49-.15.65.17.14.32.27.55.46-.78.1-1.45.19-2.12.27h.03Z"/><path d="M43.8,61.39c.69,1.04,1.29,1.94,1.9,2.87-.91-.25-1.63-1.32-1.9-2.87Z"/><path d="M50.28,73.26c.49-.33.8-.13,1.12,0,.66.25,1.35.44,1.85.96-.03.06-.06.12-.09.18-.91-.36-1.83-.72-2.88-1.14Z"/><path d="M42.27,76.42c-.14.17-.28.34-.45.54.07.15.16.33.29.6-.51-.11-.93-.2-1.43-.31.41-.55.86-.91,1.47-.98.04.05.08.1.12.15Z"/><path d="M58.78,84.98c-.66-.46-1.18-1.37-1.25-2.25.56.16.53.69.74,1.04.23.38.45.76.68,1.14-.06.03-.11.05-.17.08Z"/><path d="M50.32,77.5c.59.62,1.18,1.23,1.78,1.86-.68.04-1.48-.71-1.78-1.86Z"/><path d="M41.79,62.08c-.71-.4-1.07-1.02-1.16-1.81.69.4.87,1.15,1.16,1.81Z"/><path d="M44.43,54.31c.69.39,1.18.94,1.61,1.65-.19.03-.3.09-.33.05-.49-.52-1.02-1.01-1.28-1.71Z"/><path d="M53.65,75.72c-.69-.19-1.37-.39-1.96-.86.64-.2,1.46.12,1.96.86Z"/><path d="M45.95,53.98c-.51-.06-1.23-.67-1.61-1.34.66.03,1.33.58,1.61,1.34Z"/><path d="M44.12,50.74c.8.16,1.53.89,1.8,1.72-.54,0-.67-.49-.94-.76-.28-.27-.52-.58-.86-.96Z"/><path d="M56.2,82.54c.39.66.78,1.31,1.21,2.04-.73-.23-1.27-1.12-1.21-2.04Z"/><path d="M39.53,51.93c.08.75.15,1.5.23,2.27-.56-.48-.71-1.32-.41-2.25.06,0,.12-.02.18-.02Z"/><path d="M63.87,90.7c-.6-.49-.99-.94-1.09-1.6.47.11,1,.85,1.09,1.6Z"/><path d="M62.23,90.24c-.67-.52-1-1.11-.97-1.97.44.73.79,1.3,1.14,1.88-.06.03-.11.06-.17.09Z"/><path d="M49.14,78.06c.46.49.91.98,1.37,1.47-.05.04-.09.09-.14.13-.71-.26-1.12-.81-1.43-1.46l.2-.15Z"/><path d="M38.44,53.07c-.4-.62-.48-1.28-.05-2,.07.66.15,1.32.22,1.98-.06,0-.12.01-.18.02Z"/><path d="M40.76,53.25c.16.73.29,1.31.44,1.95-.6-.36-.8-1.15-.44-1.95Z"/><path d="M44.57,49.07c.55.32.97.74,1.2,1.45-.7-.34-1.01-.85-1.2-1.45Z"/><path d="M48.83,79.81c-.72-.15-1.06-.62-1.49-1.28.88.42,1.11.63,1.49,1.28Z"/><path d="M59.43,84c.56.25.67.8.89,1.27-.63-.21-.84-.69-.89-1.27Z"/><path d="M40.61,45.52c-.56-.11-.79-.52-1.11-1.06.7.15.97.53,1.11,1.06Z"/><path d="M43.94,74.96c-.08.57-.33.76-1.06.83-.06-.31.13-.41.37-.5.24-.09.48-.21.71-.31,0,0-.03-.01-.03-.01Z"/><path d="M47.96,63.94c-.19-.38-.37-.77-.56-1.15l.16-.08c.35.29.52.68.59,1.13-.07.03-.13.07-.2.1Z"/><path d="M45.29,69.48c.42-.44.78-.49,1.3-.37-.4.38-.76.43-1.3.37Z"/><path d="M52.46,78.21c.4.34.68.58,1.02.87-.18.07-.34.17-.39.13-.3-.2-.64-.39-.63-1.01Z"/><path d="M46.58,79.29c.28.28.51.51.82.81-.75-.02-.85-.13-.82-.81Z"/><path d="M40.83,47.69c-.17-.24-.34-.49-.55-.79.45-.12.59.15.74.34.07.09.03.27.03.4-.07.02-.15.03-.22.05Z"/><path d="M55.33,84.1c-.15-.32-.3-.64-.45-.96.06-.03.12-.05.18-.08.3.25.41.59.46.95-.06.03-.13.06-.19.09Z"/><path d="M49.51,66.71c.3,0,.59.01.89.02-.32.41-.63.33-.94.15l.05-.17Z"/><path d="M40.05,77.91c-.19.32-.31.54-.48.84-.25-.58-.23-.61.48-.84Z"/><path d="M48.93,65.17c-.13-.16-.27-.32-.47-.57.5-.03.63.14.47.57Z"/><path d="M66.92,36.83c-.19.98-.56,1.91-1.05,2.78-.61,1.08-1.3,2.13-1.9,3.22-.58,1.04-1.1,2.11-1.65,3.17-.09.18-.19.36-.31.59-.33-.26-.18-.5-.09-.69.47-.95.93-1.9,1.45-2.82.54-.97,1.18-1.88,1.7-2.86.51-.95.93-1.95,1.39-2.93.08-.18.17-.36.26-.53.07.03.13.06.2.09Z"/><path d="M59.15,45.24c-1.87-2.94-3.96-5.76-4.66-9.49.19.22.3.31.35.43.16.38.3.76.42,1.14.5,1.59,1.31,3.03,2.18,4.43.51.83,1.03,1.65,1.52,2.5.16.28.23.61.34.92-.05.02-.11.04-.16.07Z"/><path d="M51.73,51.92c.38-.12.47.14.61.33,1.05,1.41,2.11,2.81,3.42,3.99.31.28.63.55.99.88-.38.21-.57.05-.73-.12-1.1-1.16-2.19-2.31-3.27-3.48-.33-.36-.59-.77-.87-1.17-.08-.12-.11-.28-.16-.42Z"/><path d="M60.03,62.83c.4,1.99.63,4.03,1.63,5.86-.98-.52-2.06-4.38-1.63-5.86Z"/><path d="M69.98,60.98c1.09.83,2.68,4.61,2.55,6.2-.43-.5-.43-1.08-.62-1.58-.2-.53-.34-1.09-.56-1.62-.21-.5-.48-.97-.74-1.45-.26-.49-.53-.98-.8-1.46.06-.03.11-.06.17-.09Z"/><path d="M56.22,54.87c-.87-1.13-.86-5.09-.02-6.71.05.22.11.36.09.49-.11.83-.32,1.65-.33,2.48,0,1.05.15,2.09.23,3.14.01.17.01.33.02.61Z"/><path d="M65.34,48.58c1.03.77,2.17,4.07,1.88,5.36-.14-.3-.25-.46-.3-.64-.16-.6-.26-1.22-.46-1.8-.3-.86-.66-1.71-.99-2.56-.05-.12-.09-.24-.13-.36Z"/><path d="M71.5,60.3c.63.37,1.1,1.36,1.88,3.88.09.3.23.6-.11.95l-1.77-4.84Z"/><path d="M66.88,46.57c.77,1.66,1.48,3.19,1.65,4.9.01.15-.06.31-.1.47h-.17c-.1-.43-.21-.87-.31-1.3-.11-.47-.17-.96-.31-1.43-.13-.44-.36-.85-.5-1.29-.13-.39-.6-.7-.26-1.36Z"/><path d="M63.19,69.12c-.81-.87-1.57-4.38-1.14-5.46.09.24.21.43.22.63.1,1.63.48,3.19,1.02,4.72,0,.02-.07.07-.11.11Z"/><path d="M66.21,55.88c-.06-.11-.13-.19-.16-.29-.39-1.38-.78-2.76-1.17-4.16.46.26.86,1.11,1.33,2.75.2.7.21,1.31,0,1.7Z"/><path d="M54.54,52.36c-.78-.88-.53-4.68.38-5.72-.32,2.01-.83,3.83-.38,5.72Z"/><path d="M64.99,69.87c-.77-.65-1.5-3.38-1.28-4.95.5.48.23,1.11.4,1.61.19.56.24,1.16.42,1.73.16.52.41,1.02.63,1.53-.05.03-.11.05-.16.08Z"/><path d="M59.57,67.7c-.85-1.34-1.04-2.86-1.22-4.39-.02-.21.05-.43.21-.64.34,1.68.67,3.35,1.01,5.03Z"/><path d="M62.77,41.8c-.12-.2-.21-.28-.22-.38-.22-1.26-.44-2.52-.66-3.8.69.48,1.24,2.93.88,4.18Z"/><path d="M56.94,62.93c.54,1.55.35,3.17,1.37,4.58-.58-.08-.64-.39-.75-.63-.56-1.2-.88-3.08-.62-3.95Z"/><path d="M59.43,52.86c.1,1.44.21,2.89.32,4.39-.36-.37-.61-1.15-.6-2.18,0-.73-.22-1.49.28-2.2Z"/><path d="M71.38,68.62l-1.31-3.59c.93.44,1.7,2.6,1.31,3.59Z"/><path d="M68.27,45.6c.46.74.77,1.56.89,2.42.08.57.51,1.14,0,1.78-.16-.69-.28-1.38-.47-2.06-.19-.69-.45-1.36-.68-2.04.09-.03.18-.06.27-.09Z"/><path d="M64.77,37.69c-.26-1.25-.51-2.5-.76-3.74.43.22.49.27.63.95.19.91.55,1.83.14,2.79Z"/><path d="M72.79,59.86c.6.56,1.35,2.49,1.33,3.27-.4-.36-1.25-2.39-1.33-3.27Z"/><path d="M62.77,35.67c.9.74,1.4,2.89,1.01,4.08-.33-.73-.22-1.44-.39-2.08-.18-.67-.41-1.34-.62-2Z"/><path d="M70.31,46.9c-.58-.89-1.08-2.5-.98-3.06.53.46,1.17,2.34.98,3.06Z"/><path d="M66.24,75.93c-.83-.31-1.08-.92-1.29-1.54-.1-.32-.37-.67.04-1.05.41.85.79,1.64,1.25,2.59Z"/><path d="M70.65,69.8c-.1-.11-.25-.19-.3-.32-.31-.8-.59-1.6-.89-2.43q.49.1.89,1.14c.18.48.35.96.52,1.43-.07.06-.15.11-.22.17Z"/><path d="M56.58,38.22c.07-1.18.49-2.05,1.11-3,.01.61-.71,2.56-1.11,3Z"/><path d="M65.24,57.14c-.4-.96-.65-1.81-.68-2.81.64.81.94,1.95.68,2.81Z"/><path d="M66.38,73.67c.46.86.87,1.63,1.33,2.5-.83-.29-1.43-1.45-1.33-2.5Z"/><path d="M66.24,70.3c-.4-.87-.83-1.73-.73-2.73.07-.02.15-.04.22-.06.24.9.49,1.81.73,2.71-.08.03-.15.05-.23.08Z"/><path d="M64.49,75.6c-.96-.42-1.12-1.3-1.45-2.24.22.09.38.1.42.17.35.68.69,1.38,1.03,2.07Z"/><path d="M73.95,71.29c.56.81.81,1.7.65,2.68-.46-.34-.28-.87-.42-1.3-.14-.44-.42-.86-.23-1.38Z"/><path d="M52.88,47.07c.01.96.03,1.92.04,2.88h-.2c-.34-.95-.24-1.91-.06-2.87.07,0,.15,0,.22,0Z"/><path d="M55.82,63.8c.18.87.37,1.75.55,2.62-.58-.26-.91-1.47-.55-2.62Z"/><path d="M61.29,58.13c-.7-.76-.89-1.93-.46-2.67.15.9.29,1.69.46,2.67Z"/><path d="M58.54,37.34c-.23.82-.46,1.64-.69,2.46-.33-.73-.07-1.72.53-2.51.05.02.11.04.16.05Z"/><path d="M74.68,61.03c-.47-.62-1.05-2.09-1.11-2.71.5.33,1.06,1.64,1.11,2.71Z"/><path d="M61.79,43.22c-.25-.85-.41-1.61-.41-2.45.51.46.76,1.79.41,2.45Z"/><path d="M67.92,74.29c.39.69.77,1.37,1.18,2.09-.64-.03-1.22-.96-1.18-2.09Z"/><path d="M56.92,33.64c-.11.85-.56,1.88-.97,2.23.1-.9.36-1.63.97-2.23Z"/><path d="M57.53,53.84c.1.03.16.03.19.06.05.06.1.13.12.2.03.13.04.27.04.4.01.54.02,1.08-.03,1.63-.46-.72-.42-1.49-.32-2.29Z"/><path d="M58.55,41.61c-.2-.83.05-1.45.34-2.18.19.56.02,1.66-.34,2.18Z"/><path d="M74.79,69.69c.68.61.75,1.27.74,1.97-.33-.23-.63-.99-.74-1.97Z"/><path d="M65.42,33.03c.34.59.43,1.15.27,1.74-.44-.77-.49-1.18-.27-1.74Z"/><path d="M57.83,51.22c-.24-.58-.09-1.11.21-1.78.23.74,0,1.26-.21,1.78Z"/><path d="M62.38,73.76c.24.43.49.87.77,1.36-.62-.1-.81-.4-.77-1.36Z"/><path d="M62.23,28.22c-.42-.36-.37-.8-.34-1.43.43.53.49.96.34,1.43Z"/><path d="M73.29,73.18l.44,1.22c-.55-.21-.6-.35-.44-1.22Z"/><path d="M74.57,57.46c.16.26.32.53.56.93-.62-.14-.73-.45-.75-.81.07-.04.13-.08.2-.12Z"/><path d="M61.41,28.71l.31.86q-.51-.16-.31-.86Z"/><path d="M57.7,52.88c-.21-.19-.32-.38-.11-.61.03-.03.17-.03.21,0,.2.22.14.41-.09.6Z"/><path d="M83.49,56.96c-.26-.77.17-1.43.44-2.09.35-.88.72-1.77,1.56-2.35-.66,1.48-1.33,2.96-1.99,4.44Z"/><path d="M84.79,67.02c-.02.29,0,.44-.05.55-.54,1.13-.6,2.4-.92,3.72-.47-.86.13-3.45.97-4.26Z"/><path d="M81.38,67.4c-.03-.09-.11-.19-.09-.27.36-1.31.72-2.61,1.1-3.91.03-.11.16-.18.39-.21l-1.25,4.39s-.1,0-.15,0Z"/><path d="M83.76,65.13c.15.56-.24.95-.36,1.43-.12.47-.3.93-.44,1.39-.14.47-.04,1.02-.42,1.46-.33-.23-.19-.52-.13-.75.32-1.23.56-2.49,1.35-3.54Z"/><path d="M81.86,61.34c-.17,1.33-.97,2.46-1.12,3.94-.43-.77.17-2.79,1.12-3.94Z"/><path d="M84.53,51.47c-.57,1.16-1.15,2.32-1.72,3.49-.05,0-.1-.02-.15-.02.01-.18-.02-.38.05-.55.43-1.07.81-2.19,1.65-3.02.06.04.11.07.17.11Z"/><path d="M80.59,60.01c.21.66-.19.99-.33,1.39-.14.41-.32.8-.44,1.21-.13.42-.22.86-.35,1.37-.31-.28-.27-.54-.22-.8.24-1.1.63-2.12,1.34-3.18Z"/><path d="M89.6,63.53c-.02-1.23-.05-2.47-.07-3.88.49.75.57,3.24.07,3.88Z"/><path d="M85.81,55.26c.07.1.14.15.13.18-.43.97-.87,1.94-1.32,2.94-.31-.62.35-2.31,1.19-3.12Z"/><path d="M92.26,68.08c.38.77.63,2.61.42,3.39-.4-.56-.3-1.16-.41-1.7-.11-.54-.13-1.1-.2-1.65.06-.01.12-.02.18-.04Z"/><path d="M88.3,65.44c-.02-1.38-.04-2.65-.07-4.02.58.82.61,3.12.07,4.02Z"/><path d="M83.69,79.16c-.08-1.11.1-2.17.41-3.21.08,0,.15,0,.23.01,0,.22.03.44,0,.66-.1.69-.33,1.36-.23,2.07.03.21.03.45-.41.46Z"/><path d="M90.9,58.7c.45.96.3,1.98.29,3.06-.39-.46-.44-.91-.29-3.06Z"/><path d="M91.1,47.6c.36.77.17,2.54-.28,3.25-.28-.56.01-1.07.04-1.57.03-.51.14-1.01.24-1.68Z"/><path d="M88.65,72.82c.35.97.44,1.96.38,3.13-.36-.52-.57-2.33-.38-3.13Z"/><path d="M82.05,52.85c.18-1.06.6-1.99,1.37-2.97-.05.62-1.01,2.69-1.37,2.97Z"/><path d="M88.77,42.28l-1.75,2.08c-.06-.04-.12-.07-.18-.11.05-.15.07-.33.16-.46.57-.84,1.2-1.43,1.77-1.52Z"/><path d="M92.35,60.32c-.23-.69-.31-2.68-.11-3.2.31,1.09.49,2.06.11,3.2Z"/><path d="M88.79,43.61c-.32.86-.82,1.61-1.42,2.29.19-.94.64-1.72,1.42-2.29Z"/><path d="M91.46,72.33c-.31-.83-.36-1.71-.49-2.75.59.76.8,1.99.49,2.75Z"/><path d="M90.12,73.93c-.4-.87-.31-1.71-.35-2.63.49.59.65,1.8.35,2.63Z"/><path d="M84.89,72.35c-.47-.43-.22-.9-.17-1.34.06-.53.17-.64.68-1.04-.19.86-.35,1.62-.51,2.38Z"/><path d="M78.48,62.63c.17-1.43.46-2.08,1.03-2.35-.38,1.54-.59,2.06-1.03,2.35Z"/><path d="M93.58,67.61c.36.7.38,1.45.34,2.28-.46-.48-.52-.85-.34-2.28Z"/><path d="M93.49,59.07c-.26-.86-.22-1.58-.24-2.3.06-.02.12-.03.19-.05.07.14.22.3.21.43-.06.58.24,1.2-.15,1.92Z"/><path d="M88.77,45.5c.1.56-.34,1.43-.96,1.98.02-.85.54-1.39.96-1.98Z"/><path d="M85.12,78.21c.29.71.1,1.34,0,2.02-.43-.42-.43-1.42,0-2.02Z"/><path d="M91.35,77.37c.42.72.34,1.36.16,2.04-.34-.47-.42-1.29-.16-2.04Z"/><path d="M89.59,51.94c-.16-.76.05-1.47.31-2.18.12.76.05,1.49-.31,2.18Z"/><path d="M92.23,48.98c-.04-.72-.1-1.44.27-2.24.24.87.08,1.57-.27,2.24Z"/><path d="M92.55,77.98c-.12-.65-.43-1.3-.04-2.12.26.8.37,1.45.04,2.12Z"/><path d="M86.08,57.62c-.2.56-.4,1.12-.6,1.68l-.2-.06c-.12-.66.18-1.19.58-1.69.07.02.14.05.21.07Z"/><path d="M93.52,75.21c.22.67.19,1.28.18,1.99-.47-.61-.52-1.2-.18-1.99Z"/><path d="M81.44,73.88c.21.61.2.77-.08,1.55-.1-.11-.24-.2-.24-.27.02-.43-.09-.91.32-1.28Z"/><path d="M95.01,39.25c.23.59.19.89-.16,1.43-.22-.47-.19-.73.16-1.43Z"/><path d="M95.09,66.91c.07.51.32.99.17,1.59-.39-.49-.46-1.09-.17-1.59Z"/><path d="M90.1,79.03c.4.45.38.92.1,1.55-.29-.58-.28-1.05-.1-1.55Z"/><path d="M82.33,49.86c-.21.42-.42.85-.66,1.33-.22-.52-.05-.9.66-1.33Z"/><path d="M88.15,41.16c-.32.33-.63.67-1.02,1.07.05-.68.12-.77.91-1.19.04.04.08.08.11.12Z"/><path d="M93.7,46.24c.3.46.12.87-.03,1.34-.27-.6-.27-.74.03-1.34Z"/><path d="M94.64,57.2c-.13-.38-.39-.76-.03-1.21.31.43.24.82.03,1.21Z"/><path d="M93.26,41.47c.08-.33.16-.66.23-.99.36.43.18.75,0,1.07-.07-.02-.15-.05-.22-.07Z"/><path d="M82.3,77.72c-.03-.28-.07-.56-.11-.91q.53.25.28.89c-.06,0-.12.01-.18.02Z"/><path d="M96.97,83.32c-.21-1.1.63-3.08,1.38-3.49-.47,1.2-.93,2.34-1.38,3.49Z"/><path d="M94.91,88.32c-.11-.89.17-1.65.73-2.33-.06.84-.33,1.6-.73,2.33Z"/><path d="M98.52,82.2c-.16.81-.42,1.59-.77,2.5-.23-.76.11-1.84.77-2.5Z"/><path d="M94.82,84.77c-.17.88-.46,1.57-.9,2.28-.03-.18-.1-.36-.08-.54.09-.68.41-1.29.98-1.75Z"/><path d="M96.02,81.35c.18-.79.44-1.55,1.01-2.16.07.03.13.06.2.09-.32.72-.65,1.44-.97,2.16-.08-.03-.16-.06-.23-.09Z"/><path d="M100.1,86.05c-.25-.84.11-1.46.53-2.06.06.02.13.05.19.07-.24.66-.48,1.33-.72,1.99Z"/><path d="M102.51,78.57c-.17-.75.11-1.42.79-1.95-.14.65-.42,1.25-.79,1.95Z"/><path d="M102.21,71.83c-.24.6-.46.8-1.22,1.1.17-.69.72-.86,1.22-1.1Z"/><path d="M102.13,83.07c.07.66-.27,1.18-.58,1.72-.03-.65.18-1.22.58-1.72Z"/><path d="M96.02,88.02c.22.65-.04,1.16-.18,1.72-.34-.51-.32-.69.18-1.72Z"/><path d="M101.76,73.55c-.18.55-.5.95-1.12,1.21.11-.72.62-.95,1.12-1.21Z"/><path d="M100.64,76.24c.2-.72.39-.94,1.2-1.2-.43.52-.74.9-1.06,1.29-.05-.03-.1-.06-.14-.09Z"/><path d="M104.17,77.38c-.24-.53.2-.78.42-1.12.18.49-.15.79-.42,1.12Z"/><path d="M100.32,89.19c.09.5-.03.8-.35,1.13-.18-.47,0-.76.35-1.13Z"/><path d="M99.31,90.09c-.07.28-.15.55-.26.99-.33-.55-.1-.8.03-1.07.08.03.16.05.24.08Z"/><path d="M93.69,84.35c-.01.3.07.66-.41.79.02-.37.06-.65.41-.79Z"/><path d="M78,39.87c-.14,1-.27,2-.42,3.12-.15-.16-.28-.24-.29-.33-.11-.97.19-2.37.71-2.79Z"/><path d="M77.21,38.05c-.25,1.06-.49,2.13-.75,3.23-.36-.16-.29-.42-.24-.63.21-.91.2-1.89.82-2.65.06.02.11.03.17.05Z"/><path d="M78.43,43.71c-.24-.72-.13-1.34.22-1.92.18.74.09,1.46-.22,1.92Z"/><path d="M80.1,34.1c-.52-.15-.73-.5-.79-1.11.62.23.74.64.79,1.11Z"/><path d="M79.28,34.64c.61.07.78.47.93,1.07-.71-.15-.72-.7-.93-1.07Z"/><path d="M75.27,39.58c-.15-.62-.11-1.05.3-1.52.16.58.05.99-.3,1.52Z"/><path d="M55.51,93.4c-.74-.5-.81-1.23-1.14-1.81.53.23,1.05,1.05,1.14,1.81Z"/><path d="M59.9,96.45c.35.52.65.97.95,1.42l-.1.14c-.13-.02-.3,0-.37-.08-.48-.54-.62-.95-.48-1.48Z"/><path d="M56.89,93.29c-.56-.31-.91-.78-.88-1.53.36.46.71.92,1.07,1.38-.06.05-.12.1-.19.15Z"/><path d="M61.23,97.3c.69.35.75.88.89,1.37-.49-.27-.78-.67-.89-1.37Z"/><path d="M49.44,86.94c.24.4.49.79.75,1.22-.55.09-.74-.17-.75-1.22Z"/><path d="M53.2,91.86c.21.28.41.56.65.88-.53-.01-.65-.14-.65-.88Z"/><path d="M58.96,97.69c-.2-.39-.35-.69-.57-1.1.62.25.73.47.57,1.1Z"/><path d="M51.22,88.54q-.45-.24-.51-.69.4.17.51.69Z"/><path d="M101.13,59.65c.48.77.49,2.37.08,3.12-.25-.33-.28-1.44-.08-3.12Z"/><path d="M99.8,63.31c.05-.72.09-1.44.15-2.27.46.55.44,1.57.04,2.28-.06,0-.13,0-.19,0Z"/><path d="M102.35,60.58c-.11-.63-.15-1.24.07-1.91.36.61.34,1.17-.07,1.91Z"/><path d="M102.38,49.27c.29.42.48.86.2,1.45-.39-.51-.33-.98-.2-1.45Z"/><path d="M100.63,46.74c-.28.48-.51.87-.82,1.4-.07-.91.08-1.16.82-1.4Z"/><path d="M101.97,52.16c-.08-.3-.41-.6.15-1.04.03.42.05.72.07,1.02-.07,0-.15.02-.22.02Z"/><path d="M100.39,49.09c-.27-.55-.07-.74.33-.86-.09.24-.18.48-.33.86Z"/><path d="M60.75,79.55c-.17-.02-.26,0-.32-.04-.76-.55-1.51-1.11-2.3-1.7.72-.11,2.14.84,2.62,1.75Z"/><path d="M59.09,79.6c1.05.37,1.68,1.02,2.36,1.79-.63-.05-1.77-.92-2.36-1.79Z"/><path d="M58.2,76.28c.83.16,1.5.57,1.89,1.37-.75-.27-1.3-.84-1.89-1.37Z"/><path d="M59.1,75.57c-.59-.4-1.17-.8-1.81-1.23.68-.17,1.57.38,1.81,1.23Z"/><path d="M66.28,87.98c-.71-.28-.98-.78-1.37-1.27.68.11,1.03.43,1.37,1.27Z"/><path d="M65.92,86.15c-.43-.24-.91-.43-1.11-1.05.64.17,1,.48,1.11,1.05Z"/><path d="M78.55,86.85c-.56-.72-.63-1.66-.2-2.61.23.94.11,1.78.2,2.61Z"/><path d="M79.77,87.9c-.26-.78-.36-1.48-.08-2.31.39.72.43,1.76.08,2.31Z"/><path d="M79.43,81.34c-.19-.91-.26-1.7.24-2.59.14.82.03,2.08-.24,2.59Z"/><path d="M77.27,85.23c-.37-.64-.34-1.3-.13-2.02.25.32.35,1.3.13,2.02Z"/><path d="M77.69,76.04c.1.77-.12,1.49-.33,2.28-.34-.59-.25-1.31.33-2.28Z"/><path d="M80.56,80.7c.1.53.35,1.05.06,1.67-.41-.61-.37-1.14-.06-1.67Z"/><path d="M76.93,75.25c.17.65-.15,1.06-.29,1.55-.36-.48-.31-.76.29-1.55Z"/><path d="M81.2,87.19c.02.26.05.53.06.79,0,.04-.04.09-.08.17-.33-.09-.34-.36-.33-.62,0-.14.1-.27.15-.41.07.02.13.05.2.07Z"/><path d="M61.63,93.05c1.02.15,1.91.94,2.11,1.9-.67-.6-1.33-1.2-2.11-1.9Z"/><path d="M62.78,95.24c.52.15.93.42,1.09,1.09-.6-.21-.86-.63-1.09-1.09Z"/><path d="M56.35,88.96c.89.21,1.46.7,1.96,1.41-.61.02-1.62-.71-1.96-1.41Z"/></svg>