<?xml version="1.0" encoding="UTF-8"?><svg id="Layer_1" xmlns="http://www.w3.org/2000/svg" viewBox="0 0 144.57 144.57"><path d="M39.86,109.68c-.07-.22-.17-.44-.29-.64-.11-.17-.26-.39-.43-.5.18-.24.34-.5.49-.76.06-.11.03-.39-.16-.28-.06.03-.11.15-.16.2-.06.08-.12.16-.18.24-.03.05-.07.11-.11.16-.06.08-.12.15-.17.24-.95-.49-2.35.32-2.99,1.02-.9.99-1.67,2.6-1.35,3.96.27,1.18,1.45,1.91,2.62,1.6,1.29-.34,2.29-1.46,2.6-2.74.2-.83.41-1.68.13-2.52ZM39.3,112.54c-.46,1.25-2.02,2.63-3.43,2.04-1.59-.66-1.25-2.66-.62-3.89.36-.7.86-1.35,1.53-1.77.36-.23.9-.48,1.34-.43.46.05.83.19,1.09.58.26.39.42.8.47,1.27.06.69-.14,1.54-.38,2.2Z" fill="#282929"/><path d="M38.86,109.34s-.04.02-.04.07c0,.11.07.27.09.38.06.25.09.51.06.77-.03.27-.14.52-.2.79-.02.07-.09.31-.03.38.18.2.36-.42.38-.5.12-.46.22-1.06.04-1.52-.05-.12-.14-.37-.3-.37Z" fill="#282929"/><path d="M38.68,112.21s-.04,0-.08.01c-.04.02-.07.06-.09.09-.08.1-.15.21-.23.31-.14.21-.29.41-.48.57-.21.17-.44.32-.7.41-.13.04-.31.06-.41.15-.05.05-.06.07,0,.12.14.13.48,0,.62-.07.2-.09.39-.22.57-.36.22-.18.44-.38.61-.61.08-.12.16-.25.2-.38.02-.06.06-.21,0-.24Z" fill="#282929"/><path d="M36.21,113.94s0,0,0,0c-.06-.1-.24-.15-.34-.2-.07-.04-.39-.35-.46-.22-.03.05.02.14.05.18.07.11.19.21.3.28.11.07.26.13.39.08.07-.03.1-.05.07-.11Z" fill="#282929"/><path d="M38.02,112.3s-.05-.04-.07-.03c-.21.1-.35.34-.52.5-.13.12-.3.21-.43.34-.09.09-.11.19.05.19.12,0,.23-.08.32-.15.15-.11.33-.21.45-.36.1-.14.25-.3.21-.49Z" fill="#282929"/><path d="M47.72,107.33c-.29-1.27-1.27-2.54-2.56-2.9-.63-.18-1.33-.05-1.82.39-.1.09-.15.17-.22.28-.15.24-.24.5-.29.77-.09.45-.07.9-.01,1.35.06.45.2.9.42,1.29.65,1.17,1.85,1.73,3.16,1.43.55-.13,1.04-.38,1.26-.92.21-.53.2-1.16.07-1.71ZM47.42,108.75c-.21.76-1,.98-1.72,1-.71.02-1.33-.28-1.8-.8-.2-.22-.37-.46-.5-.73-.2-.39-.34-.84-.36-1.28-.02-.48-.04-.98.14-1.44.08-.19.2-.34.32-.49.06-.06.14-.12.22-.17.71-.43,1.6-.16,2.22.29,1.05.76,1.85,2.29,1.49,3.61Z" fill="#282929"/><path d="M43.98,105.13s-.03.05-.05.06c-.05.04-.1.08-.16.1-.07.03-.37.06-.22.19.12.11.3.06.43,0,.12-.06.2-.16.24-.29.04-.11-.1-.2-.19-.13-.02.02-.04.04-.05.07Z" fill="#282929"/><path d="M45.03,105.19c-.08-.01-.13.09-.05.13.34.21.7.35.96.66.17.2.31.42.47.63.03.04.07.09.12.1.13.04.02-.19,0-.24-.07-.17-.12-.32-.23-.47-.1-.14-.22-.27-.35-.38-.26-.22-.58-.38-.91-.44Z" fill="#282929"/><path d="M47.13,108.12c-.02-.14-.16-1.18-.43-1.05-.05.03-.03.1-.02.16.09.41.28.83.26,1.25,0,.11-.02.22-.04.32,0,.03-.05.12-.04.15.06.15.25-.26.26-.3.04-.17.03-.36.01-.53Z" fill="#282929"/><path d="M46.55,109.28s-.1.03-.14.05c-.08.04-.17.08-.26.1-.04.01-.18,0-.18.06-.01.1.17.09.22.08.14-.01.32-.07.38-.21.03-.07.01-.09-.02-.09Z" fill="#282929"/><path d="M40.77,100.34c-.17-.15-.42-.3-.69-.38.1-.43.21-.86.37-1.28.03-.07-.04-.14-.11-.14-.2,0-.31.41-.36.56-.09.26-.14.52-.18.78-.17-.02-.37.03-.54.05-.17.02-.34.08-.5.15-.22.09-.42.22-.6.38-.37.32-.66.74-.89,1.18-.32.63-.44,1.27-.45,1.97-.01.65-.01,1.37.31,1.96.57,1.06,1.87,1.33,2.81.54,1.04-.89,1.64-2.47,1.61-3.82-.01-.7-.23-1.47-.76-1.95ZM38.59,106.29c-1.64-.05-1.68-2.43-1.46-3.59.17-.91.7-1.89,1.55-2.32.46-.24,1.12-.33,1.6-.09.39.2.65.56.8.96.25.64.28,1.37.15,2.04-.24,1.22-1.19,3.05-2.64,3Z" fill="#282929"/><path d="M39.67,100.64c-.11-.06-.26-.03-.37,0-.27.09-.56.27-.76.47-.04.05-.22.36-.08.36.02,0,.05-.02.06-.03.14-.12.28-.24.42-.35.1-.08.21-.16.33-.22.11-.05.24-.05.35-.09.08-.03.14-.1.04-.16Z" fill="#282929"/><path d="M40.54,102.15c-.01-.22-.04-.43-.12-.64-.04-.1-.09-.2-.17-.28-.1-.09-.2-.06-.16.09.03.08.07.16.1.24.11.31.15.65.14.98,0,.17-.02.33-.03.5,0,.06-.08.38-.04.42.12.12.27-.42.28-.48.04-.25.01-.48,0-.73,0-.04,0-.07,0-.11Z" fill="#282929"/><path d="M40.29,103.78c-.02-.08-.14-.08-.16,0-.09.3-.14.58-.3.86-.08.15-.17.29-.29.41-.06.06-.29.21-.25.31.05.13.34-.07.4-.12.15-.13.25-.31.34-.48.15-.27.35-.67.26-.98Z" fill="#282929"/><path d="M38.93,105.46c-.09.03-.17.08-.27.1-.1.02-.23.03-.32.01-.12-.02-.07.09-.01.14.11.08.27.08.4.06.14-.02.3-.08.31-.24,0-.05-.05-.09-.1-.07Z" fill="#282929"/><path d="M40.77,102.2s-.03,0-.05.03c-.05.05-.02.21-.01.28,0,.15.03.3.02.45-.03.43-.16.8-.29,1.2-.02.07.08.1.11.05.23-.32.32-.73.37-1.11.03-.21-.01-.45-.04-.66,0-.05-.04-.21-.1-.23Z" fill="#282929"/><path d="M121.27,49.88c-.03-.26-.07-.51-.09-.77-.07-.72-.06-1.49-.41-2.15-.17-.32-.45-.55-.62-.86-.18-.32-.09-.67-.21-1.01-.1-.29-.26-.59-.43-.86-.18-.29-.42-.53-.64-.79-.19-.22-.38-.42-.44-.72-.03-.18-.01-.36-.04-.53-.08-.58-.53-1.03-.93-1.43-.2-.2-.4-.38-.65-.52-.21-.12-.59-.36-.62-.45-.08-.23-.07-.48-.17-.71-.12-.3-.3-.58-.51-.83-.42-.52-.96-.94-1.51-1.31.19-.48-.23-1-.54-1.36-.27-.31-.58-.58-.88-.87-.18-.17-.39-.34-.54-.55.06-.03.12-.06.18-.1.07-.03.09-.12.08-.19-.23-.96-.87-1.78-1.41-2.6-.43-.65-.95-1.36-1.71-1.63.01-.11.03-.22.04-.33.02-.12.04-.23.06-.35.15-.99.23-1.98.37-2.97.07-.49.16-.99.27-1.47.11-.46.28-.89.43-1.34.22-.13.46-.23.69-.32,1.3-.52,2.62-1.07,3.96-1.49.98-.31,2.01-.56,2.95-.99.38-.17.11-.62-.07-.87-.03-.05-.07-.09-.11-.13-.26-.19-.72-.08-1-.01-.56.14-1.11.28-1.65.47-.93.31-1.84.65-2.74,1.02-.91.37-1.82.77-2.7,1.22-.15.08-.3.15-.45.23-.29.14-.57.28-.86.41-.04.02-.07.03-.11.04-.05,0-.1,0-.15,0-.94-.05-1.88-.07-2.82-.1-.12-.45-.46-.88-.75-1.19-.45-.49-1.09-1.06-1.78-1.16-.26-.04-.48.02-.7.16-.09.05-.16.17-.25.2-.18.06-.43-.08-.58-.15-.19-.09-.37-.19-.57-.25-.71-.23-1.35-.14-1.63.55-.54-.12-1.06-.28-1.6-.39-.36-.07-.85-.21-1.22-.07-.33.12-.38.45-.62.65-.3.24-1.09-.21-1.42-.32-.35-.11-.81-.27-1.17-.15-.31.11-.27.33-.44.55-.22.28-1.19,0-1.52-.06-.5-.09-.99-.21-1.5-.17-.05,0-.1.03-.11.08-.04.15-.07.29-.1.44-.48-.16-1-.14-1.5-.16-.39-.01-.79-.06-1.18-.07-.3,0-.74-.04-1.01.12-.1.06-.17.14-.22.25-.04.1.02.27-.01.33-.1.21-1.02.07-1.31.09-.32.03-.64.08-.95.16-.38.1-.93.43-.46.81.45.37,1.04.58,1.58.78.58.21,1.28.31,1.76.71-.53.93,1.89,1.49,2.67,1.69-.07.42.33.53.74.49.28-.03.55-.11.83-.18.4-.1,1.15-.36,1.5-.09.21.17.26.36.58.39.33.03.68-.12.98-.24.43-.18.84-.4,1.29-.54.48-.15.97-.28,1.43-.47.18.33.49.37.89.23.72-.26,1.4-.57,2.15-.71.37.86,2.28.27,2.89.13,1.42-.32,2.92-.5,3.43-2.08.01-.05,1,.03,1.1.04.19,0,.38.02.57.03.09,0,.19,0,.28.01.04,0,.08,0,.12,0,.01,0,.09,0,.09,0-.38.17-.75.34-1.13.51-.55.25-1.11.5-1.66.76-.98.46-1.96.92-2.95,1.36-1.45.64-2.94,1.21-4.48,1.58-1.46.36-2.95.58-4.43.8-3.04.46-5.96,1.16-8.86,2.2-.4.14-.79.29-1.18.45-.22.09-.44.17-.67.25-.29.1-.57.07-.83-.08-.24-.14-.42-.35-.61-.54-.24-.25-.5-.47-.79-.65-.51-.32-1.09-.54-1.69-.59-.78-.07-1.36.24-1.05.99-.64.37-1.3.71-1.88,1.16-.6.47-1.06,1.06-1.43,1.73-.05.1,0,.22.1.25.02,0,.28.12.28.13-.12.21-.22.43-.33.64-.1.2-.22.39-.3.61-.08.22-.15.44-.2.67-.05.22-.1.42-.13.64,0,0,0,.02,0,.03,0,0-.01.02-.02.02-.1.07-.2.14-.3.21-.14.09-.28.18-.41.27-.01,0-.03-.02-.05-.02-.21-.05-.42-.09-.62-.1,0,0,0,0,0-.01-.5-.8-.95-1.28-1.93-1.39-.35-.04-.72-.05-1.07,0-.32.05-.76.16-.94.45-.09.15-.13.32-.17.49-.02.1-.05.19-.1.28-.05.1-.11.14-.2.2-.17.11-.36.2-.52.32-.33.24-.71.55-.93.89-.18.27-.2.65.09.86.05.03.1.06.15.09.03.02-.03.21-.04.24-.04.11-.08.22-.13.33-.05.11-.09.22-.14.32-.02.05-.05.1-.07.15-.03.06-.06.15-.11.2-.04.04-.1.05-.15.07-.08.04-.17.06-.25.09-.24.09-.49.18-.73.27-.48.19-.96.38-1.44.59-.47.21-.97.36-1.47.48-.48.12-.95.24-1.42.4-1.06-.77-2.78-.1-3.77.47-.41.24-.8.51-1.17.79-.17.13-.37.27-.47.46-.19.38.15.59.47.72-.41.48-.94.84-1.3,1.37-.36.53-.62,1.15-.77,1.78-.32.06-.63.12-.95.26-.51.23-.99.51-1.47.81-1.42-.02-2.75.38-4.03,1-.41.2-1.76.62-1.4,1.24-1.38.58-2.62,1.34-3.65,2.45-.07.08-.04.18.06.22.06.02.11.04.15.06-.5.76-1.29,1.35-1.55,2.25-.71.02-1.42.22-2.06.49-.47.2-1.18.48-1.52.87-.26.3-.11.63.08.92-.93,1.07-2.28,1.73-3.2,2.85-.27.33-.54.76-.2,1.14.08.09.2.14.28.23.13.17.09.18.02.35-.1.24-.36.48-.53.68-.86,1.03-1.37,2.3-2.07,3.43-.32.51-.86,1.02-1.02,1.61-.05.17-.05.36.04.52.11.2.39.27.49.46.13.23-.18.46-.3.66-.2.32-.37.67-.53,1.01-.34.71-.65,1.44-.83,2.21-.01.06.02.13.08.14.3.07.61.13.91.21,0,0-.24,1.34-.25,1.47-.07.49-.11.99-.09,1.49.01.33.05.65.11.97.03.16.08.32.13.48.05.14.07.3.23.34.22.06.23-.35.25-.48.04-.24.09-.48.14-.72.11-.48.25-.95.44-1.4.08-.19.17-.37.27-.55.72.18,1.06-1.18,1.23-1.74.13.06.29.05.44.07-.46.96-1.01,1.85-1.52,2.79-.21.39-.48,1.07.04,1.2-.38,1.25-1.18,2.34-1.43,3.63-.01.07.02.14.09.16.13.04.24.06.34.04-.03,0-.1.32-.11.35-.04.12-.08.25-.11.37-.07.25-.14.49-.2.74-.12.49-.22,1-.27,1.5-.02.14-.03.29-.04.43,0,.13-.03.27.03.4.09.17.48-.09.57-.15.16-.1.3-.22.44-.35.28-.26.53-.56.75-.88.45-.65.78-1.37,1.09-2.09.06-.14.12-.29.18-.43.36.14.65.08.92-.26.41-.52.65-1.15.98-1.71.35.14.65.11.92-.2.5-.58.89-1.34,1.26-2.01.2-.36.38-.91.73-1.15.2-.14.42-.17.6-.35.48-.5.63-1.31.92-1.93.28.09.55.25.84.2.33-.06.53-.32.69-.59.21-.35.41-.73.54-1.12.14-.45.17-.92.25-1.38.67.24.9-.71.97-1.27.05-.4.07-.81.05-1.22-.04-.75-.3-1.54-.15-2.28.28.05.53-.22.7-.47.39-.59.48-1.25.48-1.95,0-.95-.23-1.92-.6-2.78-.19-.44-.41-1.18-.82-1.52,0-.01.01-.03.02-.04.28-.35.62-.65.94-.96.73-.7,1.4-1.46,2.12-2.17.72-.71,1.46-1.39,2.21-2.06.76-.67,1.53-1.32,2.31-1.96.23-.19.47-.39.71-.58.45-.37.89-.76,1.31-1.16-.16.27-.31.54-.45.83-.07.15-.13.37-.27.46-.15.1-.29.21-.44.31-.15.1-.3.2-.45.3-.3.21-.6.43-.88.66-.63.5-1.23,1.06-1.75,1.67-.51.6-.95,1.27-1.26,1.99-.31.73-.47,1.52-.45,2.31,0,.11.1.17.2.15.09,0,.18-.02.27-.03-.34.97-.83,2-.48,3.03.03.09.1.12.19.11.04,0,.07-.01.11-.02.04.84-.51,1.71-.65,2.53-.12.73-.22,1.59.17,2.26.04.07.14.1.22.06,0,0,0,0,0,0-.14.59-.24,1.19-.28,1.79-.04.65-.06,1.37.25,1.96.03.06.11.09.17.07.05-.02.1-.03.16-.04-.25.91-.44,1.85-.56,2.78-.06.49-.27,1.76.33,2.05-.42.99-.88,2-1.11,3.04-.12.54-.16,1.1-.15,1.66.01.48.1.95.08,1.43-.03.57-.25,1.09-.38,1.64-.11.48-.18.97-.2,1.46-.04.99.34,1.91.55,2.86.03.14.08.26.14.39.03.06.09.16.17.1.15-.1.2-.39.26-.55.07-.2.14-.39.2-.59.13-.4.24-.8.36-1.2.22-.72.45-1.42.59-2.16.09-.47.2-.92.36-1.37,0,0,0-.02.01-.02,0,0,.02,0,.02,0,.31.08.61-.04.83-.26.51-.51.71-1.35.89-2.03.17-.67.26-1.43.54-2.07,1.71.43,1.28-3.72,1.39-4.8.45-.02.82-.18.91-.69.14-.85-.08-1.78-.17-2.63-.03-.27-.09-.63,0-.89.06-.18.05-.11.18-.21.25-.2.45-.35.57-.67.02-.05.03-.1.05-.14.01.07.02.14.02.22,0,.24-.04.49-.07.73-.04.41-.08.81.09,1.19.03.08.16.09.22.03.03-.03.05-.06.08-.09.02.13.04.27.08.4.15.54.49,1.03.81,1.49.15.21.33.4.54.55.07.05.18,0,.2-.08.36-1.28.28-2.63.63-3.91.1.08.22.14.33.21.08.05.16,0,.19-.08.4-1.09.63-2.19.71-3.34.08,0,.16.02.22.04.05.01.12,0,.14-.06.6-1.26-.51-2.51-.2-3.76.53.07.52-.69.49-1.08-.08-1.04-.15-2.08-.31-3.11,1.33.06.66-3.94.49-5.08.66.06.97-.45,1.05-1.12.05-.45.03-.91.03-1.37,0-.29-.05-.78.14-1.05.78.23.8-1.27.83-1.97,1.44.36,1.58-2.98,2.3-3.6.34-.18.69-.36,1.03-.54.17-.09.33-.18.5-.26.16-.07.33-.19.5-.22-.07.12-.12.27-.18.4-.07.16-.15.32-.22.48-.07.15-.14.31-.21.46-.03.08-.07.16-.1.23-.02.05-.06.2-.1.23-.17.12-.37.2-.53.32-.25.18-.46.42-.65.67-.45.58-.88,1.18-1.27,1.8-.33.54-.78,1.16-.94,1.78-.05.2-.04.42.01.62.04.14.18.28.21.4.03.15-.17.52-.24.69-.12.32-.24.65-.36.98-.24.7-.5,1.44-.56,2.19-.04.43.08.93.52.89-.06.82-.85,3.18.15,3.33-.19.94-.62,3.5.47,3.59-.02.94-.29,1.81-.52,2.71-.12.46-.04.87.41.95-.28.94-1.48,4.1-.5,4.35.03,1.01-.18,2-.31,3-.07.53.09.9.59.91.02,1.04-.11,2.07-.09,3.1,0,.49.04.98.15,1.45.1.4.44,1.72,1.08,1.45.45-.19.74-.85.91-1.27.19-.45.36-.92.46-1.39.21-.99.15-2,.59-2.93,0,0,0,0,0,0,.04.05.13.05.18.02.56-.3.69-1.01.77-1.58.09-.67.05-1.4.21-2.06.08.04.16.08.24.13.06.03.16.03.2-.03.96-1.24.5-2.92.78-4.36.08,0,.17.02.23.04.09.02.17-.03.2-.11.45-1.29-.16-2.62,0-3.93.1,0,.2.02.29.03.08.02.19-.03.21-.12.24-1.18-.11-2.45-.49-3.58,1.25-.51.26-2.78-.29-3.74.57-.2.74-.77.68-1.41-.04-.38-.11-.78-.23-1.15-.07-.22-.17-.42-.25-.64-.12-.37,0-.43.22-.71.32-.42.22-1.01.15-1.5-.08-.6-.27-1.16-.5-1.72-.22-.52-.45-.99-.81-1.42-.21-.25-.44-.49-.65-.75-.1-.13-.2-.27-.27-.41-.06-.11-.17-.28-.12-.4.07-.17.17-.31.24-.48.08-.18.16-.36.24-.54.09-.21.19-.41.29-.62.1-.21.21-.39.31-.6,0-.02.02-.04.03-.06.06-.06.16-.1.24-.13.28-.14.56-.27.84-.39.25-.11.51-.21.77-.31-.34.74-.55,1.59-.7,2.37-.06.31-.27,1.42.25,1.45-.11.83-.56,1.73-.27,2.55.08.24.26.42.5.51-.18,1.09-.2,2.2-.34,3.3-.01.09.1.16.17.13.08-.03.18-.05.27-.07-.06.01-.07.72-.07.79,0,.3,0,.59.05.89.04.28.11.55.21.81.06.15.21.61.41.61.26,0,.44-.69.52-.88.16-.38.3-.77.41-1.17.11-.39.19-.78.23-1.18.02-.2.02-.39.02-.59,0-.13-.05-.35.01-.48.08.17.22.28.23.49,0,.31-.13.67-.2.96-.1.42-1.06,3.45-.19,3.62.06,1.04-.59,2.07-.2,3.1.03.07.1.12.18.1.1-.02.19-.04.28-.07.14.49.15,1.01.16,1.51,0,.5.01,1.01.01,1.51,0,.21.01.42.04.63.02.16,0,.6.21.65.07.02.14-.01.21-.05.2-.11.37-.25.58-.34.01.13,0,.27.01.4,0,.08,0,.15.02.23,0,.03.05.2.04.22-.15.19-.28.38-.42.59-.73,1.15-1.24,2.57-.93,3.94.08.33.18.6.36.88-.07.27-.2.48-.33.72-.02.04-.05.09-.1.1-.17.06-.34.11-.52.15-1.08.28-1.77,1.38-2.21,2.32-.58,1.24-1,2.88-.57,4.23.49,1.55,2.23,1.93,3.46.97,1.5-1.17,1.86-3.38,1.71-5.15-.06-.71-.15-1.59-.66-2.13-.21-.22-.47-.35-.78-.35.05-.21.15-.37.26-.56.3.3.68.49,1.14.49,1.02,0,1.83-.84,2.38-1.63-.15.33-.31.65-.45.99-.47,1.15-.72,2.37-1,3.57-.28,1.21-.47,2.41-.64,3.64-.1.7-.21,1.39-.36,2.07-.06.28-.16.53-.21.81-.06.34-.14.67-.23,1,0,.04-.02.07-.05.1-.03.02-.06.03-.1.04-.48.11-.91.41-1.19.8-.28.39-.51.83-.66,1.29-.39,1.24-.46,2.76,0,3.99.52,1.4,2.1,1.85,3.28.91,1.31-1.04,1.38-3.23,1.26-4.76-.07-.81-.37-1.63-1.1-2.07-.32-.2-.68-.23-1.04-.31.04-.63.26-1.28.43-1.89.15-.56.2-1.15.28-1.72.18-1.26.35-2.5.65-3.74.3-1.27.55-2.55,1.07-3.75.24-.56.52-1.1.77-1.66.18-.39.42-.84.51-1.29.06.04.79.36.81.29-.26,1.33-.26,2.71,0,4.05-.3.11-.52.27-.74.49-1.41,1.28-1.59,3.58-1.23,5.33.18.9.63,1.89,1.48,2.35.69.37,1.56.2,2.15-.29,1.27-1.05,1.37-3.15,1.15-4.65-.11-.76-.33-1.55-.74-2.21-.29-.46-.65-.8-1.18-.95-.04-.01-.55-.13-.55-.1-.08-.63-.11-1.26-.1-1.89,0-.57,0-1.22.09-1.78.02-.12.03-.24.03-.37,0,0,0,0,0,0,.43-.05.85-.26,1.22-.68,1.12-1.27,1.53-3.51,1.29-5.15-.1-.69-.39-1.46-.97-1.89-.12-.09-.25-.15-.39-.2.06-.16.08-.34.11-.5.08-.32.16-.64.24-.96.33-1.37.91-2.64,1.55-3.9.67-1.33,1.3-2.67,1.95-4.01-.23.98-.89,3.67.31,3.85-.07,1.51-.71,2.96-.74,4.49,0,.39.04.98.38,1.24.25.19.63.19.95.25-.51,1.88-.72,3.83-.87,5.76-.05.67-.1,2.49.93,2.08.07.57.12,1.14.21,1.71.05.33.1.66.2.98.06.18.27.86.54.7.08-.05.12-.13.18-.19.02-.02.24-.19.24-.19.38,1.71.41,3.57,1.35,5.09.07.11.2.11.29.04.78-.65.92-2.08,1.07-3.01.08-.52.14-.99.09-1.52-.03-.29-.1-.65-.02-.94.09-.29.36-.51.53-.75.4-.56.44-1.22.43-1.88,0-.65-.23-1.8.31-2.27.4-.35.56-.47.61-1.03.07-.67-.08-1.32-.25-1.96.17-.02.31-.02.5.09.1.06.21,0,.24-.1.55-1.6-.16-3.27-.74-4.76-.59-1.54-.48-3.25-1.12-4.77.12,0,.23-.02.35-.02.09,0,.16-.08.16-.16.08-1.25-.17-2.48-.56-3.67.17-.49.34-.97.52-1.45.45-1.22,1.01-2.37,1.58-3.53.47-.95.9-1.92,1.35-2.88,0,.09,0,.18-.02.27-.05.43-.14.85-.24,1.27-.18.74-.4,1.47-.58,2.21-.22.92-.41,1.9-.26,2.85.05.35.19.68.3,1.02-.09.03-.17.05-.25.1-.07.05-.15.09-.22.14-.14.1-.26.22-.37.35-.22.27-.39.59-.51.92-.24.65-.33,1.36-.35,2.05-.05,1.37.19,3.05,1.5,3.79,2.49,1.41,3.6-3.62,3.04-5.18-.28-.78-1.58-2.29-2.57-2.22-.18-.68-.33-1.33-.28-2.05.05-.76.23-1.5.42-2.24.19-.7.4-1.4.55-2.12.11-.55.32-1.34.13-1.89.15-.16.29-.31.43-.47,1.34-1.5,2.58-3.08,4.03-4.48.19-.18.38-.36.57-.53.16-.14.37-.26.52-.41.34-.26.69-.52,1.05-.77.85-.6,1.69-1.2,2.57-1.75.5-.31,1.02-.6,1.54-.89,1.1-.59,2.17-1.24,3.25-1.86,1.14-.65,2.29-1.28,3.41-1.98.59-.37,1.22-.67,1.84-.97-.54.6-1.16,1.12-1.73,1.7-.73.75-1.41,1.56-2.07,2.37-.18.22-.35.45-.52.68-1.5,2.08-2.42,4.51-3.21,6.93-.19.6-.33,1.2-.52,1.8-.36,1.15-.53,2.34-.8,3.52-.1.43-.2.87-.4,1.27-.1.2-.23.39-.35.57-.35.59-.79,1.12-1.2,1.67-.61.81-1.22,1.62-1.71,2.51-.99,1.81-1.16,3.72-.76,5.73,0,0,0,.02,0,.02-.59.23-.93,1.01-1.07,1.59-.22.9-.19,2.02.16,2.91-.29.8-.54,1.53-.99,2.27-.39.64-.82,1.26-1.24,1.88-.41.62-.83,1.23-1.14,1.9-.13.29-.28.55-.37.85-.11.37-.22.73-.37,1.09-.09.2-.2.17-.38.22-.18.04-.35.13-.51.22-.33.18-.62.43-.87.71-.41.45-.7,1-.85,1.59-.33,1.27-.82,3.42.33,4.44.94.84,2.29,0,2.85-.88.7-1.1.8-2.56.69-3.83-.06-.71-.16-1.88-.89-2.23-.01,0-.03-.01-.04-.03-.01-.02,0-.04,0-.06.21-.72.45-1.45.78-2.13.31-.64.72-1.23,1.11-1.83.23-.34.46-.67.69-1.01.22-.32.41-.69.67-.99-.15.42-.33.81-.44,1.24-.11.44-.2.89-.29,1.33-.4,1.97-.7,3.96-1.11,5.93-.41,1.94-1.03,3.83-1.5,5.76-.27,1.11-.49,2.23-.82,3.32-.17.55-.36,1.1-.59,1.62-.23.52-.57,1-.88,1.49-.34.54-.68,1.07-1.01,1.61-.55.89-1.14,1.75-1.69,2.64-.47.76-.96,1.47-1.65,2.05-.46.38-.91.76-1.33,1.17-.81.78-1.54,1.65-2.19,2.57-.67.95-1.27,1.95-1.77,3-.31.66-.51,1.32-.71,2.01-.02.08-.16.65-.25.65-.17.01-.34.06-.49.17-.62.31-1.14,1.12-1.42,1.63-.35.66-.58,1.37-.64,2.11-.06.74,0,1.69.4,2.34.72,1.16,2.05.48,2.7-.37.82-1.06,1.36-2.69,1.14-4.03-.06-.4-.19-.79-.41-1.13-.11-.16-.24-.31-.38-.44-.03-.03-.41-.3-.42-.23.21-.97.51-1.89.95-2.78.43-.87.94-1.71,1.49-2.51.65-.95,1.39-1.84,2.22-2.65.49-.48,1.02-.93,1.54-1.38,0,0-.19.52-.25.67-.09.24-.19.48-.29.73-.19.49-.36.98-.54,1.47-.33.95-.72,1.88-1.05,2.82,0,.02-.01.04-.03.06-.02.02-.05.03-.07.03-1.09.3-1.88,1.5-2.18,2.52-.36,1.2-.74,3.21.31,4.19.91.85,2.27.29,2.91-.6.8-1.13,1-2.9.68-4.23-.14-.57-.37-1.19-.79-1.61-.12-.12-.28-.22-.44-.28.53-1.2.95-2.45,1.4-3.68-.01.66.12,1.34.27,1.96.15.6.34,1.18.52,1.77.2.62.33,1.22.5,1.85,0,.01,0,.02,0,.03,0,.02-.02.04-.04.05-.33.23-.56.63-.77.97-.25.4-.36.93-.43,1.39-.17,1.05-.06,2.24.52,3.16.62.98,1.79,1.15,2.55.23.9-1.08.89-2.91.52-4.19-.22-.75-.95-1.75-1.84-1.68-.02,0-.04,0-.06,0-.02-.01-.03-.03-.04-.05-.19-.47-.34-.95-.5-1.44-.18-.59-.37-1.17-.54-1.76-.23-.82-.34-1.68-.31-2.53.01-.39.03-.79.18-1.15.17-.39.32-.77.51-1.15.33-.68.74-1.34,1.15-1.99.45-.7.91-1.4,1.35-2.1.35-.56.71-1.12,1.06-1.69.16-.25.33-.5.48-.76,0,0,.01-.01.02-.02-.05.19-.09.38-.14.56-.19.79-.31,1.58-.4,2.39-.21,1.77-.63,3.5-.82,5.27-.1.92-.07,1.84-.09,2.76-.02.92-.05,1.83-.05,2.75,0,1.74.1,3.51.56,5.19.23.85.56,1.66.82,2.5.19.6.3,1.22.41,1.84.1.57.33,1.17.32,1.75,0,0,0,.02,0,.03-.79.16-1.32.96-1.62,1.69-.41,1.01-.6,2.23-.38,3.31.23,1.15,1.29,1.85,2.42,1.37,1.33-.56,1.61-2.16,1.64-3.44.02-.81-.09-1.64-.63-2.26-.27-.32-.62-.55-1.01-.68-.3-1.17-.5-2.36-.81-3.52-.13-.47-.27-.93-.42-1.39-.59-1.78-.88-3.56-.94-5.43-.03-.95-.02-1.9,0-2.86.1-.84.09-1.71.11-2.53.04-1.3.33-2.57.6-3.84.15-.7.26-1.4.37-2.1.02,0,.04,0,.06,0-.1.98-.19,1.96-.12,2.94.08,1.16.34,2.31.68,3.42.29.95.77,1.82,1.1,2.75,0,.02.01.04,0,.05,0,.01-.02.02-.03.03-.3.19-.51.39-.66.73-.16.35-.21.73-.23,1.11-.06,1.12.06,2.38.51,3.41.51,1.16,1.79,1.86,2.87.91,1.12-.99,1.1-2.88.55-4.15-.32-.74-.83-1.56-1.53-1.99-.3-.19-.83-.35-1.17-.16-.08-.42-.3-.85-.49-1.23-.73-1.52-1.16-3.24-1.26-4.92-.08-1.35.07-2.71.18-4.06.04-.48.03-1.17.25-1.61.03.47.08.93.14,1.4.08.59.22,1.17.46,1.71.41.96,1.11,1.75,1.83,2.48.72.73,1.57,1.39,1.92,2.38.42,1.19.44,2.47.51,3.71.02.29.04.58.07.87.09.87.24,1.74.42,2.59.19.88.38,1.74.69,2.59-.31.24-.55.51-.7.87-.56,1.35-.53,3.17.3,4.42.65.99,1.99,1.21,2.88.4,1.08-.98.93-2.75.38-3.96-.47-1.03-1.52-2.17-2.6-1.85-.63-1.88-1.07-3.87-1.17-5.84-.06-1.02-.06-2.04-.25-3.05-.06-.32-.15-.61-.24-.92.3.31.59.61.88.92.25.27.54.54.8.81-.5.72-.78,1.43-.73,2.32.04.88.33,1.74.75,2.51.12.21.25.42.41.59.64.66,1.9.97,2.59.25.52-.54.61-1.42.6-2.14-.03-1.75-.98-3.63-2.94-3.73-.05,0-.42.04-.41.05,0,0-.01-.02-.02-.03-.9-.87-1.58-1.92-2.46-2.81-.8-.81-1.66-1.58-2.36-2.49-.8-1.04-1.2-2.17-1.26-3.47-.06-1.13.03-2.24.22-3.35.16-.94.32-1.89.55-2.81.07-.23.13-.46.17-.69.06-.24.1-.49.14-.74.07-.27.14-.54.2-.82.19-.94.44-1.87.69-2.79,0,.75.07,1.5.18,2.23.18,1.14.34,2.29.9,3.32-.03.02-.05.04-.07.06-.96.35-1.23,1.81-1.35,2.69-.16,1.24-.29,3.38.99,4.13,1.06.62,2.3-.14,2.71-1.18.51-1.3.4-2.92-.11-4.21-.22-.54-.52-1.16-1.03-1.48-.25-.16-.56-.22-.84-.15,0,0,0,0,0-.01-.51-.99-.67-2.1-.84-3.19-.14-.88-.24-1.76-.17-2.65.07-.89.24-1.77.45-2.64.29-1.19.53-2.4.76-3.6.3-1.56.69-3.05,1.36-4.49.57.43,1.34.59,2,.18,1.11-.7,1.26-2.28.9-3.42-.26-.82-.78-1.56-1.47-2.06-.01-.01-.03-.02-.04-.04,0-.02,0-.04,0-.06.1-.31.13-.63.22-.94.1-.36.18-.73.27-1.1.18-.72.37-1.44.68-2.12.56-1.23,1.13-2.48,1.62-3.74.45-1.14.82-2.3,1.09-3.49.02.26.04.51.06.76.06.82.16,1.63.29,2.44.28,1.76.47,3.55.38,5.33-.09,1.75-.77,3.35-1.42,4.95-.62,1.56-1.04,3.17-1.27,4.83-.13.93-.2,1.87-.21,2.81,0,.74.09,1.48.11,2.21-.37.24-.62.47-.82.87-.17.34-.27.71-.36,1.08-.28,1.24-.41,2.96.39,4.04.75,1.01,2.17.74,2.82-.22.97-1.41.76-3.88-.38-5.12-.32-.35-.79-.68-1.29-.71-.01,0-.03,0-.04-.01-.01-.01-.02-.03-.02-.05-.03-.51-.07-1.03-.08-1.54-.02-.89.03-1.78.13-2.66.2-1.71.57-3.39,1.19-5,.6-1.55,1.33-3.07,1.54-4.73.1-.74.12-1.49.1-2.24.14.42.29.82.47,1.22.46,1.02.78,2.1.98,3.2.19,1.04.27,2.09.31,3.14.02.53.03,1.07.04,1.6,0,.51.07,1.05.02,1.55-.99.14-1.26,1.52-1.46,2.33-.23.95-.26,1.97.09,2.89.41,1.09,1.58,1.33,2.5.65,1.18-.88,1.07-2.82.84-4.1-.1-.57-.34-1.2-.84-1.54-.24-.16-.56-.25-.88-.25.03-2.1.08-4.21-.28-6.28-.18-1.03-.46-2.04-.87-3-.31-.73-.67-1.49-.88-2.26-.18-.68-.23-1.39-.32-2.08-.12-.96-.26-1.92-.35-2.89-.12-1.33-.16-2.6.11-3.92.25-1.22.61-2.41,1.02-3.58.39-1.12.78-2.25,1.31-3.31.52-1.04,1.12-2.05,1.81-2.99.69-.95,1.52-1.79,2.29-2.68.49-.56,1.01-1.1,1.47-1.69.33-.42.61-.86,1-1.22-.13.23-.27.46-.4.69-.45.78-.78,1.61-1.06,2.47-.29.89-.62,1.79-.82,2.7-.2.9-.41,1.79-.63,2.69-.68.42-1.13,1.14-1.52,1.83-.23.41-.47.86-.55,1.32-.07.39.09.63.19.99.11.39-.2.8-.3,1.18-.1.37-.17.77-.22,1.15-.03.25-.05.51.13.71.16.17.38.17.6.16-.13.84-.47,1.65-.59,2.5-.03.22-.04.44.11.61.14.17.32.19.52.21-.38,1.14-.44,2.37-.14,3.54.05.2.64-.08.81-.08-.07,1.1-.25,2.2-.07,3.29.1.57.28.78.72.54.09.4.12.81.24,1.19.11.34.2.69.35,1.02.16.37.39.9.69,1.17.07.07.27.12.31-.02.36-1.16.38-2.59.09-3.78.36.08.56-.13.59-.59.03-.43.06-.86.08-1.29.01-.32,0-.64.02-.97,0-.17-.06-.33.12-.44.16-.1.38-.06.51-.23.18-.24.17-.77.21-1.05.18-1.2,0-2.26-.29-3.42,1.34-.37-.42-3.73-.99-4.62.67-.46.26-1.77.06-2.37-.03-.08-.06-.16-.09-.24.08.1.19.17.34.17.04.66.06,1.32.19,1.96.08.39.22.75.34,1.13.05.15.07.32.18.45.13.15.22.11.38.16.23.07.15,0,.29.15.1.11.13.28.19.42.22.53.55.96.89,1.42.24.32.47.81.88.96.16.06.27.03.43.02.37-.03.55.04.79.33.31.37.59.94,1.06,1.14.28.12.54-.02.79-.15.29.55.67,1.05,1.02,1.56.29.42.59.87.99,1.19.12.09.24.18.39.18.12,0,.28-.17.38-.15.28.07.4.85.49,1.08.1.24.23.5.48.61.38.17.62-.2.96.15.2.21.32.52.5.76.15.19.3.38.45.57.16.2.32.39.51.55.12.1.55.61.75.46,0,0,0,0,.01,0,.05-.04.05-.12.04-.19ZM102.09,24.76c-.48.11-2.56.75-2.72,0-.02-.09-.11-.12-.19-.11-.57.09-1.11.28-1.65.48-.32.12-1.04.61-1.22.09-.04-.1-.13-.14-.23-.09-.75.34-1.57.46-2.31.81-.33.16-.66.34-1.01.43-.26.07-.45.09-.66-.13-.05-.06-.07-.14-.13-.2-.37-.32-1.25-.03-1.66.06-.24.05-1.44.46-1.24-.05.03-.08-.03-.17-.11-.19-.39-.11-3.09-.76-2.59-1.35.05-.06.06-.15,0-.21-.42-.41-.98-.55-1.53-.71-.44-.14-.88-.28-1.31-.47-.2-.09-.43-.18-.6-.31-.28-.22.18-.42.35-.45.3-.06.6-.12.9-.14.38-.03.76.08,1.13,0,.16-.03.33-.09.39-.26.08-.23-.07-.45.28-.52.35-.07.74-.04,1.09-.02.75.04,1.64-.05,2.34.24.08.03.14-.05.14-.11.02-.14.06-.27.08-.41,0,0,0-.01,0-.02,0,0,.01,0,.02,0,.21-.03.41,0,.62.03.27.04.53.11.79.16.37.07.76.17,1.13.21.27.03.46-.03.61-.27.14-.22.18-.44.5-.44.3,0,.6.12.88.22.51.18,1.3.72,1.71.16.16-.21.26-.47.54-.53.25-.05.61.04.84.08.62.12,1.22.32,1.84.45.09.02.18-.03.2-.12.34-1.15,1.45-.24,2.14-.06.19.05.41.06.59-.03.26-.14.39-.35.73-.29.55.09,1.08.58,1.46.97.26.27.62.63.79,1.03-.4,0-.8-.01-1.21,0,0,0,0-.02,0-.03,0,0,0,0,0,0-.04-.3-.24-.58-.44-.81-.19-.22-.4-.48-.68-.56-.06-.02-.11.04-.1.1.08.36.49.6.69.9.06.09.12.19.16.29.01.03.02.07.04.11-.02,0-.05,0-.07,0-.78.03-1.55.09-2.32.19-.02-.31-.34-.73-.47-.9-.23-.31-.64-.78-1.06-.82-.13-.01-.17.15-.1.23.12.13.29.22.42.34.16.14.3.31.44.48.13.17.25.35.34.54.03.06.05.12.07.18-.71.09-1.42.2-2.12.32-.33.05-.66.11-.99.17.05,0-.2-.64-.23-.7-.12-.22-.27-.43-.44-.62-.17-.19-.35-.37-.55-.54-.09-.08-.41-.32-.43-.03,0,.1.13.19.19.25.17.16.34.32.5.5.31.34.57.73.66,1.19-.98.17-1.96.33-2.94.46,0,0,0,0,0,0-.14-.5-.42-.95-.77-1.34-.19-.22-.38-.44-.61-.62-.11-.09-.61-.37-.52.01.02.09.12.18.18.24.17.17.38.3.55.48.37.37.63.78.82,1.27-1.07.13-2.15.2-3.23.16.01-.4-.37-.98-.53-1.24-.14-.22-.31-.41-.49-.6-.1-.1-.37-.37-.52-.34-.1.02-.12.1-.1.18.04.16.25.27.35.38.21.21.37.45.52.7.13.21.25.44.33.67.03.07.04.15.07.22,0,0,0,0-.01,0-.65-.04-1.29-.11-1.94-.24-.21-.04-.41-.09-.62-.14-.13-.27-.4-.51-.58-.7-.12-.12-1.12-1.11-1.22-.73-.03.13.13.23.21.3.24.21.49.42.71.65.1.1.19.2.28.31-.59-.18-1.17-.38-1.76-.56-.49-.15-.99-.29-1.49-.39-.09-.02-.69-.17-.65.06.01.08.13.1.19.12.17.05.34.06.51.1.44.11.87.25,1.3.4.75.25,1.49.53,2.26.74-.01.03-.03.06-.05.09-.08.1-.19.19-.3.26-.19.13-.44.22-.6.38-.07.07-.02.21.08.2.33-.04,1.08-.42,1.22-.84.75.18,1.52.29,2.29.36-.2.47-.55.87-1,1.12-.05.03-.13.13-.07.19.18.2.87-.36.97-.49.1-.12.2-.25.28-.39.02-.04.18-.41.19-.41.65.04,1.3.03,1.96-.01.43-.03.86-.07,1.29-.12-.09.28-.26.49-.47.72-.12.14-.32.28-.37.47-.06.24.15.13.26.05.2-.14.38-.33.53-.52.19-.23.35-.48.4-.76,1.01-.13,2.01-.29,3.01-.46-.02.12-.04.24-.09.35-.12.26-.33.44-.44.71-.05.12.04.23.16.15.26-.17.46-.44.59-.72.07-.15.16-.36.16-.55,1.03-.18,2.06-.35,3.09-.48-.04.15-.09.29-.17.43-.14.24-.32.44-.48.67-.07.09-.21.39.02.38.11,0,.21-.15.28-.22.2-.22.4-.46.53-.73.07-.15.18-.37.18-.56.53-.06,1.06-.12,1.6-.15.21-.01.42-.02.62-.03-.08.16-.17.32-.28.47-.19.26-.42.46-.64.69-.12.12-.18.43.09.32.18-.07.34-.27.47-.4.32-.31.6-.67.75-1.09.46,0,.92,0,1.37,0-.48,1.32-1.8,1.47-3.02,1.74ZM63.8,46.18c.29.52.51,1.1.67,1.67.16.57.41,1.46.04,1.96-.18.25-.35.37-.29.7.06.37.27.7.37,1.05.18.66.5,1.9-.46,2.03-.11.02-.16.17-.11.26.4.61,1.71,3.18.46,3.48-.09.02-.15.13-.12.22.36,1.05.76,2.28.59,3.41-.11-.01-.22-.02-.34-.03-.07,0-.15.06-.16.12-.22,1.31.39,2.65.03,3.93-.06,0-.12,0-.24-.02-.08-.01-.17.02-.2.11-.3,1.34.18,3.07-.66,4.25-.09-.05-.18-.09-.26-.16-.1-.09-.24-.05-.28.07-.19.56-.16,1.2-.2,1.78-.04.56-.06,1.46-.55,1.85-.01-.02-.03-.04-.04-.06-.06-.09-.2-.1-.26,0-.66,1.16-.46,2.5-.87,3.74-.14.42-.29.84-.49,1.23-.11.22-.24.47-.44.63-.06.05-.15.1-.23.08-.17-.04-.28-.32-.34-.46-.37-.84-.42-1.78-.39-2.69.03-.91.14-1.83.1-2.74,0-.11-.09-.16-.19-.14-.73.1-.3-1-.24-1.39.11-.76.19-1.58.15-2.34,0-.08-.06-.15-.15-.15-.69,0,.58-3.71.71-4.17.03-.1-.05-.19-.15-.2-.64-.01-.14-.95-.06-1.3.17-.71.29-1.48.28-2.21,0-.11-.1-.16-.19-.15-.91.15-.33-2.94-.23-3.41.03-.13-.08-.22-.2-.2-.69.1.08-2.81.01-3.26-.01-.08-.13-.15-.21-.12-.64.24-.13-1.42-.05-1.68.21-.72.47-1.42.74-2.12.1-.27.22-.49.11-.76-.05-.11-.12-.15-.16-.29-.06-.22-.02-.43.06-.64.16-.38.38-.75.59-1.11.45-.77.96-1.51,1.51-2.2.2-.25.41-.44.65-.61-.42,1.02-.77,2.06-.95,3.15-.28.17-.5.48-.71.73-.2.24-.43.5-.52.8-.03.1.1.16.17.1.24-.21.41-.51.63-.76.11-.12.24-.24.36-.37-.1.86-.08,1.72-.02,2.59-.32.15-.49.56-.64.85-.2.39-.45.76-.64,1.16-.1.2-.18.41-.22.63-.02.11-.05.22-.04.33.01.13.03.23.13.12.13-.14.18-.35.25-.52.12-.3.24-.6.4-.88.16-.28.32-.56.51-.82.08-.12.21-.23.29-.35.1,1.15.25,2.31.3,3.46,0,.25,0,.49,0,.74-.5.42-.83.92-1.15,1.49-.32.57-.64,1.23-.74,1.89-.02.11.13.19.19.08.28-.5.47-1.07.72-1.59.24-.52.57-1.01.97-1.41-.04.83-.13,1.65-.17,2.49-.04.68-.06,1.36-.06,2.05,0,0-.01.01-.02.02-.45.79-1.28,1.7-1.15,2.68,0,.07.13.07.14,0,.1-.5.32-1.01.56-1.46.13-.24.31-.46.46-.7,0,.36,0,.72.01,1.07.02,1,.07,2.01.08,3.01-.47.35-.85.8-1.15,1.29-.29.47-.63,1.05-.69,1.61,0,.04,0,.11.05.11.03,0,.05-.03.06-.05.56-.87.91-1.86,1.73-2.54-.05.04,0,.44,0,.51,0,.17,0,.34-.01.51-.01.34-.03.68-.06,1.01-.02.29-.05.57-.09.86-.03.24-.11.46-.13.71-.03.33-.25.43-.47.65-.23.24-.45.5-.66.76-.4.52-.77,1.11-.84,1.77-.01.13.18.14.21.03.23-.68.56-1.26,1.02-1.82.19-.22.38-.44.59-.65.01-.01.02-.02.03-.03-.22,1-.47,1.99-.58,3.02-.06.57-.09,1.14-.11,1.72-.18.11-.31.46-.37.61-.14.34-.22.69-.28,1.05,0,.05.06.07.08.02.16-.44.28-.89.54-1.28,0,.56-.03,1.13.05,1.69,0,.03.02.06.04.06.01,0,.02,0,.03-.01.05-.04.06-.11.07-.17.04-.34.08-.66.09-1,0-.15-.01-.32.03-.46.24.34.25.74.48,1.08.03.05.13.02.1-.04-.11-.3-.17-.63-.28-.93-.06-.17-.15-.38-.29-.51.02-.43.04-.86.08-1.28.09-1.17.33-2.28.6-3.41,0-.02,0-.03.01-.05.17.33.32.67.43,1.04.08.28.14.57.21.86.04.15.07.3.12.44.04.13.16.27.19.08.04-.2-.07-.45-.11-.64-.06-.25-.11-.51-.17-.76-.12-.49-.27-.99-.58-1.4.29-1.39.41-2.79.42-4.2.26.17.45.37.63.67.38.64.55,1.36.78,2.06.02.07.14.06.13-.02-.02-.65-.29-1.32-.56-1.9-.19-.42-.5-1.01-.98-1.17,0-.56-.01-1.12-.04-1.69-.04-.84-.06-1.68-.05-2.52.76.61,1.28,1.57,1.61,2.45.04.11.22.07.19-.05-.28-1.04-.93-2.1-1.8-2.75,0-.27,0-.53.01-.8.03-1.18.16-2.35.23-3.52,0-.09,0-.17,0-.26.12.1.25.18.37.29.25.23.47.49.67.76.33.44.56.96.9,1.39.04.04.09,0,.09-.05-.11-.61-.53-1.22-.9-1.69-.24-.31-.68-.9-1.11-1,.02-1.47-.2-2.92-.32-4.39.14.09.29.16.42.25.27.19.51.4.74.64.43.44.8.94,1.2,1.42.06.07.19-.03.13-.1-.41-.55-.79-1.12-1.24-1.62-.33-.36-.79-.84-1.28-.98-.04-.53-.06-1.07-.04-1.61,0-.4.05-.8.11-1.2.21.12.44.2.63.37.22.2.4.43.56.68.29.43.53.91.89,1.28.07.07.18-.02.13-.1-.28-.47-.51-.98-.81-1.44-.16-.25-.34-.49-.56-.69-.07-.07-.77-.49-.77-.46.05-.48.21-.96.35-1.41.15-.46.31-.91.46-1.37.21.3.46.58.71.86.24.27.54.57.69.91ZM69.82,79.94c.64.36.9,1.08.96,1.77.11,1.28.08,3.08-.78,4.12-.96,1.16-2.61.91-3.07-.55-.32-1.01-.3-2.18-.06-3.2.14-.59.37-1.19.75-1.67.5-.62,1.49-.87,2.2-.48ZM87.98,47.55c.6.26,1.09.8,1.42,1.35.1.17.19.34.25.52.33.99.06,2.24-.3,3.19-.33.86-1.1,2.12-2.19,1.52-1.11-.61-1.34-1.98-1.35-3.13,0-.8.08-1.62.36-2.38.07-.17.14-.35.23-.51.09-.17.18-.32.33-.44.12-.1.25-.18.4-.22.28-.08.58-.03.85.09ZM90.1,68.87c.05,1.37-.18,3.16-1.45,3.96-.65.4-1.42.42-1.85-.29-.47-.78-.37-1.86-.22-2.72.18-1.08.48-2.07,1.31-2.84.2-.19.42-.35.68-.46,1.49-.6,1.5,1.41,1.53,2.35ZM77.47,97.47c.26.43.38.97.38,1.47,0,1.31-.64,3.25-1.88,3.89-1.88.97-1.69-2.57-1.39-3.5.3-.93,1.08-2.54,2.25-2.41,0,0,.01,0,.02,0,.28.09.48.31.63.55ZM81.55,93.49c.21.14.35.42.45.63.23.45.38.95.41,1.45.11,1.42-.14,3.73-1.78,4.21-.77.22-1.48-.14-1.74-.9-.27-.78-.14-1.71.02-2.5.13-.66.33-1.27.7-1.83.27-.41.63-.84,1.08-1.05.21-.1.48-.14.71-.07.05.01.09.04.14.07ZM84.42,95.27c.41-.13.83.08,1.12.36.61.59.8,1.57.83,2.39.02.79-.1,1.68-.54,2.36-.4.61-1.19.93-1.8.39-.79-.7-.95-2-.86-2.98.05-.55.18-1.11.43-1.61.17-.33.41-.75.78-.89.01,0,.03,0,.04-.01ZM89.79,106.19c.55.7.63,1.68.53,2.53-.1.82-.28,1.88-1.01,2.39-.62.44-1.52.56-2.06-.07-.72-.83-.5-2.35-.24-3.31.21-.77.72-2.06,1.64-2.1.46-.02.85.2,1.13.56ZM91.46,93.47c.56.6,1,1.39,1.17,2.19.17.8.15,1.8-.28,2.52-.48.82-1.49,1.24-2.27.54-.87-.78-1-2.24-1.03-3.34-.02-.51-.05-1.04.1-1.54.06-.23.17-.47.36-.62.14-.12.29-.21.43-.26.55-.21,1.08.01,1.54.51ZM94.98,98.78c.52-.17,1.16.1,1.54.51.48.51.81,1.18.98,1.86.2.79.19,1.71-.26,2.42-.38.59-1.07.94-1.76.74-1.26-.36-1.54-2.16-1.48-3.28.03-.63.09-1.38.5-1.9.14-.18.3-.29.49-.35ZM95.39,90.52c.42-.15.93-.05,1.3.18.47.28.84.67,1.1,1.12.44.73.62,1.74.53,2.58-.08.81-.46,1.82-1.44,1.71-1.14-.12-1.73-1.23-2.04-2.22-.24-.76-.41-1.62-.16-2.41.11-.35.34-.83.71-.96ZM92.98,75.94c.26.09.47.32.63.54.33.46.54,1.01.68,1.55.33,1.25.41,3.46-.85,4.24-.58.36-1.36.35-1.83-.2-.56-.65-.61-1.73-.59-2.54.02-1.07.15-2.86,1.21-3.47.25-.08.47-.21.75-.12ZM97.71,65.79c.26.01.51.16.7.32.56.48.94,1.11,1.07,1.85.22,1.26.18,3.51-1.38,3.9-1.9.47-1.96-2.35-1.83-3.53.06-.56.16-1.14.38-1.66.14-.34.39-.67.74-.83.1-.05.21-.06.31-.06ZM102.76,60.3c.25.05.55.2.72.39.46.52.53,1.3.58,1.96.1,1.23-.17,3.48-1.91,3.29-1.46-.15-1.27-2.61-1.02-3.6.2-.8.5-2.26,1.63-2.05ZM81.54,31.39c-.19.09-.37.18-.56.27,0-.09,0-.18,0-.27,0,0,0,0,0,0,.19,0,.37,0,.56,0ZM74.71,33.45c.05-.07.02-.2-.06-.23-.11-.05-.2-.11-.29-.16.78-1.28,1.94-1.93,3.22-2.68.08-.05.11-.16.06-.24-.23-.44-.09-.63.38-.64.3,0,.61.04.89.12.4.11.76.32,1.1.57.17.13.34.26.49.4.15.14.27.29.41.44-.09,0-.17.02-.26.03-.13.01-.26,0-.39.03-.12.02-.24.04-.35.06-.28-.23-.76-.33-1.09-.39-.3-.06-.72-.08-.95.17-.04.04-.02.13.05.13.37-.03.67-.06,1.05.04.15.04.31.12.46.18-.43.13-.85.31-1.23.56-.27.17-.49.38-.69.62-.3-.15-.78.04-1.07.15-.39.15-.73.37-1.02.67-.09.09.04.22.14.14.31-.25.69-.46,1.07-.58.22-.07.47-.12.7-.13-.07.08-.12.17-.18.27-.25.42-.48.85-.71,1.29-.01.02-.02.04-.04.05-.02.02-.04.03-.06.04-.19.1-.39.19-.58.29-.2.1-.39.23-.59.33-.31.18-.63.34-.93.53-.18.11-.36.23-.54.34.13-.87.5-1.64.99-2.37ZM77.75,32.7c.11-.14.22-.27.36-.38.46-.39.99-.63,1.56-.76-.03.1-.06.2-.11.3-.07.13-.16.25-.21.39-.02.06.05.09.09.07.16-.07.28-.27.36-.41.07-.13.14-.26.15-.41.24-.04.48-.07.73-.09,0,.14,0,.28.01.41-.28.15-.57.3-.85.47-.57.33-1.13.68-1.7,1.02-.04-.14-.12-.27-.21-.38-.05-.07-.12-.16-.19-.22ZM77.87,33.47c-.3.19-.61.37-.91.55.09-.15.17-.3.25-.45.11-.21.23-.42.36-.61.03.04.06.07.09.11.09.13.15.26.22.39ZM72.29,36.75c-.1.06-.19.13-.29.19-.35.23-.7.45-1.06.66.15-.26.23-.61.19-.89.38-.06.77-.04,1.16.04ZM66.54,38.98c.03-.06.14-.24.16-.38.02-.08,0-.14-.05-.17-.3-.14-.51-.3-.32-.66.06-.12.21-.25.31-.34.22-.21.45-.42.72-.58.41-.26.68-.35.75-.84.15-.91,1.45-.87,2.18-.74.69.12,1.08.55,1.39,1.12-.01-.02-.25,0-.28.01-.1,0-.19.02-.29.04-.01,0-.03,0-.04,0,0,0,0-.01-.01-.02-.35-.23-.83-.3-1.24-.32-.24-.01-.48,0-.71.06-.11.04-.22.09-.31.16-.08.06-.2.2,0,.15.58-.14,1.21-.1,1.77.1-.32.08-.75.29-.99.53-.2.15-.41.31-.58.48-.01.01-.02.02-.04.03-.01,0-.02,0-.04,0-.37-.05-.64,0-.98.18-.26.14-.51.32-.72.53-.07.07.02.19.1.13.23-.17.48-.29.74-.4.23-.1.46-.13.7-.16,0,0-.01.01-.02.02-.13.16-.24.32-.35.49-.12.19-.22.39-.34.59-.02.04-.05.08-.09.1-.08.04-.18.06-.26.09-.16.06-.33.12-.49.18-.18.06-.35.12-.53.18-.09.03-.18.06-.27.09-.07.03-.14.07-.22.08l.33-.73ZM70.74,37.44c-.06.14-.12.26-.21.36-.05.05-.1.1-.17.13-.33.18-.68.35-1.02.52-.01,0-.02,0-.03,0-.01,0-.01-.02-.01-.03,0-.07,0-.15-.03-.22-.03-.1-.06-.22-.11-.31.24-.28.52-.53.84-.74.28-.18.57-.31.88-.38.02,0-.1.62-.12.67ZM69,38.64c-.2.09-.4.18-.6.27.17-.25.34-.5.52-.74,0,.03.02.05.02.08.03.11.04.23.05.35,0,.02,0,.03.01.05ZM61.07,41.9c.08-.02.28-.09.28-.09-.16.1-.33.18-.49.27,0,0-.01,0-.02,0,0,0-.01,0-.02-.01l-.09-.09c.11-.03.22-.06.33-.09ZM60.39,42.08s.02.03.04.04c.04.03.08.07.11.1,0,0,.02.02.03.03-.96.56-1.9,1.17-2.8,1.83-.28.2-.55.41-.81.62.12-.21.23-.43.36-.63.32-.51.72-.94,1.23-1.25.55-.34,1.16-.53,1.77-.72.02,0,.05-.01.07-.02ZM53.76,46.81c.06-.15.12-.3.19-.44.14-.29.3-.57.5-.82.38-.5.89-.87,1.3-1.33.05-.05.05-.16-.02-.19-.22-.1-.58-.2-.45-.49.09-.2.43-.38.6-.5.46-.33.94-.65,1.46-.88.87-.39,1.79-.6,2.68-.3-.04.01-.08.02-.11.04-.48.15-.96.32-1.4.58-.42.24-.92.31-1.35.52-.33.17-.64.38-.93.62-.09.07.03.22.12.16.28-.19.57-.34.88-.48.14-.06.28-.12.43-.16-.47.46-.85,1.02-1.11,1.61-.03.08-.07.16-.09.24-.03.08-.04.16-.1.23-.07.07-.15.13-.22.2-.24.21-.47.42-.72.63-.11.09-.22.18-.33.27-.2.17-.41.33-.61.51-.09.08-.18.16-.27.24-.07.06-.13.17-.23.2-.04.02-.32,0-.33.05.04-.16.07-.33.13-.49ZM51.09,48.72c.39-.23.78-.46,1.18-.66.31-.16.62-.31.96-.38.11-.02.22-.04.33-.05-.26.24-.51.48-.76.72-.79.74-1.58,1.49-2.38,2.22.07-.09.13-.19.18-.28.18-.34.59-1.12.49-1.56ZM42.4,53.38c.05-.07,0-.15-.07-.18-.04-.02-.08-.03-.11-.05,1.02-1.05,2.23-1.78,3.58-2.32.08-.03.12-.12.07-.2-.06-.1-.18-.16-.07-.28.11-.12.25-.18.39-.25.13-.06.27-.12.4-.18.49-.24.97-.49,1.48-.7.8-.32,1.62-.46,2.46-.53-.71.45-1.42.9-2.12,1.38-.11-.09-.32-.09-.46-.09-.14,0-.29.05-.43.08-.4.08-.74.16-1.1.35-.09.05-.13.15-.02.2.06.03.16-.01.22-.02.17-.04.32-.13.49-.18.33-.1.67-.17,1.01-.14-.33.23-.66.47-.98.72-.57.43-1.09.9-1.6,1.39,0,0,0,0,0,0-.52-.01-1.1.21-1.56.42-.42.19-.97.47-1.25.85-.04.05.04.1.08.07.67-.53,1.55-.9,2.41-1.02-.23.23-.46.46-.69.69-.88.9-1.81,1.78-2.97,2.31,0,0-.01,0-.02.01-.24-.04-.49-.06-.73-.07.42-.83,1.08-1.48,1.59-2.25ZM42.6,60.43c.26.62.46,1.24.58,1.9.11.64.2,1.44.05,2.08-.04.18-.45,1.27-.76.98-.09-.09-.24-.05-.28.07-.29.97.12,2,.11,2.99,0,.41-.01,2.16-.75,1.67-.09-.06-.22,0-.24.1-.15.74-.19,1.48-.51,2.18-.11.24-.22.54-.4.73-.37.38-.76.05-1.15-.05-.06-.02-.14.01-.17.07-.31.55-.42,1.19-.74,1.74-.26.44-.76.47-1.06.88-.39.54-.68,1.19-1.02,1.76-.15.25-.3.5-.45.74-.23.39-.42.71-.93.45-.08-.04-.16-.02-.21.06-.24.38-.41.8-.64,1.19-.25.43-.49,1.01-1.07.72-.1-.05-.19,0-.23.09-.55,1.35-1.27,3.08-2.58,3.88.07-1.27.43-2.49.82-3.69.03-.09-.07-.2-.16-.16-.1,0-.21.01-.31.02.28-1.28,1.13-2.35,1.48-3.62.03-.09-.05-.18-.14-.18-.56,0,.29-1.24.43-1.46.46-.73.84-1.52,1.2-2.3.04-.09,0-.19-.09-.22-.12-.04-.23-.03-.35-.05-.27-.06-.27-.15-.14-.38.19-.34.43-.66.64-.98.28-.43.56-.86.84-1.29.22-.34.55-.69.64-1.09.04-.17,0-.26-.1-.39-.18-.21-.43-.31-.42-.67,0-.22.28-.51.41-.67.59-.75,1.24-1.47,1.79-2.26.06-.08,0-.21-.09-.23-.72-.19.23-.97.46-1.22.54-.6,1.06-1.21,1.62-1.79.87-.91,1.73-1.89,2.81-2.57-.21.39-.38.81-.52,1.21-.16.45-.3.91-.43,1.37,0,0-.01,0-.02,0-.56.32-1.09.79-1.54,1.25-.39.41-1.04.9-1.2,1.46-.02.07.06.12.12.1.07-.02.13-.08.17-.13.05-.06.1-.12.16-.17.23-.23.47-.46.7-.69.11-.11.21-.23.32-.34.12-.1.23-.21.35-.31.13-.1.26-.2.39-.3.06-.05.13-.1.19-.15.03-.03.07-.05.1-.08.02-.01.08-.05.08-.07-.07.23-.13.47-.2.7-.27.87-.56,1.74-.85,2.6-.03.1-.07.19-.1.29-.28.04-.52.22-.76.36-.36.21-.7.45-1.03.69-.55.42-1.28.9-1.63,1.5-.03.04.02.12.07.1.64-.27,1.18-.87,1.74-1.28.29-.21.58-.41.88-.6.17-.11.37-.19.56-.3-.5,1.41-1.05,2.8-1.67,4.17-.03,0-.06,0-.09.02-.59.3-1.18.71-1.67,1.14-.39.35-.84.67-1.02,1.18,0,.01,0,.02,0,.03,0,.03.05.03.08.01.09-.04.17-.12.24-.19.67-.65,1.46-1.14,2.23-1.66-.72,1.56-1.38,3.16-2.29,4.62-.33.21-.7.37-1.01.62-.35.28-.74.61-1.03.94-.05.06,0,.15.08.13.41-.11.72-.51,1.04-.76.16-.13.34-.23.52-.32-.48.7-1.01,1.36-1.48,2.06,0,0,0,0,0,0-.11.17-1.08,1.6-.87,1.67.01,0,.02,0,.04,0,.06,0,.11-.06.15-.11.16-.24.3-.5.47-.75.17-.26.36-.5.54-.76.51-.74,1.08-1.43,1.58-2.18.02.18.03.36.02.54-.02.37-.09.73-.14,1.1,0,.08.11.11.15.04.2-.38.27-.83.29-1.26,0-.21.03-.56-.1-.77.85-1.35,1.46-2.83,2.14-4.27.06-.13.12-.26.18-.39,0,.02.01.04.02.05.09.36.16.73.19,1.1.03.31.04.63.03.94,0,.2-.05.4-.04.6,0,.15.06.35.21.17.11-.13.14-.41.15-.57.04-.41-.01-.82-.05-1.23-.04-.41-.06-1.12-.31-1.53.65-1.43,1.25-2.89,1.79-4.36.02.05.04.1.06.16.11.34.19.69.27,1.03.16.69.42,1.33.51,2.03,0,.05.08.07.09.01.14-.66-.12-1.35-.27-1.98-.11-.46-.16-1.29-.5-1.7.43-1.2.83-2.41,1.19-3.64.17.28.37.56.5.86.21.48.36.98.44,1.49.02.13.24.1.23-.03-.05-.57-.18-1.12-.4-1.64-.15-.37-.33-.85-.65-1.12.04-.13.08-.26.11-.4.24-.87.53-1.78,1.03-2.55.28.27.44.83.57,1.14ZM42.1,58.48s-.02.06-.03.09c-.03.06-.07.09-.12.15-.06.07-.12.15-.17.23-.75.39-1.43.93-2.05,1.5-.79.73-1.57,1.52-2.27,2.33-.44.51-1.01,1.06-1.36,1.65-.22.37-.14.68.18.84-.36.48-.75.93-1.12,1.39-.3.37-.66.75-.88,1.18-.13.26-.19.55-.04.82.1.17.3.25.39.4.13.21-.12.52-.25.71-.6.89-1.25,1.77-1.78,2.7-.09.16-.21.36-.16.55-.01.01-.03.03-.04.04-.15.31-.48,1.87-.98,1.61-.07-.04-.17-.02-.21.05-.51.87-.78,1.85-.95,2.84-.33-1.41-.04-2.81.2-4.23.01-.07-.02-.14-.09-.16-.3-.08-.61-.12-.91-.19.24-.86.64-1.67,1.06-2.45.17-.31.35-.59.55-.88.12-.17.23-.33.16-.53-.12-.32-.57-.35-.63-.72-.06-.39.48-.86.68-1.15.59-.81,1.02-1.74,1.51-2.61.36-.64.78-1.15,1.22-1.72.23-.3.53-.63.25-.99-.09-.11-.29-.18-.35-.31-.16-.3.25-.65.42-.85.31-.34.64-.65.99-.95.69-.59,1.37-1.19,2.06-1.79.05-.05.07-.15.03-.21-.12-.17-.21-.31-.2-.53,0-.18.15-.3.29-.4.34-.22.73-.37,1.1-.52.36-.14.75-.27,1.13-.35.2-.04.39-.07.59-.09.44-.04.86-.04,1.3.04.26.05.52.11.78.17.03,0,.05.01.08.02-.5.27-1,.55-1.45.9-.06.05-.13.1-.19.15-.73-.37-1.88-.08-2.59.18-.07.03-.07.16.02.15.42-.04.82-.17,1.24-.22.39-.05.75,0,1.13.05-.48.4-.93.85-1.4,1.25-.62.53-1.24,1.07-1.81,1.66-.3-.04-.6.09-.88.17-.3.09-.59.21-.86.37-.32.18-.7.43-.91.73-.04.06.04.12.09.09.45-.24.84-.56,1.32-.77.29-.12.66-.19.97-.31-1.07,1.18-1.93,2.57-2.76,3.92-.23.37-.44.74-.64,1.11-.68.41-1.29.99-1.77,1.61-.03.03.02.07.05.05.37-.19.6-.58.92-.85.18-.16.39-.29.6-.43-.53,1.04-.96,2.11-1.34,3.24-.1.3-.19.48-.38.72-.21.25-.46.47-.65.73-.25.35-.48.75-.59,1.17-.01.05.06.1.09.05.23-.29.39-.63.6-.93.19-.27.4-.52.61-.76-.18.53-.37,1.06-.54,1.59-.27.8-.62,1.65-.49,2.5,0,.04.03.1.07.08.1-.03.13-.39.15-.48.04-.29.06-.62.14-.91.09.06.13.24.17.34.04.1.2.06.16-.05-.05-.16-.1-.33-.16-.49-.01-.03-.02-.07-.03-.1.2-.76.46-1.51.71-2.26.06.16.09.32.13.49.06.3.13.58.26.86.03.07.12.02.11-.05-.05-.34-.07-.69-.15-1.03-.04-.19-.1-.45-.23-.62.02-.06.04-.12.06-.18.44-1.35.94-2.69,1.61-3.94.07.17.17.33.22.51.04.16.08.32.11.49.02.14-.02.36.06.47.05.08.15.04.16-.04.04-.3-.01-.62-.06-.92-.03-.2-.08-.39-.17-.57-.02-.03-.16-.19-.14-.22.44-.84.96-1.65,1.48-2.44.53-.8,1.09-1.59,1.72-2.32.03-.03.05-.06.08-.09.02.17.07.35.08.48.01.2-.01.4-.03.6,0,.09-.08.46.01.51.15.08.24-.41.26-.49.04-.19.07-.39.08-.59,0-.15.01-.3,0-.44,0-.03-.09-.39-.1-.39.92-.96,1.98-1.76,2.96-2.65.04-.04.08-.07.12-.1.02-.01.1-.11.11-.06.03.25-.01.48-.03.73,0,.12-.05.24-.08.35-.02.06-.04.12-.05.18-.02.05-.06.12-.06.18-.01.04.03.09.07.07.24-.09.31-.41.36-.63.07-.31.12-.63.08-.96,0-.06-.05-.14-.01-.18.05-.06.14-.11.2-.15.14-.1.27-.2.41-.29.28-.19.57-.36.86-.52,0,0,0,.01,0,.02-.17.65-.32,1.3-.47,1.96ZM44.76,55.85c-.22.27-.41.55-.67.79-.54.49-1,1.05-1.56,1.52.04-.21.08-.42.13-.62.09-.37.31-.84.29-1.24.74-.42,1.46-.87,2.31-1.01-.17.18-.34.37-.5.57ZM46.12,54.4c-.15.14-.28.28-.43.42-.02.02-.03.03-.05.04-.02.01-.05.02-.07.02-.44.11-.88.19-1.3.36-.4.17-.79.38-1.17.6-.07.04-.14.08-.21.12,0,0-.02,0-.03-.01-.03,0-.06-.01-.09-.02.7-.22,1.18-.83,1.8-1.25.41.69,1.66-.62,2.06-1.09.09.05.18.08.27.08-.26.24-.52.47-.78.72ZM48.2,52.42c-.23.26-.47.52-.73.75-.18.16-.54.45-.74.16-.05-.07-.16-.11-.22-.03-.2.25-1.57,1.75-1.76,1.16-.02-.08-.12-.12-.19-.08-.15.09-.3.2-.43.32-.29.24-.57.52-.89.73-.15.1-.32.19-.5.26-.09.03-.18.05-.28.07-.1.02-.21.05-.31.05-.04,0-.15-.06-.19-.04,1.33-.65,2.36-1.75,3.4-2.81,0,.1,0,.19-.02.28-.05.26-.13.51-.18.78-.02.1.11.13.15.04.11-.3.21-.61.27-.93.03-.15.06-.3.05-.45.44-.44.89-.87,1.37-1.25.37-.29.75-.58,1.14-.85-.02.07-.03.14-.06.22-.1.33-.18.66-.37.95-.07.11.1.21.18.1.18-.25.29-.54.38-.83.07-.22.16-.44.19-.66.68-.47,1.37-.91,2.08-1.32.08-.05.15-.09.23-.14-.08.26-.14.52-.23.78-.09.29-.19.6-.38.83-.07.08-.15.16-.26.19-.05.01-.1.01-.15,0-.07-.01-.16-.08-.23-.06-.05,0-.09.05-.12.09-.13.16-.22.35-.33.52-.28.4-.57.8-.89,1.17ZM49.47,51.43c-.11.1-.22.19-.33.29.19-.25.35-.52.48-.78.14.06.28.05.4,0-.18.17-.37.33-.55.5ZM51.72,51.22c.16-.31.3-.64.47-.96.09-.17.18-.34.28-.52.07-.12.12-.26.22-.37.16-.19.32-.37.5-.54.15-.14.3-.28.45-.42-.23.5-.36,1.09.19,1.23-.39.86-.8,1.73-.75,2.7.02.41.25.77.24,1.17,0,.29-.11.55-.21.81-.02-.09-.05-.17-.06-.23-.14-.46-.31-.91-.55-1.33-.19-.34-.55-.96-.99-1.14.07-.14.14-.27.21-.41ZM54.74,49.02c.49-.51.84-1.16,1.42-1.57-.39,1.41-.86,2.81-1.24,4.22-.23.17-.42.38-.59.62-.12.16-.25.32-.35.49-.04.07-.12.2-.12.28,0,.09.05.15.14.06.27-.29.51-.61.78-.9-.2.79-.36,1.59-.45,2.4-.13,1.08-.16,2.16-.17,3.25-.08.09-.16.2-.22.27-.1.13-.19.26-.26.4-.01-.47,0-.95-.1-1.41-.13-.52-.56-.91-.73-1.4.29.01.38-.24.38-.56,0,0,0-.02,0-.03.04-.5.27-.94.33-1.44.05-.36-.07-.6-.16-.94-.28-1.07.36-2.22.78-3.16.05-.11,0-.23-.13-.23-.65-.02-.11-.98.02-1.27.09-.21.33-.35.5-.49.2-.17.4-.34.61-.51.41-.34.82-.67,1.23-1,.03-.03.07-.05.1-.08-.08.35-.16.71-.25,1.06-.02,0-.03,0-.05.02-.46.25-.79.66-1.1,1.07-.14.19-.32.38-.42.59-.03.07-.12.44.04.27ZM51.74,67.54c-.17.58-.72.54-.82,1.12-.14.84.18,1.68.21,2.52.01.28.05.56.03.84-.03.47-.3.57-.74.56-.06,0-.14.05-.15.11-.15.76.28,5.18-1.15,4.67-.06-.02-.14.01-.17.07-.39.81-.7,4.84-2.12,4.31-.07-.03-.14.03-.17.09-.38.91-.42,1.92-.72,2.85-.3.91-.53,1.86-.85,2.77-.21-.99-.62-1.92-.58-2.95.02-.55.12-1.1.26-1.63.12-.46.28-.9.3-1.39.02-.45-.06-.9-.08-1.34-.02-.59.07-1.17.21-1.74.27-1.08.77-2.07,1.18-3.1.04-.11-.06-.21-.16-.21-.89-.06.2-4.15.37-4.72.03-.11-.08-.22-.19-.19-.1.03-.19.05-.29.07-.24-.56-.19-1.25-.14-1.84.06-.64.17-1.28.34-1.91.04-.13-.11-.25-.23-.18-.06.03-.12.06-.18.09-.34-.73-.16-1.76.06-2.48.22-.72.6-1.47.5-2.24-.01-.09-.12-.12-.19-.11-.05.01-.09.02-.14.03-.27-.99.29-2.01.59-2.94.03-.09-.05-.21-.15-.2-.13.01-.26.02-.38.03.02-1.52.7-2.84,1.71-3.96.91-.99,2.01-1.74,3.02-2.61-.06.14-.12.27-.18.4-.27.62-.52,1.25-.74,1.89-.48.04-.92.48-1.26.77-.33.28-.62.63-.88.97-.12.16-.26.32-.35.5-.02.05-.07.08-.04.14.03.06.1.07.15.03.4-.41.74-.86,1.18-1.24.25-.21.7-.71,1.09-.82-.09.28-.18.57-.27.85-.3,1-.54,2.01-.74,3.03-.03,0-.05.02-.08.04-.39.33-.74.67-1.03,1.1-.17.25-.35.5-.5.77-.04.08-.35.8-.16.74.04-.01.06-.05.08-.08.26-.37.51-.74.78-1.1.23-.31.53-.57.8-.85-.21,1.22-.34,2.45-.4,3.68,0,.05,0,.1,0,.15-.37.22-.59.73-.79,1.07-.32.54-.81,1.15-.82,1.8,0,.07.09.08.12.03.35-.5.59-1.11.9-1.63.13-.21.24-.43.38-.63.06-.08.13-.16.19-.23-.03,1.02,0,2.03.1,3.05.07.85.16,1.7.19,2.55-.31.23-.55.59-.78.9-.32.43-.6.88-.88,1.32-.05.09.08.19.14.11.29-.36.56-.73.85-1.1.21-.27.46-.52.68-.79,0,.23,0,.46,0,.69-.05,1.33-.37,2.64-.78,3.93-.07.01-.15.04-.22.07-.21.06-.43.14-.62.26-.04.03-.67.53-.45.57.12.02.15-.03.25-.11.16-.12.31-.21.49-.29.14-.06.29-.12.44-.16-.33,1.01-.71,2.01-1.05,2.98-.2.59-.39,1.18-.55,1.77-.23.2-.38.56-.54.81-.08.14-.18.27-.25.42-.02.05-.17.45,0,.36.03-.01.05-.04.07-.07.18-.26.34-.52.53-.77-.12.51-.23,1.02-.32,1.55-.12.68-.22,1.37-.34,2.05-.11.66-.32,1.36-.29,2.04,0,.04.02.09.05.09.03,0,.05-.02.06-.05.24-.4.29-.9.37-1.35.09-.51.18-1.02.26-1.52.17-1.02.33-2.03.58-3.04.09.22.18.43.27.65.13.34.26.69.44,1,.05.09.2.03.17-.07-.19-.64-.43-1.4-.78-1.99.07-.27.15-.54.24-.8.22-.67.45-1.33.69-1.99.12-.33.23-.66.35-.98.06-.17.12-.34.17-.5.05-.16.1-.31.17-.47,0,0,.19.24.2.26.06.12.09.24.14.36.15.37.27.73.39,1.11.04.12.04.27.11.38,0,.01.02.02.03.03.11.04,0-.58-.02-.64-.03-.22-.07-.45-.13-.67-.11-.41-.28-.88-.66-1.1.29-.91.54-1.83.7-2.77.14-.77.17-1.54.15-2.31.07.09.15.17.22.27.17.25.32.52.45.8.26.55.46,1.12.71,1.67.03.08.16.02.13-.06-.22-.61-.39-1.23-.64-1.82-.17-.4-.45-1.05-.88-1.27-.06-1.44-.27-2.89-.27-4.34,0-.42,0-.83.03-1.25.4.45.77.88,1.09,1.39.32.51.57,1.07.9,1.57.06.09.24.04.19-.08-.25-.61-.6-1.21-.95-1.76-.33-.51-.7-1.07-1.21-1.42,0,0,0,0,0,0,.07-1.31.22-2.62.46-3.91.08.07.17.14.26.21.35.28.64.59.91.95.41.54.7,1.19,1.14,1.69.05.06.14,0,.12-.07-.15-.66-.67-1.3-1.08-1.83-.38-.5-.88-.84-1.3-1.29.11-.58.24-1.15.38-1.72.18-.71.38-1.4.61-2.1.14.13.29.25.42.4.21.24.39.51.56.79.29.49.54,1.01.81,1.51.08.15.22,0,.21-.12-.02-.14-.15-.3-.21-.42-.08-.15-.16-.31-.23-.46-.16-.31-.32-.61-.51-.9-.24-.36-.55-.82-.95-1.04.15-.44.31-.88.49-1.31.16-.4.33-.79.52-1.18.23.24.5.43.7.73.22.34.42.72.56,1.1.1.27.18.54.24.82.04.22.22.89-.19.72-.1-.04-.23.06-.22.17.05.43.28.74.51,1.1.38.59.36,1.18.38,1.86.04.9.34,2.07-.22,2.87-.14-.06-.28-.11-.4-.19-.1-.06-.23.02-.23.13-.04,1.16.21,2.33-.09,3.47-.09-.04-.17-.09-.25-.15-.05-.03-.09-.07-.14-.09-.04-.02-.09-.03-.14-.03-.11,0-.19.06-.19.18,0,.95.34,1.97.08,2.92ZM58.74,45.99c-.13-.06-.25.02-.27.15-.03.28-.02,2.09-.46,1.87-.07-.04-.15-.03-.21.03-.72.66.34,3.9-1.19,3.5-.09-.02-.22.05-.21.16.08.62.87,5.31-.26,4.96-.11-.04-.2.08-.18.18.15.89.18,1.77.28,2.67.03.23.26,1.52-.2,1.36-.08-.03-.15.03-.17.1-.2.6-.06,1.2.11,1.79.09.32.2.64.25.96.04.24.06.5-.01.74-.08.26-.1.27-.37.23-.09-.01-.16.03-.16.12-.07,1.13-.28,2.2-.66,3.26-.11-.06-.21-.12-.3-.22-.06-.07-.18-.03-.2.05-.08.3-.14.6-.19.9-.08.51-.14,1.02-.2,1.53-.03.25-.07.51-.11.76-.02.13-.05.25-.07.38-.02.09-.03.25-.08.33-.13-.1-.23-.25-.33-.39-.1-.14-.19-.29-.28-.43-.3-.49-.58-.99-.58-1.58,0-.11-.15-.18-.23-.09-.04.04-.08.09-.13.13.01-.01-.02-.18-.02-.2,0-.07,0-.15,0-.22.01-.16.04-.32.06-.47.04-.26.07-.52.04-.78-.01-.11-.03-.22-.06-.32-.02-.09-.08-.15-.11-.24-.07-.17-.09-.36-.11-.54-.06-.64-.12-1.29-.18-1.93.16.08.31.18.47.25.07.03.16,0,.18-.07.35-1.12.16-2.28.18-3.43.1.05.2.09.31.14.06.03.14.03.19-.02.59-.76.49-1.79.42-2.7.01,0,.02-.02.03-.03.12-.21.27-.41.43-.59,0,1.38.03,2.76-.02,4.13-.24.18-.48.38-.67.61-.05.06-.4.56-.13.53.05,0,.09-.04.12-.07.13-.11.25-.23.36-.36.04-.04.29-.27.3-.31-.04.7-.11,1.4-.22,2.1-.04.27-.09.55-.14.83-.19.12-.37.37-.45.49-.23.32-.44.73-.43,1.13,0,.04.07.07.09.02.15-.31.3-.63.5-.91.06-.09.13-.17.2-.25-.23,1.29-.42,2.6-.11,3.86.03.11.2.09.2-.03-.01-1.02-.04-2.02.08-3.03.04-.37.1-.73.16-1.09,0,0,.01-.01.02-.02.12.19.24.38.32.61.08.23.1.51.23.72.03.04.1.04.11-.01.08-.28-.04-.63-.12-.9-.09-.27-.21-.59-.46-.75-.01,0-.02-.01-.04-.01.09-.54.19-1.07.26-1.61.05-.39.09-.79.12-1.18.12.21.27.39.38.6.11.21.19.44.28.67.03.07.05.16.1.21.21.2.13-.18.11-.26-.08-.26-.15-.53-.26-.78-.13-.31-.31-.75-.57-.97.08-1.35.09-2.7.11-4.04.1.12.2.23.27.35.23.4.28.89.51,1.3.03.06.13.03.13-.03-.01-.4-.15-.86-.31-1.22-.13-.29-.36-.66-.58-.91,0-.03,0-.07,0-.1.03-1.91.15-3.74.59-5.59.12.32.29.65.42.96.2.49.43.96.59,1.46.03.09.2.09.18-.02-.06-.56-.34-1.07-.55-1.59-.15-.37-.26-.9-.55-1.19.02-.06.03-.13.05-.19.33-1.2.72-2.38,1.04-3.59.09.18.2.35.26.54.16.45.19.94.36,1.37.03.07.12.06.12-.02.06-.71-.23-1.65-.64-2.29.14-.55.26-1.11.34-1.67.38-.3.76-.6,1.13-.9.75-.59,1.53-1.14,2.35-1.63.08-.05.17-.1.25-.15-.49,1.12-.94,3.31-1.8,2.89ZM66.76,49.14c.61,1.38-.1,3.18-.69,4.47-.27-.96-.43-1.83-.24-2.85.02-.1-.06-.19-.17-.17-.15.03-.21.04-.28.05.13-1.08.18-2.17.31-3.26,0-.06-.05-.13-.1-.14-1-.17-.13-2.32-.08-2.95.01-.18-.26-.08-.31-.22-.04-.1-.03-.23-.02-.33.02-.45.12-.9.23-1.33.09-.34.18-.68.28-1.01.05-.17.11-.33.18-.49.05-.13.1-.27.18-.38.08-.11.3-.15.43-.2.33-.13.66-.26.99-.39.12-.05.24-.09.36-.14-.16.35-.31.7-.46,1.06-.34.18-.62.45-.88.73-.13.14-.27.27-.39.42-.05.06-.1.13-.14.2-.02.03-.15.23-.04.22.06,0,.13-.1.17-.15.06-.06.13-.12.19-.18.31-.31.59-.63.95-.89-.21.53-.41,1.08-.57,1.62-.16.56-.25,1.14-.29,1.73-.23.17-.43.51-.58.73-.12.18-.22.39-.28.6-.01.05-.08.24-.03.29.13.11.23-.25.26-.32.08-.21.21-.4.33-.58.08-.11.18-.22.27-.34-.02.38-.02.76-.01,1.14,0,.73.02,1.45.03,2.18,0,0,0,0,0,0-.16.14-.22.41-.31.6-.1.21-.2.41-.29.63-.03.08.11.14.15.06.1-.23.22-.45.33-.68.04-.08.09-.16.13-.25,0,.26,0,.51,0,.77-.01.59-.02,1.17-.08,1.76-.03.3-.07.59-.12.89-.03.15-.06.29-.1.43-.02.09-.11.25-.05.34.12.18.27-.23.3-.3.08-.19.14-.39.18-.59.09-.42.13-.85.15-1.28.01-.23.02-.47.03-.7.02-.43.03-.86.03-1.29,0,0,.01.01.02.02.06.07.13.19.24.14.05-.02.07-.08.06-.13-.01-.05-.06-.08-.1-.12-.07-.06-.13-.12-.21-.17,0-.59,0-1.18-.02-1.77,0-.52-.02-1.04,0-1.56.24.22.45.45.63.75.04.06.14.02.12-.05-.14-.41-.42-.79-.73-1.1.03-.48.09-.95.2-1.41.08-.34.18-.68.29-1.01.1-.3.21-.59.33-.88.18.47.36.92.41,1.44,0,.08.12.08.12,0,.03-.56-.15-1.19-.43-1.69.04-.1.09-.21.13-.31.1-.23.21-.47.31-.7.05-.12.12-.23.16-.35,0-.02.01-.05.03-.07.07-.11.27-.15.37-.2.17-.07.34-.15.5-.22.17-.08.33-.15.5-.23.08-.04.16-.08.24-.12.04-.02.23-.08.24-.12-.11.38-.21.75-.35,1.12-.1.28-.38,1.23-.78,1.2-.11,0-.16.1-.15.19.07.37-.08.82-.19,1.16-.07.23-.3,1.04-.63,1.05-.11,0-.17.1-.15.19.09.5,0,.96-.06,1.45-.03.2-.01.44-.08.63-.13.37-.44.42-.49.83-.07.57.21,2.03-.41,2.33-.08.04-.09.15-.06.22ZM73.69,39.76c-.03.87-.46,1.66-.53,2.52-.07.78.03,1.53-.09,2.32-.17,1.15-.08,2.38.31,3.48.07.19.16.36.25.54.02.05.22.47.16.51-.16.12-.33.25-.48.38-.14.11-.27.25-.41.36-.02-.17-.08-.35-.13-.51-.01-.04-.18-.47-.19-.46.41-.31.4-1,.36-1.46-.05-.54-.15-1.13-.37-1.64.06,0,.11-.03.14-.08.37-.85.3-1.86.14-2.75-.16-.87-.43-1.81-1-2.5.47-1.21,1.02-2.4,1.44-3.63,0,0,0,0,0-.01.02-.02.05-.03.07-.05-.25.83-.57,2.79.33,2.98ZM73.68,36.57c.31-.2.62-.39.94-.57.29-.16.58-.31.87-.45.15-.07.29-.14.44-.22.13-.07.27-.12.4-.2-.08.26-.15.41-.39.55-.41.25-.76.59-1.08.95-.27.29-.6.67-.68,1.07-.01.07.07.12.12.07.59-.59,1.07-1.41,1.79-1.85-.05.15-.09.3-.14.45-.19.58-.34,1.16-.49,1.75-.21.84-.39,1.68-.58,2.52-.01,0-.03.02-.04.03-.3.38-.92.82-.93,1.35,0,.11.13.12.19.05.16-.21.27-.44.45-.63.07-.07.14-.15.2-.22-.05.23-.11.46-.16.68-.08.32-.16.63-.24.95-.07.3-.14.53-.33.78-.17.21-.36.42-.45.69-.07.21.15.09.22,0,.09-.11.16-.24.26-.35.02-.02.04-.04.05-.06-.28,1.24-.48,2.49-.45,3.75-.11-.33-.2-.67-.25-1.02-.13-.87-.02-1.67.09-2.53.09-.72-.07-1.43.06-2.15.14-.8.52-1.53.49-2.36,0-.09-.07-.17-.17-.17-.83.02-.19-2.39-.17-2.85,0,0,0,0,0-.01ZM76.55,35.63c.07-.21.14-.41.2-.62,0-.01,0-.03.02-.04,0-.01.02-.02.04-.03.69-.41,1.38-.8,2.07-1.21.61-.26,1.21-.63,1.8-.93,0,.78-.35,3.09-1.42,2.92-.08-.01-.18.02-.19.11-.12.84-.11,1.68-.3,2.51-.09.38-.4.87-.85.64-.07-.04-.17-.02-.21.06-.35.68-.31,1.47-.38,2.21-.03.35-.1.55-.39.76-.09.07-.18.1-.24.19-.09.11-.12.27-.16.4-.14.5-.34,2.77-1.22,2.19-.08-.05-.2,0-.22.09-.29,1.21-.77,2.36-1.05,3.57-.19-1.58.08-3.16.44-4.71.03.12.05.25.07.37.04.21.03.43.1.64.07.2.18-.1.19-.17.03-.26.01-.52-.05-.77-.05-.2-.17-.38-.16-.59.03-.51.23-1,.35-1.49.07-.27.13-.55.2-.82.04.01.07.03.11.05.15.1.25.26.34.41.16.27.26.56.38.84.04.11.21.06.18-.05-.13-.37-.23-.76-.45-1.09-.09-.14-.28-.38-.48-.45.18-.77.35-1.55.54-2.32.12-.51.27-1.01.42-1.51.08-.28.16-.55.24-.83.64.43.92,1.53,1.09,2.21.03.12.23.1.22-.03-.1-.83-.44-2.03-1.21-2.51ZM83.79,46.39c.12.31.23.62.33.94-.24.69-.47,1.39-.67,2.1-.19.65-.34,1.3-.45,1.97-.05.34-.12.68-.16,1.02-.02.17-.03.35-.03.52,0,.05.01.38-.02.4-.2.08-.38.2-.54.34-.09-.27-.27-.52-.44-.74-.15-.19-.34-.43-.56-.58,0-.87.05-1.74.07-2.61.02-.95.21-1.92.26-2.89.58.84,1,1.78,1.26,2.77.02.07.15.06.14-.02-.15-1.15-.74-2.28-1.39-3.23,0-.53-.06-1.05-.22-1.57.18-.13.36-.27.54-.4.28-.21.56-.42.83-.64.17-.14.36-.29.53-.44.16-.14.32-.26.48-.4.09.22.14.47.2.71.07.26.13.51.18.77.02.14.05.27.07.41.04.28.08.57.03.86-.02.11-.05.23-.13.32-.08.1-.25.08-.31.18-.02.02-.02.06-.02.1,0,.05.01.09.02.12ZM81.77,54.89c.14-.24.3-.47.47-.69.23-.28.57-.58.95-.52.4.06.72.32.98.61.28.31.49.69.62,1.09.07.23.12.47.14.7.06,1.03-.17,2.14-.58,3.08-.18.4-.4.81-.72,1.12-.24.23-.54.4-.87.39-.41-.01-.78-.25-1.06-.54-.15-.16-.28-.34-.38-.54-.34-.67-.4-1.46-.33-2.2.09-.88.35-1.75.79-2.52ZM81.3,53.94c-.04-.39-.06-.79-.06-1.18.35.29.69.67.8,1.1-.24.26-.44.56-.61.85-.05-.25-.11-.5-.13-.76ZM81.94,44.08c-.1.08-.2.17-.3.24-.13.09-.26.19-.39.28-.02-.01-.04-.02-.07-.03.24-.18.5-.35.76-.5ZM81.72,43.2c.22-.3.46-.59.71-.87.39-.44.81-.86,1.23-1.28.01.23.05.46.07.68,0,.13.01.26.03.39.01.08-.51.46-.59.52-.2.17-.4.33-.6.5-.41.32-.82.62-1.27.88,0-.01-.01-.03-.02-.04-.06-.23.33-.62.44-.77ZM83.94,40.89s0-.1-.01-.14c.07-.05.14-.11.2-.16.1-.09.19-.18.29-.28.19-.18.38-.36.58-.55.38-.36.77-.72,1.15-1.09.04-.04.08-.08.13-.12.38-.36.77-.72,1.16-1.07.37-.33.74-.68,1.13-.99.64-.53,1.23-1.1,1.8-1.71,0,0,0,.04,0,.04,0,0-.03.03-.04.04-.05.05-.09.1-.13.16-.09.1-.17.21-.26.32-.17.21-.34.43-.5.64-.86,1.12-1.76,2.22-2.72,3.26-.15.16-.31.33-.46.49-.36.37-.73.74-1.11,1.1-.19.18-.38.36-.57.54-.1.09-.19.18-.29.27-.02.02-.22.19-.22.19-.04-.31-.08-.63-.11-.94ZM90.31,34.4c-1.13.88-2.23,1.8-3.33,2.73-.21.18-.43.37-.64.55-.02.02-.05.04-.07.06-.4.35-.8.7-1.19,1.05-.2.18-.4.36-.6.53-.21.19-.42.39-.62.59-.03-.16-.05-.32-.08-.48,0,0,0-.01,0-.02.03-.05.16-.07.21-.09.08-.03.12-.09.13-.17.11-.99-.13-2-.51-2.91-.18-.43-.4-.84-.68-1.22-.1-.14-.19-.29-.31-.41-.11-.12-.24-.23-.36-.34,0,0-.01-.01-.02-.02,0,0,0-.02,0-.03.04-.26.18-.5.28-.74.11-.26.23-.52.36-.77.12-.22.24-.44.37-.65.13-.22.21-.48.46-.59.22-.1.45-.22.67-.31.24-.1.49-.18.74-.27.5-.17,1-.33,1.5-.47.38-.11.76-.21,1.14-.3,2.48-.61,4.97-1.04,7.51-1.31,1.43-.15,2.89-.52,4.25-.98-.53.32-1.09.61-1.6.95-2.63,1.75-5.13,3.69-7.62,5.63ZM83.44,39.37c.03.25.08.5.13.76,0,0,0,.01,0,.02,0,0,0,.02-.02.02-.08.08-.16.16-.24.24-.36.35-.69.75-1.07,1.07-.34-.39-.77-.65-1.19-.94.03-1.1.14-2.21.35-3.29.01-.07.03-.14.04-.2.17.21.4.4.56.58.4.46.61.91.83,1.46.01.03.07.05.08,0,.1-.48-.22-.96-.49-1.32-.15-.21-.32-.4-.49-.6-.13-.15-.26-.35-.42-.48.06-.27.12-.54.19-.81.06-.23.13-.46.19-.69.03-.1.05-.21.09-.31.03-.09.05-.2.1-.28,0,0,.01-.02.02-.02,0,0,.01,0,.02.01.19.18.38.39.52.61.27.4.5.85.68,1.3.32.8.52,1.68.45,2.55,0,.02-.22.08-.25.1-.05.03-.09.08-.09.15,0,.03,0,.06,0,.09ZM81.04,40.89c.11.07.22.13.33.2.28.17.46.37.65.63-.11.12-.22.24-.33.36-.09.11-.19.22-.28.33-.09.12-.17.25-.29.34-.05-.3-.05-.59-.06-.88,0-.17-.01-.34-.02-.52,0-.05.03-.43,0-.45ZM79.52,42.77c.25-.4.36-.88.6-1.29.15-.26.36-.48.55-.71,0,.42,0,.84.03,1.25.02.38.05.76.06,1.15-.16.32-.34.6-.53.9-.09.15-.18.31-.27.46-.16.25-.32.45-.56.65-.06.05-.74.54-.74.55-.14-.37-.07-.8.01-1.17.08-.39.21-.77.31-1.16.03-.12-.07-.2-.18-.18-1.18.18.32-2.78.64-3.19.05-.06.07-.17,0-.22-.5-.39-.51-.98-.39-1.55.12-.56.29-1.02.59-1.52.42-.7,1.15-1.71,2.01-2.05-.21.62-.37,1.26-.51,1.9-.39.11-.73.61-.95.89-.33.42-.61.9-.71,1.44-.02.12.16.17.19.05.13-.51.44-.97.76-1.37.17-.22.43-.41.64-.63-.01.06-.02.12-.04.19-.2,1.07-.32,2.16-.35,3.25-.32.23-.57.65-.75.97-.23.4-.49.9-.51,1.37,0,.05.07.07.1.03ZM77.94,46.62c-.69.49-1.38.99-2.06,1.49-.72.53-1.5,1-2.2,1.56-.42.34-.8.7-1.21,1.04.34-.31.65-.67.99-.95.74-.63,1.57-1.13,2.36-1.68.75-.52,1.51-1.03,2.25-1.57.35-.26.7-.52,1.04-.8.05-.04.09-.08.14-.11-.39.39-.86.71-1.31,1.02ZM79.11,46.14s0,0-.05.16c-.02.06-.04.13-.07.17-.04-.03-.06-.14-.05-.19.02-.06.17-.14.17-.14ZM72.7,54.49c.16.95.18,1.9.23,2.86-.14-.02-.44-.05-.57.01-.07.03-.1.16-.08.23.1.33.09.67.15,1.01,0,.04.01.08,0,.11,0,.03-.03.06-.05.09-.23.32-.4.69-.6,1.03-.21.35-.41.71-.58,1.08,0,.02-.02.04-.04.05-.01,0-.03.01-.05.02-.12.02-.24.05-.36.07-.14-.17-.2-.37-.25-.58-.12-.48-.27-.96-.35-1.44-.11-.66-.17-1.32-.23-1.99-.03-.3-.05-.6-.07-.9.1.07.21.14.31.22.26.22.48.49.68.76.24.33.45.68.72.99.02.02.04.04.06.05.26.06-.06-.49-.07-.53-.17-.3-.34-.6-.55-.87-.26-.35-.69-.9-1.16-1.02-.03-.64-.03-1.29,0-1.94.03-.73.08-1.45.13-2.18.1.1.22.19.32.3.25.26.46.55.67.85.18.25.34.52.52.77.06.09.42.71.49.33.02-.13-.07-.32-.13-.43-.14-.28-.34-.53-.52-.79-.19-.29-.38-.58-.6-.84-.2-.23-.42-.58-.72-.66.09-1.01.19-2.02.28-3.02.02-.22.04-.44.06-.66.49.72.9,1.5,1.18,2.32.03.09.17.05.14-.04-.26-.98-.73-1.84-1.29-2.67.11-1.13.26-2.26.48-3.37.23.51.44,1.04.68,1.55.05.11.21.01.17-.1-.26-.62-.39-1.35-.75-1.94.07-.33.16-.66.25-.98.14-.49.3-.98.48-1.46.41.63.63,1.42.77,2.14.15.8.26,1.74-.04,2.52-.04,0-.08-.01-.12-.02-.14-.02-.27.11-.19.25.24.44.36.97.43,1.46.07.43.21,1.33-.3,1.55-.08.03-.11.16-.06.23.12.17.2.36.26.56.05.2.09.41.14.62,0,0,0,.02,0,.02,0,0,0,.01-.01.02-.1.09-.18.2-.27.29-.11.1-.22.19-.33.28-.15.14-.44.3-.49.5-.03.13.12.12.2.11.23-.03.43-.14.63-.27.08-.05.16-.11.24-.16.06-.05.17-.1.21-.16.3,1.15.71,2.42.31,3.6-.07,0-.14-.01-.21-.02-.11-.02-.2.06-.18.18ZM71.7,60.52c-.03.1-.06.2-.09.3-.03.04-.05.08-.08.12.02-.15.1-.28.17-.42ZM78.65,43.51s-.14.54-.15.59c-.05.19-.09.39-.12.58-.03.2-.05.39-.04.59,0,.16,0,.39.08.54-.45.09-.92.08-1.36.22-.3.1-.59.25-.87.39-.17.08-.34.14-.5.23-.08.04-.18.1-.24.17-.11.14.09.16.19.15.16-.02.31-.1.45-.17.39-.18.77-.39,1.19-.5.19-.05.44-.05.7-.08-.07.05-.13.1-.2.14-.77.55-1.55,1.08-2.33,1.62-.4.27-.8.54-1.2.81.28-1.24.77-2.42,1.09-3.64.9.4,1.2-1.15,1.34-1.78.05-.25.09-.51.17-.75.11-.31.38-.37.57-.62.23-.29.2-.68.23-1.03.05-.55.04-1.14.26-1.65.34.12.59.04.78-.18.06.3.19.57.44.79-.54.81-1.86,3.56-.48,3.58ZM79.29,36.73c.02-.28.03-.52.05-.7.17,0,.33-.05.47-.12-.19.26-.35.52-.48.76-.01.02-.02.04-.04.07ZM82.6,32.47c-.24.45-.46.92-.65,1.39-.06.15-.11.29-.17.44-.48.12-.91.43-1.3.8.37-.75.44-1.55.49-2.37,0-.03,0-.06,0-.1.15-.03.27-.13.41-.2.17-.08.34-.16.52-.24.34-.16.67-.31,1.01-.45.05-.02.11-.04.16-.07-.2.23-.34.54-.48.79ZM72.64,37.55c-.05.14-.11.28-.16.41-.11.27-.21.53-.32.79-.11.27-.23.55-.34.82-.09.21-.14.41-.32.57-.18.15-.41.24-.6.4-.2.18-.41.34-.58.55-.25.3-.47.61-.7.91-.51.67-.89,1.44-1.22,2.21-.27.61-.14.9.34,1.2-.41.5-.72,1.07-.98,1.67-.06.15-.14.31-.22.48,0-.26-.02-.51,0-.69.01-.26.03-.4.2-.59.18-.19.27-.3.31-.56.11-.63.21-1.32.13-1.96.34-.13.52-.61.64-.91.17-.44.35-.98.32-1.48.39-.1.62-.68.76-.99.12-.28.24-.57.33-.86.09-.29.14-.58.2-.88,0,0,0-.01,0-.02,0,0,0-.01,0-.02,0-.01.02-.02.03-.03.13-.09.28-.16.42-.23.16-.09.32-.18.47-.27.31-.18.61-.37.9-.57.15-.1.31-.2.46-.31.04-.02.06-.05.06,0,0,.04-.04.1-.05.14-.03.07-.06.14-.08.21ZM67.94,61.93s-.03-.3-.03-.34c0-.11-.02-.22-.03-.34-.02-.21-.04-.42-.04-.63,0-.98.12-1.99-.2-2.94-.02-.07-.1-.13-.18-.1-.09.04-.18.05-.28.07-.28-1,.37-2.02.25-3.03-.01-.1-.08-.16-.19-.14-.34.06-.01-1.47.02-1.62.15-.71.35-1.41.5-2.13.04-.19.11-.41.1-.61-.02-.37-.45-.73-.65-1.02-.01-.02-.03-.04-.03-.06,0-.03.01-.05.02-.07.26-.49.52-.97.72-1.49.29-.73.65-1.42,1.18-2,.07-.08.07-.22-.04-.28-.31-.17-.59-.27-.45-.67.13-.37.33-.73.51-1.08.24-.47.49-.9.81-1.31.29-.37.6-.73.92-1.08.13-.14.27-.29.42-.42.04-.04.09-.07.13-.11-.22.59-.43,1.18-.59,1.79-.04.16-.06.34-.12.48-.04.1-.11.15-.18.24-.18.22-.37.46-.54.68-.22.28-.51.58-.59.93-.02.07.06.11.12.07.32-.26.55-.68.8-1,.07-.09.16-.18.25-.29-.23,1.12-.38,2.25-.5,3.38-.36.28-.66.67-.93,1.02-.32.42-.72.93-.85,1.45-.01.06.06.11.1.06.34-.34.54-.79.82-1.18.25-.33.53-.62.8-.91-.03.28-.05.57-.08.85-.09.97-.18,1.94-.26,2.9-.39.23-.66.74-.9,1.1-.18.28-.39.54-.55.83-.11.2-.24.45-.26.68,0,.1,0,.19.12.18.19-.02.31-.41.38-.54.17-.3.35-.59.54-.88.18-.27.38-.65.63-.9-.07.83-.12,1.66-.15,2.49-.02.64-.02,1.27,0,1.89-.36.44-.67.93-.89,1.45-.09.22-.19.43-.24.66-.02.07-.1.66.09.59.03-.01.05-.04.07-.07.19-.34.28-.73.44-1.08.16-.33.34-.66.55-.96.05.94.17,1.88.35,2.82-.25.61-.53,1.22-.56,1.89,0,.1.16.13.18.02.08-.51.29-.97.48-1.45.12.51.28.98.49,1.47-.31.12-.57.34-.84.53-.24.17-.44.37-.66.57-.04-.21-.05-.42-.05-.63,0-.12-.07-.29-.21-.21-.25.14-.5.28-.75.43ZM68.36,69.74c.31.5.38,1.17.43,1.74.13,1.6-.15,3.48-1.37,4.65-1.14,1.09-2.85.72-3.2-.88-.26-1.18.06-2.51.54-3.6.32-.72.77-1.46,1.41-1.94.57-.44,1.73-.71,2.19.03ZM67.85,67.64c-.6-1.17-.12-2.76.46-3.82.39-.71.87-1.34,1.53-1.8.33-.23.75-.4,1.1-.64-.04.08-.08.16-.12.24-.59,1.14-1.18,2.29-1.73,3.45-.4.86-.84,1.71-1.25,2.57ZM70.95,67.38c-.67.83-1.96,1.66-2.82.68.44-.86.81-1.77,1.22-2.64.33-.7.68-1.39,1.04-2.07.35-.66.74-1.27,1.09-1.92-.17,1.01-.09,2.06.35,2.89.08.15.17.29.27.41.11.93-.61,1.98-1.15,2.65ZM75.84,72.32c.32,1.35.33,3.03-.37,4.27-.32.56-.83.99-1.49,1.05-1.07.09-1.63-.93-1.9-1.8-.36-1.15-.42-2.3-.13-3.47.22-.86.65-1.88,1.5-2.29,1.36-.65,2.16,1.25,2.39,2.24ZM75.33,58.22c.39.36.59.92.69,1.43.27,1.37-.06,3.07-.7,4.3-.39.75-1.1,1.54-2.03,1.28-.57-.16-.95-.73-1.26-1.21-.23-.36-.29-.91-.31-1.33-.04-.9.17-1.81.48-2.65.24-.65.64-1.31,1.2-1.74.51-.39,1.42-.56,1.93-.08ZM75.04,56.16c-.12.45-.23.9-.3,1.36,0,.03,0,.06-.03.07-.02.01-.04.01-.06.02-.32.03-.77.02-1.05.19-.01,0-.03.02-.04.03.32-.58.74-1.12,1.14-1.64.08-.1.16-.21.23-.32.1-.13.19-.26.28-.39-.06.23-.12.46-.18.69ZM76.52,51.88c-.34.77-.65,1.55-1.02,2.3-.71,1.47-1.84,2.69-2.73,4.04-.03.05-.06.1-.09.14,0-.26-.06-.53-.14-.76-.02-.05.33.02.34.03.35.1.27-.55.27-.73,0-.26,0-.51-.01-.76-.02-.51-.07-1.02-.14-1.52.05,0,.09,0,.14.02.09.01.15-.02.18-.1.45-1.1.17-2.38-.13-3.48-.05-.18-.09-.36-.13-.53,0,0,0-.01,0-.02,0,0,0-.01.01-.01.17-.13.32-.29.49-.43.84-.7,1.8-1.25,2.68-1.88.7-.5,1.4-1,2.11-1.5.1-.07.21-.14.31-.21.02.08.04.16.06.24.09.35-.2.72-.34,1.02-.21.46-.43.93-.64,1.39-.42.92-.83,1.84-1.23,2.76ZM77.1,51.44c-.03.07-.07.14-.1.21,0,0,0,0-.01-.01.59-1.34,1.17-2.67,1.8-3.99.57-1.2,1.12-2.42,1.82-3.56.16-.26.34-.5.52-.74.18-.24.34-.49.54-.72,1.21-1.43,2.65-2.64,4.03-3.9.53-.49,1.07-.95,1.62-1.42,0,0,0,0,.01,0,0,0,0,0,0,0-.3.28-.6.56-.91.84-1.32,1.22-2.66,2.45-3.88,3.77-2.49,2.7-3.83,6.26-5.43,9.51ZM85.28,55.9c.54,1.41,1.26,3.01.83,4.53-.23-.09-.41-.05-.7-.02-.11.01-.19.1-.16.22.18.7.37,1.41.26,2.14-.08.56-.63.62-.8,1.13-.2.61-.13,1.28-.12,1.91.01.84-.07,1.47-.6,2.13-.31.38-.41.7-.39,1.19.03.56.07,1.06-.01,1.61-.09.54-.18,1.08-.31,1.61-.11.42-.23.94-.51,1.29-.85-1.52-.86-3.36-1.26-5.02-.03-.11-.16-.16-.25-.1-.2.13-.37.21-.51.36-.24-.42-.29-1.02-.36-1.47-.09-.58-.14-1.17-.21-1.76-.01-.13-.14-.23-.27-.15-.55.34-.63-.2-.65-.66-.03-.55.03-1.11.09-1.65.2-1.76.35-3.49.83-5.2.03-.09-.03-.19-.12-.22-.28-.08-.79-.04-1.02-.23-.43-.36-.21-1.39-.15-1.85.16-1.25.63-2.48.65-3.75,0-.09-.08-.17-.17-.17-.67.03-.57-1.1-.54-1.51.03-.39.1-.77.17-1.16.03-.13.07-.25.09-.39.02-.15.05-.31.07-.46.04-.23.07-.47.11-.7.02-.11.03-.2.08-.3.05-.1.11-.2.16-.3.14-.28.28-.56.43-.84.1-.2.17-.43.33-.59.2-.2.5-.32.73-.48.09.33.12.67.14,1.02,0,0-.02.02-.02.03-.36.51-.61,1.08-.83,1.67-.23.61-.52,1.27-.6,1.91,0,.06.06.09.09.04.32-.48.45-1.1.65-1.64.2-.55.44-1.07.73-1.57,0,.31-.02.62-.04.93-.06.86-.13,1.72-.13,2.59,0,.71-.04,1.42-.04,2.14-.29.34-.41.77-.57,1.19-.21.59-.48,1.18-.52,1.82,0,.1.13.1.16.02.21-.52.39-1.06.59-1.58.11-.29.2-.61.34-.89,0,.01,0,.02,0,.03.02.7.03,1.59.35,2.25-.33.69-.53,1.46-.63,2.11-.18,1.28.01,2.78,1.12,3.55-.33.33-.41.86-.52,1.29-.13.49-.3.96-.4,1.45-.02.13-.16.65-.05.75.15.14.26-.39.28-.48.11-.49.24-.98.4-1.46.12-.38.2-.85.43-1.18.41,1.35.53,2.75.69,4.16-.02.01-.04.03-.05.06-.24.49-.46,1-.61,1.53-.11.4-.32.93-.24,1.34.04.18.22-.23.22-.25.12-.34.24-.69.34-1.03.06-.19.12-.38.19-.57.04-.11.22-.39.21-.5,0,0,0,.01,0,.02.08.68.15,1.37.19,2.06.02.31.08.69.02.99-.05.3-.21.58-.3.87-.06.17-.36.89-.19,1.04.11.09.18-.22.22-.31.09-.19.17-.39.26-.58.08.35.02.77.04,1.13.02.39.05.77.11,1.16.02.11.19.08.19-.03.08-2.11.03-4.21-.18-6.31.02.04.05.08.07.12.13.23.28.44.42.67.08.13.33.59.51.59.2,0,0-.33-.04-.41-.13-.26-.31-.5-.46-.76-.08-.14-.14-.29-.23-.43-.05-.07-.1-.15-.15-.21-.03-.03-.17-.14-.17-.17-.12-1.3-.13-2.74-.55-4,.32.2.6.64.8.9.36.49.62,1.02.89,1.56.04.08.18.03.15-.06-.2-.67-.55-1.28-.96-1.84-.17-.23-.36-.51-.59-.72,1.93.18,2.68-3.74,2.55-5.1,0-.03,0-.07-.01-.1,0,.02.02.05.03.07ZM84.7,50.84c-.15.01-.29.03-.44.02-.13,0-.19.14-.14.24.59,1.23.6,2.61.9,3.91,0-.04-.04-.09-.06-.13-.19-.39-.44-.76-.76-1.06-.22-.21-.44-.33-.71-.44-.03-.01-.29-.09-.29-.1,0-.09,0-.18,0-.27,0-.13.02-.26.04-.39.03-.21.06-.41.08-.62.04-.43.07-.85.15-1.28.02-.11.04-.22.06-.33.07-.27.14-.54.22-.81.16-.58.35-1.16.54-1.73.28.97.45,1.96.42,2.97ZM86.24,42.26c-.56,1.13-1.1,2.26-1.54,3.44-.14.37-.27.74-.41,1.12-.06-.16-.12-.31-.18-.46.53-.19.44-1.08.4-1.5-.08-.73-.31-1.42-.49-2.13,0,0,0-.02,0-.03,0,0,0-.01.01-.02.78-.68,1.56-1.35,2.31-2.06.38-.36.75-.72,1.11-1.09-.47.87-.79,1.85-1.23,2.73ZM101.88,27.47c-1.08.61-2.14,1.25-3.23,1.84-.63.35-1.25.71-1.85,1.1-.44.29-.87.58-1.3.87-.41.29-.81.6-1.23.88-.74.51-1.43,1.06-2.07,1.69-1.39,1.36-2.57,2.91-3.87,4.36-1.32,1.47-2.79,2.82-4.29,4.11,0-.02,0-.05,0-.07.89-.82,1.78-1.65,2.61-2.53.94-.99,1.82-2.04,2.66-3.12,1.02-1.31,2.08-2.49,3.32-3.58,1.35-1.18,2.95-2.14,4.39-3.22,1.55-1.15,3.22-2.05,4.94-2.93.53-.27,1.06-.54,1.6-.79.54-.25,1.1-.45,1.64-.72.57-.29,1.14-.58,1.73-.82.08-.03.16-.06.24-.1-1.8.94-3.52,2.01-5.29,3.01ZM94.48,50.24c.17-.98.57-1.88,1.08-2.72.48-.79,1.04-1.53,1.59-2.27.19-.25.37-.51.55-.77.14-.21.29-.4.45-.59-.49,1.95-1.49,3.74-2.23,5.59-.49,1.23-.69,2.58-1.14,3.81,0,.02-.02.05-.04.09-.08-.02-.17-.03-.24-.02,0,0,0,0,0,0-.13-1.02-.19-2.09-.01-3.11ZM93.73,59.14c-.09.17-.17.35-.24.53-.16.37-.29.75-.41,1.14-.23.75-.4,1.51-.56,2.28,0,.01,0,.02,0,.03-.22,1.05-.42,2.1-.63,3.15-.2.99-.42,2-.68,2.98-.17.63-.39,1.22-.55,1.86-.46,1.85-.88,3.72-1.4,5.56-.02.07-.04.13-.1.15.01-.39.18-.83.27-1.22.1-.41.19-.83.29-1.24.5-1.99,1.13-3.94,1.56-5.94.26-1.21.44-2.44.69-3.65.23-1.09.3-2.2.62-3.28.15-.5.32-.99.52-1.46.05-.13.68-1.26.64-1.29.19.14.06.24-.02.42ZM95.91,54.53c.33.41.58.91.73,1.41.13.43.21.98.15,1.43-.07.52-.29,1.08-.73,1.41-.47.35-.93.45-1.48.17-1.1-.54-1.34-2-1.32-3.11.01-.54.13-1.11.41-1.57.33-.54.75-.74,1.35-.46.34.16.63.41.88.72ZM107.7,25.14c-.48.57-.99,1.12-1.48,1.68-1.03,1.18-2.13,2.32-3.01,3.62-.85,1.25-1.46,2.61-2.02,4-.27.66-.52,1.33-.72,2.02-.13.44-.3.86-.41,1.3-.33,1.35-.55,2.72-.86,4.06-.31,1.34-.69,2.66-1.17,3.94-.39,1.03-.87,2.02-1.32,3.03-.17.38-.35.77-.5,1.16-.26.66-.45,1.34-.62,2.03-.12.5-.17,1.07-.35,1.55,0,.01,0,.02-.02.03-.02.01-.04,0-.06-.01,0,0,0,0,0,0,.07-.16.11-.34.16-.51.05-.17.12-.35.09-.53,0-.03-.05-.03-.06,0-.09.16-.11.37-.16.55-.04.15-.09.3-.12.45-.02-.01-.04-.02-.05-.03-.01,0-.02-.01-.03-.03,0-.01,0-.03,0-.04.07-.18.11-.38.18-.56.37-.92.51-1.92.85-2.85.36-1.01.88-1.97,1.3-2.96.82-1.92,1.38-3.96,1.75-6.02.24-1.3.51-2.58.9-3.84.41-1.32.89-2.61,1.4-3.9.47-1.2,1.02-2.36,1.76-3.41.09-.13.18-.25.27-.38.74-.98,1.56-1.93,2.4-2.82.39-.41.81-.79,1.21-1.19.27-.27.53-.56.79-.84.13-.13.25-.28.41-.38.17-.11.37-.19.54-.29-.41.32-.71.76-1.04,1.17ZM106.94,24.21c-.13.06-.26.12-.4.18-.62.28-1.24.59-1.86.87-.47.22-.97.42-1.45.63-.97.44-1.9.94-2.9,1.32-1.24.47-2.53.83-3.83,1.07-.94.17-1.9.24-2.85.41-1,.17-2.04.29-3.05.47-1.02.18-2,.48-3.01.72-1.64.39-3.24.95-4.79,1.6-.9.38-1.77.85-2.64,1.3-.92.47-1.83.97-2.73,1.47-.83.46-1.66.91-2.49,1.36-.9.5-1.79,1.01-2.65,1.58-.77.51-1.54,1.01-2.37,1.41-.93.45-1.9.82-2.87,1.19-.82.32-1.64.63-2.45.97-.83.35-1.66.7-2.47,1.1-.37.18-.75.36-1.12.56-.87.47-1.69,1.04-2.49,1.63-1.34,1-2.59,2.1-3.89,3.15-1.28,1.04-2.41,2.25-3.66,3.32-.32.28-.65.55-.98.83.98-.87,1.93-1.77,2.89-2.67.55-.51,1.11-1.02,1.67-1.52.37-.32.74-.62,1.11-.94.37-.32.69-.69,1.07-1,.36-.3.73-.59,1.1-.86,1.36-1.01,2.8-1.91,4.3-2.69,1.63-.84,3.33-1.51,5.07-2.09,1.51-.51,2.93-1.22,4.29-2.06.81-.51,1.59-1.04,2.4-1.55.44-.27.88-.54,1.33-.79.88-.49,1.8-.93,2.67-1.44.88-.52,1.76-1.05,2.65-1.54.45-.25.9-.48,1.36-.7.5-.24,1-.46,1.52-.65,2.81-1.04,5.66-1.86,8.62-2.32,3.05-.47,6.03-.92,8.91-2.07,1.13-.45,2.24-.98,3.33-1.51,1.06-.51,2.11-1.01,3.2-1.46.92-.39,1.81-.84,2.72-1.28.86-.41,1.73-.8,2.62-1.12.4-.15.76-.33,1.15-.48.55-.21,1.11-.39,1.67-.56.29-.09.58-.18.87-.26.26-.08.53-.2.8-.2.11,0,.24.08.31.16.06.07.11.15.16.23.01.02.02.04.02.07,0,.17-.47.25-.59.29-.86.27-1.74.52-2.59.81-1.41.49-2.81,1.04-4.2,1.6-.18.08-.37.15-.56.23-.98.4-1.96.79-2.93,1.22ZM107.33,37.37c-.08.03-.15.13-.09.22.36.51,2.32,4.26,1.16,4.35-.09,0-.16.08-.14.18.25,1,.48,1.95.39,2.99-.03.3-.08.59-.12.88-.02.12,0,.29-.05.39-.1.21-.3.18-.49.25-.31.13-.25.64-.26.91-.02.3-.01.6,0,.89.01.25-.04.49-.05.74-.01.33.07.94-.47.69-.09-.04-.22.03-.18.14.18.63.24,1.29.23,1.95,0,.31-.01.61-.04.91-.02.18-.04.36-.07.53,0,.05-.03.47-.15.26-.32-.54-.58-1.12-.76-1.71-.09-.29-.16-.59-.22-.89-.05-.26-.06-.55-.18-.79,0-.02-.02-.04-.04-.04-.02,0-.04,0-.05,0-.07.03-.14.06-.2.1-.05.03-.1.06-.16.06-.2,0-.16-.51-.18-.64-.03-.33-.04-.67-.04-1,0-.72.12-1.43.16-2.15,0-.09-.07-.15-.15-.15-.27-.02-.5,0-.72.1-.24-1.12-.13-2.27.25-3.34.03-.08-.03-.18-.11-.2,0,0-.28-.04-.29-.05-.36-.17-.3-.33-.25-.6.04-.22.1-.43.15-.64.09-.43.22-.85.32-1.27.04-.17.27-.87-.05-.86-.06,0-.11.02-.17.03-.1.02-.22.03-.31-.02-.24-.12-.11-.49-.07-.69.05-.27.08-.53.15-.8.12-.48.48-.93.32-1.42-.12-.38-.27-.58-.15-1,.11-.4.31-.78.51-1.14.3-.53.64-1.07,1.11-1.46-.12.55-.21,1.09-.26,1.63-.31.45-.63.94-.75,1.46-.02.09.1.14.15.06.18-.28.37-.55.55-.83-.05.07-.01.3-.01.38,0,.14,0,.28,0,.41,0,.27,0,.53.02.8.01.27.02.45-.09.7-.1.21-.23.41-.33.63-.09.21-.19.41-.27.62-.02.07-.12.37,0,.4.13.03.3-.43.33-.51.13-.29.27-.56.42-.83.02.27.05.54.08.82.05.46.09.92.12,1.39,0,.04,0,.07,0,.11-.03.22-.24.41-.34.6-.12.21-.23.42-.32.64-.09.2-.18.4-.22.61-.02.08-.08.43.08.36.1-.04.22-.45.27-.55.19-.38.38-.76.63-1.11.02.57.1,1.13.15,1.7.03.28.05.57.06.85,0,.28-.1.39-.23.63-.11.22-.24.44-.35.66-.19.38-.37.8-.34,1.23,0,.11.18.15.21.03.1-.52.29-.95.53-1.42.05-.1.13-.22.2-.34,0,.21.02.41.03.62.02.52.01,1.03,0,1.55,0,.26,0,.52,0,.77,0,.24-.13.46-.21.68-.1.27-.2.53-.26.81-.02.09-.04.19-.04.28,0,.06.04.2.09.07.14-.38.26-.76.43-1.13,0,.4.03.8.07,1.2.03.3.05.6.11.89.01.07.04.32.13.36.21.08.08-.5.06-.59-.08-.57-.1-1.14-.12-1.71.14.15.25.32.38.48.12.14.21.31.34.44.08.09.21.16.19-.01-.02-.22-.26-.46-.38-.64-.17-.26-.36-.54-.57-.77-.01-.63,0-1.25-.01-1.88,0-.5-.01-1.01-.03-1.51.48.54.8,1.18,1.19,1.8.03.05.09.03.12-.01.02-.03-.03-.12-.04-.15-.05-.14-.1-.28-.17-.41-.12-.25-.25-.49-.39-.72-.18-.32-.4-.71-.73-.91-.04-.96-.1-1.92-.17-2.88.58.52.98,1.44,1.25,2.09.04.1.2.07.17-.05-.13-.58-.35-1.05-.67-1.54-.22-.34-.45-.7-.78-.94,0-.12-.02-.25-.03-.37-.06-.72-.14-1.44-.2-2.16.78.62,1.28,1.65,1.54,2.57.04.15.28.09.24-.07-.25-1.09-.88-2.26-1.81-2.9-.06-.84-.08-1.69-.01-2.53.01-.02.03-.05.04-.07.25.22.46.51.63.79.11.17.2.36.3.54.03.06.21.49.29.28.11-.29-.22-.78-.36-1.01-.21-.34-.46-.68-.77-.94-.02-.02-.05-.04-.08-.05.02-.13.03-.25.06-.38.05-.32.13-.64.2-.95.21.17.38.46.51.66.25.4.45.84.62,1.28.17.45.76,2.02.06,2.29ZM107.45,33.07c-.04.28-.15.98-.06,1.48-.05-.25-.24-.54-.36-.76-.12-.21-.23-.44-.37-.64-.1-.13-.23-.24-.34-.37-.01-.02-.03-.04-.03-.06,0-.02,0-.03,0-.05.08-.45.2-.89.31-1.33.2-.88.36-1.75.65-2.61.27-.79.5-1.6.82-2.38.24-.57.53-1.11.85-1.64.14-.24.29-.48.42-.73.06-.12.13-.23.21-.34.06-.08.15-.13.23-.19-.49,1.71-.48,3.49-.79,5.22-.05.32-.1.63-.13.93-.94.79-1.24,2.29-1.41,3.44ZM120.63,49.29c-.46-.42-.85-.96-1.19-1.47-.15-.23-.38-.63-.71-.62-.14,0-.22.12-.35.14-.33.05-.47-.29-.57-.54-.15-.4-.28-1.31-.88-1.2-.1.02-.14.1-.25.1-.15,0-.24-.14-.34-.24-.29-.28-.52-.61-.75-.94-.38-.55-.8-1.07-1.12-1.66-.04-.07-.13-.09-.19-.05-.23.12-.46.29-.72.17-.24-.12-.46-.45-.62-.66-.22-.29-.47-.71-.83-.85-.36-.14-.59.19-.96-.07-.22-.15-.37-.46-.52-.68-.16-.23-.33-.45-.49-.68-.24-.36-.37-.73-.56-1.11-.15-.3-.25-.34-.54-.42-.46-.13-.6-1.07-.69-1.5-.14-.67-.14-1.36-.18-2.05,0-.1-.09-.17-.19-.14-.57.12-.21-1.85-.16-2.13.18-.9.44-1.86,1-2.6-.05.07,0,.37,0,.45.02.32.05.65.1.97.04.3.1.55-.01.83-.1.27-.14.54-.21.82-.1.38-.14.77-.18,1.16-.01.12.12.28.19.11.15-.37.16-.79.24-1.18.05-.26.13-.5.22-.74.11.43.24.86.41,1.28.13.33.28.66.43.99,0,.01-.01.02-.02.04-.2.99-.66,2.24-.29,3.24.03.07.13.06.14-.02.03-.57-.02-1.1.08-1.67.07-.42.17-.83.26-1.24.42.82.9,1.62,1.4,2.39-.33,1.07-.3,2.25.05,3.3.03.1.17.06.15-.04-.19-1.01-.27-2.01-.03-3,.17.26.35.52.53.78.44.64.9,1.27,1.38,1.88-.01.02-.02.03-.03.05-.09.41-.08.85-.02,1.26.03.19.06.39.1.58.03.11.15.29.17.06.02-.24-.02-.48-.04-.71-.03-.32-.03-.64,0-.96.35.33.64.76.96,1.13.17.2.34.39.51.58.06.07.5.45.49.52-.07.35-.03.69.08,1.02.05.13.11.34.2.49.02.06.1.31.18.33.13.03.1-.19.08-.25-.12-.44-.36-.83-.29-1.31.33.27.62.62.91.93.36.38.69.78,1.05,1.15-.05.24,0,.56.04.8.04.27.11.54.24.78.05.1.19.01.15-.09-.19-.39-.15-.82-.21-1.24.2.23.41.46.62.69.15.16.28.33.44.48.04.04.09.08.14.08.24.01-.08-.34-.12-.4-.23-.33-.48-.64-.75-.94-.02-.02-.03-.04-.05-.05.02,0,.05,0,.07.01.23.06.46.16.66.29.13.08.23-.11.11-.2-.24-.17-.52-.31-.81-.38-.1-.02-.22-.05-.34-.05-.35-.37-.7-.73-1.06-1.09-.34-.34-.66-.71-.98-1.08.03,0,.05,0,.08-.01.19-.02.39,0,.57.04.37.08.76.22,1.04.48.07.06.18-.02.13-.1-.24-.36-.69-.53-1.1-.63-.3-.07-.59-.15-.89-.02-.74-.64-1.37-1.44-1.98-2.2.29.03.56.06.85.14.35.1.65.27.98.42.05.02.12-.03.09-.09-.18-.28-.58-.44-.89-.54-.37-.13-.84-.26-1.24-.21-.16-.2-.31-.41-.46-.62-.42-.59-.84-1.2-1.24-1.82.77.15,1.46.56,2.16.92.06.03.13-.05.07-.09-.71-.58-1.53-1.07-2.46-1.18-.46-.73-.9-1.47-1.3-2.23.22.11.43.25.66.38.49.29.96.57,1.38.97.06.06.16-.03.1-.1-.42-.45-.92-.81-1.43-1.16-.26-.18-.58-.45-.92-.51-.38-.76-.72-1.61-.94-2.48.31.11.61.46.82.66.26.25.48.54.74.79.07.07.16-.02.12-.1-.19-.38-.55-.72-.84-1.01-.24-.24-.56-.56-.91-.63-.16-.7-.24-1.4-.2-2.1.73.32,1.18,1.12,1.59,1.77.44.7.96,1.36,1.19,2.16-.06.03-.12.06-.19.09-.11.04-.15.14-.1.24.21.46.73.81,1.09,1.16.32.31,1.23,1.06.88,1.58-.05.08-.01.18.06.23.66.42,1.3.92,1.74,1.57.24.35.32.68.41,1.08.02.08,0,.14.05.21.1.17.39.31.55.38.34.16.61.35.87.61.27.27.58.57.72.93.13.33.02.66.09,1,.15.63.85,1.07,1.15,1.63.2.37.33.69.37,1.11.03.26.06.41.22.63.2.28.47.5.64.81.24.44.28.99.32,1.48.02.3.03.62.06.95-.09-.08-.19-.16-.29-.24Z" fill="#282929"/><path d="M66.97,69.69c-.53.31-.97.8-1.31,1.3-.18.27-.35.54-.46.84-.06.15-.1.3-.12.46,0,.08.02.38.13.17.24-.44.37-.93.65-1.35.34-.51.78-.87,1.21-1.29.07-.07-.02-.18-.1-.13Z" fill="#282929"/><path d="M65.21,75.98c-.78-.91-.42-1.94-.18-2.98.01-.05-.06-.08-.09-.04-.52.79-.81,2.57.15,3.17.1.06.19-.07.12-.15Z" fill="#282929"/><path d="M69.72,62.62c-.56.33-.95.92-1.2,1.52-.13.31-.22.65-.27.98-.02.15-.03.31-.02.46,0,.05-.01.18.03.22.07.07.14,0,.15-.08.14-.56.24-1.11.49-1.63.24-.5.53-.93.94-1.32.08-.08-.02-.21-.12-.15Z" fill="#282929"/><path d="M73.93,58.45c-.16-.18-.66.44-.73.54-.18.26-.31.55-.42.84-.12.31-.22.63-.28.96-.04.24-.13.72,0,.94.02.03.06.05.09.04.03-.01.04-.05.05-.08.16-.52.17-1.07.34-1.58.11-.33.26-.65.45-.94.07-.1.55-.64.49-.71,0,0,0,0,0,0Z" fill="#282929"/><path d="M73.33,64.34c-.03-.08-.1-.18-.12-.2-.2-.22-.32-.51-.39-.8-.07-.29-.1-.59-.15-.89-.02-.13-.1-.21-.18-.09-.06.09-.05.25-.05.35,0,.25.06.5.13.73.11.39.31.8.69.97.1.04.09,0,.06-.08Z" fill="#282929"/><path d="M73.39,70.76s-.04-.07-.07-.04c-.97.91-1,3.02-.5,4.17.03.08.14.03.14-.04.03-.68-.15-1.34-.12-2.03.03-.76.34-1.36.56-2.06Z" fill="#282929"/><path d="M74.14,76.94c-.16-.26-.48-.4-.67-.65-.21-.28-.24-.61-.41-.9-.04-.06-.13-.05-.15.02-.17.58.54,1.67,1.17,1.66.06,0,.1-.07.07-.12Z" fill="#282929"/><path d="M68.08,80.56c.04-.09-.06-.19-.15-.11-.63.56-.8,1.66-.89,2.45,0,.06-.01.12-.02.18-.05.59-.12,1.35.22,1.87.08.12.37.38.28.06-.19-.68-.22-1.35-.15-2.05.09-.86.37-1.62.71-2.41Z" fill="#282929"/><path d="M68.79,85.99s-.03-.02-.06-.04c-.13-.06-.29-.06-.42-.13-.12-.07-.22-.15-.32-.24-.05-.05-.13-.1-.19-.06-.24.17.43.53.52.57.12.05.26.11.39.05.09-.04.13-.1.08-.15Z" fill="#282929"/><path d="M82.84,54.21s-.03-.09-.07-.06c-.73.69-1.11,1.8-1.2,2.79-.08.93.08,2.21.77,2.9.04.04.13,0,.11-.06-.14-.44-.38-.84-.51-1.3-.13-.48-.18-.97-.14-1.46.07-1.06.56-1.89,1.04-2.81Z" fill="#282929"/><path d="M86.94,48.39c.03-.1-.13-.17-.17-.07-.46,1.02-.62,2.37-.23,3.44.02.06.11.05.11-.02.05-.54-.04-1.08-.02-1.62.01-.59.12-1.17.32-1.73Z" fill="#282929"/><path d="M87.62,53.64c-.14-.1-.28-.16-.39-.3-.24-.32-.3-.71-.45-1.07-.03-.08-.11-.14-.17-.05-.04.06.02.22.03.28.06.24.13.47.23.69.12.26.37.66.7.62.09-.01.12-.11.04-.16Z" fill="#282929"/><path d="M102.9,60.83c-.06-.07-.12,0-.12.07,0,.06.1.19.13.25.09.18.16.36.21.55.11.38.15.78.11,1.18-.01.14-.03.33.03.46.06.14.1.09.13-.05.07-.28.09-.58.08-.87-.03-.56-.2-1.15-.57-1.58Z" fill="#282929"/><path d="M103.33,63.89c0-.06-.1-.1-.13-.03-.14.28-.19.59-.31.88-.12.28-.31.56-.38.85-.01.07.07.12.12.07.21-.21.34-.53.45-.8.12-.3.26-.64.24-.97Z" fill="#282929"/><path d="M98.84,67.72c-.21-.63-.56-1.21-1.11-1.59-.05-.03-.1.04-.06.08.46.4.78.99.95,1.57.09.31.21.59.19.91-.01.15-.05.31-.08.46-.02.07-.13.31.02.3.15-.01.24-.41.26-.52.06-.4-.04-.83-.16-1.21Z" fill="#282929"/><path d="M98.71,69.94s-.06.03-.08.06c-.02.03-.02.07-.02.11-.05.44-.25.86-.57,1.17-.06.05-.13.18,0,.21.05.01.15-.08.19-.11.13-.11.23-.25.32-.39.1-.17.18-.35.21-.54.01-.08.07-.49-.04-.5,0,0,0,0-.01,0Z" fill="#282929"/><path d="M92.95,76.16s-.07.02-.06.06c.24.54.59.97.76,1.55.2.68.2,1.4.11,2.1-.05.34-.1.71-.2,1.04-.09.29-.29.54-.48.78-.04.05-.13.27.02.21.84-.33.94-1.73.98-2.49.05-1.05-.2-2.61-1.14-3.25Z" fill="#282929"/><path d="M88.92,66.75s-.01,0-.02-.01c-.04-.02-.13.04-.16.05-.11.05-.22.12-.32.2-.21.16-.39.37-.54.58-.29.42-.51.91-.63,1.41-.04.16-.06.31-.06.48,0,.06,0,.41.14.25.02-.02.03-.06.04-.09.07-.22.1-.45.17-.68.09-.27.17-.53.3-.78.16-.3.37-.56.61-.8.07-.07.58-.5.47-.61Z" fill="#282929"/><path d="M87.47,72.15c-.07-.19-.12-.38-.16-.58-.03-.2-.03-.4-.02-.6,0-.13.03-.34-.04-.46-.11-.19-.2.14-.22.21-.04.17-.05.34-.05.52-.01.29.03.59.12.86.05.14.11.27.2.38.03.04.1.12.15.13.27.04.05-.38.01-.46Z" fill="#282929"/><path d="M93.92,56.07c-.05-.33-.06-.66,0-.99.03-.17.08-.34.14-.5.02-.06.04-.12.04-.18,0-.27-.26,0-.32.1-.09.13-.14.29-.17.44-.06.31-.05.63-.02.95.04.42.11.84.26,1.24.07.19.16.4.3.55.06.06.16.16.22.04.04-.07-.07-.27-.1-.35-.14-.42-.29-.86-.35-1.3Z" fill="#282929"/><path d="M96.12,58.14c-.27.14-.5.3-.82.29-.19,0-.36-.08-.52-.19-.05-.04-.24-.27-.32-.17-.07.08.19.37.26.42.16.11.36.16.56.17.35.02.79-.09.92-.46.02-.04-.04-.08-.07-.06Z" fill="#282929"/><path d="M95.95,91s-.09.05-.05.09c.39.32.82.54,1.16.92.28.31.48.67.57,1.08.02.07.06.49.13.49.1,0,.11-.37.11-.44,0-.33-.15-.65-.33-.93-.36-.54-.95-1.04-1.58-1.22Z" fill="#282929"/><path d="M97.84,94.1s-.06-.04-.08,0c-.05.14-.05.3-.05.45,0,.17-.07.32-.09.48-.01.08.07.14.14.08.12-.11.13-.29.14-.44.01-.18,0-.39-.06-.56Z" fill="#282929"/><path d="M91.98,95.41c-.13-.51-.35-1.03-.68-1.44-.21-.27-.66-.7-1.04-.58-.05.01-.05.07-.01.1.17.12.38.15.55.29.16.13.28.29.39.47.54.87.77,1.95.64,2.96-.03.22-.07.44-.15.64-.01.03-.16.53-.02.43.76-.57.53-2.06.33-2.86Z" fill="#282929"/><path d="M95.42,99.18c-.07,0-.1.11-.04.14.32.15.58.36.77.66.17.27.24.55.37.84.05.11.19.04.2-.06.07-.64-.66-1.54-1.3-1.58Z" fill="#282929"/><path d="M96.68,101.28s-.07.03-.06.06c.05.37.21.67.19,1.07-.02.38-.13.73-.24,1.09-.01.04.04.08.07.05.45-.32.5-1.1.41-1.59-.05-.24-.11-.58-.37-.68Z" fill="#282929"/><path d="M88.59,106.13s-.02-.06-.04-.04c-.72.46-1.16,1.55-1.34,2.36-.03.15-.06.29-.08.44-.04.35-.04.7.03,1.05.06.28.19.7.46.85.27.15.05-.25,0-.35-.09-.22-.15-.44-.18-.67-.06-.46-.02-.93.07-1.38.16-.83.72-1.5,1.08-2.25Z" fill="#282929"/><path d="M84.21,95.68c-.54.5-.93,1.8-.57,2.48.06.12.22.03.2-.08-.12-.84.16-1.58.47-2.34.02-.06-.06-.09-.09-.06Z" fill="#282929"/><path d="M84.65,100.53c-.07-.13-.2-.21-.3-.33-.15-.18-.24-.4-.3-.61-.08-.27-.05-.6-.17-.86-.02-.03-.05-.07-.09-.07-.27-.02.03,1.07.07,1.19.11.3.35.8.74.75.03,0,.05-.03.04-.06Z" fill="#282929"/><path d="M81.02,93.7c-.62.17-1.02.78-1.28,1.33-.15.31-.27.64-.35.98-.04.15-.07.31-.1.47-.02.1-.08.32-.04.42.04.09.1.1.14,0,.26-.81.54-1.72,1.07-2.39.2-.25.46-.44.63-.71.02-.04-.02-.09-.06-.08Z" fill="#282929"/><path d="M79.39,98.41c-.05-.36-.01-.72-.05-1.08,0-.08-.11-.1-.14-.02-.2.61-.23,1.67.36,2.08.03.02.07,0,.07-.04-.02-.33-.19-.62-.24-.95Z" fill="#282929"/><path d="M76.32,97.27c-.32.24-.53.64-.74.97-.25.39-.45.81-.57,1.26-.13.5-.23,1.01-.23,1.52,0,.25.03.52.12.76.03.07.09.26.17.29.18.07.11-.2.09-.29-.16-.72-.02-1.58.17-2.28.11-.42.32-.8.55-1.17.2-.31.47-.61.54-.97.01-.05-.05-.12-.11-.08Z" fill="#282929"/><path d="M75.79,102.46c-.07,0-.17,0-.19,0-.13-.01-.24-.09-.33-.18-.01-.01-.03-.03-.05-.03-.05-.01-.09.03-.09.08,0,.14.18.26.3.3.15.06.33.06.43-.07.05-.07,0-.09-.06-.1Z" fill="#282929"/><path d="M31.59,81.48s-.03-.02-.05-.02c-.04,0-.07.05-.09.09-.13.31-.22.63-.34.94-.06.16-.13.31-.19.46-.03.07-.07.22.08.15.04-.02.1-.13.13-.17.09-.13.18-.27.25-.41.14-.29.24-.61.24-.93,0-.04,0-.09-.03-.11Z" fill="#282929"/><path d="M34.63,75.55s0,0-.01-.01c-.04-.03-.11,0-.15,0-.29.07-.55.32-.8.48-.22.14-.45.27-.66.43-.06.04-.5.37-.2.34.09,0,.22-.11.31-.15.21-.12.4-.26.6-.39.25-.16.51-.32.75-.49.06-.04.23-.12.16-.21Z" fill="#282929"/><path d="M37.44,73.83c-.02-.25-.03-.51-.1-.75-.04-.15-.18-.34-.26-.11-.07.24.07.55.1.79.05.4.06.8-.02,1.2-.02.1.12.14.15.04.14-.38.16-.77.12-1.17Z" fill="#282929"/><path d="M38.22,67.75c-.56.09-1.15.68-1.55,1.05-.5.46-.96.97-1.29,1.57-.04.07.06.15.11.09.42-.49.84-.96,1.32-1.39.26-.23.52-.44.8-.64.24-.17.51-.3.7-.52.07-.08,0-.18-.1-.17Z" fill="#282929"/><path d="M32.69,69.77s-.08-.04-.11-.03c-.2.05.02.31.07.4.14.26.21.55.3.83.02.05.1.04.09-.01-.01-.41-.09-.85-.35-1.18Z" fill="#282929"/><path d="M33.73,64.89c-.15.04-.25.14-.37.24-.15.12-.31.24-.46.36-.14.12-.27.24-.37.39-.04.06-.13.14-.14.21-.01.09.03.14.12.06.21-.18.42-.36.64-.54.2-.17.57-.34.68-.6.03-.07-.02-.14-.1-.13Z" fill="#282929"/><path d="M36.28,61.32c-.27.03-.52.26-.74.41-.27.17-.52.36-.73.6-.11.12.07.3.18.18.23-.26.51-.44.79-.62.2-.13.47-.25.55-.49,0-.03-.02-.07-.05-.06Z" fill="#282929"/><path d="M39.56,57.67c-.84-.04-1.82.51-2.36,1.13-.05.05.01.12.07.09.42-.21.78-.52,1.22-.7.37-.15.81-.16,1.11-.42.04-.04,0-.1-.04-.1Z" fill="#282929"/><path d="M39.96,58.58s-.1-.02-.12.03c-.04.13-.02.25-.04.38-.02.18-.08.35-.14.52-.11.3-.3.58-.39.89-.02.08.08.14.14.08.26-.25.42-.65.54-.99.09-.25.25-.71,0-.92Z" fill="#282929"/><path d="M37.02,61.75s-.08-.04-.1,0c-.09.17-.08.37-.11.55-.04.21-.09.42-.15.63-.04.13.16.18.2.06.07-.23.14-.46.18-.7.03-.18.07-.37-.03-.53Z" fill="#282929"/><path d="M40.97,63.91c-.06-.08-.22-.04-.18.08.26.71.48,1.39.48,2.15,0,.12.19.12.19,0,.02-.7-.07-1.65-.5-2.23Z" fill="#282929"/><path d="M42.58,61.49c-.11-.24-.23-.47-.37-.67-.06-.09-.2-.25-.31-.27-.27-.06.01.34.07.42.5.69.72,1.56.79,2.4,0,.11.15.1.16,0,.08-.6-.09-1.29-.35-1.88Z" fill="#282929"/><path d="M40.3,60.94c-.29.08-.54.43-.75.65-.23.24-.44.48-.52.81,0,.04.04.07.07.04.24-.24.46-.49.7-.73.2-.19.52-.39.6-.66.02-.06-.04-.12-.1-.1Z" fill="#282929"/><path d="M40.54,68.18c-.09-.42-.19-.89-.36-1.29-.03-.07-.14-.07-.14.02.01.37.16.74.25,1.1.1.41.14.83.23,1.24,0,.04.08.04.09,0,.07-.35,0-.72-.07-1.06Z" fill="#282929"/><path d="M45.2,52.1c-.6-.11-1.62.16-2.02.64-.02.03,0,.07.04.06.33-.09.62-.3.96-.4.34-.1.68-.11,1.02-.17.06-.01.06-.12,0-.13Z" fill="#282929"/><path d="M43.16,54.2c-.27.04-.53.2-.75.36-.22.16-.47.34-.6.57-.02.04.02.08.06.06.22-.15.4-.35.61-.51.22-.16.47-.24.71-.37.05-.03.03-.12-.03-.11Z" fill="#282929"/><path d="M48.44,49.73c-.07-.13-.37-.09-.49-.09-.21,0-.41.05-.58.16-.06.04,0,.13.06.1.19-.09.41-.11.61-.11.11,0,.31.07.4-.02.01-.01.01-.03,0-.04Z" fill="#282929"/><path d="M48.74,50.42c-.01-.1-.15-.1-.15,0-.03.58-.18,1.16-.49,1.66-.04.06.05.13.1.07.34-.41.62-1.2.55-1.73Z" fill="#282929"/><path d="M45.86,52.68c-.01.23-.05.46-.12.69-.02.07-.17.4-.08.43.15.06.24-.38.26-.47.07-.22.11-.43.11-.66,0-.11-.17-.11-.17,0Z" fill="#282929"/><path d="M48.13,75.58s-.06.02-.06.07c0,.08.1.2.14.27.09.18.17.38.22.58.07.28.05.58.15.85.01.04.06.04.08,0,.1-.29.07-.61-.01-.89-.08-.28-.21-.6-.41-.82-.03-.03-.06-.05-.09-.05Z" fill="#282929"/><path d="M46.92,79.08c-.04-.06-.14,0-.1.06.15.27.31.54.42.82.07.16.12.33.16.5.01.06.05.37.15.33.07-.02.06-.28.06-.34-.02-.17-.07-.34-.14-.51-.14-.32-.33-.6-.54-.88Z" fill="#282929"/><path d="M47.37,74.89c-.23.06-.44.28-.59.44-.16.17-.33.37-.4.6,0,.02.02.03.03.02.17-.16.3-.35.46-.52.17-.17.38-.28.55-.44.05-.04,0-.12-.06-.11Z" fill="#282929"/><path d="M49.83,71.23c-.08-.19-.15-.38-.25-.55-.03-.06-.09-.18-.15-.22-.06-.04-.14,0-.14.08,0,.09.07.21.1.29.09.2.2.38.27.59.06.18.11.37.16.56.03.13.06.34.14.45.04.07.2.1.18-.03-.05-.4-.15-.82-.3-1.19Z" fill="#282929"/><path d="M48.31,70.54s-.07,0-.11.01c-.09.05-.17.13-.24.21-.14.16-.26.34-.38.52-.24.36-.47.77-.55,1.2,0,.05.06.09.09.04.2-.34.35-.7.56-1.03.12-.18.26-.35.41-.51.05-.06.38-.37.23-.44Z" fill="#282929"/><path d="M50.59,66.73c-.19-.85-.68-1.78-1.32-2.39-.07-.07-.21.02-.15.11.51.76.99,1.47,1.35,2.32.03.07.13.02.11-.05Z" fill="#282929"/><path d="M51.33,62.16c-.18-.5-.47-.97-.8-1.39-.12-.16-.24-.32-.38-.45-.06-.06-.44-.36-.5-.17-.04.14.25.29.32.39.16.19.32.37.47.57.27.37.47.78.77,1.13.05.05.15,0,.12-.07Z" fill="#282929"/><path d="M49.09,55.48c-.21-.1-.89.9-.99,1.03-.33.44-.61.9-.74,1.44-.02.08.1.14.14.06.26-.5.52-.98.87-1.42.15-.19.31-.36.47-.54.09-.1.41-.4.27-.55,0,0-.01-.01-.02-.02Z" fill="#282929"/><path d="M47.87,60.59c-.57.66-1.38,1.71-1.38,2.63,0,.06.08.08.11.03.23-.43.39-.88.65-1.3.25-.41.57-.79.81-1.22.06-.11-.1-.25-.19-.15Z" fill="#282929"/><path d="M53.44,65.07c-.26.27-.46.61-.63.94-.1.19-.23.39-.28.61-.01.06-.02.2.07.2.08,0,.11-.17.14-.23.09-.18.19-.35.29-.52.17-.31.4-.58.57-.88.06-.1-.08-.21-.16-.12Z" fill="#282929"/><path d="M55.03,64.51c-.1-.23-.22-.54-.4-.72-.05-.05-.13-.01-.13.05,0,.22.15.44.24.63.06.12.13.61.31.64.24.03.02-.52-.02-.61Z" fill="#282929"/><path d="M55.35,60.32c-.11-.33-.25-.75-.54-.96-.03-.03-.08,0-.08.05,0,.25.14.45.22.68.08.21.16.43.23.64.05.14.07.61.24.64.26-.16,0-.84-.07-1.04Z" fill="#282929"/><path d="M55.85,54.35c-.11-.32-.21-.71-.49-.92-.05-.04-.1.02-.09.07.07.36.29.69.41,1.04.14.41.27.82.36,1.25.02.09.15.06.15-.02.01-.49-.18-.96-.34-1.41Z" fill="#282929"/><path d="M55.47,48.56c-.39.15-.72.67-.94,1.02-.15.26-.32.54-.36.84-.01.08-.03.24.09.19.12-.05.18-.28.23-.39.1-.2.2-.39.31-.57.22-.35.6-.64.75-1.01.02-.05-.04-.11-.09-.09Z" fill="#282929"/><path d="M56.83,49.53c-.05-.24-.13-.69-.38-.8-.03-.02-.08,0-.09.04-.05.25.13.55.18.79.04.19.08.38.12.57,0,.04.07.45.15.32.14-.26.08-.64.02-.92Z" fill="#282929"/><path d="M56.18,44.52c-.79.35-1.56,1.15-1.93,1.93-.03.07.05.13.11.08.23-.19.36-.43.54-.66.2-.25.44-.49.69-.68.24-.18.51-.32.69-.57.04-.06-.04-.12-.09-.09Z" fill="#282929"/><path d="M57.66,46.55c-.08-.18-.17-.35-.31-.49-.06-.06-.15-.13-.23-.14-.12,0-.02.14.01.19.22.32.39.68.51,1.04.03.08.05.15.08.23.01.03.07.22.11.11.08-.25,0-.53-.09-.76-.02-.06-.05-.12-.08-.18Z" fill="#282929"/><path d="M60.38,50.21c-.42.22-.67.74-.87,1.15-.2.41-.49.93-.49,1.39,0,.07.09.09.13.04.15-.21.24-.46.33-.7.1-.28.23-.6.39-.86.19-.32.43-.61.58-.95.02-.04-.02-.09-.07-.07Z" fill="#282929"/><path d="M63.65,51c-.18-.61-.54-1.15-.9-1.67-.23-.33-.52-.81-.94-.9-.11-.02-.17.12-.08.18.81.54,1.38,1.58,1.79,2.44.03.07.15.02.13-.05Z" fill="#282929"/><path d="M63.04,57.47c-.16-.25-.32-.49-.49-.72-.05-.07-.18-.42-.33-.28-.08.07.03.26.07.34.2.35.41.7.62,1.05.15.24.31.61.54.78.15.1.02-.38,0-.44-.07-.18-.18-.35-.28-.51-.04-.07-.08-.14-.13-.21Z" fill="#282929"/><path d="M60.79,54.87c-.12-.09-.63.49-.69.56-.2.26-.38.48-.51.8-.08.17-.22.39-.19.59.02,0,.04,0,.06-.01.29-.3.49-.67.71-1.02.1-.16.22-.3.34-.44.07-.08.34-.33.31-.44,0-.01-.01-.03-.02-.03Z" fill="#282929"/><path d="M60.65,62.66s-.01,0-.02,0c-.09-.04-.18.17-.21.23-.11.22-.16.45-.28.66-.09.17-.23.43-.16.63,0,.02.03.04.06.04.11-.03.21-.29.25-.38.08-.17.14-.34.22-.5.05-.1.31-.57.14-.68Z" fill="#282929"/><path d="M63.25,64.29c-.26-1-.57-2.06-1.13-2.94-.08-.12-.25-.02-.19.11.47.94.86,1.87,1.16,2.87.03.1.19.06.16-.04Z" fill="#282929"/><path d="M60.02,70.6c-.2.27-.35.59-.51.89-.13.25-.28.53-.26.82,0,.04.06.06.08.02.17-.27.28-.58.45-.86.15-.25.34-.51.4-.8.02-.1-.1-.15-.16-.07Z" fill="#282929"/><path d="M59.86,75.98s-.14.08-.17.16c-.06.13-.08.29-.1.43-.01.08-.11.89.09.82.03,0,.03-.04.04-.07.06-.41.12-.81.18-1.22.01-.09,0-.12-.03-.13Z" fill="#282929"/><path d="M62.06,65.97c-.05-.07-.16-.03-.14.06.09.38.35.7.46,1.08.1.34.13.71.31,1.02.04.07.14.02.13-.05-.12-.72-.31-1.5-.76-2.1Z" fill="#282929"/><path d="M69.6,46.63s0,0-.02-.01c-.09-.03-.42.41-.47.48-.14.19-.26.38-.4.57-.31.43-.62.88-.77,1.39-.02.08.09.13.13.06.23-.41.45-.83.72-1.22.26-.38.56-.75.79-1.15.01-.02.03-.05.03-.07,0-.02,0-.04-.02-.05Z" fill="#282929"/><path d="M71.53,45.36c-.14-.23-.35-.64-.62-.72-.04-.01-.06.02-.05.05.02.15.12.24.21.36.11.15.21.3.31.45.17.27.3.57.5.82.02.02.05,0,.05-.02-.03-.35-.22-.66-.4-.95Z" fill="#282929"/><path d="M69.2,52.96c-.24-.07-.46.47-.56.62-.2.31-.34.68-.5,1.02-.03.06-.2.52-.06.47.02,0,.04-.03.06-.05.21-.31.39-.63.57-.96.17-.32.49-.71.5-1.09,0,0,0,0-.01,0Z" fill="#282929"/><path d="M71.4,53.71c-.24-.39-.53-.88-.92-1.14-.08-.05-.15.05-.12.12.2.41.57.75.82,1.14.25.39.4.85.65,1.23.03.05.12.03.11-.03-.03-.47-.31-.94-.55-1.33Z" fill="#282929"/><path d="M69.28,57.84c-.25.36-.41.83-.56,1.24-.14.37-.27.79-.16,1.18,0,.03.06.04.07,0,.11-.44.18-.85.35-1.28.15-.36.37-.73.39-1.12,0-.06-.08-.07-.11-.03Z" fill="#282929"/><path d="M71.76,58.73c-.2-.4-.44-.8-.7-1.16-.16-.22-.48-.72-.81-.68-.04,0-.07.02-.09.07-.02.08.07.12.12.16.21.15.38.3.54.51.3.38.53.8.8,1.19.06.09.19.01.14-.08Z" fill="#282929"/><path d="M81.85,62.62c-.23.39-.35.88-.5,1.31-.16.45-.3.91-.32,1.38,0,.08.12.09.14.02.12-.49.24-.96.41-1.44.14-.4.36-.82.38-1.25,0-.06-.08-.08-.11-.03Z" fill="#282929"/><path d="M83.67,63.37c-.12-.24-.26-.5-.44-.69-.08-.08-.41-.42-.41-.16,0,.09.09.22.14.3.12.19.27.36.39.55.26.42.46.84.66,1.3.03.07.15.04.14-.04-.05-.41-.25-.79-.44-1.16-.02-.03-.03-.07-.05-.1Z" fill="#282929"/><path d="M82.47,67.56c-.23.15-.33.54-.4.78-.08.26-.2.63-.08.88.03.06.11.04.13-.02.09-.27.09-.57.18-.85.08-.24.26-.5.25-.76,0-.03-.04-.06-.07-.04Z" fill="#282929"/><path d="M81.15,60.78c-.46.71-.76,1.69-.85,2.53,0,.06.08.06.1.01.14-.41.27-.84.42-1.25.15-.41.36-.81.47-1.24.02-.08-.09-.12-.13-.05Z" fill="#282929"/><path d="M80.62,54.66c-.16-.06-.43.71-.46.8-.14.4-.22.81-.21,1.23,0,.11.17.11.17,0,.02-.34.1-.67.21-.99.1-.3.28-.6.34-.91,0-.04,0-.08-.02-.11-.01-.01-.02-.02-.03-.03Z" fill="#282929"/><path d="M82.73,50.44c-.27-.79-.51-1.61-.88-2.35-.05-.1-.22-.03-.18.08.31.78.6,1.56.93,2.33.03.07.16.02.13-.05Z" fill="#282929"/><path d="M82.82,40.1c-.1-.43-.26-.88-.48-1.27-.19-.35-.43-.79-.76-1.01-.04-.03-.1.02-.08.06.09.3.34.55.5.82.27.46.44.99.72,1.44.03.05.12.02.1-.04Z" fill="#282929"/><path d="M80.11,40.45c-.35.16-.58.54-.76.87-.1.17-.2.34-.27.53-.03.08-.08.19-.08.28,0,.08.06.19.12.05.26-.62.7-1.09,1.07-1.65.03-.05-.03-.1-.07-.07Z" fill="#282929"/><path d="M105.05,37.44c-.17.21-.27.47-.37.72-.11.28-.25.53-.33.82-.05.19.04.22.15.06.14-.2.22-.46.33-.69.12-.27.31-.57.33-.87,0-.05-.07-.09-.11-.04Z" fill="#282929"/><path d="M107.04,37.19c-.07-.32-.23-.58-.42-.85-.15-.22-.32-.55-.56-.68-.05-.03-.1.02-.09.07.03.24.27.47.42.66.21.27.39.55.57.84.03.04.09.01.08-.03Z" fill="#282929"/><path d="M105.56,42c-.27.28-.42.71-.56,1.07-.13.34-.3.81-.15,1.17.01.03.07.04.08,0,.09-.38.12-.75.26-1.12.14-.36.37-.69.5-1.05.03-.07-.08-.12-.13-.07Z" fill="#282929"/><path d="M106.96,42.68c-.13-.25-.3-.6-.55-.75-.04-.02-.1.02-.08.06.08.27.32.53.47.78.17.29.29.6.45.89.02.04.08.01.07-.03-.05-.34-.2-.65-.36-.95Z" fill="#282929"/><path d="M106.7,45.01c-.06-.05-.14,0-.13.07.05.23.18.44.28.65.17.37.25.78.43,1.15.17.35.14-.28.12-.4-.09-.51-.28-1.13-.7-1.47Z" fill="#282929"/><path d="M105.96,49.08s-.04,0-.09.03c-.07.05-.1.19-.12.27-.03.1-.05.22-.07.33-.01.06-.04.16-.03.22,0,.03.03.16.08.06.09-.24.2-.5.24-.76.01-.06.02-.13,0-.15Z" fill="#282929"/><path d="M107.03,52.76c-.07-.28-.12-.57-.15-.85-.03-.24-.03-.47-.12-.7-.01-.04-.07-.05-.08,0-.11.49.07,1.12.21,1.59.03.09.16.05.14-.04Z" fill="#282929"/><path d="M109.19,33.54c-.27.55-.23,1.32-.35,1.91-.02.11.15.16.17.05.06-.3.1-.61.14-.91.04-.34.14-.68.15-1.01,0-.06-.09-.09-.11-.03Z" fill="#282929"/><path d="M111.17,39.24c-.01-.39.03-.8-.06-1.19-.01-.07-.12-.07-.13,0-.17.77-.05,1.76.15,2.52.01.06.11.05.1-.01-.02-.44-.06-.88-.07-1.32Z" fill="#282929"/><path d="M112.67,35.9c-.24-.26-.53-.46-.83-.65-.25-.16-.53-.4-.83-.43-.03,0-.05.04-.04.06.15.24.47.37.71.52.31.19.61.4.94.57.04.02.08-.03.05-.06Z" fill="#282929"/><path d="M114.26,41.5s-.1-.05-.13,0c-.07.14-.05.28-.05.43,0,.18,0,.36,0,.54,0,.14.22.14.22,0,0-.18,0-.36,0-.54,0-.15.01-.3-.05-.43Z" fill="#282929"/><path d="M118.14,43.82c-.18-.16-.4-.26-.61-.35-.19-.08-.38-.19-.59-.18-.03,0-.05.03-.03.05.11.15.27.2.44.27.24.1.46.21.69.34.09.05.19-.07.11-.14Z" fill="#282929"/><path d="M117.9,46c-.04-.09-.05-.18-.06-.28,0-.07-.03-.15-.08-.19-.02-.02-.05-.01-.06.02-.03.08-.02.18,0,.27.01.09.03.18.08.27.04.09.17.01.13-.08Z" fill="#282929"/><path d="M114.74,39.23c-.24-.25-.52-.42-.85-.56-.26-.11-.64-.27-.91-.14-.07.03-.04.12.02.14.13.05.27.03.41.06.17.03.34.09.5.16.27.12.52.27.79.39.03.01.07-.02.04-.05Z" fill="#282929"/><path d="M101.01,21.53c-.12-.15-.24-.29-.39-.4-.05-.04-.51-.31-.41-.09.01.03.04.06.07.08.23.18.45.39.63.62.15.19.23.45.42.61.02.02.05.01.06-.02.05-.28-.21-.6-.37-.8Z" fill="#282929"/><path d="M102.46,23.43s-.04-.02-.06,0c-.09.05-.1.15-.14.24-.07.15-.18.27-.3.38-.18.18-.46.32-.6.53-.03.05.02.11.07.09.27-.08.56-.37.75-.57.12-.13.45-.48.27-.66Z" fill="#282929"/><path d="M97.55,21.88c-.15-.26-.36-.51-.63-.65-.08-.04-.11.08-.09.13.02.03.05.06.08.08.22.18.4.39.54.63.07.13.12.26.18.39.03.07.14.33.21.18.09-.18-.21-.62-.29-.77Z" fill="#282929"/><path d="M98.05,23.93c-.12.11-.17.3-.25.44-.1.17-.22.33-.37.45-.07.05.02.17.09.12.16-.12.3-.27.41-.43.1-.15.25-.35.25-.53,0-.06-.08-.09-.12-.05Z" fill="#282929"/><path d="M93.46,23.41c-.11-.34-.42-.65-.67-.9-.26-.26-.57-.51-.95-.57-.08-.01-.14.09-.06.13.33.16.61.38.87.64.24.24.41.55.67.77.05.04.15,0,.13-.07Z" fill="#282929"/><path d="M94.65,24.59s-.06-.05-.09-.01c-.09.12-.12.27-.19.39-.09.14-.19.26-.3.38-.06.07.04.17.1.1.19-.19.6-.56.48-.86Z" fill="#282929"/><path d="M89.94,24.59s-.02-.03-.04-.03c-.09,0-.14.05-.21.11-.12.11-.22.23-.36.32-.11.07-.24.09-.35.16-.09.06-.23.21-.09.26.17.05.58-.22.7-.31.15-.11.39-.29.35-.5Z" fill="#282929"/><path d="M87.47,22.45c-.23-.24-.52-.53-.84-.62-.07-.02-.13.07-.07.13.23.24.53.41.76.65.23.24.39.54.65.75.04.03.08,0,.07-.04-.06-.34-.34-.63-.56-.86Z" fill="#282929"/><path d="M80.01,30.58c-.08-.24-.41-.36-.62-.44-.24-.09-.59-.2-.83-.08-.04.02-.03.08.01.09.24.09.49.12.73.2.23.08.43.26.67.28.03,0,.05-.03.04-.06Z" fill="#282929"/><path d="M77.46,32s-.04-.04-.11-.05c-.1-.02-.21,0-.31.02-.23.04-.46.1-.68.16-.37.1-.71.26-.98.53-.05.05.02.15.08.11.36-.23.71-.4,1.13-.49.21-.04.42-.06.62-.11.08-.02.29-.1.25-.17Z" fill="#282929"/><path d="M77.93,36.42c-.21-.39-.47-.83-.87-1.04-.08-.04-.14.07-.07.12.68.52.96,1.35,1.21,2.13.01.03.06.04.07,0,.08-.43-.14-.83-.34-1.21Z" fill="#282929"/><path d="M75.25,37.07c-.55.37-.87,1.19-1.01,1.82-.01.05.06.09.09.04.14-.31.28-.62.44-.92.16-.31.38-.56.59-.84.04-.06-.04-.14-.1-.1Z" fill="#282929"/><path d="M75.48,41.51c-.05-.06-.16,0-.13.08.12.29.26.56.35.87.09.3.14.61.25.89.02.06.13.06.12-.02-.04-.58-.19-1.37-.6-1.82Z" fill="#282929"/><path d="M74.53,44.83s-.07-.02-.08.01c-.04.15-.02.32-.02.47,0,.16-.01.33.03.48,0,.03.04.02.05,0,.05-.16.05-.35.06-.51,0-.16.02-.31-.05-.45Z" fill="#282929"/><path d="M66.54,42.38s0,0,0,0c-.02-.01-.05,0-.07.02-.17.13-.3.29-.46.44-.05.05-.55.61-.37.62.03,0,.06-.02.08-.04.19-.18.34-.39.54-.56.13-.12.24-.22.3-.39,0-.03.01-.06,0-.08Z" fill="#282929"/><path d="M68.84,37.31c-.03-.09-.3-.07-.36-.06-.34.02-.66.17-.95.35-.04.02-.47.31-.34.36.02,0,.03,0,.05,0,.45-.22.86-.45,1.36-.52.06,0,.23,0,.25-.09,0-.01,0-.02,0-.03Z" fill="#282929"/><path d="M66.09,45.86c-.08,0-.22.27-.25.32-.11.17-.23.36-.23.57,0,.06.07.07.1.03.12-.16.2-.36.29-.53.04-.08.16-.25.13-.34-.01-.04-.03-.05-.05-.05Z" fill="#282929"/><path d="M67.2,46.09c-.04-.11-.09-.23-.16-.32-.06-.09-.13-.19-.22-.24-.02-.01-.05,0-.05.03.01.1.08.19.14.27.07.1.14.2.2.31.03.05.11.02.09-.04Z" fill="#282929"/><path d="M66.29,49.53c0-.06-.07-.09-.11-.05-.1.09-.14.24-.19.36-.06.14-.13.26-.12.41,0,.04.04.05.07.03.11-.1.16-.24.22-.37.06-.12.14-.25.13-.39Z" fill="#282929"/><path d="M117.19,19.67c-.55.09-1.06.33-1.58.49-.55.17-1.08.38-1.61.59-1.07.43-2.15.86-3.21,1.33-1.09.48-2.14,1.03-3.22,1.54-1.15.54-2.32,1.03-3.45,1.6-.04.02-.01.1.03.08,2.22-.85,4.31-1.95,6.48-2.9,1.13-.5,2.28-.97,3.42-1.43.5-.2,1.01-.4,1.53-.56.3-.09.59-.21.88-.31.19-.07.4-.09.59-.16.06-.02.22-.07.25-.14.03-.08-.04-.15-.12-.13Z" fill="#282929"/><path d="M103.58,25.45c-.4.12-.78.33-1.16.49-.39.17-.78.33-1.18.49-.32.13-.65.24-.97.36-.31.11-.62.25-.94.35-.3.1-.6.17-.9.27-.99.32-2,.55-3.02.71-.15.02-.3.05-.45.07-.76.13-1.52.28-2.28.36-.78.08-1.54.25-2.32.38-.79.14-1.58.34-2.36.54-.12.03-.24.06-.36.1-1,.28-1.98.64-2.96.99-.94.34-1.89.67-2.79,1.11-.8.39-1.61.78-2.35,1.26-.05.03,0,.11.05.08.73-.39,1.44-.79,2.19-1.14.47-.22.95-.4,1.43-.6.31-.13.61-.28.93-.38.61-.19,1.21-.45,1.82-.65.63-.21,1.27-.4,1.91-.57.75-.2,1.51-.37,2.27-.53.81-.18,1.63-.31,2.44-.43.77-.11,1.55-.25,2.33-.36.79-.12,1.57-.27,2.35-.46,1.44-.35,2.83-.82,4.21-1.37.38-.15.76-.29,1.13-.45.19-.08.38-.16.56-.24.16-.08.37-.15.5-.28.05-.05-.01-.11-.07-.1Z" fill="#282929"/><path d="M103.8,26.09c-1.21.64-2.43,1.26-3.64,1.89-.68.36-1.31.78-1.95,1.21-.87.58-1.75,1.14-2.61,1.72-.2.14-.41.28-.61.42-.05.04-.1.07-.15.11-.65.47-1.31.93-1.93,1.44-.68.55-1.29,1.18-1.86,1.85-.52.61-1.16,1.19-1.57,1.88-.02.03.03.06.05.03.46-.73,1.17-1.32,1.74-1.96.54-.61,1.11-1.19,1.74-1.7.66-.54,1.37-1.02,2.05-1.52.29-.21.59-.41.88-.62.51-.38,1.04-.7,1.57-1.03.33-.2.64-.41.96-.62.57-.38,1.15-.77,1.76-1.09.61-.32,1.21-.64,1.81-.96.6-.32,1.24-.58,1.82-.93.07-.04,0-.15-.07-.11Z" fill="#282929"/><path d="M89.31,36.77c-.35.48-.71.93-1.11,1.37-.04.04.02.1.06.06.39-.43.84-.87,1.12-1.39.02-.04-.04-.07-.06-.04Z" fill="#282929"/><path d="M107.48,25.12c-.46.6-1.1,1.11-1.63,1.65-.59.6-1.17,1.22-1.7,1.87-.47.58-.91,1.19-1.31,1.83-.26.43-.52.84-.73,1.31-.32.74-.66,1.48-.96,2.24-.32.79-.59,1.61-.85,2.42-.46,1.42-1.04,2.95-1.11,4.45,0,.06.08.05.09,0,.18-1.57.71-3.12,1.2-4.61.24-.75.5-1.5.79-2.23.22-.56.49-1.1.73-1.65.31-.74.69-1.41,1.12-2.08.45-.7.95-1.36,1.5-1.99.51-.59,1.05-1.16,1.61-1.71.46-.45,1.01-.89,1.38-1.42.06-.08-.07-.15-.13-.07Z" fill="#282929"/><path d="M99.17,41.22s-.03,0-.04,0c-.04.07-.05.14-.07.22-.04.14-.07.27-.1.41-.06.29-.11.57-.18.86-.08.3-.14.61-.21.91-.04.15-.07.3-.11.45-.02.08-.04.15-.06.23,0,.02-.03.07-.02.09.02.07.06-.01.07-.04.02-.08.04-.15.06-.23.04-.15.08-.3.12-.45.08-.3.16-.61.24-.91.14-.52.28-1.02.31-1.55Z" fill="#282929"/><path d="M93.07,60.43s-.06.03-.07.06c-.24.47-.35,1.01-.45,1.52-.04.2-.06.4-.09.6-.02.12-.05.24-.06.37,0,.02.02.18.03.17.09-.1.1-.3.12-.43.04-.22.07-.45.11-.67.05-.3.13-.59.21-.88.04-.14.08-.28.12-.42.03-.09.11-.22.07-.31Z" fill="#282929"/><path d="M82.3,41.95c-.56.67-1.09,1.34-1.58,2.07-.02.02.02.05.04.03.31-.27.51-.64.75-.97.27-.37.61-.69.85-1.08.02-.04-.03-.09-.06-.05Z" fill="#282929"/><path d="M77.43,34.09c-.45.28-.93.51-1.4.77-.3.17-.61.34-.91.52-.03.02-.19.09-.19.12,0,.06.13,0,.15-.02.15-.07.3-.17.45-.25.3-.15.58-.34.87-.5.3-.16.6-.32.9-.49.05-.03.11-.06.16-.1.04-.02,0-.08-.03-.06Z" fill="#282929"/><path d="M65.24,40.37c-.13.05-.27.11-.4.16-.32.13-.64.27-.96.42-.16.07-.32.15-.47.22-.08.04-.16.07-.24.11-.02,0-.13.08-.04.08.05,0,.1-.03.15-.05.1-.04.2-.08.3-.13.2-.09.39-.2.59-.28.2-.08.39-.16.58-.25.17-.08.35-.14.52-.23.03-.02,0-.07-.02-.06Z" fill="#282929"/></svg>