<?xml version="1.0" encoding="UTF-8"?>
<svg id="Layer_1" data-name="Layer 1" xmlns="http://www.w3.org/2000/svg" version="1.1" viewBox="0 0 144.6 144.6">
  <defs>
    <style>
      .cls-1 {
        fill: #1d1d1b;
        stroke-width: 0px;
      }

      .cls-2 {
        fill: none;
        stroke: #000;
        stroke-miterlimit: 10;
        stroke-width: .6px;
      }
    </style>
  </defs>
  <path class="cls-1" d="M51.5,57.7l2.6-3.4c.1-.1.2-.3.2-.4,0-.1,0-.2,0-.3,0-.3,0-.5-.2-.7-.2-.2-.4-.3-.7-.3-.3,0-.5,0-.7.3-.2.2-.3.4-.3.7h-1c0-.6.2-1.1.6-1.4.4-.4.8-.6,1.3-.6.6,0,1,.2,1.4.6.4.4.6.8.6,1.4,0,.5-.1.9-.4,1.2l-2.2,2.8h2.6v1h-3.8v-.9h0Z"/>
  <path class="cls-1" d="M55.9,56.7l2.2-4.9h1.1l-2.3,4.9h1.7v-2h1v2h.5v.9h-.5v1h-1v-1h-2.8v-.9h0Z"/>
  <path class="cls-2" d="M54.5,44.8h26.5c13.2,0,24,10.8,24,24v26.5c0,5.2-4.2,9.4-9.4,9.4h-41.1c-5.2,0-9.4-4.2-9.4-9.4v-41.1c0-5.2,4.2-9.4,9.4-9.4h0Z"/>
  <path class="cls-1" d="M75.6,79c-.5,2.1-1.4,3.7-2.7,4.8-1.4,1.1-3,1.6-4.9,1.6-1.7,0-3.1-.5-4.2-1.3-1.2-.8-2-1.7-2.5-2.7-.2-.3-.3-.7-.4-1-.1-.3-.2-.7-.3-1.2-.2-.9-.2-2.6-.2-5.2s0-4.3.2-5.2c.2-.9.4-1.6.7-2.1.5-1,1.4-1.9,2.5-2.8,1.1-.8,2.6-1.2,4.2-1.3,2.1,0,3.8.7,5.1,1.9,1.3,1.3,2.1,2.8,2.5,4.7h-3.5c-.3-.9-.8-1.7-1.5-2.3-.7-.6-1.6-.9-2.7-.9-.8,0-1.4.2-2,.5-.6.3-1,.7-1.4,1.1-.4.5-.7,1.1-.8,1.9-.2.8-.2,2.3-.2,4.5s0,3.7.2,4.5c.1.8.4,1.4.8,1.9.3.5.8.8,1.4,1.1.6.3,1.2.5,2,.5,1.8,0,3.2-1,4.1-3h3.5,0Z"/>
  <path class="cls-1" d="M78.1,69.4h3.1v1.7h0c1-1.3,2.4-1.9,4-1.9,1.2,0,2.3.4,3.2,1.2l-2.2,2.8c-.7-.5-1.3-.8-2-.8s-1.5.3-2,.8c-.6.5-1,1.4-1,2.5v9.6h-3.1v-15.9h0Z"/>
  <path class="cls-1" d="M68.7,95.9h1.7v.5h-1.2v.7c.1-.1.3-.2.5-.2s.2,0,.3,0c0,0,.2.1.2.2,0,0,.1.2.2.3,0,0,0,.1,0,.2,0,0,0,.2,0,.3,0,.2,0,.4,0,.5s0,.2-.1.3c0,0-.2.2-.3.2-.1,0-.3.1-.4.1-.2,0-.4,0-.6-.2-.2-.1-.3-.3-.3-.6h.4c0,.2.2.4.4.4.1,0,.2,0,.3,0,0,0,.1-.1.1-.2,0,0,0-.1,0-.2v-.2c0-.2,0-.3,0-.4,0,0,0,0-.1-.1,0,0-.1,0-.2,0s-.2,0-.2,0-.1.1-.2.2h-.4v-1.7h0Z"/>
  <path class="cls-1" d="M71.5,96.4l-.4.3v-.5l.4-.3h.4v3.2h-.4v-2.7h0Z"/>
  <path class="cls-1" d="M73.1,98.7h.4v.5h-.4v-.5Z"/>
  <path class="cls-1" d="M74.4,99.1s0,0,0,0,0-.1.1-.2,0-.2.1-.3c0-.1.1-.2.2-.3s.1-.2.1-.3,0-.2.1-.2c0,0,0,0-.1,0,0,0-.1,0-.2,0,0,0-.2,0-.3,0,0,0-.1,0-.2-.1,0,0,0-.1-.1-.2s0-.1,0-.2c0,0,0-.1,0-.2,0,0,0,0,0-.1h0v-.2h0c0,0,0-.1,0-.2,0,0,0,0,0-.2s0-.1,0-.2c0,0,0-.1.2-.2s.1-.1.2-.1.2,0,.3,0,.3,0,.4,0c.1,0,.2,0,.3.1s.1.1.2.2,0,.1.1.2c0,0,0,.1,0,.2,0,0,0,.1,0,.2,0,0,0,.1,0,.2,0,0,0,.1,0,.2,0,0,0,.1,0,.2s0,.1,0,.2c0,0,0,0,0,.1,0,0,0,.1,0,.2,0,0,0,.2-.1.3,0,0,0,.2-.1.3-.1.2-.2.5-.4.8h-.5,0ZM74.5,96.8c0,0,0,.1,0,.2,0,0,0,.1,0,.2,0,0,0,.1.1.2,0,0,.1,0,.3,0,0,0,.1,0,.1,0s0,0,.1,0c0,0,0,0,0,0s0,0,0-.1,0,0,0,0c0,0,0,0,0,0h0c0-.2,0-.2,0-.3,0,0,0,0,0-.1,0,0,0,0,0-.1s0,0-.1,0c0,0-.1,0-.2,0s-.2,0-.2,0c0,0-.1,0-.1.1s0,0,0,.1c0,0,0,0,0,0h0Z"/>
  <path class="cls-1" d="M76.6,99.1s0,0,0,0,0-.1.1-.2,0-.2.1-.3c0-.1.1-.2.2-.3s.1-.2.1-.3,0-.2.1-.2c0,0,0,0-.1,0,0,0-.1,0-.2,0,0,0-.2,0-.3,0,0,0-.1,0-.2-.1,0,0,0-.1-.1-.2s0-.1,0-.2c0,0,0-.1,0-.2,0,0,0,0,0-.1h0v-.2h0c0,0,0-.1,0-.2,0,0,0,0,0-.2s0-.1,0-.2c0,0,0-.1.2-.2s.1-.1.2-.1.2,0,.3,0,.3,0,.4,0c.1,0,.2,0,.3.1s.1.1.2.2,0,.1.1.2c0,0,0,.1,0,.2,0,0,0,.1,0,.2,0,0,0,.1,0,.2,0,0,0,.1,0,.2,0,0,0,.1,0,.2s0,.1,0,.2c0,0,0,0,0,.1,0,0,0,.1,0,.2,0,0,0,.2-.1.3,0,0,0,.2-.1.3-.1.2-.2.5-.4.8h-.5,0ZM76.7,96.8c0,0,0,.1,0,.2,0,0,0,.1,0,.2,0,0,0,.1.1.2,0,0,.1,0,.3,0,0,0,.1,0,.1,0s0,0,.1,0c0,0,0,0,0,0s0,0,0-.1,0,0,0,0c0,0,0,0,0,0h0c0-.2,0-.2,0-.3,0,0,0,0,0-.1,0,0,0,0,0-.1s0,0-.1,0c0,0-.1,0-.2,0s-.2,0-.2,0c0,0-.1,0-.1.1s0,0,0,.1c0,0,0,0,0,0h0Z"/>
  <path class="cls-1" d="M79.9,95.9s0,0,0,0c0,0,0,0,0,.1,0,0,0,.1,0,.2,0,0,0,.1-.1.2s0,.2-.1.2,0,.2-.1.2c0,0,0,.1-.1.2,0,0,0,.1,0,.1,0,0,0,0,.1,0s.1,0,.2,0c.1,0,.2,0,.3,0,0,0,.1,0,.2.1s.1.1.1.2,0,.1,0,.2c0,0,0,.1,0,.2s0,0,0,.1h0v.2h0c0,0,0,.1,0,.2,0,0,0,0,0,.2,0,0,0,.1,0,.2s0,.1-.2.2-.1.1-.2.2c0,0-.2,0-.3,0-.1,0-.3,0-.4,0-.1,0-.2,0-.3-.1,0,0-.1-.1-.2-.2,0,0,0-.1-.1-.2s0-.1,0-.2c0,0,0-.1,0-.2,0,0,0-.1,0-.2,0,0,0-.1,0-.2,0,0,0-.1,0-.1s0-.1,0-.2c0,0,0,0,0-.1s0-.1,0-.2,0-.2.1-.3c0,0,0-.2.1-.3.1-.2.2-.5.4-.8h.5,0ZM79.8,98.2c0,0,0-.1,0-.2,0,0,0-.1,0-.2,0,0,0-.1-.1-.2,0,0-.2,0-.3,0,0,0-.1,0-.2,0s0,0-.1,0,0,0,0,0c0,0,0,0,0,.1s0,0,0,0c0,0,0,0,0,0h0c0,.2,0,.2,0,.3,0,0,0,0,0,.1s0,0,0,.1c0,0,0,0,.1,0,0,0,.1,0,.2,0s.1,0,.2,0,0,0,.1,0,0,0,0,0,0,0,0-.1c0,0,0,0,0,0,0,0,0,0,0,0h0Z"/>
  <path class="cls-1" d="M64.1,92.6c0,.4-.3.8-.6,1-.3.2-.6.3-1,.3-.3,0-.6,0-.9-.3-.2-.2-.4-.3-.5-.6,0,0,0-.1,0-.2,0,0,0-.2,0-.2,0-.2,0-.5,0-1.1s0-.9,0-1.1c0-.2,0-.3.1-.4.1-.2.3-.4.5-.6.2-.2.5-.3.9-.3.4,0,.8.1,1.1.4s.4.6.5,1h-.7c0-.2-.2-.3-.3-.5-.2-.1-.3-.2-.6-.2-.2,0-.3,0-.4,0-.1,0-.2.1-.3.2,0,.1-.1.2-.2.4,0,.2,0,.5,0,.9s0,.8,0,.9c0,.2,0,.3.2.4,0,0,.2.2.3.2.1,0,.3.1.4.1.4,0,.7-.2.9-.6h.7Z"/>
  <path class="cls-1" d="M64.7,89.3h.6v1.7h0c.2-.3.5-.4.8-.4s.5,0,.7.3.3.5.3.9v2.2h-.6v-1.9c0-.2,0-.4-.2-.5-.1-.1-.3-.2-.4-.2s-.3,0-.4.2c-.1.1-.2.3-.2.5v1.9h-.6v-4.6h0Z"/>
  <path class="cls-1" d="M68.1,90.6h.6v.3h0c.2-.3.5-.4.8-.4s.5,0,.7.3l-.5.6c-.1-.1-.3-.2-.4-.2s-.3,0-.4.2c-.1.1-.2.3-.2.5v2h-.6v-3.3h0Z"/>
  <path class="cls-1" d="M70.4,92.3c0-.3,0-.6,0-.8,0-.2.1-.3.3-.5,0-.1.2-.2.4-.3.2,0,.4-.1.6-.1s.4,0,.6.1c.2,0,.3.2.4.3.1.1.2.3.3.5,0,.2,0,.5,0,.8s0,.6,0,.8c0,.2-.1.3-.3.5,0,0,0,0-.2.1,0,0-.1,0-.2.1-.2,0-.4.1-.6.1-.2,0-.4,0-.6-.1-.2,0-.3-.2-.4-.3-.1-.1-.2-.3-.3-.5,0-.2,0-.4,0-.8h0ZM72.4,92.3c0-.2,0-.4,0-.5,0-.1,0-.2-.1-.3,0,0-.1-.1-.2-.2,0,0-.2,0-.3,0s-.2,0-.3,0-.2.1-.2.2c0,0,0,.2-.1.3,0,.1,0,.3,0,.5s0,.4,0,.5c0,.1,0,.2.1.3,0,0,.1.1.2.2s.2,0,.3,0,.2,0,.3,0,.2-.1.2-.2c0,0,.1-.2.1-.3,0-.1,0-.3,0-.5Z"/>
  <path class="cls-1" d="M73.7,90.6h.6v.3h0c.2-.3.5-.4.9-.4s.4,0,.5.1c.1,0,.3.2.4.3.3-.3.6-.4,1-.4.3,0,.5,0,.7.3.2.2.3.5.3.9v2.2h-.6v-2c0-.2,0-.4-.2-.5s-.3-.2-.5-.2-.3,0-.5.2c-.1.1-.2.3-.2.5v2h-.6v-2c0-.2,0-.4-.2-.5-.1-.1-.3-.2-.5-.2s-.3,0-.5.2c-.1.1-.2.3-.2.5v2h-.6v-3.3h0Z"/>
  <path class="cls-1" d="M79.3,89.3h.6v.7h-.6v-.7ZM79.3,90.6h.6v3.3h-.6v-3.3Z"/>
  <path class="cls-1" d="M80.8,90.6h.6v2c0,.2,0,.4.2.5.1.1.3.2.4.2s.3,0,.5-.2.2-.3.2-.5v-2h.6v3.3h-.6v-.3h0c-.2.3-.5.4-.8.4s-.5-.1-.7-.3c-.2-.2-.3-.5-.3-.8v-2.2Z"/>
  <path class="cls-1" d="M84.3,90.6h.6v.3h0c.2-.3.5-.4.9-.4s.4,0,.5.1c.1,0,.3.2.4.3.3-.3.6-.4,1-.4.3,0,.5,0,.7.3.2.2.3.5.3.9v2.2h-.6v-2c0-.2,0-.4-.2-.5s-.3-.2-.5-.2-.3,0-.5.2c-.1.1-.2.3-.2.5v2h-.6v-2c0-.2,0-.4-.2-.5-.1-.1-.3-.2-.5-.2s-.3,0-.5.2c-.1.1-.2.3-.2.5v2h-.6v-3.3h0Z"/>
</svg>