<?xml version="1.0" encoding="UTF-8"?><svg id="Layer_1" xmlns="http://www.w3.org/2000/svg" viewBox="0 0 144.57 144.57"><path d="M45.73,50.33h.36c.36,0,.63-.1.83-.3.2-.2.29-.45.29-.76,0-.32-.11-.58-.3-.78-.2-.2-.45-.3-.76-.3-.22,0-.42.07-.61.22-.19.15-.32.38-.39.69h-1.04c.05-.55.27-1.02.65-1.4.37-.38.82-.57,1.34-.57.66,0,1.18.22,1.57.65.37.42.56.91.57,1.48,0,.29-.05.56-.15.83-.12.27-.33.5-.64.71.31.21.54.45.68.74.13.29.2.59.2.9,0,.7-.22,1.25-.63,1.66-.41.41-.93.62-1.57.63-.49,0-.93-.16-1.31-.49-.38-.33-.63-.8-.74-1.42h1.04c.09.25.22.45.39.61.17.16.4.24.69.24.3,0,.56-.11.77-.32.21-.2.32-.49.33-.86,0-.38-.12-.67-.33-.88-.21-.2-.47-.3-.79-.3h-.44v-.94Z" fill="#1d1d1b"/><path d="M49.37,49.26c0-.69.22-1.22.64-1.59.39-.37.87-.55,1.41-.55s1.04.18,1.44.55c.4.37.61.9.62,1.59v3.3c-.01.69-.22,1.22-.62,1.59-.39.37-.87.56-1.44.56-.55,0-1.02-.19-1.41-.56-.42-.37-.63-.9-.64-1.59v-3.3ZM52.45,49.33c-.02-.75-.36-1.13-1.02-1.15-.67.01-1,.4-1.02,1.15v3.18c.01.76.35,1.14,1.02,1.15.66,0,1-.39,1.02-1.15v-3.18Z" fill="#1d1d1b"/><path d="M48.78,39.67h28.7c14.35,0,26.01,11.65,26.01,26.01v28.7c0,5.6-4.55,10.15-10.15,10.15h-44.56c-5.6,0-10.15-4.55-10.15-10.15v-44.56c0-5.6,4.55-10.15,10.15-10.15Z" fill="none" stroke="#000" stroke-miterlimit="10" stroke-width=".65"/><path d="M54.2,80.44l10.6-17.87h-10.51v-3.24h14.85v2.75l-10.98,17.95h10.98v3.44h-14.93v-3.03Z" fill="#1d1d1b"/><path d="M72.93,66.29h3.34v1.82h.06c1.1-1.36,2.54-2.04,4.33-2.04,1.38,0,2.64.5,3.78,1.51,1.13,1.02,1.73,2.51,1.78,4.47v11.43h-3.34v-10.25c0-1.2-.31-2.12-.93-2.75-.61-.64-1.4-.96-2.36-.96s-1.75.32-2.37.96c-.63.63-.95,1.55-.95,2.75v10.25h-3.34v-17.19Z" fill="#1d1d1b"/><path d="M68.76,94.96s0,.02-.02.05c-.02.03-.04.08-.07.14-.03.06-.06.13-.1.2-.04.08-.08.16-.12.24-.04.08-.09.17-.13.26s-.09.17-.13.25-.08.15-.11.21c-.03.06-.06.11-.08.15.05-.03.1-.04.16-.05s.13,0,.2,0c.11,0,.21.02.29.06.08.04.15.08.21.13s.11.11.15.18.07.13.09.19c.02.06.04.12.05.17,0,.05.01.1.01.13v.14s0,.06,0,.09c0,.03,0,.06,0,.08,0,.01,0,.04-.02.09,0,.05-.02.1-.05.17-.02.06-.06.13-.1.21s-.1.14-.17.21c-.07.07-.16.12-.26.17-.1.05-.22.08-.36.09-.15.01-.27,0-.39-.03s-.21-.08-.29-.14c-.08-.06-.15-.13-.2-.21-.05-.08-.1-.16-.13-.24-.03-.08-.05-.16-.06-.23s-.01-.14,0-.19c0-.08.02-.15.03-.21.01-.06.02-.12.04-.18s.03-.11.05-.17c.02-.05.04-.11.07-.18,0-.02.02-.05.05-.11.03-.06.06-.13.11-.22.04-.09.09-.18.14-.29.05-.11.11-.21.16-.32.12-.25.26-.53.42-.85h.57ZM68.66,97.52c0-.06,0-.13,0-.2,0-.07-.02-.14-.05-.21s-.08-.12-.15-.17-.17-.08-.3-.09c-.06,0-.12,0-.17.02-.05.02-.09.04-.13.07-.04.03-.07.06-.1.1s-.05.08-.07.12-.03.07-.04.11c0,.03-.01.06-.01.08,0,.04,0,.08,0,.13,0,.05,0,.1.02.15s.02.1.04.14c.02.05.05.09.09.12.04.04.09.06.15.09.06.02.13.03.22.03.07,0,.13,0,.19-.03.05-.02.1-.05.14-.08.04-.03.07-.07.09-.1.02-.04.04-.08.06-.11.01-.04.02-.07.03-.1,0-.03,0-.05,0-.07Z" fill="#1d1d1b"/><path d="M69.53,95h1.8v.5h-1.35v.8c.16-.13.34-.19.54-.19.13,0,.25.03.36.07.1.05.19.11.25.18.09.1.16.21.2.33.02.07.04.15.05.25,0,.1.01.22.01.37,0,.23-.02.4-.05.52-.03.12-.09.23-.16.32-.07.09-.16.17-.29.25-.12.08-.27.12-.44.12-.23,0-.44-.07-.63-.21-.19-.14-.31-.38-.36-.7h.49c.05.27.21.4.49.41.12,0,.21-.02.28-.07.07-.05.11-.11.14-.18.03-.08.05-.16.05-.25,0-.09,0-.17,0-.25,0-.2-.03-.36-.09-.49-.03-.06-.09-.11-.15-.14-.07-.03-.15-.04-.25-.04-.09,0-.17.02-.24.06-.07.04-.14.12-.2.23h-.46v-1.89Z" fill="#1d1d1b"/><path d="M71.98,98h.48v.5h-.48v-.5Z" fill="#1d1d1b"/><path d="M72.89,97.5l1.13-2.51h.54l-1.14,2.51h.88v-1.01h.48v1.01h.27v.47h-.27v.52h-.48v-.52h-1.41v-.47Z" fill="#1d1d1b"/><path d="M65.2,92.22l2.19-3.68h-2.17v-.67h3.06v.57l-2.26,3.7h2.26v.71h-3.08v-.63Z" fill="#1d1d1b"/><path d="M69.08,87.87h.69v.71h-.69v-.71ZM69.08,89.3h.69v3.54h-.69v-3.54Z" fill="#1d1d1b"/><path d="M70.73,89.3h.69v.38h.01c.23-.28.52-.42.89-.42.28,0,.54.1.78.31.23.21.36.52.37.92v2.36h-.69v-2.11c0-.25-.06-.44-.19-.57-.13-.13-.29-.2-.49-.2s-.36.07-.49.2c-.13.13-.19.32-.19.57v2.11h-.69v-3.54Z" fill="#1d1d1b"/><path d="M77.02,92.27c-.15.18-.33.32-.53.43-.2.12-.44.18-.71.18-.4,0-.76-.14-1.07-.43-.32-.28-.48-.75-.49-1.38,0-.64.17-1.11.49-1.4.31-.29.66-.42,1.07-.42.27,0,.5.06.7.17.2.11.38.26.53.45l-.51.47c-.17-.24-.41-.36-.7-.37-.59,0-.88.36-.89,1.11,0,.74.31,1.11.89,1.1.29,0,.52-.13.7-.37l.51.47Z" fill="#1d1d1b"/></svg>