<?xml version="1.0" encoding="UTF-8"?><svg id="Layer_1" xmlns="http://www.w3.org/2000/svg" viewBox="0 0 144.57 144.57"><path d="M95.44,95.45c-.29-.05-.6-.11-.91-.16-4.11-.63-8.15-1.56-12.14-2.72-1.81-.53-3.58-1.17-5.29-1.97-1.33-.62-2.6-1.34-3.81-2.16-3.33-2.24-6.02-5.12-8.39-8.32-.86-1.16-1.68-2.34-2.52-3.51-.52-.73-.31-.61-1.22-.71-2.11-.24-4.2-.51-6.28-.92-2.37-.46-4.71-1.07-6.95-1.99-1.83-.76-3.56-1.68-5.17-2.84-2.74-1.97-5.06-4.36-7.18-6.97-1.35-1.66-2.55-3.43-3.74-5.21-.63-.93-1.23-1.88-1.84-2.82-.1-.16-.21-.32-.32-.48-.72-.17-1.44-.34-2.16-.51-2.66-.64-5.29-1.37-7.86-2.3-1.59-.58-3.17-1.2-4.69-1.95-.65-.32-1.29-.65-1.93-.96-.8-.38-1.06-1.04-1.01-1.88.04-.62.23-1.21.5-1.76.38-.78.86-1.51,1.5-2.12.39-.37.81-.68,1.31-.89.54-.22,1.05-.22,1.59.06,1.98,1.02,4.02,1.89,6.14,2.59.18.06.36.11.62.18-.12-.22-.19-.37-.28-.51-1.65-2.59-3.31-5.17-5.13-7.65-.62-.85-.64-1.67-.21-2.56.52-1.08,1.31-1.91,2.34-2.53.2-.12.41-.23.62-.31.78-.32,1.29-.33,2.11-.05.01-.06.05-.11.04-.16-.13-.69-.03-1.35.18-2,.38-1.21.95-2.31,1.89-3.19.14-.13.28-.26.44-.36.67-.45,1.36-.55,2.1-.14,1.26.69,2.54,1.37,3.8,2.06,1.34.73,2.64,1.53,3.9,2.4,1.94,1.33,3.83,2.74,5.6,4.29,2.59,2.26,4.94,4.75,7.12,7.41,2.24,2.72,4.3,5.56,6.34,8.42.04.05.08.1.14.18.23.03.47.06.73.09,2.74.26,5.48.52,8.2.94,1.19.18,2.38.41,3.56.65,1.52.31,2.97.86,4.39,1.47,1.07.46,2.1,1.01,3.09,1.64,1.96,1.25,3.69,2.77,5.26,4.47,1.7,1.84,3.18,3.85,4.59,5.92.87,1.28,1.71,2.58,2.56,3.87.09.14.19.28.3.45,1.05.04,2.1.1,3.16.1,2.49,0,4.95.26,7.34.98,1.77.53,3.47,1.23,5.09,2.14.63.35,1.25.72,1.87,1.08,1.27.74,2.37,1.7,3.45,2.7,2.85,2.64,5.39,5.57,7.83,8.58.8.99,1.59,1.98,2.38,2.97.07.08.13.16.21.26.28,0,.55,0,.82,0,1.59.03,3.18.08,4.77.09.74,0,1.21.36,1.47,1,.16.39.29.8.35,1.22.18,1.08.11,2.16-.25,3.2-.13.38-.31.74-.52,1.08-.29.48-.74.81-1.3,1.01-.13.85-.51,1.6-1.02,2.29-.61.85-1.35,1.58-2.25,2.12-.32.19-.68.35-1.04.46-.51.15-.94.02-1.28-.44-.83-1.12-1.7-2.22-2.55-3.33-.14-.18-.31-.35-.44-.54-.22-.34-.51-.44-.92-.43-1.53.03-3.05.03-4.58.02-1.19-.01-2.37-.06-3.56-.09-.16,0-.33,0-.49,0-.07.21.09.3.17.4,2.52,3.16,5.01,6.35,7.66,9.41.06.06.12.12.17.19.32.38.43.81.37,1.3-.06.49-.24.95-.48,1.37-.64,1.14-1.51,2.1-2.62,2.81-.28.18-.59.33-.91.44-.71.26-1.33.1-1.83-.49-.62-.73-1.25-1.44-1.86-2.17-3.74-4.44-7.28-9.04-10.77-13.69-.11-.15-.22-.31-.35-.5ZM91.14,84.39s0,.04,0,.06c0,.01.02.02.03.03-.01-.03-.03-.06-.04-.09l.16-.32c.13-1.18.28-2.35.52-3.51.06-.31.08-.63.07-.94,0-.39-.15-.75-.44-1.02-.21-.2-.45-.38-.68-.56-.06-.04-.15-.09-.2,0,.23.49.48.95.66,1.44.18.52.19,1.08.08,1.63-.03-.19-.08-.37-.08-.56-.02-1.39-.7-2.41-1.78-3.21-.88-.65-1.86-1.1-2.89-1.43-.26-.08-.52-.18-.78-.28-.09-.03-.2-.07-.18-.25.26-.04.5.15.83.14-.22-.27-.46-.39-.71-.47-.43-.14-.73-.41-.91-.83-.07-.16-.17-.3-.24-.45-.03-.07-.03-.15-.05-.22.08-.01.12-.03.16-.02.92.32,1.84.64,2.76.97,1.18.43,2.3.99,3.29,1.76.04.03.1.03.23.06-.08-.17-.13-.28-.19-.38-.59-.93-1.19-1.85-1.79-2.78-.07-.11-.15-.21-.22-.31-.17-.22-.36-.42-.5-.65-.32-.52-.6-1.07-.93-1.58-.61-.97-1.24-1.92-1.86-2.88-1.29-1.99-2.64-3.94-4.12-5.8-.19-.24-.4-.48-.6-.72-.04.04-.06.06-.06.07.25.65.48,1.31.82,1.83-.03.43-.1.78-.09,1.14.06,1.11-.06,2.2-.19,3.3-.01.1-.01.22-.18.26-.04-.05-.11-.1-.15-.17-.36-.6-.73-1.19-1.07-1.8-.08-.14-.09-.32-.09-.48,0-.4.04-.8.03-1.21,0-.69-.15-1.35-.48-1.96-.46-.85-1.12-1.54-1.89-2.11-.63-.47-1.38-.64-2.15-.72-.19-.02-.38-.02-.57-.04-.34-.04-.52-.18-.72-.56.27-.08.52-.18.79-.25.29-.07.58-.14.87-.18.27-.04.54-.03.86-.05-.2-.24-.42-.24-.62-.22-.59.06-1.18.12-1.76.22-.74.12-.73.14-1.4-.17-.04-.02-.08-.03-.11-.06-.09-.06-.18-.12-.09-.27.15-.02.31-.06.48-.06.63-.02,1.27-.04,1.91-.06.11,0,.22-.05.37-.08-.11-.26-.23-.47-.43-.6-.58-.39-1.11-.85-1.82-1.01-.18-.04-.35-.15-.51-.24-.88-.52-1.8-.94-2.73-1.35-.31-.13-.62-.27-.93-.41-.09-.04-.19-.11-.25-.19-.04-.06-.06-.17-.04-.23.03-.06.13-.11.2-.12.1,0,.21.03.31.06.65.18,1.24.54,1.91.67.14.03.26.14.39.21.09.05.18.12.27.16.39.16.79.3,1.17.49.32.16.63.35.92.56.31.22.59.48.89.72.11.09.25.18.39.2.4.07.7.29.99.54.03.02.03.07.05.11,0,.2-.35.21-.22.5.13,0,.28.03.4-.02.31-.12.53-.02.75.19.35.34.78.58,1.25.86-.06-.24-.19-.35-.3-.46-.91-.83-1.86-1.6-2.88-2.29-1.35-.92-2.8-1.67-4.32-2.28-1.3-.52-2.62-.97-3.99-1.25-2.49-.52-5.01-.84-7.54-1.11-.09-.01-.19,0-.43.02.43.21.74.34,1.03.5.3.17.58.35.85.55.27.2.53.43.78.65.25.23.49.47.72.72.23.25.46.5.67.76.21.25.48.46.61.8-.1.03-.16.07-.22.07-.31,0-.55-.12-.75-.39-.53-.73-1.23-1.28-2.04-1.69-.09-.05-.22-.15-.32.03.3.27.61.52.9.79.58.54.58.54.69.94-.39.06-.7-.05-.95-.37-.2-.25-.43-.47-.67-.68-1.21-1.07-2.61-1.45-4.19-1.05-.33.08-.65.2-.96.34-.5.23-.99.49-1.47.75-.23.12-.45.22-.72.2-.76-.05-1.52-.08-2.28-.12-.05,0-.11-.04-.22-.09.29-.22.57-.35.84-.5.89-.5,1.77-1,2.67-1.48.71-.38,1.48-.63,2.28-.79.15-.03.3-.04.43-.1.09-.04.15-.13.22-.2.03.03.07.06.1.1-.03-.03-.06-.07-.1-.1-.23.11-.45.03-.68,0-5.49-.52-10.97-1.05-16.43-1.84-.14-.02-.29-.09-.42.02,0,0-.03,0,0-.02.08.07.16.14.25.2.79.48,1.47,1.08,2.07,1.77.49.56.95,1.14,1.43,1.71.5.61,1.03,1.18,1.65,1.67.82.66,1.74.93,2.79.69.62-.14,1.22-.35,1.8-.61.26-.12.52-.16.8-.12.65.08,1.31.14,1.96.2.1.01.22-.02.27.15-.31.18-.61.36-.93.53-.32.17-.64.34-.96.5-.31.15-.61.29-.93.41-.34.13-.68.24-1.02.35-.33.11-.69.13-1.02.3.2.07.41.12.61.14,1.71.17,3.41.34,5.12.51,3.96.39,7.93.67,11.86,1.4.05,0,.11-.03.18-.05-.6-.46-1.19-.89-1.75-1.36-.57-.49-1.1-1.04-1.52-1.66.13-.16.27-.13.37-.07.14.09.27.2.38.32.36.42.7.85,1.06,1.26.15.17.3.34.57.51-.07-.43-.34-.66-.49-.94-.17-.31-.4-.59-.53-.94.09-.04.15-.09.2-.08.49.08.93.24,1.31.58,1.26,1.11,2.72,1.7,4.41,1.64.17,0,.34-.01.51-.02.66-.02,1.08.18,1.58.78-.15.04-.29.09-.43.11-.42.06-.84.09-1.26.15-.38.05-.75.11-1.13.18-.07.01-.17.05-.11.21.17,0,.36.03.54.02.97-.05,1.95-.11,2.92-.16.11,0,.25-.09.37.11-.35.06-.68.11-1.01.14-.32.03-.63.07-.95.1-.34.03-.68.03-1.02.05-.33.02-.67-.04-1,.03.14.1.29.17.44.23.17.08.34.17.51.26,1.66.79,3.13,1.84,4.47,3.11.99.94,1.83,1.99,2.69,3.04,1.29,1.6,2.44,3.3,3.56,5.02.15.23.33.44.5.65.05.08.1.16.15.24.05.09.1.17.16.26.37.61.74,1.23,1.13,1.83,2.03,3.14,4.06,6.28,6.1,9.42.51.78,1.04,1.54,1.57,2.31.08.12.19.27.31.3.38.1.76.24,1.19.21.01-.16.03-.28.03-.41.01-.53,0-1.06.04-1.58.08-1.12.19-2.23.29-3.35,0-.1.05-.2.08-.3,0,.27,0,.54,0,.81-.04.58-.09,1.16-.14,1.75-.01.16-.05.34.15.44-.12.07-.15.19-.15.32ZM119.19,89.19s-.12.01,0-.02c.1.04.19.09.29.11,1.14.17,2.07.83,3.05,1.37.37.2.71.46,1.05.71.66.49,1.42.85,1.98,1.47.02.02.07,0,.14,0,.1-.8.05-1.6-.17-2.38-.05-.18-.12-.36-.2-.53-.22-.45-.53-.72-1.08-.73-1.46,0-2.92-.06-4.38-.09-.23,0-.45.05-.68.08ZM54.26,61.32h-.01c.09.21.18.41.3.66.14-.14.15-.26.17-.38.06-.42.12-.84.18-1.26.08-.57.16-1.13.24-1.7.02-.17.05-.34-.13-.5-.16,0-.34,0-.53,0-1.1-.11-2.19-.22-3.29-.33-.09,0-.18.02-.31.05.42.66.81,1.26,1.19,1.87.71,1.11,1.41,2.21,2.13,3.31.06.09.08.26.26.18-.07-.63-.13-1.26-.2-1.89ZM37.09,51.98c.87,1.37,1.77,2.72,2.71,4.01,2.14.35,4.52.63,5.17.58-.32-.09-.53-.17-.76-.22-.22-.04-.38-.13-.51-.33-.14-.21-.32-.4-.51-.56-.57-.48-1.04-1.05-1.53-1.61-.66-.77-1.35-1.52-2.03-2.27-.56-.61-1.25-1-2.04-1.22-.37-.1-.75-.15-1.13-.13-.12,0-.26.01-.31.19.25.54.62,1.03.94,1.55h0ZM104.66,105.72c-.26-.53-.29-1.1-.3-1.67-.02-.91.11-1.82.2-2.72.07-.65.11-1.31.17-1.96.04-.42-.09-.79-.39-1.13-.34.04-.65-.09-.95-.24-.59-.29-1.18-.58-1.81-.75-.41-.11-.81-.23-1.22-.35-.14-.04-.29-.08-.42-.14-.06-.03-.11-.13-.11-.2,0-.13.12-.16.23-.15.04,0,.09.01.12.03.31.13.61.13.92,0,.24-.11.49-.08.74,0,.46.15.93.3,1.39.44.09.03.19.05.36.09-.17-.28-.29-.49-.4-.67-2.34-.24-4.63-.47-6.92-.7-.02,0-.04,0-.06.02-.01,0-.02.03-.03.04.4.73,7.01,9.32,8.44,10.94.06.06.09.2.23.16.02-.04.04-.08.06-.12.07.11.15.21.21.32.49.83,1.16,1.46,2.02,1.87.72.35,1.47.66,2.22.94.59.22,1.2.4,1.84.46.07,0,.14-.03.21-.05-.03-.06-.04-.09-.05-.09-.12-.04-.24-.09-.36-.12-1.5-.42-2.89-1.07-4.16-1.97-.15-.11-.3-.24-.44-.36-.61-.57-1.1-1.22-1.45-1.99-.06-.12-.15-.23-.22-.36-.17.15-.1.3-.08.44ZM110.46,81.47h0c.15-.05.13-.14.06-.24-.4-.58-.88-1.08-1.43-1.52-.34-.27-.72-.45-1.15-.52-.35-.06-.71-.1-1.07-.11-.68-.02-1.36-.01-2.03-.02-.3,0-.57-.07-.77-.39.73,0,1.41,0,2.08,0,1.33.01,2.62.22,3.84.74.02,0,.06-.03.13-.07-.06-.08-.11-.18-.18-.24-.9-.87-1.78-1.75-2.71-2.59-.64-.58-1.3-1.15-2.05-1.6-.76-.46-1.52-.92-2.29-1.37-1.64-.94-3.38-1.66-5.19-2.2-1.18-.36-2.38-.6-3.6-.74-.1-.01-.26-.1-.34.08.04.04.06.11.11.13.52.26.96.63,1.37,1.02.99.94,1.77,2.05,2.51,3.19.05.08.13.18,0,.31-.14-.03-.31-.04-.46-.1-.4-.15-.78-.35-1.18-.46-.35-.1-.6-.28-.79-.58-.1-.16-.23-.3-.35-.45-.61-.74-1.31-1.37-2.17-1.83-1.1-.59-2.16-.51-3.2.11-.62.37-.53.46-.22.93.86,1.31,1.71,2.63,2.56,3.94.08.12.17.23.26.35,1.37,0,2.67.26,3.95.67.81.26,1.6.57,2.36.94.28.14.28.13.6.11-.92-.76-2.35-2.59-2.69-3.42.25.09.51.18.77.28.24.09.48.17.7.28.65.33,1.22.77,1.71,1.3.57.61,1.27.98,2.1,1.09.11.01.21.03.31.05.21.03.37.15.57.29-.47.08-.87-.28-1.37-.08.15.12.23.22.34.27.41.16.83.31,1.26.43.26.08.54.1.81.15.37.07.46.13.78.49-1.25,0-2.48-.03-3.68-.33-.13-.03-.28-.11-.42.08.31.2.61.39.9.59.35.24.7.48,1.03.75,1.18.94,2.24,2.01,3.25,3.12,1.24,1.37,2.46,2.75,3.67,4.13.18.21.37.32.66.31.59-.01,1.19,0,1.78,0,.1,0,.2-.05.31-.08,0-.17.03-.32.03-.46-.04-1.04-.07-2.08-.13-3.11-.03-.46-.09-.93-.19-1.38-.15-.69-.39-1.34-.89-1.87-.1-.1-.14-.25-.21-.38ZM70.04,84.3c-.18.05-.33-.04-.48-.12-.25-.13-.49-.25-.74-.37-.08-.04-.17-.05-.32-.08.08.12.11.17.15.22.08.1.17.19.25.28,1.43,1.46,2.96,2.78,4.67,3.91,1.17.77,2.38,1.48,3.65,2.07,1.5.7,3.04,1.29,4.62,1.76,1.52.45,3.06.85,4.59,1.27.11.03.25.1.3-.06-.51-.46-1.03-.89-1.52-1.36-.5-.48-.95-1.02-1.4-1.63.51.11.95.25,1.4.29.58.06,1.05.28,1.47.67.54.51,1.14.94,1.84,1.22.78.32,1.56.38,2.36.1.28-.1.55-.23.82-.34.09-.04.17-.17.32-.07-.28.18-.54.37-.81.53-.18.11-.37.2-.57.29-1.32.59-2.57.42-3.71-.45-.76-.58-1.54-1.12-2.24-1.77-.03-.03-.11-.01-.16-.02-.07.2.07.3.16.4.46.46.93.92,1.41,1.37.96.9,2.13,1.36,3.43,1.5.35.04.67-.01,1-.14.61-.24,1.19-.55,1.71-.96.22-.17.42-.36.64-.52.12-.08.26-.17.4-.17.29-.01.58,0,.85.11,0,.05,0,.08,0,.09-.06.06-.11.13-.18.18-.84.66-1.76,1.18-2.8,1.46-.13.03-.29.04-.36.26,5.03,1.02,10.08,1.5,15.16,1.72.22,0,.46.06.74-.06-.53-.29-1.01-.53-1.47-.81-.46-.28-.9-.6-1.35-.9.24.13.47.29.71.42.22.13.41.35.7.33.06-.22-.08-.31-.18-.41-.51-.44-1.03-.87-1.55-1.32-.09-.08-.15-.18-.27-.33.17-.02.27-.02.37-.05.47-.12.87.03,1.25.29.26.18.52.36.8.52.39.22.77.46,1.19.6,1.83.61,3.59.55,5.17-.7.16-.13.33-.25.47-.36.14.04.27.12.33.09.46-.24.96-.13,1.44-.14.07,0,.15.05.26.09-.07.1-.11.17-.17.23-.31.29-.62.58-.93.86-.76.69-1.61,1.23-2.6,1.55-.08.03-.23.02-.2.2.17.01.34.03.5.03.47,0,.93,0,1.4,0,3.62-.02,7.24-.24,10.87-.13.55.02.98-.22,1.33-.63.36-.43.6-.92.74-1.46.02-.07-.01-.15-.03-.26-.12.06-.19.09-.27.12-.41.19-.77.12-1.12-.16-1.08-.86-2.26-1.58-3.43-2.29-.96-.58-1.99-.68-3.04-.24-.47.2-.92.44-1.33.74-.19.14-.39.27-.54.44-.32.35-.71.44-1.15.35-.1-.02-.21-.01-.31-.04-.07-.02-.14-.07-.25-.12.1-.11.16-.2.24-.26.57-.41,1.14-.81,1.71-1.21.43-.3.91-.44,1.42-.52.4-.06.8-.13,1.19-.2.49-.09.98-.08,1.45.07.34.11.68.24.99.42.62.36,1.23.75,1.84,1.14.2.12.39.25.59.37.07.04.16.06.23-.08-.07-.08-.13-.19-.22-.27-.47-.4-.94-.79-1.42-1.17-.57-.45-1.19-.81-1.88-1.05-.83-.29-1.66-.26-2.5,0-1.01.3-1.9.82-2.72,1.47-.18.14-.33.34-.59.34h0s.08-.03.11-.06c1.05-.95,2.2-1.73,3.59-2.08.03,0,.05-.09.09-.18-.47,0-.89,0-1.31,0-3.6.04-7.2.12-10.8-.08-1.82-.1-3.63-.23-5.45-.35-.13,0-.29-.11-.43.12.34.29.75.52,1.09.82.36.32.73.65,1.06,1,.31.33.7.6.96,1.07-.17.02-.29.05-.4.04-.27-.04-.54-.11-.81-.14-.26-.03-.49-.09-.67-.3-.1-.12-.23-.23-.49-.22.05.13.08.23.14.38-.11-.1-.19-.16-.26-.22-.43-.4-.88-.79-1.38-1.12-.6-.4-1.21-.45-1.86-.16-.47.21-.91.45-1.31.77-.13.1-.29.22-.44.22-.44.02-.87-.03-1.28-.14-.04-.27.36-.29.23-.57-.15.02-.29.04-.44.07h0c.17-.12.35-.24.52-.36.73-.55,1.44-1.11,2.31-1.44.03-.01.04-.06.09-.13-.43-.15-.87-.15-1.3-.22-.46-.08-.92-.14-1.38-.21-.44-.07-.88-.15-1.31-.23-.46-.09-.92-.17-1.37-.27-.44-.09-.87-.19-1.3-.29-.43-.1-.87-.18-1.3-.28-.45-.1-.91-.21-1.36-.32-.43-.1-.86-.21-1.29-.32-.45-.12-.9-.24-1.35-.37-.43-.12-.85-.25-1.28-.38-.44-.14-.88-.32-1.32-.45-.41-.12-.79-.36-1.3-.42.13.35.37.52.55.74.18.21.36.42.54.63.19.23.37.46.55.7.18.23.36.47.55.7.17.22.35.43.5.66.16.23.4.42.49.78-.15-.02-.27,0-.34-.05-.5-.33-1.07-.52-1.63-.71-.43-.15-.72-.4-.99-.75-.43-.55-.89-1.07-1.36-1.6-.64-.72-1.45-1.08-2.4-1.13-.34-.02-.68-.02-1.02,0-.44.02-.89.07-1.33.11-.17.01-.34.02-.51,0-.1-.01-.21-.06-.19-.25.35-.17.76-.3,1.14-.46.37-.15.75-.3,1.13-.42.4-.13.8-.22,1.21-.33-.14-.32-.14-.33-.46-.53-1.26-.8-2.39-1.74-3.45-2.79-.86-.85-1.66-1.75-2.43-2.68-.21-.26-.44-.37-.75-.39-1.08-.08-2.15-.17-3.23-.26-.14-.01-.28.01-.46.03-.06,1.2-.05,2.37.32,3.49.24.73.63,1.4,1.2,1.92.52.48,1.11.85,1.77,1.1.42.16.82.34,1.15.66.05.05.09.12.15.21-.31.2-.61.08-.89.07-.29-.02-.59-.07-.88-.14-.29-.07-.57-.16-.85-.26-.27-.09-.54-.2-.87-.32.33.43.88.79,1.49.98h0ZM38.49,58.28h.01c-.16-.17-.17-.39-.23-.59-.09-.33-.17-.66-.29-.97-.38-1.01-1.04-1.73-2.08-2.08-.44-.15-.88-.29-1.33-.41-.63-.17-1.27-.33-1.91-.47-.35-.08-.62-.23-.83-.53-.17-.24-.39-.44-.58-.67-.25-.31-.54-.59-.6-1.07.18.06.32.1.44.16.84.41,1.75.64,2.65.87,1.23.31,2.48.58,3.61,1.19.06.03.15.01.3.02-.13-.22-.23-.38-.33-.54-1.39-2.2-2.78-4.4-4.18-6.6-1.4-2.2-2.81-4.39-4.22-6.58-.13-.2-.24-.44-.46-.57-.02.03-.05.04-.05.06.01.15.02.29.05.44.2,1.01.17,2.02-.03,3.03-.12.56-.25,1.12-.37,1.68-.14.68-.27,1.37-.41,2.06-.01.07.01.18-.12.19-.31-.26-.35-.61-.3-.98.07-.52.15-1.05.23-1.57.14-.92.3-1.84.31-2.78,0-.23.03-.46-.08-.67-.23.04-.22.21-.25.34-.27,1.15-.54,2.31-.81,3.46-.03.13-.04.27-.16.37.02-.26.07-.5.12-.75.15-.7.31-1.41.44-2.11.27-1.47-.07-2.83-.9-4.05-.45-.65-1.01-1.2-1.74-1.54-.56-.26-1.13-.48-1.73-.64-.84-.23-1.68-.46-2.51-.7-.2-.06-.4-.15-.57-.26-.29-.19-.39-.55-.26-.84.13-.32.41-.5.75-.47.15.01.29.06.43.1.67.19,1.35.38,2.02.56,1.05.28,2.07.62,3,1.19.04.03.11.01.23.02-.08-.15-.12-.27-.2-.36-.73-.96-1.47-1.91-2.19-2.88-.39-.52-.9-.68-1.51-.58-.25.04-.5.11-.73.21-1.27.57-2.2,1.5-2.78,2.76-.31.67-.28,1.32.19,1.97,1.75,2.39,3.37,4.88,4.96,7.38.82,1.28,1.62,2.58,2.44,3.87.07.11.1.3.34.28,0-.19,0-.37,0-.56,0-.21-.02-.42-.02-.64,0-.19,0-.38.01-.57.01-.19-.01-.4.16-.69,0,.32,0,.51,0,.7-.01.56.08,1.1.22,1.63.18.67.51,1.26.99,1.75.11.11.22.26.46.2-.06-.33-.32-.55-.43-.85-.11-.32-.25-.63-.33-.96-.08-.29-.17-.6-.09-.97.35.35.52.72.66,1.12.24.69.59,1.32,1.11,1.84.24.24.45.51.63.79.09.14.2.27.31.4.43.5.68.95.98,1.79-.32-.15-.62-.26-.89-.42-.47-.28-.93-.59-1.39-.89-.06-.04-.13-.12-.23,0,.1.17.2.36.31.54,1.01,1.57,2,3.14,3.02,4.7,1.24,1.9,2.51,3.77,3.92,5.55,1.16,1.46,2.39,2.86,3.74,4.15.1.09.21.16.32.24-.54-1.03-.95-2.08-1.02-3.23.09.16.15.33.23.5.09.21.17.44.3.63.35.5.71,1,1.09,1.49.3.39.71.66,1.16.87.09.05.2.07.29-.11-.51-.65-1.26-1.14-1.66-2,.41.14.6.41.78.69.55.88,1.35,1.44,2.27,1.88.19.09.36.21.54.32.3.19.59.42.92.56.43.19.82.44,1.21.69.1.06.18.16.32.29-.15.03-.23.06-.31.06-.51-.03-1.02-.03-1.52-.09-.86-.11-1.67-.4-2.46-.84.03.27.21.37.36.48.29.21.59.41.88.63,1.55,1.14,3.24,2.01,5.01,2.74,1.96.81,4,1.39,6.08,1.8,1.62.32,3.26.56,4.89.82.17.03.36.11.53-.06-.12-.28-.38-.41-.57-.6-.18-.18-.35-.37-.52-.56-.17-.2-.39-.38-.47-.65.04-.03.05-.06.07-.06.44.05.88.1,1.32.16.36.05.71.1.99.37.13.12.34.18.51.24.6.21,1.21.22,1.81.02.37-.13.74-.13,1.13-.1.61.05,1.21.21,1.82.21.02,0,.05.05.09.1-.09.06-.17.12-.26.18-.63.39-1.29.73-2,.96-.09.03-.22.04-.2.19,1.49.37,16.75,1.46,19.25,1.36.03,0,.06-.05.11-.1-.05-.08-.11-.17-.17-.28-.8.28-1.55.03-2.29-.22-.17-.06-.39-.19-.43-.33-.12-.39-.43-.57-.7-.79-.86-.71-1.75-1.4-2.63-2.1-.17-.13-.33-.28-.57-.23-.14.03-.25-.03-.34-.12-.51-.52-1.16-.85-1.77-1.23-.71-.45-1.5-.58-2.32-.41-.33.07-.66.17-.97.29-.88.33-1.65.85-2.43,1.38-.4.27-.81.54-1.22.81-.1.06-.22.14-.34-.03.1-.11.21-.23.32-.36-.08-.03-.13-.06-.16-.05-.14.05-.28.1-.4.18-.3.2-.63.24-.97.16-.14-.03-.29-.05-.44-.09-.09-.02-.22,0-.24-.17.06-.05.12-.1.19-.15.82-.53,1.63-1.07,2.45-1.59,1.09-.69,2.19-1.39,3.44-1.76.09-.03.17-.09.25-.14-.03-.05-.04-.09-.05-.09-5.1-.5-10.22-.79-15.26-1.81-.04,0-.08,0-.12.02-.02,0-.03.03-.07.06.33.32.67.63.98.96.32.34.61.7.9,1.07.29.37.56.74.82,1.13.26.38.49.78.76,1.21-.3.01-.5-.08-.64-.29-.1-.16-.2-.32-.3-.49-.64-1.02-1.31-2.03-2.11-2.94-.41-.48-.9-.83-1.51-1-.41-.11-.82-.21-1.23-.32-.14-.04-.29-.06-.43-.12-.34-.13-.67-.26-1-.4-.7-.29-1.42-.56-2.11-.89-1.85-.89-3.49-2.09-4.96-3.51-1.69-1.62-3.22-3.36-4.61-5.24-.12-.16-.26-.32-.47-.58.09.53.17.92.23,1.31.06.38.12.75.16,1.13.04.4.04.8.06,1.21.01.38.01.76,0,1.14,0,.4.05.8-.01,1.19-.08-.01-.13,0-.16-.03-.28-.24-.45-.54-.49-.92-.08-.76-.17-1.52-.29-2.27-.07-.48-.19-.96-.29-1.43-.02-.1-.07-.21-.24-.18-.11.21-.03.44-.02.67ZM32.88,34.7c-.04.06-.05.09-.06.09-.97.32-1.89.21-2.71-.4-.68-.51-1.29-1.1-1.86-1.72-.9-.99-1.72-2.04-2.42-3.18-.08-.14-.19-.26-.33-.44-.08.28.03.44.11.6.85,1.82,1.93,3.47,3.51,4.77.5.41,1.05.73,1.66.91.81.24,1.63.24,2.44-.01.43-.13.59-.03.79.49-.22.02-.43.05-.63.06-.79.03-1.56-.07-2.33-.26-.08-.02-.19-.12-.27.05.1.08.19.16.29.23.47.33.93.66,1.41.99,1.24.85,2.42,1.79,3.56,2.77,1.27,1.09,2.48,2.24,3.64,3.45,1.72,1.81,3.4,3.66,4.83,5.72.1.14.2.28.3.41.05.06.13.13.2.14.36.07.73.15,1.16.1-.08-.09-.11-.15-.16-.17-.56-.27-1.04-.65-1.5-1.06-.59-.53-1.09-1.14-1.35-1.9-.33-.94-.52-1.92-.46-2.93,0-.05.05-.1.1-.2.12.27.07.51.1.73.03.21-.05.46.19.65.16-.24.08-.48.15-.7.03-.1.12-.19.19-.31.48.35.81.74.88,1.31.03.25.09.5.18.74.21.59.48,1.15,1,1.51,1.09.77,2.24,1.45,3.54,1.82.92.26,1.82.56,2.72.88.64.24,1.3.39,1.97.45.09,0,.2.07.29-.08-.05-.08-.1-.17-.16-.25-1.8-2.54-3.63-5.05-5.61-7.46-1.28-1.56-2.58-3.08-3.99-4.53-.12-.12-.2-.27-.39-.28-.01.02-.04.04-.03.06.01.08.02.17.06.24.39.96.52,1.96.47,2.99-.03.66-.06,1.31-.1,1.97,0,.09-.04.19-.06.3-.72-.5-.77-.62-.63-1.38,0-.04.02-.08.02-.12.27-1.42-.04-2.73-.71-3.99-.03-.06-.08-.16-.22-.09.41,1.31.65,2.64.21,4-.03-.14-.03-.28-.04-.43-.02-.51,0-1.02-.06-1.52-.05-.39-.14-.8-.3-1.16-.42-.92-1.07-1.68-1.87-2.29-.66-.51-1.44-.71-2.26-.76-.66-.04-1.31-.06-1.97.03-.24.03-.46.02-.67-.12-.35-.23-.71-.45-1.11-.71.16-.1.26-.16.36-.23.11-.07.25-.11.32-.2.14-.17.31-.2.51-.22,1.4-.15,2.79-.22,4.16.21.08.03.17,0,.19-.14-.31-.26-.62-.54-.95-.8-1.21-.96-2.47-1.87-3.74-2.75-2.07-1.45-4.28-2.66-6.5-3.86-.47-.25-.94-.48-1.41-.73-.55-.29-1.07-.23-1.56.1-.28.19-.55.41-.77.66-.75.86-1.27,1.85-1.55,2.96-.1.39-.13.79-.14,1.19,0,.49.21.83.69,1.03,1.02.42,1.98.96,2.93,1.52.22.13.44.25.67.36.08.04.17.13.28,0-1.3-1.26-2.18-2.8-3.02-4.37-.08-.15-.16-.3-.21-.46-.11-.36.07-.76.38-.92.28-.15.66-.04.91.26.09.11.15.25.22.38.49.92.98,1.83,1.59,2.67.46.64.97,1.24,1.58,1.73.71.59,1.52,1,2.45,1.14.35.05.66.16.9.47ZM44.29,49.29c-.07-.13-.11-.23-.18-.31-.55-.72-1.08-1.46-1.66-2.16-1.53-1.84-3.16-3.59-4.89-5.24-1.55-1.48-3.19-2.85-4.93-4.1-2.15-1.55-4.4-2.95-6.71-4.26-.46-.26-.94-.49-1.41-.72-.18-.09-.38-.15-.69-.27.28.37.48.64.69.91,3.01,3.91,5.72,8.03,8.35,12.21.45.72.9,1.44,1.33,2.16.14.24.32.39.6.4.04,0,.08.02.12.02,2.94.54,5.89.96,8.85,1.33.16.02.33.02.53.03ZM77.81,69.47c-.12-.19-.23-.37-.35-.54-.85-1.22-1.78-2.37-2.73-3.51-1.68-2.01-3.64-3.67-6.02-4.78-1.06-.49-2.14-.92-3.28-1.18-1.68-.37-3.38-.58-5.08-.79-.08,0-.17,0-.26.01.27.62,5.82,9.52,6.3,10.1,3.71.34,7.45.59,11.2.76.06,0,.12-.03.22-.06ZM99.66,88.21c2.97.3,5.93.46,8.9.53.05,0,.11-.04.19-.08-.08-.12-.15-.22-.23-.31-1.54-1.69-3.06-3.39-4.63-5.06-.75-.8-1.57-1.55-2.47-2.18-1.44-1.02-2.97-1.89-4.63-2.5-1.2-.44-2.42-.79-3.69-.89-.21-.02-.42-.08-.66.04,2.32,3.55,4.72,7.04,7.22,10.46ZM40.16,56.51c.1.16.14.25.2.33.4.52.78,1.05,1.2,1.56,1.38,1.66,2.83,3.26,4.5,4.64,1.38,1.15,2.89,2.08,4.53,2.78,1.8.77,3.67,1.28,5.59,1.65.07.01.17.07.22-.04-.25-.62-5.65-9.15-6.15-9.72-3.33-.39-6.65-.79-10.09-1.19ZM72.23,77c.24.29.48.59.73.87,1.12,1.3,2.33,2.52,3.69,3.57,1.44,1.1,3,1.98,4.68,2.67,2.32.95,4.72,1.62,7.15,2.18.09.02.19,0,.35.01-.14-.22-.24-.38-.34-.54-1.46-2.21-2.92-4.41-4.38-6.62-.23-.35-.46-.71-.69-1.07-.45-.71-.31-.61-1.16-.65-.38-.02-.76-.03-1.14-.05-2.77-.15-5.54-.3-8.31-.45-.18,0-.38-.09-.58.06ZM106.27,108.43c.05.15.06.22.09.26.83.98,1.67,1.97,2.51,2.95.24.28.55.37.92.32.36-.05.69-.2,1-.39,1.11-.67,1.98-1.58,2.62-2.7.18-.31.29-.66.39-1,.16-.53.03-.97-.34-1.4-1.4-1.64-2.77-3.31-4.13-4.98-.98-1.19-1.93-2.41-2.9-3.61-.07-.08-.12-.23-.28-.15,0,.05-.02.09,0,.13.16.77.36,1.53.14,2.32-.02.06,0,.13,0,.19-.05.66-.09,1.31-.14,1.97-.04.53-.08,1.06-.11,1.58-.03.58.04,1.14.2,1.7.17.58.46,1.09.96,1.46.93.68,1.92,1.24,3.06,1.51.33.08.66.17.99.25.2.05.41.11.61.17.24.06.36.21.39.45.02.15.03.3.01.44-.05.39-.29.62-.67.63-.21,0-.42-.03-.62-.07-.25-.06-.49-.14-.73-.22-.58-.19-1.17-.38-1.74-.59-.76-.27-1.43-.72-2.21-1.2ZM65.71,68.6c-.1-.16-.19-.33-.29-.49-1.01-1.62-2.02-3.23-3.02-4.85-.9-1.44-1.79-2.87-2.68-4.31-.16-.26-.35-.39-.65-.41-.89-.07-1.77-.18-2.65-.26-.1-.01-.21,0-.32,0-.03.09-.08.17-.09.25-.18,1.11-.25,2.23-.19,3.35.08,1.53.94,2.54,2.22,3.25.33.18.69.32,1.05.45.62.22,1.24.42,1.86.64.86.3,1.73.58,2.52,1.04.62.37,1.23.74,1.78,1.22.12.1.25.24.47.11ZM22.47,52.3c-.16-.18-.23-.29-.32-.37-.53-.5-.96-1.07-1.33-1.69-.28-.47-.53-.96-.81-1.44-.38-.66-.74-1.33-1.16-1.97-.77-1.18-1.76-2.11-3.12-2.58-.49-.17-.87-.43-1.02-.95,0-.01-.04-.02-.09-.05-.06.05-.15.09-.22.16-.91.87-1.54,1.9-1.85,3.12-.07.26-.09.54-.09.82,0,.55.25.97.77,1.21.88.42,1.74.86,2.62,1.28,1.95.92,3.98,1.66,6.03,2.31.15.05.32.08.59.14ZM92.63,78.93c0,.08-.02.16,0,.23.22.72.22,1.46.18,2.21-.04.61-.1,1.22-.15,1.84-.09,1.08-.18,2.15-.1,3.24.01.17.03.34.06.5.02.14.11.23.24.26.14.04.29.06.43.09,1.83.34,3.68.59,5.53.8.06,0,.12,0,.2-.02-.03-.07-.05-.12-.08-.17-2.14-2.95-4.17-5.96-6.23-8.97,0-.01-.04,0-.09-.02ZM24.3,46.29c-.22.34-.24.43-.03.53.43.2.49.61.6.99.03.1-.11.2-.21.16-.06-.02-.14-.04-.17-.08-.23-.36-.62-.5-.94-.75-.64-.51-1.21-1.11-1.94-1.52-.04-.02-.07-.05-.09-.08-.06-.07-.1-.14.02-.25.11.05.24.11.37.17.17.07.35.16.53.2.35.09.7.15,1.05.23.18.04.36.07.61.11-.05-.14-.06-.23-.11-.27-.08-.06-.19-.08-.29-.12-1.79-.59-3.56-1.23-5.26-2.05-.15-.07-.31-.13-.47-.2-.14-.05-.25-.17-.52-.17.19.14.29.21.39.28.93.65,1.74,1.42,2.35,2.38.32.5.62,1.01.92,1.52.4.7.76,1.42,1.17,2.11.23.38.49.74.79,1.07.46.53,1.04.86,1.75.95.21.03.42.07.63.11.71.12,1.48.05,2.06-.19,0-.06,0-.13-.03-.18-1.04-1.64-2.09-3.28-3.18-4.98ZM115.72,96.48c.02.08.02.12.04.15.98,1.27,1.96,2.54,2.94,3.81.31.4.56.5,1.04.32.35-.13.69-.31,1.01-.52.7-.45,1.27-1.05,1.78-1.69.45-.57.79-1.2.97-1.9.03-.11.03-.21-.16-.2-.02.09-.05.18-.07.28-.17.71-.77.92-1.34.47-.15-.12-.28-.26-.41-.4-.3-.35-.68-.47-1.13-.46-1.46.04-2.92.07-4.37.1-.1,0-.2.03-.31.04ZM113.41,88.71c.16.02.25.04.33.04,1.4-.02,2.79-.04,4.19-.06.02,0,.04-.01.06-.03.01-.01.01-.03.04-.09-.25-.31-.5-.65-.77-.97-1.37-1.67-2.74-3.33-4.11-4.99-.12-.14-.22-.31-.48-.36.03.13.05.22.07.32.29.98.46,1.98.5,3,.03.7.05,1.4.09,2.09.02.34.05.67.08,1.05ZM73.54,69.82c.43.23.76.38,1.06.58.58.38,1.18.76,1.72,1.19.67.54,1.29,1.15,1.94,1.73.62.55,1.26,1.06,1.99,1.47.39.22.89.41,1.37.47-1.12-1.8-2.25-3.55-3.41-5.24-.76-.11-4.09-.26-4.66-.2ZM65.8,76.39c-1.12-.11-2.16-.24-3.27-.32.14.23.23.39.34.54.71,1,1.41,2,2.13,2.99.42.58.87,1.14,1.31,1.71.12.16.24.31.52.5-.11-.26-.16-.39-.23-.52-.3-.59-.48-1.22-.54-1.88-.07-.76-.14-1.51-.21-2.27-.02-.23-.03-.46-.06-.75ZM49.5,55.89c-.34-.13-.53-.02-.73.03-.58.13-1.16.26-1.76.25-.63,0-1.21-.16-1.75-.5-.88-.56-1.65-1.26-2.44-1.93-.68-.57-1.33-1.18-2-1.76-.08-.07-.2-.11-.41-.22.1.18.12.26.17.32.93,1.1,1.86,2.2,2.96,3.14.73.62,1.55,1.1,2.51,1.32,1.2.28,2.3.03,3.44-.65ZM61.66,68.2c-.22-.12-.31-.2-.42-.23-.68-.23-1.36-.46-2.04-.69-1.16-.4-2.27-.92-3.21-1.73-.02-.02-.07-.01-.13-.02,0,.06,0,.13.02.18.34.56.68,1.11,1.02,1.67.12.2.29.29.52.32,1.27.18,2.55.36,3.82.54.1.01.2-.01.42-.03ZM15.16,43.04c-.18.45-.13.61.26.76.92.35,1.75.84,2.49,1.49.05.04.13.05.24.09-.26-.51-.81-1.1-1.45-1.64-.45-.38-1.01-.5-1.53-.7ZM64.66,74.45c-.29-.15-.46-.04-.63.02-1.15.37-2.31.52-3.5.2-.04-.01-.09-.03-.12-.02-.06.02-.13.04-.15.08-.02.04,0,.13.05.16.53.39,1.13.59,1.79.51.89-.11,1.71-.44,2.57-.95ZM26.42,53.34s0,.07,0,.11c.82.19,1.64.39,2.46.58.09.02.2.07.29-.09-.19-.3-.39-.62-.61-.96-.37.08-.72.16-1.07.22-.35.06-.71.1-1.06.15ZM89.35,70.45c-.63-.12-1.12-.12-1.69-.1.19.29.35.53.51.77.44-.1.74-.35,1.18-.66ZM19.81,34.04c-.11.09-.16.11-.17.14-.16.52.16.93.69.9.09,0,.17-.16.11-.24-.2-.26-.41-.51-.64-.79ZM34.88,48.43c.12.26.14.29.26.28.18-.02.37-.06.61-.1-.48-.2-.48-.2-.87-.18ZM16.08,42.63c.37.15.63.26.89.37-.22-.21-.42-.46-.89-.37ZM100.89,78.54s-.02-.03-.02-.05c-.02.02-.04.03-.07.05.02.01.03.03.05.03.01,0,.03-.02.04-.03Z" stroke="#000" stroke-miterlimit="10" stroke-width=".25"/><path d="M46.72,68.13c.58-.07.98-.32,1.44-.12.1.04.25,0,.37-.03,1.22-.29,2.47-.37,3.72-.4,1-.03,1.85.31,2.6.98.53.47.99.98,1.43,1.53.37.46.75.92,1.12,1.38.11.14.25.27.34.49-.58-.04-1.03-.19-1.32-.69-.19-.33-.45-.62-.68-.92-.4-.53-.9-.94-1.47-1.28-.53-.32-1.09-.48-1.69-.45-.53.03-1.05.09-1.58.17-.5.08-1,.18-1.49.32-.69.19-1.3,0-1.88-.33-.27-.16-.52-.36-.91-.64Z" stroke="#000" stroke-miterlimit="10" stroke-width=".25"/><path d="M38.58,60.74c-.12-.18-.1-.39-.11-.59,0-.24-.03-.49-.04-.73h-.01c.05.16.13.31.14.47.02.28,0,.57,0,.86h.02Z" stroke="#000" stroke-miterlimit="10" stroke-width=".25"/><path d="M38.56,58.9c-.16-.19-.2-.4-.06-.63,0,0-.01,0,0,0,.02.21.05.42.06.63,0,0,0,0,0,0Z" stroke="#000" stroke-miterlimit="10" stroke-width=".25"/><path d="M38.43,59.42c.04-.17.08-.35.12-.52,0,0,0,0,0,0-.04.17-.08.35-.13.52,0,0,0,0,0,0Z" stroke="#000" stroke-miterlimit="10" stroke-width=".25"/><path d="M38.56,60.75s-.03.1-.02.06c-.01.03,0-.02.03-.07,0,0-.01,0-.01,0Z" stroke="#000" stroke-miterlimit="10" stroke-width=".25"/><path d="M77.07,83.05c-.07.06-.1.09-.13.1-.79.21-1.59.41-2.39.62-.22.06-.45.11-.68.15-.65.12-.93.04-1.5-.41,0-.02.01-.04.03-.06.01-.01.04-.03.06-.03,1.45-.13,2.89-.25,4.34-.38.08,0,.15,0,.27,0Z" stroke="#000" stroke-miterlimit="10" stroke-width=".25"/><path d="M103.32,93.64s.03.02.05.04c-.02,0-.05,0-.07-.01-.02,0-.03-.02-.04-.04h.06Z" stroke="#000" stroke-miterlimit="10" stroke-width=".25"/><path d="M102.82,93.19s-.03,0-.03,0c0,0,0-.02,0-.03.01.01.03.02.04.04Z" stroke="#000" stroke-miterlimit="10" stroke-width=".25"/><path d="M114.36,91.43c-.07.18-.16.34-.38.36h0c.13-.12.25-.24.38-.36,0,0,0,0,0,0Z" stroke="#000" stroke-miterlimit="10" stroke-width=".25"/><path d="M113.98,91.79c-.07.18-.16.34-.39.36h0c.13-.12.26-.24.39-.36,0,0,0,0,0,0Z" stroke="#000" stroke-miterlimit="10" stroke-width=".25"/><path d="M70.04,84.3c.15.1.3.2.5.16h0c-.2.06-.36-.02-.5-.16,0,0,0,0,0,0Z" stroke="#000" stroke-miterlimit="10" stroke-width=".25"/><path d="M72.91,84.78c-.12.06-.24.13-.36.19,0,0,0,0,0,0,.12-.06.24-.13.36-.19h0Z" stroke="#000" stroke-miterlimit="10" stroke-width=".25"/><path d="M113.59,92.16c-.02.07-.05.13-.07.2,0,0-.02,0-.02,0,.03-.06.06-.13.09-.19,0,0,0,0,0,0Z" stroke="#000" stroke-miterlimit="10" stroke-width=".25"/><path d="M70.54,84.46c.06.04.11.08.17.13,0,0-.01.01-.02.02-.05-.05-.1-.09-.15-.14,0,0,0,0,0,0Z" stroke="#000" stroke-miterlimit="10" stroke-width=".25"/><path d="M72.15,84.75s-.03,0-.05,0l.05.05s0-.03,0-.05h0Z" stroke="#000" stroke-miterlimit="10" stroke-width=".25"/><path d="M94.29,90.32s-.02.04-.03.06c0-.02.01-.03.02-.05,0,0,0,0,0,0Z" stroke="#000" stroke-miterlimit="10" stroke-width=".25"/><path d="M71.32,84.67s-.03,0-.04.01c.02,0,.03,0,.05-.01h0Z" stroke="#000" stroke-miterlimit="10" stroke-width=".25"/><path d="M72.92,84.78s.04.04.04.05c0,0-.03-.03-.05-.05,0,0,0,0,0,0Z" stroke="#000" stroke-miterlimit="10" stroke-width=".25"/><path d="M72.16,84.75c.13.07.26.15.4.22,0,0,0,0,0,0-.13-.07-.26-.15-.4-.22,0,0,0,0,0,0Z" stroke="#000" stroke-miterlimit="10" stroke-width=".25"/><path d="M71.32,84.67s0,0,0,0c0,0,0,0,0,0Z" stroke="#000" stroke-miterlimit="10" stroke-width=".25"/><path d="M80.21,68.83c.62.62,1.03,1.27,1.31,2.01.2.52.52.97.91,1.37.45.46.7,1.03,1.1,1.69-1.04-.57-1.91-1.12-2.51-1.99-.19-.27-.34-.59-.46-.9-.16-.41-.33-1.57-.35-2.19Z" stroke="#000" stroke-miterlimit="10" stroke-width=".25"/><path d="M80.54,72.66c-.05-.08-.1-.16-.15-.24-.05-.08-.1-.16-.15-.24-.04-.16-.07-.32-.13-.47-.49-1.13-.64-2.32-.57-3.54,0-.04.02-.08.03-.12,0-.02.03-.03.07-.08.15.12.25.26.27.46,0,.15,0,.3,0,.44,0,.74.05,1.48.24,2.2.26.99.75,1.84,1.58,2.46.15.11.31.22.48.31.47.24.95.46,1.42.7.15.07.3.15.44.25.07.06.12.16.23.32-.66-.17-1.15-.45-1.65-.72-.68-.36-1.27-.84-1.77-1.42-.1-.11-.22-.2-.32-.3Z" stroke="#000" stroke-miterlimit="10" stroke-width=".25"/><path d="M34.78,34.22c-.23.06-.34.09-.47.12.08-.17.21-.14.47-.12Z" stroke="#000" stroke-miterlimit="10" stroke-width=".25"/><path d="M109.37,80.76c-.09-.03-.19-.06-.28-.1-.82-.31-1.67-.44-2.54-.49-.17,0-.34-.02-.5-.04-.21-.03-.38-.13-.58-.35,1.42.09,2.73.26,3.91.98Z" stroke="#000" stroke-miterlimit="10" stroke-width=".25"/><path d="M110.46,81.47c-.08-.05-.17-.09-.25-.14,0,0,0-.01.01-.02.08.05.16.1.24.15,0,0,0,0,0,0Z" stroke="#000" stroke-miterlimit="10" stroke-width=".25"/><path d="M112.12,105.55c.25.28.58.55.69.98.08.28.15.57.22.85.07.27.01.4-.23.5-.2.08-.34,0-.35-.21,0-.08,0-.17,0-.25.02-.29-.07-.54-.23-.77-.16-.22-.3-.46-.44-.69-.05-.09-.09-.19-.12-.29-.03-.11.07-.22.17-.2.04,0,.08,0,.12.02.04.01.08.03.16.06Z" stroke="#000" stroke-miterlimit="10" stroke-width=".25"/><path d="M111.14,104.7c-.19.01-.25-.12-.28-.27,0-.03.03-.08.06-.1.03-.02.09-.01.12,0,.12.09.22.19.11.36Z" stroke="#000" stroke-miterlimit="10" stroke-width=".25"/><path d="M104.64,106.01c.19.17.27.4.29.65-.18-.18-.23-.42-.29-.65Z" stroke="#000" stroke-miterlimit="10" stroke-width=".25"/><path d="M97.73,86.87c.12.08.12.28.01.39-.19.18-.67.21-.89.05-.11-.08-.14-.21-.11-.34.04-.13.13-.22.26-.25.19-.05.54.03.73.15Z" stroke="#000" stroke-miterlimit="10" stroke-width=".25"/><path d="M37.82,52.15c.1.05.2.09.28.15.57.44,1.17.85,1.68,1.35.45.44.99.71,1.49,1.05.26.18.54.34.8.51.11.07.21.14.31.22.12.1.22.21.17.38-.05.18-.22.19-.36.19-.17,0-.34-.03-.5-.05-.23-.03-.46-.08-.69-.12-.51-.08-.94-.36-1.42-.54-.19-.25-.41-.49-.58-.75-.4-.59-.78-1.2-1.18-1.79-.13-.19-.2-.37,0-.59Z" stroke="#000" stroke-miterlimit="10" stroke-width=".25"/><path d="M37.09,51.98c.03-.06.07-.13.1-.19h0c-.04.07-.07.13-.11.19,0,0,0,0,0,0Z" stroke="#000" stroke-miterlimit="10" stroke-width=".25"/><path d="M54.22,60.88c.11.14.14.29.03.45,0,0,.01,0,0,0-.01-.15-.03-.3-.04-.45h0Z" stroke="#000" stroke-miterlimit="10" stroke-width=".25"/><path d="M54.22,60.87s.05-.05.05-.05c0,0-.03.03-.05.06,0,0,0,0,0,0Z" stroke="#000" stroke-miterlimit="10" stroke-width=".25"/></svg>