<?xml version="1.0" encoding="UTF-8"?><svg id="Layer_1" xmlns="http://www.w3.org/2000/svg" viewBox="0 0 144.57 144.57"><path d="M59.91,55.62c-3.33,1.59-6.71,2.29-10.25.61-1.11-.53-2.29-.89-3.43-1.37-1.31-.55-2.31-1.41-2.66-2.86-.8-3.31-1.11-6.66-.69-10.04.12-.98.5-2.03,1.07-2.82,1.35-1.87,2.74-3.77,4.4-5.35,1.48-1.4,2.93-2.72,4.14-4.43,1.84-2.62,4.79-2.91,7.4-1.03,2.13,1.53,4.43,2.67,6.91,3.46,4.96,1.58,5.91,7.45,4.05,10.78-1.04,1.87-2.26,3.65-3.4,5.46.1-.31.17-.64.32-.92,1.06-2.03,2.2-4.02,3.2-6.07.69-1.41.48-2.95-.21-3.81-2.1,7.51-6.15,13.83-12.72,18.78.83-.17,1.35-.28,1.87-.38ZM58.21,40.28c.26-1.11.48-2.24.82-3.32.16-.51.57-.94.86-1.4-.26,1.01-1.02,1.96-.48,3.07,1.74-1.4,3.43-2.76,5.13-4.12l.35.14c-.14.42-.17.94-.45,1.22-.44.44-1.02.76-1.57,1.06-1.62.91-2.6,2.26-2.8,4.11-.11,1.08-.61,1.85-1.57,2.27-2.67,1.17-4.34,3.35-5.65,5.79-1.04,1.95-1.81,4.04-2.72,6.12,2.44,1.19,4.87,1.71,7.14-.07,1.96-1.54,3.76-3.29,5.63-4.95.77-.68,1.23-1.41.49-2.41l.89.67c.1-.08.2-.16.31-.24-.53-.85-1.06-1.71-1.59-2.56.07-.06.13-.12.2-.18.62.67,1.24,1.34,2.04,2.21,1.27-2.64,2.63-5.18,3.71-7.84.72-1.78,1.37-3.81-.49-5.38-.9-.76-2.03-1.25-3.03-1.89-1.66-1.07-3.03-.76-4.15.83.36-.69.72-1.37,1.12-2.14-1.04-.7-2.04-1.4-3.05-2.07-2.84-1.88-6.1-.78-7.31,2.44-.12.31-.42.58-.71.77-.74.48-1.71.73-2.23,1.37-1.19,1.45-2.15,3.08-3.24,4.61-1.02,1.43-1.62,2.99-1.52,4.76.08,1.53.16,3.07.3,4.6.13,1.41.56,1.65,1.95,1.29.49-.13.99-.19,1.49-.29.02.11.03.22.05.33-1.11.18-2.21.37-3.36.56.08,1.79.63,3.28,2.34,4.2.72.39,1.17.34,1.56-.38.86-1.58,1.79-3.12,2.59-4.73,1.42-2.86,2.81-5.72,5.71-7.45-.51.64-1.02,1.27-1.63,2.03,4.03-1.09,4.32-1.37,3.79-3.63-.32.21-.61.41-.91.61Z" fill="#000" stroke-width="0"/><path d="M102.81,89.88c.6.5,1.2,1,2,1.66-.43-3.96-1.51-7.35-3.65-10.39.39-.19.81-.39,1.23-.59-.01.25-.13.58-.01.72.74.94,1.52,1.84,2.4,2.87.15-1.4.29-2.67.43-4-.82.12-1.5.23-2.17.33,2.05-1.56,6.45-1.26,9.04.93,3.35,2.83,4.84,6.61,5.8,10.76.64,2.73.19,5.28-.8,7.74-1.25,3.1-2.63,6.16-4.18,9.12-1.22,2.32-3.51,2.99-5.98,2.78-.83-.07-1.59-.77-2.43-1.01-2.5-.71-3.54-2.89-4.86-4.75-1.96-2.77-4.03-5.5-4.94-8.84-.85-3.11-1.19-6.21.48-9.25-1.8,3.54-.08,6.5,1.22,9.28h4.56c0,.13,0,.25,0,.38-.62,0-1.31.19-1.83-.04-.98-.43-1.62-.16-2.35.71,1.59,2.37,3.21,4.74,4.78,7.15.51.78,1,1.6,1.28,2.47.55,1.68,1.76,2.47,3.57,2.9,0-1.48.26-3-.05-4.39-.97-4.38-.59-8.84-1.16-13.23-.07-.57-.64-1.09-1.02-1.6-.43-.59-.89-1.15-1.34-1.72l-.03.03ZM106.9,88.16h-.02c.06.71-.13,1.61.23,2.14,2.56,3.77,1.27,7.8,1.01,11.77-.65-3.07.89-6.25-.53-9.61-.25,3.45-.44,6.59-.72,9.72-.28,3.12.79,5.66,3.12,7.71.3-.22.6-.41.88-.64.97-.83,2.23-1.5,2.82-2.54,1.27-2.24,2.33-4.64,2.39-7.31,0-.15.05-.43.12-.44,1.21-.26,1.08-.91.62-1.77-.09-.17.11-.54.24-.78.8-1.47.73-2.93-.05-4.37-1.4-2.59-2.91-5.12-4.21-7.77-.67-1.38-1.55-2.38-2.92-3-.77-.35-1.55-.68-2.29-1.08-1-.54-1.81-.2-1.98.77-.27,1.53-.46,3.15-.24,4.66.13.87.31,2.15,1.53,2.56ZM105.31,90.59c.29,4.05.58,8.1.87,12.15.04-4.07.66-8.19-.87-12.15ZM106.89,106.6c-.14,1.51-.34,2.99-.07,4.44.95-.39,1.6-.66,2.25-.93-.7-1.13-1.44-2.32-2.18-3.51ZM113.73,83.28c-.2.09-.4.18-.6.27,1.09,2.27,2.18,4.54,3.26,6.82l.61-.3c-1.09-2.26-2.19-4.53-3.28-6.79Z" fill="#000" stroke-width="0"/><path d="M40.43,92.98c-3.03-.65-6.12-1.1-9.07-2-4.05-1.24-5.26-5.17-2.8-8.83,2.88-4.29,6.88-7.33,11.51-9.53,1.87-.89,3.74-1.96,5.73-2.36,2.69-.54,5.49-.66,8.25-.68,1.92-.01,3.71,2.04,4.18,4.12.79,3.49-.16,6.57-2.42,9.16-2.24,2.56-4.64,5.02-7.19,7.27-2.25,1.98-5.09,2.67-8.11,2.47-.02.12-.05.25-.07.37ZM56.7,73.33c.12-.21.23-.43.35-.64-.53-.35-1.09-.66-1.58-1.05-1.92-1.51-3.57-1.47-5.34.09-.87.77-1.7,1.81-2.74,2.13-1.6.49-2.68,1.26-3.21,3.11-.11-1.7.37-2.58,1.94-3.07,1.77-.56,2.94-1.6,3.73-3.46-1.18.12-2.25.03-3.17.36-4.44,1.6-8.79,3.42-12.44,6.53-2.47,2.1-4.85,4.3-5.77,7.56-.19.67-.2,1.86.17,2.12.55.37,1.75.43,2.27.05,1.53-1.08,3.1-1.84,4.98-1.97.31-.02.6-.31.92-.42.56-.2,1.12-.41,1.7-.51,1.72-.3,3.48-.43,5.18-.83,1.93-.45,3.51-1.47,4.2-3.5.23-.68.44-1.41.85-1.96,1.47-1.95,3.38-3.27,5.82-3.81.73-.16,1.43-.49,2.14-.74ZM56.92,74.11c-.62.21-1.26.4-1.89.64-2.87,1.11-5.14,2.7-6.16,5.91-.6,1.89-2.3,3.12-4.4,3.49-3.59.63-7.18,1.26-10.77,1.9-.12.02-.26.06-.36.14-1.21,1.02-2.48,1.89-4.29,1.71.69.71,1.33,1.25,2.06,1.62,2.24,1.15,4.68,1.46,7.16,1.75,4.21.48,7.99-.22,11.02-3.42,1.98-2.09,3.96-4.16,5.9-6.28.21-.23.14-.7.25-1.31,1.53-.77,2.55-4.17,1.48-6.13Z" fill="#000" stroke-width="0"/><path d="M79.87,100.96c.14-1.64.41-3.29.38-4.92-.03-1.6-.35-3.2-.48-4.81,1.02,2.97,1.17,7.27.36,9.51-.84,2.34-1.55,4.76-2.66,6.97-.74,1.46-1.98,2.74-3.22,3.83-1.11.98-2.62,1.44-4.06.63-2.24-1.26-4.57-2.46-6.56-4.06-2.71-2.19-2.94-5.31-1.95-8.41.71-2.2,1.93-4.24,2.82-6.39.68-1.63.98-3.46,1.84-4.98,1.17-2.07,2.46-4.19,5.01-4.93.78-.23,1.55-.47,2.35-.63,2.16-.43,4.8,1.12,5.19,3.2.16.86-.18,1.81-.25,2.73-.28,3.9-.03,7.77.61,11.62.04.23.14.45.21.68.14,0,.27-.02.41-.03ZM68.48,108.9h-.01c-.06.05-.12.08-.17.13-.02.02-.01.09,0,.12.74,1.01,3.14,1.99,4.18,1.71,1.67-.45,4.03-2.92,4.25-4.26.15-.9.32-1.9.82-2.63.87-1.28.84-2.64.8-4.03-.09-3.72-.16-7.44-.31-11.15-.05-1.28-.31-2.55-.51-4.18-1,1.64-1.76,2.9-2.53,4.16-.12-.06-.23-.12-.35-.18,1.03-1.42,2.4-2.77,1.01-4.72-2.8-.72-6.85,1.48-7.78,4.33-.32.97-.52,1.99-.95,2.9-.4.85-1.01,1.61-1.54,2.41,1.79,1.04,1.59,2.48,1.57,3.88-.5-1.06-.16-2.49-1.53-3.39-.77,1.77-1.57,3.36-2.16,5.02-1.67,4.62-.04,8.17,5.21,9.9Z" fill="#000" stroke-width="0"/><path d="M90.57,54.89c-1.81,1.29-3.57,2.65-5.44,3.83-1.77,1.12-3.67,2.04-5.43,3.2.72-.05,1.45-.11,2.09-.16-.25.56-.47,1.05-.61,1.37-.22-.13-.65-.59-.87-.5-2.2.9-3.96,2.35-5.47,4.54,1.14.47,2.12.88,3.27,1.36.1-.66.18-1.13.26-1.65.2.59.23,1.36.6,1.6.48.31,1.24.28,1.87.24,2.06-.14,4.12-.35,6.24-.53-.02.08-.02.37-.13.43-1.38.74-2.59,1.89-4.42,1.45-2.14-.52-4.39-.66-6.49-1.28-3.83-1.13-5.07-5.23-4.52-8.14.81-4.33,3.59-7.2,7.02-9.6,1.42-.99,2.89-1.92,4.34-2.87.19-.12.43-.15.74-.03-.79.53-1.58,1.06-2.37,1.6-.52.35-.96.67-.51,1.44.15.26-.04.81-.21,1.16q-1.55,3.03-1.42,6.3c-1.39-.39-.75-1.52-.81-2.32-.07-.92-.05-1.9.21-2.78.25-.85.85-1.59,1.3-2.37-.08-.1-.17-.19-.25-.29-1.01.83-2.04,1.63-3.01,2.49-1.88,1.66-3.36,3.59-3.95,6.09-.58,2.45-.21,4.69,1.47,6.74.36-.29.71-.44.85-.71,1.47-2.95,4.35-4.15,6.97-5.69,2.7-1.59,5.38-3.22,8.07-4.81.16-.1.41-.07.61-.09h0Z" fill="#000" stroke-width="0"/><path d="M90.56,54.88c1.91-2.46,3.84-4.9,5.73-7.38.64-.84,1.18-1.76,1.7-2.68.21-.37.22-.85.34-1.35-3.84-.51-7.28-.07-10.28,2.35-.3.24-.8.25-1.26.18,3.08-3.02,6.74-3.82,10.95-3.62,1.75.08,2.46.98,3.47,1.83.63.54,1.32,1.09,1.75,1.77,1.37,2.17,1.22,4.56.81,6.97-.13-2.16.18-4.4-1.36-6.33.05.47.18.95.13,1.41-.04.34-.31.64-.48.97-.11-.04-.22-.09-.33-.13-.31-1.2-.62-2.4-.97-3.78-.79.69-1.34,1.16-1.88,1.63.38-.79.76-1.59,1.13-2.38-.13-.06-.27-.12-.4-.18-.65,1.01-1.3,2.01-2.01,3.12.38-.15.65-.26.92-.37-1.05,1.11-2.1,2.23-3.16,3.34-.82.85-1.62,1.71-2.47,2.54-.75.73-1.54,1.41-2.31,2.11,0,0,0,0,0,0Z" fill="#000" stroke-width="0"/><path d="M101.48,52.89c.96.9.93,1.39-.22,3.43q-.65-.37.22-3.43Z" fill="#000" stroke-width="0"/><path d="M90.64,65.91c.61-.5,1.16-.95,1.73-1.38.15-.11.41-.19.56-.13.15.07.34.46.32.48-.67.58-1.37,1.14-2.08,1.67-.01,0-.34-.41-.52-.64Z" fill="#000" stroke-width="0"/><path d="M95.22,65.17c-1.66,1.25-3.33,2.49-4.99,3.74-.06-.09-.13-.17-.19-.26,1.64-1.26,3.28-2.53,4.91-3.79.09.1.18.21.27.31Z" fill="#000" stroke-width="0"/><path d="M102.31,58.56c-.97,1.14-1.94,2.28-2.91,3.41l-.34-.29,2.91-3.42c.11.1.23.19.34.29Z" fill="#000" stroke-width="0"/><path d="M102.84,89.85c-1.77-.87-3.54-1.74-5.31-2.61,0-.04,0-.08,0-.12.58.16,1.18.27,1.74.49.96.37,1.92.76,2.82,1.25.33.18.48.67.71,1.02,0,0,.03-.03.03-.03Z" fill="#000" stroke-width="0"/><path d="M99.35,59.53c-1.09-1.12-.1-1.6.32-2.31.3.23.56.42.87.66-.39.55-.75,1.04-1.19,1.65Z" fill="#000" stroke-width="0"/><path d="M95.82,63.01c-.41.34-.82.69-1.57,1.31,0-.67-.14-1.25.03-1.35.41-.26.95-.3,1.44-.43.03.16.07.31.1.47Z" fill="#000" stroke-width="0"/><path d="M106.9,88.16c.03-.39.06-.78.09-1.16.03-.41.18-.85.07-1.22-.42-1.46.25-2.76,2.15-3.51-.57.51-.92.8-1.23,1.11-.56.57-.71,1.16-.6,2.03.11.87-.32,1.81-.51,2.73,0,0,.03.02.03.02Z" fill="#000" stroke-width="0"/><path d="M40.71,82.82c-4.19-.26-7.78,1.3-11.17,3.49,3.22-2.72,6.77-4.41,11.17-3.49Z" fill="#000" stroke-width="0"/><path d="M69.68,104.86c.56-2.56,1.11-5.12,1.7-7.67.17-.74.47-1.45.87-2.13.49,3.86-1.56,7.15-2.46,10.69-.1-.1-.19-.2-.29-.3.06-.19.12-.39.18-.58Z" fill="#000" stroke-width="0"/><path d="M69.68,104.86c-.06.19-.12.39-.18.58-.06.02-.11.06-.15.09-.11-.43-.36-.87-.3-1.28.46-3.22.97-6.44,1.5-9.65.09-.52.35-1.01.68-1.49-1.36,3.81-1.43,7.78-1.55,11.74Z" fill="#000" stroke-width="0"/><path d="M69.36,105.54s.09-.07.15-.09c.1.1.19.2.29.31-.44,1.05-.89,2.1-1.33,3.16,0,0,.01,0,.01,0-.25-.2-.51-.41-.71-.56.34-.78.62-1.5.97-2.19.12-.24.41-.41.62-.61Z" fill="#000" stroke-width="0"/></svg>