<?xml version="1.0" encoding="UTF-8"?><svg id="Layer_1" xmlns="http://www.w3.org/2000/svg" viewBox="0 0 144.57 144.57"><path d="M108.01,109.47c-.33-.13-.67-.22-.97-.39-1.33-.73-1.69-1.97-1.6-3.35.19-2.62,2.6-3.95,4.98-2.81,1.13.54,1.76,1.79,1.69,3.25-.08,1.72-.91,2.83-2.58,3.3h-1.52ZM106.38,106.01c0,1.63.76,2.57,2.17,2.7,1.4.13,2.31-.6,2.56-2.06.05-.3.04-.6.03-.91-.05-1.78-1.5-2.81-3.21-2.28-1.03.32-1.56,1.18-1.56,2.54Z"/><path d="M29.44,71.71c-3.3.39-6.56.78-9.86,1.17v-2.96c3.27.39,6.52.77,9.83,1.17-.03-.16-.05-.28-.09-.4-.73-2.26-1.46-4.51-2.19-6.77-.04-.13-.12-.26-.12-.38,0-.11.08-.25.17-.31.05-.03.21.05.28.13.07.08.09.21.13.33.76,2.33,1.53,4.66,2.28,7,.1.33.23.45.59.45,4.24-.01,8.48-.01,12.71,0,.38,0,.51-.13.62-.47.77-2.4,1.55-4.8,2.33-7.2.05-.16.09-.33.18-.47.05-.08.23-.18.26-.15.09.07.17.19.19.31.01.11-.06.22-.09.34-.77,2.37-1.53,4.74-2.3,7.1-.05.15-.09.31-.15.5,3.3-.39,6.56-.78,9.87-1.17v2.95c-3.28-.39-6.56-.78-9.88-1.17.64,1.96,1.25,3.86,1.87,5.76.75,2.32,1.5,4.64,2.27,6.95.1.3.02.45-.22.62-2.42,1.75-4.84,3.5-7.25,5.25-.08.06-.16.14-.25.16-.1.02-.29,0-.31-.04-.03-.11-.02-.26.04-.35.08-.12.23-.19.35-.28,2.24-1.63,4.48-3.25,6.72-4.88.13-.1.26-.2.41-.31-.89-2.75-1.78-5.48-2.66-8.21-.46-1.42-.93-2.84-1.38-4.27-.1-.32-.24-.45-.6-.45-4.25.01-8.51.01-12.76,0-.3,0-.44.09-.54.38-1.31,4.07-2.63,8.13-3.96,12.19-.1.31-.02.44.21.62,2.3,1.66,4.59,3.32,6.88,4.99.11.08.24.15.31.26.05.08.06.24.01.3-.05.06-.21.09-.3.06-.12-.04-.23-.14-.34-.21-2.4-1.74-4.8-3.5-7.21-5.23-.28-.2-.25-.37-.16-.64,1.32-4.03,2.63-8.06,3.94-12.08.06-.17.09-.35.15-.58Z"/><path d="M59.27,92.4c.4-.7.81-1.39,1.2-2.07.07,0,.11-.02.13,0,.64.46,1.17.22,1.78-.14,3.18-1.87,6.39-3.7,9.58-5.55.3-.17.52-.19.83-.01,3.74,2.17,7.5,4.33,11.24,6.51.35.21.61.19.95-.01,3.74-2.18,7.5-4.33,11.25-6.51.29-.17.5-.15.78.01,3.76,2.18,7.53,4.35,11.29,6.53.32.18.55.19.86,0,2.3-1.35,4.61-2.67,6.91-4,.12-.07.23-.17.35-.19.11-.02.26.04.33.11.04.04,0,.23-.07.29-.1.11-.25.17-.38.24-1.88,1.09-3.76,2.18-5.65,3.25-.29.17-.41.35-.41.7.02,2.77,0,5.53,0,8.3,0,.13.02.28-.02.4-.03.09-.15.2-.23.21-.08,0-.2-.11-.23-.2-.04-.12-.02-.27-.02-.4,0-2.62,0-5.23,0-7.85,0-.18,0-.36,0-.6-.39.2-.71.49-1.04.49-.3,0-.61-.29-1-.5v.6c0,2.6,0,5.2,0,7.8,0,.13.03.28-.01.4-.04.11-.16.18-.24.27-.08-.09-.2-.16-.24-.26-.04-.12-.01-.27-.01-.4,0-2.75,0-5.5,0-8.25,0-.35-.11-.54-.41-.71-3.28-1.88-6.54-3.76-9.81-5.66-.28-.17-.49-.16-.77,0-3.79,2.2-7.59,4.38-11.37,6.58-.27.16-.45.16-.72,0-3.79-2.2-7.59-4.38-11.37-6.59-.3-.17-.5-.13-.77.02-4.04,2.34-8.08,4.67-12.12,7-.17.1-.34.19-.51.29-.03-.03-.05-.06-.08-.1Z"/><path d="M35.89,50.31c.62-.77,1.24-.83,1.91.04.02-.33.03-.5.03-.68,0-2.58,0-5.16,0-7.74,0-.13-.03-.28.01-.4.04-.12.16-.22.24-.33.09.12.21.22.26.35.05.12.01.27.01.4,0,2.7.01,5.4-.01,8.1,0,.48.16.76.54,1.03,1.81,1.29,3.61,2.6,5.41,3.91.11.08.25.14.32.25.07.1.07.25.09.38-.14,0-.29.05-.4,0-.17-.07-.3-.21-.45-.32-2.24-1.62-4.47-3.25-6.71-4.87-.09-.07-.19-.13-.32-.21-1.53,1.11-3.06,2.22-4.58,3.32-.52.38-1.03.77-1.56,1.12-.17.11-.4.1-.61.15.1-.18.15-.42.3-.53,1.46-1.09,2.93-2.16,4.42-3.21.36-.26.52-.52.52-.98-.02-2.73-.01-5.47-.01-8.2,0-.13-.03-.29.01-.4.05-.12.18-.2.28-.29.07.1.18.18.21.29.04.12.01.27.01.4,0,2.58,0,5.16,0,7.74v.55s.05.09.08.13Z"/><path d="M36.9,39.81c-2.05,0-3.31-1.35-3.3-3.51.01-2.11,1.28-3.38,3.37-3.37,2.08,0,3.33,1.29,3.33,3.41,0,2.16-1.29,3.47-3.4,3.47ZM34.56,36.36c0,1.62.77,2.57,2.19,2.69,1.39.12,2.31-.61,2.55-2.07.05-.3.04-.61.03-.91-.05-1.78-1.52-2.8-3.23-2.26-1.03.33-1.55,1.18-1.54,2.55Z"/><path d="M120.69,88.51c-2.06,0-3.32-1.32-3.32-3.49,0-2.1,1.27-3.4,3.35-3.39,2.09,0,3.33,1.26,3.35,3.39.02,2.15-1.28,3.49-3.38,3.49ZM118.33,85.06c0,1.62.77,2.57,2.19,2.69,1.39.12,2.31-.61,2.55-2.07.05-.28.04-.57.03-.86-.1-2.14-1.7-2.77-3.32-2.28-.97.29-1.45,1.2-1.45,2.52Z"/><path d="M29.69,61.89c-.25,0-.47-.02-.68,0-.29.03-.45-.09-.6-.34-.96-1.56-1.94-3.12-2.91-4.67-.09-.14-.18-.27-.34-.51v5.47h-.8v-6.59q.98-.15,1.47.63c.99,1.58,1.98,3.17,3.05,4.86v-5.51h.82v6.64Z"/><path d="M46.31,56.51v5.34h-.78v-6.59q.97-.16,1.46.62c.91,1.46,1.82,2.91,2.74,4.37.08.13.18.26.35.51v-5.53h.78v6.59c-.9.2-1.02.15-1.49-.61-.9-1.44-1.8-2.89-2.7-4.33-.09-.14-.18-.27-.27-.41-.03.01-.06.02-.09.03Z"/><path d="M21.83,58.84h-3.56v3.01h-.91v-6.62h.87v2.77h3.57v-2.77h.91v6.62h-.88v-3Z"/><path d="M53.4,58.01h3.56v-2.77h.9v6.61h-.89v-3h-3.56v3.01h-.88v-6.62h.87v2.77Z"/><path d="M17.74,68.49h.92v6.64h-.87v-2.99h-3.56v2.98h-.91v-6.61h.87v2.77h3.56v-2.77Z"/><path d="M55.26,68.49h.87v2.77h3.56v-2.76h.92v6.62h-.88v-3.01h-3.54v3h-.91v-6.62Z"/><path d="M126.21,84.55h3.57v-2.79h.9c.01.08.03.15.03.21,0,2.12,0,4.25,0,6.41h-.91v-2.98h-3.56v2.99h-.91v-6.62h.86v2.79Z"/><path d="M34.01,95.02c.28-.06.56-.11.82-.17.67,1.12,2.16,1.51,3.3.89.37-.2.54-.5.55-.9,0-.41-.18-.73-.57-.86-.57-.19-1.16-.32-1.74-.5-.42-.13-.84-.25-1.23-.44-.57-.28-.83-.78-.84-1.4,0-.64.26-1.17.85-1.45,1.11-.52,2.27-.54,3.37-.03.41.19.68.69,1.01,1.04-.03.05-.06.11-.1.16-.27.06-.54.11-.81.17-.54-1-1.26-1.17-2.62-.89-.46.09-.76.38-.79.87-.03.5.27.79.7.93.53.17,1.07.28,1.61.43.36.1.71.2,1.05.34.67.28,1.03.81,1.04,1.53,0,.72-.3,1.3-.96,1.6-1.21.55-2.45.55-3.67,0-.53-.24-.85-.69-.98-1.32Z"/><path d="M57.1,91.28c-.15-.1-.28-.18-.43-.28.39-.67.76-1.32,1.15-2,.15.06.28.12.48.2-.41.7-.79,1.37-1.2,2.08Z"/><path d="M54.68,89.59c-.17-.12-.28-.2-.42-.3.31-.53.6-1.03.9-1.55.16.08.29.14.46.22-.31.54-.61,1.06-.94,1.63Z"/><path d="M52.96,86.69c-.24.42-.45.78-.68,1.18-.14-.09-.27-.17-.43-.27.23-.39.43-.75.65-1.13.16.08.29.14.46.22Z"/><path d="M49.45,85.92q.35-.76.81-.46c-.13.23-.26.45-.41.72-.14-.09-.26-.17-.4-.26Z"/></svg>