<?xml version="1.0" encoding="UTF-8"?><svg id="Layer_1" xmlns="http://www.w3.org/2000/svg" viewBox="0 0 144.57 144.57"><path d="M88.4,47.66c-.49-1.09-.65-2.17-.29-3.32.26-.84.74-1.54,1.57-1.84,1.56-.55,2.65-1.61,3.65-2.89,1.65-2.11,4.43-2.4,6.75-.89.99.64,1.97,1.31,3.02,1.85,1.55.8,2.57,2.04,3.33,3.55,1.02,2.03,1.5,4.22,1.72,6.47.29,2.93.24,5.84-.56,8.7-.15.54-.35,1.08-.55,1.68,1.38-.41,2.59-.14,3.65.75.63-1.36,1.3-1.77,2.89-1.6,5.71.62,10.02,4.3,10.99,9.39,1,5.21.04,10.11-3.24,14.31-2.28,2.92-5.4,4.74-9.14,5.29-.99.15-2.01.12-3.02.14-1.9.02-3.8.05-5.61.75-2.11.81-3.91,2.11-5.63,3.54-.59.49-1.2.94-1.83,1.37-.51.35-.85.77-.83,1.41,0,.03,0,.07,0,.1-.15,1.37-.22,1.91-1.95,1.8-.05,0-.1.02-.12.03.13.76.33,1.5.38,2.26.15,2.33-.62,4.42-1.82,6.37-1.97,3.2-4.69,5.47-8.33,6.56-1.3.39-2.61.28-3.93.15-1.52-.14-3.05-.38-4.57-.35-2.74.05-4.88-.98-6.59-3.09-.92-1.13-1.94-2.19-2.97-3.22-.88-.89-2.02-1.25-3.26-1.34-1.79-.13-3.53.2-5.27.56-1.69.34-3.38.69-5.12.5-1.06-.11-2.06-.38-2.96-.93-1.29-.79-2.57-1.6-3.84-2.43-.91-.6-1.69-1.34-2.16-2.39-1.66,1.07-3.38.93-5.13.5-2.33-.58-4.62-1.27-6.68-2.58-2.75-1.75-5.01-3.95-6.67-6.78-.98-1.68-1.06-3.5-.94-5.36.14-2.17,1.55-4.03,3.62-4.73.69-.23,1.4-.42,2.1-.62.98-.27,1.73-.82,2.26-1.72.66-1.11,1.14-1.34,2.38-1.04,2.24.54,4.48.58,6.73.12.63-.13,1.23-.35,1.84-.56,1.55-.52,3.07-.48,4.5.32,1.23.69,2.45.92,3.77.32.26-.12.57-.13.86-.21.14-.04.36-.08.38-.15.03-.13-.04-.34-.14-.42-.37-.28-.74-.61-1.17-.76-1.47-.52-2.95-1.03-4.46-1.44-1.46-.4-2.95-.64-4.42-.99-2.05-.49-3.91-1.46-5.72-2.5-2.83-1.64-5.84-2.63-9.11-2.92-1.71-.15-3.34-.66-4.36-2.21-.43-.65-.74-1.37-1.03-2.1-.54-1.34-1.04-2.69-1.53-4.04-.56-1.55-1.14-3.1-1.63-4.67-.49-1.59-.02-3.08.82-4.43,1.43-2.31,3.68-3.49,6.21-4.19.82-.23,1.67-.31,2.5-.51.21-.05.51-.27.54-.45.3-1.86,1.62-2.84,3.12-3.59,1.68-.84,3.51-.94,5.35-.62.85.15,1.57.57,2.17,1.17,1.61,1.59,3.28,3.12,4.56,5.01,1.11,1.64,2.7,2.68,4.56,3.23,2.15.64,4.33,1.16,6.5,1.73.5.13,1,.27,1.59.43-.6-1.33-.89-2.72-1.81-3.79-.34-.4-.82-.69-1.29-.95-.6-.34-1.04-.79-1.37-1.39-1.77-3.23-1.36-6.2,1.26-9.15,1.01-1.13,2.01-2.27,3-3.41,1.33-1.55,3.04-2.27,5.05-2.35,2.5-.09,4.91.43,7.28,1.15,3.13.95,6.26,1.87,9.25,3.23,2.1.96,4.17,1.98,5.72,3.74.94,1.06,1.73,2.27,2.55,3.43.78,1.09,1.53,2.2,2.62,3.02ZM123.41,77.93c.08-.13.17-.25.23-.39.52-1.17.37-2.36.1-3.56-.19-.86-.6-1.55-1.32-2.05-.1-.07-.2-.15-.29-.22,1.51.31,1.88,1.5,2.13,2.79.28-3.76-.5-7.19-3.02-10.11-1.61-1.87-3.69-2.94-6.02-3.54-.7-.18-1.49-.23-2.21-.12-1.76.27-2.2,1.45-1.06,2.8,1.13,1.34,2.34,2.63,3.5,3.94.24.27.45.56.67.84-1.13-.64-4.27-3.72-5.03-4.84-1.42-2.08-3.19-2.61-5.53-1.64-.18.08-.37.14-.56.2-.02-.04-.05-.07-.07-.11.15-.17.28-.38.47-.51,1.16-.85,1.61-2.06,1.72-3.43.07-.96.1-1.91.19-2.87.11-1.1.13-1.09-.99-1.28-.02,0-.04-.05-.13-.16.43-.07.8-.13,1.29-.2-.12-.26-.25-.53-.38-.8.03,0,.16-.02.3-.04,0-2.75-.52-5.41-1.64-7.91-1.13-2.53-3.06-4.13-5.82-4.65-.23-.04-.47-.07-.7-.11,0-.05,0-.11.01-.16.45-.05.89-.1,1.37-.15-3.03-2.28-5.49-1.32-7.18.97,2.08-.62,2.78-.73,3.58-.51-2.62.33-4.72,1.72-6.88,2.91-1.57.87-1.83,1.92-1.22,3.63.53,1.49,1.6,2.49,2.98,3.28.42-.79.66-1.75,1.49-2.2-.32.79-.67,1.6-.97,2.42-.05.14.07.34.14.62.83-1.05.99-2.34,2.04-3.01.99-.63,2.09-.94,3.28-.93-2.44.48-3.93,2.02-4.79,4.3,1.08,1.08,1.96,2.36,2.47,3.84,1.47-.74,2.93-.96,4.47-.48-1.23-.21-2.38.01-3.47.59q-.77.41-.59,1.24c.04.17.09.35.06.52-.03.17-.14.32-.22.47-.06,0-.11-.02-.17-.03-.12-.26-.24-.52-.36-.79-.47-1.12-.88-2.27-1.42-3.35-.65-1.32-1.58-2.35-2.92-3.09-1.53-.85-3.09-1.71-4.22-3.11-.85-1.05-1.67-2.14-2.45-3.25-1.59-2.26-3.66-3.92-6.08-5.23-2.13-1.15-4.44-1.81-6.71-2.56-2.88-.95-5.77-1.83-8.82-2.02-2.26-.14-4.34.26-5.93,2.07-1.12,1.27-2.26,2.51-3.39,3.77-1.03,1.14-1.67,2.46-1.94,3.98-.41,2.34,1.18,5.11,3.47,5.89-.16-2.8.71-5.31,2.34-7.52,1.02-1.38,2.28-2.58,3.49-3.8.7-.7,1.5-1.29,2.29-1.9.2-.16.49-.2.73-.29.02.04.04.09.05.13-.43.35-.86.7-1.28,1.06-1.91,1.6-3.76,3.23-5.15,5.36-2.1,3.21-2.56,6.57-1.17,10.14.95,2.45,2.86,3.67,5.36,3.52-.05-.27-.11-.54-.14-.81-.34-3.19.26-6.17,2.04-8.86.63-.95,1.4-1.81,2.12-2.7.12-.14.33-.21.5-.31l.08.12c-.14.22-.27.44-.42.65-.6.83-1.25,1.63-1.81,2.49-1.53,2.4-2.05,5.07-1.99,7.88.02,1.07.39,2,1.25,2.64.59.44,1.27.77,1.93,1.12.52.27,1.09.46,1.6.74.72.4.89.38,1.16-.41.35-1.04.66-2.09.95-3.14.68-2.5,1.84-4.73,3.67-6.58,2.11-2.14,4.73-3.52,7.38-4.84.11-.05.24-.06.36-.09-.03.13-.09.19-.16.23-1.13.72-2.24,1.47-3.39,2.16-2.25,1.34-4.21,2.98-5.57,5.24-1.41,2.34-2.14,4.93-2.69,7.58-.07.33.12.49.36.68.75.61,1.54,1.19,2.21,1.89.58.61,1.03,1.35,1.44,1.9.04-.72,0-1.56.15-2.36.31-1.63,1.21-2.98,2.18-4.29,1.65-2.23,3.81-3.9,6-5.55.87-.66,1.88-1.1,2.99-1.12,1.55-.02,3.1.05,4.65.09.18,0,.35.06.53.09-1.43.15-2.84.28-4.26.26-2-.02-3.65.71-5.08,2.06-.49.47-.99.93-1.49,1.39-1.57,1.45-3.09,2.94-4.01,4.9-.42.89-.76,1.84-.93,2.8-.32,1.87.38,3.27,2.06,4.28,1.69,1.01,2.94,2.48,3.69,4.35.03.07.08.12.16.23.07-1.45.37-2.76.95-4.01.45-.98.89-1.96,1.32-2.95.23-.53.43-1.07.66-1.59.67-1.56,1.84-2.49,3.54-2.61,1.37-.09,2.74-.06,4.12-.05.51,0,1.02.09,1.53.14-1.74.19-3.46.38-5.19.47-1.77.09-2.93.96-3.6,2.55-.14.34-.27.68-.4,1.02-.38.97-.71,1.96-1.14,2.91-.9,2.02-1.35,4.14-1.22,6.34.05.84.2,1.7.48,2.49.39,1.1,1.59,1.38,2.53.7.73-.52,1.19-1.21,1.35-2.09.11-.63.21-1.27.3-1.9.24-1.85.93-2.6,2.75-2.98.2-.04.41-.08.62-.1,2.4-.24,4.77-.03,7.11.49,1.44.32,2.81.86,3.7,2.16.68,1,1.34,2.02,1.98,3.05.12.19.09.48.13.72-.04,0-.09.01-.13.02-.32-.56-.64-1.11-.96-1.67-1.25-2.18-3.08-3.67-5.56-4.01-2-.28-4.06-.21-6.09-.19-.67,0-1.35.29-1.99.55-.48.19-.81.6-.86,1.16-.08.95-.15,1.89-.23,2.97,1.87-.19,3.47.59,4.99,1.63.99.68,3.23,3.4,3.38,4.25-.52-.62-.95-1.14-1.39-1.65-1.52-1.75-3.39-2.91-5.65-3.45-.73-.18-1.34,0-1.83.59-.21.25-.42.51-.65.75-1.3,1.37-3.58,1.02-4.3-.71-.27-.65-.71-1.08-1.27-1.38-.58-.31-1.22-.5-1.83-.75-.9-.36-1.81-.72-2.7-1.1-.19-.08-.35-.26-.52-.4.03-.05.06-.1.1-.15.95.35,1.88.76,2.85,1.04.97.29,1.98.46,2.99.69.04-1.12-.41-2.03-1.45-2.58-2.02-1.08-4.17-1.65-6.48-1.41-1.24.13-2.47.32-3.82.49.3-.12.5-.24.71-.28,1.15-.2,2.29-.39,3.44-.57,2.32-.37,4.45.22,6.46,1.34.12.07.25.14.49.28-.75-1.48-1.43-2.86-2.72-3.7-1.11-.73-2.06-1.6-2.95-2.56-1.04-1.11-2.32-1.58-3.81-1.44-1.53.14-2.92.56-3.84,1.97-.49.75-1.13,1.41-1.72,2.1-.12.15-.3.25-.45.37-.03-.03-.07-.06-.1-.08.08-.14.15-.29.24-.43.65-.9,1.3-1.81,1.97-2.7.76-1.01,1.81-1.61,3.03-1.77.89-.11,1.8-.02,2.69-.02-.75-1.26-1.86-2.22-3.68-2.96-1.49-.61-2.92-1.3-4.16-2.34-.59-.49-1.33-.71-2.08-.73-1.3-.03-2.41-.45-3.35-1.36-.78-.76-1.7-1.25-2.8-1.4-.62-.09-1.24-.16-1.84-.33-1.15-.31-2.28-.73-3.44-1.02-2.2-.55-2.57-.5-4.04,1.16-1.2,1.35-1.66,2.99-1.76,4.76-.12,1.98-.35,3.95-.93,5.86-.41,1.36-.88,2.71-1.25,4.09-.31,1.16-.33,2.33.1,3.49.67,1.77,2.14,2.43,3.83,2.76.95.19,1.93.28,2.88.48,1.44.29,2.83.73,3.92,1.81.66.66,1.12.61,1.61-.2.57-.92.82-1.95.97-3.01.13-.89.2-1.81.46-2.66.71-2.33.63-4.55-.5-6.74-.38-.73-.68-1.53-.85-2.34-.22-1.06-.13-2.19.6-3.03.62-.71,1.45-1.23,2.2-1.83.1-.08.26-.09.51-.17-.47.41-.82.72-1.18,1.01-1.26,1.03-1.9,2.34-1.53,3.95.2.86.59,1.71,1.01,2.49.91,1.68,1.31,3.38.75,5.26-.25.83-.43,1.69-.58,2.54-.15.82-.22,1.66-.33,2.5.23,0,.31-.06.39-.12,1.01-.78,1.99-1.58,3.03-2.32.51-.37.75-.81.72-1.41-.04-.71-.12-1.41-.19-2.14.07.01.16,0,.22.04.07.04.15.12.16.19.11,1.03.21,2.05.31,3.09,1.29-.36,2.64-.99,4.28-1.03-4.92,1.8-6.1,2.39-9.2,5.1-1.79,1.57-2.59,3.62-2.39,6.02.08.94.48,1.74,1.16,2.47-.6-.02-.97-.29-1.12-.74-.24-.72-.49-1.46-.54-2.21-.05-.95.1-1.92.16-2.89-.77.33-1.6.69-2.35,1.01.04.24.07.44.1.63-.3-.02-.62.02-.88-.08-.11-.04-.1-.38-.14-.56-.8-.38-1.67-.75-2.49-1.2-1.19-.66-2.39-.78-3.66-.28-.31.12-.62.22-.93.33-1.27.44-2.57.8-3.93.65-1.31-.15-2.62-.31-3.93-.5-1.38-.2-2.06.13-2.76,1.47.49-.09.95-.17,1.54-.27-.62.73-1.37.87-2.07,1.09-1,.31-2.03.52-2.99.91-.81.33-1.65.73-2.27,1.32-1.55,1.46-1.82,3.35-1.36,5.35.67,2.89,2.32,5.17,4.54,7.08.2.17.41.32.62.48.03-.03.06-.06.1-.09-.36-.69-.72-1.38-1.09-2.06-.61-1.13-1.28-2.23-1.44-3.55-.12-1-.32-1.99-.46-2.99-.1-.71-.16-1.42-.24-2.13l.13-.02c.05.18.12.35.15.53.16.96.35,1.92.45,2.89.17,1.58.57,3.06,1.41,4.42.53.85.91,1.8,1.43,2.66.31.53.67,1.09,1.15,1.45,2.08,1.54,4.42,2.55,6.96,3.07.52.11,1.04.18,1.58.27-.09-.75-.45-1.48-1.28-2.38-1.25-1.34-1.62-2.88-1.15-4.63.53-1.96.42-3.88-.3-5.78-.44-1.19-.79-2.41-1.18-3.62-.03-.1-.04-.2-.06-.3.19.25.31.51.42.79.36.94.68,1.9,1.08,2.82.9,2.07,1.08,4.18.47,6.37-.32,1.15-.27,2.27.53,3.26.37.46.76.91,1.08,1.4.26.4.5.83.65,1.28.19.55.63.93,1.21.84.49-.08.97-.25,1.46-.39.29-.08.36-.25.28-.55-.18-.68-.13-1.37.3-1.95.69-.93,1.42-1.83,2.17-2.8-1.44-3.52-1.25-7.31-.91-11.11.09,3.82.05,7.65,1.76,11.32.3-.29.67-.61.99-.97.71-.81,1.34-1.69,2.1-2.45,1.24-1.26,2.73-2.17,4.54-2.21,1.28-.03,2.56.16,3.84.29.21.02.4.21.61.32,0,.06-.01.11-.02.17-2.43-.54-4.8-.6-6.97.86.79.69,1.23,1.58.78,2.54-.02-.25-.01-.46-.04-.65-.08-.54-.29-1.02-.84-1.23-.54-.22-1.01,0-1.37.4-.87.96-1.71,1.95-2.55,2.92.93,1.11,1.17,2.18.67,2.92.12-1.03-.02-1.92-1.04-2.38-.7-.31-1.3-.04-1.89.4,1.81.72,2.79,2.43,2,3.22-.27-.65-.49-1.4-.88-2.03-.39-.65-1.26-.77-1.79-.4-.88.63-1.22,2.32-.72,3.27.54,1.03,1.29,1.88,2.21,2.53,1.41,1.01,2.99,1.57,4.76,1.33,1.25-.18,1.91-.81,1.93-2.07.01-1.33-.16-2.67-.24-4-.04-.6-.07-1.19-.11-1.79.05,0,.09,0,.14,0,.36,1.7.76,3.39.66,5.15-.1,1.8-.97,2.98-2.55,3.3-.33.07-.67.07-1.01.1,0,.06,0,.12,0,.18,2.75,1.09,5.5.44,8.1,0,0-1.07,0-2.01.01-2.94,0-.14.15-.27.23-.41.14.09.3.15.41.27.09.09.14.25.14.38.01.8,0,1.59,0,2.41,2.13-.34,4.28-.34,6.45.36-.44-.75-.86-1.43-1.24-2.13-1.05-1.93-2.03-3.89-2.27-6.12-.09-.81-.03-1.61.39-2.33.3-.52.72-.88,1.45-.84-1.19,1.35-1.29,2.85-.79,4.43.19.6.4,1.19.67,1.75,1.41,2.88,3.11,5.6,5.05,8.15.91,1.2,1.91,2.31,3.17,3.15,1.08.72,2.23,1.22,3.58.92,1.46-.33,2.89-.16,4.33.17,1.76.41,3.55.42,5.24-.28,4.16-1.72,6.84-4.85,8.33-9.03.79-2.21.43-4.32-.88-6.27-.49-.74-1.01-1.46-1.51-2.19-.09-.13-.16-.27-.24-.41.24-.04.43-.03.54.07.31.27.61.57.88.88.54.61,1.03,1.27,1.59,1.85.19.2.55.25.83.37.04-.05.08-.11.11-.16-.29-.62-.58-1.25-.88-1.87-1.46-2.94-3.29-5.59-6.09-7.42-1.44-.94-2.96-1.77-4.42-2.68-.91-.57-1.78-1.19-2.66-1.79.03-.05.05-.1.08-.14.23.11.46.21.68.34,2.44,1.47,4.91,2.91,7.32,4.44,2.88,1.84,5.08,4.27,6.14,7.59.11.35.32.67.48,1.01.06,0,.12.01.18.02.17-.29.46-.57.47-.86.04-1.27.9-1.96,1.77-2.62.68-.51,1.04-1.14,1.1-1.97.09-1.26-.19-2.46-.51-3.65-.21-.79-.42-1.59-.63-2.38.04-.01.08-.02.12-.03.87,2.15,1.56,4.35,1.57,6.82.22-.17.32-.24.41-.32,1.06-.88,2.1-1.77,3.44-2.23.62-.22.95-.76.98-1.37.04-1.13.1-2.27-.06-3.38-.24-1.61-.68-3.19-1.01-4.79-.14-.69-.21-1.4-.32-2.1.07-.01.14-.02.21-.03.8,1.74.71,3.68,1.18,5.49.48,1.83.64,3.71.12,5.66,1.71-.8,3.47-.39,5.17-.59-1.39-3.76-.69-10.76,2-13.3-.41.97-.95,2.06-1.32,3.21-1.04,3.13-1.22,6.3-.29,9.5.13.43.26.65.77.55.72-.14,1.45-.17,2.17-.29,1.52-.26,3.08-.43,4.46-1.21,3.24-1.83,5.4-4.59,6.87-7.95.15-.34.21-.71.31-1.06h0ZM32.21,47.37c0,.09-.01.18-.02.27-.37,0-.75.02-1.12,0-1.65-.12-3.28-.12-4.9.41-2.16.7-4.22,1.53-5.81,3.24-1.05,1.13-1.69,2.43-1.53,4.02.18,1.81.56,3.57,1.24,5.26.27.68.62,1.33.94,1.99l.22-.03c.24-1.38.48-2.76.71-4.14.28-1.75.41-3.53,1.41-5.08.49-.76.94-1.54,1.44-2.29.14-.21.4-.35.61-.52.04.04.07.08.11.12-.14.19-.28.39-.43.58-1.16,1.49-2.07,3.08-2.31,5-.26,2.05-.56,4.1-.91,6.14-.32,1.86.28,3.42,1.39,4.86.06.08.16.14.28.24.01-.16.02-.25.02-.33.1-1.12.34-2.2.91-3.18.15-.26.39-.46.59-.69.06.04.12.08.18.13-.1.24-.19.5-.31.73-.49.9-.61,1.87-.67,2.87-.03.5.2.85.67,1,.58.18,1.17.35,1.76.47,1.8.35,3.65.46,5.42,1.25-.04-.14-.08-.21-.08-.29-.09-.96-.26-1.93-.23-2.89.03-.84.77-1.33,1.57-1.21.4.06.67.27.79.76-.31-.13-.52-.24-.75-.3-.53-.15-.94.02-1.17.51-.52,1.14-.4,2.24.31,3.27.31.45.76.7,1.31.56.52-.14.84-.54.94-1.08.06-.32.11-.64.17-1,.48.75,0,1.82-1.12,2.58,2.53,1.31,5,2.71,7.89,3.29-.07-.12-.09-.17-.13-.2-1.19-1.08-1.63-2.45-1.27-3.98.29-1.23.72-2.43,1.2-3.6.62-1.52,1.11-3.06,1.33-4.7.21-1.57.42-3.14.73-4.69.31-1.53,1.04-2.87,2.28-3.88.32-.26.67-.47,1.03-.73-.4-.18-.75-.33-1.09-.5-1.36-.69-2.38-1.75-3.19-3.01-.64-1-1.55-1.48-2.71-1.5-1.16-.03-2.33,0-3.49,0,.74-.21,1.48-.35,2.24-.4.77-.05,1.54-.01,2.45-.01-.68-.7-1.25-1.36-1.9-1.93-2.55-2.21-5.83-2.39-8.51-.49-.98.69-1.71,1.57-1.95,2.8,1.17.11,2.31.21,3.45.31Z" fill="#000" stroke-width="0"/><path d="M87.43,102.83c.98.46,1.3.99,1.19,2.01-.23,2.1-1.26,3.69-3.1,4.73-1,.57-2.08.77-3.22.58-1.42-.24-2.35-1.03-2.78-2.42-.83-2.66.2-6.22,2.38-7.96,1.3-1.04,2.77-1.37,4.34-.68,1.16.51,1.73,1.84,1.32,2.93-.38-1.84-1.39-2.61-3.2-2.41-.91.1-1.68.54-2.34,1.17-1.67,1.6-2.35,4.62-1.51,6.77.65,1.68,2.26,2.41,3.95,1.78,1.71-.65,2.87-1.87,3.59-3.51.35-.8.38-1.62-.24-2.36-.14-.16-.22-.37-.38-.64Z" fill="#000" stroke-width="0"/><path d="M79.87,112.39c-.19.02-.39.08-.58.05-1.69-.2-2.86-1.12-3.69-2.58-.65-1.15-.96-2.39-1.05-3.68-.13-2.06.12-4.09.52-6.11.03-.14.11-.27.16-.41.05,0,.1,0,.15,0,.04.29.12.59.1.87-.08,1.58-.16,3.16-.28,4.74-.13,1.7.35,3.26,1.19,4.68.55.93,1.67,1.26,2.6,1.76.3.16.6.32.9.47-.01.07-.02.13-.03.2Z" fill="#000" stroke-width="0"/><path d="M114.67,84.43c-.58-.33-.85-.89-.7-1.56.33-1.44,1.06-2.64,2.31-3.47.72-.48,1.4-.48,1.94-.08.56.42.95,1.45.71,2.1-.08.23-.36.41-.59.55-.06.03-.34-.18-.4-.33-.07-.2-.02-.45-.02-.67,0-.6-.39-.94-.98-.82-.25.05-.51.16-.7.32-1.02.85-1.68,1.89-1.55,3.29.01.14,0,.28,0,.42,0,.07-.01.14-.03.25Z" fill="#000" stroke-width="0"/><path d="M75.1,86.29c.22-.07.43-.17.65-.2,1.68-.23,3.2.33,4.67,1.01.89.41,1.71.98,2.55,1.5.47.29.92.61,1.38.91-.02.04-.04.08-.06.13-.48-.23-.97-.45-1.45-.68-1.45-.7-2.87-1.46-4.35-2.11-1.06-.46-2.2-.58-3.37-.43,0-.05-.02-.09-.02-.14Z" fill="#000" stroke-width="0"/><path d="M95.25,92.65c-.04-2.1-.54-4.1-1.19-6.12.13.13.28.25.37.4.89,1.47,1.39,3.07,1.33,4.8-.01.34-.23.67-.36,1-.05-.03-.1-.05-.15-.08Z" fill="#000" stroke-width="0"/><path d="M54.33,101.87c.81.7.94,2.35.26,3.06-.15.15-.44.17-.66.25-.07-.21-.24-.44-.2-.63.17-.88.39-1.76.61-2.69Z" fill="#000" stroke-width="0"/><path d="M114.66,79.56c-.11.26-.13.43-.22.52-1.07,1.1-1.02,2.51-1.1,3.89-.02.32-.12.63-.21,1.07-.87-1.37.08-4.72,1.53-5.49Z" fill="#000" stroke-width="0"/><path d="M57.09,45.82c-.24,1.64-.48,3.29-.72,5-.74-.66-.12-4.4.72-5Z" fill="#000" stroke-width="0"/><path d="M54.6,82.26c.08,1,.16,1.98.24,2.96-.49.08-.81-.13-.97-.7-.23-.85-.02-2.08.72-2.26Z" fill="#000" stroke-width="0"/><path d="M71.71,56.85c-.09.85-.15,1.7-.28,2.55-.02.14-.32.37-.43.34-.17-.04-.39-.27-.41-.44-.12-.97.33-1.75.84-2.5.09.02.19.03.28.05Z" fill="#000" stroke-width="0"/><path d="M123.41,77.93c-.04-.62-.09-1.24-.11-1.87-.03-1.51-.79-2.63-1.89-3.57-.18-.15-.36-.3-.51-.49,1.02.29,1.73.97,2.23,1.87.71,1.29.71,2.66.29,4.05,0,0,0,0,0,0Z" fill="#000" stroke-width="0"/><path d="M64.65,94.74c-.09.2-.18.4-.28.59-.37.68-.75,1.36-1.14,2.03-.05.08-.2.16-.29.14-.08-.02-.2-.17-.19-.25.05-.41.04-.87.23-1.21.34-.62.9-1.07,1.54-1.4.04.04.08.07.12.11Z" fill="#000" stroke-width="0"/><path d="M44.84,71.44c.06.15.1.27.14.39.04.11.08.22.18.48.25-.23.58-.4.6-.6.02-.18-.3-.4-.46-.59.45-.16.92-.03,1.09.3.17.35-.08.9-.56,1.22-.42.28-.89.28-1.14,0-.27-.31-.23-.76.15-1.21Z" fill="#000" stroke-width="0"/><path d="M80.86,74.69c-.67-.53-.64-2.31.05-3.21.21,1.12.34,2.12-.05,3.21Z" fill="#000" stroke-width="0"/><path d="M29.19,82.57c.34-.06.67-.12.99-.17.02.06.05.13.07.19-.19.11-.4.34-.57.32-.62-.08-.95.41-1.42.62-.17.08-.39.08-.58.11.03-.19.02-.39.09-.56.07-.17.19-.33.31-.47.41-.49.7-.48,1.11-.04Z" fill="#000" stroke-width="0"/><path d="M65.48,103.9c-.88-.71-1.08-2.26-.45-3.58.15,1.15.29,2.31.45,3.58Z" fill="#000" stroke-width="0"/><path d="M58.59,60.62c-.42,0-.97-.45-.87-.78.07-.23.38-.48.63-.55.38-.1.87.35.86.72-.01.38-.21.61-.62.61Z" fill="#000" stroke-width="0"/><path d="M78.42,68.53c-.45-.86.42-2.84,1.29-2.98-.43,1-.84,1.95-1.29,2.98Z" fill="#000" stroke-width="0"/><path d="M52.98,55.7c.2.21.52.39.57.63.06.3-.09.64-.19.95,0,.02-.35.01-.45-.08-.18-.15-.31-.37-.42-.58-.1-.18-.24-.45-.17-.59.08-.15.36-.2.67-.34Z" fill="#000" stroke-width="0"/><path d="M78.41,65.39c-.1.71-.18,1.36-.29,2-.02.11-.15.26-.25.27-.11.02-.27-.08-.34-.18-.39-.56.14-1.88.88-2.1Z" fill="#000" stroke-width="0"/><path d="M64.71,96.72c-.27,1.03-.55,2.06-.83,3.13-.62-.81-.08-2.62.83-3.13Z" fill="#000" stroke-width="0"/><path d="M63.13,60.43c-.1.08-.27.32-.48.37-.33.07-.9-.54-.82-.91.04-.19.28-.44.48-.48.36-.08.82.43.83,1.02Z" fill="#000" stroke-width="0"/><path d="M93.68,93.63c-.8-.79-.87-1.92-1.34-2.87.71.83,1.53,1.61,1.34,2.87Z" fill="#000" stroke-width="0"/><path d="M67.04,56.37c.43.64.33,1.79-.07,2.13-.09.08-.28.13-.36.09-.11-.06-.25-.26-.23-.35.18-.59.41-1.17.66-1.86Z" fill="#000" stroke-width="0"/><path d="M47.3,71.09c.55.69.24,2.07-.44,2.31-.12.04-.31,0-.41-.08-.07-.05-.09-.28-.04-.36.21-.29.53-.52.68-.83.14-.28.13-.65.2-1.05Z" fill="#000" stroke-width="0"/><path d="M100.77,89.06c.46-1.43.4-2.88.18-4.46.74,1.21.63,3.72-.18,4.46Z" fill="#000" stroke-width="0"/><path d="M55.38,84.17c.11-.08.3-.32.52-.36.45-.08.6.25.6.64,0,.32-.06.65-.45.7-.32.05-.66-.38-.67-.98Z" fill="#000" stroke-width="0"/><path d="M99.77,89.16v-2.59l.16-.08c.08.14.21.27.24.42.24,1.06.1,1.89-.4,2.24Z" fill="#000" stroke-width="0"/><path d="M64.04,62.18c-.06.34-.2.63-.62.62-.38-.01-.55-.26-.53-.62.02-.36.22-.6.58-.61.37,0,.56.23.56.61Z" fill="#000" stroke-width="0"/><path d="M42.72,70.91c.14.66.28,1.28.42,1.92-.54.07-.74-.18-.85-.54-.18-.62-.08-1.02.43-1.38Z" fill="#000" stroke-width="0"/><path d="M61.7,62.91c-.47-.08-.89-.43-.79-.72.07-.21.33-.44.55-.5.32-.09.72.3.65.62-.05.22-.26.4-.41.59Z" fill="#000" stroke-width="0"/><path d="M57.96,51.81c.05.5.13,1.01.15,1.51,0,.12-.2.25-.31.38-.14-.13-.4-.26-.39-.38.04-.51.16-1.02.25-1.52.1,0,.2.01.31.02Z" fill="#000" stroke-width="0"/><path d="M45.15,80.67c-.6,0-1-.29-.91-.64.05-.19.31-.45.48-.45.41-.02.67.28.67.69,0,.16-.19.31-.24.4Z" fill="#000" stroke-width="0"/><path d="M59.73,103.8c-.48-.07-.68-.27-.68-.61,0-.34.17-.64.54-.63.39,0,.59.33.55.67-.02.2-.27.38-.41.57Z" fill="#000" stroke-width="0"/><path d="M50.83,55.69c-.54,0-.9-.34-.84-.69.02-.11.3-.29.37-.26.34.16.64.39.95.59-.2.15-.4.3-.48.36Z" fill="#000" stroke-width="0"/><path d="M115.45,61.26c.14.12.29.25.45.39-.14.13-.27.29-.43.4-.13.08-.3.13-.45.11-.16-.02-.32-.12-.47-.18.08-.17.11-.4.24-.5.15-.12.38-.13.67-.22Z" fill="#000" stroke-width="0"/><path d="M62.57,55.85c-.41-.45-.41-1.64.09-2.35.04.87.08,1.6.11,2.33-.07,0-.13.01-.2.02Z" fill="#000" stroke-width="0"/><path d="M66.3,56.76c-.04.39-.05.78-.13,1.16-.02.1-.28.27-.32.25-.14-.1-.34-.29-.31-.39.09-.37.27-.73.41-1.09.11.02.23.05.34.07Z" fill="#000" stroke-width="0"/><path d="M104.83,84.4c.52.95.38,2.19-.34,2.64.11-.41.28-.82.33-1.24.06-.46.01-.93.01-1.4Z" fill="#000" stroke-width="0"/><path d="M102.07,41.66h-2.03c1.2-.75,1.6-.76,2.03,0Z" fill="#000" stroke-width="0"/><path d="M58.05,75.24c.21.19.39.27.43.4.07.22-.51.57-.91.53-.12-.01-.23-.19-.35-.29.26-.2.52-.41.82-.64Z" fill="#000" stroke-width="0"/><path d="M93.95,92.49c-.16-.75-.32-1.5-.47-2.25.05-.01.1-.02.15-.03.31.72.71,1.41.56,2.23-.08.02-.16.03-.24.05Z" fill="#000" stroke-width="0"/><path d="M56.17,77.3c-.17-.19-.3-.28-.33-.38-.08-.35.51-.93.85-.86.09.02.23.16.22.16-.22.34-.46.67-.75,1.08Z" fill="#000" stroke-width="0"/><path d="M90.74,43.79c-.33.48-.61.89-.94,1.36-.36-.71.08-1.32.94-1.36Z" fill="#000" stroke-width="0"/><path d="M48.39,81.83c-.32.21-.53.44-.68.41-.19-.05-.42-.29-.45-.48-.02-.13.28-.44.42-.43.2.02.38.25.7.5Z" fill="#000" stroke-width="0"/><path d="M106.27,63.13c.07-.47.36-.74.77-.8.16-.02.36.2.55.31-.14.12-.27.28-.43.34-.27.09-.57.1-.89.15Z" fill="#000" stroke-width="0"/><path d="M105.12,86.96c.21-.65.39-1.22.58-1.8.4.74.17,1.6-.58,1.8Z" fill="#000" stroke-width="0"/><path d="M70.39,36.46c-.58.07-1.15.13-1.74.2.24-.54.83-.66,1.72-.36,0,.05.01.11.02.16Z" fill="#000" stroke-width="0"/><path d="M57.15,50.79c.04.4.13.81-.39.9-.11.02-.4-.24-.38-.33.07-.38.31-.63.77-.57Z" fill="#000" stroke-width="0"/><path d="M69.12,109.81c-.26-.37-.52-.73-.82-1.17.72-.04,1.09.45.98,1.07-.05.03-.11.07-.16.1Z" fill="#000" stroke-width="0"/><path d="M77.26,64.85c.38.24.56.52.34.89-.05.08-.43.1-.5.02-.26-.3-.11-.6.15-.91Z" fill="#000" stroke-width="0"/><path d="M53.85,47.95c-.49-.37-.47-.79,0-1.54v1.54Z" fill="#000" stroke-width="0"/><path d="M103.68,43.81c-.24-.17-.43-.29-.62-.42.18-.1.37-.3.54-.28.19.02.35.23.53.35-.13.1-.25.2-.45.35Z" fill="#000" stroke-width="0"/><path d="M66.93,105.52c.5.19.67.63.54,1.36-.42-.38-.62-.78-.54-1.36Z" fill="#000" stroke-width="0"/><path d="M77.74,39.98c.65-.56,1.27-.57,1.73,0h-1.73Z" fill="#000" stroke-width="0"/><path d="M89.56,46.83c-.12-.31-.26-.62-.35-.94-.02-.07.1-.23.17-.25.08-.02.27.06.28.13.07.32.1.65.14.98-.08.03-.17.06-.25.08Z" fill="#000" stroke-width="0"/><path d="M82.29,43.94c-.24-.21-.41-.36-.57-.5.13-.11.29-.33.39-.3.2.05.37.23.56.36-.1.12-.21.24-.38.45Z" fill="#000" stroke-width="0"/><path d="M69.98,37.15c.41-.56.88-.64,1.43-.22-.44.07-.88.13-1.43.22Z" fill="#000" stroke-width="0"/><path d="M108.48,63.25c-.29.53-.81.18-1.2.3-.02-.07-.03-.13-.05-.2.4-.1.8-.21,1.2-.31.02.07.04.14.06.21Z" fill="#000" stroke-width="0"/><path d="M83.03,44.95c-.2-.16-.32-.26-.45-.36.16-.13.31-.31.49-.36.09-.02.24.21.37.33-.11.11-.23.22-.4.39Z" fill="#000" stroke-width="0"/><path d="M71.6,37.52c.23-.64.55-.71,1.14-.24-.41.09-.73.16-1.14.24Z" fill="#000" stroke-width="0"/><path d="M109.42,64.16c-.1.09-.16.17-.23.18-.24.03-.48.03-.72.02,0,0-.03-.22-.02-.22.26-.05.52-.09.78-.12.04,0,.08.06.19.13Z" fill="#000" stroke-width="0"/><path d="M62.58,34.42c-.46.24-.83.44-1.2.64.31-.57.68-.76,1.2-.64Z" fill="#000" stroke-width="0"/><path d="M53.07,46.21c-.04.45-.06.76-.1,1.16-.5-.4-.47-.72.1-1.16Z" fill="#000" stroke-width="0"/><path d="M63.28,34.77c-.33.11-.66.22-.99.33l-.08-.22c.32-.14.65-.27.97-.41.03.1.06.2.1.29Z" fill="#000" stroke-width="0"/><path d="M112.91,61.62c.22-.09.44-.2.66-.26.03,0,.11.17.17.27-.24.09-.49.17-.73.26-.03-.09-.07-.17-.1-.26Z" fill="#000" stroke-width="0"/><path d="M87.45,61.33c-.3.16-.61.33-1.04.56.28-.48.46-.82.94-.74.03.06.07.12.1.18Z" fill="#000" stroke-width="0"/><path d="M80.69,41.17c-.24.24-.48.48-.84.29-.02-.06-.04-.13-.06-.19.29-.09.57-.18.86-.27.02.06.03.11.05.17Z" fill="#000" stroke-width="0"/><path d="M101.62,42.46c.59-.43.76-.43,1.04,0h-1.04Z" fill="#000" stroke-width="0"/><path d="M30.45,68.03c-.66-1.08-.18-2.27.8-3.13.94-.82,2.23-1.31,2.8-.91-2.21.45-3.69,1.53-3.6,4.04Z" fill="#000" stroke-width="0"/><path d="M41.67,49.93c-.29.27-.47.56-.71.61-.15.03-.38-.28-.57-.45-.02-.02-.03-.07-.03-.1.04-.33.06-.66.15-.97.02-.07.38-.14.44-.07.25.26.43.58.72.98Z" fill="#000" stroke-width="0"/><path d="M38.71,69.19c0,.46,0,.92,0,1.38,0,.26.03.52,0,.78-.02.16-.15.31-.22.46-.14-.14-.4-.27-.41-.42-.03-.39.02-.79.09-1.18.06-.36.2-.71.3-1.06.08.02.17.03.25.05Z" fill="#000" stroke-width="0"/><path d="M31.44,49.73c0-.26.26-.52.67-.53.41-.01.58.26.57.59,0,.38-.26.65-.66.67-.35.01-.59-.17-.58-.72Z" fill="#000" stroke-width="0"/><path d="M37.11,46.33c-.14-.21-.37-.42-.4-.64-.04-.31.09-.66.5-.64.4.02.66.32.61.7-.02.21-.31.4-.48.59-.08,0-.16,0-.24,0Z" fill="#000" stroke-width="0"/><path d="M29.81,49.95c-.49-.08-.65-.3-.63-.61.02-.31.09-.65.5-.68.38-.02.65.23.61.56-.03.26-.31.49-.48.73Z" fill="#000" stroke-width="0"/><path d="M39.24,50.76c.31.02.46.23.43.56-.03.37-.28.61-.62.54-.17-.03-.4-.32-.42-.52-.03-.34.18-.59.61-.58Z" fill="#000" stroke-width="0"/><path d="M41.66,53.25c-.1.06-.25.2-.41.23-.32.06-.75-.39-.74-.78,0-.1.12-.25.21-.27.32-.07.91.39.94.82Z" fill="#000" stroke-width="0"/><path d="M36.62,44.49c-.3.24-.49.46-.72.53-.09.03-.4-.28-.41-.45-.02-.35.25-.59.6-.56.15.01.28.24.53.48Z" fill="#000" stroke-width="0"/><path d="M37.98,70.9c-.22.12-.35.25-.48.25-.11,0-.21-.16-.31-.25.13-.11.24-.26.39-.31.07-.02.2.15.4.31Z" fill="#000" stroke-width="0"/></svg>