<?xml version="1.0" encoding="UTF-8"?><svg id="Layer_1" xmlns="http://www.w3.org/2000/svg" viewBox="0 0 144.57 144.57"><path d="M113.78,22.67c1,.74,1.96,1.53,3,2.21.52.34,1.17.48,1.76.7,1.47.54,2.76,1.34,3.8,2.54.94,1.09,1.32,2.32.85,3.69-.79,2.3-.39,4.35.91,6.38,1.64,2.56,1.47,4.72-.48,7.04-1.06,1.26-1.77,2.6-2.01,4.23-.23,1.56-.89,2.93-1.96,4.11-.92,1.01-1.56,2.18-2.05,3.46-.29.76-.67,1.5-1.13,2.16-.88,1.26-2.06,2.09-3.7,1.99-.81-.05-1.53.22-2.09.8-.9.92-1.94,1.24-3.22.94-.93-.22-1.86-.13-2.74.33-1.51.79-3.1.76-4.62.16-1.42-.57-2.83-1.22-4.11-2.04-2-1.28-2.84-3.2-2.56-5.58.04-.33.06-.65.11-1.09-.21.1-.33.13-.4.2-2.15,2.21-4.24,4.48-5.97,7.05-.3.44-.44.84-.37,1.4.29,2.38-.81,4.12-2.88,5.09-1.35.63-2.1,1.6-2.77,2.83-2.48,4.59-4.42,9.41-6.24,14.28-.61,1.62-1.12,3.28-1.66,4.92-.18.55-.16,1.05.19,1.57,1.48,2.16,2.91,4.36,4.42,6.5.57.81.76,1.6.31,2.48-.13.24-.43.46-.69.54-.12.04-.38-.29-.52-.48-.57-.78-1.13-1.58-1.69-2.37-.06.03-.12.06-.18.09.1.53.19,1.06.3,1.59.94,4.44,1.57,8.92,1.57,13.47,0,1.87-.16,3.75-.35,5.62-.04.38-.47.88-.84,1.04-.63.27-1.36.32-2.12.47.67,2.16,1.52,4.37,3.33,6.29-.48.14-.75.29-.99.27-1.2-.11-2.3-.42-3.04-1.52-.95-1.42-1.33-3.04-1.7-4.65-1.01-4.39-1.28-8.86-1.34-13.35-.03-2.48-.02-4.96-.07-7.44,0-.31-.23-.61-.34-.92-.06-.17-.12-.36-.09-.52.59-3.03.3-6.07-.07-9.07-.15-1.25-.84-2.45-1.38-3.62-1.58-3.4-3.22-6.78-4.83-10.17-.06-.12-.15-.24-.33-.51-.77,1.36-1.46,2.61-2.18,3.85-.78,1.35-1.5,2.75-2.4,4.02-1.96,2.78-4.77,3.77-8.08,3.47-1.57-.14-3.08-.53-4.44-1.38-.9-.56-1.61-1.28-2.06-2.26-.09-.19-.35-.41-.56-.43-1.08-.12-1.81-.73-2.41-1.56-1.32-1.84-1.71-3.93-1.71-6.15,0-1.41-.13-2.83-.2-4.24-.02-.44-.24-.62-.7-.58-1.06.09-2.06-.15-2.97-.7-1.12-.68-2.34-.84-3.61-.76-1.47.09-2.9-.08-4.15-.92-.61-.41-1.13-.96-1.68-1.46-.74-.67-1.48-1.35-2.21-2.03-.11-.1-.17-.24-.15-.5.32.18.67.32.95.55.81.67,1.56,1.41,2.39,2.04.69.53,1.51.89,2.19,1.43.55.44,1.09.16,1.63.2.37.02.74,0,1.11.17h-1.62c0,.05,0,.1,0,.16.67,0,1.34.02,2.01,0,1.21-.05,2.33.22,3.38.83.39.23.83.4,1.27.5.19.04.43-.15.65-.23,0,0-.02.02-.02.02.38.05.76.09,1.13.14.08-.86-.08-1.26-.51-1.14.49-3.15.98-6.27,1.5-9.53-.48.26-.81.43-1.13.61.4-.69,1.34-.88,1.43-1.9-.97.68-1.88,1.31-2.77,1.96-.14.1-.23.32-.26.5-.11.82-.6,1.38-1.16,1.94-.73.72-1.41,1.49-2.14,2.27.42-1.83,2.59-2.45,3.07-4.31-2.36.99-4.6,1.93-6.79,2.85.12-.43.44-.76,1.34-1.2.6-.3,1.24-.53,1.86-.78.62-.25,1.24-.49,1.85-.74v-.27c-1.87-.24-3.73-.48-5.6-.73.24-.06.54-.22.84-.21,1.01.04,2.01.13,3.02.21.95.07,1.91.23,2.86.18.53-.03,1.03-.41,1.51-.79-.15-.04-.3-.07-.45-.11.56-.39,1.11-1.08,1.68-1.1.86-.02,1.18-.64,1.73-.99.14-.09.15-.41.2-.58.63-.73,1.26-1.46,1.98-2.3-.57.11-.97.18-1.37.25-.01-.04-.02-.09-.03-.13.45-.19.91-.39,1.36-.58-2.17.27-4.31.55-6.46.79-.28.03-.59-.13-.89-.2.01-.08.02-.17.04-.25.08-.02.19-.09.24-.07,1.11.55,2.09-.27,3.16-.28,1.12,0,2.24-.27,3.36-.43.06,0,.12-.06.23-.12-.14-.15-.25-.27-.44-.47h.99c-.27-.19-.4-.29-.62-.44.24-.06.38-.1.52-.14.02-.05.04-.11.05-.16-.94-.4-1.88-.81-2.83-1.19-.34-.14-.59-.26-.89-.58-.52-.56-1.4-.8-2.14-1.17-.05.07-.09.14-.14.22.2.18.4.37.49.45-1.16-.46-2.44-.96-3.71-1.47,0-.02.02-.05.02-.07.81.19,1.62.37,2.43.56.02-.04.03-.08.05-.12-1.19-.58-2.37-1.18-3.57-1.74-2.14-1-4.29-1.96-6.42-2.96-.96-.45-1.81-.42-2.7.23-.61.45-1.3.83-2.02,1.07-.49.16-1.08.03-1.63.03l-.06-.39c1.97.6,3.04-.87,4.48-1.73-1.01-.47-1.95-.9-2.89-1.34.03-.08.07-.16.1-.23,2.83,1.16,5.65,2.33,8.48,3.49.03-.05.06-.1.1-.14l-5.64-3.84s.03-.07.05-.11c.81.43,1.65.82,2.43,1.31,1.18.75,2.37,1.5,3.45,2.37,2.64,2.14,5.82,3.25,8.78,4.8.83.43,1.67.84,2.59,1.18-.59-.83-1.09-1.75-1.79-2.46-.87-.87-1.34-1.96-2-2.95-2.03-3.07-4.04-6.16-6.12-9.19-.73-1.06-1.63-1.99-2.43-3.01,2.69,2.26,4.88,4.96,6.78,7.98.03-.86-1.25-3.98-2.33-5.84-1.05-1.81-2.13-3.59-3.8-4.97.08,0,.18-.02.23.02,2.9,2.37,4.75,5.46,5.93,8.97.28.84.43,1.72.64,2.59.03.12.01.26.07.35.86,1.38,1.72,2.76,2.58,4.14.05-.03.11-.06.16-.09-.13-.29-.26-.57-.39-.86.03-.02.06-.04.1-.06.53.9,1.08,1.8,1.59,2.72.19.34.06.88.8.74.17-.03.6.73.73,1.18.1.35.52,1.33.87,1.45.33.11.65.21.97.31-.39-2.88-2.1-5.36-3.1-8.1-1.15-3.15-1.9-6.36-1.99-9.72,0-.21,0-.43,0-.64.06-.01.12-.03.18-.04.09.35.24.69.26,1.04.16,3.28.9,6.43,2.18,9.45,1.07,2.51,2.15,5.02,3.27,7.63.19-1.56.35-3.1.58-4.63.26-1.75.51-3.52.92-5.24.49-2.08,1.03-4.16,1.73-6.18.58-1.68,1.42-3.28,2.3-4.85-1.74,3.66-3.1,7.42-3.55,11.47,1.82-2.92,3.91-5.68,4.89-9.07.11.05.22.11.34.16-.4.99-.71,2.03-1.21,2.96-.79,1.46-1.63,2.89-2.6,4.24-1.05,1.46-1.75,3-1.98,4.8-.23,1.86-.63,3.7-.95,5.55-.02.13,0,.27,0,.36,1.45-1.93,2.03-4.31,2.95-6.54.09.04.17.07.26.11-.35.9-.71,1.8-1.06,2.7.05.03.11.05.16.08.62-.9.72-2.11,1.56-2.87.06.03.12.06.18.09-.35.69-.7,1.37-1.06,2.06.04.04.07.09.11.13.19-.13.4-.23.56-.39.13-.13.23-.32.27-.51.26-1.26,1.21-2.07,2.02-2.94.46-.49,1.09-.85,1.71-1.16.85-.43,1.76-.76,2.65-1.13.1-.04.21-.05.32-.07.03.06.06.13.09.19-.37.21-.72.46-1.12.62-.51.2-1.06.3-1.59.48-1.65.56-2.49,1.84-3.11,3.38h3.79s.04.07.07.1c-.47.14-.94.39-1.41.41-.69.02-1.38-.1-2.07-.21-.51-.08-.69.15-.75.82,1.95-.35,3.86-.56,5.68-1.08.99-.28,1.92-.99,2.7-1.7.32-.29.18-1.09.22-1.67,0-.08-.18-.19-.17-.27.34-2-.35-3.7-1.99-4.7-1.84-1.11-2.36-2.7-2.57-4.61-.18-1.66-.83-3.11-2.15-4.2-1.15-.96-2.51-1.24-3.94-.97-1.4.27-2.58-.12-3.78-.81-3.5-2.01-7.13-1.98-10.49.11-2.02,1.26-3.98,2.49-6.21,3.4-2.42.99-3.82,3.15-5.02,5.39-.51.95-1.07,1.88-1.56,2.84-.2.39-.29.84-.42,1.26-.07-.02-.15-.04-.22-.06.02-.13.03-.25.05-.39-.05.01-.1.01-.12.04-1.26,1.27-1.44,2.97-1.65,4.59-.14,1.13.1,2.3.07,3.44-.03.83.03,1.84-.41,2.44-.79,1.09-.35,2.01-.04,2.98.87,2.73,2.04,5.37,2.49,8.24.22,1.42.94,2.65,2.04,3.63.09.08.16.18.23.28.03.05.03.13.07.28-1.3-.57-1.95-1.64-2.32-2.83-.46-1.46-.7-2.99-1.09-4.48-.21-.78-.54-1.53-.83-2.29-.41-1.07-.88-2.13-1.23-3.22-.32-.99-.24-2.02.17-2.97.46-1.05.47-2.13.48-3.25,0-1.44.13-2.88.35-4.3.18-1.19.88-2.16,1.63-3.1.62-.78,1.18-1.64,1.63-2.53,1.14-2.26,2.4-4.42,4.63-5.78.87-.53,1.89-.82,2.8-1.28.91-.46,1.95-.84,2.65-1.53,2.97-2.9,9.02-3.66,12.86-1.17.96.62,1.96.83,3.1.63,4.02-.7,6.21,2.39,6.66,5.08.13.78.28,1.57.41,2.35.12.73.47,1.32,1.12,1.68,2.7,1.48,3.42,3.93,3.39,6.77,0,.19,0,.37,0,.66,2.53-.62,4.73.25,6.93,1.43.31-1.49.48-2.93.92-4.29.92-2.85-.3-5.21-1.47-7.54-.85.44-1.68.87-2.51,1.29-.09-.08-.17-.15-.26-.23.16-.49.32-.98.51-1.53-.22-.2-.52-.47-.94-.85.54-.35,1-.65,1.53-1,.05-.43.11-.97.18-1.5.08-.04.17-.08.25-.12.39.47.78.95,1.21,1.48.22-.34.46-.71.63-.96-.32-.64-.59-1.18-.85-1.71l.18-.09c.12.28.21.58.38.83.12.18.35.36.55.38.12.01.32-.25.41-.43.38-.83.57-1.69-.05-2.72,1.08.41,1.9.23,2.67-.41-.51-.78-1.14-1.2-2.2-.69.15-1.04.63-1.96-.1-2.91-.35.62-.67,1.21-1.01,1.81.27.2.6.31.67.51.13.42.31.97.14,1.31-.28.56-.9.42-1.41.2-.23-.1-.51-.39-.66-.33-.31.13-.6.4-.8.68-.22.3-.37.67-.47,1.04-.05.17.01.49.13.57.13.09.45.04.59-.07.5-.39.96-.84,1.43-1.26.08.51-.05.85-.63,1.13-.49.24-1.06.33-1.59.49.03-.58,0-1.16.1-1.73.05-.31.32-.58.42-.77-.34-.65-.69-1.23-.94-1.86-.19-.47.03-.79.57-.65.69.17,1.36.42,2.01.63.46-.7.95-1.47,1.58-2.44.35.7.59,1.18.82,1.65.36-.27.76-.57,1.18-.89-.24-1.07-.48-2.15-.76-3.38.14-.22.7-.46.5-1.18-.06-.2.44-.55.68-.83,0,.29.02.57.03.86.2-.04.4-.08.68-.13-.21-.32-.34-.51-.47-.71.18.06.43.07.52.19.57.83.93.19,1.23-.21.21-.28.26-.67.42-1.09-.97.07-1.63.47-2.15,1.11-.09,0-.17-.01-.26-.02-.53-.98-.84-1.27-1.83-1.64.28.59.45,1.04.69,1.45.4.69.36.64-.34.88-.61.21-1.14.66-1.7,1.01.03.08.05.16.08.24.35.17.7.34,1.05.5-.02.04-.03.09-.05.13-.53-.17-1.06-.34-1.79-.58.85-.77,1.55-1.42,2.3-2.09-.13-.43-.32-.97-.47-1.51-.12-.44.08-.63.53-.6.98.07,1.53.69,1.89,1.47.75-.26,1.45-.51,2.25-.78.05.37.07.57.09.76.37.12.74.24,1.15.37.3-.28.6-1.05,1.07-.15.35-.15.65-.29.86-.38.31.48.75.88.79,1.31.09.9.57.72,1.14.57.75,1.15.88,2.36.29,3.6,1.27.96,1.59,1.43,1.77,2.66-.91.21-1.78.16-2.28.05-.56.5-1.13.99-1.69,1.49-.08-.07-.16-.14-.23-.21.63-.09,1.26-.19,1.88-.28.05.07.11.15.16.22-.29.61-.58,1.21-.92,1.93.03.07.14.27.25.51-.46.25-.89.49-1.33.73.21.43.46.6.86.32.04-.03.08-.05.13-.07.89-.43,1.55-.99,2.13-1.91.86-1.36,1.93-2.74,3.65-3.2.57-.15,1.19-.16,1.79-.18.88-.03,1.63-.27,2.28-.91,3.78-3.78,8.25-4.74,13.27-3.06,2.05.69,4.05.88,6.17.4,3.29-.74,5.81.68,7.92,3.05.23.26.36.62.53.93-.34-.25-.74-.44-1.01-.74-2.14-2.42-4.73-3.47-7.95-2.68-1.83.45-3.61.2-5.4-.38-1.25-.4-2.56-.73-3.87-.82-3.5-.25-6.54.89-9.03,3.38-.67.67-1.38,1.21-2.34,1.3-.52.05-1.05,0-1.58.04-1.24.11-2.08.86-2.88,1.75-.61.69-.03,1.27-.02,1.89,0,.04.05.08.08.11.03-.06.06-.13.09-.19.91.44,1.83.88,2.87,1.38-.78.52-1.36.92-1.75,1.17.11.79.26,1.43.27,2.07,0,.51-.39.69-.79.38-.51-.39-.96-.87-1.36-1.25-.62.46-1.3.96-1.98,1.46-.08-.04-.16-.09-.24-.13.09-.58.18-1.17.27-1.79-.35.1-.66.19-.99.29,1.18,1.27-.72,1.22-.74,2.01-.6-.69-.76-.7-1.49-.03.61.39,1.2.77,1.82,1.17,0,.14-.02.37-.04.6.75-1.2,1.68-1.78,2.65-1.53-.12.72-.25,1.45-.38,2.25.18-.24.31-.42.4-.54.34.2.61.4.91.52.88.36,1.77.71,2.67,1.04,2.28.83,4.35,2.05,6.34,3.4,1.1.74,2.17,1.54,3.25,2.32l.09-.08c-.49-.5-.97-.99-1.46-1.49.04-.03.07-.07.11-.1.34.28.69.56,1.08.88-.02-.2-.02-.31-.03-.42.04-.03.07-.05.11-.08.44.59.88,1.17,1.41,1.87-.3-.02-.41-.03-.62-.05,1.05,1.43,2.03,2.77,3.05,4.17.11-.18.13-.21.13-.22-.05-.16-.1-.32-.14-.48-.94-3.73-2.79-6.91-5.5-9.66-1.55-1.57-2.88-3.37-4.18-5.15-.89-1.22-1.57-2.59-2.35-3.89.06-.04.12-.07.18-.11.16.19.32.37.42.49.5-.32.94-.6,1.38-.89.04.06.07.11.11.17-1.52,1.27-1.33,1.28-.85,1.63.2-.15.41-.3.61-.44l.12.13c-.16.3-.32.59-.43.8.73,1.09,1.41,2.1,2.08,3.12.05-.03.1-.06.14-.1l-1.31-3.27c1.19,2.8,2.64,5.38,4.84,7.53,1.09,1.07,2.08,2.25,3.12,3.38.02-.01.04-.02.06-.04-.36-.64-.71-1.28-1.07-1.92.07-.03.14-.06.21-.1,1.4,2.52,2.26,5.27,3.35,7.95-.07-.55-.13-1.11-.2-1.66.03,0,.07-.02.1-.03.16.49.32.97.47,1.46.07,0,.14-.01.21-.02.15-.83.47-1.67.4-2.48-.11-1.38-.42-2.75-.74-4.1-.55-2.33-.96-4.63.03-6.98.28-.67.25-1.48.36-2.23.07,0,.15.02.22.03-.11.83-.16,1.68-.36,2.49-.32,1.29-.7,2.57-.41,3.91.45,2.11.94,4.22,1.43,6.33.02.09.23.13.35.19v-.02c-.19.88-.37,1.77-.55,2.65.38-.38.66-.82.96-1.24,1.86-2.55,3.3-5.28,3.97-8.41.47-2.21,1.55-4.18,2.81-6.03.24.16.45.31.53.36-.6.87-1.33,1.67-1.76,2.6-.58,1.23-1.06,2.53-1.34,3.86-.55,2.59-1.25,5.09-2.96,7.19-.13.16-.21.35-.43.7,1.05-.92,1.94-1.7,2.83-2.48,0,.05-.01.1,0,.13.02.02.1.03.12,0,1.4-.96,2.8-1.92,4.2-2.88-.04-.06-.08-.12-.12-.18-.64.4-1.28.8-1.92,1.2.21-.19.39-.41.62-.57,2.96-2.11,5.91-4.22,8.89-6.3.9-.63,1.83-1.24,2.81-1.74.67-.34,1.44-.47,2.16-.7.03.09.07.17.1.26-1.48.55-2.89,1.22-4.05,2.27,1.55.86,3.1,1.1,4.72.29-.08.13-.16.22-.26.28-1.22.73-2.45.63-3.75.18-.5-.17-1.25-.28-1.62-.03-2.41,1.62-4.76,3.35-7.11,5.05-1.19.86-2.38,1.72-3.52,2.65-1.51,1.23-2.98,2.5-4.43,3.8-.32.29-.48.77-.7,1.14,6.49-2.09,13.08-3.16,19.8-3.56-2.87.51-5.77.82-8.63,1.33-2.88.51-5.73,1.2-8.74,1.85.3.12.44.18.73.3-.54.11-.93.31-1.28.25-.84-.16-1.78.22-2.15.98h3.48s0,.07,0,.1c-.61.03-1.22.06-1.83.09,0,.06,0,.12,0,.18,1.06.11,2.13.25,3.2.34,1.1.09,2.21.13,3.32.22,1.08.09,2.16.18,3.23.35,1.04.16,2.12.18,3.08.69-2.75-.3-5.49-.65-8.27-.38.75.19,1.51.38,2.33.59-2.85-.31-5.61-.61-8.45-.92.26.16.44.3.65.4,1.62.74,3.25,1.45,4.85,2.22,1.82.87,3.63,1.75,5.41,2.72.62.34,1.11.92,1.66,1.4-.04.05-.08.1-.12.16-3.93-2.75-8.55-4.1-12.78-6.27.6.73,1.24,1.4,1.96,1.97,1.06.83,2.08,1.68,2.65,2.95-.08.03-.15.07-.16.05-1.6-1.59-3.2-3.19-4.91-4.89-.05.48-.03.78-.11,1.04-.42,1.32-.22,2.56.38,3.77.49.99,1,1.97,1.47,2.97.16.34.23.72.39,1.22-.67-1.2-1.2-2.28-1.85-3.27-.85-1.28-1.27-2.63-1.06-4.17.07-.52.12-1.05.16-1.58.02-.26,0-.53,0-.82-2.58,1.06-5.02,2.07-7.56,3.11,2.07-1.77,4.68-2.16,6.91-3.31-1.8.11-3.6.23-5.41.34,0-.03,0-.07-.01-.1.23-.05.45-.1.68-.15-2.54-.46-5.02-.25-7.49.34,3.73-1.56,7.67-.82,11.68-.98-.21-.14-.26-.2-.32-.21-2.64-.42-5.1-1.4-7.57-2.34-2.23-.85-4.48-1.64-6.89-1.79-1.01-.06-2.03-.01-3.04-.01.39-.25.79-.37,1.21-.42,2.54-.3,4.93.37,7.28,1.17,2.48.84,4.94,1.75,7.41,2.62.34.12.7.18,1.05.25.33.07.65.11.93.16-.81-.93-1.57-1.84-2.37-2.73-.78-.88-1.51-1.83-2.41-2.57-2.57-2.12-5.4-3.84-8.4-5.29-.64-.31-1.32-.55-1.99-.82-.33,1.06-.94,1.36-2.66,1.4-.3.53-.59,1.01-.85,1.5-.19.35-.34.71-.51,1.07-.35-.21-.7-.41-1.09-.64.03.22.06.43.1.64-.06.03-.12.06-.19.09-.15-.25-.29-.5-.44-.75-.06,0-.11,0-.17,0-.03.28-.06.55-.09.82h-.37c.06-.59.13-1.17.19-1.75.06,0,.12.01.18.02.04.25.07.5.11.75.08,0,.16.02.23.03.18-.46.35-.92.52-1.35-.68.08-1.21.2-1.73.18-.3-.01-.66-.18-.85-.4-.09-.1.13-.5.24-.75.08-.17.21-.32.36-.55-1.4.37-1.41.37-1.24,1.61.21,1.53.48,3.04.66,4.57.22,1.97.95,3.7,2.27,5.16,1.77,1.95,3.75,3.68,6.04,5.01.46.27,1.09.37,1.64.35.8-.03,1.6-.24,2.4-.37.01.07.02.14.03.21-.9.15-1.8.31-2.75.47.14.08.27.18.42.24,1.61.6,3.26,1.01,5,.9.94-.06,1.88-.06,2.82-.07.96,0,1.93.12,2.78-.5.07-.05.21,0,.37,0-.1.15-.17.23-.27.37.46-.14.81-.25,1.16-.36.02.05.05.1.07.16-.33.19-.66.38-1.13.65.61-.13,1.07-.23,1.65-.35-1.78,2.29-1.91,5.59,1.57,7.6-.01-.27-.03-.53-.04-.8l.19-.04c.08.28.15.57.25.84.05.16.11.39.23.45,2.3,1.17,4.6,2.31,7.25.97.87-.44,1.79-.5,2.75-.28,1.03.24,1.95.09,2.71-.73.47-.5.98-.96,1.48-1.43.06-.05.14-.08.39-.22-.21.33-.3.48-.42.67,2.42.18,3.85-.26,5.26-3.32.09-.2.14-.41.25-.6.62-1.08,1.12-2.26,1.9-3.21,1.25-1.5,1.9-3.18,2.27-5.07.17-.89.68-1.72,1.11-2.55.23-.44.63-.79.93-1.2,1.65-2.24,1.7-4.39.12-6.68-1.22-1.77-1.71-3.64-.95-5.73.67-1.84.18-3.36-1.31-4.57-.43-.35-.86-.71-1.35-.96-1.1-.58-2.3-.98-3.32-1.67-1.02-.68-1.86-1.62-2.79-2.44ZM67.89,29.81c.11.04.22.1.34.13.63.13,1.25.28,1.89.35.12.01.4-.29.4-.45,0-.24-.15-.49-.29-.7-.04-.05-.29,0-.42.06-.15.07-.27.23-.43.27-.49.13-.99.23-1.48.34-.18.32-.36.63-.57,1,.12.08.35.22.57.36.07-.04.14-.07.22-.11-.07-.42-.14-.84-.21-1.26ZM77.25,35.91c-.58.03-1.19-.04-1.42.7-.25.79-.06,1.63.52,2.12.2-.41.46-.79.58-1.21.16-.53.21-1.09.31-1.63.13.02.27.02.37.08.67.43,1.29.24,1.85-.2.12-.09.09-.58.08-.58-.57-.1-1.15-.27-1.7-.19-.23.03-.39.6-.58.92ZM72.15,30.77c.71.3,1.33.03,2.11-.27-.49-.54-.88-.98-1.17-1.31.25-.86.47-1.65.7-2.44-.11-.05-.22-.11-.33-.16-.49.67-.98,1.35-1.46,2.01.93.9.94,1.18.16,2.2h-1.34c.19.78.36,1.45.52,2.13.05-.02.1-.04.15-.06.22-.69.43-1.39.65-2.08ZM73.58,123.46c-.35-1.01-.75-2-1.03-3.02-.19-.68-.17-1.41-.3-2.1-.16-.9-.42-1.79-.53-2.7-.08-.66.05-1.35.03-2.02-.1-3.2-.22-6.39-.34-9.59-.2-5.32-.39-10.63-.63-15.95-.05-1.04-.31-2.07-.47-3.13-.92.32-1.12,1.03-.64,1.78.11.18.06.47.07.71,0,.19-.05.38-.03.56.11.97.23,1.93.35,2.9.03,0,.05,0,.08,0v-1.56c.06,0,.12,0,.19,0,.11,2.28.29,4.56.32,6.84.04,3.29-.07,6.58-.01,9.87.06,3.13.24,6.26.4,9.38.1,2.05.48,4.06,1.21,5.99.28.74.76,1.54.68,2.24-.09.74-.03.99.58,1.01-.06.24-.1.44-.15.63.39.04.78.09,1.27.14-.42-.8-.73-1.41-1.05-2.02.13.08.27.16.5.31-.28-.73-.53-1.36-.77-1.99-.05.02-.11.03-.16.05.15.55.3,1.11.46,1.66ZM64.46,62.27h0c.2.78.39,1.56.59,2.34.08-.02.16-.04.24-.06-.04-.31-.08-.62-.12-.97.22.3.39.55.67.93.18-.44.34-.69.39-.96.3-1.53.57-3.07.85-4.61.72-3.97,2.49-7.36,5.63-9.96.11-.09.25-.14.37-.21-1.15,1.48-2.53,2.74-3.4,4.52,2.34-.77,4.34-1.82,5.88-3.66-.31.63-.69,1.2-1.18,1.64-1.27,1.16-2.84,1.76-4.44,2.34-.31.11-.69.42-.79.72-.52,1.62-1.02,3.25-1.43,4.91-.43,1.75-.71,3.53-1.11,5.28-.12.53-.42,1.03-.71,1.7.71-.35.97-1.27,1.8-.82.02,0,.08-.05.11-.09.49-.68.97-1.35,1.46-2.03l-.03.03c.07-.06.17-.1.22-.17,2.46-3.74,5.92-6.12,10.13-7.48.13-.04.27-.02.41-.03.03.07.05.14.08.22-.31.19-.61.4-.93.55-1.21.58-2.45,1.11-3.64,1.74-.71.37-1.34.89-2.01,1.35.57-.08,1.04-.31,1.52-.52,1.76-.75,3.65-.83,5.51-1.04.72-.08,1.43-.24,2.22-.38-.63-1.17-1.18-2.22-1.74-3.26.06-.04.13-.07.19-.11.65,1.17,1.3,2.35,1.99,3.6-.44.15-.7.28-.98.32-1.19.17-2.38.33-3.57.45-3.53.35-6.44,1.82-8.6,4.68-1.07,1.42-2.12,2.86-3.69,3.82-.14.09-.19.33-.29.5.18.08.38.25.55.23.9-.12,1.81-.25,2.7-.46,1.78-.42,3.55-.9,5.32-1.35.95-.24,1.94-.37,2.83-.76,1.46-.64,2.94-1.04,4.53-1.07.17,0,.34.05.5.07-1.58.57-3.32.43-4.77,1.33.37.06.73.06,1.09.07.36,0,.72.03,1.08.06.33.03.65.09.98.14l-.02.26h-3.95c.96.8,1.95,1.38,3.15,1.46.54.04,1.02.03,1.43-.45.34-.4.86-.45,1.37-.15-.36.1-.72.2-1.13.31.13.12.23.21.38.36-1.49.49-2.92.45-4.13-.39-1.37-.95-2.73-1.02-4.23-.53-.46.15-.94.23-1.4.36-1.99.56-3.97,1.21-6.08,1.06-.07,0-.14.07-.21.1.23.17.46.24.68.22.62-.04,1.25-.1,1.87-.18,1.52-.19,3.04-.45,4.56-.57.6-.05,1.22.22,1.83.34-.01.08-.02.17-.03.25-1.33.03-2.71-.55-4.02.11.82.44,1.82.45,2.35,1.32.36-.45,1.42-.43,1.89.09.36-.29.72-.59,1.1-.89-.17-.19-.3-.32-.37-.4.29-.03.61,0,.86-.1.28-.13.5-.39.75-.59.05.06.1.11.15.17-.65.61-1.3,1.22-1.94,1.83.04.05.09.1.13.15l2.08-1.54c.08.09.15.17.23.26-.45.33-.9.66-1.36.99.06.08.13.16.19.24.55-.34,1.1-.68,1.65-1.03.07.08.13.17.2.25-.2.11-.4.23-.59.34.04.06.07.12.11.18.91-.23,1.82-.46,2.88-.73-.32-.14-.48-.2-.65-.27,2.07-.57,3.77-1.53,4.43-3.73.62-2.08,0-3.96-1-5.77,1.16,1.18,1.69,2.61,1.68,4.23-.01,1.64-.63,3.05-1.8,4.22,1.33-.76,2.15-1.86,2.24-3.38.1-1.64-.43-3.14-1.26-4.53-.8-1.34-1.64-2.65-2.4-4.01-.75-1.32-1.61-2.54-2.97-3.27-1.05-.57-1.81-1.37-2.49-2.33-1.56-2.21-3.5-3.81-6.45-3.72-.81.02-1.65-.3-2.43-.61-.96-.38-1.84-.94-2.78-1.37-1.03-.46-2.06-.93-3.14-1.25-1.7-.5-3.31-.16-4.71.93-1.46,1.14-3.09,1.73-4.94,1.77-.48.01-.96.09-1.44.12-2.11.14-3.66,1.06-4.43,3.12-.49,1.31-1.33,2.38-2.3,3.38-.84.86-1.67,1.74-2.43,2.67-1.31,1.59-2.11,3.42-2.39,5.49-.21,1.59-.56,3.17-.75,4.77-.12,1.04-.3,2.15-.06,3.14.63,2.63.84,5.27.74,7.95-.02.62.16,1.26.24,1.89.05,0,.1-.01.15-.02-.03-.49-.06-.98-.1-1.54.29,1.06.55,2.02.81,2.98-.02.11-.04.23-.06.34.28.95.88,1.93,1.75,2.04,1.36.16,1.71,1.09,2.35,1.96,1.07,1.46,2.77,1.93,4.44,2.33.45.11.95.02,1.51.02-.23-.18-.42-.29-.56-.44-.14-.15-.24-.33-.35-.48.7.37,1.4.73,2.1,1.1.02-.04.04-.09.06-.13l-1.69-1.22c.04-.06.08-.11.12-.17,1.12.88,1.48,1.03,2.18.91-.36-.27-.73-.55-1.1-.83,1.52.71,2.74.96,3.47.51-.63-.08-1.18-.14-1.79-.22-.11-.17-.28-.4-.48-.69,1.56.64,2.96.67,3.39.11-1.3.01-1.81-.18-1.92-.74,2,.98,3.2.31,4.66-2.55-.16-.05-.31-.1-.57-.18.46-.28.82-.49,1.31-.79-.39-.1-.57-.14-.89-.22,1.17-.35,1.28-.48,1.06-1.14-.32.25-.63.5-.94.74,1.41-2.15,2.8-4.26,4.26-6.46h-.87c.78-1.31,1.48-2.51,2.19-3.71-.97,1.11-1.97,2.17-2.82,3.34-.93,1.3-1.72,2.7-2.17,4.27-.25.86-.64,1.67-.97,2.5-.06-.02-.12-.05-.18-.07l.77-2.14c-.06-.04-.13-.07-.19-.11-1.38,2.49-3.64,4.03-5.93,5.53,1.58-1.53,3.36-2.9,4.73-4.59,1.4-1.73,2.39-3.79,3.56-5.71-.05-.03-.1-.06-.14-.08-.49.34-.97.69-1.46,1.03-.04-.06-.08-.12-.12-.18.19-.23.38-.45.57-.68-4.32,2.93-9.25,5.14-11.78,10.14,1.45-3.59,4.5-5.7,7.36-7.97-.32.12-.64.23-.96.35.93-.74,1.92-1.31,2.91-1.89.98-.58,1.95-1.16,2.93-1.74-.03-.05-.06-.1-.08-.15-.38.15-.76.31-1.14.46-.02-.05-.04-.1-.06-.15.7-.44,1.41-.88,2.07-1.3-.08-.24-.14-.41-.2-.58-.32.09-.66.18-1,.27,0-.07.01-.14.02-.21-.12-.02-.25-.07-.37-.05-1.52.26-3.04.5-4.55.79-5.32,1.02-5.03.75-7.83,4.57-.04.06-.08.12-.12.18-1.13,1.43-2.4,2.69-4.03,3.57,2.5-1.73,4.16-4.18,6.04-6.75-2.38,1.04-4.51,2.09-6.24,3.9-.01-.15-.03-.21-.02-.24.09-.11.18-.22.29-.32,1.69-1.69,3.68-2.93,5.87-3.87.21-.09.36-.32.53-.48-.04-.07-.08-.13-.12-.2.61-.06,1.22-.09,1.82-.2.45-.08.87-.31,1.31-.39,2.49-.45,4.98-.86,7.46-1.32.54-.1,1.06-.33,1.58-.5-.02-.09-.04-.17-.06-.26-.18-.02-.37-.08-.53-.04-3.17.72-6.22.17-9.23-.83-2.25-.75-4.53-1.37-6.91-1.36-.71,0-1.42.33-2.13.52-.18.05-.34.13-.51.2-.04-.1-.08-.19-.12-.29.5-.21,1-.41,1.57-.65v-.69c.24.28.41.66.6.67,1.06.06,2.13.03,3.2.03.02-.1.05-.19.07-.29l-3.89-1.64c1.09.22,2.22.41,3.14.96,1.3.76,2.63,1.36,4.09,1.74,2.26.58,4.48,1.34,6.85,1.34,1.48,0,2.95-.16,4.5-.65-.34-.15-.54-.24-.75-.33,0-.03.01-.06.02-.09h.62s.02-.07.03-.11l-1.76-.83s.01-.06.02-.08c.44.11.88.21,1.32.32-2.01-1.15-4.33-1.15-6.56-1.92.2.26.32.41.47.61-2.44-.54-10.81-5.23-11.86-6.64,1.78,1.1,3.53,2.17,5.39,3.32-.28-3.53-2.61-5.23-5.15-6.78l1.08.45c.07-.04.13-.09.2-.13-.32-.73-.63-1.46-1.02-2.36.85.64,1.26,1.35,1.23,2.19-.02.48.15.67.49.9,1.76,1.22,3.11,2.72,3.41,4.95.09.65.43,1.08,1.09,1.3.87.28,1.7.7,2.58.93,1.78.46,3.61.76,5.38,1.25,1.44.4,2.93.75,4.17,1.69.15.12.34.19.5.29.02-.03.05-.07.07-.1-.13-.15-.25-.3-.42-.49.21.06.35.1.44.12-.16-.39-.23-.85-.49-1.12-1.08-1.16-2.03-2.49-3.65-3.01-.17-.06-.36-.2-.44-.36-.47-.9-.94-1.42-1.7-1.83-.08-.04-.14-.17-.17-.27-.06-.19-.04-.42-.14-.58-.24-.37-.53-.71-.68-.91,1.91,1.69,3.95,3.48,5.99,5.28l.15-.16c-.21-.27-.41-.55-.62-.82.03-.02.05-.05.08-.07.4.35.79.7,1.19,1.05,0,.06,0,.12,0,.17.21,1.11,1.01,1.86,1.73,2.67-.18-.5-.35-1.01-.56-1.59.23.17.38.28.66.49-.12-.35-.17-.53-.24-.7-.53-1.34-1.11-2.66-1.59-4.02-.76-2.13-1.32-4.33-2.22-6.39-1.27-2.91-1.77-5.93-1.83-9.05,0-.16.04-.32.06-.48.36,1.64.52,3.28.77,4.91.25,1.65.84,3.21,1.69,4.88.02-.32.04-.44.02-.55-.2-1.59,0-3.12.67-4.58.59-1.29.71-2.63.48-4.02-.08-.47-.15-.93-.26-1.57.87,1.01.5,2.17.85,3.16,1-.34,1.04-1.17,1.14-2.01.14.16.25.32.25.49.01.63-.15,1.23-.71,1.58-.59.37-.97.83-.99,1.55,0,.16-.08.33-.16.48-1.2,2.22-1.06,4.58-.52,6.9.48,2.05,1.21,4.05,1.87,6.06.08.26.4.44.6.66ZM71.44,87.27c.1,0,.2-.01.29-.02,1.69-5.91,4.16-11.49,7.09-17.01-3.75.54-7.44.53-11.05,1.64.26.52.48.89.62,1.29,1.36,3.78,2.1,7.7,2.6,11.67.1.81.29,1.62.44,2.43ZM72.04,97.56c0,2.86-.05,5.65.01,8.43.08,3.13.2,6.25.43,9.37.12,1.66.51,3.29.78,4.94l.25-.03c.58-.97.7-2.07.75-3.16.24-5.48-.26-10.91-1.43-16.27-.24-1.09-.52-2.17-.79-3.3ZM73.87,46.25c-1.18-1.6-1.48-3.51-1.69-5.46-.16-1.47-.46-2.92-.72-4.51-.92.59-1.89,1.13-2.17,2.04-.62,2.01-.99,4.1-1.48,6.16-.09.38.01.61.38.71.81.22,1.6.48,2.42.63,1.05.19,2.12.28,3.26.43ZM78.03,50.31c-.04.06-.09.12-.13.18.34.31.62.71,1.01.91,2.27,1.15,3.66,3.02,4.68,5.28.48,1.05,1.21,1.99,1.81,2.96,1.75-1.9,3.43-3.71,5.14-5.56-2.23-.14-4.48.19-6.66-.51-2.17-.7-4.06-1.87-5.85-3.25ZM72.68,90.42c.2-.7.35-1.38.6-2.02,1.49-3.88,3.02-7.74,4.52-11.62.27-.69.48-1.39.74-2.08.25-.64.39-1.45.86-1.87.98-.88,1.22-2.12,2.06-3.19-1.72.28-2.66.9-2.73,2.19-.06,1.09-.67,1.74-1.14,2.56-.35.61-.57,1.3-.84,1.96-.4.99-.69,1.99-1.47,2.82-.44.46-.57,1.23-.77,1.89-.11.36-.04.79-.14,1.16-.26.9-.58,1.78-.87,2.67-.18.54-.35,1.09-.55,1.63-.02.07-.19.08-.37.14-.64,2.57-.76,2.61.09,3.75ZM76.3,118.55v-2.74s-.03,0-.04,0c-.07.72-.15,1.43-.22,2.15-.06,0-.13,0-.19,0,0-.29-.02-.57,0-.86.05-.5.17-1,.17-1.5,0-1.56-.07-3.12-.08-4.68-.01-1.48-.85-2.91-.22-4.44.07-.17-.39-.49-.44-.77-.24-1.22-.42-2.45-.61-3.67.06,0,.12-.01.18-.02.04.09.07.18.11.27.04-.01.08-.02.11-.03-.08-.46-.16-.93-.27-1.56-.09.3-.14.46-.23.77-.32-1.28-.62-2.4-.89-3.54-.26-1.13-.42-2.3-1.41-3.16-.07.44-.09.88-.01,1.3.12.59.35,1.15.47,1.74.73,3.69,1.45,7.39,2.17,11.08.08.4.15.81.14,1.21-.04,1.31-.13,2.62-.21,4.11.18-.29.26-.41.33-.53.09.05.19.09.28.14-.15,1.75-.31,3.51-.46,5.29.41-.17.84-.35,1.32-.55ZM80.85,31.17c.19-.88.12-1.27-.33-1.88-.34-.47-.71-.76-1.38-.63-.47.09-.72-.37-.68-.82.03-.38.23-.67.64-.56-.09.29-.18.55-.26.8.4.03.8.07,1.19.1.08.1.24.43.32.41.59-.16,1.17-.38,1.75-.58-.86-.69-1.55-1.5-2.69-.9-.14-.72-.28-1.38-.43-2.13-.81.83-.85,1.76-.8,2.74-1.24.03-1.71,1-2.39,1.72.05.09.1.18.15.28.81-.37,1.62-.73,2.43-1.1-.58.69-1.09,1.37-1.05,2.28.08.06.16.12.24.18.6-.67,1.2-1.35,1.85-2.06.1.94.46,1.74,1.45,2.16ZM72.56,22.47c-.09.45-.15.74-.26,1.24.24-.34.34-.49.45-.64.4-.54.72-1.19,1.23-1.58.41-.32.75-.49.68-1.1-.05-.46.1-.91.79-.8-.03.12-.19.13-.24.21-.23.32.03.97.45,1.2.44.24.63-.05.87-.35.48-.61.67-1.33.71-2.07.02-.44-.11-.89-.18-1.33-.06,0-.12.01-.18.02-.35.69-.7,1.38-1.08,2.14-.61-.69-1.07-1.22-1.54-1.75-.07.59-.06,1.12.07,1.61.19.68.13,1.03-.68,1.18-.74.13-1.19.86-1.02,1.41-.55-.08-1.11-.14-.98.61h.9ZM71.62,89.6c-.08.04-.16.07-.23.11.13.65.1,1.4.42,1.93,1.43,2.36,2.96,4.66,4.45,6.98.13.21.27.42.49.76-.33-.09-.48-.13-.7-.19.18.28.32.5.46.72.14.21.29.43.43.64.04-.03.08-.06.13-.08-.09-.22-.18-.43-.25-.59.36-.17.68-.33,1.09-.53-2.49-3.1-4.7-6.22-6.3-9.74ZM68.76,86.41s.09-.03.14-.05c-.04-.52-.03-1.05-.13-1.56-.4-2.13-.77-4.26-1.28-6.37-.36-1.49-.9-2.94-1.39-4.39-.14-.43-.41-.72-.94-.26.44,1.85.89,3.72,1.34,5.6-.03-.75-.16-1.48-.31-2.21-.14-.69-.3-1.37-.45-2.05.06-.01.13-.02.19-.03.94,3.77,1.89,7.55,2.83,11.32ZM66.79,44.56c.08-.02.16-.04.24-.07.46-1.71.92-3.42,1.36-5.13.14-.53.41-1.1.33-1.6-.24-1.38,0-2.68.32-3.99.26-1.06.28-1.05-.48-2.14-.05.53-.11.95-.12,1.37-.02.52.1,1.05,0,1.54-.26,1.28-.65,2.54-.92,3.83-.38,1.84-.7,3.68-1.01,5.53-.03.2.18.44.29.67ZM87.41,58.25c-1.58,1.25-1.73,1.86-.79,3.52.3-.41.59-.79.87-1.17-.03-.03-.07-.05-.1-.08-.16.13-.33.27-.49.4-.02-.02-.03-.04-.05-.06,1.5-1.6,3-3.21,4.5-4.81-.05-.05-.09-.09-.14-.14-.37.35-.75.7-1.12,1.05-.05-.05-.1-.09-.14-.14.51-.69,1.02-1.37,1.52-2.06-.04-.04-.08-.08-.12-.11-1.31,1.29-2.63,2.57-3.93,3.85v-.25ZM66.34,81.56l.12-.04c0-.11,0-.23-.02-.34-.39-1.73-.78-3.47-1.2-5.2-.09-.38-.31-.74-.54-1.07-.17-.24-.36-.71-.76-.35-.34.3-.86.57-.49,1.23.6,1.07,1.13,2.18,1.68,3.27.41.82.81,1.66,1.21,2.48ZM67.32,26.76c-.31.83-.61,1.49-.81,2.19-.19.68-.29,1.39-.41,2.09-.03.18-.07.39,0,.55.5,1.22,1.03,2.43,1.58,3.71v-2.58c-.28-.05-.48-.09-.78-.15.16-.42.3-.78.43-1.11-.26-.32-.51-.63-.81-.99,1.29-.36,1.57-1.74.81-3.71ZM76.52,21.91c.51.84,1.41.59,2.29.61-.08-.92-.5-1.52-1.25-1.88-.38-.18-.7-.17-.92.34-.22.52-.53,1.07-1.3.71-.1-.05-.33.05-.42.16-.52.64-.68,1.39-.64,2.18.07.05.14.09.2.14.68-.75,1.35-1.5,2.04-2.26ZM71.16,19.09c-.03.08-.11.32-.23.63-.13-.2-.21-.33-.31-.5-.16.93.26,1.63.85,1.5.62-.14,1.12-.37,1.25-1.13.1-.64.38-1.24.53-1.87.04-.18.02-.44-.08-.58-.42-.53-.88-1.02-1.33-1.54-.12.16-.3.4-.49.66.72.61,1.17,1.32.95,2.18-.07.26-.67.39-1.14.64ZM70.04,17.37c.73-.34.88.83,1.53.8v.45c.8-.26.52-.81.34-1.28-.23-.6-.88-1.02-1.26-.84-.09.04-.16.16-.22.26-.24.42-.56.63-1.07.52-.11-.02-.28.03-.36.11-.32.34-.19.95.19,1.26.22.18.36.46.61.79-.28-.07-.4-.09-.69-.16.38.36.62.6.87.83.08-.03.17-.06.25-.09-.06-.85-.12-1.7-.19-2.65ZM67.02,34.76s.1-.05.15-.07c-.43-.89-.83-1.8-1.31-2.67-.24-.43-.37-.76-.09-1.24.25-.41.33-.92.48-1.39-.05-.02-.1-.05-.15-.07-.33.41-.65.83-1.07,1.37-.27-.64-.47-1.13-.67-1.61-.07.01-.14.02-.21.04.03.48-.04,1,.11,1.44.17.48-.02.69-.3.98-.37.38-.68.82-1.02,1.23.05.03.09.05.14.08.76-.4,1.51-.8,2.38-1.27.52,1.07,1.04,2.13,1.55,3.19ZM68.63,77.18c-.1,0-.21.01-.31.02,0,.3-.05.61,0,.9.16.78.67,1.47.52,2.33-.02.12.14.27.2.41.05.1.11.21.12.32.06.79.11,1.58.17,2.36.11.02.21.04.32.07.11-.22.32-.45.3-.66-.16-1.6-.37-3.19-.56-4.78-.03,0-.06,0-.09,0-.03.16-.07.32-.14.66-.22-.65-.38-1.13-.54-1.62ZM69.26,36.59c1.09-.63,2.14-1.25,3.17-1.85-.28-.36-.59-.77-.91-1.19-1.19.72-2.28,1.47-2.26,3.04ZM74.66,16.86c.38-.59.93-1.08.6-1.9-.87.22-.87,1.12-1.28,1.62-.51-.47-1.02-.93-1.52-1.39-.07.08-.14.15-.2.23.19.16.42.3.56.5.32.43.51,1.14.91,1.28.75.26,1.62.43,2.49.02-.44-.62-.97-.49-1.56-.35ZM75.63,34.53c.24.18.42.34.63.46.17.09.38.15.58.17.05,0,.2-.26.17-.32-.12-.2-.34-.52-.46-.5-.67.15-.97-.4-1.44-.63-.5-.24-1.05-.39-1.63-.6-.19.81.15,1.26.7,1.51.49.22,1.07.52,1.45-.09ZM69.49,21.17c-.45.29-.91.59-1.38.89.03.07.06.13.09.2.35-.02.72.02,1.04-.08.47-.15.6.03.67.45.07.4.2.78.31,1.17.48-.62.34-1.11-.07-1.6-.48-.58-.41-.8.25-1.2.09-.05.1-.22.11-.25-.46-.25-.85-.46-1.35-.74.12.4.21.75.33,1.16ZM65.24,68.99l-.33.13c-.25,1.01-.51,2.01-.79,3.15,1.12-.43.84-1.35,1.16-2.21.05.58.08.93.12,1.39.69-.47.53-1.05.41-1.55-.08-.33-.37-.6-.56-.9ZM72.01,28.32c-1.33-.16-1.22-1.66-2.28-2.03-.22,1.17.21,2.01.89,2.75.47-.24.86-.45,1.39-.72ZM75.65,35.25c-1.25.01-2.03.43-2.53,1.38.82.34,1.76.1,2.37-.63.13-.16.1-.46.15-.75ZM72.84,69.71c0-.07.01-.15.02-.22-.64-.24-1.28-.47-2.04-.75-.07.84-.28,1.43-1.15,1.5.35.12.71.23.96.1.28-.14.44-.5.77-.89v.82c.28-.17.49-.33.73-.42.22-.09.47-.1.71-.14ZM63.21,22.32c.13,1.02.62,1.68,1.24,1.64.3-.02.57-.45.85-.69-.03-.08-.06-.17-.09-.25-.63-.22-1.26-.44-2-.7ZM76.65,24.24c-.91.2-1.73.31-2.36,1.02,1.61.65,1.83.63,2.36-1.02ZM67.56,23.25c.8.34,1.46.63,2.21.95-.12-.51-.25-1.04-.36-1.53h-1.63c-.09.25-.18.49-.22.58ZM78.1,32.24c-.54.25-.86.41-1.26.59.19.11.28.16.37.22-.22.26-.43.51-.64.75.09-.05.18-.11.27-.16.22.31.43.62.75,1.07.16-.78.32-1.52.51-2.47ZM74.86,29.25c-.59.5-.6,1.14-.08,1.68.33.35.81.18,1.46-.57-.53-.12-1-.23-1.5-.35.03-.21.07-.46.11-.76ZM75.99,26.56c.03-.09.07-.18.1-.26-.58-.25-1.15-.5-1.8-.78-.07,1.48.17,1.5,1.7,1.05ZM65.34,67c-.4.31-.82.59-1.2.93-.08.07-.09.35-.02.45.07.1.29.14.44.12.53-.08.97-.7.79-1.5ZM67.14,69c-.44-.03-.8-.05-1.19-.08.24.38.54.68.62,1.02.05.24-.2.55-.36.93.92-.38.84-1.11.93-1.87ZM66.39,23.99l.11-.27c-.28-.12-.56-.25-.83-.37-.13.29-.43.67-.34.87.2.46.64.45,1.1.14-.28-.06-.5-.1-.84-.17.36-.08.58-.14.81-.19ZM63.99,71.47c-.7.51-1.01,1.2-.82,1.79.79-.55.85-.67.82-1.79ZM70.21,36.53c1.18-.51,2.33-1.01,3.54-1.53-1.43.04-2.56.59-3.54,1.53ZM70.47,31.56c-.28.7-.48,1.21-.68,1.73l.15.1c.34-.19.67-.38,1.03-.58-.14-.36-.27-.69-.5-1.24ZM68.2,26.85c.14.78.26,1.48.38,2.17.08-.02.16-.03.24-.05-.2-.69.62-1.56-.62-2.12ZM70.55,68.85h-.9v.91c.75.15.84-.32.9-.91ZM76.85,27.82c-1.3.25-1.7.61-1.39,1.3.45-.42.88-.82,1.39-1.3ZM72.01,32.87s.08.06.12.08c.3-.12.6-.31.91-.34.55-.06.63-.33.48-.93-.54.43-1.02.81-1.5,1.19ZM70.23,24.2c-.1.07-.21.14-.31.2.08.35.15.69.23,1.04.08.03.15.05.23.08.13-.21.39-.45.36-.62-.06-.26-.33-.47-.51-.7ZM62.62,30.89c.33.26.58.45.89.69.07-.48.13-.83.2-1.36-.43.26-.71.43-1.1.67ZM68.39,75.6c-.81.46-.54.97-.32,1.51.84-.35.24-.94.32-1.51ZM71.64,24.72l-.3-.03c-.12.67-.24,1.33-.36,2,.11.02.22.04.33.05.11-.67.22-1.35.32-2.02ZM73.47,23.44c-.35.55-.59.94-.87,1.37.85.04,1.07-.26.87-1.37ZM73.5,18.78c-.15.54-.25.93-.39,1.44.41-.14.67-.24,1.02-.36-.21-.37-.38-.66-.63-1.08ZM67.85,25.6c-.03.08-.06.16-.08.25.09.18.19.36.36.68.26-.28.47-.5.67-.72-.32-.07-.64-.14-.95-.21ZM67.41,75.67c.86-.34.88-.41.45-1.22-.19.52-.32.87-.45,1.22ZM67.5,70.26c.16-.39.31-.78.47-1.18-.64-.1-.73.1-.47,1.18ZM77.38,100.95c.12.04.23.07.35.11.12-.41.24-.82.35-1.23-.11-.03-.22-.07-.34-.1-.12.41-.24.82-.37,1.22ZM71.71,30.04l.3-.16c-.1-.28-.19-.57-.29-.85-.15.13-.44.3-.42.37.07.24.26.43.41.65ZM70.05,83.78c-.09-.03-.17-.05-.26-.08-.12.33-.24.66-.41,1.14q.85-.33.67-1.06ZM71.25,33.28c-.63.07-1.26.18-1.67.98.68-.4,1.17-.69,1.67-.98ZM72.93,31.61c-.31-.1-.52-.16-.78-.24-.05.38-.09.64-.14,1.07.38-.34.6-.54.93-.83Z"/><path d="M19.57,51.86c1.03.24,2.05.48,3.08.71,1.02.23,2.04.44,3.09.55-2.36-1.17-4.58-2.66-7.29-2.95.03-.11.06-.21.09-.32.81.19,1.66.31,2.43.6,1.19.44,2.39.91,3.5,1.53,2.51,1.41,5.22,1.73,8.02,1.64.31-.01.62.05.93.07.01.09.02.18.03.27-.3.09-.6.24-.9.25-4.35.05-8.59-.58-12.7-2.04-.11-.04-.21-.1-.32-.15.01-.05.02-.1.03-.14Z"/><path d="M42.57,27.69c.09,1.86.06,3.67-1.01,5.34-.53.83-.85,1.79-1.43,2.65.22-.65.31-1.39.67-1.95,1.14-1.77,1.55-3.7,1.55-5.76,0-.09.03-.19.06-.28,0-.01.08,0,.16,0Z"/><path d="M21.4,58.74c.53.06,1.02.12,1.51.18.14.47.28.93.46,1.51-.72-.43-.42-1.84-1.73-1.37.09.54.1,1.09.79,1.55-.11-.5-.18-.81-.25-1.11l.08-.03c.21.4.41.79.62,1.19-.96.46-1.38-.05-1.48-1.92Z"/><path d="M24.98,33.81c1.11,1.08,2.23,2.16,3.34,3.24l-.08.09c-1.07-1.12-2.14-2.24-3.21-3.35l-.06.02Z"/><path d="M43.48,43.36c.28.95.55,1.9.83,2.85-.09.03-.18.05-.27.08-.27-.95-.55-1.9-.82-2.86.09-.03.17-.05.26-.08Z"/><path d="M34.26,67.3c-.16-.77-.33-1.59-.49-2.36.66.49.91,1.72.49,2.36Z"/><path d="M51.45,27.77c.42.83.84,1.65,1.27,2.48-.09.04-.17.09-.26.13-.39-.84-.77-1.69-1.16-2.53.05-.03.1-.06.15-.08Z"/><path d="M26.36,36.86c-.74-.67-1.47-1.33-2.21-2,.05-.05.09-.11.14-.16.75.66,1.5,1.32,2.25,1.98l-.18.18Z"/><path d="M46.22,46.73c.24-.78.48-1.56.72-2.35.08.02.15.05.23.07-.23.78-.47,1.57-.7,2.35-.08-.03-.17-.05-.25-.08Z"/><path d="M35.95,49.23c-.84-.16-1.67-.31-2.51-.47.01-.06.02-.13.04-.19.84.14,1.68.29,2.52.43-.01.08-.03.15-.04.23Z"/><path d="M40.63,46.72c-.43-.8-.87-1.61-1.3-2.41.05-.03.11-.06.16-.09l1.35,2.38c-.07.04-.14.08-.21.12Z"/><path d="M43.25,46.16c-.24-.79-.48-1.58-.72-2.37.06-.02.13-.04.19-.06l.75,2.36-.22.07Z"/><path d="M36.86,50.73c-.81-.35-1.47-.64-2.16-.94.52-.18,1.68.28,2.16.94Z"/><path d="M36.75,55.55c.82-.3,1.64-.6,2.46-.9.03.07.05.14.08.21-.82.29-1.65.58-2.47.87-.02-.06-.04-.12-.07-.19Z"/><path d="M24.44,39.77c-.26-.74,0-1.36.72-1.63-.25.57-.47,1.05-.72,1.63Z"/><path d="M45.13,41.86c.06-.74.12-1.49.18-2.23.07,0,.15.01.22.02-.06.74-.13,1.49-.19,2.23-.07,0-.14-.01-.2-.02Z"/><path d="M35.56,45.95l2.02,1.4c-.04.07-.09.13-.13.2-.68-.47-1.36-.94-2.04-1.42.05-.06.1-.12.15-.18Z"/><path d="M40,27.14c-.17.58-.34,1.16-.51,1.74-.08-.02-.15-.04-.23-.06.15-.59.29-1.18.44-1.77.1.03.2.06.29.09Z"/><path d="M51,39.9c.39-.44.77-.88,1.16-1.32.07.06.14.12.21.17-.36.46-.72.92-1.09,1.39l-.28-.24Z"/><path d="M46.21,31.34c.59.32,1.18.63,1.77.95-.04.08-.08.15-.12.23-.58-.32-1.16-.65-1.73-.97.03-.07.06-.14.09-.21Z"/><path d="M37.2,69.78c-.84-.27-1.68-.54-2.52-.8.03-.09.07-.17.1-.26.8.36,1.6.72,2.4,1.08,0,0,.02-.02.02-.02Z"/><path d="M23.46,39.36c.16-.46.32-.92.48-1.37.09.03.19.07.28.1-.16.46-.31.92-.47,1.38-.1-.03-.19-.07-.29-.1Z"/><path d="M20.87,49.24v-1.66c.06,0,.13,0,.19,0v1.63c-.06,0-.13.02-.19.02Z"/><path d="M36.77,56.36c.57-.25,1.14-.51,1.71-.76l.1.24c-.58.25-1.17.49-1.75.74-.02-.07-.04-.14-.06-.21Z"/><path d="M46.64,30.7c.53.3,1.07.59,1.6.89-.04.07-.08.14-.11.21l-1.61-.9.11-.2Z"/><path d="M21.53,49.64l.1-1.57c.09,0,.18.01.27.02-.04.52-.07,1.04-.11,1.56-.09,0-.18-.01-.27-.02Z"/><path d="M21.8,58.02c.67.04,1.33.08,2,.12,0,.02,0,.04,0,.05h-2c0-.06,0-.12,0-.17Z"/><path d="M40.63,79.78c.22.25.44.49.65.74.8.9,1.77,1.45,3.01,1.43.1,0,.19,0,.29.02.04,0,.06.05.23.21-.58,0-1.1.15-1.45-.03-.79-.4-1.51-.96-2.24-1.47-.21-.15-.36-.37-.54-.56.02-.11.04-.23.06-.34Z"/><path d="M62.73,63.27c-.35-.52-.7-1.03-1.06-1.55.06-.04.13-.09.19-.13.35.54.7,1.09,1.04,1.64.02.03-.11.14-.16.22,0-.06,0-.12,0-.17Z"/><path d="M91.76,21.31c.01,1.93.02,3.83.73,5.68.72,1.85,2.41,2.94,3.41,4.55-1.83-1.46-3.02-3.15-3.66-4.54-.86-1.87-.59-3.78-.48-5.69Z"/><path d="M108.55,59.35c-1.19-1.75-3.02-2.81-4.52-4.22,1.7,1.21,3.5,2.3,4.52,4.22Z"/><path d="M103.18,55.73c.75,1.2,1.68,2.32,1.89,3.77-.06.03-.11.05-.17.08-.57-1.28-1.14-2.56-1.72-3.84Z"/><path d="M82.66,25.11c.57-.47,1.15-.94,1.74-1.43.06.09.17.24.26.37-.63.45-1.22.87-1.81,1.29-.06-.08-.12-.15-.18-.23Z"/><path d="M86.25,52.68c-.81.75-1.36.14-2.16-.06.63-.16,1.07-.27,1.66-.41-.16.21-.23.29-.34.43.25.01.47.03.84.05Z"/><path d="M108.96,27.45c-.83.46-1.65.91-2.48,1.37-.04-.07-.08-.15-.13-.22.82-.46,1.64-.92,2.46-1.38.05.08.1.15.15.23Z"/><path d="M106.98,21.84c-.88.05-1.77.1-2.65.15.86-.46,1.74-.62,2.65-.15Z"/><path d="M121.63,39.94c.29,1.12.35,2.25-.2,3.34.07-1.12.13-2.25.2-3.34Z"/><path d="M106.28,47.47c-1.28-.09-2.56-.18-3.84-.27,0-.02,0-.04,0-.06h3.84c0,.11,0,.22,0,.33Z"/><path d="M74.87,39.84h4.42s0,.07,0,.11h-4.42s0-.07,0-.11Z"/><path d="M120.69,48.51c-.14.77-.28,1.54-.42,2.31-.1-.02-.2-.04-.3-.06.16-.77.32-1.54.48-2.3.08.02.16.03.24.05Z"/><path d="M107.49,20.72h-2.35c.42-.5,1.46-.51,2.35,0Z"/><path d="M106.22,22.89h-2.17c.55-.51,1.57-.53,2.17,0Z"/><path d="M92.68,21.9c.68-.22,1.37-.43,2.05-.65l.08.25c-.69.23-1.38.46-2.07.69l-.07-.29Z"/><path d="M94.65,19.82c-.7.21-1.33.4-1.95.58.34-.62,1.15-.88,1.95-.58Z"/><path d="M91.03,19.47c.73-.82,1.54-.89,2.5-.79-.84.27-1.6.51-2.5.79Z"/><path d="M83.88,23.45c-.55.46-1.05.87-1.53,1.27-.07-.59.72-1.3,1.53-1.27Z"/><path d="M100.45,61.11v-.64c.35-.05.69-.09,1.03-.14.02.06.05.13.07.19-.24.09-.48.18-.75.28.16.11.34.22.51.33-.01.05-.02.1-.04.15-.27-.06-.54-.12-.82-.18Z"/><path d="M94.1,19.26c-.57.17-1.13.34-1.7.51l-.09-.31c.57-.17,1.14-.35,1.7-.52.03.11.06.22.09.32Z"/><path d="M94.72,20.57c-.59.22-1.17.43-1.76.65-.03-.07-.06-.15-.09-.22.59-.23,1.19-.46,1.78-.69.02.09.05.18.07.26Z"/><path d="M102.65,38.3l.77-2.35c.07.02.14.04.2.06-.25.78-.51,1.56-.76,2.34-.07-.02-.14-.03-.21-.05Z"/><path d="M99.85,61.56c.72.07,1.3.12,1.97.19-.63.44-1.27.39-1.97-.19Z"/><path d="M122.07,42.78c.05-.74.1-1.47.15-2.21.17.76.4,1.53-.15,2.21Z"/><path d="M103.84,24.09c.41-.62.92-.54,1.44-.39,0,.07.02.15.03.22l-1.46.16Z"/><path d="M110.87,57.39c-.39.54-.78,1.07-1.18,1.61-.06-.05-.13-.09-.19-.14.39-.54.77-1.09,1.16-1.63.07.06.14.11.21.17Z"/><path d="M110.36,56.74l-.78,1.51c-.09-.04-.17-.09-.26-.13.27-.5.54-1,.81-1.5.08.04.16.08.24.12Z"/><path d="M84.87,24.89c-.43.33-.85.66-1.28.99-.06-.08-.12-.16-.18-.24.43-.33.85-.66,1.28-.99.06.08.12.17.19.25Z"/><path d="M119.34,49.52c.15-.57.3-1.13.46-1.7.08.02.16.04.24.05-.13.57-.25,1.15-.38,1.72-.11-.03-.21-.05-.32-.08Z"/><path d="M98.07,41.68v-2.84c.07,0,.14,0,.21,0,.07.94.25,1.89-.23,2.81,0,0,.01.02.01.02Z"/><path d="M103.58,20.42c-.2.52-.41,1.03-.61,1.55-.08-.03-.17-.07-.25-.1.21-.51.43-1.03.64-1.54.08.03.15.06.23.09Z"/><path d="M95.08,59.39v-2.19s.09,0,.14,0v2.19s-.09,0-.14,0Z"/><path d="M39.88,70.04c-.79-1.93-1.29-3.93-.39-5.92.61-1.35,1.2-2.62.73-4.13-.05-.17,0-.38,0-.66.69,2.09.68,2.7-.21,4.5-.78,1.59-.67,3.22-.35,4.87.09.44.15.89.23,1.34Z"/><path d="M54.35,55.15c.34-2.63,1.27-5.08-.31-7.53,1.65,1.39,1.27,5.7.31,7.53Z"/><path d="M69.28,63.29c-.41.38-.83.75-1.24,1.13-.04-.03-.09-.06-.13-.08.34-1.05.69-2.11,1.03-3.16.08.02.16.04.24.07-.22.68-.43,1.37-.65,2.05.02.02.05.04.07.06.25-.42.49-.84.74-1.26.06,0,.12.01.18.02-.09.4-.18.81-.27,1.21,0,0,.03-.03.03-.03Z"/><path d="M72.01,61.79c1.28-1.28,2.89-1.9,4.6-2.28-1.53.76-3.07,1.52-4.6,2.28Z"/><path d="M73.26,62.03c.9-.77,2-1.13,3.08-1.52.04.08.08.16.12.24-1.03.51-2.05,1.01-3.08,1.52-.04-.08-.08-.16-.12-.24Z"/><path d="M52.35,80.77c.85-1.13,1.1-2.63,2.32-3.52-.72,1.21-1.44,2.43-2.17,3.64-.05-.04-.1-.08-.16-.12Z"/><path d="M82.8,58.38c-.55.83-1.82.88-2.31.24.73-.07,1.46-.15,2.31-.24Z"/><path d="M63.13,62.95c-.43-1.14-.86-2.29-1.29-3.43.03-.01.07-.02.1-.04.5,1.11,1,2.23,1.5,3.34-.11.04-.21.09-.32.13Z"/><path d="M64.46,62.27c-.31-1.04-.62-2.08-.93-3.12l.22-.06c.64.96.54,2.1.71,3.18,0,0,0,0,0,0Z"/><path d="M52.35,66.27c-1.09.08-1.95-.38-2.69-1.11.9.37,1.79.74,2.69,1.11Z"/><path d="M70.37,64.06c-.62.64-1.24,1.29-1.86,1.93-.05-.05-.1-.1-.15-.15.6-.66,1.2-1.32,1.8-1.99.07.07.14.14.22.21Z"/><path d="M54.28,60.07c-.65-.64-1.3-1.28-1.95-1.93.05-.06.11-.11.16-.17l1.99,1.88c-.07.07-.14.14-.21.22Z"/><path d="M46.06,84.99c-.46-.55-.93-1.1-1.39-1.65.06-.05.11-.09.17-.14.48.54.97,1.07,1.45,1.61-.08.06-.15.12-.23.18Z"/><path d="M62.72,56.55v-2.26c.05,0,.1,0,.16,0v2.26c-.05,0-.1,0-.16,0Z"/><path d="M68.51,67.22c-.63.11-1.27.21-1.9.32-.01-.08-.02-.16-.04-.23.63-.11,1.26-.22,1.89-.34.01.08.03.17.04.25Z"/><path d="M55.33,83.58c.64-.11,1.27-.22,1.91-.33-.42.6-.93.69-1.91.33Z"/><path d="M67.77,62.76c.17-.71.33-1.41.5-2.12.06.01.12.03.18.04-.15.72-.31,1.44-.46,2.16-.07-.03-.14-.05-.21-.08Z"/><path d="M41.31,58.76c.22-.53-.5-1.29.4-1.74-.15.65-.27,1.19-.4,1.74Z"/><path d="M66.34,59.78v2.14s-.08,0-.12,0v-2.12s.08-.01.12-.02Z"/><path d="M55.23,59.01c-.4-.43-.81-.86-1.21-1.28.06-.05.11-.1.17-.15.4.43.81.85,1.21,1.28-.06.05-.12.11-.18.16Z"/><path d="M52.94,59.55c.44.33.89.67,1.33,1-.06.08-.12.16-.18.24-.44-.34-.88-.68-1.32-1.02.05-.07.11-.15.16-.22Z"/><path d="M54.53,72.19c-.56.29-1.12.58-1.68.87-.03-.06-.07-.12-.1-.18.55-.3,1.1-.6,1.65-.91.04.07.09.14.13.21Z"/><path d="M68.58,66.19c.41-.3.81-.59,1.3-.95-.15.66-.42.87-1.3.95Z"/><path d="M67.23,41.51c.17-.93.34-1.85.5-2.78.06.01.13.02.19.03-.17.92-.34,1.85-.51,2.77-.06-.01-.12-.02-.18-.03Z"/></svg>