<?xml version="1.0" encoding="UTF-8"?><svg id="Layer_1" xmlns="http://www.w3.org/2000/svg" viewBox="0 0 144.57 144.57"><path d="M45.26,54.7l2.83-3.66c.11-.15.18-.28.22-.41.03-.12.04-.23.04-.34,0-.28-.08-.53-.25-.74-.18-.21-.43-.32-.75-.32-.29,0-.52.09-.71.28-.2.19-.31.45-.35.8h-1.03c.03-.62.23-1.13.61-1.54.38-.4.85-.6,1.41-.6.62,0,1.13.21,1.52.62.39.4.6.91.6,1.52,0,.49-.15.93-.44,1.31l-2.33,3.02h2.77v1.07h-4.13v-1Z" fill="#1d1d1b"/><path d="M53.88,48.15s-.01.04-.05.11c-.04.07-.08.17-.15.3s-.13.27-.22.44c-.08.16-.17.34-.26.52s-.18.36-.28.55c-.09.18-.18.36-.27.53-.09.17-.17.32-.24.46-.07.14-.13.25-.18.33.1-.06.21-.09.34-.11s.27-.01.43,0c.24,0,.44.05.62.12.18.07.33.17.45.28.13.11.23.24.32.38s.15.27.2.4.08.25.1.37c.02.11.03.2.03.27v.29c0,.07,0,.13,0,.2,0,.07,0,.13,0,.17,0,.02-.01.09-.03.19-.02.1-.05.22-.1.36s-.12.29-.21.45c-.09.16-.21.31-.36.45-.15.14-.33.26-.55.37-.22.1-.47.17-.77.19-.31.03-.59,0-.83-.06-.24-.07-.45-.17-.62-.29s-.32-.27-.44-.44-.21-.34-.27-.51c-.07-.17-.11-.34-.13-.5-.02-.16-.03-.3-.01-.41.02-.17.04-.32.07-.45.02-.13.05-.26.08-.38.03-.12.07-.24.11-.35s.09-.24.14-.38c.01-.03.05-.12.11-.24s.14-.29.23-.47c.09-.19.19-.39.31-.62.11-.23.23-.46.34-.69.27-.54.57-1.14.9-1.81h1.21ZM53.66,53.62c0-.13,0-.27-.02-.43-.01-.16-.05-.31-.12-.45-.07-.14-.18-.26-.33-.37-.15-.1-.36-.16-.64-.18-.13-.01-.25,0-.35.04-.11.04-.2.09-.28.15-.08.06-.15.14-.21.22-.06.08-.11.17-.15.25s-.07.16-.08.23c-.02.07-.03.12-.03.16,0,.09,0,.18,0,.28,0,.1.01.21.03.31s.05.21.09.3c.04.1.11.18.19.26.08.07.19.14.32.18.13.05.29.07.48.07.15,0,.29-.02.4-.06.11-.04.21-.1.29-.16s.15-.14.2-.22c.05-.08.09-.16.12-.24.03-.08.05-.15.06-.21.01-.06.02-.11.02-.14Z" fill="#1d1d1b"/><path d="M49.77,40.72h28.7c14.35,0,26.01,11.65,26.01,26.01v28.7c0,5.6-4.55,10.15-10.15,10.15h-44.56c-5.6,0-10.15-4.55-10.15-10.15v-44.56c0-5.6,4.55-10.15,10.15-10.15Z" fill="none" stroke="#000" stroke-miterlimit="10" stroke-width=".65"/><path d="M56.61,60.38h14.94v3.44h-11.4v7.14h9.73v3.24h-9.73v10.32h-3.54v-24.14Z" fill="#1d1d1b"/><path d="M76.43,77.24c0,1.38.38,2.43,1.16,3.15.72.73,1.66,1.09,2.82,1.09,1.36,0,2.57-.56,3.64-1.67l2.42,2.14c-1.7,1.88-3.7,2.8-6,2.78-.88,0-1.73-.13-2.57-.4-.42-.14-.82-.34-1.22-.58-.42-.21-.81-.47-1.17-.78-.71-.64-1.28-1.53-1.72-2.68-.48-1.1-.72-2.54-.72-4.31s.21-3.11.63-4.24c.42-1.15.95-2.05,1.6-2.72.66-.67,1.41-1.16,2.23-1.46.81-.3,1.61-.45,2.4-.45,1.9.02,3.51.67,4.83,1.94,1.34,1.29,2.01,3.07,2.04,5.33v2.85h-10.38ZM83.47,74.39c-.04-1.34-.39-2.36-1.04-3.04-.64-.65-1.47-.98-2.48-.98s-1.83.33-2.48.98c-.63.69-.98,1.7-1.04,3.04h7.04Z" fill="#1d1d1b"/><path d="M67.42,96.05h1.8v.5h-1.35v.8c.16-.13.34-.19.54-.19.13,0,.25.03.36.07.1.05.19.11.25.18.09.1.16.21.2.33.02.07.04.15.05.25,0,.1.01.22.01.37,0,.23-.02.4-.05.52-.03.12-.09.23-.16.32-.07.09-.16.17-.29.25-.12.08-.27.12-.44.12-.23,0-.44-.07-.63-.21-.19-.14-.31-.38-.36-.7h.49c.05.27.21.4.49.41.12,0,.21-.02.28-.07.07-.05.11-.11.14-.18.03-.07.05-.16.05-.25,0-.09,0-.17,0-.25,0-.2-.03-.36-.09-.49-.03-.06-.09-.11-.15-.14-.07-.03-.15-.04-.25-.04-.09,0-.17.02-.24.06-.07.04-.14.12-.2.23h-.46v-1.89Z" fill="#1d1d1b"/><path d="M69.77,96.05h1.8v.5h-1.35v.8c.16-.13.34-.19.54-.19.13,0,.25.03.36.07.1.05.19.11.25.18.09.1.16.21.2.33.02.07.04.15.05.25,0,.1.01.22.01.37,0,.23-.02.4-.05.52-.03.12-.09.23-.16.32-.07.09-.16.17-.29.25-.12.08-.27.12-.44.12-.23,0-.44-.07-.63-.21-.19-.14-.31-.38-.36-.7h.49c.05.27.21.4.49.41.12,0,.21-.02.28-.07.07-.05.11-.11.14-.18.03-.07.05-.16.05-.25,0-.09,0-.17,0-.25,0-.2-.03-.36-.09-.49-.03-.06-.09-.11-.15-.14-.07-.03-.15-.04-.25-.04-.09,0-.17.02-.24.06-.07.04-.14.12-.2.23h-.46v-1.89Z" fill="#1d1d1b"/><path d="M72.22,99.04h.48v.5h-.48v-.5Z" fill="#1d1d1b"/><path d="M73.17,98.52c0-.34.14-.6.41-.79-.1-.09-.19-.2-.24-.31-.07-.11-.1-.24-.1-.39,0-.29.1-.53.29-.72.18-.19.4-.28.68-.29.28,0,.51.1.7.29.18.19.27.43.28.72,0,.15-.03.28-.09.39-.07.12-.15.22-.25.31.27.19.41.45.41.79,0,.31-.1.57-.3.75-.2.19-.45.29-.74.3-.29,0-.53-.1-.72-.29-.2-.19-.31-.44-.31-.75ZM73.66,98.52c0,.16.06.29.17.39.1.11.23.16.38.16s.28-.05.39-.16c.11-.1.16-.23.16-.39,0-.16-.06-.3-.16-.4-.1-.1-.23-.15-.39-.16-.15,0-.28.06-.38.16-.11.1-.17.24-.17.4ZM73.72,97.02c0,.16.05.29.15.37.1.09.21.13.33.13s.24-.04.34-.13c.09-.09.14-.21.15-.37,0-.17-.05-.29-.15-.38-.1-.08-.21-.12-.34-.12s-.24.04-.33.12c-.1.09-.15.21-.15.38Z" fill="#1d1d1b"/><path d="M75.48,98.55l1.13-2.5h.54l-1.14,2.5h.88v-1.01h.48v1.01h.27v.47h-.27v.52h-.48v-.52h-1.41v-.47Z" fill="#1d1d1b"/><path d="M66.74,88.92h.73v4.98h-.73v-4.98Z" fill="#1d1d1b"/><path d="M68.48,90.35h.69v.38h.01c.23-.28.52-.42.89-.42.28,0,.52.1.72.27l-.5.62c-.15-.12-.3-.18-.45-.18-.18,0-.33.06-.45.18-.14.12-.21.3-.22.56v2.14h-.69v-3.54Z" fill="#1d1d1b"/><path d="M70.9,92.12c0-.37.03-.66.09-.86.06-.2.16-.36.28-.5.09-.12.23-.22.4-.32.17-.09.38-.13.64-.14.27,0,.49.05.66.14.17.09.29.2.38.32.14.13.23.3.29.5.05.2.08.49.08.86s-.03.66-.08.85c-.06.2-.15.36-.29.51-.04.05-.1.1-.16.15-.06.06-.13.11-.22.15-.17.1-.39.15-.66.15-.26,0-.48-.06-.64-.15-.17-.09-.3-.19-.4-.3-.13-.14-.22-.31-.28-.51-.06-.2-.09-.48-.09-.85ZM73.04,92.13c0-.25-.01-.44-.03-.56-.02-.11-.07-.21-.14-.29-.05-.08-.13-.14-.23-.19-.1-.05-.21-.07-.33-.07-.12,0-.23.02-.32.07-.1.05-.17.11-.23.19-.06.09-.1.18-.13.29-.03.12-.04.3-.04.55s.01.43.04.54c.03.12.07.22.13.31.06.07.14.13.23.18.1.05.21.08.32.08.13,0,.24-.03.33-.08.1-.05.17-.11.23-.18.07-.09.11-.19.14-.31.02-.11.03-.29.03-.53Z" fill="#1d1d1b"/><path d="M74.57,90.35h.69v.38h.01c.23-.28.52-.42.89-.42.28,0,.54.1.78.31.23.21.36.52.37.92v2.36h-.69v-2.11c0-.25-.06-.44-.19-.57-.13-.13-.29-.2-.49-.2s-.36.07-.49.2c-.13.13-.19.32-.19.57v2.11h-.69v-3.54Z" fill="#1d1d1b"/></svg>