<?xml version="1.0" encoding="UTF-8"?><svg id="Layer_1" xmlns="http://www.w3.org/2000/svg" viewBox="0 0 144.57 144.57"><path d="M47.64,64.41c.15-.21.27-.38.4-.57-.01-.02-.04-.06-.07-.08-.79-.56-1.59-1.11-2.37-1.69-.2-.15-.34-.38-.5-.57-.25-.3-.52-.56-.93-.66-.17-.04-.35-.2-.43-.35-.11-.2.02-.39.2-.5.15-.09.14-.19.06-.32-.27-.45-.59-.88-.8-1.35-.3-.67-.89-.79-1.49-.88-.66-.1-1.32-.14-1.98-.22-1.33-.15-2.67-.26-3.93-.77-.28-.11-.57-.17-.84-.29-.17-.08-.32-.21-.44-.35-.2-.22-.12-.39.16-.46.09-.02.15-.11.23-.18.11-.1.21-.27.33-.28.34-.03.73-.09,1.02.03.61.26,1.15.09,1.71-.09.29-.09.57-.23.84-.37.22-.11.24-.3.05-.45-.54-.43-1.11-.75-1.85-.62-.31.05-.64.04-.95,0-.12-.02-.22-.21-.33-.32.11-.1.2-.23.33-.29.13-.06.3-.07.45-.09,0-.03.02-.06.03-.09-.1-.08-.2-.17-.31-.23-.33-.18-.66-.38-1-.53-.17-.07-.38-.08-.57-.08-.34,0-.67.04-1.01.04-.14,0-.29-.07-.42-.14-.23-.14-.25-.39-.05-.57.14-.12.3-.21.51-.34-.11-.06-.18-.1-.25-.14-.14-.08-.3-.13-.41-.24-.1-.1-.2-.28-.17-.39.03-.11.22-.24.35-.26.5-.07.99.03,1.45.24,1.05.47,2.12.91,3.13,1.45.81.44,1.53,1.02,2.31,1.52,1.59,1.02,2.77,2.46,3.97,3.87.06.07.13.14.23.25.03-.17.04-.29.06-.4.05-.21.18-.37.39-.34.15.02.37.16.39.27.07.33.1.69.04,1.02-.07.44-.01.82.25,1.18.45.62.88,1.25,1.32,1.88.07.09.15.17.28.32.03-.2.02-.35.07-.48.05-.12.13-.27.24-.3.07-.03.26.08.3.17.14.27.27.55.35.85.23.83.66,1.5,1.43,1.93.42.24.82.51,1.24.75.11.07.23.12.35.15.16.05.29.05.33-.17.05-.26.24-.31.45-.22.19.08.39.18.52.33.46.5,1.08.7,1.71.82.68.14,1.38.15,2.07-.04.43-.12.51-.25.44-.69-.12-.69-.25-1.39-.38-2.08-.02-.1-.07-.21-.13-.3-.45-.63-.91-1.24-1.35-1.87-.48-.7-.91-1.44-1.41-2.14-.52-.72-1.12-1.37-1.63-2.09-.97-1.39-2.15-2.6-3.21-3.91-1-1.23-1.88-2.55-2.67-3.94-1.18-2.08-2.03-4.3-2.83-6.54-.24-.68-.59-1.32-.97-1.94-.78-1.27-1.61-2.5-2.4-3.75-.32-.51-.59-1.06-.65-1.68,0-.07-.01-.14,0-.21.02-.25,0-.52.32-.6.24-.07.53.17.63.47.14.41.29.82.45,1.23.05.13.15.26.25.37.05.06.15.08.22.11.03-.08.1-.17.09-.25-.06-.45-.26-.82-.55-1.17-.15-.18-.29-.38-.38-.59-.1-.23.02-.38.27-.4.52-.05.93.17,1.16.65.24.51.46,1.03.72,1.53.08.15.25.26.38.38.04-.17.09-.34.11-.51.02-.15-.03-.31.02-.44.04-.12.15-.26.26-.31.07-.03.26.07.3.16.21.44.38.89.59,1.33.14.29.31.58.5.84.12.17.29.21.45-.02.09-.13.28-.23.44-.26.33-.05.48.24.36.66.3.1.54-.02.71-.22.2-.25.35-.55.51-.83.24-.44.13-.9.09-1.37-.03-.32,0-.65.05-.97.04-.24.21-.41.48-.41.27,0,.33.23.36.44.04.24.06.48.09.75.3-.11.27-.35.29-.53.06-.46.26-.83.6-1.13.12-.1.25-.2.4-.26.23-.1.45-.08.61.14.16.2.06.37-.07.54-.12.15-.22.32-.33.48.03.03.05.05.08.08.09-.08.19-.16.27-.25.22-.24.45-.32.62-.19.21.16.23.55.05.78-.12.16-.25.32-.36.45.31.11.57.2.87.3-.07-.11-.16-.2-.18-.31-.04-.15-.1-.35-.04-.45.05-.09.28-.07.43-.09.04,0,.09.03.14.05.7.3,1.4.61,2.13.93.01-.12.01-.25.04-.36.07-.34.1-.69.22-1.01.17-.4.48-.45.84-.21,0-.03,0-.06,0-.09.2,0,.42-.07.59,0,.24.11.43.34.4.64-.04.29-.11.58-.16.87-.01.08-.02.21.03.26.46.4.52.94.55,1.49.02.41.19.66.59.73-.01-.27-.02-.53-.04-.8-.02-.28.06-.51.27-.69.23-.2.51-.16.58.14.09.34.11.7.11,1.05,0,.23.04.35.3.35.28,0,.42.14.43.42,0,.13.06.26.04.38-.07.57.21.97.61,1.34.27.25.5.54.75.81.06.07.14.13.28.16-.05-.2-.1-.41-.14-.61-.1-.43,0-.59.4-.75.09-.03.18-.09.24-.17.17-.21.34-.15.42.03.16.37.3.75.39,1.14.08.34.07.7.1,1.06.06,0,.09,0,.1-.01.47-.34.77-.22.94.35.05.19.13.37.19.57.07-.04.09-.04.09-.05.23-.42.45-.43.67,0,.1.19.09.45.1.68,0,.11-.03.24-.07.35-.23.76-.16.93.57,1.3.02,0,.05-.01.05-.03.22-.61.38-1.29.06-1.84-.46-.81-1.09-1.53-1.68-2.27-.29-.37-.65-.67-.93-1.04-.4-.54-.8-1.09-1.13-1.67-.3-.54-.64-.99-1.2-1.27-.24-.12-.44-.33-.62-.54-.15-.17-.18-.39,0-.56.17-.16.35-.07.52.02.08.05.16.1.3.17-.03-.13-.03-.19-.05-.26-.21-.68-.4-1.36-.63-2.04-.16-.45-.39-.87-.55-1.31-.07-.19-.04-.41-.05-.62.22.04.47.02.63.13.2.14.33.38.48.59.23.32.42.68.68.96.26.28.45.17.59-.19.22-.58.18-1.08-.33-1.49-.04-.04-.08-.09-.11-.14-.11-.19-.28-.4-.06-.61.16-.16.62-.13.8.05.08.08.15.18.22.28.06.08.13.17.22.3.1-.29.09-.52-.05-.75-.11-.18-.18-.37-.06-.59.04-.06-.03-.18-.04-.27-.05-.29-.13-.58-.12-.87,0-.14.16-.35.29-.39.12-.03.34.08.44.2.27.32.3.72.3,1.13,0,.29.06.55.38.72,0-.14,0-.27,0-.39.01-.26.09-.51.37-.58.27-.07.42.12.52.34.09.2.21.22.4.12.24-.14.43-.06.5.21.05.19.04.41.03.61,0,.23-.05.46-.02.68.02.13.14.24.28.33-.1-.35-.38-.68.05-.98.31-.21.51.05.76.18-.14-.48-.36-.91-.8-1.16-.39-.23-.82-.4-1.23-.59-.35-.16-.72-.29-1.05-.48-.18-.1-.34-.28-.44-.46-.16-.29-.04-.48.29-.44.24.02.48.11.72.17.23.06.45.15.68.21.08.02.18-.03.27-.05-.02-.09-.03-.19-.08-.27-.09-.14-.21-.26-.31-.4-.15-.21-.19-.44-.01-.66.18-.21.41-.22.62-.08.35.23.71.47,1.03.75.52.46,1.03.91,1.67,1.17.2.08.42.13.63.2.01-.03.03-.05.04-.08-.12-.16-.27-.31-.37-.49-.13-.22-.25-.46-.32-.7-.04-.12,0-.31.09-.4.06-.06.25-.02.37.01.12.03.23.09.34.14.02-.02.04-.05.06-.07-.1-.13-.2-.27-.32-.4-.3-.33-.57-.67-.64-1.12-.01-.1-.04-.21,0-.29.08-.14.18-.29.31-.36.06-.03.25.13.32.24.16.24.27.5.43.75.05.08.17.11.25.17.04-.09.12-.19.12-.28,0-.28-.06-.55-.06-.83,0-.36,0-.73.07-1.09.05-.25.25-.42.54-.42.27,0,.34.21.4.41.05.16.12.34.09.49-.1.43.1.78.29,1.12.47.87.93,1.74,1.12,2.71.14.69.2,1.4.12,2.15.11-.11.21-.2.31-.29.17-.15.38-.26.56-.11.1.09.13.31.13.47-.01.22-.09.45-.13.67-.02.1,0,.2,0,.3l.07.03c.06-.09.11-.19.17-.28.12-.18.26-.23.45-.11.33.2.51.66.43,1.1-.02.13,0,.27,0,.48.14-.11.21-.15.27-.21.3-.26.69-.33.9-.15.2.16.2.69.01.98-.18.27-.14.4.21.56.01-.15.02-.28.04-.41.04-.19.09-.39.33-.4.24-.01.41.15.44.37.04.23.09.51,0,.7-.24.5-.05.69.39,1.05-.02-.52-.02-.98-.07-1.44-.13-1.14-.46-2.21-1.05-3.2-.25-.42-.56-.76-.96-1.04-.44-.31-.84-.66-1.26-.99-.06-.05-.1-.12-.15-.18-.14-.21-.31-.42-.14-.68.11-.17.56-.17.81-.03.03.02.06.04.18.05-.02-.19-.03-.39-.07-.57-.07-.28-.28-.52-.18-.85.02-.06-.1-.18-.17-.26-.4-.41-.65-.9-.81-1.44-.03-.12,0-.34.08-.39.09-.06.28,0,.4.06.12.05.21.17.38.24-.02-.13-.03-.26-.06-.38-.09-.37.09-.8.4-1.01.16-.1.28-.05.34.09.1.22.22.46.25.69.08.56.32,1.01.77,1.36.18.14.35.29.56.46.06-.16.09-.28.15-.39.1-.19.19-.41.35-.53.11-.09.36-.11.48-.04.11.07.18.29.18.45,0,.18-.12.37-.11.55.02.31.06.63.18.91.1.23.31.21.42-.03.2-.43.41-.86.13-1.35-.07-.12,0-.39.1-.51.1-.12.33-.23.48-.2.26.05.35-.03.4-.25.07-.34.17-.68.19-1.02,0-.23-.08-.49-.2-.69-.18-.31-.2-.62-.15-.95.04-.24.21-.31.39-.18.27.2.51.45.8.73.1-.2.23-.42.33-.66.12-.28.22-.32.42-.11.14.14.29.3.33.48.18.81.38,1.63.14,2.47-.12.42-.25.83-.41,1.23-.29.71-.3,1.44-.22,2.17.06.57.2,1.13.31,1.69.17.86.15,1.72.03,2.58-.11.74-.31,1.47-.4,2.22-.12,1.04.14,2.05.38,3.06.16.66.15,1.34-.05,2.01-.05.17-.12.36-.24.47-.2.18-.17.35-.15.58.08.65.11,1.31.17,1.96.03.28.06.55.12.82.04.21.19.27.35.12.35-.35.7-.71,1.02-1.08.06-.07.04-.25,0-.34-.17-.35-.08-.66.13-.95.14-.2.34-.28.57-.15.14.08.23.06.28-.08.18-.52.37-1.04.52-1.58.08-.29-.01-.58-.18-.85-.18-.29-.33-.59-.46-.9-.06-.14-.09-.33-.05-.46.05-.16.18-.36.32-.4.22-.07.37.1.47.31.13.27.31.52.46.77.04,0,.09,0,.13,0,.1-.24.23-.46.28-.71.31-1.47.91-2.82,1.52-4.18.4-.89.58-1.87.81-2.82.31-1.28.78-2.49,1.53-3.56.36-.52.91-.9,1.4-1.33.21-.19.4-.37.45-.67.03-.17.15-.35.27-.48.19-.2.4-.17.59.04.07.08.17.17.27.2.32.1.53.37.4.66-.12.26-.29.56-.52.69-.33.18-.48.44-.56.76-.17.72-.33,1.45-.47,2.18-.04.24,0,.5,0,.81.31-.16.28-.39.31-.6.05-.33.08-.67.15-.99.02-.12.12-.23.21-.32.25-.25.63-.17.74.16.14.41.09.82-.13,1.2-.08.15-.16.3-.28.53.14-.06.2-.08.26-.11.42-.2.83-.42,1.26-.6.52-.22.87-.58,1.03-1.12.05-.16.13-.31.23-.45.12-.17.29-.22.46-.06.14.14.26.13.42.03.17-.11.39-.24.54-.05.12.15.17.4.15.6-.04.42-.31.74-.62,1.02-.3.27-.6.55-.88.84-.11.11-.2.26-.3.39.02.02.03.05.05.07.11-.02.21-.04.32-.07.12-.03.25-.09.37-.1.3-.03.5.2.38.47-.11.24-.26.53-.47.66-.71.44-1.12,1.05-1.41,1.84-.62,1.69-1.67,3.13-2.94,4.4-.76.76-1.36,1.65-2.03,2.49-.6.76-1.3,1.44-1.99,2.13-.5.51-1.05.97-1.57,1.46-.8.76-1.31,1.7-1.61,2.74-.34,1.21-.58,2.45-.92,3.67-.24.89-.6,1.74-.85,2.63-.16.57-.27,1.16-.31,1.75-.04.49.29.67.71.42,1.04-.63,1.94-1.39,2.62-2.42.58-.88,1.18-1.75,1.86-2.54.44-.51,1.04-.88,1.57-1.31.34-.28.66-.6,1.03-.86.52-.37,1.08-.69,1.61-1.05.53-.36,1.07-.72,1.57-1.11.25-.19.38-.45.16-.78-.12-.18-.14-.43.05-.58.14-.11.35-.12.54-.15.07-.01.15.04.23.06.29.07.48-.05.5-.34.04-.43.2-.71.67-.82.45-.11.57-.52.64-.92.15-.79.31-1.58.43-2.37.15-.92.11-1.84,0-2.76-.12-.93-.41-1.82-.8-2.67-.21-.45-.07-.72.35-.83.02,0,.04-.01.06-.01.32-.04.95.39,1,.71.06.4.25.71.49,1.03.24.32.39.7.58,1.06.04.08.05.18.11.24.08.1.19.18.28.27.04-.11.1-.23.11-.34.02-.42.13-.61.44-.73.29-.1.49.02.52.33,0,.08-.02.16,0,.24.01.08.05.16.08.24.07-.04.14-.08.2-.13.05-.03.09-.08.14-.11.43-.26.64-.64.77-1.12.06-.21.2-.44.38-.57.22-.17.49-.15.71.06.2.19.24.53.1.83-.22.5-.45.99-.67,1.49-.03.08-.05.16-.02.27.1-.14.17-.3.3-.4.12-.09.32-.19.44-.15.11.04.22.26.23.4.02.42-.14.79-.51,1.15.15-.02.22-.01.28-.04.87-.37,1.62-.92,2.19-1.65.39-.5.61-1.13.92-1.69.21-.37.42-.74.69-1.06.34-.41.72-.3.95.23.02,0,.04.01.06,0,.15-.01.4-.07.42-.03.07.16.09.35.08.53,0,.13-.09.26-.15.45.13-.04.19-.08.24-.07.13,0,.31,0,.37.07.07.09.09.29.04.4-.12.29-.3.56-.45.84-.04.08-.08.16-.13.23.02.02.04.04.06.05.05-.03.12-.04.16-.08.32-.29.66-.58.95-.9.16-.17.27-.39.35-.61.18-.46.47-.83.87-1.1.13-.08.32-.06.49-.09,0,.18.07.38,0,.52-.1.23-.28.43-.43.64-.07.1-.15.2-.19.34.24-.12.48-.24.73-.36.09-.04.19-.09.28-.09.18,0,.47,0,.51.08.06.16.05.44-.06.57-.26.3-.58.56-.88.82-.1.08-.22.13-.33.19.18.58.09.82-.48,1.11-.3.15-.63.25-.95.35-.44.13-.82.35-1.11.71-.09.11-.18.25-.21.39-.03.11.04.24.06.35.11-.05.22-.09.32-.15.05-.04.08-.11.11-.17.09-.2.24-.33.47-.28.22.05.39.18.42.44,0,.08.05.15.08.23.08-.05.18-.09.23-.16.15-.21.33-.33.57-.16.24.16.28.41.12.68-.08.13-.16.26-.24.39.02.02.04.04.06.06.08-.06.17-.11.24-.17.38-.32.82-.54,1.31-.58.25-.02.54.03.77.13.36.17.38.6.06.82-.18.12-.41.22-.63.25-.7.12-.92.46-.71,1.24.11-.08.21-.14.29-.22.16-.15.3-.35.48-.48.61-.44,1.24-.85,1.86-1.27.07-.05.16-.07.25-.1.23-.07.33-.22.34-.46.01-.19.04-.4.13-.57.06-.11.26-.25.36-.22.13.03.26.19.32.33.06.13.02.29.03.44,0,.06.02.13.04.23.37-.28.5-.67.63-1.05.12-.34.22-.68.36-1.01.06-.15.18-.29.31-.39.24-.17.48-.08.64.16.2-.04.4-.14.56-.1.43.1.58.49.37.89-.08.15-.18.29-.3.41-.49.51-.78,1.12-1.01,1.77-.1.29-.2.58-.3.87-.02.07-.03.14-.04.18.19,0,.41-.07.51.01.2.15.18.41.08.63-.08.17-.17.33-.26.5-.04.08-.1.16-.15.23.02.03.04.06.06.08.14-.07.3-.11.42-.2.18-.12.35-.26.5-.42.35-.35.77-.34,1.19-.22.27.08.32.31.1.49-.17.13-.38.21-.57.32-.1.06-.2.14-.29.21.01.02.03.05.04.07.06-.02.12-.02.17-.05.08-.04.15-.1.22-.15.24-.15.56-.14.69.02.13.17.08.43-.19.61-.27.18-.58.29-.86.44-.32.17-.64.34-.93.56-.34.26-.62.58-.96.85-.69.55-1.23,1.21-1.7,1.96-.33.53-.78.97-1.17,1.46-.1.12-.19.24-.33.42.21.04.35.05.48.1.13.05.32.11.35.21.03.1-.06.31-.16.37-.38.22-.78.41-1.18.6-.1.05-.21.08-.32.12,0,.03-.01.06-.02.09.26.14.51.29.77.41.25.12.46.26.45.59,0,.22.16.18.3.12.67-.29,1.36-.56,2.02-.88,1.03-.5,2.06-.98,3.05-1.55.59-.34,1.11-.81,1.44-1.43.26-.49.16-1.03.14-1.55-.02-.38.06-.48.43-.52.36-.04.57.12.6.49.02.22,0,.45,0,.68.03,0,.05,0,.08.01.01-.1,0-.22.05-.31.07-.15.13-.36.25-.41.22-.09.47.04.52.27.07.32.13.67.07.99-.1.52-.31,1.02-.44,1.54-.1.43-.15.87-.24,1.38.26-.13.41-.25.58-.28.15-.03.34,0,.48.06.19.08.34.27.25.48-.06.14-.24.22-.38.32-.07.05-.15.07-.23.1.05.08.09.2.16.22.47.16.93.33,1.41.42.18.03.44-.1.61-.23.37-.3.79-.37,1.23-.29.11.02.27.18.28.28.01.12-.09.28-.19.38-.1.1-.25.15-.37.24-.05.04-.11.15-.09.19.03.06.13.12.2.14.1.03.22,0,.32.02.09.03.22.1.24.18.02.08-.04.22-.11.27-.4.31-.87.43-1.35.33-.85-.17-1.62.04-2.37.37-1.04.45-2.06.96-3.11,1.38-1.82.73-3.71,1.09-5.67,1-.79-.03-1.59.02-2.39.02-.23,0-.37.02-.38.31,0,.1-.19.23-.31.27-.11.04-.26-.01-.37-.06-.84-.34-1.6-.15-2.35.31-1.9,1.18-3.8,2.39-5.84,3.33-.95.44-1.9.9-2.81,1.43-.67.39-1.3.87-1.9,1.37-.41.35-.83.65-1.33.88-.46.21-.94.45-1.32.79-.39.35-.67.83-.99,1.26-.06.08-.1.17-.14.26-.15.37-.05.6.34.7.73.18,1.47.3,2.21.13,1.38-.31,2.74-.64,4.12-.94.27-.06.56-.09.83-.07,1.68.12,3.24-.37,4.78-.94,1.25-.46,2.51-.88,3.62-1.64,1.05-.72,2.08-1.45,3.14-2.15.65-.43,1.34-.81,2.01-1.2.9-.52,1.85-.96,2.69-1.57,1.2-.87,2.32-1.86,3.46-2.82.21-.17.36-.42.53-.63.09-.11.15-.23.24-.34.21-.24.37-.21.53.06.02.04.04.08.11.2.05-.17.07-.28.12-.37.06-.11.15-.29.22-.29.16,0,.42.06.46.16.09.24.15.54.07.76-.14.4-.37.76-.59,1.12-.21.34-.47.66-.7,1-.04.06-.1.14-.1.21,0,.12.02.24.03.37.11-.05.22-.08.32-.14.23-.13.43-.32.68-.4.14-.05.4.03.49.14.09.11.07.36,0,.51-.06.16-.23.27-.35.4-.18.2-.16.28.1.37.57.2,1.15.02,1.54-.48.09-.12.17-.26.29-.33.14-.08.35-.17.48-.12.13.05.2.26.28.41.03.06.02.15.03.25.05-.01.1-.01.12-.03.15-.1.32-.17.46-.01.14.16.26.36.14.57-.14.22-.3.45-.5.62-.75.64-1.64,1.01-2.58,1.31-1.59.5-3.16,1.08-4.6,1.93-.17.1-.32.23-.47.36-.05.04-.08.15-.06.21.02.05.13.09.19.08.23-.03.49-.08.6.18.11.25-.07.46-.24.63-.47.48-1.04.76-1.69.88-.71.13-1.42.11-2.14.04-.7-.06-1.38.11-2.04.34-.57.19-1.16.35-1.73.53-.12.04-.24.08-.36.12,0,.04,0,.07.01.07.61.18,1.22.26,1.81-.08.19-.11.41-.22.62-.26.32-.06.47.14.34.44-.06.15-.16.29-.28.48.14.02.25.04.36.05,1.41.1,2.82.16,4.22.33.86.11,1.7.37,2.55.61.87.24,1.72.55,2.59.78.53.14,1.1.16,1.64.24.22.03.44.02.65.07.16.04.29.17.44.26-.1.15-.16.35-.29.44-.47.32-1.03.4-1.58.46-.42.05-.85.1-1.25.23-.52.16-.62.56-.25.96.4.45.85.85,1.25,1.3.22.24.43.5.58.78.16.31,0,.48-.35.4-.16-.04-.32-.11-.47-.18-.15-.06-.29-.13-.39.1-.03.08-.24.15-.32.12-.24-.11-.48-.23-.67-.41-.22-.21-.38-.48-.57-.72-.36-.45-.85-.7-1.39-.86-.06-.02-.16.04-.23.09-.01,0,.02.14.07.17.27.2.21.39,0,.6.36.37.07.67-.12.97.03.03.04.05.06.05.21.02.44,0,.48.28.04.28-.13.46-.35.61-.13.09-.43.06-.36.3.04.13.28.25.45.27.45.07.9.1,1.36.13.09,0,.2-.08.28-.15.22-.2.42-.42.65-.61.18-.15.38-.3.59-.39.24-.1.51-.12.72.1.15.16.15.52-.03.75-.13.16-.3.28-.47.4-.14.1-.31.18-.45.28-.05.04-.1.15-.09.2.02.06.12.12.18.12.2-.01.39-.05.58-.09.15-.03.29-.08.43-.11.4-.08.65.21.55.6-.1.39-.39.63-.76.68-.54.07-1.05.19-1.55.38-.24.09-.53.09-.79.09-1.16.02-2.33.03-3.49.03-.42,0-.77.17-1.11.38-.28.18-.24.47-.11.69.25.42.51.86.86,1.2.57.57,1.21,1.06,1.81,1.59.25.22.49.47.72.71.25.27.45.57.52.95.05.29.1.6-.19.74-.17.08-.42-.01-.64-.03-.01-.03-.02-.06-.03-.09-.01.09-.02.19-.04.28-.03.22-.04.44-.12.64-.04.12-.18.27-.29.28-.11.02-.28-.09-.36-.19-.11-.14-.2-.33-.24-.5-.14-.56-.5-.86-1.06-.94-.36-.05-.72-.07-1.13-.11.07.27.15.48.18.7.08.54-.16.9-.61.94-.38.03-.59-.17-.48-.54.12-.38.02-.71-.19-.98-.3-.38-.61-.76-.99-1.05-.73-.56-1.51-1.05-2.27-1.57-.6-.42-1.25-.78-1.8-1.27-.82-.73-1.61-1.51-2.33-2.33-.88-1.01-1.68-2.09-2.52-3.13-.46-.57-.99-1.07-1.65-1.38-.28-.13-.61-.17-.9-.28-1.58-.6-3.16-1.24-4.75-1.81-1.17-.42-2.31-.97-3.56-1.14-1.47-.2-2.93-.42-4.42-.15-.19.03-.39.09-.58.14-.34.1-.68.2-1.02.33-.17.06-.35.15-.49.27-.96.75-1.96,1.47-2.87,2.27-1.19,1.05-2.36,2.12-3.37,3.36-.43.53-.63,1.14-.76,1.78-.26,1.27-.57,2.54-.76,3.82-.19,1.24-.48,2.47-.32,3.75.17,1.33.6,2.53,1.26,3.69.96,1.7,2.32,3.06,3.66,4.45.59.61,1.22,1.19,1.86,1.76,1.26,1.13,2.15,2.51,2.8,4.06.35.83.76,1.64,1.03,2.5.3.94.49,1.92.7,2.88.11.48.19.98.23,1.47.15,1.97-.61,3.46-2.32,4.49-1.34.81-2.66,1.65-3.98,2.51-1.08.7-1.99,1.6-2.81,2.59-.45.54-.94,1.06-1.41,1.58-.43.47-.77,1-.99,1.61-.26.7-.73,1.27-1.26,1.79-1.16,1.13-2.34,2.23-3.52,3.34-.1.09-.22.16-.32.25-.02-.02-.04-.03-.06-.05.07-.15.15-.3.22-.45-.01-.02-.03-.05-.04-.07-.23.12-.45.24-.68.36-.02-.02-.04-.03-.06-.05.11-.14.21-.29.33-.42.74-.78,1.49-1.54,2.23-2.32.45-.49.92-.97,1.3-1.51.33-.45.55-.98.82-1.48.18-.33.32-.69.55-.98,1.34-1.68,2.78-3.27,4.42-4.66.88-.75,1.94-1.29,2.93-1.91.58-.36,1.19-.68,1.75-1.06.81-.55,1.27-1.38,1.65-2.25.04-.09.03-.21.03-.32-.02-1.02-.25-1.99-.54-2.97-.58-1.94-1.49-3.73-2.32-5.57-.25-.56-.6-1-1.03-1.4-1.31-1.23-2.63-2.45-3.94-3.68-1.17-1.09-2.22-2.27-3.03-3.65-.18-.31-.39-.6-.61-.88-.63-.83-.84-1.8-1-2.8-.32-2.02-.81-4-1.86-5.77-.44-.74-1.03-1.38-1.58-2.05-.96-1.18-2.23-1.92-3.58-2.55-.25-.11-.48-.08-.74-.03-.44.09-.91.07-1.36.15-.48.09-.98.2-1.43.39-.68.29-1.14.85-1.24,1.57-.13.93-.43,1.81-.68,2.7-.12.45-.11.93-.22,1.38-.39,1.58-1.3,2.82-2.56,3.81-.68.53-1.42.98-2.15,1.44-.24.15-.35.33-.44.61-.22.7-.5,1.38-.83,2.03-.22.44-.58.8-.84,1.22-.19.32-.33.67-.46,1.02-.14.35-.26.71-.37,1.07-.06.21-.11.44-.11.67-.01.55,0,1.09.01,1.64,0,.29-.09.54-.33.7-.1.07-.28.13-.37.09-.11-.05-.22-.22-.22-.34-.02-.28.03-.57.05-.93-.09.13-.16.21-.21.3-.44.77-.56,1.6-.5,2.47.03.42,0,.85-.05,1.28-.02.2-.14.41-.26.59-.06.09-.23.17-.32.15-.09-.03-.19-.18-.21-.29-.05-.21-.03-.44-.07-.65-.02-.1-.09-.18-.14-.27-.08.08-.19.14-.23.24-.07.16-.09.35-.16.51-.1.23-.2.47-.34.68-.06.09-.25.17-.32.14-.11-.05-.24-.21-.25-.33-.03-.3,0-.61.01-.92.05-.68.11-1.37.19-2.05.08-.71.2-1.41.3-2.12.02-.15.04-.31.06-.46-.03-.02-.06-.04-.08-.06-.12.08-.25.16-.36.26-.48.46-.94.94-1.42,1.4-.14.14-.31.26-.48.34-.08.04-.23-.01-.31-.07-.04-.03-.04-.19,0-.26.16-.26.34-.51.5-.77.05-.09.07-.2.11-.3-.1-.02-.2-.06-.3-.06-.2,0-.4.04-.59,0-.14-.03-.35-.14-.36-.24-.01-.13.1-.34.22-.4.7-.33,1.41-.63,2.12-.94.14-.06.3-.11.42-.21.36-.31.7-.64,1.05-.97.07-.07.13-.16.19-.25-.02-.04-.03-.07-.05-.11-.24.07-.49.12-.73.21-.3.11-.6.2-.92.07-.27-.11-.33-.32-.16-.54.23-.3.51-.47.91-.53,1.26-.21,2.3-.83,3.13-1.81.05-.06.08-.13.12-.22-.04-.02-.08-.06-.11-.06-.52.1-1.03.26-1.39.67-.29.32-.63.52-1.05.57-.14.02-.33,0-.41-.09-.17-.17-.32-.14-.5-.06-1.35.58-2.56,1.39-3.66,2.37-.2.18-.4.35-.62.51-.13.1-.29.18-.44.23-.32.09-.48-.05-.45-.38,0-.05,0-.1.01-.15,0,0-.01-.02-.05-.07-.09.04-.2.07-.29.13-.6.39-1.21.76-1.78,1.18-.35.25-.67.26-1.03.08-.32-.16-.34-.31-.08-.55.03-.03.06-.06.08-.09.01-.01,0-.04.02-.09-.12-.03-.25-.04-.35-.1-.12-.07-.28-.18-.29-.29-.01-.12.09-.32.19-.38.19-.11.42-.17.64-.21.32-.06.54-.2.69-.49.1-.19.29-.33.41-.51.07-.11.13-.28.1-.4-.02-.06-.23-.1-.35-.12-.13-.02-.26.03-.39.01-.13-.02-.35-.07-.35-.11,0-.15.03-.33.11-.46.08-.13.23-.2.41-.36-.2-.05-.34-.1-.48-.11-.58-.05-1.17-.08-1.75-.12-.27-.02-.53-.06-.79-.12-.21-.04-.4-.19-.37-.4.02-.16.16-.39.29-.42.38-.1.78-.12,1.17-.16.15-.02.3-.03.45-.04v-.12c-.2-.03-.41-.05-.61-.08-.21-.03-.44-.03-.64-.11-.26-.1-.3-.32-.06-.47.24-.15.51-.32.78-.33.93-.06,1.77-.43,2.62-.73.89-.31,1.79-.3,2.71-.21.37.04.39.04.34-.33-.05-.39-.12-.78-.19-1.17-.02-.11-.09-.21-.16-.32-.09.46-.38.69-.79.81-.24.07-.46.03-.61-.19-.14-.22-.02-.39.12-.56.2-.25.39-.5.56-.76.05-.08.09-.2.06-.28-.04-.15-.13-.28-.2-.43-.12.07-.28.11-.34.22-.25.46-.46.94-.72,1.4-.25.45-.52.89-.81,1.31-.08.11-.33.2-.45.15-.12-.04-.24-.26-.25-.41-.05-.65.23-1.22.54-1.77.3-.53.65-1.02.99-1.52.12-.18.28-.34.43-.53-.2-.02-.43-.08-.66-.06-.57.05-1.14.15-1.71.2-.69.06-1.37.02-2.02-.26-.26-.11-.53-.21-.45-.6,0-.04-.18-.14-.28-.19-.24-.12-.51-.21-.72-.37-.1-.08-.15-.3-.13-.44.01-.07.23-.12.37-.16.1-.04.25-.02.3-.09.25-.36.59-.25.92-.19.08.01.16.05.26.06-.23-.26-.42-.52-.13-.88-.26-.04-.49-.05-.7-.12-.24-.08-.48-.19-.68-.35-.22-.18-.14-.4.14-.48.12-.03.23-.06.35-.09,0-.03,0-.06,0-.08-.08-.02-.16-.03-.23-.06-.22-.08-.41-.21-.4-.46.02-.26.25-.35.46-.33.39.05.77.15,1.15.25.44.11.87.29,1.31.32.95.07,1.91.08,2.86.09.29,0,.53.07.78.22.6.35,1.2.69,1.82.99.4.19.83.31,1.29.44-.09-.08-.18-.16-.27-.25-.16-.15-.36-.29-.21-.55.11-.19.45-.24.67-.09.19.13.37.3.52.48.17.21.28.29.58.17.97-.39,1.98-.7,2.96-1.08.73-.28,1.43-.62,2.15-1.02-.16-.03-.31-.07-.47-.09-1.58-.13-3.13-.39-4.62-.94-.57-.21-1.13-.44-1.69-.65-.28-.1-.53-.07-.82.06-.37.16-.8.19-1.21.24-.21.03-.4-.11-.38-.32,0-.12.17-.28.31-.34.19-.09.41-.12.68-.19-.11-.07-.16-.12-.22-.13-1.21-.36-2.24-1.03-3.23-1.79-.35-.27-.78-.46-1.18-.67-.18-.1-.4-.14-.44-.39-.04-.25.14-.45.48-.49.25-.03.43-.06.46-.37.01-.09.27-.25.39-.23.46.1.94.19,1.35.4.71.35,1.39.77,2.06,1.19.81.52,1.72.76,2.65.93.27.05.53.09.81.08-.65-.33-1.2-.88-2.02-.79-.25.03-.51-.02-.76-.1-.11-.03-.24-.19-.26-.31-.01-.08.14-.21.24-.28.1-.07.22-.11.34-.16,0-.03,0-.06,0-.1-.16-.06-.32-.11-.47-.19-.24-.13-.5-.25-.7-.43-.1-.09-.1-.3-.14-.45.13-.03.27-.08.4-.1.14-.01.28.02.42.02.07,0,.18-.04.19-.09.02-.05-.03-.15-.08-.2-.24-.23-.52-.44-.74-.69-.31-.35-.56-.74-.86-1.08-.12-.13-.3-.25-.47-.29-.79-.21-1.6-.39-2.39-.6-.32-.08-.63-.19-.92-.34-.78-.39-1.59-.56-2.45-.35-.89.22-1.8.41-2.67.68-.36.11-.72.36-1,.62-.69.66-1.42,1.23-2.35,1.54-.2.07-.39.19-.58.31-.42.27-.9.37-1.39.4-.04,0-.08,0-.12,0-.24-.03-.5-.06-.59-.32-.09-.26.1-.42.3-.56.04-.03.07-.06.14-.13-.21-.06-.38-.1-.54-.16-.34-.13-.41-.42-.11-.62.26-.17.56-.28.85-.41.14-.06.29-.11.5-.18-.12-.07-.17-.11-.23-.14-.32-.11-.39-.28-.21-.56.16-.25.38-.4.68-.44.14-.02.29-.04.43-.06-.08-.37.02-.57.41-.65.23-.05.48.02.72.04.04,0,.08.04.11.04.36-.05.71-.11,1.17-.18-.17-.12-.28-.19-.39-.27-.17-.12-.25-.22-.08-.45.29-.37.69-.4,1.08-.46.2-.03.42,0,.62-.04.1-.02.19-.11.28-.18-.07-.05-.13-.12-.2-.16-.15-.09-.17-.22-.05-.31.24-.18.49-.37.76-.49.24-.11.52-.11.78-.18.07-.02.13-.1.19-.16-.07-.06-.13-.15-.21-.18-.14-.05-.29-.06-.44-.09-.43-.08-.83-.2-.82-.84-.21.12-.36.2-.49.3-.31.23-.63.45-1.04.48-.21.01-.38,0-.45-.27-.07-.24-.21-.14-.33-.02-.28.3-.63.46-1.04.39-.15-.02-.35-.15-.4-.27-.04-.1.11-.28.2-.41.04-.07.12-.11.18-.16-.02-.02-.04-.05-.05-.07-.12.08-.24.15-.35.23-.38.26-.79.44-1.25.24-.32-.14-.34-.26-.09-.49.12-.11.27-.2.4-.31.04-.03.1-.11.09-.13-.03-.05-.09-.11-.14-.12-.27-.04-.55-.07-.83-.11-.22-.03-.43-.06-.64-.12-.26-.07-.38-.24-.34-.51.04-.27.26-.24.44-.24.2,0,.4.02.6.01.11,0,.22-.04.33-.1-.3-.2-.58-.39-.95-.43-.29-.03-.57-.13-.86-.21-.19-.05-.23-.18-.23-.36,0-.2.03-.37.23-.47.32-.17.62-.07.92.06.52.22,1.02.47,1.54.7.19.08.4.12.6.17.28.07.51.02.7-.23.19-.26.52-.31.85-.06.39.3.8.37,1.27.34.36-.02.73.06,1.1.05.2,0,.4-.09.6-.11.16-.02.39-.05.47.03.41.44.98.46,1.48.65,1.44.53,2.76,1.29,4.05,2.13,1.42.92,2.8,1.91,4.38,2.57.57.24,1.14.45,1.71.67.08.03.17.03.2.04ZM76.02,72.79s.07.02.11.03c.06-.05.12-.09.17-.15.31-.39.6-.79.91-1.17.21-.26.4-.56.67-.75,1.25-.87,2.33-1.91,3.45-2.93.59-.54,1.25-1,1.89-1.49.18-.14.4-.23.57-.38.52-.46,1.04-.92,1.52-1.42.46-.49.91-1,1.3-1.55.6-.83,1.15-1.68,2.07-2.22.31-.18.62-.46.78-.77.21-.4.27-.87.38-1.31.18-.76.38-1.53.91-2.11.58-.63.62-1.89.13-2.52-.14-.18-.25-.39-.31-.61-.07-.26-.13-.55-.07-.8.04-.18.28-.32.44-.48.1.17.21.33.29.51.09.21.13.46.25.65.04.07.24.06.36.09.02-.1.04-.2.06-.33-.15.1-.23.15-.31.2-.02-.11-.07-.23-.04-.32.04-.12.15-.23.22-.34.12-.17.3-.33.36-.53.13-.43.21-.87.28-1.31.05-.3-.08-.45-.39-.48-.28-.03-.55-.05-.83-.06-1.51-.06-3.02,0-4.42.59-2.18.93-4.1,2.28-5.76,3.95-1.29,1.3-2.48,2.71-3.74,4.05-1.88,2.01-2.41,4.3-1.47,6.9.39,1.07.53,2.17.36,3.31-.12.8-.2,1.61-.24,2.42-.02.44.06.88.09,1.32ZM64.04,57.73s.04.03.05.04c.02.09.04.17.06.26.2.81.48,1.6.6,2.42.24,1.66.38,3.33.61,5,.15,1.12.33,2.24.85,3.27.42.83.88,1.65,1.3,2.48.53,1.05,1.26,1.95,2.05,2.8,1.1,1.18,2.2,2.35,3.3,3.52.09.1.2.2.3.28.13.1.22.06.25-.1.07-.4.17-.8.18-1.2.07-1.48.09-2.96.17-4.44.09-1.71.1-3.41-.26-5.1-.28-1.29-.67-2.53-1.35-3.66-.24-.41-.52-.8-.78-1.2-.7-1.06-1.38-2.13-2.09-3.18-.66-.98-1.4-1.91-1.71-3.08-.07-.26-.26-.39-.51-.49-.47-.19-.84-.53-1.08-.98-.07-.12-.03-.35.04-.49.09-.18.28-.14.45-.06.06.03.13.06.19.07.07,0,.19.01.21-.02.03-.06.04-.19,0-.24-.17-.19-.36-.37-.56-.53-.03-.03-.19.03-.23.09-.49.87-.93,1.76-.88,2.8.02.37-.14.65-.44.86-.13.09-.28.17-.38.29-.14.18-.24.39-.36.58ZM47.23,66.52c.27.37.58.68.77,1.05.54,1.06,1.41,1.8,2.33,2.5.91.69,1.81,1.39,2.67,2.14.55.48,1,1.07,1.49,1.62.3.33.65.4,1.08.3.59-.14,1.18-.19,1.8-.11.52.07,1.08.08,1.59-.03.53-.11,1.04-.38,1.55-.59,1.47-.61,2.97-.66,4.49-.27.26.07.51.15.77.23-.48-.45-.99-.85-1.47-1.28-1.17-1.06-2.44-1.94-3.93-2.46-1.18-.42-2.31-.93-3.36-1.63-.31-.2-.72-.3-1.09-.34-1.04-.11-2.08-.15-3.12-.26-.39-.04-.78-.13-1.16-.25-.46-.14-.9-.36-1.37-.48-.99-.26-1.99-.32-3.03-.15ZM99.58,69.97s0,.07,0,.11c.23-.02.47-.03.7-.05.42-.04.57.07.6.48.01.21.14.31.31.25.18-.07.39-.18.49-.34.49-.73,1.69-.58,2.21-.09.18.17.14.35-.11.41-.25.06-.51.08-.76.12-.17.03-.35.07-.52.13-.07.03-.16.12-.16.18,0,.06.1.13.17.17.22.1.47.16.68.28.51.29,1.05.41,1.62.41.28,0,.49-.07.64-.33.2-.34.62-.53.89-.37.29.17.46.07.69-.08.29-.19.66-.35.94-.12.23.18.43.28.71.35.13.03.28.28.3.45.04.24-.21.2-.37.24-.13.03-.26.02-.38.06-.11.04-.2.14-.29.21.09.1.16.26.26.28.69.12,1.38.29,2.08.31,1.19.04,2.3-.4,3.42-.71.28-.08.52-.31.76-.5.17-.13.18-.27-.04-.41-.23-.15-.43-.35-.64-.53-.11-.1-.18-.24-.3-.33-.45-.31-.92-.54-1.46-.68-.96-.24-1.89-.59-2.83-.89-.12-.04-.25-.05-.37-.07-.01.03-.02.05-.04.08.17.27.34.53.5.8.06.1.07.23.11.35-.14.03-.28.06-.42.07-.07,0-.15-.04-.22-.07-.57-.22-.74-.76-.99-1.24-.11-.2-.23-.43-.41-.55-.52-.36-1.08-.67-1.63-.99-.04-.02-.1-.02-.15-.03-.02.03-.04.05-.06.08.18.19.34.39.54.56.24.21.51.38.74.59.08.07.16.23.12.3-.03.08-.2.17-.29.15-.33-.07-.69-.13-.97-.3-.48-.3-.74-.81-.88-1.34-.11-.45-.38-.65-.81-.7-.12-.01-.24-.02-.36-.02-1.45,0-2.9-.03-4.35-.02-.65,0-1.31.05-1.95.14-.34.05-.68.21-1,.37-.24.12-.26.39-.05.49.08.04.24-.02.31-.09.43-.39.83-.35,1.13.13.05.07.12.13.18.19.3.26.26.54-.11.67-.16.06-.35.04-.53.04-.09,0-.18-.02-.32-.04.04.12.05.18.08.24.28.49.95.69,1.52.44.4-.18.82-.27,1.25-.17.15.04.34.19.38.34.08.23-.06.42-.31.5-.1.03-.2.07-.3.1ZM56.28,50.88c0-.15.01-.25,0-.34-.09-.51-.19-1.01-.29-1.52-.13-.63-.45-1.15-.91-1.6-.23-.23-.4-.54-.58-.82-.05-.07-.06-.19-.04-.28.07-.34.04-.39-.31-.5-.31-.09-.64-.16-.92-.32-.81-.46-1.59-.97-2.38-1.45-.13-.08-.26-.15-.43-.25,0,.15,0,.22,0,.3.05.76.09,1.53.16,2.29.08.76.17,1.52.31,2.26.04.21.2.46.38.55.27.14.36.32.4.57.02.17.04.34,0,.5-.11.48.06.88.33,1.24.08.11.26.23.38.22.33-.04.41.12.4.38-.03.59.4.94.67,1.37.43-.26.5-.19.56.29.02.21.13.44.27.6.25.3.56.56.84.84.18.17.35.35.54.51.06.05.16.04.24.05,0-.08.06-.19.02-.25-.08-.12-.2-.21-.3-.31-.22-.23-.5-.43-.65-.7-.22-.38-.03-.66.4-.68.23-.01.26-.1.2-.3-.05-.17-.11-.35-.09-.52.03-.19.1-.43.24-.52.2-.13.41.02.57.19.09.09.19.17.32.29.01-.11.02-.15.02-.18-.01-.36-.3-.51-.52-.72-.28-.26-.55-.53-.78-.84-.08-.11-.07-.37,0-.48.06-.08.3-.07.45-.05.15.02.29.11.5.19ZM76,43.92c-.07.12-.11.18-.14.23-.69,1.3-1.37,2.59-2.07,3.89-.57,1.07-1.12,2.15-1.15,3.41-.01.68-.07,1.37-.12,2.05-.11,1.38-.36,2.76-.29,4.16.03.57.17,1.1.45,1.58.25.43.44.45.77.09.03-.04.06-.08.09-.12.35-.53.52-1.12.66-1.73.21-.91.45-1.83.77-2.71.41-1.13.9-2.23,1.04-3.44.12-1.13.23-2.27.28-3.41.07-1.31-.05-2.62-.29-3.99ZM99.91,53.59s.06-.01.08-.02c.03-.1.06-.19.08-.29.04-.27.06-.55.11-.83.04-.19.14-.33.37-.32.21.01.36.1.41.32.02.1.08.18.12.27.1-.06.23-.1.29-.19.3-.44.58-.9.86-1.36.02-.03,0-.07,0-.13-.08,0-.15-.01-.21,0-1.36.11-2.69-.08-4.03-.26-.74-.1-1.5-.13-2.25-.19-.18-.01-.31.03-.35.24-.07.33-.16.65-.24.98-.05.23-.1.47-.15.74.1-.02.14-.02.17-.04.35-.11.66,0,.76.26.11.26-.03.52-.36.69-.06.03-.13.05-.19.08-.27.14-.56.26-.82.42-.43.28-.58.76-.78,1.2.12-.06.21-.18.33-.21.16-.04.37-.08.49,0,.09.05.13.33.07.44-.11.21-.28.41-.47.54-.18.12-.43.15-.65.21-.41.12-.75.36-.83.77-.12.64-.19,1.29-.2,1.94,0,.43.26.52.62.27.33-.23.66-.48,1.02-.67.89-.49,1.74-1.03,2.45-1.77.27-.28.53-.57.82-.82.5-.45,1-.91,1.55-1.29.26-.18.32-.31.25-.59-.05-.21-.05-.45-.01-.67.02-.12.16-.23.24-.34.09.1.19.19.27.29.08.1.14.22.21.33ZM59.77,52.36s.07-.02.1-.04c-.07-.5-.12-.99-.21-1.49-.04-.23-.11-.46-.19-.69-.04-.11-.14-.2-.21-.3-.08.09-.17.18-.22.29-.08.17-.13.35-.17.54-.18.85-.44,1.7-.22,2.58.02.09-.01.2-.03.29-.21.9-.63,1.71-1.11,2.49-.34.55-.38,1.09-.17,1.68.09.25.17.51.27.76.47,1.14.83,2.31,1.11,3.51.28,1.2.45,2.44,1,3.57.25.51.47,1.03.94,1.39.34.26.62.22.86-.13.62-.9.77-1.92.52-2.96-.14-.56-.45-1.07-.68-1.61-.42-.97-.86-1.94-1.24-2.93-.18-.46-.19-.98-.38-1.43-.45-1.1-.63-2.21-.21-3.36.17-.48.08-.87-.27-1.26-.23-.26-.39-.59-.54-.91-.05-.11,0-.35.09-.41.09-.07.31-.04.43.02.19.1.35.26.52.39ZM70.67,49.12c.04-.13.05-.15.05-.17-.2-1.1-.05-2.13.6-3.07.04-.06.07-.14.1-.22.31-1.03.25-2.04-.2-3.02-.17-.37-.29-.38-.58-.08-.57.61-1.14,1.22-1.7,1.83-.09.09-.16.2-.24.3.02.02.04.05.07.07.13-.08.26-.17.39-.23.36-.15.72-.31,1.1-.41.13-.03.35.07.46.18.07.08.07.33,0,.41-.21.23-.45.44-.71.6-.27.16-.58.25-.87.38-.09.04-.15.13-.22.2.01.03.03.07.04.1.15-.02.29-.03.44-.06.26-.05.52-.15.78-.14.16,0,.4.16.45.3.05.14-.05.38-.15.52-.24.33-.62.25-.96.25-.33,0-.65,0-.66.45,0,.05-.06.11-.07.16-.01.08-.04.18,0,.25.21.37.16.74.08,1.13-.04.19-.05.41.01.58.24.6.32,1.22.34,1.86.01.4.01.8.05,1.19.08.76.2,1.52.58,2.2.1.18.23.4.45.3.14-.07.29-.29.3-.46.03-.29-.07-.58-.08-.88-.02-1.12-.05-2.24-.04-3.36,0-.23-.03-.36-.22-.49-.45-.31-.78-1.18-.64-1.7.03-.12.18-.21.27-.32.09.09.21.17.27.28.11.21.17.44.26.66.05.12.13.22.24.39ZM96.26,46.62s.05.03.07.05c.1-.07.21-.13.28-.23.2-.28.4-.57.57-.87.24-.43.53-.82.95-1.08.12-.08.34-.11.45-.05.17.09.27.28.13.51-.14.24-.26.5-.39.76-.04.09-.08.18-.16.35.16-.09.24-.13.32-.17,1.26-.61,2.49-1.26,3.78-1.8.99-.42,1.86-.96,2.61-1.72.11-.11.18-.25.27-.37-.02-.02-.05-.05-.07-.07-.08.02-.17.03-.25.06-.41.15-.81.32-1.23.45-.63.2-1.26.47-1.91.53-1.52.15-3,.45-4.46.88-.18.05-.25.14-.26.33-.03.79-.21,1.55-.66,2.22-.04.06-.04.15-.06.22ZM65.22,33.53c.11.2.21.4.33.59.54.83.86,1.74.95,2.72.07.75.11,1.5.16,2.26.01.13.05.27.09.44.47-.44.53-.43.87.13.15-.13.29-.27.45-.39.24-.18.48-.39.76-.51.23-.11.26-.22.19-.43-.31-.85-.71-1.65-1.29-2.36-.57-.69-1.07-1.43-1.58-2.16-.18-.26-.57-.41-.92-.29ZM46.5,84.57c.33-.07.6-.11.86-.19,1.48-.47,2.97-.87,4.51-1.01.27-.03.32-.13.22-.38-.06-.16-.15-.3-.19-.47-.06-.28-.21-.38-.5-.4-.96-.07-1.9-.25-2.79-.67-.68,1.01-1.37,2.02-2.11,3.12ZM72.84,45.65s.05.02.08.03c.11-.16.26-.31.31-.49.09-.3.12-.62.17-.93.11-.68.17-1.36.34-2.02.15-.57.43-1.11.62-1.67.17-.48.16-.94-.3-1.29-.12-.1-.22-.23-.31-.36-.27-.4-.25-.73.01-1.13.05-.07.04-.24-.01-.32-.32-.51-.66-1.01-.98-1.52-.27-.44-.5-.9-.78-1.33-.14-.22-.38-.33-.72-.25.09.55.19,1.08.27,1.6.04.24.12.27.34.18.16-.06.41-.1.51-.02.11.09.15.36.1.51-.1.3-.28.56-.42.85-.08.18-.14.38-.2.57.04.02.08.03.12.05.07-.12.14-.25.2-.37.1-.19.18-.4.29-.59.11-.2.27-.38.52-.28.25.09.27.33.24.56-.02.2-.11.38-.13.58-.01.09.05.19.1.28.06.12.17.23.19.35.07.38-.12.67-.36.94-.12.13-.23.28-.37.43.57.15.67.34.46.85-.08.18-.23.33-.3.51-.06.15-.12.35-.07.49.43,1.18.47,2.36.13,3.57-.02.08-.04.16-.06.24ZM55.09,79.17s.04,0,.06.01c0,.09-.01.18,0,.27.03.18.12.28.31.2,1.09-.44,2.06-1.07,2.84-1.95.3-.33.57-.71.61-1.19.02-.32-.07-.44-.38-.48-.41-.04-.78.06-1.14.24-.3.15-.63.27-.97.34-.47.09-.84.29-.97.76-.15.59-.24,1.2-.36,1.8ZM51.74,39.32c-.07-.05-.09-.08-.13-.09-.21-.03-.41-.04-.62-.07-.36-.05-.51-.41-.25-.65.15-.14.43-.23.64-.2.36.04.7.2,1.05.3.09.03.19.05.3.07-.22-.48-.42-.91-.62-1.34-.23-.49-.54-.92-.98-1.25-.45-.34-1.02-.53-1.31-1.1,0,.28.04.54.09.79.08.36.23.71.23,1.07.02,1.25,0,2.5-.03,3.75,0,.37.1.49.42.34.44-.21.9-.3,1.38-.32.19-.01.37-.11.55-.17,0-.04-.01-.08-.02-.13-.15-.04-.29-.09-.44-.12-.15-.02-.31.01-.44-.03-.14-.04-.33-.13-.36-.24-.03-.1.11-.27.2-.38.08-.09.2-.14.32-.22ZM66.59,51.91c.02-.3.04-.56-.22-.68-.48-.23-.75-.63-.94-1.1-.09-.23-.11-.47.12-.61.22-.13.42.02.58.19.12.13.22.29.33.44.03,0,.07-.01.1-.02-.03-.39-.02-.78-.1-1.16-.07-.32-.67-.58-.92-.43-1.02.62-1.93,1.36-2.19,2.61-.1.49-.26,1.04-.13,1.49.14.51.21,1.02.31,1.53.06.29.14.58.21.86.04,0,.08,0,.11-.01.03-.14.06-.28.09-.42.06-.33.09-.67.19-.99.22-.71.35-1.39-.01-2.1-.15-.3-.15-.66.08-.96.15-.2.36-.19.48.03.06.11.09.23.15.37.05-.04.09-.07.12-.1.36-.35.6-.3.8.15.04.08.15.14.23.19.09.07.22.11.29.19.12.15.21.33.34.54ZM99.25,56.8s.05.02.08.03c2.58-2.35,5.44-4.28,8.61-5.8-.27-.2-.54-.34-.8-.5-.16-.09-.28-.08-.43.04-.53.43-1.05.88-1.62,1.26-1.14.77-2.31,1.52-3.46,2.26-.96.62-1.71,1.44-2.29,2.42-.05.08-.06.19-.09.28ZM62.36,55.41s-.06,0-.09.01c-.14.44-.25.89-.42,1.32-.14.37-.2.71,0,1.08.09.16.12.36.17.54.16.65.29,1.3.46,1.94.07.24.22.47.37.67.14.18.35.2.51,0,.28-.35.46-.77.34-1.19-.22-.78-.53-1.53-.79-2.3-.03-.08-.06-.17-.08-.25-.16-.61-.32-1.21-.48-1.82ZM92.58,45.51c0-.16.01-.27,0-.37-.01-.09-.05-.18-.08-.27-.08.03-.17.06-.25.11-.07.04-.13.09-.2.13-.91.43-1.55,1.14-2.11,1.96-.09.14-.17.29-.23.45-.11.31.02.48.34.4.38-.09.76-.21,1.13-.36.36-.14.63-.39.77-.77.06-.17.16-.37.3-.46.34-.22.36-.51.33-.8ZM55.42,81.62c.01.08.03.2.05.32.05.32.14.39.43.27,1.1-.42,2.03-1.04,2.56-2.13.05-.09.04-.21.05-.32-.11.04-.24.06-.32.13-.69.7-1.5,1.16-2.47,1.33-.21.03-.31.16-.3.41ZM54.25,77.62l-.1-.05c-.21.3-.46.58-.63.9-.13.26-.17.56-.22.85-.01.08.07.23.13.25.09.02.23-.02.32-.08.08-.06.12-.18.14-.28.1-.39.19-.79.28-1.18.03-.14.06-.28.08-.41ZM53.9,82.77c-.18-.25-.33-.5-.53-.71-.07-.08-.27-.08-.38-.05-.08.02-.19.2-.16.27.08.24.21.47.33.69.01.02.07.04.1.03.21-.07.42-.15.64-.23ZM52.42,78.59s-.06-.05-.1-.08c-.28.18-.56.37-.84.55,0,.03,0,.06,0,.09.16.04.4.16.47.09.2-.18.32-.43.48-.66ZM55.52,46.84c.11-.64.01-.75-.57-.71.19.24.36.44.57.71ZM106.74,72.33c.36.18.62,0,.63-.37-.23.14-.43.26-.63.37ZM102.82,34.97c.31-.21.43-.51.32-.73-.21.19-.41.37-.32.73ZM102.67,33.58c-.36.09-.53.29-.49.59.19-.22.34-.41.49-.59ZM105.46,35.55s-.04-.07-.05-.11c-.25.13-.51.26-.76.39.02.03.04.07.05.1.25-.13.51-.26.76-.39ZM92.25,47.65s.06.08.08.12c.1-.07.21-.14.31-.22,0,0-.05-.08-.07-.13-.11.08-.21.16-.32.24Z" fill="none" stroke="#000" stroke-miterlimit="10" stroke-width=".75"/></svg>