<?xml version="1.0" encoding="UTF-8"?><svg id="Layer_1" xmlns="http://www.w3.org/2000/svg" viewBox="0 0 144.57 144.57"><polygon points="125.33 30.69 125.34 30.73 125.31 30.67 125.33 30.69" fill="#000" stroke-width="0"/><path d="M12.75,65.68s-.09.02-.13.03c.03,0,.06,0,.09,0,0,0,.04-.03.04-.03Z" fill="#000" stroke-width="0"/><path d="M12.99,67.98c.08-.08.17-.17.25-.25.03.08.06.17.1.25l.03-.04c-.13,0-.27,0-.4,0,0,0,.03.03.03.03Z" fill="#000" stroke-width="0"/><path d="M108.5,97.51c2.58,2.86,2.59,5.14.18,8.3-1.92,2.51-4.56,3.98-7.33,5.28-4.12,1.93-8.23,3.87-12.36,5.76-4.2,1.91-8.39,1.59-12.37-.55-1.31-.7-2.04-.81-3.1.34-2.5,2.71-5.67,2.51-8.87,1.61-4.04-1.14-8.02-2.42-12.16-3.22-5.16-1-8.3-4.62-9.22-10.12-.09-.53-.16-.87-.74-.68-3.55,1.15-6.64-.21-9.43-2.06-3.41-2.25-6.41-4.98-7.8-9.06-1.65-4.84-2.29-9.69-.64-14.68.58-1.73,1.67-3.03,3.1-4.08.88-.65.82-.85-.27-1.25-4.52-1.65-6.53-4.45-6.28-9.25.48-9.12,3.32-17.3,10.28-23.66,2.2-2.01,4.79-2.91,7.74-2.84.66.02,1.4.25,1.11-.91-.88-3.42.87-5.96,3.1-8.1,5.27-5.07,11.71-7.92,18.82-9.32,3.06-.6,6.15-1.05,9.27-.46,1.47.28,3.03.56,3.77,2.17-1.04.86-.99.83-1.51-.28-.15-.33-.64-.62-1.02-.71-1.12-.26-2.27-.62-3.4-.58-9.15.29-17.47,2.95-24.58,8.91-1.76,1.48-3.03,3.28-3.64,5.53-.19.69-.16,1.23.28,1.82.88,1.19,1.69,2.43,2.53,3.65-.16.16-.32.33-.49.49-.33.05-.67.1-1,.14-.09-.39-.17-.78-.26-1.16-.02,0-.04-.02-.06-.03.03.02.07.05.1.07.07.36.15.73.22,1.09.34.23.67.45,1.01.68.15.15.31.3.46.45.11.47.28.87.87.86,0,.34-.04.7.42.79.07.22.14.45.22.66.2.11.39.22.58.33.01.03.03.05.04.08-.03-.03-.05-.07-.08-.1-.19-.11-.39-.21-.58-.32-.07-.21-.14-.41-.21-.62-.01-.28-.02-.56-.03-.84,1.28.43,1.95,1.38,2.27,2.64-.05,0-.09.02-.14.03.04,0,.08-.01.12-.02,1.19.18,1.65,1.07,2.05,2.05.03.31-.48.68.1.92.09.2.18.4.28.6.2.1.39.21.58.32.14.13.29.26.43.39.13.18.25.36.38.53.16.15.32.3.47.45.01.03.02.06.04.09-.02-.04-.05-.07-.07-.11-.17-.13-.33-.25-.5-.38-.45.02-.62-.11-.31-.53-.17-.13-.33-.26-.5-.38-.28,0-.52-.05-.57-.39-.09-.18-.18-.36-.27-.54-.03-.33-.05-.67-.08-1,2,1.17,3.32,3.07,4.78,4.76.75.86,2.44.85,2.34,2.46-.02.02-.05.05-.08.07,0-.03,0-.07,0-.1l.03.08c.47-.34.68.03.91.33,0,0-.07.1-.07.1l.06-.06c1.27,1.03,2.67,1.92,3.46,3.43-.03.01-.07.02-.1.04.04,0,.08-.01.11-.02.56.06.52.42.4.82-.05.04-.1.08-.14.13-.01.02.02.08.03.12.02-.1.03-.2.05-.29.32.05.91-.42.83.42.01-.01.03-.03.04-.04.39.16,1,.09.82.83,0,.1,0,.2,0,.29.01-.11.02-.21.04-.32.5.22,1.05.39,1.02,1.1-.35.26-.46.53-.03.83.16.16.32.32.48.48,1.02,1.54,2.45,2.26,4.29,2.14.04.05.07.11.11.16.03.03.08.05.12.07l-.27-.19c-.41-.55-1.06-.66-1.65-.87-.34-.12-.44-.38-.32-.64.07-.14.47-.29.53-.23.87.86,1.86-.37,2.73.17.03,0,.06-.02.09-.02-.05,0-.09,0-.14-.01-.1-.44-.42-1.15-.27-1.27.57-.44.7.44,1.15.57.26.07.49.25.73.39,0,.13.02.26.04.38-.02-.12-.04-.23-.06-.35-.07-.38-.03-.81.36-.87.76-.12.32.85.81,1.02,0,0,.1.04.1.04l-.1-.07c.55-1.58-.48-3.02-.37-4.57.59-8.02,1.12-16.04.76-24.09-.03-.71-.1-1.52,1-1.51,0,.26,0,.52,0,.77.06,0,.12,0,.18-.01-.07-.24-.14-.48-.21-.72.04-.14.02-.26-.08-.38.73-.15.27-.78.47-1.15-.11-.05-.27-.18-.33-.14-.57.39-.09.88-.1,1.33-.43,0-.93.06-.93-.57,0-2.73.01-5.47.03-8.2,0-.6.3-1.09.91-.88,1.66.59,1.04-.73,1.23-1.37,5.53-3.75,11.24-2.28,16.63-.02,5.34,2.24,9.85,5.82,12.83,10.98,1.23,2.13,1.35,2.1,3.93,2.61,2.99.59,5.28,2.6,7,4.89,4.31,5.71,7.34,11.99,6.79,19.45-.07,1-.22,2.03-.51,2.99-.61,2.05-1.43,3.81.87,5.7,1.63,1.34,1.22,3.98,1.15,6.02-.28,7.28-2.77,13.86-7.01,19.76-2.05,2.86-4.77,4.62-8.45,4.49-.39.07-.45-.25-.58-.49l-.34-.51s-.1-.04-.14-.06c.05,0,.11.01.16.02.12.18.24.35.37.53.2.16.39.33.59.49ZM45.22,101.07s.04.03.05.05c-.02-.03-.04-.06-.06-.09-.18-.15-.36-.3-.53-.45.05-.53.24-.92.88-.82.26-.38.49-.4.67.07-.08-.14-.18-.32.03-.03-.25-.02-.5-.03-.75-.05.09-.87.65-1.27,1.45-1.41.15.41.3.17.45,0,.54-.24-.31-1.37.81-1.24.04.04.08.09.13.12.02.01.07-.02.1-.03-.09-.01-.19-.02-.28-.03.5-.5.99-.99,1.48-1.48v.17s-.04-.14-.04-.14c1.24-2.01,3.2-3.36,4.74-5.1,3.28-3.72,6.24-7.72,9.77-11.21-.08.37-.15.74-.22,1.11.07.16.03.18-.1.05.05-.02.09-.03.14-.05.06-.37.13-.73.19-1.1.38-.91.82-1.76,1.95-1.94l.08.05-.13-.03c-.17-1.71,1.51-2.04,2.26-3.06,0-.17,0-.33,0-.5-1.68-3.26-4.58-2.1-7.18-1.95-1.22.07-2.44.28-3.67.36-8.5.62-17.04.4-25.53,1.19-2.34.22-3.8,1.35-5.03,3.11l.04.05c-1.16.47-1.32,1.62-1.65,2.59-.81,2.37-.63,4.82-.29,7.26,1.01,7.27,3.96,13.11,11.46,15.63.47.16,1.33.28.48,1.09-.06-.46-.49-.43-.78-.59l-.05-.05s.06.05.1.08c.26.17.52.34.78.5.62.31,1.24.58,1.82-.09l-.04.04c1.27-.22,2.73,1.21,3.84-.45l.08.06-.11-.06c0-.69.52-.85,1.03-1-.01.01-.02.03-.03.04.07-.55.52-.39.85-.45v.12s0-.07,0-.07c-.39-.48-.49-.84.34-.82.16.18.33.37.49.54ZM103.19,92.82s.06.03.09.04l-.11-.09c-.03-.22-.05-.45-.08-.67.19-.1.38-.2.57-.31,1.65,1.1,3.49,1.94,4.78,3.53-.32.03-.64.05-.95.08-.03-.06-.07-.13-.1-.19.05.05.1.1.15.15.39.28.6,1.24,1.31.36.5-.05.87.15,1.09.6.39-.03.78-.07,1.17-.1.2-.06.39-.13.59-.19-.05-.06-.09-.12-.14-.18-.14.14-.28.27-.42.4-.41.02-.82.04-1.22.05.67-1.04,1.75-1.27,2.85-1.46.17.13.16.57.52.36.12-.07.14-.31.21-.46.19.01.37.02.56.03-.01-.08-.02-.17-.03-.25-.16.08-.33.17-.49.25-.27.04-.55.08-.82.13.45-.61.78-1.39,1.76-1.33.04.04.08.08.13.12.02.02.06,0,.09.01-.09-.03-.18-.05-.27-.08.25-.79.48-1.6,1.44-1.83.02.31.03.62.05.94-.06,0-.13,0-.19.03-.03.01-.05.07-.08.1.07-.06.15-.12.22-.18.72-.36,1-1.04,1.25-1.74.38-.18.47-.51.44-.89,1.34-.98,1.58-2.73,2.21-4.02,2.53-5.21,4.26-10.75,2.98-16.74-.53-2.49-2.32-3.89-4.95-3.59-4.2.47-8.39,1.13-12.6,1.4-6.99.45-13.99.66-20.99.97-.66.03-1.37.04-1.4.94-.05,1.52-.03,3.04-.03,4.55l-.09.04.05.02c.69.69,2.23.57,2.05,2.11,0,.02-.02.04-.02.06.02-.03.04-.06.07-.09.6-.17.9.26,1.26.61,1.8,1.71,3.62,3.39,5.43,5.08l-.04-.02c.45.06.69.33.75.77.26.17.46.34.07.58.01.03.03.06.04.1-.02-.04-.03-.09-.05-.13-.02-.2-.04-.4-.05-.61,1.04.31,1.74,1.01,2.29,1.91-.31.03-.61.06-.91.09-.01-.01-.02-.03-.03-.04.31.26.62.52.93.78l.45.46c.68.63,1.08,1.61,2.17,1.73,0,.29.15.42.43.44.14.14.29.29.43.43.15.15.3.3.46.44.28.3.57.66.82-.02,1.86.71,3.27,1.99,4.46,3.53-.21.1-.42.21-.62.32.24.19.5.38.1.67ZM67.47,76.53c.17-.13.35-.25.52-.38.12-.18.23-.35.35-.53.14-.14.29-.29.43-.43.05,0,.11,0,.16-.01-.04.02-.08.03-.13.05-.15.15-.29.29-.44.44-.11.16-.23.33-.35.49-.18.13-.36.26-.54.39l-.1.08.08-.09ZM28.48,72.35c.22-.32.46-.38.72-.05,1.02-1.22,1.88-1.25,2.81-.08-.02.03-.03.05-.05.08.03-.03.06-.06.09-.1.18.03.36.06.54.09.06-.1.13-.19.19-.29.06.1.12.19.19.29,1.42-1.12,1.8-1.13,3.03-.09.06.18.02.2-.11.06.05-.02.09-.03.14-.05.23-.84,1-.75,1.58-.79,5.86-.35,11.72-.67,17.58-.93.72-.03,1.6-.36,2.21.4.01.04.02.08.04.11,0-.04,0-.08-.01-.13.08-.9.93-.47,1.35-.78l-.05-.05c1.95.39,3.94-.08,5.94.52,1.31.39,2.06-.67,1.53-2.15-.07-.2-.16-.41-.2-.62-.05-.32.13-.36.39-.26.27-.31.53-.28.8,0-.1-.17-.08-.17.03-.02-.29,0-.58,0-.87,0,.73-2.63-1.14-3.9-2.77-5.29l.02.05c-7.51-7.65-15.68-14.66-22.4-23.07-1.12-1.41-2.65-1.01-4.02-.87-1.89.19-3.6.95-5.06,2.27-6.23,5.59-8.95,12.84-9.89,20.9-.31,2.66-.45,5.37,1.2,7.77.98,1.42,1.99,2.62,4.03,2.06.66-.18,1.69-.31,1.79.92-.27.02-.54.03-.8.05l.04-.12s0,.14,0,.14ZM113.23,64.67l.02.15v-.1s-.12-.03-.12-.03c0,0,.09-.02.09-.02ZM74.84,63.03l.07.06-.08-.05c-.16-.15-.33-.29-.49-.44-.04-.02-.07-.04-.11-.06.03-.03.06-.06.09-.09.02.04.04.07.06.11.15.16.3.32.45.47ZM78.76,62.55s.02.04.03.04l-.03-.04ZM84.44,57.81c-.02-.05-.08-.12-.06-.16.03-.09.09-.17.13-.26.09-.25.12-.57.29-.75,2.15-2.18,4.05-4.59,5.8-7.08.7-1,1.75-1.64,2.4-2.57,1.05-1.5,1.63-3.33,3.2-4.46.14.37.28.31.42,0,.3-.77,0-1.9,1.25-2.12.04.01.08.03.13.04-.06,0-.12,0-.18,0,.15-.3.31-.6.47-.91.13.03.25.05.38.08-.14-.01-.29-.03-.43-.04.16-.29.31-.58.47-.87.07.02.13.04.2.05.05,0,.11-.02.16-.03-.14,0-.27,0-.41.01,1.32-.71,1.27-2.61,2.75-3.19.07.32.14.63.21.95,0-.36.02-.71.03-1.07.2.04.39.11.6.12.13,0,.43.56.36-.08,0-.05-.61-.04-.94-.05-.03.18-.13.24-.31.19.12-.81.45-1.4,1.39-1.38.15.15.31.31.46.46.34.45.58.23.78-.12.25-.44.04-.64-.4-.7-.15-.15-.31-.3-.46-.46.08-.64.34-.82.87-.37h.07s-.11-.04-.11-.04c.12-.79-.32-1.39-.68-2.01-4.08-7.13-15.53-12.67-23.68-11.48-2.66.39-3.68,1.46-3.82,4.11-.17,3.39-.27,6.79-.44,10.18-.39,8.1-.55,16.21-1.71,24.26-.09.65.22,1.48,1.28,1.28,0,.09.02.18.03.27-.03-.03-.08-.07-.07-.1,0-.05.05-.09.08-.14-.43-.8-.16-.98.47-.43.92.8,1.9,1.49,2.95,2.11,1.49.89,2.45.38,3.57-.82.73-.78,1.11-1.83,2.02-2.44.16,0,.31,0,.47,0ZM73.97,35.93c.5-.03.09-.31.12-.47-.08-.15-.15-.3-.23-.45,0,0,0,.05,0,.05.15.08.38.09.26.37-.06.18-.12.36-.17.54l-.04.08.06-.12ZM73.88,33.71c.06.01.12.03.18.03.04,0,.07-.04.1-.06-.08.03-.16.05-.23.09-.02-.02-.03-.04-.05-.06ZM81.84,62.61c.18.39.52.44.89.43.86,1.45,1.63,2.99,3.43,3.52l-.04-.05c1.56,1.03,3.19.11,4.78.09,3.33-.05,6.66-.22,9.97-.9,2.14-.43,4.36-1.21,6.63-.49.04.03.08.06.12.08-.06-.01-.12-.02-.18-.04.59-1.19,1.73-.85,2.7-.96.11.51.32.82.89.49,2.39-1.92,5.23-1.49,7.97-1.53.01.19.03.38.04.56-.01-.18-.02-.36-.03-.54.5-.91,1-1.82,1.5-2.74.08-.06.17-.11.25-.17,0,.05.01.1.02.16-.11,0-.21-.02-.32-.02.58-4.12,1.15-8.15-.78-12.2-2.21-4.63-4.05-9.4-8.77-12.21-2.67-1.59-5.52-1.26-7.64,1.03-7.19,7.77-13.68,16.14-20.55,24.17-.3.3-.6.6-.9.9l-.33.19c.11.07.22.14.33.21ZM67.47,65.77c-.06.03-.12.05-.17.09-.03.03-.04.09-.06.13.06-.09.13-.18.19-.27.05-.05.1-.1.14-.15.03-.04.04-.09.07-.13-.05.11-.11.22-.16.33ZM76.06,74.24c.79-.15-.13-.71.23-.96.15-.35.33-.4.56-.07.13.04.25.11.38.13.11.02.23-.01.35-.02-.26-.03-.51-.07-.77-.1.1-.21.2-.42.3-.63,0,0-.04.05-.04.05.08-.12.21-.23.23-.35.14-.83.25-.94.69-.8.46.14.19-.36.35-.5.32-.28.65-.54.98-.81-.04-.08-.08-.17-.12-.25.05,0,.11.01.16.02l-.09.27c-1.43-.65-.88-1.89-.18-2.26,1.46-.77.83-1.9.94-2.93.01-.13-.03-.26-.05-.39-.11.13-.24.25-.32.4q-.57,1.02-1.32-.19c-.3-.28-.59-.3-.89,0-.66.35-.82.86-.65,1.59.05.21-.11.72-.63.56.3-.94-1.57-1.5-.44-2.58.44-.08,1.13.34,1.19-.55.08,0,.17,0,.25,0-.03-.02-.07-.05-.09-.04-.05.02-.09.06-.13.09-.41.15-1.23-.54-1.17.57-1.06-.05-2.2-.43-3,.69l.05-.04c-1.22-.08-2.29.27-3.2,1.08-.02-.01-.04-.03-.06-.04,0,.03,0,.06,0,.09.22,1.01.44,2.02.66,3.02-.1,0-.19.01-.29.02.04-.03.1-.1.12-.09.05.02.09.08.14.13.72-.05.3.57.49.84-.11,0-.21.01-.32.02.1,0,.2,0,.3.01,1.01,1.49,2.11,2.88,4.02,3.29.02,0-.02.25-.02.37,0,.03,0,.06.01.09,0-.05.02-.09.03-.14.85-.19.22-1.11.59-1.36,1.14-.78.1,1.15.96.83-.09.34-.18.68-.26,1.01l.04.09v-.14ZM106.28,95.3s-.01.06-.02.08c.03-.02.05-.03.08-.05-.03-.05-.1-.11-.09-.15.01-.11.06-.21.08-.31-.12-.13-.1-.15.07-.07-.04.03-.08.06-.11.09-.33.03-.66.06-.98.1-.04-.08-.09-.15-.13-.23.06-.01.12-.03.18-.04-.03.08-.07.16-.1.24.35.12.69.24,1.03.35ZM96.31,112.48c.31-.16.61-.32.92-.48,2.41-1.27,4.75-2.69,7.24-3.75,2.15-.92,3.6-2.49,4.55-4.41.83-1.69,1.11-3.7-.6-5.22-6.96-6.22-13.95-12.42-20.93-18.63v.04c-1.35-2.01-3.29-3.41-5.07-4.96-1.66-1.44-2.79-1.16-3.37.72-.04.12-.17.3-.26.3-3.22.14-2.43,2.62-2.5,4.45-.15,4.03-.16,8.07-.17,12.11,0,4.35.11,8.7.01,13.05-.02.76,1.48,2.05-.51,2.42-.06-.13-.11-.26-.17-.39l.19.35c1.67,1.11.51,2.88.98,4.26.24.7-.63,1.82.78,2.09l-.03-.05c.46.78,1.87.62,1.84,1.87,0,.03-.02.07-.03.1-.02-.03-.04-.06-.06-.09.02.01.05.03.07.04,1.34-.18,2.61.59,3.95.27l.05.1v-.06c.37-.74,1.46-.71,1.64-.55,1.08.95,1.4-.37,1.91-.65,1.13-.6,2.44.33,3.44-.59l-.04.05c.28-.14.56-.28.84-.42l-.04.04c1.43-1.74,3.55-2.3,5.49-3.17.59-.26.7.28.82.68-.43-.14-.73,0-.9.41-.03-.02-.05-.05-.08-.07,0,.04.02.08.03.12ZM64.18,117.25c.06-.03.12-.08.18-.09.04,0,.08.07.12.1-.11-.01-.22-.03-.32-.04-.08-.14-.16-.29-.26-.42-.01-.02-.11.02-.18.04.15.14.3.28.45.41ZM77.11,61.14l-.02.15.05-.1c-.24-.12-.47-.23-.71-.35-.02.09-.05.18-.07.27.25.01.49.02.74.03ZM80.07,62.94s-.04-.02-.06-.02c.03.02.06.05.09.07.26.17.53.35.79.52.33.43.78.27,1.2.23.06.19.14.38.19.58.08.28.14.57.21.86-.03-.31-.02-.64-.09-.94-.04-.18-.22-.34-.34-.5-.41-.06-.82-.12-1.23-.19.06-.6-.45-.49-.76-.61ZM74.41,75.82l.07.02s-.07-.04-.11-.07c-.36.28-.28-.33-.54-.26.19.1.38.21.57.3ZM72.4,75.87c-1.56-.03-3.04-.27-4.34,1.2-7.59,8.62-15.26,17.17-22.93,25.72-1.1,1.23-1.17,2.49-.8,4.01.71,2.86,3.02,4.23,5.12,5.83l.05.1-.04-.15c.87.35,1.95.14,2.66.97v.08s.02-.14.02-.14c2.21-.51,4.27-.18,6.21,1l-.09.07.06-.05c2.76.41,5.34,1.36,7.83,2.59-.04.05-.12.1-.11.14.02.11.07.21.11.31,5.03,1.27,8.69-1.55,8.5-6.63-.3-8.29-.67-16.57-.99-24.85-.02-.63-.18-1.73.37-1.74.72-.02.34,1,.42,1.56.11.79.09,1.59.13,2.39.18-2.39.13-4.78.19-7.16.05-2.17-1.08-3.75-2.41-5.29.04-.21.08-.41.11-.62,0-.03-.09-.06-.14-.1.02.25.05.51.07.76ZM74.61,26.16c.02-.06.06-.11.05-.16-.01-.07-.06-.13-.1-.19,0,.06-.02.13-.01.19,0,.06.04.11.06.17ZM109.29,65.16s-.09-.11-.13-.11c-.06,0-.11.07-.16.1.07.07.14.14.21.21.03-.06.06-.13.09-.2ZM54.12,113.81c-.06.02-.17.03-.17.06-.01.11,0,.23,0,.34.06-.02.17-.03.17-.05.01-.11,0-.23,0-.35ZM92.3,114.3c.06.02.13.04.19.06.02-.06.06-.15.04-.16-.05-.04-.12-.06-.18-.05-.02,0-.03.1-.05.15ZM75.71,114.19l-.17.07.17.06v-.14ZM75.63,112.02v.14s.17-.06.17-.06l-.17-.08ZM75.55,102.53l-.08.14.14.02-.05-.16ZM99.8,89.46v-.11s-.12.05-.12.05l.12.06ZM68.76,72.81v.11s.14-.03.14-.03l-.14-.08ZM70.59,71.07c-.05-.02-.11-.06-.16-.05-.19.04-.2.12-.02.2.04.02.11,0,.16-.03.02-.01.01-.08.02-.11ZM114.66,64.8l.07.17.06-.17h-.13ZM117.74,63.66c-.02.06-.04.11-.06.17.07-.03.14-.07.21-.1-.05-.02-.1-.05-.15-.07ZM74.59,24.54l.08-.1-.11-.02.03.13ZM86.45,55.84l-.1-.07-.02.11.11-.04ZM85.49,56.65l-.07.11h.12s-.05-.11-.05-.11ZM74.27,60.63l-.1-.07v.12s.1-.05.1-.05ZM81.23,64.92l-.1.13.14.02-.05-.16ZM81.15,66.41l.07-.1-.11-.02.04.11ZM67.98,68.07l.12.07v-.12s-.12.05-.12.05ZM67.28,71.16l-.11-.08-.02.12.13-.04ZM79.89,71.91l-.08.11.11.02-.04-.13ZM65.1,79.02l-.09-.07-.02.1.11-.03ZM94.33,113.36l-.13-.08v.14s.13-.06.13-.06ZM93.38,113.72l-.08.13h.14s-.06-.13-.06-.13ZM77.22,115.64l.07-.1-.11-.02.04.12ZM78.1,116.08l.08-.11-.11-.02.04.13ZM84.22,116.76l-.06.1h.1s-.04-.1-.04-.1Z" fill="#000" stroke-width="0"/><path d="M34.17,114.28c.05.02.1.05.16.07-.03.05-.04.13-.08.15-.03.02-.1-.04-.15-.06.03-.05.05-.11.08-.16Z" fill="#000" stroke-width="0"/><path d="M106.32,32.03c.08.08.15.16.23.25-.1.05-.2.12-.3.15-.03,0-.14-.1-.13-.12.06-.1.13-.19.21-.28Z" fill="#000" stroke-width="0"/><path d="M94.83,106.15c-4.14,2.8-8.61,4.38-13.68,3.48-1.89-.33-2.92-1.4-3.28-3.44-.78-4.51-.17-8.98.13-13.45.19-2.81.7-5.61,1.08-8.41.06-.47-.05-1.3.57-1.2.79.13.15.81.09,1.23-.99,6.32-1.43,12.67-1.41,19.07.01,5.53,2.14,6.25,7.48,5.66,2.53-.28,4.87-1.35,7.2-2.38.58-.26,1.24-.34,1.86-.51,0,0-.04-.05-.04-.05Z" fill="#000" stroke-width="0"/><path d="M83.24,93.12c-.39.17-.54.5-.58.89,0,0,.06-.02.06-.02-.31-.28-.62-.55-.92-.83-.04-.11-.07-.22-.11-.33-.12.1-.25.2-.37.3.25.15.43.3-.02.41.04.15.08.31.11.46-.1.07-.48-.04-.19.29.04-.11.09-.23.14-.34.6.31.26,1.54,1.35,1.38l-.03-.03c.12.09.15.21.1.36,0,0,.03-.03.03-.03-.75.69-1.62,1.16-1.22,2.61.13.46-.05,1.69-.45,2.61-.76,1.78.64,3.56.84,5.4.07.61.81-.12,1.25-.17l-.05.06c1.62.45,3.17-.05,4.67-.49,1.03-.3,2.02-.67,3.1-.75,0,0-.03-.04-.03-.04-2.59,1.67-5.45,2.31-8.49,2.2-.86-.03-1.36-.38-1.62-1.38-.5-1.97-.72-3.95-.64-5.95.17-4.33.44-8.66.7-12.98.02-.28-.16-.73.33-.82.03,0,.23.49.23.75,0,.89.21,1.72-.01,2.69-.35,1.5-.02,3.07,1.76,3.76h.05ZM81.15,95.23s.09-.07.14-.11c-.04-.05-.07-.12-.12-.13-.04,0-.09.07-.14.1.04.05.08.09.11.14ZM81.3,96.38s-.08-.13-.13-.13c-.04,0-.09.07-.14.11.04.05.08.13.13.13.04,0,.09-.07.14-.11Z" fill="#000" stroke-width="0"/><path d="M97.18,92.15c2.33,1.69,5.46,3.41,4.55,6.63-.94,3.3-3.09,6.33-6.9,7.38,0,0,.04.05.04.05,1.6-1.7,3.69-2.87,4.93-5,1.91-3.28,1.83-4.48-1.01-7.05-.63-.57-1.44-.97-1.8-1.8.06-.06.13-.13.19-.19Z" fill="#000" stroke-width="0"/><path d="M93.93,89.74c-3.16-1.9-5.71-4.66-9.02-6.36-1.15-.59-2.22-1.37-3.58-1.47-.31-.02-.81.24-.78-.37.02-.4.44-.52.78-.63.56-.19.98.2,1.41.41,4.24,2.11,7.96,4.94,11.39,8.18-.07.08-.14.16-.21.24Z" fill="#000" stroke-width="0"/><path d="M94.85,94.49c-1.32-1.3-2.63-2.6-3.95-3.9.06-.06.12-.12.18-.18,1.56,1.06,2.93,2.3,3.88,3.95,0,0-.11.12-.11.12Z" fill="#000" stroke-width="0"/><path d="M86.18,86.17c1.45.35,2.17,1.58,3.11,2.54-.06.05-.11.11-.17.16-1.1-.77-2.28-1.47-2.91-2.74l-.04.04Z" fill="#000" stroke-width="0"/><path d="M97,92.34c-1.23-.62-2.18-1.57-3.07-2.61.07-.08.14-.16.21-.24,1.31.55,2.23,1.54,3.04,2.65-.06.06-.13.13-.19.19Z" fill="#000" stroke-width="0"/><path d="M82.71,98.37c-.48-.93-.56-1.84.1-2.73,0,0-.03.03-.03.03-.15.88,1.2,1.83-.12,2.67,0,0,.04.04.04.04Z" fill="#000" stroke-width="0"/><path d="M83.32,102.4c.03-.21,0-.46.1-.62.23-.36.45-.23.5.13.06.49.06.99.07,1.49,0,.18,0,.51-.06.52-.5.1-.29-.34-.37-.55-.11-.32-.19-.65-.29-.98l.05.02Z" fill="#000" stroke-width="0"/><path d="M94.04,103.18c.44-.89,1.17-1.46,2.06-1.86l.13.12c-.55.81-1.14,1.57-2.22,1.7l.04.04Z" fill="#000" stroke-width="0"/><path d="M83.24,106.08c-1.05.49-.83-.35-.87-.86-.01-.17.19-.51.22-.5.8.21.32.97.6,1.42,0,0,.05-.06.05-.06Z" fill="#000" stroke-width="0"/><path d="M84.84,85.32c-.95-.28-2-.35-2.57-1.36l-.05.04c1.17-.21,1.95.5,2.73,1.19,0,0-.11.13-.11.13Z" fill="#000" stroke-width="0"/><path d="M96.23,95.72c.76.59,1.63,1.11,1.68,2.23,0,0,.04-.04.04-.04-.87-.45-1.45-1.17-1.86-2.03,0,0,.14-.16.14-.16Z" fill="#000" stroke-width="0"/><path d="M96.56,100.89c.33-.67.69-1.3,1.4-1.64l-.04-.05c-.02.88-.61,1.36-1.26,1.79,0,0-.1-.1-.1-.1Z" fill="#000" stroke-width="0"/><path d="M92.74,104.05c-.42.69-1.04.91-1.82.81,0,0,.03.04.03.04.45-.5,1-.85,1.68-.96,0,0,.11.11.11.11Z" fill="#000" stroke-width="0"/><path d="M84.01,105.25c-.1-.19-.2-.35-.25-.53,0-.02.3-.19.32-.17.12.13.21.29.27.46.01.03-.18.13-.34.24Z" fill="#000" stroke-width="0"/><path d="M94.01,103.14c-.17.66-.75.74-1.27.92,0,0-.11-.11-.11-.11.37-.43.75-.86,1.41-.76,0,0-.04-.04-.04-.04Z" fill="#000" stroke-width="0"/><path d="M89.7,102.79c-.1.18-.19.36-.29.54-.07-.08-.13-.15-.2-.23l.54-.26s-.05-.05-.05-.05Z" fill="#000" stroke-width="0"/><path d="M85.17,103.27c.04.28.11.5.08.7-.04.22-.19.21-.25,0-.04-.13-.03-.29,0-.43.01-.08.09-.14.18-.27Z" fill="#000" stroke-width="0"/><path d="M87.43,100.52c.26-.14.51-.27.77-.41,0,.06.02.17,0,.18-.24.08-.48.14-.72.21l-.04.02Z" fill="#000" stroke-width="0"/><path d="M83.15,99.65c-.48-.01-1.11.11-.61-.72l-.04.04c.29.01.59.02.88.03-.09.23-.18.46-.27.69,0,0,.04-.04.04-.04Z" fill="#000" stroke-width="0"/><path d="M97.96,99.25c0-.45,0-.89-.01-1.34,0,0-.04.04-.04.04.82.41.85.83.02,1.26,0,0,.04.05.04.05Z" fill="#000" stroke-width="0"/><path d="M86.21,86.14c-.57-.08-1.07-.27-1.38-.81,0,0,.11-.13.11-.13.6.1,1.02.4,1.23.98,0,0,.04-.04.04-.04Z" fill="#000" stroke-width="0"/><path d="M84.55,100.13c-.12-.07-.19-.09-.23-.14-.02-.02.03-.1.05-.15.05.08.1.16.18.28Z" fill="#000" stroke-width="0"/><path d="M83.17,100.5c-.29-.03-.6.71-.79.11-.15-.46.52-.3.78-.48,0,0-.05-.05-.05-.05,0,.15,0,.31.01.46l.05-.05Z" fill="#000" stroke-width="0"/><path d="M83.28,102.38c-.29.1-.57.21-.86.31-.01-.06-.06-.15-.03-.19.26-.4.63.04.93-.11,0,0-.04-.01-.04-.01Z" fill="#000" stroke-width="0"/><path d="M90.2,114.84c-.26-.01-.51-.03-.77-.04.02-.06.02-.15.06-.17.3-.15.5.02.66.25,0,0,.05-.05.05-.05Z" fill="#000" stroke-width="0"/><path d="M87.13,105.22l-.33-.16s.11-.14.14-.13c.12.03.22.1.33.15-.05.05-.1.09-.15.14Z" fill="#000" stroke-width="0"/><path d="M85.78,104.99c-.14.1-.28.2-.41.3-.04-.09-.09-.18-.13-.27h.53s.01-.03.01-.03Z" fill="#000" stroke-width="0"/><path d="M88.2,104.1c.04.11.08.21.1.32,0,.03-.1.1-.15.1-.05,0-.13-.1-.12-.13.04-.1.11-.19.17-.28Z" fill="#000" stroke-width="0"/><path d="M87,103.78c-.06.1-.11.2-.17.3-.05-.04-.14-.1-.13-.12.03-.1.09-.2.14-.29.05.04.1.07.16.12Z" fill="#000" stroke-width="0"/><path d="M82.56,103.61c.11.05.23.1.34.15-.07.08-.13.21-.21.22-.1.01-.22-.08-.33-.12.06-.08.13-.17.2-.25Z" fill="#000" stroke-width="0"/><path d="M86.45,102.75c.05.03.13.05.16.1.02.03-.03.1-.04.16-.08-.05-.17-.1-.25-.15.05-.04.09-.07.14-.11Z" fill="#000" stroke-width="0"/><path d="M89.75,102.84c-.02-.33-.03-.66-.05-.98l-.05.06c.5.27.5.56.05.87,0,0,.05.06.05.06Z" fill="#000" stroke-width="0"/><path d="M89.16,101.82c-.1.13-.2.27-.3.4-.07-.07-.13-.14-.2-.2.18-.05.36-.1.55-.15,0,0-.05-.05-.05-.05Z" fill="#000" stroke-width="0"/><path d="M81.76,102.37c-.08.07-.16.15-.25.22-.05-.12-.11-.24-.13-.37,0-.04.09-.11.14-.16.07.1.15.19.24.31Z" fill="#000" stroke-width="0"/><path d="M86.45,101.72c-.05.02-.11.04-.16.05,0-.08-.02-.17-.03-.25.06.01.13,0,.17.04.03.03.01.1.02.16Z" fill="#000" stroke-width="0"/><path d="M89.7,101.86c-.18-.01-.36-.02-.54-.04,0,0,.05.05.04.05.11-.1.21-.2.32-.3.04.12.08.23.13.35,0,0,.05-.06.05-.06Z" fill="#000" stroke-width="0"/><path d="M88.14,101.21s.04-.09.06-.13c.03.06.06.12.09.19l-.15-.06Z" fill="#000" stroke-width="0"/><path d="M83.12,100.55c.16.07.32.14.48.21-.08.06-.16.12-.24.18-.06-.15-.13-.29-.19-.44,0,0-.05.05-.05.05Z" fill="#000" stroke-width="0"/><path d="M84.32,98.54c.02.06.07.13.05.18-.07.2-.17.22-.26.05-.02-.05,0-.15.03-.19.03-.03.11-.02.17-.03Z" fill="#000" stroke-width="0"/><polygon points="87.89 98.07 88.04 98.15 87.87 98.19 87.89 98.07" fill="#000" stroke-width="0"/><path d="M82.16,89.59c-.05.01-.1.03-.15.04,0-.1.02-.19.02-.29.06.02.14.03.16.07.02.04-.02.12-.03.18Z" fill="#000" stroke-width="0"/><polygon points="87.5 79.99 87.45 80.09 87.49 80.02 87.5 79.99" fill="#000" stroke-width="0"/><polygon points="82.27 83.97 82.23 83.93 82.22 84.01 82.27 83.97" fill="#000" stroke-width="0"/><polygon points="82.13 86.8 81.98 86.86 82 86.71 82.13 86.8" fill="#000" stroke-width="0"/><path d="M89.66,89.21c-.28.05-.44-.09-.53-.34.06-.05.11-.11.17-.16.13.16.25.33.38.49h-.01Z" fill="#000" stroke-width="0"/><path d="M89.67,89.2c.27-.02.44.11.49.38l-.09.09c-.27-.03-.44-.16-.41-.46,0,0,.01-.01.01-.01Z" fill="#000" stroke-width="0"/><path d="M90.16,89.58c.15.14.3.28.45.42,0,0-.11.11-.11.11-.14-.15-.29-.29-.43-.44,0,0,.09-.09.09-.09Z" fill="#000" stroke-width="0"/><path d="M90.9,90.59c-.13-.16-.26-.32-.39-.48,0,0,.11-.11.11-.11.16.14.31.28.47.42-.06.06-.12.12-.18.17Z" fill="#000" stroke-width="0"/><path d="M83.19,93.13l.11-.08s-.04.05-.06.07c0,0-.05.01-.05.01Z" fill="#000" stroke-width="0"/><path d="M82.67,94.01c.05.09.11.19.15.29,0,.02-.09.08-.14.12l.04.04c0-.16,0-.31,0-.47l-.06.02Z" fill="#000" stroke-width="0"/><path d="M82.68,94.42c0,.15,0,.29,0,.44h.03c-.14-.08-.29-.14-.43-.2.14-.07.29-.14.43-.2,0,0-.04-.04-.04-.04Z" fill="#000" stroke-width="0"/><path d="M95.29,94.92c-.15-.14-.29-.29-.44-.43,0,0,.11-.12.11-.12.15.14.29.29.44.43,0,0-.11.12-.11.12Z" fill="#000" stroke-width="0"/><path d="M82.68,94.86c.04.11.09.21.11.32,0,.03-.07.08-.11.12,0,0,.03.03.03.03,0-.16,0-.32,0-.49h-.03Z" fill="#000" stroke-width="0"/><path d="M95.64,95.43c-.12-.17-.23-.34-.35-.51,0,0,.11-.12.11-.12.15.14.31.27.46.41-.07.07-.15.15-.22.22Z" fill="#000" stroke-width="0"/><path d="M95.86,95.21c.12.17.24.34.37.5,0,0-.14.16-.14.16-.15-.15-.3-.3-.45-.45.08-.07.15-.15.22-.22Z" fill="#000" stroke-width="0"/><polygon points="84.22 97.61 84.26 97.73 84.16 97.72 84.22 97.61" fill="#000" stroke-width="0"/><path d="M82.54,98.92c-.12-.24-.4-.52.17-.55,0,0-.04-.04-.04-.04-.05.21-.11.41-.16.62,0,0,.04-.03.04-.03Z" fill="#000" stroke-width="0"/><path d="M83.16,100.13c0-.16,0-.32,0-.48,0,0-.04.04-.04.04.11.03.32.04.33.09.07.26-.11.32-.33.3,0,0,.05.05.05.05Z" fill="#000" stroke-width="0"/><polygon points="86.81 99.99 86.76 99.84 86.89 99.86 86.81 99.99" fill="#000" stroke-width="0"/><polygon points="86.07 100.76 85.93 100.82 85.94 100.68 86.07 100.76" fill="#000" stroke-width="0"/><path d="M87.47,100.49s-.08.04-.11.06c.03-.01.05-.03.08-.04,0,0,.04-.02.04-.02Z" fill="#000" stroke-width="0"/><path d="M81.6,101.32l-.12-.07c.05-.06.09-.12.14-.19.04.05.11.09.11.14s-.08.08-.12.12Z" fill="#000" stroke-width="0"/><polygon points="84.56 101.2 84.71 101.13 84.7 101.29 84.56 101.2" fill="#000" stroke-width="0"/><path d="M96.1,101.32c.15-.14.31-.28.46-.42,0,0,.1.1.1.1-.02.27-.16.42-.43.44,0,0-.13-.12-.13-.12Z" fill="#000" stroke-width="0"/><path d="M82.37,101.69s.04-.09.07-.14c.07.04.13.09.2.13-.04.05-.09.09-.13.14-.04-.04-.09-.09-.13-.13Z" fill="#000" stroke-width="0"/><polygon points="91.21 101.98 91.25 102.11 91.13 102.09 91.21 101.98" fill="#000" stroke-width="0"/><polygon points="87.68 102.62 87.63 102.47 87.77 102.48 87.68 102.62" fill="#000" stroke-width="0"/><path d="M81.53,103.24s.1,0,.13.01c.03.03.04.09.06.13-.09,0-.17-.01-.26-.02.02-.04.05-.08.07-.13Z" fill="#000" stroke-width="0"/><polygon points="88.09 103.49 88.03 103.34 88.18 103.36 88.09 103.49" fill="#000" stroke-width="0"/><polygon points="90.33 103.44 90.29 103.32 90.4 103.34 90.33 103.44" fill="#000" stroke-width="0"/><polygon points="85.76 105.03 85.83 104.88 85.78 104.99 85.76 105.03" fill="#000" stroke-width="0"/><path d="M77.4,114.43l.05.04s-.07-.07-.07-.08.02.04.02.04Z" fill="#000" stroke-width="0"/><path d="M90.99,114.47c-.1-.03-.21-.06-.31-.1.05-.06.11-.11.16-.17.03.1.07.2.1.3,0,0,.04-.04.04-.04Z" fill="#000" stroke-width="0"/><path d="M41.66,79.61c4.99-.62,9.89-1.73,14.83-2.6,1.18-.21,2.45-.17,3.53.61-1.04.47-2.1.24-3.13.06-.7-.12-.42.84-.99.78h.03c-.56-.75-1.21-.66-1.91-.22,0,0,.05-.04.05-.04-1.45-.12-2,.77-2.25,2l.06-.04c-.27-.44.04-1.38-.81-1.28-1.05.12-2.33.19-3.01.82-.59.55-.51.94-1.08.06-.16-.25-.91-.06-.32.58,0,0,.02-.05.02-.05-.29.14-.57.28-.86.42,0,0,0-.03,0-.03-.28.25-1.18-.21-.91.36.53,1.15-.44,1.1-.83,1.12-1.08.07-1.88.4-2.26,1.46l.04.05c-.05-.35-.05-1-.14-1.01-2.21-.34.21-1.05-.13-1.52.78.73,1.54.51,2.31-.04-.79-.37-1.54.05-2.31.04-.42-.3-.58-.95-1.4-.69-.73.23-.63.77-.68,1.17-.44,3.45.56,6.48,2.75,9.15.41.49.87.94,1.31,1.4,0,0-.14.15-.14.15-3.15-1.18-5.3-7.58-4.66-11.05.31-1.68,1.62-1.78,2.98-1.72.21.28-.13.98.64.83.07-.01.14-.03.21-.05-.3-.25-.6-.49-.9-.74ZM43.84,79.9h.12s-.15.04-.15.05l.02.1.02-.14ZM45.26,79.89s-.03-.11-.05-.11c-.05,0-.1.02-.16.03.02.04.03.11.05.12.05,0,.1-.02.16-.04Z" fill="#000" stroke-width="0"/><path d="M48.37,93.67c-2.39,3.42-5.18,3.63-8.21.35-3.93-4.24-5.26-9.36-4.58-15.04.13-1.08,2.88-2.17,3.72-1.52.07.06.1.18.14.28-.19.08-.39.22-.58.22-2.96-.07-2.88,1.91-2.71,3.97.32,3.95,1.13,7.66,3.95,10.74,3,3.28,4.84,3.56,8.02.77.08.08.17.15.25.23Z" fill="#000" stroke-width="0"/><path d="M59.47,74.35c.89-.08,1.75.14,2.53.5.7.33,1.95.92,1.64,1.45-.49.83-1.11-.39-1.71-.61-2.76-1.01-5.45-.13-8.14.25-3.87.54-7.72,1.22-11.58,1.81-.43.07-1.17.38-1.2-.39-.02-.49.68-.36,1.08-.42,5.79-.87,11.59-1.73,17.38-2.6Z" fill="#000" stroke-width="0"/><path d="M48.12,93.44c2.43-2.94,5.19-5.57,7.86-8.27.07.06.13.13.2.19-.41,1.29-1.77,1.83-2.32,3.01l.03.04c-1.84,1.75-3.69,3.51-5.53,5.26-.08-.08-.17-.16-.25-.23Z" fill="#000" stroke-width="0"/><path d="M45.58,91.76c2.15-2.36,4.37-4.64,6.91-6.6.07.06.13.12.19.18-2.2,2.31-4.35,4.66-6.89,6.61-.07-.06-.14-.13-.21-.2Z" fill="#000" stroke-width="0"/><path d="M62.45,77.75c.45,1.14-.47,1.68-1.03,2.38-1.03,1.29-2.17,2.49-3.48,3.5-.06-.06-.11-.11-.17-.17,1.32-2.13,3.49-3.55,4.73-5.75l-.04.03Z" fill="#000" stroke-width="0"/><path d="M57.04,81.42c-.63.72-1.25,1.46-2.26,1.66,0,0,.03.03.03.03.47-.87,1.07-1.6,2.1-1.82,0,0,.12.12.12.12Z" fill="#000" stroke-width="0"/><path d="M57.8,80.44c.02-.07.03-.15.08-.2.45-.44.9-.87,1.36-1.3.07.08.23.2.21.25-.29.67-.8,1.13-1.48,1.4-.05-.05-.11-.1-.16-.16Z" fill="#000" stroke-width="0"/><path d="M45.34,92.4c-.68.91-1.34,1-1.95-.07,0,0,.14-.15.14-.15.52-.01,1.04-.02,1.57-.04.08.08.16.17.25.26Z" fill="#000" stroke-width="0"/><path d="M48.68,80.02c.66-.6,1.45-.39,2.22-.38l-.04-.04c-.59,1.06-1.48.3-2.23.37l.05.05Z" fill="#000" stroke-width="0"/><path d="M41.79,83.63c-.17.07-.35.14-.52.21-.01-.1-.02-.21-.04-.31.2.05.4.1.6.16,0,0-.04-.05-.04-.05Z" fill="#000" stroke-width="0"/><path d="M56.42,84.72c.15-.43.43-.72.87-.86.08.08.16.16.24.24-.16.43-.46.71-.9.84-.07-.07-.14-.15-.21-.22Z" fill="#000" stroke-width="0"/><path d="M38.76,103.11c-.21-.02-.41-.04-.62-.06.28-.48.38.11.58.1,0,0,.04-.04.04-.04Z" fill="#000" stroke-width="0"/><path d="M45.8,80.71c0,.18.02.35.03.53-.01-.18-.02-.37-.04-.56,0,0,0,.03,0,.03Z" fill="#000" stroke-width="0"/><path d="M40.79,81.11c-.08.07-.17.19-.23.18-.09-.02-.16-.13-.24-.2.05-.04.11-.13.15-.12.11.02.21.09.33.14Z" fill="#000" stroke-width="0"/><path d="M46.64,80.33c.06.25.12.51.17.76-.54-.17-.05-.54-.15-.8,0,0-.02.04-.02.04Z" fill="#000" stroke-width="0"/><path d="M48.63,79.97c-.02.19-.03.39-.05.58-.06-.02-.12-.05-.18-.07.09-.15.18-.31.28-.46,0,0-.05-.05-.05-.05Z" fill="#000" stroke-width="0"/><path d="M55.89,78.46l-.58-.05c.2.01.4.02.6.03,0,0-.02.01-.02.01Z" fill="#000" stroke-width="0"/><path d="M53.85,79.09c.07-.3.14-.59.21-.89,0,0-.05.04-.04.04.47.36.21.59-.14.8,0,0-.03.05-.03.05Z" fill="#000" stroke-width="0"/><path d="M68.32,73.9c0,.18,0,.35,0,.53,0-.18,0-.35,0-.53Z" fill="#000" stroke-width="0"/><polygon points="26.86 76.63 26.97 76.63 26.9 76.67 26.86 76.63" fill="#000" stroke-width="0"/><polygon points="62.49 77.71 62.57 77.79 62.45 77.75 62.49 77.71" fill="#000" stroke-width="0"/><path d="M50.89,79.64c.04-.11.07-.23.11-.34.07.06.13.13.2.19-.12.04-.23.08-.35.11,0,0,.04.04.04.04Z" fill="#000" stroke-width="0"/><polygon points="53.87 79.04 53.87 79.18 53.85 79.09 53.87 79.04" fill="#000" stroke-width="0"/><path d="M51.81,80.19s-.01-.07-.02-.11c.03.02.05.04.08.06,0,0-.06.04-.06.04Z" fill="#000" stroke-width="0"/><path d="M57.96,80.6c-.11.25-.28.39-.57.3l.04.03c-.03-.28.11-.43.37-.49.05.05.11.11.16.16Z" fill="#000" stroke-width="0"/><path d="M57.39,80.9c.08.3-.07.46-.35.52,0,0-.12-.12-.12-.12.06-.28.24-.39.51-.36,0,0-.04-.03-.04-.03Z" fill="#000" stroke-width="0"/><path d="M44.27,82.91l-.16.15c-.05-.05-.14-.11-.13-.16,0-.05.09-.1.15-.15.05.05.1.11.14.16Z" fill="#000" stroke-width="0"/><polygon points="43.15 83.28 43.27 83.24 43.25 83.35 43.15 83.28" fill="#000" stroke-width="0"/><path d="M54.33,83.51c.05-.27.19-.42.48-.39,0,0-.03-.03-.03-.03.09.3-.06.45-.32.54l-.12-.11Z" fill="#000" stroke-width="0"/><path d="M40.36,83.78c-.05.04-.1.09-.15.13-.04-.05-.12-.11-.12-.16,0-.05.09-.09.14-.13.04.05.09.11.13.16Z" fill="#000" stroke-width="0"/><path d="M54.45,83.63c-.16.13-.32.27-.48.4l-.07-.07c0-.28.15-.42.43-.44,0,0,.12.11.12.11Z" fill="#000" stroke-width="0"/><path d="M57.94,83.63c-.14.16-.28.31-.41.47-.08-.08-.16-.16-.24-.24.16-.13.32-.27.48-.4.06.06.11.11.17.17Z" fill="#000" stroke-width="0"/><path d="M53.98,84.03c-.15.14-.3.28-.45.42,0,0-.08-.09-.08-.09.15-.14.31-.27.46-.41,0,0,.07.07.07.07Z" fill="#000" stroke-width="0"/><path d="M52.94,84.73c.17-.12.33-.24.5-.37,0,0,.08.08.08.08-.14.15-.27.31-.41.46-.06-.06-.11-.12-.17-.18Z" fill="#000" stroke-width="0"/><path d="M53.11,84.91c-.14.15-.29.29-.43.44-.06-.06-.13-.12-.19-.18.15-.14.3-.29.46-.43.06.06.11.12.17.18Z" fill="#000" stroke-width="0"/><path d="M56.63,84.94c-.15.14-.3.28-.45.42-.07-.06-.13-.13-.2-.19.15-.15.29-.3.44-.45.07.07.14.15.21.22Z" fill="#000" stroke-width="0"/><polygon points="53.86 88.37 53.98 88.42 53.89 88.41 53.86 88.37" fill="#000" stroke-width="0"/><path d="M45.79,91.96c-.15.15-.3.3-.45.45-.08-.09-.16-.17-.25-.25.16-.13.32-.26.48-.39.07.07.14.13.21.2Z" fill="#000" stroke-width="0"/><path d="M47.42,98.39c-.17,0-.34,0-.5,0,.17-.31.34-.43.5,0Z" fill="#000" stroke-width="0"/><path d="M88.76,30.4c-2.37-.9-4.79-1.57-7.33-1.78-1.45-.12-2.15.11-2.31,1.85-.75,8.24-.63,16.51-.94,24.77-.02.43.48,1.19-.31,1.23-.73.04-.48-.75-.47-1.19.27-8.55.3-17.11.98-25.64.15-1.83.86-2.25,2.58-1.91,2.74.54,5.65.49,7.9,2.53l-.11.14Z" fill="#000" stroke-width="0"/><path d="M81.6,33.13l-.25,3.78.05-.04c-.04.06-.12.12-.11.17.02.12.08.22.12.34l-.05-.04c-.05,1.87-.36,3.75.34,5.57h-.05c-.83,2.9-1.05,5.85-.67,8.84-.23-.06-.39-.05-.21.24l.18-.29c.85-.1,1.14-.86,1.65-1.37l-.05-.04c-.02.21.04.49-.07.63-.58.7-1.01,1.98-2.02,1.68-.98-.28-.51-1.54-.46-2.33.29-4.99.67-9.97.55-14.97-.02-.86-.14-1.82.4-2.54.51-.7.57-.04.65.35l.02.02Z" fill="#000" stroke-width="0"/><path d="M84.33,52.05c3.71-4.22,6.43-9.18,10.03-13.49.06.05.12.11.18.16-3.02,4.74-5.71,9.73-10.02,13.52-.06-.06-.13-.13-.19-.19Z" fill="#000" stroke-width="0"/><path d="M88.87,30.26c2.87.84,5.06,2.71,6.9,4.91,1.34,1.59-.33,2.53-1.24,3.55-.06-.05-.12-.11-.18-.16,1.44-2.78,1.39-3.02-1.27-5-1.43-1.07-2.89-2.11-4.33-3.16,0,0,.11-.14.11-.14Z" fill="#000" stroke-width="0"/><path d="M83.11,53.46c-.89,1.49-2.26,2.35-3.84,2.94-.08.03-.23-.11-.35-.17,1.29-1.1,2.63-2.1,4.22-2.73l-.03-.03Z" fill="#000" stroke-width="0"/><path d="M87.5,32.97c-1.76,0-3.29-.94-4.97-1.26-.15-.03-.27-.23-.41-.35.2-.05.42-.18.6-.13,1.64.42,3.39.58,4.74,1.79,0,0,.04-.04.04-.04Z" fill="#000" stroke-width="0"/><path d="M91.81,36.06c.96.76.93.93-.42,2.14l.02.02c.15-.73.29-1.46.44-2.19,0,0-.04.04-.04.04Z" fill="#000" stroke-width="0"/><path d="M87.92,43.9c-.22.74-.54,1.4-1.33,1.69,0,0,.04.03.04.03.15-.8.58-1.37,1.33-1.69,0,0-.04-.04-.04-.04Z" fill="#000" stroke-width="0"/><path d="M89.23,33.84c-.76.07-1.41-.09-1.74-.88,0,0-.04.04-.04.04.79-.12,1.33.24,1.74.88,0,0,.04-.04.04-.04Z" fill="#000" stroke-width="0"/><path d="M90.62,34.64c.66.25,1.24.58,1.19,1.43,0,0,.04-.04.04-.04-.65-.22-1.04-.71-1.33-1.29l.1-.1Z" fill="#000" stroke-width="0"/><path d="M90.75,40.16c-.35.38-.69.76-1.04,1.14,0,0-.1-.09-.1-.09-.01-.78.44-1.04,1.14-1.04,0,0,0-.01,0-.01Z" fill="#000" stroke-width="0"/><path d="M88.81,42.57c-.1-.67.28-1.06.8-1.36,0,0,.1.09.1.09-.13.55-.31,1.06-.94,1.23l.04.04Z" fill="#000" stroke-width="0"/><path d="M88.77,42.54c-.01.62-.31,1.06-.85,1.36,0,0,.04.04.04.04-.04-.65.18-1.15.85-1.36,0,0-.04-.04-.04-.04Z" fill="#000" stroke-width="0"/><path d="M90.52,34.74c-.56-.11-1.1-.25-1.29-.89,0,0-.04.04-.04.04.72-.21,1.11.19,1.42.75,0,0-.1.1-.1.1Z" fill="#000" stroke-width="0"/><path d="M103.16,34.76c-.15-.15-.3-.3-.44-.45-.04-.41-.17-.87.48-.93.15.15.3.3.44.45.03.41.05.81-.48.93Z" fill="#000" stroke-width="0"/><path d="M85.77,46.96c-.11-.7.28-1.08.86-1.34,0,0-.04-.03-.04-.04.06.67-.31,1.05-.86,1.33l.04.05Z" fill="#000" stroke-width="0"/><path d="M84.62,48.81c-.28-.7.07-1.15.59-1.55.07.06.13.13.19.19-.27.44-.54.89-.82,1.33,0,0,.04.03.04.03Z" fill="#000" stroke-width="0"/><path d="M82.59,50.33c.31-.27.63-.54.94-.81,0,0-.04-.04-.04-.04.08.73-.32.9-.95.81,0,0,.05.04.05.04Z" fill="#000" stroke-width="0"/><path d="M82.45,42.85l.02.32c0-.1,0-.2,0-.3,0,0-.02-.01-.02-.01Z" fill="#000" stroke-width="0"/><path d="M90.75,40.17c-.11-.4-.48-.85.21-1.09,0,0,0,0,0,0-.08.36-.16.71-.23,1.07,0,0,.01.02.01.02Z" fill="#000" stroke-width="0"/><path d="M84.11,39.1c-.13.12-.25.24-.38.36-.01-.06-.04-.16-.03-.17.11-.06.24-.1.36-.15,0,0,.05-.03.05-.03Z" fill="#000" stroke-width="0"/><path d="M91.39,38.2c.09.4.08.76-.42.89,0,0,0,0,0,0-.07-.4-.01-.74.45-.86,0,0-.02-.02-.02-.02Z" fill="#000" stroke-width="0"/><path d="M82.28,34.76c0,.26.01.52.02.79,0,0,.05-.05.05-.05-.61-.21-.43-.45-.02-.69,0,0-.05-.05-.05-.05Z" fill="#000" stroke-width="0"/><path d="M82.33,34.81c0-.19,0-.38,0-.57l-.04.05c.12.05.23.09.35.14-.12.11-.24.22-.36.33,0,0,.05.05.05.05Z" fill="#000" stroke-width="0"/><path d="M81.58,33.11l.4.07c-.12-.02-.25-.04-.37-.05,0,0-.03-.02-.03-.02Z" fill="#000" stroke-width="0"/><polygon points="82.33 34.24 82.2 34.24 82.29 34.29 82.33 34.24" fill="#000" stroke-width="0"/><path d="M84.64,35.5s-.11-.09-.11-.14c0-.04.08-.08.13-.12.04.05.11.09.11.14,0,.04-.08.08-.13.12Z" fill="#000" stroke-width="0"/><path d="M82.3,35.55c.35.17.42.34,0,.5v-.02c.03-.18.04-.35.06-.53,0,0-.05.05-.05.05Z" fill="#000" stroke-width="0"/><polygon points="82.29 36.05 82.22 36.15 82.31 36.03 82.29 36.05" fill="#000" stroke-width="0"/><path d="M81.35,36.91c.1.05.21.09.31.14-.1.1-.21.19-.31.29,0,0,.05.04.05.04,0-.17,0-.34,0-.51l-.05.04Z" fill="#000" stroke-width="0"/><polygon points="83.34 37.46 83.39 37.59 83.26 37.58 83.34 37.46" fill="#000" stroke-width="0"/><polygon points="82.15 37.99 82.01 38.04 82.02 37.91 82.15 37.99" fill="#000" stroke-width="0"/><path d="M84.06,39.13s.05-.05.08-.08c-.01.02-.02.03-.03.05,0,0-.05.03-.05.03Z" fill="#000" stroke-width="0"/><polygon points="85 41.48 85.15 41.43 85.14 41.56 85 41.48" fill="#000" stroke-width="0"/><path d="M83.02,42.34s-.1.11-.14.1c-.04,0-.08-.08-.12-.13.05-.04.1-.11.14-.1.04,0,.08.08.12.13Z" fill="#000" stroke-width="0"/><path d="M96.67,42.59c-.16,0-.33,0-.49,0,.02-.21.07-.41.33-.34.08.02.11.22.16.34Z" fill="#000" stroke-width="0"/><path d="M81.69,42.91c.25-.02.5-.04.75-.06,0,0,.02.01.02.01-.27.01-.54.03-.82.04,0,0,.04,0,.04,0Z" fill="#000" stroke-width="0"/><path d="M85.73,46.92c-.11.18-.22.36-.33.54-.06-.06-.13-.13-.19-.19.1-.26.24-.45.56-.3,0,0-.04-.05-.04-.05Z" fill="#000" stroke-width="0"/><polygon points="81.53 47.59 81.65 47.55 81.63 47.67 81.53 47.59" fill="#000" stroke-width="0"/><path d="M84.05,49.13c.04-.36.29-.37.57-.32,0,0-.04-.03-.03-.02-.19.1-.38.2-.58.3l.04.04Z" fill="#000" stroke-width="0"/><path d="M84,49.09c-.05.29-.21.44-.52.4,0,0,.04.04.04.04.17-.13.35-.26.52-.39,0,0-.04-.04-.04-.04Z" fill="#000" stroke-width="0"/><path d="M84.52,52.24c-.14.15-.28.3-.43.45-.07-.08-.15-.15-.22-.23.15-.14.31-.27.46-.41.06.07.12.13.19.19Z" fill="#000" stroke-width="0"/><path d="M83.56,53.03c-.09-.29.07-.45.31-.57.07.08.15.15.22.23-.18.11-.35.23-.53.34Z" fill="#000" stroke-width="0"/><path d="M83.15,53.48c-.06-.33.1-.47.42-.45-.01.29-.17.42-.45.42,0,0,.03.03.03.03Z" fill="#000" stroke-width="0"/><polygon points="84.11 53.91 84.14 53.81 84.07 53.89 84.11 53.91" fill="#000" stroke-width="0"/><path d="M83.47,54.28c.21-.12.42-.24.63-.37,0,0-.04-.03-.04-.02-.18.12-.37.23-.55.35l-.04.04Z" fill="#000" stroke-width="0"/><polygon points="83.51 54.23 83.49 54.36 83.48 54.27 83.51 54.23" fill="#000" stroke-width="0"/><path d="M84.46,57.85c-.16,0-.33,0-.49,0,.16-.16.33-.33.49-.49,0,.17,0,.33,0,.5Z" fill="#000" stroke-width="0"/><path d="M60.01,65.26c1.04.78.63,2.05-.94,2.7-1.96.82-4.05,1.13-6.13,1.27-5.48.38-10.98.62-16.47.9-2.63.13-4.05-.92-4.82-3.41-.78-2.51-.68-5.05.07-7.48,1.31-4.29,2.93-8.48,5.56-12.17,2.5-3.5,4.08-3.43,6.72.18-.08.07-.15.15-.23.22-.4-.31-.81-.6-1.19-.92-2.25-1.87-2.83-1.88-4.43.53-3.16,4.74-5.53,9.84-6.13,15.58-.53,5.08,1.57,7.19,6.28,6.75,4.25-.4,8.52-.52,12.77-.8,2.16-.14,4.32-.35,6.45-.84,1.41-.33,2.39-.99,2.52-2.54l-.05.04Z" fill="#000" stroke-width="0"/><path d="M46.67,49.85c3.72,3.3,7.55,6.49,11.11,9.96,1.4,1.36,2.42,3.25,2.23,5.45,0,0,.05-.04.05-.04-.54-.03-.58-.57-.86-.86,0,0,.04.04.04.04-.82-2.71-2.4-4.89-4.61-6.65-2.93-2.34-5.77-4.79-8.22-7.65.09-.09.18-.17.27-.26Z" fill="#000" stroke-width="0"/><path d="M44.01,47.25c1.23.51,1.88,1.62,2.66,2.6-.09.09-.18.17-.27.26-1.06-.69-1.97-1.53-2.61-2.63.08-.07.15-.15.23-.22Z" fill="#000" stroke-width="0"/><path d="M33.03,72.23c-.16,0-.32,0-.49,0,.05-.19.09-.54.15-.54.41-.04.39.25.33.54Z" fill="#000" stroke-width="0"/><path d="M58.77,70.11c.01-.12.02-.23.04-.35.06.03.13.06.19.09-.09.07-.18.14-.27.21,0,0,.05.05.05.05Z" fill="#000" stroke-width="0"/><path d="M63.58,62.25l-.05-.06s.07.1.07.1-.02-.05-.02-.05Z" fill="#000" stroke-width="0"/><path d="M49.55,41.28c-2.32-1.81-2.63-4.76-.24-6.57,5.49-4.15,11.62-6.77,18.68-6.54.95.03,1.62.33,1.76,1.47.94,7.79,1.76,15.61.26,23.38-1.03,5.36-1.92,5.7-6.4,2.66-5.65-3.84-10.55-8.54-14.12-14.46,1.12.36,1.66,1.36,2.27,2.21,3.02,4.14,6.79,7.55,10.77,10.7,4.85,3.83,6.18,3.27,7.07-2.92.98-6.8.11-13.59-.41-20.37-.11-1.41-.58-1.83-1.94-1.87-6.56-.17-12.12,2.51-17.33,6.07-1.63,1.12-1.8,3.27-.8,5.07.21.37.58.67.41,1.17Z" fill="#000" stroke-width="0"/><path d="M43.88,40.84c-.15-.14-.29-.29-.44-.43,0-.3,0-.6,0-.91.15-.15.3-.31.45-.46.48.87,1.68,1.39,1.32,2.68h-.47c-.13-.45-.49-.67-.87-.88Z" fill="#000" stroke-width="0"/><path d="M64.37,61.78c-.15-.15-.3-.3-.45-.45,0-.3,0-.61,0-.91.81.1,1.41.39,1.3,1.36l.04-.04c-.3.01-.59.03-.89.04Z" fill="#000" stroke-width="0"/><path d="M65.22,61.78c.31,0,.69-.18.81.29.02.08-.09.29-.15.29-.43.03-.54-.3-.63-.63,0,0-.04.04-.04.04Z" fill="#000" stroke-width="0"/><polygon points="67.28 61.09 67.42 61.04 67.41 61.17 67.28 61.09" fill="#000" stroke-width="0"/><path d="M68.65,82.12c.6-.75,1.22-1.47,2.34-1.04.98.38.84,1.27.89,2.04.51,7.51,1.01,15.02.93,22.56-.02,1.44-.52,2.3-1.74,2.93-1.25.64-2.55,1.19-3.93,1.1-3.6-.24-7.14-.8-10.13-3.08l-.04.04c.34.1.68.2,1.02.3,3.26.89,6.43,2.21,9.93,1.87,3.16-.31,4.2-1.4,4.24-4.43.1-6.88-.68-13.71-.93-20.57-.09-2.45-.19-2.45-2.37-1.46-.07-.08-.13-.16-.2-.23Z" fill="#000" stroke-width="0"/><path d="M54.26,105c-1.71-.76-2.17-1.66-.94-3.42,4.17-5.98,8.87-11.55,13.19-17.41.33-.45.84-.76,1.27-1.13l.15.13c-.18.3-.34.63-.55.91-4.27,5.62-8.51,11.26-12.84,16.83-1.07,1.38-1.44,2.58-.12,3.93-.05.05-.11.11-.16.16Z" fill="#000" stroke-width="0"/><path d="M57,106.62c-1.29.09-2.08-.66-2.74-1.62.05-.05.11-.11.16-.16.96.45,1.96.85,2.54,1.83l.04-.04Z" fill="#000" stroke-width="0"/><path d="M68.02,117.32c-.15.05-.28.13-.41.13-.09,0-.18-.11-.27-.17.12-.04.25-.12.37-.12.1,0,.19.1.31.17Z" fill="#000" stroke-width="0"/><path d="M67.78,83.03c.08-.5.37-.8.87-.91.07.08.13.16.2.23-.3.27-.61.54-.91.81l-.15-.13Z" fill="#000" stroke-width="0"/><path d="M57.04,110.25c-.12.06-.22.11-.33.16-.04-.12-.13-.25-.11-.36.02-.07.19-.11.3-.16.05.12.09.24.14.35Z" fill="#000" stroke-width="0"/><polygon points="59.43 111.39 59.31 111.39 59.37 111.26 59.43 111.39" fill="#000" stroke-width="0"/><path d="M70.37,78.36s-.12.05-.14.03c-.04-.03-.05-.1-.07-.15.08-.02.16-.03.24-.05,0,.06-.02.12-.03.17Z" fill="#000" stroke-width="0"/><path d="M71.19,76.27c0,.06,0,.14-.03.18-.04.04-.14.06-.18.04-.18-.11-.16-.22.03-.28.04-.01.11.04.17.07Z" fill="#000" stroke-width="0"/><polygon points="52.08 95.64 52.19 95.61 52.11 95.59 52.08 95.64" fill="#000" stroke-width="0"/><polygon points="52.11 95.59 52.12 95.73 52.08 95.64 52.11 95.59" fill="#000" stroke-width="0"/><path d="M49.11,100.5l-.02.02.02-.02Z" fill="#000" stroke-width="0"/><polygon points="49.09 100.51 49.17 100.57 49.11 100.5 49.09 100.51" fill="#000" stroke-width="0"/><path d="M66.11,117.57c0-.17,0-.33,0-.5.45.17.38.33,0,.5Z" fill="#000" stroke-width="0"/><path d="M111.42,61.72c-.76,1.48-2.34,1.47-3.59,1.64-5.6.76-11.22,1.35-16.84,1.9-1.41.14-3.17.32-3.97-1.1-.81-1.43.36-2.76,1.13-3.95,3.27-5.06,6.62-10.07,11.36-13.93.84-.68,1.71-1.4,2.69-1.82,1.77-.77,3.32-.72,4.86.95,3.34,3.62,5.86,7.55,6.12,12.61.05,1.02.47,2.22-.83,2.89l-.03-.03c.4-5.37-1.35-9.97-4.94-13.92-2.46-2.7-4.18-2.88-7-.52-5.07,4.25-8.9,9.52-12.14,15.23-1.27,2.24-.95,2.72,1.71,2.67,7.25-.14,14.45-.84,21.52-2.55l-.06-.05Z" fill="#000" stroke-width="0"/><path d="M81.79,62.64c0-.16,0-.32,0-.48.57-.03.74-.44.89-.89.73.6.62,1.21,0,1.82-.19-.37-.5-.49-.89-.45Z" fill="#000" stroke-width="0"/><path d="M111.05,64.83c-.31-.16-.62-.31-.94-.47.56-.34,1.05-.54.94.47Z" fill="#000" stroke-width="0"/><path d="M112.35,60.9c.05.68-.39.81-.94.82,0,0,.06.05.06.05.23-.35.36-.79.84-.9l.03.03Z" fill="#000" stroke-width="0"/><polygon points="86.16 66.56 86.27 66.46 86.12 66.51 86.16 66.56" fill="#000" stroke-width="0"/><path d="M88.28,75.33c-2.02-2.08-1.66-3.93,1.08-4.85,6.56-2.19,13.37-2.45,20.18-2.03,3.93.24,4.26.84,4.18,4.8-.08,4.38-1.05,8.6-2.78,12.63-.37.85-.89,1.66-1.46,2.4-2.03,2.62-3.12,2.75-5.67.6-1.87-1.57-4.05-2.8-5.47-4.88l.14-.15c1.69,1.35,3.39,2.68,5.07,4.05,2.98,2.41,4.12,2.19,6.05-1.18,1.88-3.27,2.56-6.89,3.11-10.55.27-1.79.54-3.57.04-5.38-.27-1-.77-1.51-1.78-1.53-6.9-.19-13.79-.21-20.49,1.77-3,.89-3.15,1.33-2.04,4.15-.06.06-.12.12-.18.18Z" fill="#000" stroke-width="0"/><path d="M94.78,81.03c-2.21-1.22-4.19-2.71-5.65-4.81.06-.06.12-.11.18-.17,1.87,1.61,3.75,3.22,5.62,4.83l-.15.14Z" fill="#000" stroke-width="0"/><path d="M98.36,88.36c-.02-.27-.13-.45-.43-.44,0-.3-.14-.44-.43-.44,0-.29-.14-.43-.43-.44-.26-.73-1.2-.95-1.33-1.78,1.65.5,2.73,1.65,3.55,3.1-.31,0-.62,0-.92,0Z" fill="#000" stroke-width="0"/><path d="M97.4,83.21c-.9-.38-1.68-.89-2.11-1.81,0,0,.06-.07.06-.07,1,.23,1.69.86,2.21,1.72-.05.05-.11.11-.16.16Z" fill="#000" stroke-width="0"/><path d="M94.87,85.31c.01-.3-.19-.4-.44-.44,0-.31,0-.62,0-.93.7.21,1.33.49,1.36,1.37-.31,0-.62,0-.93,0Z" fill="#000" stroke-width="0"/><path d="M117.15,90.04c0,.31,0,.62,0,.93-.45.29-.91.59-1.36.88.06-.9.72-1.35,1.36-1.81Z" fill="#000" stroke-width="0"/><path d="M116.46,78.65c.02.06.06.13.04.18-.01.05-.08.08-.13.11-.03-.09-.06-.18-.09-.28.06,0,.11,0,.17-.01Z" fill="#000" stroke-width="0"/><path d="M89.13,76.23c-.42-.17-.73-.44-.85-.89.06-.06.12-.12.18-.18.46.13.73.44.85.9-.06.05-.12.11-.18.17Z" fill="#000" stroke-width="0"/><path d="M117.58,90.1h-.49c.13-.31.26-.63.39-.94h-.05c.05.31.1.62.15.94Z" fill="#000" stroke-width="0"/><path d="M95.29,81.4c-.17-.12-.34-.25-.51-.37,0,0,.15-.14.15-.14.26.03.42.17.43.44l-.06.07Z" fill="#000" stroke-width="0"/><path d="M97.91,83.57c-.17-.12-.34-.24-.52-.36.05-.05.11-.1.16-.16.13.16.27.31.4.47l-.05.05Z" fill="#000" stroke-width="0"/><path d="M98.36,84c-.27-.02-.44-.13-.44-.43,0,0,.05-.05.05-.05.18.11.35.22.53.33l-.14.15Z" fill="#000" stroke-width="0"/><path d="M117.49,89.16h.08s-.13,0-.13,0,.05,0,.05,0Z" fill="#000" stroke-width="0"/><path d="M108.87,95.78l-.49-.5c.16.17.33.33.49.5Z" fill="#000" stroke-width="0"/><path d="M75.85,69c-1.08,1.56-2.37,1.92-3.25.9-.57-.67-.5-1.49-.34-2.26.13-.6.62-1,1.23-1.07.94-.1,1.43.53,1.79,1.28.19.39.35.79.53,1.19l.03-.04ZM74.13,67.29c-.1.05-.2.09-.29.14,0-.06,0-.11,0-.17.11.02.22.05.32.07l-.04.11c0-.05,0-.11,0-.16ZM73.25,68.51l.1.07.02-.1-.12.03Z" fill="#000" stroke-width="0"/><path d="M77.44,64.77c.31,0,.62,0,.92,0-.02.07-.04.14-.05.21-.15.65-.02,1.4-.68,1.87-.31-.67-.25-1.38-.19-2.08Z" fill="#000" stroke-width="0"/><path d="M74.37,65.2c.26-.06.43.05.42.3,0,.1-.2.3-.25.28-.17-.06-.31-.2-.46-.3.09-.09.19-.19.28-.28Z" fill="#000" stroke-width="0"/><path d="M79.65,66.89c-.21.2-.32.37-.47.44-.26.12-.4-.12-.39-.31,0-.15.17-.38.3-.41.13-.03.31.14.56.28Z" fill="#000" stroke-width="0"/><path d="M77.93,68.37c-.11-.04-.22-.08-.34-.13.05-.11.09-.28.16-.3.1-.03.24.06.36.1-.06.11-.12.22-.18.32Z" fill="#000" stroke-width="0"/><path d="M72.8,65.14c.17.22.34.45.15.73-.03.04-.21,0-.32-.02.07-.25.13-.49.21-.74,0,0-.04.03-.04.03Z" fill="#000" stroke-width="0"/><path d="M75.82,69.04c0,.09,0,.19,0,.28,0-.1.02-.21.03-.32,0,0-.02.04-.02.04Z" fill="#000" stroke-width="0"/><polygon points="77.12 72.58 76.99 72.6 77.07 72.63 77.12 72.58" fill="#000" stroke-width="0"/><path d="M81.36,93.6c0-.17,0-.33,0-.5.16,0,.32,0,.48,0-.04.28-.17.48-.48.49Z" fill="#000" stroke-width="0"/><path d="M37.76,54.77c-2.18,2.81-2.53,6.21-2.88,9.55-.16,1.49,1.09,2.13,2.47,2.12,5.09-.06,10.19-.31,15.27-.22,2.47.05,4.57-.6,6.61-1.82,0,0-.04-.04-.04-.04-1.33,2.67-3.93,2.44-6.23,2.51-5.2.16-10.4.09-15.6.1-2.2,0-3.14-.93-3.07-3.17.11-3.44,1.38-6.6,2.57-9.78.25-.67.48-1.36.72-2.03h-.02c.79-.39.87-1.19,1.17-1.89.66-1.55,2.01-1.99,3.34-1.03.85.62,1.59,1.4,2.37,2.1-.07.08-.13.15-.2.23-.26-.03-.52-.06-.78-.09-.34-.76-.84-1.31-1.74-1.32.02-.31-.16-.42-.43-.44-.3-.47-.58-.24-.87.02-.67,1.13.68.78.91,1.26.14.29.28.59.42.88,0,0-.06.05-.06.05-.07.01-.17.07-.21.04-2.06-1.55-2.77-.04-3.47,1.51,0,0,.02-.02.02-.02-.09.21-.17.41-.26.62,0,0,.05-.04.05-.04-.37.32-.56.63,0,.94l-.06-.04Z" fill="#000" stroke-width="0"/><path d="M44.43,51.18c4.3,3.03,8.07,6.68,11.81,10.35.05.05.11.1.14.16.46.77,1.27,1.37,1.11,2.43-.97-.16-.93-1.21-1.51-1.71-.11-.09-.22-.17-.34-.25l-.04.02c-.05-.48-.38-.69-.79-.83h.02c-.16-.17-.33-.33-.49-.49l.05.05c-.31-.31-.61-.61-.92-.92l.04.05c-.16-.16-.32-.32-.48-.48l.05.04c-.56-.5-.85-1.36-1.8-1.34l.04.04c.03-.4-.07-.74-.47-.92l.05.03c-.45-.45-.89-.89-1.34-1.34,0,0,.04.04.04.04-.31-.16-.62-.31-.93-.47l.05.05c-.11-.51-.51-.72-.92-.93l.05.05c-.12-.1-.24-.19-.37-.29-.04.1-.09.2-.13.3l.06-.05c-.31-.14-.62-.29-.92-.43.17-.03.51.07.22-.3-.06.11-.12.23-.18.34-.31-.01-.62-.03-.92-.04l.06.05c-.02-.16-.04-.32-.05-.49.19-.28.68-.57,0-.85-.46-.54-.92-1.08-1.38-1.62.07-.08.13-.15.2-.23Z" fill="#000" stroke-width="0"/><path d="M48.38,56.82c-1.85.29-2.39-1.97-4.03-2.08l.05.05c-.42-1.06-1.73-1.22-2.23-2.21l-.05.04c.44-.36.9-.24,1.36-.05.36.73,1.01,1.06,1.73,1.32-.02.32.13.47.45.48l-.06-.05c.46.64.99,1.19,1.81,1.35l-.05-.04c.33.41.65.82.98,1.24,0,0,.05-.05.05-.05Z" fill="#000" stroke-width="0"/><path d="M53.5,60.86c-.85-.04-1.19-.57-1.29-1.33,0,0-.05.07-.05.07.31,0,.62,0,.92-.01,0,0-.05-.04-.05-.04,0,.32.19.45.48.48l-.04-.05c0,.31,0,.61,0,.92l.03-.04Z" fill="#000" stroke-width="0"/><path d="M50.9,58.24l-1.08.51c.1-.66.49-1.09,1.08-1.35,0,0-.05-.03-.05-.03,0,.31,0,.62,0,.93l.05-.05Z" fill="#000" stroke-width="0"/><path d="M52.21,59.53c-.52.33-.95.46-.88-.43l-.05.05c.33.07.75-.03.88.44l.05-.07Z" fill="#000" stroke-width="0"/><path d="M49.74,56.74c-.44-.08-.78-.31-1.02-.68l-.06.05c.31,0,.62,0,.93-.01,0,0-.04-.04-.04-.04.06.23.12.47.19.7,0,0,0-.01,0-.01Z" fill="#000" stroke-width="0"/><path d="M42.87,56.21c-.45-.27-.7-.62-.5-1.17,0,0-.04.02-.04.02.17.39.33.78.5,1.17l.04-.03Z" fill="#000" stroke-width="0"/><path d="M37.77,53.91c.34.09.69.19,1.03.28,0,0,.03-.04.03-.04-.36.2-.71.41-1.07.61,0,0,.06.04.06.04,0-.31,0-.63,0-.94,0,0-.05.04-.05.04Z" fill="#000" stroke-width="0"/><path d="M39,53.58c-.32-.1-.64-.2-.97-.29,0,0-.03.02-.03.03.36-.05,1.06-1.08.95.32,0,0,.05-.05.05-.05Z" fill="#000" stroke-width="0"/><path d="M54.35,61.34c-.37,0-.79.07-.85-.48,0,0-.03.04-.03.04.31,0,.62,0,.93,0,0,0-.05-.05-.05-.05,0,.16,0,.33,0,.49h.02Z" fill="#000" stroke-width="0"/><path d="M51.34,59.1c-.16,0-.31,0-.47.01l.04.04c0-.31,0-.61,0-.92,0,0-.05.05-.05.05.16,0,.32,0,.48,0,0,0-.04-.04-.04-.04,0,.31,0,.61,0,.92,0,0,.05-.05.05-.05Z" fill="#000" stroke-width="0"/><path d="M48.23,57.38s-.08.08-.12.12c.06-.02.11-.05.17-.07,0,0-.05-.05-.05-.05Z" fill="#000" stroke-width="0"/><path d="M44.3,57.03c.08.03.17.06.25.1-.07-.05-.13-.1-.2-.15l-.05.05Z" fill="#000" stroke-width="0"/><path d="M42.83,56.24c.41-.15.75,0,1.05.28,0,0,.05-.05.05-.05-.35-.09-.7-.18-1.05-.26,0,0-.04.03-.04.03Z" fill="#000" stroke-width="0"/><path d="M44.38,55.2c.09.14.19.29.28.43-.06.02-.12.04-.18.06-.02-.18-.03-.36-.05-.55,0,0-.06.05-.06.05Z" fill="#000" stroke-width="0"/><path d="M47.8,54.74c-.05.35.21.85-.45.89,0,0,.05.04.05.04,0-.31,0-.61,0-.92,0,0-.06.05-.06.05.17,0,.33,0,.5,0l-.05-.05Z" fill="#000" stroke-width="0"/><path d="M44.35,54.74c0,.16.02.31.03.47,0,0,.06-.05.06-.05-.31-.1-.91.23-.79-.52,0,0-.05.04-.05.04.27.04.54.08.81.12,0,0-.05-.05-.05-.05Z" fill="#000" stroke-width="0"/><path d="M41.36,54.73c.32.12.64.23.97.34,0,0,.04-.02.05-.02-.39.07-.78.12-.96-.37,0,0-.05.05-.05.05Z" fill="#000" stroke-width="0"/><path d="M42.56,54.37c.42-.17.7.13,1.02.31,0,0,.05-.04.06-.05-.39.06-.83.28-1.04-.3l-.04.04Z" fill="#000" stroke-width="0"/><path d="M40.29,54.47c.38-.03.8-.19,1.06.26,0,0,.05-.05.06-.06-.41.14-.75-.04-1.07-.25,0,0-.05.05-.05.05Z" fill="#000" stroke-width="0"/><path d="M39.98,53.9c-.39.09-.7-.07-.98-.33,0,0-.05.05-.05.05.41-.17.81-.3,1.03.28h0Z" fill="#000" stroke-width="0"/><path d="M41.45,53.18c.08.09.21.17.21.25,0,.09-.13.17-.2.26-.05-.05-.14-.11-.13-.15.02-.12.07-.23.12-.35Z" fill="#000" stroke-width="0"/><path d="M42.18,52.58c-.55-.04-.62-.38-.51-.82,0,0,.06-.05.06-.05.65.08.52.49.4.91l.05-.04Z" fill="#000" stroke-width="0"/><polygon points="39.87 47.86 39.77 48.02 39.72 47.84 39.87 47.86" fill="#000" stroke-width="0"/><path d="M37.57,51.99c-.05,0-.11.02-.16.03.04-.01.09-.02.14-.04,0,0,.02.01.02.01Z" fill="#000" stroke-width="0"/><path d="M39.92,52.34s-.05.08-.07.12c-.06-.05-.12-.09-.19-.14.05-.04.09-.11.14-.11.04,0,.08.08.12.13Z" fill="#000" stroke-width="0"/><path d="M40.55,52.73s.11-.02.14,0c.04.03.08.1.06.13-.09.18-.19.18-.27,0-.01-.03.04-.09.07-.13Z" fill="#000" stroke-width="0"/><path d="M39.98,53.9c.37.04.44.25.31.56,0,0,.05-.05.05-.05-.12-.17-.24-.35-.36-.52,0,0,0,0,0,0Z" fill="#000" stroke-width="0"/><path d="M42.61,54.33c-.11-.06-.22-.12-.33-.17.08-.05.15-.09.23-.14.02.12.04.23.06.35,0,0,.04-.04.04-.04Z" fill="#000" stroke-width="0"/><path d="M38.8,54.2c0,.1,0,.2-.01.3,0-.05-.03-.09-.03-.14,0-.07.04-.13.06-.2,0,0-.02.03-.02.03Z" fill="#000" stroke-width="0"/><polygon points="39.4 55.88 39.26 55.93 39.28 55.8 39.4 55.88" fill="#000" stroke-width="0"/><path d="M40.36,56.05c.07-.06.15-.13.22-.19-.06.05-.12.11-.18.16l-.04.03Z" fill="#000" stroke-width="0"/><path d="M48.72,56.05c-.11-.09-.22-.18-.34-.27.11-.04.22-.07.33-.11,0,0-.05-.05-.05-.05,0,.16,0,.32,0,.48l.06-.05Z" fill="#000" stroke-width="0"/><path d="M40.4,56.02s-.06.04-.1.06c.02-.01.04-.02.06-.04,0,0,.04-.03.04-.03Z" fill="#000" stroke-width="0"/><polygon points="41.41 56.28 41.54 56.24 41.52 56.35 41.41 56.28" fill="#000" stroke-width="0"/><polygon points="45.34 56.26 45.48 56.21 45.46 56.34 45.34 56.26" fill="#000" stroke-width="0"/><path d="M44.36,56.98c-.25-.08-.46-.19-.43-.51,0,0-.05.05-.05.05.32.02.41.24.42.51,0,0,.05-.05.05-.05Z" fill="#000" stroke-width="0"/><path d="M46.4,56.72s-.08.07-.12.11c-.04-.04-.1-.09-.1-.13,0-.04.07-.08.11-.11.04.04.07.08.11.13Z" fill="#000" stroke-width="0"/><path d="M48.29,57.43c.03-.2.06-.4.1-.61,0,0-.05.05-.04.04.28.23.43.44-.1.51,0,0,.05.05.05.05Z" fill="#000" stroke-width="0"/><path d="M49.46,57.34c.09-.2.19-.4.28-.61,0,0,0,.02,0,.01-.08.18-.16.36-.24.55,0,0-.05.05-.05.05Z" fill="#000" stroke-width="0"/><path d="M49.5,57.3s.03.07.04.11c-.03-.02-.05-.04-.08-.06,0,0,.04-.04.04-.04Z" fill="#000" stroke-width="0"/><polygon points="46.87 58.74 46.83 58.62 46.82 58.73 46.87 58.74" fill="#000" stroke-width="0"/><path d="M46.82,58.73l.15.03s-.09-.02-.1-.02c0,0-.06-.01-.06-.01Z" fill="#000" stroke-width="0"/><path d="M50.86,59.11c-.02.06-.02.13-.06.18-.02.02-.09.01-.13.02.08-.05.15-.11.23-.16,0,0-.04-.04-.04-.04Z" fill="#000" stroke-width="0"/><path d="M54.81,61.34c-.15,0-.31,0-.46,0,0,0-.02,0-.02,0,.16,0,.33,0,.49,0h-.02Z" fill="#000" stroke-width="0"/><path d="M55.65,62.16s-.07.03-.1.04c.02-.01.04-.02.06-.03,0,0,.04-.01.04-.01Z" fill="#000" stroke-width="0"/><path d="M65.92,40.08c.06-.33.12-.65.18-.98l-.04.03c1.63.99,1.41-.32,1.34-1.16-.17-2.09-.44-4.16-.68-6.24-.04-.34-.32-.8.14-.9.46-.1.48.39.51.76.19,2.45.46,4.89.58,7.34.2,4.49-.41,8.93-.92,13.37-.13,1.17-.29,1.34-1.42,1.71.05-.06.11-.13.16-.19,1.17-1.18.4-2.81.95-4.14-.01.01-.03.03-.04.04-.66-.76-.47-1.62-.27-2.48.37.06.56-.06.47-.47.51-.2.53-.66.5-1.08-.06-.97.21-1.97-.24-2.91-.85.86-.06,1.84-.2,2.76-.06.42-.02.85-.02,1.28-.16.15-.32.3-.48.44-1.03-1.65-.1-3.35-.04-5.02,0-.1-.63-1.49.69-1.13.08-.91-1.33-.09-1.22-1.04,0,0,.04,0,.04,0Z" fill="#000" stroke-width="0"/><path d="M54.85,43.39c3.02,3.23,6.04,6.46,9.05,9.69l.03-.04c-3.58-2.68-6.86-5.65-9.19-9.55l.1-.1Z" fill="#000" stroke-width="0"/><path d="M66.1,39.1c-.36-.2-.44-.52-.38-.9l-.04.04c.21-.17.28-.34,0-.51l.05.06c-.17-.48-.33-.32-.5,0l.05-.05c-.55-.03-.32-.51-.46-.79,0,0-.05.05-.05.05,1.1-.01,1.33-.55,1.07-1.56-.08-.3-.36-1.03.18-1.1.81-.11.6.68.55,1.1-.14,1.23,1.05,2.65-.51,3.68,0,0,.04-.03.04-.03Z" fill="#000" stroke-width="0"/><path d="M53.87,42.62c-1.36-1.54-3.41-2.74-2.62-5.34,0,0,.14.13.14.13.02,2.13,1.81,3.32,2.65,5.02-.06.06-.11.12-.17.18Z" fill="#000" stroke-width="0"/><path d="M60.49,32.14c1.49-.87,3.12-1.26,4.83-1.33.29-.01.57,0,.72.31-.24.11-.47.28-.72.31-1.62.24-3.24.44-4.86.66l.03.04Z" fill="#000" stroke-width="0"/><path d="M56.85,33.3c-.51,1.05-1.43,1.36-2.5,1.4,0,0,.04.04.04.04.62-.85,1.49-1.25,2.51-1.4l-.04-.04Z" fill="#000" stroke-width="0"/><path d="M53.05,35.57c.29-.53.71-.84,1.33-.83,0,0-.04-.04-.04-.04-.19.69-.7.86-1.33.83l.04.04Z" fill="#000" stroke-width="0"/><path d="M58.32,33.02c.26-.64.78-.52,1.29-.46,0,0-.03-.04-.03-.04-.26.63-.81.44-1.29.45,0,0,.03.05.03.05Z" fill="#000" stroke-width="0"/><path d="M56.89,33.34c.44-.28.88-.53,1.43-.32,0,0-.03-.05-.03-.05-.33.72-.92.38-1.43.33,0,0,.04.04.04.04Z" fill="#000" stroke-width="0"/><path d="M65.58,33.19c.39-.02.69.08.73.53,0,.04-.1.12-.16.12-.54.06-.47-.39-.57-.7v.05Z" fill="#000" stroke-width="0"/><path d="M64.66,36.26c.05-.09.1-.18.14-.27-.05.08-.1.15-.14.24,0,0,0,.04,0,.04Z" fill="#000" stroke-width="0"/><path d="M52.26,36.6c-.29.27-.58.55-.87.82,0,0-.14-.13-.14-.13.06-.68.43-.84,1.03-.63,0,0-.03-.06-.03-.06Z" fill="#000" stroke-width="0"/><path d="M65.88,40.09l-.7.08s.08-.08.12-.09c.2,0,.41,0,.61,0,0,0-.04,0-.04,0Z" fill="#000" stroke-width="0"/><path d="M64.82,53.48c.38-.06.7.03.94.34-.05.06-.11.12-.16.19-.32-.1-.74-.06-.75-.57,0,0-.04.04-.04.04Z" fill="#000" stroke-width="0"/><path d="M63.9,53.08c.42-.14.76-.07.92.4,0,0,.04-.04.04-.04-.39.06-.75.05-.92-.4,0,0-.03.04-.03.04Z" fill="#000" stroke-width="0"/><path d="M64.39,42.29c-.06-.09-.12-.18-.18-.26-.04.04-.09.08-.13.12.08.04.16.07.25.11l.06.04Z" fill="#000" stroke-width="0"/><path d="M65.44,41.45s-.09-.13-.08-.14c.05-.05.12-.08.18-.12,0,.06.03.12.02.17-.01.04-.08.06-.12.09Z" fill="#000" stroke-width="0"/><path d="M63.26,38.78c.07.09.19.17.18.23-.01.09-.11.17-.18.25-.04-.05-.11-.1-.11-.15.01-.11.07-.21.11-.34Z" fill="#000" stroke-width="0"/><path d="M63.1,37.77s.03-.1.01-.15c0-.02-.08-.02-.12-.02.05.06.1.12.16.18h-.05Z" fill="#000" stroke-width="0"/><polygon points="62.8 36 62.88 35.88 62.91 36.01 62.8 36" fill="#000" stroke-width="0"/><path d="M65.58,33.14l-.04-.31c.02.12.03.23.05.35,0,0,0-.04,0-.04Z" fill="#000" stroke-width="0"/><path d="M60.45,32.09c-.12.5-.49.48-.88.43,0,0,.03.04.03.04.08-.57.5-.47.88-.43,0,0-.03-.04-.03-.04Z" fill="#000" stroke-width="0"/><polygon points="64.6 33.75 64.55 33.61 64.68 33.62 64.6 33.75" fill="#000" stroke-width="0"/><path d="M64.89,34.77l-.05-.05.05.05Z" fill="#000" stroke-width="0"/><path d="M64.85,34.72c-.07.05-.14.1-.21.15.03-.03.05-.09.08-.1.06-.02.12,0,.18,0,0,0-.05-.05-.05-.05Z" fill="#000" stroke-width="0"/><path d="M53.01,35.54c-.07.21-.14.41-.21.62h.04c-.1-.25-.09-.47.21-.58,0,0-.04-.04-.04-.04Z" fill="#000" stroke-width="0"/><path d="M52.8,36.15c-.18.15-.36.29-.54.45,0,0,.03.06.03.06.18-.16.36-.33.55-.5,0,0-.04,0-.04,0Z" fill="#000" stroke-width="0"/><path d="M64.35,36.89c.28-.12.37-.34.31-.63,0,0,0-.04,0-.05.03.26.07.52.11.79,0,0,.05-.05.05-.05-.15-.01-.29-.03-.43-.05h-.03Z" fill="#000" stroke-width="0"/><path d="M64.38,36.91s-.09.02-.13.03c.04-.02.07-.03.11-.05,0,0,.03.01.03.01Z" fill="#000" stroke-width="0"/><path d="M63.15,37.78l-.04.08s.06-.04.09-.07c-.04-.01-.07-.02-.11-.03,0,0,.05.01.05.01Z" fill="#000" stroke-width="0"/><path d="M65.72,38.2l-.58-.14.04.05c.09-.11.12-.23.09-.36,0,0-.05.05-.05.05.17,0,.33,0,.5,0,0,0-.05-.06-.05-.06,0,.17,0,.34,0,.51,0,0,.04-.04.04-.04Z" fill="#000" stroke-width="0"/><path d="M65.14,38.06c0,.09,0,.19.01.28-.01-.03-.03-.05-.03-.07.02-.05.04-.1.06-.16,0,0-.05-.05-.05-.05Z" fill="#000" stroke-width="0"/><polygon points="65.07 39.22 65.12 39.36 64.98 39.34 65.07 39.22" fill="#000" stroke-width="0"/><polygon points="62.4 39.83 62.37 39.72 62.47 39.73 62.4 39.83" fill="#000" stroke-width="0"/><path d="M61.72,41.91c-.05.04-.1.09-.16.13-.04-.05-.12-.11-.12-.16,0-.05.09-.09.15-.13.04.05.08.11.13.16Z" fill="#000" stroke-width="0"/><polygon points="62.96 41.92 62.8 41.98 62.82 41.83 62.96 41.92" fill="#000" stroke-width="0"/><path d="M64.33,42.25l.12.02s-.05.01-.07.02c0,0-.05-.04-.05-.04Z" fill="#000" stroke-width="0"/><polygon points="65.44 42.42 65.4 42.27 65.54 42.29 65.44 42.42" fill="#000" stroke-width="0"/><path d="M54.04,42.44c.14.15.28.3.43.46-.06.06-.12.12-.18.18-.14-.15-.28-.31-.41-.46.06-.06.11-.12.17-.18Z" fill="#000" stroke-width="0"/><path d="M54.75,43.49c-.16-.14-.31-.27-.47-.41.06-.06.12-.12.18-.18.13.16.26.33.38.49,0,0-.1.1-.1.1Z" fill="#000" stroke-width="0"/><path d="M58.17,101.91l-.75.37h0c-.02.06-.07.11-.06.17.01.1.05.2.08.31,0,0-.04-.06-.04-.06.05.27.18.47.48.48l-.05-.05c.16.16.32.33.48.49l-.05-.04c.39.46.79.89,1.49.66v-.03c.66,1.4,2.64.64,3.3,2.03l.03-.04c-.5-.05-1.01-.05-1.48-.17-5.28-1.43-5.84-2.83-2.73-7.15,1.26-1.74,2.72-3.34,4.09-5,.08.07.15.14.23.21-.08.21-.16.41-.24.62-.15.37-.44.71-.18,1.14-.19.01-.38.02-.58.03.01.07.03.14.04.2.16-.09.32-.19.48-.28.42-.32.32-.72.2-1.13.42.15.68-.02.85-.4l-.03-.02c.12.36.52.59.11,1.11-.88,1.1-1.68,2.28-2.42,3.48-.69,1.12-1.05.37-1.49-.16.4.12.82.31.9-.35.13-.13.27-.26.4-.4-.07-.05-.14-.1-.21-.15-.04.2-.09.39-.13.59-.38-.08-.81-.28-.9.36-.44.33-.35.78-.28,1.23l.03-.05c-.92.37-1.37,1.12-1.6,2.03l.05-.03ZM61.58,97s.12-.07.12-.11c0-.04-.06-.09-.1-.13-.04.04-.12.07-.12.11,0,.04.06.09.1.13Z" fill="#000" stroke-width="0"/><path d="M63.03,106.25c1.23,0,2.47-.1,3.69.03,1.47.16,2.04-.23,2.09-1.83.19-5.8.53-11.59.83-17.39.02-.39-.27-1.06.31-1.08.61-.02.36.66.34,1.03-.23,5.65-.44,11.31-.74,16.96-.14,2.63-.82,3.19-3.4,2.89-1.03-.12-2.2.21-3.09-.66,0,0-.03.04-.03.04Z" fill="#000" stroke-width="0"/><path d="M67.47,88.37c-.02.29-.05.58-.07.87l.04-.04c-.83.54-1.31,1.38-1.78,2.21,0,0,.06-.05.06-.05-.27.18-.55.35-.82.53l-.14-.12c.57-1.39,1.46-2.54,2.65-3.46,0,0,.07.07.07.07Z" fill="#000" stroke-width="0"/><path d="M62.95,93.89c.37-.91.97-1.62,1.8-2.13,0,0,.14.12.14.12-.03.28-.06.56-.09.84,0,0,.05-.06.05-.06-.56.48-1.11.96-1.67,1.44-.08-.07-.15-.14-.23-.21Z" fill="#000" stroke-width="0"/><path d="M68.78,86.62c.07.7-.45.96-.92,1.27l.04.04c.06-.57.14-1.14.85-1.28l.03-.02Z" fill="#000" stroke-width="0"/><path d="M66.59,91.41c-.15.27-.31.55-.46.82l.04.06c-.15-.31-.3-.62-.46-.93,0,0-.06.05-.06.05.33.02.66.03.99.05,0,0-.05-.04-.05-.04Z" fill="#000" stroke-width="0"/><path d="M59.73,104.25l-.04-.56c.37.09.02.22.02.33,0,.06,0,.13.02.19,0,0,0,.04,0,.04Z" fill="#000" stroke-width="0"/><path d="M58.26,103.17c.26.15.45.29-.02.41,0,0,.05.04.05.04,0-.17,0-.33,0-.5l-.04.05Z" fill="#000" stroke-width="0"/><path d="M60.46,102.24c.17-.23.34-.47.51-.7,0,0-.04-.05-.04-.05-.15.25-.1.64-.51.71,0,0,.05.05.05.05Z" fill="#000" stroke-width="0"/><path d="M59.53,100.93c-.03.13-.06.26-.08.39-.31-.25.08-.23.13-.34,0,0-.05-.05-.05-.05Z" fill="#000" stroke-width="0"/><path d="M60.97,101.54c.08-.31-.06-.75.45-.81v-.05c-.17.27-.34.54-.5.81,0,0,.05.06.05.06Z" fill="#000" stroke-width="0"/><path d="M59.69,99.97c.03.34.9.81-.16.97,0,0,.05.05.05.05.04-.35.09-.7.13-1.06,0,0-.03.04-.03.04Z" fill="#000" stroke-width="0"/><path d="M61.42,100.73c.02-.13.03-.25.05-.38-.02.04-.05.09-.06.14-.01.06,0,.12,0,.19,0,0,.01.06.01.06Z" fill="#000" stroke-width="0"/><path d="M63.76,94.28c.19-.06.38-.11.58-.17,0,.08,0,.15,0,.23-.2-.02-.4-.05-.61-.08,0,0,.03.01.03.01Z" fill="#000" stroke-width="0"/><path d="M65.23,92.66c-.06.26-.12.52-.18.77-.07-.26-.13-.52-.2-.78,0,0-.05.06-.05.06.16,0,.32,0,.49,0l-.05-.05Z" fill="#000" stroke-width="0"/><path d="M66.13,92.23c-.19.37-.45.61-.9.43,0,0,.05.05.05.05.07-.61.52-.42.89-.43l-.04-.06Z" fill="#000" stroke-width="0"/><path d="M67.05,90.6c-.07.32.04.74-.47.81,0,0,.05.04.05.04-.21-.48-.09-.76.46-.8l-.05-.05Z" fill="#000" stroke-width="0"/><polygon points="68.74 86.64 68.81 86.54 68.77 86.62 68.74 86.64" fill="#000" stroke-width="0"/><path d="M67.85,87.88c.11.36-.1.45-.39.48,0,0-.07-.07-.07-.07.04-.29.14-.5.49-.38,0,0-.04-.04-.04-.04Z" fill="#000" stroke-width="0"/><path d="M67.4,89.24c.12.03.24.06.36.09-.28.37-.24-.03-.32-.14,0,0-.04.04-.04.04Z" fill="#000" stroke-width="0"/><path d="M67.1,90.65c0-.11-.01-.23-.02-.34.32.13-.03.19-.03.29,0,0,.05.05.05.05Z" fill="#000" stroke-width="0"/><path d="M58.11,101.95c.25.02.49.05.55.36l.04-.05c-.18-.12-.35-.24-.54-.35,0,0-.06.04-.06.04Z" fill="#000" stroke-width="0"/><path d="M57.41,102.28c.3,0,.36.22.41.46l.05-.05h-.49s.04.06.04.06c0-.16,0-.32-.01-.47h0Z" fill="#000" stroke-width="0"/><path d="M58.66,102.31s.04-.05.04-.05c0,0-.04.05-.04.05Z" fill="#000" stroke-width="0"/><path d="M60.41,102.19c-.03.09-.06.17-.09.26,0-.04-.01-.08,0-.1.04-.04.09-.07.14-.11,0,0-.05-.05-.05-.05Z" fill="#000" stroke-width="0"/><path d="M57.82,102.74c.3-.01.46.12.44.43,0,0,.04-.05.04-.05-.16,0-.32,0-.49,0,0,0,.05.05.05.05,0-.16,0-.32,0-.48l-.05.05Z" fill="#000" stroke-width="0"/><path d="M92.12,63.11c-.5-.13-1.34.24-1.36-.27-.04-.79.86-.45,1.31-.49,3.51-.34,6.97-.95,10.38-1.84.39-.1.83.03,1.25.05-.16.5-.68.49-1.02.57-3.51.8-7.01,1.62-10.57,1.97Z" fill="#000" stroke-width="0"/><path d="M107.19,49.9c1.24,2.37,2.11,4.88,2.88,7.43.09.31.1.72-.25.94-.03.02-.35-.26-.36-.42-.23-2.78-2.15-5.04-2.43-7.81,0,0,.16-.14.16-.14Z" fill="#000" stroke-width="0"/><path d="M92.26,59.14c-.62.77-1.23,1.56-1.87,2.32-.15.18-.42.27-.64.4-.18-.33.08-.5.24-.73.96-1.33,1.79-2.76,3.02-3.86.08.07.16.15.24.22-.04.26-.09.53-.13.79,0,0,.03-.05.03-.05-.31.32-.62.64-.93.96,0,0,.04-.04.04-.04Z" fill="#000" stroke-width="0"/><path d="M100.46,49.43c1.32-1.03,2.23-2.93,4.43-2.03l.04-.04c-1.69.25-2.77,1.67-4.28,2.27-.06-.07-.13-.13-.19-.2Z" fill="#000" stroke-width="0"/><path d="M96.19,54.35c-.42.28-.54.97-1.21.93-.07-.06-.13-.12-.2-.18.84-1.19,1.76-2.31,3.04-3.06.06.07.13.13.19.2-.18.27-.36.53-.54.8,0,0,.04-.04.04-.04-.16.16-.32.32-.48.48l.02-.04c-.29.3-.57.59-.86.89l-.02.02Z" fill="#000" stroke-width="0"/><path d="M93.02,57.27c.35-.92.95-1.63,1.77-2.17.07.06.13.12.2.18.53.8-.98.95-.55,1.71,0,0,.06-.07.06-.07l-1.23.57c-.08-.07-.16-.15-.24-.22Z" fill="#000" stroke-width="0"/><path d="M104.89,47.39c1.49.18,1.92,1.32,2.3,2.51,0,0-.16.14-.16.14-.7-.9-1.4-1.8-2.1-2.7,0,0-.04.04-.04.04Z" fill="#000" stroke-width="0"/><path d="M107.94,59.54c-.8.88-1.87.85-2.93.88-.03,0-.07-.17-.11-.26.99-.38,1.96-.87,3.08-.57l-.04-.04Z" fill="#000" stroke-width="0"/><path d="M100.65,49.62c-.04.27-.08.54-.12.81l.05-.05c-.39,0-.71.13-.93.47l.03-.04c-.26.18-.53.37-.79.55-.07-.07-.13-.13-.2-.2.4-.77.89-1.45,1.75-1.75.06.07.13.13.19.2Z" fill="#000" stroke-width="0"/><path d="M102.58,50.3c.07.59.14,1.19.21,1.78l.04-.05c-.33-.26-.66-.51-.99-.77l.05.05c0-.3,0-.59,0-.89l-.05.05c.26-.05.52-.1.78-.14,0,0-.05-.04-.05-.04Z" fill="#000" stroke-width="0"/><path d="M100.53,50.83c.02.57-.4.74-.84.89l.05.05c-.02-.32-.04-.63-.06-.95,0,0-.03.04-.03.04.31,0,.62,0,.93,0l-.05-.05Z" fill="#000" stroke-width="0"/><path d="M101.84,51.26c0,.3.15.69-.34.76-.08,0-.24-.17-.25-.27-.07-.54.34-.43.65-.43,0,0-.05-.05-.05-.05Z" fill="#000" stroke-width="0"/><path d="M98.02,55c-.53-.04-.55-.31-.26-.65.11-.13.33-.17.5-.25-.07.31-.13.62-.2.93l-.04-.03Z" fill="#000" stroke-width="0"/><path d="M99,55.37c-.02-.11-.04-.22-.05-.32,0-.02.09-.04.14-.06.02.11.05.21.05.32,0,.02-.09.04-.14.06Z" fill="#000" stroke-width="0"/><path d="M103.43,49.42c.1.28.21.55.31.84,0,0,.02-.04.02-.04-.39.03-.78.06-1.17.09,0,0,.05.04.04.03.28-.3.57-.6.85-.89l-.04-.02Z" fill="#000" stroke-width="0"/><path d="M107.98,59.58c-.05-.25.1-.36.32-.36.07,0,.13.13.2.19-.18.04-.37.08-.55.13,0,0,.04.04.04.04Z" fill="#000" stroke-width="0"/><path d="M92.22,59.19c.12,0,.24,0,.36,0-.03.07-.06.15-.09.22-.07-.09-.15-.18-.22-.28,0,0-.04.05-.04.05Z" fill="#000" stroke-width="0"/><path d="M94.43,57.83l-.86.39.02.06c.3-.14.6-.29.89-.43l-.05-.02Z" fill="#000" stroke-width="0"/><path d="M94.43,56.99c.14,0,.22-.07.23-.21,0,0-.02,0-.02,0,.15.39.19.76-.2,1.04,0,0,.05.02.05.02,0-.31,0-.62,0-.92l-.06.07Z" fill="#000" stroke-width="0"/><path d="M95.89,56.57c-.41.07-.83.15-1.24.22,0,0,.03,0,.02,0,.39-.06.78-.11,1.18-.17,0,0,.05-.05.05-.05Z" fill="#000" stroke-width="0"/><path d="M98.07,55.03c-.03.1-.05.2-.08.3.3-.08.15-.2.04-.32,0,0,.04.03.04.03Z" fill="#000" stroke-width="0"/><path d="M100.48,54.2s-.08-.07-.12-.1c.05-.02.1-.06.15-.06.05,0,.08.06.12.1-.05.02-.1.04-.15.06Z" fill="#000" stroke-width="0"/><path d="M98.74,53.12c.14.13.27.27.41.4-.07.04-.14.07-.2.11-.05-.19-.1-.38-.15-.57l-.06.06Z" fill="#000" stroke-width="0"/><path d="M98.35,53.01c-.15.39-.49.41-.84.43l.02.05c0-.16,0-.32-.01-.49,0,0-.04.04-.04.04.31,0,.62,0,.93.01l-.06-.05Z" fill="#000" stroke-width="0"/><path d="M99.94,52.43c.04.19.08.38.12.57-.1,0-.2,0-.3,0,.07-.18.15-.36.22-.54l-.04-.03Z" fill="#000" stroke-width="0"/><path d="M99.98,52.47c.25-.06.5-.12.75-.18.01.07.03.14.04.21-.27-.02-.55-.03-.83-.05,0,0,.04.03.04.03Z" fill="#000" stroke-width="0"/><path d="M98.79,53.07c-.15-.02-.29-.04-.44-.06l.06.05c0-.31,0-.62,0-.93l-.04.04c.6.13.46.55.37.95,0,0,.05-.05.05-.05Z" fill="#000" stroke-width="0"/><path d="M103.47,49.44c.12-.06.23-.12.36-.16.03-.01.09.05.13.08-.17.02-.35.05-.52.07,0,0,.04.02.04.02Z" fill="#000" stroke-width="0"/><path d="M101.89,50.42c-.12-.06-.24-.12-.36-.17.07-.05.13-.1.2-.16.04.13.07.25.11.38,0,0,.05-.05.05-.05Z" fill="#000" stroke-width="0"/><path d="M100.53,50.44c.12.09.25.18.37.27-.12.04-.24.08-.37.12,0,0,.05.05.05.05,0-.16,0-.32,0-.48l-.05.05Z" fill="#000" stroke-width="0"/><path d="M103.8,50.99c-.02-.25-.04-.51-.05-.77,0,0-.02.04-.01.03.01.25.01.51.02.77,0,0,.04-.04.04-.04Z" fill="#000" stroke-width="0"/><polygon points="103.76 51.03 103.68 50.94 103.8 50.98 103.76 51.03" fill="#000" stroke-width="0"/><path d="M98.4,51.75c-.07-.28.06-.46.3-.57.07.07.13.13.2.2-.18.11-.36.22-.54.33,0,0,.04.04.04.04Z" fill="#000" stroke-width="0"/><path d="M97.83,52.04c.11-.26.28-.39.57-.29,0,0-.04-.04-.04-.04,0,.15,0,.31,0,.46,0,0,.04-.04.04-.04-.11.1-.24.13-.38.11-.06-.07-.12-.14-.19-.2Z" fill="#000" stroke-width="0"/><path d="M99.7,51.72c-.05.11-.11.23-.16.34-.05-.07-.1-.13-.14-.2.12-.03.24-.06.36-.09,0,0-.05-.05-.05-.05Z" fill="#000" stroke-width="0"/><path d="M102.79,52.08c.02.08.05.16.07.24-.02-.04-.04-.07-.04-.11,0-.06,0-.12.02-.18,0,0-.04.05-.04.05Z" fill="#000" stroke-width="0"/><path d="M97.51,53.44c-.15.17-.29.28-.44,0,0,0-.02.04-.02.04.16,0,.33,0,.49.01,0,0-.02-.05-.02-.05Z" fill="#000" stroke-width="0"/><path d="M96.22,54.33c.1.05.21.1.31.15-.06.06-.12.12-.18.18-.05-.1-.1-.21-.15-.31,0,0,.02-.02.02-.02Z" fill="#000" stroke-width="0"/><path d="M96.97,55.44s-.09.08-.14.13c-.04-.05-.12-.1-.12-.14,0-.04.08-.08.13-.13.04.05.08.09.13.14Z" fill="#000" stroke-width="0"/><polygon points="100.01 55.42 99.87 55.47 99.88 55.33 100.01 55.42" fill="#000" stroke-width="0"/><path d="M95.84,56.62s.03-.03.04-.05c0,0-.04.05-.04.05Z" fill="#000" stroke-width="0"/><polygon points="97.31 56.4 97.26 56.27 97.39 56.28 97.31 56.4" fill="#000" stroke-width="0"/><path d="M93.57,58.22c-.14.18-.27.27-.42,0,0,0-.03.05-.03.05.16,0,.31,0,.47,0l-.02-.06Z" fill="#000" stroke-width="0"/><path d="M98.28,72.1c-2.15-.9-4.15.47-6.25.43-.48,0-1.23.4-1.36-.16-.13-.59.66-.56,1.14-.65,5.37-1.06,10.8-.91,16.22-.86,1.4.01,2.94.58,2.9,2.04-.15,4.51-.41,9.07-3.32,12.9l-.15-.14c2-3.52,2.4-7.46,2.93-11.36.28-2.08-.66-2.63-2.94-2.38-.86.1-1.9-.25-2.84-.42-1.89-.33-3.66,1.48-5.52.17,0,0,.13.04.13.04l-.08-.08c-.3.14-.6.29-.9.43l.04.05Z" fill="#000" stroke-width="0"/><path d="M90.19,73.87c1.86,1.78,3.71,3.55,5.57,5.33l.03-.04c-2.52-1.02-4.26-2.95-5.81-5.08.07-.07.14-.14.21-.21Z" fill="#000" stroke-width="0"/><path d="M106.79,86.74c-2.17.04-3.57-1.35-5-2.67l.14-.16c1.53.85,3.06,1.69,4.59,2.54.09.1.18.19.27.29Z" fill="#000" stroke-width="0"/><path d="M104.27,73.31c-.2-.77-1.08-.52-1.49-.98.62.02,1.29-.08,1.84.13.32.12,1.01-.13.95.45-.02.18-.85.26-1.31.39h0Z" fill="#000" stroke-width="0"/><path d="M99.25,81.8c1.23.28,1.93,1.22,2.68,2.11l-.14.16c-1.06-.52-1.98-1.19-2.51-2.3,0,0-.02.03-.02.03Z" fill="#000" stroke-width="0"/><path d="M97.57,80.44c.68.31,1.37.59,1.68,1.36,0,0,.02-.03.02-.03-.95.02-1.51-.43-1.65-1.38,0,0-.05.05-.05.05Z" fill="#000" stroke-width="0"/><path d="M95.76,79.19c.87.04,1.29.71,1.82,1.25,0,0,.05-.05.05-.05-.92.04-1.56-.32-1.83-1.24,0,0-.03.04-.03.04Z" fill="#000" stroke-width="0"/><path d="M98.24,72.06c-.11.25.5.65-.14.76-.15.03-.49-.17-.5-.29-.06-.55.62.01.69-.42,0,0-.04-.05-.04-.05Z" fill="#000" stroke-width="0"/><path d="M108.12,74.04c0-.32-.18-.67.16-.92.05-.04.29.1.29.11-.06.25-.15.5-.24.75,0,0,.05-.05.05-.05h-.19s-.12.15-.12.15l.05-.04Z" fill="#000" stroke-width="0"/><path d="M107.02,74.86c-.23.11-.45.22-.68.33.01-.21-.06-.51.05-.6.37-.31.45.07.57.31l.05-.04Z" fill="#000" stroke-width="0"/><path d="M106.97,74.9c.22.12.43.24.65.36-.07.08-.15.16-.22.23-.12-.21-.25-.43-.37-.64,0,0-.06.04-.06.04Z" fill="#000" stroke-width="0"/><path d="M107.61,85.79c-.04.52-.32.83-.82.95-.09-.1-.18-.2-.27-.29.31-.27.62-.54.94-.8,0,0,.15.14.15.14Z" fill="#000" stroke-width="0"/><path d="M108.33,73.98c.14.13.28.26.42.38-.51.19-.18-.35-.37-.43,0,0-.06.05-.06.05Z" fill="#000" stroke-width="0"/><path d="M105.49,74.25s.12,0,.13.02c.03.05.05.13.03.18-.08.2-.17.19-.22-.02-.01-.05.04-.12.06-.17Z" fill="#000" stroke-width="0"/><path d="M104.26,73.29c.05.27.1.53.15.8-.62-.16.03-.54-.14-.78,0,0-.01-.02-.01-.02Z" fill="#000" stroke-width="0"/><path d="M102.19,73.65s-.11.04-.13.03c-.03-.04-.04-.1-.06-.15.07-.01.14-.03.22-.04,0,.06-.02.11-.03.17Z" fill="#000" stroke-width="0"/><path d="M109.57,73.16l-.13.05c.03-.07.06-.15.08-.22.01.06.03.11.04.17Z" fill="#000" stroke-width="0"/><path d="M106.45,73.4c-.07-.09-.19-.17-.19-.26,0-.08.14-.15.22-.23.04.05.13.11.12.15-.03.11-.09.22-.14.33Z" fill="#000" stroke-width="0"/><path d="M95.44,72.9c-.05.03-.1.06-.15.1-.04-.07-.08-.13-.11-.2.06,0,.13-.04.18-.02.04.01.06.08.09.13Z" fill="#000" stroke-width="0"/><path d="M96.45,72.31s.11.09.11.13c0,.04-.08.08-.12.12-.04-.04-.11-.09-.11-.13,0-.04.08-.08.12-.12Z" fill="#000" stroke-width="0"/><path d="M99.47,72.71s.08.1.13.15c-.05.04-.1.12-.15.11-.05,0-.08-.09-.13-.14.05-.04.1-.08.15-.12Z" fill="#000" stroke-width="0"/><polygon points="100.44 73.27 100.3 73.33 100.32 73.19 100.44 73.27" fill="#000" stroke-width="0"/><path d="M101.17,73.22s.1-.02.12,0c.03.02.04.08.06.12-.08,0-.17,0-.25,0,.02-.04.04-.08.07-.12Z" fill="#000" stroke-width="0"/><path d="M107.43,73.32s-.09.08-.14.13c-.04-.05-.12-.1-.11-.14,0-.05.08-.08.13-.13.04.05.08.1.12.15Z" fill="#000" stroke-width="0"/><path d="M89.98,74.08c-.06-.15-.21-.42-.18-.44.24-.15.32.04.39.22-.07.07-.14.14-.21.21Z" fill="#000" stroke-width="0"/><path d="M103.51,73.71s-.05.08-.07.12c-.06-.04-.12-.09-.19-.13.04-.04.09-.11.13-.11.04,0,.08.08.12.12Z" fill="#000" stroke-width="0"/><polygon points="99.93 74.09 99.97 74.21 99.86 74.19 99.93 74.09" fill="#000" stroke-width="0"/><path d="M108.07,74.08s-.04-.06-.05-.1c.04.02.07.03.11.05,0,0-.05.04-.05.04Z" fill="#000" stroke-width="0"/><polygon points="102.2 74.65 102.06 74.7 102.08 74.56 102.2 74.65" fill="#000" stroke-width="0"/><path d="M43.44,52.62c0-.31,0-.62,0-.93.41.2.88.36.84.96l.04-.04c-.3,0-.59.01-.89.02Z" fill="#000" stroke-width="0"/><path d="M45.66,53.93c-.16,0-.32,0-.48,0,.16-.31.32-.62.48-.93v.93Z" fill="#000" stroke-width="0"/><path d="M42.56,51.26c.31,0,.62,0,.93,0,0,.16,0,.32,0,.48-.42.04-.77-.03-.93-.48Z" fill="#000" stroke-width="0"/><path d="M44.28,52.65l.36.05c-.04.07-.09.15-.13.22-.06-.11-.13-.21-.19-.32,0,0-.04.04-.04.04Z" fill="#000" stroke-width="0"/><path d="M41.27,49.96h.47c.15.31.3.61.46.92-.31,0-.62,0-.93,0,0-.3,0-.61,0-.91Z" fill="#000" stroke-width="0"/><path d="M42.13,50.82c.34,0,.47.19.49.49-.29-.03-.5-.16-.49-.49Z" fill="#000" stroke-width="0"/><path d="M41.31,49.52c0,.16,0,.32,0,.48-.38-.03-.85.12-.93-.48.31,0,.62,0,.93,0Z" fill="#000" stroke-width="0"/></svg>