<?xml version="1.0" encoding="UTF-8"?><svg id="Layer_1" xmlns="http://www.w3.org/2000/svg" viewBox="0 0 144.57 144.57"><path d="M37.82,74.32c-1.34-.49-2.2-1.53-3.17-2.41-2.25-2.04-4.16-4.37-5.7-6.98-.59-1-1.17-2-1.77-2.99-.83-1.37-2-2.4-3.24-3.38-1.06-.84-2.13-1.68-3.13-2.59-.64-.58-1.07-1.34-1.09-2.25-.01-.46.29-.71.71-.84,1.29-.4,2.61-.11,3.9-.26,1.31-.14,2.62-.32,3.9-.63,1.92-.47,3.8-1.07,5.69-1.62,2-.58,3.99-1.2,6-1.71,2.16-.55,4.37-.82,6.6-.66,1.4.1,2.8.31,4.18.58,1.3.25,2.58.63,3.86.99.69.2,1.37.48,2.05.72.05.02.1.03.09.02,0-.85-.07-1.71.02-2.55.13-1.31.64-2.52,1.23-3.69,1.63-3.24,3.94-5.97,6.43-8.56,2.14-2.23,4.32-4.41,6.41-6.67,1.98-2.13,3.69-4.47,4.98-7.09.13-.27.3-.52.66-.46.32.05.43.28.5.58.39,1.75.86,3.49,1.65,5.1.69,1.4,1.46,2.77,2.23,4.13,1.25,2.2,2.56,4.36,3.77,6.58.67,1.23,1.05,2.58,1.39,3.94.53,2.09.75,4.21.76,6.35.01,1.36-.1,2.72-.18,4.08-.02.4.07.55.49.62.91.14,1.79.11,2.67-.14,1.04-.29,1.95.03,2.81.59,1.3.83,2.41,1.84,3,3.32.64,1.6.57,3.14-.39,4.6-.04.05-.07.11-.12.18.35.15.54.11.73-.26.59-1.19,1.55-2.05,2.6-2.82,1.78-1.3,3.75-2.2,5.9-2.65,1.38-.29,2.77-.52,4.16-.71,1.48-.2,2.97-.28,4.44-.5,1.74-.26,3.49-.56,5.21-.96,1.45-.34,2.8-.97,4.1-1.72.19-.11.51-.12.73-.05.28.09.28.41.22.65-.18.65-.36,1.29-.58,1.93-.43,1.23-.86,2.46-1.32,3.68-.91,2.39-2.15,4.61-3.74,6.61-1.1,1.38-2.24,2.72-3.4,4.12.29.09.57.2.87.29,2.68.78,5.07,2.08,7.2,3.9,2.74,2.34,5.19,4.96,7.74,7.48.53.52.53.7.07,1.31-1.78,2.35-4.07,4.07-6.65,5.44-2.24,1.18-4.58,2.14-7,2.89-2.01.62-4.03,1.22-6.05,1.82-.63.19-1.27.33-1.97.5.12.34.22.66.34.96.91,2.27,1.88,4.53,2.72,6.82.75,2.04,1.39,4.11,2.02,6.19.55,1.82.88,3.69.96,5.6,0,.21.08.42.09.63.04.6-.43.91-.96.64-2.17-1.1-4.32-2.25-6.52-3.29-1.63-.76-3.31-1.44-5.01-2.02-1.63-.56-3.3-1-4.98-1.39-1.22-.29-2.47-.39-3.71-.62-1.73-.32-3.42-.77-4.9-1.79-.97-.67-1.71-1.52-1.97-2.71-.02-.1-.08-.19-.13-.32-.65.58-1.28,1.13-1.91,1.69-1.87,1.65-3.79,3.22-5.93,4.52-1.65,1-3.4,1.78-5.29,2.23-1.98.47-3.99.46-5.99.17-2.08-.31-4.07-.96-6.02-1.73-1.36-.54-2.74-1.04-4.15-1.4-.96-.24-1.99-.24-2.99-.29-.71-.03-1.39-.13-2.01-.49-.11-.06-.28-.07-.4-.03-.5.15-.8.06-1.09-.42-.56-.93-.59-1.93-.34-2.95.25-.98.57-1.95.75-2.95.11-.67.04-1.37,0-2.06-.02-.46-.14-.91-.19-1.37-.02-.24-.1-.35-.35-.36-1.7-.09-3.22-.69-4.67-1.55-1.44-.84-2.84-1.76-4.46-2.27-1.58-.51-3.19-.69-4.84-.54-1.16.11-2.32.05-3.34-.55-.64-.37-1.27-.83-1.63-1.51-.46-.85-.28-1.72.16-2.5.74-1.3,1.57-2.56,2.34-3.84.44-.73.89-1.47,1.28-2.23.63-1.24,1.25-2.48,1.82-3.75.34-.75.56-1.55.85-2.37ZM38.6,88.2c1.42-.2,2.78-.4,4.15-.57,1.32-.17,2.64-.36,3.97-.43,1.58-.08,3.12-.3,4.64-.73.1-.03.21-.14.26-.25.2-.35.36-.73.56-1.08.97-1.73,2.18-3.3,3.57-4.72.36-.37.7-.71.82-1.29.12-.54.48-1.05.79-1.53.5-.76,1.04-1.49,1.58-2.22.06-.08.22-.09.33-.13,0,.11.05.24,0,.33-.2.44-.41.89-.64,1.31-.28.5-.59.99-.88,1.48.03.03.07.06.1.09.44-.45.94-.86,1.32-1.36.55-.73.99-1.55,1.51-2.3.18-.26.47-.46.72-.67.06-.05.19-.02.29-.03,0,.1.05.21,0,.29-.14.3-.3.58-.47.87-.12.21-.26.41-.39.61.51-.27.93-.55,1.14-1.14.36-1,1.17-1.67,2.06-2.22.1-.06.26-.04.39-.06-.03.13-.02.28-.09.38-.26.38-.54.75-.82,1.12.71-.42,1.36-.89,2.04-1.32,2.52-1.62,4.97-3.33,7.21-5.32,2.07-1.84,4.33-3.4,6.85-4.56,1.58-.73,3.22-1.29,4.94-1.46,1.59-.16,3.19-.21,4.78-.26.55-.02.99-.11,1.48-.45,1.35-.94,2.42-2.11,3.24-3.52.32-.56.32-.61-.11-1.03-.34.22-.65.47-.99.64-1.71.85-3.41,1.71-5.14,2.5-1.26.57-2.54,1.1-3.85,1.53-1.65.54-3.34.97-5.01,1.44-2.02.57-3.97,1.33-5.72,2.53-.19.13-.41.23-.62.34-.04-.04-.08-.09-.12-.13.09-.12.15-.28.27-.36.76-.48,1.53-.97,2.32-1.41.41-.23.9-.32.87-.94,0-.07.05-.15.08-.22.43-.97,1.23-1.63,1.99-2.32.06-.05.19-.03.28-.05,0,.1.03.23-.02.31-.2.34-.41.68-.63,1-.36.52-.73,1.04-1.15,1.62.58-.21,1.09-.39,1.47-.52.12-.37.17-.64.28-.89.42-.93,1.03-1.72,1.81-2.36.08-.07.2-.08.31-.12.02.12.05.24.05.36,0,.07-.04.15-.08.22-.26.45-.52.92-.81,1.36-.24.37-.51.71-.76,1.06.02.03.04.06.06.09.54-.17,1.08-.34,1.66-.53-.31-.26-.29-.49-.08-.75.58-.7,1.15-1.4,1.74-2.1.09-.1.22-.17.4-.3.07.7-.21,1.17-.49,1.62-.28.45-.63.85-.95,1.27.39-.19,1.04.03,1.08-.7,0-.15.14-.31.24-.45.37-.48.73-.97,1.13-1.42.32-.36.71-.67,1.07-.99.06-.05.19-.08.24-.05.06.04.08.16.07.24,0,.1-.04.21-.09.3-.27.42-.53.85-.82,1.26-.26.37-.54.72-.81,1.08.02.02.04.04.06.06.4-.17.81-.34,1.2-.5-.15-.78,1.65-3.1,2.37-3.05,0,1.1-.92,1.72-1.31,2.67,2.56-1.39,5.12-2.77,7.67-4.16-.27-.45-.52-.56-.99-.39-1.91.69-3.88,1.08-5.88,1.35-.93.12-1.86.22-2.79.34-1.4.19-2.8.38-4.19.6-1.13.18-2.27.34-3.38.61-1.37.33-2.73.72-4.06,1.16-1.32.44-2.64.91-3.91,1.49-1.96.9-3.88,1.89-5.8,2.87-1.73.89-3.44,1.82-5.15,2.75-2.55,1.38-5.04,2.87-7.31,4.69-.77.62-1.65,1.15-2.15,2.06-.03.06-.12.1-.18.14-.16.11-.34.2-.47.33-2.1,2.22-3.65,4.82-5.15,7.46-1.2,2.13-2.48,4.2-4.26,5.91-.91.87-1.79,1.8-2.99,2.3-.08.03-.08.24-.12.37,3.26-1.87,6.39-3.78,9.25-6.08-.32-.73-.2-1.42-.01-2.12.02-.08.1-.21.14-.2.09.01.19.08.25.15.07.09.12.21.13.33.03.48.03.96.05,1.41.24-.19.53-.43.74-.6-.05-.33-.14-.58-.11-.82.08-.67.18-1.33.32-1.99.03-.16.24-.29.37-.43.1.17.29.33.29.5,0,.69-.05,1.39-.08,2.05.5-.27.52-.32.54-.91.01-.32.02-.64.08-.95.03-.19.16-.35.25-.53.14.18.28.36.4.55.04.07.02.18.03.27.02.11.04.22.08.38.23-.19.42-.33.59-.49.07-.07.15-.17.15-.26.05-.73.07-1.46.13-2.19.03-.34.14-.67.22-1h.17c.6.73.18,1.64.38,2.49.37-.34.71-.65,1.03-.94-.05-.18-.15-.34-.13-.48.07-.52.16-1.04.28-1.55.03-.13.18-.22.28-.34.08.12.19.22.22.35.05.2.06.42.07.63.01.2,0,.4,0,.67.45-.34.79-.59.84-1.13.04-.45.23-.88.4-1.31.05-.13.24-.2.37-.29.07.14.17.26.19.41.03.22,0,.45,0,.73.31-.29.63-.45.69-.91.06-.43.29-.84.47-1.25.05-.11.2-.18.31-.27.05.12.13.24.14.37.02.2,0,.4,0,.71.34-.25.58-.43.81-.62.04-.03.08-.1.09-.15.09-.36.17-.73.28-1.08.03-.08.19-.2.25-.18.1.03.2.16.22.26.04.15,0,.31,0,.42,1.73-.99,3.43-2.03,5.21-2.95,1.77-.91,3.59-1.71,5.42-2.5,1.81-.78,3.66-1.48,5.56-2.05,0,.09,0,.14-.03.15-.3.14-.59.28-.9.41-2.73,1.21-5.48,2.38-8.2,3.63-2.45,1.13-4.72,2.57-6.86,4.21-2.05,1.58-3.9,3.38-5.72,5.21-2.78,2.79-5.79,5.3-9.04,7.52-.82.56-1.66,1.11-2.53,1.69ZM66.21,103.19c1.44-.13,3.05-.25,4.67-.43,1.99-.23,3.83-.94,5.59-1.86,2.37-1.24,4.52-2.8,6.56-4.52,2.99-2.52,5.96-5.07,8.85-7.71,2.29-2.09,4.47-4.3,6.65-6.51.65-.66,1.43-1.21,1.84-2.09.37-.79.75-1.56.57-2.49-.07-.35-.16-.76.16-1.09.04-.04.01-.15,0-.23-.23-1.1-.4-2.21-.7-3.29-.44-1.59-.39-3.18-.14-4.78.13-.89.07-1.78-.36-2.59-.81-1.51-2.11-2.43-3.72-2.94-1.06-.34-2.16-.48-3.27-.5-2.8-.07-5.6-.15-8.4.17-1.46.17-2.87.56-4.23,1.11-2.78,1.11-5.2,2.82-7.53,4.67-1.12.89-2.19,1.86-3.29,2.79-.14.11-.31.19-.47.26-.13.06-.31.03-.41.11-3.55,2.53-7.08,5.09-10.36,7.98-2.27,2.01-4.23,4.27-5.52,7.05-.64,1.37-1.09,2.8-1.27,4.3-.11.9-.02,1.82,0,2.73,0,.16.06.37.17.47.53.45.57.58.2,1.19-.05.08-.08.19-.08.28.05.51.1,1.03.19,1.53.28,1.59.05,3.12-.44,4.64-.24.76-.55,1.54-.18,2.38.12.27.24.45.52.53.53.15,1.05.1,1.55-.1,1.23-.5,2.5-.86,3.81-.99,1.29-.13,2.58-.18,3.88-.23.63-.03,1.26.03,1.89.03.45,0,.9-.06,1.34-.04.58.03,1.15.11,1.92.18ZM105.62,79.73c.02.14.02.19.03.24.31,1.43.6,2.86.93,4.28.23.96.52,1.9.78,2.86.12.43.23.86.33,1.29.02.07-.06.15-.09.23-.07-.04-.18-.06-.21-.12-.42-.89-.9-1.77-1.22-2.7-.48-1.43-.83-2.91-1.25-4.37-.15-.51-.34-1-.51-1.49-.09-.27-.27-.4-.57-.36-.18.02-.36,0-.59,0,.87,3.18,1.89,6.25,2.5,9.44-1.45-2.64-2.5-5.45-3.47-8.38-.14.74-.26,1.39-.4,2.03-.09.38-.13.72.23.99.1.07.15.22.2.34.56,1.53,1.13,3.06,1.67,4.6.11.3.11.63.17.95-.05.02-.11.03-.16.05-1.21-1.46-1.79-3.27-2.71-5.04-.11.4-.33.75-.26,1.02.24,1.01.57,2,.86,3,.09.29.18.58.23.88.02.1-.06.27-.14.33-.05.04-.25-.02-.31-.09-.26-.34-.54-.68-.74-1.06-.27-.53-.47-1.09-.71-1.65-.49.5-.66,1.01-.35,1.64.18.36.33.75.44,1.14.05.16.04.44-.06.51-.21.17-.39-.02-.51-.21-.26-.41-.51-.81-.8-1.28-.54.81.32,1.52.02,2.32-.47-.25-.62-.75-.93-1.09-.67.71-1.33,1.4-2.04,2.16,1.67,0,3.25.06,4.82-.02,1.96-.1,3.9-.39,5.82-.84.24-.06.46-.19.7-.24.72-.14,1.47-.19,2.17-.39,1.97-.57,3.94-1.16,5.89-1.8,2.29-.75,4.55-1.58,6.72-2.65,2.52-1.25,4.8-2.81,6.6-5.01.2-.24.21-.39-.03-.62-1.39-1.37-2.75-2.78-4.16-4.14-1.17-1.12-2.35-2.24-3.6-3.27-2.42-2.01-5.25-3.21-8.31-3.83-1.34-.28-2.71-.46-4.08-.51-2.29-.07-4.59,0-6.89.01-.09,0-.25.1-.26.16-.09.59-.15,1.19-.23,1.86.29-.26.48-.47.71-.64.12-.09.3-.1.45-.15.01.18.09.39.02.52-.21.42-.5.8-.72,1.22-.1.19-.15.43-.15.65,0,.17.1.34.17.56.1-.13.16-.24.24-.34.64-.78,1.28-1.56,1.93-2.33.06-.07.2-.07.31-.1.02.12.1.27.05.35-.69,1.13-1.4,2.26-2.09,3.39-.08.13-.16.3-.15.45.02.24.12.48.2.77.1-.13.17-.22.24-.31.75-1.12,1.56-2.18,2.59-3.07.12-.1.31-.12.47-.17-.03.15-.03.33-.11.45-.93,1.37-1.88,2.74-2.81,4.11-.1.14-.19.33-.2.5-.03.54,0,1.07,0,1.65.14,0,.34.02.55.03,2.67.12,5.33.23,8,.38,1.36.07,2.71.2,4.06.34.93.1,1.86.24,2.78.38.78.12,1.55.32,2.33.41.53.06,1.03.44,1.61.19.09-.04.27.07.39.13.31.15.61.33.93.47.41.18.83.33,1.25.49-.01.05-.03.1-.04.15-.58.23-1.14-.24-1.75-.12.02.13.04.24.05.35.03.26.1.52.08.78-.01.17-.16.33-.24.49-.13-.11-.31-.2-.39-.34-.12-.21-.18-.46-.25-.7-.26-.84-.42-.97-1.16-.87.11.55.22,1.1.33,1.65.05.24.14.49.14.73,0,.15-.16.3-.24.45-.11-.1-.24-.18-.33-.29-.07-.08-.09-.19-.13-.29-.3-.79-.59-1.58-.9-2.36-.03-.07-.11-.17-.18-.18-.26-.06-.53-.09-.81-.13,0,.11-.02.19,0,.27.25.84.53,1.68.77,2.53.11.39.14.79-.07,1.2-.2-.2-.4-.4-.5-.63-.47-1.03-.91-2.07-1.37-3.11-.22-.49-.41-.58-1.04-.47.12.43.22.87.36,1.28.34.97.71,1.93,1.03,2.9.12.34.31.71-.05,1.17-.21-.26-.45-.46-.56-.72-.7-1.49-1.37-2.99-2.05-4.49-.19-.42-.34-.48-.82-.36.01.15,0,.32.04.46.42,1.35.86,2.68,1.26,4.03.16.52.35,1.04.25,1.74-.18-.17-.31-.25-.37-.37-.46-.9-.95-1.79-1.35-2.72-.39-.92-.74-1.86-1.01-2.82-.11-.4-.26-.53-.62-.5-.11,0-.23.01-.37.02.02.19.01.35.05.5.25.86.52,1.71.78,2.57.33,1.08.66,2.17.98,3.25.04.12,0,.26,0,.39-.04,0-.08.02-.12.03-.09-.11-.19-.21-.25-.33-.57-1.14-1.16-2.28-1.67-3.45-.37-.84-.65-1.72-.91-2.6-.15-.53-.19-.6-.79-.47,0,.07,0,.15.02.23.17.65.34,1.3.52,1.94.19.71.39,1.42.59,2.13.22.78.48,1.56.68,2.35.07.27.01.57.01.86-.05.02-.1.03-.15.05-.15-.23-.35-.45-.45-.7-.38-.98-.73-1.98-1.08-2.97-.44-1.25-.88-2.51-1.32-3.76-.03-.09-.14-.19-.22-.21-.23-.04-.46-.03-.74-.04.03.26.02.47.08.67.52,1.88,1.05,3.75,1.57,5.63.15.53.29,1.07.41,1.6.03.14-.01.29-.03.44-.05.02-.11.04-.16.05-.21-.38-.47-.74-.63-1.14-.39-.96-.73-1.95-1.11-2.92-.53-1.35-1.09-2.69-1.32-4.13-.02-.1-.13-.24-.21-.25-.24-.03-.49-.01-.78-.01ZM29.38,55.57c-.63-.1-1.15-.22-1.67-.27-1.14-.1-2.29-.16-3.44-.26-.34-.03-.67-.12-1-.19,0-.06,0-.11,0-.17.2-.04.39-.11.59-.12.4-.02.8-.04,1.19,0,1.78.14,3.56.26,5.33.45,1.38.15,2.75.33,4.11.59,1.18.22,2.34.52,3.49.86,1.36.4,2.72.85,4.05,1.35,1.44.55,2.86,1.15,4.26,1.8.82.38,1.58.88,2.38,1.31.08.05.25.02.34-.04.33-.19.64-.41.97-.61.78-.49,1.56-.98,2.3-1.45-.06-.24-.14-.43-.17-.63-.07-.47-.07-.95-.17-1.41-.21-.94-.44-1.87-.72-2.79-.2-.67-.5-1.3-.71-1.97-.06-.18.04-.41.07-.62.15.1.35.17.44.3.96,1.47,1.62,3.07,2.05,4.77.14.54.19,1.11.29,1.7.22-.12.43-.22.63-.35.05-.03.08-.14.07-.2-.07-.65-.11-1.31-.22-1.96-.12-.66-.29-1.31-.47-1.95-.11-.38-.3-.73-.41-1.11-.04-.14.04-.32.06-.47.14.05.31.07.42.17.15.12.29.29.36.46.33.83.66,1.66.94,2.51.19.6.28,1.23.43,1.89.25-.14.48-.26.65-.36-.05-.3-.12-.55-.12-.79,0-.84-.13-1.65-.37-2.46-.07-.24-.03-.52-.04-.78.06-.01.12-.02.18-.03,1.07.88,1.18,2.19,1.45,3.47.28-.16.52-.3.67-.39-.16-.61-.31-1.14-.44-1.67-.06-.24-.13-.53.16-.67.3-.14.49.1.65.31.05.06.09.13.12.2.16.42.32.85.5,1.31,1.01-.51,2.05-1.04,3.2-1.61-1.72-.72-3.32-1.4-4.93-2.06-1.89-.77-3.83-1.43-5.82-1.86-1.22-.26-2.46-.51-3.7-.65-1.78-.19-3.56-.17-5.34.12-.74.12-1.49.2-2.22.38-1.34.34-2.67.72-3.99,1.11-1.64.49-3.26,1.05-4.91,1.5-1.45.4-2.9.78-4.38,1.02-1.26.2-2.55.19-3.83.27-.57.04-1.13.07-1.7.11-.27.02-.42.16-.26.41.25.43.47.91.83,1.23.84.76,1.73,1.45,2.63,2.15,1.18.91,2.4,1.8,3.25,3.05.82,1.19,1.57,2.44,2.31,3.68,2.16,3.63,4.96,6.67,8.45,9.17.75-2.38,1.94-4.5,3.53-6.4-.12.04-.21.09-.29.16-1.11.99-2.21,1.99-3.32,2.98-.17.16-.36.3-.54.45l-.1-.09c.1-.19.17-.4.31-.56.6-.7,1.22-1.39,1.83-2.07,1.34-1.49,2.79-2.86,4.56-3.81,1.02-.55,2.06-1.04,3-1.87-.19.08-.31.13-.42.18-1.02.43-2.03.88-3.06,1.29-1.53.6-2.98,1.33-4.32,2.28-.85.6-1.66,1.26-2.49,1.89-.16.12-.35.22-.52.33-.04-.06-.07-.12-.11-.18,3.05-2.84,6.35-5.33,10.42-6.78-.37-.26-.62-.44-.93-.17-.06.05-.18.04-.27.06-.46.11-.94.18-1.38.34-1.14.42-2.26.87-3.38,1.32-.95.38-1.9.77-2.85,1.17-.3.13-.58.31-.88.47,2.25-1.79,4.55-3.49,7.38-4.32-.32-.17-.64-.38-.93-.35-.66.07-1.33.21-1.97.42-2.62.85-5.08,2.03-7.33,3.63-.08.06-.18.09-.28.14-.02-.04-.04-.07-.07-.11,1.21-.92,2.41-1.85,3.64-2.76,1.24-.92,2.59-1.64,4.06-2.13-.57-.23-1.1-.66-1.75-.23-.11.08-.27.11-.41.12-1.26.06-2.48.36-3.66.79-.21.08-.44.12-.66.19-.03-.05-.06-.1-.08-.15.47-.42,1.03-.72,1.59-1.01.57-.29,1.16-.55,1.77-.83-.3-.1-.55-.21-.82-.28-.25-.07-.53-.18-.77-.14-.53.09-1.04.26-1.56.41-.97.28-1.87.71-2.71,1.27-.09.06-.19.08-.29.12-.02-.04-.05-.08-.07-.12.83-.89,1.89-1.48,2.95-2.19-.42-.12-.77-.25-1.12-.29-.12-.02-.25.2-.39.28-.09.05-.2.07-.3.06-.87-.05-1.63.24-2.33.74-.17.12-.37.2-.55.3-.02-.04-.04-.07-.07-.11.43-.8,1.23-1.17,1.97-1.66-.59-.02-1.09-.36-1.75-.16-.9.28-1.84.44-2.7.87-.06.03-.16,0-.24-.02-.02-.04-.04-.09-.05-.13.61-.35,1.22-.71,1.93-1.12ZM85.25,53.61c-1.47-.52-2.93-.78-4.4-.9-2.12-.17-4.23.03-6.3.49-1.76.39-3.51.87-5.22,1.43-2.19.72-4.36,1.49-6.49,2.36-1.81.74-3.56,1.63-5.32,2.48-1.07.51-2.11,1.08-3.17,1.62-.09.04-.19.04-.29.07.1-.2.22-.32.37-.4.89-.51,1.76-1.05,2.67-1.52,1.4-.72,2.83-1.4,4.26-2.07,1.32-.62,2.67-1.2,3.99-1.81.13-.06.22-.22.32-.34.29-.34.56-.68.87-1,.05-.05.24-.05.31,0,.07.05.08.2.07.31-.01.13-.07.26-.1.39.03.03.07.05.1.08.21-.17.53-.31.61-.53.23-.59.66-.97,1.14-1.32.08-.06.22-.03.33-.03,0,.1.04.21,0,.29-.12.28-.26.56-.42.88.2-.08.34-.16.49-.19.25-.05.35-.2.38-.44.08-.56.42-.91.94-1.15.36.41,0,.76-.07,1.13.1-.03.18-.05.27-.07.36-.09.63-.23.75-.67.09-.34.38-.64.64-.9.11-.11.36-.06.55-.08-.01.18,0,.38-.04.55-.04.14-.17.26-.26.39-.04.06-.08.13-.15.24.27-.09.47-.19.67-.22.32-.04.45-.22.58-.5.14-.3.39-.55.63-.78.09-.08.28-.05.43-.07.01.16.06.32.03.48-.02.14-.11.27-.17.4.53.02.9-.17,1.16-.6.08-.13.22-.24.35-.3.14-.06.31-.06.47-.09-.02.13-.04.26-.06.4,0,.06-.03.12-.03.13,1.65-.08,3.29-.16,4.92-.24-1.05-.28-2.1-.58-3.18-.69-2.04-.2-4.08-.08-6.11.33-1.61.33-3.17.77-4.7,1.35-3.01,1.14-5.89,2.55-8.72,4.08-2.51,1.36-5,2.76-7.47,4.21-2.43,1.43-4.74,3.05-6.81,4.98-2.06,1.92-3.66,4.15-4.67,6.77-.55,1.42-1.06,2.86-1.56,4.31-1.01,2.97-2.53,5.67-4.24,8.28-.44.67-.84,1.36-1.25,2.04.4.26.66.18.87-.16.1-.16.22-.3.34-.44,2.05-2.32,3.84-4.82,5.11-7.67.04-.09.1-.22.07-.29-.22-.46.08-.86.13-1.28,0-.05.16-.09.24-.13.03.08.08.16.08.23,0,.13-.04.26-.06.39.08-.05.11-.11.14-.17.13-.26.32-.49,0-.8-.16-.16-.1-.51.16-.65.12-.07.32-.01.54-.01.17-.24-.1-.52-.12-.82-.02-.23.05-.46.08-.7.16.13.33.25.49.38.02.01.04.03.07.05.19-.23.28-.46.19-.79-.14-.48-.21-.98-.25-1.48-.01-.18.17-.37.26-.55.14.15.33.28.41.46.11.24.14.51.21.77.22-.26.44-.51.47-.79.03-.33-.11-.67-.15-1-.04-.3-.04-.61-.06-.91.06-.02.11-.04.17-.07.23.34.47.68.73,1.07.03-.15.09-.32.07-.47-.06-.44-.16-.88-.21-1.32-.01-.14.1-.29.16-.44.17.08.38.11.48.24.15.18.22.44.32.66.04,0,.07,0,.11.01.04-.19.12-.38.11-.56-.01-.29-.12-.57-.13-.85,0-.15.12-.3.18-.44.14.07.3.12.41.23.11.11.17.27.26.42.04,0,.09-.01.13-.02,0-.16-.02-.32,0-.47.05-.23.12-.46.21-.68.02-.04.23-.06.27-.02.25.26.39.06.54-.11,2.25-2.59,4.89-4.72,7.89-6.38.12-.07.26-.08.4-.12.02.04.03.08.05.12-.13.1-.25.2-.38.31-1.34,1.06-2.72,2.08-4.03,3.18-2.19,1.85-4.1,3.98-5.8,6.3-2.02,2.76-3.52,5.8-5.02,8.85-.62,1.26-1.22,2.54-1.84,3.8-.69,1.4-1.62,2.62-2.8,3.64-.06.05-.08.16-.11.25.11,0,.22.04.31,0,.14-.06.27-.17.4-.25,1.25-.76,2.31-1.75,3.25-2.84-.28-.49.17-.76.25-1.22.18.2.29.31.44.48.05-.18.1-.3.1-.43,0-.3-.02-.61,0-.91,0-.12.08-.32.17-.34.12-.03.29.03.42.1.09.05.13.19.19.28.04,0,.09,0,.13,0,.01-.58.03-1.17.04-1.75.06-.01.11-.03.17-.04.17.21.35.41.5.6.43-.42.61-.92.55-1.51-.01-.12,0-.25.03-.35.07-.18.18-.34.27-.5.14.11.27.21.41.32.02.01.05,0,.07.01.35-.39.54-.83.49-1.37-.03-.27-.02-.56.02-.83.01-.11.14-.2.21-.3.09.07.21.12.27.21.09.12.13.27.19.41.04,0,.08.02.12.02.09-.3.23-.59.26-.89.04-.47,0-.95,0-1.43,0-.14.09-.28.14-.42.13.11.31.2.38.34.11.24.15.5.23.77.37-.37.61-.76.58-1.31-.02-.39.03-.79.1-1.18.02-.12.17-.23.26-.34.09.1.22.18.27.3.09.23.13.47.2.74.31-.29.58-.52.56-1.02-.02-.52-.1-1.08.24-1.58.43.32.4.8.47,1.22.65-.28.63-.86.75-1.4.06-.3.22-.58.33-.88.06,0,.12.02.18.02.07.29.13.58.21.92.51-.38,1-.72,1.08-1.4.01-.1.09-.22.18-.27.05-.02.17.08.25.14.05.04.08.1.19.24.14-.25.28-.44.35-.65.08-.24.17-.36.45-.29.13.03.31,0,.43-.07.73-.47,1.44-.97,2.17-1.44,2.53-1.6,5.19-2.97,7.9-4.24.39-.18.85-.28,1.18-.54,1.22-.94,2.62-1.57,3.96-2.3,1.03-.55,2.25-.79,3.02-1.78.03-.04.09-.06.13-.09.12-.07.25-.13.37-.19.04.14.08.27.12.43.47-.22,1.01-.29,1.29-.9.18-.4.59-.7.91-1.03.07-.07.22-.06.34-.09,0,.12.02.26-.02.37-.09.25-.22.48-.38.81.39-.15.68-.28.98-.36.23-.06.35-.11.24-.39-.04-.1.05-.28.12-.4.34-.58.79-1.06,1.37-1.4.1-.06.23-.07.34-.11,0,.13.05.29,0,.39-.29.51-.61,1-.92,1.5.48-.15.99-.31,1.52-.48-.16-.31-.17-.52.08-.78.34-.36.73-.68,1.12-.99.12-.09.3-.11.46-.16-.05.16-.06.35-.15.48-.26.41-.55.8-.85,1.23.14-.03.26-.07.37-.09.43-.08.87-.13.88-.72,0-.05.04-.1.07-.14.65-.98,1.5-1.77,2.47-2.42.06-.04.17-.03.25-.04,0,.1.05.22.01.29-.1.18-.23.36-.36.52-.57.69-1.15,1.38-1.74,2.09.24-.04.47-.06.68-.11.45-.1.83-.24,1.08-.73.21-.41.64-.72,1-1.04.09-.08.29-.06.43-.08,0,.13.02.28-.03.4-.15.33-.33.65-.5.98.56.06.52.02.85-.38.41-.49.89-.91,1.36-1.34.08-.08.26-.05.39-.07,0,.14.03.31-.04.42-.23.39-.5.76-.79,1.19.39-.06.75-.11,1.07-.16.29-.84.98-1.25,1.65-1.77ZM63.93,40.81c.14.19.25.3.32.43.74,1.4,1.43,2.82,2.22,4.19.97,1.68,2.02,3.31,3.04,4.95.04.07.17.15.24.13.41-.09.8-.2,1.13-.28-.42-.67-.87-1.32-1.24-2-1.31-2.37-2.6-4.76-3.9-7.15-.21-.39-.43-.78-.63-1.19-.04-.09,0-.21,0-.32.11.05.22.09.32.15.03.02.04.07.06.1,1.57,2.42,3.15,4.84,4.72,7.26.38.58.77,1.14,1.17,1.73q.42-.81-.15-1.45c-.11-.13-.22-.27-.3-.41-.75-1.36-1.48-2.73-2.23-4.09-.81-1.47-1.63-2.92-2.43-4.39-.07-.12,0-.32,0-.48.12.07.3.11.37.21,1.37,2.08,2.73,4.16,4.09,6.25.46.7.92,1.4,1.4,2.13.22-.55.51-1.05-.03-1.53-.05-.04-.07-.11-.1-.17-.8-1.3-1.6-2.6-2.41-3.9-.69-1.1-1.41-2.19-2.1-3.3-.14-.23-.21-.5-.3-.76.03-.02.07-.04.1-.06.07.04.15.06.2.11,2.03,2.16,3.63,4.63,5.46,7.07.04-.36.2-.72.08-.95-.45-.89-1-1.73-1.5-2.59-.98-1.67-1.95-3.34-2.92-5.02-.07-.12-.03-.31-.04-.46.14.06.34.08.42.19,1.14,1.58,2.27,3.17,3.4,4.76.38.53.72,1.09,1.1,1.66.1-.38.22-.7.27-1.04.04-.29.07-.61-.03-.87-.11-.31-.36-.58-.55-.86-1.12-1.71-2.25-3.41-3.36-5.12-.11-.16-.29-.38-.06-.56.24-.18.41,0,.55.19.92,1.17,1.83,2.35,2.75,3.52.37.47.74.93,1.16,1.46.03-.22.02-.36.06-.48.23-.66.13-1.22-.24-1.84-.88-1.48-1.67-3.02-2.49-4.54-.07-.13-.04-.32-.05-.48.17.05.4.04.51.15.36.38.7.79,1.01,1.21.61.82,1.19,1.67,1.77,2.48.04-.15.1-.34.13-.54.02-.15.03-.33-.03-.45-.51-.92-1.05-1.82-1.56-2.74-.21-.38-.36-.78-.53-1.18-.03-.08,0-.19,0-.28.1.04.23.05.3.11.32.34.65.69.94,1.06.38.49.72,1.01,1.08,1.52.06-.02.12-.04.18-.06-.04-.42.02-.89-.16-1.24-.43-.85-.98-1.65-1.46-2.48-.07-.12-.05-.28-.08-.42.14.04.31.05.41.14.55.46,1.08.95,1.62,1.42-.02-.05.06-.27,0-.35-.54-.59-.49-1.41-.81-2.08-.04-.08-.02-.2-.02-.29.04-.01.07-.03.11-.04.27.31.54.61.82.93.06-.79.12-1.55.18-2.37.14.09.23.12.23.16.36,8.32-1.03,16.37-3.88,24.23.22-.01.35-.02.47-.03.72-.08,1.44-.17,2.16-.23.36-.03.65-.08.84-.44.12-.24.34-.45.56-.6,1.13-.8,2.25-1.61,3.41-2.35.68-.44,1.44-.76,2.18-1.11.12-.06.29-.02.44-.03-.06.13-.1.29-.2.38-.36.32-.73.65-1.13.93-1.54,1.07-3.1,2.12-4.62,3.16.52.04,1.11.08,1.7.11.09,0,.19-.07.26-.13.51-.43,1-.9,1.53-1.3.83-.61,1.65-1.24,2.68-1.49.21-.05.45.01.67.02-.11.19-.18.44-.35.56-.7.51-1.43.98-2.15,1.48-.47.32-.93.66-1.43,1.02.18.06.28.11.38.14.47.12.9.22,1.36-.17.43-.37.98-.6,1.49-.87.09-.05.24.01.36.02-.02.12,0,.27-.06.35-.14.19-.3.37-.48.52-.27.22-.57.4-.85.59,1.26.55,2.49,1.09,3.76,1.65.1-.64.24-1.2.27-1.77.05-.92.02-1.85.03-2.77,0-2.02-.28-4-.78-5.95-.46-1.8-1.13-3.51-2.07-5.11-1.31-2.24-2.68-4.44-4.01-6.67-.88-1.49-1.58-3.07-2.08-4.73-.15-.49-.31-.97-.49-1.5-.08.1-.13.16-.17.22-1.11,1.93-2.42,3.71-3.93,5.34-2.01,2.17-4.07,4.28-6.12,6.4-2.57,2.66-5.03,5.41-6.79,8.7-1.06,1.98-1.64,4.06-1.26,6.32.02.11.1.27.19.31.61.28,1.23.54,1.91.82-.45-1.01-.72-1.98-.78-3-.01-.25.11-.51.17-.77.13.21.32.4.38.63.29.96.7,1.85,1.25,2.68.21.32.25.6-.02.93.57.21,1.1.41,1.64.6-.06-.25-.18-.42-.27-.61-.53-1.16-1.11-2.3-1.56-3.49-.31-.83-.45-1.72-.66-2.59-.02-.06.04-.15.1-.32,1.24,2.37,2.44,4.64,3.66,6.97.24-.1.47-.2.7-.3,0-.07,0-.1-.01-.12-.09-.13-.18-.26-.26-.39-1.44-2.17-2.07-4.66-2.8-7.11-.07-.25,0-.54,0-.81.05,0,.1,0,.15-.01.39.3.53.76.66,1.2.49,1.65,1.19,3.21,2.08,4.68.34.56.74,1.09,1.06,1.66.25.45.22.47.68.25.07-.03.13-.07.21-.12-.93-1.36-1.6-2.81-2.12-4.34-.51-1.51-1.23-2.94-1.54-4.52.8,1.4,1.5,2.85,2.27,4.26.78,1.42,1.65,2.79,2.5,4.21.33-.11.69-.23,1.05-.35-1.74-2.77-4.73-9.3-4.55-10.1ZM113.17,111.57c-.1-.68-.15-1.25-.26-1.8-.27-1.37-.47-2.76-.87-4.09-.63-2.09-1.37-4.15-2.14-6.2-.86-2.26-1.82-4.49-2.72-6.74-.12-.3-.28-.31-.54-.26-.83.16-1.66.3-2.49.45-.49.09-1.01.12-1.47.29-.47.18-.88.54-1.34.74-.35.15-.75.21-1.13.26-.1.01-.29-.16-.32-.28-.04-.12.05-.3.12-.43.04-.08.16-.11.26-.18h-2.65c1.16.84,2.46,1.64,3.57,2.64,1.12,1.01,2.05,2.22,3.05,3.36,1.11,1.27,2.4,3.29,2.41,3.72-.11-.11-.2-.21-.33-.34-.05.28-.08.5-.13.72-.09.4-.17.79-.28,1.19-.02.08-.13.15-.22.18-.04.01-.16-.11-.17-.17-.1-.91-.28-1.83.16-2.71.03-.05.04-.14.02-.18-.28-.4-.58-.79-.91-1.24-.34,1.2-.2,2.41-.82,3.44-.08-.12-.13-.23-.13-.34,0-.95,0-1.9.01-2.85,0-.23.09-.46.12-.69.02-.15.06-.35-.02-.44-.19-.24-.45-.44-.72-.69-.14.81-.26,1.56-.4,2.31-.14.71-.3,1.41-.48,2.11-.03.11-.18.19-.27.29-.04-.11-.13-.23-.12-.34.03-.58.11-1.15.13-1.73.04-1,.05-2.01.08-3.01.02-.55-.18-.85-.74-1.04-.02.2-.04.4-.07.59-.15,1.06-.3,2.11-.46,3.17-.09.64-.19,1.28-.3,1.92-.01.08-.11.15-.17.22-.04-.08-.13-.17-.13-.25.02-.33.1-.66.1-.98.01-1.3,0-2.59,0-3.89,0-.42-.09-.84-.08-1.26,0-.49.04-.49-.42-.65-.32,2.12-.52,4.25-1.14,6.32-.09-.17-.1-.33-.09-.49.02-.29.08-.58.09-.87.02-1.73,0-3.46.04-5.19.02-.59-.24-.86-.8-1.07-.02.43-.01.82-.05,1.2-.11,1.18-.23,2.36-.36,3.54-.09.8-.2,1.6-.32,2.39-.03.2-.14.39-.21.59-.04,0-.07,0-.11-.01-.03-.09-.07-.19-.07-.28,0-.61.02-1.22.03-1.82.02-1.07.05-2.14.05-3.2,0-.88-.07-1.77-.08-2.65,0-.51-.03-.59-.56-.72-.19,1.4-.42,2.8-.58,4.21-.16,1.41-.29,2.83-.88,4.15-.36-1.51.12-3,.11-4.5-.01-1.51.12-3.02.19-4.53-.56-.06-.77.09-.78.44-.04.71-.08,1.42-.19,2.12-.15.96-.39,1.91-.56,2.86-.15.83-.26,1.67-.43,2.49-.07.36-.22.7-.36,1.04-.04.1-.18.16-.27.24-.04-.13-.12-.26-.1-.38.1-.77.25-1.54.32-2.31.14-1.38.23-2.76.35-4.15.03-.36.08-.72.13-1.16-.49.43-.91.8-1.33,1.17.33.87-.91,5.92-1.59,6.39-.17-.95.13-1.82.25-2.7.12-.89.2-1.78.32-2.78-.35.3-.62.52-.87.75-.07.06-.12.17-.14.27-.06.45-.08.91-.18,1.35-.16.69-.35,1.38-.57,2.06-.04.14-.26.22-.4.33-.07-.16-.2-.33-.2-.49,0-.29.11-.57.15-.85.07-.5.11-1.01.17-1.51-.03-.02-.06-.03-.1-.05-.59.52-1.18,1.04-1.76,1.57-.06.05-.05.22-.02.32.36,1.16,1.13,2.01,2.1,2.7,1.55,1.1,3.38,1.33,5.19,1.64,1.61.28,3.24.46,4.82.85,1.6.4,3.17.97,4.73,1.54,2.62.95,5.09,2.22,7.56,3.49.55.28,1.09.56,1.75.9ZM53.91,105.04s.01.07.02.11c.3,0,.61-.04.91,0,1.02.14,2.06.21,3.03.5,1.59.47,3.14,1.07,4.69,1.64,1.7.62,3.45,1.08,5.25,1.28,1.39.16,2.79.15,4.18-.09,1.67-.28,3.22-.87,4.71-1.65,2.22-1.16,4.21-2.65,6.09-4.29,3.09-2.71,6.14-5.47,9.2-8.21,1.92-1.72,3.85-3.44,5.46-5.47.43-.54.83-1.1,1.26-1.68-.48-.14-.61-.4-.38-.71.36-.5.76-.98,1.16-1.45.04-.05.2,0,.38.02.54-1.14.95-2.42,1.11-3.87-.11.1-.15.14-.19.18-.75.81-1.47,1.65-2.25,2.44-4.74,4.79-9.67,9.38-14.96,13.56-2.13,1.69-4.35,3.24-6.8,4.44-2.61,1.28-5.36,2-8.26,2.06-1.93.04-3.86.03-5.79.01-1.93-.02-3.86-.06-5.76.38-1.03.24-2.05.52-3.07.77ZM106.48,64.67c.86.3,1.63.54,2.39.85.55.22,1.07.5,1.59.78.1.05.13.23.2.34-.12.06-.25.13-.37.17-.06.02-.13,0-.2-.02-.89-.21-1.8-.38-2.68-.66-.67-.21-1.3-.55-1.94-.85-.21-.1-.42-.04-.6.19.86.09,1.58.49,2.22,1.03.08.07.1.22.15.34-.12.04-.24.12-.35.11-.44-.06-.89-.14-1.32-.24-.61-.15-1.28-.22-1.82-.51-.47-.26-.73-.05-1.14.11.44.17.81.29,1.16.46.15.08.26.25.38.39-.15.09-.29.19-.45.27-.07.03-.16.02-.23.02-.75.03-1.46-.04-2.01-.63.02.39.04.75.07,1.16.18,0,.38-.01.57-.03.6-.06,1.2-.16,1.81-.2.57-.03,1.14-.03,1.71,0,1.74.07,3.48.14,5.22.24.51.03,1.02.15,1.52.23.23.04.41.02.59-.2,1.11-1.36,2.26-2.68,3.36-4.05,1.18-1.46,2.25-3,2.99-4.73.64-1.5,1.23-3.03,1.82-4.55.17-.43.27-.89.43-1.43-.55.23-.99.43-1.45.6-1.61.6-3.27,1.02-4.98,1.23-1.61.19-3.22.38-4.83.59-1.66.22-3.32.43-4.97.71-1.75.29-3.41.9-4.97,1.75-1.55.85-2.85,1.97-3.87,3.41.77.36,1.52.71,2.3,1.08.39-1.09.51-2.28,1.11-3.3.08.07.11.11.11.16-.07,1.21-.15,2.42-.23,3.64,0,.14-.06.32.01.41.21.27.46.51.68.75.18-1.82.41-3.62,1.11-5.34.12.14.2.28.21.42.02.42,0,.85,0,1.27-.04,1.18-.11,2.37-.12,3.55,0,.52-.07.91-.63,1.03.04.35.22.37.48.26.65-.26,1.32-.47,1.95-.76,1.85-.84,3.71-1.64,5.51-2.58,1.91-1,3.77-2.1,5.61-3.23,1.41-.87,2.74-1.87,4.11-2.81.2-.14.43-.25.64-.37.03.05.07.09.1.14-.82,1.03-1.87,1.84-2.82,2.65.34.2.7.39,1.04.61.07.05.14.18.12.26-.02.08-.14.16-.23.17-.55.07-1.1.11-1.62-.19-.11-.07-.31-.13-.4-.08-.48.31-.94.65-1.43.99.48.11.92.16,1.32.3.31.11.61.3.88.5.1.08.15.32.11.46-.02.09-.26.18-.38.16-.83-.1-1.6-.38-2.3-.85-.09-.06-.25-.14-.32-.1-.24.12-.46.29-.62.4.61.26,1.22.51,1.81.8.14.07.2.28.3.42-.16.06-.32.18-.48.17-.92-.05-1.78-.3-2.62-.76-.39.24-.8.49-1.23.76.51.11.95.18,1.38.32.88.27,1.75.57,2.61.88.09.03.14.19.21.29-.11.06-.21.18-.32.18-.43,0-.87-.02-1.3-.08-.53-.07-1.06-.2-1.59-.28-.65-.11-1.3-.23-1.86-.62-.06-.04-.16-.09-.21-.07-.41.21-.81.43-1.31.69,1.32.41,2.53.77,3.74,1.16.13.04.23.17.34.26-.12.07-.24.18-.36.19-1.48.1-2.9-.13-4.17-.93-.33-.21-.56-.28-.87-.05-.07.05-.16.08-.33.16ZM38.43,89.03s0,.04,0,.07c.06.01.12.04.18.04,1.83.09,3.66.24,5.45.65.84.2,1.69.37,2.53.55,1.12.24,2.24.5,3.4.42.24-.02.36-.12.4-.35.04-.23.08-.47.12-.7.05-.29.09-.57.13-.86h-.68c.16-.62.62-.91,1.08-1.2-.65.03-1.24.17-1.68.67-.22.26-.48.49-.74.71-.18.16-.36.48-.66.21-.28-.25-.03-.49.1-.7.11-.18.27-.34.41-.5-.2,0-.38.05-.51.15-.31.26-.6.55-.9.82-.19.16-.43.4-.64.17-.1-.11.03-.45.11-.66.06-.15.21-.26.32-.38-.01-.04-.03-.08-.04-.11-.25.06-.52.09-.75.19-.46.22-.9.49-1.35.72-.25.13-.38.02-.38-.25,0-.09.03-.18.05-.33-.2.05-.37.06-.51.13-.27.13-.52.3-.8.42-.14.06-.31.06-.46.09v-.44c-.16,0-.36-.05-.53,0-.38.13-.73.46-1.14.09-.03-.02-.1,0-.15.02-.19.04-.39.08-.58.11-.59.09-1.18.17-1.78.26ZM40.78,89.62c-.26.13-.47.19-.63.33-.33.28-.68.29-1.03.02-.11-.09-.31-.11-.46-.09-.37.04-.73.12-1.09.19-.09.02-.17.03-.34.07.12.07.15.1.18.11.81.09,1.63.16,2.44.26,1.33.17,2.61.54,3.82,1.11,1.42.68,2.81,1.44,4.23,2.12.69.33,1.45.46,2.23.45.21,0,.27-.09.25-.3-.05-.59-.09-1.18-.14-1.77,0-.09-.08-.17-.12-.25-.06.07-.14.13-.17.22-.16.42-.33.83-.85.88-.14.01-.28-.03-.42-.05.04-.14.04-.31.13-.41.19-.22.43-.41.65-.61-.44-.24-.82-.16-1.17.2-.2.21-.4.42-.64.58-.12.09-.32.07-.48.09.02-.16,0-.35.07-.49.14-.26.34-.48.52-.72-.02-.04-.03-.08-.05-.11-.18.04-.38.06-.55.12-.26.1-.49.26-.75.34-.1.03-.28-.04-.36-.13-.05-.06-.02-.25.03-.34.09-.15.23-.26.44-.5-.28,0-.45-.03-.6,0-.2.05-.39.18-.59.21-.15.03-.35,0-.46-.08-.06-.05,0-.27.03-.42,0-.06.06-.12.09-.19-.12-.04-.23-.09-.26-.1-.33.17-.61.33-.9.44-.11.04-.3.02-.37-.05-.06-.07,0-.25.03-.37.03-.09.11-.17.16-.26-.01-.03-.03-.07-.04-.1-.17.05-.34.09-.51.16-.25.1-.5.24-.75.32-.08.03-.24-.04-.29-.12-.05-.08-.02-.22,0-.32.02-.08.1-.14.15-.21-.03-.04-.05-.07-.08-.11-.17.1-.35.2-.53.29-.18.09-.37.21-.57.23-.17.02-.35-.07-.52-.1.06-.14.12-.29.23-.55ZM91.5,53.9c-.53-.41-1.06-.29-1.57-.24-.64.06-1.28.15-1.92.22-.12.01-.26,0-.34.05-.35.28-.72.18-1.09.1-.22-.05-.42-.15-.64-.2-.09-.02-.24.02-.3.08-.37.43-.73.88-1.12,1.35,2.33-.31,4.66-.64,6.98-1.37ZM94.69,57.95c-.61,1.21-1.49,2.18-2.59,3.08.43.02.75.05,1.08.04.16,0,.37-.03.48-.12.89-.8,1.19-1.82,1.03-3ZM33.53,89.76c.2-.65-.4-1.88-1.2-2.28-.43.85.2,2.05,1.2,2.28Z" fill="#000" stroke-width="0"/><path d="M48.36,85.6c.05-.11.1-.33.24-.48.59-.69,1.2-1.35,1.81-2.02.08-.09.18-.17.28-.21.09-.04.21-.04.31-.06,0,.11.05.24,0,.32-.18.33-.37.67-.6.97-.37.49-.77.97-1.18,1.43-.14.15-.32.28-.5.38-.24.13-.38.06-.37-.33Z" fill="#000" stroke-width="0"/><path d="M49.35,83.36c-.17.29-.26.47-.38.62-.55.65-1.1,1.3-1.67,1.94-.09.11-.27.21-.4.2-.19-.02-.34-.17-.23-.4.5-1.03,1.19-1.89,2.24-2.41.09-.05.24.03.44.06Z" fill="#000" stroke-width="0"/><path d="M50.2,86.14c-.06-.19-.15-.32-.12-.4.1-.25.19-.54.38-.73.5-.51,1.03-.99,1.57-1.45.09-.08.32.01.49.03-.01.16.01.34-.05.47-.08.17-.23.32-.37.46-.4.38-.8.76-1.21,1.12-.18.16-.4.29-.69.5Z" fill="#000" stroke-width="0"/><path d="M45.51,86.63c-.1-.23-.24-.39-.2-.49.37-1.03.93-1.93,1.83-2.59.07-.05.19-.04.29-.05.01.11.07.24.03.32-.15.32-.32.63-.5.94-.26.44-.53.88-.83,1.29-.14.19-.35.33-.62.59Z" fill="#000" stroke-width="0"/><path d="M73.79,63.33c.04-.84.64-1.34,1.2-1.84.13-.12.35-.15.54-.22-.03.18,0,.39-.09.54-.26.44-.53.88-.85,1.26-.16.19-.46.27-.7.4-.03-.05-.06-.09-.1-.14Z" fill="#000" stroke-width="0"/><path d="M54.63,79.97c.19-.43.34-.89.58-1.3.22-.38.53-.72.82-1.06.05-.06.19-.07.28-.05.04.01.09.17.07.23-.31.85-.76,1.62-1.44,2.23-.03.03-.1.02-.15.03-.05-.03-.1-.05-.14-.08Z" fill="#000" stroke-width="0"/><path d="M43.49,86.46c.12-.62.5-1.17,1.06-1.59.17-.13.34-.11.37.14.05.48-.63,1.58-1.09,1.79-.26.11-.37.03-.33-.33Z" fill="#000" stroke-width="0"/><path d="M88.29,56.51c0,.09.03.19,0,.26-.22.42-.44.84-.71,1.23-.16.23-.43.37-.71.12-.21-.19-.17-.34.08-.49.15-.09.26-.24.39-.37.28-.28.56-.56.84-.84.04.03.08.06.11.09Z" fill="#000" stroke-width="0"/><path d="M72.35,63.11c-.02-.47.89-1.39,1.38-1.38.16.7-.67,1.53-1.38,1.38Z" fill="#000" stroke-width="0"/><path d="M42.06,87.15s-.15-.07-.17-.14c-.02-.08,0-.22.05-.28.34-.31.68-.62,1.05-.9.05-.04.27.01.28.05.08.37-.77,1.28-1.21,1.26Z" fill="#000" stroke-width="0"/><path d="M53.51,79.21c.01-.32.55-.96.89-1.01.06,0,.23.18.21.24-.12.42-.35.79-.76.99-.22.11-.35.05-.34-.22Z" fill="#000" stroke-width="0"/><path d="M88.45,56.38c.3-.18.54-.32.79-.45.05-.03.17-.01.2.03.04.05.04.15.01.21-.12.34-.56.48-1,.21Z" fill="#000" stroke-width="0"/><path d="M46.6,76.66c.37.26.37.97,0,1.26v-1.26Z" fill="#000" stroke-width="0"/><path d="M97.01,72.37c.14.53.34,1.07.43,1.64.11.68.04,1.36-.43,1.94-.08.1-.08.32-.04.45.37,1.16.03,2.32-.92,3.01-.19.14-.41.25-.64.3-.26.06-.35.18-.37.43-.06.86-.35,1.62-.97,2.23-.47.46-1,.76-1.67.81-.1,0-.25.17-.26.28-.22,1.67-1.38,2.94-3.03,3.29-.08.02-.15.07-.23.07-.74-.09-1.02.33-1.25.97-.22.6-.72.98-1.38,1.13-.24.05-.45.24-.66.39-.54.39-1.07.79-1.61,1.18-.04-.04-.09-.07-.13-.11.28-.48.56-.96.86-1.48-.15-.04-.32-.09-.51-.14-.13.37-.24.72-.38,1.06-.52,1.27-1.57,1.95-2.8,2.37-.35.12-.72.16-1.07.27-.1.03-.21.18-.22.29-.06.64-.22,1.25-.57,1.79-.53.82-1.32,1.11-2.26,1.13-.47,0-.95.06-1.42.11-.1.01-.22.09-.28.18-1,1.4-2.43,1.78-4.04,1.66-1.12-.08-2.23-.27-3.34-.38-.17-.02-.41.02-.53.13-1.14.94-2.47,1.13-3.85.88-1.02-.18-2.05-.44-3-.83-1.61-.67-3.15-1.51-4.31-2.87-.87-1.02-.92-1.94-.28-3.14.08-.15.08-.44,0-.57-.7-.99-.65-2.03-.27-3.09.19-.52.4-1.03.68-1.51.25-.44.6-.83.89-1.24.08-.11.2-.24.2-.35-.06-1.59.71-2.74,1.91-3.67.35-.27.75-.47,1.13-.71-.28-.61.03-1.14.38-1.55.61-.72,1.3-1.38,2.02-1.99.32-.27.81-.35,1.21-.53.15-.07.4-.17.42-.28.12-.85.68-1.39,1.32-1.8.76-.5,1.62-.86,2.44-1.27.2-.1.28-.26.4-.45.26-.44.61-.86,1.01-1.17.82-.62,1.81-.9,2.78-1.21.15-.05.33-.14.4-.27.67-1.19,1.7-1.97,2.89-2.53.92-.44,1.89-.79,2.84-1.18.09-.04.21-.08.26-.16.58-1.07,1.55-1.67,2.6-2.14,1.25-.56,2.58-.82,3.94-.53.53.11.98.14,1.47-.09.75-.35,1.52-.26,2.27.04,1.48.58,2.84,1.34,3.74,2.72.06.09.2.14.31.19.35.14.74.21,1.05.42,1.5,1.03,2.57,2.41,3.13,4.16.11.33.13.71.1,1.05-.02.23-.22.45-.33.67ZM72.56,72.04c.09-.04.18-.07.27-.11.61-.24,1.36-.32,1.39-1.22-1.46-.66-3.02.13-4.56,1.74.57-.12,1.04-.22,1.55-.32-.03-.09-.06-.15-.07-.21-.02-.14-.04-.28-.06-.42.18,0,.38-.03.52.04.13.07.18.27.29.4.09.11.19.28.3.3.11.02.24-.12.37-.19ZM65.95,79.63c2.36-.59,4.5.19,6.65.9.05-.9-.5-1.67-.23-2.54.57.08.75.5.85.93.14.6.56,1.25-.06,1.77.63.41,1.28.83,1.96,1.27.08-.09.19-.21.29-.32-.08-.14-.18-.23-.2-.34-.13-.65-.25-1.29-.36-1.94-.01-.08.05-.22.11-.26.07-.03.21,0,.28.06.09.07.17.18.21.28.21.56.4,1.13.61,1.72.66-.36,1.42-.25,2.17-.13q.17-.75-.27-1.24c-.07-.08-.12-.17-.18-.26-.2-.31-.37-.64-.6-.93-.64-.8-1.46-1.4-2.3-1.97-.15-.1-.28-.21-.42-.32.03-.05.07-.11.1-.16.95.49,1.89.97,2.88,1.48-.1-1.02-.59-2.01-.25-3.15.16.21.32.33.37.48.27.93.61,1.87.72,2.82.07.61.38,1.02.62,1.5.35-.21.68-.4.99-.62.08-.06.16-.22.14-.31-.05-.32-.12-.65-.22-.96-.08-.24-.11-.44.15-.57.26-.13.46,0,.54.24.16.43.27.88.42,1.37.03-.02.19-.04.22-.12.52-1.26.53-2.8-.57-3.99-.93-1.02-2.12-1.64-3.39-2.11-.5-.19-1.04-.31-1.57-.37-.39-.04-.8.13-1.2.11-.5-.03-.89.15-1.3.38-1.14.66-1.63,1.78-2.13,2.91.24.04.46.06.68.11.21.05.41.12.62.18.01.06.02.11.03.17-3.25-.55-5.14,1.08-6.38,3.93ZM74.23,92.86c.29.19.53.33.87.18.23-.1.33.08.25.32-.03.1-.1.23-.07.32.31.9.32.9,1.28.89.11,0,.21,0,.32,0,.84-.02,1.49-.52,1.6-1.35.17-1.25-.05-2.48-.57-3.63-.33-.72-.9-1.24-1.5-1.74-1.04-.87-2.01-1.81-3.03-2.71-.52-.46-1.01-.53-1.53-.09-.55.46-1.03,1.01-1.49,1.56-.22.27-.33.64-.51,1,.3-.05.52-.1.74-.1.13,0,.25.1.38.15-.06.12-.08.3-.17.36-.32.2-.67.36-1.03.54.13.16.3.37.48.6.17-.12.31-.23.47-.32.44-.24.88-.47,1.33-.68.1-.04.25.02.37.04-.03.12-.04.25-.11.35-.09.13-.21.24-.34.33-.41.32-.83.62-1.26.94.11.15.22.3.35.46.16-.13.29-.23.43-.33.32-.24.66-.45,1.09-.39.12.02.29.06.33.15.04.09-.04.26-.11.34-.17.18-.36.34-.56.49-.2.16-.42.29-.65.45.17.18.3.32.43.47.43-.35.88-.51,1.39-.48.13,0,.26.06.39.1-.06.14-.07.31-.17.4-.26.23-.55.42-.84.64.26.31.49.39.84.08.25-.22.62-.33.96-.41.13-.03.34.1.45.22.04.04-.08.29-.18.39-.18.17-.39.3-.62.47ZM79.71,91.34c.44-.12.87-.21,1.27-.37.67-.26,1.26-.65,1.64-1.3.64-1.09.5-2.2.11-3.32-.41-1.16-1.2-2.07-1.97-2.98-.74-.89-1.56-1.7-2.7-2.04-.88-.26-1.79-.08-2.19.88-.11.26-.22.51-.34.76-.25.53-.51,1.05-.75,1.54.34-.07.68-.15,1.02-.2.08-.01.21.04.27.1.03.03-.02.18-.08.24-.29.31-.6.6-.89.89.12.14.27.31.39.44.35-.2.65-.4.97-.52.14-.05.36.02.49.11.05.04.01.31-.06.41-.18.25-.41.46-.62.69.43.42.43.42,1.01.13.19-.09.39-.21.59-.22.2-.02.41.07.61.11-.09.17-.15.38-.29.51-.19.19-.44.31-.7.49.15.14.27.26.32.3.48-.13.89-.26,1.3-.34.11-.02.25.08.38.13-.07.13-.11.29-.22.38-.23.19-.49.34-.76.53.13.17.24.32.34.46.3-.2.56-.42.86-.53.16-.06.4.08.6.13-.07.19-.09.45-.23.56-.26.21-.58.33-.92.51.1.29.21.6.32.92.24-.11.43-.19.61-.28.04.04.07.08.11.12-.15.23-.3.46-.49.75ZM64.44,97.27s.01-.07.02-.1c.64.06,1.25-.1,1.77-.46.75-.51,1.15-1.16.69-2.16-.36-.78-1.03-1.26-1.76-1.65-.79-.42-1.6-.79-2.4-1.19-.86-.44-1.71-.93-2.58-1.35-.51-.25-1.12-.44-1.62-.04-.61.5-1.21,1.06-1.69,1.68-.45.58-.38,1.28.12,1.81.46.49,1,.93,1.56,1.31.96.65,1.89,1.4,3.14,1.45.06,0,.12.05.19.06.85.21,1.71.42,2.56.63ZM68.07,96.06c.14.06.24.13.35.14,1.24.09,2.47.22,3.71.25.77.02,1.46-.31,1.99-.89.52-.56.61-1.33-.4-1.68-1.14-.38-2.1-1.03-2.84-1.99-.63-.81-1.19-1.67-1.83-2.47-.67-.83-1.51-1.43-2.65-1.31-1.29.14-2.26.81-2.96,1.89-.13.2-.34.42-.1.66.34.34.73.38,1.06.2.27-.15.57-.26.86-.35.11-.03.26.06.39.09-.06.14-.09.3-.18.41-.15.17-.35.29-.52.44.26.27.46.23.74.05.27-.18.6-.27.91-.37.1-.03.24.04.36.06-.03.12-.02.26-.1.34-.2.22-.43.41-.65.61.46.44.45.42,1.01.11.4-.22.83-.39,1.25-.55.09-.04.24.06.36.09-.05.13-.06.29-.15.37-.21.19-.46.35-.7.51-.22.14-.45.25-.69.38.18.23.32.41.45.59.36-.23.68-.46,1.02-.66.22-.13.46-.17.63.09.17.26-.06.4-.22.51-.25.18-.53.36-.82.46-.31.11-.34.28-.25.54.04.12.09.24.14.35.23-.05.43-.11.64-.13.11-.01.27,0,.32.06.05.07.04.23,0,.33-.12.34-.49.5-.98.43-.04.12-.09.25-.15.43ZM89.05,85.5c.13,0,.24.02.33,0,.96-.27,1.91-1.47,1.99-2.46.07-.86-.15-1.65-.57-2.38-.86-1.47-2.02-2.66-3.41-3.63-1.17-.82-2.47-.83-3.56-.11-.68.45-.94,1.17-1.27,1.9.18.09.36.17.49.23.28-.21.51-.41.76-.58.1-.06.24-.05.37-.07,0,.12.03.26,0,.36-.11.25-.25.48-.37.72.02.04.04.08.05.12.14-.05.29-.08.42-.15.22-.12.42-.26.64-.38.08-.04.19-.04.29-.05.01.11.08.25.03.33-.15.28-.33.54-.51.83.19.22.22.23.43,0,.33-.36.72-.59,1.24-.72.15.78-.37,1.13-.86,1.49.09.14.17.27.21.34.36-.27.63-.49.91-.67.11-.07.35-.1.4-.04.08.1.12.32.07.43-.13.26-.34.48-.5.73-.06.1-.14.26-.11.34.07.16.23.28.34.41.29-.21.55-.44.84-.59.28-.15.46-.02.38.29-.08.27-.25.54-.44.76-.33.39-.35.43,0,.81.27-.17.52-.37.8-.51.14-.07.34-.02.51-.03-.02.17.01.37-.07.5-.16.25-.36.49-.57.7-.45.43-.48.54-.19,1.17.05-.04.11-.07.15-.12.24-.26.46-.54.71-.79.07-.07.23-.07.34-.1,0,.12.04.25,0,.36-.06.18-.16.35-.25.55ZM84.94,87.74s.13.03.22.06c.8.25,1.47-.01,1.78-.77.14-.34.17-.73.21-1.11.08-.72.13-1.46-.19-2.14-.83-1.75-2.19-3.05-3.72-4.16-.81-.59-1.74-.68-2.71-.28-.9.37-1.43,1.41-1.12,2.32.29-.46.73-.64,1.23-.66.1,0,.29.05.3.11.02.1-.02.27-.1.34-.25.22-.53.41-.8.61.21.24.41.3.72.12.25-.14.57-.19.86-.23.11-.02.25.1.37.15-.06.12-.08.28-.18.36-.19.17-.41.3-.65.46.2.16.37.3.49.4.36-.12.65-.24.96-.3.14-.03.31.07.47.12-.05.15-.07.34-.16.45-.14.17-.33.28-.53.44.1.11.2.21.29.3,0-.04.01-.08.02-.11.4-.05.79-.12,1.19-.15.11,0,.26.07.33.16.04.05-.04.23-.11.3-.24.23-.5.44-.78.67.09.16.2.35.29.49.4-.12.76-.25,1.13-.31.12-.02.32.1.38.21.05.1,0,.33-.08.42-.19.19-.42.36-.66.48-.41.2-.44.26-.24.61.2-.09.38-.21.58-.24.21-.03.44.03.66.08.1.02.26.07.28.14.03.09-.03.25-.1.31-.19.14-.42.25-.62.36ZM69.99,85.15s.05-.04.1-.09c.51-.45.49-.45.27-1.1-.12-.36-.18-.74-.22-1.12-.02-.16.11-.33.16-.49.14.1.34.17.4.3.19.4.34.82.47,1.25.15.46.44.19.67.15.29-.05.22-.22.13-.41-.12-.26-.23-.53-.31-.81-.03-.1.02-.21.03-.32.12.02.29,0,.35.06.24.26.57.52.63.83.14.66.73.63,1.07.94.23-.53.45-1.01.56-1.28-.53-.62-.97-1.21-1.49-1.71-.72-.7-1.62-1.11-2.61-1.32-1.1-.22-2.2-.22-3.31-.1-1.37.14-2.56.64-3.49,1.64-.38.41-.6.96-.91,1.46.75.1,1.39.19,2.04.28-.03-.22-.08-.41-.07-.59.01-.15.11-.3.17-.45.14.09.33.16.42.29.1.14.12.34.16.52.03.15.02.31.03.49.3.04.57.07.86.11-.08-.42-.17-.76-.19-1.11,0-.13.14-.38.23-.38.14-.01.37.1.43.22.14.29.24.61.29.93.08.51.11.55.69.49-.11-.66-.28-1.32.02-2.05.11.14.19.2.22.28.18.52.38,1.03.51,1.57.12.49.25.65.76.67-.06-.3-.14-.59-.18-.89-.05-.38-.09-.76-.1-1.14,0-.09.11-.2.2-.25.04-.02.19.09.22.17.11.22.22.45.28.69.18.76.33,1.52.5,2.27ZM82.15,74.76c.19.56.37,1.09.55,1.61.31-.1.39-.34.34-.66-.07-.46-.15-.91-.19-1.37-.05-.46-.06-.92-.08-1.37.08-.04.17-.09.25-.13.06.13.12.26.2.39.48.76.58,1.62.6,2.43.73.04,1.41.08,1.97.12-.08-.14-.28-.36-.34-.6-.18-.76-.21-1.58-.48-2.31-.73-2.01-2.09-3.4-4.28-3.77-1.51-.26-2.95-.1-4.19.92-.46.38-.9.76-1.14,1.2,1.13.33,2.25.66,3.3.97-.04-.22-.12-.48-.13-.75,0-.09.15-.2.24-.29.17.23.4.44.5.7.09.24.12.56-.35.57.42.22.79.41,1.2.62-.02-.11-.02-.16-.03-.2-.12-.36-.26-.72-.34-1.09-.03-.14.07-.3.11-.45.14.05.31.07.41.17.45.46.67,1.03.68,1.68,0,.48.39,1.01.92,1.22-.1-.59-.21-1.16-.27-1.73-.02-.16.1-.33.16-.49.14.07.34.11.4.23.18.39.37.79.45,1.21.09.49.07.99-.43,1.23ZM68.7,87.57c.14-.37.28-.72.4-1.08.04-.11.03-.28-.02-.38-.41-.75-1.06-1.23-1.83-1.55-1.49-.63-3.04-.74-4.62-.52-1.32.19-2.42,1.22-2.66,2.57-.13.74-.06,1.52-.08,2.29,0,.05.04.14.09.16.3.11.6.21.94.33-.03-.25-.05-.44-.07-.62-.03-.29-.09-.57-.08-.86,0-.13.15-.25.23-.38.11.08.28.13.33.24.31.62.32,1.3.39,2.01.11.06.28.15.55.29.04-.28.18-.58.08-.71-.46-.62-.45-1.33-.52-2.03-.01-.12.19-.35.3-.35.15,0,.39.13.44.26.13.37.18.77.26,1.15.02.1.06.2.1.31.39-.24.49-.51.39-.91-.1-.4-.08-.81.33-1.23.21.39.4.73.59,1.09.12-.06.24-.15.37-.19.29-.1.42-.23.35-.58-.05-.26.04-.55.07-.82.05-.01.11-.02.16-.04.16.22.37.41.45.66.13.38.33.38.64.24-.05-.17-.14-.33-.15-.49,0-.13.04-.31.12-.37.07-.05.28.02.36.1.17.16.29.37.45.54.14.15.28.31.45.4.37.18.77.32,1.17.48ZM92.56,79.9c.05.01.1.03.15.04.5.75.14,1.41-.25,2.11.38-.14.77-.27,1.04-.53.69-.66.84-1.46.64-2.42-.19-.93-.66-1.69-1.27-2.32-.74-.76-1.59-1.42-2.43-2.08-.65-.52-1.36-.95-2.19-1.13-.82-.18-1.42.14-1.38,1.1.02.52,0,1.03,0,1.58.1.05.23.12.39.21.04-.33.04-.64.13-.91.05-.15.27-.24.42-.35.08.16.21.3.23.47.04.34.04.69.03,1.03-.01.3.11.46.37.52.12-.48.22-.94.34-1.39.03-.11.16-.19.24-.28.08.11.22.22.22.33,0,.54.01,1.09-.11,1.61-.08.36.05.46.26.58.19-.32.36-.63.56-.93.05-.07.21-.16.24-.14.09.06.19.19.18.27-.07.34-.14.69-.29,1-.19.4-.2.46.25.7.25-.42.23-1.04.84-1.26-.01.51-.09.99-.17,1.48-.05.28-.26.59.14.82.17-.33.31-.65.48-.94.06-.1.2-.15.3-.22.05.11.16.24.14.34-.07.41-.11.85-.28,1.22-.2.43-.08.73.18,1.11.21-.56.4-1.08.6-1.6ZM86.35,67.89c0-.26-.01-.48,0-.7.01-.11.07-.28.13-.29.11-.02.29.02.34.11.13.17.24.38.28.59.05.23-.01.48.01.71.02.15.11.3.2.55.1-.36.15-.59.23-.81.03-.09.13-.15.19-.22.08.08.21.14.23.23.06.24.13.5.09.74-.1.67.33,1.09.69,1.65v-1.47c.49.28.69.64.74,1.09.02.22.1.3.33.27.35-.04.7-.05,1.03-.08-.05-.12-.16-.27-.19-.44-.1-.6-.15-1.2-.26-1.8-.06-.3-.17-.62-.34-.87-.94-1.33-2.25-2.1-3.84-2.44-.87-.19-1.72-.24-2.56.09-.65.25-1.17.67-1.59,1.12.95.3,1.9.6,2.87.91.08-.32-.04-.79.56-.98.07.25.13.49.19.73.11.46.05,1.01.65,1.3ZM86.81,72.82c.3-.05.58-.08.84-.16.1-.03.23-.18.24-.28.09-1.4-.32-2.63-1.34-3.62-.43-.41-.92-.74-1.34-1.15-.68-.66-1.49-1.02-2.42-1.13-.86-.1-1.65.17-2.4.53-.58.28-1.12.62-1.57,1.22,1.19-.14,2.21.16,3.23.73-.04-.3-.1-.51-.09-.71,0-.12.08-.34.15-.35.13-.01.35.04.41.14.14.25.33.56.28.79-.12.51.16.71.56.95-.06-.21-.12-.38-.15-.56-.05-.24-.11-.49-.1-.74,0-.11.13-.26.24-.32.05-.03.24.1.29.2.17.34.32.69.47,1.04.16.37.22.73-.05,1.1.21.22.4.43.65.69,0-.5-.03-.9.01-1.3.02-.16.18-.31.27-.47.13.14.34.26.36.41.09.58.18,1.18.14,1.76-.02.39.11.6.42.86,0-.45-.03-.83.01-1.2.01-.14.18-.26.28-.4.09.1.22.18.27.3.09.2.14.43.18.64.07.33.11.67.17,1ZM94.16,75.37c.4.44.46,1.12.22,1.77-.05.12-.02.27-.03.47.19-.42.33-.73.47-1.05.05.01.11.03.16.04.38.63.21,1.31.1,1.99.94-.23,1.34-1.12,1.26-1.82-.08-.73-.39-1.38-.79-2-1.13-1.72-2.76-2.76-4.63-3.47-.58-.22-1.05-.05-1.32.52-.16.34-.23.73-.32,1.09-.01.06.05.17.11.21.24.14.5.27.8.42,0-.26-.03-.46.01-.65.03-.12.14-.26.25-.31.06-.03.26.09.3.18.09.25.21.54.18.79-.08.63.35.83.81,1.15.05-.34.07-.63.13-.91.03-.12.15-.23.23-.34.09.1.23.19.25.31.07.43.11.86.16,1.29.02.15.06.3.1.55.23-.39.39-.66.54-.94.07.02.14.04.21.05,0,.37.08.75,0,1.1-.08.37.08.52.36.69.09-.42.01-.87.43-1.15ZM56.76,90.27c.17-.14.26-.23.36-.28.33-.18.39-.44.28-.79-.05-.17-.04-.37-.06-.55.05-.02.09-.04.14-.06.18.24.36.48.54.71.36-.12.7-.24,1.2-.41-.16-.11-.26-.16-.34-.22-.16-.12-.36-.21-.46-.37-.21-.33-.37-.7-.52-1.06-.04-.09-.03-.27.02-.31.08-.05.24-.05.34-.01.15.06.27.18.46.31.03-1.12.45-2.04,1.15-2.86-1.07.28-2.08.6-2.84,1.45-.34.38-.6.81-.64,1.32-.04.48-.03.98.03,1.46.07.54.22,1.07.34,1.67ZM96.49,73s.1.02.15.03c-.12-.3-.2-.62-.36-.91-.76-1.39-1.98-2.27-3.38-2.92-.48-.22-.89,0-1.01.53-.07.29-.18.56-.27.87.19.09.43.21.7.34.04-.1.05-.21.11-.27.11-.13.25-.24.38-.36.1.12.24.23.31.36.07.15.11.33.09.5-.03.32.07.53.4.65,0-.19,0-.36.03-.53.03-.11.12-.25.21-.29.06-.03.25.08.28.16.11.3.29.65.23.93-.09.46.12.65.44.87.05-.31.08-.6.15-.88.08-.32.31-.37.5-.1.28.38.32.81.14,1.24-.21.53-.19.62.3.99.2-.41.4-.81.6-1.21ZM64.79,79.38c.2-.21.26-.4,0-.66-.25-.25-.44-.56-.66-.84-.17-.21-.23-.44,0-.63.21-.17.43-.14.62.09.2.25.43.48.64.72.35-.44.68-.84,1.06-1.31-.98,0-1.89,0-2.79,0-.05,0-.1.03-.14.06-.45.34-.94.63-1.33,1.02-.62.62-.98,1.4-1.22,2.28.56-.13,1.06-.24,1.58-.36-.07-.21-.14-.34-.15-.48,0-.12.05-.24.08-.36.11.03.24.04.31.1.15.12.26.29.41.42.06.06.17.07.3.12-.2-.47-.39-.84-.51-1.24-.03-.12.13-.39.25-.43.13-.04.36.09.46.22.14.18.19.43.31.63.17.28.22.72.76.64ZM70.17,75.26s.01-.08.02-.11c-.62-.08-.88-.5-1-1.02-.03-.15.07-.33.11-.49.15.06.32.08.43.18.18.15.32.36.48.55.22-.38.4-.71.58-1.04-2.68-.6-4.38.54-5.56,2.68.59-.14,1.12-.26,1.68-.39-.12-.21-.2-.36-.28-.5.5-.4,1.01-.12,1.28.73.21-.06.42-.13.64-.19-.23-.33-.44-.59-.59-.87-.08-.15-.07-.36-.1-.54.18.04.42.02.54.13.32.31.6.67.94,1.06.19-.04.51-.1.82-.16ZM86.39,64.26c.62.24,1.26.49,1.94.76.01-.18,0-.36.05-.51.05-.14.18-.26.28-.38.12.11.32.21.36.35.08.27.08.56.11.85,0,.07.05.13.08.2.07-.07.05-.13.07-.17.06-.15.11-.4.22-.43.13-.04.37.07.45.19.14.2.25.45.26.69.01.31.14.48.4.63.23-.32.46-.18.57.07.12.28.17.6.2.91.03.37.11.69.32.95.09-.47.18-.92.26-1.37,0-.05.02-.11,0-.16-.17-.98-.55-1.84-1.4-2.42-1.55-1.05-2.76-.98-4.17-.15ZM60.68,83.04c-.21-.27-.39-.49-.55-.73-.06-.1-.06-.23-.09-.35.12-.01.27-.08.37-.03.24.1.48.21.67.38.3.26.42.27.64-.06.09-.13.14-.3.2-.44-.48-.35-.57-.56-.37-.81.2-.25.41-.21.86.17.2-.19.41-.38.65-.61-1-.05-1.93-.02-2.81.31-1.39.52-1.67,1.83-1.92,3.25.04,0,.08.01.11,0,.07-.03.14-.06.21-.1.61-.34.6-.34.5-1.03-.01-.09.04-.19.06-.29.1.03.22.05.3.11.18.15.34.32.52.49.18-.07.38-.15.63-.25ZM74,69.55s.03.07.04.1c.38-.05.76-.1,1.19-.15-.08-.17-.19-.31-.21-.45-.02-.15-.02-.36.06-.46.07-.08.3-.07.43-.03.14.05.29.16.35.29.2.4.42.08.63.05.23-.04.15-.2.13-.37-.03-.2-.03-.42.01-.62.02-.09.14-.21.23-.23.08-.02.22.07.28.14.13.17.21.37.29.5.5-.57.99-1.13,1.46-1.66-.42-.12-1.24-.06-1.72.15-.97.41-1.79,1.02-2.42,1.88-.23.3-.5.57-.75.85ZM92.97,68.68s.08-.06.13-.1c-.02-.06-.06-.12-.05-.18,0-.15-.02-.35.07-.42.08-.07.3-.04.42.02.4.2.49.57.28,1.11.12.07.23.15.39.25-.04-.33-.09-.58-.08-.83,0-.11.13-.24.23-.32.03-.03.22.05.25.12.17.34.39.69.2,1.08-.11.23-.04.36.13.51.23.19.45.4.67.61.16.16.31.32.53.56,0-.2,0-.29,0-.38,0-.07,0-.14-.02-.2-.41-1.37-1.09-2.56-2.26-3.44-.32-.24-.62-.28-.95-.09-.46.26-.45.73-.39,1.16.03.2.29.36.45.54ZM80.93,65.67c.84-1.14,2.02-1.76,3.62-1.6-1.3-.74-3.81.21-4.46,1.6h.84Z" fill="#000" stroke-width="0"/><path d="M53.82,94.89s-.07.16-.12.28c-.1-.09-.26-.15-.3-.26-.33-.77-.65-1.54-.95-2.32-.05-.13.06-.32.1-.49.13.09.31.15.39.27.49.73.77,1.54.88,2.52Z" fill="#000" stroke-width="0"/><path d="M53.13,90.21c.44.56.64,1.23.77,1.91.02.12-.08.27-.13.41-.11-.06-.26-.1-.31-.19-.32-.61-.63-1.22-.9-1.85-.06-.13.06-.34.1-.51.16.08.31.15.47.23,0,0,0,0,0,0Z" fill="#000" stroke-width="0"/><path d="M54.04,102.53c.02-.21-.01-.45.07-.64.3-.7.76-1.28,1.39-1.72.09-.07.24-.06.35-.09,0,.13.03.29-.03.39-.36.58-.74,1.15-1.14,1.7-.12.16-.31.27-.46.4-.06-.02-.12-.04-.18-.06Z" fill="#000" stroke-width="0"/><path d="M53.13,90.21c-.11-.5-.24-.99-.32-1.49-.02-.14.12-.31.18-.47.13.09.33.15.38.28.21.48.4.97.54,1.47.04.15-.07.34-.11.51-.15-.05-.3-.1-.45-.16-.08-.03-.16-.09-.23-.14,0,0,0,0,0,0Z" fill="#000" stroke-width="0"/><path d="M89.53,89.91c-.06.54-.32.86-.71.89-.29.02-.4-.12-.27-.38.1-.21.23-.41.36-.61.05-.07.14-.19.19-.18.52.08.67-.4.98-.63.07-.05.17-.11.23-.09.06.03.12.14.13.22.08.49-.36.88-.91.78Z" fill="#000" stroke-width="0"/><path d="M61.33,101.64c.1-.23.14-.46.27-.6.33-.36.69-.7,1.05-1.03.17-.15.31-.04.31.16,0,.58-.91,1.43-1.64,1.47Z" fill="#000" stroke-width="0"/><path d="M52.64,102.25c.17-.64.54-1.08.99-1.45.16-.13.35.03.28.21-.22.5-.48.97-.75,1.44-.04.07-.25.11-.33.07-.09-.04-.13-.2-.18-.27Z" fill="#000" stroke-width="0"/><path d="M60.07,101.5c-.31,0-.46-.21-.26-.42.35-.37.76-.67,1.16-.98.03-.02.28.11.28.19.04.45-.73,1.22-1.19,1.21Z" fill="#000" stroke-width="0"/><path d="M97.38,64.77c.58.04.99.19,1.22.64.14.26.02.48-.24.39-.45-.15-.87-.39-1.3-.61-.05-.03-.07-.24-.03-.27.13-.09.29-.13.35-.16Z" fill="#000" stroke-width="0"/><path d="M58.8,100.61c-.02.5-.89,1.29-1.29,1.27-.24-.01-.37-.24-.19-.4.37-.34.79-.64,1.2-.94.05-.04.2.05.28.07Z" fill="#000" stroke-width="0"/><path d="M53.5,87.2c0-.07-.02-.14,0-.2.06-.14.15-.27.22-.41.1.11.25.2.29.32.11.36.19.73.24,1.11.01.11-.12.23-.19.35-.11-.06-.27-.1-.3-.19-.13-.31-.22-.63-.32-.95.02,0,.04-.01.07-.02Z" fill="#000" stroke-width="0"/><path d="M55.82,101.95c-.03-.09-.1-.19-.07-.26.16-.5.47-.88.92-1.13.09-.05.26-.03.36.03.04.02.03.22-.01.32-.22.51-.6.85-1.2,1.05Z" fill="#000" stroke-width="0"/><path d="M97.99,66.5c.4.01.89.37.98.68.03.09.01.22-.04.28-.05.06-.21.11-.27.07-.29-.17-.57-.37-.84-.58-.06-.05-.09-.22-.05-.3.04-.09.18-.12.22-.15Z" fill="#000" stroke-width="0"/><path d="M85.95,92.77c-.09-.43.3-1.11.75-1.36.35.43-.05,1.19-.75,1.36Z" fill="#000" stroke-width="0"/><path d="M99.38,68.52c-.04.07-.09.23-.19.3-.05.04-.24-.06-.32-.14-.17-.16-.32-.35-.45-.54-.14-.21-.04-.38.22-.39.31,0,.74.4.74.77Z" fill="#000" stroke-width="0"/><path d="M54.22,86.22c.01-.18-.01-.29.03-.36.05-.1.13-.22.22-.23.08-.02.21.07.28.15.17.22.1.84-.13,1.01-.05.04-.26-.02-.28-.08-.07-.18-.09-.38-.11-.48Z" fill="#000" stroke-width="0"/><path d="M87.36,91.67c-.02-.49.21-.83.75-1.07,0,.21.03.39,0,.55-.09.36-.4.45-.74.52Z" fill="#000" stroke-width="0"/><path d="M98.75,69.14s.13-.12.22-.21c.15.21.32.4.44.63.03.05-.14.29-.19.28-.31-.06-.44-.29-.47-.7Z" fill="#000" stroke-width="0"/><path d="M97.11,63.55c.18.18.34.34.5.5-.1.09-.27.27-.3.25-.21-.13-.38-.31-.57-.48.1-.07.19-.14.37-.27Z" fill="#000" stroke-width="0"/><path d="M99.17,70.33c.04.21.09.42.13.64-.06.01-.11.03-.17.04-.06-.21-.12-.42-.17-.63.07-.02.14-.03.21-.05Z" fill="#000" stroke-width="0"/><path d="M115.02,72.02c-.07.13-.11.29-.2.39-.93,1.04-1.88,2.06-2.82,3.1-.45.5-.87,1.03-1.33,1.51-.24.26-.55.46-.82.69-.05-.03-.09-.06-.14-.09.05-.2.07-.41.14-.6.32-.83.89-1.49,1.5-2.1.88-.88,1.79-1.75,2.71-2.59.22-.21.54-.31.82-.46l.13.15Z" fill="#000" stroke-width="0"/><path d="M105.46,76.66c.16-.28.28-.6.48-.84,1.15-1.35,2.32-2.69,3.5-4.02.22-.25.51-.46.78-.67.08-.06.2-.05.31-.08,0,.12.04.27-.02.35-.56.76-1.12,1.53-1.71,2.27-.78.98-1.59,1.93-2.39,2.89-.14.16-.33.31-.53.39-.2.09-.37,0-.42-.29Z" fill="#000" stroke-width="0"/><path d="M103.32,76.84c.16-.34.29-.64.45-.92.81-1.41,1.7-2.77,2.98-3.81.18-.15.37-.48.65-.23.07.06-.08.45-.2.63-1,1.45-2.01,2.9-3.03,4.34-.15.22-.32.51-.66.25-.08-.06-.12-.17-.19-.26Z" fill="#000" stroke-width="0"/><path d="M112.3,72.29c-.17.26-.32.53-.52.77-1.05,1.28-2.11,2.56-3.19,3.82-.15.17-.4.29-.63.33-.27.05-.43-.21-.26-.43,1.23-1.63,2.38-3.33,4.13-4.48.11-.07.25-.09.37-.14.03.04.06.08.1.12Z" fill="#000" stroke-width="0"/><path d="M112.9,77.34c-.33,0-.5-.25-.35-.5.23-.4.48-.8.79-1.13.87-.94,1.76-1.85,2.66-2.75.14-.14.4-.18.6-.26-.06.21-.06.47-.19.63-1.05,1.28-2.13,2.54-3.21,3.8-.09.1-.23.16-.3.2Z" fill="#000" stroke-width="0"/><path d="M118.06,73.79c.02.21.1.37.04.46-.31.5-.62,1.01-1,1.46-.54.63-1.13,1.21-1.71,1.8-.09.09-.21.18-.33.21-.12.03-.3.03-.37-.04-.07-.07-.1-.29-.04-.37.32-.46.64-.94,1.02-1.34.64-.67,1.34-1.29,2.01-1.92.07-.07.17-.12.37-.25Z" fill="#000" stroke-width="0"/><path d="M116.99,78c-.13-.08-.29-.12-.33-.21-.04-.09,0-.26.07-.35.72-.93,1.51-1.8,2.5-2.45.1-.07.27-.05.41-.07-.02.13,0,.29-.08.38-.71.83-1.43,1.64-2.16,2.45-.1.11-.26.16-.41.25Z" fill="#000" stroke-width="0"/><path d="M119.02,78.04c-.07-.17-.25-.39-.2-.48.4-.72.96-1.31,1.71-1.68.23-.11.42.08.35.34-.03.12-.09.25-.18.35-.41.44-.83.87-1.26,1.29-.08.08-.21.1-.43.19Z" fill="#000" stroke-width="0"/><path d="M120.7,78.5c-.03-.11-.14-.31-.08-.39.37-.54.9-.9,1.52-1.13.21-.08.28.08.26.27-.04.34-1.24,1.29-1.69,1.26Z" fill="#000" stroke-width="0"/><path d="M45.79,50.71c.45.03.63.36.76.62.68,1.38,1.36,2.76,1.97,4.17.3.69.48,1.45.69,2.18.14.47-.02.77-.38.86-.34.08-.59-.1-.73-.55-.49-1.55-.98-3.11-1.49-4.66-.24-.74-.53-1.45-.79-2.18-.04-.12-.02-.27-.03-.43Z" fill="#000" stroke-width="0"/><path d="M51.62,58.8c-.1.32-.37.65-.65.67-.34.02-.5-.22-.55-.51-.23-1.5-.64-2.95-1.19-4.37-.37-.95-.72-1.92-1.06-2.89-.07-.2-.03-.43-.04-.65.16.14.38.24.47.42.3.54.56,1.1.81,1.66.46.99.94,1.97,1.34,2.98.34.88.57,1.8.86,2.7Z" fill="#000" stroke-width="0"/><path d="M47.36,57.7c0,.09.03.21-.02.27-.15.18-.31.4-.51.47-.12.04-.41-.14-.48-.29-.16-.38-.26-.8-.35-1.2-.31-1.35-.93-2.57-1.63-3.75-.32-.53-.66-1.05-.94-1.6-.1-.19-.05-.47-.06-.7.21.11.48.17.61.34.39.54.74,1.12,1.08,1.7.64,1.1,1.29,2.2,1.89,3.33.23.43.32.94.48,1.41-.02,0-.05.02-.07.02Z" fill="#000" stroke-width="0"/><path d="M44.45,56.73c-.15.16-.27.38-.44.45-.26.12-.54.01-.67-.26-.25-.49-.49-.99-.7-1.5-.59-1.41-1.33-2.72-2.36-3.86-.13-.15-.24-.31-.34-.48-.05-.08-.04-.19-.06-.28.11,0,.25-.04.32,0,.27.2.55.41.78.66,1.07,1.18,2.11,2.39,2.87,3.81.24.44.38.92.59,1.45Z" fill="#000" stroke-width="0"/><path d="M37.51,51.44c.15.09.3.18.44.28,1.18.87,2.28,1.83,3.05,3.11.1.17.2.34.28.52.15.33.05.64-.26.81-.29.16-.55.06-.75-.29-.35-.63-.64-1.3-1.03-1.91-.46-.72-1-1.38-1.51-2.07-.09-.12-.21-.23-.31-.34.03-.04.06-.07.08-.11Z" fill="#000" stroke-width="0"/><path d="M35.73,51.92c.1.06.23.09.31.17.71.78,1.42,1.55,2.1,2.35.3.35.23.67-.1.88-.32.21-.6.12-.81-.32-.18-.37-.26-.78-.45-1.13-.28-.53-.63-1.03-.94-1.55-.06-.1-.12-.22-.18-.32.02-.03.05-.05.07-.08Z" fill="#000" stroke-width="0"/><path d="M35.35,55.05c-.15-.12-.31-.2-.38-.32-.38-.64-.74-1.3-1.11-1.95-.03-.06-.07-.12-.07-.18,0-.08.03-.16.05-.25.07.02.15.02.21.05.06.03.12.07.16.12.49.58,1,1.15,1.47,1.74.09.11.12.33.07.45-.05.13-.24.2-.4.33Z" fill="#000" stroke-width="0"/><path d="M31.72,52.88c.35.33.7.63,1.01.95.11.11.19.29.21.45.02.24-.25.37-.49.27-.36-.16-.91-1.22-.83-1.6,0-.02.04-.03.1-.07Z" fill="#000" stroke-width="0"/><path d="M58.51,53.88c.06-.04.17-.21.3-.22.3-.04.68.44.66.77-.02.28-.16.45-.45.44-.32,0-.52-.35-.51-.99Z" fill="#000" stroke-width="0"/><path d="M33.01,61.17c-.31.26-.56.47-.86.72,0-.48.4-.83.86-.72Z" fill="#000" stroke-width="0"/><path d="M36.14,64.9c-.36.25-.72.5-1.08.75-.03-.04-.05-.07-.08-.11.35-.26.71-.52,1.06-.78l.1.13Z" fill="#000" stroke-width="0"/><path d="M82.18,42.12c-.07.14-.13.29-.22.41-1.12,1.45-2.48,2.65-3.96,3.72-.73.53-1.5,1.01-2.26,1.5-.22.14-.47.23-.67-.03-.23-.29.01-.5.19-.64.77-.64,1.55-1.27,2.34-1.87,1.18-.89,2.37-1.75,3.57-2.62.28-.21.59-.37.89-.56.04.03.09.06.13.09Z" fill="#000" stroke-width="0"/><path d="M82.25,40.36c-.16.17-.3.35-.47.51-1.68,1.61-3.57,2.94-5.47,4.27-.2.14-.44.23-.68.29-.1.03-.26-.04-.34-.12-.04-.05,0-.24.06-.31.44-.46.85-.97,1.36-1.34,1.32-.96,2.68-1.86,4.03-2.78.31-.21.66-.38,1-.55.13-.06.29-.07.43-.11l.08.13Z" fill="#000" stroke-width="0"/><path d="M76.2,42.37c-.05-.13-.17-.28-.13-.34.14-.28.28-.58.5-.78,1.35-1.2,2.8-2.26,4.45-3.04.16-.07.35-.07.53-.1-.09.15-.15.33-.27.43-1.42,1.17-2.84,2.34-4.28,3.48-.2.16-.47.21-.8.35Z" fill="#000" stroke-width="0"/><path d="M76.54,39.86c-.11-.09-.28-.16-.3-.26-.03-.14,0-.36.1-.45.4-.38.81-.77,1.27-1.06.83-.53,1.7-.99,2.57-1.46.09-.05.23,0,.35,0-.04.1-.05.23-.12.31-.95,1.09-2.05,2.01-3.32,2.71-.16.09-.34.13-.55.22Z" fill="#000" stroke-width="0"/><path d="M76.71,37.56c-.34,0-.41-.2-.31-.4.11-.23.26-.48.47-.62.81-.56,1.64-1.08,2.47-1.6.09-.06.24-.04.36-.05-.03.13-.03.3-.11.37-.75.69-1.51,1.37-2.28,2.03-.17.15-.43.19-.6.26Z" fill="#000" stroke-width="0"/><path d="M79.57,32.73c-.08.22-.08.39-.17.48-.56.57-1.13,1.13-1.72,1.66-.22.2-.58.33-.79.09-.23-.27,0-.58.22-.8.66-.64,1.43-1.11,2.46-1.44Z" fill="#000" stroke-width="0"/><path d="M78.67,31.53c.03.11.13.24.1.32-.24.57-.67.96-1.26,1.17-.09.03-.29-.05-.33-.13-.07-.12-.11-.35-.04-.43.37-.47.88-.73,1.54-.93Z" fill="#000" stroke-width="0"/><path d="M77.16,31.61c-.06-.04-.21-.09-.25-.19-.05-.11-.07-.34,0-.4.3-.27.63-.51.97-.73.04-.03.28.11.29.19.07.42-.54,1.11-1.01,1.13Z" fill="#000" stroke-width="0"/><path d="M105.88,93.4c-.62.29-1.24.6-1.87.88-.53.23-1.08.42-1.62.62-.04.01-.07.04-.11.04-.27.02-.61.17-.72-.17-.04-.14.2-.47.38-.54.79-.32,1.6-.59,2.41-.84.36-.11.75-.13,1.13-.18.12-.01.24.01.36.02.01.06.03.12.04.17Z" fill="#000" stroke-width="0"/><path d="M103.17,95.99c-.07-.06-.26-.15-.27-.26-.02-.13.08-.36.19-.41.68-.28,1.37-.52,2.06-.76.22-.08.46-.11.7-.12.08,0,.18.08.25.14.02.02-.02.16-.07.2-.84.57-1.74,1.03-2.84,1.21Z" fill="#000" stroke-width="0"/><path d="M104.32,97.27c-.05-.04-.23-.13-.27-.25-.03-.1.09-.3.19-.37.17-.12.37-.21.57-.25.64-.12,1.29-.23,1.94-.32.08-.01.18.07.27.11-.05.09-.07.21-.14.25-.77.4-1.56.77-2.56.83Z" fill="#000" stroke-width="0"/><path d="M106.65,97.66c.2,0,.4-.02.59,0,.09.01.19.08.23.16.02.04-.06.19-.12.21-.7.26-1.36.67-2.14.6-.15-.01-.4-.19-.39-.26.02-.17.15-.43.28-.47.5-.15,1.02-.22,1.53-.32v.07Z" fill="#000" stroke-width="0"/><path d="M106.92,99.99c-.21-.03-.34,0-.42-.06-.14-.09-.34-.22-.35-.34,0-.13.16-.32.3-.38.47-.2.93-.09,1.37.12.26.12.13.3-.03.37-.31.13-.64.21-.87.29Z" fill="#000" stroke-width="0"/><path d="M107.67,105.29c-.08.19-.14.4-.25.57-.16.24-.43.2-.46-.06-.03-.41,0-.84.06-1.25.01-.09.21-.2.33-.21.09,0,.27.11.28.2.05.25.03.51.04.76,0,0,0,0,0,0Z" fill="#000" stroke-width="0"/><path d="M107.59,103.7c.75.89,1.5,1.79,2.3,2.74-.4-.07-2.31-2.23-2.41-2.65l.11-.09Z" fill="#000" stroke-width="0"/><path d="M107.81,100.5s.05,0,.08,0c.17.04.33.09.5.13-.13.17-.24.36-.4.49-.08.07-.28.1-.37.05-.19-.1-.47-.25-.48-.41-.03-.28.27-.24.48-.25.07,0,.13,0,.2,0h0Z" fill="#000" stroke-width="0"/><path d="M108.74,101.41c.18.18.3.29.42.41-.18.13-.35.33-.53.35-.13.01-.29-.22-.44-.35.16-.12.32-.25.55-.42Z" fill="#000" stroke-width="0"/><path d="M109.37,102.5c.16.18.25.28.34.38-.13.11-.24.27-.38.31-.08.02-.21-.16-.32-.26.1-.12.2-.24.37-.43Z" fill="#000" stroke-width="0"/><path d="M107.66,105.3c.1,0,.28-.05.3-.01.06.13.09.29.09.44,0,.05-.14.14-.2.13-.07,0-.16-.1-.18-.17-.03-.12,0-.26,0-.39,0,0,0,0,0,0Z" fill="#000" stroke-width="0"/><path d="M96.61,88.31c-.26.63-.5,1.26-.77,1.88-.05.12-.18.24-.31.3-.1.05-.28.07-.37,0-.07-.05-.12-.25-.08-.34.27-.73.56-1.45.84-2.17.01-.04.03-.08.06-.1.1-.08.2-.14.31-.21.06.09.14.18.18.28.04.1.04.21.06.31.03.01.05.03.08.04Z" fill="#000" stroke-width="0"/><path d="M93.33,92.09c-.18-.48.04-.86.22-1.23.29-.61.62-1.21.94-1.81.05-.08.18-.12.27-.18.04.09.13.18.12.27-.12,1.07-.54,2.02-1.28,2.81-.06.07-.17.09-.28.14Z" fill="#000" stroke-width="0"/><path d="M77.17,104.01c0,.88-.66,1.72-1.35,1.8-.11.01-.27-.02-.35-.1-.04-.04.01-.23.07-.31.33-.51.66-1.01,1.02-1.49.09-.13.28-.18.43-.27.08.16.15.32.18.38Z" fill="#000" stroke-width="0"/><path d="M89.7,95.48c.03-.19,0-.4.09-.56.27-.56.57-1.1.87-1.64.04-.07.16-.13.24-.14.05,0,.15.13.14.19-.07.75-.14,1.51-.82,2.01-.12.09-.27.13-.41.2-.04-.02-.08-.05-.12-.07Z" fill="#000" stroke-width="0"/><path d="M98.1,87.12c-.19.81-.53,1.49-1.15,2.01-.05.04-.17.08-.2.05-.06-.05-.11-.16-.1-.23.15-.77.49-1.44,1.06-1.98.06-.06.2-.08.28-.05.06.02.08.14.11.2Z" fill="#000" stroke-width="0"/><path d="M61.53,105.97c-.08-.05-.2-.07-.24-.15-.03-.05.02-.17.07-.24.4-.58.93-.95,1.65-1,.11,0,.23.07.35.11-.04.1-.06.23-.13.31-.45.5-1.03.79-1.71.97Z" fill="#000" stroke-width="0"/><path d="M92.89,91.93c-.18.43-.37.9-.57,1.37-.02.06-.08.12-.13.14-.15.07-.3.11-.46.17-.04-.16-.15-.35-.1-.47.26-.53.56-1.03.85-1.54.03-.05.2-.08.23-.05.07.08.1.2.17.38Z" fill="#000" stroke-width="0"/><path d="M89.11,95.15c-.1.7-.19,1.34-.82,1.68-.11.06-.27.04-.4.06,0-.14-.07-.3-.01-.4.27-.49.56-.97.86-1.45.04-.06.18-.13.22-.11.08.06.13.17.16.21Z" fill="#000" stroke-width="0"/><path d="M78.57,103.57c-.09.58-.23,1.04-.74,1.29-.29.14-.5.03-.4-.24.17-.48.46-.92.71-1.37.03-.05.21-.07.24-.03.09.12.15.26.2.36Z" fill="#000" stroke-width="0"/><path d="M59.81,104.89c.55-.2,1.05-.4,1.57-.56.22-.07.33.08.24.3-.24.58-1.39.99-1.81.26Z" fill="#000" stroke-width="0"/><path d="M63.44,106.28c-.08-.06-.25-.14-.31-.27-.03-.07.09-.27.19-.33.31-.2.63-.38.96-.53.1-.05.26-.02.36.04.04.02.02.22-.03.31-.22.44-.6.68-1.17.77Z" fill="#000" stroke-width="0"/><path d="M73.06,105.76c-.63.6-1.23,1.14-2,1.46.18-.74,1.27-1.52,2-1.46Z" fill="#000" stroke-width="0"/><path d="M80.34,102.82c0,.38-.76.99-1.04.9-.07-.02-.15-.19-.13-.23.18-.3.37-.6.59-.87.06-.08.28-.09.39-.05.1.04.15.2.18.25Z" fill="#000" stroke-width="0"/><path d="M64.68,106.36c.34-.05.64-.09,1.01-.15-.28.45-.75.52-1.01.15Z" fill="#000" stroke-width="0"/><path d="M105.46,60.64c0,.41,0,.82,0,1.23-.01.4-.29.72-.6.71-.29,0-.55-.32-.52-.72.05-.57.15-1.15.25-1.72.11-.63.22-1.26.37-1.89.04-.17.22-.3.33-.45.09.16.21.31.26.48.05.16.03.34.01.51-.05.62-.11,1.23-.16,1.85.02,0,.04,0,.06,0Z" fill="#000" stroke-width="0"/><path d="M106.19,60.55c.14-.84.29-1.73.45-2.63.02-.1.08-.2.14-.28.04-.06.14-.13.18-.11.07.03.15.12.15.19.04.33.05.66.07.99.04.59.1,1.18.13,1.78.01.27.04.57-.05.82-.07.18-.29.35-.49.42-.27.09-.4-.13-.46-.37-.05-.24-.09-.49-.14-.8Z" fill="#000" stroke-width="0"/><path d="M103.33,58.39c.07.19.19.38.2.57.07,1.2.12,2.4.15,3.59,0,.31-.12.57-.49.61-.45.04-.69-.23-.62-.73.09-.6.25-1.19.34-1.78.07-.5.08-1.02.13-1.53.02-.24.07-.48.11-.71l.17-.02Z" fill="#000" stroke-width="0"/><path d="M107.77,59.61c.09-.56.18-1.11.27-1.67.02-.13.08-.26.14-.36.14-.22.3-.28.41.03.05.13.09.28.1.42.08.65.14,1.31.22,1.96.04.38-.18.68-.52.71-.35.03-.57-.21-.58-.63,0-.15,0-.29,0-.44-.02,0-.03,0-.05,0Z" fill="#000" stroke-width="0"/><path d="M110.54,58.08c.03.43.09.86.08,1.29,0,.15-.15.4-.26.42-.2.04-.5.01-.64-.12-.14-.14-.22-.43-.2-.64.05-.55.15-1.1.29-1.63.04-.17.27-.3.41-.45.1.15.24.29.29.46.06.21.05.44.07.67-.02,0-.04,0-.06,0Z" fill="#000" stroke-width="0"/><path d="M111.32,57.77c.08-.31.1-.65.24-.93.18-.35.45-.32.57.06.15.47.26.96.33,1.45.04.26-.15.47-.44.52-.31.05-.53-.08-.6-.38-.05-.23-.05-.47-.07-.7-.01,0-.03-.01-.04-.02Z" fill="#000" stroke-width="0"/><path d="M113.04,57.21c.05-.37,0-.8.4-.86.38-.05.44.39.55.67.07.17.1.41.04.58-.06.17-.24.39-.39.4-.16.01-.38-.16-.49-.31-.1-.13-.09-.35-.11-.48Z" fill="#000" stroke-width="0"/><path d="M115.34,56.57c-.15.18-.26.32-.38.46-.11-.11-.22-.22-.33-.33-.02-.02-.03-.05-.03-.07,0-.2-.03-.4,0-.6,0-.03.29-.08.35-.02.15.14.25.34.4.56Z" fill="#000" stroke-width="0"/><path d="M72.56,72.04c-.06-.03-.14-.04-.17-.08-.1-.14-.22-.28-.24-.43,0-.07.26-.25.33-.22.14.06.26.22.35.36.04.06,0,.18,0,.27-.09.04-.18.07-.27.11Z" fill="#000" stroke-width="0"/><path d="M79.51,78c0,.16,0,.32,0,.47,0,.25-.07.41-.35.41-.25,0-.39-.09-.42-.36-.11-.86-.24-1.72-.33-2.58-.01-.14.15-.38.28-.43.29-.11.48.09.53.37.12.7.23,1.4.35,2.1-.02,0-.03,0-.05,0Z" fill="#000" stroke-width="0"/><path d="M76.74,76.08c-.12.21-.19.46-.28.46-.15.01-.4-.09-.45-.21-.23-.53-.42-1.07-.58-1.63-.04-.13.12-.32.18-.47.14.08.34.13.4.25.26.52.49,1.07.73,1.6Z" fill="#000" stroke-width="0"/><path d="M74.74,80.17c0,.07,0,.13,0,.2,0,.27-.09.52-.36.51-.14,0-.32-.27-.38-.45-.14-.41-.24-.83-.32-1.25-.03-.17.05-.36.07-.54.18.07.44.1.51.23.23.39.39.83.58,1.25-.04.02-.07.03-.11.05Z" fill="#000" stroke-width="0"/><path d="M71.97,79.29c-.07.09-.18.25-.29.41-.12-.14-.27-.26-.35-.41-.18-.39-.33-.8-.48-1.21-.04-.1-.02-.22-.03-.33.12,0,.3-.06.36,0,.24.25.47.51.65.81.1.17.08.41.13.73Z" fill="#000" stroke-width="0"/><path d="M74.98,75.34c-.06.06-.16.22-.3.26-.2.06-.45-.35-.44-.73,0-.1.12-.27.2-.28.24-.03.53.35.54.75Z" fill="#000" stroke-width="0"/><path d="M70.46,78.67c-.06.03-.16.14-.27.15-.22.02-.64-.39-.59-.6.02-.1.18-.23.29-.23.3-.02.61.31.57.68Z" fill="#000" stroke-width="0"/><path d="M60.51,95.32c-.08-.07-.26-.14-.29-.26-.02-.11.07-.32.18-.37.57-.29,1.16-.56,1.75-.82.1-.04.24.02.37.04-.03.11-.04.23-.1.31-.46.61-1.1.92-1.9,1.09Z" fill="#000" stroke-width="0"/><path d="M63.88,94.8c-.15.2-.21.34-.31.4-.43.25-.87.48-1.32.7-.1.05-.23.05-.35.04-.1,0-.25-.05-.27-.11-.03-.09,0-.26.07-.31.59-.49,1.28-.74,2.18-.72Z" fill="#000" stroke-width="0"/><path d="M59.23,94.83s-.17-.07-.21-.15c-.04-.09-.03-.26.04-.33.44-.49,1.05-.68,1.66-.85.03,0,.18.17.16.23-.08.32-1.24,1.12-1.65,1.1Z" fill="#000" stroke-width="0"/><path d="M58.32,93.54c.36-.42.87-.5,1.36-.62.03,0,.18.19.16.25-.16.46-1.09.69-1.52.37Z" fill="#000" stroke-width="0"/><path d="M70.51,95.4c-.19-.14-.32-.24-.44-.33.09-.11.16-.28.27-.32.21-.09.45-.12.68-.14.03,0,.14.24.12.26-.19.18-.4.34-.63.53Z" fill="#000" stroke-width="0"/></svg>