<?xml version="1.0" encoding="UTF-8"?><svg id="Layer_1" xmlns="http://www.w3.org/2000/svg" viewBox="0 0 144.57 144.57"><path d="M77.2,67.5c-.5,1.1-.5,2.4-.4,3.7,0,.7,0,1.4.4,2.1,0,.2.1.3.2.5.2,0,.3-.2.3-.3.2-.6.4-1.3.5-1.9,0-.3,0-.6-.1-1,.7-.5.8-1.4.9-2.2v-1.1c0-1.1,0-2.3-.3-3.4v-.3c.5-.4.7-1,.8-1.5.2-1,.1-2,0-3,0-.2,0-.3-.1-.4.9-.8,1.1-1.9,1.2-3v-3.6c0-.2,0-.4.2-.5.2,0,.4-.3.4-.5.2-.7.4-1.4.4-2.1,0-1.1.2-1.6,0-1.9-.1-.3-.3-.6-.2-.8,0-.2.3-.3.6-.7q.3-.3.4-.5c.2-.4.5-.8.6-1.3,0-.5,0-1,.1-1.6h0c.5-.3.8-.8,1.1-1.3.5-.9.8-1.9,1.1-2.9v-.3c0-.3,0-.5.3-.7.3-.4.6-.8.9-1.2.4-.6.8-1.2,1.2-1.8.2-.2.3-.5.4-.8,0-.2.2-.3.4-.5.4-.4.9-.8,1.3-1.2.3-.4.6-.8.9-1.2.1-.2.2-.3.3-.5,0-.3.2-.4.4-.5.3-.1,1-.7,2-1.6s1.3-1.3,1.4-1.2c.2,0-.2.9-.6,1.8,0,0-.8,2-1,2.8v.3c.1.4,0,.6-.4.8-.4.3-.8.7-.9,1.2-.2.5-.4,1-.6,1.4-.1.4-.2.7,0,1.1,0,.2,0,.3-.1.4-.7.3-.8,1-.9,1.6-.2.8-.4,1.7-.2,2.5,0,.2-.1.4-.3.5-.8.6-1.1,1.4-1.1,2.3v1.4c0,.2,0,.4-.2.5-.5.8-.7,2.1-.6,3,0,.5.2.9.2,1.4v.3c-.4.5-.5,1-.3,1.6,0,.3.2.7.2,1.1v1c-.2.9-.4,1.9-.2,2.9v.8c0,.3,0,.5-.3.6-.4.3-.4.7-.5,1.1,0,.4-.1.8,0,1.3v.4c-.4,1.1-.3,2.2-.2,3.3v.1c0-.1.2-.2.3-.4.3-.5.7-1,1-1.5.2-.2.3-.3.7-.1,0,.2,0,.3-.1.5-.4,1-.8,2.1-.9,3.2,0,.7-.2,1.4,0,2,0,.6.2,1.1-.3,1.6-.5,1.2-.8,2.3-.4,3.6v.6c-.4,1.1-.5,2.2-.7,3.3,0,.6,0,1.2.2,1.8v.7c-.4.4-.5,1-.5,1.6,0,1.2,0,2.4.3,3.6v.4c-.3.3-.3.7-.4,1.1v1.9c0,.3.2.3.4.1.4-.4.8-.8,1-1.3,0-.2.2-.4.2-.7,0-.4.1-.7.4-1,.4-.5.6-1.2.9-1.8.4-1,.5-2,.5-3.1v-.8c.3-.3.6-.5.9-.8.4-.3.5-.8.6-1.3.3-.9.6-1.8.7-2.8,0-.4.1-.7-.1-1.1.2-.3.4-.5.6-.7.3-.4.6-.9.7-1.4.2-.7.3-1.4.5-2,.1-.5,0-.9-.1-1.4v-.2h0c.7-.3,1-1,1.1-1.7.2-.9.3-1.9.4-2.8v-1c.3-.3.6-.5.8-.8.2-.3.3-.7.4-1.1.2-.8.4-1.6.6-2.5,0-.3.1-.7.2-1,0-.5.3-.9.8-1.2.7-.4,1.3-1,1.7-1.7.3-.6.5-1.2.7-1.7,0-.2.2-.4.4-.5.9-.4,1.8-1,2.4-1.8.2-.2.4-.4.6-.6.2-.2.3-.5.5-.7s.5-.1.8-.3c.4-.2.8-.5,1.2-.8.6-.4,1.3-.9,1.9-1.3l.2-.1c.5-.3,1.1-.4,1.2-.2,0,0,0,.3-.3.5-.7.7-1.4,1.5-2.1,2.2-.3.3-.5.6-.8.9-.7,1-.7,1.2-1.3,2.1-.6.8-.7.8-1.3,1.7-.2.2-.6.9-.8,1.6v.3c0,.4-.2.7-.5,1-.4.4-.6.9-.8,1.4-.4,1.2-.7,2.4-.7,3.7,0,.3,0,.6.1.9v.4c-.6.8-.7,1.8-.8,2.7,0,.8-.2,1.6-.2,2.4,0,.1,0,.3-.1.4-.6.8-.7,1.8-.9,2.7-.2,1.3-.1,2.7.1,4v.6c0,.2,0,.3-.1.3-.5.6-.7,1.3-.8,2.1v2.2c-.5.9-.6,2-.7,3v1.1c0,.4,0,.7.2,1.1v.7c-.4.8-.5,1.8-.7,2.7-.1.9-.2,1.7,0,2.6,0,.1,0,.2-.1.3-.3.5-.4,1-.5,1.6-.1,1-.2,2.1-.1,3.1v.4c-.7,1.5-.9,3.1-.9,4.8v.8c-.4.5-.6,1-.7,1.6s-.2,1.1-.3,1.7c0,.2-.2.5-.3.7-.4.7-.6,1.5-.7,2.4.2-.2.3-.2.4-.4.4-.7.8-1.3,1.1-2.1s.2-.3.3-.3c.7-.3,1.2-.9,1.5-1.6.3-.4.5-.9.6-1.4s.2-1,.3-1.6c.8-.4,1.3-1.1,1.6-2,.3-.9.6-1.9.9-2.8v-1.2c.7-.2,1.1-.7,1.4-1.3.7-1.1,1.1-2.3,1.5-3.6v-.8c0-.2,0-.3.2-.4.7-.5,1.1-1.3,1.3-2.2,0-.4.2-.7.3-1.1,0-.1.1-.3,0-.4-.1-.4.1-.6.4-.8.9-.8,1.4-1.7,1.6-2.9,0-.3.2-.5.5-.7,1-.7,1.8-1.6,2.5-2.6.1-.2.2-.4.2-.7,0-.2,0-.3.3-.4.2,0,.4-.2.6-.4.7-.6,1.4-1.2,1.9-2,.2-.3.3-.5.6-.7.2-.2.3-.3.5-.4.7-.4,1.3-.7,1.9-1,1-.5,1.3-.6,1.4-.6,0,0,0,.2-.2.2-1,.9-1.7,2.1-2.5,3.1-.4.5-.8,1-1.1,1.6-.2.3-.4.7-.6,1.1-.6,1.2-1.2,2.4-1.8,3.7-.5,1.1-1,2.2-1.4,3.3-.5,1.2-1,2.4-1.4,3.6-.5,1.4-1,2.9-1.4,4.4-.6,1.9-1.1,3.9-1.6,5.8-.3.9-.7,1.8-1.1,2.7-.6,1.5-1.2,2.9-2,4.3-.5.9-.9,1.8-1.4,2.7-.4.8-.9,1.5-1.4,2.2-.3.4-.6.8-.8,1.2-.7,1-1.4,1.9-2.3,2.8,0,0-.2.2-.2.3-.3.4-.6.8-1,1.1-.6.5-1.2,1.2-1.8,1.8-.2.2-.5.4-.7.6-.9.7-2,1.3-3.1,1.8-.5.2-1,.4-1.5.6-.7.2-1.3.2-2,.3h-.8c-.6,0-1.2.1-1.8.2-.5,0-1,.2-1.5.4-.5.2-1.1.2-1.6,0-.1,0-.2,0-.4-.1q-.4,0-.6.2c-.5.6-1.2,1.1-2,1.1-.4,0-.9.1-1.3.2-.8.2-1.7,0-2.4-.3-.5-.2-.9-.4-1.4-.6-.6-.3-1.2-.4-1.9-.3-.8.2-1.6.2-2.5,0-.6-.1-1.2,0-1.9,0-1,0-2-.2-2.9-.3-1.2-.1-2.3-.7-3.5-1.1-1.5-.5-2.7-1.3-4-2.1-.6-.3-1.2-.8-1.8-1.3-.8-.6-1.6-1.2-2.4-1.8-.3-.3-.7-.5-1-.8-1.3-1-2.5-2.2-3.6-3.4-1-1.1-1.9-2.3-2.8-3.6-.8-1.2-1.7-2.4-2.4-3.7-.4-.6-.7-1.2-1-1.8-.7-1.4-1.5-2.8-2.2-4.2-.6-1.2-1.3-2.4-2-3.6-.2-.4-.4-.8-.5-1.3-.2-.3-.3-.6-.5-.9-.7-1.3-1.3-2.6-2.2-3.8-.3-.4-.6-.9-.9-1.4-.7-1-1.5-1.9-2.2-2.8-.8-1.1-1.7-2.1-2.5-3.2-1-1.2-1.5-1.8-2.2-2.4-.9-.8-1.7-1.4-1.6-1.6,0,0,.5,0,.7.1,0,0,.2.1.5.3.4.3.5.4.9.6.9.5,1.3.7,1.7.8.5,0,.8.3,1,.7.9,1.6,2.3,2.7,3.8,3.7.5.3.9.7,1.4,1,.6.5,1.3.9,2,1.3.1,0,.2.2.4.2.6.2.9.6,1.1,1.2.2.7.7,1.1,1.2,1.6.5.6,1.1,1.1,1.7,1.7.4.4.9.7,1.4,1.1,0,.7.4,1.3.8,1.8.5.7,1.1,1.2,1.7,1.9,0,0,.2.2.3.2.4.1.4.4.5.7.2,1.1.8,1.9,1.5,2.7l1.5,1.5c.5.5.4.3.6.5.1,0,.2.2.2.3,0,.8.5,1.4,1,1.9.3.3.6.6.9,1,.4.4.9.7,1.4.9,0,.7.5,1.1,1,1.6.8.8,1.8,1.3,2.7,1.9.2.2.5.3.8.3,0-.8-1-2.2-2.3-3.4.1-.8,0-1.5-.4-2.2s-.7-1.3-1.4-1.8c-.2-.2-.5-.4-.7-.5s-.3-.2-.2-.4c.1-.5,0-1-.3-1.5-.4-.9-1-1.8-1.7-2.5-.2-.2-.5-.4-.8-.5-.2-.1-.3-.2-.3-.5,0-1.2-.4-2.2-1.2-3.2-.3-.4-.6-.8-1-1.2-.2-.2-.5-.4-.7-.6,0-.7,0-1.3-.1-2,0-.3-.2-.6-.3-.9-.4-.7-.8-1.3-1.2-2-.2-.4-.5-.7-.9-.8-.2,0-.2-.2-.2-.4v-.7c0-.6,0-1.2-.5-1.8-.3-.4-.6-1-.9-1.4-.3-.4-.6-.7-.9-1-.2-.2-.2-.3-.2-.5,0-1,0-2-.1-3,0-.2-.1-.4-.2-.6-.3-.7-.7-1.3-1.3-1.8-.3-.2-.3-.7-.4-1-.3-.9-.6-1.9-.9-2.8,0-.3-.3-.6-.4-.8-.4-.6-.6-1.2-1.2-1.6-.2-.2-.3-.4-.3-.7-.2-1-.4-2-.7-2.9-.2-.6-.4-1.2-.6-1.7,0-.2-.3-.4-.5-.6-.4-.3-.5-.8-.5-1.2,0-1.6-.7-2.8-1.9-3.8-.2-.2-.3-.3-.4-.5-.2-.5-.3-1.1-.5-1.6,0-.2-.2-.5-.4-.7-.4-.6-.9-1.1-1.4-1.6-.3-.2-.5-.4-.8-.5-.1,0-.2-.1-.3-.2-.1-.2-.2-.3-.3-.5-.2-.5-.5-.8-1.3-2-.4-.6-.6-1-.5-1,.1-.1.6.4,1.8,1,.9.5,1.2.4,1.7.8.2.1.3.3.7.5.3.2.5.2.7.3.3.2.4.4.6.8.4.7.8,1.4,1.4,2.1.2.2.3.4.5.5.5.5,1.1,1,1.6,1.6.1.1.2.3.3.4.5,1.2,1.4,2.1,2.4,2.8.5.3.9.6,1.4.9,0,1,.6,1.7,1.2,2.4.2.2.4.5.7.7.2.2.5.3.8.5.2.1.3.3.3.5,0,.5.3,1,.6,1.4.4.6.8,1.3,1.4,1.7.4.3.6.7.8,1.2.3,1.1,1.1,1.8,2,2.4.2.1.3.2.5.5s.4.5.7.8c.4.3.8.6,1.2.8h.2v-.3c0-1,0-2,.1-3v-1c0-.4-.2-.7-.4-.9-.2-.2-.2-.4-.2-.6.2-1.2.2-2.3,0-3.5,0-.4-.2-.8-.4-1.2-.1-.3-.1-.6,0-.9.3-.8.3-1.6,0-2.4-.1-.4-.2-.8-.3-1.2-.1-.7-.3-1.4-.8-2-.2-.3-.2-.5-.2-.9,0-.9,0-1.9-.1-2.8,0-.4-.3-.9-.5-1.3-.2-.4-.5-.7-.7-1.1v-1.2c.1-1-.3-1.7-.8-2.5-.2-.3-.5-.5-.7-.8-.1-.1-.2-.2-.2-.4v-1.9c-.3-.8-.5-1.7-1-2.5-.1-.2-.3-.4-.5-.6-.1-.2-.2-.3-.1-.5.2-.7,0-1.4-.2-2-.2-.3-.3-.7-.5-1-.3-.4-.5-.9-.5-1.4,0-1.2-.6-2.1-1.3-2.9-.3-.4-.5-.7-.7-1.2,0-.2-.2-.5-.2-.7-.1-.8-.6-1.4-1-2.1-.3-.5-.5-1-.7-1.5,0-.2-.2-.4-.3-.6s0-.3.1-.5c0,0,.2.1.3.2.5.6,1.1,1.1,1.5,1.8.4.5.8.8,1.4.9.4,0,.6.3.7.7.1.5.4.9.7,1.2.3.5.8.8,1.2,1.3.2.2.5.5.8.7,0,0,.1.2.2.3.2.5.5,1,.9,1.4s.8.8,1.2,1.3c.3.3.6.6,1,.8.2.1.4.3.4.6.2,1,.8,1.9,1.5,2.6.3.3.6.6.9.8.2.1.2.3.2.5,0,.5.2,1,.4,1.4.3.8.8,1.4,1.4,2,.3.4.6.8.9,1.3v.3c0,.6.2,1.2.4,1.7.3.7.6,1.3,1.1,1.8.3.4.6.8.9,1.3v.3c0,.6,0,1.1.2,1.6.4,1.1.9,2.1,1.7,3,.1.2.2.3.1.5-.1.4,0,.9,0,1.3.1.8.4,1.5.8,2.2v.1c.4.3.5.7.3,1.2-.2.6,0,1.1.2,1.7,0,.2.2.5.3.7.3.6.5,1.2.5,1.9,0,.5.2,1,.4,1.5.1.2,0,.4,0,.6v.8c.2.6.3,1.1.5,1.7v.3c-.3,1.3,0,2.4.6,3.5,0,.2.2.3.3.4.2.2.2.4,0,.5-.4.4-.3.9-.2,1.3.3,1.2.6,2.3.9,3.4v.2c0-.2.1-.2.2-.3.1-.6.2-1.3.2-1.9,0-.2-.1-.4-.2-.6v-.4c.5-.9.4-1.8.2-2.8,0-.6-.4-1.1-.7-1.5-.1-.1-.2-.3,0-.4.4-.6.4-1.3.3-2.1,0-.7-.2-1.4-.3-2,0-.2-.2-.4-.3-.6-.1-.1-.2-.3,0-.4.4-.9.4-1.8.2-2.8,0-.4-.1-.8-.2-1.3,0-.2-.2-.5-.3-.7v-.3c.6-.3.6-.9.7-1.4.2-1.1.2-2.3,0-3.4,0-.3-.2-.6-.4-.9-.1-.2-.1-.3,0-.5.1-.5.3-1,.4-1.4,0-.4,0-.7.1-1.1,0-.4,0-.8-.3-1.1-.2-.2-.2-.5-.3-.8s-.2-.6-.4-.8v-.3c.1-.8,0-1.6-.2-2.4,0-.2-.1-.4-.3-.6-.3-.4-.6-.8-.9-1.2,0-.1-.2-.3-.2-.5,0-1.5-.5-2.9-.9-4.3v-.2c-.4-.4-.5-1-.6-1.5-.2-.9-.2-.8-.5-1.6-.2-.6-.3-.9-.3-1,.1,0,.5.3,1.4,1,.2.1.4.2.6.4.4.3.8.5,1.2.7.2,0,.3.1.3.3,0,.3.2.5.2.8.3.9.7,1.6,1.5,2.1.3.2.4.4.3.8,0,.3,0,.7.1,1,.3.9.7,1.8,1,2.7.3.8.8,1.5,1.3,2.1.1.2.2.3.2.5,0,1.1.4,2.2,1.2,3h0c.5.4.7.9.6,1.6-.1.8.1,1.5.4,2.2.3.8.6,1.5,1,2.2,0,.1.1.3.1.4-.2,1.2.1,2.2.7,3.2.2.3.3.7.2,1.1,0,.7.2,1.4.6,2.1.2-.4.4-.8.4-1.2.1-1,.2-2,0-3.1,0-.5,0-.9.1-1.4.2-1,.4-2.1.2-3.2v-.8c0-.5,0-1-.5-1.4.6-.5.6-1.1.6-1.7,0-.9,0-1.8-.1-2.7,0-.4,0-.7-.3-1-.2-.2-.1-.4,0-.6,0-.2.2-.5.2-.7v-.2c-.3-.8-.1-1.6-.2-2.3-.1-.9-.3-1.8-.7-2.5.6-.7.9-1.6,1-2.5,0-.5.2-1,.2-1.5s-.1-.8-.2-1.3c0-.2,0-.5-.2-.7v-.5c.4-1,.6-2.1.8-3.2v-1.6c0-.2,0-.3.1-.4.4-.3.6-.8.7-1.3.4-1.2.5-2.4.3-3.6v-.3c-.1-.3,0-.5,0-.8.4-.8.6-1.7.7-2.6,0-.3,0-.6-.2-.9v-.6c.5-.8.9-1.7,1-2.6v-1.6c0-.5.3-.8.5-1.2.5-.8.4-1.3.6-1.3s.5.8.5,1.5c0,1.2-.4,1.2-.3,2.4,0,.8.3,2.2.5,2.8v.5c0,.1,0,.3-.1.5-.2.5-.2,1-.2,1.5,0,.4,0,.8.1,1.1,0,.6.2,1.2.5,1.7.1.2.1.5,0,.8,0,.5-.2.9-.2,1.4,0,1,.1,2,.2,3,0,.2.1.5.2.7.3.6.5,1.2.4,1.9v1c.2,1.4.7,2.8,1.2,4.1.1.3,0,.5,0,.8-.2.2-.3.6-.3.8v1.5c.1,1,.3,2,.5,2.9,0,.3.1.5.2.8s0,.5,0,.8c-.2.7-.3,1.3-.2,2,0,.4,0,.9.1,1.3,0,.8.3,1.5.5,2.2v.5c-.3.6-.4,1.3-.4,2v.4c0,.4,0,.8.2,1.1,0,.5.2.9.4,1.3,0,.3.1.5,0,.8-.4,1-.4,2-.3,3v1.3c.3.7.1,1.3,0,2-.3,1.1-.3,2.2,0,3.2,0,.4.3.8.5,1.4h0l-.5.3ZM73.1,12.6c-.1.5-.2.8-.3,1-.3.6-.5.9-.5,1.4v1.9c0,.7-.4,1.5-.8,2.3v.6c0,.2.1.4,0,.6-.2.9-.3,1.8-.5,2.6-.1.4-.2.8-.2,1.3v1c0,.7,0,1.4-.2,2s-.3,1.3-.8,1.8c-.2.2-.2.5-.2.7v.8c-.2,1-.4,2.1-.7,3.1-.1.5-.3,1-.1,1.5.1.4.2.9.2,1.4,0,.7,0,1.4-.2,2.1-.1.7-.3,1.3-.7,1.9v.4c.1.6.3,1.2.4,1.8.1.9.2,1.7.3,2.6,0,.4,0,.8-.2,1.1v.5c0,.3.2.5.2.8,0,.8,0,1.6.2,2.4,0,.6,0,1.2-.2,1.8-.2.4-.2.7,0,1.1v.5c.2,1,.2,2.1,0,3.1,0,.6-.2,1.2-.3,1.9v2.5c0,.8,0,1.6-.4,2.3-.3.6-.3,1.1-.2,1.8v1.7c0,.8-.1,1.4-.6,2.1-.2.2-.2.4-.1.7v.6c0,.5-.2,1-.4,1.3-.3.6-.6.6-.6,1,0,.3,0,.4.2,1.2.1.7.2,1.1.1,1.4,0,.3-.1.6-.2.9v.5c0,.5.2,1,.3,1.5.3,1.5.3,3-.2,4.5v.6c0,.3.1.6.2.9,0,.5.2,1,.2,1.5,0,1,0,2-.4,2.9-.2.3-.1.7,0,1,.1.2.2.4.2.7v1.6c0,.5,0,1-.2,1.5,0,.2-.1.3-.2.5-.3.3-.3.6-.2.9.1.4.2.9.5,1.2.5.8.9,1.7,1.8,2.3.3.2.4.4.4.7s0,.4.2.6c.3.7.7,1.2,1.3,1.7.3.2.4.5.4.9,0,.3,0,.7.2,1.1.3,1.1,1.1,1.9,1.8,2.8h.2c.2-.3.1-.6.1-.8v-.8c0-.3-.2-.5-.3-.7.3-.4.6-.6.8-1,.6-1.1,1-2.3.9-3.6,0-.3,0-.4.3-.6.5-.4.8-.9,1.2-1.4.3-.5.4-1,.6-1.5.2-.6.4-1.1.2-1.7v-1.4c0-.6-.2-1.1-.2-1.7-.2-1.1-.3-2.1-.6-3.2-.2-1.3-.6-2.6-.7-4,0-.4,0-.3-.2-.8-.8-4.5-.9-5.6-.9-6.4v-8.9c0-1,.2-1.9.2-2.9,0-1.6.1-3.2.1-4.7v-2.2c0-1,0-1.9-.2-2.9-.1-1.6-.3-3.3-.5-4.9-.1-1.1-.2-2.3-.4-3.4-.3-1.5-.4-3-.4-4.5v-6.6c0-1.2-.2-1.6-.3-2.9v-3.7c0-1.7.1-3.3.1-5,0-2.7.1-4.1.2-5.3,0-1.5.2-3.6.5-6.1h0l-.2.2ZM70.9,117.9c.2-.6.2-1.2.2-1.7s0-.3,0-.4c-.2-.2,0-.4,0-.7.2-.4.5-.8.7-1.3.3-.7.5-1.3.4-2,0-.6-.2-1.2-.3-1.7v-.5c.3-.3.5-.6.6-1,0-.3.1-.6.2-.9.1-.4,0-.7-.3-.9-.6-.6-1.1-1.2-1.4-2,0,0,0-.2-.1-.3-.4-.6-.6-1.2-.6-1.9,0-.2,0-.3-.2-.5-.4-.5-.8-.9-1.1-1.4-.3-.4-.6-.9-.6-1.4s-.1-.3-.2-.4c-.4-.2-.6-.6-.9-1-.4-.7-.9-1.3-1.2-2.1-.2-.5-.3-1-.4-1.5v-.3c-.2-.3-.5-.7-.8-1-.7-.8-1-1.7-1.1-2.8v-.3c-.3-.4-.5-.8-.7-1.3-.6-1.2-1-2.3-1.1-3.6,0-.1,0-.2-.2-.3-.4-.4-.7-.9-1-1.5-.4-.9-.7-1.8-.9-2.8v-1c.1-.3,0-.5,0-.8-.3-.8-.6-1.6-.8-2.5-.2-.8-.5-1.6,0-2.4-.9-1.3-1.2-2.3-1.1-3.6,0-.5,0-1-.2-1.5,0-.4-.2-.7-.3-1.1,0-.3-.1-.6,0-.8v-.7c-.2-.7-.3-1.4-.5-2.1,0-.2,0-.5-.2-.7,0-.2-.2-.4-.3-.6-.3-.8-.6-1.7-.4-2.6,0-.1,0-.3-.1-.5-.6-.9-.9-1.8-1.2-2.9v-.9c0-.3,0-.6-.2-.8-.3-.5-.6-1-.9-1.6-.5-.9-.9-1.9-.8-3v-.3c-.2-.3-.3-.6-.6-.8-.7-.8-1.1-1.8-1.5-2.8-.1-.3-.2-.6-.2-.9,0-.4-.2-.7-.4-1-.3-.4-.6-.7-.9-1.1-.6-.7-.9-1.5-1.2-2.3-.2-.6-.5-1.2-1-1.6l-.2-.2c-.7-.8-1.3-1.7-1.7-2.8,0-.2-.1-.3-.3-.4-.7-.4-1.1-1-1.7-1.6-.5-.5-1-1.1-1.4-1.8-.2-.4-.5-.8-.9-1.1-.9-.8-1.7-1.7-2.1-2.9,0-.2-.2-.3-.5-.4-.2,0-.3,0-.5-.1-.2,0-.8-.6-2.2-2.4.6.9,1,1.6,1.3,2,.7,1.2,1,1.8,1.5,2.6.2.4.5.8.8,1.3.2.3.5.7.7,1,.3.4.6.8,1,1.3.7.9,1.3,1.8,1.9,2.7.2.3.4.6.6.9.8,1.1,1.5,2.2,2.1,3.4.7,1.5,1.4,3,2,4.6.5,1.3.9,2.7,1.4,4,.3.8.5,1.7.8,2.5.4,1.3.9,2.6,1.3,4,.3,1.1.6,2.2.9,3.3.5,1.7.9,3.3,1.1,5,.1,1.2.3,2.3.4,3.5,0,.9,0,1.8.1,2.7v3.9c0,.9,0,1.8.1,2.8,0,1.1.1,2.2.2,3.2,0,.7.2,1.5.3,2.2.3,1.6.5,3.2.9,4.7.5,2,1,4,1.7,6,.7,1.8,1.3,3.6,2.1,5.3.7,1.6,1.4,3.2,2.2,4.7.7,1.5,1.5,2.9,2.3,4.4.7,1.2,1.5,2.4,2.2,3.6.2.3.4.6.6.9.4.6.8,1.1,1.1,1.7,0,0,.2.3.4.6.9,1.2,2.5,2.9,2.9,3.3h.4ZM35.5,25.6c.2.8.5,1.4.7,1.8s1.2,1.8,1.3,2.5v.2c0,.2.1.5.3.8.1.3.3.6.5.8.3.4.6.9.9,1.3.2.3.3.6.3,1,0,.8.2,1.6.7,2.2.2.2.3.5.4.8.3.6.4,1.2.3,1.8,0,.3,0,.5.2.8.4.7.8,1.4,1,2.2s.5,1.7.4,2.6c0,.1,0,.3.2.4.4.6.8,1.1,1.1,1.7.2.4.3.9.3,1.4v.6c0,.5.1,1,.4,1.5.3.5.5,1,.7,1.5.2,1,.2,2.1.2,3.2s0,.5.2.7c.2.5.5,1,.6,1.5.2.7.4,1.4.6,2.1,0,.3.1.6,0,.9,0,.3-.1.7-.2,1-.2.5,0,1,.1,1.4,0,.2.2.4.2.6.1,1.2.3,2.4.2,3.6,0,.3,0,.5.2.7.1.2.2.5.3.8v3.2c0,.8.1.8.1,1.1s0,.5.2.7c.5.9.6,1.8.7,2.8,0,.7-.1,1.3.3,1.9v.2c.2,1.4.4,2.9.5,4.3.1,1.2.5,2.4.6,3.6,0,1,.2,2,0,2.9v.4c.2.7.5,1.3.7,2,.2.8.5,1.6.5,2.4s0,1.2.6,1.6c.5.8,1.1,1.6,1.5,2.6.2.4.3.8.2,1.2v.3c.3.6.6,1.2,1,1.8.4.8.6,1.6.6,2.5,0,.5.2.9.5,1.3.9,1.1,1.7,2.3,2.4,3.5.2.3.4.7.3,1.2,0,.3,0,.5.3.7.3.3.7.6,1,.9.4.5.8,1,1.3,1.4.5.5.7,1,.8,1.7,0,0,0,.2.2.3.1.1.3.2.4.3.9.6,1.7,1.3,2.3,2.2.2.2.2.6.5.7.2.2.5.2.8.2.1,0,.3,0,.4.1,1,.4,1.9,1.1,2.5,2,0,.2.2.3.4.4.4.2.8.4,1.3.6h.3v-.2c-.1-.5-.3-.9-.4-1.4-.1-.3-.2-.6,0-.9.2-.2.2-.5,0-.7-.5-.6-1-1.2-1.5-1.7-.5-.6-1.1-1.2-1.5-1.8-.4-.6-.8-1.1-1.2-1.7-.6-1-1.3-2-1.9-3s-1.1-2-1.7-3c-.6-1.1-1.2-2.1-1.7-3.2-.6-1.3-1.2-2.5-1.8-3.8-.4-.9-.8-1.8-1.2-2.7-.6-1.6-1.2-3.3-1.7-5-.4-1.3-.8-2.7-1.2-4.1-.4-1.5-.7-3.1-.9-4.6-.3-1.8-.5-3.6-.6-5.4,0-1.6-.1-3.2-.2-4.8v-1.1c-.2-2,0-4-.4-6-.1-.8-.1-1.6-.3-2.3-.3-1.4-.7-2.9-1-4.3-.1-.6-.3-1.2-.5-1.8-.2-.8-.5-1.6-.7-2.4-.2-.5-.3-1-.5-1.5-.4-1.3-.8-2.7-1.2-4-.2-.7-.5-1.3-.7-1.9-.5-1.7-1.1-3.2-1.8-4.8-.4-1-.9-2.1-1.5-3.1-.4-.7-.8-1.4-1.3-2.1-.7-.9-1.3-1.9-2-2.8-.4-.6-.9-1.2-1.3-1.8-.3-.4-.5-.7-.8-1.1-.2-.2-.3-.5-.5-.8-.5-.9-.9-1.6-1-1.8-.3-.7-1-1.9-2.5-4.2h0l.2.4ZM88.4,62.5c-.3.7-.7,1.2-1,1.6-.6.7-.8,1.4-1.6,1.9-.2.2-.3.5-.3.8s-.1.6-.2.9c-.2.6-.6,1.1-1,1.6-.2.3-.4.6-.5,1-.3,1-.7,1.9-1.1,2.9-.1.3-.3.6-.7.7-.1,0-.3.2-.3.4-.1.4-.2.8-.2,1.1,0,.8-.2,1.6-.7,2.2-.2.3-.5.5-.6.8v1c0,.3,0,.9-.1,1.3,0,.7-.2,1.5-.6,2.2-.3.5-.2.9,0,1.3.1.5.4.9.3,1.4v1.2c0,.8-.4,1.5-.9,2.2-.3.3-.3.7-.4,1.1,0,.5,0,1.1-.3,1.6-.3.8-.9,1.6-1.5,2.3-.1.1-.2.3-.2.5,0,.6-.1,1.3-.4,1.9-.1.3-.3.7-.4,1-.2.7-.6,1.4-1.2,1.9-.3.3-.4.6-.4.9,0,1.4-.4,2.8-1.3,4-.2.2-.2.4,0,.7,0,.2.1.4.1.6v1.8c-.1.5-.3,1-.4,1.5,0,.4-.2.8-.5,1.2-.1.1-.2.3-.1.4,0,.5.2,1,.3,1.6v.7c-.1.9-.5,1.8-.9,2.7-.1.2-.2.5-.1.7.2.8,0,1.5,0,2.3,0,.3-.1.6-.3.9,0,.2-.2.4,0,.6.2.6.3,1.2.6,1.8.1.4.4.7.8.9.9.5,1.8.6,2.8.6.3,0,.4-.2.6-.4.4-.6.8-1.2,1.1-1.9.2-.3.3-.6.4-.8,0-.2.2-.4.3-.5.5-.5.7-1.2,1-1.8.5-1.2,1.2-2.3,1.5-3.6.2-.8.5-1.5.7-2.2,0-.1,0-.2.1-.4.7-1.5,1.1-3.1,1.5-4.7.2-.8.5-1.5.6-2.3.3-1.7.6-3.4.8-5.1.1-.8.2-1.7.2-2.6,0-1,.1-2,.2-3v-3.4c0-1.3-.1-2.5-.2-3.8v-3.7c0-1.4,0-2.8.2-4.2,0-1.3.3-2.7.5-4,.3-1.6.5-3.1,1.1-4.6.7-1.9,1.1-3.5,1.4-4.5.4-1.1.8-2.1,1.1-2.8h0l.2-.4ZM108.1,45.9h0c-.2,0-.4.2-.5.3-.6.4-1.2.8-1.8,1.2-.5.4-1,.9-1.7,1.1,0,0-.1,0-.2.1-.3.3-.7.7-1,1.1-.7.8-1.6,1.3-2.4,1.9-.2.2-.4.3-.5.5-.1.3-.2.7-.4,1-.1.2-.2.5-.3.7-.4.8-1.1,1.2-1.8,1.8-.2.2-.3.3-.3.5,0,.4-.1.7-.2,1.1-.2.9-.4,1.7-.6,2.6-.2.7-.4,1.4-1,2-.2.1-.2.3-.2.5,0,1.2-.2,2.5-.4,3.7-.1.5-.3,1-.7,1.3-.2.2-.2.3-.2.6,0,.4,0,.9-.1,1.3s-.2.9-.3,1.3c-.2.9-.5,1.7-1,2.4-.1.2-.2.4-.2.7v.3c-.2,1.2-.5,2.4-.9,3.6-.2.6-.5,1.1-1,1.5-.2.2-.3.4-.3.6,0,.9,0,1.8-.3,2.6-.3.9-.5,1.9-1.1,2.7-.2.2-.3.5-.3.8-.2,1-.7,1.8-1.5,2.3-.2.1-.2.2-.2.4.1.4.2.9.4,1.3,0,.2.1.4,0,.6s-.3.4-.3.6v1.9c0,.6.2,1.2.3,1.8-.3.2-.4.4-.4.7,0,.8.1,1.6.5,2.3.2.4.2.7,0,1.1-.1.3-.1.5,0,.8v.7c-.1.6-.3,1.3-.4,1.9s-.2,1.2-.3,1.7c0,.2,0,.5.2.6.2.2.2.4.1.7-.2.4-.4.8-.6,1.2-.2.3-.3.6-.5.9-.2.6-.5,1.1-.7,1.7-.1.4-.3.8-.2,1.3v.3c-.3.4-.6.8-.8,1.2-.5.9-1,1.8-1.3,2.8,0,.3-.1.7,0,1,.1.4,0,.5-.2.7-.5.4-1,.9-1.5,1.4s-.6,1.2-.8,1.9h1c.2,0,.4,0,.6-.2.7-.7,1.5-1.4,2.1-2.1s1.1-1.5,1.6-2.3c.4-.6.9-1.3,1.3-1.9.5-.8,1.1-1.5,1.5-2.3.7-1.4,1.3-2.9,1.8-4.4.3-.9.7-1.8,1-2.7.3-.8.5-1.5.7-2.3s.4-1.5.5-2.3c.1-.6.3-1.2.4-1.8.1-.7.2-1.4.3-2,.4-1.4.7-2.8.8-4.3,0-.6.1-1.2.2-1.8,0-.7.2-1.4.3-2.1,0-.4.1-.7.2-1.1,0-.7.1-1.4.2-2.1.1-1,.3-2.1.4-3.1.1-.9.2-1.8.4-2.7.3-1.8.6-3.6,1-5.3.2-1.3.5-2.6.8-3.8.1-.6.2-1.3.4-1.9.2-1.2.3-2.3.6-3.4.1-.8.3-1.5.5-2.2.2-.8.4-1.6.6-2.3.4-1.1.8-2.1,1.2-3.2.3-.6.6-1.2.9-1.8.4-.6.9-1.2,1.3-1.8.7-1,1.6-1.9,2.5-2.8.1-.1.2-.2.3-.3.6-.7,1.2-1.4,1.8-2.1.4-.5.8-.9,1.2-1.4h0l-.5.2ZM65.9,89.3c.1-.3.3-.5.3-.7.5-1.3.5-2.7.3-4,0-.3-.1-.7-.2-1v-.6c.2-.4.3-.9.4-1.3.2-1,0-1.9-.1-2.9,0-.6-.2-1.3-.5-1.9v-.4c.1-.3.3-.6.3-.8v-1.7c0-.3-.1-.6-.2-.9.1-.2,0-.4,0-.6-.2-.8-.5-1.6-.7-2.3,0-.2-.1-.5-.2-.8-.2-1.1-.3-2.1-.5-3.2-.2-1.5-.5-3.1-.7-4.6-.2-1.1-.3-2.2-.4-3.3,0-.3,0-.6-.2-.8-.2-.9-.2-1.9-.5-2.8-.3-1-.6-2-.8-2.9-.1-.5-.3-.9-.4-1.4-.3-.7-.6-1.4-.9-2.1-.6-1.5-1.3-3-1.9-4.5-.3-.7-.6-1.3-.8-2-.3-.8-.6-1.5-1.1-2.2v-.1c0-.1-.1-.3-.2-.3,0-.2-1.4-3.1-1.5-3.1,0,0,.7,2.6,1.1,3.3,0,0,.2.4.4.8,0,0,0,.2.1.3.2.8.4,1.5.5,2.3,0,.4.2.9.2,1.3,0,.3,0,.5.2.8.3.5.6.9.8,1.4.3.9.4,1.8.4,2.7v.3c.2.5.4,1,.6,1.4.2.5.3,1,.3,1.5,0,.7-.1,1.4-.3,2-.1.5,0,.9,0,1.3.3,1,.4,2,.3,3,0,.5,0,1-.2,1.5,0,.3-.2.6-.3.8-.2.3-.2.5-.2.8.2.9.3,1.7.5,2.6v1.2c0,.3-.1.6,0,.9.2.9.3,1.8.6,2.7.2.6,0,1.3,0,1.9v.6c.4.6.6,1.4.7,2.1,0,.7,0,1.4-.2,2.1v.6c.2.9,0,1.8-.2,2.7,0,.1,0,.3-.2.4-.3.1-.3.4-.3.7,0,.9.3,1.7.6,2.5s.7,1.4,1.3,2c.2.2.2.3.2.6v.8c.2.7.3,1.4.6,2,.3.7.6,1.4,1.1,1.9.2.2.2.4.2.6,0,.5,0,1.1.3,1.5.3.5.6.9.9,1.4.2.3.4.5.8.7.2-.6.4-1.2.3-1.8,0-.3-.2-.5,0-.8.1-.7,0-1.4-.5-2h0l-.1-.2ZM24.4,48.2s.6,1,1.2,1.8c.3.4.5.9,1.1,1.3,1.2.9,2.2,1.9,2.6,3.4,0,.2.1.3.2.5.2.6.5,1.1.9,1.5,1,.9,1.5,2.1,1.6,3.4,0,.6.3,1,.6,1.5,0,0,.2.2.2.3.4.9.8,1.8,1,2.8.3,1.1.6,2.2,1.3,3.2.4.6.8,1.2,1,1.9.3.7.5,1.4.7,2.1.2.6.4,1.2.9,1.7.3.3.5.7.7,1,.4.6.6,1.3.6,2.1,0,.7.1,1.4.2,2.1,0,.1,0,.2.1.3.5.7.9,1.3,1.4,2s.9,1.3.9,2.2,0,.3,0,.5.1.5.3.7c.8.8,1.3,1.8,1.8,2.8s.4,1.5.5,2.3c0,.3.2.6.4.9.8.8,1.5,1.7,2,2.6.1.3.3.6.3.9,0,.4.1.8.2,1.1,0,.1.1.3.2.3.7.4,1.2,1,1.6,1.6.6.8,1.1,1.7,1.3,2.8,0,.4.3.6.5.9.3.3.7.6,1,.9.2.3.4.7.6,1,.3.5.6,1,.7,1.6,0,.5.1,1.1.7,1.3l.1.2c.4.6.9,1.3,1.3,1.9.2.2.3.5.3.8,0,.4.2.6.5.8.6.3,1.2.4,1.9.6v-.5c-.2-.4-.4-.9-.6-1.3-.3-.5-.7-1-1-1.5-.4-.6-.8-1.2-1.4-1.7-.2-.1-.1-.3-.1-.4,0-.8,0-1.5-.3-2.3-.2-.5-.4-1-.6-1.4-.2-.5-.5-1-1.1-1.1,0,0,0-.2.1-.2.3-.3.4-.7.2-1.1,0-.2-.1-.4-.2-.5-.5-1.1-1.1-2.2-2.1-3,.2-.5.2-1.1,0-1.6-.1-.7-.3-1.3-.5-2-.3-1.1-.8-2-1.5-2.8-.3-.3-.5-.6-.7-.9-.5-.8-.9-1.5-1.3-2.3-.4-.9-.9-1.8-1.4-2.7-.8-1.4-1.5-2.9-2.1-4.4-.4-.9-.7-1.8-1.1-2.8-.2-.5-.3-1-.6-1.4-.6-1.2-1.1-2.4-1.5-3.7-.7-2.1-1.8-3.9-2.9-5.8-.7-1.3-1.6-2.6-2.5-3.8-.4-.7-.9-1.3-1.3-1.9-.8-1.1-1.6-2.2-2.4-3.3s-1.6-2.2-2.5-3.2c-.3-.3-.6-.6-.9-.9-.3-.3-.7-.6-1.1-1-.2-.1-.3-.3-.4-.3-1-.9-1.7-1.8-1.7-1.7h0l.1-.1ZM79.2,83c.2-.3.3-.5.4-.7.3-.8.3-1.6.5-2.4,0-.4,0-.9-.1-1.3-.1-.3-.1-.4.2-.6.5-.3.8-.8,1-1.4.2-.8.3-1.6.4-2.3,0-.2,0-.4.3-.4.5-.2.9-.6,1.1-1.1.1-.3.2-.6.3-.9.3-.7.5-1.3.6-2,0-.3.1-.4.3-.6.2-.1.2-.2.2-.5v-6.8c0-1,.1-2,.2-3,0-1.2.2-2.3.3-3.5.1-1.2.3-2.3.4-3.5.2-1.5.5-2.9.8-4.4.2-1.2.5-2.4.9-3.6.5-1.7,1-3.5,1.5-5.2.5-1.8,1.2-3.7,2.1-5.4.6-1.2,1.5-2.3,2.1-3.2,1-1.4,2-2.7,2-2.7,0,0-1.7,2-2.3,2.3,0,0-.3.1-.5.4,0,0,0,.1-.1.2,0,.2-.3.4-.4.6-.3.3-.5.6-.8,1-.4.5-.9,1-1.3,1.4-.1.1-.3.3-.3.5-.4.9-1.1,1.7-1.6,2.5-.2.4-.5.8-.8,1.1-.2.2-.3.5-.4.8-.2.9-.4,1.8-.9,2.6-.1.2-.3.4-.3.6-.2.4-.3.7-.7,1-.3.3-.5.7-.5,1.1,0,1-.4,1.9-1.1,2.6-.3.2-.4.5-.4.8v2.3c0,.8,0,1.7-.6,2.5-.3.5-.4,1.1-.4,1.6v2.2c0,.7,0,1.3-.3,1.9-.2.5-.2,1.1-.7,1.4v2.6c0,.9-.1,1.8-.8,2.4v.4c0,.5.1.9.2,1.4.2,1.1,0,2.2,0,3.3,0,.6-.3,1.1-.6,1.6,0,.1-.2.3-.1.4,0,.7-.1,1.3-.2,1.9,0,.4-.2.8-.4,1.1-.4.5-.5,1.1-.4,1.7,0,.7.2,1.4.3,2.2,0,.2,0,.5.2.7.2.3.2.5.2.8v.9c0,1,.5,1.8,1.2,2.6h0l-.7.1ZM73.2,13c-.6,6.2-.7,8.6-.6,9.6v5.6c-.1,2,0,4,.2,6,.2,1.3.3,2.5.1,3.8v2.9c0,.7-.1,1.5-.1,2.2,0,1.2.2,2.3.4,3.5.2,1.2.4,2.4.5,3.6v1c0,.7.2,1.5.2,2.2,0,.5,0,1.1.1,1.6,0,1.4.2,2.8.2,4.1v5.8c0,1-.1,2-.2,3.1v1c0,.9,0,1.7-.1,2.6v4.4c0,.8,0,1.6.1,2.4.2,1.4.5,2.8.7,4.1.2,1.4.4,2.7.7,4.1.2,1.1.4,2.1.6,3.1,0,.2,0,.4.1.7,0,.6.2,1.1.3,1.7,0,.4.2.8.2,1.3.2-.3.4-.5.6-.7.7-.8,1.1-1.8,1.1-2.9s0-.9.5-1.3c0,0,0-.1.1-.2,1-1.5.8-3.1.2-4.7-.2-.4-.5-.8-.7-1.1-.2-.3-.5-.7-.6-1.1,0-.7-.3-1.3-.2-2v-.3c-.2-.8-.3-1.5-.5-2.2s-.2-1.5,0-2.2v-.8c-.2-.6-.4-1.2-.4-1.8-.1-1.3-.2-2.7,0-4.1v-1c-.1-.4-.2-.7-.2-1.1,0-1.2,0-2.3.2-3.5v-1c-.2-1.6-.4-3.2.2-4.8v-.5c-.3-.7-.3-1.5-.4-2.2-.2-1,0-1.9.2-2.9v-.5c-.3-1-.4-2.1-.6-3.1-.1-.6,0-1.3,0-1.9,0-.5.2-1,0-1.5-.2-.8-.4-1.5-.5-2.3s-.2-1.6-.2-2.4c0-.4,0-.8.2-1.2.1-.3.1-.5,0-.8-.4-1.2-.8-2.5-1-3.8,0-.5-.2-1.1-.2-1.6,0-.4,0-.7-.2-1-.1-.4-.2-.8-.3-1.3,0-.5-.1-1-.2-1.5,0-.9-.2-1.9,0-2.8v-.9c-.2-.5-.4-1.1-.5-1.7,0-.4-.1-.7-.2-1,0-.5-.1-1.1,0-1.6.1-.2,0-.2.1-.5.1-.7,0-1.2,0-1.2,0-.2,0-.5-.1-.8,0-.7-.2-1.5,0-2.5,0-.5.2-.6.2-1s0-.8-.2-1.1h.2ZM51.8,112.1c0,.2,0,.4.2.6.4.6.8,1.2,1.3,1.5.2.2.5.3.7.4.7.4,1.3.7,2.1.8.3,0,.5.2.7.5.4.5.8.9,1.4,1.2.6.3,1.1.6,1.7.8.4.2.8.3,1.2.4.6.1,1.1,0,1.7.3h.2c.5,0,.9-.2,1.4-.4.2-.1.2-.3.2-.5,0-.1-.1-.3-.2-.4-.6-.8-1.3-1.5-2.2-2.1-.3-.2-.6-.4-1-.6.3-.7,0-1.2-.4-1.6,0,0-.2-.2-.2-.3-.6-.8-1.3-1.6-2.1-2.2-.5-.4-1-.6-1.5-.7-.4,0-.8-.2-1.1-.4-.5-.4-1.1-.7-1.6-1h0c-1.1-.7-2.1-1.3-3.1-2.2-.3-.3-.6-.5-.8-.9-.2-.3-.3-.6-.6-.7-.2-.2-.4-.3-.6-.5-.4-.4-.9-.8-1.3-1.3-.4-.5-.8-1-.9-1.6,0-.2-.1-.3-.2-.4-.5-.6-1-1.1-1.6-1.6-.2-.2-.5-.4-.6-.6-.4-.7-.9-1.4-1.2-2.1-.2-.5-.5-1-.9-1.4-.3-.2-.5-.5-.8-.8-.5-.5-1-1-1.4-1.7-.2-.3-.3-.6-.4-.9,0-.3-.2-.5-.4-.6-.2-.2-.5-.3-.7-.5-.8-.8-1.6-1.7-2.5-2.5-.4-.4-.8-.9-.9-1.5,0-.1-.1-.2-.2-.3-.6-.4-1.2-.7-1.8-1.1-.4-.2-.8-.5-1.1-.8-.2-.1-.3-.2-.6-.4-.1.4,0,.6.2.9.5.7,1.1,1.5,1.7,2.1s1.2,1.2,1.8,1.7c.3.3.7.5.6,1v.3c.1.6.5,1.1.8,1.6.7.8,1.4,1.6,2.1,2.3.2.2.3.4.3.7s0,.6.2.8c.1.6.5,1.2.8,1.7.4.6.8,1.2,1.4,1.8.3.3.4.6.5.9.2.7.3,1.4.5,2,.4,1,.9,2,1.7,2.8.6.7,1.1,1.4,1.8,2,0,0,.1.2.1.3,0,.5.2,1,.5,1.4.5.7,1,1.2,1.7,1.7s1.3,1,2,1.4c.4.3.8.6,1.4.7h0ZM23.1,77.4c2.8,2.7,4.1,4.2,4.7,5,0,0,.3.4.6.8.6.8,1.2,1.5,1.8,2.3.4.5.7.9,1.1,1.4.2.3.5.7.7,1.1,0,0,0,.2.1.3.4.6.9,1.3,1.3,1.9.3.4.5.9.7,1.3s.5.9.7,1.3.4.9.6,1.3c.4.8.9,1.7,1.3,2.5.6,1.1,1.2,2.1,1.7,3.2.2.3.3.6.4.9.3.6.7,1.2,1,1.7.4.6.6,1.3,1.1,1.9.5.7.9,1.4,1.4,2.2.7,1,1.5,2,2.2,3,.4.6.9,1.2,1.4,1.7,1,1,2.1,2.1,3.2,3.1.2.2.4.3.6.4.7.5,1.3.9,2,1.4.6.5,1.2,1,1.8,1.4.8.5,1.6,1,2.4,1.5,1,.5,1.9,1,3,1.4.9.3,1.8.7,2.8.9.4,0,.9,0,1.3.1.7.1,1.4.2,2.2.1h1.7c1,.1,1.9.1,2.9-.2,0,0,0-.1-.1-.1-.4-.2-.8-.5-1.1-1-.4-.6,0,0,0,0l-.7-.7c-.6-.6-1.4-.9-2.2-1.1h-.4c-.4.3-.9.5-1.3.6-.5.1-1,.2-1.5,0-.1,0-.3-.1-.5-.1-.7,0-1.2-.2-1.8-.5-.9-.4-1.8-.8-2.6-1.4-.3-.2-.5-.5-.7-.7-.1-.1-.2-.2-.4-.3-.9-.3-1.7-.8-2.5-1.2-.9-.5-1.5-1.2-2.1-2-.2-.3-.4-.5-.7-.7-.7-.4-1.3-.9-2-1.3-.8-.6-1.6-1.2-2.2-1.9-.4-.5-.7-1.1-.9-1.7,0-.3-.2-.5-.4-.7-.6-.7-1.2-1.3-1.8-2.1-.4-.5-.7-1-1-1.5-.5-1-.7-2-1-3,0-.2-.1-.3-.2-.5-.5-.7-1.1-1.4-1.6-2.2-.6-.8-.9-1.7-1-2.6,0-.3-.2-.6-.4-.8-.6-.7-1.3-1.3-1.9-2-.5-.6-.9-1.2-1-2,0-.5-.2-.8-.6-1,0,0-.1,0-.2-.2-.8-.8-1.6-1.5-2.3-2.3-.6-.7-1.2-1.4-1.3-2.3,0-.1-.1-.2-.2-.3-.2-.2-.5-.3-.7-.5-.3-.2-.6-.4-.8-.6-.2-.2-.4-.4-.7-.6-.7-.7-1.5-1.3-1.9-2.2,0-.2-.3-.3-.5-.4-.5-.4-1-.5-1.2-.6-.5-.1-1.1-.4-2.1-1.3h0l-.2-.1ZM88.1,116.8c.7,0,1.2-.3,1.6-.8.7-.7,1.4-1.5,2.1-2.3.2-.2.3-.6.4-.9,0-.3.1-.4.4-.5.4-.1.8-.3,1.2-.6.4-.3.8-.7,1.1-1,.8-.7,1.3-1.6,1.5-2.7,0-.2.2-.4.4-.5.6-.3,1.1-.8,1.4-1.4.4-.6.7-1.2,1.1-1.9.4-.8.7-1.5,1-2.3.2-.4.2-.9,0-1.3-.2-.2,0-.3.2-.6.1-.1.3-.2.4-.4.4-.7.8-1.3,1-2.1,0-.3.1-.5.2-.8.2-1,.4-2,.2-3.1.6-.2.9-.7,1.1-1.3,0,0,0-.2.1-.2.4-.7.7-1.5.6-2.4,0-.2,0-.3.2-.3.5-.2.8-.7,1.1-1.2.6-1,1-2.2,1.1-3.3,0-.3.1-.5.4-.6.5-.3.9-.7,1.1-1.2s.4-1.1.5-1.6c0-.2.2-.4.4-.5.4-.4.7-.8,1.1-1.2.2-.2.4-.4.5-.7.3-.3.6-.7.8-1,.8-1.7,1.9-3.1,2.9-4.5.2-.2.3-.4.5-.7h0c-.2,0-.3,0-.5.2-.3.2-.5.3-.8.5-.5.2-.8.6-1.1,1-.2.3-.4.7-.7.9-.6.6-1.2,1.1-1.8,1.7l-.2.2c-.2.6-.6,1.1-1,1.6-.6.6-1.2,1.2-1.8,1.9-.2.2-.3.4-.4.6-.3,1.1-.8,2.1-1.7,2.9-.1.1-.2.3-.3.4-.1.4-.3.9-.4,1.3-.2,1-.6,1.9-1.3,2.6,0,0-.2.2-.2.3-.1,1-.5,1.8-.8,2.7-.3,1-.8,1.8-1.5,2.6-.4.5-.6,1-.8,1.6-.2.8-.5,1.6-.7,2.4s-.6,1.5-1.2,2c-.4.4-.7.8-.7,1.4v.2c-.2.6-.4,1.2-.7,1.7-.3.7-.8,1.3-1.4,1.8-.4.2-.6.6-.8.9,0,.2-.2.4-.3.6-.3.4-.5.8-.8,1.2l-.9.9c-.3.5-.7,1-1,1.5-.2.3-.3.6-.3,1-.1.6-.2,1.3-.9,1.7l-.2.2c-.7.7-1.2,1.4-1.6,2.3,0,.2-.1.3-.3.3-.6,0-.9.4-1.3.7-.4.4-.7.9-1.2,1.2-.1,0-.2.2-.4.3-.2.2-.4.5-.6.8h1.2c.5,0,.9-.2,1.4-.4.8-.4,1.5-1,1.6-2.1h0l-.2.3ZM79.8,120.2c.3.1.9.3,1.7.2.2,0,.8-.2,1.4-.6.4-.3.6-.7,1-1.1.3-.4.7-.7,1-1.1l.9-.9c.4-.4.8-.8,1.4-1,.2,0,.2-.2.3-.3.3-.5.6-1,1-1.5.3-.4.7-.7,1-1.1.2-.2.4-.3.5-.6,0-.2,0-.5.2-.7,0-.2,0-.4.2-.6.2-.4.4-.9.7-1.3.3-.4.4-.9.8-1.2v-.1c0-.3.2-.7.2-1,.2-.7.4-1.5.8-2.1.1-.2.2-.5.2-.7,0-.3.1-.6.2-.9.2-.8.3-1.6.8-2.3v-.4c0-.7,0-1.3.2-2,.1-.9.3-1.7.6-2.6.2-.4.2-.8.2-1.3,0-.8,0-1.6.2-2.3,0-.4,0-.8.2-1.2.2-.6.3-1.1.3-1.8,0-1.4.2-2.8.6-4.2.2-.5.3-1,.1-1.5v-.4c0-1,.1-1.9.2-2.9v-.2c.3-.8.6-1.5.4-2.4v-.2c0-.8.2-1.5.4-2.3,0-.3.2-.6.3-.8.2-.2.2-.3.2-.5,0-.4-.1-.7-.2-1.1-.1-1.2-.2-2.4,0-3.6.2-.7.3-1.3.6-1.9.3-.8.5-1.6.5-2.4,0-1.2.2-2.4.8-3.5,0-.1.1-.3,0-.4-.2-1.3,0-2.7.3-4,.2-.8.5-1.5.9-2.2.4-.6.6-1.2.8-1.5.9-1.7,2.2-3.3,2.9-4.1-1.6,1.5-2.6,3-3.3,4.1-.8,1.2-1.2,2.2-1.5,2.8-.5,1.2-1,2.5-1.3,3.8-.6,2.1-.9,4.3-1.3,6.5,0,.5-.1,1-.2,1.5-.2,1.1-.5,2.1-.7,3.2-.2.9-.3,1.8-.5,2.8-.2,1.1-.4,2.2-.6,3.4-.2,1.4-.5,2.8-.6,4.2v.1c-.1.7-.2,1.5-.3,2.2-.1.9-.2,1.8-.3,2.7-.2,1.2-.4,2.4-.5,3.6-.2,1.1-.3,2.1-.5,3.2,0,.5-.2,1-.3,1.5-.2.9-.3,1.9-.4,2.8-.1.7-.4,1.4-.5,2.1-.1.6-.2,1.1-.4,1.7-.5,1.5-1.1,3-1.6,4.5-.5,1.3-.9,2.7-1.6,4-.4.8-.9,1.7-1.4,2.5-.9,1.2-1.8,2.5-2.6,3.7-1.5,2.2-2,2.8-3,3.2-.6.2-1.1.2-1.5.2h0l.1.3ZM25,48.5s1.3,1.3,2.1,1.9c0,0,.3.2.6.5.3.2.5.5.8.7.6.7,1.1,1.4,1.7,2.2s1.2,1.4,1.7,2.1c1.1,1.6,2.2,3.2,3.4,4.8.3.5.6.9.9,1.4.9,1.3,1.7,2.7,2.5,4.2.4.8.8,1.6,1.1,2.4s.6,1.7,1,2.5c.6,1.5,1.3,3.1,1.9,4.6.2.4.3.7.5,1.1.6,1.2,1.1,2.5,1.7,3.8.3.7.6,1.3,1,2,.4.8.8,1.5,1.2,2.3.7,1.3,1.5,2.6,2.5,3.7,0,0,.2.1.3.2v-.8c0-1.6-.2-3.2-.5-4.8,0-.4-.3-.8-.3-1.2,0-1.3-.2-2.6-.4-3.8,0-.2-.1-.4-.3-.5-.2-.2-.2-.3-.2-.6s.1-.6.1-.8v-1.1c0-.7-.2-1.4-.6-2,0-.1-.2-.3-.3-.4-.6,0-1.1-.5-1.5-.8-.3-.2-.6-.5-.8-.8-.2-.2-.3-.4-.5-.5-.5-.3-.9-.7-1.3-1.2-.4-.6-.9-1.1-1-1.8,0,0,0-.2-.2-.3-.3-.4-.6-.7-.9-1.1-.7-.8-1.4-1.7-1.6-2.8-.2-.2-.5-.3-.7-.5-.7-.7-1.5-1.4-1.9-2.3,0-.2-.2-.4-.3-.7,0-.3-.2-.4-.4-.6-.4-.3-.9-.6-1.3-.9-.7-.5-1.2-1.2-1.7-2-.5-.7-.9-1.4-1.5-2-.3-.3-.6-.6-.9-.9-.7-.9-1.4-1.9-2.1-2.8l-.3-.3c-.7-.4-1.2-.7-1.4-.8-1.3-.5-2.1-1.4-2.1-1.3h0ZM76.1,122.4h0c.3.1.9-.1,1-.2.3-.2.3-.3,1.3-1.3.2-.2.3-.3.5-.6,0-.2.2-.4.2-.6,0-.4.4-.8.3-1.2v-.2c.3-.3.5-.7.8-1,.4-.4.8-.8,1.2-1.1.2-.2.2-.3.2-.5,0-.4,0-.9.2-1.3.5-1.1,1-2.2,1.7-3.2.2-.3.5-.7.4-1.1v-.2c.4-1.2.8-2.4,1.5-3.5.2-.2.3-.5.4-.7,0-.2.2-.5,0-.7s-.2-.6-.2-.9c0-.4,0-.8.2-1.1.2-.9.4-1.8.5-2.8v-2.2c-.1-.3-.3-.7-.3-1,0-.4-.1-.8-.2-1.3,0-.3,0-.6.2-.9s.2-.7.2-1c0-.4-.2-.9-.2-1.3v-1.6c0-.3.3-.6.3-.8,0-.3-.2-.6-.3-.9-.1-.6-.2-1.2-.3-1.7-.1-1-.2-2,.3-3v-.4c0-.5-.2-.9-.2-1.4v-2.3c0-.5,0-.9.4-1.3.2-.3.2-.5.2-.8-.2-.8-.2-1.5,0-2.3.2-.9.3-1.8.6-2.7v-1.7c0-.7.2-1.3.3-1.9.1-.5.2-1,.7-1.3,0-.6-.1-1.3-.1-2.1,0-1.6.4-2.8.8-3.7-.4.9-.6,1.7-.8,2.2-.1.5-.3,1.3-.6,2.2,0,.3-.1.5-.2.8-.3,1.1-.7,2.2-1.1,3.4,0,.3-.2.5-.2.8-.2.8-.3,1.7-.5,2.5,0,.5-.2,1-.3,1.4,0,.8-.2,1.6-.2,2.4,0,1.3-.1,2.6-.2,3.9v4.9c0,1.4.2,2.9.2,4.3s0,2.4-.2,3.7c0,1.5-.2,3-.3,4.4,0,.7-.2,1.4-.3,2.1-.1.8-.2,1.6-.4,2.3-.2.9-.5,1.8-.7,2.7-.4,1.5-.8,2.9-1.4,4.4,0,.2-.2.4-.2.6-.3,1-.7,2.1-1.1,3.1,0,.2-.2.5-.3.7-.2.3-.3.7-.5,1-.3.8-.7,1.6-1,2.3-.4.8-.9,1.6-1.4,2.4-.2.4-.4.8-.6,1.1h0l-.3.2ZM110.7,79.4c-.9.8-1.4,1.6-1.7,2.2-.2.4-.4.7-.4.7-.2,1-.7,1.8-1.5,2.5-.2.2-.3.4-.4.6-.2.8-.4,1.6-.7,2.3-.3.8-.7,1.6-1.4,2.2,0,0-.2.2-.2.3,0,.4-.1.7-.2,1.1-.2.9-.6,1.7-1.2,2.4-.3.3-.4.6-.5,1-.2.9-.3,1.8-.5,2.7-.2,1.1-.7,2-1.3,2.9,0,.1-.1.3-.1.5v1.1c-.4,1-.8,1.9-1.2,2.8-.2.5-.5.9-.8,1.4-.4.7-.9,1.3-1.5,1.8-.2.2-.4.3-.4.6-.2.8-.7,1.4-1.2,2.1-.3.4-.7.8-1.1,1.1-.4.5-.9.9-1.6,1.1-.2,0-.3.2-.3.4-.2.3-.3.6-.5.8-.5.6-1,1.1-1.5,1.7s-1.1,1.1-1.8,1.4c-.1,0-.3.2-.3.3-.2.6-.7,1-1.1,1.4s-1.1.7-1.7.8c-.7.1-1.5,0-2.2.5-.3.2-.7.3-1.1.5s-.8.2-1.2.1c-.5-.1-1.1-.2-1.6-.3-.1.2-.3.4-.4.7.6.3,1.2.5,1.8.3.7-.3,1.3-.4,2-.4.8,0,1.6-.2,2.4-.3.4,0,.7,0,1.1-.1,1.1-.2,2.1-.6,3.1-1.2.6-.4,1.2-.6,1.8-1,1.3-.9,2.4-2.1,3.5-3.2.8-.8,1.5-1.6,2.1-2.5,1.1-1.6,2.2-3.1,3.1-4.9.4-.9.9-1.7,1.3-2.5.5-1.1,1.1-2.2,1.6-3.3.4-1,.8-2,1.2-3,.3-1,.7-1.9.9-2.9.4-1.4.7-2.8,1.1-4.2.7-2.3,1.6-4.6,2.5-6.8.3-.7.5-1.2.6-1.4.7-1.6,1.4-3,1.9-4h0l-.4-.3ZM84.6,68.3h0c.3-.5.6-1,.5-1.5,0-.5.2-.8.5-1.1l.9-.9c.2-.2.2-.4.2-.7-.1-1-.2-2,0-2.9.1-.8.2-1.7.3-2.6,0-.4,0-.7.4-.9.3-.2.4-.5.3-.9-.1-.8-.1-1.6,0-2.4,0-.4,0-.9.2-1.3v-.1c0-.5-.1-1-.3-1.5-.2-.6-.1-1.1.2-1.6.2-.3.2-.6.2-1-.2-1.3,0-2.6.4-3.8v-2.2c.1-.9.3-1.7,1.1-2.3.2-.2.2-.4.2-.6,0-.5,0-1,.2-1.6,0-.3.1-.7.2-1,.2-.5.2-1.1.8-1.4,0,0,0-.2.1-.3.2-.6.3-1.2.5-1.8.3-.7.6-1.5,1.2-2,.2-.2.3-.4.3-.7,0-.4.3-1.4.7-2.2.2-.5.5-1.2,1-2-.5.7-1.3,1.9-2.2,3.3-1.6,2.4-2,3-2.5,4s-.9,2-1.2,3.1c-.7,2.2-1.3,4.4-1.9,6.7-.4,1.3-.7,2.7-1,4.1-.2.7-.2,1.4-.3,2.1-.2,1.1-.3,2.2-.4,3.3-.1,1-.3,2-.4,3.1,0,.6,0,1.2-.2,1.7-.2,1.6-.3,3.1-.2,4.7.1,1.5.2,3,0,4.4v.9h0l.2-.1ZM55.7,36.4s.9,1.4,1.9,3.2c.5.9.8,1.7,1.3,3.1.4,1,.8,2,1.2,3,0,.2.2.4.3.7.3,1,.9,1.9,1.2,3,.2.7.5,1.3.7,1.9.4,1.1.7,2.3,1,3.4.1.4.1.8.2,1.3.2.8.2,1.7.5,2.4v1.5c0,.8.2,1.5.2,2.2,0,.8.2,1.7.3,2.6.2,1.3.5,2.5.6,3.8.2,1.2.5,2.3.8,3.5,0,.1,0,.3.3.3.6-.8.9-1.6.6-2.6,0-.2,0-.4.1-.6.3-.4.5-.8.6-1.2v-2.2c0-.5-.3-1.1-.3-1.7,0-.2-.2-.5-.3-.7-.3-.6-.4-1.2-.3-1.9,0-.2,0-.4-.1-.6-.1-.3-.3-.7-.5-.9-.3-.5-.4-1-.4-1.6v-.4c0-.5-.1-.9-.3-1.3-.7-1.3-1.2-2.6-1.1-4,0-.7-.3-1.1-.7-1.6-.7-.8-1-1.7-1.2-2.7,0-.5-.2-.9-.5-1.2-.4-.5-.7-1.1-.9-1.7-.3-.6-.5-1.3-.8-1.9-.3-.6-.5-1.2-.5-1.9s-.1-.3-.2-.4c-.2-.2-.4-.5-.6-.7-.4-.5-.6-1-.8-1.5-.2-.6-.3-.6-.4-.7-.3-.4-1-.7-1-.7-.8-.4-1.1-1.1-1.1-1h0l.2-.2Z" fill="#1e1e1c" stroke="#010101" stroke-miterlimit="10" stroke-width=".5"/></svg>