<?xml version="1.0" encoding="UTF-8"?><svg id="Layer_1" xmlns="http://www.w3.org/2000/svg" viewBox="0 0 144.57 144.57"><path d="M101.59,73.32c-.24.37-.42.65-.63.98-3.06-1.77-6.07-3.5-9.07-5.23-1.5-.87-3.03-1.7-4.51-2.61-.64-.4-1.13-.36-1.76,0-7.02,4.05-14.05,8.08-21.07,12.12-.47.27-.83.43-1.39.1-4.21-2.45-8.43-4.87-12.65-7.29-.15-.08-.28-.19-.48-.34.17-.3.32-.58.53-.95.32.16.59.27.84.42,3.87,2.23,7.74,4.44,11.58,6.7.57.33.99.37,1.57.03,6.04-3.5,12.09-6.98,18.16-10.43.62-.35.84-.74.84-1.44-.03-4.97-.02-9.93-.02-14.9,0-.4,0-.8,0-1.22.9-.31,1.25-.13,1.25.81-.03,4.73-.01,9.46-.01,14.18,0,.37,0,.74,0,1.38,1.16-.89,2.26-1.27,3.45.19v-16.64c.46-.02.81-.04,1.29-.07,0,.46,0,.83,0,1.19,0,4.97.02,9.93-.02,14.9,0,.8.21,1.27.94,1.68,3.45,1.92,6.86,3.91,10.29,5.87.26.15.51.32.88.55Z"/><path d="M46.42,72.31c-1.82.31-1.81.29-2.69-1.09-1.91-3.01-3.86-6-6.01-8.96v10.11h-1.7v-13.07c1.55-.41,1.81-.33,2.61.91,1.97,3.05,3.93,6.1,6.09,9.13v-10.15h1.7v13.11Z"/><path d="M115.67,80.04c-.05,1.49-.87,3.75-3.26,5.03-2.25,1.21-4.63,1.18-6.8-.23-2.67-1.74-3.23-4.44-2.79-7.36.4-2.72,1.91-4.67,4.68-5.29,4.96-1.11,8.21,2.22,8.17,7.86ZM114.01,78.95c-.16-.79-.24-1.62-.5-2.38-.66-1.93-2.34-3.07-4.37-3.06-1.93,0-3.49,1.1-4.22,2.96-.55,1.4-.61,2.84-.21,4.28.73,2.63,2.97,3.96,5.63,3.36,2.23-.5,3.58-2.45,3.67-5.17Z"/><path d="M93.03,39.72c0,5.15-4.1,8.23-8.83,6.57-2.34-.82-3.53-2.63-4.01-4.98-.6-2.91.53-6.11,2.76-7.48,2.2-1.35,4.55-1.43,6.8-.24,2.41,1.27,3.26,3.51,3.28,6.13ZM91.32,39.57c-.04-.3-.09-.84-.19-1.37-.41-2.21-2.13-3.7-4.4-3.83-2.08-.12-3.88,1.13-4.56,3.21-.45,1.39-.48,2.79-.04,4.2.79,2.5,2.92,3.74,5.47,3.18,2.31-.5,3.72-2.46,3.72-5.39Z"/><path d="M15.46,59.18h1.6v5.66h6.91v-5.64h1.66v13.18h-1.58v-5.82h-6.92v5.8h-1.66v-13.18Z"/><path d="M119.38,77.92h6.9v-5.67h1.65v13.18h-1.61v-5.86h-6.91v5.86h-1.64v-13.18h1.62v5.68Z"/><path d="M29.04,74.43h4.81c.02.47.04.83.06,1.25h-6.35c-.1-1.69.65-2.91,2.02-3.79.8-.52,1.67-.94,2.41-1.52.61-.47,1.05-1.22.62-1.96-.3-.52-.87-1.02-1.43-1.21-.7-.25-1.44.04-1.81.77-.21.42-.3.9-.46,1.4h-1.06c-.21-1.46.48-2.67,1.78-3.17,1.45-.55,3.18-.07,3.93,1.09.81,1.25.67,2.76-.51,3.77-.71.61-1.6,1.02-2.4,1.52-.68.42-1.41.81-1.6,1.85Z"/></svg>