<?xml version="1.0" encoding="UTF-8"?><svg id="Layer_1" xmlns="http://www.w3.org/2000/svg" viewBox="0 0 144.57 144.57"><path d="m98.63,57.2c-.03.12-.07.22-.15.31q.17-.07.16-.23s0-.05,0-.08Z"/><path d="m99.18,57.37c.13-.03.13-.03.12-.11-.04.03-.11.03-.12.11Z"/><path d="m41.16,64.84c3.2.2,6.47-.61,9.74-1.35,1.46-.33,2.93-.65,4.44-.71,1.94-.07,3.81.19,5.43,1.37.43.32.87.64.99,1.22.03.15.16.2.26.28,2.11,1.62,3.3,5.01,1.51,7.68-.09.13-.17.26-.24.41-1.22,2.62-3.3,4.42-5.62,6.02-1.54,1.06-3.23,1.65-5.07,2.04-3.4.71-6.68.35-9.94-.68-.26-.08-.52-.29-.83-.1-.08.05-.19,0-.23-.07-.21-.4-.65-.45-1-.64-1.74-.92-3.4-1.93-4.46-3.66-1.18-1.92-1.55-3.99-1.15-6.19.09-.53.18-1.05.15-1.6-.04-.73.14-1.42.43-2.09.45-1.04,1.24-1.61,2.36-1.76,1-.13,2.01-.08,3.22-.16Zm5.82,15.95c.11-.46-.06-.96.13-1.48.09.38.17.71.26,1.03.09.32.12.7.66.52-.02-.45-.15-.91,0-1.33.18,0,.22.08.25.16.12.31.24.63.35.94.06.15.1.31.31.29.23-.02.21-.19.22-.35.01-.16-.03-.34.1-.49.23.18.22.43.32.62.07.13.15.22.31.21.17-.01.21-.13.23-.27.02-.1-.02-.23.18-.28.11.48.45.49.86.39.48-.11.97-.2,1.46-.26,2.7-.38,4.81-1.85,6.77-3.62.19-.17.33-.38.28-.65-.16-.93-.18-1.87-.39-2.79-.02-.1-.03-.22-.19-.21.17,1.14-.07,2.24-.39,3.45-.24-.84-.18-1.6-.45-2.45-.05,1.02-.09,1.9-.31,2.75-.2-.74-.22-1.5-.47-2.31-.17.74-.17,1.42-.41,2.15-.33-.89-.42-1.75-.65-2.64-.46.27-.12.63-.18.91-.07.3-.04.62-.07.94-.03.32-.07.63-.1.95-.27-.65-.42-1.3-.59-1.94-.13-.49-.14-.49-.7-.28-.05.37.07.79-.27,1.12-.42-.35-.45-.83-.58-1.32,1.02-.27,1.98-.69,2.94-1.28-.63-.25-.88-.88-1.53-.87.46-.39.76.16,1.19.15.18-.35.46-.48.87-.31.31.14.56-.03.77-.28-.28-.45-.84-.63-1.05-1.15.37.2.72.43,1.03.7.32.28.58.3.82-.06-.12-.38-.66-.39-.75-.87.42-.11.65.18.89.38.33.28.54.2.72-.12-.14-.34-.56-.45-.62-.85.35-.03.49.21.67.35.16.12.26.29.52.17.32-.15-.05-.39.1-.57.24-.01.49.11.68-.14.52-.68,1-1.35.95-2.28-.05-1.05-.32-1.42-1.56-1.63-.13-.02-.27,0-.4,0-1.24,0-2.45.2-3.66.47-1.07.23-2.07.66-3.14.98.17.22.48.23.46.51-.09.19-.29.11-.43.22.06.13.33.09.25.32-.35.21-.71.26-1.08.06-.24-.13-.46-.11-.71-.06-.71.14-1.42.21-2.13,0-.92-.29-1.89-.37-2.83-.55-1.38-.27-2.77-.15-4.15-.3-.15-.02-.31.03-.46.06-.67.17-1.34.35-2.01.53-.93.25-1.73.71-2.38,1.44-.13.14-.21.34-.48.4.04-.61.54-.92.88-1.34-.23-.07-.34.03-.46.08-1.36.6-1.82,1.99-1.08,3.27.52.9,1.41,1.35,2.32,1.76.15.07.32.08.39-.11.06-.16.13-.35-.08-.47-.18-.1-.35-.21-.54-.27-.49-.16-.84-.5-1.19-.85-.34-.34-.56-.76-.66-1.23-.03-.16-.02-.34.16-.4.2-.06.28.11.31.27.19,1.07,1.07,1.46,1.89,1.92.34.19.57.12.79-.19.15-.22.3-.5.69-.47-.01.46-.52.6-.53.99.07.1.17.14.28.18.27.09.54.3.83.24.3-.06.26-.44.43-.64.07-.08.12-.19.2-.27.14-.13.28-.31.5-.12-.16.48-.92.79-.34,1.46-.48-.04-.49.34-.43.59.09.35.41.2.65.2q.37-1.45.84-1.5c-.17.53-.44,1.02-.38,1.6.28.08.51.1.74.02.3-.49.07-1.18.76-1.62-.12.5-.3.86-.35,1.25-.05.45-.01.52.44.53.85.02,1.7.03,2.55.03,1.61,0,3.22-.19,4.83-.28.24-.01.49-.08.76.04.16.53.32,1.07.04,1.65-.45-.32-.29-.95-.77-1.28-.24.62.1,1.28-.25,1.87-.44-.45-.43-1.04-.7-1.54-.2.69.1,1.44-.27,2.16-.3-.49-.34-.98-.39-1.46-.02-.18.07-.46-.24-.45-.34.01-.19.28-.18.46.04.48-.03.94-.19,1.4-.35-.52-.48-1.1-.67-1.79-.24.63-.05,1.22-.38,1.78-.23-.34-.22-.67-.35-.94-.12-.25.01-.63-.41-.8-.21.73.07,1.5-.36,2.22-.13-.35-.38-.35-.67-.33-.36.02-.39.34-.53.58-.31-.44-.56-.49-.95-.21-.06.04-.09.22-.17.14-.44-.44-.94.06-1.4-.1-.22-.08-.37.09-.4.33-.03.25.09.38.32.42.33.06.67.1.99.18.54.13,1.13.08,1.68.33-.24.1-.5-.01-.68.17.1,1.33.15,1.39,1.33,1.4Zm8.17-15.29c1.75-.38,3.45-.69,5.19-.76-.02-.21-.17-.24-.28-.31-1.03-.66-2.18-.91-3.38-.98-1.65-.1-3.25.21-4.86.5-.76.14-1.25.52-1.63,1.14-.19.31-.33.67-.68.98-.08-.64.17-1.12.41-1.66-.34.07-.63.12-.9.19-2.37.59-4.79.92-7.22,1.15-1.01.09-2.02.07-3.02.09-.62.02-1.21.13-1.73.47-.27.18-.56.4-.42.85.22-.29.41-.52.69-.6.36.21-.38.84.38.83.13-.16-.05-.45.25-.49.3.07.04.39.24.49.33-.12.33-.12.7-.09.23.02.45.01.66-.07,1.09-.43,2.23-.44,3.37-.48,1.25-.04,2.5-.12,3.75-.22,1.03-.08,2.05-.14,3.08-.2.36-.02.72,0,1.1.28-.7.13-1.32.25-1.95.37,2.63.18,5.19-.15,7.75-1.05-.22-.08-.35-.03-.48,0-.99.2-1.95.51-2.95.66-.25.04-.47.06-.7-.18.73-.31,1.51-.35,2.12-.85-1.48.41-2.98.44-4.54.33.53-.09.62-.52.83-.85.18-.29.39-.55.7-.71.24-.12.42-.09.53.22-.4.26-.79.52-.92,1.05.48.05.82-.03.98-.52.08-.25.26-.47.41-.69.11-.15.26-.26.46-.04-.05.37-.52.6-.47,1.03.35.11.53-.04.68-.31.13-.24.28-.46.54-.59.17-.09.36-.09.47.1.11.18-.02.28-.17.36-.06.03-.17.09-.05.21.64-.02,1.2-.55,1.91-.38-.22.31-.63.34-.83.74Zm5.54,9.41c-.26-.81-.26-1.61-.62-2.3-.25.07-.35.15-.25.39.24.57.24,1.17.18,1.78-.05.49-.08.98-.12,1.61.92-.87,1.62-1.71,2.22-2.62.08-.11.14-.24.11-.38-.14-.7-.3-1.4-.48-2.26-.28.63.02,1.1-.02,1.58-.04.5-.05.99-.34,1.46-.09-.47-.18-.94-.26-1.42-.1.7-.11,1.41-.42,2.15Zm-18.85,3.92c-.04.82-.02.85.6,1.03.21.06.43.14.64.18.71.14,1.4.43,2.17.5.02-.41.21-.75.09-1.23-1.16.01-2.34,0-3.51-.47Zm-4.38-4.01c-.44,1.34-.33,2.15.64,2.72-.26-.88.03-1.87-.64-2.72Zm8.94,2.44c.76.08.79.05.76-.56-.01-.22-.04-.44-.05-.67,0-.23-.13-.31-.34-.31-.25,0-.37.1-.37.36,0,.39,0,.79,0,1.17Zm-6.27,1.72c.09-.42-.03-.74-.06-1.06-.06-.69-.07-.69-.86-.89.15.72-.05,1.56.92,1.95Zm-.45-5c.3.1.55.2.8.26.27.06.54.2.83.16q.12-.67-.42-.8c-.17-.04-.35-.08-.52-.12q-.47-.1-.7.51Zm2.09,3.24c.42.06.74.12,1.06.09.03-.68.02-.67-.55-.75-.53-.07-.41.31-.51.66Zm-5.04-4.21c-.48,1.35-.45,2.02.08,2.62-.27-.87-.07-1.75-.08-2.62Zm6.35,5.61c-.08-.69-.46-.85-1.39-.66.32.53.87.46,1.39.66Zm2.87-1.58c0-.23-.02-.44-.31-.41-.25.02-.32.2-.33.43,0,.21.06.33.3.34.27,0,.37-.12.34-.35Zm-5.85-.34c.05-.55-.03-.69-.42-.74-.12-.02-.23-.01-.28.12-.04.11-.05.23.05.31.17.15.37.25.64.32Zm.65,1.53c.09.41-.07.91.46,1.25.09-.59.12-1.04-.46-1.25Zm21.92-5.37c.53-.51.19-.98,0-1.46v1.46Zm-16.75,3.24c-.02-.16.04-.36-.22-.39-.25-.03-.3.12-.3.32,0,.2-.02.42.26.44.25.01.26-.18.26-.37Zm-7.15,1.68c-.11-.41.27-.94-.29-1.35-.04.52.06.94.29,1.35Zm5.23-.43c-.12-.25.06-.61-.33-.66-.27-.04-.24.19-.25.37-.02.38.22.37.58.29Zm-1.72-2.05q-.2.73.39.68-.02-.41-.39-.68Zm-2.43-.64q-.25.51.25.68.25-.52-.25-.68Zm1.37,2.45c0-.27.3-.53-.09-.71-.18-.09-.27.05-.34.21-.13.33.04.44.42.5Zm-3.74-3.54c.08.27-.23.51.1.72.15.09.22-.05.29-.18.16-.29.09-.45-.38-.55Zm7.11,3.13c-.2.14-.21.32-.21.49,0,.19.13.21.27.2.14-.01.2-.1.16-.23-.04-.15-.05-.31-.23-.46Zm-3.35-1.65q-.2.53.17.7c.03-.24.22-.48-.17-.7Zm18.49-3.47c.28.13.43-.01.55-.21.01-.02-.02-.09-.04-.11-.23-.14-.35.04-.48.18-.01.01,0,.04-.03.13Zm-1.9.94c.41.24.6.06.85-.17-.35-.19-.55,0-.85.17Zm-.95.45c.37.25.55.1.78-.11-.29-.21-.49-.08-.78.11Zm-18.35,2.61c-.14.18-.12.35-.02.54q.37-.27.02-.54Zm20.93-3.68c-.49-.11-.52-.09-.54.29.24.01.4-.09.54-.29Zm1.84-1.42q.5-.36.54-.72c-.18.22-.41.32-.54.72Zm1.94-.86q-.2.26.04.8c.06-.28.05-.53-.04-.8Zm-27.05-1.86c-.11.21-.21.37-.13.6.35-.11.49-.26.13-.6Zm24.89,2.91c-.26,0-.46.09-.55.4.34.02.46-.17.55-.4Z"/><path d="m41.01,68.2c.09-.21.29-.2.45-.22,1.63-.21,3.25-.25,4.84.23,1.18.36,2.41.46,3.64.48-.82.45-1.7.5-2.59.31-.87-.19-1.74-.42-2.61-.59-1.04-.19-2.09-.16-3.14-.18-.2,0-.4.05-.6-.04Z"/><path d="m56.73,67.18c.71-.65,1.6-.72,2.51-.71.49,0,1.02-.06,1.37.47-1.31-.19-2.59-.1-3.88.23Z"/><path d="m49.51,73.93c-1.04.38-2.13.14-3.18.29-.1.01-.21-.07-.32-.1-.57-.14-.6-.12-.82.51-.3-.42-.19-.75.1-1.17.21.42.52.44.88.46,1.11.07,2.23-.02,3.34.02Z"/><path d="m60.66,68.72c-.08-.45.02-.85-.18-1.24.41-.18.57.03.67.32.14.38,0,.63-.49.92Z"/><path d="m39.5,71.78c-.7-.16-1.29-.45-1.59-1.23.49.04.58.43.83.6.27.18.51.42.76.63Z"/><path d="m52.39,86.11c.9,0,1.79.04,2.67.27,1.69.45,2.96,1.44,3.81,2.97.13.23.25.37.53.44,1.16.29,1.97,1.02,2.49,2.09.49,1,.68,2.08.81,3.18.84,6.95-3.22,15-10.75,18.28-2.47,1.08-5.06,1.44-7.75,1.14-1.21-.13-2.39-.36-3.52-.81-1.66-.65-2.98-1.7-3.91-3.24-.28-.45-.6-.87-.77-1.38-.06-.2-.21-.41-.37-.55-1.02-.89-1.47-2.08-1.71-3.35-.4-2.07-.44-4.14.2-6.18.43-1.36,1.07-2.61,1.9-3.76,1.86-2.6,4.28-4.55,7.01-6.17,2.36-1.39,4.84-2.42,7.56-2.83.6-.09,1.21-.06,1.81-.09Zm7.98,18.08c-.13-.09-.17-.27-.35-.32-.25.19-.12.55-.31.76-.58-.22-.08-.93-.56-1.17-.33.15-.39.39-.31.72.16.61.18,1.24.08,1.86-.03.18,0,.37,0,.55.61-.76,1.18-1.5,1.44-2.42.5-.62.64-1.38.89-2.1-.49.62-.99,1.24-.88,2.11Zm-7.14,6.19c.09-.69-.17-1.31-.31-1.95-.18.03-.23.08-.23.15.05.51.19,1,.18,1.52,0,.24.17.28.38.26-.25.19-.37.43-.39.74-.01.33-.09.64-.29.97-.24-.35-.06-.72-.25-1.01-.51.08-.75.66-1.3.6-.11-.01-.18.17-.22.31-.03.15-.03.32-.2.41-.13-.12-.06-.44-.37-.39-.25.04-.38.19-.44.44-.06.25.01.56-.25.78-.12-.21-.08-.4-.12-.57-.02-.13-.04-.28-.22-.27-.12,0-.22.09-.23.21-.02.35-.23.67-.16,1.04,3.34-.47,7.85-3.38,9.81-6.52-.42-.98-.4-2.03-.77-2.97-.27.14-.17.31-.12.48.23.81.29,1.63.2,2.46-.02.13.04.32-.22.36-.22-.83-.29-1.69-.57-2.52-.34.18-.26.37-.19.6.26.86.41,1.74.29,2.65-.02.14,0,.3-.2.36-.35-.93-.27-1.95-.71-2.83.07,1.06.21,2.1-.1,3.26-.31-.9-.34-1.76-.61-2.57-.31.28-.29.27-.24.55.2,1.02.24,2.02-.22,3.1-.27-1-.27-1.94-.51-2.83-.28.33-.01.66,0,.98.02.36,0,.72-.07,1.07-.08.34-.15.68-.34.96-.34-.27-.11-.73-.44-1.1-.04.77-.08,1.43-.37,2.1-.17-.29-.02-.6-.22-.82Zm-13.16-1.61h-.01c.27.13.57.1.86.13.33.03.5-.08.49-.45,0-.31-.02-.65.27-.96.25.36.11.7.14,1.02.02.2.06.36.3.36.22,0,.33-.09.33-.32,0-.14-.05-.31.18-.43.09.39.21.77.74.69-.3.08-.53.19-.56.52-.11-.08-.17-.11-.21-.15-.19-.16-.39-.09-.56,0-.11.06-.11.19-.08.3.09.25.31.21.51.22.11,0,.22,0,.34,0,.78,0,1.55-.15,2.32-.2-1.72.45-3.44.74-5.16,0,.52-.02,1.02.27,1.56.15.06-.31-.05-.42-.35-.42-.89.01-1.73-.18-2.52-.62-.07-.04-.21-.1-.24-.07-.29.25-.37,0-.48-.18-.07-.11-.07-.27-.28-.3-.09.54.21.89.59,1.17.57.42,1.22.67,1.89.85,1.74.48,3.49.42,5.26.14,2.92-.46,5.66-1.44,8.04-3.2,2.76-2.04,5.07-4.53,6.81-7.52.31-.54.67-1.07.6-1.74,0-.08.03-.2.09-.24.33-.24.33-.62.41-.96.15-.62.28-1.25.43-1.97.14.38.08.68.07.96-.02.49-.31,1,.19,1.43.06.06.01.26,0,.39-.09.78-.29,1.54-.48,2.3-.09.36-.05.67.07,1.03.14-.15.16-.29.19-.42.32-1.36.48-2.74.39-4.13-.09-1.32-.24-2.63-.76-3.87-.28-.68-.73-1.22-1.35-1.63-.57-.38-1.11-.39-1.68.01-.67.48-1.4.89-2.11,1.32-.64.38-1.29.75-1.94,1.29,1.23-.23,2.18-.86,3.3-1.37-.15.4-.37.52-.57.66-.54.37-1.12.67-1.75.85-.88.26-1.63.73-2.24,1.42-.14.15-.26.35-.47.38-.15-.18.08-.33-.05-.47-.82.67-2.05,2.15-2.52,3.05.31.13.64.21.91.39.52.34,1.03.5,1.65.21-.37.5-.81.85-1.43.86-.49,0-.99,0-1.48-.03-.73-.05-1.36.12-1.89.66-1.01,1.02-2.27,1.66-3.54,2.29-.46.23-.92.46-1.38.7-.16.09-.37.12-.49.41,1.76-.57,3.44-1.14,5.04-1.96-.43.49-.91.9-1.52,1.15-.93.39-1.87.76-2.84,1.04-.77.23-1.45.58-2.08,1.07-.17.14-.33.34-.63.36.11-.35.41-.51.59-.92-.78.46-1.36.94-1.96,1.4-.73.56-.78,1.34-.85,2.12-.04.42.19.65.61.72q-.02-1.03.22-1.27c.22.25.09.56.13.84.12.8.13.82.94.94Zm5.69-10.12c.61-.41,1.09-.88,1.61-1.31,1.76-1.46,3.36-3.11,5.37-4.24,1.35-.75,2.71-1.49,4.01-2.33.77-.5.92-.74.8-1.65-.05-.37-.2-.68-.46-.95-.51-.53-1.13-.88-1.83-1.09-1.55-.46-3.13-.52-4.72-.28-2.52.38-4.81,1.36-7,2.63-2.78,1.62-5.25,3.59-7.11,6.25-.88,1.26-1.56,2.61-1.93,4.11-.12.48-.3.97-.22,1.45.1.6.1,1.2.11,1.81.01.43.11.84.2,1.26.12.56.52.87,1.08.88.14,0,.26.03.37.11.23.15.49.13.72.06.57-.19,1.15-.35,1.6-.79.72-.7,1.43-1.43,2.2-2.07.57-.47.47-.97.18-1.48-.16-.3-.41-.53-.66-.76-.1-.09-.24-.17-.25-.46.42.29.75.52,1.08.74.33.22.49.66.97.81-.1-.61-.3-1.03-.88-1.21-.27-.08-.59-.2-.61-.66.92.29,1.67.74,2.35,1.33.46-.31.88-.61,1.31-.88.24-.15.31-.33.27-.61-.14-.98-.32-1.93-1.29-2.51,1.05.38,2.1.72,2.71,1.84Zm-3.08,13.77c-.11.34-.06.63-.08.92,0,.17.03.32.23.35.78.14,1.56.27,2.33.27.08-.18,0-.28,0-.39,0-.39-.46-.63-.33-1.08.03-.11-.2-.13-.33-.11-.15.01-.23.09-.25.25-.01.21.06.45-.21.61-.32-.17-.2-.62-.44-.77-.26-.17-.6-.08-.94-.04Zm2.81-11.98c2.42-1.24,3.97-3.29,5.74-5.13-.2-.12-.27-.04-.33.02-.51.48-1.01.96-1.51,1.43-1.25,1.19-2.35,2.53-3.82,3.47-.03.02-.03.07-.09.21Zm1.24,13.5c.33.05.65-.08.98-.1.86-.05.9-.11.81-.97,0-.09-.04-.17-.06-.25-.23-.02-.43,0-.56.18-.12.15-.03.41-.24.53-.15-.13-.03-.37-.21-.48-.74.08-.83.21-.72,1.1Zm-5.76-.83c-.29-.42-.14-1.21-.93-1.21-.2.17.03.36-.12.52-.35-.32-.39-.94-1.07-.98.5.88,1.21,1.39,2.13,1.68Zm.22-.89c.08,1.08.2,1.21,1.19,1.3-.14-.28-.32-.54-.4-.83-.12-.45-.41-.5-.79-.47Zm4.4,1.75c.31-.06.62.14.82-.15.14-.21.06-.49-.08-.69-.13-.18-.39-.14-.55-.05-.35.19-.16.53-.19.89Zm-2.12-1.97c.07-.57-.03-.66-.64-.59-.16.02-.32.03-.31.25,0,.17.05.31.24.35.24.04.48.1.71-.01Zm-2.54-.73q.14.62.8.58.02-.56-.8-.58Zm4.71.52c.32,0,.61.06.57-.38-.02-.2-.08-.35-.33-.3-.41.08-.3.35-.24.68Zm5.41-2.4c-.09.01-.15.01-.21.03-.37.11-.25.34-.15.57.06.14.09.36.29.29.31-.1.16-.36.13-.57-.01-.11-.04-.21-.06-.33Zm-11.76,1.82q.08-.57-.44-.77-.1.59.44.77Zm8.79-.68c-.15.05-.34.08-.28.29.05.17.02.44.3.44.24,0,.29-.17.25-.36-.03-.16-.02-.37-.28-.36Zm4.09-1.72c-.57.29-.58.53-.13,1.01.32-.29.04-.62.13-1.01Zm6.76-6.21c-.13.18-.24.32-.34.46-.1.14-.04.25.06.34.14.12.24,0,.31-.1.15-.21.21-.43-.04-.7Zm-18.94,8.36q-.04.57.42.61c.07-.32.02-.57-.42-.61Zm9.84-.24c.35-.1.28-.31.18-.52-.08-.19-.15-.41-.46-.19.05.24.09.5.27.72Zm-3.8,1.4c-.13.03-.32.03-.35.27-.02.16.05.27.22.26.19-.01.43.03.43-.28,0-.16-.08-.25-.29-.25Zm5.85-1.26c.49-.27.5-.31.24-.9-.34.21-.23.52-.24.9Zm-7.49.48c-.12.02-.24.07-.21.24.03.16-.01.38.25.39.13,0,.29-.02.28-.19-.01-.19-.01-.41-.31-.44Zm5.77-.42q-.36.24-.24.68.45-.12.24-.68Zm.87.33c.4-.11.33-.37.24-.62-.03-.09-.13-.14-.21-.1-.27.13-.16.36-.13.57,0,.04.05.07.1.15Zm-4.08,1.18c.27,0,.48-.03.47-.34,0-.16-.09-.25-.25-.21-.29.07-.3.26-.22.55Zm-10.01-5.62c.18-.25.43-.48.34-.87q-.3.24-.34.87Zm24-4.99c.27-.39.39-.7.13-1.1-.23.35-.25.67-.13,1.1Zm-12.51,10.06c-.04-.11,0-.29-.19-.29-.19,0-.27.13-.28.3,0,.13,0,.29.18.28.17,0,.3-.09.29-.29Zm-1.47-1.03c-.19.19-.09.41.01.62.01.03.14.04.17.02.23-.17,0-.35,0-.53,0-.07-.06-.11-.19-.1Zm13.54-9.09c-.19.31-.14.54-.05.85.27-.29.29-.51.05-.85Z"/><path d="m52.64,102.3c.83-.06,2.06,1.12,2.17,2.01-.46-.27-.63-.76-1-1.06-.37-.3-.74-.6-1.17-.95Z"/><path d="m56.12,103.48c-.53-.47-1.01-.89-1.58-1.39.77.07,1.49.73,1.58,1.39Z"/><path d="m55.81,101.61c.56.15.98.46,1.23.98-.52-.19-.79-.7-1.23-.98Z"/><path d="m55.5,103.91c-.48-.51-.87-.92-1.27-1.34.45.06.98.61,1.27,1.34Z"/><path d="m56.46,101.2c.45-.04.77.18.99.55-.38-.08-.65-.37-.99-.55Z"/><path d="m40.07,108.77c-.13-.33-.49-.58-.41-1.03.49.29.55.48.39,1.03h.01Z"/><path d="m43.75,108.15c.05,0,.08-.02.1,0,.18.15.29.33.16.57-.03.05-.12.07-.17.01-.17-.18-.19-.37-.08-.57Z"/><path d="m56.52,89.04c.22.39.05.67-.15.94-.39.53-.88.96-1.42,1.31-1.25.82-2.53,1.6-3.77,2.43-.65.43-1.37.76-1.96,1.28-.08.07-.19.12-.35.1-.08-.31.15-.48.33-.65.94-.89,1.94-1.71,3.1-2.32.65-.34,1.31-.68,1.94-1.06.89-.52,1.78-1.05,2.28-2.04Z"/><path d="m55.12,87.38c-1.29-.06-2.57-.14-3.86.02-1.29.16-2.47.69-3.79,1.12.34-.63,1.23-1.1,2.66-1.43,1.69-.38,3.38-.54,5,.29Z"/><path d="m41.79,91.37c-1.45,1.1-2.73,2.36-3.78,3.87-1.03,1.49-2.07,2.96-2.72,4.68-.21-1.92,3.79-7.19,6.49-8.54Z"/><path d="m38.45,103.69c-.38.51-.86.81-1.5.79-.18,0-.35-.04-.5-.16-.09-.07-.15-.17-.1-.29.04-.09.12-.14.21-.13.64.06,1.26-.09,1.89-.22Z"/><path d="m49.58,91.18c-.33.19-.55.05-.78-.04-.44-.17-.81-.47-1.29-.55-.12-.02-.2-.11-.19-.24.02-.17.16-.2.3-.19.3.01.56.17.81.31.38.21.85.27,1.15.71Z"/><path d="m34.99,101.56c.03.65.17,1.28.18,1.92-.46-.61-.47-1.26-.18-1.92Z"/><path d="m50.23,90.54c-.6.09-.98-.24-1.4-.44-.03-.01-.04-.13,0-.18.03-.04.12-.09.16-.08.42.18.88.27,1.25.7Z"/><path d="m57.23,88.86c.32.68.15,1.12-.72,1.76.37-.63.78-1.11.72-1.76Z"/><path d="m51.27,89.96c-.54-.1-.59-.13-1.14-.59.53.02.82.35,1.14.59Z"/><path d="m71.82,91.28c.11-1.09.85-1.61,1.71-2.01,1.07-.5,2.22-.69,3.39-.74,2.25-.09,4.4.44,6.53,1.07,2.7.8,5.31,1.81,7.58,3.52,2.11,1.6,3.9,3.5,5.24,5.8.19.33.34.68.5,1.03.42.91.52,1.85.25,2.82-.2.73-.39,1.46-.58,2.2-.46,1.74-1.59,3.03-3,4.11-1.69,1.29-3.61,1.93-5.71,2.14-2.34.23-4.66.14-6.96-.3-6.33-1.23-11.2-5.86-12.24-12.35-.24-1.48-.35-2.93.04-4.4.34-1.28.96-2.31,2.32-2.72.28-.09.58-.04.92-.15Zm2.68,13.81c.37-.24.28-.68.43-1.01.08-.16-.08-.23-.21-.28-.15-.06-.27,0-.3.16-.08.39-.22.78.09,1.14-.42.02-.31.37-.33.6-.02.25.17.36.45.37,0-.36.08-.69-.14-.98Zm.55,2.44c.26.33.6.55,1.03.71-.09-.58-.13-1.1-.81-1.16-.07.15-.15.3-.23.46-.13-.32-.15-.73-.53-.89-.47-.19-.82-.53-1.23-.79-.09-.05-.17-.24-.35-.05.66.63,1.27,1.32,2.12,1.71Zm15.92-9.68c.12,0,.24,0,.33.08.14.19.38.23.57.33.48.24.98.45,1.39.82.21.19.41.38.48.81-.72-.42-1.27-.87-1.94-1.15-.64-.26-1.27-.56-1.98-.63-.7-.07-1.36-.34-2.06-.51,0,.26.13.28.23.3,2.09.41,3.92,1.49,5.84,2.32.33.14.62.35.89.59.37.33.72.67,1.08,1.01.19.17.37.38.67.33.12-.81.09-1.15-.2-1.86-.53-1.3-1.32-2.44-2.23-3.5-.08-.1-.15-.24-.31-.22-.25.04-.36-.15-.5-.28-1.09-1.08-2.32-1.97-3.63-2.76-.08-.05-.14-.11-.05-.29.72.16,1.25.74,1.92,1.04-.05-.11-.12-.19-.2-.25-.34-.26-.67-.52-1.02-.76-2.21-1.56-4.71-2.47-7.28-3.22-2.07-.61-4.17-1.06-6.35-.92-.9.06-1.77.25-2.61.58-.33.13-.56.35-.74.65-.17.3-.11.51.15.68.17.11.33.23.51.32.64.33,1.3.56,2,.75,1.41.38,2.71,1.06,3.93,1.86.27.18.53.39.83.51.13-.19.02-.28-.08-.37-.98-.87-2.01-1.64-3.35-1.89-.46-.08-.91-.24-1.37-.31-.54-.09-1.04-.28-1.48-.61-.16-.12-.38-.22-.41-.51.26,0,.41.14.57.25.41.29.87.47,1.36.55.56.08,1.09.27,1.63.39,1.64.35,2.79,1.44,3.94,2.54.23.22.44.38.87.34-.35-.33-.61-.59-.89-.85-.3-.27-.62-.51-.92-.79-.26-.24-.6-.4-.74-.75.79.32,1.47.77,2.07,1.35.12.12.23.34.42.31.61-.08.87.39,1.26.65-.08.22-.32.25-.31.45.37.17.68.18.92-.22.11-.18.31-.39.55-.17.25.22,0,.39-.12.57-.02.02.01.07.02.11.55-.01,1.03.27,1.53.45.33.12.58.12.88-.05.21-.12.45-.3.72-.13,0,.38-.46.37-.55.7.7.04,1.17-.72,1.99-.57-.34.55-.98.66-1.19,1.22.94.46,1.96.5,2.93.72Zm-14.71,6.44c.66.2.73.3.52.96-.26.86-.46,1.73-.53,2.63-.03.4.11.62.46.79.65.31,1.3.6,1.98.85,1.53.56,3.13.83,4.73.91,1.49.07,2.99.26,4.49.06.18-.02.37-.01.41-.25.01-.09.03-.19-.06-.24-.17-.1-.34-.09-.5.02-.06.04-.03.19-.19.14-.06-.49-.65-.17-.84-.51.22-.24.55,0,.76-.21.08-.36-.08-.54-.46-.54-.4,0-.78-.07-1.13-.26.48-.11.97.09,1.44-.08-.04-.57-.05-.63-.22-.66-.46-.06-.93-.08-1.22.39-.47-.44-.52-.44-1.08.02-.04-.05-.1-.09-.11-.14-.06-.19-.16-.32-.37-.32-.21,0-.22.19-.27.33-.05.14-.06.31-.29.35-.24-.21-.06-.56-.25-.82-.18,0-.35-.14-.56-.09-.22.17-.19.54-.47.64-.36-.25.1-.98-.65-.94-.14.49-.17,1.02-.53,1.46-.26-.38-.2-.77-.2-1.14-.01-.66,0-.66-.74-.75-.21.51-.14,1.12-.5,1.65-.17-.42-.08-.79-.13-1.14-.04-.31.21-.72-.29-.94-.32.65-.31,1.39-.63,2.1-.31-.83.07-1.6-.11-2.35-.39.66-.4,1.44-.73,2.23-.17-.4-.13-.71-.13-1.01,0-.34.02-.67.05-1.01.03-.28.22-.55.04-.97-.48.87-.59,1.71-.79,2.52-.16-.72-.19-1.44-.07-2.15.11-.63.43-.84,1.05-.68.3.08.6.19.89.29,1.27.44,2.56.84,3.88,1.1,2.07.4,4.18.46,6.28.58.65.04,1.3.05,1.95.02,1.2-.06,2.26-.51,3.28-1.1.4-.24.71-.56.84-1.03-.29.29-.61.52-.97.71-.44.23-.98.28-1.36.56-.43.32-1.08-.08-1.36.51,0,0-.09-.01-.11-.04-.17-.2-.37-.07-.56-.05-.76.09-1.51.16-2.28.17-2.3.02-4.49-.51-6.64-1.24-.12-.04-.26-.05-.32-.2.04-.01.09-.04.13-.03.37.08.75.16,1.11.27,1.91.56,3.86.79,5.84.75.77-.01,1.51-.17,2.27-.27.2-.03.35-.11.3-.35-.05-.25-.22-.24-.41-.18-.13.04-.26.06-.39.1-1.73.59-3.46.27-5.17-.08-.16-.03-.36-.05-.36-.34,1.99.08,3.98.81,5.92-.08-.02-.27-.36-.33-.29-.59.48-.12.63.73,1.15.38.11-.24-.28-.41-.03-.64.64.22.61,1.01,1.11,1.45.23-.58-.35-.89-.26-1.39.4.15.46.5.6.78.08.17.14.35.38.25.3-.12.13-.31.07-.5-.07-.22-.35-.3-.33-.55.09-.16.22-.17.35-.1.32.17.34.53.46.83.2-.09.26-.26.42-.36.38-.24.71-1.32.5-1.7-.53-.97-1.13-1.92-2.11-2.48-1.56-.9-3.22-1.58-4.98-1.99-.39-.09-.82-.24-1.2.11-.11.1-.3.04-.46.03-.4-.04-.8-.12-1.18-.24-.75-.23-1.48-.53-2.18-.87-.26-.13-.53-.24-.84-.11-.62.26-1.29.4-1.75.95-.07.08-.17.16-.27.18-.16.04-.26-.06-.23-.23.02-.16.16-.26.26-.38.28-.34.57-.68.9-1.08-1-.29-1.54.45-2.24.8.25-.8.94-1.14,1.52-1.63-1.75-1.24-3.48-2.35-5.42-3.09-.77-.29-1.55-.58-2.31-.92-.93-.42-1.6-.25-2.17.61-.15.22-.29.45-.45.67-.33.45-.44.96-.46,1.52-.04,1.54.49,2.89,1.29,4.18.91,1.46,2.15,2.57,3.55,3.53.72.49,1.39,1.05,2,1.67-.19,0-.39-.02-.62-.03-.29.63-.35,1.32-.43,2-.05.4.21.58.65.69-.08-.85.05-1.61.35-2.34.04-.1.03-.22.04-.33Zm9.79-7.12c.17-.71-.1-1.04-.87-1.05-.34,0-.61-.02-.96-.16-.45-.19-.99-.36-1.69-.35,1.2.69,2.32,1.2,3.52,1.57Zm4.77,11.41c-.25.28-.38.56-.35.83.04.39-.2.49-.44.44-.37-.07-.7.09-1.06.07-.21-.01-.32.12-.28.38.45.12.86-.06,1.28-.18q.99-.3.92-1.36s-.02-.04-.07-.18Zm.24,1.14c1.16-.34,1.04-.46,1.01-1.39,0-.14,0-.33-.21-.36-.22-.03-.24.14-.27.29-.09.48-.27.93-.53,1.45Zm1.56-1.78c-.1.36-.2.73-.31,1.14.85-.4,1.68-1.13,1.92-1.76-.4.52-1.08.38-1.25.96-.23-.04-.09-.33-.36-.34Zm-21.69-5.09c-.06-1.25-.01-1.79-.53-2.16-.19.79,0,1.48.53,2.16Zm2.78,2.59c.08-.85.06-.88-.55-1.07-.19.69-.18.71.55,1.07Zm.04-1.17q.28-.99-.31-1.07-.23.67.31,1.07Zm11.52-6.24c-.81-.35-1.61-.7-2.42-1.05-.02.04-.03.08-.05.13.77.43,1.59.74,2.47.92Zm4.29,11.41q.57.07.6-.63-.49-.02-.6.63Zm-16.99-6.27c.33-.59.32-.63-.23-.85-.16.35-.12.64.23.85Zm19.72,2.63c-.15-.22-.11-.54-.47-.49-.19.03-.22.19-.18.36.1.37.32.29.64.12Zm-22.59-6.05c.25-.59.22-.7-.26-1.06.06.36.11.7.26,1.06Zm1.54,2.43c-.16.53.19.76.37,1.15.11-.48-.07-.77-.37-1.15Zm1.24,2.25c.06-.43.13-.77-.34-.97-.1.38-.09.69.34.97Zm15.47,5.07q.47-.09.25-.6c-.25.11-.25.33-.25.6Zm2.07-1.44c-.15,0-.23.08-.23.2,0,.13.08.2.21.2.15,0,.26-.07.24-.23-.01-.14-.13-.16-.22-.16Zm-1.04,1.57c.25-.31.26-.5.1-.77-.22.21-.26.4-.1.77Z"/><path d="m90.97,97.85c-.28-.3-.8-.29-.99-.75.5,0,1.58.5,2.1,1.02-.32-.08-.55-.13-.78-.19-.1-.08-.21-.09-.33-.08Z"/><path d="m76.8,103.22c-.43-.14-.4.43-.79.49.35-.76-.21-.96-.68-1.26-1.17-.72-2.23-1.57-3.24-2.5-.37-.34-.72-.72-.81-1.23.1-.11.16-.06.19,0,.33.66.86,1.13,1.43,1.58,1.07.85,2.15,1.67,3.28,2.41.42-.09.46-.69.96-.67.07.31-.17.43-.29.59-.15.2-.19.4-.05.61v-.02Z"/><path d="m88.65,99.28c1.45.3,2.74.89,3.87,1.84-1.26-.68-2.55-1.31-3.87-1.84Z"/><path d="m71.48,92.32c-.27.48-.71.84-.89,1.38-.18.53-.2,1.09-.28,1.71-.36-1.31.16-2.68,1.18-3.09Z"/><path d="m76.79,103.24c.28-.16.33-.58.71-.66.05.38-.05.64-.63,1.6-.2-.34,0-.67-.07-.96v.02Z"/><path d="m81.4,98.48c.37.04.53-.69,1.05-.24-.16.18-.34.35-.19.65-.37-.04-.63-.14-.85-.41Z"/><path d="m94.17,103.88v-1.34c.49.38.5.63,0,1.34Z"/><path d="m85.85,109.14c.23.01.31.18.34.36.03.19-.01.39-.22.43-.23.04-.29-.17-.31-.35-.03-.18-.03-.37.2-.43Z"/><path d="m78.46,103.18c-.13.43-.25.74-.55.96-.15-.55-.06-.72.55-.96Z"/><path d="m96.36,101.51c-.52.08-1.09-.38-1.62-1.3.37,0,1.21.69,1.62,1.3Z"/><path d="m90.88,94.97c.61.23,1.74,1.14,2.11,1.7-.51-.23-1.84-1.3-2.11-1.7Z"/><path d="m86.01,93.78c-.78-.12-1.42-.4-2.13-.66.41-.27,1.56.1,2.13.66Z"/><path d="m86.44,93.34c-.59,0-1.12-.16-1.69-.54.57-.12,1.08.05,1.69.54Z"/><path d="m75.26,91.08c-.7-.18-.88-.62-.92-1.16.4.27.58.71.92,1.16Z"/><path d="m87.89,57.98c1.49-.64,2.65-.05,3.67,1.04,1.13,1.2,1.74,2.65,2.02,4.25.5,2.87.35,5.72-.45,8.52-.96,3.33-2.79,6.17-4.99,8.8-.61.72-1.34,1.31-2.15,1.81-.61.38-1.17.85-1.77,1.26-1.57,1.04-3.25,1.42-5.09.82-.73-.24-1.36-.61-1.88-1.17-.2-.22-.4-.28-.69-.27-2.28.09-3.91-.99-5.07-2.88-.73-1.19-1.05-2.53-1.21-3.91-.49-4.26.22-8.32,2.14-12.15,1.11-2.21,2.41-4.28,4.24-5.98,1.6-1.48,3.45-2.44,5.61-2.82,2.08-.37,4.55.51,5.62,2.68Zm-15.99,19.29c-.5.33-.54.35-.45.69.36,1.33.95,2.53,2.11,3.36.41.29.88.46,1.36.22,1.56-.77,2.42-2.13,2.62-3.75.19-1.53.67-2.77,1.85-3.76.98-.82,1.62-1.91,2.02-3.12.3-.9.61-1.78,1.05-2.61.09-.17.24-.36.11-.54-.17-.24-.15-.45-.1-.72.02-.14-.35-.35-.53-.53-.07-.07-.12-.15-.16-.24-.07-.16-.11-.33.04-.47.17-.16.3-.03.44.08.08.07.12.22.32.15,0-.37-.24-.65-.39-.97-.15-.32-.29-.64-.14-1.09.49.39.68.96,1.23,1.25.25-1.27.88-2.36.92-3.62.02-.54.16-1.06.6-1.43.45-.37.81-.83,1.21-1.25.77-.79.72-1.04-.29-1.5-.59-.27-1.19-.51-1.89-.81,1.13-.08,1.92.53,2.88.92-.17-.39-.43-.56-.68-.73-1.17-.86-2.49-.97-3.86-.69-2.56.51-4.56,1.91-6.17,3.9-1.76,2.17-3.12,4.57-3.98,7.24-.97,3.03-1.28,6.12-.87,9.28.03.2-.02.44.18.59.45-.33.5-.76.43-1.28-.16-1.17-.2-2.35-.12-3.54.02-.23-.02-.5.25-.8-.03,1.63-.02,3.14.32,4.65.63-.28.2-.92.5-1.32.14.28,0,.58.2.79.19.05.42-.22.6.14-.19.33-.89.53-.45,1.12.23.07.38-.33.67-.1-.08.27-.4.34-.52.56-.14.26-.07.5.06.73.24.03.42-.32.66-.09.03.14-.07.18-.14.24-.41.34-.43.45-.12.88.31.42.66.8,1.17.99-.99.29-1.28-.61-1.85-1.22-.02.56.23.85.46,1.14.55.69,1.34.44,2.15.45-1.02.74-1.93.62-2.59-.3-.51-.72-.86-1.51-.96-2.4-.02-.18-.03-.38-.18-.53Zm14.98,2.56c-.81,1.03-1.74,1.92-2.87,2.61-1.32.8-2.71,1.26-4.27.91-.21-.05-.41-.04-.45.22-.04.25.19.22.34.26,1.37.36,2.67.13,3.81-.64,2.4-1.6,4.64-3.39,6.14-5.93.38-.64.76-1.29,1.13-1.94.88-1.51,1.58-3.08,1.91-4.82.49-2.61.61-5.22.01-7.83-.31-1.35-.97-2.51-1.93-3.51-.72-.75-1.57-.85-2.52-.49-.48.19-.79.54-1.07.94-1.3,1.82-1.66,3.93-1.82,6.09-.06.88-.22,1.72-.58,2.52-.08.18-.27.35-.15.6.77.14,1.45.6,2.25.7-.7.14-1.39.21-2.08.29-.59.07-.71.21-.81.78.61.16,1.25.26,1.71.74-.12.18-.27.21-.4.25-.37.12-.71-.06-1.06-.11-.88-.14-1.2.04-1.46.88-.09.28-.19.55-.33.8-.98,1.8-1.98,3.59-2.96,5.39-.63,1.17-1.3,2.32-1.62,3.62-.05.21-.2.41,0,.61.32.34.64.71,1.14.77.16-.31-.02-.44-.19-.58-.18-.14-.39-.26-.37-.61.23.16.4.29.58.4.08.05.18.06.26-.03.07-.08.08-.18.02-.26-.1-.13-.22-.26-.31-.4-.03-.04,0-.13,0-.19.24-.09.32.24.6.14.12-.07.12-.37.36-.4.26.21-.12.49.12.65,1.2.08,2.36-.05,3.49-.46-.29.28-.63.45-.98.59-.72.29-.72.29-.79.65,2.13-.46,3.58-1.94,5.15-3.24Zm-2.7-12.97c-.38.49-.54,1.07-.74,1.63-.08.22-.13.58-.36.58-.47,0-.46.35-.55.61-.11.32-.18.65-.23.98-.28,1.74-.93,3.27-2.27,4.47-.51.45-.81,1.04-.93,1.59.2-.16.32-.44.63-.44.17,0,.25-.12.32-.25.79-1.46,1.73-2.83,2.24-4.43.23-.71.51-1.42.9-2.05.51-.84.64-1.8,1-2.69Zm-6.57,13.8c-.44.62-.95,1.15-1.68,1.45q1.14.03,1.5-.98c.06-.16.11-.31.17-.47Zm7.45-17.45c.25-.75.51-1.49.76-2.24-.36.71-.91,1.36-.76,2.24Zm-4.64,19.86c.81.17.82.16.99-.35-.34.08-.71-.11-.99.35Zm-7.92-5.58q.19-.46-.04-.8c-.21.28-.09.52.04.8Z"/><path d="m77.92,58.79c-1.59,1.2-2.33,2.94-3.19,4.61-.91,1.77-1.64,3.6-2.1,5.53-.05.22-.05.47-.29.66-.2-.27-.13-.53-.11-.78.06-.65.21-1.29.43-1.9.8-2.15,1.68-4.27,3.05-6.13.59-.8,1.28-1.55,2.21-1.99Z"/><path d="m85.5,58.2c.09.33-.16.46-.31.63-.44.48-.82,1-1.17,1.56-.32.52-.45,1.05-.28,1.65.11.4.14.81-.07,1.2-.08.15-.17.29-.36.32-.17-.17-.1-.36-.07-.55.04-.29.07-.58-.02-.86-.22-.67-.06-1.28.25-1.88.39-.76.95-1.39,1.59-1.94.11-.09.22-.19.43-.13Z"/><path d="m79.26,59.54c.2-.33.49-.5.79-.65.54-.26,1.03-.62,1.61-.81.13-.04.29-.08.39.06.12.17.07.34-.07.45-.63.49-1.3.91-2.07,1.14-.21.06-.43.05-.65-.2Z"/><path d="m78.78,73.39c.13-.74.68-.99,1.02-1.39.38-.45.66-.94.89-1.47.21-.48.25-1.04.64-1.44-.19,1.78-.76,3.32-2.55,4.29Z"/><path d="m72.91,70.97c-.16-1.39.31-3.15,1.02-3.71-.34,1.34-.75,2.52-1.02,3.71Z"/><path d="m79.52,60.57c.43-.53,1.1-.64,1.65-.95.04-.02.14.02.18.06.08.07.08.18.02.26-.05.08-.11.16-.19.21-.51.29-1.01.61-1.66.42Z"/><path d="m76.72,77.97c-.29-1.04.12-1.89.65-2.7.12.5-.25.87-.35,1.32-.1.46-.2.92-.3,1.39Z"/><path d="m90.78,73.08c.04-.66.35-1.23.51-1.85.44-1.69.75-3.37.6-5.13-.04-.52-.07-1.07.34-1.5.25.07.23.29.26.47.33,2.29.06,4.5-.78,6.65-.2.52-.49.98-.94,1.36Z"/><path d="m78.37,81.67c-.11-.52.12-.93.38-1.29,1.31-1.76,2.48-3.6,3.29-5.65.02-.04.07-.06.14-.13.1.34-.05.62-.15.9-.52,1.44-1.29,2.73-2.17,3.98-.51.72-1.07,1.4-1.49,2.19Z"/><path d="m86,65.63c-.46-1.93.51-4.97,1.85-5.55-.4.65-.87,1.1-1.08,1.71-.21.62-.37,1.24-.47,1.89-.09.63-.06,1.28-.3,1.95Z"/><path d="m91.84,62.01c-.59-1.33-1.45-2.39-2.84-2.96.21-.21.42-.17.62-.09,1.05.4,2.13,1.86,2.22,3.06Z"/><path d="m79.99,80.79c.28-.68.67-1.28,1.14-1.91.2.67-.33,1.54-1.14,1.91Z"/><path d="m81.37,80.02c.03.53-.26.75-.59.98.02-.58.06-.65.59-.98Z"/><path d="m89.91,75.31c.01.38-.19.65-.42.9-.08-.41.2-.64.42-.9Z"/><path d="m60.35,48.84c-1.05,2.35-2.92,3.77-4.96,5.02,2.32-.58,4.05-1.95,5.35-3.93,0,.33-.02.37-.46.99-.23.33-.51.61-.81.87-.3.25-.61.5-.97.8.99-.27,1.69-.87,2.46-1.56-.04.34-.2.49-.33.65-.52.64-1.2,1.1-1.93,1.46-.86.43-1.7.9-2.67,1.19.44.11,1.14-.05,1.93-.42.64-.3,1.22-.69,1.79-1.08.56-.38,1.04-.86,1.57-1.27-.85,1.64-2.42,2.35-4,3.04.76.16,1.92-.4,3.98-1.91-.56.85-1.36,1.41-2.29,1.81,1.33.05,2.29-.6,3.06-1.61-.19.54-.62.88-1.05,1.33.97.05,1.89-.09,2.67.48-.07.16-.18.13-.26.12-1.33-.2-2.64-.03-3.94.2-1.17.21-2.32.21-3.48-.07-.42-.1-.8-.33-1.22-.45-.65-.18-1.31-.07-1.96-.2-2.47-.49-4.41-1.72-5.65-3.96-.1-.19-.2-.33-.42-.42-1.11-.43-1.8-1.27-2.24-2.35-.44-1.08-.59-2.22-.76-3.36-.06-.41-.13-.82-.2-1.23-.07-.45-.25-.86-.49-1.25-.89-1.49-1.08-3.13-.95-4.81.1-1.28.27-2.55.4-3.83.06-.57.03-1.13-.08-1.69-.04-.2-.09-.41.11-.61.23.06.28.28.34.46.28.82.84,1.37,1.56,1.8.52.31,1.09.52,1.64.78.67.31,1.32.67,1.84,1.21.17.17.32.19.55.16,1.58-.18,3.03.19,4.39,1.01.48.29.89.64,1.21,1.1.16.23.36.35.63.44,1.3.43,2.52.99,3.62,1.84.93.73,1.65,1.6,2.16,2.66.12.25.27.5.36.77.2.65.58,1.08,1.18,1.43.97.56,1.53,1.49,1.92,2.52.37.98.52,2.01.65,3.04.2,1.65.19,3.32.67,4.93.03.09.04.19-.06.28-.24-.08-.3-.31-.4-.5-.12-.21-.15-.45-.36-.62-.19-.15-.03-.39-.02-.6-.18-.12-.2.24-.42.08-.11-.12.05-.35-.05-.54-.3.08-.26.26-.17.48.23.56.45,1.12.67,1.69.08.21.18.41.19.7-.21-.13-.27-.33-.36-.5-.59-1.14-1.03-2.35-1.66-3.48-.6-1.08-1.3-2.08-2.28-3.04Zm-15.74-12.41c-.5-.88-.96-1.78-1.28-2.75-.07-.2-.11-.42-.27-.62q-.04,1.19.41,1.81c-.17.08-.29-.18-.46-.07.04.42.89,1.28,1.61,1.63-.05.28-.21.19-.37.1-.48-.28-.85-.68-1.27-1.05-.12.31-.12.31.08.46.07.06.14.12.2.2.44.53.96.96,1.51,1.36.15.11.35.2.44.52-1.01-.42-1.68-1.11-2.35-1.81.21.46.42.92.8,1.27.38.35.8.63,1.23.91.42.27.93.37,1.3.72-1.22-.17-2.25-.71-3.12-1.57.64,1.26,1.6,2.09,3,2.37.28.06.56.09.83.17.33.09.66.2.87.5-.55-.15-1.1-.27-1.66-.32-1.18-.11-2.09-.72-2.83-1.6-.17-.21-.33-.43-.51-.67-.02.09-.05.13-.04.16.58,1.39,1.61,2.25,3.08,2.58.46.1.93.15,1.4.23.16.03.32.06.41.24-.33.24-.7.02-.99.16-.05.21.16.36.01.65-.21-.68-.64-.94-1.35-.85.15.24,0,.52.28.67.16-.13-.08-.35.14-.46.21.16.1.49.32.63.21.14.51.09.76.32-.69.05-1.29-.09-1.89-.29-.11.29-.04.49.24.6.34.13.68.22,1.04.26,1.1.11,2.19,0,3.27-.16.29-.04.59,0,.94-.15-.29-.25-.55-.44-.78-.65-.26-.24-.53-.41-.91-.38-.17.02-.38,0-.46-.19.04-.25.28-.11.39-.27-1.49-1.42-2.85-2.95-4.03-4.64Zm3.86,12.82c.77-.05,1.39-.46,2.01-.86.97-.63,1.93-1.26,2.82-2,.33-.28.69-.54,1.07-.74.18-.09.36-.21.62-.08-1.92,1.18-3.53,2.72-5.5,3.76,1.37-.19,2.69-.47,3.74-1.44.6-.55,1.21-1.08,1.85-1.59.2-.16.4-.34.69-.31-.03.52-.03.52-2.07,2.37-.84.77-1.85,1.15-2.92,1.43-1.02.26-2.06.44-3.12.48,2.13.23,4.13-.22,6.01-1.27-.75.63-1.51,1.22-2.45,1.5-.15.04-.31.08-.24.29.07.21.23.16.38.1.3-.12.59-.26.88-.39.75-.35,1.49-.7,2.24-1.05,0,.1-.03.15-.07.17-1.09.76-2.2,1.47-3.48,1.86-.21.06-.39.11-.35.41-.25-.11-.43-.39-.68-.1.06.38.29.43.62.35,1.18-.28,2.31-.7,3.43-1.15.13-.05.25-.17.44-.07-1.16.95-2.49,1.5-3.99,1.81.25.22.45.33.71.3.74-.08,1.43-.28,2.11-.6,1.83-.87,3.26-2.23,4.68-3.63.38-.37.68-.8.82-1.33-.18-.15-.33-.32-.6-.37-.33.62-.69,1.22-1.17,1.73-.48.51-.94,1.03-1.58,1.35.95-1.02,1.98-1.96,2.51-3.32-.34-.26-.67-.46-1.03-.66-.62.7-1.12,1.48-1.97,1.9.66-.59,1.26-1.23,1.59-2.12-1.38-.72-2.78-1.33-4.13-2.03.59.49,1.26.86,1.97,1.26-.2.22-.45.27-.64.41-1.09.84-2.26,1.56-3.39,2.35-.48.34-1.01.58-1.57.77-.14.05-.3.05-.39.19.05.1.1.21.15.31-.55-.28-1.12-.29-1.73-.17.43.41.9.45,1.72.16Zm6.55-10.95c.32.52.69.99.96,1.54.85,1.71,1.1,3.53.95,5.4-.03.42.05.63.41.85,2.31,1.38,4.25,3.14,5.56,5.53.06.11.1.25.27.3.29-.41.57-.83.7-1.34.03-.13.11-.3.06-.38-.2-.28-.11-.52,0-.78.02-.04-.03-.1-.05-.15-.15-.03-.22.25-.42.07,0-.48.36-.97.14-1.55-.2.28-.18.62-.49.82.03-.93.28-1.83-.3-2.62-.03.66.09,1.34-.33,2.06-.14-.66-.03-1.2-.08-1.74-.06-.55-.21-1.06-.59-1.5.34,1.2.36,2.37-.13,3.61-.12-.24-.08-.39-.07-.54.04-.59.02-1.17,0-1.76-.02-.56-.16-1.08-.5-1.54-.26-.35-.47-.73-.68-1.11-.33-.61-.67-1.22-.99-1.81-.18-.05-.17.22-.37.15-.15-.19-.1-.43-.06-.67.02-.16-.1-.28-.42-.5,0,.3.15.62-.11.93-.1-.43-.24-.81-.28-1.2-.06-.5-.39-.72-.86-1,.25.72.57,1.35.38,2.11-.21-.2-.21-.4-.25-.58-.16-.56-.32-1.13-.62-1.64-.14-.24-.3-.46-.69-.48.52.84.84,1.7.78,2.66-.54-1.12-.75-2.44-1.94-3.15Zm1.42,7.17c.09-.23.05-.44.07-.65.07-.8-.18-1.57-.25-2.36-.16-1.96-1.1-3.54-2.51-4.86-1.4-1.32-3.17-1.77-5-2.05-.02,0-.05.04-.09.06.06.2.22.34.34.52.53.81,1.05,1.62,1.31,2.56.29,1.06.54,2.13.66,3.21.06.5.27.83.67,1.1,1.46,1,3.07,1.7,4.65,2.46.03.01.07,0,.15,0Zm-12.38-12.13c.05.43.28.79.2,1.16-.12.51.12.87.35,1.25,1.44,2.37,3.33,4.33,5.46,6.07.11.09.21.22.39.21.07-.19.03-.37,0-.55-.14-.68-.27-1.37-.44-2.04-.43-1.77-1.21-3.32-2.78-4.38-.55-.37-1.09-.71-1.74-.95-.14.79-.03,1.52-.11,2.25-.1-.18-.17-.37-.21-.56-.11-.5-.13-1.02,0-1.52.09-.37-.08-.45-.41-.49,0,.67.14,1.3.16,1.94-.15-.03-.16-.13-.18-.22-.17-.52-.26-1.06-.23-1.62.02-.29-.09-.47-.43-.57Zm.41,11.56c.03.31-.01.64.16.7.35.12.68.42,1.1.22.16-.07.52.24.51.42-.05.45.08.61.48.47.44-.15.91-.15,1.34-.35.55-.25,1.11-.47,1.67-.7.15-.06.29-.19.54-.08-.84.58-1.77.91-2.64,1.34.35.59.41.63.74.49.2-.08.53-.1.3-.56.25.21.44.26.67.13.39-.23.82-.41,1.18-.67.32-.23.88-.26.84-.85.12.02.23.21.41.02.04-.15-.3-.18-.17-.38.23-.06.42.33.68.04-.12-.29-.54-.35-.56-.73.46.02.65.78,1.23.39-.98-.84-1.05-.85-2.17-.35-.24.11-.48.22-.72.33-.57.26-1.12.54-1.72.73-.22.07-.43.14-.78,0,1.45-.45,2.61-1.19,3.88-1.66-.03-.18-.15-.21-.23-.3-.36-.43-.72-.43-1.21-.14-1.45.84-3.03,1-4.66.71-.38-.07-.73-.24-1.12-.37.14.86.47,1.17,1.23,1.24.08,0,.15,0,.23,0,.75.03,1.46-.15,2.16-.39.65-.23,1.3-.47,1.99-.61,0,.13-.08.17-.14.19-.82.35-1.63.71-2.49.92-.9.22-1.82.4-2.72-.25Zm14.48,2.74c-.21.66-.48,1.24-.96,1.69-.63.6-1.25,1.21-1.88,1.8-.39.36-.84.64-1.31.88-.42.22-.84.43-1.25.67-.43.24-.88.43-1.36.55-.11.03-.26,0-.32.18.29.1.57.24.88.11.5-.21,1.03-.37,1.52-.62,1.75-.89,3.18-2.15,4.42-3.66.11-.14.18-.33.46-.41-.48,1.3-1.43,2.14-2.41,2.96-1.01.84-2.12,1.48-3.43,1.93.56.07.99.17,1.5-.08,1.59-.77,2.97-1.8,4.11-3.13.41-.49.8-1,1.09-1.58.07-.14.19-.3,0-.46-.32-.28-.64-.58-1.05-.84Zm-8.45-4.83c-.12-.1-.25-.05-.38-.02-.65.13-1.3.22-1.94.4-1.35.37-2.61.17-3.85-.42-.13-.06-.24-.18-.41-.13-.02.57.28.87.78,1.03.14.04.29.09.44.12,1.83.35,3.56,0,5.22-.8.07-.03.13-.07.13-.17Zm2.13,3.18c-.29-.33-.5-.31-.79-.12-.79.51-1.51,1.14-2.37,1.53-.32.15-.64.31-.96.47.33.48.35.5.76.29,1.18-.6,2.19-1.45,3.36-2.17Zm-6.03,1.93c-.45-.85-.2-.71-1.41-.65.28.69.44.76,1.41.65Zm.01-.73c.32.74.41.78,1.07.42q-.44-.66-1.07-.42Zm-1.81-.96c.12.63.37.74,1.14.55,0-.24-.04-.45-.36-.43-.26.01-.51-.03-.77-.11Zm2.58,2.47c-.48-.55-.96-.23-1.5-.31.46.54.93.38,1.5.31Zm16.59,2.81c-.21.15-.29.34-.41.5-.28.39-.28.39.06.91.12-.48.36-.88.34-1.41Zm-15.45-3.1c-.35-.47-.45-.48-1.01-.1.36.36.42.36,1.01.1Zm.57,2.92q-.15-.43-.94-.39c.37.52.37.52.94.39Zm-5.57-11c.05-.43-.33-.57-.57-.87-.1.5.26.67.57.87Zm6.47,10.89q-.16-.47-.58-.26c.07.31.24.44.58.26Zm-6.1-17.09c-.1-.44-.13-.9-.48-1.24.09.44.22.86.48,1.24Zm.71,8.18c-.04-.4-.18-.62-.54-.74.01.38.12.62.54.74Zm.1-1.45q.03.53.41.61c-.06-.25.01-.54-.41-.61Zm-.38.21c.07-.36-.03-.55-.35-.63-.12.32.01.49.35.63Zm4.69,10.78c.24.24.41.43.76.32-.16-.3-.34-.46-.76-.32Zm3.97-6.69q.27.34.63,0c-.21-.21-.42-.21-.63,0Zm-2.54,5.98c.12,0,.21,0,.21-.1,0-.15-.04-.3-.21-.35-.07-.02-.16.02-.16.11-.01.15,0,.3.16.34Z"/><path d="m57.58,45.54s-.07-.09-.07-.14c0-.66.05-1.31-.05-2.05.42.19.43.48.45.75.07.81-.01,1.18-.33,1.45Z"/><path d="m58.27,45.55c-.16-.44-.09-.87-.05-1.29.02-.16.2-.21.29-.07.16.22.14.5.11.76-.03.23-.01.5-.35.6Z"/><path d="m58.94,45.82c-.25-.29-.18-.57-.17-.84,0-.08.05-.14.14-.15.11-.01.18.05.21.14.06.28.08.55-.18.84Z"/><path d="m59.75,46.19c-.21-.31-.13-.53-.02-.79.31.32.32.35.02.79Z"/><path d="m51.81,42.18c-.21,0-.26-.12-.28-.23-.13-.72-.25-1.44-.38-2.21.46.05.51.36.59.61.19.6.3,1.21.08,1.82Z"/><path d="m52.45,42.27c-.19-.08-.15-.24-.17-.35-.08-.44-.15-.88-.24-1.33-.03-.15-.07-.33.13-.37.15-.04.23.1.27.23.17.6.38,1.21,0,1.82Z"/><path d="m53.15,42.47c-.23-.48-.3-.98-.3-1.48,0-.12.04-.23.19-.24.1,0,.19.06.21.16.15.53.23,1.06-.1,1.57Z"/><path d="m53.83,43.1c-.26-.46-.18-.89-.26-1.28-.03-.12.05-.23.17-.25.13-.02.21.09.24.2.1.42.14.84-.15,1.33Z"/><path d="m50.5,36.42c-.02.2.18.39.02.65-.37-.31-.64-.72-1.13-.95.27-.24.46-.19.63-.07.17.12.32.25.49.38h-.01Z"/><path d="m50.51,36.43c.01-.12-.1-.27.07-.34.12-.05.22.04.29.13.2.24.39.48.32.85-.39-.1-.35-.57-.69-.65h.01Z"/><path d="m54.64,43.21c-.25-.14-.22-.39-.28-.59-.02-.07.01-.15.1-.17.08-.03.16,0,.2.07.13.23.25.46-.01.7Z"/><path d="m55.47,43.05c0,.12-.05.24-.18.24-.17,0-.24-.15-.25-.3-.01-.1.04-.18.15-.2.19-.02.25.11.28.26Z"/><path d="m57.03,46.78c-.06.7-.96,1.82-1.6,2.03.05-.11,1.4-1.85,1.6-2.03Z"/><path d="m45.89,36.81c-.3-.33-.3-.72-.29-1.11,0-.12.05-.23.2-.21.11.01.16.1.16.2.03.37.04.75-.08,1.12Z"/><path d="m46.61,37.42c-.34-.36-.32-.76-.38-1.13-.01-.07.06-.14.14-.15.11-.01.19.05.22.14.11.35.14.71.02,1.14Z"/><path d="m47.27,37.32c.26.2.26.4.21.67-.25-.18-.35-.35-.21-.67Z"/><path d="m108.21,96.62c-.35.16-.45-.06-.64-.29-.87-1.05-1.84-1.99-3.02-2.71-1.33-.8-2.64-1.63-3.8-2.66-2.09-1.86-3.29-4.15-3.24-7.01.01-.58-.12-1.12-.37-1.64-.59-1.2-.96-2.46-.9-3.82.07-1.6.5-3.09,1.39-4.43.07-.11.14-.22.14-.36.03-.66.29-1.25.62-1.8.73-1.2,1.31-2.46,1.76-3.8.24-.72.61-1.38,1-2.03.46-.76.86-1.55,1.11-2.41.03-.09.06-.18.1-.26.06-.11.15-.18.28-.15.1.03.14.12.16.22,0,.04.01.08.01.11-.11,1.46.73,2.49,1.57,3.52.47.57,1.03,1.06,1.38,1.71.09.16.24.24.37.34.49.36.99.69,1.47,1.06.92.69,1.73,1.51,2.18,2.56.28.67.69,1.15,1.2,1.64,1.42,1.38,2.36,3.03,2.47,5.07.02.32.03.66-.1.95-.2.47-.09.88.12,1.3.32.63.56,1.28.66,1.98.18,1.22-.05,2.41-.38,3.58-.52,1.87-1.56,3.47-2.75,4.98-.8,1.03-1.68,2-2.29,3.16-.2.38-.38.78-.51,1.17Zm-4.44-5.05c-.17-.26-.35-.53-.49-.81-.19-.38-.53-.62-.97-.76.09.95.76,1.28,1.47,1.56.12.2.32.31.5.45.58.46,1.12.95,1.57,1.55.09.13.19.25.22.45-.07-.04-.11-.06-.13-.09-.6-.66-1.27-1.24-2-1.76-.73-.51-1.55-.88-2.25-1.44-.02-.02-.07,0-.11,0,.04.31.26.49.47.68.82.73,1.79,1.26,2.69,1.88.79.55,1.61,1.06,2.24,1.81.07.09.11.24.38.18-.89-1.71-2.02-3.14-3.64-4.31.02.28.12.44.05.61Zm-1.12-21.14c0,1.26,0,2.52,0,3.78,0,.12-.05.27.08.36.14,0,.19-.12.25-.2.53-.78,1.1-1.53,1.56-2.36.23-.41.47-.82.66-1.25.23-.53.27-1.11.04-1.6-.32-.7-.9-1.23-1.48-1.78-.32.63-.55,1.26-1.08,1.69-.08.06-.1.16-.09.26.04.37-.06.75.07,1.12v-.02Zm-4.49,12.22c-.12-.27-.26-.52-.51-.7.07.31.24.54.51.69.54,1.17,1.36,2.13,2.31,2.97,1.35,1.2,2.84,2.22,4.42,3.25-.7-2.14-1.33-4.23-1.74-6.38-.03-.15-.09-.29-.21-.39-.61-.54-1.16-1.13-1.78-1.66-1.41-1.21-2.55-2.62-3.05-4.46-.05-.19-.09-.4-.27-.59-.19.26-.26.55-.33.84h0c-.32.52-.31,1.04-.01,1.59.78,1.48,1.64,2.89,2.96,3.97.23.19.44.41.66.62-.53-.14-.83-.58-1.31-.86-.05.55,0,1,.48,1.28.54.32.99.74,1.43,1.19-.19.14-.31-.14-.47-.04-.11.08.05.3-.19.37-.13-.59-.43-1.01-1-1.22.04.78.37,1.38,1.08,1.88-.37-.01-.54-.16-.7-.27-.54-.36-1-.8-1.45-1.26-.28-.28-.49-.62-.83-.83Zm14.99-.7c-1.92,3.33-4.93,6.77-6.38,7.32,0-.13.11-.19.19-.27.67-.67,1.35-1.32,2.01-2,1.29-1.32,2.37-2.79,3.18-4.45.26-.53.5-1.07.55-1.68-.34.79-.76,1.52-1.46,2.06.57-.74.98-1.55,1.34-2.42.42-1.02.06-1.93-.2-2.88-.26.37-.45.75-.95,1.03.11-.3.18-.49.25-.68.12-.28.24-.55.34-.84.08-.26.06-.46-.17-.67-.3.65-.58,1.27-1.13,1.7.07-.24.18-.46.31-.67.21-.36.42-.72.54-1.12.09-.29.05-.54-.24-.72-.51,1.36-.69,1.66-1.34,2.12.22-.44.38-.77.55-1.1.21-.43.37-.87.41-1.35.02-.23-.02-.4-.29-.48-.19,1.05-.62,1.94-1.34,2.69.04-.36.22-.66.38-.97.33-.62.58-1.27.66-1.98.01-.11.04-.23-.18-.26,0,.37-.04.75-.22,1.08-.3.57-.6,1.13-.96,1.67-1.23,1.86-2.87,3.29-4.67,4.56-.25.17-.38.32-.29.64.41,1.61.76,3.23,1.26,4.82.71,2.31,1.58,4.57,2.25,6.89.14.5.34.98.51,1.47.13-.03.14-.11.17-.18.42-.87.87-1.72,1.44-2.5.73-1,1.47-1.99,2.11-3.05.78-1.28,1.36-2.67,1.7-4.13.28-1.22.16-2.43-.31-3.69Zm-10.05-3.99c.39,1.15.34,2.4.79,3.55,2.53-1.7,4.41-3.85,5.49-6.66-.05-.1-.21.03-.23-.12.04-.28.29-.53.16-.84-.17-.02-.23.19-.38.1-.11-.29.22-.55.11-.85-.23-.01-.29.32-.54.22q.24-1.03.09-1.24c-.22.29-.35.68-.78.82-.02-.36.2-.59.32-.85.11-.24.24-.49.04-.74-.59-.74-1.32-1.31-2.12-1.87-.19.89-.41,1.68-.87,2.39-.67,1.04-1.38,2.03-2.2,2.95-.25.28-.33.57-.31.93.1,1.89.38,3.76.72,5.62.02.13.04.28.3.41-.34-1.32-.53-2.55-.57-3.82Zm-3.27-.66c-.58-.65-1-1.38-1.35-2.16.24,1.36.88,2.51,1.73,3.58.64.81,1.47,1.41,2.2,2.12.1.09.16.26.38.22-.1-.56-.21-1.12-.3-1.67-.08-.43-.15-.85-.56-1.13.16-.07.21.11.35.04,0-.12-.01-.25-.03-.37-.19-1.39-.3-2.78-.14-4.18.05-.49.03-.98.03-1.47,0-2.15-.29-4.3-.11-6.45,0-.02-.05-.05-.08-.08-.54.76-.85,1.63-1.28,2.44-.32.6-.27,1.23-.06,1.87.29.86.64,1.7,1.09,2.49.07.12.16.24.11.45-.33-.27-.44-.62-.62-.91-.2-.32-.34-.67-.49-1.02-.13-.31-.24-.63-.35-.94-.04.02-.08.03-.12.05.11,1.55.77,2.92,1.43,4.29-.93-1-1.35-2.26-1.77-3.55-.59.63-.79,1.25-.34,1.98.04.06.06.14.09.21.36.81.79,1.58,1.23,2.36-.4-.21-.63-.6-.94-.96-.14.52-.27.97.22,1.31.13-.04.17-.25.37-.11-.15.36.05.82-.28,1.19-.22-.3.03-.78-.43-1.01-.02.51.08.95.05,1.42Zm-1.47,6.8c-.13.56.11.87.3,1.19.9,1.44,2.19,2.48,3.6,3.39.21.13.43.24.57.45-.77-.29-1.41-.78-2.09-1.25-.09.21-.07.36.08.48.3.24.52.63.93.66.19.01.27.05.32.2.06.2.22.3.37.41.65.48,1.29.98,1.95,1.46.68.5,1.23,1.11,1.71,1.8.15.21.3.42.46.63-.02-.48-.23-.86-.37-1.27-.16-.45-.51-.74-.8-1.08-.27-.32-.69-.5-.95-.94.54.15.79.59,1.23.75-.72-1.07-1.58-1.99-2.75-2.7.23-.08.33.11.51-.03-.92-.6-1.84-1.15-2.7-1.78-.89-.64-1.6-1.47-2.36-2.38Zm5.3-1.98c.15,2.21.82,4.28,1.73,6.27-.7-2.06-1.13-4.19-1.73-6.27Zm-4.97,4.49c.32.99.89,1.82,1.71,2.62-.06-.41.02-.76-.19-.98-.51-.54-.99-1.11-1.52-1.63Zm-1.5-8.87c-.24.67.21,1.85.94,2.46,0-.28.14-.56,0-.79-.34-.54-.55-1.15-.94-1.67Zm-.07,1.78c.16,1.27.9,2.22,1.71,3.23-.43-1.21-.97-2.27-1.71-3.23Zm2.24-4.95c.37-.29.39-.3.34-.42-.23-.54-.48-1.07-.75-1.68-.27.57-.1,1.3.41,2.1Zm2.65,15.9c-.12-.89-.48-1.33-1.22-1.56.08.77.53,1.24,1.22,1.56Zm-2.63-8.5c-.04-.35.21-.62.02-.88-.23-.32-.52-.61-.82-.95-.12.8.19,1.33.8,1.83Zm.84,5.77c.03-.07.07-.12.06-.13-.54-.78-1.34-1.34-1.79-2.2.22.68,1.01,1.73,1.74,2.33Zm3.14-20.82c-.24.61-.64,1.15-.75,1.81.33-.57.9-1.05.75-1.81Zm-4.74,6.58c-.05.67.26,1.71.61,2.17.19-.85-.55-1.41-.61-2.17Zm6.94,15.47c.11.67.17,1.34.64,1.87-.21-.62-.33-1.27-.64-1.87Zm-5.81-5.34c-.23-.48-.14-1.14-.82-1.46.26.54.36,1.09.82,1.46Zm2.84-15.88c.23-.48.48-.85.46-1.42-.57.96-.63.84-.46,1.42Z"/><path d="m106.24,88.91c.86-.75,1.65-1.56,2.48-2.38-.3.74-1.72,2.14-2.48,2.38Z"/><path d="m112.55,83.97c-.27.59-.58,1.14-1,1.62-.08.09-.19.23-.33.13-.18-.12-.05-.26.04-.38.37-.51.78-.99,1.29-1.37Z"/><path d="m107.78,89.37c-.13.51-.41.75-.75.92-.19.09-.42.15-.53-.11-.1-.22.06-.36.24-.44.31-.13.62-.23,1.04-.38Z"/><path d="m105.76,81.51c-.25.37-.52.73-.87,1.02-.09.07-.18.14-.28.19-.09.05-.19.04-.25-.05-.06-.09-.03-.18.05-.25.42-.34.84-.67,1.27-1.01.02.03.05.06.07.1Z"/><path d="m112.31,78.31c.27.45.05.87-.64,1.23.14-.48.41-.83.64-1.23Z"/><path d="m105.85,82.38c-.28.47-.61.88-1.16,1.15.08-.42.53-.86,1.16-1.15Z"/><path d="m107.25,87.43c-.18.38-.37.65-.64.85-.1.08-.23.17-.34.02-.08-.12,0-.21.09-.28.25-.21.49-.44.89-.59Z"/><path d="m106.93,90.82c.24-.4.62-.49,1.02-.67-.31.6-.5.73-1.02.67Z"/><path d="m105.94,83.27c-.15.44-.37.66-.62.86-.08.06-.18.08-.25,0-.08-.09-.05-.18.02-.25.2-.24.45-.42.85-.6Z"/><path d="m111.86,80.56c.07-.42.29-.71.54-1.04.14.5,0,.76-.54,1.04Z"/><path d="m107.92,91.12c-.1.39-.31.56-.59.64-.11.03-.23,0-.27-.13-.04-.1.02-.19.1-.23.21-.12.42-.23.76-.28Z"/><path d="m106.11,84.04c-.29.7-.45.83-.89.75.18-.35.47-.53.89-.75Z"/><path d="m111.28,86.68c.18-.33.44-.62.82-.92-.09.45-.36.75-.82.92Z"/><path d="m111.56,87.34c.2-.36.46-.61.74-.86-.02.48-.24.75-.74.86Z"/><path d="m111.36,88.28c.19-.3.36-.45.67-.58-.11.36-.23.57-.67.58Z"/><path d="m106.11,87.36c.15-.2.3-.37.6-.46-.12.34-.26.53-.6.46Z"/><path d="m105.42,85.52c.11-.31.3-.34.55-.4-.07.33-.2.46-.55.4Z"/><path d="m105.3,73.28c0,.36-.19.64-.38.92-.39.58-.82,1.13-1.38,1.56-.12.09-.27.18-.4.03-.14-.16,0-.29.11-.38.73-.65,1.36-1.41,2.05-2.13Z"/><path d="m104.1,75.98c.38-.65.85-1.22,1.43-1.68-.32.7-.66,1.38-1.43,1.68Z"/><path d="m105.6,75.55c-.17.51-.41.96-1.03,1.15.1-.37.51-.83,1.03-1.15Z"/><path d="m105.84,76.46c-.09.29-.18.59-.58.64q.14-.38.58-.64Z"/><path d="m97.53,76.21c.1-.02.19-.03.23.09.37,1.22,1.21,2.16,1.92,3.17.17.24.4.45.47.76-1.15-1.16-2.07-2.47-2.61-4.04h0Z"/><path d="m101.87,71.36c-.6-.56-.9-1.26-1.12-2.02.28-.11.39.02.46.17.27.6.54,1.19.66,1.84Z"/><path d="m101.15,68.54c.43.35.59.84.7,1.37-.44-.34-.57-.86-.7-1.37Z"/><path d="m102.65,70.44c.26-.15.36-.42.5-.66.11-.18.18-.41.38-.51.18.06.15.19.11.28-.12.33-.3.64-.51.93-.18.25-.36.26-.48-.07v.02Z"/><path d="m103,71.69c.06-.4.41-1.02.8-1.44-.09.71-.4,1.26-.8,1.44Z"/><path d="m103.76,71.35c-.03.44-.16.77-.4,1.07-.08.09-.18.16-.29.08-.11-.08-.09-.19-.02-.3.19-.29.33-.62.72-.85Z"/><path d="m100.91,27.97c-.08.31-.29.37-.53.37-1.74,0-3.13.78-4.39,1.89-.66.58-1.43.99-2.18,1.43-.76.46-1.26,1.09-1.39,1.97-.17,1.12-.59,2.11-1.47,2.87-.15.13-.15.27-.11.46.41,1.93-.11,3.64-1.25,5.19-.63.86-1.38,1.61-2.31,2.16-.3.17-.53.43-.74.7-1.77,2.41-4.23,3.39-7.13,3.48-.61.02-1.21-.02-1.82-.07-1.5-.14-2.95.13-4.37.56-.3.09-.55.1-.76-.15.01-.11.08-.18.15-.24.61-.5.72-1.17.7-1.9-.02-.84-.12-1.66-.23-2.49-.11-.85-.18-1.7-.2-2.55-.03-1.57.4-3,1.26-4.3.42-.64.72-1.33.89-2.07.29-1.22.95-2.22,1.87-3.06.94-.86,1.95-1.62,3.18-2.05.42-.15.61-.55.84-.9.5-.77,1.08-1.47,1.81-2.02,1.11-.83,2.32-1.31,3.74-1.26.98.04,1.96,0,2.93-.25,1.42-.38,2.82-.1,4.19.33.13.04.25.09.38.08,1.2-.1,2.27.37,3.34.78.39.15.76.34,1.14.51.63.27,1.26.52,1.98.42.14-.02.3-.02.45.11Zm-25.87,16.36c.03-.27-.06-.5-.18-.73q-.47.29-.28.81c.16,0,.3-.18.48-.08-.17.17-.29.39-.54.52-.13-.25-.09-.55-.27-.75-.26-.27,0-.76-.4-.96,0,0,.04-.13.07-.2.04-.11.06-.22-.03-.33-.35,0-.36.25-.34.51.12,1.52.32,3.05.09,4.57.15.03.22-.04.29-.1.55-.46,1.1-.93,1.66-1.38.54-.43.85-.91.91-1.65.07-.83-.04-1.53-.56-2.18-.49-.62-.81-1.32-.96-2.1-.15-.75-.17-1.5-.13-2.26,0-.13.08-.28-.06-.44-1.03,1.43-1.45,2.99-1.27,4.75.31-.19.36-.43.35-.72,0-.53,0-1.06.03-1.59,0-.14-.03-.31.2-.37.2.64-.06,1.31.13,1.96.55-.18.14-.69.41-.96-.08.48.81.74.27,1.32-.04.04.05.13.1.18.08.07.12.16.06.25-.17.26-.05.52,0,.77.1.49.21.98.32,1.51-.2-.11-.2-.3-.35-.36Zm23.31-16.21c-.36-.2-.69-.41-1.11-.41-1.35,0-2.7,0-4.02.31-2,.47-3.85,1.26-5.37,2.69-1.49,1.4-2.7,3.04-3.86,4.75.58-.47.82-1.21,1.45-1.59.08.12.07.2.03.26-1.33,1.73-2.44,3.59-3.6,5.44.05-.4.32-.71.38-1.09-.63.99-1.22,2.01-1.95,2.94-.72.93-1.45,1.85-2.21,2.81.56-.34.91-.82,1.26-1.28.36-.47.74-.91,1.14-1.34.08-.08.15-.23.36-.09-.93,1.2-1.69,2.53-2.93,3.6.66.08,1.18.16,1.71.2.85.06,1.7.17,2.55.01.6-.11,1.2-.21,1.79-.3.91-.14,1.77-.43,2.54-.94.8-.52,1.41-1.27,2.17-1.85.04-.03.09-.08-.01-.16-.33.02-.69.16-1.14.02.6-.29,1.11-.53,1.61-.79.38-.19.69-.45.75-.98-.66.38-1.27.73-2.1.66.27-.22.51-.32.75-.43.47-.21.92-.45,1.33-.76.23-.17.5-.34.48-.77-.87.53-1.7.98-2.71.95.32-.22.67-.4,1.02-.56.59-.26,1.15-.58,1.67-.97.19-.14.32-.29.17-.57-.62.68-1.37,1.03-2.22,1.2.74-.65,1.71-1.01,2.18-1.96-1.26.94-2.58,1.75-4.11,2.14-3.57.89-4,.95-4.58.73.02-.06.07-.08.12-.09,1.09-.15,2.15-.45,3.22-.71,1.42-.35,2.8-.81,4.02-1.67.19-.14.39-.26.5-.5-.29-.07-.56.08-.89-.08.77-.41,1.65-.5,2.14-1.26-.55.16-1.09.24-1.66.06.29-.14.58-.25.88-.32.39-.1.76-.23,1.11-.43.23-.13.42-.29.45-.64-.63.3-1.21.51-1.97.29.49-.25.91-.33,1.32-.49.67-.26.84-.4.92-.73-1.31.46-1.5.5-2.1.34.95-.46,2.02-.58,2.71-1.43-.55.14-1.08.32-1.61.52-.55.21-1.1.41-1.68.53-.56.12-1.12.2-1.69.22-.57.02-1.14.11-1.71-.08,2.08-.15,4.02-.73,5.83-1.74-.08-.16-.27-.07-.26-.27.3-.03.6-.07.9-.08.33,0,.59-.15.85-.35-.21-.15-.47-.09-.65-.32.42-.06.78,0,1.14.03.35.02.7.06.97-.32-.53-.14-1.06-.18-1.55-.54.86-.12,1.67.18,2.45-.08-.4-.12-.81-.18-1.22-.52.47-.1.86-.06,1.25-.04.36.02.73.03,1.05-.19.55-.37,1.13-.7,1.75-.99Zm-21.43,16.74c.12-.02.17-.13.24-.21,1.17-1.32,2.25-2.71,3.31-4.12.21-.28.25-.57.21-.91-.13-.96-.44-1.88-.7-2.81-.51-1.82-.64-3.65-.07-5.49.04-.14.11-.28.05-.47-.54.25-1.01.58-1.49.92-1.06.75-1.98,1.64-2.57,2.83-.4.81-.68,1.67-.64,2.56.02.68.06,1.36.09,2.04.04.95.3,1.83.84,2.61.63.91.99,1.87.69,2.99,0,.01.02.03.03.05Zm8.27-11.8c-.91-1.61.02-4.62,1.98-6.46-.17-.12-.36-.1-.54-.1-2.4.07-4.16,1.22-5.43,3.21-.24.38-.47.77-.61,1.22-.53,1.77-.55,3.54-.12,5.34.25,1.04.77,2.01.65,3.14,1.41-2.12,2.46-4.42,4.07-6.35Zm7.29-6.62c-.29-.21-.67-.25-1.05-.27-1.34-.07-2.59.25-3.8.79-.47.21-.83.54-1.1.96-.72,1.13-1.12,2.35-1.1,3.7,0,.29.03.59.04.93.28-.19.41-.41.57-.59,1.27-1.49,2.68-2.78,4.52-3.53.12-.05.25-.11.34-.2.53-.59,1.05-1.18,1.57-1.78Zm-18.94,21.95c1.14-.41,2.3-.51,3.48-.5.53,0,1.09.12,1.58-.02.5-.13.96-.07,1.44-.07.5,0,.99-.05,1.55-.24-.33-.19-.67-.14-.92-.45.62,0,1.17.02,1.71,0,.69-.02,1.12-.19,1.46-.58-.84.06-1.65.13-2.41-.24.5-.16,1.01-.18,1.52-.2.53-.03,1.06-.07,1.58-.19.26-.06.52-.13.78-.41-1.22.23-2.34.41-3.48.41-1.3,0-2.56-.28-3.83-.45-.34-.04-.57.03-.82.25-.41.37-.83.72-1.32.98-.86.46-1.6,1.07-2.32,1.7Zm23.1-21.07c-.6-.39-1.19-.88-1.9-.22-.05-.21.22-.26.1-.47-.23.33-.66.41-.93.82.96-.1,1.84-.13,2.72-.13Zm-4.61.51c.34-.06.74-.05.79-.23.13-.46.53-.6.91-.96-.8.16-1.24.62-1.71,1.19Zm1.79-.81c-.32.13-.55.27-.75.51.44.1.63-.12.75-.51Zm-19.17,15.83q-.35.21-.25.52.35-.2.25-.52Z"/><path d="m86.42,38.17c-1.01.41-2.05.73-3.15.76-.06,0-.11,0-.17,0-.14-.02-.34,0-.33-.22.01-.17.19-.16.32-.16,1.11-.05,2.21-.26,3.33-.37Z"/><path d="m87.92,30.96c.65-.82,2.28-1.82,3.37-2.05-.21.24-.53.32-.81.47-.3.16-.61.31-.9.49-.27.17-.53.37-.8.54-.28.18-.51.43-.86.55Z"/><path d="m83.55,41.67c-.65.27-1.22.32-1.8.22-.15-.02-.32-.08-.31-.27.01-.21.19-.2.35-.18.55.05,1.11.07,1.76.23Z"/><path d="m83.88,40.84c-.45.23-.91.34-1.38.33-.15,0-.3-.02-.45-.06-.11-.03-.2-.12-.17-.26.03-.13.13-.18.25-.17.36.03.72.06,1.07.1.22.02.45.04.67.07Z"/><path d="m82.6,42.67c-.37.15-.75.23-1.14.16-.14-.03-.33-.04-.3-.25.03-.17.19-.15.32-.13.37.04.75.07,1.11.23Z"/><path d="m85.06,43.12c-.43.26-.8.26-1.17.27-.09,0-.19-.04-.19-.16,0-.09.05-.14.13-.15.37-.07.75-.19,1.23.05Z"/><path d="m81.85,43.36c-.33.15-.67.22-1.03.17-.11-.01-.23-.05-.23-.2,0-.15.12-.19.23-.19.35,0,.69.07,1.02.21Z"/><path d="m86.57,34.75c-.57.18-.88.12-1.15-.23.35-.1.67-.03,1.15.23Z"/><path d="m86.1,35.45c-.61.17-.69.15-.96-.22.37-.15.63.06.96.22Z"/><path d="m79.8,44.13c.43-.12.7-.02,1.09.1-.41.17-.7.26-1.09-.1Z"/><path d="m88.97,31.45c-.31.17-.56.11-.88-.06.35-.17.6-.22.88.06Z"/><path d="m88.46,31.96c-.31.21-.62.11-.93.04.3-.19.61-.2.93-.04Z"/><path d="m85.34,36.15c-.24.15-.41.09-.53-.11-.03-.06-.02-.16.07-.18.24-.04.35.12.46.29Z"/><path d="m77.69,40.28c-.71-.91-.76-2-.91-3.07-.42.27-.49.39-.41.86.15.93.32,1.87.66,2.76.05.12.13.24.05.4-.24-.1-.27-.35-.35-.54-.48-1.19-.75-2.42-.81-3.7,0-.19.03-.41-.36-.29.51-.72.41-1.53.65-2.26.06-.18.09-.36.22-.51.68-.82,1.59-1.26,2.61-1.5.09-.02.19-.02.28,0,.05,0,.09.05.13.08,0,.23-.18.23-.32.26-.84.21-1.58.62-2.27,1.14-.2.15-.39.3-.25.61.39-.28.76-.53,1.12-.8.18-.14.3-.11.47.08-.35.25-.31.64-.3,1,.03,1.12.14,2.23.3,3.34.03.18.1.37.05.56-.23-.33-.29-.5-.4-1.4-.06-.49-.11-.98-.15-1.47-.04-.51-.05-1.02-.07-1.53-.18-.02-.29.09-.4.17-.14.1-.27.22-.23.42.04.23.28.03.37.18.04.1-.03.17-.11.22-.24.18-.29.41-.27.7.08,1.36.17,2.72.64,4.03.03.09.04.18.07.27Zm-1.01-4.48c-.58.41-.41.9-.38,1.39.59-.35.45-.84.38-1.39Zm-.28-.3c.29-.13.34-.31.27-.64-.25.18-.3.36-.27.64Z"/><path d="m79.53,39.23c-.89-1.51-1.35-5.23-.75-6.24-.07,2.19.08,4.25.75,6.24Z"/><path d="m83.42,30.17c-.41.18-.54.51-.57.95-.05.85-.11,1.7-.04,2.56,0,.12.05.26-.07.43-.32-1.14-.25-2.26-.15-3.4-.49.09-.64.37-.68.81-.1,1.18-.09,2.35.01,3.52.02.18.06.36,0,.56-.17-.13-.14-.29-.17-.43-.24-1.49-.2-2.98,0-4.47.02-.13.07-.26-.06-.36-.1-.08-.08-.17,0-.24.21-.24.27-.54.36-.83.06-.19.09-.41.4-.35.13.03.21-.15.31-.23.6-.49,1.27-.82,2.01-1.04.05-.02.11-.03.17-.04.13-.02.29-.04.33.13.03.13-.09.2-.2.24-.25.09-.5.18-.75.27-.28.1-.48.24-.33.59.02.05.06.11.05.16-.42,1.24-.26,2.55-.43,3.81,0,.01-.02.03-.09.1-.12-.58-.11-1.11-.1-1.65,0-.35.13-.71.02-1.07.13-.25.14-.51.07-.78-.36.08-.53.26-.46.59.14.07.27.13.4.2Zm-.75-.31q-.54.17-.54.62c.23-.18.58-.21.54-.62Zm.22-.89c-.34.13-.58.18-.67.53.29-.09.47-.2.67-.53Z"/><path d="m81.29,30.31c-.12,1.79-.39,3.56-.1,5.43-.6-1.03-.54-4.7.1-5.43Z"/><path d="m84.21,31.52c-.26-1.09-.01-2.86.54-3.31-.3,1.16-.33,2.24-.54,3.31Z"/><path d="m86.27,30.12c.12-1.03.5-1.94,1.15-2.72.14.07.17.14.14.18-.46.83-.88,1.68-1.29,2.54Z"/><path d="m88.33,27.13c-.4.87-.94,1.66-1.32,2.65-.06-.81.71-2.33,1.32-2.65Z"/><path d="m89.19,26.76c-.45.87-.9,1.74-1.35,2.6-.03-.02-.07-.03-.1-.05.3-.94.68-1.85,1.32-2.63.05.03.09.05.14.08Z"/><path d="m89.82,26.7c-.19.69-.58,1.18-.93,1.74-.04-.48.43-1.38.93-1.74Z"/><path d="m89.91,27.71c.03-.37.16-.69.52-.96.03.47-.23.72-.52.96Z"/><path d="m78.88,46.33c-.46.07-.91.05-1.33-.16-.13-.06-.24-.15-.18-.31.06-.17.21-.15.33-.1.41.15.81.3,1.17.57Z"/><path d="m77.85,46.77c-.64.1-.86,0-1.07-.48.44,0,.75.19,1.07.48Z"/><path d="m76.25,46.92c.26-.05.46.05.66.22-.5.17-.52.16-.66-.22Z"/><path d="m75.96,43.99c-.35-.48-.46-1.03-.54-1.59.36.47.47,1.02.54,1.59Z"/></svg>