<?xml version="1.0" encoding="UTF-8"?><svg id="Layer_1" xmlns="http://www.w3.org/2000/svg" viewBox="0 0 144.57 144.57"><path d="M48.47,127.19c.05-1.9.2-3.8.41-5.7.21-1.89.49-3.78.82-5.66.09-.47.17-.94.26-1.41l.29-1.4.07-.35.04-.18.04-.17.16-.7.16-.7.08-.35.04-.17.04-.17.36-1.38c.06-.23.12-.46.19-.69l.2-.69.41-1.37c.15-.45.3-.91.45-1.36.6-1.82,1.28-3.6,1.99-5.37l.13-.33.14-.33.28-.66.55-1.32,1.14-2.62,1.18-2.6,1.21-2.59,1.24-2.57,1.26-2.56c1.7-3.41,3.46-6.79,5.25-10.15.9-1.68,1.8-3.35,2.71-5.02.11-.21.23-.42.33-.63l.16-.31c.03-.05.05-.1.08-.16l.07-.16.15-.32.07-.16.07-.16.13-.32c.04-.11.09-.22.13-.33.34-.87.62-1.77.87-2.68.25-.91.46-1.83.65-2.76.19-.93.34-1.86.49-2.8.29-1.87.51-3.76.7-5.65l.29-2.84c.05-.47.1-.95.16-1.42.06-.47.12-.95.21-1.42.01-.06.02-.12.03-.18l.04-.18c.02-.12.06-.23.09-.35.03-.11.06-.23.1-.34l.11-.34c.16-.45.33-.9.53-1.33.2-.43.43-.85.68-1.26.25-.41.52-.8.82-1.17-.15.19-.28.38-.41.58l-.1.15-.09.15c-.06.1-.12.21-.18.31-.23.41-.44.84-.62,1.28-.19.43-.35.88-.49,1.33l-.1.34c-.03.11-.06.23-.09.34-.03.11-.06.23-.08.34l-.03.17c-.01.06-.02.12-.03.17-.07.47-.12.94-.16,1.41-.04.47-.08.95-.12,1.42l-.21,2.85c-.15,1.9-.33,3.8-.59,5.69-.25,1.89-.59,3.78-1.06,5.64-.24.93-.51,1.85-.85,2.76-.17.45-.35.9-.55,1.34l-.07.17c-.03.05-.05.11-.08.16l-.16.33c-.11.22-.22.42-.33.64-.89,1.68-1.78,3.36-2.67,5.04-1.77,3.37-3.51,6.75-5.2,10.15-1.7,3.4-3.35,6.83-4.92,10.29-1.57,3.46-3.05,6.96-4.32,10.53-.15.45-.31.89-.46,1.34l-.42,1.36-.21.68c-.07.23-.13.46-.19.68l-.39,1.37c-.48,1.83-.94,3.68-1.3,5.54-.38,1.86-.7,3.73-.97,5.62l-.19,1.41c-.06.47-.11.94-.16,1.42-.1.95-.19,1.89-.25,2.84Z"/><path d="M57.69,92.8c.67-.99,1.38-1.96,2.1-2.92.72-.96,1.45-1.91,2.19-2.85.74-.94,1.5-1.87,2.27-2.79l.29-.35c.1-.12.19-.23.29-.35l.3-.35c.1-.11.21-.22.31-.33.05-.06.1-.11.16-.17l.16-.16c.11-.11.22-.22.33-.32l.34-.31c.11-.1.23-.2.35-.3l.18-.15.18-.14c.12-.09.24-.19.37-.28l.37-.27c.12-.09.25-.17.38-.26.51-.33,1.04-.64,1.58-.92,1.09-.56,2.22-1,3.39-1.34,1.17-.34,2.36-.57,3.56-.71,1.2-.13,2.41-.16,3.61-.06-2.4.11-4.75.55-6.99,1.31-2.24.76-4.35,1.87-6.16,3.36-.11.09-.23.18-.34.28l-.33.29c-.11.1-.21.2-.32.3l-.16.15-.15.16c-.1.11-.21.21-.31.32l-.29.33c-.1.11-.2.22-.29.34l-.29.34-2.35,2.71c-1.57,1.81-3.14,3.62-4.73,5.41Z"/><path d="M60.01,88.58c.03-.27.06-.54.08-.82.02-.27.05-.54.06-.82.02-.27.03-.54.05-.82.02-.27.02-.54.04-.82l.03-.82v-.82c.01-.27.01-.54.01-.82,0-.27,0-.54-.01-.82,0-.27-.02-.54-.03-.81-.01-.27-.02-.54-.04-.81l-.05-.81-.07-.81c-.02-.27-.05-.54-.08-.81l-.08-.81-.04-.41-.03-.41c-.01-.14-.02-.28-.02-.41l-.02-.41c-.03-1.1,0-2.21.09-3.3.09-1.1.21-2.19.39-3.27.17-1.08.37-2.16.61-3.23.24-1.07.51-2.13.84-3.18-.2,1.08-.38,2.15-.54,3.23-.08.54-.16,1.08-.23,1.62l-.11.81c-.03.27-.07.54-.1.81-.24,2.16-.4,4.33-.34,6.49l.02.4c0,.13.01.27.02.4l.03.4.04.4.07.82c.02.27.05.55.07.82l.05.82c.01.27.02.55.03.82.01.27.01.55.01.82,0,.27,0,.55,0,.82,0,.27-.01.55-.02.82-.01.27-.02.55-.04.82l-.06.82-.08.82c-.07.54-.13,1.09-.22,1.63-.04.27-.09.54-.14.81-.05.27-.11.54-.17.8Z"/><path d="M66.9,74.29s1.15-2.61,3.59-4.59c2.44-1.98,2.05-5.16,3.29-7.04,1.24-1.88,1.18-2.37.41-2.18s-4.64,2.9-4.9,6.36c-.26,3.47-2.39,7.45-2.39,7.45Z"/><path d="M68.85,91.34c-.12-.04-.21-.11-.28-.2-.25-.34-.07-.83.34-1.91.07-.2.16-.41.24-.65.37-1,.55-1.78.74-2.6.27-1.17.56-2.38,1.41-4.33.62-1.42,2.27-2.59,4.89-3.48,1.88-.64,3.62-.89,3.71-.91.07-.01.68-.1,1.42.32.41.23.3.73.26.9-.08.35-.27.81-.51,1.39-.42,1.03-1,2.44-1.45,4.35-.55,2.34-2.54,4.05-4.12,5.08-1.97,1.28-4.02,1.96-5.1,2.05-.77.06-1.26.09-1.57-.03ZM80.76,77.83c-.45-.17-.78-.11-.78-.11h0c-.07.01-6.88.99-8.25,4.13-.84,1.91-1.12,3.1-1.39,4.25-.2.83-.38,1.62-.76,2.65-.09.24-.17.45-.24.65-.27.72-.51,1.34-.4,1.48.12.16.95.09,1.45.05,1.02-.08,2.98-.74,4.89-1.98,1.51-.98,3.41-2.61,3.93-4.81.45-1.94,1.04-3.37,1.47-4.42.37-.9.66-1.6.44-1.73-.12-.07-.23-.12-.34-.16Z"/><path d="M81.21,77.79c-.15.09-.29.19-.43.28-.14.1-.28.2-.41.3-.27.21-.53.42-.79.65-.13.11-.25.23-.38.34-.12.12-.25.24-.37.36-.12.12-.24.24-.35.37-.11.13-.23.25-.34.38l-.33.39-.31.4c-.2.27-.4.55-.59.83-.39.56-.78,1.12-1.18,1.68-.8,1.11-1.64,2.2-2.52,3.24-.44.52-.9,1.03-1.39,1.52l-.37.36-.38.34c-.13.11-.27.22-.4.32-.03.03-.07.05-.1.08l-.11.07-.21.14.2-.16.1-.08s.07-.05.1-.08c.13-.11.26-.22.38-.34l.36-.36.35-.37c.12-.12.23-.25.34-.38l.17-.19.17-.2c.11-.13.22-.26.33-.39l.32-.4c.43-.53.85-1.07,1.26-1.61.21-.27.41-.55.61-.82.2-.28.4-.55.6-.83.4-.55.8-1.11,1.19-1.67.19-.28.4-.56.61-.83l.32-.4.34-.39c.46-.51.97-.98,1.5-1.41.27-.21.54-.42.82-.61.28-.19.57-.38.87-.54Z"/><path d="M76.02,79.01c-.24.07-.48.15-.7.25-.23.09-.45.2-.67.32-.43.24-.84.51-1.21.84-.19.16-.36.33-.52.51-.17.18-.32.38-.46.57-.28.4-.53.84-.74,1.29.12-.49.33-.95.59-1.39.07-.11.14-.22.21-.32l.11-.15.12-.15c.17-.19.34-.38.54-.54.19-.17.4-.32.61-.46.21-.14.44-.26.67-.37.23-.11.47-.2.71-.27.24-.07.49-.13.74-.15Z"/><path d="M78.73,84.56c-.16.41-.39.79-.64,1.15-.25.36-.53.7-.84,1.02-.6.64-1.3,1.19-2.04,1.68-.74.48-1.5.9-2.29,1.3-.39.19-.79.38-1.2.54-.1.04-.2.08-.31.12l-.15.06-.16.05c-.21.07-.42.13-.64.16.11-.03.21-.06.31-.1.05-.02.1-.04.15-.06.05-.02.1-.04.15-.06.2-.08.4-.17.6-.27.39-.18.78-.39,1.16-.59.19-.11.38-.21.57-.32l.28-.16.28-.17c.19-.11.38-.22.56-.34.09-.06.19-.11.28-.17l.27-.18.14-.09s.09-.06.14-.09l.27-.19c.18-.12.35-.26.52-.39.09-.06.17-.13.25-.2l.25-.21.24-.22.12-.11.12-.11c.08-.08.15-.15.23-.23l.22-.24c.08-.08.14-.16.22-.24.07-.08.14-.17.21-.25.27-.34.52-.7.73-1.08Z"/><path d="M80.93,78.56c-.35.31-.69.65-1,1-.32.35-.63.7-.92,1.07-.29.37-.58.74-.85,1.13-.28.38-.54.77-.79,1.17l-.39.6c-.13.2-.27.39-.4.59-.14.19-.28.39-.42.57l-.22.28-.22.28c-.3.37-.61.72-.94,1.07-.17.17-.33.34-.51.5-.17.16-.35.32-.54.46.17-.16.34-.33.5-.51.16-.17.32-.35.47-.53.31-.36.6-.73.89-1.1.57-.75,1.1-1.53,1.6-2.33.26-.4.52-.79.81-1.18.07-.1.14-.19.21-.29l.22-.28c.07-.09.15-.19.22-.28.08-.09.15-.18.23-.27.31-.36.64-.7.98-1.04.34-.33.7-.65,1.08-.92Z"/><path d="M80.99,77.82c-.06-.02-.11-.04-.17-.07-.04-.02-.17-.09-.23-.29-.14-.43.11-1.18.74-2.21.35-.57.58-1.48.85-2.53.61-2.4,1.37-5.39,4.11-6.66,4.02-1.86,7.56-2.47,8.89-2.65.92-.12,1.36.2,1.57.49.46.64.29,1.76-.49,3.33-.29.57-.52,1.25-.77,1.96-.88,2.52-1.97,5.65-6.18,6.48-2.42.48-4.03,1.13-5.22,1.61-1.31.53-2.19.89-3.11.55ZM81.03,77.36c.8.35,1.55.05,2.9-.5,1.2-.48,2.84-1.15,5.3-1.63,3.95-.78,4.96-3.65,5.84-6.19.25-.73.5-1.42.79-2.02.92-1.85.73-2.59.53-2.87-.25-.35-.76-.36-1.15-.31-1.31.18-4.8.78-8.76,2.61-2.55,1.18-3.28,4.06-3.87,6.37-.28,1.09-.51,2.02-.9,2.65-.87,1.43-.71,1.83-.68,1.88Z"/><path d="M89.12,87.21c-1.08-.4-2.2-.89-3.33-1.5-2.75-1.48-3.85-3.4-4.3-4.75-.46-1.4-.33-2.47-.31-2.61.01-.26.03-.46.18-.59.18-.15.41-.13.94-.08.17.02.36.03.59.05.41.03,1.11-.02,2-.09,2.06-.15,5.17-.37,8.64.06,3.23.41,3.98,1.78,4.93,3.52.54,1,1.15,2.12,2.38,3.26,2.83,2.62,2.58,4.57,2.45,5.51-.02.16-.04.31-.03.38.03.2-.04.31-.11.37-.23.2-.63.06-1.68-.32-.64-.23-1.52-.54-2.62-.86-.84-.24-1.82-.43-2.95-.64-1.98-.37-4.29-.81-6.78-1.73ZM81.62,78.41s-.16,1.07.3,2.44c.42,1.26,1.47,3.07,4.08,4.47,3.68,1.98,7.18,2.65,9.99,3.18,1.15.22,2.13.4,2.99.65,1.11.32,2,.63,2.64.86.51.18.99.35,1.2.38,0-.12.01-.27.03-.45.11-.86.35-2.66-2.31-5.13-1.28-1.18-1.91-2.34-2.46-3.37-.92-1.69-1.58-2.92-4.59-3.29-3.42-.43-6.51-.21-8.55-.06-.91.07-1.63.12-2.07.09-.24-.02-.44-.04-.6-.05-.27-.03-.53-.05-.6-.02-.02.05-.03.23-.03.29v.03Z"/><path d="M81.53,77.91c.66.72,1.41,1.35,2.22,1.9.8.55,1.67,1.01,2.57,1.37.45.18.91.33,1.38.46.23.07.47.12.71.17l.36.08.36.09c.95.26,1.88.58,2.79.93.23.09.46.18.68.27.23.1.45.19.68.29l.34.15.33.15c.22.1.44.21.67.31.44.21.88.43,1.31.66.44.22.86.46,1.29.71.42.25.84.5,1.26.76.41.27.82.55,1.21.84.39.3.77.61,1.12.95.35.34.68.71.91,1.14-.13-.21-.27-.41-.44-.58-.04-.05-.08-.09-.12-.14l-.13-.13s-.09-.09-.13-.13l-.14-.12c-.36-.33-.75-.62-1.15-.91-.4-.28-.81-.55-1.22-.8-.42-.25-.84-.5-1.26-.74-.85-.47-1.72-.91-2.61-1.33-.88-.41-1.78-.8-2.69-1.15-.45-.18-.91-.34-1.37-.5-.46-.16-.93-.3-1.39-.43l-.35-.1-.35-.09c-.24-.06-.48-.11-.71-.18-.47-.13-.94-.3-1.39-.49-.91-.38-1.77-.87-2.56-1.45-.4-.29-.78-.6-1.14-.93-.36-.33-.71-.68-1.02-1.06Z"/><path d="M81.4,77.29c.24-.29.49-.57.75-.84.26-.27.52-.55.78-.81.53-.53,1.08-1.05,1.65-1.55l.43-.37c.14-.12.29-.24.44-.36.29-.24.59-.47.89-.69.59-.46,1.18-.92,1.77-1.39.58-.47,1.16-.95,1.73-1.43.57-.48,1.14-.97,1.7-1.47.56-.5,1.12-1,1.66-1.52.54-.52,1.07-1.05,1.58-1.6-.95,1.16-2.02,2.23-3.12,3.25l-.41.38-.42.38c-.14.13-.28.25-.42.37-.14.12-.28.25-.42.37-.57.49-1.15.97-1.73,1.45-.59.47-1.18.94-1.78,1.39-.3.23-.6.45-.9.68-.15.12-.29.23-.44.35l-.43.36c-.57.48-1.13.98-1.68,1.49-.55.51-1.08,1.04-1.61,1.58Z"/><path d="M89.06,74.71c.15-.04.3-.09.45-.15.15-.06.29-.12.43-.19.28-.14.55-.3.81-.47.52-.35.99-.76,1.42-1.21.43-.45.8-.95,1.14-1.48.34-.53.64-1.08.92-1.65-.19.6-.45,1.19-.77,1.74l-.12.21-.13.2c-.08.14-.18.26-.27.4-.05.06-.1.13-.15.19l-.07.09-.08.09-.15.18-.16.18c-.22.23-.45.45-.7.66-.25.2-.51.39-.79.55-.27.17-.56.31-.86.42-.15.06-.3.11-.45.15-.15.04-.31.08-.47.09Z"/><path d="M83.51,70.75c.06-.3.16-.6.28-.88.12-.28.27-.56.44-.82.33-.53.74-1.01,1.22-1.41.24-.2.49-.39.75-.56.13-.09.27-.16.4-.24.07-.04.14-.07.21-.11.07-.03.14-.07.21-.1.57-.25,1.17-.43,1.78-.53-.59.18-1.16.41-1.7.68-.07.03-.13.07-.2.11-.07.04-.13.07-.2.11-.13.08-.26.16-.38.24-.06.04-.13.08-.19.13l-.18.13c-.06.04-.12.09-.18.14l-.09.07-.09.07c-.12.1-.23.2-.34.3l-.16.16c-.05.05-.1.11-.15.17-.21.22-.39.46-.57.71-.17.25-.34.51-.48.77-.14.27-.28.55-.38.84Z"/><path d="M85.9,72.31c.52-.5,1.04-.99,1.57-1.48.26-.24.53-.48.8-.72l.81-.72.81-.71c.27-.23.54-.47.82-.7.55-.47,1.09-.93,1.65-1.39-.5.52-1.01,1.02-1.54,1.52-.26.25-.53.49-.79.73-.27.24-.54.48-.8.72l-.81.71c-.27.23-.55.47-.82.7-.55.46-1.11.91-1.69,1.35Z"/><path d="M83.98,79.23c.1.07.21.13.32.19l.17.08.17.08c.23.1.46.2.69.28.12.04.23.09.35.13.12.04.23.08.35.12l.36.11.36.11c.12.04.24.07.36.1.12.03.24.07.36.1.24.06.48.13.72.19.24.06.48.12.73.18.24.06.49.12.73.2l.36.11c.12.04.24.08.36.12l.36.12.35.13c.47.18.93.38,1.38.6.45.22.89.46,1.33.71.43.26.85.53,1.25.84-.85-.53-1.74-.98-2.65-1.39-.46-.2-.92-.39-1.38-.56l-.35-.13-.35-.12c-.12-.04-.23-.08-.35-.12l-.36-.11c-.24-.08-.48-.14-.72-.2-.24-.07-.48-.13-.73-.19-.24-.06-.48-.14-.72-.2-.24-.07-.48-.15-.72-.23-.48-.16-.95-.33-1.41-.53-.23-.1-.46-.21-.68-.33-.22-.12-.44-.25-.63-.41Z"/><path d="M83.7,82.55c.09.2.23.37.37.54.07.08.14.17.22.24l.11.11s.08.08.12.11l.24.21s.04.04.06.05l.06.05.13.1c.09.06.17.13.26.2l.27.18c.09.06.18.12.27.18l.28.17.28.17c.09.05.19.1.29.15l.29.15c.1.05.19.1.29.15l.59.27.15.07.15.06.3.12c.2.08.4.17.6.24l.61.22.31.11c.05.02.1.04.15.06l.16.05.62.2.31.1.16.05.16.04c.42.12.84.24,1.25.37-.43-.08-.85-.18-1.28-.27l-.16-.04-.16-.04-.32-.08-.63-.17c-.21-.05-.42-.13-.63-.2l-.62-.21-.08-.03-.08-.03-.15-.06-.31-.12-.31-.12-.15-.06-.15-.07-.6-.28c-.1-.04-.2-.1-.29-.15l-.29-.16c-.1-.05-.19-.1-.29-.16l-.28-.18-.28-.18c-.09-.06-.18-.13-.27-.19l-.27-.19c-.09-.07-.17-.14-.25-.21l-.13-.11-.06-.05s-.04-.04-.06-.06l-.24-.23s-.08-.08-.11-.12l-.11-.12c-.07-.08-.14-.17-.2-.26-.13-.18-.25-.37-.32-.57Z"/><path d="M91.19,78.66c.46-.11.93-.17,1.4-.2.24-.01.47-.02.71-.01.24,0,.48.03.71.06.24.03.47.08.71.14.12.03.23.07.34.11.11.05.23.09.33.14.44.21.83.53,1.11.94.26.4.5.81.71,1.24.21.43.4.86.6,1.28.05.11.11.21.16.31.05.1.12.2.18.3.06.1.13.19.2.29l.11.14.05.07s.04.04.06.07c.31.35.67.65,1.06.92-.41-.23-.81-.5-1.14-.84-.04-.04-.08-.09-.12-.13l-.12-.14c-.08-.09-.15-.19-.22-.29-.06-.1-.13-.2-.19-.3-.06-.1-.12-.21-.18-.31-.23-.42-.42-.85-.64-1.26-.21-.42-.45-.82-.71-1.21-.13-.19-.28-.35-.45-.5-.17-.15-.37-.27-.57-.37-.1-.05-.21-.1-.31-.14-.11-.04-.22-.08-.33-.11-.22-.07-.45-.12-.68-.16-.46-.08-.93-.11-1.4-.11-.47,0-.94.03-1.41.1Z"/><path d="M95.39,87.98c.47,0,.93.04,1.4.08.23.02.46.06.69.09.23.04.46.07.69.12.23.04.46.09.69.15.23.06.45.11.68.19.22.07.44.15.66.23.11.05.22.09.32.14.1.06.21.11.31.17-.44-.16-.89-.27-1.34-.38-.45-.1-.9-.2-1.36-.28-.23-.05-.46-.08-.68-.13l-.68-.12c-.46-.08-.91-.16-1.37-.26Z"/><path d="M91.55,83.72c.72.19,1.43.44,2.13.71.7.27,1.38.58,2.06.91.33.17.67.35.99.53.08.05.16.1.24.14.08.05.16.1.24.15l.24.15.23.16c.62.42,1.22.89,1.73,1.44-.58-.48-1.19-.9-1.82-1.29-.32-.19-.64-.38-.97-.56-.33-.18-.66-.35-.99-.52-.33-.17-.67-.33-1.01-.49-.34-.16-.68-.31-1.02-.46-.68-.3-1.37-.59-2.07-.87Z"/><path d="M83.27,76.27c.32-.33.66-.64,1-.94.17-.15.35-.3.52-.45.18-.15.36-.29.54-.43.18-.14.37-.28.55-.41.19-.13.37-.27.57-.39.38-.25.77-.5,1.19-.7l-1.09.84-1.08.84-.54.42c-.18.14-.36.28-.55.42-.36.28-.73.55-1.11.81Z"/><path d="M50.23,114.04s2.41-4.56,1.16-7.25-2.36-4.45-3.26-4.1c-.9.34.46,3.85.8,6.52.34,2.67,1.3,4.84,1.3,4.84Z"/><path d="M57.08,94.15s2.4-5.14,1.76-7.35c-.64-2.21-.27-3.52-1.02-3.38-.75.14-.79,3.22-.51,5.28.28,2.06-.23,5.45-.23,5.45Z"/><path d="M61.52,63.35s.47-1.13.98-2.88.53-6.57-1.16-7.78c0,0,1.08,2.26-.35,4.77s-1.63,4.17.53,5.89Z"/><path d="M61.83,61.62c.18-.11.35-.21.52-.33.17-.12.34-.23.5-.36.16-.12.32-.25.48-.38.08-.07.15-.13.23-.2.07-.07.15-.14.22-.21.14-.14.28-.29.4-.45l.09-.12s.06-.08.08-.12c.03-.04.05-.08.07-.12l.07-.13c.17-.35.28-.74.34-1.13.06-.39.08-.79.06-1.19-.02-.39-.09-.79-.22-1.15-.13-.36-.33-.69-.61-.9-.04-.03-.07-.05-.11-.07l-.13-.08-.27-.15-.53-.3c-.18-.1-.35-.2-.52-.26-.08-.03-.16-.05-.2-.04-.01,0-.02,0-.03,0,0,0-.02,0-.03.01,0,0-.01,0-.02,0,0,0-.01.01-.02.01l-.06.05c-.07.05-.13.07-.18.1-.06.02-.11.04-.16.06l-.29.09c-.19.06-.37.13-.54.21-.34.16-.64.4-.87.71-.12.15-.21.32-.3.49-.04.09-.08.18-.12.27-.03.09-.07.18-.09.28-.22.77-.32,1.58-.25,2.38.03.4.11.8.24,1.18.13.38.31.76.59,1.06-.16-.13-.29-.3-.41-.47l-.08-.13s-.05-.09-.08-.14c-.02-.05-.05-.09-.07-.14l-.06-.14c-.17-.38-.28-.79-.34-1.2-.06-.41-.08-.83-.06-1.25,0-.1.01-.21.02-.31l.04-.31v-.08s.03-.08.03-.08l.03-.15c.02-.1.04-.21.07-.31.1-.41.27-.82.53-1.18.13-.18.28-.34.45-.49.17-.14.36-.26.55-.37.19-.1.4-.18.6-.24l.29-.09s.09-.03.13-.05c.04-.02.07-.03.09-.04,0,0,0,0,0,0h0s.01,0,.01,0l.04-.03s.03-.02.04-.03l.05-.03s.07-.03.11-.05c.04-.02.08-.02.12-.03.08,0,.15,0,.22.01.04,0,.06.02.09.02.03,0,.06.02.09.03.22.09.4.19.58.29l.53.31.27.15.13.08s.1.06.15.1c.19.14.35.32.47.51.12.19.22.39.28.6.14.42.2.84.21,1.27.01.43-.03.85-.11,1.26-.04.21-.1.41-.17.61-.07.2-.15.4-.26.59-.03.05-.05.09-.08.14-.03.04-.06.09-.09.13-.03.04-.07.09-.1.13l-.11.12c-.07.08-.14.15-.22.23-.07.08-.15.14-.23.21-.32.27-.65.52-1,.74-.35.22-.71.42-1.09.59Z"/><path d="M63.54,54.29c-.04-.12-.05-.24-.05-.36,0-.06,0-.12.01-.18,0-.06.02-.12.03-.18.05-.24.14-.48.25-.7.11-.22.25-.43.39-.63.15-.2.32-.38.5-.55.18-.17.37-.33.58-.47.2-.14.41-.28.63-.4.22-.12.44-.23.68-.32.12-.04.24-.09.36-.12.13-.03.25-.06.4-.06.07,0,.15,0,.25.05.05.02.1.07.14.13,0,.02.02.03.02.05,0,.02.01.04.01.05,0,.01,0,.03,0,.04v.03c0,.09-.02.15-.04.22-.02.06-.04.13-.06.19-.09.24-.19.46-.3.68-.23.44-.47.86-.74,1.27-.27.41-.56.8-.88,1.17-.16.18-.33.36-.52.52-.09.08-.19.15-.3.22-.11.06-.22.12-.34.14.12-.04.22-.1.31-.18.09-.07.18-.16.26-.24.16-.17.32-.36.46-.55.14-.19.28-.39.41-.59.13-.2.26-.41.38-.61.24-.42.48-.84.68-1.27.1-.22.2-.43.28-.65.02-.05.04-.11.05-.16.01-.05.02-.11.02-.14h0s0-.01,0-.01c0,0,0,0,0,0,0,0,0,0,0,0,0,0,0,0,0,0-.01,0-.06-.02-.1-.02-.1,0-.21.02-.32.05-.11.03-.22.06-.33.1-.22.08-.43.18-.64.29-.42.22-.82.48-1.18.78-.18.15-.35.32-.5.5-.15.18-.3.37-.42.57-.12.2-.23.42-.3.64-.02.06-.03.11-.05.17-.01.06-.03.12-.03.18-.02.12-.02.24,0,.36Z"/><path d="M61,54.24c-.65-.43-1.29-.87-1.97-1.23-.17-.09-.34-.17-.51-.24-.09-.03-.17-.07-.26-.1-.09-.03-.18-.05-.27-.07-.18-.04-.36-.07-.54-.07-.09,0-.17.01-.24.03-.03.01-.06.03-.08.04-.02.01-.02.02-.03.04,0,.01,0,.03,0,.06,0,.03.02.06.04.1,0,.02.02.03.03.05,0,.02.02.03.03.05.01.02.02.03.04.05l.04.06c.13.17.23.35.31.53.09.18.16.36.24.54.08.18.15.36.22.54.07.18.15.35.23.53.08.17.17.34.27.51.1.16.21.32.34.46.13.14.28.26.46.34-.19-.04-.37-.14-.53-.27-.16-.13-.29-.28-.41-.43-.24-.32-.43-.67-.6-1.02-.18-.35-.33-.71-.5-1.05-.09-.17-.18-.33-.29-.47l-.05-.06s-.03-.04-.05-.07c-.02-.02-.03-.04-.05-.07-.01-.02-.03-.05-.04-.08-.03-.05-.05-.11-.07-.18-.01-.07-.02-.15,0-.23.02-.08.08-.15.14-.2.06-.05.12-.07.18-.09.12-.04.23-.04.34-.04.22,0,.42.04.61.09.1.03.19.06.29.09.09.03.19.08.28.12.05.02.09.04.14.07.04.02.09.04.13.07.09.05.17.1.26.15.34.21.65.44.96.68.3.25.6.5.88.77Z"/><path d="M59.2,57.45c-.37-.23-.75-.43-1.15-.6-.2-.08-.4-.16-.6-.21-.2-.06-.41-.1-.62-.12-.21-.02-.41-.02-.62,0-.05,0-.1.02-.15.03-.05.01-.1.02-.15.04-.05.02-.09.03-.14.05l-.15.06c-.2.08-.4.16-.57.26-.04.02-.08.05-.11.08-.03.02-.06.06-.05.06,0,0,0-.02,0-.03,0,0,0,0,0,0,0,0,0,0,0,0,0,0,0,0,0,0,.01.01.05.04.09.05.08.04.18.07.28.1.1.03.2.05.31.07.21.05.42.09.64.13.21.04.43.09.64.14.21.05.43.11.64.19.21.08.42.17.61.33l.03.03.03.03.06.06s.04.05.06.07c.02.02.04.05.05.07.06.09.12.17.18.26.13.17.28.33.43.48.15.16.31.31.47.45-.18-.12-.36-.25-.53-.39-.17-.14-.34-.28-.49-.44-.04-.04-.08-.08-.11-.12-.04-.04-.07-.09-.11-.13-.02-.02-.03-.04-.05-.06-.02-.02-.03-.04-.05-.05l-.06-.05-.03-.02-.03-.02c-.16-.11-.36-.19-.56-.25-.4-.12-.83-.19-1.26-.26-.21-.04-.43-.07-.65-.12-.11-.02-.22-.05-.33-.08-.11-.03-.22-.06-.34-.11-.06-.03-.12-.06-.18-.12-.02-.02-.03-.03-.05-.06,0-.01-.02-.02-.02-.04,0-.01-.01-.03-.02-.04,0-.03-.01-.07-.01-.1,0-.03,0-.07.02-.09,0-.01.01-.03.02-.04l.02-.03s.03-.03.04-.05c.01-.02.03-.03.04-.04.01-.01.03-.02.04-.03.05-.04.1-.07.16-.1.21-.12.41-.2.62-.28l.16-.06c.05-.02.11-.03.17-.05.06-.01.11-.03.17-.04.06,0,.12-.02.17-.02.23-.02.46,0,.68.03.45.07.87.24,1.26.44.39.21.76.45,1.08.74Z"/><path d="M65.04,56.32c.09-.11.2-.2.31-.29.06-.04.11-.09.17-.12l.09-.06s.06-.04.09-.05c.25-.14.52-.24.81-.31.14-.03.28-.06.43-.07.14-.02.29-.02.44-.02h.05s.05,0,.05,0h.11c.07.02.15.02.22.03l.21.04c.07.01.14.02.21.04.28.06.56.14.83.24.27.1.54.21.8.35.26.14.5.3.73.44.12.07.23.14.35.18.12.05.24.07.36.09l.41.07-.33.23c-.12.09-.23.16-.35.23-.12.07-.24.14-.36.21-.24.13-.49.25-.75.36-.51.21-1.04.38-1.59.48-.27.05-.55.08-.83.09-.14,0-.28,0-.41,0-.07,0-.14,0-.21-.01-.03,0-.07,0-.1,0h-.1c-.55-.08-1.08-.25-1.56-.5.51.19,1.04.3,1.58.32h.1s.07,0,.1,0c.07,0,.13,0,.2,0,.13,0,.27-.01.4-.03.27-.03.53-.07.79-.13.26-.06.52-.13.77-.22.25-.09.5-.19.74-.3.24-.11.48-.23.71-.36.12-.07.23-.13.34-.2.11-.07.23-.14.33-.22l.08.3-.12-.02h-.06s-.06-.03-.06-.03c-.04-.01-.08-.02-.11-.03l-.11-.04c-.14-.06-.28-.13-.4-.21-.12-.08-.24-.16-.36-.23-.06-.04-.12-.07-.18-.11l-.18-.1c-.48-.27-1-.46-1.54-.61-.53-.15-1.09-.2-1.63-.12-.27.04-.54.12-.79.23-.25.11-.5.26-.71.45Z"/><path d="M59.52,60.22s0-1.12-.77-1.33c-.78-.21-2.4-.67-3.72.11-1.33.78-.55.65.71.62s2.9-.32,3.79.6Z"/><path d="M62.78,61.05s.35-.56,1.65-.5c1.3.06,2.21-.3,2.53.18,0,0-.7-.21-1.28.46-.58.67-1.37-.32-2.9-.14Z"/><path d="M67.3,50.71c-.3.27-.59.55-.87.84-.27.29-.54.59-.77.91-.12.16-.23.32-.35.49-.11.17-.23.33-.35.49-.12.16-.24.32-.37.48-.13.15-.26.31-.42.44.13-.15.24-.32.35-.49.11-.17.22-.33.33-.5.11-.17.22-.34.32-.51.11-.17.22-.34.34-.5.12-.16.25-.32.39-.47.14-.15.28-.3.43-.43.15-.14.3-.27.46-.4.16-.12.32-.24.5-.35Z"/><path d="M65.25,57.15c.4.04.8.04,1.2.02.4-.02.79-.07,1.18-.15.4-.07.81-.11,1.21-.1.2,0,.41.01.61.04.2.02.4.05.6.11-.2-.02-.4-.02-.6-.03-.2,0-.4,0-.6.01-.05,0-.1,0-.15,0h-.15c-.1.02-.2.03-.3.04l-.15.02-.15.02c-.1.01-.2.03-.29.05l-.3.05c-.1.01-.2.03-.3.04-.2.02-.41.03-.61.03-.4,0-.81-.04-1.2-.15Z"/><path d="M59.62,54.66l-.55-.53c-.18-.18-.37-.35-.56-.52-.19-.17-.38-.33-.59-.48-.2-.15-.42-.29-.65-.39.26.04.5.15.73.28.11.06.22.14.32.22.1.08.2.16.3.25.1.09.19.18.28.27.09.09.18.19.26.29.17.2.33.4.46.62Z"/><path d="M58.89,58c-.26-.14-.52-.28-.79-.4-.13-.06-.27-.12-.4-.18-.13-.06-.27-.11-.41-.16-.27-.1-.55-.18-.84-.23-.14-.02-.29-.05-.43-.05-.15,0-.29,0-.44,0,.14-.05.29-.07.44-.08.15-.01.3,0,.45,0,.15.01.3.04.45.08.15.04.29.08.43.13.28.1.55.23.81.38.26.15.5.32.73.52Z"/><path d="M59.89,56.63c-.01.11-.03.21-.05.31l-.07.3c-.02.1-.05.2-.06.3-.02.1-.03.2-.03.31-.07-.09-.09-.2-.1-.31,0-.11,0-.22.03-.33.02-.11.06-.21.11-.3.05-.1.1-.19.18-.27Z"/><path d="M60.66,55.15c-.07.09-.14.18-.21.26-.07.08-.13.17-.2.25-.06.08-.12.17-.18.26-.06.09-.11.18-.16.28-.01-.11,0-.23.04-.34.04-.11.1-.21.17-.3.07-.09.15-.17.24-.24.09-.07.19-.13.3-.16Z"/><path d="M60.8,56.26c-.04.11-.09.2-.14.3-.05.1-.09.19-.13.29-.04.1-.08.19-.11.29-.03.1-.05.2-.06.31-.06-.1-.08-.22-.07-.34,0-.12.04-.23.08-.33.04-.11.11-.2.18-.29.07-.09.15-.17.25-.23Z"/><path d="M59.82,58.53c.05.06.07.12.1.18.02.06.04.12.05.18.01.06.02.13.02.19,0,.06,0,.13-.02.2-.05-.05-.08-.11-.11-.17-.03-.06-.05-.12-.06-.19-.01-.06-.02-.13-.02-.19,0-.07,0-.13.03-.2Z"/><path d="M61.37,55.18c-.11.07-.22.14-.32.21-.1.07-.2.15-.29.23-.05.04-.09.08-.13.13-.04.05-.08.09-.12.14-.08.09-.15.2-.23.31.01-.13.05-.26.12-.38l.02-.04s.02-.03.03-.04c.02-.03.04-.06.06-.08.04-.05.09-.1.14-.15.1-.09.21-.16.34-.22.12-.05.25-.09.39-.1Z"/><path d="M63.16,54.64c.1.03.19.09.28.15.08.07.15.15.21.24.06.09.1.2.11.31.01.11,0,.22-.06.32-.01-.11-.03-.2-.07-.29-.03-.09-.08-.17-.13-.25-.05-.08-.11-.16-.16-.24-.06-.08-.12-.16-.18-.24Z"/><path d="M63.04,55.38c.09.09.16.19.22.3.06.11.1.23.13.35.03.12.05.25.03.38-.01.13-.06.26-.14.35.02-.13.02-.24,0-.35-.01-.11-.04-.23-.06-.34-.05-.23-.13-.45-.19-.7Z"/><path d="M64.16,55.53c.09.07.17.17.22.27.06.1.09.22.11.34.01.06.01.12.01.18,0,.06,0,.12-.02.18-.02.12-.07.23-.14.32,0-.12.02-.23.01-.34,0-.05,0-.11,0-.16,0-.05,0-.11-.02-.16-.02-.1-.04-.21-.07-.31-.03-.1-.06-.21-.1-.32Z"/><path d="M63.86,56.33c.07.08.11.18.13.28.02.1.03.21.02.31-.01.1-.03.2-.08.3-.02.05-.05.09-.07.14-.03.04-.06.08-.1.12,0-.05.01-.1.02-.15,0-.05.02-.1.02-.14.02-.09.02-.19.04-.28,0-.09.01-.19.02-.28,0-.09,0-.19,0-.29Z"/><path d="M64.7,57.23c.03.13.03.25.03.38,0,.13-.02.25-.04.37-.02.12-.06.25-.11.36-.05.12-.11.23-.21.32.03-.12.06-.24.08-.36l.07-.36c.02-.12.05-.24.08-.36.03-.12.06-.24.1-.36Z"/><path d="M64.16,57.91c0,.12,0,.24-.03.35-.03.12-.07.23-.12.34-.05.11-.12.21-.2.3-.08.09-.19.16-.31.19.08-.09.14-.18.2-.27.06-.09.11-.19.16-.29.1-.2.19-.41.3-.62Z"/><path d="M63.12,57.23c.08.1.13.21.17.32.04.12.06.24.07.37,0,.13-.02.25-.07.37-.03.06-.06.11-.1.16-.04.05-.09.09-.15.12.03-.06.06-.11.08-.16.02-.05.04-.11.05-.16.02-.11.03-.22.03-.33,0-.11-.01-.22-.03-.34l-.05-.35Z"/><path d="M63.59,58.38c0,.12-.04.22-.08.33-.04.11-.09.21-.16.3-.06.09-.14.18-.23.26-.09.07-.2.13-.31.15.09-.08.15-.16.22-.24.07-.08.12-.17.18-.26.12-.18.23-.36.38-.54Z"/><path d="M64.05,59.3c-.05.11-.12.21-.2.3-.08.09-.16.17-.26.25-.09.07-.2.14-.31.19-.11.05-.23.09-.35.1l.28-.21.27-.21c.09-.07.18-.14.27-.21.09-.07.19-.14.29-.2Z"/><path d="M63.32,59.6c-.03.08-.09.14-.14.2-.06.06-.12.1-.19.14-.07.04-.15.07-.23.09-.08.02-.16.02-.25,0,.07-.05.14-.08.2-.12.06-.04.13-.07.19-.11.06-.04.13-.07.2-.1.07-.03.14-.07.22-.09Z"/><path d="M62.98,60.51c-.04.1-.12.18-.21.25-.09.07-.18.12-.29.15-.1.04-.21.06-.31.06-.05,0-.11,0-.16,0-.05,0-.11-.01-.16-.03.05-.02.1-.04.15-.05.05-.02.1-.03.15-.05.1-.03.19-.06.28-.09.09-.03.18-.07.27-.11.09-.04.18-.08.27-.13Z"/><path d="M75.93,38.05c-.22-.09-.45-.15-.68-.2-.23-.05-.46-.09-.7-.11-.47-.04-.94-.02-1.39.08-.45.09-.89.27-1.28.51-.2.12-.38.26-.56.41-.18.15-.36.3-.54.45-.36.31-.71.62-1.06.94-.35.32-.7.64-1.06.95-.71.63-1.48,1.21-2.31,1.7l-.04-.31c.1.02.21.04.32.06.11.02.22.03.34.04.23.02.45.02.68.02.45-.01.9-.08,1.34-.2.22-.06.43-.13.64-.21.21-.08.41-.18.61-.29.2-.11.39-.23.57-.36.19-.13.37-.27.55-.42.36-.29.71-.59,1.05-.9.35-.31.68-.63,1.04-.93.35-.3.72-.6,1.14-.82.21-.11.42-.21.65-.28.22-.07.46-.11.69-.13ZM75.93,38.05c-.46.06-.9.24-1.29.48-.39.24-.74.55-1.07.87-.34.32-.66.65-1,.97-.33.32-.68.64-1.04.94-.18.15-.36.3-.55.44l-.14.11-.15.1-.07.05-.08.05c-.05.03-.1.06-.15.09-.21.12-.42.22-.64.32-.22.09-.45.17-.68.23-.46.13-.93.2-1.41.22-.24,0-.48,0-.71-.01-.12,0-.24-.02-.36-.04-.12-.02-.23-.04-.36-.07l-.41-.1.36-.21c.4-.23.79-.49,1.17-.77.38-.28.74-.57,1.1-.88.72-.61,1.41-1.26,2.16-1.85.19-.15.37-.3.56-.44.18-.15.39-.29.6-.41.42-.24.89-.41,1.36-.48.48-.08.96-.07,1.43,0,.47.07.94.2,1.36.4Z"/><path d="M76.26,41.73c.01-.11.02-.23.02-.34,0-.11-.01-.23-.03-.34-.03-.22-.1-.44-.2-.64l-.08-.15s-.06-.09-.09-.14c-.07-.09-.13-.17-.21-.26-.15-.18-.28-.39-.37-.63-.04-.12-.07-.25-.07-.39,0-.07.01-.14.03-.21.02-.07.06-.13.1-.19.04-.06.09-.11.14-.16.05-.04.11-.08.16-.12.11-.07.23-.11.35-.15.12-.04.24-.06.37-.08.12-.01.25-.02.37-.01.12,0,.25.02.37.04.12.02.24.05.36.09.12.04.23.09.34.14.11.05.22.12.32.19.1.07.2.16.28.26.08.1.16.2.22.32.12.23.16.5.13.76,0,.06-.02.12-.03.19-.02.06-.03.12-.05.18-.02.06-.04.12-.06.17l-.03.08-.04.08c-.1.22-.24.42-.4.6-.08.09-.17.17-.26.25-.09.08-.19.15-.29.21-.2.12-.42.23-.65.29-.11.03-.23.05-.35.05-.06,0-.12,0-.18-.02-.06-.01-.11-.04-.16-.08ZM76.26,41.73s.1.05.16.05c.06,0,.11,0,.17,0,.11-.01.22-.04.33-.09.21-.08.41-.2.58-.33.36-.27.63-.63.8-1.04l.03-.08.03-.08c.02-.05.03-.1.05-.16.01-.05.02-.1.04-.16,0-.05.02-.1.02-.16.02-.21-.02-.41-.12-.59-.05-.09-.11-.17-.17-.25-.07-.08-.15-.15-.23-.21-.17-.12-.37-.22-.57-.28-.1-.03-.21-.06-.31-.08-.11-.02-.21-.03-.32-.04-.11,0-.22,0-.32,0-.11.01-.21.03-.31.06-.1.03-.2.06-.29.11-.04.02-.08.05-.12.08-.04.03-.07.06-.09.1-.03.04-.05.07-.06.11-.01.04-.02.08-.03.13,0,.09,0,.19.04.29.06.2.18.39.3.58.06.09.14.19.2.29.03.05.06.11.09.16.02.06.05.11.07.17.08.23.13.46.14.7,0,.24-.01.47-.08.69Z"/><path d="M74.43,37.68c-.79-.26-1.59-.48-2.4-.65-.4-.08-.81-.15-1.22-.2-.41-.05-.82-.08-1.23-.07-.41,0-.81.05-1.2.14-.05.01-.1.03-.14.04-.05.02-.1.03-.14.05-.09.04-.18.07-.28.11-.19.08-.37.17-.55.27-.72.38-1.41.84-2.06,1.34-.32.25-.64.52-.92.8-.14.14-.28.29-.4.45-.06.08-.12.16-.16.24-.02.04-.04.08-.06.12-.02.04-.02.08-.03.1,0,.03,0,.04,0,.05,0,0,.02.02.05.03.06.03.16.03.25.03.19,0,.39-.03.59-.06.2-.04.4-.08.6-.13.2-.05.4-.1.6-.16.4-.11.79-.24,1.19-.35.4-.12.8-.24,1.2-.34.4-.1.81-.2,1.22-.27.21-.03.41-.06.62-.07.21-.01.42-.01.62.02-.21-.01-.41,0-.62.03-.2.03-.41.07-.61.11-.4.09-.8.21-1.19.34-.79.25-1.57.54-2.36.79-.4.13-.8.25-1.22.33-.21.04-.42.08-.64.08h-.08s-.06,0-.09,0c-.06,0-.12-.02-.19-.04-.07-.02-.14-.07-.2-.14-.06-.08-.07-.17-.07-.25,0-.08.02-.14.04-.2.02-.06.05-.11.07-.16.06-.1.12-.19.18-.28.13-.17.28-.33.43-.48.3-.3.62-.57.95-.84.33-.26.67-.5,1.03-.73.35-.23.71-.44,1.09-.63.19-.1.38-.18.57-.27.1-.04.2-.08.3-.11.05-.02.1-.03.16-.05.05-.01.1-.03.16-.04.42-.1.85-.13,1.27-.12.85.02,1.67.17,2.48.37.4.11.8.22,1.2.36.39.13.78.28,1.16.45Z"/><path d="M69.99,42.19c-.06.19-.1.39-.15.59-.04.2-.08.39-.11.59-.03.2-.05.4-.06.6-.01.2-.02.4-.01.6.01.4.07.79.19,1.16.06.18.14.36.23.53.1.17.21.32.33.46l-.26.06c.11-.39.23-.77.37-1.14.13-.38.28-.75.43-1.12.31-.74.66-1.46,1.07-2.15.2-.35.42-.68.66-1.01.23-.33.49-.64.76-.93.07-.07.14-.15.21-.22l.22-.21.23-.2.06-.05.06-.05.12-.09c.32-.24.67-.45,1.04-.6-.35.19-.67.43-.96.69-.3.26-.56.55-.81.85-.25.3-.48.62-.7.95-.06.08-.11.16-.16.25-.05.08-.1.17-.15.25l-.15.25-.15.26c-.19.34-.37.7-.54,1.05-.17.36-.33.71-.48,1.08-.31.72-.58,1.47-.82,2.22l-.08.26-.17-.2c-.14-.16-.26-.34-.36-.53-.1-.19-.17-.39-.23-.59-.11-.4-.15-.82-.14-1.23,0-.41.07-.82.16-1.21.09-.4.21-.78.37-1.16Z"/><path d="M77.84,41.19c.25.02.5.03.75.02.25,0,.5-.01.74-.04.24-.02.49-.07.72-.13l.17-.05c.06-.02.11-.04.17-.06l.04-.02.04-.02s.05-.02.07-.04c.02-.02.05-.03.07-.05l.07-.05c.09-.07.18-.15.26-.23.08-.09.16-.18.23-.27.14-.19.28-.4.4-.61.12-.21.23-.43.34-.65.11-.22.21-.45.29-.67l.17.22c-.34.05-.69.1-1.02.18-.34.08-.68.16-1.01.27-.16.05-.33.11-.49.18-.16.07-.32.14-.47.22-.3.16-.6.36-.82.64.08-.16.2-.3.33-.42.13-.13.27-.24.42-.34.3-.2.62-.36.95-.49.33-.13.67-.25,1.02-.33.17-.04.35-.09.52-.12.18-.04.35-.07.53-.1l.27-.04-.1.26c-.18.48-.4.94-.66,1.38-.13.22-.27.43-.44.63-.08.1-.17.2-.26.29-.09.09-.2.18-.31.26l-.09.06s-.06.03-.09.05c-.03.02-.06.03-.09.04l-.05.02-.05.02c-.06.02-.12.04-.19.06l-.19.05c-.25.05-.51.07-.76.08-.51,0-1.01-.05-1.5-.17Z"/><path d="M75.31,38c-.39-.02-.78.03-1.15.14-.37.1-.72.26-1.04.47l-.23.16c-.08.06-.15.12-.22.18l-.06.04s-.03.03-.05.05l-.1.1-.1.1s-.07.07-.1.1l-.82.84c-.14.14-.28.28-.42.41-.07.07-.15.13-.22.2-.07.07-.15.13-.22.2-.15.13-.31.25-.46.38l-.24.18c-.08.06-.17.11-.25.16-.34.21-.7.4-1.08.53-.38.13-.77.2-1.17.22.39-.09.76-.2,1.11-.37l.26-.13.25-.14.06-.04.06-.04.12-.08.12-.08.12-.09c.16-.11.31-.23.46-.35.15-.13.29-.25.44-.38.29-.26.57-.53.84-.81.28-.27.55-.55.84-.83.04-.03.07-.07.11-.1l.11-.1.11-.1s.04-.03.06-.05l.06-.05c.08-.06.16-.12.25-.18l.26-.16c.36-.2.74-.33,1.14-.4.4-.06.8-.07,1.19.02Z"/><path d="M71.71,37.51c-.49-.11-.98-.16-1.47-.17-.49,0-.97.03-1.45.12-.24.04-.48.1-.71.16-.12.03-.23.07-.35.11-.06.02-.11.04-.17.06-.06.02-.12.04-.17.06-.46.18-.9.39-1.34.63.36-.35.78-.64,1.24-.87.23-.11.46-.21.71-.29.12-.04.24-.07.37-.11.12-.03.25-.06.38-.08.5-.09,1.02-.11,1.53-.05.25.03.5.08.75.15.24.07.48.16.7.28Z"/><path d="M73,40.62c-.27.4-.53.79-.78,1.19-.25.4-.49.81-.71,1.22-.11.2-.21.42-.32.63-.05.1-.1.21-.15.32l-.07.16c-.02.05-.05.11-.07.16-.05.11-.09.22-.14.32-.04.11-.08.22-.13.33l-.07.17c-.02.06-.04.11-.06.17-.04.11-.08.22-.12.34,0-.12.02-.24.03-.36,0-.06.01-.12.02-.18l.03-.18c.02-.12.05-.24.08-.35.03-.12.07-.23.1-.35.02-.06.03-.12.05-.17l.06-.17c.04-.11.08-.23.13-.34l.15-.33c.02-.06.05-.11.08-.16l.08-.16c.23-.43.49-.83.79-1.21.08-.09.15-.19.23-.28.08-.09.16-.18.24-.27.17-.17.34-.34.53-.49Z"/><path d="M64.44,40.21c.38-.21.77-.39,1.16-.55.39-.16.8-.31,1.2-.44.41-.13.82-.25,1.24-.34.42-.09.84-.17,1.28-.18l-1.2.43c-.4.14-.8.28-1.21.41-.4.13-.81.26-1.22.37-.41.11-.82.22-1.25.3Z"/><path d="M76.09,38.89c.17.12.31.26.43.41.12.15.23.32.32.5.09.18.16.37.2.57.02.1.03.2.03.31,0,.1-.02.21-.07.3-.05-.2-.13-.36-.21-.53-.08-.17-.16-.33-.25-.5-.08-.17-.16-.34-.24-.51-.08-.18-.15-.35-.21-.55Z"/><path d="M79.15,40.63c.26-.05.48-.13.7-.23.22-.1.42-.22.62-.36l.14-.11s.09-.08.14-.11c.1-.07.18-.16.28-.24.05-.04.09-.08.14-.13.04-.04.09-.08.14-.13.09-.09.18-.18.28-.26-.02.06-.04.12-.07.18-.02.06-.05.12-.08.18-.03.06-.07.11-.1.17l-.05.08s-.04.05-.06.08c-.08.1-.16.21-.26.3-.05.05-.09.09-.15.13l-.16.12c-.22.15-.47.27-.73.33-.07.01-.13.03-.2.03-.03,0-.07,0-.1,0h-.1c-.13,0-.27-.01-.39-.06Z"/><path d="M82.35,38.38c.23-.21.48-.38.74-.55.26-.17.53-.31.81-.45.28-.14.56-.26.85-.37.07-.03.14-.06.22-.08l.22-.08.22-.07.11-.04.11-.03.45-.13c.15-.04.3-.07.45-.11.3-.08.61-.12.91-.18.15-.03.31-.05.46-.07l.46-.06c.31-.03.62-.05.92-.08l.28-.02-.12.25c-.05.1-.09.18-.14.27-.05.09-.1.17-.15.25-.11.17-.22.33-.34.49-.24.31-.51.61-.79.88-.14.14-.29.26-.45.39-.16.12-.31.24-.48.35-.33.22-.68.41-1.04.57-.09.04-.18.07-.27.11l-.28.1-.28.09-.28.08c-.09.02-.19.05-.28.07l-.28.07c-.19.05-.38.08-.57.12-.38.07-.77.11-1.16.12h-.15s-.1,0-.15,0c-.1,0-.19-.01-.29-.02-.05,0-.1-.02-.14-.02-.05,0-.1-.02-.14-.03-.09-.03-.19-.06-.27-.11.18.08.37.1.56.11.1,0,.19,0,.29,0,.05,0,.1,0,.14,0h.14c.38-.05.76-.12,1.13-.21.19-.05.37-.09.56-.14l.28-.08c.09-.03.18-.06.27-.09l.27-.09.27-.09.26-.11c.09-.04.17-.08.26-.12.34-.16.67-.35.98-.57.31-.22.6-.46.87-.72.27-.26.52-.54.75-.84.11-.15.22-.3.33-.46.05-.08.1-.16.15-.24.05-.08.09-.17.13-.24l.16.23c-.3.02-.61.04-.91.07l-.45.05c-.15.02-.3.03-.45.06-.3.05-.6.09-.9.15-.15.03-.3.06-.45.09l-.44.11-.11.03-.11.03-.22.06-.22.06c-.07.02-.14.05-.22.07-.29.09-.57.2-.86.31-.28.12-.56.24-.83.38-.27.14-.54.29-.78.47Z"/><path d="M74.78,37.8c-.24-.11-.46-.26-.67-.41-.21-.16-.41-.33-.59-.53-.09-.1-.18-.2-.25-.32-.04-.06-.07-.12-.11-.17-.03-.06-.07-.12-.09-.19-.11-.25-.17-.56-.12-.85.02-.15.08-.29.14-.42.04-.06.07-.13.12-.18l.06-.08.07-.08c.1-.1.2-.2.33-.28.13-.07.28-.12.43-.13.15,0,.3.02.43.08.13.05.25.13.36.21.21.17.38.38.51.6-.19-.18-.39-.35-.61-.47-.22-.12-.45-.2-.67-.16-.11.02-.21.06-.3.12-.09.06-.17.14-.25.23l-.06.07-.05.07s-.06.1-.09.15c-.05.1-.09.21-.11.32-.02.11-.02.22,0,.34v.04s.01.04.01.04c0,.03.01.06.02.08.02.06.03.11.06.17.02.06.05.11.07.17.03.05.05.11.09.16.06.11.13.21.21.31.15.2.32.39.5.58.18.18.37.36.56.53Z"/><path d="M76.3,35.74c-.14-.2-.3-.38-.49-.5-.09-.06-.19-.11-.29-.13-.1-.02-.2-.02-.3,0-.19.05-.38.18-.53.33-.04.04-.07.08-.1.12l-.04.06s-.02.04-.04.07c-.05.09-.08.18-.09.28-.01.1,0,.2,0,.3.02.1.05.21.09.31.04.1.09.2.15.3.06.1.12.19.19.28.14.18.3.35.48.5.18.15.37.28.59.4-.24-.04-.47-.14-.68-.26-.21-.12-.41-.28-.58-.46-.17-.18-.33-.39-.44-.62-.11-.23-.18-.51-.14-.78.02-.14.06-.27.13-.4.07-.12.16-.23.26-.32.03-.02.05-.05.08-.07l.08-.06s.05-.04.08-.05l.04-.03.04-.02c.12-.06.25-.11.38-.13.14-.02.28,0,.41.04.13.05.24.12.33.21.09.09.17.19.23.29.06.11.12.22.15.33Z"/><path d="M77.4,38.2c-.09-.49-.18-.97-.32-1.43-.07-.23-.15-.45-.27-.63-.03-.04-.06-.08-.1-.11,0,0-.02-.01-.02-.02,0,0-.02-.01-.03-.02,0,0-.02-.01-.03-.02l-.03-.02c-.09-.04-.19-.07-.28-.06-.19,0-.36.1-.45.28-.03.04-.04.09-.05.14,0,.02,0,.05-.01.08v.04s0,.03,0,.04v.08s0,.05,0,.08c0,.03,0,.06,0,.08l.02.08s0,.06.02.08l.02.09c.01.06.03.12.05.17.03.12.07.23.11.34.04.11.09.22.15.33.06.11.12.21.21.3-.11-.06-.2-.15-.28-.25-.08-.1-.15-.2-.22-.31-.06-.11-.12-.22-.17-.34-.03-.06-.05-.12-.07-.18l-.03-.09s-.02-.06-.03-.09l-.03-.1s-.01-.07-.02-.1c0-.03-.01-.07-.01-.1v-.1s0-.03,0-.05v-.05s.01-.07.02-.11c.02-.07.03-.14.07-.21.06-.13.16-.26.29-.35.13-.08.28-.13.43-.13.15,0,.3.04.43.1l.05.02s.03.02.05.03l.05.04s.03.03.04.04c.06.05.1.11.14.17.07.12.13.24.17.37.04.12.07.25.1.37.05.25.07.5.08.75,0,.25,0,.5-.02.74Z"/><path d="M74.95,34.6c-.06-.31-.13-.62-.2-.92-.07-.3-.16-.6-.26-.89-.05-.14-.11-.29-.17-.42-.07-.13-.14-.26-.23-.37-.02-.03-.04-.05-.07-.07-.01-.01-.02-.02-.03-.03l-.04-.03s-.02-.02-.04-.03l-.04-.02s-.06-.03-.09-.04c-.06-.03-.12-.04-.19-.05-.06-.01-.13-.01-.19,0-.13.01-.25.06-.35.13-.1.07-.19.18-.24.29-.05.12-.07.25-.06.38,0,.07.02.13.05.2.01.03.02.06.04.1l.05.1s.04.06.05.1c.02.03.04.07.06.1.04.06.08.13.13.19.09.12.19.24.29.35.21.23.44.44.68.64-.29-.14-.55-.31-.8-.52-.12-.1-.24-.21-.35-.33-.11-.12-.21-.25-.3-.39l-.06-.11s-.04-.08-.06-.12c-.03-.08-.06-.17-.08-.26-.03-.18-.01-.37.06-.54.07-.17.19-.33.34-.44.15-.11.33-.18.51-.2.09,0,.19,0,.28,0,.09.01.18.04.26.07.04.02.08.04.12.06.02.01.04.03.06.04.02.01.04.03.06.04l.05.05s.03.03.05.05c.03.03.06.07.09.1.11.14.18.29.25.44.06.15.11.31.15.46.08.31.14.62.17.94.03.32.05.63.04.95Z"/><path d="M76.21,35.57c-.05-.4-.08-.8-.12-1.19-.04-.39-.09-.78-.18-1.15-.04-.19-.1-.37-.17-.53-.04-.08-.08-.16-.14-.22l-.02-.02-.02-.02s-.03-.03-.04-.04l-.05-.03s-.04-.02-.06-.03c-.16-.09-.33-.15-.49-.12-.08.02-.15.07-.21.14-.06.07-.1.16-.14.26,0-.1.01-.21.06-.3.04-.1.13-.19.23-.24.11-.05.23-.06.34-.05.11.01.22.04.32.08.02.01.05.02.07.03l.08.04s.05.04.07.05c.01,0,.02.02.04.03l.03.03c.09.08.15.18.2.27.1.19.17.4.22.6.09.41.12.81.11,1.22,0,.4-.05.81-.14,1.2Z"/><path d="M77.32,37.35c0-.25.05-.5.15-.74.1-.24.26-.47.49-.63.11-.08.24-.14.38-.17.14-.04.27-.05.41-.04.14,0,.29.04.42.12.13.07.24.18.32.31.08.13.13.26.15.4.03.14.03.28.02.41-.02.27-.1.53-.23.76-.03.06-.07.11-.11.17l-.06.08-.06.07c-.08.09-.17.19-.25.28-.09.09-.18.18-.27.26-.09.08-.19.17-.3.23.04-.05.08-.09.12-.14.04-.05.07-.1.11-.15.07-.1.14-.2.21-.3l.21-.31.05-.08.05-.07s.05-.1.08-.15c.09-.21.14-.44.15-.66,0-.22-.03-.45-.14-.62-.1-.17-.28-.27-.49-.29-.1-.01-.22,0-.32.01-.11.02-.21.06-.3.11-.19.1-.35.28-.48.48-.13.2-.22.43-.29.67Z"/><path d="M76.2,34.15c-.03-.31-.01-.62.04-.94.03-.16.06-.31.12-.47.06-.15.13-.3.24-.44.05-.07.12-.13.19-.19.08-.05.16-.1.25-.12.04-.02.09-.02.14-.03.05,0,.09,0,.14,0,.09,0,.19.02.28.05.09.03.17.09.24.15.07.06.13.14.17.22.09.16.14.33.17.49.06.33.04.66-.02.98-.05.32-.15.62-.27.92-.03.07-.06.15-.1.22l-.1.21-.2.42c-.07.14-.13.28-.2.42-.03.07-.06.14-.09.21-.03.07-.06.14-.07.22,0-.04,0-.08,0-.12,0-.04.01-.08.02-.12.02-.08.03-.15.05-.23.04-.15.09-.3.13-.45.05-.15.1-.3.15-.44l.08-.22c.03-.07.05-.14.07-.21.09-.29.16-.58.2-.87.02-.15.03-.29.03-.44,0-.15,0-.29-.03-.43-.04-.28-.17-.54-.38-.63-.05-.02-.11-.04-.17-.04-.03,0-.06,0-.09,0-.03,0-.06,0-.09.01-.06.01-.12.04-.17.07-.05.03-.1.07-.15.12-.09.1-.17.22-.23.35-.06.13-.12.27-.16.42-.09.29-.15.59-.19.9Z"/><path d="M79.35,37.67c.2-.21.45-.37.72-.48.14-.05.28-.1.43-.12.08-.01.15-.01.23-.01.08,0,.16,0,.24.02.08.02.16.04.23.07l.06.02.05.03s.07.04.1.06c.13.09.25.22.32.37.07.15.09.32.07.47-.02.15-.07.29-.16.41.03-.28,0-.56-.14-.75-.07-.09-.16-.17-.26-.23-.11-.05-.22-.1-.34-.12-.24-.05-.5-.02-.76.03-.26.05-.52.14-.8.23Z"/><path d="M79.15,36.08c.03-.29.1-.57.17-.84.08-.28.18-.55.3-.81.03-.07.06-.13.1-.2.03-.07.07-.13.11-.19.04-.07.07-.12.1-.18.01-.03.03-.06.04-.09.01-.03.02-.06.04-.09.09-.24.12-.51.09-.77-.02-.26-.11-.51-.26-.69-.04-.05-.08-.08-.13-.12-.05-.03-.1-.06-.15-.08-.05-.02-.11-.03-.17-.03-.03,0-.06,0-.09,0l-.09.02c-.25.04-.49.18-.69.36-.1.09-.19.2-.27.31-.02.03-.04.06-.06.09-.02.03-.04.06-.06.09-.04.06-.07.12-.1.19.03-.14.08-.28.14-.41.03-.07.07-.13.1-.19l.06-.09.07-.09s.05-.06.07-.09c.03-.03.05-.06.08-.08l.08-.08.09-.07s.06-.04.1-.06c.03-.02.07-.04.1-.06.07-.03.14-.06.22-.08.15-.05.33-.06.49-.01.08.02.16.06.24.1.07.05.14.1.19.16.12.12.19.27.25.41.06.15.09.3.11.46.03.31-.01.62-.13.91-.01.04-.03.07-.05.11-.02.04-.03.07-.05.1-.04.07-.08.13-.12.19-.04.06-.08.11-.11.17-.04.06-.07.12-.11.18-.28.48-.51,1-.71,1.54Z"/><path d="M75.12,32.08c-.2-.54-.34-1.09-.45-1.65-.06-.28-.11-.55-.19-.82-.04-.13-.08-.26-.13-.38-.05-.12-.12-.23-.19-.28-.04-.03-.07-.04-.1-.04-.04,0-.07,0-.11.03-.08.04-.17.14-.23.24-.14.21-.22.47-.26.74-.09.53-.03,1.1.13,1.65-.3-.49-.44-1.08-.4-1.68.01-.15.04-.3.08-.44.04-.15.1-.29.18-.43.04-.07.09-.14.14-.2.06-.06.12-.12.21-.17.02-.01.04-.02.07-.03.02,0,.05-.02.07-.02.05-.01.1-.02.16-.01.11,0,.21.05.29.11.08.06.13.13.18.2.04.07.08.14.11.21.06.14.1.29.13.43.07.29.1.57.14.85l.2,1.69Z"/><path d="M78.49,32.3c-.14-.37-.24-.74-.33-1.13-.09-.38-.16-.77-.2-1.16-.05-.39-.06-.79-.09-1.17,0-.1-.01-.19-.02-.28-.01-.09-.03-.18-.05-.25-.03-.07-.06-.12-.1-.14-.02-.01-.05-.02-.08-.03-.03,0-.07,0-.11,0-.02,0-.04,0-.06,0h-.03s-.01,0-.02,0c-.02,0-.05.02-.08.04-.05.04-.11.1-.15.16-.1.14-.17.31-.23.49-.12.35-.18.73-.23,1.11-.02.19-.03.38-.04.57,0,.19,0,.38,0,.57,0,.19.03.38.06.57.03.19.08.38.15.56-.11-.16-.18-.35-.24-.54-.06-.19-.1-.38-.13-.58-.06-.39-.08-.79-.06-1.18,0-.2.03-.4.06-.59.03-.2.07-.39.13-.59.06-.19.13-.39.25-.57.06-.09.14-.18.24-.26.05-.04.12-.07.19-.08.02,0,.04,0,.05,0h.04s.06-.01.08-.01c.06,0,.12,0,.18.01.06.01.13.03.19.07.06.04.12.09.15.15.04.06.06.11.08.17.04.11.05.22.06.32.01.1.02.2.02.3v.58c.01.19.02.38.03.58.02.38.06.77.11,1.15.04.38.1.77.17,1.15Z"/><path d="M74.86,30.81c-.06-.35-.07-.7-.04-1.06.02-.18.05-.36.11-.53.06-.18.14-.36.31-.51.09-.07.21-.13.33-.14.06,0,.13,0,.19.03.03.01.06.02.08.04.02.01.05.03.07.04.09.06.16.14.22.22.06.08.1.16.14.24.08.16.14.33.19.51.04.17.08.35.09.52-.08-.16-.16-.31-.24-.46-.08-.15-.17-.3-.26-.43-.05-.07-.1-.13-.15-.19-.05-.06-.11-.11-.16-.14-.05-.03-.1-.05-.15-.04-.05,0-.09.02-.14.06-.09.08-.17.22-.23.36-.06.15-.11.31-.15.47-.08.33-.15.67-.22,1.01Z"/><path d="M79.51,34.99c.12-.18.28-.34.45-.48.18-.14.39-.25.65-.27.13,0,.26.01.38.07.12.05.22.13.31.23.09.1.15.22.18.35.03.13.03.26.02.38-.03.24-.12.46-.22.66-.11.2-.24.39-.38.56-.28.34-.61.64-.97.88.27-.35.53-.68.76-1.04.11-.18.22-.36.3-.54.09-.18.15-.38.17-.56.02-.19,0-.36-.11-.49-.05-.07-.12-.13-.19-.17-.07-.04-.16-.06-.25-.07-.18,0-.38.05-.56.15-.19.09-.37.21-.54.34Z"/><path d="M86.03,36.73c.1-.29.19-.58.22-.88.01-.15,0-.29-.03-.42-.03-.13-.1-.24-.2-.31-.1-.07-.23-.11-.36-.12-.12,0-.26.02-.39.06-.03,0-.07.02-.1.04-.03.01-.07.02-.1.04-.07.03-.13.06-.2.09-.13.07-.26.14-.38.22-.5.32-.98.69-1.46,1.08-.47.38-.94.78-1.41,1.17.37-.49.79-.94,1.24-1.37.45-.42.92-.83,1.45-1.16.27-.16.55-.32.87-.41.16-.05.33-.08.52-.05.09.01.17.03.25.07.04.02.08.04.12.06.04.02.08.05.11.08.07.06.13.13.17.22.04.08.07.17.08.25.03.17,0,.34-.03.49-.04.16-.09.3-.15.45-.06.14-.14.28-.22.41Z"/><path d="M81.16,35.84c.12-.23.3-.42.52-.56.11-.07.24-.13.39-.15.07-.01.15-.01.23,0,.08,0,.15.03.22.07.07.03.13.08.19.13.06.05.1.12.14.18.07.14.1.28.1.42,0,.14-.03.27-.07.39-.02.06-.05.12-.07.18-.03.06-.06.11-.1.16.02-.25.02-.49-.02-.71-.02-.11-.06-.2-.11-.28-.03-.04-.05-.07-.09-.1-.03-.03-.07-.06-.11-.07-.08-.04-.17-.05-.27-.05-.1,0-.2.03-.31.07-.21.08-.42.2-.64.33Z"/><path d="M84.82,35.08c.06-.18.12-.36.16-.54.02-.09.04-.18.05-.27,0-.09.01-.17,0-.24,0-.04-.02-.06-.03-.08-.01-.02-.03-.03-.05-.04-.02,0-.05-.01-.08-.01-.03,0-.07,0-.11,0-.15.02-.32.09-.48.17-.32.16-.63.36-.92.58-.3.22-.58.46-.87.71.18-.34.42-.64.7-.91.28-.27.59-.5.95-.68.18-.08.37-.16.59-.18.06,0,.11,0,.17,0,.06,0,.12.03.19.06.06.03.12.1.15.16.03.06.04.13.05.19,0,.06,0,.11-.01.17,0,.05-.02.1-.04.15-.03.1-.07.19-.11.27-.09.17-.19.34-.31.48Z"/><path d="M81.18,34.65c.07-.25.17-.48.28-.71.11-.23.23-.46.37-.68.14-.22.29-.43.47-.62.18-.19.38-.38.63-.51.12-.07.26-.12.41-.14.07-.01.15-.01.22-.01.07,0,.15.02.22.04.14.04.28.1.4.2.12.1.2.25.23.39.03.15.03.29,0,.42-.02.13-.06.26-.11.38-.1.24-.22.47-.38.67.09-.24.17-.48.22-.72.02-.12.04-.24.04-.36,0-.12,0-.23-.04-.33-.03-.1-.09-.18-.17-.24-.08-.06-.18-.1-.28-.12-.05-.01-.11-.02-.16-.02-.05,0-.1,0-.15.02-.1.02-.21.05-.31.11-.1.05-.2.12-.29.19-.09.07-.18.15-.27.24-.17.17-.33.36-.48.55-.3.39-.58.81-.86,1.24Z"/><path d="M80.47,34.38c.16-.35.3-.71.43-1.07.13-.36.24-.72.32-1.09.08-.37.14-.74.14-1.11v-.14s0-.14,0-.14v-.14s-.02-.09-.03-.14c-.03-.18-.07-.36-.13-.53-.06-.17-.14-.33-.24-.46-.1-.13-.23-.23-.37-.28-.14-.04-.29-.02-.43.06-.14.08-.26.21-.36.36-.05.07-.1.15-.14.24-.05.08-.09.17-.13.25-.04.08-.08.17-.12.25-.04.09-.08.17-.11.26-.14.35-.24.72-.29,1.1-.02-.19,0-.39.02-.58.02-.19.06-.38.11-.57.02-.09.06-.19.08-.28.03-.09.06-.18.1-.28.04-.09.07-.18.12-.27.04-.09.08-.18.14-.27.05-.09.11-.17.18-.25.07-.08.15-.15.25-.21.09-.06.2-.11.32-.13.12-.02.24-.02.35,0,.12.03.22.08.31.15.09.07.17.14.24.23.14.17.23.36.3.55.07.19.11.39.14.59,0,.05.01.1.02.15v.15s.02.15.02.15c0,.05,0,.1,0,.15-.02.4-.09.79-.2,1.17-.11.38-.26.74-.42,1.09-.17.35-.36.69-.58,1Z"/><path d="M83.16,32.2c.11-.56.23-1.11.32-1.66.05-.27.09-.55.11-.82,0-.14.02-.27.01-.4,0-.13-.02-.26-.05-.37-.02-.05-.04-.1-.07-.13-.01-.02-.03-.03-.04-.04-.01,0-.03-.02-.05-.02-.07-.02-.18,0-.28.06-.11.06-.21.14-.31.23-.1.09-.19.19-.28.29-.18.2-.36.42-.52.65-.17.22-.33.45-.5.68.1-.27.23-.52.36-.77.14-.25.29-.49.46-.73.09-.12.18-.23.28-.34.1-.11.22-.21.35-.29.07-.04.15-.08.23-.1.04-.01.09-.02.14-.02.05,0,.1,0,.15.02.05.01.1.03.14.06.05.03.09.06.12.1.06.08.1.16.13.24.05.16.06.32.06.47,0,.15,0,.3-.03.44-.03.29-.09.57-.17.85-.15.55-.33,1.09-.58,1.6Z"/><path d="M80.11,29.23c0-.47.02-.94-.01-1.4-.02-.23-.04-.46-.1-.65-.03-.1-.07-.19-.13-.24-.05-.06-.1-.07-.18-.06-.08,0-.17.04-.25.1-.08.05-.17.12-.24.2-.15.15-.29.33-.43.52-.26.38-.5.78-.74,1.19.05-.23.13-.46.21-.68.09-.22.19-.44.3-.65.12-.21.25-.41.42-.6.09-.09.18-.18.29-.26.11-.07.25-.14.4-.15.04,0,.08,0,.12,0h.03s.03.01.03.01c.02,0,.04.01.06.02.02,0,.04.02.06.03.02.01.04.02.06.03.03.03.07.05.09.08.1.12.15.25.19.38.06.25.07.5.06.74-.01.24-.04.48-.08.71-.04.23-.1.46-.17.69Z"/><path d="M77.01,28.27c-.07-.59-.14-1.19-.25-1.76-.03-.14-.06-.29-.09-.43-.04-.14-.08-.28-.13-.4-.03-.06-.06-.12-.09-.16-.03-.05-.07-.07-.09-.08-.02,0-.04,0-.08.02-.04.02-.08.06-.11.11-.07.1-.14.22-.19.35-.06.13-.1.27-.15.4-.09.28-.16.56-.23.85-.14.57-.26,1.16-.39,1.74,0-.6.04-1.2.13-1.79.05-.3.11-.59.19-.89.04-.15.09-.29.15-.44.06-.15.13-.29.23-.43.05-.07.12-.14.21-.2.05-.03.1-.05.16-.06.06-.01.13,0,.19.01.06.02.11.05.15.09.04.04.07.07.1.11.05.08.09.15.12.23.06.15.1.3.13.46.03.15.05.3.07.45.03.3.04.6.04.9,0,.3-.02.6-.05.9Z"/><path d="M74.01,28.74c-.08-.34-.12-.7-.11-1.05,0-.18.01-.36.04-.54.03-.18.07-.36.14-.54.04-.09.08-.18.15-.26.06-.08.15-.16.26-.21.01,0,.03-.01.04-.02h.04s.04-.02.04-.02h.04s.06-.01.09-.01c.03,0,.06,0,.09,0,.12.01.23.08.3.15.08.07.13.16.17.25.04.09.07.17.09.26.02.09.04.18.05.27,0,.09.01.18,0,.27-.06-.17-.13-.33-.21-.47-.08-.15-.17-.29-.28-.37-.06-.04-.11-.06-.16-.06-.01,0-.03,0-.04,0-.01,0-.03,0-.04,0h-.02s-.02.01-.02.01h-.02s-.02.02-.02.02c-.05.02-.09.07-.13.12-.04.06-.07.12-.1.19-.12.29-.18.63-.23.97-.05.34-.09.68-.15,1.03Z"/><path d="M76.88,26.36c.02-.27.08-.55.14-.81.07-.27.16-.53.28-.79.06-.13.13-.25.23-.37.09-.12.2-.23.36-.31.02-.01.04-.02.06-.03.02,0,.04-.01.06-.02.02,0,.05,0,.07-.01.02,0,.05,0,.07,0h.07s.04,0,.07.01c.02,0,.04,0,.07.01l.06.02s.08.04.12.06c.02.01.04.03.05.04.02.01.04.03.05.05.03.03.06.07.08.1.01.02.02.04.03.05l.03.06c.07.15.1.3.11.45.01.15.01.29,0,.43,0,.14-.02.28-.04.42-.02.14-.04.27-.06.41l-.14.81c-.05.27-.08.54-.08.81-.07-.27-.08-.55-.08-.82,0-.28.02-.55.04-.82.02-.27.04-.54.04-.81,0-.13,0-.26-.02-.39-.01-.12-.04-.24-.08-.34-.05-.1-.11-.17-.19-.2-.09-.04-.18-.04-.27,0-.09.04-.18.12-.26.21-.08.09-.15.2-.22.31-.14.22-.25.47-.36.72-.11.25-.2.5-.3.76Z"/><path d="M86.81,36.56c.37-.51.74-1.02,1.08-1.55.17-.26.33-.53.45-.8.06-.14.12-.28.15-.41l.02-.1s0-.07.01-.1c0-.06,0-.12-.02-.17-.02-.05-.03-.07-.06-.08-.02,0-.04-.01-.06-.02-.03,0-.05,0-.09,0-.12,0-.27.05-.41.11-.28.11-.55.26-.82.42-.54.32-1.06.67-1.59,1.02.22-.23.45-.44.69-.65.24-.21.49-.4.76-.59.26-.18.54-.35.84-.49.15-.07.31-.12.5-.14.09,0,.2,0,.32.05.06.03.11.07.15.11.04.05.07.1.08.15,0,.03.02.05.02.08v.08s.02.05.02.07v.07s0,.09-.02.14c0,.04-.02.09-.03.13-.05.17-.11.32-.19.47-.15.29-.33.56-.52.82-.19.26-.4.5-.62.73-.22.23-.44.46-.68.67Z"/><path d="M84.29,33.08s.03-.05.05-.08c.02-.02.04-.05.06-.07.04-.05.08-.09.12-.13.08-.09.17-.17.26-.25.18-.16.36-.31.56-.45.2-.14.4-.27.63-.37.22-.11.46-.2.72-.23.13-.01.28,0,.42.04.07.02.14.06.2.11.03.02.06.06.09.08.02.03.05.06.07.1.07.14.09.29.08.42,0,.13-.04.26-.07.38-.07.24-.18.46-.3.67-.12.21-.26.41-.41.59.09-.22.19-.44.26-.66.08-.22.15-.44.19-.66.02-.11.03-.22.03-.32,0-.1-.02-.2-.06-.26-.07-.13-.26-.18-.47-.15-.1,0-.21.04-.31.07-.11.03-.21.07-.31.12-.21.09-.41.19-.62.31-.2.11-.4.23-.6.36-.1.06-.2.13-.3.19-.05.03-.1.07-.15.1-.02.02-.05.03-.07.05-.02.02-.05.03-.07.06Z"/><path d="M88.56,33.21c.11-.32.24-.63.34-.93.05-.15.09-.31.12-.46.01-.07.02-.15.01-.21,0-.06-.02-.11-.04-.14-.02-.02-.06-.05-.12-.06-.06-.01-.13-.02-.2-.01-.15,0-.3.04-.46.08-.31.08-.62.19-.95.29.26-.22.55-.4.86-.54.16-.07.33-.12.51-.15.09-.01.19-.02.3,0,.11.02.22.07.31.18.02.03.04.05.05.08.01.03.02.06.03.09.02.06.02.11.02.16,0,.1-.01.2-.03.29-.04.18-.11.34-.19.49-.16.31-.35.59-.58.83Z"/><path d="M85.83,31.97c.16-.27.32-.54.47-.81.15-.27.28-.55.39-.83.05-.14.1-.28.13-.42.03-.14.05-.28.03-.41-.02-.12-.06-.22-.16-.28-.09-.07-.21-.1-.34-.09-.13,0-.27.04-.4.09-.14.05-.27.11-.4.18-.26.14-.51.31-.76.5-.24.19-.48.39-.7.6-.22.21-.44.44-.63.68.13-.28.32-.54.51-.79.2-.25.42-.48.65-.69.24-.21.49-.41.77-.57.14-.08.29-.16.44-.21.16-.06.32-.1.51-.11.04,0,.09,0,.14,0,.05,0,.09.01.14.03.05.02.09.03.14.05.02.01.04.02.07.03l.06.04.03.02s.02.02.03.03l.05.05s.03.04.05.06c.01.02.03.04.04.07l.03.07s.01.05.02.07c.02.05.02.09.03.14.02.19-.02.36-.06.52-.05.16-.11.31-.18.45-.14.29-.31.56-.5.81-.19.25-.38.5-.6.72Z"/><path d="M88.53,31.26c.14-.35.28-.69.38-1.03.05-.17.08-.34.08-.5,0-.08-.01-.15-.04-.2-.03-.05-.06-.09-.12-.11-.11-.06-.27-.06-.43-.03-.16.03-.33.09-.49.16-.33.14-.65.33-.98.51.12-.15.25-.28.39-.41.14-.12.3-.24.46-.34.17-.1.34-.19.54-.24.1-.03.2-.04.32-.04.11,0,.23.03.34.08.11.05.22.16.27.27.05.12.06.24.06.34,0,.11-.03.21-.05.31-.03.1-.06.19-.1.28-.08.18-.17.34-.28.5-.11.16-.22.31-.35.44Z"/><path d="M85.45,29.28c.07-.46.14-.91.16-1.36,0-.22,0-.44-.04-.64-.02-.1-.06-.19-.11-.25-.05-.06-.11-.1-.19-.11-.17-.03-.35.03-.52.15-.17.12-.33.27-.47.44-.29.34-.53.73-.77,1.12.05-.23.13-.45.23-.66.09-.21.2-.42.34-.62.07-.1.14-.2.22-.29.08-.09.17-.18.27-.25.1-.08.22-.14.35-.18.13-.04.27-.06.42-.03.04,0,.07.01.11.03l.05.02s.03.02.05.03l.05.03s.03.03.04.04c.01.01.03.03.04.04l.04.04c.09.12.13.26.16.38.05.26.03.5,0,.73-.04.23-.09.46-.16.68-.07.22-.15.44-.26.65Z"/><path d="M80.22,28.19c.04-.23.1-.44.19-.66.09-.21.19-.42.34-.61.07-.09.16-.18.26-.26.1-.08.23-.14.37-.16.03,0,.07,0,.11-.01.04,0,.07,0,.11,0,.08,0,.16.04.23.08.13.09.21.21.27.32.11.23.15.47.18.7.03.23.04.46.03.69,0,.46-.06.91-.17,1.35-.03-.45-.06-.9-.1-1.34-.02-.22-.05-.44-.08-.65-.02-.11-.04-.21-.07-.31-.03-.1-.06-.2-.1-.28-.04-.09-.09-.16-.15-.19-.03-.02-.05-.03-.08-.03-.02,0-.04,0-.06,0-.02,0-.04,0-.06,0-.17.02-.34.14-.48.29-.15.15-.27.33-.39.51-.12.19-.23.38-.33.58Z"/><path d="M84.09,27.56c-.01-.17-.03-.33-.05-.48-.02-.16-.05-.31-.1-.46-.04-.14-.1-.28-.19-.38-.04-.05-.09-.09-.14-.11-.05-.03-.11-.05-.17-.05-.03,0-.06,0-.1,0h-.11s-.05.01-.05.01h-.05s-.11.03-.11.03c-.14.03-.28.09-.41.15-.13.07-.26.16-.38.26-.12.1-.24.21-.35.34.02-.08.06-.16.09-.23.04-.08.08-.15.13-.22.1-.14.22-.26.36-.37.14-.1.3-.19.47-.24.04-.01.09-.02.13-.03h.07s.07-.02.07-.02h.13s.1-.01.15,0c.1.01.2.04.29.1.09.05.17.13.22.21.11.16.17.34.19.51.02.17.02.34,0,.51,0,.08-.02.17-.04.25-.02.08-.04.16-.07.24Z"/><path d="M88.63,29.16c.04-.21.08-.42.1-.63.01-.21.01-.41-.04-.6-.03-.09-.06-.17-.11-.24-.05-.07-.11-.12-.19-.16-.08-.04-.15-.06-.23-.06-.08,0-.17.02-.26.05-.09.03-.18.07-.26.12-.09.05-.17.1-.26.16-.17.12-.33.25-.49.38-.32.27-.63.57-.94.86.1-.19.22-.37.35-.55.13-.18.26-.34.41-.5.15-.16.31-.31.48-.45.18-.14.37-.26.6-.34.11-.04.24-.07.37-.06.13,0,.27.05.38.11.11.06.21.16.28.27.07.11.11.23.13.35.04.24,0,.47-.05.68-.06.21-.14.42-.26.6Z"/><path d="M82.44,26.22c-.05-.17-.11-.33-.18-.47-.07-.15-.15-.29-.25-.39-.1-.1-.22-.16-.35-.17-.02,0-.03,0-.04,0,0,0-.01,0-.02,0h-.02s-.03.01-.04.02c-.01,0-.03,0-.04.02-.06.02-.12.06-.18.11-.12.09-.24.2-.35.32-.11.12-.22.24-.33.37-.21.26-.42.52-.65.79.1-.33.25-.64.43-.94.09-.15.19-.29.3-.43.06-.07.12-.13.18-.2.07-.06.13-.12.21-.18.08-.05.16-.11.26-.14.02-.01.05-.02.08-.02.03,0,.05-.01.08-.02h.04s.03,0,.04,0c.03,0,.06,0,.08,0,.11.01.21.05.3.11.09.06.16.13.22.21.11.16.17.34.21.51.02.09.03.18.03.26,0,.09,0,.17,0,.26Z"/><path d="M78.73,24.93c.06-.17.14-.34.23-.49.09-.16.19-.31.31-.45.12-.14.25-.28.42-.39.08-.06.17-.11.28-.14.1-.03.22-.05.34-.03.12.02.24.08.32.16.08.08.14.17.18.27.08.19.12.38.14.56.02.19.02.37,0,.55-.02.18-.04.36-.09.54-.05-.36-.09-.71-.17-1.05-.02-.08-.04-.16-.07-.24-.03-.08-.06-.15-.09-.22-.04-.07-.08-.13-.13-.17-.05-.04-.09-.06-.15-.07-.12-.02-.26.03-.39.11-.14.08-.27.19-.4.3-.25.23-.49.5-.73.77Z"/><path d="M83.62,25.95c.14-.29.34-.55.59-.77.12-.11.26-.21.42-.28.08-.04.17-.07.26-.08h.07s.07-.01.07-.01c.03,0,.06,0,.09,0,.03,0,.06.01.09.02.03.01.06.03.08.04.02.02.05.04.07.06.02.02.04.04.06.06.02.02.03.04.04.07.05.09.08.18.1.27.03.17.04.34.03.5-.02.33-.09.64-.21.94-.02-.32-.02-.63-.05-.94-.01-.15-.03-.3-.07-.43-.02-.07-.04-.13-.07-.17-.03-.05-.06-.07-.09-.08,0,0-.02,0-.02,0-.01,0-.02,0-.03,0h-.05s-.03,0-.05,0c-.06,0-.13.03-.19.05-.13.05-.26.12-.39.2-.25.16-.5.36-.75.56Z"/><path d="M87.67,27.43c-.03-.41-.05-.81-.11-1.2-.03-.19-.07-.39-.12-.56-.03-.09-.06-.18-.1-.25-.04-.08-.09-.15-.14-.2-.06-.05-.12-.09-.19-.1-.03-.01-.08-.01-.12-.02h-.06s-.04,0-.06,0c-.17.01-.34.08-.49.18-.16.1-.3.23-.44.37-.14.14-.26.3-.38.46.05-.2.15-.39.25-.56.11-.18.25-.34.42-.48.17-.14.38-.25.61-.28h.09s.06,0,.09,0c.03,0,.06,0,.09,0,.03,0,.06,0,.09.02.13.03.25.09.34.18.09.09.16.19.21.29.05.1.09.21.11.31.05.21.07.42.08.63,0,.21,0,.41-.03.62-.03.2-.06.41-.12.6Z"/><path d="M82.22,25.43c.09-.36.19-.7.25-1.05.03-.17.05-.34.05-.51,0-.16-.03-.32-.11-.41-.04-.05-.08-.08-.15-.11-.06-.03-.13-.04-.2-.04-.14,0-.3.05-.45.13-.15.07-.3.17-.45.27-.15.1-.29.21-.43.33.09-.16.2-.31.32-.45.12-.14.26-.27.43-.37.08-.05.17-.1.26-.14.09-.04.2-.07.31-.07.22-.02.46.06.62.26.07.1.12.21.14.31.02.11.03.21.02.31,0,.2-.05.39-.11.56-.06.18-.13.35-.21.51-.09.16-.18.32-.29.47Z"/><path d="M82,40.28c-.15.33-.17.71-.08,1.04.04.17.12.33.21.48l.07.11.08.1.04.05s.03.03.04.05l.09.1c.25.24.54.45.85.62.15.09.31.17.48.24.16.07.33.14.49.19l-.16.03c.05-.05.11-.11.17-.17.05-.06.11-.12.16-.18.1-.12.2-.26.29-.39.18-.27.31-.57.36-.88.06-.31.02-.64-.1-.94-.13-.3-.34-.57-.57-.81.28.19.54.44.72.74.09.15.15.33.19.5.04.18.04.36.03.54-.04.36-.17.7-.35,1.01-.09.15-.19.3-.3.44-.05.07-.11.14-.17.2-.06.07-.12.13-.19.19l-.07.06-.09-.03c-.19-.06-.35-.13-.53-.21-.17-.08-.34-.17-.5-.26-.16-.1-.32-.2-.47-.32-.08-.06-.15-.12-.22-.18-.04-.03-.07-.07-.1-.1-.03-.04-.07-.07-.1-.11-.25-.29-.43-.65-.49-1.03-.05-.38.02-.78.24-1.08Z"/><path d="M82.97,39.59c.49-.1.96-.22,1.43-.36.47-.14.93-.3,1.37-.5.22-.1.44-.2.65-.32.21-.12.41-.24.61-.38.2-.14.39-.29.57-.45.18-.16.35-.34.51-.53-.1.23-.24.44-.39.64-.16.2-.33.38-.53.55-.19.16-.4.32-.62.45-.22.13-.44.25-.67.35-.46.2-.95.35-1.44.44-.49.09-1,.14-1.5.11Z"/><path d="M82.33,40.58c-.07.26-.04.51.04.73.08.22.22.42.38.59.16.18.36.34.56.5.2.16.41.31.62.49-.27-.05-.52-.14-.76-.27-.24-.13-.47-.29-.66-.5-.19-.2-.34-.47-.39-.76-.02-.14-.02-.29.02-.43.02-.07.04-.14.08-.2.03-.06.07-.12.12-.17Z"/><path d="M85.19,41.82c.14.1.29.19.43.28.07.04.15.09.22.13.07.04.15.08.23.12.3.16.61.31.93.45.63.27,1.28.49,1.94.66l.25.05c.08.02.16.04.25.05.17.02.33.05.5.06.34.03.67.03,1.01,0,.08,0,.17-.02.25-.03l.25-.04c.17-.03.33-.06.49-.11.16-.04.32-.09.48-.15.08-.03.16-.06.23-.09.04-.02.08-.03.11-.05.04-.02.07-.04.1-.05l-.08.16s0,.02,0,.03h0s0,.01,0,.01c0,0,0,0,0,0,0,0,0,0-.01-.01,0,0,0-.01-.02-.02l-.02-.02s-.06-.05-.09-.08c-.03-.03-.07-.05-.1-.08-.04-.03-.07-.05-.11-.08-.15-.1-.31-.2-.46-.29-.32-.18-.65-.35-.98-.52-.33-.17-.66-.33-1-.49-.17-.08-.33-.16-.5-.23-.17-.07-.34-.15-.51-.22-.17-.07-.34-.14-.51-.21l-.26-.1-.26-.1c-.35-.13-.7-.26-1.05-.38-.7-.24-1.41-.47-2.13-.67.73.13,1.46.31,2.18.51.36.1.72.21,1.07.33.18.06.35.12.53.18.18.06.35.13.53.19.35.13.7.28,1.04.43.34.15.68.31,1.02.47.34.17.67.34,1,.52.16.09.33.19.49.3.04.03.08.05.12.08.04.03.08.06.12.09.04.03.08.07.12.1l.03.03s.02.02.03.03c.01.01.02.02.03.04,0,0,.01.02.02.03,0,0,0,.02.01.02h0s0,.04,0,.05v.11s-.08.05-.08.05c-.05.02-.08.04-.13.06-.04.02-.08.04-.12.06-.08.04-.17.07-.25.1-.17.06-.34.11-.51.16-.34.09-.69.15-1.05.17-.71.05-1.42-.03-2.1-.23-.67-.19-1.32-.45-1.94-.76-.31-.16-.61-.33-.91-.51-.29-.19-.58-.39-.84-.62Z"/><path d="M86,41.74c.46.21.91.41,1.36.6.46.19.91.36,1.38.51.23.08.47.14.7.2.12.03.24.05.36.08.12.02.24.04.36.06.48.07.97.07,1.46-.03-.45.23-.98.31-1.48.29-.26,0-.51-.04-.76-.09-.06-.01-.13-.02-.19-.04-.06-.01-.12-.03-.19-.04-.12-.03-.25-.07-.37-.1-.48-.15-.95-.35-1.39-.59-.22-.12-.44-.25-.65-.39-.21-.14-.41-.28-.6-.45Z"/><path d="M85.38,40.22c.51.11,1.02.26,1.51.41.5.16.99.34,1.47.53.49.19.97.4,1.44.63.12.06.23.12.35.18.12.06.23.13.34.19.11.07.23.14.34.21.11.07.22.15.32.23-.49-.2-.97-.38-1.46-.56-.49-.18-.97-.37-1.45-.56-.48-.19-.96-.39-1.44-.59-.48-.21-.95-.42-1.42-.66Z"/><path d="M77.23,29.05c-.04.21-.08.42-.11.63-.01.1-.03.21-.04.31,0,.05-.01.1-.01.16,0,.05,0,.1,0,.16-.01.21,0,.42.02.62,0,.05.01.1.02.16,0,.05.02.1.03.15v.08s.03.08.03.08c.01.05.02.1.03.16-.03-.05-.05-.09-.08-.14-.01-.02-.03-.05-.04-.07l-.03-.08c-.02-.05-.04-.1-.06-.15-.01-.05-.03-.11-.04-.16-.04-.21-.07-.43-.05-.65,0-.05,0-.11.01-.16,0-.05,0-.11.02-.16.02-.11.04-.21.07-.32.06-.21.13-.41.24-.6Z"/><path d="M80.62,29.82c.14.23.22.49.28.75,0,.03.02.07.02.1l.02.1.02.1v.1c.03.13.03.27.03.4,0,.27-.03.54-.08.8l-.02.1-.02.1-.05.19c-.04.13-.09.25-.14.38.01-.13.04-.26.06-.39l.02-.2v-.1s.02-.1.02-.1c0-.07.01-.13.02-.2,0-.07,0-.13.01-.2.01-.13,0-.26.01-.39,0-.13,0-.26-.01-.39v-.1s-.01-.1-.01-.1c0-.06-.01-.13-.02-.19-.03-.26-.08-.52-.15-.77Z"/><path d="M79.65,32.45c.06.05.11.11.16.18.04.07.07.14.1.22.05.16.06.32.04.48-.01.16-.06.31-.11.46-.03.07-.07.14-.1.21-.04.07-.08.13-.13.2.01-.08.03-.15.05-.23.02-.07.03-.15.05-.22.03-.15.06-.29.07-.44.01-.15.02-.29,0-.44-.01-.07-.02-.14-.04-.22-.02-.07-.05-.14-.08-.21Z"/><path d="M77.46,32.53c.09.14.15.3.19.47.04.16.05.34.04.51,0,.17-.04.34-.1.5-.05.16-.13.31-.23.45.04-.16.08-.32.11-.48.03-.16.05-.32.05-.47,0-.16,0-.32,0-.48-.01-.16-.03-.32-.06-.49Z"/><path d="M73.11,32.19c-.04.17,0,.33.06.49.06.15.14.29.23.43.02.04.05.07.07.1.02.03.05.07.07.1.05.06.1.13.16.2.03.03.06.06.08.1.03.03.05.07.08.1.06.06.11.13.17.2-.08-.04-.15-.09-.22-.14-.07-.05-.14-.11-.2-.16-.03-.03-.06-.06-.1-.09l-.09-.09c-.06-.07-.11-.14-.16-.21-.1-.15-.18-.31-.22-.49-.02-.09-.03-.18-.02-.27.01-.09.03-.18.09-.25Z"/><path d="M76.37,26.01c-.06.17-.11.34-.16.51-.05.17-.09.34-.13.51-.04.17-.07.34-.1.52-.03.17-.05.35-.09.53-.04-.18-.05-.36-.04-.54,0-.18.03-.36.07-.54.04-.18.1-.35.17-.52.07-.17.16-.33.28-.47Z"/><path d="M86.13,29.51c-.1.05-.2.11-.29.17-.1.06-.19.12-.28.18-.04.03-.09.07-.13.1-.04.03-.09.07-.13.1-.04.03-.09.07-.13.1-.04.03-.09.07-.13.11l-.13.11-.13.11c-.09.07-.16.15-.25.22-.08.08-.16.15-.25.23-.08.08-.16.15-.25.23.06-.1.12-.19.19-.28.07-.09.14-.18.22-.26.04-.04.08-.08.12-.13.04-.04.08-.08.12-.12l.12-.12.13-.11s.09-.07.13-.11c.05-.03.09-.07.14-.1.09-.06.19-.13.29-.18.05-.03.1-.05.15-.08.05-.02.1-.05.16-.07.11-.04.22-.08.33-.09Z"/><path d="M83.87,32.85c0,.1-.03.2-.06.3-.03.1-.08.19-.12.28-.09.18-.21.36-.34.51-.13.16-.27.31-.42.45-.08.07-.16.13-.24.2-.08.06-.17.12-.25.17.06-.08.13-.16.2-.23.07-.08.13-.15.2-.23.06-.08.13-.15.2-.23.06-.08.13-.15.19-.23.13-.15.25-.31.36-.48.11-.17.22-.33.3-.52Z"/><path d="M80.8,35.02c.02.16,0,.33-.03.49-.03.16-.08.32-.14.47-.06.15-.14.3-.23.43-.09.14-.2.26-.32.37.07-.15.14-.29.21-.43.07-.14.13-.29.19-.43.12-.29.22-.59.32-.9Z"/><path d="M79.77,27.08c.05.19.05.38.05.57,0,.19-.03.38-.07.57-.03.19-.08.37-.14.55-.03.09-.06.18-.1.27-.04.09-.07.18-.12.26,0-.1.02-.19.04-.28.01-.09.03-.19.05-.28.03-.19.07-.37.1-.55.04-.18.07-.37.1-.55.03-.18.06-.37.08-.56Z"/><path d="M78.26,24.76c.06.23.09.46.11.69.01.12.01.23.02.35,0,.12,0,.23,0,.35,0,.23-.02.47-.05.7-.01.12-.03.23-.05.35-.02.11-.04.23-.07.34,0-.12,0-.23-.01-.35,0-.12,0-.23,0-.35,0-.23,0-.46.01-.69l.04-1.39Z"/><path d="M81.46,33.51c.1-.35.22-.69.35-1.03.06-.17.13-.34.19-.51l.2-.51.21-.5c.07-.17.14-.33.22-.5.15-.33.3-.66.47-.98-.1.35-.22.69-.35,1.03-.06.17-.13.34-.19.51l-.2.51-.21.5c-.07.17-.14.33-.22.5-.15.33-.3.66-.47.98Z"/><path d="M85.36,28.84c0-.15,0-.3,0-.45l.02-.44c0-.14,0-.29,0-.43,0-.07,0-.14-.02-.21-.01-.07-.03-.14-.07-.2.07.04.11.11.15.18.03.07.06.15.07.22.03.15.04.3.03.45,0,.15-.02.3-.05.45-.03.15-.07.29-.13.43Z"/><path d="M83.17,28.14c.04-.14.09-.28.13-.41.04-.13.09-.27.12-.4.04-.13.07-.27.08-.4.02-.14.02-.27-.01-.42.09.11.14.27.15.42,0,.15-.01.3-.05.44-.04.14-.09.28-.16.41-.07.13-.15.25-.25.36Z"/><path d="M87.27,27.29c-.02-.17-.02-.34-.03-.51,0-.17-.02-.34-.03-.5-.02-.17-.04-.33-.07-.49-.02-.08-.04-.16-.08-.23-.04-.07-.08-.14-.15-.19.09.02.16.08.22.15.06.07.1.15.14.23.07.17.1.34.12.51.01.17.01.35,0,.52-.02.17-.05.34-.1.51Z"/><path d="M87.02,28.56c.08-.13.17-.24.28-.34.11-.1.22-.2.35-.27.13-.08.27-.14.43-.16.08,0,.17,0,.24.05.07.04.12.11.14.18-.05-.05-.11-.09-.17-.11-.06-.02-.12,0-.19,0-.12.03-.25.1-.36.17-.24.14-.46.32-.71.47Z"/><path d="M86.44,34.77c.1-.13.22-.24.34-.34.12-.1.25-.2.38-.29.13-.09.27-.17.42-.24.15-.07.3-.13.46-.16-.13.1-.26.19-.39.28-.13.09-.26.18-.39.27-.13.09-.26.18-.4.26-.14.08-.27.17-.42.24Z"/></svg>