<?xml version="1.0" encoding="UTF-8"?><svg id="Layer_1" xmlns="http://www.w3.org/2000/svg" viewBox="0 0 144.57 144.57"><path d="M106.94,44.22c0-.52.01-.87.04-1.04.03-.18.08-.32.15-.43.1-.21.27-.39.5-.55.23-.16.51-.25.85-.25.34,0,.63.09.86.25.23.16.39.35.49.55.07.11.12.25.15.43.03.18.04.52.04,1.04s-.01.86-.04,1.04c-.03.18-.08.32-.15.43-.1.21-.27.39-.49.55-.23.16-.52.25-.86.26-.34,0-.62-.09-.85-.26-.23-.16-.4-.34-.5-.55-.03-.07-.06-.13-.09-.19-.02-.06-.04-.14-.06-.24-.03-.18-.04-.53-.04-1.04ZM107.6,44.22c0,.44.02.74.05.89.03.16.08.28.17.38.07.09.16.17.27.22.11.07.24.1.4.1s.29-.03.41-.1c.11-.06.2-.13.26-.22.09-.1.14-.22.18-.38.03-.16.04-.45.04-.89s-.01-.74-.04-.9c-.03-.15-.09-.28-.18-.37-.07-.09-.15-.17-.26-.23-.11-.06-.25-.09-.41-.1-.15,0-.29.04-.4.1-.11.06-.2.14-.27.23-.09.1-.14.22-.17.37-.03.16-.05.46-.05.9Z" fill="#010101"/><path d="M113.29,44.5h-1.72v1.95h-.66v-4.47h.66v1.92h1.72v-1.92h.66v4.47h-.66v-1.95Z" fill="#010101"/><path d="M80.03,27.17h.62l1.96,3.18h.01v-3.18h.66v4.47h-.62l-1.96-3.18h-.01v3.18h-.66v-4.47Z" fill="#010101"/><path d="M86.69,29.68h-1.72v1.95h-.66v-4.47h.66v1.92h1.72v-1.92h.66v4.47h-.66v-1.95Z" fill="#010101"/><path d="M88.05,31.28l1.02-1.31c.04-.05.07-.1.08-.15,0-.04.01-.08.01-.12,0-.1-.03-.19-.09-.26-.06-.07-.15-.11-.27-.12-.1,0-.19.03-.26.1-.07.07-.11.16-.13.29h-.37c0-.22.08-.41.22-.55.14-.14.31-.21.51-.22.22,0,.41.08.54.22.14.14.21.33.22.55,0,.18-.05.33-.16.47l-.84,1.08h.99v.38h-1.48v-.36Z" fill="#010101"/><path d="M57.49,84.57h.62l1.96,3.18h.01v-3.18h.66v4.47h-.62l-1.96-3.18h-.01v3.18h-.66v-4.47Z" fill="#010101"/><path d="M64.16,87.08h-1.72v1.95h-.66v-4.47h.66v1.92h1.72v-1.92h.66v4.47h-.66v-1.95Z" fill="#010101"/><path d="M65.52,88.68l1.02-1.31c.04-.05.07-.1.08-.15,0-.04.01-.08.01-.12,0-.1-.03-.19-.09-.26-.06-.07-.15-.11-.27-.12-.1,0-.19.03-.26.1-.07.07-.11.16-.13.29h-.37c0-.22.08-.41.22-.55.14-.14.31-.21.51-.22.22,0,.41.08.54.22.14.14.21.33.22.55,0,.18-.05.33-.16.47l-.84,1.08h.99v.38h-1.48v-.36Z" fill="#010101"/><path d="M42.58,106.63h.62l1.96,3.18h.01v-3.18h.66v4.47h-.62l-1.96-3.18h-.01v3.18h-.66v-4.47Z" fill="#010101"/><path d="M49.25,109.14h-1.72v1.95h-.66v-4.47h.66v1.92h1.72v-1.92h.66v4.47h-.66v-1.95Z" fill="#010101"/><path d="M50.6,110.73l1.02-1.31c.04-.05.07-.1.08-.15,0-.04.01-.08.01-.12,0-.1-.03-.19-.09-.26-.06-.07-.15-.11-.27-.12-.1,0-.19.03-.26.1-.07.07-.11.16-.13.29h-.37c0-.22.08-.41.22-.55.14-.14.31-.21.51-.22.22,0,.41.08.54.22.14.14.21.33.22.55,0,.18-.05.33-.16.47l-.84,1.08h.99v.38h-1.48v-.36Z" fill="#010101"/><path d="M32.94,86.33c0-.52.01-.87.04-1.04.03-.18.08-.32.15-.43.1-.21.27-.39.5-.55.23-.16.51-.25.85-.25.34,0,.63.09.86.25.23.16.39.35.49.55.07.11.12.25.15.43.03.18.04.52.04,1.04s-.01.86-.04,1.04c-.03.18-.08.32-.15.43-.1.21-.27.39-.49.55-.23.16-.52.25-.86.26-.34,0-.62-.09-.85-.26-.23-.16-.4-.34-.5-.55-.03-.07-.06-.13-.09-.19-.02-.06-.04-.14-.06-.24-.03-.18-.04-.53-.04-1.04ZM33.6,86.33c0,.44.02.74.05.89.03.16.08.28.17.38.07.09.16.17.27.22.11.07.24.1.4.1s.29-.03.41-.1c.11-.06.2-.13.26-.22.09-.1.14-.22.18-.38.03-.16.04-.45.04-.89s-.01-.74-.04-.9c-.03-.15-.09-.28-.18-.37-.07-.09-.15-.17-.26-.23-.12-.06-.25-.09-.41-.1-.15,0-.29.04-.4.1-.11.06-.2.14-.27.23-.09.1-.14.22-.17.37-.03.16-.05.46-.05.9Z" fill="#010101"/><path d="M94.89,65.33c0-.52.01-.87.04-1.04.03-.18.08-.32.15-.43.1-.21.27-.39.5-.55.23-.16.51-.25.85-.25.34,0,.63.09.86.25.23.16.39.35.49.55.07.11.12.25.15.43.03.18.04.52.04,1.04s-.01.86-.04,1.04c-.03.18-.08.32-.15.43-.1.21-.27.39-.49.55-.23.16-.52.25-.86.26-.34,0-.62-.09-.85-.26-.23-.16-.4-.34-.5-.55-.03-.07-.06-.13-.09-.19-.02-.06-.04-.14-.06-.24-.03-.18-.04-.53-.04-1.04ZM95.55,65.33c0,.44.02.74.05.89.03.16.08.28.17.38.07.09.16.17.27.22.11.07.24.1.4.1s.29-.03.41-.1c.11-.06.2-.13.26-.22.09-.1.14-.22.18-.38.03-.16.04-.45.04-.89s-.01-.74-.04-.9c-.03-.15-.09-.28-.18-.37-.07-.09-.15-.17-.26-.23-.12-.06-.25-.09-.41-.1-.15,0-.29.04-.4.1-.11.06-.2.14-.27.23-.09.1-.14.22-.17.37-.03.16-.05.46-.05.9Z" fill="#010101"/><path d="M104.81,45.78c-.11.1-.2.21-.32.28-2.59,1.51-5.19,3.01-7.78,4.52-.27.16-.49.17-.77,0-3.03-1.76-6.06-3.51-9.09-5.26-.8-.46-1.61-.9-2.38-1.4-.4-.26-.73-.22-1.12,0-2.48,1.45-4.97,2.89-7.46,4.33-1.2.69-2.38,1.4-3.6,2.06-.46.25-.62.53-.61,1.08.03,3.91.02,7.83.02,11.74,0,.5-.03,1.01,0,1.51.02.27-.08.41-.3.53-3,1.72-6,3.45-9,5.17-.8.46-1.58.96-2.4,1.38-.54.28-.72.6-.71,1.23.06,2.57.04,5.14.05,7.72,0,.29.02.59,0,.88,0,.11-.12.21-.18.32-.08-.11-.22-.21-.23-.32-.02-.5,0-1.01,0-1.51,0-2.6,0-5.2.03-7.8,0-.13.14-.32.27-.39,2.82-1.64,5.66-3.27,8.49-4.9,1.09-.63,2.17-1.26,3.27-1.88.27-.15.4-.33.39-.66-.02-4.39,0-8.78-.05-13.16,0-.58.2-.84.67-1.11,3.82-2.18,7.63-4.38,11.43-6.59.38-.22.64-.21,1.02.01,2.6,1.52,5.22,3.01,7.83,4.52,1.15.66,2.31,1.3,3.43,2.01.45.28.78.27,1.21.02,2.07-1.22,4.15-2.41,6.23-3.62.41-.24.82-.48,1.24-.71.11-.06.24-.09.36-.13.03.04.05.09.08.13Z" stroke="#1d1d1b" stroke-miterlimit="10" stroke-width=".25"/><path d="M55.24,88.71c-.13.11-.25.24-.4.33-2.5,1.45-5,2.9-7.5,4.33-.33.19-.47.4-.47.8.03,2.91.05,5.81.07,8.72,0,.1.02.21-.01.29-.03.07-.12.17-.19.17-.06,0-.16-.1-.18-.17-.03-.1-.02-.22-.01-.33,0-2.51.01-5.03.02-7.54,0-.54-.04-1.08-.02-1.62,0-.12.16-.28.28-.35,1-.59,2-1.16,3-1.74,1.63-.94,3.26-1.88,4.9-2.82.14-.08.29-.12.44-.18.03.04.06.09.09.13Z" stroke="#1d1d1b" stroke-miterlimit="10" stroke-width=".25"/><path d="M97.47,50.42c.03.21.09.42.09.63.02,1.16.02,2.32.02,3.48,0,1.8,0,3.6.01,5.4,0,.07.02.15,0,.21-.05.1-.13.18-.19.27-.07-.08-.14-.16-.21-.25-.02-.03,0-.08,0-.12,0-2.93.02-5.86.03-8.79,0-.27.04-.54.06-.81.06,0,.12,0,.18-.01Z" stroke="#1d1d1b" stroke-miterlimit="10" stroke-width=".25"/><path d="M95.14,60.44c-.04-.16-.13-.32-.13-.48,0-2.86,0-5.72,0-8.58,0-.3.07-.6.11-.9.06,0,.11,0,.17,0,.03.21.09.42.09.62,0,2.97.01,5.95.01,8.92,0,.14-.06.27-.09.41-.06,0-.12,0-.18.01Z" stroke="#1d1d1b" stroke-miterlimit="10" stroke-width=".25"/><path d="M46.28,94.63c-.77-.25-8.42-4.75-8.6-5.15.26.11.45.16.61.25,1.8,1.04,3.6,2.08,5.39,3.12.8.46,1.59.92,2.38,1.39.12.07.21.2.31.3-.03.03-.06.06-.09.09Z" stroke="#1d1d1b" stroke-miterlimit="10" stroke-width=".25"/><path d="M47.33,92.7c-.59-.06-8.46-4.69-8.53-5.02.49.02,8.43,4.69,8.53,5.02Z" stroke="#1d1d1b" stroke-miterlimit="10" stroke-width=".25"/><path d="M83.89,34.03c-.4,0-.81.01-1.21,0-.11,0-.22-.11-.33-.16.1-.06.21-.18.31-.18.81-.03,1.61-.04,2.42-.03.13,0,.26.13.39.21-.12.06-.24.16-.37.17-.4.02-.81,0-1.21,0h0Z" stroke="#1d1d1b" stroke-miterlimit="10" stroke-width=".25"/><path d="M82.55,35.45c.11-.08.22-.22.34-.23.67-.02,1.33-.02,2,0,.19,0,.45,0,.33.36h-2.57s-.06-.09-.09-.14Z" stroke="#1d1d1b" stroke-miterlimit="10" stroke-width=".25"/><path d="M83.91,37.11c-.28,0-.56.02-.84,0-.1,0-.19-.12-.28-.19.09-.06.19-.18.28-.19.54-.02,1.09-.02,1.63,0,.1,0,.19.14.29.21-.1.06-.19.15-.29.16-.26.02-.53,0-.8,0,0,0,0,0,0,0Z" stroke="#1d1d1b" stroke-miterlimit="10" stroke-width=".25"/><path d="M83.88,38.63c-.21,0-.42,0-.63,0-.07,0-.13-.07-.2-.11.06-.07.11-.2.17-.2.46-.01.92-.01,1.38,0,.06,0,.12.12.18.18-.06.04-.12.12-.19.12-.24.01-.47,0-.71,0,0,0,0,0,0,0Z" stroke="#1d1d1b" stroke-miterlimit="10" stroke-width=".25"/><path d="M83.95,39.72l.58.3c-.21.06-.41.14-.62.18-.13.03-.28.03-.41,0-.08-.02-.15-.12-.22-.19.07-.07.13-.17.22-.19.13-.03.27,0,.41,0,.01-.03.03-.07.04-.1Z" stroke="#1d1d1b" stroke-miterlimit="10" stroke-width=".25"/><path d="M83.91,41.24c.15.11.26.19.37.27-.13.06-.26.18-.4.18-.12,0-.24-.12-.36-.19.11-.08.23-.16.39-.27Z" stroke="#1d1d1b" stroke-miterlimit="10" stroke-width=".25"/></svg>