<?xml version="1.0" encoding="UTF-8"?>
<svg id="Layer_1" data-name="Layer 1" xmlns="http://www.w3.org/2000/svg" version="1.1" viewBox="0 0 144.6 144.6">
  <defs>
    <style>
      .cls-1 {
        fill: none;
        stroke: #000;
        stroke-miterlimit: 10;
        stroke-width: .3px;
      }
    </style>
  </defs>
  <path class="cls-1" d="M69.1,73.5s0,0,0,0c-.2-.3-.3-.5-.4-.8-.1.3-.2.7-.3,1,.2,0,.5-.1.8-.2Z"/>
  <path class="cls-1" d="M74.1,65.6c.1-.6.4-1.1.6-1.4.8-1.1,1.8-1.9,2.8-2.8-2.2-.5-4.7-.5-6.7-1.8-.5-.3-1-.7-1.5-1.2-.4.7-.8,1.4-1.2,2.1-.4.7-.8,1.4-1.2,2.2,1.4.3,2.7.9,3.5,2h0c1,1.4.5,3.1-.2,4.6.9-.8.8-2.1,1.9-2.8h0c.6-.4,1.3-.5,1.8-.4,0-.1,0-.2,0-.4h0Z"/>
  <path class="cls-1" d="M53.1,93.7h0c.2,1-.2,1.9-.8,2.7.1.4.2.9.3,1.4,0,1.1.7,2.4,2,2.2,1.1-.1,1.5-1,1.8-1.9-.2-.9,0-1.9.4-2.7.2-1.2.5-2.3,1-3.6.7-1.7,1.3-3.9-.1-5.4h0c-1.3-1.4-3.6-1.6-5.4-1.5-2.3,0-3.6,2-3.5,4.2.2,0,.5.2.7.3,1.5.9,3.4,2.3,3.7,4.2ZM54.1,85.8h0c2.9,3.7.3,8.3.8,12.5,0,.1-.2.1-.2,0-.4-2-.1-4.1,0-6.2.1-2.1.3-4.3-.8-6.2,0-.1.1-.2.2-.1Z"/>
  <path class="cls-1" d="M54.7,92.2c-.1,2.1-.4,4.1,0,6.2,0,.1.2.1.2,0-.6-4.2,2.1-8.7-.8-12.5h0c0-.1-.3,0-.2.1,1.1,1.9.9,4.1.8,6.2Z"/>
  <path class="cls-1" d="M89.3,35.1c.2.3.6.8,1,1.2h0c.4.3.9.5,1.3.4,1.1-.3.5-2.1.8-2.9.6-2.6,3.1-4.2,3.6-6.9.5-2.5-1.2-5.3-4.1-4.7-.7.1-1.2.3-2,.2-.6,0-1.1,0-1.7.2-1.1.5-1.7,1.6-1.7,2.8,0,1.8.7,3.7,1.3,5.3.5,1.4.7,3,1.4,4.3ZM89.5,26.3c.2-1,.4-2.1.9-2.9,0,0,0,0,0,0-.1,1-.4,2-.5,3-.1,1,0,2,0,3,0,2.1.4,4.3,1.2,6.3h0c0,0,0,.1,0,0-1-2-1.6-4-1.7-6.2,0-1.1,0-2.2.3-3.3Z"/>
  <path class="cls-1" d="M91,35.7h0c-.8-2-1.1-4.2-1.2-6.3,0-1,0-2,0-3,0-1,.4-2,.5-3,0,0,0,0,0,0-.5.8-.7,1.9-.9,2.9-.2,1.1-.3,2.1-.3,3.3,0,2.2.7,4.2,1.7,6.2,0,0,.1,0,0,0Z"/>
  <path class="cls-1" d="M56.4,98.1c.2.7.6,1.4,1.4,1.9.6.4,1,.7,1.5,1.2.4.5.7.8,1.3,1.1,1.2.5,2.4.1,3.2-.7,1.2-1.2,2.1-3.1,2.9-4.6.7-1.3,1.7-2.6,2.1-4,.1-.4.2-1,.2-1.6h0c0-.5-.2-1-.6-1.2-1-.6-1.9,1-2.6,1.5-2.3,1.3-5.2.7-7.5,2.1-.6.4-1.2,1-1.5,1.6-.5.8-.7,1.8-.4,2.7ZM59.6,100.2c.8-.6,1.7-1,2.5-1.7.8-.6,1.5-1.3,2.2-2.1,1.5-1.5,2.8-3.3,3.7-5.2,0,0,0,0,0,0h0s0,0,0,0c0,0,.1,0,0,0-.7,2.1-1.7,3.9-3.2,5.5-.7.8-1.6,1.4-2.5,2-.8.5-1.8,1.1-2.7,1.3h0Z"/>
  <path class="cls-1" d="M64.9,96.9c1.5-1.6,2.5-3.5,3.2-5.5,0,0,0,0,0,0-.9,1.9-2.2,3.7-3.7,5.2-.7.7-1.4,1.4-2.2,2.1-.8.6-1.7,1.1-2.5,1.7h0c1-.2,1.9-.8,2.7-1.3.9-.6,1.8-1.2,2.5-2Z"/>
  <path class="cls-1" d="M68.1,91.3s0,0,0,0c0,0,0,0,0,0h0Z"/>
  <path class="cls-1" d="M58.7,73.4c-.4.5-1,.6-1.6.4-.2,1.9-.7,3.7-1.2,5.4,0,0-.2,0-.1,0,.4-1.9.7-3.7.7-5.6-.3-.1-.5-.3-.7-.5-1.5-1.5-3.4-1.7-5.2-2.2.6,3.4,3.6,5.8,3.9,9.3,0,.6.5,1,1,1.1,1.6.3,1.5-.9,1.8-2,.5-1.8,1.4-3.6,2-5.4.7-2.2,2.2-6.6-1-7.7-.7-.2-1.4,0-2,.2.6,1.2,1.2,2.3,2.1,3.5.7,1.1,1.6,2.5.6,3.6Z"/>
  <path class="cls-1" d="M55.7,79.2c0,0,.1.1.1,0,.5-1.7,1-3.6,1.2-5.4-.2,0-.5-.1-.7-.3,0,1.9-.3,3.8-.7,5.6Z"/>
  <path class="cls-1" d="M69.5,83.5c-2.3,2-5.7,2.7-8.6,3.2,0,0-.1-.1,0-.2,1.9-.5,3.9-1.1,5.6-2,.8-.5,1.7-1,2.5-1.6-1.2-1.5-2.6-2.7-3-4.7,0,0,0,0,0,0-2.7,2-3.6,5.8-6.6,7.6-.5.3-.7.9-.5,1.3.4,1.5,1.5.9,2.6.7,1.9-.4,3.9-.3,5.7-.6.9-.2,2.3-.3,3.5-.7,0,0,0,0,0-.1-.1-1.1-.6-2-1.2-2.8Z"/>
  <path class="cls-1" d="M60.9,86.5c0,0,0,.2,0,.2,2.9-.5,6.3-1.2,8.6-3.2-.1-.2-.3-.4-.5-.6-.8.6-1.7,1.1-2.5,1.6-1.7,1-3.7,1.5-5.6,2Z"/>
  <path class="cls-1" d="M107.8,100.6c-1.3-.4-2.4.7-3.7.3-1.1-.3-2-.6-2.9.3-1,1-1.2,2.7-1,4,.5,3.4,3.6,5.9,3.9,9.4,0,.6.5,1,1,1.1,1.6.3,1.5-.9,1.8-2,.5-1.8,1.4-3.6,2-5.4.7-2.2,2.2-6.6-1-7.7ZM105.7,113.8c0,0-.2,0-.1,0,.4-1.9.8-3.9.7-5.9,0-1.9-.3-3.9-1-5.6,0-.1.1-.2.2-.1,0,0,0,0,0,0h0s0,0,0,0c2.5,3.3,1.4,8,.3,11.7Z"/>
  <polygon class="cls-1" points="105.4 102 105.4 102 105.4 102 105.4 102"/>
  <path class="cls-1" d="M105.2,102.2c.7,1.7.9,3.8,1,5.6.1,2-.3,4-.7,5.9,0,0,.1.1.1,0,1.1-3.7,2.3-8.4-.3-11.7,0-.1-.3,0-.2.1Z"/>
  <path class="cls-1" d="M66.1,76c0,0-.2,0-.2,0-.1-2.1.5-4.1.9-6.1.5-2,.9-4.3.1-6.3,0-.2.1-.2.2,0,2.3,4.1-.9,8.2-1,12.3.4-1,1.1-1.7,2.1-2.1.1-.3.2-.7.3-1-.1-.3-.2-.5-.2-.8-.1-1.3.6-1.8,1.6-2.5,0,0,.2-.1.3-.2.7-1.4,1.2-3.1.2-4.6h0c-.8-1.2-2.2-1.7-3.5-2-.5.9-1.1,1.8-1.8,2.5-.9.9-2,1.2-3.2.7-.2,0-.4-.2-.6-.4,0,.2,0,.4,0,.6-.2,3.3,3,5.4,2.6,9-.1,1.1.4,2.5,1.6,2.5.1,0,.2,0,.4,0,0-.5,0-1.1.2-1.5Z"/>
  <path class="cls-1" d="M67.2,63.4c0-.1-.3,0-.2,0,.8,2,.3,4.2-.1,6.3-.4,2-1,4-.9,6.1,0,0,.1.1.2,0,0,0,0-.2,0-.2.1-4.2,3.3-8.3,1-12.3Z"/>
  <path class="cls-1" d="M73.6,37.8c1.5,3,5.3,3.2,6.8,6.4.5,1,1.6,1.9,2.7,1.3,1.3-.8,1-2.4.7-3.6-.5-1.8-.8-3.3-.8-5.2,0-1.8-.3-4-2.1-4.9h0c-1.8-.8-3.9,0-5.5.6-2.2,1-2.7,3.3-1.6,5.3ZM77.3,32.5h0c4.1,2.4,3.4,7.6,5.5,11.3,0,.1-.1.2-.2.1-1.2-1.7-1.7-3.8-2.3-5.7-.7-2-1.4-4.1-3.1-5.5-.1-.1,0-.3.1-.2Z"/>
  <path class="cls-1" d="M80.2,38.2c.7,2,1.2,4,2.3,5.7,0,.1.3,0,.2-.1-2.1-3.6-1.4-8.9-5.5-11.2h0c-.1,0-.3,0-.1.2,1.7,1.3,2.4,3.5,3.1,5.5Z"/>
  <path class="cls-1" d="M85.7,66.2c.8,2.8.2,6.1,1,9,0,.1-.2.2-.2,0-.7-2-.8-4-1.1-6.1,0-.9-.2-1.8-.4-2.7,0,0,0,0,0,0-2,.5-4.1-.2-6.1-.3,0,.4,0,.8.2,1.2.9,3.2,4.5,4.2,5.3,7.7.2,1.1,1.1,2.2,2.3,1.9,1.5-.5,1.5-2.1,1.4-3.4,0-1.9,0-3.4.3-5.2.3-1.5.5-3.3-.4-4.6-.3,1.1-1.2,2-2.3,2.5Z"/>
  <path class="cls-1" d="M86.5,75.2c0,.1.3,0,.2,0-.9-2.8-.3-6.1-1-9-.2,0-.4.2-.6.2.2.9.3,1.8.4,2.7.2,2,.3,4.1,1.1,6.1Z"/>
  <path class="cls-1" d="M43.1,33.9c2.4-1.1,5.3-.3,7.6-1.5,2.3-1.2,3.3-4.3,1.1-6.1-.6-.5-1-.8-1.4-1.4-.4-.5-.7-.9-1.2-1.2-1.1-.6-2.3-.3-3.3.5-1.3,1.1-2.4,2.9-3.3,4.4-.8,1.3-1.9,2.4-2.4,3.8-.1.4-.3,1-.3,1.5h0c0,.5.1,1,.5,1.3,1,.7,1.9-.9,2.8-1.3ZM44.4,28.8c.8-.7,1.7-1.3,2.7-1.8.9-.5,1.9-1,2.8-1.1h0c-.8.6-1.8.9-2.6,1.5-.8.6-1.6,1.2-2.4,1.9-1.6,1.4-3.1,3-4.1,4.9h0c0,0-.1,0,0,0,.9-2,2-3.8,3.7-5.2Z"/>
  <path class="cls-1" d="M40.8,34.1h0c1-1.8,2.5-3.5,4.1-4.9.8-.7,1.6-1.3,2.4-1.9.8-.6,1.8-.9,2.6-1.5h0c-1,.1-2,.6-2.8,1.1-1,.5-1.9,1.1-2.7,1.8-1.6,1.5-2.8,3.2-3.7,5.2,0,0,0,.1,0,0Z"/>
  <path class="cls-1" d="M30.2,79.5c.6.4,1,.7,1.5,1.2.4.5.7.8,1.3,1.1,1.2.5,2.4.1,3.2-.7,1.2-1.2,2.1-3.1,2.9-4.6.7-1.3,1.7-2.6,2.1-4,.1-.4.2-1,.2-1.6h0c0-.5-.2-1-.6-1.2-1-.6-1.9,1-2.6,1.5-2.3,1.3-5.2.7-7.5,2.1-2.2,1.4-3,4.6-.6,6.2ZM32.1,79.7c.8-.6,1.7-1,2.5-1.7.8-.6,1.5-1.3,2.2-2.1,1.5-1.5,2.8-3.3,3.7-5.2,0,0,0,0,0,0h0s0,0,0,0c0,0,.1,0,0,0-.7,2.1-1.7,3.9-3.2,5.5-.7.8-1.6,1.4-2.5,2-.8.5-1.8,1.1-2.7,1.3h0Z"/>
  <path class="cls-1" d="M40.6,70.8s0,0,0,0c0,0,0,0,0,0h0Z"/>
  <path class="cls-1" d="M37.4,76.4c1.5-1.6,2.5-3.5,3.2-5.5,0,0,0,0,0,0-.9,1.9-2.2,3.7-3.7,5.2-.7.7-1.4,1.4-2.2,2.1-.8.6-1.7,1.1-2.5,1.7h0c1-.2,1.9-.8,2.7-1.3.9-.6,1.8-1.2,2.5-2Z"/>
  <path class="cls-1" d="M25.3,58.8c3.5.1,6.5-2.5,10-2.2.6,0,1.1-.3,1.2-.8.6-1.5-.6-1.7-1.6-2.1-1.7-.8-3.3-2-5-2.9-2.1-1.1-6.1-3.4-7.8-.3h0c-.7,1.3.2,2.5-.4,3.7-.5,1-.9,1.8-.2,2.9.8,1.2,2.4,1.6,3.8,1.7ZM23.1,53.1c3.7-1.9,8.2,0,11.6,1.8,0,0,0,.2,0,.1-1.8-.7-3.7-1.4-5.7-1.7-1.8-.2-3.9-.4-5.7,0-.2,0-.2-.2,0-.2Z"/>
  <path class="cls-1" d="M23.1,53.4c1.8-.4,3.9-.2,5.7,0,2,.2,3.9,1,5.7,1.7,0,0,.2,0,0-.1-3.4-1.7-7.8-3.7-11.6-1.8-.1,0,0,.3,0,.2Z"/>
  <path class="cls-1" d="M43,52.9c0,.6.5,1,1,1.1,1.6.3,1.5-.9,1.8-2,.5-1.8,1.4-3.6,2-5.4.7-2.2,2.2-6.6-1-7.7-1.3-.4-2.4.7-3.7.3-1.1-.3-2-.6-2.9.3-1,1-1.2,2.7-1,4,.5,3.4,3.6,5.9,3.9,9.4ZM44.2,40.3s0,0,0,0h0s0,0,0,0c2.5,3.3,1.4,8,.3,11.7,0,0-.2,0-.1,0,.4-1.9.8-3.9.7-5.9,0-1.9-.3-3.9-1-5.6,0-.1.1-.2.2-.1Z"/>
  <path class="cls-1" d="M45,46.1c.1,2-.3,4-.7,5.9,0,0,.1.1.1,0,1.1-3.7,2.3-8.4-.3-11.7,0-.1-.3,0-.2.1.7,1.7.9,3.8,1,5.6Z"/>
  <polygon class="cls-1" points="44.2 40.3 44.2 40.3 44.2 40.3 44.2 40.3"/>
  <path class="cls-1" d="M45.8,56.1c-1.2-1-2.9-1.4-4.4-1.6-2.4-.3-4,1.5-4.1,3.8-.2,3.3,3,5.4,2.6,9-.1,1.1.4,2.5,1.6,2.5,1.5,0,2.1-1.5,2.4-2.8.5-1.8,1-3.3,1.9-4.9.7-1.3,1.5-2.9,1.1-4.4-.5-.5-.9-1-1.1-1.6ZM42.1,68.1c0,.1-.2.1-.2,0-.1-2.1.5-4.1.9-6.1.5-2,.9-4.3.1-6.3,0-.2.1-.2.2,0,2.3,4.1-1,8.3-1,12.5Z"/>
  <path class="cls-1" d="M42.9,55.7c.8,2,.3,4.2-.1,6.3-.4,2-1,4-.9,6.1,0,.1.2.1.2,0,0-4.2,3.3-8.3,1-12.5,0-.1-.3,0-.2,0Z"/>
  <path class="cls-1" d="M63.3,27.3c3.1,1.2,6.1-1.1,9.3.3,1,.4,2.5.4,2.9-.8.5-1.5-.8-2.5-1.9-3.2-1.6-1-2.8-2-4-3.3-1.2-1.3-2.9-2.9-4.8-2.3h0c-1.9.5-3,2.5-3.8,4.1-1,2.1.2,4.2,2.3,5.1ZM62.6,21c4.7-.9,7.5,3.5,11.5,4.9.1,0,0,.3,0,.2-2-.6-3.7-1.7-5.5-2.8-1.8-1.1-3.8-2.2-5.9-2.1-.1,0-.1-.2,0-.2Z"/>
  <path class="cls-1" d="M62.6,21.2c2.2-.1,4.1,1,5.9,2.1,1.8,1,3.5,2.2,5.5,2.8.1,0,.2-.2,0-.2-4-1.4-6.9-5.8-11.5-4.9-.1,0-.1.2,0,.2Z"/>
  <path class="cls-1" d="M62,54.6c0,.1-.2.2-.2,0-.7-2-.8-4-1.1-6.1-.2-1.5-.3-3-.9-4.4-1.2-.2-2.3-.5-3.3-1.2-.3-.2-.5-.3-.8-.5-1.3.9-1.8,2.6-1.4,4.3.9,3.2,4.5,4.2,5.3,7.7.2,1.1,1.1,2.2,2.3,1.9,1.5-.5,1.5-2.1,1.4-3.4,0-1.9,0-3.4.3-5.2.2-.9.3-1.8.2-2.7-1.1-.3-2.3-.5-3.4-.7,1.5,3.1.5,7,1.5,10.3Z"/>
  <path class="cls-1" d="M61.8,54.7c0,.1.3,0,.2,0-1-3.3,0-7.2-1.5-10.3-.2,0-.4,0-.6-.1.6,1.4.7,2.9.9,4.4.2,2,.3,4.1,1.1,6.1Z"/>
  <path class="cls-1" d="M32.7,96.5c-1.6-2.1-1.3-5.1-3-7.2-1.6-2-4.9-2.4-6.2.1-.3.6-.6,1.1-1.1,1.6-.4.4-.7.8-.9,1.4-.3,1.2.1,2.4,1.1,3.1,1.4,1.1,3.3,1.8,4.9,2.4,1.4.6,2.7,1.4,4.2,1.7.4,0,1,0,1.6,0h0c.5-.1,1-.3,1.1-.7.5-1.1-1.2-1.7-1.8-2.5ZM33.3,98.8c-2.1-.5-4.1-1.3-5.9-2.6-.9-.7-1.6-1.4-2.3-2.3-.6-.8-1.3-1.6-1.6-2.6h0c.7.7,1.2,1.6,1.9,2.3.7.7,1.5,1.4,2.3,2,1.7,1.3,3.6,2.4,5.6,3.1h0c0,0,0,0,0,0Z"/>
  <path class="cls-1" d="M33.3,98.7c-2-.7-3.9-1.8-5.6-3.1-.8-.6-1.6-1.3-2.3-2-.7-.7-1.3-1.6-1.9-2.3h0c.3.9,1,1.8,1.6,2.6.7.9,1.4,1.6,2.3,2.3,1.7,1.3,3.7,2.1,5.9,2.6,0,0,0,0,0,0h0Z"/>
  <path class="cls-1" d="M64.4,112.8c-.2-.3-.6-.8-1.1-1.1h0c-.4-.3-.9-.5-1.3-.3-1.1.4-.4,2.1-.5,3-.4,2.6-2.8,4.5-3.1,7.1-.3,2.6,1.6,5.2,4.4,4.4.7-.2,1.2-.4,1.9-.4.6,0,1.1,0,1.7-.3,1.1-.6,1.6-1.7,1.5-3-.2-1.8-1-3.6-1.7-5.2-.6-1.4-.9-2.9-1.7-4.2ZM64.9,121.5c-.1,1-.3,2.1-.7,3,0,0,0,0,0,0,0-1,.3-2,.3-3s0-2-.2-3c-.2-2.1-.7-4.2-1.6-6.2h0c0,0,0-.1,0,0,1.1,1.9,1.9,3.9,2.2,6,.1,1.1,0,2.2,0,3.3Z"/>
  <path class="cls-1" d="M62.8,112.2c0,0-.1,0,0,0h0c.9,1.9,1.4,4.1,1.6,6.2,0,1,.2,2,.2,3s-.3,2-.3,3c0,0,0,0,0,0,.5-.9.6-2,.7-3,.1-1.1.2-2.2,0-3.3-.3-2.2-1.1-4.1-2.2-6Z"/>
  <path class="cls-1" d="M46.2,110.1c-1.3-1.9-3.7-5.9-6.6-4.1h0c-1.2.7-1,2.3-2.2,3-1,.6-1.7,1.1-1.6,2.5.1,1.4,1.3,2.6,2.5,3.3,3,1.8,6.9,1,9.7,3,.5.4,1.1.2,1.4,0,1.2-1,.3-1.8-.4-2.7-1.1-1.5-1.9-3.4-2.9-5ZM48.3,116.1c-1.3-1.5-2.5-3.1-4.1-4.3-1.5-1.1-3.2-2.3-5-2.8-.1,0,0-.2,0-.2,4.2.2,7.1,4.1,9.2,7.3,0,0,0,.1-.1,0Z"/>
  <path class="cls-1" d="M39.2,108.7c-.1,0-.2.2,0,.2,1.8.5,3.5,1.7,5,2.8,1.6,1.2,2.9,2.7,4.1,4.3,0,0,.2,0,.1,0-2.1-3.2-5-7.1-9.2-7.3Z"/>
  <path class="cls-1" d="M72.3,104.1c-1.2-.1-2.2-.1-3.3,0-.3.6-.5,1.2-1.1,1.6-1,.6-1.7,1.1-1.6,2.5.1,1.4,1.3,2.6,2.5,3.3,3,1.8,6.9,1,9.7,3,.5.4,1.1.2,1.4,0,1.2-1,.3-1.8-.4-2.7-1.1-1.5-1.9-3.4-2.9-5-.5-.7-1.1-1.7-1.8-2.6-.8.1-1.7,0-2.6,0ZM78.9,112.7c0,0,0,.1-.1,0-1.3-1.5-2.5-3.1-4.1-4.3-1.5-1.1-3.2-2.3-5-2.8-.1,0,0-.2,0-.2,4.2.2,7.1,4.1,9.2,7.3Z"/>
  <path class="cls-1" d="M69.6,105.7c1.8.5,3.5,1.7,5,2.8,1.6,1.2,2.9,2.7,4.1,4.3,0,0,.2,0,.1,0-2.1-3.2-5-7.1-9.2-7.3-.1,0-.2.2,0,.2Z"/>
  <path class="cls-1" d="M54.7,103c-.6-1.7-1.6-3.7-3.7-3.9h0c-.8,0-1.6.1-2.4.5-.7.7-1.4,1.4-2.1,2.2-.4.5-1,1.1-1.6,1.4-.3,1.3.2,2.8,1.3,3.9,2.5,2.3,6.1,1.2,8.6,3.7.7.8,2.1,1.3,3,.3,1-1.2.1-2.6-.6-3.6-1.1-1.5-1.9-2.8-2.5-4.6ZM56.7,109.9c-1.7-1.2-2.9-3-4.1-4.6-1.3-1.7-2.7-3.4-4.7-4.1-.2,0,0-.2,0-.2,4.7.8,5.8,6,9,8.7,0,0,0,.2-.2.2Z"/>
  <path class="cls-1" d="M47.9,101c-.1,0-.2.2,0,.2,2.1.7,3.5,2.5,4.7,4.1,1.3,1.6,2.5,3.3,4.1,4.6,0,0,.3,0,.2-.2-3.2-2.7-4.3-7.9-9-8.7Z"/>
  <path class="cls-1" d="M28.6,72.9c1-.5,1.9-1.6,1.3-2.7-.8-1.3-2.4-.9-3.6-.6-1.8.5-3.3.9-5.1,1-1.8,0-4,.4-4.8,2.3h0c-.8,1.8,0,3.9.8,5.5,1,2.1,3.4,2.6,5.4,1.5,2.9-1.6,3-5.4,6.2-7ZM17.2,76.5c0,.1-.3,0-.2-.1,2.3-4.2,7.5-3.6,11.1-5.8.1,0,.2.1.1.2-1.7,1.2-3.7,1.8-5.6,2.5-2,.7-4.1,1.5-5.4,3.2Z"/>
  <path class="cls-1" d="M28.2,70.8c.1,0,0-.3-.1-.2-3.6,2.2-8.8,1.6-11.1,5.8,0,.1,0,.3.2.1,1.3-1.7,3.4-2.5,5.4-3.2,1.9-.7,3.9-1.3,5.6-2.5Z"/>
  <path class="cls-1" d="M41.8,80.3c.4.2.7.7.6,1.3-.1.4-.1.9-.2,1.3.1,0,.3.2.5.3,3,1.4,6.1-.8,9.3.8,1,.5,2.4.6,2.9-.6.6-1.4-.7-2.5-1.7-3.3-1.5-1.1-2.7-2.1-3.8-3.5-1.1-1.4-2.7-3-4.7-2.5-1.9.5-3.1,2.3-4,3.9-.4.8-.5,1.7-.4,2.4.3-.4.8-.5,1.5-.1ZM42.3,76.8h0c4.7-.7,7.3,3.9,11.2,5.5.1,0,0,.2,0,.2-2-.7-3.6-1.9-5.4-3.1-1.8-1.2-3.6-2.4-5.8-2.4s-.1-.2,0-.2Z"/>
  <path class="cls-1" d="M42.3,77c2.2,0,4,1.2,5.8,2.4,1.7,1.1,3.4,2.4,5.4,3.1.1,0,.2-.2,0-.2-3.9-1.6-6.6-6.1-11.2-5.5h0c-.1,0-.2.2,0,.2Z"/>
  <path class="cls-1" d="M82.2,60.5c.2,0,.3-.1.5-.2.9-.2,2-.5,3-.5,0,0,0,0,0,0-.9.3-1.9.5-2.9.8-.1,0-.2.1-.4.2.3.5.3,1-.4,1.6-.4.3-.9.4-1.4,0-.2-.2-.5-.3-.7-.4-1.8,1-3.5,2.2-4.9,3.8h0c0,0-.1,0,0,0,1.2-1.6,2.6-3,4.3-4-.5-.2-1.1-.4-1.7-.5-1,.9-2.1,1.7-2.8,2.8-.2.3-.5.9-.6,1.4h0c0,.1,0,.2,0,.3.7,0,1.3.4,1.9.9.5-.2.9-.5,1.3-.6.6-.1,1.1-.2,1.7-.1,2,0,4.1.9,6.1.3,0,0,0,0,0,0,.2,0,.4-.1.6-.2,1.1-.5,2-1.4,2.3-2.5.3-1,.2-2.1-.6-3-.3-.4-.6-.7-.8-1.1-.2,0-.4,0-.6,0h0c-1.5-.2-2.2-1.3-2.5-2.6-.5,0-.9.2-1.4.4-.5.3-.9.6-1.4.9.3.5.6,1,.9,1.5.2.2.3.4.5.7Z"/>
  <path class="cls-1" d="M85.7,59.9s0,0,0,0c-1,0-2.1.2-3,.5-.2,0-.3.1-.5.2.1.1.2.3.3.4.1,0,.2-.1.4-.2.9-.4,1.9-.5,2.9-.8Z"/>
  <path class="cls-1" d="M74.9,65.9s0,.1,0,0h0c1.4-1.5,3.1-2.8,4.9-3.8-.2-.1-.5-.2-.7-.3-1.7,1-3.1,2.4-4.3,4Z"/>
  <path class="cls-1" d="M72.2,50.8h0c.8-.5,1.6-.6,2.3-.3,0,0,.1,0,.2-.1,1-.7,1.4-1.9,1.1-3.1-.4-1.7-1.5-3.4-2.3-5-.7-1.3-1.3-2.8-2.2-3.9-.2-.3-.7-.7-1.2-1-.5-.2-1-.4-1.3-.2-1.1.6-.1,2.1-.2,3,0,1.2-.5,2.3-1,3.5.6.8,1.2,1.5.1,2.3-.3.2-.7.3-1.1.2-.1.5-.2.9-.2,1.4,0,2.6,2.3,5,4.9,3.8.1,0,.2-.1.3-.2.2-.2.3-.4.6-.5ZM69.5,38.1h0c0,0,0-.1,0,0,1.3,1.7,2.4,3.6,2.9,5.7.3,1.1.4,2.1.4,3.2s0,2.1-.3,3c0,0,0,0,0,0,0-1,0-2,0-3-.1-1-.3-2-.5-3-.5-2.1-1.2-4.1-2.4-5.9Z"/>
  <path class="cls-1" d="M72.4,47c0,1,0,2,0,3,0,0,0,0,0,0,.3-.9.3-2,.3-3s0-2.2-.4-3.2c-.5-2.1-1.6-4-2.9-5.7,0,0-.1,0,0,0h0c1.2,1.8,1.9,3.9,2.4,5.9.2,1,.4,2,.5,3Z"/>
  <path class="cls-1" d="M89,82.9c.4-.7.8-1.4,1.2-2-.5.2-1,.2-1.5,0-.3.3-.5.7-.8,1,.3.3.7.7,1.1,1Z"/>
  <path class="cls-1" d="M90.6,80.7c-.4.8-.8,1.6-1.2,2.5.3.2.6.5.9.7,1,.8,2.3,1.9,1.7,3.3-.5,1.2-2,1.1-2.9.6-.3-.2-.6-.3-.9-.4-.2,1.2-.4,2.4-.3,3.6,0,.1-.2.2-.2,0h0c-.5-1.3-.5-2.6-.3-3.9-1-.2-2,0-3,0-.8,1.6-1,3.4.6,4.6h0c1.2.8,2.5,0,3.6.8.2.1.4.3.6.4.2-.4.4-.7.8-.9.8-.4,1.6,0,2.1.6.8-.8,1.3-2,1.4-3.1.5-3.4-1.7-6.7-.9-10.1-.2.2-.5.3-.7.5-.4.3-.8.5-1.3.8Z"/>
  <path class="cls-1" d="M87.7,91.2h0c0,.1.3,0,.2,0-.1-1.2,0-2.4.3-3.6-.3,0-.5-.2-.8-.2-.2,1.3-.2,2.6.3,3.9Z"/>
  <path class="cls-1" d="M89.4,83.2c.4-.8.8-1.7,1.2-2.5-.1,0-.3.1-.4.1-.4.6-.8,1.3-1.2,2,.1.1.3.2.4.3Z"/>
  <path class="cls-1" d="M73.2,88.1c0,.1,0,.2,0,.3,0,1.9-.4,3.9-.5,5.8,0,.2,0,.4,0,.6.7-.2,1.5-.3,2.1-.2-.5-2.1-.6-4.5-.5-6.5,0,0,.2,0,.2,0,.1,2,.3,4,1,5.9.1.3.2.7.3,1,.8.4,1.5,1.1,1.8,2.2.3,1,.5,2.2.5,3.3.4-.2.8-.3,1.2-.3,1.1,0,2,0,2.7-1.1.7-1.2.4-2.9-.2-4.1-1.4-3.2-5.1-4.7-6.3-8-.2-.6-.7-.8-1.2-.8-.1.9-.4,1.7-1.3,2.1Z"/>
  <path class="cls-1" d="M75.5,94c-.6-1.9-.8-3.9-1-5.9,0,0-.2,0-.2,0,0,2.1,0,4.4.5,6.5.3,0,.7.2,1,.3-.1-.3-.2-.7-.3-1Z"/>
  <path class="cls-1" d="M103.6,86.5h0c-.2-.1-.4-.3-.6-.4-.6.3-1.1.5-1.7.8-1.9,1-3.7,2.3-5.1,3.9h0c0,0-.1,0,0,0,1.3-1.8,2.8-3.3,4.7-4.3.5-.3,1.1-.5,1.6-.7-.5-.6-.7-1.4-.9-2.2-.9.7-1.7,1.6-2.5,2.4-1.1,1.1-2.3,1.9-3.2,3.2-.2.3-.5.9-.6,1.4h0c-.1.5,0,1,.2,1.3.8.9,2.1-.4,3-.6,2.6-.6,5.2.9,7.8.2,2.3-.6,3.9-3.1,2.7-5.3-1.7.7-3.7,1.3-5.4.5Z"/>
  <path class="cls-1" d="M96.2,90.7s0,.1,0,0h0c1.4-1.6,3.2-2.9,5.1-3.9.5-.3,1.1-.6,1.7-.8-.2-.1-.3-.3-.4-.5-.6.2-1.1.4-1.6.7-1.9,1.1-3.4,2.6-4.7,4.3Z"/>
  <path class="cls-1" d="M89.9,100.9c0-1.4-.1-2.5-.4-3.8-.6,1.5-1.4,2.9-2.2,4.3-1,1.8-2.1,3.8-2,6,0,.2-.2.2-.2,0h0c-.9-4.3,2.8-7.2,4.3-10.8,0-.3-.1-.6-.2-.9,0-.3-.2-.7-.2-1.1-.5.4-1,1-1.3,1.6-1,1.6-1.9,2.8-3.3,4.1-1.3,1.2-2.8,2.9-2.2,4.9h0c.6,1.8,2.5,2.9,4.2,3.7,2.2,1,4.2-.3,5-2.4.1-.3.2-.5.2-.8-1.6-1-1.8-3.1-1.7-4.8Z"/>
  <path class="cls-1" d="M85.1,107.4h0c0,.1.2.1.2,0-.1-2.2,1-4.1,2-6,.8-1.4,1.6-2.8,2.2-4.3,0-.2,0-.4-.1-.5-1.6,3.6-5.3,6.5-4.3,10.8Z"/>
  <path class="cls-1" d="M65.3,65.1c.7-.7,1.3-1.6,1.8-2.5.4-.7.8-1.5,1.2-2.2.4-.7.8-1.4,1.2-2.1-.3-.4-.6-.8-.8-1.2-.6,1.2-1.3,2.3-2.3,3.2-.7.8-1.6,1.4-2.5,2-.8.5-1.8,1.1-2.7,1.3h0c.8-.6,1.7-1.1,2.5-1.7.8-.6,1.5-1.3,2.2-2.1,1-1,1.9-2.1,2.6-3.3,0-.2,0-.3,0-.5-.1-1.3.6-1.8,1.6-2.5,0,0,0,0,0,0,0,0,0,0-.1,0-1-.6-1.9,1-2.6,1.5-2.1,1.3-4.9.8-7.1,1.9.3.5.4,1,.1,1.7-.4,1-1.4,1.1-2.3.8-.5,1.4-.2,2.9,1.2,3.9.6.4,1,.7,1.5,1.2.2.3.5.5.7.7.2.1.4.3.6.4,1.2.5,2.4.1,3.2-.7Z"/>
  <path class="cls-1" d="M65.8,60c-.7.7-1.4,1.4-2.2,2.1-.8.6-1.7,1.1-2.5,1.7h0c1-.2,1.9-.8,2.7-1.3.9-.6,1.8-1.2,2.5-2,.9-1,1.7-2.1,2.3-3.2,0-.1-.1-.3-.1-.4-.8,1.2-1.7,2.3-2.6,3.3Z"/>
  <path class="cls-1" d="M81.9,77.7c.2,0,.4,0,.6,0,.5-.8-.3-1.4-.8-2.2-1.1-1.5-1.9-3.4-2.9-5-.7-1-1.7-2.6-2.8-3.6-.6-.5-1.2-.9-1.9-.9-.6,0-1.2,0-1.8.4h0c-1.1.7-1.1,2-1.9,2.8,0,0-.2.1-.3.2-1,.6-1.7,1.1-1.6,2.5,0,.3.1.6.2.8.1.3.3.6.4.8,1.8-.2,4-.3,5.5,1h0c.6.6.9,1.3,1,2.1,1.8.3,3.6.6,5,1.6,0,0,0,0,0,0,.4-.2.7-.4,1.2-.5h0ZM80.9,76.5c-1.3-1.5-2.5-3.1-4.1-4.3-1.5-1.1-3.2-2.3-5-2.8-.1,0,0-.2,0-.2,4.2.2,7.1,4.1,9.2,7.3,0,0,0,.1-.1,0Z"/>
  <path class="cls-1" d="M71.8,69.1c-.1,0-.2.2,0,.2,1.8.5,3.5,1.7,5,2.8,1.6,1.2,2.9,2.7,4.1,4.3,0,0,.2,0,.1,0-2.1-3.2-5-7.1-9.2-7.3Z"/>
  <path class="cls-1" d="M68.4,56.2c0,.2,0,.3,0,.5,0,.1,0,.3.1.4.2.4.5.8.8,1.2.4.5.9.9,1.5,1.2,2,1.2,4.4,1.3,6.7,1.8.6.1,1.1.3,1.7.5.2,0,.5.2.7.3.2.1.5.2.7.4.5.4,1.1.2,1.4,0,.7-.6.7-1.1.4-1.6,0-.1-.2-.3-.3-.4-.2-.2-.3-.4-.5-.7-.3-.5-.7-1-.9-1.5-.7-1.2-1.2-2.4-2-3.5-.9-1.4-2.4-3.8-4.3-4.4-.7-.2-1.5-.2-2.3.3h0c-.2.2-.4.3-.6.5-.6.8-.7,1.9-1.6,2.5,0,0,0,0,0,0-1,.6-1.7,1.1-1.6,2.5ZM71.7,53.5c4.2.2,7.1,4.1,9.2,7.3,0,0,0,.1-.1,0-1.3-1.5-2.5-3.1-4.1-4.3-1.5-1.1-3.2-2.3-5-2.8-.1,0,0-.2,0-.2Z"/>
  <path class="cls-1" d="M71.7,53.8c1.8.5,3.5,1.7,5,2.8,1.6,1.2,2.9,2.7,4.1,4.3,0,0,.2,0,.1,0-2.1-3.2-5-7.1-9.2-7.3-.1,0-.2.2,0,.2Z"/>
  <path class="cls-1" d="M67.6,46c1.1-.9.5-1.6-.1-2.3,0-.1-.2-.2-.2-.3-1.1-1.5-1.9-3.4-2.9-5-1.3-1.9-3.7-5.9-6.6-4.1h0c-1.2.7-1,2.3-2.2,3-1,.6-1.7,1.1-1.6,2.5,0,1.1.8,2.1,1.7,2.8.3.2.5.4.8.5,1,.6,2.2.9,3.3,1.2.2,0,.4,0,.6.1,1.2.2,2.3.3,3.4.7.8.2,1.6.6,2.3,1.1.1,0,.2.1.3.2.4.1.8,0,1.1-.2ZM66.4,44.4c-1.3-1.5-2.5-3.1-4.1-4.3-1.5-1.1-3.2-2.3-5-2.8-.1,0,0-.2,0-.2,4.2.2,7.1,4.1,9.2,7.3,0,0,0,.1-.1,0Z"/>
  <path class="cls-1" d="M57.3,37c-.1,0-.2.2,0,.2,1.8.5,3.5,1.7,5,2.8,1.6,1.2,2.9,2.7,4.1,4.3,0,0,.2,0,.1,0-2.1-3.2-5-7.1-9.2-7.3Z"/>
  <path class="cls-1" d="M55.7,73.1c.2.2.4.4.7.5.2.1.5.2.7.3.6.1,1.2,0,1.6-.4,1-1.2.1-2.6-.6-3.6-.8-1.2-1.5-2.3-2.1-3.5-.2-.3-.3-.7-.5-1.1-.6-1.7-1.6-3.7-3.7-3.9h0c-1.9-.2-3.7,1.2-5,2.5-1.7,1.6-1.4,4,.3,5.6,1,.9,2.1,1.3,3.3,1.6,1.8.4,3.7.6,5.2,2.2ZM48.8,63.2c4.7.8,5.8,6,9,8.7,0,0,0,.2-.2.2-1.7-1.2-2.9-3-4.1-4.6-1.3-1.7-2.7-3.4-4.7-4.1-.2,0,0-.2,0-.2Z"/>
  <path class="cls-1" d="M53.5,67.5c1.3,1.6,2.5,3.3,4.1,4.6,0,0,.3,0,.2-.2-3.2-2.7-4.3-7.9-9-8.7-.1,0-.2.2,0,.2,2.1.7,3.5,2.5,4.7,4.1Z"/>
  <path class="cls-1" d="M60.3,58.8c.3-.6.2-1.2-.1-1.7-.4-.6-1-1.2-1.6-1.6-1.5-1.1-2.7-2.1-3.8-3.5-1.1-1.4-2.7-3-4.7-2.5-1.9.5-3.1,2.3-4,3.9-.5,1-.5,1.9-.3,2.8.2.6.6,1.1,1.1,1.6.4.3.8.6,1.2.8,3,1.4,6.1-.8,9.3.8.2,0,.4.2.6.2.9.3,2,.1,2.3-.8ZM53.5,54.8c-1.8-1.2-3.6-2.4-5.8-2.4s-.1-.2,0-.2h0c4.7-.7,7.3,3.9,11.2,5.5.1,0,0,.2,0,.2-2-.7-3.6-1.9-5.4-3.1Z"/>
  <path class="cls-1" d="M59,57.6c-3.9-1.6-6.6-6.1-11.2-5.5h0c-.1,0-.2.2,0,.2,2.2,0,4,1.2,5.8,2.4,1.7,1.1,3.4,2.4,5.4,3.1.1,0,.2-.2,0-.2Z"/>
  <path class="cls-1" d="M41.2,95.3c1.3-.7,1.9-2.2,2.1-3.6.5-3-1.2-5.9-1.1-8.8,0-.4,0-.9.2-1.3.1-.6-.2-1.1-.6-1.3-.7-.4-1.2-.3-1.5.1-.3.3-.5.8-.8,1.3-1,1.6-2.4,3-3.5,4.6-1.3,1.9-4.1,5.7-1.3,7.7h0c1.2.8,2.5,0,3.6.8.9.7,1.7,1.2,2.9.5ZM37.5,93.2h0c-1.4-3.9,1.1-8.1,3.2-11.3,0,0,.2,0,.1,0-.9,1.7-1.9,3.5-2.4,5.5-.5,1.8-.9,3.8-.7,5.7,0,.1-.2.2-.2,0Z"/>
  <path class="cls-1" d="M38.4,87.5c.5-1.9,1.4-3.7,2.4-5.5,0,0,0-.2-.1,0-2.1,3.2-4.7,7.3-3.2,11.3h0c0,.1.3,0,.2,0-.2-1.9.3-3.9.7-5.7Z"/>
  <path class="cls-1" d="M92.9,68.6c-.2.2-.4.3-.6.5-2.3,2.4-1.2,6.1-3.8,8.5-.8.7-1.3,2.1-.4,3,.2.1.3.2.5.3.5.2,1,.2,1.5,0,.1,0,.3,0,.4-.1.5-.2.9-.5,1.3-.8.3-.2.5-.3.7-.5,1.2-.8,2.4-1.5,3.8-2,1.7-.6,3.7-1.6,3.9-3.6.2-1.9-1.2-3.7-2.5-5,0,0,0,0,0,0-.6,0-1.3.1-2,.2-1,.1-2.2.2-3-.4ZM98.3,70.7c0-.2.2,0,.2,0-.9,4.7-6,5.7-8.8,8.9,0,0-.2,0-.2-.2,1.3-1.7,3-2.8,4.6-4.1,1.7-1.3,3.4-2.7,4.1-4.7Z"/>
  <path class="cls-1" d="M89.6,79.5c0,0,0,.3.2.2,2.7-3.2,7.9-4.2,8.8-8.9,0-.1-.2-.2-.2,0-.7,2.1-2.5,3.4-4.1,4.7-1.6,1.3-3.4,2.4-4.6,4.1Z"/>
  <path class="cls-1" d="M100.2,60.1c-.3-1.6-.6-3.3.1-5,.4-1,.4-2.5-.8-2.9-1.5-.5-2.4.8-3.1,1.9-1,1.6-1.9,2.8-3.3,4.1-1.3,1.2-2.8,2.9-2.2,4.9h0c.4,1.1,1.3,2,2.3,2.7.3-.2.6-.3.9-.4,2.9-.9,3.9-3.8,6.1-5.3ZM93.8,65.2h0c-1-4.6,3.4-7.6,4.7-11.6,0-.1.3,0,.2,0-.5,2-1.6,3.8-2.7,5.6-1,1.8-2.1,3.8-2,6,0,.2-.2.2-.2,0Z"/>
  <path class="cls-1" d="M98.7,53.7c0-.1-.2-.2-.2,0-1.3,4-5.7,7-4.7,11.6h0c0,.1.2.1.2,0-.1-2.2,1-4.1,2-6,1-1.8,2.1-3.5,2.7-5.6Z"/>
  <path class="cls-1" d="M87.6,38.4c-1,1.2,0,2.6.7,3.6,1.1,1.5,1.9,2.8,2.6,4.5.7,1.7,1.7,3.7,3.7,3.8h0c1.9.1,3.7-1.3,4.9-2.6,1.7-1.7,1.3-4-.4-5.6-2.5-2.2-6.1-1.1-8.6-3.6-.8-.8-2.2-1.3-3-.3ZM97.7,48.2c.1,0,0,.2,0,.2h0c-4.7-.8-5.9-5.9-9.1-8.6-.1,0,0-.2.1-.2,1.7,1.2,2.9,2.9,4.2,4.5,1.3,1.6,2.7,3.4,4.8,4Z"/>
  <path class="cls-1" d="M88.7,39.7c-.1,0-.3,0-.1.2,3.3,2.7,4.4,7.8,9.1,8.6h0c.1,0,.2-.2,0-.2-2.1-.7-3.5-2.4-4.8-4-1.3-1.6-2.5-3.3-4.2-4.5Z"/>
  <path class="cls-1" d="M121.8,87.1c-.7-1.3-1.2-2.8-2.2-4-.2-.3-.7-.7-1.2-1h0c-.5-.3-.9-.4-1.3-.2-1.1.5-.1,2.1-.2,3-.1,2.6-2.3,4.7-2.3,7.4,0,2.6,2.2,5,4.9,3.9.7-.3,1.1-.5,1.9-.6.6,0,1.1-.1,1.6-.5,1-.7,1.4-1.9,1.1-3.1-.4-1.7-1.4-3.5-2.3-5ZM120.6,94.8s0,0,0,0c0-1,0-2,0-3s-.3-2-.5-3c-.5-2.1-1.2-4.1-2.3-5.9h0c0,0,0-.1,0,0,1.3,1.7,2.3,3.6,2.8,5.7.2,1.1.3,2.1.3,3.2,0,1,0,2.1-.4,3Z"/>
  <path class="cls-1" d="M117.9,82.8s-.1,0,0,0h0c1.1,1.8,1.9,3.9,2.3,6,.2,1,.4,2,.5,3s0,2,0,3c0,0,0,0,0,0,.4-.9.4-2,.4-3,0-1.1,0-2.2-.3-3.2-.5-2.1-1.5-4-2.8-5.7Z"/>
  <path class="cls-1" d="M113.4,38.4c-.7-.3-1.1-.5-1.7-.9-.5-.4-.9-.7-1.5-.8-1.2-.2-2.3.3-3,1.3-1,1.5-1.5,3.4-2,5.1-.4,1.4-1.2,2.8-1.3,4.3,0,.4,0,1,.1,1.6h0c.1.5.4,1,.8,1.1,1.1.4,1.6-1.4,2.3-2,2-1.7,5-1.7,6.9-3.5,1.9-1.8,2.1-5-.6-6.2ZM109.4,40.6c-.7.8-1.3,1.6-1.8,2.4-1.2,1.8-2.2,3.7-2.7,5.8h0c0,0,0,0,0,0,.3-2.1,1-4.2,2.2-6,.6-.9,1.3-1.7,2.1-2.5.7-.7,1.5-1.4,2.4-1.8,0,0,0,0,0,0-.7.7-1.5,1.3-2.1,2.1Z"/>
  <path class="cls-1" d="M109.1,40.3c-.8.7-1.5,1.5-2.1,2.5-1.2,1.8-1.8,3.9-2.2,6,0,0,0,0,0,0h0c.5-2,1.5-4,2.7-5.8.6-.8,1.2-1.7,1.8-2.4.7-.8,1.5-1.4,2.1-2.1,0,0,0,0,0,0-.9.4-1.7,1.2-2.4,1.8Z"/>
  <path class="cls-1" d="M127.5,68.6c-1.1-3.3-4.7-5.2-5.6-8.5-.2-.6-.7-.9-1.1-.9-1.6,0-1.3,1.2-1.4,2.3-.1,1.9-.7,3.8-.9,5.7-.2,2.3-.9,6.9,2.5,7.4h0c1.4.2,2.3-1.1,3.6-.9,1.1.1,2,.2,2.8-.9.8-1.2.6-2.8.2-4.1ZM123,72.7h0c-3.1-2.8-2.8-7.7-2.4-11.5,0,0,.2,0,.2,0,0,2,0,4,.5,5.9.4,1.8,1,3.8,2,5.4,0,.1,0,.3-.2.2Z"/>
  <path class="cls-1" d="M121.1,67.2c-.5-2-.5-4-.5-5.9,0,0-.1-.1-.2,0-.4,3.8-.7,8.7,2.4,11.5h0c.1,0,.3,0,.2-.2-1-1.6-1.6-3.5-2-5.4Z"/>
  <path class="cls-1" d="M86,59.6h0c.2,0,.4,0,.6,0,1.1-.2,1.9-1.1,3-.9,1.1.1,2,.2,2.8-.9.8-1.2.6-2.8.2-4.1-1.1-3.3-4.7-5.2-5.6-8.5-.2-.6-.7-.9-1.1-.9-1.6,0-1.3,1.2-1.4,2.3-.1,1.9-.7,3.8-.9,5.7-.1,1.3-.4,3.2,0,4.8.3,1.3,1,2.4,2.5,2.6ZM85.7,46.2c0,0,.2,0,.2,0,0,2,0,4,.5,5.9.4,1.8,1,3.8,2,5.4,0,.1,0,.3-.2.2h0c-3.1-2.8-2.8-7.7-2.4-11.5Z"/>
  <path class="cls-1" d="M88.1,57.7c.1,0,.3,0,.2-.2-1-1.6-1.6-3.5-2-5.4-.5-2-.5-4-.5-5.9,0,0-.1-.1-.2,0-.4,3.8-.7,8.7,2.4,11.5h0Z"/>
  <path class="cls-1" d="M109.1,57.1c0-1.1-.8-2.4-2.1-2.1-1.5.3-1.8,1.9-1.9,3.2,0,.6-.1,1.2-.2,1.8.6.4,1.1,1.1,1.3,1.9,0,.3.2.7.3,1,.2-2.1.5-4.2.2-6.2,0-.1.2-.2.2,0,.5,2,.3,4.1.2,6.2,0,2.1-.1,4.4,1,6.2,0,.1,0,.2-.2.1-.8-.9-1.2-1.9-1.4-2.9-.1.4-.3.8-.5,1.2h0c-.4.6-.9,1-1.6,1.2,1.4,1.3,3.6,1.3,5.3,1.2,2.4-.2,3.6-2.2,3.3-4.5-.4-3.3-3.9-4.8-4.2-8.3Z"/>
  <path class="cls-1" d="M106.8,66.2c.2,1,.6,2,1.4,2.9,0,.1.3,0,.2-.1-1.2-1.8-1.1-4.1-1-6.2,0-2.1.2-4.1-.2-6.2,0-.1-.3-.1-.2,0,.4,2,0,4.1-.2,6.2.2,1.1.4,2.3.1,3.3Z"/>
  <path class="cls-1" d="M92.2,115.4c-3.3-.6-5.8,2.2-9.2,1.4-1-.2-2.5,0-2.7,1.3-.2,1.5,1.3,2.3,2.4,2.8,1.7.7,3.1,1.4,4.6,2.5,1.4,1.1,3.4,2.3,5.2,1.3h0c1.7-.9,2.5-3,2.9-4.8.6-2.3-1-4.1-3.2-4.6ZM94.1,121.5h0c-4.4,1.8-8.1-2-12.2-2.6-.1,0,0-.2,0-.2,2.1.2,4,1,5.9,1.7,2,.7,4.1,1.5,6.2,1,.2,0,.2.2,0,.2Z"/>
  <path class="cls-1" d="M94,121.3c-2.1.5-4.2-.2-6.2-1-1.9-.7-3.9-1.5-5.9-1.7-.1,0-.2.2,0,.2,4.2.6,7.8,4.4,12.2,2.6h0c.1,0,.1-.3,0-.2Z"/>
  <path class="cls-1" d="M104.3,74.2c-.4-1-1.5-2-2.6-1.4-1.4.7-1.1,2.4-.8,3.6.4,1.8.7,3.3.7,5.2,0,.6,0,1.3.1,1.9.1.8.4,1.6.9,2.2.1.2.3.3.4.5.2.1.4.3.6.4h0c1.7.8,3.8.2,5.4-.4,0,0,0,0,.1,0,2.2-.9,2.7-3.3,1.7-5.3-1.5-3-5.2-3.3-6.6-6.6ZM107.2,85.9c-4-2.5-3.2-7.7-5.2-11.4,0-.1.1-.2.2-.1,1.1,1.8,1.6,3.8,2.2,5.8.6,2,1.3,4.2,2.9,5.6.1,0,0,.2-.1.2Z"/>
  <path class="cls-1" d="M104.4,80.2c-.6-2-1.1-4-2.2-5.8,0-.1-.3,0-.2.1,2,3.7,1.1,8.9,5.2,11.4.1,0,.3,0,.1-.2-1.7-1.4-2.3-3.5-2.9-5.6Z"/>
  <path class="cls-1" d="M90,92.1c-.4.2-.7.6-.8.9-.2.5-.2,1.1-.1,1.6,0,.4.1.7.2,1.1,0,.3.1.6.2.9,0,.2,0,.4.1.5.3,1.2.4,2.4.4,3.8,0,1.7.2,3.8,1.7,4.8,0,0,.2.1.3.2h0c1.7.9,3.9.2,5.6-.5,2.2-.9,2.7-3.3,1.7-5.3-1.5-3-5.2-3.3-6.6-6.6-.1-.3-.3-.6-.5-.8-.5-.6-1.3-1-2.1-.6ZM92.7,99.5c.6,2,1.3,4.2,2.9,5.6.1,0,0,.2-.1.2-4-2.5-3.2-7.7-5.2-11.4,0-.1.1-.2.2-.1,1.1,1.8,1.6,3.8,2.2,5.8Z"/>
  <path class="cls-1" d="M90.5,93.8c0-.1-.3,0-.2.1,2,3.7,1.1,8.9,5.2,11.4.1,0,.3,0,.1-.2-1.7-1.4-2.3-3.5-2.9-5.6-.6-2-1.1-4-2.2-5.8Z"/>
  <path class="cls-1" d="M74.6,74.5c-1.5-1.3-3.7-1.2-5.5-1,0,0,0,0,0,0-.3,0-.5,0-.8.2-1.1.4-1.8,1.1-2.1,2.1,0,0,0,.1,0,.2-.1.5-.2,1-.2,1.5,0,.2,0,.4,0,.6,0,0,0,0,0,0,.4,2,1.8,3.3,3,4.7.2.2.3.4.5.6.6.8,1,1.7,1.2,2.8,0,0,0,0,0,.1.2,1,1,2.2,2.2,1.9.1,0,.2,0,.4-.1.8-.4,1.1-1.2,1.3-2.1,0-.4,0-.7,0-1.1,0-1.9.2-3.4.7-5.2.3-1,.5-2.2.4-3.2,0-.8-.4-1.5-1-2.1h0ZM73,86.5c0,.1-.2.2-.2,0-.6-2-.5-4.1-.6-6.1,0-2.1-.1-4.4-1.4-6.1,0-.1,0-.2.2-.1h0c3.2,3.5,1,8.3,2,12.4Z"/>
  <path class="cls-1" d="M71,74.1c0-.1-.3,0-.2.1,1.3,1.8,1.3,4,1.4,6.1,0,2.1,0,4.1.6,6.1,0,.1.3,0,.2,0-.9-4.1,1.3-8.9-2-12.3h0Z"/>
  <path class="cls-1" d="M87.4,87.2c.3,0,.5.1.8.2.3,0,.6.2.9.4.9.5,2.4.6,2.9-.6.6-1.4-.6-2.5-1.7-3.3-.3-.2-.6-.5-.9-.7-.1-.1-.3-.2-.4-.3-.4-.3-.7-.6-1.1-1-.5-.5-.9-1-1.4-1.5-1-1.3-2.3-2.7-4-2.7-.2,0-.4,0-.6,0h0c-.4,0-.8.3-1.2.5-1.3.8-2.2,2.2-2.9,3.4-1.2,2.1-.1,4.2,1.9,5.2,1.5.7,3,.6,4.5.4,1,0,2-.2,3,0ZM79.5,80.7c-.2,0-.1-.2,0-.2,4.7-.6,7.3,4,11.1,5.7.1,0,0,.3,0,.2-2-.7-3.6-2-5.3-3.2-1.7-1.2-3.6-2.5-5.8-2.5Z"/>
  <path class="cls-1" d="M90.6,86.3c.1,0,.2-.2,0-.2-3.9-1.7-6.5-6.3-11.1-5.7-.1,0-.2.2,0,.2,2.2,0,4,1.3,5.8,2.5,1.7,1.2,3.3,2.5,5.3,3.2Z"/>
  <path class="cls-1" d="M106.3,67.4h0c.2-.4.4-.8.5-1.2.3-1.1.1-2.2-.1-3.3,0-.4-.2-.7-.3-1-.3-.9-.7-1.5-1.3-1.9-1-.7-2.4-.8-3.7-.4-.4.1-.8.3-1.1.6-2.3,1.5-3.2,4.4-6.1,5.3-.3,0-.6.2-.9.4-.7.5-1.2,1.2-.8,2,.1.3.3.6.5.7.8.6,2,.5,3,.4.7,0,1.3-.2,2-.2,1.1,0,2.1,0,3.2,0,1.1.1,2.5.2,3.6-.2.6-.2,1.2-.6,1.6-1.2ZM94.1,67.7c-.1,0-.2-.2,0-.2,1.9-.9,4-1.2,6-1.5,2.1-.4,4.3-.8,5.8-2.3.1-.1.3,0,.2.2h0c-2.9,3.7-8,2.3-11.9,3.9Z"/>
  <path class="cls-1" d="M106,63.8c0-.1,0-.3-.2-.2-1.6,1.5-3.8,1.9-5.8,2.3-2,.4-4.1.6-6,1.5-.1,0,0,.3,0,.2,3.9-1.6,9-.1,11.9-3.9h0Z"/>
  <path class="cls-1" d="M77.6,97.1c-.3-1.1-1-1.8-1.8-2.2-.3-.2-.6-.3-1-.3-.7-.1-1.4,0-2.1.2,0,0-.1,0-.2,0-3.1,1.1-3.9,4.8-7.3,5.9-1,.3-2.1,1.3-1.7,2.5.6,1.4,2.2,1.3,3.5,1.2.7,0,1.3-.2,2-.2,1.1,0,2.1,0,3.3,0,.8,0,1.7.2,2.6,0,1-.1,2-.5,2.6-1.5h0c.4-.7.6-1.5.6-2.3,0-1.1-.2-2.3-.5-3.3ZM65.4,103c-.1,0-.2-.2,0-.2,1.9-.9,4-1.2,6-1.5,2.1-.4,4.3-.8,5.8-2.3.1-.1.3,0,.2.2h0c-2.9,3.7-8,2.3-11.9,3.9Z"/>
  <path class="cls-1" d="M77.2,99.1h0c0-.1,0-.3-.2-.2-1.6,1.5-3.8,1.9-5.8,2.3-2,.4-4.1.6-6,1.5-.1,0,0,.3,0,.2,3.9-1.6,9-.1,11.9-3.9Z"/>
  <path class="cls-1" d="M46.6,101.9c.7-.8,1.3-1.5,2.1-2.2.5-.5,1.1-1,1.7-1.4.7-.5,1.5-1.1,2-1.9.6-.8,1-1.7.8-2.7h0c-.3-1.9-2.1-3.2-3.7-4.2-.2-.1-.4-.2-.7-.3-1.8-.7-3.7.3-4.6,2.1-1.6,2.9.4,6.2-1.4,9.2-.6.9-.7,2.4.4,2.9.6.3,1.2.2,1.8,0,.6-.3,1.2-.9,1.6-1.4ZM44.2,102c.8-1.9,2.1-3.5,3.4-5.2,1.3-1.7,2.6-3.5,2.7-5.6,0-.2.2-.1.2,0h0c.4,4.7-4.3,7.1-6.1,10.9,0,.1-.3,0-.2-.1Z"/>
  <path class="cls-1" d="M50.5,91.2h0c0-.2-.2-.2-.2,0-.1,2.2-1.5,4-2.7,5.6-1.2,1.6-2.6,3.2-3.4,5.2,0,.1.1.2.2.1,1.8-3.8,6.5-6.2,6.1-10.9Z"/>
</svg>