<?xml version="1.0" encoding="UTF-8"?>
<svg id="Layer_1" data-name="Layer 1" xmlns="http://www.w3.org/2000/svg" version="1.1" viewBox="0 0 144.6 144.6">
  <defs>
    <style>
      .cls-1 {
        fill: #1d1d1b;
        stroke-width: 0px;
      }

      .cls-2 {
        fill: none;
        stroke: #000;
        stroke-miterlimit: 10;
        stroke-width: .6px;
      }
    </style>
  </defs>
  <path class="cls-2" d="M51.7,44.8h26.5c13.2,0,24,10.8,24,24v26.5c0,5.2-4.2,9.4-9.4,9.4h-41.1c-5.2,0-9.4-4.2-9.4-9.4v-41.1c0-5.2,4.2-9.4,9.4-9.4h0Z"/>
  <path class="cls-1" d="M72.7,78.9c-.5,2.1-1.4,3.7-2.7,4.8-1.4,1.1-3,1.6-4.9,1.6-1.7,0-3.1-.5-4.2-1.3-1.2-.8-2-1.7-2.5-2.7-.2-.3-.3-.7-.4-1-.1-.3-.2-.7-.3-1.2-.1-.9-.2-2.6-.2-5.2s0-4.3.2-5.2c.2-.9.4-1.6.7-2.1.5-1,1.4-1.9,2.5-2.8,1.1-.8,2.6-1.2,4.3-1.3,2.1,0,3.8.7,5.1,1.9,1.3,1.3,2.1,2.8,2.5,4.7h-3.5c-.3-.9-.8-1.7-1.5-2.3-.7-.6-1.6-.9-2.7-.9-.8,0-1.4.2-2,.5-.6.3-1,.7-1.4,1.2-.4.5-.7,1.1-.8,1.9-.2.8-.2,2.3-.2,4.5s0,3.7.2,4.5c.1.8.4,1.4.8,1.9.3.5.8.8,1.4,1.1.6.3,1.2.5,2,.5,1.8,0,3.2-1,4.1-3h3.5,0Z"/>
  <path class="cls-1" d="M83.3,83.7h0c-.3.5-.7.9-1.3,1.2-.6.3-1.4.4-2.5.4-1.7,0-3-.5-4-1.4-1-.9-1.5-2-1.5-3.4s.4-2.4,1.3-3.3c.8-.9,2.1-1.4,3.7-1.4h4.3v-1.7c0-1.4-1-2.1-3.2-2-.8,0-1.4,0-1.8.2-.5.2-.8.5-1.1,1l-2.4-1.9c1.2-1.6,2.9-2.4,5.2-2.3,1.9,0,3.5.4,4.6,1.1,1.2.8,1.7,2.2,1.8,4.1v10.8h-3.1v-1.4h0ZM83.3,78.4h-3.7c-1.8,0-2.7.7-2.7,1.9,0,.5.2,1,.7,1.4.4.4,1.2.6,2.2.6,1.3,0,2.2-.1,2.7-.5.5-.3.7-1.1.7-2.3v-1.1h0Z"/>
  <path class="cls-1" d="M48.4,57.7l2.6-3.4c.1-.1.2-.3.2-.4,0-.1,0-.2,0-.3,0-.3,0-.5-.2-.7-.2-.2-.4-.3-.7-.3-.3,0-.5,0-.7.3-.2.2-.3.4-.3.7h-1c0-.6.2-1.1.6-1.4.4-.4.8-.6,1.3-.6.6,0,1,.2,1.4.6.4.4.6.8.6,1.4,0,.5-.1.9-.4,1.2l-2.2,2.8h2.6v1h-3.8v-.9h0Z"/>
  <path class="cls-1" d="M53.1,53.6c0-.6.2-1.1.6-1.5.4-.3.8-.5,1.3-.5s1,.2,1.3.5c.4.3.6.8.6,1.5v3c0,.6-.2,1.1-.6,1.5-.4.3-.8.5-1.3.5-.5,0-.9-.2-1.3-.5-.4-.3-.6-.8-.6-1.5,0,0,0-3,0-3ZM56,53.7c0-.7-.3-1-.9-1.1-.6,0-.9.4-.9,1.1v2.9c0,.7.3,1.1.9,1.1.6,0,.9-.4.9-1.1v-2.9Z"/>
  <path class="cls-1" d="M66.6,98l1-2.2h.5l-1,2.2h.8v-.9h.4v.9h.2v.4h-.2v.5h-.4v-.5h-1.2s0-.4,0-.4Z"/>
  <path class="cls-1" d="M68.8,96.7c0-.3,0-.5.3-.7.2-.2.4-.2.6-.2s.4,0,.6.2c.2.2.3.4.3.7v1.4c0,.3,0,.5-.3.7-.2.1-.4.2-.6.2-.2,0-.4,0-.6-.2-.2-.1-.3-.4-.3-.7v-1.4ZM70,96.7c0-.3-.1-.5-.4-.5s-.4.2-.4.5v1.3c0,.3.1.5.4.5s.4-.2.4-.5v-1.3Z"/>
  <path class="cls-1" d="M71,98.5h.4v.4h-.4v-.4Z"/>
  <path class="cls-1" d="M71.9,96.7c0-.3,0-.5.3-.7.2-.2.4-.2.6-.2s.4,0,.6.2c.2.2.3.4.3.7v1.4c0,.3,0,.5-.3.7-.2.1-.4.2-.6.2-.2,0-.4,0-.6-.2-.2-.1-.3-.4-.3-.7v-1.4ZM73.1,96.7c0-.3-.2-.5-.4-.5s-.4.2-.4.5v1.3c0,.3.1.5.4.5s.4-.2.4-.5v-1.3Z"/>
  <path class="cls-1" d="M74,95.8h1.7v.4l-1,2.6h-.5l1-2.6h-.8v.4h-.4v-.9Z"/>
  <path class="cls-1" d="M75.9,98c0-.3.1-.5.4-.7,0,0-.2-.2-.2-.3,0,0,0-.2,0-.3,0-.3,0-.5.3-.6.2-.2.4-.3.6-.3s.4,0,.6.3.2.4.2.6c0,.1,0,.2,0,.3,0,.1-.1.2-.2.3.2.2.4.4.4.7s0,.5-.3.7-.4.3-.6.3-.5,0-.6-.3c-.2-.2-.3-.4-.3-.7h0ZM76.4,98c0,.1,0,.3.2.3,0,0,.2.1.3.1s.3,0,.3-.1c0,0,.1-.2.1-.3s0-.3-.1-.3c0,0-.2-.1-.3-.1-.1,0-.2,0-.3.1,0,0-.1.2-.2.3ZM76.4,96.7c0,.1,0,.3.1.3,0,0,.2.1.3.1s.2,0,.3-.1c0,0,.1-.2.1-.3,0-.1,0-.3-.1-.3s-.2-.1-.3-.1-.2,0-.3.1-.1.2-.1.3Z"/>
  <path class="cls-1" d="M65.1,92.6c0,.4-.3.7-.5.9-.3.2-.6.3-1,.3-.3,0-.6,0-.8-.3-.2-.2-.4-.3-.5-.5,0,0,0-.1,0-.2s0-.1,0-.2c0-.2,0-.5,0-1s0-.9,0-1c0-.2,0-.3.1-.4.1-.2.3-.4.5-.5.2-.2.5-.2.8-.2.4,0,.7.1,1,.4.3.2.4.6.5.9h-.7c0-.2-.1-.3-.3-.4-.1-.1-.3-.2-.5-.2-.2,0-.3,0-.4,0-.1,0-.2.1-.3.2,0,0-.1.2-.2.4,0,.2,0,.5,0,.9s0,.7,0,.9c0,.2,0,.3.2.4,0,0,.2.2.3.2.1,0,.2.1.4.1.4,0,.6-.2.8-.6h.7Z"/>
  <path class="cls-1" d="M67.2,93.5h0c0,.1-.1.2-.3.2-.1,0-.3,0-.5,0-.3,0-.6,0-.8-.3-.2-.2-.3-.4-.3-.7s0-.5.3-.7c.2-.2.4-.3.7-.3h.8v-.3c0-.3-.2-.4-.6-.4-.1,0-.3,0-.4,0,0,0-.2.1-.2.2l-.5-.4c.2-.3.6-.5,1-.5.4,0,.7,0,.9.2.2.2.3.4.3.8v2.1h-.6v-.3h0ZM67.2,92.5h-.7c-.4,0-.5.1-.5.4s0,.2.1.3c0,0,.2.1.4.1s.4,0,.5,0c0,0,.1-.2.1-.4v-.2h0Z"/>
  <path class="cls-1" d="M68.7,89.4h.6v3.6c0,.1,0,.2.2.2h.2v.6h-.3c-.2,0-.4,0-.5-.2-.1-.1-.2-.3-.2-.6v-3.6h0Z"/>
  <path class="cls-1" d="M72.5,93.3c-.1.2-.3.3-.5.4-.2.1-.4.2-.6.2-.4,0-.7-.1-.9-.4-.3-.3-.4-.7-.4-1.2,0-.6.2-1,.4-1.2.3-.3.6-.4.9-.4s.4,0,.6.2c.2,0,.3.2.5.4l-.4.4c-.2-.2-.4-.3-.6-.3-.5,0-.8.3-.8,1,0,.7.3,1,.8,1,.3,0,.5-.1.6-.3l.4.4h0Z"/>
  <path class="cls-1" d="M73,89.4h.6v.6h-.6v-.6ZM73,90.7h.6v3.1h-.6v-3.1Z"/>
  <path class="cls-1" d="M74.5,90.7h.6v1.9c0,.2,0,.4.2.5.1.1.3.2.4.2s.3,0,.4-.2c.1-.1.2-.3.2-.5v-1.9h.6v3.1h-.6v-.3h0c-.2.2-.5.4-.8.4s-.5,0-.7-.3c-.2-.2-.3-.4-.3-.8v-2.1h0Z"/>
  <path class="cls-1" d="M77.8,90.7h.6v.3h0c.2-.2.5-.4.8-.4s.4,0,.5.1c.1,0,.3.2.4.3.2-.3.6-.4,1-.4.3,0,.5,0,.7.3s.3.5.3.8v2.1h-.6v-1.9c0-.2,0-.4-.2-.5s-.3-.2-.4-.2-.3,0-.5.2c-.1.1-.2.3-.2.5v1.9h-.6v-1.9c0-.2,0-.4-.2-.5-.1-.1-.3-.2-.4-.2s-.3,0-.4.2c-.1.1-.2.3-.2.5v1.9h-.6v-3.1h0Z"/>
</svg>