<?xml version="1.0" encoding="UTF-8"?><svg id="Layer_1" xmlns="http://www.w3.org/2000/svg" viewBox="0 0 144.57 144.57"><path d="M34.11,67.28c.25-.51.28-.56,1.08-.4,1.54.32,3.06.71,4.59,1.05,1.63.36,3.15.98,4.68,1.62,2.02.85,4.14,1.37,6.34,1.5.47.03.95-.04,1.43,0,.64.04,1.27.12,1.91.2,1,.12,2,.29,3.01.36,1.62.12,3.2.46,4.79.79.46.1.94.11,1.42.18.37.05.65-.12.89-.35.07-.06.08-.3.03-.35-1.06-.84-2.01-1.83-3.27-2.4-1.32-.6-2.72-.79-4.14-.81-1.55-.03-3.1.02-4.64-.04-2.27-.08-4.4-.79-6.45-1.72-1.98-.9-3.72-2.13-5.12-3.8-1.01-1.2-1.71-2.58-2.12-4.09-.14-.53-.16-1.02.29-1.46.13-.12.19-.36.2-.55.08-.93.12-1.09,1.29-1.32.48-.1.97-.11,1.45-.17.95-.13,1.01-.21.8-1.15-.17-.78-.36-.91-1.15-.86-1.74.12-3.5.19-5.23.38-1,.11-1.99.39-2.95.69-.38.12-.69.51-.99.82-.21.22-.34.52-.52.77-.06.09-.18.14-.27.2-.06-.09-.16-.18-.18-.28-.18-.65-.15-1.3.07-1.94.22-.64.46-1.27,1-1.74.26-.23.07-.5-.02-.73-.1-.24-.06-.38.2-.5.1.27.21.53.3.79.07.19.19.28.38.18.31-.15.62-.29.91-.47.33-.2.77-.26,1.18-.07-.16.05-.27.1-.39.13-.62.14-1.22.33-1.71.76-.08.07-.21.15-.32.14-.4-.02-.59.24-.71.54-.18.47-.32.96-.46,1.45-.03.1,0,.22.02.38.57-.28.97-.69,1.3-1.16.63-.88,1.34-1.64,2.42-1.97.28-.08.37-.28.23-.58.34-.04.65-.07.96-.11,0-.03,0-.07.01-.1-.33-.18-.66-.36-1-.53.01-.04.03-.08.04-.12.32.07.69.06.97.21.94.5,1.98.5,2.97.7.2.04.4.06.6.07.15,0,.29-.03.46-.11-.72-.7-1.61-1.03-2.55-1.26-.94-.23-1.87-.46-2.9-.19.06-.23.11-.4.16-.58-.02-.02-.04-.03-.07-.05-.08.08-.18.15-.25.24-.06.07-.06.21-.13.25-.15.08-.32.13-.48.15-.04,0-.17-.17-.15-.2.06-.11.16-.2.26-.28.11-.09.25-.14.36-.22.18-.12.22-.29.08-.46-.36-.44-.39-.96-.39-1.49,0-.5-.07-.96-.38-1.38-.11-.15-.09-.46-.01-.66.14-.37.4-.7.36-1.14,0-.08.23-.25.36-.25.45,0,.77-.17,1.08-.5.49-.53,1.17-.76,1.85-.96.48-.14.97-.26,1.45-.39.18-.05.36-.12.43-.21-.02-.77-.14-1.54-.05-2.3.19-1.59,1.03-2.82,2.33-3.74.29-.21.52-.41.51-.79,0-.22.12-.35.35-.37.45-.04.9-.06,1.34-.14.22-.04.43-.18.62-.31.14-.1.24-.27.38-.38.08-.07.21-.09.32-.13.04.12.1.23.11.35.01.14-.02.28-.04.43-.05.46.06.68.49.89.89.43,1.75.91,2.52,1.55.12.1.41.09.58.02.55-.22,1.09-.48,1.63-.74.58-.28,1.17-.3,1.78-.13.39.11.78.2,1.18.28.39.07.72-.05,1.01-.33.24-.24.3-.2.43.12.05.13.2.23.29.35.08.1.16.21.24.31.12.16.19.38.34.48.23.16.29.27.18.55-.11.29-.13.62-.13.93,0,.44.07.88.09,1.31.07,1.33-.57,2.36-1.42,3.28-.7.75-1.64.86-2.6.83-.69-.03-.7-.04-.66.67.02.38.07.76.14,1.13.1.55.31.98.81,1.35,1.36,1.02,2.18,2.43,2.54,4.07.15.71,0,1.49-.03,2.23-.03.44.21.77.66.78.07,0,.21-.12.22-.2.08-1.09.16-2.18.22-3.27.03-.67-.16-1.24-.6-1.81-1.24-1.59-1.23-3.34-.45-5.12.36-.83.96-1.45,1.68-1.99.64-.48,1.19-1.09,1.79-1.64.32-.3.64-.61.99-.87.93-.7,2.12-.33,2.51.79.1.29.14.6.2.91.06.3.22.51.51.58,1.78.39,2.58,1.66,2.85,3.31.3,1.88-.04,3.61-1.45,5.01-.93.92-2.08,1.18-3.33.97-.93-.15-1.84-.41-2.76-.58-.67-.13-.95.08-1.04.74-.14,1.1-.27,2.2-.38,3.3-.05.49.1.72.55.92.22.1.44.18.66.26.03.01.07,0,.05,0,.31-.53.54-1.07.9-1.52.97-1.21,2.32-1.72,3.82-1.83,2.25-.18,4.23.42,5.71,2.23.64.77,1.08,1.66,1.31,2.63.06.25.15.3.39.22.94-.31,1.88-.6,2.82-.92.12-.04.25-.21.28-.34.23-.81.38-1.65.68-2.44.35-.93.71-1.89,1.25-2.71,1.2-1.82,3.01-2.83,5.1-3.28.96-.21,1.94-.03,2.76.65.21.18.47.32.74.42.48.18.79.49.9.98.07.32.09.66.12.99.16,1.68-.34,3.19-1.04,4.71-.63,1.36-1.03,2.84-1.49,4.28-.34,1.03-.63,2.07-.92,3.12-.38,1.37-1.23,2.43-2.22,3.39-.92.89-1.84,1.79-2.78,2.67-.77.72-.88,1.64-.84,2.59.05,1.48.73,2.72,1.72,3.75.83.88,1.78,1.64,2.69,2.44.67.59,1.36,1.16,2.05,1.72.28.22.57.44.88.61.73.39,1.44.31,2.11-.19-.02-.06-.03-.1-.05-.14-1.12-1.76-.91-3.51.09-5.23.25-.44.61-.82.95-1.2.15-.17.16-.27.05-.45-.67-1.09-1.08-2.26-.96-3.56.13-1.33.71-2.42,1.85-3.14.5-.32,1.03-.6,1.56-.86.28-.14.29-.31.18-.54-.03-.06-.06-.13-.1-.19-.74-1.3-.63-2.55.25-3.74.05-.07.09-.14.19-.29-.28,0-.5-.01-.7.03-.36.07-.71.22-1.07.27-.39.05-.8.05-1.2,0-.37-.04-.62-.28-.75-.63-.49-1.26.06-2.55,1.35-2.98,1.57-.53,3.17-.55,4.72.09.89.37,1.76.8,2.63,1.2.06.03.12.05.23.09-.02-.1-.01-.16-.04-.2-.48-.94-.91-1.91-1.79-2.59-.28-.22-.55-.47-.76-.75-.19-.25-.35-.54-.44-.84-.15-.49,0-.87.33-1.03.34-.16.91-.03,1.16.32.17.24.33.52.36.8.1.87.72,1.43,1.15,2.1.17.26.33.13.44-.09.3-.58.55-1.2.93-1.72.3-.42.72-.79,1.16-1.08,1.35-.88,2.85-1.24,4.46-1.1.4.04.53-.12.62-.48.51-1.97,1.29-3.84,2.34-5.58.58-.97,1.59-1.31,2.49-.79.58.34.83.89.92,1.54.14,1.1.02,2.17-.34,3.21-.32.92-.74,1.81-1.11,2.71-.09.21-.19.41-.29.61.03.03.05.06.08.09.24-.17.52-.29.71-.51.34-.39.6-.86.94-1.26.36-.43.74-.86,1.17-1.23.41-.35.95-.28,1.33.09.39.36.41.75.1,1.25-.3.49-.72.84-1.26,1-.82.24-1.49.69-2.09,1.3-.38.38-.89.62-1.33.95-.17.13-.41.32-.43.5-.06.54.16.67.68.54.4-.09.82-.11,1.23-.16.33-.04.4.11.27.41-.29,0-.57.04-.85.02-.15,0-.33-.16-.45-.12-.21.07-.39.24-.58.37.04.02.07.04.11.06-.03.22-.06.45-.1.71.28-.04.57-.07.86-.11,0,.04.02.08.03.11-.34.27-.95.13-1.11.68-.34-.24-.38-1.05-.13-1.39-.19-.49-.39-.93-.53-1.39-.42-1.41-1.34-2.3-2.75-2.68-.42-.11-.8-.06-1.09.33-.06.08-.23.15-.3.11-.39-.19-.74-.02-1.11.07-.14.04-.3.04-.45.06-.02-.07-.04-.13-.06-.2.26-.05.52-.1.77-.15-.02-.06-.04-.12-.06-.18-.1,0-.21-.02-.3,0-1.26.38-2.47.88-3.27,1.98-.8,1.1-1.13,2.38-1.05,3.74.04.59.31,1.1.65,1.56.33.43.49.9.52,1.44.03.52.18,1.03.2,1.55.01.42-.11.85-.16,1.27-.02.13-.01.26-.02.39.04,0,.08.02.12.03.03-.09.06-.17.1-.26.24-.63.46-1.28.75-1.89.15-.31.18-.49-.15-.65-.08-.04-.15-.11-.2-.15.33-.23.66-.45.98-.67.01-.2.02-.39.03-.58l.15-.04c.05.25.1.5.15.77.32-.18.51-.28.69-.39.02.02.05.04.07.07-.06.17-.16.33-.18.51-.03.2-.07.47.03.59.1.12.41.18.57.11.27-.11.5-.33.74-.53.18-.15.34-.34.55-.46-.06.58-.66.77-.91,1.33.87-.27,1.57-.62,2.05-1.34.05.39-.18.6-.4.8-.16.14-.36.24-.52.38-.05.04-.04.16-.06.24.1,0,.21.03.28,0,.18-.1.33-.23.5-.35.42-.27.83-.54,1.26-.81.06.2-.1.39-.27.53-.17.14-.38.25-.58.34-.21.1-.44.16-.66.24,0,.04.02.08.03.12.34-.09.7-.13,1.03-.27,1.14-.49,1.77-1.45,2.2-2.55.17-.43.28-.88.43-1.35.12.05.24.1.35.15q-.19.4.37.65c-.2.12-.4.24-.61.36.12.19.24.37.38.6-.1,0-.22,0-.33.02-.13.03-.25.09-.37.13.07.13.12.29.22.38.14.12.32.18.49.27l-.03.12c-.18-.03-.36-.08-.54-.09-.16,0-.33.04-.49.06.07.14.13.28.21.41.05.08.13.15.2.22-.02.03-.04.07-.06.1-.17-.08-.33-.17-.51-.23-.25-.08-.36.08-.47.31.44.05.64.33.78.67.03.07.08.16.05.2-.24.38.12.47.31.55.41.18.85.29,1.3.44.05-.11.1-.21.15-.33-.36-.08-.72-.15-1.07-.22l.03-.09c1,0,2.01.02,3.01.03,0,.04,0,.07.01.11-.47.36-1.07.37-1.61.54.86.14,1.73.11,2.33-.57.6-.68,1.05-1.49,1.55-2.25.03-.05.02-.17-.02-.23-.19-.3-.12-.58-.03-.89.05-.18.04-.39-.02-.57-.11-.34-.23-.68-.41-.99-.17-.31-.42-.57-.63-.85-.14-.18-.28-.36-.4-.51-.34-.11-.71-.19-1.05-.33-.12-.05-.19-.23-.28-.36.13-.01.28-.07.4-.03,1.27.42,2.17,1.23,2.64,2.51.11.31.37.58.6.83.18.19.24.36.03.54-.27.24-.29.53-.19.85.04.12.06.25.08.38.05.25-.05.43-.31.47-.41.07-.62.33-.8.68-.65,1.26-1.77,1.73-3.11,1.82-1.14.07-2.23-.17-3.26-.65-.28-.13-.5-.42-.73-.67-.23-.26-.44-.32-.78-.16-1.16.52-2.31.27-3.44-.12-.15-.05-.34-.03-.49,0-.06.02-.09.17-.13.27.09.03.18.07.27.09.07,0,.15-.05.21-.03.16.05.38.09.46.22.07.11.03.36-.05.49-.29.44-.68.77-1.23.83-.23.03-.42.1-.48.35-.15.63-.3,1.26-.46,1.9-.01.04,0,.09-.02.2.2-.12.36-.21.52-.31,1.28-.79,2.66-1.16,4.16-.91,1.26.21,2.24.92,3.04,1.86.26.3.48.42.83.22.1-.06.22-.09.34-.1.24-.02.36.1.23.32-.14.24-.07.43.05.63.2.35.38.71.58,1.06.12.22.05.36-.16.46-.03.01-.07.04-.1.04-.72.06-.96.54-1.13,1.17-.28,1-.73,1.95-1.39,2.76-1.21,1.49-3.34,1.93-5.24,1.22-1.02-.38-1.81-.97-2.42-1.85-.03-.05-.08-.09-.17-.18-.16.22-.32.42-.45.64-.56.96-.77,2.02-.88,3.1-.02.22-.06.35-.32.36-.36,0-.42.32-.52.59.21.16.3.07.39-.11.04-.09.16-.14.24-.21.04.1.1.2.1.31,0,.17-.02.33-.04.5-.02.15-.01.33-.26.29-.02,0-.06.14-.09.22.4.1.23.4.22.64,0,.04,0,.09,0,.09.43-.23.84-.53,1.3-.67,1.14-.34,2.11.13,2.89.91.67.67,1.23,1.44,1.82,2.19,1.18,1.49,2.32,3,3.12,4.73.08.17.15.35.24.52.13.28.23.29.39.04,1.72-2.7,4.35-4.08,7.27-5.04,1.14-.38,2.31-.36,3.49-.16,1.71.28,2.32,1.78,1.63,3.15-.11.21-.21.43-.35.62-.06.09-.21.11-.32.16,0-.12-.02-.24.02-.35.16-.47.36-.92.5-1.39.05-.19-.03-.42-.06-.7-.52.12-1.01.21-1.49.34-1.55.44-2.94,1.23-4.34,2-1.54.85-2.66,2.14-3.73,3.48-.54.68-1.01,1.41-1.5,2.13-.1.15-.21.44-.14.54.1.13.37.22.56.2.94-.12,1.89-.24,2.82-.44.62-.13,1.08-.56,1.51-1.03.59-.63,1.21-1.24,2.05-1.55.15-.05.24-.25.35-.39.09-.1.16-.24.27-.31.07-.04.19,0,.29.02-.02.1,0,.23-.07.28-.6.49-1.2.98-1.81,1.45-.38.29-.79.53-.81,1.1,0,.12-.16.26-.27.36-.65.52-1.31,1.03-1.96,1.55-.3.24-.57.49-.87.73-.11.09-.23.18-.35.23-2.93,1.16-4.59,3.36-5.21,6.41-.09.43-.1.87-.14,1.31-.11,1.18.28,2.21.89,3.21,1.05,1.74,2.1,3.49,3.06,5.28.48.9.79,1.89,1.11,2.86.09.27,0,.63-.09.92-.16.47-.47.9-.21,1.43.03.07-.05.2-.09.29-.13.29-.27.58-.39.88-.12.3-.34.36-.52.1-.17-.25-.32-.53-.43-.82-.19-.51-.31-1.05-.49-1.57-.29-.83-.56-1.67-.91-2.47-.37-.87-.72-1.73-.93-2.66-.48-2.07-1.4-3.94-2.72-5.61-.48-.61-1.06-.85-1.79-.85-.34,0-.69.04-1.03.08-.61.08-1.23.17-1.84.25-.91.12-1.71.48-2.24,1.25-.61.89-1.41,1.58-2.24,2.24-.39.31-.76.65-1.12,1-.48.47-1.03.83-1.67.99-1.68.44-3.32,1.01-4.97,1.56-1.13.38-2.29.36-3.43-.09-.57-.22-1.06-.54-1.42-1.03-.66-.9-.64-1.95.05-2.84,1-1.3,2.36-2.09,3.84-2.7,2.41-.99,4.95-1.49,7.53-1.72,2.2-.2,4.42-.25,6.63-.36.28-.01.57.06.85.08.16,0,.31-.03.5-.04-.03-.12-.03-.18-.06-.22-.38-.65-.78-1.28-1.14-1.94-1.08-1.95-3.19-1.9-4.71-1.27-.34.14-.66.33-1,.48-.66.3-1.24.7-1.68,1.29-.19.25-.43.48-.68.68-.4.31-.83.28-1.14-.11-.24-.29-.44-.63-.57-.98-.17-.44.07-1.09.46-1.41.17.17.17.34.04.54-.33.54-.05,1.48.52,1.71.1.04.29,0,.38-.08.26-.22.51-.46.74-.72.47-.54.98-1,1.66-1.26.59-.23,1.15-.52,1.75-.73.97-.33,1.96-.14,2.94-.02.06,0,.11.01.22-.05-.12-.08-.22-.2-.35-.22-.41-.09-.82-.14-1.23-.2-.22-.03-.45-.07-.67-.08-.29-.01-.43-.15-.42-.46.24-.15.38.04.53.18.24.23.51.15.76.05.26-.11.49-.25.46-.62-.12,0-.22.01-.31.02-.17-.31-.34-.62-.52-.96.15-.02.28-.03.4-.04.01-.04.02-.08.03-.13-.14-.06-.27-.17-.41-.17-.23,0-.36-.08-.44-.28-.24-.64-.76-.8-1.38-.78-.82.02-1.52.26-1.92,1.06-.16.32-.39.6-.8.53-.43-.08-.71-.37-.84-.79-.13-.41.01-.76.44-1.03.65-.41,1.4-.51,2.15-.62.13-.02.26-.02.39-.04.39-.05.52-.24.31-.57-.14-.22-.36-.42-.59-.52-1.07-.47-2.21-.54-3.36-.49-1.54.07-3.02.44-4.44.99-1.02.39-1.8,1.14-2.61,1.84-.89.77-1.76,1.57-2.7,2.28-.86.65-1.85.96-2.95.85-.41-.04-.73-.19-.98-.51-.28-.36-.59-.54-1.08-.42-.39.09-.72-.09-.92-.46-.06-.1-.12-.21-.14-.33-.26-1.35-.5-2.7-.18-4.07.09-.37.23-.73.42-1.06.19-.33.21-.65.08-.99-.04-.1-.07-.2-.12-.3-.42-.86-.29-1.69.11-2.51.13-.27.37-.5.22-.86-.02-.05.11-.19.2-.26.34-.31.72-.58,1.03-.92,1.16-1.25,2.56-2.09,4.17-2.58.77-.24,1.49-.54,2.17-.99.36-.24.79-.38,1.19-.58.13-.07.25-.17.43-.3-.37-.28-.69-.53-1.03-.77-2.3-1.63-4.86-2.71-7.49-3.67-1.29-.47-2.57-.95-3.95-1.1-.32-.04-.64-.06-.96-.07-.92-.02-1.47.52-1.92,1.26-2.13,3.42-3.72,7.11-5.23,10.83-.44,1.09-.87,2.19-1.32,3.28-.18.42-.4.84-.66,1.22-.29.44-.68.47-1,.05-.51-.68-1-1.39-1.42-2.13-.81-1.44-.87-3.01-.73-4.62.21-2.43,1.21-4.51,2.68-6.4.98-1.26,1.95-2.52,2.98-3.74.43-.51.99-.92,1.59-1.46-.66-.06-1.24-.15-1.82-.15-1.99.02-3.54.97-4.87,2.37-1.35,1.42-2.34,3.09-3.2,4.84-.99,2.02-1.91,4.08-2.9,6.1-.53,1.09-.96,2.24-1.77,3.18-.7.82-1.43,1.63-2.14,2.45-.29.33-.56.67-.87,1.03-.25-.41-.55-.29-.86-.17-.52.2-1.04.42-1.57.58-.53.16-1.07.24-1.58-.11-.1-.07-.25-.08-.38-.09-.91-.07-1.65-.48-2.3-1.1-.11-.1-.3-.15-.45-.16-.5-.03-1.01,0-1.51-.05-.36-.04-.51-.36-.63-.66-.48-1.14-.51-2.32-.29-3.51.21-1.15.65-2.22,1.22-3.23.14-.24.29-.45.59-.52.27-.07.44-.21.34-.57-.04-.16.15-.38.23-.57.05,0,.1.02.15.03.02.17.05.34.08.56l.43.16c-.63.3-1.2.55-1.47,1.24.15-.03.26-.03.34-.07,1.5-.71,3.1-.73,4.72-.76.55,0,1.11-.13,1.64-.28.51-.15.9-.5,1.14-.96-1.67.18-3.34.36-5.01.54-.01-.05-.03-.11-.04-.16.13-.05.26-.14.4-.16.92-.08,1.85-.14,2.78-.22,1.01-.1,1.97-.34,2.81-.95.05-.03.09-.07.23-.18-.29.01-.48.02-.67.04-.9.09-1.8.2-2.7.29-.13.01-.26-.04-.39-.07,0-.06,0-.12.01-.18.25,0,.5-.02.74-.03.19,0,.38.04.56.01.67-.09,1.34-.19,2.01-.29.82-.13,1.47-.56,2.04-1.14.14-.14.25-.28.48-.14.26.15.12.31.04.48-.4.94-.58,1.94-.67,2.95-.11,1.26-.12,2.52-.26,3.77-.1.92-.34,1.82-.52,2.73-.02.12-.07.24-.06.38.36-.27.42-.7.58-1.07.17-.4.36-.8.51-1.22.14-.4.26-.82.35-1.24.09-.41.13-.82.27-1.22.27,1.32-.26,2.46-.8,3.61.04.02.08.04.11.06.24-.35.53-.68.72-1.06.43-.85.89-1.7,1.19-2.6.24-.73.29-1.54.4-2.31.19-1.27.36-2.55.54-3.82.01-.08.06-.16.09-.25.04,0,.08,0,.12,0,0,.12.02.24,0,.36-.16,1.43-.32,2.86-.48,4.29,0,.02.02.04.06.11.23-.42.45-.8.65-1.19.58-1.16.99-2.37,1.06-3.68.03-.47.2-.93.32-1.39.04-.16.11-.31.18-.48-.45.05-.72.27-.82.62-.02.07-.03.14-.07.2-.25.3-.5.59-.81.94-.07-.16-.15-.32-.22-.49-.14,0-.3-.01-.47-.02.02-.08.02-.11.03-.12.54-.39,1.07-.82,1.64-1.17,1.08-.67,2.19-1.31,3.28-1.97.1-.06.18-.16.22-.31-.08.03-.17.05-.25.08-1.84.67-3.67,1.34-5.51,2-1.34.49-2.69.96-4.03,1.45-.14.05-.28.13-.41.2h.02c-.12-.02-.24-.01-.35-.03-.26-.05-.33.1-.29.3.04.2,0,.3-.21.36-1.2.37-2.4.72-3.46,1.41-.09.06-.23.07-.34.09-.36.08-.65.22-.71.65-.01.1-.12.2-.19.29-.1.13-.21.24-.38.43.31-.03.52-.04.74-.06.01.05.03.09.04.14-.23.06-.46.13-.72.2-.06-.16-.16-.37-.22-.59-.02-.08.03-.21.1-.28,1.43-1.38,3.1-2.4,4.95-3.1,1.76-.67,3.56-1.22,5.33-1.84,3.18-1.11,6.32-2.36,9.37-3.79.11-.05.22-.11.33-.17,0-.04,0-.09,0-.13-.38-.06-.75-.16-1.13-.19-1.83-.13-3.66-.22-5.49-.38-.94-.08-1.88-.27-2.8.02-1.04.33-2.06.73-3.07,1.15-3.36,1.4-6.69,2.88-10.08,4.22-2.23.88-4.59,1.3-7,1.09-1.49-.13-3.01-.29-4.37-.97-.8-.4-1.54-.95-2.26-1.5-.21-.16-.32-.52-.39-.81-.13-.56-.19-1.14-.3-1.71-.27-1.39.2-2.55,1.18-3.5,1.66-1.61,3.67-2.46,5.98-2.66.25-.02.49-.19.73-.3.17-.08.32-.24.49-.25,1.07-.05,2.14-.07,3.21-.1.06,0,.11.02.18.04.01.19-.2.45.16.51-.56.03-1.11.09-1.67.09-.35,0-.69-.09-1.04-.14-.15-.02-.3-.07-.45-.07-.09,0-.18.08-.27.13.06.1.09.22.17.28.11.08.26.11.4.15.46.12.93.21,1.39.33,1.61.42,3.13,1.01,4.38,2.15.75.68,1.55,1.21,2.64,1.26,1.16.05,2.32.25,3.48.39.11.01.22,0,.39-.02-.97-1.03-2.02-1.83-3.15-2.53-1-.63-2.04-1.12-3.21-1.33-1.03-.18-2.05-.45-3.07-.67ZM75.98,92.12c-1.29.29-2.57.57-3.85.88-.24.06-.47.23-.64.41-.08.09-.03.33.01.49,0,.03.27.05.36,0,.71-.44,1.52-.6,2.31-.8.52-.13,1.02-.32,1.52-.5.21-.07.4-.2.28-.48.18-.35,1.06-.65,1.45-.44-.41.34-.8.66-1.18,1-.13.11-.28.25-.31.4-.11.47-.04.94.33,1.29.4.37.84.7,1.25,1.06.13.11.22.25.33.38-.04.03-.08.07-.12.1-.98-.66-2.03-1.27-2.22-2.61-.06,0-.09,0-.1,0-.08.05-.16.11-.23.17-.72.55-1.21,1.27-1.63,2.05-.28.54-.22.95.2,1.39.49.51,1.08.49,1.69.3,1.28-.39,2.35-1.12,3.35-1.99.77-.67.97-1.44.64-2.4-.16-.48-.25-.99-.28-1.5-.04-.59-.02-.61-.6-.68l.14-.37c-.59-.07-1.16-.1-1.71-.2-1.63-.3-3.17-.12-4.62.73-.47.28-.8.61-.89,1.17-.16.91-.07,1,.83.75.78-.21,1.55-.45,2.34-.66.45-.12.91-.17,1.36.05ZM75.42,73.86l.15-.12c-.07-.12-.16-.24-.21-.37-.19-.53-.47-.89-1.05-1.17-.7-.33-1.25-.97-1.86-1.48-.05-.04-.06-.15-.08-.22-.03-.07-.05-.13-.08-.2-.06.04-.15.07-.17.13-.11.3-.27.21-.43.07-.12-.1-.23-.21-.34-.32-1.49-1.61-2.97-3.22-4.46-4.83-.44-.48-.53-.48-1.11-.22-.75.33-1.52.58-2.34.57-2.68-.04-4.57-1.39-5.8-3.69-.7-1.3-.8-2.68-.16-4.06.06-.12.16-.23.25-.34.04.02.09.04.13.05-.02.14,0,.29-.06.42-.66,1.5-.28,2.86.55,4.16.02.03.06.05.1.07-.05-.27-.1-.52-.15-.77.05-.02.1-.04.16-.06.24.4.48.81.72,1.21.02-.01.04-.02.06-.03-.04-.21-.07-.41-.11-.62.05-.02.1-.04.15-.06.14.25.29.5.46.81-.21.02-.3.04-.45.05.06.26.12.5.19.76.61-.32.96-.3,1.38,0-.2-.56-.4-1.13-.6-1.69l-.12.03c.05.34.1.67.16,1.01-.04.02-.07.03-.11.05-.08-.09-.19-.16-.22-.27-.18-.55-.36-1.1-.49-1.67-.07-.3-.04-.62-.02-.92,0-.1.15-.19.23-.28.07.11.18.22.19.34.01.17-.08.35-.08.53.01.27.03.55.13.79.13.31.31.31.54.07.11-.11.21-.23.35-.37.21.6-.22,1.21.21,1.71.14-.07.25-.13.4-.21.05.3.09.56.14.88.15-.12.24-.19.33-.26.02.03.05.05.07.08-.02.22-.05.44-.08.75.2-.26.34-.44.49-.62.03.02.06.04.09.06-.08.27-.16.54-.24.81l.1.06c.24-.27.49-.54.73-.81.04.03.08.05.11.08-.04.17-.08.34-.12.5.02.02.04.05.06.07.35-.24.7-.48,1.12-.76-.07.65-.66.71-.96,1.02.01.03.03.07.04.1.42-.15.83-.3,1.25-.45l.03.11c-.57.69-1.42.56-2.19.7.18.1.36.16.54.18.46.07.86-.1,1.25-.33.31-.2.64-.37.96-.56.02.03.05.05.07.08-.05.12-.11.24-.2.45.27-.08.46-.11.64-.19.3-.13.32-.27.07-.5-.22-.2-.45-.39-.67-.59-.82-.81-1.62-1.64-2.47-2.42-.89-.83-1.81-1.62-2.73-2.41-.43-.37-.56-.33-.74.21-.08.24-.17.47-.26.7-.05-.01-.09-.02-.14-.03.03-.24.05-.48.09-.71.03-.19.13-.37.13-.55,0-.12-.14-.24-.22-.36-.09.09-.19.18-.25.29-.04.08-.01.2-.06.27-.05.09-.16.14-.24.21-.03-.02-.05-.04-.08-.07.02-.15.04-.3.06-.45.06-.57,0-.66-.5-.93-.22-.12-.47-.28-.6-.48-.53-.83-1.44-1.11-2.21-1.58-.29-.18-.52-.06-.66.26-.23.54-.61.96-1.07,1.31-.38.29-.77.56-1.13.87-.28.24-.26.38.01.64.87.84,1.76,1.67,2.6,2.55,1.5,1.56,2.94,3.18,4.45,4.73,1.95,2.01,4.28,3.59,6.4,5.42.32.28.64.31,1.02.19.28-.09.57-.18.87-.21,1.23-.13,2.47-.16,3.7.04.53.08,1.06.14,1.58.27.21.05.4.23.55.4.21.24.36.53.57.76.1.11.32.19.45.16.28-.07.4.07.52.25.11.17.2.36.32.51.12.15.28.27.43.41ZM90.85,82.07l-.02-.15c-.3,0-.6-.03-.9,0-.99.08-1.67.65-1.81,1.63-.17,1.13.16,2.12,1.11,2.8.6.44,1.26.81,1.92,1.17.3.17.63.27.97.36.09.03.31-.07.33-.15.09-.31-.37-.85-.71-.83-.21-.5-.45-.99-.62-1.51-.4-1.23.67-2.79,2.04-2.84-.18.15-.28.24-.39.32-.38.3-.81.56-1.13.91-.46.5-.45,1.34-.04,1.77.04-.04.1-.08.11-.13.08-.24.15-.48.22-.72.33-1.18,1.47-2.13,2.62-2.11-.25.16-.51.32-.79.43-1.09.44-1.57,1.33-1.77,2.42-.08.42.03.79.27,1.15.22.33.45.68.61,1.05.23.56.62.94,1.15,1.21,1.24.64,2.46,1.3,3.7,1.94.58.3,1.18.56,1.78.81.47.19.96.34,1.45.5.27.09.54.19.81.24.65.13.8-.06.69-.73-.27-1.64-1.03-3.02-2.08-4.28-.24-.28-.45-.49-.82-.23,0,0-.03-.03-.06-.05.05-.07.11-.15.16-.23.15-.26.07-.44-.22-.43-.52.02-1.01.18-1.29.64-.4.67-.49,1.38-.19,2.12.15.36.3.73.43,1.1.06.18.07.37.1.56-.03.01-.07.03-.1.04-.06-.05-.14-.09-.16-.15-.23-.74-.54-1.46-.66-2.22-.17-1.08.42-2.01,1.35-2.34.61-.21.99-.08,1.32.47.3.49.49.58,1.06.49.24-.04.49-.06.71.24-.2.01-.35,0-.49.04-.12.04-.33.2-.32.2.19.32.32.79.61.91.46.2,1.02.17,1.59.24-.07-.27-.1-.53-.21-.74-.11-.22-.3-.41-.45-.61.03,0,.06,0,.09-.01-.04-.22,0-.48-.12-.65-.77-1.23-1.54-2.46-2.37-3.65-.81-1.17-2.31-1.18-3.51-.92-.29.06-.36.28-.19.52.14.2.32.38.49.56.33.33.67.64.99.98.11.11.15.28.22.43-.04.02-.07.05-.11.07-.1-.08-.21-.14-.29-.23-.29-.32-.56-.64-.85-.96-.28-.31-.53-.64-.97-.75-.62-.14-1.22-.32-1.84-.48-.01,0-.02-.04-.03-.07.06-.07.12-.14.22-.26-.18-.03-.3-.06-.43-.07-1.17-.14-2.22.27-3.3.63-1.38.45-1.67,2.09-.73,3.02.51.51.99,1.06,1.48,1.6.06.07.06.19.08.28-.11-.02-.22-.02-.31-.06-.07-.03-.12-.11-.18-.17-.42-.47-.8-.98-1.25-1.42-1.22-1.19-.84-3.01.78-3.58.09-.03.19-.07.28-.11ZM51.06,57.57c.15.02.21.05.25.03.25-.13.51-.26.74-.43,1.52-1.13,2.57-2.58,2.69-4.51.13-2.13-.91-3.76-2.48-5.1-.1-.08-.26-.08-.39-.14-.13-.05-.25-.1-.37-.17-.08-.05-.13-.15-.21-.18-.56-.19-1.13-.33-1.71-.24-.13.17-.28.29-.44.37-.13.06-.27.08-.41.1-1.11.15-2.14.46-2.9,1.37-.09.11-.25.16-.38.24-.02-.03-.03-.06-.05-.09.54-.95,1.37-1.49,2.45-1.69.26-.05.51-.12.75-.2.07-.02.12-.12.18-.19-.28-.04-.52.06-.72.02-.53-.12-1.02-.01-1.43.29-.56.41-1.11.86-1.59,1.37-1.2,1.28-2.03,2.77-2.15,4.56-.03.48,0,.98.11,1.45.18.74.81.99,1.54.69,0-.01.01-.03,0-.03-.04-.1-.08-.2-.12-.29-.29-.73-.4-1.47-.13-2.23.08-.23.2-.45.55-.5-.33.7-.57,1.36-.27,2.07.12-.42.02-.89.36-1.29.16.69-.27,1.41.28,2.09.02-.22.02-.35.06-.47.03-.09.1-.16.15-.24.06.08.14.16.17.25.04.1.01.22.05.31.03.09.12.15.24.31.03-.23.03-.35.06-.46.02-.07.09-.12.14-.18.06.06.14.12.17.19.04.11.04.23.06.35.03,0,.05,0,.08,0l.15-.39c.13.22.22.37.35.6.03-.45-.1-.85.23-1.26.04.23.07.35.08.48.02.22,0,.45.03.68.02.21.12.36.38.31l.18-.48c.15.29.27.52.39.75.03,0,.06-.01.1-.02.02-.1.05-.19.07-.29.04-.11.08-.22.12-.33.05.11.1.23.14.34.02.07-.01.15.02.21.1.19.21.39.35.54.02.02.26-.15.4-.23.05-.03.09-.06.14-.09.05.26.1.51.16.77.04-.01.08-.03.12-.04.08-.12.15-.23.25-.38.06.09.11.14.13.19.08.2.15.41.22.62.21-.08.42-.15.62-.25.18-.1.33-.24.5-.36-.04-.06-.08-.13-.11-.19-.12.11-.24.22-.35.33-.02-.04-.04-.07-.06-.11.06-.08.11-.18.18-.25.18-.17.38-.48.65-.24.24.22.02.49-.14.69-.17.2-.37.37-.58.57.16-.02.29-.03.41-.04l.02.07c-.13.12-.25.23-.45.41ZM54.19,64.16c-.05-.1-.08-.15-.11-.19-.5-.78-1-1.56-1.49-2.35-.7-1.13-1.34-2.3-2.09-3.4-.75-1.1-1.75-1.94-3.04-2.38-.13-.04-.27-.06-.41-.09.12.18.27.27.41.38,1.45,1.11,2.23,2.7,3.01,4.28.03.07-.03.19-.05.28-.05,0-.1,0-.15,0-.02-.08-.02-.17-.06-.24-.5-1.13-1.14-2.17-1.96-3.1-1.23-1.39-2.72-2.09-4.6-1.79-.19.03-.38.09-.65.15.13.13.18.18.23.22.53.46,1.11.87,1.59,1.37.89.94,1.73,1.92,2.58,2.9.14.16.2.39.3.59-.15.04-.2.03-.26.01-1.27-.44-2.54-.89-3.81-1.32-1.35-.46-2.74-.82-3.99-1.55-.32-.19-.6-.06-.67.25-.16.72.18,1.74.85,2.06.83.39,1.72.7,2.61.92,1.45.37,2.94.41,4.44.3.04,0,.09,0,.16.01,0,.11-.02.21-.02.33-2.35.09-4.62-.1-6.78-1.03-.13-.06-.29-.05-.43-.07.02.16.03.32.06.47.02.09.08.17.13.25.57.9,1.26,1.7,2.08,2.38.21.18.47.34.74.41,1.49.38,3.01.42,4.54.26,1.69-.17,3.39-.33,5.08-.49.04,0,.07-.04.15-.08-.97-.7-1.91-1.39-2.88-2.09l.09-.25c.43.3.85.59,1.26.88l.1-.11c-.14-.29-.28-.58-.42-.87.03-.03.05-.06.08-.09.1.07.22.11.28.2.42.56.79,1.17,1.25,1.68.47.52,1.08.83,1.85.87ZM65.58,53.04c-1.57-.4-3.25-.52-4.9.17-.91.38-1.62,1-2,1.93-.28.68-.17,1.1.39,1.58.24.21.51.4.74.61,2.22,2.05,4.44,4.09,6.66,6.15.21.2.35.2.57.02,1.86-1.47,2.52-3.42,2.18-5.71-.33-2.18-1.46-3.82-3.64-4.77ZM71.59,58.36c-.27.14-.54.26-.8.41-.53.3-.56.41-.35.94q-.5.36-.34.72c-.17.22-.36.4-.45.62-.11.26-.13.56-.19.85-.11.54-.22,1.09-.3,1.64-.02.15.07.32.11.48.05,0,.09,0,.14-.01.01-.12.04-.25.04-.37,0-.71.14-1.4.44-2.04.08-.17.22-.3.33-.46-.09.73-.22,1.42-.34,2.1-.13.73.11,1.4.28,2.09.05-.56.04-1.13.13-1.68.08-.55.23-1.1.68-1.51.03.13.01.25-.03.35-.16.48-.35.96-.5,1.45-.1.34,0,.64.25.92.19.22.31.49.47.74.05.07.11.14.16.2.06-.07.13-.13.18-.2.09-.14.17-.28.26-.42.05.02.09.04.14.06-.06.25-.12.51-.19.76.02,0,.04,0,.06.01.13-.18.26-.37.4-.55.03.01.06.02.1.03-.01.18-.02.36-.03.54.03.03.05.06.08.09l.55-.39s.06.09.09.14c-.22.24-.45.47-.67.71l.06.11c.49-.04.95-.21,1.36-.48.4-.27.75-.64,1.13-.98-.06.5-.34.82-.74,1.05-.37.21-.77.37-1.15.57-.14.07-.26.16-.39.24.02.03.04.07.06.1,1.26-.05,2.09-.88,2.98-1.66-.01.17-.05.34-.16.42-.46.37-.94.72-1.42,1.08-.11.08-.22.17-.33.26.02.04.05.09.07.13.32-.13.65-.24.96-.39,1.36-.64,2.35-1.65,2.74-3.12.61-2.28-.08-4.19-1.85-5.7-.53-.45-1.07-1.08-1.94-.74,0,0-.02,0-.03,0-.34-.03-.68-.08-1.02-.09-.27-.01-.53,0-.61-.35-.5.19-.95.37-1.4.54,0,.02.02.04.03.07.32-.03.65-.06.97-.08,0,.05.02.1.03.15-.18.06-.37.11-.55.18-.09.03-.25.1-.24.15,0,.3-.24.35-.42.47-.2.13-.39.28-.58.41.03.04.06.08.08.12.26-.17.52-.35.78-.51.27-.16.54-.37.91-.16ZM100.62,73.78s.06.03.09.04c-.02.43-.44.66-.56,1.07.39-.26.79-.51,1.18-.77.02.03.04.06.06.08-.28.56-.91.72-1.31,1.17.53-.17,1.06-.36,1.5-.67.44-.31.8-.75,1.26-1.19-.14.94-.91,1.19-1.44,1.67.09,0,.17,0,.25-.03,1.12-.39,1.83-1.21,2.37-2.21.46-.87.9-1.75.51-2.78-.03-.09.08-.23.14-.4.12.13.16.18.21.23.24.27.49.15.74.02.28-.14.15-.35.08-.52-.12-.27-.26-.54-.43-.77-.09-.12-.29-.15-.44-.22-.04.16-.09.32-.11.48-.03.18-.02.36-.03.54-.05,0-.11.02-.16.02-.1-.21-.23-.4-.28-.62-.2-.93-.73-1.63-1.55-2.08-1.41-.78-2.88-.73-4.35-.21-.75.27-1.44.64-1.86,1.37-.71,1.24-.9,2.57-.72,3.97.04.29.16.58.26.95.17-.34-.22-.76.31-.84-.02-.85.15-1.53.52-1.82-.18,1.1-.34,2.19.47,3.14.01-.13.03-.27.04-.4.04,0,.07-.01.11-.02.17.35.34.7.51,1.05l.1-.04c0-.14,0-.27,0-.34.31-.33.58-.6.91-.94.15.65.28,1.19.4,1.73.05-.02.16-.08.28-.14,0,.15,0,.25-.01.36.03.02.06.03.08.05.3-.31.6-.62.9-.93ZM43.79,35.47s.03.09.05.13c-1.39.15-2.38.9-3.07,2.01-.7,1.13-.98,2.35-.38,3.72.2-.71.23-.73.76-.46.02-.17.03-.34.07-.49.06-.24.1-.49.22-.7.21-.35.47-.67.72-.99.08-.1.17-.18.26-.27.04.02.08.04.12.06-.54,1.02-.65,2.08-.46,3.21.14-.08.23-.13.33-.19.16.79.23,1.6,1.1,2.01-.02-.24-.04-.42-.06-.61.04-.01.09-.02.13-.03.14.28.28.55.43.84.2-.26.5-.25.86.01.14-.17.28-.35.42-.52.03.01.06.03.09.04-.03.21-.06.42-.1.67.7-.06.91-.67,1.32-1.03.04.02.07.05.11.07-.14.3-.28.6-.46.98.38-.17.66-.29.93-.41-.07.35-.29.46-.55.51-.29.05-.59.06-.88.12-.19.04-.38.13-.57.2,0,.04.02.08.03.12.21,0,.42.04.62.02,1.01-.12,1.85-.6,2.44-1.4.71-.95.98-2.08,1.06-3.25.08-1.17-.35-2.14-1.22-2.92-.65-.58-1.41-.96-2.2-1.31-.33-.15-.65-.25-1.03-.12-.17.06-.38-.02-.64-.03.28-.34.83-.22.77-.78-.55.1-1.06.19-1.57.31-.08.02-.13.14-.2.21.08.06.14.14.23.19.08.04.19.05.28.07ZM92.06,80.28s.07.03.11.04c.09-.12.18-.23.26-.36.57-.9.83-1.9.86-2.95.07-3.07-1.73-4.61-4.73-4.36-.11,0-.23.09-.32.16-.1.07-.17.17-.25.26-.05.06-.09.12-.12.18-.06.12-.09.27-.19.35-1.27,1.05-2.04,2.34-1.97,4.04,0,.07-.08.15-.12.22-.08-.06-.18-.1-.22-.18-.04-.09-.03-.21-.03-.31,0-1.71.81-2.99,2.12-4,.08-.06.16-.12.27-.22-.29-.11-.46-.07-.64.14-.42.49-.86.95-1.3,1.42-.08.09-.2.14-.31.21-.03-.03-.06-.05-.09-.08,0-.66.72-.87.96-1.38-.12.04-.22.09-.3.17-.88.73-1.24,1.74-1.51,2.81-.24.97-.13,1.87.47,2.64.45.58,1.03,1.07,1.59,1.56.28.25.65.41,1.02.64-.07-.43-.16-.52-.47-.62-.22-.07-.47-.15-.63-.31-.43-.42-.85-.87-1.23-1.34-.16-.19-.2-.47-.3-.71l.12-.07c.09.1.19.19.28.29.37.44.72.89,1.11,1.3.12.12.38.24.51.19.35-.14.67-.21,1.07.06-.13-.34-.25-.59-.34-.86-.09-.28-.14-.57.19-.88.03.22.05.38.08.53.05.23.08.47.18.68.05.1.26.14.4.15.25.02.5-.02.75,0,.39.04.26.36.26.6l.11.03c.16-.33.33-.65.49-.98.24.71-.55,1.16-.4,1.79.44-.59.89-1.18,1.4-1.85.15.8-.54,1.1-.76,1.62.04.03.08.05.12.08.25-.32.49-.65.74-.97.03.01.06.02.09.03l-.12.56s.05.02.07.02c.26-.49.51-.97.77-1.46.05.02.1.04.16.06-.07.35-.15.69-.22,1.04ZM77.9,85.28s.01-.07.02-.1c.51.06.96-.12,1.39-.33.13-.06.21-.25.31-.37-.14-.07-.27-.14-.41-.2-.06-.03-.13-.03-.19-.05.38-.02.81-.15.95.42l.09-.06c0-.11,0-.22,0-.39.18.06.35.14.52.15.23.02.35-.11.37-.33-.13.07-.27.14-.4.21-.02-.04-.04-.08-.06-.12.3-.15.61-.3.92-.43.05-.02.14.04.21.07-.06.06-.11.13-.18.17-.05.02-.12-.02-.13-.02-.03.14-.04.25-.08.35-.08.18-.24.35-.26.54-.1.89-.16,1.78-.23,2.68.53.13.95.25,1.38.33.67.12.88-.02.9-.69.03-.96.02-1.93-.02-2.89-.02-.7-.06-.92-.82-.51-.03.02-.07.03-.1.04-.21.09-.31.02-.3-.16.43-.24.89-.41,1.23-.71.42-.38.89-.62,1.41-.81.24-.08.47-.21.73-.33-.08-.07-.1-.1-.13-.1-.09-.02-.19-.06-.28-.06-.9-.01-1.81-.09-2.71,0-2.06.18-4.01.81-5.91,1.6-.68.28-1.3.74-1.93,1.15-.13.08-.2.27-.3.4.17.06.26.05.35.03,1.1-.19,2.21-.37,3.31-.56.22-.04.28.03.25.3-.21-.04-.41-.08-.61-.11-.07-.01-.14-.01-.2,0-.21.06-.41.15-.62.21-.91.24-1.82.46-2.73.7-.04,0-.06.05-.16.13.21,0,.34,0,.46-.02.42-.08.84-.19,1.26-.24.48-.06.97-.08,1.45-.09.18,0,.36.08.25.34-.28-.02-.56-.09-.82-.05-.97.16-1.94.34-2.9.55-.25.05-.51.2-.7.38-.8.76-1.07,2.21-.63,3.22.17.39.29.43.64.16.35-.27.68-.56,1.01-.86.52-.46,1.08-.81,1.77-.94.69-.13,1.29-.48,1.81-.96.5-.46,1.02-.89,1.53-1.34.03-.03.04-.08.08-.17-.18,0-.32,0-.45-.01-.11-.02-.22-.07-.33-.1ZM92.09,72.2s.08.06.12.09c.26-.26.69-.49.74-.78.08-.5.35-.77.68-1.07.47-.43.41-1.98-.08-2.41,0,0-.02,0-.04,0-.04.18-.08.37-.13.56-.03,0-.06,0-.09-.01-.09-.41-.17-.82-.26-1.23-.04,0-.09.01-.13.02-.04.24-.08.47-.13.76-.31-.29-.03-.74-.44-.92-.1.17-.18.33-.3.55-.09-.29-.14-.48-.2-.67-.17.09-.35.19-.58.31-.02-.12-.04-.26-.06-.4-.05-.04-.09-.08-.14-.12-.12.13-.24.26-.36.4-.02-.04-.03-.08-.05-.12.03-.14.06-.28.1-.42-.03-.04-.06-.08-.1-.12-.21.15-.41.3-.63.46-.12-.35-.47-.52-.7-.4-.31.17-.6.38-.89.59-.16.12-.27.32-.45.4-.44.2-.85.41-1.12.84,0,0-.04,0-.15-.02l.56-1.5c-.64.32-.81,1.01-1.33,1.38.01-.23.05-.45.15-.63.46-.92,1.24-1.48,2.17-1.87.15-.06.29-.15.44-.23-2.41.49-4.03,3.09-3.14,5.27.29-.31.34.13.57.19.07-.61,0-1.24.46-1.74.06.76-.38,1.54.16,2.36.03-.42.04-.75.07-1.07.05-.58.12-.73.36-.86.19.41-.22.86.08,1.32.15-.28.28-.5.4-.72.04.02.08.04.11.06-.03.21-.07.42-.09.63-.01.26.09.4.32.59.34.27.7.14,1.03.25.16.05.31.1.47.14.07.02.15.02.23.02.15.01.31-.01.43.04.49.22.5.22.87-.19.08-.09.19-.16.29-.23.02.02.05.04.07.06-.03.14-.06.28-.1.49.31-.12.57-.22.87-.34-.02.13-.04.22-.06.3ZM42.72,48.11s.01,0,.02.01c.1-.26.23-.5.28-.77.13-.76.06-1.53-.16-2.26-.06-.2-.31-.36-.5-.51-.37-.27-.81-.47-1.12-.79-.38-.39-.65-.87-.96-1.33-.16-.24-.31-.25-.52-.06-.12.11-.25.21-.4.27-.27.11-.56.18-.83.3-.41.18-.82.39-1.23.58-.19.08-.4.17-.46-.2-.24.17-.45.31-.64.46-.16.12-.2.29-.03.42.26.19.16.37,0,.53-.24.23-.51.43-.75.65-.25.23-.39.5-.25.87.13-.16.24-.29.35-.43.04.02.08.03.12.05-.04.25-.09.49-.12.74-.08.51-.13,1.02.18,1.53.13-.28-.11-.63.27-.83.08.21.14.38.21.57.36-.31-.07-.85.43-1.18.01.28,0,.48.04.67.03.11.14.21.22.31.06-.1.15-.19.18-.3.06-.19.09-.39.13-.58.04,0,.07,0,.11.01.1.62.2,1.24.31,1.86.03,0,.07,0,.1,0,.06-.2.11-.4.17-.61.05.03,1.17-.07,1.2-.08.02.18.05.36.08.58.18-.11.3-.19.45-.28.04.08.05.15.09.21.05.09.11.22.17.23.08.01.18-.08.25-.15.09-.09.14-.22.23-.32.06-.06.15-.08.23-.11,0,.09.05.18.02.26-.06.16-.15.3-.26.53.64-.15.71-.8,1.19-1.07.07.59-.46.83-.64,1.35.19-.08.32-.1.38-.17.23-.31.45-.64.65-.97.1-.16.16-.34.26-.57.29.43-.15.68-.09,1.06.11-.11.21-.17.24-.25.09-.22.13-.45.21-.67.03-.08.13-.14.19-.21.03.08.1.16.09.24,0,.14-.05.28-.08.42ZM59.68,50.19s.05.08.09.09c1.23.47,2.45.53,3.58-.25,1.03-.71,1.55-1.76,1.79-2.95.26-1.3.18-2.57-.57-3.72-.48-.74-1.17-1.15-2.05-1.2-.14.83-.22,1.63-.82,2.29-.1-.1-.17-.17-.29-.29.01.22.02.37.03.52l-.09.02c-.09-.14-.19-.29-.28-.43-.03,0-.05.02-.08.03.05.31.1.62.15.92-.04.01-.09.02-.13.03l-.35-.67s-.05.02-.07.03c0,.34,0,.69-.01,1.1-.17-.11-.24-.16-.31-.21-.04.17-.07.31-.11.52-.11-.16-.17-.24-.23-.34-.05.25-.03.55-.16.66-.29.26-.28.54-.27.86,0,.1-.02.23-.09.29-.19.17-.4.3-.7.51.23.17.41.36.63.46.35.17.74.27,1.1.42.12.05.22.15.34.23-.8.03-1.42-.56-2.21-.51.1.15.22.29.37.33.66.2,1.33.36,1.99.54.15.04.33.03.44.12.27.22.53.23.83.1.07-.03.17,0,.26.02,0,.04,0,.08,0,.12-.88.39-1.79.53-2.76.33ZM91.88,65.6c.11-.02.19-.04.31-.06-.04.18-.07.3-.09.42.02.02.04.04.06.06l.87-.61s.06.07.09.1c-.24.25-.48.51-.73.76l.05.09c.21-.09.42-.17.63-.27.2-.1.4-.22.6-.33.02.02.03.04.05.06l-.15.39c.5,0,1.04-.37,1.37-.87.74-1.15.55-2.45.55-3.71,0-.27-.15-.55-.23-.82-.25-.82-.47-.92-1.27-.6-.02,0-.05,0-.09,0-.06-.1-.14-.21-.26-.4.29.05.5.08.71.11.02-.03.05-.06.07-.1-.16-.15-.3-.36-.49-.45-1.08-.51-2.23-.67-3.41-.65-.44,0-.64.33-.56.82.09-.01.18-.01.27-.03.97-.23,1.92-.09,2.86.13.3.07.49.46.31.62-.2.17-.46.28-.69.42-.02-.03-.04-.06-.07-.1.1-.13.21-.27.34-.45-.63-.26-.95.43-1.52.43.22-.22.4-.39.57-.56-.02-.03-.05-.06-.07-.09-.58-.02-.97.41-1.43.75-.04-.15-.07-.24-.08-.28-.14-.04-.28-.03-.37-.1-.23-.18-.31-.03-.4.14-.07.13-.09.3-.19.41-.3.36-.62.69-.92,1.04-.09.1-.14.24-.2.36.12.08.23.12.28.2.13.2.03.78-.12.97-.04.06-.02.16-.03.25.03,0,.06.01.08.02.05-.07.1-.14.19-.27.11.31.18.57.3.81.11.24.26.47.39.71.03-.02.06-.03.08-.05-.08-.87-.03-1.06.41-1.47.05.26.12.48.14.71.04.35.29.31.42.29.29.45.54.84.82,1.26.19-.19.33-.34.47-.49.02.01.05.02.07.03,0,.12-.01.24-.02.39ZM76.98,56.35c-.08.34-.14.61-.21.88-.06.22-.14.43-.18.65-.07.51.07.69.57.62,1.01-.15,2.02-.3,2.88-.96.7-.54,1.43-1.03,2.13-1.56,1.04-.8,1.81-1.79,2.03-3.13.06-.38.04-.78.06-1.17l-.11-.03c-.15.12-.3.23-.44.35-1.5,1.25-3.2,2.1-5.11,2.52-.56.12-1.06.27-1.3.84,0,.01-.04.01,0,0-.28-.44-.53-.86-.8-1.27-.6-.91-1.07-1.86-.85-3.01.01-.07,0-.15-.02-.3-.12.12-.22.19-.25.27-.19.51-.44,1.01-.52,1.54-.19,1.19.44,2.16,1.01,3.13.22.38.53.67,1.12.63ZM99.96,101.67s.08-.02.12-.04c.03-.11.05-.23.08-.34.24-.83.45-1.68.75-2.49.31-.83.5-1.64.34-2.54-.17-.94-.08-1.88.23-2.78.18-.52.1-.78-.42-.98-.54-.2-1.1-.38-1.66-.54-.5-.14-.54-.13-.76.36-.43.97-.81,1.96-1.26,2.92-.25.54-.27,1.04-.08,1.58.11.3.22.63.19.93-.05.49.08.91.35,1.27.68.89,1.4,1.76,2.11,2.64ZM53.14,42.89l.02.16c-.19.07-.38.13-.6.21.68.33,1.53.18,1.95-.34.24-.29.48-.59.72-.89.77-.97.88-2.81.22-3.74-.9-1.26-2.11-1.96-3.68-1.99-.21,0-.43.01-.63.07-.25.08-.46.23-.47.61.3-.12.56-.23.82-.33.53-.21.61-.21.76.03-.12.08-.23.15-.39.25.34.04.62.07.91.1,0,.05,0,.09,0,.14-.29.05-.58.09-.87.15-.32.08-.71.2-.68.57.06.58-.21,1.04-.39,1.53,0,.02-.03.03-.07.05l-.29-.11c-.06.43-.11.83-.17,1.23-.03.23-.1.43-.42.37.35.07.43.32.5.6.1.43.23.56.57.6,0-.24-.29-.49-.08-.69.38.38.73.75,1.09,1.12.02.02.04.06.05.09.02.37.25.32.51.27.21-.04.42-.05.64-.07ZM46.33,81.87c-.18.13-.28.19-.36.27-.76.82-1.5,1.65-2.28,2.46-.93.96-1.23,2.12-1.11,3.41.09.99.25,1.98.32,2.98.04.61-.03,1.22-.05,1.88.34-.1.7-.2,1.04-.31.86-.29,1.5-.77,1.61-1.75.01-.13.08-.25.11-.38.12-.76.37-1.53.33-2.28-.08-1.57.04-3.11.22-4.66.06-.5.1-1.01.16-1.61ZM80.24,48.04c-.15.02-.29.02-.41.05-1.2.29-2.29.81-3.2,1.66-.23.22-.44.51-.55.81-.47,1.26.02,2.95,1.05,3.81.19.16.29.17.44-.05.44-.68.92-1.33,1.36-2.01.14-.22.18-.5.27-.75.04-.13.09-.25.13-.38.1.06.21.11.34.19.71-.49,1.31-1.18,2.17-1.49-.56.52-1.15,1.01-1.71,1.52-.14.13-.21.34-.31.52.2,0,.41.06.58,0,.89-.33,1.78-.68,2.65-1.05.29-.12.55-.34.78-.56.39-.39.3-.93-.2-1.09-.22-.07-.5.02-.74.1-.22.07-.41.23-.61.35.06-.17.16-.29.25-.42.15-.24.15-.47-.03-.7-.44-.57-1.56-.61-2.02-.06-.14.17-.27.37-.36.57-.2.5-.37,1-.56,1.51-.04.1-.08.2-.11.3-.04-.01-.07-.02-.11-.03-.14-.51.22-.9.36-1.35.15-.47.34-.93.53-1.44ZM83.31,103.81c0,.05,0,.11.01.16.54,0,1.08,0,1.62-.03.99-.04,1.97-.07,2.95.14.34.07.7.06,1.05.04.42-.02.83-.07,1.28-.12-.08.18-.15.34-.23.49-.4.73-1.03,1.23-1.65,1.76-.61.52-1.22,1.06-1.79,1.63-.3.3-.53.69-.58,1.15.78.1,1.45-.1,2.02-.55,1.06-.82,2.12-1.65,3.12-2.55.66-.59,1.21-1.31,1.79-1.99.33-.37.68-.65,1.21-.62.2.01.4-.05.6-.09,1.25-.24,2.5-.48,3.79-.29.07.01.15-.03.24-.04-.21-.24-.38-.34-.92-.27-2.07.24-4.19.17-6.15,1.06-.1.04-.23,0-.35-.01.07-.09.12-.23.22-.27.34-.15.68-.31,1.04-.38.86-.17,1.74-.29,2.6-.43.15-.03.3-.08.5-.13-.69-.42-5.96-.11-6.61.36.46.35,1.22.13,1.56.8-.1.02-.15.04-.19.03-.47-.16-.94-.35-1.42-.47-.46-.11-.94-.24-1.4-.2-.93.09-1.86.27-2.78.44-.52.09-1.03.24-1.55.36ZM56.49,65.94c-.06-.05-.08-.09-.12-.11-.55-.28-1.1-.57-1.65-.84-.62-.3-1.25-.62-1.97-.58-1.37.08-2.73.14-4.09.25-1.54.13-3.08.29-4.63.11-.2-.02-.41-.05-.7-.09.52.61,1.06,1.02,1.67,1.34,1.76.94,3.65,1.16,5.59.92,1.91-.24,3.81-.6,5.71-.91.06,0,.11-.06.2-.1ZM43.54,84.29s-.06-.06-.09-.09c-.67.02-1.35.04-2.02.07-1.38.06-2.75.19-4.04.75-.48.2-.83.51-1,1-.4,1.12-.59,2.28-.69,3.45-.03.41.09.81.35,1.1.36-.47.64-1.01,1.07-1.35.72-.58,1.49-1.11,2.31-1.52,1.35-.68,2.51-1.59,3.55-2.66.22-.22.38-.5.57-.74ZM43.49,72.27c-.11-.03-.23-.08-.35-.11-1.46-.35-2.78-.03-4.01.79-1.37.91-2.38,2.17-3.36,3.47-.25.33-.48.67-.72,1,.02.03.05.05.07.08,3.34-.83,6.25-2.36,8.37-5.22ZM107.49,84.77c-.15.07-.27.12-.38.18-1.49.8-2.44,2.1-3.24,3.53-.07.13-.06.32-.06.48,0,.42.08.83.04,1.24-.07.69-.08,1.41-.62,1.97-.47.49-.49.68-.15,1.26.13.22.31.4.47.59.15-.24.4-.46.44-.72.08-.47.09-.94.57-1.21.69-1.38,1.73-2.5,2.7-3.68.09-.11.12-.3.11-.44-.02-.44-.12-.88-.1-1.31.03-.61.13-1.22.21-1.89ZM27.75,77.86c.52.09.95.17,1.37.23.54.06,1.01-.1,1.38-.51.25-.27.54-.51.77-.79,1.03-1.28,2.04-2.58,3.06-3.86.38-.48.79-.93,1.25-1.47-1.21-.06-2.33-.05-3.33.61-.1.07-.19.18-.26.29-1.02,1.56-2.01,3.12-3.28,4.49-.29.31-.59.61-.97,1.01ZM81.56,107.91s.05.08.07.12c-.48.4-.96.8-1.43,1.21-.21.18-.41.37-.58.57-.16.18-.14.38.07.52.34.24,1.14.27,1.46,0,.71-.58,1.44-1.14,2.07-1.8.63-.65,1.14-1.42,1.7-2.13-.02-.02-.05-.05-.07-.07-.49.24-.98.48-1.48.72-.03-.05-.06-.11-.09-.16.16-.12.32-.25.49-.35.55-.31,1.1-.61,1.65-.93.12-.07.23-.17.35-.26-.02-.03-.03-.06-.05-.09-.37.07-.75.1-1.1.21-1.04.31-2.06.67-3.1.98-1.01.3-1.86.85-2.56,1.62-.28.31-.45.72-.65,1.1-.12.24-.02.45.18.6.21.16.44.17.66.01.08-.05.14-.12.22-.18.62-.5,1.23-1.01,1.86-1.5.1-.08.23-.12.34-.18ZM24.69,69.48c.05.07.06.09.07.09.06.01.11.03.17.03,1.61.13,3.17.48,4.65,1.15.53.24,1.09.42,1.66.56.42.1.87.15,1.3.12.73-.05,1.46-.18,2.18-.28.14-.02.29-.04.43-.06-.08-.11-.15-.14-.22-.18-1.23-.54-2.47-1.06-3.6-1.8-.44-.28-.97-.45-1.48-.58-.61-.16-1.23-.26-1.86-.33-.35-.04-.73-.04-1.05.07-.56.19-1.1.45-1.63.72-.23.12-.41.32-.6.49ZM38.44,71.75s0-.08-.01-.11c-.23-.04-.45-.08-.68-.11-.21-.02-.43.02-.64-.03-.6-.13-1.1.05-1.49.47-.57.62-1.13,1.25-1.65,1.92-1.03,1.33-1.93,2.78-3.23,3.89-.06.05-.12.2-.1.23.06.07.17.14.26.14.83.01,1.65-.01,2.3-.64.41-.4.85-.76,1.23-1.19.98-1.12,1.92-2.27,2.89-3.4.35-.41.75-.78,1.13-1.17ZM93.76,93.84s.06-.02.09-.03c0-.12,0-.25-.03-.37-.17-1.29-.35-2.57-.52-3.86-.1-.78-.35-1.11-1.11-1.29-.7-.17-1.36-.42-1.98-.79-1.27-.77-2.4-1.65-2.66-3.25,0-.02-.03-.03-.07-.07-.09.02-.19.04-.29.08-.57.23-.65.48-.28.95,2.22,2.84,4.45,5.67,6.68,8.5.04.05.1.09.15.13ZM76.97,58.9c.65,1.04,1.16,2.03,1.17,3.2,0,.2.14.24.33.16,1.73-.71,3.08-1.78,3.56-3.71.2-.82.47-1.62.71-2.43.01-.05,0-.1,0-.22-1.78,1.31-3.43,2.74-5.77,3ZM77.41,76.92s.03-.06.04-.09c-.29-.42-.59-.82-.87-1.25-.5-.77-1.19-1.28-2.01-1.66-.21-.1-.38-.3-.56-.47-.15-.14-.26-.38-.44-.44-.68-.25-1.36-.51-2.07-.67-.87-.19-1.73-.11-2.49.44-.38.28-.38.33-.03.63.66.56,1.46.84,2.26,1.11.61.21,1.22.41,1.81.65,1.32.54,2.63,1.11,3.95,1.66.12.05.26.06.39.09ZM31.22,71.73c-.32-.12-.52-.2-.73-.27-.31-.11-.65-.18-.94-.34-1.35-.76-2.84-1.01-4.34-1.22-1.08-.16-2.38.91-2.52,2,0,.03,0,.07.02.12.37-.04.73-.15,1.09-.12.79.07,1.59.16,2.36.34,1.34.31,2.65.47,3.94-.17.22-.11.48-.12.72-.19.1-.03.2-.07.39-.14ZM56.67,81.33s.07.04.1.06c.07-.05.15-.1.22-.16,1.26-.92,2.52-1.83,3.77-2.76.4-.3.77-.63,1.14-.96.34-.31.67-.64,1-.96.38-.36.76-.71,1.14-1.08.2-.19.15-.33-.11-.4-.08-.02-.16-.04-.24-.04-.98-.02-1.92.12-2.82.52-.22.1-.44.26-.59.44-.43.54-.83,1.1-1.23,1.66-.64.9-1.29,1.8-1.91,2.71-.2.29-.32.64-.47.96ZM60.09,81.58c-.4.61-.59,1.23-.79,1.85-.32,1.02-.61,2.05-.99,3.05-.43,1.13-.82,2.26-.86,3.48,0,.2-.08.4-.08.6,0,.3.16.55.44.63.28.09.42-.15.54-.36.07-.12.13-.26.18-.39.31-.72.61-1.44.93-2.16.64-1.44,1.1-2.92,1.04-4.51-.03-.72-.14-1.43-.42-2.19ZM87.87,104.55c-.14-.09-.18-.12-.22-.13-.15-.04-.3-.1-.45-.11-1.7-.19-3.39-.13-5.08.15-.34.05-.72.04-1,.19-.71.39-1.41.81-2.03,1.31-.43.35-.8.82-1.1,1.29-.3.47-.31,1.02-.05,1.63.78-1.27,1.9-2.01,3.19-2.5,1.09-.41,2.19-.81,3.31-1.12.88-.23,1.8-.3,2.7-.46.22-.04.42-.14.72-.24ZM31.73,72.15s-.05-.08-.07-.12c-.31.08-.64.12-.91.27-.43.22-.85.48-1.21.79-.55.47-1.07.98-1.55,1.52-.8.9-1.56,1.84-2.73,2.3-.19.07-.18.21-.06.34.08.08.19.15.3.19.96.31,1.89.37,2.67-.45.03-.03.07-.06.11-.1.95-.85,1.69-1.87,2.37-2.93.38-.59.73-1.19,1.09-1.79ZM74.25,89.18c0-.05,0-.1,0-.15.28-.01.56-.03.83-.04,1.37-.03,2.74-.05,4.04.48.28.11.6.12.91.15.74.07,1.45-.09,2.17-.35-.59-.34-1.12-.79-1.81-.92-.49-.09-.99-.13-1.48-.21-.37-.06-.74-.17-1.12-.2-1.93-.16-3.48.7-4.88,1.89-.13.11-.21.29-.31.43.14.04.23.04.29,0,1-.59,2.09-.67,3.21-.56.75.07,1.49.15,2.24.21.17.01.34-.05.57-.08-.09-.1-.11-.13-.13-.15-.1-.05-.19-.11-.29-.13-.74-.1-1.48-.21-2.22-.28-.68-.06-1.36-.07-2.03-.1ZM55.71,86.46s.06.02.09.03c.13-.16.3-.3.4-.48.54-1.01,1.31-1.84,2.14-2.61.96-.88,1.46-2.01,1.9-3.19.05-.14.06-.31.08-.46-.09-.02-.11-.03-.13-.03-.07.02-.13.05-.19.09-1.11.66-2.13,1.42-3.05,2.34-.66.66-1.1,1.39-1.15,2.34,0,.12-.03.24-.04.35-.02.54-.03,1.08-.05,1.62ZM109.2,86.43c.49-.22,1-.42,1.48-.67,1.45-.79,2.87-1.64,4.52-2.01.17-.04.3-.26.45-.39-.14-.15-.26-.38-.43-.42-.66-.14-1.33-.23-1.99-.33-.49-.08-.95.05-1.38.28-1.43.75-2.16,2.04-2.65,3.55ZM60.81,84.55c.05,0,.11.01.16.02.35-.74.68-1.49,1.04-2.21.8-1.58.81-3.31.97-5.01,0-.08-.05-.21-.11-.23-.05-.03-.18.03-.24.09-.33.35-.65.69-.96,1.06-.63.76-1.21,1.59-1.19,2.61.03,1.23.2,2.45.31,3.68ZM28.92,73.09s-.03-.08-.04-.11c-.18.01-.37-.01-.54.04-.44.14-.89.28-1.3.48-1.02.48-2.04.91-3.18,1-.18.01-.35.07-.52.12-.46.14-.57.34-.38.79.06.15.16.3.28.41.25.22.55.39.78.62.39.38.81.32,1.25.14.2-.08.39-.17.57-.29,1.26-.84,2.14-2.04,3.07-3.19ZM89.05,90.01c-1.07-1.58-2.17-3.01-3.43-4.32-.08.1-.64.41-.72.44-.08.03-.17.06-.22.12-.35.37-.72.73-1.01,1.14-.34.48-.24.65.31.84,1.61.56,3.21,1.14,4.81,1.71.05.02.1.03.26.07ZM69.7,67.31c.13.16.21.27.3.36.44.47.88.94,1.3,1.42.07.08.06.23.06.35,0,.14-.04.28-.07.43.12-.09.24-.18.35-.27.02-.01.04-.02.1-.05.08.08.18.16.27.25.65.61,1.3,1.22,1.96,1.82.24.22.39.18.49-.14.04-.13.07-.28.08-.42.04-.5.02-1,.1-1.49.06-.39-.08-.64-.33-.88-.18-.17-.39-.32-.58-.47-.27-.21-.56-.26-.9-.24-.42.02-.86-.01-1.27-.11-.6-.14-1.18-.35-1.86-.56ZM45.14,59.69s.04-.06.05-.09c-.18-.21-.36-.43-.54-.64-.72-.85-1.45-1.7-2.41-2.31-.59-.37-1.2-.68-1.94-.56-.67.11-.96.55-.78,1.21.08.32.3.51.58.63.92.36,1.83.74,2.76,1.07.75.26,1.52.46,2.28.69ZM50.64,57.84c.86,1.41,1.7,2.83,2.58,4.22.69,1.1,1.51,2.11,2.5,2.96.33.29.71.52,1.26.57-1.67-3.03-3.55-5.77-6.34-7.75ZM41.54,93.14c.82-.06.96-.12,1.02-.75.06-.65.05-1.3.02-1.95-.05-.95-.17-1.89-.24-2.84-.03-.39-.01-.78-.02-1.19-.41.26-.64.64-.9,1.18-.8,1.66-.5,3.43-.53,5.15.21.18.75-.27.65.41ZM52.07,67.91s-.01-.08-.02-.12c1.3-.62,2.84-.46,4.12-1.22-.12-.06-.24-.11-.35-.1-.44.04-.88.08-1.31.17-1.86.37-3.72.69-5.63.63-.14,0-.29,0-.43,0,0,.03-.01.06-.02.09.33.12.65.27.98.36,1.43.41,2.91.41,4.39.48.92.05,1.79-.03,2.67-.33.59-.2,1.22-.27,1.84-.39.17-.03.34-.07.56-.11-.09-.11-.13-.18-.19-.23-.57-.51-1.19-.59-1.92-.34-.99.34-1.99.64-3,.89-.54.14-1.11.14-1.67.21ZM59.13,83.12c-.15.1-.21.14-.27.18-1.24,1.05-2.15,2.37-3.02,3.73-.05.08-.11.21-.08.3.2.68.4,1.37.66,2.03.1.25.35.45.53.67.04-.01.07-.02.11-.04.32-2.37,1.44-4.48,2.07-6.87ZM28.24,67.82c0,.05,0,.11-.01.16.52.09,1.04.18,1.56.26.65.1,1.28.25,1.84.64,1.43,1,3.01,1.68,4.72,2.06.4.09.8.16,1.2.23.02-.03.04-.07.05-.1-.26-.23-.51-.48-.78-.7-1.56-1.26-3.4-1.88-5.33-2.31-.24-.05-.5-.1-.71-.21-.86-.43-1.7-.1-2.54-.04ZM71.1,71.78s.01-.08.02-.12c-.39-.07-.77-.17-1.16-.22-1.8-.19-3.51.1-5.12.92-.17.09-.37.27-.41.44-.07.25-.21.33-.42.36-.18.03-.36.04-.53.09-.27.07-.49.22-.56.51.64.08,1.25.18,1.86.21.27.02.59-.02.81-.16,1.69-1.09,3.47-1.9,5.5-2.03ZM43.33,44.94c.04.55.11,1.12.13,1.68.03,1.07-.24,2.03-1.08,2.76-.32.28-.31.4.05.63.06.04.13.07.18.11.41.28.51.29.74-.16.38-.77.95-1.39,1.55-1.99.17-.17.34-.33.5-.51.09-.1.15-.22.26-.41-.21,0-.33-.02-.45,0-.22.04-.44.14-.66.14-.21,0-.5,0-.6-.13-.12-.15-.14-.44-.09-.65.09-.38.43-.52.77-.61.83-.21,1.65-.16,2.46.11.11.04.23.06.34.09.02-.03.05-.06.07-.09-.14-.24-.29-.47-.43-.71-.16-.28-.37-.38-.7-.3-.3.07-.61.09-.92.09-.7,0-1.39-.04-2.11-.06ZM104.2,52.37c.19-.06.32-.07.4-.13.58-.45,1.19-.87,1.73-1.37.43-.41.45-.98.41-1.54-.7.4-1.38.79-2,1.15-.35-.93-.69-1.84-1.04-2.77-1.13,1.33-1.01,3.48.2,4.11.15-.18.31-.36.47-.54.04.02.08.04.12.05-.09.32-.18.64-.29,1.05ZM84.16,50.61s-.06-.06-.09-.09c-.08.05-.15.11-.23.16-.9.62-1.91,1.01-2.93,1.38-.43.16-.9.19-1.35.29-.13.03-.27.05-.36.12-.54.47-.84,1.1-1.16,1.82.32-.04.57-.04.81-.09,1.43-.32,2.75-.92,3.95-1.76.38-.26.71-.59,1.03-.93.23-.24.35-.55.34-.89ZM83.46,109.9s.05.07.07.1c.42-.18.87-.31,1.25-.55.41-.26.86-.57,1.11-.96.57-.89,1.28-1.61,2.1-2.26.52-.41.97-.91,1.42-1.39.13-.14.19-.35.33-.61-.42.11-.72.21-1.03.28-1.1.24-1.94.83-2.48,1.81-.69,1.25-1.58,2.34-2.59,3.34-.07.07-.12.16-.18.24ZM99.08,81.81l.18-.05c-.12-.13-.25-.25-.35-.4-.53-.82-1.24-1.4-2.17-1.7-.46-.15-.98-.23-1.39.04-.6.39-1.13.89-1.69,1.34,0,0,0,.04.02.15.39-.13.76-.25,1.14-.38.02.04.03.08.05.11-.1.07-.21.13-.29.22-.1.1-.17.23-.25.34.17.06.33.14.51.16.09.01.19-.09.29-.13.37-.18.75-.19,1.13-.22.01.05.03.11.04.16-.27.11-.54.21-.88.34.34.21.57.3.9.15.3-.15.66-.24.99-.24.59,0,1.17.08,1.76.12ZM95.87,95.79c.09-.29.18-.56.27-.82.08-.24.14-.48.25-.7.45-.9.91-1.79,1.36-2.69.04-.08.04-.27-.02-.3-.37-.24-.74-.46-1.13-.67-.08-.04-.27-.01-.34.06-.73.77-1.19,1.65-1.06,2.76.06.47.08.94.12,1.41.03.38.12.72.55.96ZM41.16,87.27s-.08-.07-.12-.1c-1.63.65-3.16,1.47-4.28,2.88-.21.27-.33.63-.43.96-.07.23.06.44.33.45.46.03.91-.01,1.26-.37.68-.7,1.37-1.39,2.01-2.12.46-.53.83-1.14,1.25-1.71ZM99.66,101.99s-.06.06-.09.09c.31.33.61.66.92.98.08.08.2.12.3.18.03-.12.09-.24.09-.36-.05-1.84.37-3.56,1.22-5.19.04-.08.11-.21.08-.26-.17-.27.02-.45.13-.65.29-.53.63-1.04.86-1.6.11-.28.11-.67.01-.96-.14-.4-.39-.76-.64-1.11-.21-.3-.46-.26-.64.06-.06.1-.12.22-.13.33-.05.66-.17,1.33-.12,1.98.1,1.37.07,2.68-.55,3.97-.43.88-.73,1.84-.55,2.87.01.07-.06.2-.12.22-.08.03-.22,0-.28-.05-.18-.15-.33-.33-.48-.5ZM79.89,94.04c.98-.41,1.35-1.15,1.55-2.02.15-.64.19-1.32.62-1.88.06-.08.05-.26,0-.36-.03-.06-.21-.1-.31-.07-.54.13-1.08.27-1.61.44-.63.2-.83.44-.75,1.1.11.92.32,1.84.5,2.79ZM75.68,68.64c.08-.01.11,0,.13-.02,1.45-1.25,2.85-2.56,4.05-4.06.24-.31.43-.66.66-1.02-.11-.02-.14-.03-.15-.02-.09.06-.17.12-.25.19-.89.82-1.81,1.58-2.93,2.06-.19.08-.34.25-.52.37-.67.45-1.34.89-2.01,1.34-.19.13-.37.26-.56.39.17.16.32.35.51.47.41.27.61.19.77-.27.07-.2.18-.38.28-.57.04.01.07.03.11.04-.02.36-.05.71-.07,1.09ZM27.58,72.84c-.72-.17-1.36-.35-2.01-.46-.66-.1-1.35-.24-2.01-.16-1.14.14-1.28.26-.87,1.5.21.62.24.61.87.53.19-.02.38-.03.56-.09,1.05-.36,2.1-.73,3.15-1.11.09-.03.16-.11.3-.21ZM50.75,46.29c-.05-.49-.09-.99-.15-1.48-.07-.55-.2-1.07-.84-1.23-.05-.01-.1-.07-.15-.1-.21-.14-.45-.42-.64-.39-.22.04-.41.33-.61.52-.07.07-.13.14-.19.22-.26.32-.33.65-.08,1.02.16.24.28.5.45.73.5.68,1.34.96,2.21.73ZM45.74,91.09s.06.03.09.04c.1-.16.22-.32.3-.49.48-.94.63-1.97.71-3,.13-1.69.14-3.4.54-5.07.11-.46.19-.93.26-1.4.02-.15-.02-.31-.03-.46-.04-.01-.08-.03-.12-.04-.14.15-.33.28-.41.45-.22.54-.45,1.08-.58,1.65-.3,1.31-.31,2.65-.25,3.98.06,1.26.06,2.5-.35,3.7-.07.21-.11.43-.17.64ZM46.12,72.06c-.14-.13-.22-.2-.31-.28-.46-.42-.92-.83-1.37-1.25-.31-.28-.57-.62-.91-.84-1.19-.78-2.55-1.09-3.9-1.41-.05-.01-.1,0-.24.02.28.18.48.33.69.45,1.08.62,2.12,1.31,3.01,2.2.3.31.69.54,1.07.76.58.34,1.22.44,1.97.35ZM74.44,53.29c-.05.03-.08.03-.09.05-.26.84-.55,1.67-.78,2.52-.1.37.06.66.42.85.62.34,1.23.71,1.84,1.08.24.14.33.06.42-.16.2-.52.06-.95-.3-1.34-.54-.59-.9-1.28-1.17-2.03-.11-.32-.23-.64-.35-.96ZM33.58,53.72s.07.07.11.11c.2-.04.39-.08.59-.12.64-.12,1.28-.24,1.91-.38.29-.06.61-.1.85-.25.62-.39,1.21-.84,1.8-1.27.06-.04.08-.13.17-.26-.43-.05-.8-.17-1.16-.13-1.41.15-2.66.69-3.74,1.61-.21.18-.34.45-.51.68ZM108.66,92.46s-.04-.06-.06-.1c-.05,0-.09,0-.13.01-1.19.28-2.39.53-3.63.47-.1,0-.24.03-.29.1-.44.59-.65,1.27-.88,2.01.88.08,1.6-.14,2.26-.58.61-.4,1.21-.79,1.81-1.2.32-.22.61-.47.92-.7ZM77.36,65.16s.08.04.12.06c1.61-.53,3.87-2.95,3.73-4.3-.11.06-.22.1-.31.16-.77.49-1.54.98-2.31,1.47-.14.09-.31.19-.36.32-.31.75-.58,1.52-.87,2.28ZM90.35,91.56l.07-.06c-.29-.17-.56-.39-.87-.49-1.18-.41-2.36-.81-3.56-1.16-.22-.06-.57.05-.74.21-.26.23-.46.55-.6.86-.21.5,0,.7.54.64.84-.1,1.68-.24,2.52-.24.88,0,1.76.15,2.65.24ZM77.19,87.31c.14.03.19.05.25.05.88.02,1.76.04,2.64.08.31.01.43-.1.44-.4.04-.73.09-1.47.13-2.2,0-.1-.04-.19-.06-.29-.11.02-.25.01-.33.07-.8.62-1.6,1.24-2.37,1.88-.26.21-.45.5-.71.8ZM36.73,49.23c0,.05,0,.1-.01.15.27.08.53.18.8.22,1.22.18,2.34.58,3.32,1.37.34.28.78.45,1.2.61.28.11.52-.02.69-.29.18-.28.04-.46-.16-.64-.09-.08-.17-.16-.27-.24-1.02-.85-2.24-1.19-3.54-1.24-.68-.03-1.36.03-2.03.06ZM85.61,84.74c.44-.27.79-.52,1.17-.72.67-.34,1.08-.85,1.29-1.57.09-.31.02-.43-.23-.55-.78-.35-1.54-.24-2.28.09-.11.05-.19.29-.18.44.01.45.07.9.12,1.35.03.29.07.59.11.96ZM61.52,41.63s.06.06.09.09c-.15.14-.27.33-.45.43-.27.15-.58.22-.86.35-.21.1-.47.2-.59.38-.49.74-.95,1.51-1.41,2.27-.03.06-.04.13-.08.29.22-.07.41-.09.54-.18.61-.43,1.24-.85,1.79-1.35.5-.45.93-.99,1.13-1.66.19-.64.17-1.25-.18-1.94-.38.62-.73,1.18-1.07,1.73.02.03.04.06.07.1l1.02-.51ZM107.83,87.75c.41-.3.73-.55.82-1,.04-.22.1-.45.21-.63.38-.66.78-1.3,1.19-1.95.19-.29.4-.57.6-.86-1,.29-2.14.32-2.62,1.45-.4.95-.68,1.93-.2,3ZM95.87,90.33l-.13-.09c-.06.07-.12.14-.17.22-.21.3-.4.62-.63.91-.13.15-.33.23-.5.35-.09-.17-.22-.33-.27-.52-.12-.55-.21-1.1-.31-1.65-.02-.08-.06-.15-.09-.23-.03,0-.06.01-.09.02,0,.15,0,.3.02.44.19,1.08.4,2.15.57,3.23.06.38.04.78.03,1.17,0,.09-.12.19-.18.28-.07-.06-.13-.13-.2-.17-.08-.05-.17-.08-.25-.12,0,.08-.03.18,0,.25.1.27.21.54.32.81-.02.01-.04.02-.06.04-.15-.18-.29-.37-.44-.55.33.87.81,1.63,1.45,2.29-.07-.21-.13-.42-.21-.67.4-.01.77-.02,1.14-.03-.18-.24-.41-.35-.56-.54-.15-.18-.34-.46-.29-.62.16-.49.03-.95-.12-1.37-.32-.91-.12-1.71.37-2.47.21-.32.42-.65.63-.97ZM66.22,64.08s.06-.08.09-.12c-.04-.05-.08-.11-.13-.16-2.16-2.02-4.33-4.04-6.5-6.06-.87-.81-1.76-1.61-2.87-2.09-.28-.12-.53-.26-.76-.5-.21-.23-.55-.36-.84-.51-.1-.05-.25,0-.38,0-.01.03-.02.06-.03.1.1.09.18.2.3.27.82.51,1.68.94,2.34,1.68.11.12.26.21.4.29,1.96,1.18,3.62,2.74,5.32,4.24.73.64,1.34,1.41,2.04,2.09.3.3.68.51,1.03.77ZM83.43,86.67s.08.03.12.05c.64-.47,1.15-1.04,1.28-1.86.13-.77.01-1.52-.24-2.24-.03-.07-.11-.17-.18-.18-.52-.06-1.17.55-1.15,1.08.03.71.08,1.42.12,2.13.02.34.03.68.05,1.02ZM40.45,71.9c-.58-.21-1.1-.21-1.54.07-.51.33-1.02.71-1.43,1.16-1.01,1.12-1.95,2.3-2.93,3.45-.31.37-.64.71-1.03,1.15.59-.09.98-.33,1.3-.67.56-.59,1.12-1.2,1.62-1.85.97-1.27,1.98-2.47,3.56-3.03.15-.05.27-.17.46-.29ZM74.72,93.3c-.1,0-.16,0-.21,0-.65.19-1.31.35-1.94.59-1.09.42-1.22.72-.92,1.85.02.09.03.21.09.26.11.1.27.26.39.24.41-.06.84-.1,1.02-.61.11-.32.31-.61.51-.9.33-.48.68-.93,1.05-1.44ZM88.47,58.5s0-.08,0-.12c-.62-.37-1.27-.64-2.01-.51-.95.17-1.41,1.29-.87,2.09.24.35.76.55,1.02.37.36-.25.71-.51,1.06-.79.19-.16.41-.32.37-.64-.77.09-1.45.51-2.32.46.44-.43.95-.41,1.39-.53.45-.13.92-.22,1.37-.33ZM49.96,71.46c-1.84-.46-3.61-.9-5.45-1.36.5.64.97,1.24,1.65,1.59.35.18.77.33,1.15.31.72-.04,1.43-.21,2.14-.34.16-.03.32-.12.51-.2ZM63.45,70.18s.04-.05.06-.08c-.26-.25-.51-.52-.8-.75-.79-.64-1.58-1.27-2.38-1.88-1.23-.94-2.17-2.16-3.2-3.3-.4-.44-.82-.87-1.23-1.3-.06.04-.13.07-.19.11.09.1.19.18.26.29.48.74.92,1.5,1.43,2.22.23.32.58.54.88.81.13.12.25.25.38.37.1.1.18.22.3.3.93.66,1.88,1.3,2.81,1.96.57.4,1.13.82,1.69,1.23ZM81.61,92.56s.05.05.08.08c.44-.17.88-.33,1.31-.51.09-.04.18-.13.23-.21.32-.6.64-1.2.94-1.8.16-.32.08-.46-.28-.5-.45-.05-.85.11-1.2.38-.86.65-.81,1.68-1.09,2.57ZM57.09,42.83c-.51.68-.79,1.38-.74,2.19.05.78.09,1.55.79,2.12.12-.37.26-.75.22-1.1-.1-.96.01-1.89.27-2.82.08-.3.05-.64.05-.95,0-.19-.23-.28-.28-.17-.17.34-.47.39-.77.48,0,0,0,.04,0,.09l.45.17ZM105.3,49.73c.93-.12,1.7-1.14,1.72-2.27.02-.87-.43-1.56-1.06-1.66-.22,1.31-.44,2.61-.66,3.94ZM40.63,88.82c-.15.17-.32.3-.41.47-.41.73-.83,1.47-1.19,2.23-.07.15-.02.47.1.57.28.24.62.41.97.56.21.09.4-.03.47-.27.04-.16.07-.33.08-.49,0-1,0-1.99,0-3.07ZM86.45,81.28s.01-.09.02-.14c-.15-.15-.29-.31-.44-.46-.41-.41-.87-.61-1.45-.31-.16.08-.37.09-.55.15-.42.13-.83.26-1.25.39-.07.02-.17.05-.23.02-.77-.27-1.45-.03-2.11.35-.14.08-.27.18-.4.27.1.05.15.05.21.04,1.77-.29,3.55-.57,5.35-.22.27.05.57-.05.86-.08ZM94.45,70.76c.5-1.54.85-3.09.68-4.78-.55.31-1.03.59-1.57.9.85,1.18.77,2.55.89,3.88ZM105.37,45.74c-.66.14-1.1.48-1.23,1.02-.23.94.15,1.75.57,2.56.63-.41.99-2.47.66-3.58ZM98.41,91.72l-.07-.08c-.11.07-.26.11-.31.2-.2.35-.38.71-.55,1.07-.19.41-.38.81-.55,1.23-.27.66-.53,1.32-.76,1.99-.07.19-.08.43-.03.63.12.48.28.96.46,1.42.08.21.24.4.36.6.06-.02.12-.04.18-.06-.07-.59-.07-1.2-.23-1.76-.17-.59-.22-1.14.02-1.7.46-1.09.93-2.19,1.39-3.28.03-.08.06-.17.09-.25ZM81.71,110.41c.27-.05.44-.05.58-.12.36-.18.73-.36,1.04-.61,1.16-.97,1.95-2.23,2.68-3.53.08-.15.15-.3.26-.53-.52.16-.81.47-1.06.82-.94,1.36-1.96,2.66-3.3,3.67-.06.05-.1.14-.2.3ZM95.3,69.42c.33-.88.71-1.72.96-2.59.39-1.36.61-2.76,1.34-4.01.08-.15.04-.37.06-.55-.15.14-.37.25-.44.43-.28.69-.53,1.4-.78,2.1-.13.35-.24.7-.68.8-.06.01-.13.17-.13.27-.05.72-.08,1.45-.14,2.17-.04.45-.12.9-.19,1.38ZM46.78,60.3s.05-.07.08-.11c-.98-1.13-1.93-2.28-2.94-3.37-.34-.37-.84-.62-1.29-.87-.19-.11-.45-.08-.68-.11l-.04.12c.21.17.42.34.62.51.53.45,1.08.89,1.59,1.37.5.49.93,1.06,1.43,1.54.37.35.82.61,1.23.91ZM78.85,78.35s.05-.06.07-.09c-.18-.17-.34-.38-.56-.49-.41-.2-.85-.34-1.28-.52-1.07-.44-2.13-.89-3.2-1.31-1.33-.52-2.7-.95-4-1.53-.82-.36-1.53-.05-2.3.06.37.09.74.14,1.11.18,1.22.13,2.43.33,3.56.83,1.53.68,3.08,1.34,4.61,2.01.66.29,1.32.58,1.97.87ZM93.52,75.18s.08-.01.11-.02c.1-.61.22-1.21.31-1.82.04-.27.04-.55,0-.82-.06-.42-.29-.58-.68-.42-.42.17-.82.41-1.34.68.88.66,1.41,1.42,1.59,2.4ZM59.36,40.32s-.07-.03-.1-.05c-.74.41-1.11,1.09-1.26,1.9-.15.79-.26,1.59-.37,2.39-.03.2,0,.42,0,.7.45-.25.54-.59.58-.93.09-.84.34-1.63.66-2.4.16-.39.29-.81.42-1.21.04-.13.05-.27.07-.41ZM107.29,52.84c.88.13,2-.4,2.41-1.09.15-.25.1-.49-.08-.69-.18-.2-.41-.29-.68-.17-.85.38-1.32,1.08-1.66,1.94ZM54.8,75.99c-1.44.1-3,2.57-2.51,3.86.83-1.27,1.66-2.55,2.51-3.86ZM104.24,112.03s-.06.04-.09.06c.1.17.2.35.3.52.22.36.45.7.65,1.07.07.12.03.3.05.46-.04,0-.08.01-.13.02-.16-.29-.32-.58-.48-.87-.04.02-.08.04-.12.06.23.52.44,1.06.71,1.56.16.29.36.26.55-.02.32-.5.37-1.04.16-1.58-.35-.91-.73-1.81-1.11-2.71-.04-.1-.11-.2-.16-.3.06.33.19.63.29.95.14.43.26.86.36,1.3.02.09-.09.21-.15.32-.1-.05-.22-.08-.29-.16-.19-.22-.36-.46-.54-.68ZM37.72,53.1s.04.08.05.11c.68.1,1.35.04,1.98-.24.35-.15.65-.44.93-.71.28-.28.2-.47-.18-.56-.45-.1-.89-.04-1.26.23-.52.37-1.01.78-1.51,1.17ZM64.13,77.76s.05,0,.07-.02c.71-.88,1.23-1.86,1.46-2.98.02-.11-.03-.23-.05-.36-1.27.5-1.91,1.99-1.47,3.36ZM90.79,58.33c-.33-.71-.89-1.07-1.58-1.08-.78-.01-1.56.1-2.34.17-.04,0-.07.05-.16.11.15.03.26.05.35.07.56.16,1.17.23,1.67.5.67.36,1.32.3,2.05.22ZM102.47,50.34s-.07-.03-.1-.05c-.15.6-.33,1.2-.43,1.81-.03.14.14.38.28.48.25.17.55.27.83.4.31.14.55,0,.53-.34-.02-.27-.12-.55-.25-.8-.27-.51-.57-1.01-.86-1.51ZM56.6,49.66c.37-.8.45-1.51.11-2.23-.31-.65-.63-1.28-.7-2.01,0,0-.04-.02-.08-.03-.41,1.5-.04,2.86.68,4.26ZM97.02,99.55c-.53-.66-1.05-1.29-1.57-1.93-.03.02-.07.05-.1.07.34.58.67,1.17,1.04,1.73.44.68.9,1.34,1.39,1.99.21.28.49.5.74.75.02-.02.04-.04.07-.07-.43-.58-.85-1.17-1.28-1.75.05-.04.09-.08.14-.11.45.52.9,1.05,1.36,1.57.07-.09.07-.13.05-.16-.39-.67-.77-1.33-1.17-1.99-.19-.32-.31-.33-.66-.09ZM85.97,89.54c-.44-.45-4.23-1.45-4.82-1.28,1.48,1.04,3.16,1.11,4.82,1.28ZM56.76,68.24c1.42.09,2.86-.1,4.23.7-.7-1.32-3.4-1.73-4.23-.7ZM40.35,52.88s.05.09.08.14c.5,0,.99.02,1.49,0,.24,0,.5-.08.52-.38,0-.2,0-.48-.13-.58-.26-.21-.64-.28-.93-.08-.37.25-.69.59-1.02.89ZM64.92,74.58c-.39-.43-1.58-.56-2.52-.34-.44.1-.83.27-1.06.72,1.15-.4,2.37-.06,3.58-.38ZM43.43,73.96c.4,0,2.8-.96,3.1-1.25-1.01-.39-2.24.1-3.1,1.25ZM102.3,108.05c.32-.17.53.02.71.26.28.38.52.79.8,1.17.17.23.37.44.55.66.03-.03.07-.05.1-.08-.61-1.19-1.31-2.32-2.22-3.41,0,.51-.29.95.06,1.4ZM41.7,74.75c1.21-.4,1.86-1.49,2.74-2.3-1.37.21-1.92,1.42-2.74,2.3ZM89.59,58.74c-.41-.02-.82-.1-1.13.3-.21.28-.46.53-.7.78-.11.11-.23.21-.4.36,1.37-.17,2.33-.53,2.23-1.45ZM60.41,39.64c-.56.02-.76.17-.84.58-.04.21-.03.43-.09.63-.19.59-.41,1.16-.59,1.75-.1.31-.15.63-.22.95.04,0,.08.02.12.03.78-1.19.84-2.67,1.62-3.94ZM92.66,55.46c-.09-.47-.16-.93-.27-1.37-.04-.16-.15-.34-.29-.43-.12-.08-.31-.1-.46-.08-.07,0-.17.16-.18.26-.06.52.64,1.47,1.21,1.62ZM89.94,93.83c-.54.06-1.1.1-1.52.51-.13.13-.18.4-.17.6,0,.11.24.31.34.29.2-.03.42-.15.55-.3.29-.34.53-.72.81-1.11ZM65.99,74.99c.64-.67,1.28-1.34,1.92-2.01-1.61.41-1.86.66-1.92,2.01ZM46.79,46.36c-.42-.44-1.76-.41-2.41.06-.06.05-.07.18-.1.27.11.03.21.09.32.08.4-.02.8-.08,1.19-.1.36-.02.71,0,1-.31ZM91.9,81.28c.55.11.99-.07,1.36-.51.38-.44.14-.9.14-1.35-.52.64-1.01,1.26-1.5,1.86ZM57.38,48.2c.57-.92,1.12-1.79,1.66-2.66-.97-.08-1.62,1.46-1.66,2.66ZM102.86,91.65c.42-.31.62-1.01.49-1.38-.11-.31-.53-.55-1-.51.17.62.33,1.23.51,1.9ZM63.25,79.27s.07-.03.08-.06c.31-.74.51-1.51.44-2.31-.01-.15-.12-.3-.2-.49-.32.47-.5,2.33-.32,2.86ZM95.47,73.04c-.14.04-.19.04-.21.06-.62.84-1.37,1.62-1.23,2.81.03.22-.03.45-.05.67,0,.09,0,.18,0,.27.48-1.26.54-2.65,1.48-3.81ZM59.8,41.89c.63-.33,1.5-1.67,1.14-2.2-.79.53-.82,1.44-1.14,2.2ZM105.62,52.73s-.07-.05-.1-.07c-.53.37-1.06.74-1.59,1.11.18.56.49.66.85.22.32-.39.56-.84.84-1.26ZM104.42,114.19c.1.73.22,1.46.61,2.1.13.21.35.19.42-.04.05-.16.07-.38,0-.51-.32-.53-.68-1.04-1.02-1.55ZM101.25,105.58s.08-.06.12-.09c-.7-.98-1.18-2.12-2.21-2.85l-.1.07c.73.96,1.45,1.91,2.18,2.87ZM93.27,58.8c-.7-.49-1.45-.86-2.32-1.06,0,.44.24.63.58.71.58.13,1.16.24,1.74.35ZM90.51,90.74c.66,1.02,1.32,2.06,2.27,2.85-.56-1.1-1.42-1.97-2.27-2.85ZM94.59,90.84c.05,0,.1,0,.15.01.16-.24.33-.48.48-.73.03-.06.02-.21-.02-.24-.2-.13-.41-.25-.63-.32-.22-.07-.36.06-.3.29.09.34.21.66.32.99ZM84.75,89.89c-.48.59-.92,1.13-1.11,1.82-.01.05.12.21.14.2.22-.08.44-.13.51-.43.12-.5.29-1,.46-1.59ZM88.15,88.1s.06-.05.09-.07c-.66-.96-1.34-1.9-2.15-2.75-.04.03-.09.07-.13.1.73.91,1.46,1.81,2.19,2.72ZM102.85,96.46s.06.03.09.05c.48-.38.95-.76,1.43-1.14-.02-.05-.04-.09-.06-.14-.29.05-.67,0-.85.18-.28.28-.41.69-.61,1.05ZM39.32,90.25l-.13-.09c-.29.28-.59.54-.86.83-.14.15-.26.38-.04.52.08.05.38-.06.46-.18.22-.34.39-.72.57-1.08ZM68.49,66.45c-.49-.72-.94-1.48-1.69-1.98.36.83,1,1.43,1.69,1.98ZM54.46,71.72s0-.06,0-.09c-1.11-.28-2.24-.23-3.37-.18,0,.03,0,.06,0,.09,1.12.06,2.25.13,3.37.19ZM42.28,43.82s.1-.07.14-.11c-.4-.56-.8-1.11-1.23-1.72-.12.18-.23.28-.23.37,0,.13.11.37.14.36.39-.07.51.24.69.47.17.2.33.41.49.62ZM105.1,54.64s.07.08.1.13c.79-.3,1.37-.86,1.82-1.59-.64.49-1.28.97-1.91,1.46ZM94.48,72.72c.07-.05.09-.05.1-.07.01-.03.02-.07.03-.1.09-.55-.31-.9-.57-1.29-.07-.11-.27-.12-.41-.18.02.16.03.32.06.48,0,.05.08.09.13.12.41.22.71.51.66,1.05ZM103.36,89.75c.1-.35,0-.53-.2-.67-.27-.19-.72-.19-1.03,0,.42.22.81.43,1.23.66ZM55.63,37.69c-.05-.47-.38-.75-.97-.82.2.49.61.84.97.82ZM48.25,46c-.29-.84-.66-1.39-.93-1.4.07.45.58,1.24.93,1.4ZM51.2,46.16s.08-.02.11-.03c-.07-.76-.14-1.51-.37-2.24-.04,0-.08.01-.12.02.13.75.25,1.5.38,2.25ZM103.85,53.13c.03.05.06.1.1.15.55-.1.88-.5,1.23-.87-.03-.04-.05-.07-.08-.11-.42.28-.84.55-1.25.83ZM59.32,49.5c.54.46,1.31.6,1.71.33-.56-.11-1.08-.21-1.71-.33ZM97.03,74.25c-.13-.93-.16-1.02-.44-1.27,0,.18.06.38,0,.54-.12.4.1.55.43.73ZM88.37,81.33c.18-.08.29-.12.4-.17-.12-.15-.21-.34-.37-.45-.08-.05-.26.05-.4.08.11.16.22.33.36.54ZM50.3,37.84s.06.08.09.11c.41-.31.82-.61,1.23-.92-.54.12-1.05.3-1.32.8ZM34.74,45.48c.62-.28.88-.85.51-1.12-.16.36-.32.7-.51,1.12ZM94.99,72.56c.45-.26.51-.68.23-1.34-.09.51-.16.93-.23,1.34ZM103.85,63.41c-.23-.35-.4-.64-.6-.92-.05-.07-.19-.08-.29-.12-.02.03-.04.06-.06.1.19.41.46.75.95.94ZM68.54,64.94l-.11.08c.12.44.39.77.75,1.04.03-.02.06-.04.09-.06-.24-.35-.48-.71-.73-1.06ZM92.17,93.8l.07-.16c-.15-.18-.29-.35-.44-.53-.05.02-.1.04-.15.06.02.17,0,.37.08.49.07.1.28.1.43.14ZM50.13,39.05c.18.08.29.13.41.18.08-.27.14-.5.2-.73l-.1-.07c-.16.19-.32.38-.51.62ZM97.62,64.2c.37-.02.61-.2.69-.52-.44.01-.61.13-.69.52ZM44.14,44.5c.01-.05.03-.11.04-.16l-1.23-.29s-.02.08-.03.12c.41.11.81.22,1.22.33ZM49.61,42.72c.19.44.5.58.86.41-.18-.1-.34-.19-.51-.27-.09-.05-.19-.08-.35-.13ZM88.85,80.59s.08-.04.11-.06c.01-.44-.07-.57-.48-.63.14.26.26.48.37.69ZM95.56,97.44s.07-.05.1-.07c-.19-.28-.39-.56-.58-.84-.04.03-.07.05-.11.08.2.28.39.56.59.83ZM80.8,79.28s.04-.08.07-.12c-.25-.14-.5-.27-.75-.41-.02.04-.04.08-.06.13.25.13.5.27.75.4ZM103.08,110.78s-.08.03-.12.05c.12.29.24.58.37.86.04-.02.08-.03.12-.05-.12-.29-.24-.58-.37-.86ZM67.67,64.54c-.06-.25-.1-.43-.15-.6,0,0-.12.02-.18.02.04.16.09.32.14.48,0,.02.06.03.2.1Z" fill="#000" stroke-width="0"/><path d="M101.48,57.61l-.13.36c-.4-.04-.64-.35-.74-.92-.09-.54.04-.96.36-1.11.08-.04.18-.04.27-.06.26-.06.53-.1.78-.2.2-.09.33-.09.45.1.15.23.31.45.44.69.14.27.2.51-.18.7-.13.07-.13.39-.2.58-.04.1-.11.24-.2.26-.18.04-.38.02-.58.02.05-.12.08-.27.16-.35.2-.18.36-.68.24-.91-.04-.08-.15-.17-.24-.17-.17,0-.36,0-.52.07-.43.17-.47.52-.11.82.05.04.12.08.19.12Z" fill="#000" stroke-width="0"/><path d="M48.34,85.17c0-.12-.04-.24-.02-.36.15-1.25.3-2.5.48-3.75.07-.49.22-.97.35-1.49-.03,0-.13-.01-.22.02-.08.03-.14.13-.23.17-.13.06-.27.08-.4.12.07-.11.12-.25.21-.34.16-.16.34-.29.59-.49-.46-.06-.82-.1-1.29-.16.15-.11.21-.18.27-.18.38-.03.76-.05,1.14-.05.2,0,.44.44.33.7-.64,1.45-.51,3.01-.7,4.53-.06.45-.21.88-.32,1.33-.06,0-.12-.02-.18-.02Z" fill="#000" stroke-width="0"/><path d="M98.1,53.77c-2.48,1.27-2.98,3.38-2.55,5.9-.04,0-.07,0-.11,0-.07-.12-.14-.22-.19-.35-.31-.78-.35-1.56-.09-2.37.35-1.1.81-2.11,1.73-2.86.46-.37.78-.47,1.21-.32Z" fill="#000" stroke-width="0"/><path d="M95.93,60.96c.14-.03.21-.05.28-.06-.16-.27-.31-.53-.45-.78.04-.03.08-.07.12-.1.19.17.38.34.57.51.02,0,.04-.02.07-.03-.15-.59-.3-1.18-.44-1.76-.05-.21-.12-.41-.14-.62,0-.1.07-.21.14-.4.21.57.39,1.04.56,1.51.02.05,0,.15-.02.16-.31.13-.15.35-.09.54.09.31.18.62.28.92.07.21.14.43-.14.54-.25.1-.47.02-.6-.23-.03-.05-.06-.1-.12-.2Z" fill="#000" stroke-width="0"/><path d="M91.92,97.23c-.66.08-1.28.16-1.91.22-.07,0-.19-.11-.22-.19-.02-.05.08-.2.15-.21.21-.04.42-.02.63-.05.32-.04.64-.11.96-.15.29-.04.43.08.39.38Z" fill="#000" stroke-width="0"/><path d="M45.06,78.74c.67-.03,1.34-.07,2.01-.09.19,0,.39.05.58.07,0,.04,0,.09,0,.13-.28.02-.57.02-.85.05-.55.06-1.09.13-1.64.2-.06,0-.12.05-.17.04-.08-.02-.15-.07-.22-.12.04-.06.08-.13.13-.18.05-.05.12-.07.18-.11,0,0-.02,0-.02,0Z" fill="#000" stroke-width="0"/><path d="M97.78,56.12c-.61.65-.98,1.39-.87,2.32-.37-.28-.37-.73-.05-1.44.18-.4.36-.84.92-.88Z" fill="#000" stroke-width="0"/><path d="M88.68,97.85c-.26.1-.52.19-.78.31-.26.11-.51.25-.78.38-.2-.21-.19-.37.06-.54.46-.3.92-.46,1.49-.15Z" fill="#000" stroke-width="0"/><path d="M105.09,62.51c.86.08,1.65.16,2.44.24-.58.35-1.78.26-2.44-.24Z" fill="#000" stroke-width="0"/><path d="M97.11,55.48c-.34.53-.67,1.07-1.02,1.62-.23-.18-.09-.39,0-.56.22-.47.45-.95,1.03-1.06Z" fill="#000" stroke-width="0"/><path d="M38.72,81.96c.09.25.17.42.21.6.08.33-.24.3-.39.4-.07.05-.2.01-.3.01,0-.18-.06-.38.01-.52.08-.17.27-.29.47-.49Z" fill="#000" stroke-width="0"/><path d="M98.85,54.36c-.31.38-.75.5-1.19.66.04-.41.61-.73,1.19-.66Z" fill="#000" stroke-width="0"/><path d="M114.43,87.32c.18.19.17.34,0,.47-.1.08-.2.17-.32.23-.07.03-.16,0-.24.01,0-.1-.03-.23.02-.28.17-.16.36-.29.55-.43Z" fill="#000" stroke-width="0"/><path d="M32.79,51.16c.04-.17.04-.37.13-.5.13-.17.32-.32.61-.13-.21.24-.41.46-.6.68-.05-.02-.1-.03-.14-.05Z" fill="#000" stroke-width="0"/><path d="M115.49,86.84c-.2.14-.37.27-.56.38-.03.02-.14,0-.15-.03-.02-.05-.03-.15,0-.19.13-.15.27-.29.43-.42.04-.04.17-.03.22.01.05.04.04.14.07.24Z" fill="#000" stroke-width="0"/><path d="M88.68,97.35c.19-.06.32-.12.46-.13.12,0,.25.02.36.07.03.01.02.23,0,.24-.15.06-.31.11-.46.09-.11-.01-.2-.15-.35-.27Z" fill="#000" stroke-width="0"/><path d="M113.57,87.99c0,.21.06.39,0,.44-.14.12-.33.24-.51.26-.14.02-.22-.14-.06-.27.15-.13.32-.24.57-.43Z" fill="#000" stroke-width="0"/><path d="M98.62,60.81c-.2-.12-.41-.2-.4-.24.05-.22.15-.44.23-.66.06.01.11.02.17.03,0,.25,0,.49,0,.86Z" fill="#000" stroke-width="0"/><path d="M98.55,57.61l-.48,1.28c-.07-.3.19-1.13.48-1.28Z" fill="#000" stroke-width="0"/><path d="M33.49,50.04c.13-.1.27-.21.41-.32.16.17.28.34.07.48-.11.07-.3.01-.46,0,0-.06-.01-.11-.02-.17Z" fill="#000" stroke-width="0"/><path d="M39.44,83.37c-.17.04-.33.09-.5.11-.05,0-.14-.05-.15-.1-.01-.04.05-.15.09-.15.18-.02.37-.01.55-.02,0,.05,0,.11.01.16Z" fill="#000" stroke-width="0"/><path d="M33.85,50.93c.13-.07.25-.16.38-.2.05-.02.13.06.19.09-.04.06-.07.16-.12.17-.14.03-.29.02-.43.03,0-.03-.01-.05-.02-.08Z" fill="#000" stroke-width="0"/><path d="M41.26,81.93l.63-.14c.01.07.02.13.03.2-.21.03-.42.05-.64.08,0-.04-.01-.09-.02-.13Z" fill="#000" stroke-width="0"/><path d="M98.66,61.88c.11-.18.22-.36.34-.54.04.02.08.05.13.07-.11.18-.21.36-.32.55-.05-.03-.09-.06-.14-.08Z" fill="#000" stroke-width="0"/><path d="M58.16,59.43c0,.51,0,.99.01,1.46-.04,0-.09,0-.13.01-.31-.25-.22-.62-.21-.96,0-.19-.04-.45.34-.51Z" fill="#000" stroke-width="0"/><path d="M58.98,60.37c.09.39.17.7.23,1.02.01.06-.07.15-.11.22-.06-.05-.14-.08-.18-.14-.23-.37-.23-.76.06-1.11Z" fill="#000" stroke-width="0"/><path d="M98.94,89.49c.12.14.17.19.2.25.22.39.45.78.65,1.18.05.11.02.26.03.39-.1-.08-.23-.13-.29-.23-.23-.41-.45-.83-.65-1.26-.03-.06.03-.17.06-.33Z" fill="#000" stroke-width="0"/><path d="M99,88.42c.02.17.04.35.07.52-.06,0-.13.02-.19.02-.02-.17-.04-.35-.06-.52.06,0,.12-.02.19-.02Z" fill="#000" stroke-width="0"/><path d="M53.43,50.78c-.4.86-.89,1.01-1.66.47-.91-.64-1.1-1.67-.45-2.49.15-.2.3-.22.52-.12.3.13.62.19.92.32.12.05.23.19.3.31.15.28.29.57.38.87.05.19,0,.42,0,.63Z" fill="#000" stroke-width="0"/><path d="M45.58,49.84c-.19.26-.36.54-.58.77-.63.66-.96,1.41-.97,2.34-.01.66-.13,1.32.21,1.95-.04.02-.07.04-.11.06-.13-.11-.26-.22-.39-.34,0,.01,0,.03,0,.04-.1-.04-.27-.05-.29-.12-.22-.57-.32-1.16-.19-1.78,0-.03.04-.05.1-.11.36.5.07,1.1.35,1.62.01-.11.02-.23.03-.34.07-.72.06-1.46.22-2.15.18-.78.74-1.36,1.34-1.88.07-.06.16-.08.24-.12.02.02.04.04.07.06Z" fill="#000" stroke-width="0"/><path d="M45.5,53.72c-.05-.07-.12-.12-.11-.16.02-.79-.19-1.63.34-2.34.13-.18.31-.32.47-.48.03.03.07.06.1.08-.22.39-.44.78-.68,1.22.15-.01.24-.02.32-.03-.14.57-.28,1.12-.42,1.71Z" fill="#000" stroke-width="0"/><path d="M46.57,48.63c.38-.38.83-.63,1.38-.76-.09.35-.81.75-1.38.76Z" fill="#000" stroke-width="0"/><path d="M45.07,49.37c-.27.37-.52.72-.82,1.13-.06-.62.32-1.12.82-1.13Z" fill="#000" stroke-width="0"/><path d="M46.85,52.52l-.48,1.28s-.07-.02-.1-.04c0-.48.13-.92.46-1.29.04.01.08.03.13.04Z" fill="#000" stroke-width="0"/><path d="M44.01,51.04c-.09.3-.18.59-.29.95-.27-.35-.2-.61.19-.98.04.01.07.02.11.04Z" fill="#000" stroke-width="0"/><path d="M47.78,54.52c-.29-.41-.21-.68.18-.73-.06.25-.12.49-.18.73Z" fill="#000" stroke-width="0"/><path d="M49.55,61.78c-.49.07-.82,0-1.07-.39,0,.1-.02.21-.02.31-.29.13-.34-.06-.37-.32.24-.04.48-.07.75-.11-.07.56.46.24.71.51Z" fill="#000" stroke-width="0"/><path d="M47.92,61.75c-.27.08-.52.11-.62-.24.47-.17.56-.14.62.24Z" fill="#000" stroke-width="0"/><path d="M61.56,53.51s-.07.06-.11.08c-.94.5-1.65,1.23-2.19,2.14-.05.09-.18.14-.28.21,0-.13-.07-.29-.01-.38.52-.94,1.29-1.63,2.25-2.1.09-.04.21-.02.31-.02l.02.08Z" fill="#000" stroke-width="0"/><path d="M59.33,56.49c.12-.27.21-.56.37-.81.18-.29.41-.54.64-.8.04-.04.15-.02.22-.01.01,0,.04.12.01.15-.34.5-.68.99-1.03,1.48-.02.03-.05.05-.08.07-.04-.03-.09-.06-.13-.09Z" fill="#000" stroke-width="0"/><path d="M62.21,53.22c.43-.08.85-.19,1.28-.24.14-.01.29.13.44.2-.13.08-.25.22-.39.24-.37.04-.75.03-1.13.03-.08,0-.15-.07-.23-.11.01-.04.02-.08.03-.12Z" fill="#000" stroke-width="0"/><path d="M96.22,69.33c-.09-.94,1.66-2.44,2.36-2.13-.43.3-.9.57-1.29.92-.38.34-.68.77-1.07,1.21Z" fill="#000" stroke-width="0"/><path d="M98.55,67.87c-.53.48-1.02.92-1.56,1.41.09-.66.92-1.39,1.56-1.41Z" fill="#000" stroke-width="0"/><path d="M97.53,70.05c-.15.6-.27,1.1-.4,1.64-.35-.36-.17-1.19.4-1.64Z" fill="#000" stroke-width="0"/><path d="M97.76,71.63c.08.4.15.78.23,1.19-.47-.25-.56-.79-.23-1.19Z" fill="#000" stroke-width="0"/><path d="M96.36,70.08c-.09.39-.17.71-.25,1.07-.33-.34-.23-.79.25-1.07Z" fill="#000" stroke-width="0"/><path d="M98.38,69.37c-.09.35-.18.7-.27,1.05-.03,0-.06-.01-.09-.02-.01-.38,0-.74.24-1.06.04,0,.08.02.12.03Z" fill="#000" stroke-width="0"/><path d="M98.42,70.88c-.06.34-.11.63-.18.97-.2-.39-.15-.66.18-.97Z" fill="#000" stroke-width="0"/><path d="M99.33,67.04c.35-.37.56-.39.76-.09-.24.03-.45.05-.76.09Z" fill="#000" stroke-width="0"/><path d="M44.04,36.18c-.71.5-1.61.68-2.2,1.4-.57.71-.9,1.48-.9,2.41-.27-.24-.34-.58-.26-.97.14-.76.52-1.4,1.12-1.85.52-.4,1.12-.7,1.7-1.02.14-.08.33-.05.5-.07.01.03.02.07.03.1Z" fill="#000" stroke-width="0"/><path d="M47.13,43.14c.33-.42.63-.8.96-1.22.07.56-.42,1.17-.96,1.22Z" fill="#000" stroke-width="0"/><path d="M41.7,38.77c0-.42.22-.61.57-.84-.1.39-.19.67-.57.84Z" fill="#000" stroke-width="0"/><path d="M85.91,78.14c.25.36.47.68.69,1,.03-.01.06-.03.08-.04-.02-.15-.04-.31-.07-.57.21.18.34.29.5.43.02-.36.03-.7.05-1.04.05,0,.1,0,.15,0,.05.38.1.77.15,1.16-.34.37-.8.42-1.21.2-.4-.21-.52-.74-.35-1.13Z" fill="#000" stroke-width="0"/><path d="M85.3,75.32c.02.06.08.15.06.19-.36.67-.28,1.44-.37,2.21-.55-.48-.28-2.17.32-2.4Z" fill="#000" stroke-width="0"/><path d="M86.41,78.08c-.44-.27-.44-1.02,0-1.41,0,.5,0,.93,0,1.41Z" fill="#000" stroke-width="0"/><path d="M92.47,78.31c.13-.07.22-.12.31-.17.03.2.09.4.08.6,0,.09-.19.16-.29.23-.03-.21-.06-.42-.1-.67Z" fill="#000" stroke-width="0"/><path d="M86.76,75.5l-.28.73c-.22-.25-.12-.6.28-.73Z" fill="#000" stroke-width="0"/><path d="M85.81,69.32c-.01.23-.02.47-.03.7-.05,0-.09,0-.14,0-.13-.24-.1-.47.04-.71.04,0,.08,0,.13,0Z" fill="#000" stroke-width="0"/><path d="M37.24,44.22c-.22.34-.49.67-.66,1.04-.22.47-.36.97-.55,1.45-.04.1-.13.18-.2.27-.05-.11-.15-.22-.14-.32.15-.88.51-1.68,1.13-2.34.09-.09.23-.13.35-.2.02.03.05.06.07.09Z" fill="#000" stroke-width="0"/><path d="M37.28,45.32c-.16.42-.33.75-.7.96-.06-.41.27-.88.7-.96Z" fill="#000" stroke-width="0"/><path d="M63.01,48.55c-.23.4-.87.57-1.41.4.53-.15.97-.28,1.41-.4Z" fill="#000" stroke-width="0"/><path d="M63.89,48.8c-.15.52-.54.73-1.07.64.36-.21.67-.4,1.07-.64Z" fill="#000" stroke-width="0"/><path d="M92.38,62.66c.16,0,.32,0,.48.01-.21.43-1.2.66-1.53.36-.07-.06-.13-.16-.13-.24,0-.35-.02-.71.03-1.06.05-.33.59-.4.92-.16.14.1.33.16.5.18.15.02.33-.05.34.19,0,.21,0,.41-.28.45-.13.02-.25.09-.37.14l.04.12Z" fill="#000" stroke-width="0"/><path d="M94.57,61.07c-.1.05-.2.1-.35.17-.05-.17-.15-.32-.13-.45.03-.15.13-.35.25-.4.12-.05.36,0,.46.1.27.28.28.79.03,1.09-.09.1-.29.11-.44.16.03-.14.05-.29.09-.42.02-.07.09-.13.13-.19-.02-.02-.03-.03-.05-.05Z" fill="#000" stroke-width="0"/><path d="M89.27,62.42c.04.51.07.94.1,1.36-.46-.31-.49-.84-.1-1.36Z" fill="#000" stroke-width="0"/><path d="M50.53,41.06c.01-.26.02-.53.05-.79,0-.07.12-.12.19-.17.05.08.16.18.14.25-.07.25-.17.49-.27.74-.04,0-.08,0-.12-.01Z" fill="#000" stroke-width="0"/><path d="M97.06,81.22c.4-.3.79-.28,1.21-.14-.29.24-.84.31-1.21.14Z" fill="#000" stroke-width="0"/></svg>