<?xml version="1.0" encoding="UTF-8"?><svg id="Layer_1" xmlns="http://www.w3.org/2000/svg" viewBox="0 0 144.57 144.57"><path d="M65.76,86.08c.07-.26.13-.48.19-.73q-.52.41-.19.73h0ZM66.13,85.37c-.07.32-.15.64-.22.96-.02.09.07.17.15.19.13.02.07-.1.09-.16.1-.32.07-.65-.03-.99h0ZM97.71,61.92c.05-.21.09-.37.13-.54.02-.08.06-.22-.08-.18-.18.05-.37-.08-.54.03-.02.01.02.1.04.15.08.21.23.37.45.54h0ZM88.53,82.09c.17-.41.41-.77.63-1.13.07-.11.07-.17-.03-.23-.11-.07-.17-.04-.23.07-.19.32-.31.68-.41,1.03-.02.05-.08.18.04.26h0ZM89.64,80.55c.11,0,.23,0,.33-.03.1-.03.3-.02.24-.19-.04-.11-.14-.29-.35-.15-.16.1-.27-.01-.32-.16-.09-.24-.5-.37-.68-.21-.09.08-.19.19-.05.31.25.21.47.48.85.44h0ZM92.85,71.58c-.08.12-.25.24-.09.38.15.14.08.22-.03.32-.06.06-.14.12-.18.19-.1.18.21.1.17.25-.05.18-.31.01-.3.15.02.21.05.44.22.6.06.06.13.12.2.07.17-.12.29-.29.31-.51,0-.04-.02-.09-.02-.13-.03-.45-.18-.88-.27-1.32h0ZM97.9,81.54c.02-.19-.01-.3-.05-.42-.03-.08-.05-.19-.15-.2-.1-.02-.14.09-.19.16-.1.13-.2.26-.3.39-.35.41-.35.48,0,.86.06.07.14.17.24.14.12-.04.1-.15.07-.25-.02-.05-.02-.12.06-.13.35-.07.27-.38.33-.54h0ZM98.6,61.18c-.67.05-.58-.16-.69.58-.02.1-.16.24.04.31.16.06.33.07.43-.12.03-.06.07-.12.15-.11.31.04.51-.15.71-.33.05-.05.16-.08.12-.17-.04-.09-.11-.16-.23-.16-.15,0-.31,0-.52,0h0ZM48.98,76.17c.11-.02.18-.02.24-.04.42-.15.83-.3,1.28-.14l.09-.03c.07-.07-.01-.09-.04-.12-.28-.34-.55-.69-.83-1.02-.06-.07-.11-.19-.26-.19.24.63-.2,1.03-.47,1.54h0ZM85.64,73.12c-.17.08-.39.04-.47.27-.02.06-.16.05-.17.01-.1-.21-.27-.08-.41-.12-.24-.07-.43.2-.69.06-.06-.03-.27.1-.15.29.11.19.27.36.49.38.2.02.42-.07.58.15-.07-.23-.17-.4.22-.36.33.04.65-.24.59-.69h0ZM96.82,64.92c.26-.22.6-.38.73-.65.25-.52.4-1.09.56-1.64.08-.26-.08-.38-.33-.29-.11.04-.13.15-.15.24-.11.67-.44,1.25-.73,1.85-.07.15-.16.29-.08.5h0ZM86.73,88.95c.09-.01.18.03.27-.06.25-.26.43-.55.5-.9.09-.43-.26-.78-.69-.72-.08.01-.61.6-.6.67,0,.03.02.06.04.07.22.09.14.26.12.42-.06.45-.02.5.35.51h0ZM44.19,71.67c.78-.31,1.63-.27,2.45-.55-.41-.43-.79-.83-1.18-1.24-.14-.14-.2-.03-.28.07-.43.51-.61,1.16-.99,1.71h0ZM70.95,124.3c-.48.01-.78.33-1.15.48-.09.04-.01.12.05.17.18.16.35.33.51.51.28.33.58.64,1.05.67.36.03.66-.07.88-.36.19-.25-.04-.44-.14-.62-.27-.48-.67-.8-1.19-.87h0ZM69.35,106.79c-.18.12-.33.26-.34.53,0,.28-.06.56-.13.85-.11.4-.31.79-.24,1.24.06.41.03.83.17,1.24.05.14.12.27.24.35.14.09.38.14.41-.06.12-.65.37-1.27.37-1.93,0-.1.03-.26-.09-.28-.16-.02-.12.15-.13.25,0,.07,0,.15-.03.19-.07.1-.07.33-.21.29-.17-.05-.08-.22-.04-.36.23-.76.45-1.52.01-2.29h0ZM60.17,83.21c-.11.31-.4.37-.54.58-.3.43-.51.9-.68,1.4-.11.34-.15.68-.16,1.02,0,.38.17.48.49.29.59-.35,1.1-.81,1.65-1.21.09-.06.08-.09.05-.18-.24-.62-.46-1.25-.81-1.91h0ZM78.58,63.97s-.03-.07-.05-.08c-.88-.52-1.81-.97-2.56-1.69-.13-.13-.23-.1-.31.11-.22.6-.43,1.2-.68,1.79-.1.24-.27.46-.28.76,1.22-.67,2.43-1.23,3.88-.88h0ZM65.14,90.57c.02-.16-.05-.21-.12-.26-.19-.14-.37-.27-.55-.42-.14-.11-.22-.19-.25.08-.03.27-.13.54-.28.77-.47.75-.95,1.5-1.19,2.37-.03.11-.1.22-.03.31.09.12.2.02.3-.02.14-.05.3-.09.42-.18.71-.55,1.23-1.25,1.52-2.11.07-.2.14-.39.19-.54h0ZM56.25,68.92c-.83.56-1.5,1.19-2,1.99-.28.44-.51.91-.77,1.37-.33.6-.77,1.14-1.07,1.76-.19.39-.46.75-.48,1.21,0,.11-.1.28.06.31.16.03.37.01.44-.2.09-.26.25-.49.36-.74.37-.8.81-1.57,1.27-2.33.68-1.13,1.49-2.18,2.18-3.38h0ZM86.52,29.56c0,.81,0,1.63,0,2.44,0,1.12.2,2.21.58,3.26.18.49.57.71,1.11.68.21,0,.22-.07.12-.24-.16-.28-.3-.57-.45-.85-.58-1.07-.66-2.26-.8-3.44-.08-.65-.21-1.29-.56-1.87h0ZM63.33,77.78c.5.71.89,1.37,1.42,1.94.71.77,1.2,1.73,1.97,2.47.34.32.64.68,1,.97.05.04.1.11.17.07.06-.04.06-.11.04-.18-.03-.18-.09-.36-.16-.53-.29-.67-.76-1.21-1.22-1.77-.63-.77-1.21-1.59-2.04-2.17-.36-.25-.7-.56-1.19-.79h0ZM55.24,82.54c-.49-1.02-1.07-1.9-1.79-2.75-.38,1.05-.83,2.03-1.28,3.06,1.02-.23,2.03-.29,3.07-.31h0ZM51.02,89.69c.43,0,.87,0,1.3,0,1.39-.03,2.69-.5,3.98-.93.44-.14.87-.45.97-1.01-.23-.05-.44,0-.65.09-.32.13-.65.25-.98.37-.76.27-1.58.23-2.36.42-.82.2-1.57.52-2.26,1.05h0ZM56.61,87.67c-.91-.19-1.72-.51-2.6-.38-.73.1-1.46.26-2.05.74-.39.32-.67.75-1.05,1.09-.2.18-.42.36-.6.65.37-.19.69-.33.99-.51.82-.48,1.71-.78,2.63-.89.9-.11,1.78-.26,2.68-.69h0ZM62.17,93.7c.2-.08.43-.14.3-.43-.02-.05.02-.13.05-.19.31-.79.69-1.54,1.15-2.25.21-.33.31-.7.43-1.06.03-.1.07-.21-.04-.31-.23-.21-.44-.43-.67-.64-.07-.07-.15-.11-.21.01-.15.34-.39.62-.56.96-.32.65-.38,1.35-.49,2.04-.07.45-.03.92-.03,1.37,0,.16.24.29.07.5h0ZM67.01,60.18c1.7,1.79,3.64,3.24,5.93,4.18-.27-.56-.75-1-1.21-1.4-1.18-1.05-2.58-1.78-3.93-2.57-.22-.13-.47-.3-.79-.2h0ZM38.63,63.53c-1.62.14-3.19.48-4.57,1.41-.48.32-.98.63-1.25,1.17-.02.05-.09.08-.05.14.03.05.1.05.15.03.17-.08.38-.05.53-.11.66-.26,1.32-.54,2-.76.35-.12.71-.25,1.02-.45.74-.46,1.45-.95,2.18-1.43h0ZM66.28,109.11c-.06.35.04.68,0,1.01-.06.51.09.94.39,1.34.48.61,1.15,1.08,1.36,1.9.24-.31.53-.58.55-.96.02-.44.18-.91-.21-1.3-.43-.43-.83-.88-1.25-1.33-.25-.26-.5-.53-.85-.65h0ZM54.89,82.88c-.5.02-.95.03-1.39.05-1.07.05-1.91.6-2.68,1.22-.74.59-1.27,1.41-2.02,2.01.07,0,.13-.02.18-.05.81-.39,1.61-.81,2.43-1.17.92-.41,1.84-.81,2.68-1.37.28-.19.56-.37.81-.69h0ZM38.43,73.09c.03.1.09.14.16.13.33-.04.65-.02.98-.01.45,0,.88.02,1.34-.07.28-.05.6-.05.89-.13.63-.18,1.15-.58,1.68-.95.55-.38.76-1,1.05-1.57-.15.07-.28.14-.39.23-.48.41-1.05.66-1.66.82-.9.24-1.81.43-2.64.88-.46.25-.94.44-1.41.66h0ZM55.32,82.79c-2.12,1.92-4.88,2.51-7.16,3.95.09.07.2-.05.32-.05.56-.04,1.12.04,1.67-.19.32-.13.68-.17,1.01-.29.72-.26,1.48-.41,2.11-.89.47-.36.89-.77,1.27-1.22.3-.37.63-.73.79-1.3h0ZM71.45,68.59c-1.5-2.42-3.69-3.95-6.31-4.94.88.77,1.71,1.59,2.54,2.41.31.31.62.62.95.91.44.4,1.04.57,1.48.96.39.34.85.52,1.34.67h0ZM33.57,66.89c.94.09,1.73-.13,2.52-.36.36-.1.71-.24,1-.49.51-.45,1.01-.92,1.45-1.45.21-.26.37-.54.47-.86.02-.06.07-.12-.03-.17-.05-.02-.1-.02-.15.02-.31.22-.62.45-.94.65-.54.33-1.02.74-1.61,1.02-.69.33-1.43.49-2.12.81-.52.24-1.06.41-1.59.62-.09.03-.26-.1-.25.08.01.13.18.15.33.14.34-.01.68,0,.92,0h0ZM30.57,58.06c.02.13.13.13.2.15.85.31,1.6.82,2.37,1.28.46.28.91.58,1.39.81.3.15.56.33.81.53.61.47,1.26.9,1.89,1.34.13.09.25.12.32-.14.06-.25-.03-.4-.15-.56-.18-.26-.37-.51-.59-.74-.65-.68-1.36-1.27-2.2-1.7-1.27-.65-2.67-.79-4.06-.97h0ZM76.43,62.23c.78.67,1.62,1.04,2.4,1.52.64.4,1.34.62,2.09.63.62,0,1.22-.12,1.81-.31.53-.18,1.07-.31,1.57-.61-.18-.09-.34-.07-.51-.09-.68-.06-1.37-.09-2.04-.18-1.29-.17-2.56-.45-3.81-.79-.46-.12-.95-.19-1.52-.18h0ZM92.9,45.66c-.22-.18-.44-.07-.66-.1-.8-.13-1.59-.32-2.38-.52-1.34-.34-2.68-.69-4-1.09-.2-.06-.4-.18-.64-.15-.14.02-.19.06-.13.18.16.31.29.65.56.89.9.82,2.01,1.05,3.16,1.12.9.05,1.81-.03,2.7-.12.47-.05.93-.14,1.39-.21h0ZM79.84,49.99c.06-.19-.02-.34-.04-.5-.13-.9-.24-1.82-.62-2.65-.53-1.17-1.18-2.28-1.85-3.36-.35-.57-.76-1.11-1.26-1.57.07.32.14.63.3.92.4.68.58,1.44.77,2.2.25,1,.55,1.98,1.17,2.83.42.58.91,1.12,1.26,1.75.08.14.1.31.28.4h0ZM69.1,90.99c.96.33,1.9.54,2.87.14.56-.23,1.26-1,1.84-2.22-.3.1-.58.19-.86.28-1.04.35-2.02.8-2.96,1.36-.12.07-.29.29-.39.1-.11-.21.2-.17.3-.23,1.06-.63,2.17-1.14,3.37-1.45.59-.15.96-.48,1.16-1.05-.07-.01-.13.02-.18.05-.76.46-1.58.75-2.48.79-.41.02-.81.06-1.17.29-.74.48-1.15,1.2-1.5,1.93h0ZM60.89,83.15c.2.19.4.37.6.56.38.36.84.68,1.13,1.1.75,1.08,1.72,1.96,2.54,2.97.24.29.6.46.81.77.3.42.72.68,1.17.99-1.34-3.96-3.47-5.68-6.27-6.38h0ZM73.3,65c-.24-.33-.57-.41-.85-.57-.77-.45-1.64-.71-2.36-1.29-.5-.4-1.01-.8-1.52-1.2-.5-.4-.98-.8-1.45-1.23-.15-.14-.35-.33-.33-.48.06-.3-.14-.24-.27-.28-.12-.03-.24-.05-.43-.09.49.82.79,1.66,1.24,2.42.36.6.7,1.23,1.34,1.6.48.28.99.47,1.49.7.82.38,1.66.61,2.57.45.17-.03.33-.11.57-.05h0ZM30.71,58.47c.26.26.39.58.47.92.07.3.17.61.38.82.93.95,1.97,1.73,3.25,2.18.82.29,1.58.19,2.42-.1-1.1-.53-1.98-1.31-2.96-1.92-.94-.59-1.91-1.13-2.86-1.69-.21-.12-.45-.16-.69-.21h0ZM84.86,63.1c-.71-.27-1.34-.61-1.93-1.04-.57-.42-1.24-.6-1.93-.61-.82-.01-1.65-.06-2.47-.13-.79-.07-1.56.08-2.29.38-.1.04-.23.12-.21.21.03.1.18.2.29.17.5-.12.96.06,1.43.15,1.57.31,3.11.78,4.72.86.69.03,1.38.19,2.08.17.11,0,.22-.01.32-.16h0ZM115.59,63.11c-.09-.08-.11-.12-.15-.14-.43-.22-.82-.52-1.17-.84-.35-.32-.73-.53-1.17-.64-.44-.12-.91-.17-1.3.18-.05.04-.09.05-.15.03-.24-.07-.32.04-.3.28.05.47.13.95.13,1.42,0,.7,0,1.38.31,2.03.07.15.08.23.25.07.49-.47.54-1.05.43-1.66-.01-.08-.09-.17.03-.22.08-.04.18-.03.23.06.21.33.55.52.83.78.43.39.96.35,1.51.29-.65-.33-.9-1.02-1.42-1.45-.07-.06-.11-.16-.17-.24-.04-.07-.09-.15-.03-.21.05-.06.14-.02.21.02.6.27,1.23.22,1.93.26h0ZM64.48,63.37c.01.13.06.2.12.27.71.8,1.14,1.77,1.6,2.71.37.74.77,1.43,1.46,1.91.23.16.44.36.67.52.54.37,1.1.65,1.81.57.47-.06.92-.2,1.39-.24.07,0,.18,0,.19-.09,0-.09-.09-.11-.16-.15-.26-.14-.59-.12-.84-.27-.93-.58-1.89-1.1-2.66-1.91-.81-.84-1.61-1.69-2.54-2.41-.19-.15-.49-.3-.52-.48-.06-.33-.3-.31-.51-.43h0ZM37.49,73.15c.15,0,.29.07.35-.03.13-.23.35-.24.56-.3.49-.16.99-.3,1.45-.55.41-.23.86-.37,1.3-.51.69-.22,1.42-.3,2.06-.67.68-.39,1.45-.66,1.79-1.46.03-.06.18-.09.06-.2-.09-.08-.14-.21-.32-.19-.72.09-1.43.2-2.14.36-.91.21-1.73.58-2.42,1.25-.5.48-1.05.93-1.63,1.32-.38.25-.77.51-1.05.98h0ZM84.9,43.57c.51.04.96.23,1.43.36.64.18,1.27.4,1.92.55.84.19,1.67.44,2.51.66.9.23,1.83.25,2.75.33.17.02.36.05.55-.08-.58-.25-1.11-.49-1.65-.71-.88-.36-1.79-.64-2.59-1.18-.61-.41-1.31-.61-2.01-.72-.77-.12-1.54.07-2.28.3-.23.07-.5.21-.63.51h0ZM109.05,51.91c-.11.58-.29,1.12-.6,1.59-.43.63-.68,1.32-.79,2.07-.05.33.07.62.38.72.43.14.85.11,1.28-.08.46-.21.8-.56,1.21-.82.57-.37,1.23-.56,1.89-.83-.62-.33-1.22-.53-1.83-.04-.16.13-.31.17-.5.17-.05,0-.1.06-.14-.01-.04-.08.01-.12.07-.16.33-.2.54-.52.81-.77.45-.42.44-1.02.63-1.54-.29.15-.57.31-.8.51-.46.4-.75.94-1.12,1.42-.12.16-.25.21-.45.17.71-1.32.71-1.92-.05-2.39h0ZM75.4,41.21c.05.38.07.66.12.94.09.64.19,1.28.09,1.93-.17.99.09,1.88.51,2.78.29.62.74,1.1,1.16,1.6.5.61,1.02,1.22,1.66,1.7.27.2.55.4.91.43.11,0,.19-.02.13-.14-.05-.09-.11-.32-.13-.27-.15.28-.15.01-.19-.04-.29-.47-.52-.97-.89-1.39-.65-.75-1.14-1.57-1.43-2.52-.18-.57-.36-1.15-.47-1.73-.19-.95-.93-1.72-.89-2.74,0-.03-.04-.07-.08-.1-.14-.12-.27-.25-.49-.44h0ZM52.63,75.41c.26-.06.47-.15.7-.2.83-.19,1.46-.71,1.95-1.37.52-.7.88-1.5,1.18-2.31.21-.58.45-1.15.49-1.77.03-.45.06-.91-.05-1.37-.28.18-.44.38-.59.65-.37.67-.75,1.33-1.2,1.95-.82,1.15-1.51,2.37-2.15,3.63-.12.24-.34.46-.33.79h0ZM85.64,38.89c-.01-.21-.11-.34-.13-.51-.14-1.05-.29-2.09-.46-3.14-.13-.84-.25-1.68-.67-2.44-.16-.29-.33-.57-.38-.91,0-.05-.12-.11,0-.16.08-.03.11.05.13.11.23.71.72,1.3.85,2.06.17,1.04.35,2.08.48,3.13.08.62.08,1.26.33,1.85.03.06.02.13.11.12.08,0,.08-.06.1-.11.51-1.15.47-2.31,0-3.44-.4-.95-.82-1.9-1.14-2.88-.21-.67-.66-1.19-1.14-1.79.06.46.19.82.16,1.2-.04.66-.06,1.33-.01,2,.09,1.25.14,2.51.83,3.62.28.44.4.99.95,1.29h0ZM62.2,77.13c.16.27.35.47.42.71.24.92.69,1.77.97,2.68.08.25.11.51.23.75.54,1.08,1.22,2,2.38,2.49.5.21.99.48,1.56.34.11-.02.31.01.3-.1-.02-.15,0-.34-.18-.46-.4-.27-.72-.64-1.07-.98-.72-.71-1.24-1.57-1.87-2.34-.52-.64-1.02-1.28-1.48-1.96-.3-.45-.6-.96-1.26-1.13h0ZM75.7,83.21c-.16-.06-.26-.05-.37-.03-.43.1-.87.1-1.31.03-.91-.15-1.82-.19-2.73-.02-.57.11-1.04.36-1.27.93-.03.08-.07.17-.17.18-.07,0-.1.03-.1.1,0,.08.06.12.13.13.35.06.61.29.9.46.4.24.8.53,1.28.58.65.07,1.28-.08,1.83-.41.88-.53,1.79-1.03,2.56-1.73.06-.06.13-.11.21-.16.08-.05.15-.1.2-.23-.45.14-.88.06-1.29.37-.35.27-.89.27-1.36.31-.86.07-1.7.2-2.55.31-.44.06-.87.11-1.31.16-.08,0-.17-.02-.17-.1,0-.05.08-.09.16-.09,1.43-.06,2.84-.36,4.27-.48.35-.03.75-.02,1.1-.33h0ZM90.28,79.95c.12-.4.34-.61.73-.69.47-.09.92-.26,1.3-.59.38-.33.72-.71.99-1.12.28-.44.34-.95.08-1.45-.32-.62-.93-.68-1.53-.74-.63-.06-1.27.41-1.37,1.02-.06.33-.15.66-.25.97-.15.48-.26,1-.72,1.33-.26.18-.26.37-.06.63.21.28.55.4.83.63h0ZM92.28,20.95c-.12.21-.09.33-.09.44,0,1.02-.11,2.03-.22,3.03-.07.66-.04,1.27.26,1.88.4.8,1.09,1.31,1.74,1.86.16.14.32.06.35-.17.08-.62.2-1.23.21-1.86,0-.58-.09-1.15-.21-1.7-.26-1.21-.65-2.35-1.73-3.17.54,2.25,1.02,4.47,1.36,6.71-.3-1.16-.6-2.31-.79-3.49-.19-1.18-.56-2.31-.87-3.55h0ZM101.42,21.61c-.34.16-.71.18-1.01.33-.81.41-1.58.9-2.28,1.49-.72.6-1.29,1.36-1.82,2.13-.26.38-.36.81-.38,1.26,0,.06-.06.16.05.2.1.04.12-.06.17-.12.16-.21.32-.42.49-.61.93-1.03,1.92-2,2.91-2.98.19-.19.39-.36.59-.54-1.31,1.54-2.88,2.84-4.05,4.44,2.24-.45,4.98-2.73,5.34-5.6h0ZM59.87,93.56c-.66-.17-1.32-.27-1.99-.23-.41.02-.82.02-1.22.06-.6.07-1.21.12-1.75.43-.7.4-1.34.88-1.83,1.54-.12.16-.29.28-.35.48.13.07.21-.04.3-.03.88.12,1.77.11,2.66.17,1.31.08,2.47-.3,3.43-1.19.3-.28.56-.62.87-.9.09-.09.16-.21.19-.37-.06.01-.11.01-.12.03-.24.5-.69.71-1.18.8-.87.17-1.74.34-2.6.55-.98.24-1.96.47-2.94.72-.07.02-.18.05-.21-.03-.04-.12.08-.13.16-.16.28-.12.59-.09.87-.16.67-.16,1.34-.36,2.01-.53.86-.22,1.75-.32,2.62-.51.43-.09.86-.23,1.07-.69h0ZM61.81,92.89c.07-.56.11-1.1.17-1.63.11-.9.36-1.73.93-2.44.16-.2.12-.35-.06-.49-.81-.64-1.25-1.51-1.57-2.45-.11-.32-.25-.32-.48-.18-.06.03-.11.07-.17.1-.58.39-1.04.95-1.72,1.2-.14.05-.13.11-.06.22.16.23.36.45.47.7.37.84.89,1.6,1.29,2.43.4.83.72,1.7,1.19,2.54h0ZM60.33,83.01c.12.2.24.35.3.52.25.83.64,1.61.93,2.43.26.76.62,1.47,1.26,2,.2.16.44.3.59.49.27.34.44.77.96.81l.05.03c-.03.42.4.44.58.67.06.08.44.37.6.43.53.19,1.06.33,1.63.19.08-.02.23-.05.2-.13-.09-.24,0-.57-.29-.71-.92-.46-1.58-1.24-2.23-1.98-.79-.91-1.64-1.77-2.35-2.76-.48-.68-1.2-1.17-1.8-1.75-.11-.11-.2-.26-.43-.26h0ZM59.1,71.76c-.37.3-.71.48-.84.92-.11.42-.51.68-.73,1.05-.84,1.42-1.67,2.84-2.51,4.26-.05.08-.09.27-.21.2-.12-.07-.03-.22.05-.32.03-.04.05-.07.07-.11.44-.71.86-1.43,1.31-2.14.52-.82.91-1.73,1.54-2.48.19-.22.34-.46.56-.76-.29.11-.48.22-.65.35-.72.54-1.29,1.21-1.88,1.88-1.04,1.18-1.63,2.53-1.62,4.12.6-.26,1.2-.54,1.82-.79.3-.12.56-.29.78-.53.84-.92,1.36-2.02,1.78-3.17.29-.78.44-1.59.52-2.48h0ZM81.22,69.59c-.47-.18-.97-.26-1.32-.53-.73-.56-1.52-.53-2.35-.45-.74.07-1.47.19-2.21.17-.45,0-.9-.05-1.34.05-.17.04-.48.07-.48.2,0,.21.27.18.46.2h.03c.98.43,2.03.73,3.08.73,1.11,0,2.23.22,3.34.04-.02.1-.11.12-.18.12-2.27.08-4.52,0-6.7-.76.53.8,1.25,1.29,2.12,1.59.53.18,1.07.1,1.61.15.51.05.99,0,1.49-.13.94-.24,1.69-.76,2.45-1.39h0ZM42.45,63.45c.06.52.06,1.03.18,1.52.05.2.12.23.29.11.54-.39,1.08-.78,1.52-1.28.43-.49.75-1.05.89-1.7.15-.7.19-1.41.12-2.12-.09-.81-.27-1.6-.67-2.33-.1-.18-.17-.22-.32-.03-.37.47-.61,1.02-.86,1.54-.37.77-.58,1.61-.78,2.44-.15.62-.25,1.25-.36,1.85h0ZM95.69,41.68c-.19-.15-.39-.18-.57-.24-.77-.25-1.38-.78-2.08-1.16-.79-.43-1.58-.82-2.45-1.06-1.03-.28-2.05-.21-3.06.12-.11.04-.27.13-.21.23.16.32.31.68.55.92.46.45,1.01.8,1.62,1.04.65.26,1.32.39,2,.52,1.04.19,2.06.11,3.08-.15-.31-.12-.61-.23-.93-.31-.56-.14-1.06-.42-1.6-.58-1.17-.33-2.35-.61-3.55-.87-.29-.06-.57-.15-.82-.32-.08-.05-.16-.12-.11-.2.04-.07.13-.02.2.03.11.08.23.16.36.21.63.23,1.29.32,1.94.47.82.19,1.64.37,2.43.65.66.23,1.32.47,1.97.72.41.16.79.14,1.22-.02h0ZM80.99,34.07c.14.49.07.9.07,1.32,0,.62-.02,1.24-.21,1.85-.17.54-.24,1.13-.02,1.68.54,1.36,1.19,2.66,2.28,3.69.18.17.37.29.64.32-.03-.14.04-.26-.03-.39-.24-.46-.41-.97-.69-1.4-.7-1.09-.9-2.34-1.16-3.57-.17-.81-.1-1.66-.46-2.44-.02-.04,0-.09.05-.11.21.23.3.58.36,1.06.19,1.67.39,3.33,1.26,4.82.27.46.54.92.71,1.44.14-.51.12-1.02,0-1.51-.18-.78-.45-1.55-.56-2.34-.23-1.71-1.06-3.09-2.23-4.42h0ZM89.27,23.9c-.02.06-.05.09-.05.12-.03.77-.26,1.51-.4,2.27-.1.56-.18,1.09-.11,1.65.16,1.38.75,2.56,1.68,3.59.16.17.34.27.55.34.15.05.22.04.26-.16.09-.41.03-.82.13-1.24.19-.78.17-1.57.05-2.36-.15-.96-.48-1.87-.88-2.75-.27-.58-.63-1.11-1.23-1.47h0ZM98.91,35.44c-.1-.04-.2-.09-.3-.13-.95-.37-1.89-.75-2.84-1.12-.84-.32-1.61-.79-2.47-1.06-.24-.08-.47-.19-.69-.29-.07-.03-.13-.11-.07-.19.06-.08.11,0,.16.03.14.08.28.18.44.23,1.1.3,2.06.93,3.14,1.29.93.31,1.83.74,2.74,1.11.34.14.68.11,1.02-.05-.68-.43-1.29-.93-1.91-1.41-.73-.57-1.54-.98-2.42-1.21-1.1-.29-2.22-.28-3.34-.15-.2.02-.19.08-.09.22.32.44.61.89.95,1.31.37.46.78.88,1.35,1.13.76.33,1.55.48,2.37.53.66.04,1.31,0,1.97-.23h0ZM55.88,104.01c.26,0,.41-.12.58-.18.39-.13.68-.43,1.1-.52.71-.17,1.43-.26,2.15-.38.78-.12,1.43-.56,2.12-.9.46-.23.76-.61.97-1.04.24-.48.39-1.01.58-1.52-.21-.03-.39.08-.58.14-.16.05-.31.12-.48.13-1.08.07-2.11.28-3.1.74-.83.39-1.59.8-2.14,1.62-.42.62-.76,1.27-1.19,1.93h0ZM97.48,38.12c-.11-.18-.28-.23-.44-.31-.34-.18-.69-.32-1-.57-.56-.44-1.16-.77-1.89-.92-.54-.11-1.08-.07-1.61-.19-.95-.2-1.9-.2-2.85-.1-.22.02-.32.28-.19.46.11.16.25.31.34.48.59,1.11,1.57,1.64,2.76,1.85.72.12,1.44.07,2.15-.08.91-.18,1.83-.33,2.74-.62h0ZM100.51,73.38c-.1.4.05.73.43.98.1.06.15.12.27.02.52-.4,1.17-.51,1.74-.8.72-.37,1.41-.75,1.86-1.45.37-.57.39-1.19.08-1.77-.24-.46-.61-.71-1.21-.69-1.1.04-2,.63-2.43,1.59-.14.31-.25.64-.44.91-.27.37-.38.75-.29,1.22h0ZM47.77,69.82c0,.14,0,.29,0,.43,0,.06-.05.14.04.17.06.03.09-.04.13-.07.36-.31.74-.59,1.08-.92.45-.44.98-.82,1.35-1.34.71-.99,1.21-2.1,1.76-3.18.26-.51.05-1.24-.38-1.49-.37-.22-1.3-.14-1.67.37-.52.72-1,1.47-1.38,2.27-.56,1.19-.87,2.44-.94,3.76h0ZM80.1,74.16c-.12-.09-.24-.12-.37-.14-.61-.09-1.18-.32-1.73-.58-.66-.3-1.32-.58-2.06-.64-.92-.08-1.82.03-2.69.32-.36.12-.76.21-1.05.51-.28.28-.29.46.02.72.39.32.82.57,1.29.75.75.3,1.55.39,2.34.53.61.11,1.18.08,1.73-.2.16-.08.31-.16.47-.24.67-.34,1.35-.67,2.06-1.02h0ZM42.03,79.22c.45-.03.88.09,1.31.08.4-.01.82.06,1.18-.05.55-.17,1.13-.29,1.63-.58.44-.25.88-.53,1.21-.91.52-.61,1-1.27,1.48-1.92.28-.37.52-.76.3-1.27-.05-.13-.09-.15-.23-.14-.45.06-.87.21-1.3.34-.84.25-1.61.63-2.31,1.17-1.23.95-2.13,2.22-3.28,3.27h0ZM41.53,75.92c.44-.04.91-.07,1.38-.15.73-.12,1.4-.42,2.03-.78,1.18-.67,2.09-1.6,2.17-3.07.02-.33-.16-.48-.47-.41-.19.05-.39.08-.58.11-1.02.16-2.01.34-2.84,1.07-.7.61-1.46,1.15-2,1.93-.26.38-.56.73-.88,1.07-.06.07-.23.07-.17.2.08.15.16-.03.24-.04.09,0,.18-.02.26,0,.27.02.55.05.86.08h0ZM83.4,70.47c.02.42-.11.87.21,1.24.29.33.45.73.57,1.14.05.19.19.17.3.16.18,0,.44.05.5-.14.15-.52.48-.92.82-1.32.31-.36.62-.72.85-1.13.39-.69.5-1.46.39-2.24-.07-.51-.33-1.03-1.11-.96-.42.04-.82.15-1.22.26-.28.08-.51.25-.66.51-.44.77-.77,1.56-.65,2.47h0ZM52.67,81.11c-.57.31-1.04.56-1.51.82-.9.51-1.88.84-2.87,1.14-.58.17-1.17.28-1.76.41-.09.02-.25.08-.27-.07-.02-.13.14-.1.23-.12.74-.16,1.5-.26,2.22-.49,1.14-.36,2.2-.91,3.25-1.49.65-.36,1.06-.86,1.22-1.58.04-.19.05-.26-.17-.24-.35.04-.7.07-1.01.26-.47.28-.93.57-1.41.84-.44.24-.84.55-1.38.59-.72.05-1.33.37-1.8.92-.38.44-.84.8-1.3,1.15-.14.11-.34.15-.44.35.56.04,1.11.05,1.62.16.5.1.99.29,1.51.26.5-.02.99.15,1.49-.06.32-.14.58-.36.87-.54.21-.13.46-.2.61-.43.38-.56.57-1.21.9-1.89h0ZM79.31,54.57c.26.11.38.29.5.48.41.66.91,1.23,1.59,1.61.21.12.41.25.62.37.9.51,1.81,1.01,2.9.95.48-.03.92-.19,1.37-.33.7-.22,1.4-.46,2.12-.69-.13-.09-.23-.15-.35-.17-.72-.12-1.37-.41-2.01-.74-1.34-.69-2.7-1.32-4.19-1.58-.84-.14-1.68-.32-2.55.1h0ZM62.35,72.56c.03.07.03.11.06.15.61.91.99,1.93,1.4,2.94.24.58.54,1.09,1,1.52.72.67,1.56,1.09,2.48,1.38.63.2,1.19.58,1.89.56.35,0,.3-.14.22-.34-.43-1.01-.96-1.95-1.74-2.74-.99-1.01-2.08-1.9-3.34-2.56-.63-.33-1.23-.71-1.96-.91h0ZM45.78,67.69c.71-.38,1.33-.79,1.73-1.49.37-.65.73-1.3.93-2.03.28-1.04.29-2.11.2-3.17-.02-.25-.03-.51-.2-.72-.16-.2-.3-.24-.51-.04-.31.31-.58.66-.82,1.03-.17.26-.44.41-.61.69-.36.58-.6,1.21-.81,1.85-.19.58-.46,1.13-.53,1.75-.09.76-.03,1.51.16,2.26.02.08.05.19.15.17.09-.02.22-.09.19-.2-.14-.39.11-.67.24-.97.58-1.28,1.16-2.55,1.36-3.96.1-.69.28-1.37.7-1.99.04.15,0,.24-.05.35-.24.49-.45,1-.52,1.55-.14,1.05-.44,2.06-.89,3.02-.28.6-.57,1.21-.71,1.91h0ZM89.85,53.27c-.12-.13-.25-.09-.35-.09-1.47.02-2.89-.31-4.29-.68-1.06-.28-2.11-.58-3.17-.85-.07-.02-.18-.01-.16-.12.02-.11.13-.07.19-.06.13.02.26.05.38.09.4.12.79.26,1.2.36.91.21,1.79.52,2.71.7.8.16,1.59.35,2.41.39.42.02.85-.09,1.25.16.09.06.26-.03.29-.15.04-.14-.12-.12-.2-.14-.24-.08-.48-.13-.74-.16-.58-.06-1.12-.3-1.67-.5-.99-.35-2-.64-2.91-1.19-.62-.37-1.28-.54-2.01-.35-.47.12-.89.35-1.34.52-.14.05-.09.13-.02.2.35.4.65.84.96,1.28.25.36.62.58,1.04.72.47.16.93.33,1.4.48.58.18,1.17.25,1.78.21.68-.05,1.31-.29,1.98-.35.45-.04.86-.2,1.27-.44h0ZM49.92,72.43c0,.13-.01.27,0,.4.01.11.06.21.21.12.71-.39,1.47-.67,2.05-1.28.31-.32.67-.58.89-1,.33-.63.67-1.26.92-1.93.36-.99.64-2,.5-3.06-.09-.66,0-.63-.56-.29-.78.46-1.31,1.21-1.8,1.94-.53.79-1.08,1.56-1.47,2.45-.24.54-.41,1.1-.62,1.65-.12.32-.17.65-.12.99h0ZM40.22,54.97c.17.04.18.12.16.2-.16.89-.07,1.79-.19,2.68-.1.74-.18,1.49-.25,2.23-.07.76-.35,1.5-.26,2.28,0,.08,0,.13-.08.15-.11.03-.11.11-.04.17.06.06.11.02.16-.04.17-.19.34-.37.52-.55.66-.66,1-1.45,1.11-2.37.09-.78.05-1.57.19-2.34.14-.83,0-1.61-.41-2.33-.37-.64-.71-.76-1.19-.19-.08.09-.15.19-.22.29-.35.48-.52,1.04-.68,1.59-.25.87-.45,1.76-.36,2.67.07.72.28,1.41.42,2.12.07.32.2.6.34.83.39-2.43.74-4.88.78-7.39h0ZM41.8,66.88c-.15-.08-.22,0-.3.02-.72.23-1.4.58-2.1.86-.86.34-1.73.68-2.6,1.01-.63.25-1.29.42-1.9.72-.09.05-.18.05-.22-.04-.05-.11.05-.16.13-.2.16-.07.32-.15.5-.18.78-.16,1.51-.45,2.25-.74,1.22-.47,2.42-.99,3.63-1.48.22-.09.45-.17.68-.26.05-.02.14-.05.13-.13-.01-.07-.09-.09-.16-.1-.25-.04-.5-.1-.75-.12-.41-.03-.82-.2-1.23-.1-1.33.34-2.64.7-3.74,1.6-.6.49-1.29.88-1.78,1.51-.1.13-.22.24-.24.38.87.3,1.77.22,2.65.37.66.11,1.29-.07,1.93-.29.75-.26,1.36-.68,1.87-1.26.44-.5.7-1.14,1.26-1.57h0ZM100.77,56.72c.01-.21-.02-.42-.06-.64-.11-.52-.37-.79-.89-.88-.68-.12-1.28.15-1.86.43-.19.09-.32.26-.41.45-.29.57-.56,1.14-.84,1.71-.19.38-.15.76-.04,1.16.2.71.61,1.3,1,1.92.1.17.22.08.33,0,.05-.04.06-.15.17-.06.31.24.46.19.52-.18.08-.42.31-.71.62-1,.22-.2.5-.3.68-.55.51-.7.78-1.47.78-2.35h0ZM83.59,65.84c-.21-.08-.41-.12-.52-.28-.14-.22-.35-.32-.58-.41-.45-.19-.92-.33-1.4-.37-.83-.06-1.63-.22-2.42-.48-.74-.25-1.47-.26-2.22-.02-.5.16-.92.45-1.4.65-.12.05-.28.14-.24.27.03.1.21.13.35.12,1.24-.08,2.46.2,3.7.29.42.03.83.03,1.25.08.6.08,1.19.2,1.81.1.31-.05.64-.08.93.15-.38.01-.75-.02-1.13.04-.22.04-.44.01-.65-.01-.66-.07-1.32-.13-1.97-.19-.76-.08-1.52-.17-2.29-.23-.46-.04-.92-.13-1.41,0,.21.26.43.45.68.6.51.31,1.02.62,1.55.87,1.13.53,2.28.61,3.43.12.86-.36,1.71-.75,2.53-1.29h0ZM90.84,87.21c-.27.03-.6.04-.92.13-.64.18-1.27.45-1.96.42-.11,0-.2.06-.21.21-.01.27-.12.51-.3.71-.04.04-.1.08,0,.15.59.39.84,1.01,1.07,1.64.22.62.77.88,1.26,1.21.05.03.1.02.16.01,1.23-.16,2.26-.75,2.68-1.98.43-1.27-.44-2.53-1.79-2.5h0ZM56.26,81.84c.46-.12.9-.24,1.36-.29.2-.02.38-.08.56-.18.39-.23.77-.48,1.17-.68.39-.19.69-.48.95-.8.23-.28.43-.58.64-.87.31-.42.49-.91.76-1.35.27-.43-.1-.97.25-1.38v-.06c-.02-.26-.04-.53-.06-.79,0-.11-.02-.25-.11-.29-.09-.04-.17.07-.25.13-.78.58-1.62,1.05-2.41,1.6-.5.35-1.01.71-1.4,1.19-.43.53-.82,1.1-1.1,1.73-.28.64-.61,1.29-.37,2.04h0ZM98.98,70.6c0-.48-.18-.79-.5-1.06-.38-.32-.8-.36-1.26-.32-1.12.11-2.11.42-2.74,1.45-.27.45-.59.85-1.05,1.13-.11.07-.17.18-.12.28.11.21-.04.63.44.55.04,0,.1.05.14.07.64.36,1.26.75,1.95,1,.67.24,1.34-.11,1.91-.82.29-.36.53-.75.79-1.13.24-.37.4-.78.43-1.16h0ZM78.38,37.49c0,.55.04,1.05,0,1.54-.1,1.11-.07,2.2.22,3.28.33,1.21.81,2.38,1.4,3.49.36.68.9,1.19,1.67,1.41.19.06.2,0,.19-.15,0-.29-.05-.61.02-.88.14-.54.05-1.06-.07-1.58-.17-.76-.37-1.51-.54-2.26-.16-.75-.36-1.51-.72-2.18-.53-.99-1.22-1.89-2.17-2.65h0ZM79.94,78.77c-.09-.04-.14-.07-.19-.08-.52-.13-.99.11-1.48.2-.92.17-1.84.25-2.76.17-1.2-.1-2.39-.09-3.59.01-.13.01-.25,0-.32-.11-.02-.03-.03-.1-.02-.12.09-.07.18-.02.28.02.03.01.09-.03.13-.02.41.08.83-.02,1.24-.02.37,0,.74.08,1.12.01.31-.05.65.03.98.07,1,.12,1.98.01,2.96-.15.3-.05.61-.05.93-.19-.32-.11-.62-.19-.89-.31-.58-.25-1.18-.44-1.81-.5-1.19-.11-2.38-.17-3.57-.01-.62.08-1.17.35-1.67.72-.19.14-.22.3-.11.54.3.66.89.99,1.46,1.35.14.09.3.13.46.16.61.11,1.22.18,1.84.2.35,0,.73.04,1.04-.08.42-.16.85-.27,1.27-.43.95-.36,1.85-.82,2.7-1.45h0ZM67.37,53.88c-.04.11-.02.19.02.28.35.81.56,1.66.65,2.54.04.4.14.79.32,1.16.43.87.99,1.61,1.9,2.02.76.34,1.5.73,2.31.94.4.11.81.2,1.21.31.12.03.27.05.34-.02.09-.09-.03-.2-.08-.29-.18-.34-.34-.69-.53-1.03-.66-1.15-1.56-2.12-2.35-3.17-.97-1.29-2.42-1.96-3.79-2.73h0ZM51.35,76.33c.2.23.29.49.46.72.67.89,1.3,1.82,1.95,2.73.59.82,1.22,1.63,1.64,2.56.04.08.07.14.21.1.11-.04.28.08.12.26-.05.06-.13.1-.07.19.23.35.39.74.6,1.09.34.56.67,1.12.97,1.71.31.6.71,1.14,1.01,1.74.2.39.5.74.66,1.15.45,1.11,1.04,2.15,1.51,3.25.25.59.57,1.14.85,1.71.44.9.75,1.86,1.17,2.76.25.54.55,1.06.72,1.62.17.56.5,1.04.65,1.6.13.48.41.92.6,1.39.42,1.07.8,2.16,1.24,3.23.28.7.42,1.46.71,2.15.4.97.83,1.94,1.36,2.85.13.21.24.43.28.7.04.31.16.6.48.8-.07-.35,0-.68-.13-.97-.38-.89-.77-1.78-1.12-2.68-.35-.94-.76-1.86-1.11-2.81-.29-.77-.52-1.57-.8-2.34-.51-1.39-1.08-2.76-1.56-4.16-.42-1.2-1.13-2.26-1.59-3.44-.28-.71-.63-1.4-.95-2.09-.58-1.26-1.19-2.5-1.92-3.67-.26-.41-.54-.82-.79-1.23-.19-.32-.34-.72-.52-1.07-.61-1.18-1.1-2.42-1.92-3.49-.74-.97-1.33-2.04-1.98-3.08-.69-1.1-1.44-2.15-2.24-3.16-.14-.17-.26-.24-.47-.12h0ZM103.05,78.43c.39-.12.7.09,1.04.12.36.03.63.21.83.47.4.52.93.83,1.54.95.88.18,1.67-.13,2.38-.63.53-.37.77-.89.68-1.57-.05-.39-.24-.69-.44-.97-.27-.36-.6-.66-1.09-.8-.47-.14-.93-.13-1.39-.12-.64,0-1.25.14-1.77.59-.22.19-.46.36-.7.54-.47.35-1,.7-1.08,1.43h0ZM103.65,82.74c0-.05,0-.1,0-.14.08-1.16-.99-2.25-2.15-2.07-.1.01-.2,0-.3,0-.48,0-.94.09-1.35.33-.44.26-.84.63-1.35.73-.38.08-.39.39-.48.64-.07.19.2.2.31.3.09.08.19.16.25.26.33.51.73.96,1.05,1.48.34.54.83.92,1.47,1.01,1.25.17,2.8-1.32,2.54-2.53h0ZM69.7,48.77c.18.88.28,1.68.37,2.5.1.95.43,1.86,1.01,2.64.48.64,1.05,1.19,1.67,1.7.74.62,1.55,1.12,2.41,1.53.29.14.63.23.96.1.08-.03.2-.05.14-.2-.08-.19-.12-.4-.2-.59-.53-1.33-1.25-2.56-2.01-3.77-.35-.56-.66-1.13-1.15-1.6-.56-.54-1.23-.92-1.85-1.37-.42-.31-.86-.59-1.35-.92h0ZM72.09,124.66c-.02-.33,0-.56-.05-.78-.16-.68-.19-1.37-.3-2.05-.16-1-.27-2.01-.47-3-.17-.86-.36-1.73-.45-2.6-.1-.97-.24-1.94-.25-2.92,0-.61-.04-1.24.11-1.83.24-.95.52-1.89.53-2.89-.36.2-.48.62-.71.94-.26.36-.63.67-.62,1.18,0,.14.08.27.02.42-.12.33-.49.45-.98.27,0,.18.02.34,0,.5-.07.47-.02.98-.43,1.34-.45.39-.46.83-.16,1.31.03.06.06.12.08.18.3.94.46,1.91.65,2.87.21,1.07.41,2.14.52,3.23.07.72.17,1.44.22,2.17.03.43.06.87.09,1.34.8-.5,1.5-.45,2.2.33h0ZM65.35,85.58c.17-.21.45-.31.6-.56.06-.1.11-.24.26-.21.17.03.17.2.19.31.11.45.12.89,0,1.34-.04.14.04.8.09.93.39.95.94,1.83,1.09,2.87,0,.03.04.05.08.09.01-.14.01-.25.03-.37.18-1.06.4-2.12.45-3.2.04-.72.2-1.41.26-2.13.02-.26-.04-.33-.3-.31-.4.03-.82.09-1.21-.04-.64-.2-1.24-.47-1.75-.94-.49-.45-.97-.91-1.27-1.51-.48-.94-.71-1.98-1.12-2.95-.19-.44-.25-.94-.53-1.34-.05-.07-.07-.18-.18-.17-.11,0-.07.12-.1.18-.36.78-.79,1.52-1.3,2.21-.53.71-1.25,1.13-2.01,1.53-.27.14-.49.39-.82.42-.45.03-.89.13-1.31.31-.37.15-.42.27-.19.57.68.87,1.1,1.89,1.61,2.85.2.38.4.75.6,1.13-.06-1.15.31-2.15.96-3.06.12-.17.15-.39.38-.47.12-.04.17-.1.06-.22-.05-.05-.06-.14.01-.21.06-.05.11-.09.2-.03.17.13.26,0,.32-.13.11-.25.3-.42.51-.6.52-.44,1.03-.89,1.55-1.33.09-.07.13-.29.3-.18.12.08.11.25.11.39-.01.52,0,1.03-.02,1.55,0,.23,0,.46-.16.65-.22.27-.19.43.11.59.96.5,1.76,1.19,2.5,2.02h0ZM70.08,108.77c.11-.28.2-.49.27-.7.26-.72.5-1.45.86-2.14.39-.76.87-1.48,1.3-2.22.49-.84.87-1.75,1.4-2.57.45-.71.87-1.45,1.38-2.13.77-1.01,1.53-2.02,2.17-3.13.28-.5.62-.96.98-1.41.82-1.03,1.71-2,2.5-3.05.89-1.17,2.05-2.06,3.18-2.98.45-.37.95-.53,1.53-.42h.07c.23-.01.32-.21.32-.36,0-.22-.19-.06-.3-.06-.11,0-.22-.02-.33,0-.17.02-.29-.04-.34-.2-.04-.15.04-.26.16-.37.37-.33.75-.65,1.08-1.02.76-.87,1.62-1.61,2.56-2.28.66-.48,1.41-.8,2.05-1.3.32-.25.74-.43,1.16-.54.89-.23,1.79-.12,2.68-.11.53,0,1.05.04,1.58,0,.2-.02.29-.1.37-.3-.95.05-1.85-.2-2.77-.19-.17,0-.33,0-.5,0-.11,0-.25,0-.29-.1-.05-.13.08-.2.18-.27.62-.42,1.24-.85,1.91-1.21,1.11-.6,2.16-1.3,3.29-1.88.41-.21.83-.33,1.3-.08.6.32,1.28.34,1.94.44.17.02.32-.11.51-.07.18.04.18.15.11.22-.26.25.05.31.13.44.04.06.11.02.12-.04.05-.41.26-.78.33-1.19.02-.11-.02-.2-.14-.12-.15.11-.4.23-.41.36-.02.36-.2.2-.34.14-.81-.34-1.7-.42-2.54-.64-.39-.1-.74.07-1.02.39-.02-.16-.1-.25-.02-.38.29-.49.6-.97.94-1.43.35-.46.66-1,1.38-.94.17.01.08-.13.04-.21-.15-.28-.46-.33-.69-.49-.19-.13-.33-.1-.48.06-.14.14-.13.3-.03.42.17.19.11.34-.03.49-.07.08-.15.16-.23.24-.55.59-1.12,1.17-1.36,1.98-.03.1-.11.15-.2.2-1.18.66-2.32,1.38-3.47,2.08-.84.51-1.7.98-2.57,1.43-.78.4-1.5.87-2.23,1.33-.53.33-1.04.71-1.51,1.13-.04.03-.09.14-.18.07-.09-.06-.16-.09-.17-.05-.13.35-.49.47-.73.71-.55.57-1.14,1.1-1.73,1.63-.64.58-1.3,1.14-1.9,1.78-.48.51-.85,1.12-1.37,1.6-.25.23-.55.43-.78.67-.74.79-1.44,1.62-2.13,2.45-.54.65-1.03,1.34-1.56,2-1,1.26-1.94,2.56-2.79,3.93-.38.62-.78,1.22-1.17,1.83-.58.92-1.03,1.91-1.57,2.86-.64,1.12-1.04,2.33-1.47,3.53-.04.12-.1.24-.13.36-.18.56-.66,1.07-.3,1.81h0ZM67.54,107.02c-.1-.7-.26-1.4-.28-2.11-.02-.74-.13-1.46-.21-2.19-.14-1.15-.08-2.31-.12-3.47-.02-.58.03-1.2.09-1.79.08-.77.02-1.54.14-2.3.22-1.38.41-2.76.44-4.17,0-.14-.04-.16-.14-.14-.65.15-1.27-.03-1.88-.23-.11-.04-.18-.08-.23.1-.12.42-.3.82-.52,1.21-.56.95-1.27,1.69-2.37,1.99-.09.02-.18.05-.11.17.22.34.29.75.5,1.11.5.82.84,1.72,1.19,2.61.25.66.49,1.32.73,1.99.19.51.38,1.01.55,1.52.29.83.55,1.67.86,2.5.28.74.66,1.44.89,2.2.1.36.26.69.48.99h0ZM104.93,60.2c.31-.08.44-.36.64-.56.53-.51,1.03-1.05,1.48-1.63.17-.22.32-.46.51-.65.2-.19.05-.51.31-.65.04-.02.05-.1,0-.15-.06-.06-.12-.04-.17.02-.12.14-.23.29-.35.44-.57.73-1.21,1.39-1.86,2.04-.32.32-2.13,1.81-2.78,2.2-.84.51-1.68,1.01-2.47,1.58-1.06.76-2.19,1.41-3.23,2.2-.74.56-1.56,1.01-2.17,1.74-.14.17-.27.34-.46.47-.8.53-1.53,1.14-2.27,1.75-1.24,1.01-2.31,2.19-3.39,3.37-.54.59-1.19,1.08-1.68,1.72-.3.39-.59.79-.99,1.09-.65.5-1.25,1.04-1.68,1.75-.01.02-.06.02-.09.03-.07-.15-.05-.28.01-.44.24-.59.43-1.2.48-1.84,0-.09.11-.24-.03-.25-.12-.01-.26.06-.3.24-.2.86-.61,1.65-.83,2.5-.03.13-.04.35-.17.41-.29.15-.41.43-.59.65-1.14,1.39-2,2.97-2.97,4.47-.39.59-.76,1.19-1.11,1.82-.65,1.17-1.45,2.25-2.13,3.4-.62,1.06-1.09,2.18-1.71,3.24-.56.95-1.07,1.94-1.53,2.95-.53,1.15-1.07,2.31-1.59,3.47-.34.76-.59,1.56-.86,2.35-.31.91-.73,1.78-1.08,2.68-.43,1.08-.68,2.22-1.04,3.33-.14.42-.38.86-.11,1.34.07-.36.35-.61.46-.94.2-.63.4-1.25.65-1.86.23-.56.35-1.16.59-1.71.61-1.35,1.16-2.73,1.8-4.07.26-.54.38-1.15.63-1.7.2-.44.46-.87.68-1.31.46-.92.85-1.88,1.31-2.8.7-1.42,1.6-2.72,2.39-4.09.68-1.18,1.45-2.31,2.04-3.54.36-.75.75-1.49,1.15-2.21.43-.77,1-1.47,1.51-2.19.24-.35.5-.69.76-1.03.51-.69.96-1.44,1.58-2.05.37-.37.71-.77,1.07-1.16.87-.96,1.61-2.03,2.62-2.85.45-.36.93-.72,1.5-.75.7-.03,1.4-.1,2.1-.16.47-.04.56-.11.72-.6-.36-.02-.67.21-1.02.24-.44.03-.86.27-1.3.14-.17-.05-.31-.04-.43.06-.12.1-.26.16-.35.07-.09-.1.06-.22.12-.31.44-.59.98-1.12,1.52-1.6,1.22-1.08,2.34-2.28,3.72-3.19.42-.28.79-.66,1.17-1,.44-.39.96-.66,1.42-1.01.99-.75,2.12-1.1,3.34-1.19.65-.05,1.28.18,1.93.09.39-.06.84.09,1.19-.05.42-.16.59.05.79.29.34.39.6.83,1.02,1.15.71.54,1.42,1.07,2.23,1.46.3.14.48.16.75.06-.42-.37-.77-.77-.96-1.29-.03-.09-.14-.17-.06-.27.08-.1.19,0,.27.03.77.29,1.56.16,2.34.18.02-.1-.04-.12-.08-.15-.72-.57-1.54-.92-2.45-1.02-.08,0-.16.03-.18-.08-.01-.1.04-.18.13-.21.07-.03.15-.03.23-.05.35-.07.67-.23,1.07-.43-.26-.03-.43,0-.57-.06-.68-.33-1.37-.58-2.14-.49-.58.07-1.2.03-1.57.62-.06.09-.17.12-.26.07-.46-.23-.94-.1-1.41-.11-1.02-.02-2.04.05-3.05-.06-.11-.01-.23-.02-.25-.16-.02-.15.13-.13.21-.17.75-.3,1.48-.62,2.18-1,.6-.33,1.11-.78,1.68-1.14.94-.59,2-.95,3.07-1.26,1.02-.29,2.01-.31,2.92.33.47.33.93.65,1.53.72.1.01.21.03.27-.06.1-.14-.09-.14-.13-.21-.02-.04-.09-.05-.14-.08-.75-.45-1.53-.83-2.25-1.34-.09-.06-.18-.06-.29-.08-.47-.08-.91.1-1.37.15-.52.05-.98.29-1.48.42-.23.06-.48.24-.73-.03h0ZM88.73,36.35c-.22-.13-.35,0-.47.16-.75.99-1.43,2.02-2.09,3.07-.53.83-1.04,1.69-1.5,2.57-.49.93-.99,1.85-1.42,2.8-.35.76-.69,1.52-1.09,2.25-.49.89-.97,1.79-1.39,2.71-.31.69-.64,1.37-1.04,2.02-.44.73-.91,1.44-1.34,2.17-.44.75-.78,1.55-1.18,2.31-.43.83-.8,1.7-1.29,2.49-.81,1.31-1.24,2.76-1.75,4.18-.14.4-.15.85-.36,1.23-.2.36-.23.76-.42,1.13-.33.64-.52,1.35-.82,2.01-.32.7-.45,1.47-.7,2.2-.23.67-.46,1.35-.56,2.07-.16,1.14-.34,2.29-.59,3.42-.21.95-.35,1.92-.59,2.86-.18.69-.37,1.37-.55,2.06-.13.49-.17,1.02-.37,1.48-.59,1.35-.48,2.8-.71,4.2-.09.56-.06,1.14-.18,1.69-.21,1.05-.31,2.12-.44,3.18-.11.86-.08,1.74-.23,2.61-.17.95-.27,1.91-.33,2.88-.06.96,0,1.93-.17,2.89-.08.45.07.89.05,1.34-.03.59-.07,1.18.01,1.78.06.43.11.86.17,1.28.09.73.12,1.46.22,2.19.08.58.1,1.16.28,1.73.1.33.22.68.25,1.04.02.29.11.54.25.79-.02-.47.47-.93,0-1.4-.03-.03,0-.1-.01-.16-.08-.76-.15-1.51-.25-2.27-.15-1.11-.19-2.23-.23-3.36-.02-.49.03-.97-.02-1.45-.1-.93-.06-1.87-.08-2.8-.02-.87.09-1.74.17-2.6.08-.88.13-1.77.29-2.63.26-1.43.44-2.87.71-4.3.16-.88.25-1.77.41-2.65.16-.9.32-1.8.5-2.69.27-1.35.65-2.68.83-4.05.06-.45.18-.89.21-1.34.04-.59.07-1.2.21-1.77.29-1.23.64-2.45.97-3.67.29-1.09.52-2.2.95-3.24.38-.91.64-1.87,1.01-2.79.1-.24.34-.51.1-.82-.03-.04.03-.11.09-.1.2,0,.22-.15.27-.28.42-1.09.82-2.19,1.27-3.27.26-.62.47-1.25.74-1.87.7-1.57,1.34-3.16,2.13-4.69.04-.08.15-.17.07-.27-.09-.13,0-.19.09-.23.15-.06.21-.19.27-.32.69-1.32,1.56-2.53,2.25-3.84.47-.89,1.09-1.72,1.22-2.76,0-.03.02-.07.04-.09.37-.22.47-.62.62-.98.45-1.11.92-2.2,1.5-3.24.26-.47.52-.94.79-1.41.27-.48.53-.97.85-1.41.29-.4.18-1.03.73-1.28.04-.02.05-.09.07-.14.27-.56.65-1.06.96-1.59.2-.35.5-.63.62-1.03.03-.27.29-.36.42-.54.5-.7.99-1.4,1.51-2.08.53-.7,1.02-1.44,1.64-2.09.46-.49.83-1.07,1.29-1.57.18-.2.33-.44.49-.66-.46.28-.76.71-1.12,1.07-.68.69-1.24,1.48-1.8,2.27-.68.95-1.34,1.93-2.18,2.76-.22.21-.44.49-.24.85h0ZM83.08,47.81l.04.05c.05.32.35.4.55.57.41.36.77.8,1.26,1.06.7.37,1.48.49,2.26.51,1.43.02,2.79-.35,4.15-.73.28-.08.57-.17.86-.32-.16-.09-.28-.16-.41-.22-.5-.22-1.03-.35-1.54-.58-.85-.39-1.73-.72-2.58-1.1-.66-.29-1.35-.58-2.12-.45-.28.05-.56.12-.82.22-.57.2-1.15.37-1.65.72-.18.12-.13.19.01.28h0ZM79.28,58.43c.1.01.21,0,.29.04.68.33,1.4.58,2.12.82.6.2,1.19.42,1.82.51.67.1,1.35.17,1.98.44.24.1.44.23.71.09-.05-.06-.11-.07-.17-.1-.52-.21-1.07-.3-1.58-.54-.92-.43-1.77-.99-2.73-1.35-.89-.33-1.75-.73-2.7-.81-.21-.02-.42-.04-.63-.01-.22.03-.49.07-.61.27-.11.17.2.21.23.37,0,.03.03.06.04.09.72,1.57,2.02,2.36,3.67,2.57,1.1.14,2.21.04,3.29-.21.2-.05.42-.02.61-.16-.36-.22-.77-.28-1.15-.32-1.36-.16-2.63-.6-3.88-1.1-.44-.17-.9-.33-1.31-.58l.02-.03h0ZM95.44,29.08h-.01c.3.53.75.9,1.32,1.15.65.29,1.33.45,2.03.52.57.06,1.16.06,1.69-.17.95-.39,1.76-.99,2.54-1.64-.54-.35-1.15-.37-1.73-.5-1.07-.23-2.15-.35-3.24-.11-.75.16-1.51.3-2.26.46-.18.04-.37,0-.54.14.07.06.13.1.19.15h0ZM48.63,78.34h0c.03.1-.05.12-.12.16-.21.13-.43.26-.64.4-.74.5-1.53.92-2.38,1.22-.25.09-.53.15-.75.36.13.06.23.09.35.08.92-.06,1.81-.26,2.67-.57.76-.28,1.42-.74,2.01-1.3.56-.52,1.06-1.1,1.35-1.82.11-.28-.02-.56-.28-.57-.79-.03-1.6-.12-2.2.59l-.08.05c-.25-.14-.31.09-.4.22-.6.88-1.37,1.54-2.38,1.9-.28.1-.52.23-.53.58,0,.03,0,.05-.05.07-.34.09-.47.42-.72.63,1.02-.34,2.03-.68,2.93-1.28.39-.26.77-.55,1.22-.71h0ZM77.6,53.72c-.3.13-.35-.15-.44-.3-.26-.46-.41-.97-.63-1.45-.35-.76-.74-1.5-1.1-2.25-.42-.88-.79-1.79-1.33-2.61-.21-.33-.49-.61-.63-1-.12-.33-.43-.53-.83-.6.18.87.52,1.7.61,2.59.05.54.12,1.11.32,1.6.38.9.95,1.69,1.67,2.36.34.31.63.67.95,1,.37.38.73.77,1.29.85.06,0,.16.09.2-.02.03-.08-.04-.14-.1-.18.15-.05.07-.16.04-.24-.32-1.01-.52-2.07-.97-3.04-.39-.84-.68-1.74-1.24-2.49-.24-.32-.48-.63-.7-.96-.26-.39-.61-.72-1.1-.93.18.38.47.63.65.95.3.53.6,1.07.85,1.62.31.69.65,1.36.99,2.04.31.64.64,1.26.88,1.94.14.41.44.73.62,1.12h0ZM63.87,68.53c-.01-.26.13-.27.32-.19.64.28,1.22.65,1.73,1.12.96.9,1.63,2.07,2.66,2.91.56.46,1.22.67,1.92,1.01-.08-.2-.11-.33-.17-.44-.46-.82-1.04-1.57-1.74-2.18-.92-.79-1.96-1.45-2.98-2.11-.74-.48-1.57-.76-2.46-1.04.27.33.5.62.73.91.02.07,0,.15.07.21.41.4.56.94.71,1.45.27.95.84,1.64,1.6,2.23.56.43,1.18.75,1.82,1.04.68.3,1.37.48,2.12.44.1,0,.23-.01.25-.1.02-.11-.08-.18-.2-.23-1.13-.41-2.07-1.08-2.81-2.03-.72-.92-1.39-1.9-2.42-2.52-.36-.22-.69-.48-1.14-.48h0ZM38.75,62.94c-.28-.19-.57-.38-.85-.58-.01.03-.03.05-.05.08.27.21.48.53.9.5-.11.17.08.23.14.28.33.23.65.48.96.74.34.28.7.54,1,.86.3.31.64.58.9.92.25.33.61.53.88.85.63.75,1.25,1.55,2.04,2.15.28.22.51.43.73.71.62.81,1.44,1.45,2.05,2.27.52.71,1.11,1.36,1.65,2.05.2.25.5.35.67.68.25.48.64.91,1.03,1.32.2.21.36.29.67.22-.19-.19-.33-.37-.46-.54-.58-.77-1.19-1.52-1.83-2.24-.59-.66-1.21-1.3-1.75-1.99-.86-1.1-1.88-2.05-2.79-3.1-.57-.66-1.26-1.22-1.86-1.86-.5-.53-.98-1.09-1.57-1.5-.84-.58-1.55-1.32-2.46-1.81h0ZM86.46,28.09c-.09-.32-.38-.46-.61-.77.01.21.02.32.03.43.06.9.12,1.81-.08,2.71-.12.53-.17,1.06-.16,1.6.02.86.34,1.65.71,2.41.16.32.32.63.66.95-.32-.8-.5-1.54-.56-2.29-.09-.97-.06-1.95-.02-2.92.03-.63-.06-1.27-.11-1.91,0-.13,0-.21.15-.21-.05.39.15.72.25,1.08.26.93.53,1.86.61,2.83.07.82.22,1.61.53,2.37.1.23.21.45.4.63,0-.07-.03-.14-.02-.19.1-.76.05-1.53-.06-2.28-.17-1.13-.26-2.29-.8-3.34-.22-.43-.5-.82-.92-1.08h0ZM62.36,81.09c-.47.21-.73.66-1.14.95-.16.11-.31.24-.42.41-.16.26-.14.31.14.36.33.05.64.13.95.27.34.16.58.06.65-.32.12-.62.09-1.26.07-1.91-.14.07-.23.13-.27.24h0ZM49.01,74.06c-.46-.71-1.09-1.26-1.59-1.95-.19,1.07-.78,1.87-1.54,2.57-.55.5-1.26.75-1.94,1.03-.97.4-2,.47-3.04.46-.44,0-.88.01-1.3.15-.11.03-.23,0-.28-.04-.06-.07.04-.16.08-.24.09-.17.23-.31.39-.39.45-.24.76-.61,1.02-1.04.32-.53.7-1.01,1.19-1.41-.18.05-.36.08-.53.15-.55.19-1.11.14-1.67.12-.83-.03-1.66-.04-2.48-.1-.14-.01-.27,0-.35-.12-.09-.14.1-.2.14-.24.37-.33.7-.71,1.14-.98.34-.2.62-.49.92-.74.71-.58,1.37-1.23,2.2-1.66.18-.09.42-.07.63-.13.65-.17,1.3-.34,1.95-.52h.03c.15-.03.38.07.42-.08.05-.15-.18-.24-.29-.35-.57-.56-1.05-1.21-1.64-1.76-.19-.18-.25-.16-.34.04-.06.12-.12.23-.24.31-.42.31-.7.73-.98,1.16-.54.84-1.29,1.36-2.23,1.67-1.19.4-2.37.3-3.57.09-.4-.07-.81-.16-1.24-.1-.18.02-.3-.01-.2-.28.19-.51.63-.78.97-1.14.39-.42.84-.77,1.29-1.13.51-.4,1.14-.56,1.71-.86.35-.18.74-.22,1.09-.37.39-.16.78-.29,1.18-.38.23-.05.45-.04.69.02.35.09.7.15,1.14.24-.58-.66-1.13-1.25-1.76-1.74-.16-.13-.34-.25-.49-.39-.13-.13-.2-.13-.29.05-.53,1.07-1.4,1.85-2.37,2.46-.67.42-1.47.65-2.29.66-.88.02-1.75.03-2.63.03-.14,0-.39-.01-.17-.28.06-.08.07-.2.16-.27.39-.28.63-.68.9-1.06.25-.35.6-.58.94-.81.55-.37,1.13-.73,1.77-.93.22-.07.43-.16.67-.11.06.01.15-.03.21-.07.43-.21.87-.36,1.34-.44.23-.04.45.04.69.02-.28-.2-.54-.42-.83-.6-.11-.07-.23.04-.34.09-.42.17-.85.28-1.31.3-.52.02-1.01-.14-1.46-.35-.65-.31-1.34-.57-1.92-1.03-.76-.6-1.4-1.28-1.65-2.24-.11-.39-.35-.68-.66-.91-.18-.13-.35-.26-.54-.38-.12-.08-.15-.18-.12-.31.04-.16.18-.1.27-.09.76.09,1.52.18,2.27.28,1.3.17,2.53.55,3.57,1.44.47.4.89.85,1.41,1.2.39.26.57.72.72,1.16.11.32.29.55.55.7.2.12.39.25.58.37.07.05.15.14.23.08.07-.06.03-.16,0-.25-.31-.64-.37-1.35-.56-2.03-.29-1.03-.27-2.06-.05-3.1.19-.87.44-1.73.89-2.5.14-.24.33-.47.51-.68.2-.24.73-.22.95.01.5.52.7,1.17.82,1.86.08.45,0,.9-.05,1.35-.07.59-.04,1.19-.08,1.78-.06.96-.31,1.85-.89,2.61-.27.35-.59.66-.9.96-.2.19-.25.26,0,.5.75.7,1.68,1.19,2.4,1.92.02.02.06.02.11.03-.12-.67-.22-1.34-.14-2.01.2-1.58.59-3.12,1.24-4.58.25-.55.49-1.11.89-1.58.11-.13.15-.18.32-.04.46.37.59.9.73,1.41.31,1.12.35,2.26.16,3.41-.11.63-.38,1.16-.72,1.68-.36.55-.84.99-1.37,1.36-.3.21-.52.49-.72.78-.08.11.03.18.08.22.69.48,1.15,1.19,1.81,1.71.22.17.38.43.59.63-.34-.55-.3-1.17-.37-1.77-.14-1.12.28-2.1.62-3.12.23-.69.49-1.37.97-1.93.49-.57.98-1.13,1.47-1.7.15-.17.3-.2.48-.04.23.2.39.41.44.74.16,1.04.17,2.07-.03,3.09-.26,1.35-.89,2.51-1.78,3.54-.28.32-.65.55-1.03.74-.35.18-.59.8-.15,1.16.59.48,1.08,1.07,1.59,1.7,0-.3.02-.59.02-.87.01-.67.19-1.31.33-1.95.38-1.74,1.22-3.24,2.32-4.62.38-.47.89-.38,1.37-.35.45.03.73.36.86.79.04.14.09.27.14.4.16.41-.08.73-.24,1.05-.48.94-.95,1.88-1.5,2.78-.29.49-.77.81-1.15,1.22-.5.54-1.13.93-1.63,1.48-.17.19-.31.39-.03.65.58.57.99,1.3,1.64,1.82.08-.04.04-.13.03-.2-.11-1.11.24-2.12.7-3.11.67-1.45,1.57-2.75,2.57-3.97.4-.49.95-.85,1.43-1.26.1-.09.16-.1.25.06.38.69.35,1.42.21,2.14-.09.49-.16.99-.34,1.46-.21.53-.4,1.06-.66,1.57-.24.47-.52.91-.78,1.37-.04.07-.07.14-.13.19-.72.58-1.37,1.27-2.27,1.6-.18.06-.34.14-.45.31-.08.13-.22.07-.38.12.67.68,1.13,1.51,1.79,2.23.1-.25,0-.49.07-.72.16-.54.47-1,.75-1.47.52-.85,1.02-1.71,1.52-2.57.55-.94,1.25-1.76,2.21-2.33.23-.14.41-.36.61-.55.21-.21.27-.2.36.1.03.09.06.19.06.29.04.96-.02,1.89-.37,2.8-.34.87-.69,1.74-1.18,2.54-.45.75-1.12,1.29-1.92,1.59-.44.17-.91.3-1.37.43-.18.05-.31.15-.45.25.63.85,1.27,1.7,1.91,2.56.1-.06.12-.17.12-.27.06-1.07.4-2.03,1-2.93.77-1.15,1.7-2.12,2.76-2.99.4-.32.9-.51,1.27-.88.09-.09.17-.22.27-.29.09-.06.07-.26.21-.2.14.06.13.26.11.35-.32,1.3-.56,2.63-1.14,3.86-.44.92-.94,1.8-1.66,2.52-.25.25-.57.41-.91.5-.35.08-.63.3-.95.44-.19.08-.4.13-.59.22-.19.08-.16.16-.09.29.22.37.44.73.66,1.1.24.41.49.81.74,1.21.07.11.14.22.27.28.06-1.45.66-2.66,1.56-3.77.52-.64,1.16-1.08,1.81-1.56.75-.55,1.61-.91,2.3-1.54.09-.08.17-.16.23-.27.05-.09.1-.15.23-.1.12.05.09.1.12.2.16.57.06,1.15.05,1.73,0,.09.01.17.1.23.37.25.74.51,1.12.74,1.21.73,2.29,1.6,3.08,2.79.16.23.35.45.56.64.55.48.8,1.13,1.04,1.78.14.37.17.78.27,1.17.3-1.3.8-2.54,1.03-3.85.03-.18.22-.39.09-.52-.1-.11-.36-.05-.53-.1-.57-.14-1.1-.37-1.64-.58-.77-.29-1.53-.6-2.19-1.11-.83-.64-1.36-1.48-1.67-2.47-.34-1.06-.85-2.03-1.48-2.95-.05-.08-.17-.14-.09-.25.08-.1.21-.04.27,0,.84.55,1.8.84,2.65,1.36,1.17.73,2.28,1.55,3.18,2.59.39.45.72.96,1.05,1.46.29.42.43.89.67,1.37.08-.41.14-.8.24-1.17.3-1.11.46-2.25.71-3.37.03-.14.04-.24-.14-.15-.23.1-.46.05-.69.02-1.32-.21-2.53-.69-3.6-1.52-.74-.57-1.39-1.19-1.74-2.07-.14-.36-.22-.74-.37-1.09-.34-.78-.85-1.45-1.47-2.03-.08-.07-.18-.12-.11-.24.06-.1.18-.07.27-.04,1.1.3,2.13.75,3.1,1.35.86.52,1.65,1.16,2.49,1.71.56.37.93.93,1.35,1.44.38.47.75.95.92,1.55.04.13-.02.28.1.41.29-1.41.36-2.85,1.05-4.18-.41-.07-.75.03-1.09.08-1.05.16-1.97,0-2.78-.76-.39-.37-.86-.67-1.2-1.11-.39-.49-.63-1.07-.9-1.63-.43-.92-.92-1.79-1.6-2.55-.09-.1-.17-.2-.29-.27-.07-.04-.13-.12-.1-.19.03-.09.13-.09.22-.08.4.06.75.25,1.11.4.34.14.7.25,1.04.4,1.18.5,2.2,1.28,3.22,2.04.54.4.95.97,1.43,1.46.37.38.62.84.86,1.3.03.06.06.12.17.15.11-.4.4-.74.45-1.18.03-.2.16-.36.23-.54.19-.47.35-.94.54-1.41.09-.23,0-.27-.2-.26-.65.04-1.3.13-1.92-.12-.97-.38-1.97-.7-2.79-1.36-.47-.38-.79-.91-1.06-1.45-.31-.6-.65-1.19-.93-1.8-.13-.28-.36-.52-.57-.76-.1-.12-.14-.25-.08-.36.07-.13.2,0,.29.02,1.18.25,2.29.67,3.29,1.4.67.48,1.43.83,2.1,1.32.29.21.55.44.8.69.53.55,1.11,1.06,1.3,1.92.31-.45.39-.88.5-1.29.16-.6.39-1.17.58-1.75.07-.22.06-.3-.2-.3-.5.02-.94-.2-1.41-.32-.92-.25-1.77-.67-2.63-1.06-1.02-.47-1.64-1.33-2.12-2.3-.26-.52-.31-1.07-.36-1.63-.07-.86-.41-1.66-.69-2.47-.03-.09-.12-.17-.03-.27.11-.11.18,0,.25.05,1.05.63,2.16,1.17,3.11,1.95.43.36.83.76,1.14,1.23.43.67.95,1.29,1.47,1.9.49.58.82,1.24,1.17,1.91.12.23.28.44.44.69.46-1.27,1.38-2.28,1.7-3.6-.68.11-1.26-.16-1.83-.49-1.05-.61-2-1.32-2.85-2.19-1.18-1.21-1.81-2.65-1.86-4.35-.02-.65-.16-1.29-.35-1.91-.03-.09-.08-.17,0-.24.09-.08.17,0,.24.05,1.12.83,2.38,1.46,3.4,2.43.26.24.49.5.67.81.8,1.41,1.77,2.74,2.38,4.26.15.37.4.71.48,1.17.2-.34.43-.66.6-1.02.24-.51.42-1.04.71-1.52.07-.13.15-.22-.13-.24-.67-.06-1.16-.47-1.58-.98-.32-.39-.67-.75-1.03-1.1-.71-.69-1.3-1.45-1.7-2.37-.28-.63-.3-1.3-.43-1.96-.17-.89-.33-1.78-.69-2.62-.03-.08-.07-.17,0-.25.05-.05.12-.02.18,0,.61.34,1.24.63,1.77,1.09.76.67,1.33,1.51,1.77,2.4.43.88.89,1.74,1.18,2.69.24.81.49,1.62.75,2.42.04.14.07.3.19.44.23-.38.46-.74.69-1.11.34-.57.68-1.14,1.01-1.71.04-.08.21-.19-.01-.28-.79-.29-1.34-.89-1.89-1.48-.51-.54-1.03-1.09-1.48-1.68-.68-.91-1.15-1.92-1.23-3.08-.02-.3.09-.61.11-.91.04-.89-.05-1.76-.21-2.64-.02-.1-.07-.22-.14-.29-.09-.1-.08-.2,0-.26.08-.07.18-.04.27.04.32.32.67.6.97.94.36.42.73.82,1.04,1.28.56.83,1.02,1.72,1.51,2.58.41.72.81,1.45.98,2.26.19.92.42,1.84.44,2.8.47-1.01.97-2,1.53-2.97-1.13-.44-1.82-1.3-2.28-2.37-.4-.93-.8-1.86-1.05-2.84-.33-1.26-.39-2.54-.22-3.84.08-.55.13-1.12-.14-1.65-.04-.09-.08-.2.04-.26.11-.06.16.04.21.11.64.92,1.52,1.63,2.13,2.57.41.63.65,1.33.87,2.05.37,1.22.63,2.47.9,3.72.08.36,0,.7-.05,1.05-.03.18-.01.35.01.56.26-.28.38-.6.53-.91.35-.75.69-1.5,1.04-2.24.05-.11.09-.19-.06-.25-.54-.22-.89-.66-1.25-1.09-.89-1.04-1.4-2.28-1.89-3.53-.19-.49-.08-.99.07-1.46.29-.91.28-1.82.2-2.74-.03-.35,0-.7-.11-1.04-.02-.05,0-.14.07-.17.07-.03.12,0,.18.05.17.16.29.36.42.55.48.7.95,1.4,1.43,2.09.21.3.3.64.38.97.24,1.02.48,2.04.78,3.04.2.67.28,1.38.24,2.09,0,.14-.05.26-.1.38-.05.14-.09.27,0,.44.58-1.15,1.27-2.21,1.89-3.3.06-.1.07-.16-.06-.2-.62-.19-.92-.7-1.17-1.22-.17-.36-.35-.71-.55-1.05-.33-.57-.35-1.22-.43-1.85-.07-.58-.08-1.16-.15-1.74-.03-.28-.02-.55.02-.82.12-.8-.07-1.55-.24-2.32-.01-.06-.03-.13-.04-.19,0-.06,0-.11.05-.15.08-.06.12.02.16.06.38.29.58.72.85,1.1.53.75.85,1.59,1.11,2.47.13.45.39.86.58,1.28.56,1.24.7,2.52.24,3.83-.02.07-.08.14-.02.23.39-.56.77-1.12,1.16-1.67.18-.25.36-.5.55-.73.16-.19.16-.31-.11-.35-.12-.02-.23-.07-.34-.11-.07.1-.95-.67-1.21-1.17-.62-1.19-1.08-2.4-.9-3.79.14-1.11.29-2.23.21-3.36-.02-.25-.04-.5-.09-.75-.02-.1-.08-.2.03-.26.1-.06.19,0,.26.09.32.36.64.72.96,1.08.14.16.29.3.42.46.4.52.6,1.12.77,1.75.22.82.31,1.66.44,2.5.12.8.15,1.62.13,2.44,0,.16.01.32.03.56.97-1.09,1.77-2.22,2.57-3.36-.38-.07-.69-.28-.93-.56-1-1.16-1.69-2.47-1.83-4.01-.07-.74.07-1.49.26-2.21.16-.62.31-1.23.28-1.88,0-.15.16-.2.35-.09.27.15.5.37.72.59.43.42.66.96.87,1.51.34.88.67,1.76.78,2.72.08.74.03,1.47-.07,2.2-.06.42-.11.84-.17,1.35.52-.59,1.02-1.1,1.44-1.66.33-.44.73-.81,1.09-1.22.14-.16.18-.23-.02-.4-.56-.5-1.13-.99-1.58-1.59-.59-.8-.81-1.72-.63-2.72.14-.8.2-1.62.19-2.43,0-.34.03-.68.06-1.02.02-.23.16-.22.33-.16.53.2.89.62,1.21,1.05.54.73.83,1.57,1,2.46.13.7.28,1.38.26,2.1-.02.62-.11,1.23-.25,1.83-.02.06,0,.13-.02.26.39-.37.74-.71,1.09-1.05.06-.05.04-.12.04-.19-.03-.66.12-1.26.53-1.8.63-.82,1.22-1.67,2.05-2.31.94-.72,1.94-1.32,3.05-1.75.06-.02.12-.05.19-.07.11-.05.22-.2.32-.1.1.1.14.28.09.43-.33,1.16-.74,2.27-1.55,3.2-.49.56-.97,1.11-1.6,1.51-.83.52-1.64,1.07-2.63,1.28-.34.07-.55.4-.79.64-.14.14-.24.31-.38.5.87-.15,1.71-.29,2.55-.47,1.05-.23,2.12-.34,3.21-.14.77.14,1.52.32,2.28.49.15.03.27.14.43.16.14.01.06.15.03.21-.09.18-.26.3-.42.41-.84.57-1.64,1.21-2.64,1.53-.45.15-.9.1-1.34.1-1,.01-1.93-.28-2.79-.77-.32-.18-.62-.4-.82-.73-.1-.17-.24-.33-.49-.32-.17,0-.35.04-.46.18-.62.77-1.29,1.51-1.87,2.31-.14.19-.32.36-.54.6.36,0,.67.02.97,0,.92-.08,1.8.01,2.71.24.96.24,1.81.62,2.58,1.22.57.44,1.16.86,1.74,1.28.13.1.28.18.43.25.08.04.15.07.15.15,0,.1-.1.1-.17.12-.53.19-1.1.21-1.65.32-1.04.21-2.08.19-3.11-.05-1.27-.29-2.3-.94-3.01-2.06-.2-.33-.46-.62-.68-.93-.13-.18-.23-.18-.36,0-.44.6-.9,1.18-1.32,1.79-.28.41-.6.79-.91,1.17-.05.06-.08.13-.13.22.8-.27,1.59-.2,2.38-.15.82.05,1.63.2,2.45.3.81.1,1.5.45,2.13.96.52.42,1.12.72,1.75.97.1.04.25.06.24.18,0,.15-.17.11-.26.14-1.1.25-2.2.51-3.31.72-1.53.28-2.97.02-4.23-.94-.49-.37-.75-.95-1.12-1.42-.19-.25-.38-.27-.55,0-.53.8-1.04,1.62-1.52,2.52.28-.09.52-.17.75-.25.75-.24,1.51-.2,2.26-.04.95.19,1.86.51,2.71.98.52.29.99.65,1.5.95.54.32,1.11.57,1.73.69.1.02.17.05.18.16,0,.11-.08.1-.16.12-1.26.33-2.52.71-3.83.58-1.5-.15-2.99-.43-4.25-1.35-.4-.29-.81-.61-.93-1.15-.02-.09-.05-.22-.16-.23-.12-.01-.15.12-.2.2-.56.97-1.12,1.93-1.68,2.9-.02.04-.02.1-.04.18.34-.08.65-.14.95-.23,1-.28,1.97-.18,2.96.11.54.16.98.47,1.46.73.92.48,1.88.88,2.85,1.27.44.18.85.41,1.32.51.07.01.12.06.12.13,0,.09-.07.09-.13.12-.15.08-.31.11-.48.13-1.1.14-2.19.39-3.3.45-1.3.07-2.61.13-3.88-.27-1.09-.34-1.92-.98-2.33-2.13-.68,1.06-.94,2.26-1.53,3.37.67-.32,1.33-.48,1.97-.68.89-.28,1.72-.07,2.54.27.73.3,1.42.71,2.15,1.01.98.4,1.95.82,3.01.98.07.01.17-.03.19.08.02.1-.08.12-.14.16-.41.24-.87.38-1.32.49-1.19.3-2.38.64-3.61.77-.7.07-1.36-.09-2.04-.19-.98-.14-1.66-.78-2.37-1.38-.26-.22-.54-.41-.73-.81-.47,1.11-.97,2.12-1.6,3.11.53-.1.96-.31,1.41-.47.84-.29,1.61-.15,2.34.28.78.45,1.61.78,2.47,1.04.45.13.9.29,1.33.48.31.14.64.17.96.22.39.07.75.25,1.14.3.05,0,.14.04.14.11,0,.08-.08.09-.13.13-.84.55-1.77.86-2.76,1.02-.66.11-1.31.28-2,.26-.65-.02-1.25-.22-1.85-.46-.47-.19-.97-.27-1.41-.53-.28-.17-.51-.36-.71-.61-.29-.37-.59-.74-.88-1.12-.13-.18-.27-.22-.39-.03-.54.85-1.07,1.72-1.55,2.61,0,.02,0,.04,0,.07.12.07.23-.03.34-.05,1.02-.24,2.01,0,3,.2,1.48.3,2.78,1.04,4.12,1.68.72.34,1.47.59,2.26.72.09.01.23,0,.23.13,0,.11-.12.1-.19.14-.45.22-.95.26-1.41.43-.81.3-1.64.59-2.49.74-.63.11-1.26-.08-1.87-.31-.77-.29-1.46-.71-2.15-1.14-.61-.38-1.11-.87-1.46-1.5-.13-.23-.34-.39-.5-.58-.1-.12-.17.03-.21.11-.23.44-.48.86-.65,1.32-.17.45-.44.84-.59,1.29,1.11-.19,2.17-.07,3.21.35.83.33,1.68.62,2.46,1.09.47.28.95.56,1.45.76.61.25,1.24.41,1.87.61.06.02.14,0,.16.08.03.1-.06.13-.12.17-.15.09-.32.07-.48.1-.98.23-1.96.39-2.96.49-.96.09-1.87-.09-2.8-.31-1.12-.27-1.78-1.05-2.45-1.87-.13-.16-.18-.37-.24-.57-.04-.12-.07-.26-.24-.28-.19-.02-.22.15-.26.25-.29.64-.56,1.29-.84,1.94-.18.41-.34.82-.44,1.27.85-.29,1.71-.56,2.6-.45,1.11.14,2.23.09,3.33.26.62.1,1.08.47,1.57.82.51.36,1.04.69,1.68.78.1.01.17.03.19.15.01.1-.02.13-.12.19-.86.55-1.82.83-2.77,1.14-.27.09-.57.07-.85.22.38.13.73.27,1.1.37.39.1.61.46.98.59.15.05.43,0,.44.21,0,.18-.26.19-.41.27-.84.49-1.72.89-2.6,1.29-1.37.62-2.66.38-3.94-.23-.49-.24-.95-.54-1.43-.79-.26-.14-.46-.41-.69-.62-.5-.44-.62-.41-.85.22-.33.92-.67,1.84-1.01,2.75-.02.05-.03.1-.07.21.81-.45,1.64-.3,2.45-.3.92,0,1.82-.19,2.74-.22.66-.02,1.25.13,1.8.52.38.28.84.45,1.33.43.1,0,.16.08.21.14.08.1-.05.12-.1.16-.92.79-1.94,1.4-3.11,1.72-.34.09-.72.06-1.09.06-.85,0-1.7-.05-2.48-.44-.63-.32-1.18-.77-1.61-1.34-.08-.11-.06-.21-.06-.34-.21.07-.31.19-.36.37-.25.97-.5,1.94-.76,2.9-.06.21-.13.42-.19.62-.02.07-.05.17-.01.22.06.08.13-.01.2-.05,1.07-.52,2.19-.86,3.4-.79.87.05,1.7.23,2.5.64.84.43,1.75.72,2.7.82.07,0,.17-.03.17.09,0,.07-.06.1-.13.12-1.02.29-1.94.81-2.86,1.32-.82.46-1.68.41-2.55.25-.58-.11-1.18-.16-1.74-.38-.7-.27-1.39-.56-1.9-1.16-.53,1.29-.46,2.66-.73,3.99.2,0,.31-.12.45-.2.59-.36,1.25-.49,1.92-.54,1.28-.08,2.56-.05,3.83.17.68.12,1.3.45,1.97.62.39.1.76.29,1.19.26.09,0,.19,0,.2.12,0,.11-.08.12-.16.16-.47.27-.92.58-1.41.83-.82.42-1.68.74-2.55,1.05-.95.35-1.88.24-2.83.12-.55-.07-1.12-.1-1.55-.49-.37-.34-.89-.54-1.08-1.08-.02-.04-.03-.11-.11-.11-.08,0-.07.07-.08.12-.3,1.46-.6,2.92-.91,4.38v.04c.6-.69,1.41-.79,2.24-.87.8-.07,1.58.16,2.37.15,1.1-.02,2.21.05,3.27-.32.05-.02.1-.06.15,0,.03.05.01.1-.02.15-.13.26-.42.29-.63.39-.55.25-.97.68-1.47,1-.85.55-1.65,1.21-2.64,1.5-.91.27-1.78.05-2.56-.5-.27-.19-.53-.43-.9-.5-.17.87-.3,1.75-.42,2.63-.09.64-.22,1.27-.33,1.91-.11.61-.11,1.24-.27,1.85-.02.07-.03.14.06.16.05,0,.13-.04.12-.09-.1-.4.21-.63.37-.91.16-.29.37-.55.58-.81.57-.69,1.33-.93,2.2-.95.53-.02,1.05-.11,1.53-.35.54-.27,1.1-.51,1.58-.89.09-.07.16-.13.25-.02.12.13-.03.16-.09.22-.7.67-1.14,1.52-1.66,2.32-.41.64-.81,1.28-1.56,1.56-.74.27-1.49.5-2.27.14-.14-.06-.3-.07-.45-.08-.52-.03-.68.12-.78.63-.25,1.34-.38,2.7-.47,4.05-.06.85-.06,1.71-.02,2.57.04.83.03,1.68.04,2.52.03,1.47.04,2.94.31,4.39.04.2,0,.41.15.66.09-.59.33-1.09.47-1.62.3-1.13.7-2.24,1.17-3.31.45-1.02.74-2.09,1.17-3.12.26-.63.57-1.23.84-1.86.38-.88.79-1.74,1.2-2.61.48-1.01,1-2,1.57-2.97.43-.74.8-1.51,1.17-2.29.21-.44.51-.82.76-1.24.66-1.15,1.35-2.28,2.04-3.41.41-.66.81-1.34,1.21-2,.42-.69.93-1.32,1.31-2.04.54-1.03,1.4-1.83,2.02-2.79.3-.46.42-1.01.59-1.53.08-.24.17-.47.21-.73.04-.26-.04-.39-.28-.48-.28-.09-.46-.3-.57-.56-.07-.18-.15-.38.17-.46.23-.06.34-.25.26-.5-.03-.12-.04-.27-.11-.34-.68-.64-.67-1.44-.6-2.29.08-.92.28-1.78.83-2.53.25-.34.61-.44.98-.51.34-.07.7-.09,1.04-.13.81-.1,1.16.61,1.24,1.25.18,1.41-.33,2.58-1.29,3.6-.3.32-.56.67-.73,1.12.13-.01.23-.02.33-.03.27-.04.38.06.34.33-.06.45-.18.85-.71.94-.18.03-.19.18-.2.3-.02.6-.22,1.16-.43,1.82.33-.3.57-.56.86-.77.75-.52,1.27-1.28,1.88-1.93.32-.34.66-.65.99-.97.88-.85,1.61-1.84,2.53-2.65.54-.48,1.02-1.02,1.64-1.41.51-.32.93-.76,1.42-1.11.34-.24.63-.52.89-.86.4-.51.96-.85,1.48-1.22.17-.12.27-.25.3-.43.05-.29.14-.56.29-.8.34-.54.45-1.18.7-1.75.05-.12-.06-.16-.12-.21-.28-.25-.43-.58-.57-.92-.07-.18-.04-.32.18-.31.24,0,.19-.1.12-.24-.21-.44-.45-.86-.64-1.31-.32-.79-.25-1.52.19-2.24.27-.44.53-.9.76-1.36.25-.49.74-.58,1.19-.73.51-.17,1.03-.2,1.52-.02.38.14.57.49.69.86.06.21.08.43.09.65.02,1.05-.26,2-.9,2.84-.22.29-.59.42-.83.7-.11.14-.21.27-.29.44-.12.26-.22.42.22.42.39,0,.53.52.27.88-.17.23-.41.37-.65.47-.39.16-.57.44-.63.84-.05.32-.16.63-.26,1.02.47-.25.88-.51,1.28-.79.99-.7,1.98-1.39,3.03-2.01.75-.44,3.04-2.28,3.1-2.33.73-.64,1.36-1.37,1.9-2.18.09-.14.18-.27.28-.43-.14-.05-.15-.77-.1-1,.15-.76.5-1.43.92-2.07.3-.47.5-.99.45-1.56-.02-.25.08-.24.26-.17.68.28.88.84.86,1.56.41-.31.75-.65,1.12-.93.35-.27.81-.34,1.11-.69.03-.04.16-.05.22.01.06.06-.04.12-.04.17-.02.19-.15.3-.27.39-.24.19-.36.43-.42.72-.09.42-.24.81-.57,1.14.56-.17.98.23,1.47.29.17.02.17.17.18.32.01.17-.08.22-.2.26-1,.3-1.91.74-2.73,1.4-.37.3-.82.47-1.32.43-.11-.01-.19.02-.25.12-.66,1.17-1.55,2.15-2.52,3.06-.05.04-.09.09-.19.2.56-.21,1.07-.35,1.59-.44.67-.11,1.33-.2,2-.04.08.02.2.06.22.13.19.54.75.59,1.13.88.34.27.75.44,1.14.65.09.05.17.07.28.04.97-.29,1.78.11,2.51.67.63.48,1.21,1.02,2,1.22.09.02.13.08.15.16.02.12-.1.08-.15.12-.22.2-.49.1-.69.05-.49-.11-1,.03-1.49-.17.29.76.87,1.22,1.5,1.62.1.06.22.11.18.23-.03.1-.18.1-.26.08-.48-.12-.99-.09-1.47-.22-.38-.11-.65-.41-.97-.6-.07-.04-.14-.11-.24-.12,0,.71-.35,1.24-.86,1.69-.07.06-.1.24-.21.16-.09-.07-.24-.12-.25-.27-.03-.58-.37-1.09-.37-1.68,0-.4.09-.8-.02-1.21-.05-.2-.08-.41-.1-.62,0-.09,0-.16-.12-.11-.06.02-.13-.04-.11-.08.09-.34-.2-.42-.38-.57-.49-.37-1.01-.71-1.57-.95-.58-.25-1.2-.24-1.83-.08-.94.24-1.83.6-2.75.9-.14.04-.24.12-.34.2-.58.47-1.21.83-1.85,1.21-.45.27-.91.53-1.39.75-.25.12-.53.19-.78.35.44.03.88.08,1.32.08.93,0,1.87-.04,2.8-.06.12,0,.18-.08.25-.14.33-.27.7-.44,1.13-.45.47-.01.95-.03,1.42-.03.26,0,.52.02.76.16.46.28.97.39,1.49.43.11,0,.24-.01.27.11.03.13-.13.12-.21.18-.22.16-.49.21-.74.3-.13.05-.27.09-.39.23,1.06.22,1.87.86,2.64,1.57-.15.08-.29.21-.54.1-.19-.07-.41-.07-.62-.06-.56.03-1.12-.05-1.7-.17.08.46.38.71.65.99.11.12.36.22.31.37-.07.2-.32.2-.52.2-.38.01-.73-.1-1.06-.28-.82-.46-1.61-.98-2.32-1.6-.23-.2-.44-.44-.6-.7-.25-.41-.61-.49-1.03-.47-.82.03-1.64.09-2.46,0-.8-.07-1.55.17-2.27.5-1.21.55-2.27,1.33-3.29,2.17-.38.32-.79.57-1.22.82-.26.15-.45.39-.66.59-.87.83-1.82,1.59-2.65,2.46-.3.31-.57.65-.87.99.63.22,1.19-.02,1.76-.15.03,0,.06-.04.09-.04.61.04.79-.47,1.07-.83.07-.1.15-.19.26-.17.13.02.08.15.1.25.03.16.03.33.29.14.32-.23.59-.48.79-.83.42-.76,1.08-1.21,1.87-1.52.57-.22,1.19-.32,1.74-.23.92.14,1.69.94,1.32,2.03-.41,1.19-1.11,2.2-2.13,2.96-.37.28-1.23.24-1.66-.05-.49-.32-.98-.62-1.48-.92-.27-.16-.37-.11-.42.21-.05.27-.43.67-.7.73-.22.05-.51-.25-.56-.58-.05-.33-.14-.39-.45-.25-.1.04-.2.09-.31.08-.67-.05-1.32.19-1.99.15-.35-.02-.66.22-.95.41-.88.57-1.56,1.34-2.21,2.14-.48.59-.98,1.17-1.51,1.71-.59.6-1.08,1.27-1.56,1.95-.44.62-.95,1.19-1.32,1.85-.3.53-.79.93-1.05,1.48-.3.63-.6,1.27-.98,1.86-.34.54-.58,1.12-.85,1.69-.12.26-.34.45-.49.7-.72,1.22-1.42,2.44-2.16,3.65-.79,1.29-1.49,2.63-2.09,4.02-.35.8-.79,1.56-1.15,2.35-.27.6-.43,1.24-.71,1.84-.37.78-.71,1.56-1.08,2.33-.43.9-.71,1.86-1.06,2.8-.26.69-.45,1.39-.72,2.08-.04.11-.17.25.07.29l.02.08c-.15.34.08.62.14.97.32-.45.5-.92.65-1.39.46-1.42,1.14-2.73,1.83-4.04.65-1.24,1.43-2.39,2.16-3.58.88-1.43,1.91-2.76,2.91-4.11.75-1.01,1.52-2,2.32-2.97.56-.68,1.17-1.34,1.82-1.94.45-.42.82-.92,1.2-1.41.44-.58,1.01-1.05,1.56-1.52.88-.74,1.72-1.51,2.51-2.35.4-.42.75-.86,1.03-1.34.27-.45.42-.98.6-1.48.05-.13.12-.24.17-.36.11-.23.26-.44-.03-.69-.19-.15-.12-.41,0-.61.11-.18.2-.43.54-.22-.09-.36-.21-.67.06-.93.02-.02.04-.06.07-.07.7-.27.69-.96.91-1.52.14-.37.25-.75.39-1.11.22-.58,1-.9,1.63-.77.5.09.96.21,1.34.56.19.17.28.36.31.6.08.69,0,1.33-.52,1.85-.43.42-.78.93-1.36,1.16-.26.1-.5.27-.76.31-.33.05-.38.35-.57.51-.11.1.1.19.02.35-.19.36-.5.51-.84.54-.28.02-.4.14-.5.34-.25.55-.58,1.07-.81,1.71.24-.19.41-.36.61-.49.93-.63,1.91-1.17,2.87-1.73,1.11-.64,2.26-1.22,3.33-1.92.79-.52,1.64-.95,2.46-1.42.11-.06.17-.15.21-.27.29-.84.96-1.4,1.54-2.03.1-.11.11-.13.02-.2-.25-.21-.17-.48-.17-.74,0-.23.38-.39.66-.32.16.04.28.05.26-.15-.1-.81.23-1.5.6-2.18.21-.39.28-.85.65-1.16.72-.59,1.49-1.05,2.46-1.05.63,0,1.21.62,1.32,1.25.1.55.13,1.07-.12,1.56-.31.6-.85.97-1.41,1.3-.64.37-1.29.73-1.98,1.01-.14.06-.28.13-.32.31-.08.33-.32.48-.64.47-.42-.01-.7.14-.9.51-.22.43-.61.73-.86,1.14-.02.04-.03.08-.06.16.21-.08.39-.07.57-.07.16,0,.3-.01.42.14.07.09.2.13.33.13.57.04,1.11.18,1.62.4.16.07.26.06.37-.09.1-.14.24-.25.37-.36.28-.24.44-.22.68.08.06-.21.26-.29.42-.39.55-.33.98-.85,1.61-1.07,1.06-.37,2.13-.45,3.18.06.46.22.75.61,1.01,1.04.59.98.31,2.04-.52,2.66-.83.61-1.77.91-2.78.64-.54-.15-1.08-.42-1.42-.94-.15-.24-.37-.41-.69-.44-.26-.03-.51-.14-.77-.18-.14-.02-.32-.1-.42.13-.06.15-.13.37-.34.36-.24-.01-.45-.15-.52-.39-.09-.33-.33-.33-.61-.37-.63-.1-1.27-.1-1.88-.4-.38-.19-.82-.03-1.22.21-.85.49-1.69,1.01-2.53,1.51-.49.29-1.05.49-1.51.84-.18.14-.33.31-.61.39.3.15.56.03.8.08.3.06.58.21.9.19.43-.02.86-.01,1.29.02.36.03.5-.22.68-.43.1-.11.13-.36.34-.29.22.07.35.28.41.5.12.45.1.42.53.25.5-.19.86-.6,1.37-.78.96-.34,1.91-.36,2.82.1.71.36,1.04,1.02,1.07,1.8.01.38.09.77-.05,1.14-.38,1.01-1.05,1.73-2.13,1.99-.85.21-1.87-.24-2.33-1.04-.32-.55-.73-1.04-1.12-1.54-.14-.18-.29-.39-.61-.16-.3.21-.61.07-.78-.28-.16-.32-.37-.41-.72-.39-.52.03-1.05-.02-1.58-.02-.88,0-1.77-.11-2.63.18-.34.11-.66.31-.95.51-.83.56-1.74.99-2.51,1.62-.56.46-1.13.91-1.61,1.46-.43.5-.9.97-1.43,1.36-.04.03-.09.03-.13.05.02.03.04.06.05.08.25.02.5.03.75.05.14,0,.17-.13.24-.2.35-.35,1.06-.23,1.26.22.05.1.09.1.18.08.71-.1,1.39-.27,2.08-.46,1.35-.37,2.11-.1,2.94,1.05.35.48.24,1.07.07,1.62-.17.55-.42,1.07-.84,1.43-.57.48-1.18.94-1.97.97-.49.02-.8-.36-1.16-.61-.44-.31-.65-.79-.83-1.28-.13-.37-.35-.69-.6-.98-.13-.15-.29-.24-.45,0-.12.18-.25.18-.47.09-.39-.16-.62-.34-.55-.8.03-.19-.11-.21-.26-.2-.82.02-1.56.16-2.18.8-.6.61-1.34,1.08-1.89,1.75-.49.59-.95,1.2-1.43,1.8-.63.78-1.33,1.5-1.89,2.34-.31.46-.58.95-.88,1.41-.36.57-.75,1.13-1.18,1.66-.37.47-.69.98-1.07,1.45-.24.3-.82,1.21-.88,1.38-.21.61-.59,1.12-.88,1.68-.34.66-.69,1.31-1.13,1.92-.27.37-.47.79-.69,1.2-.64,1.19-.95,2.5-1.48,3.79.21-.12.29-.29.35-.43.17-.37.45-.63.76-.87.1-.08.19-.02.2.06.02.13.13.26.07.38-.16.31-.12.65-.15.97-.03.45-.25.83-.36,1.25-.2.79-.23,1.58-.19,2.39.01.3-.09.58-.04.87.15.85.12,1.72.27,2.57.13.74.34,1.47.44,2.21.11.79.27,1.58.37,2.37.09.67.12,1.35.29,2,.13.48.39,2.33.32,2.63-.1.4-.45.52-.81.56-.79.09-1.3-.35-1.74-.93-.09-.12-.19-.25-.3-.35-.22-.19-.35-.37-.18-.67.05-.09.03-.24.03-.36.05-1.05-.09-2.09-.22-3.13-.16-1.27-.45-2.52-.6-3.78-.16-1.28-.56-2.47-.99-3.67-.15-.41-.22-.86-.55-1.16-.36-.33-.65-.71-.91-1.12-.15-.24-.21-.51-.24-.77-.05-.54-.06-1.08-.09-1.61,0-.09-.04-.19.06-.24.08-.04.14.04.21.07.61.29,1.06.78,1.54,1.25-.16-.36-.31-.72-.48-1.07-.46-.96-.94-1.92-1.27-2.94-.47-1.42-.95-2.83-1.54-4.21-.28-.65-.58-1.3-.81-2.02-.29.36-.41.76-.54,1.15-.24.69-.73,1.15-1.31,1.52-.48.3-1.02.49-1.55.71-.48.2-1.01.24-1.51.28-.68.05-1.33.2-1.92.53-.45.25-.98.33-1.39.66-.05.04-.13.05-.18-.02-.04-.05-.03-.11-.03-.18.02-.31.32-.39.45-.61.42-.65.75-1.34,1.21-1.96.28-.37.58-.71.97-.92.7-.38,1.32-.93,2.12-1.12.85-.2,1.71-.36,2.58-.43.2-.02.39-.06.59-.09.27-.03.27-.13.18-.36-.69-1.76-1.49-3.46-2.28-5.17-.16-.36-.22-.36-.45-.06-.08.1-.18.19-.28.28-.4.38-.83.72-1.14,1.19-.11.17-.31.24-.48.34-1.23.69-2.55.91-3.95.74-.8-.1-1.62-.23-2.42.08-.08.03-.16.08-.23-.03-.08-.11.02-.15.06-.22.5-.76,1.12-1.4,1.83-1.96.61-.48,1.31-.73,2.05-.93.27-.07.52.04.78,0,.57-.09,1.15-.16,1.73-.2.27-.02.54.08.8.12.45.07.88.13,1.31-.13-.31-.75-.66-1.49-1.03-2.23-.51-1.01-.93-2.06-1.52-3.03-.05-.08-.15-.2-.15-.19-.07.13-.26.07-.32.23-.35.95-1.15,1.3-2.04,1.53-.69.18-1.37.41-2.07.54-.44.08-.88.17-1.31.15-.79-.04-1.57-.04-2.35.05-.09,0-.21.07-.26-.07-.05-.12.08-.16.13-.2.69-.47,1.23-1.09,1.8-1.69.49-.51,1.13-.79,1.83-.91.19-.03.37-.06.56-.09.53-.08,1.06-.08,1.57.1.42.15.88.09,1.29.25.37.14.68-.22,1.1-.1-.79-1.43-1.53-2.79-2.31-4.2-.37.67-.87,1.18-1.36,1.7-.67.71-1.43,1.22-2.39,1.46-.69.17-1.35.44-2.05.6-.54.12-1.08.06-1.61.14-.1.02-.2.01-.3.01-.13,0-.32.15-.38-.03-.05-.14.12-.26.23-.36.47-.4.95-.78,1.4-1.18.38-.34.68-.76,1.05-1.21-.64.07-1.21.03-1.79,0-.59-.04-1.14-.25-1.72-.31-.37-.04-.73-.14-1.1-.05-.13.03-.26.04-.36.14-.08.07-.16.12-.26.04-.1-.09,0-.15.03-.23.12-.28.36-.44.59-.59.82-.51,1.49-1.18,2.17-1.84.36-.34.72-.54,1.22-.45.2.03.41-.05.6-.14.81-.42,1.61-.86,2.37-1.37.32-.22.72-.14,1.08-.31-.49-.73-.98-1.47-1.56-2.18-.46.92-1.11,1.64-1.9,2.25-1.1.86-2.32,1.41-3.73,1.51-.41.03-.83.17-1.24.14-.56-.04-1.03.12-1.49.39-.11.07-.17,0-.2-.09-.06-.14-.05-.27.1-.32.29-.1.55-.27.82-.42.39-.23.71-.54.98-.99-1.07.25-2.09.09-3.11.14-.1,0-.27.08-.29-.05-.02-.11.05-.28.14-.37.15-.16.32-.31.52-.41.51-.26.84-.69,1.19-1.11.63-.76,1.36-1.42,2.13-2.04.36-.29.77-.46,1.19-.65.38-.18.73-.43,1.14-.59.44-.17.9-.16,1.36-.27h0Z" fill="#000" stroke="#000" stroke-miterlimit="10" stroke-width=".25"/><path d="M83.08,47.81c.05-.12.11-.14.25-.11,1.16.22,2.34.38,3.5.65,1.37.32,2.76.21,4.14.33.16.01.33.03.44.24-1.17-.2-2.32-.05-3.45-.21-1.25-.18-2.48-.46-3.73-.67-.37-.06-.74-.09-1.11-.18l-.04-.05h0Z" fill="#000" stroke="#000" stroke-miterlimit="10" stroke-width=".25"/><path d="M70.27,49.63c.35.3.52.69.74,1.05.6.97,1.15,1.97,1.72,2.96.54.94,1.28,1.71,2.18,2.33.32.22.61.51.82.85.06.1.13.25.02.31-.11.07-.17-.08-.22-.17-.28-.44-.66-.79-1.09-1.08-.72-.5-1.24-1.16-1.69-1.89-.84-1.35-1.53-2.8-2.46-4.09-.04-.05-.11-.12-.02-.26h0Z" fill="#000" stroke="#000" stroke-miterlimit="10" stroke-width=".25"/><path d="M73.85,60.9c-.33-.5-.83-.76-1.29-1.09-.54-.38-.97-.9-1.45-1.37-.86-.84-1.72-1.69-2.46-2.65-.28-.36-.42-.79-.59-1.2-.02-.04-.04-.08,0-.11.06-.04.12,0,.13.05.05.14.1.28.16.42.37.83,1,1.46,1.63,2.09.73.73,1.47,1.46,2.21,2.18.33.32.71.55,1.11.78.32.19.49.51.54.9h0Z" fill="#000" stroke="#000" stroke-miterlimit="10" stroke-width=".25"/><path d="M81.71,46.41c-.08.11-.18.06-.25,0-.17-.14-.31-.31-.43-.5-.5-.79-.75-1.67-.97-2.57-.19-.78-.22-1.59-.43-2.37-.22-.85-.51-1.68-.89-2.47-.04-.08-.14-.17-.05-.23.11-.08.17.06.21.14.09.15.17.31.23.47.46,1.24.75,2.52.96,3.83.17,1.03.4,2.06,1.03,2.93.15.21.32.41.48.61.03.04.06.09.09.16h0Z" fill="#000" stroke="#000" stroke-miterlimit="10" stroke-width=".25"/><path d="M60.83,76.04c0,.28-.18.42-.31.59-.66.82-1.34,1.63-1.98,2.46-.53.69-.97,1.43-1.56,2.08-.06.07-.12.13-.18.19-.06.06-.12.16-.21.06-.07-.08,0-.14.06-.19.27-.32.58-.59.83-.93.75-1.04,1.52-2.07,2.29-3.09.19-.25.41-.49.66-.69.17-.14.15-.4.4-.48h0Z" fill="#000" stroke="#000" stroke-miterlimit="10" stroke-width=".25"/><path d="M53.67,66.25c.07.2-.1.2-.14.3-.58,1.3-1.25,2.56-1.92,3.82-.33.62-.59,1.28-.92,1.9-.04.08-.08.24-.19.19-.13-.06-.02-.17.03-.25.64-1.15,1.13-2.39,1.86-3.49.16-.24.26-.51.36-.78.2-.58.59-1.07.77-1.66.02-.06.07-.09.13-.08.03,0,.04.06.03.05h0Z" fill="#000" stroke="#000" stroke-miterlimit="10" stroke-width=".25"/><path d="M69.26,78.65c-.23.05-.33.02-.45-.07-.6-.44-1.1-.98-1.65-1.47-.51-.46-1.11-.82-1.63-1.26-.94-.8-1.9-1.57-2.65-2.57-.1-.14-.1-.14-.12-.36.16.2.31.4.49.58.95.97,1.9,1.94,3.06,2.67.72.46,1.31,1.09,1.95,1.65.31.27.63.53,1,.83h0Z" fill="#000" stroke="#000" stroke-miterlimit="10" stroke-width=".25"/><path d="M86.72,56.61c-.01.1-.07.11-.13.1-2.32-.36-4.48-1.27-6.74-1.85.36-.15.68.03,1,.13.87.26,1.74.54,2.61.79.85.24,1.69.53,2.56.69.22.04.46.08.69.14h0Z" fill="#000" stroke="#000" stroke-miterlimit="10" stroke-width=".25"/><path d="M40.88,75.69c.07-.15.2-.26.34-.33.72-.35,1.32-.9,2.04-1.24.76-.36,1.54-.7,2.32-1.02.41-.17.72-.44.98-.79.04-.06.08-.21.19-.13.14.1-.03.17-.07.23-.4.66-1.1.87-1.76,1.13-.87.34-1.71.74-2.49,1.26-.45.3-.9.59-1.36.87-.05.03-.11.08-.2.01h0Z" fill="#000" stroke="#000" stroke-miterlimit="10" stroke-width=".25"/><path d="M46.25,77.22c.03.19-.14.2-.25.26-1.04.54-2.08,1.06-3.13,1.59-.05.03-.12.11-.17.04-.08-.09.02-.14.08-.17.35-.18.69-.37,1.04-.53.75-.34,1.5-.68,2.21-1.11.06-.04.13-.1.21-.07h0Z" fill="#000" stroke="#000" stroke-miterlimit="10" stroke-width=".25"/><path d="M46.25,77.22c.97-.81,2.03-1.51,2.84-2.5-.04.23-.17.42-.32.57-.72.69-1.5,1.31-2.3,1.92-.1.08-.15.06-.22,0h0Z" fill="#000" stroke="#000" stroke-miterlimit="10" stroke-width=".25"/><path d="M79.18,74.24c-.85,0-1.63-.02-2.41,0-1.04.03-2.07-.06-3.11-.18-.22-.03-.45.07-.68.1-.07.01-.17.03-.19-.08-.02-.11.09-.09.16-.12.37-.13.75-.05,1.12,0,.69.09,1.37.13,2.06.17.79.05,1.58-.03,2.37-.04.21,0,.43.02.67.14h0Z" fill="#000" stroke="#000" stroke-miterlimit="10" stroke-width=".25"/><path d="M51.31,63.35c-.47,1.2-1.14,2.26-1.64,3.39-.32.73-.66,1.44-.95,2.18-.11.28-.32.53-.33.86,0,.07-.06.13-.13.11-.1-.03-.07-.1-.06-.19.07-.42.35-.75.51-1.14.47-1.12.98-2.23,1.53-3.32.3-.59.72-1.13.87-1.8.03-.14.12-.04.2-.1h0Z" fill="#000" stroke="#000" stroke-miterlimit="10" stroke-width=".25"/><path d="M96.7,38.15c-.06.04-.14.1-.23.08-1.04-.3-2.11-.46-3.16-.7-.82-.19-1.66-.33-2.48-.55-.36-.1-.71-.28-1.06-.42-.07-.03-.13-.05-.11-.13.02-.09.09-.07.16-.08.07,0,.13,0,.19.05.83.55,1.81.62,2.74.84.82.19,1.66.31,2.47.55.43.13.88.15,1.33.22.08.01.16,0,.15.15h0Z" fill="#000" stroke="#000" stroke-miterlimit="10" stroke-width=".25"/><path d="M59.07,101.62c.08.15-.04.19-.13.25-.78.52-1.59,1.01-2.34,1.59-.06.05-.13.08-.25.01.88-.69,1.89-1.15,2.73-1.84h0Z" fill="#000" stroke="#000" stroke-miterlimit="10" stroke-width=".25"/><path d="M62.55,100.22c-.66.19-1.33.38-1.99.57.61-.37,1.3-.48,1.99-.57h0Z" fill="#000" stroke="#000" stroke-miterlimit="10" stroke-width=".25"/><path d="M59.07,101.63c.26-.17.52-.33.79-.5-.21.26-.42.51-.79.49h0Z" fill="#000" stroke="#000" stroke-miterlimit="10" stroke-width=".25"/><path d="M89.51,24.4c.2.28.29.57.33.87.09.81.33,1.59.34,2.41.02,1.29.33,2.51.82,3.72-.22-.17-.35-.56-.48-.93-.57-1.52-.36-3.15-.75-4.69-.08-.33-.12-.68-.25-1.01-.04-.11-.09-.22,0-.37h0Z" fill="#000" stroke="#000" stroke-miterlimit="10" stroke-width=".25"/><path d="M42.72,64.89c.78-2.1,1.35-4.26,1.72-6.47-.21,2.25-.81,4.4-1.72,6.47h0Z" fill="#000" stroke="#000" stroke-miterlimit="10" stroke-width=".25"/><path d="M79.26,58.46c-.33-.06-.66-.13-.97-.28-.12-.05-.29-.12-.21-.27.1-.17.2,0,.29.06.29.18.67.19.91.46l-.02.03h0Z" fill="#000" stroke="#000" stroke-miterlimit="10" stroke-width=".25"/><path d="M95.44,29.08c.07-.28.26-.08.33-.05.54.25,1.12.32,1.69.35.59.04,1.18,0,1.77,0,.46,0,.92.02,1.36-.12.38-.11.73-.31,1.12-.36.12-.01.24-.06.36.08-.52.09-.99.26-1.47.43-.58.21-1.18.12-1.77.13-.96,0-1.93.03-2.87-.24-.2-.05-.35-.18-.54-.23h.01Z" fill="#000" stroke="#000" stroke-miterlimit="10" stroke-width=".25"/><path d="M100.36,22.61c.16-.25.38-.43.63-.58-.15.26-.41.41-.63.58h0Z" fill="#000" stroke="#000" stroke-miterlimit="10" stroke-width=".25"/><path d="M49.9,77.74c.08-.15.26-.16.38-.24.19-.14.43-.21.5-.48.02-.07.07-.09.13-.07.09.03.02.09,0,.13-.03.13-.11.26-.22.31-.26.12-.45.37-.76.37l-.03-.03h0Z" fill="#000" stroke="#000" stroke-miterlimit="10" stroke-width=".25"/><path d="M48.63,78.34c.39-.28.84-.42,1.27-.6l.03.03c-.4.26-.81.51-1.31.56h0Z" fill="#000" stroke="#000" stroke-miterlimit="10" stroke-width=".25"/><path d="M60.35,84.01c.14.04.07.13.03.19-.23.42-.46.84-.69,1.26-.12.23-.24.47-.36.7-.03.06-.03.15-.13.18-.08.03-.14.13-.23.05-.09-.08-.01-.16.04-.22.3-.35.54-.75.72-1.17.12-.29.37-.51.44-.83.02-.07.04-.19.18-.16h0Z" fill="#000" stroke="#000" stroke-miterlimit="10" stroke-width=".25"/><path d="M62.35,81.1c.14-.03.2.03.13.16-.24.43-.4.9-.61,1.35-.01.03-.04.06-.06.08-.05.05-.07.16-.18.09-.12-.07-.05-.16,0-.23.32-.45.49-.98.73-1.47h-.01Z" fill="#000" stroke="#000" stroke-miterlimit="10" stroke-width=".25"/></svg>