<?xml version="1.0" encoding="UTF-8"?><svg id="Layer_1" xmlns="http://www.w3.org/2000/svg" viewBox="0 0 144.57 144.57"><rect x="32.4" y="85.45" width=".63" height="6.34" fill="#000" stroke-width="0"/><path d="M29.83,94.56c0-.9.56-1.43,1.26-1.43.34,0,.62.16.79.35l-.26.31c-.14-.14-.31-.24-.52-.24-.45,0-.77.38-.77.99s.3,1.01.76,1.01c.24,0,.43-.11.59-.28l.26.31c-.22.26-.51.4-.87.4-.69,0-1.24-.51-1.24-1.42Z" fill="#000" stroke-width="0"/><path d="M32.4,93.17h.49v1.1h1.11v-1.1h.49v2.75h-.49v-1.22h-1.11v1.22h-.49v-2.75Z" fill="#000" stroke-width="0"/><path d="M34.9,96.36l.16-.22c.11.11.26.2.44.2.2,0,.35-.11.35-.28,0-.19-.12-.32-.55-.32v-.25c.37,0,.49-.13.49-.3,0-.16-.1-.25-.28-.25-.14,0-.26.07-.37.18l-.18-.21c.16-.14.34-.24.56-.24.36,0,.6.18.6.49,0,.21-.12.35-.33.43h0c.22.07.39.23.39.48,0,.34-.3.54-.66.54-.3,0-.5-.12-.63-.26Z" fill="#000" stroke-width="0"/><path d="M61.48,74.57c0-.9.56-1.43,1.26-1.43.34,0,.62.16.79.35l-.26.31c-.14-.14-.31-.24-.52-.24-.45,0-.77.38-.77.99s.3,1.01.76,1.01c.24,0,.43-.11.59-.28l.26.31c-.22.26-.51.4-.87.4-.69,0-1.24-.51-1.24-1.42Z" fill="#000" stroke-width="0"/><path d="M64.05,73.19h.49v1.1h1.11v-1.1h.49v2.75h-.49v-1.22h-1.11v1.22h-.49v-2.75Z" fill="#000" stroke-width="0"/><path d="M66.55,76.38l.16-.22c.11.11.26.2.44.2.2,0,.35-.11.35-.28,0-.19-.12-.32-.55-.32v-.25c.37,0,.49-.13.49-.3,0-.16-.1-.25-.28-.25-.14,0-.26.07-.37.18l-.18-.21c.16-.14.34-.24.56-.24.36,0,.6.18.6.49,0,.21-.12.35-.33.43h0c.22.07.39.23.39.48,0,.34-.3.54-.66.54-.3,0-.5-.12-.63-.26Z" fill="#000" stroke-width="0"/><path d="M74.5,70.53c0-.9.56-1.43,1.26-1.43.34,0,.62.16.79.35l-.26.31c-.14-.14-.31-.24-.52-.24-.45,0-.77.38-.77.99s.3,1.01.76,1.01c.24,0,.43-.11.59-.28l.26.31c-.22.26-.51.4-.87.4-.69,0-1.24-.51-1.24-1.42Z" fill="#000" stroke-width="0"/><path d="M77.07,69.14h.49v1.1h1.11v-1.1h.49v2.75h-.49v-1.22h-1.11v1.22h-.49v-2.75Z" fill="#000" stroke-width="0"/><path d="M79.57,72.34l.16-.22c.11.11.26.2.44.2.2,0,.35-.11.35-.28,0-.19-.12-.32-.55-.32v-.25c.37,0,.49-.13.49-.3,0-.16-.1-.25-.28-.25-.14,0-.26.07-.37.18l-.18-.21c.16-.14.34-.24.56-.24.36,0,.6.18.6.49,0,.21-.12.35-.33.43h0c.22.07.39.23.39.48,0,.34-.3.54-.66.54-.3,0-.5-.12-.63-.26Z" fill="#000" stroke-width="0"/><path d="M97.19,70.53c0-.9.56-1.43,1.26-1.43.34,0,.62.16.79.35l-.26.31c-.14-.14-.31-.24-.52-.24-.45,0-.77.38-.77.99s.3,1.01.76,1.01c.24,0,.43-.11.59-.28l.26.31c-.22.26-.51.4-.87.4-.69,0-1.24-.51-1.24-1.42Z" fill="#000" stroke-width="0"/><path d="M99.76,69.14h.49v1.1h1.11v-1.1h.49v2.75h-.49v-1.22h-1.11v1.22h-.49v-2.75Z" fill="#000" stroke-width="0"/><path d="M102.26,72.34l.16-.22c.11.11.26.2.44.2.2,0,.35-.11.35-.28,0-.19-.12-.32-.55-.32v-.25c.37,0,.49-.13.49-.3,0-.16-.1-.25-.28-.25-.14,0-.26.07-.37.18l-.18-.21c.16-.14.34-.24.56-.24.36,0,.6.18.6.49,0,.21-.12.35-.33.43h0c.22.07.39.23.39.48,0,.34-.3.54-.66.54-.3,0-.5-.12-.63-.26Z" fill="#000" stroke-width="0"/><path d="M120.31,70.53c0-.9.56-1.43,1.26-1.43.34,0,.62.16.79.35l-.26.31c-.14-.14-.31-.24-.52-.24-.45,0-.77.38-.77.99s.3,1.01.76,1.01c.24,0,.43-.11.59-.28l.26.31c-.22.26-.51.4-.87.4-.69,0-1.24-.51-1.24-1.42Z" fill="#000" stroke-width="0"/><path d="M122.87,69.14h.49v1.1h1.11v-1.1h.49v2.75h-.49v-1.22h-1.11v1.22h-.49v-2.75Z" fill="#000" stroke-width="0"/><path d="M125.38,72.34l.16-.22c.11.11.26.2.44.2.2,0,.35-.11.35-.28,0-.19-.12-.32-.55-.32v-.25c.37,0,.49-.13.49-.3,0-.16-.1-.25-.28-.25-.14,0-.26.07-.37.18l-.18-.21c.16-.14.34-.24.56-.24.36,0,.6.18.6.49,0,.21-.12.35-.33.43h0c.22.07.39.23.39.48,0,.34-.3.54-.66.54-.3,0-.5-.12-.63-.26Z" fill="#000" stroke-width="0"/><path d="M14.5,87.72h.49v1.1h1.11v-1.1h.49v2.75h-.49v-1.22h-1.11v1.22h-.49v-2.75Z" fill="#000" stroke-width="0"/><path d="M17.01,90.91l.16-.22c.11.11.26.2.44.2.2,0,.35-.11.35-.28,0-.19-.12-.32-.55-.32v-.25c.37,0,.49-.13.49-.3,0-.16-.1-.25-.28-.25-.14,0-.26.07-.37.18l-.18-.21c.16-.14.34-.24.56-.24.36,0,.6.18.6.49,0,.21-.12.35-.33.43h0c.22.07.39.23.39.48,0,.34-.3.54-.66.54-.3,0-.5-.12-.63-.26Z" fill="#000" stroke-width="0"/><path d="M18.65,89.1c0-.9.56-1.43,1.26-1.43.34,0,.62.16.79.35l-.26.31c-.14-.14-.31-.24-.52-.24-.45,0-.77.38-.77.99s.3,1.01.76,1.01c.24,0,.43-.11.59-.28l.26.31c-.22.26-.51.4-.87.4-.69,0-1.24-.51-1.24-1.42Z" fill="#000" stroke-width="0"/><path d="M30.04,58.05c0-.9.56-1.43,1.26-1.43.34,0,.62.16.79.35l-.26.31c-.14-.14-.31-.24-.52-.24-.45,0-.77.38-.77.99s.3,1.01.76,1.01c.24,0,.43-.11.59-.28l.26.31c-.22.26-.51.4-.87.4-.69,0-1.24-.51-1.24-1.42Z" fill="#000" stroke-width="0"/><path d="M32.6,56.67h.49v1.1h1.11v-1.1h.49v2.75h-.49v-1.22h-1.11v1.22h-.49v-2.75Z" fill="#000" stroke-width="0"/><path d="M35.11,59.86l.16-.22c.11.11.26.2.44.2.2,0,.35-.11.35-.28,0-.19-.12-.32-.55-.32v-.25c.37,0,.49-.13.49-.3,0-.16-.1-.25-.28-.25-.14,0-.26.07-.37.18l-.18-.21c.16-.14.34-.24.56-.24.36,0,.6.18.6.49,0,.21-.12.35-.33.43h0c.22.07.39.23.39.48,0,.34-.3.54-.66.54-.3,0-.5-.12-.63-.26Z" fill="#000" stroke-width="0"/><path d="M48.04,83.78c0-.89.5-1.41,1.21-1.41s1.21.53,1.21,1.41-.5,1.44-1.21,1.44-1.21-.55-1.21-1.44ZM49.97,83.78c0-.62-.28-.99-.71-.99s-.71.37-.71.99.28,1.01.71,1.01.71-.39.71-1.01Z" fill="#000" stroke-width="0"/><path d="M15.42,63.93h.49v.82h1.11v-.82h.49v2.04h-.49v-.9h-1.11v.9h-.49v-2.04Z" fill="#000" stroke-width="0"/><path d="M18.06,64.94c0-.66.5-1.05,1.21-1.05s1.21.39,1.21,1.05-.5,1.07-1.21,1.07-1.21-.41-1.21-1.07ZM19.98,64.94c0-.46-.28-.73-.71-.73s-.71.28-.71.73.28.75.71.75.71-.29.71-.75Z" fill="#000" stroke-width="0"/><rect x="29.31" y="77.97" width=".63" height="7.13" transform="translate(-55.79 66.42) rotate(-60)" fill="#000" stroke-width="0"/><rect x="26.06" y="70.53" width="7.13" height=".63" transform="translate(-31.45 24.31) rotate(-30)" fill="#000" stroke-width="0"/><rect x="38.57" y="72.62" width=".63" height="7.13" fill="#000" stroke-width="0"/><path d="M123.81,80.1v-6.14h-.63v6.19l-5.29,3.06-5.65-3.26-5.65,3.26-5.43-3.14v-.28s-.4.02-.4.02v.24s-5.46,3.16-5.46,3.16l-5.65-3.26-5.65,3.26-5.44-3.14v-.27s-.4.02-.4.02v.25s-5.45,3.15-5.45,3.15l-5.65-3.26-5.2,3-4.71-1.91.22-.11-.18-.35-.11.06v-9.26l-8.34-4.81-8.02,4.63-7.71-4.45v-6.16h-.63v6.16l-7.66,4.42-4.46-4.46-.45.45,4.54,4.54v9l-4.74,4.74.45.45,4.66-4.66,7.97,4.6,8.02-4.63,5.53,3.19.32-.55-5.53-3.19v-8.9l7.71-4.45,7.71,4.45v8.9l-4.96,2.86.32.55,5.25-3.03.04.03h0s0,0,0,0l4.3,2.88h0s5.64-3.26,5.64-3.26l5.65,3.26h0s0,0,0,0l5.65-3.26,5.65,3.26h0s0,0,0,0l5.65-3.26,5.65,3.26h0s0,0,0,0l5.65-3.26,5.65,3.26h0s0,0,0,0l5.65-3.26,5.65,3.26h0s0,0,0,0l5.65-3.26,5.65,3.26.32-.55-5.68-3.28ZM40.42,80.64l-7.71,4.45-7.71-4.45v-8.9l7.71-4.45,7.71,4.45v8.9ZM57.1,81h0s0,0,0,0h0Z" fill="#000" stroke-width="0"/><rect x="58.27" y="79.79" width=".33" height=".72" transform="translate(-30.42 36.06) rotate(-27.51)" fill="#000" stroke-width="0"/><rect x="59.52" y="78.97" width=".36" height="1.05" transform="translate(-29.97 36.57) rotate(-27.52)" fill="#000" stroke-width="0"/><rect x="60.77" y="78.14" width=".39" height="1.38" transform="translate(-29.53 37.08) rotate(-27.52)" fill="#000" stroke-width="0"/><rect x="62.01" y="77.32" width=".42" height="1.71" transform="translate(-29.08 37.59) rotate(-27.52)" fill="#000" stroke-width="0"/><rect x="77.96" y="78.34" width=".72" height=".33" transform="translate(-3.04 3.16) rotate(-2.26)" fill="#000" stroke-width="0"/><rect x="77.74" y="76.9" width="1.05" height=".36" transform="translate(-2.99 3.15) rotate(-2.27)" fill="#000" stroke-width="0"/><rect x="77.51" y="75.46" width="1.38" height=".39" transform="translate(-2.93 3.15) rotate(-2.27)" fill="#000" stroke-width="0"/><rect x="77.29" y="74.02" width="1.71" height=".42" transform="translate(-2.87 3.14) rotate(-2.26)" fill="#000" stroke-width="0"/><rect x="100.55" y="78.34" width=".72" height=".33" transform="translate(-3.02 4.05) rotate(-2.26)" fill="#000" stroke-width="0"/><rect x="100.33" y="76.9" width="1.05" height=".36" transform="translate(-2.97 4.05) rotate(-2.27)" fill="#000" stroke-width="0"/><rect x="100.11" y="75.46" width="1.38" height=".39" transform="translate(-2.91 4.04) rotate(-2.27)" fill="#000" stroke-width="0"/><rect x="99.89" y="74.02" width="1.71" height=".42" transform="translate(-2.85 4.03) rotate(-2.26)" fill="#000" stroke-width="0"/></svg>