<?xml version="1.0" encoding="UTF-8"?><svg id="Layer_1" xmlns="http://www.w3.org/2000/svg" viewBox="0 0 144.57 144.57"><path d="M58.91,19.69s.05.08.08.08c2.06.47,2.75,2.4,2.62,4.05-.02.27-.07.54-.14.8-.42,1.6-1.67,2.55-3.33,2.55-1.63,0-2.92-.99-3.33-2.57-.25-.95-.19-1.9.16-2.81.39-1.01,1.11-1.68,2.17-1.97.09-.03.18-.08.27-.12.5,0,1,0,1.5,0ZM60.6,23.4s.04-.01.06-.02c-.13-.52-.21-1.06-.42-1.55-.4-.93-1.29-1.37-2.4-1.28-.9.07-1.67.68-1.95,1.58-.22.7-.26,1.42-.12,2.15.24,1.24,1.15,2.02,2.38,2.02,1.22,0,2.15-.8,2.36-2.04.05-.29.06-.58.08-.87Z" fill="#000" stroke="#000" stroke-miterlimit="10" stroke-width=".25"/><path d="M62.66,24.65c.12-.22.23-.39.36-.63.21.12.41.22.6.33,3.22,1.85,6.45,3.7,9.66,5.58.42.25.71.24,1.13,0,2.49-1.46,4.99-2.9,7.49-4.34.2-.11.4-.22.66-.36.13.2.24.39.38.61-3.34,1.93-6.63,3.82-9.94,5.74v16.09c1.4.02,2.78,0,4.17,0,1.37,0,2.75,0,4.12,0s2.78,0,4.2,0v.76c-4.15.02-8.27,0-12.39,0-.15.45-.21,14.82-.06,15.9h12.44c.01.25.03.46.04.75h-12.43c-.15.49-.21,14.63-.07,15.92.64.04,1.3.01,1.95.02.64,0,1.29,0,1.93,0h7.92v.74h-11.82v15.94h11.82v.74h-11.86v11.97h-.74v-11.92c-.73-.07-1.41-.03-2.08-.04-.71,0-1.41,0-2.12,0h-8.33c-.01-.26-.02-.46-.03-.75,1.42-.01,2.81,0,4.19,0,1.37,0,2.75,0,4.12,0h4.2v-15.92h-12.47v-.74h12.38c.15-.5.21-14.86.07-15.94-.76-.03-1.54,0-2.32-.01-.79,0-1.58,0-2.37,0h-7.13v-.73h11.76c.15-.53.18-15.17.03-15.91h-11.79c-.01-.27-.02-.46-.03-.73,1.33-.08,2.63-.03,3.93-.04,1.33,0,2.66,0,3.99,0s2.61,0,3.95,0c.02-.27.04-.48.04-.68,0-4.45,0-8.89.01-13.34,0-.45-.13-.7-.53-.93-3.21-1.83-6.4-3.69-9.6-5.55-.2-.11-.39-.23-.63-.37.11-.21.22-.4.35-.64,3.45,1.99,6.86,3.95,10.34,5.95.05-.36.01-.69.15-.9.14-.22.45-.34.77-.57-3.47-2.01-6.91-4-10.38-6.01Z" fill="#000" stroke="#000" stroke-miterlimit="10" stroke-width=".25"/><path d="M89.27,78.02c1.89,0,3.27,1.28,3.42,3.25.04.59,0,1.22-.16,1.78-.51,1.89-2.07,2.49-3.4,2.46-1.62-.03-2.92-1.14-3.26-2.74-.16-.73-.13-1.45.04-2.16.4-1.63,1.65-2.59,3.36-2.59ZM86.79,81.63c.03.39.03.68.08.96.18,1.11,1.03,1.93,2.11,2.06,1.02.12,2.02-.42,2.42-1.38.44-1.04.43-2.11-.06-3.14-.43-.9-1.29-1.34-2.37-1.24-.97.09-1.73.68-1.99,1.61-.11.39-.14.81-.2,1.13Z" fill="#000" stroke="#000" stroke-miterlimit="10" stroke-width=".25"/><path d="M59.44,48.47c-.07.39-.1.83-.22,1.25-.44,1.56-1.8,2.53-3.41,2.45-1.67-.08-2.92-1.12-3.26-2.74-.17-.77-.12-1.52.08-2.28.36-1.39,1.52-2.51,3.38-2.49,1.63.02,2.9,1.07,3.26,2.65.08.36.11.74.17,1.15ZM58.43,48.31c-.1-.4-.17-.94-.38-1.43-.37-.9-1.3-1.43-2.24-1.37-1.05.07-1.87.7-2.16,1.68-.21.71-.22,1.44-.09,2.16.22,1.17,1.16,1.94,2.31,1.97,1.13.03,2.08-.69,2.37-1.82.09-.34.11-.69.19-1.18Z" fill="#000" stroke="#000" stroke-miterlimit="10" stroke-width=".25"/><path d="M92.76,98.46c-.07.41-.09.85-.21,1.26-.52,1.79-1.9,2.49-3.4,2.46-1.67-.03-2.92-1.11-3.27-2.72-.17-.79-.12-1.57.09-2.34.37-1.35,1.51-2.45,3.36-2.44,1.61.01,2.88,1.04,3.26,2.58.09.38.12.78.19,1.2ZM91.75,98.35c-.09-.4-.14-.89-.31-1.33-.4-1.06-1.31-1.52-2.29-1.49-1.08.04-1.9.7-2.19,1.72-.2.69-.21,1.4-.08,2.1.21,1.16,1.15,1.95,2.3,1.99,1.12.04,2.09-.69,2.38-1.81.09-.36.12-.73.19-1.18Z" fill="#000" stroke="#000" stroke-miterlimit="10" stroke-width=".25"/><path d="M55.88,68.83c-1.67,0-2.98-1.08-3.33-2.72-.17-.81-.13-1.61.11-2.4.43-1.41,1.62-2.32,3.09-2.37,1.58-.05,2.85.76,3.37,2.16.36.99.39,1.99.06,2.99-.49,1.51-1.67,2.33-3.3,2.32ZM53.47,64.98c.03.36.03.65.07.94.17,1.13,1.05,1.97,2.1,2.04,1.29.09,2.22-.51,2.57-1.69.27-.9.25-1.81-.13-2.68-.41-.95-1.27-1.45-2.35-1.39-.98.06-1.81.71-2.08,1.68-.1.38-.13.77-.19,1.09Z" fill="#000" stroke="#000" stroke-miterlimit="10" stroke-width=".25"/><path d="M94.4,115.14c-.03.73-.18,1.41-.53,2.04-.57,1.03-1.47,1.54-2.62,1.65-2.28.22-3.83-1.43-3.82-3.66,0-.43.06-.87.17-1.29.41-1.59,1.69-2.53,3.35-2.52,1.6.01,2.88,1.01,3.27,2.56.1.4.13.82.19,1.23ZM88.42,115.13s.02,0,.03,0c.01.23,0,.46.04.68.14,1.17,1,2.06,2.07,2.16,1.29.12,2.24-.47,2.61-1.63.28-.88.27-1.76-.06-2.62-.39-1.02-1.29-1.57-2.4-1.5-1.01.07-1.84.74-2.09,1.74-.1.38-.12.77-.18,1.16Z" fill="#000" stroke="#000" stroke-miterlimit="10" stroke-width=".25"/><path d="M58.73,85.36h-.95v-3.32h-3.71v3.31h-.98v-7.15h.95v2.85c1.25.08,2.44.03,3.72.04v-2.91h.97v7.19Z" fill="#000" stroke="#000" stroke-miterlimit="10" stroke-width=".25"/><path d="M94.95,82.04v3.32h-.89c-.12-.44-.16-6.26-.04-7.17h.94v2.86h3.67v-2.86h.97v7.18h-.95v-3.32h-3.7Z" fill="#000" stroke="#000" stroke-miterlimit="10" stroke-width=".25"/><path d="M92.07,52.01h-.97v-3.35h-3.66v3.34h-.98v-7.19h.9c.15.95-.03,1.93.11,2.91h3.62v-2.89h.99v7.17Z" fill="#000" stroke="#000" stroke-miterlimit="10" stroke-width=".25"/><path d="M58.72,102.05h-.92c-.1-1.11.02-2.23-.07-3.36h-3.64c-.11,1.09.02,2.21-.07,3.35h-.86c-.13-.45-.17-6.19-.05-7.21.27-.01.55-.02.85-.04.17.51.07,1.01.09,1.5.02.47,0,.94,0,1.45h3.72v-2.9h.95v7.22Z" fill="#000" stroke="#000" stroke-miterlimit="10" stroke-width=".25"/><path d="M98.66,98.68h-3.7v3.35h-.9c-.13-.44-.16-6.52-.02-7.2h.9v2.9h3.7v-2.9h.87c.16.4.21,6.33.05,7.2h-.9v-3.35Z" fill="#000" stroke="#000" stroke-miterlimit="10" stroke-width=".25"/><path d="M46.51,48.68v3.33h-.9c-.12-.46-.16-6.36-.04-7.18h.86c.16.45.06.93.08,1.4.02.48,0,.95,0,1.42.46.14,2.73.17,3.67.05v-2.87h.91c.14.43.19,5.68.07,7.17h-.94v-3.32h-3.7Z" fill="#000" stroke="#000" stroke-miterlimit="10" stroke-width=".25"/><path d="M82.7,111.53v7.15h-.94v-3.21c-.48-.15-3-.18-3.72-.04v3.26h-.98v-7.15h.94c.07.93,0,1.89.04,2.89h3.68v-2.9h.98Z" fill="#000" stroke="#000" stroke-miterlimit="10" stroke-width=".25"/><path d="M101.23,118.7h-.91c-.06-1.09,0-2.18-.04-3.26-.47-.13-2.62-.17-3.68-.06v3.3h-.99v-7.16h.96v2.9h3.7v-2.9h.9c.14.41.19,6.08.05,7.17Z" fill="#000" stroke="#000" stroke-miterlimit="10" stroke-width=".25"/><path d="M92.07,68.68h-.94v-3.31h-3.72v3.31h-.96v-7.17c.15-.01.27-.03.39-.04.16,0,.32,0,.57,0v2.96h3.68v-2.91h.98v7.15Z" fill="#000" stroke="#000" stroke-miterlimit="10" stroke-width=".25"/><path d="M85.22,27.03h-.91c-.13-.45-.17-6.25-.05-7.17h.92c.07.93,0,1.88.04,2.81.47.14,2.96.17,3.66.03v-2.85h.96v7.17h-.94v-3.31h-3.67v3.32Z" fill="#000" stroke="#000" stroke-miterlimit="10" stroke-width=".25"/><path d="M45.55,61.5h.94v2.91h3.67v-2.9h.93c.12.44.16,6.23.04,7.16h-.93v-3.3h-3.69v3.31h-.96v-7.18Z" fill="#000" stroke="#000" stroke-miterlimit="10" stroke-width=".25"/><path d="M75.71,113.48c-.31.08-.58.15-.88.24-.08-.13-.15-.25-.21-.37-.32-.71-.86-1.1-1.65-1.12-.87-.03-1.65.22-2.06,1.02-.64,1.24-.63,2.54.02,3.77.42.8,1.2,1.04,2.07.97.81-.06,1.35-.48,1.67-1.21.08-.17.14-.35.23-.57.29.07.59.13.87.19-.07,1.19-1.11,2.27-2.32,2.41-.47.05-.96.06-1.43-.02-.96-.16-1.68-.7-2.1-1.59-.55-1.15-.64-2.36-.26-3.58.67-2.19,3.12-2.68,4.61-1.96.75.36,1.21.96,1.45,1.82Z" fill="#000" stroke="#000" stroke-miterlimit="10" stroke-width=".25"/><path d="M83.28,120.59c.05-.6.33-.98.67-1.32.35-.35.75-.66,1.11-1,.3-.29.59-.58.85-.9.28-.35.35-.76.13-1.16-.2-.36-.57-.49-.96-.46-.48.04-.8.3-.93.79-.02.08-.04.16-.07.28-.2-.01-.4-.03-.65-.05.03-.21.03-.37.08-.51.21-.63.66-.98,1.32-1.06.74-.08,1.43.01,1.85.72.36.6.29,1.22-.13,1.75-.37.47-.83.86-1.26,1.28-.31.3-.63.57-.95.86.02.04.03.09.05.13h2.46v.65h-3.57Z" fill="#000" stroke="#000" stroke-miterlimit="10" stroke-width=".25"/></svg>