<?xml version="1.0" encoding="UTF-8"?><svg id="Layer_1" xmlns="http://www.w3.org/2000/svg" viewBox="0 0 144.57 144.57"><path d="M59.47,31.95c-.58.21-1.12.45-1.74.48-.64.03-1.36-.17-1.98-.32-.52-.13-1.01-.33-1.49-.55-.6-.28-1.38-.69-1.83-1.18-.38-.41-.84-.76-1.21-1.19-.43-.51-.87-1.01-1.26-1.55-.37-.51-.69-1.07-.97-1.63-.05-.1-.1-.19-.15-.28.15.2.32.39.46.58.22.31.38.67.61.98.22.31.35.77.65,1.01,1.29.99,2.65,1.88,4.21,2.39.02,0,.04-.03.01-.04-.8-.31-1.53-.7-2.27-1.13-.34-.2-.67-.45-1-.68-.36-.25-.87-.51-1.07-.92-.31-.64-.75-1.28-1.17-1.86-.22-.31-.46-.61-.69-.92-.2-.27-.24-.6-.53-.79-.06-.04-.13.02-.11.09.24.65.67,1.22.98,1.84.29.58.65,1.12,1.03,1.65.43.6.95,1.15,1.42,1.71.22.26.56.44.79.7.19.21.35.39.59.55,1.81,1.24,4.65,2.37,6.71,1.13.03-.02.01-.07-.02-.05Z"/><path d="M58.95,31.04c-1.03.01-2.09.3-3.12.09-.02,0-.02.02,0,.03.55.11,1.08.07,1.63.04.51-.02.98-.01,1.5-.11.03,0,.03-.05,0-.05Z"/><path d="M60.57,31.21c-.34-.19-.71-.35-1.07-.49-.48-.19-1.03-.15-1.52-.33-.49-.18-.92-.5-1.38-.74-.77-.4-1.26-.81-1.73-1.55-.57-.91-1.24-1.8-1.96-2.61-.4-.45-.75-.94-1.16-1.38-.17-.18-.36-.37-.55-.56-.17-.28-.44-.49-.63-.76-.05-.08-.16.02-.11.09.05.07.1.14.15.21.03.04.06.08.1.12.2.25.42.48.56.78.23.47.46.95.7,1.42.43.84.89,1.75,1.49,2.49.56.68,1.07,1.31,1.73,1.9.69.61,1.46,1.06,2.33,1.37.05.02.08-.06.03-.08-.91-.34-1.71-.84-2.41-1.51-.63-.59-1.15-1.25-1.7-1.92-.63-.78-1.1-1.81-1.54-2.7-.15-.31-.3-.63-.46-.95.42.46.83.91,1.22,1.39.42.52.82,1.05,1.24,1.57.4.5.73,1.02,1.08,1.55.56.85,1.53,1.28,2.41,1.73.54.27,1.07.46,1.66.59.47.1.98.36,1.41.58.12.06.22-.14.11-.2Z"/><path d="M59.44,30.72c-.41-.27-.79-.56-1.17-.86-.52-.41-.9-.97-1.3-1.49-.67-.86-1.37-1.78-1.84-2.77-.45-.93-.9-1.86-1.35-2.8-.45-.94-.47-2-.88-2.95-.06-.14-.28-.04-.22.1.39.91.25,1.93.5,2.88.21.8.42,1.61.78,2.36.42.86.61,1.8.96,2.68.26.66.77,1.23,1.18,1.8.06.08.18,0,.14-.09-.3-.67-.93-1.23-1.13-1.94-.24-.86-.55-1.75-.93-2.56-.38-.82-.67-1.79-.85-2.68-.02-.11-.04-.22-.05-.32.08.28.17.55.3.81.49.98.97,1.96,1.45,2.94.46.93,1.15,1.84,1.81,2.64.38.46.73.94,1.15,1.36.4.4.93.66,1.41.93.04.02.07-.03.04-.05Z"/><path d="M61.36,30.76c-1.12-.39-1.97-1.18-2.78-2.01-.85-.87-1.7-1.98-1.95-3.2-.19-.94-.84-1.72-1.25-2.56-.19-.38-.47-.71-.7-1.07-.35-.54-.88-.96-1.2-1.53-.05-.09-.2-.03-.15.07.26.53.52,1.07.78,1.6.08.16.18.31.28.46.22.32.22.66.35,1,.25.65.39,1.33.52,2.01.1.55.39,1.02.66,1.5.04.07.14.02.11-.05-.25-.56-.54-1.06-.65-1.68-.1-.57-.24-1.13-.42-1.68-.16-.5-.24-.92-.54-1.35-.25-.36-.44-.76-.62-1.17.17.2.35.39.52.6.36.45.72.98.97,1.49.25.5.56.97.81,1.47.26.54.36,1.1.62,1.63.92,1.88,2.52,3.9,4.61,4.54.06.02.09-.07.03-.09Z"/><path d="M52.41,22.98c-.41-.64-.8-1.32-1.24-1.94-.16-.23-.36-.63-.64-.72-.05-.02-.1.02-.11.07-.04.44.33.9.52,1.28.24.49.53.98.83,1.44.36.55.69,1.12.98,1.7.28.58.48,1.19.78,1.76.04.07.15.02.12-.05-.24-.53-.43-1.08-.68-1.6-.24-.48-.51-.92-.77-1.39-.24-.44-.5-.89-.77-1.31-.17-.26-.3-.53-.44-.81-.07-.14-.14-.29-.21-.43-.02-.03-.16-.4-.14-.38.32.35.56.79.78,1.2.27.5.68.98.99,1.46.11.17.24.42.4.55.31.26.43.52.67.82.18.23.33.47.49.71.21.31.48.54.67.87.02.04.08.01.06-.03-.6-1.17-1.6-2.11-2.31-3.21Z"/><path d="M55.86,30.22c-.12-.08-.24-.1-.38-.13-.47-.08-.88-.29-1.3-.49-1.09-.52-1.82-1.32-2.5-2.3-1.09-1.58-2.36-3.37-4.13-4.24h0s0,0,0,0c0,0-.01,0-.02,0-.08-.04-.13.08-.07.13.55.5,1.2.87,1.65,1.46.38.49.76,1.11,1.03,1.66.29.59.61,1.18.86,1.8.23.58.55.76,1.05,1.12.05.04.12-.04.08-.08-.22-.21-.49-.35-.71-.56-.21-.21-.3-.59-.42-.86-.27-.61-.55-1.27-.92-1.83-.33-.5-.61-1.02-.98-1.51-.02-.02-.04-.04-.05-.06.31.3.6.63.87.97.7.86,1.37,1.72,2.01,2.63.51.74,1.22,1.27,2,1.7.32.18.67.34,1.02.46.28.1.61.07.88.18.03.01.05-.03.02-.04Z"/><path d="M56.62,32.7c-.34-.03-.65.01-.98.07-.45.08-.95.06-1.41.07-.85.02-1.75-.27-2.55-.54-.87-.29-1.7-.83-2.27-1.56-.17-.21-.44-.51-.66-.69.36.2.69.37,1.01.63.54.43,1.18.7,1.74,1.1.44.31,1.33.28,1.85.33.49.05.75.02,1.13-.26.04-.03,0-.08-.05-.06-.46.33-.95.21-1.48.13-.35-.05-.73-.08-1.08-.16-.34-.08-.53-.35-.83-.5-.35-.18-.74-.34-1.04-.58-.26-.21-.51-.44-.81-.6-.52-.27-1.11-.7-1.69-.8-.06-.01-.11.08-.06.12.18.17.37.26.59.37.5.23.76.61,1.16.96.67.6,1.25,1.27,2.1,1.61.79.32,1.69.5,2.53.62.95.14,1.88-.21,2.81-.17.06,0,.07-.09,0-.09Z"/><path d="M53.27,31.91c-1.3-.38-2.06-1.24-2.86-2.28-.36-.47-.84-.83-1.26-1.24-.4-.4-.81-.79-1.23-1.17-.23-.21-.47-.4-.69-.62.16.16.39.29.58.43.58.39,1.13.81,1.68,1.23.23.18.48.32.72.49.23.17.38.44.57.64.28.3.64.47.98.7.06.04.11-.04.06-.08-.25-.22-.55-.39-.83-.59-.41-.3-.63-.71-1.07-.98-.97-.61-1.84-1.37-2.81-1.99-.06-.04-.11.03-.08.08.34.51.92.91,1.36,1.32.59.55,1.25,1.09,1.79,1.69.48.53.85,1.12,1.4,1.6.47.42,1.05.68,1.66.86.06.02.09-.07.03-.09Z"/><path d="M63.13,29.65s0,.01,0,0c0,0,0-.01,0,0Z"/><path d="M63.44,30.3c-.06.04-.05.11-.11.15-.02.01,0,.04.03.03.06-.04.06-.11.11-.14.02-.02,0-.05-.03-.03Z"/><path d="M63.73,20.58c-.6-.71-1.02-1.58-1.69-2.22-.35-.34-.55-.95-.77-1.39-.2-.42-.4-.84-.62-1.25-.04-.08-.14-.04-.14.04.08,1.22.81,2.38,1.32,3.45.63,1.3,1.34,2.56,1.97,3.86.32.67.78,1.36.78,2.12,0,.83-.38,1.71-.77,2.43-.31.59-.69,1.15-1.08,1.68-.34.47-.24.98-.35,1.5-.14.04-.29.06-.44.06,0-.02-.01-.04-.03-.03-.13.04-.23-.01-.35.03-.08.03-.04.14.03.15.29.05.54.04.77,0,.02.06.12.08.15,0,0-.01,0-.03.01-.04.26-.08.5-.22.78-.42.65-.47,1.29-1.1,1.71-1.79.74-1.22.68-2.79.49-4.14-.04-.3,0-.63-.12-.92-.18-.46-.39-.88-.53-1.35-.21-.7-.66-1.24-1.12-1.78ZM64.96,23.29c.3.67.44,1.51.46,2.25-.02.12-.04.24-.07.37-.01.14.04.49.05.59,0,.4-.07.82-.17,1.21-.19.77-.63,1.4-1.2,1.94-.34.31-.67.62-1.04.89-.13.1-.27.17-.4.22.12-.51.06-1,.41-1.48.4-.55.78-1.14,1.08-1.74.57-1.13.95-2.34.36-3.52-.66-1.33-1.38-2.63-2.03-3.97-.33-.68-.66-1.35-1-2.02-.3-.6-.66-1.24-.73-1.92.26.55.53,1.11.81,1.65.31.63.81,1.11,1.19,1.7.43.68.95,1.29,1.45,1.91.45.56.56,1.28.85,1.93Z"/><path d="M61.98,22.07c-.58-.89-1.27-1.71-1.88-2.58-.33-.47-.71-1.5-1.32-1.66-.05-.01-.09.01-.1.06-.04.33.19.61.34.89.28.52.65.98.91,1.51.5,1.03,1.09,1.98,1.49,3.06.23.61.57,1.2.86,1.78.32.63.86,1.34.67,2.09-.15.64-.78,1.7.03,2.1.08.04.16-.1.08-.14-.68-.38.17-1.81.09-2.44-.12-.88-.76-1.72-1.14-2.5-.41-.84-.74-1.7-1.15-2.55-.4-.81-.88-1.58-1.34-2.37-.19-.32-.39-.64-.58-.96-.11-.1-.09-.18.07-.22.05.07.1.13.14.2.16.19.25.42.39.62.6.84,1.19,1.66,1.81,2.48.68.9,1.3,1.86,1.79,2.87.29.6.47,1.16.57,1.81.03.17.24,1.24.12,1.3-.06.03-.02.13.05.1.02-.01.05-.02.07-.03.02-.01.04-.04.03-.06-.13-.91-.09-1.89-.51-2.74-.45-.93-.95-1.76-1.52-2.63Z"/><path d="M62.31,30.74c-.3.13-1.14-.71-1.32-.85-.68-.55-1.17-1.19-1.54-1.98-.29-.62-.56-1.23-.74-1.89-.18-.68-.32-1.36-.52-2.03-.4-1.29-.92-2.52-1.51-3.73-.25-.51-.63-.92-.96-1.39-.32-.45-.57-.98-.94-1.4-.06-.07-.17-.03-.18.06-.03.29.12.47.25.73.2.42.41.83.61,1.25.48.98.81,1.97,1.13,3.02.29.94.31,1.96.46,2.93.15.95.54,1.87,1.04,2.68.04.06.13.02.11-.05-.33-.9-.79-1.7-.96-2.67-.17-.98-.21-1.97-.46-2.93-.12-.45-.36-.87-.42-1.33-.05-.38-.24-.74-.41-1.08-.24-.49-.48-.99-.72-1.48,0,0,0,0,0-.01.14.19.29.36.41.56.12.21.32.4.47.59.29.36.47.78.68,1.2.74,1.5,1.29,3.09,1.67,4.71.3,1.25.81,2.58,1.65,3.58.41.49.99,1.01,1.54,1.33.21.12.42.41.68.25.04-.02.01-.08-.03-.07Z"/><path d="M57.86,20.53c-.18-.36-.48-.62-.75-.92-.35-.4-.63-.91-.89-1.37-.06-.1-.21-.03-.16.07.54,1.09,1.1,2.17,1.68,3.24.33.61.22,1.19.26,1.83.05.69,0,1.4.2,2.07.03.09.18.07.15-.03-.32-1.17.06-2.43-.33-3.58-.21-.62-.62-1.17-.91-1.76-.08-.17-.17-.34-.25-.52.29.34.63.63.85,1.02.67,1.16,1.24,2.23,1.61,3.53.32,1.13.29,2.29.45,3.44.14,1.01.61,1.8,1.22,2.59.02.03.07,0,.05-.03-.21-.42-.52-.8-.75-1.21-.3-.53-.38-1.17-.45-1.76-.13-1.19-.17-2.32-.51-3.48-.15-.5-.33-1-.54-1.48-.26-.59-.65-1.1-.95-1.67Z"/><path d="M59.94,22.45c-.32-.56-.76-1.06-1.15-1.59-.42-.57-.72-1.23-1.1-1.83-.36-.56-.68-1.15-.94-1.77-.1-.23-.18-.57-.45-.67-.06-.02-.12.02-.12.08-.04.44.32.89.42,1.32.14.6.47,1.12.62,1.72.02.09.16.07.15-.03-.1-.67-.49-1.25-.64-1.92-.07-.3-.19-.55-.34-.82-.18-.33.08.11.11.18.04.09.08.19.12.28.32.73.73,1.39,1.15,2.07.43.69.78,1.37,1.28,2.01.58.75,1.03,1.48,1.29,2.4.23.84.15,1.73.2,2.59.05.82.19,1.55.55,2.28.34.68.7,1.2,1.17,1.78.04.04.1-.01.07-.06-.97-1.33-1.57-2.57-1.63-4.24-.05-1.35-.06-2.59-.75-3.8Z"/><path d="M59.33,19.15s-.11,0-.09.05c.12.29.31.57.45.86.12.24.21.47.28.74.05.19,0,.42.06.61.28.87.55,1.73.83,2.6.35,1.06.55,2.08.71,3.18.07.47.24.92.46,1.33.19.36.57.58.78.94.03.05.11.02.09-.04-.11-.27-.33-.47-.53-.68-.45-.47-.59-1.17-.67-1.79-.13-1.04-.34-2.02-.68-3.01-.14-.41-.19-.88-.38-1.27-.1-.21-.09-.44-.18-.65-.15-.35-.25-.65-.27-1.03-.02-.68-.41-1.35-.86-1.84Z"/><path d="M51.81,27.28c-.53-1.03-.65-2.24-1.32-3.19-.33-.47-.72-.88-1.06-1.34.02.02-.41-.71-.36-.68.24.14.33.41.48.62.37.48.75.92,1.17,1.35.29.3.53.78.89.99.06.04.12-.05.07-.09-.05-.04-.14-.26-.24-.34-.21-.16-.31-.31-.47-.51-.26-.32-.58-.59-.84-.91-.34-.41-.66-1.17-1.21-1.34-.05-.02-.11.03-.1.08.1.55.59,1.08.95,1.48.33.38.65.79.89,1.23.21.38.29.81.44,1.21.28.78.56,1.51,1,2.21.21.33.47.65.81.86.25.15.76.38.92.6.02.03.07,0,.06-.03-.09-.29-.37-.33-.6-.48-.7-.43-1.11-1.01-1.48-1.73Z"/><path d="M65.49,29.32s0,.01,0,0c0,0,0-.01,0,0Z"/><path d="M64.65,29.63c-.06.04-.05.11-.11.15-.01,0,0,.03.01.02.06-.04.06-.11.11-.14.02-.01,0-.03-.02-.02Z"/><path d="M65.53,15.16c-.19.1-.16.29-.14.48.06.61.2,1.21.3,1.81.25,1.5.63,2.99.96,4.49.13.62.32,1.22.49,1.83.22.79-.07,1.72-.35,2.46-.18.48-.3.98-.5,1.45-.17.43-.49.6-.91.73-.18.06-.3.15-.42.29-.05.06.05.16.11.1.32-.33.83-.31,1.15-.66.3-.33.39-.86.51-1.28.32-1.12.84-2.11.51-3.3-.72-2.56-1.35-5.19-1.73-7.82-.03-.11-.01-.2.07-.29.1.24.15.49.2.75.07.34.11.67.2,1,.17.67.4,1.32.57,1.98.14.55.44,1.13.66,1.65.31.71.55,1.45.66,2.22.11.75.25,1.42.24,2.18-.02.73-.11,1.38-.37,2.05-.3.74-.67,1.48-1.37,1.9-.24.14-.5.26-.75.37-.19.09-.38.15-.59.2-.02,0-.68.12-.42,0,.07-.04.02-.15-.05-.11-.05.02-.1.05-.15.07-.05.02-.05.1,0,.12.94.35,2.32-.53,2.84-1.27.78-1.13,1.08-2.56,1.01-3.92-.09-1.62-.64-3.09-1.19-4.59-.3-.81-.61-1.6-.83-2.44-.21-.79-.26-1.64-.62-2.39-.02-.03-.06-.05-.09-.03Z"/><path d="M69.06,15.75s-.06-.03-.09-.02c-.49.23-.06,1.38.03,1.73.33,1.36.18,2.73.36,4.1.21,1.65.85,3.42-.13,4.97-.38.59-1.02.83-1.44,1.34-.18.22-.47.26-.27.57.05.07.18,0,.13-.08-.13-.22.94-.89,1.07-1,.36-.29.66-.66.85-1.08.47-1.03.39-2.17.18-3.25-.12-.63-.24-1.27-.31-1.91-.08-.66,0-1.3-.04-1.95-.05-.91-.31-1.76-.45-2.66-.03-.18-.04-.37,0-.56.09.11.14.24.15.39.02.12.03.23.07.35.19.61.24,1.27.3,1.9.06.62.1,1.21.29,1.8.24.73.47,1.43.65,2.18.3,1.27.23,2.74-.4,3.89-.29.54-.76,1-1.13,1.49-.48.63-1.01,1.11-1.78,1.35-.04.01-.02.09.02.08,1.27-.35,1.86-1.4,2.66-2.36.76-.91.99-2.13.93-3.29-.03-.69-.21-1.35-.35-2.02-.17-.76-.59-1.44-.66-2.23-.08-.81-.13-1.63-.3-2.43-.09-.41-.1-.94-.34-1.3Z"/><path d="M57.85,37.19c.19-.09.38-.12.66-.15.63-.06,1.05-.48,1.22-1.07.06-.22.05-.46.04-.69-.03-.58-.03-1.16.07-1.73.1-.53.28-1.05.45-1.57.06-.17.37-1.11.55-.77.04.07.15.02.12-.05-.02-.05-.04-.1-.06-.15-.01-.03-.06-.05-.1-.04-.66.36-.79,1.27-.98,1.94-.15.51-.21,1.01-.24,1.53-.03.54.1,1.09-.06,1.62-.15.51-.66.81-1.17.83-.1,0-.23.02-.32.06-.1.04-.21.11-.32.17.05,0,.09.02.12.06Z"/><path d="M61.67,30.73c-.11.27-.37.57-.41.86-.06.5-.16.97-.18,1.47-.05.91-.1,1.8-.32,2.69-.12.5-.39.92-.87,1.15-.42.2-1.03.56-1.49.61-.24.03-.46.11-.69.19,0,0,0,0,0,0-.01,0-.02.01-.02.01-.04.02-.07.05-.11.07-.08.05-.17.09-.26.12-.05.02-.1,0-.14-.03-.07.02-.15.04-.21.07-.07-.17-.02-.3.13-.39.04-.04.09-.08.14-.12,0,0,0,0,0,0,.01-.02.03-.03.06-.04.05-.02.1-.08.15-.12-.07.03-.14.06-.2.07-.23.04-.55.48-.44.71,0,.02.03.03.04.02.73-.22,1.51-.36,2.2-.69.63-.3,1.33-.42,1.64-1.11.33-.71.42-1.54.49-2.31.05-.56.02-1.18.18-1.71.15-.5.33-.96.53-1.44.06-.14-.17-.23-.23-.08Z"/><path d="M60.02,31.93c-.15-.1-.51-.01-.61-.12-.08-.09-.21.02-.14.12.09.14.19.15.28.15-.11.04-.21.08-.27.17-.07.1-.11.23-.15.34-.15.38-.33.55-.7.72-.65.31-1.26.56-1.8,1.04-.38.34-1.03.55-1.51.63-.43.07-.78.42-1.21.51-.41.09-.75,0-1.14-.1-.15-.04-.28-.04-.44-.09-.24-.06-.4-.39-.55-.56-.07-.08-.14-.16-.21-.24.05.05.4.19.48.23.3.14.64.22.97.28.76.12,1.55-.31,2.18-.68.71-.42,1.41-.75,2.09-1.22.35-.24.88-.64,1.34-.47.07.02.15-.05.2-.08.08-.05.03-.17-.06-.13-.23.1-.62.04-.9.11-.27.06-.49.27-.71.43-.38.29-.81.58-1.25.77-.83.34-1.47.89-2.37,1.1-.44.1-.9-.08-1.32-.19-.3-.08-.48-.31-.8-.33-.05,0-.08.04-.08.09.04.27.38.51.53.71.26.35.55.33.95.43.37.09.53.11.93.08.61-.05,1.11-.47,1.73-.57.4-.06.88-.36,1.21-.59.43-.3.82-.57,1.32-.77.33-.13.91-.29,1.11-.63.1-.18.16-.37.24-.56.07-.17.47-.27.63-.39.05-.04.05-.14,0-.18Z"/><path d="M72.86,20.36c-.1.36-.2.72-.28,1.08-.15.65-.44,1.24-.55,1.9-.1.6-.14,1.3-.13,1.9,0,.27-.12.52-.17.77-.07.35-.04.83-.27,1.13-.19.25-.4.69-.73.73-.25.03-.45.18-.69.24-.66.16-1.3.14-1.92.45-.1.05-.03.21.07.16.54-.25,1.1-.32,1.68-.39.28-.03.84-.16,1.07-.32.32-.22.53-.57.76-.88.22-.29.16-.89.25-1.23.27-1.02.11-2.1.38-3.12.21-.8.5-1.58.72-2.38.02-.07.04-.15.07-.22.04-.19.14-.15.28.14,0,.24-.09.49-.18.71-.2.49-.28.92-.33,1.45-.1,1.11.11,2.19-.01,3.3-.16,1.38-1.53,2.3-2.65,2.92-.53.29-.95.65-1.59.69-.64.04-1.37.27-2,.12-.07-.02-.1.08-.04.1.47.14.97.05,1.44.01.65-.06,1.18-.12,1.74-.46,1.08-.66,2.4-1.32,3.02-2.48.55-1.01.28-2.32.25-3.4-.02-.66.04-1.45.31-2.06.14-.32.35-.84.19-1.2-.27-.61-.58-.05-.69.31Z"/><path d="M71.72,15.74c-.13-.01-.18.15-.21.25-.04.13-.04.28-.05.42-.02.31-.1.56-.24.84-.42.85-.94,1.64-.89,2.61.03.47.06.95.17,1.4.08.34.04.71.15,1.03.02.07.14.03.12-.04-.05-.23.01-.46-.06-.69-.1-.33-.12-.67-.16-1.01-.04-.37-.1-.72-.1-1.1,0-.48.29-.99.51-1.41.31-.61.6-1.09.66-1.77,0-.05.01-.09.02-.14.2.05.24.17.13.35-.03.12-.08.23-.12.34-.12.32-.26.63-.39.95-.24.61-.1,1.33-.03,1.96.04.37.04.75.1,1.11.07.41.02.8.03,1.22.02.99-.04,1.89-.28,2.85-.1.41-.21.82-.34,1.22-.18.54-.74.88-1.21,1.12-.03.01-.04.04-.03.07l.04.07c.03.06.12.02.09-.04,0,.02.7-.47.77-.53.31-.29.46-.65.58-1.04.33-1.07.58-2.22.53-3.35-.02-.4.05-.82.02-1.21-.04-.44-.1-.89-.15-1.33-.06-.63-.2-1.28-.04-1.91.11-.42.33-.82.48-1.22.08-.22.35-1.01-.12-1.05Z"/><path d="M66.95,14.46c-.06,0-.1.05-.09.1.02.22.2.36.22.58.03.45.14.86.19,1.3.12.96-.18,1.9.03,2.87.18.81.27,1.56.63,2.32.19.4.33.91.45,1.34.14.51-.11.91-.32,1.35-.03.06.07.11.1.06.31-.52.5-1,.31-1.6-.29-.91-.74-1.77-.9-2.72-.09-.49-.21-1.02-.23-1.52-.02-.49.05-1,.09-1.48.04-.43-.02-.85-.11-1.27-.07-.31,0-.69-.16-.96-.07-.12.24.25.19.17.1.17.16.38.22.57.11.38.14.8.18,1.19.09.91,0,1.81.29,2.69.31.93.77,1.79,1.04,2.73.31,1.05.56,2.13.75,3.2,0,.04.07.03.07-.01-.12-1.15-.42-2.32-.75-3.42-.31-1.07-.91-2.05-1.13-3.15-.21-1.04-.09-2.12-.27-3.17-.07-.43-.31-1.12-.81-1.17Z"/><path d="M65.4,20.43c-.58-.8-1.15-1.62-1.72-2.42-.33-.47-.64-.91-.89-1.43-.13-.27-.19-.56-.45-.72-.04-.03-.1-.01-.12.04-.06.17.01.3.09.46.18.38.39.75.57,1.13.49,1.01.98,2.01,1.47,3.02.37.76.95,1.39,1.32,2.15.09.18.12.54.14.78.03.23.15.49.19.73.07.44.04,1.51-.47,1.73-.03.01-.05.05-.03.08.01.02.02.05.04.07.04.07.15.02.12-.05-.07-.16,0,.01.06-.04.08-.08.14-.12.19-.23.16-.35.25-.7.28-1.07.02-.36-.05-.72-.15-1.06-.07-.24-.08-.51-.1-.76-.01-.17-.21-.44-.29-.6-.19-.39-.5-.71-.71-1.09-.24-.43-.5-.83-.71-1.28-.5-1.02-.99-2.04-1.49-3.06-.07-.14-.13-.26-.21-.39-.14-.24-.09-.29.03-.02.19.43.38.85.66,1.23.6.8,1.14,1.63,1.73,2.44.61.84,1.12,1.67,1.55,2.61.39.87.42,1.85.75,2.75.02.05.1.02.09-.03-.26-.85-.3-1.77-.63-2.6-.33-.84-.76-1.63-1.29-2.35Z"/><path d="M60.24,15.99c-.36-.49-.59-1.01-.85-1.55-.04-.08-.15-.02-.12.06.14.34.1.71.24,1.05.17.4.2.79.4,1.19.2.41.4.81.59,1.22.19.39.52.74.74,1.12.23.4.53.74.73,1.16.2.41.36.82.53,1.24.18.46.37.91.48,1.39.1.41.1.84.18,1.25,0,.05.09.05.08,0-.01-.76-.2-1.46-.44-2.18-.28-.85-.62-1.75-1.14-2.48-.58-.83-1.12-1.67-1.57-2.58-.09-.19-.19-.39-.28-.58-.1-.21-.04-.46-.14-.65-.08-.16-.12-.33-.15-.5.1.22.21.43.34.63.33.47.73.88,1.04,1.36.03.05.11,0,.08-.05-.19-.41-.51-.72-.78-1.08Z"/><path d="M60.08,17.92c-.4-.53-.76-1.13-1.34-1.48-.05-.03-.12,0-.11.07.04.23.18.4.29.6.23.4.4.82.66,1.2.57.82.98,1.75,1.5,2.61.02.04.09.01.07-.03-.38-.7-.73-1.42-1.11-2.13-.13-.25-.32-.48-.48-.71-.24-.35-.36-.76-.59-1.12-.4-.64.17.02.33.2.24.28.44.58.66.88.4.53.87.98,1.31,1.48.04.04.12,0,.09-.06-.3-.58-.9-.99-1.29-1.51Z"/><path d="M64.33,16.01c-.23-.38-.37-.85-.86-.93-.05,0-.09.05-.09.09.14.83,1,1.54,1.32,2.3.45,1.07.26,2.23.87,3.24.02.03.05.04.08.02.02-.02.04-.03.06-.05.03-.02,0-.07-.03-.06-.12.03-.37-.85-.39-.93-.1-.43-.09-.89-.15-1.33-.11-.74-.49-1.42-.91-2.02-.19-.26-.37-.53-.53-.81-.06-.1-.29-.5.11-.09.13.13.21.31.29.48.39.8,1.14,1.34,1.58,2.12.05.09.19.02.14-.06-.38-.75-1.05-1.26-1.49-1.97Z"/><path d="M68.71,14.86c-.1-.18-.22-.42-.43-.48-.05-.01-.1.02-.1.08.04.44.22.86.28,1.31.04.26.11.53.17.78.08.39-.05.87-.1,1.26-.06.54-.04,1.08-.07,1.61-.01.35-.08.69.13.99.03.04.09,0,.07-.05-.28-.54-.08-1.54-.05-2.13.02-.36.07-.72.12-1.07.06-.4.02-.65-.06-1.04-.07-.32-.11-.64-.16-.96-.03-.24,0-.16-.1-.36-.2-.42-.1-.26-.05-.15.06.13.26.34.32.43.26.37.35.75.55,1.13.03.05.12.03.1-.03-.15-.5-.38-.88-.63-1.33Z"/><path d="M73.17,17.22c-.49.91-1.09,1.9-1.22,2.94-.06.55,0,1.1-.02,1.65-.01.48-.04,1.57-.47,1.85-.04.02,0,.08.04.06.31-.16.3-.38.38-.7.13-.53.22-1.09.18-1.63-.05-.67-.02-1.4.21-2.03.2-.55.49-1.11.77-1.64-.11.48-.23.96-.28,1.46-.02.2.14,1.66.04,1.72-.07.04,0,.14.07.11.03,0,.05-.02.08-.03.03-.01.05-.05.04-.08-.06-.64-.15-1.27-.09-1.92.05-.59.25-1.15.37-1.72.01-.06-.09-.1-.12-.04Z"/><path d="M74.22,21.05s-.05,0-.07.02c-.11.12-.1.28-.11.44-.02.38-.27.71-.43,1.04-.17.36-.46.7-.59,1.07-.11.31.01.61-.01.92,0,.07.1.1.12.03.07-.28-.02-.51,0-.79.02-.31.46-.88.6-1.18.11-.22.3-.45.35-.7.05-.26.06-.17.09-.37.04-.27.14-.18.09.06-.05.24-.18.43-.21.68-.05.45,0,.94,0,1.39,0,.4-.21.87-.35,1.24-.13.36-.43.59-.57.94-.02.05.06.09.09.05.24-.39.51-.66.68-1.11.22-.59.29-1.09.27-1.72,0-.21.02-.43,0-.64-.02-.34.17-.51.2-.81.03-.26.11-.43-.15-.54Z"/><path d="M71.42,33.35c-.28-.34-1-.18-1.39-.22-1.15-.12-1.7-1.19-2.42-1.97-.38-.42-.92-.93-1.52-.96-.34-.02-.67.05-1,.12-.42.09-.75.16-1.03-.23-.07-.1-.21.02-.14.12.19.27.48.52.83.4.33-.11.68-.18,1.02-.23.63-.1,1.14.33,1.57.74.62.58,1.04,1.4,1.74,1.89.5.35,1.16.37,1.75.35-.02,0,.48.03.28.13-.13.07-.3.11-.44.13-.51.08-1.03.06-1.53-.05-.85-.19-1.34-.97-1.94-1.52-.49-.45-1.02-.62-1.68-.63-.35,0-.7.04-1.04.07-.47.04-1.45.02-1.68-.55-.02-.06-.11-.02-.09.04.2.54,1.1.76,1.62.67,1.16-.2,2.17-.12,3.01.76.55.58,1.11,1.21,1.94,1.35.64.11,1.6.21,2.13-.26.03-.03.04-.08.01-.12Z"/><path d="M72.19,32.4c-.22-.1-.43-.12-.67-.13-.46-.03-.89-.21-1.29-.42-.67-.36-1.24-.73-1.75-1.3-.31-.35-.87-.6-1.29-.81-.22-.11-.44-.19-.68-.24-.12-.03-.59.04-.62,0-.03-.04-.09-.02-.08.04.05.15.17.16.32.13.72-.1,1.36.44,1.95.79.46.28.74.75,1.22,1.03.54.31,1.06.62,1.64.84.21.07.34.09.56.1.17,0,.33.03.49.07.29.07-.35-.07-.46-.06-.68.04-1.67-.31-2.25-.66-.27-.16-.49-.45-.76-.62-.3-.2-.6-.34-.89-.57-.26-.21-.67-.49-1.01-.43-.07.01-.07.13,0,.13.54-.01,1.16.62,1.61.88.52.31.88.76,1.45.98.45.18.97.36,1.45.44.35.06.75.15,1.07-.05.05-.03.02-.11-.02-.13Z"/><path d="M57.3,37.41c.06-.03.11-.09.16-.13.05-.04.1-.07.15-.1-.01-1.08.13-2.19.36-3.31.03,0,.06-.02.06-.06,0-.06,0-.13-.01-.19,0-.11-.18-.15-.22-.04-.45,1.25-.61,2.56-.51,3.84,0,0,.01-.01.02-.02Z"/><path d="M66.4,45.81c-.55.31-.89.31-1.43.03-.56-.28-1.24-.43-1.83-.63-1.36-.48-2.72-1.52-3.62-2.61-1.23-1.5-1.77-3.13-1.88-4.83-.02.01-.04.02-.05.03-.08.05-.17.09-.25.12.23,1.84.98,3.61,2.17,5.07.97,1.19,2.39,1.97,3.83,2.45.73.24,1.33.6,2.01.92.4.19.87-.15,1.19-.36.13-.09,0-.27-.13-.19Z"/><path d="M72.17,36.88c.38,3.4-1.78,6.25-4.02,8.58-.07.07.04.19.11.13.57-.47.98-1.12,1.47-1.67.6-.67,1.1-1.41,1.6-2.15.91-1.35,1.19-3.3.95-4.89-.01-.08-.13-.07-.12.01Z"/><path d="M70.92,30.71c-.14-.26-.3-.48-.47-.71-.11-.16-.2-.32-.28-.49,0,0,0-.01-.01-.02-.04-.14-.02-.19-.15-.21-.07-.01-.11.05-.09.11.12.4.33.74.59,1.08.35.47.45,1.1.74,1.61.04.06.15.02.13-.05-.09-.45-.22-.91-.44-1.31Z"/><path d="M66.24,47.19c-.17-.44-.53-.76-.82-1.12-.07-.09-.21,0-.15.1.31.42.62.79.8,1.29.17.47.32.93.63,1.33.06.07.19.01.15-.08-.25-.49-.41-1.01-.61-1.53Z"/><path d="M68.71,45.17s0,.04.01.03c.02,0,0-.04-.01-.03Z"/><path d="M68.61,45c-.57.49-.79,1.69-.67,2.4.25,1.45.71,3.2,1.32,4.54.03.07.14.05.13-.03-.15-1.02-.46-2.01-.71-3.01-.26-1.05-.85-2.77.13-3.68.13-.12-.07-.34-.2-.23Z"/><path d="M64.82,50.53c-1.1-.81-2.6-.38-3.85-.49-.63-.06-1.32.07-1.96.07-.92,0-1.81.11-2.74-.05-.76-.13-1.58-.51-2.24-.9-.33-.2-.65-.41-.97-.61-.28-.15-.54-.31-.8-.49-.34-.16-.41-.23-.2-.2.04,0,.07-.04.03-.07-.04-.04-.08-.09-.13-.12-.08-.07-.2.02-.17.11.14.41.53.61.89.82.59.34,1.16.73,1.76,1.06,1.1.61,2.48.87,3.73.79,1.45-.1,2.91.02,4.36-.12.95-.09,1.83.09,2.55.74.16.14,1.22,1.03,1.19,1.34,0,.09.12.11.14.02.15-.51-1.27-1.67-1.6-1.9Z"/><path d="M59.91,47.7s-.05.05-.04.09c.05.18.08.41.16.57.19.41-.21.13-.33-.03-.28-.39-.66-.58-1.15-.62-.09,0-.14.07-.1.15.49.92-.21.33-.68.13-.2-.08-.41-.17-.62-.12-.06.01-.09.1-.05.15.58.78-.21.25-.61.18-.39-.07-.74-.16-1.14-.14-.1,0-.13.14-.06.2.04.04.5.56.39.53-.3-.1-.59-.25-.88-.38-.6-.27-1.32-.29-1.96-.42-.03,0-.04.04,0,.05.64.17,1.28.29,1.91.49.46.15.77.47,1.26.55.06,0,.11-.03.12-.09.06-.28-.12-.43-.32-.61-.04-.03-.07-.06-.1-.08,0,0,0,0,0,0,.59-.02,1.19.22,1.74.41.09.03.17-.04.14-.13-.13-.39-.42-.6.08-.41.34.13.65.31,1,.42.05.02.13,0,.14-.07.02-.34.04-.23-.1-.54.02.04.7.25.9.42.19.17.32.39.59.34.02,0,.03-.02.03-.04-.09-.26-.37-.98.07-.78.03.01.06-.03.03-.05-.19-.16-.22-.24-.44-.18Z"/><path d="M66.53,51.15c-.27-.47-.86-1.08-1.29-1.36-.57-.36-1.2-.6-1.82-.87-.66-.29-1.33.08-2.01-.25-.03-.02-.05.03-.02.05.41.23.77.26,1.23.26.71,0,1.71.47,2.28.9,1.12.83,1.84,2.14,2.94,3.02.09.07.22-.04.15-.13-.46-.54-1.1-1-1.46-1.61Z"/><path d="M73.14,44.63c-.77.62-1.4,1.13-1.96,1.97-.21.31-.36.68-.51,1.02-.07.15-.31.82-.49.37-.03-.07-.14-.09-.17,0-.24.67-.48,1.31-.79,1.95-.2.42-.19.76-.06,1.18.03.08.14.04.12-.04-.18-.72.24-1.33.52-1.92.08-.18.15-.37.21-.55.07-.2-.04-.63.08-.3.01.03.04.06.08.06.55.06.49-.23.69-.66.54-1.21,1.34-2.14,2.34-3,.05-.04,0-.13-.06-.09Z"/><path d="M73.77,44.23s0,.02,0,.02c.01,0,0-.02,0-.02Z"/><path d="M74.06,44.05s0,.02,0,.02c.01,0,0-.02,0-.02Z"/><path d="M75.58,42.13s0,.02,0,.02c.01,0,0-.02,0-.02Z"/><path d="M76.02,40.64c-.06.25-.04.5-.06.76-.02.28-.19.59-.32.84-.13.24-.3.48-.45.7.02-.02-.19-.22-.23-.25-.05-.04-.12-.02-.15.03-.19.42-.35.79-.65,1.16-.06.08.05.16.11.1.2-.19.32-.34.45-.56.12-.21.16-.74.28-.28.01.05.07.07.12.06.31-.11.52-.61.68-.87.13-.21.29-.51.33-.75.03-.18.04-.38.05-.56.07.02.16-.03.13-.13-.02-.09-.04-.17-.08-.25-.05-.11-.2-.1-.23.02Z"/><path d="M76.36,39.28c-.06-.03-.17-.02-.21.04-.1.15-.1.29-.1.47-.01.46-.06.91-.11,1.36-.01.13.18.21.24.07.15-.38.24-.8.25-1.22.03-.68.25.57.26.66.07.35.2.68.26,1.03.09.54.33.79.29,1.41-.03.55-.39,1.11-.69,1.55-.5.73-1.14,1.21-1.78,1.8-1.35,1.22-3.05,1.94-4.19,3.38-.64.8-1.52,3.07-.87,3.95-.06-.08-.19-.02-.15.08,0,.02.01.04.02.05.02.04.05.06.1.06.02,0,.04,0,.06,0,.06,0,.09-.05.09-.11-.06-1.84.46-3.57,1.88-4.82.64-.56,1.47-.95,2.15-1.45.66-.48,1.37-1,1.93-1.6.76-.81,2.03-2.21,1.71-3.46-.2-.76-.35-2.84-1.14-3.25Z"/><path d="M68.11,55.09c-.58-.29-.91-.75-1.17-1.33-.23-.51-.5-.99-.74-1.49-.06-.13-.27-.06-.22.08.24.64.55,1.32.88,1.91.28.49.62.84,1.12,1.09.16.08.29-.18.12-.26Z"/><path d="M89.79,131.16c-11.27-33.31-21.47-75.28-21.61-75.85-.03-.11-.13-.17-.24-.15-.1.03-.17.13-.15.24.14.57,10.25,42.18,21.47,75.44.17.11.35.21.52.32Z"/><path d="M73.2,70.51c.02-.08.04-.16.07-.24.03-.17.07-.34.12-.5-1.24-5.2-2.47-10.62-3.7-16.27-.02-.11-.13-.17-.23-.15-.1.02-.17.13-.15.23,1.3,5.96,2.6,11.68,3.91,17.14,0-.01,0-.03,0-.04-.02-.05-.03-.11-.02-.18Z"/><path d="M74.87,75.89c-.17.04-.37,0-.45-.18,5.76,23.5,11.46,42.19,16.33,56.04.18.11.35.22.53.34-4.88-13.83-10.61-32.57-16.41-56.2Z"/><path d="M76.53,87.76s-.08.01-.11,0c-10-4.46-25.1-23.26-25.24-23.46-.05-.07-.03-.16.03-.21.07-.05.16-.03.21.03.14.19,15.19,18.93,25.13,23.36.07.03.11.12.07.2-.02.04-.05.06-.08.08Z"/><path d="M75.85,86.11s-.08.01-.12,0c-7.84-4.26-24.79-22.67-24.95-22.85-.05-.06-.05-.15.01-.21.06-.05.16-.05.21.01.16.18,17.07,18.55,24.87,22.78.07.04.1.13.06.2-.02.03-.05.06-.08.07Z"/><path d="M84.74,46.71c-.08-.04-.19.03-.17.12.04.23.07.29,0,.56-.03.09.1.11.14.04,0,.01.08-.1.13-.19,0,.27.02.65.01.73-.09.7-.3,1.41-.45,2.1-.31,1.47-.73,2.93-1,4.41-.25,1.37-.49,2.74-.73,4.11-.26,1.47-.69,2.9-.93,4.38-.45,2.85-1.78,5.68-3.22,8.15-.69,1.19-1.46,2.39-2.26,3.51-.39.54-.78,1.08-1.19,1.61-.14.18-.2.35-.12.56.03.09.19.06.17-.04-.08-.4,1.09-1.63,1.33-1.96.31-.43.59-.88.86-1.34.74-1.21,1.61-2.34,2.28-3.6,1.35-2.55,2.16-5.35,2.67-8.18.25-1.38.68-2.72.91-4.1.23-1.41.4-2.83.8-4.2.44-1.53.68-3.13,1.01-4.69.13-.62.53-1.64-.23-1.98Z"/><path d="M75.98,58.18c-.07-.06-.31-.42-.42-.54-.03-.03-.08-.03-.12-.02-.24.09-.28.21-.35.47-.09.3-.44,2.76-1.09,1.94-.07-.09-.21-.02-.18.09.08.37.03.72-.16,1.02-.17.35-.64.56-.7.04-.01-.1-.16-.14-.21-.04-.41.96-.98,2.29-.86,3.34.01.13.21.11.2-.02-.05-.89.36-1.94.7-2.82.04.16.11.29.29.43.03.02.08.04.12.02.5-.22.81-.87.9-1.4.02-.09,0-.18-.03-.25.06.03.14.04.2.04.42.04.82-.71.88-1.03.08-.38.01-.79.11-1.16.13-.5.32-.12.55.05.12.1.27-.08.16-.18Z"/><path d="M81.21,50.22c-.11.61-.81,1.2-1.08.31-.03-.09-.13-.11-.2-.07-.34.2-.7,1.09-.61,1.46.1.39-1.02,1.33-.87,1.53-.16-.21-.3-.43-.5-.59-.04-.03-.11-.03-.14.01-.29.43-.24.83-.18,1.33.08.66,0,1.52-.76,1.11-.03-.02-.07,0-.09.03-.19.4-.29.76-.33,1.19,0,.07-.22,1.83-.37,1.57-.04-.07-.17-.03-.16.06,0,.02,0,.04.01.06.01.05.07.11.13.08.45-.22.67-.78.6-1.29-.02-.16.07-1.68.27-1.38.04.06.14.17.24.15.44-.11.73-.64.7-1.07,0-.18-.02-.36-.04-.53-.01-.09-.02-.18-.03-.27-.14-.32-.07-.54.2-.67.08.16.17.21.18.38,0,.11.12.18.23.14.55-.16.9-.79,1.06-1.3.12-.41.48-1.3.46-1.54.06.89,1.55.14,1.42-.69-.01-.07-.12-.08-.13,0Z"/><path d="M81.51,49.81c-.05-.11-.11-.22-.25-.14-.03.01-.04.05-.03.08.04.1.02.16-.01.24-.03.07.07.12.1.05.01-.03.02-.06.03-.09.06.08.18.15.27.19.04.02.09,0,.1-.05.04-.17-.07-.24-.21-.29Z"/><path d="M84.78,45.13c-.14.4-.37.8-.48,1.2-.15.52-.45,1.12-.98.67-.37-.32-.53.49-.55.66-.05.34-.07,1.05-.62.79-.06-.03-.16,0-.2.04-.32.37.16,1.07-.4,1.34-.09.05-.05.18.05.15.04-.02.07,0,.08.06.03.02.07.03.1.02.24-.08.28-.18.39-.41.11-.23-.26-1.11.12-.86.44.29.65-.56.68-.78.02-.11.04-.81.3-.53.21.23.4.14.69.04.24-.08.38-.46.46-.65.16-.38.3-.76.44-1.15.05.62-.08,1.27-.12,1.87-.01.14.17.17.21.04.23-.8.32-1.67.08-2.48-.03-.11-.21-.12-.25-.01Z"/><path d="M70.37,64.8c.02.14-.09.26-.18.36-.1.1-.29,0-.39-.03-.11-.03-.35-.12-.45-.01-.1.11-.06.25.01.37.05.09.13.17.2.25.09.11.02.23,0,.36-.01.05.07.09.1.05.12-.17.22-.29.09-.47-.06-.09-.13-.16-.2-.25-.14-.19.03-.15.16-.11.19.05.37.17.55.04.15-.11.3-.36.26-.55-.02-.1-.17-.09-.15.01Z"/><path d="M69.29,66.17c-.23.09-.47.18-.71.22-.2.04-.46-.06-.67-.05-.15,0-.13.24.02.23.25,0,.5.08.74.03.24-.05.46-.14.69-.23.13-.05.06-.26-.07-.21Z"/><path d="M68.68,66.26c-.33-.02-1.07,0-1.16.42-.03.16.22.21.26.04.03-.13.33-.16.43-.18.14-.02.28-.04.42-.03.16.01.21-.24.04-.26Z"/><path d="M67.58,66.59c.28,1.21-1.14.76-1.54.71-.24-.03-.43,0-.65.1-.05.02-.09.09-.05.14.19.22.35.33.61.45.76.35,1.58,1.97.17,1.71-.65-.12-1.6-.63-2.24-.26-.05.03-.06.11-.03.15.23.26.47.31.76.51.48.34,1,.59,1.46.98.57.48-.07.82-.6.75-.18-.02-.33-.07-.52-.06-.55.03-1.01.29-1.56.33-.06,0-.1.08-.06.14.29.38.74.49,1.18.64.85.28,1.76.44,2.58.81.36.16.69.4,1.04.57.39.19.64.13.16.47-.36.25-.61.6-1.09.66-.19.02-.2.03-.32.16-.04.04-.04.12.01.15.42.27.6.16,1.1.13.14,0,.12-.22-.02-.21-.18,0-.59-.05-.76-.02.24-.05.46-.14.7-.23.26-.1.73-.55.94-.8.04-.05.02-.12-.03-.15-.87-.55-1.83-1.15-2.84-1.35-.55-.11-1.12-.33-1.67-.47-.17-.04-1.01-.23-.37-.35.43-.08.78-.2,1.23-.18.56.02,1.41.23,1.51-.55.04-.28-.28-.48-.45-.63-.54-.46-1.1-.71-1.67-1.09-.57-.38.35-.11.56-.05.37.11,1.05.4,1.44.25.54-.19.82-.67.53-1.2-.2-.37-.48-.65-.84-.87-.33-.2-.54-.57.16-.33.13.04.43.08.57.08.72.02.98-.52.75-1.15-.04-.12-.21-.05-.18.07Z"/><path d="M73.19,77.53c.09,0,.18.04.25.11,0-.01,0-.03,0-.04,0-.14.01-.29-.11-.39-.37-.32-1.29-.97-1.81-.78-.7.25-1.13.5-1.45,1.19-.18.38-.25.78-.45,1.15-.31.55-.28.31-.2.04.1-.36.22-.69.34-1.05.1-.3.27-1.2-.04-1.47-.1-.08-.22-.42-.4-.4-.74.07-1.26,1-1.79,1.39-.38.32-.41.27-.09-.12.19-.25.29-.5.49-.75.17-.21.24-.39.23-.65,0-.14-.21-.12-.21.02.02.58-.79,1.24-.97,1.8-.03.08.04.18.13.14.5-.17.78-.47,1.12-.84.14-.15,1.04-.99,1.15-.67.02.06.05.16.12.19.65.31-.15,1.89-.24,2.38-.04.19-.12.41.06.54.03.02.07.03.1,0,1-.7.57-2.14,1.95-2.6.36-.12,1.77.24,1.84.8Z"/><path d="M75.64,64.33s-.11-.01-.14.03c-.14.21-.15.35-.14.6.03.53-.14,1.2-.56,1.59-.08-.01-.28-.37-.37-.51-.04-.07-.14-.06-.19-.01-.34.34-.21.83-.14,1.26.13.93-.36.61-.37,1.2,0,.41-.3-.53-.34-.61-.02-.04-.08-.06-.11-.02-.13.18-.11.11-.09.33.05.68-.12,1.26-.24,1.92-.07.35-.19.79-.1,1.15.1.39.25.73-.3.45-.1-.05-.18.07-.13.15.13.22.31.5.48.69.42.45.7,1.28.81,1.91.06.34.32.82.66,1.07-.08-.17-.15-.36-.23-.56-.16-.28-.27-.64-.37-.99-.09-.27-.18-.55-.25-.84-.09-.24-.19-.45-.33-.6-.03-.04-.23-.36-.32-.47.13.04.26.05.39-.03.01,0,.02-.02.03-.03-.02-.12-.03-.24-.04-.36-.09-.28-.22-.45-.19-.95.04-.58.22-1.16.33-1.72.04-.21-.15-1.15.08-.5.06.19.13.37.33.44,0,0,.01,0,.02,0,.01-.02.02-.04.04-.06.03-.04.06-.07.1-.09.15-.52.38-.95.39-1.5,0-.22-.24-1.08.08-.61-.05-.08.26.29.22.18.04.1.17.15.26.08.38-.28.53-.77.78-1.17.13-.2.13-.24.08-.45-.07-.31-.14-.85.14-.33.06.11.24.01.19-.1-.1-.23-.22-.43-.45-.55Z"/><path d="M79.54,56.64c-.02.93-.69,1.56-.54,2.55.11.7-.66.07-.72.41-.03.2.08.41.16.59.27.64-.5,1.38-.8,1.92-.61,1.11-.48.04-.99-.34-.03-.02-.07-.01-.09.02-.11.19-.07.44-.04.65.09.76.12,1.83-.48,2.4-.07.07.04.18.11.12.43-.34.5-.94.55-1.45.03-.32.02-.78-.05-1.09-.11-.49.21.08.27.26.31,1.04,1.28-1.12,1.36-1.21.35-.4.45-.83.31-1.32-.18-.63.17-.09.46-.28.29-.2.14-.72.1-.99-.13-.81.61-1.44.57-2.23,0-.13-.19-.1-.19.02Z"/><path d="M84.27,46.53c-.14,1-.61,2.04-.84,3.02-.07.31-.31.72-.18,1.05.15.39.08.8-.03,1.19-.03-.05-.05-.11-.08-.16-.04-.08-.14-.11-.21-.04-.57.68-.99,1.6-1.34,2.41-.11.25-.09.52-.12.78-.01.16-.47-.4-.56-.47-.09-.07-.2,0-.2.1,0,.14,0,.27.03.41.17.64-.09,1.13-.4,1.65-.26.42-.27.56-.47.26.01,0,.02-.01.03-.02.06-.03,0-.1-.05-.09-.02,0-.04,0-.06,0-.03-.05-.07-.11-.12-.19-.06-.1-.23-.01-.18.09.02.03.03.06.04.08.12.22.25.44.37.66.03.06.12.06.17.03.31-.18.43-.66.61-.95.36-.59.3-1.04.28-1.61.12.18.22.36.43.46.05.03.11,0,.15-.03.31-.32.21-.89.38-1.29.18-.43.42-.83.65-1.24.15-.26.37-1,.54-.38.04.14.22.09.25-.02.3-1.06.14-2.07.48-3.11.19-.58.27-1.17.49-1.75.12-.3.28-.52.29-.86,0-.21-.33-.21-.36-.01Z"/><path d="M72.32,75.28c-1.17-.74-2-1.78-3.09-2.62-.41-.32-.88-.49-1.35-.68-.43-.17-1.11-.11-1.48-.4-.04-.03-.11.02-.07.07,0,0,.02.02.02.03.01.02.03.02.05.02.02,0,.04-.01.06-.02.01,0,.02-.02,0-.03.08.06-.06.14.03.15.26.05.52.11.78.17.79.17,1.49.48,2.12.98,1.02.8,1.71,1.83,2.88,2.45.07.04.12-.07.05-.11Z"/><path d="M72.39,74.5c-1-1.05-1.64-2.37-2.66-3.4-.38-.39-.76-.75-1.24-1.02-.52-.29-1.19-.27-1.69-.56-.05-.03-.09.05-.05.08.04.05.05.04.12.03.03,0,.04-.04,0-.06.07.03-.06.12.02.14.32.08.63.18.94.28.72.25,1.25.69,1.78,1.22,1.03,1.03,1.59,2.39,2.68,3.37.06.06.14-.04.08-.1Z"/><path d="M69.97,69.17c-.61-.94-1.36-1.41-2.39-1.85-.07-.03-.12.07-.05.1,1.08.51,1.8,1.12,2.44,2.13.54.85.89,1.79,1.53,2.59.05.06.14,0,.1-.07-.52-.97-1.03-1.98-1.63-2.91Z"/><path d="M69.92,66.69c-.09-.08-.2-.21-.31-.25-.09-.04-.2-.07-.27-.15-.07-.07-.16.03-.12.11.08.15.3.22.42.33.23.2.43.42.65.62.07.06.17-.03.12-.11-.15-.2-.31-.38-.49-.55Z"/><path d="M73.37,62.46c.16,1.09.21,1.97-.04,3.05-.18.79-.16,1.46.17,2.19.01.03.06.01.05-.02-.33-1.05-.06-1.95.16-2.99.16-.77-.01-1.53-.24-2.26-.02-.06-.12-.04-.11.02Z"/><path d="M74.57,65.69c-.08-.05-.14.09-.06.13.1.05.16.13.24.22.02.03.08.02.07-.03-.03-.15-.12-.25-.25-.32Z"/><path d="M74.32,60.69c.07.43.26.82.33,1.25.09.57-.05,1.1-.15,1.66-.17.91-.07,1.71.26,2.57.04.1.19.04.15-.05-.44-1.17-.28-2.16-.08-3.35.12-.74-.23-1.4-.41-2.09-.01-.05-.1-.03-.09.02Z"/><path d="M75.85,60.41s-.07-.04-.07,0c-.05.78-.13,1.54-.02,2.32.07.49.28,1.23.71,1.54.06.04.11-.03.07-.08-.9-.97-.7-2.58-.68-3.78Z"/><path d="M75.71,59.25s0,.02,0,.02c.01,0,0-.02,0-.02Z"/><path d="M76.85,55.43c-.03-.06-.11,0-.1.05.15.54.42.98.51,1.55.1.63-.04,1.36-.02,2,.02.85.28,1.7.78,2.38.04.05.14.03.13-.05-.06-.33-.25-.52-.35-.85-.24-.74-.32-1.4-.31-2.17,0-.54.13-1.16-.04-1.69-.14-.46-.38-.8-.6-1.22Z"/><path d="M78.18,53.24s-.08,0-.07.04c.12.51.46.92.67,1.4.17.39-.14,1.16-.18,1.58-.08.79.12,1.68.59,2.32.06.08.16,0,.12-.08-.59-1.11-.6-2.08-.35-3.27.16-.76-.43-1.36-.77-1.99Z"/><path d="M79.86,50.92c-.04-.09-.17-.05-.15.05.12.4.26.71.17,1.13-.08.41-.26.76-.42,1.14-.25.62.08,1.34.32,1.92.03.07.14.03.12-.04-.15-.56-.48-1.22-.3-1.81.09-.28.31-.5.39-.78.19-.7.18-.97-.14-1.62Z"/><path d="M81.28,50.38c-.04-.1-.19-.04-.15.05.13.38.29.76.32,1.16.03.39-.05.79-.05,1.18,0,.09.13.09.15,0,.08-.4.13-.79.11-1.2-.02-.43-.21-.81-.38-1.2Z"/><path d="M63.13,60.51c-.9-.07-1.77-.16-2.64-.44-.92-.3-1.66-.99-2.37-1.62-.44-.39-1.1-1.56-1.77-1.5-.06,0-.08.07-.05.11.44.73,1.03,1.36,1.43,2.11,0,.02.04,0,.03-.02-.23-.63-.59-1.09-.98-1.62-.39-.53-.15-.41.18-.1.24.22.44.48.65.73.78.92,1.94,1.88,3.12,2.21,3.09.86,7.39.16,9.09,3.61.02.04.09.02.07-.02-1.04-2.61-4.24-3.25-6.75-3.44Z"/><path d="M65.74,67.13c-.4.07-.76-.11-1.14-.08-.21.07-.33-.03-.35-.3.12.02.32-.02.44-.02.06,0,.1-.07.08-.12-.36-.89-.89-1.44-1.85-1.71-.42-.12-.83-.22-1.27-.22-1.38.01.39-.61.44-.63.16-.05.13-.04.28-.24.02-.03.03-.08,0-.11-.48-.55-1.82-.82-2.51-.78-.18,0-1.05-.04-.51-.17.19-.05.42-.08.59-.2.17-.12.29-.37.13-.56-.26-.31-.59-.45-.98-.55-.75-.2-1.57-.9-2.06-1.51-.33-.4.98.29.98.29.19.13.35.29.52.46.23.24.43.32.69.1.04-.03.05-.09,0-.12-.15-.11-.29-.24-.42-.38-.06-.08-.18,0-.12.08.03.05.06.09.1.13.27.2.19.18-.26-.08-.12-.14-.24-.24-.38-.35-.35-.27-.76-.51-1.2-.56-.04,0-.08,0-.1.04-.36.55.6,1.09.94,1.39.35.3.82.65,1.28.73.42.03.63.29.63.77-.13.04-.27.08-.4.11-.18.04-.33.08-.49.19-.05.03-.07.11-.03.16.23.3.57.27.93.25.38-.02.71.01,1.08.09.17.05.34.09.5.15l.17.02c.45-.02.53.15.26.52-.59.06-1.13,1.02-.25.96,1.17-.09,2.54.39,3.03,1.52.1.24-.48.14-.67.19-.1.03-.17.17-.19.26-.12.68,1.81.56,2.15.45.09-.03.06-.19-.04-.17Z"/><path d="M69.39,65.94c-1.6-1.6-3.43-2.75-5.63-3.35-.6-.16-1.21-.25-1.79-.48-.62-.26-1.17-.73-1.7-1.14-1.16-.9-2.32-1.77-3.17-2.98-.06-.08-.19,0-.13.09.73,1.05,1.69,1.88,2.7,2.65.89.68,1.72,1.36,2.81,1.7.61.2,1.25.26,1.86.47.59.21,1.16.5,1.73.77,1.27.59,2.18,1.46,3.25,2.36.06.05.13-.04.08-.09Z"/><path d="M67.12,65.93c-.94-.25-1.93-.15-2.89-.16-.06,0-.07.11,0,.11.96.05,1.92.02,2.88.17.08.01.1-.1.02-.12Z"/><path d="M68.89,65.72s-.11-.02-.11.04c.01.23-2.54-.93-2.87-1.02-.53-.15-1.12-.07-1.66-.11-.53-.04-1.04-.03-1.54.18-.05.02-.03.1.02.09,1.08-.19,2.63-.17,3.66.23.86.33,1.53.92,2.51.84.07,0,.11-.09.07-.15-.02-.04-.05-.07-.08-.1Z"/><path d="M64.49,63.29c-.78.09-1.57.31-2.36.33-.06,0-.05.1,0,.1.58,0,1.15-.14,1.73-.22.35-.04,1.28-.26,1.53.07.06.08.18,0,.13-.09-.22-.29-.72-.23-1.03-.19Z"/><path d="M61.74,62.23c-.51.02-1.03,0-1.54.02-.06,0-.06.1,0,.1.51-.01,1.03.06,1.54-.03.06-.01.05-.1,0-.09Z"/><path d="M70.11,48.24c.26.86.33,1.93-.2,2.7-.04.06.03.12.08.07.69-.69.56-1.99.22-2.81-.03-.06-.12-.03-.1.04Z"/><path d="M72.63,45.23c-.38.49-.45,1.09-.5,1.69-.05.64,0,1.65-.56,2.1-.06.05-.01.15.06.12.46-.18.55-.81.61-1.24.11-.9.1-1.76.53-2.58.04-.08-.08-.17-.14-.09Z"/><path d="M74.44,43.72c-.17.27-.31.61-.32.93-.01.59-.14,1.15-.23,1.72-.04.3-.3,1.06-.56,1.24-.07.05-.03.16-.08.19-.09.04-.04.17.05.14.04-.01.08-.02.13-.04.05-.01.06-.07.05-.11,0-.04.24-.42.26-.46.22-.44.3-.87.47-1.32.11-.29.07-.66.09-.97.03-.45.16-.86.28-1.29.02-.09-.1-.11-.14-.04Z"/><path d="M75.65,43.57c-.01.65.16,1.86-.51,2.25-.02.01-.03.04-.03.07,0,.04-.04.1-.05.14-.02.06.06.11.1.04.08-.15.25-.22.35-.36.13-.17.19-.4.23-.61.11-.49.13-1.06.01-1.55-.02-.06-.1-.03-.11.02Z"/><path d="M44.43,57.9c.05.01.11.02.16.03-.08-.28-.12-.56-.2-.84,0-.03-.01-.06-.01-.09-.1-.28-.2-.55-.31-.8,0,0,0,0,0,0-.01-.03-.03-.05-.06-.06,0,0,0,0-.01,0,0,0-.01,0-.02,0,0,0-.02,0-.03,0-.04,0-.07.03-.08.06-.02.02-.02.05,0,.08,0,0,0,0,0,0,.18.53.35,1.07.53,1.62.01,0,.03,0,.04,0Z"/><path d="M50.47,62.97c-.64-.12-1.29-.44-1.92-.6-.99-.25-1.82-.87-2.47-1.64-.48-.56-.81-1.25-1.09-1.98-.11-.02-.22-.04-.32-.07.38,1,.85,1.95,1.59,2.72.51.53,1.23.99,1.94,1.21.62.19,1.65.78,2.3.59.12-.03.09-.2-.02-.23Z"/><path d="M51.43,55.48c-.38-.51-.43-.98-.5-1.58-.01-.12-.22-.14-.23,0-.1,1.42.9,2.19,1.29,3.51.28.93.26,1.98.18,2.94-.04.5-.29.85-.55,1.26-.12.19-.35.76-.55.85-.12.05-.06.23.07.19.44-.15.7-.85.93-1.22.41-.67.44-1.37.45-2.14.01-.93-.12-1.78-.43-2.67-.15-.43-.38-.77-.66-1.14Z"/><path d="M44.66,56.63c-.05-.08-.11-.15-.18-.22-.27-.26-.57-.47-.88-.68-.91-.64-.83-1.94-1.26-2.88-.05-.11-.22-.06-.19.07.21.68.29,2.08.85,2.61.47.45,1.06.73,1.46,1.24.05-.06.12-.1.19-.13Z"/><path d="M44.56,54.15c-.16-.4-.21-1.05-.65-1.25-.07-.03-.13.02-.13.09-.01.71.22,1.34.47,2,.12.32.31.62.48.92.71,1.24-.25.41-.63.05-.74-.7-.81-1.57-1.28-2.4-.11-.19-.64-.91-.86-1.02,0,0,0-.01,0-.02.05.12.1.24.13.36.6.66.73,1.56,1.21,2.34.36.58.81,1.07,1.38,1.41.17-.06.37-.02.43.2,0,0,0,.02,0,.02.01,0,.02.01.03.02.08.03.15-.04.13-.12-.18-.67-.56-1.2-.85-1.83-.12-.27-.21-.57-.3-.85-.01-.03-.37-1.51.04-.54.44,1.05.92,2.07,1.36,3.12.02.04.07.02.06-.02-.22-.93-.68-1.59-1.03-2.48Z"/><path d="M46.09,53.36c-.48-.99-1.69-1.43-2.21-2.42-.04-.08-.15,0-.13.06.13.45.07.81.43,1.11.71.61,1,1.53,1.37,2.36.02.03.07.02.06-.02-.23-.72-.56-1.34-.92-1.99-.24-.43-.61-.41-.69-1.03,0-.02,0-.03-.01-.05.02.04.05.08.09.13.6.81,1.52,1.25,1.99,2.19.4.81.04,1.68.4,2.43.03.06.12.03.1-.04-.11-.45,0-1.01-.06-1.47-.05-.44-.21-.87-.4-1.27Z"/><path d="M47.21,51.82c-.19-.36-.29-.89-.68-1.08-.07-.03-.15.02-.14.1.04.38.23.68.39,1.03.15.33.04.6.11.93.09.41.25.78.33,1.2.07.38-.59.83-.74,1.19-.15.34.02.86.14,1.19.05.15.27.07.23-.08-.17-.69.03-1.07.41-1.64.1-.15.19-.26.19-.46-.01-.35-.1-.64-.21-.97-.16-.46-.15-.95-.26-1.43,0-.01-.01-.04-.03-.07.11.21.23.42.33.67.48,1.17.65,2.42-.18,3.47-.04.05.03.11.07.06.61-.69.84-1.56.63-2.48-.13-.56-.31-1.11-.59-1.62Z"/><path d="M44.35,57.89s.05,0,.08,0c.03,0,.05.01.07.02,0,0,0,0,0-.02-.13-.48-.77-.85-1.2-1-.42-.15-.91-.21-1.35-.27-.8-.1-1.27-.36-1.62-.92.09.05.19.09.3.11.88.23,1.79.19,2.56.73.04.03.09-.03.05-.06-.57-.5-1.28-.51-1.99-.67-.13-.03-.26-.06-.39-.09-.15-.03-.49-.26-.68-.32-.04-.08-.08-.17-.12-.27-.04-.09-.18-.04-.15.05.03.1.08.19.14.26,0,.04,0,.09.04.17.12.27.3.5.51.71.45.46,1.44.58,2.03.65.49.06.88.16,1.28.45-.03,0,.31.32.45.44Z"/><path d="M52.94,51.09s-.04-.01-.03.01c.18.61.52,1.35.12,1.95-.28.42-.71.74-.98,1.17-.38.61-.72,1.27-.19,1.82-.03-.03-.07,0-.08.02-.04.07-.03.07,0,.15.02.06.11.03.09-.03,0,.02,0,.04.01.07.04.06.15.01.12-.06-.36-.84-.13-1.39.4-2.1.26-.35.8-.69.94-1.09.25-.69-.08-1.29-.38-1.9Z"/><path d="M52.78,50.56c-.03-.07-.13-.05-.13.03,0,1.13.02,2.11-.68,3.06-.4.56-1.14.93-.9,1.7.02.08.14.05.14-.03-.04-.72.69-1.21,1.05-1.74.21-.3.31-.58.41-.93.12-.4.17-.8.12-1.22-.03-.21-.01-.43-.02-.64,0,.03.1.23.14.31.02.04.08,0,.07-.03-.07-.17-.15-.34-.22-.51Z"/><path d="M50.22,50.91s-.12,0-.12.06c.02.37.2.66.24,1.04.06.59-.07,1.19-.16,1.77-.09.57.08,1.33.55,1.7.09.07.21-.06.12-.14-1.05-.96-.01-2.81-.54-4.02-.02-.04-.03-.07-.04-.1.02.04.04.09.07.13.29.52.39,1.01.35,1.6-.03.43-.18.82-.19,1.26,0,.06.1.06.11,0,.09-1.18.61-2.32-.39-3.31Z"/><path d="M46.53,56.34c-.05.08-.09.16-.17.22-.09.07-.27,0-.36-.04-.22-.1-.27-.3-.4-.48-.03-.04-.1-.02-.09.03.03.34.25.63.6.7.27.06.59-.09.55-.41,0-.07-.09-.08-.13-.02Z"/><path d="M45.84,56.6c-.29.06-.43.23-.45.47.05.05.08.11.09.2.02.18.03.35.03.53.06.2.12.41.14.62.04.37-.06.69-.07,1.06,0,.06.1.06.11,0,.07-.39.2-.68.12-1.07-.11-.53-.51-1.39.07-1.72.04-.03.02-.11-.03-.1Z"/><path d="M45.83,56.67c-.11.63.31,1.17.11,1.8-.12.39-.52.54-.44.99.01.08.12.09.14,0,.08-.42.46-.64.55-1.06.13-.61-.23-1.1-.2-1.7,0-.1-.14-.13-.15-.03Z"/><path d="M48.42,57.91c-.25-.38-.5-.8-.58-1.25-.03-.17.03-.26-.05-.41-.11-.2-.77-1-.96-.48-.04.12.12.2.18.09.18,0,.33.06.45.2.16.17.23.37.23.62.01.23.16.46.25.65.23.48.57.94.96,1.31-.13.06-.21.02-.24-.12-.05-.07-.11-.14-.17-.21-.31-.27-.64-.52-.95-.79-.35-.3-.56-.45-.62-.96-.01-.12-.02-.16-.08-.25-.03-.06-.14-.02-.13.05.12.6.21.87.72,1.28.42.33.9.66,1.21,1.1.12.17.22.24.42.24.03,0,.05-.03.05-.05-.03-.41-.48-.67-.7-1Z"/><path d="M50.3,57.84c-.63-.41-.93-1.1-1.32-1.72-.27-.43-.73-.46-1.14-.24-.06.03,0,.13.05.1.75-.36,1.19.4,1.52.94.26.41.42.72.85.97.03.02.06-.03.03-.05Z"/><path d="M49.69,56.53c-.03-.09-.17-.04-.14.05.08.19.18.38.24.58-.05-.04-.12.04-.07.09.05.06.1.05.17.02.02,0,.04-.04.04-.06-.04-.24-.15-.45-.24-.68Z"/><path d="M49.33,55.43c-.12-.24-.35-.49-.61-.57-.38-.11-1.44.04-1.25.63.02.07.12.07.15,0,.3-.54,1.14-.65,1.5-.11.32.47.58,1.02.83,1.53.04.09.19.04.15-.05-.24-.48-.51-.95-.76-1.43Z"/><path d="M50.78,55.79c-.08-.23-.08-.41-.22-.62-.14-.2-.38-.33-.59-.43-.09-.04-.18.09-.1.15.15.11.29.21.43.33.23.19.24.52.35.78.08.19.17.36.26.55.23.45-.09-.1-.15-.26-.25-.72-.8-1.04-1.49-1.15-.07-.01-.09.07-.03.11.24.15.53.16.77.34.32.24.52.65.64,1.02.06.18.33.57.53.33.05-.06,0-.18,0-.24-.09-.31-.28-.59-.39-.9Z"/><path d="M49.3,51.52s-.12-.03-.15.03c-.32.69.06,1.46-.04,2.19-.06.47-.61,1.01-.01,1.29.08.04.14-.07.08-.12-.25-.23.12-1.15.15-1.48.05-.5-.16-1-.1-1.51.05-.49.19.57.18.49.02.21,0,.39.05.6.1.47.8,1.72-.13,1.87-.07.01-.07.1,0,.12.65.16.69-.71.67-1.15,0-.16-.12-.34-.18-.49-.14-.32-.21-.61-.22-.97-.01-.27-.06-.71-.29-.88Z"/><path d="M48.2,51.68c-.06-.16-.13-.31-.31-.33-.03,0-.06.02-.07.05-.18.73.64,1.46.58,2.23-.04.46-.31.9-.08,1.34.03.06.12,0,.11-.05-.11-.43.04-.85.13-1.26.08-.42-.1-.83-.28-1.19-.11-.21-.18-.44-.27-.66.03-.03.07-.05.1-.08.04.09.07.18.1.27.15.39.46.69.68,1.04.03.04.1,0,.08-.04-.22-.46-.57-.82-.76-1.31Z"/><path d="M47.07,54.46s-.04,0-.04.01c0,.02,0,.03,0,.05,0,.05.09.02.06-.02,0-.01-.02-.03-.03-.04Z"/><path d="M46.84,52.74c-.18-.17-.37-.31-.57-.45-.39-.26-.86-.57-1.09-1-.05-.09-.2-.01-.16.08.11.28.2.5.4.72.02.02.05,0,.04-.03-.03-.08-.06-.17-.09-.25.19.21.41.4.62.56.2.15.42.28.61.44.17.14.23.34.41.44.06.03.13-.05.08-.1-.1-.12-.14-.28-.26-.4Z"/><path d="M45.75,52.49c-.04-.1-.21-.04-.16.06.09.2.18.44.33.6.03.03.07,0,.07-.04,0-.22-.16-.42-.24-.62Z"/><path d="M50.4,63.04c-.06-.06-.14.02-.12.09.04.15.17.3.26.42.15.21.3.42.46.62.05.06.16.02.13-.07-.15-.38-.43-.77-.73-1.05Z"/><path d="M50.37,63.57c-.32.13-.48.4-.86.57-.72.31-1.4,0-2.02-.34-.76-.41-1.38-.68-2.2-.29-.08.04-.04.15.05.13,1.42-.42,2.11.78,3.4.78.55,0,1.52-.15,1.72-.78.01-.05-.04-.09-.09-.07Z"/><path d="M50.21,62.79c-.38.01-.66.1-1,.27-.65.32-1.32.13-1.99-.01-.71-.16-1.3.02-1.94.36-.03.01-.04.06-.03.09.02.03.03.05.05.08.03.03.06.04.09.02.01,0,.02-.01.03-.02.02-.01.02-.04,0-.06-.1-.1,1.63-.3,1.5-.32.47.05.95.21,1.42.29.62.11,1.33-.33,1.9-.5.11-.03.06-.19-.04-.19Z"/><path d="M52.6,58.31s-.08,0-.1.02c-.23.23-.22.65-.27.95-.02.09.11.11.14.02.07-.23.13-.47.18-.7.04.05.08.09.13.14,0,.12-.01.23-.02.35,0,.37.22.7.35,1.05.25.66.21,1.2-.11,1.82-.32.63-.87.84-1.46,1.13-.08.04-.04.16.05.14.53-.15.82-.21,1.21-.63.42-.44.65-1.01.7-1.6.05-.55-.29-1.11-.5-1.6-.17-.4.13-.83-.29-1.1Z"/><path d="M48.14,60.8c-1.11-.79-1.74-2.18-2.01-3.5,0-.03-.06-.04-.06,0-.06.52.21,1.01.39,1.48.19.52.35,1.13.78,1.51.55.48,1.14.89,1.71,1.33.38.29.64.73,1.04.98.07.05.16-.06.11-.13-.5-.66-1.29-1.2-1.96-1.68Z"/><path d="M48.79,61.51c-.44-.32-1-.33-1.48-.56-.88-.43-1.1-1.13-1.53-1.92-.02-.04-.09-.01-.08.03.14.72.37,1.24.93,1.72.62.53,1.35.57,2.08.85.07.03.14-.07.07-.11Z"/><path d="M50.29,57.81c-.03-.07-.15-.05-.14.03.11.67.34,1.03.58,1.65.39,1.01.16,2.01-.37,2.92-.04.06.06.13.11.07,1.19-1.51.53-3.13-.18-4.67Z"/><path d="M49.19,57.87c-.21-.34-.32-.62-.42-.99-.02-.12-.04-.25-.07-.37-.01-.03-.03-.05-.06-.05,0-.01,0-.03,0-.04,0-.12-.2-.1-.18.02.16,1.38,1.49,2.51,1.26,3.9-.14.8-.22,2.12.72,2.5.11.04.2-.09.11-.17-1.14-1.06-.32-2.14-.61-3.37-.12-.49-.49-1-.75-1.42Z"/><path d="M47.4,58.12c-.26-.6-.46-1.07-.88-1.58-.05-.05-.15-.01-.12.06.12.29.31.51.45.8.17.35.26.73.44,1.07.35.68.87,1.31,1.4,1.87.06.07.18-.04.12-.11-.5-.67-1.07-1.34-1.41-2.11Z"/><path d="M51.65,56.64c-.24.6,0,1.07.14,1.67.15.64.11,1.24-.22,1.83-.18.32-.39.62-.47.99-.02.07.08.09.11.04.34-.65.78-1.17.9-1.91.14-.9-.55-1.66-.33-2.56.02-.08-.11-.12-.14-.04Z"/><path d="M78.38,94.52c0,.83-.83.18-1.18.25-.65.12-1.04.08-1.63-.21-.39-.19-.98-.62-1.26-.1-.02.04-.02.1.01.14.57.69,1.62.82,2.06,1.71.14.28.36.46.55.72.5.69-1.22.73-1.32.72-.31-.02-.62-.07-.92-.1-1.06-.13-2.12-.31-3.18-.34-.53-.02-1.31-.27-1.79.01-.07.04-.08.16-.01.21,1.45,1.03,2.98,1,4.67,1.1.59.03,1.25.21,1.65.67.34.39.96,1.31-.18,1.49-.28.04-.99-.15-1.07.31-.07.39.5.68.76.8.76.35.88,1.57.57,2.2-.22.45-.65.82-1.01,1.16-.7.66-1.1.95-2.18.59-.44-.15-.33.13-.83.01-.49-.11-1.04-.37-1.53-.14-.06.03-.1.09-.07.16.15.49,1.08.61,1.47.81.17.08.33.17.48.29.94.66-.87,1.01-.93,1.02-.57.12-1.17.07-1.75.1-.28.01-1.96-.04-2.08.3-.07.23-.69.46-.31.79.14.12.53.16.69.2.47.13.99.32,1.48.3,1.01-.04,2.29-.28,3.26.05.72.85.67,1.45-.16,1.78-.2.1-.4.16-.6.28-.43.26-.81.57-1.19.9-.31.27-.61.71-.32,1.08.04.05.11.08.17.05,1.05-.4,2.36-.52,3.46-.32.89.16,1.77,1.26,2.69,1.22,1.09-.05,2.26-.83,3.3-1.16.94-.3,1.78-.36,2.72-.06.28.09.6.2.91.34-.03-.1-.06-.2-.09-.3-.34-.14-.68-.25-.99-.35-1.12-.36-2.25-.01-3.31.37-.67.24-1.33.54-2,.8-.66.26-1.43-.23-1.94-.6-.89-.65-2.07-.71-3.12-.58-.36.04-.9.05-1.23.18-.83.32.12-.59.35-.8.59-.53,2.09-.81,2.24-1.77.31-1.99-2.84-1.45-3.93-1.41-.67.03-1.3-.19-1.93-.37-.35-.1.03-.33.06-.38.15-.18.5-.16.72-.17,1.13-.05,2.37-.03,3.47-.32.52-.14,1.11-.42.88-1.03-.22-.59-1.22-.87-1.74-1.03-.03-.07-.07-.14-.1-.21.14.02.29.05.43.09.17.04.33.1.51.13.44.08.86-.01,1.31.18.77.34,1.44-.38,1.95-.85.5-.46,1.36-1.21,1.29-1.99-.04-.48-.17-.88-.37-1.32-.19-.41-.63-.48-.95-.73-.32-.25.96-.38.88-.37.19-.03.33-.09.49-.18.23-.13.21-.45.18-.67-.14-.96-.99-1.52-1.83-1.75-.73-.21-1.53-.07-2.27-.13-.84-.07-1.65-.29-2.4-.68-.67-.35.36-.11.55-.09.25.04.4.04.66.03,1-.06,2.13.22,3.12.35.39.05,2.66.4,2.7-.46.04-.74-.93-1.64-1.45-2.09-.17-.15-.45-.45-.66-.53-.55-.21-.32-.3.05-.1.51.27.89.5,1.49.44.6-.06,1.89.45,1.89-.66,0-.18-.28-.16-.28.03Z"/><path d="M91.23,81.8c-.8.66-1.21-.52-2.05-.37-.06.01-.11.05-.12.11-.05.45.15.81.33,1.22.35.82-.53,1.17-1.09,1.25-.79.11-1.27-.48-1.65-1.08-.21-.33-.38-.69-.56-1.04-.23-.43-.62-.78-.93-1.15-.38-.45-.59-1-1.09-1.33-.06-.04-.14,0-.12.08.28.83.53,1.68.94,2.45.44.83.92,1.61,1.32,2.46.23.5,1.02,2.29-.3,1.18-.38-.32-.84-1.32-1.4-1.34-.08,0-.14.04-.13.12.03.98.65,1.61,1.06,2.44.75,1.53-.87,3.01-1.91,3.91-.46.4-1.03.62-1.58.86-.65.29-1.1-.11-1.58-.43-.23-.15-.62-.45-.86-.19-.03.03-.03.1,0,.13.54.74.94,1.46.57,2.39-.22.56-.55.36-.61.78-.02.13.18.17.2.03.03-.19.36-.34.46-.51.18-.3.33-.62.31-.98-.02-.41-.03-.8-.27-1.16,0,0-.49-.61-.23-.49.22.1.41.25.61.38,1.46.97,3.09-.52,4.07-1.56.65-.7,1.19-1.37,1.27-2.36.08-.94-.88-1.82-1.17-2.63-.34-.94.46.17.61.37.18.25.42.55.64.76.24.22.73.45.93.03.2-.44-.09-1.07-.25-1.46-.32-.81-.71-1.6-1.16-2.34-.37-.6-.68-1.18-.94-1.84-.11-.27-.23-.54-.35-.81.13.31.46.57.6.91.09.22.58.76.79.97.46.49.7,1.19,1.05,1.76.66,1.07,2.54,1.41,3.09.03.08-.2-.02-.46-.09-.66-.07-.2-.17-.4-.25-.59-.27-.66.71-.03.76,0,.51.37.79.33,1.23-.13.08-.09-.05-.23-.14-.16Z"/><path d="M110.84,73.77c-.37-.39-.83-.45-1.35-.47-.9-.02-2.01-.11-2.88-.31-.43-.1-.85-.2-1.3-.26-.55-.07-1.32-.62-.46-.98.21-.09.32-.27.45-.44.19-.25.46-.31.63-.56.03-.05.03-.11-.01-.15-.41-.38-.96-.21-1.45-.08-.36.1-.64.25-1.02.18-.94-.17-1.43-.75-1.21-1.74.31-1.39.86-2.59,1.73-3.72.42-.55,1.21-.95,1.25-1.71,0-.11-.07-.17-.18-.15-.69.16-1.06.98-1.42,1.52-.65.97-1.39,1.86-2.11,2.77-.62.79-1.24,1.52-1.55,2.49-.08.26-.07.53-.06.79,0,.28.16,1.26-.62.98-.26-.09-.53-.33-.75-.49-.09-.06-.23,0-.18.13.13.32.28.63.4.96.28.72-.37,1.18-.76,1.61-.83.9-1.73,1.72-2.93.75-.08-.07-.22.02-.18.12.09.22.18.44.26.66.27.74-.39,1.1-.87.72-.53-.43-1.12-.76-1.64-1.21-.48-.41-.94-1.39-1.69-1.29-.05,0-.09.05-.08.1.08.93,1.09,1.72,1.7,2.32.22.21.42.4.66.58.59.46-.23,1.79-.86,1.45-.22-.12-.54-.4-.8-.38-.39.04-.24.51-.02.69.33.27.71.45,1.06.7.77.56-.77,1.92-1.12,2.37-.06.08.05.18.12.1.43-.49,1.49-.99,1.52-1.75.03-.77-.54-1.02-1.12-1.38-.06-.13-.13-.27-.19-.4.11.06.21.12.32.18.15.09.28.15.45.22.26.11.47.06.74,0,.74-.2.79-1.05.46-1.59-.23-.38-.74-.65-1.05-.97-.5-.52-1.02-1.02-1.47-1.6.09-.09.18-.17.27-.26.15.13.29.28.42.44.08.09.15.19.24.28.42.45.89.82,1.41,1.15.39.25.91.94,1.43.58.52-.36.42-.89.23-1.39.26.21.49.35.93.27.64-.12,1.12-.43,1.58-.88.31-.31,1.26-1.05,1.29-1.53.04-.47-.14-.9-.33-1.32.34.25.76.5,1.1.27.23-.16.32-.43.33-.7.03-.63-.02-1.14.25-1.75.53-1.19,1.55-2.26,2.4-3.25-.05.08-.09.17-.13.25-.38.78-.93,2.11-.85,3.01.06.7.45.95,1.1,1.15.23.07.69.27.95.16.17-.07.34-.14.51-.21.12-.05.25-.1.38-.14.31-.2.52-.13.62.21-.1.04-.24.29-.23.27-.18.23-.48.4-.74.56-.22.14-.28.21-.35.42-.15.51.67.76.98.82.62.12,1.23.24,1.84.37.62.14,1.22.04,1.85.12.53.07,1.32.08,1.76.37.01,0-.6.22-.66.24-.5.15-.97.16-1.48.19-1.08.06-2.27.18-3.32.48-.45.13-1.32.51-1.15,1.16.07.25.17.42.42.54.12.05.96.24.94.25-.37.14-.61.25-.88.54-.53.58-1.06,1.21-1.55,1.82-.1.12.09.29.19.16.67-.81,1.57-1.98,2.55-2.36.08-.03.11-.13.06-.2-.23-.32-.58-.36-.95-.41-.44,0-.49-.34-.17-1.01.27-.15.55-.25.85-.3.33-.07.67-.1,1.01-.17,1.38-.29,3.27.08,4.48-.76.09-.06.08-.17.01-.24ZM103.97,64.84c.15-.22.3-.44.45-.66.11-.17.27-.28.46-.35-.11.18-.24.35-.4.49-.21.22-.41.43-.6.65.03-.04.06-.09.08-.13Z"/><path d="M112.55,81.69c-.48-.27-1.19-.19-1.72-.22-.97-.06-1.94.03-2.9-.04-.89-.07-1.78-.26-2.66-.38-.56-.07-1.12-.3-1.59-.61-.31-.23-.54-.52-.68-.88.07.14-.16-1.06.03-.61.04.09.18.04.14-.05-.01-.04-.03-.08-.04-.12-.02-.04-.08-.07-.12-.04-.48.41-.2.97.1,1.43.56.85,1.77,1.1,2.7,1.2,1.12.12,2.2.38,3.34.34.71-.02,1.44,0,2.15.03.22.01.44.02.66.03.65.05-.29.24-.51.25-1.09.06-2.17.23-3.25.2-.69-.02-1.96.18-2.3.9-.22.47.36.96.72,1.14.12.06.57.43.76.44-.12,0-.24-.06-.36-.05-.49.04-.31.23-.89.24-.51,0-.95-.06-1.46-.16-.43-.08-1.72-.11-1.96.43-.22.52.06.97.52,1.23.2.11,1.32.35.48.23-.41-.06-.73.08-1.09.25-.74.34-2.06-.2-2.2,1.08-.24,2.2,1.19,3.81,3.17,4.46,1.34.44,2.65.74,3.79,1.63.2.16-.95.14-.93.14-.2,0-.39-.08-.59-.09-.92-.04-1.76-.29-2.52-.81-.75-.5-1.71-.57-2.52-.93-.31-.14-.61-.25-.94-.32-.4-.08-.95.16-1.37.13-.08,0-.1.11-.02.12.3.05.55.04.86,0,.62-.08,1.06.08,1.62.33.45.2.99.27,1.46.46.45.18.86.4,1.28.64.66.38,1.39.52,2.15.56.62.03,1.31.33,1.89,0,.05-.03.05-.1,0-.13-1.8-1.57-4.39-1.45-6.12-3.03-.51-.47-.68-1.13-.89-1.76-.16-.48-.22-1.13-.04-1.61.21-.53.98-.5,1.45-.52.57-.02.91-.46,1.54-.42.23.01.44.09.67.04.04-.01.06-.05.06-.09,0-.13-.04-.23-.18-.3-.15-.07-.33-.08-.49-.11-1.26-.18-1.09-1.25-.02-1.49.72-.16,1.45.22,2.16.23.6,0,1.12-.23,1.73-.2.08,0,.16-.1.08-.16-.23-.17-.47-.38-.73-.52-.19-.13-.38-.26-.55-.4-.12-.79.14-1.19.78-1.19.46-.08.83-.2,1.31-.14.26.03.52,0,.78-.04.73-.11,1.49-.16,2.23-.19.42-.02.84-.04,1.13-.38.05-.06.03-.15-.04-.18Z"/><path d="M101.28,95.78c-.66-.86-3.4-2.05-2.79-3.34.06-.12-.13-.2-.18-.09-.68,1.38,1.72,2.42,2.38,3.16.09.09.18.18.28.28.45.44-.05.48-.29.24-.27-.26-.64-.41-.97-.6-.84-.48-1.57-.72-2.48-.99-.48-.14-.79.2-.97.6-.27.6.32,1.46.66,1.88.07.08.15.16.23.23,0,0,.02.01.03.02.45.11.49.37.13.77-.46-.06-.91-.32-1.26-.6-.46-.37-.89-.57-1.47-.41-1.39.38-1.82,1.34-1.29,2.65.67,1.64,2.74,1.45,4.16,1.87.46.14.92.26,1.37.43.48.19,1.63.92.57,1.09-1.01.17-2.14-.7-3.15-.87-.86-.14-1.91.37-2.71.61-.46.14-.79.42-1.17.72-.62.5-1.21.86-1.94,1.18-.13.06-.06.24.07.2.81-.26,1.36-.62,2.03-1.16.79-.64,2.17-1.14,3.18-1.35,1.57-.32,2.75,1.3,4.35.64.03-.01.06-.05.04-.09-1.02-2.66-5.41-1.01-6.58-3.37-.47-.94-.23-1.73.73-2.2.54-.27.9-.35,1.5.04.19.12.36.34.57.44.46.2,1.34.73,1.65.07.07-.15,0-.39-.12-.5-.31-.29-.61-.43-.9-.79-.38-.47-.76-2.21.47-1.85.74.22,1.3.37,1.96.78.38.23.87.39,1.18.7.1.1.24.26.38.3.59.14.65-.32.35-.71Z"/><path d="M90.43,104.81c-.13.21-.31.37-.44.6-.22.36-.03,1.21.04,1.59.33,1.73,1.8,3.39.62,5.12-.37.54-1.22.71-1.74,1.1-.6.45-1.19.48-1.69,1.06-.32.36-1.36.74-1.05,1.37.08.17.34.08.28-.1-.16-.47.65-.66.85-.89.51-.6,1.21-.73,1.79-1.2.43-.35.96-.5,1.42-.78.41-.25.65-.78.81-1.21.39-1.01-.13-2.13-.44-3.1-.25-.78-.58-1.4-.66-2.23-.05-.56.16-.83.35-1.27.04-.09-.08-.14-.13-.06Z"/><path d="M95.2,102.11c-.45.24-.92.45-1.42.63-.65.24-1.22.53-1.94.36-.41-.1-.81-.18-1.23-.19-1.13-.03-2.51.37-3.59-.06-.41-.17-1.02-.34-1.42-.06-.49.34,1.35,1.44,1.52,1.55.62.42,1.25.89.79,1.86-.38.81-1.35-.04-1.69-.26-.42-.26-.97-.86-1.5-.86-.06,0-.12.06-.12.11-.04.68.37,1.1.67,1.68.5.95.69,1.96,1.07,2.95.4,1.04-.55,2.04-.81,2.98-.26.92.09,2.03.29,2.94.03.14.23.13.23-.02,0-.61-.16-1.25-.27-1.85-.15-.89.26-1.57.61-2.35.17-.38.34-.86.32-1.28-.03-.61-.39-1.17-.52-1.77-.12-.53-.31-1.03-.56-1.52-.12-.23-.22-.55-.39-.74-.57-.6-.26-.82.19-.46.58.46,1.64,1.45,2.41.92.67-.46.62-1.57.04-2.07-.37-.32-.77-.58-1.17-.85-.22-.15-.43-.31-.63-.47-.57-.47.77-.22.83-.2,1.37.47,2.9-.01,4.31.17.61.08,1.06.28,1.67.12.73-.2,1.46-.55,2.17-.84,0,.03.05.06.08.02.03-.04.05-.06.07-.09,0,0,0,0,0,0,.05-.02.08-.07.08-.12h0s.02-.06.04-.12c.03-.09-.05-.15-.13-.11Z"/><path d="M94.06,88.5c-.92,1.14-1.54,2.48-2.38,3.67-.81,1.16-1.57,2.33-2.23,3.58-1.1,2.07-2.3,4.3-1.37,6.64.03.08.15.04.12-.04-.91-2.54.51-4.96,1.71-7.15.67-1.22,1.49-2.32,2.26-3.47.69-1.03,1.27-2.12,1.99-3.13.05-.07-.05-.16-.1-.09Z"/><path d="M100.32,77.98c-.57,1.63-1.31,3.18-2.29,4.6-.89,1.29-1.8,2.53-2.32,4.03-.03.1.11.17.15.07.6-1.65,1.69-3.02,2.67-4.46.87-1.28,1.45-2.73,1.87-4.22.01-.05-.06-.07-.08-.03Z"/><path d="M100.87,67.91c.01,1.38-.6,2.66-.55,4.06.06,1.66.34,3.31.06,4.95-.03.17.23.21.26.04.28-1.56.15-3.15.02-4.72-.06-.83,0-1.61.24-2.4.18-.61.32-1.33.21-1.96-.03-.16-.25-.14-.25.02Z"/><path d="M98.51,73.64c-.05-.11-.22-.05-.18.06.19.53.41,1.04.52,1.6.1.55-.02,1.1-.03,1.65-.01.94.14,1.83.52,2.7.05.11.22.05.18-.06-.35-1.16-.46-2.12-.42-3.34.03-.97-.22-1.72-.59-2.61Z"/><path d="M97.24,78.22c-.14-1.02-.57-1.81-1.01-2.73-.03-.07-.15-.04-.12.04.21.59.52,1.14.73,1.74.2.58.21,1.31.29,1.92.11.8.34,1.72,1.15,2.06.12.05.21-.13.09-.19-1-.52-1-1.86-1.13-2.85Z"/><path d="M97.05,84.85c-.22.19-.49.26-.69.46-.06.06-.03-.25-.04-.4,0-.19-.18-.44-.27-.6-.27-.46-.55-.88-.73-1.39-.31-.9-.08-1.84-.35-2.72-.27-.9-1.03-1.47-1.47-2.27-.04-.08-.16,0-.13.07.27.67.79,1.16,1.18,1.76.34.53.29,1.14.3,1.74,0,.28.16.63.25.91.2.63.39,1.24.7,1.83.22.43.26.84.44,1.26.02.05.08.06.12.02.2-.25.52-.36.74-.59.03-.03-.02-.09-.05-.06Z"/><path d="M102.9,83.17c-.64.17-1.25.41-1.93.39-.71-.02-1.44-.02-2.15.04-.95.08-1.71.7-2.29,1.41-.06.08.05.18.12.1,1.03-1.16,2.15-1.33,3.62-1.33.97,0,1.78-.11,2.66-.54.05-.02.02-.09-.03-.07Z"/><path d="M103.61,82.09s0,.02,0,.02c.01,0,0-.02,0-.02Z"/><path d="M102.37,79.58c-1.43.38-2.91.59-3.61,2.08-.03.06.06.1.1.04.73-1.35,2.22-1.56,3.54-2.06.04-.02.02-.07-.02-.06Z"/><path d="M93.15,80.04s-.09,0-.06.04c.92,1.46.18,3.43-.06,5-.17,1.12.27,1.96.79,2.89.04.08.14,0,.13-.07-.11-.49-.47-.89-.63-1.39-.31-.94.02-1.95.18-2.89.2-1.23.41-2.51-.34-3.6Z"/><path d="M90.72,85.79c-.3-.57-.82-.9-.9-1.61-.04-.36-.2-.71-.35-1.04-.05-.1-.19-.05-.16.06.28.95.42,1.66,1.05,2.45.74.92,1.34,2.78,1.26,3.94-.03.42.18,2.19.86,2.02.05-.01.03-.09-.02-.09-.61.05-.58-1.48-.64-1.86-.09-.63.05-1.08-.19-1.7-.28-.74-.54-1.48-.91-2.18Z"/><path d="M89.32,90.06c-.73-.64-1.09-1.5-1.44-2.38-.25-.63-.71-.88-1.06-1.43-.01-.02-.04-.03-.07-.02-.04-.02-.07-.03-.11-.05-.03-.04-.11,0-.08.04.02.03.03.07.05.1,0,.02.03.04.05.03.41-.08,1.11,1.48,1.18,1.65.22.55.43,1.02.78,1.5.29.4.67.79,1.08,1.06.7.45,1.66.76,2.04,1.54.04.08.16.03.12-.04-.49-1.01-1.75-1.3-2.56-2.01Z"/><path d="M89.39,94.13c-.47-.35-.95-.69-1.39-1.07-.87-.73-1.19-1.6-1.32-2.7-.15-1.28-.37-2.13-1.05-3.24-.05-.08-.18-.01-.14.07.35.75.75,1.39.89,2.23.1.65.04,1.34.26,1.97.45,1.31,1.6,2.04,2.7,2.79.04.03.1-.03.05-.06Z"/><path d="M88.64,96.38c-.03-.06-.08-.06-.12-.04-.06-.09-.09-.2-.14-.28-.08-.12-.4-.31-.52-.39-.69-.41-1.47-.69-2.12-1.16-.79-.57-1.42-1.24-1.74-2.17-.1-.29-.18-.59-.26-.88-.05-.18-.11-.37-.17-.55,0,0-.01-.01-.02-.02-.02-.08-.05-.17-.07-.25-.03-.1-.18-.04-.15.05.26.76.41,1.56.75,2.29.27.58.82,1.05,1.3,1.45.57.47,1.22.75,1.87,1.08.43.22.87.47,1.06.92.06.14.11.18.24.23.09.03.21-.04.16-.15-.02-.05-.04-.1-.07-.14Z"/><path d="M85.28,96.86c-.95-.45-1.96-.74-2.83-1.33-.43-.29-.81-.64-1.18-1-.54-.52-.68-1.33-1.02-1.97-.05-.09-.16,0-.14.07.19.78.44,1.52.99,2.1.61.64,1.37,1.16,2.17,1.52.8.36,1.63.63,2.41,1.03.51.26,1.88,1.13,1.69,1.81-.02.09.11.15.16.08.58-.89-1.66-2.03-2.24-2.31Z"/><path d="M85.84,99.94c-.87-.11-1.75,0-2.63-.1-.94-.11-2.1-.76-2.71-1.47-.07-.08-.21.01-.14.1.6.74,1.39,1.08,2.25,1.45.94.42,2.23.15,3.23.17.09,0,.09-.14,0-.15Z"/><path d="M100.27,88.09c-.63.17-1.18-.16-1.76-.33-.64-.19-1.3-.25-1.96-.34-.68-.1-1.51.17-1.93.72-.06.08.05.17.11.1.83-.9,2.38-.56,3.43-.36.65.12,1.52.74,2.17.33.06-.04,0-.13-.06-.11Z"/><path d="M98.2,92.12c-1.26-.06-2.41-.7-3.62-1.01-1.11-.29-1.79.28-2.73.76-.07.04,0,.16.06.12.33-.14.67-.3.97-.48.81-.51,1.7-.19,2.52.09.87.3,1.85.79,2.79.67.08-.01.1-.15,0-.15Z"/><path d="M95.56,94.44c-1.46-1.3-4.15-1.73-5.39.06-.04.06.04.13.08.07,1.38-1.63,3.69-1.06,5.26-.06.04.03.08-.04.05-.07Z"/><path d="M94.17,96.78c-.65.16-1.26-.15-1.89-.31-.45-.12-1.06-.34-1.5-.14-.59.26-1.24.55-1.76.93-.27.19-.83.78-.71.96-.03-.04-.11-.02-.1.04,0,.04.01.08.02.13.01.07.13.11.16.03.24-.74,1.09-1.18,1.75-1.47.17-.08.35-.18.51-.27.52-.28.84-.09,1.35,0,.72.14,1.55.55,2.23.2.05-.03,0-.09-.04-.08Z"/><path d="M93.35,99.75c-1.37-.05-5.57.31-5.13,2.58.01.05.09.05.09,0-.26-2.11,3.7-2.44,5.05-2.44.09,0,.07-.13-.01-.13Z"/><path d="M79.04,101.44c-.44-.39-.97-.64-1.49-.9-.18-.09-.55-.2-.71-.23,0,0-.02,0-.03,0,0,0,0,0,0,0-.04.01-.09.02-.13.03-.07.02-.05.14.03.13.38-.07.91.31,1.22.48.72.4,1.29.91,1.82,1.53.7.81,1.29,1.71,2.01,2.5.06.06.16-.03.11-.1-.95-1.15-1.7-2.45-2.82-3.45Z"/><path d="M81.81,108.83c-1.67-1.79-3.26-4.12-5.77-4.72-.1-.02-.12.12-.03.15,2.45.73,3.95,3.01,5.7,4.69.07.07.17-.05.1-.12Z"/><path d="M83.33,112.08c-.44-.05-.89-.11-1-.13-1.65-.2-2.7-1.05-3.92-2.09-1.46-1.25-3.67-2.84-5.72-2.24-.09.03-.06.17.03.15,2.74-.39,4.78,1.77,6.77,3.29.83.64,1.78.88,2.81,1.01.3.04.7.13,1.06.17-.01-.06-.03-.11-.04-.17Z"/><path d="M89.05,110.08c-.55-.57-1.17-1.06-1.77-1.57-.65-.56-1.11-1.34-1.69-1.97-.07-.07-.19.04-.13.12.68.87,1.28,1.78,2.18,2.44.5.36,1.03.9,1.43,1.36.58.69.5,1.73.25,2.54-.02.08.1.11.14.04.47-.95.34-2.19-.41-2.96Z"/><path d="M45.03,59s-.06-.01-.07.02c0-.06.06-.07-.08-.23-.03-.03-.06-.06-.1-.08-.16-.03-.33-.07-.49-.1-.04,0-.08-.02-.11-.04-.04,0-.07,0-.11,0-.18,0-.35.07-.42.24-.15.38-.52.64-.66,1.03-.09.24-.22.46-.35.67-.07.09-.13.19-.19.28-.02.15-.07.18-.15.07.08-.35.34-.66.3-1.05-.07-.78-.09-1.53.81-1.8.26-.08.49-.03.74-.05.07-.06.16-.08.28-.07.07-.04.04-.16-.05-.14-.21.05-.41,0-.61.02-.21.01-.34.1-.54.17-.3.1-.67.43-.74.75-.14.62.13,1.3-.18,1.89-.11.21-.22.44-.06.63.02.03.06.02.08,0,.15-.13.18-.28.28-.46.2-.35.45-.67.63-1.03.12-.25.32-.42.47-.65.06-.1.15-.28.26-.31.31-.09.8,0,.94.35.02.04.07.08.12.05.02-.01.03-.03.05-.04.03-.02.02-.06,0-.09,0-.01-.02-.02-.03-.03Z"/><path d="M54.39,54.85c-.1-.37-.34-.58-.68-.71-.36-.14-.73-.08-1.06.12-.08.05-.16.18-.19.27-.15.45-.51.74-.92.98-.1.06-.01.2.09.15.29-.13.58-.35.79-.6.09-.1.12-.22.16-.34.19-.54.66-.54,1.1-.45.65.15.72,1.07.88,1.59.1.33.59.69-.1.32-.55-.29-.83-1.08-1.6-.91-.62.14-1.11.52-.92,1.21.02.08.14.05.12-.03-.11-.68.41-.98.98-1.03.38-.03.74.31.98.56.3.31.53.45.96.52.06.01.11-.05.08-.1-.29-.52-.51-.99-.67-1.56Z"/><path d="M51.77,52c-.08.22-.04.44-.14.65-.09.19-.27.36-.42.5-.28.26-.41.56-.48.93-.01.06.08.08.09.02.1-.51.4-.8.74-1.16.09-.09.15-.21.19-.33.08-.2-.02-.4.04-.6,0-.02-.02-.02-.03,0Z"/><path d="M51.28,51.15s-.04.02-.03.04c.01.03.02.06.03.09.01.03.06.02.05-.02,0-.02,0-.04-.01-.06.18-.02.3.35.34.47,0,.03.05.02.04-.01-.06-.18-.19-.53-.42-.52Z"/><path d="M51.25,51.02s-.05.02-.03.04c.2.23.26.71.2.99-.08.36-.27.58-.45.89-.02.04.04.07.06.03.24-.4.45-.63.46-1.12,0-.24,0-.69-.23-.83Z"/><path d="M51.02,63.57c-.14-.21-.36-.39-.49-.61-.02-.03-.03-.06-.06-.08-.07-.05-.17.03-.14.11.09.24.3.4.45.6.19.26.33.56.59.76.07.05.19-.02.13-.1-.16-.23-.33-.45-.48-.68Z"/><path d="M48.61,62.6c-.95-.42-2.04-.35-2.84-1.07-.37-.33-.67-.84-.86-1.29-.13-.3-.46-1.31-.67-1.4.08.03.14-.07.06-.11-.02-.01-.04-.02-.06-.04-.05-.03-.12.02-.1.08.34,1.02.77,2.08,1.53,2.87.29.3.7.53,1.1.64.27.07.57.07.84.12.33.06.64.21.96.3.06.02.1-.07.04-.1Z"/><path d="M45.28,56.58s-.06,0-.07.03c-.02.23.06.5.11.73.02.09.04.17.07.26.06.17-.03.01-.07-.06-.09-.19-.2-.37-.34-.53-.15-.18-.39-.29-.53-.47,0,0,0,0,0,0-.02-.03-.03-.04-.06-.06-.07-.04-.13.04-.1.1.16.3.5.49.69.78.1.16.23.6.48.6.22,0,.18-.25.13-.39-.1-.32-.11-.68-.32-.96Z"/><path d="M44.98,56.7c-.1-.06-.24-.2-.37-.17-.02,0-.02.04,0,.04.05,0,.11.07.16.11.05.04.11.08.16.12.13.1.25.21.38.3.03.02.09-.02.07-.06-.06-.16-.26-.25-.4-.33Z"/><path d="M44.39,57.52s-.07-.02-.07.02c0,.19.1.34.18.51.17.34.24.72.4,1.07.01.03.07.02.06-.02-.08-.58-.27-1.08-.57-1.58Z"/><path d="M45.56,54.85c.02-.3.08-.8-.18-1.01-.04-.03-.09,0-.07.05.26.44.05,1.04-.03,1.49-.03.14,0,.28.02.42.03.15.15.22.2.34.03.07.14.05.12-.03-.04-.2-.17-.35-.17-.58,0-.22.1-.46.11-.68Z"/><path d="M44.7,52.96c-.29-.6-1.05-.68-1.32-1.3-.01-.02-.04,0-.04.02.11.67.43.56.92.98.79.68.27,1.61.58,2.45.02.07.12.04.11-.03-.14-.72.09-1.43-.24-2.11Z"/><path d="M43.98,51.94s0,0,0,0h0s-.01-.02-.02-.02c0,0-.02,0-.01.02,0,0,0,0,0,0,0,0,0,0,0,0l.02.05s0,0,0,0c0,0,0,0,0,0,0,0,0,0,0,0,0,0,0,0,0,0,0-.02,0-.04-.01-.06Z"/><path d="M48.03,50.2s-.05.04-.04.07c.02.12.04.09.12.23.12.2.22.38.3.6.14.38-.09.78.03,1.17.02.05.1.03.09-.02-.08-.32.02-.6.04-.92.01-.23-.13-.49-.22-.7-.04-.09-.34-.43-.1-.21.16.15.28.34.41.51.02.03.07.01.06-.02-.08-.23-.4-.81-.71-.72Z"/><path d="M48.62,50.66c-.06-.03-.11.04-.07.09.14.17.16.55.17.77.01.18.14.35.2.52.01.03.04.06.08.04.03-.01.08-.06.05-.09,0,0,0,0,0,0-.02-.09-.05-.18-.09-.26-.08-.16-.11-.36-.13-.54-.02-.19,0-.43-.21-.52Z"/><path d="M62.32,49.03c-.11-.09-.22-.14-.37-.15-.25-.03-.37-.29-.56-.42-.1-.07-.21-.09-.3-.16-.07-.05-.14-.15-.21-.19-.19-.11-.37-.24-.56-.34-.08-.05-.16.09-.08.14.02,0,.03.02.05.03.02.03.03.07.07.08.03,0,.06.01.08.02.03.02.05.03.08.05.02.02.04.04.05.08,0,.01.02,0,.02,0,0,0,0,0,0-.01.2.15.39.31.61.41.21.1.31.28.49.41.15.12.4.12.58.16.05.01.1-.06.05-.09Z"/><path d="M66.71,48.51c-.02-.07-.13-.04-.11.03.21.78.54,1.51.64,2.31.07.54.17,1.11.36,1.62.04.1.18.06.16-.04-.15-.61-.28-1.22-.38-1.84-.11-.73-.42-1.4-.67-2.08Z"/><path d="M67.19,52.03s0,.01,0,.01c0,0,0-.01,0-.01Z"/><path d="M67.2,52.07s-.05.04-.04.08c0,.02.03,0,.02,0,0-.02.02-.03.03-.05.01,0,0-.03-.01-.02Z"/><path d="M67.62,52.46s-.08-.02-.09.02c-.04.37.06.7.08,1.07.02.35.05.71.19,1.03.03.08.16.05.17-.02,0,0,0,0,0,0,.03-.03.02-.1-.03-.11-.02,0-.05-.94-.05-1.04-.01-.32-.1-.69-.28-.96Z"/><path d="M44.92,60.73s-.04.04-.06.05c-.02,0-.02.05.01.04.06-.02.1-.03.1-.1,0-.03-.06-.03-.05,0Z"/><path d="M44.81,61.27s0,.01,0,.01c0,0,0-.01,0-.01Z"/><path d="M66,80.4c-1.38.16-2.72.59-4.1.61-1.78.03-3.48-.75-4.99-1.63-.76-.44-1.51-.85-2.14-1.47-.58-.57-1.21-1.1-1.83-1.63-.97-.82-2.01-1.68-3.32-1.83-.04,0-.04.06,0,.06,1.61.19,2.95,1.49,4.08,2.56.54.51,1.05,1.14,1.66,1.55.73.5,1.54.93,2.33,1.31.62.3,1.2.65,1.84.9.76.29,1.57.33,2.37.38.84.06,1.49-.22,2.3-.34.61-.09,1.22-.18,1.83-.29.11-.02.08-.2-.03-.19Z"/><path d="M53.74,74.18s-.02-.04-.03-.05c-.02-.03-.02-.02.03.05Z"/><path d="M60.26,75.63c-1.03-.04-1.46-.78-2.26-1.27-.07-.04-.13.04-.1.1.14.3.27.6.41.91.16.35.06.48-.35.28-.34-.17-.5-.53-.72-.82-.41-.56-1.1-.94-1.78-1.05-.08-.01-.12.07-.07.13.23.28.43.65.65.94.27.37.12.28-.16.04-.11-.1-.23-.26-.34-.37-.4-.44-1.37-.94-1.98-.89-.06,0-.1.08-.05.13.08.12.14.24.2.37.07.1.46.75.15.46-.21-.19-.56-.33-.8-.46-.58-.31-1.44-.81-2.11-.74-.06,0-.1.07-.07.12.22.34.62.43.84.77.4.63-.52.11-.57.09-.58-.26-1.44-.41-2.07-.32-.07.01-.06.1-.02.13.01,0,.37.34.43.37.06.04.21,0,.26-.04.07.07.06.06.19.11.06.02.09-.08.03-.1-.27-.1-.46-.2-.7-.38.19.14,1.03.15,1.28.2.5.08.92.49,1.42.53.03,0,.06-.02.07-.04.09-.2.08-.34-.07-.53-.17-.2-.18-.32-.4-.44-.15-.05-.24-.16-.29-.31.2.03.4.13.59.21.61.23,1.38.52,1.9.93.09.07.26.27.38.14.45-.45-1.11-1.47.16-.88.25.12.47.22.7.37.29.18.46.44.72.63.2.15.39.43.67.34.05-.02.07-.07.05-.11-.18-.38-.6-.7-.74-1.09-.04-.11-.12-.13-.05-.12.39.07.74.3,1.05.54.63.49.95,1.53,1.91,1.43.05,0,.07-.04.07-.09-.06-.35-.26-.7-.41-1.02-.04-.1-.21-.26-.16-.23.28.17.52.44.76.67.27.25.54.37.9.45.5.13,1.26-.02,1.6.46.05.08.18,0,.13-.07-.26-.38-.81-.46-1.24-.48Z"/><path d="M67,78.95c-.23-.31-.32-.63-.47-.97-.23-.51-.48-1.02-.95-1.34-.46-.32-.98-.59-1.53-.73-.09-.02-.69-.17-.79-.31-.03-.04-.09,0-.07.04.02.04.13.13.13.14.01.04.04.05.08.04-.03,0,.43.17.42.17.25.09.49.14.74.25.51.22,1.07.51,1.39.98.28.41.42.85.61,1.3.16.38.45.67.62,1.04.03.08.17.02.14-.06-.08-.21-.18-.36-.31-.54Z"/><path d="M63.4,77.66c-.46-.38-.93-.63-1.49-.79-.22-.06-.6-.01-.83.02-.4.05-.48.23-.98.11-.23-.05-.42-.11-.66-.13-.06,0-.1.07-.07.12.13.19.17.48.3.64.02.49-.1.57-.34.26-.13-.12-.25-.28-.35-.42-.12-.17-.3-.27-.47-.39-.11-.08-.6-.22-.69-.3-.07-.06-.15.02-.12.09.14.33.31.65.49.96.05.08-.41-.2-.44-.22-.11-.11-.21-.22-.31-.34-.25-.29-.62-.42-.89-.69-.17-.16-.32-.22-.54-.23-.06,0-.09.06-.08.11.05.23.16.4.28.59.16.15.12.28-.15.38-.2-.1-.37-.29-.52-.45-.51-.53-1.07-1.08-1.7-1.48-.05-.03-.11.02-.1.08.07.27.17.5.36.71.17.19.34.38.49.58.03.32-.08.38-.32.18-.09-.05-.19-.1-.27-.16-.78-.48-1.46-1.11-2.26-1.56-.05-.03-.1.05-.05.08.71.4,1.37.9,2.02,1.39.27.2.75.57,1.11.44.02,0,.04-.03.03-.06-.12-.33-.3-.58-.53-.84.12.14-.56-.78-.17-.44.25.22.5.45.76.67.49.41.86,1.1,1.56,1.13.03,0,.06-.02.07-.04.07-.15.07-.27-.01-.42-.11-.19-.24-.38-.35-.57.14-.16.26-.11.39.15.06.06.13.11.2.16.4.26.66.53.99.86.16.16.36.33.59.33.04,0,.09-.04.08-.09-.04-.38-.28-.73-.48-1.07,0,0,.02,0,.03,0,.41-.02.81.45,1.04.75.24.31.59.64,1,.51.03,0,.05-.04.05-.07-.02-.39-.29-.66-.4-1.02-.02-.05-.05-.1-.1-.14.16.02.31.06.47.11.24.07.43.08.66,0,1.01-.3,1.72.23,2.57.64.08.04.18-.07.1-.14Z"/><path d="M60.59,81.08c-.77-.47-1.45-1.11-1.94-1.87-.34-.52-.87-.95-1.42-1.23-.06-.03-.11.05-.05.09,1.32.84,1.97,2.31,3.38,3.05.03.02.05-.03.03-.05Z"/><path d="M58.24,80.11c-.18.03-.88-.81-1.05-.97-.5-.49-.97-1.01-1.63-1.28-.06-.02-.11.06-.05.09.56.3,1,.7,1.45,1.14.23.23.47.47.71.69.13.12.4.25.49.41.01.02.04.03.06.02.02.01.03.03.03.05.01.03.06.01.06-.02,0-.04,0-.07-.01-.11,0-.03-.03-.04-.06-.03Z"/><path d="M62.74,81.03c-.87-.48-1.56-.92-2.05-1.81-.21-.39-.53-.92-.97-1.04-.02,0-.04.03-.02.04.6.3.86,1.18,1.25,1.67.46.57,1.1.9,1.74,1.24.06.03.11-.06.05-.09Z"/><path d="M64.85,80.71c-.86.1-1.55-.7-2.07-1.28-.73-.82-1.52-1.56-2.55-1.95-.05-.02-.08.06-.04.09,1.28.68,2.07,1.58,3.05,2.6.33.35,1.11.84,1.61.59.02-.01.01-.05-.01-.05Z"/><path d="M59.47,68.35c-.29-.78-.72-1.49-1.32-2.06-.33-.31-.86-.49-1.27-.69-.23-.12-.46-.25-.69-.37-.14-.08-.62-.27-.7-.37-.06-.08-.18-.01-.13.08.42.92,1.67.97,2.26,1.77.17.22.36.75-.14.36-.14-.11-.25-.2-.41-.27-.08-.04-.3-.09-.37.02-.11.18-.03.34.05.52.08.17.14.17.32.27.47.26.9.69.95,1.26.02.24-.42-.3-.45-.34-.07-.11-.14-.2-.23-.29-.12-.13-.28-.13-.44-.08-.05.02-.07.07-.05.11.32.6.51,1.21.78,1.83.17.39.36.46.64.7.03.02.08,0,.05-.04-.17-.22-.37-.34-.51-.6-.25-.45-.24-.99-.54-1.42-.1-.14-.41-.89.09-.24.1.13.18.28.27.42.12.17.25.28.46.26.04,0,.08-.03.08-.08-.02-.57-.14-1-.63-1.36-.18-.13-.55-.29-.67-.48.08-.09.16-.18.25-.26.13.09.25.19.37.28.17.13.3.17.5.19.04,0,.08-.04.08-.08-.04-1.3-1.67-1.45-2.38-2.22.02,0,.04.01.07.02.49.14.99.51,1.45.73,1.08.52,1.69,1.37,2.12,2.47.17.42.29.89.3,1.34.01.44-.21.85-.22,1.29-.02.43.15.87.31,1.26-.03-.07-.14-.04-.11.03.06.16.04.15.19.2.03,0,.06-.01.07-.04.04-.21.07-.19-.06-.34-.23-.27-.24-.78-.25-1.1-.01-.51.25-.97.22-1.48-.02-.4-.19-.82-.33-1.19Z"/><path d="M67.55,45.85c-.1.04-.2.09-.31.12-.11.03-.22,0-.33.03-.05.02-.05.1.01.1.19-.01.33.04.52-.02.09-.03.17-.07.26-.09.11-.03.21.02.33,0,.04,0,.05-.05.03-.08-.1-.18-.36-.11-.52-.05Z"/><path d="M67.7,46.48c-.09-.03-.17,0-.26.03-.11.03-.22.07-.34.1-.11.04-.07.21.05.18.11-.03.23-.06.34-.1.09-.03.18-.04.24-.12.03-.04.02-.08-.03-.1Z"/><path d="M64.08,43.8c-.54-.22-1.1-.35-1.61-.63-.45-.25-.8-.64-1.19-.96-.02-.02-.05-.03-.08-.02-.33.13-.27.7-.24.98.05.57.67,1.24,1.11,1.56.05.04.11-.04.06-.08-.45-.44-1.01-1.06-1.02-1.73,0-.16-.04-.67.28-.35.23.23.55.39.79.6.4.35.98.46,1.46.64.47.18.82.31,1.17.67.43.45.56.96.74,1.53.01.05.05.06.09.05.04,0,.07-.04.05-.09-.28-.97-.61-1.78-1.61-2.19Z"/><path d="M66.42,43.4c-.27-.36-.64-.66-.96-.98-.34-.35-.5-1.07-.88-1.35-.28-.21-.66-.48-.82-.05-.1.28.17.97.22,1.27.07.5.06.91.21,1.39.02.06.11.04.1-.03-.15-.55-.12-1.1-.21-1.66-.01-.08-.32-1.22.17-1,.41.19.68.93.93,1.3.39.58.99.96,1.37,1.54.25.38.28.84.27,1.28,0,.29.06.43.13.56-.02-.03-.08-.02-.07.02,0,.02,0,.05,0,.07,0,.07.11.07.11,0-.06-.9,0-1.62-.56-2.37Z"/><path d="M62.87,41.13c-.29-.31-.54-.71-.79-1.05-.07-.09-.2-.32-.34-.36-.87-.22-.14,1.93-.06,2.18.01.03.06.02.05-.01-.12-.49-.27-.94-.23-1.45,0,0-.04-.78.26-.52.18.15.32.4.46.59.23.32.45.62.72.91.37.39.81.7,1.07,1.19.03.05.1.01.09-.04-.2-.6-.81-.98-1.23-1.43Z"/><path d="M61.03,42c-.68-.6-.9-1.27-1.15-2.11-.09-.28-.33-.78-.64-.88-.81-.28-.94.99-.83,1.51.01.08.13.05.13-.02,0-.3,0-.59.07-.89.12-.53.73-.41.97-.04.16.24.22.5.29.77.19.71.53,1.25,1.09,1.73.05.04.13-.03.08-.08Z"/><path d="M68.9,40.09s-.08-.03-.11,0c-.12.12-.16.25-.13.43.05.26-.18.69-.26.93-.12.37-.32.72-.51,1.07-.21.39-.47.73-.61,1.16-.15.46-.16.95-.19,1.42,0,.02.02.01.02,0,.09-.79.23-1.48.66-2.16.38-.62.66-1.21.92-1.89.03-.07.14-.36.13-.44.13-.13.19-.1.19.09.04.15.07.3.12.45.13.42.32.86.36,1.31.03.46-.17.94-.28,1.38-.02.07.08.09.1.02.27-.76.38-1.35.16-2.12-.14-.48-.2-1.29-.57-1.65Z"/><path d="M67.46,40.41c-.16-.45-.4-.89-.58-1.35-.1-.24-.2-.39-.45-.44-.04,0-.06,0-.09.04-.18.25-.17.44-.18.74-.02.51-.01.96-.14,1.47-.1.42-.19.84-.31,1.26-.09.33.11.73.21,1.03.02.07.12.04.1-.03-.1-.39-.26-.73-.14-1.14.08-.29.16-.57.22-.86.12-.52.24-.98.22-1.51-.02-.13-.03-.26-.01-.39.36-.07.55.05.58.35.08.25.19.46.32.69.29.56.63,1.55.51,2.19,0,.05.06.08.08.03.27-.63-.14-1.49-.35-2.07Z"/><path d="M65.8,39.91c-.2-.59-.4-1.22-.68-1.77-.18-.36-.88-1.19-1.33-1.09-.04.01-.06.05-.06.09-.06.51.24,1.04.37,1.52.19.71.26,1.52.4,2.25.01.07.12.04.11-.03-.11-.67-.17-1.36-.3-2.02-.06-.3-.14-.6-.23-.9-.09-.28-.4-.97.14-.55.5.39.81.83,1.02,1.44.15.43.75,1.46.59,1.92-.03.1.12.16.16.07.13-.31-.08-.64-.18-.93Z"/><path d="M63.8,38.67c-.38-.45-.52-.93-.67-1.48-.09-.33-.16-.94-.5-1.14-.03-.02-.07-.01-.1.01-.13.11-.13.22-.1.38.1.54.05,1.04-.06,1.58-.18.85-.29,1.86,0,2.67.02.07.13.04.11-.03-.16-.69-.08-1.27-.03-1.96.03-.44.12-.85.22-1.27.07-.26-.06-.51-.04-.77.02-.31-.02-.51.16-.08.14.33.23.7.34,1.05.19.62.63,1.01.88,1.58.02.04.09.01.07-.03-.07-.2-.14-.36-.29-.53Z"/><path d="M61.45,40.12c-.4-.39-.65-.75-.84-1.27-.13-.38-.11-.81-.26-1.17-.18-.44-.71-.64-1.01-.18-.05.07.07.17.13.1.05-.05.11-.09.18-.12.54-.41.64.5.66.69.03.25.11.48.19.71.2.58.43.9.9,1.3.04.03.1-.02.06-.06Z"/><path d="M59.11,37.9c-.12.21-.15.42-.15.65,0,.27-.04.53.03.79.02.06.11.04.1-.03-.05-.23.01-.45,0-.69,0-.24.02-.48.11-.7.02-.05-.06-.08-.08-.03Z"/><path d="M60.96,34.89c-.05-.02-.11.04-.06.08.6.49.83,1.28.83,2.03,0,.24-.1.6,0,.83.16.39.32.77.45,1.17.02.06.11.04.1-.03-.11-.41-.39-.97-.41-1.38-.02-.39.04-.77-.03-1.16-.1-.57-.29-1.28-.87-1.55Z"/><path d="M58.84,33.19s-.08-.03-.07.02c.08.43.16.78.08,1.22-.06.35-.14.7-.23,1.05-.11.46-.12.94.05,1.39.01.03.04.05.07.05.04-.01.07,0,.07.04.02.04.09.02.08-.02,0-.02,0-.05,0-.07,0-.03-.02-.05-.05-.06-.44-.16,0-1.77.08-2.12.12-.53.13-.99-.09-1.49Z"/><path d="M71.52,37.39c-.24-.21-.37-.05-.47.21-.13.35-.09.82-.18,1.18-.13.53-.4.96-.68,1.42-.28.46-.84,1.24-.67,1.81.01.04.07.03.07,0-.02-1.08,1.01-2,1.34-2.98.12-.35.27-.87.27-1.24.17-.27.29-.3.35-.11.07.17.15.34.22.51.11.3.1.65.17.96.01.05.09.04.09-.01-.02-.53-.07-1.37-.51-1.75Z"/><path d="M68.17,36.44c-.21.65-.09,1.38-.2,2.04-.12.7-.64,1.48-.39,2.2.02.05.1.03.08-.02-.14-.56.16-1.17.32-1.7.13-.44.17-.89.17-1.35,0-.25-.09-1.72.55-.86.34.45.64,1.05.86,1.57.01.03.07.02.05-.02-.08-.25-1.24-2.52-1.45-1.87Z"/><path d="M69.9,39.59s0,.01,0,.01c0,0,0-.01,0-.01Z"/><path d="M69.76,40.48l.05.14s.05.01.04-.01c-.01-.05-.03-.09-.04-.14,0-.03-.06-.02-.05.01Z"/><path d="M69.66,35.25s-.07-.01-.1.01c-.17.13-.17.33-.21.54-.09.49-.21.96-.37,1.43-.03.08.1.11.13.03.14-.4.24-.79.33-1.21.04-.18.08-.37.13-.55.13-.41.44.57.5.75.15.53.28,1.09.35,1.63.1.71,0,1.25-.1,1.94,0,.05.06.06.07.02.12-.41.27-.81.28-1.24.01-.48-.14-.97-.23-1.44-.11-.57-.19-1.63-.79-1.93Z"/><path d="M67.29,37.07c-.47-.82-.92-1.97-1.77-2.5-.5-.31-.26,1.2-.26,1.27.06.59-.15,1.13-.2,1.71-.05.51.05.77.25,1.22,0,.02.04.03.06.02.02,0,.05-.02.07-.03.06-.02.03-.1-.02-.09-.12.03-.25-.73-.25-.91,0-.41.14-.85.22-1.26.05-.29.01-.6-.02-.89,0-.06-.15-1.21.3-.76.58.58,1.01,1.37,1.38,2.1.2.4.42.83.46,1.28.02.17.14.64.03.8-.04.06.06.14.11.08.19-.22.02-.62,0-.89-.02-.39-.17-.82-.36-1.16Z"/><path d="M64.2,34.14c-.2-.38-.57-1.14-1.08-1.15-.03,0-.05.01-.06.04-.22.36-.1,1.12-.07,1.53.07.74-.06,1.5-.1,2.23,0,.06.08.06.09,0,.05-.66.14-1.32.15-1.99,0-.32-.03-.63,0-.95.01-.15.02-.31.02-.46.23-.11.37-.08.42.1.11.24.37.49.51.74.15.27.27.55.39.83.09.21.56,1.46.34,1.6-.04.02-.02.08.02.08.02,0,.05,0,.07,0,.04,0,.07-.04.06-.08-.14-.91-.32-1.67-.75-2.51Z"/><path d="M62.68,33.85c-.3-.38-.6-.73-.84-1.16-.09-.16-.47-.77-.37-.94.02-.03-.01-.08-.05-.07-.28.11,0,.51.09.68.19.35.35.71.61,1.02.41.5.89.99.89,1.68,0,.04.06.04.06,0,.02-.45-.11-.87-.39-1.23Z"/><path d="M68.48,33.98c-.24-.33-.51-.94-.86-1.15-.03-.02-.07,0-.08.03-.09.34,0,.67-.08,1.02-.1.45-.24.87-.38,1.31-.23.73-.11,1.38.16,2.07.02.06.12.04.1-.03-.19-.8-.31-1.4-.07-2.22.15-.51.33-1,.33-1.54,0-.4.08-.45.26-.1.12.24.33.46.49.68.13.18.99,1.85.77,1.96-.06.03-.04.15.04.14h.07c.05-.01.1-.06.08-.12-.25-.74-.37-1.41-.83-2.06Z"/><path d="M66.22,31.88c.03.28-.11.48-.18.74-.07.27-.08.52-.18.79-.22.57-.04,1.14.15,1.69.01.03.06.02.05-.01-.18-.73-.18-1.27.06-1.97.08-.24.08-.49.18-.73.07-.17.1-.32.07-.51-.01-.09-.16-.1-.15,0Z"/><path d="M64.73,31.6c-.11.13-.02.12-.11.29-.16.29-.24.56-.31.88-.06.3-.15.57-.13.88.02.28.17.59.25.86.02.06.12.04.1-.03-.07-.23-.14-.47-.2-.7-.09-.32.04-.66.12-.97.08-.3.16-.56.31-.84,0,0,.08-.28.09-.28.04-.06-.05-.13-.1-.08Z"/><path d="M71.45,33.25s-.07-.08-.11-.05c-.02.01-.04.03-.06.04-.05.03-.03.11.03.11.12,0,.41,1.09.47,1.29.21.7.31,1.41.36,2.14,0,.08.12.08.12,0-.04-1.26-.35-2.36-.8-3.52Z"/><path d="M70.64,33.89c0-.08-.12-.1-.14-.02-.1.51-.2.75-.04,1.27.17.57.07.99-.05,1.53-.06.24-.02.4.08.62.02.04.07,0,.06-.03-.1-.6.32-1.18.18-1.76-.1-.4-.32-.83-.14-1.25.05-.11.06-.24.06-.36Z"/><path d="M69.55,30.48c-.17-.38-.48-.68-.64-1.07-.03-.06-.14-.02-.11.05.1.32.3.59.47.87.23.39.28.82.48,1.22.02.04.08.02.08-.02-.03-.36-.13-.72-.28-1.05Z"/><path d="M62.96,31.55c-.32.66-.79,1.35-.61,2.12.01.05.09.03.08-.02-.16-.76.35-1.4.59-2.07.01-.04-.05-.06-.06-.02Z"/><path d="M75.33,68.89s-.09-.03-.08.02c.32,1.29,1.03,2.54.98,3.89-.03.64-.15,1.32-.32,1.94-.01.05-.21.71-.33.75-.06.02-.04.12.03.1.05-.01.09-.02.14-.04.03,0,.04-.03.04-.06.03-.37.25-.76.33-1.12.13-.61.21-1.23.24-1.84.05-1.18-.63-2.56-1.04-3.64Z"/><path d="M77,65c-.32,1.17.17,2.24.5,3.37.25.83.42,1.59.25,2.46-.11.59.04,1.22-.18,1.8-.03.07.09.11.12.05.2-.45.16-.96.16-1.44,0-.63.22-1.17.09-1.81-.28-1.46-1.16-2.89-.86-4.39.01-.05-.07-.07-.08-.02Z"/><path d="M78.46,60.92c0-.06-.08-.06-.09-.01-.34,1.39-.19,2.81.26,4.14.27.8.57,1.62.75,2.45.08.39.33,1.82-.07,2.1-.08.06,0,.18.08.13.71-.44.14-2.46-.03-3.03-.27-.9-.63-1.77-.88-2.67-.28-.98-.1-2.11-.02-3.11Z"/><path d="M80,57.66c-.2.46-.02,1.03-.03,1.52,0,.76.04,1.44.21,2.19.21.94.51,1.82.63,2.78.05.44.09.87.11,1.31.01.25.11.93-.07,1.13-.01.01-.02.03-.01.05.03.09.07.18.1.28.01.03.06.02.05-.01-.07-.33.07-.83.08-1.18.02-.8,0-1.83-.23-2.6-.28-.95-.71-2.03-.69-3.04,0-.37,0-.75,0-1.12,0-.39-.13-.88-.04-1.26.02-.06-.08-.1-.11-.04Z"/><path d="M81.98,55.07c-.24.47-.11,1-.19,1.51-.1.59-.06,1.15-.07,1.75-.02.69-.1,1.34-.04,2.02.06.64.37,1.3.31,1.93,0,.05.08.06.09.01.05-.36-.01-.64-.11-.99-.19-.71-.21-1.47-.15-2.2.06-.75-.02-1.51.08-2.25.07-.52.04-1.28.18-1.75.02-.06-.08-.1-.11-.04Z"/><path d="M64.7,45.53c-.25-.18-.64-.16-.95-.27-.69-.25-1.28.05-1.96.1-.78.07-1.66-.11-2.4-.34-1.12-.35-1.5-1.29-2.22-2.09-.04-.05-.1.02-.07.07.58.73.79,1.46,1.63,1.93.58.33,1.27.48,1.92.55.38.04.77.08,1.15.09.38.01.73-.13,1.11-.16.41-.03.87.12,1.23.3.14.07.32-.07.5,0,.1.03.14-.11.07-.17Z"/><path d="M61.46,44.5c-.26-.06-.46-.32-.69-.45-.23-.13-.56-.06-.8-.03-.79.08-2.24-.06-2.45-1.03h0c-.02-.07-.14-.06-.13.02.09.68.87,1.02,1.47,1.14.45.09.86.08,1.31.04.57-.05.81.47,1.28.46.09,0,.1-.13.02-.15Z"/><path d="M72.06,43.3c-.33.15-.53.38-.76.66-.29.35-.7.59-1.06.87-.24.19-.43.4-.69.58-.37.25-.43-.04-.66-.12-.26-.09-.68.15-.89.02-.09-.06-.18.09-.08.15.34.21.67-.17,1.04.07.27.16.39.15.68.03.48-.2.91-.73,1.33-1.03.2-.14.31-.24.47-.43.06-.08.61-.79.53-.44-.32,1.37-1.61,1.85-2.56,2.69-.63.56-1.04,1.55-.82,2.38.02.08.14.04.12-.03-.28-1.66,1.1-2.42,2.25-3.23.62-.43,1.15-1.3,1.24-2.05,0-.08-.06-.14-.14-.1Z"/><path d="M90.74,131.43c-.11-.01-.17-.12-.27-.15-.11-.03-.21-.08-.32-.13-.15-.07-.45-.2-.55-.38.02-.02.03-.05.01-.07-.03-.04-.05-.08-.1-.1-.06-.03-.16.01-.15.09.03.28.3.44.52.57.13.08.27.14.42.2.14.05.26.2.41.18.11-.01.15-.19.02-.21Z"/><path d="M90.65,131.16s0,0,0-.01c-.31-.62-1.19-.79-1.56-1.37-.08-.13-.28-.02-.21.12.09.17.26.31.42.43-.04.04-.05.12,0,.17.05.05.11.11.17.16-.02,0-.04.02-.06.03,0,0,0,0-.01,0-.08.02-.09.11-.04.16.2.23.48.33.68.55.22.23.46.43.73.6.1.06.18-.04.17-.13-.01-.07-.04-.12-.07-.17.04-.02.07-.05.06-.1-.02-.18-.14-.31-.28-.42Z"/><path d="M91.3,132.15h0s0,0,0,0c-.02-.03-.04-.06-.06-.09-.04-.06-.07-.12-.09-.19-.01-.05-.05-.07-.1-.07-.02,0-.03-.01-.05-.02-.12-.2-.22-.4-.3-.61-.04-.1-.2-.07-.17.05.02.09.05.17.08.26-.14-.11-.29-.22-.43-.33-.05-.04-.12.03-.07.07.21.19.44.38.64.58,0,0,0,0,0,0,.05.09.1.17.16.25.05.07.11.1.16.15.02.03.04.05.06.08,0,0,0,0,0,0h0s.01.01.02.02c.07.08.22,0,.18-.1,0-.02-.02-.03-.03-.05Z"/></svg>