<?xml version="1.0" encoding="UTF-8"?><svg id="Layer_1" xmlns="http://www.w3.org/2000/svg" viewBox="0 0 144.57 144.57"><path d="M86.42,64.89s-.01-.02-.02-.02c0,.01,0,.02.01.03h0Z" stroke="#000" stroke-miterlimit="10" stroke-width=".25"/><path d="M99.87,82.72s.16-.05.29,0c.07.02.13.07.19.14.35.4.77.72,1.22,1,0,0,.17.11.46.28,1.66.91,3.67,1.07,3.67,1.07,1.21.18,2.24.3,3.05.4.81.09,1.69.18,1.84-.16.07-.15.01-.38-.08-.53-.14-.22-.29-.42-.44-.63-.37-.54-.78-1.05-.99-1.69-.08-.25-.2-.5-.34-.73-.47-.75-1.13-1.33-1.73-1.96-.22-.24-.52-.41-.79-.61-.24-.18-.47-.36-.71-.53-.26-.19-.51-.39-.78-.57-.33-.21-.33-.2-.22-.59.1-.37.2-.75.23-1.13.09-.92.11-1.85-.13-2.75-.04-.14-.04-.28-.07-.42-.13-.76-.23-1.53-.62-2.22-.03-.05-.02-.11-.04-.21.13.04.21.06.29.1.19.07.37.19.57.22.6.1,1.2.03,1.8-.09.38-.08.56-.4.47-.79-.03-.12-.06-.25-.06-.38,0-.58-.21-1.08-.55-1.53-.66-.86-1.34-1.69-1.98-2.56-.87-1.17-1.94-2.08-3.29-2.65-.83-.35-1.66-.69-2.56-.82-.23-.03-.46-.08-.68-.16-.89-.29-1.79-.56-2.72-.7-.77-.11-.93-.32-.96-1.1,0-.06,0-.13,0-.19-.06-.26-.12-.52-.2-.78-.05-.16-.13-.31-.18-.47-.32-1.02-.86-1.89-1.7-2.56,0,0-.09-.12-.18-.24-.5-.75-1.49-4.22-2.56-6.37-.12-.25-.34-.65-.64-1.13.22.24.49.55.79.95,0,0,.2.2.32.44.47.96.88,1.93,1.51,2.81.92,1.29,2.06,2.29,3.44,3.02,1.46.78,3.01,1.33,4.59,1.79,1.24.36,2.52.5,3.78.77.36.08.74.09,1.1.13.2.02.32-.05.39-.24.05-.15.04-.3-.04-.44-.13-.23-.26-.47-.37-.72-.21-.47-.42-.93-.77-1.32-.24-.27-.4-.59-.6-.89-.15-.22-.31-.44-.47-.65-.18-.25-.41-.47-.56-.73-.42-.72-.98-1.31-1.65-1.8-.94-.7-2.02-1.09-3.14-1.31-.69-.14-1.4-.18-2.09-.31-.28-.05-.56-.07-.83-.15-.6-.18-1.19-.41-1.79-.59-1.23-.36-1.26-.16-2.13-.49-1.41-.54-2.28-1.67-2.57-2.04-.31-.4-.31-.48-1.18-1.75-.25-.37-.52-.73-.79-1.09-.15-.21-.31-.4-.47-.61-.16-.21-.33-.42-.46-.65-.25-.46-.53-.91-.9-1.29-.19-.2-.24-.33-.35-.46-.27-.33-.53-.57-.71-.73.3.15.7.38,1.16.69,0,0,.21.12.37.27.57.53,1.14,1.07,1.67,1.65.44.49.9.95,1.48,1.28.74.44,1.36,1.04,2.15,1.42,1.02.49,1.88.68,2.37.77.57.11,2.53.51,3.88-.05.09-.04.21-.13.43-.16.6-.09,1.19-.18,1.79-.23.51-.04.98-.19,1.46-.34.2-.06.33-.19.41-.37.05-.1.09-.21.12-.28-.09-.42-.33-.69-.67-.88-.15-.08-.28-.19-.42-.28-.47-.3-.96-.56-1.4-.89-.87-.66-1.7-1.37-2.57-2.02-.75-.56-1.61-.92-2.56-.95-.65-.02-1.31.03-1.96.05-.11,0-.23.03-.34.06-.68.15-1.35.3-2.03.44-.72.15-1.44.29-2.18.15-.2-.04-.41-.05-.61-.1-.28-.06-1.02-.19-1.73-.49-1.18-.49-1.96-1.27-2.28-1.6-.34-.34-.46-.54-.94-.97-.33-.3-.71-.55-1.06-.84-.61-.51-1.24-1-1.81-1.55-.98-.94-1.5-1.38-1.8-1.9-.32-.58-.44-1.07-.59-1.74-.09-.38-.07-.35-.3-2.48-.08-.71-.23-1.43-.22-2.14,0-.64-.12-1.21-.37-1.79-.21-.5-.52-.91-.94-1.24-.17-.13-.28-.25-.31-.28-1.09-.93-1.63-1.4-1.85-1.28-.1.06-.15.23-.07.96.12,1.08.38,1.87.45,2.19.16.84.34,1.69.36,2.55.03,1.03.08,2.05.3,3.06.14.62.05,1.25-.12,1.86-.2.69-.43,1.37-.64,2.06-.44,1.42-.88,2.84-1.54,4.19-.24.48-.4,1-.65,1.48-.57,1.09-1.17,2.17-1.75,3.25-.3.55-.57,1.12-.87,1.68-.14.27-.35.49-.68.5-.64.03-1.28.06-1.93.06-.27,0-.55-.02-.79-.12-.75-.3-1.5-.6-2.22-.97-.99-.51-2.02-.89-3.07-1.24-.14-.05-.3-.07-.45-.09-1.01-.09-2.02-.18-3.03.08-.56.14-.95.24-1.73.51,0,0-2.16.74-2.79,1.56-.14.18-.22.41-.36.74-.09.23-.04.39.12.55.36.37.53.56.59.61.2.14.36.21.61.31.27.11.38.1.61.21.5.24.98.52,1.48.74.23.1.35.19.39.21.47.26,1.69.75,3.12.68.63-.03.68-.17,3.51-.89.17-.04.35-.08.51-.15.41-.19.83-.37,1.28-.49.3-.08.6-.23.85-.42.53-.4,1.09-.72,1.72-.9.3-.09.59-.17.89-.23.24-.05.49-.08.8-.13-.05.16-.08.25-.12.34-.26.56-.53,1.11-.79,1.67-.38.8-.75,1.61-1.12,2.41-.06.13-.11.28-.21.37-.44.41-.96.7-1.58.72-.86.02-1.72,0-2.58-.01-.44-.01-.87-.06-1.31-.12-.74-.09-1.48-.15-2.23-.09-.4.03-.8.02-1.19.03-.31,0-.62-.02-.92.02-.57.08-1.14.19-1.71.29-1,.18-1.92.57-2.78,1.1-.38.24-.74.51-1.1.77-.28.21-.56.41-.81.65-.53.53-.93,1.16-1.31,1.8-.29.48-.46,1.03-.68,1.55-.12.28-.06.57.08.81.23.38.6.45,1.08.22.42-.2.83-.42,1.24-.63.28-.14.58-.21.89-.21.37,0,.74-.02,1.11-.04.3-.01.59-.04.88-.07.55-.05,1.1-.09,1.65-.14.45-.04.89-.1,1.33-.16.2-.03.4-.11.6-.13,1.28-.13,2.38-.72,3.43-1.39.72-.47,1.38-1.02,2.06-1.55.46-.36.93-.73,1.35-1.14.34-.33.73-.57,1.14-.78.17-.09.37-.17.61-.12-.32.61-.63,1.19-.94,1.78-.29.54-.55,1-.76,1.38-.85,1.52-1.22,2.32-1.93,3.28-.19.26-.5.65-1.03.94-.38.21-.71.28-.9.31-1.26.25-2.32.32-3.29.39-.83.06-1.63.22-2.42.44-.73.21-1.44.47-2.1.84-.74.41-1.48.83-2.23,1.23-.23.12-.48.19-.7.32-1.06.64-2.01,1.43-2.87,2.32-.05.05-.09.12-.14.19-.32.48-.64.96-.97,1.43-.25.36-.55.68-.63,1.13-.04.24-.13.47-.21.7-.16.5-.02.89.44,1.14.3.17.62.15.93.05.44-.14.88-.29,1.3-.47.48-.21.97-.4,1.49-.51.14-.03.27-.09.4-.15.95-.4,1.89-.8,2.84-1.19.89-.37,1.6-.99,2.24-1.67.62-.66,1.12-1.43,1.69-2.15.25-.31.5-.63.8-.88.62-.52,1.24-1.05,1.91-1.49.73-.48,1.52-.87,2.37-1.35-.21.4-.39.71-.55,1.02-.38.73-.79,1.45-1.12,2.2-.54,1.2-1.03,2.43-1.56,3.64-.11.26-.28.49-.4.75-.26.6-.51,1.18-.92,1.72-.61.81-1.35,1.35-2.36,1.52-.8.13-1.59.3-2.38.46-.21.04-.43.1-.64.16-.44.13-.88.26-1.32.41-.35.12-.69.28-1.03.42-.73.29-1.46.58-2.1,1.04-.89.64-1.65,1.43-2.39,2.23-.28.31-.52.67-.72,1.04-.5.93-1.08,1.8-1.76,2.61-.09.11-.17.22-.24.35-.3.56-.62,1.12-.9,1.7-.14.3-.23.63-.33.94-.1.3.05.56.2.79.07.11.26.18.39.18.24,0,.49-.03.72-.09.65-.16,1.29-.35,1.94-.51.25-.06.5-.14.75-.15.71-.04,1.38-.26,2.08-.39.06-.01.12-.05.18-.08.34-.17.69-.34,1.03-.53.13-.07.26-.17.37-.27.88-.89,1.77-1.76,2.61-2.68.57-.62,1.09-1.3,1.47-2.07.25-.52.51-1.04.78-1.55.09-.17.19-.34.32-.48.63-.65,1.06-1.45,1.63-2.15.27-.32.49-.69.89-.87.1-.04.17-.16.25-.23.06-.05.13-.1.25-.19,0,.18,0,.29-.02.4-.07.5-.14.99-.21,1.49-.04.29-.06.59-.1.88-.11.68-.25,1.36-.35,2.05-.11.72-.2,1.45-.28,2.18-.04.37-.03.74-.06,1.11-.03.35-.08.65-.11.79-.08.46-.29,1.68-1.21,2.72-.25.28-.62.7-1.24.96-.47.2-.78.27-1.35.25-.88-.04-1.7.22-2.5.55-.83.34-1.53.88-2.17,1.51-.86.85-1.45,1.86-1.97,2.92-.32.64-.58,1.31-.86,1.98-.23.55-.43,1.1-.65,1.65-.02.06-.03.12-.04.19-.14.9-.32,1.8-.34,2.71,0,.38-.06.77-.11,1.15-.12.91-.19,1.81.05,2.72.09.35.16.7.47.94.06.04.07.14.1.2.08-.02.14-.05.2-.05.52,0,.95-.18,1.3-.57.2-.22.41-.43.62-.64.4-.41.8-.84,1.22-1.23.35-.32.74-.6.98-1.03.03-.05.09-.09.14-.13.17-.18.34-.35.49-.54.21-.27.38-.57.59-.85.42-.55.86-1.09,1.28-1.64.29-.37.61-.73.87-1.13.44-.65.75-1.39.96-2.14.26-.92.55-1.84.6-2.82.02-.41.1-.82.21-1.21.3-1,.69-1.96,1.22-2.87.3-.51.58-1.03.87-1.54.03-.05.09-.07.19-.15.01.24.03.42.02.59,0,.35-.04.69-.04,1.04,0,.47.05.95.06,1.42.02.96.02,1.93.06,2.89.05,1.11.13,2.23.38,3.32.04.16,0,.35-.04.53-.03.16-.11.31-.15.47-.06.21-.09.43-.17.63-.31.8-.57,1.62-1.14,2.3-.34.4-.63.85-1.11,1.11-.65.34-1.16.86-1.67,1.36-.47.46-.85,1.03-1.22,1.59-.41.62-.75,1.29-1.13,1.93-.5.84-.64,1.81-.97,2.71-.19.51-.21,1.06-.24,1.59-.02.41-.1.82-.08,1.23.04,1.09.12,2.18.18,3.27.02.41.02.82.03,1.23,0,.62-.03,1.24.21,1.83.17.43.3.89.86.98.14-.05.32-.06.43-.15.24-.23.47-.48.65-.76.56-.83,1.11-1.67,1.62-2.53.4-.67.77-1.36,1.12-2.07.22-.46.4-.94.56-1.43.15-.44.25-.89.36-1.34.05-.24.05-.49.1-.72.35-1.52.31-3.06.23-4.6-.02-.41-.11-.81-.15-1.22-.07-.72.04-1.44.16-2.15.04-.25.13-.5.2-.74.06-.2.11-.39.19-.58.23-.56.48-1.11.72-1.66.2-.47.39-.93.6-1.44.02.08.05.12.05.16.02.29,0,.6.08.88.14.52.18,1.07.32,1.58.2.71.26,1.44.35,2.16.11.89.16,1.79.24,2.69,0,.1.03.2.06.3.39,1.21.65,2.46,1.37,3.54.36.53.68,1.09,1.04,1.62.09.14.21.26.34.37.59.47,1.07,1.03,1.49,1.66.71,1.08,1.56,2.04,2.46,2.95.29.29.65.45,1.07.27.21-.53.04-1.06.03-1.57,0-.23-.03-.46,0-.69.08-.62.17-1.25.09-1.88-.04-.34-.11-.69-.1-1.03.02-.51-.07-1-.22-1.48-.13-.4-.23-.82-.4-1.21-.28-.63-.55-1.28-.93-1.86-.54-.84-1.33-1.46-2.08-2.1-.11-.09-.24-.15-.36-.22-.77-.44-1.54-.87-2.31-1.31-.08-.04-.14-.11-.2-.18-.47-.57-.81-1.23-1.03-1.93-.28-.88-.56-1.76-.57-2.7,0-.09-.03-.18-.04-.27-.06-.38-.15-.76-.19-1.14-.08-.71-.13-1.43-.19-2.15-.08-.98-.18-1.97-.23-2.95-.04-.79,0-1.59,0-2.39,0-.26.04-.52.06-.78-.05-.72-.03-.88,0-.89.08-.01.31.98.43,1.99.11.99.07,1.33.08,2.08.01,1.02.33,1.97.69,2.91.54,1.38,1.46,2.5,2.47,3.55.69.72,1.47,1.32,2.24,1.94.43.34.97.55,1.03.58.72.37.95.4,1.78.79.02,0,.31.14.71.29.18.06.27.12.35.11.28-.02.55-.09.86-.14.04-.19.12-.37.12-.55,0-.3-.03-.61-.06-.92-.02-.2-.04-.41-.11-.6-.19-.54-.43-1.07-.61-1.62-.2-.61-.37-1.23-.5-1.86-.13-.63-.21-1.27-.49-1.86-.18-.38-.38-.76-.54-1.15-.4-.95-1.11-1.63-1.93-2.2-.55-.38-1.17-.61-1.81-.76-.82-.18-1.43-.62-2.16-1.06-.8-.49-2.41-1.47-2.44-2.65,0-.06.01-.03.02-.42.02-.55.02-1.11.04-1.66.02-.47.08-.95.12-1.42.07-.78.14-1.56.21-2.34.07-.77.32-1.5.51-2.25.01-.05.06-.1.11-.17.2.33.48.83.77,1.49.07.17.14.25.14.35,0,.64,0,1.28-.01,1.92,0,.53-.03,1.05.09,1.57.16.7.41,1.37.66,2.05.43,1.16,1.17,2.04,2.17,2.73.82.56,1.63,1.12,2.45,1.68.32.22.65.41.97.64.34.25.65.54,1,.79.38.27.8.47,1.16.76.26.2.42.33.62.29.26-.04.44-.32.51-.42.11-.17.15-.32.16-.35.03-.14.03-.28,0-.42-.08-.43-.19-.85-.3-1.27-.06-.23-.16-.46-.24-.69-.09-.27-.19-.53-.28-.8-.12-.37-.24-.73-.34-1.1-.1-.34-.13-.71-.27-1.04-.34-.86-.62-1.74-1.07-2.55-.52-.94-1.17-1.75-2.05-2.37-.57-.4-1.17-.74-1.76-1.11-.39-.24-.78-.49-1.19-.7-.49-.26-.99-.5-1.49-.72-.13-.06-.19-.12-.25-.16-.13-.09-1.09-.81-1.06-1.84,0-.15,0-.27.08-.47.15-.36.3-.71.4-1.08.42-1.42,1.07-2.75,1.67-4.1.27-.6.56-1.18.86-1.76.23-.45.48-.88.73-1.32.04-.07.12-.12.2-.2.26.44.38.88.48,1.33.01.06,0,.13,0,.19-.12.57-.19,1.15-.36,1.69-.32,1.01-.33,2.05-.33,3.08,0,.56.17,1.11.27,1.67.09.47.16.94.39,1.37.41.75.86,1.46,1.47,2.07.43.42.87.84,1.29,1.27.56.57,1.24,1,1.86,1.48.64.49,1.29.98,1.94,1.46.37.28.76.53,1.3.36.1-.32.23-.66.3-1.02.12-.58.24-1.17-.03-1.74-.35-.76-.41-1.55-.39-2.37.02-.64.04-1.29-.17-1.91-.14-.43-.32-.84-.47-1.26-.49-1.32-1.2-2.51-2.22-3.48-.8-.76-1.64-1.47-2.49-2.17-1-.83-1.72-1.85-2.3-3.02,1.37-2.37,2.74-4.75,4.12-7.13.04-.07.09-.13.13-.19,0,0,.02-.01.04-.01.01,0,.02,0,.05.01.03.07.07.15.09.24.19.79.26,1.57-.16,2.32-.07.12-.12.26-.16.39-.13.46-.3.91-.36,1.37-.07.53-.04,1.08.07,1.61.15.73.28,1.47.61,2.14.23.48.53.94.76,1.42.57,1.18,1.49,2.09,2.3,3.08.54.66,1.1,1.29,1.65,1.93.15.18.17.35.1.57-.12.38-.23.76-.34,1.14-.29,1.04-.26,2.1-.11,3.14.13.92.32,1.85.69,2.72.11.25.09.47-.09.71-.77,1.1-1.28,2.31-1.63,3.6-.19.71-.24,1.42-.14,2.14.05.38.04.74-.06,1.1-.09.32-.17.65-.22.98-.03.23,0,.36.13.47.06.05.13.09.22.13.27.13.55.11.82,0,.19-.07.39-.13.58-.2.3-.1.62-.18.91-.32.56-.26,1.11-.55,1.64-.85.23-.13.44-.31.62-.51.23-.24.43-.51.62-.78.32-.45.63-.9.95-1.35.07-.1.16-.19.24-.29.31.16.58.3.85.44.12.06.18.15.15.28-.1.44.19.7.46.95.18.17.43.14.61-.05.16-.16.34-.31.38-.56,0-.06.14-.14.22-.15.06,0,.2.08.2.12,0,.27.06.56-.09.82-.07.12-.15.24-.22.36-.31.5-.6,1.02-1.06,1.41-.19.17-.39.28-.65.29-.24.01-.49.01-.73.06-.58.12-1.15.26-1.72.41-.55.14-1.07.38-1.52.73-.37.29-.7.64-1.03.98-.12.13-.23.28-.3.44-.39.81-.78,1.62-1.16,2.44-.5,1.06-.88,2.16-1.1,3.32-.1.53-.27,1.04-.4,1.57-.09.35-.18.69-.25,1.04-.1.46-.18.92-.28,1.39-.08.38-.18.75-.24,1.13-.07.45.15.7.6.76.33.04.64-.02.92-.2.28-.18.57-.34.85-.53.86-.57,1.7-1.14,2.56-1.71.58-.39,1.13-.81,1.53-1.4.25-.36.49-.72.71-1.1.27-.47.55-.94.76-1.43.34-.8.65-1.62.81-2.48.11-.62.31-1.22.25-1.86-.06-.63.03-1.26.15-1.87.06-.32.23-.59.44-.84.23-.28.43-.57.66-.85.1-.12.21-.24.31-.35.03.01.05.03.08.04-.01.21-.03.43-.04.64-.06.94-.12,1.87-.19,2.81-.06.86-.15,1.72-.22,2.57-.1,1.15-.21,2.3-.31,3.46-.05.63-.09,1.25-.13,1.88-.03.42-.03.85-.2,1.25-.12.27-.22.55-.33.82-.28.67-.67,1.24-1.38,1.54-.31.13-.6.29-.91.41-.67.28-1.3.63-1.73,1.24-.15.21-1.04,1.01-1.73,2.55-.18.4-.32.78-.91,3.73-.75,3.72-.56,2.93-.71,3.75-.15.88-.28,1.78-.4,2.67-.03.24,0,.48.03.72.01.12.1.21.24.19.45-.06.9-.09,1.24-.46.06-.07.13-.12.2-.18.51-.43,1.03-.85,1.53-1.29.66-.59,1.14-1.33,1.58-2.08.5-.86.9-1.79,1.19-2.75.21-.71.36-1.42.41-2.15.08-1.18.12-2.36.18-3.54.02-.45.12-.89.35-1.29.29-.52.55-1.05.82-1.57.12-.23.26-.44.4-.66.05.48.03.92.01,1.37-.05,1.35.12,2.69.17,4.04.05,1.1.14,2.21.08,3.31-.06,1.14-.28,2.23-.86,3.25-.31.54-.58,1.12-.69,1.75-.05.29-.12.58-.17.87-.06.38-.11.76-.14,1.14-.04.38-.02.77-.09,1.15-.12.67-.01,1.33.05,1.99.02.24.12.47.21.7.18.49.37.98.57,1.47.26.66.58,1.29,1.1,1.79.25.24.39.46.74.83.51.54.69.65.86.62.21-.03.3-.28.44-.48.52-.75.77-1.62.96-2.5.11-.49.11-.99.16-1.49.03-.28.08-.57.05-.84-.05-.65-.12-1.3-.21-1.95-.07-.46-.13-.93-.3-1.35-.39-1-.82-1.99-1.27-2.97-.32-.7-.42-1.45-.52-2.2-.08-.61-.03-1.23-.17-1.84-.01-.06-.02-.26-.03-.46-.03-.36-.05-.65-.06-.85.62,1.14,1.18,1.77,1.59,2.15.18.16.66.58,1.01,1.29.05.09.21.18.22.55.02.62.25,1.14.55,1.66.7,1.2,1.66,2.19,2.66,3.14.32.3.64.6,1,.84.76.51,1.56.94,2.44,1.23.12.04.23.12.35.16.28.1.55.2.84.28.07.02.19,0,.24-.04.24-.21.28-.65.14-.96-.19-.41-.36-.82-.53-1.24-.24-.62-.47-1.25-.7-1.88-.28-.78-.84-1.38-1.32-2.03-.43-.59-1.05-.99-1.68-1.33-.46-.25-.98-.38-1.47-.57-.51-.2-1.05-.35-1.54-.61-.8-.42-1.31-.88-1.94-1.5-1.24-1.21-1.66-2.18-1.77-2.43-.08-.2-.13-.34-.16-.46-.21-.81,0-1.49,0-1.73,0-.99,0-1.98.03-2.97.03-1.35.09-2.7.14-4.04,0-.07.03-.14.04-.2.08.01.1.04.12.08.43.82.85,1.65,1.44,2.36.15.18.17.41.14.66-.04.36-.06.72-.05,1.08,0,.36.07.72.08,1.08.04,1.11.53,2.03,1.25,2.83.39.44.84.84,1.26,1.25.8.78,1.66,1.5,2.58,2.14.7.48.56.24,1.79.93,1.43.81,2.14,1.38,2.45,1.14.12-.1.12-.27.12-.61,0-.75-.3-1.3-.36-1.49-.24-.73-.57-1.44-.77-2.17-.34-1.2-.8-2.33-1.52-3.35-.22-.32-.42-.65-.71-.9-.4-.35-.78-.7-1.17-1.06-.73-.66-1.57-1.11-2.51-1.38-.56-.16-1.09-.36-1.56-.73-.71-.55-1.34-1.15-1.78-1.94-.16-.28-.34-.54-.53-.8-.17-.23-.24-.47-.2-.76.05-.38.09-.76.12-1.15.11-1.4.22-2.79.32-4.19.09-1.26.17-2.51.26-3.77,0-.13.03-.27.04-.44.08.06.12.08.13.11.19.42.38.85.56,1.27.03.07.04.15.03.22-.07.52-.16,1.04-.22,1.56-.03.28-.04.57,0,.84.12.77.27,1.54.41,2.31.12.67.41,1.26.76,1.84.46.76.98,1.44,1.79,1.85.08.04.14.11.22.15.22.13.44.26.67.36.26.12.54.17.78.31.66.37,1.3.77,1.96,1.15.1.06.24.08.36.06.37-.05.68-.36.72-.74.03-.32,0-.64-.02-.95-.03-.31-.12-.61-.17-.91-.03-.2-.07-.41,0-.69.11.21.17.35.25.48.07.1.15.23.26.26.11.04.17.12.24.15.2.11.3.16.37.15.17-.01.41-.1.68-.78.04-.1.16-.23.26-.25.19-.04.39,0,.59,0-.15.57-.32,1.08-.41,1.61-.13.71-.19,1.43-.29,2.14-.08.58-.13,1.15.03,1.72.09.34.15.7.23,1.05.01.06,0,.13.02.19.03.19.05.38.09.57.06.22.12.4.24.43.18.05.38-.27.75-.71.23-.27.39-.51.84-.85.75-.55,1.59-1,2.24-1.69,0,0,.02-.01.03-.02.74-.51,1.4-1.09,1.73-1.96.02-.06.05-.12.09-.17.4-.65.64-1.37.85-2.1.15-.52.22-1.07.26-1.62.07-.98.17-1.97.74-2.83.04-.05.06-.12.08-.17.24-.51.48-1.02.73-1.53.06-.13.13-.27.21-.44.07.07.1.09.1.11.16.85.34,1.69.47,2.54.14.86.23,1.73.34,2.6.13,1.01.26,2.01.38,3.02.02.2-.02.31-.03.38-.08.48-.25.73-.95,1.9-.03.05-.09.16-.2.27-.15.16-.34.26-.55.35-.32.13-.64.27-.94.44-.47.26-.91.58-1.45.69-.19.04-.38.07-.56.14-.56.23-1.04.58-1.5.99-.63.56-1.17,1.18-1.54,1.95-.21.44-.45.87-.62,1.32-.18.46-.32.95-.44,1.43-.08.32-.09.66-.13.99-.1.78-.33,1.53-.3,2.33.01.45,0,.9.01,1.35,0,.28.02.57,0,.85,0,.2.09.3.28.36.47.15.88.09,1.23-.3.46-.5.95-.98,1.53-1.34.67-.42,1.24-.94,1.79-1.51.73-.74,1.16-1.62,1.46-2.59.12-.38.24-.76.36-1.14.05-.17.12-.34.15-.52.27-1.31.57-2.61,1.01-3.87.12-.35.28-.69.44-1.02.06-.14.13-.26.28-.54.16-.3.39-.72.68-1.23.03.21.09.55.16.98.05.28.09.5.11.65.2,1.36.41,2.72.6,4.08.04.31,0,.64-.03.95-.06.46-.43.78-.61,1.19-.17.36-.41.68-.69.97-.35.36-.69.73-.87,1.21-.01.03-.05.06-.07.09-.46.63-.72,1.36-1.08,2.04-.04.07-.05.15-.07.22-.17.77-.27,1.54-.3,2.33-.03.85.11,1.69.26,2.52.1.55.28,1.06.57,1.54.13.21.23.43.32.66.24.66.55.84.69.96.2.18.37.32.57.29.25-.03.41-.3.52-.51.19-.33.27-.63.28-.88.02-.49.07-.96.22-1.44.15-.47.19-.98.31-1.46.18-.68.38-1.36.59-2.03.23-.71.33-1.42.22-2.17-.1-.65-.15-1.3-.23-1.95-.06-.5.07-.98.18-1.48.21.27.4.54.55.83.56,1.09,1.11,2.17,1.64,3.27.26.54.65.98.98,1.47.09.14.23.24.35.35.96.88,2.11,1.46,3.24,2.05.6.31,1.24.56,1.86.83.15.06.3.15.51.02-.01-.15-.02-.31-.05-.47-.04-.21-.09-.43-.14-.64-.16-.66-.28-1.34-.49-1.98-.22-.66-.49-1.3-.81-1.91-.3-.57-.65-1.12-1.17-1.52-.57-.44-1.15-.86-1.73-1.29-.27-.2-.53-.41-.8-.6-.18-.13-.35-.28-.55-.34-.38-.12-.77-.18-1.16-.29-.23-.06-.45-.16-.67-.26-.19-.08-.36-.18-.54-.27-.97-.47-1.24-.78-1.23-1.7,0-.78-.07-1.56-.14-2.35-.05-.52-.15-1.04-.21-1.56-.05-.49-.08-.9-.13-1.69-.04-.62-.07-1.14-.09-1.5.27,1.05.48,1.92.61,2.55.14.62.14.73.24.96.36.83.95,1.5,1.61,2.09.67.6,1.4,1.13,2.11,1.68.22.17.49.27.75.39.28.13.56.25.85.36.3.12.6.23.9.32.25.07.5.1.76.15.41.08.69.24.97.38,1.91.96,2.29,1.07,2.55.91.05-.03.26-.17.3-.4.02-.11,0-.24-.05-.37-.23-.49-.5-.95-.77-1.42-.4-.7-.84-1.38-1.21-2.1-.31-.61-.64-1.2-1.05-1.75-.7-.92-1.59-1.55-2.72-1.85-.92-.24-1.8-.61-2.72-.85-.47-.12-.92-.32-1.39-.45-.51-.14-.9-.43-1.23-.82-.1-.12-.18-.25-.29-.36-.23-.23-.31-.52-.35-.84-.04-.34-.11-.68-.16-1.03-.1-.58-.2-1.16-.29-1.75-.05-.33-.08-.66-.14-.99-.04-.24-.16-.47-.18-.71-.06-.77-.25-1.52-.23-2.3,0-.17-.04-.33-.05-.5-.02-.19-.02-.38-.03-.58-.01-.18-.04-.36-.06-.54.03-.01.05-.02.08-.03.26.3.53.59.76.9.27.36.53.74.58,1.2.06.64.37,1.17.63,1.73.42.92,1.09,1.57,2.02,1.97.8.35,1.58.75,2.4,1.06.72.27,1.49.41,2.27.31.77-.1,1.51,0,2.22.32,1.01.48,1.22.81,1.98.96.32.07.57.12.71-.02.14-.14.11-.45-.54-1.94-.26-.6-.39-.9-.58-1.26-.55-1.08-.86-1.69-1.42-2.38-.31-.38-.9-1.1-1.88-1.72-.61-.38-1.12-.56-2.11-.93-.59-.22-1.2-.38-1.81-.53-.62-.15-1.26-.25-1.91-.12-.48.09-.96.18-1.44.27-.24.05-.46.04-.66-.04-.17-.07-.27-.17-.38-.28-.67-.63-.85-.57-1.12-.98-.13-.2-.21-.35-.27-.63-.08-.39-.16-.78-.23-1.17-.03-.13-.04-.27-.06-.47.23.09.42.13.53.14,0,0,1.3.24,3.28-.33ZM91.08,49.4c.58.17,1.15.39,1.73.53.79.2,1.55.55,2.38.62.61.05,1.22.16,1.83.26.18.03.35.09.52.15.2.06.39.14.59.19,1.15.26,2.04.92,2.85,1.73.02.02.04.04.05.06.59.83,1.19,1.67,1.78,2.5.17.24.36.47.52.72.21.34.23.4.67,1.17.37.65.42.71.38.78,0,0-.01.02-.02.03-.43-.35-1.06-.85-1.84-1.4-2.49-1.77-6.96-4.43-9.46-5.4-.39-.15-1.45-.86-2.78-1.78-.05-.03-.08-.08-.16-.17.36-.03.66-.05.96.04ZM90.65,49.93c.5.34.97.73,1.48,1.04.51.31,1.07.56,1.61.82.54.26,1.09.53,1.64.77.28.12.57.24.86.36.86.54,1.57.99,2.11,1.33,1.5.95,1.59,1,1.92,1.21,2.06,1.31,3.94,2.51,3.82,2.74-.12.25-2.48-.44-2.84-.5,0,0-.09-.01-.21-.03-.05,0-.11-.02-.2-.04-1.28-.24-2.51-.62-3.73-1.09-1-.38-1.98-.79-2.89-1.35-.66-.41-1.26-.89-1.79-1.45-.31-.32-.54-.72-.81-1.08-.61-.82-1.01-1.76-1.46-2.66-.08-.17-.19-.32-.33-.55.35.12.59.31.84.48ZM87.52,41.01c.73-.12,1.46-.31,2.18-.48,1.02-.24,2.06-.31,3.1-.2.7.07,1.33.39,1.9.79.63.44,1.22.93,1.82,1.42.58.47,1.15.95,1.81,1.3.35.19.67.45,1.01.67-.47.05-.87-.11-1.29-.22-.82-.22-1.63-.46-2.45-.66-.82-.21-1.67-.27-2.51-.32-.47-.03-.94-.1-1.41-.16-1.05-.13-2.08-.34-3.07-.69-.55-.2-1.09-.45-1.62-.68-.35-.16-.69-.33-1.04-.5-.07-.03-.12-.08-.2-.13.6-.04,1.19-.04,1.77-.13ZM85.94,41.49c.26.13.51.29.78.4,1.02.38,2.05.76,3.09,1.09.5.16,1.03.19,1.55.28.23.04.46.06.69.08.88.09,1.77.15,2.64.28,1.48.21,2.91.63,4.31,1.16.16.06.32.1.47.17.06.03.13.1.13.16,0,.06-.06.15-.12.17-.39.13-.78.26-1.17.36-.31.08-.63.1-.95.14-.29.04-.59.05-.88.1-.25.04-.49.13-.74.2-.25.06-.49.16-.74.18-1.23.05-2.44-.05-3.64-.33-.6-.14-1.18-.36-1.7-.69-.79-.5-1.58-1-2.34-1.55-.41-.3-.74-.71-1.1-1.07-.11-.11-.2-.23-.31-.34-.37-.37-.75-.73-1.12-1.1-.04-.04-.07-.1-.13-.19.5.1.89.33,1.28.53ZM50.26,46.02c.69-.56,1.41-1.06,2.28-1.34.49-.16.95-.4,1.44-.54,1.18-.33,2.4-.34,3.59-.11.85.17,1.69.45,2.47.86,1.06.55,2.12,1.09,3.26,1.47.04.01.06.04.18.11-.38.02-.67.03-.97.05-1.01.06-2.02.11-3.04.19-.99.07-1.98-.03-2.96-.09-.67-.04-1.33-.07-2-.09-.92-.02-1.85-.04-2.77-.03-.51,0-1.02.08-1.53.11-.07,0-.15,0-.24,0-.03-.28.1-.45.29-.6ZM62.53,47.46c-.84.56-1.78.91-2.72,1.26-.39.15-.82.21-1.23.32-1.82.48-1.67.47-1.86.5-1.73.26-3.45-.71-3.96-1-.23-.13-.51-.32-.99-.51-.29-.12-.47-.16-.81-.33-.39-.2-.56-.34-.63-.4-.2-.18-.33-.36-.41-.49.16-.03.25-.05.34-.06.17-.01.34,0,.5-.04.5-.14,1-.06,1.5-.07,1.34-.04,2.67-.04,4.01.11,1.2.13,2.4.16,3.61.07,1.18-.09,2.36-.08,3.54-.12.07,0,.15.01.22.02,0,.02,0,.05.01.07-.38.22-.76.42-1.13.66ZM60.52,53.89c-1.3,1.01-1.7,1.34-2.57,1.97-.38.28-.81.49-1.21.74-.63.39-1.31.66-2.03.81-.58.12-1.16.19-1.74.28-.11.02-.24.01-.34.05-.5.18-1.01.16-1.52.17-.4,0-.8.05-1.19.07-.38.02-.77.05-1.15.05-.31,0-.57.14-.84.26-.34.15-.66.34-1.01.48-.19.08-.39.13-.59.17-.18.04-.33-.02-.38-.24.05-.05.1-.11.16-.15.45-.32.9-.64,1.34-.97.14-.11.26-.24.4-.36.4-.35.87-.58,1.32-.86.57-.36,1.19-.61,1.79-.89.25-.12.53-.19.8-.27.04-.01.08-.01.11-.03.78-.3,1.6-.43,2.42-.59.81-.16,1.62-.29,2.43-.45.92-.19,1.13-.26,2.44-.55.63-.14,1.47-.32,2.48-.53-.26.19-.64.48-1.1.83ZM61.23,52.96c-.97.23-1.95.46-2.92.69-.21.05-.42.12-.63.16-1.29.25-2.57.51-3.86.72-.82.13-1.61.33-2.38.61-.82.29-1.61.69-2.37,1.11-.64.35-1.23.79-1.82,1.22-.42.31-.8.67-1.2,1.01-.04-.02-.08-.04-.12-.05.04-.17.05-.35.12-.51.16-.38.32-.76.52-1.11.21-.38.48-.73.71-1.1.39-.63.94-1.08,1.55-1.48.44-.28.85-.63,1.32-.86,1.5-.76,3.1-1.14,4.8-1.09.4.01.8.01,1.19-.04.67-.08,1.34-.02,2,.05.92.1,1.84.22,2.77.2.39-.01.79.03,1.19.08-.26.19-.54.32-.85.39ZM53.72,63.47c-.26.21-.49.46-.7.71-.54.67-1.04,1.37-1.58,2.04-.2.25-.43.48-.67.69-.67.59-1.39,1.09-2.25,1.37-.45.14-.86.39-1.3.57-.5.2-1.01.38-1.51.57-.71.27-1.41.54-2.12.8-.46.17-.7.2-1.13.15.05-.08.08-.17.14-.22.25-.21.46-.37.52-.39.44-.2,1.02-.83,3.57-2.46,1.9-1.22,2.18-1.24,2.86-1.84.14-.12.64-.56,1.36-1.1.23-.18.5-.37.79-.57.6-.41,1.1-.7,1.42-.88.34-.18.82-.43,1.43-.7.3-.13,1.33-.58,1.38-.49.05.09-.89.67-2.2,1.74ZM56.36,61.23c-.14.06-.25.08-.28.09-.71.33-1.42.65-2.13,1-.14.07-.27.14-.41.21h0c-.33.12-.81.31-1.36.63-.87.5-1.4,1.01-1.72,1.3-.72.66-1.01.77-2.96,2.07-1.12.75-2.8,1.9-5.12,3.59-.03-.02-.09-.07-.12-.14-.04-.1-.02-.2,0-.3.18-.65.02-.56.38-1.25.71-1.37,1.53-2.29,1.53-2.29,1.12-1.24,2.25-1.89,2.64-2.11.29-.17.6-.29.9-.44.78-.42,1.55-.85,2.33-1.26.79-.41,1.64-.66,2.5-.87,1.27-.3,2.57-.31,3.85-.48.12-.02.25-.03.42-.05-.1.09-.25.2-.46.29ZM40.71,100.67c-.1-.19-.19-.3-.23-.42-.2-.77-.38-1.55-.24-2.35.07-.42.13-.83.19-1.25.02-.14.03-.28.02-.42-.07-.96.18-1.89.37-2.82.13-.62.43-1.21.66-1.8.17-.44.35-.89.56-1.31.36-.71.75-1.4,1.12-2.1.32-.6.76-1.09,1.26-1.54.7-.65,1.52-1.09,2.41-1.4.64-.22,1.29-.33,1.97-.29.27.02.55-.07.83-.12.13-.02.26-.05.39-.07.01.03.03.05.04.08-.66.75-1.32,1.48-1.96,2.24-.39.46-.74.95-1.11,1.42-.26.34-.47.69-.63,1.1-.13.32-.32.62-.52.92-.01,0-.08.1-.19.3-.04.07-.08.14-.12.21-.34.6-.65,1.22-.97,1.83.05-.05.08-.1.12-.15-.83,1.65-1.82,3.69-1.95,3.97-.01.03-.12.25-.26.55-.22.46-.46.92-.68,1.38-.03.07-.06.14-.09.21-.23.58-.54,1.1-.87,1.63-.03.04-.05.09-.12.2ZM50.26,85.29c-.4.73-.59,1.53-.77,2.33-.09.41-.12.84-.19,1.26-.28,1.79-.79,3.48-1.93,4.93-.2.25-.44.47-.63.73-.32.42-.6.86-.92,1.28-.39.52-.76,1.06-1.22,1.52-.58.58-1.14,1.18-1.71,1.77-.38.39-.76.76-1.14,1.15-.28.28-.45.37-.87.43.29-.51.68-1.2,1.12-2.02,1.68-3.13,3.02-6.04,3.58-7.38.47-.93.99-1.83,1.55-2.71.38-.59.85-1.13,1.34-1.64.59-.61,1.15-1.25,1.7-1.89.06-.06.12-.12.25-.14-.05.12-.09.25-.15.37ZM46.08,114.17c-.13-.15-.23-.22-.26-.31-.15-.4-.29-.8-.41-1.2-.04-.14-.01-.31,0-.46.01-.35.07-.69.05-1.04-.07-1.23-.17-2.46-.23-3.69-.02-.35.03-.71.05-1.07.02-.31.02-.62.08-.92.11-.53.23-1.05.39-1.57.19-.6.39-1.19.64-1.76.17-.4.45-.75.63-1.14.33-.69.82-1.27,1.25-1.89.55-.79,1.27-1.37,2.03-1.92.08-.06.18-.09.33-.17-.04.14-.06.22-.09.3-.26.64-.56,1.27-.76,1.93-.27.88-.62,1.73-.76,2.66-.14.95-.41,1.88-.59,2.82-.1.53-.18,1.07-.2,1.6-.02.68-.18,1.33-.36,1.96-.21.73-.45,1.46-.69,2.18-.15.49-.29.98-.44,1.47h0c-.22.73-.44,1.47-.66,2.2ZM50.73,104.46c-.13,1.11-.31,2.21-.68,3.27-.44,1.26-1.04,2.43-1.75,3.55-.45.7-.87,1.42-1.33,2.12-.16.24-.37.45-.57.67-.03.03-.09.03-.18.06.32-1.15.61-2.08.82-2.72.6-1.82.75-2.25,1.02-3.35.15-.63.27-1.25.29-1.89.02-.44.12-.89.21-1.33.18-.88.35-1.76.56-2.63.22-.91.48-1.81.73-2.71.03-.12.11-.23.16-.35.13-.31.25-.62.38-.92.05-.12.12-.24.18-.35.03,0,.05.02.08.02,0,.16.02.32,0,.47-.11.68-.01,1.35.08,2.03.07.52.1,1.05.1,1.57,0,.83.01,1.67-.09,2.5ZM55.78,98.78s.23.13.35.2c.44.25.86.52,1.31.73.5.22.87.6,1.26.94.22.2.7.65,1.14,1.25,1.11,1.5,1.38,3.09,1.58,4.28.14.84.13,1.37.12,1.57-.02.58-.11.72-.13,1.22-.03.77.12,1.43.2,1.7-1.4-4.57-2.43-6.38-3.14-7.12-.14-.14-.89-.93-1.79-2.09-.24-.31-.5-.67-.77-1.09,0,0-.89-1.37-1.81-3.94,0,0-.02-.13-.05-.25.73,1.74,1.31,2.37,1.72,2.6ZM54.99,99.25c1.07,1.92,2.22,3.1,2.67,3.59,2.54,2.76,3.44,6.59,3.71,7.87-.01.16-.05.25-.12.28-.07.02-.15-.02-.3-.17-.37-.39-.74-.78-1.1-1.19-.28-.32-.54-.65-.8-.99-.3-.39-.57-.79-.87-1.17-.26-.33-.51-.68-.83-.95-.77-.66-1.27-1.5-1.76-2.36-.6-1.02-.88-2.16-1.17-3.29-.07-.27-.09-.55-.16-1.1-.14-1.15-.22-2.09-.27-2.74.19.53.5,1.32,1,2.22ZM54.91,84.21c.43.26.84.54,1.27.8.21.13.43.24.66.32.44.15.88.28,1.32.41.84.25,1.52.74,2.14,1.32.72.67,1.07,1.58,1.48,2.45.32.69.38,1.43.54,2.16.21,1,.57,1.95.97,2.88,0,0,.07.21.15.63.15.78.07.94.03,1-.06.09-.14.15-.22.19-4.66-6.35-6.62-8.99-7.22-9.74-.1-.12-.49-.62-.98-1.32-.4-.59-.72-1.1-.94-1.49.29.14.56.25.8.39ZM54.74,85.06c.26.36.44.62.7,1,0,0,.1.14,1.11,1.6.64.92,3.11,4.27,6.59,8.75-.11.03-.2.05-.26.05-.45.05-.78-.3-1.72-.74-.22-.1-.38-.2-.44-.23-.8-.4-1.13-.47-1.61-.83-.07-.06-.12-.09-.29-.25-1.37-1.19-2.08-1.87-2.72-2.53-.18-.19-.35-.34-.5-.58-.23-.37-.45-.75-.63-1.14-.2-.43-.35-.88-.5-1.33-.27-.78-.44-1.58-.48-2.41-.04-.8-.05-1.61-.07-2.46.2.25.5.63.84,1.1ZM64.14,87.08c-.08.08-.47-.22-1.06-.61-.03-.02-.34-.26-.97-.75-.16-.12-.7-.54-1.4-1.01-.47-.32-.43-.28-.9-.6-.47-.32-.92-.65-1.4-.95-.96-.6-1.64-1.43-2.07-2.46-.23-.55-.4-1.14-.62-1.69-.21-.51-.18-1.03-.19-1.56,0-.42.01-.84.03-1.27,0-.15.04-.29.08-.52.31.27.77.67,1.29,1.2.73.73,1.34,1.46,3.48,4.51,1.35,1.92,1.92,2.78,2.18,3.2.02.03.1.15.27.41,1.18,1.79,1.33,2.04,1.27,2.1ZM54.7,73.39s.45.37.66.75c.03.05.1.2.26.31.07.05.14.08.22.11.69.22,1.33.54,1.96.88.61.33,1.21.67,1.81,1.02.8.48,1.47,1.09,2.01,1.88.36.52.63,1.09.93,1.64.14.26.23.54.33.82.19.54.37,1.09.55,1.64.26.8.5,1.62.79,2.41.18.51.33,1.03.36,1.57,0,.17-.04.34-.06.55-.05-.02-.09-.03-.12-.05-.01,0-.04-.02-.06-.04-.37-.24-.43-.61-.7-1.07-.07-.13-.08-.08-.32-.46-.43-.68-.86-1.36-1.29-2.04,0,0,0,0,0,0-3.5-4.87-4.85-6.54-5.28-6.88-.1-.08-.44-.32-.74-.76-.1-.14-.16-.22-.23-.34-.12-.2-.17-.38-.19-.43-.2-.59-.91-1.49-.87-1.51ZM67.12,114.34c-.01-1.11.24-1.64.52-3.27.13-.77.28-1.54.44-2.31.1-.49.25-.97.35-1.46.13-.6.26-1.2.35-1.81.02-.16.19-.66.4-1.16.83-1.91,2.5-2.97,2.98-3.27.36-.22.88-.51,1.57-.75-1.16,1.62-1.71,3.05-2,4.07-.28.98-.66,2.81-1.14,4.65-.08.3-.2.88-.52,1.57-.18.38-.36.77-.55,1.15-.07.14-.41.75-.94,1.49-.21.29-.43.6-.77.98-.25.28-.48.5-.65.66,0-.12-.02-.31-.02-.54ZM74,100.55c-.11.17-.14.2-.2.29-.25.37-.59,1.04-.77,2.43-.05.36-.05,1.1-.12,2.58-.02.41-.05.82-.08,1.23-.04.59-.21,1.16-.41,1.72-.03.07-.05.15-.07.22-.25,1.17-.82,2.18-1.57,3.1-.42.52-.86,1.03-1.34,1.49-.24.23-.74.77-1.53,1.23-.43.25-.49.22-.51.2-.06-.07.22-.38.7-.99.3-.37.62-.79.8-1.05.48-.69.74-1.28,1-1.77.3-.58.6-1.16.73-1.82.09-.46.18-.68.31-1.27.55-2.49.94-3.65,1.03-3.94.03-.09.06-.17.08-.24.09-.27.2-.57.2-.59.2-.56,2.51-4.52,2.62-4.45.06.04-.69,1.33-.89,1.63ZM80.59,110.32c.32.12.73.26.73.26.23.07.4.12.77.23.59.18,1.06.56,1.53.94.59.47,1.01,1.1,1.41,1.72.29.46.46,1,.65,1.52.21.54.38,1.09.57,1.63.04.11.11.2.17.3.04.07.06.15.13.31,0,.09-.01.19-.02.28-1.88-2.02-3.27-3.43-4.2-4.36-.23-.23-.56-.55-1.04-1.04-1.26-1.28-2.25-2.34-2.89-3.04.21.14,1.34.93,2.19,1.25ZM75.91,106.3s.59.75,1.4,1.74c.48.58,1.08,1.28,2.19,2.46,1.57,1.66,5.93,6.18,7,7.13-.16.13-.3.07-.43.03-1.72-.6-3.32-1.38-4.56-2.77-.37-.41-.78-.78-1.13-1.21-.55-.66-.98-1.21-1.24-2.03-.13-.42-.11-.57-.17-.81,0,0-.03-.12-.09-.27-.31-.76-1.47-1.96-1.47-1.96-1.26-1.86-1.52-2.29-1.5-2.31ZM79.9,99.09c.37.14.75.26,1.13.37.54.17.98.51,1.41.85,1.05.84,1.9,1.84,2.5,3.04.28.56.48,1.16.69,1.75.31.84.61,1.69.88,2.54.14.44.23.89.34,1.34.01.05-.02.12-.04.23-.09-.08-.17-.13-.21-.19-.35-.59-.63-1.05-.67-1.17-.38-1.2-2.86-2.76-4.31-4.99-.53-.82-.57-.88-1.23-1.73-.5-.64-.98-1.19-1.55-2.12-.13-.21-.23-.38-.29-.5.46.19.9.39,1.35.57ZM76.33,95.73s.32.91,1.19,1.92c.39.45.77.78,1.32,1.56.09.13.06.09.32.48.52.76.85,1.25,1.13,1.65.75,1.09.85,1.3,1.19,1.77,1.52,2.13,2.99,2.76,3.86,4.11.19.29.7,1.14.95,1.54.08.13.16.26.24.4.05.09.09.19.16.36-.33-.1-.52-.28-.71-.43-.61-.5-1.03-.67-1.36-.88-.95-.61-1.07-.53-1.87-1.03-.74-.46-1.23-.86-2.01-1.62-.58-.56-1.15-1.14-1.69-1.74-.68-.76-.96-1.68-1.02-2.69-.01-.24,0-.26-.06-1.08-.07-.99-.1-1.48-.19-1.7-.15-.39-.27-.34-.68-.95-.56-.83-.82-1.65-.78-1.67ZM88.43,110.83c-.02-.13-.04-.22-.04-.3,0-.65,0-1.31,0-1.96.01-1.06.05-.96.06-1.04.06-.68.13-1.44.38-2.35.16-.55.32-.95.47-1.29.36-.84.73-1.69,1.5-2.53.42-.46.8-.72.89-.8.36-.3.75-.54,1.21-.65.59-.14,1.13-.41,1.66-.7.26-.14.53-.27.79-.4.1-.05.21-.07.4-.13-1.01.88-2.36,2.26-3.53,4.24-.9,1.53-1.42,2.96-1.74,4.07-.34.78-.67,1.56-1.04,2.32-.24.48-.56.92-.85,1.37-.03.05-.09.08-.17.15ZM94.98,101.81c-.03.16-.16.82-.34,1.73-.03.14-.05.28-.1.41-.29.85-.56,1.71-.88,2.55-.12.33-.34.63-.56.91-.23.29-.51.54-.76.82-.24.27-.54.47-.82.69-.75.59-1.48,1.23-2.2,1.87-.23.21-.43.36-.77.19.04-.25.23-.42.36-.62.21-.34.45-.66.62-1.02.42-.92.81-1.86,1.21-2.79.4-1.08,1.07-2.61,2.16-4.28,1.32-2.01,2.86-3.63,3.08-3.48.18.13-.77,1.49-1.02,3.01ZM99.61,105.61c.19.09.4.15.56.28.26.2.55.26.85.32.34.07.68.14,1.01.24.64.18,1.08.67,1.62,1.03.19.13.37.27.56.41.43.32.91.6,1.28.98.34.35.61.8.84,1.23.28.53.51,1.1.74,1.65.08.19.12.39.17.59.11.49.19.8.26,1.2.11.61.13.81.11.89-.31-.65-.62-1.19-.88-1.61-.36-.58-1.05-1.62-2.12-2.75-.4-.43-.74-.73-.93-.91-.79-.72-1.34-1.11-1.9-1.55-.54-.42-1.32-1.06-2.22-1.93.02-.03.04-.05.06-.08ZM99.09,105.41c.19.18.37.36.56.54.18.17.8.74,1.17,1.07.63.56.76.6,2.26,1.82.31.25.55.45.59.48.79.66,1.65,1.81,2.08,2.41.52.72,1.15,1.64,1.83,2.75,0,0,0,0,0,0,0,0,0,0,0,0-.08.06-.18.02-1.04-.41-.76-.38-1.16-.6-1.54-.8-.03-.02-.07-.04-.1-.05-.89-.34-1.63-.91-2.31-1.56-.3-.29-.56-.59-.76-.96-.31-.55-.66-1.07-.95-1.63-.3-.57-.53-1.17-.82-1.74-.25-.5-.55-.99-.82-1.48-.07-.13-.14-.26-.2-.4.02-.02.05-.04.07-.06ZM99.81,97.53c.55.17,1.1.35,1.65.52.25.08.5.13.74.21.27.08.53.19.8.28.22.07.43.17.65.21,1.23.24,2.23.85,2.93,1.88.3.44.55.92.82,1.39.34.59.69,1.17,1.03,1.76.3.52.6,1.04.91,1.56.1.16.15.32-.03.5-.14-.16-.34-.38-.6-.64-.86-.86-1.58-1.33-2.2-1.75-1.15-.79-1.95-1.42-3.39-2.56-.65-.51-1.15-.91-1.8-1.48-.91-.8-1.61-1.51-2.07-1.98.18.04.37.06.54.11ZM98.98,97.43c.15-.04.46.46,1.16,1.17.02.02.05.04.08.06.61.58,1.5,1.34,2.34,1.96,0,0,1.06.79,2.39,1.8.67.51,2.66,1.7,3.93,3.17.1.11.34.4.28.48-.14.18-1.91-.89-2.03-.97-.27-.16-.35-.25-.56-.32-.44-.13-.9-.21-1.35-.33-.27-.07-.53-.19-.79-.29-.09-.04-.17-.12-.27-.14-1.05-.29-1.83-1.02-2.66-1.65-.63-.48-1.23-1-1.72-1.64-.13-.17-.47-.71-.69-1.48-.25-.85-.29-1.76-.11-1.81ZM109.94,85.25c-.03.13-.63.11-1.93-.04-2.09-.24-3.17-.36-4.48-.78-1.04-.33-1.67-.65-2.26-1.13-.33-.27-.56-.53-.72-.72.38-.25.73-.46,1.05-.71.3-.22.58-.47.85-.72.17-.16.34-.27.58-.17.28.12.46-.05.63-.29.27.18.53.33.77.52,1.05.8,2.09,1.61,3.15,2.41.91.68,1.39.98,1.65,1.14.44.27.73.39.71.49ZM104.79,78.71c.87.57,1.76,1.12,2.48,1.88.44.46.93.89,1.25,1.46.08.14.19.29.22.44.12.63.53,1.11.87,1.62.19.29.39.57.59.86.05.07.07.15.11.26-.34-.2-.83-.5-1.41-.88-.2-.13-.38-.25-.72-.49-.66-.46-1.33-.91-1.99-1.38-.18-.13-.32-.29-.49-.43-.61-.5-1.23-1-1.87-1.52.11-.26.09-.51-.06-.78-.06-.11-.05-.31,0-.44.13-.3.3-.59.47-.91.21.11.39.2.56.3ZM104.06,72.71c.13.67.28,1.33.34,2.01.05.52-.02,1.05-.04,1.57-.02.33-.07.66-.23,1.02-.06-.12-.1-.18-.13-.26-.19-.55-.36-1.1-.55-1.64-.26-.75-.7-1.4-1.11-2.07-.28-.45-.57-.89-.89-1.3-.23-.29-.53-.52-.82-.75.53.65,1.11,1.25,1.54,1.98.42.72.87,1.43,1.16,2.21.75,2.04.76,2.11.59,2.43-.03-.09-.05-.16-.07-.22-.14-.44-.28-.88-.43-1.32-.39-1.2-1.12-2.19-1.93-3.13-.15-.18-.24-.44-.53-.47.51.65,1.06,1.28,1.53,1.97.61.91.99,1.94,1.23,3.01.08.36.05.71-.16,1.04-.24.38-.47.77-.69,1.15-.06.11-.13.13-.16.15-.27.16-.68.03-1.92-.8-.04-.03-.94-.63-2.03-1.57,0,0-.11-.12-.86-1.08-.12-.15-.1-.32.02-.46.59-.71.85-1.58,1.23-2.39.32-.69.45-1.45.47-2.21.02-.82,0-1.65-.25-2.44-.05-.14-.05-.3-.07-.45.34-.21.69-.21,1.02-.11,1.05.33,1.93.94,2.64,1.79.15.18.3.34.44.53.4.53.55,1.16.67,1.79ZM106.35,70.7c-.52.06-1.05.17-1.57.04-.45-.11-.88-.27-1.31-.43-.1-.04-.17-.15-.25-.24-.65-.71-1.42-1.27-2.27-1.7-.37-.19-.8-.27-1.21-.37-.16-.04-.35.03-.55.05-.32-1-.64-2.01-.98-3.07.16.05.26.06.34.11,1.24.7,2.54,1.3,3.72,2.11.82.56,1.65,1.09,2.47,1.65.7.48,1.34,1.03,1.96,1.71-.15.06-.24.12-.34.13ZM96.41,62.16c.9.22,1.79.46,2.68.69.82.21,1.61.52,2.38.89,1.05.51,1.88,1.28,2.6,2.18.35.43.71.85,1.03,1.29.7.95,1.07,1.41,1.25,1.76.14.28.31.7.4,1.27-.29-.22-.68-.51-1.14-.85-.86-.63-1.54-1.13-1.94-1.38-.64-.4-1.25-.85-1.89-1.26-.43-.28-.88-.52-1.33-.77-.6-.33-1.18-.68-1.8-.95-.45-.2-.71-.5-.92-.92-.35-.71-.89-1.25-1.55-1.67-.1-.06-.18-.14-.27-.21-.03-.02-.04-.06-.09-.15.23.03.42.04.6.08ZM95.01,62.09c.63.39,1.07.68,1.58,1.17.39.38.6.68.65.76.27.38.42.72.56,1.08.32.8.64,1.47.89,2.99.06.38.19.75.28,1.12.39,1.55.33,3.09-.28,4.58-.4.98-.89,1.91-1.51,2.77-.21.29-.48.53-.73.79-.14.14-.31.19-.49.09-.2-.11-.39-.24-.59-.35-.68-.38-1.25-.9-1.84-1.39-.92-.77-1.66-1.71-2.45-2.61-.56-.64-.94-1.41-1.31-2.18-.07-.15-.15-.29-.25-.43-.04.17.05.31.11.44.51,1.09,1.12,2.11,1.97,2.97.35.35.65.77,1,1.12.39.39.79.78,1.22,1.12.72.56,1.47,1.07,2.21,1.61-.36.55-1.13,1.17-1.81,1.45-.03-.04-.07-.07-.09-.12-.53-1.1-1.42-1.85-2.4-2.5-.42-.28-.86-.51-1.29-.76-.42-.24-.87-.38-1.34-.48-.26-.06-.45-.1-.66-.15-.44-.1-.81-.2-1.03-.26-.21-.06-.39-.1-.51-.14.3-1.38.21-2.51.11-3.22-.07-.49-.53-3.2-2.83-5.26-.42-.38-.81-.65-1.08-.82-.04-.2.01-.39.13-.57.46-.72.98-1.38,1.59-1.98.13-.13.29-.25.48-.4.06.14.11.24.15.34.25.58.49,1.16.74,1.74.05.1.13.19.21.27-.18-.43-.36-.85-.53-1.28-.12-.31-.22-.63-.32-.94-.05-.17.02-.29.17-.38.38-.23.76-.42,1.22-.42.49,0,.98-.07,1.46,0,1.03.15,2.08.3,3.02.75,1.3.63,2.57,1.37,3.54,2.49.74.85,1.35,1.78,1.75,2.84.11.3.27.58.39.88.42,1.01.59,2.07.72,3.15.03.23.05.46.09.69.02.11.05.22.13.32-.05-.74-.05-1.49-.17-2.22-.1-.6-.32-1.19-.54-1.77-.25-.66-.55-1.3-.84-1.95-.09-.21-.22-.41-.35-.6-.61-.85-1.2-1.7-2.04-2.35-.79-.62-1.65-1.14-2.54-1.59-.58-.3-1.24-.43-1.88-.55-.47-.09-.93-.2-1.4-.27-.26-.04-.53,0-.81-.07.06-.03.12-.07.19-.11,0,0,.03-.01.06-.03,2.12-.88,4.38-.53,4.38-.53.36.05.88.14,1.52.39.46.18.77.38,1.4.77ZM70.4,61.52c-.31-.49-.59-1-.92-1.47-.42-.59-.94-1.1-1.52-1.52-.39-.28-.84-.5-1.23-.79-.46-.35-.88-.74-1.32-1.12-.13-.11-.24-.23-.37-.33-.32-.24-.47-.56-.55-.94-.13-.6-.27-1.2-.38-1.8-.02-.11.03-.24.08-.35.46-.98.93-1.95,1.38-2.93.26-.55.46-1.12.74-1.65.29-.56.63-1.08.99-1.68.36.9.71,1.75,1.04,2.56-.04.07-.04.11-.06.12-.69.31-.96.92-1.04,1.61-.15,1.47.18,2.84.98,4.08.5.77,1.13,1.42,1.78,2.07.35.35.72.65,1.11.94.66.5,1.28,1.04,1.68,1.82.44.86,1,1.67,1.53,2.49.17.27.41.5.62.74.12.14.26.14.4.03.22-.18.4-.37.51-.65.29-.72.42-1.47.49-2.24.06-.7.09-1.05.07-1.53-.05-1.95-.73-3.46-1.66-5.53-.13-.29-.33-.71-.62-1.21-.22-.38-.46-.74-.75-1.14-.46-.65-1.06-1.19-1.83-1.49-.39-.15-.78-.3-1.21-.37-.68-.11-1.24-.47-1.6-1.12-.46-.81-.66-1.69-.75-2.6-.01-.13.05-.28.12-.4.48-.9.96-1.79,1.44-2.68.27-.5.54-.99.82-1.48.32-.57.65-1.14.97-1.71.29-.52.42-.79.49-.96.38-.91.39-1.52.96-2.2.07-.08.13-.14.16-.18,1.31,3.24,1.81,5.25,2.02,6.46.03.15.14.66.21,1.21.16,1.33.32,2.65.65,3.95.31,1.23.58,2.48.81,3.73.15.79.2,1.6.26,2.41.07.93.12,1.87.16,2.81.04.81.06,1.62.09,2.42.04,1.17.05,2.34.14,3.5.03.4.03.79.01,1.18,0,.09-.01.18-.04.26-.03.09-.08.16-.16.19-.08.03-.15.01-.17,0-.27-.06-1.13.1-1.48.16,0,0-.59.08-1.37.36-.13.05-.27.1-.4.14-.32.11-.6.25-.88.46-.48.37-1.02.68-1.53,1.02-.04-.02-.07-.04-.11-.06.03-.33.06-.66.09-.99,0-.08.02-.15.02-.23-.03-1.19-.22-2.35-.88-3.38ZM70.82,66.25s.02.1,0,.2c-.04.16-.16.26-.21.3-.18.15-.56.56-1.11,1.17-.98-2.95-1.86-4.76-2.5-5.9-.5-.88-.94-1.79-1.44-2.67-.24-.43-.65-1.13-1.02-2.13-.11-.29-.22-.61-.31-.93-.34-1.16-.41-2.03-.36-2.04.06-.01.17,1.26,1.09,2.4.28.35.58.59.85.84.52.47,1.12.82,1.69,1.2.47.32.89.74,1.29,1.14.72.72,1.19,1.61,1.6,2.53.22.49.48,1.28.47,2.13,0,.41-.1,1.43-.03,1.75ZM74.27,57.92c-.13-.25-.33-.64-.56-1.11-.27-.57-.36-.78-.54-1.15-.31-.63-.64-1.18-.85-1.49-.97-1.46-1.61-1.23-2.47-2.6-.19-.31-.63-.9-.83-1.51-.08-.27-.24-.51-.36-.77-.09-.2-.18-.4-.26-.6-.18-.46-.36-.93-.54-1.4-.1-.25-.12-.36-.05-.79.03.08.05.15.07.21.03.08.04.15.04.16.33,1.33.95,1.96.95,1.96.52.53,1.27.72,1.93.9.13.03.48.08.86.32.18.11.38.21.55.35.62.53,1.11,1.16,1.55,1.85.25.39.53.92.94,1.85.11.24,1.46,3.37,1.38,5.2,0,.04,0,.16-.02.3-.07.62-.11,1.25-.2,1.87-.06.37-.2.73-.31,1.1-.03,0-.06,0-.1,0-.01-.14-.03-.28-.04-.42-.03-.34-.05-.51-.08-.95-.02-.28-.25-1.11-1.05-3.28ZM75.27,62.8c0,.07-.02.14-.05.31-.29-.33-.55-.57-.74-.86-.51-.81-.99-1.65-1.47-2.48-.22-.38-.45-.74-.82-1.01-.44-.33-.89-.65-1.3-1.02-.48-.43-.93-.89-1.37-1.36-.32-.35-.62-.72-.89-1.11-.65-.92-.98-1.94-1-3.06,0-.08-.01-.3,0-.58.03-.66.04-1,.24-1.3.08-.12.29-.38.78-.52.09.19.23.47.41.78.6,1.06.99,1.76,1.69,2.36.24.2.41.31.75.64.42.4.66.74.72.82.17.24.24.4.57.99.67,1.19,1.07,2.03,1.23,2.38.14.3.57,1.21.94,2.44.25.84.34,1.71.3,2.59ZM77.24,54.69c-.05-.59-.03-1.18-.07-1.77-.12-1.46-.43-2.89-.77-4.32-.49-2.06-.59-2.51-.76-3.69-.03-.19-.33-2.35-.18-2.38.15-.03.78,2.08,1.09,4.21.07.46.06.49.22,1.68.12.91.24,1.83.39,2.74.2,1.18.3,2.37.35,3.56.03.78.04,1.56.09,2.34.03.56.13,1.12.16,1.69.03.56.04,1.13.03,1.69,0,.22-.09.44-.14.66-.05,0-.09,0-.14-.01,0-.14,0-.27,0-.41-.01-2-.12-4-.28-6ZM78.81,54.92c-.31.28-.61.52-.9.74.01-.16,0-.26.03-.34.14-.47.21-.69.52-1.69,0,0,0,0,0,0,.12-.38.3-.8.58-1.27.13.2.26.42.39.69.16.33.27.64.35.91-.29.31-.61.63-.97.95ZM79.83,54.34c.31.71.63,1.42.96,2.16-1.26.74-2.05,1.85-2.65,3.19-.03-.12-.05-.17-.06-.22-.05-.7-.1-1.41-.15-2.11-.01-.22,0-.44-.03-.65-.08-.44.11-.74.44-.99.31-.24.51-.41.64-.5.23-.17.54-.44.85-.88ZM78.43,53.39c-.01.05-.07.3-.16.62-.02.07-.04.15-.07.24-.18.54-.38.99-.42.98-.03,0,.04-.23.03-.62,0-.17-.03-.29-.03-.4-.05-1.31-.3-2.59-.48-3.89-.09-.66-.21-1.62-.31-2.81.23.74.51,1.54.86,2.37.35.85.72,1.62,1.09,2.31-.34.63-.46.99-.51,1.2ZM79.37,58.25c.44-.63,1.03-1.07,1.62-1.51.02-.02.07-.01.14-.02-.29.76-.49,1.51-.49,2.3,0,.27.02.48.05.84.11,1.26.34,2.3.38,2.29.02,0-.02-.3-.12-1.45-.05-.59-.08-.88-.08-1.04-.07-2.23.64-3.13.79-3.29.05-.05.17-.18.33-.17.09,0,.18.07.28.19.47.61.97,1.2,1.4,1.84.34.51.62,1.07.74,1.68.14.73.39,1.41.74,2.06.02.04.03.1.05.16-.18.15-.35.3-.52.45-.68.6-1.2,1.33-1.7,2.08-.04.06-.08.13-.12.2-.2.29-.25.31-.57.15-.93-.49-1.94-.74-2.97-.92-.41-.07-.84-.09-1.26-.11-.29-.02-.32-.03-.32-.29,0-1.98.53-3.8,1.66-5.44ZM79.28,45.34c.21-.46.57-.82.92-1.18.41-.43.76-.9.95-1.47.06-.19.08-.4.1-.6.04-.53.06-1.07.1-1.69.17.22.12.39.1.55-.05.68-.16,1.35-.09,2.03.02.18-.04.38-.09.57-.19.72-.39,1.44-.57,2.16-.07.27-.11.55-.16.83-.13.76-.24,1.52-.37,2.28-.05.33-.13.65-.27.98-.11-.34-.23-.69-.34-1.03-.12-.35-.25-.7-.34-1.06-.11-.49-.24-.98-.25-1.47,0-.3.18-.6.32-.89ZM78.88,45.25c-.21.43-.27.83-.3,1.07-.62-1.85-1.07-3.34-1.38-4.39-.21-.73-.27-.93-.29-1.04-.29-1.29-.6-2.57-.71-3.9-.04-.44-.18-.88-.28-1.32-.04-.2-.08-.4-.12-.59.03-.02.07-.04.1-.06.15.14.3.26.44.41.69.72,1.36,1.47,2.08,2.17.55.54,1.14,1.04,1.74,1.52.51.41.79.89.76,1.55-.03.6,0,1.22-.14,1.8-.12.52-.4.83-.67,1.19-.6.81-.92.95-1.23,1.58ZM80.17,49.3c.32-1.24.33-1.61.48-2.88.07-.55.28-1.09.42-1.64.11-.42.24-.84.35-1.26.01-.05.04-.09.09-.18.18.31.32.59.48.86.53.85.6,1.79.54,2.75-.04.64-.14,1.28-.27,1.9-.12.53-.29,1.07-.52,1.56-.26.57-.62,1.09-.94,1.63-.01.02-.04.02-.09.04-.16-.24-.34-.57-.49-.97-.15-.41-.23-.78-.27-1.07.05-.16.13-.42.21-.74ZM81.09,52.27c.49-1.01.81-1.15,1.04-1.79.32-.88.65-1.76.71-2.71.01-.23.06-.46.09-.69.08-.67,0-1.34-.12-1.99-.07-.37-.29-.71-.45-1.06-.17-.36-.36-.71-.54-1.07-.01-.02-.02-.05-.03-.07-.06-.64-.05-1.27.04-1.99.32.35.59.63.85.93.46.54.93,1.07,1.37,1.62.57.71,1.11,1.45,1.67,2.17.04.05.07.11.12.15.55.52.42,1.15.25,1.76-.1.36-.32.7-.5,1.04-.22.42-.57.72-.96.98-.71.45-1.24,1.07-1.64,1.81-.13.24-.23.49-.38.72-.23.36-.23.78-.31,1.18,0,.04,0,.08-.01.12-.18.75-.25,1.51-.34,2.28-.11-.25-.22-.49-.31-.71-.07-.17-.13-.3-.13-.31-.21-.48-.48-1.41-.62-1.92.05-.11.12-.26.21-.45ZM86.02,48.94c-.09.28-.16.56-.24.85-.05.17-.05.37-.13.52-.32.62-.42,1.29-.53,1.96-.09.5-.19,1.01-.27,1.51-.05.3-.06.61-.07.92-.01.19-.09.29-.29.34-.67.17-1.33.36-2.06.57-.03-.13-.08-.27-.08-.4,0-.31.02-.62.07-.92.07-.43.17-.85.26-1.28.15-.7.46-1.32.88-1.91.28-.39.59-.74.96-1.05.18-.16.4-.28.59-.43.5-.37.78-.91,1.05-1.44.05-.1.1-.2.21-.27-.11.35-.23.69-.34,1.04ZM86.04,49.93c.17.79.49,1.53.8,2.28.28.66.32,1.37.29,2.08,0,.17-.1.33-.15.49-.71.04-1.4.07-2.12.11.03-.35.02-.71.08-1.06.14-.87.28-1.75.48-2.61.11-.45.35-.87.53-1.31.03,0,.06,0,.08.01ZM93.02,58.07c.39.82.76,1.66.75,2.61,0,.06,0,.13,0,.22-.94-.12-1.88-.25-2.82-.37-.11-.27-.27-.61-.51-.98-.08-.13-.39-.58-.89-1.11-.64-.68-1.41-1.19-2.29-1.51-.2-.07-.4-.16-.64-.04.34.13.68.24,1,.4.35.17.69.35,1,.57.3.21.58.47.84.73.27.28.52.57.73.89.03.05.09.13.15.24.2.35.31.66.37.88-1.12.05-2.53.24-4.05.8-.49.18-.94.38-1.35.58-.2-.32-.32-.59-.4-.77-.32-.75-.31-1.2-.72-2.19-.04-.1-.08-.18-.13-.29-.2-.5-.54-.9-.84-1.33-.25-.35-.55-.68-.82-1.02-.06-.08-.1-.17-.17-.28.26-.12.48-.25.72-.33,1.12-.36,2.24-.67,3.43-.64.94.03,1.86.18,2.79.34.9.16,1.66.56,2.41,1.07.61.41,1.12.89,1.42,1.53ZM90.98,55.67c-.15-.06-.31-.09-.45-.17-.32-.19-.66-.27-1.02-.33-.61-.1-1.21-.2-1.82-.3-.06-.01-.12-.04-.21-.06,0-.11,0-.23,0-.34.06-1.03-.16-2-.57-2.96-.27-.63-.43-1.31-.63-1.97-.03-.11-.04-.24,0-.34.15-.54.32-1.08.49-1.62.02-.07.07-.13.12-.22.11.1.27.26.44.47.33.39.6.8.84,1.28.36.71,1.46,3.15,2.86,6.51l-.06.06ZM74.96,32.7c.09-.03.3.34.37.47.58,1.02,1.62,1.9,2.47,2.62.38.32.44.36,1.43,1.15.21.17.46.37.77.65.49.43.95.91,1.37,1.4.65.76,1.25,1.57,1.9,2.32.84.96,1.46,2.08,2.22,3.09.63.84.93,1.22,1.26,1.68.03.05.21.3.42.61.75,1.13,1.51,2.28,2.21,3.72.55,1.12.84,1.95,1.28,3.21.11.31.16.47.15.48-.06.02-.93-1.91-1.68-3.57,0,0-.96-2.24-2.18-3.87-.01-.02-.05-.07-.11-.14-.47-.64-.94-1.28-1.42-1.91-.76-1.02-1.56-2-2.41-2.94-.6-.67-1.16-1.37-1.79-2.01-.61-.62-1.29-1.17-1.93-1.77-.66-.62-1.32-1.26-1.97-1.9-.35-.35-.68-.71-1.03-1.06-.26-.27-.26-.25-.4-.4-.77-.8-.93-1.12-.98-1.41-.03-.17-.05-.42.02-.44ZM71.97,23.1c.19.15.38.3.57.46.28.25.56.49.82.75.12.12.23.28.31.44.17.38.31.78.47,1.17-.03.02-.06.03-.09.05-.29-.54-.69-.94-1.24-1.22-.31-.16-.52-.45-.65-.78-.13-.31-.29-.59-.48-.97.16.05.25.06.31.1ZM72.05,25.98c-.11-.53-.16-1.06-.18-1.62.06.07.12.15.19.21.27.25.5.54.87.69.17.07.31.23.42.38.18.25.34.52.49.78.22.37.37.76.42,1.19.11.83.26,1.65.36,2.48.08.62.12,1.25.18,1.88.02.18-.03.33-.18.43-.2.14-.22.33-.17.55.08.34.2.67.44.93.27.31.41.67.48,1.07.13.64.29,1.28.41,1.92.11.58.14,1.01.14,1.03.17,1.53.94,4.02,1.19,4.8,1.06,3.37,2.18,6.46,2.62,7.76.28.81.44,1.27.57,1.63.05.13.1.26.14.4.07.21.13.42.2.62.24.73.47,1.46.72,2.2.07.2.15.4.24.65-.17.11-.33.22-.52.35-.12-.28-.23-.54-.34-.79-.28-.62-.56-1.24-.83-1.86-.17-.37-.34-.75-.51-1.12-.35-.76-.58-1.27-.65-1.44-.71-1.55-1.09-2.39-1.46-3.52-.14-.42-.32-.33-.87-3.11-.04-.19-.1-.37-.14-.56-.12-.53-.13-.73-.19-.94-.08-.28-.27-.66-.79-1.06-.57-1.81-1.02-3.17-1.34-4.08-.42-1.21-.79-2.23-.62-2.97.03-.13.1-.77.22-1.64,0-.03,0-.08,0-.15,0-.24,0-1.67-.48-1.8-.07-.02-.2-.02-.4.13-.08-.48-.19-.94-.24-1.41-.08-.73-.16-1.46-.17-2.19-.01-.62-.1-1.22-.22-1.83ZM38.17,83.48c-.05-.11-.13-.2-.12-.28.04-.28.08-.56.18-.82.11-.27.28-.52.42-.78.05-.09.08-.19.12-.28.07-.15.14-.29.23-.43.17-.28.35-.56.53-.84.22-.33.41-.55.48-.65.67-.86.7-1.19,1.49-2.29.4-.56.7-.92.81-1.02.31-.29.6-.59.89-.9.33-.35.73-.6,1.13-.86.6-.4,1.27-.67,1.95-.9.07-.02.15-.05.21-.09.81-.44,1.71-.62,2.59-.85.89-.23,1.81-.38,2.71-.57.07-.01.14,0,.24.07-.32.24-.64.49-.97.72-.74.52-1.4,1.12-2.01,1.79-.73.8-1.46,1.59-2.2,2.37-.34.36-.71.7-1.06,1.06-.68.69-1.47,1.24-2.26,1.79-.71.49-1.4,1-2.09,1.5-.27.19-.52.4-.78.6,0,0,0,0,0,0-.83.55-1.66,1.11-2.48,1.66ZM53.45,71.31c-.16.22-.71.53-1.01.77-.14.11-.27.24-.38.37-.27.33-.55.65-.77,1.01-.31.51-.71.94-1.07,1.4-.26.33-.42.73-.62,1.1-.51.98-1.05,1.94-1.75,2.81-.61.75-1.31,1.41-1.98,2.1-.08.08-.17.16-.25.24-.39.44-.85.75-1.37,1.02-.48.25-.97.37-1.47.52-.55.16-1.12.15-1.66.29-.49.12-1.24.34-2.07.58-.3.09-.65.19-.68.13-.03-.06.22-.23.36-.32.64-.43,1.93-1.32,2.63-1.86,1.14-.88.96-.67,2.34-1.7.63-.47,1.27-.92,1.84-1.46.94-.88,1.82-1.81,2.72-2.73.57-.59,1.1-1.22,1.69-1.79.36-.36.78-.66,1.19-.98.29-.23.59-.45.89-.67.49-.35.97-.71,1.46-1.06,0,0,.02.01.03.03.03.06-.04.15-.06.18ZM59.78,63.96c.28.57.77.95,1.24,1.35.86.73,1.75,1.42,2.58,2.19.88.81,1.49,1.83,1.99,2.91.24.51.44,1.04.62,1.57.18.55.22,1.14.19,1.71-.06.95.09,1.86.41,2.75.23.62.07,1.23-.13,1.94-.26-.39-.42-.73-.6-1.05-.31-.75-.59-1.51-.93-2.24-.45-.96-.95-1.9-1.56-2.78-.8-1.15-1.51-2.35-2.1-3.62-.3-.64-.51-1.31-.78-1.97-.31-.76-.63-1.51-.95-2.27-.12-.28-.22-.56-.27-.88.1.13.22.25.29.39ZM59.45,64.87c.04-.12.06-.24.1-.43.09.13.16.21.19.29.35.86.67,1.72,1.03,2.57.31.74.65,1.48,1,2.21.18.38.4.75.61,1.11.21.36.41.71.64,1.05.72,1.05,1.34,2.16,1.93,3.28.22.42.33.89.52,1.33.16.37.28.77.61,1.05.09.32.19.63.28.95.03.12.05.24.08.41-.39-.14-.63-.36-.9-.56-.46-.33-.91-.66-1.37-.99-.28-.2-.56-.41-.83-.63-.86-.67-1.69-1.37-2.46-2.15-.62-.63-1.14-1.33-1.49-2.13-.16-.36-.26-.75-.35-1.14-.24-1.06-.4-2.13-.23-3.21.16-1.01.27-2.04.63-3.01ZM63.05,54.5c-.42.74-.81,1.49-1.22,2.23-.37.65-.76,1.28-1.14,1.92-.1.17-.2.33-.29.5-.7,1.21-1.41,2.42-2.11,3.63-.34.59-.68,1.18-.99,1.78-.34.66-.68,1.33-.98,2.01-.5,1.14-.98,2.29-1.45,3.44-.2.5-.29.9-.36,1.14-.28.93-.89,3.01-1.21,5.72-.2,1.73-.27,2.93-.35,5.07-.05,1.27-.11,3.07-.04,5.23.14,4.32.72,7.29.66,7.3-.05,0-.46-2.15-.7-4.59-.08-.82-.2-1.97-.22-3.48-.01-.82.02-.52.1-3.52.01-.55.07-2.75.2-4.3.02-.28.06-.69.13-1.2.11-.77.24-1.21.61-4.17,0,0,.34-2.64,1.17-4.21,0-.02.08-.15.18-.34.16-.31.39-.76.66-1.35.19-.41.34-.83.52-1.24.35-.79.72-1.56,1.05-2.35.38-.92.93-1.75,1.38-2.62.34-.65.77-1.24,1.14-1.87.3-.51.56-1.04.86-1.55.37-.62.65-1.02.84-1.29,1.02-1.5,1.76-2.98,2.47-4.42.58-1.17.4-.9.91-1.95.7-1.44,1.42-2.88,2.13-4.32.08-.16.12-.34.2-.5.3-.58.62-1.15.92-1.73.13-.24.23-.49.36-.73.19-.36.39-.72.58-1.08.28-.55.57-1.09.84-1.64.26-.54.51-1.09.76-1.65.09-.2.14-.41.21-.61.03-.08.07-.16.1-.24.07-.16.16-.32.22-.49.17-.54.96-3.02,1.13-3.6.4-1.35.51-1.56.61-1.56.18.01.27.69.33,1.31-.07.57-.18,1.14-.35,1.72,0,.02-.01.05-.02.07,0,.17-.03.33-.11.49-.25.48-.5.96-.72,1.45-.15.32-.24.67-.38,1-.11.26-.25.5-.39.75-.64,1.19-1.28,2.37-1.93,3.55-.15.27-.32.53-.46.8-.35.64-.7,1.28-1.03,1.93-.24.48-.45.98-.69,1.46-.28.55-.58,1.09-.87,1.63-.26.49-.55.96-.78,1.46-.19.41-.32.86-.47,1.29-.04.12-.1.24-.16.35-.55,1.15-1.17,2.25-1.8,3.36ZM66.27,66.29c-.91-.94-1.53-2.05-2.13-3.18-.62-1.16-.86-2.41-.89-3.71-.01-.68.22-1.31.49-1.93.12-.27.21-.54.33-.86.05.09.09.14.12.21.22.53.43,1.07.68,1.59.13.26.18.49,1,1.91,0,0,1.67,2.92,3.46,7.38.02.05.06.16.04.28-.01.07-.04.13-.09.19-.21.29-.42.58-.62.87-.04,0-.07,0-.08-.02-.76-.92-1.46-1.89-2.29-2.74ZM66.75,85.58c-.08-.16.09-.5.16-.68.3-.72.35-.97.19-2.42-.08-.69.1-1.36.34-2,.26-.68.57-1.35.88-2.01.14-.3.32-.58.62-.79.44.66,1.06,1.45,1.91,2.23-.86,1.11-1.73,2.28-2.6,3.5-.52.73-1.02,1.45-1.5,2.17ZM71.95,82.84c-.19.26-.41.49-.59.75-.21.3-.45.55-.79.71-.52.25-1.01.54-1.53.8-.27.13-.46.19-.72.26-.53.15-1,.18-1.32.18.66-1.18,1.3-2.03,1.78-2.59.23-.28.43-.55,1.32-1.67.38-.49.7-.89.91-1.16l1.93,1.37c-.43.59-.76,1.05-.98,1.34ZM65.95,99.34c-.08-.03-.17-.17-.16-.27.02-.38.04-.77.12-1.14.29-1.28.61-2.55.91-3.82.11-.46.2-.93.32-1.39.31-1.2.83-2.32,1.41-3.41.08-.15.16-.29.23-.44.66-1.39,1.76-2.21,3.24-2.53.41-.09.82-.2,1.23-.29.17-.04.35-.03.59-.05-.39.44-.75.81-1.05,1.21-.38.5-.69,1.05-.95,1.62-.44.95-.68,1.97-1.05,2.94-.49,1.3-1.03,2.57-1.83,3.72-.52.75-1.01,1.51-1.54,2.26-.2.28-.45.52-.68.79-.18.22-.35.45-.54.66-.07.08-.2.17-.27.14ZM74.88,85.83c-.24.29-.38.45-.54.73-.24.45-.36.94-.39,1.49-.03.54-.03,1.07-.03,1.61,0,.47-.15.93-.23,1.4-.21,1.21-.69,2.31-1.27,3.38-.41.75-.8,1.54-1.49,2.09-.4.32-.84.59-1.26.88-.51.35-1.02.69-1.54,1.02-.47.3-.94.58-1.42.85-.1.06-.23.07-.4.12.07-.33.25-.51.42-.68.45-.46.84-.97,1.2-1.51.38-.58.8-1.13,1.18-1.71.76-1.15,1.44-2.34,1.78-3.7.05-.2.14-.39.21-.58.14-.4.28-.8.42-1.19.08-.23.17-.45.27-.67.22-.48.44-.96.7-1.41.24-.41.52-.79.81-1.17.48-.62.67-.37,1.22-.93.49-.5.56-.83,1.17-1.31.19-.15.37-.26.48-.33-.54.71-.99,1.25-1.3,1.62ZM76.58,123.3c-.11-.1-.18-.16-.24-.23-.26-.29-.49-.59-.76-.87-.61-.61-1.02-1.34-1.29-2.16-.1-.32-.22-.63-.36-.94-.41-.9-.4-1.85-.34-2.8.02-.28.06-.56.07-.84.03-1.06.19-2.1.6-3.08.29-.68.63-1.34,1.01-2,0,.35.03.7,0,1.05-.08.79.03,1.57.16,2.34.15.92.39,1.83.57,2.75.16.82.31,1.64.44,2.46.04.25.07.47.08.58.19,1.51.11,3.05.06,3.74ZM75.89,110.85c.14.6.28,1.18.59,1.9.34.8.71,1.59,1.06,2.39.06.14.11.29.14.44.2.96.42,1.91.39,2.89-.02.6,0,1.51-.29,2.64-.25,1-.74,2.23-.97,2.19-.22-.05.07-1.24-.12-3.29-.08-.86-.14-.9-.54-3.07-.41-2.24-.62-3.36-.71-4.69-.13-1.86-.02-3.43.08-3.43.07,0,.07.77.37,2.02ZM75.72,95.32c0,.36-.04.72-.06,1.07-.03.89-.05,1.77-.08,2.66-.04,1.22-.08,2.44-.12,3.66,0,.27,0,.53-.04.81-.01-.09-.03-.19-.04-.28-.03-.9-.07-1.8-.08-2.7,0-.86.02-1.72.03-2.58,0-.02,0-.03,0-.04,0-.26,0-1.02.09-2.07.02-.31.06-.7.11-1.16.24.22.18.44.18.63ZM76.48,84.86c-.06,1.59-.21,3.17-.34,4.76-.11,1.28-.17,2.56-.26,3.84-.02.25-.05.5-.08.75-.04,0-.09,0-.13,0-.02-.13-.07-.26-.06-.39.03-.43.1-.87.14-1.3.11-1.33.23-2.66.33-3.99.06-.86.09-1.72.15-2.57.04-.57.11-1.15.23-1.72,0,.21.03.41.02.62ZM76.4,80.34c-.1-.51-.22-1.24-.32-2.14-.16-1.55-.11-2.5-.13-2.5-.03,0-.28,1.85.14,4.09.17.92.42,1.68.63,2.25-.19.03-.21-.13-.25-.24-.11-.28-.35-.54-.56-1.56-.46-2.19-.43-5.39-.43-5.39,0-.92.04-1.67.07-2.35.04-.84.06-1.33.13-2,.09-.84.2-1.52.29-2-.19.58-.37,1.17-.42,1.79-.07.92-.19,1.84-.22,2.76-.02.76-.05,1.76.02,3.16.09,1.9.18,3.39.76,5.23.09.28.17.5.22.65-1.47-.1-2.51-.56-3.1-.88-.59-.32-1.22-.79-2.35-1.87-.49-.47-.93-1-1.38-1.51-.28-.31-.42-.7-.57-1.09-.14-.38-.58-1.43-.72-2.91-.05-.54-.12-1.44.1-2.56.13-.62.32-1.08.37-1.25.2-.73.6-1.21.82-1.52.4-.58.78-.96,1.04-1.21.5-.49.93-.81,1.34-1.1.14-.1.65-.47,1.4-.89.63-.36,1.31-.6,2.02-.74.08-.02.17,0,.33.01-.14.12-.22.19-.31.26-1.03.77-1.89,1.7-2.53,2.82-.08.14-.41.62-.75,1.3-.33.64-.62,1.22-.84,2.05-.11.41-.34,1.42-.24,2.72.01.17.03.32.04.42.03,0,.06,0,.09,0,0-.11.02-.22.02-.33.02-.33.02-.66.04-.99,0,0,0-.15.02-.34.08-1.02.55-2.3.55-2.3.23-.63.66-1.64,1.45-2.84.49-.74,1.4-1.86,3.11-2.87.14-.02.29-.05.43-.07-1.23,1.09-2.13,1.97-2.52,2.42-.29.33-.47.6-.51.66-.14.24-.27.48-.39.73.02.01.04.03.06.04.07-.1.14-.2.2-.3.3-.56.68-1.06,1.14-1.49.43-.41.85-.82,1.28-1.23.04-.04.21-.18.43-.36.21-.17.39-.31.52-.41.29.01.5,0,.65-.02.05,0,.11-.02.2-.01.15,0,.31.03.46.02,1.17-.06,2.27.25,3.34.68,1.51.6,2.47,1.52,2.79,1.83,1.6,1.61,2.1,3.45,2.27,4.29.28,1.44.13,2.66-.03,3.44-.49-.01-.9.01-1.21.04-.86.09-1.52.27-1.87.39-.14.05-.29.09-.46.15.12-1,.07-1.85-.02-2.51-.03-.21-.1-.68-.26-1.25-.16-.59-.15-.89-.8-2.37-.11-.25-.08-.24-.12-.36-.42-1.15-1.34-1.95-1.37-1.91-.02.02.3.34.72.98,1.08,1.66,1.36,3.31,1.55,4.12.29,1.26.21,2.36.2,2.79,0,.27-.02.5-.04.66-.06,0-.12.01-.19.02.03-.88-.04-1.61-.11-2.13-.07-.48-.13-.95-.33-1.54-.29-.84-.69-1.49-.73-1.47-.04.02.35.71.69,1.89.24.85.32,1.32.34,1.7.03.55-.03,1.06-.04,1.13-.02.17-.04.31-.06.42-.49.22-1.15.57-1.81,1.16-.92.83-1.39,1.7-1.75,2.39-.18.34-.73,1.53-.85,2.09-.06.28-.15.54-.22.82-.03.13-.12.18-.25.2-.2.03-.38,0-.51-.1-.14-.1-.19-.24-.22-.3-.41-1.03-.45-1.35-.45-1.35ZM76.95,82.62c.1-.18.31-.14.48-.14.06,0,.12.02.15.02v1.54s-.06.02-.09.04c-.09-.11-.19-.22-.27-.34-.1-.15-.16-.32-.26-.47-.15-.22-.13-.45-.02-.65ZM77.05,84.23c.69.38.76.78.71,1.8-.17-.62-.58-1.14-.71-1.8ZM83.81,96.35c-.59-.33-1.18-.68-1.77-1.01-.17-.09-.35-.18-.53-.23-.89-.22-1.56-.77-2.16-1.42-.55-.59-.93-1.29-1.19-2.05-.08-.23-.11-.47-.15-.71-.09-.47-.18-.93-.25-1.4-.05-.35-.11-.71-.1-1.07,0-.41.07-.82.12-1.23.01-.12.01-.28.19-.29.15-.01.18.12.22.23.16.41.36.8.48,1.22.16.6.86,1.74,1.98,2.75.73,1,1.35,1.83,1.89,2.54.33.44.89,1.15,1.46,2.23.11.21.2.4.26.52-.2.1-.31-.01-.43-.08ZM84.67,95.54c0,.21-.05.53-.21.91-.06-.08-.11-.15-.15-.22-.41-.77-.73-1.35-.78-1.45-.17-.4-.77-1.27-2.54-3.33.47.38,1,.74,1.58,1.02.18.09.33.15.42.19.36.16.73.31,1.1.45.17.07.3.17.28.37-.04.34.32,1.24.29,2.05ZM87.48,100.76s-.03-.07-.04-.1c-.12-.66-.25-1.31-.36-1.97-.04-.25-.06-.51-.03-.77.1-.9.2-1.81.35-2.71.07-.41.25-.81.4-1.2.06-.17.18-.28.4-.3.3-.03.61-.09.9-.18.43-.12.85-.28,1.28-.42.1-.03.2-.06.29-.11.58-.37,1.26-.59,1.79-1.05.03-.02.07-.03.17-.07-.35.56-.67,1.08-.98,1.59,0,0,0,0,0,0-.28.34-.59.67-.84,1.03-.65.93-1.3,1.85-1.82,2.86-.33.63-.56,1.29-.77,1.96-.16.49-.43.95-.73,1.45ZM94.06,90.62c-.11.64-.24,1.28-.34,1.93-.04.28,0,.56-.05.84-.12.78-.4,1.51-.74,2.22-.08.16-.17.32-.24.49-.3.72-.79,1.28-1.42,1.74-.26.19-.49.41-.75.6-.46.34-.93.67-1.39,1.02-.6.45-.73.57-.83.68-.39.41-.57.77-.6.75-.04-.02.31-.61.63-1.51.14-.39.18-.59.26-.83.28-.86.74-1.64,1.23-2.39.57-.86,1.15-1.66,1.54-2.17.1-.13.3-.39.56-.76.09-.13.23-.33.65-.95.24-.36.47-.74.72-1.09.24-.33.51-.63.83-1-.02.2-.03.32-.05.43ZM94.79,87.55c-.29.98-.65,1.68-.78,1.93-.36.66-.82,1.53-1.78,2.31-.56.46-1.07.69-2.07,1.14-.48.21-.98.41-1.62.37-.09,0-.17-.01-.22-.02,1.64-1.74,2.71-3.67,2.77-6.05-.03,0-.06-.02-.09-.03-.04.26-.07.51-.11.77-.04.28-.07.56-.15.83-.24.84-.5,1.68-.98,2.42-.51.8-1.13,1.49-1.96,1.98-.07.04-.14.08-.21.08-.45.03-.89.04-1.39.07.02-.33.04-.75.05-1.25,0-.13.05-.93-.02-1.72-.07-.84-.19-1.69-.26-2.53-.11-1.22-.22-2.43-.28-3.65-.1-2.05-.07-3.78-.07-3.78,0-.57.02-1.35,0-1.35-.03,0-.09.76-.1.79-.08,1.03,0,1.99.03,3.78,0,.51.06,1.02.1,1.54.08,1.04.16,2.07.25,3.11.09.96.22,1.91.27,2.88.03.64-.05,1.28-.08,1.92,0,.08-.06.16-.11.29-.37-.09-.65-.21-.84-.3-.7-.34-1.19-.79-1.65-1.31-.16-.18-.3-.37-.48-.53.24.6.77.96,1.14,1.48-.11-.04-.28-.1-.47-.18-.85-.35-3.02-1.26-4.35-3.41-.64-1.04-.87-2.03-1.04-2.73-.09-.39-.18-1.03-.35-2.31-.02-.14-.04-.41-.04-.78,0-.05,0-.21.03-.42.05-.45.18-1.03.56-2.19.08-.24.22-.63.35-.95.18-.43.84-2.02,2.25-3.17,1.7-1.39,3.68-1.5,4.42-1.51-.98.62-2.17,1.58-2.96,3.07-1.01,1.89-.99,3.87-.98,3.87,0,0,.06-1.17.65-2.68.04-.11.55-1.83,1.78-2.87.28-.24.54-.52.84-.73.33-.22.69-.4,1.06-.54.19-.07.42-.01.68-.01-.02.27-.01.49-.05.7-.31,1.72-.5,3.46-.5,5.21,0,1.22.07,2.44.12,3.66.03.99.08,1.98.11,2.97.02.52.09,1.04.28,1.54-.02-.13-.04-.27-.06-.4-.04-.42-.08-.84-.11-1.26-.04-.74-.08-1.49-.1-2.23-.03-.98-.05-1.95-.07-2.93,0-.12,0-.23,0-.35-.11-1.51.03-3,.22-4.5.08-.64.17-1.27.32-1.9.04-.15.08-.29.12-.43.38-.02.68.07.92.31.67.64,1.31,1.31,1.99,1.93.93.85,1.43,1.93,1.79,3.1.26.85.36,1.73.43,2.62.01.15.04.3.08.45.11-.48,0-.96-.05-1.44-.1-1.06-.39-2.07-.81-3.04-.25-.58-.6-1.11-1.06-1.55-.55-.54-1.12-1.06-1.68-1.59-.16-.16-.31-.33-.47-.5.03-.03.05-.06.06-.05.97.18,1.92.41,2.78.96.66.43,1.32.84,1.89,1.38.42.39.75.85,1.01,1.35.41.8.8,1.61,1.05,2.48.25.9.34,1.63.37,1.99.17,1.88-.2,3.33-.37,3.89ZM95.61,87.32c-.24.3-.38.69-.56,1.04.21-.84.45-1.68.58-2.54.15.51.4.99-.02,1.51ZM96.6,117.43c-.38-.28-.61-.59-.8-.93-.22-.39-.41-.8-.59-1.21-.13-.3-.24-.62-.32-.94-.31-1.24-.26-2.49-.11-3.75.11-.91.52-1.68.92-2.47.4-.79.89-1.52,1.54-2.15.18-.17.29-.42.42-.64.15-.26.28-.54.54-.78.13.28.11.53.04.78-.35,1.34-.71,2.68-1.04,4.03-.32,1.28-.67,2.56-.75,3.89-.05.83-.01,1.67.02,2.5.02.45.1.89.15,1.34,0,.08,0,.17-.02.32ZM98.41,107.66c.1.75.22,1.5.3,2.25.07.68-.15,1.32-.39,1.95-.05.12-.1.24-.13.36-.12.47-.25.94-.36,1.42-.15.63-.31,1.27-.44,1.91-.05.26-.07.54-.07.8,0,.38-.18.68-.35,1.01-.19-.06-.23-.21-.26-.36-.05-.3-.11-.61-.12-.91-.04-.73-.11-1.46-.08-2.19.03-.72.13-1.43.25-2.14.2-1.27.57-2.5.92-3.73.22-.76.45-1.52.68-2.28,0-.03.03-.06.05-.09l.08.02c-.03.47-.07.94-.09,1.41,0,.19,0,.38.02.57ZM98.93,86.91c.49-.1.98-.2,1.47-.28.19-.03.38-.02.58-.02.68,0,1.31.22,1.96.38,1.04.26,2.01.66,2.96,1.16.88.46,1.49,1.17,2.05,1.94.62.86,1.08,1.81,1.49,2.78.23.54.51,1.06.77,1.6.04.09.07.18.1.27-.02.01-.04.03-.06.04-.07-.08-.15-.15-.21-.23-.24-.36-.46-.74-.7-1.1-.29-.42-.6-.82-1-1.16-.58-.49-1.1-1.06-1.79-1.39-.95-.45-1.93-.84-2.9-1.24-.49-.2-1.01-.32-1.48-.54-.88-.41-1.81-.72-2.62-1.29-.29-.21-.6-.38-.9-.58-.06-.04-.1-.11-.18-.21.19-.05.33-.1.47-.13ZM96.75,85.71c.09.1.2.19.28.3.29.44.69.75,1.1,1.07.98.78,2.09,1.35,3.24,1.82.97.4,1.97.74,2.94,1.15.87.37,1.74.77,2.56,1.24.85.49,1.57,1.17,2.13,1.98.32.46.62.93.93,1.39-.02.02-.04.04-.05.07-.54-.26-1.09-.48-1.62-.78-.92-.51-1.87-.62-2.91-.52-.82.08-1.63-.1-2.4-.46-.59-.28-1.18-.56-1.79-.81-1.13-.46-1.89-1.22-2.27-2.4-.15-.47-.25-.94-.39-1.4-.11-.37-.35-.71-.57-1.04-.18-.28-.43-.51-.63-.77-.21-.26-.41-.53-.62-.8.02-.02.04-.03.06-.05ZM96.22,85.48c.05.21.1.42.15.63,0,0,0,0,0,0,0,0,.08.37.08.37.82,5.78,1.11,7.83,1.15,8.11,0,.04.03.18.05.36.02.16.05.37.08.61.1.89.17,1.87.17,1.87.02.29.11,1.37.3,3.54.12,1.38.26,2.89.26,2.89-.48-3.11-.66-4.64-.72-5.41,0-.03.01-.1-.01-.19-.22-.84-.19-1.7-.24-2.56-.02-.32-.04-.49-.05-.66-.15-2.05-.68-5.24-.68-5.24-.3-1.77-.66-3.93-1.09-6.49,0,0,.04,0,.05,0,.02,0,.03,0,.05,0,.04.17.09.34.11.51.08.57.21,1.13.35,1.68ZM95.89,82.37c-.1-.04-.25-.11-.38-.25-.08-.1-.12-.22-.21-.48-.2-.53-.43-1.04-.65-1.56-.03-.08-.08-.16-.11-.25,0,0-.01-.09,0-.18.07-.3.75-.52.94-.58.33-.11.5-.17.76-.19.27-.02.38.01.55-.08.24-.13.34-.38.36-.45.14-.36-.03-.55.04-.91.04-.19.15-.44.48-.72.21.25.41.49.63.72.4.43.66.73,1.05,1.07,0,0,.29.25.62.5.94.69,2.04,1.15,2.55,1.35-.08.12-.21.3-.39.51-.24.27-.8.91-1.72,1.27-.08.03-.31.1-.75.22-.89.24-1.33.36-1.69.39,0,0-.96.08-2.1-.38Z" stroke="#000" stroke-miterlimit="10" stroke-width=".25"/><path d="M55.24,99.77s-.01,0-.02-.01c0,0,0,.01.01.02,0,0,0,0,0,0Z" stroke="#000" stroke-miterlimit="10" stroke-width=".25"/><path d="M80.42,83.42c-.1.51-.13,1.04-.14,1.57-.02.82.08,1.64.26,2.44.07.31.14.63.3.94.03-.04.04-.06.04-.06-.06-.21-.11-.42-.17-.63-.48-1.63-.43-3.28-.08-4.92.2-.95.52-1.88.79-2.81.03-.12.06-.24.09-.36-.29.44-.43.93-.55,1.43-.19.8-.39,1.59-.54,2.4Z" stroke="#000" stroke-miterlimit="10" stroke-width=".25"/><path d="M90.57,79.28c-.07-.16-.16-.3-.38-.4,1.04,1.76,1.36,3.59,1.05,5.55.02-.03.04-.06.05-.1.14-.79.17-1.58.09-2.37-.09-.94-.44-1.81-.82-2.67Z" stroke="#000" stroke-miterlimit="10" stroke-width=".25"/><path d="M81.11,86.67s0,0,0,0c0,0,0,0,0-.01,0,0,0,0,0,0Z" stroke="#000" stroke-miterlimit="10" stroke-width=".25"/><path d="M95.95,67.72s.21.48.44,1.07c1.17,2.98,1.27,5.59,1.34,5.59.05,0,.1-1.52-.43-3.42-.5-1.81-1.33-3.25-1.35-3.24Z" stroke="#000" stroke-miterlimit="10" stroke-width=".25"/><path d="M91.79,72.68c-.37-.55-.76-1.11-1.05-1.7-.51-1.02-.96-2.07-1.44-3.11-.16-.35-.32-.7-.48-1.05-.03-.07-.1-.13-.15-.19-.02.01-.04.02-.06.03.05.11.09.23.14.34.33.72.67,1.44.98,2.17.61,1.42,1.31,2.79,2.26,4.01.18.23.37.44.55.66.04-.09.03-.16,0-.2-.25-.32-.52-.63-.75-.97Z" stroke="#000" stroke-miterlimit="10" stroke-width=".25"/><path d="M55.24,99.78s0,0,0,0c0,0,0,0,0,.01,0,0,0-.01,0-.02Z" stroke="#000" stroke-miterlimit="10" stroke-width=".25"/><path d="M59.08,105.55s0-.02,0-.03h0s.01.02.02.03Z" stroke="#000" stroke-miterlimit="10" stroke-width=".25"/><path d="M59.07,105.53s0,0,0,0c0,0,0,.01,0,.02,0,0,0,0,0,0Z" stroke="#000" stroke-miterlimit="10" stroke-width=".25"/></svg>