<?xml version="1.0" encoding="UTF-8"?>
<svg id="Layer_1" data-name="Layer 1" xmlns="http://www.w3.org/2000/svg" version="1.1" viewBox="0 0 436.9 436.9">
  <defs>
    <style>
      .cls-1 {
        fill: none;
        stroke: #000;
        stroke-miterlimit: 10;
        stroke-width: 5px;
      }
    </style>
  </defs>
  <polygon class="cls-1" points="218.5 10.8 235.4 2.8 250.9 13.4 269 8.2 282.6 21 301.2 18.6 312.7 33.5 331.5 34 340.5 50.5 358.9 54 365.3 71.7 382.9 78 386.4 96.4 402.9 105.5 403.5 124.2 418.3 135.7 415.9 154.3 428.8 168 423.5 186 434.1 201.5 426.1 218.5 434.1 235.4 423.5 250.9 428.8 269 415.9 282.6 418.3 301.2 403.5 312.7 402.9 331.5 386.4 340.5 382.9 358.9 365.3 365.3 358.9 382.9 340.5 386.4 331.5 402.9 312.7 403.5 301.2 418.3 282.6 415.9 269 428.8 250.9 423.5 235.4 434.1 218.5 426.1 201.5 434.1 186 423.5 168 428.8 154.3 415.9 135.7 418.3 124.2 403.5 105.5 402.9 96.4 386.4 78 382.9 71.7 365.3 54 358.9 50.5 340.5 34 331.5 33.5 312.7 18.6 301.2 21 282.6 8.2 269 13.4 250.9 2.8 235.4 10.8 218.5 2.8 201.5 13.4 186 8.2 168 21 154.3 18.6 135.7 33.5 124.2 34 105.5 50.5 96.4 54 78 71.7 71.7 78 54 96.4 50.5 105.5 34 124.2 33.5 135.7 18.6 154.3 21 168 8.2 186 13.4 201.5 2.8 218.5 10.8"/>
</svg>