<?xml version="1.0" encoding="UTF-8"?>
<svg id="Layer_1" xmlns="http://www.w3.org/2000/svg" xmlns:xlink="http://www.w3.org/1999/xlink" version="1.1" viewBox="0 0 250 250">
  <!-- Generator: Adobe Illustrator 29.2.0, SVG Export Plug-In . SVG Version: 2.1.0 Build 108)  -->
  <defs>
    <style>
      .st0 {
        fill: #cd1a00;
      }
    </style>
  </defs>
  <g>
    <g>
      <path class="st0" d="M231.1,177.4c0,0-.1,0,0,0-.1.2-.2.4-.4.7.3-.5.4-.7.4-.7Z"/>
      <path class="st0" d="M229.9,183.6c1.9-1.8-1.3,2.5-.1,2,2-3.4,3.8-7,5.4-10.6h-.1c-2.4,3.1-3.8,6-5.2,8.6Z"/>
      <path class="st0" d="M241.1,155c-.2-.2-.4-.6-.5-2.5.7-1.6,1-2.6,1.2-3.9,0-1.8,0-3.5-.1-5.4-1.8,11.7-5.3,23-10.5,33.5.4-.3.7-.6,1-.9.5-.5.9-1,1.2-1.4.4-.5.7-.9,1.1-1.3.3-.4.8-.7,1.2-1-1.1.7-.2-.8.7-2.5.5-.9.9-1.8,1.1-2.4.2-.6.1-.9-.4-.6,1-.9,1.2-1.2,1.2-1.5.1-.3.1-.5.8-1-.2.4-.3.8-.5,1.2-.1.4-.3.8-.4,1.2-.2.8-.5,1.6-.7,2.4-.1.4-.2.7-.3,1.1,1.7-4.2,3.1-8.4,4.3-12.7,0-1.9-.2-1.9-.5-2l-.2.2.3-.5ZM235.4,170.9c-.2.2-.4.4-.6.7-.2.3-.5.6-.8,1.2l.6-1.2.4-.9c0-.1.1-.1.1-.2v.2c-.2.4.1.2.3.2ZM239,162.5v-1.5l.6.4c-.2.3-.4.7-.6,1.1ZM240.7,155.8v2c-.1-.4-.2-.9-.3-1.3-.1-.4-.2-.9-.3-1.3l.6.6Z"/>
      <path class="st0" d="M205.4,214.4c-1.3,1.2-1.6,2-2,2.7.3-.6-.2-.4-.7-.2-.6.3-1.3.7-1.6.8-1,1-2,1.8-3,2.5-.9.8-1.9,1.4-2.8,2.1-.5.3-.9.7-1.4,1s-1,.7-1.5,1c-.5.4-1,.7-1.6,1.1-.6.4-1.2.8-1.8,1.2.2,0,.3-.1-.1.1,0,0,.1,0,.1-.1-.4.1-1.1.2-1.1-.2-.6.5-1.2,1.1-1.7,1.7-.5.6-.9,1.2-1.3,1.7,7-4,13.7-8.8,19.9-14.2.2-.3.5-.6.8-.9.7-.5,1.4-1.2-.2-.3Z"/>
      <path class="st0" d="M173.5,235.7c-.8.1-2.8.6-4.7,1-1.8.5-3.6.9-3.8.9-.3.4-.3,1-.2,1.6,1.5-.5,3-1.1,4.4-1.6v-.9l.4.7c1.4-.6,2.8-1.1,4.2-1.8,0,.1,0,.1-.3.1Z"/>
      <path class="st0" d="M212.5,208.5c5.8-6.1,10.9-12.6,15.2-19.6-1.9,2-3.9,4.3-5.8,6.4-2.9,3.2-5.4,6-6.5,6.6,1.1-.9,2.7-2.9,3.3-4l-2.3,2c-2.1,2.5-4.2,4.9-6.5,7.3.4-.1-.4.9-.8,1.5-.8,1-1.6,1.6-1.5,1.1.6-.7,1.2-1.5,1.9-2.2l-.9.9c-1.2,1.2-2.4,2.4-3.6,3.5-.2.3-.3.6-.5.8-.9,1.7-1.2,3-.8,3.4,1.6-2,4.6-6.1,5.8-6-1,1.4-2.6,3.3-3.5,4.6,1.5-1.4,3.1-2.8,4.5-4.3.1-.1.2-.3.4-.4.4-.6.9-1.4.9-1.6,1.5-1.3,1.2-.7.7,0ZM217.1,201.7c.5-.2.7-.1,1.5-.7l-.8,1.5-.7-.8Z"/>
      <path class="st0" d="M227,185.6c.4-.7,1.3-2,2.2-3.3.4-.7.9-1.3,1.2-1.9.3-.6.6-1.1.6-1.5-.3.1-.7.4-1.2.8-1,2-2.2,4-3.3,5.9,0,.3-.3.7.5,0Z"/>
      <path class="st0" d="M98.5,7.4c.3,0,.5-.3.7-.4,0-.2.2-.3.2-.4h-.2c0,.2-.4.5-.7.8Z"/>
      <path class="st0" d="M8.3,154.6c0,.6,0,1.3.1,1.9.1.6.2,1.2.3,1.6.3.9.6,1.2.8.5-.3-1.2-.5-2.4-.7-3.7.3-.4.2,2.1.5.4-.2-1-.8-3.2-1.1-4.2l-.3-.3c0-.4.1-.2.3.3h.1c0-1,0-2.2.1-3.3l.2-2.6c-1.1-6.7-1.7-13.4-1.7-20.3,0-31.6,12.3-61.3,34.6-83.6s26.9-21.6,42.8-27.4c.5-.8.9-1.6,1-2.5,0,1.1.4.5,1.2-.6.2-.3.4-.6.6-.9-17.7,5.8-34,15.8-47.5,29.4C16.6,62.3,4,92.7,4,125s1.3,20.6,3.8,30.4c.2-.2.3-.5.5-.8Z"/>
      <path class="st0" d="M241.9,143.1h0q0-.3,0-.2c0,0,0,.1,0,.2,0,0,0,0,0,0Z"/>
      <path class="st0" d="M125,246c6.2,0,12.4-.5,18.4-1.4,2.4-1.3,5-2.4,7.7-2.7-.9.2-2.2.6-2.4,1,4.9-2,10.1-3,12.9-4.8l-.5-.5c-11.5,3.7-23.7,5.6-36.1,5.6-31.6,0-61.3-12.3-83.6-34.6-9.5-9.5-17.2-20.3-22.9-32.1-.1.7-.1,1.4-.2,2.2,0,.9-.1,1.7,0,2.5s.2,1.4.6,1.9v-.8c-.1,0-.1-.8-.1-.8.1.2.2.5.3.7.1.2.2.5.3.8.2.5.4,1.1.5,1.6.1.4.2.7.3,1.1,5.2,9,11.6,17.3,19.1,24.8,23,22.9,53.4,35.5,85.7,35.5Z"/>
      <path class="st0" d="M244.6,119.9q-.1.2-.2.2c0,0,0-.2.2-.2.3-.6.8-2.3,1.1-3.9-.1-1.3-.2-2.6-.4-4-.7,3-1-.3-1.3-1.9.5,2.4.8.8,1.2,1.6-.4-3.6-.9-7.2-1.6-10.8,0,0,0,0-.1,0v1.3c-.2-.7,0-1.1,0-1.3v-.6c-3.8-18.3-11.7-35.4-23.4-50.1-.1,0,0,.3.5,1.2-3.3-4.5-6.9-8.6-10.7-12.6C187.1,16.4,156.9,4,124.9,4s-16.5.8-24.4,2.5c-.2,0-.3.2-.5.3-.8.7-1,.9-1.1.8-.7.5-.2-.6-2,.7-1.1,1-1.7,1.7-2.1,2.3,9.7-2.5,19.8-3.8,30-3.8,31.6,0,61.3,12.3,83.6,34.6,19.7,19.7,31.6,45.2,34.1,72.6v.6c.4,0,.6.3.4,2.8l-.3-2.8h0c.3,3.4.5,6.9.5,10.4,0,5.3-.4,10.5-1,15.7,0,.8,0,1.7.1,2.6.6-4.1.8,3.2.9-2.4.2,2.1.8,1.1.7,4.6-.8,1.7-1-1.2-1.6-2.1,0,2.6-.1,4.1-.3,5.3v1.2-.4c-.3,1.9-.5,3.8-.8,5.6,0,0,.1,0,.1.1.4-.6.9-1.2,1.4-1.6,2.2-9.2,3.4-18.8,3.4-28.5s-.1-4.6-.2-6.8c-.4.7-.8,1.1-1.2,1.6ZM242.1,99.4c.2.8.3-1.4.6-1.9l.3,2.5c-.5,1.4-.8,1.9-.9-.6ZM244.8,133h.4c0-.1-.7,2.3-.7,2.3l-.2-4.7c.3.3.8-.3.5,2.4ZM243.8,121.9l-.3-.4v-1.1c.1,0-.3-3.2-.3-3.2.2.8.4.3.6.2l-.3,2.9.3,1.6Z"/>
      <path class="st0" d="M242.1,143.4c-.1-.1-.2-.2-.2-.3,0,.5,0,1.9.2.3Z"/>
      <path class="st0" d="M216.6,199.7c1.6-1.7,3.5-2.8,5.7-5.7-.5,0-.4-.7-.5-1.1-1.6,2.3-3.4,4.5-5.2,6.8Z"/>
      <path class="st0" d="M84.6,13.8c.5-.2,1-.4,1.5-.5.5-.9.8-1.3.2-.1,0,0,0,0,0,.1.5-.2,1-.4,1.5-.5.4-.6.8-1.2,1.1-1.7.4-.7.8-1.3,1.1-1.9-.2.1-.4.1-.6.2-.5.6-1,1.2-1.5,1.8-.3-.5,0-1,.4-1.5-.2.1-.4.1-.6.2-.8,1.2-1.8,2.4-2.7,3.5,0,0-.2.3-.3.4Z"/>
    </g>
    <g id="Group_12">
      <path id="Path_150" class="st0" d="M115.6,127.8c.2-.9.7-1.7,1-2.6.4-1.2,1.1-2.3,1.3-3.6.2-.4.4-.8.6-1.2.6-1.2,1.7-2.2,1.7-3.7l.2-.7c.1,0,.2-.2.2-.3.1-.4.1-.7-.2-1q-.2-1.3-1.4-1.2c-.2,0-.5,0-.7,0l-.5-.2c-.1-.7-.8-.7-1.2-.9-.7-.3-1.5-.9-2.4-.6-.2,0-.3,0-.5,0-.1-.5-.3-.7-.8-.3h-.5c-.1-.2-.2-.3-.3-.2-.5-.3-1-.5-1.5-.6-.1-.2-.3-.3-.5-.2-.6-.2-1.1-.7-1.6-1-1.5-.7-3-1.2-4.6-1.5-.4,0-.8-.3-1.1-.6-.1-.3-.3-.5-.6-.4-.1,0-.1,0-.2,0-.1-.2-.4-.2-.6-.2-1.9-.8-3.9-1.6-5.8-2.5-1.1-.5-2.3-.7-3.3-1.2-1.4-.7-2.8-1.2-4.2-1.7-1.2-.3-2.2-.8-3.2-1.5-.2-.2-.5-.3-.8-.3-1-.4-2.1,0-3-.8,0,0-.1-.2-.2-.3,0,0,0-.3.1-.4.2-.4.9-.5,1-1v-.3c.5,0,.6-.4.8-.7.6-1,1.1-1.9,2.1-2.6.6-.9,1.3-1.7,2.1-2.5q-.1,0-.2-.2c.1,0,.2,0,.2.2,1.2-1.3,2.4-2.7,4-3.7.2,0,.3-.4.5-.6.4,0,.7-.3.9-.6,1.2-1.4,2.9-2.3,4.3-3.5,1.3-1,2.9-1.6,4.3-2.5,1.4-.9,3-1.7,4.6-2.3.3,0,.6,0,.8,0,.9-.4,1.9-.6,2.8-.9.5-.2,1.1,0,1.4-.7h0c.5,0,1,.2,1.4,0,1.3-.9,2.8-1,4.2-1.2,1.8-.2,3.5-.7,5.4-.6,1.3,0,2.6,0,3.9-.3,1.4-.2,2.8-.2,4.2,0,1.9.2,3.7.7,5.6.9.5,0,1.2.3,1.7,0,.1,0,.2-.2.2-.3.6-.3.9-1,1.1-1.6.3-.9.5-1.9,1.1-2.6.1-.2.1-.4,0-.6.3-.4.2-1,.5-1.4,1.1-2,1.7-4.3,2.8-6.3.1,0,.1-.2.1-.4.2-.7,0-1-.7-1.4-1.3-.8-2.8-.9-4.2-1-1.9-.2-3.9-.4-5.8-.7-1.5-.3-2.9-.3-4.4-.2h0c-.7-.5-1.2-.6-1.8-.3-.2,0-.4,0-.6,0-.5-.3-1-.2-1.6,0-.6.3-1.2.3-1.9,0-.3,0-.6,0-.8.2-1.1,0-2.3,0-3.4.3h-.7c-.6-.4-1.1-.2-1.5.3-.1.2-.3.2-.6.2-.2-.2-.3-.2-.5,0h-1.3c-.2,0-.4,0-.5.2-.1,0-.2,0-.2,0-.1,0-.3,0-.3,0-.4,0-.8,0-1.2.2-.1,0-.3,0-.3,0-1.5.3-3,.8-4.4,1.2-.9.3-1.9,0-2.7.8-.6.4-1.3.7-2,.7s-.7.2-1.1.3c-1.1.7-2.4,1-3.5,1.8-.2,0-.4.2-.6.3-2.3.6-4.2,2-6.2,3.2-.2.2-.5.4-.7.5-2.9,1.1-5.1,3.3-7.4,5.2-1.4,1.2-2.8,2.4-4.1,3.7-1.4,1.5-2.6,3.1-4.1,4.5-1.5,1.5-2.5,3.4-4,5-.5.5-1.2,1-1.2,1.9s-.3.5-.5.7-.4.4-.6.7c-.6,1.5-1.7,2.7-2.3,4.2-.4.9-.9,1.7-1.5,2.5-.7,1-1,2.2-1.5,3.4-.4,1.1-1,2.1-1.1,3.2-.1.5-.2,1.1-.5,1.6-.7,1.6-1.2,3.2-1.6,4.9-.2,1.6-.6,3.1-1,4.6-.3,1.1-.3,2.3-.7,3.4v.4c.3.7.1,1.5,0,2.3-.3,2.6-.4,5.2-.3,7.8.1,2.3.3,4.6.7,6.8.3,1.9.3,3.8.9,5.6.2.6.4,1.1.5,1.7.3,1,.3,2,.6,3,.5,1.2.8,2.6,1.4,3.7.1.2.2.4.3.7.3,1.5.5,3,1.7,4.1.1,0,.2.3.2.5.6,2.3,2,4.3,3.1,6.4.9,1.5,1.9,3,3,4.4s1.8,3,3.3,4.1c.3.3.6.6.7,1,.2.5.6.9,1.1,1.2.7.5,1.1.4,1.5-.4.4-.8.6-1.7,1.1-2.4.4-.8,1-1.5.8-2.4,0,0,.1-.2.1-.3.4-.8.7-1.6,1-2.4.9-2.2,1.9-4.4,2.8-6.7.3-.6.3-1.4-.1-2-1.2-2-2.7-3.9-3.6-6-.6-1.3-1.1-2.6-1.7-3.8-.3-.6-.5-1.2-.7-1.9-.4-1.7-.8-3.5-1.4-5.1-.3-.9-.1-1.8-.4-2.6-.4-1-.6-2-.5-3.1,0-.6,0-1.3-.2-1.9-.2-.7-.3-1.5-.2-2.3.2-1.2.2-2.3.2-3.5-.2-2.2.2-4.4.4-6.6.1-1.3.4-2.5.6-3.8.2-1.2.6-1.4,1.7-1.1.3,0,.6.3.9.4.6.3,1.3.7,1.9,1,1.3.6,2.6,1.1,4,1.6.7.3,1.4.6,2.2.8s1.7.2,2.4.8c.8.7,1.8,1.1,2.8,1.3.4,0,.8,0,1.1.3,1.6,1,3.4,1.5,5.1,2.2,1.8.8,3.6,1.5,5.4,2.2.8.3,1.6.5,2.4.9,3,1.5,6.2,2.4,9.2,3.8,1.4.6,2.2.2,2.4-.9M71,109.7h0M94.5,75.6c.5.2.9-.2,1.3-.2s.3,0,.4-.3c.1-.9.4-1.8.8-2.6.2-.6-.5-.8-.8-1.1.1-.4.4,0,.6-.3-.1-.4-.6-.2-.8-.5-.1-.2-.4-.4-.3-.7.1-.2.3-.3.6-.3h.1c.8.3,1.1,0,1.3-.7.1-.5.4-.8.9-.5.4.2,1.1,0,1,.7,0,.5-.2,1-.9,1s-.3,0-.4,0c0,.5.5.6.7,1,.1,0,.3.2.5.2.4,0,.6-.7,1.1-.5.4.2.6.6,1.1.4.3,0,1.4,1.3,1.4,1.6s-.3.5-.6.6-.6,0-.9-.3c.3,1-.1,1.7-.7,2.3-.3.3-.5.6-.6,1-.3.7-.7.8-1.3.3-.1,0-.2-.2-.4-.4-.9-1-1.6-.9-2.4.3-.4,0-.8,0-1.1,0-.2,0-.4,0-.6,0-.6-.5-1.4-.6-2.1-.2-.1,0-.1,0-.2,0-.3,0-.6.7-1,.3s0-.9.3-1.2c.1-.2.2-.4.5-.4.9,0,.7-1,1.3-1.4s-.1-.5-.4-.6c-.4-.2-.6-.5-.2-.9.4-.4.7-.2,1,0,1,.7,1.3,1.6.9,2.8-.1.1-.1.2-.1.3M101.8,68.4c0,0-.1.2-.2.3.1,0,.2-.2.2-.3s-.1,0-.1-.2q0,0,.1.2M96.4,77.6c-.1-.3-.1-.6-.2-.8,0,.2,0,.5.2.8M84.5,90.2h0c0,0-.1,0-.2.2.1-.1.2-.1.2-.2M75.5,100.6c.4-.4.9-.6,1.4-.5-.5,0-1,.2-1.4.5M71.3,108.8c-.1.2-.2.5-.2.8,0-.2.1-.5.2-.8M107.5,69.7c.1,0,.2,0,.1-.2,0,0-.1-.2-.1-.3.1,0,.1.2.1.3s0,.2-.1.2M107.3,69.1h0M115.4,67.8c-.7,0-1.5,0-2.3.2-.2,0-.3,0-.5,0-.3-.4-.7-.6-1.2-.7-.3,0-.5-.4-.4-.7,0-.3.2-.5.5-.5h0c.7,0,1.1-.7,1.8-.6.2,0,.4,0,.4-.3h0c-.1-.9.5-1,1-1.1.3,0,.7,0,1,0h.1c0,.3-.1.5-.3.6-.5.4-.9.7,0,1.2.5.3.4.9.5,1.4.2.5-.2.6-.6.7M128.9,61.6h0c.1,0,.2,0,.4,0-.2,0-.3,0-.4,0M128.7,61.6h0M125.6,72.6h-.3c-.1,0-.3,0-.4,0,.1,0,.3,0,.4,0h.3M122.7,60.8v-.2.2M136.1,67.6v1-1h0ZM137.4,70.5h.2-.2M138,70.3s.1,0,.1,0q0,0-.1,0h-.2c.1.1.2.1.2,0M128.6,58.6h-.1.1M125,59.5h0c-.1,0-.2,0-.3,0,.1,0,.2,0,.3,0M67.8,101.7c0-.2-.1-.4-.1-.5,0,0,0,.3.1.5M67.7,101.1h.2-.2M65.1,107.6c.2-.2.4-.4.5-.6.3-.3.8-.4.8-1s.3-.2.5-.2c.3,0,.3.2.2.5-.1.2-.1.3-.1.5-.3,1.2-.5,1.3-1.7,1.4,0,0-.2,0-.3,0,0-.2,0-.4.1-.5M70.1,136.1c-.1.4-.5.3-.8,0-.9-.5-1.8-1-2.9-.3-.4.3-1.1-.4-.9-.9.1-.4-.6-.9.3-1.2.3,0,.1-1,.8-1.1,0,0,.1,0,.1,0,0,0-.1,0-.2,0-1-.3-.5-.6,0-.8.4-.2.5-.6.8-.8.2,0,.4-.3.7-.2.2,0,.3.4.1.7h0c-.6.7-.2.8.4,1.1.6.3.8,1,.9,1.7,0,.3-.1.7.4.8.9.3.4.8.3,1.1M77.8,107.2h0c-.2,0-.4,0-.6,0,.2,0,.4,0,.6,0M77.8,107.2h0v.4-.4M81.8,110.6h0c0,.4-.1.7-.2,1,.2-.3.2-.7.2-1M81.9,110.5h0v-.3c.1,0,0,.3,0,.3h0"/>
      <path id="Path_151" class="st0" d="M178.4,134.9h0Z"/>
      <path id="Path_148" class="st0" d="M190.1,149.1c-.2-1,.5-1.9,1-2.5.7-.8.7-1.5.5-2.3-.1-.4-.1-.7,0-1.1.2-1.1,1-2.1.5-3.3-.1,0,.1-.4.2-.6.3-.8.6-1.6.7-2.4.3-1.5.3-3.1.6-4.6,0,0,.1-.3,0-.4-.7-.8-.2-1.5,0-2.3.5-1.8,1-3.5-.1-5.2-.1-.2,0-.5,0-.7-.1-.8.5-1.6.1-2.3-.3-.6-.4-1.4-.4-2.1,0-1.2-.2-2.4-.4-3.5-.2-1.7-.9-3.3-1.1-5.1,0-.4-.3-.7-.7-.8-.1.6.3,1.2.2,1.7,0,.2,0,.4-.3.5-.3,0-.4,0-.4-.4s-.2-.7-.3-1c-.1-.2-.3-.4-.5-.3-.8.3-1.3-.3-1.7-.7s-.7-.5-1.1,0c-.5.7-.9,0-1.4,0,.4-.5,1-.6,1.4-1,.3-.2.7-.3,1.1,0,.5.2.9.2,1.3-.3.4-.5.9-.3,1.1.4.1.3-.1.8.5.9.8-.3.6-.7.2-1.1-.4-.5-.8-.9-.5-1.6.1,0-.1-.3-.1-.5-.3-.7-.5-1.4-.7-2.1-.4-1.5-1.1-2.9-1.6-4.4-.8-2.5-2.3-4.8-3.6-7.1-.6-1-1.3-1.9-1.7-3-.1-.3-.3-.6-.6-.8-.5-.5-.9-1-1.2-1.7-.1-.3-.3-.6-.5-.9-.7-.8-1.5-.7-1.9.2-.4,1.1-1,2.1-1.1,3.2l-.3.7c-.5.9-.8,1.8-1,2.8,0,0-.1.2-.1.3-1,1.1-1.4,2.5-1.9,3.8.7-.3,1.1.4,1.7.6.2,0,.1.3.1.4-.2.3-.2.6-.2.9.1.4-.1.6-.5.7-.3,0-.7,0-.6.5.1.4.5.2.8.4-.4.4-.9.7-.7,1.5.2.5-.2.7-.7.4-.2-.2-.5-.2-.8,0,.3.5.7,1,.7,1.7s.8.7,1.3.4c.2,0,.3-.4.5-.5.4-.3.9-.2,1.2.2.1.2.2.3.1.5,0,.4-.1.7-.6.6-.8,0-1,.4-1.3,1-.3.7-.8,1.4.1,2,0,1,.3,1.5,1.3.8.2,0,.5,0,.7.3-.1.3-.4.3-.6.5-.3.2-.4.5-.2.8h0c.5.8.7,1.8.5,2.6-.1.5.4,1,.8,1.4.3.3.5.5.1.9-.2.3-.2.7.1.9h.1c.6.4.5.7.2,1.1-.2.3-.3.6-.2,1,.2.4,0,.6-.4.7-.2,0-.4,0-.4.4s.3.3.4.4c.3.2.6,0,.9,0,.6,0,1,.5,1.6.4.5,0,.7-.7,1.3-.6.5,0,.9,0,1.4-.2.4-.2.6-.6.6-1-.1-.7.2-1.1.8-1,.5,0,.8.3,1.2-.2.2-.2.5-.2.7,0h.1c.1.4-.1.5-.4.6-.4.2-.7.7-.6,1.2.1.6.7.7,1,1,.1,0,.5,0,.5-.2.2-.6.9.2.9-.5.5,0,.5.5.7.9-1,0-1.4.7-2,1.2-.3.3-.5.7-1.1.4-.5-.2-.8.5-1.2.5,0,.3,0,.6-.1.9-.3.5-.1,1.2.4,1.4h0c.7.5,1.2,1.4,2.2,1.3.3,0,.4.4.7.6.3-.2.4-.6.6-.8.3-.5.8-.8,1.3-.7.8,0,.9,0,.5-.8-.1-.2-.2-.4,0-.6.2,0,.4,0,.5.2.2,0,.3.4.2.6,0,.2,0,.3.2.3q.7,0,.4.5c-.3.5-.5,1.3-1.4.7-.2,0-.5,0-.6.2,0,0-.1.2,0,.3.4,1-.4,2,.2,3,.2.4-.1.6-.5.7-.4,0-.5-.3-.5-.6s0-.4.1-.6c.1-.9-.1-.9-.8-1.3-1.5-1-2.9-.8-4.4-.2h-.4s-.1,0-.2,0c.2-.5.7-.6,1-1s.2-.7-.3-.8c-.9,0-1.7-.4-2.5.3-.5.4-1.2,0-1.8,0-.7,0-1,.3-1.1,1.1,0,.4-.1.7-.2,1.1-.3.9-.1,1.4.7,1.9.3.2.5.6.5,1-.1.3,0,.7.3.9.3-.4.4-.9.8-1.1.2,0,.4,0,.6,0,.1,0,.1.3,0,.5-.5,1-.3.9.3,1.8.5.6,1.3,1.2,1,2.2h0c-1,0-2-.3-2.9.4-.4.3-.7,0-.8-.5,0-.2-.1-.5,0-.7-.2,0-.5,0-.7.2-.4,0-.6.5-.5.9,0,0,.1.2.1.3.2.4.4.8.5,1.2s0,.8-.5.8-.8,0-.8-.2c-.1-.4-.3-.9,0-1.2s.5-.7.3-1.2c-.2-.6-.1-1.3-.2-1.9-.1-.6-.1-1.1.4-1.6.4-.4.3-1.2,0-1.7s-.2-1.2.1-1.7h.1c.5-1.3.5-2.4-.4-3.4-.1,0-.2.3-.1.5.4.9.3,2-.4,2.8-.2.3-.2.5-.1.8.1,1,.2,1.9.2,2.9s-.6,2.1-.2,3.3c.1.5-.1,1-.6,1.3s-.9,0-1.3-.2c-.3-.2-.6-.2-.9-.4-1.1-.7-2.2-1.2-3.5-1.5s-2.5-.8-3.6-1.4c-1.2-.8-2.6-1.4-4-1.5-.2,0-.3,0-.5-.2-1.7-.9-3.5-1.6-5.3-2.2-1.7-.6-3.3-1.3-4.9-1.9-.6-.2-1.2-.4-1.8-.5-1.6-.4-1.9-1.1-1.2-2.5.8-1.7,1.7-3.3,2.2-5.1.2-.3.5-.5.6-.9.5-1.6,1.1-3.2,1.8-4.7.3-.8,1-1.5,1.1-2.4.1-.7.3-1.3.6-1.9.2-.5.4-1,.4-1.5.1,0,.2,0,.2,0,.5-1.4,1.5-2.6,1.7-4,.2-1.3,1-2.3,1.1-3.6,0-.2.1-.4.3-.5.3-.3.4-.6.5-.9.4-1.2.9-2.4,1.5-3.5.5-.9.8-1.9,1.1-2.9.1-.4.3-.8.4-1.2.3,0,.4-.3.5-.5.4-1.4,1-2.8,1.6-4.1.9-2.4,2.2-4.7,2.9-7.1.3-.9,1.1-1.5,1-2.5,0-.2.1-.5.1-.7.4,0,.5-.5.4-.9h0c.8-.7.7-1.4-.2-1.9-.1,0-.1,0-.2,0-.1-.3-.3-.5-.6-.4-.1,0-.3,0-.4-.2-.3-.5-.5-1.2-1.3-1.3-.5-.3-1-.7-1.6-1-.1-.6-.6-.7-1-.9-1.7-.9-3.2-2-4.7-3.1-.5-.4-1-.6-1.6-.8-.7-.2-1.3,0-1.5.7-.1,0-.1.3-.2.4-.3,0-.5.3-.3.6-.7,1.4-1.1,3-1.9,4.5-.3.5-.6,1.1-.8,1.7-.6,2.1-1.5,3.9-2.3,5.9-.5,1.2-1.3,2.3-1.6,3.5-.5,1.8-1.4,3.5-2.1,5.2-.7,1.7-1.2,3.5-2.2,5v.2c-.1,1.2-.7,2.2-1.1,3.2-.4,1-.9,1.9-1.3,2.9-.4.8-.9,1.6-1.3,2.4-.7,1.4-.9,2.9-1.4,4.3-.6,1.6-1.4,3.2-2,4.8-1.3,3.4-2.8,6.8-4.4,10.1-.6,1.3-.6,3-1.8,4-.1,0-.1.3-.1.5,0,1-.6,1.9-1,2.7-.4.9-1.1,1.7-1.3,2.5-.2.7-.5,1.4-.9,2-.5.7-.3,1.6-1,2.2v.2c.4.6,0,1.1-.2,1.6-.6,1.1-1.4,2.1-1.4,3.5s-.1.2-.1.4c-.9,1.6-1.6,3.2-2,5-.1.3-.2.5-.4.8-.4.8-1,1.5-1.1,2.4s-.9,1.2-1,1.7c-.2.6.1,1.4-.4,2-.2.3-.3.7-.3,1.1.3.4.6.8,1.1.2.1,0,.3-.2.4-.3.6-1.1,1.6-1,2.6-.8.6,0,.8,0,.5-.7-.3-.5-.4-1.2-1.2-1.2s-.4,0-.4-.4h0c0-.4.2-.6.5-.5h.1c.8.2.8,0,.8-.9-.1-.7.4-1.2,1.1-1.3h.1c.2,0,.4-.3.7-.3.5-.2,1.1-.3,1.4.2.5.7,1.1.5,1.7.7.5.2.8,0,1.1-.4.3-.4.9-.6,1.4-.4.3,0,.4.4.3.6-.1.3-.3.3-.5.2s-.4,0-.4,0c-.1.9-1.1.7-1.5,1.3-.3.4-1.7.2-2-.3s-.8-.9-1.4-1.2c-.3.5-.1,1.4-1,1.5-.2,0-.1.3,0,.4.1,0,.3.2.5.2,1.1-.5,2,.4,2.9.4.1,0,.2.3.2.4-.3,1.3-.5,1.4-1.7.6-.2-.2-.6-.2-.8,0-.3.2-.9.3-.9.8s.2.7.7.4c.2,0,.3-.3.6-.3s.3,0,.4.3c.1.8-.4,1.5-1.2,1.7h-.1c-.2,0-.6-.3-.7,0-.1.5-.9.6-.9,1.2s0,.8.6.9c.8.2.8.4.3.9-.6.5-.8,1.3-.7,2.1.1.2,0,.5-.1.7-.7.7-.3,1.6-.7,2.4.6.2.8-.3,1.2-.3s.4.6.8.7c.4,0,.4-.6.9-.7-.3-.4-.6,0-1-.4.7-1,.7-2.1,0-3.2.1-.2.3-.2.5-.3.5-.3.7-.6.3-1.2-.2-.4-.3-.8-.4-1.2-.1-.3.1-.7.4-.7h.1c.4,0,.7,0,.7.5s.7.8.9,1.3c.1.2.4.2.6,0,.5-.2.8,0,1.2.2.5,0,.2.7.4,1,.7,1.1.4,2.3.5,3.4,0,0,0,.3-.1.3-1,.2-.6,1.2-1.1,1.6.2.3.4.2.6,0,.1,0,.3,0,.3.2-.1.5-.6.5-.9.8-.2.2-.4,0-.5,0h-.1c-.2-.4-.5-.9-.9-.7-.5.3-.7.8-.5,1.3.1.5.2.8-.4,1-.5.2-.5.6-.3,1.1.4,1.1.4,1.5,0,2.7-.1.3-.2.6-.2,1,.1.5-.2,1.1-.7,1.2h-.1c-.2,0-.5.2-.4.5s.4.4.7.2h.1c.3,0,.3-.5.8-.6-.3.8-.1,1.6-.4,2.3-.3.7-.5.8-1.1.3-.9-.7-1.8-1.3-2.7-2-.2-.2-.4-.2-.6-.2.3.7.8,1.3,1.5,1.8.5.3.9.8,1.1,1.3.1.4.4.8-.2,1.1-.5.2-1,.4-1.4,0-.2-.3-.5-.5-.5-.9.1-.7-.5-1.1-.7-1.6-.3-.6-.8-1-1.5-.6-.2,0-.5,0-.5-.2-.1-.8-.7-.7-1.2-.8,0,0-.1.2-.1.2.1.4.8.8.3,1.2-.4.3-.9,0-1.3-.3-.5-.3-1.3-.7-.8-1.6.2-.5-.7-.8-.3-1.4.3-.4.6-.8.8-1.2.2-.5,0-1-.3-1.3-.7-.7-.8-1.3-.2-1.9.4-.4.7-.6.6-1.3-.1-.2.2-.5.3-.7.4-.9.5-.9-.6-1.6.8-.3,1.4-1.1,1.5-2,.1-.8.6-1.3.9-1.9.1-.2.4-.3.6-.2h0c.6.2.8-.2.8-.7-.1-.8.2-1.5.8-2,.1-.2.2-.4.3-.6.2-.7,0-1.4-.3-1.6-.5-.2-1.7,0-2,.6-.3.3-.4.8-.8.9-.4,1.4-1,2.7-1.5,4-.6,1.8-1.4,3.5-2.1,5.2-1.2,2.9-2.3,5.8-3.6,8.7-1,2.1-1.6,4.3-2.6,6.5-.7,1.5-1.2,3.1-1.8,4.6-.7,1.7-1.5,3.4-2.3,5.1-.4.9-.2,1.2.8,1.6.8.3,1.6.2,2.4.4,3.5.9,7.1,1.6,10.7,2.1,1,0,1.4,0,1.6-.8.6-1.8,1.7-3.5,2.2-5.4.3-1.1,1.2-2,1.5-3.2.2-1,.7-1.9,1.3-2.7.5-.7,1.1-1.3,1-2.2-.1-.4.1-.8.3-1.1.2-.2.3-.5.4-.8.3-1.3.9-2.4,1.4-3.7.8-2.4,2.1-4.6,2.9-7,.4-1.4,1.3-2.6,1.8-4,.7-2.2,1.4-4.4,2.6-6.3.1,0,.1-.2.2-.3.3-1.8,1.4-3.4,1.8-5.1.6-.7,1-1.6,1-2.6v-.2c.6-.2.8-.7.5-1.3v-.3c.7-.4.6-1.1.8-1.8.2,0,.2-.3.2-.5.2,0,.3-.4.2-.6h0c.1-.2.1-.5.2-.7.7-.5.7-1.4.9-2.1.3-.7,1.5-1.2,2-.6.4.3.9.6,1.4.8.6.3,1.2.3,1.8.6,1.2.6,2.4,1.1,3.6,1.5,1.5.6,2.8,1.4,4.3,1.8.3.2.7.4,1,.6,1,.6,2.1,1,3.3,1.3,1.1.2,2.2.8,3,1.6.2.2.5.3.8.3.7.2,1.5.2,2.2.6,1.3.7,2.6,1.2,4.1,1.3.2,0,.3,0,.5,0,.7.3.8.7.3,1.2-.5.4-.9.9-1.3,1.4-.9,1.1-1.8,2.2-2.7,3.2-.6.5-1,1.2-1.2,2,.6,0,.9,0,1.2-.4-.3.4-.6.5-1.2.4h0c-.4,0-.7.3-1,.6h0c-.6.6-1.4,1-1.3,2-.8,0-.9.7-.9,1.3-.3,0-.6.4-.6.7-1.3.6-2.4,1.4-3.4,2.5-.8,0-1.5.6-2,1.3-.2.3-.5.6-.9.7-.3,0-.6.3-.8.6-.8,1-2.2,1.4-3,2.4,0,0-.2,0-.2,0-1.5.4-2.9,1.3-4.3,1.9-.4.2-.7.3-1.1.5-1.5.3-2.8,1.4-3.2,2.9-.5,1.4-.6,3-1.7,4.1-.1,0-.2.3-.2.5-.3,1.8-1,3.6-1.8,5.2,0,.4,0,.7-.4.8v.5c.2.2.2.6,0,.8-.5.7-.6,1.6-1.2,2.4-.4.5-.5,1.3-.7,2-.1.3,0,.6.5.5.3,0,.6,0,.9,0,.2,0,.3,0,.5,0,0-.2.1-.2.2,0h0c.7-.6,1.6-.5,2.5-.7,0-.2,0-.4.3-.5,2.5-.4,4.8-1.2,7.1-2,1.1-.4,2.2-.8,3.4-.9q.1,0,.2,0c.1-.7.3-1.1,1.1-.8.6.3,1.2,0,1.5-.6.1-.3.4-.5.6-.6,1.2-.4,2.3-1.1,3.4-1.7.6-.3,1-.2,1.1.5.5,0,.6-.3.8-.6.6,0,.9-.7,1.3-.9,1.3-.6,2.6-1.2,3.5-2.4q.1,0,.2,0c1.3-.6,2.5-1.5,3.5-2.5s1.2-.7,1.9-.5c.8.2.8,0,.9-.7,0-.7.4-1.3,1-1.6.5-.2,1.2-.5,1.2-1,.1-1,.8-1.3,1.5-1.5.4,0,.7-.4.7-.8.1-.5.3-.9.7-1.1.5-.5,1.2-.8,1.3-1.6.1-.7.7-1.3,1.4-1.5.4,0,.8-.3.9-.7.2-.7.8-1.1,1.1-1.7.5-.7.8-1.4,1.1-2.1.3-.8.8-1.5,1.4-2,.7-.6,1.5-1.1,1.3-2.3,0-.2.1-.3.2-.5,1-.9.5-2.7,2.1-3.1.1,0,.2-.4.3-.7.1-.5.1-.9.1-1.4.9.3.7-.5.9-1,.9-1.3.6-3,1.6-4.3,0-.2,0-.3,0-.3M179.9,109.1h0M180,109.1h.1-.1M180.4,108.9h0c.4,0,.8,0,1.2.3-.4-.2-.8-.4-1.2-.3M188.5,104h0c.1-.2.1-.4.2-.6-.2.2,0,.4-.2.6M176.6,95.2h.1c0,0-.1,0-.1,0M180.2,127.5c-.1,0-.3-.2-.4-.2,0,0,.3.1.4.2M174.2,161c0-.2,0-.4-.1-.6,0,.2.1.4.1.6M177.2,147.8c.1.5-.8,1.5-1.2,1.5s-.8-.6-.8-1.4.3-.7,1-.7c.4,0,.9,0,1,.6M171.7,149.7h0M171.8,150.2h0c.1,0,0-.2,0-.4,0,.2.1.3,0,.4M168.5,175.3c0,0-.1,0-.1-.2,0,0,0,.1.1.2M168.3,174.7v.3-.3h0ZM171.8,150.2h0c-.4,0-.8,0-1.2,0,.4,0,.8,0,1.2,0M170.4,150.2h.1-.1M161.4,180.1q.1,0,.1.2c-.1,0-.1-.1-.1-.2M185.8,151.7h0c-.1.3-.1.6-.2.9.1-.4.1-.6.2-.9M181.9,145.9h0M150,92.8c.3,0,.3-.2.2-.4-.2-.3-.4-.5-.6-.8-.4-.6-.4-.9.2-1.4.7-.5.9-.6,2.3-.7-.4.6-.6,1.4-.5,2.2-.5,0-.7-.5-1.2-.5-.2.6.6.8.6,1.3s.5.8,1,.8.4,0,.4.2-.1.3-.3.4c-.6,0-.8.4-1,.9-.1.5-.7.5-1,0-.2-.4-.5-.7-.7-1-.3-.5,0-.8.6-1M164.5,138.3v.3-.3ZM164.5,138.7v.2-.2M149,133.1c-.3,0-.3-.3-.4-.5-.1-.2-.3-.3-.2-.5.1,0,.3,0,.5,0,.3,0,.5.3.4.5,0,.2,0,.5-.3.6M154.4,134.6h.1c0,0-.1,0-.1,0ZM157.8,137.4v.3c.1,0,.1-.2,0-.3,0,0-.1-.2-.1-.2q.1,0,.1.2M148.6,99.2h.1c0,0-.1,0-.1,0M148.9,99.7c0,0,0-.2-.1-.3.1,0,.1.2.1.3s-.1.2-.2.2c0,0,.2-.1.2-.2M150.9,106.2h0c0,0-.1.3-.2.3,0,0,.2,0,.2-.3M148.5,107.2h0c-.1,0-.2,0-.3,0,.1,0,.2,0,.3,0M145.7,100.4c-.1,0-.2-.2-.3-.3,0,0,.2.2.3.3M130.2,146c.5,0,.9-.5,1.2-.9-.3.5-.8.8-1.2.9M160.1,69.7c-.1,0-.2,0-.3,0,.1,0,.2,0,.3,0M159.3,69.5c-.3,0-.6,0-1,.2.4,0,.7,0,1-.2M136,151.3c-1,.4-1.8,1.4-2.9,1.7-.3,0-.6.2-.3.6.2.2.3.5,0,.6s-.6,0-.8,0c-.2,0-.3-.3-.3-.5,0-.4-.4-.7-.8-.6-.1,0-.2,0-.3,0-.7.3.1.7.1,1.1-1.5.3-1.7.9-.5,2.3-.5,0-.9,0-1.1-.5-.1-.6-.4-1.1-.7-1.6,0,0-.1-.2-.1-.2.7-1.2.5-2.6,1.3-3.7.3-.5.8-.4,1.2,0,.5.4.9.3,1.3-.2.2-.3.2-.8.6-.7.5,0,1.2,0,1.3.5.3.5.7.5,1.1.6.3,0,.6.2.8.3.3,0,.4.2,0,.3M169.7,147.9c0-.4.3-.7.7-.7.5,0,.4.4.4.7s0,.8-.4.8c-.4,0-.7-.4-.7-.8h0M151.8,181.7h0v-.2c0,0,0,.1,0,.2h0M156.1,184.7c-.2,0-.4,0-.4-.4s.2-.3.3-.3h0c.3,0,.5.2.5.4h0c0,.3-.2.3-.4.3M186.9,153.7h-.4.4c.1,0,.2,0,.3,0-.1,0-.2,0-.3,0"/>
      <path id="Path_152" class="st0" d="M15.4,113.1c-.1.3,0,.7,0,1s.1.3.3.4c1.5.4,2.9,1,4.4,1.1.6,0,1.3,0,1.9.4.8.5,1.6.7,2.5.8.7,0,1.3.7,2,.6,1.2,0,2.4.2,3.4.8.3.2.6.2.9.2.6,0,1.2,0,1.7.2,1,.2,1.9.6,2.9.7.4,0,.7,0,1.1,0,.9.2,1.8.7,2.7.7,1.7,0,3.2.9,4.8,1,1.2,0,1.4,0,2-1,.5-1,.4-2.1.9-3,.8-1.4-.1-2.7-1.6-2.9-1.2-.2-2.3-.5-3.5-.6-.9,0-1.8-.2-2.6-.5-.9-.3-1.9-.5-2.9-.7-1.1-.2-2.3,0-3.2-.6-1.8-.9-3.6-.5-5.5-.9-.1-.2-.3-.4-.1-.6.4-.3.8-.6,1.3-.7,1.1-.2,2.2,0,3.2-.6h0c1,0,1.9-.4,2.8-.8h.3c.1,0,.1.2.2,0h0c.3,0,.6,0,.8-.2h.8c.5.5.8-.5,1.3-.3s.8-.3,1.1-.6l.9-.2c.1,0,.2,0,.2,0h.3c1,.2,1.8-.2,2.6-.7.4,0,.9,0,1.3-.2.8.3,1.7,0,2.3-.5.3,0,.5,0,.8-.3.3,0,.6,0,.7-.2h.3c.1,0,.2,0,.3-.2.5-.2.9-.7,1-1.2.5-2,1-3.9,1.5-5.9.2-.9,0-1.3-.8-1.8-.8-.4-1.6-.6-2.4-.7-2.6-.5-5-1.4-7.6-1.9-.5,0-1.2,0-1.6-.2-1-.5-2-.7-3-.9-2.9-.5-5.7-1.5-8.6-1.8-1.5,0-2.9-.7-4.3-1.1-1-.2-1.9.2-2,1.1-.2,1.4-.7,2.6-1,3.9q-.3,1.2.9,1.6c1.4.6,2.9.3,4.3.9,2.3.9,4.7,1.3,7.1,1.9.5,0,1.1.4,1.7,0,.3,0,.7,0,1,0,1,0,2,.5,3,.5s.8.2,1.1.3c.2,0,.3.2.2.4h0c0,0-.1.3-.2.3-.9,0-1.5.6-2.4.6-1.1,0-2.3.3-3.3.6-.6.2-1.2.3-1.9.3-.8,0-1.4,0-1.9.6-.2.3-.6.2-.9.3-.5.2-1.2,0-1.6.2-.7.6-1.4.6-2.3.5-.3,0-.6,0-.9,0-.9.4-1.7.9-2.7.7-.1,0-.3,0-.5.2-.7.4-1.5.7-2.3.7-.6,0-1,.4-1.1.9h0c-.2.9-.4,1.8-.6,2.6-.1.5-.4.8-.9.9-.9.2-.9.4-.5,1.3,0,.9.3,1.5,0,2.3"/>
      <path id="Path_153" class="st0" d="M235.1,109.1c-.4-.5-.4-1.2-.4-1.8-.1-1.3-.5-1.7-1.8-1.7s-1.8.5-2.7.7c-1.6.3-3.1.6-4.7,1-.7.2-1.3.4-1.9.7-.8.3-1.2,0-1.4-.8-.2-.9-.4-1.7-.5-2.6,0-.7-.2-1.3-.5-2-.2-.5-.9-.8-1.4-.6-.1,0-.1,0-.2,0-.6.4-.3.9.1,1.3.2.2.4.4.2.7s-.5.4-.8.3c-.9,0-1.5-1-1.3-2.1.1-.3.2-.6.1-1-.3-.8-.2-.9.6-1.1.9-.2.9-.3.9-1.1s-.1-.5-.1-.7c-.2-1.1.2-1.4,1.3-1.1.3,0,.6.2.9.2s.4,0,.5.3c.6.8,1,.9,1.8.6.5-.2,1-.4,1.6-.4,1.3,0,2.6-.4,3.8-.9.5-.2,1.1-.4,1.7-.5.6,0,1.1-.6,1.1-1.3s0-.2-.1-.3c-.5-1.3-.5-2.6-1-3.9-.5-1.2-.8-1.7-2-1.2-1.8.6-3.7.6-5.5,1.1-1.4.4-2.8.5-4.2.8-2.7.7-5.3,1.6-8.2,1.8-.4,0-.6.3-.7.7-.2,0-.3,0-.5,0-.2-.3-.5-.4-.8-.2-.9.4-1.9.3-2.8.6-.5,0-1.1-.2-1.6.2-.1,0-.3,0-.4.2-1.2,0-2.1.7-3.3.8-.4,0-.7.3-.5.8-.1.2-.1.4-.1.7-.1.7,0,1.4.6,1.9,0,.2,0,.5.1.7-.2.8.2,1.5.2,2.4s.9,1.4,1.8,1c.3,0,.6-.2.8-.3,3.2-.7,6.3-1.5,9.3-2.6.6-.2.7-.4.5-1-.2-.5,0-1.1.4-1.5.3,0,.5.6,1,.3.3-.2.5,0,.7.3.3.4.7.3,1.2.3,0,.3,0,.7-.1,1-.3.7-.6.8-1.2.3-.4-.4-.9-.4-1.3-.2.2,1.9.7,3.8,1.3,5.6.3,1,.5,2,.7,3.1.1.5-.1.7-.6.7s-.9,0-1.3,0c-1.8,1.1-3.8.8-5.7,1.2-1,.2-2,0-3,.5h-.4c-1.6,0-2,.6-1.3,2.3v.2c0,.2.1.2.2.2l.2.3c-.1,1,.1,2.1.5,3.1,0,0,.1,0,.2,0,0,.2.1.5.2.7.2.9.4,1.1,1.2,1,.4,0,.8,0,1.3,0s1.4,0,1.8-.6c.2-.3.6-.2.8,0,1.1.5,2,0,2.9-.5.7-.5,1.5-.6,2.3-.4.3,0,.7,0,1,0,.7-.2,1.3-.9,2.1-1,1.3-.2,2.6-.8,4-.7.7,0,1.3-.2,2-.4,1.8-.5,3.6-1.2,5.5-1.4,1.4,0,2.7-.8,4-1.1,1.2-.3,1.1-.3,1.3-1.5.2-.8,0-1.6-.4-2.2M211.4,99.8c.2,0,.2-.4.2-.7s0-.5-.1-.6c.2,0,.1.4.1.6s0,.5-.2.7"/>
      <path id="Path_154" class="st0" d="M29.4,75c.7.2,1.4.7,1.8,1.3.5.7,1.3,1.2,2.1,1.4.6.2,1.2.5,1.8.9.8.6,1.5,1.3,2.3,1.7,1.7.9,3.2,2,4.9,2.8,2,.9,3.6,2.3,5.5,3.4,1.2.7,2.3,1.5,3.5,2.1.5.2.9.5,1.3.9.6.9,2.2,1,2.7.2.4-.7,1.1-1.3,1.4-2.1.9-1.9,2.3-3.5,3.1-5.5,0,0,.1-.2.3-.3.4-.2.5-.6.7-1,.6-1.1,1.1-2.4,2.2-3.2.6-.4.9-1.1.9-1.8.1-.7-.2-1.4-.9-1.6-.9-.3-1.7-1-2.6-1.3-1.2-.4-1.9-.3-2.5.7-.4.8-1,1.6-1.5,2.4-.7,1.2-1.5,2.5-2.2,3.7-.7,1.3-1.1,1.4-2.4.5-.1,0-.3-.2-.4-.2-1-.4-1.8-1.2-2.8-1.7-.5-.3-.8-.9-.6-1.4.1-.4.2-.7.5-1,1.5-1.5,2.3-3.4,3.5-5.1.2-.3.4-.7.5-1,.2-.5.2-1-.3-1.2-1-.5-1.7-1.4-2.8-1.9-1.8-.7-1.8-.8-2.8.9-1.1,1.8-2.2,3.6-3.3,5.4q-.8,1.4-2.4.7c-.2,0-.4-.2-.5-.3-.5-.5-1-.8-1.7-1-1.3-.5-1.5-1.3-.7-2.4.1-.2.3-.3.4-.5,1.7-2.1,3-4.4,4.4-6.7.3-.4.3-1.1-.2-1.4,0,0-.1,0-.1,0-1.1-.6-2-1.5-3.2-2-.9-.4-1.4-.3-1.9.5-1.3,1.9-2.4,4-3.9,5.8-.2.2-.3.5-.3.8.1.4-.2.6-.4.9-.3.4-.6.7-.8,1.2-.2.4-.5.8-.8,1.1-1.2,1-1.8,2.4-2.4,3.8-.2,1-.1,1.3.6,1.6"/>
      <path id="Path_155" class="st0" d="M60.9,172.3c-.6-1-1.1-1.1-1.8-.6-1.3.8-2.7,1.5-3.8,2.5-1.4,1.2-3.1,2-4.4,3.4-.6.6-.8.5-1.3-.2-.8-1.1-1.3-2.4-2-3.5-.7-1.3-1.6-2.6-2.5-3.7-.2-.4-.8-.6-1.2-.3-1,.4-1.9.9-2.8,1.5-.5.3-.9.8-1.2,1.3-.2.2-.2.6,0,.8.8,1.1,1.4,2.4,2.4,3.4.4.4.6.9.8,1.4.3,1,1,1.8,1.5,2.7.3.6.4.8-.4,1.1-1.1.4-2.1,1.1-3,1.9-.6.4-1.3.7-2,.7-.3,0-.7,0-.9-.4-.6-1-1.4-2-1.8-3-.6-1.4-1.5-2.6-2.3-3.9-.7-1.1-1.4-1.3-2.4-.5-.9.6-1.7,1.2-2.6,1.7-.4.3-.6.7-.6,1.2-.1.4.2.7.5,1,.6.8,1.3,1.5,1.5,2.6.1.3.2.5.5.6.9.6,1.4,1.4,1.8,2.4.4.8.6,1.7,1.2,2.3.8.7,1.3,1.6,1.4,2.7,0,.2-.1.5.3.6.9.3,1.5,1,1.9,1.8.3.7.9.8,1.5.3.5-.5,1.2-.8,1.7-1.4.6-.8,1.6-1,2.4-1.4.6-.3,1-1.1,1.8-.8,0,0,.2-.2.2-.3,0-.5.4-.6.7-.8.7-.5,1.3-.9,2-1.4.8-.6,1.6-1.2,2.5-1.6.5-.2,1-.5,1.3-.9.4-.4.8-.7,1.2-.9,1.2-.6,2.2-1.4,3.3-2.1.7-.5,1.6-.8,2.2-1.4,1.2-1.1,2.3-2,3.8-2.6,1-.4,1.2-1.7.5-2.6-.6-1.4-1.3-2.5-1.9-3.6M45,188.4c-.6.2-1.2.5-1.9.5-.6-1.2.7-1.4.9-2.2,0-.2.4,0,.4,0,.3.8,1.3,0,1.5.7,0,.5-.5.9-.9,1"/>
      <path id="Path_156" class="st0" d="M23.4,147.3c0-.7-.1-1.4-.3-2.1-.2-.6.6-.8.2-1.3-.4-.5-.3-1.1.1-1.5.3-.4.9-.3,1.3-.7.3-.3.7.3,1.1.5.1-.5.5-.8,1-.9,1.3-.2,2.5-.6,3.8-.6s2.3,0,3.5-.3c.2,0,.3,0,.5,0,2.1,0,4.1-.8,6.2-.6.3,0,.6,0,.9-.2.4,0,.7-.2,1.1-.2,1.4.3,2.6-.3,3.9-.6.5,0,.7-.4.6-.9-.2-1.5-.4-3-.5-4.5-.1-.4-.2-.7-.3-1.1-.2-.6-.6-.8-1.2-.5-.5.3-1,.4-1.6.3-1.3-.3-2.5.3-3.7,0-.2,0-.4,0-.6.2-.6.2-1.2.3-1.7.3-.3,0-.6,0-.9,0-.8.3-1.7.4-2.5.2s-.8-.2-1.1,0c-.4.4-.8.2-1.2,0-.3,0-.6-.5-.9,0-.5.5-1.2.5-1.8.6-1.9.3-3.9.5-5.8.9-1.2.3-1.5,0-1.7-1.2,0-.4,0-.8-.1-1.1-.1-1.3-.3-2.5-.5-3.8-.1-.7-1-1.4-1.6-1.3-1,.2-2,0-3,.2-1,0-1.6.6-1.6,1.6s0,.7-.4,1c-.5.3-.5.8-.1,1.2.6.6.9,1.3.9,2.1.1,1.1.3,2.2-1,2.7-.1,0-.2.3-.1.4h0c.1,0,.2,0,.3,0s.2,0,.3,0c.4-.3.7,0,.7.3.1.9.3,1.7.5,2.6.1.9-.1,1.9.1,2.8.1.6.4,1.1,0,1.7-.2.3,0,.3.2.4.3,0,.3.4.3.6.1.5.1,1,.1,1.5.2,1,.1,1.9.4,2.9.2.6.4.9,1.2.8,1.2-.2,2.4-.3,3.6-.5,1.4-.5,1.6-.7,1.4-2.1"/>
      <path id="Path_157" class="st0" d="M28.8,167.3c-.1-1.1.4-2.1,1.4-2.6s2.1-1.1,3.2-1.2c1.1-.2,2.1-.6,3.2-1,.4-.2.8-.3,1.2-.5,1.4-.3,2.8-.8,4.2-1.4,1.4-.6,2.9-.9,4.2-1.6.1,0,.3,0,.3,0,.4.6,1.4.6,1.6,1.5.2.7.7.9,1.4,1,1.1,0,1.9-.5,2.9-.8.8-.3.9-.8.8-1.7-.1-1.1-.9-1.9-1.1-3-.2-1-.6-2-1.1-2.9-.6-.9-.4-2.1-1.2-2.9-.1,0-.1-.2,0-.4.4-1-.4-1.4-.8-2.1-.5-.9-1.3-.9-2.2-.6-.3,0-.6,0-.9,0-1,.2-1.5.9-1.7,1.8-.1.5,0,1,.1,1.5.2,1.1-.5,2.1-1.4,2.2-1.5,0-2.6,1.4-4.2,1.1-.1,0-.2,0-.3.2-.7.5-1.6.8-2.4,1-1.5.4-3.1.9-4.5,1.6-1.4.7-2.8,1.3-4.4,1.6-1.1.2-1.4,0-1.9-.9-.7-1.3-1.8-1.7-3.2-1.2-.3,0-.6.2-.9.4-.3.2-.9,0-1,.6-.1.5-.3.9-.2,1.4.4,1.1.8,2.1,1.3,3.2.7,1.3,1.2,2.7,1.5,4.1.3,1,.9,2,.8,3.1,0,1,.8,1.5,1.8,1.5,1.6,0,3-.9,3.5-2.5,0-.2,0-.4,0-.6"/>
      <path id="Path_158" class="st0" d="M53.6,58.9c2.7,1.7,5.6,1.3,8.5.6,2.2-.5,4.3-1.4,6.6-.9.3.3.7.6,1.1.8.6.7.6,1.4.3,2.2-.4,1.2-1.4,1.9-2.3,2.5-1.6,1-3.2,2-5.3,2.2-1.7.2-1.8,1.3-.9,2.4h.1c1,.9,1.9,1.8,2.6,2.9.4.5.9.6,1.6.4,1.2-.3,2.4-.8,3.5-1.4,1.1-.7,1.9-1.7,3.1-2.4.1,0,.1-.2.2-.3.1-.3.4-.6.7-.7,1.9-1.6,3.3-3.4,3.3-6v-1c.2-1.1,0-2.2-.5-3.2-1.3-2.8-3-4.6-6.3-5.3-.6,0-1.3,0-1.9-.2-1-.2-2,0-3,.2-1.9.6-3.7,1-5.6,1.6-1.1,0-2.2-.4-3.1-1-.3-.2-.5-.5-.5-.8-.6-1.4-.4-2.6.9-3.5.2-.2.5-.3.7-.5,1-.3,1.8-1,2.6-1.6.6-.2,1.3,0,1.8-.5.6-.5.7-1.4.3-2.1-.2-.3-.3-.7-.2-1,0-.3-.1-.7-.3-.9,0-.3.2-.6-.2-.7-.1-.2-.3-.4-.4-.6-.1-.2-.3-.3-.5-.2h-.7c-.1,0-.3,0-.3,0-1.7.7-3.5,1.3-5,2.5-1.8,1.4-3.6,2.9-4.5,5.1-.7,1.5-1,3.1-.8,4.7.3,3,2,5.1,4.4,6.6M72.2,54.8s.1,0,.2,0q-.1,0-.2,0"/>
      <path id="Path_159" class="st0" d="M151.5,47.9h0c-.8.4-1.1.9-.6,1.5.2.4.6.6,1,.7.6,0,1.1.4,1.6.8.6.4,1.2.8,1.9.9.9.3,1.2,0,1.7-.6.2-.4.4-.8.8-1,.6-.3.9-.8,1.2-1.3.9-1.5,2.3-2,3.9-1.2,1.1.6,2.2,1.2,3.3,1.9,1,.7,2.4,1,3.6,1.5,0,.4-.3.7-.2,1-.3,0-.3.5-.3.8q-.1,0-.1.2c-.2,0-.3.2-.3.4,0,1.3-.5,2.4-.6,3.6q-.2,1.5,1.2,2.2c.6.3,1.5,0,2,.8.5.6,1.3.6,1.9,1,.4.3,1,0,1.2-.6.2-.4.3-.8.3-1.2,0-.6,0-1.2.2-1.8.2-.5.2-1.1,0-1.6-.1-.6,0-1.2.3-1.7.6-.9.8-2,.7-3.1-.1-.5,0-1,.3-1.5.6-1.3.7-2.7.7-4.1.1-2.6,1.2-5,.9-7.7,0-.2.2-.5.2-.7s0-.4-.2-.6c-.7-.7-.7-.8-.2-1.5q.6-.8-.3-1.4c-.2,0-.3-.4-.5-.3-.8.7-1.7,1.4-1.1,2.7.1.3-.1.6-.4.6h-.1c-.3-.5-.3-1.2-1.1-1.6-.3.3-.9.4-1.1,1-.2,1-.8,1.9-1,2.9-.2.9-.6,1.8-.7,2.7,0,.8-.2,1.5-.4,2.2-.2.5-.2,1.1-.1,1.6-.1,0-.2,0-.3,0-.2-.2-.5-.3-.8-.4-.8-.2-1.2-1.1-2-1-.9,0-1.5-.6-2.2-1-.5-.3-.6-.9-.3-1.3h0c.1-.3.3-.5.5-.7s.5-.4.3-.8c-.2-.3-.6-.4-.9-.3-.2,0-.3,0-.5.2-.3,0-.6,0-.7-.2-.2-.4-.1-.8.1-1.1.2-.2.5-.2.7,0,.1,0,.3.2.4.3.2,0,.5.2.7,0,.1-.3,0-.4-.3-.6-1-.4-1-.7-.4-1.5.3-.4.6-.9,1.2-.9.7,0,.9-.5.8-1.1-.1-.5.1-.9.6-.9.9,0,1.1-.8,1.5-1.3.7-1,1.3-2.1,1.9-3.2.2-.4.4-.7,0-1-.3-.3-.6,0-.9.2-.6.5-1.1,1.2-1.7,1.7-1.6,1.5-3.2,3-4.7,4.6-.6.6-1.4,1.1-1.9,1.9-.7.5-1.1,1.3-1.8,1.9-.1,0-.2,0-.3.2-.8.8-1.7,1.4-2.4,2.3-1.4,1.6-3.2,3-4.4,4.7-.6.3-1.4.9-1.8,1.9"/>
      <path id="Path_190" class="st0" d="M132.5,46.8c.5.2,1.1.3,1.6.3,1.3,0,2.6,0,3.8.6,1.5.7,3.1.6,4.7.5.2,0,.4,0,.7.2.4.8,1.1.3,1.7.5,1,.4,2,.4,3,.2.6,0,.9-.3,1-.9.1-1.1.3-2.2.5-3.3.2-.5,0-1-.4-1.3-.3-.2-.3-.7-.5-1-.7.5-1.5,0-2.2.4h-.5c0,0-.1-.2-.1-.2-1.3-.3-2.6-.5-3.9-.7-.4,0-.9-.2-1.3.3h-.5c-.7-.5-1-1.1-.7-2,.1-.3.1-.6.1-.9.2-1.2.4-2.4.7-3.6.1-.5.5-.9,1-.8h0c1,0,1.9.2,2.9.6.8.3,1.5.6,2.4.3.5,0,.9,0,1.4.2.4.2.8.3,1.2.3.7,0,.9,0,1-1h-.2c-.1-.2-.2-.2-.3-.3.1,0,.2,0,.3.2h.2c0,0,.1-.3.1-.3.6-.6.6-.9.1-1.6.1-.7.5-1.3.3-2,.1-.3.1-.5-.2-.6-.1,0-.2,0-.2.2-.3-.3-.7-.4-1-.3-.6-.6-1.2-.4-1.8-.2-.2,0-.5-.2-.7,0-.1,0-.1-.3-.2-.3-1.1-.3-2.3-.7-3.5-.6-.6,0-1.1,0-1.5-.5-.5-.7-1.2-1-1.9-1.4-.2-.2-.6-.2-.6-.6.2-.2.5-.3.8-.4.8-.3,1-.6.9-1.4,0-.4-.2-.7-.6-.5-.2,0-.3.3-.4,0-.1-.7-.5-1.4-1.1-1.8-.1,0-.1-.3,0-.5.1,0,.3-.3.4,0,.5.5,1,0,1.6,0,.4,0,.7-.2,1.1-.3.2,1,.6,1.4,1.7,1.3.7,0,1.4,0,2.1-.2.3-.5-.3-.8-.2-1.2.3-.2.7-.5,1-.7.4.4.2,1.2.7,1.3.8,0,1.2,1.1,2.1.9.1,0,.2,0,.3.2.5,1.1,1.5,1,2.4,1.1.8,0,1.4,0,1.4-.9s.4-2.1.3-3.2c0-.3-.1-.7-.2-1,0-.2-.2-.3-.4-.3s-.4,0-.5.3v.4c.1.5.3.9-.5,1s-.9,0-1-1c-.1-.8-.4-1.1-1.1-1.2-.2,0-.3,0-.5,0-.5-.2-4.6-.7-5.1-.5s-.9,0-1.2-.4c-.1-.4-.6-.6-1-.5h-.1c-.8.3-1.4,0-2-.3-.5-.3-1.1-.5-1.7-.5-1.3,0-2.1.5-2.3,1.7-.2,1.7-.4,3.5-.6,5.2,0,.3-.2.6.1.8.2,0,.3,0,.5-.2.7-.3,1.5-.2,1.6,0,.2.4-.4,1.2-1,1.4h-.1c-1.3-.3-1.6.5-1.7,1.6-.1.3-.2.6-.3.8-.1.3-.1.5.1.7v.5c-.3,0-.5.2-.3.6-.1,0-.1.2-.2.3h-.1q-.1,0,0,.2v.5c0,1.2-.9,2.3-.5,3.5.1.3-.2.6-.3.9-.2,1.1-.8,2.2-.3,3.3h-.1c-.5.6-.5,1.2-.2,1.8-.1.2-.2.5-.1.7-1.1.5-.5,1.3-.5,2.1v.5c-.5.3-.9.7-1,1.2,0,.9.8,1.9,1.6,2.1M145.7,32q0,0-.1,0t.1,0M149.1,35.1h.2-.2"/>
      <path id="Path_160" class="st0" d="M177.4,62.3c-1.4,1.1-1.4,1.9,0,3.1,1.4,1.7,3.1,3,4.5,4.6.6.6,1,1.2,1.6,1.8,1.4,1.3,3,2.4,4.2,3.8.5.5.8.5,1.4,0,.8-.7,1.4-1.6,2.2-2.3.2-.2.3-.5.3-.8h0c.6-.6.7-1,.2-1.4-.3-.2-.6-.4-.9-.5-.3-1-1.2-1.2-1.8-1.8-.2-.6-.7-.8-1.2-1.1,0-.2-.2-.4-.3-.5-.3-.9-1-1.4-1.7-2-.5-.4-.7-.8-.5-1.4.1-.2.1-.4.2-.6.1-.8-.1-1.2-1-1.5-.4,0-.8-.2-1.2-.4-.6-.2-.7-.5-.1-.8.5-.2.7-.7,1.3-.8.2,0,.3-.2.3-.4-.2-.5.1-.8.5-1s.7-.7.7-1.2.5-1.3,1.3-1.4c.8,0,1.1-.6,1.1-1.5.6.5,1.1.5,1.6,0,.3-.3.9-.2,1.3,0,.6.3,1.3.5,1.9.7.4.2.9,0,1.2-.3.8-.8,1.5-1.6,2.2-2.4,1.4-1.6,2.7-3.2,4.4-4.5.9-.7.7-1.4-.4-1.8-.3-.2-.4-.9-1-.7-.1-.9-.8-1.4-1.3-1.9-.9-1-.9-.9-2,0-1.3.9-2.2,2.2-3.4,3.2-1,.8-1.9,1.9-2.9,2.8-.2,0-.3.3-.4.5-.4.8-1,1.4-1.7,1.9-.5.4-1,.7-1.2,1.3-.1,0-.2.2-.2.3-.4,0-.7.4-.9.6-1.6,1.6-3.2,3.2-4.8,4.9-.4.4-.8,1-1.1,1.6-.7,0-.8.5-1.3.8-.7.1-.9.6-1.1,1.1"/>
      <path id="Path_161" class="st0" d="M233.5,147.1c.3-1.3-.3-2.2-1.1-3.1-.3-.3-.5-.6-.6-.9-.3-.7-.9-1.2-1.6-1.3h0c-.3-.9-.6-1.5-1.6-1.9-.7-.3-1.6-.7-2-1.4s-1-.8-1.6-1c-.9-.3-2.1,0-2.8-.9-.1,0-.5,0-.7,0-.4,0-.8,0-1.2-.2-1.1-.5-2.4-.7-3.6-.4-.4,0-.9,0-1.3,0-1.4-.5-2.7.3-4.1.4-1.2,0-2.3.8-3.4,1.3-.8.4-1.5,1.1-2.3,1.4-.4.2-.8.5-.8,1s-.1,0-.1.2c-.9.5-1.6,1.4-1.8,2.5-.2,1.2-.5,2.4-1,3.5-.4.9-.6,1.9-.6,3-.1,1.4-.1,2.8,0,4.2,0,.3.1.7.3,1,.7,1.2,3.2,1.9,4.6,1.3.1,0,.3,0,.3-.2.1-.9.8-1.6.5-2.6-.2-.6-.5-1.3-.1-2,.3-.5.4-1,.3-1.6,0-.9.2-1.7.6-2.4.3-.5.5-1,.3-1.6-.1-.3,0-.6.3-.8,1.6-1.2,3.1-2.6,5.3-2.4.2,0,.4,0,.6-.3.3-.2.6-.2.9-.2,1,0,2.1.2,3.2,0,.2,0,.4,0,.6,0,1.2.5,2.4.5,3.6.7.3.4.7.4,1.1.5.5,0,1.1.3,1.5.6.8.8,1.9,1.1,2.5,2.1.2.3.4.4.7.5l.2.3c0,.3.1.6.2.9.7,1.2,1,2.6.9,4,0,0,.1.2.1.2-.1.4-.2.8-.2,1.2-.2,0-.3.3-.2.5h0c0,.3-.1.4-.1.6-.7,1.5-1.4,2.9-2.6,4.1-.2.2-.3.6-.3.9.2,1,2.1,2.6,3.1,2.6s.9-.2,1.2-.7c.4-.8.9-1.5,1.6-2.1.3-.2.4-.6.4-.9s0-.5.2-.6c.7-.4.5-1.1.7-1.6.2-.8.2-1.6.3-2.3.3-1.5.5-3.1.2-4.7-.4-.6-.7-1.1-.6-1.5M227.4,141.5h.1-.1M225.1,142.8c0-.3.2-.3.5-.3h0c-.3,0-.5.1-.5.3"/>
      <path id="Path_162" class="st0" d="M197.9,77c-.6.6-1.3,1.1-2.1,1.4-1,.5-2,1.1-3.1,1.4-1.1.4-1.3,1.4-.7,2.4l.3.5c.4,1.2,1,2.3,1.8,3.3,1.1,1.3,1.4,1.3,2.2-.3-.2,0-.5-.3-.7-.5-.2-.3-.6-.2-.8-.4-.5-.4-.5-.9,0-1.3.2-.2.4-.3.7-.3.6,0,1.2-.2,1.6-.7.5.2.3.9.9.9.6,0,.6-.7.8-1s.2-.7,0-.9c-.1-.2-.3-.4-.1-.6.5-.3.4-1,.7-1.3.6,0,.4,1.1,1.3.8.8-.3.9,0,1,.9,0,0,.1.2.1.3,1.6.3,3.2-.3,4.3-1.4.7-.6,1.4-1.1,2.2-1.4.4-.2.8-.4,1.2-.6,1.4-.7,2.7-1.8,4.1-2.6.7-.4,1.6-1.1,1.6-2.3-.6-.3-1.2-.2-1.7.2-.2.2-.6.2-.6,0-.2-1.1-1-1-1.7-1.1-.6,0-.9-.6-.4-.9.8-.6.5-1.2.4-1.9-.4,0-.8,0-1.2.2-1.2.6-2.3,1.4-3.5,2s-1.6.7-2.2,1.5l-.5.3c-.6.4-1.5.4-1.9,1.2-.1,0-.2.2-.3.3-.9.3-1.6.9-2.3,1.3-.3.2-1,.2-1.4.7M203.9,80.5c.2,0,.3-.2.3-.4,0-.3-.1-.5-.4-.5.3,0,.4.2.4.5s-.1.4-.3.4"/>
      <path id="Path_163" class="st0" d="M74.2,42.3c.5,1.2,1.7,1.3,2.6,1.9.8.5,1.9.7,2.9.7,1.4.5,2.9.3,4.3.2,1.1,0,2.2,0,3.3.4,1.4.5,1.8,1.4,2.1,2.6.2.7.1,1.4-.6,1.8-.2,0-.4.4-.4.6h0c-.1,0-.3,0-.3.2-.7.2-1.4.4-2,.7-1.1.4-2,.9-3.3.7-1-.2-2.2,0-3.2.3-.6,0-.9.5-.6,1,.6,1,.7,2.2,1.7,2.9.1.2.1.3.1.5.6,1.7.9,1.9,2.6,1.5.4,0,.7-.2,1.1-.3.1,0,.2,0,.3,0,.7,0,1.4-.4,2.1-.5,1.6-.2,3-1,4.3-1.9.7-.5,1.3-1.1,2.1-1.6.8-.4,1.4-1.3,1.5-2.2.1-.7.3-1.3.7-1.9.2-.3.3-.7.3-1.1v-.7c.5-.2.4-.5.2-.8v-.5s.1,0,.1,0,0,0-.1,0c0-1.4-.6-2.8-1.5-3.9,0,0-.1-.2-.2-.3h0c-.3-.4-.2-1.1-1-1.1l-.3-.2c-.6-.8-1.5-1.3-2.4-1.6-2-.5-4-1-6-.7-.1-.2-.3-.2-.5,0h0c-.1,0-.3,0-.4,0-.3,0-.6-.2-.9,0-1.2.2-2.5,0-3.5-.7-.6-.3-1.4-1.7-1.2-2.1.4-.7.4-1.6.7-2.3.2-.6.5-.9,1.2-.9,1.8,0,3.5-.5,5.2-.8.8,0,1.5-.9,1.3-1.6-.2-.8,0-1.6-.2-2.4.1-1.6,0-1.8-1.6-1.8h-.9c-.2,0-.4,0-.5.2-.3,0-.7,0-1,0-.2,0-.4,0-.5,0-.9,0-1.8.5-2.7.6-1.2.2-2.3.8-3.2,1.7-.4.3-.7.6-1.1.9-2.4,1.8-3.6,4.8-3,7.8,0,1.9.7,3.9,2.4,5.1"/>
      <path id="Path_164" class="st0" d="M205.6,130.4c.8,1,1.9,1.3,2.8.8,1.2-.7,2.5-1.3,3.3-2.6.7-1.2.7-2.6-.5-3.4-.5-.3-1-.5-1.4-.8-.5-.3-1.1-.5-1.7-.4-.3,0-.7,0-1,0-.9,0-1.5.4-2,1h0c-.6.2-.6.8-.6,1.3-.1.5-.3,1-.7,1.4.4.2.6.5.7.9,0,.7.6,1.2,1.1,1.7"/>
      <path id="Path_191" class="st0" d="M98.7,22.6v.3l.3,1.7c.1.9.1,1.9.4,2.9,0,.5,0,1,.1,1.5.2,1.6.4,3.2.7,4.8.2,1.5.5,3.1.7,4.6.3,1.9.7,3.8.9,5.7.2,1.5.4,3,.7,4.5,0,.5.4.8.9.8h.2c1.6-.2,3.3-.3,4.8-.9.9-.3,1.1-.7.9-1.6-.2-1-.3-1.9-.6-2.9-.2-.8.1-1.5-.2-2.3s-.5-1.6-.6-2.5c.4-.5,0-.9-.3-1.3v-1c0-.5,0-1,.1-1.6.3,0,.7,0,1,0,.3,0,.6.2.9,0,.7-.6,1.5-.3,2.2-.5.4,0,.7.3,1.1,0h.5c.9-.4,1.9,0,2.9-.5.4,0,.5.3.6.5.3,2.2.6,4.4.8,6.5,0,.6.1,1.2.2,1.8.2.6.3,1.2.2,1.7-.1,1.3.7,2.1,1.9,1.9,1.4-.2,2.9-.3,4.2-.8.8-.3,1-.6.9-1.4-.1-.6-.3-1.2-.4-1.7.1,0,.2-.2.2-.3-.1-1.3-.2-2.6-.5-3.8s0-2.4-.6-3.5c-.2-.4.1-.7.1-1.1.1-.3,1-.7,0-1.1-.1,0,0-.2.1-.3.2-.3.2-.6-.1-.6-.8,0-.7-.6-.7-1.1s-.1-1.1-.2-1.6c-.1-1.4-.7-3,1-3.9-1.8-1.4-2.9-3-2.7-5.3,0-.3,0-.6-.1-.9-.3-.6-.4-1.2-.4-1.9-.1-.4-.1-.9-.4-1.2-.5.3-1.1.2-1.6.2.1,0,.2,0,.3,0-.7,0-1.4-.2-2,.2h.4c-.8.2-1.6.5-2.5.2-.4,0-.9.6-.8,1.1.4,1.5.6,3.1,1,4.7.1,1.5.2,3.1.4,4.6.2,1.2.1,1.3-1,1.6-.1,0-.1,0-.2.2h-.3c-.1,0-.3,0-.3.2h-1c-.3-.1-.8,0-1.1.2-1.3.3-2.6.3-4,.7-1.1.4-1.5.2-1.7-1.2-.1-.6-.2-1.3-.1-1.9.1-1.4-.4-2.7-.6-4.1h-.3.3c.1-.8,0-1.6-.4-2.4,0-.3-.1-.7-.2-1-.1-.8-.3-.9-1.1-.9s-.5,0-.7,0c-1.1,0-2.2.3-3.3.4-1.1,0-1.6.5-1.3,1.6.4,1,.4,1.6.4,2.2M110.2,30.8c.1,0,.2,0,.2,0,0,0-.1,0-.2,0s-.2,0-.2,0c0,0,.2,0,.2,0M110,31c0,0-.1,0-.1.2,0,0,0-.2.1-.2"/>
      <path id="Path_149" class="st0" d="M221.3,170.6c-.1-.2-.2-.4-.5-.5-.4-.2-.8-.5-1-.9-.3-.4-.5-.9-1-1.1v-.2c-.6-.8-1.7-1.2-2.2-2.2-.1,0-.3,0-.4-.2-1.1-.4-1.8-1.4-3-1.5-.1,0-.3-.2-.4-.3-.4-.5-1-.7-1.6-.8-.3,0-.5,0-.7-.3-.8-.9-2.1-.8-2.9-1.5-.2,0-.4-.2-.6-.2-2.3,0-4.5-.4-6.8,0h-.5c-.1,0-.2,0-.3,0,0,0-.1,0-.1.2-.8.5-1.8.8-2.5,1.4-1.1.8-1.8,2-3,2.8-.4.3-.6.9-1.2,1.1-.2,0-.3.3-.4.5-.4,1-1,2-1.7,2.8-.2.3-.3.5,0,.8v.5c-.5,1-.4,2-.8,3,0,.2,0,.3.1.5.2.4.2.9.1,1.4-.3,1.4.9,2.5.8,3.9,0,0,.1,0,.1.2.8.7,1.1,1.7,1.6,2.6.3.5.5.9,1,1.1.4,0,.7.5.7.9.1,1,.8,1.6,1.8,1.9.3,0,.6,0,.8.3,1.2,1.1,3,1.5,3.9,2.9.1,0,.3.2.5.2.9,0,1.7.5,2.6.9.9.4,1.9.7,2.9.8,1.6.2,3.2,0,4.8-.2.2,0,.4-.2.4-.4h.5c.2-.4.5-.7.9-.8.8-.4,1.7-.6,2.4-1.2.1,0,.3-.3.4-.3.7,0,1-.5,1.4-1,.3-.4,1-.4.9-1.1.3,0,.5-.4.6-.7.1-.4.4-.6.8-.6.1-.2.3-.3.4-.5,0-.3.2-.5.5-.5v-.5c.3,0,.6-.2.7-.5.6-1.4,1.4-2.7,1.2-4.3-.1-.7,0-1.4.3-2.1.4-.8.4-1.7,0-2.5-.3-1.2-.9-2.5-1.5-3.8M200.2,164.1h0v-.2.2M218.8,182.8v.2c0,0,0,.3.1.4,0,0-.1-.3-.1-.4v-.2ZM217.2,182.4c.1,0,.2,0,.2-.2,0,0-.1.2-.2.2M219.6,175.9c-.3-.3-.8-.4-1.2,0-.4.3-.5.8-.3,1.3.3.9.3,1.9.1,2.9,0,.5-.2.9-.6,1.2v.5c0,.2,0,.4,0,.5,0-.2,0-.4-.1-.5-.3.2-.5.6-.5,1-.3.3-.6.5-.7.9-.5.2-.8.6-1,1-.1,0-.1,0-.2,0-.1.8-.8.8-1.3,1-.7.7-1.6.3-2.4.6-.9.5-2.1.6-3,.2-.4,0-.9-.3-1.4-.3-.4,0-.7-.3-.7-.7-.1,0-.2-.2-.3-.3-.4,0-1.1.3-1.2-.5h0c-.7,0-1.4,0-1.8-.8-.2-.3-.5-.5-.9-.5-.4,0-.8-.3-1.1-.6-.5-.3-.9-.8-1.4-1-.3,0-.5-.3-.7-.6-.7-1.5-1.8-2.6-2.6-4-.2-.4-.3-.8-.8-.9-.4,0-.3-.5-.4-.7,0-.3.1-.7-.1-1-.2-.2-.4-.5-.7-.5s-.3.4-.4.7c0,0-.1.2-.1.4-.4,0-.8,0-1.2-.3-.2,0-.4-.3-.4-.5.2-.8-.1-1.6.2-2.3.3,0,.4,0,.4.3.2.4.5.3.6,0,.3-1.2,1.2-1.4,2.3-1.4s.6-.2.8-.5c.7-1.5,1.7-2.8,3-3.9.6-.6.5-1.4.7-2.1.4,0,.5.4.5.7s0,.7.4.8c.3,0,.7,0,.9-.4.3-.6.6-.5.7,0,.1.3.2.6.6.5.4,0,.4-.3.5-.6.2-1.1.3-1.2,1.4-1,.2,0,.3,0,.4-.2,0-.3.2-.6.5-.7.4-.2.8-.3.8.3v.3c0,.2.1.4.3.5.3,0,.4-.2.4-.5s0-.3.1-.4c.3.2.6.5.9.5.7,0,1.3.2,1.5,1,.1.2.6.2.3.6-.2.3-.5.5-.9.4-.2,0-.3,0-.5-.2-.3,0-.7,0-1,.2-.2,0-.3.3-.3.5s.2.3.4.3h.1c.6-.2.7,0,.6.6-.1.4,1,1.3,1.7,1.2,1.2-.2,1.6,1.1,2.6,1.1.5,1.7,2.5,2.2,3.1,3.8.4-.3.3-.6.3-.8.1-.2.3-.4.6-.5.4,0,.4.2.5.4.1.4.3.4.6.5,1.2.2,1.2.3.9,1.4-.1.2-.1.5,0,.8.4,0,.6-.3.7-.6.1-.5.5-.2.7-.2.3,0,.3.3.2.6-.1.2-.2.4-.3.6,0,.2-.3.2-.8-.2"/>
      <path id="Path_165" class="st0" d="M209.3,62.8c.6.5.7.4,1-.2.2-.4.7-.5.8-1,.8-.2,1.4-1,2.3-.6.2,0,.6-.3.6-.6,0-.5-.4-.8-.6-1.2-.2-.2-.6-.3-.8,0-.7.3-1.4.6-1.8,1.3-.9,0-1.7.5-2.1,1.3-.2.7,0,1,.6,1.1"/>
      <path id="Path_166" class="st0" d="M173.1,100c-.1,1.1-.7,1.9-1.1,2.8-.2.4-.2.9.4,1.2.2-1.5.7-3,1.7-4.2.2-.2,0-.4-.2-.5-.4.2-.7.4-.8.7"/>
      <path id="Path_167" class="st0" d="M189.6,55.6c-.5,0-.6.3-.6.7s.2.8.6.8.6-.3.6-.8-.2-.7-.6-.7"/>
      <path id="Path_168" class="st0" d="M176.7,125c.5-.9.6-2,.2-2.9,0,0-.2,0-.3-.2-.1,0-.2.2-.2.2.4.7.2,1.4.1,2.1,0,.3,0,.6.2.8"/>
      <path id="Path_194" class="st0" d="M20.5,152.9v-.2c-.3-.3-.7-.6-1.2-.7-.2,0-.3.3-.2.4.3.3.6.6,1,.7.2,0,.4-.1.4-.2"/>
      <path id="Path_169" class="st0" d="M67.2,163.8c-.3.4-.1.8.1,1.2.3-.3.4-.8.2-1.1,0-.2-.1-.2-.3-.1,0,0,0,0,0,0"/>
      <path id="Path_170" class="st0" d="M125,108.8c-.2,0-.4.2-.3.4v.2c.1.2.2.3.3.5.2,0,.3-.3.3-.6s0-.6-.3-.5"/>
      <path id="Path_171" class="st0" d="M197,85.7c0,0,0,.2.1.2.4.2.5,0,.7-.3h0c-.3-.2-.7-.3-.8,0"/>
      <path id="Path_195" class="st0" d="M12.4,129.8c-.1,0-.3,0-.3.2h0c0,.2,0,.3.2.4h0c.2,0,.3,0,.4-.3,0-.2,0-.3-.3-.3"/>
      <path id="Path_172" class="st0" d="M199.4,83.2c-.1,0,0,.3.1.3.2,0,.4,0,.5-.3,0-.2,0-.3-.2-.3s-.3,0-.4.3"/>
      <path id="Path_193" class="st0" d="M21,101.8c0,0,0-.2-.1-.2h-.1s-.1,0-.2,0c0,0,.1.2.1.2q.2,0,.3,0"/>
      <path id="Path_173" class="st0" d="M213.4,68c0-.2.1-.3.1-.5.1-.2.1-.4-.2-.5-.2,0-.5,0-.5.2,0,.6-.5.7-.8,1-.1.2-.3.4-.5.6-.1,0-.1.3,0,.5.1,0,.2,0,.3,0,1.2,0,1.4-.2,1.6-1.4"/>
      <path id="Path_174" class="st0" d="M213.8,64.1c.1-.2.1-.4.1-.7-.1-.3.1-.7-.4-.7s-.7.4-.7.7c-.7,0-1,.2-1,.7,0,.8.3,1.4.8,1.4s.8-.5,1-.9h.1c.1.3.1.5.4.6.2,0,.3-.4.3-.6,0-.3-.2-.5-.4-.5h-.2"/>
      <path id="Path_175" class="st0" d="M212.9,70.8c-.1.3.1.6.4.7.4,0,.7.2,1,.5h-.1q.1,0,.2,0h.1c.1.2.3.3.5.2h0c.2,0,.4,0,.5,0,.4,0,.8,0,1.2,0,.4.4.9,1,1.6.7.2,0,.4,0,.5.3s.2.3.2.5c-.2.2-.5.2-.8,0-.2,0-.4,0-.6-.2-.6-.2-.9,0-1.2.6-.1.3-.1.6,0,.9.6,1.7,1.8,3,2.6,4.6.4.9,1.1.9,1.9.4,1-.6,2-1.3,3-1.9.4-.3.6-.7.5-1.2-.1-.7-.4-1.4-.9-2-.6-.9-1.4-1.8-1.8-2.9-.2-.4-.4-.8-.7-1.2-.1-.2-.2-.5-.6-.3-.3,0-.4.4-.2.7h0c.3.5.5.9.4,1.3,0,.6.1,1.3-.8.7,0,0-.1,0-.2,0-.1-.2-.1-.5,0-.8v-.3c-.6,0-.4-.6-.5-.9-.2-.7-.6-.9-1.1-.4q-.1,0-.2.2c0-.3-.2-.6-.4-.8-.8-.5-.5-.8,0-1.2.2,0,.3-.3.3-.5h-.1c-.3,0-.7,0-1,.1-.6,0-1.1.2-1,1,0,.2-.1.4-.3.4h-.1c-.7,0-1.1.6-1.8.6-.2,0-.5.1-.5.4h0"/>
      <path id="Path_192" class="st0" d="M171.8,32.3c.2.3.4.5.6.8.1.2.1.4-.2.4-.7.2-.9.5-.5,1,.3.3.5.7.7,1,.3.4.9.4,1,0,.2-.6.4-.9,1-.9s.3-.2.3-.4h0c0-.2-.2-.2-.4-.2-.6,0-1,0-1-.8s-.8-.7-.6-1.2c.5,0,.7.4,1.2.5-.1-.8.1-1.5.5-2.2-1.4.2-1.7.2-2.3.7-.7.4-.8.7-.3,1.3"/>
      <path id="Path_176" class="st0" d="M122.6,166.5c.2-.2.4-.5.6-.8.2-.3.1-.8-.2-1-1.2-.7-2.1-.3-2.1,1.2v.2c.2.3-.3,1,.2,1.2.6,0,1.1-.3,1.5-.8"/>
      <path id="Path_177" class="st0" d="M121.8,169.9c-.1-.2-.3-.2-.4-.2-.3,0-.7,0-1,.2-.3,0-.6.3-.5.6.3.7-.1,1.3-.4,1.9.4,0,.6,0,.7-.2.5-.7.7-1.5,1.6-1.9,0,.1,0-.2,0-.4"/>
      <path id="Path_178" class="st0" d="M117.6,167.4c.1.6.5.3.8.3.5.2,1,.2,1-.5.1-.4-.2-.8-.6-.9h-.1c-.5,0-1.2.7-1.1,1.1"/>
      <path id="Path_179" class="st0" d="M123.5,158.1c0-.3-.1-.4-.4-.4-.7,0-1.2.6-1.7,1-.1,0-.1.3,0,.5s.3.3.5.2c.5-.3.9-.5,1.4-.9.1,0,.1-.3.2-.4"/>
      <path id="Path_180" class="st0" d="M125.4,166.6c.4-.2.8-.4,1.2-.6.1,0,.1-.2.1-.3s-.1-.2-.2-.2h-.1c-.5.3-.9-.7-1.3,0,0,0,0-.3-.3-.3-.1.4-.1.7,0,1.1.1,0,.3.4.6.3"/>
      <path id="Path_181" class="st0" d="M122.2,162c0-.3-.1-.6-.4-.7-.2,0-.3,0-.3.2,0,.3.1.5.4.6,0,.1.2.1.3,0,0,.1,0,0,0,0"/>
      <path id="Path_182" class="st0" d="M121.4,172.3c-.1,0-.2,0-.2.2h0c0,.2.2.2.3.2s.2,0,.2-.2c0-.2-.1-.3-.3-.2"/>
      <path id="Path_183" class="st0" d="M124.5,173.1v-.2h-.1s-.1,0-.2,0c0,0,.1.2.1.2.1,0,.2,0,.2,0"/>
      <path id="Path_184" class="st0" d="M126,174.3s-.1,0-.2,0v.2h0q.1,0,.1-.1"/>
      <path id="Path_185" class="st0" d="M184.5,121.8h.1c0,0-.1,0-.1,0h0c-.4,0-.7,0-.9.3-.2.4.3.5.4.8.1.2.3.2.4.2,0-.5-.3-.9.1-1.3"/>
      <path id="Path_186" class="st0" d="M178.5,134.8h0"/>
      <path id="Path_187" class="st0" d="M178.4,134.9h0"/>
      <path id="Path_188" class="st0" d="M100.9,73.7c.1,0,.2,0,.2,0h0c0,0-.1-.2-.1-.2-.1,0-.1,0-.2,0,.1,0,.1,0,.1.2"/>
      <path id="Path_189" class="st0" d="M97.2,70.4h-.1c-.1,0,0,0,.1,0h0"/>
    </g>
  </g>
  <path class="st0" d="M136.7,187.4c-.4.5-.5,1.3-.7,2-.1.3,0,.6.5.5.3-.1.6-.1.9,0,.2,0,.3,0,.5-.1,0-.2.1-.2.2-.1h0c.7-.6,1.6-.5,2.5-.7,0-.2,0-.4.3-.4"/>
  <path class="st0" d="M59.7,199c0,.8.7,1.2,1.2,1.8h0c.8,1,1.9,1.3,2.8.8,1.2-.7,2.5-1.3,3.3-2.6.7-1.2.7-2.6-.5-3.4-.5-.3-1-.5-1.4-.8-.5-.3-1.1-.5-1.7-.4-.3.1-.7.1-1,.1-.9-.1-1.5.4-2,1h0c-.6.2-.6.8-.6,1.3,0,.5-.3,1-.7,1.4.2,0,.5.4.6.8Z"/>
  <path class="st0" d="M189.5,225.2s.1-.1,0,0c.3-.1.4-.1,0,0Z"/>
  <path class="st0" d="M189.6,225.1s-.1.1,0,0c.3,0,.2,0,0,0Z"/>
  <path class="st0" d="M103.2,223.2c-.2,1.1,0,2.1.4,2.8.5.8,1.2,1.3,2.2,1.5l1.5.3.6-2.7-1.1-.2c-.7-.1-.9-.6-.8-1.3l1.6-7.8c-1-.4-1.9-.7-2.7-1.1l-1.7,8.5Z"/>
  <path class="st0" d="M103.6,214.2h.5-.5Z"/>
  <path class="st0" d="M108.6,211.1l.3-1.2c-.3.1-.6.1-.9.2.3-.1.6-.2,1-.3l.3-1.4-2.8-.6-.8,3.9h0c.9-.2,1.9-.4,2.8-.6Z"/>
  <path class="st0" d="M104,211.9h0q0,.1.2,0h-.2Z"/>
  <path class="st0" d="M108.3,212.8l.2-.9h0c-1.1.2-2.3.3-3.4.5,1.7.7,3.3,1.5,5.1,2.2l.3-1.5-2.1-.3Z"/>
  <path class="st0" d="M90.3,215.3c.5.9,1.3,1.6,2.4,2.1l2.3,1c.5.2.9.4,1.1.7s.3.7,0,1.2c-.2.6-.6.9-1.2,1.1-.6.1-1.3.1-2.1-.2-1.8-.6-3-1.7-3.7-3.2l-2.6,1.3c1.2,2.3,2.9,3.8,5.1,4.5,1.6.5,3.1.6,4.4.2,1.3-.4,2.2-1.3,2.7-2.6.4-1.2.4-2.2,0-3.2-.4-1-1.2-1.8-2.6-2.4l-2.2-.9c-.3-.2-.6-.3-.8-.5-1.1.2-2.1.4-3.2.6,0,.2.2.2.2.3Z"/>
  <path class="st0" d="M90.1,212.1c-.3.9-.3,1.8,0,2.6,1-.2,2-.4,3-.6,0,0,0-.1,0-.1-.2-.3-.3-.7,0-1,.2-.5.5-.8.9-1s1.1-.2,2,.1c.8.3,1.4.6,1.9,1,0,0,0,0,0,.1.9-.2,1.8-.3,2.6-.5-2.2-.9-4.5-1.9-8-3.2-1,.4-1.7,1.3-2.2,2.6Z"/>
  <path class="st0" d="M98.1,213.6c.3.3.6.7.9,1.1l2.4-1.5s0-.1,0-.1h0c-1,.2-2.1.4-3.1.5Z"/>
  <path class="st0" d="M77.2,217.5l5.4,2.9,1.4-2.6-2-1c-.7.1-1.5.3-2.2.4-.8,0-1.7.1-2.6.3Z"/>
  <path class="st0" d="M77.9,216.5c-.6.1-1.3.2-1.9.3h0c1.6,0,3.1-.3,4.6-.5.2,0,.3,0,.5-.1h-.3c-1,0-2,.2-3,.3Z"/>
  <path class="st0" d="M75.5,215.8h1.2c.4-.1.7-.2,1.1-.2s.7-.1,1.1-.1.5-.1.8-.1l-4.3-2.3,2.9-5.4,7.4,3.9,1.3-2.5-7.4-3.9.4-.7c-.9-.4-1.9-.7-2.9-1.1l-5.7,10.9,3,1.6h0c.2,0,.6,0,1,0Z"/>
  <path class="st0" d="M82.3,200l8.7,4.6,1.4-2.6-11.4-6-3.2,6c.9.3,1.9.7,2.9,1.1l1.6-3.1Z"/>
  <path class="st0" d="M65.5,198.3c.6.2,1,.4,1.5.6.7-1.2.6-2.6-.6-3.3-.5-.3-1-.5-1.4-.8-.5-.3-1.1-.5-1.7-.4-.3.1-.7.1-1,.1-.9-.1-1.5.4-2,1h0c.5.2,1,.4,1.5.6.4.4-3.3-.7,3.8,2.2Z"/>
  <path class="st0" d="M190.2,198.3c.6.2,1,.4,1.5.6.7-1.2.6-2.6-.6-3.3-.5-.3-1-.5-1.4-.8-.5-.3-1.1-.5-1.7-.4-.3.1-.7.1-1,.1-.9-.1-1.5.4-2,1h-.1c.5.2,1,.4,1.5.6.4.4-3.3-.7,3.8,2.2Z"/>
  <path class="st0" d="M59.7,196.7c0,.5-.3,1-.7,1.4.4.2.6.5.7.9,0,.8.7,1.2,1.2,1.8h0c.8,1,1.9,1.3,2.8.8,1.1-.6,2.2-1.1,3-2.1-2.5-1-4.8-1.9-7-2.8h0Z"/>
  <path class="st0" d="M183.5,196.7c-.1.5-.3,1-.7,1.4.4.2.6.5.7.9.1.8.7,1.2,1.2,1.8h0c.8,1,1.9,1.3,2.8.8,1.1-.6,2.2-1.1,3-2.1-2.5-1-4.8-1.9-7-2.8h0Z"/>
  <path class="st0" d="M112.3,227.8c-.2.1-.2,0-.5.1q0,0-.2.1c0,0-.2.1-.3.1v.2h0q0,0,.2-.1c0-.1.3-.1.4-.2.2-.1.4-.2.6-.2s.2-.1.2,0c-.3.2-.6.4-1,.5l2.3.3.3-2.3c-.3.2-.7.5-1,.7-.3.4-.7.6-1.1.8Z"/>
  <path class="st0" d="M112.1,226.9c.4-.2.7-.4,1.1-.6.3-.2.6-.4.9-.6l-2.4-.3-.2,1.8h0c.2,0,.3-.2.5-.3Z"/>
  <path class="st0" d="M131.4,219.4l-1.7,2.6c.7.2,1.4.5,2.1.7.3.1.5.2.8.3l2.9-4.3c-1.5.2-2.8.4-4.1.7Z"/>
  <path class="st0" d="M134,217.8c-.3.1-.5.1-.5.2,0,0,.3,0,1.1-.1.4,0,.7-.1,1-.1h.3v-.2c.8-1.1,1.2-2.4,1.1-3.7-.1-1.7-.8-3.1-1.9-4.1-1.2-1.1-2.6-1.5-4.3-1.4-1.5.1-2.8.8-3.8,1.9-1,1.2-1.4,2.7-1.4,4.4l2.9-.2c0-1,.3-1.7.8-2.3s1.1-.9,1.9-.9,1.6.2,2.1.8.8,1.2.8,2v.9c-.1.4-.3.8-.5,1.2l-1.2,1.8c.5-.1,1.1-.2,1.7-.2,1.1-.3.5,0-.1,0Z"/>
  <path class="st0" d="M129.4,222.3v.2c.7.2.5,0,0-.2Z"/>
  <path class="st0" d="M136.2,226l-6,.4,1.3-1.9c-.9-.3-1.9-.5-2.9-.9l-2.1,3.2.2,2.8,11.5-.7v-2.3c-.3-.1-.6-.1-.8-.2-.5-.2-.9-.3-1.2-.4Z"/>
  <path class="st0" d="M155,203.5h0l-2,3,1.1,3,1.9-3,4.4,11.6c.8-.5,1.6-1.1,2.5-1.6l-5.1-13.5c-1,0-1.9.3-2.8.5Z"/>
  <path class="st0" d="M160.7,218.8l1.6,4.2,2.7-1-1.9-5c-.1,0-.2.1-.2.1-.6.4-1.3,1-2.2,1.7Z"/>
  <path class="st0" d="M176.7,216.4l2.5-1.4-3.4-6c-.8.5-1.6,1.1-2.4,1.6l3.3,5.8Z"/>
  <path class="st0" d="M170.9,200.2v-.2c-2.4.4-4,.7-5.5,1l-.3.6,1.6,2.8,1.4-3.3,4.8,8.6c.7-.5,1.5-1,2.4-1.6l-4.3-7.7c-.4-.1-.5-.1,0-.2Z"/>
  <path class="st0" d="M169,196.9l-2.5,1.4-.7,1.6c1.5-.2,2.9-.4,4.5-.6l-1.3-2.4Z"/>
  <path class="st0" d="M150.5,225.9c-.1.1-.2.1-.3.2-.1.1-.2.1-.3.2-.4.2-.6.4-.6.4.2-.1.4-.1.5-.2l.5-.2h.1c.3-.2.6-.5.9-.8-.1.1-.3.2-.4.2,0,0-.2.1-.4.2Z"/>
  <path class="st0" d="M152.6,220.1l-2-9c-.4-1.9-1.3-3.2-2.6-4s-2.7-1-4.2-.7-2.7,1.1-3.5,2.3c-.9,1.3-1.2,2.8-.8,4.7l.8,3.6h3l-.9-4c-.4-2,.3-3.3,2.1-3.7s3,.5,3.5,2.5l1.9,8.6c.4,2.1-.3,3.3-2.1,3.7s-3-.5-3.4-2.5l-.9-4c-1,.1-2,.2-2.9.2l1,4.6c.3,1.5,1,2.6,1.9,3.4,1.1.1,2.2.2,3.3,0,.2,0,.3,0,.5-.1h.5c.2-.1.3-.2.5-.2h.5c0-.1.5-.2.5-.2h.2c0-.1.2-.2.2-.2l.5-.2.5-.2c.1,0,.1-.1.2-.1s.1-.1.2-.1c.1-.1.3-.2.4-.3.3-.2.6-.4.9-.6.2-.1.3-.2.5-.3,0-.8,0-2-.3-3.2Z"/>
  <path class="st0" d="M40.4,189.1c-.3-.1-.5-.2-.8-.3.3.1.6.2.8.3Z"/>
  <path class="st0" d="M104.1,214.3c.3.1.6.2.9.4v-.2l-.9-.2Z"/>
  <path class="st0" d="M129.4,222.3l.2-.3c-.4-.1-.8-.3-1.2-.4-1-.3.3.3,1,.7Z"/>
  <path class="st0" d="M101.3,213.1h0c.8.4,1.5.7,2.3,1l.3-1.4c-.9.1-1.8.3-2.6.4Z"/>
  <path class="st0" d="M85.1,214.6c1.4-.2,2.8-.5,4-.8-2.1.4-3.4.7-4,.8Z"/>
  <path class="st0" d="M146.4,203.4c.1,0,.3,0,.5-.1.9-.2,1.7-.5,2.5-.6l-3,.7Z"/>
  <path class="st0" d="M104,212h0q0,0,0,0h0Z"/>
  <path class="st0" d="M105.6,211.7c-.4.1-.9.2-1.3.3l1.2.3v-.6Z"/>
  <path class="st0" d="M103.9,212.7c.4-.1.7-.1,1.1-.2-.3-.1-.6-.3-1-.4v.6Z"/>
  <path class="st0" d="M100.4,212.7c.3.1.6.2.9.4h0c0-.2-.2-.3-.3-.5-.3.1-.5.1-.7.1Z"/>
  <polygon class="st0" points="39.3 208.2 39.2 208.3 39.2 208.3 39.3 208.2"/>
  <path class="st0" d="M144.7,217.6c1.9-.4,1-.5-.7-.5h-.9v.6c.7,0,1.2,0,1.6-.1Z"/>
</svg>