<?xml version="1.0" encoding="UTF-8"?>
<svg id="Layer_1" xmlns="http://www.w3.org/2000/svg" version="1.1" viewBox="0 0 260 260">
  <!-- Generator: Adobe Illustrator 29.2.0, SVG Export Plug-In . SVG Version: 2.1.0 Build 108)  -->
  <g id="Layer_11" data-name="Layer_1">
    <path d="M130,258.9C58.7,258.9.8,200.9.8,129.7S58.7.4,130,.4s129.2,58,129.2,129.2-58,129.2-129.2,129.2h0ZM130,6.1C61.9,6.1,6.4,61.5,6.4,129.7s55.4,123.6,123.6,123.6,123.6-55.4,123.6-123.6S198.1,6.1,130,6.1Z"/>
    <path d="M46,48.9c-1.5,0-2.6-1.2-2.6-2.6h2.6v-2.6,2.6h2.6-2.6v2.6Z"/>
    <g>
      <path d="M55.4,99.4l-2.3-1.3,5.4-10.1-7-3.9-5,9.2-2.3-1.3,5-9.2-9.2-5,1.4-2.6,21,11.5-6.9,12.7s0,0-.1,0Z"/>
      <path d="M27.3,110.3c1-5.3,4.8-7.9,12.4-6.5l2.6.5c7.6,1.5,10.1,5.4,9.1,10.6-1,5.3-4.8,7.9-12.4,6.5l-2.6-.5c-7.6-1.5-10.1-5.4-9.1-10.6ZM39.2,106.8c-5.8-1.1-8.5.4-9.2,4s1.1,6,7,7.1l2.6.5c5.8,1.1,8.5-.4,9.2-4s-1.1-6-7-7.1l-2.6-.5Z"/>
      <path d="M26.2,143.1c-.7-5.3,2.2-9,9.9-10l2.6-.3c7.7-.9,11.3,2.1,11.9,7.3s-2.2,9-9.9,10l-2.6.3c-7.7.9-11.3-2.1-11.9-7.3ZM36.3,136.1c-5.9.8-7.9,3-7.5,6.7s3,5.4,8.8,4.7l2.6-.3c5.9-.8,7.9-3,7.5-6.7s-3-5.4-8.8-4.7l-2.6.3Z"/>
      <path d="M32.3,167.8l21.7-10.2,3.3,7c2.3,4.8,1,9.1-6,12.4l-2.3,1c-7,3.3-11.2,1.5-13.4-3.3l-3.3-7h0ZM47.7,175.3l2.3-1c5.4-2.5,6.4-5.3,4.8-8.5l-2-4.2-16.8,7.9,2,4.2c1.6,3.3,4.3,4.2,9.7,1.7h0Z"/>
      <path d="M83.1,202.2c0-2.1-.4-3.9-2.8-5.7-2.3-1.7-4.5-1.8-6,.2-1.7,2.3-.6,4.3,1.9,7,3.2,3.4,4.5,6.4,1.8,10-1.9,2.5-5.7,4.1-10.5.6-3.1-2.3-4.6-5.1-4.5-8.3h3c.2,2.5.7,4.2,3.1,6.1,3.1,2.3,5.2,1.6,6.4,0,1.3-1.8,1.3-3.8-1.9-7-3.2-3.3-4.2-6.8-1.8-10.1,2.1-2.7,5.6-3.9,10.1-.6,3.1,2.3,4.2,4.8,4,7.9h-2.8,0Z"/>
      <path d="M113.1,209.3l-4.4,13.5c-2.3,6.8-6.3,8.5-11.4,6.9-5.1-1.7-7.3-5.5-5.2-12.2l4.4-13.5,2.8.9-4.4,13.5c-1.6,5-.4,7.6,3.1,8.7,3.5,1.1,6-.2,7.7-5.2l4.4-13.5,2.8.9h.2Z"/>
      <path d="M126.6,225.5l.2,9.1h-3l-.4-24h7.6c5.5-.2,8.7,2.5,8.8,7.1,0,4.6-3,7.4-8.6,7.5h-4.7v.2h0ZM131.2,222.7c4,0,5.7-1.8,5.6-4.8,0-3-1.8-4.7-5.8-4.6h-4.7l.2,9.5h4.7Z"/>
      <path d="M155.8,221.9l2.9,8.6-2.8.9-7.5-22.7,7.2-2.4c5.3-1.8,9.1,0,10.6,4.3,1.4,4.4-.7,8-5.9,9.8l-4.4,1.5h-.1ZM159.3,217.9c3.9-1.3,4.9-3.5,3.9-6.3s-3.1-3.9-7-2.7l-4.4,1.5,3,8.9,4.4-1.5h.1Z"/>
      <path d="M186.2,214.9l9.4-6.6,1.6,2.3-11.8,8.4-13.8-19.5,2.4-1.7,12.3,17.4v-.2h0Z"/>
      <path d="M197.7,174l2.2,1.7-7.1,9,5.9,4.7,6.5-8.2,2.2,1.7-6.5,8.2,6.6,5.2,7.1-9,2.2,1.7-9,11.3-18.8-14.9,9-11.3h-.3,0Z"/>
      <path d="M219.6,161.9l-11.7-11.7.9-2.8,22.6,7.9-1,2.8-16.6-5.8,10,9.7-.8,2.5-13.7,1.3,16.5,5.8-1,2.8-22.6-7.9.9-2.7,16.4-1.9h.2,0Z"/>
      <path d="M210.2,122.1h2.7l-.2,11.6h7.5l.2-10.3h2.7l-.2,10.4h8.4l.2-11.4h2.7l-.2,14.5-24-.4.2-14.5h0Z"/>
      <path d="M203.9,98.3l22.8-7.2.8,2.8-14.2,15.4,17.3-5.5.9,2.8-22.8,7.2-.8-2.7,14.3-15.5-17.5,5.5-.9-2.8h0Z"/>
      <path d="M190.3,77l2.3-1.6,4.2,5.9,17.4-12.3,1.7,2.4-17.4,12.3,4.2,5.9-2.3,1.6-10.1-14.4h0v.2h0Z"/>
    </g>
    <path d="M89.8,123.5h33.2v-33.6h10.4v33.6h33.6v10.4h-33.6v33.2h-10.4v-33.2h-33.2v-10.4h0Z"/>
  </g>
</svg>