<?xml version="1.0" encoding="UTF-8"?>
<svg id="Layer_1" xmlns="http://www.w3.org/2000/svg" version="1.1" viewBox="0 0 259.4 259.4">
  <!-- Generator: Adobe Illustrator 29.2.0, SVG Export Plug-In . SVG Version: 2.1.0 Build 108)  -->
  <defs>
    <style>
      .st0 {
        fill: #1d1d1d;
      }
    </style>
  </defs>
  <g>
    <path class="st0" d="M102.8,210.6h-5.7v-8.7c0-4.4,2.5-20.3,34.4-40.7.1,0,10.1-6.4,18.3-14.5,4.4-4.4,6.9-10.2,6.9-16.3,0-6.1-2.5-11.9-6.9-16.3-8.2-8-18.1-14-18.2-14.1-32-20.4-34.4-36.3-34.4-40.8v-8.7h5.7v8.7c0,2.6,1.5,16.6,31.7,35.9.4.2,10.5,6.4,19.2,14.8,5.6,5.4,8.6,12.7,8.6,20.3,0,7.7-3,14.9-8.6,20.4-8.6,8.5-18.8,15-19.3,15.2-30.2,19.3-31.7,33.3-31.7,35.9v8.7h0Z"/>
    <path class="st0" d="M162.3,210.6h-5.7v-8.7c0-2.6-1.5-16.6-31.7-35.9-.4-.3-10.6-6.7-19.2-15.2-5.5-5.5-8.6-12.7-8.6-20.4,0-7.7,3.1-14.9,8.6-20.3,8.7-8.5,18.8-14.6,19.2-14.9,30.1-19.2,31.7-33.2,31.7-35.8v-8.7h5.7v8.7c0,4.4-2.5,20.3-34.4,40.7-.2,0-10.1,6.1-18.3,14.1-4.4,4.3-6.9,10.1-6.9,16.3,0,6.1,2.4,11.9,6.9,16.3,8.2,8.1,18.2,14.4,18.3,14.5,31.9,20.4,34.4,36.3,34.4,40.7v8.7h0Z"/>
    <rect class="st0" x="99.9" y="56.3" width="44.3" height="5.7"/>
    <rect class="st0" x="136.7" y="73.2" width="15.1" height="5.7"/>
    <rect class="st0" x="107.6" y="73.2" width="12.2" height="5.7"/>
    <rect class="st0" x="118.2" y="199.1" width="41.3" height="5.7"/>
    <rect class="st0" x="143.2" y="182.2" width="8.6" height="5.7"/>
    <rect class="st0" x="107.6" y="182.2" width="20.8" height="5.7"/>
    <rect class="st0" x="107.7" y="109.2" width="26.1" height="5.7"/>
    <rect class="st0" x="123.6" y="146.2" width="27.7" height="5.7"/>
    <rect class="st0" x="140.2" y="127.7" width="19.3" height="5.7"/>
    <rect class="st0" x="99.9" y="127.7" width="26.3" height="5.7"/>
    <path class="st0" d="M129.7.5C58.4.5.5,58.5.5,129.7s58,129.2,129.2,129.2,129.2-58,129.2-129.2S201,.5,129.7.5ZM129.7,253.3c-68.1,0-123.6-55.4-123.6-123.6S21.2,62.2,45.2,39.7l67.1,67.1,4.1-4.1L49.4,35.8c21.6-18.5,49.6-29.7,80.3-29.7,68.1,0,123.6,55.4,123.6,123.6s-11.2,58.6-29.7,80.3l-67.1-67.1-4.1,4.1,67.3,67.3c-22.6,24-54.6,39-90,39h0Z"/>
  </g>
  <g>
    <path d="M34,111.6l-1.3-.4c-7.3-2.1-9.3-6.3-7.9-11.3,1.5-5,5.4-7.3,12.7-5.2l2.5.7c7.3,2.1,9.4,6.2,7.9,11.2-1.3,4.4-4.5,6.7-9.6,6l.8-2.7c3.6.3,5.5-1.1,6.3-4,1-3.5-.6-6-6.2-7.6l-2.5-.7c-5.6-1.6-8.3-.4-9.3,3.1-.9,3.2.3,5.7,4.9,7.3l1.6-5.4,2.5.7-2.4,8.2Z"/>
    <path d="M29.6,133.9l14.8,6.5v2.9c0,0-23.4.7-23.4.7v-2.9c0,0,17.1-.5,17.1-.5l-12.5-5.3v-2.6c0,0,11.9-6,11.9-6l-17.1.5v-2.9c0,0,23.4-.7,23.4-.7v2.9c0,0-14.3,7.5-14.3,7.5Z"/>
    <path d="M27.1,168c-1.8-4.9,0-9.1,7.1-11.7l2.4-.9c7.1-2.6,11.2-.6,13,4.3,1.8,4.9,0,9.1-7.1,11.7l-2.4.9c-7.1,2.6-11.2.6-13-4.3ZM35.2,159.1c-5.5,2-6.9,4.6-5.7,8s4,4.5,9.5,2.5l2.4-.9c5.5-2,6.9-4.6,5.7-8s-4-4.5-9.5-2.5l-2.4.9Z"/>
    <path d="M211.5,156.7l2.4,1-4.4,10.3,7.3,3.1,4-9.4,2.4,1-4,9.4,9.4,4-1.1,2.7-21.6-9.2,5.5-13Z"/>
    <path d="M238.5,138.2l-10.4,3.6-.7,5.5,9.8,1.2-.4,2.9-23.3-2.9.9-7.4c.7-5.4,3.3-8.2,7.8-7.6,3.3.4,5.1,2.3,5.6,5.4l11-3.9-.4,3.2ZM225.4,142.5c.5-3.9-.5-5.7-3.4-6.1-2.9-.4-4.3,1.1-4.8,5.1l-.6,4.5,8.2,1,.6-4.5Z"/>
    <path d="M213,109.7l2.6-.4,1.7,11.1,7.3-1.1-1.6-10.1,2.6-.4,1.6,10.1,8.1-1.2-1.7-11.1,2.6-.4,2.2,14-23.2,3.6-2.2-14Z"/>
    <path d="M204.5,88.5l2.4-1.1,4.6,10.2,6.7-3-4.2-9.3,2.4-1.1,4.2,9.3,7.4-3.3-4.6-10.2,2.4-1.1,5.8,12.9-21.4,9.6-5.8-12.9Z"/>
  </g>
</svg>