<?xml version="1.0" encoding="UTF-8"?><svg id="Layer_1" xmlns="http://www.w3.org/2000/svg" viewBox="0 0 219.66 218.91"><path d="M29.6,76.63l5.71,2.35,2.82-6.85,1.91.79-2.82,6.85,7.11,2.93-.88,2.13-16.64-6.85,4.15-10.08,1.91.79-3.27,7.95Z" fill="#000" stroke-width="0"/><path d="M50.42,68.55c-1.43.54-2.9.64-4.42.3-1.52-.34-3-1.05-4.42-2.12-1.4-1.06-2.47-2.27-3.2-3.64-.73-1.37-1.04-2.82-.92-4.35.12-1.53.73-3.03,1.85-4.51,1.11-1.46,2.38-2.46,3.82-2.98,1.44-.52,2.92-.62,4.44-.29,1.53.33,2.98,1.02,4.37,2.07,1.43,1.08,2.51,2.31,3.25,3.68.74,1.37,1.04,2.82.92,4.34-.13,1.52-.75,3.01-1.85,4.48-1.12,1.48-2.39,2.48-3.82,3.02ZM53.87,61.06c.05-1.14-.23-2.24-.84-3.3-.6-1.06-1.47-2.02-2.59-2.87-1.08-.82-2.21-1.37-3.39-1.64-1.17-.27-2.3-.23-3.37.13-1.07.36-2,1.05-2.77,2.07-.8,1.06-1.23,2.16-1.27,3.29-.05,1.14.23,2.23.83,3.27.6,1.05,1.45,1.99,2.54,2.82,1.12.85,2.27,1.42,3.44,1.71,1.17.29,2.29.26,3.37-.1,1.07-.36,2.01-1.07,2.82-2.13.78-1.04,1.2-2.12,1.24-3.26Z" fill="#000" stroke-width="0"/><path d="M63.87,53.41c-1.52.1-2.96-.22-4.33-.98-1.36-.76-2.57-1.86-3.63-3.3-1.04-1.42-1.71-2.89-2.02-4.41-.31-1.52-.19-3,.36-4.43.55-1.43,1.57-2.7,3.06-3.79,1.48-1.09,2.98-1.67,4.51-1.76,1.53-.09,2.97.25,4.34,1,1.37.76,2.57,1.83,3.59,3.24,1.06,1.44,1.74,2.93,2.06,4.45.31,1.53.19,3-.37,4.42-.56,1.42-1.58,2.67-3.06,3.76-1.49,1.09-3,1.69-4.52,1.8ZM69.32,47.22c.37-1.08.42-2.21.14-3.4-.27-1.19-.83-2.35-1.66-3.49-.8-1.1-1.73-1.95-2.78-2.54-1.05-.6-2.14-.88-3.27-.84-1.13.04-2.21.43-3.25,1.19-1.07.79-1.79,1.72-2.16,2.79-.37,1.08-.42,2.2-.15,3.37.27,1.17.82,2.32,1.63,3.43.83,1.14,1.77,2.01,2.81,2.62,1.04.61,2.12.9,3.25.87,1.13-.03,2.23-.45,3.31-1.23,1.05-.77,1.75-1.69,2.12-2.76Z" fill="#000" stroke-width="0"/><path d="M85.48,25.38c1.94.92,3.41,2.78,4.42,5.56,1.01,2.8,1.06,5.16.16,7.09-.9,1.92-2.76,3.39-5.56,4.4l-5.63,2.03-6.1-16.93,5.63-2.03c2.78-1,5.15-1.04,7.09-.12ZM84.29,27.31c-1.42-.68-3.16-.65-5.22.09l-3.46,1.25,4.73,13.13,3.46-1.25c2.07-.75,3.43-1.83,4.08-3.26.65-1.43.57-3.29-.26-5.58-.81-2.23-1.92-3.69-3.34-4.37Z" fill="#000" stroke-width="0"/><path d="M102.4,37.19v-2.18c1.82.96,3.87,1.45,6.15,1.44,1.31,0,2.27-.28,2.88-.83.61-.55.91-1.28.91-2.19,0-.85-.28-1.5-.84-1.92-.56-.43-1.39-.8-2.48-1.11l-1.62-.45c-.92-.27-1.7-.58-2.35-.92-.65-.35-1.19-.85-1.63-1.51-.44-.66-.65-1.51-.65-2.58,0-1.69.49-2.98,1.48-3.87.99-.89,2.39-1.33,4.21-1.33,1.06,0,2,.1,2.8.3.81.2,1.65.49,2.52.89v2.14c-1.61-.87-3.39-1.3-5.32-1.3-1.17,0-2.03.27-2.56.82-.54.55-.81,1.29-.81,2.24.02.87.28,1.51.8,1.92.51.41,1.32.77,2.41,1.09l1.64.45c.97.27,1.79.58,2.46.94.67.36,1.22.87,1.64,1.54.42.67.63,1.55.63,2.62-.02,1.57-.56,2.81-1.65,3.72-1.08.91-2.58,1.37-4.47,1.37-2.29,0-4.34-.43-6.15-1.28Z" fill="#000" stroke-width="0"/><path d="M129.98,35.87l-7.28-1.8-3.12,4.63-2.3-.57,10.93-16.06,2.49.61,2.23,19.31-2.3-.57-.63-5.56ZM129.72,33.68l-.96-8.5-4.8,7.08,5.76,1.42Z" fill="#000" stroke-width="0"/><path d="M145.57,30.59l-2.86,5.47,6.57,3.43-.96,1.83-6.57-3.43-3.56,6.82-2.04-1.07,8.32-15.96,9.66,5.04-.96,1.83-7.62-3.98Z" fill="#000" stroke-width="0"/><path d="M158.88,56.74l-1.29,1.52-8.39-7.14,11.66-13.71,8.3,7.06-1.29,1.52-6.55-5.57-3.86,4.54,5.64,4.8-1.29,1.52-5.64-4.8-3.92,4.61,6.64,5.65Z" fill="#000" stroke-width="0"/><path d="M180.24,61.33l-3.24-4.34-12.76,9.54-1.39-1.86,12.76-9.54-3.24-4.33,1.65-1.24,7.88,10.53-1.65,1.24Z" fill="#000" stroke-width="0"/><path d="M178.53,78.06l-6.4,2.73-.89-2.1,6.4-2.73,7.57-10.4.93,2.18-6.26,8.5,10.48,1.39.93,2.18-12.75-1.77Z" fill="#000" stroke-width="0"/><path d="M44.62,166.63c-.32-1.49-.19-2.96.4-4.39.59-1.44,1.57-2.8,2.96-4.08,1.3-1.2,2.69-2.05,4.17-2.52,1.47-.48,2.96-.51,4.46-.1,1.5.41,2.91,1.33,4.22,2.75.57.62,1.03,1.21,1.38,1.79.35.57.66,1.25.95,2.02l-1.55,1.43c-.44-1.43-1.17-2.71-2.22-3.83-.9-.98-1.92-1.61-3.04-1.91-1.13-.3-2.27-.26-3.45.12-1.17.38-2.27,1.04-3.3,2.01-1.07.99-1.84,2.05-2.31,3.17s-.6,2.25-.4,3.38c.2,1.13.76,2.19,1.67,3.17.57.62,1.22,1.14,1.95,1.58.73.44,1.56.84,2.5,1.2l-.93,1.86c-.97-.35-1.89-.82-2.76-1.39-.87-.58-1.61-1.2-2.24-1.88-1.31-1.42-2.13-2.87-2.45-4.36Z" fill="#000" stroke-width="0"/><path d="M67.29,184l-1.11,1.65-9.14-6.15,10.04-14.94,9.04,6.08-1.11,1.65-7.13-4.79-3.32,4.95,6.15,4.13-1.11,1.65-6.15-4.13-3.38,5.02,7.23,4.86Z" fill="#000" stroke-width="0"/><path d="M81.31,184.13l-3.27-1.23-2.67,7.14-2.16-.81,6.31-16.85,5.89,2.21c3.68,1.38,4.9,3.7,3.68,6.96-.48,1.29-1.18,2.22-2.09,2.78s-2.03.73-3.35.51l1.78,8.98-2.47-.93-1.66-8.76ZM78.75,181.02l3.74,1.4c2.19.82,3.66.26,4.41-1.69.39-1.04.4-1.9.03-2.59-.37-.69-1.11-1.24-2.22-1.66l-3.74-1.4-2.22,5.94Z" fill="#000" stroke-width="0"/><path d="M106.39,181.05l-5.37-.68-2.01,15.8-2.31-.29,2.01-15.8-5.37-.68.26-2.05,13.05,1.66-.26,2.05Z" fill="#000" stroke-width="0"/><path d="M110.35,178.7l2.3-.1.75,17.98-2.3.1-.75-17.98Z" fill="#000" stroke-width="0"/><path d="M120.6,179.79l1.28,6.04,7.25-1.53.43,2.02-7.25,1.53,1.59,7.53-2.25.48-3.72-17.61,10.66-2.25.43,2.02-8.41,1.78Z" fill="#000" stroke-width="0"/><path d="M132.17,174.48l2.14-.85,6.61,16.74-2.14.85-6.61-16.74Z" fill="#000" stroke-width="0"/><path d="M156.88,179.54l1.04,1.7-9.42,5.72-9.35-15.38,9.31-5.66,1.04,1.7-7.34,4.46,3.09,5.09,6.33-3.85,1.04,1.7-6.33,3.85,3.14,5.17,7.45-4.52Z" fill="#000" stroke-width="0"/><path d="M162.06,156.28c2.15,0,4.28,1.04,6.38,3.13,2.11,2.1,3.17,4.21,3.18,6.33,0,2.13-1.03,4.25-3.13,6.36l-4.21,4.25-12.78-12.67,4.21-4.25c2.08-2.1,4.2-3.15,6.35-3.15ZM161.82,158.53c-1.58,0-3.14.77-4.67,2.32l-2.59,2.61,9.92,9.83,2.59-2.61c1.55-1.56,2.31-3.13,2.29-4.7-.02-1.57-.9-3.22-2.63-4.93-1.69-1.67-3.32-2.51-4.9-2.51Z" fill="#000" stroke-width="0"/><path d="M53.22,102.24v42.38h-10.06v-17h-16.72v17h-10.06v-42.38h10.06v16.77h16.72v-16.77h10.06Z" fill="#000" stroke-width="0"/><path d="M84.58,136.01h-16.38l-2.96,8.61h-10.06l14.81-42.88h12.75l14.87,42.88h-10.06l-2.96-8.61ZM81.67,127.4l-5.31-15.43-5.25,15.43h10.57Z" fill="#000" stroke-width="0"/><path d="M102.61,139.7c-3.71-3.91-5.56-9.3-5.56-16.16,0-4.17.84-7.93,2.52-11.26,1.68-3.34,4.19-5.97,7.55-7.91,3.35-1.94,7.44-2.91,12.24-2.91,1.98,0,3.74.16,5.28.48,1.55.32,3.21.85,5,1.59v8.72c-3.17-1.53-6.5-2.29-10.01-2.29-2.42,0-4.58.59-6.46,1.76-1.88,1.17-3.35,2.79-4.39,4.84-1.04,2.05-1.57,4.36-1.57,6.93,0,4.1,1.07,7.39,3.21,9.87,2.14,2.48,5.12,3.72,8.92,3.72,1.79,0,3.54-.27,5.25-.81,1.71-.54,3.52-1.31,5.42-2.32l2.96,8.22c-2.16,1.12-4.44,1.97-6.82,2.54-2.39.58-4.66.87-6.82.87-7.45,0-13.04-1.96-16.74-5.87Z" fill="#000" stroke-width="0"/><path d="M138.28,139.7c-3.71-3.91-5.56-9.3-5.56-16.16,0-4.17.84-7.93,2.52-11.26,1.68-3.34,4.19-5.97,7.55-7.91,3.35-1.94,7.44-2.91,12.24-2.91,1.97,0,3.74.16,5.28.48,1.55.32,3.21.85,5,1.59v8.72c-3.17-1.53-6.5-2.29-10.01-2.29-2.42,0-4.58.59-6.46,1.76-1.88,1.17-3.35,2.79-4.39,4.84-1.04,2.05-1.57,4.36-1.57,6.93,0,4.1,1.07,7.39,3.21,9.87,2.14,2.48,5.12,3.72,8.92,3.72,1.79,0,3.54-.27,5.25-.81,1.71-.54,3.52-1.31,5.42-2.32l2.96,8.22c-2.16,1.12-4.44,1.97-6.82,2.54-2.39.58-4.66.87-6.82.87-7.46,0-13.04-1.96-16.74-5.87Z" fill="#000" stroke-width="0"/><path d="M200.16,105.79c2.7,2.37,4.05,5.9,4.05,10.59s-1.35,8.07-4.05,10.45c-2.7,2.39-6.74,3.58-12.1,3.58h-7.1v14.2h-10.06v-42.38h17.16c5.37,0,9.4,1.18,12.1,3.55ZM192.53,120.58c.97-.89,1.47-2.29,1.51-4.19,0-1.98-.48-3.41-1.45-4.3-.97-.89-2.48-1.34-4.53-1.34h-7.1v11.18h7.1c2.01,0,3.5-.45,4.47-1.34Z" fill="#000" stroke-width="0"/><polygon points="100.06 96.73 83.25 79.92 89.33 73.85 100.06 84.58 132.23 52.41 138.31 58.49 100.06 96.73" fill="#000" stroke-width="0"/></svg>