<?xml version="1.0" encoding="UTF-8"?>
<svg id="Layer_1" xmlns="http://www.w3.org/2000/svg" version="1.1" viewBox="0 0 259.4 259.4">
  <!-- Generator: Adobe Illustrator 29.2.0, SVG Export Plug-In . SVG Version: 2.1.0 Build 108)  -->
  <defs>
    <style>
      .st0 {
        fill: #1d1d1d;
      }
    </style>
  </defs>
  <path class="st0" d="M129.7,258.9C58.4,258.9.5,200.9.5,129.6S58.4.5,129.7.5s129.2,58,129.2,129.2-58,129.2-129.2,129.2ZM129.7,6.1C61.6,6.1,6.1,61.5,6.1,129.6s55.4,123.6,123.6,123.6,123.6-55.4,123.6-123.6S197.8,6.1,129.7,6.1Z"/>
  <path class="st0" d="M40.3-39.7c-1.6,0-2.8-1.3-2.8-2.8h2.8v-2.8,2.8h2.8-2.8v2.8Z"/>
  <path class="st0" d="M105.3,84l-6.9-5.7c-1.4-1.1-1.8-1.1-1.8-1.1,0,0-.4.2-1.1,2-1.4,3.7-1.6,7.5-.6,11.7,4,17,6.6,35.5,8.1,58.3.7,11.2-4.1,18-14.4,20.3-3,.7-6.1,1-9,1.3-1.2.1-2.5.3-3.6.4h-.4c-1.3-.1-2.5-.1-3.7-.2-2.6,0-5.1-.2-7.5-.8-6.8-1.7-10.8-4.2-12.6-7.9-1.7-3.3-1.4-7.5.9-12.8,1.1-2.6,2.4-5.2,3.7-7.7l1.3-2.5c.3-.7.5-1.4.3-1.9,0-.2-.2-.4-.6-.6-.3-.2-.8-.2-1.3-.2s-1.6.2-2.2.4c-.4.2-1.1,1-1.6,2.4-.6,1.4-1.2,2.8-1.8,4.2-1.8,4.2-3.6,8.6-4.8,13-1.5,5.7-.8,11.3,2,15.8,2.7,4.3,7.3,7.3,12.8,8.4,10.4,2,20.8,1.7,30.9-.9,10.1-2.6,16.8-10.7,17.1-20.8.2-5.3,0-11.1-.7-17.6-1.2-11.6-2.6-23.3-4-34.7v-1.1c-.7-4.8.2-8.4,3-11.7,3-3.7,2.6-6.7-1.2-9.9h-.3Z"/>
  <path class="st0" d="M147.7,168.1h15.2c2.5,0,4.9,0,7.4.1,1.1,0,1.8-.1,2.1-.5.3-.3.4-.8.4-1.6v-5.4c-.2-7.4-.4-15.2-1-22.7-.3-4.2-2.4-8.2-5.6-11.3-1-.9-1.3-1-1.3-1,0,0-.3.2-1,1.2-2.6,4.2-2.8,7.9-.4,11.4,2.7,4.1,4.5,8.6,5.4,13.8.2,1,.3,2.4-.6,3.5-1,1.2-2.6,1.2-3.1,1.2h-27.7c-4.6,0-7.1-2.1-8.2-6.6-.3-1.2-.4-2.4-.4-3.6v-.8c-.3-3.2-.5-6.5-.7-9.7-.5-7.2-.9-14.7-1.9-21.9-.7-5.6-2.2-11.2-3.6-16.7-.5-1.9-1-3.8-1.5-5.7,0,0-.3-.4-.5-.6-.2.2-.5.4-.6.6-2.7,5.3-3.5,10.6-2.4,16.2,1.6,8,2.8,15.7,4.2,25,.6,4,1.1,8,1.6,12,.6,4.5,1.1,8.9,1.8,13.4,1,6.9,4.4,9.7,11.4,9.7h11.1-.1Z"/>
  <path class="st0" d="M190.5,93.8c-1.8,1.2-2.3,2.7-1.7,4.7.4,1.4,1.3,2.8,2.5,4.3,1.6,2,3.2,4,4.9,6,2.2,2.7,4.6,5.5,6.7,8.4,5,6.7,5.3,13.9.8,20.1-4.4,6.1-8.6,10.9-12.8,14.7-8.7,7.9-19,10.9-30.5,9-1.1-.2-2.1-.4-3.1-.6-1.7-.4-3.3-.7-4.9-.9h0c-.1,0-.3,0-.6.2.1.1.3.3.4.3,5,1.8,10.1,3.5,15.2,5.1,11.9,3.7,21.9,1.4,29.9-6.8,2.5-2.6,4.8-5.4,7.1-8.2,1.4-1.7,2.8-3.4,4.2-5.1,4.2-4.9,6.3-10.7,6.1-17.2h0c.5-13.4-7.3-21.7-15.6-30.5-1.2-1.2-2.4-2.5-3.5-3.8-1.2-1.3-3.4-.9-4.9.2h-.2Z"/>
  <path class="st0" d="M152.1,133c1.3,1.7,2.4,2.9,3.6,3.8.3.2,1.2.4,1.5.3,1.7-1.3,3.4-3,5.1-4.6l1.5-1.4s0-.1.1-.2c-.2-.4-.4-.7-.6-1-.8-.9-1.5-1.8-2.3-2.6-1-1.1-2-2.3-3-3.5-.4-.4-.9-.9-1.3-1-.5,0-1.1.4-1.4.8l-.6.6c-1.4,1.3-2.7,2.5-4,3.9-.7.7-1.9,1.7-3.3,1.6-1.1,0-2-.7-2.9-2-.9-1.2-1.9-2.4-3-3.6l-1.1-1.3c-.5-.6-.7-.6-.7-.6-.1,0-.3,0-.6.4-1.1,1-2.2,2-3.3,3-1,.9-1.9,1.7-2.9,2.6-.6.6-.6.8,0,1.4,1.1,1.3,2.2,2.6,3.3,3.8l2.7,3.1c.3.4.6.6.9.6s.6-.2,1-.6c.6-.5,1.2-1,1.8-1.5,1-.8,2-1.6,2.8-2.5,1.2-1.3,2.4-1.9,3.5-1.9,1.6,0,2.7,1.3,3.5,2.4h-.3Z"/>
</svg>