<?xml version="1.0" encoding="UTF-8"?>
<svg id="Layer_1" data-name="Layer 1" xmlns="http://www.w3.org/2000/svg" version="1.1" viewBox="0 0 259.4 260">
  <defs>
    <style>
      .cls-1 {
        fill: #000;
        stroke-width: 0px;
      }
    </style>
  </defs>
  <path class="cls-1" d="M129.7,259.4C58.4,259.4.5,201.4.5,130.1S58.4,1,129.7,1s129.2,58,129.2,129.2-58,129.2-129.2,129.2ZM129.7,6.6C61.6,6.6,6.1,62,6.1,130.1s55.4,123.6,123.6,123.6,123.6-55.4,123.6-123.6S197.8,6.6,129.7,6.6Z"/>
  <path class="cls-1" d="M40.3,43.6c-1.6,0-2.8-1.3-2.8-2.8h2.8v-2.8,2.8h2.8-2.8v2.8Z"/>
  <path class="cls-1" d="M111,82.1l-5.3-4.4c-1.1-.8-1.4-.8-1.4-.8,0,0-.3.2-.8,1.5-1.1,2.8-1.2,5.8-.5,9,3.1,13,5.1,27.2,6.2,44.7.5,8.6-3.1,13.8-11,15.6-2.3.5-4.7.8-6.9,1-.9,0-1.9.2-2.8.3h-.3c-1,0-1.9,0-2.8-.2-2,0-3.9-.2-5.8-.6-5.2-1.3-8.3-3.2-9.7-6.1-1.3-2.5-1.1-5.8.7-9.8.8-2,1.8-4,2.8-5.9l1-1.9c.2-.5.4-1.1.2-1.5,0-.2-.2-.3-.5-.5-.2-.2-.6-.2-1-.2s-1.2.2-1.7.3c-.3.2-.8.8-1.2,1.8-.5,1.1-.9,2.1-1.4,3.2-1.4,3.2-2.8,6.6-3.7,10-1.2,4.4-.6,8.7,1.5,12.1,2.1,3.3,5.6,5.6,9.8,6.4,8,1.5,15.9,1.3,23.7-.7,7.7-2,12.9-8.2,13.1-15.9.2-4.1,0-8.5-.5-13.5-.9-8.9-2-17.9-3.1-26.6v-.8c-.5-3.7.2-6.4,2.3-9,2.3-2.8,2-5.1-.9-7.6h-.2Z"/>
  <path class="cls-1" d="M143.5,144.1h11.7c1.9,0,3.8,0,5.7,0,.8,0,1.4,0,1.6-.4.2-.2.3-.6.3-1.2v-4.1c-.2-5.7-.3-11.7-.8-17.4-.2-3.2-1.8-6.3-4.3-8.7-.8-.7-1-.8-1-.8,0,0-.2.2-.8.9-2,3.2-2.1,6.1-.3,8.7,2.1,3.1,3.5,6.6,4.1,10.6.2.8.2,1.8-.5,2.7-.8.9-2,.9-2.4.9h-21.2c-3.5,0-5.4-1.6-6.3-5.1-.2-.9-.3-1.8-.3-2.8v-.6c-.2-2.5-.4-5-.5-7.4-.4-5.5-.7-11.3-1.5-16.8-.5-4.3-1.7-8.6-2.8-12.8-.4-1.5-.8-2.9-1.2-4.4,0,0-.2-.3-.4-.5-.2.2-.4.3-.5.5-2.1,4.1-2.7,8.1-1.8,12.4,1.2,6.1,2.1,12,3.2,19.2.5,3.1.8,6.1,1.2,9.2.5,3.5.8,6.8,1.4,10.3.8,5.3,3.4,7.4,8.7,7.4h8.5,0Z"/>
  <path class="cls-1" d="M176.3,117c-1.4.9-1.8,2.1-1.3,3.6.3,1.1,1,2.1,1.9,3.3,1.2,1.5,2.5,3.1,3.8,4.6,1.7,2.1,3.5,4.2,5.1,6.4,3.8,5.1,4.1,10.7.6,15.4-3.4,4.7-6.6,8.4-9.8,11.3-6.7,6.1-14.6,8.4-23.4,6.9-.8-.2-1.6-.3-2.4-.5-1.3-.3-2.5-.5-3.8-.7h0c0,0-.2,0-.5.2,0,0,.2.2.3.2,3.8,1.4,7.7,2.7,11.7,3.9,9.1,2.8,16.8,1.1,22.9-5.2,1.9-2,3.7-4.1,5.4-6.3,1.1-1.3,2.1-2.6,3.2-3.9,3.2-3.8,4.8-8.2,4.7-13.2h0c.4-10.3-5.6-16.6-12-23.4-.9-.9-1.8-1.9-2.7-2.9-.9-1-2.6-.7-3.8.2h-.2Z"/>
  <path class="cls-1" d="M146.9,157.7c1,1.3,1.8,2.2,2.8,2.9.2.2.9.3,1.2.2,1.3-1,2.6-2.3,3.9-3.5l1.2-1.1s0,0,0-.2c-.2-.3-.3-.5-.5-.8-.6-.7-1.2-1.4-1.8-2-.8-.8-1.5-1.8-2.3-2.7-.3-.3-.7-.7-1-.8-.4,0-.8.3-1.1.6l-.5.5c-1.1,1-2.1,1.9-3.1,3-.5.5-1.5,1.3-2.5,1.2-.8,0-1.5-.5-2.2-1.5-.7-.9-1.5-1.8-2.3-2.8l-.8-1c-.4-.5-.5-.5-.5-.5,0,0-.2,0-.5.3-.8.8-1.7,1.5-2.5,2.3-.8.7-1.5,1.3-2.2,2-.5.5-.5.6,0,1.1.8,1,1.7,2,2.5,2.9l2.1,2.4c.2.3.5.5.7.5s.5-.2.8-.5c.5-.4.9-.8,1.4-1.2.8-.6,1.5-1.2,2.1-1.9.9-1,1.8-1.5,2.7-1.5,1.2,0,2.1,1,2.7,1.8h-.2Z"/>
  <g>
    <path class="cls-1" d="M77.7,190l9.9,7.4,7.6-10.1,2.9,2.2-17.8,23.8-2.9-2.2,8.2-11-9.9-7.4-8.2,11-2.9-2.2,17.8-23.8,2.9,2.2-7.6,10.1Z"/>
    <path class="cls-1" d="M93.6,220.2l17.9-25.7,3.2.9,1.5,31.3-3.7-1.1-.3-7.1-10.9-3.1-4,5.9-3.7-1.1ZM103.3,212.4l8.8,2.5-.5-14.7-8.2,12.1Z"/>
    <path class="cls-1" d="M134,224l13.8-.7.2,3.3-17.4.9-1.6-29.6,3.6-.2,1.4,26.3Z"/>
    <path class="cls-1" d="M159.4,224.2l-2.4-31.2,3.1-1.3,20.9,23.3-3.5,1.5-4.7-5.4-10.5,4.5.6,7.1-3.5,1.5ZM162,212.1l8.4-3.6-9.7-11,1.3,14.6Z"/>
    <path class="cls-1" d="M193.3,201.2l10-9.5,2.3,2.4-12.6,12-20.4-21.5,2.6-2.5,18.1,19.1Z"/>
  </g>
</svg>