<?xml version="1.0" encoding="UTF-8"?>
<svg id="Layer_1" xmlns="http://www.w3.org/2000/svg" version="1.1" viewBox="0 0 259.4 259.4">
  <!-- Generator: Adobe Illustrator 29.2.0, SVG Export Plug-In . SVG Version: 2.1.0 Build 108)  -->
  <defs>
    <style>
      .st0 {
        fill: #1d1d1d;
      }
    </style>
  </defs>
  <path class="st0" d="M129.7,258.9C58.4,258.9.5,200.9.5,129.6S58.4.5,129.7.5s129.2,58,129.2,129.2-58,129.2-129.2,129.2ZM129.7,6.1C61.6,6.1,6.1,61.5,6.1,129.6s55.4,123.6,123.6,123.6,123.6-55.4,123.6-123.6S197.8,6.1,129.7,6.1Z"/>
  <path class="st0" d="M40.3-39.7c-1.6,0-2.8-1.3-2.8-2.8h2.8v-2.8,2.8h2.8-2.8v2.8Z"/>
  <path class="st0" d="M160.3,100.2c-.4,0-.8-.2-1.2-.4-1.9-.6-3.8-1.6-4.7-3.9-.2-.4-.3-.6-.4-.6s-.3,0-.6.6c-.8,1.3-1.7,2.9-2.2,4.5-1.9,6.2-.4,9.2,5.7,11.6,3.7,1.4,4.9,4.2,3.5,8-.6,1.7-1.6,3.4-3,5.4l-1.2,1.7c-5.3,7.7-10.7,15.6-14.1,24.5-.4,1-1.8,1.6-2.7,1.7-2.1.1-4.2,0-6.2,0h-13.1l.5-1.1c.2-.4.3-.7.4-1,.2-.6.4-1,.6-1.4,5.1-10.7,9.1-22.3,11.8-34.2.5-2.1,1.5-2.9,3.5-3.1,3.1-.2,4.6-1.9,4.5-5.1v-1.1c-.6-3.1-2.2-5-5.1-5.7-.8-.2-1.9-.5-3.1-.7-2.5-.5-4.2-1.7-5-3.8-.2-.5-.4-.6-.5-.7,0,0-.3,0-.7.6-2.1,2.7-3,6-2.3,9,.7,2.9,2.6,5.3,5.5,6.8,2.1,1.1,2,2.6,1.6,3.8-.4,1.2-.8,2.5-1.1,3.7-.3,1-.6,2-.9,3-3.8,12.1-7.4,21-11.7,29.1-.4.7-1.4,1.8-2.4,1.8h0c-1,0-2-1-2.4-1.8-6.1-11.4-8-23.5-5.5-36.1.3-1.5,1.2-2.3,2.8-2.4,1.3,0,2.6-.3,4-.7.5-.2,1-.5,1.1-.8,1.1-2.5-.2-8-2.3-9.5-1.3-.9-3-1.4-4.6-1.9l-.7-.2c-1.9-.6-4.4-1.3-5.5-4.1,0-.3-.3-.5-.4-.5,0,0-.3,0-.5.4-.7,1.2-1.3,2.5-1.8,3.8-2.1,6.4-.6,10.3,4.5,12.4,1.9.8,2.4,1.8,1.8,3.8-2.5,8.7-2.6,17.5-.2,27.1,1.8,7.4,3.5,14.8,4.8,20.4.2.9.6,1.2,1.6,1.2h30.5c1.3,0,1.7-.3,2-1.6,2.7-14.1,8.2-27.6,16.9-41.4,2-3.2,3.6-6.5,4.5-9.6s.8-5.8-.3-7.8c-1-1.8-2.9-3.1-5.5-3.9h0l-.2.2Z"/>
  <path class="st0" d="M200.4,99.9h-11.9c-2.1,0-5.2-.4-6.7-3.8-.2-.4-.4-.6-.5-.6s-.4,0-.6.5c-.9,1.2-1.7,2.5-2.1,3.8-.9,2.9-1.6,6.9.3,9.5,1.4,1.9,4.1,2.7,8,2.6h16.8c6.1,0,10.5,3.4,12,9,1.8,6.5,2,13.1.7,19.6-1.8,8.7-6.4,12.4-15.6,12.4h-21.2c-.4,0-1,.2-1.2.4-.8,3.1-1.6,6.4-2.3,10.1,0,.1.3.4.4.5h6.8c6.3,0,12.9,0,19.2-.6,8.7-.8,14.2-5.6,15.8-13.7.9-4.6,1.5-9.5,1.8-15.1.4-9.2-.4-16.4-2.8-22.8-3-8.2-8.2-11.9-17-11.9h.1Z"/>
  <path class="st0" d="M86.1,137.5v-13.3c-.2-4.4-.3-8.9-.8-13.3-.6-5.7-3.4-9.1-8.4-10.2-2.3-.5-4.6-.9-6.8-1-4.5,0-9.1-.2-13.6-.2h-6.4c-2.4,0-5.3-.5-6.8-3.9,0-.3-.3-.5-.4-.5h0c-.2,0-.4.2-.6.5-.9,1.4-1.8,3-2.3,4.6-.8,2.6-1.3,6.2.6,8.7,1.4,1.9,4.1,2.8,7.8,2.6,2.8,0,5.6,0,8.4,0h11.6c8.5,0,12.9,4.2,13.5,12.7.2,3.1.3,6.3.3,10.3v28.8c0,.4.2,1,.3,1.1.2,0,.7-.2,1.1-.4,1.8-1.3,2.7-3,2.6-5.2v-21.2h0Z"/>
</svg>