<?xml version="1.0" encoding="UTF-8"?><svg id="Layer_1" xmlns="http://www.w3.org/2000/svg" viewBox="0 0 271.79 96.69"><path d="M77.65,48.32c0,12.41,0,24.83,0,37.24,0,2-.37,2.37-2.34,2.37-3.8,0-7.6,0-11.4,0-1.43,0-1.79-.36-1.79-1.8,0-9.03,0-18.06,0-27.08,0-2.04-.47-2.5-2.5-2.5-16.21,0-32.43,0-48.64,0-1.91,0-2.13-.22-2.13-2.13,0-4.14,0-8.28,0-12.41,0-1.6.31-1.9,1.92-1.9,16.33,0,32.65,0,48.98,0,1.88,0,2.39-.5,2.39-2.39,0-8.99,0-17.98,0-26.97,0-1.76.27-2.02,2.02-2.03,3.84,0,7.67,0,11.51,0,1.51,0,1.99.49,2,2.03,0,6.81,0,13.62,0,20.43,0,5.72,0,11.44,0,17.15Z" fill="#000" stroke-width="0"/><path d="M104.79,27.09c-1.14,1.98-2.36,3.92-3.4,5.96-.66,1.31-1.4,2.08-2.99,1.85-1.24-.18-2.75.25-3.72-.32-.92-.54-1.31-2-1.92-3.06-.81-1.41-1.62-2.82-2.6-4.54-.04.67-.08,1.02-.08,1.36,0,4.29,0,8.58,0,12.87,0,1.45-.12,1.57-1.53,1.57-1.88,0-3.76-.03-5.64.01-.94.02-1.38-.3-1.38-1.29.01-10.5.01-21,0-31.49,0-.93.31-1.35,1.32-1.32,2.07.06,4.14.05,6.21,0,.7-.02,1.04.24,1.35.86,1.98,3.97,4,7.93,6.04,11.87.22.42.68.71,1.03,1.07.37-.37.87-.68,1.1-1.12,2.04-3.94,4.04-7.9,6.04-11.86.28-.56.62-.83,1.29-.82,2.14.05,4.29.05,6.43,0,.85-.02,1.12.44,1.2,1.14.03.22,0,.45,0,.68,0,10.12,0,20.24,0,30.36,0,1.83-.08,1.9-1.9,1.9-1.81,0-3.61-.04-5.42.02-.94.03-1.24-.32-1.23-1.25.04-4.44.02-8.88.02-13.32,0-.36,0-.72,0-1.07-.07-.02-.15-.04-.22-.06Z" fill="#000" stroke-width="0"/><path d="M263.03,70.31c0,5.42-.03,10.83.02,16.25.01,1.11-.36,1.44-1.42,1.39-1.76-.07-3.54-.07-5.3,0-.78.03-1.21-.26-1.61-.89-2.91-4.59-5.83-9.16-8.78-13.72-.22-.34-.72-.5-1.08-.74-.19.41-.55.82-.55,1.23-.04,4.17-.02,8.35-.03,12.52,0,1.43-.13,1.57-1.53,1.57-2.03,0-4.06-.03-6.09.01-.96.02-1.35-.35-1.35-1.32.02-10.87.01-21.74,0-32.61,0-1.03.41-1.52,1.46-1.5,1.69.03,3.39.07,5.08-.02.96-.05,1.5.35,1.98,1.11,2.76,4.37,5.54,8.73,8.34,13.08.35.54.51,1.48,1.46,1.25,1.02-.25.62-1.16.62-1.81.03-3.99.01-7.97.02-11.96,0-1.56.08-1.64,1.69-1.64,1.88,0,3.76.04,5.64-.01,1.07-.03,1.46.37,1.46,1.45-.03,5.45-.02,10.91-.02,16.36Z" fill="#000" stroke-width="0"/><path d="M81.54,70.2c0-5.38,0-10.75,0-16.13,0-1.4.15-1.55,1.56-1.55,4.55,0,9.1-.04,13.65.01,2.82.03,5.47.74,7.69,2.57,1.61,1.33,2.49,3.14,2.93,5.16.57,2.61.35,5.12-1.28,7.35-.39.54-.89,1.01-1.35,1.5-.48.52-.45,1.01.11,1.41,2.7,1.97,3.47,4.77,3.26,7.89-.22,3.14-1.38,5.88-4.13,7.68-1.77,1.16-3.71,1.86-5.88,1.85-5.08-.02-10.15-.03-15.23.02-1.08.01-1.35-.44-1.34-1.4.02-5.45.01-10.9.01-16.35ZM94.08,74.13c-.83,0-1.65.04-2.48-.01-.88-.06-1.25.39-1.27,1.18-.03,1.2-.02,2.4,0,3.6.01.77.46,1.16,1.21,1.16,1.69.01,3.38.05,5.06-.02,1.65-.07,2.64-1.4,2.57-3.28-.05-1.57-1.11-2.6-2.73-2.63-.79-.02-1.58,0-2.36,0ZM93.87,60.58h0c-.75,0-1.5.04-2.25-.01-.88-.06-1.26.38-1.29,1.17-.04,1.05-.1,2.11.03,3.15.05.42.56,1.1.9,1.12,1.68.11,3.38.14,5.06.01,1.65-.12,2.51-1.34,2.38-3.05-.11-1.47-1.11-2.35-2.69-2.38-.71-.01-1.43,0-2.14,0Z" fill="#000" stroke-width="0"/><path d="M236.4,25.74c0-5.23.02-10.46-.02-15.69,0-1.02.27-1.42,1.34-1.37,1.69.08,3.39.06,5.08,0,.8-.03,1.28.23,1.71.92,2.69,4.29,5.42,8.55,8.14,12.82.1.16.15.38.3.47.33.2.73.51,1.03.44.23-.05.49-.61.5-.94.03-3.87.02-7.75.02-11.63,0-.34-.03-.68.02-1.01.1-.66.39-1.07,1.18-1.05,2.11.04,4.21.04,6.32,0,.81-.01,1.03.34,1.03,1.09-.01,10.65-.01,21.3,0,31.94,0,.78-.28,1.08-1.06,1.06-1.84-.03-3.69.04-5.53-.05-.45-.02-1.05-.37-1.3-.76-2.81-4.3-5.56-8.63-8.33-12.96-.1-.16-.17-.36-.32-.45-.31-.19-.72-.51-.98-.43-.26.08-.54.58-.54.9-.05,2.41-.03,4.82-.03,7.22,0,1.73-.02,3.46,0,5.19.02.97-.4,1.34-1.35,1.33-1.99-.04-3.99-.05-5.98,0-.95.02-1.24-.33-1.23-1.25.03-5.27.01-10.53.01-15.8Z" fill="#000" stroke-width="0"/><path d="M122.81,74.84c0,3.9,0,7.65,0,11.41,0,1.63-.05,1.69-1.63,1.69-2.03,0-4.06-.02-6.09.01-.78.01-1.06-.27-1.06-1.05.02-11.05.01-22.11,0-33.16,0-.87.38-1.21,1.23-1.21,4.59.01,9.19-.19,13.76.06,6.88.38,11.35,5.17,11.14,12.01-.1,3.35-1.67,6.07-4.48,7.96-.83.56-1.04,1.05-.52,2.01,2.02,3.74,3.93,7.53,5.9,11.29.75,1.44.45,2.21-1.25,2.12-2.21-.12-4.44-.08-6.65,0-1,.03-1.55-.27-1.97-1.21-1.6-3.49-3.34-6.91-4.91-10.4-.54-1.21-1.21-1.77-2.52-1.51-.25.05-.52,0-.94,0ZM122.81,63.97c0,.79,0,1.58,0,2.36,0,.74.36,1.09,1.1,1.09,1.39,0,2.78.04,4.16-.01,1.77-.06,3.13-1.5,3.15-3.26.02-1.87-1.2-3.45-2.86-3.53-1.5-.08-3-.03-4.5-.03-.75,0-1.07.41-1.06,1.14.01.75,0,1.5,0,2.25Z" fill="#000" stroke-width="0"/><path d="M151.33,25.74c0-5.19,0-10.38,0-15.57,0-1.34.14-1.47,1.51-1.47,4.17,0,8.35-.02,12.52,0,6.3.03,11.3,4.95,11.43,11.22.07,3.19.23,6.37.17,9.56-.06,2.67-.31,5.35-1.78,7.73-2.18,3.52-5.4,5.34-9.44,5.51-4.28.18-8.57.05-12.86.05-1.33,0-1.54-.21-1.54-1.58,0-5.15,0-10.3,0-15.45ZM159.91,16.35v18.8c1.32,0,2.59.01,3.85,0,2.55-.03,4.39-1.74,4.45-4.3.07-3.4.06-6.8,0-10.19-.04-2.25-1.63-4.14-3.61-4.28-1.53-.11-3.07-.02-4.69-.02Z" fill="#000" stroke-width="0"/><path d="M182.47,25.75c0-5.15,0-10.3,0-15.45,0-1.5.09-1.59,1.62-1.59,6.73,0,13.46,0,20.19,0,1.51,0,1.6.09,1.6,1.61,0,1.43,0,2.86,0,4.29,0,1.33-.39,1.73-1.73,1.73-3.76,0-7.52,0-11.28,0-1.85,0-1.86,0-1.86,1.81,0,.71,0,1.43,0,2.14.02,1.21.32,1.52,1.53,1.52,3.2,0,6.39,0,9.59,0,1.37,0,1.51.14,1.52,1.47,0,1.62-.03,3.23.01,4.85.02.98-.4,1.33-1.35,1.32-3.31-.02-6.62.02-9.93-.02-.99-.01-1.37.42-1.37,1.32,0,1.05.02,2.11,0,3.16-.02.92.41,1.26,1.3,1.25,3.95-.02,7.9,0,11.84,0,1.41,0,1.73.32,1.73,1.7,0,1.54-.02,3.08,0,4.62.02.89-.31,1.31-1.25,1.31-6.99-.01-13.99-.02-20.98,0-1.07,0-1.2-.61-1.2-1.47.01-5.19,0-10.38,0-15.57Z" fill="#000" stroke-width="0"/><path d="M212.22,87.93c-1.17,0-2.34.06-3.5-.03-.35-.03-.84-.4-.98-.74-.43-1.02-.76-2.09-1.05-3.16-.24-.9-.73-1.29-1.68-1.27-2.75.04-5.49.03-8.24,0-.82,0-1.31.26-1.53,1.12-.28,1.08-.75,2.1-1.06,3.17-.2.71-.61.94-1.31.93-2.11-.03-4.21,0-6.32,0-1.59,0-1.87-.41-1.33-1.89,1.97-5.37,3.96-10.74,5.91-16.11,1.96-5.38,3.88-10.76,5.82-16.15.31-.86.8-1.34,1.82-1.28,1.42.09,2.86.08,4.29,0,.98-.05,1.4.39,1.7,1.24,1.49,4.2,3.01,8.39,4.54,12.58,2.35,6.46,4.72,12.91,7.07,19.37.13.35.28.7.34,1.06.12.76-.1,1.23-1.01,1.19-1.16-.05-2.33-.01-3.5-.01ZM198.13,75.15h5.77c-.91-2.88-1.79-5.65-2.76-8.72-1.05,3.05-1.98,5.74-3.01,8.72Z" fill="#000" stroke-width="0"/><path d="M143.33,42.78c-1.09,0-2.18-.01-3.27,0-.67.01-1.01-.27-1.18-.93-.27-1.04-.66-2.05-.94-3.09-.2-.74-.65-.99-1.39-.98-2.71.02-5.42.04-8.13,0-.9-.02-1.28.44-1.52,1.18-.31.99-.55,2.02-.97,2.97-.16.37-.72.8-1.11.82-2.22.08-4.44.02-6.66.05-1.17.01-1.09-.8-.91-1.47.3-1.15.76-2.25,1.16-3.37,2.76-7.57,5.52-15.15,8.28-22.72.66-1.82,1.34-3.63,1.97-5.45.27-.77.67-1.14,1.55-1.09,1.5.08,3.01.06,4.51,0,.77-.03,1.15.25,1.41.96,2.09,5.84,4.21,11.68,6.33,17.51,1.62,4.43,3.26,8.86,4.89,13.29.12.31.23.63.29.96.19,1.06-.07,1.36-1.15,1.37-1.05,0-2.11,0-3.16,0ZM129.76,30.59c1.83,0,3.46.01,5.09-.03.09,0,.31-.53.24-.75-.76-2.51-1.57-5.01-2.45-7.8-.99,2.94-1.89,5.61-2.88,8.58Z" fill="#000" stroke-width="0"/><path d="M168.69,74.09c0-4.06,0-8.13,0-12.19,0-1.27-.22-1.51-1.5-1.51-1.99-.01-3.99-.03-5.98,0-.83.02-1.14-.3-1.13-1.13.04-1.84.02-3.69,0-5.53,0-.85.37-1.23,1.22-1.23,7.9,0,15.8.01,23.7,0,.92,0,1.27.41,1.26,1.3-.03,1.77-.03,3.54,0,5.3.01.91-.38,1.29-1.29,1.27-1.92-.03-3.84-.01-5.76,0-1.36,0-1.57.22-1.57,1.56,0,8.01,0,16.03,0,24.04,0,1.89-.05,1.94-1.98,1.94-1.81,0-3.61,0-5.42,0-1.44,0-1.57-.12-1.57-1.53,0-4.1,0-8.2,0-12.3Z" fill="#000" stroke-width="0"/><path d="M42.83,87.93c-4.62,0-9.25-.01-13.87.01-.82,0-1.56-.11-1.79-.98-.23-.88,0-1.6.89-2.19,7.45-4.92,14.87-9.9,22.3-14.86,1.7-1.14,3.4-2.28,5.11-3.4.65-.42,1.28-.92,2.15-.45.84.46.88,1.19.88,2.01-.02,5.98,0,11.95-.01,17.93,0,1.61-.31,1.92-1.9,1.92-4.59,0-9.17,0-13.76,0Z" fill="#000" stroke-width="0"/><path d="M42.87,8.7c4.63,0,9.25,0,13.88,0,1.32,0,1.73.41,1.73,1.75,0,6.09,0,12.19.01,18.28,0,.73-.07,1.54-.77,1.69-.69.15-1.62.05-2.2-.32-2.9-1.82-5.73-3.76-8.58-5.66-6.29-4.2-12.56-8.42-18.87-12.59-.83-.55-1.12-1.19-.9-2.07.23-.91.9-1.12,1.81-1.11,4.63.04,9.25.02,13.88.02Z" fill="#000" stroke-width="0"/><path d="M47.78,35.31c-2.82.83-5.39-.9-8.05-2.7-9.86-6.67-19.78-13.25-29.68-19.86-1.49-1-1.76-2.6-.58-3.62.26-.22.65-.3.98-.42.13-.05.3.01.45-.01,4.47-.92,7.7,1.59,11.09,3.87,10.11,6.83,20.28,13.56,30.43,20.33.28.19.61.38.75.66.16.32.29.79.16,1.09-.12.29-.57.62-.88.63-1.35.07-2.7.03-4.66.03Z" fill="#000" stroke-width="0"/><path d="M13.03,87.93c-.71,0-1.43-.05-2.14.01-.96.08-1.62-.33-1.98-1.14-.4-.91-.02-2.13.8-2.7,1.4-.98,2.84-1.92,4.26-2.87,9.61-6.4,19.21-12.8,28.84-19.16.64-.42,1.5-.68,2.28-.71,2.25-.09,4.51-.03,6.77-.03.64,0,1.29-.1,1.57.72.3.89-.37,1.26-.89,1.62-1.99,1.38-4.02,2.7-6.03,4.04-9.86,6.56-19.69,13.15-29.6,19.62-1.03.67-2.54.6-3.82.87-.02-.08-.03-.17-.05-.25Z" fill="#000" stroke-width="0"/><path d="M155.11,70.44c0,5.38-.02,10.76.02,16.13,0,1.01-.26,1.42-1.33,1.38-2.07-.07-4.14-.05-6.2,0-.89.02-1.28-.22-1.28-1.2.03-10.98.02-21.96,0-32.94,0-.99.44-1.31,1.38-1.3,1.99.03,3.99.05,5.98,0,1.08-.03,1.46.4,1.45,1.46-.03,5.49-.01,10.98-.01,16.47Z" fill="#000" stroke-width="0"/><path d="M229.39,70.44c0,5.38-.02,10.76.02,16.13,0,1.01-.26,1.42-1.33,1.38-2.07-.07-4.14-.06-6.2,0-1.01.03-1.28-.35-1.28-1.32.03-10.91.02-21.81,0-32.72,0-1,.36-1.43,1.39-1.41,1.99.04,3.99.05,5.98,0,1.08-.03,1.45.41,1.44,1.47-.03,5.49-.02,10.98-.01,16.47Z" fill="#000" stroke-width="0"/><path d="M222.19,25.63c0-5.12,0-10.23,0-15.35,0-1.53.04-1.57,1.59-1.57,1.84,0,3.69.03,5.53-.01,1-.03,1.43.32,1.43,1.36-.02,10.46-.02,20.92,0,31.38,0,1.04-.42,1.39-1.42,1.36-1.88-.05-3.76-.01-5.64-.01-1.39,0-1.48-.08-1.48-1.46,0-5.23,0-10.46,0-15.69Z" fill="#000" stroke-width="0"/><path d="M19.45,35.32c-2.89,0-5.79,0-8.68,0-1.52,0-1.93-.42-1.93-1.92,0-3.91,0-7.82,0-11.73,0-.69-.07-1.49.78-1.65.63-.11,1.46-.11,1.96.21,5.97,3.91,11.88,7.91,17.83,11.85.78.51,1.27,1.09.99,2.02-.29.96-1.05,1.24-2.02,1.23-2.97-.03-5.94-.01-8.91-.01Z" fill="#000" stroke-width="0"/><path d="M19.66,61.31c2.89,0,5.79.02,8.68-.01.96,0,1.72.26,2.03,1.22.32,1-.27,1.57-1.06,2.09-5.92,3.93-11.81,7.9-17.75,11.79-.5.33-1.33.33-1.96.21-.85-.15-.78-.95-.78-1.64,0-3.95,0-7.89,0-11.84,0-1.36.44-1.81,1.8-1.82,3.01-.01,6.01,0,9.02,0Z" fill="#000" stroke-width="0"/><path d="M94.08,74.13c.79,0,1.58-.01,2.36,0,1.62.03,2.68,1.06,2.73,2.63.06,1.88-.93,3.21-2.57,3.28-1.69.07-3.38.03-5.06.02-.75,0-1.19-.39-1.21-1.16-.02-1.2-.03-2.4,0-3.6.02-.79.39-1.24,1.27-1.18.82.05,1.65.01,2.48.01Z" fill="#fff" stroke-width="0"/><path d="M93.87,60.58c.71,0,1.43-.01,2.14,0,1.58.03,2.58.92,2.69,2.38.13,1.71-.73,2.93-2.38,3.05-1.68.13-3.38.1-5.06-.01-.34-.02-.85-.7-.9-1.12-.13-1.03-.07-2.1-.03-3.15.03-.79.41-1.23,1.29-1.17.75.05,1.5.01,2.25.01h0Z" fill="#fff" stroke-width="0"/><path d="M122.81,63.97c0-.75,0-1.5,0-2.25,0-.73.31-1.14,1.06-1.14,1.5,0,3-.05,4.5.03,1.66.09,2.88,1.66,2.86,3.53-.02,1.76-1.37,3.2-3.15,3.26-1.39.05-2.78,0-4.16.01-.74,0-1.11-.34-1.1-1.09,0-.79,0-1.58,0-2.36Z" fill="#fff" stroke-width="0"/><path d="M159.91,16.35c1.63,0,3.17-.09,4.69.02,1.98.14,3.57,2.03,3.61,4.28.06,3.4.07,6.8,0,10.19-.05,2.56-1.9,4.27-4.45,4.3-1.27.01-2.53,0-3.85,0v-18.8Z" fill="#fff" stroke-width="0"/><path d="M198.13,75.15c1.03-2.98,1.96-5.67,3.01-8.72.97,3.07,1.85,5.84,2.76,8.72h-5.77Z" fill="#fff" stroke-width="0"/><path d="M129.76,30.59c1-2.97,1.89-5.63,2.88-8.58.88,2.79,1.69,5.29,2.45,7.8.07.22-.15.74-.24.75-1.63.05-3.26.03-5.09.03Z" fill="#fff" stroke-width="0"/></svg>