<?xml version="1.0" encoding="UTF-8"?>
<svg id="Layer_1" xmlns="http://www.w3.org/2000/svg" version="1.1" viewBox="0 0 259.4 259.4">
  <!-- Generator: Adobe Illustrator 29.2.0, SVG Export Plug-In . SVG Version: 2.1.0 Build 108)  -->
  <path d="M34.7,146.2c1.5,8.5-6.2,10.9-12.8,12-8,1.4-16,1.7-17.5-6.8-1.5-8.5,6.1-10.8,14.2-12.3,6.6-1.1,14.6-1.5,16.1,7.1M31.8,146.5c-.9-4.9-6.3-5.3-12.7-4.1-8.4,1.5-12.7,3.1-11.8,8.5.9,5.3,5.5,5.4,13.9,4,6.5-1.1,11.4-3.2,10.5-8.3Z"/>
  <path d="M10.7,172.5l-1.2-3,27.2-11.2,2.9,7c2.3,5.7,2.3,9.9-4,12.3-3.2,1.2-6.3.2-8.1-2.8h0c1.1,3.7.3,5-3.1,6.9-2,.9-3.9,1.9-5.8,3.1-.5.3-1.6,1-1.3,1.8l-.6.3-1.4-3.5c1.5-1.4,4.7-3,6.5-3.8,2.7-1.1,4.6-3.2,3.1-6.7l-2.2-5.3-12,4.9M25.4,166.5l1.9,4.8c.6,1.4,2.4,5.2,7.2,3.2,4.7-2,3.3-5.7,2.4-7.7l-1.7-4.2-9.8,4Z"/>
  <path d="M30,208.2l-1.4-2.1,3.8-2.6h0c-3.2,1.1-6.1,0-8-2.8-4.9-7.2,1.9-12.7,7.6-16.6,5.7-3.9,13.2-7.5,18-.5,3.2,4.6,2,9.4-2.6,12.4l-1.9-2.7c3-2.1,4.2-4.7,2.1-7.9-3.5-5.4-9.7-1.3-13.8,1.5-3.7,2.5-10.3,6.7-7.2,11.7,3.2,5.2,8.1,2.5,11.9-.2l-3.7-5.4,2.4-1.7,5.5,8.1-12.7,8.6"/>
  <path d="M60,197l3.1,3-14.9,26.7-2.6-2.5,4.3-7.6-6.6-6.6-7.5,4.5-2.6-2.5,26.7-14.9M59.8,200.2h0c0,0-13.8,8.3-13.8,8.3l5.5,5.5,8.3-13.8Z"/>
  <path d="M81.8,214.2l2.7,1.8-16.1,24.7-4.5-2.9,5.9-24.2c.3-1.4.8-2.7,1.5-4.3h0c-.8,1.2-1.6,2.5-2.4,3.8l-12.8,19.7-2.7-1.8,16.1-24.7,4.4,2.9-6.1,24.7c-.2,1-.5,1.9-.9,3.3h0c.5-.9,1.1-1.8,1.7-2.8l13.1-20.1"/>
  <polyline points="76.7 244.5 88.8 217.6 91.7 219 79.7 245.8 76.7 244.5"/>
  <g>
    <path d="M106.5,233.1c.9-3.4.6-6.6-3.3-7.7-5.4-1.5-7.7,6.2-8.8,9.9-1.2,3.8-3.7,12.4,2,14,3.7,1.1,5.4-1.8,6.6-4.8.3-.6.5-1.2.7-1.9l3.1.9c-.2.5-.4,1.1-.6,1.7-.8,2.2-1.4,4-3.4,5.5-2.1,1.6-4.3,2.2-7.1,1.4-8.7-2.5-6.6-11-4.7-17.7,1.8-6.4,5-14.1,13.1-11.8,5.4,1.5,7,6.3,5.4,11.3l-3.1-.9"/>
    <path d="M135.3,234.5c.2-3.1-1.4-5.4-4.7-5.4-4.7,0-5.2,3-5.2,5.3,0,2,.9,3.3,2.8,4,1.6.6,3.1,1.2,4.7,1.7,5.6,2.1,6.6,4,6.6,7.9,0,5.6-3.5,8.8-9.1,8.9-2.9,0-6.4-.8-8.1-4.6-.6-1.5-.6-3.8-.6-5.4h3.3c-.1,4.3.7,7.1,5.6,7.1,3.3,0,5.6-1.7,5.6-5.2,0-4.5-1.8-4.5-4.8-5.6-1.6-.6-4.2-1.4-5.8-2.3-2.8-1.4-3.5-3.8-3.5-6.7,0-4.9,3.4-8.1,8.2-8.1,5.4,0,8.7,2.8,8.4,8.3h-3.3"/>
  </g>
  <polyline points="139.4 226.8 157.5 223.3 158.1 226.2 150.6 227.7 155.6 253.7 152.4 254.3 147.4 228.3 139.9 229.7 139.4 226.8"/>
  <path d="M163.2,221.1l4-1.6,18.3,24.5-3.4,1.3-5.2-7.1-8.7,3.3,1,8.7-3.4,1.3-2.8-30.5M166,222.5h0s2,16,2,16l7.2-2.8-9.2-13.2Z"/>
  <path d="M187.7,208.1l2.7-1.8,16,24.7-4.5,2.9-19.7-15.3c-1.1-.9-2.1-1.8-3.3-3.1h0c.8,1.3,1.7,2.5,2.5,3.8l12.8,19.7-2.7,1.8-16-24.7,4.4-2.9,20.1,15.7c.8.6,1.5,1.2,2.6,2.1h0c-.6-.9-1.3-1.8-1.9-2.8l-13.1-20.2"/>
  <path d="M214.6,224.4l-21-20.6,5.6-5.8c6.4-6.6,12.6-2.2,17.7,3,5,5.2,9.4,11.5,3.8,17.2l-6.1,6.2M214.8,220l3.6-3.7c3.3-3.4,2.2-7.3-4.3-13.2-5-4.5-8.8-7-12.5-3.2l-3.7,3.7,16.8,16.5Z"/>
  <path d="M210.6,184.2l2.4-3.6,29.2,9.1-2,3-8.4-2.7-5.1,7.8,5.9,6.4-2,3-20.1-23.1M213.8,183.7h0c0,0,11,11.9,11,11.9l4.2-6.5-15.2-5.3Z"/>
  <path d="M245.7,181.9l-1.2,3-27.3-11,2.8-7c2.3-5.7,5.3-8.7,11.5-6,3.2,1.4,4.7,4.3,3.8,7.6h0c1.8-3.4,3.2-3.8,7.1-2.7,2.1.7,4.2,1.3,6.3,1.9.6,0,1.8.4,2.1-.4l.6.2-1.4,3.5c-2,0-5.5-1.1-7.3-1.9-2.7-1.1-5.5-1-6.9,2.6l-2.1,5.3,12,4.9M230.9,176l1.9-4.8c.5-1.4,1.9-5.4-2.9-7.3-4.7-1.8-6.3,1.8-7.1,3.8l-1.7,4.3,9.8,4Z"/>
  <path d="M253.4,160.2l-29-5.1,1.4-8c1.6-9,9.2-9,16.3-7.5,7,1.5,14.2,4.2,12.8,12l-1.5,8.5M251.1,156.5l.9-5.1c.8-4.7-2.3-7.3-11-8.5-6.6-.9-11.2-.8-12.1,4.4l-.9,5.1,23.2,4.1Z"/>
  <path d="M16.7,92.7c-2.9-1.1-5.6,0-6.4,3.1-1.3,4.6,1.5,5.9,3.7,6.5,2,.5,3.4,0,4.6-1.6,1-1.4,2-2.7,3-4,3.5-4.8,5.7-5.3,9.4-4.2,5.4,1.5,7.6,5.7,6,11.2-.8,2.8-2.5,5.9-6.7,6.5-1.6.2-3.8-.5-5.3-.8l.9-3.1c4.2,1.3,7,1.3,8.3-3.5.9-3.2-.1-5.9-3.4-6.8-4.3-1.2-4.8.5-6.7,3.1-1,1.4-2.5,3.7-3.7,4.9-2.1,2.3-4.6,2.4-7.4,1.6-4.7-1.3-6.8-5.5-5.5-10.1,1.4-5.2,5-7.6,10.3-5.8l-.9,3.1"/>
  <path d="M17,70.7c3.9-7.6,11.5-4.9,17.4-1.8,7.2,3.8,13.7,8.3,9.8,16-3.9,7.6-11.4,4.9-18.7,1.2-6-3.1-12.6-7.6-8.5-15.4M19.5,72.2c-2.3,4.5,1.8,8,7.6,11,7.6,3.9,12,5.2,14.5.4,2.5-4.8-1.1-7.7-8.7-11.6-5.8-3-11-4.4-13.4.2Z"/>
  <polyline points="50 73.9 26.1 56.8 28 54.1 51.9 71.3 50 73.9"/>
  <polyline points="55.1 66.9 33.8 46.6 36 44.3 55.2 62.5 63.5 53.8 65.6 55.9 55.1 66.9"/>
  <path d="M65.2,20.3l3.7-2.2,21.9,21.4-3.1,1.8-6.2-6.2-8.1,4.6,2.4,8.4-3.1,1.8-7.4-29.7M68.2,21.3h0s4.4,15.5,4.4,15.5l6.7-3.9-11.1-11.7Z"/>
  <g>
    <path d="M98.2,14.4c-.7-3-3-4.7-6.1-3.7-4.5,1.5-4.1,4.5-3.4,6.6.6,1.9,1.9,2.9,3.9,3,1.7,0,3.3.2,5,.2,5.9.3,7.5,1.8,8.7,5.5,1.7,5.3-.6,9.5-6,11.2-2.8.9-6.3,1.2-9.1-2-1-1.2-1.7-3.4-2.2-4.9l3.1-1c1.2,4.2,2.8,6.6,7.5,5,3.1-1,4.8-3.3,3.8-6.6-1.4-4.3-3.1-3.7-6.3-3.9-1.7-.1-4.4,0-6.2-.4-3.1-.5-4.5-2.5-5.4-5.3-1.5-4.6.8-8.7,5.3-10.2,5.1-1.7,9.1,0,10.5,5.3l-3.1,1"/>
    <path d="M122.7,10.3c0-3.1-2-5.2-5.2-4.9-4.7.5-4.9,3.5-4.7,5.8.2,2,1.2,3.2,3.2,3.7,1.6.4,3.2.9,4.8,1.3,5.8,1.5,7,3.3,7.4,7.2.6,5.5-2.6,9.1-8.2,9.7-2.9.3-6.4-.2-8.5-3.8-.8-1.4-1-3.7-1.2-5.3l3.2-.3c.3,4.3,1.4,7,6.3,6.5,3.3-.3,5.4-2.3,5.1-5.7-.5-4.4-2.3-4.3-5.3-5.1-1.7-.5-4.3-1-6-1.7-2.9-1.1-3.9-3.4-4.2-6.3-.5-4.8,2.6-8.3,7.3-8.8,5.3-.6,8.9,1.9,9.2,7.4l-3.2.3"/>
    <path d="M144,2.6c8.5.9,8.8,8.9,8,15.6-.9,8.1-2.8,15.8-11.3,14.9-8.5-.9-8.7-8.9-7.9-17,.7-6.7,2.6-14.5,11.3-13.6M143.6,5.5c-5-.5-6.8,4.6-7.5,11.1-.9,8.5-.5,13.1,4.9,13.6,5.4.6,6.7-3.8,7.7-12.3.7-6.5,0-11.9-5.1-12.4Z"/>
  </g>
  <path d="M171.8,18.6c1-3.3.8-6.5-3.1-7.8-5.4-1.7-7.9,5.9-9.1,9.6-1.4,3.8-4.2,12.2,1.5,14,3.7,1.2,5.5-1.6,6.8-4.5.3-.6.5-1.2.8-1.8l3.1,1c-.3.5-.4,1.1-.7,1.7-.9,2.2-1.6,3.9-3.6,5.4-2.1,1.6-4.4,2-7.1,1.2-8.6-2.8-6.2-11.2-4.1-17.9,2-6.3,5.5-13.9,13.5-11.4,5.3,1.7,6.8,6.6,5,11.5l-3.1-1"/>
  <polyline points="172.2 41.3 185.3 14.9 188.2 16.4 175.1 42.7 172.2 41.3"/>
  <path d="M202.2,24.7l3.5,2.5-10.3,28.8-2.9-2.1,3-8.2-7.6-5.4-6.7,5.7-2.9-2.1,23.9-19.1M202.5,27.8h0s-12.2,10.5-12.2,10.5l6.3,4.5,6-15Z"/>
  <polyline points="215.8 35 228.5 48.4 226.4 50.4 221.1 44.9 202 63.2 199.8 60.8 218.9 42.5 213.6 37 215.8 35"/>
  <polyline points="207.2 69.4 230.7 51.6 232.7 54.2 209.2 72 207.2 69.4"/>
  <path d="M242.7,69c4.1,7.6-2.4,12.3-8.4,15.4-7.2,3.8-14.6,6.6-18.7-.9-4.1-7.6,2.4-12.2,9.5-16.1,5.9-3.2,13.4-6.1,17.6,1.6M240.1,70.3c-2.4-4.4-7.6-3-13.4.1-7.5,4.1-11,7-8.5,11.7,2.6,4.8,7,3.4,14.5-.6,5.8-3.1,9.8-6.7,7.4-11.2Z"/>
  <path d="M253.5,98.1l.9,3.1-28.2,8.5-1.5-5.1,20.1-14.7c1.1-.8,2.3-1.6,3.9-2.3h0c-1.4.4-2.9.9-4.3,1.3l-22.5,6.8-.9-3.1,28.2-8.5,1.5,5.1-20.6,15c-.8.6-1.6,1.1-2.8,1.9h0c1-.3,2.1-.6,3.1-1l23-7"/>
  <path d="M16.3,121.9c-1.1,0-2,.9-2,2s.9,2,2,2,2-.9,2-2-.9-2-2-2"/>
  <path d="M243.4,121.9c-1.1,0-2,.9-2,2s.9,2,2,2,2-.9,2-2-.9-2-2-2"/>
  <path d="M130.1,41.7c-48.4,0-87.7,39.3-87.7,87.7s39.3,87.7,87.7,87.7,87.7-39.3,87.7-87.7-39.3-87.7-87.7-87.7ZM210.7,129.4c0,8.2-1.2,16-3.5,23.4,0-.4,0-.8,0-1.1,0-14.6-8.5-28.1-24.9-38.8,0,0-12.4-7.8-12.8-8.1,0-.7.1-1.5.1-1.5.2-2.3.5-5.2.5-8.5s-.5-10.2-2.3-16.2c-2.8-9.4-7.7-16.9-13.3-21h0c-1.9-1.8-5.2-4.8-10-7.3,37.5,6.9,66.1,39.7,66.1,79.2ZM187.9,164.5c-2.5-4.3-7.3-7.3-14.4-9-14-3.3-28.7,4.6-45.7,13.8l-13.5,7.1c-13.8,7-33.4,11.8-47.9-4.8-2.7-3-4-7.5-4.6-11.9,2.3,1.5,4.8,2.4,7.5,2.4,5,0,10-2.6,15-7.9,9.9-10.4,10.4-27.1,10.9-46.4l.6-15.2c.8-13.4,5.4-36.2,27.9-39.1,5.8-.7,10.6.2,14.7,1.8-3.1,1.3-5.4,3.3-6.9,5.9-2.5,4.3-2.7,10-.6,17,4.1,13.8,18.3,22.5,34.8,32.7l12.8,8.1c13,8.5,26.9,23,19.8,43.9-1.1,3.4-4.1,6.7-8.7,10,.2-3-.3-5.7-1.7-8.2ZM182,174.9c-1.8,5.9-13.6,8.4-25.8,5.5-8.1-1.9-14-5.6-18.2-8.5,13.2-7,24.1-11.8,33.8-9.5,5,1.2,8.4,3.2,9.9,5.6,1,1.8,1.1,4.1.3,6.9ZM61.6,146.5c0-5.5,3.7-13.3,9.9-19.8,5.7-6,11.8-9.3,16.5-11.5-.6,14.9-1.8,26.8-8.7,34-3.6,3.8-7,5.7-9.8,5.7-2.1,0-4.1-1.1-6.1-3.2-1.2-1.3-1.7-3.1-1.7-5.2ZM143.4,61c6-1.4,14.1,7.6,17.6,19.6,1.5,5.2,2,10.1,2,14.2s-.2,4-.3,5.8c-12.6-7.9-22.3-15-25.1-24.5-.7-2.5-1.1-4.7-1.1-6.7s.4-3.5,1.1-4.7c1.1-1.8,3-3,5.8-3.7ZM107.2,52.2c-10.8,7.4-17.3,21.2-18.4,39.9,0,0-.5,13.7-.6,15.1-.7.3-1.3.7-1.3.7-4.9,2.3-13.1,6.1-20.6,14-7.2,7.6-11.3,16.2-11.7,23.5h0c-.2,2.7-.4,7,0,11.8-3.2-8.6-5-17.9-5-27.6,0-36.5,24.4-67.3,57.7-77.2ZM130.1,210c-22.9,0-43.5-9.6-58.2-25,12.6,7.1,28.4,6.4,45.8-2.3,0,0,12.9-6.8,13.4-7.1.6.4,1.2.8,1.2.8,4.4,3.1,11.9,8.3,22.4,10.8,10,2.4,19.3,1.7,25.8-1.4h0c2.7-1.2,8.4-3.8,13.7-7.7-14.7,19.3-37.9,31.8-64,31.8Z"/>
</svg>