<?xml version="1.0" encoding="UTF-8"?>
<svg xmlns="http://www.w3.org/2000/svg" version="1.1" viewBox="0 0 259.4 259.3">
  <defs>
    <style>
      .cls-1 {
        fill: none;
      }
    </style>
  </defs>
  <!-- Generator: Adobe Illustrator 28.7.1, SVG Export Plug-In . SVG Version: 1.2.0 Build 142)  -->
  <g>
    <g id="Layer_1">
      <path d="M130.7,259.3h-3.6s-.2-.1-.3-.1h-3.3c-2.2-.2-4.5-.3-6.7-.5-.8,0-1.6-.1-2.3-.2-1-.1-2.1-.3-3.1-.4-.8-.1-1.5-.2-2.3-.4-2-.3-3.9-.7-5.9-1.1-1.3-.3-2.6-.6-3.9-.9-.9-.2-1.9-.3-2.8-.6-1.4-.4-2.8-.9-4.2-1.3-.8-.2-1.4-.6-2.2-.7-.8,0-1.5-.4-2.2-.7-3.7-1.4-7.4-2.8-11-4.4-.8-.3-1.6-.6-2.4-1-.2-.1-.5-.3-.7-.4-.8-.4-1.5-.7-2.3-1.1-1-.5-2.1-1.1-3.1-1.7-2-1.1-4-2.2-6-3.4-3-1.9-5.9-3.8-8.8-5.9-3.1-2.1-6-4.5-8.8-7-.7-.6-1.4-1.1-2-1.7-1-.9-2-1.9-3-2.9-.8-.8-1.7-1.6-2.5-2.4-.9-.9-1.8-1.9-2.7-2.8-.9-1-1.9-1.9-2.7-2.9-4.1-4.9-8.1-9.9-11.4-15.3-1.8-2.9-3.6-5.8-5.2-8.8-1.2-2.1-2.2-4.2-3.2-6.4-1.9-4-3.6-8.2-5-12.4-1.1-3.2-2.1-6.5-3-9.8-.8-2.8-1.3-5.6-1.9-8.4-.8-4.1-1.4-8.2-1.8-12.3-.2-1.8-.2-3.5-.4-5.3v-.8C0,133.9,0,132.4-.1,131v-.2c0-2.9,0-5.8.2-8.7.2-3.2.6-6.4.9-9.6.6-4.8,1.5-9.6,2.7-14.2,3.6-14.6,9.6-28.1,17.9-40.6,1-1.5,1.9-2.9,3-4.4.8-1.1,1.7-2.2,2.6-3.3.8-1,1.5-2.1,2.3-3.1,1.2-1.4,2.5-2.8,3.8-4.2.7-.8,1.4-1.6,2.1-2.3.3-.3.6-.5.9-.8,1-1,1.9-2,2.9-3s.9-.7,1.3-1.2c1.2-1.5,2.7-2.5,4.1-3.8.5-.5,1.1-.9,1.7-1.3.4-.4.8-.8,1.3-1.1,1-.8,2-1.5,3-2.3.9-.7,1.9-1.5,2.8-2.2,1-.7,2.1-1.4,3.1-2.1s2-1.4,3-2.1c1.1-.7,2.2-1.3,3.3-2,1-.6,1.9-1.2,2.9-1.8,1.1-.6,2.2-1.2,3.3-1.7.7-.4,1.4-.8,2.2-1.2,1.3-.6,2.5-1.3,3.8-1.9,2.5-1.1,4.9-2.3,7.5-3.2,1-.3,1.9-.8,2.9-1.2,2-.7,3.9-1.3,5.9-1.9,1.8-.6,3.5-1.1,5.3-1.6,1.1-.3,2.2-.5,3.3-.8,1.8-.4,3.6-.9,5.5-1.2,3-.5,6-.9,9-1.2,1.1-.1,2.2-.2,3.3-.3.4,0,.9,0,1.3-.2.4,0,.7,0,1.1,0h.8c.5,0,1,0,1.4-.1h1.1c.7,0,1.4,0,2.1-.1h10.2C136.4,0,137.1,0,137.8.1h1.1c.4,0,.7,0,1.1.1,1.7.2,3.4.3,5.1.5,1.8.2,3.5.4,5.3.7s3.6.6,5.4,1c2.6.6,5.2,1.2,7.7,1.8,2.9.7,5.8,1.7,8.7,2.7.7.2,1.4.6,2.2.8,1.1.3,2,.9,3,1.2.7.2,1.4.5,2,.8.9.4,1.8.7,2.7,1,.7.3,1.4.7,2,1,2.7,1.4,5.4,2.7,8.1,4.1,2.2,1.1,4.2,2.4,6.3,3.7,1.4.8,2.7,1.7,4,2.6s2.6,1.8,3.8,2.7c2.4,1.7,4.6,3.5,6.9,5.4,1.1.9,2.1,1.8,3.2,2.7,1,.9,1.9,1.8,2.9,2.7s2,1.9,2.9,2.9c1,1,1.9,1.9,2.8,2.9,2,2.2,3.9,4.3,5.7,6.7,1.4,1.8,2.8,3.5,4.1,5.3,3.7,5.1,7,10.4,9.9,16,.7,1.3,1.3,2.5,1.9,3.8.6,1.2,1.1,2.5,1.7,3.8.4.9.9,1.8,1.3,2.7.5,1.2.9,2.5,1.4,3.8.3.8.7,1.5,1,2.3.3.9.6,1.8.9,2.7.3,1,.7,2,1,2.9.3,1.1.6,2.3,1,3.4.1.4.3.8.4,1.1.2,1,.6,2,.8,3,0,.4.1.8.2,1.2.2.9.5,1.9.7,2.8.1.6.2,1.2.3,1.9,0,.4.2.8.3,1.3.1.6.2,1.1.3,1.7.2.9.3,1.9.5,2.8.3,2.5.6,5.1.9,7.6.4,4.5.5,9,.5,13.6v.2c0,2.3-.2,4.7-.3,7v.2c-.2,1.6-.3,3.1-.5,4.7,0,.4-.2.8-.3,1.2v.5c0,.6-.2,1.3-.3,1.9,0,.5-.1,1-.3,1.6-.2.9,0,1.8-.4,2.6-.2.3,0,.7-.2,1-.2.7-.2,1.4-.3,2.1-.1.8-.3,1.7-.5,2.5-.1.5-.3,1-.4,1.5v.8c-.1.6-.3,1.1-.5,1.7-.1.5-.2.9-.3,1.4-.4,1-.5,2.1-.9,3.2-.3.8-.5,1.7-.8,2.5-.4,1.2-.8,2.4-1.2,3.6-.2.5-.4,1-.6,1.6-.2.5-.5,1-.6,1.5-.3,1.6-1.2,3-1.8,4.6-.5,1.6-1.4,3.1-2.1,4.6-.3.6-.6,1.3-.9,2-.6,1.2-1.2,2.5-1.9,3.7-1.5,2.7-3.1,5.3-4.6,7.9-.4.7-.8,1.4-1.2,2-.8,1.3-1.7,2.5-2.6,3.8-5.2,7.5-11.2,14.3-17.9,20.6-8.3,7.7-17.4,14.3-27.4,19.6-2.3,1.2-4.5,2.4-6.9,3.5-4,1.8-8,3.4-12.1,4.8-6.4,2.2-12.9,3.9-19.5,5-3.1.5-6.2.9-9.3,1.2-2.5.3-4.9.4-7.4.6h-4.3s-.2,0-.3.1h0l-.5.2ZM128.2,253.6h2.1c.3,0,.6,0,.9-.1h2.2c.7,0,1.5,0,2.2-.1h1.1c.5,0,1,0,1.4-.1.5,0,.9,0,1.4-.1,4-.3,7.9-.8,11.9-1.5,6.7-1.2,13.2-2.9,19.5-5.2,3.3-1.2,6.6-2.5,9.8-3.9,1.7-.8,3.4-1.7,5.1-2.5,1.2-.6,2.5-1.2,3.6-1.8,2.2-1.3,4.4-2.6,6.6-3.9.6-.3,1.1-.8,1.7-1.1,1.5-1,3-2,4.5-3.1,1-.7,1.9-1.3,2.8-2.1,1.3-1,2.6-2.1,3.9-3.2.6-.5,1.1-1,1.7-1.5.8-.7,1.6-1.3,2.4-2,.8-.7,1.5-1.4,2.2-2.1,1-1,2.1-2,3.1-3.1.5-.5.9-1,1.4-1.6.8-.8,1.6-1.7,2.4-2.5h0c.5-.6,1-1.1,1.4-1.7,1.1-1.3,2.2-2.7,3.3-4.1.6-.8,1.2-1.6,1.9-2.4.7-1,1.5-1.9,2.2-2.9s1.4-2,2-3c.8-1.2,1.6-2.4,2.3-3.7.7-1.2,1.4-2.4,2.2-3.6.2-.4.5-.8.7-1.2.6-1,1.1-2.1,1.7-3.1.8-1.5,1.5-3.1,2.3-4.6.4-.8.7-1.7,1.1-2.5.3-.6.5-1.2.7-1.9.5-1.2,1-2.3,1.4-3.5.3-.8.6-1.6.9-2.5.5-1.3.9-2.6,1.4-3.9.3-1,.6-2.1.9-3.1.3-.9.6-1.7.8-2.6.3-1.1.6-2.3.8-3.4.2-.8.5-1.7.6-2.5.2-1.3.6-2.5.7-3.9v-.3c0-.4.2-.8.3-1.3v-.5c.1-.7.3-1.3.4-2,0-.5.1-1,.2-1.5.3-2.2.6-4.4.8-6.7.2-1.7.3-3.4.3-5.1v-9c0-1,0-1.9-.1-2.9v-.2c-.1-3.1-.4-6.1-.9-9.2-.3-1.9-.5-3.8-.9-5.7-.4-2.2-.9-4.4-1.4-6.6-.1-.6-.2-1.2-.4-1.8-.7-2.4-1.4-4.7-2.1-7.1-.3-.9-.5-1.8-.8-2.6-.7-1.8-1.3-3.7-2-5.5-1-2.6-2.1-5.3-3.5-7.8-1.2-2.1-2.1-4.4-3.3-6.5-1.9-3.6-4.1-7.1-6.5-10.4-1.6-2.2-3.2-4.4-4.8-6.6-1.3-1.6-2.7-3.1-4-4.6-1.4-1.5-2.7-3.1-4.2-4.6-2.6-2.7-5.4-5.3-8.3-7.8-1.8-1.5-3.5-3-5.4-4.4-2.6-2-5.2-3.9-7.9-5.6-2.3-1.4-4.6-2.7-6.8-4.1-1.6-1-3.2-1.7-4.9-2.5-.5-.2-.9-.5-1.4-.8-.8-.4-1.6-.8-2.5-1.2-3.3-1.5-6.6-2.9-10.1-4.1-1.3-.5-2.7-1-4-1.4s-2.5-.9-3.8-1.2c-1.6-.4-3.2-.8-4.8-1.3-.7-.2-1.4-.1-2-.6-1,0-1.8-.3-2.8-.5-1.7-.3-3.4-.6-5.1-.9-.9,0-1.7-.2-2.6-.4-1.2-.2-2.5-.3-3.7-.5l-1.6-.2h-.1c-.6,0-1.3,0-1.9-.2-1,0-2.1,0-3.1-.2h-1.6c-3,0-5.9-.2-8.9-.2s-.2,0-.4,0c-1.2,0-2.5,0-3.7.2-.5,0-1,0-1.4,0-1.5.2-2.9.3-4.4.5-1.7.2-3.3.4-5,.6-1.2.2-2.5.3-3.7.6-1.9.4-3.7.8-5.6,1.3s-3.7.9-5.5,1.5c-2,.6-3.9,1.2-5.9,1.8-2.3.8-4.7,1.6-6.9,2.6-1.5.7-3.1,1.3-4.6,2-2.5,1.2-5.1,2.5-7.6,3.8-.7.4-1.4.8-2.1,1.2-1,.6-2,1.1-3,1.7-1.2.7-2.4,1.5-3.6,2.3-.2.1-.4.3-.6.4-.9.6-1.7,1.3-2.6,1.9-1.3.8-2.5,1.6-3.6,2.6-.3.2-.6.4-.8.6-.8.6-1.6,1.3-2.4,1.9-.5.5-1,1-1.6,1.4-.6.5-1.2.9-1.7,1.4-.7.6-1.3,1.3-2,1.9-.7.6-1.4,1.2-2,1.9-1,1.1-2.2,2.1-3.2,3.2-.8.8-1.6,1.5-2.3,2.3-.6.8-1.4,1.5-2.1,2.2-.9,1-1.8,2.1-2.7,3.2-1.2,1.4-2.3,2.9-3.4,4.4-1.2,1.6-2.3,3.2-3.5,4.8-.2.2-.3.5-.5.8-.7,1.1-1.4,2.1-2.1,3.2-.8,1.4-1.8,2.7-2.5,4.2-.5.9-1,1.7-1.5,2.6-.4.7-.9,1.4-1.2,2.2-.6,1.2-1.1,2.4-1.7,3.7-.4.9-.8,1.7-1.2,2.6-1.3,3.1-2.5,6.1-3.7,9.2-.7,1.7-1.2,3.4-1.8,5.1-.3,1.1-.6,2.2-.9,3.3-.4,1.5-.8,2.9-1.1,4.4-.2,1-.5,2-.7,3-.1.6-.3,1.1-.4,1.7s0,1.2-.2,1.8c-.3,1.5-.6,3.1-.9,4.6,0,.8,0,1.6-.2,2.3-.2,1.9-.4,3.9-.5,5.8h0c0,1.6-.2,3.1-.2,4.5-.2,4.9,0,9.7.3,14.6,0,.9,0,1.8.2,2.6v1.1c0,.4.2.7.2,1,.2,1.1.3,2.2.5,3.3,0,.9.2,1.9.5,2.8.2.4,0,1,0,1.4.3.5,0,.9.2,1.4.2.5.2,1.1.3,1.7.2,1.1.4,2.2.7,3.4.2,1,.5,2,.8,3.1.2.9.4,1.7.7,2.6.7,2.1,1.3,4.2,2,6.3.9,2.4,1.7,4.8,2.8,7.2.7,1.5,1.2,2.9,1.9,4.4,1,2.1,2,4.1,3.1,6.1,1.5,2.9,3.1,5.6,4.9,8.3,1.9,2.9,3.9,5.8,6,8.6,3.3,4.3,6.8,8.4,10.7,12.2,1.3,1.3,2.7,2.6,4.1,3.9,5.1,4.7,10.7,9,16.5,12.8,8.9,5.8,18.4,10.3,28.5,13.6,3.5,1.2,7.1,2.2,10.7,3,3.7.9,7.4,1.5,11.2,2.1,2.2.3,4.5.5,6.8.7.5,0,1,0,1.4.1h1.1c.7,0,1.5,0,2.2.1h2.2c.5,0,1,0,1.6.1h0v.3Z"/>
      <path d="M132.4,0h-5.5c1.7-.1,3.4-.1,5-.1h.5Z"/>
      <path d="M130.7,0C130,0,129.3,0,128.6.1,129.3.1,130,.1,130.7,0Z"/>
      <path d="M130.7.2c-.7,0-1.4,0-2.1-.1.7,0,1.4,0,2.1.1Z"/>
      <path d="M130.4.2c-.5,0-1,0-1.4.1.5,0,1,0,1.4-.1Z"/>
      <path d="M130.3.4c-.4,0-.7,0-1.1,0,.4,0,.7,0,1.1,0Z"/>
      <path d="M130.3.3c-.4,0-.7,0-1.1,0,.4,0,.7,0,1.1,0Z"/>
      <path d="M130.2-.1h0C129.9,0,129.6,0,129.3,0,129.6,0,129.9,0,130.3-.1h-.1Z"/>
      <path d="M129.7,132.4v-.2.2Z"/>
      <path d="M129.7,139.6v-.2.2Z"/>
      <path d="M134.3,6h-9.3c0,0,.2,0,.4,0h8.9Z"/>
      <path d="M130.6,6.4c-.6,0-1.3,0-1.9-.2.6,0,1.3,0,1.9.2Z"/>
      <path d="M130.5,6.5c-.5,0-1.1,0-1.6-.2.5,0,1.1,0,1.6.2Z"/>
      <path d="M128.9,6h0c.5,0,1.1,0,1.6,0h-1.6Z"/>
      <path d="M130.4,6.1c-.5,0-1,0-1.4,0,.5,0,1,0,1.4,0Z"/>
      <path d="M129.7,125.8v-.2.2Z"/>
      <path d="M129.7,122.7v-.2.2Z"/>
      <path d="M130.5,53.3h-1.6c.5-.2,1.1-.3,1.6,0Z"/>
      <path class="cls-1" d="M113.1,95c.7-.6,1.4-1.3,2.2-1.9-.5-1-.9-1.9-1.4-2.9-1.3-2.5-2.6-4.7-4.6-6.7-1.3-1.3-2.6-2.5-4-3.7-.7-.5-1.6-1.1-2.6-1.1,0,.3,0,.5,0,.7.9,2.1,1.8,4.1,2.7,6.2.6,1.4,1.2,2.7,1.7,4.1.9,2.9,1.8,5.9,2.7,8.9,1-1.2,2.1-2.4,3.4-3.6Z"/>
      <g>
        <path d="M35.1,177.3c-3.2-6.4-1.4-12.4,7.9-17.2l3.2-1.6c9.4-4.7,15.3-2.6,18.5,3.8,3.2,6.4,1.4,12.4-7.9,17.2l-3.2,1.6c-9.4,4.7-15.3,2.6-18.5-3.8ZM44.9,163.7c-7.2,3.6-8.7,7.5-6.5,11.9,2.2,4.4,6.2,5.5,13.4,1.9l3.2-1.6c7.2-3.6,8.7-7.5,6.5-11.9-2.2-4.4-6.2-5.5-13.4-1.9l-3.2,1.6Z"/>
        <path d="M66.5,214.6l3.9-14.8-5.8-5-9,10.3-3-2.7,21.3-24.4,7.8,6.8c5.6,4.9,6.8,10.1,2.7,14.8-3,3.4-6.6,4.1-10.5,2.3l-4,15.6-3.4-3ZM71.8,196.2c4.1,3.6,7,3.8,9.6.8,2.7-3,2.1-5.8-2.1-9.4l-4.7-4.1-7.5,8.6,4.7,4.1Z"/>
        <path d="M112,217.9l-.6,1.8c-3.4,9.9-9.3,12.5-16.1,10.2-6.8-2.3-9.7-7.9-6.3-17.8l1.2-3.4c3.4-9.9,9.1-12.5,15.9-10.2,6,2,9,6.6,7.6,13.7l-3.7-1.3c.6-4.9-1.2-7.6-5.1-8.9-4.7-1.6-8.3.4-10.9,8.1l-1.2,3.4c-2.6,7.6-1,11.4,3.7,13,4.3,1.5,7.9,0,10.5-6.3l-7.3-2.5,1.2-3.5,11.2,3.8Z"/>
        <path d="M122,235.7l9.6-33,3.8-.2,12.9,31.8-4.3.2-2.9-7.3-12.8.6-2.1,7.5-4.3.2ZM129.5,224.2l10.2-.5-5.9-15-4.3,15.5Z"/>
        <path d="M170.9,191l13.9,29.3-3.6,1.7-23.2-16.1,10.5,22.2-3.6,1.7-13.9-29.3,3.5-1.7,23.4,16.3-10.6-22.4,3.6-1.7Z"/>
        <path d="M203.1,205.5l-3,2.8-22.1-23.8,3-2.8,22.1,23.8Z"/>
        <path d="M205.6,164.7c-5-1.6-7.8-.2-9.8,3.2-2.5,4.3-1.2,8.2,5.7,12.3l3.1,1.8c6.9,4.1,11,3.3,13.5-1,2.1-3.6,1.6-6.8-2-10.1l2-3.4c5.8,4.6,6.3,10,3.2,15.3-3.6,6.2-9.7,8-18.7,2.7l-3.1-1.8c-9-5.3-10.5-11.4-6.8-17.6,3.2-5.5,8.3-7.5,14.9-4.8l-2,3.4Z"/>
      </g>
      <path d="M167.8,48.6c0,.9,0,1.8-.2,2.6-.3,4.4-.8,8.7-1.7,13-.6,2.7-1.3,5.4-2.3,8-1.1,2.9-2.3,5.9-3.5,8.8-1.7,4-4.2,7.5-7.3,10.6-2.8,2.9-5.9,5.4-9.2,7.8-3.8,2.8-7.7,5.5-11.5,8.3-4.3,3.2-8.3,6.8-11.7,11-3.4,4.2-6,8.9-7.8,13.9-1.3,3.6-2.3,7.3-2.9,11.1,0,.2,0,.4,0,.6,0-.2.2-.5.3-.7,1.2-2.7,2.2-5.4,3.5-8,4.7-9.7,11.3-17.9,20.2-24.1,3.5-2.5,7.1-4.9,10.7-7.3,3.8-2.6,7.5-5.5,10.7-9,3-3.2,5.4-6.8,7.5-10.6,2.2-4.2,3.9-8.5,5.3-13,2.1-6.9,3.5-13.9,4.6-21.1,0-.3.1-.6.2-.9,0,0,.2,0,.2,0,0,.2,0,.5.1.7,5,12.4,6.6,25.2,4.8,38.5-.6,4.1-1.2,8.3-2.2,12.3-1.1,4.6-2.6,9-4.5,13.3-5.3,11.7-13.4,21.1-23.6,28.9-5.2,4-10.8,7.4-16.5,10.6-4.7,2.6-9.5,5.2-14.3,7.8-2.5,1.4-4.9,2.8-7.1,4.6-1.5,1.2-2.9,2.4-4,4-.7.9-1.2,2-1.5,3.2-.3-.3-.6-.5-.9-.7-3.7-3.2-6.4-7.2-8.4-11.6-2.4-5.3-3.7-10.9-4.3-16.7-.9-8.2-.5-16.3,1-24.4.7-3.9,1.6-7.8,3-11.6,3-8.2,7.6-15.5,13.8-21.7,4.7-4.7,10-8.8,15.6-12.4,6.5-4.2,13.3-7.7,20.2-11.2,4.4-2.2,8.8-4.4,13.1-6.7,2.2-1.2,4.4-2.5,6.4-4,1.5-1.1,2.8-2.3,3.9-3.8,0,0,.1-.1.3-.2Z"/>
    </g>
  </g>
</svg>