<?xml version="1.0" encoding="UTF-8"?>
<svg id="Layer_2" data-name="Layer 2" xmlns="http://www.w3.org/2000/svg" version="1.1" viewBox="0 0 92.2 258.5">
  <defs>
    <style>
      .cls-1 {
        fill: none;
        stroke: #000;
        stroke-miterlimit: 10;
        stroke-width: 1.2px;
      }

      .cls-2 {
        fill: #000;
        stroke-width: 0px;
      }
    </style>
  </defs>
  <path class="cls-2" d="M48,11.6c.3.3.8.9,1.1,1.2,1.1,1.3,2.3,2.7,4,3,7.1,1,15.9,4.6,22,23.4,5.6,17.6,8.4,47,8.4,89.9,0,89.9-11.8,110.4-29.5,113.5-1.6.3-2.9,1.5-4.1,2.7-.5.5-1.4,1.4-1.8,1.5-.5,0-1.7-1-2.5-1.6-1.4-1.1-2.8-2.3-4.5-2.5-7.6-1-16.3-4.4-22.6-21.6-6.5-17.7-9.7-47.7-9.7-91.9s3.4-76.2,10.3-93.6c2.9-7.3,6.4-12.4,10.8-15.6,3.5-2.6,7.7-4,13.2-4.5,1.8-.2,3-1.6,4.1-2.9.3-.3.6-.8.9-1.1M47.9,9.1c-1.7,0-3.5,4.1-5.2,4.3C22.2,15.1,6.4,30.3,6.4,129.3s14.8,113,34.2,115.7c2.4.3,4.8,4.1,7.3,4.1s4.3-3.9,6.3-4.2c20-3.5,31.4-26.6,31.4-115.8S73.7,16.6,53.3,13.6c-1.8-.3-3.6-4.4-5.4-4.4h0Z"/>
  <path class="cls-1" d="M51.8,25.7c3.6,14.5,4.1,85.8,4.1,85.8"/>
</svg>