<?xml version="1.0" encoding="UTF-8"?>
<svg id="Layer_2" data-name="Layer 2" xmlns="http://www.w3.org/2000/svg" version="1.1" viewBox="0 0 74.3 219.1">
  <defs>
    <style>
      .cls-1 {
        fill: #000;
        stroke-width: 0px;
      }

      .cls-2 {
        fill: none;
        stroke: #000;
        stroke-miterlimit: 10;
        stroke-width: 1.1px;
      }
    </style>
  </defs>
  <path class="cls-1" d="M38.7,6.3c.3.3.7.8.9,1.1,1,1.2,2,2.4,3.5,2.6,6.2.9,13.9,4.1,19.2,20.5,4.9,15.4,7.3,41.1,7.3,78.6,0,78.7-10.3,96.6-25.8,99.4-1.4.3-2.5,1.3-3.6,2.3-.5.5-1.3,1.2-1.6,1.3-.5,0-1.5-.9-2.1-1.4-1.2-1-2.4-2-4-2.2-6.7-.9-14.3-3.9-19.8-18.9-5.7-15.5-8.5-41.8-8.5-80.4S7.3,42.7,13.3,27.4c2.5-6.4,5.6-10.8,9.4-13.6,3.1-2.3,6.8-3.5,11.5-3.9,1.6-.1,2.6-1.4,3.6-2.6.2-.3.6-.7.8-1M38.7,4.1c-1.5,0-3,3.6-4.5,3.7C16.2,9.4,2.3,22.6,2.3,109.3s12.9,98.9,29.9,101.2c2.1.3,4.2,3.6,6.4,3.6s3.7-3.4,5.5-3.7c17.5-3.1,27.5-23.3,27.5-101.3S61.3,10.7,43.4,8c-1.6-.2-3.1-3.9-4.7-3.9h0Z"/>
  <path class="cls-2" d="M42.1,18.7c3.1,12.7,3.6,75.1,3.6,75.1"/>
</svg>