<?xml version="1.0" encoding="UTF-8"?>
<svg id="Layer_2" data-name="Layer 2" xmlns="http://www.w3.org/2000/svg" version="1.1" viewBox="0 0 92.2 212.5">
  <defs>
    <style>
      .cls-1 {
        fill: #000;
        stroke-width: 0px;
      }

      .cls-2 {
        fill: none;
        stroke: #000;
        stroke-miterlimit: 10;
      }
    </style>
  </defs>
  <path class="cls-1" d="M47.6,11.3c.3.3.6.7.9,1,.9,1.1,1.8,2.2,3.2,2.4,5.7.8,12.9,3.7,17.7,18.9,4.6,14.2,6.8,37.9,6.8,72.6,0,72.6-9.5,89.1-23.8,91.7-1.3.2-2.3,1.2-3.3,2.1-.4.4-1.2,1.1-1.5,1.2-.4,0-1.4-.8-2-1.3-1.1-.9-2.2-1.8-3.7-2-6.2-.8-13.1-3.6-18.2-17.4-5.3-14.3-7.8-38.5-7.8-74.2s2.7-61.5,8.3-75.6c2.3-5.9,5.2-10,8.7-12.6,2.9-2.1,6.2-3.2,10.6-3.6,1.4-.1,2.4-1.3,3.3-2.4.2-.3.5-.6.8-.9M47.6,9.3c-1.4,0-2.8,3.3-4.2,3.4-16.6,1.4-29.4,13.6-29.4,93.6s11.9,91.2,27.6,93.4c1.9.3,3.9,3.3,5.9,3.3s3.4-3.1,5.1-3.4c16.1-2.8,25.4-21.5,25.4-93.5S68.4,15.3,51.9,12.9c-1.4-.2-2.9-3.6-4.4-3.6h0Z"/>
  <path class="cls-2" d="M50.7,22.7c2.9,11.7,3.3,69.2,3.3,69.2"/>
</svg>