<?xml version="1.0" encoding="UTF-8"?><svg id="Layer_1" xmlns="http://www.w3.org/2000/svg" viewBox="0 0 152.27 70.69"><path d="m124.77,35.77c-4.24,0-7.47,3.17-7.47,7.88s3.23,7.89,7.47,7.89,7.47-3.17,7.47-7.89c0-4.72-3.23-7.88-7.47-7.88Z" fill="#fff"/><path d="m90.34,35.77c-4.24,0-7.47,3.17-7.47,7.88s3.23,7.89,7.47,7.89c4.24,0,7.47-3.17,7.47-7.89s-3.23-7.88-7.47-7.88Z" fill="#fff"/><path d="m139.93,18.48c-2.11,0-3.83,1.72-3.83,3.83s1.72,3.83,3.83,3.83,3.83-1.72,3.83-3.83-1.72-3.83-3.83-3.83Z" fill="#fff"/><path d="m0,0v70.69h152.27V0H0Zm13.78,59.91c-1.79,0-4.12-.18-6.45-.48v-8c2.63.36,4.54.54,5.91.54,2.45,0,3.46-.6,3.46-1.85,0-1.02-.72-1.91-2.75-3.4l-1.85-1.37c-3.64-2.69-5.14-5.2-5.14-8.72,0-5.85,4.24-9.26,11.65-9.26,1.55,0,3.23.12,5.08.42v7.35c-1.73-.24-3.11-.3-3.88-.3-2.51,0-3.7.6-3.7,1.61,0,.72.6,1.37,2.57,2.75l1.67,1.19c4.3,3.05,6.09,5.91,6.09,9.68,0,6.21-4.66,9.86-12.66,9.86Zm32.88-.48v-18.22c0-3.58-1.49-5.44-4.3-5.44s-4.54,1.85-4.54,5.44v18.22s-9.44,0-9.44,0V13.26s9.44,0,9.44,0v8.42c0,2.75-.06,5.55-.12,8.06,1.73-1.79,4.36-2.75,7.41-2.75,6.99,0,10.99,4.96,10.99,13.56v18.88s-9.44,0-9.44,0Zm23.39-23.17c-1.91,0-2.75.84-2.75,2.75v20.43s-9.44,0-9.44,0v-20.19c0-7.94,4.24-11.47,11.29-11.47h4.06v8.48s-3.17,0-3.17,0Zm20.3,24.07c-9.38,0-16.9-6.93-16.9-16.67,0-9.74,7.53-16.66,16.9-16.66,9.38,0,16.9,6.93,16.9,16.66,0,9.74-7.53,16.67-16.9,16.67Zm34.43,0c-9.38,0-16.9-6.93-16.9-16.67s7.53-16.66,16.9-16.66c9.38,0,16.9,6.93,16.9,16.66,0,9.74-7.53,16.67-16.9,16.67Zm15.16-33.07c-2.72,0-4.94-2.22-4.94-4.94s2.22-4.94,4.94-4.94,4.94,2.22,4.94,4.94-2.22,4.94-4.94,4.94Z" fill="#fff"/></svg>