<?xml version="1.0" encoding="UTF-8"?><svg id="Layer_1" xmlns="http://www.w3.org/2000/svg" viewBox="0 0 543.08 231.69"><path d="M487.72,222.57c-22.52-1.05-21.65-.21-43.16-2.11-22.57-1.13-21.57-1.56-44.34,2.16-21.52-3.1-21.46-3.46-42.37-.68-21.79-1.34-22.36-.86-43.26.18-21.63-1.33-22.27.71-43.12-.96-22.21.35-21.19-1.99-43,.28-22.04.06-22.32,2.49-42.58.83-22.07-1.34-22.82-2.8-43.87-.21-21.62-.19-21-2.21-43.5-1.55-21.26.05-21.54,4.02-42.97,2.42-19.32-2.6-33.97-19.12-33.63-34.69.22-24.47-1.66-25.46-1.99-46.36-.59-25.98.59-24.71,1.62-51.23-.67-20.01-.06-21.92-.24-45.82.62-19.09,15.12-34.85,33.92-36.33,21.56,2.34,21.85,2.69,44.04,4.83,20.63.47,21.81-3.14,43.36-3.72,21.14,4.7,20.84,2.1,43.02,2,20.43-1.18,20.72.76,42.56.83,21.57,1.56,22.25,2.07,42.96.54,22.04-1.14,22.21-3.17,44.08-2.01,21.35,1.99,21.35-1.38,41.92-.24,22.13,1.67,21.71-.44,43.23,1.93,21.56-2.67,22.53-.47,42.92-1.29,22.4,1.37,21.78-1.67,43.43-1.17,18.94,3.98,36.21,19.65,36.54,35.2-.68,24.43-1.11,21.92-2.01,50.35.92,19.1-.4,20.02.29,43.53-.93,25.38.68,25.72-.14,49.01.92,18.61-14.41,31.69-33.72,34.3Z" fill="#d3d3d3" stroke-width="0"/></svg>