<?xml version="1.0" encoding="UTF-8"?><svg id="Layer_1" xmlns="http://www.w3.org/2000/svg" viewBox="0 0 1872.35 1077.61"><path d="M1757.13,1058.05c-94.9-4.38-91.24-.89-181.89-8.84-95.11-4.72-90.92-6.55-186.86,9.03-90.69-13-90.43-14.51-178.58-2.85-91.85-5.6-94.23-3.6-182.34.76-91.17-5.58-93.85,2.95-181.75-4.03-93.59,1.47-89.32-8.35-181.22,1.16-92.86.26-94.02,10.43-179.47,3.49-93-5.63-96.15-11.74-184.87-.88-91.12-.78-88.52-9.26-183.31-6.48-43.13.2-82.92-21.8-82.38-72.93-.13-97.36,6.62-98.43,8.07-169.27.91-91.4-6.95-95.54-8.34-172.02-2.46-97.71,2.46-92.4,6.79-192.38-2.8-72.71-.25-80.72-.99-169.75,2.6-85.6-5.86-82.46-7.9-175.09,0-34.63,40.88-72.86,87.96-63.89,86.97,1.96,91.93-13.14,182.75-15.57,89.11,19.67,87.86,8.81,181.3,8.38,86.16-4.94,87.38,3.17,179.41,3.46,90.9,6.54,93.77,8.67,181.04,2.28,92.86-4.79,93.59-13.29,185.73-8.43,90,8.32,89.97-5.78,176.7-1.02,93.26,7.01,91.48-1.84,182.2,8.07,90.87-11.2,94.91-1.98,180.87-5.42,94.37,5.75,91.78-7.01,183.01-4.91,42.95,16.66,85.8,52.82,87.19,81.57-2.86,91.24-4.64,80.75-8.4,188.72,3.83,68.89-1.67,72.76,1.21,160.13-3.91,95.22,2.83,96.63-.58,183.08,3.86,83.62-4.71,68.34-3.23,158.14,3.6,92.2,5.75,105.28,7.05,182.56,1.53,43.23-34.68,71.98-79.19,82.92Z" fill="#d3d3d3" stroke-width="0"/></svg>