<?xml version="1.0" encoding="UTF-8"?><svg id="Layer_1" xmlns="http://www.w3.org/2000/svg" viewBox="0 0 313.1 314.65"><path d="M277.36,236.39c-.18,5.02-1.42,10.3.82,15.23.34,0,.68,0,1.01,0-.82,8.73,2.32,18.27-5.24,25.61-5.48,2.94-11.24,4.73-17.52,5.04-30.93,1.49-61.85.17-92.78.11-.02-.39-.03-.79-.04-1.18-1.36.14-2.72.27-4.08.41-4-.09-8-.35-11.99-.23-32.04,1-64.08.99-96.11-.44-9.22-.41-14.76-4.59-17.02-13.64-.76-3.05-1.13-6.23-1.33-9.37-2.28-35.18-1.2-70.4-1.34-105.61-.05-12.21.89-24.42-.22-36.63.18-14.72.35-29.43.53-44.15-.08-.01-.16-.03-.23-.04-.04-3.33-.08-6.67-.12-10,1.63-2.86,3.88-5.54,4.77-8.62,3.19-10.99,11.31-15.68,21.63-17.62,8.5-1.59,17.1-2.38,25.76-2.38,21.89-.01,43.77,0,65.66-.08,4.94-.02,9.91.55,14.82-.54h-.04c.45-.2.9-.4,1.35-.6.97.01,1.94.02,2.9.03,8.28.73,16.57.74,24.86.29,2.72,1.5,5.67.75,8.51.77,15.63.1,31.26-.03,46.88.13,15.39.15,26.09,9.21,29.17,24.14,2.11,10.2.66,20.5,1.2,30.73-1.11,9.11,2.35,17.8,2.44,26.81-.66,0-1.32,0-1.98.01.4,40.62-.82,81.22-2.26,121.81Z" fill="#d3d3d3" stroke-width="0"/></svg>