<?xml version="1.0" encoding="UTF-8"?><svg id="Layer_1" xmlns="http://www.w3.org/2000/svg" viewBox="0 0 353.52 237.19"><path d="M323.96,76.7c.16,11.91-1.19,11.89-1.17,23.59.05,13.45,1.34,13.97,1.85,25.57-.49,12.32-1.83,12.87-1.14,24.42,1.13,7.24,2.53,16.38,1.04,21.91-1.94,6.03-6.69,11.4-10.36,18.1-3.58,5.59-8.37,11.85-13.16,15.36-6.07,7.66-12.37,11.31-16.67,12.5-10.86-1.34-10.95-1.53-21.92-3.31-10.59.34-10.58-1.27-20.63-.3-10.93-1.06-11.05-3.04-21.61-2.33-10.54.32-11.09,3.9-21.2,3.19-11.2-.97-10.71-3.44-21.6-4.32-10.23-.43-10.83-1.53-21.2-2.78-10.47-.86-11.04,2.32-21.52,4.29-10.16-1.61-10.72-2.62-21.03-2.95-10.69.79-10.91.37-21.17-2.75-10.53-.04-11.04,2.29-21.71,3.39-7.68-.05-17.64-3.12-25.63-4.15-9.11-4.96-16.77-10.01-16.69-19.06.34-11.25,2.09-12.06,2.25-22.7,0-9.59-.56-9.39-.41-21.77.09-9.37-.01-9.89.37-21.66-.32-8.22-.48-10.01-.79-21.65-.22-10.49-.37-9.94-.42-20.18.21-11.76-.1-10-.15-23.07-.1-3.15,3.98-11.24,10.92-17.13,5.79-5.87,12.58-11.54,19.37-15.05,8.34-1.99,16.98-5.74,22.33-4.54,10.82-1.58,10.78,3.7,21.87,2.52,10.51,1.02,10.36,1.51,21.48,2.58,10.98-1.08,10.76-2.93,21.66-3.06,10.53,1.41,10.79,3.65,21.68,3,10.76-.1,10.36,2.23,21.14.84,10.97,1,10.94,1.04,21.93,1.28,10.78-1.09,10.82-3.12,21.48-.65,11.12-1.2,10.71,4.22,21.45,3.41,10.98.05,10.86-.07,21.92-1.98,8.91-.07,17.59,1.22,25.02,5.44,7.06,3.87,14.04,12.05,17.83,18.07,3.91,8.82,4.36,15.13,4.59,25.91Z" fill="#d3d3d3" stroke-width="0"/></svg>