<?xml version="1.0" encoding="UTF-8"?><svg id="Layer_1" xmlns="http://www.w3.org/2000/svg" viewBox="0 0 503.92 536.84"><path d="M356.07,492.75c-20.92-2.25-21.58-1.57-42.47-.48-20.89-.1-21.18-.44-42.61,2.41-21.5-2.72-21.48-.28-42.97-.16-21.05.56-20.6,1.36-42.35-1.74-21.3,2.38-21.73,3.12-43.11,1.43-21.33-1.45-20.21.85-41.93-2.56-15.5,6.11-26.97,5.53-35.5.48-13.14-4.75-20.77-11.59-23.5-27.33-3.44-10.38-1.88-21.87-1.65-33.25-1.29-20.85-1.63-20.52-.51-43.66-.85-22.29,1.6-19.95,1.36-40.96.46-24.75-1.6-24.59-.91-41.09-.96-22.45-.99-21.37-1.53-45.18,1.2-23.49,2.6-22.51,2.21-45.21-.02-19.63-1.64-20.71-.75-42.36,0-22.8.44-18.58.13-42.04-.27-21.53-.35-21,.02-43.47-.96-15.02,9.67-24.98,23.76-33.29,12.1-6.45,26.24-10.93,42.31-13.64,21.46,1.85,20.7,5.58,42.06,4.05,20.04-1.7,20.4-1.48,41.66-.12,20.13-1.99,20.53,1.84,41.79,2.68,20.05-4.14,20.34-5.64,41.09-4.18,21.44.94,20.44,2.08,41.77-1.02,20.94-1.39,21.02,5.23,41.69,2.17,21.19-2.04,21.46-.08,41.92,1.94,16.6-3.5,30.73,4.79,42.51,9.02,14.71,6.62,24.19,19.74,24.28,35.06-.3,21.42-.17,19.33-.13,38.64-.38,21.69-.79,20.99-1.3,45.07-.41,18.32,2.07,18.08,1.85,40.57.11,18.21-.9,21.29-1.2,37.47,1.06,21.25.19,24.09.91,45.85-.07,17.18-.57,20.63-.7,39.05-.47,22.01.07,20.06.47,40.81-.13,20.49-.63,19.82-.27,45.14-.79,12.7-7.37,26.1-20.44,41.46-10.07,8.11-24.88,15.88-40.61,24.17-14.85-.22-30.71,6.96-47.34,4.27Z" fill="#d3d3d3" stroke-width="0"/></svg>