<?xml version="1.0" encoding="UTF-8"?><svg id="Layer_1" xmlns="http://www.w3.org/2000/svg" viewBox="0 0 749.02 484.46"><path d="M698.24,153.48c.34,25.21-2.57,25.17-2.52,49.92.11,28.54,2.9,29.67,3.99,54.19-1.06,26.1-3.98,27.29-2.45,51.72,2.53,15.52,5.47,35.19,2.07,47-4.34,12.83-14.8,24.17-22.97,38.43-7.94,11.76-18.47,24.99-29,32.3-13.19,16.02-26.89,23.61-36.24,26.17-23.87-2.87-24.06-3.29-48.19-7.1-23.29.75-23.28-2.72-45.41-.61-24.03-2.26-24.28-6.55-47.52-4.99-23.19.71-24.37,8.43-46.62,6.91-24.6-2.08-23.56-7.4-47.5-9.29-22.5-.9-23.81-3.28-46.62-5.97-23.03-1.84-24.25,5.03-47.31,9.29-22.36-3.45-23.58-5.64-46.24-6.33-23.5,1.72-23.99.81-46.56-5.9-23.16-.07-24.25,4.98-47.71,7.35-16.74-.12-38.38-6.65-55.87-8.66-20.25-10.57-37.37-21.3-37.19-40.61.73-23.86,4.51-25.61,4.86-48.13.02-20.27-1.21-19.85-.89-46.14.2-19.79-.03-20.92.81-45.9-.68-17.32-1.03-21.17-1.71-45.87-.47-22.22-.8-21.03-.9-42.7.45-24.96-.22-21.16-.33-48.94-.21-6.68,9.07-24.08,24.59-36.65,12.75-12.44,27.68-24.44,42.55-31.82,18.18-4.04,36.93-11.91,48.6-9.32,23.8-3.42,23.73,7.98,48.11,5.41,23.13,2.19,22.8,3.25,47.24,5.54,24.14-2.36,23.66-6.34,47.62-6.63,23.17,3.03,23.74,7.87,47.67,6.45,23.66-.23,22.8,4.8,46.5,1.78,24.13,2.14,24.05,2.23,48.22,2.74,23.72-2.37,23.78-6.74,47.23-1.43,24.43-2.6,23.57,9.09,47.19,7.32,24.13.09,23.87-.18,48.18-4.3,19.29-.16,38.01,2.35,54.17,11.04,15.6,8.07,31.06,25.34,39.53,37.97,8.87,18.91,10.13,32.55,10.64,55.76Z" fill="#d3d3d3" stroke-width="0"/></svg>