<?xml version="1.0" encoding="UTF-8"?><svg id="Layer_1" xmlns="http://www.w3.org/2000/svg" viewBox="0 0 258.95 401.63"><path d="M181.33,367.59c-12.61-.72-13.06-1.8-25.82-2.76-12.73,1.02-12.9,3.23-25.12,2.15-13.34-.25-12.92-1.01-25.56-2.12-13.12.6-13.01,4.95-25.41,3.49-12.97-.64-13.34-3.69-26.12-1.95-9.59,1.44-15.8,1.07-20.49-3.68-4.85-2.69-8.82-10.68-9.25-17.21-1.21-9.06.47-16.12.11-23.51.07-11.84.83-12.88,1.5-24.01-.31-13.41-.41-15.61-.31-27.02.13-11.86-4.11-11.6-3.49-24.62-.61-13.32,2.33-13.6,2.06-26.82.49-12.7,1.46-12.22,1.79-25.85.21-13.19-3.9-13.22-3.71-23.23.56-14.03.07-15.03.47-27.61-.04-11.34,1.23-10.23,1.68-25.96.14-12.27-2.12-11.25-2.13-22.37-.18-12.79-.04-14.91.09-25.82.24-11.3,4.63-18.64,10.76-25,6.38-6.45,14.61-8.74,23.94-8.55,12.18,1.37,11.84,1.28,24.18-.49,12.28,1.62,12.02,1.17,24.63.07,11.82,2.91,12.38.15,24.2-.79,11.93.35,12.29.43,24.41,1.07,12.41-1.08,12.24.73,24.35-1.82,12.07,3.2,12.34.9,24.32.95,9.4-1.38,18.68,1.44,24.68,7.08,6.27,8.1,10.52,16.58,10.27,27.05.01,10.15-3.31,12.6-3,23.1-.33,12.98-.42,13.62-.07,26.65.19,10.61,2.77,11.46,2.87,23.15-.31,13.42-2.54,13.33-2.46,24.42-.06,11.72-1.5,13.32-1.53,23.59.19,12.96,1.54,14.45,1.74,26.56-.03,10.6,2.02,10.41,1.85,25.03.34,10.49-3.75,12.8-3.83,23.72.19,11.89,1.56,13.19,1.84,23.01.2,12.22,2.36,13.36,2.8,25.78-.21,9.43-2.76,21.21-7.85,27.7-4.93,10.14-13.34,13.2-21.65,18.89-7.65,5.1-17.17,5.43-26.76,7.72Z" fill="#d3d3d3" stroke-width="0"/></svg>