<?xml version="1.0" encoding="UTF-8"?><svg id="Layer_2" xmlns="http://www.w3.org/2000/svg" viewBox="0 0 48.84 106.32"><path d="M37.9,57.16H4.46" fill="none" stroke="#000" stroke-linejoin="round" stroke-width=".38"/><path d="M24.7,2.12c12.45,0,22.58,10.13,22.58,22.58v56.67c0,12.45-10.13,22.58-22.58,22.58S2.12,93.82,2.12,81.37V24.7C2.12,12.25,12.25,2.12,24.7,2.12M24.7,0h0C11.11,0,0,11.11,0,24.7v56.67C0,94.96,11.11,106.07,24.7,106.07h0c13.58,0,24.7-11.11,24.7-24.7V24.7C49.4,11.11,38.28,0,24.7,0h0Z" fill="#000" stroke-width="0"/><path d="M21.67,1.28h0c11.92,0,21.67,9.52,21.67,21.14v61.22c0,11.63-9.75,21.14-21.67,21.14h0" fill="none" stroke="#000" stroke-linejoin="round" stroke-width=".97"/></svg>