<?xml version="1.0" encoding="UTF-8"?><svg id="Layer_1" xmlns="http://www.w3.org/2000/svg" viewBox="0 0 239.4 58.07"><path d="M226.78,57.46c-7.97-.37-7.66-.08-15.26-.75-7.99-.4-7.63-.56-15.68.77-7.61-1.11-7.59-1.24-14.98-.24-7.71-.48-7.91-.31-15.3.06-7.65-.48-7.88.25-15.25-.34-7.86.13-7.49-.71-15.21.1-7.8.02-7.89.89-15.06.3-7.81-.48-8.08-1-15.52-.08-7.65-.07-7.43-.79-15.39-.55-7.51.02-7.61,1.44-15.19.86-7.64-.93-7.59-1.55-15.1-.22-7.55-.42-7.59-.15-15.34.7-7.84-.96-7.75-.84-15.01-2-7.87,1.17-7.98.16-15.67-.06-6.67.07-12.64-4.91-12.82-12.33,0-6.98.45-7.21.68-14.25-.33-7.65.11-8.95.1-16.97C.63,7.25,6.06.79,13.17.75c7.22-.42,7.33.27,15.05.3,7.63.56,7.87.74,15.19.19,7.79-.41,7.86-1.13,15.59-.72,7.55.71,7.55-.49,14.82-.09,7.83.6,7.68-.16,15.29.69,7.63-.96,7.97-.17,15.18-.46,7.92.49,7.7-.6,15.36-.42,7.5,1.42,7.74,1.09,15.49-.24,7.38.41,7.73,0,15.03,1.84,7.95-1.5,7.57-1.08,15.44-1,7.29.75,7.74.74,15.08.74,7.96-.24,7.47-1.3,15.22-1.02,7.94.49,7.73,1.22,15.47.44,7.76-.1,7.74.47,15.18-.8,7.06.88,11.99,5.91,12.08,12.34.06,9.24.49,9.52.75,16.86-.15,8.17-.27,7.95-.71,15.69.29,6.71-5,11.45-11.9,12.38Z" fill="#d6d6d6" stroke-width="0"/></svg>