<?xml version="1.0" encoding="UTF-8"?>
<svg id="Layer_1" xmlns="http://www.w3.org/2000/svg" version="1.1" viewBox="0 0 259.4 259.3">
  <!-- Generator: Adobe Illustrator 29.2.0, SVG Export Plug-In . SVG Version: 2.1.0 Build 108)  -->
  <path d="M130.7,259.3c-1.2,0-2.4,0-3.6,0,0,0-.2-.1-.3-.1-1.1,0-2.2,0-3.3,0-2.2-.2-4.5-.3-6.7-.5-.8,0-1.6-.1-2.3-.2-1-.1-2.1-.3-3.1-.4-.8-.1-1.5-.2-2.3-.4-2-.3-3.9-.7-5.9-1.1-1.3-.3-2.6-.6-3.9-.9-.9-.2-1.9-.3-2.8-.6-1.4-.4-2.8-.9-4.2-1.3-.8-.2-1.4-.6-2.2-.7-.8,0-1.5-.4-2.2-.7-3.7-1.4-7.4-2.8-11-4.4-.8-.3-1.6-.6-2.4-1-.2-.1-.5-.3-.7-.4-.8-.4-1.5-.7-2.3-1.1-1-.5-2.1-1.1-3.1-1.7-2-1.1-4-2.2-6-3.4-3-1.9-5.9-3.8-8.8-5.9-3.1-2.1-6-4.5-8.8-7-.7-.6-1.4-1.1-2-1.7-1-.9-2-1.9-3-2.9-.8-.8-1.7-1.6-2.5-2.4-.9-.9-1.8-1.9-2.7-2.8-.9-1-1.9-1.9-2.7-2.9-4.1-4.9-8.1-9.9-11.4-15.3-1.8-2.9-3.6-5.8-5.2-8.8-1.2-2.1-2.2-4.2-3.2-6.4-1.9-4-3.6-8.2-5-12.4-1.1-3.2-2.1-6.5-3-9.8-.8-2.8-1.3-5.6-1.9-8.4-.8-4.1-1.4-8.2-1.8-12.3-.2-1.8-.2-3.5-.4-5.3,0-.2,0-.4,0-.6,0,0,0-.1,0-.2,0-1.4,0-2.9-.1-4.3,0,0,0-.1,0-.2,0-2.9,0-5.8.2-8.7.2-3.2.6-6.4.9-9.6.6-4.8,1.5-9.6,2.7-14.2,3.6-14.6,9.6-28.1,17.9-40.6,1-1.5,1.9-2.9,3-4.4.8-1.1,1.7-2.2,2.6-3.3.8-1,1.5-2.1,2.3-3.1,1.2-1.4,2.5-2.8,3.8-4.2.7-.8,1.4-1.6,2.1-2.3.3-.3.6-.5.9-.8,1-1,1.9-2,2.9-3,.4-.4.9-.7,1.3-1.2,1.2-1.5,2.7-2.5,4.1-3.8.5-.5,1.1-.9,1.7-1.3.4-.4.8-.8,1.3-1.1,1-.8,2-1.5,3-2.3.9-.7,1.9-1.5,2.8-2.2,1-.7,2.1-1.4,3.1-2.1,1-.7,2-1.4,3-2.1,1.1-.7,2.2-1.3,3.3-2,1-.6,1.9-1.2,2.9-1.8,1.1-.6,2.2-1.2,3.3-1.7.7-.4,1.4-.8,2.2-1.2,1.3-.6,2.5-1.3,3.8-1.9,2.5-1.1,4.9-2.3,7.5-3.2,1-.3,1.9-.8,2.9-1.2,2-.7,3.9-1.3,5.9-1.9,1.8-.6,3.5-1.1,5.3-1.6,1.1-.3,2.2-.5,3.3-.8,1.8-.4,3.6-.9,5.5-1.2,3-.5,6-.9,9-1.2,1.1-.1,2.2-.2,3.3-.3.4,0,.9-.1,1.3-.2.4,0,.7,0,1.1-.1.3,0,.5,0,.8,0,.5,0,1,0,1.4-.1.4,0,.7,0,1.1,0,.7,0,1.4,0,2.1-.1.6,0,1.2,0,1.9,0,.3,0,.6,0,.9,0,1.8,0,3.7,0,5.5,0,.6,0,1.2,0,1.9,0,.7,0,1.4,0,2.1.1.4,0,.7,0,1.1,0,.4,0,.7,0,1.1.1,1.7.2,3.4.3,5.1.5,1.8.2,3.5.4,5.3.7,1.8.3,3.6.6,5.4,1,2.6.6,5.2,1.2,7.7,1.8,2.9.7,5.8,1.7,8.7,2.7.7.2,1.4.6,2.2.8,1.1.3,2,.9,3,1.2.7.2,1.4.5,2,.8.9.4,1.8.7,2.7,1,.7.3,1.4.7,2,1,2.7,1.4,5.4,2.7,8.1,4.1,2.2,1.1,4.2,2.4,6.3,3.7,1.4.8,2.7,1.7,4,2.6,1.3.9,2.6,1.8,3.8,2.7,2.4,1.7,4.6,3.5,6.9,5.4,1.1.9,2.1,1.8,3.2,2.7,1,.9,1.9,1.8,2.9,2.7,1,.9,2,1.9,2.9,2.9,1,1,1.9,1.9,2.8,2.9,2,2.2,3.9,4.3,5.7,6.7,1.4,1.8,2.8,3.5,4.1,5.3,3.7,5.1,7,10.4,9.9,16,.7,1.3,1.3,2.5,1.9,3.8.6,1.2,1.1,2.5,1.7,3.8.4.9.9,1.8,1.3,2.7.5,1.2.9,2.5,1.4,3.8.3.8.7,1.5,1,2.3.3.9.6,1.8.9,2.7.3,1,.7,2,1,2.9.3,1.1.6,2.3,1,3.4.1.4.3.8.4,1.1.2,1,.6,2,.8,3,0,.4.1.8.2,1.2.2.9.5,1.9.7,2.8.1.6.2,1.2.3,1.9,0,.4.2.8.3,1.3.1.6.2,1.1.3,1.7.2.9.3,1.9.5,2.8.3,2.5.6,5.1.9,7.6.4,4.5.5,9,.5,13.6,0,0,0,.1,0,.2,0,2.3-.2,4.7-.3,7v.2c-.2,1.6-.3,3.1-.5,4.7,0,.4-.2.8-.3,1.2,0,.2,0,.4,0,.5,0,.6-.2,1.3-.3,1.9,0,.5-.1,1-.3,1.6-.2.9,0,1.8-.4,2.6-.2.3,0,.7-.2,1-.2.7-.2,1.4-.3,2.1-.1.8-.3,1.7-.5,2.5-.1.5-.3,1-.4,1.5,0,.3,0,.6,0,.8-.1.6-.3,1.1-.5,1.7-.1.5-.2.9-.3,1.4-.4,1-.5,2.1-.9,3.2-.3.8-.5,1.7-.8,2.5-.4,1.2-.8,2.4-1.2,3.6-.2.5-.4,1-.6,1.6-.2.5-.5,1-.6,1.5-.3,1.6-1.2,3-1.8,4.6-.5,1.6-1.4,3.1-2.1,4.6-.3.6-.6,1.3-.9,2-.6,1.2-1.2,2.5-1.9,3.7-1.5,2.7-3.1,5.3-4.6,7.9-.4.7-.8,1.4-1.2,2-.8,1.3-1.7,2.5-2.6,3.8-5.2,7.5-11.2,14.3-17.9,20.6-8.3,7.7-17.4,14.3-27.4,19.6-2.3,1.2-4.5,2.4-6.9,3.5-4,1.8-8,3.4-12.1,4.8-6.4,2.2-12.9,3.9-19.5,5-3.1.5-6.2.9-9.3,1.2-2.5.3-4.9.4-7.4.6-.3,0-.7,0-1,0-1.1,0-2.2,0-3.3,0,0,0-.2,0-.3.1h0ZM128.2,253.6c.7,0,1.4,0,2.1,0,.3,0,.6,0,.9-.1.7,0,1.4,0,2.2,0,.7,0,1.5,0,2.2-.1.4,0,.7,0,1.1,0,.5,0,1,0,1.4-.1.5,0,.9,0,1.4-.1,4-.3,7.9-.8,11.9-1.5,6.7-1.2,13.2-2.9,19.5-5.2,3.3-1.2,6.6-2.5,9.8-3.9,1.7-.8,3.4-1.7,5.1-2.5,1.2-.6,2.5-1.2,3.6-1.8,2.2-1.3,4.4-2.6,6.6-3.9.6-.3,1.1-.8,1.7-1.1,1.5-1,3-2,4.5-3.1,1-.7,1.9-1.3,2.8-2.1,1.3-1,2.6-2.1,3.9-3.2.6-.5,1.1-1,1.7-1.5.8-.7,1.6-1.3,2.4-2,.8-.7,1.5-1.4,2.2-2.1,1-1,2.1-2,3.1-3.1.5-.5.9-1,1.4-1.6.8-.8,1.6-1.7,2.4-2.5,0,0,0,0,0,0,.5-.6,1-1.1,1.4-1.7,1.1-1.3,2.2-2.7,3.3-4.1.6-.8,1.2-1.6,1.9-2.4.7-1,1.5-1.9,2.2-2.9.7-1,1.4-2,2-3,.8-1.2,1.6-2.4,2.3-3.7.7-1.2,1.4-2.4,2.2-3.6.2-.4.5-.8.7-1.2.6-1,1.1-2.1,1.7-3.1.8-1.5,1.5-3.1,2.3-4.6.4-.8.7-1.7,1.1-2.5.3-.6.5-1.2.7-1.9.5-1.2,1-2.3,1.4-3.5.3-.8.6-1.6.9-2.5.5-1.3.9-2.6,1.4-3.9.3-1,.6-2.1.9-3.1.3-.9.6-1.7.8-2.6.3-1.1.6-2.3.8-3.4.2-.8.5-1.7.6-2.5.2-1.3.6-2.5.7-3.9,0,0,0-.2,0-.3,0-.4.2-.8.3-1.3,0-.2,0-.4,0-.5.1-.7.3-1.3.4-2,0-.5.1-1,.2-1.5.3-2.2.6-4.4.8-6.7.2-1.7.3-3.4.3-5.1,0-2.9,0-5.9,0-8.8,0,0,0-.1,0-.2,0-1,0-1.9-.1-2.9,0,0,0-.1,0-.2-.1-3.1-.4-6.1-.9-9.2-.3-1.9-.5-3.8-.9-5.7-.4-2.2-.9-4.4-1.4-6.6-.1-.6-.2-1.2-.4-1.8-.7-2.4-1.4-4.7-2.1-7.1-.3-.9-.5-1.8-.8-2.6-.7-1.8-1.3-3.7-2-5.5-1-2.6-2.1-5.3-3.5-7.8-1.2-2.1-2.1-4.4-3.3-6.5-1.9-3.6-4.1-7.1-6.5-10.4-1.6-2.2-3.2-4.4-4.8-6.6-1.3-1.6-2.7-3.1-4-4.6-1.4-1.5-2.7-3.1-4.2-4.6-2.6-2.7-5.4-5.3-8.3-7.8-1.8-1.5-3.5-3-5.4-4.4-2.6-2-5.2-3.9-7.9-5.6-2.3-1.4-4.6-2.7-6.8-4.1-1.6-1-3.2-1.7-4.9-2.5-.5-.2-.9-.5-1.4-.8-.8-.4-1.6-.8-2.5-1.2-3.3-1.5-6.6-2.9-10.1-4.1-1.3-.5-2.7-1-4-1.4-1.3-.4-2.5-.9-3.8-1.2-1.6-.4-3.2-.8-4.8-1.3-.7-.2-1.4-.1-2-.6-1,0-1.8-.3-2.8-.5-1.7-.3-3.4-.6-5.1-.9-.9-.1-1.7-.2-2.6-.4-1.2-.2-2.5-.3-3.7-.5l-1.6-.2s0,0-.1,0c-.6,0-1.3-.1-1.9-.2-1,0-2.1-.1-3.1-.2h-1.6c-3-.1-5.9-.2-8.9-.2-.1,0-.2,0-.4.1-1.2,0-2.5.1-3.7.2-.5,0-1,0-1.4.1-1.5.2-2.9.3-4.4.5-1.7.2-3.3.4-5,.6-1.2.2-2.5.3-3.7.6-1.9.4-3.7.8-5.6,1.3-1.9.5-3.7.9-5.5,1.5-2,.6-3.9,1.2-5.9,1.8-2.3.8-4.7,1.6-6.9,2.6-1.5.7-3.1,1.3-4.6,2-2.5,1.2-5.1,2.5-7.6,3.8-.7.4-1.4.8-2.1,1.2-1,.6-2,1.1-3,1.7-1.2.7-2.4,1.5-3.6,2.3-.2.1-.4.3-.6.4-.9.6-1.7,1.3-2.6,1.9-1.3.8-2.5,1.6-3.6,2.6-.3.2-.6.4-.8.6-.8.6-1.6,1.3-2.4,1.9-.5.5-1,1-1.6,1.4-.6.5-1.2.9-1.7,1.4-.7.6-1.3,1.3-2,1.9-.7.6-1.4,1.2-2,1.9-1,1.1-2.2,2.1-3.2,3.2-.8.8-1.6,1.5-2.3,2.3-.6.8-1.4,1.5-2.1,2.2-.9,1-1.8,2.1-2.7,3.2-1.2,1.4-2.3,2.9-3.4,4.4-1.2,1.6-2.3,3.2-3.5,4.8-.2.2-.3.5-.5.8-.7,1.1-1.4,2.1-2.1,3.2-.8,1.4-1.8,2.7-2.5,4.2-.5.9-1,1.7-1.5,2.6-.4.7-.9,1.4-1.2,2.2-.6,1.2-1.1,2.4-1.7,3.7-.4.9-.8,1.7-1.2,2.6-1.3,3.1-2.5,6.1-3.7,9.2-.7,1.7-1.2,3.4-1.8,5.1-.3,1.1-.6,2.2-.9,3.3-.4,1.5-.8,2.9-1.1,4.4-.2,1-.5,2-.7,3-.1.6-.3,1.1-.4,1.7-.1.6-.1,1.2-.2,1.8-.3,1.5-.6,3.1-.9,4.6-.1.8-.1,1.6-.2,2.3-.2,1.9-.4,3.9-.5,5.8,0,0,0,0,0,0,0,0,0,0,0,.1,0,1.5-.2,3-.2,4.4-.2,4.9-.1,9.7.3,14.6,0,.9.1,1.8.2,2.6,0,.4,0,.7,0,1.1,0,.4.2.7.2,1,.2,1.1.3,2.2.5,3.3.1.9.2,1.9.5,2.8.2.4,0,1,.1,1.4.3.5.1.9.2,1.4.2.5.2,1.1.3,1.7.2,1.1.4,2.2.7,3.4.2,1,.5,2,.8,3.1.2.9.4,1.7.7,2.6.7,2.1,1.3,4.2,2,6.3.9,2.4,1.7,4.8,2.8,7.2.7,1.5,1.2,2.9,1.9,4.4,1,2.1,2,4.1,3.1,6.1,1.5,2.9,3.1,5.6,4.9,8.3,1.9,2.9,3.9,5.8,6,8.6,3.3,4.3,6.8,8.4,10.7,12.2,1.3,1.3,2.7,2.6,4.1,3.9,5.1,4.7,10.7,9,16.5,12.8,8.9,5.8,18.4,10.3,28.5,13.6,3.5,1.2,7.1,2.2,10.7,3,3.7.9,7.4,1.5,11.2,2.1,2.2.3,4.5.5,6.8.7.5,0,1,0,1.4.1.4,0,.7,0,1.1,0,.7,0,1.5,0,2.2.1.7,0,1.5,0,2.2,0,.5,0,1,0,1.6.1h0Z"/>
  <path d="M132.4,0c-1.8,0-3.7,0-5.5,0,0,0,0,0,0-.1,1.7,0,3.4,0,5,0,.1,0,.3,0,.4,0Z"/>
  <path d="M130.7,0c-.7,0-1.4,0-2.1.1.7,0,1.4,0,2.1-.1Z"/>
  <path d="M130.7.2c-.7,0-1.4,0-2.1-.1.7,0,1.4,0,2.1.1Z"/>
  <path d="M130.4.2c-.5,0-1,0-1.4.1.5,0,1,0,1.4-.1Z"/>
  <path d="M130.3.4c-.4,0-.7,0-1.1-.1.4,0,.7,0,1.1.1Z"/>
  <path d="M130.3.3c-.4,0-.7,0-1.1.1.4,0,.7,0,1.1-.1Z"/>
  <path d="M130.2-.1s0,0,0,.1c-.3,0-.6,0-.9,0,.3,0,.6,0,1-.1Z"/>
  <path d="M129.7,132.4c0,0,0-.1,0-.2,0,0,0,.1,0,.2Z"/>
  <path d="M129.7,139.6c0,0,0-.1,0-.2,0,0,0,.1,0,.2Z"/>
  <path d="M134.3,6c-2.8,0-5.6,0-8.5,0-.3,0-.5,0-.8,0,.1,0,.2-.1.4-.1,3,0,5.9,0,8.9,0,0,0,0,0,0,.1Z"/>
  <path d="M130.6,6.4c-.6,0-1.3-.1-1.9-.2.6,0,1.3.1,1.9.2Z"/>
  <path d="M130.5,6.5c-.5,0-1.1-.1-1.6-.2.5,0,1.1.1,1.6.2Z"/>
  <path d="M128.9,6s0,0,0-.1c.5,0,1.1,0,1.6.1-.5,0-1,0-1.6,0Z"/>
  <path d="M130.4,6.1c-.5,0-1,0-1.4.1.5,0,1,0,1.4-.1Z"/>
  <path d="M129.7,125.8c0,0,0-.1,0-.2,0,0,0,.1,0,.2Z"/>
  <path d="M129.7,122.7c0,0,0-.1,0-.2,0,0,0,.1,0,.2Z"/>
  <path d="M193.5,59.3c.3.3.3.6.2,1-.5,2-1,4.1-1.5,6.1-.1.5-.4,1-.5,1.6-.2.9-.2,1.8-.4,2.6-.3,1.4-.3,2.8-.5,4.1-.2,1.4-.3,2.7-.5,4.1-.4,3.1-.9,6.3-1.8,9.3-.4,1.4-1.2,2.7-2.1,4-.6.8-1.2,1.6-1.9,2.3-1.5,1.5-2.8,3.1-4.5,4.4-3,2.3-6.2,4-9.7,5.3-2,.7-4.1,1.3-6.3,1.7-1.8.4-3.6.7-5.4,1.1-.6.1-1.1.3-1.7.5-.2,0-.4.4-.6.6-1.6,2-2.9,4.1-3.9,6.5-1.6,3.8-3.1,7.6-4.6,11.3-1.2,3-2.2,6.2-3.1,9.3-.7,2.3-1.4,4.5-2,6.8-.3,1-.5,2-.8,3.1-.2.9-.5,1.7-.7,2.6-.2.8-.4,1.6-.5,2.4-.3,1.3-.6,2.6-.8,3.9-.4,1.8-.8,3.6-1.2,5.4-.3,1.6-.6,3.1-.9,4.7-.2,1.3-.4,2.6-.7,4-.3,1.6-.5,3.2-.8,4.8-.3,1.6-.7,3.2-1,4.8-.3,1.6-.5,3.3-.8,4.9-.1.9-.3,1.7-.5,2.6-.2.8-.5,1.7-.9,2.4-.5.7-1.1,1.1-1.9,1.1-2.4,0-4.8,0-7.3,0-1,0-1.8-.4-2.1-1.4-.2-.5-.3-1-.4-1.5-.2-1.1-.4-2.2-.7-3.3-.2-1.1-.5-2.2-.7-3.3-.1-.6-.2-1.2-.3-1.8-.2-1.1-.5-2.3-.7-3.4-.2-.8-.4-1.5-.5-2.3-.2-.7-.3-1.5-.4-2.2-.1-.6-.4-1.2-.5-1.8-.2-.7-.2-1.4-.4-2.1-.1-.7-.3-1.4-.5-2-.5-2.1-1-4.2-1.5-6.2-.3-1.4-.7-2.9-1.1-4.3-.1-.4-.1-.9-.2-1.3-.3-1-.6-2.1-.9-3.1-.3-1-.4-2-.7-3-.2-.8-.5-1.5-.7-2.2-.3-.9-.5-1.8-.7-2.8-.2-.8-.5-1.6-.7-2.5,0-.3,0-.7-.1-1-.1-.5-.3-1-.5-1.4-.4-1.3-.7-2.6-1-3.9-.4-1.3-.8-2.5-1.2-3.8-.4-1.1-.7-2.3-1.1-3.5-.4-1.3-.8-2.7-1.3-4-.4-1.1-.8-2.1-1.1-3.1-.3-.8-.4-1.6-.7-2.4-.3-.8-.6-1.6-.9-2.4-.2-.4-.2-.8-.4-1.2-.2-.6-.5-1.3-.8-1.9-.7-1.7-1.3-3.4-2-5.1-.3-.8-.7-1.5-1.1-2.3-.2-.5-.4-1.1-.6-1.6-.5-1.1-1.1-2.2-1.7-3.3-.3-.6-.5-1.3-.9-1.9-.4-.8-.9-1.5-1.3-2.2-.9-1.6-1.8-3.2-2.7-4.8-.5-.9-1.1-1.7-1.7-2.6-1.2-1.8-2.2-3.6-3.5-5.3-2.5-3.5-5.1-6.9-7.8-10.3-.8-1-1.7-1.9-2.5-2.8-.5-.6-.9-1.2-1.4-1.7-.6-.7-1.2-1.3-1.7-2-.4-.5-.9-1-.7-1.7.6-.3,1.1,0,1.7.1,1.8.5,3.4,1.2,4.9,2.2,1.6,1.1,3.3,2.1,4.9,3.2.9.6,1.7,1.4,2.5,2.1,1.5,1.4,3,2.7,4.4,4.2,1,1,1.8,2,2.8,3,2.1,2.2,4,4.6,5.9,7,2.8,3.6,5.6,7.2,7.7,11.3,1.8,3.3,3.4,6.7,4.7,10.3.6,1.5,1.2,3,1.8,4.5,1.4,3.7,2.7,7.5,3.7,11.4.7,2.7,1.5,5.3,2.2,8,2.5,9.3,5,18.6,7.5,27.9.2.9.6,1.7,1,2.5,0,0,.1.1.2.3.1-.2.2-.3.3-.4,1-2.7,1.9-5.3,2.9-8,.4-1.2.8-2.5,1.2-3.8.6-1.8,1.2-3.7,1.8-5.5.8-2.5,1.7-5,2.5-7.4.4-1.1.7-2.2,1.1-3.2,2.7-7.3,5.4-14.7,8.6-21.8,1-2.2,1.9-4.3,3.1-6.4,1.3-2.3,2.6-4.6,4-6.8.8-1.3,1.7-2.6,2.6-3.9,1.7-2.4,3.4-4.9,5.1-7.2.7-.9,1.5-1.8,2.3-2.7,1.2-1.4,2.4-2.7,3.6-4.1,0-.1.1-.3.2-.5-.8-.2-1.6,0-2.3.2-1.4.5-2.7,1.1-4,1.8-2,1.1-3.6,2.4-5.2,4-1.9,1.9-3.8,3.8-5.4,5.9-1.3,1.7-2.6,3.5-3.7,5.2-.8,1.2-1.4,2.4-2.1,3.7-.3.6-.5,1.2-.8,1.8-.2.4-.5.7-.7,1-.5,0-.7-.4-.8-.8-.1-1.2-.3-2.4-.3-3.6-.2-4.8.8-9.5,2.7-13.9,1.4-3.1,3.1-6,5.3-8.7.7-.9,1.4-1.8,2.2-2.5,1.7-1.5,3.5-3,5.5-4.1,2.3-1.4,4.9-2.2,7.5-2.9,4.2-1,8.4-1.8,12.6-2.8,2.7-.6,5.3-1.1,8-1.7,1.1-.2,2.1-.5,3.2-.8,1.1-.2,2.1-.5,3.2-.7.5,0,1.1,0,1.6,0h0Z"/>
  <path d="M130.5,53.3c-.5,0-1.1,0-1.6,0,.5-.2,1.1-.3,1.6,0Z"/>
  <path d="M52.9,169.5l1.6,2.4-8.4,10.6c-.9,1.2-2.8,3.2-2.8,3.2h0s2.7-.9,4.1-1.3l13.1-3.6,1.5,2.3-19.9,5-1.6-2.4,12.5-16.2Z"/>
  <path d="M65.8,187.6l10.1,9.4-1.6,1.7-8.1-7.6-4,4.3,7.3,6.8-1.5,1.6-7.3-6.8-4.4,4.8,8.3,7.8-1.6,1.8-10.3-9.6,13.2-14.1Z"/>
  <path d="M85.8,222.4h0c-2.2,1.2-4.5,1.1-6.8-.1-2.4-1.3-3.9-3.3-4.4-5.6-.6-2.3-.2-5,1.2-7.5,1.4-2.6,3.4-4.4,5.7-5.2,2.2-.8,4.7-.7,7.4.8,4,2.2,5.1,5.6,4.1,9.1l-2.4-1.3c.5-2.2-.2-4.3-2.8-5.7-4-2.2-7.4-.2-9.5,3.8-2.2,4-1.3,8,2,9.9,3.4,1.8,6.2.4,7.7-2.3l.2-.4-4.9-2.7,1.1-2,7.2,3.9-4.9,9-1.5-.8.7-2.7Z"/>
  <path d="M102.3,211.1l13.4,3.3-.6,2.3-10.8-2.7-1.4,5.7,9.7,2.4-.5,2.1-9.7-2.4-1.6,6.3,11.1,2.7-.6,2.3-13.6-3.4,4.7-18.8Z"/>
  <path d="M121.5,215.3h15.4c0,.1,0,2.5,0,2.5h-6.4s-.1,17-.1,17h-2.7s.1-17,.1-17h-6.3s0-2.4,0-2.4Z"/>
  <path d="M146.3,213.7l2.9-.6,11,17.4-2.8.6-3.1-5.1-7.5,1.6-.7,5.9-2.7.6,2.9-20.4ZM147.2,225.4l6.1-1.3-2.9-4.9c-1-1.7-2-3.8-2-3.8h0s0,2.4-.3,4.3l-.7,5.7Z"/>
  <path d="M161.7,209.5l8.1-4c3.1-1.5,6.1-.7,7.6,2.2,1,2.1.9,4-1,5.9h0c2.2-.3,3.4.6,4.8,3,1.6,2.6,2.2,3.3,2.7,3.4h0c0,.1-2.5,1.4-2.5,1.4-.6-.1-1-.9-2.6-3.6-1.4-2.4-2.8-2.7-5.1-1.6l-4.6,2.3,3.6,7.2-2.4,1.2-8.6-17.3ZM168.1,216.5l5-2.5c2.4-1.2,2.9-2.9,2-4.8-1-2-2.5-2.6-4.9-1.4l-5.1,2.5,3,6.2Z"/>
  <path d="M180.8,198.6l2.1-1.6,11.6,15.5-2.1,1.6-11.6-15.5Z"/>
  <path d="M192.8,188l2-2.2,19.1,7.8-2,2.2-5.5-2.4-5.1,5.6,2.8,5.3-1.8,2-9.5-18.3ZM200.3,197.1l4.2-4.6-5.2-2.3c-1.8-.8-3.8-1.9-3.8-1.9h0c0,0,1.3,2,2.2,3.7l2.7,5Z"/>
  <path d="M202.8,175.8l1.3-2.5,14.4-1.4c1.7-.2,4.4-.1,4.4-.1h0c0,0-2.3-1.1-3.7-1.8l-10.5-5.5,1.2-2.2,17.1,9-1.3,2.4-14.4,1.4c-1.7.2-4.4.2-4.4.2h0s2.3,1.1,3.7,1.8l10.5,5.5-1.2,2.2-17.1-9Z"/>
</svg>