<?xml version="1.0" encoding="UTF-8"?><svg id="Layer_1" xmlns="http://www.w3.org/2000/svg" viewBox="0 0 144.57 144.57"><path d="m62.91,66.48c-.62.09-.72.04-.92-.51-.19-.53-.37-1.06-.67-1.59-.42,1.67-.82,3.33-1.65,4.86-.53,1.04-1.03,2.1-1.37,3.23-.66,2.13-.74,4.38-1.41,6.5-.24.72-.7,1.28-1.31,1.76-1.5,1.17-2.95,2.39-4.4,3.61-.35.29-.65.66-.93,1.03-.92,1.21-2.13,1.95-3.61,2.26-.51.11-1.03.22-1.52.4-1.74.66-1.45,1.8-2.95,2.09-.32.06-.64.14-.96.13-.63-.03-1.17.19-1.71.5-.6.33-1.23.62-1.87.85-1.25.43-2.74.37-3.07-1.19-.12-.54-.12-1.09.01-1.62.32-1.28.82-2.47,1.67-3.53.67-.84,1.42-2.44,1.47-3.53-.05-1.31.23-2.63.91-3.76.48-.79.84-1.65,1.27-2.48.19-.35.38-.73.65-1,.95-.96,1.92-1.9,2.93-2.79.43-.38.96-.7,1.49-.9,1.26-.47,2.44-1.07,3.58-1.76,2.4-1.43,5.3-1.72,8.03-1.45,1.66.22,2.48-.64,2.91-1.73.29-.74.58-1.54.62-2.33.05-.95-.22-1.85-1.18-2.41-.83-.49-1.66-1.03-2.34-1.7-.8-.78-1.5-1.69-2.15-2.6-.57-.8-.78-1.77-.85-2.75-.02-.25-.04-.45-.27-.63-1.39-.98-2.47-2.26-3.66-3.47-.35.86-.72,1.66-1.02,2.49-.43,1.21-1.16,2.21-2.05,3.11-2.25,2.4-4.16,3.99-7.56,4.37-2.98.37-5.06-2.47-6.15-4.88-.64-1.48-1.26-3.01-1.18-4.64,0-2.83,1.11-5.45,2.55-7.85.34-.54.77-1.04,1.17-1.54.29-.36.56-.73.9-1.05.85-.78,1.92-1.25,2.92-1.8.24-.13.38-.3.45-.59.14-.61.35-1.2.54-1.8.07-.23.21-.46.22-.69.06-.96.71-1.42,1.46-1.76.47-.21.68-.56.89-1,.35-.72.77-1.41,1.21-2.08.15-.22.41-.38.65-.53,2.35-1.48,4.23-2.92,7.13-3.07.91-.06,1.75-.31,2.55-.69.65-.31,1.29-.41,1.99-.21.66.18,1.34.28,2.05.43.12-.21.24-.39.33-.58.36-.86.82-1.69,1.03-2.58.21-.89.21-1.84.24-2.76,0-.27-.25-.54-.34-.82-.55-1.69-1.09-3.38-1.64-5.07-.07-.23-.15-.46-.27-.67-.32-.55-.26-1.08.06-1.61.58-.97,1.44-1.37,2.55-1.26.69.07,1.2.4,1.58.99.7,1.11,1.43,2.2,2.15,3.3.33.51.63.84,1.27.58,1.07-.39,2.39-.61,2.96.63.16.33.4.52.72.58.51.1,1.03.19,1.55.22.81.05,1.61.06,2.42.07,3.76.12,4.87-1.86,8.91-.52,1.48.46,2.89,1.05,4.06,2.08,1.48,1.43,3.59,2.84,3.88,5.02.07.5.31.94.67,1.33.7.75,1.37,1.54,2.04,2.32.88.98,1.15,2.1,1.03,3.4,1.79,1.2,1.95,3.08,2.82,4.87.22.48.54.88.96,1.22,2.15,1.52,1.6,5.07-1.32,4.9-.66-.06-1.3-.24-1.95-.39-.49-.12-.97-.11-1.42.09-1.28.57-2.43.41-3.49-.51-.16-.14-.38-.22-.57-.32-.33-.19-.57-.29-.97-.4-.03,1.36.16,2.64.11,3.99-.04.9-.26,1.79-.39,2.69-.1.64-.21,1.28-.28,1.92-.25,2.27-1.67,3.84-3.76,4.62-.73.08-.98.57-1.13,1.2-.16.67-.41,1.31-.6,1.97-.42,1.39-.37,3.03-1.63,3.99-.81.85-1.62,1.73-2.83,1.97-2.07.3-4.14-.42-5.64-1.89-.47-.47-.93-.94-1.48-1.33-.43-.31-.74-.8-1.05-1.24-.32-.46-.59-.96-.91-1.49-.66.69-1.19,1.46-1.87,2.13-.38.38-.87.63-1.31.95-.49.35-.97.72-1.48,1.1.41.73.76,1.42,1.14,2.15.74,1.35,1.55-.05,2.9.96.37.27.79.49,1.22.65,1.09.43,2.18.84,3.29,1.21,1.28.35,2.65.21,3.93.63.68.22,1.39.14,2.08-.12.95-.36,1.94-.33,2.85.04,1.14.47,2.29.72,3.52.71.51,0,1.04.15,1.54.29.28.08.56.24.8.42,1.1.78,2.17,1.61,3.29,2.37,1.31.89,2.27,2.05,2.92,3.48.12.27.27.54.43.79,1.59,2.7,2.2,5.88,4.28,8.31.32.39.54.85.83,1.26.67.96,1.34,1.92,2.03,2.86.4.54.42.62.03,1.16-.98,1.44-2.71,1.1-4.16.76-.34-.08-.64-.13-1-.04-.93.23-1.8.09-2.55-.58-.15-.13-.33-.22-.52-.31-1.54-.7-3.09-1.4-4.63-2.09-.13-.06-.26-.1-.39-.15-.03-.01-.08.01-.19.04,0,1.35-.04,2.73-.1,4.08-.02.36.07.59.38.81,3.97,2.97,4.99,9.73,5.49,14.39.07,1.51-.13,2.99-.52,4.43-.46,1.88-2.37,2.48-4.01,3.02-1,.32-2.01.22-2.99-.05-1.3-.35-2.6-.76-3.88-1.2-1.28-.44-2.4-1.15-3.28-2.2-.05-.06-.11-.09-.25-.21-.11.97-.38,1.84-.02,2.74.17.42.22.86.06,1.3-.37.98.73,1.06.23,2.87-.3.87-.62,1.75-.82,2.65-.27,1.53-.81,2.87-2.34,3.5-.46.2-.91.09-1.23-.25-1.06-1.03-1.54-2.45-2.01-3.81-.26-.78-.7-1.34-1.45-1.68-.6-.32-1.02-.82-1.54-1.29-.81.85-1.41,1.78-1.73,2.86-.23.87-1.5,3.24-2.01,3.97-.76,1.11-1.31,2.36-1.9,3.57-.14.27-.34.48-.66.59-.21.07-.43.24-.56.43-.39.56-.73,1.16-1.11,1.73-.2.3-.4.61-.67.84-.81.72-1.93-.13-2.21-.99-.71-2.05-1.75-3.94-2.82-5.82-.66-1.27-.91-2.69-1.53-3.99-.81-1.72-.77-3.7-.76-5.58,0-.46-.02-.93-.03-1.39-.02-.87.23-1.67.54-2.47.43-1.09.83-2.19,1.28-3.27.16-.39.1-.67-.14-.99-.84-1.13-1.61-2.33-2.46-3.46-1.05-.83-1.23-2.63-1.51-3.87-.16-.89-.37-1.79-.4-2.69-.11-3.68,1.89-6.89,3.44-10.09.18-.35.45-.69.76-.92.81-.6,1.64-1.17,2.51-1.68.41-.24.61-.51.68-.97.35-1.77.65-4.2,2.3-5.22.18-.11.27-.26.33-.47.35-1.08.8-2.11,1.56-2.98.49-.9,1.01-1.8,1.15-2.84.1-.88.28-1.76.1-2.64Zm-15.11-32.52c.13-.12.27-.24.39-.38.83-.98,1.82-1.79,2.86-2.51,1.2-.82,2.47-1.53,3.7-2.31.3-.19.57-.44.82-.69.27-.27.55-.43.96-.41.73.03,1.18-.43,1.69-1.01-.72-.15-1.34-.24-1.94-.42-.64-.18-1.22-.1-1.81.18-.71.33-1.44.61-2.24.68-.76.07-1.53.17-2.27.37-1.88.47-3.43,1.66-5.05,2.66-.24.15-.5.31-.65.54-.39.61-.75,1.24-1.05,1.89-.24.51-.48.96-1.04,1.18-.26.1-.5.27-.72.43-.27.19-.48.43-.48.8,0,.12-.05.24-.1.35-.47,1.21-.77,2.46-.94,3.75-.42,3.18-.89,6.36-1.32,9.54-.05.39,0,.79,0,1.25,1.06-.25,2.05-.53,3.12-.53.99.04,1.25-.1,1.53-1.05.22-.76.58-1.34,1.5-1.37.64-.02,1.25-.29,1.91-.14.4.09.68-.1.85-.5.23-.55.59-.95,1.27-.93.14,0,.28-.05.41-.1.53-.21,1.07-.32,1.64-.38,1.22-.14,2.65-1.45,2.84-2.6.2-1.21.73-2.25,1.5-3.19.93-1.14,2.07-2.04,3.3-2.83.21-.13.44-.32.53-.54,1.02-2.72,1.67-5.49,1.02-8.41-.04-.18-.02-.43.08-.56.43-.58.69-1.24.88-1.92.35-1.33.65-2.67.99-4,.11-.45.2-.88-.33-1.13-.03-.02-.07-.06-.07-.09-.01-.07-.04-.17,0-.22.15-.18.37-.02.52.09.49.36.96.74,1.46,1.08.29.2.43.46.46.81.06.32.07,1.46.34,1.6.35.16.35.46.41.75.48,2.74.78,5.51.76,8.3.29.15.56.18.82-.07-.17-2.91-.39-5.81-.58-8.72-.05-.73-.04-.74.68-.8.04,0,.07-.03.16-.08,0-.28,0-.6,0-.92,0-.22-.04-.45.24-.56.33-.13.61-.08.82.18.51.7.97,1.44,1.49,2.13.44.58.96,1.09,1.36,1.7.78,1.18,1.49,2.4,2.23,3.6.23.38.52.4.78.03.07-.1.09-.23.16-.32.07-.08.18-.12.28-.18.05.12.16.26.12.35-.08.22-.19.45-.35.62-.46.47-1.07.35-1.38-.23-.12-.23-.24-.46-.37-.71-.53.25-.85.64-1.01,1.12-.19.55-.39,1.12-.41,1.69-.03.7-.29,1.23-.74,1.73-.48.55-.91,1.13-1.08,1.86-.2.74-.46,1.46-.66,2.2-.09.35-.18.72-.14,1.07.06.66.13,1.34.34,1.96.52,1.54.85,3.12,1.18,4.69.46,2.37,1.9,4.4,3.68,5.97.24.21.49.43.71.66.76.78,1.64,1.37,2.65,1.77,2.25.85,5.15,1.25,7.36.12,3.08-1.64,2.6-3.57,3.2-6.48.52-2.21.29-4.46,0-6.68-.48-2.88-.89-6.35-3.63-7.98-.58-.36-1.18-.7-1.77-1.05-.17-.1-.37-.19-.5-.33-1.34-1.42-3.12-2.02-4.89-2.66-.82-.56-1.73-.66-2.67-.52-.46.07-.74-.06-1.02-.43-1.37-1.87-2.78-3.72-4.17-5.58-.2-.26-.35-.52-.36-.87,0-.35-.14-.65-.42-.9-.42-.36-.8-.77-1.23-1.18.47-.64,1.11-1.02,1.54-1.58-.36-.54-.65-.75-1.2-.71-1,.03-1.8.91-2.65,0-.89-1.17-1.66-2.44-2.45-3.68-.47-.78-1.14-.95-1.96-.85-.85.11-1.32.65-1.59,1.39-.07.2,0,.47.07.69.74,1.85,1.27,3.78,1.9,5.68.05.15.06.36.16.45.4.35.31.8.29,1.23-.05.86-.03,1.76-.33,2.57-.41,1.03-.91,2.03-1.3,3.06-.31.84-.94,1.29-1.68,1.64-.53.26-.82-.16-1.25.39-.21.25-.27.52-.25.84.09,1.47.16,2.94.22,4.42,0,.21.14.56-.22.57-.3,0-.22-.33-.24-.53-.1-1.6-.11-3.07-.27-4.68-1.28.81-2.46,1.54-3.63,2.29-.14.09-.24.32-.27.5-.26,1.43-.43,2.9-.59,4.34-.4.05-.42-.16-.39-.41.14-1.24.29-2.47.43-3.71-.1,0-.15,0-.18.02-.94.71-1.81,1.49-2.48,2.47-.19.28-.41.55-.64.79-.2.2-.29.41-.32.69-.2,2.08-.26,4.19-.89,6.2-.18-1.96.34-3.89.35-5.83-1.37,1.34-2.8,3.2-2.97,5.12-.02.36-.13.66-.3.97-.42.76-.77,1.54-.83,2.44-.05.73-.38,1.37-1.05,1.77.14-.6.52-1.16.57-1.77.07-1.03.48-1.91.95-2.78.09-.17.16-.37.17-.57.07-.91.38-1.73.81-2.52.84-1.54,1.99-2.84,3.2-4.09.29-.29.46-.69.7-1.02Zm15.15,43.96c-.41,0-.73.16-.97.39-.58.53-1.14,1.08-1.66,1.67-.31.36-.62.67-1.07.85-1.28.51-2.44,1.24-3.6,1.98-.39.25-.77.53-1.11.84-.25.22-.48.5-.64.79-.63,1.22-1.22,2.46-1.82,3.69-1,2.17-1.84,4.59-1.5,7.01.13.8.29,1.59.45,2.38.26,1.03.39,2.29,1.27,3.01.12.1.2.25.29.39.72,1.02,1.43,2.06,2.17,3.06,1,1.37,2.34,2.48,4.14,2.23,2.15-.22,3.76-1.7,5.31-3.05,3.86-3.2,7.55-7.98,6.31-13.28-.35-2.74-1.55-5.07-3.47-7.04-.25-.25-.41-.53-.52-.86-.35-1.01-.71-2.01-1.09-3.01-.09-.23-.25-.44-.4-.69-.36.49-.6,1.14-1.28,1.05-.67-.14-.77-.79-.82-1.4Zm2.05-45.64c-.62.31-1.17.56-1.71.85-.58.31-1.02.74-1.4,1.29-.64.92-1.46,1.67-2.62,1.93-.17.04-.34.12-.49.21-2.17,1.36-4.4,3.27-4.7,5.98-.47,1.65-1.02,3.29-1.01,5.02.02,1.74.04,3.53.68,5.18.15.42.28.82.29,1.28.03.95.26,1.86.81,2.63.6.83,1.25,1.64,1.96,2.37.82.85,1.83,1.45,2.87,2,.21.11.51.14.75.11.66-.08,1.32-.19,1.97-.32.83-.19,1.34-1.06,2.1-1.36.94-.41,1.62-1.08,2.19-1.86,1.12-1.53,2.19-3.1,3.23-4.68.59-.89,1.03-1.87,1.35-2.9.15-.49.09-.86-.25-1.27-1.3-1.5-1.95-3.27-2.26-5.21-.33-1.35-.62-2.71-1.07-4.03-.41-1.21-.44-2.43.09-3.66.33-.76.46-1.62.65-2.32-.56-.62-.94-1.04-1.59-1.47-.59.63-1.21.58-1.84.22Zm5.55,41c-.07.32-.09.56-.17.77-.39.99-.57,1.98-.13,3,.11.26,0,.45-.12.67-1.2,2.13-1.58,3.42-1.52,5.88,0,.24.14.5.28.7,1.22,1.74,1.9,3.74,2.17,5.84.24,1.02.31,2.05.1,3.06-.14.66.07,1.13.51,1.57.68.68,1.46,1.22,2.33,1.61,1.45.65,2.91,1.29,4.4,1.85,1.39.53,2.66.24,3.71-.86.57-.6.99.03,1.87-1.17.46-.63.72-1.35.96-2.08.07-.21.15-.42.27-.59.59-.86.88-1.85,1.24-2.82.1-1.63.08-3.27.13-4.9,0-.16,0-.33-.03-.48-.87-4.06-3.04-8.05-6.89-9.97-.22-.11-.38-.34-.54-.53-1.03-1.69-2.83-2.68-4.79-2.7-.55-.01-1.11.16-1.66.27-.24.05-.41.19-.53.45-.35.83-.91.41-1.58.43Zm-22.61,4.07c1.29-1.14,2.72-2.09,3.95-3.41-.17,0-.25-.03-.32-.01-1.16.2-2.29.48-3.35,1.01-.14.07-.29.14-.44.18-.06.01-.16-.05-.19-.1-.03-.05-.02-.18.02-.21,1.24-.85,2.76-1.15,4.22-1.37.49-.06.88-.2,1.21-.59.15-.18.37-.31.57-.43.88-.55,1.58-1.29,2.2-2.13-1.22.28-2.4.68-3.61.98-.17.04-.36.01-.53-.01-.05,0-.1-.12-.11-.19,0-.04.05-.12.09-.14,1.45-.26,2.84-.74,4.23-1.23.81-.26,1.12-.89,1.52-1.57-3.05-.38-6.16-.21-8.84,1.41-1.74,1.16-3.96,1.55-5.45,3.07-.5.5-1.02.97-1.53,1.46-.49.48-1.02.93-1.29,1.58-.43.84-.81,1.72-1.29,2.53-.28.48-.53.95-.62,1.5-.1.65-.16,1.32-.23,1.98-.05,1.26-.83,2.94-1.6,3.93-.99,1.26-1.91,3.27-1.52,4.87.48,1.92,3.4.33,4.47-.24.47-.26.94-.42,1.49-.42.69-.02,1.52-.1,1.99-.66,2.22-2.83,4.62-1.01,6.91-4.08.28-.37.57-.74.92-1.03,1.53-1.28,3.09-2.53,4.63-3.81.29-.24.56-.54.74-.86.58-1.08.68-2.32.9-3.5.21-1.07.42-2.14.67-3.2.65-2.58,2.39-4.74,2.84-7.38.14-.67.26-1.34.39-2.02.09-.49-.27-1.22-.8-1.47.08.25.16.45.21.66.08.37.23.77.16,1.12-.27,1.5-.62,3.31-2.05,4.15-.3.16-.5.38-.68.66-.84,1.29-1.73,2.54-2.88,3.57-.36.32-.47.63-.46,1.09.03,1.7.03,3.39.02,5.09,0,.42-.1.84-.19,1.25-.02.1-.19.16-.29.24-.05-.12-.14-.24-.13-.35.03-.36.14-.72.14-1.08.01-1.72,0-3.43,0-5.15,0-.07-.03-.14-.06-.33-1.11.78-1.9,1.76-2.91,2.63-.26.24-.32.45-.23.79.52,1.87.66,3.8.02,5.66-.06.24-.23.49-.51.45-.03,0-.08-.16-.07-.25,0-.07.06-.15.09-.22.29-.61.42-1.26.45-1.93.03-1.29-.07-2.57-.52-3.79-1.3,1.04-3.51,2.36-3.27,4.22.09.67.03,1.37-.01,2.05-.02.38-.14.75-.23,1.12-.05.18-.11.46-.37.39-.3-.08-.12-.32-.07-.51.33-1.11.36-2.26.2-3.39-.42.16-.81.31-1.19.47-.11.05-.21.13-.29.21-1.48,1.63-3.11,3.25-3.83,5.38-.06.15-.05.36-.27.32-.24-.04-.23-.26-.18-.44.52-2,2.69-4.19,4.08-5.71.1-.11.26-.23.4-.24.47-.03.81-.28,1.08-.6.43-.51.81-1.07,1.25-1.66-1.21-.67-2.26-1.5-3.66-1.5-.1,0-.19-.1-.29-.16.08-.09.16-.27.25-.27.3-.02.63-.04.89.06,1.1.45,2.16.9,3.17,1.54Zm19.11-58.8c.53-.23,1.15-.47,1.74-.48,1.01.02,2.02.11,3.03.11.88,0,1.5.39,1.95,1.11.95,1.51,1.52,3.18,1.8,4.91.18,1,.38,2.91,1.5,3.27,1.3.41,2.55.94,3.58,1.84.96.86,2.1,1.4,3.16,2.12,1.08.73,1.93,1.67,2.35,2.92.58,1.79,1.09,3.63,1.33,5.5.29.05.58.04.79.16.64.33,1.21.78,1.84,1.13,1.86.87,2.43-.73,4.28-.06.55.18,1.14.26,1.72.31.96.07,1.54-.23,1.97-1.42.2-.56.13-1.13-.19-1.63-.24-.37-.51-.74-.85-1.01-1.09-.83-1.4-2.18-1.88-3.39-.98-2.88-2.32-2.36-2.11-3.29.2-1.15-.21-2.1-.94-2.95-.64-.73-1.26-1.48-1.93-2.18-1.22-1.25-.53-2.25-1.74-3.6-.56-.65-1.21-1.24-1.8-1.87-2.08-2.22-6.29-4.05-9.28-3.11-.84.3-1.66.33-2.52.66,3.43,1.09,6.92,2.73,8.9,5.87.17.27.39.31.65.35.78.12,1.56.23,2.32.4.77.18,1.49.5,2.15.95.13.09.32.17.28.41-3.22-1.17-3.91-1.35-4.84-1.2.38.44.74.84,1.09,1.25.17.2.37.38.49.61.49.97.92,1.96,1.45,2.91.12.25.32.32.58.35,1.69.24,3.63,1.16,4.75,2.43-.03.04-.06.07-.09.11-1.49-.73-2.81-1.86-4.66-2.04.79,1.23,1.64,2.19,2.18,3.52.59,1.47,1.57,2.67,2.7,3.76.58.56,1.12,1.16,1.68,1.74.06.07.1.16.15.25-1.85-1.17-3.73-2.93-4.64-4.94-.62-1.44-1.52-2.71-2.4-3.98-.07-.1-.17-.18-.31-.34-.1.7-.04,1.29.06,1.89.1.59.34,1.17.21,1.91-.14-.18-.23-.26-.27-.36-.41-1.18-.64-2.37-.47-3.63.03-.19.06-.42,0-.59-.33-.8-.67-1.6-1.04-2.38-.13-.27-.3-.53-.51-.74-.7-.68-1.29-1.43-1.8-2.27-.35-.56-.79-1.07-1.2-1.59-.08-.1-.2-.15-.4-.3.38,1.48.69,2.68.88,4.13.08.65.17,1.31.04,1.97-.35-2.14-.95-4.2-1.48-6.3-.11-.42-.33-.71-.68-.95-2.61-1.74-5.62-3.12-8.81-3.19-1.26,0-2.55.08-3.72-.61-.37.34-.71.65-1.05.97-.17.15-.26.32,0,.55Zm-7.66,95.69s-.06-.03-.08-.04c-.66.62-1.24,1.32-1.87,1.97-.1.1-.19.22-.3.3-.07.05-.25.07-.26.04-.18-.3.07-.48.26-.68.82-.89,1.65-1.77,2.46-2.68.26-.3.48-.65.64-1.01.4-.88.75-1.79,1.12-2.68.25-.59.55-1.17.74-1.78.21-.67.31-1.38.45-2.07.03-.13.02-.26.03-.47-2.46,1.71-5.12,2.36-7.45.06-.55,1.21-.97,2.45-1.46,3.69-.32.84-.58,1.68-.39,2.6-.02.96-.05,1.94-.05,2.91,0,1.15.33,2.23.66,3.31.15.36.42.69.53,1.07.39,1.36.83,2.69,1.56,3.92.95,1.6,1.77,3.26,2.37,5.03.16.46.48.83.99.87.51.03.77-.36.99-.76.45-.74,1-2.01,1.78-2.39.47-.2.67-.56.86-.95.52-1.16.99-2.34,1.81-3.34.32-.38.55-.84.76-1.3.46-.98,1-1.93,1.26-3,.02-.08.07-.14.12-.21.46-.73.92-1.46,1.41-2.23-.44-.96-.4-2.05-.04-3.01.19-.49.28-.96.21-1.47-.18-1.35-.61-2.63-1.15-3.88-.67-1.33-.63-2.81-.91-4.23-.94.82-1.83,1.61-2.74,2.37-.78.65-.84,1.51-.64,2.36.35,1.47.89,2.89,1.55,4.26.09.18.34.43.07.58-.32.17-.39-.19-.47-.39-.51-1.25-.98-2.43-1.46-3.7-.51,1.65-1.17,3.03-1.88,4.56-.15.32-.12.6-.03.93.29,1.05.56,2.11.78,3.17.08.38.01.8-.01,1.2-.01.16-.1.35-.31.26-.08-.03-.12-.23-.13-.35-.04-.58-.02-1.17-.12-1.74-.13-.75-.37-1.47-.56-2.21-.21.18-.3.36-.37.54-.82,2.11-1.37,4.31-1.66,6.55-.14,1.02-.1,2.06.15,3.07.04.16.14.4-.1.47-.28.07-.3-.19-.35-.38-.58-3.08.22-6.2,1.23-9.11Zm27.53-23.43c-.49,1.32-1.03,2.38-1.61,3.62-.27.61-.5,1.24-.82,1.81-.38.67-.93,1.17-1.74,1.29-.13.02-.27.1-.36.19-.7.73-1.55,1.16-2.57,1.21-.23.01-.37.11-.47.31-.37.7-.68,1.42-.75,2.22-.09,1.1.26,1.98,1.22,2.59.91.57,1.38,1.45,1.65,2.45.13.47-.14.82-.47,1.1-.48.43-1.12.07-1.5-.32-.43-.45-.87-.9-1.26-1.39-.93-1.17-1.65-2.44-1.7-4,0-.16-.05-.32-.09-.48-.08-.32-.21-.58-.51-.79-.61-.47-.51-1.49-.59-2.19-.02-.3,0-.6,0-.91-.37-.15-.69-.29-1.07-.45,0,3.15.29,6.99,2.29,9.46.77.87,1.55,1.73,2.33,2.59.86.95,2.03,1.44,3.24,1.82,1.22.36,2.42.8,3.66,1.07.7.13,1.41.24,2.1.02.76-.24,1.52-.52,2.25-.86.82-.38,1.43-1.01,1.66-1.9.41-1.57.65-3.17.45-4.8-.72-4.87-1.33-10.31-5.34-13.69Zm-45.56-33.05c-.36.55-.83.79-1.29,1.02-1.38.67-2.69.46-3.66-.73-.76-.94-1.43-1.96-2.03-3.01-.46-.8-.71-1.71-1.39-2.34.08-.25.23-.3.38-.18.18.13.35.28.47.46.24.38.47.76.63,1.17.52,1.27,1.34,2.35,2.14,3.43.91,1.3,2.55,1.47,3.75.42-.58-.21-1.1-.37-1.6-.58-.21-.09-.42-.24-.56-.42-.64-.78-1.23-1.6-1.88-2.37-.31-.36-.46-.74-.44-1.21.05-1.85-.27-3.72-.89-5.46-.36-.47-.29-.96-.12-1.44.24-.64.51-1.27.79-1.9.31-.6.12-1.39.5-1.95.44-.67.93-1.31,1.47-1.89.39-.42.89-.77,1.37-1.09.42-.27.48-.62.45-1.12-.85.46-1.65.88-2.43,1.33-.21.12-.35.37-.52.57-.12.14-.21.3-.34.41-.85.77-1.5,1.68-2,2.71-.12.24-.23.47-.36.7-1.33,2.38-2.03,5.22-1.49,7.92.82,2.97,2.99,7.68,6.71,7.23,2.28-.32,4.27-1.17,5.83-2.91,1.09-1.04,2.31-2.02,2.95-3.42.5-1.08.92-2.2,1.33-3.31.53-1.41.27-2.77-.35-4.08-.44.04-.45.04-.6.24-.12.16-.24.33-.31.52-.23.55-.68.78-1.21.69-.67-.11-1.28.09-1.91.15-.73.04-.97.6-1.12,1.21-.24.85-.84,1.33-1.69,1.22-.64-.08-1.25.03-1.85.17-.49.11-.98.26-1.47.37-.33.08-.47.01-.5-.32-.04-.36-.05-.73,0-1.09.38-2.97.69-5.84,1.16-8.81-.68.4-1.18.83-1.62,1.33-.05.06-.12.13-.12.2-.04.36-.3.55-.55.76-.46.39-.68.88-.64,1.5.01.25-.07.51-.16.75-.25.62-.55,1.21-.8,1.83-.18.43-.31.88.07,1.3.08.1.09.26.12.4.23,1,.58,1.98.69,3,.04.77.08,1.53.1,2.3,0,.32.1.57.3.82.64.78,1.25,1.58,1.89,2.37.11.13.26.27.41.32.82.28,1.59.43,2.41.76Zm29.58,36.9c-.08.13-.12.18-.13.23-.62,2.02-1.65,3.83-3.06,5.38-.67.73-.9,1.44-.74,2.39.17,1.01.26,2.04.66,3.01.65,1.48,1.18,3.01,1.31,4.63.04.35-.02.74-.16,1.06-.31.69-.35,1.4-.27,2.13.02.2.06.43.18.57.55.64,1.1,1.3,1.87,1.69.78.4,1.28.99,1.56,1.83.28.84.61,1.67,1,2.47.21.44.56.83.9,1.2.63.7,1.9-.49,2.21-1.09.33-.57.47-1.19.59-1.83.11-.57.27-1.14.44-1.69.29-.8.82-1.71.33-2.55-.54-.9.08-1.51-.18-2.28-.49-1.21-.06-2.46.07-3.69-3.43-2.66-3.56-7.3-3.72-11.28-1.02-.56-2.04-1.18-2.83-2.17Zm-2.29-28.64c2.97.86,7.1,2.21,7.94,5.57.08.42.28.65.65.86.95.53,1.77,1.2,2.28,2.19.08.15.23.28.39.35,3.67,1.84,5.97,5.6,6.88,9.51.09.37.26.58.61.74,1.63.71,3.24,1.44,4.86,2.18.32.15.63.36.92.57.66.47,1.37.54,2.13.33.22-.06.29-.22.26-.42-.09-.83-.46-1.59-.8-2.33-.96-2.03-2.36-3.81-3.5-5.73-.05.04-.1.08-.15.12.41,1.66.64,3.36.85,5.06.02.19-.01.4-.05.6-.02.07-.14.16-.21.16-.07,0-.16-.1-.19-.18-.03-.11,0-.24-.01-.36-.02-.4,0-.81-.08-1.21-.32-1.66-.67-3.32-1.03-4.98-.07-.3-.21-.62-.39-.87-.99-1.35-2.03-2.67-3.02-4.02-1.42-1.91-3.31-3.35-5.38-4.49.18.53.44.98.67,1.43,1.17,2.41,2.15,4.94,2.83,7.52,0,.07-.07.18-.12.18-.08,0-.22-.03-.25-.09-.87-2.41-1.58-4.88-2.76-7.17-.43-.77-1.14-2.29-1.98-2.58-1.29-.45-2.67-.61-3.97-1.02-.64-.25-1.25-.56-1.84-.91-.55-.32-1.1-.57-1.75-.56-.18,0-.36-.06-.53-.12-1.06-.39-2.05-.83-3.15-1.16-.03.28-.06.52-.1.81Zm31.6,21.46c-.99-1.21-1.91-2.41-2.6-3.77-.09-.18-.24-.33-.36-.49-.41-.55-.9-1.06-1.21-1.66-1.13-2.25-2.11-4.58-3.22-6.84-.94-1.89-1.76-3.28-3.65-4.39-.96-.58-1.82-1.33-2.74-1.99-.26-.19-.53-.39-.83-.47-.5-.14-1.03-.29-1.54-.27-1.22.04-2.34-.26-3.46-.72-2.22-.9-2.97.81-5.39-.05-.13-.04-.27-.05-.41-.07.05.14.1.19.17.23.87.43,1.73.81,2.73.92,3.3.43,6.75,2.64,8.89,5.14.65.86,1.34,1.2,2.34,1.46.89.26,1.77.57,2.72.5.06,0,.13.06.2.1,0,.26-.16.35-.35.36-.26.01-.53.02-.78-.04-.89-.21-1.75-.44-2.63-.68,0,.09,0,.14.01.16,2.12,2.86,4.29,5.68,6.08,8.75.85,1.44,1.74,2.87,1.84,4.63,1.4.54,3.4.83,4.18-.81Zm-29.59-29.9c.12.08.22.12.29.19.79.81,1.57,1.62,2.36,2.42.81.78,1.98.92,3.06.86.26-.01.48-.14.52-.42.04-.26-.07-.47-.34-.57-1.57-.74-3.44-1.79-3.72-3.67-.05-.44-.23-.84-.47-1.22-.64.38-.9.33-1.23-.3-.29-.58-.44-1.15-.73-1.75-.72,1.08-1.39,2.1-2.1,3.16.47.75.92,1.49,1.39,2.21.15.23.34.48.58.61.53.29.92.72,1.31,1.15,1.24,1.36,2.83,1.95,4.62,2.05,1.09.06,1.94-.45,2.69-1.17.26-.25.48-.56.76-.78.59-.47.93-1.09,1.02-1.8.24-1.61.83-3.01,1.26-4.59-2.9.04-5.94-.27-8.13-2.36-.65-.57-1.24-1.23-1.92-1.75-.34.8-.67,1.55-.99,2.31-.06.14-.11.32-.07.46.19.64.42,1.26.65,1.89.06.16.19.29.32.47.17-.28.29-.49.44-.73.14.1.24.14.29.22.36.58.7,1.19.79,1.88.07.5.25.95.59,1.3.38.39.77.77,1.22,1.08.53.36,1.12.65,1.69.94.27.14.45.31.52.62.15.68-.21,1.19-.94,1.25-.9.07-1.79-.03-2.59-.45-.37-.19-.68-.49-.99-.78-.25-.23-.44-.53-.68-.77-.56-.55-1.14-1.08-1.71-1.63-.66-.62.09-.85.7-.94-.18.25-.28.39-.45.62Zm-8.16-37.16c-.53,2.12-.84,4.3-1.88,6.25-.13.27-.18.5-.13.79.56,2.85-.08,5.66-1.04,8.34.89-.28,1.61-1.02,2.15-1.76.23-.33.49-.65.81-.88.67-.46,1.43-.82,2.16-1.21.4-.22.54-.54.49-1-.15-2.41-.44-4.81-.81-7.21-.02-.13-.08-.32-.17-.35-.37-.13-.38-.43-.42-.73-.25-1.23.19-1.59-1.14-2.25Zm3.65,2.52c.19,2.73.36,5.41.52,8.13.02.32.13.49.42.66.6.38,1.06.88,1.62,1.34.28-.35.49-.65.74-.91,1.12-1.16-.03-3.06,2.18-4.61-1.05-1.81-2.25-3.43-3.58-5.03-.24-.32-.45-.67-.69-1-.07-.1-.18-.16-.35-.31,0,.33,0,.55,0,.77,0,.69-.12.83-.87.97Zm9.59,3.88c-.45-.79-.55-1.62-.6-2.47-.22-1.37-.69-2.7-1.28-3.95-.21-.41-.47-.8-.74-1.17-.26-.36-.63-.53-1.09-.54-1.09-.03-2.18-.08-3.26-.14-.38-.02-.7.08-1.07.32.47.33.64.79.74,1.3.05.26.16.54.32.76,1.33,1.82,2.71,3.61,4.06,5.42.15.2.28.37.58.33.78-.11,1.56-.06,2.35.15Zm-9.26,53.42c.35-1.08.78-2.08,1.4-2.98.21-.31.26-.59.22-.96-.23-1.71.69-2.72,2.17-3.45-.97-1.64-1.91-3.24-2.86-4.83-.05-.08-.17-.13-.31-.24-.4,3.15-.99,6.24-1.82,9.31-.1.37-.1.64.17.99.32.4.49.92.71,1.39.12.25.21.51.31.77Zm-2.86-5.26c.06-.02.13-.05.19-.07.02-1.64-.1-3.3.16-4.93.23-1.14,1.4-.72,1-1.55-.27-.65-.79-1.03-1.47-1.35-.22,2.02-.26,3.4-1.47,5.08-.5.72-.9,1.47-1.28,2.25-.1.21-.19.46-.2.69-.02.31-.2.44-.41.61-1.74,1.17-1.87,3.22-2.25,5.19.49-.21.86-.39,1.25-.54.4-.16.71-.37.72-.86.57-1.41,1.21-2.82,1.87-4.19.2-.41.6-.75.95-1.07.24-.21.38-.14.57.16.12.19.25.38.38.57Zm1.5-7.39c.03-.22.05-.41.07-.61.03-.31.26-.44.52-.52.5-.15.69.26.91.61.28.35.74.36.97-.02.24-.4.44-.82.6-1.25.19-.52,0-.85-.49-1.07-.15-.07-.32-.1-.43-.21-.45-.45-.98-.51-1.57-.37-.45.11-.86-.02-1.17-.34-.22-.23-.39-.51-.54-.79-.33-.62-.64-1.24-1.03-1.82-.71.13-1.35.25-2.06.38.4.59.55,1.19.62,1.82.01.12.06.23.1.35.31.75.52,1.46.89,2.19.2-.35.28-.87.75-.74.28.09.33.32.26.59-.06.21-.09.42-.13.61.59.41,1.13.78,1.72,1.2Zm3.61-1.06s-.06.09-.1.14c.92,1.95,2.14,3.71,3.36,5.52,1.39-.68,2.77-.6,4.18-.21-.14-1.3-.97-2.21-1.93-2.98-1.62-1.27-3.57-1.91-5.52-2.47Zm7.07,31.2c.05.75.07,1.35.13,1.94.03.28.14.52.41.7.2.14.37.38.45.61.13.36.22.74.24,1.12.05.87.36,1.65.79,2.39.55.95,1.28,1.76,2.06,2.52.28.26.69.52.98.11.15-.2.23-.4.14-.67-.28-.85-.71-1.56-1.49-2.06-1.98-1.27-1.46-3.67-.53-5.45-1.04-.4-2.03-.78-3.17-1.22Zm-22.66-45.04c0-.12,0-.18-.02-.23-.34-1.09-.45-2.21-.41-3.35.01-.35-.09-.61-.31-.88-.69-.84-1.36-1.7-2.04-2.55-.41-.52-.52-.52-1.07-.04.37,1.14.77,2.25.52,3.47-.03.16.08.4.2.53.91.95,1.83,1.87,2.76,2.8.09.09.22.15.37.25Zm12.61,14.09c-.54,3.11-.26,6.31-1.72,9.21-.29.56-.39,1.22-.54,1.85-.12.43.17,1.43.71.83.18-.23.33-.51.41-.79.24-.85.49-1.71.66-2.58.43-2.11.8-4.24,1.24-6.35.14-.69-.13-1.25-.36-1.84-.04-.09-.17-.15-.39-.33Zm2.38,16.34c.07-2.01.42-3.93,1.58-5.64.07-.11.07-.31.03-.44-.42-1.24-.12-2.33.35-3.52-1.34.69-1.69,1.66-1.46,3.02.03.23.03.42-.11.63-.85,1.23-1.46,2.54-1.54,4.07-.03.49.04.87.37,1.2.24.24.51.45.79.68Zm3.62-10.36c-1.24-2-2.42-3.9-3.6-5.81-.15.18-.3.36-.45.55.68,1.26,1.43,2.44,2.14,3.68.25.42.5.83.74,1.25.17.3.46.38.75.46.11.03.27-.08.43-.13Zm-8.99,1.93c-.23.29-.48.53-.62.83-.43.91-.82,1.83-1.22,2.75-.04.09-.04.19-.08.37.69-.64,1.34-1.15,2.2-1.26.21-.63.41-1.23.59-1.78-.29-.31-.54-.57-.87-.92Zm-12.07-29.33c.64.8,1.21,1.52,1.82,2.28.2-1.2.37-2.3.58-3.55-.69.7-1.42,1.1-2.4,1.27Zm14.26,24.19c-.41.14-.53.43-.57.71-.16,1.1-.11,2.22-.06,3.33.36-1.31.53-2.64.63-4.04Z" stroke="#000" stroke-miterlimit="10" stroke-width=".29"/><path d="m47.77,33.99c-1.62.2-3.14.71-4.62,1.39-.07.03-.15.1-.22.09-.12-.01-.24-.07-.36-.11.09-.12.12-.3.27-.35,1.42-.65,2.87-1.2,4.43-1.41.28-.04.55-.07.52.35,0,0-.03.03-.03.03Z" stroke="#000" stroke-miterlimit="10" stroke-width=".29"/><path d="m73.85,49.4c-.87-.71-1.7-1.45-2.27-2.43-.79-1.35-1.32-2.81-1.71-4.32-.15-.6-.12-1.2.08-1.79.05-.15.11-.32.08-.46-.24-1.23.5-2.25,1.07-3.26-.83-1.29-.28-2.08,1.12-2.36.47-.1.6-.35.31-.75-.2-.28-.42-.54-.65-.8-.21-.23-.28-.46-.18-.77.47-1.29.39-1.34-.48-2.36-.2-.25-.3-.33-.23-.67.11.01.26-.01.31.05.19.2.33.46.54.65.64.61.83,1.3.41,2.11-.18.34-.12.64.18.92.22.2.39.46.55.72.41.63.06,1.3-.69,1.38-.23.02-.48.09-.69.2-.47.24-.62.62-.31,1.05.37.51.28.87-.06,1.34-.28.39-.47.85-.65,1.29-.15.37-.22.77-.11,1.18.05.18,0,.4-.06.58-.23.61-.23,1.22-.07,1.84.62,2.49,1.79,4.68,3.57,6.55-.03.04-.06.08-.09.12Z" stroke="#000" stroke-miterlimit="10" stroke-width=".29"/><path d="m70.83,42.13c.53.97.92,1.95,1.39,2.94.96,2.1,2.3,3.92,3.95,5.52.59.57,1.15,1.19,1.72,1.78.05.05.08.13.13.22-2.77-1.19-7.06-7.41-7.19-10.46Z" stroke="#000" stroke-miterlimit="10" stroke-width=".29"/><path d="m78.2,34.36c-.71-.49-3.11-4.48-3.37-5.51.32.04.44.28.57.48.39.62.76,1.24,1.13,1.87.6,1.08,1.26,1.96,1.67,3.17Z" stroke="#000" stroke-miterlimit="10" stroke-width=".29"/><path d="m54.07,98.75c0-.12-.02-.25,0-.36.14-.74.08-1.37-.51-1.96-.45-.46-.52-1.16-.61-1.81-.29-2.39.27-4.74.82-7.05.06-.27.1-.55.13-.83.14-1.35,1-2.29,2.19-2.82.86.05,1.45-.52,2.11-.94.29-.18.54-.42.82-.61.08-.05.26-.05.31,0,.06.05.03.21.02.32,0,.05-.07.1-.11.14-1.71,2.06-2.71,4.47-3.49,6.99-.13.42-.26.82-.57,1.18-.45.52-.58,1.2-.6,1.87-.01.74.07,1.49.13,2.23.01.17.09.37.21.48.42.43.56.96.61,1.54.13,1.85.31,3.86,1.85,5.14.23.19.42.44.56.7.25.46.04.8-.48.81-.93,0-1.68-.37-2.21-1.14-.24-.34-1.09-2.54-1.14-2.96-.03-.3-.04-.6-.06-.9,0,0,.01,0,.02,0Zm3.7-14.84c-.55.21-1.06.51-1.66.5-.98.46-1.67,1.3-1.77,2.42-.39,2.65-1.38,5.3-.89,8.01.31,2.06,1.3,1.55,1.18,2.66-.05.66-.09,1.33-.07,1.99.01.35.17.7.29,1.04.37.76.44,1.65,1.12,2.23.44.38.93.6,1.66.47-.27-.3-.46-.56-.69-.76-1.01-.86-1.43-2.15-1.67-3.41-.11-.61-.1-1.25-.2-1.86-.06-.39-.13-.85-.37-1.12-.31-.35-.44-.71-.48-1.13-.06-.54-.13-1.09-.12-1.63-.03-2.37.8-2.1,1.32-4.01.59-1.88,1.38-3.66,2.36-5.39Z" stroke="#000" stroke-miterlimit="10" stroke-width=".29"/><path d="m64.73,91.85c.4-.02.42.21.44.4.05.48.09.97.1,1.45.1,2.94-.56,5.45-2.13,7.93-.08.14-.18.27-.3.38-.08.06-.21.06-.31.08-.07-.28-.08-.35.12-.57,2.23-2.96,2.17-6.15,2.08-9.66Z" stroke="#000" stroke-miterlimit="10" stroke-width=".29"/><path d="m63.11,84.06c-.27-.1-.19-.3-.19-.47-.02-.36-.03-.72-.1-1.07-.04-.2-.18-.41-.33-.55-.68-.66-.7-1.5-.67-2.36,0-.08.14-.16.22-.23.07.08.2.16.21.25.04.28.03.56.06.84.06.47.19.88.58,1.22.46.37.85,2.04.24,2.38Z" stroke="#000" stroke-miterlimit="10" stroke-width=".29"/><path d="m64.49,83.04c0,.09,0,.18-.02.25-.03.07-.1.17-.14.16-.08,0-.19-.06-.24-.13-.27-1.06-.41-2.18-.63-3.26-.04-.19-.16-.53.14-.54.09,0,.23.16.25.26.23,1.08.45,2.17.63,3.26Z" stroke="#000" stroke-miterlimit="10" stroke-width=".29"/><path d="m61.83,81.51c-.12.08-.22.19-.35.23-.57.17-1.18.24-1.64.68-.04.04-.18.04-.21,0-.06-.06-.12-.19-.09-.25.07-.13.17-.3.3-.35.56-.2,1.13-.37,1.71-.54.06-.02.14.04.22.07.02.05.04.1.06.15Z" stroke="#000" stroke-miterlimit="10" stroke-width=".29"/><path d="m58.73,57.81c-.67-.92-1-1.84-1.08-2.85,0-.11-.05-.25-.12-.33-1.42-1.74-1.13-6.22-.77-8.38.12-.67.15-1.36.24-2.04.03-.24.1-.48.21-.69.49-.91.99-1.8,1.5-2.69.16-.28.43-.45.7-.64.59-.4.94-1.04,1.53-1.49-.03.12-.03.25-.08.35-.37.64-.67,1.34-1.41,1.68-.18.08-.34.29-.45.48-.46.8-.93,1.61-1.33,2.44-.14.29-.14.66-.19.99-.46,2.76-.84,5.59-.2,8.36.11.49.27.97.64,1.35.1.11.18.28.19.43.06,1.37.7,2.46,1.56,3.46.04.04.07.1.09.15,0,.02,0,.04,0,.11-.09-.02-.18-.02-.26-.05-.09-.03-.17-.09-.34-.08.16.28.32.56.48.84-.02.02-.04.04-.06.06-.56-.43-1.09-.89-1.65-1.32-.52-.39-.91-.96-1.33-1.47-.23-.28-.38-.62-.57-.93-.26-.42-.34-.87-.39-1.37-.11-1-.25-2.01-.55-2.96-.72-2.21-.72-4.36.23-6.49.06-.14.15-.31.14-.45-.09-1.02.32-1.89.74-2.77.52-1.06.33-1.81,1.48-2.58-.03.08-.05.17-.1.25-.32.52-.63,1.03-.58,1.68.01.16-.13.33-.2.49-.24.53-.49,1.06-.7,1.61-.11.28-.2.59-.17.88.05.51-.13.94-.31,1.39-.77,1.9-.76,3.81-.1,5.74.38,1.11.57,2.27.62,3.44,0,.18.02.38.11.52.46.73.92,1.47,1.43,2.17.32.44.51.52,1.08.72Z" stroke="#000" stroke-miterlimit="10" stroke-width=".29"/><path d="m63.36,55.56c.38-2.22.75-4.44,1.14-6.69.39,1.13-.36,5.92-1.14,6.69Z" stroke="#000" stroke-miterlimit="10" stroke-width=".29"/><path d="m64.87,45.78c0-.11-.02-.21,0-.3.51-1.68,1.02-3.37,1.56-5.13.3,1.17-.75,4.73-1.57,5.42Z" stroke="#000" stroke-miterlimit="10" stroke-width=".29"/><path d="m65.63,38.53c.24-1.8.48-3.6.75-5.53.5,2.03.07,3.8-.75,5.53Z" stroke="#000" stroke-miterlimit="10" stroke-width=".29"/><path d="m75.08,95.51c.11-.18.19-.31.27-.44-.16-.49-.43-.88-.85-1.21-1.83-1.46-2.79-3.42-3.1-5.7-.28-1.85.24-3.87-.74-5.57-.45-.83-.33-1.74.02-2.57.63-1.19.57-2.41.12-3.63-.26-.71-.17-1.43,0-2.15.02-.15.15-.31.3-.3.24.09.13.39.1.58-.14.66-.12,1.3.11,1.96,1.14,3.19-1.35,3.82-.1,6.18.44.82.61,1.79.54,2.76-.11,1.42,0,2.82.43,4.19.51,1.62,1.4,2.99,2.77,4.02.48.36.73.86.87,1.41.12.48-.14.66-.74.46Z" stroke="#000" stroke-miterlimit="10" stroke-width=".29"/><path d="m73.27,76.35c.12.2.19.27.2.36.03,1.05.09,2.11.7,3.02.03.05.09.1.09.15,0,.11-.04.21-.06.32-.28-.02-.36-.12-.49-.35-.56-.93-.7-1.96-.66-3.03,0-.13.11-.25.22-.48Z" stroke="#000" stroke-miterlimit="10" stroke-width=".29"/><path d="m76.49,74.26c.78.26,1.84,1.29,2.12,2.06,0,.18-.15.28-.31.2-.08-.05-.14-.14-.19-.22-.38-.6-.88-1.09-1.48-1.48-.31-.16-.23-.25-.14-.55Z" stroke="#000" stroke-miterlimit="10" stroke-width=".29"/><path d="m74.56,76.57c.02-.19.01-.36.06-.51.02-.07.13-.17.21-.17.06,0,.17.11.18.18.03.13.01.28.02.42.03.54.07,1.08.41,1.55.06.08,0,.24,0,.37-.12-.04-.31-.04-.36-.12-.16-.27-.31-.56-.4-.86-.08-.29-.09-.59-.12-.86Z" stroke="#000" stroke-miterlimit="10" stroke-width=".29"/></svg>