<?xml version="1.0" encoding="UTF-8"?><svg id="Layer_1" xmlns="http://www.w3.org/2000/svg" viewBox="0 0 144.57 144.57"><path d="m32.09,38.61h.55c.55,0,.97-.16,1.27-.47.3-.3.45-.69.45-1.17,0-.49-.17-.89-.47-1.2-.3-.3-.69-.46-1.16-.47-.34,0-.65.11-.93.34-.3.23-.5.58-.6,1.05h-1.6c.08-.85.42-1.57,1-2.15.58-.58,1.26-.87,2.06-.88,1.01.01,1.82.34,2.42,1,.57.64.86,1.4.87,2.27,0,.44-.08.87-.24,1.28-.18.41-.51.78-.99,1.1.48.32.83.69,1.05,1.14.21.44.31.91.31,1.39,0,1.08-.33,1.93-.97,2.55-.63.64-1.43.96-2.41.97-.76,0-1.43-.25-2.02-.76-.59-.5-.96-1.23-1.14-2.19h1.6c.14.38.34.7.6.93.26.25.62.37,1.05.37.47,0,.86-.17,1.18-.5.33-.31.49-.75.5-1.33,0-.58-.18-1.04-.5-1.36-.32-.31-.73-.47-1.22-.47h-.68v-1.45Z" fill="#1d1d1b"/><path d="m37.7,36.96c0-1.06.34-1.88.99-2.45.61-.57,1.33-.85,2.17-.85s1.6.28,2.21.85c.62.57.94,1.39.96,2.45v5.07c-.02,1.06-.34,1.87-.96,2.45-.61.57-1.34.86-2.21.87-.84-.01-1.57-.3-2.17-.87-.65-.57-.98-1.39-.99-2.44v-5.08Zm4.73.1c-.03-1.15-.56-1.74-1.58-1.76-1.02.02-1.55.61-1.57,1.76v4.88c.02,1.17.54,1.75,1.57,1.76,1.02,0,1.54-.6,1.58-1.76v-4.88Z" fill="#1d1d1b"/><path d="m36.79,22.21h44.15c22.08,0,40.01,17.93,40.01,40.01v44.15c0,8.62-7,15.61-15.61,15.61H36.79c-8.62,0-15.61-7-15.61-15.61V37.82c0-8.62,7-15.61,15.61-15.61Z" fill="none" stroke="#000" stroke-miterlimit="10"/><path d="m45.12,84.94l16.31-27.49h-16.18v-4.99h22.84v4.23l-16.89,27.61h16.89v5.3h-22.97v-4.66Z" fill="#1d1d1b"/><path d="m73.93,63.16h5.14v2.8h.1c1.69-2.09,3.91-3.13,6.66-3.13,2.12,0,4.06.77,5.82,2.32,1.74,1.56,2.65,3.86,2.74,6.88v17.58h-5.14v-15.76c0-1.85-.48-3.26-1.43-4.23-.94-.99-2.15-1.48-3.63-1.48s-2.7.49-3.65,1.48c-.97.97-1.46,2.38-1.46,4.23v15.76h-5.14v-26.44Z" fill="#1d1d1b"/><path d="m67.52,107.27s0,.03-.04.08c-.03.05-.06.12-.11.21-.04.09-.1.2-.15.31-.06.12-.12.24-.19.37-.07.13-.13.26-.2.39s-.13.26-.2.38-.12.23-.17.33c-.05.1-.09.18-.13.24.07-.04.15-.07.24-.08s.19,0,.31,0c.17,0,.32.03.44.09.13.05.24.12.33.2s.17.17.23.27.11.2.14.29c.03.09.06.18.07.27.01.08.02.15.02.19v.21s0,.1,0,.15c0,.05,0,.09,0,.13,0,.02,0,.06-.02.13-.01.07-.04.16-.07.26-.04.1-.09.21-.15.32s-.15.22-.26.33c-.11.1-.24.19-.4.26-.15.07-.34.12-.55.14-.22.02-.42,0-.59-.04s-.32-.12-.45-.21c-.12-.09-.23-.2-.31-.32-.08-.12-.15-.24-.2-.37-.05-.12-.08-.25-.1-.36s-.02-.21,0-.29c.01-.12.03-.23.05-.32.02-.09.04-.19.06-.27s.05-.17.08-.25c.03-.08.06-.17.1-.27,0-.02.04-.08.08-.17.04-.09.1-.21.16-.34.07-.13.14-.28.22-.45.08-.16.16-.33.24-.49.19-.39.41-.82.65-1.3h.87Zm-.16,3.94c0-.09,0-.2-.01-.31,0-.11-.04-.22-.08-.32s-.13-.19-.23-.26-.26-.12-.46-.13c-.09,0-.18,0-.25.03-.08.03-.14.06-.2.11-.06.05-.11.1-.15.16s-.08.12-.11.18-.05.11-.06.16c-.01.05-.02.09-.02.12,0,.06,0,.13,0,.21,0,.07.01.15.02.22s.04.15.07.22c.03.07.08.13.14.19.06.05.13.1.23.13.09.04.21.05.34.05.11,0,.21-.01.29-.04.08-.03.15-.07.21-.12.06-.05.11-.1.14-.16.04-.06.07-.12.09-.17.02-.06.03-.11.04-.15,0-.04.01-.08.01-.1Z" fill="#1d1d1b"/><path d="m68.71,107.33h2.78v.77h-2.08v1.23c.24-.2.52-.3.83-.3.2,0,.38.04.55.11.16.08.29.17.38.28.15.15.25.32.31.51.03.11.06.24.07.39.01.15.02.34.02.57,0,.35-.02.62-.07.8-.05.18-.13.35-.25.49-.1.14-.25.27-.45.38-.19.12-.42.18-.68.19-.35,0-.67-.11-.97-.32-.3-.22-.48-.58-.55-1.07h.75c.08.41.33.62.75.63.18,0,.32-.04.43-.11.1-.07.17-.17.21-.28.04-.12.07-.24.08-.38,0-.13,0-.26,0-.39,0-.31-.04-.56-.14-.75-.05-.09-.13-.16-.23-.22-.1-.04-.23-.07-.38-.07-.14,0-.26.03-.37.1-.11.07-.21.18-.3.35h-.7v-2.91Z" fill="#1d1d1b"/><path d="m72.47,111.94h.74v.77h-.74v-.77Z" fill="#1d1d1b"/><path d="m73.87,111.18l1.74-3.85h.83l-1.76,3.85h1.36v-1.55h.74v1.55h.42v.72h-.42v.8h-.74v-.8h-2.17v-.72Z" fill="#1d1d1b"/><path d="m62.04,103.05l3.36-5.67h-3.34v-1.03h4.71v.87l-3.48,5.69h3.48v1.09h-4.74v-.96Z" fill="#1d1d1b"/><path d="m68.01,96.36h1.06v1.09h-1.06v-1.09Zm0,2.21h1.06v5.45h-1.06v-5.45Z" fill="#1d1d1b"/><path d="m70.56,98.56h1.06v.58h.02c.35-.43.81-.65,1.37-.65.44,0,.84.16,1.2.48.36.32.55.79.56,1.42v3.62h-1.06v-3.25c0-.38-.1-.67-.29-.87-.19-.2-.44-.31-.75-.31s-.56.1-.75.31c-.2.2-.3.49-.3.87v3.25h-1.06v-5.45Z" fill="#1d1d1b"/><path d="m80.22,103.14c-.23.27-.5.49-.81.66-.31.18-.67.27-1.08.28-.62,0-1.17-.22-1.64-.66-.49-.44-.74-1.15-.75-2.13.01-.99.26-1.71.75-2.15.47-.44,1.02-.65,1.64-.65.41,0,.77.09,1.08.26.31.17.58.4.81.69l-.78.72c-.27-.37-.63-.56-1.07-.58-.9-.01-1.36.56-1.37,1.71.01,1.15.47,1.71,1.37,1.69.45,0,.8-.2,1.07-.57l.78.72Z" fill="#1d1d1b"/></svg>