<?xml version="1.0" encoding="UTF-8"?><svg id="Layer_1" xmlns="http://www.w3.org/2000/svg" viewBox="0 0 144.57 144.57"><path d="m35.75,46.37l4.36-5.63c.17-.23.28-.44.34-.63.04-.18.06-.36.06-.52,0-.43-.13-.81-.39-1.13-.27-.32-.65-.49-1.15-.5-.44,0-.8.15-1.1.43-.3.29-.48.7-.54,1.23h-1.59c.04-.96.35-1.75.93-2.37.59-.61,1.31-.92,2.17-.93.96.01,1.74.33,2.33.95.61.62.92,1.4.93,2.34,0,.76-.22,1.43-.67,2.02l-3.59,4.64h4.26v1.64h-6.36v-1.55Z" fill="#1d1d1b"/><path d="m43.2,44.66l3.72-8.24h1.77l-3.76,8.24h2.91v-3.31h1.59v3.31h.89v1.54h-.89v1.71h-1.59v-1.71h-4.64v-1.55Z" fill="#1d1d1b"/><path d="m40.75,24.87h44.15c22.08,0,40.01,17.93,40.01,40.01v44.15c0,8.62-7,15.61-15.61,15.61H40.75c-8.62,0-15.61-7-15.61-15.61V40.49c0-8.62,7-15.61,15.61-15.61Z" fill="none" stroke="#000" stroke-miterlimit="10"/><path d="m75.9,81.89c-.79,3.44-2.3,6.09-4.52,7.94-2.29,1.83-4.99,2.75-8.12,2.75-2.83-.07-5.19-.78-7.08-2.14-1.92-1.31-3.32-2.82-4.19-4.53-.26-.56-.5-1.1-.72-1.6-.2-.53-.36-1.19-.49-1.99-.25-1.49-.37-4.36-.37-8.61s.12-7.2.37-8.66c.26-1.46.67-2.64,1.21-3.54.87-1.72,2.27-3.24,4.2-4.59,1.89-1.36,4.25-2.05,7.08-2.09,3.47.03,6.3,1.09,8.49,3.18,2.19,2.1,3.57,4.71,4.15,7.81h-5.78c-.44-1.5-1.25-2.77-2.42-3.83-1.22-1-2.7-1.52-4.45-1.56-1.29.03-2.39.3-3.31.79-.94.51-1.7,1.15-2.27,1.91-.71.8-1.18,1.83-1.41,3.09-.26,1.33-.4,3.82-.4,7.48s.13,6.14.4,7.43c.23,1.29.7,2.34,1.41,3.14.58.77,1.33,1.39,2.27,1.86.92.56,2.03.84,3.31.84,3.07,0,5.36-1.69,6.87-5.08h5.78Z" fill="#1d1d1b"/><path d="m80.19,65.82h5.14v2.8h.11c1.69-2.09,3.92-3.13,6.67-3.13,2.06.03,3.85.71,5.38,2.03l-3.75,4.59c-1.09-.89-2.21-1.33-3.38-1.33-1.32,0-2.45.44-3.38,1.33-1.05.87-1.6,2.27-1.63,4.21v15.94h-5.14v-26.44Z" fill="#1d1d1b"/><path d="m64.45,109.99h2.78v.77h-2.08v1.23c.24-.2.52-.3.83-.3.2,0,.38.04.55.11.16.08.29.17.38.28.15.15.25.32.31.51.03.11.06.23.07.39.01.15.02.35.02.57,0,.35-.02.62-.07.8-.05.18-.13.35-.25.49-.1.14-.25.27-.45.38-.19.12-.42.18-.68.19-.35,0-.67-.11-.97-.32-.3-.22-.48-.58-.55-1.07h.75c.08.41.33.62.75.63.18,0,.32-.04.43-.11.1-.07.17-.17.21-.28.04-.12.07-.24.08-.38,0-.13,0-.26,0-.39,0-.31-.04-.56-.14-.75-.05-.09-.13-.16-.23-.22-.1-.04-.23-.07-.38-.07-.14,0-.26.03-.37.1-.11.07-.21.18-.3.35h-.7v-2.91Z" fill="#1d1d1b"/><path d="m69.13,110.81l-.74.56v-.82l.74-.55h.74v5.38h-.74v-4.56Z" fill="#1d1d1b"/><path d="m71.84,114.6h.74v.77h-.74v-.77Z" fill="#1d1d1b"/><path d="m73.94,115.37s.02-.04.06-.13c.04-.09.1-.21.17-.35s.15-.3.24-.48c.09-.17.18-.35.26-.52s.17-.33.24-.47.14-.25.18-.34c-.07.04-.15.07-.24.08-.09,0-.19.01-.31,0-.16,0-.3-.03-.43-.09-.12-.05-.23-.12-.32-.2-.09-.08-.16-.17-.22-.27-.06-.1-.11-.2-.14-.29-.04-.09-.06-.18-.08-.27-.02-.08-.02-.15-.02-.19,0-.01,0-.04,0-.08s0-.08,0-.13,0-.1,0-.15c0-.05,0-.09,0-.13,0-.02.01-.06.02-.13.01-.07.04-.15.08-.25.04-.1.09-.2.16-.31.07-.11.15-.22.26-.32.11-.1.24-.18.39-.25s.34-.12.56-.14c.22-.02.42,0,.59.04.17.05.32.11.44.2.12.09.22.19.31.31s.14.24.19.36c.04.12.08.24.09.35.01.11.02.21,0,.29-.01.12-.03.23-.05.32-.02.09-.04.19-.06.27-.02.09-.05.17-.08.25-.03.08-.06.17-.1.27,0,.03-.04.09-.08.18-.04.09-.1.2-.16.33-.06.13-.14.28-.21.44-.08.16-.16.32-.24.48-.19.38-.4.81-.63,1.28h-.88Zm.17-3.89c0,.1,0,.2.01.32,0,.12.04.22.09.33.05.1.12.19.23.26.1.07.25.11.43.12.09,0,.18,0,.25-.04s.14-.07.2-.11c.06-.05.11-.1.15-.16s.08-.12.11-.18c.03-.06.05-.11.06-.16.01-.05.02-.09.02-.12,0-.06,0-.13,0-.21,0-.08,0-.15-.02-.23-.01-.08-.04-.15-.07-.23-.03-.07-.08-.14-.14-.19s-.13-.1-.23-.13c-.09-.03-.21-.04-.34-.04-.15,0-.28.05-.38.11-.1.07-.17.15-.23.23s-.1.16-.12.24c-.02.08-.03.13-.03.16Z" fill="#1d1d1b"/><path d="m77.57,115.37s.02-.04.06-.13c.04-.09.1-.21.17-.35s.15-.3.24-.48c.09-.17.18-.35.26-.52s.17-.33.24-.47.14-.25.18-.34c-.07.04-.15.07-.24.08-.09,0-.19.01-.31,0-.16,0-.3-.03-.43-.09-.12-.05-.23-.12-.32-.2-.09-.08-.16-.17-.22-.27-.06-.1-.11-.2-.14-.29-.04-.09-.06-.18-.08-.27-.02-.08-.02-.15-.02-.19,0-.01,0-.04,0-.08s0-.08,0-.13,0-.1,0-.15c0-.05,0-.09,0-.13,0-.02.01-.06.02-.13.01-.07.04-.15.08-.25.04-.1.09-.2.16-.31.07-.11.15-.22.26-.32.11-.1.24-.18.39-.25s.34-.12.56-.14c.22-.02.42,0,.59.04.17.05.32.11.44.2.12.09.22.19.31.31s.14.24.19.36c.04.12.08.24.09.35.01.11.02.21,0,.29-.01.12-.03.23-.05.32-.02.09-.04.19-.06.27-.02.09-.05.17-.08.25-.03.08-.06.17-.1.27,0,.03-.04.09-.08.18-.04.09-.1.2-.16.33-.06.13-.14.28-.21.44-.08.16-.16.32-.24.48-.19.38-.4.81-.63,1.28h-.88Zm.17-3.89c0,.1,0,.2.01.32,0,.12.04.22.09.33.05.1.12.19.23.26.1.07.25.11.43.12.09,0,.18,0,.25-.04s.14-.07.2-.11c.06-.05.11-.1.15-.16s.08-.12.11-.18c.03-.06.05-.11.06-.16.01-.05.02-.09.02-.12,0-.06,0-.13,0-.21,0-.08,0-.15-.02-.23-.01-.08-.04-.15-.07-.23-.03-.07-.08-.14-.14-.19s-.13-.1-.23-.13c-.09-.03-.21-.04-.34-.04-.15,0-.28.05-.38.11-.1.07-.17.15-.23.23s-.1.16-.12.24c-.02.08-.03.13-.03.16Z" fill="#1d1d1b"/><path d="m83.2,109.94s0,.03-.04.08c-.03.05-.06.12-.11.22-.04.09-.1.2-.15.31-.06.12-.12.24-.19.37s-.13.26-.2.39-.13.26-.2.38c-.06.12-.12.23-.17.33-.05.1-.09.18-.13.24.07-.04.15-.07.24-.08s.19-.01.31,0c.17,0,.32.03.44.09.13.05.24.12.33.2s.17.17.23.27.11.2.14.29c.03.09.06.18.07.27s.02.15.02.19v.21s0,.1,0,.15,0,.09,0,.13c0,.02,0,.06-.02.13-.01.07-.04.16-.07.26-.04.1-.09.21-.15.32s-.15.22-.26.32c-.11.1-.24.19-.4.26-.15.07-.34.12-.55.14-.22.02-.42,0-.59-.04-.17-.05-.32-.12-.45-.21-.12-.09-.23-.2-.31-.32-.08-.12-.15-.24-.2-.37s-.08-.25-.1-.36c-.02-.12-.02-.21,0-.3.01-.12.03-.23.05-.32.02-.09.04-.19.06-.27.02-.09.05-.17.08-.25.03-.08.06-.17.1-.27,0-.02.04-.08.08-.17s.1-.21.16-.34.14-.28.22-.45c.08-.16.16-.33.24-.49.19-.39.41-.82.65-1.3h.87Zm-.16,3.94c0-.09,0-.2-.01-.31,0-.11-.04-.22-.08-.32-.05-.1-.13-.19-.23-.26-.11-.07-.26-.12-.46-.13-.09,0-.18,0-.25.03s-.14.06-.2.11c-.06.05-.11.1-.15.16-.04.06-.08.12-.11.18-.03.06-.05.11-.06.16-.01.05-.02.09-.02.12,0,.06,0,.13,0,.21,0,.07.01.15.02.22.01.08.04.15.07.22.03.07.08.13.14.19.06.05.13.1.23.13.09.03.21.05.34.05.11,0,.21-.01.29-.04.08-.03.15-.07.21-.12.06-.05.11-.1.14-.16s.07-.12.09-.17c.02-.06.03-.11.04-.15,0-.05.01-.08.01-.1Z" fill="#1d1d1b"/><path d="m56.89,104.54c-.16.71-.47,1.25-.93,1.64-.47.38-1.03.57-1.67.57-.58-.01-1.07-.16-1.46-.44-.4-.27-.69-.58-.87-.94-.05-.12-.1-.23-.15-.33-.04-.11-.07-.25-.1-.41-.05-.31-.08-.9-.08-1.78s.03-1.48.08-1.79c.05-.3.14-.54.25-.73.18-.35.47-.67.87-.95.39-.28.88-.42,1.46-.43.72,0,1.3.23,1.75.66.45.43.74.97.85,1.61h-1.19c-.09-.31-.26-.57-.5-.79-.25-.21-.56-.31-.92-.32-.26,0-.49.06-.68.16-.19.1-.35.24-.47.39-.15.17-.24.38-.29.64-.05.27-.08.79-.08,1.54s.03,1.27.08,1.53c.05.27.14.48.29.65.12.16.28.29.47.38.19.12.42.17.68.17.63,0,1.1-.35,1.42-1.05h1.19Z" fill="#1d1d1b"/><path d="m57.78,99.02h1.06v2.78h.02c.35-.43.81-.65,1.37-.65.44,0,.84.16,1.2.48.36.32.55.79.56,1.42v3.62h-1.06v-3.25c0-.38-.1-.67-.29-.87-.19-.2-.44-.31-.75-.31s-.56.1-.75.31c-.2.2-.3.49-.3.87v3.25h-1.06v-7.66Z" fill="#1d1d1b"/><path d="m63.56,101.23h1.06v.58h.02c.35-.43.81-.65,1.37-.65.42,0,.79.15,1.11.42l-.77.95c-.22-.18-.46-.27-.7-.27-.27,0-.5.09-.7.27-.22.18-.33.47-.34.87v3.29h-1.06v-5.45Z" fill="#1d1d1b"/><path d="m67.29,103.95c0-.58.05-1.02.14-1.33.09-.3.24-.56.44-.76.15-.18.35-.34.61-.49.26-.14.59-.21.99-.21.42,0,.75.08,1.01.22.25.14.45.31.59.49.21.21.36.46.45.76.08.31.13.75.13,1.32s-.04,1.01-.13,1.31c-.09.3-.24.56-.45.78-.07.08-.15.16-.25.24-.09.09-.2.16-.34.23-.26.15-.59.23-1.01.24-.4,0-.73-.09-.99-.24-.26-.14-.46-.29-.61-.46-.2-.22-.34-.48-.44-.78-.09-.3-.14-.74-.14-1.31Zm3.29.01c0-.39-.02-.67-.05-.85-.03-.17-.1-.32-.21-.45-.08-.12-.19-.22-.35-.29-.15-.07-.32-.11-.51-.11-.18,0-.35.04-.5.11-.15.07-.27.17-.36.29-.09.13-.16.28-.2.45-.04.18-.06.46-.06.84s.02.66.06.83c.04.18.11.34.2.47.09.11.21.2.36.28.15.08.32.12.5.12.19,0,.36-.04.51-.12.15-.08.27-.17.35-.28.11-.14.17-.3.21-.47.03-.18.05-.45.05-.82Z" fill="#1d1d1b"/><path d="m72.89,101.23h1.06v.58h.02c.36-.43.83-.65,1.42-.65.38,0,.68.07.91.19.23.14.44.31.62.52.43-.48,1-.72,1.72-.71.45,0,.87.16,1.24.48.37.32.56.79.58,1.42v3.62h-1.06v-3.25c0-.38-.1-.67-.3-.87-.2-.2-.46-.31-.79-.31s-.58.1-.79.31c-.21.2-.32.49-.32.87v3.25h-1.06v-3.25c0-.38-.1-.67-.3-.87-.21-.2-.47-.31-.79-.31s-.58.1-.79.31c-.21.2-.32.49-.32.87v3.25h-1.06v-5.45Z" fill="#1d1d1b"/><path d="m82.13,99.02h1.06v1.09h-1.06v-1.09Zm0,2.21h1.06v5.45h-1.06v-5.45Z" fill="#1d1d1b"/><path d="m84.68,101.23h1.06v3.25c0,.37.1.66.3.86.2.21.45.31.75.31s.55-.1.75-.31c.2-.21.29-.49.29-.86v-3.25h1.06v5.45h-1.06v-.58h-.02c-.35.43-.8.65-1.37.65-.44,0-.83-.17-1.18-.49-.38-.31-.58-.78-.58-1.4v-3.63Z" fill="#1d1d1b"/><path d="m90.41,101.23h1.06v.58h.02c.36-.43.83-.65,1.42-.65.38,0,.68.07.91.19.23.14.44.31.62.52.43-.48,1-.72,1.72-.71.45,0,.87.16,1.24.48.37.32.56.79.58,1.42v3.62h-1.06v-3.25c0-.38-.1-.67-.3-.87-.2-.2-.46-.31-.79-.31s-.58.1-.79.31c-.21.2-.32.49-.32.87v3.25h-1.06v-3.25c0-.38-.1-.67-.3-.87-.21-.2-.47-.31-.79-.31s-.58.1-.79.31c-.21.2-.32.49-.32.87v3.25h-1.06v-5.45Z" fill="#1d1d1b"/></svg>