<?xml version="1.0" encoding="UTF-8"?><svg id="Layer_1" xmlns="http://www.w3.org/2000/svg" viewBox="0 0 144.57 144.57"><path d="m77.81,121.73c.26.11.45.2.64.28.44.19.52.39.24.78-.26.37-.57.7-.86,1.04-1.06,1.22-2.14,2.42-3.18,3.65-1.19,1.41-1.69,3.13-1.99,4.91-.24,1.46-.41,2.94-.62,4.4-.03.22-.07.45-.12.67-.07.32-.25.48-.71.33.06-.99.06-2.03.21-3.04.21-1.47.52-2.92.81-4.37.08-.4-.08-.62-.44-.65-.45-.03-.9-.02-1.35.03-.11.01-.26.22-.27.35-.03.29.06.58.04.87-.1,1.53-.22,3.05-.34,4.58-.03.35-.05.71-.15,1.05-.05.16-.26.28-.39.42-.1-.15-.28-.3-.28-.45-.01-1.15.02-2.29.02-3.44,0-.9.03-1.81-.04-2.7-.03-.36-.28-.7-.45-1.04-.23-.46-.56-.88-.7-1.36-1.28-4.45-2.5-8.91-3.78-13.36-.62-2.15-1.33-4.28-2.05-6.4-.23-.68-.64-1.3-.96-1.95-.12-.24-.25-.47-.38-.71.04-.03.08-.05.12-.08.24.31.48.63.72.94.03-.01.06-.02.1-.03-.2-.8-.38-1.6-.59-2.4-.66-2.54-1.33-5.08-2.01-7.61-.11-.4-.34-.77-.54-1.13-.93-1.71-1.87-3.42-2.8-5.13-.13-.23-.19-.5-.29-.75.05-.03.11-.06.16-.08.87,1.51,1.73,3.02,2.6,4.53l.23-.1c-.64-2.25-1.28-4.49-1.92-6.74.06-.02.12-.04.17-.07.07.14.16.28.2.43.68,2.25,1.38,4.5,2.03,6.76.29,1.02.64,1.99,1.32,2.83.2.24.32.54.48.82-.03.04-.07.08-.1.12-.22-.13-.44-.25-.73-.42.07.33.12.62.2.9.94,3.34,1.88,6.67,2.83,10.01.08.29.21.58.34.85.17.36.42.66.25,1.15-.1.28.11.68.22,1.02,1.21,3.98,2.43,7.95,3.63,11.93.34,1.12.6,2.27.9,3.4.05,0,.1,0,.15,0,0-.32.08-.68-.01-.97-.66-2.03-1.16-4.09-1.47-6.2-.17-1.16-.51-2.29-.77-3.43.05-.02.1-.04.14-.06.06.14.14.28.18.42.33,1.38.64,2.76.97,4.14.18.75.38,1.5.6,2.24.08.27.21.52.42.75,0-.68.09-1.38-.02-2.04-.28-1.7-.64-3.39-1.01-5.08-.14-.63-.43-1.2-1.1-1.56-.06.21-.11.37-.19.61-.34-.45-.56-.87-.47-1.36.02-.15.24-.33.4-.39,1.45-.46,1.15-.39.68-1.49-.28-.67-.49-1.36-.73-2.05-.13-.37-.29-.63-.8-.59-.24.02-.5-.33-.76-.51-.34-.24-.27-.48-.06-.78.09-.13.07-.38.02-.55-.43-1.62-.91-3.23-1.32-4.85-.29-1.15-.72-2.24-1.37-3.23-.06-.09-.13-.2-.14-.31-.1-1.76-.92-3.31-1.37-4.97-.05-.2-.1-.39-.16-.59.04-.02.07-.03.11-.05.08.16.18.31.24.47.62,1.69,1.23,3.39,1.85,5.09.04.12.06.26.13.36.72,1.14.93,2.43,1.21,3.72.31,1.41.84,2.77,1.29,4.15.05.16.26.26.4.39.14-.17.31-.33.39-.52.06-.14.01-.34.01-.62.27.42.48.75.68,1.08.06-.02.12-.04.18-.06,0-.21.04-.42,0-.62-.19-.82-.38-1.63-.63-2.43-.05-.16-.33-.26-.5-.39-.05.18-.17.37-.14.53.06.39.19.77.3,1.15-.06.02-.11.04-.17.07-.11-.25-.25-.5-.32-.77-.15-.57-.19-1.17-.62-1.65-.13-.14-.07-.43-.13-.65-.29-.98-.55-1.98-.91-2.94-1.02-2.65-2.11-5.27-3.12-7.92-.84-2.2-1.6-4.42-2.38-6.64-.23-.65-.39-1.31-.59-1.97.06-.02.11-.04.17-.06.11.23.23.46.32.7,1.23,3.29,2.43,6.59,3.7,9.87,1.03,2.68,2.14,5.33,3.22,7.99.04.1.07.22.12.32.15.27.34.76.47.74.46-.04.92-.25,1.37-.42.05-.02.08-.17.07-.26-.08-.88-.07-1.75-.43-2.6-.45-1.06-.75-2.2-1.07-3.31-.18-.61-.51-.93-1.17-.93-.21,0-.43-.12-.65-.19,0-.06-.01-.11-.02-.17.21-.12.41-.25.63-.37.34-.18.47-.35.2-.75-.29-.42-.46-.92-.6-1.43.54.25.81.71,1.07,1.18.13.25.24.46.62.37.55-.14.64-.2.54-.75-.2-1.08-.44-2.15-.65-3.23-.07-.37-.29-.49-.66-.58-.57-.13-1.13-.35-1.66-.59-.33-.15-.33-.49.01-.6.47-.17.42-.39.31-.8-.26-.97-.42-1.97-.63-2.96.06-.02.13-.04.19-.06.08.17.18.34.23.52.23.77.45,1.55.68,2.32.07.25.1.58.46.43.13-.05.23-.4.19-.58-.21-1.19-.42-2.39-.72-3.56-.51-1.95-1.2-3.85-1.37-5.88-.01-.16-.06-.33-.14-.46-.67-1.02-1.35-2.03-2.14-3,.08.51.17,1.02.25,1.53-.03.01-.07.02-.1.03-.14-.39-.32-.78-.4-1.18-.35-1.78-1.14-3.38-2.23-4.78-1.2-1.55-1.69-3.44-2.68-5.09-.72-1.2-1.3-2.48-1.94-3.73-.12-.24-.21-.49-.32-.73.05-.02.09-.05.14-.07,1,1.83,1.99,3.66,2.99,5.49.03-.01.07-.02.1-.04v-.82s.08-.03.12-.04c.07.17.18.34.2.52.24,1.9,1.35,3.39,2.31,4.95.71.3.69,1.05.99,1.61.62,1.12,1.3,2.22,1.95,3.32.09-.03.17-.06.26-.09-.19-1.1-.39-2.2-.58-3.3.04-.02.08-.03.12-.05.05.09.12.18.15.28.35,1.18.68,2.35,1.03,3.53.08.25.05.63.51.54.59-.11.92-.39.92-.8,0-.26,0-.53,0-.83.52.25.39,1.06,1.13,1.09-.02-.17-.02-.31-.06-.44-.24-.85-.49-1.71-.72-2.56-.31-1.13-.65-2.24-1.9-2.97.36-.22.6-.44.88-.52.29-.08.35-.23.27-.45-.17-.43-.37-.85-.57-1.27-.18-.39-.38-.78-.62-1.29.28.06.38.08.61.12-.1-.33-.18-.59-.27-.85-.05-.14-.13-.26-.19-.39-.23-.53-.15-.64.43-.65.09,0,.19,0,.3,0-.01-.07,0-.13-.03-.16-.96-1.24-1.38-2.72-1.95-4.14-.04-.1-.11-.23-.09-.32.05-.19.12-.41.25-.53.09-.08.33-.04.48.02.25.1.48.25.72.38.03.02.09-.01.21-.03-.04-.2-.07-.4-.13-.59-.28-.84-.56-1.68-.87-2.5-.06-.16-.23-.29-.38-.4-.29-.22-.5-.41-.32-.84.09-.22,0-.54-.07-.79-.22-.72-.47-1.43-.71-2.14.04-.03.09-.06.13-.08.13.19.26.38.39.57.26.41.5.83.78,1.22.23.31.49.59-.19.84.04.03.08.06.13.1.22.04.46.14.67.09.13-.03.33-.32.3-.41-.27-.68-.54-1.38-.92-2.01-.25-.42-.7-.59-1.24-.63-.32-.03-.72-.32-.9-.61-.28-.46-.41-1.01-.6-1.52-.02-.07-.02-.15-.03-.22l.13-.06c.18.3.39.59.54.9.15.31.33.38.65.3.51-.13,1.03-.23,1.54-.34.02-.05.03-.09.05-.14-.21-.17-.42-.36-.64-.52-.35-.26-.69-.52-1.05-.75-.34-.22-.68-.43-1.05-.59-.27-.12-.44,0-.34.33.06.21.11.42.17.68-.48-.37-.9-.71-1.34-1.02-.24-.18-.35-.38-.21-.66.16-.33.12-.8.65-.85.17-.02.36-.04.52-.11,1.04-.49,2.1-.43,3.17-.11.13.04.28.05.49-.02-.22-.22-.41-.46-.66-.64-.88-.65-1.79-1.27-2.68-1.91-.34-.24-.67-.51-1-.77-.39-.3-.37-.53.1-.72.27-.11.56-.15.84-.2.28-.05.57-.08.99-.13-.15-1.2-.3-2.39-.45-3.59.05-.02.1-.04.16-.06.09.16.22.32.26.49.21,1.06.41,2.12.57,3.19.05.3.16.47.44.55.28.08.41.01.44-.31.14-1.54.29-3.08.47-4.62.02-.21.23-.4.35-.6.17.11.39.18.49.34.37.56.72,1.14,1.02,1.74.33.66.58,1.36.87,2.05.71-.53.91-.51,1.34.26.26.46.4.98.59,1.48.05.13.11.25.2.44.2-.22.35-.39.5-.54.23-.23.45-.23.52.12.08.42.23.64.72.31.1,1.89.19,3.72.29,5.64.68-.46.36-1.23.81-1.73.15.18.33.31.4.48.29.73.55,1.48.82,2.22.04.1.08.27.14.28.68.14.56.68.52,1.11-.09.96-.24,1.92-.4,2.88-.06.39-.05.62.44.61.49,0,.8.34.86.93.16,1.63.54,3.25.32,4.91-.02.14,0,.29,0,.58.64-.44,1.2-.82,1.75-1.23.08-.06.11-.23.12-.36.12-2.29.29-4.58.33-6.87.07-4.02.06-8.04.07-12.07,0-.39-.21-.77-.24-1.16-.04-.51-.07-1.03,0-1.54.23-1.58-.11-3.08-.57-4.56-.03-.09-.07-.18-.09-.28-.22-1.02-.44-2.04-.65-3.07-.02-.09-.01-.18-.01-.28.04-.01.08-.02.12-.03.31.99.63,1.99.97,3.07.17-.2.26-.31.37-.44.05.06.12.11.12.16.13.94.23,1.88.37,2.82.17,1.16.36,2.32.55,3.48.64,3.73,1.39,7.45,1.52,11.26.03.81.12,1.61.17,2.41.01.2-.04.4-.07.6-.06,0-.11.02-.17.02-.06-.21-.15-.42-.17-.63-.03-.45.02-.91-.04-1.36-.28-2.42-.57-4.83-.9-7.24-.18-1.33-.41-2.64-.63-3.96-.03-.18-.09-.36-.2-.53-.08,6.76.26,13.53-.57,20.33.09,0,.26.02.42.03.29.02.58.01.86.08.51.12.52.29.29.75-.28.56-.48,1.15-.67,1.74-.22.66-.38,1.33-.9,1.85-.13.12-.15.35-.22.54.04.03.09.06.13.09.15-.13.31-.25.45-.39.14-.14.24-.31.39-.43.14-.12.32-.19.48-.28.07.17.2.34.21.51.05,1.87.39,3.73.11,5.61-.02.16,0,.32,0,.48.04.02.08.04.12.07.17-.29.34-.59.52-.88.68.17.72.33.57.97-.2.86-.33,1.74-.41,2.62-.17,1.84-.96,3.47-1.58,5.16-.17.45-.4.88-.6,1.32-.06.12-.09.26-.16.49.68-.36,1.19-.71,1.32-1.43.12-.63.26-1.26.4-1.89.04-.18.1-.35.16-.52.06.01.13.02.19.03-.1.81-.2,1.62-.31,2.44.09.06.17.13.26.19.07-.16.13-.34.23-.49.08-.11.22-.27.32-.27.77.06.74-.53.86-1.01.04-.14.08-.27.24-.42.08.41.16.81.24,1.22.06,0,.12,0,.18.01.06-.25.16-.49.18-.74.18-1.9.34-3.79.51-5.69.02-.26.11-.51.16-.76.05,0,.11.01.16.02.01.22.05.43.03.65-.3,4.07-.59,8.15-.9,12.22-.03.41,0,.7.49.84.47.13.56.41.34.76-1.21,1.94-1.91,4.06-2.42,6.27-.16.7-.44,1.37-.71,2.17.54-.39.97-.72,1.43-1.01.39-.25.8-.49,1.24-.65.73-.27,1.21.06,1.27.84.07.98-.07,1.94-.46,2.84-.59,1.36-1.19,2.71-1.79,4.07-.06.14-.11.29-.22.54.47-.24.82-.45,1.2-.61.16-.07.4-.11.53-.03.09.05.12.33.08.48-.44,1.84-.87,3.68-1.99,5.26-.2.28-.34.61-.51.93.93.32,1.98-.21,2.79.64-1.15,1.21-1.54,2.79-2.25,4.22-.11.23-.19.49-.22.74-.06.42.12.57.54.47.38-.09.75-.19,1.12-.31.31-.09.44.04.43.33-.03.56-.06,1.13-.15,1.68-.11.66-.29,1.32-.43,1.98-.17.77-.44,1.48-.95,2.09-.09.11-.16.3-.13.42.02.09.26.21.35.17.13-.05.24-.21.3-.35,1.39-3.36,1.81-6.93,2.22-10.5.32-2.77.72-5.53,1.09-8.3.1-.78.23-1.56.31-2.35.02-.23-.09-.47-.16-.8.25-.27.45-.63.15-1.18-.15-.28-.03-.71-.03-1.07h.16c.03.1.07.21.1.32.03,0,.05,0,.08.01.1-.54.21-1.07.31-1.61.6-2.98.76-6.01.99-9.04.25-3.28.62-6.55.93-9.83.21-2.19.44-4.37.59-6.56.18-2.56.29-5.13.42-7.69.24-5.12,1.09-10.16,2.15-15.17.04-.21.06-.43.1-.76-.52.46-.71.94-.79,1.5-.12.79-.3,1.58-.47,2.37-.03.15-.12.28-.19.42l-.15-.03c.04-.35.1-.69.11-1.04.05-1.34.32-2.62.97-3.8.11-.19.37-.29.54-.46.15-.15.36-.32.4-.5.27-1.28.45-2.57.76-3.84.61-2.57,1.28-5.13,1.93-7.69.03-.11.04-.22-.04-.37-.19.41-.42.8-.56,1.23-.95,3-1.89,6-2.81,9-.37,1.22-.7,2.45-1.07,3.67-.07.25-.22.47-.36.77-.25-.58,1.84-8.22,3.04-11.55,1.35-3.75,2.8-7.45,4.68-10.98-.03-.02-.07-.05-.1-.07-.15.18-.34.35-.46.56-1.29,2.14-2.73,4.2-3.59,6.57-1.01,2.79-1.95,5.6-2.93,8.4-.11.32-.23.64-.45.93.78-3.45,1.78-6.84,3.03-10.15-.97,1.54-1.81,3.13-2.37,4.85-.45,1.38-.85,2.77-1.23,4.17-.62,2.25-1.25,4.5-1.81,6.77-.47,1.91-.92,3.83-1.27,5.76-.51,2.81-.97,5.62-1.36,8.45-.34,2.51-.56,5.04-.84,7.55-.02.2-.06.4-.18.59-.01-.07-.04-.14-.04-.2.07-1.77.06-3.55.22-5.32.23-2.44.51-4.88.92-7.3.48-2.84,1.07-5.67,1.73-8.47.73-3.1,1.64-6.16,2.37-9.27.66-2.81,1.78-5.42,3.16-7.93,1.67-3.02,3.54-5.9,6.16-8.21.5-.44,1.1-.79,1.68-1.13.2-.12.5-.12.74-.08.45.08.55.39.29.76-.6.84-1.19,1.69-1.82,2.51-1.52,1.98-2.34,4.3-3.18,6.6-.59,1.62-1.16,3.26-1.6,4.92-.6,2.25-1.09,4.54-1.61,6.81-.64,2.82-1.32,5.63-1.89,8.47-.29,1.47-.3,2.99-.55,4.46-.64,3.71-.58,7.46-.79,11.2-.12,2.14-.4,4.27-.6,6.41-.12,1.3-.22,2.61-.35,3.91-.16,1.54-.36,3.08-.52,4.62-.14,1.32-.22,2.64-.36,3.95-.37,3.32-.75,6.64-1.14,9.95-.25,2.1-.52,4.19-.8,6.29-.1.77-.28,1.52-.37,2.29-.18,1.44-.26,2.89-.48,4.32-.36,2.32-.81,4.63-1.21,6.95-.13.73-.22,1.47-.37,2.19-.09.45-.26.89-.4,1.33-.21.66-.42,1.32-.67,1.96-.19.49-.45.96-.7,1.43-.1.2-.24.37-.41.62Zm-10.65-7.38c.31.51.63.94.84,1.41.21.48.32,1.01.45,1.52.56,2.23.93,4.49.88,6.79-.03,1.26-.13,2.51-.19,3.77-.04.8.09.99.87,1.24.76.25,1.53-.12,1.67-.89.35-1.95.81-3.88.73-5.89-.06-1.48.1-2.97-.42-4.41-.44-1.23-1.02-2.29-2.35-2.75-.56-.2-1.11-.42-1.68-.62-.25-.09-.52-.12-.81-.19Zm6.98-11.2c-.05.6-.1,1.09-.14,1.57.05,0,.1.02.16.03.07-.16.14-.32.23-.46.36-.58.41-1.43,1.31-1.56.05,0,.1-.07.14-.12.36-.45.78-.87,1.05-1.38.5-.94.94-1.91,1.34-2.89.54-1.33,1.04-2.68,1.11-4.14.01-.23-.03-.46-.05-.76-.26.11-.45.14-.57.25-.81.65-1.68,1.25-2.41,2-1.55,1.6-2.8,3.39-2.85,5.75-.02.72,0,1.45,0,2.18.05,0,.1.02.15.03.15-.13.3-.26.54-.48Zm.88-16.02c.05.03.1.07.15.1.39-.42.96-.77,1.12-1.26.34-1.05.49-2.16.69-3.25.18-1.02.01-2.12.81-2.97.01-.01,0-.06-.03-.2-.29.11-.59.17-.82.32-1.99,1.27-3.62,2.88-4.5,5.11-.38.98-.72,2.01-.58,3.1.03.27-.02.61.43.62.04,0,.11.18.11.28,0,.19-.08.38-.09.57-.06.66-.11,1.31-.16,1.97.05,0,.1.02.16.02.7-1.81,1.64-3.49,2.77-5.08-.01.22-.03.44-.04.66Zm-1.8,10.71s.05.03.08.05c.12-.14.27-.26.37-.41,1.14-1.82,2.21-3.68,2.72-5.8.38-1.6.7-3.22,1.58-4.65.09-.15.07-.41.04-.61-.05-.32-.26-.45-.56-.29-.29.17-.57.36-.82.58-2.33,2.03-3.67,4.62-4.22,7.64-.15.85.18,1.64.26,2.46.05,0,.11,0,.16.01.19-.5.39-1,.58-1.5.06.02.12.04.18.06-.12.82-.24,1.64-.36,2.45Zm-1.4.61c.18-1.09-.51-1.91-.77-2.87.16.17.31.33.47.5.04-.02.07-.04.11-.07-.02-.15-.03-.31-.08-.45-.17-.47-.34-.94-.53-1.4-.97-2.33-2.4-4.25-4.67-5.48-.57-.31-1.14-.32-1.73-.24-.17.02-.31.18-.47.28.01.06.03.11.04.17.24.05.53.22.72.14.53-.21.69.1.85.48.47,1.16.78,2.35.86,3.6.05.7.35,1.24.99,1.61.71.42,1.37.91,2.05,1.37.71.49,1.35,1.05,1.78,1.81.11.19.25.35.38.53Zm.32,3.14c-.02-.3,0-.47-.05-.6-.5-1.03-.89-2.14-1.56-3.04-.87-1.18-2.21-1.85-3.48-2.56-.29-.17-.62-.27-.94-.37-.59-.2-1.13-.01-1.68.24.42.11.84.19,1.26.18.71-.02,1,.15,1.2.86.34,1.25.6,2.51.63,3.81.01.74.08,1.48.18,2.22.02.18.26.44.43.46.94.13,1.75.54,2.52,1.07.13.09.27.18.41.27.04-.03.08-.06.12-.1-.3-.72-.63-1.44-.9-2.17-.08-.21-.1-.56.02-.68.13-.13.47-.13.69-.07.36.1.7.3,1.16.51Zm3.94-29.58c-.29.2-.51.31-.67.47-.68.69-1.36,1.38-2.01,2.09-.63.69-1.02,1.51-1.25,2.42-.55,2.16-.77,4.35-.73,6.57,0,.23.07.46.11.69.05,0,.11.01.16.02.08-.28.15-.56.24-.84.14-.4.21-.87.46-1.19,2.18-2.75,3.3-5.91,3.75-9.35.03-.24-.03-.49-.06-.87Zm-5.69,13.32c.08-.06.16-.11.23-.17-.02-.15-.05-.3-.06-.45-.04-.75-.55-1.37-.25-2.25.24-.67.01-1.51-.33-2.25-.96-2.07-2.62-3.17-4.82-3.52-.55-.09-1.09-.02-1.53.41.32.06.65.1.94,0,.29-.11.44-.03.54.2.23.56.47,1.13.64,1.71.26.89.45,1.81.73,2.7.09.27.35.54.61.67,1.19.62,2.24,1.41,3.07,2.46.11.14.16.31.24.47Zm-5.54-2.56c-.02.1-.03.19-.05.29.26.09.51.24.77.25.61.02.74.11.76.71.03.84.06,1.68.07,2.51.02.95.43,1.63,1.25,2.13,1.31.8,2.38,1.87,3.11,3.24.09.17.24.31.36.47.03-.02.07-.04.1-.06-.26-.93-.51-1.85-.77-2.78.04-.03.08-.05.13-.08.19.09.37.18.64.31-.01-.27.01-.48-.04-.67-.18-.65-.37-1.3-.6-1.94-.77-2.18-2.34-3.55-4.48-4.28-.38-.13-.83-.08-1.25-.11Zm5.69-9.31c.06,0,.12.01.18.02.11-.41.23-.81.32-1.22.43-1.94.92-3.85,1.78-5.65.78-1.64,1.49-3.32,2.22-4.99.07-.16.09-.35.16-.63-.31.1-.53.13-.69.23-.55.36-1.08.75-1.61,1.14-1.47,1.08-2.23,2.65-2.65,4.32-.54,2.15-.25,4.33.15,6.48.02.1.08.19.13.29Zm-4.93,35.25c.17.19.24.31.34.37.76.43.94,1.11,1.09,1.94.26,1.46.73,2.82,2.46,3.3,1.05.29,1.95.91,2.55,1.89.03.05.12.07.22.13.03-.21.08-.37.07-.52-.1-3.46-1.39-5.6-4.48-6.96-.68-.3-1.41-.21-2.25-.13Zm9.51-43.33c-1.96.91-4.94,9.63-4.05,11.84.16-.36.27-.72.45-1.03.67-1.16,1.36-2.3,2.05-3.44.05-.09.19-.13.3-.17.17-.07.39-.07.53-.18.51-.39.7-.93.71-1.57.02-1.64.06-3.29.09-4.93,0-.17-.05-.34-.07-.52Zm-5.83,7.2c-.03-.97-.44-1.76-.75-2.59-.69-1.82-2.02-3-3.73-3.8-.39-.18-.85-.22-1.38-.35.05.43.06.74.13,1.03.17.66.37,1.3.55,1.95.22.78.62,1.4,1.35,1.8.28.15.53.38.74.62.85.97,1.68,1.96,2.52,2.93.15.17.32.32.49.47.05-.03.11-.06.16-.09-.15-.66-.31-1.32-.47-2.02.14,0,.24.02.38.03Zm-.58-4.1c-.07-1.35.05-2.7-.67-3.89-.2-.34-.42-.76-.74-.91-.85-.42-1.5-1.04-2.12-1.73-.27-.3-.63-.58-1-.72-.59-.22-1.21-.32-1.83-.44-.45-.09-.54.03-.4.46.42,1.37,1.12,2.56,2.26,3.47,1.51,1.22,3.32,2.09,4.5,3.75Zm-2.7,35.39c.29.21.54.36.75.55.12.1.27.29.25.41-.14.96.25,1.81.54,2.68.07.21.24.46.43.54,1.05.41,1.89,1.1,2.74,1.8.22.18.47.33.78.55-.02-.84-.31-1.42-.79-1.94-.22-.24-.33-.58-.48-.87.36-.02.71-.08,1.06-.06.27.01.53.13.83.21-.74-3.66-3.99-4.84-6.11-3.86Zm12.71,9.51c-.25.04-.4.03-.52.09-1.28.62-2.56,1.24-3.31,2.54-.37.64-.67,1.32-1.08,1.94-.38.56-.46,1.15-.41,1.79.05.71.54.94,1.16.57.37-.22.74-.52,1.14-.59.51-.09.88-.31,1.14-.72.3-.49.63-.99.82-1.52.35-1,.62-2.03.91-3.05.08-.3.1-.63.16-1.05Zm-10.31-54.44s.08.02.12.03c.09-.14.19-.28.26-.43.32-.74.62-1.49.93-2.23.47-1.11.63-2.25.49-3.45-.08-.69-.45-1.37-.15-2.09.02-.05-.05-.14-.09-.21-.14-.29-.26-.58-.41-.86-.06-.12-.16-.22-.25-.34-.12.09-.3.16-.36.28-.25.5-.48,1.02-.69,1.54-.16.38-.22.83-.44,1.17-1.07,1.64-.7,3.22.06,4.83.17-.05.3-.08.51-.14v1.92Zm5.06,57.73c.16-.19.24-.28.32-.37.57-.63,1.07-1.36,1.75-1.85.66-.48,1.02-.98,1.21-1.78.37-1.56.77-3.14,1.69-4.5.05-.07.06-.24.01-.3-.05-.06-.22-.1-.3-.06-.51.21-1.11.34-1.51.69-.77.66-1.46,1.42-2.11,2.2-.88,1.05-1.33,2.28-1.21,3.68.02.21.09.41.17.75.75-1.49,1.68-2.66,2.7-3.77-.84,1.76-2.4,3.15-2.72,5.32Zm-3.61-51.17c.13-.25.28-.49.39-.74.14-.32.21-.69.4-.98.83-1.24.98-2.64.99-4.07,0-.15-.03-.37-.13-.43-.4-.24-.38-.56-.3-.96.09-.42.1-.86.12-1.3,0-.17-.08-.35-.13-.54-.11.06-.15.08-.19.11-.05.04-.1.08-.14.13-1.66,2.04-2.25,4.38-1.98,6.96.03.25.07.65.21.71.5.21.48.67.75,1.09Zm-5.46,5.4c0,.24-.02.36,0,.46.36,1.28.72,2.57,1.09,3.85.19.66.63,1.03,1.3,1.22.99.27,1.89.74,2.61,1.5.09.1.22.16.33.23.04-.02.07-.04.11-.06-.06-.31-.1-.63-.2-.92-.59-1.72-1.68-3.16-2.8-4.54-.48-.59-1.16-1.01-1.77-1.48-.16-.13-.4-.15-.67-.25Zm9.42,38.86c1.55-.79,4.69-6.32,4.6-8.06-2.45.66-5.41,5.34-4.6,8.06Zm-7.41-56.3c.06,0,.11,0,.17,0,.3-.74.77-1.46.86-2.22.15-1.38.1-2.79.06-4.19-.02-.62-.18-1.24-.34-1.84-.13-.48-.43-.54-.64-.12-.45.87-1,1.75-1.14,2.69-.23,1.48-.05,2.99.5,4.42.17.43.36.84.54,1.26Zm11.09,66.9c-1.61-.18-2.6.38-3.1,1.33-.34.64-.72,1.26-1.07,1.89-.08.14-.17.29-.19.44-.24,1.59-.46,3.18-.69,4.77,0,.03-.02.07,0,.1.06.1.13.2.19.29.08-.07.2-.12.23-.21.15-.36.24-.74.4-1.09,1.1-2.44,2.36-4.8,3.9-6.99.11-.15.2-.32.34-.53Zm-9.54-57.14c.25-1.93-.2-3.55-1.36-4.94-.68-.82-1.57-1.37-2.67-1.62.36,1.38.73,2.74,1.3,4.01.31.69.93,1.27,1.48,1.82.31.31.78.47,1.25.73Zm-6.73-11.57c.07.15.08.2.12.23,1.02.85,1.71,1.87,1.86,3.23.02.14.17.32.3.4.92.53,1.85,1.03,2.78,1.54.17.09.35.17.59.28-.14-.63-.2-1.2-.38-1.72-.48-1.38-1.3-2.53-2.45-3.46-.86-.69-1.79-.56-2.82-.49Zm3.47-.05c-.06-.57-.13-1.01-.15-1.45-.03-.68-.38-1.14-.96-1.46-1.36-.73-2.81-1.1-4.34-1.17-.24-.01-.49.12-.74.18,0,.06,0,.12-.01.18.19.1.38.2.57.29.36.18.76.31,1.06.56.55.44,1.09.92,1.55,1.45.78.92,1.92.94,3.03,1.41Zm-1.23-6.98c.23-.67.21-1.38.05-2.04-.24-1.01-.6-2-.94-2.98-.08-.24-.32-.43-.49-.64-.1.26-.3.53-.3.78.02,1.09.08,2.19.17,3.28.08.92.52,1.37,1.5,1.6Zm.19,3.04l.15-.05c-.19-.48-.27-1.06-.59-1.42-1.05-1.22-2.32-2.19-3.83-2.81-.27-.11-.59-.17-.88.14,1.73,1.39,3.43,2.77,5.13,4.14Zm1.35-5.48c-1.15,1.6-.77,3.25-.36,4.96,1.16-1.01,1.32-3.44.36-4.96Zm-.84,41.43c0,.09-.04.19-.02.27.27,1.16.54,2.32.82,3.47.04.15.13.3.25.4.09.08.26.12.38.1.05,0,.1-.22.1-.33-.03-.93-.12-1.87-.11-2.8.01-.77-.59-1.18-1.42-1.11Zm7.1,18.52c.56,1.83,1.1,3.59,1.64,5.35.19-.09.26-.16.26-.22-.02-1.44-.06-2.88-.74-4.2-.23-.45-.59-.8-1.15-.93Zm-8.21-23.15c-.06.03-.11.05-.17.08.21.99.41,1.98.64,2.96.03.11.26.26.39.25.45-.03.9-.1,1.34-.18.1-.02.26-.14.26-.21,0-.12-.09-.34-.17-.35-.72-.14-.95-.78-1.33-1.26-.34-.42-.65-.86-.97-1.29Zm1.28-18.51c-.18-.65-.41-1.23-.51-1.84-.17-.97-.86-1.32-1.75-1.63.35.94.63,1.83,1.02,2.66.2.42.54.85,1.24.81Zm.76,20.45c.06-.03.12-.05.19-.08-.01-.18,0-.37-.04-.55-.13-.58-.27-1.16-.43-1.73-.19-.68-.96-1.05-1.74-.78.68,1.06,1.35,2.1,2.02,3.14Zm11.88,4.77c.8-.13.99-.29,1.04-.87.11-1.12.2-2.24.29-3.37.03-.34,0-.68,0-1.02-.06-.04-.13-.07-.19-.11-.03.09-.09.18-.09.27-.12,1.71-.36,3.4-1.06,5.1Zm.75,36.74c-1.49,1.07-2.3,2.49-3.01,3.98.74-.57,2.92-3.42,3.01-3.98Zm-5.76-13.93c.2,1.32.4,2.62.62,3.99.72-.79.29-3.29-.62-3.99Zm-5.56-9.46c.05-.02.11-.03.16-.05.13-.92-.16-1.77-.49-2.61-.04-.11-.23-.15-.35-.23-.06.03-.11.07-.17.1.28.93.56,1.86.84,2.78Zm-3.11-42.04c-.02-.28.03-.47-.04-.57-.11-.15-.3-.26-.47-.36-.04-.02-.19.07-.19.08.06.17.1.36.2.5.09.12.25.19.5.36Z"/><path d="m78.82,55.74c.01.18.05.37.04.54-.16,2.4-.36,4.8-.5,7.2-.12,2.09-.15,4.2-.3,6.29-.18,2.56-.43,5.11-.67,7.66-.03.31-.15.6-.32.89.73-7.52.5-15.1,1.62-22.58.04,0,.09,0,.13,0Z"/><path d="m55.14,40.65c-1.93-4.61-2.82-9.54-4.31-14.29.06-.03.13-.06.19-.08.16.32.37.63.47.98.5,1.7.95,3.41,1.46,5.11.61,2.02,1.29,4.01,1.9,6.03.22.72.31,1.47.46,2.2-.06.02-.12.03-.18.05Z"/><path d="m60.46,68.39c-.04.2-.06.34-.11.62-.24-.6-.38-1.1-.63-1.55-.51-.91-1.07-1.8-1.61-2.69-.03-.05-.08-.1-.13-.14-1.39-1.02-1.65-2.76-2.67-4.01.05-.04.1-.08.14-.12.09.09.2.16.28.26.39.45.78.9,1.15,1.37.14.17.26.38.32.59.3,1.04.95,1.86,1.67,2.62.14.15.4.19.63.3.34.62.68,1.33,1.1,1.99.52.83,1.15,1.6,1.65,2.44.26.43.32.98.39,1.5-.76-1.03-1.12-2.31-2.19-3.18Z"/><path d="m50.13,12.03c-.18-.17-.38-.33-.53-.52-.62-.83-1.21-1.67-1.82-2.5-.72-.97-1.45-1.93-2.16-2.9-.24-.33-.42-.69-.62-1.04.05-.05.11-.09.16-.14.2.16.41.3.59.47,1.38,1.33,2.37,2.96,3.4,4.56.33.51.62,1.05.92,1.59.07.13.11.28.17.41-.03.02-.07.05-.1.07Z"/><path d="m82.64,63.56c0-.91-.12-1.83.02-2.72.41-2.48.93-4.93,1.41-7.4.01-.05.06-.1.14-.23.04.16.08.24.07.32-.13,1.02-.27,2.04-.42,3.05-.11.79-.23,1.59-.37,2.38-.06.33-.14.66-.27.97-.18.43-.23.8-.11,1.31.15.66-.03,1.4-.09,2.11,0,.09-.14.17-.21.26-.06-.02-.11-.03-.17-.05Z"/><path d="m55.29,88.88c-.76-.34-4.75-9.45-4.63-10.49,1.54,3.5,3.09,7,4.63,10.49Z"/><path d="m79.66,38.88c.33.74-.18,11.25-.56,11.63.1-3.88.2-7.76.56-11.63Z"/><path d="m58.74,42.47c-.6-.72-2.45-8.05-2.13-8.72.1.21.21.36.26.53.63,2.37,1.25,4.73,1.86,7.1.09.34.11.71.16,1.06-.05,0-.1.02-.14.03Z"/><path d="m84.35,67.67c.25,1.27.17,2.48-.15,3.71-.2.75-.14,1.56-.2,2.35-.02.35-.01.71-.07,1.06-.02.14-.2.25-.31.37-.05-.14-.14-.27-.15-.41-.05-1.62.06-3.22.42-4.8.15-.67.22-1.36.34-2.04.01-.08.08-.16.12-.23Z"/><path d="m52.26,13.92c.21.43.42.83.61,1.23.03.07.03.2,0,.27-.45.88.06,1.64.31,2.43.16.51.44.99.63,1.5.22.6.41,1.21.61,1.82-.03.04-.07.08-.1.12-.14-.11-.35-.19-.41-.34-.51-1.27-1-2.54-1.49-3.82-.07-.19-.06-.41-.11-.61-.14-.52-.25-1.06-.45-1.56-.25-.63-.29-.62.4-1.03Z"/><path d="m58.53,35.34c-.05-.2-.12-.4-.16-.61-.39-1.9-.78-3.81-1.18-5.71-.07-.33-.21-.64-.33-.96-.13-.34-.08-.58.35-.68,1.03,2.54.97,5.28,1.52,7.9-.07.02-.14.03-.21.05Z"/><path d="m55.14,15.18c-.18-.82-.36-1.64-.52-2.47-.21-1.05-.4-2.11-.59-3.17-.05-.3-.05-.62-.08-.92l.24-.05c.1.25.25.49.3.75.3,1.76.58,3.53.86,5.29.03.18-.02.36-.03.55-.06,0-.11.01-.17.02Z"/><path d="m57.26,55.45c-.35-2.03-1.1-3.99-.71-6.14.06.25.12.49.16.74.19,1.12.19,2.28.75,3.32.04.08.02.19.02.28,0,.47,0,.95-.01,1.42,0,.12,0,.23,0,.35l-.22.03Z"/><path d="m64.31,96.38c.1.19.21.38.29.58.63,1.63,1.26,3.27,1.88,4.91.04.1,0,.24-.01.35-.13-.03-.28-.03-.37-.11-.1-.07-.16-.2-.2-.32-.56-1.58-1.12-3.15-1.66-4.73-.07-.2-.06-.43-.09-.64.05-.02.11-.03.16-.05Z"/><path d="m86.18,46.13l-1.54,5.78c-.3-.58.94-5.37,1.39-5.81.05.01.1.03.15.04Z"/><path d="m64.47,30.42c.29,1.51.62,3.02.71,4.64-.48-.31-1.04-4.09-.71-4.64Z"/><path d="m61.05,26.69c.5,1.71,1,3.42,1.5,5.13-.49-.18-1.69-4.17-1.67-5.09.06-.01.11-.03.17-.04Z"/><path d="m46.57,9.24c.3,1.18.6,2.37.9,3.55-.07.02-.14.04-.21.05-.46-1.14-.84-2.31-.93-3.55.08-.02.16-.04.23-.06Z"/><path d="m79.86,66.26c.05,1.29.07,2.59-.19,3.94-.29-.36-.14-3.32.19-3.94Z"/><path d="m62.22,83.67c-.44-1.42-.87-2.84-1.34-4.38.41.27,1.4,3.29,1.51,4.32-.06.02-.12.04-.17.06Z"/><path d="m85.1,45.41c-.17.85-.13,1.75-.65,2.51-.08.11-.28.14-.42.2-.02-.15-.12-.36-.06-.43.55-.57.53-1.36.81-2.03.05-.11.13-.21.19-.31l.14.05Z"/><path d="m54.67,59.82c-.59-.53-1.06-2.15-.75-2.91.33,1.03.63,1.94.92,2.86l-.17.05Z"/><path d="m77.02,54.03c.39,1.11.27,2.22.1,3.33-.14-1.11-.31-2.22-.1-3.33Z"/><path d="m77.22,61.7v3.4c-.05,0-.1,0-.15,0v-3.4c.05,0,.1,0,.15,0Z"/><path d="m48.9,54.93c-.15-.68-.3-1.37-.46-2.05.05-.02.1-.04.14-.06.28.47.62.92.82,1.42.07.18-.16.48-.26.72-.08-.01-.17-.02-.25-.03Z"/><path d="m79.87,35.53v-3.4c.38.53.29,2.96,0,3.4Z"/><path d="m77.3,60.59c-.41-.5-.39-2.24,0-2.68v2.68Z"/><path d="m83.5,77.18c.05.48.12.95.15,1.43,0,.1-.15.21-.23.32-.1-.11-.29-.22-.29-.32,0-.47.07-.94.11-1.41.09,0,.17,0,.26-.01Z"/><path d="m65.22,36.13c.21.9.45,1.79.27,2.73-.33-.88-.32-1.8-.27-2.73Z"/><path d="m56.21,48.54c-.13-.76-.27-1.52-.4-2.28.48.29.74,1.59.58,2.24-.06.01-.12.02-.18.04Z"/><path d="m82.53,90.51c-.03,1.04.1,2.09-.1,3.13-.08,0-.15,0-.23,0l.15-3.12c.06,0,.11,0,.17,0Z"/><path d="m61.3,86.78c.41,1.13.82,2.25,1.23,3.38-.07.02-.13.05-.2.07-.4-1.13-.81-2.26-1.21-3.39.06-.02.12-.04.18-.06Z"/><path d="m60.39,76.43c.22.84.44,1.67.66,2.51-.08.02-.17.04-.25.07-.22-.84-.43-1.67-.65-2.51.08-.02.16-.04.24-.06Z"/><path d="m55.87,84.23c.25.8.51,1.6.76,2.4l-.17.05c-.45-.74-.69-1.55-.74-2.41.05-.02.1-.03.15-.05Z"/><path d="m53.33,51.92c-1.16-.11-.94-.97-1.02-1.66.33.53.65,1.06,1.02,1.66Z"/><path d="m60.83,71.27c-.2-.66-.4-1.33-.63-2.11.53.29.88,1.46.63,2.11Z"/><path d="m67.08,37.76c-.06-.84-.11-1.68-.17-2.53l.2-.02c.07.84.15,1.68.22,2.52-.09,0-.17.01-.26.02Z"/><path d="m75.71,28.64c.07-.73.15-1.46.22-2.19.08,0,.16.01.24.02-.06.73-.13,1.47-.19,2.2-.09-.01-.18-.02-.27-.04Z"/><path d="m56.92,81.58c.19.58.37,1.15.59,1.84-.56-.28-.86-1.14-.76-1.8.06-.02.11-.03.17-.05Z"/><path d="m58.38,76.1c.35.65.52,1.35.54,2.09-.06.02-.12.03-.18.05-.18-.7-.36-1.39-.53-2.09.06-.01.11-.03.17-.04Z"/><path d="m72.91,30.28c-.37-.61-.59-1.26-.59-1.99.06-.02.12-.04.18-.05.19.66.38,1.33.56,1.99-.05.02-.1.03-.15.05Z"/><path d="m79.82,36.49c.12.64.18,1.26-.12,1.87-.14-.63-.19-1.26.12-1.87Z"/><path d="m57.91,59.03c.35.68.64,1.25.95,1.84-.47-.01-.94-.88-.95-1.84Z"/><path d="m79.26,50.92c-.03.55-.06,1.11-.09,1.66-.4-.35-.34-1.17.09-1.66Z"/><path d="m54.59,47.7c.2.42.39.84.63,1.36-.65-.22-.92-.77-.63-1.36Z"/><path d="m81.89,38.76c-.05.84-.09,1.67-.14,2.51-.03,0-.05,0-.08,0v-2.51c.07,0,.14,0,.21,0Z"/><path d="m62.72,33.8c-.13-.53-.26-1.06-.39-1.59.08-.02.17-.04.25-.06.13.53.25,1.06.38,1.59-.08.02-.16.04-.24.06Z"/><path d="m66.96,33.14c.03.49.07.99.11,1.58-.44-.4-.52-1.15-.11-1.58Z"/><path d="m57.6,55.93l.25,1.47c-.07.01-.14.03-.22.04-.1-.49-.21-.98-.31-1.47.09-.02.18-.03.27-.05Z"/><path d="m62.22,16.54c.41.3.5.64.15,1.12-.1-.36-.2-.72-.29-1.08.05-.01.1-.03.14-.04Z"/><path d="m59.79,104.07l-.91-1.7.17-.09c.3.56.61,1.12.91,1.68-.06.04-.11.07-.17.11Z"/><path d="m76.78,68.63l.1-1.67s.08,0,.11,0v1.67c-.07,0-.14,0-.21,0Z"/><path d="m54.66,72.39c.18.47.35.93.53,1.4l-.21.08c-.18-.46-.36-.93-.54-1.39.07-.03.15-.06.22-.09Z"/><path d="m82.73,87.05c-.04.55-.08,1.1-.12,1.65-.06,0-.12,0-.18-.01.04-.55.07-1.1.11-1.65.06,0,.13,0,.19.01Z"/><path d="m71.08,49.01c-.03.48-.07.96-.1,1.44-.08,0-.15,0-.23-.01l.11-1.44c.07,0,.15.01.22.02Z"/><path d="m47.67,13.72c.1.43.2.85.29,1.28-.07.02-.15.04-.22.05l-.29-1.28c.08-.02.15-.04.23-.05Z"/><path d="m54.81,81.71c-.14-.43-.27-.86-.41-1.29.07-.02.13-.04.2-.07.14.43.28.86.42,1.29-.07.02-.14.04-.21.06Z"/><path d="m55.76,56.26c-.13-.28-.25-.57-.41-.92.55.07.66.27.57.84-.06.02-.11.05-.17.07Z"/><path d="m59.21,22.17c-.13-.34-.25-.68-.38-1.02.06-.02.12-.04.19-.07.3.28.41.62.34,1.03-.05.02-.1.03-.15.05Z"/><path d="m62.11,15.2c.09.32.17.65.26.97-.07.02-.14.05-.22.07-.11-.32-.23-.63-.34-.95.1-.03.2-.06.3-.1Z"/><path d="m55.52,74.94c.14.38.28.75.42,1.13-.05.02-.11.04-.16.07-.16-.37-.31-.74-.47-1.11.07-.03.14-.06.21-.09Z"/><path d="m66.62,29.03v.92c-.06,0-.12,0-.17.01-.02-.31-.04-.61-.06-.92.08,0,.15,0,.23-.01Z"/><path d="m67.44,40.15c-.05-.39-.11-.77-.16-1.16.07-.01.14-.02.21-.03.05.39.1.77.16,1.16-.07,0-.14.02-.2.03Z"/><path d="m74.21,41.48c-.02.32-.03.64-.05.95-.06,0-.13,0-.19,0v-.95h.24Z"/><path d="m74.45,31.05v1.38s-.07,0-.1,0c-.03-.46-.05-.92-.08-1.38.06,0,.12,0,.17,0Z"/><path d="m55.47,83.79c-.12-.37-.23-.73-.35-1.1.06-.02.13-.04.19-.06.12.37.23.73.35,1.1-.06.02-.12.04-.19.06Z"/><path d="m64.16,29.91v-.99c.21.34.37.64,0,.99Z"/><path d="m76.36,100.53c.22-.48.43-.96.65-1.45.05.02.1.04.15.06-.2.49-.41.99-.61,1.48-.06-.03-.12-.07-.18-.1Z"/></svg>