<?xml version="1.0" encoding="UTF-8"?><svg id="Layer_1" xmlns="http://www.w3.org/2000/svg" viewBox="0 0 144.57 144.57"><path d="m105.13,71.56h.94l2.97,4.81h.02v-4.81h.99v6.77h-.94l-2.96-4.81h-.02v4.81h-.99v-6.77Z" fill="#010101"/><path d="m115.22,75.37h-2.6v2.96h-.99v-6.77h.99v2.9h2.6v-2.9h.99v6.77h-.99v-2.96Z" fill="#010101"/><path d="m117.28,77.78l1.54-1.99c.06-.08.1-.15.12-.22.01-.06.02-.13.02-.18,0-.15-.05-.29-.14-.4-.1-.11-.23-.17-.41-.18-.16,0-.28.05-.39.15-.11.1-.17.25-.19.43h-.56c.01-.34.12-.62.33-.84.21-.22.46-.32.77-.33.34,0,.61.12.82.33.21.22.32.49.33.83,0,.27-.08.51-.24.71l-1.27,1.64h1.51v.58h-2.25v-.55Z" fill="#010101"/><path d="m47.41,104.38h.94l2.97,4.81h.02v-4.81h.99v6.77h-.94l-2.96-4.81h-.02v4.81h-.99v-6.77Z" fill="#010101"/><path d="m87.54,38.87c0-.79.02-1.31.07-1.58.05-.27.12-.48.22-.65.16-.31.41-.59.76-.83.34-.25.77-.37,1.29-.38.52,0,.96.13,1.3.38.34.24.59.52.75.84.11.16.19.38.23.65.04.27.06.79.06,1.58s-.02,1.3-.06,1.57c-.04.27-.12.49-.23.65-.15.31-.4.59-.75.83-.35.25-.78.38-1.3.39-.52-.01-.95-.14-1.29-.39-.35-.24-.61-.51-.76-.83-.05-.1-.09-.2-.13-.29-.04-.1-.07-.22-.09-.36-.05-.27-.07-.8-.07-1.57Zm.99,0c0,.67.02,1.12.07,1.35.04.24.13.43.26.57.11.14.24.25.41.34.17.1.37.15.6.15s.44-.05.62-.15c.16-.09.3-.2.4-.34.13-.15.22-.34.27-.57.05-.24.07-.69.07-1.35s-.02-1.12-.07-1.36c-.05-.23-.14-.42-.27-.56-.1-.14-.23-.26-.4-.35-.17-.09-.38-.14-.62-.14-.23,0-.44.05-.6.14-.17.09-.31.21-.41.35-.13.15-.21.33-.26.56-.05.24-.07.7-.07,1.36Z" fill="#010101"/><path d="m56.14,103.8c-.16-.28-.31-.54-.48-.83,1.12-.65,2.22-1.28,3.31-1.92,3.27-1.89,6.55-3.79,9.83-5.68.28-.16.36-.34.36-.65,0-7.07,0-14.14,0-21.22,0-.34-.11-.51-.4-.68-6.08-3.5-12.16-7.01-18.24-10.53-.39-.22-.67-.22-1.05,0-6.09,3.52-12.18,7.03-18.28,10.54-.27.16-.37.33-.37.65,0,7.07,0,14.14,0,21.22,0,.33.1.51.39.68,4.24,2.44,8.48,4.89,12.72,7.33.14.08.27.17.41.26-.17.28-.32.54-.5.83-.67-.38-1.32-.75-1.97-1.12-3.89-2.24-7.79-4.48-11.68-6.71-.26-.15-.36-.3-.36-.6,0-7.49,0-14.98,0-22.48,0-.29.07-.46.34-.61,6.45-3.71,12.89-7.42,19.32-11.15.38-.22.64-.2,1,.01,6.26,3.63,12.52,7.25,18.78,10.87.25.15.43.16.69.01,5.58-3.24,11.17-6.46,16.77-9.68.3-.17.37-.37.37-.69,0-5.15,0-10.3,0-15.45,0-.18,0-.37,0-.57h.97v15.9c.35-.2.63-.34.89-.51.22-.15.4-.16.62,0,.26.18.54.32.89.52v-15.9h1c0,.16,0,.33,0,.49,0,5.18,0,10.36,0,15.53,0,.35.12.53.41.7,3.64,2.1,7.27,4.21,10.91,6.31.15.09.29.18.46.29-.16.28-.31.53-.48.83-.51-.29-1.01-.57-1.5-.86-3.84-2.22-7.68-4.44-11.51-6.67-.36-.21-.61-.21-.97,0-6.08,3.53-12.18,7.04-18.27,10.55-.3.17-.41.36-.4.71.01,7.26,0,14.52.02,21.78,0,.33-.1.51-.39.67-4.43,2.53-8.84,5.07-13.27,7.61-.11.06-.23.12-.36.19Z"/><path d="m34.23,93.48h-.96v-18.69h.96v18.69Z"/><path d="m49.73,65.8c.18-.32.33-.58.5-.87,5.43,3.13,10.84,6.24,16.28,9.38-.17.3-.33.57-.5.87-5.43-3.13-10.85-6.25-16.29-9.38Z"/><path d="m54.46,100.88c-.17-.29-.32-.55-.5-.85,4.02-2.32,8.03-4.63,12.06-6.95.18.3.33.56.5.84-4.02,2.32-8.02,4.63-12.05,6.96Z"/></svg>