<?xml version="1.0" encoding="UTF-8"?><svg id="Layer_1" xmlns="http://www.w3.org/2000/svg" viewBox="0 0 144.57 144.57"><path d="m33.95,36.17l-1.58,1.2v-1.75l1.58-1.18h1.59v11.5h-1.59v-9.76Z" fill="#1d1d1b"/><path d="m39.16,44.39l4.36-5.63c.17-.23.28-.44.34-.63.04-.18.06-.36.06-.52,0-.43-.13-.81-.39-1.13-.27-.32-.65-.49-1.15-.5-.44,0-.8.14-1.1.43-.3.29-.48.7-.54,1.23h-1.59c.04-.96.35-1.75.93-2.37.59-.61,1.31-.92,2.17-.93.96.01,1.74.33,2.33.95.61.62.92,1.4.93,2.34,0,.76-.22,1.43-.67,2.02l-3.59,4.64h4.26v1.64h-6.36v-1.55Z" fill="#1d1d1b"/><path d="m37.39,22.89h44.15c22.08,0,40.01,17.93,40.01,40.01v44.15c0,8.62-7,15.61-15.61,15.61H37.39c-8.62,0-15.61-7-15.61-15.61V38.5c0-8.62,7-15.61,15.61-15.61Z" fill="none" stroke="#000" stroke-miterlimit="10"/><path d="m45.07,52.82h4.62l9.29,21.81,9.12-21.81h4.64v33.46h-4.91v-20.87h-.11l-6.78,16.07h-4.09l-6.78-16.07h-.09v20.87h-4.91v-33.46Z" fill="#1d1d1b"/><path d="m92.9,83.84c-1.49,1.74-3.43,2.64-5.83,2.7-1.46-.03-2.68-.35-3.65-.97-1.01-.58-1.79-1.21-2.33-1.89-.59-.76-1.02-1.7-1.28-2.81-.28-1.09-.41-3.18-.41-6.25s.14-5.25.41-6.36c.26-1.09.69-2.01,1.28-2.76.54-.73,1.31-1.38,2.33-1.97.97-.55,2.19-.84,3.65-.87,2.25,0,4.19.92,5.83,2.76v-2.47h4.53v22.75c-.06,3.5-1.04,6.08-2.93,7.73-1.91,1.69-4.2,2.54-6.87,2.54-3.06-.06-5.66-1.36-7.82-3.9l3.52-2.89c.58.56,1.25,1.03,2,1.42.77.44,1.57.67,2.39.7,1.55,0,2.8-.44,3.74-1.33.93-.9,1.41-2.15,1.43-3.75v-2.39Zm-8.97-9.2c0,1.79.06,3.02.17,3.7.1.71.34,1.29.72,1.76.3.42.77.8,1.39,1.15.59.42,1.33.63,2.22.63s1.62-.21,2.22-.63c.59-.35,1.04-.73,1.35-1.15.38-.47.63-1.05.76-1.76.09-.68.13-1.91.13-3.7s-.04-3.08-.13-3.79c-.13-.71-.38-1.28-.76-1.71-.3-.42-.75-.83-1.35-1.24-.6-.34-1.33-.53-2.22-.56-.89.03-1.63.22-2.22.56-.62.41-1.09.82-1.39,1.24-.38.44-.62,1.01-.72,1.71-.12.71-.17,1.97-.17,3.79Z" fill="#1d1d1b"/><path d="m61.93,112.66l2.04-2.63c.08-.11.13-.21.16-.3.02-.09.03-.17.03-.24,0-.2-.06-.38-.18-.53-.13-.15-.31-.23-.54-.23-.21,0-.38.07-.51.2-.14.14-.22.33-.25.57h-.74c.02-.45.17-.82.44-1.11.27-.29.61-.43,1.01-.43.45,0,.81.15,1.09.44.28.29.43.65.43,1.1,0,.35-.1.67-.31.94l-1.68,2.17h1.99v.77h-2.97v-.72Z" fill="#1d1d1b"/><path d="m65.41,111.86l1.74-3.85h.83l-1.76,3.85h1.36v-1.55h.74v1.55h.42v.72h-.42v.8h-.74v-.8h-2.17v-.72Z" fill="#1d1d1b"/><path d="m69.45,112.62h.74v.77h-.74v-.77Z" fill="#1d1d1b"/><path d="m72.04,110.28h.26c.25,0,.45-.07.59-.22.14-.14.21-.32.21-.55,0-.23-.08-.41-.22-.56-.14-.14-.32-.21-.54-.22-.16,0-.3.05-.44.16-.14.11-.23.27-.28.49h-.75c.04-.4.19-.73.47-1.01s.59-.41.96-.41c.47,0,.85.16,1.13.47.27.3.4.65.41,1.06,0,.21-.04.41-.11.6-.09.19-.24.36-.46.51.23.15.39.33.49.53.1.21.14.42.14.65,0,.5-.16.9-.45,1.19-.29.3-.67.45-1.13.45-.35,0-.67-.12-.94-.35s-.45-.58-.53-1.02h.75c.07.18.16.33.28.44.12.12.29.17.49.17.22,0,.4-.08.55-.23.15-.14.23-.35.24-.62,0-.27-.08-.49-.24-.64-.15-.15-.34-.22-.57-.22h-.32v-.68Z" fill="#1d1d1b"/><path d="m74.66,109.51c0-.5.16-.88.46-1.14.28-.27.62-.4,1.02-.4s.75.13,1.03.4c.29.27.44.65.45,1.15v2.37c0,.49-.16.88-.45,1.14-.28.27-.63.4-1.03.41-.39,0-.73-.14-1.02-.41-.3-.27-.46-.65-.46-1.14v-2.38Zm2.21.05c-.01-.54-.26-.81-.74-.82-.48,0-.72.28-.73.82v2.28c0,.54.25.82.73.82.48,0,.72-.28.74-.82v-2.28Z" fill="#1d1d1b"/><path d="m78.37,108.01h2.78v.77h-2.08v1.23c.24-.2.52-.3.83-.3.2,0,.38.04.55.11.16.08.29.17.38.28.15.15.25.32.31.51.03.11.06.24.07.39.01.15.02.34.02.57,0,.35-.02.62-.07.8-.05.18-.13.35-.25.49-.1.14-.25.27-.45.38-.19.12-.42.18-.68.19-.35,0-.67-.11-.97-.32-.3-.22-.48-.58-.55-1.07h.75c.08.41.33.62.75.63.18,0,.32-.04.43-.11.1-.07.17-.17.21-.28.04-.12.07-.24.08-.38,0-.13,0-.26,0-.39,0-.31-.04-.56-.14-.75-.05-.09-.13-.16-.23-.22-.1-.04-.23-.07-.38-.07-.14,0-.26.03-.37.1-.11.07-.21.18-.3.35h-.7v-2.91Z" fill="#1d1d1b"/><path d="m45.96,97.04h1.06l2.13,4.99,2.09-4.99h1.06v7.66h-1.12v-4.78h-.03l-1.55,3.68h-.94l-1.55-3.68h-.02v4.78h-1.12v-7.66Z" fill="#1d1d1b"/><path d="m56.8,104.21h-.02c-.1.19-.25.32-.46.41-.2.09-.49.14-.84.14-.59,0-1.04-.17-1.36-.48-.34-.31-.5-.7-.5-1.18s.15-.84.44-1.14c.29-.31.72-.47,1.28-.47h1.47v-.58c0-.48-.35-.72-1.08-.7-.26,0-.47.03-.63.08-.16.07-.29.18-.38.34l-.83-.66c.4-.54,1-.81,1.78-.79.66,0,1.2.12,1.59.39.4.27.6.74.6,1.41v3.72h-1.06v-.48Zm0-1.83h-1.27c-.62.01-.92.23-.92.66,0,.19.08.34.24.47.15.14.41.21.76.21.45,0,.76-.05.94-.16.17-.12.25-.38.25-.79v-.39Z" fill="#1d1d1b"/><path d="m62.37,104.12c-.35.41-.8.62-1.36.63-.34,0-.63-.08-.85-.23-.24-.14-.42-.28-.54-.44-.14-.18-.24-.4-.3-.66-.06-.26-.1-.74-.1-1.46s.03-1.23.1-1.49c.06-.26.16-.47.3-.65.12-.17.31-.32.54-.46.23-.13.51-.2.85-.2.53,0,.98.22,1.36.65v-.58h1.06v5.32c-.01.82-.24,1.42-.69,1.81-.45.4-.98.59-1.61.59-.71-.01-1.32-.32-1.83-.91l.82-.68c.14.13.29.24.47.33.18.1.37.16.56.16.36,0,.65-.1.88-.31.22-.21.33-.5.34-.88v-.56Zm-2.1-2.15c0,.42.01.71.04.86.02.17.08.3.17.41.07.1.18.19.33.27.14.1.31.15.52.15s.38-.05.52-.15c.14-.08.24-.17.32-.27.09-.11.15-.25.18-.41.02-.16.03-.45.03-.86s-.01-.72-.03-.89c-.03-.17-.09-.3-.18-.4-.07-.1-.18-.2-.32-.29-.14-.08-.31-.12-.52-.13-.21,0-.38.05-.52.13-.15.09-.25.19-.33.29-.09.1-.14.24-.17.4-.03.17-.04.46-.04.89Z" fill="#1d1d1b"/><path d="m64.99,99.24h1.06v.58h.02c.35-.43.81-.65,1.37-.65.44,0,.84.16,1.2.48.36.32.55.79.56,1.42v3.62h-1.06v-3.25c0-.38-.1-.67-.29-.87-.19-.2-.44-.31-.75-.31s-.56.1-.75.31c-.2.2-.3.49-.3.87v3.25h-1.06v-5.45Z" fill="#1d1d1b"/><path d="m71.56,102.38c0,.44.12.77.37,1,.23.23.53.35.9.35.43,0,.82-.18,1.16-.53l.77.68c-.54.59-1.17.89-1.9.88-.28,0-.55-.04-.81-.13-.13-.04-.26-.11-.39-.18-.13-.07-.26-.15-.37-.25-.22-.2-.41-.49-.54-.85-.15-.35-.23-.81-.23-1.37s.07-.99.2-1.34c.13-.36.3-.65.51-.86.21-.21.45-.37.71-.46.26-.09.51-.14.76-.14.6,0,1.11.21,1.53.62.42.41.64.97.65,1.69v.9h-3.29Zm2.23-.9c-.01-.43-.12-.75-.33-.97-.2-.21-.47-.31-.79-.31s-.58.1-.79.31c-.2.22-.31.54-.33.97h2.23Z" fill="#1d1d1b"/><path d="m76.3,103.03c.43.47.99.7,1.67.7.31,0,.56-.06.75-.18.19-.12.29-.29.29-.51,0-.2-.06-.33-.17-.41-.12-.08-.28-.12-.47-.13l-.94-.08c-.45-.04-.81-.2-1.09-.46-.29-.26-.43-.62-.44-1.09,0-.56.2-.98.58-1.26.37-.28.83-.42,1.4-.42.24,0,.46.02.66.05.19.04.38.08.54.15.33.14.62.32.88.55l-.66.79c-.2-.15-.42-.28-.65-.38-.22-.09-.48-.13-.78-.13-.33,0-.57.06-.7.18-.14.12-.21.28-.21.47,0,.12.05.23.16.32.1.1.28.17.54.19l.88.07c.55.04.95.21,1.19.52.23.29.34.67.34,1.12,0,.53-.22.94-.63,1.23-.41.29-.93.45-1.56.45-.86,0-1.64-.33-2.33-.98l.74-.75Z" fill="#1d1d1b"/><path d="m81.34,97.04h1.06v1.09h-1.06v-1.09Zm0,2.21h1.06v5.45h-1.06v-5.45Z" fill="#1d1d1b"/><path d="m83.89,99.24h1.06v3.25c0,.37.1.66.3.86.2.21.45.31.75.31s.55-.1.75-.31c.2-.21.29-.49.29-.86v-3.25h1.06v5.45h-1.06v-.58h-.02c-.35.43-.8.65-1.37.65-.44,0-.83-.17-1.18-.49-.38-.32-.58-.78-.58-1.4v-3.63Z" fill="#1d1d1b"/><path d="m89.62,99.24h1.06v.58h.02c.36-.43.83-.65,1.42-.65.38,0,.68.07.91.19.23.14.44.31.62.52.43-.48,1-.72,1.72-.71.45,0,.87.16,1.24.48.37.32.56.79.58,1.42v3.62h-1.06v-3.25c0-.38-.1-.67-.3-.87-.2-.2-.46-.31-.79-.31s-.58.1-.79.31c-.21.2-.32.49-.32.87v3.25h-1.06v-3.25c0-.38-.1-.67-.3-.87-.21-.2-.47-.31-.79-.31s-.58.1-.79.31c-.21.2-.32.49-.32.87v3.25h-1.06v-5.45Z" fill="#1d1d1b"/></svg>