<?xml version="1.0" encoding="UTF-8"?><svg id="Layer_1" xmlns="http://www.w3.org/2000/svg" viewBox="0 0 144.57 144.57"><path d="m42.55,24.43h12.5c2.22,0,4.02,1.8,4.02,4.02v12.5c0,2.22-1.8,4.02-4.02,4.02h-12.5c-2.22,0-4.02-1.8-4.02-4.02v-12.5c0-2.22,1.8-4.02,4.02-4.02Z" fill="#fff"/><path d="m55.05,24.53c2.16,0,3.92,1.76,3.92,3.92v12.5c0,2.16-1.76,3.92-3.92,3.92h-12.5c-2.16,0-3.92-1.76-3.92-3.92v-12.5c0-2.16,1.76-3.92,3.92-3.92h12.5m0-.2h-12.5c-2.28,0-4.12,1.85-4.12,4.12v12.5c0,2.28,1.85,4.12,4.12,4.12h12.5c2.28,0,4.12-1.85,4.12-4.12v-12.5c0-2.28-1.85-4.12-4.12-4.12h0Z" fill="#010101"/><path d="m67.69,24.43h12.5c2.22,0,4.02,1.8,4.02,4.02v12.5c0,2.22-1.8,4.02-4.02,4.02h-12.5c-2.22,0-4.02-1.8-4.02-4.02v-12.5c0-2.22,1.8-4.02,4.02-4.02Z" fill="#fff"/><path d="m80.19,24.53c2.16,0,3.92,1.76,3.92,3.92v12.5c0,2.16-1.76,3.92-3.92,3.92h-12.5c-2.16,0-3.92-1.76-3.92-3.92v-12.5c0-2.16,1.76-3.92,3.92-3.92h12.5m0-.2h-12.5c-2.28,0-4.12,1.85-4.12,4.12v12.5c0,2.28,1.85,4.12,4.12,4.12h12.5c2.28,0,4.12-1.85,4.12-4.12v-12.5c0-2.28-1.85-4.12-4.12-4.12h0Z" fill="#010101"/><path d="m92.84,24.43h12.5c2.22,0,4.02,1.8,4.02,4.02v12.5c0,2.22-1.8,4.02-4.02,4.02h-12.5c-2.22,0-4.02-1.8-4.02-4.02v-12.5c0-2.22,1.8-4.02,4.02-4.02Z" fill="#fff"/><path d="m105.34,24.53c2.16,0,3.92,1.76,3.92,3.92v12.5c0,2.16-1.76,3.92-3.92,3.92h-12.5c-2.16,0-3.92-1.76-3.92-3.92v-12.5c0-2.16,1.76-3.92,3.92-3.92h12.5m0-.2h-12.5c-2.28,0-4.12,1.85-4.12,4.12v12.5c0,2.28,1.85,4.12,4.12,4.12h12.5c2.28,0,4.12-1.85,4.12-4.12v-12.5c0-2.28-1.85-4.12-4.12-4.12h0Z" fill="#010101"/><rect x="63.67" y="49.57" width="20.55" height="20.55" rx="4.02" ry="4.02" fill="#fff"/><path d="m80.19,49.68c2.16,0,3.92,1.76,3.92,3.92v12.5c0,2.16-1.76,3.92-3.92,3.92h-12.5c-2.16,0-3.92-1.76-3.92-3.92v-12.5c0-2.16,1.76-3.92,3.92-3.92h12.5m0-.2h-12.5c-2.28,0-4.12,1.85-4.12,4.12v12.5c0,2.28,1.85,4.12,4.12,4.12h12.5c2.28,0,4.12-1.85,4.12-4.12v-12.5c0-2.28-1.85-4.12-4.12-4.12h0Z" fill="#010101"/><path d="m92.84,49.57h12.5c2.22,0,4.02,1.8,4.02,4.02v12.5c0,2.22-1.8,4.02-4.02,4.02h-12.5c-2.22,0-4.02-1.8-4.02-4.02v-12.5c0-2.22,1.8-4.02,4.02-4.02Z" fill="#fff"/><path d="m105.34,49.68c2.16,0,3.92,1.76,3.92,3.92v12.5c0,2.16-1.76,3.92-3.92,3.92h-12.5c-2.16,0-3.92-1.76-3.92-3.92v-12.5c0-2.16,1.76-3.92,3.92-3.92h12.5m0-.2h-12.5c-2.28,0-4.12,1.85-4.12,4.12v12.5c0,2.28,1.85,4.12,4.12,4.12h12.5c2.28,0,4.12-1.85,4.12-4.12v-12.5c0-2.28-1.85-4.12-4.12-4.12h0Z" fill="#010101"/><path d="m42.55,74.72h12.5c2.22,0,4.02,1.8,4.02,4.02v12.5c0,2.22-1.8,4.02-4.02,4.02h-12.5c-2.22,0-4.02-1.8-4.02-4.02v-12.5c0-2.22,1.8-4.02,4.02-4.02Z" fill="#fff"/><path d="m55.05,74.82c2.16,0,3.92,1.76,3.92,3.92v12.5c0,2.16-1.76,3.92-3.92,3.92h-12.5c-2.16,0-3.92-1.76-3.92-3.92v-12.5c0-2.16,1.76-3.92,3.92-3.92h12.5m0-.2h-12.5c-2.28,0-4.12,1.85-4.12,4.12v12.5c0,2.28,1.85,4.12,4.12,4.12h12.5c2.28,0,4.12-1.85,4.12-4.12v-12.5c0-2.28-1.85-4.12-4.12-4.12h0Z" fill="#010101"/><path d="m67.69,74.72h12.5c2.22,0,4.02,1.8,4.02,4.02v12.5c0,2.22-1.8,4.02-4.02,4.02h-12.5c-2.22,0-4.02-1.8-4.02-4.02v-12.5c0-2.22,1.8-4.02,4.02-4.02Z" fill="#fff"/><path d="m80.19,74.82c2.16,0,3.92,1.76,3.92,3.92v12.5c0,2.16-1.76,3.92-3.92,3.92h-12.5c-2.16,0-3.92-1.76-3.92-3.92v-12.5c0-2.16,1.76-3.92,3.92-3.92h12.5m0-.2h-12.5c-2.28,0-4.12,1.85-4.12,4.12v12.5c0,2.28,1.85,4.12,4.12,4.12h12.5c2.28,0,4.12-1.85,4.12-4.12v-12.5c0-2.28-1.85-4.12-4.12-4.12h0Z" fill="#010101"/><path d="m92.84,74.72h12.5c2.22,0,4.02,1.8,4.02,4.02v12.5c0,2.22-1.8,4.02-4.02,4.02h-12.5c-2.22,0-4.02-1.8-4.02-4.02v-12.5c0-2.22,1.8-4.02,4.02-4.02Z" fill="#fff"/><path d="m105.34,74.82c2.16,0,3.92,1.76,3.92,3.92v12.5c0,2.16-1.76,3.92-3.92,3.92h-12.5c-2.16,0-3.92-1.76-3.92-3.92v-12.5c0-2.16,1.76-3.92,3.92-3.92h12.5m0-.2h-12.5c-2.28,0-4.12,1.85-4.12,4.12v12.5c0,2.28,1.85,4.12,4.12,4.12h12.5c2.28,0,4.12-1.85,4.12-4.12v-12.5c0-2.28-1.85-4.12-4.12-4.12h0Z" fill="#010101"/><rect x="63.67" y="99.86" width="20.55" height="20.55" rx="4.02" ry="4.02" fill="#fff"/><path d="m80.19,99.96c2.16,0,3.92,1.76,3.92,3.92v12.5c0,2.16-1.76,3.92-3.92,3.92h-12.5c-2.16,0-3.92-1.76-3.92-3.92v-12.5c0-2.16,1.76-3.92,3.92-3.92h12.5m0-.2h-12.5c-2.28,0-4.12,1.85-4.12,4.12v12.5c0,2.28,1.85,4.12,4.12,4.12h12.5c2.28,0,4.12-1.85,4.12-4.12v-12.5c0-2.28-1.85-4.12-4.12-4.12h0Z" fill="#010101"/><path d="m92.84,99.86h12.5c2.22,0,4.02,1.8,4.02,4.02v12.5c0,2.22-1.8,4.02-4.02,4.02h-12.5c-2.22,0-4.02-1.8-4.02-4.02v-12.5c0-2.22,1.8-4.02,4.02-4.02Z" fill="#fff"/><path d="m105.34,99.96c2.16,0,3.92,1.76,3.92,3.92v12.5c0,2.16-1.76,3.92-3.92,3.92h-12.5c-2.16,0-3.92-1.76-3.92-3.92v-12.5c0-2.16,1.76-3.92,3.92-3.92h12.5m0-.2h-12.5c-2.28,0-4.12,1.85-4.12,4.12v12.5c0,2.28,1.85,4.12,4.12,4.12h12.5c2.28,0,4.12-1.85,4.12-4.12v-12.5c0-2.28-1.85-4.12-4.12-4.12h0Z" fill="#010101"/><path d="m43.78,31.45h.83l2.64,4.28h.02v-4.28h.88v6.02h-.84l-2.64-4.28h-.02v4.28h-.88v-6.02Z" fill="#1e1e1c"/><path d="m51.67,37.09h-.02c-.08.15-.2.25-.36.32-.16.07-.38.11-.66.11-.46,0-.82-.13-1.07-.38-.26-.24-.4-.55-.4-.93s.12-.66.34-.9c.23-.24.57-.37,1.01-.37h1.16v-.45c0-.38-.28-.56-.85-.55-.21,0-.37.02-.49.07-.13.05-.22.14-.3.27l-.66-.52c.32-.43.78-.64,1.4-.62.52,0,.94.1,1.25.31.31.21.47.58.48,1.11v2.93h-.83v-.38Zm0-1.44h-1c-.49.01-.73.18-.72.52,0,.15.06.27.19.37.12.11.32.17.6.17.35,0,.6-.04.74-.13.13-.09.2-.3.2-.62v-.31Z" fill="#1e1e1c"/><path d="m53.56,32.04h.36v1.01h.98v.37h-.98v1.01h-.36v-1.01h-.98v-.37h.98v-1.01Z" fill="#010101"/><path d="m42.81,86.56c.46.39,1.02.59,1.66.6.76-.01,1.14-.29,1.15-.84,0-.45-.25-.72-.76-.81-.23-.03-.49-.07-.77-.11-.5-.08-.88-.28-1.14-.57-.27-.31-.4-.68-.4-1.12,0-.53.17-.95.51-1.27.33-.32.79-.48,1.39-.49.72.02,1.35.22,1.89.62l-.49.75c-.44-.3-.92-.45-1.44-.46-.27,0-.5.07-.68.21-.19.15-.29.36-.29.65,0,.17.07.33.2.47.13.14.34.24.63.3.16.03.38.06.66.1.55.08.95.28,1.21.61.26.32.39.7.39,1.12-.03,1.15-.71,1.74-2.05,1.75-.86,0-1.6-.27-2.23-.82l.58-.69Z" fill="#1e1e1c"/><path d="m47.39,85.01c0-.7.02-1.17.06-1.41.04-.24.11-.43.2-.58.14-.28.37-.52.68-.74.31-.22.69-.33,1.15-.34.46,0,.85.12,1.16.34.31.22.53.46.66.74.1.15.17.34.2.57.04.24.05.71.05,1.4s-.02,1.15-.05,1.4c-.04.24-.11.44-.2.58-.14.28-.36.52-.66.74-.31.22-.7.33-1.16.35-.46-.01-.84-.13-1.15-.35-.31-.21-.54-.46-.68-.74-.04-.09-.08-.18-.12-.26-.03-.09-.06-.19-.08-.32-.04-.24-.06-.71-.06-1.4Zm.88,0c0,.59.02.99.06,1.2.04.21.11.38.23.51.09.12.22.22.37.3.15.09.33.14.54.14s.39-.05.55-.14c.15-.08.26-.18.35-.3.11-.13.19-.3.24-.51.04-.21.06-.61.06-1.2s-.02-1-.06-1.21c-.04-.2-.12-.37-.24-.5-.09-.12-.21-.23-.35-.31-.16-.08-.34-.12-.55-.13-.21,0-.39.05-.54.13-.15.08-.27.19-.37.31-.12.13-.19.3-.23.5-.04.22-.06.62-.06,1.21Z" fill="#1e1e1c"/><path d="m54.02,83.44h1.38v.48h-1.38v-.48Z" fill="#010101"/><path d="m51.42,88.09l1.09-2.41h.52l-1.1,2.41h.85v-.97h.47v.97h.26v.45h-.26v.5h-.47v-.5h-1.36v-.45Z" fill="#010101"/><path d="m67.25,56.86h.83l1.67,3.92,1.64-3.92h.83v6.02h-.88v-3.75h-.02l-1.22,2.89h-.74l-1.22-2.89h-.02v3.75h-.88v-6.02Z" fill="#1e1e1c"/><path d="m75.92,62.43c-.27.32-.63.49-1.07.5-.27,0-.49-.07-.67-.18-.19-.11-.33-.22-.43-.35-.11-.14-.19-.31-.24-.52-.05-.2-.08-.58-.08-1.15s.03-.96.08-1.17c.05-.2.13-.37.24-.51.1-.13.24-.25.43-.36.18-.1.4-.15.67-.16.41,0,.77.17,1.07.51v-.45h.83v4.18c-.01.64-.19,1.12-.54,1.42-.35.31-.77.47-1.26.47-.56-.01-1.04-.25-1.44-.72l.65-.53c.11.1.23.19.37.26.14.08.29.12.44.13.29,0,.51-.08.69-.24.17-.17.26-.4.26-.69v-.44Zm-1.65-1.69c0,.33.01.55.03.68.02.13.06.24.13.32.06.08.14.15.26.21.11.08.25.12.41.12s.3-.04.41-.12c.11-.06.19-.13.25-.21.07-.09.12-.19.14-.32.02-.12.02-.35.02-.68s0-.57-.02-.7c-.02-.13-.07-.23-.14-.31-.06-.08-.14-.15-.25-.23-.11-.06-.25-.1-.41-.1-.16,0-.3.04-.41.1-.11.07-.2.15-.26.23-.07.08-.11.18-.13.31-.02.13-.03.36-.03.7Z" fill="#1e1e1c"/><path d="m77.65,59.39l1.28-1.65c.05-.07.08-.13.1-.19.01-.05.02-.1.02-.15,0-.13-.04-.24-.11-.33-.08-.09-.19-.14-.34-.15-.13,0-.24.04-.32.13-.09.08-.14.2-.16.36h-.47c.01-.28.1-.51.27-.69.17-.18.38-.27.63-.27.28,0,.51.1.68.28.18.18.27.41.27.69,0,.22-.07.42-.2.59l-1.05,1.36h1.25v.48h-1.86v-.45Z" fill="#010101"/><path d="m80.97,57.45h.36v1.01h.98v.37h-.98v1.01h-.36v-1.01h-.98v-.37h.98v-1.01Z" fill="#010101"/><path d="m68.15,112.41l2.64-4.46h-2.62v-.81h3.7v.69l-2.74,4.48h2.74v.86h-3.72v-.76Z" fill="#1e1e1c"/><path d="m72.82,108.88h.83v.45h.02c.27-.34.63-.51,1.08-.51.34,0,.66.13.94.38.28.25.43.62.44,1.12v2.85h-.83v-2.55c0-.3-.08-.53-.23-.69-.15-.16-.35-.24-.59-.24s-.44.08-.59.24c-.16.16-.24.39-.24.69v2.55h-.83v-4.29Z" fill="#1e1e1c"/><path d="m76.84,109.68l1.28-1.65c.05-.07.08-.13.1-.19.01-.05.02-.1.02-.15,0-.13-.04-.24-.11-.33-.08-.09-.19-.14-.34-.15-.13,0-.24.04-.32.13-.09.08-.14.2-.16.36h-.47c.01-.28.1-.51.27-.69.17-.18.38-.27.63-.27.28,0,.51.1.68.28.18.18.27.41.27.69,0,.22-.07.42-.2.59l-1.05,1.36h1.25v.48h-1.86v-.45Z" fill="#010101"/><path d="m80.16,107.74h.36v1.01h.98v.37h-.98v1.01h-.36v-1.01h-.98v-.37h.98v-1.01Z" fill="#010101"/><path d="m78.82,84.54l1.28-1.65c.05-.07.08-.13.1-.19.01-.05.02-.1.02-.15,0-.13-.04-.24-.11-.33-.08-.09-.19-.14-.34-.15-.13,0-.24.04-.32.13-.09.08-.14.2-.16.36h-.47c.01-.28.1-.51.27-.69.17-.18.38-.27.63-.27.28,0,.51.1.68.28.18.18.27.41.27.69,0,.22-.07.42-.2.59l-1.05,1.36h1.25v.48h-1.86v-.45Z" fill="#010101"/><path d="m81.19,83.44h1.38v.48h-1.38v-.48Z" fill="#010101"/><path d="m76.32,88.09l1.09-2.41h.52l-1.1,2.41h.85v-.97h.47v.97h.26v.45h-.26v.5h-.47v-.5h-1.36v-.45Z" fill="#010101"/><path d="m69.09,84.24h-1.61v1.83h-.61v-4.18h.61v1.79h1.61v-1.79h.61v4.18h-.61v-1.83Z" fill="#1e1e1c"/><path d="m70.68,81.88h1.47c.16,0,.31.02.46.05.15.04.3.12.45.25.13.09.23.23.31.4.08.17.12.37.12.6,0,.31-.11.59-.32.85-.22.27-.53.41-.95.41h-.93v1.63h-.61v-4.18Zm.61,1.95h.91c.23,0,.4-.08.51-.22.11-.14.16-.29.16-.46,0-.14-.02-.26-.07-.35-.05-.09-.11-.16-.2-.21-.13-.08-.27-.12-.44-.12h-.89v1.36Z" fill="#1e1e1c"/><path d="m74.03,83.98c0-.49.01-.81.04-.98.03-.17.07-.3.14-.4.1-.19.26-.36.47-.51.21-.15.48-.23.8-.23.32,0,.59.08.81.24.21.15.37.32.46.52.07.1.12.23.14.4.02.17.04.49.04.98s-.01.8-.04.97c-.03.17-.07.3-.14.41-.09.19-.25.36-.46.51-.21.15-.48.23-.81.24-.32,0-.58-.09-.8-.24-.22-.15-.37-.32-.47-.51-.03-.06-.06-.12-.08-.18-.02-.06-.04-.13-.06-.22-.03-.17-.04-.49-.04-.97Zm.61,0c0,.41.01.69.04.84.03.15.08.26.16.35.07.09.15.16.26.21.1.06.23.09.37.09s.27-.03.38-.09c.1-.05.18-.12.25-.21.08-.09.13-.21.16-.35.03-.15.04-.42.04-.84s-.01-.69-.04-.84c-.03-.14-.08-.26-.16-.35-.06-.09-.14-.16-.25-.21-.11-.06-.23-.09-.38-.09-.14,0-.27.03-.37.09-.11.06-.19.13-.26.21-.08.09-.13.21-.16.35-.03.15-.04.43-.04.84Z" fill="#1e1e1c"/><path d="m104.93,83.44h1.38v.48h-1.38v-.48Z" fill="#010101"/><path d="m103.08,87.09h.16c.16,0,.28-.05.37-.14.09-.09.13-.2.13-.34,0-.14-.05-.26-.14-.35-.09-.09-.2-.13-.34-.14-.1,0-.19.03-.27.1-.09.07-.14.17-.17.31h-.47c.02-.25.12-.46.29-.63.17-.17.37-.25.6-.26.3,0,.53.1.71.29.17.19.25.41.25.67,0,.13-.02.25-.07.37-.05.12-.15.23-.29.32.14.09.24.2.31.33.06.13.09.26.09.41,0,.32-.1.56-.28.75-.18.19-.42.28-.71.28-.22,0-.42-.07-.59-.22-.17-.15-.28-.36-.33-.64h.47c.04.11.1.2.18.27.08.07.18.11.31.11.14,0,.25-.05.35-.15.1-.09.14-.22.15-.39,0-.17-.05-.3-.15-.4-.09-.09-.21-.14-.36-.14h-.2v-.42Z" fill="#010101"/><path d="m95.1,84.24h-1.61v1.83h-.61v-4.18h.61v1.79h1.61v-1.79h.61v4.18h-.61v-1.83Z" fill="#1e1e1c"/><path d="m99.42,84.9c-.09.39-.26.69-.51.89-.26.21-.56.31-.92.31-.32,0-.58-.09-.8-.24-.22-.15-.37-.32-.47-.51-.03-.06-.06-.12-.08-.18-.02-.06-.04-.13-.06-.22-.03-.17-.04-.49-.04-.97s.01-.81.04-.98c.03-.16.07-.3.14-.4.1-.19.26-.37.47-.52.21-.15.48-.23.8-.24.39,0,.71.12.96.36.25.24.4.53.47.88h-.65c-.05-.17-.14-.31-.27-.43-.14-.11-.3-.17-.5-.18-.14,0-.27.03-.37.09-.11.06-.19.13-.26.21-.08.09-.13.21-.16.35-.03.15-.04.43-.04.84s.01.69.04.84c.03.15.08.26.16.35.07.09.15.16.26.21.1.06.23.09.37.09.34,0,.6-.19.77-.57h.65Z" fill="#1e1e1c"/><path d="m99.82,83.98c0-.49.01-.81.04-.98.03-.17.07-.3.14-.4.1-.19.26-.36.47-.51.21-.15.48-.23.8-.23.32,0,.59.08.81.24.21.15.37.32.46.52.07.1.12.23.14.4.02.17.04.49.04.98s-.01.8-.04.97c-.03.17-.07.3-.14.41-.09.19-.25.36-.46.51-.21.15-.48.23-.81.24-.32,0-.58-.09-.8-.24-.22-.15-.37-.32-.47-.51-.03-.06-.06-.12-.08-.18-.02-.06-.04-.13-.06-.22-.03-.17-.04-.49-.04-.97Zm.61,0c0,.41.01.69.04.84.03.15.08.26.16.35.07.09.15.16.26.21.1.06.23.09.37.09s.27-.03.38-.09c.1-.05.18-.12.25-.21.08-.09.13-.21.16-.35.03-.15.04-.42.04-.84s-.01-.69-.04-.84c-.03-.14-.08-.26-.16-.35-.06-.09-.14-.16-.25-.21-.11-.06-.23-.09-.38-.09-.14,0-.27.03-.37.09-.11.06-.19.13-.26.21-.08.09-.13.21-.16.35-.03.15-.04.43-.04.84Z" fill="#1e1e1c"/><path d="m93.43,107.15h3.73v.86h-2.84v1.78h2.43v.81h-2.43v2.57h-.88v-6.02Z" fill="#1e1e1c"/><path d="m98.37,111.35c0,.34.1.61.29.79.18.18.41.27.7.27.34,0,.64-.14.91-.42l.6.53c-.42.47-.92.7-1.5.69-.22,0-.43-.03-.64-.1-.1-.04-.21-.08-.3-.14-.1-.05-.2-.12-.29-.19-.18-.16-.32-.38-.43-.67-.12-.28-.18-.63-.18-1.07s.05-.78.16-1.06c.1-.29.24-.51.4-.68.17-.17.35-.29.56-.36.2-.07.4-.11.6-.11.47,0,.88.17,1.2.48.33.32.5.77.51,1.33v.71h-2.59Zm1.76-.71c-.01-.33-.1-.59-.26-.76-.16-.16-.37-.24-.62-.24s-.46.08-.62.24c-.16.17-.25.42-.26.76h1.76Z" fill="#1e1e1c"/><path d="m101.76,109.68l1.28-1.65c.05-.07.08-.13.1-.19.01-.05.02-.1.02-.15,0-.13-.04-.24-.11-.33-.08-.09-.19-.14-.34-.15-.13,0-.24.04-.32.13-.09.08-.14.2-.16.36h-.47c.01-.28.1-.51.27-.69.17-.18.38-.27.63-.27.28,0,.51.1.68.28.18.18.27.41.27.69,0,.22-.07.42-.2.59l-1.05,1.36h1.25v.48h-1.86v-.45Z" fill="#010101"/><path d="m105.08,107.74h.36v1.01h.98v.37h-.98v1.01h-.36v-1.01h-.98v-.37h.98v-1.01Z" fill="#010101"/><path d="m74.28,36.05c-.13.56-.37.99-.73,1.29-.37.3-.81.45-1.32.45-.46-.01-.84-.13-1.15-.35-.31-.21-.54-.46-.68-.74-.04-.09-.08-.18-.12-.26-.03-.09-.06-.19-.08-.32-.04-.24-.06-.71-.06-1.4s.02-1.17.06-1.4c.04-.24.11-.43.2-.57.14-.28.37-.53.68-.74.31-.22.69-.33,1.15-.34.56,0,1.02.18,1.38.52.35.34.58.76.67,1.27h-.94c-.07-.24-.2-.45-.39-.62-.2-.16-.44-.25-.72-.25-.21,0-.39.05-.54.13-.15.08-.28.19-.37.31-.12.13-.19.3-.23.5-.04.22-.06.62-.06,1.21s.02.99.06,1.2c.04.21.11.38.23.51.09.12.22.22.37.3.15.09.33.14.54.14.5,0,.87-.27,1.11-.82h.94Z" fill="#1e1e1c"/><path d="m75.05,31.71h.88v6.02h-.88v-6.02Z" fill="#1e1e1c"/><path d="m77.12,33.15h1.38v.48h-1.38v-.48Z" fill="#010101"/><path d="m95.52,31.71h.88v3.1h.02l2.4-3.1h1.05l-1.87,2.37,2.06,3.65h-1.05l-1.59-2.94-1.03,1.11v1.83h-.88v-6.02Z" fill="#1e1e1c"/><path d="m102.15,32.31h.36v1.01h.98v.37h-.98v1.01h-.36v-1.01h-.98v-.37h.98v-1.01Z" fill="#010101"/><path d="m97.18,61.7c-.13.56-.37.99-.73,1.29-.37.3-.81.45-1.32.45-.46-.01-.84-.13-1.15-.35-.31-.21-.54-.46-.68-.74-.04-.09-.08-.18-.12-.26-.03-.09-.06-.19-.08-.32-.04-.24-.06-.71-.06-1.4s.02-1.17.06-1.4c.04-.24.11-.43.2-.57.14-.28.37-.53.68-.74.31-.22.69-.33,1.15-.34.56,0,1.02.18,1.38.52.35.34.58.76.67,1.27h-.94c-.07-.24-.2-.45-.39-.62-.2-.16-.44-.25-.72-.25-.21,0-.39.05-.54.13-.15.08-.28.19-.37.31-.12.13-.19.3-.23.5-.04.22-.06.62-.06,1.21s.02.99.06,1.2c.04.21.11.38.23.51.09.12.22.22.37.3.15.09.33.14.54.14.5,0,.87-.27,1.11-.82h.94Z" fill="#1e1e1c"/><path d="m100.05,63h-.02c-.08.15-.2.25-.36.32-.16.07-.38.11-.66.11-.46,0-.82-.13-1.07-.38-.26-.24-.4-.55-.4-.93s.12-.66.34-.9c.23-.24.57-.37,1.01-.37h1.16v-.45c0-.38-.28-.56-.85-.55-.21,0-.37.02-.49.07-.13.05-.22.14-.3.27l-.66-.52c.32-.43.78-.64,1.4-.62.52,0,.94.1,1.25.31.31.21.47.58.48,1.11v2.93h-.83v-.38Zm0-1.44h-1c-.49.01-.73.18-.72.52,0,.15.06.27.19.37.12.11.32.17.6.17.35,0,.6-.04.74-.13.13-.09.2-.3.2-.62v-.31Z" fill="#1e1e1c"/><path d="m101.76,59.9l1.28-1.65c.05-.07.08-.13.1-.19.01-.05.02-.1.02-.15,0-.13-.04-.24-.11-.33-.08-.09-.19-.14-.34-.15-.13,0-.24.04-.32.13-.09.08-.14.2-.16.36h-.47c.01-.28.1-.51.27-.69.17-.18.38-.27.63-.27.28,0,.51.1.68.28.18.18.27.41.27.69,0,.22-.07.42-.2.59l-1.05,1.36h1.25v.48h-1.86v-.45Z" fill="#010101"/><path d="m105.08,57.96h.36v1.01h.98v.37h-.98v1.01h-.36v-1.01h-.98v-.37h.98v-1.01Z" fill="#010101"/></svg>