<?xml version="1.0" encoding="utf-8"?>
<!-- Generator: Adobe Illustrator 27.5.0, SVG Export Plug-In . SVG Version: 6.00 Build 0)  -->
<svg version="1.1" id="Layer_1" xmlns="http://www.w3.org/2000/svg" xmlns:xlink="http://www.w3.org/1999/xlink" x="0px" y="0px"
	 viewBox="0 0 250 250" style="enable-background:new 0 0 250 250;" xml:space="preserve">
<g>
	<g>
		<path d="M231.1,177.7C231.1,177.6,231,177.6,231.1,177.7c-0.1,0.2-0.2,0.4-0.4,0.7C231,177.9,231.1,177.7,231.1,177.7z"/>
		<path d="M229.9,183.9c1.9-1.8-1.3,2.5-0.1,2c2-3.4,3.8-7,5.4-10.6l-0.1,0C232.7,178.4,231.3,181.3,229.9,183.9z"/>
		<path d="M241.1,155.3c-0.2-0.2-0.4-0.6-0.5-2.5c0.7-1.6,1-2.6,1.2-3.9c0-1.8,0-3.5-0.1-5.4c-1.8,11.7-5.3,23-10.5,33.5
			c0.4-0.3,0.7-0.6,1-0.9c0.5-0.5,0.9-1,1.2-1.4c0.4-0.5,0.7-0.9,1.1-1.3c0.3-0.4,0.8-0.7,1.2-1c-1.1,0.7-0.2-0.8,0.7-2.5
			c0.5-0.9,0.9-1.8,1.1-2.4c0.2-0.6,0.1-0.9-0.4-0.6c1-0.9,1.2-1.2,1.2-1.5c0.1-0.3,0.1-0.5,0.8-1c-0.2,0.4-0.3,0.8-0.5,1.2
			c-0.1,0.4-0.3,0.8-0.4,1.2c-0.2,0.8-0.5,1.6-0.7,2.4c-0.1,0.4-0.2,0.7-0.3,1.1c1.7-4.2,3.1-8.4,4.3-12.7c0-1.9-0.2-1.9-0.5-2
			c-0.1,0.1-0.1,0.1-0.2,0.2L241.1,155.3z M235.4,171.2c-0.2,0.2-0.4,0.4-0.6,0.7c-0.2,0.3-0.5,0.6-0.8,1.2l0.6-1.2l0.4-0.9
			c0-0.1,0.1-0.1,0.1-0.2L235,171C234.9,171.4,235.2,171.2,235.4,171.2z M239,162.8c0-0.5,0-1,0-1.5l0.6,0.4
			C239.4,162,239.2,162.4,239,162.8z M240.7,156.1c0,0.7,0,1.3,0,2c-0.1-0.4-0.2-0.9-0.3-1.3c-0.1-0.4-0.2-0.9-0.3-1.3L240.7,156.1z
			"/>
		<path d="M205.4,214.7c-1.3,1.2-1.6,2-2,2.7c0.3-0.6-0.2-0.4-0.7-0.2c-0.6,0.3-1.3,0.7-1.6,0.8c-1,1-2,1.8-3,2.5
			c-0.9,0.8-1.9,1.4-2.8,2.1c-0.5,0.3-0.9,0.7-1.4,1c-0.5,0.3-1,0.7-1.5,1c-0.5,0.4-1,0.7-1.6,1.1c-0.6,0.4-1.2,0.8-1.8,1.2
			c0.2,0,0.3-0.1-0.1,0.1c0,0,0.1,0,0.1-0.1c-0.4,0.1-1.1,0.2-1.1-0.2c-0.6,0.5-1.2,1.1-1.7,1.7c-0.5,0.6-0.9,1.2-1.3,1.7
			c7-4,13.7-8.8,19.9-14.2c0.2-0.3,0.5-0.6,0.8-0.9C206.3,214.5,207,213.8,205.4,214.7z"/>
		<path d="M173.5,236c-0.8,0.1-2.8,0.6-4.7,1c-1.8,0.5-3.6,0.9-3.8,0.9c-0.3,0.4-0.3,1-0.2,1.6c1.5-0.5,3-1.1,4.4-1.6l0-0.9l0.4,0.7
			c1.4-0.6,2.8-1.1,4.2-1.8C173.8,236,173.7,236,173.5,236z"/>
		<path d="M212.5,208.8c5.8-6.1,10.9-12.6,15.2-19.6c-1.9,2-3.9,4.3-5.8,6.4c-2.9,3.2-5.4,6-6.5,6.6c1.1-0.9,2.7-2.9,3.3-4l-2.3,2
			c-2.1,2.5-4.2,4.9-6.5,7.3c0.4-0.1-0.4,0.9-0.8,1.5c-0.8,1-1.6,1.6-1.5,1.1c0.6-0.7,1.2-1.5,1.9-2.2c-0.3,0.3-0.6,0.6-0.9,0.9
			c-1.2,1.2-2.4,2.4-3.6,3.5c-0.2,0.3-0.3,0.6-0.5,0.8c-0.9,1.7-1.2,3-0.8,3.4c1.6-2,4.6-6.1,5.8-6c-1,1.4-2.6,3.3-3.5,4.6
			c1.5-1.4,3.1-2.8,4.5-4.3c0.1-0.1,0.2-0.3,0.4-0.4c0.4-0.6,0.9-1.4,0.9-1.6C213.3,207.5,213,208.1,212.5,208.8z M217.1,202
			c0.5-0.2,0.7-0.1,1.5-0.7l-0.8,1.5L217.1,202z"/>
		<path d="M227,185.9c0.4-0.7,1.3-2,2.2-3.3c0.4-0.7,0.9-1.3,1.2-1.9c0.3-0.6,0.6-1.1,0.6-1.5c-0.3,0.1-0.7,0.4-1.2,0.8
			c-1,2-2.2,4-3.3,5.9C226.5,186.2,226.2,186.6,227,185.9z"/>
		<path d="M98.5,7.7c0.3-0.1,0.5-0.3,0.7-0.4c0.1-0.2,0.2-0.3,0.2-0.4c-0.1,0-0.2,0-0.2,0C99.1,7.1,98.8,7.4,98.5,7.7z"/>
		<path d="M8.3,154.9c0,0.6,0,1.3,0.1,1.9c0.1,0.6,0.2,1.2,0.3,1.6c0.3,0.9,0.6,1.2,0.8,0.5c-0.3-1.2-0.5-2.4-0.7-3.7
			c0.3-0.4,0.2,2.1,0.5,0.4c-0.2-1-0.8-3.2-1.1-4.2l-0.3-0.3c0-0.4,0.1-0.2,0.3,0.3l0.1,0.1c0-1.1,0-2.3,0.1-3.4l0.2-2.6
			c-1.1-6.7-1.7-13.4-1.7-20.3c0-31.6,12.3-61.3,34.6-83.6c12.3-12.3,26.9-21.6,42.8-27.4c0.5-0.8,0.9-1.6,1-2.5
			c0,1.1,0.4,0.5,1.2-0.6c0.2-0.3,0.4-0.6,0.6-0.9c-17.7,5.8-34,15.8-47.5,29.4C16.6,62.6,4,93,4,125.3c0,10.4,1.3,20.6,3.8,30.4
			C8,155.5,8.1,155.2,8.3,154.9z"/>
		<path d="M241.9,143.4c0,0,0-0.1,0-0.1c0-0.2,0-0.2,0-0.1C241.8,143.2,241.8,143.3,241.9,143.4
			C241.8,143.4,241.9,143.4,241.9,143.4z"/>
		<path d="M125,246.3c6.2,0,12.4-0.5,18.4-1.4c2.4-1.3,5-2.4,7.7-2.7c-0.9,0.2-2.2,0.6-2.4,1c4.9-2,10.1-3,12.9-4.8l-0.5-0.5
			c-11.5,3.7-23.7,5.6-36.1,5.6c-31.6,0-61.3-12.3-83.6-34.6c-9.5-9.5-17.2-20.3-22.9-32.1c-0.1,0.7-0.1,1.4-0.2,2.2
			c0,0.9-0.1,1.7,0,2.5c0.1,0.8,0.2,1.4,0.6,1.9l-0.1-0.8l0-0.8c0.1,0.2,0.2,0.5,0.3,0.7c0.1,0.2,0.2,0.5,0.3,0.8
			c0.2,0.5,0.4,1.1,0.5,1.6c0.1,0.4,0.2,0.7,0.3,1.1c5.2,9,11.6,17.3,19.1,24.8C62.3,233.7,92.7,246.3,125,246.3z"/>
		<path d="M244.6,120.2c-0.1,0.2-0.1,0.2-0.2,0.2C244.5,120.3,244.5,120.2,244.6,120.2c0.3-0.6,0.8-2.3,1.1-3.9
			c-0.1-1.3-0.2-2.6-0.4-4c-0.7,3-1-0.3-1.3-1.9c0.5,2.4,0.8,0.8,1.2,1.6c-0.4-3.6-0.9-7.2-1.6-10.8c0,0,0,0.1-0.1,0.1l0.1,1.3
			c-0.3-0.7-0.2-1.1-0.1-1.3l-0.1-0.6c-3.7-18.3-11.6-35.4-23.3-50.1c-0.1,0,0,0.3,0.5,1.2c-3.3-4.5-6.9-8.6-10.7-12.6
			c-22.8-22.5-53-34.9-85-34.9c-8.3,0-16.5,0.8-24.4,2.5c-0.2,0.1-0.3,0.2-0.5,0.3c-0.8,0.7-1,0.9-1.1,0.8c-0.7,0.5-0.2-0.6-2,0.7
			c-1.1,1-1.7,1.7-2.1,2.3c9.7-2.5,19.8-3.8,30-3.8c31.6,0,61.3,12.3,83.6,34.6c19.7,19.7,31.6,45.2,34.1,72.6l0.1,0.6
			c0.3-0.1,0.5,0.3,0.3,2.8l-0.3-2.8c0,0,0,0,0,0c0.3,3.4,0.5,6.9,0.5,10.4c0,5.3-0.4,10.5-1,15.7c0,0.8,0,1.7,0.1,2.6
			c0.6-4.1,0.8,3.2,0.9-2.4c0.2,2.1,0.8,1.1,0.7,4.6c-0.8,1.7-1-1.2-1.6-2.1c0,2.6-0.1,4.1-0.3,5.3l0,1.2l-0.1-0.4
			c-0.2,1.9-0.4,3.8-0.7,5.6c0,0,0.1,0,0.1,0.1c0.4-0.6,0.9-1.2,1.4-1.6c2.2-9.2,3.4-18.8,3.4-28.5c0-2.3-0.1-4.6-0.2-6.8
			C245.4,119.3,245,119.7,244.6,120.2z M242.1,99.7c0.2,0.8,0.3-1.4,0.6-1.9l0.3,2.5C242.5,101.7,242.2,102.2,242.1,99.7z
			 M244.8,133.3l0.4-0.1l-0.7,2.4l-0.2-4.7C244.6,131.2,245.1,130.6,244.8,133.3z M243.8,122.2l-0.3-0.4l0.1-1.1l-0.4-3.2
			c0.2,0.8,0.4,0.3,0.6,0.2l-0.3,2.9L243.8,122.2z"/>
		<path d="M242.1,143.7c-0.1-0.1-0.2-0.2-0.2-0.3C241.9,143.9,241.9,145.3,242.1,143.7z"/>
		<path d="M216.6,200c1.6-1.7,3.5-2.8,5.7-5.7c-0.5,0-0.4-0.7-0.5-1.1C220.2,195.5,218.4,197.7,216.6,200z"/>
		<path d="M84.6,14.1c0.5-0.2,1-0.4,1.5-0.5c0.5-0.9,0.8-1.3,0.2-0.1c0,0-0.1,0-0.1,0.1c0.5-0.2,1-0.4,1.5-0.5
			c0.4-0.6,0.8-1.2,1.1-1.7c0.4-0.7,0.8-1.3,1.1-1.9c-0.2,0.1-0.4,0.1-0.6,0.2c-0.5,0.6-1,1.2-1.5,1.8c-0.3-0.5,0-1,0.4-1.5
			c-0.2,0.1-0.4,0.1-0.6,0.2c-0.8,1.2-1.8,2.4-2.7,3.5C84.9,13.8,84.7,14,84.6,14.1z"/>
	</g>
	<g id="Group_12" transform="translate(-2241.866 -787.538)">
		<path id="Path_150" d="M2357.5,915.6c0.2-0.9,0.7-1.7,1-2.6c0.4-1.2,1.1-2.3,1.3-3.6c0.2-0.4,0.4-0.8,0.6-1.2
			c0.6-1.2,1.7-2.2,1.7-3.7l0.2-0.7c0.1-0.1,0.2-0.2,0.2-0.3c0.1-0.4,0.1-0.7-0.2-1c-0.2-1.3-0.2-1.3-1.4-1.2
			c-0.2,0-0.5,0.1-0.7,0.1l-0.5-0.2c-0.1-0.7-0.8-0.7-1.2-0.9c-0.7-0.3-1.5-0.9-2.4-0.6c-0.2,0-0.3-0.1-0.5-0.1
			c-0.1-0.5-0.3-0.7-0.8-0.3l-0.5-0.1c-0.1-0.1-0.2-0.2-0.3-0.1c-0.5-0.3-1-0.5-1.5-0.6c-0.1-0.2-0.3-0.3-0.5-0.2
			c-0.6-0.2-1.1-0.7-1.6-1c-1.5-0.7-3-1.2-4.6-1.5c-0.4-0.1-0.8-0.3-1.1-0.6c-0.1-0.3-0.3-0.5-0.6-0.4c-0.1,0-0.1-0.1-0.2-0.1
			c-0.1-0.2-0.4-0.2-0.6-0.2c-1.9-0.8-3.9-1.6-5.8-2.5c-1.1-0.5-2.3-0.7-3.3-1.2c-1.4-0.7-2.8-1.2-4.2-1.7c-1.2-0.3-2.2-0.8-3.2-1.5
			c-0.2-0.2-0.5-0.3-0.8-0.3c-1-0.4-2.1-0.1-3-0.8c0-0.1-0.1-0.2-0.2-0.3c0-0.1,0-0.3,0.1-0.4c0.2-0.4,0.9-0.5,1-1l0.1-0.3
			c0.4-0.1,0.5-0.4,0.7-0.7c0.6-1,1.1-1.9,2.1-2.6c0.6-0.9,1.3-1.7,2.1-2.5c-0.1-0.1-0.1-0.1-0.2-0.2c0.1,0.1,0.2,0.1,0.2,0.2
			c1.2-1.3,2.4-2.7,4-3.7c0.2-0.1,0.3-0.4,0.5-0.6c0.4-0.1,0.7-0.3,0.9-0.6c1.2-1.4,2.9-2.3,4.3-3.5c1.3-1,2.9-1.6,4.3-2.5
			c1.4-0.9,3-1.7,4.6-2.3c0.3,0.1,0.6,0.1,0.8-0.1c0.9-0.4,1.9-0.6,2.8-0.9c0.5-0.2,1.1-0.1,1.4-0.7l0,0c0.5,0,1,0.2,1.4,0
			c1.3-0.9,2.8-1,4.2-1.2c1.8-0.2,3.5-0.7,5.4-0.6c1.3,0,2.6-0.1,3.9-0.3c1.4-0.2,2.8-0.2,4.2,0c1.9,0.2,3.7,0.7,5.6,0.9
			c0.5,0.1,1.2,0.3,1.7-0.1c0.1-0.1,0.2-0.2,0.2-0.3c0.6-0.3,0.9-1,1.1-1.6c0.3-0.9,0.5-1.9,1.1-2.6c0.1-0.2,0.1-0.4,0-0.6
			c0.3-0.4,0.2-1,0.5-1.4c1.1-2,1.7-4.3,2.8-6.3c0.1-0.1,0.1-0.2,0.1-0.4c0.2-0.7,0-1-0.7-1.4c-1.3-0.8-2.8-0.9-4.2-1
			c-1.9-0.2-3.9-0.4-5.8-0.7c-1.5-0.3-2.9-0.3-4.4-0.2l0,0c-0.7-0.5-1.2-0.6-1.8-0.3c-0.2,0.1-0.4,0.1-0.6,0c-0.5-0.3-1-0.2-1.6,0
			c-0.6,0.3-1.2,0.3-1.9,0.1c-0.3-0.1-0.6,0.1-0.8,0.2c-1.1,0.1-2.3-0.1-3.4,0.3c-0.3,0-0.5,0-0.7,0c-0.6-0.4-1.1-0.2-1.5,0.3
			c-0.1,0.2-0.3,0.2-0.6,0.2c-0.2-0.2-0.3-0.2-0.5,0l-1.3,0.1c-0.2-0.1-0.4-0.1-0.5,0.1c-0.1,0-0.2,0-0.2,0.1c-0.1,0-0.3,0-0.3,0.1
			c-0.4,0.1-0.8,0.1-1.2,0.2c-0.1-0.1-0.3,0-0.3,0.1c-1.5,0.3-3,0.8-4.4,1.2c-0.9,0.3-1.9,0.1-2.7,0.8c-0.6,0.4-1.3,0.7-2,0.7
			c-0.4,0-0.7,0.2-1.1,0.3c-1.1,0.7-2.4,1-3.5,1.8c-0.2,0.1-0.4,0.2-0.6,0.3c-2.3,0.6-4.2,2-6.2,3.2c-0.2,0.2-0.5,0.4-0.7,0.5
			c-2.9,1.1-5.1,3.3-7.4,5.2c-1.4,1.2-2.8,2.4-4.1,3.7c-1.4,1.5-2.6,3.1-4.1,4.5c-1.5,1.5-2.5,3.4-4,5c-0.5,0.5-1.2,1-1.2,1.9
			c0,0.2-0.3,0.5-0.5,0.7c-0.2,0.2-0.4,0.4-0.6,0.7c-0.6,1.5-1.7,2.7-2.3,4.2c-0.4,0.9-0.9,1.7-1.5,2.5c-0.7,1-1,2.2-1.5,3.4
			c-0.4,1.1-1,2.1-1.1,3.2c-0.1,0.5-0.2,1.1-0.5,1.6c-0.7,1.6-1.2,3.2-1.6,4.9c-0.2,1.6-0.6,3.1-1,4.6c-0.3,1.1-0.3,2.3-0.7,3.4
			c0,0.1,0,0.3,0,0.4c0.3,0.7,0.1,1.5,0,2.3c-0.3,2.6-0.4,5.2-0.3,7.8c0.1,2.3,0.3,4.6,0.7,6.8c0.3,1.9,0.3,3.8,0.9,5.6
			c0.2,0.6,0.4,1.1,0.5,1.7c0.3,1,0.3,2,0.6,3c0.5,1.2,0.8,2.6,1.4,3.7c0.1,0.2,0.2,0.4,0.3,0.7c0.3,1.5,0.5,3,1.7,4.1
			c0.1,0.1,0.2,0.3,0.2,0.5c0.6,2.3,2,4.3,3.1,6.4c0.9,1.5,1.9,3,3,4.4c1.1,1.4,1.8,3,3.3,4.1c0.3,0.3,0.6,0.6,0.7,1
			c0.2,0.5,0.6,0.9,1.1,1.2c0.7,0.5,1.1,0.4,1.5-0.4c0.4-0.8,0.6-1.7,1.1-2.4c0.4-0.8,1-1.5,0.8-2.4c0-0.1,0.1-0.2,0.1-0.3
			c0.4-0.8,0.7-1.6,1-2.4c0.9-2.2,1.9-4.4,2.8-6.7c0.3-0.6,0.3-1.4-0.1-2c-1.2-2-2.7-3.9-3.6-6c-0.6-1.3-1.1-2.6-1.7-3.8
			c-0.3-0.6-0.5-1.2-0.7-1.9c-0.4-1.7-0.8-3.5-1.4-5.1c-0.3-0.9-0.1-1.8-0.4-2.6c-0.4-1-0.6-2-0.5-3.1c0-0.6,0-1.3-0.2-1.9
			c-0.2-0.7-0.3-1.5-0.2-2.3c0.2-1.2,0.2-2.3,0.2-3.5c-0.2-2.2,0.2-4.4,0.4-6.6c0.1-1.3,0.4-2.5,0.6-3.8c0.2-1.2,0.6-1.4,1.7-1.1
			c0.3,0.1,0.6,0.3,0.9,0.4c0.6,0.3,1.3,0.7,1.9,1c1.3,0.6,2.6,1.1,4,1.6c0.7,0.3,1.4,0.6,2.2,0.8c0.8,0.2,1.7,0.2,2.4,0.8
			c0.8,0.7,1.8,1.1,2.8,1.3c0.4,0,0.8,0.1,1.1,0.3c1.6,1,3.4,1.5,5.1,2.2c1.8,0.8,3.6,1.5,5.4,2.2c0.8,0.3,1.6,0.5,2.4,0.9
			c3,1.5,6.2,2.4,9.2,3.8C2356.5,917.1,2357.3,916.7,2357.5,915.6 M2312.9,897.5L2312.9,897.5L2312.9,897.5 M2336.4,863.4
			c0.5,0.2,0.9-0.2,1.3-0.2c0.2,0,0.3-0.1,0.4-0.3c0.1-0.9,0.4-1.8,0.8-2.6c0.2-0.6-0.5-0.8-0.8-1.1c0.1-0.4,0.4-0.1,0.6-0.3
			c-0.1-0.4-0.6-0.2-0.8-0.5c-0.1-0.2-0.4-0.4-0.3-0.7c0.1-0.2,0.3-0.3,0.6-0.3c0,0,0,0,0.1,0c0.8,0.3,1.1,0,1.3-0.7
			c0.1-0.5,0.4-0.8,0.9-0.5c0.4,0.2,1.1,0,1,0.7c0,0.5-0.2,1-0.9,1c-0.1,0-0.3,0-0.4,0.1c0,0.5,0.5,0.6,0.7,1
			c0.1,0.1,0.3,0.2,0.5,0.2c0.4,0,0.6-0.7,1.1-0.5c0.4,0.2,0.6,0.6,1.1,0.4c0.3-0.1,1.4,1.3,1.4,1.6c0,0.3-0.3,0.5-0.6,0.6
			c-0.3,0.1-0.6-0.1-0.9-0.3c0.3,1-0.1,1.7-0.7,2.3c-0.3,0.3-0.5,0.6-0.6,1c-0.3,0.7-0.7,0.8-1.3,0.3c-0.1-0.1-0.2-0.2-0.4-0.4
			c-0.9-1-1.6-0.9-2.4,0.3c-0.4,0-0.8,0-1.1,0.1c-0.2,0.1-0.4,0-0.6-0.1c-0.6-0.5-1.4-0.6-2.1-0.2c-0.1,0-0.1,0.1-0.2,0.1
			c-0.3,0.1-0.6,0.7-1,0.3c-0.4-0.4,0-0.9,0.3-1.2c0.1-0.2,0.2-0.4,0.5-0.4c0.9,0,0.7-1,1.3-1.4c0.3-0.2-0.1-0.5-0.4-0.6
			c-0.4-0.2-0.6-0.5-0.2-0.9c0.4-0.4,0.7-0.2,1,0.1c1,0.7,1.3,1.6,0.9,2.8C2336.4,863.2,2336.4,863.3,2336.4,863.4 M2343.7,856.2
			c0,0.1-0.1,0.2-0.2,0.3C2343.6,856.4,2343.7,856.3,2343.7,856.2c0-0.1-0.1-0.1-0.1-0.2C2343.6,856.1,2343.6,856.1,2343.7,856.2
			 M2338.3,865.4c-0.1-0.3-0.1-0.6-0.2-0.8C2338.1,864.8,2338.2,865.1,2338.3,865.4 M2326.4,878L2326.4,878c0,0.1-0.1,0.1-0.2,0.2
			C2326.3,878.1,2326.4,878.1,2326.4,878 M2317.4,888.4c0.4-0.4,0.9-0.6,1.4-0.5C2318.3,887.9,2317.8,888.1,2317.4,888.4
			 M2313.2,896.6c-0.1,0.2-0.2,0.5-0.2,0.8C2313,897.2,2313.1,896.9,2313.2,896.6 M2349.4,857.5c0.1,0,0.2-0.1,0.1-0.2
			c0-0.1-0.1-0.2-0.1-0.3c0.1,0.1,0.1,0.2,0.1,0.3C2349.5,857.4,2349.5,857.5,2349.4,857.5 M2349.2,856.9L2349.2,856.9L2349.2,856.9
			 M2357.3,855.6c-0.7,0.1-1.5,0-2.3,0.2c-0.2,0-0.3,0-0.5-0.1c-0.3-0.4-0.7-0.6-1.2-0.7c-0.3-0.1-0.5-0.4-0.4-0.7
			c0-0.3,0.2-0.5,0.5-0.5c0,0,0,0,0,0c0.7,0,1.1-0.7,1.8-0.6c0.2,0,0.4-0.1,0.4-0.3c0,0,0,0,0-0.1c-0.1-0.8,0.5-0.9,1-1
			c0.3-0.1,0.7-0.1,1-0.1c0,0,0.1,0.1,0.1,0.1c0,0.2-0.1,0.4-0.3,0.5c-0.5,0.4-0.9,0.7,0,1.2c0.5,0.3,0.4,0.9,0.5,1.4
			C2358.1,855.4,2357.7,855.5,2357.3,855.6 M2370.8,849.4L2370.8,849.4c0.1,0,0.2-0.1,0.4-0.1C2371,849.4,2370.9,849.4,2370.8,849.4
			 M2370.6,849.4L2370.6,849.4 M2367.5,860.4c-0.1,0-0.2,0-0.3,0c-0.1,0-0.3-0.1-0.4-0.1c0.1,0.1,0.3,0.1,0.4,0.1
			C2367.3,860.4,2367.4,860.4,2367.5,860.4 M2364.6,848.6c0-0.1,0-0.2,0-0.2C2364.6,848.4,2364.6,848.5,2364.6,848.6 M2378,855.4
			c0,0.3,0,0.7,0,1C2378,856.1,2378,855.8,2378,855.4L2378,855.4z M2379.3,858.3l0.2,0L2379.3,858.3 M2379.9,858.1
			c0,0,0.1,0,0.1-0.1C2380,858.1,2380,858.1,2379.9,858.1c-0.1,0-0.1,0-0.2,0C2379.8,858.2,2379.9,858.2,2379.9,858.1 M2370.5,846.4
			c0,0-0.1,0-0.1,0C2370.5,846.4,2370.5,846.4,2370.5,846.4 M2366.9,847.3L2366.9,847.3c-0.1,0-0.2-0.1-0.3-0.1
			C2366.7,847.3,2366.8,847.3,2366.9,847.3 M2309.7,889.5c0-0.2-0.1-0.4-0.1-0.5C2309.6,889.1,2309.6,889.3,2309.7,889.5
			 M2309.6,888.9L2309.6,888.9l0.2,0L2309.6,888.9 M2307,895.4c0.2-0.2,0.4-0.4,0.5-0.6c0.3-0.3,0.8-0.4,0.8-1
			c0-0.3,0.3-0.2,0.5-0.2c0.3,0.1,0.3,0.2,0.2,0.5c-0.1,0.2-0.1,0.3-0.1,0.5c-0.3,1.2-0.5,1.3-1.7,1.4c0,0-0.2,0-0.3-0.1
			C2306.9,895.7,2306.9,895.5,2307,895.4 M2312,923.9c-0.1,0.4-0.5,0.3-0.8,0.1c-0.9-0.5-1.8-1-2.9-0.3c-0.4,0.3-1.1-0.4-0.9-0.9
			c0.1-0.4-0.6-0.9,0.3-1.2c0.3-0.1,0.1-1,0.8-1.1c0,0,0.1,0,0.1-0.1c0,0-0.1-0.1-0.2-0.1c-1-0.3-0.5-0.6,0-0.8
			c0.4-0.2,0.5-0.6,0.8-0.8c0.2-0.1,0.4-0.3,0.7-0.2c0.2,0.1,0.3,0.4,0.1,0.7c0,0,0,0,0,0c-0.6,0.7-0.2,0.8,0.4,1.1
			c0.6,0.3,0.8,1,0.9,1.7c0,0.3-0.1,0.7,0.4,0.8C2312.6,923.1,2312.1,923.6,2312,923.9 M2319.7,895L2319.7,895
			c-0.2,0-0.4,0.1-0.6,0.1C2319.3,895,2319.5,895,2319.7,895 M2319.7,895L2319.7,895c0,0.1,0,0.2,0,0.4
			C2319.7,895.2,2319.7,895.1,2319.7,895 M2323.7,898.4L2323.7,898.4c0,0.4-0.1,0.7-0.2,1C2323.7,899.1,2323.7,898.7,2323.7,898.4
			 M2323.8,898.3L2323.8,898.3l0.1-0.3L2323.8,898.3L2323.8,898.3L2323.8,898.3L2323.8,898.3"/>
		<path id="Path_151" d="M2420.3,922.7L2420.3,922.7L2420.3,922.7L2420.3,922.7z"/>
		<path id="Path_148" d="M2432,936.9c-0.2-1,0.5-1.9,1-2.5c0.7-0.8,0.7-1.5,0.5-2.3c-0.1-0.4-0.1-0.7,0-1.1c0.2-1.1,1-2.1,0.5-3.3
			c-0.1-0.1,0.1-0.4,0.2-0.6c0.3-0.8,0.6-1.6,0.7-2.4c0.3-1.5,0.3-3.1,0.6-4.6c0-0.1,0.1-0.3,0-0.4c-0.7-0.8-0.2-1.5,0-2.3
			c0.5-1.8,1-3.5-0.1-5.2c-0.1-0.2,0-0.5,0-0.7c-0.1-0.8,0.5-1.6,0.1-2.3c-0.3-0.6-0.4-1.4-0.4-2.1c0-1.2-0.2-2.4-0.4-3.5
			c-0.2-1.7-0.9-3.3-1.1-5.1c0-0.4-0.3-0.7-0.7-0.8c-0.1,0.6,0.3,1.2,0.2,1.7c0,0.2,0,0.4-0.3,0.5c-0.3,0-0.4-0.1-0.4-0.4
			c0-0.3-0.2-0.7-0.3-1c-0.1-0.2-0.3-0.4-0.5-0.3c-0.8,0.3-1.3-0.3-1.7-0.7c-0.4-0.4-0.7-0.5-1.1,0c-0.5,0.7-0.9-0.1-1.4,0
			c0.4-0.5,1-0.6,1.4-1c0.3-0.2,0.7-0.3,1.1-0.1c0.5,0.2,0.9,0.2,1.3-0.3c0.4-0.5,0.9-0.3,1.1,0.4c0.1,0.3-0.1,0.8,0.5,0.9
			c0.8-0.3,0.6-0.7,0.2-1.1c-0.4-0.5-0.8-0.9-0.5-1.6c0.1-0.1-0.1-0.3-0.1-0.5c-0.3-0.7-0.5-1.4-0.7-2.1c-0.4-1.5-1.1-2.9-1.6-4.4
			c-0.8-2.5-2.3-4.8-3.6-7.1c-0.6-1-1.3-1.9-1.7-3c-0.1-0.3-0.3-0.6-0.6-0.8c-0.5-0.5-0.9-1-1.2-1.7c-0.1-0.3-0.3-0.6-0.5-0.9
			c-0.7-0.8-1.5-0.7-1.9,0.2c-0.4,1.1-1,2.1-1.1,3.2l-0.3,0.7c-0.5,0.9-0.8,1.8-1,2.8c0,0.1-0.1,0.2-0.1,0.3c-1,1.1-1.4,2.5-1.9,3.8
			c0.7-0.3,1.1,0.4,1.7,0.6c0.2,0.1,0.1,0.3,0.1,0.4c-0.2,0.3-0.2,0.6-0.2,0.9c0.1,0.4-0.1,0.6-0.5,0.7c-0.3,0.1-0.7,0-0.6,0.5
			c0.1,0.4,0.5,0.2,0.8,0.4c-0.4,0.4-0.9,0.7-0.7,1.5c0.2,0.5-0.2,0.7-0.7,0.4c-0.2-0.2-0.5-0.2-0.8-0.1c0.3,0.5,0.7,1,0.7,1.7
			c0,0.5,0.8,0.7,1.3,0.4c0.2-0.1,0.3-0.4,0.5-0.5c0.4-0.3,0.9-0.2,1.2,0.2c0.1,0.2,0.2,0.3,0.1,0.5c0,0.4-0.1,0.7-0.6,0.6
			c-0.8-0.1-1,0.4-1.3,1c-0.3,0.7-0.8,1.4,0.1,2c0,1,0.3,1.5,1.3,0.8c0.2-0.1,0.5,0.1,0.7,0.3c-0.1,0.3-0.4,0.3-0.6,0.5
			c-0.3,0.2-0.4,0.5-0.2,0.8c0,0,0,0,0,0.1c0.5,0.7,0.7,1.7,0.5,2.5c-0.1,0.5,0.4,1,0.8,1.4c0.3,0.3,0.5,0.5,0.1,0.9
			c-0.2,0.3-0.2,0.7,0.1,0.9c0,0,0.1,0.1,0.1,0.1c0.6,0.3,0.5,0.6,0.2,1c-0.2,0.3-0.3,0.6-0.2,1c0.2,0.4,0,0.6-0.4,0.7
			c-0.2,0-0.4,0.1-0.4,0.4c0,0.3,0.3,0.3,0.4,0.4c0.3,0.2,0.6,0,0.9-0.1c0.6-0.1,1,0.5,1.6,0.4c0.5-0.1,0.7-0.7,1.3-0.6
			c0.5,0.1,0.9,0,1.4-0.2c0.4-0.2,0.6-0.6,0.6-1c-0.1-0.7,0.2-1.1,0.8-1c0.5,0.1,0.8,0.3,1.2-0.2c0.2-0.2,0.5-0.2,0.7,0
			c0,0,0.1,0.1,0.1,0.1c0.1,0.3-0.1,0.4-0.4,0.5c-0.4,0.2-0.7,0.7-0.6,1.2c0.1,0.6,0.7,0.7,1,1c0.1,0.1,0.5,0,0.5-0.2
			c0.2-0.6,0.9,0.2,0.9-0.5c0.5,0,0.5,0.5,0.7,0.9c-1,0-1.4,0.7-2,1.2c-0.3,0.3-0.5,0.7-1.1,0.4c-0.5-0.2-0.8,0.5-1.2,0.5
			c0,0.3,0,0.6-0.1,0.9c-0.3,0.5-0.1,1.2,0.4,1.4c0,0,0,0,0,0c0.7,0.5,1.2,1.4,2.2,1.3c0.3,0,0.4,0.4,0.7,0.6
			c0.3-0.2,0.4-0.6,0.6-0.8c0.3-0.5,0.8-0.8,1.3-0.7c0.8,0,0.9-0.1,0.5-0.8c-0.1-0.2-0.2-0.4,0-0.6c0.2-0.1,0.4,0,0.5,0.2
			c0.2,0.1,0.3,0.4,0.2,0.6c0,0.2,0,0.3,0.2,0.3c0.7,0,0.7,0,0.4,0.5c-0.3,0.5-0.5,1.3-1.4,0.7c-0.2-0.1-0.5,0-0.6,0.2
			c0,0.1-0.1,0.2,0,0.3c0.4,1-0.4,2,0.2,3c0.2,0.4-0.1,0.6-0.5,0.7c-0.4,0.1-0.5-0.3-0.5-0.6c0-0.2,0-0.4,0.1-0.6
			c0.1-0.9-0.1-0.9-0.8-1.3c-1.5-1-2.9-0.8-4.4-0.2c-0.1,0-0.3,0-0.4,0c0,0-0.1,0-0.2-0.1c0.2-0.5,0.7-0.6,1-1
			c0.3-0.4,0.2-0.7-0.3-0.8c-0.9-0.1-1.7-0.4-2.5,0.3c-0.5,0.4-1.2,0-1.8,0.1c-0.7,0.1-1,0.3-1.1,1.1c0,0.4-0.1,0.7-0.2,1.1
			c-0.3,0.9-0.1,1.4,0.7,1.9c0.3,0.2,0.5,0.6,0.5,1c-0.1,0.3,0,0.7,0.3,0.9c0.3-0.4,0.4-0.9,0.8-1.1c0.2-0.1,0.4-0.1,0.6,0
			c0.1,0.1,0.1,0.3,0,0.5c-0.5,1-0.3,0.9,0.3,1.8c0.5,0.6,1.3,1.2,1,2.2l0,0c-1,0.1-2-0.3-2.9,0.4c-0.4,0.3-0.7,0-0.8-0.5
			c0-0.2-0.1-0.5,0-0.7c-0.2,0.1-0.5,0.1-0.7,0.2c-0.4,0.1-0.6,0.5-0.5,0.9c0,0.1,0.1,0.2,0.1,0.3c0.2,0.4,0.4,0.8,0.5,1.2
			c0.1,0.4,0,0.8-0.5,0.8c-0.3,0-0.8,0.1-0.8-0.2c-0.1-0.4-0.3-0.9,0-1.2c0.3-0.3,0.5-0.7,0.3-1.2c-0.2-0.6-0.1-1.3-0.2-1.9
			c-0.1-0.6-0.1-1.1,0.4-1.6c0.4-0.4,0.3-1.2,0-1.7c-0.3-0.5-0.2-1.2,0.1-1.7l0.1-0.1c0.5-1.2,0.5-2.3-0.4-3.3
			c-0.1,0.1-0.2,0.3-0.1,0.5c0.4,0.9,0.3,2-0.4,2.8c-0.2,0.3-0.2,0.5-0.1,0.8c0.1,1,0.2,1.9,0.2,2.9c0,1.1-0.6,2.1-0.2,3.3
			c0.1,0.5-0.1,1-0.6,1.3c-0.5,0.3-0.9,0.1-1.3-0.2c-0.3-0.2-0.6-0.2-0.9-0.4c-1.1-0.7-2.2-1.2-3.5-1.5c-1.3-0.3-2.5-0.8-3.6-1.4
			c-1.2-0.8-2.6-1.4-4-1.5c-0.2,0-0.3-0.1-0.5-0.2c-1.7-0.9-3.5-1.6-5.3-2.2c-1.7-0.6-3.3-1.3-4.9-1.9c-0.6-0.2-1.2-0.4-1.8-0.5
			c-1.6-0.4-1.9-1.1-1.2-2.5c0.8-1.7,1.7-3.3,2.2-5.1c0.2-0.3,0.5-0.5,0.6-0.9c0.5-1.6,1.1-3.2,1.8-4.7c0.3-0.8,1-1.5,1.1-2.4
			c0.1-0.7,0.3-1.3,0.6-1.9c0.2-0.5,0.4-1,0.4-1.5c0.1,0,0.2,0,0.2-0.1c0.5-1.4,1.5-2.6,1.7-4c0.2-1.3,1-2.3,1.1-3.6
			c0-0.2,0.1-0.4,0.3-0.5c0.3-0.3,0.4-0.6,0.5-0.9c0.4-1.2,0.9-2.4,1.5-3.5c0.5-0.9,0.8-1.9,1.1-2.9c0.1-0.4,0.3-0.8,0.4-1.2
			c0.3,0,0.4-0.3,0.5-0.5c0.4-1.4,1-2.8,1.6-4.1c0.9-2.4,2.2-4.7,2.9-7.1c0.3-0.9,1.1-1.5,1-2.5c0-0.2,0.1-0.5,0.1-0.7
			c0.4-0.1,0.5-0.5,0.4-0.9l0,0c0.8-0.7,0.7-1.4-0.2-1.9c-0.1,0-0.1-0.1-0.2-0.1c-0.1-0.3-0.3-0.5-0.6-0.4c-0.1,0-0.3-0.1-0.4-0.2
			c-0.3-0.5-0.5-1.2-1.3-1.3c-0.5-0.3-1-0.7-1.6-1c-0.1-0.6-0.6-0.7-1-0.9c-1.7-0.9-3.2-2-4.7-3.1c-0.5-0.4-1-0.6-1.6-0.8
			c-0.7-0.2-1.3,0-1.5,0.7c-0.1,0.1-0.1,0.3-0.2,0.4c-0.3,0.1-0.5,0.3-0.3,0.6c-0.7,1.4-1.1,3-1.9,4.5c-0.3,0.5-0.6,1.1-0.8,1.7
			c-0.6,2.1-1.5,3.9-2.3,5.9c-0.5,1.2-1.3,2.3-1.6,3.5c-0.5,1.8-1.4,3.5-2.1,5.2c-0.7,1.7-1.2,3.5-2.2,5c0,0.1,0,0.2,0,0.2
			c-0.1,1.2-0.7,2.2-1.1,3.2c-0.4,1-0.9,1.9-1.3,2.9c-0.4,0.8-0.9,1.6-1.3,2.4c-0.7,1.4-0.9,2.9-1.4,4.3c-0.6,1.6-1.4,3.2-2,4.8
			c-1.3,3.4-2.8,6.8-4.4,10.1c-0.6,1.3-0.6,3-1.8,4c-0.1,0.1-0.1,0.3-0.1,0.5c0,1-0.6,1.9-1,2.7c-0.4,0.9-1.1,1.7-1.3,2.5
			c-0.2,0.7-0.5,1.4-0.9,2c-0.5,0.7-0.3,1.6-1,2.2c0,0,0,0.2,0,0.2c0.4,0.6,0,1.1-0.2,1.6c-0.6,1.1-1.4,2.1-1.4,3.5
			c0,0.1-0.1,0.2-0.1,0.4c-0.9,1.6-1.6,3.2-2,5c-0.1,0.3-0.2,0.5-0.4,0.8c-0.4,0.8-1,1.5-1.1,2.4c-0.1,0.9-0.9,1.2-1,1.7
			c-0.2,0.6,0.1,1.4-0.4,2c-0.2,0.3-0.3,0.7-0.3,1.1c0.3,0.4,0.6,0.8,1.1,0.2c0.1-0.1,0.3-0.2,0.4-0.3c0.6-1.1,1.6-1,2.6-0.8
			c0.6,0.1,0.8-0.1,0.5-0.7c-0.3-0.5-0.4-1.2-1.2-1.2c-0.2,0-0.4-0.1-0.4-0.4c0,0,0-0.1,0-0.1c0-0.3,0.2-0.5,0.5-0.4c0,0,0,0,0.1,0
			c0.8,0.2,0.8-0.1,0.8-0.9c-0.1-0.7,0.4-1.2,1.1-1.3c0,0,0,0,0.1,0c0.2,0,0.4-0.3,0.7-0.3c0.5-0.2,1.1-0.3,1.4,0.2
			c0.5,0.7,1.1,0.5,1.7,0.7c0.5,0.2,0.8-0.1,1.1-0.4c0.3-0.4,0.9-0.6,1.4-0.4c0.3,0.1,0.4,0.4,0.3,0.6c-0.1,0.3-0.3,0.3-0.5,0.2
			c-0.2-0.1-0.4-0.1-0.4,0.1c-0.1,0.9-1.1,0.7-1.5,1.3c-0.3,0.4-1.7,0.2-2-0.3c-0.3-0.5-0.8-0.9-1.4-1.2c-0.3,0.5-0.1,1.4-1,1.5
			c-0.2,0-0.1,0.3,0,0.4c0.1,0.1,0.3,0.2,0.5,0.2c1.1-0.5,2,0.4,2.9,0.4c0.1,0.1,0.2,0.3,0.2,0.4c-0.3,1.3-0.5,1.4-1.7,0.6
			c-0.2-0.2-0.6-0.2-0.8,0c-0.3,0.2-0.9,0.3-0.9,0.8c0,0.3,0.2,0.7,0.7,0.4c0.2-0.1,0.3-0.3,0.6-0.3c0.2,0,0.3,0.1,0.4,0.3
			c0.1,0.8-0.4,1.5-1.2,1.7c0,0-0.1,0-0.1,0c-0.2,0-0.6-0.3-0.7,0c-0.1,0.5-0.9,0.6-0.9,1.2c0,0.5,0,0.8,0.6,0.9
			c0.8,0.2,0.8,0.4,0.3,0.9c-0.6,0.5-0.8,1.3-0.7,2.1c0.1,0.2,0,0.5-0.1,0.7c-0.7,0.7-0.3,1.6-0.7,2.4c0.6,0.2,0.8-0.3,1.2-0.3
			c0.5,0,0.4,0.6,0.8,0.7c0.4-0.1,0.4-0.6,0.9-0.7c-0.3-0.4-0.6-0.1-1-0.4c0.7-1,0.7-2.1,0-3.2c0.1-0.2,0.3-0.2,0.5-0.3
			c0.5-0.3,0.7-0.6,0.3-1.2c-0.2-0.4-0.3-0.8-0.4-1.2c-0.1-0.3,0.1-0.7,0.4-0.7c0,0,0,0,0.1,0c0.4-0.1,0.7,0,0.7,0.5
			c0,0.6,0.7,0.8,0.9,1.3c0.1,0.2,0.4,0.2,0.6,0.1c0.5-0.2,0.8,0.1,1.2,0.2c0.5,0.1,0.2,0.7,0.4,1c0.7,1.1,0.4,2.3,0.5,3.4
			c0,0.1,0,0.3-0.1,0.3c-1,0.2-0.6,1.2-1.1,1.6c0.2,0.3,0.4,0.2,0.6,0.1c0.1,0,0.3,0,0.3,0.2c-0.1,0.5-0.6,0.5-0.9,0.8
			c-0.2,0.2-0.4,0.1-0.5-0.1l-0.1-0.1c-0.2-0.3-0.5-0.8-0.9-0.6c-0.5,0.3-0.7,0.8-0.5,1.3c0.1,0.5,0.2,0.8-0.4,1
			c-0.5,0.2-0.5,0.6-0.3,1.1c0.4,1.1,0.4,1.5,0,2.7c-0.1,0.3-0.2,0.6-0.2,1c0.1,0.5-0.2,1.1-0.7,1.2c0,0-0.1,0-0.1,0
			c-0.2,0.1-0.5,0.2-0.4,0.5c0.1,0.3,0.4,0.4,0.7,0.2c0,0,0,0,0.1,0c0.3-0.1,0.3-0.5,0.8-0.6c-0.3,0.8-0.1,1.6-0.4,2.3
			c-0.3,0.7-0.5,0.8-1.1,0.3c-0.9-0.7-1.8-1.3-2.7-2c-0.2-0.2-0.4-0.2-0.6-0.2c0.3,0.7,0.8,1.3,1.5,1.8c0.5,0.3,0.9,0.8,1.1,1.3
			c0.1,0.4,0.4,0.8-0.2,1.1c-0.5,0.2-1,0.4-1.4-0.1c-0.2-0.3-0.5-0.5-0.5-0.9c0.1-0.7-0.5-1.1-0.7-1.6c-0.3-0.6-0.8-1-1.5-0.6
			c-0.2,0.1-0.5,0.1-0.5-0.2c-0.1-0.8-0.7-0.7-1.2-0.8c0,0.1-0.1,0.2-0.1,0.2c0.1,0.4,0.8,0.8,0.3,1.2c-0.4,0.3-0.9,0-1.3-0.3
			c-0.5-0.3-1.3-0.7-0.8-1.6c0.2-0.5-0.7-0.8-0.3-1.4c0.3-0.4,0.6-0.8,0.8-1.2c0.2-0.5,0-1-0.3-1.3c-0.7-0.7-0.8-1.3-0.2-1.9
			c0.4-0.4,0.7-0.6,0.6-1.3c-0.1-0.2,0.2-0.5,0.3-0.7c0.4-0.9,0.5-0.9-0.6-1.6c0.8-0.3,1.4-1.1,1.5-2c0.1-0.8,0.6-1.3,0.9-1.9
			c0.1-0.2,0.4-0.3,0.6-0.2c0,0,0,0,0,0c0.6,0.2,0.8-0.2,0.8-0.7c-0.1-0.8,0.2-1.5,0.8-2c0.1-0.2,0.2-0.4,0.3-0.6
			c0.2-0.7,0-1.4-0.3-1.6c-0.5-0.2-1.7,0.1-2,0.6c-0.3,0.3-0.4,0.8-0.8,0.9c-0.4,1.4-1,2.7-1.5,4c-0.6,1.8-1.4,3.5-2.1,5.2
			c-1.2,2.9-2.3,5.8-3.6,8.7c-1,2.1-1.6,4.3-2.6,6.5c-0.7,1.5-1.2,3.1-1.8,4.6c-0.7,1.7-1.5,3.4-2.3,5.1c-0.4,0.9-0.2,1.2,0.8,1.6
			c0.8,0.3,1.6,0.2,2.4,0.4c3.5,0.9,7.1,1.6,10.7,2.1c1,0.1,1.4,0,1.6-0.8c0.6-1.8,1.7-3.5,2.2-5.4c0.3-1.1,1.2-2,1.5-3.2
			c0.2-1,0.7-1.9,1.3-2.7c0.5-0.7,1.1-1.3,1-2.2c-0.1-0.4,0.1-0.8,0.3-1.1c0.2-0.2,0.3-0.5,0.4-0.8c0.3-1.3,0.9-2.4,1.4-3.7
			c0.8-2.4,2.1-4.6,2.9-7c0.4-1.4,1.3-2.6,1.8-4c0.7-2.2,1.4-4.4,2.6-6.3c0.1-0.1,0.1-0.2,0.2-0.3c0.3-1.8,1.4-3.4,1.8-5.1
			c0.6-0.7,1-1.6,1-2.6c0-0.1,0-0.1,0-0.2c0.6-0.2,0.8-0.7,0.5-1.3c0-0.1,0-0.2,0-0.3c0.7-0.4,0.6-1.1,0.8-1.8
			c0.2-0.1,0.2-0.3,0.2-0.5c0.2-0.1,0.3-0.4,0.2-0.6c0,0,0,0,0,0c0.1-0.2,0.1-0.5,0.2-0.7c0.7-0.5,0.7-1.4,0.9-2.1
			c0.3-0.7,1.5-1.2,2-0.6c0.4,0.3,0.9,0.6,1.4,0.8c0.6,0.3,1.2,0.3,1.8,0.6c1.2,0.6,2.4,1.1,3.6,1.5c1.5,0.6,2.8,1.4,4.3,1.8
			c0.3,0.2,0.7,0.4,1,0.6c1,0.6,2.1,1,3.3,1.3c1.1,0.2,2.2,0.8,3,1.6c0.2,0.2,0.5,0.3,0.8,0.3c0.7,0.2,1.5,0.2,2.2,0.6
			c1.3,0.7,2.6,1.2,4.1,1.3c0.2,0,0.3,0,0.5,0.1c0.7,0.3,0.8,0.7,0.3,1.2c-0.5,0.4-0.9,0.9-1.3,1.4c-0.9,1.1-1.8,2.2-2.7,3.2
			c-0.6,0.5-1,1.2-1.2,2c0.6,0.1,0.9,0,1.2-0.4c-0.3,0.4-0.6,0.5-1.2,0.4v0c-0.4,0.1-0.7,0.3-1,0.6l0,0c-0.6,0.6-1.4,1-1.3,2
			c-0.8,0.1-0.9,0.7-0.9,1.3c-0.3,0.1-0.6,0.4-0.6,0.7c-1.3,0.6-2.4,1.4-3.4,2.5c-0.8,0.1-1.5,0.6-2,1.3c-0.2,0.3-0.5,0.6-0.9,0.7
			c-0.3,0.1-0.6,0.3-0.8,0.6c-0.8,1-2.2,1.4-3,2.4c0,0-0.2,0-0.2,0.1c-1.5,0.4-2.9,1.3-4.3,1.9c-0.4,0.2-0.7,0.3-1.1,0.5
			c-1.5,0.3-2.8,1.4-3.2,2.9c-0.5,1.4-0.6,3-1.7,4.1c-0.1,0.1-0.2,0.3-0.2,0.5c-0.3,1.8-1,3.6-1.8,5.2c0,0.4,0,0.7-0.4,0.8l0,0.5
			c0.2,0.2,0.2,0.6,0,0.8c-0.5,0.7-0.6,1.6-1.2,2.4c-0.4,0.5-0.5,1.3-0.7,2c-0.1,0.3,0,0.6,0.5,0.5c0.3-0.1,0.6-0.1,0.9,0
			c0.2,0,0.3,0,0.5-0.1c0-0.2,0.1-0.2,0.2-0.1l0,0c0.7-0.6,1.6-0.5,2.5-0.7c0-0.2,0-0.4,0.3-0.5c2.5-0.4,4.8-1.2,7.1-2
			c1.1-0.4,2.2-0.8,3.4-0.9c0.1,0,0.1,0,0.2-0.1c0.1-0.7,0.3-1.1,1.1-0.8c0.6,0.3,1.2,0,1.5-0.6c0.1-0.3,0.4-0.5,0.6-0.6
			c1.2-0.4,2.3-1.1,3.4-1.7c0.6-0.3,1-0.2,1.1,0.5c0.5,0.1,0.6-0.3,0.8-0.6c0.6-0.1,0.9-0.7,1.3-0.9c1.3-0.6,2.6-1.2,3.5-2.4
			c0.1-0.1,0.1-0.1,0.2-0.1c1.3-0.6,2.5-1.5,3.5-2.5c0.5-0.5,1.2-0.7,1.9-0.5c0.8,0.2,0.8,0.1,0.9-0.7c0-0.7,0.4-1.3,1-1.6
			c0.5-0.2,1.2-0.5,1.2-1c0.1-1,0.8-1.3,1.5-1.5c0.4-0.1,0.7-0.4,0.7-0.8c0.1-0.5,0.3-0.9,0.7-1.1c0.5-0.5,1.2-0.8,1.3-1.6
			c0.1-0.7,0.7-1.3,1.4-1.5c0.4-0.1,0.8-0.3,0.9-0.7c0.2-0.7,0.8-1.1,1.1-1.7c0.5-0.7,0.8-1.4,1.1-2.1c0.3-0.8,0.8-1.5,1.4-2
			c0.7-0.6,1.5-1.1,1.3-2.3c0-0.2,0.1-0.3,0.2-0.5c1-0.9,0.5-2.7,2.1-3.1c0.1,0,0.2-0.4,0.3-0.7c0.1-0.5,0.1-0.9,0.1-1.4
			c0.9,0.3,0.7-0.5,0.9-1c0.9-1.3,0.6-3,1.6-4.3C2432,937,2432,936.9,2432,936.9 M2421.8,896.9L2421.8,896.9L2421.8,896.9
			 M2421.9,896.9l0.1,0L2421.9,896.9 M2422.3,896.7L2422.3,896.7c0.4-0.1,0.8,0.1,1.2,0.3C2423.1,896.8,2422.7,896.6,2422.3,896.7
			 M2430.4,891.8L2430.4,891.8c0.1-0.2,0.1-0.4,0.2-0.6C2430.4,891.4,2430.5,891.6,2430.4,891.8 M2418.5,883l0.1,0.1L2418.5,883
			 M2422.1,915.3c-0.1-0.1-0.3-0.2-0.4-0.2C2421.8,915.1,2422,915.2,2422.1,915.3 M2416.1,948.8c0-0.2,0-0.4-0.1-0.6
			C2416,948.4,2416.1,948.6,2416.1,948.8 M2419.1,935.6c0.1,0.5-0.8,1.5-1.2,1.5c-0.5,0-0.8-0.6-0.8-1.4c0-0.5,0.3-0.7,1-0.7
			C2418.5,934.9,2419,935,2419.1,935.6 M2413.6,937.5c0,0,0-0.1,0-0.1C2413.6,937.5,2413.6,937.5,2413.6,937.5 M2413.7,938
			L2413.7,938c0.1,0,0-0.2,0-0.4C2413.7,937.8,2413.8,937.9,2413.7,938 M2410.4,963.1c0-0.1-0.1-0.1-0.1-0.2
			C2410.3,962.9,2410.3,963,2410.4,963.1 M2410.2,962.5c0,0.1,0,0.2,0,0.3C2410.2,962.7,2410.2,962.6,2410.2,962.5L2410.2,962.5z
			 M2413.7,938L2413.7,938c-0.4-0.1-0.8-0.1-1.2-0.1C2412.9,937.9,2413.3,937.9,2413.7,938 M2412.3,938c0,0,0.1-0.1,0.1-0.1
			C2412.4,938,2412.3,938,2412.3,938 M2403.3,967.9c0.1,0.1,0.1,0.1,0.1,0.2C2403.3,968.1,2403.3,968,2403.3,967.9 M2427.7,939.5
			L2427.7,939.5c-0.1,0.3-0.1,0.6-0.2,0.9C2427.6,940,2427.6,939.8,2427.7,939.5 M2423.8,933.7L2423.8,933.7L2423.8,933.7
			L2423.8,933.7 M2391.9,880.6c0.3-0.1,0.3-0.2,0.2-0.4c-0.2-0.3-0.4-0.5-0.6-0.8c-0.4-0.6-0.4-0.9,0.2-1.4c0.7-0.5,0.9-0.6,2.3-0.7
			c-0.4,0.6-0.6,1.4-0.5,2.2c-0.5-0.1-0.7-0.5-1.2-0.5c-0.2,0.6,0.6,0.8,0.6,1.3c0,0.7,0.5,0.8,1,0.8c0.2,0,0.4,0,0.4,0.2
			c0,0.2-0.1,0.3-0.3,0.4c-0.6,0-0.8,0.4-1,0.9c-0.1,0.5-0.7,0.5-1,0c-0.2-0.4-0.5-0.7-0.7-1C2391,881.1,2391.2,880.8,2391.9,880.6
			 M2406.4,926.1c0,0.1,0,0.2,0,0.3C2406.4,926.3,2406.4,926.2,2406.4,926.1z M2406.4,926.5l0,0.2L2406.4,926.5 M2390.9,920.9
			c-0.3-0.1-0.3-0.3-0.4-0.5c-0.1-0.2-0.3-0.3-0.2-0.5c0.1-0.1,0.3-0.1,0.5-0.1c0.3,0,0.5,0.3,0.4,0.5
			C2391.2,920.5,2391.1,920.8,2390.9,920.9 M2396.3,922.4l0.1,0.1L2396.3,922.4z M2399.7,925.2c0,0.1,0,0.2,0,0.3
			C2399.8,925.4,2399.8,925.3,2399.7,925.2c0-0.1-0.1-0.2-0.1-0.2C2399.7,925.1,2399.7,925.1,2399.7,925.2 M2390.5,887l0.1,0.1
			L2390.5,887 M2390.8,887.5c0-0.1,0-0.2-0.1-0.3C2390.8,887.3,2390.8,887.4,2390.8,887.5c0,0.1-0.1,0.2-0.2,0.2
			C2390.7,887.7,2390.8,887.6,2390.8,887.5 M2392.8,894L2392.8,894c0,0.1-0.1,0.3-0.2,0.3C2392.7,894.3,2392.8,894.2,2392.8,894
			 M2390.4,895L2390.4,895c-0.1,0-0.2,0-0.3,0.1C2390.2,895.1,2390.3,895,2390.4,895 M2387.6,888.2c-0.1-0.1-0.2-0.2-0.3-0.3
			C2387.4,888,2387.5,888.1,2387.6,888.2 M2372.1,933.8c0.5-0.1,0.9-0.5,1.2-0.9C2373,933.4,2372.5,933.7,2372.1,933.8 M2402,857.5
			c-0.1,0-0.2-0.1-0.3-0.1C2401.8,857.4,2401.9,857.5,2402,857.5 M2401.2,857.3c-0.3,0-0.6,0.1-1,0.2
			C2400.6,857.4,2400.9,857.4,2401.2,857.3 M2377.9,939.1c-1,0.4-1.8,1.4-2.9,1.7c-0.3,0.1-0.6,0.2-0.3,0.6c0.2,0.2,0.3,0.5,0,0.6
			c-0.3,0.1-0.6,0.1-0.8-0.1c-0.2-0.1-0.3-0.3-0.3-0.5c0-0.4-0.4-0.7-0.8-0.6c-0.1,0-0.2,0-0.3,0.1c-0.7,0.3,0.1,0.7,0.1,1.1
			c-1.5,0.3-1.7,0.9-0.5,2.3c-0.5,0.1-0.9,0-1.1-0.5c-0.1-0.6-0.4-1.1-0.7-1.6c0-0.1-0.1-0.2-0.1-0.2c0.7-1.2,0.5-2.6,1.3-3.7
			c0.3-0.5,0.8-0.4,1.2,0c0.5,0.4,0.9,0.3,1.3-0.2c0.2-0.3,0.2-0.8,0.6-0.7c0.5,0.1,1.2,0.1,1.3,0.5c0.3,0.5,0.7,0.5,1.1,0.6
			c0.3,0.1,0.6,0.2,0.8,0.3C2378.1,938.7,2378.2,939,2377.9,939.1 M2411.6,935.7c0-0.4,0.3-0.7,0.7-0.7c0.5-0.1,0.4,0.4,0.4,0.7
			c0,0.4,0,0.8-0.4,0.8C2411.9,936.4,2411.6,936.1,2411.6,935.7C2411.6,935.7,2411.6,935.7,2411.6,935.7 M2393.7,969.5L2393.7,969.5
			c0-0.1,0-0.2,0-0.2C2393.6,969.3,2393.7,969.4,2393.7,969.5L2393.7,969.5 M2398,972.5c-0.2,0-0.4-0.1-0.4-0.4
			c0-0.2,0.2-0.3,0.3-0.3c0,0,0,0,0,0c0.3,0,0.5,0.2,0.5,0.4c0,0,0,0,0,0C2398.4,972.5,2398.2,972.5,2398,972.5 M2428.8,941.5
			c-0.1,0-0.2,0-0.4,0C2428.6,941.5,2428.7,941.5,2428.8,941.5c0.1,0,0.2,0.1,0.3,0.1C2429,941.6,2428.9,941.6,2428.8,941.5"/>
		<path id="Path_152" d="M2257.3,900.9c-0.1,0.3,0,0.7,0,1c0,0.2,0.1,0.3,0.3,0.4c1.5,0.4,2.9,1,4.4,1.1c0.6,0.1,1.3,0.1,1.9,0.4
			c0.8,0.5,1.6,0.7,2.5,0.8c0.7,0,1.3,0.7,2,0.6c1.2-0.1,2.4,0.2,3.4,0.8c0.3,0.2,0.6,0.2,0.9,0.2c0.6-0.1,1.2,0.1,1.7,0.2
			c1,0.2,1.9,0.6,2.9,0.7c0.4,0,0.7,0.1,1.1,0.1c0.9,0.2,1.8,0.7,2.7,0.7c1.7,0.1,3.2,0.9,4.8,1c1.2,0.1,1.4,0.1,2-1
			c0.5-1,0.4-2.1,0.9-3c0.8-1.4-0.1-2.7-1.6-2.9c-1.2-0.2-2.3-0.5-3.5-0.6c-0.9-0.1-1.8-0.2-2.6-0.5c-0.9-0.3-1.9-0.5-2.9-0.7
			c-1.1-0.2-2.3-0.1-3.2-0.6c-1.8-0.9-3.6-0.5-5.5-0.9c-0.1-0.2-0.3-0.4-0.1-0.6c0.4-0.3,0.8-0.6,1.3-0.7c1.1-0.2,2.2,0,3.2-0.6h0
			c1,0.1,1.9-0.4,2.8-0.8c0.1,0,0.2,0,0.3,0c0.1,0.1,0.1,0.2,0.2,0l0,0c0.3,0.1,0.6,0.1,0.8-0.2l0.8,0c0.5,0.5,0.8-0.5,1.3-0.3
			c0.5,0.2,0.8-0.3,1.1-0.6l0.9-0.2c0.1,0,0.2,0,0.2-0.1c0,0,0,0,0,0l0.3,0c1,0.2,1.8-0.2,2.6-0.7c0.4,0.1,0.9,0,1.3-0.2
			c0.8,0.3,1.7,0.1,2.3-0.5c0.3,0,0.5-0.1,0.8-0.3c0.3,0,0.6,0.1,0.7-0.2l0.3-0.1c0.1,0.1,0.2,0,0.3-0.1c0.5-0.2,0.9-0.7,1-1.2
			c0.5-2,1-3.9,1.5-5.9c0.2-0.9,0-1.3-0.8-1.8c-0.8-0.4-1.6-0.6-2.4-0.7c-2.6-0.5-5-1.4-7.6-1.9c-0.5-0.1-1.2,0-1.6-0.2
			c-1-0.5-2-0.7-3-0.9c-2.9-0.5-5.7-1.5-8.6-1.8c-1.5-0.1-2.9-0.7-4.3-1.1c-1-0.2-1.9,0.2-2,1.1c-0.2,1.4-0.7,2.6-1,3.9
			c-0.3,1.2-0.3,1.2,0.9,1.6c1.4,0.6,2.9,0.3,4.3,0.9c2.3,0.9,4.7,1.3,7.1,1.9c0.5,0.1,1.1,0.4,1.7,0.1c0.3-0.1,0.7,0,1,0.1
			c1,0.1,2,0.5,3,0.5c0.4,0,0.8,0.2,1.1,0.3c0.2,0,0.3,0.2,0.2,0.4c0,0,0,0,0,0c0,0.1-0.1,0.3-0.2,0.3c-0.9,0-1.5,0.6-2.4,0.6
			c-1.1,0.1-2.3,0.3-3.3,0.6c-0.6,0.2-1.2,0.3-1.9,0.3c-0.8-0.1-1.4,0-1.9,0.6c-0.2,0.3-0.6,0.2-0.9,0.3c-0.5,0.2-1.2-0.1-1.6,0.2
			c-0.7,0.6-1.4,0.6-2.3,0.5c-0.3,0-0.6,0-0.9,0.1c-0.9,0.4-1.7,0.9-2.7,0.7c-0.1,0-0.3,0.1-0.5,0.2c-0.7,0.4-1.5,0.7-2.3,0.7
			c-0.6-0.1-1,0.4-1.1,0.9c0,0,0,0,0,0.1c-0.2,0.8-0.4,1.7-0.6,2.5c-0.1,0.5-0.4,0.8-0.9,0.9c-0.9,0.2-0.9,0.4-0.5,1.3
			C2257.4,899.5,2257.7,900.1,2257.3,900.9"/>
		<path id="Path_153" d="M2477,896.9c-0.4-0.5-0.4-1.2-0.4-1.8c-0.1-1.3-0.5-1.7-1.8-1.7c-1,0-1.8,0.5-2.7,0.7
			c-1.6,0.3-3.1,0.6-4.7,1c-0.7,0.2-1.3,0.4-1.9,0.7c-0.8,0.3-1.2,0-1.4-0.8c-0.2-0.9-0.4-1.7-0.5-2.6c0-0.7-0.2-1.3-0.5-2
			c-0.2-0.5-0.9-0.8-1.4-0.6c-0.1,0-0.1,0.1-0.2,0.1c-0.6,0.4-0.3,0.9,0.1,1.3c0.2,0.2,0.4,0.4,0.2,0.7c-0.2,0.3-0.5,0.4-0.8,0.3
			c-0.9-0.1-1.5-1-1.3-2.1c0.1-0.3,0.2-0.6,0.1-1c-0.3-0.8-0.2-0.9,0.6-1.1c0.9-0.2,0.9-0.3,0.9-1.1c0-0.3-0.1-0.5-0.1-0.7
			c-0.2-1.1,0.2-1.4,1.3-1.1c0.3,0.1,0.6,0.2,0.9,0.2c0.2,0,0.4,0.1,0.5,0.3c0.6,0.8,1,0.9,1.8,0.6c0.5-0.2,1-0.4,1.6-0.4
			c1.3-0.1,2.6-0.4,3.8-0.9c0.5-0.2,1.1-0.4,1.7-0.5c0.6-0.1,1.1-0.6,1.1-1.3c0-0.1,0-0.2-0.1-0.3c-0.5-1.3-0.5-2.6-1-3.9
			c-0.5-1.2-0.8-1.7-2-1.2c-1.8,0.6-3.7,0.6-5.5,1.1c-1.4,0.4-2.8,0.5-4.2,0.8c-2.7,0.7-5.3,1.6-8.2,1.8c-0.4,0-0.6,0.3-0.7,0.7
			c-0.2,0-0.3,0-0.5,0.1c-0.2-0.3-0.5-0.4-0.8-0.2c-0.9,0.4-1.9,0.3-2.8,0.6c-0.5,0.1-1.1-0.2-1.6,0.2c-0.1,0.1-0.3,0.1-0.4,0.2
			c-1.2,0-2.1,0.7-3.3,0.8c-0.4,0.1-0.7,0.3-0.5,0.8c-0.1,0.2-0.1,0.4-0.1,0.7c-0.1,0.7,0,1.4,0.6,1.9c0,0.2,0,0.5,0.1,0.7
			c-0.2,0.8,0.2,1.5,0.2,2.4c0,1,0.9,1.4,1.8,1c0.3-0.1,0.6-0.2,0.8-0.3c3.2-0.7,6.3-1.5,9.3-2.6c0.6-0.2,0.7-0.4,0.5-1
			c-0.2-0.5,0-1.1,0.4-1.5c0.3,0.1,0.5,0.6,1,0.3c0.3-0.2,0.5,0,0.7,0.3c0.3,0.4,0.7,0.3,1.2,0.3c0,0.3,0,0.7-0.1,1
			c-0.3,0.7-0.6,0.8-1.2,0.3c-0.4-0.4-0.9-0.4-1.3-0.2c0.2,1.9,0.7,3.8,1.3,5.6c0.3,1,0.5,2,0.7,3.1c0.1,0.5-0.1,0.7-0.6,0.7
			c-0.4,0-0.9-0.1-1.3,0.1c-1.8,1.1-3.8,0.8-5.7,1.2c-1,0.2-2,0.1-3,0.5l-0.4-0.1c-1.6,0.1-2,0.7-1.3,2.4c0,0.1,0,0.2,0,0.2
			c0,0.2,0.1,0.2,0.2,0.2l0.2,0.3c-0.1,1,0.1,2.1,0.5,3.1c0,0.1,0.1,0.1,0.2,0.1c0,0.2,0.1,0.5,0.2,0.7c0.2,0.9,0.4,1.1,1.2,1
			c0.4-0.1,0.8-0.1,1.3-0.1c0.7,0,1.4,0.1,1.8-0.6c0.2-0.3,0.6-0.2,0.8-0.1c1.1,0.5,2,0,2.9-0.5c0.7-0.5,1.5-0.6,2.3-0.4
			c0.3,0.1,0.7,0,1-0.1c0.7-0.2,1.3-0.9,2.1-1c1.3-0.2,2.6-0.8,4-0.7c0.7,0,1.3-0.2,2-0.4c1.8-0.5,3.6-1.2,5.5-1.4
			c1.4-0.1,2.7-0.8,4-1.1c1.2-0.3,1.1-0.3,1.3-1.5C2477.6,898.3,2477.4,897.5,2477,896.9 M2453.3,887.6c0.2-0.1,0.2-0.4,0.2-0.7
			c0-0.2,0-0.5-0.1-0.6c0.2,0.1,0.1,0.4,0.1,0.6C2453.5,887.1,2453.5,887.4,2453.3,887.6"/>
		<path id="Path_154" d="M2271.3,862.8c0.7,0.2,1.4,0.7,1.8,1.3c0.5,0.7,1.3,1.2,2.1,1.4c0.6,0.2,1.2,0.5,1.8,0.9
			c0.8,0.6,1.5,1.3,2.3,1.7c1.7,0.9,3.2,2,4.9,2.8c2,0.9,3.6,2.3,5.5,3.4c1.2,0.7,2.3,1.5,3.5,2.1c0.5,0.2,0.9,0.5,1.3,0.9
			c0.6,0.9,2.2,1,2.7,0.2c0.4-0.7,1.1-1.3,1.4-2.1c0.9-1.9,2.3-3.5,3.1-5.5c0-0.1,0.1-0.2,0.3-0.3c0.4-0.2,0.5-0.6,0.7-1
			c0.6-1.1,1.1-2.4,2.2-3.2c0.6-0.4,0.9-1.1,0.9-1.8c0.1-0.7-0.2-1.4-0.9-1.6c-0.9-0.3-1.7-1-2.6-1.3c-1.2-0.4-1.9-0.3-2.5,0.7
			c-0.4,0.8-1,1.6-1.5,2.4c-0.7,1.2-1.5,2.5-2.2,3.7c-0.7,1.3-1.1,1.4-2.4,0.5c-0.1-0.1-0.3-0.2-0.4-0.2c-1-0.4-1.8-1.2-2.8-1.7
			c-0.5-0.3-0.8-0.9-0.6-1.4c0.1-0.4,0.2-0.7,0.5-1c1.5-1.5,2.3-3.4,3.5-5.1c0.2-0.3,0.4-0.7,0.5-1c0.2-0.5,0.2-1-0.3-1.2
			c-1-0.5-1.7-1.4-2.8-1.9c-1.8-0.7-1.8-0.8-2.8,0.9c-1.1,1.8-2.2,3.6-3.3,5.4c-0.8,1.4-0.8,1.4-2.4,0.7c-0.2-0.1-0.4-0.2-0.5-0.3
			c-0.5-0.5-1-0.8-1.7-1c-1.3-0.5-1.5-1.3-0.7-2.4c0.1-0.2,0.3-0.3,0.4-0.5c1.7-2.1,3-4.4,4.4-6.7c0.3-0.4,0.3-1.1-0.2-1.4
			c0,0-0.1,0-0.1-0.1c-1.1-0.6-2-1.5-3.2-2c-0.9-0.4-1.4-0.3-1.9,0.5c-1.3,1.9-2.4,4-3.9,5.8c-0.2,0.2-0.3,0.5-0.3,0.8
			c0.1,0.4-0.2,0.6-0.4,0.9c-0.3,0.4-0.6,0.7-0.8,1.2c-0.2,0.4-0.5,0.8-0.8,1.1c-1.2,1-1.8,2.4-2.4,3.8
			C2270.5,862.2,2270.6,862.5,2271.3,862.8"/>
		<path id="Path_155" d="M2302.8,960.1c-0.6-1-1.1-1.1-1.8-0.6c-1.3,0.8-2.7,1.5-3.8,2.5c-1.4,1.2-3.1,2-4.4,3.4
			c-0.6,0.6-0.8,0.5-1.3-0.2c-0.8-1.1-1.3-2.4-2-3.5c-0.7-1.3-1.6-2.6-2.5-3.7c-0.2-0.4-0.8-0.6-1.2-0.3c-1,0.4-1.9,0.9-2.8,1.5
			c-0.5,0.3-0.9,0.8-1.2,1.3c-0.2,0.2-0.2,0.6,0,0.8c0.8,1.1,1.4,2.4,2.4,3.4c0.4,0.4,0.6,0.9,0.8,1.4c0.3,1,1,1.8,1.5,2.7
			c0.3,0.6,0.4,0.8-0.4,1.1c-1.1,0.4-2.1,1.1-3,1.9c-0.6,0.4-1.3,0.7-2,0.7c-0.3,0.1-0.7-0.1-0.9-0.4c-0.6-1-1.4-2-1.8-3
			c-0.6-1.4-1.5-2.6-2.3-3.9c-0.7-1.1-1.4-1.3-2.4-0.5c-0.9,0.6-1.7,1.2-2.6,1.7c-0.4,0.3-0.6,0.7-0.6,1.2c-0.1,0.4,0.2,0.7,0.5,1
			c0.6,0.8,1.3,1.5,1.5,2.6c0.1,0.3,0.2,0.5,0.5,0.6c0.9,0.6,1.4,1.4,1.8,2.4c0.4,0.8,0.6,1.7,1.2,2.3c0.8,0.7,1.3,1.6,1.4,2.7
			c0,0.2-0.1,0.5,0.3,0.6c0.9,0.3,1.5,1,1.9,1.8c0.3,0.7,0.9,0.8,1.5,0.3c0.5-0.5,1.2-0.8,1.7-1.4c0.6-0.8,1.6-1,2.4-1.4
			c0.6-0.3,1-1.1,1.8-0.8c0,0,0.2-0.2,0.2-0.3c0-0.5,0.4-0.6,0.7-0.8c0.7-0.5,1.3-0.9,2-1.4c0.8-0.6,1.6-1.2,2.5-1.6
			c0.5-0.2,1-0.5,1.3-0.9c0.4-0.4,0.8-0.7,1.2-0.9c1.2-0.6,2.2-1.4,3.3-2.1c0.7-0.5,1.6-0.8,2.2-1.4c1.2-1.1,2.3-2,3.8-2.6
			c1-0.4,1.2-1.7,0.5-2.6C2304.1,962.3,2303.4,961.2,2302.8,960.1 M2286.9,976.2c-0.6,0.2-1.2,0.5-1.9,0.5c-0.6-1.2,0.7-1.4,0.9-2.2
			c0-0.2,0.4-0.1,0.4,0c0.3,0.8,1.3-0.1,1.5,0.7C2287.8,975.7,2287.3,976.1,2286.9,976.2"/>
		<path id="Path_156" d="M2265.3,935.1c0-0.7-0.1-1.4-0.3-2.1c-0.2-0.6,0.6-0.8,0.2-1.3c-0.4-0.5-0.3-1.1,0.1-1.5
			c0.3-0.4,0.9-0.3,1.3-0.7c0.3-0.3,0.7,0.3,1.1,0.5c0.1-0.5,0.5-0.8,1-0.9c1.3-0.2,2.5-0.6,3.8-0.6c1.2,0,2.3,0.1,3.5-0.3
			c0.2-0.1,0.3-0.1,0.5,0c2.1,0.1,4.1-0.8,6.2-0.6c0.3,0,0.6-0.1,0.9-0.2c0.4-0.1,0.7-0.2,1.1-0.2c1.4,0.3,2.6-0.3,3.9-0.6
			c0.5-0.1,0.7-0.4,0.6-0.9c-0.2-1.5-0.4-3-0.5-4.5c-0.1-0.4-0.2-0.7-0.3-1.1c-0.2-0.6-0.6-0.8-1.2-0.5c-0.5,0.3-1,0.4-1.6,0.3
			c-1.3-0.3-2.5,0.3-3.7,0.1c-0.2,0-0.4,0.1-0.6,0.2c-0.6,0.2-1.2,0.3-1.7,0.3c-0.3-0.1-0.6,0-0.9,0.1c-0.8,0.3-1.7,0.4-2.5,0.2
			c-0.4-0.1-0.8-0.2-1.1,0.1c-0.4,0.4-0.8,0.2-1.2,0c-0.3-0.1-0.6-0.5-0.9-0.1c-0.5,0.5-1.2,0.5-1.8,0.6c-1.9,0.3-3.9,0.5-5.8,0.9
			c-1.2,0.3-1.5,0.1-1.7-1.2c0-0.4,0-0.8-0.1-1.1c-0.1-1.3-0.3-2.5-0.5-3.8c-0.1-0.7-1-1.4-1.6-1.3c-1,0.2-2,0.1-3,0.2
			c-1,0.1-1.6,0.6-1.6,1.6c0,0.4,0,0.7-0.4,1c-0.5,0.3-0.5,0.8-0.1,1.2c0.6,0.6,0.9,1.3,0.9,2.1c0.1,1.1,0.3,2.2-1,2.7
			c-0.1,0.1-0.2,0.3-0.1,0.4c0,0,0,0,0,0c0.1,0.1,0.2,0.1,0.3,0.1c0.1,0,0.2-0.1,0.3-0.1c0.4-0.3,0.7-0.1,0.7,0.3
			c0.1,0.9,0.3,1.7,0.5,2.6c0.1,0.9-0.1,1.9,0.1,2.8c0.1,0.6,0.4,1.1,0,1.7c-0.2,0.3,0,0.3,0.2,0.4c0.3,0.1,0.3,0.4,0.3,0.6
			c0.1,0.5,0.1,1,0.1,1.5c0.2,1,0.1,1.9,0.4,2.9c0.2,0.6,0.4,0.9,1.2,0.8c1.2-0.2,2.4-0.3,3.6-0.5
			C2265.3,936.7,2265.5,936.5,2265.3,935.1"/>
		<path id="Path_157" d="M2270.7,955.1c-0.1-1.1,0.4-2.1,1.4-2.6c1-0.5,2.1-1.1,3.2-1.2c1.1-0.2,2.1-0.6,3.2-1
			c0.4-0.2,0.8-0.3,1.2-0.5c1.4-0.3,2.8-0.8,4.2-1.4c1.4-0.6,2.9-0.9,4.2-1.6c0.1-0.1,0.3-0.1,0.3,0c0.4,0.6,1.4,0.6,1.6,1.5
			c0.2,0.7,0.7,0.9,1.4,1c1.1,0.1,1.9-0.5,2.9-0.8c0.8-0.3,0.9-0.8,0.8-1.7c-0.1-1.1-0.9-1.9-1.1-3c-0.2-1-0.6-2-1.1-2.9
			c-0.6-0.9-0.4-2.1-1.2-2.9c-0.1-0.1-0.1-0.2,0-0.4c0.4-1-0.4-1.4-0.8-2.1c-0.5-0.9-1.3-0.9-2.2-0.6c-0.3,0.1-0.6,0.1-0.9,0.1
			c-1,0.2-1.5,0.9-1.7,1.8c-0.1,0.5,0,1,0.1,1.5c0.2,1.1-0.5,2.1-1.4,2.2c-1.5,0-2.6,1.4-4.2,1.1c-0.1,0-0.2,0.1-0.3,0.2
			c-0.7,0.5-1.6,0.8-2.4,1c-1.5,0.4-3.1,0.9-4.5,1.6c-1.4,0.7-2.8,1.3-4.4,1.6c-1.1,0.2-1.4,0.1-1.9-0.9c-0.7-1.3-1.8-1.7-3.2-1.2
			c-0.3,0.1-0.6,0.2-0.9,0.4c-0.3,0.2-0.9,0-1,0.6c-0.1,0.5-0.3,0.9-0.2,1.4c0.4,1.1,0.8,2.1,1.3,3.2c0.7,1.3,1.2,2.7,1.5,4.1
			c0.3,1,0.9,2,0.8,3.1c0,1,0.8,1.5,1.8,1.5c1.6,0.1,3-0.9,3.5-2.5C2270.7,955.5,2270.7,955.3,2270.7,955.1"/>
		<path id="Path_158" d="M2295.5,846.7c2.7,1.7,5.6,1.3,8.5,0.6c2.2-0.5,4.3-1.4,6.6-0.9c0.3,0.3,0.7,0.6,1.1,0.8
			c0.6,0.7,0.6,1.4,0.3,2.2c-0.4,1.2-1.4,1.9-2.3,2.5c-1.6,1-3.2,2-5.3,2.2c-1.7,0.2-1.8,1.3-0.9,2.4l0.1,0.1c1,0.8,1.9,1.7,2.6,2.8
			c0.4,0.5,0.9,0.6,1.6,0.4c1.2-0.3,2.4-0.8,3.5-1.4c1.1-0.7,1.9-1.7,3.1-2.4c0.1,0,0.1-0.2,0.2-0.3c0.1-0.3,0.4-0.6,0.7-0.7
			c1.9-1.6,3.3-3.4,3.3-6c0-0.3,0-0.7,0-1c0.2-1.1,0-2.2-0.5-3.2c-1.3-2.8-3-4.6-6.3-5.3c-0.6-0.1-1.3-0.1-1.9-0.2
			c-1-0.2-2-0.1-3,0.2c-1.9,0.6-3.7,1-5.6,1.6c-1.1,0-2.2-0.4-3.1-1c-0.3-0.2-0.5-0.5-0.5-0.8c-0.6-1.4-0.4-2.6,0.9-3.5
			c0.2-0.2,0.5-0.3,0.7-0.5c1-0.3,1.8-1,2.6-1.6c0.6-0.2,1.3,0,1.8-0.5c0.6-0.5,0.7-1.4,0.3-2.1c-0.2-0.3-0.3-0.7-0.2-1
			c0-0.3-0.1-0.7-0.3-0.9c0-0.3,0.2-0.6-0.2-0.7c-0.1-0.2-0.3-0.4-0.4-0.6c-0.1-0.2-0.3-0.3-0.5-0.2c-0.2,0-0.5,0-0.7,0
			c-0.1,0-0.3,0-0.3,0.1c-1.7,0.7-3.5,1.3-5,2.5c-1.8,1.4-3.6,2.9-4.5,5.1c-0.7,1.5-1,3.1-0.8,4.7
			C2291.4,843.1,2293.1,845.2,2295.5,846.7 M2314.1,842.6c0,0,0.1,0.1,0.2,0.1C2314.2,842.6,2314.2,842.6,2314.1,842.6"/>
		<path id="Path_159" d="M2393.4,835.7L2393.4,835.7c-0.8,0.4-1.1,0.9-0.6,1.5c0.2,0.4,0.6,0.6,1,0.7c0.6,0.1,1.1,0.4,1.6,0.8
			c0.6,0.4,1.2,0.8,1.9,0.9c0.9,0.3,1.2,0.1,1.7-0.6c0.2-0.4,0.4-0.8,0.8-1c0.6-0.3,0.9-0.8,1.2-1.3c0.9-1.5,2.3-2,3.9-1.2
			c1.1,0.6,2.2,1.2,3.3,1.9c1,0.7,2.4,1,3.6,1.5c0,0.4-0.3,0.7-0.2,1c-0.3,0.1-0.3,0.5-0.3,0.8c-0.1,0.1-0.1,0.1-0.1,0.2
			c-0.2,0.1-0.3,0.2-0.3,0.4c0,1.3-0.5,2.4-0.6,3.6c-0.2,1.5-0.2,1.5,1.2,2.2c0.6,0.3,1.5,0.1,2,0.8c0.5,0.6,1.3,0.6,1.9,1
			c0.4,0.3,1-0.1,1.2-0.6c0.2-0.4,0.3-0.8,0.3-1.2c0-0.6,0-1.2,0.2-1.8c0.2-0.5,0.2-1.1,0-1.6c-0.1-0.6,0-1.2,0.3-1.7
			c0.6-0.9,0.8-2,0.7-3.1c-0.1-0.5,0-1,0.3-1.5c0.6-1.3,0.7-2.7,0.7-4.1c0.1-2.6,1.2-5,0.9-7.7c0-0.2,0.2-0.5,0.2-0.7
			c0-0.2,0-0.4-0.2-0.6c-0.7-0.7-0.7-0.8-0.2-1.5c0.6-0.8,0.6-0.8-0.3-1.4c-0.2-0.1-0.3-0.4-0.5-0.3c-0.8,0.7-1.7,1.4-1.1,2.7
			c0.1,0.3-0.1,0.6-0.4,0.6c0,0-0.1,0-0.1,0c-0.3-0.5-0.3-1.2-1.1-1.6c-0.3,0.3-0.9,0.4-1.1,1c-0.2,1-0.8,1.9-1,2.9
			c-0.2,0.9-0.6,1.8-0.7,2.7c0,0.8-0.2,1.5-0.4,2.2c-0.2,0.5-0.2,1.1-0.1,1.6c-0.1,0-0.2,0.1-0.3,0.1c-0.2-0.2-0.5-0.3-0.8-0.4
			c-0.8-0.2-1.2-1.1-2-1c-0.9,0.1-1.5-0.6-2.2-1c-0.5-0.3-0.6-0.9-0.3-1.3c0,0,0,0,0,0c0.1-0.3,0.3-0.5,0.5-0.7
			c0.2-0.2,0.5-0.4,0.3-0.8c-0.2-0.3-0.6-0.4-0.9-0.3c-0.2,0-0.3,0.1-0.5,0.2c-0.3,0.1-0.6,0.1-0.7-0.2c-0.2-0.4-0.1-0.8,0.1-1.1
			c0.2-0.2,0.5-0.2,0.7-0.1c0.1,0.1,0.3,0.2,0.4,0.3c0.2,0.1,0.5,0.2,0.7-0.1c0.1-0.3,0-0.4-0.3-0.6c-1-0.4-1-0.7-0.4-1.5
			c0.3-0.4,0.6-0.9,1.2-0.9c0.7-0.1,0.9-0.5,0.8-1.1c-0.1-0.5,0.1-0.9,0.6-0.9c0.9,0,1.1-0.8,1.5-1.3c0.7-1,1.3-2.1,1.9-3.2
			c0.2-0.4,0.4-0.7,0-1c-0.3-0.3-0.6,0-0.9,0.2c-0.6,0.5-1.1,1.2-1.7,1.7c-1.6,1.5-3.2,3-4.7,4.6c-0.6,0.6-1.4,1.1-1.9,1.9
			c-0.7,0.5-1.1,1.3-1.8,1.9c-0.1,0-0.2,0-0.3,0.2c-0.8,0.8-1.7,1.4-2.4,2.3c-1.4,1.6-3.2,3-4.4,4.7
			C2394.6,834.1,2393.8,834.7,2393.4,835.7"/>
		<path id="Path_190" d="M2374.4,834.6c0.5,0.2,1.1,0.3,1.6,0.3c1.3,0.1,2.6,0,3.8,0.6c1.5,0.7,3.1,0.6,4.7,0.5
			c0.2,0.1,0.4,0.1,0.7,0.2c0.4,0.8,1.1,0.3,1.7,0.5c1,0.4,2,0.4,3,0.2c0.6-0.1,0.9-0.3,1-0.9c0.1-1.1,0.3-2.2,0.5-3.3
			c0.2-0.5,0-1-0.4-1.3c-0.3-0.2-0.3-0.7-0.5-1c-0.7,0.5-1.5,0.1-2.2,0.4c-0.2,0-0.3,0-0.5,0c0-0.1-0.1-0.2-0.1-0.2
			c-1.3-0.3-2.6-0.5-3.9-0.7c-0.4-0.1-0.9-0.2-1.3,0.3h-0.5c-0.7-0.5-1-1.1-0.7-2c0.1-0.3,0.1-0.6,0.1-0.9c0.2-1.2,0.4-2.4,0.7-3.6
			c0.1-0.5,0.5-0.9,1-0.8c0,0,0,0,0,0c1,0,1.9,0.2,2.9,0.6c0.8,0.3,1.5,0.6,2.4,0.3c0.5-0.1,0.9,0,1.4,0.2c0.4,0.2,0.8,0.3,1.2,0.3
			c0.7,0.1,0.9-0.1,1-1l-0.2-0.1c-0.1-0.1-0.2-0.1-0.3-0.2c0.1,0.1,0.2,0.1,0.3,0.2l0.2,0.1l0.1-0.4c0.6-0.6,0.6-0.9,0.1-1.6
			c0.1-0.7,0.5-1.3,0.3-2c0.1-0.3,0.1-0.5-0.2-0.6c-0.1-0.1-0.2,0.1-0.2,0.2c-0.3-0.3-0.7-0.4-1-0.3c-0.6-0.6-1.2-0.4-1.8-0.2
			c-0.2-0.1-0.5-0.2-0.7-0.1c-0.1-0.1-0.1-0.3-0.2-0.3c-1.1-0.3-2.3-0.7-3.5-0.6c-0.6,0.1-1.1-0.1-1.5-0.5c-0.5-0.7-1.2-1-1.9-1.4
			c-0.2-0.2-0.6-0.2-0.6-0.6c0.2-0.2,0.5-0.3,0.8-0.4c0.8-0.3,1-0.6,0.9-1.4c0-0.4-0.2-0.7-0.6-0.5c-0.2,0.1-0.3,0.3-0.4-0.1
			c-0.1-0.7-0.5-1.4-1.1-1.8c-0.1-0.1-0.1-0.3,0-0.5c0.1-0.1,0.3-0.3,0.4-0.1c0.5,0.5,1,0.1,1.6,0c0.4-0.1,0.7-0.2,1.1-0.3
			c0.2,1,0.6,1.4,1.7,1.3c0.7,0,1.4-0.1,2.1-0.2c0.3-0.5-0.3-0.8-0.2-1.2c0.3-0.2,0.7-0.5,1-0.7c0.4,0.4,0.2,1.2,0.7,1.3
			c0.8,0.1,1.2,1.1,2.1,0.9c0.1,0,0.2,0.1,0.3,0.2c0.5,1.1,1.5,1,2.4,1.1c0.8,0.1,1.4-0.1,1.4-0.9c0-1.1,0.4-2.1,0.3-3.2
			c0-0.3-0.1-0.7-0.2-1c0-0.2-0.2-0.3-0.4-0.3c-0.2,0-0.4,0.1-0.5,0.3c0,0.1,0,0.2,0,0.4c0.1,0.5,0.3,0.9-0.5,1c-0.8,0.1-0.9,0-1-1
			c-0.1-0.8-0.4-1.1-1.1-1.2c-0.2,0-0.3-0.1-0.5-0.1c-0.5-0.2-4.6-0.7-5.1-0.5c-0.5,0.2-0.9,0.1-1.2-0.4c-0.1-0.4-0.6-0.6-1-0.5
			c0,0,0,0-0.1,0c-0.8,0.3-1.4,0-2-0.3c-0.5-0.3-1.1-0.5-1.7-0.5c-1.3-0.1-2.1,0.5-2.3,1.7c-0.2,1.7-0.4,3.5-0.6,5.2
			c0,0.3-0.2,0.6,0.1,0.8c0.2,0.1,0.3-0.1,0.5-0.2c0.7-0.3,1.5-0.2,1.6,0.1c0.2,0.4-0.4,1.2-1,1.4c0,0-0.1,0-0.1,0
			c-1.3-0.3-1.6,0.5-1.7,1.6c-0.1,0.3-0.2,0.6-0.3,0.8c-0.1,0.3-0.1,0.5,0.1,0.7c0,0.2,0,0.3,0,0.5c-0.3,0.1-0.5,0.2-0.3,0.6
			c-0.1,0.1-0.1,0.2-0.2,0.3l-0.1,0c-0.1,0.1-0.1,0.1,0,0.2c0,0.2,0,0.3,0,0.5c0,1.2-0.9,2.3-0.5,3.5c0.1,0.3-0.2,0.6-0.3,0.9
			c-0.2,1.1-0.8,2.2-0.3,3.3l-0.1,0.1c-0.5,0.5-0.5,1.1-0.2,1.7c-0.1,0.2-0.2,0.5-0.1,0.7c-1.1,0.5-0.5,1.3-0.5,2.1l-0.1,0.5
			c-0.4,0.3-0.8,0.7-0.9,1.2C2372.8,833.4,2373.6,834.4,2374.4,834.6 M2387.6,819.8c0-0.1,0-0.1-0.1-0.1
			C2387.6,819.7,2387.6,819.7,2387.6,819.8 M2391,822.9c0.1,0,0.1,0,0.2,0C2391.2,822.9,2391.1,822.9,2391,822.9"/>
		<path id="Path_160" d="M2419.3,850.1c-1.4,1.1-1.4,1.9,0,3.1c1.4,1.7,3.1,3,4.5,4.6c0.6,0.6,1,1.2,1.6,1.8c1.4,1.3,3,2.4,4.2,3.8
			c0.5,0.5,0.8,0.5,1.4,0.1c0.8-0.7,1.4-1.6,2.2-2.3c0.2-0.2,0.3-0.5,0.3-0.8v0c0.6-0.6,0.7-1,0.2-1.4c-0.3-0.2-0.6-0.4-0.9-0.5
			c-0.3-1-1.2-1.2-1.8-1.8c-0.2-0.6-0.7-0.8-1.2-1.1c0-0.2-0.2-0.4-0.3-0.5c-0.3-0.9-1-1.4-1.7-2c-0.5-0.4-0.7-0.8-0.5-1.4
			c0.1-0.2,0.1-0.4,0.2-0.6c0.1-0.8-0.1-1.2-1-1.5c-0.4-0.1-0.8-0.2-1.2-0.4c-0.6-0.2-0.7-0.5-0.1-0.8c0.5-0.2,0.7-0.7,1.3-0.8
			c0.2,0,0.3-0.2,0.3-0.4c-0.2-0.5,0.1-0.8,0.5-1c0.4-0.2,0.7-0.7,0.7-1.2c0-0.7,0.5-1.3,1.3-1.4c0.8-0.1,1.1-0.6,1.1-1.5
			c0.6,0.5,1.1,0.5,1.6,0c0.3-0.3,0.9-0.2,1.3,0c0.6,0.3,1.3,0.5,1.9,0.7c0.4,0.2,0.9,0.1,1.2-0.3c0.8-0.8,1.5-1.6,2.2-2.4
			c1.4-1.6,2.7-3.2,4.4-4.5c0.9-0.7,0.7-1.4-0.4-1.8c-0.3-0.2-0.4-0.9-1-0.7c-0.1-0.9-0.8-1.4-1.3-1.9c-0.9-1-0.9-0.9-2-0.1
			c-1.3,0.9-2.2,2.2-3.4,3.2c-1,0.8-1.9,1.9-2.9,2.8c-0.2,0.1-0.3,0.3-0.4,0.5c-0.4,0.8-1,1.4-1.7,1.9c-0.5,0.4-1,0.7-1.2,1.3
			c-0.1,0.1-0.2,0.2-0.2,0.3c-0.4,0-0.7,0.4-0.9,0.6c-1.6,1.6-3.2,3.2-4.8,4.9c-0.4,0.4-0.8,1-1.1,1.6c-0.7-0.1-0.8,0.5-1.3,0.8
			C2419.7,849.1,2419.5,849.6,2419.3,850.1"/>
		<path id="Path_161" d="M2475.4,934.9c0.3-1.3-0.3-2.2-1.1-3.1c-0.3-0.3-0.5-0.6-0.6-0.9c-0.3-0.7-0.9-1.2-1.6-1.3l0,0
			c-0.3-0.9-0.6-1.5-1.6-1.9c-0.7-0.3-1.6-0.7-2-1.4c-0.4-0.7-1-0.8-1.6-1c-0.9-0.3-2.1,0-2.8-0.9c-0.1-0.1-0.5-0.1-0.7-0.1
			c-0.4,0-0.8-0.1-1.2-0.2c-1.1-0.5-2.4-0.7-3.6-0.4c-0.4,0.1-0.9,0.1-1.3,0c-1.4-0.5-2.7,0.3-4.1,0.4c-1.2,0.1-2.3,0.8-3.4,1.3
			c-0.8,0.4-1.5,1.1-2.3,1.4c-0.4,0.2-0.8,0.5-0.8,1c0,0.1-0.1,0.1-0.1,0.2c-0.9,0.5-1.6,1.4-1.8,2.5c-0.2,1.2-0.5,2.4-1,3.5
			c-0.4,0.9-0.6,1.9-0.6,3c-0.1,1.4-0.1,2.8,0,4.2c0,0.3,0.1,0.7,0.3,1c0.7,1.2,3.2,1.9,4.6,1.3c0.1-0.1,0.3-0.1,0.3-0.2
			c0.1-0.9,0.8-1.6,0.5-2.6c-0.2-0.6-0.5-1.3-0.1-2c0.3-0.5,0.4-1,0.3-1.6c0-0.9,0.2-1.7,0.6-2.4c0.3-0.5,0.5-1,0.3-1.6
			c-0.1-0.3,0-0.6,0.3-0.8c1.6-1.2,3.1-2.6,5.3-2.4c0.2,0,0.4-0.1,0.6-0.3c0.3-0.2,0.6-0.2,0.9-0.2c1,0,2.1,0.2,3.2,0.1
			c0.2,0,0.4,0,0.6,0.1c1.2,0.5,2.4,0.5,3.6,0.7c0.3,0.4,0.7,0.4,1.1,0.5c0.5,0.1,1.1,0.3,1.5,0.6c0.8,0.8,1.9,1.1,2.5,2.1
			c0.2,0.3,0.4,0.4,0.7,0.5l0.2,0.3c0,0.3,0.1,0.6,0.2,0.9c0.7,1.2,1,2.6,0.9,4c0,0.1,0.1,0.2,0.1,0.2c-0.1,0.4-0.2,0.8-0.2,1.2
			c-0.2,0.1-0.3,0.3-0.2,0.5c0,0,0,0,0,0.1c0,0.2-0.1,0.3-0.1,0.5c-0.7,1.5-1.4,2.9-2.6,4.1c-0.2,0.2-0.3,0.6-0.3,0.9
			c0.2,1,2.1,2.6,3.1,2.6c0.5,0,0.9-0.2,1.2-0.7c0.4-0.8,0.9-1.5,1.6-2.1c0.3-0.2,0.4-0.6,0.4-0.9c0-0.2,0-0.5,0.2-0.6
			c0.7-0.4,0.5-1.1,0.7-1.6c0.2-0.8,0.2-1.6,0.3-2.3c0.3-1.5,0.5-3.1,0.2-4.7C2475.6,935.8,2475.3,935.3,2475.4,934.9 M2469.3,929.3
			L2469.3,929.3l0.1,0L2469.3,929.3 M2467,930.6c0-0.3,0.2-0.3,0.5-0.3v0C2467.2,930.3,2467,930.4,2467,930.6"/>
		<path id="Path_162" d="M2439.8,864.8c-0.6,0.6-1.3,1.1-2.1,1.4c-1,0.5-2,1.1-3.1,1.4c-1.1,0.4-1.3,1.4-0.7,2.4l0.3,0.5
			c0.4,1.2,1,2.3,1.8,3.3c1.1,1.3,1.4,1.3,2.2-0.3c-0.2-0.1-0.5-0.3-0.7-0.5c-0.2-0.3-0.6-0.2-0.8-0.4c-0.5-0.4-0.5-0.9,0-1.3
			c0.2-0.2,0.4-0.3,0.7-0.3c0.6,0.1,1.2-0.2,1.6-0.7c0.5,0.2,0.3,0.9,0.9,0.9c0.6-0.1,0.6-0.7,0.8-1c0.2-0.3,0.2-0.7,0-0.9
			c-0.1-0.2-0.3-0.4-0.1-0.6c0.5-0.3,0.4-1,0.7-1.3c0.6,0.1,0.4,1.1,1.3,0.8c0.8-0.3,0.9-0.1,1,0.9c0,0.1,0.1,0.2,0.1,0.3
			c1.6,0.3,3.2-0.3,4.3-1.4c0.7-0.6,1.4-1.1,2.2-1.4c0.4-0.2,0.8-0.4,1.2-0.6c1.4-0.7,2.7-1.8,4.1-2.6c0.7-0.4,1.6-1.1,1.6-2.3
			c-0.6-0.3-1.2-0.2-1.7,0.2c-0.2,0.2-0.6,0.2-0.6-0.1c-0.2-1.1-1-1-1.7-1.1c-0.6-0.1-0.9-0.6-0.4-0.9c0.8-0.6,0.5-1.2,0.4-1.9
			c-0.4,0-0.8,0.1-1.2,0.2c-1.2,0.6-2.3,1.4-3.5,2c-0.8,0.4-1.6,0.7-2.2,1.5l-0.5,0.3c-0.6,0.4-1.5,0.4-1.9,1.2
			c-0.1,0.1-0.2,0.2-0.3,0.3c-0.9,0.3-1.6,0.9-2.3,1.3C2440.9,864.3,2440.2,864.3,2439.8,864.8 M2445.8,868.3c0.2,0,0.3-0.2,0.3-0.4
			c0-0.3-0.1-0.5-0.4-0.5c0.3,0,0.4,0.2,0.4,0.5C2446.1,868.1,2446,868.3,2445.8,868.3"/>
		<path id="Path_163" d="M2316.1,830.1c0.5,1.2,1.7,1.3,2.6,1.9c0.8,0.5,1.9,0.7,2.9,0.7c1.4,0.5,2.9,0.3,4.3,0.2
			c1.1-0.1,2.2,0,3.3,0.4c1.4,0.5,1.8,1.4,2.1,2.6c0.2,0.7,0.1,1.4-0.6,1.8c-0.2,0.1-0.4,0.4-0.4,0.6l0,0c-0.1,0-0.3,0.1-0.3,0.2
			c-0.7,0.2-1.4,0.4-2,0.7c-1.1,0.4-2,0.9-3.3,0.7c-1-0.2-2.2,0-3.2,0.3c-0.6,0.1-0.9,0.5-0.6,1c0.6,1,0.7,2.2,1.7,2.9
			c0.1,0.2,0.1,0.3,0.1,0.5c0.6,1.7,0.9,1.9,2.6,1.5c0.4-0.1,0.7-0.2,1.1-0.3c0.1,0.1,0.2,0,0.3-0.1c0.7,0,1.4-0.4,2.1-0.5
			c1.6-0.2,3-1,4.3-1.9c0.7-0.5,1.3-1.1,2.1-1.6c0.8-0.4,1.4-1.3,1.5-2.2c0.1-0.7,0.3-1.3,0.7-1.9c0.2-0.3,0.3-0.7,0.3-1.1l0.1-0.7
			c0.4-0.2,0.3-0.5,0.1-0.8c0-0.2,0-0.3,0-0.5c0,0,0.1,0,0.1-0.1c0-0.1,0-0.1-0.1-0.1c0-1.4-0.6-2.8-1.5-3.9c0-0.1-0.1-0.2-0.2-0.3
			c0,0,0,0,0,0c-0.3-0.4-0.2-1.1-1-1.1l-0.3-0.2c-0.6-0.8-1.5-1.3-2.4-1.6c-2-0.5-4-1-6-0.7c-0.1-0.2-0.3-0.2-0.5-0.1c0,0,0,0,0,0
			c-0.1,0-0.3,0-0.4-0.1c-0.3-0.1-0.6-0.2-0.9-0.1c-1.2,0.2-2.5-0.1-3.5-0.7c-0.6-0.3-1.4-1.7-1.2-2.1c0.4-0.7,0.4-1.6,0.7-2.3
			c0.2-0.6,0.5-0.9,1.2-0.9c1.8-0.1,3.5-0.5,5.2-0.8c0.8-0.1,1.5-0.9,1.3-1.6c-0.2-0.8,0-1.6-0.2-2.4c0.1-1.6,0-1.8-1.6-1.8
			c-0.3,0-0.6,0-0.9,0c-0.2-0.1-0.4,0-0.5,0.2c-0.3,0-0.7,0.1-1,0.1c-0.2-0.1-0.4,0-0.5,0.1c-0.9,0-1.8,0.5-2.7,0.6
			c-1.2,0.2-2.3,0.8-3.2,1.7c-0.4,0.3-0.7,0.6-1.1,0.9c-2.4,1.8-3.6,4.8-3,7.8C2313.7,826.9,2314.4,828.9,2316.1,830.1"/>
		<path id="Path_164" d="M2447.5,918.2c0.8,1,1.9,1.3,2.8,0.8c1.2-0.7,2.5-1.3,3.3-2.6c0.7-1.2,0.7-2.6-0.5-3.4
			c-0.5-0.3-1-0.5-1.4-0.8c-0.5-0.3-1.1-0.5-1.7-0.4c-0.3,0.1-0.7,0.1-1,0.1c-0.9-0.1-1.5,0.4-2,1l0,0c-0.6,0.2-0.6,0.8-0.6,1.3
			c-0.1,0.5-0.3,1-0.7,1.4c0.4,0.2,0.6,0.5,0.7,0.9C2446.4,917.2,2447,917.7,2447.5,918.2"/>
		<path id="Path_191" d="M2340.6,810.4l0,0.3l0.3,1.7c0.1,0.9,0.1,1.9,0.4,2.9c0,0.5,0,1,0.1,1.5c0.2,1.6,0.4,3.2,0.7,4.8
			c0.2,1.5,0.5,3.1,0.7,4.6c0.3,1.9,0.7,3.8,0.9,5.7c0.2,1.5,0.4,3,0.7,4.5c0,0.5,0.4,0.8,0.9,0.8c0.1,0,0.1,0,0.2,0
			c1.6-0.2,3.3-0.3,4.8-0.9c0.9-0.3,1.1-0.7,0.9-1.6c-0.2-1-0.3-1.9-0.6-2.9c-0.2-0.8,0.1-1.5-0.2-2.3c-0.3-0.8-0.5-1.6-0.6-2.5
			c0.4-0.5,0-0.9-0.3-1.3l0-1c0-0.5,0-1,0.1-1.6c0.3,0,0.7-0.1,1-0.1c0.3,0.1,0.6,0.2,0.9,0c0.7-0.6,1.5-0.3,2.2-0.5
			c0.4-0.1,0.7,0.3,1.1-0.1c0.2,0,0.4,0,0.5,0c0.9-0.4,1.9-0.1,2.9-0.5c0.4-0.1,0.5,0.3,0.6,0.5c0.3,2.2,0.6,4.4,0.8,6.5
			c0,0.6,0.1,1.2,0.2,1.8c0.2,0.6,0.3,1.2,0.2,1.7c-0.1,1.3,0.7,2.1,1.9,1.9c1.4-0.2,2.9-0.3,4.2-0.8c0.8-0.3,1-0.6,0.9-1.4
			c-0.1-0.6-0.3-1.2-0.4-1.7c0.1-0.1,0.2-0.2,0.2-0.3c-0.1-1.3-0.2-2.6-0.5-3.8c-0.3-1.2,0-2.4-0.6-3.5c-0.2-0.4,0.1-0.7,0.1-1.1
			c0.1-0.3,1-0.7,0-1.1c-0.1-0.1,0-0.2,0.1-0.3c0.2-0.3,0.2-0.6-0.1-0.6c-0.8-0.1-0.7-0.6-0.7-1.1c0-0.6-0.1-1.1-0.2-1.6
			c-0.1-1.4-0.7-3,1-3.9c-1.8-1.4-2.9-3-2.7-5.3c0-0.3,0-0.6-0.1-0.9c-0.3-0.6-0.4-1.2-0.4-1.9c-0.1-0.4-0.1-0.9-0.4-1.2
			c-0.5,0.3-1.1,0.2-1.6,0.2c0.1,0,0.2-0.1,0.3-0.1c-0.7,0-1.4-0.2-2,0.2c0.1,0,0.3,0,0.4,0c-0.8,0.2-1.6,0.5-2.5,0.2
			c-0.4-0.1-0.9,0.6-0.8,1.1c0.4,1.5,0.6,3.1,1,4.7c0.1,1.5,0.2,3.1,0.4,4.6c0.2,1.2,0.1,1.3-1,1.6c-0.1,0-0.1,0.1-0.2,0.2
			c-0.1,0-0.2,0-0.3,0c-0.1,0-0.3,0-0.3,0.2l-1,0.1c-0.3-0.2-0.8-0.1-1.1,0.1c-1.3,0.3-2.6,0.3-4,0.7c-1.1,0.4-1.5,0.2-1.7-1.2
			c-0.1-0.6-0.2-1.3-0.1-1.9c0.1-1.4-0.4-2.7-0.6-4.1c-0.1,0-0.2,0-0.3,0c0.1,0,0.2,0,0.3,0c0.1-0.8,0-1.6-0.4-2.4
			c0-0.3-0.1-0.7-0.2-1c-0.1-0.8-0.3-0.9-1.1-0.9c-0.2,0-0.5,0.1-0.7,0.1c-1.1,0.1-2.2,0.3-3.3,0.4c-1.1,0.1-1.6,0.5-1.3,1.6
			C2340.6,809.2,2340.6,809.8,2340.6,810.4 M2352.1,818.6c0.1,0,0.2,0,0.2,0.1C2352.3,818.6,2352.2,818.6,2352.1,818.6
			c-0.1,0-0.2,0.1-0.2,0.1C2352,818.7,2352.1,818.6,2352.1,818.6 M2351.9,818.8c0,0.1-0.1,0.1-0.1,0.2
			C2351.8,818.9,2351.8,818.8,2351.9,818.8"/>
		<path id="Path_149" d="M2463.2,958.4c-0.1-0.2-0.2-0.4-0.5-0.5c-0.4-0.2-0.8-0.5-1-0.9c-0.3-0.4-0.5-0.9-1-1.1c0-0.1,0-0.2,0-0.2
			c-0.6-0.8-1.7-1.2-2.2-2.2c-0.1-0.1-0.3-0.1-0.4-0.2c-1.1-0.4-1.8-1.4-3-1.5c-0.1,0-0.3-0.2-0.4-0.3c-0.4-0.5-1-0.7-1.6-0.8
			c-0.3,0-0.5-0.1-0.7-0.3c-0.8-0.9-2.1-0.8-2.9-1.5c-0.2-0.1-0.4-0.2-0.6-0.2c-2.3,0-4.5-0.4-6.8-0.1c-0.1,0-0.3,0-0.5,0
			c-0.1-0.1-0.2,0-0.3,0.1c0,0.1-0.1,0.1-0.1,0.2c-0.8,0.5-1.8,0.8-2.5,1.4c-1.1,0.8-1.8,2-3,2.8c-0.4,0.3-0.6,0.9-1.2,1.1
			c-0.2,0-0.3,0.3-0.4,0.5c-0.4,1-1,2-1.7,2.8c-0.2,0.3-0.3,0.5,0,0.8c0,0.2,0,0.3,0,0.5c-0.5,1-0.4,2-0.8,3c0,0.2,0,0.3,0.1,0.5
			c0.2,0.4,0.2,0.9,0.1,1.4c-0.3,1.4,0.9,2.5,0.8,3.9c0,0.1,0.1,0.1,0.1,0.2c0.8,0.7,1.1,1.7,1.6,2.6c0.3,0.5,0.5,0.9,1,1.1
			c0.4,0.1,0.7,0.5,0.7,0.9c0.1,1,0.8,1.6,1.8,1.9c0.3,0.1,0.6,0,0.8,0.3c1.2,1.1,3,1.5,3.9,2.9c0.1,0.1,0.3,0.2,0.5,0.2
			c0.9,0.1,1.7,0.5,2.6,0.9c0.9,0.4,1.9,0.7,2.9,0.8c1.6,0.2,3.2-0.1,4.8-0.2c0.2,0,0.4-0.2,0.4-0.4l0.5,0c0.2-0.4,0.5-0.7,0.9-0.8
			c0.8-0.4,1.7-0.6,2.4-1.2c0.1-0.1,0.3-0.3,0.4-0.3c0.7,0,1-0.5,1.4-1c0.3-0.4,1-0.4,0.9-1.1c0.3-0.1,0.5-0.4,0.6-0.7
			c0.1-0.4,0.4-0.6,0.8-0.6c0.1-0.2,0.3-0.3,0.4-0.5c0-0.3,0.2-0.5,0.5-0.5c0-0.2,0-0.3,0-0.5c0.3-0.1,0.6-0.2,0.7-0.5
			c0.6-1.4,1.4-2.7,1.2-4.3c-0.1-0.7,0-1.4,0.3-2.1c0.4-0.8,0.4-1.7,0-2.5C2464.4,961,2463.8,959.7,2463.2,958.4 M2442.1,951.9
			L2442.1,951.9l0-0.2L2442.1,951.9 M2460.7,970.6c0,0.1,0,0.1,0,0.2c0,0.1,0,0.3,0.1,0.4c0-0.1-0.1-0.3-0.1-0.4
			C2460.7,970.8,2460.7,970.7,2460.7,970.6z M2459.1,970.2c0.1-0.1,0.2-0.1,0.2-0.2C2459.3,970.1,2459.2,970.2,2459.1,970.2
			 M2461.5,963.7c-0.3-0.3-0.8-0.4-1.2-0.1c-0.4,0.3-0.5,0.8-0.3,1.3c0.3,0.9,0.3,1.9,0.1,2.9c0,0.5-0.2,0.9-0.6,1.2l-0.1,0.5
			c0.1,0.2,0.2,0.4,0.1,0.5c0-0.2,0-0.4-0.1-0.5c-0.3,0.2-0.5,0.6-0.5,1c-0.3,0.3-0.6,0.5-0.7,0.9c-0.5,0.2-0.8,0.6-1,1
			c-0.1,0-0.1,0.1-0.2,0.1c-0.1,0.8-0.8,0.8-1.3,1c-0.7,0.7-1.6,0.3-2.4,0.6c-0.9,0.5-2.1,0.6-3,0.2c-0.4-0.1-0.9-0.3-1.4-0.3
			c-0.4-0.1-0.7-0.3-0.7-0.7c-0.1-0.1-0.2-0.2-0.3-0.3c-0.4-0.1-1.1,0.3-1.2-0.5l0,0c-0.7,0-1.4,0.1-1.8-0.8
			c-0.2-0.3-0.5-0.5-0.9-0.5c-0.4-0.1-0.8-0.3-1.1-0.6c-0.5-0.3-0.9-0.8-1.4-1c-0.3-0.1-0.5-0.3-0.7-0.6c-0.7-1.5-1.8-2.6-2.6-4
			c-0.2-0.4-0.3-0.8-0.8-0.9c-0.4-0.1-0.3-0.5-0.4-0.7c0-0.3,0.1-0.7-0.1-1c-0.2-0.2-0.4-0.5-0.7-0.5c-0.4,0-0.3,0.4-0.4,0.7
			c0,0.1-0.1,0.2-0.1,0.4c-0.4,0-0.8-0.1-1.2-0.3c-0.2-0.1-0.4-0.3-0.4-0.5c0.2-0.8-0.1-1.6,0.2-2.3c0.3-0.1,0.4,0.1,0.4,0.3
			c0.2,0.4,0.5,0.3,0.6,0c0.3-1.2,1.2-1.4,2.3-1.4c0.4,0,0.6-0.2,0.8-0.5c0.7-1.5,1.7-2.8,3-3.9c0.6-0.6,0.5-1.4,0.7-2.1
			c0.4,0.1,0.5,0.4,0.5,0.7c0,0.3,0,0.7,0.4,0.8c0.3,0.1,0.7,0,0.9-0.4c0.3-0.6,0.6-0.5,0.7,0.1c0.1,0.3,0.2,0.6,0.6,0.5
			c0.4,0,0.4-0.3,0.5-0.6c0.2-1.1,0.3-1.2,1.4-1c0.2,0,0.3,0,0.4-0.2c0-0.3,0.2-0.6,0.5-0.7c0.4-0.2,0.8-0.3,0.8,0.3
			c0,0.1,0,0.2,0,0.3c0,0.2,0.1,0.4,0.3,0.5c0.3,0,0.4-0.2,0.4-0.5c0-0.1,0-0.3,0.1-0.4c0.3,0.2,0.6,0.5,0.9,0.5
			c0.7,0,1.3,0.2,1.5,1c0.1,0.2,0.6,0.2,0.3,0.6c-0.2,0.3-0.5,0.5-0.9,0.4c-0.2,0-0.3-0.1-0.5-0.2c-0.3-0.1-0.7,0-1,0.2
			c-0.2,0.1-0.3,0.3-0.3,0.5c0,0.2,0.2,0.3,0.4,0.3c0,0,0.1,0,0.1,0c0.6-0.2,0.7-0.1,0.6,0.6c-0.1,0.4,1,1.3,1.7,1.2
			c1.2-0.2,1.6,1.1,2.6,1.1c0.5,1.7,2.5,2.2,3.1,3.8c0.4-0.3,0.3-0.6,0.3-0.8c0.1-0.2,0.3-0.4,0.6-0.5c0.4-0.1,0.4,0.2,0.5,0.4
			c0.1,0.4,0.3,0.4,0.6,0.5c1.2,0.2,1.2,0.3,0.9,1.4c-0.1,0.2-0.1,0.5,0,0.8c0.4,0,0.6-0.3,0.7-0.6c0.1-0.5,0.5-0.2,0.7-0.2
			c0.3,0.1,0.3,0.3,0.2,0.6c-0.1,0.2-0.2,0.4-0.3,0.6C2462.3,964.1,2462,964.1,2461.5,963.7"/>
		<path id="Path_165" d="M2451.2,850.6c0.6,0.5,0.7,0.4,1-0.2c0.2-0.4,0.7-0.5,0.8-1c0.8-0.2,1.4-1,2.3-0.6c0.2,0.1,0.6-0.3,0.6-0.6
			c0-0.5-0.4-0.8-0.6-1.2c-0.2-0.2-0.6-0.3-0.8-0.1c-0.7,0.3-1.4,0.6-1.8,1.3c-0.9,0-1.7,0.5-2.1,1.3
			C2450.4,850.2,2450.6,850.5,2451.2,850.6"/>
		<path id="Path_166" d="M2415,887.8c-0.1,1.1-0.7,1.9-1.1,2.8c-0.2,0.4-0.2,0.9,0.4,1.2c0.2-1.5,0.7-3,1.7-4.2
			c0.2-0.2,0-0.4-0.2-0.5C2415.4,887.3,2415.1,887.5,2415,887.8"/>
		<path id="Path_167" d="M2431.5,843.4c-0.5,0-0.6,0.3-0.6,0.7c0,0.4,0.2,0.8,0.6,0.8c0.5,0,0.6-0.3,0.6-0.8
			C2432.1,843.6,2431.9,843.4,2431.5,843.4"/>
		<path id="Path_168" d="M2418.6,912.8c0.5-0.9,0.6-2,0.2-2.9c0-0.1-0.2-0.1-0.3-0.2c-0.1,0.1-0.2,0.2-0.2,0.2
			c0.4,0.7,0.2,1.4,0.1,2.1C2418.4,912.3,2418.4,912.6,2418.6,912.8"/>
		<path id="Path_194" d="M2262.4,940.7c0-0.1,0-0.2,0-0.2c-0.3-0.3-0.7-0.6-1.2-0.7c-0.2,0.1-0.3,0.3-0.2,0.4c0.3,0.3,0.6,0.6,1,0.7
			C2262.2,940.9,2262.4,940.8,2262.4,940.7"/>
		<path id="Path_169" d="M2309.1,951.6c-0.3,0.4-0.1,0.8,0.1,1.2c0.3-0.3,0.4-0.8,0.2-1.1C2309.4,951.5,2309.3,951.5,2309.1,951.6
			C2309.2,951.5,2309.2,951.6,2309.1,951.6"/>
		<path id="Path_170" d="M2366.9,896.6c-0.2,0-0.4,0.2-0.3,0.4c0,0.1,0,0.1,0,0.2c0.1,0.2,0.2,0.3,0.3,0.5c0.2-0.1,0.3-0.3,0.3-0.6
			C2367.2,896.8,2367.2,896.5,2366.9,896.6"/>
		<path id="Path_171" d="M2438.9,873.5c0,0.1,0,0.2,0.1,0.2c0.4,0.2,0.5-0.1,0.7-0.3c0,0,0-0.1,0-0.1
			C2439.4,873.2,2439,873.1,2438.9,873.5"/>
		<path id="Path_195" d="M2254.3,917.6c-0.1,0-0.3,0-0.3,0.2c0,0,0,0,0,0.1c0,0.1,0,0.2,0.2,0.3c0,0,0,0,0,0c0.2,0,0.3-0.1,0.4-0.3
			C2254.6,917.7,2254.5,917.6,2254.3,917.6"/>
		<path id="Path_172" d="M2441.3,871c-0.1,0.1,0,0.3,0.1,0.3c0.2,0,0.4-0.1,0.5-0.3c0-0.2,0-0.3-0.2-0.3
			C2441.5,870.7,2441.4,870.8,2441.3,871"/>
		<path id="Path_193" d="M2262.9,889.6c0-0.1,0-0.2-0.1-0.2c0,0-0.1,0-0.1,0c0,0-0.1,0.1-0.2,0.1c0,0.1,0.1,0.2,0.1,0.2
			C2262.8,889.7,2262.8,889.7,2262.9,889.6"/>
		<path id="Path_173" d="M2455.3,855.8c0-0.2,0.1-0.3,0.1-0.5c0.1-0.2,0.1-0.4-0.2-0.5c-0.2,0-0.5-0.1-0.5,0.2c0,0.6-0.5,0.7-0.8,1
			c-0.1,0.2-0.3,0.4-0.5,0.6c-0.1,0.1-0.1,0.3,0,0.5c0.1,0.1,0.2,0.1,0.3,0.1C2454.9,857.2,2455.1,857,2455.3,855.8"/>
		<path id="Path_174" d="M2455.7,851.9c0.1-0.2,0.1-0.4,0.1-0.7c-0.1-0.3,0.1-0.7-0.4-0.7c-0.4,0-0.7,0.4-0.7,0.7
			c-0.7,0-1,0.2-1,0.7c0,0.8,0.3,1.4,0.8,1.4c0.3,0,0.8-0.5,1-0.9l0.1,0.1c0.1,0.2,0.1,0.4,0.4,0.5c0.2-0.1,0.3-0.4,0.3-0.6
			c0-0.3-0.2-0.5-0.4-0.5L2455.7,851.9"/>
		<path id="Path_175" d="M2454.8,858.6c-0.1,0.3,0.1,0.6,0.4,0.7c0.4,0.1,0.7,0.2,1,0.5l-0.1,0.1c0.1,0,0.1,0,0.2,0
			c0,0,0.1,0.1,0.1,0.1c0.1,0.1,0.3,0.2,0.5,0.1h0c0.2,0.1,0.4,0,0.5-0.1c0.4-0.1,0.8,0,1.2-0.1c0.4,0.4,0.9,1,1.6,0.7
			c0.2-0.1,0.4,0.1,0.5,0.3c0.1,0.2,0.2,0.3,0.2,0.5c-0.2,0.2-0.5,0.2-0.8,0c-0.2-0.1-0.4-0.1-0.6-0.2c-0.6-0.2-0.9,0-1.2,0.6
			c-0.1,0.3-0.1,0.6,0,0.9c0.6,1.7,1.8,3,2.6,4.6c0.4,0.9,1.1,0.9,1.9,0.4c1-0.6,2-1.3,3-1.9c0.4-0.3,0.6-0.7,0.5-1.2
			c-0.1-0.7-0.4-1.4-0.9-2c-0.6-0.9-1.4-1.8-1.8-2.9c-0.2-0.4-0.4-0.8-0.7-1.2c-0.1-0.2-0.2-0.5-0.6-0.3c-0.3,0.1-0.4,0.4-0.2,0.7
			c0,0,0,0,0,0.1c0.3,0.4,0.5,0.8,0.4,1.2c0,0.6,0.1,1.3-0.8,0.7c0,0-0.1-0.1-0.2-0.1c-0.1-0.2-0.1-0.5,0-0.8l0-0.3
			c-0.6-0.1-0.4-0.6-0.5-0.9c-0.2-0.7-0.6-0.9-1.1-0.4c-0.1,0.1-0.1,0.1-0.2,0.2c0-0.3-0.2-0.6-0.4-0.8c-0.8-0.5-0.5-0.8,0-1.2
			c0.2-0.1,0.3-0.3,0.3-0.5l-0.1-0.1c-0.3,0.1-0.7,0.1-1,0.2c-0.6,0.1-1.1,0.2-1,1c0,0.2-0.1,0.4-0.3,0.4c0,0-0.1,0-0.1,0
			c-0.7-0.1-1.1,0.6-1.8,0.6C2455.1,858.1,2454.8,858.3,2454.8,858.6C2454.8,858.6,2454.8,858.6,2454.8,858.6"/>
		<path id="Path_192" d="M2413.7,820.1c0.2,0.3,0.4,0.5,0.6,0.8c0.1,0.2,0.1,0.4-0.2,0.4c-0.7,0.2-0.9,0.5-0.5,1
			c0.3,0.3,0.5,0.7,0.7,1c0.3,0.4,0.9,0.4,1,0c0.2-0.6,0.4-0.9,1-0.9c0.2,0,0.3-0.2,0.3-0.4c0,0,0,0,0,0c0-0.2-0.2-0.2-0.4-0.2
			c-0.6,0-1,0-1-0.8c0-0.5-0.8-0.7-0.6-1.2c0.5-0.1,0.7,0.4,1.2,0.5c-0.1-0.8,0.1-1.5,0.5-2.2c-1.4,0.2-1.7,0.2-2.3,0.7
			C2413.3,819.2,2413.2,819.5,2413.7,820.1"/>
		<path id="Path_176" d="M2364.5,954.3c0.2-0.2,0.4-0.5,0.6-0.8c0.2-0.3,0.1-0.8-0.2-1c-1.2-0.7-2.1-0.3-2.1,1.2v0.2
			c0.2,0.3-0.3,1,0.2,1.2C2363.6,955.2,2364.1,954.8,2364.5,954.3"/>
		<path id="Path_177" d="M2363.7,957.7c-0.1-0.2-0.3-0.2-0.4-0.2c-0.3,0.1-0.7,0.1-1,0.2c-0.3,0.1-0.6,0.3-0.5,0.6
			c0.3,0.7-0.1,1.3-0.4,1.9c0.4,0.1,0.6,0,0.7-0.2c0.5-0.7,0.7-1.5,1.6-1.9C2363.8,958.2,2363.8,957.9,2363.7,957.7"/>
		<path id="Path_178" d="M2359.5,955.2c0.1,0.6,0.5,0.3,0.8,0.3c0.5,0.2,1,0.2,1-0.5c0.1-0.4-0.2-0.8-0.6-0.9c0,0-0.1,0-0.1,0
			C2360.1,954.1,2359.4,954.8,2359.5,955.2"/>
		<path id="Path_179" d="M2365.4,945.9c0-0.3-0.1-0.4-0.4-0.4c-0.7,0.1-1.2,0.6-1.7,1c-0.1,0.1-0.1,0.3,0,0.5
			c0.1,0.2,0.3,0.3,0.5,0.2c0.5-0.3,0.9-0.5,1.4-0.9C2365.3,946.2,2365.3,946,2365.4,945.9"/>
		<path id="Path_180" d="M2367.3,954.4c0.4-0.2,0.8-0.4,1.2-0.6c0.1-0.1,0.1-0.2,0.1-0.3c0-0.1-0.1-0.2-0.2-0.2c0,0,0,0-0.1,0
			c-0.5,0.3-0.9-0.7-1.3,0c0,0,0-0.3-0.3-0.3c-0.1,0.4-0.1,0.7,0,1.1C2366.8,954.2,2367,954.5,2367.3,954.4"/>
		<path id="Path_181" d="M2364.1,949.8c0-0.3-0.1-0.6-0.4-0.7c-0.2,0-0.3,0.1-0.3,0.2c0,0.3,0.1,0.5,0.4,0.6
			C2363.9,950,2364,950,2364.1,949.8C2364.1,949.9,2364.1,949.8,2364.1,949.8"/>
		<path id="Path_182" d="M2363.3,960.1c-0.1,0-0.2,0.1-0.2,0.2c0,0,0,0,0,0c0,0.2,0.2,0.2,0.3,0.2c0.1,0,0.2-0.1,0.2-0.2
			C2363.6,960.1,2363.5,960,2363.3,960.1"/>
		<path id="Path_183" d="M2366.4,960.9c0-0.1,0-0.2,0-0.2c0,0-0.1,0-0.1,0c0,0-0.1,0.1-0.2,0.1c0,0.1,0.1,0.2,0.1,0.2
			C2366.3,961,2366.4,961,2366.4,960.9"/>
		<path id="Path_184" d="M2367.9,962.1c0,0-0.1-0.1-0.2-0.1l-0.1,0.2c0.1,0,0.2,0.1,0.2,0.1C2367.9,962.2,2367.9,962.2,2367.9,962.1
			"/>
		<path id="Path_185" d="M2426.4,909.6L2426.4,909.6l0.1-0.1L2426.4,909.6L2426.4,909.6L2426.4,909.6c-0.4,0-0.7-0.1-0.9,0.3
			c-0.2,0.4,0.3,0.5,0.4,0.8c0.1,0.2,0.3,0.2,0.4,0.2C2426.3,910.4,2426,910,2426.4,909.6"/>
		<path id="Path_186" d="M2420.4,922.6L2420.4,922.6L2420.4,922.6L2420.4,922.6"/>
		<path id="Path_187" d="M2420.3,922.7L2420.3,922.7L2420.3,922.7L2420.3,922.7"/>
		<path id="Path_188" d="M2342.8,861.5c0.1,0,0.2,0,0.2-0.1c0,0,0-0.1,0-0.1c0,0-0.1-0.1-0.1-0.1c-0.1,0-0.1,0.1-0.2,0.1
			C2342.8,861.3,2342.8,861.4,2342.8,861.5"/>
		<path id="Path_189" d="M2339.1,858.2L2339.1,858.2l-0.1,0C2338.9,858.2,2339,858.3,2339.1,858.2L2339.1,858.2"/>
	</g>
</g>
<path d="M136.7,187.7c-0.4,0.5-0.5,1.3-0.7,2c-0.1,0.3,0,0.6,0.5,0.5c0.3-0.1,0.6-0.1,0.9,0c0.2,0,0.3,0,0.5-0.1
	c0-0.2,0.1-0.2,0.2-0.1l0,0c0.7-0.6,1.6-0.5,2.5-0.7c0-0.2,0-0.4,0.3-0.4"/>
<path d="M59.7,199.3c0.1,0.8,0.7,1.2,1.2,1.8h0c0.8,1,1.9,1.3,2.8,0.8c1.2-0.7,2.5-1.3,3.3-2.6c0.7-1.2,0.7-2.6-0.5-3.4
	c-0.5-0.3-1-0.5-1.4-0.8c-0.5-0.3-1.1-0.5-1.7-0.4c-0.3,0.1-0.7,0.1-1,0.1c-0.9-0.1-1.5,0.4-2,1l0,0c-0.6,0.2-0.6,0.8-0.6,1.3
	c-0.1,0.5-0.3,1-0.7,1.4C59.3,198.6,59.6,198.9,59.7,199.3z"/>
<path d="M189.5,225.5C189.5,225.5,189.6,225.4,189.5,225.5C189.8,225.4,189.9,225.4,189.5,225.5z"/>
<path d="M189.6,225.4C189.6,225.4,189.5,225.5,189.6,225.4C189.9,225.4,189.8,225.4,189.6,225.4z"/>
<path d="M103.2,223.5c-0.2,1.1-0.1,2.1,0.4,2.8c0.5,0.8,1.2,1.3,2.2,1.5l1.5,0.3l0.6-2.7l-1.1-0.2c-0.7-0.1-0.9-0.6-0.8-1.3l1.6-7.8
	c-1-0.4-1.9-0.7-2.7-1.1L103.2,223.5z"/>
<path d="M103.6,214.5l0.5,0.1C103.9,214.5,103.8,214.5,103.6,214.5L103.6,214.5z"/>
<path d="M108.6,211.4l0.3-1.2c-0.3,0.1-0.6,0.1-0.9,0.2c0.3-0.1,0.6-0.2,1-0.3l0.3-1.4l-2.8-0.6l-0.8,3.9c0,0,0.1,0,0.1,0
	C106.7,211.8,107.7,211.6,108.6,211.4z"/>
<path d="M104,212.2L104,212.2c0.1,0.1,0.1,0.1,0.2,0L104,212.2z"/>
<path d="M108.3,213.1l0.2-0.9c0,0-0.1,0-0.1,0c-1.1,0.2-2.3,0.3-3.4,0.5c1.7,0.7,3.3,1.5,5.1,2.2l0.3-1.5L108.3,213.1z"/>
<path d="M90.3,215.6c0.5,0.9,1.3,1.6,2.4,2.1l2.3,1c0.5,0.2,0.9,0.4,1.1,0.7c0.2,0.3,0.3,0.7,0.1,1.2c-0.2,0.6-0.6,0.9-1.2,1.1
	c-0.6,0.1-1.3,0.1-2.1-0.2c-1.8-0.6-3-1.7-3.7-3.2l-2.6,1.3c1.2,2.3,2.9,3.8,5.1,4.5c1.6,0.5,3.1,0.6,4.4,0.2
	c1.3-0.4,2.2-1.3,2.7-2.6c0.4-1.2,0.4-2.2,0.1-3.2c-0.4-1-1.2-1.8-2.6-2.4l-2.2-0.9c-0.3-0.2-0.6-0.3-0.8-0.5
	c-1.1,0.2-2.1,0.4-3.2,0.6C90.2,215.5,90.3,215.5,90.3,215.6z"/>
<path d="M90.1,212.4c-0.3,0.9-0.3,1.8-0.1,2.6c1-0.2,2-0.4,3-0.6c0,0,0-0.1-0.1-0.1c-0.2-0.3-0.3-0.7-0.1-1c0.2-0.5,0.5-0.8,0.9-1
	c0.4-0.2,1.1-0.2,2,0.1c0.8,0.3,1.4,0.6,1.9,1c0,0,0.1,0,0.1,0.1c0.9-0.2,1.8-0.3,2.6-0.5c-2.2-0.9-4.5-1.9-8-3.2
	C91.3,210.2,90.6,211.1,90.1,212.4z"/>
<path d="M98.1,213.9c0.3,0.3,0.6,0.7,0.9,1.1l2.4-1.5c0,0,0-0.1-0.1-0.1c0,0-0.1,0-0.1,0C100.2,213.6,99.1,213.8,98.1,213.9z"/>
<path d="M77.2,217.8l5.4,2.9l1.4-2.6l-2-1c-0.7,0.1-1.5,0.3-2.2,0.4C79,217.5,78.1,217.6,77.2,217.8z"/>
<path d="M77.9,216.8c-0.6,0.1-1.3,0.2-1.9,0.3l0.1,0.1c1.6-0.2,3.1-0.4,4.6-0.6c0.2,0,0.3,0,0.5-0.1l-0.3-0.1
	C79.9,216.5,78.9,216.7,77.9,216.8z"/>
<path d="M75.5,216.1c0.2,0,0.4,0,0.6,0l0.6-0.1c0.4,0,0.7-0.1,1.1-0.1c0.4,0,0.7-0.1,1.1-0.1c0.3,0,0.5-0.1,0.8-0.1l-4.3-2.3
	l2.9-5.4l7.4,3.9l1.3-2.5l-7.4-3.9l0.4-0.7c-0.9-0.4-1.9-0.7-2.9-1.1l-5.7,10.9l3,1.6c0,0,0.1,0,0.1,0
	C74.7,216.2,75.1,216.1,75.5,216.1z"/>
<path d="M82.3,200.3l8.7,4.6l1.4-2.6l-11.4-6l-3.2,6c0.9,0.3,1.9,0.7,2.9,1.1L82.3,200.3z"/>
<path d="M65.5,198.6c0.6,0.2,1,0.4,1.5,0.6c0.7-1.2,0.6-2.6-0.6-3.3c-0.5-0.3-1-0.5-1.4-0.8c-0.5-0.3-1.1-0.5-1.7-0.4
	c-0.3,0.1-0.7,0.1-1,0.1c-0.9-0.1-1.5,0.4-2,1l0,0c0,0,0,0-0.1,0c0.5,0.2,1,0.4,1.5,0.6C62.1,196.8,58.4,195.7,65.5,198.6z"/>
<path d="M190.2,198.6c0.6,0.2,1,0.4,1.5,0.6c0.7-1.2,0.6-2.6-0.6-3.3c-0.5-0.3-1-0.5-1.4-0.8c-0.5-0.3-1.1-0.5-1.7-0.4
	c-0.3,0.1-0.7,0.1-1,0.1c-0.9-0.1-1.5,0.4-2,1l0,0c0,0,0,0-0.1,0c0.5,0.2,1,0.4,1.5,0.6C186.8,196.8,183.1,195.7,190.2,198.6z"/>
<path d="M59.7,197c-0.1,0.5-0.3,1-0.7,1.4c0.4,0.2,0.6,0.5,0.7,0.9c0.1,0.8,0.7,1.2,1.2,1.8h0c0.8,1,1.9,1.3,2.8,0.8
	c1.1-0.6,2.2-1.1,3-2.1C64.2,198.8,61.9,197.9,59.7,197C59.7,197,59.7,197,59.7,197z"/>
<path d="M183.5,197c-0.1,0.5-0.3,1-0.7,1.4c0.4,0.2,0.6,0.5,0.7,0.9c0.1,0.8,0.7,1.2,1.2,1.8h0c0.8,1,1.9,1.3,2.8,0.8
	c1.1-0.6,2.2-1.1,3-2.1C188,198.8,185.7,197.9,183.5,197C183.5,197,183.5,197,183.5,197z"/>
<path d="M112.3,228.1c-0.2,0.1-0.2,0-0.5,0.1c-0.1,0-0.1,0-0.2,0.1c-0.1,0-0.2,0.1-0.3,0.1l0,0.2l0.1,0c0.1,0,0.1,0,0.2-0.1
	c0.1-0.1,0.3-0.1,0.4-0.2c0.2-0.1,0.4-0.2,0.6-0.2c0.1,0,0.2-0.1,0.2,0c-0.3,0.2-0.6,0.4-1,0.5l2.3,0.3l0.3-2.3
	c-0.3,0.2-0.7,0.5-1,0.7C113.1,227.7,112.7,227.9,112.3,228.1z"/>
<path d="M112.1,227.2c0.4-0.2,0.7-0.4,1.1-0.6c0.3-0.2,0.6-0.4,0.9-0.6l-2.4-0.3l-0.2,1.8c0,0,0.1,0,0.1,0
	C111.8,227.4,111.9,227.3,112.1,227.2z"/>
<path d="M131.4,219.7l-1.7,2.6c0.7,0.2,1.4,0.5,2.1,0.7c0.3,0.1,0.5,0.2,0.8,0.3l2.9-4.3C134,219.2,132.7,219.4,131.4,219.7z"/>
<path d="M134,218.1c-0.3,0.1-0.5,0.1-0.5,0.2c0,0,0.3,0,1.1-0.1c0.4,0,0.7-0.1,1-0.1c0.1,0,0.2,0,0.3,0l0.1-0.2
	c0.7-1.1,1.1-2.4,1-3.7c-0.1-1.7-0.8-3.1-1.9-4.1c-1.2-1.1-2.6-1.5-4.3-1.4c-1.5,0.1-2.8,0.8-3.8,1.9c-1,1.2-1.4,2.7-1.4,4.4
	l2.9-0.2c0-1,0.3-1.7,0.8-2.3c0.5-0.6,1.1-0.9,1.9-0.9c0.9,0,1.6,0.2,2.1,0.8c0.5,0.6,0.8,1.2,0.8,2c0,0.3,0,0.6,0,0.9
	c-0.1,0.4-0.3,0.8-0.5,1.2l-1.2,1.8c0.5-0.1,1.1-0.2,1.7-0.2C135.2,217.8,134.6,218,134,218.1z"/>
<path d="M129.4,222.6l-0.1,0.2C130.1,223,129.9,222.9,129.4,222.6z"/>
<path d="M136.2,226.3l-6,0.4l1.3-1.9c-0.9-0.3-1.9-0.5-2.9-0.9l-2.1,3.2l0.2,2.8l11.5-0.7l-0.1-2.3c-0.2-0.1-0.5-0.1-0.7-0.2
	C136.9,226.5,136.5,226.4,136.2,226.3z"/>
<path d="M155,203.8L155,203.8l-2,3l1.1,3l1.9-3l4.4,11.6c0.8-0.5,1.6-1.1,2.5-1.6l-5.1-13.5C156.8,203.4,155.9,203.6,155,203.8z"/>
<path d="M160.7,219.1l1.6,4.2l2.7-1l-1.9-5c-0.1,0-0.2,0.1-0.2,0.1C162.3,217.8,161.6,218.4,160.7,219.1z"/>
<path d="M176.7,216.7l2.5-1.4l-3.4-6c-0.8,0.5-1.6,1.1-2.4,1.6L176.7,216.7z"/>
<path d="M170.9,200.5l-0.1-0.2c-2.3,0.4-3.9,0.7-5.4,1l-0.3,0.6l1.6,2.8l1.4-3.3l4.8,8.6c0.7-0.5,1.5-1,2.4-1.6l-4.3-7.7
	C170.6,200.6,170.5,200.6,170.9,200.5z"/>
<path d="M169,197.2l-2.5,1.4l-0.7,1.6c1.5-0.2,2.9-0.4,4.5-0.6L169,197.2z"/>
<path d="M150.5,226.2c-0.1,0.1-0.2,0.1-0.3,0.2c-0.1,0.1-0.2,0.1-0.3,0.2c-0.4,0.2-0.6,0.4-0.6,0.4c0.2-0.1,0.4-0.1,0.5-0.2l0.5-0.2
	c0,0,0.1,0,0.1,0c0.3-0.2,0.6-0.5,0.9-0.8c-0.1,0.1-0.3,0.2-0.4,0.2C150.8,226,150.7,226.1,150.5,226.2z"/>
<path d="M152.6,220.4l-2-9c-0.4-1.9-1.3-3.2-2.6-4c-1.3-0.8-2.7-1-4.2-0.7c-1.5,0.3-2.7,1.1-3.5,2.3c-0.9,1.3-1.2,2.8-0.8,4.7
	l0.8,3.6c0.3,0,0.6,0,1,0c0.7,0,1.3,0,2,0l-0.9-4c-0.4-2,0.3-3.3,2.1-3.7c1.8-0.4,3,0.5,3.5,2.5l1.9,8.6c0.4,2.1-0.3,3.3-2.1,3.7
	c-1.8,0.4-3-0.5-3.4-2.5l-0.9-4c-1,0.1-2,0.2-2.9,0.2l1,4.6c0.3,1.5,1,2.6,1.9,3.4c1.1,0.1,2.2,0.2,3.3,0c0.2,0,0.3,0,0.5-0.1
	l0.5-0.1c0.2,0,0.3-0.1,0.5-0.1l0.5-0.1l0.5-0.1l0.2-0.1l0.2-0.1l0.5-0.2l0.5-0.2c0.1,0,0.1-0.1,0.2-0.1c0.1,0,0.1-0.1,0.2-0.1
	c0.1-0.1,0.3-0.2,0.4-0.3c0.3-0.2,0.6-0.4,0.9-0.6c0.2-0.1,0.3-0.2,0.5-0.3C152.8,222.8,152.8,221.6,152.6,220.4z"/>
<path d="M40.4,189.4c-0.3-0.1-0.5-0.2-0.8-0.3C39.9,189.2,40.2,189.3,40.4,189.4z"/>
<path d="M104.1,214.6c0.3,0.1,0.6,0.2,0.9,0.4l0-0.2L104.1,214.6z"/>
<path d="M129.4,222.6l0.2-0.3c-0.4-0.1-0.8-0.3-1.2-0.4C127.4,221.6,128.7,222.2,129.4,222.6z"/>
<path d="M101.3,213.4C101.3,213.4,101.3,213.4,101.3,213.4c0.8,0.4,1.5,0.7,2.3,1l0.3-1.4C103,213.1,102.1,213.3,101.3,213.4z"/>
<path d="M85.1,214.9c1.4-0.2,2.8-0.5,4-0.8C87,214.5,85.7,214.8,85.1,214.9z"/>
<path d="M146.4,203.7c0.1,0,0.3,0,0.5-0.1c0.9-0.2,1.7-0.5,2.5-0.6L146.4,203.7z"/>
<path d="M104,212.3C104,212.3,104,212.3,104,212.3C104,212.4,104,212.4,104,212.3L104,212.3z"/>
<path d="M105.6,212c-0.4,0.1-0.9,0.2-1.3,0.3l1.2,0.3L105.6,212z"/>
<path d="M103.9,213c0.4-0.1,0.7-0.1,1.1-0.2c-0.3-0.1-0.6-0.3-1-0.4L103.9,213z"/>
<path d="M100.4,213c0.3,0.1,0.6,0.2,0.9,0.4c0,0,0,0,0.1,0c-0.1-0.2-0.2-0.3-0.3-0.5C100.8,213,100.6,213,100.4,213z"/>
<polygon points="39.3,208.5 39.2,208.6 39.2,208.6 39.3,208.5 "/>
<path d="M144.7,217.9c1.9-0.4,1-0.5-0.7-0.5c-0.3,0-0.6,0-0.9,0l0.1,0.6C143.8,218,144.3,218,144.7,217.9z"/>
</svg>
