<?xml version="1.0" encoding="utf-8"?>
<!-- Generator: Adobe Illustrator 27.5.0, SVG Export Plug-In . SVG Version: 6.00 Build 0)  -->
<svg version="1.1" id="Layer_1" xmlns="http://www.w3.org/2000/svg" xmlns:xlink="http://www.w3.org/1999/xlink" x="0px" y="0px"
	 viewBox="0 0 250 250" style="enable-background:new 0 0 250 250;" xml:space="preserve">
<g>
	<path d="M214.2,83.1l-3.3-6.4l-7.3,3.8l-1.9-3.7l18.4-9.5l1.9,3.7l-7.9,4.1l3.3,6.4l7.9-4.1l1.9,3.7l-18.4,9.5l-1.9-3.7L214.2,83.1
		z"/>
	<path d="M192.2,64.4l2.8-2.2l5.3,6.9l3.7-2.8l-4.8-6.2l2.8-2.2l4.8,6.2l4.3-3.3l-5.3-6.9l2.8-2.2l7.9,10.2l-16.4,12.6L192.2,64.4z"
		/>
	<path d="M206.7,49.5l-19.3,10.4l-3-2.7l8.7-20.1l3.3,3l-1.7,3.7l5.1,4.7l3.6-2L206.7,49.5z M196.6,50.3l-3.4-3.2l-3.2,7L196.6,50.3
		z"/>
	<path d="M167.7,45.2l2-3l4.8,3.1l9.4-14.3l3.5,2.3L178,47.6l4.8,3.1l-2,3L167.7,45.2z"/>
	<path d="M152.2,33.3c0.4,1.6,1.2,2.6,3.2,3.3c1.8,0.6,3,0.1,3.5-1.2c0.5-1.5-0.5-2.6-2.9-4.2c-3.7-2.4-5.1-4.6-3.9-8
		c1.1-3.2,4.1-5,8.7-3.4c3.4,1.2,5.5,2.9,6.4,5.8l-3.8,1.1c-0.6-1.7-1.6-2.7-3.6-3.4c-2.3-0.8-3.4,0-3.8,1.1c-0.5,1.4,0.1,2.4,3,4.3
		c3.5,2.3,4.8,4.9,3.7,8.1c-1.1,3.1-3.9,4.8-8.6,3.2c-3.1-1.1-5.1-2.9-5.8-5.6L152.2,33.3z"/>
	<path d="M132.7,34.9l0.6-3.5l8.6,1.4l0.8-4.6l-7.7-1.3l0.6-3.5l7.7,1.3l0.9-5.3l-8.6-1.4l0.6-3.5l12.7,2.1L145.5,37L132.7,34.9z"/>
	<path d="M133.1,14l-7,20.8l-4,0l-7.4-20.6l4.5,0l1.3,3.9l6.9-0.1l1.2-3.9L133.1,14z M126.3,21.6l-4.7,0l2.4,7.3L126.3,21.6z"/>
	<path d="M107.1,19.1l-8.6,1.5l-0.6-3.5l12.7-2.3l3.7,20.4l-4.1,0.7L107.1,19.1z"/>
	<path d="M88.5,42.2l-1.2-3.4l8.2-2.9L94,31.6l-7.4,2.6l-1.2-3.3l7.4-2.6L91,23.1L82.8,26l-1.2-3.3l12.2-4.3l6.8,19.5L88.5,42.2z"/>
	<path d="M76.9,24.8l10.2,18l-6.4,3.6c-4.1,2.3-8.1,1.8-11.3-3.9L68,40.2c-3.2-5.7-1.6-9.4,2.5-11.7L76.9,24.8z M71.7,38.1l1.3,2.4
		c1.8,3.1,3.5,4.3,5.9,2.9l2.7-1.5L75,29.9l-2.7,1.5C69.8,32.9,69.9,35,71.7,38.1z"/>
	<path d="M54.1,55.1c-1.2-1.2-1.1-3.2,0.1-4.4c1.2-1.2,3.2-1.1,4.4,0.1c1.2,1.2,1.1,3.2-0.1,4.4C57.2,56.5,55.3,56.3,54.1,55.1z"/>
	<path d="M43.6,69.6l-3.8,6.1l7,4.4l-2.2,3.6L27,72.6l2.2-3.6l7.6,4.8l3.8-6.1L33,62.9l2.2-3.6l17.5,11L50.5,74L43.6,69.6z"/>
	<path d="M38.6,98l-3.3-1.3l3.2-8.1l-4.3-1.7l-2.9,7.2L28,92.8l2.9-7.2l-5-2l-3.2,8.1l-3.3-1.3l4.8-12l19.2,7.7L38.6,98z"/>
	<path d="M18.4,93.2l18.8,11.3l-0.8,3.9l-21.7,2.8l0.9-4.4l4.1-0.4l1.4-6.8l-3.6-2L18.4,93.2z M24.3,101.4l-1,4.6l7.6-0.8
		L24.3,101.4z"/>
	<path d="M34.6,128.9l-3.6-0.2l0.2-5.7l-17.1-0.7l0.2-4.2l17.1,0.7l0.2-5.7l3.6,0.2L34.6,128.9z"/>
	<path d="M32.2,148.3c1.2-1.2,1.7-2.4,1.2-4.4c-0.4-1.9-1.4-2.7-2.8-2.4c-1.6,0.3-2,1.8-2.1,4.6c-0.2,4.4-1.4,6.7-5,7.4
		c-3.3,0.7-6.4-1-7.3-5.8c-0.7-3.6-0.3-6.2,1.7-8.5l2.8,2.7c-1.1,1.4-1.6,2.7-1.1,4.8c0.5,2.4,1.7,2.9,2.9,2.7
		c1.4-0.3,2-1.3,2.2-4.8c0.2-4.2,1.7-6.6,5.1-7.3c3.2-0.7,6.1,0.9,7.1,5.8c0.7,3.2,0.1,5.9-1.9,7.8L32.2,148.3z"/>
	<path d="M43.5,164.3l-3.3,1.3l-3.2-8.1l-4.3,1.7l2.8,7.3l-3.3,1.3l-2.8-7.3l-5,2l3.2,8.1l-3.3,1.3l-4.7-12l19.3-7.5L43.5,164.3z"/>
	<path d="M25.3,174.6l21.4-4.6l2.1,3.4l-14,16.9l-2.3-3.8l2.7-3.1l-3.6-5.9l-4,1L25.3,174.6z M35.3,176.6l2.4,4l5-5.8L35.3,176.6z"
		/>
	<path d="M43,194.3l5.7,6.6l-2.7,2.3l-8.5-9.7l15.6-13.6l2.8,3.2L43,194.3z"/>
	<path d="M72.4,198.6l-2.3,2.7l-6.7-5.6l-3,3.6l6,5l-2.3,2.7l-6-5l-3.5,4.1l6.7,5.6l-2.3,2.7l-9.9-8.3l13.3-15.8L72.4,198.6z"/>
	<path d="M63.3,217.4l10.3-17.9l6.4,3.7c4.1,2.3,5.7,6.1,2.4,11.8l-1.4,2.3c-3.3,5.7-7.3,6.2-11.4,3.8L63.3,217.4z M77.4,215.2
		l1.3-2.3c1.8-3.1,1.9-5.2-0.5-6.6l-2.7-1.6l-6.8,11.8l2.7,1.6C73.8,219.4,75.6,218.3,77.4,215.2z"/>
	<path d="M101,221.6c-0.5,1.6-2.2,2.6-3.8,2.1s-2.6-2.2-2.1-3.8c0.5-1.6,2.2-2.6,3.8-2.1C100.6,218.3,101.5,220,101,221.6z"/>
	<path d="M118.8,223.3l7.2,0.2l0.2-8.2l4.2,0.1l-0.5,20.7l-4.2-0.1l0.2-8.9l-7.2-0.2l-0.2,8.9l-4.2-0.1l0.6-20.7l4.2,0.1
		L118.8,223.3z"/>
	<path d="M145.8,213l0.5,3.5l-8.6,1.3l0.7,4.6l7.7-1.2l0.5,3.5L139,226l0.8,5.3l8.6-1.3l0.5,3.5l-12.8,2l-3.2-20.5L145.8,213z"/>
	<path d="M151.9,233l0.2-21.9l3.8-1.3l13.5,17.3l-4.2,1.4l-2.5-3.3l-6.6,2.2l0.1,4.1L151.9,233z M156,223.7l4.4-1.5l-4.6-6.2
		L156,223.7z"/>
	<path d="M174.4,200.9l1.7,3.1l-5,2.7l8.1,15.1l-3.7,2l-8.1-15.1l-5,2.7l-1.7-3.1L174.4,200.9z"/>
	<path d="M192.3,192.9c-1.6-0.4-2.9-0.2-4.4,1.2c-1.4,1.3-1.6,2.6-0.6,3.6c1.1,1.2,2.6,0.8,5.1-0.5c3.9-2.1,6.5-2.2,8.9,0.5
		c2.3,2.5,2.4,6-1.2,9.3c-2.7,2.4-5.2,3.4-8.2,2.9l0.9-3.8c1.8,0.3,3.1-0.1,4.7-1.5c1.8-1.6,1.7-2.9,0.8-3.9c-1-1.1-2.2-1.1-5.2,0.5
		c-3.7,1.9-6.6,1.9-8.9-0.7c-2.2-2.4-2.3-5.8,1.3-9.1c2.4-2.2,5-3.1,7.7-2.4L192.3,192.9z"/>
	<path d="M200.3,175.1l2.8,2.2l-5.4,6.8l3.7,2.9l4.8-6.1l2.8,2.2l-4.8,6.1l4.2,3.3l5.4-6.8l2.8,2.2l-8,10.1l-16.3-12.8L200.3,175.1z
		"/>
	<path d="M218.4,185.5l-14.8-16.1l1.9-3.5l21.6,3.4l-2.1,3.9l-4.1-0.7l-3.3,6.1l2.9,3L218.4,185.5z M215.1,175.9l2.2-4.1l-7.5-1.4
		L215.1,175.9z"/>
	<path d="M226.4,160.2l2.7-8.3l3.4,1.1l-4.1,12.2l-19.6-6.5l1.3-4L226.4,160.2z"/>
	<path d="M215.1,132.8l3.5,0.6l-1.4,8.6l4.6,0.8l1.3-7.7l3.5,0.6l-1.3,7.7l5.3,0.9l1.4-8.6l3.5,0.6l-2.1,12.7l-20.4-3.4L215.1,132.8
		z"/>
	<path d="M236,131l-20.7,0.2l-0.1-7.3c-0.1-4.7,2.3-8,8.9-8.1l2.7,0c6.6-0.1,9,3.2,9.1,7.8L236,131z M226.8,120.1l-2.7,0
		c-3.6,0-5.4,1-5.4,3.8l0,3.1l13.6-0.2l0-3.1C232.3,120.9,230.4,120,226.8,120.1z"/>
	<path d="M220.4,96.4c1.7-0.4,3.3,0.5,3.8,2.2c0.4,1.7-0.5,3.3-2.2,3.8c-1.7,0.4-3.3-0.5-3.8-2.2C217.7,98.5,218.8,96.9,220.4,96.4z
		"/>
</g>
</svg>
