<?xml version="1.0" encoding="utf-8"?>
<!-- Generator: Adobe Illustrator 27.5.0, SVG Export Plug-In . SVG Version: 6.00 Build 0)  -->
<svg version="1.1" id="Layer_1" xmlns="http://www.w3.org/2000/svg" xmlns:xlink="http://www.w3.org/1999/xlink" x="0px" y="0px"
	 viewBox="0 0 250 250" style="enable-background:new 0 0 250 250;" xml:space="preserve">
<style type="text/css">
	.st0{font-family:'ArialMT';}
	.st1{font-size:12px;}
</style>
<g>
	<path d="M19.1,109.5l1.6-7.6c0.3-1.6,1.1-2.9,2.2-3.7c1.3-1,2.8-1.4,4.7-1c2.7,0.6,4.3,2.3,4.8,5l9.9-2.6l-0.7,3.5l-9.5,2.2
		l-0.8,3.8l8.6,1.8l-0.6,3L19.1,109.5z M28.5,108.4l1-4.5c0.2-1.1,0.1-2-0.5-2.7c-0.5-0.7-1.2-1.1-2-1.3c-1.1-0.2-1.9,0-2.5,0.5
		c-0.5,0.4-0.9,1.1-1.1,2l-1,4.6L28.5,108.4z"/>
	<path d="M24,89.6l4.9-11.8l2.7,1.1l-3.7,9l5.5,2.3l3.2-7.7l2.6,1.1L36,91.3l5.6,2.3l3.7-9l2.7,1.1l-4.9,11.8L24,89.6z"/>
	<path d="M31.9,72l1.6-2.4l17.2,0.6l0,0l-12.2-8.1l1.7-2.5L57.3,71l-1.6,2.4l-17.2-0.6l0,0L50.7,81L49,83.5L31.9,72z"/>
	<path d="M45.3,53.5l9-9l2.1,2.1l-6.9,6.9l4.2,4.2l5.9-5.9l2,2l-5.9,5.9L60,64l6.9-6.9l2.1,2.1l-9,9L45.3,53.5z"/>
	<path d="M58,40.9l2.7-1.7L71.2,50l0,0l-4.5-14.5l1.9-1.2l11.1,10.3l0,0l-5.2-14.1l2.7-1.7L84,48.9l-2.1,1.4L70.7,39.7l0,0l4.7,14.6
		l-2.1,1.3L58,40.9z"/>
	<path d="M97.4,38.4L90.3,41l0.1,4.9l-3,1.1l-0.2-22l2.4-0.9L103.4,41l-3,1.1L97.4,38.4z M95.7,36.1l-5.8-7.5h-0.1l0.4,9.5
		L95.7,36.1z"/>
	<path d="M102,20.4l7.6-1.2c1.9-0.3,3.5,0,4.6,0.8s1.8,2.1,2.1,3.7c0.1,0.8,0.1,1.7-0.2,2.5c-0.2,0.4-0.4,0.8-0.7,1.2
		c-0.3,0.4-0.8,0.8-1.3,1.2v0.1c1.1,0.1,2,0.6,2.7,1.4s1.1,1.8,1.2,2.8c0.3,1.8-0.1,3.2-0.9,4.4c-0.9,1.2-2.1,2-3.6,2.2l-8.3,1.3
		L102,20.4z M105.4,22.7l0.9,5.9l4.3-0.7c1.1-0.2,1.9-0.6,2.3-1.3c0.4-0.6,0.6-1.3,0.5-2.2c-0.1-0.8-0.5-1.5-1.1-2s-1.4-0.6-2.5-0.5
		L105.4,22.7z M106.8,31.3l1,6.1l4.6-0.7c1.1-0.2,1.9-0.6,2.3-1.3s0.6-1.4,0.4-2.2c-0.1-0.8-0.5-1.5-1.1-2s-1.5-0.7-2.6-0.5
		L106.8,31.3z"/>
	<path d="M122.4,18l3,0.1l-0.6,17.7l9.7,0.3l-0.1,2.9l-12.8-0.4L122.4,18z"/>
	<path d="M141.3,19.2l12.5,2.7l-0.6,2.9l-9.5-2l-1.2,5.8l8.1,1.7L150,33l-8.1-1.7l-1.3,5.9l9.5,2l-0.6,2.9L137,39.4L141.3,19.2z"/>
	<path d="M160.5,40.7c0.8,1.9,2.2,3.4,4.2,4.4c2.3,1.1,3.9,0.9,4.8-0.8c0.7-1.4,0.3-2.6-1.1-3.6c-0.7-0.5-1.4-1-2.2-1.5
		c-1.4-1-2.3-2.2-2.6-3.5c-0.4-1.3-0.2-2.7,0.5-4c0.8-1.6,2-2.7,3.5-3.1c1.5-0.5,3.2-0.3,5,0.6c2.2,1.2,3.8,2.8,4.8,4.8l-2.7,1.5
		c-0.9-1.6-2.1-2.8-3.7-3.6c-0.8-0.4-1.6-0.5-2.4-0.4c-0.8,0.2-1.4,0.7-1.9,1.6c-0.3,0.5-0.3,1.1-0.1,1.7c0.2,0.6,0.7,1.3,1.5,1.9
		c0.4,0.3,1.1,0.8,1.9,1.3c1.6,1.1,2.5,2.3,2.8,3.7s0.1,2.7-0.5,4c-1.8,3.5-4.8,4.2-8.9,2.2c-2.6-1.3-4.5-3.3-5.6-5.9L160.5,40.7z"
		/>
	<path d="M177.6,43.7c1.5-1.9,2.5-3.1,3.1-3.7c0.6-0.6,1.2-0.9,1.7-1.2c1-0.5,2.1-0.7,3.4-0.6c1.3,0,2.6,0.5,3.8,1.5
		c1.3,1,2.1,2.1,2.5,3.3s0.5,2.4,0.3,3.4c0,0.6-0.2,1.3-0.6,2c-0.4,0.7-1.3,2-2.8,3.9c-1.4,1.9-2.4,3.1-3,3.7
		c-0.6,0.6-1.2,1-1.8,1.2c-0.9,0.5-2.1,0.7-3.3,0.6c-1.3,0-2.6-0.5-3.9-1.5c-1.2-1-2-2.1-2.4-3.3s-0.5-2.4-0.3-3.4
		c0.1-0.3,0.1-0.7,0.2-0.9c0.1-0.3,0.2-0.6,0.5-1C175.3,46.9,176.2,45.6,177.6,43.7z M180.1,45.6c-1.2,1.6-2,2.8-2.3,3.4
		c-0.3,0.6-0.5,1.3-0.4,1.9c0,0.5,0.1,1.1,0.4,1.6c0.2,0.6,0.6,1.1,1.2,1.5c0.6,0.4,1.2,0.7,1.8,0.8s1.1,0.1,1.6-0.1
		c0.6-0.1,1.1-0.4,1.7-0.9c0.5-0.5,1.4-1.5,2.7-3.2c1.2-1.6,2-2.8,2.4-3.4c0.3-0.6,0.4-1.3,0.4-1.9c0-0.5-0.1-1-0.3-1.6
		c-0.3-0.5-0.7-1-1.2-1.5c-0.6-0.4-1.2-0.7-1.7-0.8c-0.6-0.1-1.1-0.1-1.6,0.1c-0.6,0.1-1.1,0.4-1.7,0.9
		C182.2,42.9,181.3,43.9,180.1,45.6z"/>
	<path d="M200.3,48.8l2,2.3l-10,8.8c-1,0.9-1.6,1.9-1.6,3c-0.1,1.1,0.3,2.1,1,2.9c0.8,0.9,1.7,1.4,2.8,1.4c1,0.1,2.1-0.3,3.2-1.3
		l10-8.8l2,2.3l-10.2,9c-1.7,1.4-3.4,2-5.2,1.9c-1.9-0.1-3.5-1-4.8-2.5s-1.9-3.2-1.8-5.1c0-1.9,0.9-3.5,2.5-5L200.3,48.8z"/>
	<path d="M214,65.5l3.9,6.7c0.8,1.4,1.1,2.8,0.9,4.2c-0.3,1.6-1.2,2.9-2.8,3.9c-2.4,1.4-4.7,1.2-6.9-0.5l-5.6,8.6l-1.8-3.1l5.5-8
		l-1.9-3.3l-7.6,4.4l-1.5-2.6L214,65.5z M207.7,72.7l2.3,4c0.6,1,1.3,1.5,2.2,1.7c0.8,0.2,1.6,0,2.4-0.4c0.9-0.6,1.4-1.2,1.5-2
		c0.1-0.7-0.1-1.4-0.6-2.2l-2.4-4.1L207.7,72.7z"/>
	<path d="M214.2,101.3c-1.9,0.2-3.6-0.1-5-0.9c-1.4-0.9-2.4-2.1-2.9-3.7c-0.5-1.5-0.6-2.9-0.2-4.1c0.3-1.2,0.9-2.3,1.6-3
		c0.2-0.2,0.5-0.5,0.7-0.7s0.6-0.4,0.9-0.6c0.7-0.4,2.2-1,4.4-1.8c2.3-0.8,3.8-1.3,4.6-1.4s1.5-0.1,2.1,0c1.1,0.1,2.1,0.6,3.2,1.3
		c1.1,0.7,1.9,1.8,2.4,3.3c0.6,1.8,0.6,3.5-0.1,5c-0.7,1.5-1.8,2.7-3.3,3.6l-1.1-3c0.7-0.5,1.2-1.2,1.6-2c0.3-0.8,0.3-1.7,0-2.6
		c-0.3-0.7-0.6-1.2-1-1.6s-0.9-0.7-1.4-0.8c-0.5-0.2-1.2-0.3-1.9-0.2c-0.7,0.1-2.1,0.5-4,1.2s-3.2,1.2-3.8,1.6s-1.1,0.8-1.4,1.3
		c-0.3,0.4-0.5,1-0.6,1.5c-0.1,0.6-0.1,1.2,0.2,1.9c0.6,1.6,1.9,2.5,3.9,2.6L214.2,101.3z"/>
	<path d="M229.4,101.6l2.1,12.6l-2.9,0.5l-1.6-9.6l-5.8,1l1.4,8.2l-2.7,0.5l-1.4-8.2l-6,1l1.6,9.6l-2.9,0.5l-2.1-12.6L229.4,101.6z"
		/>
	<path d="M219.7,126.6c0.6,0,1,0.2,1.4,0.6s0.5,0.8,0.5,1.4c0,0.5-0.2,1-0.6,1.3c-0.4,0.3-0.8,0.5-1.4,0.5c-0.5,0-1-0.2-1.3-0.6
		c-0.4-0.4-0.5-0.8-0.5-1.4c0-0.5,0.2-1,0.6-1.3C218.7,126.7,219.2,126.6,219.7,126.6z"/>
	<path d="M212.6,154.2c-1.8-0.9-3-2-3.7-3.5s-0.8-3.1-0.4-4.7c0.4-1.5,1.1-2.7,2.1-3.5c1-0.9,2-1.4,3-1.7c0.3-0.1,0.7-0.1,1-0.2
		c0.3,0,0.7,0,1.1,0c0.8,0.1,2.4,0.4,4.7,0.9c2.3,0.6,3.9,1,4.6,1.3c0.8,0.3,1.3,0.7,1.7,1.1c0.8,0.7,1.4,1.7,1.9,2.9
		s0.5,2.6,0.2,4.1c-0.5,1.9-1.4,3.3-2.8,4.2c-1.4,0.9-3,1.3-4.8,1.2l0.8-3.1c0.9,0,1.7-0.3,2.4-0.8s1.2-1.3,1.4-2.2
		c0.2-0.7,0.2-1.3,0-1.9c-0.2-0.6-0.4-1.1-0.7-1.5c-0.3-0.5-0.8-0.9-1.5-1.2s-2-0.7-4-1.2s-3.3-0.7-4.1-0.8c-0.7,0-1.4,0.1-1.9,0.3
		s-0.9,0.5-1.3,1c-0.4,0.4-0.7,1-0.9,1.7c-0.4,1.7,0.2,3.1,1.8,4.4L212.6,154.2z"/>
	<path d="M206.3,165.6l3.1-6.9l-3.6-3.3l1.3-2.9l15.8,15.1l-1,2.3l-21.8-1.9l1.3-2.9L206.3,165.6z M209.2,166l9.4,1.1V167l-7-6.3
		L209.2,166z"/>
	<path d="M216,181.5l-4.5,6.4c-1,1.4-2.1,2.2-3.5,2.5c-1.6,0.4-3.1,0.1-4.7-0.9c-2.3-1.7-3.1-3.8-2.4-6.5l-10.1-1.5l2.1-2.9l9.6,1.7
		l2.2-3.2l-7.2-5.1l1.8-2.5L216,181.5z M206.9,178.7l-2.7,3.7c-0.6,0.9-0.9,1.8-0.6,2.7c0.2,0.8,0.6,1.5,1.4,2
		c0.9,0.6,1.7,0.8,2.5,0.5c0.6-0.2,1.2-0.7,1.8-1.4l2.8-3.9L206.9,178.7z"/>
	<path d="M203.4,197.9l-5.6,5.3c-1.4,1.3-2.9,2-4.3,1.9c-1.4,0-2.7-0.7-3.8-1.9c-0.6-0.6-1-1.3-1.2-2.2c-0.1-0.4-0.1-0.9-0.1-1.4
		s0.2-1.1,0.4-1.7l0,0c-1,0.5-2,0.7-3,0.4s-1.9-0.8-2.6-1.6c-1.2-1.3-1.8-2.7-1.7-4.2c0-1.5,0.6-2.8,1.7-3.9l6.1-5.8L203.4,197.9z
		 M193.3,191.7l-4.3-4.5l-3.4,3.2c-0.8,0.8-1.2,1.6-1.1,2.4c0,0.8,0.3,1.5,0.9,2.1c0.6,0.6,1.3,1,2.1,1c0.8,0.1,1.6-0.3,2.4-1
		L193.3,191.7z M199.3,198l-4.1-4.3l-3.2,3c-0.8,0.8-1.2,1.5-1.2,2.3s0.3,1.4,0.9,2.1c0.6,0.6,1.3,0.9,2,1c0.7,0,1.5-0.3,2.3-1.1
		L199.3,198z"/>
	<path d="M183,202.5c1.3,2,2.1,3.4,2.4,4.2c0.3,0.8,0.5,1.4,0.5,2c0.1,1.1-0.1,2.2-0.6,3.4s-1.4,2.2-2.7,3.1c-1.4,0.8-2.7,1.2-4,1.1
		c-1.3-0.1-2.4-0.4-3.3-0.9c-0.6-0.2-1.1-0.7-1.6-1.3s-1.4-1.9-2.7-4c-1.3-2-2.1-3.4-2.4-4.1c-0.3-0.8-0.5-1.5-0.5-2.1
		c-0.1-1.1,0.1-2.2,0.6-3.3c0.5-1.2,1.4-2.2,2.7-3.1c1.3-0.8,2.7-1.2,4-1.1c1.3,0,2.4,0.3,3.3,0.9c0.3,0.2,0.6,0.4,0.8,0.5
		c0.2,0.2,0.5,0.5,0.8,0.8C180.8,199.2,181.7,200.6,183,202.5z M180.4,204.2c-1.1-1.7-1.9-2.8-2.4-3.4c-0.5-0.5-1-0.9-1.6-1.1
		c-0.5-0.2-1-0.3-1.6-0.2c-0.6,0-1.2,0.2-1.8,0.6c-0.6,0.4-1.1,0.9-1.3,1.4c-0.3,0.5-0.4,1-0.5,1.5c-0.1,0.6,0,1.2,0.2,1.9
		c0.3,0.7,0.9,1.9,2,3.6c1.1,1.7,1.9,2.8,2.4,3.4c0.5,0.5,1,0.8,1.6,1c0.5,0.2,1,0.3,1.6,0.3c0.6-0.1,1.2-0.3,1.8-0.6
		c0.6-0.4,1-0.8,1.3-1.4c0.3-0.5,0.5-1,0.5-1.6c0.1-0.6,0-1.2-0.3-1.9C182.2,207.1,181.5,205.9,180.4,204.2z"/>
	<path d="M169.9,222.2l-2.7,1l-13.6-10.5h-0.1l5.2,13.7l-2.8,1.1l-7.3-19.3l2.7-1l13.6,10.5h0.1l-5.2-13.7l2.8-1.1L169.9,222.2z"/>
	<path d="M140.1,231l-7.8,0.6c-1.7,0.1-3-0.2-4.2-1c-1.3-0.9-2.1-2.3-2.3-4.2c-0.2-2.8,0.9-4.8,3.4-6l-5.3-8.8l3.6-0.3l4.8,8.5
		l3.9-0.3l-0.7-8.8l3-0.2L140.1,231z M136.4,222.2l-4.6,0.4c-1.1,0.1-2,0.5-2.5,1.2s-0.7,1.4-0.7,2.3c0.1,1.1,0.5,1.8,1.2,2.3
		c0.5,0.4,1.3,0.5,2.3,0.5l4.7-0.4L136.4,222.2z"/>
	<path d="M119.6,231.9l-12.7-1.4l0.3-2.9l9.7,1l0.6-5.9l-8.3-0.9l0.3-2.8l8.3,0.9l0.6-6l-9.7-1l0.3-2.9l12.7,1.4L119.6,231.9z"/>
	<path d="M100.7,229.3l-6.7-2c-2.6-0.8-4.2-2.5-4.8-5.1c-0.2-0.9-0.3-1.7-0.2-2.6c0.2-0.8,0.5-2.3,1.1-4.3c0.6-2.1,1.2-3.6,1.6-4.4
		c0.2-0.4,0.4-0.7,0.7-1c0.2-0.3,0.5-0.6,0.8-0.9c0.8-0.8,1.9-1.3,3-1.6c1.2-0.3,2.5-0.3,3.9,0.1l6.5,2L100.7,229.3z M103,211.5
		l-3.5-1.1c-1.6-0.5-3-0.3-4.1,0.6c-0.5,0.3-0.8,0.8-1.1,1.4c-0.3,0.6-0.7,1.8-1.2,3.6c-0.5,1.7-0.9,3-1,3.7c-0.1,0.8-0.1,1.5,0.2,2
		c0.5,1.4,1.4,2.3,2.9,2.7l3.5,1.1L103,211.5z"/>
	<path d="M80.8,222.6l-2.7-1.4l6.3-11.7c0.6-1.2,0.8-2.4,0.5-3.4s-1-1.8-2-2.4c-1-0.6-2.1-0.7-3.1-0.4s-1.9,1.1-2.5,2.3L71,217.3
		l-2.7-1.4l6.5-12c1.1-1.9,2.5-3.1,4.2-3.6c1.8-0.5,3.6-0.3,5.4,0.6c1.8,1,2.9,2.3,3.5,4.1s0.4,3.6-0.6,5.5L80.8,222.6z"/>
	<path d="M61.1,191.7c1.5-1.2,3.1-1.8,4.7-1.8s3.1,0.6,4.5,1.7c1.2,1,2,2.2,2.3,3.4c0.4,1.2,0.4,2.4,0.2,3.4
		c-0.1,0.3-0.2,0.6-0.3,0.9c-0.1,0.3-0.3,0.6-0.5,1c-0.4,0.7-1.4,2-2.9,3.8c-1.5,1.9-2.6,3.1-3.2,3.6s-1.2,0.9-1.8,1.1
		c-1,0.4-2.1,0.6-3.4,0.5c-1.3-0.1-2.6-0.6-3.8-1.6c-1.5-1.2-2.3-2.7-2.5-4.3c-0.2-1.7,0.1-3.3,0.9-4.8l2.5,2
		c-0.3,0.8-0.4,1.6-0.3,2.5c0.2,0.9,0.6,1.6,1.4,2.2c0.6,0.4,1.1,0.7,1.7,0.8c0.6,0.1,1.1,0.1,1.6,0c0.6-0.1,1.1-0.4,1.7-0.8
		c0.6-0.5,1.5-1.5,2.8-3.1s2.1-2.7,2.4-3.3c0.4-0.6,0.5-1.3,0.5-1.8s-0.1-1.1-0.3-1.6c-0.2-0.6-0.6-1.1-1.1-1.5
		c-1.3-1.1-2.9-1.1-4.7-0.2L61.1,191.7z"/>
	<path d="M47.9,195l3.6,4.1l-2.1,1.8l-9.2-10.5l2.1-1.8l3.6,4.1L59.4,181l2,2.3L47.9,195z"/>
	<path d="M37.8,186.7l-1.7-2.5l17-11.6l1.7,2.5L37.8,186.7z"/>
	<path d="M41.9,174.7c-2.1,1.1-3.6,1.7-4.4,2c-0.8,0.2-1.5,0.3-2.1,0.3c-1.1,0-2.2-0.3-3.3-1c-1.1-0.6-2.1-1.6-2.8-3
		c-0.7-1.4-0.9-2.8-0.7-4.1c0.2-1.3,0.6-2.3,1.3-3.2c0.3-0.5,0.8-1,1.4-1.5c0.7-0.5,2.1-1.2,4.2-2.3s3.6-1.7,4.4-2
		c0.8-0.3,1.5-0.3,2.1-0.3c1.1,0,2.1,0.3,3.3,0.9c1.1,0.6,2.1,1.6,2.8,3s0.9,2.8,0.7,4c-0.2,1.3-0.6,2.3-1.2,3.2
		c-0.2,0.3-0.4,0.5-0.6,0.8c-0.2,0.2-0.5,0.5-0.9,0.7C45.4,172.9,44.1,173.7,41.9,174.7z M40.6,172c1.8-0.9,3-1.6,3.6-2
		s1-0.9,1.2-1.5c0.2-0.5,0.4-1,0.4-1.6c0.1-0.6-0.1-1.2-0.4-1.9c-0.3-0.6-0.7-1.1-1.3-1.5c-0.5-0.3-0.9-0.5-1.5-0.6
		c-0.6-0.2-1.2-0.1-1.9,0.1c-0.7,0.2-2,0.7-3.8,1.7c-1.8,0.9-3,1.6-3.6,2s-1,0.9-1.2,1.5c-0.2,0.5-0.4,1-0.4,1.6s0.1,1.2,0.4,1.9
		c0.3,0.6,0.7,1.1,1.2,1.4c0.5,0.3,1,0.6,1.5,0.7c0.6,0.2,1.2,0.1,1.9-0.1C37.5,173.5,38.8,172.9,40.6,172z"/>
	<path d="M23.7,159.8L23,157l11.9-12.5v-0.1l-14.2,3.7l-0.8-2.9l19.9-5.3l0.7,2.8l-11.9,12.5v0.1l14.2-3.7l0.8,2.9L23.7,159.8z"/>
	<path d="M30.4,130.3c-0.6,0-1-0.1-1.4-0.5c-0.4-0.3-0.6-0.8-0.6-1.3s0.1-1,0.5-1.4s0.8-0.6,1.4-0.6c0.5,0,1,0.1,1.4,0.5
		c0.4,0.3,0.6,0.8,0.6,1.3s-0.2,1-0.5,1.4C31.4,130.1,31,130.3,30.4,130.3z"/>
</g>
<g>
	<path d="M77.1,78.2h18.8c4.8,0.1,8.3,1.3,10.7,3.7s3.7,5.7,3.7,9.7c0.1,2.1-0.5,4-1.5,5.9c-0.5,0.9-1.3,1.7-2.2,2.6
		s-2.1,1.6-3.6,2.3v0.1c2.7,0.7,4.7,2.1,6,4.3c1.3,2.2,1.9,4.7,1.9,7.2c0,4.3-1.4,7.8-3.9,10.2c-2.6,2.7-5.8,3.9-9.5,3.9H77.1V78.2z
		 M84.4,84.9v14.4H95c2.7,0,4.7-0.7,5.9-2.2c1.3-1.4,1.9-3,1.9-5c0-2-0.6-3.7-1.9-5.1c-1.3-1.3-3.2-2-5.9-2H84.4z M84.4,106.1v15.1
		h11.3c2.7,0,4.8-0.8,6-2.3c1.3-1.5,1.9-3.2,1.9-5.2c0-2.1-0.6-3.8-1.9-5.3c-1.3-1.5-3.3-2.2-6-2.2L84.4,106.1L84.4,106.1z"/>
	<path d="M120,78.2h7.3v50H120V78.2z"/>
	<path d="M136.4,103.2c0-5.9,0.2-9.7,0.5-11.7c0.4-2,0.9-3.6,1.6-4.8c1.2-2.3,3-4.4,5.7-6.1c2.6-1.8,5.8-2.7,9.5-2.8
		c3.8,0.1,7,1,9.6,2.8c2.6,1.8,4.4,3.8,5.5,6.2c0.8,1.2,1.4,2.8,1.7,4.8c0.3,2,0.5,5.9,0.5,11.7c0,5.8-0.2,9.6-0.5,11.6
		c-0.3,2-0.9,3.7-1.7,4.8c-1.1,2.3-2.9,4.4-5.5,6.1c-2.6,1.8-5.8,2.8-9.6,2.9c-3.8-0.1-7-1.1-9.5-2.9c-2.6-1.7-4.5-3.8-5.7-6.1
		c-0.4-0.7-0.6-1.5-1-2.2c-0.3-0.7-0.5-1.6-0.6-2.7C136.6,112.8,136.4,109,136.4,103.2z M143.7,103.2c0,4.9,0.2,8.2,0.5,10
		c0.3,1.7,0.9,3.1,1.9,4.2c0.7,1,1.8,1.8,3.1,2.5c1.3,0.7,2.7,1.1,4.5,1.1c1.7,0,3.3-0.4,4.6-1.1c1.2-0.6,2.2-1.5,2.9-2.5
		c0.9-1.1,1.6-2.5,2-4.2s0.5-5.1,0.5-10c0-4.9-0.2-8.3-0.5-10.1c-0.4-1.7-1-3.1-2-4.2c-0.7-1-1.7-1.9-2.9-2.6
		c-1.3-0.6-2.8-1-4.6-1.1c-1.7,0.1-3.2,0.4-4.5,1.1c-1.3,0.7-2.3,1.6-3.1,2.6c-0.9,1.1-1.6,2.5-1.9,4.2S143.7,98.3,143.7,103.2z"/>
	<path d="M72.6,145.9h9.7c2.5,0,4.3,0.6,5.5,1.9c1.3,1.3,1.8,2.9,1.8,5c0,1.1-0.2,2.1-0.7,3c-0.3,0.5-0.6,0.9-1.1,1.3
		c-0.5,0.5-1.1,0.8-1.8,1.2v0.1c1.4,0.4,2.4,1.1,3.1,2.2c0.6,1.1,1,2.4,1,3.7c0,2.2-0.7,4-2,5.3c-1.3,1.4-2.9,2-4.9,2H72.6V145.9z
		 M76.3,149.4v7.4h5.5c1.4,0,2.4-0.4,3-1.1c0.6-0.7,1-1.6,1-2.6c0-1-0.4-1.9-1-2.7c-0.6-0.6-1.6-1-3-1L76.3,149.4L76.3,149.4z
		 M76.3,160.3v7.8h5.9c1.4,0,2.5-0.5,3.1-1.2s1-1.6,1-2.7c0-1.1-0.4-2-1-2.7s-1.6-1.1-3.1-1.2H76.3z"/>
	<path d="M107.4,166H98l-1.9,5.8h-4l9.1-25.8h3.2l9.1,25.8h-4L107.4,166z M106.3,162.5l-3.6-11.2h-0.1l-3.6,11.2H106.3z"/>
	<path d="M117,165.4c2,1.6,4.4,2.6,7.1,2.6c3.2-0.1,4.8-1.3,4.9-3.6c0-1.9-1.1-3.1-3.3-3.5c-1-0.2-2.1-0.3-3.3-0.5
		c-2.1-0.4-3.7-1.2-4.9-2.5s-1.7-2.9-1.7-4.8c0-2.3,0.7-4,2.2-5.5c1.4-1.4,3.4-2.1,5.9-2.1c3.1,0.1,5.8,0.9,8,2.7l-2.1,3.2
		c-1.8-1.3-3.9-1.9-6.2-2c-1.2,0-2.1,0.3-2.9,0.9c-0.8,0.6-1.2,1.6-1.3,2.8c0,0.7,0.3,1.4,0.8,2s1.5,1,2.7,1.3
		c0.6,0.1,1.6,0.3,2.8,0.4c2.4,0.4,4,1.2,5.2,2.6c1.1,1.4,1.6,3,1.6,4.8c-0.1,4.9-3,7.4-8.8,7.5c-3.7,0-6.9-1.2-9.5-3.5L117,165.4z"
		/>
	<path d="M137.5,145.9h15.9v3.7h-12.2v7.4h10.4v3.5h-10.4v7.6h12.2v3.7h-15.9V145.9z"/>
	<path d="M157.6,145.9h8.7c3.4,0,5.9,1.5,7.6,4.4c0.6,1,1,2,1.2,3c0.1,1.1,0.2,2.9,0.2,5.5c0,2.7-0.1,4.7-0.3,5.8
		c-0.1,0.5-0.2,1-0.4,1.5c-0.2,0.5-0.5,0.8-0.7,1.3c-0.7,1.2-1.7,2.2-3,3c-1.3,0.8-2.8,1.3-4.8,1.3h-8.5V145.9z M161.4,168h4.5
		c2.1,0,3.7-0.7,4.7-2.3c0.5-0.5,0.7-1.3,0.8-2.1c0.1-0.8,0.2-2.4,0.2-4.8c0-2.3-0.1-3.8-0.2-4.8c-0.1-1-0.5-1.7-1-2.4
		c-1-1.5-2.6-2.2-4.5-2.2h-4.5V168z"/>
</g>
<g>
	<path d="M125,250C56.1,250,0,193.9,0,125S56.1,0,125,0s125,56.1,125,125S193.9,250,125,250z M125,4.3C58.4,4.3,4.3,58.4,4.3,125
		S58.4,245.7,125,245.7S245.7,191.6,245.7,125S191.6,4.3,125,4.3z"/>
</g>
<text class="st0 st1"> </text>
<text class="st0 st1"> </text>
</svg>
