<?xml version="1.0" encoding="UTF-8"?><svg id="Layer_1" xmlns="http://www.w3.org/2000/svg" viewBox="0 0 432.35 60"><path d="M114.13,58.18c-3.76,0-7.52.01-11.28,0-2.33-.01-4.04-1.75-3.89-4.02.04-.61.25-1.25.55-1.79,3.74-6.54,7.49-13.06,11.27-19.58,1.57-2.71,5.2-2.7,6.76,0,3.76,6.5,7.51,13.01,11.25,19.52,1.59,2.77-.19,5.84-3.39,5.86-3.76.02-7.52,0-11.28,0ZM112.92,43.66c0,2.02,0,4.05,0,6.07,0,.88.48,1.44,1.23,1.46.75.01,1.26-.54,1.26-1.42,0-4.05,0-8.09,0-12.14,0-.24-.04-.5-.13-.71-.23-.53-.84-.82-1.36-.7-.58.14-.99.65-.99,1.31,0,2.04,0,4.09,0,6.13ZM114.14,55.09c.67,0,1.26-.61,1.26-1.32,0-.65-.56-1.22-1.2-1.25-.67-.03-1.28.59-1.29,1.29,0,.68.56,1.27,1.23,1.27Z" fill="#1d1d1d" stroke-width="0"/><path d="M101.84,25.92v-2.92h24.65v2.92h-24.65Z" fill="#1d1d1d" stroke-width="0"/><path d="M120.78,11.16l-5.1-5.1h0s-4.87-4.87-4.87-4.87c-1.59-1.59-4.16-1.59-5.75,0h0c-1.59,1.59-1.59,4.16,0,5.75l4.87,4.87.24.24,4.87,4.87c1.59,1.59,4.16,1.59,5.75,0h0c1.59-1.59,1.59-4.16,0-5.75ZM110.16,10.48l-4.32-4.32c-1.16-1.16-1.16-3.03,0-4.19s3.03-1.16,4.19,0l4.32,4.32-4.19,4.19Z" fill="#1d1d1d" stroke-width="0"/><path d="M400.92,41.29l-9.51-9.51h0s-9.08-9.08-9.08-9.08c-2.96-2.96-7.77-2.96-10.73,0h0c-2.96,2.96-2.96,7.77,0,10.73l9.08,9.08.44.44,9.08,9.08c2.96,2.96,7.77,2.96,10.73,0h0c2.96-2.96,2.96-7.77,0-10.73ZM381.12,40.02l-8.06-8.06c-2.15-2.15-2.15-5.66,0-7.81,2.15-2.15,5.66-2.15,7.81,0l8.06,8.06-7.81,7.81Z" fill="#1d1d1d" stroke-width="0"/><path d="M80.15,26.46c0-2.83,2.3-5.13,5.13-5.13s5.13,2.3,5.13,5.13-2.3,5.13-5.13,5.13-5.13-2.3-5.13-5.13ZM98.29,26.56c-.89-.89-2.33-.89-3.22,0l-6.17,6.17h-8.55l-8.07,6.39c-.89.89-.89,2.33,0,3.22.89.89,2.33.89,3.22,0l3.52-2.51v15.7c0,1.26,1.02,2.28,2.28,2.28h1.14c1.26,0,2.28-1.02,2.28-2.28v-7.98h1.14v7.98c0,1.26,1.02,2.28,2.28,2.28h1.14c1.26,0,2.28-1.02,2.28-2.28v-19l6.74-6.74c.89-.89.89-2.33,0-3.22Z" fill="#1d1d1d" stroke-width="0"/><path d="M29.89,60C13.41,60,0,46.59,0,30.11S13.41.22,29.89.22s29.89,13.41,29.89,29.89-13.41,29.89-29.89,29.89ZM29.89,4.6c-14.07,0-25.51,11.44-25.51,25.51s11.44,25.51,25.51,25.51,25.51-11.44,25.51-25.51S43.95,4.6,29.89,4.6Z" fill="#1d1d1d" stroke-width="0"/><path d="M241.94,60c-16.48,0-29.89-13.41-29.89-29.89S225.46.22,241.94.22s29.89,13.41,29.89,29.89-13.41,29.89-29.89,29.89ZM241.94,4.6c-14.07,0-25.51,11.44-25.51,25.51s11.44,25.51,25.51,25.51,25.51-11.44,25.51-25.51-11.44-25.51-25.51-25.51Z" fill="#1d1d1d" stroke-width="0"/><path d="M171.06,60c-16.48,0-29.89-13.41-29.89-29.89S154.58.22,171.06.22s29.89,13.41,29.89,29.89-13.41,29.89-29.89,29.89ZM171.06,4.6c-14.07,0-25.51,11.44-25.51,25.51s11.44,25.51,25.51,25.51,25.51-11.44,25.51-25.51-11.44-25.51-25.51-25.51Z" fill="#1d1d1d" stroke-width="0"/><path d="M17.82,42.29h-3.08v-21.14l-3.54,2.54v-3.36l3.54-2.72h3.08v24.68Z" fill="#1d1d1d" stroke-width="0"/><path d="M26.48,29.49c-1.97-.97-3.4-3.04-3.4-5.36,0-4.11,3.36-6.8,7.08-6.8s7.08,2.68,7.08,6.8c0,2.32-1.47,4.4-3.43,5.36,2,.82,3.79,3.08,3.79,5.87,0,4.36-3.58,7.23-7.44,7.23s-7.44-2.86-7.44-7.23c0-2.79,1.82-5.04,3.76-5.87ZM30.16,39.79c2.43,0,4.36-2,4.36-4.44,0-2.72-2.29-4.4-4.36-4.4s-4.36,1.68-4.36,4.4c0,2.43,1.86,4.44,4.36,4.44ZM30.16,28.2c2.22,0,4.01-1.82,4.01-4.08s-1.79-4.01-4.01-4.01-4.04,1.79-4.04,4.01,1.79,4.08,4.04,4.08Z" fill="#1d1d1d" stroke-width="0"/><path d="M37.64,28.34h5.65v-5.69h2.58v5.69h5.69v2.58h-5.69v5.65h-2.58v-5.65h-5.65v-2.58Z" fill="#1d1d1d" stroke-width="0"/><path d="M263.09,33.36c-.75,1.4-2.22,2.03-4.17,2.03-3.31,0-5.21-2.12-5.21-5.45v-1.59c0-3.43,1.95-5.4,5.21-5.4,1.81,0,3.31.65,4.17,1.88l-1.52,1.06c-.53-.77-1.54-1.21-2.65-1.21-2.07,0-3.28,1.4-3.28,3.67v1.59c0,2.07.97,3.71,3.28,3.71,1.13,0,2.17-.39,2.68-1.35l1.5,1.06Z" fill="#1d1d1d" stroke-width="0"/><path d="M254.55,22.78c-1.6,0-2.89-1.3-2.89-2.89s1.3-2.89,2.89-2.89,2.89,1.3,2.89,2.89-1.3,2.89-2.89,2.89ZM254.55,17.76c-1.17,0-2.13.95-2.13,2.13s.95,2.13,2.13,2.13,2.13-.95,2.13-2.13-.95-2.13-2.13-2.13Z" fill="#1d1d1d" stroke-width="0"/><path d="M298.38,1.31c-4.34,0-7.85,3.52-7.85,7.85,0,.94.17,1.83.47,2.67-.16-.02-.31-.05-.47-.05-2,0-3.93,1.92-3.93,3.93,0,.91-.3,6.04-3.02,6.04-.5,0-.91.41-.91.91s.41.91.91.91c6.34,0,9.38-3.92,10.43-6.45.2-.37.32-.77.38-1.19,1.17.69,2.53,1.1,3.99,1.1,4.34,0,7.85-3.52,7.85-7.85s-3.52-7.86-7.85-7.86Z" fill="#1d1d1d" stroke-width="0"/><path d="M309.42,33.54c1.21-.67,2.05-1.94,2.05-3.43h0c0-2.62-1.31-3.93-7.86-9.16-1.31-.86-2.89-1.31-4.57-1.31-3.71,0-6.84,2.43-7.91,5.78l-3.08,10.16c-.38,1.33-.03,2.75.91,3.76l9.16,9.81c.77.83,1.82,1.25,2.87,1.25.96,0,1.92-.35,2.68-1.06,1.59-1.48,1.67-3.97.19-5.55l-7.65-8.19,2.01-7.03,2.52.72-1.6,5.6,6.64,7.1c1.19,1.28,1.82,2.94,1.76,4.69-.06,1.75-.8,3.37-2.07,4.56-1.22,1.14-2.8,1.76-4.47,1.76-1.81,0-3.55-.76-4.79-2.08l-5.69-6.09v10.8c0,1.81,1.47,3.27,3.27,3.27h11.13c7.23,0,13.09-5.86,13.09-13.09,0-5.65-3.58-10.45-8.59-12.28Z" fill="#1d1d1d" stroke-width="0"/><path d="M315.8,17.2v-2.27c0-1.38.23-2.21,1.29-3.23l1.48-1.42c1.32-1.25,2.11-2.08,2.11-3.62s-1.09-2.41-2.54-2.41c-1.35,0-2.54.76-2.57,2.24h-4.35c0-4.09,3.16-6.1,6.92-6.1s7.15,2.01,7.15,6.29c0,2.64-1.48,4.48-3.29,6.26l-1.09,1.05c-.66.66-1.12,1.09-1.12,2.18v1.02h-3.99ZM320.05,18.95h-4.52v4.48h4.52v-4.48Z" fill="#1d1d1d" stroke-width="0"/><path d="M340.11,19.76c5.46,0,9.88-4.42,9.88-9.88s-4.42-9.88-9.88-9.88-9.88,4.42-9.88,9.88,4.42,9.88,9.88,9.88ZM330.85,32.73c0,1.03.83,1.85,1.85,1.85s1.85-.83,1.85-1.85-.83-1.85-1.85-1.85-1.85.83-1.85,1.85ZM347.52,22.27v3.78c2.82.57,4.94,3.07,4.94,6.05v3.22c0,.59-.42,1.1-1,1.21l-2.49.49c-.33.07-.66-.15-.73-.49l-.24-1.21c-.07-.33.15-.66.49-.73l1.49-.3v-2.2c0-4.85-7.41-5.02-7.41.15v2.06l1.49.3c.33.07.55.39.49.73l-.24,1.21c-.07.33-.39.55-.73.49l-2.41-.32c-.61-.08-1.07-.6-1.07-1.23v-3.38c0-2.98,2.12-5.47,4.94-6.05v-3.49c-.17.05-.34.08-.51.15-1.39.49-2.88.76-4.43.76s-3.04-.27-4.43-.76c-.57-.2-1.15-.32-1.74-.4v6.3c1.78.53,3.09,2.17,3.09,4.12,0,2.38-1.94,4.32-4.32,4.32s-4.32-1.94-4.32-4.32c0-1.95,1.3-3.59,3.09-4.12v-6.21c-4.91.83-8.65,5.06-8.65,10.2v3.46c0,1.91,1.55,3.46,3.46,3.46h27.66c1.91,0,3.46-1.55,3.46-3.46v-3.46c0-5.56-4.38-10.06-9.88-10.33h0Z" fill="#1d1d1d" stroke-width="0"/><path d="M387.67,17.2v-2.27c0-1.38.23-2.21,1.29-3.23l1.48-1.42c1.32-1.25,2.11-2.08,2.11-3.62s-1.09-2.41-2.54-2.41c-1.35,0-2.54.76-2.57,2.24h-4.35c0-4.09,3.16-6.1,6.92-6.1s7.15,2.01,7.15,6.29c0,2.64-1.48,4.48-3.29,6.26l-1.09,1.05c-.66.66-1.12,1.09-1.12,2.18v1.02h-3.99ZM391.92,18.95h-4.52v4.48h4.52v-4.48Z" fill="#1d1d1d" stroke-width="0"/><path d="M415.07,19.76c5.46,0,9.88-4.42,9.88-9.88s-4.42-9.88-9.88-9.88-9.88,4.42-9.88,9.88,4.42,9.88,9.88,9.88ZM405.8,32.73c0,1.03.83,1.85,1.85,1.85s1.85-.83,1.85-1.85-.83-1.85-1.85-1.85-1.85.83-1.85,1.85ZM422.47,22.27v3.78c2.82.57,4.94,3.07,4.94,6.05v3.22c0,.59-.42,1.1-1,1.21l-2.49.49c-.33.07-.66-.15-.73-.49l-.24-1.21c-.07-.33.15-.66.49-.73l1.49-.3v-2.2c0-4.85-7.41-5.02-7.41.15v2.06l1.49.3c.33.07.55.39.49.73l-.24,1.21c-.07.33-.39.55-.73.49l-2.41-.32c-.61-.08-1.07-.6-1.07-1.23v-3.38c0-2.98,2.12-5.47,4.94-6.05v-3.49c-.17.05-.34.08-.51.15-1.39.49-2.88.76-4.43.76s-3.04-.27-4.43-.76c-.57-.2-1.15-.32-1.74-.4v6.3c1.78.53,3.09,2.17,3.09,4.12,0,2.38-1.94,4.32-4.32,4.32s-4.32-1.94-4.32-4.32c0-1.95,1.3-3.59,3.09-4.12v-6.21c-4.91.83-8.65,5.06-8.65,10.2v3.46c0,1.91,1.55,3.46,3.46,3.46h27.66c1.91,0,3.46-1.55,3.46-3.46v-3.46c0-5.56-4.38-10.06-9.88-10.33h0Z" fill="#1d1d1d" stroke-width="0"/><rect x="65.43" y=".23" width="1.01" height="59.16" fill="#1d1d1d" stroke-width="0"/><rect x="135.2" y=".23" width="1.01" height="59.16" fill="#1d1d1d" stroke-width="0"/><rect x="205.95" y=".23" width="1.01" height="59.16" fill="#1d1d1d" stroke-width="0"/><rect x="276.31" y=".23" width="1.01" height="59.16" fill="#1d1d1d" stroke-width="0"/><rect x="362.39" y=".23" width="1.01" height="59.16" fill="#1d1d1d" stroke-width="0"/><path d="M167.8,52.5c-.66-.29-1.38-.49-1.96-.9-1.06-.74-1.55-1.84-1.59-3.13-.02-.78.54-1.4,1.28-1.44.77-.05,1.38.53,1.45,1.38.07.82.66,1.39,1.42,1.35.74-.03,1.31-.63,1.31-1.42,0-4.92,0-9.84,0-14.76,0-.06-.01-.12-.02-.23-1.22.3-2.2.92-2.93,1.93-.46.65-1.17.85-1.79.48-.2-.12-.38-.3-.52-.49-2-2.77-6.53-2.81-8.58-.07-.48.64-1.02.85-1.64.63-.63-.22-.95-.72-.93-1.5.11-4.17,1.89-7.54,5-10.23,3.14-2.72,6.85-4.13,10.97-4.5.13-.01.26-.03.43-.06,0-.46,0-.9,0-1.34.01-.81.59-1.41,1.35-1.42.76,0,1.36.59,1.38,1.4,0,.44,0,.88,0,1.35.68.09,1.34.15,1.99.26,4.8.85,8.87,2.96,11.83,6.93,1.68,2.26,2.53,4.82,2.58,7.63.01.77-.31,1.27-.95,1.49-.61.2-1.15,0-1.61-.62-2.05-2.75-6.53-2.73-8.57.04-.67.9-1.69.9-2.34,0-.71-.99-1.68-1.59-2.93-1.91v.56c0,4.69,0,9.39,0,14.08,0,2.46-1.1,3.88-3.48,4.48-.03,0-.05.03-.08.05h-1.09ZM156.65,31.14c3.29-1.21,6.27-.9,8.94,1.28,3.7-2.68,7.35-2.67,11.01,0,2.69-2.18,5.67-2.48,8.87-1.3,0-.05.03-.08.02-.1-.04-.13-.09-.26-.14-.38-1.15-2.74-3.13-4.75-5.69-6.18-3.9-2.18-8.08-2.71-12.42-1.78-3.53.75-6.55,2.43-8.84,5.3-.75.94-1.34,1.97-1.75,3.18Z" fill="#1d1d1d" stroke-width="0"/><path d="M194.42,15.68c-.51.57-1,1.16-1.52,1.72-.53.56-1.09,1.1-1.64,1.64-.61.6-1.44.61-1.99.06-.55-.55-.53-1.38.06-1.99.88-.9,1.78-1.79,2.67-2.67.81-.8,1.82-.61,2.34.42.02.04.06.06.08.1v.73Z" fill="#1d1d1d" stroke-width="0"/><path d="M149.25,19.61c-.68-.06-1.11-.28-1.35-.78-.26-.53-.21-1.06.19-1.48.96-1.01,1.95-2,2.96-2.96.53-.51,1.34-.46,1.85.04.51.5.58,1.32.07,1.85-.97,1.02-1.98,2.01-3,2.99-.21.2-.56.27-.72.34Z" fill="#1d1d1d" stroke-width="0"/><path d="M154.83,11.31c-.69-.04-1.12-.27-1.37-.79-.25-.52-.21-1.04.18-1.45.95-1,1.93-1.98,2.93-2.93.52-.49,1.33-.41,1.82.09.49.5.57,1.3.08,1.82-.95,1.01-1.93,1.97-2.93,2.93-.2.19-.53.25-.7.33Z" fill="#1d1d1d" stroke-width="0"/><path d="M167,7.38c-.1.19-.22.56-.47.82-.86.92-1.76,1.8-2.67,2.68-.59.57-1.43.56-1.96.01-.54-.55-.53-1.37.05-1.96.88-.9,1.77-1.79,2.67-2.67.44-.43.97-.55,1.55-.29.52.23.76.67.82,1.41Z" fill="#1d1d1d" stroke-width="0"/><path d="M173.66,5.82c.69.05,1.11.26,1.37.76.25.49.25,1.02-.11,1.41-.98,1.04-1.98,2.06-3.02,3.03-.51.47-1.3.36-1.78-.12-.49-.5-.56-1.3-.07-1.82.94-.99,1.91-1.95,2.9-2.9.21-.2.55-.28.72-.36Z" fill="#1d1d1d" stroke-width="0"/><path d="M183.48,7.26c-.18.32-.31.69-.55.95-.85.9-1.74,1.78-2.63,2.65-.59.58-1.41.59-1.96.05-.56-.55-.55-1.39.04-1.99.88-.9,1.77-1.79,2.67-2.67.43-.42.95-.53,1.51-.3.5.2.83.72.92,1.31Z" fill="#1d1d1d" stroke-width="0"/><path d="M157.55,19.52c-.68-.06-1.11-.28-1.35-.78-.26-.53-.21-1.07.19-1.48.93-.98,1.89-1.94,2.86-2.87.53-.51,1.34-.46,1.86.04.51.5.58,1.32.07,1.85-.94.99-1.91,1.95-2.9,2.89-.21.2-.56.27-.72.34Z" fill="#1d1d1d" stroke-width="0"/><path d="M186.14,15.57c-.1.19-.2.55-.44.8-.88.93-1.78,1.82-2.7,2.71-.59.57-1.43.56-1.96,0-.52-.54-.53-1.36.03-1.93.89-.91,1.79-1.81,2.7-2.71.45-.44,1.02-.54,1.55-.29.52.24.76.67.81,1.4Z" fill="#1d1d1d" stroke-width="0"/><path d="M227.29,28.49h1.55c3.28,0,4.69-1.7,4.69-4.4,0-1.95-1.59-3.75-4.04-3.75s-4.01,1.55-4.08,3.57h-3.03c0-3.93,3.39-6.35,7.11-6.35,4.15,0,7.14,2.78,7.14,6.6,0,2.56-1.44,4.58-3.72,5.66,2.42.97,4.08,2.96,4.08,6.13,0,3.83-2.85,7.07-7.25,7.07-4.76,0-7.43-2.78-7.69-6.53h3.03c.32,2.02,1.7,3.72,4.65,3.72,2.35,0,4.15-1.8,4.15-4.19,0-2.96-1.73-4.73-5.05-4.73h-1.55v-2.81Z" fill="#1d1d1d" stroke-width="0"/><path d="M240.57,30.8h-2.85v-12.95h12.63v3.1h-9.63v6.53c.79-.9,2.06-1.62,3.97-1.62,4.62,0,6.71,3.54,6.71,9.13,0,4.91-2.53,8.05-7.29,8.05-3.86,0-6.71-2.71-6.96-6.13h3.03c.47,2.09,1.91,3.32,3.93,3.32,2.56,0,4.19-1.48,4.19-5.23s-1.23-6.03-4.19-6.03c-1.7,0-2.85.87-3.54,1.84Z" fill="#1d1d1d" stroke-width="0"/></svg>