<?xml version="1.0" encoding="UTF-8"?><svg id="Layer_1" xmlns="http://www.w3.org/2000/svg" viewBox="0 0 259.4 424.09"><path d="M51.91,346.14v1.55c0,8.64-3.91,12.2-9.84,12.2s-9.69-3.56-9.69-12.2v-2.94c0-8.64,3.76-12.2,9.69-12.2,5.19,0,8.76,2.75,9.61,8.64h-3.25c-.85-3.99-2.94-5.62-6.35-5.62-4.11,0-6.35,2.56-6.35,9.18v2.94c0,6.62,2.25,9.18,6.35,9.18,3.76,0,6.12-2.17,6.47-7.71h-6.35v-3.02h9.72Z" fill="#1d1d1d" stroke-width="0"/><path d="M72.29,349.51l7.98-16.66h3.29v26.73h-3.33v-19.6l-6.51,14.02h-2.98l-6.39-13.91v19.49h-3.33v-26.73h3.25l8.02,16.66Z" fill="#1d1d1d" stroke-width="0"/><path d="M102.36,359.89c-5.93,0-9.69-3.56-9.69-12.2v-2.94c0-8.64,3.76-12.2,9.69-12.2s9.69,3.56,9.69,12.2v2.94c0,8.64-3.76,12.2-9.69,12.2ZM96.01,347.69c0,6.62,2.25,9.18,6.35,9.18s6.35-2.56,6.35-9.18v-2.94c0-6.62-2.25-9.18-6.35-9.18s-6.35,2.56-6.35,9.18v2.94Z" fill="#1d1d1d" stroke-width="0"/><path d="M150.83,332.85v3.02h-12.79v8.99h11.62v3.02h-11.62v11.7h-3.33v-26.73h16.12Z" fill="#1d1d1d" stroke-width="0"/><path d="M174.39,359.58l-5.58-11.27h-6.31v11.27h-3.33v-26.73h8.52c6.16,0,9.72,2.56,9.72,7.75,0,3.76-1.86,6.12-5.27,7.13l5.97,11.86h-3.72ZM167.69,345.29c4.53,0,6.39-1.39,6.39-4.69s-1.86-4.73-6.39-4.73h-5.19v9.41h5.19Z" fill="#1d1d1d" stroke-width="0"/><path d="M202.56,332.85v3.02h-12.79v8.37h11.62v3.02h-11.62v9.3h12.79v3.02h-16.12v-26.73h16.12Z" fill="#1d1d1d" stroke-width="0"/><path d="M227.4,332.85v3.02h-12.79v8.37h11.62v3.02h-11.62v9.3h12.79v3.02h-16.12v-26.73h16.12Z" fill="#1d1d1d" stroke-width="0"/><path d="M102.79,210h-5.73v-8.74c0-4.4,2.48-20.33,34.38-40.71.12-.07,10.13-6.4,18.31-14.48,4.43-4.38,6.87-10.17,6.86-16.31-.01-6.13-2.47-11.9-6.91-16.26-8.16-7.98-18.09-14.02-18.19-14.08-31.96-20.41-34.44-36.35-34.44-40.75v-8.68h5.73v8.68c0,2.61,1.53,16.59,31.73,35.88.37.22,10.53,6.39,19.18,14.85,5.55,5.44,8.62,12.66,8.64,20.34.02,7.69-3.02,14.93-8.56,20.4-8.65,8.54-18.84,14.98-19.27,15.25-30.19,19.28-31.71,33.26-31.71,35.87v8.74Z" fill="#1d1d1d" stroke-width="0"/><path d="M162.34,210h-5.73v-8.74c0-2.61-1.53-16.59-31.73-35.88-.41-.26-10.61-6.7-19.25-15.23-5.54-5.47-8.58-12.71-8.56-20.4.02-7.68,3.08-14.9,8.64-20.34,8.65-8.46,18.81-14.63,19.24-14.89,30.14-19.25,31.67-33.23,31.67-35.84v-8.68h5.73v8.68c0,4.4-2.48,20.33-34.38,40.71-.16.1-10.1,6.13-18.26,14.12-4.45,4.35-6.9,10.12-6.91,16.26-.01,6.14,2.42,11.93,6.86,16.31,8.19,8.08,18.2,14.41,18.3,14.47,31.92,20.38,34.4,36.32,34.4,40.72v8.74Z" fill="#1d1d1d" stroke-width="0"/><rect x="99.92" y="55.7" width="44.31" height="5.73" fill="#1d1d1d" stroke-width="0"/><rect x="136.7" y="72.59" width="15.06" height="5.73" fill="#1d1d1d" stroke-width="0"/><rect x="107.64" y="72.59" width="12.25" height="5.73" fill="#1d1d1d" stroke-width="0"/><rect x="118.15" y="198.57" width="41.32" height="5.73" fill="#1d1d1d" stroke-width="0"/><rect x="143.21" y="181.68" width="8.55" height="5.73" fill="#1d1d1d" stroke-width="0"/><rect x="107.64" y="181.68" width="20.75" height="5.73" fill="#1d1d1d" stroke-width="0"/><rect x="107.7" y="108.59" width="26.11" height="5.73" fill="#1d1d1d" stroke-width="0"/><rect x="123.64" y="145.68" width="27.67" height="5.73" fill="#1d1d1d" stroke-width="0"/><rect x="140.21" y="127.14" width="19.26" height="5.73" fill="#1d1d1d" stroke-width="0"/><rect x="99.93" y="127.14" width="26.34" height="5.73" fill="#1d1d1d" stroke-width="0"/><path d="M129.7-.09C58.44-.09.47,57.89.47,129.14s57.97,129.23,129.23,129.23,129.23-57.97,129.23-129.23S200.96-.09,129.7-.09ZM129.7,252.71c-68.13,0-123.57-55.43-123.57-123.57,0-35.46,15.02-67.48,39.03-90.04l67.14,67.14,4.05-4.05L49.44,35.27c21.61-18.5,49.65-29.69,80.26-29.69,68.13,0,123.57,55.43,123.57,123.57,0,30.61-11.19,58.65-29.69,80.26l-67.1-67.1-4.05,4.05,67.32,67.32c-22.56,24.01-54.57,39.03-90.04,39.03Z" fill="#1d1d1d" stroke-width="0"/></svg>