<?xml version="1.0" encoding="utf-8"?>
<!-- Generator: Adobe Illustrator 28.0.0, SVG Export Plug-In . SVG Version: 6.00 Build 0)  -->
<svg version="1.1" id="Layer_1" xmlns="http://www.w3.org/2000/svg" xmlns:xlink="http://www.w3.org/1999/xlink" x="0px" y="0px"
	 viewBox="0 0 2000 2000" style="enable-background:new 0 0 2000 2000;" xml:space="preserve">
<style type="text/css">
	.st0{fill:none;}
	.st1{fill:#FFFFFF;}
</style>
<g>
	<g>
		<g>
			<path d="M1654.1,336.9h30.5c7,0,12.3,1.5,15.8,4.6c3.5,3,5.3,7.3,5.3,12.7c0,3-0.4,5.6-1.3,7.6c-0.9,2-1.9,3.6-3.1,4.8
				c-1.2,1.2-2.4,2.1-3.5,2.6c-1.2,0.5-2,0.9-2.6,1.1v0.2c1,0.1,2,0.4,3.1,0.9c1.1,0.5,2.1,1.2,3.1,2.3c1,1,1.7,2.4,2.4,4.1
				c0.6,1.7,0.9,3.8,0.9,6.3c0,3.8,0.3,7.2,0.8,10.2c0.6,3.1,1.4,5.3,2.6,6.6h-12c-0.8-1.4-1.3-2.9-1.5-4.6
				c-0.2-1.7-0.2-3.3-0.2-4.8c0-2.9-0.2-5.4-0.5-7.6c-0.4-2.1-1-3.9-2-5.3c-1-1.4-2.3-2.4-3.9-3.1c-1.6-0.7-3.7-1-6.3-1h-16.5v26.3
				h-11.2V336.9z M1665.3,366h18.3c3.6,0,6.3-0.8,8.1-2.5c1.8-1.7,2.8-4.2,2.8-7.6c0-2-0.3-3.7-0.9-5c-0.6-1.3-1.4-2.3-2.5-3
				c-1-0.7-2.2-1.2-3.6-1.4c-1.3-0.2-2.7-0.4-4.2-0.4h-18.2V366z"/>
		</g>
		<g>
			<g>
				<path d="M1690.4,433.5c-46.1,8.9-85.7-31-77.1-77.1c4.8-25.8,25.5-46.4,51.3-51.3c46.1-8.9,85.7,31,77.1,77.1
					C1736.8,408,1715.8,428.6,1690.4,433.5z M1690.7,313.4c-42-9.3-78.4,27.2-69.1,69.1c4.8,21,21.7,38.2,43,43
					c42,9.3,78.4-27.2,69.1-69.1C1728.9,335.1,1711.7,317.9,1690.7,313.4z"/>
			</g>
		</g>
	</g>
	<path class="st0" d="M583.1,907.4C583.1,907.4,583.1,907.5,583.1,907.4l8.2,8.3C588.7,913.1,586.1,910.4,583.1,907.4z"/>
	<path class="st1" d="M596.4,920.9c3.1,3.1,6.1,6.1,9.2,9.2l-14.3-14.3C593,917.5,594.7,919.2,596.4,920.9z"/>
	<path d="M331.7,1719.8L331.7,1719.8l0,7.8c0,10.5,12.7,15.7,20.1,8.3l218.6-218.6c7.7-7.7,12.1-18.2,12.1-29.1
		c-0.1-179-0.1-358-0.1-537.1c0-3.3-1.3-6.6-3.7-8.9L381.7,745.1c-4.9-4.9-4.9-12.9,0-17.8l1.7-1.7c4.9-4.9,12.9-4.9,17.8,0
		L583,907.5c0,0,0,0,0-0.1c3,3,5.7,5.7,8.2,8.3l14.3,14.3c26.2,26.1,52.4,52.2,78.5,78.3c24.7,24.7,49.2,49.4,73.9,74.1
		c34.7,34.7,69.5,69.2,104.2,103.9c30.2,30.1,60.2,60.4,90.3,90.5c34.3,34.3,68.8,68.5,103.1,102.8c30.3,30.3,60.4,60.7,90.6,90.9
		c34.9,34.9,69.9,69.7,104.9,104.6c24.4,24.4,48.8,49,73.2,73.4c18.5,18.5,57.6,57.6,93.6,93.7c6.9,6.9,18.1,6.9,25.1,0l151.8-151.8
		c7-7,7-18.2,0-25.2c-42.6-42.6-91.8-91.8-116-116c-48.6-48.6-97.2-97.2-145.8-145.8c-36.8-36.8-73.8-73.5-110.6-110.3
		c-49.4-49.5-98.8-99-148.2-148.5c-43-43-86-86.1-129-129.1c-48.5-48.5-97-97-145.5-145.5C754.4,725,709.2,679.9,664,634.8
		c-2.4-2.4-5.6-3.7-8.9-3.7l-146,0c-10.1,0-17.1-11.5-11.2-19.7c2.4-3.3,6.2-5.3,10.2-5.3l783.1-0.2c9.4,0,18.3-3.7,25-10.3
		L1593.7,318c5.2-5.2,1.5-14-5.8-14l-838,0.1c-5.2,0-12.5,3-16.2,6.7c-22.3,22.1-44.4,44.4-66.5,66.6c-31,31-62,61.9-93,92.9
		c-26.1,26.1-52.2,52.1-78.3,78.2c-27.9,27.9-55.7,55.8-83.6,83.7c-22.7,22.7-48.3,48.5-71.8,71.8c-5.7,5.7-8.9,13.4-8.9,21.4
		L331.7,1719.8z"/>
</g>
</svg>
