<?xml version="1.0" encoding="UTF-8"?>
<svg id="Layer_1" data-name="Layer 1" xmlns="http://www.w3.org/2000/svg" version="1.1" viewBox="0 0 250 424.1">
  <defs>
    <style>
      .cls-1 {
        fill: #1d1d1d;
      }

      .cls-1, .cls-2 {
        stroke-width: 0px;
      }

      .cls-2 {
        fill: #1d1d1b;
      }
    </style>
  </defs>
  <g>
    <path class="cls-2" d="M114.1,123.9c.2-1,.8-1.9,1.1-2.9.4-1.3,1.3-2.5,1.4-3.9.2-.5.5-.9.7-1.3.6-1.3,1.9-2.4,1.9-4,0-.2,0-.5.2-.7,0,0,.2-.2.2-.4,0-.4.2-.8-.2-1.1q-.2-1.4-1.5-1.3c-.3,0-.5,0-.8,0-.2,0-.3,0-.5-.2,0-.8-.9-.8-1.3-1-.8-.3-1.6-1-2.6-.6-.2,0-.3,0-.5,0,0-.6-.3-.8-.8-.3-.2,0-.3,0-.5,0,0,0-.2-.2-.3-.2-.5-.3-1.1-.5-1.7-.7,0-.2-.3-.3-.6-.2-.7-.3-1.2-.8-1.8-1.1-1.6-.8-3.3-1.4-5.1-1.6-.5,0-.8-.3-1.2-.7,0-.3-.3-.5-.7-.4,0,0,0,0-.2,0-.2-.2-.4-.2-.6-.2-2.1-.9-4.3-1.8-6.4-2.7-1.2-.5-2.5-.8-3.6-1.3-1.5-.8-3-1.3-4.6-1.8-1.2-.4-2.5-.8-3.5-1.7-.3-.2-.6-.3-.9-.4-1.1-.4-2.3,0-3.3-.9,0-.2,0-.3-.2-.3,0-.2,0-.3,0-.5.3-.5,1-.5,1.1-1.1,0,0,0-.2,0-.3.4,0,.5-.4.7-.7.6-1,1.3-2.1,2.3-2.8.7-.9,1.4-1.9,2.3-2.8l-.2-.2c0,0,.2,0,.2.2,1.3-1.5,2.6-3,4.4-4,.2,0,.3-.4.5-.7.4-.2.8-.3,1-.7,1.3-1.6,3.1-2.5,4.7-3.8,1.4-1.1,3.2-1.8,4.8-2.8,1.6-1,3.2-1.9,5-2.5.3,0,.6,0,.9,0,1-.4,2.1-.6,3.1-1,.6-.2,1.2,0,1.5-.7h0c.5,0,1.1.2,1.5,0,1.4-.9,3-1.2,4.6-1.3,2-.2,3.9-.7,5.9-.7s2.9,0,4.3-.3c1.5-.2,3.1-.2,4.6,0,2.1.3,4.1.7,6.2,1,.6,0,1.3.3,1.8-.2.1,0,.2-.2.3-.3.7-.4,1-1.1,1.2-1.8.3-1,.5-2.1,1.2-2.9.2-.2.2-.4.1-.7.3-.5.2-1.1.5-1.6,1.2-2.2,1.9-4.7,3.1-6.9.1,0,.1-.3.1-.4.2-.8,0-1.1-.7-1.5-1.4-.9-3.1-.9-4.6-1.1-2.1-.2-4.3-.4-6.4-.7-1.7-.3-3.2-.4-4.9-.2h0c-.7-.5-1.3-.6-1.9-.3s-.4.2-.6,0c-.6-.4-1.1-.2-1.7,0s-1.3.4-2,.2c-.4,0-.6,0-.9.2-1.2,0-2.5,0-3.7.4h-.8c-.7-.5-1.2-.2-1.6.3-.2.2-.4.2-.6.2-.2-.3-.4-.2-.6,0-.5,0-.9,0-1.4,0-.2,0-.4,0-.6,0,0,0-.2,0-.2,0,0,0-.3,0-.4,0-.4,0-.9,0-1.3.2,0,0-.3,0-.3,0-1.6.3-3.3.8-4.9,1.3-1,.3-2.1.2-2.9.8-.6.5-1.4.7-2.2.8-.4,0-.8.2-1.2.4-1.2.7-2.7,1.1-3.8,1.9-.2,0-.4.3-.6.3-2.5.6-4.6,2.2-6.8,3.5-.3.2-.5.4-.8.5-3.2,1.2-5.6,3.6-8.1,5.7-1.5,1.3-3.1,2.6-4.5,4.1-1.5,1.6-2.9,3.4-4.5,4.9-1.7,1.6-2.7,3.8-4.4,5.4-.6.6-1.4,1.1-1.3,2.1,0,.2-.3.5-.6.8-.2.2-.5.4-.6.7-.7,1.6-1.9,2.9-2.5,4.6-.4,1-1,1.8-1.6,2.7-.7,1.1-1.2,2.4-1.7,3.7-.5,1.2-1,2.3-1.2,3.6,0,.6-.3,1.2-.5,1.7-.7,1.8-1.4,3.5-1.7,5.4-.3,1.7-.6,3.4-1.2,5.1-.4,1.2-.3,2.5-.7,3.7v.4c.4.8.2,1.7,0,2.5-.4,2.9-.4,5.7-.3,8.6,0,2.5.3,5,.7,7.5.4,2,.3,4.2,1,6.2.2.6.4,1.2.6,1.9.3,1.1.3,2.2.7,3.2.5,1.4.8,2.8,1.6,4.1,0,.2.3.5.3.8.4,1.6.6,3.3,1.8,4.5,0,.1.2.3.2.5.7,2.6,2.2,4.7,3.4,7,.9,1.7,2.1,3.3,3.3,4.8,1.2,1.5,2,3.3,3.6,4.5.4.3.7.7.8,1.1.2.6.7,1,1.2,1.3.8.6,1.2.5,1.6-.4s.7-1.8,1.2-2.7c.4-.9,1.1-1.6.9-2.7,0-.1,0-.3.2-.4.4-.9.8-1.8,1.1-2.7,1-2.5,2.1-4.9,3-7.3.3-.9.3-1.4-.2-2.2-1.3-2.2-2.9-4.2-4-6.6-.6-1.4-1.2-2.8-1.9-4.2-.3-.6-.6-1.3-.8-2-.5-1.9-.9-3.8-1.5-5.7-.3-1,0-2-.5-2.9-.4-1.1-.6-2.2-.5-3.4,0-.7,0-1.4-.2-2.1-.2-.8-.3-1.6-.3-2.5,0-1.3.3-2.6.2-3.9-.2-2.4.3-4.8.5-7.2,0-1.4.4-2.8.6-4.1.2-1.3.6-1.6,1.9-1.2.4,0,.7.3,1,.5.7.4,1.4.8,2.1,1.1,1.4.7,2.9,1.2,4.3,1.8.8.3,1.5.7,2.4.9.9.2,1.8.3,2.6.9.9.8,2,1.2,3.1,1.4.4,0,.8,0,1.2.3,1.7,1.1,3.7,1.6,5.6,2.5s3.9,1.7,5.9,2.5c.9.3,1.8.6,2.6,1,3.3,1.6,6.8,2.6,10,4.2,1.3.7,2.1.3,2.4-1ZM65.2,104.1h0ZM91,66.8c.5.2,1-.3,1.4-.2.2,0,.4,0,.4-.3,0-1,.5-1.9.9-2.9.3-.6-.5-.9-.8-1.2,0-.4.5,0,.6-.3,0-.4-.6-.3-.8-.6-.2-.2-.4-.4-.3-.7s.4-.4.7-.2c.8.4,1.2,0,1.4-.8,0-.5.4-.9,1-.5.4.2,1.2,0,1.1.7,0,.5-.2,1.1-1,1.1s-.3,0-.4,0c0,.6.6.7.8,1.1,0,.2.3.2.5.2.5,0,.7-.7,1.2-.5.4.2.6.6,1.2.4.3,0,1.5,1.4,1.5,1.8s-.3.6-.6.6c-.4,0-.7-.2-1-.3.4,1.1,0,1.8-.8,2.5-.3.3-.5.6-.7,1.1-.3.8-.8.9-1.4.4l-.4-.4c-1-1.1-1.8-1-2.7.4-.4,0-.8,0-1.2.2s-.4,0-.6,0c-.7-.6-1.6-.7-2.3-.2,0,0-.2,0-.2,0-.4,0-.7.8-1.1.4-.4-.5,0-.9.3-1.3,0-.2.3-.4.5-.4,1,0,.8-1.1,1.4-1.5.3-.2,0-.5-.4-.7-.4-.3-.6-.6-.2-1s.7-.2,1.2,0c1.1.8,1.4,1.8.9,3-.2-.4,0-.3,0,0ZM98.9,58.8c0,.2,0,.3-.2.3,0,0,.2,0,.2-.3,0,0,0,0,0-.2,0,.1,0,.2,0,.2ZM93,68.9c0-.3-.2-.6-.2-.9h0c0,.3,0,.6.2.9ZM80,82.7h0c0,0,0,.2-.2.2,0,0,.2,0,.2-.2ZM70.1,94.2c.4-.5.9-.5,1.5-.6h0c-.5,0-1.1,0-1.5.6ZM65.5,103.2c-.2.2-.2.6-.3.9h0c.1-.4.2-.7.3-.9ZM105.2,60.2c0,0,.2,0,.2-.2s0-.2-.2-.3c0,0,.2.2.2.3,0,0,0,.2-.2.2ZM105,59.6h0ZM113.9,58.1c-.8,0-1.7,0-2.5.3,0,0-.4,0-.5,0-.3-.5-.7-.6-1.3-.8-.3,0-.5-.4-.5-.8s.3-.5.6-.5c.7,0,1.2-.7,2-.6.3,0,.5-.2.5-.4,0-.9.5-1,1.1-1.1.4,0,.7,0,1.1-.2h0c0,0,0,0,0,0,0,.2,0,.5-.3.6-.6.4-.9.8,0,1.3.5.3.5,1,.5,1.5.2.5-.3.7-.7.7ZM128.6,51.4h0c.1,0,.3,0,.4,0-.1,0-.2,0-.4,0ZM128.5,51.4h0ZM125,63.4h-.3c-.2,0-.3,0-.4,0,0,0,.3,0,.4,0h.3ZM121.8,50.4v-.3.3h0ZM136.6,58v1.1-1.1h0ZM138,61.1h.2c0,0-.2,0-.2,0h0ZM138.7,60.9q.1,0,.2,0t-.2,0h-.2q.1,0,.2,0ZM128.4,48.1h-.1.1ZM124.4,49.1h0c0,0-.2,0-.3,0,0,0,.2,0,.3,0ZM61.6,95.3c0-.2,0-.4,0-.6h0c0,.2,0,.4,0,.6ZM61.5,94.7h.2-.2ZM58.7,101.8c.2-.2.4-.4.6-.6.3-.4.9-.5.9-1.2s.4-.3.6-.2c.3,0,.3.3.2.5s0,.4,0,.5c-.3,1.3-.5,1.5-1.8,1.5,0,0-.2,0-.3,0-.2,0-.2-.2-.1-.4ZM64.2,133.1c0,.5-.6.4-.9.2-1-.5-2-1.1-3.2-.3-.5.3-1.2-.5-1-1,.2-.4-.7-1,.3-1.3.3-.1,0-1.1.9-1.2h0q0-.2-.2-.3c-1.1-.3-.6-.6,0-.8.4-.2.6-.6.9-.8.2-.2.5-.4.8-.2s.3.5,0,.7c-.6.8-.3.9.5,1.2.7.3.9,1.1,1,1.8,0,.4,0,.8.5.9.8.2.3.8.2,1.1ZM72.6,101.3h0c-.2,0-.5,0-.7,0,.2,0,.5,0,.7,0ZM72.6,101.3h0v.4-.4ZM77,105.1h0c0,.6,0,.9-.2,1.1,0-.2.2-.6.2-1.1ZM77.1,105h0c0,0,0-.2,0-.3,0,.1,0,.2,0,.3h0s0,0,0,0h0Z"/>
    <path class="cls-2" d="M182.9,131.8h0Z"/>
    <path class="cls-2" d="M195.8,147.3c-.2-1.1.5-2.1,1.1-2.8.7-.9.7-1.7.5-2.6-.1-.4-.1-.8,0-1.2.3-1.2,1.1-2.3.6-3.6-.1-.2.1-.4.2-.6.4-.8.6-1.8.8-2.6.3-1.7.3-3.4.7-5.1,0-.1.1-.3,0-.4-.8-.8-.2-1.6,0-2.5.5-1.9,1-3.9-.2-5.7-.2-.3,0-.5,0-.8-.1-.9.5-1.8.1-2.6-.4-.8-.4-1.5-.4-2.3,0-1.3-.3-2.6-.4-3.9-.2-1.9-1-3.7-1.2-5.6,0-.5-.3-.8-.8-.8-.2.7.3,1.3.2,1.9,0,.2-.1.5-.3.5-.3,0-.4,0-.4-.4s-.2-.7-.4-1c-.1-.2-.3-.5-.5-.4-.9.3-1.4-.3-1.9-.8s-.8-.6-1.2,0c-.5.7-1-.2-1.5,0,.4-.5,1.1-.6,1.6-1.1s.8-.3,1.2,0c.6.2,1,.3,1.5-.3.5-.5,1-.3,1.2.4.1.4-.1.9.5,1,.8-.3.7-.7.2-1.3-.5-.5-.9-1-.6-1.7.1,0-.1-.3-.1-.5-.3-.8-.6-1.6-.8-2.3-.4-1.7-1.2-3.2-1.7-4.8-.9-2.8-2.6-5.2-4-7.8-.6-1.1-1.4-2.1-1.8-3.3-.1-.4-.3-.7-.6-.9-.6-.5-.9-1.1-1.3-1.8-.2-.3-.3-.7-.6-.9-.8-.9-1.6-.8-2,.3-.4,1.2-1.1,2.3-1.3,3.5-.1.3-.2.5-.4.8-.3.4-1,2.3-1.1,3.1,0,0-.1.2-.1.3-1.1,1.2-1.5,2.8-2.1,4.2.8-.4,1.2.4,1.9.6.3,0,.1.3.1.4-.1.3-.3.6-.2.9.1.5-.2.7-.6.8-.3,0-.7,0-.6.5.1.4.6.2.9.5-.5.4-1,.7-.8,1.6.2.6-.2.8-.8.4-.3-.2-.5-.3-.9,0,.3.6.7,1.1.7,1.8s.9.8,1.5.4c.2,0,.4-.4.6-.6.7-.4,1.5,0,1.5.8s-.1.8-.6.7c-.9,0-1.1.4-1.4,1.1-.3.8-.9,1.5.1,2.2,0,1.1.3,1.6,1.5.8.2,0,.5,0,.7.3-.1.3-.4.4-.6.5-.4.3-.4.6-.2,1,.6.9.8,1.7.6,2.8-.1.6.4,1.1.8,1.5.3.3.6.5.1,1-.2.3-.2.9.3,1.1.7.3.5.7.2,1.1-.2.3-.3.7-.2,1.1.2.5,0,.7-.5.7s-.4,0-.4.4.3.4.5.5c.3.2.6,0,.9,0,.7,0,1.1.6,1.7.5.5,0,.7-.8,1.4-.7.5,0,1,0,1.5-.2s.7-.6.6-1.1c-.1-.8.2-1.2.8-1.1.5,0,.9.3,1.4-.2s.7-.2.8.2c.1.3-.1.5-.4.6-.5.2-.7.7-.6,1.3.1.6.7.8,1.1,1.1.2,0,.5,0,.6-.2.2-.6,1,.2,1-.5.5,0,.5.5.8,1-1.1,0-1.6.8-2.2,1.3-.3.3-.6.7-1.2.5-.6-.3-.8.5-1.4.5,0,.3,0,.7-.1,1-.4.7,0,1.3.4,1.6.8.5,1.3,1.5,2.4,1.5s.5.4.7.6c.3-.2.4-.6.6-.9.3-.5.8-.8,1.5-.8s1,0,.5-.9c-.1-.2-.2-.5,0-.6.2-.2.4,0,.6.2.2.2.3.4.2.6,0,.2,0,.3.3.3.7,0,.8,0,.4.6-.3.5-.5,1.4-1.5.7-.3-.2-.8.2-.7.6.4,1.1-.4,2.2.3,3.3.3.4-.1.7-.5.8-.5.1-.5-.3-.5-.6s0-.5.1-.7c.1-.9-.1-.9-.8-1.5-1.6-1.1-3.2-.9-4.9-.2-.1,0-.3,0-.4,0,0,0-.1,0-.2,0,.2-.5.8-.7,1.1-1.1.3-.5.2-.8-.3-.9-.9-.2-1.8-.4-2.7.3-.5.4-1.3,0-2,0-.8,0-1.2.4-1.2,1.2s-.1.8-.2,1.2c-.3,1-.1,1.6.8,2,.4.2.6.6.6,1.1s-.1.6.3,1c.4-.4.4-1,.9-1.2.2-.1.4-.2.6,0,.1.2.1.3,0,.5-.5,1.1-.4,1,.4,1.9.5.7,1.5,1.3,1.1,2.4h0c-1.1.1-2.2-.3-3.2.4-.4.3-.8,0-.9-.5-.1-.3,0-.5,0-.8-.3.1-.5.1-.8.3-.6.2-.7.7-.4,1.2.2.4.4.8.6,1.3.1.5,0,.9-.6.8-.3,0-.8.2-.9-.2-.1-.4-.3-.9,0-1.3.4-.4.5-.8.3-1.3-.2-.7-.1-1.4-.2-2.1-.1-.7-.2-1.2.4-1.8.5-.5.3-1.3,0-1.9-.4-.7-.2-1.2.1-1.9,0,0,0,0,.1,0,.6-1.3.6-2.5-.4-3.6-.2,0-.2.3-.1.5.5,1.1.3,2.1-.5,3.1-.2.3-.2.6-.1.9.1,1,.3,2.1.2,3.2,0,1.2-.6,2.3-.2,3.6.1.5-.1,1.1-.6,1.5s-.9.1-1.4-.2c-.3-.2-.7-.2-1-.5-1.2-.7-2.4-1.3-3.8-1.6-1.4-.3-2.8-.8-4-1.6-1.4-.9-2.8-1.5-4.4-1.7-.2,0-.4-.1-.5-.2-1.8-1-3.8-1.7-5.8-2.4-1.8-.6-3.6-1.4-5.4-2.1-.7-.3-1.3-.4-2-.6-1.8-.4-2.1-1.2-1.3-2.8.9-1.8,1.9-3.6,2.5-5.6.2-.4.6-.6.7-1,.5-1.8,1.2-3.5,1.9-5.2.4-.9,1.1-1.7,1.2-2.6.1-.8.3-1.4.7-2.1.3-.5.4-1,.4-1.6.1,0,.2,0,.3,0,.5-1.5,1.6-2.8,1.9-4.4.3-1.4,1.1-2.5,1.3-3.9,0-.2.2-.5.3-.6.4-.3.4-.7.6-1,.5-1.3,1-2.6,1.6-3.8.6-1,.9-2.1,1.2-3.2.1-.4.3-.9.4-1.3.3,0,.4-.3.5-.6.4-1.6,1.1-3,1.7-4.5,1-2.6,2.4-5.1,3.2-7.8.3-1,1.2-1.7,1.1-2.8h0c0-.2.1-.5.1-.7.5-.2.5-.5.4-.9h0c.9-.7.8-1.5-.2-2.1-.1,0-.1,0-.2,0-.1-.3-.3-.5-.6-.4-.2,0-.3,0-.5-.2-.3-.6-.6-1.3-1.4-1.4-.6-.4-1.1-.7-1.7-1.1-.1-.6-.6-.8-1.1-1-1.8-1-3.5-2.1-5.1-3.4-.5-.4-1.1-.7-1.7-.9-.7-.2-1.4,0-1.7.8-.1,0-.1.3-.2.4-.3,0-.5.3-.3.7-.8,1.6-1.2,3.3-2,4.9-.3.6-.7,1.2-.9,1.9-.6,2.3-1.7,4.3-2.6,6.5-.5,1.3-1.4,2.5-1.7,3.8-.5,2-1.5,3.8-2.3,5.7-.8,1.8-1.3,3.8-2.4,5.5,0,0,0,.2-.1.3-.1,1.3-.8,2.4-1.2,3.5s-.9,2.1-1.4,3.2c-.4.9-1,1.8-1.5,2.7-.8,1.5-.9,3.2-1.5,4.7-.7,1.8-1.5,3.5-2.2,5.3-1.5,3.7-3.1,7.4-4.8,11.1-.7,1.5-.6,3.2-2,4.4-.1,0-.1.4-.1.5,0,1.1-.6,2-1,3s-1.2,1.8-1.5,2.8c-.2.8-.5,1.6-1,2.2-.5.7-.3,1.8-1.1,2.4v.3c.4.6,0,1.2-.2,1.7-.6,1.2-1.5,2.3-1.6,3.8,0,.1,0,.3,0,.4-1,1.7-1.7,3.5-2.2,5.5,0,.3-.3.6-.4.9-.4.9-1.1,1.7-1.2,2.6,0,.9-1,1.3-1.1,1.9-.2.7,0,1.5-.4,2.1-.3.4-.3.8-.4,1.2.3.4.6.9,1.2.2,0-.1.4-.2.4-.3.7-1.2,1.7-1.1,2.8-.9.7.1.9-.1.6-.7-.3-.6-.4-1.4-1.4-1.4s-.5-.2-.5-.6.3-.6.6-.5c.9.2.9-.1.9-.9s.3-1.4,1.2-1.4.5-.3.7-.4c.5-.2,1.2-.3,1.6.2.5.7,1.2.5,1.9.8.5.2.9-.1,1.2-.5.4-.4.9-.6,1.5-.4s.4.4.4.7c-.1.3-.3.3-.5.2s-.4-.1-.5.1c-.1,1-1.2.7-1.6,1.4-.3.5-1.8.2-2.2-.4-.4-.6-.8-.9-1.5-1.3-.3.6,0,1.6-1.1,1.7-.2,0,0,.3,0,.4,0,.1.4.2.5.2,1.2-.5,2.2.4,3.1.4.2.2.2.3.2.4-.4,1.5-.6,1.6-1.9.6-.4-.3-.6-.1-.9.1-.4.3-1,.3-.9.9,0,.3.2.8.7.5.2-.1.4-.3.6-.3s.4.1.4.3c.2.8-.6,1.9-1.4,1.8-.3,0-.6-.3-.7,0-.2.6-1,.6-1,1.3s0,.9.6,1c.8.2.9.4.3,1-.6.7-.9,1.4-.8,2.3,0,.3,0,.7,0,.8-.8.8-.3,1.8-.7,2.6.6.3.9-.3,1.4-.4.6,0,.4.7.9.8.4-.2.4-.7.9-.8-.3-.4-.7-.2-1.1-.4.8-1.1.7-2.3,0-3.5,0-.3.4-.2.6-.3.6-.3.8-.7.3-1.4-.3-.4-.3-.9-.4-1.3,0-.4,0-.7.6-.8.4-.1.8,0,.8.5s.8.9,1,1.5c0,.2.4.2.6.1.5-.2.9.1,1.4.2.6.1.3.7.5,1,.8,1.2.4,2.5.6,3.7,0,.1,0,.4-.1.4-1.1.2-.7,1.3-1.2,1.8.2.3.5.2.7.1.1,0,.3,0,.3.2-.1.6-.7.6-1,.9-.2.2-.4.1-.6-.1,0,0,0-.1-.1-.1-.3-.3-.5-.9-1-.6-.5.3-.7.9-.5,1.4,0,.5.2.8-.5,1.1-.5.2-.5.7-.3,1.2.4,1.2.4,1.7,0,3,0,.4-.3.7-.2,1.1,0,.7-.2,1.1-.9,1.3-.2.1-.6.2-.4.6.2.3.5.4.8.2.3-.1.4-.5.9-.6-.3.9,0,1.7-.4,2.5-.4.8-.5.8-1.2.3-1-.7-2-1.5-2.9-2.2-.2-.1-.4-.3-.7-.2.3.8.9,1.4,1.6,1.9.5.4,1,.8,1.2,1.5.2.4.4.9-.2,1.2-.5.2-1.1.4-1.5-.2-.2-.3-.6-.6-.5-1,0-.8-.5-1.2-.8-1.7-.3-.7-.8-1.1-1.7-.6-.2.1-.5.1-.5-.2,0-.9-.7-.8-1.3-.9,0,.1,0,.2,0,.3,0,.4.8.8.3,1.3-.4.4-1,0-1.4-.3-.6-.4-1.4-.7-.9-1.7s-.7-.9-.3-1.5c.3-.4.6-.8.8-1.3.2-.5,0-1-.4-1.4-.7-.7-.8-1.4-.2-2.1.4-.4.8-.7.6-1.4,0-.2.2-.5.3-.8q.5-1-.6-1.7c1-.5,1.5-1.2,1.7-2.2,0-.8.7-1.4,1-2.1,0-.3.4-.4.7-.3.7.2.9-.2.8-.7,0-.9.2-1.6.9-2.3.2-.1.2-.4.3-.6.2-.8,0-1.6-.4-1.8-.5-.2-1.8.2-2.2.6-.3.4-.4.8-.9,1-.5,1.5-1.1,3-1.6,4.4-.7,1.9-1.5,3.8-2.3,5.7-1.3,3.2-2.5,6.4-3.9,9.5-1.1,2.3-1.8,4.8-2.8,7.1-.7,1.7-1.3,3.4-2,5.1-.8,1.9-1.7,3.7-2.5,5.6-.4,1-.2,1.3.9,1.7.8.3,1.8.2,2.6.4,3.9,1,7.8,1.7,11.7,2.3,1.1.2,1.5,0,1.8-.9.7-2,1.8-3.9,2.4-5.9.3-1.3,1.3-2.2,1.6-3.5.2-1.1.8-2.1,1.4-3,.5-.7,1.2-1.4,1-2.4,0-.6,0-.9.4-1.3.2-.3.4-.6.5-.9.3-1.4,1-2.7,1.5-4,.9-2.6,2.3-5,3.1-7.7.5-1.6,1.5-2.9,2-4.4.8-2.4,1.5-4.8,2.9-6.9.1-.1.2-.2.2-.4.3-2,1.5-3.7,2-5.6.7-.8,1.1-1.7,1.1-2.8s.1-.2.1-.3c.7-.3.9-.7.5-1.4v-.3c.8-.4.7-1.2.9-1.9.2-.1.2-.3.2-.6.3-.1.3-.4.2-.6.1-.2.1-.5.2-.7.8-.6.7-1.5,1-2.3s1.6-1.3,2.2-.7c.5.4,1,.6,1.5.9.6.3,1.3.4,2,.7,1.3.7,2.6,1.2,3.9,1.7,1.6.6,3.1,1.5,4.8,2,.4.1.7.4,1.1.7,1.1.7,2.4,1.1,3.6,1.4,1.3.3,2.4.9,3.3,1.8s.5.3.9.3c.8.2,1.7.2,2.4.6,1.4.8,2.9,1.2,4.5,1.4.2,0,.4,0,.5.1.8.3.9.8.3,1.3-.5.5-.9,1-1.4,1.5-1,1.2-1.9,2.4-3,3.5s-1.1,1.3-1.3,2.2c.6.1,1,0,1.3-.4-.3.4-.7.5-1.3.4h0c-.4.1-.8.3-1.1.6h0c-.7.6-1.5,1.1-1.5,2.2h0c-.8.1-1,.8-1,1.5-.4.1-.6.4-.7.8-1.4.6-2.6,1.6-3.7,2.8-.9.2-1.7.6-2.1,1.4-.2.4-.5.6-.9.8-.4.1-.6.4-.8.7-.9,1.1-2.4,1.5-3.3,2.6,0,.1-.2,0-.3.1-1.7.5-3.2,1.4-4.7,2.1-.4.2-.8.4-1.2.5-1.7.4-2.9,1.4-3.5,3.2-.5,1.6-.7,3.3-1.9,4.5s-.2.3-.2.5c-.3,2-1.1,3.9-2,5.7,0,.4,0,.8-.4.9v.5c.3.3.2.6,0,.9-.6.8-.7,1.8-1.3,2.6-.5.6-.6,1.5-.8,2.2-.1.4,0,.7.5.6.3-.1.6-.1,1,.1.2,0,.4,0,.6-.1,0-.2.1-.3.3-.1h0c.8-.6,1.8-.5,2.7-.8h0c0-.2,0-.4.3-.5,2.7-.4,5.3-1.3,7.8-2.2,1.2-.4,2.4-.9,3.7-1q.1,0,.2-.1c.1-.7.3-1.2,1.2-.9.6.2,1.3.1,1.6-.6.1-.3.4-.5.7-.6,1.3-.4,2.5-1.3,3.7-1.8.6-.3,1.1-.2,1.2.6.6.2.7-.3.8-.7.7-.1.9-.8,1.5-1,1.4-.7,2.8-1.3,3.8-2.6l.2-.2c1.5-.7,2.7-1.6,3.8-2.7.6-.6,1.2-.7,2-.5.9.2.9.1,1-.8.1-.8.3-1.4,1.1-1.7.5-.2,1.3-.5,1.4-1.1.1-1.1.9-1.4,1.7-1.6.5-.2.7-.4.7-.9.1-.5.4-.9.8-1.2.6-.5,1.3-.9,1.5-1.8.1-.9.8-1.4,1.6-1.6.5-.1.9-.4,1-.8.2-.7.9-1.2,1.2-1.8.4-.8,1-1.4,1.2-2.3.3-.9.9-1.7,1.6-2.3.8-.7,1.6-1.3,1.5-2.5,0-.2.1-.4.2-.5,1-1,.6-2.9,2.3-3.4.2,0,.3-.5.3-.7.1-.5.1-1,.1-1.5,1,.3.8-.6,1-1.1,1-1.4.7-3.3,1.8-4.7-.5-.3-.5-.4-.5-.4ZM184.6,103.5h0ZM184.7,103.5h.1-.1ZM185.2,103.3h0c.5-.2.8,0,1.3.3-.5-.3-.9-.5-1.3-.3ZM194,97.8h0c.1-.2.1-.4.2-.6,0,.2,0,.4-.2.6ZM180.9,88.2c.1,0,.1,0,.2.2h0l-.2-.2ZM184.9,123.7c-.1,0-.3-.2-.5-.2.2,0,.4,0,.5.2ZM178.3,160.3c0-.3,0-.5-.1-.6.1.2.1.4.1.6h0ZM181.6,145.9c.1.5-.8,1.6-1.3,1.6s-.8-.6-.9-1.5c0-.5.3-.8,1.1-.8s1,0,1.1.7ZM175.6,148h0c0-.1,0,0,0,0ZM175.7,148.5h0c.1-.1,0-.3,0-.4,0,.2.1.4,0,.4ZM172.1,176c0-.1-.1-.1-.1-.2,0,0,0,.2.1.2ZM171.9,175.4v.3-.3h0ZM175.7,148.5h0c-.7-.1-1-.2-1.3-.1.2,0,.6,0,1.3.1ZM174.2,148.6c0-.1.1-.1.1-.1,0,0-.1,0-.1.1ZM164.3,181.4q.1.1.1.2h0c0,0-.1-.2-.1-.2ZM191.1,150.2h0c-.1.3-.1.6-.2.9,0-.3,0-.6.2-.9ZM186.8,143.8h0ZM151.8,85.6c.3,0,.4-.2.2-.5s-.4-.6-.7-.9c-.5-.7-.4-1,.2-1.5.7-.5,1-.6,2.6-.8-.4.8-.7,1.5-.6,2.4-.5,0-.7-.6-1.3-.5-.2.6.6.9.6,1.4,0,.8.5.9,1.1.8.2,0,.4,0,.4.3s-.1.4-.3.4c-.7,0-.9.4-1.1,1-.1.5-.8.5-1.1,0s-.4-.8-.8-1.1c-.2-.5,0-.9.8-1.1ZM167.7,135.5v.3-.3h0ZM167.7,136q0,.1-.1.2c0,0,.1-.2.1-.2ZM150.7,129.8c-.3-.1-.3-.3-.4-.5-.1-.2-.4-.3-.2-.6.1-.2.3-.2.5-.1.3,0,.5.3.5.6-.1.2-.2.5-.4.6ZM156.7,131.4q0,.1.1.2t-.1-.2h0ZM160.4,134.5v.3h0c.1-.1,0-.2,0-.3s-.1-.2-.1-.3c0,.1.1.2.1.3ZM150.2,92.6s.1,0,.1,0q0,0-.1,0ZM150.6,93.1c0,0,0-.2-.1-.3.1.1.1.2.1.3s-.1.3-.3.2c.2.1.3,0,.3-.2ZM152.8,100.3h0c0,.2-.1.3-.2.4,0-.1.2-.2.2-.4ZM150.2,101.4h0c-.1,0-.3,0-.3.2,0,0,.1-.2.3-.2ZM147.1,93.9c-.1,0-.2-.2-.3-.3,0,0,.2.2.3.3ZM130,144c.6-.2,1.1-.6,1.3-1-.2.4-.6.7-1.3,1h0ZM162.9,60.3c-.1,0-.2,0-.3,0,.1,0,.2,0,.3,0ZM162,60.1c-.3,0-.7,0-1,.2h0c.3,0,.7-.2,1-.2ZM136.5,149.7c-1.1.5-1.9,1.5-3.2,1.8-.3.1-.7.3-.3.7s.4.5,0,.7c-.3.1-.7.1-.9-.1-.2-.2-.3-.4-.3-.6-.2-.7-.7-.8-1.2-.6-.7.3.1.7.1,1.2-1.7.3-1.8,1-.6,2.6-.6.1-1,.1-1.2-.5s-.4-1.3-.7-1.8c0-.1-.1-.2-.1-.3.7-1.3.6-2.8,1.5-4,.4-.5.9-.4,1.4,0,.6.5,1,.4,1.4-.2.2-.3.2-.8.7-.8.5.1,1.3.1,1.5.5.3.6.8.5,1.3.7.3.1.6.2.9.4,0,0,0,.2-.3.3ZM173.4,146c0-.4.4-.8.8-.8.6-.1.4.5.5.7,0,.4,0,.9-.5.9-.5,0-.8-.4-.8-.8ZM153.7,183.1c0-.1.1-.1,0,0,0-.1,0-.2-.1-.2q.1,0,.1.2c.1-.1,0-.1,0,0ZM158.5,186.4c-.3,0-.4-.1-.4-.4s.2-.3.4-.3c.3,0,.5.2.6.5-.1.2-.4.2-.6.2ZM192.3,152.4h-.4.4c.1,0,.2.1.3.2-.1,0-.2-.2-.3-.2Z"/>
    <path class="cls-2" d="M4.2,107.8c0,.3,0,.7,0,1.1s0,.3.3.4c1.6.5,3.2,1.1,4.9,1.3.7,0,1.4,0,2,.5.9.5,1.8.8,2.8.8.8,0,1.4.7,2.2.6,1.3,0,2.5.3,3.7.9.3,0,.6.3.9.2.7,0,1.3,0,1.9.2,1.1.2,2,.7,3.1.7s.8,0,1.2,0c1,.2,2,.7,2.9.8,1.8,0,3.5,1,5.3,1.1,1.3,0,1.6,0,2.1-1.1.5-1.1.4-2.3,1-3.3.8-1.5,0-2.9-1.7-3.2-1.3-.2-2.6-.5-3.8-.7-.9,0-1.9-.2-2.9-.5s-2.1-.5-3.2-.8c-1.2-.3-2.5-.2-3.5-.7-1.9-1-4-.6-6-1-.1-.2-.4-.4-.1-.6.4-.3.8-.7,1.4-.8,1.2-.2,2.4,0,3.5-.7h0c1.1,0,2.1-.4,3.1-.8h.3c.1.2.2.2.2,0h0c.3,0,.7,0,.9-.3h.8c.6.5.8-.5,1.4-.3s.9-.3,1.2-.7c.3,0,.7,0,1-.2.2,0,.2,0,.3,0h.3c1.1.2,2-.2,2.8-.8.5,0,1,0,1.4-.3.9.3,1.8,0,2.5-.5.3,0,.6-.2.8-.3.3,0,.6,0,.8-.2,0,0,.2,0,.3,0,0,0,.2,0,.3,0,.6-.2.9-.7,1.1-1.3.5-2.2,1.1-4.3,1.6-6.5.2-1,0-1.4-.9-1.9-.8-.5-1.8-.6-2.7-.8-2.8-.6-5.5-1.6-8.4-2-.6,0-1.3,0-1.8-.2-1.1-.6-2.2-.8-3.3-1-3.2-.6-6.2-1.7-9.5-2-1.6-.2-3.1-.8-4.7-1.2-1.1-.2-2.1.2-2.2,1.2-.2,1.5-.8,2.9-1.1,4.3s-.3,1.3,1,1.8c1.5.6,3.1.3,4.7,1,2.5,1,5.2,1.4,7.8,2.1.6.2,1.2.4,1.9,0,.3,0,.7,0,1.1,0,1.1,0,2.2.6,3.3.6s.8.2,1.2.4c.2,0,.3.2.2.4,0,0-.2.3-.3.3-.9,0-1.7.6-2.6.7-1.2,0-2.5.3-3.7.7-.7.2-1.3.4-2,.3-.8,0-1.6,0-2.1.7-.2.3-.7.2-1,.3-.6.2-1.3-.2-1.7.2-.8.6-1.6.7-2.5.6-.3,0-.7,0-1,0-1,.4-1.9,1-3,.8-.1,0-.3,0-.5.2-.8.4-1.6.7-2.5.7s-1.1.4-1.2,1.1c0,.9-.4,1.8-.7,2.7-.2.6-.4.8-1,1-1,.2-1,.4-.6,1.4.7,1,1.1,1.6.7,2.5Z"/>
    <path class="cls-2" d="M245.1,103.5c-.4-.6-.4-1.3-.4-2-.1-1.4-.6-1.8-2-1.9-1.1,0-1.9.6-2.9.8-1.7.3-3.4.7-5.1,1.1-.7.2-1.4.5-2.1.7-.9.3-1.4,0-1.6-.9-.2-1-.4-1.9-.5-2.9-.1-.7-.2-1.5-.6-2.1-.4-.7-1.1-.9-1.8-.5-.7.5-.3.9.1,1.4.2.2.4.4.2.7-.2.3-.5.4-.9.3-1,0-1.7-1.1-1.5-2.3.1-.4.2-.7.1-1.1-.3-.9-.2-1,.6-1.2,1-.2,1-.3,1-1.2s-.1-.5-.2-.8c-.2-1.3.2-1.6,1.4-1.2.3,0,.6.2.9.2s.4,0,.6.3c.6.8,1.1,1,2,.7.6-.2,1.1-.4,1.7-.5,1.4,0,2.8-.5,4.2-1,.6-.2,1.2-.5,1.9-.5.9,0,1.4-.9,1.1-1.8-.5-1.4-.5-2.9-1.1-4.3s-.9-1.8-2.2-1.3c-2,.7-4,.7-6,1.3-1.5.4-3.1.5-4.6.9-3,.7-5.9,1.8-8.9,2-.4,0-.6.3-.7.7-.2,0-.4,0-.6,0-.2-.4-.6-.3-.9-.2-1,.4-2.1.3-3.1.6-.6.2-1.2-.2-1.7.3-.2,0-.3,0-.5.2-1.3,0-2.3.7-3.6.9-.4,0-.8.4-.5.9-.1.2-.2.5-.1.7-.1.8,0,1.5.6,2.1,0,.3,0,.5.2.8-.2.9.3,1.7.3,2.6s1,1.5,2,1.1c.3,0,.6-.2.9-.3,3.5-.7,6.9-1.8,10.2-2.9.6-.2.8-.5.6-1.1-.2-.5-.1-1.1.4-1.6.3,0,.6.6,1.1.4.4-.2.6,0,.8.3.3.5.8.3,1.3.4,0,.4,0,.7-.2,1.1-.3.8-.6.9-1.3.4-.4-.3-.9-.5-1.5-.3.3,2.1.7,4.2,1.4,6.2.4,1.1.6,2.2.8,3.4.1.6-.1.8-.7.8s-1,0-1.4,0c-1.9,1.2-4.2.8-6.3,1.3-1.1.2-2.2.2-3.2.6h0c-.1,0-.3,0-.4,0-1.8.2-2.1.8-1.4,2.6v.3c0,.2.1.3.2.2.1,0,.1.2.2.3,0,1.1.1,2.3.5,3.4,0,0,.2,0,.2,0,0,.3,0,.5.2.7.2,1.1.4,1.3,1.3,1.1.5,0,.9-.2,1.4-.2s1.5.2,2-.6c.2-.3.6-.3.9,0,1.2.5,2.2,0,3.1-.6.8-.5,1.6-.7,2.5-.4.4,0,.7,0,1.1,0,.8-.2,1.4-.9,2.3-1,1.5-.2,2.9-.8,4.4-.8s1.5-.2,2.2-.4c2-.6,3.9-1.4,6-1.5,1.5,0,2.9-.9,4.4-1.2,1.3-.3,1.2-.3,1.5-1.6.3-1.2.2-1.9-.3-2.6ZM219.2,93.2c.2-.2.2-.5.2-.8s0-.6-.1-.7c.2,0,.1.4.1.7s0,.6-.2.8Z"/>
    <path class="cls-2" d="M19.6,66c.8.3,1.5.8,2,1.5.6.8,1.4,1.3,2.3,1.5.7.2,1.3.6,2,1,.9.6,1.6,1.5,2.5,1.9,1.9.9,3.5,2.2,5.4,3.1,2.1,1,4,2.5,6,3.8,1.3.8,2.5,1.6,3.8,2.3.5.3,1,.5,1.4,1,.7.9,2.5,1.1,2.9.3.5-.8,1.2-1.5,1.6-2.3,1-2.1,2.6-3.9,3.4-6,0,0,.2-.2.3-.3.5-.2.6-.7.8-1.1.7-1.3,1.2-2.6,2.4-3.5.5-.4,1.1-1.1,1-2,0-.8-.3-1.5-1-1.8-1-.4-1.9-1.1-2.9-1.4-1.3-.5-2.1-.4-2.7.8-.5.9-1.1,1.7-1.6,2.6-.8,1.4-1.6,2.7-2.4,4.1-.8,1.5-1.3,1.5-2.6.6-.2,0-.3-.2-.5-.3-1.1-.4-2-1.3-3.1-1.9-.6-.4-.8-.9-.6-1.5,0-.4.2-.8.5-1.1,1.6-1.6,2.5-3.8,3.9-5.6.3-.3.4-.7.6-1.1.2-.5.2-1.1-.3-1.3-1.1-.6-1.9-1.6-3.1-2.1-2-.8-1.9-.9-3.1,1-1.3,1.9-2.4,3.9-3.6,5.9-.9,1.5-.9,1.6-2.6.8-.2,0-.4-.2-.6-.4-.5-.6-1.2-.9-1.9-1.1-1.4-.5-1.6-1.4-.8-2.6.1-.2.3-.3.5-.5,1.9-2.3,3.3-4.8,4.8-7.3.4-.6.3-1.3-.3-1.6-1.3-.6-2.2-1.7-3.5-2.2-1-.4-1.5-.3-2.1.6-1.4,2.1-2.7,4.4-4.3,6.3-.2.2-.4.5-.3.9s-.2.7-.4,1c-.3.4-.6.8-.8,1.3-.2.5-.5.9-.9,1.2-1.3,1.1-1.9,2.7-2.6,4.2-.4.7-.3,1.1.5,1.3Z"/>
    <path class="cls-2" d="M54,172.8c-.6-1.1-1.2-1.2-2-.7-1.4.9-2.9,1.7-4.2,2.7-1.6,1.3-3.4,2.2-4.9,3.7-.6.6-.9.5-1.4-.2-.9-1.2-1.4-2.6-2.2-3.8-.9-1.4-1.6-2.8-2.7-4.1-.5-.5-.8-.6-1.3-.4-1.1.4-2.1,1-3,1.6-.5.4-1,.8-1.3,1.4-.2.3-.2.5,0,.8.9,1.2,1.5,2.6,2.6,3.8.4.5.7,1,.9,1.6.3,1.1,1.2,1.9,1.7,2.9.4.7.4.9-.4,1.2-1.2.5-2.3,1.2-3.3,2.1-.6.5-1.4.7-2.2.8-.4.1-.7-.1-.9-.4-.7-1.1-1.5-2.1-2-3.3-.6-1.6-1.6-2.9-2.5-4.3-.7-1.2-1.5-1.4-2.7-.6-.9.7-1.9,1.3-2.9,1.9-.4.2-.7.7-.7,1.3-.1.4.2.7.5,1.1.7.9,1.5,1.7,1.6,2.9,0,.3.3.5.5.6,1,.6,1.5,1.6,2,2.6.4.9.6,1.9,1.4,2.6.9.8,1.5,1.7,1.6,2.9,0,.2-.1.5.3.7,1,.3,1.6,1.1,2.1,2,.4.7,1,.9,1.6.3.6-.5,1.3-.9,1.8-1.5.7-.9,1.8-1.1,2.6-1.6.6-.3,1.1-1.2,2-.9,0,0,.2-.2.2-.3,0-.5.4-.7.8-.9.7-.5,1.4-1,2.2-1.5.9-.6,1.8-1.4,2.8-1.8.6-.2,1.1-.5,1.5-.9s.8-.8,1.3-1c1.3-.7,2.4-1.5,3.6-2.3.8-.5,1.8-.9,2.5-1.5,1.3-1.2,2.5-2.2,4.2-2.9,1.1-.4,1.3-1.9.6-2.9-.8-1.3-1.6-2.5-2.3-3.7ZM36.6,190.4c-.7.2-1.4.5-2.1.5-.7-1.3.7-1.6,1-2.4,0-.2.4-.1.5,0,.3.8,1.5-.1,1.6.7.1.7-.5,1.1-1,1.2Z"/>
    <path class="cls-2" d="M13,145.4c-.1-.8-.1-1.6-.4-2.3-.2-.6.6-.9.2-1.4-.4-.6-.4-1.2.1-1.7.3-.4,1-.3,1.4-.8.3-.3.8.3,1.3.5.2-.5.5-.9,1.1-1,1.4-.2,2.7-.7,4.2-.7s2.6.1,3.8-.4c.2-.1.4-.1.6,0,2.3.2,4.5-.9,6.8-.6.3,0,.6-.2.9-.2.4-.1.8-.3,1.2-.2,1.5.3,2.8-.4,4.2-.6.6-.1.7-.5.7-1-.2-1.7-.4-3.3-.6-5,0-.4-.2-.8-.4-1.2-.2-.6-.6-.9-1.3-.5-.6.3-1.1.5-1.7.3-1.4-.4-2.7.3-4.1.2-.2,0-.5.1-.7.2-.6.3-1.3.3-1.9.3s-.6,0-1,.1c-.9.4-1.8.4-2.7.2-.4-.1-.8-.3-1.2.1-.4.4-.8.2-1.3,0-.3-.1-.6-.5-1-.1-.5.6-1.3.6-1.9.7-2.1.3-4.2.5-6.3,1-1.4.3-1.7.1-1.8-1.3-.1-.4,0-.8-.1-1.3-.2-1.4-.3-2.8-.5-4.1-.1-.8-1.1-1.6-1.8-1.4-1.1.3-2.2,0-3.3.2-1.1,0-1.7.7-1.7,1.8s0,.8-.4,1.1c-.6.4-.6.9,0,1.3.7.6.9,1.4,1,2.3.2,1.2.3,2.4-1.1,3-.2.1-.2.3,0,.5,0,.1.2.1.4.1s.3-.1.4-.2c.5-.3.7-.1.8.3,0,1,.4,1.9.5,2.9s0,2.1,0,3c0,.6.4,1.2,0,1.8-.2.3,0,.4.2.5.3.1.3.4.4.7,0,.6,0,1.1.2,1.7.2,1,0,2.1.4,3.2.2.7.5,1,1.3.8,1.3-.2,2.7-.3,4-.5,1.3-.6,1.4-.8,1.3-2.3Z"/>
    <path class="cls-2" d="M18.9,167.3c-.1-1.3.6-2.4,1.6-2.8,1.1-.5,2.3-1.2,3.5-1.3,1.3-.2,2.3-.7,3.5-1.1.4-.2.8-.4,1.3-.5,1.6-.3,3.1-1,4.6-1.6,1.5-.7,3.2-1,4.6-1.8,0-.1.3-.1.4,0,.4.7,1.5.6,1.8,1.6.2.8.8,1,1.6,1.1,1.2.1,2.1-.5,3.2-.9.9-.3,1-.9.9-1.9,0-1.2-.9-2.1-1.2-3.3-.3-1.1-.6-2.3-1.2-3.2-.6-1-.4-2.3-1.3-3.2,0-.1,0-.3,0-.4.5-1.1-.4-1.6-.8-2.3-.6-1-1.4-1-2.4-.6-.3.1-.6.1-1,.2-1.1.2-1.6,1-1.8,2,0,.6,0,1.1,0,1.7.2,1.2-.5,2.3-1.6,2.4-1.7,0-2.9,1.6-4.6,1.2-.1,0-.2.1-.4.2-.8.6-1.7.9-2.6,1.1-1.7.5-3.4,1-5,1.7s-3.1,1.5-4.9,1.7c-1.2.2-1.5.1-2.1-.9-.8-1.4-1.9-1.8-3.5-1.3-.4.1-.7.2-1,.4-.4.2-1,0-1.1.7-.1.5-.4,1-.2,1.5.4,1.2.8,2.4,1.4,3.5.8,1.4,1.2,3,1.6,4.6.3,1.1.9,2.1.9,3.4s.8,1.6,2,1.6c1.9,0,3.3-1,3.8-2.7,0-.3,0-.5,0-.8Z"/>
    <path class="cls-2" d="M46.1,48.4c2.9,1.9,6.2,1.4,9.3.7,2.4-.5,4.7-1.5,7.3-.9.4.3.7.7,1.2.9.7.7.6,1.5.3,2.5-.5,1.3-1.5,2.1-2.5,2.7-1.8,1.1-3.5,2.2-5.8,2.5-1.8.2-2,1.4-.9,2.7h0c1.1,1,2,2,2.9,3.1.4.5.9.7,1.7.4,1.3-.4,2.6-.9,3.8-1.6,1.3-.7,2.1-1.9,3.4-2.6,0,0,.2-.2.2-.4,0-.4.4-.6.7-.8,2.1-1.7,3.6-3.8,3.6-6.6s0-.8,0-1.1c.2-1.2,0-2.5-.6-3.5-1.5-3.1-3.3-5-6.9-5.8-.7-.2-1.4,0-2.1-.2-1.1-.2-2.3,0-3.3.3-2,.6-4.1,1.1-6.1,1.8-1.2,0-2.4-.4-3.4-1.1-.3-.2-.4-.5-.6-.8-.7-1.6-.4-2.8.9-3.8.3-.2.5-.4.8-.5,1.1-.3,2-1.1,2.9-1.7.7-.2,1.4,0,2-.5.6-.6.8-1.5.3-2.3-.2-.4-.3-.7-.3-1.1s0-.7-.3-1c0-.3.2-.6-.3-.8-.2-.2-.3-.5-.5-.7,0-.3-.3-.3-.6-.2h-.8c0-.1-.3,0-.4.1-1.9.8-3.8,1.5-5.4,2.7-2,1.6-3.9,3.2-4.9,5.6-.7,1.7-1.1,3.4-.8,5.2.5,2.8,2.4,5.2,5,6.8ZM66.5,43.8c0,0,0,0,.2,0q0,0-.2,0h0Z"/>
    <path class="cls-2" d="M153.5,36.3h0c-.9.4-1.2,1-.7,1.7.3.4.6.7,1.1.8.7,0,1.2.5,1.7.9.6.5,1.4.8,2.1,1,.9.3,1.4,0,1.9-.7.3-.4.4-.9.9-1,.7-.3,1-.8,1.3-1.4.9-1.7,2.6-2.2,4.2-1.3,1.2.6,2.4,1.2,3.6,2,1.1.8,2.6,1.1,3.9,1.7,0,.4-.3.7-.2,1.2-.4.2-.4.5-.4.8q-.1,0-.1.2c-.2,0-.4.2-.4.4.1,1.4-.5,2.6-.7,4-.2,1.6-.2,1.7,1.3,2.4.7.3,1.6.2,2.2.9.5.7,1.4.7,2.1,1.1.4.3,1.1,0,1.3-.7.2-.4.3-.9.3-1.4s0-1.3.2-1.9c.2-.6.2-1.2,0-1.8-.2-.7,0-1.2.3-1.8.6-1.1,1-2.2.8-3.4-.1-.5.1-1.1.3-1.6.6-1.4.7-3,.8-4.5.1-2.8,1.3-5.5,1-8.4,0-.3.2-.5.2-.8s0-.4-.2-.6c-.7-.7-.7-.9-.2-1.7q.6-.9-.3-1.5c-.2-.1-.3-.4-.6-.4-.9.8-1.8,1.5-1.2,2.9.1.2-.1.6-.6.7-.4-.6-.4-1.4-1.2-1.7-.4.4-1,.4-1.2,1.1-.3,1.1-.8,2.1-1,3.1s-.7,1.9-.7,2.9c-.1.8-.2,1.7-.4,2.5-.2.6-.2,1.2-.1,1.8-.1,0-.2,0-.3,0-.3-.2-.5-.4-.8-.5-.8-.2-1.3-1.2-2.2-1.1-1,0-1.6-.7-2.4-1.1-.5-.3-.6-.9-.3-1.5.2-.3.3-.6.5-.8.2-.3.5-.5.3-.8-.2-.4-.6-.4-1-.3-.2,0-.3.1-.5.2-.3.1-.6.1-.7-.2-.1-.4-.2-.8.1-1.2.2-.2.5-.2.8-.1.2.1.3.2.5.3.3.2.6.2.7-.1.2-.3,0-.5-.4-.6-1.1-.5-1.2-.8-.4-1.7.4-.4.7-.9,1.3-1,.8-.1,1-.5.9-1.2-.1-.5.1-1,.7-1,1,0,1.2-.9,1.7-1.4.8-1.1,1.4-2.3,2.1-3.5.3-.4.4-.8.1-1.1-.3-.3-.7,0-1,.3-.6.6-1.2,1.3-1.8,1.9-1.8,1.7-3.5,3.3-5.2,5.1-.7.7-1.5,1.2-2,2-.8.6-1.3,1.4-1.9,2.1-.2-.1-.3,0-.3.2-.9.9-1.8,1.6-2.6,2.5-1.6,1.8-3.5,3.3-4.8,5.2-1.2,0-2,.7-2.4,1.8Z"/>
    <path class="cls-2" d="M132.6,35.1c.6,0,1.1.3,1.8.4,1.4,0,2.8,0,4.2.6,1.7.7,3.4.7,5.2.6.2,0,.5,0,.7.2.4.8,1.3.3,1.9.6,1,.4,2.1.5,3.3.3.7,0,1-.4,1.1-1,.2-1.2.3-2.4.6-3.6.1-.5.1-1-.4-1.4-.4-.3-.4-.7-.5-1.1-.7.6-1.7,0-2.4.4h-.5c0,0-.1-.2-.1-.2-1.4-.3-2.9-.6-4.3-.8-.5-.1-1-.2-1.4.3h-.5c-.8-.5-1.1-1.2-.7-2.2.1-.3.1-.6.1-1,.2-1.3.4-2.7.8-4,.2-.7.5-.9,1.2-.9,1.1,0,2.1.2,3.1.6.9.3,1.7.7,2.7.4.5-.2,1,0,1.5.2.4.2.9.3,1.3.4.8.1,1-.1,1.2-1.1-.1,0-.1-.1-.2-.1-.1-.1-.2-.1-.3-.2.1.1.2.1.3.2.1,0,.1.1.2.1.1-.1.1-.3.2-.4h0c.6-.7.6-1,.1-1.7.1-.7.5-1.4.3-2.2.1-.3.1-.5-.2-.7-.1-.1-.2.1-.2.2-.3-.2-.7-.5-1.1-.4-.6-.6-1.3-.4-2-.2-.3-.2-.5-.2-.8-.1-.1-.1-.2-.3-.3-.3-1.3-.3-2.5-.8-3.8-.7-.6.1-1.3,0-1.6-.6-.5-.8-1.4-1-2.1-1.5-.2-.2-.7-.2-.7-.7.2-.2.5-.3.8-.4.9-.4,1.1-.7,1-1.6,0-.5-.2-.8-.7-.5-.2.1-.4.3-.5-.1-.2-.8-.5-1.5-1.2-1.9-.1-.1-.1-.4,0-.5.1-.2.3-.3.5-.1.6.6,1.1.1,1.7,0,.4,0,.8-.2,1.2-.3.3,1.2.7,1.5,1.9,1.5s1.5-.1,2.3-.2c.3-.5-.3-.8-.3-1.3.4-.3.7-.5,1.1-.8.5.4.2,1.3.8,1.4.9.2,1.3,1.2,2.3,1,.1,0,.3.1.3.2.5,1.2,1.6,1.1,2.6,1.3.8.1,1.5-.2,1.5-.9.1-1.2.4-2.3.4-3.5s-.1-.7-.2-1.1c0-.2-.2-.3-.4-.3-.3,0-.5,0-.5.4v.4c.2.5.3,1-.5,1.1-.9.1-1-.1-1.2-1.1-.1-.9-.4-1.2-1.3-1.4-.2,0-.3,0-.5,0-.6-.3-5-.7-5.6-.5s-1,0-1.3-.4c-.2-.5-.6-.7-1.2-.5-.8.3-1.5,0-2.2-.4-.6-.3-1.2-.5-1.8-.6-1.4,0-2.3.5-2.5,1.9-.3,1.9-.5,3.8-.7,5.7,0,.3-.2.6.1.9.2.1.3-.1.5-.2.7-.3,1.6-.2,1.8.2.2.5-.4,1.3-1.1,1.5h-.1c-1.4-.3-1.8.6-1.8,1.7s-.2.6-.4.9c-.1.3-.2.5.1.8v.5c-.4.1-.6.3-.3.6-.1.1-.1.2-.2.3h-.1q-.1.1,0,.2v.5c0,1.3-.9,2.5-.5,3.9.1.4-.2.7-.3,1-.2,1.2-.9,2.4-.4,3.6h-.1c-.6.6-.5,1.3-.3,1.9-.1.2-.2.5-.1.8-1.2.5-.6,1.5-.5,2.3,0,.2-.1.4-.1.5h0c-.5.3-.9.8-1,1.3-.4.7.5,1.8,1.3,2ZM147.1,18.9q0-.1-.1-.2c.1,0,.1.1.1.2h0ZM150.9,22.3h.2-.2Z"/>
    <path class="cls-2" d="M181.8,52.1c-1.6,1.2-1.6,2.1,0,3.4,1.5,1.8,3.4,3.3,5,5,.6.6,1.1,1.3,1.8,1.9,1.5,1.4,3.3,2.6,4.6,4.2.5.6.9.6,1.5,0,.9-.7,1.5-1.7,2.4-2.5.3-.2.4-.5.3-.9h0c.7-.6.7-1.1.2-1.5-.3-.2-.6-.4-1-.5-.3-1-1.3-1.3-2-1.9-.2-.7-.8-.9-1.3-1.2,0-.2-.2-.4-.4-.5-.3-1-1.1-1.6-1.9-2.2-.6-.4-.8-.9-.5-1.6.1-.2.2-.4.2-.7.1-.9-.1-1.3-1.1-1.6-.4,0-.9-.2-1.3-.4-.7-.3-.7-.6-.1-.9.5-.3.8-.8,1.4-.9.2,0,.4-.2.3-.4-.2-.6.1-.8.6-1.1s.7-.7.7-1.3c.1-.8.6-1.4,1.4-1.5.9,0,1.2-.6,1.2-1.6.7.6,1.2.5,1.7,0,.3-.4,1-.3,1.5,0,.7.4,1.4.5,2.1.8.6.2,1,0,1.3-.3.8-.9,1.7-1.7,2.5-2.6,1.5-1.7,3-3.6,4.9-5,1-.7.8-1.5-.5-1.9-.4-.3-.4-1-1.1-.8-.1-1-.9-1.5-1.5-2.1-1-1.1-.9-1-2.2,0-1.4,1-2.4,2.4-3.7,3.5-1.1.9-2,2.1-3.2,3-.2,0-.3.4-.4.6-.4.9-1.1,1.5-1.9,2-.5.4-1.1.7-1.3,1.4-.1,0-.2.2-.3.3-.5,0-.7.4-1,.7-1.7,1.8-3.5,3.5-5.2,5.3-.5.5-.9,1.1-1.2,1.7-.7,0-.9.6-1.4.9-.6.1-.8.7-1.1,1.2Z"/>
    <path class="cls-2" d="M243.4,145.2c.4-1.4-.4-2.4-1.2-3.4-.3-.3-.5-.6-.7-1-.3-.8-.9-1.2-1.8-1.4h0c-.3-.9-.7-1.7-1.7-2.1-.8-.3-1.8-.7-2.2-1.6-.4-.8-1.1-.9-1.8-1.1-1-.3-2.3,0-3.1-1-.1-.2-.5-.1-.8-.1-.5,0-.9,0-1.4-.2-1.3-.5-2.5-.8-3.9-.4-.4.1-1,.1-1.4,0-1.6-.6-3,.3-4.5.5-1.3.2-2.5.8-3.7,1.4-.9.5-1.7,1.2-2.5,1.6-.6.3-.8.6-.9,1.1,0,.1-.1.1-.1.2-1,.7-1.7,1.5-1.9,2.7-.2,1.3-.6,2.6-1.1,3.9-.5,1.1-.6,2.1-.6,3.2-.1,1.5-.2,3,0,4.6,0,.4.1.7.3,1.1.8,1.4,3.5,2.1,5,1.4.1-.1.3-.1.3-.2.1-1,.9-1.7.6-2.8-.2-.7-.6-1.4-.2-2.1.3-.5.4-1.1.3-1.8,0-1,.2-1.8.7-2.7.3-.5.6-1.1.3-1.7-.1-.3,0-.6.3-.9,1.7-1.3,3.4-2.9,5.8-2.6.2,0,.4-.1.6-.3.3-.2.6-.2.9-.2,1.2,0,2.3.3,3.5.1.2,0,.5,0,.7.1,1.3.5,2.6.5,3.9.8h0c.3.4.8.5,1.2.6.6.1,1.2.3,1.6.7.8.9,2,1.3,2.7,2.3.2.3.4.5.8.5l.3.3c.1.3,0,.7.2.9.8,1.4,1.1,2.9,1,4.4,0,.1.1.2.1.3-.2.4-.2.9-.2,1.3-.2.2-.3.4-.1.6,0,.2-.1.3-.1.5-.8,1.6-1.6,3.2-2.9,4.5-.3.3-.4.6-.3,1,.2,1.1,2.3,2.8,3.4,2.8s1-.2,1.3-.7c.5-.9,1-1.7,1.8-2.3.3-.3.4-.6.4-1s0-.6.2-.6c.8-.4.6-1.2.8-1.8.2-.8.2-1.7.3-2.6.3-1.7.6-3.5.2-5.2-.2-.6-.5-1.2-.4-1.6ZM236.7,139h.1-.1ZM234.2,140.4c0-.3.3-.3.5-.3h0c-.2,0-.5.1-.5.3Z"/>
    <path class="cls-2" d="M204.3,68.3c-.6.7-1.4,1.1-2.3,1.5-1.1.5-2.2,1.2-3.4,1.6s-1.5,1.5-.7,2.7c.1.2.2.4.3.6.5,1.3,1.1,2.6,2,3.7,1.2,1.5,1.5,1.4,2.4-.4-.2-.2-.5-.3-.7-.6-.2-.3-.6-.2-.9-.4-.6-.4-.6-1,0-1.4.2-.2.5-.3.8-.3.8,0,1.3-.2,1.7-.8.5.2.3,1,1,1,.6,0,.6-.7.9-1.2.2-.3.3-.7,0-1-.1-.2-.3-.4-.1-.6.5-.4.5-1.1.8-1.5.7,0,.4,1.2,1.4.9.9-.3,1-.2,1.1.9,0,0,.1.3.1.3,1.9.3,3.5-.4,4.7-1.6s1.5-1.2,2.4-1.6c.5-.2.9-.4,1.4-.7,1.6-.8,2.9-1.9,4.5-2.8.8-.5,1.8-1.2,1.7-2.5-.7-.2-1.3-.3-1.8.2s-.7.2-.7,0c-.2-1.2-1.1-1.1-1.9-1.2-.7,0-1-.6-.5-1,.8-.6.5-1.3.4-2.1-.5,0-.9,0-1.3.3-1.3.7-2.5,1.5-3.8,2.2-.8.4-1.8.8-2.4,1.6-.2,0-.3.2-.5.3-.7.4-1.6.4-2,1.3-.1,0-.2.2-.3.3-.9.3-1.7.9-2.5,1.4-.5.4-1.3.4-1.8,1ZM210.9,72.1c.2,0,.3-.2.3-.4,0-.3-.1-.5-.4-.6.3,0,.4.3.4.6s0,.4-.3.4Z"/>
    <path class="cls-2" d="M68.6,30.2c.5,1.3,1.9,1.4,2.9,2,.8.6,2.1.7,3.2.7,1.5.6,3.1.4,4.7.2,1.3,0,2.4,0,3.6.4,1.5.5,2,1.5,2.3,2.8.2.8,0,1.5-.7,1.9-.3,0-.4.4-.4.7h0c-.2,0-.3,0-.3.2-.8,0-1.5.5-2.2.8-1.2.4-2.2,1-3.6.7-1.1-.2-2.4,0-3.6.3-.6,0-1,.6-.7,1.1.6,1.1.8,2.4,1.8,3.2,0,.2,0,.4.2.5.6,1.9.9,2.1,2.8,1.7.4,0,.8-.2,1.2-.3.2,0,.2,0,.3,0h0c.8,0,1.5-.5,2.3-.5,1.8-.2,3.3-1.1,4.7-2.1.8-.5,1.5-1.3,2.3-1.7,1-.6,1.5-1.4,1.7-2.4,0-.8.3-1.4.7-2.1.2-.3.3-.8.3-1.2s0-.5,0-.8c.4-.2.3-.5,0-.8v-.6s0,0,0,0,0-.2,0-.2c0-1.6-.7-3-1.7-4.3,0-.2,0-.3-.2-.3-.3-.4-.2-1.2-1.1-1.2,0-.1-.2-.1-.3-.2-.7-.9-1.6-1.5-2.6-1.7-2.2-.5-4.3-1.1-6.6-.7-.2-.2-.4-.2-.6,0-.2,0-.3,0-.5-.1-.3-.2-.6-.1-.9-.1-1.4.2-2.7-.1-3.9-.7-.7-.3-1.5-1.8-1.3-2.3.4-.8.5-1.7.8-2.5.2-.6.5-1,1.3-1,1.9-.1,3.8-.6,5.7-.9.9-.1,1.6-.9,1.4-1.7-.2-.9,0-1.8-.2-2.6,0-1.7,0-2-1.7-1.9h-1c-.2-.1-.4,0-.6.2-.4,0-.7.1-1.1.1-.2-.1-.4-.1-.6.1-1,0-2,.5-3,.7-1.4.2-2.5.9-3.6,1.8-.4.3-.8.7-1.2,1-2.8,2.2-3.8,5.2-3.2,8.5.5,2,1.2,4.1,3,5.5Z"/>
    <path class="cls-2" d="M212.8,126.9c.9,1.1,2.1,1.4,3.1.8,1.3-.8,2.8-1.4,3.7-2.8.8-1.3.7-2.9-.6-3.7-.5-.3-1.1-.6-1.6-.9-.6-.4-1.2-.5-1.8-.5s-.7.2-1.1,0c-1-.2-1.6.4-2.2,1.1h0c-.7.2-.7.9-.7,1.4s-.4,1.1-.8,1.6c.4.3.8.6.8,1,0,.8.7,1.3,1.2,1.9Z"/>
    <path class="cls-2" d="M95.5,8.6c0,.1,0,.2,0,.3,0,.6.2,1.3.3,1.9,0,1,0,2.1.4,3.1,0,.6,0,1.1.2,1.7.3,1.7.5,3.5.7,5.2.2,1.7.5,3.4.8,5.1.3,2.1.8,4.2.9,6.3,0,1.7.5,3.3.8,4.9,0,.7.5,1,1.2.9,1.8-.2,3.6-.3,5.3-.9,1-.4,1.2-.8,1-1.8s-.4-2.1-.6-3.1c-.2-.8,0-1.7-.3-2.5-.4-.9-.5-1.8-.6-2.7.4-.6,0-1-.3-1.4v-1.1c0-.6,0-1.1,0-1.7.4,0,.7-.1,1.1-.1.3.1.7.2.9,0,.7-.6,1.6-.3,2.4-.5s.8.3,1.2-.1h.6c1-.5,2.1-.2,3.1-.5.4-.1.5.3.7.5.3,2.4.6,4.8.9,7.2,0,.6,0,1.3.2,1.9.2.6.3,1.2.3,1.9,0,1.4.7,2.3,2.1,2.1,1.6-.2,3.1-.4,4.6-.8.9-.3,1.1-.7,1-1.6,0-.6-.3-1.3-.4-1.9,0,0,.2-.2.2-.4,0-1.4-.2-2.8-.5-4.2-.3-1.3,0-2.6-.7-3.8-.2-.4,0-.8.2-1.2,0-.4,1.1-.7,0-1.2-.2-.1,0-.2,0-.3.2-.3.2-.6,0-.6-.8-.1-.8-.7-.8-1.2s0-1.2-.2-1.8c0-1.5-.7-3.2,1.1-4.3-1.9-1.6-3.2-3.3-2.9-5.9,0-.3,0-.7-.2-1-.3-.6-.4-1.3-.4-2-.2-.4,0-.9-.5-1.3-.6.3-1.2.3-1.8.2,0,0,.2,0,.3-.2-.8,0-1.5-.2-2.2.2h.5c-.9.2-1.8.5-2.7.3-.5,0-1,.7-.9,1.2.5,1.7.7,3.4,1.1,5.1,0,1.7.2,3.4.5,5.1.2,1.3,0,1.4-1.2,1.7,0,0,0,.1-.2.2h-.3c-.2,0-.3,0-.3.2-.4,0-.7.1-1.1.1-.4-.2-.8-.2-1.2.1-1.4.3-2.9.4-4.3.8-1.3.4-1.6.2-1.9-1.3,0-.7-.2-1.4,0-2.1,0-1.5-.4-3-.6-4.5h-.3.3c0-.9,0-1.8-.4-2.6,0-.4,0-.7-.2-1.1-.2-.8-.4-1-1.2-1s-.5,0-.8,0c-1.2.2-2.4.4-3.6.5s-1.7.6-1.5,1.7c.1.9.2,1.5.1,2.2ZM108.2,17.6c0,0,.2,0,.2.1,0-.1,0-.1-.2-.1s-.2.1-.2.1c0-.1,0-.1.2-.1ZM107.9,17.7c0,.1,0,.1,0,.2,0,0,0-.1,0-.2Z"/>
    <path class="cls-2" d="M230,170.9c-.1-.3-.3-.5-.5-.6-.5-.2-.8-.6-1.1-1s-.5-1-1.1-1.2v-.3c-.7-.9-1.9-1.3-2.4-2.4-.1-.1-.3-.2-.5-.2-1.2-.4-2-1.5-3.3-1.7-.2,0-.3-.2-.4-.3-.5-.5-1-.8-1.7-.8s-.6-.1-.8-.3c-.9-.9-2.3-.8-3.2-1.7-.2-.1-.4-.2-.7-.2-2.5,0-4.9-.5-7.4-.1h-.5c-.2-.1-.2,0-.3.2q-.1.1-.1.2c-.9.5-1.9.9-2.8,1.5-1.2.9-2,2.2-3.3,3.1-.5.3-.6,1-1.3,1.2-.2.1-.3.3-.4.6-.4,1.2-1.2,2.1-1.8,3.1-.2.3-.3.6,0,.9v.6c-.5,1.1-.5,2.2-.8,3.3,0,.2,0,.4.1.5.3.5.2,1,.1,1.5-.3,1.6,1,2.8.9,4.3,0,.1.1.2.2.2.9.8,1.2,1.9,1.7,2.8.3.5.6,1,1.1,1.2s.7.4.8,1c.1,1.1.9,1.8,1.9,2.1.3.1.7,0,.9.3,1.3,1.2,3.2,1.6,4.3,3.2.1.1.3.2.5.2,1,.1,1.9.6,2.9,1s2.1.8,3.2.9c1.8.3,3.5-.1,5.3-.2.3,0,.4-.2.5-.4h.5c.2-.4.5-.7.9-.9.9-.4,1.8-.6,2.6-1.3.1-.1.3-.3.5-.3.8,0,1.1-.5,1.5-1.1.3-.4,1.1-.5,1-1.2.4-.1.5-.5.7-.8.2-.4.4-.7.9-.7.1-.2.3-.3.4-.5,0-.3.2-.5.5-.5v-.5c.3-.1.6-.3.8-.6.7-1.5,1.6-3,1.3-4.8-.1-.8,0-1.5.4-2.3s.4-1.9,0-2.7c-.7-1.5-1.4-2.9-2-4.3ZM206.9,163.8h0v-.3.3ZM227.3,184.3v.2c0,.2,0,.3.1.5,0-.2-.1-.3-.1-.5v-.2h0ZM225.5,183.9c.1-.1.2-.1.3-.2-.1,0-.2.1-.3.2ZM228.1,176.7c-.4-.3-.9-.4-1.3-.1-.4.3-.5.8-.4,1.4.3,1,.3,2.1.1,3.1-.1.5-.2,1-.7,1.3-.1.2-.1.3-.2.5.1.2.2.4.1.6,0-.2,0-.3-.1-.6-.4.3-.6.7-.6,1.1-.3.3-.7.5-.7,1h0c-.5.2-.9.6-1.1,1.2-.1,0-.1.1-.2.1-.1.8-.8.9-1.4,1.1-.7.8-1.8.3-2.6.6-1.1.6-2.2.6-3.3.2-.5-.2-1-.3-1.5-.4-.5-.1-.8-.3-.8-.8l-.3-.3c-.5-.1-1.2.3-1.4-.6h0c-.8,0-1.6.1-2-.9-.1-.3-.5-.5-.9-.6-.5,0-.9-.4-1.2-.6-.5-.4-.9-.9-1.6-1.1-.3-.1-.6-.4-.7-.6-.7-1.6-2-2.9-2.8-4.4-.2-.4-.3-.9-.8-1-.4-.1-.3-.5-.4-.8,0-.4.1-.8-.2-1.1-.2-.3-.4-.6-.8-.5-.5,0-.4.4-.4.7s-.1.3-.1.4c-.5.1-.9-.1-1.3-.3-.2-.1-.4-.3-.4-.5.2-.8-.1-1.7.3-2.5.4-.1.4.1.5.3.2.5.6.4.7,0,.4-1.3,1.3-1.6,2.5-1.5.4,0,.6-.2.8-.6.8-1.6,1.9-3,3.2-4.3.7-.6.5-1.5.7-2.3.5.1.5.4.6.8,0,.4-.1.8.5.9.4.1.7,0,.9-.4.3-.6.6-.5.8.1.1.4.2.6.6.6s.5-.3.5-.7c.2-1.2.3-1.3,1.5-1.1.2,0,.4,0,.4-.2.1-.3.2-.6.5-.8.4-.2.8-.3.9.4v.3c0,.3.1.5.4.5s.4-.3.5-.6c0-.2,0-.4.1-.5.3.2.7.5,1,.5.8,0,1.4.2,1.6,1.1.1.2.7.2.4.7-.2.3-.5.6-.9.5-.2,0-.3-.2-.5-.2-.4-.1-.7,0-1.1.2-.2.1-.4.3-.3.6.1.3.3.4.5.3.7-.3.8-.1.7.6-.1.5,1.1,1.5,1.9,1.3,1.3-.2,1.7,1.2,2.8,1.2.6,1.8,2.7,2.4,3.4,4.2.4-.3.3-.7.4-.9.1-.3.3-.4.6-.5.4-.1.5.2.5.5.1.4.4.5.7.5,1.3.2,1.3.3,1,1.5-.1.3-.2.5,0,.8.4,0,.6-.3.7-.7.2-.6.5-.3.8-.2.4.1.3.4.2.7-.1.2-.2.4-.3.6,0,.6-.4.7-1,.2Z"/>
    <path class="cls-2" d="M216.9,52.6c.7.5.8.5,1.1-.2.2-.5.8-.5.9-1.1.9-.2,1.5-1.2,2.6-.7.2,0,.6-.3.7-.6,0-.5-.4-.9-.7-1.3-.2-.3-.6-.2-.9,0-.7.4-1.6.6-2,1.5-1,0-1.8.5-2.3,1.5-.3.7-.1,1,.6,1Z"/>
    <path class="cls-2" d="M177.2,93.5c-.1,1.2-.8,2-1.2,3.1-.2.5-.3,1,.4,1.3.2-1.7.8-3.2,1.8-4.6.2-.2,0-.4-.2-.5-.4,0-.8.4-.8.7Z"/>
    <path class="cls-2" d="M195.2,44.8c-.5,0-.6.3-.6.7s.2.9.7.9.7-.4.7-.9c0-.5-.3-.7-.8-.7Z"/>
    <path class="cls-2" d="M181.1,120.8c.6-1,.6-2.1.2-3.2,0,0-.2,0-.3-.2-.1,0-.3.2-.3.3.4.8.2,1.6.2,2.4s0,.5.2.7Z"/>
    <path class="cls-2" d="M9.8,151.5c0-.1.1-.2,0-.3-.3-.4-.8-.6-1.3-.7-.2.1-.3.3-.2.5.3.4.7.6,1.1.8.2-.1.3-.2.4-.3Z"/>
    <path class="cls-2" d="M61,163.4c-.3.4,0,.8,0,1.3.3-.4.5-.8.2-1.3,0,0-.2,0-.3,0Z"/>
    <path class="cls-2" d="M124.4,103.1c-.3,0-.5.3-.3.6,0,.2.2.3.3.5.3-.2.3-.4.3-.6,0-.2,0-.5-.3-.5Z"/>
    <path class="cls-2" d="M203.4,77.8c0,0,0,.2.1.2.4.2.6,0,.8-.4v-.2c-.4,0-.8,0-.9.4Z"/>
    <path class="cls-2" d="M.9,126.2c-.2,0-.4.1-.4.3s0,.3.2.3.4-.1.4-.3c.1-.2,0-.3-.2-.3Z"/>
    <path class="cls-2" d="M206,75c-.1,0-.1.3.1.3.3,0,.4,0,.5-.3,0-.2,0-.3-.2-.3s-.3.2-.4.3Z"/>
    <path class="cls-2" d="M10.3,95.5c.1,0,0-.3-.2-.3s-.1,0-.2,0c0,0,.1.2.1.2,0,.1.3,0,.3,0Z"/>
    <path class="cls-2" d="M221.4,58.4c0-.2.1-.4.1-.5.1-.3.1-.5-.2-.5s-.6,0-.6.2c0,.7-.6.8-.9,1.2-.2.2-.4.4-.6.6-.1.2-.1.4,0,.5s.2,0,.3,0c1.4,0,1.6-.3,1.9-1.6Z"/>
    <path class="cls-2" d="M221.8,54.1c.1-.2.1-.5.1-.7-.1-.3.1-.8-.5-.7-.4,0-.8.4-.8.8-.8,0-1.1.2-1.1.8,0,.9.4,1.5.9,1.5s.9-.5,1.1-1h.1c.1.3.1.6.4.6.3,0,.4-.4.3-.7,0-.3-.1-.5-.5-.6q0,0,0,0Z"/>
    <path class="cls-2" d="M220.8,61.5c0,.3.1.7.5.8.4,0,.8.2,1.1.5h-.1q.1,0,.2,0h.1c.1.2.4.3.5.2h0c.2,0,.4,0,.6,0,.4,0,.9,0,1.3,0,.5.5.9,1.1,1.8.8.2,0,.4.2.5.4.1.2.2.4.3.5-.2.2-.5.2-.9,0s-.4,0-.7-.2c-.7-.2-1,0-1.3.6-.1.3-.1.6,0,.9.7,1.8,2,3.3,2.8,5.1.4.9,1.2,1,2.1.4,1.1-.7,2.2-1.4,3.3-2.1.5-.3.6-.8.5-1.3-.1-.8-.5-1.5-.9-2.2-.7-1-1.6-1.9-2-3.1-.2-.5-.5-.9-.8-1.3-.2-.2-.2-.6-.6-.3-.3.2-.4.5-.2.8.3.4.5.9.4,1.3,0,.7.1,1.4-.9.7-.1,0-.1,0-.2,0-.1-.3-.1-.5-.1-.8s0-.2-.1-.3c-.6,0-.4-.6-.5-1-.2-.7-.7-.9-1.2-.4q-.1,0-.2.2c0-.3-.2-.7-.5-.8-.9-.5-.5-.9.1-1.3.2,0,.3-.4.3-.6s-.1,0-.1,0c-.4,0-.7,0-1.1.2-.6,0-1.2.2-1.1,1.1,0,.3-.2.5-.5.4-.8,0-1.2.6-2,.6-.1-.1-.4,0-.4.5Z"/>
    <path class="cls-2" d="M175.7,19.2c.2.3.5.6.7.9.1.2.1.4-.2.5-.8.2-1,.6-.5,1,.3.3.5.7.8,1.1.3.5,1,.5,1.1-.1.2-.6.4-1,1.1-1s.3-.2.3-.4c0-.3-.2-.3-.4-.3-.6,0-1.1,0-1.1-.8s-.9-.7-.6-1.4c.5-.1.8.4,1.3.5-.1-.8.2-1.6.6-2.4-1.6.2-1.8.2-2.6.8-.9.6-1,1-.5,1.6Z"/>
    <path class="cls-2" d="M121.7,166.4c.2-.3.5-.6.6-.9.2-.4.2-.8-.2-1.1-1.4-.8-2.3-.3-2.3,1.3v.3c.2.3-.3,1.1.2,1.3.7,0,1.3-.4,1.7-.9Z"/>
    <path class="cls-2" d="M120.9,170.1c0-.2-.3-.2-.5-.2-.4.1-.7.2-1.1.3s-.7.4-.5.7c.3.8,0,1.4-.4,2.1.5.2.7,0,.8-.2.5-.7.8-1.7,1.7-2.1,0,0,0-.4,0-.6Z"/>
    <path class="cls-2" d="M116.2,167.4c0,.6.5.3.8.3.5.2,1.1.2,1.1-.5s-.2-.9-.8-1c-.4,0-1.1.7-1.1,1.2Z"/>
    <path class="cls-2" d="M122.7,157.2c0-.3,0-.5-.4-.4-.7.1-1.3.7-1.9,1.1-.2.1,0,.3,0,.5s.3.3.6.2c.5-.3,1-.6,1.5-.9.1-.2.2-.4.2-.5Z"/>
    <path class="cls-2" d="M124.8,166.5c.5-.2.9-.4,1.3-.7,0-.1,0-.2,0-.4s-.2-.2-.3-.2c-.5.3-.9-.7-1.4,0,0,0,0-.4-.3-.3,0,.4,0,.8,0,1.2.1.3.3.5.6.4Z"/>
    <path class="cls-2" d="M121.3,161.5c0-.3,0-.6-.4-.8-.2,0-.3.1-.3.2,0,.3.2.5.4.7,0,.1.3,0,.3,0Z"/>
    <path class="cls-2" d="M120.4,172.7c0,0-.2.1-.2.3s.2.3.4.2c0,0,.2-.1.2-.3s-.2-.2-.4-.2Z"/>
    <path class="cls-2" d="M123.9,173.7c0-.1,0-.3-.2-.3s0,.1-.2.1c0,.1,0,.2,0,.2,0,.1.3,0,.3,0Z"/>
    <path class="cls-2" d="M125.5,175c0-.1,0-.1-.2-.1,0,.1,0,.2,0,.2,0,0,.2.1.2.1,0,0,0-.2,0-.2Z"/>
    <path class="cls-2" d="M189.6,117.3h.1c0-.1-.1,0-.1,0h0c-.4,0-.8,0-1,.3-.2.5.3.6.5.9.1.2.3.2.5.2,0-.4-.4-.9,0-1.4Z"/>
    <path class="cls-2" d="M183.1,131.7h-.1q0,.1.1,0c-.1.1-.1,0,0,0Z"/>
    <path class="cls-2" d="M182.9,131.8h0Z"/>
    <path class="cls-2" d="M98,64.6c0,0,.2,0,.2-.2s0,0-.2-.2c0,0-.2,0-.2,0,0,0,.2.3.2.3Z"/>
    <path class="cls-2" d="M93.9,61q0,0,0,0c0,0,0,0,0,0q-.1,0,0,0c0,0,0,0,0,0Z"/>
  </g>
  <path class="cls-1" d="M36.1,36.9c-1.6,0-2.8-1.3-2.8-2.8h2.8v-2.8,2.8h2.8-2.8v2.8Z"/>
</svg>