<?xml version="1.0" encoding="UTF-8"?><svg id="Layer_1" xmlns="http://www.w3.org/2000/svg" viewBox="0 0 300 300"><path d="M5.52,150.87c0-7.09.52-14.22,1.54-21.19l-3.3-.48c-1.05,7.13-1.58,14.42-1.58,21.68,0,4,.16,8.04.48,11.99l3.33-.27c-.31-3.87-.47-7.81-.47-11.73Z" fill="#fff" stroke-width="0"/><path d="M6.67,169.17l-3.31.42c7.23,57.24,47.54,105.31,102.69,122.46l.99-3.19c-53.9-16.76-93.3-63.75-100.36-119.69Z" fill="#fff" stroke-width="0"/><path d="M150,6.39c8.45,0,16.92.74,25.19,2.19l.58-3.29c-8.45-1.49-17.12-2.24-25.76-2.24-48.55,0-94.04,23.87-121.68,63.86l2.75,1.9C58.09,29.73,102.55,6.39,150,6.39Z" fill="#fff" stroke-width="0"/><path d="M214.21,17.7c-10.14-4.9-20.85-8.63-31.83-11.08l-.73,3.26c10.73,2.4,21.19,6.04,31.11,10.83l1.45-3.01Z" fill="#fff" stroke-width="0"/><path d="M172.29,293.65l.51,3.3c11.13-1.73,22.06-4.73,32.48-8.94l-1.25-3.1c-10.19,4.12-20.87,7.05-31.75,8.74Z" fill="#fff" stroke-width="0"/><path d="M266.36,59.7l-2.63,2.06c20.12,25.63,30.75,56.45,30.75,89.12,0,56.36-33.13,107.95-84.39,131.43l1.39,3.04c52.45-24.02,86.34-76.8,86.34-134.47,0-33.42-10.88-64.95-31.46-91.18Z" fill="#fff" stroke-width="0"/><path d="M79.6,150.87c0,38.82,31.58,70.4,70.4,70.4s70.4-31.58,70.4-70.4-31.58-70.4-70.4-70.4-70.4,31.58-70.4,70.4ZM217.06,150.87c0,36.97-30.08,67.06-67.06,67.06s-67.06-30.08-67.06-67.06,30.08-67.06,67.06-67.06,67.06,30.08,67.06,67.06Z" fill="#fff" stroke-width="0"/><path d="M178.79,266.74c1.98-.49,3.93-1.03,5.87-1.62l3.61,11.9c55.94-16.95,93.53-67.65,93.53-126.21v-.46h-12.41c-.09-21.15-5.72-41-15.49-58.21l10.85-6.15c-5.53-9.75-12.29-18.78-20.11-26.84l-8.96,8.69c-1.41-1.46-2.86-2.88-4.35-4.27l8.51-9.13c-24.47-22.8-56.37-35.36-89.83-35.36-23.29,0-46.19,6.16-66.22,17.82l6.28,10.78c-17.62,10.28-32.39,24.92-42.79,42.45l-10.73-6.36c-5.73,9.68-10.2,20.05-13.28,30.83l11.97,3.42c-.56,1.95-1.07,3.91-1.53,5.9l-12.13-2.8c-2.24,9.7-3.37,19.71-3.37,29.75,0,46.98,25.31,90.75,66.04,114.24l6.23-10.81c17.16,9.91,36.99,15.68,58.13,15.93l-.17,12.42h1.56c10.76,0,21.45-1.29,31.78-3.85l-2.99-12.07ZM150,34.81c63.99,0,116.06,52.07,116.06,116.06s-52.06,116.06-116.06,116.06-116.06-52.06-116.06-116.06,52.06-116.06,116.06-116.06Z" fill="#fff" stroke-width="0"/><path d="M150,250.19c52.71,0,96.26-41.22,99.16-93.85l-9.68-.53c.09-1.63.14-3.27.14-4.93,0-47.41-37.01-86.32-83.65-89.41l.65-9.68c-2.2-.15-4.41-.22-6.62-.22-54.76,0-99.31,44.55-99.31,99.31s44.55,99.31,99.31,99.31ZM236.29,150.87c0,47.58-38.71,86.29-86.29,86.29s-86.29-38.71-86.29-86.29,38.71-86.29,86.29-86.29,86.29,38.71,86.29,86.29Z" fill="#fff" stroke-width="0"/></svg>