<?xml version="1.0" encoding="UTF-8"?><svg id="Layer_1" xmlns="http://www.w3.org/2000/svg" viewBox="0 0 300 300"><path d="M150,12.79c20.41,0,40.05,4.37,58.37,12.98l1.06-2.27c-18.66-8.77-38.66-13.21-59.44-13.21-36.31,0-70.72,13.84-96.9,38.98l1.73,1.81c25.71-24.69,59.51-38.28,95.17-38.28Z" fill="#fff" stroke-width="0"/><path d="M19.71,106.39l-2.37-.8c-3.57,10.62-5.85,21.7-6.78,32.91l2.5.21c.91-11.02,3.15-21.89,6.66-32.32Z" fill="#fff" stroke-width="0"/><path d="M243.06,45.71c-8.39-7.48-17.67-13.94-27.59-19.19l-1.17,2.21c9.73,5.17,18.85,11.51,27.09,18.86l1.67-1.87Z" fill="#fff" stroke-width="0"/><path d="M280.91,100.67l-2.34.89c5.88,15.53,8.86,31.9,8.86,48.65,0,56.45-35.39,108.01-88.05,128.29l.9,2.33c53.63-20.65,89.66-73.14,89.66-130.62,0-17.06-3.04-33.73-9.02-49.54Z" fill="#fff" stroke-width="0"/><path d="M12.58,150.21c0-1.64.03-3.27.09-4.89l-2.5-.09c-.06,1.65-.09,3.31-.09,4.98,0,56.17,33.39,106.71,85.06,128.76l.98-2.3C45.36,255.02,12.58,205.38,12.58,150.21Z" fill="#fff" stroke-width="0"/><path d="M160.78,287.22l.2,2.5c11.23-.87,22.32-3.1,32.95-6.61l-.78-2.38c-10.45,3.45-21.33,5.64-32.36,6.49Z" fill="#fff" stroke-width="0"/><path d="M62.63,226.88l4.91-4.31c-17.57-20.01-27.25-45.7-27.25-72.36,0-28.11,10.62-54.84,29.9-75.27l-4.76-4.49c1.57-1.67,3.18-3.29,4.84-4.86l4.5,4.77c7.89-7.44,16.81-13.65,26.48-18.46l-2.9-5.85c7.43-3.69,15.23-6.61,23.23-8.63l.13-.03-1.6-6.48-.17.04c-17.7,4.44-34.46,12.99-48.55,24.71l-.1.1,4.14,5.01.11.04c-1.59,1.32-3.15,2.68-4.67,4.09l-4.49-4.83-.13.1c-13.39,12.49-24.01,28.05-30.69,44.98l-.07.17,6.08,2.4h.04c-.75,1.93-1.44,3.87-2.09,5.82l-6.27-2.08-.04.17c-4.11,12.42-6.18,25.38-6.18,38.57,0,5.24.33,10.48.97,15.59v.2l6.57-.83c.26,2.04.57,4.07.94,6.09l-6.48,1.18.04.17c3.3,17.93,10.75,35.23,21.54,50.02l.1.13,5.3-3.88c1.21,1.66,2.48,3.27,3.78,4.87l-5.11,4.16.13.13c11.59,14.16,26.41,25.75,42.91,33.49l.17.07,2.84-6.04-.17-.07c-14.38-6.74-27.39-16.63-37.95-28.6Z" fill="#fff" stroke-width="0"/><path d="M157.42,266.24c-1.09.07-2.21.07-3.32.1l-.22-6.49c-10.77.36-21.69-.83-32.08-3.59l-1.68,6.32c-4.59-1.22-9.12-2.69-13.56-4.48l-.17-.07-2.5,6.21.17.07c14.63,5.88,30.05,8.85,45.95,8.85,2.57,0,5.21-.07,7.81-.23h.17l-.4-6.68h-.17Z" fill="#fff" stroke-width="0"/><path d="M163.71,265.76l.79,6.55.17-.03c18.4-2.17,35.63-8.32,51.29-18.3l.13-.07-3.46-5.41c1.74-1.1,3.44-2.26,5.11-3.45l3.75,5.19.13-.1c14.86-10.65,27.35-24.74,36.13-40.71l.1-.17-4.28-2.34-1.39-.74c.99-1.81,1.92-3.65,2.81-5.52l5.82,2.78.07-.13c8.01-16.66,12.05-34.53,12.05-53.13,0-10.49-1.33-20.91-3.94-30.99l-.07-.17-6.28,1.63-.13.03c-.52-1.99-1.09-3.97-1.72-5.92l6.32-2.03-.07-.17c-5.54-17.33-15.16-33.53-27.72-46.85l-.13-.1-4.82,4.55c-1.41-1.49-2.86-2.95-4.35-4.37l4.56-4.82-.13-.1c-13.29-12.59-29.49-22.21-46.82-27.78l-.17-.03-2.01,6.27c-1.95-.62-3.92-1.19-5.92-1.71l1.65-6.4-.17-.04c-17.56-4.57-36.43-5.18-54.43-1.73l-.17.03,1.27,6.54.17-.03c12.17-2.33,24.84-2.66,37.19-1.06l-.84,6.46c54.42,7.06,95.45,53.83,95.45,108.79s-42.72,103.93-99.36,109.22l.62,6.65c.92-.09,1.83-.21,2.74-.32Z" fill="#fff" stroke-width="0"/><path d="M128.18,235.85l-1.64,6.47c7.63,1.94,15.52,2.92,23.46,2.92,52.4,0,95.03-42.63,95.03-95.03,0-9.99-1.54-19.83-4.59-29.24l-6.35,2.05c2.83,8.75,4.26,17.9,4.26,27.19,0,48.72-39.63,88.35-88.35,88.35-7.39,0-14.73-.91-21.82-2.71Z" fill="#fff" stroke-width="0"/><path d="M119.9,240.38l2.11-6.33c-10.22-3.41-19.63-8.62-28-15.48l-4.24,5.17c9,7.38,19.13,12.98,30.12,16.65Z" fill="#fff" stroke-width="0"/><path d="M165.68,56.47l-1.1,6.59c10.64,1.77,20.76,5.44,30.07,10.9l3.38-5.76c-10.02-5.88-20.9-9.83-32.36-11.73Z" fill="#fff" stroke-width="0"/><path d="M54.97,150.21c0,4.95.38,9.93,1.14,14.8l6.6-1.03c-.71-4.52-1.07-9.16-1.07-13.76,0-48.72,39.63-88.35,88.35-88.35,2.72,0,5.49.13,8.21.38l.61-6.65c-2.93-.27-5.9-.4-8.83-.4-52.4,0-95.03,42.63-95.03,95.03Z" fill="#fff" stroke-width="0"/></svg>