<?xml version="1.0" encoding="UTF-8"?><svg id="Layer_1" xmlns="http://www.w3.org/2000/svg" viewBox="0 0 300 300"><path d="M86.21,197.02l-5.37,3.97c6.95,9.4,15.57,17.17,25.62,23.09l3.39-5.75c-9.28-5.47-17.23-12.63-23.64-21.31Z" fill="#fff" stroke-width="0"/><path d="M150,70.76c16.74,0,32.73,5.15,46.26,14.9l3.91-5.42c-14.67-10.57-32.02-16.16-50.17-16.16h0c-41.88,0-77.48,29.91-84.64,71.12l6.58,1.14c6.6-38,39.43-65.58,78.06-65.58Z" fill="#fff" stroke-width="0"/><path d="M226.92,111.68c-5.21-10.44-12.37-19.57-21.28-27.15l-4.32,5.09c8.22,6.99,14.82,15.42,19.63,25.04l5.97-2.98Z" fill="#fff" stroke-width="0"/><path d="M235.92,150h-6.68c0,43.69-35.55,79.24-79.24,79.24-12.1,0-23.7-2.65-34.5-7.89l-2.92,6.01c11.71,5.67,24.3,8.55,37.41,8.55,47.38,0,85.92-38.54,85.92-85.92Z" fill="#fff" stroke-width="0"/><path d="M150,84.1c-36.34,0-65.9,29.56-65.9,65.9s29.56,65.9,65.9,65.9,65.9-29.56,65.9-65.9-29.56-65.9-65.9-65.9ZM150,212.56c-34.5,0-62.56-28.06-62.56-62.56s28.06-62.56,62.56-62.56,62.56,28.06,62.56,62.56-28.06,62.56-62.56,62.56Z" fill="#fff" stroke-width="0"/><path d="M150,9.03C72.27,9.03,9.03,72.27,9.03,150s63.24,140.97,140.97,140.97,140.97-63.24,140.97-140.97S227.73,9.03,150,9.03ZM150,287.63c-75.89,0-137.63-61.74-137.63-137.63S74.11,12.37,150,12.37s137.63,61.74,137.63,137.63-61.74,137.63-137.63,137.63Z" fill="#fff" stroke-width="0"/><path d="M110.14,259.04c11.27,4.12,23.09,6.45,35.15,6.93l.67-16.68c-10.32-.41-20.45-2.41-30.09-5.93l-5.73,15.69Z" fill="#fff" stroke-width="0"/><path d="M92.1,69.23l-9.74-13.56c-30.32,21.78-48.43,57.05-48.43,94.34,0,23.56,7.02,46.25,20.31,65.61l13.77-9.45c-11.37-16.56-17.38-35.98-17.38-56.15,0-31.93,15.5-62.12,41.47-80.78Z" fill="#fff" stroke-width="0"/><path d="M125.38,53.7l-4.12-16.18c-11.65,2.97-22.74,7.73-32.94,14.14l8.88,14.14c8.73-5.49,18.21-9.55,28.18-12.1Z" fill="#fff" stroke-width="0"/><path d="M191.94,41.74l-6.03,15.57c37.96,14.71,63.47,51.96,63.47,92.69,0,53.65-43.62,98.22-97.24,99.35l.35,16.69c62.63-1.32,113.58-53.37,113.58-116.04,0-47.57-29.79-91.07-74.13-108.26Z" fill="#fff" stroke-width="0"/></svg>