<?xml version="1.0" encoding="UTF-8"?>
<svg id="Layer_1" data-name="Layer 1" xmlns="http://www.w3.org/2000/svg" version="1.1" viewBox="0 0 259.4 424.1">
  <defs>
    <style>
      .cls-1 {
        fill: #1d1d1d;
        stroke-width: 0px;
      }
    </style>
  </defs>
  <path class="cls-1" d="M190.5,65c.3.3.3.6.2,1-.5,2-1,4.1-1.5,6.1-.1.5-.4,1-.5,1.6-.2.9-.2,1.8-.4,2.6-.3,1.4-.3,2.8-.5,4.1-.2,1.4-.3,2.7-.5,4.1-.4,3.2-.9,6.3-1.8,9.3-.4,1.4-1.2,2.7-2.1,4-.6.8-1.2,1.6-1.9,2.3-1.5,1.5-2.9,3.1-4.5,4.4-3,2.3-6.2,4-9.7,5.3-2.1.7-4.1,1.3-6.3,1.7-1.8.4-3.6.7-5.4,1.1-.6.1-1.1.3-1.7.5-.2,0-.4.4-.6.6-1.6,2-2.9,4.1-3.9,6.4-1.6,3.8-3.1,7.6-4.6,11.3-1.2,3.1-2.2,6.2-3.1,9.3-.7,2.2-1.4,4.5-2,6.8-.3,1-.6,2-.8,3.1-.2.9-.5,1.7-.7,2.6-.2.8-.4,1.6-.5,2.4-.3,1.3-.6,2.6-.8,3.9-.4,1.8-.8,3.6-1.2,5.4-.3,1.6-.6,3.1-.9,4.7-.2,1.3-.4,2.6-.7,4-.3,1.6-.5,3.2-.8,4.8-.3,1.6-.7,3.2-.9,4.8s-.5,3.3-.8,4.9c-.1.9-.3,1.7-.5,2.6-.2.8-.5,1.6-.9,2.4-.5.7-1.1,1.1-1.9,1.1-2.4,0-4.8,0-7.3,0-.9,0-1.8-.4-2.1-1.4-.2-.5-.3-1-.4-1.5-.2-1.1-.4-2.2-.7-3.3-.2-1.1-.5-2.2-.7-3.3-.1-.6-.2-1.2-.3-1.8-.2-1.1-.5-2.3-.7-3.4-.2-.8-.4-1.5-.5-2.3-.2-.7-.3-1.5-.4-2.2-.1-.6-.4-1.2-.5-1.8-.2-.7-.2-1.4-.4-2.1-.2-.7-.3-1.4-.5-2-.5-2.1-1-4.2-1.5-6.2-.3-1.4-.7-2.9-1.1-4.3,0-.4-.1-.9-.2-1.3-.3-1-.7-2.1-.9-3.1-.3-1-.4-2-.7-3-.2-.8-.5-1.5-.7-2.2-.3-.9-.5-1.8-.7-2.8-.2-.8-.5-1.6-.7-2.5,0-.3,0-.7-.2-1-.1-.5-.3-.9-.5-1.4-.3-1.3-.7-2.6-1-3.9-.4-1.3-.8-2.5-1.2-3.8-.4-1.1-.7-2.3-1.1-3.4-.4-1.3-.8-2.7-1.3-4-.4-1.1-.8-2.1-1.2-3.1-.3-.8-.4-1.6-.7-2.4-.3-.8-.6-1.6-.9-2.4-.2-.4-.2-.8-.4-1.2-.2-.6-.5-1.3-.8-1.9-.7-1.7-1.3-3.4-2-5.1-.3-.8-.7-1.5-1.1-2.3-.2-.5-.4-1.1-.6-1.6-.6-1.1-1.2-2.2-1.7-3.3-.3-.6-.6-1.3-.9-1.9-.4-.8-.9-1.5-1.3-2.2-.9-1.6-1.8-3.2-2.7-4.8-.5-.9-1.1-1.7-1.7-2.6-1.2-1.8-2.2-3.6-3.5-5.3-2.5-3.5-5.1-6.9-7.8-10.3-.8-1-1.7-1.9-2.5-2.8-.5-.6-.9-1.2-1.4-1.7-.6-.7-1.2-1.3-1.7-2-.4-.5-.9-1-.7-1.7.6-.3,1.1,0,1.7.1,1.8.5,3.4,1.2,4.9,2.2,1.6,1.1,3.3,2.1,4.8,3.2.9.6,1.7,1.4,2.6,2.1,1.5,1.4,3,2.7,4.4,4.2,1,1,1.8,2,2.8,3,2.1,2.2,4,4.6,5.9,7,2.8,3.6,5.6,7.2,7.7,11.3,1.8,3.3,3.4,6.8,4.7,10.3.6,1.5,1.2,3,1.8,4.5,1.4,3.7,2.7,7.5,3.7,11.3.7,2.7,1.5,5.3,2.2,8,2.5,9.3,5,18.6,7.5,27.9.2.9.6,1.7,1,2.6,0,0,.1.1.2.3.1-.2.2-.3.3-.4,1-2.7,1.9-5.3,2.9-8,.4-1.2.8-2.5,1.2-3.8.6-1.8,1.2-3.7,1.8-5.5.8-2.5,1.7-5,2.5-7.4.4-1.1.7-2.2,1.1-3.2,2.7-7.3,5.4-14.7,8.6-21.8,1-2.2,1.9-4.3,3.1-6.4,1.3-2.3,2.6-4.6,4-6.8.8-1.3,1.7-2.6,2.6-3.9,1.7-2.4,3.4-4.9,5.1-7.2.7-.9,1.5-1.8,2.3-2.7,1.2-1.4,2.4-2.7,3.6-4.1,0-.1.1-.3.2-.5-.8-.2-1.6,0-2.3.2-1.4.5-2.7,1.1-4,1.8-2,1.1-3.6,2.4-5.2,3.9-1.9,1.9-3.8,3.8-5.4,5.9-1.3,1.7-2.6,3.5-3.7,5.2-.8,1.2-1.4,2.4-2.1,3.7-.3.6-.5,1.2-.8,1.8-.2.4-.5.7-.7,1-.5,0-.8-.4-.8-.8-.1-1.2-.3-2.4-.3-3.6-.2-4.8.8-9.5,2.7-13.9,1.4-3.1,3.1-6,5.3-8.7.7-.9,1.4-1.8,2.2-2.5,1.7-1.5,3.5-3,5.4-4.1,2.4-1.4,4.9-2.2,7.5-2.8,4.2-1,8.4-1.8,12.6-2.8,2.7-.6,5.3-1.2,8-1.7,1.1-.2,2.1-.5,3.2-.8,1.1-.2,2.1-.5,3.2-.7.5,0,1.1,0,1.6,0h.1Z"/>
  <path class="cls-1" d="M129.7,258.9C58.4,258.9.5,200.9.5,129.7S58.4.4,129.7.4s129.2,58,129.2,129.2-58,129.2-129.2,129.2ZM129.7,6.1C61.6,6.1,6.1,61.5,6.1,129.7s55.4,123.6,123.6,123.6,123.6-55.4,123.6-123.6S197.8,6.1,129.7,6.1Z"/>
  <path class="cls-1" d="M40.3,43.1c-1.6,0-2.8-1.3-2.8-2.8h2.8v-2.8,2.8h2.8-2.8s0,2.8,0,2.8Z"/>
  <path class="cls-1" d="M10.7,282.8l7.5,21.3,7.6-21.3h3.7l-9.7,26.7h-3.1l-9.7-26.7h3.7Z"/>
  <path class="cls-1" d="M53.2,282.8v3h-12.8v8.4h11.6v3h-11.6v9.3h12.8v3h-16.1v-26.7h16.1,0Z"/>
  <path class="cls-1" d="M80.1,296.1v1.5c0,8.6-3.9,12.2-9.8,12.2s-9.7-3.6-9.7-12.2v-2.9c0-8.6,3.8-12.2,9.7-12.2s8.8,2.8,9.6,8.6h-3.2c-.8-4-2.9-5.6-6.3-5.6s-6.3,2.6-6.3,9.2v2.9c0,6.6,2.2,9.2,6.3,9.2s6.1-2.2,6.5-7.7h-6.3v-3h9.7,0Z"/>
  <path class="cls-1" d="M105.3,282.8v3h-12.8v8.4h11.6v3h-11.6v9.3h12.8v3h-16.1v-26.7h16.1Z"/>
  <path class="cls-1" d="M130.6,282.8v3h-8.1v23.7h-3.3v-23.7h-8.1v-3h19.6Z"/>
  <path class="cls-1" d="M133.9,309.6l9.3-26.7h3.1l9.3,26.7h-3.5l-2.1-6.1h-10.5l-2.1,6.1h-3.5ZM140.5,300.4h8.4l-4.2-12.5-4.2,12.5h0Z"/>
  <path class="cls-1" d="M178.3,309.6l-5.6-11.3h-6.3v11.3h-3.3v-26.7h8.5c6.2,0,9.7,2.6,9.7,7.8s-1.9,6.1-5.3,7.1l6,11.9h-3.7ZM171.6,295.3c4.5,0,6.4-1.4,6.4-4.7s-1.9-4.7-6.4-4.7h-5.2v9.4h5.2Z"/>
  <path class="cls-1" d="M194.1,309.6h-3.3v-26.7h3.3v26.7Z"/>
  <path class="cls-1" d="M202.1,309.6l9.3-26.7h3.1l9.3,26.7h-3.5l-2.1-6.1h-10.5l-2.1,6.1h-3.5ZM208.7,300.4h8.4l-4.2-12.5-4.2,12.5h0Z"/>
  <path class="cls-1" d="M249.4,282.8v26.7h-3.2l-11.5-20.2v20.2h-3.3v-26.7h3.2l11.6,20.4v-20.4h3.3,0Z"/>
</svg>