<?xml version="1.0" encoding="UTF-8"?><svg id="Layer_1" xmlns="http://www.w3.org/2000/svg" viewBox="0 0 180 100"><path d="M89.6,14.22c3.05-3.49,7.85-6.11,13.09-6.11,8.73,0,17.02,7.42,17.02,16.58,0,3.93-1.31,7.42-3.93,10.47l-41.45,50.18c-3.93,4.36-8.73,6.55-13.53,6.55-9.16,0-17.02-7.85-17.02-17.02,0-3.93,1.75-7.85,4.36-10.47L89.6,14.22Z" fill="#e57403" stroke-width="0"/><path d="M145.48,14.22c3.05-3.49,7.85-6.11,13.09-6.11,8.73,0,17.02,7.42,17.02,16.58,0,3.93-1.31,7.42-3.93,10.47l-41.45,50.18c-3.93,4.36-8.73,6.55-13.53,6.55-9.16,0-17.02-7.85-17.02-17.02,0-3.93,1.75-7.85,4.36-10.47l41.45-50.18Z" fill="#e57403" stroke-width="0"/><circle cx="20.61" cy="75.35" r="16.2" fill="#e57403" stroke-width="0"/><circle cx="20.61" cy="37.21" r="16.2" fill="#e57403" stroke-width="0"/></svg>