<?xml version="1.0" encoding="UTF-8"?><svg id="Layer_1" xmlns="http://www.w3.org/2000/svg" viewBox="0 0 304.27 141.56"><path d="M120.6,24.14c3.8-4.34,9.78-7.6,16.29-7.6,10.86,0,21.18,9.23,21.18,20.64,0,4.89-1.63,9.23-4.89,13.03l-51.59,62.45c-4.89,5.43-10.86,8.15-16.84,8.15-11.4,0-21.18-9.78-21.18-21.18,0-4.89,2.17-9.78,5.43-13.03l51.59-62.45Z" fill="#e57403" stroke-width="0"/><path d="M190.15,24.14c3.8-4.34,9.78-7.6,16.29-7.6,10.86,0,21.18,9.23,21.18,20.64,0,4.89-1.63,9.23-4.89,13.03l-51.59,62.45c-4.89,5.43-10.86,8.15-16.84,8.15-11.4,0-21.18-9.78-21.18-21.18,0-4.89,2.17-9.78,5.43-13.03l51.59-62.45Z" fill="#e57403" stroke-width="0"/><circle cx="34.74" cy="100.23" r="20.16" fill="#e57403" stroke-width="0"/><circle cx="34.74" cy="52.76" r="20.16" fill="#e57403" stroke-width="0"/></svg>