<?xml version="1.0" encoding="UTF-8"?><svg id="Layer_1" xmlns="http://www.w3.org/2000/svg" viewBox="0 0 304.27 141.56"><path d="M27.17,43.62c.91-13.84,10.66-22.46,23.94-22.46,2.38,0,4.2,1.93,4.2,4.2,0,2.38-1.93,4.2-4.2,4.2-8.4,0-13.95,4.99-14.75,14.07h14.75c2.38,0,4.2,1.81,4.2,4.2s-1.82,4.2-4.2,4.2h-14.86v45.72c0,2.61-2.04,4.65-4.54,4.65s-4.54-2.04-4.54-4.65v-45.72h-6.01c-2.38,0-4.2-1.93-4.2-4.2,0-2.38,1.81-4.2,4.2-4.2h6.01Z" fill="#e57403" stroke-width="0"/><path d="M57.8,97.28v-50.03c0-2.5,1.93-4.54,4.54-4.54s4.54,2.04,4.54,4.54v39.14l35.28-42.09c.91-1.02,1.82-1.59,3.18-1.59,2.38,0,4.31,1.81,4.31,4.2,0,.91-.34,1.93-1.02,2.72l-61.04,72.72c-.91,1.02-1.82,1.59-3.18,1.59-2.38,0-4.31-1.81-4.31-4.2,0-.91.34-1.93,1.02-2.72l16.68-19.74Z" fill="#e57403" stroke-width="0"/><path d="M105.68,66.99c0-14.64,9.3-24.51,23.37-24.51,2.27,0,4.2,1.82,4.2,4.2s-1.93,4.2-4.2,4.2c-8.4,0-14.29,5.56-14.29,16.11v30.74c0,2.61-2.04,4.65-4.54,4.65s-4.54-2.04-4.54-4.65v-30.74Z" fill="#e57403" stroke-width="0"/><path d="M180.21,93.54c-5.33,5.67-12.71,9.08-21.22,9.08-16.68,0-29.38-13.27-29.38-30.06s12.71-30.06,29.38-30.06c8.51,0,15.88,3.52,21.22,9.08v-4.31c0-2.5,2.04-4.54,4.54-4.54s4.54,2.04,4.54,4.54v50.48c0,2.61-1.93,4.65-4.54,4.65s-4.54-2.04-4.54-4.65v-4.2ZM180.21,73.46v-1.81c-.45-11.8-9.42-20.76-20.65-20.76s-20.76,9.42-20.76,21.67,9.19,21.67,20.76,21.67,20.19-8.96,20.65-20.76Z" fill="#e57403" stroke-width="0"/></svg>