<?xml version="1.0" encoding="UTF-8"?>
<svg xmlns="http://www.w3.org/2000/svg" version="1.1" viewBox="0 0 1366 768">
  <!-- Generator: Adobe Illustrator 28.7.1, SVG Export Plug-In . SVG Version: 1.2.0 Build 142)  -->
  <g>
    <g id="Layer_1">
      <path d="M844.1,627.2c-10.5,0-18.9,8.4-18.9,18.9s8.4,18.9,18.9,18.9,18.9-8.4,18.9-18.9-8.4-18.9-18.9-18.9ZM841.2,641.6h-3.7v10.5h-2.1v-10.5h-3.7v-2h9.5v2ZM853.7,652l-.5-7.6h-.2l-3.8,7.7h-.7l-3.7-7.5h-.2l-.5,7.5h-2.1l1-12.4h1.5l4.4,8.9h.2l4.3-8.9h1.5l1,12.4h-2.3Z"/>
      <path d="M807.2,384c35.5-33.9,55.9-81.2,55.9-130.3,0-99.3-80.8-180-180-180s-180,80.8-180,180v260.5c0,99.3,80.8,180,180,180s180-80.8,180-180-20.3-96.3-55.9-130.3h0ZM531,417.9v-67.7c7.9,12.4,17.2,23.7,27.8,33.8-10.7,10.1-20,21.5-27.8,33.8h0ZM761.3,384c-23.6,14.3-50.6,21.8-78.3,21.8s-54.7-7.5-78.3-21.8c23.6-14.3,50.6-21.8,78.3-21.8s54.7,7.5,78.3,21.8ZM785.2,366.1c-30.2-20.9-65.5-31.9-102.2-31.9s-72.1,11-102.2,31.9c-31.7-28.8-49.7-69.7-49.7-112.4,0-83.8,68.2-152,152-152s152,68.2,152,152-18.1,83.6-49.7,112.4h-.1ZM580.7,401.9c30.2,20.9,65.5,31.9,102.2,31.9s72.1-11,102.2-31.9c31.7,28.8,49.7,69.7,49.7,112.3,0,83.8-68.2,152-152,152s-152-68.2-152-152,18.1-83.6,49.7-112.3h.1Z"/>
    </g>
  </g>
</svg>