<?xml version="1.0" encoding="UTF-8"?>
<svg id="Layer_1" data-name="Layer 1" xmlns="http://www.w3.org/2000/svg" version="1.1" viewBox="0 0 432.4 60">
  <defs>
    <style>
      .cls-1 {
        fill: none;
        stroke: #1d1d1d;
        stroke-miterlimit: 10;
        stroke-width: 4px;
      }

      .cls-2 {
        fill: #1d1d1d;
        stroke-width: 0px;
      }
    </style>
  </defs>
  <path class="cls-2" d="M114.1,58.2c-3.8,0-7.5,0-11.3,0-2.3,0-4-1.8-3.9-4,0-.6.2-1.2.6-1.8,3.7-6.5,7.5-13.1,11.3-19.6,1.6-2.7,5.2-2.7,6.8,0,3.8,6.5,7.5,13,11.3,19.5,1.6,2.8-.2,5.8-3.4,5.9-3.8,0-7.5,0-11.3,0h0ZM112.9,43.7v6.1c0,.9.5,1.4,1.2,1.5.8,0,1.3-.5,1.3-1.4v-12.1c0-.2,0-.5-.1-.7-.2-.5-.8-.8-1.4-.7-.6.1-1,.7-1,1.3v6.1h0ZM114.1,55.1c.7,0,1.3-.6,1.3-1.3s-.6-1.2-1.2-1.2c-.7,0-1.3.6-1.3,1.3,0,.7.6,1.3,1.2,1.3h0Z"/>
  <path class="cls-2" d="M101.8,25.9v-2.9h24.7v2.9h-24.7Z"/>
  <path class="cls-2" d="M120.8,11.2l-5.1-5.1h0l-4.9-4.9c-1.6-1.6-4.2-1.6-5.8,0h0c-1.6,1.6-1.6,4.2,0,5.8l4.9,4.9.2.2,4.9,4.9c1.6,1.6,4.2,1.6,5.8,0h0c1.6-1.6,1.6-4.2,0-5.8h0ZM110.2,10.5l-4.3-4.3c-1.2-1.2-1.2-3,0-4.2s3-1.2,4.2,0l4.3,4.3-4.2,4.2Z"/>
  <path class="cls-2" d="M402.2,46.1l-9.8-9.8h0l-9.4-9.4c-3.1-3.1-8-3.1-11.1,0h0c-3.1,3.1-3.1,8,0,11.1l9.4,9.4.5.5,9.4,9.4c3.1,3.1,8,3.1,11.1,0h0c3.1-3.1,3.1-8,0-11.1h0ZM381.8,44.8l-8.3-8.3c-2.2-2.2-2.2-5.9,0-8.1s5.9-2.2,8.1,0l8.3,8.3-8.1,8.1Z"/>
  <path class="cls-2" d="M80.2,26.5c0-2.8,2.3-5.1,5.1-5.1s5.1,2.3,5.1,5.1-2.3,5.1-5.1,5.1-5.1-2.3-5.1-5.1ZM98.3,26.6c-.9-.9-2.3-.9-3.2,0l-6.2,6.2h-8.6l-8.1,6.4c-.9.9-.9,2.3,0,3.2.9.9,2.3.9,3.2,0l3.5-2.5v15.7c0,1.3,1,2.3,2.3,2.3h1.1c1.3,0,2.3-1,2.3-2.3v-8h1.1v8c0,1.3,1,2.3,2.3,2.3h1.1c1.3,0,2.3-1,2.3-2.3v-19l6.7-6.7c.9-.9.9-2.3,0-3.2h0Z"/>
  <path class="cls-2" d="M29.9,60C13.4,60,0,46.6,0,30.1S13.4.2,29.9.2s29.9,13.4,29.9,29.9-13.4,29.9-29.9,29.9ZM29.9,4.6c-14.1,0-25.5,11.4-25.5,25.5s11.4,25.5,25.5,25.5,25.5-11.4,25.5-25.5S44,4.6,29.9,4.6Z"/>
  <path class="cls-2" d="M173.9,60c-16.5,0-29.9-13.4-29.9-29.9S157.5.2,173.9.2s29.9,13.4,29.9,29.9-13.4,29.9-29.9,29.9h0ZM173.9,4.6c-14.1,0-25.5,11.4-25.5,25.5s11.4,25.5,25.5,25.5,25.5-11.4,25.5-25.5-11.4-25.5-25.5-25.5h0Z"/>
  <path class="cls-2" d="M17.8,42.3h-3.1v-21.1l-3.5,2.5v-3.4l3.5-2.7h3.1v24.7Z"/>
  <path class="cls-2" d="M26.5,29.5c-2-1-3.4-3-3.4-5.4,0-4.1,3.4-6.8,7.1-6.8s7.1,2.7,7.1,6.8-1.5,4.4-3.4,5.4c2,.8,3.8,3.1,3.8,5.9,0,4.4-3.6,7.2-7.4,7.2s-7.4-2.9-7.4-7.2,1.8-5,3.8-5.9ZM30.2,39.8c2.4,0,4.4-2,4.4-4.4s-2.3-4.4-4.4-4.4-4.4,1.7-4.4,4.4,1.9,4.4,4.4,4.4ZM30.2,28.2c2.2,0,4-1.8,4-4.1s-1.8-4-4-4-4,1.8-4,4,1.8,4.1,4,4.1Z"/>
  <path class="cls-2" d="M37.6,28.3h5.7v-5.7h2.6v5.7h5.7v2.6h-5.7v5.6h-2.6v-5.6h-5.7v-2.6Z"/>
  <path class="cls-2" d="M195.1,32.7c-.6,1.1-1.8,1.7-3.4,1.7-2.7,0-4.3-1.7-4.3-4.5v-1.3c0-2.8,1.6-4.4,4.3-4.4s2.7.5,3.4,1.5l-1.2.9c-.4-.6-1.3-1-2.2-1-1.7,0-2.7,1.1-2.7,3v1.3c0,1.7.8,3,2.7,3s1.8-.3,2.2-1.1l1.2.9h0Z"/>
  <path class="cls-2" d="M188.1,24c-1.3,0-2.4-1.1-2.4-2.4s1.1-2.4,2.4-2.4,2.4,1.1,2.4,2.4-1.1,2.4-2.4,2.4ZM188.1,19.9c-1,0-1.7.8-1.7,1.7s.8,1.7,1.7,1.7,1.7-.8,1.7-1.7-.8-1.7-1.7-1.7h0Z"/>
  <path class="cls-2" d="M298.7.2c-4.4,0-8,3.6-8,8s.2,1.9.5,2.7c-.2,0-.3,0-.5,0-2,0-4,2-4,4s-.3,6.2-3.1,6.2-.9.4-.9.9.4.9.9.9c6.5,0,9.6-4,10.6-6.6.2-.4.3-.8.4-1.2,1.2.7,2.6,1.1,4.1,1.1,4.4,0,8-3.6,8-8s-3.6-8-8-8h0Z"/>
  <path class="cls-2" d="M310.2,33.3c1.3-.7,2.1-2,2.1-3.5h0c0-2.7-1.4-4.1-8.1-9.5-1.4-.9-3-1.4-4.7-1.4-3.8,0-7.1,2.5-8.2,6l-3.2,10.5c-.4,1.4,0,2.8.9,3.9l9.5,10.1c.8.9,1.9,1.3,3,1.3s2-.4,2.8-1.1c1.6-1.5,1.7-4.1.2-5.7l-7.9-8.5,2.1-7.3,2.6.7-1.7,5.8,6.9,7.3c1.2,1.3,1.9,3,1.8,4.8s-.8,3.5-2.1,4.7c-1.3,1.2-2.9,1.8-4.6,1.8s-3.7-.8-5-2.1l-5.9-6.3v11.2c0,1.9,1.5,3.4,3.4,3.4h11.5c7.5,0,13.5-6.1,13.5-13.5s-3.7-10.8-8.9-12.7h0Z"/>
  <path class="cls-2" d="M315.8,17.2v-2.3c0-1.4.2-2.2,1.3-3.2l1.5-1.4c1.3-1.2,2.1-2.1,2.1-3.6s-1.1-2.4-2.5-2.4-2.5.8-2.6,2.2h-4.4c0-4.1,3.2-6.1,6.9-6.1s7.1,2,7.1,6.3-1.5,4.5-3.3,6.3l-1.1,1.1c-.7.7-1.1,1.1-1.1,2.2v1h-4ZM320,19h-4.5v4.5h4.5v-4.5Z"/>
  <path class="cls-2" d="M340.1,19.8c5.5,0,9.9-4.4,9.9-9.9s-4.4-9.9-9.9-9.9-9.9,4.4-9.9,9.9,4.4,9.9,9.9,9.9ZM330.9,32.7c0,1,.8,1.8,1.9,1.8s1.9-.8,1.9-1.8-.8-1.9-1.9-1.9-1.9.8-1.9,1.9ZM347.5,22.3v3.8c2.8.6,4.9,3.1,4.9,6.1v3.2c0,.6-.4,1.1-1,1.2l-2.5.5c-.3,0-.7-.2-.7-.5l-.2-1.2c0-.3.1-.7.5-.7l1.5-.3v-2.2c0-4.9-7.4-5-7.4.2v2.1l1.5.3c.3,0,.5.4.5.7l-.2,1.2c0,.3-.4.5-.7.5l-2.4-.3c-.6,0-1.1-.6-1.1-1.2v-3.4c0-3,2.1-5.5,4.9-6v-3.5c-.2,0-.3,0-.5.1-1.4.5-2.9.8-4.4.8s-3-.3-4.4-.8c-.6-.2-1.1-.3-1.7-.4v6.3c1.8.5,3.1,2.2,3.1,4.1s-1.9,4.3-4.3,4.3-4.3-1.9-4.3-4.3,1.3-3.6,3.1-4.1v-6.2c-4.9.8-8.6,5.1-8.6,10.2v3.5c0,1.9,1.5,3.5,3.5,3.5h27.7c1.9,0,3.5-1.5,3.5-3.5v-3.5c0-5.6-4.4-10.1-9.9-10.3h0Z"/>
  <path class="cls-2" d="M387.7,17.2v-2.3c0-1.4.2-2.2,1.3-3.2l1.5-1.4c1.3-1.2,2.1-2.1,2.1-3.6s-1.1-2.4-2.5-2.4-2.5.8-2.6,2.2h-4.4c0-4.1,3.2-6.1,6.9-6.1s7.1,2,7.1,6.3-1.5,4.5-3.3,6.3l-1.1,1.1c-.7.7-1.1,1.1-1.1,2.2v1h-4ZM391.9,19h-4.5v4.5h4.5v-4.5Z"/>
  <path class="cls-2" d="M415.1,19.8c5.5,0,9.9-4.4,9.9-9.9s-4.4-9.9-9.9-9.9-9.9,4.4-9.9,9.9,4.4,9.9,9.9,9.9ZM405.8,32.7c0,1,.8,1.8,1.9,1.8s1.9-.8,1.9-1.8-.8-1.9-1.9-1.9-1.9.8-1.9,1.9ZM422.5,22.3v3.8c2.8.6,4.9,3.1,4.9,6.1v3.2c0,.6-.4,1.1-1,1.2l-2.5.5c-.3,0-.7-.2-.7-.5l-.2-1.2c0-.3.1-.7.5-.7l1.5-.3v-2.2c0-4.9-7.4-5-7.4.2v2.1l1.5.3c.3,0,.5.4.5.7l-.2,1.2c0,.3-.4.5-.7.5l-2.4-.3c-.6,0-1.1-.6-1.1-1.2v-3.4c0-3,2.1-5.5,4.9-6v-3.5c-.2,0-.3,0-.5.1-1.4.5-2.9.8-4.4.8s-3-.3-4.4-.8c-.6-.2-1.1-.3-1.7-.4v6.3c1.8.5,3.1,2.2,3.1,4.1s-1.9,4.3-4.3,4.3-4.3-1.9-4.3-4.3,1.3-3.6,3.1-4.1v-6.2c-4.9.8-8.6,5.1-8.6,10.2v3.5c0,1.9,1.5,3.5,3.5,3.5h27.7c1.9,0,3.5-1.5,3.5-3.5v-3.5c0-5.6-4.4-10.1-9.9-10.3h0Z"/>
  <rect class="cls-2" x="65.4" y=".2" width="1" height="59.2"/>
  <rect class="cls-2" x="135.2" y=".2" width="1" height="59.2"/>
  <rect class="cls-2" x="276.3" y=".2" width="1" height="59.2"/>
  <rect class="cls-2" x="362.4" y=".2" width="1" height="59.2"/>
  <g>
    <path class="cls-2" d="M241.8,60c-16.5,0-29.9-13.4-29.9-29.9S225.3.2,241.8.2s29.9,13.4,29.9,29.9-13.4,29.9-29.9,29.9ZM241.8,4.6c-14.1,0-25.5,11.4-25.5,25.5s11.4,25.5,25.5,25.5,25.5-11.4,25.5-25.5-11.4-25.5-25.5-25.5Z"/>
    <path class="cls-2" d="M238.6,52.5c-.7-.3-1.4-.5-2-.9-1.1-.7-1.6-1.8-1.6-3.1,0-.8.5-1.4,1.3-1.4.8,0,1.4.5,1.4,1.4,0,.8.7,1.4,1.4,1.3.7,0,1.3-.6,1.3-1.4v-14.8c0,0,0-.1,0-.2-1.2.3-2.2.9-2.9,1.9-.5.7-1.2.8-1.8.5-.2-.1-.4-.3-.5-.5-2-2.8-6.5-2.8-8.6,0-.5.6-1,.8-1.6.6-.6-.2-.9-.7-.9-1.5.1-4.2,1.9-7.5,5-10.2,3.1-2.7,6.9-4.1,11-4.5.1,0,.3,0,.4,0v-1.3c0-.8.6-1.4,1.4-1.4.8,0,1.4.6,1.4,1.4v1.4c.7,0,1.3.1,2,.3,4.8.9,8.9,3,11.8,6.9,1.7,2.3,2.5,4.8,2.6,7.6,0,.8-.3,1.3-.9,1.5-.6.2-1.1,0-1.6-.6-2.1-2.8-6.5-2.7-8.6,0-.7.9-1.7.9-2.3,0-.7-1-1.7-1.6-2.9-1.9v14.6c0,2.5-1.1,3.9-3.5,4.5,0,0,0,0,0,0h-1.1,0ZM227.4,31.1c3.3-1.2,6.3-.9,8.9,1.3,3.7-2.7,7.4-2.7,11,0,2.7-2.2,5.7-2.5,8.9-1.3,0,0,0,0,0-.1,0-.1,0-.3-.1-.4-1.1-2.7-3.1-4.8-5.7-6.2-3.9-2.2-8.1-2.7-12.4-1.8-3.5.8-6.6,2.4-8.8,5.3-.8.9-1.3,2-1.8,3.2h0Z"/>
    <path class="cls-2" d="M265.2,15.7c-.5.6-1,1.2-1.5,1.7-.5.6-1.1,1.1-1.6,1.6-.6.6-1.4.6-2,0-.6-.5-.5-1.4,0-2,.9-.9,1.8-1.8,2.7-2.7.8-.8,1.8-.6,2.3.4,0,0,0,0,0,.1v.7h0Z"/>
    <path class="cls-2" d="M220,19.6c-.7,0-1.1-.3-1.4-.8-.3-.5-.2-1.1.2-1.5,1-1,1.9-2,3-3,.5-.5,1.3-.5,1.9,0,.5.5.6,1.3,0,1.9-1,1-2,2-3,3-.2.2-.6.3-.7.3h0Z"/>
    <path class="cls-2" d="M225.6,11.3c-.7,0-1.1-.3-1.4-.8-.2-.5-.2-1,.2-1.4.9-1,1.9-2,2.9-2.9.5-.5,1.3-.4,1.8,0s.6,1.3,0,1.8c-.9,1-1.9,2-2.9,2.9-.2.2-.5.2-.7.3h0Z"/>
    <path class="cls-2" d="M237.8,7.4c-.1.2-.2.6-.5.8-.9.9-1.8,1.8-2.7,2.7-.6.6-1.4.6-2,0-.5-.6-.5-1.4,0-2,.9-.9,1.8-1.8,2.7-2.7.4-.4,1-.6,1.6-.3.5.2.8.7.8,1.4h0Z"/>
    <path class="cls-2" d="M244.4,5.8c.7,0,1.1.3,1.4.8.2.5.2,1-.1,1.4-1,1-2,2.1-3,3-.5.5-1.3.4-1.8-.1-.5-.5-.6-1.3,0-1.8.9-1,1.9-1.9,2.9-2.9.2-.2.6-.3.7-.4h0Z"/>
    <path class="cls-2" d="M254.2,7.3c-.2.3-.3.7-.6.9-.9.9-1.7,1.8-2.6,2.7-.6.6-1.4.6-2,0-.6-.6-.6-1.4,0-2,.9-.9,1.8-1.8,2.7-2.7.4-.4.9-.5,1.5-.3.5.2.8.7.9,1.3h0Z"/>
    <path class="cls-2" d="M228.3,19.5c-.7,0-1.1-.3-1.4-.8-.3-.5-.2-1.1.2-1.5.9-1,1.9-1.9,2.9-2.9.5-.5,1.3-.5,1.9,0,.5.5.6,1.3,0,1.9-.9,1-1.9,2-2.9,2.9-.2.2-.6.3-.7.3h0Z"/>
    <path class="cls-2" d="M256.9,15.6c-.1.2-.2.5-.4.8-.9.9-1.8,1.8-2.7,2.7-.6.6-1.4.6-2,0-.5-.5-.5-1.4,0-1.9.9-.9,1.8-1.8,2.7-2.7.4-.4,1-.5,1.6-.3.5.2.8.7.8,1.4h0Z"/>
  </g>
  <path class="cls-2" d="M165.8,28.7h1.3c2.7,0,3.8-1.4,3.8-3.6s-1.3-3.1-3.3-3.1-3.3,1.3-3.3,2.9h-2.5c0-3.2,2.8-5.2,5.8-5.2s5.8,2.3,5.8,5.4-1.2,3.7-3,4.6c2,.8,3.3,2.4,3.3,5s-2.3,5.8-5.9,5.8-6.1-2.3-6.3-5.3h2.5c.3,1.7,1.4,3,3.8,3s3.4-1.5,3.4-3.4-1.4-3.9-4.1-3.9h-1.3v-2.3h0Z"/>
  <path class="cls-2" d="M176.6,30.6h-2.3v-10.6h10.3v2.5h-7.9v5.3c.6-.7,1.7-1.3,3.3-1.3,3.8,0,5.5,2.9,5.5,7.5s-2.1,6.6-6,6.6-5.5-2.2-5.7-5h2.5c.4,1.7,1.6,2.7,3.2,2.7s3.4-1.2,3.4-4.3-1-4.9-3.4-4.9-2.3.7-2.9,1.5h0Z"/>
  <polygon class="cls-2" points="156.1 37 160.9 28.7 151.2 28.7 156.1 37"/>
  <line class="cls-1" x1="156.1" y1="32.8" x2="156.1" y2="23.6"/>
</svg>