<?xml version="1.0" encoding="utf-8"?>
<!-- Generator: Adobe Illustrator 27.3.1, SVG Export Plug-In . SVG Version: 6.00 Build 0)  -->
<svg version="1.1" id="Layer_1" xmlns="http://www.w3.org/2000/svg" xmlns:xlink="http://www.w3.org/1999/xlink" x="0px" y="0px"
	 viewBox="0 0 400 400" enable-background="new 0 0 400 400" xml:space="preserve">
<g>
	<g>
		<polygon points="1.4,26.9 1.4,88.5 273,88.5 33.7,327.8 77.2,371.4 286,162.6 286,373.1 347.6,373.1 347.6,26.9 		"/>
		<g>
			<g>
				<path d="M383.4,68.6c-13.4,2.6-24.9-9-22.4-22.4c1.4-7.5,7.4-13.5,14.9-14.9c13.4-2.6,24.9,9,22.4,22.4
					C396.9,61.2,390.8,67.2,383.4,68.6z M383.5,33.7c-12.2-2.7-22.8,7.9-20.1,20.1c1.4,6.1,6.3,11.1,12.5,12.5
					c12.2,2.7,22.8-7.9,20.1-20.1C394.6,40,389.6,35,383.5,33.7z"/>
			</g>
			<g>
				<path d="M376.8,45.4h-3.6v10.5h-1.5V45.4h-3.6V44h8.7V45.4z"/>
				<path d="M390.2,44v11.9h-1.5v-9.6l-3.6,5.1h-0.8l-3.6-5.1v9.6h-1.5V44h1.7l3.9,5.4l3.9-5.4H390.2z"/>
			</g>
		</g>
	</g>
</g>
</svg>
