<?xml version="1.0" encoding="UTF-8"?><svg id="Layer_1" xmlns="http://www.w3.org/2000/svg" viewBox="0 0 259.4 424.09"><path d="M129.7,258.37C58.44,258.37.47,200.4.47,129.14S58.44-.09,129.7-.09s129.23,57.97,129.23,129.23-57.97,129.23-129.23,129.23ZM129.7,5.58C61.56,5.58,6.13,61.01,6.13,129.14s55.43,123.57,123.57,123.57,123.57-55.43,123.57-123.57S197.83,5.58,129.7,5.58Z" fill="#1d1d1d" stroke-width="0"/><path d="M40.33,42.6c-1.56,0-2.83-1.27-2.83-2.83h2.83v-2.83,2.83s2.83,0,2.83,0h0s-2.83,0-2.83,0v2.83Z" fill="#1d1d1d" stroke-width="0"/><path d="M74.14,344.24h11.47v-11.39h3.33v26.73h-3.33v-12.32h-11.47v12.32h-3.33v-26.73h3.33v11.39Z" fill="#1d1d1d" stroke-width="0"/><path d="M96.49,359.58l9.3-26.73h3.1l9.3,26.73h-3.53l-2.05-6.12h-10.54l-2.05,6.12h-3.53ZM103.12,350.44h8.45l-4.22-12.55-4.22,12.55Z" fill="#1d1d1d" stroke-width="0"/><path d="M129.08,356.56h12.79v3.02h-16.12v-26.73h3.33v23.71Z" fill="#1d1d1d" stroke-width="0"/><path d="M146.52,359.58l9.3-26.73h3.1l9.3,26.73h-3.53l-2.05-6.12h-10.54l-2.05,6.12h-3.53ZM153.14,350.44h8.45l-4.22-12.55-4.22,12.55Z" fill="#1d1d1d" stroke-width="0"/><path d="M179.1,356.56h12.79v3.02h-16.12v-26.73h3.33v23.71Z" fill="#1d1d1d" stroke-width="0"/><path d="M105.29,68.11l-6.88-5.68c-1.38-1.14-1.77-1.07-1.81-1.07,0,0-.43.15-1.13,1.95-1.42,3.66-1.62,7.47-.63,11.66,4.01,17,6.57,35.52,8.05,58.29.73,11.21-4.11,18.04-14.36,20.31-3.03.67-6.07.99-9,1.31-1.25.13-2.47.26-3.64.41l-.16.02h-.16c-1.26-.11-2.48-.15-3.67-.18-2.6-.09-5.06-.17-7.46-.78-6.79-1.73-10.81-4.25-12.63-7.92-1.65-3.32-1.37-7.51.87-12.83,1.11-2.65,2.42-5.23,3.69-7.73l1.28-2.53c.35-.71.46-1.41.29-1.88-.06-.18-.2-.44-.64-.63-.34-.15-.81-.22-1.32-.22-.74,0-1.56.15-2.25.44-.41.17-1.11,1.04-1.64,2.36-.58,1.42-1.17,2.83-1.77,4.25-1.78,4.24-3.63,8.61-4.79,13.04-1.5,5.71-.79,11.31,2.01,15.75,2.73,4.33,7.26,7.3,12.77,8.36,10.37,2,20.77,1.69,30.91-.9,10.1-2.58,16.8-10.74,17.09-20.77.15-5.33-.09-11.1-.74-17.64-1.15-11.56-2.59-23.3-3.98-34.65l-.13-1.11c-.58-4.76.37-8.36,3.09-11.68,3-3.66,2.62-6.73-1.25-9.94Z" fill="#1d1d1d" stroke-width="0"/><path d="M147.67,149.03l4.97-.02c1.71,0,3.41-.01,5.12-.03,1.69-.01,3.4-.02,5.12-.02,2.46,0,4.94.03,7.4.12,1.05.04,1.78-.12,2.13-.47.29-.28.43-.82.41-1.58l-.11-5.44c-.14-7.45-.3-15.16-.91-22.67-.34-4.15-2.35-8.16-5.65-11.3-.96-.91-1.3-.98-1.34-.98.03,0-.28.15-.96,1.23-2.63,4.19-2.78,7.94-.44,11.45,2.71,4.09,4.5,8.59,5.45,13.76.18.98.32,2.42-.56,3.48-.97,1.17-2.57,1.17-3.14,1.16-3.77-.01-7.55,0-11.33,0-5.46,0-10.92.02-16.39-.03-4.61-.03-7.15-2.08-8.21-6.64-.28-1.2-.35-2.39-.43-3.55l-.06-.83c-.24-3.24-.45-6.49-.66-9.73-.46-7.22-.93-14.69-1.88-21.95-.73-5.59-2.21-11.24-3.64-16.7-.5-1.9-.99-3.8-1.46-5.7-.05-.12-.29-.36-.53-.58-.25.22-.47.43-.56.61-2.74,5.31-3.51,10.63-2.38,16.25,1.62,7.97,2.78,15.73,4.15,25.04.58,3.99,1.07,7.99,1.57,11.99.55,4.47,1.1,8.94,1.78,13.38,1.04,6.86,4.36,9.68,11.44,9.73,3.7.03,7.4.02,11.1.01Z" fill="#1d1d1d" stroke-width="0"/><path d="M190.54,113.62c-1.77,1.16-2.33,2.74-1.68,4.7.45,1.36,1.29,2.82,2.5,4.35,1.59,2.02,3.23,4,4.87,5.98,2.25,2.72,4.58,5.53,6.74,8.41,5.04,6.73,5.33,13.87.8,20.1-4.4,6.05-8.6,10.87-12.84,14.74-8.68,7.93-18.96,10.95-30.52,8.99-1.05-.18-2.09-.4-3.13-.62-1.7-.36-3.31-.7-4.94-.85,0,0,0,0,0,0-.11,0-.32.09-.56.21.15.15.3.27.41.31,4.98,1.8,10.08,3.53,15.16,5.12,11.87,3.73,21.94,1.43,29.93-6.83,2.5-2.58,4.83-5.44,7.09-8.21,1.39-1.71,2.78-3.41,4.22-5.07,4.25-4.9,6.28-10.71,6.05-17.25v-.12c.54-13.32-7.31-21.61-15.63-30.38-1.18-1.25-2.37-2.5-3.52-3.76-1.21-1.32-3.36-.87-4.93.17Z" fill="#1d1d1d" stroke-width="0"/><path d="M152.12,166.74c1.28,1.73,2.41,2.92,3.55,3.76.28.2,1.21.37,1.5.27,1.7-1.31,3.44-2.97,5.11-4.58l1.46-1.39s.07-.1.13-.19c-.2-.35-.39-.7-.65-1-.75-.89-1.51-1.77-2.28-2.64-1-1.15-2-2.29-2.96-3.48-.35-.43-.86-.95-1.34-.98-.5-.02-1.05.4-1.45.77l-.64.59c-1.37,1.26-2.74,2.52-4.03,3.86-.71.74-1.88,1.71-3.27,1.59-1.08-.08-2.04-.72-2.93-1.97-.89-1.24-1.9-2.38-2.97-3.6l-1.15-1.31c-.5-.58-.69-.56-.72-.55-.1,0-.32.09-.62.37-1.09.99-2.2,1.98-3.3,2.96-.97.87-1.94,1.73-2.91,2.6-.63.57-.64.8-.08,1.43,1.12,1.27,2.23,2.55,3.34,3.84l2.71,3.12c.33.38.64.6.87.61.21-.02.61-.19,1.02-.56.58-.53,1.19-1.02,1.8-1.52,1.01-.83,1.96-1.61,2.75-2.5,1.17-1.32,2.42-1.91,3.53-1.89,1.62.07,2.74,1.31,3.54,2.38Z" fill="#1d1d1d" stroke-width="0"/></svg>