<?xml version="1.0" encoding="UTF-8"?><svg id="Layer_1" xmlns="http://www.w3.org/2000/svg" viewBox="0 0 300 300"><path d="M79.6,150c0,38.82,31.58,70.4,70.39,70.4s70.4-31.58,70.4-70.4-31.58-70.4-70.4-70.4-70.39,31.58-70.39,70.4ZM217.06,150c0,36.97-30.08,67.06-67.06,67.06s-67.05-30.08-67.05-67.06,30.08-67.06,67.05-67.06,67.06,30.08,67.06,67.06Z" fill="#fff" stroke-width="0"/><path d="M239.54,150c0-1.6-.04-3.19-.13-4.77l-3.34.18c.08,1.52.12,3.06.12,4.6,0,47.53-38.67,86.21-86.21,86.21-9.53,0-18.89-1.54-27.82-4.59l-1.08,3.16c9.28,3.16,19,4.76,28.9,4.76,49.38,0,89.54-40.17,89.54-89.55Z" fill="#fff" stroke-width="0"/><path d="M60.48,152.38l3.34-.08c-.02-.76-.03-1.53-.03-2.3,0-47.53,38.67-86.21,86.21-86.21,8.74,0,17.36,1.3,25.63,3.87l.99-3.19c-8.59-2.67-17.55-4.02-26.62-4.02-49.38,0-89.54,40.17-89.54,89.54,0,.8,0,1.59.03,2.38Z" fill="#fff" stroke-width="0"/><path d="M211.54,84.95c-8.32-7.87-17.91-14-28.5-18.2l-1.23,3.1c10.2,4.05,19.43,9.95,27.44,17.52l2.3-2.43Z" fill="#fff" stroke-width="0"/><path d="M86.74,213.38c8.1,8.09,17.52,14.47,28,18.96l1.31-3.07c-10.09-4.32-19.16-10.46-26.96-18.25l-2.36,2.36Z" fill="#fff" stroke-width="0"/><path d="M261.76,150c0,51.87-35.17,96.55-85.52,108.66l6.24,25.97c62.41-15,105.99-70.37,105.99-134.63h-26.71Z" fill="#fff" stroke-width="0"/><path d="M149.97,38.24h.03c38.07,0,73.17,19.11,93.89,51.11l22.42-14.52c-25.66-39.64-69.15-63.3-116.31-63.3h-.03c-15.67,0-31.06,2.61-45.74,7.74l8.83,25.21c11.84-4.14,24.25-6.24,36.92-6.24Z" fill="#fff" stroke-width="0"/><path d="M258.21,121.94l25.86-6.69c-3.08-11.93-7.77-23.41-13.92-34.13l-23.17,13.31c4.96,8.64,8.74,17.89,11.22,27.51Z" fill="#fff" stroke-width="0"/><path d="M150.04,261.76c-3.03-.1-6.28-.13-9.35-.38l-2.2,26.62c3.79.31,7.67.47,11.5.47h.06c8.46,0,16.94-.77,25.2-2.3l-4.85-26.27c-6.67,1.23-13.52,1.86-20.36,1.86Z" fill="#fff" stroke-width="0"/><path d="M38.24,150c0-14.34,2.67-28.29,7.94-41.47l-24.8-9.92c-6.54,16.35-9.85,33.64-9.85,51.39,0,44.77,21.81,86.99,58.35,112.95l15.47-21.78c-29.5-20.96-47.11-55.04-47.11-91.18Z" fill="#fff" stroke-width="0"/><path d="M64.54,77.98l-20.41-17.23c-7.97,9.44-14.63,19.89-19.81,31.06l24.24,11.24c4.18-9.02,9.56-17.45,15.99-25.07Z" fill="#fff" stroke-width="0"/></svg>