<?xml version="1.0" encoding="UTF-8"?><svg id="Layer_1" xmlns="http://www.w3.org/2000/svg" viewBox="0 0 259.4 424.09"><path d="M190.52,65.04c.29.3.31.59.2,1.02-.54,2.04-.99,4.09-1.5,6.14-.13.53-.36,1.03-.46,1.57-.16.86-.17,1.76-.38,2.61-.33,1.36-.33,2.76-.51,4.14-.17,1.37-.31,2.74-.47,4.11-.37,3.15-.89,6.27-1.81,9.31-.43,1.45-1.21,2.74-2.09,3.96-.58.8-1.17,1.61-1.87,2.3-1.49,1.47-2.85,3.08-4.53,4.36-2.97,2.27-6.21,4.02-9.72,5.28-2.05.74-4.14,1.31-6.27,1.74-1.8.36-3.6.72-5.4,1.11-.57.12-1.13.3-1.67.53-.23.1-.39.37-.56.58-1.61,1.96-2.92,4.12-3.91,6.45-1.59,3.76-3.11,7.55-4.61,11.35-1.21,3.05-2.16,6.19-3.13,9.32-.7,2.25-1.37,4.51-2.04,6.77-.3,1.01-.55,2.04-.83,3.05-.24.86-.51,1.71-.74,2.57-.21.79-.37,1.6-.54,2.4-.28,1.29-.56,2.57-.84,3.86-.4,1.81-.81,3.62-1.19,5.44-.32,1.57-.6,3.14-.88,4.72-.23,1.32-.43,2.64-.66,3.96-.27,1.6-.52,3.21-.82,4.81-.3,1.61-.66,3.21-.95,4.83-.29,1.62-.53,3.26-.81,4.89-.15.86-.29,1.73-.51,2.57-.21.83-.46,1.65-.93,2.39-.46.72-1.1,1.12-1.93,1.13-2.42.01-4.85,0-7.27-.05-.95-.02-1.78-.39-2.11-1.4-.16-.5-.29-1.02-.4-1.54-.23-1.1-.44-2.2-.67-3.3-.23-1.1-.47-2.2-.69-3.31-.12-.59-.19-1.18-.31-1.77-.23-1.15-.47-2.3-.72-3.44-.16-.75-.36-1.5-.53-2.26-.16-.73-.27-1.48-.44-2.21-.14-.62-.37-1.21-.51-1.83-.15-.69-.23-1.39-.38-2.08-.15-.69-.35-1.36-.51-2.04-.49-2.08-.97-4.17-1.48-6.24-.35-1.43-.74-2.85-1.09-4.28-.1-.42-.12-.86-.24-1.27-.29-1.04-.65-2.06-.92-3.1-.26-.99-.41-2-.66-3-.19-.75-.46-1.49-.67-2.24-.26-.91-.48-1.84-.73-2.75-.22-.82-.46-1.63-.67-2.46-.08-.32-.06-.67-.15-.99-.13-.49-.33-.95-.47-1.44-.35-1.29-.65-2.59-1.02-3.88-.37-1.27-.79-2.53-1.19-3.79-.36-1.15-.7-2.3-1.06-3.45-.42-1.34-.83-2.69-1.29-4.03-.36-1.05-.79-2.08-1.15-3.13-.27-.79-.44-1.61-.71-2.4-.28-.81-.64-1.59-.95-2.38-.15-.4-.24-.82-.39-1.22-.24-.64-.51-1.26-.76-1.89-.67-1.7-1.31-3.4-2.01-5.09-.32-.77-.74-1.5-1.08-2.27-.23-.51-.38-1.07-.63-1.57-.55-1.11-1.15-2.2-1.71-3.31-.31-.61-.55-1.27-.87-1.87-.4-.76-.87-1.48-1.29-2.23-.9-1.6-1.77-3.23-2.7-4.81-.52-.88-1.14-1.7-1.7-2.56-1.16-1.78-2.23-3.63-3.48-5.35-2.53-3.47-5.14-6.87-7.76-10.28-.76-.99-1.65-1.87-2.47-2.82-.48-.56-.91-1.16-1.38-1.73-.56-.67-1.15-1.31-1.7-1.99-.39-.49-.87-.98-.67-1.74.58-.29,1.12,0,1.65.14,1.77.46,3.4,1.25,4.93,2.24,1.63,1.06,3.27,2.11,4.85,3.23.9.64,1.73,1.38,2.55,2.12,1.49,1.36,2.97,2.74,4.4,4.16.97.96,1.83,2.03,2.76,3.03,2.08,2.25,4.04,4.59,5.93,6.99,2.82,3.58,5.56,7.24,7.7,11.28,1.77,3.34,3.39,6.75,4.69,10.31.55,1.51,1.23,2.97,1.8,4.47,1.4,3.73,2.68,7.5,3.73,11.35.72,2.66,1.52,5.3,2.24,7.96,2.52,9.31,5.01,18.63,7.54,27.93.24.87.63,1.7.96,2.55.03.08.13.15.24.27.11-.16.21-.27.26-.4.97-2.66,1.94-5.32,2.89-7.99.44-1.24.83-2.51,1.24-3.76.61-1.84,1.21-3.69,1.83-5.53.83-2.48,1.66-4.96,2.49-7.44.36-1.08.67-2.17,1.06-3.23,2.7-7.33,5.35-14.67,8.56-21.8.97-2.15,1.92-4.31,3.06-6.37,1.28-2.31,2.61-4.59,3.97-6.85.8-1.33,1.69-2.61,2.58-3.89,1.69-2.43,3.39-4.86,5.14-7.25.69-.95,1.54-1.78,2.32-2.66,1.2-1.37,2.4-2.73,3.59-4.1.09-.11.13-.26.22-.46-.82-.17-1.57-.08-2.26.17-1.36.51-2.67,1.14-3.96,1.84-1.96,1.05-3.64,2.41-5.21,3.95-1.92,1.88-3.79,3.81-5.41,5.95-1.3,1.71-2.55,3.46-3.74,5.25-.77,1.16-1.4,2.42-2.05,3.65-.31.59-.5,1.24-.8,1.84-.18.36-.46.67-.68.97-.54-.08-.75-.4-.79-.75-.14-1.21-.27-2.43-.31-3.64-.16-4.83.77-9.46,2.7-13.9,1.36-3.14,3.1-6.04,5.29-8.66.73-.87,1.41-1.79,2.25-2.53,1.71-1.51,3.46-2.97,5.45-4.14,2.35-1.37,4.88-2.24,7.5-2.85,4.2-.98,8.43-1.84,12.64-2.76,2.67-.58,5.34-1.15,8-1.74,1.08-.24,2.14-.52,3.22-.77,1.07-.25,2.15-.47,3.22-.71.53,0,1.05,0,1.58.01h0Z" fill="#1d1d1d" stroke-width="0"/><path d="M129.7,258.9C58.44,258.9.47,200.92.47,129.67S58.44.44,129.7.44s129.23,57.97,129.23,129.23-57.97,129.23-129.23,129.23ZM129.7,6.1C61.56,6.1,6.13,61.53,6.13,129.67s55.43,123.57,123.57,123.57,123.57-55.43,123.57-123.57S197.83,6.1,129.7,6.1Z" fill="#1d1d1d" stroke-width="0"/><path d="M40.33,43.12c-1.56,0-2.83-1.27-2.83-2.83h2.83v-2.83,2.83s2.83,0,2.83,0h0s-2.83,0-2.83,0v2.83Z" fill="#1d1d1d" stroke-width="0"/><path d="M10.72,332.85l7.52,21.31,7.63-21.31h3.68l-9.69,26.73h-3.14l-9.69-26.73h3.68Z" fill="#1d1d1d" stroke-width="0"/><path d="M53.23,332.85v3.02h-12.78v8.37h11.62v3.02h-11.62v9.3h12.78v3.02h-16.12v-26.73h16.12Z" fill="#1d1d1d" stroke-width="0"/><path d="M80.12,346.14v1.55c0,8.64-3.91,12.2-9.84,12.2s-9.69-3.56-9.69-12.2v-2.94c0-8.64,3.76-12.2,9.69-12.2,5.19,0,8.76,2.75,9.61,8.64h-3.25c-.85-3.99-2.95-5.62-6.35-5.62-4.11,0-6.35,2.56-6.35,9.18v2.94c0,6.62,2.25,9.18,6.35,9.18,3.76,0,6.12-2.17,6.47-7.71h-6.35v-3.02h9.72Z" fill="#1d1d1d" stroke-width="0"/><path d="M105.34,332.85v3.02h-12.78v8.37h11.62v3.02h-11.62v9.3h12.78v3.02h-16.12v-26.73h16.12Z" fill="#1d1d1d" stroke-width="0"/><path d="M130.57,332.85v3.02h-8.14v23.71h-3.33v-23.71h-8.14v-3.02h19.6Z" fill="#1d1d1d" stroke-width="0"/><path d="M133.86,359.58l9.3-26.73h3.1l9.3,26.73h-3.53l-2.05-6.12h-10.54l-2.05,6.12h-3.53ZM140.49,350.44h8.45l-4.22-12.55-4.22,12.55Z" fill="#1d1d1d" stroke-width="0"/><path d="M178.34,359.58l-5.58-11.27h-6.31v11.27h-3.33v-26.73h8.52c6.16,0,9.72,2.56,9.72,7.75,0,3.76-1.86,6.12-5.27,7.13l5.97,11.86h-3.72ZM171.64,345.29c4.53,0,6.39-1.39,6.39-4.69s-1.86-4.73-6.39-4.73h-5.19v9.41h5.19Z" fill="#1d1d1d" stroke-width="0"/><path d="M194.12,359.58h-3.33v-26.73h3.33v26.73Z" fill="#1d1d1d" stroke-width="0"/><path d="M202.06,359.58l9.3-26.73h3.1l9.3,26.73h-3.53l-2.05-6.12h-10.54l-2.05,6.12h-3.53ZM208.68,350.44h8.45l-4.22-12.55-4.22,12.55Z" fill="#1d1d1d" stroke-width="0"/><path d="M249.45,332.85v26.73h-3.25l-11.54-20.22v20.22h-3.33v-26.73h3.18l11.62,20.42v-20.42h3.33Z" fill="#1d1d1d" stroke-width="0"/></svg>