<?xml version="1.0" encoding="utf-8"?>
<!-- Generator: Adobe Illustrator 28.3.0, SVG Export Plug-In . SVG Version: 6.00 Build 0)  -->
<svg version="1.1" id="Layer_1" xmlns="http://www.w3.org/2000/svg" xmlns:xlink="http://www.w3.org/1999/xlink" x="0px" y="0px"
	 viewBox="0 0 1126.6 92.7" style="enable-background:new 0 0 1126.6 92.7;" xml:space="preserve">
<style type="text/css">
	.st0{fill:none;stroke:#000000;stroke-width:0.9507;stroke-miterlimit:10;}
</style>
<g id="cm">
	<line class="st0" x1="9.7" y1="0.5" x2="1117.8" y2="2.9"/>
	<line class="st0" x1="9.7" y1="0.5" x2="9.7" y2="47.9"/>
	<line class="st0" x1="17.7" y1="0.8" x2="17.7" y2="24.5"/>
	<line class="st0" x1="25.6" y1="0.8" x2="25.6" y2="24.5"/>
	<line class="st0" x1="33.5" y1="0.8" x2="33.5" y2="24.5"/>
	<line class="st0" x1="41.5" y1="0.8" x2="41.5" y2="24.5"/>
	<line class="st0" x1="49.4" y1="0.8" x2="49.4" y2="34"/>
	<line class="st0" x1="57.3" y1="0.8" x2="57.3" y2="24.5"/>
	<line class="st0" x1="65.2" y1="0.8" x2="65.2" y2="24.5"/>
	<line class="st0" x1="73.2" y1="0.8" x2="73.2" y2="24.5"/>
	<line class="st0" x1="81.1" y1="0.8" x2="81.1" y2="24.5"/>
	<line class="st0" x1="89" y1="0.8" x2="89" y2="47.9"/>
	<line class="st0" x1="96.8" y1="1" x2="96.8" y2="24.7"/>
	<line class="st0" x1="104.7" y1="1" x2="104.7" y2="24.7"/>
	<line class="st0" x1="112.7" y1="1" x2="112.7" y2="24.7"/>
	<line class="st0" x1="120.6" y1="1" x2="120.6" y2="24.7"/>
	<line class="st0" x1="128.5" y1="1" x2="128.5" y2="34.1"/>
	<line class="st0" x1="136.4" y1="1" x2="136.4" y2="24.7"/>
	<line class="st0" x1="144.4" y1="1" x2="144.4" y2="24.7"/>
	<line class="st0" x1="152.3" y1="1" x2="152.3" y2="24.7"/>
	<line class="st0" x1="160.2" y1="1" x2="160.2" y2="24.7"/>
	<line class="st0" x1="168.2" y1="1" x2="168.2" y2="48.1"/>
	<line class="st0" x1="175.9" y1="1.1" x2="175.9" y2="24.8"/>
	<line class="st0" x1="183.9" y1="1.1" x2="183.9" y2="24.8"/>
	<line class="st0" x1="191.8" y1="1.1" x2="191.8" y2="24.8"/>
	<line class="st0" x1="199.7" y1="1.1" x2="199.7" y2="24.8"/>
	<line class="st0" x1="207.6" y1="1.1" x2="207.6" y2="34.3"/>
	<line class="st0" x1="215.6" y1="1.1" x2="215.6" y2="24.8"/>
	<line class="st0" x1="223.5" y1="1.1" x2="223.5" y2="24.8"/>
	<line class="st0" x1="231.4" y1="1.1" x2="231.4" y2="24.8"/>
	<line class="st0" x1="239.4" y1="1.1" x2="239.4" y2="24.8"/>
	<line class="st0" x1="247.3" y1="1.1" x2="247.3" y2="48.2"/>
	<line class="st0" x1="255.1" y1="1.3" x2="255.1" y2="25"/>
	<line class="st0" x1="263" y1="1.3" x2="263" y2="25"/>
	<line class="st0" x1="270.9" y1="1.3" x2="270.9" y2="25"/>
	<line class="st0" x1="278.9" y1="1.3" x2="278.9" y2="25"/>
	<line class="st0" x1="286.8" y1="1.3" x2="286.8" y2="34.5"/>
	<line class="st0" x1="294.7" y1="1.3" x2="294.7" y2="25"/>
	<line class="st0" x1="302.6" y1="1.3" x2="302.6" y2="25"/>
	<line class="st0" x1="310.6" y1="1.3" x2="310.6" y2="25"/>
	<line class="st0" x1="318.5" y1="1.3" x2="318.5" y2="25"/>
	<line class="st0" x1="326.4" y1="1.3" x2="326.4" y2="48.4"/>
	<line class="st0" x1="334.2" y1="1.4" x2="334.2" y2="25.2"/>
	<line class="st0" x1="342.1" y1="1.4" x2="342.1" y2="25.2"/>
	<line class="st0" x1="350.1" y1="1.4" x2="350.1" y2="25.2"/>
	<line class="st0" x1="358" y1="1.4" x2="358" y2="25.2"/>
	<line class="st0" x1="365.9" y1="1.4" x2="365.9" y2="34.6"/>
	<line class="st0" x1="373.8" y1="1.4" x2="373.8" y2="25.2"/>
	<line class="st0" x1="381.8" y1="1.4" x2="381.8" y2="25.2"/>
	<line class="st0" x1="389.7" y1="1.4" x2="389.7" y2="25.2"/>
	<line class="st0" x1="397.6" y1="1.4" x2="397.6" y2="25.2"/>
	<line class="st0" x1="405.6" y1="1.4" x2="405.6" y2="48.5"/>
	<line class="st0" x1="413.3" y1="1.6" x2="413.3" y2="25.3"/>
	<line class="st0" x1="421.3" y1="1.6" x2="421.3" y2="25.3"/>
	<line class="st0" x1="429.2" y1="1.6" x2="429.2" y2="25.3"/>
	<line class="st0" x1="437.1" y1="1.6" x2="437.1" y2="25.3"/>
	<line class="st0" x1="445.1" y1="1.6" x2="445.1" y2="34.8"/>
	<line class="st0" x1="453" y1="1.6" x2="453" y2="25.3"/>
	<line class="st0" x1="460.9" y1="1.6" x2="460.9" y2="25.3"/>
	<line class="st0" x1="468.8" y1="1.6" x2="468.8" y2="25.3"/>
	<line class="st0" x1="476.8" y1="1.6" x2="476.8" y2="25.3"/>
	<line class="st0" x1="484.7" y1="1.6" x2="484.7" y2="48.7"/>
	<line class="st0" x1="492.5" y1="1.8" x2="492.5" y2="25.5"/>
	<line class="st0" x1="500.4" y1="1.8" x2="500.4" y2="25.5"/>
	<line class="st0" x1="508.3" y1="1.8" x2="508.3" y2="25.5"/>
	<line class="st0" x1="516.3" y1="1.8" x2="516.3" y2="25.5"/>
	<line class="st0" x1="524.2" y1="1.8" x2="524.2" y2="34.9"/>
	<line class="st0" x1="532.1" y1="1.8" x2="532.1" y2="25.5"/>
	<line class="st0" x1="540" y1="1.8" x2="540" y2="25.5"/>
	<line class="st0" x1="548" y1="1.8" x2="548" y2="25.5"/>
	<line class="st0" x1="555.9" y1="1.8" x2="555.9" y2="25.5"/>
	<line class="st0" x1="563.8" y1="1.8" x2="563.8" y2="48.9"/>
	<line class="st0" x1="571.6" y1="1.9" x2="571.6" y2="25.6"/>
	<line class="st0" x1="579.5" y1="1.9" x2="579.5" y2="25.6"/>
	<line class="st0" x1="587.5" y1="1.9" x2="587.5" y2="25.6"/>
	<line class="st0" x1="595.4" y1="1.9" x2="595.4" y2="25.6"/>
	<line class="st0" x1="603.3" y1="1.9" x2="603.3" y2="35.1"/>
	<line class="st0" x1="611.3" y1="1.9" x2="611.3" y2="25.6"/>
	<line class="st0" x1="619.2" y1="1.9" x2="619.2" y2="25.6"/>
	<line class="st0" x1="627.1" y1="1.9" x2="627.1" y2="25.6"/>
	<line class="st0" x1="635" y1="1.9" x2="635" y2="25.6"/>
	<line class="st0" x1="643" y1="1.9" x2="643" y2="49"/>
	<line class="st0" x1="650.7" y1="2.1" x2="650.7" y2="25.8"/>
	<line class="st0" x1="658.7" y1="2.1" x2="658.7" y2="25.8"/>
	<line class="st0" x1="666.6" y1="2.1" x2="666.6" y2="25.8"/>
	<line class="st0" x1="674.5" y1="2.1" x2="674.5" y2="25.8"/>
	<line class="st0" x1="682.5" y1="2.1" x2="682.5" y2="35.3"/>
	<line class="st0" x1="690.4" y1="2.1" x2="690.4" y2="25.8"/>
	<line class="st0" x1="698.3" y1="2.1" x2="698.3" y2="25.8"/>
	<line class="st0" x1="706.2" y1="2.1" x2="706.2" y2="25.8"/>
	<line class="st0" x1="714.2" y1="2.1" x2="714.2" y2="25.8"/>
	<line class="st0" x1="722.1" y1="2.1" x2="722.1" y2="49.2"/>
	<line class="st0" x1="729.9" y1="2.3" x2="729.9" y2="26"/>
	<line class="st0" x1="737.8" y1="2.3" x2="737.8" y2="26"/>
	<line class="st0" x1="745.7" y1="2.3" x2="745.7" y2="26"/>
	<line class="st0" x1="753.7" y1="2.3" x2="753.7" y2="26"/>
	<line class="st0" x1="761.6" y1="2.3" x2="761.6" y2="35.4"/>
	<line class="st0" x1="769.5" y1="2.3" x2="769.5" y2="26"/>
	<line class="st0" x1="777.4" y1="2.3" x2="777.4" y2="26"/>
	<line class="st0" x1="785.4" y1="2.3" x2="785.4" y2="26"/>
	<line class="st0" x1="793.3" y1="2.3" x2="793.3" y2="26"/>
	<line class="st0" x1="801.2" y1="2.3" x2="801.2" y2="49.3"/>
	<line class="st0" x1="809" y1="2.4" x2="809" y2="26.1"/>
	<line class="st0" x1="816.9" y1="2.4" x2="816.9" y2="26.1"/>
	<line class="st0" x1="824.9" y1="2.4" x2="824.9" y2="26.1"/>
	<line class="st0" x1="832.8" y1="2.4" x2="832.8" y2="26.1"/>
	<line class="st0" x1="840.7" y1="2.4" x2="840.7" y2="35.6"/>
	<line class="st0" x1="848.7" y1="2.4" x2="848.7" y2="26.1"/>
	<line class="st0" x1="856.6" y1="2.4" x2="856.6" y2="26.1"/>
	<line class="st0" x1="864.5" y1="2.4" x2="864.5" y2="26.1"/>
	<line class="st0" x1="872.4" y1="2.4" x2="872.4" y2="26.1"/>
	<line class="st0" x1="880.4" y1="2.4" x2="880.4" y2="49.5"/>
	<line class="st0" x1="888.1" y1="2.6" x2="888.1" y2="26.3"/>
	<line class="st0" x1="896.1" y1="2.6" x2="896.1" y2="26.3"/>
	<line class="st0" x1="904" y1="2.6" x2="904" y2="26.3"/>
	<line class="st0" x1="911.9" y1="2.6" x2="911.9" y2="26.3"/>
	<line class="st0" x1="919.9" y1="2.6" x2="919.9" y2="35.8"/>
	<line class="st0" x1="927.8" y1="2.6" x2="927.8" y2="26.3"/>
	<line class="st0" x1="935.7" y1="2.6" x2="935.7" y2="26.3"/>
	<line class="st0" x1="943.6" y1="2.6" x2="943.6" y2="26.3"/>
	<line class="st0" x1="951.6" y1="2.6" x2="951.6" y2="26.3"/>
	<line class="st0" x1="959.5" y1="2.6" x2="959.5" y2="49.7"/>
	<line class="st0" x1="967.3" y1="2.7" x2="967.3" y2="26.4"/>
	<line class="st0" x1="975.2" y1="2.7" x2="975.2" y2="26.4"/>
	<line class="st0" x1="983.1" y1="2.7" x2="983.1" y2="26.4"/>
	<line class="st0" x1="991.1" y1="2.7" x2="991.1" y2="26.4"/>
	<line class="st0" x1="999" y1="2.7" x2="999" y2="35.9"/>
	<line class="st0" x1="1006.9" y1="2.7" x2="1006.9" y2="26.4"/>
	<line class="st0" x1="1014.9" y1="2.7" x2="1014.9" y2="26.4"/>
	<line class="st0" x1="1022.8" y1="2.7" x2="1022.8" y2="26.4"/>
	<line class="st0" x1="1030.7" y1="2.7" x2="1030.7" y2="26.4"/>
	<line class="st0" x1="1038.6" y1="2.7" x2="1038.6" y2="49.8"/>
	<line class="st0" x1="1046.4" y1="2.9" x2="1046.4" y2="26.6"/>
	<line class="st0" x1="1054.3" y1="2.9" x2="1054.3" y2="26.6"/>
	<line class="st0" x1="1062.3" y1="2.9" x2="1062.3" y2="26.6"/>
	<line class="st0" x1="1070.2" y1="2.9" x2="1070.2" y2="26.6"/>
	<line class="st0" x1="1078.1" y1="2.9" x2="1078.1" y2="36.1"/>
	<line class="st0" x1="1086.1" y1="2.9" x2="1086.1" y2="26.6"/>
	<line class="st0" x1="1094" y1="2.9" x2="1094" y2="26.6"/>
	<line class="st0" x1="1101.9" y1="2.9" x2="1101.9" y2="26.6"/>
	<line class="st0" x1="1109.8" y1="2.9" x2="1109.8" y2="26.6"/>
	<line class="st0" x1="1117.8" y1="2.9" x2="1117.8" y2="50"/>
	<g>
		<path d="M13.8,65.9c0,4.2-1.6,6.5-4.3,6.5c-2.4,0-4-2.3-4.1-6.4c0-4.1,1.8-6.4,4.3-6.4C12.4,59.7,13.8,62,13.8,65.9z M7.1,66.1
			c0,3.2,1,5,2.5,5c1.7,0,2.5-2,2.5-5.2c0-3-0.8-5-2.5-5C8.2,61,7.1,62.8,7.1,66.1z"/>
		<path d="M87.5,61.4L87.5,61.4l-2.2,1.2L85,61.3l2.7-1.4h1.4v12.4h-1.6V61.4z"/>
		<path d="M162.2,72.2v-1l1.3-1.3c3.2-3,4.6-4.6,4.6-6.5c0-1.3-0.6-2.4-2.5-2.4c-1.1,0-2.1,0.6-2.6,1l-0.5-1.2
			c0.9-0.7,2.1-1.3,3.5-1.3c2.7,0,3.8,1.8,3.8,3.6c0,2.3-1.7,4.1-4.3,6.6l-1,0.9v0h5.6v1.4H162.2z"/>
		<path d="M244.9,70.3c0.5,0.3,1.6,0.8,2.7,0.8c2.1,0,2.8-1.4,2.8-2.4c0-1.7-1.6-2.5-3.2-2.5h-0.9V65h0.9c1.2,0,2.8-0.6,2.8-2.1
			c0-1-0.6-1.9-2.2-1.9c-1,0-1.9,0.4-2.5,0.8l-0.4-1.2c0.6-0.5,1.9-1,3.2-1c2.4,0,3.5,1.4,3.5,2.9c0,1.3-0.8,2.4-2.3,2.9v0
			c1.5,0.3,2.8,1.4,2.8,3.2c0,2-1.5,3.7-4.5,3.7c-1.4,0-2.6-0.4-3.2-0.8L244.9,70.3z"/>
		<path d="M328,72.2v-3.4h-5.7v-1.1l5.5-7.9h1.8v7.7h1.7v1.3h-1.7v3.4H328z M328,67.6v-4.1c0-0.6,0-1.3,0.1-1.9H328
			c-0.4,0.7-0.7,1.3-1,1.8l-3,4.2v0H328z"/>
		<path d="M408.4,61.3h-4.7l-0.5,3.2c0.3,0,0.6-0.1,1-0.1c1,0,1.9,0.2,2.7,0.7c1,0.6,1.8,1.6,1.8,3.2c0,2.4-1.9,4.2-4.6,4.2
			c-1.3,0-2.5-0.4-3.1-0.8l0.4-1.3c0.5,0.3,1.5,0.7,2.6,0.7c1.6,0,2.9-1,2.9-2.7c0-1.6-1.1-2.7-3.6-2.7c-0.7,0-1.3,0.1-1.7,0.1
			l0.8-5.9h5.9V61.3z"/>
		<path d="M486.4,61.1c-0.3,0-0.8,0-1.3,0.1c-2.6,0.4-4,2.4-4.3,4.4h0.1c0.6-0.8,1.6-1.4,3-1.4c2.2,0,3.7,1.6,3.7,4
			c0,2.3-1.5,4.4-4.1,4.4c-2.6,0-4.4-2.1-4.4-5.3c0-2.4,0.9-4.4,2.1-5.6c1-1,2.4-1.6,4-1.8c0.5-0.1,0.9-0.1,1.2-0.1V61.1z
			 M485.9,68.2c0-1.8-1-2.8-2.5-2.8c-1,0-1.9,0.6-2.4,1.5c-0.1,0.2-0.2,0.4-0.2,0.7c0,2,1,3.5,2.7,3.5C485,71.2,485.9,70,485.9,68.2
			z"/>
		<path d="M565.7,59.9V61l-5.4,11.3h-1.7l5.4-10.9v0h-6v-1.4H565.7z"/>
		<path d="M639.8,69.1c0-1.6,0.9-2.7,2.5-3.3l0-0.1c-1.4-0.6-2-1.7-2-2.8c0-2,1.7-3.3,3.8-3.3c2.4,0,3.6,1.5,3.6,3
			c0,1-0.5,2.2-2,2.9v0.1c1.5,0.6,2.5,1.7,2.5,3.2c0,2.1-1.8,3.6-4.2,3.6C641.4,72.5,639.8,70.9,639.8,69.1z M646.4,69
			c0-1.5-1-2.2-2.7-2.7c-1.4,0.4-2.2,1.4-2.2,2.5c-0.1,1.3,0.9,2.4,2.5,2.4C645.5,71.2,646.4,70.3,646.4,69z M641.8,62.9
			c0,1.2,0.9,1.9,2.4,2.3c1.1-0.4,1.9-1.1,1.9-2.2c0-1-0.6-2-2.1-2C642.6,60.9,641.8,61.8,641.8,62.9z"/>
		<path d="M719.2,71.1c0.4,0,0.8,0,1.3-0.1c1-0.1,1.9-0.5,2.6-1.2c0.8-0.7,1.4-1.8,1.6-3.3h-0.1c-0.7,0.8-1.7,1.3-2.9,1.3
			c-2.2,0-3.7-1.7-3.7-3.8c0-2.3,1.7-4.4,4.2-4.4c2.5,0,4.1,2.1,4.1,5.2c0,2.7-0.9,4.6-2.1,5.8c-1,0.9-2.3,1.5-3.6,1.7
			c-0.6,0.1-1.1,0.1-1.5,0.1V71.1z M719.8,64c0,1.5,0.9,2.6,2.4,2.6c1.1,0,2-0.6,2.4-1.3c0.1-0.2,0.2-0.3,0.2-0.6
			c0-2.1-0.8-3.7-2.5-3.7C720.8,61,719.8,62.2,719.8,64z"/>
		<path d="M796.1,61.4L796.1,61.4l-2.2,1.2l-0.3-1.3l2.7-1.4h1.4v12.4h-1.6V61.4z"/>
		<path d="M810.4,65.9c0,4.2-1.6,6.5-4.3,6.5c-2.4,0-4-2.3-4.1-6.4c0-4.1,1.8-6.4,4.3-6.4C809,59.7,810.4,62,810.4,65.9z
			 M803.7,66.1c0,3.2,1,5,2.5,5c1.7,0,2.5-2,2.5-5.2c0-3-0.8-5-2.5-5C804.8,61,803.7,62.8,803.7,66.1z"/>
		<path d="M876.1,61.4L876.1,61.4l-2.2,1.2l-0.3-1.3l2.7-1.4h1.4v12.4h-1.6V61.4z"/>
		<path d="M885.8,61.4L885.8,61.4l-2.2,1.2l-0.3-1.3l2.7-1.4h1.4v12.4h-1.6V61.4z"/>
		<path d="M952,61.4L952,61.4l-2.2,1.2l-0.3-1.3l2.7-1.4h1.4v12.4H952V61.4z"/>
		<path d="M958.1,72.2v-1l1.3-1.3c3.2-3,4.6-4.6,4.6-6.5c0-1.3-0.6-2.4-2.5-2.4c-1.1,0-2.1,0.6-2.6,1l-0.5-1.2
			c0.9-0.7,2.1-1.3,3.5-1.3c2.7,0,3.8,1.8,3.8,3.6c0,2.3-1.7,4.1-4.3,6.6l-1,0.9v0h5.6v1.4H958.1z"/>
		<path d="M1032,61.4L1032,61.4l-2.2,1.2l-0.3-1.3l2.7-1.4h1.4v12.4h-1.6V61.4z"/>
		<path d="M1038.5,70.3c0.5,0.3,1.6,0.8,2.7,0.8c2.1,0,2.8-1.4,2.8-2.4c0-1.7-1.6-2.5-3.2-2.5h-0.9V65h0.9c1.2,0,2.8-0.6,2.8-2.1
			c0-1-0.6-1.9-2.2-1.9c-1,0-1.9,0.4-2.5,0.8l-0.4-1.2c0.6-0.5,1.9-1,3.2-1c2.4,0,3.5,1.4,3.5,2.9c0,1.3-0.8,2.4-2.3,2.9v0
			c1.5,0.3,2.8,1.4,2.8,3.2c0,2-1.5,3.7-4.5,3.7c-1.4,0-2.6-0.4-3.2-0.8L1038.5,70.3z"/>
		<path d="M1112,61.4L1112,61.4l-2.2,1.2l-0.3-1.3l2.7-1.4h1.4v12.4h-1.6V61.4z"/>
		<path d="M1123.3,72.2v-3.4h-5.7v-1.1l5.5-7.9h1.8v7.7h1.7v1.3h-1.7v3.4H1123.3z M1123.3,67.6v-4.1c0-0.6,0-1.3,0.1-1.9h-0.1
			c-0.4,0.7-0.7,1.3-1,1.8l-3,4.2v0H1123.3z"/>
	</g>
	<g>
		<path d="M7.2,92.2c-0.4,0.2-1.4,0.5-2.6,0.5C1.8,92.7,0,90.8,0,88c0-2.8,1.9-4.9,4.9-4.9c1,0,1.9,0.2,2.3,0.5l-0.4,1.3
			c-0.4-0.2-1-0.4-1.9-0.4c-2.1,0-3.3,1.6-3.3,3.5c0,2.1,1.4,3.4,3.2,3.4c1,0,1.6-0.2,2.1-0.5L7.2,92.2z"/>
		<path d="M9.2,85.8c0-1,0-1.7-0.1-2.5h1.5l0.1,1.5h0.1c0.5-0.9,1.4-1.7,2.9-1.7c1.3,0,2.2,0.8,2.6,1.8h0c0.3-0.5,0.6-0.9,1-1.2
			c0.6-0.4,1.2-0.6,2-0.6c1.2,0,3,0.8,3,4v5.4h-1.6v-5.2c0-1.8-0.6-2.8-2-2.8c-1,0-1.7,0.7-2,1.5c-0.1,0.2-0.1,0.5-0.1,0.8v5.7h-1.6
			V87c0-1.5-0.6-2.5-1.9-2.5c-1,0-1.8,0.8-2.1,1.7c-0.1,0.2-0.1,0.5-0.1,0.8v5.6H9.2V85.8z"/>
	</g>
</g>
</svg>
