<?xml version="1.0" encoding="UTF-8"?>
<svg id="Layer_1" data-name="Layer 1" xmlns="http://www.w3.org/2000/svg" version="1.1" viewBox="0 0 259.4 424.1">
  <defs>
    <style>
      .cls-1 {
        fill: #1d1d1d;
        stroke-width: 0px;
      }
    </style>
  </defs>
  <path class="cls-1" d="M129.7,258.4C58.4,258.4.5,200.4.5,129.1S58.4,0,129.7,0s129.2,58,129.2,129.2-58,129.2-129.2,129.2ZM129.7,5.6C61.6,5.6,6.1,61,6.1,129.1s55.4,123.6,123.6,123.6,123.6-55.4,123.6-123.6S197.8,5.6,129.7,5.6Z"/>
  <path class="cls-1" d="M40.3,42.6c-1.6,0-2.8-1.3-2.8-2.8h2.8v-2.8,2.8h2.8-2.8v2.8Z"/>
  <path class="cls-1" d="M71.2,309.6l-9-13.3-4.9,6v7.3h-3.3v-26.7h3.3v14.4l11.6-14.4h4.3l-8.8,10.7,10.8,16h-4Z"/>
  <path class="cls-1" d="M90.4,309.9c-5.9,0-9.7-3.6-9.7-12.2v-2.9c0-8.6,3.8-12.2,9.7-12.2s9.7,3.6,9.7,12.2v2.9c0,8.6-3.8,12.2-9.7,12.2ZM84.1,297.7c0,6.6,2.2,9.2,6.3,9.2s6.3-2.6,6.3-9.2v-2.9c0-6.6-2.2-9.2-6.3-9.2s-6.3,2.6-6.3,9.2v2.9Z"/>
  <path class="cls-1" d="M123.2,288.8c-1.4-1.9-3-3.2-6.3-3.2s-5.2,1.4-5.2,4.2,2.4,4.3,6.3,5c5.2.9,8.3,2.8,8.3,7.7s-2.3,7.5-9,7.5-7.5-1.5-9.5-4.4l2.8-1.9c1.7,2,3.3,3.2,6.8,3.2s5.7-2,5.7-4.3-1.3-4.2-6.3-5c-5-.8-8.3-3.2-8.3-7.8s2.5-7.2,8.6-7.2,6.9,1.4,8.8,4.4l-2.6,1.9h0Z"/>
  <path class="cls-1" d="M138.6,294.2h11.5v-11.4h3.3v26.7h-3.3v-12.3h-11.5v12.3h-3.3v-26.7h3.3v11.4Z"/>
  <path class="cls-1" d="M179.9,282.8v3h-12.8v8.4h11.6v3h-11.6v9.3h12.8v3h-16.1v-26.7h16.1Z"/>
  <path class="cls-1" d="M203.9,309.6l-5.6-11.3h-6.3v11.3h-3.3v-26.7h8.5c6.2,0,9.7,2.6,9.7,7.8s-1.9,6.1-5.3,7.1l6,11.9h-3.7ZM197.2,295.3c4.5,0,6.4-1.4,6.4-4.7s-1.9-4.7-6.4-4.7h-5.2v9.4h5.2Z"/>
  <path class="cls-1" d="M160.3,99.6c-.4-.1-.8-.2-1.2-.4-1.9-.6-3.8-1.6-4.7-3.9-.2-.4-.3-.6-.4-.6s-.3,0-.6.6c-.8,1.3-1.7,2.9-2.2,4.5-1.9,6.2-.4,9.2,5.7,11.6,3.7,1.4,4.9,4.2,3.5,8-.6,1.7-1.6,3.4-3,5.4l-1.2,1.7c-5.3,7.7-10.7,15.6-14.1,24.5-.4,1-1.8,1.6-2.7,1.7-2.1.1-4.2,0-6.2,0-.8,0-1.5,0-2.3,0h-10.8l.5-1.1c.2-.4.3-.7.4-1,.2-.6.4-1,.6-1.4,5.1-10.7,9.1-22.3,11.8-34.2.5-2.1,1.5-2.9,3.5-3.1,3.1-.2,4.6-1.9,4.5-5.1v-.2c0-.3,0-.6,0-.9-.6-3.1-2.2-5-5.1-5.7-.8-.2-1.9-.5-3.1-.7-2.5-.5-4.2-1.7-5-3.8-.2-.5-.4-.6-.5-.7,0,0-.3,0-.7.6-2.1,2.7-3,6-2.3,9,.7,2.9,2.6,5.3,5.5,6.8,2.1,1.1,2,2.6,1.6,3.8-.4,1.2-.8,2.5-1.1,3.7-.3,1-.6,2-.9,3-3.8,12.1-7.4,21-11.7,29.1-.4.7-1.4,1.8-2.4,1.8h0c-1,0-2-1-2.4-1.8-6.1-11.4-8-23.5-5.5-36.1.3-1.5,1.2-2.3,2.8-2.4,1.3,0,2.6-.3,4-.7.5-.2,1-.5,1.1-.8,1.1-2.5-.2-8-2.3-9.5-1.3-.9-3-1.4-4.6-1.9l-.7-.2c-1.9-.6-4.4-1.3-5.5-4.1-.1-.3-.3-.5-.4-.5,0,0-.3.1-.5.4-.7,1.2-1.3,2.5-1.8,3.8-2.1,6.4-.6,10.3,4.5,12.4,1.9.8,2.4,1.8,1.8,3.8-2.5,8.7-2.6,17.5-.2,27.1,1.8,7.4,3.5,14.8,4.8,20.4.2.9.6,1.2,1.6,1.2,4.5,0,9.5,0,14.7,0s10.5,0,15.8,0c1.3,0,1.7-.3,2-1.6,2.7-14.1,8.2-27.6,16.9-41.4,2-3.2,3.6-6.5,4.5-9.6.9-3.1.8-5.8-.3-7.8-1-1.8-2.9-3.1-5.5-3.9h0Z"/>
  <path class="cls-1" d="M200.4,99.7h-3.6c-2.8,0-5.5,0-8.3,0-2.1,0-5.2-.4-6.7-3.8-.2-.4-.4-.6-.5-.6-.1,0-.4.1-.6.5-.9,1.2-1.7,2.5-2.1,3.8-.9,2.9-1.6,6.9.3,9.5,1.4,1.9,4.1,2.7,8,2.6.9,0,1.7,0,2.6,0h5.1c3,0,6.1,0,9.1,0,6.1,0,10.5,3.4,12,9,1.8,6.5,2,13.1.7,19.6-1.8,8.7-6.4,12.4-15.6,12.4h-12.7c-2.8,0-5.7,0-8.5,0-.4,0-1,.2-1.2.4-.8,3.1-1.6,6.4-2.3,10.1,0,.1.3.4.4.5,2.3,0,4.5,0,6.8,0,6.3,0,12.9,0,19.2-.6,8.7-.8,14.2-5.6,15.8-13.7.9-4.6,1.5-9.5,1.8-15.1.4-9.2-.4-16.4-2.8-22.8-3-8.2-8.2-11.9-17-11.9h0Z"/>
  <path class="cls-1" d="M86.1,138c0-1.1,0-2.1,0-3.2,0-2.4,0-4.8,0-7.2v-2.9c-.2-4.4-.3-8.9-.8-13.3-.6-5.7-3.4-9.1-8.4-10.2-2.3-.5-4.6-.9-6.8-1-4.5-.1-9.1-.2-13.6-.2-2.1,0-4.2,0-6.4,0-2.4,0-5.3-.5-6.8-3.9-.1-.3-.3-.5-.4-.5h0c-.2,0-.4.2-.6.5-.9,1.4-1.8,3-2.3,4.6-.8,2.6-1.3,6.2.6,8.7,1.4,1.9,4.1,2.8,7.8,2.6,2.8,0,5.6-.1,8.4-.1s5.5,0,8.2,0h3.4c8.5,0,12.9,4.2,13.5,12.7.2,3.1.3,6.3.3,10.3,0,4.8,0,9.6,0,14.5s0,9.6,0,14.3c0,.4.2,1,.3,1.1.2,0,.7-.2,1.1-.4,1.8-1.3,2.7-3,2.6-5.2,0-5.1,0-10.3,0-15.3v-5.9h0Z"/>
</svg>