<?xml version="1.0" encoding="UTF-8"?>
<svg xmlns="http://www.w3.org/2000/svg" version="1.1" viewBox="0 0 378.5 666.8">
  <!-- Generator: Adobe Illustrator 28.7.1, SVG Export Plug-In . SVG Version: 1.2.0 Build 142)  -->
  <g>
    <g id="Layer_1">
      <path d="M340.7,366.2c-7.2-11-15.7-20.9-25.2-30.1.2-.4.3-.5.4-.7.5-.5.9-.9,1.4-1.4,41.3-42.5,59.2-93.1,52.1-152-4.4-36.8-19.7-69-44.4-96.5-26.9-29.9-60.3-48.9-99.8-56.7-24.4-4.8-48.8-4.5-73.1,1C69,48.5,11,121,10.9,206.2c0,86.5,0,173,0,259.5,0,8.1.5,16.2,1.5,24.2,4.8,36.9,19.8,69.3,44.7,96.9,26.9,29.7,60.1,48.6,99.5,56.4,24.3,4.8,48.5,4.4,72.7-.8,78.6-16.9,137.1-85.3,141.5-165.8,2.2-40-8.1-76.8-30.1-110.3ZM46,160.4c19.5-62.6,77.7-105.8,143.5-106.6,66-.8,125,41.6,145.8,104.3,20.4,61.7-1.8,124.1-42.1,159.7-60-42-143.1-42.7-204.3-.1-39-34-62.1-95.5-42.8-157.3ZM268.9,335.8c-49.9,30.6-112.8,27.1-155.8,0,21.6-12.9,44.8-20,69.8-21.3,30.6-1.6,59.2,5.5,86,21.3ZM66,336.5c-9.7,9.3-18.7,20.2-26.8,32.7v-65.1c8.7,10.5,17.6,21.4,26.8,32.4ZM304.7,566.6c-60.1,67.8-163.4,69.1-225,2.8-60.1-64.6-50.8-161.6,8.6-215,68.6,42.2,136.8,42.2,205.2,0,57.4,51,69.5,146.2,11.2,212Z"/>
      <path d="M343,599.2c-10,0-18.1,8.1-18.1,18.1s8.1,18.1,18.1,18.1,18.1-8.1,18.1-18.1-8.1-18.1-18.1-18.1ZM340.2,613.4c-.1.1-.3.2-.5.2h-3.2v9.4c0,.2,0,.4-.2.6-.1.1-.3.2-.6.2s-.4,0-.6-.2-.2-.3-.2-.6v-9.4h-3.2c-.2,0-.4,0-.5-.2-.1-.1-.2-.3-.2-.5s0-.4.2-.5.3-.2.5-.2h8c.2,0,.4,0,.5.2s.2.3.2.5,0,.4-.2.5ZM353.8,623c0,.2,0,.4-.2.6-.2.1-.3.2-.5.2s-.4,0-.6-.2-.2-.3-.2-.6v-7.4l-3.6,7.3c-.2.3-.4.4-.7.4s-.6-.2-.7-.5l-3.6-7.1v7.3c0,.2,0,.4-.2.6-.1.1-.3.2-.6.2s-.4,0-.6-.2c-.1-.1-.2-.3-.2-.6v-10.1c0-.2,0-.4.2-.6.1-.1.3-.2.6-.2s.5.1.7.4l4.4,8.8,4.3-8.8c.2-.3.4-.4.7-.4s.4,0,.6.2c.1.1.2.3.2.6v10.1Z"/>
    </g>
  </g>
</svg>