<?xml version="1.0" encoding="UTF-8"?><svg id="Layer_1" xmlns="http://www.w3.org/2000/svg" viewBox="0 0 634.55 128.22"><path d="M42.28,45.45c-12.36,0-23.95,5.86-31.32,15.76V4.02H3.23v80.48c0,21.53,17.52,39.05,39.05,39.05s39.05-17.52,39.05-39.05-17.52-39.05-39.05-39.05ZM73.61,84.49c0,17.27-14.05,31.32-31.32,31.32s-31.32-14.05-31.32-31.32,14.05-31.32,31.32-31.32,31.32,14.05,31.32,31.32Z" fill="#191919"/><path d="M487.54,61.21c-7.37-9.9-18.97-15.76-31.32-15.76-21.53,0-39.05,17.52-39.05,39.05s17.52,39.05,39.05,39.05,39.05-17.52,39.05-39.05V4.02h-7.72v57.19ZM487.54,84.49c0,17.27-14.05,31.32-31.32,31.32s-31.32-14.05-31.32-31.32,14.05-31.32,31.32-31.32,31.32,14.05,31.32,31.32Z" fill="#191919"/><rect x="127.9" y="4.02" width="7.72" height="118.69" fill="#191919"/><path d="M225.2,45.62c-20.72-1.98-39.3,12.61-42.31,33.21-1.53,10.43,1.14,20.81,7.52,29.23,6.38,8.42,15.64,13.81,26.09,15.16,1.7.22,3.39.33,5.07.33,14.8,0,28.49-8.4,35.08-21.97l.22-.45-6.95-3.38-.22.45c-5.89,12.12-18.84,19.09-32.21,17.36-14.24-1.85-25.29-13-27.05-27.2h69.94l.04-.46c.2-2.26.2-4.56,0-6.81-1.64-18.76-16.45-33.68-35.22-35.47ZM252.61,80.63h-62.17c0-.06.01-.12.02-.17,2.23-17.13,17.97-29.25,35.1-27.03,14.24,1.85,25.29,13,27.05,27.2Z" fill="#191919"/><path d="M381.77,81.45c-1.57-20.23-18.58-36.01-38.93-36.01s-37.36,15.78-38.93,36.01h-.12v41.25h7.72v-38.21c0-17.27,14.05-31.32,31.32-31.32s31.32,14.05,31.32,31.32v38.21h7.72v-40.75l-.09-.5h-.03Z" fill="#191919"/><path d="M608.46,82.14c0-.31-.02-.63-.03-.94l-.03-.63c-.01-.26-.03-.52-.06-.87l-.07-.86h-69.95l.05-.41c.03-.23.07-.46.1-.69l.07-.41c.04-.24.09-.49.14-.73l.07-.35c.05-.26.11-.51.17-.77l.07-.31c.07-.27.14-.53.21-.8l.08-.27c.08-.27.16-.54.25-.81l.08-.24c.09-.28.18-.55.28-.83l.08-.22c.1-.28.21-.55.31-.83l.09-.22c.11-.27.23-.55.35-.82l.09-.21c.12-.27.25-.54.37-.8l.1-.21c.13-.26.26-.52.4-.78l.12-.22c.14-.25.27-.5.42-.75l.14-.24c.14-.24.29-.48.43-.72l.16-.24c.15-.23.3-.46.45-.69l.17-.25c.15-.22.31-.44.47-.66l.19-.25c.16-.21.32-.43.48-.64l.2-.25c.17-.21.33-.41.51-.62l.21-.24c.17-.2.35-.4.53-.6l.21-.23c.18-.2.37-.4.56-.59l.21-.21c.2-.2.39-.4.59-.59l.2-.19c.21-.2.42-.4.64-.59l.18-.16c.23-.2.46-.4.69-.59l.16-.13c.25-.2.49-.4.74-.59l.13-.1c.26-.2.53-.4.8-.59l.1-.07c.28-.2.57-.39.94-.64.3-.19.6-.38.97-.61.31-.19.63-.37,1.02-.59.63-.35,1.29-.68,1.96-.99l.26-.12c8.35-3.78,17.93-3.7,26.28.23l.28.13,5.99-4.77.53-.48-.82-.48c-.17-.1-.35-.2-.6-.33l-.2-.11c-.24-.13-.47-.25-.71-.37l-.1-.05c-9.36-4.77-20.41-5.57-30.33-2.19-.28.1-.57.2-.94.33-.28.1-.55.21-.82.32l-.1.04c-.28.11-.56.23-.9.37l-1.16.52c-.77.36-1.54.75-2.34,1.19l-.15.08c-.37.2-.73.41-1.09.63l-.16.1c-.35.21-.7.43-1.09.69l-.13.08c-.33.22-.66.44-1.03.7l-.16.11c-.31.22-.62.45-.92.68l-.24.18c-.29.22-.57.45-.85.68l-.27.22c-.27.22-.53.45-.79.68l-.29.26c-.25.22-.49.45-.73.67l-.31.29c-.23.22-.46.45-.68.68l-.32.32c-.22.22-.43.45-.64.68l-.32.35c-.21.23-.41.46-.61.69l-.31.37c-.2.23-.39.47-.62.77l-.25.32c-.19.24-.37.49-.56.74l-.28.38c-.18.25-.36.51-.57.81l-.22.33c-.18.27-.35.54-.53.81l-.22.36c-.17.28-.34.56-.51.85l-.2.34c-.17.29-.33.59-.49.89l-.17.33c-.16.31-.32.61-.47.92l-.15.31c-.15.32-.3.63-.44.96l-.14.31c-.14.32-.28.65-.41.98l-.12.31c-.13.33-.26.66-.38.99l-.12.32c-.12.33-.23.66-.34.99l-.11.34c-.1.33-.2.65-.29.98l-.11.37c-.09.32-.17.64-.25.96l-.1.41c-.07.31-.14.62-.21.93l-.1.47c-.06.29-.11.59-.17.91l-.09.51c-.04.28-.08.56-.12.84l-.08.59c-.03.26-.06.53-.09.79-.02.21-.04.43-.06.64-.02.25-.04.5-.06.75-.01.23-.03.46-.04.69-.01.24-.02.48-.03.73,0,.24-.01.48-.01.72v.35s0,.5,0,.5h0c0,.66.03,1.31.07,1.94.02.35.05.69.08,1.04l.04.46h69.96c-.02.19-.05.38-.08.57-.02.18-.05.35-.08.53-.04.22-.07.44-.11.66l-.11.55c-.04.21-.08.42-.13.63-.04.19-.09.38-.13.57-.05.2-.1.4-.15.6-.05.19-.1.38-.16.58-.05.19-.11.39-.17.58-.06.19-.12.38-.18.58-.06.19-.12.38-.19.57-.07.19-.14.38-.21.57-.07.19-.14.38-.21.56-.07.19-.15.37-.22.55-.08.19-.16.37-.24.56-.08.18-.16.36-.24.53-.09.19-.17.38-.26.56-.08.17-.17.34-.26.51-.09.19-.19.38-.29.57-.09.16-.18.33-.26.48-.11.19-.21.38-.32.57l-.28.46c-.12.19-.24.38-.35.57l-.28.44c-.13.19-.25.38-.39.57l-.29.41c-.14.19-.27.38-.42.57l-.3.39c-.15.19-.29.37-.44.56l-.32.38c-.15.18-.31.36-.46.54l-.33.37c-.16.18-.32.35-.48.52l-.35.36c-.17.17-.33.34-.5.5l-.37.35c-.17.16-.34.32-.51.48l-.39.35c-.17.15-.35.3-.53.45l-.41.34c-.18.14-.36.29-.55.43-.14.11-.28.21-.42.32-.19.14-.38.28-.57.42l-.42.29c-.2.14-.41.28-.62.41l-.39.25c-.22.14-.45.28-.68.42l-.33.19c-.25.15-.51.29-.77.43l-.38.2c-.38.2-.75.38-1.13.56l-.26.12c-.29.13-.57.26-.86.38l-.51.21c-.21.08-.41.17-.62.25-.22.09-.45.17-.68.25l-.46.16c-.27.09-.54.18-.81.26l-.33.1c-.31.09-.62.18-.92.26l-.21.05c-.34.09-.68.17-1.02.25l.11.49s0,0,0,0l-.22-.47c-.37.08-.74.15-1.12.22-.78.14-1.58.25-2.37.33l-.28.02c-.33.03-.67.06-1.01.08l-.42.02c-.24.01-.47.02-.71.02h-.5c-.22,0-.45,0-.67,0h-.52c-.22-.02-.44-.03-.66-.04l-.52-.03c-.22-.02-.44-.03-.66-.05l-.49-.05c-.23-.02-.46-.05-.69-.08l-.45-.06c-.25-.04-.49-.07-.74-.11l-.38-.07c-.27-.05-.54-.1-.81-.16l-.3-.06c-.3-.06-.59-.13-.94-.22l-.16-.04c-.33-.08-.65-.17-.97-.27l-.14.48h0l.04-.51c-1.54-.45-3.07-1.04-4.56-1.74l-.28-.13-6.57,5.23.64.37c2.29,1.32,4.71,2.42,7.21,3.25l.12.04c.4.13.8.26,1.21.38l.24.07c.36.1.73.2,1.1.3l.37.09c.33.08.66.16.99.23l.48.1c.3.06.6.12.9.17l.58.1c.27.05.54.09.82.13.22.03.44.06.66.09.25.03.5.06.76.09.24.03.48.05.72.07.24.02.48.04.72.06.25.02.5.03.75.05.24.01.48.02.72.03.25,0,.49.01.74.02.17,0,.35,0,.53,0,.31,0,.62,0,.93,0,.26,0,.53-.02.79-.03l1.14-.06c.38-.03.76-.06,1.14-.1l.46-.05c.35-.04.7-.08,1.13-.14l.4-.06c.37-.06.74-.12,1.11-.19.22-.04.44-.09.67-.13.28-.06.57-.12.85-.18.31-.07.61-.14.92-.22.21-.05.42-.11.63-.17.37-.1.74-.21,1.11-.32l.48-.15c.41-.13.81-.26,1.22-.41l.42-.15c.4-.15.81-.3,1.21-.47l1.04-.44c.2-.09.39-.18.58-.27l.42-.2c.47-.22.93-.45,1.39-.69l.85-.45c.13-.07.26-.15.39-.22l.7-.41c.26-.16.52-.32.83-.51.17-.11.34-.22.51-.33.24-.15.47-.31.74-.5.18-.12.36-.25.54-.38.22-.16.44-.32.65-.48.2-.15.39-.29.58-.44.21-.16.42-.33.63-.5.19-.15.38-.3.56-.46.21-.17.41-.35.61-.52.18-.16.36-.31.54-.47.2-.18.4-.37.6-.56.17-.16.34-.32.5-.48.2-.19.39-.39.59-.59.16-.16.31-.32.47-.48.19-.21.38-.41.57-.62.15-.16.29-.32.44-.49.19-.22.37-.43.56-.65.14-.17.28-.33.42-.5.18-.22.36-.45.53-.67l.39-.51c.17-.23.34-.46.5-.69.13-.18.25-.36.38-.53.16-.23.32-.46.47-.7.12-.19.24-.37.36-.56.15-.23.29-.47.43-.7.12-.19.23-.39.35-.58.13-.23.27-.47.4-.7.11-.2.22-.41.33-.61.12-.23.24-.47.36-.7.11-.21.21-.43.32-.64.11-.23.22-.47.33-.7.1-.22.2-.44.3-.66.1-.23.2-.47.3-.7.09-.23.19-.46.28-.69.09-.24.18-.47.27-.71.09-.23.17-.47.25-.7.08-.24.16-.48.24-.72.08-.23.15-.47.22-.7.08-.25.15-.49.22-.74.07-.23.13-.47.19-.7.07-.26.13-.51.19-.77.05-.23.11-.46.16-.69.06-.27.11-.54.17-.81.04-.22.09-.44.13-.66.05-.28.1-.56.14-.85l.1-.64c.04-.29.08-.59.12-.89l.07-.61c.03-.31.06-.62.08-.93.02-.2.03-.39.04-.59.02-.32.04-.64.05-.96l.02-.58c0-.32,0-.64,0-.96v-.58ZM586.92,48.39h0s0,0,0,0ZM555.15,46.9s0,0,0,0h0s0,0,0,0ZM550.74,48.99s0,0,0,0h0s0,0,0,0ZM575.04,120.85h0s0,0,0,0Z" fill="#191919"/><polygon points="628.98 114.22 629.08 114.22 629.06 114.05 628.98 114.22" fill="#191919"/><polygon points="625.85 114.26 625.99 114.26 625.87 114.03 625.85 114.26" fill="#191919"/><path d="M625.83,109.3c-3.29,0-5.97,2.68-5.97,5.97s2.68,5.97,5.97,5.97,5.97-2.68,5.97-5.97-2.68-5.97-5.97-5.97ZM628.63,117.81l-.09-1.32-.67,1.34h-.87l-.62-1.27-.09,1.25h-1.72l.29-3.58h-.79v3.58h-1.71v-3.58h-1.26v-1.67h5.17l1.22,2.46,1.18-2.46h1.28l.43,5.25h-1.74Z" fill="#191919"/><path d="M625.83,108.3c-3.84,0-6.97,3.12-6.97,6.97s3.12,6.97,6.97,6.97,6.97-3.12,6.97-6.97-3.12-6.97-6.97-6.97ZM625.83,121.73c-3.57,0-6.47-2.89-6.47-6.47s2.89-6.47,6.47-6.47,6.47,2.89,6.47,6.47-2.89,6.47-6.47,6.47Z" fill="#191919"/><path d="M629.95,112.57h-1.28l-1.18,2.46-1.22-2.46h-5.17v1.67h1.26v3.58h1.71v-3.58h.79l-.29,3.58h1.72l.09-1.25.62,1.27h.87l.67-1.34.09,1.32h1.74l-.43-5.25ZM624.83,113.73h-1.26v3.58h-.71v-3.58h-1.26v-.67h3.24v.67ZM629.1,117.31l-.18-2.59h-.05l-1.31,2.62h-.25l-1.26-2.57h-.05l-.18,2.55h-.71l.34-4.25h.5l1.52,3.05h.05l1.47-3.05h.51l.34,4.25h-.73Z" fill="#191919"/></svg>