<?xml version="1.0" encoding="UTF-8"?><svg id="Layer_1" xmlns="http://www.w3.org/2000/svg" viewBox="0 0 269.77 469.88"><path d="M61.56,235.84c-8.45-7.79-15.66-16.91-21.3-27.02v54.04c5.64-10.11,12.85-19.23,21.3-27.02Z" fill="none" stroke="#1d1d1b" stroke-miterlimit="10" stroke-width="3.5"/><path d="M83.75,235.84c14.76,9.51,32.31,15.04,51.14,15.04s36.38-5.53,51.14-15.04c-14.76-9.51-32.31-15.04-51.14-15.04s-36.38,5.53-51.14,15.04Z" fill="none" stroke="#1d1d1b" stroke-miterlimit="10" stroke-width="3.5"/><path d="M72.27,227.14c17.69-12.58,39.3-19.99,62.61-19.99s44.92,7.41,62.61,19.99c19.62-17.35,32.01-42.7,32.01-70.89,0-52.18-42.45-94.63-94.63-94.63s-94.63,42.45-94.63,94.63c0,28.19,12.39,53.53,32.01,70.89Z" fill="none" stroke="#1d1d1b" stroke-miterlimit="10" stroke-width="3.5"/><path d="M197.5,244.54c-17.69,12.58-39.3,19.99-62.61,19.99s-44.92-7.41-62.61-19.99c-19.62,17.35-32.01,42.7-32.01,70.89,0,52.18,42.45,94.63,94.63,94.63s94.63-42.45,94.63-94.63c0-28.19-12.39-53.53-32.01-70.89Z" fill="none" stroke="#1d1d1b" stroke-miterlimit="10" stroke-width="3.5"/><path d="M224.8,395.94c-5.26,0-9.53,4.27-9.53,9.53s4.27,9.53,9.53,9.53,9.53-4.27,9.53-9.53-4.27-9.53-9.53-9.53ZM223.32,403.2h-1.86v5.28h-1.05v-5.28h-1.86v-.98h4.77v.98ZM229.61,408.48l-.27-3.82h-.07l-1.93,3.86h-.37l-1.86-3.79h-.07l-.27,3.76h-1.05l.51-6.26h.74l2.23,4.5h.07l2.17-4.5h.74l.51,6.26h-1.08Z"/><path d="M210.77,235.84c21.72-20.73,34.14-49.62,34.14-79.59,0-60.67-49.36-110.02-110.02-110.02S24.87,95.59,24.87,156.26v159.17c0,60.67,49.36,110.02,110.02,110.02s110.02-49.36,110.02-110.02c0-29.96-12.42-58.86-34.14-79.59ZM42.01,256.52v-41.35c4.8,7.55,10.5,14.48,17,20.68-6.5,6.2-12.2,13.13-17,20.68ZM182.72,235.84c-14.43,8.71-30.91,13.29-47.84,13.29s-33.41-4.59-47.84-13.29c14.43-8.71,30.91-13.29,47.84-13.29s33.41,4.59,47.84,13.29ZM197.37,224.91c-18.43-12.77-40-19.51-62.48-19.51s-44.05,6.74-62.48,19.51c-19.34-17.62-30.4-42.56-30.4-68.66,0-51.21,41.67-92.88,92.88-92.88s92.88,41.67,92.88,92.88c0,26.1-11.06,51.04-30.4,68.66ZM72.41,246.77c18.43,12.76,40,19.5,62.48,19.5s44.05-6.74,62.48-19.5c19.34,17.62,30.4,42.56,30.4,68.66,0,51.21-41.67,92.88-92.88,92.88s-92.88-41.67-92.88-92.88c0-26.1,11.06-51.04,30.4-68.66Z" fill="#1d1d1b"/></svg>