<?xml version="1.0" encoding="UTF-8"?>
<svg xmlns="http://www.w3.org/2000/svg" version="1.1" viewBox="0 0 260 260">
  <defs>
    <style>
      .cls-1 {
        fill: #fff;
      }
    </style>
  </defs>
  <!-- Generator: Adobe Illustrator 28.7.1, SVG Export Plug-In . SVG Version: 1.2.0 Build 142)  -->
  <g>
    <g id="Layer_1">
      <g>
        <path class="cls-1" d="M108.4,172.4h-4.6v-7c0-3.5,2-16.3,27.7-32.8,0,0,8.1-5.2,14.7-11.7,3.5-3.5,5.6-8.2,5.6-13.1s-2-9.6-5.6-13.1c-6.6-6.4-14.6-11.3-14.6-11.3-25.8-16.4-27.8-29.3-27.8-32.8v-7h4.6v7c0,2.1,1.2,13.4,25.5,28.9.3.2,8.5,5.2,15.5,11.9,4.5,4.3,6.9,10.2,6.9,16.3s-2.4,12-6.9,16.4c-6.9,6.8-15.1,12.1-15.5,12.2-24.3,15.5-25.5,26.8-25.5,28.9v7h0s0,.2,0,.2Z"/>
        <path class="cls-1" d="M156.2,172.4h-4.6v-7c0-2.1-1.2-13.4-25.5-28.9-.3-.2-8.5-5.4-15.5-12.2-4.4-4.4-6.9-10.2-6.9-16.4s2.5-12,6.9-16.3c7-6.8,15.1-11.7,15.5-12,24.2-15.5,25.5-26.7,25.5-28.8v-7h4.6v7c0,3.5-2,16.3-27.7,32.8-.2,0-8.1,4.9-14.7,11.3-3.5,3.5-5.6,8.1-5.6,13.1s1.9,9.6,5.6,13.1c6.6,6.5,14.6,11.6,14.7,11.7,25.7,16.4,27.7,29.2,27.7,32.8v7h0v-.2Z"/>
        <rect class="cls-1" x="106" y="48.2" width="35.7" height="4.6"/>
        <rect class="cls-1" x="135.6" y="61.7" width="12.2" height="4.6"/>
        <rect class="cls-1" x="112.2" y="61.7" width="9.8" height="4.6"/>
        <rect class="cls-1" x="120.7" y="163.1" width="33.2" height="4.6"/>
        <rect class="cls-1" x="140.9" y="149.5" width="6.9" height="4.6"/>
        <rect class="cls-1" x="112.2" y="149.5" width="16.7" height="4.6"/>
        <rect class="cls-1" x="112.3" y="90.7" width="21" height="4.6"/>
        <rect class="cls-1" x="125.1" y="120.6" width="22.3" height="4.6"/>
        <rect class="cls-1" x="138.5" y="105.7" width="15.5" height="4.6"/>
        <rect class="cls-1" x="106" y="105.7" width="21.2" height="4.6"/>
      </g>
      <path class="cls-1" d="M129.7,259.4C58.4,259.4.5,201.4.5,130.1S58.4,1,129.7,1s129.2,58,129.2,129.2-58,129.2-129.2,129.2ZM129.7,6.6C61.6,6.6,6.1,62,6.1,130.1s55.4,123.6,123.6,123.6,123.6-55.4,123.6-123.6S197.8,6.6,129.7,6.6Z"/>
      <path class="cls-1" d="M40.3,43.6c-1.6,0-2.8-1.3-2.8-2.8h2.8v-2.8,2.8h2.8-2.8v2.8Z"/>
      <g>
        <path class="cls-1" d="M50.4,167.4l-1.7.5c-9.3,3-14.6,0-16.6-6.4-2.1-6.4.5-11.7,9.8-14.7l3.2-1c9.3-3,14.5-.2,16.6,6.2,1.8,5.6,0,10.4-6,13.4l-1.1-3.5c4-2.3,5.1-5.1,3.9-8.8-1.4-4.4-5-6-12.1-3.7l-3.2,1c-7.2,2.3-9.1,5.6-7.7,10.1,1.3,4.1,4.5,5.9,10.6,4.3l-2.2-6.9,3.3-1.1,3.4,10.5h-.2Z"/>
        <path class="cls-1" d="M61.7,190.3l20.2-5.8,2.5,2.8-22.7,20.1-2.5-2.8,16.7-14.8-16.8,5-2.2-2.5,7-15.9-16.6,14.7-2.5-2.8,22.7-20.1,2.5,2.8-8.1,19.4h-.2Z"/>
        <path class="cls-1" d="M86.4,223.1c-6.1-2.8-8.3-8.3-4.1-17.2l1.4-3c4.1-8.9,9.7-10.8,15.8-7.9,6.1,2.8,8.3,8.3,4.1,17.2l-1.4,3c-4.1,8.9-9.7,10.8-15.8,7.9ZM85.7,207.5c-3.2,6.8-2.1,10.5,2.1,12.5s7.8.4,10.9-6.4l1.4-3c3.2-6.8,2.1-10.5-2.1-12.5s-7.8-.4-10.9,6.4l-1.4,3Z"/>
        <path class="cls-1" d="M147.3,200.5l.4,3.4-14.4,1.5,1.1,10.2,13.1-1.4.4,3.4-13.1,1.4,1.4,13.2-3.8.4-3.1-30.2,18.2-1.9h-.2Z"/>
        <path class="cls-1" d="M181.6,218.5l-11.3-8.7-6.4,3.1,5.6,11.5-3.4,1.7-13.3-27.3,8.7-4.2c6.3-3.1,11.2-2.2,13.8,3.1,1.9,3.8,1.2,7.2-1.8,9.9l12,9.1-3.8,1.9h-.1ZM167.6,207.3c4.6-2.3,5.8-4.6,4.2-8-1.7-3.4-4.3-3.9-8.9-1.6l-5.3,2.6,4.7,9.6,5.3-2.6Z"/>
        <path class="cls-1" d="M188.7,172.2l2.5,2.4-10,10.5,6.9,6.5,9.1-9.6,2.5,2.4-9.1,9.6,7.7,7.3,10-10.5,2.5,2.4-12.6,13.3-22-20.9,12.6-13.3h0Z"/>
        <path class="cls-1" d="M199.4,150.2l3.1,1.4-5.9,13.3,8.7,3.9,5.4-12,3.1,1.4-5.4,12,9.6,4.3,5.9-13.3,3.1,1.4-7.5,16.7-27.7-12.4,7.5-16.7h0Z"/>
      </g>
    </g>
  </g>
</svg>