<?xml version="1.0" encoding="UTF-8"?>
<svg xmlns="http://www.w3.org/2000/svg" version="1.1" viewBox="0 0 259.4 259.3">
  <defs>
    <style>
      .cls-1 {
        fill: #fff;
      }
    </style>
  </defs>
  <!-- Generator: Adobe Illustrator 28.7.1, SVG Export Plug-In . SVG Version: 1.2.0 Build 142)  -->
  <g>
    <g id="Layer_1">
      <path class="cls-1" d="M130.7,259.3h-3.6s-.2-.1-.3-.1h-3.3c-2.2-.2-4.5-.3-6.7-.5-.8,0-1.6-.1-2.3-.2-1-.1-2.1-.3-3.1-.4-.8-.1-1.5-.2-2.3-.4-2-.3-3.9-.7-5.9-1.1-1.3-.3-2.6-.6-3.9-.9-.9-.2-1.9-.3-2.8-.6-1.4-.4-2.8-.9-4.2-1.3-.8-.2-1.4-.6-2.2-.7-.8,0-1.5-.4-2.2-.7-3.7-1.4-7.4-2.8-11-4.4-.8-.3-1.6-.6-2.4-1-.2-.1-.5-.3-.7-.4-.8-.4-1.5-.7-2.3-1.1-1-.5-2.1-1.1-3.1-1.7-2-1.1-4-2.2-6-3.4-3-1.9-5.9-3.8-8.8-5.9-3.1-2.1-6-4.5-8.8-7-.7-.6-1.4-1.1-2-1.7-1-.9-2-1.9-3-2.9-.8-.8-1.7-1.6-2.5-2.4-.9-.9-1.8-1.9-2.7-2.8-.9-1-1.9-1.9-2.7-2.9-4.1-4.9-8.1-9.9-11.4-15.3-1.8-2.9-3.6-5.8-5.2-8.8-1.2-2.1-2.2-4.2-3.2-6.4-1.9-4-3.6-8.2-5-12.4-1.1-3.2-2.1-6.5-3-9.8-.8-2.8-1.3-5.6-1.9-8.4-.8-4.1-1.4-8.2-1.8-12.3-.2-1.8-.2-3.5-.4-5.3v-.8C0,133.9,0,132.4-.1,131v-.2c0-2.9,0-5.8.2-8.7.2-3.2.6-6.4.9-9.6.6-4.8,1.5-9.6,2.7-14.2,3.6-14.6,9.6-28.1,17.9-40.6,1-1.5,1.9-2.9,3-4.4.8-1.1,1.7-2.2,2.6-3.3.8-1,1.5-2.1,2.3-3.1,1.2-1.4,2.5-2.8,3.8-4.2.7-.8,1.4-1.6,2.1-2.3.3-.3.6-.5.9-.8,1-1,1.9-2,2.9-3s.9-.7,1.3-1.2c1.2-1.5,2.7-2.5,4.1-3.8.5-.5,1.1-.9,1.7-1.3.4-.4.8-.8,1.3-1.1,1-.8,2-1.5,3-2.3.9-.7,1.9-1.5,2.8-2.2,1-.7,2.1-1.4,3.1-2.1s2-1.4,3-2.1c1.1-.7,2.2-1.3,3.3-2,1-.6,1.9-1.2,2.9-1.8,1.1-.6,2.2-1.2,3.3-1.7.7-.4,1.4-.8,2.2-1.2,1.3-.6,2.5-1.3,3.8-1.9,2.5-1.1,4.9-2.3,7.5-3.2,1-.3,1.9-.8,2.9-1.2,2-.7,3.9-1.3,5.9-1.9,1.8-.6,3.5-1.1,5.3-1.6,1.1-.3,2.2-.5,3.3-.8,1.8-.4,3.6-.9,5.5-1.2,3-.5,6-.9,9-1.2,1.1-.1,2.2-.2,3.3-.3.4,0,.9,0,1.3-.2.4,0,.7,0,1.1,0h.8c.5,0,1,0,1.4-.1h1.1c.7,0,1.4,0,2.1-.1h10.2C136.4,0,137.1,0,137.8.1h1.1c.4,0,.7,0,1.1.1,1.7.2,3.4.3,5.1.5,1.8.2,3.5.4,5.3.7s3.6.6,5.4,1c2.6.6,5.2,1.2,7.7,1.8,2.9.7,5.8,1.7,8.7,2.7.7.2,1.4.6,2.2.8,1.1.3,2,.9,3,1.2.7.2,1.4.5,2,.8.9.4,1.8.7,2.7,1,.7.3,1.4.7,2,1,2.7,1.4,5.4,2.7,8.1,4.1,2.2,1.1,4.2,2.4,6.3,3.7,1.4.8,2.7,1.7,4,2.6s2.6,1.8,3.8,2.7c2.4,1.7,4.6,3.5,6.9,5.4,1.1.9,2.1,1.8,3.2,2.7,1,.9,1.9,1.8,2.9,2.7s2,1.9,2.9,2.9c1,1,1.9,1.9,2.8,2.9,2,2.2,3.9,4.3,5.7,6.7,1.4,1.8,2.8,3.5,4.1,5.3,3.7,5.1,7,10.4,9.9,16,.7,1.3,1.3,2.5,1.9,3.8.6,1.2,1.1,2.5,1.7,3.8.4.9.9,1.8,1.3,2.7.5,1.2.9,2.5,1.4,3.8.3.8.7,1.5,1,2.3.3.9.6,1.8.9,2.7.3,1,.7,2,1,2.9.3,1.1.6,2.3,1,3.4.1.4.3.8.4,1.1.2,1,.6,2,.8,3,0,.4.1.8.2,1.2.2.9.5,1.9.7,2.8.1.6.2,1.2.3,1.9,0,.4.2.8.3,1.3.1.6.2,1.1.3,1.7.2.9.3,1.9.5,2.8.3,2.5.6,5.1.9,7.6.4,4.5.5,9,.5,13.6v.2c0,2.3-.2,4.7-.3,7v.2c-.2,1.6-.3,3.1-.5,4.7,0,.4-.2.8-.3,1.2v.5c0,.6-.2,1.3-.3,1.9,0,.5-.1,1-.3,1.6-.2.9,0,1.8-.4,2.6-.2.3,0,.7-.2,1-.2.7-.2,1.4-.3,2.1-.1.8-.3,1.7-.5,2.5-.1.5-.3,1-.4,1.5v.8c-.1.6-.3,1.1-.5,1.7-.1.5-.2.9-.3,1.4-.4,1-.5,2.1-.9,3.2-.3.8-.5,1.7-.8,2.5-.4,1.2-.8,2.4-1.2,3.6-.2.5-.4,1-.6,1.6-.2.5-.5,1-.6,1.5-.3,1.6-1.2,3-1.8,4.6-.5,1.6-1.4,3.1-2.1,4.6-.3.6-.6,1.3-.9,2-.6,1.2-1.2,2.5-1.9,3.7-1.5,2.7-3.1,5.3-4.6,7.9-.4.7-.8,1.4-1.2,2-.8,1.3-1.7,2.5-2.6,3.8-5.2,7.5-11.2,14.3-17.9,20.6-8.3,7.7-17.4,14.3-27.4,19.6-2.3,1.2-4.5,2.4-6.9,3.5-4,1.8-8,3.4-12.1,4.8-6.4,2.2-12.9,3.9-19.5,5-3.1.5-6.2.9-9.3,1.2-2.5.3-4.9.4-7.4.6h-4.3s-.2,0-.3.1h0l-.5.2ZM128.2,253.6h2.1c.3,0,.6,0,.9-.1h2.2c.7,0,1.5,0,2.2-.1h1.1c.5,0,1,0,1.4-.1.5,0,.9,0,1.4-.1,4-.3,7.9-.8,11.9-1.5,6.7-1.2,13.2-2.9,19.5-5.2,3.3-1.2,6.6-2.5,9.8-3.9,1.7-.8,3.4-1.7,5.1-2.5,1.2-.6,2.5-1.2,3.6-1.8,2.2-1.3,4.4-2.6,6.6-3.9.6-.3,1.1-.8,1.7-1.1,1.5-1,3-2,4.5-3.1,1-.7,1.9-1.3,2.8-2.1,1.3-1,2.6-2.1,3.9-3.2.6-.5,1.1-1,1.7-1.5.8-.7,1.6-1.3,2.4-2,.8-.7,1.5-1.4,2.2-2.1,1-1,2.1-2,3.1-3.1.5-.5.9-1,1.4-1.6.8-.8,1.6-1.7,2.4-2.5h0c.5-.6,1-1.1,1.4-1.7,1.1-1.3,2.2-2.7,3.3-4.1.6-.8,1.2-1.6,1.9-2.4.7-1,1.5-1.9,2.2-2.9s1.4-2,2-3c.8-1.2,1.6-2.4,2.3-3.7.7-1.2,1.4-2.4,2.2-3.6.2-.4.5-.8.7-1.2.6-1,1.1-2.1,1.7-3.1.8-1.5,1.5-3.1,2.3-4.6.4-.8.7-1.7,1.1-2.5.3-.6.5-1.2.7-1.9.5-1.2,1-2.3,1.4-3.5.3-.8.6-1.6.9-2.5.5-1.3.9-2.6,1.4-3.9.3-1,.6-2.1.9-3.1.3-.9.6-1.7.8-2.6.3-1.1.6-2.3.8-3.4.2-.8.5-1.7.6-2.5.2-1.3.6-2.5.7-3.9v-.3c0-.4.2-.8.3-1.3v-.5c.1-.7.3-1.3.4-2,0-.5.1-1,.2-1.5.3-2.2.6-4.4.8-6.7.2-1.7.3-3.4.3-5.1v-9c0-1,0-1.9-.1-2.9v-.2c-.1-3.1-.4-6.1-.9-9.2-.3-1.9-.5-3.8-.9-5.7-.4-2.2-.9-4.4-1.4-6.6-.1-.6-.2-1.2-.4-1.8-.7-2.4-1.4-4.7-2.1-7.1-.3-.9-.5-1.8-.8-2.6-.7-1.8-1.3-3.7-2-5.5-1-2.6-2.1-5.3-3.5-7.8-1.2-2.1-2.1-4.4-3.3-6.5-1.9-3.6-4.1-7.1-6.5-10.4-1.6-2.2-3.2-4.4-4.8-6.6-1.3-1.6-2.7-3.1-4-4.6-1.4-1.5-2.7-3.1-4.2-4.6-2.6-2.7-5.4-5.3-8.3-7.8-1.8-1.5-3.5-3-5.4-4.4-2.6-2-5.2-3.9-7.9-5.6-2.3-1.4-4.6-2.7-6.8-4.1-1.6-1-3.2-1.7-4.9-2.5-.5-.2-.9-.5-1.4-.8-.8-.4-1.6-.8-2.5-1.2-3.3-1.5-6.6-2.9-10.1-4.1-1.3-.5-2.7-1-4-1.4s-2.5-.9-3.8-1.2c-1.6-.4-3.2-.8-4.8-1.3-.7-.2-1.4-.1-2-.6-1,0-1.8-.3-2.8-.5-1.7-.3-3.4-.6-5.1-.9-.9,0-1.7-.2-2.6-.4-1.2-.2-2.5-.3-3.7-.5l-1.6-.2h-.1c-.6,0-1.3,0-1.9-.2-1,0-2.1,0-3.1-.2h-1.6c-3,0-5.9-.2-8.9-.2s-.2,0-.4,0c-1.2,0-2.5,0-3.7.2-.5,0-1,0-1.4,0-1.5.2-2.9.3-4.4.5-1.7.2-3.3.4-5,.6-1.2.2-2.5.3-3.7.6-1.9.4-3.7.8-5.6,1.3s-3.7.9-5.5,1.5c-2,.6-3.9,1.2-5.9,1.8-2.3.8-4.7,1.6-6.9,2.6-1.5.7-3.1,1.3-4.6,2-2.5,1.2-5.1,2.5-7.6,3.8-.7.4-1.4.8-2.1,1.2-1,.6-2,1.1-3,1.7-1.2.7-2.4,1.5-3.6,2.3-.2.1-.4.3-.6.4-.9.6-1.7,1.3-2.6,1.9-1.3.8-2.5,1.6-3.6,2.6-.3.2-.6.4-.8.6-.8.6-1.6,1.3-2.4,1.9-.5.5-1,1-1.6,1.4-.6.5-1.2.9-1.7,1.4-.7.6-1.3,1.3-2,1.9-.7.6-1.4,1.2-2,1.9-1,1.1-2.2,2.1-3.2,3.2-.8.8-1.6,1.5-2.3,2.3-.6.8-1.4,1.5-2.1,2.2-.9,1-1.8,2.1-2.7,3.2-1.2,1.4-2.3,2.9-3.4,4.4-1.2,1.6-2.3,3.2-3.5,4.8-.2.2-.3.5-.5.8-.7,1.1-1.4,2.1-2.1,3.2-.8,1.4-1.8,2.7-2.5,4.2-.5.9-1,1.7-1.5,2.6-.4.7-.9,1.4-1.2,2.2-.6,1.2-1.1,2.4-1.7,3.7-.4.9-.8,1.7-1.2,2.6-1.3,3.1-2.5,6.1-3.7,9.2-.7,1.7-1.2,3.4-1.8,5.1-.3,1.1-.6,2.2-.9,3.3-.4,1.5-.8,2.9-1.1,4.4-.2,1-.5,2-.7,3-.1.6-.3,1.1-.4,1.7s0,1.2-.2,1.8c-.3,1.5-.6,3.1-.9,4.6,0,.8,0,1.6-.2,2.3-.2,1.9-.4,3.9-.5,5.8h0c0,1.6-.2,3.1-.2,4.5-.2,4.9,0,9.7.3,14.6,0,.9,0,1.8.2,2.6v1.1c0,.4.2.7.2,1,.2,1.1.3,2.2.5,3.3,0,.9.2,1.9.5,2.8.2.4,0,1,0,1.4.3.5,0,.9.2,1.4.2.5.2,1.1.3,1.7.2,1.1.4,2.2.7,3.4.2,1,.5,2,.8,3.1.2.9.4,1.7.7,2.6.7,2.1,1.3,4.2,2,6.3.9,2.4,1.7,4.8,2.8,7.2.7,1.5,1.2,2.9,1.9,4.4,1,2.1,2,4.1,3.1,6.1,1.5,2.9,3.1,5.6,4.9,8.3,1.9,2.9,3.9,5.8,6,8.6,3.3,4.3,6.8,8.4,10.7,12.2,1.3,1.3,2.7,2.6,4.1,3.9,5.1,4.7,10.7,9,16.5,12.8,8.9,5.8,18.4,10.3,28.5,13.6,3.5,1.2,7.1,2.2,10.7,3,3.7.9,7.4,1.5,11.2,2.1,2.2.3,4.5.5,6.8.7.5,0,1,0,1.4.1h1.1c.7,0,1.5,0,2.2.1h2.2c.5,0,1,0,1.6.1h0v.3Z"/>
      <path class="cls-1" d="M132.4,0h-5.5c1.7-.1,3.4-.1,5-.1h.5Z"/>
      <path class="cls-1" d="M130.7,0c-.7,0-1.4,0-2.1.1.7,0,1.4,0,2.1-.1Z"/>
      <path class="cls-1" d="M130.7.2c-.7,0-1.4,0-2.1-.1.7,0,1.4,0,2.1.1Z"/>
      <path class="cls-1" d="M130.4.2c-.5,0-1,0-1.4.1.5,0,1,0,1.4-.1Z"/>
      <path class="cls-1" d="M130.3.4c-.4,0-.7,0-1.1,0,.4,0,.7,0,1.1,0Z"/>
      <path class="cls-1" d="M130.3.3c-.4,0-.7,0-1.1,0,.4,0,.7,0,1.1,0Z"/>
      <path class="cls-1" d="M130.2-.1h0c-.3.1-.6.1-.9.1.3,0,.6,0,1-.1h-.1Z"/>
      <path class="cls-1" d="M129.7,132.4v-.2.2Z"/>
      <path class="cls-1" d="M129.7,139.6v-.2.2Z"/>
      <path class="cls-1" d="M134.3,6h-9.3c0,0,.2,0,.4,0h8.9Z"/>
      <path class="cls-1" d="M130.6,6.4c-.6,0-1.3,0-1.9-.2.6,0,1.3,0,1.9.2Z"/>
      <path class="cls-1" d="M130.5,6.5c-.5,0-1.1,0-1.6-.2.5,0,1.1,0,1.6.2Z"/>
      <path class="cls-1" d="M128.9,6h0c.5,0,1.1,0,1.6,0h-1.6Z"/>
      <path class="cls-1" d="M130.4,6.1c-.5,0-1,0-1.4,0,.5,0,1,0,1.4,0Z"/>
      <path class="cls-1" d="M129.7,125.8v-.2.2Z"/>
      <path class="cls-1" d="M129.7,122.7v-.2.2Z"/>
      <path class="cls-1" d="M130.5,53.3h-1.6c.5-.2,1.1-.3,1.6,0Z"/>
      <path class="cls-1" d="M69.3,180l3.1,2.7-7.6,17.8c-.8,1.9-2.7,5.5-2.7,5.5h0s3.3-2.3,5.1-3.3l16.6-9.9,2.9,2.6-25.4,14.4-3.1-2.7,11-27h0Z"/>
      <path class="cls-1" d="M93.1,198.7l18.3,6.9-1.2,3.1-14.8-5.6-2.9,7.8,13.4,5.1-1.1,2.9-13.4-5.1-3.3,8.7,15.2,5.7-1.2,3.2-18.7-7.1,9.8-25.7h0Z"/>
      <path class="cls-1" d="M140.1,230.6h-.1c-1.9,3-4.8,4.6-8.4,4.6s-7.1-1.4-9.4-3.8c-2.3-2.5-3.7-6-3.8-10.2,0-4.1,1.1-7.8,3.3-10.5,2.2-2.6,5.4-4.1,9.7-4.2,6.5-.1,10.3,3.3,11.4,8.4h-3.9c-.9-3-3.2-5.2-7.4-5.1-6.4.1-9.3,5-9.2,11.3,0,6.5,4,10.9,9.4,10.8,5.5,0,8-3.8,8-8.2v-.6h-8c0,.1,0-3.1,0-3.1l11.7-.2.2,14.6h-2.4l-1.1-3.8h0Z"/>
      <path class="cls-1" d="M158.4,201.8l3.9-1.7,20.1,21.4-3.8,1.6-5.7-6.3-10,4.2.6,8.5-3.6,1.5-1.5-29.3h0ZM162.7,217.9l8.1-3.4-5.4-6.1c-1.9-2.1-3.8-4.7-3.8-4.7h-.1s.5,3.4.7,6.1l.5,8.1h0Z"/>
      <path class="cls-1" d="M177.2,192l2.8-2.8,20.2,4.3c2.4.5,6,1.7,6,1.7h0s-2.7-2.4-4.3-4.1l-11.9-11.9,2.5-2.5,19.4,19.5-2.8,2.8-20.1-4.3c-2.4-.5-6.1-1.6-6.1-1.6h0s2.7,2.4,4.2,4l11.9,12-2.5,2.5-19.4-19.5h.1Z"/>
      <path class="cls-1" d="M190.8,59.3c.3.3.3.6.2,1-.5,2-1,4.1-1.5,6.1-.1.5-.4,1-.5,1.6-.2.9-.2,1.8-.4,2.6-.3,1.4-.3,2.8-.5,4.1-.2,1.4-.3,2.7-.5,4.1-.4,3.1-.9,6.3-1.8,9.3-.4,1.4-1.2,2.7-2.1,4-.6.8-1.2,1.6-1.9,2.3-1.5,1.5-2.8,3.1-4.5,4.4-3,2.3-6.2,4-9.7,5.3-2,.7-4.1,1.3-6.3,1.7-1.8.4-3.6.7-5.4,1.1-.6,0-1.1.3-1.7.5-.2,0-.4.4-.6.6-1.6,2-2.9,4.1-3.9,6.5-1.6,3.8-3.1,7.6-4.6,11.3-1.2,3-2.2,6.2-3.1,9.3-.7,2.3-1.4,4.5-2,6.8-.3,1-.5,2-.8,3.1-.2.9-.5,1.7-.7,2.6-.2.8-.4,1.6-.5,2.4-.3,1.3-.6,2.6-.8,3.9-.4,1.8-.8,3.6-1.2,5.4-.3,1.6-.6,3.1-.9,4.7-.2,1.3-.4,2.6-.7,4-.3,1.6-.5,3.2-.8,4.8s-.7,3.2-1,4.8-.5,3.3-.8,4.9c-.1.9-.3,1.7-.5,2.6-.2.8-.5,1.7-.9,2.4-.5.7-1.1,1.1-1.9,1.1h-7.3c-1,0-1.8-.4-2.1-1.4-.2-.5-.3-1-.4-1.5-.2-1.1-.4-2.2-.7-3.3-.2-1.1-.5-2.2-.7-3.3,0-.6-.2-1.2-.3-1.8-.2-1.1-.5-2.3-.7-3.4-.2-.8-.4-1.5-.5-2.3-.2-.7-.3-1.5-.4-2.2,0-.6-.4-1.2-.5-1.8-.2-.7-.2-1.4-.4-2.1,0-.7-.3-1.4-.5-2-.5-2.1-1-4.2-1.5-6.2-.3-1.4-.7-2.9-1.1-4.3,0-.4,0-.9-.2-1.3-.3-1-.6-2.1-.9-3.1s-.4-2-.7-3c-.2-.8-.5-1.5-.7-2.2-.3-.9-.5-1.8-.7-2.8-.2-.8-.5-1.6-.7-2.5,0-.3,0-.7,0-1,0-.5-.3-1-.5-1.4-.4-1.3-.7-2.6-1-3.9-.4-1.3-.8-2.5-1.2-3.8-.4-1.1-.7-2.3-1.1-3.5-.4-1.3-.8-2.7-1.3-4-.4-1.1-.8-2.1-1.1-3.1-.3-.8-.4-1.6-.7-2.4-.3-.8-.6-1.6-.9-2.4-.2-.4-.2-.8-.4-1.2-.2-.6-.5-1.3-.8-1.9-.7-1.7-1.3-3.4-2-5.1-.3-.8-.7-1.5-1.1-2.3-.2-.5-.4-1.1-.6-1.6-.5-1.1-1.1-2.2-1.7-3.3-.3-.6-.5-1.3-.9-1.9-.4-.8-.9-1.5-1.3-2.2-.9-1.6-1.8-3.2-2.7-4.8-.5-.9-1.1-1.7-1.7-2.6-1.2-1.8-2.2-3.6-3.5-5.3-2.5-3.5-5.1-6.9-7.8-10.3-.8-1-1.7-1.9-2.5-2.8-.5-.6-.9-1.2-1.4-1.7-.6-.7-1.2-1.3-1.7-2-.4-.5-.9-1-.7-1.7.6-.3,1.1,0,1.7,0,1.8.5,3.4,1.2,4.9,2.2,1.6,1.1,3.3,2.1,4.9,3.2.9.6,1.7,1.4,2.5,2.1,1.5,1.4,3,2.7,4.4,4.2,1,1,1.8,2,2.8,3,2.1,2.2,4,4.6,5.9,7,2.8,3.6,5.6,7.2,7.7,11.3,1.8,3.3,3.4,6.7,4.7,10.3.6,1.5,1.2,3,1.8,4.5,1.4,3.7,2.7,7.5,3.7,11.4.7,2.7,1.5,5.3,2.2,8,2.5,9.3,5,18.6,7.5,27.9.2.9.6,1.7,1,2.5,0,0,0,.1.2.3,0-.2.2-.3.3-.4,1-2.7,1.9-5.3,2.9-8,.4-1.2.8-2.5,1.2-3.8.6-1.8,1.2-3.7,1.8-5.5.8-2.5,1.7-5,2.5-7.4.4-1.1.7-2.2,1.1-3.2,2.7-7.3,5.4-14.7,8.6-21.8,1-2.2,1.9-4.3,3.1-6.4,1.3-2.3,2.6-4.6,4-6.8.8-1.3,1.7-2.6,2.6-3.9,1.7-2.4,3.4-4.9,5.1-7.2.7-.9,1.5-1.8,2.3-2.7,1.2-1.4,2.4-2.7,3.6-4.1,0,0,.1-.3.2-.5-.8-.2-1.6,0-2.3.2-1.4.5-2.7,1.1-4,1.8-2,1.1-3.6,2.4-5.2,4-1.9,1.9-3.8,3.8-5.4,5.9-1.3,1.7-2.6,3.5-3.7,5.2-.8,1.2-1.4,2.4-2.1,3.7-.3.6-.5,1.2-.8,1.8-.2.4-.5.7-.7,1-.5,0-.7-.4-.8-.8-.1-1.2-.3-2.4-.3-3.6-.2-4.8.8-9.5,2.7-13.9,1.4-3.1,3.1-6,5.3-8.7.7-.9,1.4-1.8,2.2-2.5,1.7-1.5,3.5-3,5.5-4.1,2.3-1.4,4.9-2.2,7.5-2.9,4.2-1,8.4-1.8,12.6-2.8,2.7-.6,5.3-1.1,8-1.7,1.1-.2,2.1-.5,3.2-.8,1.1-.2,2.1-.5,3.2-.7h1.9Z"/>
    </g>
  </g>
</svg>