<?xml version="1.0" encoding="utf-8"?>
<!-- Generator: Adobe Illustrator 27.3.1, SVG Export Plug-In . SVG Version: 6.00 Build 0)  -->
<svg version="1.1" id="Layer_1" xmlns="http://www.w3.org/2000/svg" xmlns:xlink="http://www.w3.org/1999/xlink" x="0px" y="0px"
	 viewBox="0 0 250 250" enable-background="new 0 0 250 250" xml:space="preserve">
<path fill-rule="evenodd" clip-rule="evenodd" fill="none" stroke="#000000" stroke-width="5.0171" stroke-miterlimit="6" d="
	M199.8,159.5l-31.2-54.3l50-28.9l25.4,44.4c1,2.1,1.7,4.3,2.1,6.5c1.4,7.2,0,13.8-4.2,19.8c-0.7,1.2-1.6,2.5-2.7,3.8
	c-0.1,0.1-0.2,0.2-0.2,0.3l-34.3,54.3c-0.9,1.3-2.2,2.7-3.9,4c-3.4,2.7-7.2,4-11.3,3.9l-28.9-0.4l-0.4,22.4l-28.3-49.2l28.5-52.7
	l-0.6,25.7L199.8,159.5z M239,151.2c-0.8,0.8-1.6,1.5-2.5,2.3c-4.8,4.3-10.4,6.3-16.6,6.2l-20.1-0.2 M78.1,12
	C83.6,7.2,90,4.9,97.3,5.4l4.5,0.8l64.8,0.7l5.5,1.2c4.1,1.5,7.1,4.1,9.1,7.6l14.7,24.9l19.4-11.3L187.6,79L127.7,82l22.4-12.7
	l-20.2-34.3L99.4,89.8L48.8,61.9l24.9-44.8C74.9,15.3,76.4,13.6,78.1,12z M55.2,157.5l19.9-34.4l22,13.4L65.6,85.5H8.7L28,97
	l-14.7,24.9c-2.1,3.5-2.9,7.4-2.2,11.7c0.3,2.1,0.8,3.9,1.5,5.3L43,196.1c-0.4-1.1-0.7-2.3-0.9-3.6c-1.2-6.3-0.3-12.1,2.9-17.4
	L55.2,157.5h62.4l0.1,57.8H69.2c-2.8,0.2-6-0.4-9.4-1.6c-6.8-2.4-11.8-6.8-15-13.4c-0.7-1.2-1.3-2.7-1.9-4.2 M101.7,6.2l3.7,0.6
	c6,2,10.6,5.7,13.7,11.1l10.8,17"/>
</svg>
