<svg width="822" height="363" viewBox="0 0 822 363" fill="none" xmlns="http://www.w3.org/2000/svg">
<path d="M14.686 165.677V27.4526H85.7698C98.9522 27.4526 109.024 28.5819 115.997 30.8534C122.971 33.1119 128.583 37.3175 132.848 43.4441C137.112 49.5706 139.251 57.0342 139.251 65.8346C139.251 73.5058 137.618 80.1127 134.351 85.6811C131.085 91.2496 126.6 95.7536 120.884 99.2063C117.242 101.413 112.251 103.23 105.9 104.671C110.981 106.371 114.675 108.072 117.008 109.772C118.577 110.901 120.845 113.329 123.826 117.041C126.808 120.753 128.791 123.622 129.802 125.634L150.463 165.69H102.27L79.4703 123.453C76.5797 117.988 74.0132 114.432 71.7449 112.796C68.6729 110.655 65.1861 109.59 61.2975 109.59H57.5255V165.69H14.686V165.677ZM57.5255 83.4615H75.5039C77.4482 83.4615 81.2201 82.8385 86.8068 81.5794C89.6325 81.0083 91.9397 79.5675 93.7285 77.2441C95.5172 74.9207 96.4116 72.2468 96.4116 69.2354C96.4116 64.7703 94.9988 61.3435 92.173 58.9552C89.3473 56.5669 84.0459 55.3727 76.2557 55.3727H57.5126V83.4745L57.5255 83.4615Z" fill="white"/>
<path d="M177.022 97.9735L140.392 94.1054C141.766 87.6933 143.762 82.6441 146.367 78.9707C148.973 75.2974 152.719 72.1043 157.618 69.4044C161.131 67.4574 165.966 65.9517 172.123 64.8744C178.28 63.81 184.929 63.2778 192.084 63.2778C203.569 63.2778 212.798 63.9268 219.771 65.2119C226.745 66.4969 232.539 69.1838 237.192 73.2725C240.459 76.1021 243.025 80.113 244.918 85.292C246.797 90.484 247.743 95.4294 247.743 100.141V144.364C247.743 149.076 248.041 152.775 248.638 155.436C249.234 158.11 250.53 161.524 252.539 165.664H216.57C215.131 163.081 214.185 161.121 213.744 159.772C213.303 158.422 212.862 156.306 212.422 153.411C207.392 158.253 202.402 161.706 197.451 163.782C190.671 166.547 182.791 167.936 173.821 167.936C161.896 167.936 152.835 165.171 146.652 159.642C140.469 154.112 137.385 147.285 137.385 139.185C137.385 131.579 139.614 125.322 144.073 120.416C148.532 115.51 156.75 111.875 168.74 109.474C183.115 106.579 192.434 104.554 196.699 103.386C200.963 102.218 205.487 100.699 210.257 98.8172C210.257 94.1054 209.285 90.8085 207.341 88.9134C205.396 87.0313 201.974 86.0838 197.075 86.0838C190.801 86.0838 186.083 87.0962 182.946 89.0951C180.496 90.6657 178.526 93.6252 177.009 97.9605L177.022 97.9735ZM210.257 118.157C204.982 120.04 199.486 121.714 193.782 123.155C186.005 125.232 181.067 127.269 179.006 129.281C176.867 131.358 175.804 133.708 175.804 136.356C175.804 139.367 176.854 141.846 178.954 143.754C181.054 145.675 184.152 146.636 188.222 146.636C192.292 146.636 196.465 145.597 200.134 143.52C203.802 141.444 206.407 138.913 207.95 135.927C209.492 132.942 210.257 129.061 210.257 124.284V118.157Z" fill="white"/>
<path d="M253.304 203.774V65.5491H289.183V80.3463C294.147 74.1289 298.697 69.9104 302.832 67.7167C308.419 64.7573 314.601 63.2905 321.381 63.2905C334.744 63.2905 345.088 68.4176 352.399 78.6589C359.709 88.9002 363.365 101.569 363.365 116.652C363.365 133.305 359.372 146.025 351.401 154.787C343.429 163.548 333.357 167.936 321.173 167.936C315.275 167.936 309.883 166.923 305.022 164.924C300.162 162.912 295.806 159.927 291.983 155.968V203.774H253.291H253.304ZM291.723 115.899C291.723 123.816 293.383 129.696 296.714 133.526C300.045 137.355 304.245 139.276 309.326 139.276C313.785 139.276 317.518 137.433 320.525 133.759C323.532 130.086 325.049 123.842 325.049 115.042C325.049 106.929 323.48 100.985 320.344 97.1685C317.207 93.3653 313.37 91.4702 308.859 91.4702C303.96 91.4702 299.877 93.3913 296.623 97.2204C293.357 101.062 291.723 107.28 291.723 115.886V115.899Z" fill="white"/>
<path d="M363.676 27.4526H401.991V53.5685H363.676V27.4526ZM363.676 65.5491H401.991V165.677H363.676V65.5491Z" fill="white"/>
<path d="M512.259 27.4526V165.677H476.38V150.88C471.351 157.162 466.776 161.407 462.628 163.613C457.106 166.508 450.949 167.949 444.17 167.949C430.547 167.949 420.138 162.757 412.957 152.386C405.763 142.015 402.173 129.411 402.173 114.575C402.173 97.9732 406.139 85.2787 414.085 76.4783C422.031 67.6778 432.115 63.2776 444.351 63.2776C450.314 63.2776 455.732 64.277 460.593 66.2889C465.453 68.3008 469.77 71.3252 473.542 75.336V27.4526H512.233H512.259ZM473.84 115.328C473.84 107.475 472.181 101.608 468.85 97.7396C465.518 93.8715 461.319 91.9375 456.238 91.9375C451.779 91.9375 448.045 93.7937 445.038 97.506C442.031 101.218 440.515 107.436 440.515 116.171C440.515 124.349 442.07 130.332 445.181 134.136C448.292 137.939 452.129 139.834 456.717 139.834C461.617 139.834 465.687 137.913 468.953 134.084C472.22 130.255 473.853 123.998 473.853 115.315L473.84 115.328Z" fill="white"/>
<path d="M6.68835 258.056L47.2725 255.512C48.1539 262.106 49.9426 267.142 52.6387 270.595C57.0329 276.19 63.3065 278.98 71.4726 278.98C77.5647 278.98 82.257 277.552 85.5493 274.697C88.8417 271.841 90.4879 268.518 90.4879 264.754C90.4879 260.99 88.9195 257.966 85.7827 255.136C82.6458 252.306 75.3612 249.632 63.9416 247.127C45.2374 242.922 31.8995 237.327 23.9279 230.344C15.8914 223.361 11.8732 214.469 11.8732 203.657C11.8732 196.557 13.9341 189.846 18.0431 183.525C22.1521 177.204 28.3349 172.245 36.5918 168.624C44.8486 165.015 56.1644 163.198 70.5393 163.198C88.1806 163.198 101.622 166.482 110.89 173.05C120.145 179.618 125.654 190.067 127.417 204.397L87.2085 206.759C86.1456 200.542 83.8902 196.012 80.4812 193.182C77.0592 190.352 72.341 188.938 66.3137 188.938C61.3492 188.938 57.6162 189.989 55.1145 192.092C52.5999 194.195 51.3425 196.765 51.3425 199.776C51.3425 201.983 52.3795 203.956 54.4534 205.721C56.4625 207.551 61.2326 209.238 68.7635 210.809C87.4029 214.833 100.754 218.909 108.829 223.023C116.892 227.138 122.763 232.252 126.432 238.34C130.1 244.44 131.94 251.255 131.94 258.796C131.94 267.662 129.491 275.826 124.591 283.316C119.691 290.792 112.847 296.464 104.072 300.332C95.2838 304.2 84.2013 306.135 70.8374 306.135C47.3632 306.135 31.1088 301.604 22.0613 292.557C13.0268 283.51 7.90679 272.01 6.71428 258.043L6.68835 258.056Z" fill="white"/>
<path d="M177.593 165.561V203.657H198.682V231.759H177.593V267.233C177.593 271.504 177.995 274.32 178.811 275.696C180.069 277.825 182.259 278.889 185.396 278.889C188.222 278.889 192.175 278.072 197.256 276.449L200.082 302.941C190.607 305.018 181.754 306.057 173.536 306.057C163.996 306.057 156.97 304.836 152.446 302.383C147.923 299.93 144.578 296.218 142.414 291.22C140.249 286.223 139.16 278.149 139.16 266.974V231.759H125.032V203.657H139.16V185.264L177.58 165.561H177.593Z" fill="white"/>
<path d="M197.852 203.657H233.731V220.064C237.179 212.964 240.744 208.07 244.412 205.409C248.08 202.735 252.617 201.398 258.022 201.398C263.427 201.398 269.856 203.164 276.571 206.681L264.711 234.03C260.187 232.148 256.609 231.201 253.978 231.201C248.962 231.201 245.06 233.277 242.299 237.418C238.346 243.259 236.363 254.201 236.363 270.232V303.798H197.852V203.67V203.657Z" fill="white"/>
<path d="M377.701 263.248H300.875C301.562 269.414 303.234 273.996 305.865 277.02C309.572 281.356 314.407 283.523 320.37 283.523C324.141 283.523 327.719 282.576 331.102 280.694C333.176 279.499 335.405 277.397 337.79 274.372L375.549 277.864C369.768 287.923 362.807 295.14 354.641 299.502C346.475 303.876 334.77 306.057 319.527 306.057C306.28 306.057 295.858 304.187 288.263 300.449C280.667 296.711 274.38 290.766 269.39 282.628C264.399 274.489 261.911 264.923 261.911 253.916C261.911 238.262 266.914 225.593 276.934 215.923C286.94 206.24 300.771 201.398 318.412 201.398C332.722 201.398 344.025 203.566 352.308 207.901C360.591 212.237 366.903 218.519 371.233 226.761C375.562 234.991 377.727 245.712 377.727 258.913V263.248H377.701ZM338.724 244.856C337.972 237.444 335.976 232.122 332.748 228.916C329.521 225.71 325.269 224.114 319.994 224.114C313.901 224.114 309.041 226.528 305.398 231.369C303.078 234.381 301.6 238.885 300.978 244.856H338.737H338.724Z" fill="white"/>
<path d="M375.834 203.657H411.518V219.973C416.859 213.314 422.251 208.551 427.708 205.695C433.165 202.839 439.827 201.412 447.67 201.412C458.272 201.412 466.581 204.566 472.57 210.887C478.558 217.208 481.565 226.956 481.565 240.157V303.798H443.055V248.737C443.055 242.455 441.888 238.002 439.568 235.393C437.248 232.784 433.982 231.486 429.782 231.486C425.142 231.486 421.37 233.252 418.479 236.769C415.589 240.287 414.15 246.608 414.15 255.72V303.811H375.834V203.683V203.657Z" fill="white"/>
<path d="M554.554 203.657H590.433V298.23L590.524 302.656C590.524 308.938 589.189 314.935 586.519 320.62C583.849 326.305 580.31 330.913 575.877 334.431C571.444 337.949 565.831 340.493 559.026 342.063C552.221 343.634 544.418 344.426 535.63 344.426C515.539 344.426 501.747 341.414 494.242 335.378C486.737 329.343 482.991 321.269 482.991 311.145C482.991 309.886 483.056 308.185 483.186 306.057L520.374 310.301C521.32 313.754 522.759 316.142 524.703 317.466C527.529 319.413 531.067 320.387 535.345 320.387C540.867 320.387 545.001 318.907 547.723 315.96C550.446 313.014 551.819 307.848 551.819 300.501V285.314C548.048 289.78 544.289 293.012 540.517 295.024C534.619 298.165 528.242 299.735 521.398 299.735C508.034 299.735 497.236 293.894 489.006 282.199C483.173 273.905 480.243 262.937 480.243 249.295C480.243 233.706 484.015 221.829 491.546 213.652C499.077 205.487 508.928 201.398 521.112 201.398C528.89 201.398 535.319 202.722 540.361 205.357C545.416 207.992 550.134 212.367 554.529 218.467V203.67L554.554 203.657ZM518.494 252.215C518.494 259.445 520.037 264.806 523.109 268.285C526.181 271.776 530.238 273.516 535.254 273.516C540.27 273.516 544.029 271.711 547.257 268.09C550.484 264.481 552.105 259.03 552.105 251.735C552.105 244.44 550.407 238.859 547.024 235.004C543.64 231.136 539.493 229.202 534.593 229.202C529.693 229.202 525.792 230.98 522.875 234.524C519.959 238.08 518.494 243.973 518.494 252.202V252.215Z" fill="white"/>
<path d="M640.337 165.561V203.657H661.426V231.759H640.337V267.233C640.337 271.504 640.739 274.32 641.556 275.696C642.813 277.825 645.003 278.889 648.14 278.889C650.966 278.889 654.919 278.072 660.001 276.449L662.826 302.941C653.351 305.018 644.498 306.057 636.28 306.057C626.74 306.057 619.715 304.836 615.191 302.383C610.667 299.93 607.323 296.218 605.158 291.22C602.994 286.223 601.905 278.149 601.905 266.974V231.759H587.776V203.657H601.905V185.264L640.324 165.561H640.337Z" fill="white"/>
<path d="M660.221 165.561H698.537V216.481C703.747 211.082 708.919 207.214 714.078 204.89C719.224 202.567 725.316 201.398 732.342 201.398C742.763 201.398 750.968 204.579 756.97 210.926C762.958 217.273 765.965 227.021 765.965 240.157V303.798H727.455V248.737C727.455 242.454 726.288 238.002 723.968 235.393C721.648 232.784 718.382 231.486 714.182 231.486C709.541 231.486 705.77 233.251 702.879 236.769C699.988 240.287 698.55 246.608 698.55 255.72V303.811H660.234V165.587L660.221 165.561Z" fill="white"/>
<path d="M769.452 265.312H810.412V303.785H769.452V265.312Z" fill="white"/>
</svg>
