<svg width="652" height="667" viewBox="0 0 652 667" fill="none" xmlns="http://www.w3.org/2000/svg">
<g clip-path="url(#clip0_21_119)">
<path d="M611.041 15.2627H625.135C628.383 15.2627 630.824 15.9674 632.457 17.3768C634.09 18.7862 634.898 20.7455 634.898 23.2378C634.898 24.6471 634.691 25.7987 634.279 26.7268C633.866 27.655 633.385 28.394 632.835 28.9612C632.285 29.5284 631.735 29.9409 631.202 30.1815C630.669 30.4222 630.274 30.5941 630.016 30.68V30.7659C630.463 30.8175 630.927 30.955 631.443 31.1784C631.959 31.4019 632.423 31.7456 632.87 32.2269C633.316 32.7081 633.677 33.3441 633.97 34.1003C634.262 34.8738 634.399 35.8363 634.399 36.9878C634.399 38.7238 634.537 40.3051 634.795 41.7144C635.052 43.141 635.465 44.1551 636.015 44.7567H630.48C630.102 44.1207 629.862 43.416 629.793 42.6426C629.724 41.8691 629.69 41.1301 629.69 40.4082C629.69 39.0675 629.604 37.8988 629.449 36.9191C629.277 35.9394 628.985 35.1316 628.538 34.4785C628.091 33.8253 627.49 33.3613 626.733 33.0519C625.977 32.7425 624.997 32.605 623.811 32.605H616.214V44.7567H611.041V15.2627ZM616.197 28.6862H624.671C626.321 28.6862 627.576 28.2909 628.435 27.5003C629.294 26.7097 629.724 25.5409 629.724 23.9596C629.724 23.0143 629.587 22.2581 629.312 21.6737C629.037 21.0893 628.658 20.6252 628.177 20.2815C627.696 19.9549 627.146 19.7315 626.527 19.6284C625.908 19.5252 625.272 19.4565 624.602 19.4565H616.214V28.669L616.197 28.6862Z" fill="#FFD900"/>
<path d="M627.765 59.8645C606.468 63.9895 588.18 45.5644 592.168 24.269C594.385 12.3407 603.925 2.8188 615.853 0.584414C637.149 -3.54061 655.438 14.8845 651.45 36.18C649.233 48.1082 639.521 57.6301 627.765 59.8645ZM627.937 4.40007C608.548 0.103161 591.704 16.9642 595.984 36.3519C598.201 46.0457 606.004 53.9863 615.853 56.2207C635.241 60.5176 652.086 43.6566 647.806 24.269C645.589 14.4204 637.631 6.46258 627.937 4.40007Z" fill="#FFD900"/>
<path d="M116.141 278.852C116.141 278.852 116.141 278.869 116.141 278.886L119.922 282.668C118.753 281.482 117.516 280.244 116.141 278.852Z" fill="#FFD900"/>
<path d="M122.311 285.057C123.721 286.466 125.147 287.875 126.557 289.285L119.939 282.667C120.747 283.475 121.538 284.283 122.311 285.057Z" fill="#FFD900"/>
<path d="M0.0171882 654.196H0.0343764V657.805C0.0343764 662.652 5.89555 665.075 9.31601 661.655L110.331 560.643C113.906 557.068 115.9 552.239 115.9 547.185C115.848 464.479 115.848 381.755 115.866 299.048C115.866 297.501 115.247 296.023 114.164 294.923L23.0838 203.863C20.8149 201.594 20.8149 197.899 23.0838 195.613L23.8572 194.839C26.1261 192.57 29.8215 192.57 32.1076 194.839L116.141 278.87C116.141 278.87 116.141 278.852 116.141 278.835C117.533 280.227 118.753 281.482 119.922 282.651L126.54 289.268C138.623 301.317 150.723 313.365 162.807 325.431C174.202 336.826 185.547 348.273 196.942 359.669C212.962 375.687 229.033 391.655 245.069 407.674C259.009 421.596 272.88 435.586 286.82 449.508C302.684 465.355 318.583 481.151 334.448 497.015C348.439 511.006 362.344 525.048 376.336 539.039C392.475 555.178 408.649 571.265 424.789 587.387C436.082 598.68 447.323 610.006 458.598 621.298C467.124 629.841 485.206 647.922 501.861 664.577C505.058 667.774 510.249 667.774 513.446 664.577L583.591 594.434C586.805 591.22 586.822 586.012 583.591 582.781C563.928 563.101 541.153 540.362 529.981 529.19C507.533 506.743 485.085 484.279 462.62 461.832C445.604 444.833 428.536 427.869 411.537 410.853C388.694 388.011 365.885 365.117 343.042 342.257C323.173 322.371 303.303 302.503 283.433 282.616C261.037 260.204 238.624 237.791 216.21 215.396C195.344 194.547 174.443 173.698 153.577 152.85C152.477 151.75 150.998 151.148 149.451 151.148H81.9877C77.3125 151.148 74.0811 145.855 76.7969 142.022C77.8969 140.475 79.6501 139.581 81.5064 139.581L443.335 139.461C447.667 139.461 451.809 137.742 454.869 134.683L583.093 6.49731C585.482 4.10823 583.797 0.0175781 580.411 0.0175781L193.23 0.0863286C190.823 0.0863286 187.472 1.46134 185.77 3.16291C175.474 13.3724 165.265 23.6677 155.02 33.9288C140.72 48.246 126.385 62.5461 112.067 76.8462C100.001 88.8948 87.952 100.943 75.8859 112.992C63.0119 125.865 50.138 138.756 37.264 151.647C26.7792 162.148 14.9365 174.059 4.09079 184.836C1.47819 187.431 0 190.989 0 194.702V654.196H0.0171882Z" fill="#FFD900"/>
</g>
<defs>
<clipPath id="clip0_21_119">
<rect width="652" height="667" fill="white"/>
</clipPath>
</defs>
</svg>
