<?xml version="1.0" encoding="utf-8"?>
<!-- Generator: Adobe Illustrator 27.3.1, SVG Export Plug-In . SVG Version: 6.00 Build 0)  -->
<svg version="1.1" id="Layer_1" xmlns="http://www.w3.org/2000/svg" xmlns:xlink="http://www.w3.org/1999/xlink" x="0px" y="0px"
	 viewBox="0 0 320 320" enable-background="new 0 0 320 320" xml:space="preserve">
<g>
	<path fill="#FFFFFF" d="M172.7,229.8c-3.6,0-6.4,2.8-6.4,6.8c0,4.1,2.8,6.8,6.4,6.8c3.6,0,6.4-2.7,6.4-6.8
		C179.1,232.5,176.3,229.8,172.7,229.8z"/>
	<path fill="#FFFFFF" d="M99.3,229.8c-3.6,0-6.4,2.8-6.4,6.8c0,4.1,2.8,6.8,6.4,6.8c3.6,0,6.4-2.7,6.4-6.8
		C105.7,232.5,102.9,229.8,99.3,229.8z"/>
	<path fill="#FFFFFF" d="M-6.8-6.8v333.6h333.6V-6.8H-6.8z M142.1,25.2h4.6c15.7,0,28.5,12.2,29.5,27.7c0,0.6,0.1,1.3,0.1,1.9V78
		l-23.6-31.8l-12.6-17C138.9,27.6,140.1,25.2,142.1,25.2z M92,25.2h26.8c2.2,0,4.3,1,5.6,2.8l8.8,11.8L88.3,25.3
		C89.6,25.3,90.8,25.2,92,25.2z M59,249h-6.5v-14.2c0-3.3-1.2-5.1-4.7-5.1c-3.7,0-5.6,2.1-5.6,6.2V249h-6.5v-24.9h6.5v3.4
		c1.8-2.5,4.3-3.9,7.7-3.9c5.6,0,9,3.7,9,9.8V249z M72.8,249.6c-7.2,0-12.9-5.5-12.9-13c0-7.5,5.8-13,12.9-13c7.2,0,13,5.5,13,13
		C85.8,244.1,80.1,249.6,72.8,249.6z M99.3,249.6c-7.2,0-12.9-5.5-12.9-13c0-7.5,5.8-13,12.9-13c7.2,0,13,5.5,13,13
		C112.3,244.1,106.6,249.6,99.3,249.6z M125,249.6c-5,0-9.3-3-9.3-10.1v-9.2h-4.4v-6.1h4.4v-5.4l6.5-1.4v6.8h9.2v6.1h-9.2v8.8
		c0,2.9,1.4,4.5,4,4.5c1.4,0,3.2-0.5,5.2-1.2l1.1,5.2C131.1,248.5,128,249.6,125,249.6z M139.7,249h-6.5v-24.9h6.5v4.3
		c1.5-3.3,4.2-4.9,7.8-4.9c0.6,0,1,0,1.4,0.1v6.6c-0.5,0-0.9-0.1-1.6-0.1c-4.1,0-7.6,1.8-7.6,7.7V249z M145.5,249.6
		c-2.3,0-4-1.6-4-3.8c0-2.2,1.7-3.8,4-3.8c2.3,0,4,1.6,4,3.8C149.5,248,147.7,249.6,145.5,249.6z M84.4,195.4
		C41.8,192.1,8,157.2,6,114.6c-0.9-18.8,4.4-36.4,14.1-50.9c8.3-12.4,19.8-22.6,33.3-29.4c2.4-1.2,4.8-2.3,7.3-3.2
		c3.6-1.4,7.5-1.4,11.1-0.2l37.2,12.1c10.6,3.4,20.5,7.4,29.5,11.7c5.7,2.7,10.4,7,13.8,12.3c10.1,15.9,17.1,31.7,20.5,45.3
		c0,0,0,0.1,0,0.1c2,8.1,1.6,16.7-1,24.7c-1.5,4.4-3.3,8.7-5.4,12.7C151.2,178.8,119.8,198.1,84.4,195.4z M158.5,249h-6.5v-24.9h6.5
		V249z M155.3,220.3c-2.3,0-4-1.6-4-3.8c0-2.2,1.8-3.8,4-3.8c2.4,0,4,1.6,4,3.8C159.4,218.7,157.7,220.3,155.3,220.3z M172.7,249.6
		c-7.2,0-12.9-5.5-12.9-13c0-7.5,5.8-13,12.9-13c7.2,0,13,5.5,13,13C185.7,244.1,180,249.6,172.7,249.6z M244.1,185.5
		c-18.3,9.8-40.4-3.3-40.4-24v-55V61.3c0-0.9,0-1.7,0.1-2.5c1.8-20.4,24.4-32.6,42.6-22.1c25.4,14.7,42.5,42.2,42.5,73.7
		C288.9,142.9,270.8,171.1,244.1,185.5z"/>
	<path fill="#FFFFFF" d="M72.8,229.8c-3.6,0-6.4,2.8-6.4,6.8c0,4.1,2.8,6.8,6.4,6.8c3.6,0,6.4-2.7,6.4-6.8
		C79.3,232.5,76.5,229.8,72.8,229.8z"/>
</g>
<g>
	<path d="M43,284.2c-2.5,0-4.7-0.4-6.6-1l-0.6-6.7h1.5l1.6,5.2c1.2,0.6,3.2,1,4.6,1c3.4,0,5.3-2.2,5.3-4.5c0-3.1-2.3-4.2-5.9-5.6
		c-3.7-1.4-6.6-2.8-6.6-6.8c0-3.4,2.5-6.4,7.8-6.4c2,0,3.4,0.2,4.4,0.4l2-0.6v7.4H49l-1.1-4.8c-1.2-0.6-2.9-0.9-4.3-0.9
		c-3.1,0-4.6,1.9-4.6,3.9c0,3.1,2.5,4,5.8,5.3c3.8,1.4,6.8,2.8,6.8,7C51.7,281,48.4,284.2,43,284.2z"/>
	<path d="M69.9,283.5l-5.7,0.7v-2.8H64c-1.9,1.6-3.9,2.8-6,2.8c-1.1,0-2.3-0.4-3.2-1.2c-1-0.9-1.4-2.4-1.4-4.2l0.1-10.1
		c0-0.5-0.2-0.4-1.2-0.6l-1.4-0.2l-0.1-1.2h5.6L56.1,277c0,3.8,1.4,4.9,3.6,4.9c1.7,0,3.4-1,4.5-1.9v-11.2c0-0.3-0.2-0.5-1-0.6
		l-1.9-0.2l-0.1-1.2H67v14.5c0,0.4,0.1,0.6,0.3,0.7l2.7,0.6L69.9,283.5z"/>
	<path d="M77.2,284.2c-1.1,0-2.6-0.3-3.7-0.7h-0.1v7.4c0,0.3,0.2,0.5,1.1,0.5l2,0.2l0.1,1.3h-8.5l0.1-1.3l1.5-0.2
		c0.7,0,0.9-0.2,0.9-0.6v-20c0-1.7-0.2-2-1.2-2.2l-1.6-0.2l0.1-1l5.4-1.2v2.9h0.2c1.4-1.5,3.3-2.7,5.5-2.7c4.1,0,6.8,3.6,6.8,8.2
		C85.9,279.7,82.6,284.2,77.2,284.2z M77.9,268.7c-1.9,0-3.5,1.1-4.5,2.3v9.7c1.2,1.1,2.5,2.1,4.3,2.1c2.9,0,5.2-2.8,5.2-7
		S80.9,268.7,77.9,268.7z"/>
	<path d="M94.1,284.2c-1.1,0-2.6-0.3-3.7-0.7h-0.1v7.4c0,0.3,0.2,0.5,1.1,0.5l2,0.2l0.1,1.3H85l0.1-1.3l1.5-0.2
		c0.7,0,0.9-0.2,0.9-0.6v-20c0-1.7-0.2-2-1.2-2.2l-1.6-0.2l0.1-1l5.4-1.2v2.9h0.2c1.4-1.5,3.3-2.7,5.5-2.7c4.1,0,6.8,3.6,6.8,8.2
		C102.8,279.7,99.5,284.2,94.1,284.2z M94.9,268.7c-1.9,0-3.5,1.1-4.5,2.3v9.7c1.2,1.1,2.5,2.1,4.3,2.1c2.9,0,5.2-2.8,5.2-7
		S97.9,268.7,94.9,268.7z"/>
	<path d="M102.3,283.6l0.1-1.3l1.6-0.2c0.7,0,0.9-0.2,0.9-0.6v-20.4c0-0.5-0.1-0.7-0.4-0.8l-2.8-0.8l0.1-0.9l5.7-1.4v24.4
		c0,0.3,0.2,0.5,1.1,0.5l1.6,0.2l0.1,1.3H102.3z"/>
	<path d="M117.5,284.2c-4.4,0-7.6-3.6-7.6-8.5c0-5.5,4-9.5,8.7-9.5c3.6,0,5.8,2.2,5.8,5.5c0,0.6-0.1,1.5-0.2,2l-11.4-0.2
		c0,0.2,0,0.8,0,0.9c0,4.3,2.5,7.3,5.9,7.3c1.7,0,3.5-0.7,4.8-2.3l0.8,0.5C122.9,282.6,120.4,284.2,117.5,284.2z M117.8,267.5
		c-2.1,0-4.3,1.8-4.9,4.9c0,0,8.5,0,8.4,0C121.5,269.4,120.1,267.5,117.8,267.5z"/>
	<path d="M145,283.6l0.1-1.3l1.5-0.2c0.8,0,0.9-0.2,0.9-0.6v-8.3c0-3.7-1.5-4.8-3.5-4.8c-1.5,0-3.2,1-4.2,1.9c0,0.3,0,2,0,2.2v9
		c0,0.3,0.1,0.5,1.1,0.6l1.6,0.2l0.1,1.3h-8l0.1-1.3l1.5-0.2c0.8,0,0.9-0.2,0.9-0.6v-8.3c0-3.7-1.5-4.8-3.5-4.8
		c-1.5,0-3.2,1-4.2,1.9v11.3c0,0.3,0.2,0.5,1,0.5l1.8,0.2l0.1,1.3h-8.2l0.1-1.3l1.5-0.2c0.7,0,0.9-0.2,0.9-0.6V271
		c0-1.8-0.2-2-1.2-2.3l-1.5-0.2l0-1l5.4-1.2v2.7h0.1c1.9-1.6,3.8-2.7,5.8-2.7c1.1,0,2.3,0.4,3.1,1.1c0.5,0.5,0.9,1.1,1.1,1.9h0.2
		c1.9-1.7,4-3,6-3c1.2,0,2.3,0.4,3.2,1.2c0.9,0.9,1.4,2.3,1.4,4.1v10.1c0,0.3,0.1,0.5,1.1,0.6l1.5,0.2l0.1,1.3H145z"/>
	<path d="M159.7,284.2c-4.4,0-7.6-3.6-7.6-8.5c0-5.5,4-9.5,8.7-9.5c3.6,0,5.8,2.2,5.8,5.5c0,0.6-0.1,1.5-0.2,2l-11.4-0.2
		c0,0.2,0,0.8,0,0.9c0,4.3,2.5,7.3,5.9,7.3c1.7,0,3.5-0.7,4.8-2.3l0.8,0.5C165.1,282.6,162.6,284.2,159.7,284.2z M160.1,267.5
		c-2.1,0-4.3,1.8-4.9,4.9c0,0,8.5,0,8.4,0C163.7,269.4,162.3,267.5,160.1,267.5z"/>
	<path d="M177.3,283.6l0.1-1.3l1.5-0.2c0.8,0,0.9-0.2,0.9-0.6v-8.2c0-3.7-1.4-4.9-3.6-4.9c-1.7,0-3.4,1-4.5,1.9v11.3
		c0,0.3,0.2,0.5,1,0.5l1.7,0.2l0.1,1.3h-8.2l0.1-1.3l1.5-0.2c0.7,0,0.9-0.2,0.9-0.6v-10.7c0-1.7-0.2-2-1.2-2.2l-1.6-0.2l0-1l5.4-1.2
		v2.7h0.2c1.9-1.6,3.9-2.7,6-2.7c1.1,0,2.3,0.4,3.2,1.2c1,1,1.4,2.4,1.4,4.2v10c0,0.3,0.2,0.5,1.1,0.6l1.5,0.2l0.1,1.3H177.3z"/>
	<path d="M190.4,284.2c-2.6,0-4.3-1.4-4.3-4.9l0.2-10.7l-3-0.2l0-1.1l2.6-1.5l1.8-2.4l1.3,0.2l0,3.2h6.1l-0.3,1.7H189l-0.2,10.1
		c-0.1,2.5,1,3.4,3,3.4c1,0,2.2-0.4,3.2-1l0.2,1C194,283.3,192.1,284.2,190.4,284.2z"/>
	<path d="M200.1,284.2c-1.8,0-3.6-0.3-4.9-0.8l-0.2-4.9h1.7l0.8,3.4c0.9,0.6,1.9,1,3.1,1c1.9,0,3.7-1.2,3.7-3.2c0-1.9-2-2.6-4.2-3.4
		c-2.5-0.9-5-2-5-5.2c0-2.5,2.1-4.9,5.9-4.9c1.7,0,2.7,0.3,3.7,0.6l1.1-0.4l0.3,5.3h-1.7l-0.7-3.3c-0.9-0.6-2-0.9-3-0.9
		c-1.9,0-3.2,1.1-3.2,2.7c0,1.9,1.7,2.5,4.2,3.4c2.5,0.9,5.1,2,5.1,5.3C206.7,281.6,204.4,284.2,200.1,284.2z"/>
	<path d="M224.2,261.3c-1.1,0-2-0.8-2.4-2.3l0-0.2l-0.9-0.1c-2.1,0.9-3.3,3.2-3.3,7v1.2h5.3l-0.3,1.7h-5v13.1c0,0.3,0.2,0.5,1.1,0.5
		l2.5,0.2l0.1,1.3h-9l0.1-1.3l1.6-0.2c0.7,0,0.9-0.2,0.9-0.6v-13l-3.2-0.2l0.2-1.7h2.8l0-0.9c0.2-5.1,3.8-8.6,7.8-8.6
		c1.8,0,3.3,0.9,3.3,2.3C225.8,260.6,225.1,261.3,224.2,261.3z"/>
	<path d="M229.8,284.2c-5,0-8.2-3.8-8.2-8.9c0-5.2,3.9-9.1,8.8-9.1c4.8,0,8.2,3.6,8.2,8.6C238.5,280.1,234.7,284.2,229.8,284.2z
		 M233.5,269.2c-0.7-0.7-1.9-1.5-3.6-1.5c-3.1,0-5.4,2.7-5.4,6.8c0,2.8,0.7,5.3,2.1,6.8c0.7,0.7,1.9,1.5,3.6,1.5
		c3,0,5.4-2.6,5.4-6.8C235.5,273.2,234.9,270.7,233.5,269.2z"/>
	<path d="M249,270c-0.8,0-1.5-0.6-1.8-1.2c-1.2,0.7-2.9,2.5-3.9,4.3v8.5c0,0.3,0.2,0.5,1,0.5l2,0.2l0.1,1.3H238l0.1-1.3l1.5-0.2
		c0.7,0,0.9-0.2,0.9-0.6v-10.7c0-1.7-0.2-2-1.2-2.2l-1.5-0.2l0.1-1l5.4-1.2v4.9h0.2c2.2-3.7,3.6-5,5.2-5c1.4,0,2.1,0.9,2.1,1.9
		C250.8,269.2,250.1,270,249,270z"/>
	<path d="M254.9,283.6l0.1-1.3l1.6-0.2c0.7,0,0.9-0.2,0.9-0.6v-20.4c0-0.5-0.1-0.7-0.4-0.8l-2.8-0.8l0.1-0.9l5.7-1.4v24.4
		c0,0.3,0.2,0.5,1.1,0.5l1.6,0.2l0.1,1.3H254.9z"/>
	<path d="M262.2,283.6l0.1-1.3l1.6-0.2c0.6,0,0.9-0.2,0.9-0.6V271c0-1.8-0.2-2-1.3-2.3l-1.5-0.2l0.1-1l5.4-1.2v15.5
		c0,0.3,0.2,0.5,1.1,0.5l1.6,0.2l0.1,1.3H262.2z M265.8,262.8c-1.3,0-1.9-1-1.9-2.1c0-1.1,0.6-2.1,1.9-2.1c1.3,0,1.9,1,1.9,2.1
		C267.7,261.8,267,262.8,265.8,262.8z"/>
	<path d="M281.3,261.3c-1.1,0-2-0.8-2.4-2.3l0-0.2l-0.9-0.1c-2.1,0.9-3.3,3.2-3.3,7v1.2h5.3l-0.3,1.7h-5v13.1c0,0.3,0.2,0.5,1.1,0.5
		l2.5,0.2l0.1,1.3h-9l0.1-1.3l1.6-0.2c0.7,0,0.9-0.2,0.9-0.6v-13l-3.2-0.2l0.2-1.7h2.8l0-0.9c0.2-5.1,3.8-8.6,7.8-8.6
		c1.8,0,3.3,0.9,3.3,2.3C282.9,260.6,282.2,261.3,281.3,261.3z"/>
	<path d="M286.2,284.2c-4.4,0-7.6-3.6-7.6-8.5c0-5.5,4-9.5,8.7-9.5c3.6,0,5.8,2.2,5.8,5.5c0,0.6-0.1,1.5-0.2,2l-11.4-0.2
		c0,0.2,0,0.8,0,0.9c0,4.3,2.5,7.3,5.9,7.3c1.7,0,3.5-0.7,4.8-2.3l0.8,0.5C291.6,282.6,289.1,284.2,286.2,284.2z M286.5,267.5
		c-2.1,0-4.3,1.8-4.9,4.9c0,0,8.5,0,8.4,0C290.2,269.4,288.8,267.5,286.5,267.5z"/>
	<path d="M296,284.2c-1.4,0-2.4-1.1-2.4-2.3c0-1.2,1-2.3,2.4-2.3c1.4,0,2.3,1.1,2.3,2.3C298.4,283.1,297.4,284.2,296,284.2z"/>
</g>
</svg>
