<?xml version="1.0" encoding="UTF-8"?><svg id="Layer_1" xmlns="http://www.w3.org/2000/svg" viewBox="0 0 259.396982013880915 259.336255931510095"><path d="m130.699908580721967,259.336255931510095c-1.192251376640343-.006803306509028-2.384502753278866-.013606613016236-3.576801977709692-.020391126477989-.092777410562121-.039833343313148-.185002936586898-.112979001838539-.27832591137485-.114402392026022-1.111342087933735-.016989156732961-2.222865551790164-.023287855026865-3.33433329062791-.032392747945778-2.230612378714795-.158413090135582-4.461474618319698-.313505711656035-6.691711370351186-.47703314438877-.777867382599652-.057021933405849-1.556737659482678-.113954674985507-2.330611455652615-.208162204748078-1.047313327106167-.127476014889908-2.090806922258707-.287232035730995-3.134906912493534-.440080496329756-.767917629354997-.112441466721066-1.536615024258936-.222310370143532-2.300735838436594-.357256816078007-1.961650809238563-.346450369204831-3.925176159613329-.684702840237151-5.879702753622041-1.068261960703239-1.297513207111479-.254627969996363-2.572348746838543-.629299139340219-3.873282908221881-.860465174271667-.940903179294764-.167209818715492-1.877787393816106-.320686367442249-2.790860854369384-.612069265529499-1.389331167290948-.443373921281818-2.769491277316774-.933657153815147-4.185790296411142-1.267038060181221-.75456590388967-.177595813087464-1.421153520783264-.605932298116386-2.18244025929198-.685722960821295-.767745233579262-.0804610732539-1.459221892899222-.393865780046326-2.15482316741145-.650649922310549-3.691641158391576-1.362789219590923-7.370270796614932-2.762268547927306-10.963594611239387-4.374378271679234-.771858994507056-.346287405467592-1.572376468870061-.628241643820729-2.352333563352659-.957244015289689-.248535008306135-.104861034047644-.46551417460978-.282475845551744-.710381242906806-.398387387054754-.763335874256882-.361316911574249-1.547164468756819-.681828393257092-2.296985773016786-1.068682465884194-1.047643188103393-.540498100739569-2.078040866199444-1.115445157756767-3.104616922990317-1.695485017395185-1.996952474501086-1.128321878626593-4.034964474318258-2.193724554723303-5.967135635275554-3.42464353827927-2.961329630270484-1.886522539114594-5.878954736115702-3.846009299511934-8.757101210376277-5.857561722847095-3.075921527693936-2.149812870315145-5.985380710899335-4.520760333551152-8.828190385862399-6.97170723567433-.656476958884014-.566003903768433-1.371279095150385-1.066542721984661-2.007522394593252-1.653287847517277-1.019917077963328-.940553090003959-1.998385418071848-1.926114532790962-2.991103577858667-2.896033133130913-.830784328800291-.811720898991553-1.667839584672038-1.617466975247225-2.482097565154618-2.445561079755862-.904828150487447-.920187899824668-1.788999886959573-1.860789812697476-2.678484281968849-2.796002768953258-.904492477697204-.950981405501807-1.860540072813819-1.859709620619469-2.697005615882517-2.867465826378975-4.074098043911363-4.908392590999938-8.061174171285529-9.887798530708096-11.449338616737805-15.306455502797689-1.804939848563663-2.886614072936936-3.554630996841297-5.811162519679783-5.225664901081473-8.776954695120367-1.162998658794095-2.064121908337256-2.201701262536517-4.203319903885131-3.204171039596986-6.351799298072365-1.888328971892406-4.046982144884169-3.629858046537265-8.160480082753566-5.034161729970947-12.40244118586088-1.075333745713579-3.248240535591322-2.123984648382248-6.510480643621122-3.020953053182893-9.810949674087169-.754206765815979-2.775154070342978-1.30592741782857-5.607540737972158-1.887434335792932-8.426920930387496-.839919807516708-4.072293587612876-1.35156467840352-8.195764073239843-1.75822530984442-12.33053000363725-.173144198826776-1.760460137469636-.240271374670556-3.531359664322736-.357264053309336-5.297416012067515-.013762707501883-.207751112726328-.038240513902565-.414795971400054-.057771384756052-.622172658574527-.008751141078392-.069521411917776-.017478596932051-.139014037591551-.026208379542368-.20851622387454-.033874878437928-1.443471678981041-.067752083630694-2.886952918572206-.1016412209392-4.330434232745574-.008739508135477-.068328081149048-.017467143825343-.136646542021481-.026194779515208-.204965002893914.068663685357023-2.916752633635042.045948140550536-5.839307697281583.23045749755147-8.748711242431455.204090181467109-3.218191795961502.552581493831894-6.429543327672036.919650268435362-9.634535610578496.550798730495444-4.809186401384068,1.49962339479498-9.550475217447456,2.668231725319856-14.244779129739982,3.623210373805705-14.554402708427006,9.606073052698775-28.070125908702721,17.921910398050386-40.552328947184833.978073562120699-1.468094605585975,1.941045818835846-2.94773410961534,2.967119597564306-4.38188357479703.815490240216604-1.139824149924607,1.721134448351222-2.214892261615205,2.578641967102158-3.324980299012168.784269444131496-1.015295197707928,1.517285088662902-2.073195061396291,2.345393779825827-3.050905439044072,1.216603456270605-1.436404645281982,2.500944350562349-2.815309962998072,3.750067273187597-4.224352784620351.688467189016592-.77661715335762,1.352433467625815-1.57522885067192,2.051008642229135-2.34247540893557.274140487697878-.301078040331049.63237685011336-.524240475834631.918264169678878-.816219285989973.979099353397032-.999944420565043,1.93252976408985-2.025155440178423,2.917894695972791-3.018765066820379.415370869221078-.418852828617673.948429179214145-.731371460255104,1.319944718226907-1.181418119320369,1.199957662098313-1.45361046805283,2.728914659222937-2.548170279004808,4.083536592184828-3.831328381724234.51380444885217-.486706694282475,1.119727851426433-.874818588402377,1.667342518343503-1.327616336744541.432625139430456-.35772653298136.822876783371612-.767615110467887,1.262524979350928-1.115723041601996.994006466244173-.78705037180589,2.008854200563292-1.54772833937659,3.011569968812182-2.323851304309756.937400530456216-.725555248610362,1.851562843656211-1.48268617015583,2.80992616880576-2.179166718665329,1.014966113942137-.737618708960326,2.069806957677429-1.420389456283374,3.107596976144123-2.126583046065207,1.013391547005085-.689597527930346,2.014119436036708-1.398920013553834,3.04449567242591-2.062150151543392,1.077590173492354-.693630386718723,2.183996639105317-1.342448026357488,3.277564551979594-2.011263779744695.966769676724653-.591270943359632,1.91807342899483-1.209823365007651,2.903849179492681-1.767473593426075,1.073681299194504-.60738226266858,2.180804050889492-1.155458193498816,3.270264134323952-1.735213363957882.724454966795747-.385514276036702,1.435280599507678-.797382128149366,2.166768776802201-1.168793475101666,1.263843520791852-.641719289180401,2.512586129665578-1.323299487982695,3.815035420258937-1.876679220818914,2.507661931267648-1.065455269593258,4.940931432243815-2.305018458149789,7.526420091369801-3.191418572667317.98753741247674-.338564197442793,1.917215469289658-.846541313106172,2.905667296898173-1.181730034041721,1.952595575599844-.662133621388421,3.92555344010907-1.264792081039559,5.894304019329866-1.878545501001099,1.77562013584793-.553550793272734,3.548554092731138-1.118721618444397,5.338730073621264-1.621570579956824,1.090997382203568-.306448895907124,2.2136451818551-.499192474468146,3.319852749722486-.752718375044424,1.829795357512921-.419366789219566,3.641856611306139-.942980059933689,5.490194809359309-1.248508677251266,2.982494249730735-.493002428840555,5.986648818137837-.857768439712345,8.985297286735658-1.24881338537125,1.07984327027043-.140822803741685,2.170566166059871-.197188005755379,3.255557146696447-.300212015126817.433486318192081-.041159334122312.864875821867827-.104230446681868,1.297243498107491-.15732696716168.372593620249972-.039895648204947.745168149114761-.079791415745603,1.117742692897082-.119689569708498.254561389238006-.007074246028424.509113247697314-.014150938146486.763693743234398-.021227451261439.475901449095545-.039946761785359.951793352498498-.079893583239937,1.427685255901451-.119840404692695.357512806564046-.00813947027018.715035158817045-.01627888087296,1.072567041846924-.024415845384283.684961429204122-.038606573519246,1.369913312713834-.077213206707711,2.054865196223545-.115819839894357.620638722441072-.012432393858944,1.241286990571098-.024864728049579,1.861944819309429-.037299388996871.310519224300151.003807226761637.621019342299405.007616720611622.93151946029684.011426214462517,1.832083082936151.016415806266195,3.66415662017971.032831552863172,5.496239703115862.049247359129367.619094642363052.014675937070024,1.238179753949225.02934942804859,1.857303003551351.0440303169662.684200575671639.046463196864352,1.368382074877445.092923887971665,2.052554028392478.139384519409759.357866563343123.013152851181076.715733126686246.026305702361242,1.073628297270261.039463505390813.372769589224845.041910450931027.745501010602311.083818276769307,1.118241992588082.125723775851839,1.702789011111236.169483023404609,3.407770547419204.319603627393008,5.107760967537615.513776758847598,1.774339344152395.202668493054261,3.549619874789641.410538314779842,5.313832873651336.684660239058758,1.812297564958499.28159158221024,3.623456352221183.592647133667015,5.413972133248535.986877382628336,2.588632964167118.569957584293661,5.16175023413598,1.212227469484787,7.73501181157917,1.849737157064737,2.938901454246661.728098685510304,5.808439911641472,1.688537423579874,8.675405860962201,2.654296331621481.733159550680284.246971676006069,1.446510622765345.562730187266425,2.191771222096577.761369410867701,1.052018242407939.280402351621888,1.973357365488482.874366017258581,3.010379533670857,1.17754938941107.705329862496001.206203081176682,1.358791523669424.536817985837843,2.035411818216744.812472991845425.885471744741153.36075344670553,1.799685094440065.653038413471222,2.676099141954182,1.033402522236429.700765593390315.304143423983987,1.360876854330854.701068672813562,2.043601268547718,1.047832283752541,2.689446655249412,1.365992083902711,5.384924063289873,2.720144173722474,8.069944419819876,4.094807441255398,2.166742956193048,1.109326911337121,4.203804725944792,2.442815321483067,6.291301205594209,3.688797578960475,1.358605496396194.810929676856176,2.661662313214038,1.70893021912525,3.965526638756273,2.602974192169313,1.298408368966193.890286904214008,2.554621455445158,1.841929903149321,3.848404275551729,2.739166067420229,2.399996834206831,1.664370740681079,4.636428184456236,3.533899750801538,6.874538711224886,5.403577674932421,1.073785564822174.897020868129403,2.130219167400355,1.811922832297569,3.181599722422106,2.734969415432715,1.002524752671889.880132340191267,1.932883039939043,1.833284872393961,2.924981056647084,2.722969697817462,1.026461976603969.92052817293461,1.968631818694121,1.935803954800576,2.93719077748392,2.919928823464033.95028920482946.965572445941689,1.913552563504709,1.920286199941074,2.824917275869666,2.921814015822747,1.967199919781706,2.16182671815568,3.915330100366191,4.341452199512787,5.703244430042105,6.657677961029549,1.366980992817844,1.770958134863577,2.78214171160289,3.506672657146737,4.098201902030269,5.31461851975655,3.701887091036042,5.08560360854699,7.024597334881037,10.410595940740677,9.916866322977512,15.999738841026556.650270145933973,1.256594230575502,1.308940025248376,2.51026259349419,1.909727556167127,3.790622696223181.58595945568959,1.248774949884137,1.091746589934701,2.5349180020321,1.65365369859137,3.795312904693674.409324251770158.918073884439764.894951057543949,1.803938990743518,1.270401757328727,2.734888795173902.498858608832961,1.236966150157969.909405346215863,2.509254396999495,1.38546513775691,3.755834115811012.294111024788435.77022022672827.673151283306652,1.508705625182301.953067443871987,2.283486057058326.323024476208957.894175228349923.569222462732796,1.815802019766124.866583996537884,2.719639736352292.324397676400622.986036043874265.694229155937137,1.957674234980914.998504987604974,2.94961761540435.348956900144913,1.137676053465839.644105083234535,2.291759560309401.970278858645543,3.436538665571788.109982432306424.38602390736196.284318645921303.757701403141255.357761777842825,1.149348650781576.189346767014285,1.00938160467831.569340420252047,1.967976570294013.760265270513628,2.975353819545489.074855056691376.39484445871949.134357775230455.793105905865559.223801395422925,1.184547694141656.216612230033206.947989464106286.467349835300411,1.888631753610753.663871424490935,2.840590898233131.126474656939536.612588282435354.162109218772457,1.243462225424082.274605699458334,1.859542908247931.078418796090773.429480764339132.238036298005682.843708527300805.325588173916913,1.272062668044782.116101088249707.567819220317688.199512354374747,1.142402732493792.292980067801182,1.714748503254668.154534272465753.946446357890636.336466770042534,1.889675121754408.452672462537521,2.840884035889758.308967613491404,2.529080003299896.630786830417492,5.057743943126297.871399293067952,7.593785330856917.428348702951553,4.514748946685359.518655881218365,9.044176415143738.459965133630249,13.577130550208494-.010602033760733.071195100602381-.021280373384798.14238017817388-.031977744725737.213555590719807-.095380574895898,2.329903605391337-.190780241176981,4.659807091447874-.286199058507918,6.989720003861294l-.035693390958841.194058393771229c-.150077538321057,1.55377214480086-.289852293281001,3.1086587565851-.457349166073982,4.660546449883441-.043430444973637.402515171008417-.183931138086336.793751082273957-.25940312683997,1.194004020394459-.032858067466805.17418211831864.001357731873213.360066945289873-.02151458985827.537213485376014-.08191538124629.633881227546226-.171366488679269,1.266856205516888-.265471239485123,1.899057501803327-.07718588453281.518670700445-.145090017795155,1.039919579601701-.252594923360448,1.552596756919229-.180217792567419.859432124592786.014920057155905,1.773141085697716-.435962215949985,2.601288560521425-.155515153746819.285619863660031-.04104659778568.662564867086985-.163123487447592,1.023273073684322-.224916067163576.664527566079414-.222298341039277,1.403352039895253-.344622355001775,2.105979637834025-.147750859396183.848618908194112-.308228749781847,1.696050919705158-.499415601414512,2.535730494822928-.113133988374102.49691007725778-.316423557540475.97284713074805-.439856391223657,1.468012725385051-.067033382552836.268932746754217-.018258336835061.566062953930668-.080473891013753.836992304894011-.130378212379583.567805915596182-.305900736653712,1.125077173179307-.451017375107767,1.689717130138888-.119795188098578.466053743904922-.184256878999804.949712646946864-.340453239394265,1.402346195976861-.360031310701743,1.043310888037013-.540342223121115,2.134501782989901-.887463584447687,3.180279883716139-.276603723181324.833360742450168-.534154727971327,1.673026428015874-.805995510223511,2.508001589008927-.387292718916797,1.189577112872939-.774052549801127,2.379424846489201-1.172986236688303,3.565110769064631-.177221396455934.526675047936806-.37422217720632,1.047231531854777-.579559684656488,1.563688373844343-.197559902480862.496993301969269-.510935870677713.967010992026189-.610273960399354,1.480426534524668-.315711928529709,1.631759130725186-1.240783754950826,3.018594822982777-1.761080796899478,4.573012106397073-.531309333648096,1.587396923659981-1.398277912125195,3.061865924601079-2.108798373243189,4.59015985287806-.301335162592295.648184332014353-.558222021198162,1.317456918754033-.870899608842592,1.959804529435132-.60351985059242,1.239850652398673-1.181273982765561,2.496357958641966-1.861051945817962,3.694111101383896-1.506697341499603,2.654869537511331-3.067615262347317,5.279024579895122-4.611486255585987,7.912717689647252-.403480653678344.688307543498013-.804916144905292,1.379300768790927-1.243538887616523,2.045184502772827-.837172747489603,1.270942231461959-1.681765954634102,2.537809640460182-2.555857719567939,3.783491320235044-5.248594506512745,7.479620610734855-11.215297209877463,14.335499322460237-17.903397432259226,20.562403423335127-8.297424360742298,7.725218295523518-17.433670380041804,14.27898883699163-27.444739948499773,19.602340105837357-2.266284188437567,1.205076516464032-4.532252903947665,2.426879709757486-6.875311299263558,3.467780418564871-3.982067880526301,1.769043790849537-8.016004696663003,3.421320469084094-12.147757583477869,4.824272562811529-6.376290713016715,2.165074413822367-12.873895489878123,3.863256199931129-19.51029957506762,4.990193039160658-3.097568330735157.526004604706031-6.223205541749849.905950801734434-9.34737686632252,1.249917498689683-2.453518906071622.270148324118054-4.924144175660331.386020780339095-7.387678830975347.563318752398118-.336850885621971.024260666763439-.676672121968295.007531058106906-1.015180004287686.009768142839675-1.111818904060783-.004849543214732-2.223601651830904-.012429034857632-3.335335485573523-.00950754987025-.093352448317091.000237440794081-.186517613992692.071307850370431-.279763416807327.109462925724074Zm-2.452669111860814-5.780619308154201c.694678150122854.005869614373296,1.3895753649158.024035929054662,2.083936491862914.011899684273885.298690657378756-.005197053673328.596285037838243-.073252248135759.894369091482076-.112742556982994.724195823750051-.006546683740453,1.448391766834902-.013112458864271,2.172587590584953-.019659142606542.736264942497655-.039080599082808,1.472529765660511-.07814210678589,2.208794708156347-.117222705870518.357500948755842-.007769634392389.714992351820911-.015539328453087,1.072493419911552-.023328054228841.476409503855393-.04028485787785.952809462021833-.08056977542401,1.429218965879045-.120854633300041.466805102880244-.035533675898478.933529783947961-.071946092419239,1.40043332600726-.106429085913987,3.978059525605204-.293934600491411,7.928050942529808-.810410672114813,11.853584762829996-1.513111509546434,6.653281153074204-1.191019082552884,13.166999536704679-2.892231256028026,19.539714871072647-5.166439535098107,3.314206845814624-1.182717954408872,6.572468987764296-2.486848793143508,9.776074629085997-3.929109168886498,1.716534970635621-.772735007611118,3.376428166593541-1.671431183418463,5.060195814028702-2.516634718447676,1.213714715793685-.609260991481278,2.453023307551121-1.174373737678252,3.630687810955351-1.847093200065501,2.214671394009201-1.265081128862221,4.398203350436233-2.58511312749215,6.582993187883403-3.901738864507934.575427781621329-.34676281454631,1.105104550508258-.768881856962253,1.660790076593912-1.149083839864034,1.502944700832813-1.028243613987797,3.015993386195987-2.041894960646459,4.510517841366891-3.082257432752158.955288187516999-.664964346486158,1.902588789311267-1.344068612308547,2.821431085019867-2.058060253551957,1.326300010554405-1.030607852382673,2.633703149829671-2.086344512792493,3.928537010142463-3.1562879157118.586388841515145-.484558562558959,1.110166353786553-1.044158715403682,1.685740891549358-1.542683945051976.772967511311435-.669483290226708,1.582690915736748-1.296772330097156,2.350500774722605-1.971920037425662.754122283200559-.663167039187101,1.486810927892293-1.351860585622489,2.208583007595735-2.050378446389004,1.04865938511648-1.014874010452331,2.088956393166882-2.038907237318199,3.112989105418819-3.078564028650362.488383115611214-.49584366972158.919988975707383-1.047103938293731,1.396990652603563-1.554760409549999.793035545553721-.84393627684949,1.601939002597646-1.67297696782407,2.404009181012952-2.508398958552789.018025858891633-.018788532848703.034552329325379-.038999255504677.051667291245394-.05867172004946.482511365364189-.555256893239857.979877011115605-1.098392895222787,1.444627673372452-1.668118086698087,1.099828829814214-1.348208208419237,2.191661716000453-2.703110458154697,3.271961742866552-4.066981728710743.633339196578163-.799609781315667,1.237592091238184-1.622216467196267,1.856321854025737-2.433411029687704.727299220714485-.953554153900768,1.480200569290901-1.88871529278731,2.177449133465416-2.863706824604378.710865626293526-.994017636268836,1.379274067840015-2.019172633239577,2.044991817747359-3.044535370279846.789480762181483-1.215987720115663,1.567421624273265-2.439818069460671,2.329765310514631-3.672986502881031.734878193597979-1.188645439044194,1.443872063087838-2.393299140918316,2.163402223486628-3.591433843746927.238788626375026-.397609259311139.48939469501056-.789016077636916.709403254651988-1.196842462210043.558192462454826-1.034779043373419,1.083982445994479-2.087382660780349,1.656082020686881-3.114285185998597.833328145270571-1.495833356930234,1.47702534983182-3.085086119865082,2.309813568524987-4.583118446549634.444382829440656-.799358986478182.720883860736649-1.692650563367351,1.065984140110231-2.54643175721867.250079431214544-.618701904466434.481514819857694-1.244947185899946.733498496631-1.862854410161162.473623335908997-1.16144935745433.968176429605592-2.314500996886636,1.430734283736456-3.480277066395502.321439222678237-.810074472648921.610732503428153-1.633198883564546.902364358138584-2.454762214254515.458028872133582-1.290342335601963.928539926440862-2.57697914399796,1.350882716680644-3.879076189428815.331041745033872-1.020696092042272.588001781925414-2.065147645911566.894885654764948-3.093994344239036.259418999175978-.869724112220865.572468426631531-1.724278411089472.808898660481645-2.599816582100175.306574789143269-1.135172696038353.559324059449864-2.284848200370106.83782378217802-3.427642316270067.203980820690049-.836983981844241.453843359335224-1.66533790923495.608774485854156-2.511162668975885.235244001987667-1.284422617836753.646296114116922-2.539547232672703.669717310951455-3.861320744408658.001737625665555-.097779022678878.064458734981599-.193019443635421.087282316879282-.292117665534533.097870256126043-.425199989989778.201615168789431-.849485021171859.281484043047385-1.278138655456132.031805413813345-.170713930714555-.019971116456873-.357243104645022.013338936558284-.52737486640217.131286678901233-.670382245472865.301457369012496-1.333590994790939.417752063785883-2.00628163802503.088364957704471-.511135800712509.113010403912995-1.033036920727682.172884101277305-1.549352950316461.257492110209569-2.219988787192051.552992774937593-4.436303410057008.765072573431098-6.660604496442829.160530761651899-1.68362874154991.274017379018915-3.376238461882167.304840991049787-5.066739718443387.053633893141523-2.942029098764579.027280858494123-5.88551278048908.034468877644031-8.828385871509454-.008559034176869-.069329289821326-.017099036638683-.138648914616169-.025638979434007-.207978085100876-.036882768596115-.974864631152741-.07376553719223-1.949729262305482-.110629214406799-2.924593774122513-.008569654994062-.067630156738232-.017139309991762-.135260313477374-.025728116037499-.202881043859634-.136884892865055-3.067509738831177-.408874800221383-6.1213444183295-.886298085217277-9.156521477351816-.298463039696799-1.89744671884273-.507839947371394-3.810526709806254-.859214822352442-5.697603027896548-.411223322689693-2.208646844597752-.932373352256036-4.396836278395313-1.407955048434815-6.593456433774008-.133383587313801-.616029867219368-.24203267143821-1.239799721080999-.417225560950101-1.844005609291344-.683467052782362-2.356861563062012-1.38629038561885-4.708116478300326-2.087928143351746-7.059669456893062-.26339416038536-.882853159562728-.513024622570811-1.771538845944633-.821611796893194-2.638808935643283-.652503894869369-1.833877801834205-1.305496826595117-3.668932826431046-2.020772848371053-5.478822351172312-1.046591687620094-2.648253009969267-2.147965580492382-5.270969067903025-3.503690050660225-7.785943926065556-1.150496317253783-2.134274155672756-2.124865906123887-4.363528529667747-3.276435219209816-6.49718889815631-1.942012060142588-3.598242193897022-4.1083554836041-7.06532997130671-6.465662585938844-10.406515108774329-1.568857362428389-2.223615212131335-3.163406576171838-4.432943048504967-4.840299300511106-6.575209001598523-1.259075898233277-1.608496949384971-2.656456535103644-3.10987332312834-4.012488406491684-4.641027928747462-1.371843431350499-1.548956615876705-2.732939389721651-3.109907504643161-4.162090091122082-4.605053190014587-2.619492963034645-2.740486416013482-5.371453644102075-5.345535554859453-8.288813280114482-7.769761256981838-1.77117934841408-1.47180516737717-3.536148680288534-2.953585339228084-5.355920654834335-4.36379756407041-2.565544424145628-1.988177064394222-5.192577566665932-3.898064587966473-7.949016091413796-5.615696609136648-2.254513972548011-1.404882346437262-4.556722750341578-2.732978349785299-6.823770379412963-4.118059361505402-1.556555443485195-.950990650196218-3.21220458949756-1.699503414203718-4.85359429768323-2.481233265171795-.475201198143623-.226326782572869-.903191483146657-.549766504102081-1.369593969639027-.797032470539307-.800172637153082-.424171737384313-1.633875084939064-.783556294248228-2.455182721872916-1.16191015959339-3.293816059092933-1.517421197749172-6.629898661478364-2.937650820310409-10.064049729029648-4.114777644019341-1.332810625819548-.456845714580595-2.653616307998163-.952757640236996-4.000422994478868-1.363542778373812-1.27982553854963-.390357906147074-2.536950267791326-.851009552169671-3.846604589285562-1.154744386437415-1.596765525529918-.370328173673443-3.185040598591513-.791693812711856-4.750116700812214-1.277526978446986-.668893106769247-.207638726659752-1.428470750201086-.101167829540827-2.015664995686166-.578175053098676-.960004089190988.093817698496423-1.839487761488272-.308600300895705-2.760507100896575-.455858655302109-1.690007271776267-.270207182179547-3.370203959704668-.601058851348171-5.058538206740195-.882350489299824-.864908215799005-.144101076096376-1.738584903578158-.235448133054888-2.608233828777884-.351122023946118-1.227557867216092-.163281140043182-2.455074777126356-.327005916069538-3.682611956854089-.490542284024741l-1.575168526036578-.154075050860229c-.049063516096794.005588012103544-.097302292253516.001408395964063-.144697252002516-.012536342662315-.62733162035147-.054587016237747-1.254653695013985-.109173972809003-1.881975769674682-.16376092938026-1.038752646514695-.066046083098627-2.077514838720163-.132092225864653-3.116381988780631-.198146184242432l-1.576418508428105-.12820109695167c-2.960478620027061-.017464625148932-5.920958357710333-.036277638885622-8.881466260683737-.047530345640553-.120220288099517-.000455536305708-.24071478337828.070446431585879-.361077866969936.108107438004481-1.242462773712759.055667301524409-2.484925532507987.11133221662476-3.727388291303214.166997131726021-.477028648423584.043123328459842-.954066842537941.086246597252284-1.431095505879057.129372312135274-1.469291548439287.152638356231364-2.940267990365101.290770481801701-4.40742134708853.4617554200413-1.664853176251199.194024812336465-3.32795283645828.405322256444379-4.988667218598493.632089688602719-1.246443440264557.170199965748907-2.497318415540576.330055322038788-3.729431994823244.577947204184056-1.875659436400383.377370963296926-3.743121305205932.800957934981852-5.602332883494455,1.253163074818076-1.852299273363315.450525282141825-3.700751411070087.923946982075904-5.531460476493521,1.45436458711265-1.965677102831251.56952184972306-3.918646136427924,1.187552705539019-5.859122702524473,1.838187476427265-2.336025762617282.783255817918871-4.662757949972729,1.594687660251111-6.918360258498069,2.598201359693121-1.526872065016505.679304721140397-3.103002415751689,1.251800874238143-4.610377150862405,1.970130066983074-2.541094822383457,1.210950257723198-5.050685316851741,2.48872658368964-7.561215880148666,3.762649969572522-.732942299695424.371910585558908-1.417850867042944.837310097951558-2.135969028448017,1.239908481689781-1.002959117251521.562303919507031-2.035463157106278,1.074186997639117-3.020552462705382,1.665574922046289-1.205590819052304.723769084363084-2.375649097411952,1.5067644972587-3.559963252082525,2.265901100100564-.194823448664465.124880949838371-.387031411035423.254365132332168-.575091655016877.38920194504135-.868690240027718.622834738650454-1.710161031060125,1.287851848261198-2.609040500256015,1.863311685739063-1.253819259838565.80269518330806-2.487172513057885,1.626891932330182-3.6299950018456,2.583848464862967-.264214700233424.221239524379598-.576117604679894.384580009953424-.84964420922006.595847740233694-.816939442784133.630981218607303-1.637615961331903,1.258111105931675-2.433586581335476,1.914911854346428-.545627311730641.450223187296615-1.038713005866157.963812234463148-1.580453554366613,1.419138223139271-.558265701800337.46921722490697-1.170346774890277.87572885256759-1.716554040276606,1.357646121698053-.686616721886821.605806670036145-1.306903173239334,1.287298670636119-1.99897095729284,1.886274469687123-.696434881016103.602757381225274-1.396651631983332,1.186685376069363-2.025313416588688,1.872544852575629-1.026245998684317,1.119610338479106-2.156204135937514,2.143598605507577-3.228641317804431,3.221619167679819-.763201624067733.767181481202897-1.594576463634439,1.458766345771437-2.274453188698317,2.32030170863618-.629297250914533.797448997661377-1.431506160412027,1.455766760729603-2.110049011391311,2.217682959770173-.930552146834088,1.044885273254295-1.842047289217589,2.109134532565804-2.714829005944921,3.202502623888904-1.155295037386168,1.447283765372958-2.280617009171692,2.919254858603381-3.390530900183876,4.401799069273693-1.175407540800734,1.570054081164926-2.320234580633041,3.163066676403105-3.471626069485865,4.75097882490536-.17791152418431.245357761208652-.311935083918797.522033655690393-.479083429409002.775792408854613-.693409761208386,1.052672761331451-1.442630531744726,2.072501859884142-2.075541217100181,3.160157268062903-.817596660242998,1.405034064580832-1.758959479608166,2.733937867910754-2.509248305941583,4.18044073252895-.453596683881187.874495742758882-.986263820599561,1.707821457064711-1.477642098763681,2.562950724226539-.418324769829269.728012299609873-.863447985559105,1.443466297786472-1.234148601854031,2.195335970052838-.596050026164448,1.208920365137601-1.138094546320644,2.444401343008394-1.707621997513343,3.666489233309221-.398427106894815.854946594481589-.841412354558997,1.691104849206567-1.200716635346907,2.56198017369843-1.266095743652841,3.068706179960827-2.535290197312861,6.13681068079768-3.741444384992064,9.229279396985476-.654589857964311,1.678306733517275-1.215787084773183,3.395381496707159-1.75856822775313,5.11408919807036-.34513171551589,1.092852635140844-.579299446180812,2.220745615801206-.862956445165764,3.332998273025623-.372757752109464,1.461625796772751-.754544235274807,2.921047292906223-1.114615646305538,4.385788037036946-.245705872519466.999502660698454-.455354035299024,2.007812620257027-.691965013264053,3.009625001873246-.130480399771841.55246475129934-.312337015953744,1.094126785099434-.418166565290448,1.650707238898576-.111349485883693.585585078198164-.132346925845923,1.188201883603142-.240777459115634,1.774511616148629-.2832770874993,1.531775925810507-.622733127793254,3.05368326603093-.879159500644164,4.589655467543707-.128668070432468.770699112732473-.11406726009227,1.56444062974515-.183696548952867,2.346028540845509-.173191043841143,1.943985335573416-.357535272931273,3.886984533433861-.537400067241833,5.830374481470244-.018514597682952.017945424206118-.052150286390315.035529040782421-.052575262005121.053883466289335-.001079233770724.046282120464639.012809892419682.092925093877056.020697881105662.139416003038605-.084975750063677,1.481228053927225-.198049003747656,2.961478608592188-.24977824464986,4.443859537778735-.169993219940807,4.871248707863742-.133553162173484,9.739119748455778.312226260013631,14.597931897592389.080825592589463.88095783404151.145720379403429,1.763572564806964.204483491188512,2.646301705170117.023690715475823.355872629438636-.017725200854329.717485960535669.023190955776954,1.070373336639932.040872962628782.352543447790595.170511557269492.694148283807408.221264788189728,1.046295279373226.158677348012134,1.101061222639146.277990049693472,2.208081329472407.451806746990769,3.306583378151117.14960487805547.945499123399713.177047086013772,1.908066689567931.527952837706835,2.828266938680827.159088191156115.417202826489302-.068981361826445,1.009332420415376.138736915825575,1.373839470581515.262951845292264.461477564407687.100680726845894.913137627463584.23058867634245,1.354061401558283.158979281171924.539620876077606.21112256392189,1.109980501403697.323886965667043,1.664108900728024.227950775417412,1.120147241894301.442754267412965,2.243725255411846.706014442366723,3.355711762174906.242408511197937,1.023898730956716.544119283225882,2.033715402647431.814308983102819,3.051162817531804.227068469168444.8550666095216.413137945621202,1.722515934810872.675639910539758,2.566367844272463.657110979816935,2.112413029450181,1.290242578477773,4.23508138055513,2.039186952326418,6.315382710921767.866684035961953,2.407359955708671,1.69444084864881,4.832022254373442,2.762346565083135,7.164519674213807.663871839979038,1.450015694130343,1.227490498145926,2.946676844001558,1.911594200037143,4.386547436655746.982122717539823,2.067096109762133,2.010642403383827,4.113079957873197,3.060042582206734,6.147089914557,1.471930310657626,2.852992324038496,3.125600520736043,5.602591249129546,4.865531126728456,8.29915685085507,1.895201484301651,2.937199651512856,3.872759419817157,5.8151939116633,6.020822700240387,8.578154718628866,3.322892913811302,4.274076786083242,6.843568268492163,8.372921309179219,10.652595522096817,12.219222900632303,1.335878334659355,1.348942225218707,2.731618220128439,2.640142188402024,4.128368878213223,3.926938187882115,5.143454617544194,4.738608300714986,10.655190830060747,9.003914607015759,16.528323803408057,12.80160352234634,8.921357329958482,5.768702700399444,18.416537000088283,10.337214390308873,28.514345919689731,13.64952699859532,3.531532974526272,1.158399977986846,7.106253996043961,2.156180542664515,10.726660930788057,2.996908443481516,3.701964712668996.85966160065982,7.436258899728273,1.545710542774032,11.20067631864913,2.050687105462202,2.242657028606118.300839290863223,4.501454596631447.48132723076742,6.752993104166308.715915073751603.475469190438162.046005686999706.950928954518531.091992222949557,1.426398264291493.137978818564079.357825010474699.012164573778136.715640355922005.02434817926769,1.073465366396704.036512753044008.735616249450686.047899085271638,1.471242044595783.095798230211585,2.206858294048288.143697315483223.725534470137063.017536858285894,1.45107848596308.035073776240097,2.176670230248419.052610992532209.523900811371277.040714426120758,1.047811168431508.081428911908006,1.571711860467985.122162429412128Z" fill="#4f4e4e"/><path d="m132.446606093111768.060673573591885c-1.832083082936151-.016415806266195-3.664156620183348-.032831552863172-5.496230172342621-.04924491303882.007467085555618-.038509879545927.016221064353886-.076727719655537.026280997939466-.114648628148643,1.67513070109635.021883106169298,3.350295052452566.041437182953814,5.025319269727333.069665369856011.148692921702605.002506926136448.296441017489997.061482463637731.444629904675821.094228171331451Z" fill="#b8a39c"/><path d="m130.72592360505223.037299388996871c-.68495188351153.038606633186646-1.369903767023061.077213266375111-2.054865196223545.115819839894357.684942337818939-.038606692854955,1.369903767019423-.077213266375111,2.054865196223545-.115819839894357Z" fill="#a7938c"/><path d="m130.724768021136697.244088409967844c-.684171953515033-.046460631438094-1.368353452722658-.092921322545408-2.052554028394297-.139384519409759.684162422739973.046458185348456,1.368362998413431.092921382213717,2.052554028394297.139384519409759Z" fill="#a7938c"/><path d="m130.412333627431508.177535074275511c-.475891903402953.039946821452759-.951783806805906.079893642907336-1.427685240985738.119838018269547.475882357713999-.039946881120159.951783806807725-.079893642906427,1.427685240985738-.119838018269547Z" fill="#a7938c"/><path d="m130.25761200323177.409275691210496c-.372740981983952-.041905499082532-.745472403359599-.083813324920811-1.118241992586263-.125723775851839.372731436293179.041905439415132.745481949052191.083813384588211,1.118241992586263.125723775851839Z" fill="#a7938c"/><path d="m130.25736235338627.318602930229645c-.372574543780502.039898153962895-.745149072647109.079793921503551-1.117742692895263.119689569708498.372564998091548-.039898213630295.745158633257233-.079796248259299,1.117742692895263-.119689569708498Z" fill="#a7938c"/><path d="m130.177396001443412-.103219967595578c-.01005993358558.037920908493106-.018813912382029.076138748602716-.026280997939466.114648628148643-.310509648770676-.003811939941443-.62100976676993-.007621433791428-.931528991070081-.011428660553065.319254066962458-.034403573413329.638536800832298-.068811740669844.957809989009547-.103219967595578Z" fill="#dfd1cb"/><path d="m129.68250213457577,132.419781623844756c.010697371340939-.071175412545927.021375710966822-.142360490117426.031977744725737-.213555590719807-.010697371337301.071175412545927-.021337528196455.142360728786116-.031977744725737.213555590719807Z" fill="#aba9a9"/><path d="m129.680653857150901,139.603560021477278c.011897796986887-.064686131257986.023795593973773-.129372262515062.035674299575476-.194058513106029-.011878645935212.064676704899284-.023776442922099.12936283615818-.035674299575476.194058513106029Z" fill="#b8b6b7"/><path d="m134.320475743574207,5.981695277389917c-2.823359380230613-.003651134137726-5.64671519643889-.006345253038489-8.470068101632933-.012559465005324-.257969299951583-.000567201832382-.515893032636086-.023696242134974-.773901371638203-.036344232537886.120305749775071-.037651818732229.240800245053833-.108553786623816.361020533153351-.108098250318108,2.960507902975223.011252706754931,5.920987640656676.030065720491621,8.881466454604379.047499322143267.00086027890211.036471343522862.001348007333945.072983315624697.001482485513407.109502625718051Z" fill="#839198"/><path d="m130.639450269620284,6.362331885743515c-.627293452504091-.054584391144999-1.254577374234941-.10916633620036-1.881918525359652-.163755798528655.627264830345666.054581825719652,1.254586905006363.109168782290908,1.881918525359652.163755798528655Z" fill="#87979e"/><path d="m130.486056178575382,6.528943279266059c-.52503708396398-.051358230951337-1.050055076542776-.102716342568783-1.575130343273486-.154074812190629.525017992580615.051358111616537,1.05007416792796.102716461903583,1.575130343273486.154074812190629Z" fill="#87979e"/><path d="m128.911735727957421,5.981692890967679c-.000134493096994-.036516923671115-.00062222152701-.07302889577295-.00148250042912-.109500239295812.525472642220848.042764722481479,1.050945478364156.085498421465672,1.576475558822494.128237251300561-.524956336385003-.006243025685762-1.049979477693341-.012488855467382-1.574993058393375-.018737012004749Z" fill="#7f8d93"/><path d="m130.414010070595396,6.09980028568225c-.476990420906077.043116407860907-.953980841813973.086232815722724-1.431038127313514.129355965180366.476971299693105-.04311175435123.954009493807462-.086235023143672,1.431038127313514-.129355965180366Z" fill="#808f95"/><path d="m129.711310526490706,125.820352388341234c-.008540002461814-.069319624794844-.017080004923628-.138639249589687-.025639039102316-.207968539410103.008559093845179.069319744128734.017099096308812.138639368923577.025639039102316.207968539410103Z" fill="#bdbaba"/><path d="m129.711336003409087,122.687780409783045c-.008569714662372-.067620611048369-.017139369658253-.135250767786602-.025689992940897-.202871259499261.008588865715865.067611184691486.017158520713565.135241341430628.025689992940897.202871259499261Z" fill="#b6b3b3"/><path d="m193.519657274775454,59.2896853143111c.291241784714657.297657783105024.31234139798471.590429049429076.199184727422107,1.020717001192679-.535781310314633,2.037098385328136-.994422858106191,4.094367708221398-1.495190727935551,6.140873040058977-.129134737546337.527701125451131-.360408656626532,1.033428352656301-.457894835875777,1.56517436860122-.158345633364661.863673649215343-.174394500412745,1.757390437584945-.378001617118571,2.60789398259476-.326719586946638,1.364667810382343-.332398020953406,2.758758658709667-.507471599677956,4.136087388086708-.173909594370343,1.368267243909941-.307451894859696,2.741598029264424-.467779045389761,4.111649372804095-.368417122059327,3.148480699344873-.891827498329803,6.270008190636872-1.806229876521684,9.309754355787845-.434808374448039,1.445401014317213-1.209698246460903,2.740082232700843-2.091684277118475,3.956694531678295-.580114389957089.800257495222468-1.171345759204996,1.610535691344012-1.869807733224661,2.303166144512943-1.486851944298905,1.474489073011682-2.848583831551878,3.07882302865255-4.526104200962436,4.360139383314163-2.966397655991386,2.265764253136695-6.20745276231537,4.018085367028107-9.715243546519559,5.281632158704269-2.045171685167588.736706345610401-4.135563282481598,1.313090263552112-6.268120416008969,1.738373252014753-1.800321738164712.359019426190571-3.600946134080004.717588295521637-5.395166883829006,1.10545587980414-.569638813229176.1231442560902-1.134442477075936.303547391690699-1.670443244160197.530906282106116-.227991633646525.096689336640338-.387186823232696.372386928573178-.559122897435373.581917476599301-1.611433180216409,1.964005765216825-2.924045429936086,4.121888918855802-3.907244523892587,6.454261706428952-1.585687849377791,3.761576073198739-3.106180137696356,7.551290983299623-4.607030619452416,11.347753637708593-1.205425163616383,3.049143686633215-2.160798735103526,6.186547734946544-3.128674472933199,9.317334581480281-.69660945596479,2.253328107743982-1.374240649709463,4.512655219134103-2.042875806584561,6.774453716605422-.299062717249399,1.011579025352148-.5497012853466,2.03738844489817-.832718891915647,3.05384079608757-.239269110710666.859330300678266-.512255625726539,1.709610187368526-.735655265812966,2.572896293821032-.205126032758926.792644900182495-.367174277043887,1.596556134130878-.542439841079613,2.396776337851406-.281510060307482,1.285355317546419-.556813870916812,2.572028601305647-.837427829577791,3.857580441426762-.396047169342637,1.81431230866292-.81357416985702,3.624232808006127-1.186158390897617,5.443331164487972-.321086822146754,1.567690533476707-.602962574652338,3.143683043062993-.882031297191133,4.719597637986226-.23331281339415,1.317559532770247-.434357255999203,2.640800207333086-.655360066561116,3.960594097146895-.268541515544712,1.603740353013563-.524840444773872,3.209810102311167-.820013600845414,4.808668232357377-.297722343042551,1.612664897076684-.658595989709283,3.213766157148711-.951273793369182,4.827283547811021-.29465555959905,1.624483002351553-.53110722735255,3.259410465438123-.809448725110997,4.886973814654993-.14745411761578.862233450934582-.294705987909765,1.727236524749969-.506266692085774,2.574960179617847-.207585508680495.831806575122755-.45578756768009,1.651083028375069-.932288505084216,2.393232156475278-.464152020231268.722885991270232-1.101500712649795,1.122395149715885-1.928492654737056,1.126542807040096-2.423382492881501.012134747714299-4.847630408299665.005420154706371-7.270212445093421-.050942652555023-.950468425762665-.022112152621048-1.775530075792631-.392444537474148-2.105862770022213-1.400282706448706-.164763281154592-.502732853039561-.293660167393682-1.019503335277477-.403964193565116-1.537341310599004-.233906467670749-1.098171244708283-.440465479505292-2.202128292126872-.666772501635933-3.301951234241642-.226982854641392-1.103187381240787-.471619991101761-2.202743057336193-.694168155489024-3.306780956465445-.11816258626277-.586217826286884-.192291010427653-1.181305536743821-.310310291984933-1.767541559402162-.231501750968164-1.149953159121651-.473258439729761-2.297984837668992-.723428105837229-3.444026245653731-.164707374937279-.754500407078012-.362871210694721-1.501764011125488-.525179395026498-2.256764908994228-.157660760833096-.73337865033136-.26788789893908-1.477324227327699-.437806045858451-2.207610201849093-.143238141961774-.615547339684781-.370354170008795-1.211782255306389-.509024340037286-1.828122003384124-.154227926417661-.685435949138991-.230595214201458-1.388140892468073-.37730757760437-2.075553629527349-.146248802358969-.685214244645977-.345684177802468-1.358866547794605-.50774184081456-2.040933947417216-.494450987334858-2.081077985450975-.971559120620441-4.166362386564288-1.476096564685577-6.244983258698994-.347268829673339-1.430643765466812-.736059277005552-2.851199137416188-1.090746661420781-4.280113706263364-.103712321682906-.417830385575144-.120021769531377-.858425928925499-.235607144712048-1.272034800727852-.290014773929215-1.037637163477484-.645339034221251-2.057697773378095-.915057278043605-3.100172022279367-.255988595015879-.989407770968683-.412720593858467-2.004236779755956-.658103207415479-2.996747549014799-.186622671535588-.754895137371022-.456580199870587-1.488775256882036-.666222071613447-2.238506669182243-.255581347129919-.914058138762812-.482933632651111-1.8359680655376-.729774286548491-2.752520367812394-.220886167822755-.820137100115062-.463362605838483-1.634633786147788-.672144834647042-2.457749968454664-.081360797685193-.320759933974841-.064219049158055-.666955365190915-.149599061403933-.986136683356563-.130211051518927-.486737231940424-.333065664939568-.953939080083728-.46512154094853-1.440286908814414-.350211212618888-1.289790884588001-.654186248117185-2.592533150793315-1.023305212624109-3.876695491801911-.365689802796624-1.272284694218797-.791714474014952-2.527171753297807-1.185223112359381-3.791563911037883-.357910690185236-1.149960529715827-.702249134119484-2.304141498076206-1.062436352942314-3.453371664727456-.421285767046356-1.34411313997407-.834428997375653-2.691239669852621-1.286565253691151-4.02504497695918-.356988587202068-1.05312903430422-.789216512492203-2.080734435770864-1.147324153293084-3.133517260592271-.26811898858432-.788243010338192-.439663774406654-1.609551330890099-.712414632165746-2.395942719087543-.279933557909317-.807122606939629-.641139452476637-1.585685458922853-.945819087963173-2.384743585376782-.152029941329602-.398706164732175-.238437351945322-.822308757709834-.388035766209214-1.222107067103025-.238335705897043-.636980827345724-.508994206029456-1.261772904040299-.758342540510057-1.894736852751521-.668603041704046-1.697240606208652-1.314993133346434-3.403525679300401-2.007427239708704-5.090949155735871-.317411518442896-.773506526972596-.737318677740404-1.504324139818891-1.081991565128192-2.267490853244453-.232004257790322-.513663375032593-.376740282434184-1.068258910073382-.62542289859266-1.572537748933428-.548551063759078-1.11243333344828-1.149127059954481-2.199083374352995-1.706620769269648-3.307257784718786-.309192734031967-.614618187402812-.545142065611799-1.26684825520897-.866722785698585-1.874279321503309-.401671527191866-.758730872062188-.866251632016429-1.483861433059246-1.288101207408545-2.232275038115404-.903661468191785-1.603172879565136-1.772755288071494-3.226415073098906-2.704691941980855-4.812829974842316-.517654334358667-.881206354870301-1.143561749444416-1.698157039978469-1.702621194139283-2.555842960409791-1.162238131451886-1.782995102847963-2.231623900683189-3.632833663975362-3.484594952511543-5.349019790811326-2.530570082535633-3.466109251159651-5.141441428020698-6.874222160784484-7.756245542061151-10.277787088208242-.758847392127791-.987758880111869-1.653669000703303-1.870129546913631-2.466742453056213-2.81747523028298-.479898495104862-.559153429057005-.911753375676199-1.159264641053596-1.383175171858966-1.726021028251125-.558325337753558-.671218055057579-1.154502825143936-1.311571635663313-1.699053513482795-1.993428592532837-.39400378566279-.493359628103462-.868206568417008-.980208973983281-.671056167118877-1.735454516877326.581806138585307-.285928833797698,1.121357229931164.001505992723651,1.652579217177845.14006561169117,1.768913369887741.461373493812061,3.40026706356366,1.246653797774343,4.929392844755057,2.236435254620119,1.631931368694495,1.056334868507292,3.266570552503254,2.111665233936037,4.853023156178097,3.233879599681131.89910130037606.636003948777216,1.730787689601129,1.375953627794843,2.545268204727108,2.1211033694035,1.489887377751074,1.363068916693919,2.972781037582536,2.736260676188977,4.403942560913492,4.160171878727851.968154833266453.963254645723282,1.832277244222496,2.030264319847447,2.761423579824623,3.033750447284547,2.079347683968081,2.245726447919878,4.04215355839915,4.591273121431186,5.934143246933672,6.99388263441142,2.823015619615035,3.584933814378019,5.555773573621991,7.238531511957262,7.702830640380853,11.283427022748583,1.772526825225214,3.339324495214896,3.393791556776705,6.749652179918485,4.691994361775869,10.30875967236716.550453171705158,1.509112838604779,1.229644406143052,2.970908672971746,1.795317470779992,4.474885403673397,1.403111500469095,3.730561433080766,2.68296607891898,7.50205917621588,3.726836369594821,11.352335609522015.721038793644766,2.659496643060265,1.523691416365182,5.296888805301023,2.243601968722942,7.956674324029336,2.519790056338024,9.309550661173489,5.012413785196259,18.626453811805732,7.538390644069295,27.93432485339963.236861619827323.872807135177936.633038356534598,1.702717301510347.963940926714713,2.549135082974317.033157971647597.084804484507913.127101253690853.145818286289796.241926881935797.271684934827135.106595423601902-.162533218650424.210580777133146-.270975658904717.257600680452015-.400145476194666.96917969667993-2.662849709215152,1.943065060137087-5.32408535788818,2.890909067917164-7.994533453076656.441316121929049-1.243384704777782.828644928938957-2.505931708637945,1.242234165192713-3.759188528101731.607933739425789-1.842141544171682,1.213238238084159-3.685158668808981,1.827344936071313-5.525237861833375.827574062239364-2.479696271193461,1.664836223422753-4.956153145261851,2.49303910794697-7.435654564570541.359239757664909-1.075505165104005.67212314372955-2.167700229976617,1.064324403825594-3.230818583476321,2.702711156565783-7.326062952733992,5.354859754534118-14.672450509323426,8.56183522559877-21.800459445427805.967339331738913-2.150037085153599,1.917700287180196-4.31141601536001,3.061759717467794-6.373412462432498,1.279787051607855-2.306615551612595,2.609107751384727-4.587128015758935,3.971837043067353-6.84583845412908.803454127961231-1.331722776237257,1.691010416290737-2.614788595861683,2.580420951020642-3.892115186434239,1.692320607213333-2.430379079462909,3.385408091788122-4.861268852864669,5.135830965948116-7.249673455983611.693498697328323-.946252679060308,1.540558374887041-1.779971089070386,2.317888364275859-2.664776778293344,1.199405618206583-1.36529373054691,2.400918864088453-2.728731896449972,3.594551907994173-4.09905430148865.091785301261552-.10535895213161.128294282374554-.258851020073052.221875553019345-.456050978112216-.820977374500217-.168512598999769-1.571327673902488-.084357612791791-2.259478073836362.171203912469537-1.363287930693332.506288167242019-2.667698965107775,1.141377108890083-3.955887915341009,1.835495306148005-1.956085676152725,1.054020708195821-3.64129497607064,2.41086519360033-5.212446284473117,3.953769011601253-1.916816795641353,1.882339526965552-3.788424153579399,3.807556185343856-5.414434269525373,5.947204334343951-1.299098565144959,1.709455332443213-2.551575703706476,3.45886598047673-3.736529991070711,5.248944903146366-.768421136748657,1.160847645007379-1.398688682307693,2.415909814655606-2.050209635252031,3.650210089787834-.310970421318416.589148518533875-.49904434689779,1.242365182905814-.797138829328105,1.839421958269668-.179324488675775.359157109382977-.463252834408195.66608298236315-.678868806469836.966782250487995-.538416739491367-.076421527655839-.745926351573871-.403678530072284-.785709795469302-.752606755219858-.137973797129234-1.210339254902465-.272175610771228-2.425466148640226-.311815595876396-3.641882536815501-.157509997367015-4.833574667220091.769984674348962-9.457761593896976,2.700596913642585-13.895314964159297,1.364647063519442-3.136688181533827,3.095219270655434-6.039052876280948,5.291865269262416-8.65989283390627.72608554184626-.866291619183357,1.406700048381026-1.794697324798108,2.248574020622982-2.534906263810626,1.713753771069605-1.506787471039388,3.464580174542789-2.973182918050952,5.453043961531876-4.136819164782537,2.345915781672375-1.372799508573735,4.881747619969246-2.239635108204311,7.495619208633798-2.851537328027916,4.198584264306191-.98287503717529,8.425452831799703-1.844992163920324,12.64043833294636-2.7577920290978,2.667688681043728-.577725025391373,5.336992517581166-1.148113350429412,8.002545804609326-1.735469383508644,1.076560547284316-.237215616683898,2.143093109967595-.519508382428285,3.217799681577162-.765560924383863,1.071800385343522-.245383391094947,2.148078878884917-.471073898011127,3.222387535770395-.70539204099623.527415054701123.003855172742988,1.054830169066918.007700799794293,1.582245283432712.011546426846508Z" fill="#4f4e4e"/><path d="m130.489613648656814,53.289307361713327c-.527415114367614-.003845627052215-1.054830228735227-.00769125410352-1.582245283434531-.011546426846508.529062625015285-.220018378009627,1.056799581534506-.261552729549294,1.582245283434531.011546426846508Z" fill="#89756e"/><path d="m52.906557425420033,169.54457846178957l1.57421875,2.3876953125-8.43359375,10.634765625c-.9150390625,1.1640625-2.822265625,3.23046875-2.822265625,3.23046875l.029296875.04296875s2.6943359375-.9658203125,4.0654296875-1.3408203125l13.0703125-3.6025390625,1.5166015625,2.30078125-19.869140625,5.001953125-1.6025390625-2.431640625,12.4716796875-16.2236328125Z" fill="#4f4e4e"/><path d="m65.847963675420033,187.60024252428957l10.0576171875,9.373046875-1.5947265625,1.7119140625-8.119140625-7.56640625-3.986328125,4.2783203125,7.3388671875,6.83984375-1.505859375,1.6162109375-7.3388671875-6.83984375-4.447265625,4.7724609375,8.3271484375,7.7607421875-1.6474609375,1.7685546875-10.267578125-9.568359375,13.18359375-14.146484375Z" fill="#4f4e4e"/><path d="m85.827455862920033,222.36098471178957l-.068359375-.0361328125c-2.216796875,1.19140625-4.5419921875,1.111328125-6.7568359375-.09375-2.3759765625-1.2919921875-3.8662109375-3.2861328125-4.4150390625-5.59765625-.572265625-2.3232421875-.1787109375-4.951171875,1.2255859375-7.5322265625,1.3916015625-2.55859375,3.375-4.41015625,5.6611328125-5.2392578125,2.21484375-.8076171875,4.734375-.6513671875,7.361328125.77734375,3.9970703125,2.173828125,5.13671875,5.5751953125,4.07421875,9.0537109375l-2.4208984375-1.3173828125c.541015625-2.1923828125-.1650390625-4.3232421875-2.76953125-5.73828125-3.974609375-2.162109375-7.40625-.150390625-9.53125,3.755859375-2.1982421875,4.04296875-1.32421875,8.0400390625,2.0341796875,9.8671875,3.380859375,1.8388671875,6.2216796875.4228515625,7.7109375-2.259765625l.1982421875-.365234375-4.9345703125-2.68359375,1.0810546875-1.9873046875,7.2412109375,3.9375-4.8935546875,9.0009765625-1.4853515625-.8076171875.6875-2.734375Z" fill="#4f4e4e"/><path d="m102.342104300420033,211.13344564928957l13.3515625,3.3154296875-.564453125,2.2724609375-10.77734375-2.677734375-1.41015625,5.6796875,9.7412109375,2.419921875-.5322265625,2.14453125-9.7421875-2.4189453125-1.57421875,6.3349609375,11.0556640625,2.7451171875-.5830078125,2.34765625-13.6298828125-3.3857421875,4.6650390625-18.77734375Z" fill="#4f4e4e"/><path d="m121.471010550420033,215.26039877428957l15.39453125.1181640625-.017578125,2.3408203125-6.37109375-.048828125-.1318359375,17.0068359375-2.677734375-.0205078125.130859375-17.0068359375-6.345703125-.0498046875.0185546875-2.33984375Z" fill="#4f4e4e"/><path d="m146.315737112920033,213.72914877428957l2.8984375-.623046875,11.0244140625,17.4228515625-2.84765625.611328125-3.064453125-5.1142578125-7.4501953125,1.59765625-.748046875,5.9326171875-2.669921875.572265625,2.857421875-20.3994140625Zm.8369140625,11.7080078125l6.05078125-1.2978515625-2.9404296875-4.9013671875c-1.0283203125-1.6943359375-2.0048828125-3.7724609375-2.0048828125-3.7724609375l-.0771484375.017578125s-.0732421875,2.3828125-.306640625,4.267578125l-.7216796875,5.6865234375Z" fill="#4f4e4e"/><path d="m161.661440237920033,209.50649252428957l8.1123046875-4.0087890625c3.099609375-1.5322265625,6.142578125-.6572265625,7.5595703125,2.2099609375,1.0478515625,2.1220703125.9228515625,4.0400390625-1.0283203125,5.90234375l.03515625.0703125c2.24609375-.384765625,3.380859375.50390625,4.77734375,2.9169921875,1.5576171875,2.625,2.205078125,3.3486328125,2.669921875,3.4091796875l.0576171875.1171875-2.541015625,1.2548828125c-.5576171875-.130859375-.9951171875-.9013671875-2.552734375-3.5810546875-1.373046875-2.3681640625-2.8359375-2.7470703125-5.09765625-1.6298828125l-4.615234375,2.2802734375,3.5712890625,7.2265625-2.37890625,1.17578125-8.5693359375-17.34375Zm6.431640625,7.0302734375l4.9658203125-2.4541015625c2.3544921875-1.1630859375,2.931640625-2.927734375,2-4.8154296875-1.0029296875-2.0283203125-2.4765625-2.6044921875-4.9248046875-1.3955078125l-5.0810546875,2.5107421875,3.0400390625,6.154296875Z" fill="#4f4e4e"/><path d="m180.777651175420033,198.63930502428957l2.119140625-1.5966796875,11.640625,15.4560546875-2.119140625,1.595703125-11.640625-15.455078125Z" fill="#4f4e4e"/><path d="m192.798158987920033,188.04457846178957l1.9951171875-2.1923828125,19.1064453125,7.751953125-1.9599609375,2.1552734375-5.4697265625-2.3759765625-5.12890625,5.6357421875,2.8447265625,5.2607421875-1.837890625,2.01953125-9.5498046875-18.2548828125Zm7.4951171875,9.0361328125l4.1650390625-4.578125-5.2431640625-2.2744140625c-1.822265625-.7802734375-3.826171875-1.900390625-3.826171875-1.900390625l-.052734375.0576171875s1.3271484375,1.98046875,2.234375,3.650390625l2.72265625,5.044921875Z" fill="#4f4e4e"/><path d="m202.827455862920033,175.75453939928957l1.2919921875-2.46484375,14.416015625-1.3984375c1.7001953125-.1650390625,4.41015625-.125,4.41015625-.125l.0361328125-.068359375s-2.318359375-1.009765625-3.74609375-1.7587890625l-10.4794921875-5.4931640625,1.1591796875-2.2119140625,17.1357421875,8.9833984375-1.2802734375,2.44140625-14.4033203125,1.375c-1.724609375.15234375-4.412109375.18359375-4.412109375.18359375l-.0244140625.044921875s2.306640625,1.033203125,3.6884765625,1.7578125l10.5029296875,5.505859375-1.1591796875,2.2109375-17.1357421875-8.982421875Z" fill="#4f4e4e"/></svg>