<?xml version="1.0" encoding="utf-8"?>
<!-- Generator: Adobe Illustrator 28.3.0, SVG Export Plug-In . SVG Version: 6.00 Build 0)  -->
<svg version="1.1" id="Layer_1" xmlns="http://www.w3.org/2000/svg" xmlns:xlink="http://www.w3.org/1999/xlink" x="0px" y="0px"
	 viewBox="0 0 185.2 185.2" style="enable-background:new 0 0 185.2 185.2;" xml:space="preserve">
<style type="text/css">
	.st0{fill:#606060;}
</style>
<g>
	<polygon class="st0" points="55.7,0 185.2,129.4 185.2,125 60.2,0 	"/>
	<polygon class="st0" points="111.5,0 185.2,73.7 185.2,69.2 115.9,0 	"/>
	<polygon class="st0" points="139.3,0 185.2,45.8 185.2,41.4 143.8,0 	"/>
	<polygon class="st0" points="27.8,0 185.2,157.3 185.2,152.9 32.3,0 	"/>
	<polygon class="st0" points="83.6,0 185.2,101.6 185.2,97.1 88,0 	"/>
	<polygon class="st0" points="0,0 185.2,185.2 185.2,180.7 4.4,0 	"/>
	<polygon class="st0" points="185.2,2.2 185.2,0 183,0 	"/>
	<polygon class="st0" points="167.2,0 185.2,18 185.2,13.5 171.7,0 	"/>
	<polygon class="st0" points="88,0 185.2,97.1 88.1,0 	"/>
	<polygon class="st0" points="185.2,152.9 185.2,152.8 32.3,0 	"/>
	<polygon class="st0" points="115.9,0 185.2,69.2 116,0 	"/>
	<polygon class="st0" points="4.4,0 185.2,180.7 185.2,180.7 4.5,0 	"/>
</g>
</svg>
