<?xml version="1.0" encoding="UTF-8"?>
<svg id="Layer_1" data-name="Layer 1" xmlns="http://www.w3.org/2000/svg" version="1.1" viewBox="0 0 250 424.1">
  <defs>
    <style>
      .cls-1 {
        fill: #000;
        stroke-width: 0px;
      }
    </style>
  </defs>
  <g>
    <g>
      <path class="cls-1" d="M233.7,178.3c0-.1-.1-.1,0,0-.1.2-.2.4-.4.7.3-.5.4-.7.4-.7Z"/>
      <path class="cls-1" d="M232.5,184.6c1.9-1.8-1.3,2.6-.1,2,2-3.5,3.9-7.2,5.5-10.9h-.1c-2.5,3.2-3.9,6.1-5.3,8.8Z"/>
      <path class="cls-1" d="M244,155.3c-.2-.2-.4-.6-.5-2.6.7-1.6,1-2.7,1.2-4,0-1.8,0-3.6-.1-5.5-1.8,12-5.4,23.6-10.8,34.3.4-.3.7-.6,1-.9.5-.5.9-1,1.2-1.4.4-.5.7-.9,1.1-1.3.3-.4.8-.7,1.2-1-1.1.7-.2-.8.7-2.6.5-.9.9-1.8,1.1-2.5.2-.6.1-.9-.4-.6,1-.9,1.2-1.2,1.2-1.5.1-.3.1-.5.8-1-.2.4-.3.8-.5,1.2-.1.4-.3.8-.4,1.2-.2.8-.5,1.6-.7,2.5-.1.4-.2.7-.3,1.1,1.7-4.3,3.2-8.6,4.4-13,0-1.9-.2-1.9-.5-2l-.2.2.3-.5ZM238.1,171.6c-.2.2-.4.4-.6.7-.2.3-.5.6-.8,1.2l.6-1.2.4-.9c0-.1.1-.1.1-.2v.2c-.2.4.1.2.3.2ZM241.8,163v-1.5l.6.4c-.2.3-.4.7-.6,1.1ZM243.6,156.1v2c-.1-.4-.2-.9-.3-1.3-.1-.4-.2-.9-.3-1.3l.6.6Z"/>
      <path class="cls-1" d="M207.4,216.2c-1.3,1.2-1.6,2-2,2.8.3-.6-.2-.4-.7-.2-.6.3-1.3.7-1.6.8-1,1-2,1.8-3.1,2.6-.9.8-1.9,1.4-2.9,2.2-.5.3-.9.7-1.4,1s-1,.7-1.5,1c-.5.4-1,.7-1.6,1.1-.6.4-1.2.8-1.8,1.2.2,0,.3-.1-.1.1,0,0,.1,0,.1-.1-.4.1-1.1.2-1.1-.2-.6.5-1.2,1.1-1.7,1.7-.5.6-.9,1.2-1.3,1.7,7.2-4.1,14-9,20.4-14.6.2-.3.5-.6.8-.9.7-.5,1.4-1.2-.2-.3Z"/>
      <path class="cls-1" d="M174.7,238c-.8.1-2.9.6-4.8,1-1.8.5-3.7.9-3.9.9-.3.4-.3,1-.2,1.6,1.5-.5,3.1-1.1,4.5-1.6v-.9l.4.7c1.4-.6,2.9-1.1,4.3-1.8,0,.1-.1.1-.3.1Z"/>
      <path class="cls-1" d="M214.7,210.1c5.9-6.3,11.2-12.9,15.6-20.1-1.9,2-4,4.4-5.9,6.6-3,3.3-5.5,6.1-6.7,6.8,1.1-.9,2.8-3,3.4-4.1l-2.4,2c-2.2,2.6-4.3,5-6.7,7.5.4-.1-.4.9-.8,1.5-.8,1-1.6,1.6-1.5,1.1.6-.7,1.2-1.5,1.9-2.3l-.9.9c-1.2,1.2-2.5,2.5-3.7,3.6-.2.3-.3.6-.5.8-.9,1.7-1.2,3.1-.8,3.5,1.6-2,4.7-6.3,5.9-6.1-1,1.4-2.7,3.4-3.6,4.7,1.5-1.4,3.2-2.9,4.6-4.4.1-.1.2-.3.4-.4.4-.6.9-1.4.9-1.6,1.5-1.3,1.2-.7.7,0ZM219.4,203.2c.5-.2.7-.1,1.5-.7l-.8,1.5-.7-.8Z"/>
      <path class="cls-1" d="M229.5,186.7c.4-.7,1.3-2,2.3-3.4.4-.7.9-1.3,1.2-1.9.3-.6.6-1.1.6-1.5-.3.1-.7.4-1.2.8-1,2-2.3,4.1-3.4,6,0,.3-.3.7.5,0Z"/>
      <path class="cls-1" d="M97.8,4c.3-.1.5-.3.7-.4.1-.2.2-.3.2-.4h-.2c-.1.2-.4.5-.7.8Z"/>
      <path class="cls-1" d="M5.4,154.9c0,.6,0,1.3.1,1.9.1.6.2,1.2.3,1.6.3.9.6,1.2.8.5-.3-1.2-.5-2.5-.7-3.8.3-.4.2,2.2.5.4-.2-1-.8-3.3-1.1-4.3l-.3-.3c0-.4.1-.2.3.3h.1c0-1,0-2.3.1-3.4l.2-2.7c-1.1-6.9-1.7-13.7-1.7-20.8,0-32.4,12.6-62.8,35.5-85.7,12.6-12.6,27.6-22.1,43.9-28.1.5-.8.9-1.6,1-2.6,0,1.1.4.5,1.2-.6.2-.3.4-.6.6-.9-18.1,5.9-34.8,16.2-48.7,30.1C13.9,60.3,1,91.5,1,124.6s1.3,21.1,3.9,31.2c.2-.2.3-.5.5-.8Z"/>
      <path class="cls-1" d="M244.8,143.1h0q0-.3,0-.2c-.1,0-.1.1,0,.2-.1,0,0,0,0,0Z"/>
      <path class="cls-1" d="M125,248.6c6.4,0,12.7-.5,18.9-1.4,2.5-1.3,5.1-2.5,7.9-2.8-.9.2-2.3.6-2.5,1,5-2,10.4-3.1,13.2-4.9l-.5-.5c-11.8,3.8-24.3,5.7-37,5.7-32.4,0-62.8-12.6-85.7-35.5-9.7-9.7-17.6-20.8-23.5-32.9-.1.7-.1,1.4-.2,2.3,0,.9-.1,1.7,0,2.6s.2,1.4.6,1.9v-.8c-.1,0-.1-.8-.1-.8.1.2.2.5.3.7.1.2.2.5.3.8.2.5.4,1.1.5,1.6.1.4.2.7.3,1.1,5.3,9.2,11.9,17.7,19.6,25.4,23.6,23.5,54.7,36.4,87.8,36.4Z"/>
      <path class="cls-1" d="M247.6,119.3q-.1.2-.2.2c.1-.1.1-.2.2-.2.3-.6.8-2.4,1.1-4-.1-1.3-.2-2.7-.4-4.1-.7,3.1-1-.3-1.3-1.9.5,2.5.8.8,1.2,1.6-.4-3.7-.9-7.4-1.6-11.1,0,0,0,.1-.1.1v1.3c-.2-.7-.1-1.1,0-1.3v-.6c-3.9-18.8-12-36.3-24-51.3-.1,0,0,.3.5,1.2-3.4-4.6-7.1-8.8-11-12.9C188.6,13.3,157.7.6,124.9.6s-16.9.8-25,2.6c-.2.1-.3.2-.5.3-.8.7-1,.9-1.1.8-.7.5-.2-.6-2,.7-1.1,1-1.7,1.7-2.2,2.4,9.9-2.6,20.3-3.9,30.7-3.9,32.4,0,62.8,12.6,85.7,35.5,20.2,20.2,32.4,46.3,34.9,74.4v.6c.4-.1.6.3.4,2.9l-.3-2.9h0c.3,3.5.5,7.1.5,10.7,0,5.4-.4,10.8-1,16.1,0,.8,0,1.7.1,2.7.6-4.2.8,3.3.9-2.5.2,2.2.8,1.1.7,4.7-.8,1.7-1-1.2-1.6-2.2,0,2.7-.1,4.2-.3,5.4v1.2-.4c-.3,1.9-.5,3.9-.8,5.7,0,0,.1,0,.1.1.4-.6.9-1.2,1.4-1.6,2.3-9.4,3.5-19.3,3.5-29.2s-.1-4.7-.2-7c-.4.7-.8,1.1-1.2,1.6ZM245,98.3c.2.8.3-1.4.6-1.9l.3,2.6c-.5,1.4-.8,1.9-.9-.6ZM247.8,132.8h.4c0-.1-.7,2.4-.7,2.4l-.2-4.8c.3.3.8-.3.5,2.5ZM246.7,121.4l-.3-.4v-1.1c.1,0-.3-3.3-.3-3.3.2.8.4.3.6.2l-.3,3,.3,1.6Z"/>
      <path class="cls-1" d="M245,143.4c-.1-.1-.2-.2-.2-.3,0,.5,0,1.9.2.3Z"/>
      <path class="cls-1" d="M218.9,201.1c1.6-1.7,3.6-2.9,5.8-5.8-.5,0-.4-.7-.5-1.1-1.6,2.4-3.5,4.6-5.3,7Z"/>
      <path class="cls-1" d="M83.6,10.6c.5-.2,1-.4,1.5-.5.5-.9.8-1.3.2-.1,0,0-.1,0-.1.1.5-.2,1-.4,1.5-.5.4-.6.8-1.2,1.1-1.7.4-.7.8-1.3,1.1-1.9-.2.1-.4.1-.6.2-.5.6-1,1.2-1.5,1.8-.3-.5,0-1,.4-1.5-.2.1-.4.1-.6.2-.8,1.2-1.8,2.5-2.8,3.6,0,.1-.2.3-.3.4Z"/>
    </g>
    <g id="Group_12" data-name="Group 12">
      <path id="Path_150" data-name="Path 150" class="cls-1" d="M115.4,127.4c.2-.9.7-1.7,1-2.7.4-1.2,1.1-2.4,1.3-3.7.2-.4.4-.8.6-1.2.6-1.2,1.7-2.3,1.7-3.8l.2-.7c.1-.1.2-.2.2-.3.1-.4.1-.7-.2-1q-.2-1.3-1.4-1.2c-.2,0-.5.1-.7.1l-.5-.2c-.1-.7-.8-.7-1.2-.9-.7-.3-1.5-.9-2.5-.6-.2,0-.3-.1-.5-.1-.1-.5-.3-.7-.8-.3h-.5c-.1-.2-.2-.3-.3-.2-.5-.3-1-.5-1.5-.6-.1-.2-.3-.3-.5-.2-.6-.2-1.1-.7-1.6-1-1.5-.7-3.1-1.2-4.7-1.5-.4-.1-.8-.3-1.1-.6-.1-.3-.3-.5-.6-.4-.1,0-.1-.1-.2-.1-.1-.2-.4-.2-.6-.2-1.9-.8-4-1.6-5.9-2.6-1.1-.5-2.4-.7-3.4-1.2-1.4-.7-2.9-1.2-4.3-1.7-1.2-.3-2.3-.8-3.3-1.5-.2-.2-.5-.3-.8-.3-1-.4-2.2-.1-3.1-.8,0-.1-.1-.2-.2-.3,0-.1,0-.3.1-.4.2-.4.9-.5,1-1v-.3c.5-.1.6-.4.8-.7.6-1,1.1-1.9,2.2-2.7.6-.9,1.3-1.7,2.2-2.6q-.1-.1-.2-.2c.1.1.2.1.2.2,1.2-1.3,2.5-2.8,4.1-3.8.2-.1.3-.4.5-.6.4-.1.7-.3.9-.6,1.2-1.4,3-2.4,4.4-3.6,1.3-1,3-1.6,4.4-2.6,1.4-.9,3.1-1.7,4.7-2.4.3.1.6.1.8-.1.9-.4,1.9-.6,2.9-.9.5-.2,1.1-.1,1.4-.7h0c.5,0,1,.2,1.4,0,1.3-.9,2.9-1,4.3-1.2,1.8-.2,3.6-.7,5.5-.6,1.3,0,2.7-.1,4-.3,1.4-.2,2.9-.2,4.3,0,1.9.2,3.8.7,5.7.9.5.1,1.2.3,1.7-.1.1-.1.2-.2.2-.3.6-.3.9-1,1.1-1.6.3-.9.5-1.9,1.1-2.7.1-.2.1-.4,0-.6.3-.4.2-1,.5-1.4,1.1-2,1.7-4.4,2.9-6.5.1-.1.1-.2.1-.4.2-.7,0-1-.7-1.4-1.3-.8-2.9-.9-4.3-1-1.9-.2-4-.4-5.9-.7-1.5-.3-3-.3-4.5-.2h0c-.7-.5-1.2-.6-1.8-.3-.2.1-.4.1-.6,0-.5-.3-1-.2-1.6,0-.6.3-1.2.3-1.9.1-.3-.1-.6.1-.8.2-1.1.1-2.4-.1-3.5.3h-.7c-.6-.4-1.1-.2-1.5.3-.1.2-.3.2-.6.2-.2-.2-.3-.2-.5,0h-1.3c-.2,0-.4,0-.5.2-.1,0-.2,0-.2.1-.1,0-.3,0-.3.1-.4.1-.8.1-1.2.2-.1-.1-.3,0-.3.1-1.5.3-3.1.8-4.5,1.2-.9.3-1.9.1-2.8.8-.6.4-1.3.7-2,.7s-.7.2-1.1.3c-1.1.7-2.5,1-3.6,1.8-.2.1-.4.2-.6.3-2.4.6-4.3,2-6.4,3.3-.2.2-.5.4-.7.5-3,1.1-5.2,3.4-7.6,5.3-1.4,1.2-2.9,2.5-4.2,3.8-1.4,1.5-2.7,3.2-4.2,4.6-1.5,1.5-2.6,3.5-4.1,5.1-.5.5-1.2,1-1.2,1.9s-.3.5-.5.7-.4.4-.6.7c-.6,1.5-1.7,2.8-2.4,4.3-.4.9-.9,1.7-1.5,2.6-.7,1-1,2.3-1.5,3.5-.4,1.1-1,2.2-1.1,3.3-.1.5-.2,1.1-.5,1.6-.7,1.6-1.2,3.3-1.6,5-.2,1.6-.6,3.2-1,4.7-.3,1.1-.3,2.4-.7,3.5v.4c.3.7.1,1.5,0,2.4-.3,2.7-.4,5.3-.3,8,.1,2.4.3,4.7.7,7,.3,1.9.3,3.9.9,5.7.2.6.4,1.1.5,1.7.3,1,.3,2,.6,3.1.5,1.2.8,2.7,1.4,3.8.1.2.2.4.3.7.3,1.5.5,3.1,1.7,4.2.1.1.2.3.2.5.6,2.4,2,4.4,3.2,6.6.9,1.5,1.9,3.1,3.1,4.5s1.8,3.1,3.4,4.2c.3.3.6.6.7,1,.2.5.6.9,1.1,1.2.7.5,1.1.4,1.5-.4.4-.8.6-1.7,1.1-2.5.4-.8,1-1.5.8-2.5,0-.1.1-.2.1-.3.4-.8.7-1.6,1-2.5.9-2.3,1.9-4.5,2.9-6.9.3-.6.3-1.4-.1-2-1.2-2-2.8-4-3.7-6.1-.6-1.3-1.1-2.7-1.7-3.9-.3-.6-.5-1.2-.7-1.9-.4-1.7-.8-3.6-1.4-5.2-.3-.9-.1-1.8-.4-2.7-.4-1-.6-2-.5-3.2,0-.6,0-1.3-.2-1.9-.2-.7-.3-1.5-.2-2.4.2-1.2.2-2.4.2-3.6-.2-2.3.2-4.5.4-6.8.1-1.3.4-2.6.6-3.9.2-1.2.6-1.4,1.7-1.1.3.1.6.3.9.4.6.3,1.3.7,1.9,1,1.3.6,2.7,1.1,4.1,1.6.7.3,1.4.6,2.3.8s1.7.2,2.5.8c.8.7,1.8,1.1,2.9,1.3.4,0,.8.1,1.1.3,1.6,1,3.5,1.5,5.2,2.3,1.8.8,3.7,1.5,5.5,2.3.8.3,1.6.5,2.5.9,3.1,1.5,6.4,2.5,9.4,3.9,1.4.6,2.3.2,2.5-.9M69.7,108.8h0M93.8,73.9c.5.2.9-.2,1.3-.2s.3-.1.4-.3c.1-.9.4-1.8.8-2.7.2-.6-.5-.8-.8-1.1.1-.4.4-.1.6-.3-.1-.4-.6-.2-.8-.5-.1-.2-.4-.4-.3-.7.1-.2.3-.3.6-.3h.1c.8.3,1.1,0,1.3-.7.1-.5.4-.8.9-.5.4.2,1.1,0,1,.7,0,.5-.2,1-.9,1s-.3,0-.4.1c0,.5.5.6.7,1,.1.1.3.2.5.2.4,0,.6-.7,1.1-.5.4.2.6.6,1.1.4.3-.1,1.4,1.3,1.4,1.6s-.3.5-.6.6-.6-.1-.9-.3c.3,1-.1,1.7-.7,2.4-.3.3-.5.6-.6,1-.3.7-.7.8-1.3.3-.1-.1-.2-.2-.4-.4-.9-1-1.6-.9-2.5.3-.4,0-.8,0-1.1.1-.2.1-.4,0-.6-.1-.6-.5-1.4-.6-2.2-.2-.1,0-.1.1-.2.1-.3.1-.6.7-1,.3s0-.9.3-1.2c.1-.2.2-.4.5-.4.9,0,.7-1,1.3-1.4s-.1-.5-.4-.6c-.4-.2-.6-.5-.2-.9.4-.4.7-.2,1,.1,1,.7,1.3,1.6.9,2.9-.1.1-.1.2-.1.3M101.3,66.5c0,.1-.1.2-.2.3.1-.1.2-.2.2-.3s-.1-.1-.1-.2q0,.1.1.2M95.7,75.9c-.1-.3-.1-.6-.2-.8,0,.2.1.5.2.8M83.5,88.9h0c0,.1-.1.1-.2.2.1-.1.2-.1.2-.2M74.3,99.5c.4-.4.9-.6,1.4-.5-.5,0-1,.2-1.4.5M70,107.9c-.1.2-.2.5-.2.8,0-.2.1-.5.2-.8M107.1,67.9c.1,0,.2-.1.1-.2,0-.1-.1-.2-.1-.3.1.1.1.2.1.3s0,.2-.1.2M106.9,67.2h0M115.2,65.9c-.7.1-1.5,0-2.4.2-.2,0-.3,0-.5-.1-.3-.4-.7-.6-1.2-.7-.3-.1-.5-.4-.4-.7,0-.3.2-.5.5-.5h0c.7,0,1.1-.7,1.8-.6.2,0,.4-.1.4-.3h0c-.1-.9.5-1,1-1.1.3-.1.7-.1,1-.1h.1c0,.3-.1.5-.3.6-.5.4-.9.7,0,1.2.5.3.4.9.5,1.4.2.5-.2.6-.6.7M129,59.6h0c.1,0,.2-.1.4-.1-.2.1-.3.1-.4.1M128.8,59.6h0M125.6,70.8h-.3c-.1,0-.3-.1-.4-.1.1.1.3.1.4.1h.3M122.7,58.7v-.2.2M136.4,65.7v1-1h0ZM137.7,68.7h.2-.2M138.4,68.5s.1,0,.1-.1q0,.1-.1.1h-.2c.1.1.2.1.2,0M128.7,56.5h-.1.1M125,57.4h0c-.1,0-.2-.1-.3-.1.1.1.2.1.3.1M66.4,100.6c0-.2-.1-.4-.1-.5,0,.1,0,.3.1.5M66.3,100h.2-.2M63.6,106.7c.2-.2.4-.4.5-.6.3-.3.8-.4.8-1s.3-.2.5-.2c.3.1.3.2.2.5-.1.2-.1.3-.1.5-.3,1.2-.5,1.3-1.7,1.4,0,0-.2,0-.3-.1,0-.2,0-.4.1-.5M68.8,135.9c-.1.4-.5.3-.8.1-.9-.5-1.8-1-3-.3-.4.3-1.1-.4-.9-.9.1-.4-.6-.9.3-1.2.3-.1.1-1,.8-1.1,0,0,.1,0,.1-.1,0,0-.1-.1-.2-.1-1-.3-.5-.6,0-.8.4-.2.5-.6.8-.8.2-.1.4-.3.7-.2.2.1.3.4.1.7h0c-.6.7-.2.8.4,1.1.6.3.8,1,.9,1.7,0,.3-.1.7.4.8.9.3.4.8.3,1.1M76.7,106.3h0c-.2,0-.4.1-.6.1.2-.1.4-.1.6-.1M76.7,106.3h0v.4-.4M80.8,109.8h0c0,.4-.1.7-.2,1,.2-.3.2-.7.2-1M80.9,109.7h0v-.3c.1,0,0,.3,0,.3h0"/>
      <path id="Path_151" data-name="Path 151" class="cls-1" d="M179.8,134.7h0Z"/>
      <path id="Path_148" data-name="Path 148" class="cls-1" d="M191.7,149.2c-.2-1,.5-1.9,1-2.6.7-.8.7-1.5.5-2.4-.1-.4-.1-.7,0-1.1.2-1.1,1-2.2.5-3.4-.1-.1.1-.4.2-.6.3-.8.6-1.6.7-2.5.3-1.5.3-3.2.6-4.7,0-.1.1-.3,0-.4-.7-.8-.2-1.5,0-2.4.5-1.8,1-3.6-.1-5.3-.1-.2,0-.5,0-.7-.1-.8.5-1.6.1-2.4-.3-.6-.4-1.4-.4-2.2,0-1.2-.2-2.5-.4-3.6-.2-1.7-.9-3.4-1.1-5.2,0-.4-.3-.7-.7-.8-.1.6.3,1.2.2,1.7,0,.2,0,.4-.3.5-.3,0-.4-.1-.4-.4s-.2-.7-.3-1c-.1-.2-.3-.4-.5-.3-.8.3-1.3-.3-1.7-.7s-.7-.5-1.1,0c-.5.7-.9-.1-1.4,0,.4-.5,1-.6,1.4-1,.3-.2.7-.3,1.1-.1.5.2.9.2,1.3-.3.4-.5.9-.3,1.1.4.1.3-.1.8.5.9.8-.3.6-.7.2-1.1-.4-.5-.8-.9-.5-1.6.1-.1-.1-.3-.1-.5-.3-.7-.5-1.4-.7-2.2-.4-1.5-1.1-3-1.6-4.5-.8-2.6-2.4-4.9-3.7-7.3-.6-1-1.3-1.9-1.7-3.1-.1-.3-.3-.6-.6-.8-.5-.5-.9-1-1.2-1.7-.1-.3-.3-.6-.5-.9-.7-.8-1.5-.7-1.9.2-.4,1.1-1,2.2-1.1,3.3l-.3.7c-.5.9-.8,1.8-1,2.9,0,.1-.1.2-.1.3-1,1.1-1.4,2.6-1.9,3.9.7-.3,1.1.4,1.7.6.2.1.1.3.1.4-.2.3-.2.6-.2.9.1.4-.1.6-.5.7-.3.1-.7,0-.6.5.1.4.5.2.8.4-.4.4-.9.7-.7,1.5.2.5-.2.7-.7.4-.2-.2-.5-.2-.8-.1.3.5.7,1,.7,1.7s.8.7,1.3.4c.2-.1.3-.4.5-.5.4-.3.9-.2,1.2.2.1.2.2.3.1.5,0,.4-.1.7-.6.6-.8-.1-1,.4-1.3,1-.3.7-.8,1.4.1,2,0,1,.3,1.5,1.3.8.2-.1.5.1.7.3-.1.3-.4.3-.6.5-.3.2-.4.5-.2.8h0c.5.8.7,1.8.5,2.7-.1.5.4,1,.8,1.4.3.3.5.5.1.9-.2.3-.2.7.1.9h.1c.6.4.5.7.2,1.1-.2.3-.3.6-.2,1,.2.4,0,.6-.4.7-.2,0-.4.1-.4.4s.3.3.4.4c.3.2.6,0,.9-.1.6-.1,1,.5,1.6.4.5-.1.7-.7,1.3-.6.5.1.9,0,1.4-.2.4-.2.6-.6.6-1-.1-.7.2-1.1.8-1,.5.1.8.3,1.2-.2.2-.2.5-.2.7,0h.1c.1.4-.1.5-.4.6-.4.2-.7.7-.6,1.2.1.6.7.7,1,1,.1.1.5,0,.5-.2.2-.6.9.2.9-.5.5,0,.5.5.7.9-1,0-1.4.7-2,1.2-.3.3-.5.7-1.1.4-.5-.2-.8.5-1.2.5,0,.3,0,.6-.1.9-.3.5-.1,1.2.4,1.4h0c.7.5,1.2,1.4,2.3,1.3.3,0,.4.4.7.6.3-.2.4-.6.6-.8.3-.5.8-.8,1.3-.7.8,0,.9-.1.5-.8-.1-.2-.2-.4,0-.6.2-.1.4,0,.5.2.2.1.3.4.2.6,0,.2,0,.3.2.3q.7,0,.4.5c-.3.5-.5,1.3-1.4.7-.2-.1-.5,0-.6.2,0,.1-.1.2,0,.3.4,1-.4,2,.2,3.1.2.4-.1.6-.5.7-.4.1-.5-.3-.5-.6s0-.4.1-.6c.1-.9-.1-.9-.8-1.3-1.5-1-3-.8-4.5-.2h-.4s-.1,0-.2-.1c.2-.5.7-.6,1-1s.2-.7-.3-.8c-.9-.1-1.7-.4-2.6.3-.5.4-1.2,0-1.8.1-.7.1-1,.3-1.1,1.1,0,.4-.1.7-.2,1.1-.3.9-.1,1.4.7,1.9.3.2.5.6.5,1-.1.3,0,.7.3.9.3-.4.4-.9.8-1.1.2-.1.4-.1.6,0,.1.1.1.3,0,.5-.5,1-.3.9.3,1.8.5.6,1.3,1.2,1,2.3h0c-1,.1-2-.3-3,.4-.4.3-.7,0-.8-.5,0-.2-.1-.5,0-.7-.2.1-.5.1-.7.2-.4.1-.6.5-.5.9,0,.1.1.2.1.3.2.4.4.8.5,1.2s0,.8-.5.8-.8.1-.8-.2c-.1-.4-.3-.9,0-1.2s.5-.7.3-1.2c-.2-.6-.1-1.3-.2-1.9-.1-.6-.1-1.1.4-1.6.4-.4.3-1.2,0-1.7s-.2-1.2.1-1.7h.1c.5-1.3.5-2.5-.4-3.5-.1.1-.2.3-.1.5.4.9.3,2-.4,2.9-.2.3-.2.5-.1.8.1,1,.2,1.9.2,3s-.6,2.2-.2,3.4c.1.5-.1,1-.6,1.3s-.9.1-1.3-.2c-.3-.2-.6-.2-.9-.4-1.1-.7-2.3-1.2-3.6-1.5s-2.6-.8-3.7-1.4c-1.2-.8-2.7-1.4-4.1-1.5-.2,0-.3-.1-.5-.2-1.7-.9-3.6-1.6-5.4-2.3-1.7-.6-3.4-1.3-5-1.9-.6-.2-1.2-.4-1.8-.5-1.6-.4-1.9-1.1-1.2-2.6.8-1.7,1.7-3.4,2.3-5.2.2-.3.5-.5.6-.9.5-1.6,1.1-3.3,1.8-4.8.3-.8,1-1.5,1.1-2.5.1-.7.3-1.3.6-1.9.2-.5.4-1,.4-1.5.1,0,.2,0,.2-.1.5-1.4,1.5-2.7,1.7-4.1.2-1.3,1-2.4,1.1-3.7,0-.2.1-.4.3-.5.3-.3.4-.6.5-.9.4-1.2.9-2.5,1.5-3.6.5-.9.8-1.9,1.1-3,.1-.4.3-.8.4-1.2.3,0,.4-.3.5-.5.4-1.4,1-2.9,1.6-4.2.9-2.5,2.3-4.8,3-7.3.3-.9,1.1-1.5,1-2.6,0-.2.1-.5.1-.7.4-.1.5-.5.4-.9h0c.8-.7.7-1.4-.2-1.9-.1,0-.1-.1-.2-.1-.1-.3-.3-.5-.6-.4-.1,0-.3-.1-.4-.2-.3-.5-.5-1.2-1.3-1.3-.5-.3-1-.7-1.6-1-.1-.6-.6-.7-1-.9-1.7-.9-3.3-2-4.8-3.2-.5-.4-1-.6-1.6-.8-.7-.2-1.3,0-1.5.7-.1.1-.1.3-.2.4-.3.1-.5.3-.3.6-.7,1.4-1.1,3.1-1.9,4.6-.3.5-.6,1.1-.8,1.7-.6,2.2-1.5,4-2.4,6-.5,1.2-1.3,2.4-1.6,3.6-.5,1.8-1.4,3.6-2.2,5.3-.7,1.7-1.2,3.6-2.3,5.1v.2c-.1,1.2-.7,2.3-1.1,3.3-.4,1-.9,1.9-1.3,3-.4.8-.9,1.6-1.3,2.5-.7,1.4-.9,3-1.4,4.4-.6,1.6-1.4,3.3-2,4.9-1.3,3.5-2.9,7-4.5,10.4-.6,1.3-.6,3.1-1.8,4.1-.1.1-.1.3-.1.5,0,1-.6,1.9-1,2.8-.4.9-1.1,1.7-1.3,2.6-.2.7-.5,1.4-.9,2-.5.7-.3,1.6-1,2.3v.2c.4.6,0,1.1-.2,1.6-.6,1.1-1.4,2.2-1.4,3.6s-.1.2-.1.4c-.9,1.6-1.6,3.3-2,5.1-.1.3-.2.5-.4.8-.4.8-1,1.5-1.1,2.5s-.9,1.2-1,1.7c-.2.6.1,1.4-.4,2-.2.3-.3.7-.3,1.1.3.4.6.8,1.1.2.1-.1.3-.2.4-.3.6-1.1,1.6-1,2.7-.8.6.1.8-.1.5-.7-.3-.5-.4-1.2-1.2-1.2s-.4-.1-.4-.4h0c0-.4.2-.6.5-.5h.1c.8.2.8-.1.8-.9-.1-.7.4-1.2,1.1-1.3h.1c.2,0,.4-.3.7-.3.5-.2,1.1-.3,1.4.2.5.7,1.1.5,1.7.7.5.2.8-.1,1.1-.4.3-.4.9-.6,1.4-.4.3.1.4.4.3.6-.1.3-.3.3-.5.2s-.4-.1-.4.1c-.1.9-1.1.7-1.5,1.3-.3.4-1.7.2-2-.3s-.8-.9-1.4-1.2c-.3.5-.1,1.4-1,1.5-.2,0-.1.3,0,.4.1.1.3.2.5.2,1.1-.5,2,.4,3,.4.1.1.2.3.2.4-.3,1.3-.5,1.4-1.7.6-.2-.2-.6-.2-.8,0-.3.2-.9.3-.9.8s.2.7.7.4c.2-.1.3-.3.6-.3s.3.1.4.3c.1.8-.4,1.5-1.2,1.7h-.1c-.2,0-.6-.3-.7,0-.1.5-.9.6-.9,1.2s0,.8.6.9c.8.2.8.4.3.9-.6.5-.8,1.3-.7,2.2.1.2,0,.5-.1.7-.7.7-.3,1.6-.7,2.5.6.2.8-.3,1.2-.3s.4.6.8.7c.4-.1.4-.6.9-.7-.3-.4-.6-.1-1-.4.7-1,.7-2.2,0-3.3.1-.2.3-.2.5-.3.5-.3.7-.6.3-1.2-.2-.4-.3-.8-.4-1.2-.1-.3.1-.7.4-.7h.1c.4-.1.7,0,.7.5s.7.8.9,1.3c.1.2.4.2.6.1.5-.2.8.1,1.2.2.5.1.2.7.4,1,.7,1.1.4,2.4.5,3.5,0,.1,0,.3-.1.3-1,.2-.6,1.2-1.1,1.6.2.3.4.2.6.1.1,0,.3,0,.3.2-.1.5-.6.5-.9.8-.2.2-.4.1-.5-.1h-.1c-.2-.4-.5-.9-.9-.7-.5.3-.7.8-.5,1.3.1.5.2.8-.4,1-.5.2-.5.6-.3,1.1.4,1.1.4,1.5,0,2.8-.1.3-.2.6-.2,1,.1.5-.2,1.1-.7,1.2h-.1c-.2.1-.5.2-.4.5s.4.4.7.2h.1c.3-.1.3-.5.8-.6-.3.8-.1,1.6-.4,2.4-.3.7-.5.8-1.1.3-.9-.7-1.8-1.3-2.8-2-.2-.2-.4-.2-.6-.2.3.7.8,1.3,1.5,1.8.5.3.9.8,1.1,1.3.1.4.4.8-.2,1.1-.5.2-1,.4-1.4-.1-.2-.3-.5-.5-.5-.9.1-.7-.5-1.1-.7-1.6-.3-.6-.8-1-1.5-.6-.2.1-.5.1-.5-.2-.1-.8-.7-.7-1.2-.8,0,.1-.1.2-.1.2.1.4.8.8.3,1.2-.4.3-.9,0-1.3-.3-.5-.3-1.3-.7-.8-1.6.2-.5-.7-.8-.3-1.4.3-.4.6-.8.8-1.2.2-.5,0-1-.3-1.3-.7-.7-.8-1.3-.2-1.9.4-.4.7-.6.6-1.3-.1-.2.2-.5.3-.7.4-.9.5-.9-.6-1.6.8-.3,1.4-1.1,1.5-2,.1-.8.6-1.3.9-1.9.1-.2.4-.3.6-.2h0c.6.2.8-.2.8-.7-.1-.8.2-1.5.8-2,.1-.2.2-.4.3-.6.2-.7,0-1.4-.3-1.6-.5-.2-1.7.1-2,.6-.3.3-.4.8-.8.9-.4,1.4-1,2.8-1.5,4.1-.6,1.8-1.4,3.6-2.2,5.3-1.2,3-2.4,5.9-3.7,8.9-1,2.2-1.6,4.4-2.7,6.7-.7,1.5-1.2,3.2-1.8,4.7-.7,1.7-1.5,3.5-2.4,5.2-.4.9-.2,1.2.8,1.6.8.3,1.6.2,2.5.4,3.6.9,7.3,1.6,11,2.2,1,.1,1.4,0,1.6-.8.6-1.8,1.7-3.6,2.3-5.5.3-1.1,1.2-2,1.5-3.3.2-1,.7-1.9,1.3-2.8.5-.7,1.1-1.3,1-2.3-.1-.4.1-.8.3-1.1.2-.2.3-.5.4-.8.3-1.3.9-2.5,1.4-3.8.8-2.5,2.2-4.7,3-7.2.4-1.4,1.3-2.7,1.8-4.1.7-2.3,1.4-4.5,2.7-6.5.1-.1.1-.2.2-.3.3-1.8,1.4-3.5,1.8-5.2.6-.7,1-1.6,1-2.7v-.2c.6-.2.8-.7.5-1.3v-.3c.7-.4.6-1.1.8-1.8.2-.1.2-.3.2-.5.2-.1.3-.4.2-.6h0c.1-.2.1-.5.2-.7.7-.5.7-1.4.9-2.2.3-.7,1.5-1.2,2-.6.4.3.9.6,1.4.8.6.3,1.2.3,1.8.6,1.2.6,2.5,1.1,3.7,1.5,1.5.6,2.9,1.4,4.4,1.8.3.2.7.4,1,.6,1,.6,2.2,1,3.4,1.3,1.1.2,2.3.8,3.1,1.6.2.2.5.3.8.3.7.2,1.5.2,2.3.6,1.3.7,2.7,1.2,4.2,1.3.2,0,.3,0,.5.1.7.3.8.7.3,1.2-.5.4-.9.9-1.3,1.4-.9,1.1-1.8,2.3-2.8,3.3-.6.5-1,1.2-1.2,2,.6.1.9,0,1.2-.4-.3.4-.6.5-1.2.4h0c-.4.1-.7.3-1,.6h0c-.6.6-1.4,1-1.3,2-.8.1-.9.7-.9,1.3-.3.1-.6.4-.6.7-1.3.6-2.5,1.4-3.5,2.6-.8.1-1.5.6-2,1.3-.2.3-.5.6-.9.7-.3.1-.6.3-.8.6-.8,1-2.3,1.4-3.1,2.5,0,0-.2,0-.2.1-1.5.4-3,1.3-4.4,1.9-.4.2-.7.3-1.1.5-1.5.3-2.9,1.4-3.3,3-.5,1.4-.6,3.1-1.7,4.2-.1.1-.2.3-.2.5-.3,1.8-1,3.7-1.8,5.3,0,.4,0,.7-.4.8v.5c.2.2.2.6,0,.8-.5.7-.6,1.6-1.2,2.5-.4.5-.5,1.3-.7,2-.1.3,0,.6.5.5.3-.1.6-.1.9,0,.2,0,.3,0,.5-.1,0-.2.1-.2.2-.1h0c.7-.6,1.6-.5,2.6-.7,0-.2,0-.4.3-.5,2.6-.4,4.9-1.2,7.3-2,1.1-.4,2.3-.8,3.5-.9q.1,0,.2-.1c.1-.7.3-1.1,1.1-.8.6.3,1.2,0,1.5-.6.1-.3.4-.5.6-.6,1.2-.4,2.4-1.1,3.5-1.7.6-.3,1-.2,1.1.5.5.1.6-.3.8-.6.6-.1.9-.7,1.3-.9,1.3-.6,2.7-1.2,3.6-2.5q.1-.1.2-.1c1.3-.6,2.6-1.5,3.6-2.6s1.2-.7,1.9-.5c.8.2.8.1.9-.7,0-.7.4-1.3,1-1.6.5-.2,1.2-.5,1.2-1,.1-1,.8-1.3,1.5-1.5.4-.1.7-.4.7-.8.1-.5.3-.9.7-1.1.5-.5,1.2-.8,1.3-1.6.1-.7.7-1.3,1.4-1.5.4-.1.8-.3.9-.7.2-.7.8-1.1,1.1-1.7.5-.7.8-1.4,1.1-2.2.3-.8.8-1.5,1.4-2,.7-.6,1.5-1.1,1.3-2.4,0-.2.1-.3.2-.5,1-.9.5-2.8,2.2-3.2.1,0,.2-.4.3-.7.1-.5.1-.9.1-1.4.9.3.7-.5.9-1,.9-1.3.6-3.1,1.6-4.4.1-.2.1-.3.1-.3M181.3,108.2h0M181.4,108.2h.1-.1M181.8,108h0c.4-.1.8.1,1.2.3-.4-.2-.8-.4-1.2-.3M190.1,103h0c.1-.2.1-.4.2-.6-.2.2-.1.4-.2.6M177.9,94h.1c0,.1-.1,0-.1,0M181.6,127.1c-.1-.1-.3-.2-.4-.2.1,0,.3.1.4.2M175.5,161.4c0-.2,0-.4-.1-.6,0,.2.1.4.1.6M178.5,147.9c.1.5-.8,1.5-1.2,1.5s-.8-.6-.8-1.4.3-.7,1-.7c.4-.1.9,0,1,.6M172.9,149.8h0M173,150.3h0c.1,0,0-.2,0-.4,0,.2.1.3,0,.4M169.6,176.1c0-.1-.1-.1-.1-.2,0,0,0,.1.1.2M169.4,175.5v.3-.3h0ZM173,150.3h0c-.4-.1-.8-.1-1.2-.1.4,0,.8,0,1.2.1M171.6,150.3h.1-.1M162.3,181q.1.1.1.2c-.1,0-.1-.1-.1-.2M187.3,151.9h0c-.1.3-.1.6-.2.9.1-.4.1-.6.2-.9M183.3,145.9h0M150.7,91.5c.3-.1.3-.2.2-.4-.2-.3-.4-.5-.6-.8-.4-.6-.4-.9.2-1.4.7-.5.9-.6,2.4-.7-.4.6-.6,1.4-.5,2.3-.5-.1-.7-.5-1.2-.5-.2.6.6.8.6,1.3s.5.8,1,.8.4,0,.4.2-.1.3-.3.4c-.6,0-.8.4-1,.9-.1.5-.7.5-1,0-.2-.4-.5-.7-.7-1-.3-.5-.1-.8.6-1M165.5,138.2v.3-.3ZM165.5,138.6v.2-.2M149.6,132.8c-.3-.1-.3-.3-.4-.5-.1-.2-.3-.3-.2-.5.1-.1.3-.1.5-.1.3,0,.5.3.4.5,0,.2-.1.5-.3.6M155.2,134.4h.1c0,.1-.1,0-.1,0ZM158.6,137.2v.3c.1-.1.1-.2,0-.3,0-.1-.1-.2-.1-.2q.1.1.1.2M149.2,98.1h.1c0,.1-.1,0-.1,0M149.5,98.6c0-.1,0-.2-.1-.3.1.1.1.2.1.3s-.1.2-.2.2c.1,0,.2-.1.2-.2M151.6,105.3h0c0,.1-.1.3-.2.3.1,0,.2-.1.2-.3M149.1,106.3h0c-.1,0-.2,0-.3.1.1,0,.2-.1.3-.1M146.2,99.3c-.1-.1-.2-.2-.3-.3.1.1.2.2.3.3M130.4,146c.5-.1.9-.5,1.2-.9-.3.5-.8.8-1.2.9M161,67.9c-.1,0-.2-.1-.3-.1.1,0,.2.1.3.1M160.2,67.6c-.3,0-.6.1-1,.2.4-.1.7-.1,1-.2M136.3,151.5c-1,.4-1.8,1.4-3,1.7-.3.1-.6.2-.3.6.2.2.3.5,0,.6s-.6.1-.8-.1c-.2-.1-.3-.3-.3-.5,0-.4-.4-.7-.8-.6-.1,0-.2,0-.3.1-.7.3.1.7.1,1.1-1.5.3-1.7.9-.5,2.4-.5.1-.9,0-1.1-.5-.1-.6-.4-1.1-.7-1.6,0-.1-.1-.2-.1-.2.7-1.2.5-2.7,1.3-3.8.3-.5.8-.4,1.2,0,.5.4.9.3,1.3-.2.2-.3.2-.8.6-.7.5.1,1.2.1,1.3.5.3.5.7.5,1.1.6.3.1.6.2.8.3.3-.1.4.2.1.3M170.8,148c0-.4.3-.7.7-.7.5-.1.4.4.4.7s0,.8-.4.8c-.4-.1-.7-.4-.7-.8h0M152.5,182.6h0v-.2c-.1,0,0,.1,0,.2h0M156.9,185.7c-.2,0-.4-.1-.4-.4s.2-.3.3-.3h0c.3,0,.5.2.5.4h0c0,.3-.2.3-.4.3M188.5,153.9h-.4.4c.1,0,.2.1.3.1-.1,0-.2,0-.3-.1"/>
      <path id="Path_152" data-name="Path 152" class="cls-1" d="M12.7,112.3c-.1.3,0,.7,0,1s.1.3.3.4c1.5.4,3,1,4.5,1.1.6.1,1.3.1,1.9.4.8.5,1.6.7,2.6.8.7,0,1.3.7,2,.6,1.2-.1,2.5.2,3.5.8.3.2.6.2.9.2.6-.1,1.2.1,1.7.2,1,.2,1.9.6,3,.7.4,0,.7.1,1.1.1.9.2,1.8.7,2.8.7,1.7.1,3.3.9,4.9,1,1.2.1,1.4.1,2-1,.5-1,.4-2.2.9-3.1.8-1.4-.1-2.8-1.6-3-1.2-.2-2.4-.5-3.6-.6-.9-.1-1.8-.2-2.7-.5-.9-.3-1.9-.5-3-.7-1.1-.2-2.4-.1-3.3-.6-1.8-.9-3.7-.5-5.6-.9-.1-.2-.3-.4-.1-.6.4-.3.8-.6,1.3-.7,1.1-.2,2.3,0,3.3-.6h0c1,.1,1.9-.4,2.9-.8h.3c.1.1.1.2.2,0h0c.3.1.6.1.8-.2h.8c.5.5.8-.5,1.3-.3s.8-.3,1.1-.6l.9-.2c.1,0,.2,0,.2-.1h.3c1,.2,1.8-.2,2.7-.7.4.1.9,0,1.3-.2.8.3,1.7.1,2.4-.5.3,0,.5-.1.8-.3.3,0,.6.1.7-.2h.3c.1,0,.2-.1.3-.2.5-.2.9-.7,1-1.2.5-2,1-4,1.5-6,.2-.9,0-1.3-.8-1.8-.8-.4-1.6-.6-2.5-.7-2.7-.5-5.1-1.4-7.8-1.9-.5-.1-1.2,0-1.6-.2-1-.5-2-.7-3.1-.9-3-.5-5.8-1.5-8.8-1.8-1.5-.1-3-.7-4.4-1.1-1-.2-1.9.2-2,1.1-.2,1.4-.7,2.7-1,4q-.3,1.2.9,1.6c1.4.6,3,.3,4.4.9,2.4.9,4.8,1.3,7.3,1.9.5.1,1.1.4,1.7.1.3-.1.7,0,1,.1,1,.1,2,.5,3.1.5s.8.2,1.1.3c.2,0,.3.2.2.4h0c0,.1-.1.3-.2.3-.9,0-1.5.6-2.5.6-1.1.1-2.4.3-3.4.6-.6.2-1.2.3-1.9.3-.8-.1-1.4,0-1.9.6-.2.3-.6.2-.9.3-.5.2-1.2-.1-1.6.2-.7.6-1.4.6-2.4.5-.3,0-.6,0-.9.1-.9.4-1.7.9-2.8.7-.1,0-.3.1-.5.2-.7.4-1.5.7-2.4.7-.6-.1-1,.4-1.1.9h0c-.2.9-.4,1.8-.6,2.7-.1.5-.4.8-.9.9-.9.2-.9.4-.5,1.3,0,.9.3,1.5-.1,2.4"/>
      <path id="Path_153" data-name="Path 153" class="cls-1" d="M237.9,108.2c-.4-.5-.4-1.2-.4-1.8-.1-1.3-.5-1.7-1.8-1.7s-1.8.5-2.8.7c-1.6.3-3.2.6-4.8,1-.7.2-1.3.4-1.9.7-.8.3-1.2,0-1.4-.8-.2-.9-.4-1.7-.5-2.7,0-.7-.2-1.3-.5-2-.2-.5-.9-.8-1.4-.6-.1,0-.1.1-.2.1-.6.4-.3.9.1,1.3.2.2.4.4.2.7s-.5.4-.8.3c-.9-.1-1.5-1-1.3-2.2.1-.3.2-.6.1-1-.3-.8-.2-.9.6-1.1.9-.2.9-.3.9-1.1s-.1-.5-.1-.7c-.2-1.1.2-1.4,1.3-1.1.3.1.6.2.9.2s.4.1.5.3c.6.8,1,.9,1.8.6.5-.2,1-.4,1.6-.4,1.3-.1,2.7-.4,3.9-.9.5-.2,1.1-.4,1.7-.5.6-.1,1.1-.6,1.1-1.3s0-.2-.1-.3c-.5-1.3-.5-2.7-1-4-.5-1.2-.8-1.7-2-1.2-1.8.6-3.8.6-5.6,1.1-1.4.4-2.9.5-4.3.8-2.8.7-5.4,1.6-8.4,1.8-.4,0-.6.3-.7.7-.2,0-.3,0-.5.1-.2-.3-.5-.4-.8-.2-.9.4-1.9.3-2.9.6-.5.1-1.1-.2-1.6.2-.1.1-.3.1-.4.2-1.2,0-2.2.7-3.4.8-.4.1-.7.3-.5.8-.1.2-.1.4-.1.7-.1.7,0,1.4.6,1.9,0,.2,0,.5.1.7-.2.8.2,1.5.2,2.5s.9,1.4,1.8,1c.3-.1.6-.2.8-.3,3.3-.7,6.5-1.5,9.5-2.7.6-.2.7-.4.5-1-.2-.5,0-1.1.4-1.5.3.1.5.6,1,.3.3-.2.5,0,.7.3.3.4.7.3,1.2.3,0,.3,0,.7-.1,1-.3.7-.6.8-1.2.3-.4-.4-.9-.4-1.3-.2.2,1.9.7,3.9,1.3,5.7.3,1,.5,2,.7,3.2.1.5-.1.7-.6.7s-.9-.1-1.3.1c-1.8,1.1-3.9.8-5.8,1.2-1,.2-2,.1-3.1.5h-.4c-1.6,0-2,.6-1.3,2.4v.2c0,.2.1.2.2.2l.2.3c-.1,1,.1,2.2.5,3.2,0,.1.1.1.2.1,0,.2.1.5.2.7.2.9.4,1.1,1.2,1,.4-.1.8-.1,1.3-.1s1.4.1,1.8-.6c.2-.3.6-.2.8-.1,1.1.5,2,0,3-.5.7-.5,1.5-.6,2.4-.4.3.1.7,0,1-.1.7-.2,1.3-.9,2.2-1,1.3-.2,2.7-.8,4.1-.7.7,0,1.3-.2,2-.4,1.8-.5,3.7-1.2,5.6-1.4,1.4-.1,2.8-.8,4.1-1.1,1.2-.3,1.1-.3,1.3-1.5.2-.8,0-1.6-.4-2.3M213.6,98.7c.2-.1.2-.4.2-.7s0-.5-.1-.6c.2.1.1.4.1.6s0,.5-.2.7"/>
      <path id="Path_154" data-name="Path 154" class="cls-1" d="M27.1,73.3c.7.2,1.4.7,1.8,1.3.5.7,1.3,1.2,2.2,1.4.6.2,1.2.5,1.8.9.8.6,1.5,1.3,2.4,1.7,1.7.9,3.3,2,5,2.9,2,.9,3.7,2.4,5.6,3.5,1.2.7,2.4,1.5,3.6,2.2.5.2.9.5,1.3.9.6.9,2.3,1,2.8.2.4-.7,1.1-1.3,1.4-2.2.9-1.9,2.4-3.6,3.2-5.6,0-.1.1-.2.3-.3.4-.2.5-.6.7-1,.6-1.1,1.1-2.5,2.3-3.3.6-.4.9-1.1.9-1.8.1-.7-.2-1.4-.9-1.6-.9-.3-1.7-1-2.7-1.3-1.2-.4-1.9-.3-2.6.7-.4.8-1,1.6-1.5,2.5-.7,1.2-1.5,2.6-2.3,3.8-.7,1.3-1.1,1.4-2.5.5-.1-.1-.3-.2-.4-.2-1-.4-1.8-1.2-2.9-1.7-.5-.3-.8-.9-.6-1.4.1-.4.2-.7.5-1,1.5-1.5,2.4-3.5,3.6-5.2.2-.3.4-.7.5-1,.2-.5.2-1-.3-1.2-1-.5-1.7-1.4-2.9-1.9-1.8-.7-1.8-.8-2.9.9-1.1,1.8-2.3,3.7-3.4,5.5q-.8,1.4-2.5.7c-.2-.1-.4-.2-.5-.3-.5-.5-1-.8-1.7-1-1.3-.5-1.5-1.3-.7-2.5.1-.2.3-.3.4-.5,1.7-2.2,3.1-4.5,4.5-6.9.3-.4.3-1.1-.2-1.4,0,0-.1,0-.1-.1-1.1-.6-2-1.5-3.3-2-.9-.4-1.4-.3-1.9.5-1.3,1.9-2.5,4.1-4,5.9-.2.2-.3.5-.3.8.1.4-.2.6-.4.9-.3.4-.6.7-.8,1.2-.2.4-.5.8-.8,1.1-1.2,1-1.8,2.5-2.5,3.9-.2,1-.1,1.3.6,1.6"/>
      <path id="Path_155" data-name="Path 155" class="cls-1" d="M59.3,173c-.6-1-1.1-1.1-1.8-.6-1.3.8-2.8,1.5-3.9,2.6-1.4,1.2-3.2,2-4.5,3.5-.6.6-.8.5-1.3-.2-.8-1.1-1.3-2.5-2-3.6-.7-1.3-1.6-2.7-2.6-3.8-.2-.4-.8-.6-1.2-.3-1,.4-1.9.9-2.9,1.5-.5.3-.9.8-1.2,1.3-.2.2-.2.6,0,.8.8,1.1,1.4,2.5,2.5,3.5.4.4.6.9.8,1.4.3,1,1,1.8,1.5,2.8.3.6.4.8-.4,1.1-1.1.4-2.2,1.1-3.1,1.9-.6.4-1.3.7-2,.7-.3.1-.7-.1-.9-.4-.6-1-1.4-2-1.8-3.1-.6-1.4-1.5-2.7-2.4-4-.7-1.1-1.4-1.3-2.5-.5-.9.6-1.7,1.2-2.7,1.7-.4.3-.6.7-.6,1.2-.1.4.2.7.5,1,.6.8,1.3,1.5,1.5,2.7.1.3.2.5.5.6.9.6,1.4,1.4,1.8,2.5.4.8.6,1.7,1.2,2.4.8.7,1.3,1.6,1.4,2.8,0,.2-.1.5.3.6.9.3,1.5,1,1.9,1.8.3.7.9.8,1.5.3.5-.5,1.2-.8,1.7-1.4.6-.8,1.6-1,2.5-1.4.6-.3,1-1.1,1.8-.8,0,0,.2-.2.2-.3,0-.5.4-.6.7-.8.7-.5,1.3-.9,2-1.4.8-.6,1.6-1.2,2.6-1.6.5-.2,1-.5,1.3-.9.4-.4.8-.7,1.2-.9,1.2-.6,2.3-1.4,3.4-2.2.7-.5,1.6-.8,2.3-1.4,1.2-1.1,2.4-2,3.9-2.7,1-.4,1.2-1.7.5-2.7-.6-1.4-1.3-2.6-1.9-3.7M43.1,189.5c-.6.2-1.2.5-1.9.5-.6-1.2.7-1.4.9-2.3,0-.2.4-.1.4,0,.3.8,1.3-.1,1.5.7,0,.5-.5.9-.9,1"/>
      <path id="Path_156" data-name="Path 156" class="cls-1" d="M20.9,147.4c0-.7-.1-1.4-.3-2.2-.2-.6.6-.8.2-1.3-.4-.5-.3-1.1.1-1.5.3-.4.9-.3,1.3-.7.3-.3.7.3,1.1.5.1-.5.5-.8,1-.9,1.3-.2,2.6-.6,3.9-.6s2.4.1,3.6-.3c.2-.1.3-.1.5,0,2.2.1,4.2-.8,6.4-.6.3,0,.6-.1.9-.2.4-.1.7-.2,1.1-.2,1.4.3,2.7-.3,4-.6.5-.1.7-.4.6-.9-.2-1.5-.4-3.1-.5-4.6-.1-.4-.2-.7-.3-1.1-.2-.6-.6-.8-1.2-.5-.5.3-1,.4-1.6.3-1.3-.3-2.6.3-3.8.1-.2,0-.4.1-.6.2-.6.2-1.2.3-1.7.3-.3-.1-.6,0-.9.1-.8.3-1.7.4-2.6.2s-.8-.2-1.1.1c-.4.4-.8.2-1.2,0-.3-.1-.6-.5-.9-.1-.5.5-1.2.5-1.8.6-1.9.3-4,.5-5.9.9-1.2.3-1.5.1-1.7-1.2,0-.4,0-.8-.1-1.1-.1-1.3-.3-2.6-.5-3.9-.1-.7-1-1.4-1.6-1.3-1,.2-2,.1-3.1.2-1,.1-1.6.6-1.6,1.6s0,.7-.4,1c-.5.3-.5.8-.1,1.2.6.6.9,1.3.9,2.2.1,1.1.3,2.3-1,2.8-.1.1-.2.3-.1.4h0c.1.1.2.1.3.1s.2-.1.3-.1c.4-.3.7-.1.7.3.1.9.3,1.7.5,2.7.1.9-.1,1.9.1,2.9.1.6.4,1.1,0,1.7-.2.3,0,.3.2.4.3.1.3.4.3.6.1.5.1,1,.1,1.5.2,1,.1,1.9.4,3,.2.6.4.9,1.2.8,1.2-.2,2.5-.3,3.7-.5,1.4-.5,1.6-.7,1.4-2.2"/>
      <path id="Path_157" data-name="Path 157" class="cls-1" d="M26.4,167.9c-.1-1.1.4-2.2,1.4-2.7s2.2-1.1,3.3-1.2c1.1-.2,2.2-.6,3.3-1,.4-.2.8-.3,1.2-.5,1.4-.3,2.9-.8,4.3-1.4,1.4-.6,3-.9,4.3-1.6.1-.1.3-.1.3,0,.4.6,1.4.6,1.6,1.5.2.7.7.9,1.4,1,1.1.1,1.9-.5,3-.8.8-.3.9-.8.8-1.7-.1-1.1-.9-1.9-1.1-3.1-.2-1-.6-2-1.1-3-.6-.9-.4-2.2-1.2-3-.1-.1-.1-.2,0-.4.4-1-.4-1.4-.8-2.2-.5-.9-1.3-.9-2.3-.6-.3.1-.6.1-.9.1-1,.2-1.5.9-1.7,1.8-.1.5,0,1,.1,1.5.2,1.1-.5,2.2-1.4,2.3-1.5,0-2.7,1.4-4.3,1.1-.1,0-.2.1-.3.2-.7.5-1.6.8-2.5,1-1.5.4-3.2.9-4.6,1.6-1.4.7-2.9,1.3-4.5,1.6-1.1.2-1.4.1-1.9-.9-.7-1.3-1.8-1.7-3.3-1.2-.3.1-.6.2-.9.4-.3.2-.9,0-1,.6-.1.5-.3.9-.2,1.4.4,1.1.8,2.2,1.3,3.3.7,1.3,1.2,2.8,1.5,4.2.3,1,.9,2,.8,3.2,0,1,.8,1.5,1.8,1.5,1.6.1,3.1-.9,3.6-2.6,0-.2,0-.4,0-.6"/>
      <path id="Path_158" data-name="Path 158" class="cls-1" d="M51.9,56.8c2.8,1.7,5.7,1.3,8.7.6,2.3-.5,4.4-1.4,6.8-.9.3.3.7.6,1.1.8.6.7.6,1.4.3,2.3-.4,1.2-1.4,1.9-2.4,2.6-1.6,1-3.3,2-5.4,2.3-1.7.2-1.8,1.3-.9,2.5h.1c1,.9,1.9,1.8,2.7,3,.4.5.9.6,1.6.4,1.2-.3,2.5-.8,3.6-1.4,1.1-.7,1.9-1.7,3.2-2.5.1,0,.1-.2.2-.3.1-.3.4-.6.7-.7,1.9-1.6,3.4-3.5,3.4-6.1v-1c.2-1.1,0-2.3-.5-3.3-1.3-2.9-3.1-4.7-6.5-5.4-.6-.1-1.3-.1-1.9-.2-1-.2-2-.1-3.1.2-1.9.6-3.8,1-5.7,1.6-1.1,0-2.3-.4-3.2-1-.3-.2-.5-.5-.5-.8-.6-1.4-.4-2.7.9-3.6.2-.2.5-.3.7-.5,1-.3,1.8-1,2.7-1.6.6-.2,1.3,0,1.8-.5.6-.5.7-1.4.3-2.2-.2-.3-.3-.7-.2-1,0-.3-.1-.7-.3-.9,0-.3.2-.6-.2-.7-.1-.2-.3-.4-.4-.6-.1-.2-.3-.3-.5-.2h-.7c-.1,0-.3,0-.3.1-1.7.7-3.6,1.3-5.1,2.6-1.8,1.4-3.7,3-4.6,5.2-.7,1.5-1,3.2-.8,4.8.3,3.1,2,5.2,4.5,6.8M70.9,52.6s.1.1.2.1q-.1-.1-.2-.1"/>
      <path id="Path_159" data-name="Path 159" class="cls-1" d="M152.2,45.5h0c-.8.4-1.1.9-.6,1.5.2.4.6.6,1,.7.6.1,1.1.4,1.6.8.6.4,1.2.8,1.9.9.9.3,1.2.1,1.7-.6.2-.4.4-.8.8-1,.6-.3.9-.8,1.2-1.3.9-1.5,2.4-2,4-1.2,1.1.6,2.3,1.2,3.4,1.9,1,.7,2.5,1,3.7,1.5,0,.4-.3.7-.2,1-.3.1-.3.5-.3.8q-.1.1-.1.2c-.2.1-.3.2-.3.4,0,1.3-.5,2.5-.6,3.7q-.2,1.5,1.2,2.3c.6.3,1.5.1,2,.8.5.6,1.3.6,1.9,1,.4.3,1-.1,1.2-.6.2-.4.3-.8.3-1.2,0-.6,0-1.2.2-1.8.2-.5.2-1.1,0-1.6-.1-.6,0-1.2.3-1.7.6-.9.8-2,.7-3.2-.1-.5,0-1,.3-1.5.6-1.3.7-2.8.7-4.2.1-2.7,1.2-5.1.9-7.9,0-.2.2-.5.2-.7s0-.4-.2-.6c-.7-.7-.7-.8-.2-1.5q.6-.8-.3-1.4c-.2-.1-.3-.4-.5-.3-.8.7-1.7,1.4-1.1,2.8.1.3-.1.6-.4.6h-.1c-.3-.5-.3-1.2-1.1-1.6-.3.3-.9.4-1.1,1-.2,1-.8,1.9-1,3-.2.9-.6,1.8-.7,2.8,0,.8-.2,1.5-.4,2.3-.2.5-.2,1.1-.1,1.6-.1,0-.2.1-.3.1-.2-.2-.5-.3-.8-.4-.8-.2-1.2-1.1-2-1-.9.1-1.5-.6-2.3-1-.5-.3-.6-.9-.3-1.3h0c.1-.3.3-.5.5-.7s.5-.4.3-.8c-.2-.3-.6-.4-.9-.3-.2,0-.3.1-.5.2-.3.1-.6.1-.7-.2-.2-.4-.1-.8.1-1.1.2-.2.5-.2.7-.1.1.1.3.2.4.3.2.1.5.2.7-.1.1-.3,0-.4-.3-.6-1-.4-1-.7-.4-1.5.3-.4.6-.9,1.2-.9.7-.1.9-.5.8-1.1-.1-.5.1-.9.6-.9.9,0,1.1-.8,1.5-1.3.7-1,1.3-2.2,1.9-3.3.2-.4.4-.7,0-1-.3-.3-.6,0-.9.2-.6.5-1.1,1.2-1.7,1.7-1.6,1.5-3.3,3.1-4.8,4.7-.6.6-1.4,1.1-1.9,1.9-.7.5-1.1,1.3-1.8,1.9-.1,0-.2,0-.3.2-.8.8-1.7,1.4-2.5,2.4-1.4,1.6-3.3,3.1-4.5,4.8-.6.3-1.4.9-1.8,1.9"/>
      <path id="Path_190" data-name="Path 190" class="cls-1" d="M132.7,44.4c.5.2,1.1.3,1.6.3,1.3.1,2.7,0,3.9.6,1.5.7,3.2.6,4.8.5.2.1.4.1.7.2.4.8,1.1.3,1.7.5,1,.4,2,.4,3.1.2.6-.1.9-.3,1-.9.1-1.1.3-2.3.5-3.4.2-.5,0-1-.4-1.3-.3-.2-.3-.7-.5-1-.7.5-1.5.1-2.3.4h-.5c0-.1-.1-.2-.1-.2-1.3-.3-2.7-.5-4-.7-.4-.1-.9-.2-1.3.3h-.5c-.7-.5-1-1.1-.7-2,.1-.3.1-.6.1-.9.2-1.2.4-2.5.7-3.7.1-.5.5-.9,1-.8h0c1,0,1.9.2,3,.6.8.3,1.5.6,2.5.3.5-.1.9,0,1.4.2.4.2.8.3,1.2.3.7.1.9-.1,1-1h-.2c-.1-.2-.2-.2-.3-.3.1.1.2.1.3.2h.2c0,.1.1-.3.1-.3.6-.6.6-.9.1-1.6.1-.7.5-1.3.3-2,.1-.3.1-.5-.2-.6-.1-.1-.2.1-.2.2-.3-.3-.7-.4-1-.3-.6-.6-1.2-.4-1.8-.2-.2-.1-.5-.2-.7-.1-.1-.1-.1-.3-.2-.3-1.1-.3-2.4-.7-3.6-.6-.6.1-1.1-.1-1.5-.5-.5-.7-1.2-1-1.9-1.4-.2-.2-.6-.2-.6-.6.2-.2.5-.3.8-.4.8-.3,1-.6.9-1.4,0-.4-.2-.7-.6-.5-.2.1-.3.3-.4-.1-.1-.7-.5-1.4-1.1-1.8-.1-.1-.1-.3,0-.5.1-.1.3-.3.4-.1.5.5,1,.1,1.6,0,.4-.1.7-.2,1.1-.3.2,1,.6,1.4,1.7,1.3.7,0,1.4-.1,2.2-.2.3-.5-.3-.8-.2-1.2.3-.2.7-.5,1-.7.4.4.2,1.2.7,1.3.8.1,1.2,1.1,2.2.9.1,0,.2.1.3.2.5,1.1,1.5,1,2.5,1.1.8.1,1.4-.1,1.4-.9s.4-2.2.3-3.3c0-.3-.1-.7-.2-1,0-.2-.2-.3-.4-.3s-.4.1-.5.3v.4c.1.5.3.9-.5,1s-.9,0-1-1c-.1-.8-.4-1.1-1.1-1.2-.2,0-.3-.1-.5-.1-.5-.2-4.7-.7-5.2-.5s-.9.1-1.2-.4c-.1-.4-.6-.6-1-.5h-.1c-.8.3-1.4,0-2-.3-.5-.3-1.1-.5-1.7-.5-1.3-.1-2.2.5-2.4,1.7-.2,1.7-.4,3.6-.6,5.3,0,.3-.2.6.1.8.2.1.3-.1.5-.2.7-.3,1.5-.2,1.6.1.2.4-.4,1.2-1,1.4h-.1c-1.3-.3-1.6.5-1.7,1.6-.1.3-.2.6-.3.8-.1.3-.1.5.1.7v.5c-.3.1-.5.2-.3.6-.1.1-.1.2-.2.3h-.1q-.1.1,0,.2v.5c0,1.2-.9,2.4-.5,3.6.1.3-.2.6-.3.9-.2,1.1-.8,2.3-.3,3.4h-.1c-.5.6-.5,1.2-.2,1.8-.1.2-.2.5-.1.7-1.1.5-.5,1.3-.5,2.2v.5c-.5.3-.9.7-1,1.2,0,.9.8,1.9,1.6,2.2M146.2,29.2q0-.1-.1-.1t.1.1M149.7,32.4h.2-.2"/>
      <path id="Path_160" data-name="Path 160" class="cls-1" d="M178.7,60.3c-1.4,1.1-1.4,1.9,0,3.2,1.4,1.7,3.2,3.1,4.6,4.7.6.6,1,1.2,1.6,1.8,1.4,1.3,3.1,2.5,4.3,3.9.5.5.8.5,1.4.1.8-.7,1.4-1.6,2.3-2.4.2-.2.3-.5.3-.8h0c.6-.6.7-1,.2-1.4-.3-.2-.6-.4-.9-.5-.3-1-1.2-1.2-1.8-1.8-.2-.6-.7-.8-1.2-1.1,0-.2-.2-.4-.3-.5-.3-.9-1-1.4-1.7-2-.5-.4-.7-.8-.5-1.4.1-.2.1-.4.2-.6.1-.8-.1-1.2-1-1.5-.4-.1-.8-.2-1.2-.4-.6-.2-.7-.5-.1-.8.5-.2.7-.7,1.3-.8.2,0,.3-.2.3-.4-.2-.5.1-.8.5-1s.7-.7.7-1.2.5-1.3,1.3-1.4c.8-.1,1.1-.6,1.1-1.5.6.5,1.1.5,1.6,0,.3-.3.9-.2,1.3,0,.6.3,1.3.5,1.9.7.4.2.9.1,1.2-.3.8-.8,1.5-1.6,2.3-2.5,1.4-1.6,2.8-3.3,4.5-4.6.9-.7.7-1.4-.4-1.8-.3-.2-.4-.9-1-.7-.1-.9-.8-1.4-1.3-1.9-.9-1-.9-.9-2-.1-1.3.9-2.3,2.3-3.5,3.3-1,.8-1.9,1.9-3,2.9-.2.1-.3.3-.4.5-.4.8-1,1.4-1.7,1.9-.5.4-1,.7-1.2,1.3-.1.1-.2.2-.2.3-.4,0-.7.4-.9.6-1.6,1.6-3.3,3.3-4.9,5-.4.4-.8,1-1.1,1.6-.7-.1-.8.5-1.3.8-.7.1-.9.6-1.1,1.1"/>
      <path id="Path_161" data-name="Path 161" class="cls-1" d="M236.2,147.2c.3-1.3-.3-2.3-1.1-3.2-.3-.3-.5-.6-.6-.9-.3-.7-.9-1.2-1.6-1.3h0c-.3-.9-.6-1.5-1.6-1.9-.7-.3-1.6-.7-2-1.4s-1-.8-1.6-1c-.9-.3-2.2,0-2.9-.9-.1-.1-.5-.1-.7-.1-.4,0-.8-.1-1.2-.2-1.1-.5-2.5-.7-3.7-.4-.4.1-.9.1-1.3,0-1.4-.5-2.8.3-4.2.4-1.2.1-2.4.8-3.5,1.3-.8.4-1.5,1.1-2.4,1.4-.4.2-.8.5-.8,1s-.1.1-.1.2c-.9.5-1.6,1.4-1.8,2.6-.2,1.2-.5,2.5-1,3.6-.4.9-.6,1.9-.6,3.1-.1,1.4-.1,2.9,0,4.3,0,.3.1.7.3,1,.7,1.2,3.3,1.9,4.7,1.3.1-.1.3-.1.3-.2.1-.9.8-1.6.5-2.7-.2-.6-.5-1.3-.1-2,.3-.5.4-1,.3-1.6,0-.9.2-1.7.6-2.5.3-.5.5-1,.3-1.6-.1-.3,0-.6.3-.8,1.6-1.2,3.2-2.7,5.4-2.5.2,0,.4-.1.6-.3.3-.2.6-.2.9-.2,1,0,2.2.2,3.3.1.2,0,.4,0,.6.1,1.2.5,2.5.5,3.7.7.3.4.7.4,1.1.5.5.1,1.1.3,1.5.6.8.8,1.9,1.1,2.6,2.2.2.3.4.4.7.5l.2.3c0,.3.1.6.2.9.7,1.2,1,2.7.9,4.1,0,.1.1.2.1.2-.1.4-.2.8-.2,1.2-.2.1-.3.3-.2.5h0c0,.3-.1.4-.1.6-.7,1.5-1.4,3-2.7,4.2-.2.2-.3.6-.3.9.2,1,2.2,2.7,3.2,2.7s.9-.2,1.2-.7c.4-.8.9-1.5,1.6-2.2.3-.2.4-.6.4-.9s0-.5.2-.6c.7-.4.5-1.1.7-1.6.2-.8.2-1.6.3-2.4.3-1.5.5-3.2.2-4.8-.4-.6-.7-1.1-.6-1.5M230,141.4h.1-.1M227.6,142.8c0-.3.2-.3.5-.3h0c-.3,0-.5.1-.5.3"/>
      <path id="Path_162" data-name="Path 162" class="cls-1" d="M199.7,75.3c-.6.6-1.3,1.1-2.2,1.4-1,.5-2,1.1-3.2,1.4-1.1.4-1.3,1.4-.7,2.5l.3.5c.4,1.2,1,2.4,1.8,3.4,1.1,1.3,1.4,1.3,2.3-.3-.2-.1-.5-.3-.7-.5-.2-.3-.6-.2-.8-.4-.5-.4-.5-.9,0-1.3.2-.2.4-.3.7-.3.6.1,1.2-.2,1.6-.7.5.2.3.9.9.9.6-.1.6-.7.8-1s.2-.7,0-.9c-.1-.2-.3-.4-.1-.6.5-.3.4-1,.7-1.3.6.1.4,1.1,1.3.8.8-.3.9-.1,1,.9,0,.1.1.2.1.3,1.6.3,3.3-.3,4.4-1.4.7-.6,1.4-1.1,2.3-1.4.4-.2.8-.4,1.2-.6,1.4-.7,2.8-1.8,4.2-2.7.7-.4,1.6-1.1,1.6-2.4-.6-.3-1.2-.2-1.7.2-.2.2-.6.2-.6-.1-.2-1.1-1-1-1.7-1.1-.6-.1-.9-.6-.4-.9.8-.6.5-1.2.4-1.9-.4,0-.8.1-1.2.2-1.2.6-2.4,1.4-3.6,2s-1.6.7-2.3,1.5l-.5.3c-.6.4-1.5.4-1.9,1.2-.1.1-.2.2-.3.3-.9.3-1.6.9-2.4,1.3-.3.2-1,.2-1.4.7M205.9,78.9c.2,0,.3-.2.3-.4,0-.3-.1-.5-.4-.5.3,0,.4.2.4.5s-.1.4-.3.4"/>
      <path id="Path_163" data-name="Path 163" class="cls-1" d="M73,39.8c.5,1.2,1.7,1.3,2.7,1.9.8.5,1.9.7,3,.7,1.4.5,3,.3,4.4.2,1.1-.1,2.3,0,3.4.4,1.4.5,1.8,1.4,2.2,2.7.2.7.1,1.4-.6,1.8-.2.1-.4.4-.4.6h0c-.1,0-.3.1-.3.2-.7.2-1.4.4-2,.7-1.1.4-2,.9-3.4.7-1-.2-2.3,0-3.3.3-.6.1-.9.5-.6,1,.6,1,.7,2.3,1.7,3,.1.2.1.3.1.5.6,1.7.9,1.9,2.7,1.5.4-.1.7-.2,1.1-.3.1.1.2,0,.3-.1.7,0,1.4-.4,2.2-.5,1.6-.2,3.1-1,4.4-1.9.7-.5,1.3-1.1,2.2-1.6.8-.4,1.4-1.3,1.5-2.3.1-.7.3-1.3.7-1.9.2-.3.3-.7.3-1.1v-.7c.5-.2.4-.5.2-.8v-.5s.1,0,.1-.1,0-.1-.1-.1c0-1.4-.6-2.9-1.5-4,0-.1-.1-.2-.2-.3h0c-.3-.4-.2-1.1-1-1.1l-.3-.2c-.6-.8-1.5-1.3-2.5-1.6-2-.5-4.1-1-6.1-.7-.1-.2-.3-.2-.5-.1h0c-.1,0-.3,0-.4-.1-.3-.1-.6-.2-.9-.1-1.2.2-2.6-.1-3.6-.7-.6-.3-1.4-1.7-1.2-2.2.4-.7.4-1.6.7-2.4.2-.6.5-.9,1.2-.9,1.8-.1,3.6-.5,5.3-.8.8-.1,1.5-.9,1.3-1.6-.2-.8,0-1.6-.2-2.5.1-1.6,0-1.8-1.6-1.8h-.9c-.2-.1-.4,0-.5.2-.3,0-.7.1-1,.1-.2-.1-.4,0-.5.1-.9,0-1.8.5-2.8.6-1.2.2-2.4.8-3.3,1.7-.4.3-.7.6-1.1.9-2.5,1.8-3.7,4.9-3.1,8,0,1.9.7,4,2.5,5.2"/>
      <path id="Path_164" data-name="Path 164" class="cls-1" d="M207.6,130.1c.8,1,1.9,1.3,2.9.8,1.2-.7,2.6-1.3,3.4-2.7.7-1.2.7-2.7-.5-3.5-.5-.3-1-.5-1.4-.8-.5-.3-1.1-.5-1.7-.4-.3.1-.7.1-1,.1-.9-.1-1.5.4-2,1h0c-.6.2-.6.8-.6,1.3-.1.5-.3,1-.7,1.4.4.2.6.5.7.9,0,.7.6,1.2,1.1,1.7"/>
      <path id="Path_191" data-name="Path 191" class="cls-1" d="M98.1,19.6v.3l.3,1.7c.1.9.1,1.9.4,3,0,.5,0,1,.1,1.5.2,1.6.4,3.3.7,4.9.2,1.5.5,3.2.7,4.7.3,1.9.7,3.9.9,5.8.2,1.5.4,3.1.7,4.6,0,.5.4.8.9.8h.2c1.6-.2,3.4-.3,4.9-.9.9-.3,1.1-.7.9-1.6-.2-1-.3-1.9-.6-3-.2-.8.1-1.5-.2-2.4s-.5-1.6-.6-2.6c.4-.5,0-.9-.3-1.3v-1c0-.5,0-1,.1-1.6.3,0,.7-.1,1-.1.3.1.6.2.9,0,.7-.6,1.5-.3,2.3-.5.4-.1.7.3,1.1-.1h.5c.9-.4,1.9-.1,3-.5.4-.1.5.3.6.5.3,2.3.6,4.5.8,6.7,0,.6.1,1.2.2,1.8.2.6.3,1.2.2,1.7-.1,1.3.7,2.2,1.9,1.9,1.4-.2,3-.3,4.3-.8.8-.3,1-.6.9-1.4-.1-.6-.3-1.2-.4-1.7.1-.1.2-.2.2-.3-.1-1.3-.2-2.7-.5-3.9s0-2.5-.6-3.6c-.2-.4.1-.7.1-1.1.1-.3,1-.7,0-1.1-.1-.1,0-.2.1-.3.2-.3.2-.6-.1-.6-.8-.1-.7-.6-.7-1.1s-.1-1.1-.2-1.6c-.1-1.4-.7-3.1,1-4-1.8-1.4-3-3.1-2.8-5.4,0-.3,0-.6-.1-.9-.3-.6-.4-1.2-.4-1.9-.1-.4-.1-.9-.4-1.2-.5.3-1.1.2-1.6.2.1,0,.2-.1.3-.1-.7,0-1.4-.2-2,.2h.4c-.8.2-1.6.5-2.6.2-.4-.1-.9.6-.8,1.1.4,1.5.6,3.2,1,4.8.1,1.5.2,3.2.4,4.7.2,1.2.1,1.3-1,1.6-.1,0-.1.1-.2.2h-.3c-.1,0-.3,0-.3.2h-1c-.3-.1-.8,0-1.1.2-1.3.3-2.7.3-4.1.7-1.1.4-1.5.2-1.7-1.2-.1-.6-.2-1.3-.1-1.9.1-1.4-.4-2.8-.6-4.2h-.3.3c.1-.8,0-1.6-.4-2.5,0-.3-.1-.7-.2-1-.1-.8-.3-.9-1.1-.9s-.5.1-.7.1c-1.1.1-2.3.3-3.4.4-1.1.1-1.6.5-1.3,1.6.4,1,.4,1.6.4,2.3M109.9,28c.1,0,.2,0,.2.1,0-.1-.1-.1-.2-.1s-.2.1-.2.1c.1,0,.2-.1.2-.1M109.7,28.2c0,.1-.1.1-.1.2,0-.1,0-.2.1-.2"/>
      <path id="Path_149" data-name="Path 149" class="cls-1" d="M223.7,171.3c-.1-.2-.2-.4-.5-.5-.4-.2-.8-.5-1-.9-.3-.4-.5-.9-1-1.1v-.2c-.6-.8-1.7-1.2-2.3-2.3-.1-.1-.3-.1-.4-.2-1.1-.4-1.8-1.4-3.1-1.5-.1,0-.3-.2-.4-.3-.4-.5-1-.7-1.6-.8-.3,0-.5-.1-.7-.3-.8-.9-2.2-.8-3-1.5-.2-.1-.4-.2-.6-.2-2.4,0-4.6-.4-7-.1h-.5c-.1-.1-.2,0-.3.1,0,.1-.1.1-.1.2-.8.5-1.8.8-2.6,1.4-1.1.8-1.8,2-3.1,2.9-.4.3-.6.9-1.2,1.1-.2,0-.3.3-.4.5-.4,1-1,2-1.7,2.9-.2.3-.3.5,0,.8v.5c-.5,1-.4,2-.8,3.1,0,.2,0,.3.1.5.2.4.2.9.1,1.4-.3,1.4.9,2.6.8,4,0,.1.1.1.1.2.8.7,1.1,1.7,1.6,2.7.3.5.5.9,1,1.1.4.1.7.5.7.9.1,1,.8,1.6,1.8,1.9.3.1.6,0,.8.3,1.2,1.1,3.1,1.5,4,3,.1.1.3.2.5.2.9.1,1.7.5,2.7.9.9.4,1.9.7,3,.8,1.6.2,3.3-.1,4.9-.2.2,0,.4-.2.4-.4h.5c.2-.4.5-.7.9-.8.8-.4,1.7-.6,2.5-1.2.1-.1.3-.3.4-.3.7,0,1-.5,1.4-1,.3-.4,1-.4.9-1.1.3-.1.5-.4.6-.7.1-.4.4-.6.8-.6.1-.2.3-.3.4-.5,0-.3.2-.5.5-.5v-.5c.3-.1.6-.2.7-.5.6-1.4,1.4-2.8,1.2-4.4-.1-.7,0-1.4.3-2.2.4-.8.4-1.7,0-2.6-.3-1.2-.9-2.6-1.5-3.9M202.1,164.6h0v-.2.2M221.2,183.8v.2c0,.1,0,.3.1.4,0-.1-.1-.3-.1-.4v-.2ZM219.5,183.3c.1-.1.2-.1.2-.2,0,.1-.1.2-.2.2M222,176.7c-.3-.3-.8-.4-1.2-.1-.4.3-.5.8-.3,1.3.3.9.3,1.9.1,3,0,.5-.2.9-.6,1.2v.5c0,.2.1.4,0,.5,0-.2,0-.4-.1-.5-.3.2-.5.6-.5,1-.3.3-.6.5-.7.9-.5.2-.8.6-1,1-.1,0-.1.1-.2.1-.1.8-.8.8-1.3,1-.7.7-1.6.3-2.5.6-.9.5-2.2.6-3.1.2-.4-.1-.9-.3-1.4-.3-.4-.1-.7-.3-.7-.7-.1-.1-.2-.2-.3-.3-.4-.1-1.1.3-1.2-.5h0c-.7,0-1.4.1-1.8-.8-.2-.3-.5-.5-.9-.5-.4-.1-.8-.3-1.1-.6-.5-.3-.9-.8-1.4-1-.3-.1-.5-.3-.7-.6-.7-1.5-1.8-2.7-2.7-4.1-.2-.4-.3-.8-.8-.9-.4-.1-.3-.5-.4-.7,0-.3.1-.7-.1-1-.2-.2-.4-.5-.7-.5s-.3.4-.4.7c0,.1-.1.2-.1.4-.4,0-.8-.1-1.2-.3-.2-.1-.4-.3-.4-.5.2-.8-.1-1.6.2-2.4.3-.1.4.1.4.3.2.4.5.3.6,0,.3-1.2,1.2-1.4,2.4-1.4s.6-.2.8-.5c.7-1.5,1.7-2.9,3.1-4,.6-.6.5-1.4.7-2.2.4.1.5.4.5.7s0,.7.4.8c.3.1.7,0,.9-.4.3-.6.6-.5.7.1.1.3.2.6.6.5.4,0,.4-.3.5-.6.2-1.1.3-1.2,1.4-1,.2,0,.3,0,.4-.2,0-.3.2-.6.5-.7.4-.2.8-.3.8.3v.3c0,.2.1.4.3.5.3,0,.4-.2.4-.5s0-.3.1-.4c.3.2.6.5.9.5.7,0,1.3.2,1.5,1,.1.2.6.2.3.6-.2.3-.5.5-.9.4-.2,0-.3-.1-.5-.2-.3-.1-.7,0-1,.2-.2.1-.3.3-.3.5s.2.3.4.3h.1c.6-.2.7-.1.6.6-.1.4,1,1.3,1.7,1.2,1.2-.2,1.6,1.1,2.7,1.1.5,1.7,2.6,2.3,3.2,3.9.4-.3.3-.6.3-.8.1-.2.3-.4.6-.5.4-.1.4.2.5.4.1.4.3.4.6.5,1.2.2,1.2.3.9,1.4-.1.2-.1.5,0,.8.4,0,.6-.3.7-.6.1-.5.5-.2.7-.2.3.1.3.3.2.6-.1.2-.2.4-.3.6,0,.2-.3.2-.8-.2"/>
      <path id="Path_165" data-name="Path 165" class="cls-1" d="M211.4,60.8c.6.5.7.4,1-.2.2-.4.7-.5.8-1,.8-.2,1.4-1,2.4-.6.2.1.6-.3.6-.6,0-.5-.4-.8-.6-1.2-.2-.2-.6-.3-.8-.1-.7.3-1.4.6-1.8,1.3-.9,0-1.7.5-2.2,1.3-.2.7,0,1,.6,1.1"/>
      <path id="Path_166" data-name="Path 166" class="cls-1" d="M174.3,98.9c-.1,1.1-.7,1.9-1.1,2.9-.2.4-.2.9.4,1.2.2-1.5.7-3.1,1.7-4.3.2-.2,0-.4-.2-.5-.4.2-.7.4-.8.7"/>
      <path id="Path_167" data-name="Path 167" class="cls-1" d="M191.2,53.4c-.5,0-.6.3-.6.7s.2.8.6.8.6-.3.6-.8-.2-.7-.6-.7"/>
      <path id="Path_168" data-name="Path 168" class="cls-1" d="M178,124.5c.5-.9.6-2,.2-3,0-.1-.2-.1-.3-.2-.1.1-.2.2-.2.2.4.7.2,1.4.1,2.2,0,.3,0,.6.2.8"/>
      <path id="Path_194" data-name="Path 194" class="cls-1" d="M17.9,153.1v-.2c-.3-.3-.7-.6-1.2-.7-.2.1-.3.3-.2.4.3.3.6.6,1,.7.2,0,.4-.1.4-.2"/>
      <path id="Path_169" data-name="Path 169" class="cls-1" d="M65.8,164.3c-.3.4-.1.8.1,1.2.3-.3.4-.8.2-1.1,0-.2-.1-.2-.3-.1.1-.1.1,0,0,0"/>
      <path id="Path_170" data-name="Path 170" class="cls-1" d="M125,107.9c-.2,0-.4.2-.3.4v.2c.1.2.2.3.3.5.2-.1.3-.3.3-.6s0-.6-.3-.5"/>
      <path id="Path_171" data-name="Path 171" class="cls-1" d="M198.8,84.2c0,.1,0,.2.1.2.4.2.5-.1.7-.3h0c-.3-.2-.7-.3-.8.1"/>
      <path id="Path_195" data-name="Path 195" class="cls-1" d="M9.6,129.4c-.1,0-.3,0-.3.2h0c0,.2,0,.3.2.4h0c.2,0,.3-.1.4-.3,0-.2-.1-.3-.3-.3"/>
      <path id="Path_172" data-name="Path 172" class="cls-1" d="M201.3,81.7c-.1.1,0,.3.1.3.2,0,.4-.1.5-.3,0-.2,0-.3-.2-.3s-.3.1-.4.3"/>
      <path id="Path_193" data-name="Path 193" class="cls-1" d="M18.5,100.7c0-.1,0-.2-.1-.2h-.1s-.1.1-.2.1c0,.1.1.2.1.2q.2,0,.3-.1"/>
      <path id="Path_173" data-name="Path 173" class="cls-1" d="M215.6,66.1c0-.2.1-.3.1-.5.1-.2.1-.4-.2-.5-.2,0-.5-.1-.5.2,0,.6-.5.7-.8,1-.1.2-.3.4-.5.6-.1.1-.1.3,0,.5.1.1.2.1.3.1,1.2,0,1.4-.2,1.6-1.4"/>
      <path id="Path_174" data-name="Path 174" class="cls-1" d="M216,62.1c.1-.2.1-.4.1-.7-.1-.3.1-.7-.4-.7s-.7.4-.7.7c-.7,0-1,.2-1,.7,0,.8.3,1.4.8,1.4s.8-.5,1-.9h.1c.1.3.1.5.4.6.2-.1.3-.4.3-.6,0-.3-.2-.5-.4-.5h-.2"/>
      <path id="Path_175" data-name="Path 175" class="cls-1" d="M215.1,69c-.1.3.1.6.4.7.4.1.7.2,1,.5h-.1q.1.1.2.1h.1c.1.2.3.3.5.2h0c.2.1.4,0,.5-.1.4-.1.8,0,1.2-.1.4.4.9,1,1.6.7.2-.1.4.1.5.3s.2.3.2.5c-.2.2-.5.2-.8,0-.2-.1-.4-.1-.6-.2-.6-.2-.9,0-1.2.6-.1.3-.1.6,0,.9.6,1.7,1.8,3.1,2.7,4.7.4.9,1.1.9,1.9.4,1-.6,2-1.3,3.1-1.9.4-.3.6-.7.5-1.2-.1-.7-.4-1.4-.9-2-.6-.9-1.4-1.8-1.8-3-.2-.4-.4-.8-.7-1.2-.1-.2-.2-.5-.6-.3-.3.1-.4.4-.2.7h0c.3.5.5.9.4,1.3,0,.6.1,1.3-.8.7,0,0-.1-.1-.2-.1-.1-.2-.1-.5,0-.8v-.3c-.6-.1-.4-.6-.5-.9-.2-.7-.6-.9-1.1-.4q-.1.1-.2.2c0-.3-.2-.6-.4-.8-.8-.5-.5-.8,0-1.2.2-.1.3-.3.3-.5h-.1c-.3,0-.7,0-1,.1-.6.1-1.1.2-1,1,0,.2-.1.4-.3.4h-.1c-.7-.1-1.1.6-1.8.6-.2-.1-.5.1-.5.4h0"/>
      <path id="Path_192" data-name="Path 192" class="cls-1" d="M173,29.5c.2.3.4.5.6.8.1.2.1.4-.2.4-.7.2-.9.5-.5,1,.3.3.5.7.7,1,.3.4.9.4,1,0,.2-.6.4-.9,1-.9s.3-.2.3-.4h0c0-.2-.2-.2-.4-.2-.6,0-1,0-1-.8s-.8-.7-.6-1.2c.5-.1.7.4,1.2.5-.1-.8.1-1.5.5-2.3-1.4.2-1.7.2-2.4.7-.7.4-.8.7-.3,1.3"/>
      <path id="Path_176" data-name="Path 176" class="cls-1" d="M122.6,167.1c.2-.2.4-.5.6-.8.2-.3.1-.8-.2-1-1.2-.7-2.2-.3-2.2,1.2v.2c.2.3-.3,1,.2,1.2.6.1,1.1-.3,1.5-.8"/>
      <path id="Path_177" data-name="Path 177" class="cls-1" d="M121.8,170.5c-.1-.2-.3-.2-.4-.2-.3.1-.7.1-1,.2-.3.1-.6.3-.5.6.3.7-.1,1.3-.4,1.9.4.1.6,0,.7-.2.5-.7.7-1.5,1.6-1.9.1.1.1-.2,0-.4"/>
      <path id="Path_178" data-name="Path 178" class="cls-1" d="M117.5,168c.1.6.5.3.8.3.5.2,1,.2,1-.5.1-.4-.2-.8-.6-.9h-.1c-.5,0-1.2.7-1.1,1.1"/>
      <path id="Path_179" data-name="Path 179" class="cls-1" d="M123.5,158.4c0-.3-.1-.4-.4-.4-.7.1-1.2.6-1.7,1-.1.1-.1.3,0,.5s.3.3.5.2c.5-.3.9-.5,1.4-.9.1-.1.1-.3.2-.4"/>
      <path id="Path_180" data-name="Path 180" class="cls-1" d="M125.4,167.2c.4-.2.8-.4,1.2-.6.1-.1.1-.2.1-.3s-.1-.2-.2-.2h-.1c-.5.3-.9-.7-1.3,0,0,0,0-.3-.3-.3-.1.4-.1.7,0,1.1.1.1.3.4.6.3"/>
      <path id="Path_181" data-name="Path 181" class="cls-1" d="M122.2,162.4c0-.3-.1-.6-.4-.7-.2,0-.3.1-.3.2,0,.3.1.5.4.6.1.1.2.1.3-.1,0,.1,0,0,0,0"/>
      <path id="Path_182" data-name="Path 182" class="cls-1" d="M121.3,173c-.1,0-.2.1-.2.2h0c0,.2.2.2.3.2s.2-.1.2-.2c0-.2-.1-.3-.3-.2"/>
      <path id="Path_183" data-name="Path 183" class="cls-1" d="M124.5,173.8v-.2h-.1s-.1.1-.2.1c0,.1.1.2.1.2.1,0,.2,0,.2-.1"/>
      <path id="Path_184" data-name="Path 184" class="cls-1" d="M126.1,175s-.1-.1-.2-.1v.2h.1q.1,0,.1-.1"/>
      <path id="Path_185" data-name="Path 185" class="cls-1" d="M186,121.2h.1c0-.1-.1,0-.1,0h0c-.4,0-.7-.1-.9.3-.2.4.3.5.4.8.1.2.3.2.4.2,0-.5-.3-.9.1-1.3"/>
      <path id="Path_186" data-name="Path 186" class="cls-1" d="M179.9,134.6h0"/>
      <path id="Path_187" data-name="Path 187" class="cls-1" d="M179.8,134.7h0"/>
      <path id="Path_188" data-name="Path 188" class="cls-1" d="M100.3,72c.1,0,.2,0,.2-.1h0c0-.1-.1-.2-.1-.2-.1,0-.1.1-.2.1.1,0,.1.1.1.2"/>
      <path id="Path_189" data-name="Path 189" class="cls-1" d="M96.5,68.6h-.1c-.1,0,0,.1.1,0h0"/>
    </g>
  </g>
  <path class="cls-1" d="M137,188.5c-.4.5-.5,1.3-.7,2-.1.3,0,.6.5.5.3-.1.6-.1.9,0,.2,0,.3,0,.5-.1,0-.2.1-.2.2-.1h0c.7-.6,1.6-.5,2.6-.7,0-.2,0-.4.3-.4"/>
  <path class="cls-1" d="M58.1,200.4c.1.8.7,1.2,1.2,1.8h0c.8,1,1.9,1.3,2.9.8,1.2-.7,2.6-1.3,3.4-2.7.7-1.2.7-2.7-.5-3.5-.5-.3-1-.5-1.4-.8-.5-.3-1.1-.5-1.7-.4-.3.1-.7.1-1,.1-.9-.1-1.5.4-2,1h0c-.6.2-.6.8-.6,1.3-.1.5-.3,1-.7,1.4.2.1.5.4.6.8Z"/>
  <path class="cls-1" d="M191.1,227.2s.1-.1,0,0c.3-.1.4-.1,0,0Z"/>
  <path class="cls-1" d="M191.2,227.1s-.1.1,0,0c.3,0,.2,0,0,0Z"/>
  <path class="cls-1" d="M102.7,225.2c-.2,1.1-.1,2.2.4,2.9.5.8,1.2,1.3,2.3,1.5l1.5.3.6-2.8-1.1-.2c-.7-.1-.9-.6-.8-1.3l1.6-8c-1-.4-1.9-.7-2.8-1.1l-1.7,8.7Z"/>
  <path class="cls-1" d="M103.1,216h.5-.5Z"/>
  <path class="cls-1" d="M108.2,212.8l.3-1.2c-.3.1-.6.1-.9.2.3-.1.6-.2,1-.3l.3-1.4-2.9-.6-.8,4h.1c.9-.2,1.9-.4,2.9-.6Z"/>
  <path class="cls-1" d="M103.5,213.6h0q.1.1.2,0h-.2Z"/>
  <path class="cls-1" d="M107.9,214.5l.2-.9h-.1c-1.1.2-2.4.3-3.5.5,1.7.7,3.4,1.5,5.2,2.3l.3-1.5-2.2-.3Z"/>
  <path class="cls-1" d="M89.4,217.1c.5.9,1.3,1.6,2.5,2.2l2.4,1c.5.2.9.4,1.1.7s.3.7.1,1.2c-.2.6-.6.9-1.2,1.1-.6.1-1.3.1-2.2-.2-1.8-.6-3.1-1.7-3.8-3.3l-2.7,1.3c1.2,2.4,3,3.9,5.2,4.6,1.6.5,3.2.6,4.5.2,1.3-.4,2.3-1.3,2.8-2.7.4-1.2.4-2.3.1-3.3-.4-1-1.2-1.8-2.7-2.5l-2.3-.9c-.3-.2-.6-.3-.8-.5-1.1.2-2.2.4-3.3.6.1.2.2.2.2.3Z"/>
  <path class="cls-1" d="M89.2,213.8c-.3.9-.3,1.8-.1,2.7,1-.2,2-.4,3.1-.6,0,0,0-.1-.1-.1-.2-.3-.3-.7-.1-1,.2-.5.5-.8.9-1s1.1-.2,2,.1c.8.3,1.4.6,1.9,1,0,0,.1,0,.1.1.9-.2,1.8-.3,2.7-.5-2.3-.9-4.6-1.9-8.2-3.3-1,.4-1.7,1.3-2.3,2.7Z"/>
  <path class="cls-1" d="M97.4,215.4c.3.3.6.7.9,1.1l2.5-1.5s0-.1-.1-.1h-.1c-1,.2-2.2.4-3.2.5Z"/>
  <path class="cls-1" d="M76,219.4l5.5,3,1.4-2.7-2-1c-.7.1-1.5.3-2.3.4-.8,0-1.7.1-2.7.3Z"/>
  <path class="cls-1" d="M76.7,218.3c-.6.1-1.3.2-1.9.3h.1c1.6-.1,3.2-.3,4.7-.5.2,0,.3,0,.5-.1h-.3c-1,0-2,.2-3.1.3Z"/>
  <path class="cls-1" d="M74.3,217.6h1.2c.4-.1.7-.2,1.1-.2s.7-.1,1.1-.1.5-.1.8-.1l-4.4-2.4,3-5.5,7.6,4,1.3-2.6-7.6-4,.4-.7c-.9-.4-1.9-.7-3-1.1l-5.8,11.2,3.1,1.6h.1c.2,0,.6-.1,1-.1Z"/>
  <path class="cls-1" d="M81.2,201.4l8.9,4.7,1.4-2.7-11.7-6.1-3.3,6.1c.9.3,1.9.7,3,1.1l1.6-3.2Z"/>
  <path class="cls-1" d="M64,199.7c.6.2,1,.4,1.5.6.7-1.2.6-2.7-.6-3.4-.5-.3-1-.5-1.4-.8-.5-.3-1.1-.5-1.7-.4-.3.1-.7.1-1,.1-.9-.1-1.5.4-2,1h-.1c.5.2,1,.4,1.5.6.4.4-3.4-.7,3.9,2.3Z"/>
  <path class="cls-1" d="M191.8,199.7c.6.2,1,.4,1.5.6.7-1.2.6-2.7-.6-3.4-.5-.3-1-.5-1.4-.8-.5-.3-1.1-.5-1.7-.4-.3.1-.7.1-1,.1-.9-.1-1.5.4-2,1h-.1c.5.2,1,.4,1.5.6.4.4-3.4-.7,3.9,2.3Z"/>
  <path class="cls-1" d="M58.1,198c-.1.5-.3,1-.7,1.4.4.2.6.5.7.9.1.8.7,1.2,1.2,1.8h0c.8,1,1.9,1.3,2.9.8,1.1-.6,2.3-1.1,3.1-2.2-2.6-1-4.9-1.9-7.2-2.9h0Z"/>
  <path class="cls-1" d="M185,198c-.1.5-.3,1-.7,1.4.4.2.6.5.7.9.1.8.7,1.2,1.2,1.8h0c.8,1,1.9,1.3,2.9.8,1.1-.6,2.3-1.1,3.1-2.2-2.6-1-4.9-1.9-7.2-2.9h0Z"/>
  <path class="cls-1" d="M112,229.9c-.2.1-.2,0-.5.1q-.1,0-.2.1c-.1,0-.2.1-.3.1v.2h.1q.1,0,.2-.1c.1-.1.3-.1.4-.2.2-.1.4-.2.6-.2s.2-.1.2,0c-.3.2-.6.4-1,.5l2.4.3.3-2.4c-.3.2-.7.5-1,.7-.3.4-.7.6-1.1.8Z"/>
  <path class="cls-1" d="M111.8,229c.4-.2.7-.4,1.1-.6.3-.2.6-.4.9-.6l-2.5-.3-.2,1.8h.1c.2-.1.3-.2.5-.3Z"/>
  <path class="cls-1" d="M131.6,221.3l-1.7,2.7c.7.2,1.4.5,2.2.7.3.1.5.2.8.3l3-4.4c-1.5.2-2.9.4-4.2.7Z"/>
  <path class="cls-1" d="M134.2,219.7c-.3.1-.5.1-.5.2,0,0,.3,0,1.1-.1.4,0,.7-.1,1-.1h.3v-.2c.8-1.1,1.2-2.5,1.1-3.8-.1-1.7-.8-3.2-1.9-4.2-1.2-1.1-2.7-1.5-4.4-1.4-1.5.1-2.9.8-3.9,1.9-1,1.2-1.4,2.8-1.4,4.5l3-.2c0-1,.3-1.7.8-2.4s1.1-.9,1.9-.9,1.6.2,2.2.8.8,1.2.8,2v.9c-.1.4-.3.8-.5,1.2l-1.2,1.8c.5-.1,1.1-.2,1.7-.2,1.1-.3.5-.1-.1,0Z"/>
  <path class="cls-1" d="M129.5,224.3v.2c.7.2.5.1,0-.2Z"/>
  <path class="cls-1" d="M136.5,228.1l-6.1.4,1.3-1.9c-.9-.3-1.9-.5-3-.9l-2.2,3.3.2,2.9,11.8-.7v-2.4c-.3-.1-.6-.1-.8-.2-.5-.2-.9-.3-1.2-.4Z"/>
  <path class="cls-1" d="M155.7,205h0l-2,3.1,1.1,3.1,1.9-3.1,4.5,11.9c.8-.5,1.6-1.1,2.6-1.6l-5.2-13.8c-1,.1-1.9.3-2.9.5Z"/>
  <path class="cls-1" d="M161.6,220.7l1.6,4.3,2.8-1-1.9-5.1c-.1,0-.2.1-.2.1-.6.4-1.3,1-2.3,1.7Z"/>
  <path class="cls-1" d="M178,218.2l2.6-1.4-3.5-6.1c-.8.5-1.6,1.1-2.5,1.6l3.4,5.9Z"/>
  <path class="cls-1" d="M172,201.6v-.2c-2.5.4-4.1.7-5.6,1l-.3.6,1.6,2.9,1.4-3.4,4.9,8.8c.7-.5,1.5-1,2.5-1.6l-4.4-7.9c-.4-.1-.5-.1-.1-.2Z"/>
  <path class="cls-1" d="M170.1,198.2l-2.6,1.4-.7,1.6c1.5-.2,3-.4,4.6-.6l-1.3-2.5Z"/>
  <path class="cls-1" d="M151.1,228c-.1.1-.2.1-.3.2-.1.1-.2.1-.3.2-.4.2-.6.4-.6.4.2-.1.4-.1.5-.2l.5-.2h.1c.3-.2.6-.5.9-.8-.1.1-.3.2-.4.2-.1,0-.2.1-.4.2Z"/>
  <path class="cls-1" d="M153.3,222l-2-9.2c-.4-1.9-1.3-3.3-2.7-4.1s-2.8-1-4.3-.7-2.8,1.1-3.6,2.4c-.9,1.3-1.2,2.9-.8,4.8l.8,3.7h3.1l-.9-4.1c-.4-2,.3-3.4,2.2-3.8s3.1.5,3.6,2.6l1.9,8.8c.4,2.2-.3,3.4-2.2,3.8s-3.1-.5-3.5-2.6l-.9-4.1c-1,.1-2,.2-3,.2l1,4.7c.3,1.5,1,2.7,1.9,3.5,1.1.1,2.3.2,3.4,0,.2,0,.3,0,.5-.1h.5c.2-.1.3-.2.5-.2h.5c0-.1.5-.2.5-.2h.2c0-.1.2-.2.2-.2l.5-.2.5-.2c.1,0,.1-.1.2-.1s.1-.1.2-.1c.1-.1.3-.2.4-.3.3-.2.6-.4.9-.6.2-.1.3-.2.5-.3-.1-.8-.1-2-.3-3.3Z"/>
  <path class="cls-1" d="M38.3,190.3c-.3-.1-.5-.2-.8-.3.3.1.6.2.8.3Z"/>
  <path class="cls-1" d="M103.6,216.1c.3.1.6.2.9.4v-.2l-.9-.2Z"/>
  <path class="cls-1" d="M129.5,224.3l.2-.3c-.4-.1-.8-.3-1.2-.4-1-.3.3.3,1,.7Z"/>
  <path class="cls-1" d="M100.7,214.8h0c.8.4,1.5.7,2.4,1l.3-1.4c-.9.1-1.8.3-2.7.4Z"/>
  <path class="cls-1" d="M84.1,216.4c1.4-.2,2.9-.5,4.1-.8-2.2.4-3.5.7-4.1.8Z"/>
  <path class="cls-1" d="M146.9,204.9c.1,0,.3,0,.5-.1.9-.2,1.7-.5,2.6-.6l-3.1.7Z"/>
  <path class="cls-1" d="M103.5,213.7h0q0,.1,0,0h0Z"/>
  <path class="cls-1" d="M105.1,213.4c-.4.1-.9.2-1.3.3l1.2.3v-.6Z"/>
  <path class="cls-1" d="M103.4,214.4c.4-.1.7-.1,1.1-.2-.3-.1-.6-.3-1-.4v.6Z"/>
  <path class="cls-1" d="M99.8,214.4c.3.1.6.2.9.4h.1c-.1-.2-.2-.3-.3-.5-.3.1-.5.1-.7.1Z"/>
  <polygon class="cls-1" points="37.2 209.8 37.1 209.9 37.1 209.9 37.2 209.8"/>
  <path class="cls-1" d="M145.2,219.5c1.9-.4,1-.5-.7-.5h-.9v.6c.7,0,1.2,0,1.6-.1Z"/>
</svg>