<?xml version="1.0" encoding="UTF-8"?><svg id="Layer_1" xmlns="http://www.w3.org/2000/svg" viewBox="0 0 431.63 58.25"><path d="M125.69,56.49c-3.65,0-7.3.01-10.95,0-2.27-.01-3.92-1.7-3.78-3.9.04-.59.24-1.22.54-1.73,3.63-6.35,7.28-12.68,10.94-19.01,1.52-2.63,5.05-2.63,6.57,0,3.65,6.31,7.29,12.63,10.92,18.95,1.54,2.69-.18,5.67-3.29,5.69-3.65.02-7.3,0-10.95,0ZM124.51,42.39c0,1.96,0,3.93,0,5.89,0,.85.47,1.4,1.19,1.41.73.01,1.22-.53,1.22-1.37,0-3.93,0-7.86,0-11.78,0-.23-.04-.48-.13-.69-.22-.52-.81-.8-1.32-.68-.56.13-.96.63-.96,1.27,0,1.98,0,3.97,0,5.95ZM125.7,53.49c.65,0,1.23-.59,1.22-1.28,0-.63-.54-1.19-1.16-1.21-.65-.03-1.25.57-1.25,1.25,0,.66.55,1.23,1.19,1.24Z" fill="#000" stroke-width="0"/><path d="M113.76,25.17v-2.84h23.94v2.84h-23.94Z" fill="#000" stroke-width="0"/><path d="M132.15,10.84l-4.95-4.95h0s-4.73-4.73-4.73-4.73c-1.54-1.54-4.04-1.54-5.59,0h0c-1.54,1.54-1.54,4.04,0,5.59l4.73,4.73.23.23,4.73,4.73c1.54,1.54,4.04,1.54,5.59,0h0c1.54-1.54,1.54-4.04,0-5.59ZM121.83,10.18l-4.2-4.2c-1.12-1.12-1.12-2.95,0-4.07s2.95-1.12,4.07,0l4.2,4.2-4.07,4.07Z" fill="#000" stroke-width="0"/><path d="M399.13,40.09l-9.24-9.24h0s-8.81-8.81-8.81-8.81c-2.88-2.88-7.54-2.88-10.42,0h0c-2.88,2.88-2.88,7.54,0,10.42l8.81,8.81.43.43,8.81,8.81c2.88,2.88,7.54,2.88,10.42,0h0c2.88-2.88,2.88-7.54,0-10.42ZM379.9,38.86l-7.82-7.82c-2.09-2.09-2.09-5.49,0-7.59,2.09-2.09,5.49-2.09,7.59,0l7.82,7.82-7.59,7.59Z" fill="#000" stroke-width="0"/><path d="M88.72,19.07c0-3.35,2.72-6.06,6.06-6.06s6.06,2.72,6.06,6.06-2.72,6.06-6.06,6.06-6.06-2.72-6.06-6.06ZM110.17,19.18c-1.05-1.05-2.76-1.05-3.81,0l-7.3,7.3h-10.11l-9.54,7.55c-1.05,1.05-1.05,2.76,0,3.81,1.05,1.05,2.76,1.05,3.81,0l4.16-2.97v18.56c0,1.49,1.21,2.7,2.7,2.7h1.35c1.49,0,2.7-1.21,2.7-2.7v-9.43h1.35v9.43c0,1.49,1.21,2.7,2.7,2.7h1.35c1.49,0,2.7-1.21,2.7-2.7v-22.47l7.97-7.97c1.05-1.05,1.05-2.76,0-3.81Z" fill="#000" stroke-width="0"/><circle cx="29.02" cy="29.24" r="26.89" fill="none" stroke="#000" stroke-miterlimit="10" stroke-width="4.25"/><circle cx="180.34" cy="29.24" r="26.89" fill="none" stroke="#000" stroke-miterlimit="10" stroke-width="4.25"/><circle cx="246.79" cy="29.24" r="26.89" fill="none" stroke="#000" stroke-miterlimit="10" stroke-width="4.25"/><path d="M17.3,41.06h-2.99v-20.52l-3.44,2.47v-3.26l3.44-2.64h2.99v23.96Z" fill="#000" stroke-width="0"/><path d="M25.71,28.63c-1.91-.94-3.3-2.95-3.3-5.21,0-3.99,3.26-6.6,6.88-6.6s6.88,2.6,6.88,6.6c0,2.26-1.42,4.27-3.33,5.21,1.94.8,3.68,2.99,3.68,5.7,0,4.24-3.47,7.02-7.22,7.02s-7.22-2.78-7.22-7.02c0-2.71,1.77-4.9,3.65-5.7ZM29.29,38.63c2.36,0,4.24-1.94,4.24-4.31,0-2.64-2.22-4.27-4.24-4.27s-4.24,1.63-4.24,4.27c0,2.36,1.81,4.31,4.24,4.31ZM29.29,27.38c2.15,0,3.89-1.77,3.89-3.96s-1.74-3.89-3.89-3.89-3.92,1.74-3.92,3.89,1.74,3.96,3.92,3.96Z" fill="#000" stroke-width="0"/><path d="M36.54,27.52h5.49v-5.52h2.5v5.52h5.52v2.5h-5.52v5.49h-2.5v-5.49h-5.49v-2.5Z" fill="#000" stroke-width="0"/><path d="M241.95,41.06h-14.06v-2.5l8.44-9.97c1.63-1.91,2.71-3.54,2.71-5.35,0-2.5-1.91-3.75-3.89-3.75-2.15,0-3.85,1.29-3.92,3.75h-2.95c0-3.96,3.13-6.42,6.88-6.42s6.88,2.47,6.88,6.56c0,2.85-2.08,5.14-3.61,6.98l-6.6,7.99h10.14v2.71Z" fill="#000" stroke-width="0"/><path d="M245.8,29.57h-2.74v-12.47h12.16v2.99h-9.27v6.29c.76-.87,1.98-1.56,3.82-1.56,4.45,0,6.46,3.4,6.46,8.79,0,4.72-2.43,7.74-7.02,7.74-3.72,0-6.46-2.6-6.7-5.9h2.92c.45,2.01,1.84,3.19,3.79,3.19,2.47,0,4.03-1.42,4.03-5.04s-1.18-5.8-4.03-5.8c-1.63,0-2.74.83-3.4,1.77Z" fill="#000" stroke-width="0"/><path d="M267.32,38.39c-.73,1.36-2.16,1.97-4.05,1.97-3.21,0-5.06-2.06-5.06-5.29v-1.55c0-3.33,1.9-5.25,5.06-5.25,1.76,0,3.21.63,4.05,1.83l-1.48,1.03c-.52-.75-1.5-1.17-2.58-1.17-2.01,0-3.19,1.36-3.19,3.56v1.55c0,2.01.94,3.61,3.19,3.61,1.1,0,2.11-.38,2.6-1.31l1.45,1.03Z" fill="#000" stroke-width="0"/><path d="M171.96,29.81c-4.08,4.08-4.08,10.69,0,14.77,4.08,4.08,10.69,4.08,14.77,0,4.08-4.08,4.08-10.69,0-14.77l-7.23-10.53-7.54,10.53Z" fill="#000" stroke-width="0"/><path d="M184.9,14.93c-2.17,2.17-2.17,5.69,0,7.86s5.69,2.17,7.86,0,2.17-5.69,0-7.86l-3.85-5.61-4.01,5.61Z" fill="#000" stroke-width="0"/><path d="M172.91,11.83c-1.32,1.32-1.32,3.45,0,4.76s3.45,1.32,4.76,0,1.32-3.45,0-4.76l-2.33-3.4-2.43,3.4Z" fill="#000" stroke-width="0"/><line x1="161.36" y1="10.18" x2="198.99" y2="47.8" fill="none" stroke="#000" stroke-miterlimit="10" stroke-width="5"/><circle cx="259.03" cy="25.31" r="2.44" fill="none" stroke="#000" stroke-miterlimit="10" stroke-width=".74"/><path d="M301.59,1.27c-4.21,0-7.63,3.41-7.63,7.63,0,.91.17,1.78.46,2.59-.15-.02-.3-.05-.46-.05-1.94,0-3.81,1.87-3.81,3.81,0,.88-.29,5.87-2.93,5.87-.49,0-.88.39-.88.88s.39.88.88.88c6.15,0,9.11-3.81,10.13-6.26.19-.36.31-.74.37-1.16,1.14.67,2.46,1.07,3.87,1.07,4.21,0,7.63-3.41,7.63-7.63s-3.41-7.63-7.63-7.63Z" fill="#000" stroke-width="0"/><path d="M312.31,32.56c1.18-.65,1.99-1.89,1.99-3.33h0c0-2.54-1.27-3.81-7.63-8.9-1.27-.84-2.8-1.27-4.44-1.27-3.6,0-6.64,2.36-7.68,5.62l-2.99,9.86c-.37,1.29-.03,2.67.88,3.65l8.9,9.52c.75.8,1.77,1.21,2.79,1.21.93,0,1.87-.34,2.6-1.03,1.54-1.44,1.62-3.85.18-5.39l-7.43-7.95,1.95-6.82,2.44.7-1.55,5.44,6.44,6.9c1.16,1.24,1.77,2.86,1.71,4.55-.06,1.7-.77,3.27-2.01,4.43-1.18,1.1-2.72,1.71-4.34,1.71-1.76,0-3.45-.73-4.65-2.02l-5.52-5.91v10.48c0,1.76,1.42,3.18,3.18,3.18h10.8c7.02,0,12.71-5.69,12.71-12.71,0-5.48-3.48-10.14-8.34-11.93Z" fill="#000" stroke-width="0"/><path d="M319.5,16.7v-2.21c0-1.34.22-2.14,1.25-3.14l1.44-1.38c1.28-1.22,2.05-2.02,2.05-3.52s-1.06-2.34-2.46-2.34c-1.31,0-2.46.74-2.5,2.18h-4.22c0-3.97,3.07-5.92,6.72-5.92s6.94,1.95,6.94,6.11c0,2.56-1.44,4.35-3.2,6.08l-1.06,1.02c-.64.64-1.09,1.06-1.09,2.11v.99h-3.87ZM323.63,18.4h-4.38v4.35h4.38v-4.35Z" fill="#000" stroke-width="0"/><path d="M343.1,19.18c5.3,0,9.59-4.29,9.59-9.59s-4.29-9.59-9.59-9.59-9.59,4.29-9.59,9.59,4.29,9.59,9.59,9.59ZM334.11,31.77c0,1,.8,1.8,1.8,1.8s1.8-.8,1.8-1.8-.8-1.8-1.8-1.8-1.8.8-1.8,1.8ZM350.29,21.63v3.67c2.74.55,4.8,2.98,4.8,5.88v3.12c0,.57-.4,1.06-.97,1.18l-2.41.48c-.32.07-.64-.14-.7-.47l-.23-1.18c-.07-.32.14-.64.47-.7l1.45-.29v-2.14c0-4.71-7.19-4.88-7.19.14v2l1.45.29c.32.07.53.38.47.7l-.23,1.18c-.07.32-.38.53-.7.47l-2.34-.31c-.59-.08-1.03-.58-1.03-1.19v-3.28c0-2.89,2.06-5.31,4.8-5.88v-3.39c-.16.05-.33.08-.49.14-1.35.47-2.8.73-4.3.73s-2.95-.26-4.3-.73c-.55-.19-1.12-.31-1.69-.39v6.12c1.73.52,3,2.11,3,4,0,2.32-1.88,4.2-4.2,4.2s-4.2-1.88-4.2-4.2c0-1.9,1.27-3.48,3-4v-6.03c-4.77.8-8.4,4.91-8.4,9.9v3.36c0,1.85,1.51,3.36,3.36,3.36h26.86c1.85,0,3.36-1.51,3.36-3.36v-3.36c0-5.4-4.26-9.76-9.59-10.03h0Z" fill="#000" stroke-width="0"/><path d="M388.25,16.7v-2.21c0-1.34.22-2.14,1.25-3.14l1.44-1.38c1.28-1.22,2.05-2.02,2.05-3.52s-1.06-2.34-2.46-2.34c-1.31,0-2.46.74-2.5,2.18h-4.22c0-3.97,3.07-5.92,6.72-5.92s6.94,1.95,6.94,6.11c0,2.56-1.44,4.35-3.2,6.08l-1.06,1.02c-.64.64-1.09,1.06-1.09,2.11v.99h-3.87ZM392.37,18.4h-4.38v4.35h4.38v-4.35Z" fill="#000" stroke-width="0"/><path d="M414.85,19.18c5.3,0,9.59-4.29,9.59-9.59s-4.29-9.59-9.59-9.59-9.59,4.29-9.59,9.59,4.29,9.59,9.59,9.59ZM405.85,31.77c0,1,.8,1.8,1.8,1.8s1.8-.8,1.8-1.8-.8-1.8-1.8-1.8-1.8.8-1.8,1.8ZM422.04,21.63v3.67c2.74.55,4.8,2.98,4.8,5.88v3.12c0,.57-.4,1.06-.97,1.18l-2.41.48c-.32.07-.64-.14-.7-.47l-.23-1.18c-.07-.32.14-.64.47-.7l1.45-.29v-2.14c0-4.71-7.19-4.88-7.19.14v2l1.45.29c.32.07.53.38.47.7l-.23,1.18c-.07.32-.38.53-.7.47l-2.34-.31c-.59-.08-1.03-.58-1.03-1.19v-3.28c0-2.89,2.06-5.31,4.8-5.88v-3.39c-.16.05-.33.08-.49.14-1.35.47-2.8.73-4.3.73s-2.95-.26-4.3-.73c-.55-.19-1.12-.31-1.69-.39v6.12c1.73.52,3,2.11,3,4,0,2.32-1.88,4.2-4.2,4.2s-4.2-1.88-4.2-4.2c0-1.9,1.27-3.48,3-4v-6.03c-4.77.8-8.4,4.91-8.4,9.9v3.36c0,1.85,1.51,3.36,3.36,3.36h26.86c1.85,0,3.36-1.51,3.36-3.36v-3.36c0-5.4-4.26-9.76-9.59-10.03h0Z" fill="#000" stroke-width="0"/></svg>