<?xml version="1.0" encoding="UTF-8"?><svg id="Layer_1" xmlns="http://www.w3.org/2000/svg" viewBox="0 0 1634.72 1818.27"><circle cx="1408.88" cy="178.73" r="40.35" fill="#000" stroke-width="0"/><polyline points="1380.35 150.19 1380.35 150.19 1380.35 150.19 1399.45 169.29" fill="#000" stroke-width="0"/><line x1="1437.42" y1="207.26" x2="1422.42" y2="192.26" fill="#000" stroke-width="0"/><path d="M1358.43,258.68l2.97-8.54h.99l2.97,8.54h-1.13l-.66-1.96h-3.37l-.66,1.96h-1.13ZM1360.55,255.76h2.7l-1.35-4.01-1.35,4.01Z" fill="#000" stroke-width="0"/><path d="M1368.84,257.71h4.08v.96h-5.15v-8.54h1.06v7.57Z" fill="#000" stroke-width="0"/><path d="M1376.27,257.71h4.08v.96h-5.15v-8.54h1.06v7.57Z" fill="#000" stroke-width="0"/><path d="M1387.79,250.14v.97h-4.08v2.67h3.71v.97h-3.71v2.97h4.08v.96h-5.15v-8.54h5.15Z" fill="#000" stroke-width="0"/><path d="M1395.43,258.68l-1.78-3.6h-2.02v3.6h-1.06v-8.54h2.72c1.97,0,3.11.82,3.11,2.48,0,1.2-.59,1.96-1.68,2.28l1.91,3.79h-1.19ZM1393.29,254.11c1.45,0,2.04-.45,2.04-1.5s-.59-1.51-2.04-1.51h-1.66v3.01h1.66Z" fill="#000" stroke-width="0"/><path d="M1405.08,254.39v.49c0,2.76-1.25,3.9-3.14,3.9s-3.09-1.14-3.09-3.9v-.94c0-2.76,1.2-3.9,3.09-3.9,1.66,0,2.8.88,3.07,2.76h-1.04c-.27-1.28-.94-1.79-2.03-1.79-1.31,0-2.03.82-2.03,2.93v.94c0,2.12.72,2.93,2.03,2.93,1.2,0,1.96-.69,2.07-2.46h-2.03v-.96h3.11Z" fill="#000" stroke-width="0"/><path d="M1413.14,250.14v.97h-4.08v2.67h3.71v.97h-3.71v2.97h4.08v.96h-5.15v-8.54h5.15Z" fill="#000" stroke-width="0"/><path d="M1421.71,250.14v8.54h-1.04l-3.69-6.46v6.46h-1.06v-8.54h1.01l3.71,6.52v-6.52h1.06Z" fill="#000" stroke-width="0"/><path d="M1434.52,250.14v.97h-4.08v2.87h3.71v.97h-3.71v3.74h-1.06v-8.54h5.15Z" fill="#000" stroke-width="0"/><path d="M1442.04,258.68l-1.78-3.6h-2.02v3.6h-1.06v-8.54h2.72c1.97,0,3.11.82,3.11,2.48,0,1.2-.59,1.96-1.68,2.28l1.91,3.79h-1.19ZM1439.9,254.11c1.45,0,2.04-.45,2.04-1.5s-.59-1.51-2.04-1.51h-1.66v3.01h1.66Z" fill="#000" stroke-width="0"/><path d="M1451.04,250.14v.97h-4.08v2.67h3.71v.97h-3.71v2.97h4.08v.96h-5.15v-8.54h5.15Z" fill="#000" stroke-width="0"/><path d="M1458.97,250.14v.97h-4.08v2.67h3.71v.97h-3.71v2.97h4.08v.96h-5.15v-8.54h5.15Z" fill="#000" stroke-width="0"/><circle cx="134.82" cy="994.7" r="44.01" fill="#000" stroke-width="0"/><polyline points="103.7 963.58 103.7 963.58 103.7 963.58" fill="#000" stroke-width="0"/><path d="M115.48,1076.56h3.99v-3.97h1.16v9.31h-1.16v-4.29h-3.99v4.29h-1.16v-9.31h1.16v3.97Z" fill="#000" stroke-width="0"/><path d="M123.26,1081.9l3.24-9.31h1.08l3.24,9.31h-1.23l-.71-2.13h-3.67l-.71,2.13h-1.23ZM125.57,1078.71h2.94l-1.47-4.37-1.47,4.37Z" fill="#000" stroke-width="0"/><path d="M134.61,1080.85h4.45v1.05h-5.61v-9.31h1.16v8.26Z" fill="#000" stroke-width="0"/><path d="M140.68,1081.9l3.24-9.31h1.08l3.24,9.31h-1.23l-.71-2.13h-3.67l-.71,2.13h-1.23ZM142.98,1078.71h2.94l-1.47-4.37-1.47,4.37Z" fill="#000" stroke-width="0"/><path d="M152.02,1080.85h4.45v1.05h-5.61v-9.31h1.16v8.26Z" fill="#000" stroke-width="0"/><circle cx="565.19" cy="348.98" r="40.35" fill="#000" stroke-width="0"/><polyline points="536.65 320.44 536.65 320.44 536.65 320.44" fill="#000" stroke-width="0"/><path d="M546.5,428.93l-2.87-4.26-1.57,1.93v2.33h-1.06v-8.54h1.06v4.59l3.71-4.59h1.37l-2.81,3.43,3.44,5.11h-1.27Z" fill="#000" stroke-width="0"/><path d="M552.66,429.03c-1.89,0-3.09-1.14-3.09-3.9v-.94c0-2.76,1.2-3.9,3.09-3.9s3.09,1.14,3.09,3.9v.94c0,2.76-1.2,3.9-3.09,3.9ZM550.63,425.13c0,2.12.72,2.93,2.03,2.93s2.03-.82,2.03-2.93v-.94c0-2.12-.72-2.93-2.03-2.93s-2.03.82-2.03,2.93v.94Z" fill="#000" stroke-width="0"/><path d="M563.1,422.28c-.46-.59-.95-1.03-2.03-1.03-.99,0-1.66.45-1.66,1.34,0,1.01.77,1.36,2.02,1.58,1.65.29,2.65.88,2.65,2.46,0,1.11-.74,2.39-2.87,2.39-1.39,0-2.4-.47-3.04-1.4l.88-.61c.56.66,1.05,1.04,2.17,1.04,1.4,0,1.81-.64,1.81-1.37,0-.8-.41-1.35-2.02-1.6-1.61-.25-2.65-1.02-2.65-2.5,0-1.22.8-2.3,2.76-2.3,1.36,0,2.21.46,2.82,1.4l-.83.59Z" fill="#000" stroke-width="0"/><path d="M568.02,424.03h3.66v-3.64h1.06v8.54h-1.06v-3.94h-3.66v3.94h-1.06v-8.54h1.06v3.64Z" fill="#000" stroke-width="0"/><path d="M581.23,420.39v.97h-4.08v2.67h3.71v.96h-3.71v2.97h4.08v.96h-5.15v-8.54h5.15Z" fill="#000" stroke-width="0"/><path d="M588.88,428.93l-1.78-3.6h-2.02v3.6h-1.06v-8.54h2.72c1.97,0,3.11.82,3.11,2.48,0,1.2-.59,1.96-1.68,2.28l1.91,3.79h-1.19ZM586.74,424.36c1.45,0,2.04-.45,2.04-1.5s-.59-1.51-2.04-1.51h-1.66v3.01h1.66Z" fill="#000" stroke-width="0"/><path d="M575.4,339.78c-.12-.03-.24-.07-.36-.11-.57-.19-1.14-.47-1.41-1.17-.05-.13-.1-.16-.11-.16-.01,0-.09.02-.17.17-.24.4-.51.87-.66,1.36-.58,1.86-.14,2.77,1.71,3.47,1.1.42,1.47,1.28,1.04,2.41-.19.5-.47,1.02-.9,1.64l-.35.51c-1.58,2.31-3.22,4.69-4.25,7.37-.11.29-.55.49-.82.5-.62.03-1.26.02-1.87.02-.23,0-.46,0-.69,0h-3.25l.14-.34c.05-.12.09-.22.13-.31.07-.17.12-.3.18-.43,1.54-3.23,2.73-6.69,3.53-10.29.14-.62.44-.89,1.06-.93q1.41-.09,1.35-1.54v-.06c0-.1,0-.19-.02-.27-.17-.94-.67-1.5-1.52-1.72-.25-.07-.59-.15-.93-.21-.76-.14-1.26-.51-1.52-1.15-.06-.15-.12-.19-.14-.19-.02,0-.1.02-.21.16-.64.81-.89,1.8-.69,2.71.19.88.78,1.61,1.65,2.05.64.32.59.77.47,1.16-.12.37-.23.75-.34,1.11-.09.31-.18.61-.27.91-1.14,3.63-2.22,6.32-3.52,8.74-.12.22-.42.53-.72.54h0c-.3,0-.61-.31-.73-.53-1.84-3.42-2.4-7.07-1.67-10.84.09-.46.35-.69.83-.72.39-.03.79-.1,1.2-.22.15-.04.31-.16.34-.23.33-.76-.07-2.41-.69-2.84-.39-.27-.9-.42-1.39-.57l-.21-.06c-.59-.18-1.31-.4-1.65-1.23-.04-.1-.09-.14-.11-.14-.03,0-.09.03-.15.13-.22.35-.41.75-.54,1.15-.62,1.92-.19,3.1,1.35,3.74.57.23.73.55.56,1.14-.75,2.6-.78,5.26-.07,8.14.55,2.22,1.06,4.44,1.44,6.14.06.28.16.35.48.35,1.36,0,2.86,0,4.41,0s3.14,0,4.75.02c.4,0,.51-.08.59-.49.81-4.23,2.48-8.31,5.09-12.46.61-.97,1.07-1.95,1.35-2.89.28-.92.25-1.73-.08-2.33-.3-.55-.86-.94-1.66-1.17Z" fill="#000" stroke-width="0"/><path d="M587.44,339.82c-.36,0-.73,0-1.1,0-.83,0-1.66,0-2.48,0-.64,0-1.55-.13-2.01-1.13-.05-.11-.11-.16-.14-.17-.04,0-.11.04-.19.15-.26.36-.51.74-.64,1.14-.28.88-.49,2.09.1,2.86.43.56,1.24.82,2.4.78.26-.01.52,0,.77,0,.15,0,.29,0,.44,0,.37,0,.73,0,1.1,0,.9,0,1.83,0,2.74,0,1.84.03,3.15,1.01,3.61,2.69.53,1.96.6,3.94.21,5.88-.53,2.61-1.93,3.73-4.68,3.74-.64,0-1.28,0-1.91,0h-1c-.3,0-.6,0-.9,0-.84,0-1.7,0-2.55.01-.12,0-.3.07-.36.12-.25.92-.47,1.91-.69,3.04.02.05.09.12.13.15.68,0,1.36-.01,2.04-.01,1.9,0,3.86,0,5.77-.19,2.61-.25,4.26-1.68,4.75-4.13.28-1.37.45-2.85.53-4.53.13-2.76-.13-4.94-.83-6.84-.9-2.47-2.47-3.57-5.11-3.57Z" fill="#000" stroke-width="0"/><path d="M553.08,351.31c0-.32,0-.65,0-.97,0-.71.01-1.45-.01-2.17,0-.29-.02-.58-.03-.88-.04-1.32-.07-2.68-.21-4-.18-1.71-1.03-2.75-2.54-3.07-.69-.15-1.37-.29-2.05-.31-1.36-.04-2.74-.06-4.08-.07-.64,0-1.28-.01-1.92-.02-.72-.01-1.61-.15-2.05-1.16-.04-.09-.09-.15-.13-.15,0,0,0,0,0,0-.04,0-.12.05-.19.16-.26.41-.56.89-.7,1.38-.23.79-.4,1.88.17,2.61.43.56,1.22.83,2.35.79.83-.03,1.67-.04,2.51-.04s1.65,0,2.46.02h1.04c2.56.03,3.89,1.28,4.06,3.82.06.92.1,1.91.1,3.1,0,1.45,0,2.9,0,4.35,0,1.44,0,2.87,0,4.31,0,.14.05.29.08.34.06,0,.22-.05.33-.13.54-.4.8-.91.79-1.56-.01-1.54-.01-3.1,0-4.61,0-.59,0-1.17,0-1.76Z" fill="#000" stroke-width="0"/><path d="M1299.01,179.98c4.43,5.45,4.16,13.46-.84,18.56-5.41,5.53-14.38,5.57-19.86.09-5.11-5.11-5.45-13.2-1-18.68,2.48-3.05,3.09-7.02,1.45-10.61-1.78-3.9-1.02-8.67,2.3-11.8,4.03-3.8,10.28-3.74,14.27.13,3.23,3.14,3.96,7.85,2.21,11.69-1.63,3.57-1.01,7.55,1.48,10.61Z" fill="#000" stroke-width="0"/><path d="M1290.15,159.08c.88.3,1.68.8,2.37,1.46,1.32,1.28,1.98,3.04,1.91,4.8" fill="#000" stroke-width="0"/><circle cx="1288.17" cy="178.73" r="40.35" fill="#000" stroke-width="0"/><polyline points="1259.64 150.19 1259.64 150.19 1259.64 150.19 1278.73 169.29" fill="#000" stroke-width="0"/><line x1="1316.7" y1="207.26" x2="1301.7" y2="192.26" fill="#000" stroke-width="0"/><path d="M1260,250.14v8.54h-1.04l-3.69-6.46v6.46h-1.06v-8.54h1.01l3.71,6.52v-6.52h1.06Z" fill="#000" stroke-width="0"/><path d="M1269.52,250.14v5.06c0,2.52-1.2,3.58-3.09,3.58s-3.09-1.05-3.09-3.56v-5.07h1.06v5.07c0,1.87.72,2.6,2.03,2.6s2.03-.73,2.03-2.6v-5.07h1.06Z" fill="#000" stroke-width="0"/><path d="M1278.13,250.14v.97h-2.6v7.57h-1.06v-7.57h-2.6v-.97h6.26Z" fill="#000" stroke-width="0"/><path d="M1284.92,252.03c-.46-.59-.95-1.03-2.03-1.03-.99,0-1.66.45-1.66,1.34,0,1.02.77,1.36,2.02,1.58,1.65.29,2.65.88,2.65,2.46,0,1.11-.74,2.39-2.87,2.39-1.39,0-2.4-.47-3.04-1.4l.88-.61c.56.66,1.05,1.04,2.17,1.04,1.4,0,1.81-.64,1.81-1.37,0-.8-.41-1.35-2.02-1.6-1.61-.25-2.65-1.01-2.65-2.5,0-1.22.8-2.3,2.76-2.3,1.36,0,2.21.46,2.82,1.4l-.83.59Z" fill="#000" stroke-width="0"/><path d="M1298.26,250.14v.97h-4.08v2.87h3.71v.97h-3.71v3.74h-1.06v-8.54h5.15Z" fill="#000" stroke-width="0"/><path d="M1305.78,258.68l-1.78-3.6h-2.02v3.6h-1.06v-8.54h2.72c1.97,0,3.11.82,3.11,2.48,0,1.2-.59,1.96-1.68,2.28l1.91,3.79h-1.19ZM1303.64,254.11c1.45,0,2.04-.45,2.04-1.5s-.59-1.51-2.04-1.51h-1.66v3.01h1.66Z" fill="#000" stroke-width="0"/><path d="M1314.77,250.14v.97h-4.08v2.67h3.71v.97h-3.71v2.97h4.08v.96h-5.15v-8.54h5.15Z" fill="#000" stroke-width="0"/><path d="M1322.7,250.14v.97h-4.08v2.67h3.71v.97h-3.71v2.97h4.08v.96h-5.15v-8.54h5.15Z" fill="#000" stroke-width="0"/><path d="M1167.46,193.48c0-12.34,16.02-17.24,16.02-17.24-.18.24-5.84,6.45-6.19,17.51-.14,4.57-.9,9.97-6.57,10.21-1.05.04-2.06-.24-2.95-.69-.23-.11-.42-.1-.64.03-.99.57-2.15.74-3.34.64-5.28-.49-6-5.73-6.14-10.18-.35-11.06-6.01-17.28-6.19-17.51,0,0,16.02,4.9,16.02,17.24Z" fill="#000" stroke-width="0"/><path d="M1174.93,180.62l-.79-20.78c-.14-3.54-3.08-6.34-6.68-6.34s-6.54,2.8-6.67,6.34l-.79,20.78" fill="#000" stroke-width="0"/><circle cx="1167.46" cy="178.73" r="40.35" fill="#000" stroke-width="0"/><polyline points="1160.33 171.6 1138.93 150.19 1138.92 150.19 1138.92 150.19" fill="#000" stroke-width="0"/><polyline points="1177.77 189.04 1195.99 207.26 1195.99 207.26 1195.99 207.26" fill="#000" stroke-width="0"/><path d="M1138.03,252.8c-.3-1.34-.98-1.79-2.03-1.79-1.31,0-2.03.82-2.03,2.93v.94c0,2.12.72,2.93,2.03,2.93,1.11,0,1.74-.54,2.03-1.79h1.03c-.27,1.92-1.44,2.76-3.06,2.76-1.89,0-3.09-1.14-3.09-3.9v-.94c0-2.76,1.2-3.9,3.09-3.9,1.68,0,2.8.89,3.07,2.76h-1.04Z" fill="#000" stroke-width="0"/><path d="M1144.38,258.78c-1.89,0-3.09-1.14-3.09-3.9v-.94c0-2.76,1.2-3.9,3.09-3.9s3.09,1.14,3.09,3.9v.94c0,2.76-1.2,3.9-3.09,3.9ZM1142.35,254.88c0,2.12.72,2.93,2.03,2.93s2.03-.82,2.03-2.93v-.94c0-2.12-.72-2.93-2.03-2.93s-2.03.82-2.03,2.93v.94Z" fill="#000" stroke-width="0"/><path d="M1155.24,258.68l-1.78-3.6h-2.02v3.6h-1.06v-8.54h2.72c1.97,0,3.11.82,3.11,2.48,0,1.2-.59,1.96-1.68,2.28l1.91,3.79h-1.19ZM1153.1,254.11c1.45,0,2.04-.45,2.04-1.5s-.59-1.51-2.04-1.51h-1.66v3.01h1.66Z" fill="#000" stroke-width="0"/><path d="M1164.88,250.14v8.54h-1.04l-3.69-6.46v6.46h-1.06v-8.54h1.01l3.71,6.52v-6.52h1.06Z" fill="#000" stroke-width="0"/><path d="M1177.7,250.14v.97h-4.08v2.87h3.71v.97h-3.71v3.74h-1.06v-8.54h5.15Z" fill="#000" stroke-width="0"/><path d="M1185.22,258.68l-1.78-3.6h-2.02v3.6h-1.06v-8.54h2.72c1.97,0,3.11.82,3.11,2.48,0,1.2-.59,1.96-1.68,2.28l1.91,3.79h-1.19ZM1183.08,254.11c1.45,0,2.04-.45,2.04-1.5s-.59-1.51-2.04-1.51h-1.66v3.01h1.66Z" fill="#000" stroke-width="0"/><path d="M1194.21,250.14v.97h-4.08v2.67h3.71v.97h-3.71v2.97h4.08v.96h-5.15v-8.54h5.15Z" fill="#000" stroke-width="0"/><path d="M1202.14,250.14v.97h-4.08v2.67h3.71v.97h-3.71v2.97h4.08v.96h-5.15v-8.54h5.15Z" fill="#000" stroke-width="0"/><circle cx="1046.74" cy="178.73" r="40.35" fill="#000" stroke-width="0"/><polyline points="1018.21 150.19 1018.21 150.19 1018.21 150.19 1040.64 172.62" fill="#000" stroke-width="0"/><line x1="1075.28" y1="207.26" x2="1052.85" y2="184.83" fill="#000" stroke-width="0"/><path d="M1052.76,169.61c-.56.88-.56,2,0,2.88,1.09,1.7,1.74,3.87,1.74,6.24s-.65,4.54-1.74,6.24c-.56.88-.56,2,0,2.88,1.09,1.7,1.74,3.87,1.74,6.24,0,5.46-3.47,9.88-7.76,9.88s-7.76-4.43-7.76-9.88c0-2.37.65-4.54,1.74-6.24.56-.88.56-2,0-2.88-1.09-1.7-1.74-3.87-1.74-6.24s.65-4.54,1.74-6.24c.56-.88.56-2,0-2.88-1.09-1.7-1.74-3.87-1.74-6.24,0-5.46,3.47-9.88,7.76-9.88s7.76,4.43,7.76,9.88c0,2.37-.65,4.54-1.74,6.24Z" fill="#000" stroke-width="0"/><path d="M1046.74,168.47c-.91,0-1.61-.72-1.95-1.15-.79-1-1.24-2.44-1.24-3.95s.45-2.95,1.24-3.95c.34-.43,1.04-1.15,1.95-1.15s1.61.72,1.95,1.15c.79,1,1.24,2.44,1.24,3.95s-.45,2.95-1.24,3.95c-.34.43-1.04,1.15-1.95,1.15Z" fill="#000" stroke-width="0"/><path d="M1046.74,199.19c-.91,0-1.61-.72-1.95-1.15-.79-1-1.24-2.44-1.24-3.95s.45-2.95,1.24-3.95c.34-.43,1.04-1.15,1.95-1.15s1.61.72,1.95,1.15c.79,1,1.24,2.44,1.24,3.95s-.45,2.95-1.24,3.95c-.34.43-1.04,1.15-1.95,1.15Z" fill="#000" stroke-width="0"/><path d="M1046.74,183.83c-.91,0-1.61-.72-1.95-1.15-.79-1-1.24-2.44-1.24-3.95s.45-2.95,1.24-3.95c.34-.43,1.04-1.15,1.95-1.15s1.61.72,1.95,1.15c.79,1,1.24,2.44,1.24,3.95s-.45,2.95-1.24,3.95c-.34.43-1.04,1.15-1.95,1.15Z" fill="#000" stroke-width="0"/><path d="M1022.09,252.03c-.46-.59-.95-1.03-2.03-1.03-.99,0-1.66.45-1.66,1.34,0,1.02.77,1.36,2.02,1.58,1.65.29,2.65.88,2.65,2.46,0,1.11-.74,2.39-2.87,2.39-1.39,0-2.4-.47-3.04-1.4l.88-.61c.56.66,1.05,1.04,2.17,1.04,1.4,0,1.81-.64,1.81-1.37,0-.8-.41-1.35-2.02-1.6-1.61-.25-2.65-1.01-2.65-2.5,0-1.22.8-2.3,2.76-2.3,1.36,0,2.21.46,2.82,1.4l-.83.59Z" fill="#000" stroke-width="0"/><path d="M1028.61,258.78c-1.89,0-3.09-1.14-3.09-3.9v-.94c0-2.76,1.2-3.9,3.09-3.9s3.09,1.14,3.09,3.9v.94c0,2.76-1.2,3.9-3.09,3.9ZM1026.58,254.88c0,2.12.72,2.93,2.03,2.93s2.03-.82,2.03-2.93v-.94c0-2.12-.72-2.93-2.03-2.93s-2.03.82-2.03,2.93v.94Z" fill="#000" stroke-width="0"/><path d="M1034.81,250.14l1.94,3.71,1.94-3.71h1.25l-2.66,4.88v3.66h-1.06v-3.66l-2.66-4.88h1.25Z" fill="#000" stroke-width="0"/><path d="M1051.95,250.14v.97h-4.08v2.87h3.71v.97h-3.71v3.74h-1.06v-8.54h5.15Z" fill="#000" stroke-width="0"/><path d="M1059.48,258.68l-1.78-3.6h-2.02v3.6h-1.06v-8.54h2.72c1.97,0,3.11.82,3.11,2.48,0,1.2-.59,1.96-1.68,2.28l1.91,3.79h-1.19ZM1057.33,254.11c1.45,0,2.04-.45,2.04-1.5s-.59-1.51-2.04-1.51h-1.66v3.01h1.66Z" fill="#000" stroke-width="0"/><path d="M1068.47,250.14v.97h-4.08v2.67h3.71v.97h-3.71v2.97h4.08v.96h-5.15v-8.54h5.15Z" fill="#000" stroke-width="0"/><path d="M1076.4,250.14v.97h-4.08v2.67h3.71v.97h-3.71v2.97h4.08v.96h-5.15v-8.54h5.15Z" fill="#000" stroke-width="0"/><path d="M948.51,187.48c0,8.39-6.65,15.19-14.85,15.19s-14.85-6.8-14.85-15.19,14.85-28,14.85-28c0,0,14.85,19.61,14.85,28Z" fill="#000" stroke-width="0"/><path d="M943.19,188.45c-1.3,3.7-3.96,6.74-7.37,8.48" fill="#000" stroke-width="0"/><path d="M913.39,187.14c-5.54-.67-9.84-5.48-9.84-11.33,0-6.3,11.16-21.03,11.16-21.03,0,0,4.33,5.72,7.6,11.55" fill="#000" stroke-width="0"/><circle cx="926.03" cy="178.73" r="40.35" fill="#000" stroke-width="0"/><polyline points="897.5 150.19 897.5 150.19 897.5 150.19 909.56 162.25" fill="#000" stroke-width="0"/><line x1="954.56" y1="207.26" x2="944.82" y2="197.51" fill="#000" stroke-width="0"/><path d="M875.68,250.14v.97h-2.6v7.57h-1.06v-7.57h-2.6v-.97h6.26Z" fill="#000" stroke-width="0"/><path d="M882.89,258.68l-1.78-3.6h-2.02v3.6h-1.06v-8.54h2.72c1.97,0,3.11.82,3.11,2.48,0,1.2-.59,1.96-1.68,2.28l1.91,3.79h-1.19ZM880.75,254.11c1.45,0,2.04-.45,2.04-1.5s-.59-1.51-2.04-1.51h-1.66v3.01h1.66Z" fill="#000" stroke-width="0"/><path d="M885.8,258.68l2.97-8.54h.99l2.97,8.54h-1.13l-.66-1.96h-3.37l-.66,1.96h-1.13ZM887.92,255.76h2.7l-1.35-4.01-1.35,4.01Z" fill="#000" stroke-width="0"/><path d="M900.94,250.14v8.54h-1.04l-3.69-6.46v6.46h-1.06v-8.54h1.01l3.71,6.52v-6.52h1.06Z" fill="#000" stroke-width="0"/><path d="M908.71,252.03c-.46-.59-.95-1.03-2.03-1.03-.99,0-1.66.45-1.66,1.34,0,1.02.77,1.36,2.02,1.58,1.65.29,2.65.88,2.65,2.46,0,1.11-.74,2.39-2.87,2.39-1.39,0-2.4-.47-3.04-1.4l.88-.61c.56.66,1.05,1.04,2.17,1.04,1.4,0,1.81-.64,1.81-1.37,0-.8-.41-1.35-2.02-1.6-1.61-.25-2.65-1.01-2.65-2.5,0-1.22.8-2.3,2.76-2.3,1.36,0,2.21.46,2.82,1.4l-.83.59Z" fill="#000" stroke-width="0"/><path d="M922.05,250.14v.97h-4.08v2.87h3.71v.97h-3.71v3.74h-1.06v-8.54h5.15Z" fill="#000" stroke-width="0"/><path d="M923.41,258.68l2.97-8.54h.99l2.97,8.54h-1.13l-.66-1.96h-3.37l-.66,1.96h-1.13ZM925.52,255.76h2.7l-1.35-4.01-1.35,4.01Z" fill="#000" stroke-width="0"/><path d="M937.65,250.14v.97h-2.6v7.57h-1.06v-7.57h-2.6v-.97h6.26Z" fill="#000" stroke-width="0"/><path d="M944.44,252.03c-.46-.59-.95-1.03-2.03-1.03-.99,0-1.66.45-1.66,1.34,0,1.02.77,1.36,2.02,1.58,1.65.29,2.65.88,2.65,2.46,0,1.11-.74,2.39-2.87,2.39-1.39,0-2.4-.47-3.04-1.4l.88-.61c.56.66,1.05,1.04,2.17,1.04,1.4,0,1.81-.64,1.81-1.37,0-.8-.41-1.35-2.02-1.6-1.61-.25-2.65-1.01-2.65-2.5,0-1.22.8-2.3,2.76-2.3,1.36,0,2.21.46,2.82,1.4l-.83.59Z" fill="#000" stroke-width="0"/><path d="M957.77,250.14v.97h-4.08v2.87h3.71v.97h-3.71v3.74h-1.06v-8.54h5.15Z" fill="#000" stroke-width="0"/><path d="M965.3,258.68l-1.78-3.6h-2.02v3.6h-1.06v-8.54h2.72c1.97,0,3.11.82,3.11,2.48,0,1.2-.59,1.96-1.68,2.28l1.91,3.79h-1.19ZM963.15,254.11c1.45,0,2.04-.45,2.04-1.5s-.59-1.51-2.04-1.51h-1.66v3.01h1.66Z" fill="#000" stroke-width="0"/><path d="M974.29,250.14v.97h-4.08v2.67h3.71v.97h-3.71v2.97h4.08v.96h-5.15v-8.54h5.15Z" fill="#000" stroke-width="0"/><path d="M982.22,250.14v.97h-4.08v2.67h3.71v.97h-3.71v2.97h4.08v.96h-5.15v-8.54h5.15Z" fill="#000" stroke-width="0"/><polygon points="812.59 161.67 798.05 157.35 792.32 166.62 806.34 170.95 812.59 161.67" fill="#000" stroke-width="0"/><polyline points="792.32 166.62 792.32 199.23 806.34 203.55 806.34 170.95" fill="#000" stroke-width="0"/><polyline points="812.59 161.67 812.59 158.22 798.05 153.9 798.05 157.35" fill="#000" stroke-width="0"/><polygon points="806.34 170.95 818.32 167.49 818.32 200.1 806.34 203.55 806.34 170.95" fill="#000" stroke-width="0"/><line x1="812.59" y1="161.67" x2="818.32" y2="167.49" fill="#000" stroke-width="0"/><circle cx="805.32" cy="178.73" r="40.35" fill="#000" stroke-width="0"/><polyline points="776.78 150.19 776.78 150.19 776.79 150.19 792.66 166.07" fill="#000" stroke-width="0"/><polyline points="818.32 191.73 833.85 207.26 833.85 207.26 833.85 207.26" fill="#000" stroke-width="0"/><path d="M761.27,257.71h4.08v.96h-5.15v-8.54h1.06v7.57Z" fill="#000" stroke-width="0"/><path d="M766.84,258.68l2.97-8.54h.99l2.97,8.54h-1.13l-.66-1.96h-3.37l-.66,1.96h-1.13ZM768.95,255.76h2.7l-1.35-4.01-1.35,4.01Z" fill="#000" stroke-width="0"/><path d="M780.87,252.8c-.3-1.34-.98-1.79-2.03-1.79-1.31,0-2.03.82-2.03,2.93v.94c0,2.12.72,2.93,2.03,2.93,1.11,0,1.74-.54,2.03-1.79h1.03c-.27,1.92-1.44,2.76-3.06,2.76-1.89,0-3.09-1.14-3.09-3.9v-.94c0-2.76,1.2-3.9,3.09-3.9,1.68,0,2.8.89,3.07,2.76h-1.04Z" fill="#000" stroke-width="0"/><path d="M789.83,250.14v.97h-2.6v7.57h-1.06v-7.57h-2.6v-.97h6.26Z" fill="#000" stroke-width="0"/><path d="M794.84,258.78c-1.89,0-3.09-1.14-3.09-3.9v-.94c0-2.76,1.2-3.9,3.09-3.9s3.09,1.14,3.09,3.9v.94c0,2.76-1.2,3.9-3.09,3.9ZM792.81,254.88c0,2.12.72,2.93,2.03,2.93s2.03-.82,2.03-2.93v-.94c0-2.12-.72-2.93-2.03-2.93s-2.03.82-2.03,2.93v.94Z" fill="#000" stroke-width="0"/><path d="M805.28,252.03c-.46-.59-.95-1.03-2.03-1.03-.99,0-1.66.45-1.66,1.34,0,1.02.77,1.36,2.02,1.58,1.65.29,2.65.88,2.65,2.46,0,1.11-.74,2.39-2.87,2.39-1.39,0-2.4-.47-3.04-1.4l.88-.61c.56.66,1.05,1.04,2.17,1.04,1.4,0,1.81-.64,1.81-1.37,0-.8-.41-1.35-2.02-1.6-1.61-.25-2.65-1.01-2.65-2.5,0-1.22.8-2.3,2.76-2.3,1.36,0,2.21.46,2.82,1.4l-.83.59Z" fill="#000" stroke-width="0"/><path d="M814.29,250.14v.97h-4.08v2.67h3.71v.97h-3.71v2.97h4.08v.96h-5.15v-8.54h5.15Z" fill="#000" stroke-width="0"/><path d="M826.55,250.14v.97h-4.08v2.87h3.71v.97h-3.71v3.74h-1.06v-8.54h5.15Z" fill="#000" stroke-width="0"/><path d="M834.07,258.68l-1.78-3.6h-2.02v3.6h-1.06v-8.54h2.72c1.97,0,3.11.82,3.11,2.48,0,1.2-.59,1.96-1.68,2.28l1.91,3.79h-1.19ZM831.93,254.11c1.45,0,2.04-.45,2.04-1.5s-.59-1.51-2.04-1.51h-1.66v3.01h1.66Z" fill="#000" stroke-width="0"/><path d="M843.06,250.14v.97h-4.08v2.67h3.71v.97h-3.71v2.97h4.08v.96h-5.15v-8.54h5.15Z" fill="#000" stroke-width="0"/><path d="M850.99,250.14v.97h-4.08v2.67h3.71v.97h-3.71v2.97h4.08v.96h-5.15v-8.54h5.15Z" fill="#000" stroke-width="0"/><polygon points="684.6 181.29 672.39 176.03 672.39 160.4 684.6 165.65 684.6 181.29" fill="#000" stroke-width="0"/><polygon points="684.6 181.29 696.81 176.03 696.81 160.4 684.6 165.65 684.6 181.29" fill="#000" stroke-width="0"/><polygon points="672.39 160.4 684.6 165.65 696.81 160.4 684.6 155.21 672.39 160.4" fill="#000" stroke-width="0"/><polygon points="672.39 202.24 660.18 196.99 660.18 181.36 672.39 186.61 672.39 202.24" fill="#000" stroke-width="0"/><polygon points="672.39 202.24 684.6 196.99 684.6 181.36 672.39 186.61 672.39 202.24" fill="#000" stroke-width="0"/><polygon points="660.18 181.36 672.39 186.61 684.6 181.36 672.39 176.17 660.18 181.36" fill="#000" stroke-width="0"/><polygon points="696.81 202.24 684.6 196.99 684.6 181.36 696.81 186.61 696.81 202.24" fill="#000" stroke-width="0"/><polygon points="696.81 202.24 709.02 196.99 709.02 181.36 696.81 186.61 696.81 202.24" fill="#000" stroke-width="0"/><polygon points="684.6 181.36 696.81 186.61 709.02 181.36 696.81 176.17 684.6 181.36" fill="#000" stroke-width="0"/><circle cx="684.6" cy="178.73" r="40.35" fill="#000" stroke-width="0"/><polyline points="672.39 166.52 656.07 150.19 656.07 150.19 656.07 150.19" fill="#000" stroke-width="0"/><line x1="686.45" y1="180.57" x2="686.39" y2="180.52" fill="#000" stroke-width="0"/><line x1="713.14" y1="207.26" x2="704.72" y2="198.84" fill="#000" stroke-width="0"/><path d="M650.54,252.03c-.46-.59-.95-1.03-2.03-1.03-.99,0-1.66.45-1.66,1.34,0,1.02.77,1.36,2.02,1.58,1.65.29,2.65.88,2.65,2.46,0,1.11-.74,2.39-2.87,2.39-1.39,0-2.4-.47-3.04-1.4l.88-.61c.56.66,1.05,1.04,2.17,1.04,1.4,0,1.81-.64,1.81-1.37,0-.8-.41-1.35-2.02-1.6-1.61-.25-2.65-1.01-2.65-2.5,0-1.22.8-2.3,2.76-2.3,1.36,0,2.21.46,2.82,1.4l-.83.59Z" fill="#000" stroke-width="0"/><path d="M660.58,250.14v5.06c0,2.52-1.2,3.58-3.09,3.58s-3.09-1.05-3.09-3.56v-5.07h1.06v5.07c0,1.87.72,2.6,2.03,2.6s2.03-.73,2.03-2.6v-5.07h1.06Z" fill="#000" stroke-width="0"/><path d="M669.73,254.39v.49c0,2.76-1.25,3.9-3.14,3.9s-3.09-1.14-3.09-3.9v-.94c0-2.76,1.2-3.9,3.09-3.9,1.66,0,2.8.88,3.07,2.76h-1.04c-.27-1.28-.94-1.79-2.03-1.79-1.31,0-2.03.82-2.03,2.93v.94c0,2.12.72,2.93,2.03,2.93,1.2,0,1.96-.69,2.07-2.46h-2.03v-.96h3.11Z" fill="#000" stroke-width="0"/><path d="M671.7,258.68l2.97-8.54h.99l2.97,8.54h-1.13l-.66-1.96h-3.37l-.66,1.96h-1.13ZM673.82,255.76h2.7l-1.35-4.01-1.35,4.01Z" fill="#000" stroke-width="0"/><path d="M685.91,258.68l-1.78-3.6h-2.02v3.6h-1.06v-8.54h2.72c1.97,0,3.11.82,3.11,2.48,0,1.2-.59,1.96-1.68,2.28l1.91,3.79h-1.19ZM683.76,254.11c1.45,0,2.04-.45,2.04-1.5s-.59-1.51-2.04-1.51h-1.66v3.01h1.66Z" fill="#000" stroke-width="0"/><path d="M699.23,250.14v.97h-4.08v2.87h3.71v.97h-3.71v3.74h-1.06v-8.54h5.15Z" fill="#000" stroke-width="0"/><path d="M706.75,258.68l-1.78-3.6h-2.02v3.6h-1.06v-8.54h2.72c1.97,0,3.11.82,3.11,2.48,0,1.2-.59,1.96-1.68,2.28l1.91,3.79h-1.19ZM704.61,254.11c1.45,0,2.04-.45,2.04-1.5s-.59-1.51-2.04-1.51h-1.66v3.01h1.66Z" fill="#000" stroke-width="0"/><path d="M715.74,250.14v.97h-4.08v2.67h3.71v.97h-3.71v2.97h4.08v.96h-5.15v-8.54h5.15Z" fill="#000" stroke-width="0"/><path d="M723.67,250.14v.97h-4.08v2.67h3.71v.97h-3.71v2.97h4.08v.96h-5.15v-8.54h5.15Z" fill="#000" stroke-width="0"/><path d="M554.5,153.49v2.74c0,.58.07,5.46,10.43,12.08,0,0,3.22,1.94,5.91,4.57,3.26,3.19,3.27,8.36.02,11.56-2.69,2.65-5.93,4.69-5.93,4.69-10.36,6.62-10.43,11.5-10.43,12.08v2.76" fill="none" stroke="#000" stroke-miterlimit="10"/><path d="M573.28,153.49v2.74c0,.58-.07,5.46-10.43,12.08,0,0-3.22,1.94-5.91,4.57-3.26,3.19-3.27,8.36-.02,11.56,2.69,2.65,5.93,4.69,5.93,4.69,10.36,6.62,10.43,11.5,10.43,12.08v2.76" fill="none" stroke="#000" stroke-miterlimit="10"/><line x1="568.48" y1="156.19" x2="554.5" y2="156.19" fill="none" stroke="#000" stroke-miterlimit="10"/><line x1="570.85" y1="161.52" x2="566.1" y2="161.52" fill="none" stroke="#000" stroke-miterlimit="10"/><line x1="560.79" y1="161.52" x2="556.93" y2="161.52" fill="none" stroke="#000" stroke-miterlimit="10"/><line x1="560.25" y1="201.27" x2="573.28" y2="201.27" fill="none" stroke="#000" stroke-miterlimit="10"/><line x1="570.85" y1="195.94" x2="568.15" y2="195.94" fill="none" stroke="#000" stroke-miterlimit="10"/><line x1="563.48" y1="195.94" x2="556.93" y2="195.94" fill="none" stroke="#000" stroke-miterlimit="10"/><line x1="556.95" y1="172.88" x2="565.19" y2="172.88" fill="none" stroke="#000" stroke-miterlimit="10"/><line x1="570.71" y1="184.58" x2="561.98" y2="184.58" fill="none" stroke="#000" stroke-miterlimit="10"/><line x1="573.28" y1="178.73" x2="567.21" y2="178.73" fill="none" stroke="#000" stroke-miterlimit="10"/><line x1="562.81" y1="178.73" x2="554.5" y2="178.73" fill="none" stroke="#000" stroke-miterlimit="10"/><path d="M563.89,139.38c21.7,0,39.35,17.65,39.35,39.35s-17.65,39.35-39.35,39.35-39.35-17.65-39.35-39.35,17.65-39.35,39.35-39.35M563.89,138.38c-22.29,0-40.35,18.07-40.35,40.35s18.07,40.35,40.35,40.35,40.35-18.07,40.35-40.35-18.07-40.35-40.35-40.35h0Z" fill="#000" stroke-width="0"/><polyline points="557.51 172.35 535.36 150.19 535.36 150.19 535.36 150.19" fill="none" stroke="#000" stroke-miterlimit="10"/><line x1="592.42" y1="207.26" x2="570.21" y2="185.05" fill="none" stroke="#000" stroke-miterlimit="10"/><path d="M539.06,254.39v.49c0,2.76-1.25,3.9-3.14,3.9s-3.09-1.14-3.09-3.9v-.94c0-2.76,1.2-3.9,3.09-3.9,1.66,0,2.8.88,3.07,2.76h-1.04c-.27-1.28-.94-1.79-2.03-1.79-1.31,0-2.03.82-2.03,2.93v.94c0,2.12.72,2.93,2.03,2.93,1.2,0,1.96-.69,2.07-2.46h-2.03v-.96h3.11Z" fill="#000" stroke-width="0"/><path d="M545.57,255.46l2.55-5.32h1.05v8.54h-1.06v-6.26l-2.08,4.48h-.95l-2.04-4.44v6.22h-1.06v-8.54h1.04l2.56,5.32Z" fill="#000" stroke-width="0"/><path d="M555.17,258.78c-1.89,0-3.09-1.14-3.09-3.9v-.94c0-2.76,1.2-3.9,3.09-3.9s3.09,1.14,3.09,3.9v.94c0,2.76-1.2,3.9-3.09,3.9ZM553.14,254.88c0,2.12.72,2.93,2.03,2.93s2.03-.82,2.03-2.93v-.94c0-2.12-.72-2.93-2.03-2.93s-2.03.82-2.03,2.93v.94Z" fill="#000" stroke-width="0"/><path d="M570.64,250.14v.97h-4.08v2.87h3.71v.97h-3.71v3.74h-1.06v-8.54h5.15Z" fill="#000" stroke-width="0"/><path d="M578.16,258.68l-1.78-3.6h-2.02v3.6h-1.06v-8.54h2.72c1.97,0,3.11.82,3.11,2.48,0,1.2-.59,1.96-1.68,2.28l1.91,3.79h-1.19ZM576.02,254.11c1.45,0,2.04-.45,2.04-1.5s-.59-1.51-2.04-1.51h-1.66v3.01h1.66Z" fill="#000" stroke-width="0"/><path d="M587.16,250.14v.97h-4.08v2.67h3.71v.97h-3.71v2.97h4.08v.96h-5.15v-8.54h5.15Z" fill="#000" stroke-width="0"/><path d="M595.08,250.14v.97h-4.08v2.67h3.71v.97h-3.71v2.97h4.08v.96h-5.15v-8.54h5.15Z" fill="#000" stroke-width="0"/><path d="M146.58,812.39h0s-.07,0-.1.02c-5.52,1.47-10.05,5.75-11.65,11.01" fill="#000" stroke-width="0"/><path d="M123.06,812.39h0s.07,0,.1.02c5.52,1.47,10.05,5.75,11.65,11.01" fill="#000" stroke-width="0"/><path d="M146.58,821.35h0s-.07,0-.1.02c-5.52,1.47-10.05,5.75-11.65,11.01" fill="#000" stroke-width="0"/><path d="M123.06,821.35h0s.07,0,.1.02c5.52,1.47,10.05,5.75,11.65,11.01" fill="#000" stroke-width="0"/><path d="M146.58,803.44h0s-.07,0-.1.02c-5.52,1.47-10.05,5.75-11.65,11.01" fill="#000" stroke-width="0"/><path d="M123.06,803.44h0s.07,0,.1.02c5.52,1.47,10.05,5.75,11.65,11.01" fill="#000" stroke-width="0"/><path d="M146.58,794.48h0s-.07,0-.1.02c-5.52,1.47-10.05,5.75-11.65,11.01" fill="#000" stroke-width="0"/><path d="M123.06,794.48h0s.07,0,.1.02c5.52,1.47,10.05,5.75,11.65,11.01" fill="#000" stroke-width="0"/><circle cx="134.82" cy="809.01" r="44.01" fill="#000" stroke-width="0"/><polyline points="123.06 797.25 103.7 777.89 103.7 777.89 103.7 777.89" fill="#000" stroke-width="0"/><polyline points="146.58 820.77 165.94 840.13 165.94 840.13 165.94 840.13" fill="#000" stroke-width="0"/><path d="M95.5,891.53v.54c0,3.01-1.36,4.25-3.43,4.25s-3.37-1.24-3.37-4.25v-1.03c0-3.01,1.31-4.25,3.37-4.25,1.81,0,3.05.96,3.34,3.01h-1.13c-.3-1.39-1.03-1.96-2.21-1.96-1.43,0-2.21.89-2.21,3.2v1.03c0,2.31.78,3.2,2.21,3.2,1.31,0,2.13-.75,2.25-2.68h-2.21v-1.05h3.39Z" fill="#000" stroke-width="0"/><path d="M99.83,895.16h4.45v1.05h-5.61v-9.31h1.16v8.26Z" fill="#000" stroke-width="0"/><path d="M113.52,886.91v5.52c0,2.75-1.31,3.9-3.37,3.9s-3.37-1.15-3.37-3.88v-5.53h1.16v5.53c0,2.04.78,2.83,2.21,2.83s2.21-.8,2.21-2.83v-5.53h1.16Z" fill="#000" stroke-width="0"/><path d="M122.91,886.91v1.05h-2.83v8.25h-1.16v-8.25h-2.83v-1.05h6.83Z" fill="#000" stroke-width="0"/><path d="M131.09,886.91v1.05h-4.45v2.91h4.05v1.05h-4.05v3.24h4.45v1.05h-5.61v-9.31h5.61Z" fill="#000" stroke-width="0"/><path d="M140.44,886.91v9.31h-1.13l-4.02-7.04v7.04h-1.16v-9.31h1.11l4.05,7.11v-7.11h1.16Z" fill="#000" stroke-width="0"/><path d="M154.42,886.91v1.05h-4.45v3.13h4.05v1.05h-4.05v4.07h-1.16v-9.31h5.61Z" fill="#000" stroke-width="0"/><path d="M162.62,896.21l-1.94-3.92h-2.2v3.92h-1.16v-9.31h2.97c2.14,0,3.39.89,3.39,2.7,0,1.31-.65,2.13-1.83,2.48l2.08,4.13h-1.29ZM160.29,891.24c1.58,0,2.23-.49,2.23-1.63s-.65-1.65-2.23-1.65h-1.81v3.28h1.81Z" fill="#000" stroke-width="0"/><path d="M172.43,886.91v1.05h-4.45v2.91h4.05v1.05h-4.05v3.24h4.45v1.05h-5.61v-9.31h5.61Z" fill="#000" stroke-width="0"/><path d="M181.07,886.91v1.05h-4.45v2.91h4.05v1.05h-4.05v3.24h4.45v1.05h-5.61v-9.31h5.61Z" fill="#000" stroke-width="0"/><path d="M126.32,973.45l-2.4-1.98c-.48-.4-.62-.37-.63-.37,0,0-.15.05-.39.68-.49,1.27-.57,2.6-.22,4.06,1.4,5.92,2.29,12.37,2.8,20.3.25,3.9-1.43,6.28-5,7.07-1.05.23-2.11.35-3.13.45-.43.05-.86.09-1.27.14h-.06s-.06,0-.06,0c-.44-.03-.86-.05-1.28-.06-.91-.03-1.76-.06-2.6-.27-2.37-.6-3.76-1.48-4.4-2.76-.58-1.15-.48-2.62.3-4.47.39-.92.84-1.82,1.28-2.69l.44-.88c.12-.25.16-.49.1-.65-.02-.06-.07-.15-.22-.22-.12-.05-.28-.08-.46-.08-.26,0-.54.05-.78.15-.14.06-.39.36-.57.82-.2.49-.41.99-.62,1.48-.62,1.48-1.26,3-1.67,4.54-.52,1.99-.27,3.94.7,5.49.95,1.51,2.53,2.54,4.45,2.91,3.61.7,7.23.59,10.76-.31,3.52-.9,5.85-3.74,5.95-7.23.05-1.86-.03-3.87-.26-6.14-.4-4.03-.9-8.11-1.39-12.07l-.05-.39c-.2-1.66.13-2.91,1.08-4.07,1.04-1.28.91-2.34-.44-3.46Z" fill="#000" stroke-width="0"/><path d="M141.08,1001.62h1.73c.59,0,1.19-.01,1.78-.02.59,0,1.18,0,1.78,0,.86,0,1.72,0,2.58.04.37.01.62-.04.74-.16.1-.1.15-.28.14-.55l-.04-1.89c-.05-2.59-.1-5.28-.32-7.89-.12-1.44-.82-2.84-1.97-3.93-.33-.32-.45-.34-.47-.34,0,0-.1.05-.33.43-.92,1.46-.97,2.76-.15,3.99.94,1.42,1.57,2.99,1.9,4.79.06.34.11.84-.2,1.21-.34.41-.89.41-1.09.4-1.31,0-2.63,0-3.94,0-1.9,0-3.8,0-5.71,0-1.61-.01-2.49-.73-2.86-2.31-.1-.42-.12-.83-.15-1.23l-.02-.29c-.09-1.13-.16-2.26-.23-3.39-.16-2.51-.32-5.11-.65-7.64-.25-1.95-.77-3.91-1.27-5.82-.17-.66-.35-1.32-.51-1.98-.02-.04-.1-.13-.18-.2-.09.08-.16.15-.2.21-.95,1.85-1.22,3.7-.83,5.66.56,2.77.97,5.48,1.44,8.72.2,1.39.37,2.78.55,4.18.19,1.56.38,3.11.62,4.66.36,2.39,1.52,3.37,3.98,3.39,1.29,0,2.58,0,3.87,0Z" fill="#000" stroke-width="0"/><path d="M156,989.29c-.62.4-.81.95-.58,1.63.16.47.45.98.87,1.52.55.7,1.12,1.39,1.69,2.08.78.95,1.59,1.92,2.35,2.93,1.76,2.34,1.85,4.83.28,7-1.53,2.11-3,3.79-4.47,5.13-3.02,2.76-6.6,3.81-10.63,3.13-.36-.06-.73-.14-1.09-.22-.59-.13-1.15-.24-1.72-.3,0,0,0,0,0,0-.04,0-.11.03-.19.07.05.05.1.09.14.11,1.73.63,3.51,1.23,5.28,1.78,4.13,1.3,7.64.5,10.42-2.38.87-.9,1.68-1.89,2.47-2.86.48-.59.97-1.19,1.47-1.77,1.48-1.71,2.19-3.73,2.11-6.01v-.04c.19-4.64-2.55-7.52-5.44-10.58-.41-.43-.82-.87-1.23-1.31-.42-.46-1.17-.3-1.72.06Z" fill="#000" stroke-width="0"/><path d="M142.63,1007.79c.45.6.84,1.02,1.23,1.31.1.07.42.13.52.09.59-.46,1.2-1.04,1.78-1.6l.51-.48s.03-.04.04-.07c-.07-.12-.14-.24-.22-.35-.26-.31-.53-.62-.79-.92-.35-.4-.7-.8-1.03-1.21-.12-.15-.3-.33-.47-.34-.18,0-.37.14-.51.27l-.22.2c-.48.44-.95.88-1.4,1.34-.25.26-.66.59-1.14.55-.38-.03-.71-.25-1.02-.69-.31-.43-.66-.83-1.03-1.25l-.4-.46c-.17-.2-.24-.19-.25-.19-.04,0-.11.03-.22.13-.38.35-.76.69-1.15,1.03-.34.3-.68.6-1.01.91-.22.2-.22.28-.03.5.39.44.78.89,1.16,1.34l.94,1.09c.11.13.22.21.3.21.07,0,.21-.07.35-.19.2-.18.41-.36.63-.53.35-.29.68-.56.96-.87.41-.46.84-.67,1.23-.66.56.02.95.46,1.23.83Z" fill="#000" stroke-width="0"/><circle cx="1456.12" cy="888.31" r="65.48" fill="#000" stroke-width="0"/><polyline points="1409.82 842.01 1409.82 842.01 1409.82 842.01 1440.81 873" fill="#000" stroke-width="0"/><line x1="1502.42" y1="934.62" x2="1478.08" y2="910.28" fill="#000" stroke-width="0"/><path d="M1374.25,1018.06l4.82-13.86h1.61l4.82,13.86h-1.83l-1.06-3.17h-5.46l-1.06,3.17h-1.83ZM1377.68,1013.32h4.38l-2.19-6.51-2.19,6.51Z" fill="#000" stroke-width="0"/><path d="M1391.13,1016.5h6.63v1.57h-8.35v-13.86h1.73v12.29Z" fill="#000" stroke-width="0"/><path d="M1403.2,1016.5h6.63v1.57h-8.35v-13.86h1.73v12.29Z" fill="#000" stroke-width="0"/><path d="M1421.89,1004.21v1.57h-6.63v4.34h6.02v1.57h-6.02v4.82h6.63v1.57h-8.35v-13.86h8.35Z" fill="#000" stroke-width="0"/><path d="M1434.29,1018.06l-2.89-5.84h-3.27v5.84h-1.73v-13.86h4.42c3.19,0,5.04,1.33,5.04,4.02,0,1.95-.96,3.17-2.73,3.69l3.09,6.14h-1.93ZM1430.82,1010.65c2.35,0,3.31-.72,3.31-2.43s-.96-2.45-3.31-2.45h-2.69v4.88h2.69Z" fill="#000" stroke-width="0"/><path d="M1449.95,1011.09v.8c0,4.48-2.03,6.33-5.1,6.33s-5.02-1.85-5.02-6.33v-1.53c0-4.48,1.95-6.33,5.02-6.33,2.69,0,4.54,1.43,4.98,4.48h-1.69c-.44-2.07-1.53-2.91-3.29-2.91-2.13,0-3.29,1.33-3.29,4.76v1.53c0,3.43,1.16,4.76,3.29,4.76,1.95,0,3.17-1.12,3.35-4h-3.29v-1.57h5.04Z" fill="#000" stroke-width="0"/><path d="M1463.02,1004.21v1.57h-6.63v4.34h6.02v1.57h-6.02v4.82h6.63v1.57h-8.35v-13.86h8.35Z" fill="#000" stroke-width="0"/><path d="M1476.93,1004.21v13.86h-1.69l-5.98-10.48v10.48h-1.73v-13.86h1.65l6.02,10.58v-10.58h1.73Z" fill="#000" stroke-width="0"/><path d="M1497.73,1004.21v1.57h-6.63v4.66h6.02v1.57h-6.02v6.06h-1.73v-13.86h8.35Z" fill="#000" stroke-width="0"/><path d="M1509.93,1018.06l-2.89-5.84h-3.27v5.84h-1.73v-13.86h4.42c3.19,0,5.04,1.33,5.04,4.02,0,1.95-.96,3.17-2.73,3.69l3.09,6.14h-1.93ZM1506.46,1010.65c2.35,0,3.31-.72,3.31-2.43s-.96-2.45-3.31-2.45h-2.69v4.88h2.69Z" fill="#000" stroke-width="0"/><path d="M1524.52,1004.21v1.57h-6.63v4.34h6.02v1.57h-6.02v4.82h6.63v1.57h-8.35v-13.86h8.35Z" fill="#000" stroke-width="0"/><path d="M1537.39,1004.21v1.57h-6.63v4.34h6.02v1.57h-6.02v4.82h6.63v1.57h-8.35v-13.86h8.35Z" fill="#000" stroke-width="0"/><circle cx="674.64" cy="884.29" r="65.48" fill="#000" stroke-width="0"/><polyline points="628.34 837.98 628.34 837.98 628.34 837.98" fill="#000" stroke-width="0"/><path d="M644.32,1014.03l-4.66-6.91-2.55,3.13v3.78h-1.73v-13.86h1.73v7.45l6.02-7.45h2.23l-4.56,5.56,5.58,8.29h-2.07Z" fill="#000" stroke-width="0"/><path d="M654.31,1014.19c-3.07,0-5.02-1.85-5.02-6.32v-1.53c0-4.48,1.95-6.32,5.02-6.32s5.02,1.85,5.02,6.32v1.53c0,4.48-1.95,6.32-5.02,6.32ZM651.02,1007.87c0,3.43,1.16,4.76,3.29,4.76s3.29-1.32,3.29-4.76v-1.53c0-3.43-1.17-4.76-3.29-4.76s-3.29,1.33-3.29,4.76v1.53Z" fill="#000" stroke-width="0"/><path d="M671.25,1003.25c-.74-.96-1.55-1.67-3.29-1.67-1.61,0-2.69.72-2.69,2.17,0,1.65,1.25,2.21,3.27,2.57,2.67.46,4.3,1.43,4.3,4,0,1.81-1.21,3.88-4.66,3.88-2.25,0-3.9-.76-4.94-2.27l1.43-.98c.9,1.06,1.71,1.69,3.51,1.69,2.27,0,2.93-1.04,2.93-2.23,0-1.3-.66-2.19-3.27-2.59-2.61-.4-4.3-1.65-4.3-4.06,0-1.99,1.3-3.73,4.48-3.73,2.21,0,3.59.74,4.58,2.27l-1.34.96Z" fill="#000" stroke-width="0"/><path d="M679.24,1006.08h5.94v-5.9h1.73v13.86h-1.73v-6.39h-5.94v6.39h-1.73v-13.86h1.73v5.9Z" fill="#000" stroke-width="0"/><path d="M700.68,1000.18v1.57h-6.63v4.34h6.02v1.57h-6.02v4.82h6.63v1.57h-8.35v-13.86h8.35Z" fill="#000" stroke-width="0"/><path d="M713.09,1014.03l-2.89-5.84h-3.27v5.84h-1.73v-13.86h4.42c3.19,0,5.04,1.33,5.04,4.02,0,1.95-.96,3.17-2.73,3.7l3.09,6.14h-1.93ZM709.62,1006.62c2.35,0,3.31-.72,3.31-2.43s-.96-2.45-3.31-2.45h-2.69v4.88h2.69Z" fill="#000" stroke-width="0"/><path d="M691.21,869.37c-.2-.06-.39-.12-.58-.18-.93-.31-1.85-.76-2.29-1.89-.08-.21-.17-.27-.18-.27-.02,0-.14.04-.28.27-.39.65-.82,1.41-1.07,2.2-.94,3.03-.22,4.5,2.77,5.64,1.79.68,2.39,2.07,1.69,3.91-.31.81-.77,1.65-1.46,2.65l-.57.83c-2.57,3.74-5.23,7.62-6.89,11.96-.18.48-.9.8-1.33.82-1.01.05-2.04.04-3.03.03-.37,0-.75,0-1.12,0h-5.27l.23-.54c.08-.19.15-.36.21-.51.11-.28.2-.49.3-.7,2.51-5.24,4.44-10.86,5.74-16.7.22-1,.72-1.44,1.72-1.5q2.29-.15,2.2-2.49v-.09c0-.16-.01-.31-.04-.44-.28-1.52-1.08-2.43-2.47-2.8-.41-.11-.95-.24-1.5-.34-1.23-.23-2.04-.84-2.46-1.86-.1-.25-.2-.31-.23-.31-.03-.01-.16.03-.34.27-1.04,1.31-1.45,2.91-1.13,4.39.32,1.43,1.27,2.61,2.68,3.32,1.04.52.97,1.24.76,1.88-.19.6-.37,1.21-.55,1.81-.14.5-.29.99-.44,1.48-1.85,5.89-3.61,10.26-5.72,14.18-.19.36-.68.87-1.17.87h0c-.49,0-.98-.5-1.18-.86-2.99-5.56-3.9-11.47-2.7-17.59.15-.75.56-1.11,1.35-1.17.63-.05,1.29-.17,1.95-.36.25-.07.5-.26.55-.38.53-1.24-.12-3.91-1.13-4.61-.63-.44-1.45-.68-2.25-.92l-.33-.1c-.95-.29-2.13-.65-2.68-2-.07-.17-.15-.23-.18-.24-.05,0-.14.05-.24.21-.36.57-.66,1.21-.87,1.86-1.01,3.11-.31,5.04,2.19,6.06.93.38,1.18.9.9,1.85-1.22,4.22-1.26,8.54-.11,13.2.89,3.6,1.71,7.21,2.34,9.96.1.46.27.57.78.56,2.21,0,4.63-.02,7.16-.02s5.1,0,7.7.03c.66.01.83-.13.96-.79,1.32-6.87,4.02-13.48,8.26-20.21,1-1.58,1.73-3.16,2.19-4.69.45-1.5.41-2.8-.13-3.78-.49-.89-1.39-1.53-2.69-1.9Z" fill="#000" stroke-width="0"/><path d="M710.76,869.43c-.59,0-1.19,0-1.78,0-1.34,0-2.69,0-4.03-.01-1.04-.01-2.52-.21-3.26-1.84-.08-.18-.17-.27-.23-.27-.06-.01-.19.07-.31.25-.41.58-.84,1.2-1.04,1.85-.45,1.43-.79,3.39.17,4.65.7.92,2,1.34,3.9,1.26.42-.02.84-.01,1.24,0,.24,0,.47,0,.71,0,.59,0,1.19,0,1.78,0,1.46,0,2.97,0,4.45.02,2.98.05,5.12,1.64,5.86,4.37.86,3.18.98,6.39.33,9.55-.86,4.24-3.13,6.06-7.59,6.07-1.03,0-2.07,0-3.11,0h-1.62c-.48,0-.97,0-1.46,0-1.36,0-2.76,0-4.14.02-.2,0-.49.12-.58.2-.4,1.49-.77,3.1-1.13,4.94.04.07.14.19.2.24,1.1-.02,2.2-.02,3.31-.02,3.08,0,6.27-.02,9.37-.31,4.24-.4,6.91-2.72,7.71-6.7.45-2.22.73-4.62.86-7.35.21-4.49-.21-8.01-1.34-11.1-1.46-4-4.01-5.79-8.29-5.79Z" fill="#000" stroke-width="0"/><path d="M655,888.07c0-.53,0-1.05,0-1.58,0-1.16.02-2.35-.02-3.52-.02-.47-.03-.95-.04-1.42-.06-2.14-.12-4.34-.34-6.49-.29-2.78-1.67-4.46-4.12-4.99-1.12-.24-2.22-.46-3.32-.5-2.2-.07-4.44-.09-6.61-.11-1.04,0-2.07-.02-3.11-.03-1.17-.02-2.61-.25-3.33-1.88-.07-.15-.15-.24-.21-.25,0,0,0,0,0,0-.07,0-.2.08-.31.25-.43.67-.9,1.45-1.14,2.25-.38,1.27-.64,3.04.28,4.24.7.91,1.98,1.34,3.81,1.29,1.35-.04,2.71-.06,4.07-.06s2.68.01,3.99.03l1.69.02c4.15.04,6.31,2.06,6.59,6.19.1,1.49.16,3.09.17,5.04.01,2.35.01,4.71.01,7.06,0,2.33,0,4.66.01,7,0,.22.08.47.13.55.09,0,.35-.09.53-.22.88-.65,1.3-1.48,1.29-2.53-.02-2.49-.02-5.03-.01-7.48,0-.95,0-1.9,0-2.85Z" fill="#000" stroke-width="0"/><path d="M1277.81,890.35c7.19,8.85,6.74,21.84-1.36,30.13-8.78,8.98-23.33,9.04-32.23.14-8.3-8.3-8.84-21.41-1.62-30.31,4.02-4.95,5.02-11.4,2.35-17.22-2.9-6.33-1.65-14.07,3.73-19.15,6.54-6.17,16.69-6.08,23.15.21,5.24,5.09,6.43,12.73,3.59,18.98-2.64,5.8-1.64,12.26,2.4,17.22Z" fill="#000" stroke-width="0"/><path d="M1263.44,856.43c1.42.49,2.73,1.29,3.85,2.38,2.14,2.08,3.22,4.94,3.1,7.8" fill="#000" stroke-width="0"/><circle cx="1260.22" cy="888.31" r="65.48" fill="#000" stroke-width="0"/><polyline points="1213.92 842.01 1213.92 842.01 1213.92 842.01 1244.91 873" fill="#000" stroke-width="0"/><line x1="1306.53" y1="934.62" x2="1282.19" y2="910.28" fill="#000" stroke-width="0"/><path d="M1214.5,1004.21v13.86h-1.69l-5.98-10.48v10.48h-1.73v-13.86h1.65l6.02,10.58v-10.58h1.73Z" fill="#000" stroke-width="0"/><path d="M1229.96,1004.21v8.21c0,4.1-1.95,5.8-5.02,5.8s-5.02-1.71-5.02-5.78v-8.23h1.73v8.23c0,3.03,1.17,4.22,3.29,4.22s3.29-1.18,3.29-4.22v-8.23h1.73Z" fill="#000" stroke-width="0"/><path d="M1243.93,1004.21v1.57h-4.22v12.29h-1.73v-12.29h-4.22v-1.57h10.16Z" fill="#000" stroke-width="0"/><path d="M1254.95,1007.28c-.74-.96-1.55-1.67-3.29-1.67-1.61,0-2.69.72-2.69,2.17,0,1.65,1.25,2.21,3.27,2.57,2.67.46,4.3,1.43,4.3,4,0,1.81-1.21,3.88-4.66,3.88-2.25,0-3.9-.76-4.94-2.27l1.43-.98c.9,1.06,1.71,1.69,3.51,1.69,2.27,0,2.93-1.04,2.93-2.23,0-1.3-.66-2.19-3.27-2.59-2.61-.4-4.3-1.65-4.3-4.06,0-1.99,1.3-3.73,4.48-3.73,2.21,0,3.59.74,4.58,2.27l-1.34.96Z" fill="#000" stroke-width="0"/><path d="M1276.59,1004.21v1.57h-6.63v4.66h6.02v1.57h-6.02v6.06h-1.73v-13.86h8.35Z" fill="#000" stroke-width="0"/><path d="M1288.79,1018.06l-2.89-5.84h-3.27v5.84h-1.73v-13.86h4.42c3.19,0,5.04,1.33,5.04,4.02,0,1.95-.96,3.17-2.73,3.7l3.09,6.14h-1.93ZM1285.32,1010.65c2.35,0,3.31-.72,3.31-2.43s-.96-2.45-3.31-2.45h-2.69v4.88h2.69Z" fill="#000" stroke-width="0"/><path d="M1303.39,1004.21v1.57h-6.63v4.34h6.02v1.57h-6.02v4.82h6.63v1.57h-8.35v-13.86h8.35Z" fill="#000" stroke-width="0"/><path d="M1316.26,1004.21v1.57h-6.63v4.34h6.02v1.57h-6.02v4.82h6.63v1.57h-8.35v-13.86h8.35Z" fill="#000" stroke-width="0"/><path d="M1064.33,912.26c0-20.03,25.99-27.98,25.99-27.98-.3.38-9.48,10.47-10.05,28.42-.23,7.41-1.45,16.19-10.67,16.57-1.7.07-3.34-.39-4.79-1.12-.37-.18-.69-.16-1.04.04-1.6.92-3.49,1.21-5.42,1.03-8.57-.79-9.74-9.3-9.97-16.52-.57-17.94-9.76-28.04-10.05-28.42,0,0,25.99,7.95,25.99,27.98Z" fill="#000" stroke-width="0"/><path d="M1076.45,891.38l-1.29-33.73c-.22-5.75-5-10.3-10.83-10.3s-10.61,4.55-10.83,10.3l-1.29,33.73" fill="#000" stroke-width="0"/><circle cx="1064.33" cy="888.31" r="65.48" fill="#000" stroke-width="0"/><polyline points="1052.77 876.75 1018.03 842.01 1018.03 842.01 1018.03 842.01" fill="#000" stroke-width="0"/><polyline points="1081.07 905.05 1110.63 934.62 1110.63 934.62 1110.63 934.62" fill="#000" stroke-width="0"/><path d="M1016.57,1008.52c-.48-2.17-1.59-2.91-3.29-2.91-2.13,0-3.29,1.32-3.29,4.76v1.53c0,3.43,1.16,4.76,3.29,4.76,1.81,0,2.83-.88,3.29-2.91h1.67c-.44,3.11-2.33,4.48-4.96,4.48-3.07,0-5.02-1.85-5.02-6.32v-1.53c0-4.48,1.95-6.32,5.02-6.32,2.73,0,4.54,1.45,4.98,4.48h-1.69Z" fill="#000" stroke-width="0"/><path d="M1026.88,1018.22c-3.07,0-5.02-1.85-5.02-6.32v-1.53c0-4.48,1.95-6.32,5.02-6.32s5.02,1.85,5.02,6.32v1.53c0,4.48-1.95,6.32-5.02,6.32ZM1023.59,1011.9c0,3.43,1.17,4.76,3.29,4.76s3.29-1.32,3.29-4.76v-1.53c0-3.43-1.17-4.76-3.29-4.76s-3.29,1.32-3.29,4.76v1.53Z" fill="#000" stroke-width="0"/><path d="M1044.51,1018.06l-2.89-5.84h-3.27v5.84h-1.73v-13.86h4.42c3.19,0,5.04,1.33,5.04,4.02,0,1.95-.96,3.17-2.73,3.7l3.09,6.14h-1.93ZM1041.04,1010.65c2.35,0,3.31-.72,3.31-2.43s-.96-2.45-3.31-2.45h-2.69v4.88h2.69Z" fill="#000" stroke-width="0"/><path d="M1060.15,1004.21v13.86h-1.69l-5.98-10.48v10.48h-1.73v-13.86h1.65l6.02,10.58v-10.58h1.73Z" fill="#000" stroke-width="0"/><path d="M1080.94,1004.21v1.57h-6.63v4.66h6.02v1.57h-6.02v6.06h-1.73v-13.86h8.35Z" fill="#000" stroke-width="0"/><path d="M1093.15,1018.06l-2.89-5.84h-3.27v5.84h-1.73v-13.86h4.42c3.19,0,5.04,1.33,5.04,4.02,0,1.95-.96,3.17-2.73,3.7l3.09,6.14h-1.93ZM1089.68,1010.65c2.35,0,3.31-.72,3.31-2.43s-.96-2.45-3.31-2.45h-2.69v4.88h2.69Z" fill="#000" stroke-width="0"/><path d="M1107.74,1004.21v1.57h-6.63v4.34h6.02v1.57h-6.02v4.82h6.63v1.57h-8.35v-13.86h8.35Z" fill="#000" stroke-width="0"/><path d="M1120.61,1004.21v1.57h-6.63v4.34h6.02v1.57h-6.02v4.82h6.63v1.57h-8.35v-13.86h8.35Z" fill="#000" stroke-width="0"/><circle cx="868.43" cy="888.31" r="65.48" fill="#000" stroke-width="0"/><polyline points="822.13 842.01 822.13 842.01 822.13 842.01 858.53 878.41" fill="#000" stroke-width="0"/><line x1="914.74" y1="934.62" x2="878.34" y2="898.22" fill="#000" stroke-width="0"/><path d="M878.2,873.52c-.91,1.42-.91,3.24,0,4.67,1.77,2.76,2.83,6.29,2.83,10.13s-1.06,7.37-2.83,10.13c-.91,1.42-.91,3.24,0,4.67,1.77,2.76,2.83,6.29,2.83,10.13,0,8.86-5.63,16.04-12.59,16.04s-12.59-7.18-12.59-16.04c0-3.84,1.06-7.37,2.83-10.13.91-1.42.91-3.24,0-4.67-1.77-2.76-2.83-6.29-2.83-10.13s1.06-7.37,2.83-10.13c.91-1.42.91-3.24,0-4.67-1.77-2.76-2.83-6.29-2.83-10.13,0-8.86,5.63-16.04,12.59-16.04s12.59,7.18,12.59,16.04c0,3.84-1.06,7.37-2.83,10.13Z" fill="#000" stroke-width="0"/><path d="M868.43,871.67c-1.47,0-2.61-1.17-3.16-1.87-1.27-1.62-2.01-3.96-2.01-6.41s.73-4.79,2.01-6.41c.55-.7,1.69-1.87,3.16-1.87s2.61,1.17,3.16,1.87c1.27,1.62,2.01,3.96,2.01,6.41s-.73,4.79-2.01,6.41c-.55.7-1.69,1.87-3.16,1.87Z" fill="#000" stroke-width="0"/><path d="M868.43,921.51c-1.47,0-2.61-1.17-3.16-1.87-1.27-1.62-2.01-3.96-2.01-6.41s.73-4.79,2.01-6.41c.55-.7,1.69-1.87,3.16-1.87s2.61,1.17,3.16,1.87c1.27,1.62,2.01,3.96,2.01,6.41s-.73,4.79-2.01,6.41c-.55.7-1.69,1.87-3.16,1.87Z" fill="#000" stroke-width="0"/><path d="M868.43,896.59c-1.47,0-2.61-1.17-3.16-1.87-1.27-1.62-2.01-3.96-2.01-6.41s.73-4.79,2.01-6.41c.55-.7,1.69-1.87,3.16-1.87s2.61,1.17,3.16,1.87c1.27,1.62,2.01,3.96,2.01,6.41s-.73,4.79-2.01,6.41c-.55.7-1.69,1.87-3.16,1.87Z" fill="#000" stroke-width="0"/><path d="M828.43,1007.28c-.74-.96-1.55-1.67-3.29-1.67-1.61,0-2.69.72-2.69,2.17,0,1.65,1.25,2.21,3.27,2.57,2.67.46,4.3,1.43,4.3,4,0,1.81-1.21,3.88-4.66,3.88-2.25,0-3.9-.76-4.94-2.27l1.43-.98c.9,1.06,1.71,1.69,3.51,1.69,2.27,0,2.93-1.04,2.93-2.23,0-1.3-.66-2.19-3.27-2.59-2.61-.4-4.3-1.65-4.3-4.06,0-1.99,1.3-3.73,4.48-3.73,2.21,0,3.59.74,4.58,2.27l-1.34.96Z" fill="#000" stroke-width="0"/><path d="M839.01,1018.22c-3.07,0-5.02-1.85-5.02-6.32v-1.53c0-4.48,1.95-6.32,5.02-6.32s5.02,1.85,5.02,6.32v1.53c0,4.48-1.95,6.32-5.02,6.32ZM835.72,1011.9c0,3.43,1.16,4.76,3.29,4.76s3.29-1.32,3.29-4.76v-1.53c0-3.43-1.17-4.76-3.29-4.76s-3.29,1.32-3.29,4.76v1.53Z" fill="#000" stroke-width="0"/><path d="M849.06,1004.21l3.15,6.02,3.15-6.02h2.03l-4.32,7.91v5.94h-1.73v-5.94l-4.32-7.91h2.03Z" fill="#000" stroke-width="0"/><path d="M876.89,1004.21v1.57h-6.63v4.66h6.02v1.57h-6.02v6.06h-1.73v-13.86h8.35Z" fill="#000" stroke-width="0"/><path d="M889.09,1018.06l-2.89-5.84h-3.27v5.84h-1.73v-13.86h4.42c3.19,0,5.04,1.33,5.04,4.02,0,1.95-.96,3.17-2.73,3.7l3.09,6.14h-1.93ZM885.62,1010.65c2.35,0,3.31-.72,3.31-2.43s-.96-2.45-3.31-2.45h-2.69v4.88h2.69Z" fill="#000" stroke-width="0"/><path d="M903.69,1004.21v1.57h-6.63v4.34h6.02v1.57h-6.02v4.82h6.63v1.57h-8.35v-13.86h8.35Z" fill="#000" stroke-width="0"/><path d="M916.56,1004.21v1.57h-6.63v4.34h6.02v1.57h-6.02v4.82h6.63v1.57h-8.35v-13.86h8.35Z" fill="#000" stroke-width="0"/><path d="M1296.71,635.24c0,13.61-10.79,24.65-24.1,24.65s-24.1-11.04-24.1-24.65,24.1-45.43,24.1-45.43c0,0,24.1,31.82,24.1,45.43Z" fill="#000" stroke-width="0"/><path d="M1288.07,636.81c-2.1,6.01-6.43,10.94-11.96,13.76" fill="#000" stroke-width="0"/><path d="M1239.71,634.68c-8.99-1.08-15.96-8.9-15.96-18.38,0-10.23,18.1-34.12,18.1-34.12,0,0,7.03,9.28,12.33,18.75" fill="#000" stroke-width="0"/><circle cx="1260.22" cy="621.03" r="65.48" fill="#000" stroke-width="0"/><polyline points="1213.92 574.73 1213.92 574.73 1213.92 574.73 1233.49 594.29" fill="#000" stroke-width="0"/><line x1="1306.53" y1="667.33" x2="1290.71" y2="651.51" fill="#000" stroke-width="0"/><path d="M1178.51,736.92v1.57h-4.22v12.29h-1.73v-12.29h-4.22v-1.57h10.16Z" fill="#000" stroke-width="0"/><path d="M1190.21,750.78l-2.89-5.84h-3.27v5.84h-1.73v-13.86h4.42c3.19,0,5.04,1.33,5.04,4.02,0,1.95-.96,3.17-2.73,3.69l3.09,6.14h-1.93ZM1186.74,743.37c2.35,0,3.31-.72,3.31-2.43s-.96-2.45-3.31-2.45h-2.69v4.88h2.69Z" fill="#000" stroke-width="0"/><path d="M1194.94,750.78l4.82-13.86h1.61l4.82,13.86h-1.83l-1.06-3.17h-5.46l-1.06,3.17h-1.83ZM1198.38,746.04h4.38l-2.19-6.51-2.19,6.51Z" fill="#000" stroke-width="0"/><path d="M1219.5,736.92v13.86h-1.69l-5.98-10.48v10.48h-1.73v-13.86h1.65l6.02,10.58v-10.58h1.73Z" fill="#000" stroke-width="0"/><path d="M1232.12,739.99c-.74-.96-1.55-1.67-3.29-1.67-1.61,0-2.69.72-2.69,2.17,0,1.65,1.25,2.21,3.27,2.57,2.67.46,4.3,1.43,4.3,4,0,1.81-1.21,3.88-4.66,3.88-2.25,0-3.9-.76-4.94-2.27l1.43-.98c.9,1.06,1.71,1.69,3.51,1.69,2.27,0,2.93-1.04,2.93-2.23,0-1.31-.66-2.19-3.27-2.59-2.61-.4-4.3-1.65-4.3-4.06,0-1.99,1.3-3.74,4.48-3.74,2.21,0,3.59.74,4.58,2.27l-1.34.96Z" fill="#000" stroke-width="0"/><path d="M1253.76,736.92v1.57h-6.63v4.66h6.02v1.57h-6.02v6.06h-1.73v-13.86h8.35Z" fill="#000" stroke-width="0"/><path d="M1255.97,750.78l4.82-13.86h1.61l4.82,13.86h-1.83l-1.06-3.17h-5.46l-1.06,3.17h-1.83ZM1259.4,746.04h4.38l-2.19-6.51-2.19,6.51Z" fill="#000" stroke-width="0"/><path d="M1279.08,736.92v1.57h-4.22v12.29h-1.73v-12.29h-4.22v-1.57h10.16Z" fill="#000" stroke-width="0"/><path d="M1290.1,739.99c-.74-.96-1.55-1.67-3.29-1.67-1.61,0-2.69.72-2.69,2.17,0,1.65,1.25,2.21,3.27,2.57,2.67.46,4.3,1.43,4.3,4,0,1.81-1.21,3.88-4.66,3.88-2.25,0-3.9-.76-4.94-2.27l1.43-.98c.9,1.06,1.71,1.69,3.51,1.69,2.27,0,2.93-1.04,2.93-2.23,0-1.31-.66-2.19-3.27-2.59-2.61-.4-4.3-1.65-4.3-4.06,0-1.99,1.3-3.74,4.48-3.74,2.21,0,3.59.74,4.58,2.27l-1.34.96Z" fill="#000" stroke-width="0"/><path d="M1311.74,736.92v1.57h-6.63v4.66h6.02v1.57h-6.02v6.06h-1.73v-13.86h8.35Z" fill="#000" stroke-width="0"/><path d="M1323.94,750.78l-2.89-5.84h-3.27v5.84h-1.73v-13.86h4.42c3.19,0,5.04,1.33,5.04,4.02,0,1.95-.96,3.17-2.73,3.69l3.09,6.14h-1.93ZM1320.47,743.37c2.35,0,3.31-.72,3.31-2.43s-.96-2.45-3.31-2.45h-2.69v4.88h2.69Z" fill="#000" stroke-width="0"/><path d="M1338.54,736.92v1.57h-6.63v4.34h6.02v1.57h-6.02v4.82h6.63v1.57h-8.35v-13.86h8.35Z" fill="#000" stroke-width="0"/><path d="M1351.4,736.92v1.57h-6.63v4.34h6.02v1.57h-6.02v4.82h6.63v1.57h-8.35v-13.86h8.35Z" fill="#000" stroke-width="0"/><polygon points="1076.13 593.36 1052.53 586.34 1043.23 601.39 1065.99 608.4 1076.13 593.36" fill="#000" stroke-width="0"/><polyline points="1043.23 601.39 1043.23 654.31 1065.99 661.32 1065.99 608.4" fill="#000" stroke-width="0"/><polyline points="1076.13 593.36 1076.13 587.76 1052.53 580.74 1052.53 586.34" fill="#000" stroke-width="0"/><polygon points="1065.99 608.4 1085.43 602.79 1085.43 655.71 1065.99 661.32 1065.99 608.4" fill="#000" stroke-width="0"/><line x1="1076.13" y1="593.36" x2="1085.43" y2="602.79" fill="#000" stroke-width="0"/><circle cx="1064.33" cy="621.03" r="65.48" fill="#000" stroke-width="0"/><polyline points="1018.03 574.73 1018.03 574.73 1018.03 574.73 1043.79 600.49" fill="#000" stroke-width="0"/><polyline points="1085.43 642.13 1110.63 667.33 1110.63 667.33 1110.63 667.33" fill="#000" stroke-width="0"/><path d="M992.85,749.21h6.63v1.57h-8.35v-13.86h1.73v12.29Z" fill="#000" stroke-width="0"/><path d="M1001.88,750.78l4.82-13.86h1.61l4.82,13.86h-1.83l-1.06-3.17h-5.46l-1.06,3.17h-1.83ZM1005.31,746.04h4.38l-2.19-6.51-2.19,6.51Z" fill="#000" stroke-width="0"/><path d="M1024.65,741.24c-.48-2.17-1.59-2.91-3.29-2.91-2.13,0-3.29,1.33-3.29,4.76v1.53c0,3.43,1.17,4.76,3.29,4.76,1.81,0,2.83-.88,3.29-2.91h1.67c-.44,3.11-2.33,4.48-4.96,4.48-3.07,0-5.02-1.85-5.02-6.33v-1.53c0-4.48,1.95-6.33,5.02-6.33,2.73,0,4.54,1.45,4.98,4.48h-1.69Z" fill="#000" stroke-width="0"/><path d="M1039.2,736.92v1.57h-4.22v12.29h-1.73v-12.29h-4.22v-1.57h10.16Z" fill="#000" stroke-width="0"/><path d="M1047.33,750.94c-3.07,0-5.02-1.85-5.02-6.33v-1.53c0-4.48,1.95-6.33,5.02-6.33s5.02,1.85,5.02,6.33v1.53c0,4.48-1.95,6.33-5.02,6.33ZM1044.04,744.61c0,3.43,1.16,4.76,3.29,4.76s3.29-1.33,3.29-4.76v-1.53c0-3.43-1.17-4.76-3.29-4.76s-3.29,1.33-3.29,4.76v1.53Z" fill="#000" stroke-width="0"/><path d="M1064.27,739.99c-.74-.96-1.55-1.67-3.29-1.67-1.61,0-2.69.72-2.69,2.17,0,1.65,1.25,2.21,3.27,2.57,2.67.46,4.3,1.43,4.3,4,0,1.81-1.21,3.88-4.66,3.88-2.25,0-3.9-.76-4.94-2.27l1.43-.98c.9,1.06,1.71,1.69,3.51,1.69,2.27,0,2.93-1.04,2.93-2.23,0-1.31-.66-2.19-3.27-2.59-2.61-.4-4.3-1.65-4.3-4.06,0-1.99,1.3-3.74,4.48-3.74,2.21,0,3.59.74,4.58,2.27l-1.34.96Z" fill="#000" stroke-width="0"/><path d="M1078.89,736.92v1.57h-6.63v4.34h6.02v1.57h-6.02v4.82h6.63v1.57h-8.35v-13.86h8.35Z" fill="#000" stroke-width="0"/><path d="M1098.78,736.92v1.57h-6.63v4.66h6.02v1.57h-6.02v6.06h-1.73v-13.86h8.35Z" fill="#000" stroke-width="0"/><path d="M1110.98,750.78l-2.89-5.84h-3.27v5.84h-1.73v-13.86h4.42c3.19,0,5.04,1.33,5.04,4.02,0,1.95-.96,3.17-2.73,3.69l3.09,6.14h-1.93ZM1107.51,743.37c2.35,0,3.31-.72,3.31-2.43s-.96-2.45-3.31-2.45h-2.69v4.88h2.69Z" fill="#000" stroke-width="0"/><path d="M1125.58,736.92v1.57h-6.63v4.34h6.02v1.57h-6.02v4.82h6.63v1.57h-8.35v-13.86h8.35Z" fill="#000" stroke-width="0"/><path d="M1138.45,736.92v1.57h-6.63v4.34h6.02v1.57h-6.02v4.82h6.63v1.57h-8.35v-13.86h8.35Z" fill="#000" stroke-width="0"/><polygon points="868.43 625.18 848.62 616.66 848.62 591.29 868.43 599.82 868.43 625.18" fill="#000" stroke-width="0"/><polygon points="868.43 625.18 888.25 616.66 888.25 591.29 868.43 599.82 868.43 625.18" fill="#000" stroke-width="0"/><polygon points="848.62 591.29 868.43 599.82 888.25 591.29 868.43 582.87 848.62 591.29" fill="#000" stroke-width="0"/><polygon points="848.62 659.19 828.8 650.66 828.8 625.3 848.62 633.83 848.62 659.19" fill="#000" stroke-width="0"/><polygon points="848.62 659.19 868.43 650.66 868.43 625.3 848.62 633.83 848.62 659.19" fill="#000" stroke-width="0"/><polygon points="828.8 625.3 848.62 633.83 868.43 625.3 848.62 616.88 828.8 625.3" fill="#000" stroke-width="0"/><polygon points="888.25 659.19 868.43 650.66 868.43 625.3 888.25 633.83 888.25 659.19" fill="#000" stroke-width="0"/><polygon points="888.25 659.19 908.06 650.66 908.06 625.3 888.25 633.83 888.25 659.19" fill="#000" stroke-width="0"/><polygon points="868.43 625.3 888.25 633.83 908.06 625.3 888.25 616.88 868.43 625.3" fill="#000" stroke-width="0"/><circle cx="868.43" cy="621.03" r="65.48" fill="#000" stroke-width="0"/><polyline points="848.62 601.22 822.13 574.73 822.13 574.73 822.13 574.73" fill="#000" stroke-width="0"/><line x1="871.43" y1="624.03" x2="871.34" y2="623.93" fill="#000" stroke-width="0"/><line x1="914.74" y1="667.33" x2="901.08" y2="653.67" fill="#000" stroke-width="0"/><path d="M813.15,739.99c-.74-.96-1.55-1.67-3.29-1.67-1.61,0-2.69.72-2.69,2.17,0,1.65,1.25,2.21,3.27,2.57,2.67.46,4.3,1.43,4.3,4,0,1.81-1.21,3.88-4.66,3.88-2.25,0-3.9-.76-4.94-2.27l1.43-.98c.9,1.06,1.71,1.69,3.51,1.69,2.27,0,2.93-1.04,2.93-2.23,0-1.31-.66-2.19-3.27-2.59-2.61-.4-4.3-1.65-4.3-4.06,0-1.99,1.3-3.74,4.48-3.74,2.21,0,3.59.74,4.58,2.27l-1.34.96Z" fill="#000" stroke-width="0"/><path d="M829.46,736.92v8.21c0,4.1-1.95,5.8-5.02,5.8s-5.02-1.71-5.02-5.78v-8.23h1.73v8.23c0,3.03,1.17,4.22,3.29,4.22s3.29-1.19,3.29-4.22v-8.23h1.73Z" fill="#000" stroke-width="0"/><path d="M844.29,743.81v.8c0,4.48-2.03,6.33-5.1,6.33s-5.02-1.85-5.02-6.33v-1.53c0-4.48,1.95-6.33,5.02-6.33,2.69,0,4.54,1.43,4.98,4.48h-1.69c-.44-2.07-1.53-2.91-3.29-2.91-2.13,0-3.29,1.33-3.29,4.76v1.53c0,3.43,1.17,4.76,3.29,4.76,1.95,0,3.17-1.12,3.35-4h-3.29v-1.57h5.04Z" fill="#000" stroke-width="0"/><path d="M847.5,750.78l4.82-13.86h1.61l4.82,13.86h-1.83l-1.06-3.17h-5.46l-1.06,3.17h-1.83ZM850.93,746.04h4.38l-2.19-6.51-2.19,6.51Z" fill="#000" stroke-width="0"/><path d="M870.55,750.78l-2.89-5.84h-3.27v5.84h-1.73v-13.86h4.42c3.19,0,5.04,1.33,5.04,4.02,0,1.95-.96,3.17-2.73,3.69l3.09,6.14h-1.93ZM867.07,743.37c2.35,0,3.31-.72,3.31-2.43s-.96-2.45-3.31-2.45h-2.69v4.88h2.69Z" fill="#000" stroke-width="0"/><path d="M892.17,736.92v1.57h-6.63v4.66h6.02v1.57h-6.02v6.06h-1.73v-13.86h8.35Z" fill="#000" stroke-width="0"/><path d="M904.37,750.78l-2.89-5.84h-3.27v5.84h-1.73v-13.86h4.42c3.19,0,5.04,1.33,5.04,4.02,0,1.95-.96,3.17-2.73,3.69l3.09,6.14h-1.93ZM900.9,743.37c2.35,0,3.31-.72,3.31-2.43s-.96-2.45-3.31-2.45h-2.69v4.88h2.69Z" fill="#000" stroke-width="0"/><path d="M918.96,736.92v1.57h-6.63v4.34h6.02v1.57h-6.02v4.82h6.63v1.57h-8.35v-13.86h8.35Z" fill="#000" stroke-width="0"/><path d="M931.83,736.92v1.57h-6.63v4.34h6.02v1.57h-6.02v4.82h6.63v1.57h-8.35v-13.86h8.35Z" fill="#000" stroke-width="0"/><path d="M657.3,580.07v4.44c0,.94.11,8.86,16.92,19.61,0,0,5.23,3.15,9.58,7.42,5.3,5.18,5.31,13.56.03,18.77-4.36,4.31-9.62,7.61-9.62,7.61-16.82,10.74-16.92,18.67-16.92,19.61v4.47" fill="#000" stroke-width="0"/><path d="M687.78,580.07v4.44c0,.94-.11,8.86-16.92,19.61,0,0-5.23,3.15-9.58,7.42-5.3,5.18-5.31,13.56-.03,18.77,4.36,4.31,9.62,7.61,9.62,7.61,16.82,10.74,16.92,18.67,16.92,19.61v4.47" fill="#000" stroke-width="0"/><circle cx="672.54" cy="621.03" r="65.48" fill="#000" stroke-width="0"/><polyline points="662.19 610.67 626.24 574.73 626.24 574.73 626.24 574.73" fill="#000" stroke-width="0"/><line x1="718.84" y1="667.33" x2="682.8" y2="631.29" fill="#000" stroke-width="0"/><path d="M632.25,743.81v.8c0,4.48-2.03,6.33-5.1,6.33s-5.02-1.85-5.02-6.33v-1.53c0-4.48,1.95-6.33,5.02-6.33,2.69,0,4.54,1.43,4.98,4.48h-1.69c-.44-2.07-1.53-2.91-3.29-2.91-2.13,0-3.29,1.33-3.29,4.76v1.53c0,3.43,1.17,4.76,3.29,4.76,1.95,0,3.17-1.12,3.35-4h-3.29v-1.57h5.04Z" fill="#000" stroke-width="0"/><path d="M642.8,745.56l4.14-8.63h1.71v13.86h-1.73v-10.16l-3.37,7.27h-1.55l-3.31-7.21v10.1h-1.73v-13.86h1.69l4.16,8.63Z" fill="#000" stroke-width="0"/><path d="M658.38,750.94c-3.07,0-5.02-1.85-5.02-6.33v-1.53c0-4.48,1.95-6.33,5.02-6.33s5.02,1.85,5.02,6.33v1.53c0,4.48-1.95,6.33-5.02,6.33ZM655.09,744.61c0,3.43,1.16,4.76,3.29,4.76s3.29-1.33,3.29-4.76v-1.53c0-3.43-1.17-4.76-3.29-4.76s-3.29,1.33-3.29,4.76v1.53Z" fill="#000" stroke-width="0"/><path d="M683.5,736.92v1.57h-6.63v4.66h6.02v1.57h-6.02v6.06h-1.73v-13.86h8.35Z" fill="#000" stroke-width="0"/><path d="M695.7,750.78l-2.89-5.84h-3.27v5.84h-1.73v-13.86h4.42c3.19,0,5.04,1.33,5.04,4.02,0,1.95-.96,3.17-2.73,3.69l3.09,6.14h-1.93ZM692.23,743.37c2.35,0,3.31-.72,3.31-2.43s-.96-2.45-3.31-2.45h-2.69v4.88h2.69Z" fill="#000" stroke-width="0"/><path d="M710.29,736.92v1.57h-6.63v4.34h6.02v1.57h-6.02v4.82h6.63v1.57h-8.35v-13.86h8.35Z" fill="#000" stroke-width="0"/><path d="M723.16,736.92v1.57h-6.63v4.34h6.02v1.57h-6.02v4.82h6.63v1.57h-8.35v-13.86h8.35Z" fill="#000" stroke-width="0"/><path d="M494.14,626.06v-.02s-.1.03-.15.05c-8.21,2.19-14.95,8.56-17.34,16.37" fill="#000" stroke-width="0"/><path d="M459.15,626.06v-.02s.1.03.15.05c8.21,2.19,14.95,8.56,17.34,16.37" fill="#000" stroke-width="0"/><path d="M494.14,639.38v-.02s-.1.03-.15.05c-8.21,2.19-14.95,8.56-17.34,16.37" fill="#000" stroke-width="0"/><path d="M459.15,639.38v-.02s.1.03.15.05c8.21,2.19,14.95,8.56,17.34,16.37" fill="#000" stroke-width="0"/><path d="M494.14,612.73v-.02s-.1.03-.15.05c-8.21,2.19-14.95,8.56-17.34,16.37" fill="#000" stroke-width="0"/><path d="M459.15,612.73v-.02s.1.03.15.05c8.21,2.19,14.95,8.56,17.34,16.37" fill="#000" stroke-width="0"/><path d="M494.14,599.41v-.02s-.1.03-.15.05c-8.21,2.19-14.95,8.56-17.34,16.37" fill="#000" stroke-width="0"/><path d="M459.15,599.41v-.02s.1.03.15.05c8.21,2.19,14.95,8.56,17.34,16.37" fill="#000" stroke-width="0"/><circle cx="476.65" cy="621.03" r="65.48" fill="#000" stroke-width="0"/><polyline points="459.15 603.53 430.34 574.73 430.34 574.73 430.34 574.73" fill="#000" stroke-width="0"/><polyline points="494.14 638.53 522.95 667.33 522.95 667.33 522.95 667.33" fill="#000" stroke-width="0"/><path d="M418.14,743.81v.8c0,4.48-2.03,6.33-5.1,6.33s-5.02-1.85-5.02-6.33v-1.53c0-4.48,1.95-6.33,5.02-6.33,2.69,0,4.54,1.43,4.98,4.48h-1.69c-.44-2.07-1.53-2.91-3.29-2.91-2.13,0-3.29,1.33-3.29,4.76v1.53c0,3.43,1.17,4.76,3.29,4.76,1.95,0,3.17-1.12,3.35-4h-3.29v-1.57h5.04Z" fill="#000" stroke-width="0"/><path d="M424.58,749.21h6.63v1.57h-8.35v-13.86h1.73v12.29Z" fill="#000" stroke-width="0"/><path d="M444.96,736.92v8.21c0,4.1-1.95,5.8-5.02,5.8s-5.02-1.71-5.02-5.78v-8.23h1.73v8.23c0,3.03,1.17,4.22,3.29,4.22s3.29-1.19,3.29-4.22v-8.23h1.73Z" fill="#000" stroke-width="0"/><path d="M458.93,736.92v1.57h-4.22v12.29h-1.73v-12.29h-4.22v-1.57h10.16Z" fill="#000" stroke-width="0"/><path d="M471.1,736.92v1.57h-6.63v4.34h6.02v1.57h-6.02v4.82h6.63v1.57h-8.35v-13.86h8.35Z" fill="#000" stroke-width="0"/><path d="M485.01,736.92v13.86h-1.69l-5.98-10.48v10.48h-1.73v-13.86h1.65l6.02,10.58v-10.58h1.73Z" fill="#000" stroke-width="0"/><path d="M505.81,736.92v1.57h-6.63v4.66h6.02v1.57h-6.02v6.06h-1.73v-13.86h8.35Z" fill="#000" stroke-width="0"/><path d="M518.01,750.78l-2.89-5.84h-3.27v5.84h-1.73v-13.86h4.42c3.19,0,5.04,1.33,5.04,4.02,0,1.95-.96,3.17-2.73,3.69l3.09,6.14h-1.93ZM514.54,743.37c2.35,0,3.31-.72,3.31-2.43s-.96-2.45-3.31-2.45h-2.69v4.88h2.69Z" fill="#000" stroke-width="0"/><path d="M532.6,736.92v1.57h-6.63v4.34h6.02v1.57h-6.02v4.82h6.63v1.57h-8.35v-13.86h8.35Z" fill="#000" stroke-width="0"/><path d="M545.47,736.92v1.57h-6.63v4.34h6.02v1.57h-6.02v4.82h6.63v1.57h-8.35v-13.86h8.35Z" fill="#000" stroke-width="0"/><circle cx="502.36" cy="884.29" r="65.48" fill="#000" stroke-width="0"/><polyline points="456.06 837.98 456.06 837.98 456.06 837.98" fill="#000" stroke-width="0"/><path d="M473.58,1006.08h5.94v-5.9h1.73v13.86h-1.73v-6.39h-5.94v6.39h-1.73v-13.86h1.73v5.9Z" fill="#000" stroke-width="0"/><path d="M485.16,1014.03l4.82-13.86h1.61l4.82,13.86h-1.83l-1.06-3.17h-5.46l-1.06,3.17h-1.83ZM488.6,1009.29h4.38l-2.19-6.51-2.19,6.51Z" fill="#000" stroke-width="0"/><path d="M502.04,1012.47h6.63v1.57h-8.35v-13.86h1.73v12.29Z" fill="#000" stroke-width="0"/><path d="M511.08,1014.03l4.82-13.86h1.61l4.82,13.86h-1.83l-1.06-3.17h-5.46l-1.06,3.17h-1.83ZM514.51,1009.29h4.38l-2.19-6.51-2.19,6.51Z" fill="#000" stroke-width="0"/><path d="M527.96,1012.47h6.63v1.57h-8.35v-13.86h1.73v12.29Z" fill="#000" stroke-width="0"/><path d="M489.72,855.23l-3.56-2.94c-.71-.59-.92-.56-.94-.56,0,0-.22.08-.58,1.01-.74,1.89-.84,3.87-.33,6.04,2.08,8.81,3.4,18.4,4.17,30.2.38,5.81-2.13,9.35-7.44,10.52-1.57.35-3.14.52-4.66.68-.65.07-1.28.13-1.88.21h-.08s-.08,0-.08,0c-.65-.05-1.29-.07-1.9-.09-1.35-.04-2.62-.09-3.87-.4-3.52-.9-5.6-2.2-6.54-4.1-.86-1.72-.71-3.89.45-6.65.58-1.37,1.26-2.71,1.91-4.01l.66-1.31c.18-.37.24-.73.15-.97-.03-.09-.1-.23-.33-.33-.18-.08-.42-.12-.69-.12-.38,0-.81.08-1.17.23-.21.09-.58.54-.85,1.22-.3.74-.61,1.47-.92,2.2-.92,2.19-1.88,4.46-2.48,6.75-.78,2.96-.41,5.86,1.04,8.16,1.41,2.24,3.76,3.78,6.62,4.33,5.37,1.03,10.76.88,16.02-.47,5.23-1.34,8.71-5.56,8.85-10.76.08-2.76-.05-5.75-.38-9.14-.6-5.99-1.34-12.07-2.06-17.95l-.07-.57c-.3-2.46.19-4.33,1.6-6.05,1.55-1.9,1.35-3.49-.65-5.15Z" fill="#000" stroke-width="0"/><path d="M511.67,897.15h2.58c.88-.01,1.77-.02,2.65-.03.87,0,1.76-.01,2.65-.01,1.27,0,2.56.01,3.83.06.55.02.92-.06,1.1-.24.15-.15.22-.42.21-.82l-.06-2.82c-.07-3.86-.15-7.85-.47-11.74-.18-2.15-1.22-4.23-2.93-5.85-.5-.47-.67-.51-.69-.51.01,0-.15.08-.5.64-1.36,2.17-1.44,4.11-.23,5.93,1.41,2.12,2.33,4.45,2.82,7.13.1.51.17,1.25-.29,1.81-.5.6-1.33.61-1.63.6-1.95,0-3.91,0-5.87,0-2.83,0-5.66,0-8.49-.01-2.39-.02-3.7-1.08-4.25-3.44-.14-.62-.18-1.24-.22-1.84l-.03-.43c-.13-1.68-.23-3.36-.34-5.04-.24-3.74-.48-7.61-.97-11.37-.38-2.9-1.14-5.82-1.88-8.65-.26-.98-.52-1.97-.76-2.95-.02-.06-.15-.19-.27-.3-.13.11-.24.22-.29.32-1.42,2.75-1.82,5.51-1.23,8.42.84,4.13,1.44,8.15,2.15,12.97.3,2.07.56,4.14.81,6.21.29,2.31.57,4.63.92,6.93.54,3.55,2.26,5.01,5.93,5.04,1.92.01,3.84.01,5.75,0Z" fill="#000" stroke-width="0"/><path d="M533.88,878.81c-.92.6-1.21,1.42-.87,2.43.23.7.67,1.46,1.29,2.26.82,1.05,1.67,2.07,2.52,3.1,1.17,1.41,2.37,2.86,3.49,4.36,2.61,3.49,2.76,7.19.41,10.42-2.28,3.14-4.46,5.63-6.65,7.64-4.5,4.11-9.82,5.67-15.81,4.66-.54-.09-1.08-.21-1.62-.32-.88-.19-1.71-.36-2.56-.44,0,0,0,0,0,0-.06,0-.17.05-.29.11.08.08.15.14.21.16,2.58.94,5.22,1.83,7.85,2.65,6.15,1.93,11.36.74,15.51-3.54,1.29-1.33,2.5-2.82,3.68-4.25.72-.88,1.44-1.77,2.19-2.63,2.2-2.54,3.26-5.55,3.13-8.94v-.06c.28-6.9-3.79-11.19-8.1-15.74-.61-.65-1.23-1.29-1.83-1.95-.63-.69-1.74-.45-2.56.09Z" fill="#000" stroke-width="0"/><path d="M513.98,906.33c.67.9,1.25,1.52,1.84,1.95.15.11.63.19.78.14.88-.68,1.78-1.54,2.65-2.37l.75-.72s.04-.05.06-.1c-.1-.18-.2-.36-.33-.52-.39-.46-.78-.92-1.18-1.37-.52-.59-1.04-1.19-1.53-1.8-.18-.22-.45-.49-.7-.51-.26,0-.55.21-.75.4l-.33.3c-.71.65-1.42,1.31-2.09,2-.37.38-.98.88-1.69.83-.56-.04-1.06-.37-1.52-1.02-.46-.64-.98-1.23-1.54-1.86l-.59-.68c-.26-.3-.35-.29-.37-.29-.05,0-.16.05-.32.19-.57.52-1.14,1.02-1.71,1.53-.5.45-1.01.9-1.51,1.35-.32.29-.33.41-.04.74.58.66,1.16,1.32,1.73,1.99l1.4,1.62c.17.19.33.31.45.32.11,0,.32-.1.53-.29.3-.27.62-.53.93-.79.52-.43,1.02-.83,1.43-1.29.61-.69,1.25-.99,1.83-.98.84.04,1.42.68,1.83,1.23Z" fill="#000" stroke-width="0"/><circle cx="770.19" cy="1562.28" r="45.55" fill="#000" stroke-width="0"/><polyline points="737.98 1530.07 737.98 1530.07 737.98 1530.07 759.54 1551.63" fill="#000" stroke-width="0"/><line x1="802.4" y1="1594.5" x2="785.47" y2="1577.56" fill="#000" stroke-width="0"/><path d="M713.24,1652.54l3.35-9.63h1.12l3.35,9.63h-1.27l-.74-2.21h-3.8l-.74,2.21h-1.27ZM715.63,1649.25h3.04l-1.52-4.52-1.52,4.52Z" fill="#000" stroke-width="0"/><path d="M724.98,1651.45h4.61v1.09h-5.81v-9.63h1.2v8.54Z" fill="#000" stroke-width="0"/><path d="M733.37,1651.45h4.61v1.09h-5.81v-9.63h1.2v8.54Z" fill="#000" stroke-width="0"/><path d="M746.37,1642.91v1.09h-4.61v3.02h4.19v1.09h-4.19v3.35h4.61v1.09h-5.81v-9.63h5.81Z" fill="#000" stroke-width="0"/><path d="M755,1652.54l-2.01-4.06h-2.28v4.06h-1.2v-9.63h3.07c2.22,0,3.5.92,3.5,2.79,0,1.36-.67,2.21-1.9,2.57l2.15,4.27h-1.34ZM752.59,1647.39c1.63,0,2.3-.5,2.3-1.69s-.67-1.7-2.3-1.7h-1.87v3.39h1.87Z" fill="#000" stroke-width="0"/><path d="M765.9,1647.7v.56c0,3.11-1.41,4.4-3.55,4.4s-3.49-1.28-3.49-4.4v-1.06c0-3.11,1.35-4.4,3.49-4.4,1.87,0,3.16.99,3.46,3.11h-1.17c-.31-1.44-1.06-2.02-2.29-2.02-1.48,0-2.29.92-2.29,3.31v1.06c0,2.39.81,3.31,2.29,3.31,1.35,0,2.21-.78,2.33-2.78h-2.29v-1.09h3.5Z" fill="#000" stroke-width="0"/><path d="M774.99,1642.91v1.09h-4.61v3.02h4.19v1.09h-4.19v3.35h4.61v1.09h-5.81v-9.63h5.81Z" fill="#000" stroke-width="0"/><path d="M784.66,1642.91v9.63h-1.17l-4.16-7.29v7.29h-1.2v-9.63h1.15l4.19,7.36v-7.36h1.2Z" fill="#000" stroke-width="0"/><path d="M799.13,1642.91v1.09h-4.61v3.24h4.19v1.09h-4.19v4.22h-1.2v-9.63h5.81Z" fill="#000" stroke-width="0"/><path d="M807.62,1652.54l-2.01-4.06h-2.28v4.06h-1.2v-9.63h3.07c2.22,0,3.5.92,3.5,2.79,0,1.36-.67,2.21-1.9,2.57l2.15,4.27h-1.34ZM805.21,1647.39c1.63,0,2.3-.5,2.3-1.69s-.67-1.7-2.3-1.7h-1.87v3.39h1.87Z" fill="#000" stroke-width="0"/><path d="M817.77,1642.91v1.09h-4.61v3.02h4.19v1.09h-4.19v3.35h4.61v1.09h-5.81v-9.63h5.81Z" fill="#000" stroke-width="0"/><path d="M826.72,1642.91v1.09h-4.61v3.02h4.19v1.09h-4.19v3.35h4.61v1.09h-5.81v-9.63h5.81Z" fill="#000" stroke-width="0"/><circle cx="298.58" cy="994.92" r="45.55" fill="#000" stroke-width="0"/><polyline points="266.37 962.71 266.37 962.71 266.37 962.71" fill="#000" stroke-width="0"/><path d="M278.56,1079.65h4.13v-4.1h1.2v9.63h-1.2v-4.44h-4.13v4.44h-1.2v-9.63h1.2v4.1Z" fill="#000" stroke-width="0"/><path d="M286.61,1085.18l3.35-9.63h1.12l3.35,9.63h-1.27l-.74-2.21h-3.8l-.74,2.21h-1.27ZM289,1081.88h3.04l-1.52-4.52-1.52,4.52Z" fill="#000" stroke-width="0"/><path d="M298.36,1084.09h4.61v1.09h-5.81v-9.63h1.2v8.54Z" fill="#000" stroke-width="0"/><path d="M304.64,1085.18l3.35-9.63h1.12l3.35,9.63h-1.27l-.74-2.21h-3.8l-.74,2.21h-1.27ZM307.03,1081.88h3.04l-1.52-4.52-1.52,4.52Z" fill="#000" stroke-width="0"/><path d="M316.38,1084.09h4.61v1.09h-5.81v-9.63h1.2v8.54Z" fill="#000" stroke-width="0"/><circle cx="621.49" cy="1380.58" r="45.55" fill="#000" stroke-width="0"/><polyline points="589.28 1348.37 589.28 1348.37 589.28 1348.37" fill="#000" stroke-width="0"/><path d="M600.39,1470.84l-3.24-4.8-1.77,2.18v2.62h-1.2v-9.63h1.2v5.18l4.19-5.18h1.55l-3.17,3.87,3.88,5.77h-1.44Z" fill="#000" stroke-width="0"/><path d="M607.35,1470.95c-2.14,0-3.49-1.28-3.49-4.4v-1.06c0-3.11,1.35-4.4,3.49-4.4s3.49,1.28,3.49,4.4v1.06c0,3.11-1.35,4.4-3.49,4.4ZM605.06,1466.55c0,2.39.81,3.31,2.29,3.31s2.29-.92,2.29-3.31v-1.06c0-2.39-.81-3.31-2.29-3.31s-2.29.92-2.29,3.31v1.06Z" fill="#000" stroke-width="0"/><path d="M619.13,1463.34c-.52-.67-1.08-1.16-2.29-1.16-1.12,0-1.87.5-1.87,1.51,0,1.14.87,1.54,2.28,1.79,1.86.32,2.99.99,2.99,2.78,0,1.26-.84,2.69-3.24,2.69-1.56,0-2.71-.53-3.43-1.58l.99-.68c.63.74,1.19,1.17,2.44,1.17,1.58,0,2.04-.73,2.04-1.55,0-.91-.46-1.52-2.28-1.8-1.82-.28-2.99-1.14-2.99-2.82,0-1.38.91-2.6,3.11-2.6,1.54,0,2.5.52,3.18,1.58l-.94.67Z" fill="#000" stroke-width="0"/><path d="M624.69,1465.31h4.13v-4.1h1.2v9.63h-1.2v-4.44h-4.13v4.44h-1.2v-9.63h1.2v4.1Z" fill="#000" stroke-width="0"/><path d="M639.6,1461.2v1.09h-4.61v3.02h4.19v1.09h-4.19v3.35h4.61v1.09h-5.81v-9.63h5.81Z" fill="#000" stroke-width="0"/><path d="M648.23,1470.84l-2.01-4.06h-2.28v4.06h-1.2v-9.63h3.07c2.22,0,3.5.92,3.5,2.79,0,1.36-.67,2.21-1.9,2.57l2.15,4.27h-1.34ZM645.82,1465.68c1.63,0,2.3-.5,2.3-1.69s-.67-1.7-2.3-1.7h-1.87v3.39h1.87Z" fill="#000" stroke-width="0"/><path d="M633.02,1370.2c-.14-.04-.27-.08-.4-.13-.65-.22-1.29-.53-1.6-1.32-.06-.15-.12-.19-.13-.19-.01,0-.1.03-.19.19-.27.45-.57.98-.74,1.53-.66,2.1-.15,3.13,1.93,3.92,1.24.47,1.66,1.44,1.17,2.72-.21.56-.53,1.15-1.01,1.85l-.4.58c-1.79,2.61-3.64,5.3-4.79,8.32-.13.33-.62.55-.92.57-.7.03-1.42.03-2.11.02-.26,0-.52,0-.78,0h-3.66l.16-.38c.06-.14.1-.25.14-.35.08-.19.14-.34.21-.49,1.74-3.64,3.09-7.55,3.99-11.62.16-.7.5-1,1.2-1.05q1.59-.11,1.53-1.73v-.06c0-.11,0-.21-.03-.31-.19-1.06-.75-1.69-1.72-1.95-.29-.07-.66-.17-1.05-.24-.86-.16-1.42-.58-1.71-1.3-.07-.17-.14-.22-.16-.22-.02,0-.11.02-.24.19-.72.91-1.01,2.03-.78,3.06.22,1,.88,1.82,1.87,2.31.72.36.67.86.53,1.31-.13.41-.26.84-.38,1.26-.1.34-.2.69-.31,1.03-1.29,4.1-2.51,7.14-3.98,9.86-.13.25-.48.6-.82.61h0c-.34,0-.69-.35-.82-.6-2.08-3.86-2.71-7.98-1.88-12.24.1-.52.39-.77.94-.82.44-.03.9-.12,1.36-.25.17-.05.35-.18.39-.26.37-.86-.08-2.72-.78-3.21-.44-.31-1.01-.48-1.56-.64l-.23-.07c-.66-.2-1.48-.45-1.87-1.39-.05-.12-.1-.16-.12-.16-.04,0-.1.04-.17.15-.25.4-.46.84-.6,1.29-.7,2.16-.22,3.5,1.53,4.22.64.26.82.63.63,1.29-.85,2.93-.88,5.94-.08,9.19.62,2.5,1.19,5.02,1.62,6.93.07.32.19.4.54.39,1.54,0,3.22-.01,4.98-.01s3.54,0,5.36.02c.46,0,.58-.09.67-.55.92-4.78,2.8-9.38,5.75-14.06.69-1.1,1.21-2.2,1.53-3.26.31-1.04.28-1.95-.09-2.63-.34-.62-.97-1.07-1.87-1.32Z" fill="#000" stroke-width="0"/><path d="M646.62,1370.25c-.41,0-.82,0-1.24,0-.94,0-1.87,0-2.8,0-.73,0-1.75-.15-2.27-1.28-.06-.13-.12-.19-.16-.19-.04,0-.13.05-.22.17-.29.4-.58.84-.73,1.29-.32.99-.55,2.36.12,3.23.49.64,1.39.93,2.71.87.29-.01.58,0,.86,0,.17,0,.33,0,.5,0,.41,0,.83,0,1.24,0,1.01,0,2.06,0,3.1.01,2.07.03,3.56,1.14,4.07,3.04.6,2.21.68,4.44.23,6.64-.6,2.95-2.18,4.21-5.28,4.22-.72,0-1.44,0-2.16,0h-1.13c-.34,0-.68,0-1.01,0-.95,0-1.92,0-2.88.02-.14,0-.34.08-.4.14-.28,1.03-.53,2.16-.78,3.44.03.05.1.13.14.17.77-.01,1.53-.01,2.3-.01,2.14,0,4.36-.01,6.52-.22,2.95-.28,4.81-1.89,5.36-4.66.31-1.54.51-3.21.6-5.11.15-3.12-.15-5.58-.93-7.72-1.01-2.78-2.79-4.03-5.77-4.03Z" fill="#000" stroke-width="0"/><path d="M607.83,1383.22c0-.37,0-.73,0-1.1,0-.8.01-1.64-.01-2.45-.01-.33-.02-.66-.03-.99-.04-1.49-.08-3.02-.24-4.52-.2-1.93-1.16-3.1-2.87-3.47-.78-.17-1.54-.32-2.31-.35-1.53-.05-3.09-.06-4.6-.08-.72,0-1.44-.01-2.16-.02-.81-.01-1.81-.17-2.31-1.31-.05-.1-.1-.17-.15-.17,0,0,0,0,0,0-.05,0-.14.05-.22.18-.3.46-.63,1.01-.8,1.56-.26.89-.45,2.12.19,2.95.49.63,1.38.93,2.65.9.94-.03,1.89-.04,2.83-.04s1.86,0,2.78.02h1.17c2.89.04,4.39,1.44,4.59,4.32.07,1.04.11,2.15.12,3.5,0,1.64,0,3.28,0,4.91,0,1.62,0,3.24,0,4.87,0,.15.05.33.09.39.06,0,.24-.06.37-.15.61-.45.9-1.03.89-1.76-.02-1.73-.01-3.5-.01-5.2,0-.66,0-1.32,0-1.98Z" fill="#000" stroke-width="0"/><path d="M646.16,1563.7c5,6.16,4.69,15.19-.95,20.96-6.11,6.25-16.23,6.29-22.42.1-5.77-5.77-6.15-14.9-1.13-21.08,2.79-3.44,3.49-7.93,1.64-11.98-2.01-4.4-1.15-9.79,2.59-13.32,4.55-4.29,11.61-4.23,16.11.15,3.64,3.54,4.47,8.86,2.5,13.2-1.84,4.04-1.14,8.53,1.67,11.98Z" fill="#000" stroke-width="0"/><path d="M636.16,1540.11c.99.34,1.9.9,2.67,1.65,1.49,1.45,2.24,3.43,2.16,5.42" fill="#000" stroke-width="0"/><circle cx="633.92" cy="1562.28" r="45.55" fill="#000" stroke-width="0"/><polyline points="601.71 1530.07 601.71 1530.07 601.71 1530.07 623.27 1551.63" fill="#000" stroke-width="0"/><line x1="666.13" y1="1594.5" x2="649.2" y2="1577.56" fill="#000" stroke-width="0"/><path d="M602.11,1642.91v9.63h-1.17l-4.16-7.29v7.29h-1.2v-9.63h1.15l4.19,7.36v-7.36h1.2Z" fill="#000" stroke-width="0"/><path d="M612.86,1642.91v5.71c0,2.85-1.35,4.04-3.49,4.04s-3.49-1.19-3.49-4.02v-5.72h1.2v5.72c0,2.11.81,2.93,2.29,2.93s2.29-.82,2.29-2.93v-5.72h1.2Z" fill="#000" stroke-width="0"/><path d="M622.58,1642.91v1.09h-2.93v8.54h-1.2v-8.54h-2.93v-1.09h7.07Z" fill="#000" stroke-width="0"/><path d="M630.25,1645.04c-.52-.67-1.08-1.16-2.29-1.16-1.12,0-1.87.5-1.87,1.51,0,1.14.87,1.54,2.28,1.79,1.86.32,2.99.99,2.99,2.78,0,1.26-.84,2.69-3.24,2.69-1.56,0-2.71-.53-3.43-1.58l.99-.68c.63.74,1.19,1.17,2.44,1.17,1.58,0,2.04-.73,2.04-1.55,0-.91-.46-1.52-2.28-1.8-1.81-.28-2.99-1.14-2.99-2.82,0-1.38.91-2.6,3.11-2.6,1.54,0,2.5.52,3.18,1.58l-.94.67Z" fill="#000" stroke-width="0"/><path d="M645.3,1642.91v1.09h-4.61v3.24h4.19v1.09h-4.19v4.22h-1.2v-9.63h5.81Z" fill="#000" stroke-width="0"/><path d="M653.79,1652.54l-2.01-4.06h-2.28v4.06h-1.2v-9.63h3.07c2.22,0,3.5.92,3.5,2.79,0,1.36-.67,2.21-1.9,2.57l2.15,4.27h-1.34ZM651.38,1647.39c1.63,0,2.3-.5,2.3-1.69s-.67-1.7-2.3-1.7h-1.87v3.39h1.87Z" fill="#000" stroke-width="0"/><path d="M663.94,1642.91v1.09h-4.61v3.02h4.19v1.09h-4.19v3.35h4.61v1.09h-5.81v-9.63h5.81Z" fill="#000" stroke-width="0"/><path d="M672.89,1642.91v1.09h-4.61v3.02h4.19v1.09h-4.19v3.35h4.61v1.09h-5.81v-9.63h5.81Z" fill="#000" stroke-width="0"/><path d="M892.58,1390.98c0-13.93,18.08-19.46,18.08-19.46-.21.27-6.6,7.29-6.99,19.77-.16,5.16-1.01,11.26-7.42,11.53-1.18.05-2.32-.27-3.34-.78-.25-.13-.48-.11-.72.03-1.11.64-2.43.84-3.77.72-5.96-.55-6.77-6.47-6.93-11.49-.39-12.48-6.79-19.5-6.99-19.77,0,0,18.08,5.53,18.08,19.46Z" fill="#000" stroke-width="0"/><path d="M901.01,1376.45l-.9-23.46c-.15-4-3.48-7.16-7.54-7.16s-7.38,3.16-7.54,7.16l-.9,23.46" fill="#000" stroke-width="0"/><circle cx="892.58" cy="1374.32" r="45.55" fill="#000" stroke-width="0"/><polyline points="884.53 1366.28 860.37 1342.11 860.36 1342.11 860.36 1342.11" fill="#000" stroke-width="0"/><polyline points="904.22 1385.96 924.78 1406.53 924.78 1406.53 924.79 1406.53" fill="#000" stroke-width="0"/><path d="M859.35,1457.95c-.33-1.51-1.1-2.02-2.29-2.02-1.48,0-2.29.92-2.29,3.31v1.06c0,2.39.81,3.31,2.29,3.31,1.26,0,1.97-.61,2.29-2.02h1.16c-.31,2.16-1.62,3.11-3.45,3.11-2.14,0-3.49-1.29-3.49-4.4v-1.06c0-3.11,1.35-4.4,3.49-4.4,1.9,0,3.16,1.01,3.46,3.11h-1.17Z" fill="#000" stroke-width="0"/><path d="M866.53,1464.69c-2.14,0-3.49-1.29-3.49-4.4v-1.06c0-3.11,1.35-4.4,3.49-4.4s3.49,1.29,3.49,4.4v1.06c0,3.11-1.35,4.4-3.49,4.4ZM864.24,1460.29c0,2.39.81,3.31,2.29,3.31s2.29-.92,2.29-3.31v-1.06c0-2.39-.81-3.31-2.29-3.31s-2.29.92-2.29,3.31v1.06Z" fill="#000" stroke-width="0"/><path d="M878.79,1464.58l-2.01-4.06h-2.28v4.06h-1.2v-9.63h3.07c2.22,0,3.5.92,3.5,2.79,0,1.35-.67,2.21-1.9,2.57l2.15,4.27h-1.34ZM876.37,1459.43c1.63,0,2.3-.5,2.3-1.69s-.67-1.7-2.3-1.7h-1.87v3.39h1.87Z" fill="#000" stroke-width="0"/><path d="M889.66,1454.94v9.63h-1.17l-4.16-7.29v7.29h-1.2v-9.63h1.15l4.19,7.36v-7.36h1.2Z" fill="#000" stroke-width="0"/><path d="M904.13,1454.94v1.09h-4.61v3.24h4.19v1.09h-4.19v4.22h-1.2v-9.63h5.81Z" fill="#000" stroke-width="0"/><path d="M912.62,1464.58l-2.01-4.06h-2.28v4.06h-1.2v-9.63h3.07c2.22,0,3.5.92,3.5,2.79,0,1.35-.67,2.21-1.9,2.57l2.15,4.27h-1.34ZM910.21,1459.43c1.63,0,2.3-.5,2.3-1.69s-.67-1.7-2.3-1.7h-1.87v3.39h1.87Z" fill="#000" stroke-width="0"/><path d="M922.77,1454.94v1.09h-4.61v3.02h4.19v1.09h-4.19v3.35h4.61v1.09h-5.81v-9.63h5.81Z" fill="#000" stroke-width="0"/><path d="M931.72,1454.94v1.09h-4.61v3.02h4.19v1.09h-4.19v3.35h4.61v1.09h-5.81v-9.63h5.81Z" fill="#000" stroke-width="0"/><circle cx="756.3" cy="1374.32" r="45.55" fill="#000" stroke-width="0"/><polyline points="724.09 1342.11 724.09 1342.11 724.09 1342.11 749.41 1367.43" fill="#000" stroke-width="0"/><line x1="788.51" y1="1406.53" x2="763.19" y2="1381.21" fill="#000" stroke-width="0"/><path d="M763.09,1364.03c-.63.99-.63,2.26,0,3.25,1.23,1.92,1.97,4.37,1.97,7.04s-.74,5.12-1.97,7.04c-.63.99-.63,2.26,0,3.25,1.23,1.92,1.97,4.37,1.97,7.04,0,6.16-3.92,11.16-8.76,11.16s-8.76-5-8.76-11.16c0-2.67.74-5.12,1.97-7.04.63-.99.63-2.26,0-3.25-1.23-1.92-1.97-4.37-1.97-7.04s.74-5.12,1.97-7.04c.63-.99.63-2.26,0-3.25-1.23-1.92-1.97-4.37-1.97-7.04,0-6.16,3.92-11.16,8.76-11.16s8.76,5,8.76,11.16c0,2.67-.74,5.12-1.97,7.04Z" fill="#000" stroke-width="0"/><path d="M756.3,1362.74c-1.02,0-1.81-.81-2.2-1.3-.89-1.13-1.39-2.75-1.39-4.46s.51-3.33,1.39-4.46c.38-.49,1.17-1.3,2.2-1.3s1.81.81,2.2,1.3c.89,1.13,1.39,2.75,1.39,4.46s-.51,3.33-1.39,4.46c-.38.49-1.17,1.3-2.2,1.3Z" fill="#000" stroke-width="0"/><path d="M756.3,1397.42c-1.02,0-1.81-.81-2.2-1.3-.89-1.13-1.39-2.75-1.39-4.46s.51-3.33,1.39-4.46c.38-.49,1.17-1.3,2.2-1.3s1.81.81,2.2,1.3c.89,1.13,1.39,2.75,1.39,4.46s-.51,3.33-1.39,4.46c-.38.49-1.17,1.3-2.2,1.3Z" fill="#000" stroke-width="0"/><path d="M756.3,1380.08c-1.02,0-1.81-.81-2.2-1.3-.89-1.13-1.39-2.75-1.39-4.46s.51-3.33,1.39-4.46c.38-.49,1.17-1.3,2.2-1.3s1.81.81,2.2,1.3c.89,1.13,1.39,2.75,1.39,4.46s-.51,3.33-1.39,4.46c-.38.49-1.17,1.3-2.2,1.3Z" fill="#000" stroke-width="0"/><path d="M728.47,1457.08c-.52-.67-1.08-1.16-2.29-1.16-1.12,0-1.87.5-1.87,1.51,0,1.14.87,1.54,2.28,1.79,1.86.32,2.99.99,2.99,2.78,0,1.26-.84,2.7-3.24,2.7-1.56,0-2.71-.53-3.43-1.58l.99-.68c.63.74,1.19,1.17,2.44,1.17,1.58,0,2.04-.72,2.04-1.55,0-.91-.46-1.52-2.28-1.8s-2.99-1.15-2.99-2.82c0-1.38.91-2.6,3.11-2.6,1.54,0,2.5.52,3.18,1.58l-.93.67Z" fill="#000" stroke-width="0"/><path d="M735.83,1464.69c-2.14,0-3.49-1.29-3.49-4.4v-1.06c0-3.11,1.35-4.4,3.49-4.4s3.49,1.29,3.49,4.4v1.06c0,3.11-1.35,4.4-3.49,4.4ZM733.54,1460.29c0,2.39.81,3.31,2.29,3.31s2.29-.92,2.29-3.31v-1.06c0-2.39-.81-3.31-2.29-3.31s-2.29.92-2.29,3.31v1.06Z" fill="#000" stroke-width="0"/><path d="M742.83,1454.94l2.19,4.19,2.19-4.19h1.41l-3,5.5v4.13h-1.2v-4.13l-3-5.5h1.41Z" fill="#000" stroke-width="0"/><path d="M762.18,1454.94v1.09h-4.61v3.24h4.19v1.09h-4.19v4.22h-1.2v-9.63h5.81Z" fill="#000" stroke-width="0"/><path d="M770.67,1464.58l-2.01-4.06h-2.28v4.06h-1.2v-9.63h3.07c2.22,0,3.5.92,3.5,2.79,0,1.35-.67,2.21-1.9,2.57l2.15,4.27h-1.34ZM768.26,1459.43c1.63,0,2.3-.5,2.3-1.69s-.67-1.7-2.3-1.7h-1.87v3.39h1.87Z" fill="#000" stroke-width="0"/><path d="M780.82,1454.94v1.09h-4.61v3.02h4.19v1.09h-4.19v3.35h4.61v1.09h-5.81v-9.63h5.81Z" fill="#000" stroke-width="0"/><path d="M789.77,1454.94v1.09h-4.61v3.02h4.19v1.09h-4.19v3.35h4.61v1.09h-5.81v-9.63h5.81Z" fill="#000" stroke-width="0"/><path d="M508.37,1573.97c0,9.47-7.51,17.15-16.77,17.15s-16.77-7.68-16.77-17.15,16.77-31.6,16.77-31.6c0,0,16.77,22.13,16.77,31.6Z" fill="#000" stroke-width="0"/><path d="M502.36,1575.07c-1.46,4.18-4.47,7.61-8.32,9.57" fill="#000" stroke-width="0"/><path d="M468.72,1573.58c-6.26-.75-11.11-6.19-11.11-12.79,0-7.12,12.59-23.74,12.59-23.74,0,0,4.89,6.46,8.58,13.04" fill="#000" stroke-width="0"/><circle cx="482.99" cy="1564.09" r="45.55" fill="#000" stroke-width="0"/><polyline points="450.78 1531.88 450.78 1531.88 450.79 1531.88 464.4 1545.49" fill="#000" stroke-width="0"/><line x1="515.21" y1="1596.3" x2="504.2" y2="1585.29" fill="#000" stroke-width="0"/><path d="M426.15,1644.71v1.09h-2.93v8.54h-1.2v-8.54h-2.93v-1.09h7.07Z" fill="#000" stroke-width="0"/><path d="M434.29,1654.35l-2.01-4.06h-2.28v4.06h-1.2v-9.63h3.07c2.22,0,3.5.92,3.5,2.79,0,1.35-.67,2.21-1.9,2.57l2.15,4.27h-1.34ZM431.87,1649.19c1.63,0,2.3-.5,2.3-1.69s-.67-1.7-2.3-1.7h-1.87v3.39h1.87Z" fill="#000" stroke-width="0"/><path d="M437.58,1654.35l3.35-9.63h1.12l3.35,9.63h-1.27l-.74-2.21h-3.8l-.74,2.21h-1.27ZM439.97,1651.05h3.04l-1.52-4.52-1.52,4.52Z" fill="#000" stroke-width="0"/><path d="M454.66,1644.71v9.63h-1.17l-4.16-7.29v7.29h-1.2v-9.63h1.15l4.19,7.36v-7.36h1.2Z" fill="#000" stroke-width="0"/><path d="M463.44,1646.85c-.52-.67-1.08-1.16-2.29-1.16-1.12,0-1.87.5-1.87,1.51,0,1.14.87,1.54,2.28,1.79,1.86.32,2.99.99,2.99,2.78,0,1.26-.84,2.7-3.24,2.7-1.56,0-2.71-.53-3.43-1.58l.99-.68c.63.74,1.19,1.17,2.44,1.17,1.58,0,2.04-.72,2.04-1.55,0-.91-.46-1.52-2.28-1.8-1.81-.28-2.99-1.15-2.99-2.82,0-1.38.91-2.6,3.11-2.6,1.54,0,2.5.52,3.18,1.58l-.94.67Z" fill="#000" stroke-width="0"/><path d="M478.5,1644.71v1.09h-4.61v3.24h4.19v1.09h-4.19v4.22h-1.2v-9.63h5.81Z" fill="#000" stroke-width="0"/><path d="M480.03,1654.35l3.35-9.63h1.12l3.35,9.63h-1.27l-.74-2.21h-3.8l-.74,2.21h-1.27ZM482.42,1651.05h3.04l-1.52-4.52-1.52,4.52Z" fill="#000" stroke-width="0"/><path d="M496.11,1644.71v1.09h-2.93v8.54h-1.2v-8.54h-2.93v-1.09h7.07Z" fill="#000" stroke-width="0"/><path d="M503.77,1646.85c-.52-.67-1.08-1.16-2.29-1.16-1.12,0-1.87.5-1.87,1.51,0,1.14.87,1.54,2.28,1.79,1.86.32,2.99.99,2.99,2.78,0,1.26-.84,2.7-3.24,2.7-1.56,0-2.71-.53-3.43-1.58l.99-.68c.63.74,1.19,1.17,2.44,1.17,1.58,0,2.04-.72,2.04-1.55,0-.91-.46-1.52-2.28-1.8-1.81-.28-2.99-1.15-2.99-2.82,0-1.38.91-2.6,3.11-2.6,1.54,0,2.5.52,3.18,1.58l-.94.67Z" fill="#000" stroke-width="0"/><path d="M518.83,1644.71v1.09h-4.61v3.24h4.19v1.09h-4.19v4.22h-1.2v-9.63h5.81Z" fill="#000" stroke-width="0"/><path d="M527.32,1654.35l-2.01-4.06h-2.28v4.06h-1.2v-9.63h3.07c2.22,0,3.5.92,3.5,2.79,0,1.35-.67,2.21-1.9,2.57l2.15,4.27h-1.34ZM524.9,1649.19c1.63,0,2.3-.5,2.3-1.69s-.67-1.7-2.3-1.7h-1.87v3.39h1.87Z" fill="#000" stroke-width="0"/><path d="M537.47,1644.71v1.09h-4.61v3.02h4.19v1.09h-4.19v3.35h4.61v1.09h-5.81v-9.63h5.81Z" fill="#000" stroke-width="0"/><path d="M546.42,1644.71v1.09h-4.61v3.02h4.19v1.09h-4.19v3.35h4.61v1.09h-5.81v-9.63h5.81Z" fill="#000" stroke-width="0"/><polygon points="900.78 1169.14 884.37 1164.26 877.9 1174.73 893.73 1179.6 900.78 1169.14" fill="#000" stroke-width="0"/><polyline points="877.9 1174.73 877.9 1211.54 893.73 1216.41 893.73 1179.6" fill="#000" stroke-width="0"/><polyline points="900.78 1169.14 900.78 1165.24 884.37 1160.36 884.37 1164.26" fill="#000" stroke-width="0"/><polygon points="893.73 1179.6 907.25 1175.7 907.25 1212.51 893.73 1216.41 893.73 1179.6" fill="#000" stroke-width="0"/><line x1="900.78" y1="1169.14" x2="907.25" y2="1175.7" fill="#000" stroke-width="0"/><circle cx="892.58" cy="1188.39" r="45.55" fill="#000" stroke-width="0"/><polyline points="860.36 1156.18 860.36 1156.18 860.37 1156.18 878.29 1174.1" fill="#000" stroke-width="0"/><polyline points="907.25 1203.06 924.79 1220.6 924.79 1220.6 924.79 1220.6" fill="#000" stroke-width="0"/><path d="M842.85,1277.56h4.61v1.09h-5.81v-9.63h1.2v8.54Z" fill="#000" stroke-width="0"/><path d="M849.13,1278.65l3.35-9.63h1.12l3.35,9.63h-1.27l-.74-2.21h-3.8l-.74,2.21h-1.27ZM851.52,1275.35h3.04l-1.52-4.52-1.52,4.52Z" fill="#000" stroke-width="0"/><path d="M864.97,1272.01c-.33-1.51-1.1-2.02-2.29-2.02-1.48,0-2.29.92-2.29,3.31v1.06c0,2.39.81,3.31,2.29,3.31,1.26,0,1.97-.61,2.29-2.02h1.16c-.31,2.16-1.62,3.11-3.45,3.11-2.14,0-3.49-1.29-3.49-4.4v-1.06c0-3.11,1.35-4.4,3.49-4.4,1.9,0,3.16,1.01,3.46,3.11h-1.17Z" fill="#000" stroke-width="0"/><path d="M875.09,1269.01v1.09h-2.93v8.54h-1.2v-8.54h-2.93v-1.09h7.07Z" fill="#000" stroke-width="0"/><path d="M880.75,1278.76c-2.14,0-3.49-1.29-3.49-4.4v-1.06c0-3.11,1.35-4.4,3.49-4.4s3.49,1.29,3.49,4.4v1.06c0,3.11-1.35,4.4-3.49,4.4ZM878.46,1274.36c0,2.39.81,3.31,2.29,3.31s2.29-.92,2.29-3.31v-1.06c0-2.39-.81-3.31-2.29-3.31s-2.29.92-2.29,3.31v1.06Z" fill="#000" stroke-width="0"/><path d="M892.53,1271.15c-.52-.67-1.08-1.16-2.29-1.16-1.12,0-1.87.5-1.87,1.51,0,1.14.87,1.54,2.28,1.79,1.86.32,2.99.99,2.99,2.78,0,1.26-.84,2.7-3.24,2.7-1.56,0-2.71-.53-3.43-1.58l.99-.68c.63.74,1.19,1.17,2.44,1.17,1.58,0,2.04-.72,2.04-1.55,0-.91-.46-1.52-2.28-1.8-1.81-.28-2.99-1.15-2.99-2.82,0-1.38.91-2.6,3.11-2.6,1.54,0,2.5.52,3.18,1.58l-.94.67Z" fill="#000" stroke-width="0"/><path d="M902.7,1269.01v1.09h-4.61v3.02h4.19v1.09h-4.19v3.35h4.61v1.09h-5.81v-9.63h5.81Z" fill="#000" stroke-width="0"/><path d="M916.54,1269.01v1.09h-4.61v3.24h4.19v1.09h-4.19v4.22h-1.2v-9.63h5.81Z" fill="#000" stroke-width="0"/><path d="M925.03,1278.65l-2.01-4.06h-2.28v4.06h-1.2v-9.63h3.07c2.22,0,3.5.92,3.5,2.79,0,1.35-.67,2.21-1.9,2.57l2.15,4.27h-1.34ZM922.61,1273.49c1.63,0,2.3-.5,2.3-1.69s-.67-1.7-2.3-1.7h-1.87v3.39h1.87Z" fill="#000" stroke-width="0"/><path d="M935.18,1269.01v1.09h-4.61v3.02h4.19v1.09h-4.19v3.35h4.61v1.09h-5.81v-9.63h5.81Z" fill="#000" stroke-width="0"/><path d="M944.13,1269.01v1.09h-4.61v3.02h4.19v1.09h-4.19v3.35h4.61v1.09h-5.81v-9.63h5.81Z" fill="#000" stroke-width="0"/><polygon points="756.3 1191.28 742.52 1185.34 742.52 1167.7 756.3 1173.63 756.3 1191.28" fill="#000" stroke-width="0"/><polygon points="756.3 1191.28 770.09 1185.34 770.09 1167.7 756.3 1173.63 756.3 1191.28" fill="#000" stroke-width="0"/><polygon points="742.52 1167.7 756.3 1173.63 770.09 1167.7 756.3 1161.84 742.52 1167.7" fill="#000" stroke-width="0"/><polygon points="742.52 1214.93 728.73 1209 728.73 1191.36 742.52 1197.29 742.52 1214.93" fill="#000" stroke-width="0"/><polygon points="742.52 1214.93 756.3 1209 756.3 1191.36 742.52 1197.29 742.52 1214.93" fill="#000" stroke-width="0"/><polygon points="728.73 1191.36 742.52 1197.29 756.3 1191.36 742.52 1185.5 728.73 1191.36" fill="#000" stroke-width="0"/><polygon points="770.09 1214.93 756.3 1209 756.3 1191.36 770.09 1197.29 770.09 1214.93" fill="#000" stroke-width="0"/><polygon points="770.09 1214.93 783.87 1209 783.87 1191.36 770.09 1197.29 770.09 1214.93" fill="#000" stroke-width="0"/><polygon points="756.3 1191.36 770.09 1197.29 783.87 1191.36 770.09 1185.5 756.3 1191.36" fill="#000" stroke-width="0"/><circle cx="756.3" cy="1188.39" r="45.55" fill="#000" stroke-width="0"/><polyline points="742.52 1174.6 724.09 1156.18 724.09 1156.18 724.09 1156.18" fill="#000" stroke-width="0"/><line x1="758.39" y1="1190.47" x2="758.32" y2="1190.41" fill="#000" stroke-width="0"/><line x1="788.51" y1="1220.6" x2="779.01" y2="1211.09" fill="#000" stroke-width="0"/><path d="M717.84,1271.15c-.52-.67-1.08-1.16-2.29-1.16-1.12,0-1.87.5-1.87,1.51,0,1.14.87,1.54,2.28,1.79,1.86.32,2.99.99,2.99,2.78,0,1.26-.84,2.7-3.24,2.7-1.56,0-2.71-.53-3.43-1.58l.99-.68c.63.74,1.19,1.17,2.44,1.17,1.58,0,2.04-.72,2.04-1.55,0-.91-.46-1.52-2.28-1.8s-2.99-1.15-2.99-2.82c0-1.38.91-2.6,3.11-2.6,1.54,0,2.5.52,3.18,1.58l-.93.67Z" fill="#000" stroke-width="0"/><path d="M729.18,1269.01v5.71c0,2.85-1.35,4.04-3.49,4.04s-3.49-1.19-3.49-4.02v-5.72h1.2v5.72c0,2.11.81,2.93,2.29,2.93s2.29-.82,2.29-2.93v-5.72h1.2Z" fill="#000" stroke-width="0"/><path d="M739.5,1273.8v.56c0,3.11-1.41,4.4-3.55,4.4s-3.49-1.29-3.49-4.4v-1.06c0-3.11,1.35-4.4,3.49-4.4,1.87,0,3.16.99,3.46,3.11h-1.17c-.31-1.44-1.06-2.02-2.29-2.02-1.48,0-2.29.92-2.29,3.31v1.06c0,2.39.81,3.31,2.29,3.31,1.35,0,2.21-.78,2.33-2.78h-2.29v-1.09h3.5Z" fill="#000" stroke-width="0"/><path d="M741.74,1278.65l3.35-9.63h1.12l3.35,9.63h-1.27l-.74-2.21h-3.8l-.74,2.21h-1.27ZM744.13,1275.35h3.04l-1.52-4.52-1.52,4.52Z" fill="#000" stroke-width="0"/><path d="M757.77,1278.65l-2.01-4.06h-2.28v4.06h-1.2v-9.63h3.07c2.22,0,3.5.92,3.5,2.79,0,1.35-.67,2.21-1.9,2.57l2.15,4.27h-1.34ZM755.35,1273.49c1.63,0,2.3-.5,2.3-1.69s-.67-1.7-2.3-1.7h-1.87v3.39h1.87Z" fill="#000" stroke-width="0"/><path d="M772.81,1269.01v1.09h-4.61v3.24h4.19v1.09h-4.19v4.22h-1.2v-9.63h5.81Z" fill="#000" stroke-width="0"/><path d="M781.3,1278.65l-2.01-4.06h-2.28v4.06h-1.2v-9.63h3.07c2.22,0,3.5.92,3.5,2.79,0,1.35-.67,2.21-1.9,2.57l2.15,4.27h-1.34ZM778.88,1273.49c1.63,0,2.3-.5,2.3-1.69s-.67-1.7-2.3-1.7h-1.87v3.39h1.87Z" fill="#000" stroke-width="0"/><path d="M791.45,1269.01v1.09h-4.61v3.02h4.19v1.09h-4.19v3.35h4.61v1.09h-5.81v-9.63h5.81Z" fill="#000" stroke-width="0"/><path d="M800.4,1269.01v1.09h-4.61v3.02h4.19v1.09h-4.19v3.35h4.61v1.09h-5.81v-9.63h5.81Z" fill="#000" stroke-width="0"/><path d="M609.43,1159.89v3.09c0,.65.07,6.17,11.77,13.64,0,0,3.64,2.19,6.67,5.16,3.68,3.61,3.69,9.43.02,13.05-3.04,3-6.69,5.29-6.69,5.29-11.7,7.47-11.77,12.99-11.77,13.64v3.11" fill="#000" stroke-width="0"/><path d="M630.64,1159.89v3.09c0,.65-.07,6.17-11.77,13.64,0,0-3.64,2.19-6.67,5.16-3.68,3.61-3.69,9.43-.02,13.05,3.04,3,6.69,5.29,6.69,5.29,11.7,7.47,11.77,12.99,11.77,13.64v3.11" fill="#000" stroke-width="0"/><circle cx="620.03" cy="1188.39" r="45.55" fill="#000" stroke-width="0"/><polyline points="612.83 1181.18 587.82 1156.18 587.82 1156.18 587.82 1156.18" fill="#000" stroke-width="0"/><line x1="652.24" y1="1220.6" x2="627.17" y2="1195.53" fill="#000" stroke-width="0"/><path d="M592,1273.8v.56c0,3.11-1.41,4.4-3.55,4.4s-3.49-1.29-3.49-4.4v-1.06c0-3.11,1.35-4.4,3.49-4.4,1.87,0,3.16.99,3.46,3.11h-1.17c-.31-1.44-1.06-2.02-2.29-2.02-1.48,0-2.29.92-2.29,3.31v1.06c0,2.39.81,3.31,2.29,3.31,1.35,0,2.21-.78,2.33-2.78h-2.29v-1.09h3.5Z" fill="#000" stroke-width="0"/><path d="M599.34,1275.01l2.88-6h1.19v9.63h-1.2v-7.06l-2.35,5.05h-1.08l-2.3-5.01v7.02h-1.2v-9.63h1.17l2.89,6Z" fill="#000" stroke-width="0"/><path d="M610.18,1278.76c-2.14,0-3.49-1.29-3.49-4.4v-1.06c0-3.11,1.35-4.4,3.49-4.4s3.49,1.29,3.49,4.4v1.06c0,3.11-1.35,4.4-3.49,4.4ZM607.89,1274.36c0,2.39.81,3.31,2.29,3.31s2.29-.92,2.29-3.31v-1.06c0-2.39-.81-3.31-2.29-3.31s-2.29.92-2.29,3.31v1.06Z" fill="#000" stroke-width="0"/><path d="M627.65,1269.01v1.09h-4.61v3.24h4.19v1.09h-4.19v4.22h-1.2v-9.63h5.81Z" fill="#000" stroke-width="0"/><path d="M636.14,1278.65l-2.01-4.06h-2.28v4.06h-1.2v-9.63h3.07c2.22,0,3.5.92,3.5,2.79,0,1.35-.67,2.21-1.9,2.57l2.15,4.27h-1.34ZM633.72,1273.49c1.63,0,2.3-.5,2.3-1.69s-.67-1.7-2.3-1.7h-1.87v3.39h1.87Z" fill="#000" stroke-width="0"/><path d="M646.29,1269.01v1.09h-4.61v3.02h4.19v1.09h-4.19v3.35h4.61v1.09h-5.81v-9.63h5.81Z" fill="#000" stroke-width="0"/><path d="M655.24,1269.01v1.09h-4.61v3.02h4.19v1.09h-4.19v3.35h4.61v1.09h-5.81v-9.63h5.81Z" fill="#000" stroke-width="0"/><path d="M310.75,806.23v-.02s-.07.02-.11.03c-5.71,1.52-10.4,5.96-12.06,11.39" fill="#000" stroke-width="0"/><path d="M286.41,806.23v-.02s.07.02.11.03c5.71,1.52,10.4,5.96,12.06,11.39" fill="#000" stroke-width="0"/><path d="M310.75,815.49v-.02s-.07.02-.11.03c-5.71,1.52-10.4,5.96-12.06,11.39" fill="#000" stroke-width="0"/><path d="M286.41,815.49v-.02s.07.02.11.03c5.71,1.52,10.4,5.96,12.06,11.39" fill="#000" stroke-width="0"/><path d="M310.75,796.96v-.02s-.07.02-.11.03c-5.71,1.52-10.4,5.96-12.06,11.39" fill="#000" stroke-width="0"/><path d="M286.41,796.96v-.02s.07.02.11.03c5.71,1.52,10.4,5.96,12.06,11.39" fill="#000" stroke-width="0"/><path d="M310.75,787.69v-.02s-.07.02-.11.03c-5.71,1.52-10.4,5.96-12.06,11.39" fill="#000" stroke-width="0"/><path d="M286.41,787.69v-.02s.07.02.11.03c5.71,1.52,10.4,5.96,12.06,11.39" fill="#000" stroke-width="0"/><circle cx="298.58" cy="802.73" r="45.55" fill="#000" stroke-width="0"/><polyline points="286.41 790.56 266.37 770.52 266.37 770.52 266.37 770.52" fill="#000" stroke-width="0"/><polyline points="310.75 814.9 330.79 834.94 330.79 834.94 330.79 834.94" fill="#000" stroke-width="0"/><path d="M257.88,888.14v.56c0,3.11-1.41,4.4-3.55,4.4s-3.49-1.29-3.49-4.4v-1.06c0-3.11,1.35-4.4,3.49-4.4,1.87,0,3.16.99,3.46,3.11h-1.17c-.31-1.44-1.06-2.02-2.29-2.02-1.48,0-2.29.92-2.29,3.31v1.06c0,2.39.81,3.31,2.29,3.31,1.35,0,2.21-.78,2.33-2.78h-2.29v-1.09h3.5Z" fill="#000" stroke-width="0"/><path d="M262.36,891.9h4.61v1.09h-5.81v-9.63h1.2v8.54Z" fill="#000" stroke-width="0"/><path d="M276.53,883.35v5.71c0,2.85-1.35,4.04-3.49,4.04s-3.49-1.19-3.49-4.02v-5.72h1.2v5.72c0,2.11.81,2.93,2.29,2.93s2.29-.82,2.29-2.93v-5.72h1.2Z" fill="#000" stroke-width="0"/><path d="M286.25,883.35v1.09h-2.93v8.54h-1.2v-8.54h-2.93v-1.09h7.06Z" fill="#000" stroke-width="0"/><path d="M294.72,883.35v1.09h-4.61v3.02h4.19v1.09h-4.19v3.35h4.61v1.09h-5.81v-9.63h5.81Z" fill="#000" stroke-width="0"/><path d="M304.39,883.35v9.63h-1.17l-4.16-7.29v7.29h-1.2v-9.63h1.15l4.19,7.36v-7.36h1.2Z" fill="#000" stroke-width="0"/><path d="M318.86,883.35v1.09h-4.61v3.24h4.19v1.09h-4.19v4.22h-1.2v-9.63h5.81Z" fill="#000" stroke-width="0"/><path d="M327.35,892.99l-2.01-4.06h-2.28v4.06h-1.2v-9.63h3.07c2.22,0,3.5.92,3.5,2.79,0,1.35-.67,2.21-1.9,2.57l2.15,4.27h-1.34ZM324.94,887.83c1.63,0,2.3-.5,2.3-1.69s-.67-1.7-2.3-1.7h-1.87v3.39h1.87Z" fill="#000" stroke-width="0"/><path d="M337.5,883.35v1.09h-4.61v3.02h4.19v1.09h-4.19v3.35h4.61v1.09h-5.81v-9.63h5.81Z" fill="#000" stroke-width="0"/><path d="M346.45,883.35v1.09h-4.61v3.02h4.19v1.09h-4.19v3.35h4.61v1.09h-5.81v-9.63h5.81Z" fill="#000" stroke-width="0"/><path d="M289.78,972.92l-2.48-2.05c-.5-.41-.64-.39-.65-.39,0,0-.16.05-.41.7-.51,1.32-.59,2.69-.23,4.2,1.45,6.13,2.37,12.8,2.9,21.01.26,4.04-1.48,6.5-5.17,7.32-1.09.24-2.19.36-3.24.47-.45.05-.89.09-1.31.15h-.06s-.06,0-.06,0c-.45-.03-.89-.05-1.32-.06-.94-.03-1.82-.06-2.69-.28-2.45-.62-3.89-1.53-4.55-2.85-.6-1.2-.49-2.71.31-4.62.4-.95.87-1.89,1.33-2.79l.46-.91c.13-.25.17-.51.1-.68-.02-.06-.07-.16-.23-.23-.12-.05-.29-.08-.48-.08-.27,0-.56.05-.81.16-.15.06-.4.37-.59.85-.21.51-.42,1.02-.64,1.53-.64,1.53-1.31,3.1-1.73,4.7-.54,2.06-.28,4.08.73,5.68.98,1.56,2.62,2.63,4.6,3.01,3.74.72,7.49.61,11.14-.33,3.64-.93,6.06-3.87,6.16-7.49.06-1.92-.03-4-.27-6.36-.42-4.17-.93-8.4-1.43-12.49l-.05-.4c-.21-1.71.13-3.01,1.11-4.21,1.08-1.32.94-2.43-.45-3.58Z" fill="#000" stroke-width="0"/><path d="M305.05,1002.09h1.79c.62,0,1.23-.01,1.84-.02.61,0,1.22,0,1.84,0,.89,0,1.78,0,2.67.04.38.01.64-.04.77-.17.1-.1.15-.29.15-.57l-.04-1.96c-.05-2.69-.11-5.46-.33-8.17-.12-1.49-.85-2.94-2.04-4.07-.35-.33-.47-.35-.48-.35,0,0-.1.05-.35.44-.95,1.51-1,2.86-.16,4.13.98,1.47,1.62,3.1,1.96,4.96.07.35.12.87-.2,1.26-.35.42-.92.42-1.13.42-1.36,0-2.72,0-4.08,0-1.97,0-3.94,0-5.91,0-1.66-.01-2.58-.75-2.96-2.39-.1-.43-.13-.86-.15-1.28l-.02-.3c-.09-1.17-.16-2.34-.24-3.51-.16-2.6-.34-5.29-.68-7.91-.26-2.02-.8-4.05-1.31-6.02-.18-.68-.36-1.37-.53-2.05-.02-.04-.11-.13-.19-.21-.09.08-.17.16-.2.22-.99,1.91-1.27,3.83-.86,5.86.58,2.87,1,5.67,1.49,9.03.21,1.44.39,2.88.57,4.32.2,1.61.4,3.22.64,4.82.38,2.47,1.57,3.49,4.12,3.51,1.33,0,2.67,0,4,0Z" fill="#000" stroke-width="0"/><path d="M320.51,989.33c-.64.42-.84.99-.61,1.69.16.49.47,1.02.9,1.57.57.73,1.16,1.44,1.75,2.16.81.98,1.65,1.99,2.43,3.03,1.82,2.43,1.92,5,.29,7.25-1.59,2.18-3.1,3.92-4.63,5.31-3.13,2.86-6.83,3.95-11,3.24-.38-.06-.75-.14-1.13-.22-.61-.13-1.19-.25-1.78-.31,0,0,0,0,0,0-.04,0-.12.03-.2.08.06.06.11.1.15.11,1.79.65,3.63,1.27,5.46,1.85,4.28,1.34,7.91.51,10.79-2.46.9-.93,1.74-1.96,2.56-2.96.5-.62,1-1.23,1.52-1.83,1.53-1.77,2.26-3.86,2.18-6.22v-.04c.2-4.8-2.64-7.79-5.63-10.95-.43-.45-.85-.9-1.27-1.35-.44-.48-1.21-.31-1.78.06Z" fill="#000" stroke-width="0"/><path d="M877.5,1008.47c.46.62.87,1.05,1.28,1.36.1.07.44.13.54.1.61-.47,1.24-1.07,1.84-1.65l.52-.5s.03-.04.05-.07c-.07-.13-.14-.25-.23-.36-.27-.32-.54-.64-.82-.95-.36-.41-.72-.83-1.07-1.25-.13-.15-.31-.34-.48-.35-.18,0-.38.14-.52.28l-.23.21c-.49.45-.99.91-1.45,1.39-.26.27-.68.62-1.18.57-.39-.03-.74-.26-1.06-.71-.32-.45-.68-.86-1.07-1.3l-.41-.47c-.18-.21-.25-.2-.26-.2-.04,0-.11.03-.22.13-.39.36-.79.71-1.19,1.07-.35.31-.7.62-1.05.94-.23.21-.23.29-.03.52.4.46.8.92,1.2,1.38l.98,1.12c.12.14.23.21.31.22.08,0,.22-.07.37-.2.21-.19.43-.37.65-.55.36-.3.71-.58.99-.9.42-.48.87-.69,1.27-.68.58.03.99.47,1.28.86Z" fill="#000" stroke-width="0"/></svg>