<?xml version="1.0" encoding="UTF-8"?><svg id="Layer_1" xmlns="http://www.w3.org/2000/svg" viewBox="0 0 348.57 348.57"><circle cx="174.28" cy="174.28" r="172.72" fill="none" stroke="#000" stroke-miterlimit="10" stroke-width="3.12"/><path d="M23.05,154.73l12.23.95c6.1.47,8.42,3.57,8.06,8.15-.35,4.58-3.12,7.28-9.19,6.81l-12.26-.95.2-2.57,12.26.95c4.52.35,6.42-1.25,6.66-4.42.25-3.17-1.38-5.04-5.9-5.39l-12.26-.95.2-2.57Z" fill="#000" stroke-width="0"/><path d="M28.13,130.55l20.1,4.94-.6,2.45-17.34,4.94,15.21,3.74-.62,2.5-20.1-4.94.59-2.39,17.5-4.97-15.35-3.77.62-2.51Z" fill="#000" stroke-width="0"/><path d="M51.79,125.72l-.91,2.41-19.36-7.34.91-2.41,19.36,7.34Z" fill="#000" stroke-width="0"/><path d="M42.1,97.68l2.09,1.06-2.85,5.62,16.37,8.31-1.17,2.3-16.37-8.31-2.85,5.62-2.09-1.06,6.87-13.53Z" fill="#000" stroke-width="0"/><path d="M53.35,80.75l1.92,1.33-5.64,8.14,5.33,3.69,5.13-7.4,1.92,1.33-5.13,7.4,5.92,4.1,5.64-8.14,1.92,1.33-7.11,10.26-17.01-11.79,7.11-10.26Z" fill="#000" stroke-width="0"/><path d="M74.17,87.87l-15.14-14.12,4.5-4.83c3.13-3.36,7-3.73,11.9.84l1.58,1.47c4.89,4.56,4.8,8.45,1.66,11.81l-4.5,4.83ZM75.25,73.12l-1.58-1.47c-3.75-3.5-6.26-3.45-8.42-1.13l-2.74,2.94,11.72,10.93,2.74-2.94c2.17-2.33,2.04-4.83-1.71-8.33Z" fill="#000" stroke-width="0"/><path d="M96.25,47.61c-1.73-.57-3.31-.76-5.47.71-1.98,1.35-2.72,3.15-1.5,4.94,1.38,2.03,3.39,1.68,6.2.43,3.69-1.67,6.51-1.85,8.67,1.33,1.52,2.23,1.77,5.8-2.5,8.7-2.78,1.89-5.45,2.33-8.01,1.34l.94-2.41c2.01.56,3.53.65,5.76-.87,2.8-1.91,2.75-3.75,1.75-5.22-1.1-1.61-2.66-2.15-6.22-.45-3.56,1.7-6.69,1.57-8.72-1.4-1.67-2.46-1.52-5.71,2.4-8.37,2.73-1.85,5.06-2.1,7.56-1.04l-.85,2.32Z" fill="#000" stroke-width="0"/><path d="M114.64,32.53l1.04,2.1-5.64,2.8,8.16,16.44-2.31,1.15-8.16-16.44-5.64,2.8-1.04-2.1,13.6-6.75Z" fill="#000" stroke-width="0"/><path d="M125.56,50.3l.19-21.91,2.27-.77,13.45,17.3-2.59.88-3.02-3.98-7.73,2.62v5s-2.57.87-2.57.87ZM128.15,41.95l6.19-2.1-6.21-8.16.02,10.25Z" fill="#000" stroke-width="0"/><path d="M154.28,21.27l.45,2.3-6.18,1.2,3.5,18.02-2.53.49-3.5-18.02-6.18,1.2-.45-2.3,14.9-2.9Z" fill="#000" stroke-width="0"/><path d="M174.57,19.74l.13,2.34-9.88.55.36,6.47,8.99-.5.13,2.34-8.99.5.4,7.19,9.88-.55.13,2.34-12.46.7-1.16-20.67,12.46-.7Z" fill="#000" stroke-width="0"/><path d="M193.86,25.41c-.99-1.53-2.09-2.67-4.69-2.89-2.39-.2-4.1.74-4.28,2.89-.21,2.45,1.58,3.44,4.55,4.24,3.92,1.02,6.22,2.66,5.9,6.49-.23,2.69-2.28,5.62-7.42,5.19-3.35-.28-5.7-1.62-7.07-4l2.25-1.29c1.21,1.7,2.33,2.73,5.02,2.95,3.38.28,4.5-1.19,4.64-2.95.16-1.94-.71-3.34-4.55-4.27-3.84-.93-6.19-2.99-5.89-6.58.25-2.96,2.41-5.4,7.13-5,3.29.28,5.26,1.56,6.53,3.95l-2.12,1.27Z" fill="#000" stroke-width="0"/><path d="M217.01,47.12c-4.37-1.4-6.31-4.91-4.27-11.28l.69-2.17c2.03-6.37,5.65-8.12,10.02-6.72,4.37,1.4,6.31,4.91,4.27,11.28l-.69,2.17c-2.03,6.37-5.65,8.12-10.02,6.72ZM215.2,36.62c-1.56,4.89-.5,7.3,2.52,8.27,3.03.97,5.29-.39,6.85-5.28l.69-2.17c1.56-4.89.5-7.3-2.52-8.27-3.03-.97-5.29.39-6.85,5.28l-.69,2.17Z" fill="#000" stroke-width="0"/><path d="M250.33,38.53l-1.03,2.1-8.9-4.34-3.05,6.26,8.09,3.95-1.03,2.1-8.09-3.95-3.97,8.14-2.32-1.13,9.08-18.6,11.22,5.47Z" fill="#000" stroke-width="0"/><path d="M252.89,64.3l18.52-11.74,1.88,1.49-7.24,20.69-2.14-1.7,1.7-4.7-6.39-5.08-4.19,2.72-2.14-1.7ZM261.32,61.94l5.12,4.07,3.48-9.65-8.61,5.58Z" fill="#000" stroke-width="0"/><path d="M281.4,79.44l13.72-4.06,1.71,1.89-15.36,13.88-1.73-1.91,11.26-10.18-11.44,3.54-1.55-1.71,4.67-10.89-11.2,10.12-1.73-1.92,15.36-13.88,1.69,1.87-5.41,13.26Z" fill="#000" stroke-width="0"/><path d="M309.87,96.32l-1.97,1.27-5.38-8.31-5.44,3.52,4.89,7.56-1.97,1.27-4.89-7.56-6.05,3.91,5.38,8.31-1.96,1.27-6.78-10.48,17.38-11.24,6.78,10.48Z" fill="#000" stroke-width="0"/><path d="M300.27,123.6l6.14-7.56-2.03-4.45-7.94,3.63-1.07-2.35,18.83-8.6,2.74,6c1.98,4.34,1.33,7.67-2.33,9.34-2.65,1.21-4.91.66-6.72-1.42l-6.43,8.02-1.2-2.62ZM308.18,114.28c1.46,3.19,3.04,4.05,5.36,2.99,2.35-1.07,2.73-2.83,1.27-6.02l-1.67-3.66-6.63,3.03,1.67,3.66Z" fill="#000" stroke-width="0"/><path d="M304.11,134.58l-.79-2.46,19.71-6.33.79,2.46-19.71,6.33Z" fill="#000" stroke-width="0"/><path d="M322.53,150.48c3.04-1.34,3.8-3.17,3.31-5.67-.62-3.12-2.9-4.44-7.93-3.44l-2.24.44c-5.03,1-6.63,3.09-6.01,6.21.53,2.65,2.12,3.89,5.22,3.98l.49,2.44c-4.69.26-7.24-2.11-8-5.96-.89-4.5,1.25-7.89,7.81-9.2l2.24-.44c6.56-1.3,9.83,1.01,10.73,5.51.79,4-.8,7.07-5.11,8.6l-.49-2.47Z" fill="#000" stroke-width="0"/><path d="M309.51,159.17l21.03,6.17.12,2.4-20.32,8.21-.13-2.73,4.66-1.82-.4-8.15-4.81-1.35-.13-2.73ZM316.84,163.95l.32,6.53,9.55-3.75-9.87-2.79Z" fill="#000" stroke-width="0"/><path d="M66.04,289.41c-5.52-5.29-5.84-11.97,1.88-20.02l2.63-2.74c7.72-8.05,14.4-8.01,19.92-2.72,5.52,5.29,5.84,11.97-1.88,20.02l-2.63,2.74c-7.72,8.05-14.4,8.01-19.92,2.72ZM71.03,272.37c-5.92,6.17-6.11,10.56-2.28,14.23s8.2,3.29,14.12-2.88l2.63-2.74c5.92-6.17,6.11-10.56,2.28-14.23-3.83-3.67-8.2-3.29-14.12,2.88l-2.63,2.74Z" fill="#000" stroke-width="0"/><path d="M127.59,289.54l-16.4,30.35-3.7-2-.7-30.05-12.41,22.96-3.78-2.04,16.4-30.35,3.61,1.95.67,30.32,12.53-23.18,3.78,2.04Z" fill="#000" stroke-width="0"/><path d="M158.57,298.14l-.9,3.79-16.05-3.83-2.5,10.5,14.59,3.48-.9,3.79-14.59-3.48-2.78,11.67,16.05,3.83-.9,3.79-20.23-4.82,8-33.55,20.23,4.82Z" fill="#000" stroke-width="0"/><path d="M205.17,306.84c-1.98-5.16-4.97-6.59-9.18-5.96-5.24.78-7.62,4.47-6.37,12.93l.56,3.76c1.26,8.46,4.61,11.29,9.85,10.51,4.45-.66,6.65-3.21,7.04-8.38l4.1-.61c.05,7.83-4.1,11.88-10.57,12.84-7.57,1.13-13.04-2.71-14.68-13.74l-.56-3.76c-1.64-11.03,2.48-16.29,10.05-17.42,6.73-1,11.71,1.9,13.9,9.2l-4.15.62Z" fill="#000" stroke-width="0"/><path d="M235.26,284.71l1.51,3.6-15.21,6.4,4.19,9.96,13.83-5.81,1.51,3.6-13.83,5.81,4.65,11.06,15.21-6.4,1.51,3.6-19.18,8.06-13.37-31.81,19.18-8.06Z" fill="#000" stroke-width="0"/><path d="M261.71,265.8l21.09,27.3-3.32,2.57-27.75-11.55,15.95,20.65-3.4,2.63-21.09-27.3,3.24-2.51,27.98,11.68-16.11-20.85,3.4-2.63Z" fill="#000" stroke-width="0"/><path d="M282.64,240.6l3.08,2.39-6.44,8.29,24.17,18.76-2.64,3.4-24.17-18.76-6.44,8.29-3.08-2.39,15.51-19.98Z" fill="#000" stroke-width="0"/><line x1="90.7" y1="138.79" x2="90.7" y2="181.08" fill="none" stroke="#000" stroke-linecap="round" stroke-miterlimit="10" stroke-width=".84"/><line x1="106.65" y1="138.79" x2="106.65" y2="181.08" fill="none" stroke="#000" stroke-linecap="round" stroke-miterlimit="10" stroke-width=".84"/><line x1="122.6" y1="138.79" x2="122.6" y2="181.08" fill="none" stroke="#000" stroke-linecap="round" stroke-miterlimit="10" stroke-width=".84"/><line x1="138.55" y1="138.79" x2="138.55" y2="181.08" fill="none" stroke="#000" stroke-linecap="round" stroke-miterlimit="10" stroke-width=".84"/><line x1="154.5" y1="138.79" x2="154.5" y2="181.08" fill="none" stroke="#000" stroke-linecap="round" stroke-miterlimit="10" stroke-width=".84"/><line x1="170.45" y1="138.79" x2="170.45" y2="181.08" fill="none" stroke="#000" stroke-linecap="round" stroke-miterlimit="10" stroke-width=".84"/><line x1="186.4" y1="138.79" x2="186.4" y2="181.08" fill="none" stroke="#000" stroke-linecap="round" stroke-miterlimit="10" stroke-width=".84"/><line x1="202.35" y1="138.79" x2="202.35" y2="181.08" fill="none" stroke="#000" stroke-linecap="round" stroke-miterlimit="10" stroke-width=".84"/><line x1="218.3" y1="138.79" x2="218.3" y2="181.08" fill="none" stroke="#000" stroke-linecap="round" stroke-miterlimit="10" stroke-width=".84"/><line x1="234.26" y1="138.79" x2="234.26" y2="181.08" fill="none" stroke="#000" stroke-linecap="round" stroke-miterlimit="10" stroke-width=".84"/><line x1="250.21" y1="138.79" x2="250.21" y2="181.08" fill="none" stroke="#000" stroke-linecap="round" stroke-miterlimit="10" stroke-width=".84"/><line x1="266.16" y1="138.79" x2="266.16" y2="181.08" fill="none" stroke="#000" stroke-linecap="round" stroke-miterlimit="10" stroke-width=".84"/></svg>