<?xml version="1.0" encoding="UTF-8"?><svg id="Layer_1" xmlns="http://www.w3.org/2000/svg" viewBox="0 0 436.93 436.93"><polygon points="218.46 10.83 235.43 2.85 250.94 13.39 268.95 8.16 282.63 20.99 301.23 18.64 312.73 33.46 331.47 34.05 340.51 50.49 358.93 54 365.28 71.65 382.93 78 386.44 96.42 402.88 105.46 403.47 124.2 418.28 135.7 415.93 154.3 428.77 167.97 423.54 185.98 434.08 201.49 426.1 218.46 434.08 235.43 423.54 250.94 428.77 268.95 415.93 282.63 418.28 301.23 403.47 312.73 402.88 331.47 386.44 340.51 382.93 358.93 365.28 365.28 358.93 382.93 340.51 386.44 331.47 402.88 312.73 403.47 301.23 418.28 282.63 415.93 268.95 428.77 250.94 423.54 235.43 434.08 218.46 426.1 201.49 434.08 185.98 423.54 167.97 428.77 154.3 415.93 135.7 418.28 124.2 403.47 105.46 402.88 96.42 386.44 78 382.93 71.65 365.28 54 358.93 50.49 340.51 34.05 331.47 33.46 312.73 18.64 301.23 20.99 282.63 8.16 268.95 13.39 250.94 2.85 235.43 10.83 218.46 2.85 201.49 13.39 185.98 8.16 167.97 20.99 154.3 18.64 135.7 33.46 124.2 34.05 105.46 50.49 96.42 54 78 71.65 71.65 78 54 96.42 50.49 105.46 34.05 124.2 33.46 135.7 18.64 154.3 20.99 167.97 8.16 185.98 13.39 201.49 2.85 218.46 10.83" fill="none" stroke="#fff" stroke-miterlimit="10" stroke-width="4.96"/></svg>