<?xml version="1.0" encoding="UTF-8"?><svg id="Layer_1" xmlns="http://www.w3.org/2000/svg" viewBox="0 0 283.61 283.61"><path d="M78.91,167.68h-13.53l18.3-94.05-17.98,11.3,2.86-14.96,18.14-12.09h13.53l-21.32,109.8Z" fill="#000" stroke-width="0"/><path d="M130.25,63.55c0-4.03-1.45-5.27-4.94-5.27-4.14,0-6.35,2.14-7.63,8.61l-.54,2.76c-1.2,6.1.25,8.61,4.29,8.61,3.7,0,5.7-1.71,6.97-5.27h3.01c-1.56,5.34-4.9,8.1-10.24,8.1s-8.75-3.34-7.15-11.44l.54-2.76c1.6-8.1,5.52-11.44,11.29-11.44,4.94,0,7.44,2.51,7.44,8.1h-3.05Z" fill="#000" stroke-width="0"/><path d="M145.76,78.08c-1.74,2.22-3.89,3.01-6.83,3.01-4.36,0-7.37-3.16-6.39-8.21l.47-2.4c1.02-5.16,3.99-8.13,8.75-8.13s6.54,3.34,5.63,8.13l-.36,1.89h-11.48l-.11.51c-.65,3.12.54,5.59,3.67,5.59,2.25,0,3.49-.76,4.54-2.11l2.11,1.71ZM136.02,69.84h8.53c.54-3.12-.07-4.87-3.12-4.87-3.34,0-4.65,1.82-5.41,4.87Z" fill="#000" stroke-width="0"/><path d="M151.67,62.65h2.91l-.33,1.78c1.16-1.34,2.58-2.03,5.27-2.07,3.52-.04,6.21,2.03,5.23,7.12l-2.22,11.33h-2.91l2.18-11.29c.76-3.89-.94-4.47-3.27-4.47-2.72,0-4.69,1.42-5.27,4.43l-2.22,11.33h-2.91l3.52-18.16Z" fill="#000" stroke-width="0"/><path d="M167.69,62.65h2.32l.8-3.99h2.91l-.8,3.99h4.18l-.51,2.62h-4.18l-1.78,9.22c-.51,2.72-.4,3.56,2.03,3.56h1.45l-.54,2.76h-1.56c-3.81,0-5.12-2.11-4.43-5.59l1.92-9.95h-2.32l.51-2.62Z" fill="#000" stroke-width="0"/><circle cx="141.81" cy="141.81" r="140.54" transform="translate(-58.74 141.81) rotate(-45)" fill="none" stroke="#000" stroke-miterlimit="10" stroke-width="2.54"/><path d="M125.61,171.3l-59.61,59.61,59.61-59.61c-.01-.47-.04-.94-.04-1.42" fill="none" stroke="#000" stroke-miterlimit="10" stroke-width="2.54"/><path d="M128.5,187.65l-51.39,51.39,51.39-51.39" fill="none" stroke="#000" stroke-miterlimit="10" stroke-width="2.54"/><path d="M134.83,200.56l-45.41,45.41,45.41-45.41" fill="none" stroke="#000" stroke-miterlimit="10" stroke-width="2.54"/><path d="M143.72,210.92l-40.65,40.65,40.65-40.65" fill="none" stroke="#000" stroke-miterlimit="10" stroke-width="2.54"/><path d="M155.02,218.87l-36.7,36.7,36.7-36.7" fill="none" stroke="#000" stroke-miterlimit="10" stroke-width="2.54"/><path d="M169.09,224.04l-33.52,33.52,33.52-33.52" fill="none" stroke="#000" stroke-miterlimit="10" stroke-width="2.54"/><path d="M235.2,157.93l22.27-22.27-22.27,22.27" fill="none" stroke="#000" stroke-miterlimit="10" stroke-width="2.54"/><path d="M230.03,143.86l25.45-25.45-25.45,25.45" fill="none" stroke="#000" stroke-miterlimit="10" stroke-width="2.54"/><path d="M222.08,132.56l29.39-29.39-29.39,29.39" fill="none" stroke="#000" stroke-miterlimit="10" stroke-width="2.54"/><path d="M211.72,123.67l34.16-34.16-34.16,34.16" fill="none" stroke="#000" stroke-miterlimit="10" stroke-width="2.54"/><path d="M198.81,117.34l40.14-40.14-40.14,40.14" fill="none" stroke="#000" stroke-miterlimit="10" stroke-width="2.54"/><path d="M181.04,114.41c.48,0,.94.02,1.42.04l48.36-48.36-48.36,48.36" fill="none" stroke="#000" stroke-miterlimit="10" stroke-width="2.54"/></svg>