<?xml version="1.0" encoding="UTF-8"?><svg id="Layer_1" xmlns="http://www.w3.org/2000/svg" viewBox="0 0 267.04 267.04"><polygon points="267.04 59.69 207.34 0 200.85 0 267.04 66.04 267.04 59.69" fill="#fff" stroke-width="0"/><polygon points="267.04 140.01 127.03 0 120.54 0 267.04 146.5 267.04 140.01" fill="#fff" stroke-width="0"/><polygon points="267.04 99.78 167.26 0 160.77 0 267.04 106.27 267.04 99.78" fill="#fff" stroke-width="0"/><polygon points="267.04 19.47 247.57 0 241.08 0 267.04 25.95 267.04 19.47" fill="#fff" stroke-width="0"/><polygon points="267.04 0 263.86 0 267.04 3.17 267.04 0" fill="#fff" stroke-width="0"/><polygon points="267.04 220.32 46.57 0 40.08 0 267.04 226.81 267.04 220.32" fill="#fff" stroke-width="0"/><polygon points="267.04 180.23 86.8 0 80.31 0 267.04 186.58 267.04 180.23" fill="#fff" stroke-width="0"/><polygon points="267.04 260.55 6.49 0 0 0 267.04 267.04 267.04 260.55" fill="#fff" stroke-width="0"/></svg>