<?xml version="1.0" encoding="UTF-8"?><svg id="Layer_1" xmlns="http://www.w3.org/2000/svg" viewBox="0 0 169.62 169.61"><polygon points="51.59 132.59 47.52 130.49 49.61 134.56 51.59 132.59" fill="#19a2cc" stroke-width="0"/><path d="M134.79,6.02L6.02,134.79c-12.85,12.85-3.75,34.83,14.42,34.83h130.91c10.09,0,18.27-8.18,18.27-18.27V20.44c0-18.17-21.97-27.28-34.83-14.42ZM47.35,143.13l-5.43-5.43,1.95,5.76-1.08,1.08-5.69-1.94,5.39,5.39-1.69,1.69-8.75-8.75,1.66-1.66,7.23,2.31-2.33-7.2,1.69-1.69,8.75,8.75-1.7,1.7ZM55.76,134.73l-2.19-1.13-2.93,2.93,1.13,2.19-1.9,1.9-5.71-11.79,1.7-1.7,11.79,5.71-1.89,1.89ZM58.6,131.89l-8.75-8.75,1.78-1.78,8.75,8.75-1.78,1.78ZM67.32,123.17l-8.83-2,5.41,5.41-1.69,1.69-8.75-8.75,1.47-1.47,8.92,2.07-5.49-5.49,1.69-1.69,8.75,8.75-1.48,1.48ZM72.19,118.3l-7.24-7.24-2.41,2.41-1.51-1.51,6.59-6.59,1.51,1.51-2.41,2.41,7.24,7.24-1.78,1.78ZM77.34,113.15l-8.75-8.75,5.45-5.45,1.51,1.51-3.68,3.68,1.97,1.97,3.3-3.3,1.5,1.5-3.3,3.3,2.28,2.28,3.68-3.68,1.5,1.5-5.45,5.45ZM89.12,101.37l-8.83-2,5.41,5.41-1.69,1.69-8.75-8.75,1.47-1.47,8.92,2.07-5.49-5.49,1.69-1.69,8.75,8.75-1.48,1.48ZM97.32,93.17l-2.19-1.13-2.93,2.93,1.13,2.19-1.9,1.9-5.71-11.79,1.7-1.7,11.79,5.71-1.89,1.89ZM105.13,85.36l-8.83-2,5.41,5.41-1.69,1.69-8.75-8.75,1.47-1.47,8.92,2.07-5.49-5.49,1.69-1.69,8.75,8.75-1.48,1.48ZM111.54,79.17c-1.97,1.97-4.54,2.16-7.22-.52l-1.24-1.24c-2.7-2.7-2.49-5.25-.52-7.22,1.74-1.74,3.83-2,6.04-.38l-1.7,1.7c-.99-.66-1.98-.68-2.84.18-1.03,1.03-.87,2.27.8,3.94l1.24,1.24c1.62,1.62,2.92,1.83,3.94.8.89-.89.88-1.76.18-2.84l1.69-1.69c1.67,2.26,1.43,4.22-.37,6.02ZM115.88,74.61l-8.75-8.75,5.45-5.45,1.51,1.51-3.68,3.68,1.97,1.97,3.3-3.3,1.5,1.5-3.3,3.3,2.28,2.28,3.68-3.68,1.5,1.5-5.45,5.45Z" fill="#19a2cc" stroke-width="0"/><polygon points="93.15 91.03 89.08 88.93 91.17 93 93.15 91.03" fill="#19a2cc" stroke-width="0"/></svg>