<?xml version="1.0" encoding="UTF-8"?><svg id="Layer_1" xmlns="http://www.w3.org/2000/svg" viewBox="0 0 168.94 168.93"><polygon points="84.88 73.84 80.82 71.75 82.91 75.81 84.88 73.84" fill="#e20613" stroke-width="0"/><path d="M58.16,96.89c-1.67-1.67-2.92-1.81-3.94-.78-1.02,1.02-.87,2.26.8,3.93l1.24,1.24c1.67,1.67,2.9,1.82,3.93.8,1.02-1.02.88-2.27-.78-3.94l-1.24-1.24Z" fill="#e20613" stroke-width="0"/><path d="M39.86,110.72l-1.19,1.19,2.3,2.3,1.19-1.19c1.05-1.05,1.43-1.88.52-2.79-.91-.91-1.77-.56-2.82.49Z" fill="#e20613" stroke-width="0"/><path d="M28.69,124.46c-.83-.83-1.81-.77-3.03.45l-1.1,1.1,2.65,2.65,1.1-1.1c1.23-1.23,1.31-2.17.38-3.11Z" fill="#e20613" stroke-width="0"/><path d="M148.58,0H18.2C8.15,0,0,8.15,0,18.2v130.38C0,166.67,21.88,175.74,34.68,162.95L162.95,34.69C175.75,21.88,166.68,0,148.58,0ZM30.01,134.99l-8.71-8.71,3.12-3.12c2.01-2.01,4.18-2.34,6.05-.47s1.62,4.09-.4,6.11l-1.35,1.35,3.07,3.07-1.77,1.77ZM37.46,127.54l-8.71-8.71,5.43-5.43,1.5,1.5-3.66,3.66,1.96,1.96,3.28-3.28,1.49,1.49-3.28,3.28,2.27,2.27,3.66-3.66,1.49,1.49-5.43,5.43ZM48.86,116.14l-4.99-1.86-1.41,1.41,3.42,3.42-1.77,1.77-8.71-8.71,3.12-3.12c2.01-2.01,4.15-2.36,5.92-.59,1.17,1.17,1.4,2.49.85,3.83l5.52,1.91-1.95,1.95ZM51.9,113.1l-8.71-8.71,5.43-5.43,1.5,1.5-3.66,3.66,2.16,2.16,3.28-3.28,1.49,1.49-3.28,3.28,3.56,3.56-1.77,1.77ZM61.67,103.56c-1.96,1.96-4.52,2.15-7.19-.52l-1.24-1.24c-2.69-2.69-2.47-5.23-.52-7.19,1.97-1.97,4.51-2.18,7.2.51l1.24,1.24c2.66,2.67,2.48,5.23.5,7.2ZM71.1,93.9l-4.99-1.86-1.42,1.41,3.42,3.42-1.77,1.77-8.71-8.71,3.12-3.12c2.01-2.01,4.16-2.36,5.92-.59,1.17,1.17,1.4,2.49.85,3.83l5.52,1.91-1.94,1.94ZM80.66,84.34l-5.41-5.41,1.95,5.73-1.07,1.07-5.67-1.93,5.37,5.37-1.68,1.68-8.71-8.71,1.65-1.65,7.2,2.3-2.32-7.17,1.68-1.68,8.71,8.71-1.69,1.69ZM89.03,75.97l-2.18-1.12-2.92,2.92,1.12,2.19-1.89,1.89-5.68-11.75,1.69-1.69,11.75,5.68-1.88,1.88ZM96.81,68.19l-8.79-2,5.39,5.39-1.68,1.68-8.71-8.71,1.46-1.47,8.88,2.06-5.47-5.47,1.68-1.68,8.71,8.71-1.48,1.48ZM103.2,62.03c-1.96,1.96-4.52,2.15-7.19-.52l-1.24-1.24c-2.69-2.69-2.48-5.23-.52-7.19,1.73-1.73,3.81-2,6.01-.38l-1.69,1.69c-.98-.66-1.97-.68-2.83.18-1.02,1.02-.87,2.26.8,3.93l1.24,1.24c1.62,1.62,2.9,1.82,3.93.8.88-.88.87-1.76.18-2.83l1.68-1.68c1.67,2.25,1.43,4.21-.37,6ZM107.52,57.48l-8.71-8.71,5.43-5.43,1.5,1.5-3.66,3.66,1.96,1.96,3.28-3.28,1.49,1.49-3.28,3.28,2.27,2.27,3.66-3.66,1.49,1.49-5.43,5.43Z" fill="#e20613" stroke-width="0"/><path d="M62.09,88.48l-1.19,1.19,2.3,2.3,1.19-1.19c1.05-1.05,1.43-1.88.52-2.79-.91-.91-1.77-.56-2.82.49Z" fill="#e20613" stroke-width="0"/></svg>