<?xml version="1.0" encoding="UTF-8"?>
<svg id="Layer_1" data-name="Layer 1" xmlns="http://www.w3.org/2000/svg" version="1.1" viewBox="0 0 140 140">
  <defs>
    <style>
      .cls-1 {
        letter-spacing: 0em;
      }

      .cls-1, .cls-2, .cls-3, .cls-4, .cls-5 {
        font-size: 33.3px;
      }

      .cls-1, .cls-2, .cls-3, .cls-4, .cls-5, .cls-6, .cls-7 {
        fill: #fff;
        font-family: ArialMT, Arial;
        isolation: isolate;
      }

      .cls-2 {
        letter-spacing: 0em;
      }

      .cls-3 {
        letter-spacing: .1em;
      }

      .cls-4 {
        letter-spacing: 0em;
      }

      .cls-5 {
        letter-spacing: 0em;
      }

      .cls-6 {
        letter-spacing: 0em;
      }

      .cls-6, .cls-7 {
        font-size: 33.3px;
      }

      .cls-7 {
        letter-spacing: .1em;
      }

      .cls-8 {
        fill: none;
        stroke: #d3d3d3;
        stroke-width: 1px;
      }
    </style>
  </defs>
  <path class="cls-8" d="M3,70c0,37.1,30.1,67.1,67.1,67.1s67.1-30.1,67.1-67.1S107.2,2.9,70.2,2.9,3,32.9,3,70"/>
  <g>
    <text class="cls-7" transform="translate(7.9 98.7) rotate(53.6)"><tspan x="0" y="0">M</tspan></text>
    <text class="cls-3" transform="translate(27.6 122.7) rotate(31.1)"><tspan x="0" y="0">u</tspan></text>
    <text class="cls-3" transform="translate(46.7 133.5) rotate(13.2)"><tspan x="0" y="0">s</tspan></text>
    <text class="cls-2" transform="translate(66.3 137.5) rotate(-3.7)"><tspan x="0" y="0">c</tspan></text>
    <text class="cls-3" transform="translate(86.1 135.3) rotate(-16.8)"><tspan x="0" y="0">l</tspan></text>
    <text class="cls-6" transform="translate(96.5 132.4) rotate(-30.8)"><tspan x="0" y="0">e</tspan></text>
    <text class="cls-4" transform="translate(114.7 120.4) rotate(-45.4)"><tspan x="0" y="0"> </tspan></text>
    <text class="cls-5" transform="translate(124.3 111.8) rotate(-63.2)"><tspan x="0" y="0">G</tspan></text>
    <text class="cls-3" transform="translate(135.8 85) rotate(-81.9)"><tspan x="0" y="0">r</tspan></text>
    <text class="cls-3" transform="translate(137.9 70.6) rotate(-97.2)"><tspan x="0" y="0">o</tspan></text>
    <text class="cls-1" transform="translate(135 48.8) rotate(-118.3)"><tspan x="0" y="0">w</tspan></text>
    <text class="cls-7" transform="translate(120.7 25.5) rotate(-135.3)"><tspan x="0" y="0">t</tspan></text>
    <text class="cls-3" transform="translate(111.7 16.5) rotate(-149.9)"><tspan x="0" y="0">h</tspan></text>
    <text class="cls-3" transform="translate(92.4 6.5) rotate(-164.7)"><tspan x="0" y="0"> </tspan></text>
    <text class="cls-2" transform="translate(80.2 2.7) rotate(179.1)"><tspan x="0" y="0">A</tspan></text>
    <text class="cls-3" transform="translate(54.8 4.5) rotate(163.7)"><tspan x="0" y="0">i</tspan></text>
  </g>
  <text class="cls-5" transform="translate(44.3 7.3) rotate(149.7)"><tspan x="0" y="0">d</tspan></text>
</svg>