<?xml version="1.0" encoding="UTF-8"?><svg id="Layer_1" xmlns="http://www.w3.org/2000/svg" viewBox="0 0 259.4 424.09"><path d="M129.7,258.37C58.44,258.37.47,200.4.47,129.14S58.44-.09,129.7-.09s129.23,57.97,129.23,129.23-57.97,129.23-129.23,129.23ZM129.7,5.58C61.56,5.58,6.13,61.01,6.13,129.14s55.43,123.57,123.57,123.57,123.57-55.43,123.57-123.57S197.83,5.58,129.7,5.58Z" fill="#1d1d1d" stroke-width="0"/><path d="M40.33,42.6c-1.56,0-2.83-1.27-2.83-2.83h2.83v-2.83,2.83s2.83,0,2.83,0h0s-2.83,0-2.83,0v2.83Z" fill="#1d1d1d" stroke-width="0"/><path d="M71.15,359.58l-8.99-13.33-4.92,6.04v7.28h-3.33v-26.73h3.33v14.37l11.62-14.37h4.3l-8.79,10.73,10.77,16h-3.99Z" fill="#1d1d1d" stroke-width="0"/><path d="M90.45,359.89c-5.93,0-9.69-3.56-9.69-12.2v-2.94c0-8.64,3.76-12.2,9.69-12.2s9.69,3.56,9.69,12.2v2.94c0,8.64-3.76,12.2-9.69,12.2ZM84.09,347.69c0,6.62,2.25,9.18,6.35,9.18s6.35-2.56,6.35-9.18v-2.94c0-6.62-2.25-9.18-6.35-9.18s-6.35,2.56-6.35,9.18v2.94Z" fill="#1d1d1d" stroke-width="0"/><path d="M123.15,338.78c-1.43-1.86-2.98-3.22-6.35-3.22-3.1,0-5.19,1.4-5.19,4.18,0,3.18,2.4,4.26,6.31,4.96,5.15.89,8.29,2.75,8.29,7.71,0,3.49-2.32,7.48-8.99,7.48-4.34,0-7.52-1.47-9.53-4.38l2.75-1.9c1.74,2.05,3.29,3.25,6.78,3.25,4.38,0,5.66-2.01,5.66-4.3,0-2.52-1.28-4.22-6.31-5-5.04-.78-8.29-3.18-8.29-7.83,0-3.84,2.52-7.21,8.64-7.21,4.26,0,6.94,1.43,8.83,4.38l-2.6,1.86Z" fill="#1d1d1d" stroke-width="0"/><path d="M138.57,344.24h11.47v-11.39h3.33v26.73h-3.33v-12.32h-11.47v12.32h-3.33v-26.73h3.33v11.39Z" fill="#1d1d1d" stroke-width="0"/><path d="M179.95,332.85v3.02h-12.79v8.37h11.62v3.02h-11.62v9.3h12.79v3.02h-16.12v-26.73h16.12Z" fill="#1d1d1d" stroke-width="0"/><path d="M203.9,359.58l-5.58-11.27h-6.31v11.27h-3.33v-26.73h8.52c6.16,0,9.72,2.56,9.72,7.75,0,3.76-1.86,6.12-5.27,7.13l5.97,11.86h-3.72ZM197.2,345.29c4.53,0,6.39-1.39,6.39-4.69s-1.86-4.73-6.39-4.73h-5.19v9.41h5.19Z" fill="#1d1d1d" stroke-width="0"/><path d="M160.34,99.62c-.4-.11-.8-.24-1.19-.37-1.91-.64-3.79-1.55-4.7-3.88-.17-.44-.34-.55-.38-.55-.04,0-.29.08-.57.55-.8,1.32-1.69,2.89-2.19,4.52-1.94,6.2-.45,9.23,5.68,11.56,3.67,1.39,4.89,4.24,3.46,8.02-.63,1.66-1.58,3.38-2.98,5.44l-1.17,1.71c-5.27,7.68-10.71,15.62-14.13,24.52-.37.98-1.84,1.63-2.73,1.67-2.07.1-4.18.08-6.21.06-.77,0-1.53-.01-2.3-.01h-10.8l.46-1.12c.17-.4.3-.74.42-1.04.23-.57.4-1.01.61-1.43,5.14-10.74,9.09-22.26,11.76-34.24.46-2.05,1.48-2.95,3.53-3.08q4.68-.31,4.5-5.11v-.18c-.02-.32-.03-.63-.08-.91-.56-3.11-2.22-4.99-5.06-5.73-.84-.22-1.95-.5-3.08-.71-2.53-.46-4.18-1.71-5.04-3.82-.21-.5-.41-.64-.47-.65-.06-.02-.33.07-.7.55-2.13,2.69-2.98,5.97-2.31,9,.65,2.94,2.6,5.35,5.5,6.81,2.13,1.07,1.98,2.55,1.56,3.85-.4,1.22-.77,2.48-1.12,3.7-.3,1.02-.59,2.03-.91,3.04-3.79,12.07-7.4,21.03-11.72,29.06-.4.74-1.4,1.78-2.41,1.79h-.02c-1.01,0-2.02-1.03-2.41-1.76-6.13-11.39-7.99-23.52-5.54-36.06.3-1.54,1.15-2.28,2.76-2.4,1.3-.1,2.64-.34,3.99-.73.51-.15,1.03-.54,1.14-.78,1.1-2.53-.24-8.02-2.31-9.46-1.29-.9-2.98-1.4-4.61-1.89l-.69-.21c-1.95-.59-4.37-1.33-5.5-4.09-.14-.34-.3-.48-.37-.48-.1,0-.28.11-.49.44-.73,1.17-1.35,2.48-1.78,3.81-2.07,6.38-.64,10.32,4.5,12.43,1.9.78,2.42,1.84,1.85,3.8-2.51,8.65-2.58,17.5-.22,27.07,1.82,7.38,3.51,14.78,4.79,20.41.21.94.55,1.17,1.6,1.16,4.54-.02,9.5-.03,14.67-.03s10.45.01,15.79.05c1.34.02,1.7-.26,1.96-1.63,2.71-14.08,8.25-27.63,16.93-41.43,2.04-3.24,3.55-6.47,4.5-9.61.92-3.07.83-5.75-.27-7.75-1.01-1.83-2.86-3.14-5.51-3.89Z" fill="#1d1d1d" stroke-width="0"/><path d="M200.41,99.74c-1.21,0-2.43,0-3.64,0-2.76,0-5.51,0-8.26-.02-2.14-.02-5.16-.44-6.67-3.77-.17-.37-.36-.55-.46-.56-.13-.03-.38.14-.64.51-.85,1.19-1.71,2.47-2.14,3.79-.93,2.92-1.63,6.94.34,9.52,1.44,1.88,4.11,2.74,7.99,2.58.85-.04,1.72-.03,2.55-.02.49,0,.97,0,1.46,0,1.22,0,2.44,0,3.65,0,2.99,0,6.08-.02,9.13.03,6.11.1,10.49,3.37,12,8.96,1.77,6.51,2,13.1.69,19.57-1.77,8.7-6.42,12.42-15.55,12.45-2.12,0-4.24,0-6.37,0h-3.32c-.99,0-1.99,0-2.99,0-2.79,0-5.67-.02-8.49.05-.4,0-1,.25-1.19.4-.82,3.05-1.57,6.36-2.31,10.12.08.15.28.39.42.49,2.26-.03,4.52-.04,6.78-.04,6.32-.02,12.85-.03,19.21-.64,8.7-.83,14.16-5.58,15.81-13.74.92-4.55,1.49-9.47,1.75-15.06.43-9.2-.44-16.43-2.75-22.76-2.99-8.2-8.23-11.86-16.99-11.87Z" fill="#1d1d1d" stroke-width="0"/><path d="M86.11,137.96c0-1.08,0-2.15.02-3.23.02-2.37.04-4.82-.04-7.22-.03-.97-.06-1.94-.09-2.91-.12-4.38-.25-8.9-.71-13.31-.59-5.7-3.43-9.14-8.45-10.23-2.3-.5-4.55-.95-6.81-1.02-4.51-.14-9.11-.19-13.56-.23-2.13-.02-4.25-.04-6.38-.07-2.4-.03-5.34-.5-6.82-3.86-.13-.3-.3-.5-.44-.51,0,0-.01,0-.01,0-.15,0-.4.16-.64.52-.88,1.37-1.85,2.96-2.34,4.61-.78,2.61-1.31,6.24.57,8.68,1.44,1.87,4.06,2.76,7.82,2.64,2.77-.09,5.56-.12,8.35-.12s5.49.03,8.18.06l3.45.03c8.5.07,12.93,4.22,13.52,12.69.21,3.06.32,6.34.34,10.32.02,4.83.03,9.65.03,14.48,0,4.78,0,9.56.03,14.34,0,.45.16.96.27,1.14.19,0,.72-.18,1.08-.44,1.79-1.33,2.66-3.03,2.63-5.19-.05-5.11-.04-10.3-.03-15.32,0-1.95,0-3.9,0-5.85Z" fill="#1d1d1d" stroke-width="0"/></svg>