<?xml version="1.0" encoding="UTF-8"?><svg id="Layer_1" xmlns="http://www.w3.org/2000/svg" viewBox="0 0 300 300"><path d="M112.7,253.09c10.63,3.85,21.78,6.01,33.15,6.44l.12-3.34c-11.02-.41-21.84-2.51-32.14-6.24l-1.14,3.14Z" fill="#fff" stroke-width="0"/><path d="M122.9,47.28l-.85-3.23c-10.95,2.88-21.36,7.44-30.93,13.55l1.8,2.82c9.28-5.93,19.37-10.34,29.98-13.14Z" fill="#fff" stroke-width="0"/><path d="M188.71,47.49l-1.18,3.12c41.1,15.52,68.71,55.47,68.71,99.42,0,57.21-46.51,104.85-103.68,106.2l.08,3.34c58.97-1.39,106.94-50.53,106.94-109.54,0-45.33-28.48-86.53-70.87-102.54Z" fill="#fff" stroke-width="0"/><path d="M87.5,64.12l-1.97-2.7c-28.24,20.58-45.1,53.71-45.1,88.61,0,22.42,6.72,43.97,19.44,62.32l2.75-1.9c-12.32-17.79-18.84-38.68-18.84-60.41,0-33.84,16.35-65.95,43.73-85.91Z" fill="#fff" stroke-width="0"/><path d="M294.64,142.45l-9.57.49c-.4-7.64-1.46-15.1-3.08-22.36l9.4-2.09C276.8,52.84,217.34,5.2,150,5.2c-3.92.02-7.84.15-11.73.47l.77,9.59c-22.15,1.79-42.81,8.92-60.68,20.13l-5.13-8.19c-9.76,6.11-18.79,13.39-26.85,21.65l6.92,6.76c-5.26,5.38-10.07,11.2-14.38,17.4l-7.94-5.51C14.09,91.78,5.17,120.33,5.17,150.03c0,40.32,17,79.13,46.65,106.48l6.55-7.1c15.67,14.46,34.76,25.25,55.89,31.05l-2.54,9.29c11.08,3.03,22.56,4.73,34.12,5.05l.27-9.62c1.29.04,2.58.1,3.88.1,6.34,0,12.56-.47,18.67-1.32l1.31,9.53c71.18-9.83,124.85-71.5,124.85-143.47,0-2.55-.07-5.07-.2-7.58ZM18.08,150.03c0-72.74,59.18-131.92,131.92-131.92s131.92,59.18,131.92,131.92-59.18,131.92-131.92,131.92S18.08,222.77,18.08,150.03Z" fill="#fff" stroke-width="0"/><path d="M132.46,107.27l-1.27-3.09c-10.73,4.41-19.63,12.5-25.05,22.78l2.95,1.56c5.05-9.59,13.35-17.13,23.36-21.25Z" fill="#fff" stroke-width="0"/><path d="M100.46,150.03c0,27.32,22.22,49.54,49.54,49.54s49.54-22.22,49.54-49.54c0-9.44-2.66-18.62-7.71-26.55l-2.82,1.79c4.7,7.39,7.19,15.96,7.19,24.76,0,25.48-20.73,46.2-46.2,46.2s-46.2-20.73-46.2-46.2c0-5.36.91-10.62,2.71-15.62l-3.14-1.13c-1.93,5.37-2.9,11-2.9,16.75Z" fill="#fff" stroke-width="0"/><path d="M116.18,229.44c-10.09-4.3-19.18-10.43-27-18.2l-2.35,2.37c8.12,8.07,17.55,14.43,28.04,18.9l1.31-3.07Z" fill="#fff" stroke-width="0"/><path d="M150,63.74c8.61,0,17.11,1.27,25.26,3.76l.98-3.2c-8.47-2.59-17.3-3.9-26.24-3.9-49.42,0-89.63,40.21-89.63,89.63,0,.88.01,1.76.04,2.64l3.34-.09c-.02-.85-.04-1.7-.04-2.55,0-47.58,38.71-86.29,86.29-86.29Z" fill="#fff" stroke-width="0"/><path d="M239.63,150.03c0-1.78-.05-3.55-.15-5.31l-3.33.2c.1,1.69.15,3.39.15,5.11,0,47.58-38.71,86.29-86.29,86.29-9.49,0-18.81-1.53-27.7-4.54l-1.07,3.16c9.24,3.13,18.92,4.72,28.77,4.72,49.42,0,89.63-40.21,89.63-89.62Z" fill="#fff" stroke-width="0"/><path d="M211.26,84.6c-8.36-7.83-17.98-13.91-28.59-18.06l-1.22,3.11c10.22,4,19.48,9.85,27.53,17.39l2.28-2.44Z" fill="#fff" stroke-width="0"/><path d="M150,71.49h0c-26.52,0-51.06,13.25-65.65,35.43l8.37,5.5c12.73-19.36,34.14-30.91,57.28-30.91h0c30.06,0,57.06,20.09,65.66,48.87l9.6-2.87c-9.85-32.98-40.8-56.01-75.26-56.01Z" fill="#fff" stroke-width="0"/><path d="M150,228.57c43.31,0,78.54-35.23,78.54-78.53,0-5.25-.52-10.5-1.55-15.6l-9.82,1.98c.9,4.45,1.35,9.03,1.35,13.62,0,37.78-30.74,68.52-68.52,68.52-16.12,0-31.78-5.71-44.09-16.07l-6.45,7.66c14.11,11.88,32.06,18.42,50.54,18.42Z" fill="#fff" stroke-width="0"/><path d="M101.33,198.26c-7.31-7.37-12.93-16.44-16.24-26.22l-9.49,3.22c3.8,11.21,10.24,21.6,18.61,30.05l7.12-7.05Z" fill="#fff" stroke-width="0"/></svg>