<?xml version="1.0" encoding="utf-8"?>
<!-- Generator: Adobe Illustrator 28.3.0, SVG Export Plug-In . SVG Version: 6.00 Build 0)  -->
<svg version="1.1" id="Layer_1" xmlns="http://www.w3.org/2000/svg" xmlns:xlink="http://www.w3.org/1999/xlink" x="0px" y="0px"
	 viewBox="0 0 250 286" style="enable-background:new 0 0 250 286;" xml:space="preserve">
<style type="text/css">
	.st0{fill:#d0d6d9;}
	.st1{fill:#d0d6d9;stroke:#000000;stroke-width:22;stroke-miterlimit:10;}
</style>
<g>
	<g>
		<g>
			<path class="st0" d="M158.4,22h3c0.7,0,1.2,0.2,1.6,0.5c0.3,0.3,0.6,0.7,0.6,1.3c0,0.3-0.1,0.6-0.2,0.8c-0.1,0.2-0.2,0.4-0.3,0.5
				c-0.2,0.2-0.2,0.2-0.3,0.2c-0.2,0.1-0.2,0.1-0.2,0.1l0,0c0.1,0,0.2,0.1,0.3,0.1s0.2,0.2,0.3,0.2c0.1,0.1,0.2,0.2,0.2,0.4
				s0.1,0.4,0.1,0.6c0,0.4,0,0.7,0.1,1s0.2,0.6,0.2,0.6h-1.2c-0.1-0.2-0.2-0.3-0.2-0.5s0-0.3,0-0.5c0-0.3,0-0.6-0.1-0.8
				s-0.1-0.4-0.2-0.6c-0.1-0.2-0.2-0.2-0.4-0.3c-0.2-0.1-0.4-0.1-0.6-0.1h-1.7v2.6h-1.1L158.4,22L158.4,22z M159.5,24.9h1.8
				c0.4,0,0.6-0.1,0.8-0.2c0.2-0.2,0.3-0.4,0.3-0.8c0-0.2,0-0.4-0.1-0.5c-0.1-0.2-0.2-0.2-0.2-0.3c-0.1-0.1-0.2-0.2-0.4-0.2
				s-0.2-0.1-0.4-0.1h-1.8L159.5,24.9L159.5,24.9z"/>
		</g>
		<g>
			<g>
				<path class="st0" d="M162,31.6c-4.6,0.9-8.5-3.1-7.7-7.7c0.5-2.5,2.5-4.6,5.1-5.1c4.6-0.9,8.5,3.1,7.7,7.7
					C166.6,29.1,164.6,31.2,162,31.6z M162,19.6c-4.2-0.9-7.8,2.7-6.9,6.9c0.5,2.1,2.1,3.8,4.3,4.3c4.2,0.9,7.8-2.7,6.9-6.9
					C165.8,21.9,164.2,20.1,162,19.6z"/>
			</g>
		</g>
	</g>
	<path class="st0" d="M51.9,78.8L51.9,78.8l0.8,0.8C52.5,79.3,52.3,79,51.9,78.8z"/>
	<path class="st0" d="M53.3,80.1c0.3,0.3,0.6,0.6,0.9,0.9l-1.4-1.4C53,79.7,53.1,79.9,53.3,80.1z"/>
	<path class="st0" d="M27,159.5L27,159.5v0.8c0,1,1.3,1.6,2,0.8l21.7-21.7c0.8-0.8,1.2-1.8,1.2-2.9c0-17.8,0-35.6,0-53.4
		c0-0.3-0.2-0.6-0.4-0.9L32,62.6c-0.5-0.5-0.5-1.3,0-1.7l0.2-0.2c0.5-0.5,1.3-0.5,1.7,0L52,78.8l0,0c0.3,0.3,0.6,0.6,0.8,0.8
		l1.4,1.4c2.6,2.6,5.2,5.2,7.8,7.8c2.4,2.4,4.9,4.9,7.3,7.3c3.5,3.5,6.9,6.9,10.3,10.3c3,3,6,6,9,9c3.4,3.4,6.9,6.8,10.3,10.2
		c3,3,6,6,9,9c3.5,3.5,6.9,6.9,10.4,10.4c2.4,2.4,4.8,4.9,7.3,7.3c1.8,1.8,5.8,5.8,9.3,9.3c0.7,0.7,1.8,0.7,2.5,0l15.1-15.1
		c0.7-0.7,0.7-1.8,0-2.5c-4.3-4.3-9.2-9.2-11.5-11.5c-4.8-4.8-9.6-9.6-14.5-14.5c-3.6-3.6-7.3-7.3-11-11c-4.9-4.9-9.8-9.9-14.8-14.8
		c-4.3-4.3-8.5-8.5-12.8-12.9c-4.8-4.8-9.6-9.6-14.4-14.4C69,60.5,64.5,56,60,51.5c-0.2-0.2-0.6-0.4-0.9-0.4H44.6
		c-1,0-1.7-1.1-1.1-2c0.2-0.3,0.6-0.6,1-0.6h77.8c0.9,0,1.8-0.4,2.4-1L152.4,20c0.6-0.6,0.2-1.4-0.6-1.4H68.6
		c-0.6,0-1.3,0.3-1.6,0.6c-2.2,2.2-4.4,4.4-6.6,6.6c-3.1,3.1-6.2,6.2-9.2,9.2c-2.6,2.6-5.2,5.2-7.8,7.7c-2.8,2.8-5.5,5.5-8.3,8.3
		c-2.3,2.3-4.8,4.8-7.1,7.1c-0.6,0.6-0.9,1.3-0.9,2.1L27,159.5z"/>
</g>
<path class="st1" d="M300.4-16.9"/>
<g>
	<g>
		<rect x="122.3" y="187.8" class="st0" width="10.4" height="7"/>
		<path class="st0" d="M228.3,247.6v-6.8c0-3.6-0.9-6.2-2.5-7.9s-3.9-2.6-6.7-2.6c-1.9,0-3.6,0.3-5,1c-1.4,0.6-2.8,1.6-4.2,3.1
			v-13.7h-10.4V231h-4.7v-10.3l-10.4,5.3v5H182h-1.4h-8.2v4c-1.2-1.6-2.5-2.8-3.8-3.6c-1.4-0.8-3.1-1.1-5.2-1.1
			c-3.2,0-5.9,1.1-8,3.4c-1,1.1-1.7,2.4-2.3,3.9c-0.3-1.9-1.1-3.6-2.2-4.7c-1.6-1.7-3.9-2.6-6.7-2.6c-2.2,0-3.9,0.4-5.4,1.2
			s-2.9,2.1-4.4,3.9V231h-9.6v7.4c-0.1-0.4-0.3-0.8-0.5-1.2c-1.2-2.3-2.9-3.9-5.1-5.1c-2.3-1.2-5.3-1.7-9.2-1.7
			c-2.4,0-4.5,0.3-6.4,1v-8.8c1.1,1.1,2.2,1.8,3.6,2.4c1.3,0.5,2.8,0.9,4.3,0.9c3.2,0,6.1-1.2,8.2-3.6c1.2-1.3,2.1-3,2.6-5v7.9h10.4
			v-8.4c0.4,1.8,1.2,3.5,2.3,4.9c1.9,2.8,4.8,4.2,8.4,4.2c1.8,0,3.5-0.4,5-1.2c1.1-0.6,2.4-1.7,3.7-3.5v4h9.7v-37.4h-10.5v13
			c-1-1.1-2.2-1.9-3.5-2.5c-1.3-0.5-2.8-0.9-4.4-0.9c-3.4,0-6.1,1.2-8.2,3.6c-1.2,1.3-2.1,2.9-2.6,4.9V198h-10.4v8.5
			c-0.5-1.8-1.3-3.6-2.3-5c-1.9-2.8-4.8-4.1-8.4-4.1c-1.8,0-3.5,0.4-5,1.2c-1.1,0.6-2.4,1.7-3.7,3.5v-4h-9.7v25.8
			c-0.2-0.6-0.4-1.2-0.5-1.6c-0.1-0.8-0.2-1.7-0.2-3v-12c0-1.3-0.2-2.6-0.8-4c-0.5-1.4-1.2-2.5-2.1-3.2c-1.3-1.1-2.8-1.8-4.8-2.2
			c-1.8-0.3-4.4-0.5-7.5-0.5c-1.9,0-3.8,0.1-5.4,0.4s-2.9,0.6-3.9,1.2c-1.3,0.8-2.4,1.6-3,2.6c-0.8,1-1.3,2.4-1.6,4.1l9.9,1.1
			c0.4-1.2,1-1.9,1.6-2.4c0.9-0.5,2.2-0.9,3.8-0.9c1.3,0,2.3,0.2,2.8,0.8c0.5,0.5,0.8,1.4,0.8,2.7c-1.3,0.5-2.5,1-3.7,1.2
			c-1.2,0.3-3.7,0.9-7.6,1.6c-3.2,0.6-5.5,1.6-6.7,2.9c-1,1.1-1.6,2.5-1.7,4.1l-1.4-2.7c-0.3-0.5-0.9-1.3-1.6-2.3s-1.4-1.6-1.8-1.9
			c-0.6-0.4-1.6-0.9-3-1.4c1.7-0.4,3-0.9,4-1.5c1.5-1,2.8-2.2,3.7-3.7s1.3-3.2,1.3-5.4c0-2.4-0.5-4.4-1.7-6.1
			c-1.2-1.6-2.7-2.8-4.5-3.4c-1.8-0.6-4.7-0.9-8.2-0.9H30.1V225h1.1c-0.1,0.1-0.1,0.2-0.2,0.3c-1.1,1.7-1.6,3.6-1.6,5.4
			c0,2.9,1.1,5.3,3.2,7.2c2.2,1.8,5.7,3.4,10.8,4.5c3.1,0.6,5.1,1.4,5.9,2.2c0.9,0.8,1.3,1.6,1.3,2.6s-0.4,1.9-1.3,2.7
			c-0.9,0.8-2.2,1.2-3.8,1.2c-2.2,0-3.9-0.8-5.1-2.3c-0.8-1-1.2-2.3-1.4-4.1l-11.1,0.9c0.3,3.8,1.7,6.9,4.1,9.3s6.8,3.7,13.2,3.7
			c3.6,0,6.6-0.5,9-1.5c2.4-1.1,4.2-2.6,5.5-4.7c1.3-2.1,1.9-4.2,1.9-6.6c0-2.1-0.5-3.9-1.5-5.5s-2.6-3-4.8-4.1s-5.8-2.2-10.8-3.4
			c-2.1-0.4-3.4-0.9-3.9-1.4c-0.5-0.4-0.9-1-0.9-1.6c0-0.9,0.3-1.5,1-2.1s1.7-0.9,3-0.9c1.6,0,2.9,0.4,3.8,1.2
			c1,0.8,1.5,1.9,1.8,3.7l9.5-0.5v7.4h3.8v9.5c0,3,0.3,5.2,0.9,6.6c0.5,1.3,1.5,2.4,2.7,3c1.2,0.6,3.1,1,5.7,1
			c1.8,0,3.9-0.2,6.1-0.6h10.3V249c0-4.3,0.5-7.2,1.6-8.9c0.8-1.1,1.8-1.7,3.1-1.7c0.6,0,1.4,0.2,2.4,0.5c-0.6,1.6-1,3.6-1,5.6
			c0,3,0.6,5.5,2.1,7.8c1.3,2.2,3,3.8,5.1,4.9c2.1,1,4.9,1.5,8.4,1.5c4.1,0,7.2-0.5,9.5-1.7c1.9-1,3.6-2.6,5-4.8v5.9H135v-13
			c0-2.5,0.4-4.2,1.2-5.1c0.8-1,1.8-1.4,3-1.4s2.1,0.3,2.7,1.1c0.6,0.8,1,1.9,1,3.6v14.9h10.4V250c0.3,0.9,0.8,1.7,1.3,2.5
			c2.3,3.1,5.2,4.8,8.8,4.8c1.8,0,3.6-0.4,5.2-1.3c1-0.5,2.1-1.4,3-2.6v4.1c0,1.9-0.3,3.4-1.1,4.2c-0.8,0.8-1.8,1.2-3.4,1.2
			c-1.2,0-2.2-0.2-2.9-0.8c-0.5-0.3-0.9-1-1.2-1.9l-10.1-1.2c0,0.5,0,1.1,0,1.4c0,2.7,1,4.9,3,6.6c2.1,1.6,5.7,2.5,11.2,2.5
			c2.4,0,4.5-0.2,6.4-0.6c1.8-0.4,3.4-1.1,4.5-2.1c1.2-1,2.2-2.2,2.9-3.8c0.8-1.5,1.1-3.1,1.1-4.9v-1.2v-18.4h2.4v9.5
			c0,3,0.3,5.2,0.9,6.6c0.5,1.3,1.5,2.4,2.7,3s3.1,1,5.7,1c1.8,0,3.9-0.2,6.1-0.6H210v-13c0-2.5,0.4-4.2,1.2-5.1
			c0.8-1,1.8-1.4,3-1.4s2.1,0.3,2.7,1.1s1,1.9,1,3.6v14.9H228h0.3H239v-10.5H228.3z M143.6,206.7c0.9-1,1.8-1.5,3-1.5
			c1.4,0,2.5,0.5,3.5,1.5c0.9,1.1,1.3,2.6,1.3,4.8c0,2.4-0.4,4-1.3,5.1c-0.9,1.1-1.9,1.5-3.4,1.5c-1.2,0-2.3-0.5-3.1-1.5
			c-0.9-1.1-1.3-2.6-1.3-4.9C142.4,209.4,142.9,207.8,143.6,206.7z M45.2,220c-1.3,0-2.4,0.1-3.6,0.1V210h1c1.1,0,1.9,0.3,2.8,0.9
			c0.6,0.4,1.3,1.4,2.1,2.9l3.7,6.8C49.5,220.3,47.5,220,45.2,220z M51.5,201.3c-0.4,0.6-1.1,1-1.8,1.2c-1.5,0.3-2.5,0.5-3,0.5h-4.9
			v-7.6h5.1c2.1,0,3.6,0.3,4.3,1c0.8,0.6,1.2,1.6,1.2,2.8C52.2,199.9,51.9,200.7,51.5,201.3z M63,226v5h-2.5c-0.3-2.3-1-4.2-1.9-5.7
			h5.9L63,226z M73.9,215.4c0.5-0.5,1.9-1.1,4-1.6c1.5-0.4,3-0.9,4.4-1.3v1.6c0,1.3-0.2,2.4-0.6,3.1c-0.4,0.8-1.1,1.5-2.2,2.1
			c-1,0.5-2.1,0.9-3.2,0.9s-1.9-0.2-2.5-0.8c-0.5-0.5-0.9-1.2-0.9-2.1C72.9,216.6,73.2,215.9,73.9,215.4z M78.2,250.8
			c-1.1,0.3-1.9,0.5-2.6,0.5c-0.9,0-1.4-0.3-1.8-0.9c-0.2-0.3-0.3-1.2-0.3-2.3v-9.6h4.8L78.2,250.8L78.2,250.8z M93.2,230.4
			c-0.9,0.1-1.7,0.4-2.4,1c-1,0.8-1.9,2.1-2.9,4V231h-8.8h-1h-4.8v-5.2c2.1-0.1,3.8-0.4,5.4-1.1c1.3-0.5,2.7-1.5,4-2.8
			c0.1,0.8,0.2,1.4,0.3,1.7c0.1,0.3,0.3,0.9,0.8,1.6H93L93.2,230.4z M104.9,206.7c0.9-1.1,1.9-1.5,3.4-1.5c1.2,0,2.3,0.5,3.1,1.5
			c0.9,1.1,1.3,2.6,1.3,4.9c0,2.4-0.4,4.1-1.2,5.1c-0.9,1-1.8,1.5-3,1.5c-1.4,0-2.5-0.5-3.5-1.5c-0.9-1.1-1.3-2.6-1.3-4.8
			C103.6,209.4,104,207.7,104.9,206.7z M106.5,238.4c1-1.3,2.3-1.9,4-1.9c1.4,0,2.6,0.4,3.5,1.3c0.9,0.9,1.4,2.3,1.6,4.3h-10.3
			C105.5,240.5,106,239.3,106.5,238.4z M124.9,251l-9.6-0.9c-0.6,0.8-1.2,1.3-1.7,1.6c-0.9,0.5-1.8,0.8-2.9,0.8
			c-1.6,0-2.9-0.5-3.9-1.7c-0.8-0.9-1.2-2.1-1.3-3.7H125L124.9,251L124.9,251L124.9,251z M170.5,248.4c-0.9,1-1.9,1.5-3.2,1.5
			c-1.4,0-2.5-0.4-3.2-1.4c-0.9-1-1.3-2.4-1.3-4.3c0-2.3,0.4-3.8,1.2-4.8s1.8-1.4,3.1-1.4s2.5,0.5,3.4,1.5c0.9,1.1,1.4,2.6,1.4,4.5
			C171.8,245.9,171.4,247.4,170.5,248.4z M199.7,250.9c-1.1,0.3-1.9,0.4-2.5,0.4c-0.9,0-1.4-0.3-1.8-0.9c-0.2-0.3-0.3-1.2-0.3-2.3
			v-9.6h4.7L199.7,250.9L199.7,250.9z"/>
	</g>
	<g>
		<path class="st0" d="M165.6,195.3c0-4.2,3.1-7.4,7.2-7.4c4.1,0,7.2,3.1,7.2,7.4c0,4.3-3.1,7.4-7.2,7.4
			C168.8,202.6,165.6,199.5,165.6,195.3z M179,195.3c0-3.7-2.6-6.5-6.2-6.5s-6.2,2.7-6.2,6.5s2.6,6.5,6.2,6.5
			C176.4,201.7,179,199,179,195.3z M170,191.2h3.6c1.5,0,2.5,0.9,2.5,2.2c0,1-0.4,1.6-1.5,1.9l0,0c0.8,0.2,1.2,0.8,1.2,1.8
			c0.1,1.2,0.1,1.8,0.3,1.9v0.1h-1.2c-0.2-0.1-0.3-0.8-0.3-1.8s-0.5-1.5-1.6-1.5h-1.7v3.4H170V191.2z M171.2,194.7h2.1
			c1,0,1.5-0.5,1.5-1.3s-0.4-1.3-1.5-1.3h-2.2L171.2,194.7L171.2,194.7z"/>
	</g>
</g>
</svg>
