<?xml version="1.0" encoding="utf-8"?>
<!-- Generator: Adobe Illustrator 28.1.0, SVG Export Plug-In . SVG Version: 6.00 Build 0)  -->
<svg version="1.1" id="Layer_1" xmlns="http://www.w3.org/2000/svg" xmlns:xlink="http://www.w3.org/1999/xlink" x="0px" y="0px"
	 viewBox="0 0 250 250" style="enable-background:new 0 0 250 250;" xml:space="preserve">
<path style="fill:#FFFFFF;" d="M-2-2v253.9h253.9V-2H-2z M241.5,193.6L56.3,8.4h4.5l180.7,180.7V193.6z M241.5,165.7L84.1,8.4h4.5
	l152.9,152.8V165.7z M241.5,137.8L112,8.4h4.5l125,125V137.8z M241.5,110L139.9,8.4h4.5l97.1,97.1V110z M241.5,82.1L167.8,8.4h4.5
	l69.2,69.2V82.1z M241.5,54.2L195.6,8.4h4.5l41.4,41.4V54.2z M241.5,26.4l-18-18h4.5l13.5,13.5V26.4z M241.5,10.6l-2.2-2.2h2.2V10.6
	z"/>
<polygon style="fill:none;" points="241.5,26.4 223.5,8.4 200.1,8.4 241.5,49.8 "/>
<polygon style="fill:none;" points="241.5,82.1 167.8,8.4 144.3,8.4 241.5,105.5 "/>
<polygon style="fill:none;" points="241.5,137.8 112,8.4 88.6,8.4 241.5,161.3 "/>
<polygon style="fill:none;" points="241.5,110 139.9,8.4 116.5,8.4 241.5,133.4 "/>
<g>
	<g>
		<g>
			<path d="M210.3,49.6h3.8c0.9,0,1.5,0.2,2,0.6c0.4,0.4,0.7,0.9,0.7,1.6c0,0.4-0.1,0.7-0.2,1c-0.1,0.3-0.2,0.5-0.4,0.6
				c-0.2,0.2-0.3,0.3-0.4,0.3c-0.2,0.1-0.3,0.1-0.3,0.1v0c0.1,0,0.3,0.1,0.4,0.1s0.3,0.2,0.4,0.3c0.1,0.1,0.2,0.3,0.3,0.5
				c0.1,0.2,0.1,0.5,0.1,0.8c0,0.5,0,0.9,0.1,1.3c0.1,0.4,0.2,0.7,0.3,0.8h-1.5c-0.1-0.2-0.2-0.4-0.2-0.6c0-0.2,0-0.4,0-0.6
				c0-0.4,0-0.7-0.1-1c-0.1-0.3-0.1-0.5-0.3-0.7c-0.1-0.2-0.3-0.3-0.5-0.4c-0.2-0.1-0.5-0.1-0.8-0.1h-2.1v3.3h-1.4L210.3,49.6
				L210.3,49.6z M211.7,53.3h2.3c0.5,0,0.8-0.1,1-0.3c0.2-0.2,0.4-0.5,0.4-1c0-0.3,0-0.5-0.1-0.6c-0.1-0.2-0.2-0.3-0.3-0.4
				c-0.1-0.1-0.3-0.2-0.5-0.2c-0.2,0-0.3-0.1-0.5-0.1h-2.3L211.7,53.3L211.7,53.3z"/>
		</g>
		<g>
			<g>
				<path d="M214.9,61.8c-5.8,1.1-10.8-3.9-9.7-9.7c0.6-3.2,3.2-5.8,6.5-6.5c5.8-1.1,10.8,3.9,9.7,9.7
					C220.7,58.6,218.1,61.2,214.9,61.8z M214.9,46.6c-5.3-1.2-9.9,3.4-8.7,8.7c0.6,2.6,2.7,4.8,5.4,5.4c5.3,1.2,9.9-3.4,8.7-8.7
					C219.7,49.4,217.6,47.2,214.9,46.6z"/>
			</g>
		</g>
	</g>
	<path style="fill:none;" d="M75.4,121.5C75.4,121.5,75.4,121.5,75.4,121.5l1,1C76.1,122.2,75.8,121.8,75.4,121.5z"/>
	<path style="fill:#FFFFFF;" d="M77.1,123.2c0.4,0.4,0.8,0.8,1.2,1.2l-1.8-1.8C76.7,122.7,76.9,122.9,77.1,123.2z"/>
	<path d="M43.8,223.8L43.8,223.8v1c0,1.3,1.6,2,2.5,1l27.5-27.5c1-1,1.5-2.3,1.5-3.7c0-22.5,0-45.1,0-67.6c0-0.4-0.2-0.8-0.5-1.1
		L50.1,101c-0.6-0.6-0.6-1.6,0-2.2l0.2-0.2c0.6-0.6,1.6-0.6,2.2,0l22.9,22.9c0,0,0,0,0,0c0.4,0.4,0.7,0.7,1,1l1.8,1.8
		c3.3,3.3,6.6,6.6,9.9,9.9c3.1,3.1,6.2,6.2,9.3,9.3c4.4,4.4,8.8,8.7,13.1,13.1c3.8,3.8,7.6,7.6,11.4,11.4c4.3,4.3,8.7,8.6,13,12.9
		c3.8,3.8,7.6,7.6,11.4,11.4c4.4,4.4,8.8,8.8,13.2,13.2c3.1,3.1,6.1,6.2,9.2,9.2c2.3,2.3,7.3,7.3,11.8,11.8c0.9,0.9,2.3,0.9,3.2,0
		l19.1-19.1c0.9-0.9,0.9-2.3,0-3.2c-5.4-5.4-11.6-11.6-14.6-14.6c-6.1-6.1-12.2-12.2-18.4-18.4c-4.6-4.6-9.3-9.3-13.9-13.9
		c-6.2-6.2-12.4-12.5-18.7-18.7c-5.4-5.4-10.8-10.8-16.2-16.3c-6.1-6.1-12.2-12.2-18.3-18.3c-5.7-5.7-11.4-11.3-17.1-17
		c-0.3-0.3-0.7-0.5-1.1-0.5H66.1c-1.3,0-2.2-1.4-1.4-2.5c0.3-0.4,0.8-0.7,1.3-0.7l98.6,0c1.2,0,2.3-0.5,3.1-1.3l35-35
		c0.7-0.7,0.2-1.8-0.7-1.8l-105.5,0c-0.7,0-1.6,0.4-2,0.8c-2.8,2.8-5.6,5.6-8.4,8.4c-3.9,3.9-7.8,7.8-11.7,11.7
		c-3.3,3.3-6.6,6.6-9.9,9.8c-3.5,3.5-7,7-10.5,10.5c-2.9,2.9-6.1,6.1-9,9c-0.7,0.7-1.1,1.7-1.1,2.7L43.8,223.8z"/>
</g>
<polygon style="fill:none;" points="241.5,54.2 195.6,8.4 172.2,8.4 241.5,77.6 "/>
<polygon style="fill:none;" points="241.5,165.7 84.1,8.4 60.7,8.4 241.5,189.1 "/>
<polygon style="fill:none;" points="241.5,10.6 239.2,8.4 228,8.4 241.5,21.9 "/>
<path style="fill:none;stroke:#000000;stroke-width:22;stroke-miterlimit:10;" d="M300.4,48.1"/>
</svg>
