<?xml version="1.0" encoding="UTF-8"?><svg id="Layer_1" xmlns="http://www.w3.org/2000/svg" viewBox="0 0 259.396982013880915 259.336255931510095"><path d="m130.699908580723786,259.336255931510095c-1.192251376640343-.006803306509028-2.384502753279776-.013606613016236-3.576801977711511-.020391126477989-.092777410561212-.039833343313148-.185002936585988-.112979001838539-.278325911373031-.114402392026022-1.111342087935554-.016989156732961-2.222865551791074-.023287855026865-3.33433329062882-.032392747945778-2.230612378713886-.158413090135582-4.461474618319698-.313505711656035-6.691711370351186-.47703314438877-.777867382600562-.057021933405849-1.556737659482678-.113954674985507-2.330611455652615-.208162204748078-1.047313327107076-.127476014889908-2.090806922258707-.287232035730995-3.134906912492625-.440080496329756-.767917629355907-.112441466721066-1.536615024260755-.222310370143532-2.300735838437504-.357256816078007-1.961650809237653-.346450369204831-3.925176159613329-.684702840237151-5.879702753622041-1.068261960703239-1.297513207110569-.254627969996363-2.572348746837633-.629299139340219-3.873282908221881-.860465174271667-.940903179294764-.167209818715492-1.877787393816106-.320686367442249-2.790860854369384-.612069265529499-1.389331167290948-.443373921281818-2.769491277316774-.933657153815147-4.185790296410232-1.267038060181221-.75456590389058-.177595813087464-1.421153520785083-.605932298116386-2.182440259292889-.685722960821295-.767745233580172-.0804610732539-1.459221892899222-.393865780046326-2.15482316741145-.650649922310549-3.691641158390667-1.362789219590923-7.370270796614932-2.762268547927306-10.963594611240296-4.374378271679234-.771858994505237-.346287405467592-1.572376468868242-.628241643820729-2.352333563351749-.957244015289689-.248535008307044-.104861034047644-.46551417460978-.282475845551744-.710381242907715-.398387387054754-.763335874255063-.361316911574249-1.547164468755-.681828393257092-2.296985773015876-1.068682465884194-1.047643188104303-.540498100739569-2.078040866200354-1.115445157756767-3.104616922990317-1.695485017395185-1.996952474500176-1.128321878626593-4.034964474318258-2.193724554723303-5.967135635276463-3.42464353827927-2.961329630270484-1.886522539114594-5.878954736113883-3.846009299511934-8.757101210374458-5.857561722847095-3.075921527694845-2.149812870315145-5.985380710901154-4.520760333551152-8.828190385863309-6.97170723567433-.656476958884014-.566003903768433-1.371279095149475-1.066542721984661-2.007522394594162-1.653287847517277-1.019917077962418-.940553090003959-1.998385418070029-1.926114532790962-2.991103577857757-2.896033133130913-.830784328801201-.811720898991553-1.667839584672038-1.617466975247225-2.482097565154618-2.445561079755862-.904828150487447-.920187899824668-1.788999886959573-1.860789812697476-2.678484281968849-2.796002768953258-.904492477696294-.950981405501807-1.860540072813819-1.859709620619469-2.697005615883427-2.867465826378975-4.074098043911363-4.908392590999938-8.06117417128371-9.887798530708096-11.449338616736895-15.306455502797689-1.804939848564572-2.886614072936936-3.554630996842207-5.811162519679783-5.225664901080563-8.776954695120367-1.162998658794095-2.064121908337256-2.201701262538336-4.203319903885131-3.204171039598805-6.351799298072365-1.888328971891497-4.046982144884169-3.629858046537265-8.160480082753566-5.034161729970947-12.40244118586088-1.07533374571176-3.248240535591322-2.123984648381338-6.510480643621122-3.020953053181984-9.810949674087169-.754206765815979-2.775154070342978-1.30592741782857-5.607540737972158-1.887434335792932-8.426920930387496-.839919807517617-4.072293587612876-1.35156467840261-8.195764073239843-1.75822530984442-12.33053000363725-.173144198825867-1.760460137469636-.240271374670556-3.531359664322736-.357264053310246-5.297416012067515-.013762707500064-.207751112726328-.038240513902565-.414795971400054-.057771384754233-.622172658574527-.008751141080211-.069521411917776-.01747859693387-.139014037591551-.026208379542368-.20851622387454-.033874878438837-1.443471678981041-.067752083631603-2.886952918572206-.10164122094011-4.330434232745574-.008739508136387-.068328081149048-.017467143826252-.136646542021481-.026194779516118-.204965002893914.068663685357933-2.916752633635042.045948140551445-5.839307697281583.230457497552379-8.748711242431455.204090181466199-3.218191795961502.552581493832804-6.429543327672036.919650268435362-9.634535610578496.550798730495444-4.809186401384068,1.499623394794071-9.550475217447456,2.668231725318947-14.244779129739982,3.623210373806614-14.554402708427006,9.606073052700594-28.070125908702721,17.921910398052205-40.552328947184833.978073562120699-1.468094605585975,1.941045818834937-2.94773410961534,2.967119597564306-4.38188357479703.815490240215695-1.139824149924607,1.721134448351222-2.214892261615205,2.578641967100339-3.324980299012168.784269444132406-1.015295197707928,1.517285088664721-2.073195061396291,2.345393779825827-3.050905439044072,1.216603456271514-1.436404645281982,2.500944350563259-2.815309962998072,3.750067273189416-4.224352784620351.688467189015682-.77661715335762,1.352433467624905-1.57522885067192,2.051008642227316-2.34247540893557.274140487699697-.301078040331049.63237685011336-.524240475834631.918264169679787-.816219285989973.979099353396123-.999944420565043,1.93252976408985-2.025155440178423,2.9178946959737-3.018765066820379.415370869219259-.418852828617673.948429179214145-.731371460255104,1.319944718226907-1.181418119320369,1.199957662098313-1.45361046805283,2.728914659222937-2.548170279004808,4.083536592183918-3.831328381724234.51380444885308-.486706694282475,1.119727851426433-.874818588402377,1.667342518343503-1.327616336744541.432625139429547-.35772653298136.822876783371612-.767615110467887,1.262524979350928-1.115723041601996.994006466244173-.78705037180589,2.008854200563292-1.54772833937659,3.011569968812182-2.323851304309756.937400530457126-.725555248610362,1.851562843656211-1.48268617015583,2.80992616880576-2.179166718665329,1.014966113941227-.737618708960326,2.069806957678338-1.420389456283374,3.107596976144123-2.126583046065207,1.013391547004176-.689597527930346,2.014119436036708-1.398920013553834,3.044495672425001-2.062150151543392,1.077590173493263-.693630386718723,2.183996639107136-1.342448026357488,3.277564551979594-2.011263779744695.966769676724653-.591270943359632,1.91807342899574-1.209823365007651,2.903849179493591-1.767473593426075,1.073681299194504-.60738226266858,2.180804050889492-1.155458193498816,3.270264134324862-1.735213363957882.724454966794838-.385514276036702,1.435280599506768-.797382128149366,2.166768776800382-1.168793475101666,1.263843520792761-.641719289180401,2.512586129667397-1.323299487982695,3.815035420258937-1.876679220818914,2.507661931269467-1.065455269593258,4.940931432243815-2.305018458149789,7.526420091369801-3.191418572667317.98753741247765-.338564197442793,1.917215469291477-.846541313106172,2.905667296899082-1.181730034041721,1.952595575599844-.662133621388421,3.925553440109979-1.264792081039559,5.894304019328956-1.878545501001099,1.77562013584884-.553550793272734,3.548554092732047-1.118721618444397,5.338730073623083-1.621570579956824,1.090997382202659-.306448895907124,2.2136451818551-.499192474468146,3.319852749720667-.752718375044424,1.829795357513831-.419366789219566,3.641856611306139-.942980059933689,5.490194809360219-1.248508677251266,2.982494249731644-.493002428840555,5.986648818137837-.857768439712345,8.985297286736568-1.24881338537125,1.079843270269521-.140822803741685,2.170566166059871-.197188005755379,3.255557146695537-.300212015126817.433486318192081-.041159334122312.864875821867827-.104230446681868,1.297243498108401-.15732696716168.372593620248153-.039895648204947.745168149113852-.079791415745603,1.117742692896172-.119689569708498.254561389237097-.007074246028424.509113247697314-.014150938146486.763693743233489-.021227451261439.475901449095545-.039946761785359.951793352498498-.079893583239937,1.427685255902361-.119840404692695.357512806563136-.00813947027018.715035158817955-.01627888087296,1.072567041847833-.024415845384283.684961429202303-.038606573519246,1.369913312712924-.077213206707711,2.054865196223545-.115819839894357.620638722440162-.012432393858944,1.241286990571098-.024864728049579,1.861944819309429-.037299388996871.310519224299242.003807226761637.621019342297586.007616720611622.931519460295931.011426214462517,1.832083082935242.016415806266195,3.66415662018062.032831552863172,5.496239703116771.049247359129367.619094642361233.014675937070024,1.238179753947406.02934942804859,1.857303003550442.0440303169662.684200575671639.046463196864352,1.368382074878355.092923887971665,2.052554028393388.139384519409759.357866563342213.013152851181076.715733126685336.026305702361242,1.073628297269352.039463505390813.372769589225754.041910450931027.745501010602311.083818276769307,1.118241992587173.125723775851839,1.702789011112145.169483023404609,3.407770547421023.319603627393008,5.107760967537615.513776758847598,1.774339344154214.202668493054261,3.54961987479146.410538314779842,5.313832873652245.684660239058758,1.812297564959408.28159158221024,3.623456352220273.592647133667015,5.413972133248535.986877382628336,2.588632964167118.569957584293661,5.161750234136889,1.212227469484787,7.73501181158008,1.849737157064737,2.938901454245752.728098685510304,5.808439911640562,1.688537423579874,8.675405860960382,2.654296331621481.733159550681194.246971676006069,1.446510622765345.562730187266425,2.191771222098396.761369410867701,1.05201824240612.280402351621888,1.973357365488482.874366017258581,3.010379533669948,1.17754938941107.705329862496001.206203081176682,1.358791523668515.536817985837843,2.035411818216744.812472991845425.885471744741153.36075344670553,1.799685094440065.653038413471222,2.676099141955092,1.033402522236429.700765593389406.304143423983987,1.360876854330854.701068672813562,2.043601268546809,1.047832283752541,2.689446655250322,1.365992083902711,5.384924063290782,2.720144173722474,8.069944419819876,4.094807441255398,2.166742956193957,1.109326911337121,4.203804725943883,2.442815321483067,6.2913012055933,3.688797578960475,1.358605496397104.810929676856176,2.661662313215857,1.70893021912525,3.965526638756273,2.602974192169313,1.298408368968012.890286904214008,2.554621455446977,1.841929903149321,3.848404275551729,2.739166067420229,2.399996834206831,1.664370740681079,4.636428184457145,3.533899750801538,6.874538711226705,5.403577674932421,1.073785564820355.897020868129403,2.130219167400355,1.811922832297569,3.181599722420287,2.734969415432715,1.002524752673708.880132340191267,1.932883039939043,1.833284872393961,2.924981056648903,2.722969697817462,1.026461976603059.92052817293461,1.968631818693211,1.935803954800576,2.93719077748392,2.919928823464033.95028920482855.965572445941689,1.913552563503799,1.920286199941074,2.824917275868756,2.921814015822747,1.967199919781706,2.16182671815568,3.915330100366191,4.341452199512787,5.703244430043014,6.657677961029549,1.366980992816025,1.770958134863577,2.78214171160198,3.506672657146737,4.098201902030269,5.31461851975655,3.701887091036042,5.08560360854699,7.024597334880127,10.410595940740677,9.916866322976603,15.999738841026556.650270145933973,1.256594230575502,1.308940025247466,2.51026259349419,1.909727556168036,3.790622696223181.58595945568868,1.248774949884137,1.091746589933791,2.5349180020321,1.65365369859137,3.795312904693674.409324251768339.918073884439764.894951057543949,1.803938990743518,1.270401757327818,2.734888795173902.498858608832961,1.236966150157969.909405346216772,2.509254396999495,1.385465137757819,3.755834115811012.294111024788435.77022022672827.673151283306652,1.508705625182301.953067443870168,2.283486057058326.323024476210776.894175228349923.569222462733705,1.815802019766124.866583996538793,2.719639736352292.324397676399713.986036043874265.694229155938046,1.957674234980914.998504987604974,2.94961761540435.348956900145822,1.137676053465839.644105083235445,2.291759560309401.970278858646452,3.436538665571788.109982432304605.38602390736196.284318645921303.757701403141255.357761777842825,1.149348650781576.189346767013376,1.00938160467831.569340420251137,1.967976570294013.760265270511809,2.975353819545489.074855056692286.39484445871949.134357775231365.793105905865559.223801395424744,1.184547694141656.216612230032297.947989464106286.467349835298592,1.888631753610753.663871424489116,2.840590898233131.126474656940445.612588282435354.162109218773367,1.243462225424082.274605699459244,1.859542908247931.078418796090773.429480764339132.238036298005682.843708527300805.325588173916913,1.272062668044782.116101088250616.567819220317688.199512354375656,1.142402732493792.292980067801182,1.714748503254668.154534272464844.946446357890636.336466770041625,1.889675121754408.452672462536611,2.840884035889758.308967613491404,2.529080003299896.630786830417492,5.057743943126297.871399293069771,7.593785330856917.428348702950643,4.514748946685359.518655881217455,9.044176415143738.459965133629339,13.577130550208494-.010602033759824.071195100602381-.021280373384798.14238017817388-.031977744725737.213555590719807-.095380574896808,2.329903605391337-.190780241176981,4.659807091447874-.286199058507918,6.989720003861294l-.035693390957931.194058393771229c-.150077538321966,1.55377214480086-.289852293281001,3.1086587565851-.457349166075801,4.660546449883441-.043430444972728.402515171008417-.183931138086336.793751082273957-.259403126839061,1.194004020394459-.032858067467714.17418211831864.001357731872304.360066945289873-.02151458985827.537213485376014-.0819153812472.633881227546226-.171366488680178,1.266856205516888-.265471239486033,1.899057501803327-.07718588453281.518670700445-.145090017795155,1.039919579601701-.252594923359538,1.552596756919229-.180217792568328.859432124592786.014920057155905,1.773141085697716-.435962215949075,2.601288560521425-.155515153748638.285619863660031-.04104659778659.662564867086985-.163123487449411,1.023273073684322-.224916067161757.664527566079414-.222298341037458,1.403352039895253-.344622355001775,2.105979637834025-.147750859394364.848618908194112-.308228749780028,1.696050919705158-.499415601414512,2.535730494822928-.113133988373193.49691007725778-.316423557539565.97284713074805-.439856391222747,1.468012725385051-.067033382553745.268932746754217-.01825833683597.566062953930668-.080473891014663.836992304894011-.130378212377764.567805915596182-.305900736653712,1.125077173179307-.451017375106858,1.689717130138888-.119795188098578.466053743904922-.184256878999804.949712646946864-.340453239395174,1.402346195976861-.360031310701743,1.043310888037013-.540342223121115,2.134501782989901-.887463584447687,3.180279883716139-.276603723181324.833360742450168-.534154727971327,1.673026428015874-.805995510222601,2.508001589008927-.387292718917706,1.189577112872939-.774052549801127,2.379424846489201-1.172986236688303,3.565110769064631-.177221396455934.526675047936806-.374222177205411,1.047231531854777-.579559684656488,1.563688373844343-.197559902481771.496993301969269-.510935870677713.967010992026189-.610273960400264,1.480426534524668-.315711928528799,1.631759130725186-1.240783754950826,3.018594822982777-1.761080796897659,4.573012106397073-.531309333649006,1.587396923659981-1.398277912125195,3.061865924601079-2.108798373244099,4.59015985287806-.301335162591386.648184332014353-.558222021197253,1.317456918754033-.870899608841682,1.959804529435132-.60351985059242,1.239850652398673-1.18127398276647,2.496357958641966-1.861051945818872,3.694111101383896-1.506697341498693,2.654869537511331-3.067615262348227,5.279024579895122-4.611486255585078,7.912717689647252-.403480653679253.688307543498013-.804916144905292,1.379300768790927-1.243538887617433,2.045184502772827-.837172747490513,1.270942231461959-1.681765954635011,2.537809640460182-2.55585771956703,3.783491320235044-5.248594506512745,7.479620610734855-11.215297209879282,14.335499322460237-17.903397432261045,20.562403423335127-8.297424360740479,7.725218295523518-17.433670380040894,14.27898883699163-27.444739948497954,19.602340105837357-2.266284188439386,1.205076516464032-4.532252903947665,2.426879709757486-6.875311299263558,3.467780418564871-3.982067880527211,1.769043790849537-8.016004696664822,3.421320469084094-12.147757583478779,4.824272562811529-6.376290713016715,2.165074413822367-12.873895489878123,3.863256199931129-19.51029957506762,4.990193039160658-3.097568330736067.526004604706031-6.223205541749849.905950801734434-9.34737686632343,1.249917498689683-2.453518906070713.270148324118054-4.924144175658512.386020780339095-7.387678830973528.563318752398118-.336850885621971.024260666763439-.676672121968295.007531058106906-1.015180004287686.009768142839675-1.111818904062602-.004849543214732-2.223601651831814-.012429034857632-3.335335485574433-.00950754987025-.093352448318001.000237440794081-.186517613993601.071307850370431-.279763416806418.109462925724074Zm-2.452669111861724-5.780619308154201c.694678150122854.005869614373296,1.3895753649158.024035929054662,2.083936491863824.011899684273885.298690657378756-.005197053673328.596285037838243-.073252248135759.894369091481167-.112742556982994.724195823750051-.006546683740453,1.448391766834902-.013112458864271,2.172587590584953-.019659142606542.736264942497655-.039080599082808,1.472529765659601-.07814210678589,2.208794708156347-.117222705870518.357500948756751-.007769634392389.714992351820911-.015539328453087,1.072493419911552-.023328054228841.476409503856303-.04028485787785.952809462021833-.08056977542401,1.429218965879045-.120854633300041.466805102879334-.035533675898478.933529783947961-.071946092419239,1.40043332600726-.106429085913987,3.978059525606113-.293934600491411,7.928050942528898-.810410672114813,11.853584762829087-1.513111509546434,6.653281153074204-1.191019082552884,13.166999536704679-2.892231256028026,19.539714871073556-5.166439535098107,3.314206845813715-1.182717954408872,6.572468987763386-2.486848793143508,9.776074629085997-3.929109168886498,1.716534970635621-.772735007611118,3.376428166593541-1.671431183418463,5.060195814028702-2.516634718447676,1.213714715794595-.609260991481278,2.45302330755203-1.174373737678252,3.630687810954441-1.847093200065501,2.214671394010111-1.265081128862221,4.398203350437143-2.58511312749215,6.582993187884313-3.901738864507934.575427781621329-.34676281454631,1.105104550507349-.768881856962253,1.660790076593912-1.149083839864034,1.502944700833723-1.028243613987797,3.015993386196897-2.041894960646459,4.5105178413678-3.082257432752158.955288187516999-.664964346486158,1.902588789310357-1.344068612308547,2.821431085019867-2.058060253551957,1.326300010554405-1.030607852382673,2.633703149829671-2.086344512792493,3.928537010140644-3.1562879157118.586388841516964-.484558562558959,1.110166353787463-1.044158715403682,1.685740891551177-1.542683945051976.772967511310526-.669483290226708,1.582690915735839-1.296772330097156,2.350500774721695-1.971920037425662.754122283199649-.663167039187101,1.486810927892293-1.351860585622489,2.208583007594825-2.050378446389004,1.04865938511648-1.014874010452331,2.088956393166882-2.038907237318199,3.112989105419729-3.078564028650362.488383115612123-.49584366972158.919988975707383-1.047103938293731,1.396990652604472-1.554760409549999.793035545553721-.84393627684949,1.601939002596737-1.67297696782407,2.404009181012952-2.508398958552789.018025858891633-.018788532848703.03455232932447-.038999255504677.051667291245394-.05867172004946.48251136536237-.555256893239857.979877011113786-1.098392895222787,1.444627673371542-1.668118086698087,1.099828829813305-1.348208208419237,2.191661716000453-2.703110458154697,3.271961742865642-4.066981728710743.633339196579072-.799609781315667,1.237592091240003-1.622216467196267,1.856321854026646-2.433411029687704.727299220713576-.953554153900768,1.48020056929181-1.88871529278731,2.177449133466325-2.863706824604378.710865626291707-.994017636268836,1.379274067840015-2.019172633239577,2.04499181774554-3.044535370279846.789480762181483-1.215987720115663,1.567421624275084-2.439818069460671,2.329765310514631-3.672986502881031.734878193597979-1.188645439044194,1.443872063088747-2.393299140918316,2.163402223488447-3.591433843746927.238788626373207-.397609259311139.489394695009651-.789016077636916.709403254651988-1.196842462210043.558192462453917-1.034779043373419,1.08398244599357-2.087382660780349,1.656082020686881-3.114285185998597.833328145269661-1.495833356930234,1.47702534983091-3.085086119865082,2.309813568524987-4.583118446549634.444382829439746-.799358986478182.720883860736649-1.692650563367351,1.065984140108412-2.54643175721867.250079431216363-.618701904466434.481514819857694-1.244947185899946.73349849663191-1.862854410161162.473623335909906-1.16144935745433.968176429604682-2.314500996886636,1.430734283737365-3.480277066395502.321439222677327-.810074472648921.610732503427244-1.633198883564546.902364358138584-2.454762214254515.458028872133582-1.290342335601963.928539926440862-2.57697914399796,1.350882716680644-3.879076189428815.331041745033872-1.020696092042272.588001781925414-2.065147645911566.894885654764948-3.093994344239036.259418999175068-.869724112220865.572468426631531-1.724278411089472.808898660480736-2.599816582100175.306574789143269-1.135172696038353.559324059448954-2.284848200370106.83782378217802-3.427642316270067.203980820690958-.836983981844241.453843359335224-1.66533790923495.608774485854156-2.511162668975885.235244001988576-1.284422617836753.646296114117831-2.539547232672703.669717310952365-3.861320744408658.001737625664646-.097779022678878.06445873498069-.193019443635421.087282316877463-.292117665534533.097870256126953-.425199989989778.20161516879034-.849485021171859.281484043049204-1.278138655456132.031805413812435-.170713930714555-.019971116456873-.357243104645022.013338936556465-.52737486640217.131286678903052-.670382245472865.301457369013406-1.333590994790939.417752063787702-2.00628163802503.088364957702652-.511135800712509.113010403912085-1.033036920727682.172884101276395-1.549352950316461.257492110209569-2.219988787192051.552992774938502-4.436303410057008.765072573431098-6.660604496442829.160530761651899-1.68362874154991.274017379019824-3.376238461882167.304840991049787-5.066739718443387.053633893141523-2.942029098764579.027280858494123-5.88551278048908.03446887764494-8.828385871509454-.008559034176869-.069329289821326-.017099036640502-.138648914616169-.025638979434007-.207978085100876-.036882768597934-.974864631152741-.073765537194049-1.949729262305482-.110629214406799-2.924593774122513-.008569654995881-.067630156738232-.017139309991762-.135260313477374-.025728116039318-.202881043859634-.136884892865055-3.067509738831177-.408874800220474-6.1213444183295-.886298085216367-9.156521477351816-.298463039696799-1.89744671884273-.507839947372304-3.810526709806254-.859214822352442-5.697603027896548-.411223322690603-2.208646844597752-.932373352256946-4.396836278395313-1.407955048434815-6.593456433774008-.133383587312892-.616029867219368-.24203267143821-1.239799721080999-.417225560949191-1.844005609291344-.683467052783271-2.356861563062012-1.386290385619759-4.708116478300326-2.087928143351746-7.059669456893062-.263394160387179-.882853159562728-.51302462257263-1.771538845944633-.821611796894103-2.638808935643283-.652503894870279-1.833877801834205-1.305496826595117-3.668932826431046-2.020772848371962-5.478822351172312-1.046591687620094-2.648253009969267-2.147965580491473-5.270969067903025-3.503690050660225-7.785943926065556-1.150496317252873-2.134274155672756-2.124865906122068-4.363528529667747-3.276435219209816-6.49718889815631-1.942012060140769-3.598242193897022-4.108355483603191-7.06532997130671-6.465662585937935-10.406515108774329-1.56885736242748-2.223615212131335-3.163406576172747-4.432943048504967-4.840299300510196-6.575209001598523-1.259075898235096-1.608496949384971-2.656456535103644-3.10987332312834-4.012488406492594-4.641027928747462-1.371843431349589-1.548956615876705-2.73293938972256-3.109907504643161-4.162090091122082-4.605053190014587-2.619492963033736-2.740486416013482-5.371453644102985-5.345535554859453-8.288813280115392-7.769761256981838-1.77117934841317-1.47180516737717-3.536148680287624-2.953585339228084-5.355920654833426-4.36379756407041-2.565544424145628-1.988177064394222-5.192577566665932-3.898064587966473-7.949016091413796-5.615696609136648-2.254513972548011-1.404882346437262-4.556722750340668-2.732978349785299-6.823770379412963-4.118059361505402-1.556555443486104-.950990650196218-3.21220458949756-1.699503414203718-4.85359429768414-2.481233265171795-.475201198142713-.226326782572869-.903191483145747-.549766504102081-1.369593969638117-.797032470539307-.800172637153082-.424171737384313-1.633875084939064-.783556294248228-2.455182721873825-1.16191015959339-3.293816059092023-1.517421197749172-6.629898661478364-2.937650820310409-10.064049729027829-4.114777644019341-1.332810625819548-.456845714580595-2.653616307998163-.952757640236996-4.000422994479777-1.363542778373812-1.27982553854963-.390357906147074-2.536950267791326-.851009552169671-3.846604589285562-1.154744386437415-1.596765525529008-.370328173673443-3.185040598591513-.791693812711856-4.750116700811304-1.277526978446986-.668893106770156-.207638726659752-1.428470750202905-.101167829540827-2.015664995687075-.578175053098676-.960004089190079.093817698496423-1.839487761488272-.308600300895705-2.760507100896575-.455858655302109-1.690007271777176-.270207182179547-3.370203959705577-.601058851348171-5.058538206740195-.882350489299824-.864908215799005-.144101076096376-1.738584903578158-.235448133054888-2.608233828776974-.351122023946118-1.227557867217001-.163281140043182-2.455074777127265-.327005916069538-3.682611956854089-.490542284024741l-1.575168526037487-.154075050860229c-.049063516097704.005588012103544-.097302292253516.001408395964063-.144697252002516-.012536342662315-.627331620352379-.054587016237747-1.254653695013985-.109173972809003-1.881975769674682-.16376092938026-1.038752646513785-.066046083098627-2.077514838719253-.132092225864653-3.116381988780631-.198146184242432l-1.576418508428105-.12820109695167c-2.960478620027061-.017464625148932-5.920958357709424-.036277638885622-8.881466260683737-.047530345640553-.120220288099517-.000455536305708-.24071478337919.070446431585879-.361077866970845.108107438004481-1.24246277371185.055667301524409-2.484925532507077.11133221662476-3.727388291301395.166997131726021-.477028648423584.043123328459842-.95406684253885.086246597252284-1.431095505879057.129372312135274-1.469291548440196.152638356231364-2.940267990365101.290770481801701-4.40742134708853.4617554200413-1.664853176252109.194024812336465-3.327952836460099.405322256444379-4.988667218599403.632089688602719-1.246443440264557.170199965748907-2.497318415540576.330055322038788-3.729431994823244.577947204184056-1.875659436399474.377370963296926-3.743121305205932.800957934981852-5.602332883493546,1.253163074818076-1.852299273364224.450525282141825-3.700751411071906.923946982075904-5.53146047649534,1.45436458711265-1.965677102830341.56952184972306-3.918646136427014,1.187552705539019-5.859122702522654,1.838187476427265-2.336025762618192.783255817918871-4.662757949974548,1.594687660251111-6.918360258498979,2.598201359693121-1.526872065016505.679304721140397-3.103002415751689,1.251800874238143-4.610377150862405,1.970130066983074-2.541094822383457,1.210950257723198-5.05068531685265,2.48872658368964-7.561215880149575,3.762649969572522-.732942299693605.371910585558908-1.417850867042034.837310097951558-2.135969028448017,1.239908481689781-1.002959117250612.562303919507031-2.035463157106278,1.074186997639117-3.020552462703563,1.665574922046289-1.205590819052304.723769084363084-2.375649097411952,1.5067644972587-3.559963252082525,2.265901100100564-.194823448665375.124880949838371-.387031411036332.254365132332168-.575091655016877.38920194504135-.868690240028627.622834738650454-1.710161031060125,1.287851848261198-2.609040500256924,1.863311685739063-1.253819259839474.80269518330806-2.487172513057885,1.626891932330182-3.62999500184651,2.583848464862967-.264214700231605.221239524379598-.576117604679894.384580009953424-.84964420921915.595847740233694-.816939442783223.630981218607303-1.637615961331903,1.258111105931675-2.433586581336385,1.914911854346428-.545627311730641.450223187296615-1.038713005864338.963812234463148-1.580453554365704,1.419138223139271-.558265701800337.46921722490697-1.170346774890277.87572885256759-1.716554040277515,1.357646121698053-.686616721885002.605806670036145-1.306903173238425,1.287298670636119-1.998970957291931,1.886274469687123-.696434881015193.602757381225274-1.396651631982422,1.186685376069363-2.025313416588688,1.872544852575629-1.026245998683407,1.119610338479106-2.156204135937514,2.143598605507577-3.228641317804431,3.221619167679819-.763201624068643.767181481202897-1.594576463635349,1.458766345771437-2.274453188698317,2.32030170863618-.629297250914533.797448997661377-1.431506160411118,1.455766760729603-2.110049011390402,2.217682959770173-.930552146834088,1.044885273254295-1.842047289219408,2.109134532565804-2.71482900594583,3.202502623888904-1.155295037386168,1.447283765372958-2.280617009172602,2.919254858603381-3.390530900183876,4.401799069273693-1.175407540801643,1.570054081164926-2.320234580632132,3.163066676403105-3.471626069486774,4.75097882490536-.177911524182491.245357761208652-.311935083918797.522033655690393-.479083429408092.775792408854613-.693409761209296,1.052672761331451-1.442630531743816,2.072501859884142-2.075541217099271,3.160157268062903-.817596660244817,1.405034064580832-1.758959479608166,2.733937867910754-2.509248305943402,4.18044073252895-.453596683879368.874495742758882-.986263820598651,1.707821457064711-1.477642098762772,2.562950724226539-.418324769829269.728012299609873-.863447985560015,1.443466297786472-1.234148601853121,2.195335970052838-.596050026166267,1.208920365137601-1.138094546322463,2.444401343008394-1.707621997515162,3.666489233309221-.398427106892996.854946594481589-.841412354558088,1.691104849206567-1.200716635346907,2.56198017369843-1.266095743651022,3.068706179960827-2.535290197312861,6.13681068079768-3.741444384990245,9.229279396985476-.65458985796522,1.678306733517275-1.215787084775002,3.395381496707159-1.758568227754949,5.11408919807036-.345131715514071,1.092852635140844-.579299446180812,2.220745615801206-.862956445165764,3.332998273025623-.372757752109464,1.461625796772751-.754544235273897,2.921047292906223-1.114615646304628,4.385788037036946-.245705872519466.999502660698454-.455354035298114,2.007812620257027-.691965013264053,3.009625001873246-.130480399771841.55246475129934-.312337015953744,1.094126785099434-.418166565289539,1.650707238898576-.111349485884602.585585078198164-.132346925846832,1.188201883603142-.240777459115634,1.774511616148629-.28327708750021,1.531775925810507-.622733127794163,3.05368326603093-.879159500645073,4.589655467543707-.128668070431559.770699112732473-.11406726009136,1.56444062974515-.183696548953776,2.346028540845509-.173191043840234,1.943985335573416-.357535272930363,3.886984533433861-.537400067240014,5.830374481470244-.018514597682952.017945424206118-.052150286391225.035529040782421-.052575262005121.053883466289335-.001079233771634.046282120464639.012809892418773.092925093877056.020697881104752.139416003038605-.084975750062767,1.481228053927225-.198049003748565,2.961478608592188-.24977824465077,4.443859537778735-.169993219938988,4.871248707863742-.133553162171665,9.739119748455778.31222626001454,14.597931897592389.080825592590372.88095783404151.145720379403429,1.763572564806964.204483491189421,2.646301705170117.023690715475823.355872629438636-.017725200855239.717485960535669.023190955776045,1.070373336639932.040872962628782.352543447790595.170511557269492.694148283807408.221264788189728,1.046295279373226.158677348013043,1.101061222639146.277990049693472,2.208081329472407.451806746991679,3.306583378151117.149604878054561.945499123399713.177047086012863,1.908066689567931.527952837705016,2.828266938680827.159088191157025.417202826489302-.068981361826445,1.009332420415376.138736915827394,1.373839470581515.262951845291354.461477564407687.100680726844985.913137627463584.230588676340631,1.354061401558283.158979281173742.539620876077606.2111225639228,1.109980501403697.323886965668862,1.664108900728024.227950775416502,1.120147241894301.442754267412056,2.243725255411846.706014442366723,3.355711762174906.242408511197027,1.023898730956716.544119283224063,2.033715402647431.814308983101,3.051162817531804.227068469168444.8550666095216.413137945622111,1.722515934810872.675639910539758,2.566367844272463.657110979817844,2.112413029450181,1.290242578477773,4.23508138055513,2.039186952328237,6.315382710921767.866684035961043,2.407359955708671,1.694440848647901,4.832022254373442,2.762346565081316,7.164519674213807.663871839979947,1.450015694130343,1.227490498147745,2.946676844001558,1.911594200038053,4.386547436655746.982122717540733,2.067096109762133,2.010642403383827,4.113079957873197,3.060042582205824,6.147089914557,1.471930310658536,2.852992324038496,3.125600520737862,5.602591249129546,4.865531126729365,8.29915685085507,1.895201484300742,2.937199651512856,3.872759419818067,5.8151939116633,6.020822700241297,8.578154718628866,3.322892913810392,4.274076786083242,6.843568268491254,8.372921309179219,10.652595522094998,12.219222900632303,1.335878334660265,1.348942225218707,2.731618220129349,2.640142188402024,4.128368878215042,3.926938187882115,5.143454617542375,4.738608300714986,10.655190830058928,9.003914607015759,16.528323803407147,12.80160352234634,8.921357329958482,5.768702700399444,18.416537000088283,10.337214390308873,28.514345919690641,13.64952699859532,3.531532974525362,1.158399977986846,7.106253996043961,2.156180542664515,10.726660930786238,2.996908443481516,3.701964712670815.85966160065982,7.436258899728273,1.545710542774032,11.200676318650039,2.050687105462202,2.242657028607027.300839290863223,4.501454596630538.48132723076742,6.752993104165398.715915073751603.475469190438162.046005686999706.950928954519441.091992222949557,1.426398264292402.137978818564079.357825010474699.012164573778136.715640355922005.02434817926769,1.073465366395794.036512753044008.735616249452505.047899085271638,1.471242044596693.095798230211585,2.206858294050107.143697315483223.725534470135244.017536858285894,1.451078485962171.035073776240097,2.1766702302466.052610992532209.523900811371277.040714426120758,1.047811168433327.081428911908006,1.571711860468895.122162429412128Z" fill="#4f4e4e"/><path d="m132.446606093111768.060673573591885c-1.832083082936151-.016415806266195-3.664156620181529-.032831552863172-5.496230172342621-.04924491303882.007467085556527-.038509879545927.016221064353886-.076727719655537.026280997939466-.114648628148643,1.675130701098169.021883106169298,3.350295052453475.041437182953814,5.025319269728243.069665369856011.148692921703514.002506926136448.296441017490906.061482463637731.444629904674912.094228171331451Z" fill="#b8a39c"/><path d="m130.72592360505223.037299388996871c-.684951883510621.038606633186646-1.369903767021242.077213266375111-2.054865196223545.115819839894357.684942337818939-.038606692854955,1.369903767021242-.077213266375111,2.054865196223545-.115819839894357Z" fill="#a7938c"/><path d="m130.724768021136697.244088409967844c-.684171953515033-.046460631438094-1.368353452721749-.092921322545408-2.052554028393388-.139384519409759.684162422739973.046458185348456,1.368362998412522.092921382213717,2.052554028393388.139384519409759Z" fill="#a7938c"/><path d="m130.412333627433327.177535074275511c-.475891903403863.039946821452759-.951783806806816.079893642907336-1.427685240985738.119838018269547.47588235771218-.039946881120159.951783806806816-.079893642906427,1.427685240985738-.119838018269547Z" fill="#a7938c"/><path d="m130.257612003233589.409275691210496c-.372740981984862-.041905499082532-.745472403361418-.083813324920811-1.118241992587173-.125723775851839.372731436293179.041905439415132.745481949053101.083813384588211,1.118241992587173.125723775851839Z" fill="#a7938c"/><path d="m130.257362353388089.318602930229645c-.372574543782321.039898153962895-.745149072648019.079793921503551-1.117742692896172.119689569708498.372564998091548-.039898213630295.745158633257233-.079796248259299,1.117742692896172-.119689569708498Z" fill="#a7938c"/><path d="m130.177396001445231-.103219967595578c-.01005993358558.037920908493106-.018813912382939.076138748602716-.026280997939466.114648628148643-.310509648772495-.003811939941443-.62100976677084-.007621433791428-.931528991070081-.011428660553065.319254066961548-.034403573413329.638536800831389-.068811740669844.957809989009547-.103219967595578Z" fill="#dfd1cb"/><path d="m129.682502134577589,132.419781623844756c.010697371340939-.071175412545927.021375710965913-.142360490117426.031977744725737-.213555590719807-.01069737133912.071175412545927-.021337528198274.142360728786116-.031977744725737.213555590719807Z" fill="#aba9a9"/><path d="m129.68065385715272,139.603560021477278c.011897796985977-.064686131257986.023795593971954-.129372262515062.035674299574566-.194058513106029-.011878645935212.064676704899284-.023776442921189.12936283615818-.035674299574566.194058513106029Z" fill="#b8b6b7"/><path d="m134.320475743576026,5.981695277389917c-2.823359380231523-.003651134137726-5.646715196440709-.006345253038489-8.470068101633842-.012559465005324-.257969299951583-.000567201832382-.515893032635176-.023696242134974-.773901371638203-.036344232537886.120305749775071-.037651818732229.240800245054743-.108553786623816.36102053315426-.108098250318108,2.960507902974314.011252706754931,5.920987640656676.030065720491621,8.881466454603469.047499322143267.000860278903019.036471343522862.001348007333945.072983315624697.001482485514316.109502625718051Z" fill="#839198"/><path d="m130.639450269620284,6.362331885743515c-.627293452504091-.054584391144999-1.254577374233122-.10916633620036-1.881918525359652-.163755798528655.627264830345666.054581825719652,1.254586905007272.109168782290908,1.881918525359652.163755798528655Z" fill="#87979e"/><path d="m130.486056178576291,6.528943279266059c-.52503708396307-.051358230951337-1.050055076543686-.102716342568783-1.575130343272576-.154074812190629.525017992579706.051358111616537,1.050074167926141.102716461903583,1.575130343272576.154074812190629Z" fill="#87979e"/><path d="m128.91173572795924,5.981692890967679c-.000134493096994-.036516923671115-.000622221527919-.07302889577295-.001482500430939-.109500239295812.525472642222667.042764722481479,1.050945478365975.085498421465672,1.576475558823404.128237251300561-.524956336385003-.006243025685762-1.049979477692432-.012488855467382-1.574993058392465-.018737012004749Z" fill="#7f8d93"/><path d="m130.414010070596305,6.09980028568225c-.476990420906986.043116407860907-.953980841813973.086232815722724-1.431038127312604.129355965180366.476971299691286-.04311175435123.954009493806552-.086235023143672,1.431038127312604-.129355965180366Z" fill="#808f95"/><path d="m129.711310526491616,125.820352388341234c-.008540002460904-.069319624794844-.017080004924537-.138639249589687-.025639039102316-.207968539410103.008559093845179.069319744128734.017099096308812.138639368923577.025639039102316.207968539410103Z" fill="#bdbaba"/><path d="m129.711336003410906,122.687780409783045c-.008569714663281-.067620611048369-.017139369658253-.135250767786602-.025689992940897-.202871259499261.008588865715865.067611184691486.017158520711746.135241341430628.025689992940897.202871259499261Z" fill="#b6b3b3"/><path d="m130.489613648656814,53.289307361713327c-.527415114366704-.003845627052215-1.054830228733408-.00769125410352-1.582245283433622-.011546426846508.529062625014376-.220018378009627,1.056799581535415-.261552729549294,1.582245283433622.011546426846508Z" fill="#89756e"/><path d="m69.298420322857964,180.02563365914466l3.06005859375,2.6845703125-7.56787109375,17.7734375c-.81689453125,1.94140625-2.6552734375,5.4970703125-2.6552734375,5.4970703125l.0556640625.048828125s3.333984375-2.3427734375,5.0751953125-3.3740234375l16.58056640625-9.869140625,2.94873046875,2.5869140625-25.38525390625,14.3515625-3.11572265625-2.732421875,11.00390625-26.966796875Z" fill="#4f4e4e"/><path d="m93.070881260357964,198.70336803414466l18.30712890625,6.93359375-1.1796875,3.115234375-14.77734375-5.59765625-2.94873046875,7.787109375,13.35791015625,5.0595703125-1.11376953125,2.94140625-13.3583984375-5.0595703125-3.2900390625,8.6865234375,15.15771484375,5.7412109375-1.21875,3.2177734375-18.68798828125-7.078125,9.751953125-25.7470703125Z" fill="#4f4e4e"/><path d="m140.120685947857964,230.60668834664466l-.11083984375.001953125c-1.9130859375,3.0283203125-4.849609375,4.556640625-8.43896484375,4.6142578125-3.84814453125.0615234375-7.09130859375-1.3671875-9.388671875-3.8466796875-2.33447265625-2.4794921875-3.68701171875-6.0107421875-3.75390625-10.1923828125-.06689453125-4.1435546875,1.09521484375-7.8271484375,3.34765625-10.4541015625,2.1796875-2.5517578125,5.41162109375-4.12109375,9.6669921875-4.189453125,6.4755859375-.1044921875,10.2685546875,3.314453125,11.38623046875,8.3662109375l-3.92236328125.0634765625c-.86376953125-3.0947265625-3.23046875-5.240234375-7.44873046875-5.1728515625-6.4384765625.103515625-9.28369140625,4.998046875-9.181640625,11.3251953125.10546875,6.5498046875,3.9873046875,10.8916015625,9.4267578125,10.8037109375,5.47607421875-.087890625,8.0068359375-3.830078125,7.9736328125-8.1962890625l-.00927734375-.591796875-7.99267578125.1279296875-.0517578125-3.21875,11.72998046875-.1884765625.234375,14.578125-2.4052734375.0390625-1.0615234375-3.869140625Z" fill="#4f4e4e"/><path d="m158.366291416607964,201.75414928414466l3.880859375-1.6513671875,20.10107421875,21.3603515625-3.8125,1.62109375-5.66162109375-6.3154296875-9.974609375,4.2431640625.55517578125,8.4873046875-3.57421875,1.5205078125-1.51416015625-29.265625Zm4.328125,16.12890625l8.10205078125-3.4462890625-5.4287109375-6.052734375c-1.89404296875-2.0888671875-3.8203125-4.7275390625-3.8203125-4.7275390625l-.10205078125.0439453125s.5400390625,3.3486328125.72216796875,6.044921875l.52685546875,8.1376953125Z" fill="#4f4e4e"/><path d="m177.223713291607964,192.01098522164466l2.81005859375-2.7880859375,20.154296875,4.2880859375c2.37890625.505859375,6.03662109375,1.7236328125,6.03662109375,1.7236328125l.07861328125-.078125s-2.71142578125-2.365234375-4.32763671875-3.9931640625l-11.85791015625-11.9482421875,2.52099609375-2.501953125,19.39013671875,19.537109375-2.78369140625,2.7626953125-20.1279296875-4.314453125c-2.40478515625-.5322265625-6.0634765625-1.64453125-6.0634765625-1.64453125l-.05224609375.0517578125s2.685546875,2.390625,4.2490234375,3.966796875l11.88427734375,11.974609375-2.52099609375,2.501953125-19.39013671875-19.5380859375Z" fill="#4f4e4e"/><path d="m190.792883907348369,59.2896853143111c.291241784714657.297657783105024.31234139798471.590429049429076.199184727422107,1.020717001192679-.535781310314633,2.037098385328136-.994422858106191,4.094367708221398-1.495190727935551,6.140873040058977-.129134737546337.527701125451131-.360408656626532,1.033428352656301-.457894835875777,1.56517436860122-.158345633364661.863673649215343-.174394500412745,1.757390437584945-.378001617118571,2.60789398259476-.326719586946638,1.364667810382343-.332398020953406,2.758758658709667-.507471599677956,4.136087388086708-.173909594370343,1.368267243909941-.307451894859696,2.741598029264424-.467779045389761,4.111649372804095-.368417122059327,3.148480699344873-.891827498329803,6.270008190636872-1.806229876521684,9.309754355787845-.434808374448039,1.445401014317213-1.209698246460903,2.740082232700843-2.091684277118475,3.956694531678295-.580114389957089.800257495222468-1.171345759204996,1.610535691344012-1.869807733224661,2.303166144512943-1.486851944298905,1.474489073011682-2.848583831551878,3.07882302865255-4.526104200962436,4.360139383314163-2.966397655991386,2.265764253136695-6.20745276231537,4.018085367028107-9.715243546519559,5.281632158704269-2.045171685167588.736706345610401-4.135563282481598,1.313090263552112-6.268120416008969,1.738373252014753-1.800321738164712.359019426190571-3.600946134080004.717588295521637-5.395166883829006,1.10545587980414-.569638813229176.1231442560902-1.134442477075936.303547391690699-1.670443244160197.530906282106116-.227991633646525.096689336640338-.387186823232696.372386928573178-.559122897435373.581917476599301-1.611433180216409,1.964005765216825-2.924045429936086,4.121888918855802-3.907244523892587,6.454261706428952-1.585687849377791,3.761576073198739-3.106180137696356,7.551290983299623-4.607030619452416,11.347753637708593-1.205425163616383,3.049143686633215-2.160798735103526,6.186547734946544-3.128674472933199,9.317334581480281-.69660945596479,2.253328107743982-1.374240649709463,4.512655219134103-2.042875806584561,6.774453716605422-.299062717249399,1.011579025352148-.5497012853466,2.03738844489817-.832718891915647,3.05384079608757-.239269110710666.859330300678266-.512255625726539,1.709610187368526-.735655265812966,2.572896293821032-.205126032758926.792644900182495-.367174277043887,1.596556134130878-.542439841079613,2.396776337851406-.281510060307482,1.285355317546419-.556813870916812,2.572028601305647-.837427829577791,3.857580441426762-.396047169342637,1.81431230866292-.81357416985702,3.624232808006127-1.186158390897617,5.443331164487972-.321086822146754,1.567690533476707-.602962574652338,3.143683043062993-.882031297191133,4.719597637986226-.23331281339415,1.317559532770247-.434357255999203,2.640800207333086-.655360066561116,3.960594097146895-.268541515544712,1.603740353013563-.524840444773872,3.209810102311167-.820013600845414,4.808668232357377-.297722343042551,1.612664897076684-.658595989709283,3.213766157148711-.951273793369182,4.827283547811021-.29465555959905,1.624483002351553-.53110722735255,3.259410465438123-.809448725110997,4.886973814654993-.14745411761578.862233450934582-.294705987909765,1.727236524749969-.506266692085774,2.574960179617847-.207585508680495.831806575122755-.45578756768009,1.651083028375069-.932288505084216,2.393232156475278-.464152020231268.722885991270232-1.101500712649795,1.122395149715885-1.928492654737056,1.126542807040096-2.423382492881501.012134747714299-4.847630408299665.005420154706371-7.270212445093421-.050942652555023-.950468425762665-.022112152621048-1.775530075792631-.392444537474148-2.105862770022213-1.400282706448706-.164763281154592-.502732853039561-.293660167393682-1.019503335277477-.403964193565116-1.537341310599004-.233906467670749-1.098171244708283-.440465479505292-2.202128292126872-.666772501635933-3.301951234241642-.226982854641392-1.103187381240787-.471619991101761-2.202743057336193-.694168155489024-3.306780956465445-.11816258626277-.586217826286884-.192291010427653-1.181305536743821-.310310291984933-1.767541559402162-.231501750968164-1.149953159121651-.473258439729761-2.297984837668992-.723428105837229-3.444026245653731-.164707374937279-.754500407078012-.362871210694721-1.501764011125488-.525179395026498-2.256764908994228-.157660760833096-.73337865033136-.26788789893908-1.477324227327699-.437806045858451-2.207610201849093-.143238141961774-.615547339684781-.370354170008795-1.211782255306389-.509024340037286-1.828122003384124-.154227926417661-.685435949138991-.230595214201458-1.388140892468073-.37730757760437-2.075553629527349-.146248802358969-.685214244645977-.345684177802468-1.358866547794605-.50774184081456-2.040933947417216-.494450987334858-2.081077985450975-.971559120620441-4.166362386564288-1.476096564685577-6.244983258698994-.347268829673339-1.430643765466812-.736059277005552-2.851199137416188-1.090746661420781-4.280113706263364-.103712321682906-.417830385575144-.120021769531377-.858425928925499-.235607144712048-1.272034800727852-.290014773929215-1.037637163477484-.645339034221251-2.057697773378095-.915057278043605-3.100172022279367-.255988595015879-.989407770968683-.412720593858467-2.004236779755956-.658103207415479-2.996747549014799-.186622671535588-.754895137371022-.456580199870587-1.488775256882036-.666222071613447-2.238506669182243-.255581347129919-.914058138762812-.482933632651111-1.8359680655376-.729774286548491-2.752520367812394-.220886167822755-.820137100115062-.463362605838483-1.634633786147788-.672144834647042-2.457749968454664-.081360797685193-.320759933974841-.064219049158055-.666955365190915-.149599061403933-.986136683356563-.130211051518927-.486737231940424-.333065664939568-.953939080083728-.46512154094853-1.440286908814414-.350211212618888-1.289790884588001-.654186248117185-2.592533150793315-1.023305212624109-3.876695491801911-.365689802796624-1.272284694218797-.791714474014952-2.527171753297807-1.185223112359381-3.791563911037883-.357910690185236-1.149960529715827-.702249134119484-2.304141498076206-1.062436352942314-3.453371664727456-.421285767046356-1.34411313997407-.834428997375653-2.691239669852621-1.286565253691151-4.02504497695918-.356988587202068-1.05312903430422-.789216512492203-2.080734435770864-1.147324153293084-3.133517260592271-.26811898858432-.788243010338192-.439663774406654-1.609551330890099-.712414632165746-2.395942719087543-.279933557909317-.807122606939629-.641139452476637-1.585685458922853-.945819087963173-2.384743585376782-.152029941329602-.398706164732175-.238437351945322-.822308757709834-.388035766209214-1.222107067103025-.238335705897043-.636980827345724-.508994206029456-1.261772904040299-.758342540510057-1.894736852751521-.668603041704046-1.697240606208652-1.314993133346434-3.403525679300401-2.007427239708704-5.090949155735871-.317411518442896-.773506526972596-.737318677740404-1.504324139818891-1.081991565128192-2.267490853244453-.232004257790322-.513663375032593-.376740282434184-1.068258910073382-.62542289859266-1.572537748933428-.548551063759078-1.11243333344828-1.149127059954481-2.199083374352995-1.706620769269648-3.307257784718786-.309192734031967-.614618187402812-.545142065611799-1.26684825520897-.866722785698585-1.874279321503309-.401671527191866-.758730872062188-.866251632016429-1.483861433059246-1.288101207408545-2.232275038115404-.903661468191785-1.603172879565136-1.772755288071494-3.226415073098906-2.704691941980855-4.812829974842316-.517654334358667-.881206354870301-1.143561749444416-1.698157039978469-1.702621194139283-2.555842960409791-1.162238131451886-1.782995102847963-2.231623900683189-3.632833663975362-3.484594952511543-5.349019790811326-2.530570082535633-3.466109251159651-5.141441428020698-6.874222160784484-7.756245542061151-10.277787088208242-.758847392127791-.987758880111869-1.653669000703303-1.870129546913631-2.466742453056213-2.81747523028298-.479898495104862-.559153429057005-.911753375676199-1.159264641053596-1.383175171858966-1.726021028251125-.558325337753558-.671218055057579-1.154502825143936-1.311571635663313-1.699053513482795-1.993428592532837-.39400378566279-.493359628103462-.868206568417008-.980208973983281-.671056167118877-1.735454516877326.581806138585307-.285928833797698,1.121357229931164.001505992723651,1.652579217177845.14006561169117,1.768913369887741.461373493812061,3.40026706356366,1.246653797774343,4.929392844755057,2.236435254620119,1.631931368694495,1.056334868507292,3.266570552503254,2.111665233936037,4.853023156178097,3.233879599681131.89910130037606.636003948777216,1.730787689601129,1.375953627794843,2.545268204727108,2.1211033694035,1.489887377751074,1.363068916693919,2.972781037582536,2.736260676188977,4.403942560913492,4.160171878727851.968154833266453.963254645723282,1.832277244222496,2.030264319847447,2.761423579824623,3.033750447284547,2.079347683968081,2.245726447919878,4.04215355839915,4.591273121431186,5.934143246933672,6.99388263441142,2.823015619615035,3.584933814378019,5.555773573621991,7.238531511957262,7.702830640380853,11.283427022748583,1.772526825225214,3.339324495214896,3.393791556776705,6.749652179918485,4.691994361775869,10.30875967236716.550453171705158,1.509112838604779,1.229644406143052,2.970908672971746,1.795317470779992,4.474885403673397,1.403111500469095,3.730561433080766,2.68296607891898,7.50205917621588,3.726836369594821,11.352335609522015.721038793644766,2.659496643060265,1.523691416365182,5.296888805301023,2.243601968722942,7.956674324029336,2.519790056338024,9.309550661173489,5.012413785196259,18.626453811805732,7.538390644069295,27.93432485339963.236861619827323.872807135177936.633038356534598,1.702717301510347.963940926714713,2.549135082974317.033157971647597.084804484507913.127101253690853.145818286289796.241926881935797.271684934827135.106595423601902-.162533218650424.210580777133146-.270975658904717.257600680452015-.400145476194666.96917969667993-2.662849709215152,1.943065060137087-5.32408535788818,2.890909067917164-7.994533453076656.441316121929049-1.243384704777782.828644928938957-2.505931708637945,1.242234165192713-3.759188528101731.607933739425789-1.842141544170772,1.213238238084159-3.685158668808981,1.827344936071313-5.525237861833375.827574062239364-2.479696271193461,1.664836223422753-4.956153145261851,2.49303910794697-7.435654564570541.359239757664909-1.075505165104005.67212314372955-2.167700229976617,1.064324403825594-3.230818583476321,2.702711156565783-7.326062952733992,5.354859754534118-14.672450509323426,8.56183522559877-21.800459445427805.967339331738913-2.150037085153599,1.917700287180196-4.31141601536001,3.061759717467794-6.373412462432498,1.279787051607855-2.306615551612595,2.609107751384727-4.587128015758935,3.971837043067353-6.84583845412908.803454127961231-1.331722776237257,1.691010416290737-2.614788595861683,2.580420951020642-3.892115186434239,1.692320607213333-2.430379079462909,3.385408091788122-4.861268852864669,5.135830965948116-7.249673455983611.693498697328323-.946252679060308,1.540558374887041-1.779971089070386,2.317888364275859-2.664776778293344,1.199405618206583-1.36529373054691,2.400918864088453-2.728731896449972,3.594551907994173-4.09905430148865.091785301261552-.10535895213161.128294282374554-.258851020073052.221875553019345-.456050978112216-.820977374500217-.168512598999769-1.571327673902488-.084357612791791-2.259478073836362.171203912469537-1.363287930693332.506288167242019-2.667698965107775,1.141377108890083-3.955887915341009,1.835495306148005-1.956085676152725,1.054020708195821-3.64129497607064,2.41086519360033-5.212446284473117,3.953769011601253-1.916816795641353,1.882339526965552-3.788424153579399,3.807556185343856-5.414434269525373,5.947204334343951-1.299098565144959,1.709455332443213-2.551575703706476,3.45886598047673-3.736529991070711,5.248944903146366-.768421136748657,1.160847645007379-1.398688682307693,2.415909814655606-2.050209635252031,3.650210089787834-.310970421318416.589148518533875-.49904434689779,1.242365182905814-.797138829328105,1.839421958269668-.179324488675775.359157109382977-.463252834408195.66608298236315-.678868806469836.966782250487995-.538416739491367-.076421527655839-.745926351573871-.403678530072284-.785709795469302-.752606755219858-.137973797129234-1.210339254902465-.272175610771228-2.425466148640226-.311815595876396-3.641882536815501-.157509997367015-4.833574667220091.769984674348962-9.457761593896976,2.700596913642585-13.895314964159297,1.364647063519442-3.136688181533827,3.095219270655434-6.039052876280948,5.291865269262416-8.65989283390627.72608554184626-.866291619183357,1.406700048381026-1.794697324798108,2.248574020622982-2.534906263810626,1.713753771069605-1.506787471039388,3.464580174542789-2.973182918050952,5.453043961531876-4.136819164782537,2.345915781672375-1.372799508573735,4.881747619969246-2.239635108204311,7.495619208633798-2.851537328027916,4.198584264306191-.98287503717529,8.425452831799703-1.844992163920324,12.64043833294636-2.7577920290978,2.667688681043728-.577725025391373,5.336992517581166-1.148113350429412,8.002545804609326-1.735469383508644,1.076560547284316-.237215616683898,2.143093109967595-.519508382428285,3.217799681577162-.765560924383863,1.071800385343522-.245383391094947,2.148078878884917-.471073898011127,3.222387535770395-.70539204099623.527415054701123.003855172742988,1.054830169066918.007700799794293,1.582245283432712.011546426846508Z" fill="#4f4e4e"/></svg>